<?xml version="1.0" standalone="no"?>
 <!DOCTYPE svg PUBLIC "-//W3C//DTD SVG 1.1//EN" 
 "http://www.w3.org/Graphics/SVG/1.1/DTD/svg11.dtd"> 
<svg
  xmlns:svg="http://www.w3.org/2000/svg"
  xmlns="http://www.w3.org/2000/svg"
  xmlns:xlink="http://www.w3.org/1999/xlink"
  version="1.1"
  width="297.0022mm" height="210.0072mm" viewBox="0.0000 0.0000 297.0022 210.0072">
<title>SVG Image created as rcbus-opl3-F_Courtyard0.svg date 2025/10/04 22:34:39 </title>
  <desc>Image generated by PCBNEW </desc>
<g style="fill:#000000; fill-opacity:1.0000;stroke:#000000; stroke-opacity:1.0000;
stroke-linecap:round; stroke-linejoin:round;"
 transform="translate(0 0) scale(1 1)">
</g>
<g style="fill:none; 
stroke:#000000; stroke-width:0.0500; stroke-opacity:1; 
stroke-linecap:round; stroke-linejoin:round;">
<path d="M79.5200 141.7700
L82.4800 141.7700
" />
<path d="M79.5200 143.2300
L79.5200 141.7700
" />
<path d="M82.4800 141.7700
L82.4800 143.2300
" />
<path d="M82.4800 143.2300
L79.5200 143.2300
" />
<path d="M109.2700 140.7700
L112.2300 140.7700
" />
<path d="M109.2700 142.2300
L109.2700 140.7700
" />
<path d="M112.2300 140.7700
L112.2300 142.2300
" />
<path d="M112.2300 142.2300
L109.2700 142.2300
" />
<path d="M145.3190 131.8450
L145.3190 119.3450
" />
<path d="M160.3190 119.3450
L145.3190 119.3450
" />
<path d="M160.3190 131.8450
L145.3190 131.8450
" />
<path d="M160.3190 131.8450
L160.3190 119.3450
" />
<path d="M60.6800 139.6900
L60.6800 155.9300
" />
<path d="M60.6800 155.9300
L66.7700 155.9300
" />
<path d="M66.7700 139.6900
L60.6800 139.6900
" />
<path d="M66.7700 155.9300
L66.7700 139.6900
" />
<circle cx="65.0320" cy="131.8820" r="3.4500" /> 
<path d="M59.7000 161.7000
L59.7000 165.3000
" />
<path d="M59.7000 165.3000
L159.8000 165.3000
" />
<path d="M159.8000 161.7000
L59.7000 161.7000
" />
<path d="M159.8000 165.3000
L159.8000 161.7000
" />
<path d="M79.3500 146.3500
L79.7300 146.3500
" />
<path d="M79.3500 154.3500
L79.3500 146.3500
" />
<path d="M79.7300 144.4200
L92.2700 144.4200
" />
<path d="M79.7300 146.3500
L79.7300 144.4200
" />
<path d="M79.7300 154.3500
L79.3500 154.3500
" />
<path d="M79.7300 156.2800
L79.7300 154.3500
" />
<path d="M92.2700 144.4200
L92.2700 146.3500
" />
<path d="M92.2700 146.3500
L92.6500 146.3500
" />
<path d="M92.2700 154.3500
L92.2700 156.2800
" />
<path d="M92.2700 156.2800
L79.7300 156.2800
" />
<path d="M92.6500 146.3500
L92.6500 154.3500
" />
<path d="M92.6500 154.3500
L92.2700 154.3500
" />
<path d="M120.2700 128.4002
L121.7300 128.4002
" />
<path d="M120.2700 131.3602
L120.2700 128.4002
" />
<path d="M121.7300 128.4002
L121.7300 131.3602
" />
<path d="M121.7300 131.3602
L120.2700 131.3602
" />
<path d="M103.9500 129.8500
L103.9500 135.8000
" />
<path d="M105.1000 128.7000
L103.9500 129.8500
" />
<path d="M106.4500 127.5500
L106.4500 128.7000
" />
<path d="M106.4500 128.7000
L105.1000 128.7000
" />
<path d="M106.4500 135.8000
L103.9500 135.8000
" />
<path d="M106.4500 136.9500
L106.4500 135.8000
" />
<path d="M108.5500 127.5500
L106.4500 127.5500
" />
<path d="M108.5500 128.7000
L108.5500 127.5500
" />
<path d="M108.5500 135.8000
L108.5500 136.9500
" />
<path d="M108.5500 136.9500
L106.4500 136.9500
" />
<path d="M109.9000 128.7000
L108.5500 128.7000
" />
<path d="M109.9000 128.7000
L111.0500 129.8500
" />
<path d="M111.0500 129.8500
L111.0500 135.8000
" />
<path d="M111.0500 135.8000
L108.5500 135.8000
" />
<path d="M118.0200 128.4002
L119.4800 128.4002
" />
<path d="M118.0200 131.3602
L118.0200 128.4002
" />
<path d="M119.4800 128.4002
L119.4800 131.3602
" />
<path d="M119.4800 131.3602
L118.0200 131.3602
" />
<path d="M126.5500 146.5000
L126.9900 146.5000
" />
<path d="M126.5500 154.5000
L126.5500 146.5000
" />
<path d="M126.9900 144.6000
L142.0100 144.6000
" />
<path d="M126.9900 146.5000
L126.9900 144.6000
" />
<path d="M126.9900 154.5000
L126.5500 154.5000
" />
<path d="M126.9900 156.4000
L126.9900 154.5000
" />
<path d="M142.0100 144.6000
L142.0100 146.5000
" />
<path d="M142.0100 146.5000
L142.4500 146.5000
" />
<path d="M142.0100 154.5000
L142.0100 156.4000
" />
<path d="M142.0100 156.4000
L126.9900 156.4000
" />
<path d="M142.4500 146.5000
L142.4500 154.5000
" />
<path d="M142.4500 154.5000
L142.0100 154.5000
" />
<path d="M122.4950 154.7700
L125.4550 154.7700
" />
<path d="M122.4950 156.2300
L122.4950 154.7700
" />
<path d="M125.4550 154.7700
L125.4550 156.2300
" />
<path d="M125.4550 156.2300
L122.4950 156.2300
" />
<path style="fill:none; 
stroke:#000000; stroke-width:0.0500; stroke-opacity:1; 
stroke-linecap:round; stroke-linejoin:round;fill:none"
d="M 115.5000,147.2500
123.5000,147.2500
123.5000,153.7500
115.5000,153.7500
Z" /> 
<path d="M113.1000 135.9700
L113.5000 135.9700
" />
<path d="M113.1000 141.0300
L113.1000 135.9700
" />
<path d="M113.5000 134.2000
L123.5000 134.2000
" />
<path d="M113.5000 135.9700
L113.5000 134.2000
" />
<path d="M113.5000 141.0300
L113.1000 141.0300
" />
<path d="M113.5000 142.8000
L113.5000 141.0300
" />
<path d="M123.5000 134.2000
L123.5000 135.9700
" />
<path d="M123.5000 135.9700
L123.9000 135.9700
" />
<path d="M123.5000 141.0300
L123.5000 142.8000
" />
<path d="M123.5000 142.8000
L113.5000 142.8000
" />
<path d="M123.9000 135.9700
L123.9000 141.0300
" />
<path d="M123.9000 141.0300
L123.5000 141.0300
" />
<path d="M71.5200 153.2700
L74.4800 153.2700
" />
<path d="M71.5200 154.7300
L71.5200 153.2700
" />
<path d="M74.4800 153.2700
L74.4800 154.7300
" />
<path d="M74.4800 154.7300
L71.5200 154.7300
" />
<path d="M119.2700 116.9950
L120.7300 116.9950
" />
<path d="M119.2700 119.9550
L119.2700 116.9950
" />
<path d="M120.7300 116.9950
L120.7300 119.9550
" />
<path d="M120.7300 119.9550
L119.2700 119.9550
" />
<path d="M71.5200 150.7700
L74.4800 150.7700
" />
<path d="M71.5200 152.2300
L71.5200 150.7700
" />
<path d="M74.4800 150.7700
L74.4800 152.2300
" />
<path d="M74.4800 152.2300
L71.5200 152.2300
" />
<path d="M139.0200 122.2700
L141.9800 122.2700
" />
<path d="M139.0200 123.7300
L139.0200 122.2700
" />
<path d="M141.9800 122.2700
L141.9800 123.7300
" />
<path d="M141.9800 123.7300
L139.0200 123.7300
" />
<path d="M122.0200 128.4502
L123.4800 128.4502
" />
<path d="M122.0200 131.4102
L122.0200 128.4502
" />
<path d="M123.4800 128.4502
L123.4800 131.4102
" />
<path d="M123.4800 131.4102
L122.0200 131.4102
" />
<path d="M139.0200 132.2700
L141.9800 132.2700
" />
<path d="M139.0200 133.7300
L139.0200 132.2700
" />
<path d="M141.9800 132.2700
L141.9800 133.7300
" />
<path d="M141.9800 133.7300
L139.0200 133.7300
" />
<path d="M71.5200 145.7700
L74.4800 145.7700
" />
<path d="M71.5200 147.2300
L71.5200 145.7700
" />
<path d="M74.4800 145.7700
L74.4800 147.2300
" />
<path d="M74.4800 147.2300
L71.5200 147.2300
" />
<path d="M71.5200 140.7700
L74.4800 140.7700
" />
<path d="M71.5200 142.2300
L71.5200 140.7700
" />
<path d="M74.4800 140.7700
L74.4800 142.2300
" />
<path d="M74.4800 142.2300
L71.5200 142.2300
" />
<path d="M116.5700 117.0200
L118.0300 117.0200
" />
<path d="M116.5700 119.9800
L116.5700 117.0200
" />
<path d="M118.0300 117.0200
L118.0300 119.9800
" />
<path d="M118.0300 119.9800
L116.5700 119.9800
" />
<path d="M71.5200 143.2700
L74.4800 143.2700
" />
<path d="M71.5200 144.7300
L71.5200 143.2700
" />
<path d="M74.4800 143.2700
L74.4800 144.7300
" />
<path d="M74.4800 144.7300
L71.5200 144.7300
" />
<path d="M114.0575 121.8177
L114.2775 121.8177
" />
<path d="M114.0575 126.2177
L114.0575 121.8177
" />
<path d="M114.2775 120.3177
L122.9975 120.3177
" />
<path d="M114.2775 121.8177
L114.2775 120.3177
" />
<path d="M114.2775 126.2177
L114.0575 126.2177
" />
<path d="M114.2775 127.7177
L114.2775 126.2177
" />
<path d="M122.9975 120.3177
L122.9975 121.8177
" />
<path d="M122.9975 121.8177
L123.2175 121.8177
" />
<path d="M122.9975 126.2177
L122.9975 127.7177
" />
<path d="M122.9975 127.7177
L114.2775 127.7177
" />
<path d="M123.2175 121.8177
L123.2175 126.2177
" />
<path d="M123.2175 126.2177
L122.9975 126.2177
" />
<path d="M128.3000 131.9500
L128.3000 134.0500
" />
<path d="M128.3000 134.0500
L129.4500 134.0500
" />
<path d="M129.4500 130.6000
L129.4500 131.9500
" />
<path d="M129.4500 130.6000
L130.6000 129.4500
" />
<path d="M129.4500 131.9500
L128.3000 131.9500
" />
<path d="M129.4500 134.0500
L129.4500 135.4000
" />
<path d="M129.4500 135.4000
L130.6000 136.5500
" />
<path d="M130.6000 129.4500
L136.5500 129.4500
" />
<path d="M130.6000 136.5500
L136.5500 136.5500
" />
<path d="M136.5500 129.4500
L136.5500 131.9500
" />
<path d="M136.5500 131.9500
L137.7000 131.9500
" />
<path d="M136.5500 134.0500
L136.5500 136.5500
" />
<path d="M137.7000 131.9500
L137.7000 134.0500
" />
<path d="M137.7000 134.0500
L136.5500 134.0500
" />
<path d="M71.5200 148.2700
L74.4800 148.2700
" />
<path d="M71.5200 149.7300
L71.5200 148.2700
" />
<path d="M74.4800 148.2700
L74.4800 149.7300
" />
<path d="M74.4800 149.7300
L71.5200 149.7300
" />
<path d="M97.8000 154.9500
L98.9500 154.9500
" />
<path d="M97.8000 157.0500
L97.8000 154.9500
" />
<path d="M98.9500 154.9500
L98.9500 152.4500
" />
<path d="M98.9500 157.0500
L97.8000 157.0500
" />
<path d="M98.9500 159.5500
L98.9500 157.0500
" />
<path d="M104.9000 152.4500
L98.9500 152.4500
" />
<path d="M104.9000 159.5500
L98.9500 159.5500
" />
<path d="M106.0500 153.6000
L104.9000 152.4500
" />
<path d="M106.0500 154.9500
L106.0500 153.6000
" />
<path d="M106.0500 157.0500
L107.2000 157.0500
" />
<path d="M106.0500 158.4000
L104.9000 159.5500
" />
<path d="M106.0500 158.4000
L106.0500 157.0500
" />
<path d="M107.2000 154.9500
L106.0500 154.9500
" />
<path d="M107.2000 157.0500
L107.2000 154.9500
" />
<path d="M97.8000 144.4500
L98.9500 144.4500
" />
<path d="M97.8000 146.5500
L97.8000 144.4500
" />
<path d="M98.9500 144.4500
L98.9500 141.9500
" />
<path d="M98.9500 146.5500
L97.8000 146.5500
" />
<path d="M98.9500 149.0500
L98.9500 146.5500
" />
<path d="M104.9000 141.9500
L98.9500 141.9500
" />
<path d="M104.9000 149.0500
L98.9500 149.0500
" />
<path d="M106.0500 143.1000
L104.9000 141.9500
" />
<path d="M106.0500 144.4500
L106.0500 143.1000
" />
<path d="M106.0500 146.5500
L107.2000 146.5500
" />
<path d="M106.0500 147.9000
L104.9000 149.0500
" />
<path d="M106.0500 147.9000
L106.0500 146.5500
" />
<path d="M107.2000 144.4500
L106.0500 144.4500
" />
<path d="M107.2000 146.5500
L107.2000 144.4500
" />
<path d="M128.3000 121.9500
L128.3000 124.0500
" />
<path d="M128.3000 124.0500
L129.4500 124.0500
" />
<path d="M129.4500 120.6000
L129.4500 121.9500
" />
<path d="M129.4500 120.6000
L130.6000 119.4500
" />
<path d="M129.4500 121.9500
L128.3000 121.9500
" />
<path d="M129.4500 124.0500
L129.4500 125.4000
" />
<path d="M129.4500 125.4000
L130.6000 126.5500
" />
<path d="M130.6000 119.4500
L136.5500 119.4500
" />
<path d="M130.6000 126.5500
L136.5500 126.5500
" />
<path d="M136.5500 119.4500
L136.5500 121.9500
" />
<path d="M136.5500 121.9500
L137.7000 121.9500
" />
<path d="M136.5500 124.0500
L136.5500 126.5500
" />
<path d="M137.7000 121.9500
L137.7000 124.0500
" />
<path d="M137.7000 124.0500
L136.5500 124.0500
" />
<path d="M113.2700 150.5200
L114.7300 150.5200
" />
<path d="M113.2700 153.4800
L113.2700 150.5200
" />
<path d="M114.7300 150.5200
L114.7300 153.4800
" />
<path d="M114.7300 153.4800
L113.2700 153.4800
" />
<path d="M139.0200 126.2700
L141.9800 126.2700
" />
<path d="M139.0200 127.7300
L139.0200 126.2700
" />
<path d="M141.9800 126.2700
L141.9800 127.7300
" />
<path d="M141.9800 127.7300
L139.0200 127.7300
" />
<path d="M139.0200 136.2700
L141.9800 136.2700
" />
<path d="M139.0200 137.7300
L139.0200 136.2700
" />
<path d="M141.9800 136.2700
L141.9800 137.7300
" />
<path d="M141.9800 137.7300
L139.0200 137.7300
" />
</g> 
</svg>
