<?xml version="1.0" standalone="no"?>
 <!DOCTYPE svg PUBLIC "-//W3C//DTD SVG 1.1//EN" 
 "http://www.w3.org/Graphics/SVG/1.1/DTD/svg11.dtd"> 
<svg
  xmlns:svg="http://www.w3.org/2000/svg"
  xmlns="http://www.w3.org/2000/svg"
  xmlns:xlink="http://www.w3.org/1999/xlink"
  version="1.1"
  width="297.0022mm" height="210.0072mm" viewBox="0.0000 0.0000 297.0022 210.0072">
<title>SVG Image created as rcbus-ymf262-F_Courtyard0.svg date 2025/09/11 23:28:19 </title>
  <desc>Image generated by PCBNEW </desc>
<g style="fill:#000000; fill-opacity:1.0000;stroke:#000000; stroke-opacity:1.0000;
stroke-linecap:round; stroke-linejoin:round;"
 transform="translate(0 0) scale(1 1)">
</g>
<g style="fill:none; 
stroke:#000000; stroke-width:0.0500; stroke-opacity:1; 
stroke-linecap:round; stroke-linejoin:round;">
<path d="M109.6000 156.0200
L112.9000 156.0200
" />
<path d="M109.6000 157.4800
L109.6000 156.0200
" />
<path d="M112.9000 156.0200
L112.9000 157.4800
" />
<path d="M112.9000 157.4800
L109.6000 157.4800
" />
<path d="M109.6000 142.2700
L112.9000 142.2700
" />
<path d="M109.6000 143.7300
L109.6000 142.2700
" />
<path d="M112.9000 142.2700
L112.9000 143.7300
" />
<path d="M112.9000 143.7300
L109.6000 143.7300
" />
<path d="M145.8190 131.3450
L145.8190 118.8450
" />
<path d="M160.8190 118.8450
L145.8190 118.8450
" />
<path d="M160.8190 131.3450
L145.8190 131.3450
" />
<path d="M160.8190 131.3450
L160.8190 118.8450
" />
<path d="M60.6800 141.6900
L60.6800 157.9300
" />
<path d="M60.6800 157.9300
L66.7700 157.9300
" />
<path d="M66.7700 141.6900
L60.6800 141.6900
" />
<path d="M66.7700 157.9300
L66.7700 141.6900
" />
<circle cx="65.5320" cy="131.3820" r="3.4500" /> 
<path d="M60.2000 161.2000
L60.2000 164.8000
" />
<path d="M60.2000 164.8000
L160.3000 164.8000
" />
<path d="M160.3000 161.2000
L60.2000 161.2000
" />
<path d="M160.3000 164.8000
L160.3000 161.2000
" />
<path d="M79.9450 147.8500
L80.3250 147.8500
" />
<path d="M79.9450 155.8500
L79.9450 147.8500
" />
<path d="M80.3250 145.9200
L92.8650 145.9200
" />
<path d="M80.3250 147.8500
L80.3250 145.9200
" />
<path d="M80.3250 155.8500
L79.9450 155.8500
" />
<path d="M80.3250 157.7800
L80.3250 155.8500
" />
<path d="M92.8650 145.9200
L92.8650 147.8500
" />
<path d="M92.8650 147.8500
L93.2450 147.8500
" />
<path d="M92.8650 155.8500
L92.8650 157.7800
" />
<path d="M92.8650 157.7800
L80.3250 157.7800
" />
<path d="M93.2450 147.8500
L93.2450 155.8500
" />
<path d="M93.2450 155.8500
L92.8650 155.8500
" />
<path d="M120.7700 129.7125
L122.2300 129.7125
" />
<path d="M120.7700 133.0125
L120.7700 129.7125
" />
<path d="M122.2300 129.7125
L122.2300 133.0125
" />
<path d="M122.2300 133.0125
L120.7700 133.0125
" />
<path d="M115.7700 129.7125
L117.2300 129.7125
" />
<path d="M115.7700 133.0125
L115.7700 129.7125
" />
<path d="M117.2300 129.7125
L117.2300 133.0125
" />
<path d="M117.2300 133.0125
L115.7700 133.0125
" />
<path d="M118.5200 129.7125
L119.9800 129.7125
" />
<path d="M118.5200 133.0125
L118.5200 129.7125
" />
<path d="M119.9800 129.7125
L119.9800 133.0125
" />
<path d="M119.9800 133.0125
L118.5200 133.0125
" />
<path d="M113.5500 148.0000
L113.9900 148.0000
" />
<path d="M113.5500 156.0000
L113.5500 148.0000
" />
<path d="M113.9900 146.1000
L129.0100 146.1000
" />
<path d="M113.9900 148.0000
L113.9900 146.1000
" />
<path d="M113.9900 156.0000
L113.5500 156.0000
" />
<path d="M113.9900 157.9000
L113.9900 156.0000
" />
<path d="M129.0100 146.1000
L129.0100 148.0000
" />
<path d="M129.0100 148.0000
L129.4500 148.0000
" />
<path d="M129.0100 156.0000
L129.0100 157.9000
" />
<path d="M129.0100 157.9000
L113.9900 157.9000
" />
<path d="M129.4500 148.0000
L129.4500 156.0000
" />
<path d="M129.4500 156.0000
L129.0100 156.0000
" />
<path d="M78.3500 144.2700
L81.6500 144.2700
" />
<path d="M78.3500 145.7300
L78.3500 144.2700
" />
<path d="M81.6500 144.2700
L81.6500 145.7300
" />
<path d="M81.6500 145.7300
L78.3500 145.7300
" />
<path style="fill:none; 
stroke:#000000; stroke-width:0.0500; stroke-opacity:1; 
stroke-linecap:round; stroke-linejoin:round;fill:none"
d="M 99.0400,143.5000
107.0400,143.5000
107.0400,150.0000
99.0400,150.0000
Z" /> 
<path d="M92.2700 135.4750
L93.7300 135.4750
" />
<path d="M92.2700 138.7750
L92.2700 135.4750
" />
<path d="M93.7300 135.4750
L93.7300 138.7750
" />
<path d="M93.7300 138.7750
L92.2700 138.7750
" />
<path d="M113.6000 137.4700
L114.0000 137.4700
" />
<path d="M113.6000 142.5300
L113.6000 137.4700
" />
<path d="M114.0000 135.7000
L124.0000 135.7000
" />
<path d="M114.0000 137.4700
L114.0000 135.7000
" />
<path d="M114.0000 142.5300
L113.6000 142.5300
" />
<path d="M114.0000 144.3000
L114.0000 142.5300
" />
<path d="M124.0000 135.7000
L124.0000 137.4700
" />
<path d="M124.0000 137.4700
L124.4000 137.4700
" />
<path d="M124.0000 142.5300
L124.0000 144.3000
" />
<path d="M124.0000 144.3000
L114.0000 144.3000
" />
<path d="M124.4000 137.4700
L124.4000 142.5300
" />
<path d="M124.4000 142.5300
L124.0000 142.5300
" />
<path d="M81.2700 135.4625
L82.7300 135.4625
" />
<path d="M81.2700 138.7625
L81.2700 135.4625
" />
<path d="M82.7300 135.4625
L82.7300 138.7625
" />
<path d="M82.7300 138.7625
L81.2700 138.7625
" />
<path d="M72.5125 155.2700
L75.8125 155.2700
" />
<path d="M72.5125 156.7300
L72.5125 155.2700
" />
<path d="M75.8125 155.2700
L75.8125 156.7300
" />
<path d="M75.8125 156.7300
L72.5125 156.7300
" />
<path d="M124.2700 116.8500
L125.7300 116.8500
" />
<path d="M124.2700 120.1500
L124.2700 116.8500
" />
<path d="M125.7300 116.8500
L125.7300 120.1500
" />
<path d="M125.7300 120.1500
L124.2700 120.1500
" />
<path d="M136.2700 119.6000
L137.7300 119.6000
" />
<path d="M136.2700 122.9000
L136.2700 119.6000
" />
<path d="M137.7300 119.6000
L137.7300 122.9000
" />
<path d="M137.7300 122.9000
L136.2700 122.9000
" />
<path d="M119.7700 116.8500
L121.2300 116.8500
" />
<path d="M119.7700 120.1500
L119.7700 116.8500
" />
<path d="M121.2300 116.8500
L121.2300 120.1500
" />
<path d="M121.2300 120.1500
L119.7700 120.1500
" />
<path d="M72.5125 152.7700
L75.8125 152.7700
" />
<path d="M72.5125 154.2300
L72.5125 152.7700
" />
<path d="M75.8125 152.7700
L75.8125 154.2300
" />
<path d="M75.8125 154.2300
L72.5125 154.2300
" />
<path d="M113.1875 116.7700
L116.4875 116.7700
" />
<path d="M113.1875 118.2300
L113.1875 116.7700
" />
<path d="M116.4875 116.7700
L116.4875 118.2300
" />
<path d="M116.4875 118.2300
L113.1875 118.2300
" />
<path d="M141.5200 119.3500
L142.9800 119.3500
" />
<path d="M141.5200 122.6500
L141.5200 119.3500
" />
<path d="M142.9800 119.3500
L142.9800 122.6500
" />
<path d="M142.9800 122.6500
L141.5200 122.6500
" />
<path d="M122.5200 129.7625
L123.9800 129.7625
" />
<path d="M122.5200 133.0625
L122.5200 129.7625
" />
<path d="M123.9800 129.7625
L123.9800 133.0625
" />
<path d="M123.9800 133.0625
L122.5200 133.0625
" />
<path d="M122.0200 116.8500
L123.4800 116.8500
" />
<path d="M122.0200 120.1500
L122.0200 116.8500
" />
<path d="M123.4800 116.8500
L123.4800 120.1500
" />
<path d="M123.4800 120.1500
L122.0200 120.1500
" />
<path d="M72.5125 147.7700
L75.8125 147.7700
" />
<path d="M72.5125 149.2300
L72.5125 147.7700
" />
<path d="M75.8125 147.7700
L75.8125 149.2300
" />
<path d="M75.8125 149.2300
L72.5125 149.2300
" />
<path d="M72.4875 142.7400
L75.7875 142.7400
" />
<path d="M72.4875 144.2000
L72.4875 142.7400
" />
<path d="M75.7875 142.7400
L75.7875 144.2000
" />
<path d="M75.7875 144.2000
L72.4875 144.2000
" />
<path d="M117.0200 116.8500
L118.4800 116.8500
" />
<path d="M117.0200 120.1500
L117.0200 116.8500
" />
<path d="M118.4800 116.8500
L118.4800 120.1500
" />
<path d="M118.4800 120.1500
L117.0200 120.1500
" />
<path d="M72.5125 145.2700
L75.8125 145.2700
" />
<path d="M72.5125 146.7300
L72.5125 145.2700
" />
<path d="M75.8125 145.2700
L75.8125 146.7300
" />
<path d="M75.8125 146.7300
L72.5125 146.7300
" />
<path d="M114.5575 123.3000
L114.7775 123.3000
" />
<path d="M114.5575 127.7000
L114.5575 123.3000
" />
<path d="M114.7775 121.8000
L123.4975 121.8000
" />
<path d="M114.7775 123.3000
L114.7775 121.8000
" />
<path d="M114.7775 127.7000
L114.5575 127.7000
" />
<path d="M114.7775 129.2000
L114.7775 127.7000
" />
<path d="M123.4975 121.8000
L123.4975 123.3000
" />
<path d="M123.4975 123.3000
L123.7175 123.3000
" />
<path d="M123.4975 127.7000
L123.4975 129.2000
" />
<path d="M123.4975 129.2000
L114.7775 129.2000
" />
<path d="M123.7175 123.3000
L123.7175 127.7000
" />
<path d="M123.7175 127.7000
L123.4975 127.7000
" />
<path d="M131.2700 124.6500
L132.7300 124.6500
" />
<path d="M131.2700 127.9500
L131.2700 124.6500
" />
<path d="M132.7300 124.6500
L132.7300 127.9500
" />
<path d="M132.7300 127.9500
L131.2700 127.9500
" />
<path d="M88.8500 134.9000
L91.1500 134.9000
" />
<path d="M88.8500 139.5000
L88.8500 134.9000
" />
<path d="M91.1500 134.9000
L91.1500 139.5000
" />
<path d="M91.1500 139.5000
L88.8500 139.5000
" />
<path d="M72.5125 150.2700
L75.8125 150.2700
" />
<path d="M72.5125 151.7300
L72.5125 150.2700
" />
<path d="M75.8125 150.2700
L75.8125 151.7300
" />
<path d="M75.8125 151.7300
L72.5125 151.7300
" />
<path d="M95.0500 134.9000
L97.3500 134.9000
" />
<path d="M95.0500 139.5000
L95.0500 134.9000
" />
<path d="M97.3500 134.9000
L97.3500 139.5000
" />
<path d="M97.3500 139.5000
L95.0500 139.5000
" />
<path d="M141.5450 124.6500
L143.0050 124.6500
" />
<path d="M141.5450 127.9500
L141.5450 124.6500
" />
<path d="M143.0050 124.6500
L143.0050 127.9500
" />
<path d="M143.0050 127.9500
L141.5450 127.9500
" />
<path d="M131.2700 119.3500
L132.7300 119.3500
" />
<path d="M131.2700 122.6500
L131.2700 119.3500
" />
<path d="M132.7300 119.3500
L132.7300 122.6500
" />
<path d="M132.7300 122.6500
L131.2700 122.6500
" />
<path d="M136.3200 124.6500
L137.7800 124.6500
" />
<path d="M136.3200 127.9500
L136.3200 124.6500
" />
<path d="M137.7800 124.6500
L137.7800 127.9500
" />
<path d="M137.7800 127.9500
L136.3200 127.9500
" />
<path d="M99.6000 141.5200
L102.9000 141.5200
" />
<path d="M99.6000 142.9800
L99.6000 141.5200
" />
<path d="M102.9000 141.5200
L102.9000 142.9800
" />
<path d="M102.9000 142.9800
L99.6000 142.9800
" />
<path d="M86.2700 135.4625
L87.7300 135.4625
" />
<path d="M86.2700 138.7625
L86.2700 135.4625
" />
<path d="M87.7300 135.4625
L87.7300 138.7625
" />
<path d="M87.7300 138.7625
L86.2700 138.7625
" />
<path d="M83.7700 135.4750
L85.2300 135.4750
" />
<path d="M83.7700 138.7750
L83.7700 135.4750
" />
<path d="M85.2300 135.4750
L85.2300 138.7750
" />
<path d="M85.2300 138.7750
L83.7700 138.7750
" />
<path d="M113.1000 118.7700
L116.4000 118.7700
" />
<path d="M113.1000 120.2300
L113.1000 118.7700
" />
<path d="M116.4000 118.7700
L116.4000 120.2300
" />
<path d="M116.4000 120.2300
L113.1000 120.2300
" />
</g> 
</svg>
