  0
SECTION
  2
HEADER
  9
$ANGBASE
  50
0.0
  9
$ANGDIR
  70
1
  9
$MEASUREMENT
  70
0
  0
ENDSEC
  0
SECTION
  2
TABLES
  0
TABLE
  2
LTYPE
  70
4
  0
LTYPE
  5
40F
  2
CONTINUOUS
  70
0
  3
Solid line
  72
65
  73
0
  40
0.0
  0
LTYPE
  5
410
  2
DASHDOT
 70
0
  3
Dash Dot ____ _ ____ _
 72
65
 73
4
 40
2.0
 49
1.25
 49
-0.25
 49
0.25
 49
-0.25
  0
LTYPE
  5
411
  2
DASHED
 70
0
  3
Dashed __ __ __ __ __
 72
65
 73
2
 40
0.75
 49
0.5
 49
-0.25
  0
LTYPE
  5
43B
  2
DOTTED
 70
0
  3
Dotted .  .  .  .
 72
65
 73
2
 40
0.2
 49
0.0
 49
-0.2
  0
ENDTAB
  0
TABLE
  2
STYLE
  70
4
  0
STYLE
  2
KICAD
  70
0
  40
0
  41
1
  42
1
  50
0
  71
0
  3
isocp.shx
  0
STYLE
  2
KICADB
  70
0
  40
0
  41
1
  42
1
  50
0
  71
0
  3
isocp.shx
  0
STYLE
  2
KICADI
  70
0
  40
0
  41
1
  42
1
  50
15
  71
0
  3
isocp.shx
  0
STYLE
  2
KICADBI
  70
0
  40
0
  41
1
  42
1
  50
15
  71
0
  3
isocp.shx
  0
ENDTAB
  0
TABLE
  2
LAYER
  70
1
  0
LAYER
  2
BLACK
  70
0
  62
7
  6
CONTINUOUS
  0
ENDTAB
  0
ENDSEC
  0
SECTION
  2
ENTITIES
0
LINE
8
BLACK
6
CONTINUOUS
10
4.7346399999999997
20
-6.3138653937007874
11
4.7487609055118112
21
-6.2784874409448816
0
LINE
8
BLACK
6
CONTINUOUS
10
4.7487609055118112
20
-6.2784874409448816
11
4.7566290551181103
21
-6.2784874409448816
0
LINE
8
BLACK
6
CONTINUOUS
10
4.7566290551181103
20
-6.2784874409448816
11
4.7383541338582678
21
-6.3229631889763782
0
LINE
8
BLACK
6
CONTINUOUS
10
4.7383541338582678
20
-6.3229631889763782
11
4.7396847244094484
21
-6.3263527952755902
0
LINE
8
BLACK
6
CONTINUOUS
10
4.7396847244094484
20
-6.3263527952755902
11
4.7418805511811026
21
-6.3311239763779525
0
LINE
8
BLACK
6
CONTINUOUS
10
4.7418805511811026
20
-6.3311239763779525
11
4.7434349212598423
21
-6.3331319685039364
0
LINE
8
BLACK
6
CONTINUOUS
10
4.7434349212598423
20
-6.3331319685039364
11
4.7453726377952758
21
-6.3341774803149606
0
LINE
8
BLACK
6
CONTINUOUS
10
4.7453726377952758
20
-6.3341774803149606
11
4.7481947637795274
21
-6.3345671259842522
0
LINE
8
BLACK
6
CONTINUOUS
10
4.7481947637795274
20
-6.3345671259842522
11
4.7525543307086613
21
-6.3345671259842522
0
LINE
8
BLACK
6
CONTINUOUS
10
4.7525543307086613
20
-6.3345671259842522
11
4.7525543307086613
21
-6.3407982283464568
0
LINE
8
BLACK
6
CONTINUOUS
10
4.7525543307086613
20
-6.3407982283464568
11
4.7466225590551181
21
-6.3407982283464568
0
LINE
8
BLACK
6
CONTINUOUS
10
4.7466225590551181
20
-6.3407982283464568
11
4.7433723622047239
21
-6.3404972834645665
0
LINE
8
BLACK
6
CONTINUOUS
10
4.7433723622047239
20
-6.3404972834645665
11
4.7407537007874012
21
-6.339659881889764
0
LINE
8
BLACK
6
CONTINUOUS
10
4.7407537007874012
20
-6.339659881889764
11
4.738635393700787
21
-6.3383353543307086
0
LINE
8
BLACK
6
CONTINUOUS
10
4.738635393700787
20
-6.3383353543307086
11
4.7369094488188974
21
-6.3364611811023623
0
LINE
8
BLACK
6
CONTINUOUS
10
4.7369094488188974
20
-6.3364611811023623
11
4.7348798818897633
21
-6.3331422440944882
0
LINE
8
BLACK
6
CONTINUOUS
10
4.7348798818897633
20
-6.3331422440944882
11
4.7325016929133854
21
-6.3277987795275585
0
LINE
8
BLACK
6
CONTINUOUS
10
4.7325016929133854
20
-6.3277987795275585
11
4.7126545275590548
21
-6.2784874409448816
0
LINE
8
BLACK
6
CONTINUOUS
10
4.7126545275590548
20
-6.2784874409448816
11
4.7205227165354327
21
-6.2784874409448816
0
LINE
8
BLACK
6
CONTINUOUS
10
4.7205227165354327
20
-6.2784874409448816
11
4.7346399999999997
21
-6.3138653937007874
0
LINE
8
BLACK
6
CONTINUOUS
10
5.9317650393700783
20
-6.2777440551181103
11
5.9352710236220467
21
-6.2789301181102362
0
LINE
8
BLACK
6
CONTINUOUS
10
5.9352710236220467
20
-6.2789301181102362
11
5.9383740551181097
21
-6.2808851181102359
0
LINE
8
BLACK
6
CONTINUOUS
10
5.9383740551181097
20
-6.2808851181102359
11
5.9411431889763779
21
-6.2836836220472438
0
LINE
8
BLACK
6
CONTINUOUS
10
5.9411431889763779
20
-6.2836836220472438
11
5.943285078740157
21
-6.2869635433070865
0
LINE
8
BLACK
6
CONTINUOUS
10
5.943285078740157
20
-6.2869635433070865
11
5.9448680708661419
21
-6.2907962992125981
0
LINE
8
BLACK
6
CONTINUOUS
10
5.9448680708661419
20
-6.2907962992125981
11
5.9458692913385827
21
-6.2952831102362206
0
LINE
8
BLACK
6
CONTINUOUS
10
5.9458692913385827
20
-6.2952831102362206
11
5.9462239370078738
21
-6.300548622047244
0
LINE
8
BLACK
6
CONTINUOUS
10
5.9462239370078738
20
-6.300548622047244
11
5.9458698425196852
21
-6.3057903937007875
0
LINE
8
BLACK
6
CONTINUOUS
10
5.9458698425196852
20
-6.3057903937007875
11
5.9448695275590548
21
-6.3102632283464564
0
LINE
8
BLACK
6
CONTINUOUS
10
5.9448695275590548
20
-6.3102632283464564
11
5.9432866535433071
21
-6.3140899606299214
0
LINE
8
BLACK
6
CONTINUOUS
10
5.9432866535433071
20
-6.3140899606299214
11
5.9411431889763779
21
-6.317370393700787
0
LINE
8
BLACK
6
CONTINUOUS
10
5.9411431889763779
20
-6.317370393700787
11
5.9383740551181097
21
-6.320168897637795
0
LINE
8
BLACK
6
CONTINUOUS
10
5.9383740551181097
20
-6.320168897637795
11
5.9352710236220467
21
-6.3221238976377947
0
LINE
8
BLACK
6
CONTINUOUS
10
5.9352710236220467
20
-6.3221238976377947
11
5.9317650393700783
21
-6.3233099606299215
0
LINE
8
BLACK
6
CONTINUOUS
10
5.9317650393700783
20
-6.3233099606299215
11
5.9277470866141728
21
-6.3237204724409448
0
LINE
8
BLACK
6
CONTINUOUS
10
5.9277470866141728
20
-6.3237204724409448
11
5.9244600787401573
21
-6.3234876377952753
0
LINE
8
BLACK
6
CONTINUOUS
10
5.9244600787401573
20
-6.3234876377952753
11
5.9216210629921262
21
-6.3228257086614175
0
LINE
8
BLACK
6
CONTINUOUS
10
5.9216210629921262
20
-6.3228257086614175
11
5.919157716535433
21
-6.3217696456692911
0
LINE
8
BLACK
6
CONTINUOUS
10
5.919157716535433
20
-6.3217696456692911
11
5.9169398425196853
21
-6.3202747637795271
0
LINE
8
BLACK
6
CONTINUOUS
10
5.9169398425196853
20
-6.3202747637795271
11
5.91498125984252
21
-6.3183283464566928
0
LINE
8
BLACK
6
CONTINUOUS
10
5.91498125984252
20
-6.3183283464566928
11
5.9132655905511813
21
-6.3158738976377951
0
LINE
8
BLACK
6
CONTINUOUS
10
5.9132655905511813
20
-6.3158738976377951
11
5.9132655905511813
21
-6.319432992125984
0
LINE
8
BLACK
6
CONTINUOUS
10
5.9132655905511813
20
-6.319432992125984
11
5.9135321653543302
21
-6.3232735826771655
0
LINE
8
BLACK
6
CONTINUOUS
10
5.9135321653543302
20
-6.3232735826771655
11
5.9142659842519683
21
-6.3263601181102365
0
LINE
8
BLACK
6
CONTINUOUS
10
5.9142659842519683
20
-6.3263601181102365
11
5.9153967716535432
21
-6.3288326771653542
0
LINE
8
BLACK
6
CONTINUOUS
10
5.9153967716535432
20
-6.3288326771653542
11
5.9168967716535432
21
-6.3308025196850393
0
LINE
8
BLACK
6
CONTINUOUS
10
5.9168967716535432
20
-6.3308025196850393
11
5.9188167322834646
21
-6.3323709055118105
0
LINE
8
BLACK
6
CONTINUOUS
10
5.9188167322834646
20
-6.3323709055118105
11
5.9212051968503934
21
-6.3335410236220469
0
LINE
8
BLACK
6
CONTINUOUS
10
5.9212051968503934
20
-6.3335410236220469
11
5.9241642913385828
21
-6.3342945669291337
0
LINE
8
BLACK
6
CONTINUOUS
10
5.9241642913385828
20
-6.3342945669291337
11
5.9278264173228346
21
-6.3345671259842522
0
LINE
8
BLACK
6
CONTINUOUS
10
5.9278264173228346
20
-6.3345671259842522
11
5.931104291338583
21
-6.3343551574803145
0
LINE
8
BLACK
6
CONTINUOUS
10
5.931104291338583
20
-6.3343551574803145
11
5.9343207086614171
21
-6.3337197637795271
0
LINE
8
BLACK
6
CONTINUOUS
10
5.9343207086614171
20
-6.3337197637795271
11
5.9374801181102361
21
-6.3326637007874016
0
LINE
8
BLACK
6
CONTINUOUS
10
5.9374801181102361
20
-6.3326637007874016
11
5.9407753543307082
21
-6.3311054330708663
0
LINE
8
BLACK
6
CONTINUOUS
10
5.9407753543307082
20
-6.3311054330708663
11
5.9407753543307082
21
-6.3382596456692912
0
LINE
8
BLACK
6
CONTINUOUS
10
5.9407753543307082
20
-6.3382596456692912
11
5.9374592519685034
21
-6.3393833858267712
0
LINE
8
BLACK
6
CONTINUOUS
10
5.9374592519685034
20
-6.3393833858267712
11
5.9340394488188979
21
-6.340174409448819
0
LINE
8
BLACK
6
CONTINUOUS
10
5.9340394488188979
20
-6.340174409448819
11
5.930508070866142
21
-6.3406381496062991
0
LINE
8
BLACK
6
CONTINUOUS
10
5.930508070866142
20
-6.3406381496062991
11
5.9266580708661412
21
-6.3407982283464568
0
LINE
8
BLACK
6
CONTINUOUS
10
5.9266580708661412
20
-6.3407982283464568
11
5.9213629133858268
21
-6.3403919685039369
0
LINE
8
BLACK
6
CONTINUOUS
10
5.9213629133858268
20
-6.3403919685039369
11
5.917107952755905
21
-6.3392704330708662
0
LINE
8
BLACK
6
CONTINUOUS
10
5.917107952755905
20
-6.3392704330708662
11
5.9136927559055117
21
-6.3375292519685038
0
LINE
8
BLACK
6
CONTINUOUS
10
5.9136927559055117
20
-6.3375292519685038
11
5.910965
21
-6.3351909842519687
0
LINE
8
BLACK
6
CONTINUOUS
10
5.910965
20
-6.3351909842519687
11
5.9088649999999996
21
-6.3322770866141731
0
LINE
8
BLACK
6
CONTINUOUS
10
5.9088649999999996
20
-6.3322770866141731
11
5.9072668503937003
21
-6.3285811417322835
0
LINE
8
BLACK
6
CONTINUOUS
10
5.9072668503937003
20
-6.3285811417322835
11
5.9062222047244095
21
-6.3239264960629917
0
LINE
8
BLACK
6
CONTINUOUS
10
5.9062222047244095
20
-6.3239264960629917
11
5.9058409448818896
21
-6.3180951574803146
0
LINE
8
BLACK
6
CONTINUOUS
10
5.9058409448818896
20
-6.3180951574803146
11
5.9058409448818896
21
-6.300548622047244
0
LINE
8
BLACK
6
CONTINUOUS
10
5.9058409448818896
20
-6.300548622047244
11
5.9058409448818896
21
-6.2784874409448816
0
LINE
8
BLACK
6
CONTINUOUS
10
5.9058409448818896
20
-6.2784874409448816
11
5.9132655905511813
21
-6.2784874409448816
0
LINE
8
BLACK
6
CONTINUOUS
10
5.9132655905511813
20
-6.2784874409448816
11
5.9132655905511813
21
-6.2851800787401571
0
LINE
8
BLACK
6
CONTINUOUS
10
5.9132655905511813
20
-6.2851800787401571
11
5.91498125984252
21
-6.2827256299212593
0
LINE
8
BLACK
6
CONTINUOUS
10
5.91498125984252
20
-6.2827256299212593
11
5.9169398425196853
21
-6.280779212598425
0
LINE
8
BLACK
6
CONTINUOUS
10
5.9169398425196853
20
-6.280779212598425
11
5.919157716535433
21
-6.2792843700787397
0
LINE
8
BLACK
6
CONTINUOUS
10
5.919157716535433
20
-6.2792843700787397
11
5.9216210629921262
21
-6.2782282677165355
0
LINE
8
BLACK
6
CONTINUOUS
10
5.9216210629921262
20
-6.2782282677165355
11
5.9244600787401573
21
-6.2775663779527555
0
LINE
8
BLACK
6
CONTINUOUS
10
5.9244600787401573
20
-6.2775663779527555
11
5.9277470866141728
21
-6.277333543307086
0
LINE
8
BLACK
6
CONTINUOUS
10
5.9277470866141728
20
-6.277333543307086
11
5.9317650393700783
21
-6.2777440551181103
0
LINE
8
BLACK
6
CONTINUOUS
10
5.9230169685039371
20
-6.283859330708661
11
5.920543976377953
21
-6.2847005118110237
0
LINE
8
BLACK
6
CONTINUOUS
10
5.920543976377953
20
-6.2847005118110237
11
5.9184222440944882
21
-6.2860705118110234
0
LINE
8
BLACK
6
CONTINUOUS
10
5.9184222440944882
20
-6.2860705118110234
11
5.916593897637795
21
-6.2880143700787396
0
LINE
8
BLACK
6
CONTINUOUS
10
5.916593897637795
20
-6.2880143700787396
11
5.9152219685039364
21
-6.2902873622047242
0
LINE
8
BLACK
6
CONTINUOUS
10
5.9152219685039364
20
-6.2902873622047242
11
5.9141817322834642
21
-6.2930642519685041
0
LINE
8
BLACK
6
CONTINUOUS
10
5.9141817322834642
20
-6.2930642519685041
11
5.9135084251968504
21
-6.2964450393700782
0
LINE
8
BLACK
6
CONTINUOUS
10
5.9135084251968504
20
-6.2964450393700782
11
5.9132655905511813
21
-6.300548622047244
0
LINE
8
BLACK
6
CONTINUOUS
10
5.9132655905511813
20
-6.300548622047244
11
5.9135078740157478
21
-6.3046279133858265
0
LINE
8
BLACK
6
CONTINUOUS
10
5.9135078740157478
20
-6.3046279133858265
11
5.91418031496063
21
-6.3079955118110238
0
LINE
8
BLACK
6
CONTINUOUS
10
5.91418031496063
20
-6.3079955118110238
11
5.915220433070866
21
-6.3107679527559055
0
LINE
8
BLACK
6
CONTINUOUS
10
5.915220433070866
20
-6.3107679527559055
11
5.916593897637795
21
-6.3130432283464568
0
LINE
8
BLACK
6
CONTINUOUS
10
5.916593897637795
20
-6.3130432283464568
11
5.9184220078740157
21
-6.3149853543307088
0
LINE
8
BLACK
6
CONTINUOUS
10
5.9184220078740157
20
-6.3149853543307088
11
5.920543661417323
21
-6.3163542519685034
0
LINE
8
BLACK
6
CONTINUOUS
10
5.920543661417323
20
-6.3163542519685034
11
5.9230167322834646
21
-6.3171948425196849
0
LINE
8
BLACK
6
CONTINUOUS
10
5.9230167322834646
20
-6.3171948425196849
11
5.9259332677165357
21
-6.3174893700787402
0
LINE
8
BLACK
6
CONTINUOUS
10
5.9259332677165357
20
-6.3174893700787402
11
5.9288266141732286
21
-6.3171956692913387
0
LINE
8
BLACK
6
CONTINUOUS
10
5.9288266141732286
20
-6.3171956692913387
11
5.9312857480314962
21
-6.3163564173228348
0
LINE
8
BLACK
6
CONTINUOUS
10
5.9312857480314962
20
-6.3163564173228348
11
5.9334011417322836
21
-6.3149877165354331
0
LINE
8
BLACK
6
CONTINUOUS
10
5.9334011417322836
20
-6.3149877165354331
11
5.9352294094488185
21
-6.3130432283464568
0
LINE
8
BLACK
6
CONTINUOUS
10
5.9352294094488185
20
-6.3130432283464568
11
5.9366028740157475
21
-6.3107679527559055
0
LINE
8
BLACK
6
CONTINUOUS
10
5.9366028740157475
20
-6.3107679527559055
11
5.9376429921259843
21
-6.3079955118110238
0
LINE
8
BLACK
6
CONTINUOUS
10
5.9376429921259843
20
-6.3079955118110238
11
5.9383154330708656
21
-6.3046279133858265
0
LINE
8
BLACK
6
CONTINUOUS
10
5.9383154330708656
20
-6.3046279133858265
11
5.9385577165354331
21
-6.300548622047244
0
LINE
8
BLACK
6
CONTINUOUS
10
5.9385577165354331
20
-6.300548622047244
11
5.938314881889764
21
-6.2964450393700782
0
LINE
8
BLACK
6
CONTINUOUS
10
5.938314881889764
20
-6.2964450393700782
11
5.9376415748031492
21
-6.2930642519685041
0
LINE
8
BLACK
6
CONTINUOUS
10
5.9376415748031492
20
-6.2930642519685041
11
5.936601338582677
21
-6.2902873622047242
0
LINE
8
BLACK
6
CONTINUOUS
10
5.936601338582677
20
-6.2902873622047242
11
5.9352294094488185
21
-6.2880143700787396
0
LINE
8
BLACK
6
CONTINUOUS
10
5.9352294094488185
20
-6.2880143700787396
11
5.9334009055118111
21
-6.2860681102362204
0
LINE
8
BLACK
6
CONTINUOUS
10
5.9334009055118111
20
-6.2860681102362204
11
5.9312854330708662
21
-6.2846983464566923
0
LINE
8
BLACK
6
CONTINUOUS
10
5.9312854330708662
20
-6.2846983464566923
11
5.9288263779527561
21
-6.2838585039370081
0
LINE
8
BLACK
6
CONTINUOUS
10
5.9288263779527561
20
-6.2838585039370081
11
5.9259332677165357
21
-6.2835646062992128
0
LINE
8
BLACK
6
CONTINUOUS
10
5.9259332677165357
20
-6.2835646062992128
11
5.9230169685039371
21
-6.283859330708661
0
LINE
8
BLACK
6
CONTINUOUS
10
5.0406407086614173
20
-6.3313362204724406
11
5.0337822047244094
21
-6.3313362204724406
0
LINE
8
BLACK
6
CONTINUOUS
10
5.0337822047244094
20
-6.3313362204724406
11
5.0128064173228344
21
-6.2634866929133857
0
LINE
8
BLACK
6
CONTINUOUS
10
5.0128064173228344
20
-6.2634866929133857
11
5.019661299212598
21
-6.2634866929133857
0
LINE
8
BLACK
6
CONTINUOUS
10
5.019661299212598
20
-6.2634866929133857
11
5.0406407086614173
21
-6.3313362204724406
0
LINE
8
BLACK
6
CONTINUOUS
10
5.4831048818897639
20
-6.3313362204724406
11
5.4762463779527559
21
-6.3313362204724406
0
LINE
8
BLACK
6
CONTINUOUS
10
5.4762463779527559
20
-6.3313362204724406
11
5.4552705905511809
21
-6.2634866929133857
0
LINE
8
BLACK
6
CONTINUOUS
10
5.4552705905511809
20
-6.2634866929133857
11
5.4621255118110232
21
-6.2634866929133857
0
LINE
8
BLACK
6
CONTINUOUS
10
5.4621255118110232
20
-6.2634866929133857
11
5.4831048818897639
21
-6.3313362204724406
0
LINE
8
BLACK
6
CONTINUOUS
10
4.5217914173228344
20
-6.2626911023622043
11
4.5257807086614168
21
-6.2637251968503938
0
LINE
8
BLACK
6
CONTINUOUS
10
4.5257807086614168
20
-6.2637251968503938
11
4.529354015748031
21
-6.2654073228346459
0
LINE
8
BLACK
6
CONTINUOUS
10
4.529354015748031
20
-6.2654073228346459
11
4.5325780708661414
21
-6.2677554724409443
0
LINE
8
BLACK
6
CONTINUOUS
10
4.5325780708661414
20
-6.2677554724409443
11
4.5354943307086613
21
-6.2708320078740156
0
LINE
8
BLACK
6
CONTINUOUS
10
4.5354943307086613
20
-6.2708320078740156
11
4.5378311811023622
21
-6.2742827165354331
0
LINE
8
BLACK
6
CONTINUOUS
10
4.5378311811023622
20
-6.2742827165354331
11
4.5396983464566931
21
-6.2782125196850389
0
LINE
8
BLACK
6
CONTINUOUS
10
4.5396983464566931
20
-6.2782125196850389
11
4.5410864173228349
21
-6.2826893700787396
0
LINE
8
BLACK
6
CONTINUOUS
10
4.5410864173228349
20
-6.2826893700787396
11
4.5419621259842522
21
-6.2877955118110238
0
LINE
8
BLACK
6
CONTINUOUS
10
4.5419621259842522
20
-6.2877955118110238
11
4.5422699212598427
21
-6.2936251968503933
0
LINE
8
BLACK
6
CONTINUOUS
10
4.5422699212598427
20
-6.2936251968503933
11
4.5420016535433074
21
-6.2999833858267715
0
LINE
8
BLACK
6
CONTINUOUS
10
4.5420016535433074
20
-6.2999833858267715
11
4.5412525984251966
21
-6.305361811023622
0
LINE
8
BLACK
6
CONTINUOUS
10
4.5412525984251966
20
-6.305361811023622
11
4.5400942519685037
21
-6.3098915748031494
0
LINE
8
BLACK
6
CONTINUOUS
10
4.5400942519685037
20
-6.3098915748031494
11
4.5385805905511809
21
-6.3136907086614169
0
LINE
8
BLACK
6
CONTINUOUS
10
4.5385805905511809
20
-6.3136907086614169
11
4.5367455905511811
21
-6.3168619291338581
0
LINE
8
BLACK
6
CONTINUOUS
10
4.5367455905511811
20
-6.3168619291338581
11
4.5343265354330704
21
-6.319757204724409
0
LINE
8
BLACK
6
CONTINUOUS
10
4.5343265354330704
20
-6.319757204724409
11
4.5315752362204726
21
-6.3219644881889758
0
LINE
8
BLACK
6
CONTINUOUS
10
4.5315752362204726
20
-6.3219644881889758
11
4.5284505905511807
21
-6.3235501968503938
0
LINE
8
BLACK
6
CONTINUOUS
10
4.5284505905511807
20
-6.3235501968503938
11
4.5248805511811021
21
-6.3245314566929132
0
LINE
8
BLACK
6
CONTINUOUS
10
4.5248805511811021
20
-6.3245314566929132
11
4.5207676377952755
21
-6.3248743700787404
0
LINE
8
BLACK
6
CONTINUOUS
10
4.5207676377952755
20
-6.3248743700787404
11
4.5162769291338583
21
-6.3244953149606298
0
LINE
8
BLACK
6
CONTINUOUS
10
4.5162769291338583
20
-6.3244953149606298
11
4.5124181496062992
21
-6.3234147637795273
0
LINE
8
BLACK
6
CONTINUOUS
10
4.5124181496062992
20
-6.3234147637795273
11
4.5090762992125981
21
-6.3216743700787399
0
LINE
8
BLACK
6
CONTINUOUS
10
4.5090762992125981
20
-6.3216743700787399
11
4.5061671653543307
21
-6.319256299212598
0
LINE
8
BLACK
6
CONTINUOUS
10
4.5061671653543307
20
-6.319256299212598
11
4.503813779527559
21
-6.3162909842519683
0
LINE
8
BLACK
6
CONTINUOUS
10
4.503813779527559
20
-6.3162909842519683
11
4.5021116535433068
21
-6.3128778346456693
0
LINE
8
BLACK
6
CONTINUOUS
10
4.5021116535433068
20
-6.3128778346456693
11
4.5010514173228344
21
-6.3089307480314956
0
LINE
8
BLACK
6
CONTINUOUS
10
4.5010514173228344
20
-6.3089307480314956
11
4.5006788976377949
21
-6.3043348818897638
0
LINE
8
BLACK
6
CONTINUOUS
10
4.5006788976377949
20
-6.3043348818897638
11
4.501042992125984
21
-6.2996129921259838
0
LINE
8
BLACK
6
CONTINUOUS
10
4.501042992125984
20
-6.2996129921259838
11
4.5020714566929136
21
-6.2956153543307085
0
LINE
8
BLACK
6
CONTINUOUS
10
4.5020714566929136
20
-6.2956153543307085
11
4.5037064960629918
21
-6.2922153937007872
0
LINE
8
BLACK
6
CONTINUOUS
10
4.5037064960629918
20
-6.2922153937007872
11
4.5059435826771654
21
-6.2893161023622044
0
LINE
8
BLACK
6
CONTINUOUS
10
4.5059435826771654
20
-6.2893161023622044
11
4.5087416535433071
21
-6.28694937007874
0
LINE
8
BLACK
6
CONTINUOUS
10
4.5087416535433071
20
-6.28694937007874
11
4.5119988976377954
21
-6.2852389370078736
0
LINE
8
BLACK
6
CONTINUOUS
10
4.5119988976377954
20
-6.2852389370078736
11
4.5158054330708657
21
-6.2841716535433072
0
LINE
8
BLACK
6
CONTINUOUS
10
4.5158054330708657
20
-6.2841716535433072
11
4.5202844488188978
21
-6.2837953937007871
0
LINE
8
BLACK
6
CONTINUOUS
10
4.5202844488188978
20
-6.2837953937007871
11
4.523115118110236
21
-6.2840093307086615
0
LINE
8
BLACK
6
CONTINUOUS
10
4.523115118110236
20
-6.2840093307086615
11
4.5257383464566932
21
-6.2846372440944878
0
LINE
8
BLACK
6
CONTINUOUS
10
4.5257383464566932
20
-6.2846372440944878
11
4.5281922834645671
21
-6.285674094488189
0
LINE
8
BLACK
6
CONTINUOUS
10
4.5281922834645671
20
-6.285674094488189
11
4.5304385433070866
21
-6.2870993307086609
0
LINE
8
BLACK
6
CONTINUOUS
10
4.5304385433070866
20
-6.2870993307086609
11
4.5324211417322831
21
-6.2888856692913384
0
LINE
8
BLACK
6
CONTINUOUS
10
4.5324211417322831
20
-6.2888856692913384
11
4.5341601181102362
21
-6.2910649999999997
0
LINE
8
BLACK
6
CONTINUOUS
10
4.5341601181102362
20
-6.2910649999999997
11
4.5335521653543305
21
-6.2854601574803146
0
LINE
8
BLACK
6
CONTINUOUS
10
4.5335521653543305
20
-6.2854601574803146
11
4.5324883858267713
21
-6.2809848425196853
0
LINE
8
BLACK
6
CONTINUOUS
10
4.5324883858267713
20
-6.2809848425196853
11
4.5310534251968502
21
-6.2774461417322831
0
LINE
8
BLACK
6
CONTINUOUS
10
4.5310534251968502
20
-6.2774461417322831
11
4.5292993307086613
21
-6.2746795669291338
0
LINE
8
BLACK
6
CONTINUOUS
10
4.5292993307086613
20
-6.2746795669291338
11
4.526980157480315
21
-6.2723435826771654
0
LINE
8
BLACK
6
CONTINUOUS
10
4.526980157480315
20
-6.2723435826771654
11
4.5242194488188971
21
-6.2706695669291337
0
LINE
8
BLACK
6
CONTINUOUS
10
4.5242194488188971
20
-6.2706695669291337
11
4.5209282283464569
21
-6.2696259448818896
0
LINE
8
BLACK
6
CONTINUOUS
10
4.5209282283464569
20
-6.2696259448818896
11
4.5169741732283466
21
-6.2692562204724407
0
LINE
8
BLACK
6
CONTINUOUS
10
4.5169741732283466
20
-6.2692562204724407
11
4.5139105511811026
21
-6.2694318897637791
0
LINE
8
BLACK
6
CONTINUOUS
10
4.5139105511811026
20
-6.2694318897637791
11
4.5107827952755901
21
-6.2699665748031492
0
LINE
8
BLACK
6
CONTINUOUS
10
4.5107827952755901
20
-6.2699665748031492
11
4.5076879921259838
21
-6.2708311417322831
0
LINE
8
BLACK
6
CONTINUOUS
10
4.5076879921259838
20
-6.2708311417322831
11
4.5045913779527558
21
-6.2720255905511806
0
LINE
8
BLACK
6
CONTINUOUS
10
4.5045913779527558
20
-6.2720255905511806
11
4.5045913779527558
21
-6.2646405905511813
0
LINE
8
BLACK
6
CONTINUOUS
10
4.5045913779527558
20
-6.2646405905511813
11
4.5079650787401571
21
-6.2636177165354328
0
LINE
8
BLACK
6
CONTINUOUS
10
4.5079650787401571
20
-6.2636177165354328
11
4.5111073228346452
21
-6.2629097637795272
0
LINE
8
BLACK
6
CONTINUOUS
10
4.5111073228346452
20
-6.2629097637795272
11
4.5142319291338584
21
-6.2624757874015744
0
LINE
8
BLACK
6
CONTINUOUS
10
4.5142319291338584
20
-6.2624757874015744
11
4.5172987401574805
21
-6.2623327952755901
0
LINE
8
BLACK
6
CONTINUOUS
10
4.5172987401574805
20
-6.2623327952755901
11
4.5217914173228344
21
-6.2626911023622043
0
LINE
8
BLACK
6
CONTINUOUS
10
4.5180887401574799
20
-6.2905079527559051
11
4.5157935826771656
21
-6.2912242519685035
0
LINE
8
BLACK
6
CONTINUOUS
10
4.5157935826771656
20
-6.2912242519685035
11
4.5138068110236222
21
-6.2923866929133858
0
LINE
8
BLACK
6
CONTINUOUS
10
4.5138068110236222
20
-6.2923866929133858
11
4.5120773228346458
21
-6.2940218503937002
0
LINE
8
BLACK
6
CONTINUOUS
10
4.5120773228346458
20
-6.2940218503937002
11
4.510357677165354
21
-6.2967025590551176
0
LINE
8
BLACK
6
CONTINUOUS
10
4.510357677165354
20
-6.2967025590551176
11
4.5092637795275587
21
-6.3000774015748027
0
LINE
8
BLACK
6
CONTINUOUS
10
4.5092637795275587
20
-6.3000774015748027
11
4.5088680314960632
21
-6.3043348818897638
0
LINE
8
BLACK
6
CONTINUOUS
10
4.5088680314960632
20
-6.3043348818897638
11
4.509262440944882
21
-6.3085655511811023
0
LINE
8
BLACK
6
CONTINUOUS
10
4.509262440944882
20
-6.3085655511811023
11
4.5103552755905509
21
-6.311936456692913
0
LINE
8
BLACK
6
CONTINUOUS
10
4.5103552755905509
20
-6.311936456692913
11
4.5120773228346458
21
-6.3146298425196852
0
LINE
8
BLACK
6
CONTINUOUS
10
4.5120773228346458
20
-6.3146298425196852
11
4.5138079527559052
21
-6.31627374015748
0
LINE
8
BLACK
6
CONTINUOUS
10
4.5138079527559052
20
-6.31627374015748
11
4.515795118110236
21
-6.3174415354330709
0
LINE
8
BLACK
6
CONTINUOUS
10
4.515795118110236
20
-6.3174415354330709
11
4.5180898818897637
21
-6.3181608267716536
0
LINE
8
BLACK
6
CONTINUOUS
10
4.5180898818897637
20
-6.3181608267716536
11
4.5207676377952755
21
-6.3184124803149606
0
LINE
8
BLACK
6
CONTINUOUS
10
4.5207676377952755
20
-6.3184124803149606
11
4.5234473228346452
21
-6.3181608267716536
0
LINE
8
BLACK
6
CONTINUOUS
10
4.5234473228346452
20
-6.3181608267716536
11
4.5257439370078743
21
-6.3174414960629921
0
LINE
8
BLACK
6
CONTINUOUS
10
4.5257439370078743
20
-6.3174414960629921
11
4.5277328740157481
21
-6.3162736614173225
0
LINE
8
BLACK
6
CONTINUOUS
10
4.5277328740157481
20
-6.3162736614173225
11
4.5294651968503938
21
-6.3146298425196852
0
LINE
8
BLACK
6
CONTINUOUS
10
4.5294651968503938
20
-6.3146298425196852
11
4.5311851574803148
21
-6.3119367322834643
0
LINE
8
BLACK
6
CONTINUOUS
10
4.5311851574803148
20
-6.3119367322834643
11
4.532276811023622
21
-6.3085658267716536
0
LINE
8
BLACK
6
CONTINUOUS
10
4.532276811023622
20
-6.3085658267716536
11
4.5326708661417321
21
-6.3043348818897638
0
LINE
8
BLACK
6
CONTINUOUS
10
4.5326708661417321
20
-6.3043348818897638
11
4.5322755118110232
21
-6.3000771259842514
0
LINE
8
BLACK
6
CONTINUOUS
10
4.5322755118110232
20
-6.3000771259842514
11
4.5311827559055118
21
-6.2967022834645672
0
LINE
8
BLACK
6
CONTINUOUS
10
4.5311827559055118
20
-6.2967022834645672
11
4.5294651968503938
21
-6.2940218503937002
0
LINE
8
BLACK
6
CONTINUOUS
10
4.5294651968503938
20
-6.2940218503937002
11
4.527734015748031
21
-6.2923867322834646
0
LINE
8
BLACK
6
CONTINUOUS
10
4.527734015748031
20
-6.2923867322834646
11
4.5257454724409447
21
-6.2912242913385823
0
LINE
8
BLACK
6
CONTINUOUS
10
4.5257454724409447
20
-6.2912242913385823
11
4.5234484645669291
21
-6.2905079527559051
0
LINE
8
BLACK
6
CONTINUOUS
10
4.5234484645669291
20
-6.2905079527559051
11
4.5207676377952755
21
-6.2902572440944882
0
LINE
8
BLACK
6
CONTINUOUS
10
4.5207676377952755
20
-6.2902572440944882
11
4.5180887401574799
21
-6.2905079527559051
0
LINE
8
BLACK
6
CONTINUOUS
10
4.8125253543307087
20
-6.2775869685039369
11
4.8159887401574801
21
-6.2782889370078738
0
LINE
8
BLACK
6
CONTINUOUS
10
4.8159887401574801
20
-6.2782889370078738
11
4.818825078740157
21
-6.2793728346456694
0
LINE
8
BLACK
6
CONTINUOUS
10
4.818825078740157
20
-6.2793728346456694
11
4.821139488188976
21
-6.2808024803149607
0
LINE
8
BLACK
6
CONTINUOUS
10
4.821139488188976
20
-6.2808024803149607
11
4.8231014566929131
21
-6.2827001181102364
0
LINE
8
BLACK
6
CONTINUOUS
10
4.8231014566929131
20
-6.2827001181102364
11
4.824494173228346
21
-6.2849238188976377
0
LINE
8
BLACK
6
CONTINUOUS
10
4.824494173228346
20
-6.2849238188976377
11
4.8253548425196851
21
-6.2875382677165357
0
LINE
8
BLACK
6
CONTINUOUS
10
4.8253548425196851
20
-6.2875382677165357
11
4.8256577165354333
21
-6.2906431102362204
0
LINE
8
BLACK
6
CONTINUOUS
10
4.8256577165354333
20
-6.2906431102362204
11
4.8252888188976373
21
-6.2940114173228343
0
LINE
8
BLACK
6
CONTINUOUS
10
4.8252888188976373
20
-6.2940114173228343
11
4.8242560236220475
21
-6.2967102755905513
0
LINE
8
BLACK
6
CONTINUOUS
10
4.8242560236220475
20
-6.2967102755905513
11
4.8225926771653542
21
-6.2988898818897638
0
LINE
8
BLACK
6
CONTINUOUS
10
4.8225926771653542
20
-6.2988898818897638
11
4.820362874015748
21
-6.3005789370078737
0
LINE
8
BLACK
6
CONTINUOUS
10
4.820362874015748
20
-6.3005789370078737
11
4.8171362204724408
21
-6.3020849606299212
0
LINE
8
BLACK
6
CONTINUOUS
10
4.8171362204724408
20
-6.3020849606299212
11
4.8126258267716535
21
-6.3033468503937007
0
LINE
8
BLACK
6
CONTINUOUS
10
4.8126258267716535
20
-6.3033468503937007
11
4.810043976377953
21
-6.3039490551181103
0
LINE
8
BLACK
6
CONTINUOUS
10
4.810043976377953
20
-6.3039490551181103
11
4.8053924803149606
21
-6.3051431889763778
0
LINE
8
BLACK
6
CONTINUOUS
10
4.8053924803149606
20
-6.3051431889763778
11
4.8026087007874017
21
-6.3061862204724406
0
LINE
8
BLACK
6
CONTINUOUS
10
4.8026087007874017
20
-6.3061862204724406
11
4.8011084251968503
21
-6.3070753937007868
0
LINE
8
BLACK
6
CONTINUOUS
10
4.8011084251968503
20
-6.3070753937007868
11
4.7999945669291337
21
-6.3082874803149602
0
LINE
8
BLACK
6
CONTINUOUS
10
4.7999945669291337
20
-6.3082874803149602
11
4.7993136614173224
21
-6.3098103149606297
0
LINE
8
BLACK
6
CONTINUOUS
10
4.7993136614173224
20
-6.3098103149606297
11
4.7990710629921258
21
-6.3117414960629921
0
LINE
8
BLACK
6
CONTINUOUS
10
4.7990710629921258
20
-6.3117414960629921
11
4.7993887401574806
21
-6.3137808661417321
0
LINE
8
BLACK
6
CONTINUOUS
10
4.7993887401574806
20
-6.3137808661417321
11
4.8003095275590546
21
-6.3154474803149601
0
LINE
8
BLACK
6
CONTINUOUS
10
4.8003095275590546
20
-6.3154474803149601
11
4.801894527559055
21
-6.3168366929133857
0
LINE
8
BLACK
6
CONTINUOUS
10
4.801894527559055
20
-6.3168366929133857
11
4.80386468503937
21
-6.3177785433070861
0
LINE
8
BLACK
6
CONTINUOUS
10
4.80386468503937
20
-6.3177785433070861
11
4.8064950393700787
21
-6.3184082283464562
0
LINE
8
BLACK
6
CONTINUOUS
10
4.8064950393700787
20
-6.3184082283464562
11
4.8099646456692913
21
-6.318643267716535
0
LINE
8
BLACK
6
CONTINUOUS
10
4.8099646456692913
20
-6.318643267716535
11
4.8138704724409447
21
-6.3183729921259841
0
LINE
8
BLACK
6
CONTINUOUS
10
4.8138704724409447
20
-6.3183729921259841
11
4.8178724803149606
21
-6.317547086614173
0
LINE
8
BLACK
6
CONTINUOUS
10
4.8178724803149606
20
-6.317547086614173
11
4.8218346062992126
21
-6.3162012204724407
0
LINE
8
BLACK
6
CONTINUOUS
10
4.8218346062992126
20
-6.3162012204724407
11
4.8259786614173228
21
-6.3142584645669286
0
LINE
8
BLACK
6
CONTINUOUS
10
4.8259786614173228
20
-6.3142584645669286
11
4.8259786614173228
21
-6.3218742125984253
0
LINE
8
BLACK
6
CONTINUOUS
10
4.8259786614173228
20
-6.3218742125984253
11
4.8216523622047243
21
-6.3232072834645665
0
LINE
8
BLACK
6
CONTINUOUS
10
4.8216523622047243
20
-6.3232072834645665
11
4.8176885826771656
21
-6.3241243307086616
0
LINE
8
BLACK
6
CONTINUOUS
10
4.8176885826771656
20
-6.3241243307086616
11
4.8137844488188977
21
-6.3246914566929133
0
LINE
8
BLACK
6
CONTINUOUS
10
4.8137844488188977
20
-6.3246914566929133
11
4.8101268897637794
21
-6.3248743700787404
0
LINE
8
BLACK
6
CONTINUOUS
10
4.8101268897637794
20
-6.3248743700787404
11
4.8057192913385824
21
-6.3246090944881885
0
LINE
8
BLACK
6
CONTINUOUS
10
4.8057192913385824
20
-6.3246090944881885
11
4.8020422834645666
21
-6.3238691732283465
0
LINE
8
BLACK
6
CONTINUOUS
10
4.8020422834645666
20
-6.3238691732283465
11
4.7989790157480314
21
-6.3227179527559052
0
LINE
8
BLACK
6
CONTINUOUS
10
4.7989790157480314
20
-6.3227179527559052
11
4.7964315354330704
21
-6.3211890944881892
0
LINE
8
BLACK
6
CONTINUOUS
10
4.7964315354330704
20
-6.3211890944881892
11
4.7942320078740153
21
-6.3191597244094488
0
LINE
8
BLACK
6
CONTINUOUS
10
4.7942320078740153
20
-6.3191597244094488
11
4.7927001181102362
21
-6.3168589763779526
0
LINE
8
BLACK
6
CONTINUOUS
10
4.7927001181102362
20
-6.3168589763779526
11
4.7917706692913384
21
-6.314232440944882
0
LINE
8
BLACK
6
CONTINUOUS
10
4.7917706692913384
20
-6.314232440944882
11
4.7914481102362201
21
-6.3111898031496061
0
LINE
8
BLACK
6
CONTINUOUS
10
4.7914481102362201
20
-6.3111898031496061
11
4.7918488976377951
21
-6.307635551181102
0
LINE
8
BLACK
6
CONTINUOUS
10
4.7918488976377951
20
-6.307635551181102
11
4.7929693700787404
21
-6.3048099606299211
0
LINE
8
BLACK
6
CONTINUOUS
10
4.7929693700787404
20
-6.3048099606299211
11
4.7947763779527559
21
-6.302546338582677
0
LINE
8
BLACK
6
CONTINUOUS
10
4.7947763779527559
20
-6.302546338582677
11
4.7971872440944878
21
-6.3008122440944883
0
LINE
8
BLACK
6
CONTINUOUS
10
4.7971872440944878
20
-6.3008122440944883
11
4.8008062992125984
21
-6.2991901968503932
0
LINE
8
BLACK
6
CONTINUOUS
10
4.8008062992125984
20
-6.2991901968503932
11
4.8060088976377955
21
-6.2977468110236217
0
LINE
8
BLACK
6
CONTINUOUS
10
4.8060088976377955
20
-6.2977468110236217
11
4.8085511023622045
21
-6.2971842913385823
0
LINE
8
BLACK
6
CONTINUOUS
10
4.8085511023622045
20
-6.2971842913385823
11
4.8139773622047244
21
-6.2956532283464561
0
LINE
8
BLACK
6
CONTINUOUS
10
4.8139773622047244
20
-6.2956532283464561
11
4.8164986220472441
21
-6.2943824803149608
0
LINE
8
BLACK
6
CONTINUOUS
10
4.8164986220472441
20
-6.2943824803149608
11
4.8175966141732278
21
-6.2932783858267713
0
LINE
8
BLACK
6
CONTINUOUS
10
4.8175966141732278
20
-6.2932783858267713
11
4.8182478740157482
21
-6.2919528346456692
0
LINE
8
BLACK
6
CONTINUOUS
10
4.8182478740157482
20
-6.2919528346456692
11
4.8184746850393703
21
-6.2903329921259843
0
LINE
8
BLACK
6
CONTINUOUS
10
4.8184746850393703
20
-6.2903329921259843
11
4.8181566141732279
21
-6.2882322440944884
0
LINE
8
BLACK
6
CONTINUOUS
10
4.8181566141732279
20
-6.2882322440944884
11
4.8172498425196846
21
-6.2865781889763781
0
LINE
8
BLACK
6
CONTINUOUS
10
4.8172498425196846
20
-6.2865781889763781
11
4.8157125196850394
21
-6.2852594094488188
0
LINE
8
BLACK
6
CONTINUOUS
10
4.8157125196850394
20
-6.2852594094488188
11
4.8137840157480314
21
-6.2843882283464563
0
LINE
8
BLACK
6
CONTINUOUS
10
4.8137840157480314
20
-6.2843882283464563
11
4.8110950393700787
21
-6.2837914173228349
0
LINE
8
BLACK
6
CONTINUOUS
10
4.8110950393700787
20
-6.2837914173228349
11
4.8074224409448814
21
-6.2835646062992128
0
LINE
8
BLACK
6
CONTINUOUS
10
4.8074224409448814
20
-6.2835646062992128
11
4.803834724409449
21
-6.2837686220472442
0
LINE
8
BLACK
6
CONTINUOUS
10
4.803834724409449
20
-6.2837686220472442
11
4.8004052755905509
21
-6.2843723622047243
0
LINE
8
BLACK
6
CONTINUOUS
10
4.8004052755905509
20
-6.2843723622047243
11
4.7970820866141732
21
-6.2853798031496062
0
LINE
8
BLACK
6
CONTINUOUS
10
4.7970820866141732
20
-6.2853798031496062
11
4.7938676771653546
21
-6.2867955511811022
0
LINE
8
BLACK
6
CONTINUOUS
10
4.7938676771653546
20
-6.2867955511811022
11
4.7938676771653546
21
-6.2798721259842516
0
LINE
8
BLACK
6
CONTINUOUS
10
4.7938676771653546
20
-6.2798721259842516
11
4.7970304724409445
21
-6.2787739763779529
0
LINE
8
BLACK
6
CONTINUOUS
10
4.7970304724409445
20
-6.2787739763779529
11
4.8005639370078743
21
-6.2779681889763781
0
LINE
8
BLACK
6
CONTINUOUS
10
4.8005639370078743
20
-6.2779681889763781
11
4.804262125984252
21
-6.2774966535433068
0
LINE
8
BLACK
6
CONTINUOUS
10
4.804262125984252
20
-6.2774966535433068
11
4.8083095275590546
21
-6.277333543307086
0
LINE
8
BLACK
6
CONTINUOUS
10
4.8083095275590546
20
-6.277333543307086
11
4.8125253543307087
21
-6.2775869685039369
0
LINE
8
BLACK
6
CONTINUOUS
10
4.8454074803149609
20
-6.3041473622047244
11
4.8456507480314963
21
-6.307443307086614
0
LINE
8
BLACK
6
CONTINUOUS
10
4.8456507480314963
20
-6.307443307086614
11
4.8463362204724412
21
-6.3102264566929129
0
LINE
8
BLACK
6
CONTINUOUS
10
4.8463362204724412
20
-6.3102264566929129
11
4.8474214960629922
21
-6.3125846850393703
0
LINE
8
BLACK
6
CONTINUOUS
10
4.8474214960629922
20
-6.3125846850393703
11
4.8488980708661416
21
-6.3145865748031493
0
LINE
8
BLACK
6
CONTINUOUS
10
4.8488980708661416
20
-6.3145865748031493
11
4.8507620078740157
21
-6.316234330708661
0
LINE
8
BLACK
6
CONTINUOUS
10
4.8507620078740157
20
-6.316234330708661
11
4.8529233070866145
21
-6.3174181889763776
0
LINE
8
BLACK
6
CONTINUOUS
10
4.8529233070866145
20
-6.3174181889763776
11
4.855440590551181
21
-6.3181537795275586
0
LINE
8
BLACK
6
CONTINUOUS
10
4.855440590551181
20
-6.3181537795275586
11
4.8583961023622049
21
-6.3184124803149606
0
LINE
8
BLACK
6
CONTINUOUS
10
4.8583961023622049
20
-6.3184124803149606
11
4.8615789763779524
21
-6.3180240551181104
0
LINE
8
BLACK
6
CONTINUOUS
10
4.8615789763779524
20
-6.3180240551181104
11
4.8640216535433067
21
-6.3169477165354326
0
LINE
8
BLACK
6
CONTINUOUS
10
4.8640216535433067
20
-6.3169477165354326
11
4.8659037007874018
21
-6.3152104330708658
0
LINE
8
BLACK
6
CONTINUOUS
10
4.8659037007874018
20
-6.3152104330708658
11
4.8672060236220469
21
-6.3129340944881891
0
LINE
8
BLACK
6
CONTINUOUS
10
4.8672060236220469
20
-6.3129340944881891
11
4.8680759448818893
21
-6.3098166535433071
0
LINE
8
BLACK
6
CONTINUOUS
10
4.8680759448818893
20
-6.3098166535433071
11
4.8684026377952758
21
-6.3056041732283461
0
LINE
8
BLACK
6
CONTINUOUS
10
4.8684026377952758
20
-6.3056041732283461
11
4.8684026377952758
21
-6.2784874409448816
0
LINE
8
BLACK
6
CONTINUOUS
10
4.8684026377952758
20
-6.2784874409448816
11
4.8758236614173232
21
-6.2784874409448816
0
LINE
8
BLACK
6
CONTINUOUS
10
4.8758236614173232
20
-6.2784874409448816
11
4.8758236614173232
21
-6.3058854330708662
0
LINE
8
BLACK
6
CONTINUOUS
10
4.8758236614173232
20
-6.3058854330708662
11
4.8755270866141736
21
-6.3106088188976379
0
LINE
8
BLACK
6
CONTINUOUS
10
4.8755270866141736
20
-6.3106088188976379
11
4.874709094488189
21
-6.3144430314960625
0
LINE
8
BLACK
6
CONTINUOUS
10
4.874709094488189
20
-6.3144430314960625
11
4.8734505511811026
21
-6.3175435826771649
0
LINE
8
BLACK
6
CONTINUOUS
10
4.8734505511811026
20
-6.3175435826771649
11
4.8717922047244091
21
-6.3200387795275592
0
LINE
8
BLACK
6
CONTINUOUS
10
4.8717922047244091
20
-6.3200387795275592
11
4.8696134251968504
21
-6.3221005905511811
0
LINE
8
BLACK
6
CONTINUOUS
10
4.8696134251968504
20
-6.3221005905511811
11
4.8669852362204722
21
-6.323596456692913
0
LINE
8
BLACK
6
CONTINUOUS
10
4.8669852362204722
20
-6.323596456692913
11
4.8638150393700785
21
-6.3245385039370081
0
LINE
8
BLACK
6
CONTINUOUS
10
4.8638150393700785
20
-6.3245385039370081
11
4.8599719291338586
21
-6.3248743700787404
0
LINE
8
BLACK
6
CONTINUOUS
10
4.8599719291338586
20
-6.3248743700787404
11
4.8568768110236222
21
-6.3246418110236222
0
LINE
8
BLACK
6
CONTINUOUS
10
4.8568768110236222
20
-6.3246418110236222
11
4.8541327559055114
21
-6.3239721259842518
0
LINE
8
BLACK
6
CONTINUOUS
10
4.8541327559055114
20
-6.3239721259842518
11
4.8516818503937005
21
-6.3228874803149608
0
LINE
8
BLACK
6
CONTINUOUS
10
4.8516818503937005
20
-6.3228874803149608
11
4.8494606299212597
21
-6.321377204724409
0
LINE
8
BLACK
6
CONTINUOUS
10
4.8494606299212597
20
-6.321377204724409
11
4.847372362204724
21
-6.3193701574803152
0
LINE
8
BLACK
6
CONTINUOUS
10
4.847372362204724
20
-6.3193701574803152
11
4.8454074803149609
21
-6.3167970472440942
0
LINE
8
BLACK
6
CONTINUOUS
10
4.8454074803149609
20
-6.3167970472440942
11
4.8454074803149609
21
-6.3237204724409448
0
LINE
8
BLACK
6
CONTINUOUS
10
4.8454074803149609
20
-6.3237204724409448
11
4.8379828346456693
21
-6.3237204724409448
0
LINE
8
BLACK
6
CONTINUOUS
10
4.8379828346456693
20
-6.3237204724409448
11
4.8379828346456693
21
-6.2784874409448816
0
LINE
8
BLACK
6
CONTINUOUS
10
4.8379828346456693
20
-6.2784874409448816
11
4.8454074803149609
21
-6.2784874409448816
0
LINE
8
BLACK
6
CONTINUOUS
10
4.8454074803149609
20
-6.2784874409448816
11
4.8454074803149609
21
-6.3041473622047244
0
LINE
8
BLACK
6
CONTINUOUS
10
4.9277853543307089
20
-6.3237204724409448
11
4.9203210629921257
21
-6.3237204724409448
0
LINE
8
BLACK
6
CONTINUOUS
10
4.9203210629921257
20
-6.3237204724409448
11
4.9203210629921257
21
-6.3170277952755907
0
LINE
8
BLACK
6
CONTINUOUS
10
4.9203210629921257
20
-6.3170277952755907
11
4.9185797244094491
21
-6.3195094488188976
0
LINE
8
BLACK
6
CONTINUOUS
10
4.9185797244094491
20
-6.3195094488188976
11
4.9166145669291339
21
-6.3214613779527555
0
LINE
8
BLACK
6
CONTINUOUS
10
4.9166145669291339
20
-6.3214613779527555
11
4.9144109055118106
21
-6.3229451574803148
0
LINE
8
BLACK
6
CONTINUOUS
10
4.9144109055118106
20
-6.3229451574803148
11
4.9119607874015747
21
-6.3239897637795277
0
LINE
8
BLACK
6
CONTINUOUS
10
4.9119607874015747
20
-6.3239897637795277
11
4.9091405118110236
21
-6.324644251968504
0
LINE
8
BLACK
6
CONTINUOUS
10
4.9091405118110236
20
-6.324644251968504
11
4.9058792519685035
21
-6.3248743700787404
0
LINE
8
BLACK
6
CONTINUOUS
10
4.9058792519685035
20
-6.3248743700787404
11
4.9019176377952753
21
-6.3244562204724408
0
LINE
8
BLACK
6
CONTINUOUS
10
4.9019176377952753
20
-6.3244562204724408
11
4.8984325590551183
21
-6.3232423622047245
0
LINE
8
BLACK
6
CONTINUOUS
10
4.8984325590551183
20
-6.3232423622047245
11
4.8953179133858269
21
-6.3212285826771648
0
LINE
8
BLACK
6
CONTINUOUS
10
4.8953179133858269
20
-6.3212285826771648
11
4.8925083858267717
21
-6.3183259448818898
0
LINE
8
BLACK
6
CONTINUOUS
10
4.8925083858267717
20
-6.3183259448818898
11
4.8903359842519682
21
-6.3149473228346453
0
LINE
8
BLACK
6
CONTINUOUS
10
4.8903359842519682
20
-6.3149473228346453
11
4.8887326771653541
21
-6.3110204724409451
0
LINE
8
BLACK
6
CONTINUOUS
10
4.8887326771653541
20
-6.3110204724409451
11
4.8877205511811024
21
-6.306446456692913
0
LINE
8
BLACK
6
CONTINUOUS
10
4.8877205511811024
20
-6.306446456692913
11
4.8873627165354332
21
-6.3011039370078743
0
LINE
8
BLACK
6
CONTINUOUS
10
4.8873627165354332
20
-6.3011039370078743
11
4.8877205511811024
21
-6.2957614173228347
0
LINE
8
BLACK
6
CONTINUOUS
10
4.8877205511811024
20
-6.2957614173228347
11
4.8887326771653541
21
-6.2911874409448814
0
LINE
8
BLACK
6
CONTINUOUS
10
4.8887326771653541
20
-6.2911874409448814
11
4.8903359842519682
21
-6.2872605905511811
0
LINE
8
BLACK
6
CONTINUOUS
10
4.8903359842519682
20
-6.2872605905511811
11
4.8925083858267717
21
-6.2838819291338579
0
LINE
8
BLACK
6
CONTINUOUS
10
4.8925083858267717
20
-6.2838819291338579
11
4.8953179133858269
21
-6.2809793307086617
0
LINE
8
BLACK
6
CONTINUOUS
10
4.8953179133858269
20
-6.2809793307086617
11
4.8984325590551183
21
-6.278965551181102
0
LINE
8
BLACK
6
CONTINUOUS
10
4.8984325590551183
20
-6.278965551181102
11
4.9019176377952753
21
-6.2777516929133856
0
LINE
8
BLACK
6
CONTINUOUS
10
4.9019176377952753
20
-6.2777516929133856
11
4.9058792519685035
21
-6.277333543307086
0
LINE
8
BLACK
6
CONTINUOUS
10
4.9058792519685035
20
-6.277333543307086
11
4.9091403149606299
21
-6.27756405511811
0
LINE
8
BLACK
6
CONTINUOUS
10
4.9091403149606299
20
-6.27756405511811
11
4.9119605511811022
21
-6.2782197244094489
0
LINE
8
BLACK
6
CONTINUOUS
10
4.9119605511811022
20
-6.2782197244094489
11
4.9144109055118106
21
-6.2792663385826772
0
LINE
8
BLACK
6
CONTINUOUS
10
4.9144109055118106
20
-6.2792663385826772
11
4.9166144094488189
21
-6.2807480314960626
0
LINE
8
BLACK
6
CONTINUOUS
10
4.9166144094488189
20
-6.2807480314960626
11
4.9185795669291341
21
-6.2826987007874013
0
LINE
8
BLACK
6
CONTINUOUS
10
4.9185795669291341
20
-6.2826987007874013
11
4.9203210629921257
21
-6.2851800787401571
0
LINE
8
BLACK
6
CONTINUOUS
10
4.9203210629921257
20
-6.2851800787401571
11
4.9203210629921257
21
-6.2609481102362201
0
LINE
8
BLACK
6
CONTINUOUS
10
4.9203210629921257
20
-6.2609481102362201
11
4.9277853543307089
21
-6.2609481102362201
0
LINE
8
BLACK
6
CONTINUOUS
10
4.9277853543307089
20
-6.2609481102362201
11
4.9277853543307089
21
-6.3237204724409448
0
LINE
8
BLACK
6
CONTINUOUS
10
4.9048567716535434
20
-6.2838675984251964
11
4.9024207086614169
21
-6.2847390944881889
0
LINE
8
BLACK
6
CONTINUOUS
10
4.9024207086614169
20
-6.2847390944881889
11
4.9002979133858267
21
-6.2861739763779525
0
LINE
8
BLACK
6
CONTINUOUS
10
4.9002979133858267
20
-6.2861739763779525
11
4.8984365748031493
21
-6.2882343307086614
0
LINE
8
BLACK
6
CONTINUOUS
10
4.8984365748031493
20
-6.2882343307086614
11
4.8970430708661414
21
-6.2906154330708661
0
LINE
8
BLACK
6
CONTINUOUS
10
4.8970430708661414
20
-6.2906154330708661
11
4.8959903937007869
21
-6.2934887007874014
0
LINE
8
BLACK
6
CONTINUOUS
10
4.8959903937007869
20
-6.2934887007874014
11
4.895312125984252
21
-6.2969478740157481
0
LINE
8
BLACK
6
CONTINUOUS
10
4.895312125984252
20
-6.2969478740157481
11
4.8950686220472441
21
-6.3011039370078743
0
LINE
8
BLACK
6
CONTINUOUS
10
4.8950686220472441
20
-6.3011039370078743
11
4.8953120866141733
21
-6.3052598818897634
0
LINE
8
BLACK
6
CONTINUOUS
10
4.8953120866141733
20
-6.3052598818897634
11
4.8959902755905507
21
-6.3087197637795276
0
LINE
8
BLACK
6
CONTINUOUS
10
4.8959902755905507
20
-6.3087197637795276
11
4.8970429133858264
21
-6.3115943307086617
0
LINE
8
BLACK
6
CONTINUOUS
10
4.8970429133858264
20
-6.3115943307086617
11
4.8984365748031493
21
-6.3139771653543306
0
LINE
8
BLACK
6
CONTINUOUS
10
4.8984365748031493
20
-6.3139771653543306
11
4.9002976771653541
21
-6.3160357086614169
0
LINE
8
BLACK
6
CONTINUOUS
10
4.9002976771653541
20
-6.3160357086614169
11
4.9024203937007869
21
-6.3174695669291339
0
LINE
8
BLACK
6
CONTINUOUS
10
4.9024203937007869
20
-6.3174695669291339
11
4.9048565354330709
21
-6.3183404724409451
0
LINE
8
BLACK
6
CONTINUOUS
10
4.9048565354330709
20
-6.3183404724409451
11
4.9076930314960627
21
-6.318643267716535
0
LINE
8
BLACK
6
CONTINUOUS
10
4.9076930314960627
20
-6.318643267716535
11
4.9105314566929135
21
-6.3183404330708663
0
LINE
8
BLACK
6
CONTINUOUS
10
4.9105314566929135
20
-6.3183404330708663
11
4.9129687401574804
21
-6.3174693700787401
0
LINE
8
BLACK
6
CONTINUOUS
10
4.9129687401574804
20
-6.3174693700787401
11
4.9150920078740157
21
-6.3160355118110232
0
LINE
8
BLACK
6
CONTINUOUS
10
4.9150920078740157
20
-6.3160355118110232
11
4.9169531102362205
21
-6.3139771653543306
0
LINE
8
BLACK
6
CONTINUOUS
10
4.9169531102362205
20
-6.3139771653543306
11
4.9183467322834646
21
-6.3115943307086617
0
LINE
8
BLACK
6
CONTINUOUS
10
4.9183467322834646
20
-6.3115943307086617
11
4.9193994094488191
21
-6.3087197637795276
0
LINE
8
BLACK
6
CONTINUOUS
10
4.9193994094488191
20
-6.3087197637795276
11
4.9200775984251965
21
-6.3052598818897634
0
LINE
8
BLACK
6
CONTINUOUS
10
4.9200775984251965
20
-6.3052598818897634
11
4.9203210629921257
21
-6.3011039370078743
0
LINE
8
BLACK
6
CONTINUOUS
10
4.9203210629921257
20
-6.3011039370078743
11
4.920077519685039
21
-6.2969478740157481
0
LINE
8
BLACK
6
CONTINUOUS
10
4.920077519685039
20
-6.2969478740157481
11
4.9193992913385829
21
-6.2934887007874014
0
LINE
8
BLACK
6
CONTINUOUS
10
4.9193992913385829
20
-6.2934887007874014
11
4.9183466141732284
21
-6.2906154330708661
0
LINE
8
BLACK
6
CONTINUOUS
10
4.9183466141732284
20
-6.2906154330708661
11
4.9169531102362205
21
-6.2882343307086614
0
LINE
8
BLACK
6
CONTINUOUS
10
4.9169531102362205
20
-6.2882343307086614
11
4.9150917716535432
21
-6.286174212598425
0
LINE
8
BLACK
6
CONTINUOUS
10
4.9150917716535432
20
-6.286174212598425
11
4.9129684251968504
21
-6.2847392913385827
0
LINE
8
BLACK
6
CONTINUOUS
10
4.9129684251968504
20
-6.2847392913385827
11
4.9105312204724409
21
-6.2838676771653539
0
LINE
8
BLACK
6
CONTINUOUS
10
4.9105312204724409
20
-6.2838676771653539
11
4.9076930314960627
21
-6.2835646062992128
0
LINE
8
BLACK
6
CONTINUOUS
10
4.9076930314960627
20
-6.2835646062992128
11
4.9048567716535434
21
-6.2838675984251964
0
LINE
8
BLACK
6
CONTINUOUS
10
4.9576740157480312
20
-6.2776142519685036
11
4.9613890944881884
21
-6.2784156692913387
0
LINE
8
BLACK
6
CONTINUOUS
10
4.9613890944881884
20
-6.2784156692913387
11
4.9646523622047241
21
-6.2796970866141733
0
LINE
8
BLACK
6
CONTINUOUS
10
4.9646523622047241
20
-6.2796970866141733
11
4.9675294881889762
21
-6.2814462204724411
0
LINE
8
BLACK
6
CONTINUOUS
10
4.9675294881889762
20
-6.2814462204724411
11
4.9700687007874018
21
-6.2836799999999995
0
LINE
8
BLACK
6
CONTINUOUS
10
4.9700687007874018
20
-6.2836799999999995
11
4.9726419291338582
21
-6.2870146456692915
0
LINE
8
BLACK
6
CONTINUOUS
10
4.9726419291338582
20
-6.2870146456692915
11
4.9745270866141729
21
-6.2909466535433065
0
LINE
8
BLACK
6
CONTINUOUS
10
4.9745270866141729
20
-6.2909466535433065
11
4.975715826771653
21
-6.2955925196850391
0
LINE
8
BLACK
6
CONTINUOUS
10
4.975715826771653
20
-6.2955925196850391
11
4.9761375196850395
21
-6.3011039370078743
0
LINE
8
BLACK
6
CONTINUOUS
10
4.9761375196850395
20
-6.3011039370078743
11
4.9757227952755905
21
-6.3065285039370078
0
LINE
8
BLACK
6
CONTINUOUS
10
4.9757227952755905
20
-6.3065285039370078
11
4.9745496062992123
21
-6.3111390944881887
0
LINE
8
BLACK
6
CONTINUOUS
10
4.9745496062992123
20
-6.3111390944881887
11
4.9726823622047247
21
-6.3150762992125982
0
LINE
8
BLACK
6
CONTINUOUS
10
4.9726823622047247
20
-6.3150762992125982
11
4.9701264173228346
21
-6.3184485433070865
0
LINE
8
BLACK
6
CONTINUOUS
10
4.9701264173228346
20
-6.3184485433070865
11
4.9676008267716538
21
-6.3207267716535434
0
LINE
8
BLACK
6
CONTINUOUS
10
4.9676008267716538
20
-6.3207267716535434
11
4.9647679133858267
21
-6.322499645669291
0
LINE
8
BLACK
6
CONTINUOUS
10
4.9647679133858267
20
-6.322499645669291
11
4.9615844881889766
21
-6.3237907480314961
0
LINE
8
BLACK
6
CONTINUOUS
10
4.9615844881889766
20
-6.3237907480314961
11
4.9579900787401572
21
-6.3245940551181103
0
LINE
8
BLACK
6
CONTINUOUS
10
4.9579900787401572
20
-6.3245940551181103
11
4.9539104724409446
21
-6.3248743700787404
0
LINE
8
BLACK
6
CONTINUOUS
10
4.9539104724409446
20
-6.3248743700787404
11
4.9502194488188973
21
-6.3246969685039369
0
LINE
8
BLACK
6
CONTINUOUS
10
4.9502194488188973
20
-6.3246969685039369
11
4.9468283858267714
21
-6.3241820078740156
0
LINE
8
BLACK
6
CONTINUOUS
10
4.9468283858267714
20
-6.3241820078740156
11
4.9435559842519687
21
-6.3233165748031492
0
LINE
8
BLACK
6
CONTINUOUS
10
4.9435559842519687
20
-6.3233165748031492
11
4.9403953543307084
21
-6.3221049999999996
0
LINE
8
BLACK
6
CONTINUOUS
10
4.9403953543307084
20
-6.3221049999999996
11
4.9403953543307084
21
-6.3151815748031499
0
LINE
8
BLACK
6
CONTINUOUS
10
4.9403953543307084
20
-6.3151815748031499
11
4.9435829133858267
21
-6.3167104330708659
0
LINE
8
BLACK
6
CONTINUOUS
10
4.9435829133858267
20
-6.3167104330708659
11
4.9467093700787403
21
-6.3177778346456694
0
LINE
8
BLACK
6
CONTINUOUS
10
4.9467093700787403
20
-6.3177778346456694
11
4.9498971653543302
21
-6.3184277952755901
0
LINE
8
BLACK
6
CONTINUOUS
10
4.9498971653543302
20
-6.3184277952755901
11
4.9531027165354331
21
-6.318643267716535
0
LINE
8
BLACK
6
CONTINUOUS
10
4.9531027165354331
20
-6.318643267716535
11
4.9566540157480317
21
-6.3183288582677166
0
LINE
8
BLACK
6
CONTINUOUS
10
4.9566540157480317
20
-6.3183288582677166
11
4.9596401181102365
21
-6.3174394094488191
0
LINE
8
BLACK
6
CONTINUOUS
10
4.9596401181102365
20
-6.3174394094488191
11
4.9621691338582679
21
-6.3160140944881888
0
LINE
8
BLACK
6
CONTINUOUS
10
4.9621691338582679
20
-6.3160140944881888
11
4.9643172047244093
21
-6.3140348818897634
0
LINE
8
BLACK
6
CONTINUOUS
10
4.9643172047244093
20
-6.3140348818897634
11
4.9659845669291336
21
-6.311642834645669
0
LINE
8
BLACK
6
CONTINUOUS
10
4.9659845669291336
20
-6.311642834645669
11
4.9672282283464568
21
-6.3087593700787403
0
LINE
8
BLACK
6
CONTINUOUS
10
4.9672282283464568
20
-6.3087593700787403
11
4.9680239370078736
21
-6.3052868110236222
0
LINE
8
BLACK
6
CONTINUOUS
10
4.9680239370078736
20
-6.3052868110236222
11
4.968309015748031
21
-6.3011039370078743
0
LINE
8
BLACK
6
CONTINUOUS
10
4.968309015748031
20
-6.3011039370078743
11
4.9680239370078736
21
-6.2969210629921255
0
LINE
8
BLACK
6
CONTINUOUS
10
4.9680239370078736
20
-6.2969210629921255
11
4.9672282283464568
21
-6.2934485039370074
0
LINE
8
BLACK
6
CONTINUOUS
10
4.9672282283464568
20
-6.2934485039370074
11
4.9659845669291336
21
-6.2905650787401575
0
LINE
8
BLACK
6
CONTINUOUS
10
4.9659845669291336
20
-6.2905650787401575
11
4.9643172047244093
21
-6.2881730314960631
0
LINE
8
BLACK
6
CONTINUOUS
10
4.9643172047244093
20
-6.2881730314960631
11
4.9621691338582679
21
-6.2861938188976376
0
LINE
8
BLACK
6
CONTINUOUS
10
4.9621691338582679
20
-6.2861938188976376
11
4.9596401181102365
21
-6.2847685039370074
0
LINE
8
BLACK
6
CONTINUOUS
10
4.9596401181102365
20
-6.2847685039370074
11
4.9566540157480317
21
-6.2838790157480311
0
LINE
8
BLACK
6
CONTINUOUS
10
4.9566540157480317
20
-6.2838790157480311
11
4.9531027165354331
21
-6.2835646062992128
0
LINE
8
BLACK
6
CONTINUOUS
10
4.9531027165354331
20
-6.2835646062992128
11
4.9498971653543302
21
-6.2837801181102364
0
LINE
8
BLACK
6
CONTINUOUS
10
4.9498971653543302
20
-6.2837801181102364
11
4.9467093700787403
21
-6.2844300393700783
0
LINE
8
BLACK
6
CONTINUOUS
10
4.9467093700787403
20
-6.2844300393700783
11
4.9435829133858267
21
-6.2854974409448818
0
LINE
8
BLACK
6
CONTINUOUS
10
4.9435829133858267
20
-6.2854974409448818
11
4.9403953543307084
21
-6.2870263385826775
0
LINE
8
BLACK
6
CONTINUOUS
10
4.9403953543307084
20
-6.2870263385826775
11
4.9403953543307084
21
-6.2801029133858268
0
LINE
8
BLACK
6
CONTINUOUS
10
4.9403953543307084
20
-6.2801029133858268
11
4.9435140944881892
21
-6.2788905511811022
0
LINE
8
BLACK
6
CONTINUOUS
10
4.9435140944881892
20
-6.2788905511811022
11
4.9467310236220472
21
-6.2780258661417321
0
LINE
8
BLACK
6
CONTINUOUS
10
4.9467310236220472
20
-6.2780258661417321
11
4.9500279527559057
21
-6.2775077165354327
0
LINE
8
BLACK
6
CONTINUOUS
10
4.9500279527559057
20
-6.2775077165354327
11
4.9534272440944882
21
-6.277333543307086
0
LINE
8
BLACK
6
CONTINUOUS
10
4.9534272440944882
20
-6.277333543307086
11
4.9576740157480312
21
-6.2776142519685036
0
LINE
8
BLACK
6
CONTINUOUS
10
5.0555693307086615
20
-6.2851800787401571
11
5.0573108267716531
21
-6.2826987007874013
0
LINE
8
BLACK
6
CONTINUOUS
10
5.0573108267716531
20
-6.2826987007874013
11
5.0592759842519683
21
-6.2807480314960626
0
LINE
8
BLACK
6
CONTINUOUS
10
5.0592759842519683
20
-6.2807480314960626
11
5.0614794881889766
21
-6.2792663385826772
0
LINE
8
BLACK
6
CONTINUOUS
10
5.0614794881889766
20
-6.2792663385826772
11
5.0639301968503938
21
-6.2782209448818893
0
LINE
8
BLACK
6
CONTINUOUS
10
5.0639301968503938
20
-6.2782209448818893
11
5.0667628346456688
21
-6.27756468503937
0
LINE
8
BLACK
6
CONTINUOUS
10
5.0667628346456688
20
-6.27756468503937
11
5.0700508267716531
21
-6.277333543307086
0
LINE
8
BLACK
6
CONTINUOUS
10
5.0700508267716531
20
-6.277333543307086
11
5.0739913779527557
21
-6.2777508267716531
0
LINE
8
BLACK
6
CONTINUOUS
10
5.0739913779527557
20
-6.2777508267716531
11
5.0774641732283463
21
-6.2789633464566927
0
LINE
8
BLACK
6
CONTINUOUS
10
5.0774641732283463
20
-6.2789633464566927
11
5.0805740944881892
21
-6.280976889763779
0
LINE
8
BLACK
6
CONTINUOUS
10
5.0805740944881892
20
-6.280976889763779
11
5.0833856299212599
21
-6.2838819291338579
0
LINE
8
BLACK
6
CONTINUOUS
10
5.0833856299212599
20
-6.2838819291338579
11
5.0855563779527557
21
-6.2872603543307086
0
LINE
8
BLACK
6
CONTINUOUS
10
5.0855563779527557
20
-6.2872603543307086
11
5.0871585826771648
21
-6.2911871259842522
0
LINE
8
BLACK
6
CONTINUOUS
10
5.0871585826771648
20
-6.2911871259842522
11
5.0881700787401574
21
-6.2957612204724409
0
LINE
8
BLACK
6
CONTINUOUS
10
5.0881700787401574
20
-6.2957612204724409
11
5.088527677165354
21
-6.3011039370078743
0
LINE
8
BLACK
6
CONTINUOUS
10
5.088527677165354
20
-6.3011039370078743
11
5.0881700787401574
21
-6.3064466929133856
0
LINE
8
BLACK
6
CONTINUOUS
10
5.0881700787401574
20
-6.3064466929133856
11
5.0871585826771648
21
-6.3110207874015742
0
LINE
8
BLACK
6
CONTINUOUS
10
5.0871585826771648
20
-6.3110207874015742
11
5.0855563779527557
21
-6.3149475196850391
0
LINE
8
BLACK
6
CONTINUOUS
10
5.0855563779527557
20
-6.3149475196850391
11
5.0833856299212599
21
-6.3183259448818898
0
LINE
8
BLACK
6
CONTINUOUS
10
5.0833856299212599
20
-6.3183259448818898
11
5.0805740944881892
21
-6.3212310236220475
0
LINE
8
BLACK
6
CONTINUOUS
10
5.0805740944881892
20
-6.3212310236220475
11
5.0774641732283463
21
-6.3232445669291337
0
LINE
8
BLACK
6
CONTINUOUS
10
5.0774641732283463
20
-6.3232445669291337
11
5.0739913779527557
21
-6.3244570472440946
0
LINE
8
BLACK
6
CONTINUOUS
10
5.0739913779527557
20
-6.3244570472440946
11
5.0700508267716531
21
-6.3248743700787404
0
LINE
8
BLACK
6
CONTINUOUS
10
5.0700508267716531
20
-6.3248743700787404
11
5.0667626377952759
21
-6.324643622047244
0
LINE
8
BLACK
6
CONTINUOUS
10
5.0667626377952759
20
-6.324643622047244
11
5.06393
21
-6.3239885433070864
0
LINE
8
BLACK
6
CONTINUOUS
10
5.06393
20
-6.3239885433070864
11
5.0614794881889766
21
-6.3229451574803148
0
LINE
8
BLACK
6
CONTINUOUS
10
5.0614794881889766
20
-6.3229451574803148
11
5.0592758267716533
21
-6.3214613779527555
0
LINE
8
BLACK
6
CONTINUOUS
10
5.0592758267716533
20
-6.3214613779527555
11
5.0573106692913381
21
-6.3195094488188976
0
LINE
8
BLACK
6
CONTINUOUS
10
5.0573106692913381
20
-6.3195094488188976
11
5.0555693307086615
21
-6.3170277952755907
0
LINE
8
BLACK
6
CONTINUOUS
10
5.0555693307086615
20
-6.3170277952755907
11
5.0555693307086615
21
-6.3237204724409448
0
LINE
8
BLACK
6
CONTINUOUS
10
5.0555693307086615
20
-6.3237204724409448
11
5.0481446850393699
21
-6.3237204724409448
0
LINE
8
BLACK
6
CONTINUOUS
10
5.0481446850393699
20
-6.3237204724409448
11
5.0481446850393699
21
-6.3011039370078743
0
LINE
8
BLACK
6
CONTINUOUS
10
5.0481446850393699
20
-6.3011039370078743
11
5.0481446850393699
21
-6.2609481102362201
0
LINE
8
BLACK
6
CONTINUOUS
10
5.0481446850393699
20
-6.2609481102362201
11
5.0555693307086615
21
-6.2609481102362201
0
LINE
8
BLACK
6
CONTINUOUS
10
5.0555693307086615
20
-6.2609481102362201
11
5.0555693307086615
21
-6.2851800787401571
0
LINE
8
BLACK
6
CONTINUOUS
10
5.0653988582677165
20
-6.2838674015748026
11
5.0629582283464565
21
-6.2847387007874014
0
LINE
8
BLACK
6
CONTINUOUS
10
5.0629582283464565
20
-6.2847387007874014
11
5.0608287795275588
21
-6.2861737007874012
0
LINE
8
BLACK
6
CONTINUOUS
10
5.0608287795275588
20
-6.2861737007874012
11
5.0589589370078736
21
-6.2882343307086614
0
LINE
8
BLACK
6
CONTINUOUS
10
5.0589589370078736
20
-6.2882343307086614
11
5.0575558267716536
21
-6.2906168110236216
0
LINE
8
BLACK
6
CONTINUOUS
10
5.0575558267716536
20
-6.2906168110236216
11
5.0564964960629917
21
-6.2934905511811019
0
LINE
8
BLACK
6
CONTINUOUS
10
5.0564964960629917
20
-6.2934905511811019
11
5.0558142519685036
21
-6.2969492913385823
0
LINE
8
BLACK
6
CONTINUOUS
10
5.0558142519685036
20
-6.2969492913385823
11
5.0555693307086615
21
-6.3011039370078743
0
LINE
8
BLACK
6
CONTINUOUS
10
5.0555693307086615
20
-6.3011039370078743
11
5.0558142125984249
21
-6.3052584645669292
0
LINE
8
BLACK
6
CONTINUOUS
10
5.0558142125984249
20
-6.3052584645669292
11
5.0564963779527554
21
-6.3087178740157475
0
LINE
8
BLACK
6
CONTINUOUS
10
5.0564963779527554
20
-6.3087178740157475
11
5.0575556692913386
21
-6.3115929527559054
0
LINE
8
BLACK
6
CONTINUOUS
10
5.0575556692913386
20
-6.3115929527559054
11
5.0589589370078736
21
-6.3139771653543306
0
LINE
8
BLACK
6
CONTINUOUS
10
5.0589589370078736
20
-6.3139771653543306
11
5.0608285433070863
21
-6.316036023622047
0
LINE
8
BLACK
6
CONTINUOUS
10
5.0608285433070863
20
-6.316036023622047
11
5.0629579133858265
21
-6.3174699606299214
0
LINE
8
BLACK
6
CONTINUOUS
10
5.0629579133858265
20
-6.3174699606299214
11
5.065398622047244
21
-6.3183406692913389
0
LINE
8
BLACK
6
CONTINUOUS
10
5.065398622047244
20
-6.3183406692913389
11
5.068237007874016
21
-6.318643267716535
0
LINE
8
BLACK
6
CONTINUOUS
10
5.068237007874016
20
-6.318643267716535
11
5.0710735039370078
21
-6.3183404724409451
0
LINE
8
BLACK
6
CONTINUOUS
10
5.0710735039370078
20
-6.3183404724409451
11
5.073509645669291
21
-6.3174695669291339
0
LINE
8
BLACK
6
CONTINUOUS
10
5.073509645669291
20
-6.3174695669291339
11
5.0756323622047246
21
-6.3160357086614169
0
LINE
8
BLACK
6
CONTINUOUS
10
5.0756323622047246
20
-6.3160357086614169
11
5.0774935039370082
21
-6.3139771653543306
0
LINE
8
BLACK
6
CONTINUOUS
10
5.0774935039370082
20
-6.3139771653543306
11
5.0788871259842523
21
-6.3115943307086617
0
LINE
8
BLACK
6
CONTINUOUS
10
5.0788871259842523
20
-6.3115943307086617
11
5.0799398031496059
21
-6.3087197637795276
0
LINE
8
BLACK
6
CONTINUOUS
10
5.0799398031496059
20
-6.3087197637795276
11
5.0806179921259842
21
-6.3052598818897634
0
LINE
8
BLACK
6
CONTINUOUS
10
5.0806179921259842
20
-6.3052598818897634
11
5.0808614566929133
21
-6.3011039370078743
0
LINE
8
BLACK
6
CONTINUOUS
10
5.0808614566929133
20
-6.3011039370078743
11
5.0806179133858267
21
-6.2969478740157481
0
LINE
8
BLACK
6
CONTINUOUS
10
5.0806179133858267
20
-6.2969478740157481
11
5.0799396850393697
21
-6.2934887007874014
0
LINE
8
BLACK
6
CONTINUOUS
10
5.0799396850393697
20
-6.2934887007874014
11
5.078887007874016
21
-6.2906154330708661
0
LINE
8
BLACK
6
CONTINUOUS
10
5.078887007874016
20
-6.2906154330708661
11
5.0774935039370082
21
-6.2882343307086614
0
LINE
8
BLACK
6
CONTINUOUS
10
5.0774935039370082
20
-6.2882343307086614
11
5.0756321259842521
21
-6.2861739763779525
0
LINE
8
BLACK
6
CONTINUOUS
10
5.0756321259842521
20
-6.2861739763779525
11
5.0735093307086609
21
-6.2847390944881889
0
LINE
8
BLACK
6
CONTINUOUS
10
5.0735093307086609
20
-6.2847390944881889
11
5.0710732677165353
21
-6.2838675984251964
0
LINE
8
BLACK
6
CONTINUOUS
10
5.0710732677165353
20
-6.2838675984251964
11
5.068237007874016
21
-6.2835646062992128
0
LINE
8
BLACK
6
CONTINUOUS
10
5.068237007874016
20
-6.2835646062992128
11
5.0653988582677165
21
-6.2838674015748026
0
LINE
8
BLACK
6
CONTINUOUS
10
5.1212661023622044
20
-6.2776173228346455
11
5.1248433464566929
21
-6.2784312598425194
0
LINE
8
BLACK
6
CONTINUOUS
10
5.1248433464566929
20
-6.2784312598425194
11
5.1280155905511808
21
-6.2797411417322833
0
LINE
8
BLACK
6
CONTINUOUS
10
5.1280155905511808
20
-6.2797411417322833
11
5.1308428740157481
21
-6.2815431889763778
0
LINE
8
BLACK
6
CONTINUOUS
10
5.1308428740157481
20
-6.2815431889763778
11
5.1333676377952751
21
-6.2838638976377954
0
LINE
8
BLACK
6
CONTINUOUS
10
5.1333676377952751
20
-6.2838638976377954
11
5.1359087007874011
21
-6.2872798031496062
0
LINE
8
BLACK
6
CONTINUOUS
10
5.1359087007874011
20
-6.2872798031496062
11
5.1377701968503935
21
-6.2912792125984254
0
LINE
8
BLACK
6
CONTINUOUS
10
5.1377701968503935
20
-6.2912792125984254
11
5.1389422440944879
21
-6.2959739763779528
0
LINE
8
BLACK
6
CONTINUOUS
10
5.1389422440944879
20
-6.2959739763779528
11
5.1393571259842519
21
-6.301507834645669
0
LINE
8
BLACK
6
CONTINUOUS
10
5.1393571259842519
20
-6.301507834645669
11
5.1390781496062994
21
-6.3058319291338583
0
LINE
8
BLACK
6
CONTINUOUS
10
5.1390781496062994
20
-6.3058319291338583
11
5.1382806692913388
21
-6.309629566929134
0
LINE
8
BLACK
6
CONTINUOUS
10
5.1382806692913388
20
-6.309629566929134
11
5.1370048031496065
21
-6.3129779921259841
0
LINE
8
BLACK
6
CONTINUOUS
10
5.1370048031496065
20
-6.3129779921259841
11
5.1352637401574803
21
-6.315941338582677
0
LINE
8
BLACK
6
CONTINUOUS
10
5.1352637401574803
20
-6.315941338582677
11
5.13304311023622
21
-6.3185675590551176
0
LINE
8
BLACK
6
CONTINUOUS
10
5.13304311023622
20
-6.3185675590551176
11
5.1304154330708664
21
-6.3207833070866144
0
LINE
8
BLACK
6
CONTINUOUS
10
5.1304154330708664
20
-6.3207833070866144
11
5.1274457480314961
21
-6.3225221259842517
0
LINE
8
BLACK
6
CONTINUOUS
10
5.1274457480314961
20
-6.3225221259842517
11
5.1240852362204725
21
-6.3237974015748026
0
LINE
8
BLACK
6
CONTINUOUS
10
5.1240852362204725
20
-6.3237974015748026
11
5.1202688976377955
21
-6.3245951181102358
0
LINE
8
BLACK
6
CONTINUOUS
10
5.1202688976377955
20
-6.3245951181102358
11
5.1159184645669287
21
-6.3248743700787404
0
LINE
8
BLACK
6
CONTINUOUS
10
5.1159184645669287
20
-6.3248743700787404
11
5.1116292913385823
21
-6.3246522047244094
0
LINE
8
BLACK
6
CONTINUOUS
10
5.1116292913385823
20
-6.3246522047244094
11
5.1074084251968506
21
-6.3239872834645672
0
LINE
8
BLACK
6
CONTINUOUS
10
5.1074084251968506
20
-6.3239872834645672
11
5.1032671653543309
21
-6.3229036614173229
0
LINE
8
BLACK
6
CONTINUOUS
10
5.1032671653543309
20
-6.3229036614173229
11
5.0992157086614176
21
-6.3214126377952757
0
LINE
8
BLACK
6
CONTINUOUS
10
5.0992157086614176
20
-6.3214126377952757
11
5.0992157086614176
21
-6.3144892125984251
0
LINE
8
BLACK
6
CONTINUOUS
10
5.0992157086614176
20
-6.3144892125984251
11
5.1032196456692915
21
-6.3163205118110231
0
LINE
8
BLACK
6
CONTINUOUS
10
5.1032196456692915
20
-6.3163205118110231
11
5.107184881889764
21
-6.3176047637795278
0
LINE
8
BLACK
6
CONTINUOUS
10
5.107184881889764
20
-6.3176047637795278
11
5.1112486220472437
21
-6.3183816929133858
0
LINE
8
BLACK
6
CONTINUOUS
10
5.1112486220472437
20
-6.3183816929133858
11
5.1154749212598425
21
-6.318643267716535
0
LINE
8
BLACK
6
CONTINUOUS
10
5.1154749212598425
20
-6.318643267716535
11
5.1191478346456689
21
-6.3183592519685039
0
LINE
8
BLACK
6
CONTINUOUS
10
5.1191478346456689
20
-6.3183592519685039
11
5.122225196850394
21
-6.3175605118110232
0
LINE
8
BLACK
6
CONTINUOUS
10
5.122225196850394
20
-6.3175605118110232
11
5.1248130314960632
21
-6.3162962598425194
0
LINE
8
BLACK
6
CONTINUOUS
10
5.1248130314960632
20
-6.3162962598425194
11
5.1269923228346457
21
-6.3145721653543303
0
LINE
8
BLACK
6
CONTINUOUS
10
5.1269923228346457
20
-6.3145721653543303
11
5.128753070866142
21
-6.3124244881889764
0
LINE
8
BLACK
6
CONTINUOUS
10
5.128753070866142
20
-6.3124244881889764
11
5.1301249606299208
21
-6.3097981889763775
0
LINE
8
BLACK
6
CONTINUOUS
10
5.1301249606299208
20
-6.3097981889763775
11
5.1310946062992127
21
-6.3066020472440947
0
LINE
8
BLACK
6
CONTINUOUS
10
5.1310946062992127
20
-6.3066020472440947
11
5.1316115354330707
21
-6.3027194094488186
0
LINE
8
BLACK
6
CONTINUOUS
10
5.1316115354330707
20
-6.3027194094488186
11
5.0974812598425192
21
-6.3027194094488186
0
LINE
8
BLACK
6
CONTINUOUS
10
5.0974812598425192
20
-6.3027194094488186
11
5.0974812598425192
21
-6.2991134645669291
0
LINE
8
BLACK
6
CONTINUOUS
10
5.0974812598425192
20
-6.2991134645669291
11
5.0976405118110231
21
-6.2969498818897636
0
LINE
8
BLACK
6
CONTINUOUS
10
5.0976405118110231
20
-6.2969498818897636
11
5.0978506299212594
21
-6.294094921259842
0
LINE
8
BLACK
6
CONTINUOUS
10
5.0978506299212594
20
-6.294094921259842
11
5.0988920078740154
21
-6.2898521653543309
0
LINE
8
BLACK
6
CONTINUOUS
10
5.0988920078740154
20
-6.2898521653543309
11
5.1005413385826772
21
-6.2862527952755904
0
LINE
8
BLACK
6
CONTINUOUS
10
5.1005413385826772
20
-6.2862527952755904
11
5.1027855905511812
21
-6.2831931889763775
0
LINE
8
BLACK
6
CONTINUOUS
10
5.1027855905511812
20
-6.2831931889763775
11
5.1056237401574798
21
-6.2806666141732279
0
LINE
8
BLACK
6
CONTINUOUS
10
5.1056237401574798
20
-6.2806666141732279
11
5.1089088976377948
21
-6.278853897637795
0
LINE
8
BLACK
6
CONTINUOUS
10
5.1089088976377948
20
-6.278853897637795
11
5.1127292913385824
21
-6.277728897637795
0
LINE
8
BLACK
6
CONTINUOUS
10
5.1127292913385824
20
-6.277728897637795
11
5.1172094094488187
21
-6.277333543307086
0
LINE
8
BLACK
6
CONTINUOUS
10
5.1172094094488187
20
-6.277333543307086
11
5.1212661023622044
21
-6.2776173228346455
0
LINE
8
BLACK
6
CONTINUOUS
10
5.1136319685039373
20
-6.2839897637795277
11
5.1107400393700786
21
-6.2852027559055115
0
LINE
8
BLACK
6
CONTINUOUS
10
5.1107400393700786
20
-6.2852027559055115
11
5.1083135433070863
21
-6.2872066141732281
0
LINE
8
BLACK
6
CONTINUOUS
10
5.1083135433070863
20
-6.2872066141732281
11
5.1065035039370077
21
-6.2898122440944881
0
LINE
8
BLACK
6
CONTINUOUS
10
5.1065035039370077
20
-6.2898122440944881
11
5.1053527559055114
21
-6.2930075196850392
0
LINE
8
BLACK
6
CONTINUOUS
10
5.1053527559055114
20
-6.2930075196850392
11
5.1049059055118109
21
-6.2969498818897636
0
LINE
8
BLACK
6
CONTINUOUS
10
5.1049059055118109
20
-6.2969498818897636
11
5.1313699606299208
21
-6.2969895669291338
0
LINE
8
BLACK
6
CONTINUOUS
10
5.1313699606299208
20
-6.2969895669291338
11
5.1305933464566928
21
-6.2928916141732278
0
LINE
8
BLACK
6
CONTINUOUS
10
5.1305933464566928
20
-6.2928916141732278
11
5.129149212598425
21
-6.2896472440944882
0
LINE
8
BLACK
6
CONTINUOUS
10
5.129149212598425
20
-6.2896472440944882
11
5.1270752755905509
21
-6.2870840157480314
0
LINE
8
BLACK
6
CONTINUOUS
10
5.1270752755905509
20
-6.2870840157480314
11
5.1243951968503936
21
-6.2851722834645667
0
LINE
8
BLACK
6
CONTINUOUS
10
5.1243951968503936
20
-6.2851722834645667
11
5.1211338976377956
21
-6.2839862598425196
0
LINE
8
BLACK
6
CONTINUOUS
10
5.1211338976377956
20
-6.2839862598425196
11
5.117130078740157
21
-6.2835646062992128
0
LINE
8
BLACK
6
CONTINUOUS
10
5.117130078740157
20
-6.2835646062992128
11
5.1136319685039373
21
-6.2839897637795277
0
LINE
8
BLACK
6
CONTINUOUS
10
5.3076528740157478
20
-6.2776142519685036
11
5.3113679133858263
21
-6.2784156692913387
0
LINE
8
BLACK
6
CONTINUOUS
10
5.3113679133858263
20
-6.2784156692913387
11
5.3146311811023619
21
-6.2796970866141733
0
LINE
8
BLACK
6
CONTINUOUS
10
5.3146311811023619
20
-6.2796970866141733
11
5.317508307086614
21
-6.2814462204724411
0
LINE
8
BLACK
6
CONTINUOUS
10
5.317508307086614
20
-6.2814462204724411
11
5.3200475590551184
21
-6.2836799999999995
0
LINE
8
BLACK
6
CONTINUOUS
10
5.3200475590551184
20
-6.2836799999999995
11
5.3226207874015747
21
-6.2870146456692915
0
LINE
8
BLACK
6
CONTINUOUS
10
5.3226207874015747
20
-6.2870146456692915
11
5.3245059448818894
21
-6.2909466535433065
0
LINE
8
BLACK
6
CONTINUOUS
10
5.3245059448818894
20
-6.2909466535433065
11
5.3256946456692908
21
-6.2955925196850391
0
LINE
8
BLACK
6
CONTINUOUS
10
5.3256946456692908
20
-6.2955925196850391
11
5.3261163779527561
21
-6.3011039370078743
0
LINE
8
BLACK
6
CONTINUOUS
10
5.3261163779527561
20
-6.3011039370078743
11
5.325701653543307
21
-6.3065285039370078
0
LINE
8
BLACK
6
CONTINUOUS
10
5.325701653543307
20
-6.3065285039370078
11
5.3245284645669289
21
-6.3111390944881887
0
LINE
8
BLACK
6
CONTINUOUS
10
5.3245284645669289
20
-6.3111390944881887
11
5.3226612204724404
21
-6.3150762992125982
0
LINE
8
BLACK
6
CONTINUOUS
10
5.3226612204724404
20
-6.3150762992125982
11
5.3201052362204724
21
-6.3184485433070865
0
LINE
8
BLACK
6
CONTINUOUS
10
5.3201052362204724
20
-6.3184485433070865
11
5.3175796456692916
21
-6.3207267716535434
0
LINE
8
BLACK
6
CONTINUOUS
10
5.3175796456692916
20
-6.3207267716535434
11
5.3147467716535433
21
-6.322499645669291
0
LINE
8
BLACK
6
CONTINUOUS
10
5.3147467716535433
20
-6.322499645669291
11
5.3115633070866144
21
-6.3237907480314961
0
LINE
8
BLACK
6
CONTINUOUS
10
5.3115633070866144
20
-6.3237907480314961
11
5.3079689370078738
21
-6.3245940551181103
0
LINE
8
BLACK
6
CONTINUOUS
10
5.3079689370078738
20
-6.3245940551181103
11
5.3038892913385824
21
-6.3248743700787404
0
LINE
8
BLACK
6
CONTINUOUS
10
5.3038892913385824
20
-6.3248743700787404
11
5.3001983070866139
21
-6.3246969685039369
0
LINE
8
BLACK
6
CONTINUOUS
10
5.3001983070866139
20
-6.3246969685039369
11
5.2968072047244092
21
-6.3241820078740156
0
LINE
8
BLACK
6
CONTINUOUS
10
5.2968072047244092
20
-6.3241820078740156
11
5.2935348031496066
21
-6.3233165748031492
0
LINE
8
BLACK
6
CONTINUOUS
10
5.2935348031496066
20
-6.3233165748031492
11
5.290374212598425
21
-6.3221049999999996
0
LINE
8
BLACK
6
CONTINUOUS
10
5.290374212598425
20
-6.3221049999999996
11
5.290374212598425
21
-6.3151815748031499
0
LINE
8
BLACK
6
CONTINUOUS
10
5.290374212598425
20
-6.3151815748031499
11
5.2935617322834645
21
-6.3167104330708659
0
LINE
8
BLACK
6
CONTINUOUS
10
5.2935617322834645
20
-6.3167104330708659
11
5.2966882283464569
21
-6.3177778346456694
0
LINE
8
BLACK
6
CONTINUOUS
10
5.2966882283464569
20
-6.3177778346456694
11
5.2998760236220468
21
-6.3184277952755901
0
LINE
8
BLACK
6
CONTINUOUS
10
5.2998760236220468
20
-6.3184277952755901
11
5.3030815748031497
21
-6.318643267716535
0
LINE
8
BLACK
6
CONTINUOUS
10
5.3030815748031497
20
-6.318643267716535
11
5.3066328740157482
21
-6.3183288582677166
0
LINE
8
BLACK
6
CONTINUOUS
10
5.3066328740157482
20
-6.3183288582677166
11
5.3096189763779522
21
-6.3174394094488191
0
LINE
8
BLACK
6
CONTINUOUS
10
5.3096189763779522
20
-6.3174394094488191
11
5.3121479921259844
21
-6.3160140944881888
0
LINE
8
BLACK
6
CONTINUOUS
10
5.3121479921259844
20
-6.3160140944881888
11
5.3142960629921259
21
-6.3140348818897634
0
LINE
8
BLACK
6
CONTINUOUS
10
5.3142960629921259
20
-6.3140348818897634
11
5.3159634251968502
21
-6.311642834645669
0
LINE
8
BLACK
6
CONTINUOUS
10
5.3159634251968502
20
-6.311642834645669
11
5.3172070866141734
21
-6.3087593700787403
0
LINE
8
BLACK
6
CONTINUOUS
10
5.3172070866141734
20
-6.3087593700787403
11
5.3180027952755902
21
-6.3052868110236222
0
LINE
8
BLACK
6
CONTINUOUS
10
5.3180027952755902
20
-6.3052868110236222
11
5.3182878346456688
21
-6.3011039370078743
0
LINE
8
BLACK
6
CONTINUOUS
10
5.3182878346456688
20
-6.3011039370078743
11
5.3180027952755902
21
-6.2969210629921255
0
LINE
8
BLACK
6
CONTINUOUS
10
5.3180027952755902
20
-6.2969210629921255
11
5.3172070866141734
21
-6.2934485039370074
0
LINE
8
BLACK
6
CONTINUOUS
10
5.3172070866141734
20
-6.2934485039370074
11
5.3159634251968502
21
-6.2905650787401575
0
LINE
8
BLACK
6
CONTINUOUS
10
5.3159634251968502
20
-6.2905650787401575
11
5.3142960629921259
21
-6.2881730314960631
0
LINE
8
BLACK
6
CONTINUOUS
10
5.3142960629921259
20
-6.2881730314960631
11
5.3121479921259844
21
-6.2861938188976376
0
LINE
8
BLACK
6
CONTINUOUS
10
5.3121479921259844
20
-6.2861938188976376
11
5.3096189763779522
21
-6.2847685039370074
0
LINE
8
BLACK
6
CONTINUOUS
10
5.3096189763779522
20
-6.2847685039370074
11
5.3066328740157482
21
-6.2838790157480311
0
LINE
8
BLACK
6
CONTINUOUS
10
5.3066328740157482
20
-6.2838790157480311
11
5.3030815748031497
21
-6.2835646062992128
0
LINE
8
BLACK
6
CONTINUOUS
10
5.3030815748031497
20
-6.2835646062992128
11
5.2998760236220468
21
-6.2837801181102364
0
LINE
8
BLACK
6
CONTINUOUS
10
5.2998760236220468
20
-6.2837801181102364
11
5.2966882283464569
21
-6.2844300393700783
0
LINE
8
BLACK
6
CONTINUOUS
10
5.2966882283464569
20
-6.2844300393700783
11
5.2935617322834645
21
-6.2854974409448818
0
LINE
8
BLACK
6
CONTINUOUS
10
5.2935617322834645
20
-6.2854974409448818
11
5.290374212598425
21
-6.2870263385826775
0
LINE
8
BLACK
6
CONTINUOUS
10
5.290374212598425
20
-6.2870263385826775
11
5.290374212598425
21
-6.2801029133858268
0
LINE
8
BLACK
6
CONTINUOUS
10
5.290374212598425
20
-6.2801029133858268
11
5.2934929527559058
21
-6.2788905511811022
0
LINE
8
BLACK
6
CONTINUOUS
10
5.2934929527559058
20
-6.2788905511811022
11
5.2967098818897638
21
-6.2780258661417321
0
LINE
8
BLACK
6
CONTINUOUS
10
5.2967098818897638
20
-6.2780258661417321
11
5.3000068110236223
21
-6.2775077165354327
0
LINE
8
BLACK
6
CONTINUOUS
10
5.3000068110236223
20
-6.2775077165354327
11
5.3034061023622048
21
-6.277333543307086
0
LINE
8
BLACK
6
CONTINUOUS
10
5.3034061023622048
20
-6.277333543307086
11
5.3076528740157478
21
-6.2776142519685036
0
LINE
8
BLACK
6
CONTINUOUS
10
5.3588547637795276
20
-6.2776173228346455
11
5.3624320078740153
21
-6.2784312598425194
0
LINE
8
BLACK
6
CONTINUOUS
10
5.3624320078740153
20
-6.2784312598425194
11
5.3656042913385829
21
-6.2797411417322833
0
LINE
8
BLACK
6
CONTINUOUS
10
5.3656042913385829
20
-6.2797411417322833
11
5.3684315748031493
21
-6.2815431889763778
0
LINE
8
BLACK
6
CONTINUOUS
10
5.3684315748031493
20
-6.2815431889763778
11
5.3709563385826771
21
-6.2838638976377954
0
LINE
8
BLACK
6
CONTINUOUS
10
5.3709563385826771
20
-6.2838638976377954
11
5.3734973622047244
21
-6.2872798031496062
0
LINE
8
BLACK
6
CONTINUOUS
10
5.3734973622047244
20
-6.2872798031496062
11
5.3753588582677168
21
-6.2912792125984254
0
LINE
8
BLACK
6
CONTINUOUS
10
5.3753588582677168
20
-6.2912792125984254
11
5.3765309055118111
21
-6.2959739763779528
0
LINE
8
BLACK
6
CONTINUOUS
10
5.3765309055118111
20
-6.2959739763779528
11
5.3769457874015743
21
-6.301507834645669
0
LINE
8
BLACK
6
CONTINUOUS
10
5.3769457874015743
20
-6.301507834645669
11
5.3766668110236218
21
-6.3058319291338583
0
LINE
8
BLACK
6
CONTINUOUS
10
5.3766668110236218
20
-6.3058319291338583
11
5.3758693700787399
21
-6.309629566929134
0
LINE
8
BLACK
6
CONTINUOUS
10
5.3758693700787399
20
-6.309629566929134
11
5.3745935039370076
21
-6.3129779921259841
0
LINE
8
BLACK
6
CONTINUOUS
10
5.3745935039370076
20
-6.3129779921259841
11
5.3728524015748027
21
-6.315941338582677
0
LINE
8
BLACK
6
CONTINUOUS
10
5.3728524015748027
20
-6.315941338582677
11
5.3706317716535432
21
-6.3185675590551176
0
LINE
8
BLACK
6
CONTINUOUS
10
5.3706317716535432
20
-6.3185675590551176
11
5.3680041338582676
21
-6.3207833070866144
0
LINE
8
BLACK
6
CONTINUOUS
10
5.3680041338582676
20
-6.3207833070866144
11
5.3650344094488185
21
-6.3225221259842517
0
LINE
8
BLACK
6
CONTINUOUS
10
5.3650344094488185
20
-6.3225221259842517
11
5.3616738976377949
21
-6.3237974015748026
0
LINE
8
BLACK
6
CONTINUOUS
10
5.3616738976377949
20
-6.3237974015748026
11
5.3578575984251966
21
-6.3245951181102358
0
LINE
8
BLACK
6
CONTINUOUS
10
5.3578575984251966
20
-6.3245951181102358
11
5.3535071259842519
21
-6.3248743700787404
0
LINE
8
BLACK
6
CONTINUOUS
10
5.3535071259842519
20
-6.3248743700787404
11
5.3492179527559056
21
-6.3246522047244094
0
LINE
8
BLACK
6
CONTINUOUS
10
5.3492179527559056
20
-6.3246522047244094
11
5.3449970866141729
21
-6.3239872834645672
0
LINE
8
BLACK
6
CONTINUOUS
10
5.3449970866141729
20
-6.3239872834645672
11
5.340855866141732
21
-6.3229036614173229
0
LINE
8
BLACK
6
CONTINUOUS
10
5.340855866141732
20
-6.3229036614173229
11
5.3368044094488187
21
-6.3214126377952757
0
LINE
8
BLACK
6
CONTINUOUS
10
5.3368044094488187
20
-6.3214126377952757
11
5.3368044094488187
21
-6.3144892125984251
0
LINE
8
BLACK
6
CONTINUOUS
10
5.3368044094488187
20
-6.3144892125984251
11
5.3408083464566927
21
-6.3163205118110231
0
LINE
8
BLACK
6
CONTINUOUS
10
5.3408083464566927
20
-6.3163205118110231
11
5.3447735433070864
21
-6.3176047637795278
0
LINE
8
BLACK
6
CONTINUOUS
10
5.3447735433070864
20
-6.3176047637795278
11
5.348837283464567
21
-6.3183816929133858
0
LINE
8
BLACK
6
CONTINUOUS
10
5.348837283464567
20
-6.3183816929133858
11
5.3530636220472436
21
-6.318643267716535
0
LINE
8
BLACK
6
CONTINUOUS
10
5.3530636220472436
20
-6.318643267716535
11
5.3567365354330709
21
-6.3183592519685039
0
LINE
8
BLACK
6
CONTINUOUS
10
5.3567365354330709
20
-6.3183592519685039
11
5.3598138582677164
21
-6.3175605118110232
0
LINE
8
BLACK
6
CONTINUOUS
10
5.3598138582677164
20
-6.3175605118110232
11
5.3624016929133855
21
-6.3162962598425194
0
LINE
8
BLACK
6
CONTINUOUS
10
5.3624016929133855
20
-6.3162962598425194
11
5.3645810236220468
21
-6.3145721653543303
0
LINE
8
BLACK
6
CONTINUOUS
10
5.3645810236220468
20
-6.3145721653543303
11
5.3663417322834643
21
-6.3124244881889764
0
LINE
8
BLACK
6
CONTINUOUS
10
5.3663417322834643
20
-6.3124244881889764
11
5.3677136614173229
21
-6.3097981889763775
0
LINE
8
BLACK
6
CONTINUOUS
10
5.3677136614173229
20
-6.3097981889763775
11
5.368683267716535
21
-6.3066020472440947
0
LINE
8
BLACK
6
CONTINUOUS
10
5.368683267716535
20
-6.3066020472440947
11
5.3692002362204727
21
-6.3027194094488186
0
LINE
8
BLACK
6
CONTINUOUS
10
5.3692002362204727
20
-6.3027194094488186
11
5.3350699212598425
21
-6.3027194094488186
0
LINE
8
BLACK
6
CONTINUOUS
10
5.3350699212598425
20
-6.3027194094488186
11
5.3350699212598425
21
-6.2991134645669291
0
LINE
8
BLACK
6
CONTINUOUS
10
5.3350699212598425
20
-6.2991134645669291
11
5.3352291732283463
21
-6.2969498818897636
0
LINE
8
BLACK
6
CONTINUOUS
10
5.3352291732283463
20
-6.2969498818897636
11
5.3354392913385826
21
-6.294094921259842
0
LINE
8
BLACK
6
CONTINUOUS
10
5.3354392913385826
20
-6.294094921259842
11
5.3364806692913387
21
-6.2898521653543309
0
LINE
8
BLACK
6
CONTINUOUS
10
5.3364806692913387
20
-6.2898521653543309
11
5.3381300393700784
21
-6.2862527952755904
0
LINE
8
BLACK
6
CONTINUOUS
10
5.3381300393700784
20
-6.2862527952755904
11
5.3403742913385823
21
-6.2831931889763775
0
LINE
8
BLACK
6
CONTINUOUS
10
5.3403742913385823
20
-6.2831931889763775
11
5.3432124409448818
21
-6.2806666141732279
0
LINE
8
BLACK
6
CONTINUOUS
10
5.3432124409448818
20
-6.2806666141732279
11
5.346497559055118
21
-6.278853897637795
0
LINE
8
BLACK
6
CONTINUOUS
10
5.346497559055118
20
-6.278853897637795
11
5.3503179527559057
21
-6.277728897637795
0
LINE
8
BLACK
6
CONTINUOUS
10
5.3503179527559057
20
-6.277728897637795
11
5.354798070866142
21
-6.277333543307086
0
LINE
8
BLACK
6
CONTINUOUS
10
5.354798070866142
20
-6.277333543307086
11
5.3588547637795276
21
-6.2776173228346455
0
LINE
8
BLACK
6
CONTINUOUS
10
5.3512206692913384
20
-6.2839897637795277
11
5.3483287401574806
21
-6.2852027559055115
0
LINE
8
BLACK
6
CONTINUOUS
10
5.3483287401574806
20
-6.2852027559055115
11
5.3459022047244096
21
-6.2872066141732281
0
LINE
8
BLACK
6
CONTINUOUS
10
5.3459022047244096
20
-6.2872066141732281
11
5.344092165354331
21
-6.2898122440944881
0
LINE
8
BLACK
6
CONTINUOUS
10
5.344092165354331
20
-6.2898122440944881
11
5.3429414173228347
21
-6.2930075196850392
0
LINE
8
BLACK
6
CONTINUOUS
10
5.3429414173228347
20
-6.2930075196850392
11
5.3424945669291342
21
-6.2969498818897636
0
LINE
8
BLACK
6
CONTINUOUS
10
5.3424945669291342
20
-6.2969498818897636
11
5.3689586220472441
21
-6.2969895669291338
0
LINE
8
BLACK
6
CONTINUOUS
10
5.3689586220472441
20
-6.2969895669291338
11
5.3681820078740152
21
-6.2928916141732278
0
LINE
8
BLACK
6
CONTINUOUS
10
5.3681820078740152
20
-6.2928916141732278
11
5.3667378740157483
21
-6.2896472440944882
0
LINE
8
BLACK
6
CONTINUOUS
10
5.3667378740157483
20
-6.2896472440944882
11
5.3646639370078741
21
-6.2870840157480314
0
LINE
8
BLACK
6
CONTINUOUS
10
5.3646639370078741
20
-6.2870840157480314
11
5.3619838582677168
21
-6.2851722834645667
0
LINE
8
BLACK
6
CONTINUOUS
10
5.3619838582677168
20
-6.2851722834645667
11
5.3587225984251967
21
-6.2839862598425196
0
LINE
8
BLACK
6
CONTINUOUS
10
5.3587225984251967
20
-6.2839862598425196
11
5.3547187401574803
21
-6.2835646062992128
0
LINE
8
BLACK
6
CONTINUOUS
10
5.3547187401574803
20
-6.2835646062992128
11
5.3512206692913384
21
-6.2839897637795277
0
LINE
8
BLACK
6
CONTINUOUS
10
5.4326468897637792
20
-6.2776173228346455
11
5.4362241338582677
21
-6.2784312598425194
0
LINE
8
BLACK
6
CONTINUOUS
10
5.4362241338582677
20
-6.2784312598425194
11
5.4393963779527557
21
-6.2797411417322833
0
LINE
8
BLACK
6
CONTINUOUS
10
5.4393963779527557
20
-6.2797411417322833
11
5.4422236614173229
21
-6.2815431889763778
0
LINE
8
BLACK
6
CONTINUOUS
10
5.4422236614173229
20
-6.2815431889763778
11
5.4447484251968499
21
-6.2838638976377954
0
LINE
8
BLACK
6
CONTINUOUS
10
5.4447484251968499
20
-6.2838638976377954
11
5.447289488188976
21
-6.2872798031496062
0
LINE
8
BLACK
6
CONTINUOUS
10
5.447289488188976
20
-6.2872798031496062
11
5.4491509842519683
21
-6.2912792125984254
0
LINE
8
BLACK
6
CONTINUOUS
10
5.4491509842519683
20
-6.2912792125984254
11
5.4503230314960627
21
-6.2959739763779528
0
LINE
8
BLACK
6
CONTINUOUS
10
5.4503230314960627
20
-6.2959739763779528
11
5.4507379133858267
21
-6.301507834645669
0
LINE
8
BLACK
6
CONTINUOUS
10
5.4507379133858267
20
-6.301507834645669
11
5.4504589370078742
21
-6.3058319291338583
0
LINE
8
BLACK
6
CONTINUOUS
10
5.4504589370078742
20
-6.3058319291338583
11
5.4496614566929136
21
-6.309629566929134
0
LINE
8
BLACK
6
CONTINUOUS
10
5.4496614566929136
20
-6.309629566929134
11
5.4483855905511813
21
-6.3129779921259841
0
LINE
8
BLACK
6
CONTINUOUS
10
5.4483855905511813
20
-6.3129779921259841
11
5.4466444881889764
21
-6.315941338582677
0
LINE
8
BLACK
6
CONTINUOUS
10
5.4466444881889764
20
-6.315941338582677
11
5.4444238976377948
21
-6.3185675590551176
0
LINE
8
BLACK
6
CONTINUOUS
10
5.4444238976377948
20
-6.3185675590551176
11
5.4417962204724404
21
-6.3207833070866144
0
LINE
8
BLACK
6
CONTINUOUS
10
5.4417962204724404
20
-6.3207833070866144
11
5.4388265354330709
21
-6.3225221259842517
0
LINE
8
BLACK
6
CONTINUOUS
10
5.4388265354330709
20
-6.3225221259842517
11
5.4354660236220473
21
-6.3237974015748026
0
LINE
8
BLACK
6
CONTINUOUS
10
5.4354660236220473
20
-6.3237974015748026
11
5.4316496850393703
21
-6.3245951181102358
0
LINE
8
BLACK
6
CONTINUOUS
10
5.4316496850393703
20
-6.3245951181102358
11
5.4272992519685035
21
-6.3248743700787404
0
LINE
8
BLACK
6
CONTINUOUS
10
5.4272992519685035
20
-6.3248743700787404
11
5.4230100787401572
21
-6.3246522047244094
0
LINE
8
BLACK
6
CONTINUOUS
10
5.4230100787401572
20
-6.3246522047244094
11
5.4187892125984254
21
-6.3239872834645672
0
LINE
8
BLACK
6
CONTINUOUS
10
5.4187892125984254
20
-6.3239872834645672
11
5.4146479527559057
21
-6.3229036614173229
0
LINE
8
BLACK
6
CONTINUOUS
10
5.4146479527559057
20
-6.3229036614173229
11
5.4105964960629924
21
-6.3214126377952757
0
LINE
8
BLACK
6
CONTINUOUS
10
5.4105964960629924
20
-6.3214126377952757
11
5.4105964960629924
21
-6.3144892125984251
0
LINE
8
BLACK
6
CONTINUOUS
10
5.4105964960629924
20
-6.3144892125984251
11
5.4146004330708664
21
-6.3163205118110231
0
LINE
8
BLACK
6
CONTINUOUS
10
5.4146004330708664
20
-6.3163205118110231
11
5.4185656299212601
21
-6.3176047637795278
0
LINE
8
BLACK
6
CONTINUOUS
10
5.4185656299212601
20
-6.3176047637795278
11
5.4226294094488185
21
-6.3183816929133858
0
LINE
8
BLACK
6
CONTINUOUS
10
5.4226294094488185
20
-6.3183816929133858
11
5.4268557086614173
21
-6.318643267716535
0
LINE
8
BLACK
6
CONTINUOUS
10
5.4268557086614173
20
-6.318643267716535
11
5.4305286220472437
21
-6.3183592519685039
0
LINE
8
BLACK
6
CONTINUOUS
10
5.4305286220472437
20
-6.3183592519685039
11
5.4336059842519679
21
-6.3175605118110232
0
LINE
8
BLACK
6
CONTINUOUS
10
5.4336059842519679
20
-6.3175605118110232
11
5.436193818897638
21
-6.3162962598425194
0
LINE
8
BLACK
6
CONTINUOUS
10
5.436193818897638
20
-6.3162962598425194
11
5.4383731102362205
21
-6.3145721653543303
0
LINE
8
BLACK
6
CONTINUOUS
10
5.4383731102362205
20
-6.3145721653543303
11
5.4401338582677168
21
-6.3124244881889764
0
LINE
8
BLACK
6
CONTINUOUS
10
5.4401338582677168
20
-6.3124244881889764
11
5.4415057480314957
21
-6.3097981889763775
0
LINE
8
BLACK
6
CONTINUOUS
10
5.4415057480314957
20
-6.3097981889763775
11
5.4424753543307087
21
-6.3066020472440947
0
LINE
8
BLACK
6
CONTINUOUS
10
5.4424753543307087
20
-6.3066020472440947
11
5.4429923228346455
21
-6.3027194094488186
0
LINE
8
BLACK
6
CONTINUOUS
10
5.4429923228346455
20
-6.3027194094488186
11
5.408862047244094
21
-6.3027194094488186
0
LINE
8
BLACK
6
CONTINUOUS
10
5.408862047244094
20
-6.3027194094488186
11
5.408862047244094
21
-6.2991134645669291
0
LINE
8
BLACK
6
CONTINUOUS
10
5.408862047244094
20
-6.2991134645669291
11
5.4090212992125979
21
-6.2969498818897636
0
LINE
8
BLACK
6
CONTINUOUS
10
5.4090212992125979
20
-6.2969498818897636
11
5.4092314173228342
21
-6.294094921259842
0
LINE
8
BLACK
6
CONTINUOUS
10
5.4092314173228342
20
-6.294094921259842
11
5.4102727952755902
21
-6.2898521653543309
0
LINE
8
BLACK
6
CONTINUOUS
10
5.4102727952755902
20
-6.2898521653543309
11
5.411922125984252
21
-6.2862527952755904
0
LINE
8
BLACK
6
CONTINUOUS
10
5.411922125984252
20
-6.2862527952755904
11
5.414166377952756
21
-6.2831931889763775
0
LINE
8
BLACK
6
CONTINUOUS
10
5.414166377952756
20
-6.2831931889763775
11
5.4170045275590546
21
-6.2806666141732279
0
LINE
8
BLACK
6
CONTINUOUS
10
5.4170045275590546
20
-6.2806666141732279
11
5.4202896850393696
21
-6.278853897637795
0
LINE
8
BLACK
6
CONTINUOUS
10
5.4202896850393696
20
-6.278853897637795
11
5.4241100787401573
21
-6.277728897637795
0
LINE
8
BLACK
6
CONTINUOUS
10
5.4241100787401573
20
-6.277728897637795
11
5.4285901968503936
21
-6.277333543307086
0
LINE
8
BLACK
6
CONTINUOUS
10
5.4285901968503936
20
-6.277333543307086
11
5.4326468897637792
21
-6.2776173228346455
0
LINE
8
BLACK
6
CONTINUOUS
10
5.4250127559055121
20
-6.2839897637795277
11
5.4221208267716534
21
-6.2852027559055115
0
LINE
8
BLACK
6
CONTINUOUS
10
5.4221208267716534
20
-6.2852027559055115
11
5.4196942913385824
21
-6.2872066141732281
0
LINE
8
BLACK
6
CONTINUOUS
10
5.4196942913385824
20
-6.2872066141732281
11
5.4178842913385825
21
-6.2898122440944881
0
LINE
8
BLACK
6
CONTINUOUS
10
5.4178842913385825
20
-6.2898122440944881
11
5.4167335433070862
21
-6.2930075196850392
0
LINE
8
BLACK
6
CONTINUOUS
10
5.4167335433070862
20
-6.2930075196850392
11
5.4162866929133857
21
-6.2969498818897636
0
LINE
8
BLACK
6
CONTINUOUS
10
5.4162866929133857
20
-6.2969498818897636
11
5.4427507480314956
21
-6.2969895669291338
0
LINE
8
BLACK
6
CONTINUOUS
10
5.4427507480314956
20
-6.2969895669291338
11
5.4419741338582677
21
-6.2928916141732278
0
LINE
8
BLACK
6
CONTINUOUS
10
5.4419741338582677
20
-6.2928916141732278
11
5.4405299999999999
21
-6.2896472440944882
0
LINE
8
BLACK
6
CONTINUOUS
10
5.4405299999999999
20
-6.2896472440944882
11
5.4384560629921257
21
-6.2870840157480314
0
LINE
8
BLACK
6
CONTINUOUS
10
5.4384560629921257
20
-6.2870840157480314
11
5.4357759842519684
21
-6.2851722834645667
0
LINE
8
BLACK
6
CONTINUOUS
10
5.4357759842519684
20
-6.2851722834645667
11
5.4325146850393695
21
-6.2839862598425196
0
LINE
8
BLACK
6
CONTINUOUS
10
5.4325146850393695
20
-6.2839862598425196
11
5.4285108661417318
21
-6.2835646062992128
0
LINE
8
BLACK
6
CONTINUOUS
10
5.4285108661417318
20
-6.2835646062992128
11
5.4250127559055121
21
-6.2839897637795277
0
LINE
8
BLACK
6
CONTINUOUS
10
5.5936108267716538
20
-6.2777606692913386
11
5.5976550787401571
21
-6.2789729921259845
0
LINE
8
BLACK
6
CONTINUOUS
10
5.5976550787401571
20
-6.2789729921259845
11
5.6011075590551176
21
-6.2809231102362206
0
LINE
8
BLACK
6
CONTINUOUS
10
5.6011075590551176
20
-6.2809231102362206
11
5.6040664173228345
21
-6.2836403543307089
0
LINE
8
BLACK
6
CONTINUOUS
10
5.6040664173228345
20
-6.2836403543307089
11
5.6063766535433066
21
-6.2869191338582677
0
LINE
8
BLACK
6
CONTINUOUS
10
5.6063766535433066
20
-6.2869191338582677
11
5.6080911811023624
21
-6.2908345669291341
0
LINE
8
BLACK
6
CONTINUOUS
10
5.6080911811023624
20
-6.2908345669291341
11
5.6091829921259837
21
-6.2955110629921256
0
LINE
8
BLACK
6
CONTINUOUS
10
5.6091829921259837
20
-6.2955110629921256
11
5.609572677165354
21
-6.3011039370078743
0
LINE
8
BLACK
6
CONTINUOUS
10
5.609572677165354
20
-6.3011039370078743
11
5.6091838582677163
21
-6.3066743307086615
0
LINE
8
BLACK
6
CONTINUOUS
10
5.6091838582677163
20
-6.3066743307086615
11
5.6080933070866141
21
-6.3113421653543309
0
LINE
8
BLACK
6
CONTINUOUS
10
5.6080933070866141
20
-6.3113421653543309
11
5.6063788976377955
21
-6.3152599212598428
0
LINE
8
BLACK
6
CONTINUOUS
10
5.6063788976377955
20
-6.3152599212598428
11
5.6040664173228345
21
-6.3185495275590551
0
LINE
8
BLACK
6
CONTINUOUS
10
5.6040664173228345
20
-6.3185495275590551
11
5.6011064173228347
21
-6.3212753543307088
0
LINE
8
BLACK
6
CONTINUOUS
10
5.6011064173228347
20
-6.3212753543307088
11
5.5976535039370079
21
-6.3232308661417322
0
LINE
8
BLACK
6
CONTINUOUS
10
5.5976535039370079
20
-6.3232308661417322
11
5.5936096456692912
21
-6.32444625984252
0
LINE
8
BLACK
6
CONTINUOUS
10
5.5936096456692912
20
-6.32444625984252
11
5.5888348818897633
21
-6.3248743700787404
0
LINE
8
BLACK
6
CONTINUOUS
10
5.5888348818897633
20
-6.3248743700787404
11
5.5840837401574799
21
-6.3244472440944879
0
LINE
8
BLACK
6
CONTINUOUS
10
5.5840837401574799
20
-6.3244472440944879
11
5.5800503937007875
21
-6.3232334251968503
0
LINE
8
BLACK
6
CONTINUOUS
10
5.5800503937007875
20
-6.3232334251968503
11
5.5765974015748032
21
-6.321278031496063
0
LINE
8
BLACK
6
CONTINUOUS
10
5.5765974015748032
20
-6.321278031496063
11
5.5736286220472442
21
-6.3185495275590551
0
LINE
8
BLACK
6
CONTINUOUS
10
5.5736286220472442
20
-6.3185495275590551
11
5.5713062598425198
21
-6.3152585039370077
0
LINE
8
BLACK
6
CONTINUOUS
10
5.5713062598425198
20
-6.3152585039370077
11
5.5695852362204725
21
-6.3113402755905508
0
LINE
8
BLACK
6
CONTINUOUS
10
5.5695852362204725
20
-6.3113402755905508
11
5.5684908661417323
21
-6.3066729133858264
0
LINE
8
BLACK
6
CONTINUOUS
10
5.5684908661417323
20
-6.3066729133858264
11
5.5681006692913382
21
-6.3011039370078743
0
LINE
8
BLACK
6
CONTINUOUS
10
5.5681006692913382
20
-6.3011039370078743
11
5.5684916929133861
21
-6.2955124803149607
0
LINE
8
BLACK
6
CONTINUOUS
10
5.5684916929133861
20
-6.2955124803149607
11
5.569587401574803
21
-6.2908364960629921
0
LINE
8
BLACK
6
CONTINUOUS
10
5.569587401574803
20
-6.2908364960629921
11
5.5713085039370078
21
-6.2869205118110232
0
LINE
8
BLACK
6
CONTINUOUS
10
5.5713085039370078
20
-6.2869205118110232
11
5.5736286220472442
21
-6.2836403543307089
0
LINE
8
BLACK
6
CONTINUOUS
10
5.5736286220472442
20
-6.2836403543307089
11
5.5765962598425194
21
-6.2809204724409451
0
LINE
8
BLACK
6
CONTINUOUS
10
5.5765962598425194
20
-6.2809204724409451
11
5.5800488188976374
21
-6.2789704724409443
0
LINE
8
BLACK
6
CONTINUOUS
10
5.5800488188976374
20
-6.2789704724409443
11
5.5840825590551182
21
-6.277759645669291
0
LINE
8
BLACK
6
CONTINUOUS
10
5.5840825590551182
20
-6.277759645669291
11
5.5888348818897633
21
-6.277333543307086
0
LINE
8
BLACK
6
CONTINUOUS
10
5.5888348818897633
20
-6.277333543307086
11
5.5936108267716538
21
-6.2777606692913386
0
LINE
8
BLACK
6
CONTINUOUS
10
5.5859814960629919
20
-6.2838699606299215
11
5.5835149606299215
21
-6.2847506692913386
0
LINE
8
BLACK
6
CONTINUOUS
10
5.5835149606299215
20
-6.2847506692913386
11
5.5813505905511809
21
-6.2862044488188973
0
LINE
8
BLACK
6
CONTINUOUS
10
5.5813505905511809
20
-6.2862044488188973
11
5.5794377952755907
21
-6.2882956299212598
0
LINE
8
BLACK
6
CONTINUOUS
10
5.5794377952755907
20
-6.2882956299212598
11
5.5779931889763779
21
-6.2907146850393696
0
LINE
8
BLACK
6
CONTINUOUS
10
5.5779931889763779
20
-6.2907146850393696
11
5.5769098818897636
21
-6.2935959055118111
0
LINE
8
BLACK
6
CONTINUOUS
10
5.5769098818897636
20
-6.2935959055118111
11
5.5762165354330708
21
-6.2970249606299209
0
LINE
8
BLACK
6
CONTINUOUS
10
5.5762165354330708
20
-6.2970249606299209
11
5.575968858267716
21
-6.3011039370078743
0
LINE
8
BLACK
6
CONTINUOUS
10
5.575968858267716
20
-6.3011039370078743
11
5.5762172440944884
21
-6.30520562992126
0
LINE
8
BLACK
6
CONTINUOUS
10
5.5762172440944884
20
-6.30520562992126
11
5.576911732283464
21
-6.308644094488189
0
LINE
8
BLACK
6
CONTINUOUS
10
5.576911732283464
20
-6.308644094488189
11
5.5779951574803146
21
-6.3115241732283467
0
LINE
8
BLACK
6
CONTINUOUS
10
5.5779951574803146
20
-6.3115241732283467
11
5.5794377952755907
21
-6.3139338976377948
0
LINE
8
BLACK
6
CONTINUOUS
10
5.5794377952755907
20
-6.3139338976377948
11
5.5813492519685042
21
-6.3160143307086614
0
LINE
8
BLACK
6
CONTINUOUS
10
5.5813492519685042
20
-6.3160143307086614
11
5.5835131102362201
21
-6.317461692913386
0
LINE
8
BLACK
6
CONTINUOUS
10
5.5835131102362201
20
-6.317461692913386
11
5.5859801181102364
21
-6.3183390157480313
0
LINE
8
BLACK
6
CONTINUOUS
10
5.5859801181102364
20
-6.3183390157480313
11
5.5888348818897633
21
-6.318643267716535
0
LINE
8
BLACK
6
CONTINUOUS
10
5.5888348818897633
20
-6.318643267716535
11
5.5917352755905512
21
-6.3183381889763774
0
LINE
8
BLACK
6
CONTINUOUS
10
5.5917352755905512
20
-6.3183381889763774
11
5.5942262598425199
21
-6.3174612598425197
0
LINE
8
BLACK
6
CONTINUOUS
10
5.5942262598425199
20
-6.3174612598425197
11
5.5963956692913381
21
-6.3160199212598425
0
LINE
8
BLACK
6
CONTINUOUS
10
5.5963956692913381
20
-6.3160199212598425
11
5.5982968897637795
21
-6.3139555511811025
0
LINE
8
BLACK
6
CONTINUOUS
10
5.5982968897637795
20
-6.3139555511811025
11
5.599727952755905
21
-6.311556496062992
0
LINE
8
BLACK
6
CONTINUOUS
10
5.599727952755905
20
-6.311556496062992
11
5.6008048425196852
21
-6.3086780708661419
0
LINE
8
BLACK
6
CONTINUOUS
10
5.6008048425196852
20
-6.3086780708661419
11
5.6014964566929129
21
-6.3052297637795274
0
LINE
8
BLACK
6
CONTINUOUS
10
5.6014964566929129
20
-6.3052297637795274
11
5.6017441732283464
21
-6.3011039370078743
0
LINE
8
BLACK
6
CONTINUOUS
10
5.6017441732283464
20
-6.3011039370078743
11
5.6014949999999999
21
-6.2969793700787404
0
LINE
8
BLACK
6
CONTINUOUS
10
5.6014949999999999
20
-6.2969793700787404
11
5.6007993307086616
21
-6.2935322440944876
0
LINE
8
BLACK
6
CONTINUOUS
10
5.6007993307086616
20
-6.2935322440944876
11
5.5997158267716536
21
-6.2906546062992126
0
LINE
8
BLACK
6
CONTINUOUS
10
5.5997158267716536
20
-6.2906546062992126
11
5.5982752362204726
21
-6.2882559448818895
0
LINE
8
BLACK
6
CONTINUOUS
10
5.5982752362204726
20
-6.2882559448818895
11
5.5963651181102358
21
-6.2861869685039364
0
LINE
8
BLACK
6
CONTINUOUS
10
5.5963651181102358
20
-6.2861869685039364
11
5.59419531496063
21
-6.2847447244094488
0
LINE
8
BLACK
6
CONTINUOUS
10
5.59419531496063
20
-6.2847447244094488
11
5.5917138582677168
21
-6.2838688188976377
0
LINE
8
BLACK
6
CONTINUOUS
10
5.5917138582677168
20
-6.2838688188976377
11
5.5888348818897633
21
-6.2835646062992128
0
LINE
8
BLACK
6
CONTINUOUS
10
5.5888348818897633
20
-6.2835646062992128
11
5.5859814960629919
21
-6.2838699606299215
0
LINE
8
BLACK
6
CONTINUOUS
10
5.6365152755905514
20
-6.2776142519685036
11
5.6402303543307086
21
-6.2784156692913387
0
LINE
8
BLACK
6
CONTINUOUS
10
5.6402303543307086
20
-6.2784156692913387
11
5.6434936220472443
21
-6.2796970866141733
0
LINE
8
BLACK
6
CONTINUOUS
10
5.6434936220472443
20
-6.2796970866141733
11
5.6463707480314955
21
-6.2814462204724411
0
LINE
8
BLACK
6
CONTINUOUS
10
5.6463707480314955
20
-6.2814462204724411
11
5.6489099606299211
21
-6.2836799999999995
0
LINE
8
BLACK
6
CONTINUOUS
10
5.6489099606299211
20
-6.2836799999999995
11
5.6514831889763775
21
-6.2870146456692915
0
LINE
8
BLACK
6
CONTINUOUS
10
5.6514831889763775
20
-6.2870146456692915
11
5.6533683464566931
21
-6.2909466535433065
0
LINE
8
BLACK
6
CONTINUOUS
10
5.6533683464566931
20
-6.2909466535433065
11
5.6545570866141732
21
-6.2955925196850391
0
LINE
8
BLACK
6
CONTINUOUS
10
5.6545570866141732
20
-6.2955925196850391
11
5.6549787795275588
21
-6.3011039370078743
0
LINE
8
BLACK
6
CONTINUOUS
10
5.6549787795275588
20
-6.3011039370078743
11
5.6545640551181098
21
-6.3065285039370078
0
LINE
8
BLACK
6
CONTINUOUS
10
5.6545640551181098
20
-6.3065285039370078
11
5.6533908661417325
21
-6.3111390944881887
0
LINE
8
BLACK
6
CONTINUOUS
10
5.6533908661417325
20
-6.3111390944881887
11
5.651523622047244
21
-6.3150762992125982
0
LINE
8
BLACK
6
CONTINUOUS
10
5.651523622047244
20
-6.3150762992125982
11
5.6489676771653539
21
-6.3184485433070865
0
LINE
8
BLACK
6
CONTINUOUS
10
5.6489676771653539
20
-6.3184485433070865
11
5.6464420866141731
21
-6.3207267716535434
0
LINE
8
BLACK
6
CONTINUOUS
10
5.6464420866141731
20
-6.3207267716535434
11
5.643609173228346
21
-6.322499645669291
0
LINE
8
BLACK
6
CONTINUOUS
10
5.643609173228346
20
-6.322499645669291
11
5.6404257480314959
21
-6.3237907480314961
0
LINE
8
BLACK
6
CONTINUOUS
10
5.6404257480314959
20
-6.3237907480314961
11
5.6368313385826774
21
-6.3245940551181103
0
LINE
8
BLACK
6
CONTINUOUS
10
5.6368313385826774
20
-6.3245940551181103
11
5.6327517322834648
21
-6.3248743700787404
0
LINE
8
BLACK
6
CONTINUOUS
10
5.6327517322834648
20
-6.3248743700787404
11
5.6290607086614175
21
-6.3246969685039369
0
LINE
8
BLACK
6
CONTINUOUS
10
5.6290607086614175
20
-6.3246969685039369
11
5.6256696456692916
21
-6.3241820078740156
0
LINE
8
BLACK
6
CONTINUOUS
10
5.6256696456692916
20
-6.3241820078740156
11
5.622397244094488
21
-6.3233165748031492
0
LINE
8
BLACK
6
CONTINUOUS
10
5.622397244094488
20
-6.3233165748031492
11
5.6192366141732286
21
-6.3221049999999996
0
LINE
8
BLACK
6
CONTINUOUS
10
5.6192366141732286
20
-6.3221049999999996
11
5.6192366141732286
21
-6.3151815748031499
0
LINE
8
BLACK
6
CONTINUOUS
10
5.6192366141732286
20
-6.3151815748031499
11
5.622424173228346
21
-6.3167104330708659
0
LINE
8
BLACK
6
CONTINUOUS
10
5.622424173228346
20
-6.3167104330708659
11
5.6255506299212596
21
-6.3177778346456694
0
LINE
8
BLACK
6
CONTINUOUS
10
5.6255506299212596
20
-6.3177778346456694
11
5.6287384645669292
21
-6.3184277952755901
0
LINE
8
BLACK
6
CONTINUOUS
10
5.6287384645669292
20
-6.3184277952755901
11
5.6319439763779524
21
-6.318643267716535
0
LINE
8
BLACK
6
CONTINUOUS
10
5.6319439763779524
20
-6.318643267716535
11
5.635495275590551
21
-6.3183288582677166
0
LINE
8
BLACK
6
CONTINUOUS
10
5.635495275590551
20
-6.3183288582677166
11
5.6384813779527558
21
-6.3174394094488191
0
LINE
8
BLACK
6
CONTINUOUS
10
5.6384813779527558
20
-6.3174394094488191
11
5.6410103937007872
21
-6.3160140944881888
0
LINE
8
BLACK
6
CONTINUOUS
10
5.6410103937007872
20
-6.3160140944881888
11
5.6431585039370074
21
-6.3140348818897634
0
LINE
8
BLACK
6
CONTINUOUS
10
5.6431585039370074
20
-6.3140348818897634
11
5.6448258267716538
21
-6.311642834645669
0
LINE
8
BLACK
6
CONTINUOUS
10
5.6448258267716538
20
-6.311642834645669
11
5.6460694881889761
21
-6.3087593700787403
0
LINE
8
BLACK
6
CONTINUOUS
10
5.6460694881889761
20
-6.3087593700787403
11
5.6468651968503938
21
-6.3052868110236222
0
LINE
8
BLACK
6
CONTINUOUS
10
5.6468651968503938
20
-6.3052868110236222
11
5.6471502755905512
21
-6.3011039370078743
0
LINE
8
BLACK
6
CONTINUOUS
10
5.6471502755905512
20
-6.3011039370078743
11
5.6468651968503938
21
-6.2969210629921255
0
LINE
8
BLACK
6
CONTINUOUS
10
5.6468651968503938
20
-6.2969210629921255
11
5.6460694881889761
21
-6.2934485039370074
0
LINE
8
BLACK
6
CONTINUOUS
10
5.6460694881889761
20
-6.2934485039370074
11
5.6448258267716538
21
-6.2905650787401575
0
LINE
8
BLACK
6
CONTINUOUS
10
5.6448258267716538
20
-6.2905650787401575
11
5.6431585039370074
21
-6.2881730314960631
0
LINE
8
BLACK
6
CONTINUOUS
10
5.6431585039370074
20
-6.2881730314960631
11
5.6410103937007872
21
-6.2861938188976376
0
LINE
8
BLACK
6
CONTINUOUS
10
5.6410103937007872
20
-6.2861938188976376
11
5.6384813779527558
21
-6.2847685039370074
0
LINE
8
BLACK
6
CONTINUOUS
10
5.6384813779527558
20
-6.2847685039370074
11
5.635495275590551
21
-6.2838790157480311
0
LINE
8
BLACK
6
CONTINUOUS
10
5.635495275590551
20
-6.2838790157480311
11
5.6319439763779524
21
-6.2835646062992128
0
LINE
8
BLACK
6
CONTINUOUS
10
5.6319439763779524
20
-6.2835646062992128
11
5.6287384645669292
21
-6.2837801181102364
0
LINE
8
BLACK
6
CONTINUOUS
10
5.6287384645669292
20
-6.2837801181102364
11
5.6255506299212596
21
-6.2844300393700783
0
LINE
8
BLACK
6
CONTINUOUS
10
5.6255506299212596
20
-6.2844300393700783
11
5.622424173228346
21
-6.2854974409448818
0
LINE
8
BLACK
6
CONTINUOUS
10
5.622424173228346
20
-6.2854974409448818
11
5.6192366141732286
21
-6.2870263385826775
0
LINE
8
BLACK
6
CONTINUOUS
10
5.6192366141732286
20
-6.2870263385826775
11
5.6192366141732286
21
-6.2801029133858268
0
LINE
8
BLACK
6
CONTINUOUS
10
5.6192366141732286
20
-6.2801029133858268
11
5.6223553543307085
21
-6.2788905511811022
0
LINE
8
BLACK
6
CONTINUOUS
10
5.6223553543307085
20
-6.2788905511811022
11
5.6255722834645665
21
-6.2780258661417321
0
LINE
8
BLACK
6
CONTINUOUS
10
5.6255722834645665
20
-6.2780258661417321
11
5.628869212598425
21
-6.2775077165354327
0
LINE
8
BLACK
6
CONTINUOUS
10
5.628869212598425
20
-6.2775077165354327
11
5.6322685039370075
21
-6.277333543307086
0
LINE
8
BLACK
6
CONTINUOUS
10
5.6322685039370075
20
-6.277333543307086
11
5.6365152755905514
21
-6.2776142519685036
0
LINE
8
BLACK
6
CONTINUOUS
10
5.730728937007874
20
-6.3237204724409448
11
5.7232646062992121
21
-6.3237204724409448
0
LINE
8
BLACK
6
CONTINUOUS
10
5.7232646062992121
20
-6.3237204724409448
11
5.7232646062992121
21
-6.3170277952755907
0
LINE
8
BLACK
6
CONTINUOUS
10
5.7232646062992121
20
-6.3170277952755907
11
5.7215232677165355
21
-6.3195094488188976
0
LINE
8
BLACK
6
CONTINUOUS
10
5.7215232677165355
20
-6.3195094488188976
11
5.7195581102362203
21
-6.3214613779527555
0
LINE
8
BLACK
6
CONTINUOUS
10
5.7195581102362203
20
-6.3214613779527555
11
5.7173544488188979
21
-6.3229451574803148
0
LINE
8
BLACK
6
CONTINUOUS
10
5.7173544488188979
20
-6.3229451574803148
11
5.7149043307086611
21
-6.3239897637795277
0
LINE
8
BLACK
6
CONTINUOUS
10
5.7149043307086611
20
-6.3239897637795277
11
5.71208405511811
21
-6.324644251968504
0
LINE
8
BLACK
6
CONTINUOUS
10
5.71208405511811
20
-6.324644251968504
11
5.7088227952755908
21
-6.3248743700787404
0
LINE
8
BLACK
6
CONTINUOUS
10
5.7088227952755908
20
-6.3248743700787404
11
5.7048612204724405
21
-6.3244562204724408
0
LINE
8
BLACK
6
CONTINUOUS
10
5.7048612204724405
20
-6.3244562204724408
11
5.7013761023622047
21
-6.3232423622047245
0
LINE
8
BLACK
6
CONTINUOUS
10
5.7013761023622047
20
-6.3232423622047245
11
5.6982614566929133
21
-6.3212285826771648
0
LINE
8
BLACK
6
CONTINUOUS
10
5.6982614566929133
20
-6.3212285826771648
11
5.6954519291338581
21
-6.3183259448818898
0
LINE
8
BLACK
6
CONTINUOUS
10
5.6954519291338581
20
-6.3183259448818898
11
5.6932795275590546
21
-6.3149473228346453
0
LINE
8
BLACK
6
CONTINUOUS
10
5.6932795275590546
20
-6.3149473228346453
11
5.6916762204724405
21
-6.3110204724409451
0
LINE
8
BLACK
6
CONTINUOUS
10
5.6916762204724405
20
-6.3110204724409451
11
5.6906640944881888
21
-6.306446456692913
0
LINE
8
BLACK
6
CONTINUOUS
10
5.6906640944881888
20
-6.306446456692913
11
5.6903062598425196
21
-6.3011039370078743
0
LINE
8
BLACK
6
CONTINUOUS
10
5.6903062598425196
20
-6.3011039370078743
11
5.6906640944881888
21
-6.2957614173228347
0
LINE
8
BLACK
6
CONTINUOUS
10
5.6906640944881888
20
-6.2957614173228347
11
5.6916762204724405
21
-6.2911874409448814
0
LINE
8
BLACK
6
CONTINUOUS
10
5.6916762204724405
20
-6.2911874409448814
11
5.6932795275590546
21
-6.2872605905511811
0
LINE
8
BLACK
6
CONTINUOUS
10
5.6932795275590546
20
-6.2872605905511811
11
5.6954519291338581
21
-6.2838819291338579
0
LINE
8
BLACK
6
CONTINUOUS
10
5.6954519291338581
20
-6.2838819291338579
11
5.6982614566929133
21
-6.2809793307086617
0
LINE
8
BLACK
6
CONTINUOUS
10
5.6982614566929133
20
-6.2809793307086617
11
5.7013761023622047
21
-6.278965551181102
0
LINE
8
BLACK
6
CONTINUOUS
10
5.7013761023622047
20
-6.278965551181102
11
5.7048612204724405
21
-6.2777516929133856
0
LINE
8
BLACK
6
CONTINUOUS
10
5.7048612204724405
20
-6.2777516929133856
11
5.7088227952755908
21
-6.277333543307086
0
LINE
8
BLACK
6
CONTINUOUS
10
5.7088227952755908
20
-6.277333543307086
11
5.7120838582677163
21
-6.27756405511811
0
LINE
8
BLACK
6
CONTINUOUS
10
5.7120838582677163
20
-6.27756405511811
11
5.7149041338582673
21
-6.2782197244094489
0
LINE
8
BLACK
6
CONTINUOUS
10
5.7149041338582673
20
-6.2782197244094489
11
5.7173544488188979
21
-6.2792663385826772
0
LINE
8
BLACK
6
CONTINUOUS
10
5.7173544488188979
20
-6.2792663385826772
11
5.7195579527559053
21
-6.2807480314960626
0
LINE
8
BLACK
6
CONTINUOUS
10
5.7195579527559053
20
-6.2807480314960626
11
5.7215231102362205
21
-6.2826987007874013
0
LINE
8
BLACK
6
CONTINUOUS
10
5.7215231102362205
20
-6.2826987007874013
11
5.7232646062992121
21
-6.2851800787401571
0
LINE
8
BLACK
6
CONTINUOUS
10
5.7232646062992121
20
-6.2851800787401571
11
5.7232646062992121
21
-6.2609481102362201
0
LINE
8
BLACK
6
CONTINUOUS
10
5.7232646062992121
20
-6.2609481102362201
11
5.730728937007874
21
-6.2609481102362201
0
LINE
8
BLACK
6
CONTINUOUS
10
5.730728937007874
20
-6.2609481102362201
11
5.730728937007874
21
-6.3237204724409448
0
LINE
8
BLACK
6
CONTINUOUS
10
5.7078003149606298
20
-6.2838675984251964
11
5.7053642913385829
21
-6.2847390944881889
0
LINE
8
BLACK
6
CONTINUOUS
10
5.7053642913385829
20
-6.2847390944881889
11
5.703241456692913
21
-6.2861739763779525
0
LINE
8
BLACK
6
CONTINUOUS
10
5.703241456692913
20
-6.2861739763779525
11
5.7013801181102357
21
-6.2882343307086614
0
LINE
8
BLACK
6
CONTINUOUS
10
5.7013801181102357
20
-6.2882343307086614
11
5.6999866141732278
21
-6.2906154330708661
0
LINE
8
BLACK
6
CONTINUOUS
10
5.6999866141732278
20
-6.2906154330708661
11
5.6989339370078742
21
-6.2934887007874014
0
LINE
8
BLACK
6
CONTINUOUS
10
5.6989339370078742
20
-6.2934887007874014
11
5.6982556692913384
21
-6.2969478740157481
0
LINE
8
BLACK
6
CONTINUOUS
10
5.6982556692913384
20
-6.2969478740157481
11
5.6980121653543305
21
-6.3011039370078743
0
LINE
8
BLACK
6
CONTINUOUS
10
5.6980121653543305
20
-6.3011039370078743
11
5.6982556299212597
21
-6.3052598818897634
0
LINE
8
BLACK
6
CONTINUOUS
10
5.6982556299212597
20
-6.3052598818897634
11
5.6989338188976379
21
-6.3087197637795276
0
LINE
8
BLACK
6
CONTINUOUS
10
5.6989338188976379
20
-6.3087197637795276
11
5.6999864960629916
21
-6.3115943307086617
0
LINE
8
BLACK
6
CONTINUOUS
10
5.6999864960629916
20
-6.3115943307086617
11
5.7013801181102357
21
-6.3139771653543306
0
LINE
8
BLACK
6
CONTINUOUS
10
5.7013801181102357
20
-6.3139771653543306
11
5.7032412204724405
21
-6.3160357086614169
0
LINE
8
BLACK
6
CONTINUOUS
10
5.7032412204724405
20
-6.3160357086614169
11
5.7053639763779529
21
-6.3174695669291339
0
LINE
8
BLACK
6
CONTINUOUS
10
5.7053639763779529
20
-6.3174695669291339
11
5.7078000787401573
21
-6.3183404724409451
0
LINE
8
BLACK
6
CONTINUOUS
10
5.7078000787401573
20
-6.3183404724409451
11
5.7106365748031491
21
-6.318643267716535
0
LINE
8
BLACK
6
CONTINUOUS
10
5.7106365748031491
20
-6.318643267716535
11
5.7134749999999999
21
-6.3183404330708663
0
LINE
8
BLACK
6
CONTINUOUS
10
5.7134749999999999
20
-6.3183404330708663
11
5.7159122834645668
21
-6.3174693700787401
0
LINE
8
BLACK
6
CONTINUOUS
10
5.7159122834645668
20
-6.3174693700787401
11
5.7180355511811021
21
-6.3160355118110232
0
LINE
8
BLACK
6
CONTINUOUS
10
5.7180355511811021
20
-6.3160355118110232
11
5.7198966535433069
21
-6.3139771653543306
0
LINE
8
BLACK
6
CONTINUOUS
10
5.7198966535433069
20
-6.3139771653543306
11
5.721290275590551
21
-6.3115943307086617
0
LINE
8
BLACK
6
CONTINUOUS
10
5.721290275590551
20
-6.3115943307086617
11
5.7223429527559055
21
-6.3087197637795276
0
LINE
8
BLACK
6
CONTINUOUS
10
5.7223429527559055
20
-6.3087197637795276
11
5.7230211417322829
21
-6.3052598818897634
0
LINE
8
BLACK
6
CONTINUOUS
10
5.7230211417322829
20
-6.3052598818897634
11
5.7232646062992121
21
-6.3011039370078743
0
LINE
8
BLACK
6
CONTINUOUS
10
5.7232646062992121
20
-6.3011039370078743
11
5.7230211023622042
21
-6.2969478740157481
0
LINE
8
BLACK
6
CONTINUOUS
10
5.7230211023622042
20
-6.2969478740157481
11
5.7223428346456693
21
-6.2934887007874014
0
LINE
8
BLACK
6
CONTINUOUS
10
5.7223428346456693
20
-6.2934887007874014
11
5.7212901574803148
21
-6.2906154330708661
0
LINE
8
BLACK
6
CONTINUOUS
10
5.7212901574803148
20
-6.2906154330708661
11
5.7198966535433069
21
-6.2882343307086614
0
LINE
8
BLACK
6
CONTINUOUS
10
5.7198966535433069
20
-6.2882343307086614
11
5.7180353149606296
21
-6.286174212598425
0
LINE
8
BLACK
6
CONTINUOUS
10
5.7180353149606296
20
-6.286174212598425
11
5.7159119685039368
21
-6.2847392913385827
0
LINE
8
BLACK
6
CONTINUOUS
10
5.7159119685039368
20
-6.2847392913385827
11
5.7134747637795273
21
-6.2838676771653539
0
LINE
8
BLACK
6
CONTINUOUS
10
5.7134747637795273
20
-6.2838676771653539
11
5.7106365748031491
21
-6.2835646062992128
0
LINE
8
BLACK
6
CONTINUOUS
10
5.7106365748031491
20
-6.2835646062992128
11
5.7078003149606298
21
-6.2838675984251964
0
LINE
8
BLACK
6
CONTINUOUS
10
5.7531831496062988
20
-6.3041473622047244
11
5.7534264173228342
21
-6.307443307086614
0
LINE
8
BLACK
6
CONTINUOUS
10
5.7534264173228342
20
-6.307443307086614
11
5.7541118897637791
21
-6.3102264566929129
0
LINE
8
BLACK
6
CONTINUOUS
10
5.7541118897637791
20
-6.3102264566929129
11
5.755197165354331
21
-6.3125846850393703
0
LINE
8
BLACK
6
CONTINUOUS
10
5.755197165354331
20
-6.3125846850393703
11
5.7566737007874016
21
-6.3145865748031493
0
LINE
8
BLACK
6
CONTINUOUS
10
5.7566737007874016
20
-6.3145865748031493
11
5.7585376771653545
21
-6.316234330708661
0
LINE
8
BLACK
6
CONTINUOUS
10
5.7585376771653545
20
-6.316234330708661
11
5.7606989763779524
21
-6.3174181889763776
0
LINE
8
BLACK
6
CONTINUOUS
10
5.7606989763779524
20
-6.3174181889763776
11
5.7632162204724411
21
-6.3181537795275586
0
LINE
8
BLACK
6
CONTINUOUS
10
5.7632162204724411
20
-6.3181537795275586
11
5.7661717716535428
21
-6.3184124803149606
0
LINE
8
BLACK
6
CONTINUOUS
10
5.7661717716535428
20
-6.3184124803149606
11
5.7693546062992125
21
-6.3180240551181104
0
LINE
8
BLACK
6
CONTINUOUS
10
5.7693546062992125
20
-6.3180240551181104
11
5.7717973228346455
21
-6.3169477165354326
0
LINE
8
BLACK
6
CONTINUOUS
10
5.7717973228346455
20
-6.3169477165354326
11
5.7736793700787397
21
-6.3152104330708658
0
LINE
8
BLACK
6
CONTINUOUS
10
5.7736793700787397
20
-6.3152104330708658
11
5.7749816535433069
21
-6.3129340944881891
0
LINE
8
BLACK
6
CONTINUOUS
10
5.7749816535433069
20
-6.3129340944881891
11
5.7758516141732281
21
-6.3098166535433071
0
LINE
8
BLACK
6
CONTINUOUS
10
5.7758516141732281
20
-6.3098166535433071
11
5.776178267716535
21
-6.3056041732283461
0
LINE
8
BLACK
6
CONTINUOUS
10
5.776178267716535
20
-6.3056041732283461
11
5.776178267716535
21
-6.2784874409448816
0
LINE
8
BLACK
6
CONTINUOUS
10
5.776178267716535
20
-6.2784874409448816
11
5.7835993307086611
21
-6.2784874409448816
0
LINE
8
BLACK
6
CONTINUOUS
10
5.7835993307086611
20
-6.2784874409448816
11
5.7835993307086611
21
-6.3058854330708662
0
LINE
8
BLACK
6
CONTINUOUS
10
5.7835993307086611
20
-6.3058854330708662
11
5.7833027559055115
21
-6.3106088188976379
0
LINE
8
BLACK
6
CONTINUOUS
10
5.7833027559055115
20
-6.3106088188976379
11
5.7824847637795278
21
-6.3144430314960625
0
LINE
8
BLACK
6
CONTINUOUS
10
5.7824847637795278
20
-6.3144430314960625
11
5.7812261811023617
21
-6.3175435826771649
0
LINE
8
BLACK
6
CONTINUOUS
10
5.7812261811023617
20
-6.3175435826771649
11
5.7795678740157479
21
-6.3200387795275592
0
LINE
8
BLACK
6
CONTINUOUS
10
5.7795678740157479
20
-6.3200387795275592
11
5.7773890944881892
21
-6.3221005905511811
0
LINE
8
BLACK
6
CONTINUOUS
10
5.7773890944881892
20
-6.3221005905511811
11
5.7747608661417322
21
-6.323596456692913
0
LINE
8
BLACK
6
CONTINUOUS
10
5.7747608661417322
20
-6.323596456692913
11
5.7715907086614173
21
-6.3245385039370081
0
LINE
8
BLACK
6
CONTINUOUS
10
5.7715907086614173
20
-6.3245385039370081
11
5.7677475590551177
21
-6.3248743700787404
0
LINE
8
BLACK
6
CONTINUOUS
10
5.7677475590551177
20
-6.3248743700787404
11
5.7646524409448814
21
-6.3246418110236222
0
LINE
8
BLACK
6
CONTINUOUS
10
5.7646524409448814
20
-6.3246418110236222
11
5.7619083858267715
21
-6.3239721259842518
0
LINE
8
BLACK
6
CONTINUOUS
10
5.7619083858267715
20
-6.3239721259842518
11
5.7594575196850393
21
-6.3228874803149608
0
LINE
8
BLACK
6
CONTINUOUS
10
5.7594575196850393
20
-6.3228874803149608
11
5.7572362992125985
21
-6.321377204724409
0
LINE
8
BLACK
6
CONTINUOUS
10
5.7572362992125985
20
-6.321377204724409
11
5.755147992125984
21
-6.3193701574803152
0
LINE
8
BLACK
6
CONTINUOUS
10
5.755147992125984
20
-6.3193701574803152
11
5.7531831496062988
21
-6.3167970472440942
0
LINE
8
BLACK
6
CONTINUOUS
10
5.7531831496062988
20
-6.3167970472440942
11
5.7531831496062988
21
-6.3237204724409448
0
LINE
8
BLACK
6
CONTINUOUS
10
5.7531831496062988
20
-6.3237204724409448
11
5.745758503937008
21
-6.3237204724409448
0
LINE
8
BLACK
6
CONTINUOUS
10
5.745758503937008
20
-6.3237204724409448
11
5.745758503937008
21
-6.2784874409448816
0
LINE
8
BLACK
6
CONTINUOUS
10
5.745758503937008
20
-6.2784874409448816
11
5.7531831496062988
21
-6.2784874409448816
0
LINE
8
BLACK
6
CONTINUOUS
10
5.7531831496062988
20
-6.2784874409448816
11
5.7531831496062988
21
-6.3041473622047244
0
LINE
8
BLACK
6
CONTINUOUS
10
4.475625787401575
20
-6.2625672047244096
11
4.479829330708661
21
-6.2633244488188975
0
LINE
8
BLACK
6
CONTINUOUS
10
4.479829330708661
20
-6.2633244488188975
11
4.4841506299212597
21
-6.2645151181102356
0
LINE
8
BLACK
6
CONTINUOUS
10
4.4841506299212597
20
-6.2645151181102356
11
4.489024488188976
21
-6.2662560629921256
0
LINE
8
BLACK
6
CONTINUOUS
10
4.489024488188976
20
-6.2662560629921256
11
4.489024488188976
21
-6.2745641732283461
0
LINE
8
BLACK
6
CONTINUOUS
10
4.489024488188976
20
-6.2745641732283461
11
4.4842022440944884
21
-6.2721719685039368
0
LINE
8
BLACK
6
CONTINUOUS
10
4.4842022440944884
20
-6.2721719685039368
11
4.4799302755905508
21
-6.2705724015748032
0
LINE
8
BLACK
6
CONTINUOUS
10
4.4799302755905508
20
-6.2705724015748032
11
4.4757016141732286
21
-6.2695729527559054
0
LINE
8
BLACK
6
CONTINUOUS
10
4.4757016141732286
20
-6.2695729527559054
11
4.4718385433070864
21
-6.2692562204724407
0
LINE
8
BLACK
6
CONTINUOUS
10
4.4718385433070864
20
-6.2692562204724407
11
4.468349842519685
21
-6.2696162204724404
0
LINE
8
BLACK
6
CONTINUOUS
10
4.468349842519685
20
-6.2696162204724404
11
4.4654684645669294
21
-6.2706336220472441
0
LINE
8
BLACK
6
CONTINUOUS
10
4.4654684645669294
20
-6.2706336220472441
11
4.4630652755905507
21
-6.2722779921259839
0
LINE
8
BLACK
6
CONTINUOUS
10
4.4630652755905507
20
-6.2722779921259839
11
4.4611993700787398
21
-6.2744812992125985
0
LINE
8
BLACK
6
CONTINUOUS
10
4.4611993700787398
20
-6.2744812992125985
11
4.4600841732283465
21
-6.2770487401574799
0
LINE
8
BLACK
6
CONTINUOUS
10
4.4600841732283465
20
-6.2770487401574799
11
4.4596973228346455
21
-6.2800957086614169
0
LINE
8
BLACK
6
CONTINUOUS
10
4.4596973228346455
20
-6.2800957086614169
11
4.4600713779527554
21
-6.2830044881889764
0
LINE
8
BLACK
6
CONTINUOUS
10
4.4600713779527554
20
-6.2830044881889764
11
4.4612514960629923
21
-6.286077952755905
0
LINE
8
BLACK
6
CONTINUOUS
10
4.4612514960629923
20
-6.286077952755905
11
4.4632024015748026
21
-6.2891938188976377
0
LINE
8
BLACK
6
CONTINUOUS
10
4.4632024015748026
20
-6.2891938188976377
11
4.4667181102362203
21
-6.2935098425196845
0
LINE
8
BLACK
6
CONTINUOUS
10
4.4667181102362203
20
-6.2935098425196845
11
4.4767822834645665
21
-6.3039238188976379
0
LINE
8
BLACK
6
CONTINUOUS
10
4.4767822834645665
20
-6.3039238188976379
11
4.4894283464566929
21
-6.3167970472440942
0
LINE
8
BLACK
6
CONTINUOUS
10
4.4894283464566929
20
-6.3167970472440942
11
4.4894283464566929
21
-6.3237204724409448
0
LINE
8
BLACK
6
CONTINUOUS
10
4.4894283464566929
20
-6.3237204724409448
11
4.451183661417323
21
-6.3237204724409448
0
LINE
8
BLACK
6
CONTINUOUS
10
4.451183661417323
20
-6.3237204724409448
11
4.451183661417323
21
-6.3167970472440942
0
LINE
8
BLACK
6
CONTINUOUS
10
4.451183661417323
20
-6.3167970472440942
11
4.4796237795275591
21
-6.3167970472440942
0
LINE
8
BLACK
6
CONTINUOUS
10
4.4796237795275591
20
-6.3167970472440942
11
4.4643778346456688
21
-6.3011652362204726
0
LINE
8
BLACK
6
CONTINUOUS
10
4.4643778346456688
20
-6.3011652362204726
11
4.457962874015748
21
-6.2944077165354333
0
LINE
8
BLACK
6
CONTINUOUS
10
4.457962874015748
20
-6.2944077165354333
11
4.4547040944881893
21
-6.2899402755905509
0
LINE
8
BLACK
6
CONTINUOUS
10
4.4547040944881893
20
-6.2899402755905509
11
4.4529001181102359
21
-6.2865611811023623
0
LINE
8
BLACK
6
CONTINUOUS
10
4.4529001181102359
20
-6.2865611811023623
11
4.4518585039370082
21
-6.2831462204724406
0
LINE
8
BLACK
6
CONTINUOUS
10
4.4518585039370082
20
-6.2831462204724406
11
4.4515082283464569
21
-6.2795187401574806
0
LINE
8
BLACK
6
CONTINUOUS
10
4.4515082283464569
20
-6.2795187401574806
11
4.4518748031496065
21
-6.2757100787401576
0
LINE
8
BLACK
6
CONTINUOUS
10
4.4518748031496065
20
-6.2757100787401576
11
4.452927007874016
21
-6.2724198818897641
0
LINE
8
BLACK
6
CONTINUOUS
10
4.452927007874016
20
-6.2724198818897641
11
4.4546446062992127
21
-6.2695440551181099
0
LINE
8
BLACK
6
CONTINUOUS
10
4.4546446062992127
20
-6.2695440551181099
11
4.4570757874015747
21
-6.2670133070866143
0
LINE
8
BLACK
6
CONTINUOUS
10
4.4570757874015747
20
-6.2670133070866143
11
4.4599640157480316
21
-6.2650376377952757
0
LINE
8
BLACK
6
CONTINUOUS
10
4.4599640157480316
20
-6.2650376377952757
11
4.4633485433070863
21
-6.2635804724409452
0
LINE
8
BLACK
6
CONTINUOUS
10
4.4633485433070863
20
-6.2635804724409452
11
4.467322244094488
21
-6.2626592913385828
0
LINE
8
BLACK
6
CONTINUOUS
10
4.467322244094488
20
-6.2626592913385828
11
4.4720008267716533
21
-6.2623327952755901
0
LINE
8
BLACK
6
CONTINUOUS
10
4.4720008267716533
20
-6.2623327952755901
11
4.475625787401575
21
-6.2625672047244096
0
LINE
8
BLACK
6
CONTINUOUS
10
4.5807463779527557
20
-6.2625672047244096
11
4.5849499212598426
21
-6.2633244488188975
0
LINE
8
BLACK
6
CONTINUOUS
10
4.5849499212598426
20
-6.2633244488188975
11
4.5892711811023625
21
-6.2645151181102356
0
LINE
8
BLACK
6
CONTINUOUS
10
4.5892711811023625
20
-6.2645151181102356
11
4.5941450787401577
21
-6.2662560629921256
0
LINE
8
BLACK
6
CONTINUOUS
10
4.5941450787401577
20
-6.2662560629921256
11
4.5941450787401577
21
-6.2745641732283461
0
LINE
8
BLACK
6
CONTINUOUS
10
4.5941450787401577
20
-6.2745641732283461
11
4.5893228346456691
21
-6.2721719685039368
0
LINE
8
BLACK
6
CONTINUOUS
10
4.5893228346456691
20
-6.2721719685039368
11
4.5850508661417324
21
-6.2705724015748032
0
LINE
8
BLACK
6
CONTINUOUS
10
4.5850508661417324
20
-6.2705724015748032
11
4.5808222047244094
21
-6.2695729527559054
0
LINE
8
BLACK
6
CONTINUOUS
10
4.5808222047244094
20
-6.2695729527559054
11
4.576959133858268
21
-6.2692562204724407
0
LINE
8
BLACK
6
CONTINUOUS
10
4.576959133858268
20
-6.2692562204724407
11
4.5734704330708658
21
-6.2696162204724404
0
LINE
8
BLACK
6
CONTINUOUS
10
4.5734704330708658
20
-6.2696162204724404
11
4.5705890551181101
21
-6.2706336220472441
0
LINE
8
BLACK
6
CONTINUOUS
10
4.5705890551181101
20
-6.2706336220472441
11
4.5681858661417323
21
-6.2722779921259839
0
LINE
8
BLACK
6
CONTINUOUS
10
4.5681858661417323
20
-6.2722779921259839
11
4.5663199606299214
21
-6.2744812992125985
0
LINE
8
BLACK
6
CONTINUOUS
10
4.5663199606299214
20
-6.2744812992125985
11
4.5652047244094485
21
-6.2770487401574799
0
LINE
8
BLACK
6
CONTINUOUS
10
4.5652047244094485
20
-6.2770487401574799
11
4.5648179133858271
21
-6.2800957086614169
0
LINE
8
BLACK
6
CONTINUOUS
10
4.5648179133858271
20
-6.2800957086614169
11
4.565191968503937
21
-6.2830044881889764
0
LINE
8
BLACK
6
CONTINUOUS
10
4.565191968503937
20
-6.2830044881889764
11
4.5663720472440943
21
-6.286077952755905
0
LINE
8
BLACK
6
CONTINUOUS
10
4.5663720472440943
20
-6.286077952755905
11
4.5683229921259842
21
-6.2891938188976377
0
LINE
8
BLACK
6
CONTINUOUS
10
4.5683229921259842
20
-6.2891938188976377
11
4.5718386614173223
21
-6.2935098425196845
0
LINE
8
BLACK
6
CONTINUOUS
10
4.5718386614173223
20
-6.2935098425196845
11
4.5819028740157481
21
-6.3039238188976379
0
LINE
8
BLACK
6
CONTINUOUS
10
4.5819028740157481
20
-6.3039238188976379
11
4.5945489370078736
21
-6.3167970472440942
0
LINE
8
BLACK
6
CONTINUOUS
10
4.5945489370078736
20
-6.3167970472440942
11
4.5945489370078736
21
-6.3237204724409448
0
LINE
8
BLACK
6
CONTINUOUS
10
4.5945489370078736
20
-6.3237204724409448
11
4.5563042519685037
21
-6.3237204724409448
0
LINE
8
BLACK
6
CONTINUOUS
10
4.5563042519685037
20
-6.3237204724409448
11
4.5563042519685037
21
-6.3167970472440942
0
LINE
8
BLACK
6
CONTINUOUS
10
4.5563042519685037
20
-6.3167970472440942
11
4.5847443700787398
21
-6.3167970472440942
0
LINE
8
BLACK
6
CONTINUOUS
10
4.5847443700787398
20
-6.3167970472440942
11
4.5694984251968505
21
-6.3011652362204726
0
LINE
8
BLACK
6
CONTINUOUS
10
4.5694984251968505
20
-6.3011652362204726
11
4.56308342519685
21
-6.2944077165354333
0
LINE
8
BLACK
6
CONTINUOUS
10
4.56308342519685
20
-6.2944077165354333
11
4.55982468503937
21
-6.2899402755905509
0
LINE
8
BLACK
6
CONTINUOUS
10
4.55982468503937
20
-6.2899402755905509
11
4.5580207086614175
21
-6.2865611811023623
0
LINE
8
BLACK
6
CONTINUOUS
10
4.5580207086614175
20
-6.2865611811023623
11
4.5569790551181102
21
-6.2831462204724406
0
LINE
8
BLACK
6
CONTINUOUS
10
4.5569790551181102
20
-6.2831462204724406
11
4.5566287795275588
21
-6.2795187401574806
0
LINE
8
BLACK
6
CONTINUOUS
10
4.5566287795275588
20
-6.2795187401574806
11
4.5569953937007872
21
-6.2757100787401576
0
LINE
8
BLACK
6
CONTINUOUS
10
4.5569953937007872
20
-6.2757100787401576
11
4.5580475984251967
21
-6.2724198818897641
0
LINE
8
BLACK
6
CONTINUOUS
10
4.5580475984251967
20
-6.2724198818897641
11
4.5597651968503934
21
-6.2695440551181099
0
LINE
8
BLACK
6
CONTINUOUS
10
4.5597651968503934
20
-6.2695440551181099
11
4.5621963779527555
21
-6.2670133070866143
0
LINE
8
BLACK
6
CONTINUOUS
10
4.5621963779527555
20
-6.2670133070866143
11
4.5650846062992123
21
-6.2650376377952757
0
LINE
8
BLACK
6
CONTINUOUS
10
4.5650846062992123
20
-6.2650376377952757
11
4.5684691338582679
21
-6.2635804724409452
0
LINE
8
BLACK
6
CONTINUOUS
10
4.5684691338582679
20
-6.2635804724409452
11
4.5724428346456696
21
-6.2626592913385828
0
LINE
8
BLACK
6
CONTINUOUS
10
4.5724428346456696
20
-6.2626592913385828
11
4.5771213779527562
21
-6.2623327952755901
0
LINE
8
BLACK
6
CONTINUOUS
10
4.5771213779527562
20
-6.2623327952755901
11
4.5807463779527557
21
-6.2625672047244096
0
LINE
8
BLACK
6
CONTINUOUS
10
4.6099096456692914
20
-6.2612074015748034
11
4.6129548031496066
21
-6.2619136614173225
0
LINE
8
BLACK
6
CONTINUOUS
10
4.6129548031496066
20
-6.2619136614173225
11
4.6153330314960632
21
-6.2629881102362202
0
LINE
8
BLACK
6
CONTINUOUS
10
4.6153330314960632
20
-6.2629881102362202
11
4.6171726377952753
21
-6.264395393700787
0
LINE
8
BLACK
6
CONTINUOUS
10
4.6171726377952753
20
-6.264395393700787
11
4.6186084251968502
21
-6.2662078740157483
0
LINE
8
BLACK
6
CONTINUOUS
10
4.6186084251968502
20
-6.2662078740157483
11
4.619701102362205
21
-6.2685514173228345
0
LINE
8
BLACK
6
CONTINUOUS
10
4.619701102362205
20
-6.2685514173228345
11
4.6204181102362201
21
-6.2715527952755901
0
LINE
8
BLACK
6
CONTINUOUS
10
4.6204181102362201
20
-6.2715527952755901
11
4.6206812204724406
21
-6.2753718897637798
0
LINE
8
BLACK
6
CONTINUOUS
10
4.6206812204724406
20
-6.2753718897637798
11
4.6206812204724406
21
-6.2784874409448816
0
LINE
8
BLACK
6
CONTINUOUS
10
4.6206812204724406
20
-6.2784874409448816
11
4.6277813385826772
21
-6.2784874409448816
0
LINE
8
BLACK
6
CONTINUOUS
10
4.6277813385826772
20
-6.2784874409448816
11
4.6277813385826772
21
-6.2842569685039367
0
LINE
8
BLACK
6
CONTINUOUS
10
4.6277813385826772
20
-6.2842569685039367
11
4.6206812204724406
21
-6.2842569685039367
0
LINE
8
BLACK
6
CONTINUOUS
10
4.6206812204724406
20
-6.2842569685039367
11
4.6206812204724406
21
-6.3237204724409448
0
LINE
8
BLACK
6
CONTINUOUS
10
4.6206812204724406
20
-6.3237204724409448
11
4.6132169291338583
21
-6.3237204724409448
0
LINE
8
BLACK
6
CONTINUOUS
10
4.6132169291338583
20
-6.3237204724409448
11
4.6132169291338583
21
-6.2842569685039367
0
LINE
8
BLACK
6
CONTINUOUS
10
4.6132169291338583
20
-6.2842569685039367
11
4.6009963779527556
21
-6.2842569685039367
0
LINE
8
BLACK
6
CONTINUOUS
10
4.6009963779527556
20
-6.2842569685039367
11
4.6009963779527556
21
-6.2784874409448816
0
LINE
8
BLACK
6
CONTINUOUS
10
4.6009963779527556
20
-6.2784874409448816
11
4.6132169291338583
21
-6.2784874409448816
0
LINE
8
BLACK
6
CONTINUOUS
10
4.6132169291338583
20
-6.2784874409448816
11
4.6132169291338583
21
-6.2745317322834646
0
LINE
8
BLACK
6
CONTINUOUS
10
4.6132169291338583
20
-6.2745317322834646
11
4.6130015354330709
21
-6.2717903149606302
0
LINE
8
BLACK
6
CONTINUOUS
10
4.6130015354330709
20
-6.2717903149606302
11
4.6124525196850392
21
-6.2699587007874014
0
LINE
8
BLACK
6
CONTINUOUS
10
4.6124525196850392
20
-6.2699587007874014
11
4.6116663779527558
21
-6.2687802362204721
0
LINE
8
BLACK
6
CONTINUOUS
10
4.6116663779527558
20
-6.2687802362204721
11
4.6105119685039373
21
-6.2679626377952751
0
LINE
8
BLACK
6
CONTINUOUS
10
4.6105119685039373
20
-6.2679626377952751
11
4.608741771653543
21
-6.2673988582677165
0
LINE
8
BLACK
6
CONTINUOUS
10
4.608741771653543
20
-6.2673988582677165
11
4.6061168110236217
21
-6.2671792125984247
0
LINE
8
BLACK
6
CONTINUOUS
10
4.6061168110236217
20
-6.2671792125984247
11
4.599016692913386
21
-6.2671792125984247
0
LINE
8
BLACK
6
CONTINUOUS
10
4.599016692913386
20
-6.2671792125984247
11
4.599016692913386
21
-6.2609481102362201
0
LINE
8
BLACK
6
CONTINUOUS
10
4.599016692913386
20
-6.2609481102362201
11
4.6060374803149609
21
-6.2609481102362201
0
LINE
8
BLACK
6
CONTINUOUS
10
4.6060374803149609
20
-6.2609481102362201
11
4.6099096456692914
21
-6.2612074015748034
0
LINE
8
BLACK
6
CONTINUOUS
10
4.6838762992125984
20
-6.2775670472440943
11
4.686663976377953
21
-6.2782335433070866
0
LINE
8
BLACK
6
CONTINUOUS
10
4.686663976377953
20
-6.2782335433070866
11
4.6891040944881892
21
-6.2793024015748031
0
LINE
8
BLACK
6
CONTINUOUS
10
4.6891040944881892
20
-6.2793024015748031
11
4.6912985433070862
21
-6.2808067322834642
0
LINE
8
BLACK
6
CONTINUOUS
10
4.6912985433070862
20
-6.2808067322834642
11
4.6933253543307085
21
-6.2828183858267712
0
LINE
8
BLACK
6
CONTINUOUS
10
4.6933253543307085
20
-6.2828183858267712
11
4.695194527559055
21
-6.2854108661417323
0
LINE
8
BLACK
6
CONTINUOUS
10
4.695194527559055
20
-6.2854108661417323
11
4.695194527559055
21
-6.2784874409448816
0
LINE
8
BLACK
6
CONTINUOUS
10
4.695194527559055
20
-6.2784874409448816
11
4.702658858267716
21
-6.2784874409448816
0
LINE
8
BLACK
6
CONTINUOUS
10
4.702658858267716
20
-6.2784874409448816
11
4.702658858267716
21
-6.3237204724409448
0
LINE
8
BLACK
6
CONTINUOUS
10
4.702658858267716
20
-6.3237204724409448
11
4.695194527559055
21
-6.3237204724409448
0
LINE
8
BLACK
6
CONTINUOUS
10
4.695194527559055
20
-6.3237204724409448
11
4.695194527559055
21
-6.2980857874015745
0
LINE
8
BLACK
6
CONTINUOUS
10
4.695194527559055
20
-6.2980857874015745
11
4.6947856299212596
21
-6.2938180314960626
0
LINE
8
BLACK
6
CONTINUOUS
10
4.6947856299212596
20
-6.2938180314960626
11
4.6936488188976373
21
-6.29039968503937
0
LINE
8
BLACK
6
CONTINUOUS
10
4.6936488188976373
20
-6.29039968503937
11
4.6918482283464567
21
-6.2876501574803152
0
LINE
8
BLACK
6
CONTINUOUS
10
4.6918482283464567
20
-6.2876501574803152
11
4.6900456299212596
21
-6.2859772440944877
0
LINE
8
BLACK
6
CONTINUOUS
10
4.6900456299212596
20
-6.2859772440944877
11
4.6879777952755903
21
-6.284786496062992
0
LINE
8
BLACK
6
CONTINUOUS
10
4.6879777952755903
20
-6.284786496062992
11
4.6855920866141734
21
-6.2840523228346452
0
LINE
8
BLACK
6
CONTINUOUS
10
4.6855920866141734
20
-6.2840523228346452
11
4.6828117322834641
21
-6.2837953937007871
0
LINE
8
BLACK
6
CONTINUOUS
10
4.6828117322834641
20
-6.2837953937007871
11
4.6797657086614173
21
-6.2841762598425195
0
LINE
8
BLACK
6
CONTINUOUS
10
4.6797657086614173
20
-6.2841762598425195
11
4.6774599606299212
21
-6.2852278740157477
0
LINE
8
BLACK
6
CONTINUOUS
10
4.6774599606299212
20
-6.2852278740157477
11
4.6757116141732284
21
-6.2869253543307089
0
LINE
8
BLACK
6
CONTINUOUS
10
4.6757116141732284
20
-6.2869253543307089
11
4.6745259448818892
21
-6.2891401574803147
0
LINE
8
BLACK
6
CONTINUOUS
10
4.6745259448818892
20
-6.2891401574803147
11
4.6737183464566927
21
-6.2922659842519684
0
LINE
8
BLACK
6
CONTINUOUS
10
4.6737183464566927
20
-6.2922659842519684
11
4.6734110236220472
21
-6.2965892913385826
0
LINE
8
BLACK
6
CONTINUOUS
10
4.6734110236220472
20
-6.2965892913385826
11
4.6734110236220472
21
-6.3237204724409448
0
LINE
8
BLACK
6
CONTINUOUS
10
4.6734110236220472
20
-6.3237204724409448
11
4.6659466929133862
21
-6.3237204724409448
0
LINE
8
BLACK
6
CONTINUOUS
10
4.6659466929133862
20
-6.3237204724409448
11
4.6659466929133862
21
-6.2980857874015745
0
LINE
8
BLACK
6
CONTINUOUS
10
4.6659466929133862
20
-6.2980857874015745
11
4.6655364566929132
21
-6.2937913779527559
0
LINE
8
BLACK
6
CONTINUOUS
10
4.6655364566929132
20
-6.2937913779527559
11
4.6643985039370079
21
-6.2903690157480314
0
LINE
8
BLACK
6
CONTINUOUS
10
4.6643985039370079
20
-6.2903690157480314
11
4.6626003937007869
21
-6.2876321259842518
0
LINE
8
BLACK
6
CONTINUOUS
10
4.6626003937007869
20
-6.2876321259842518
11
4.6607994094488188
21
-6.2859719685039366
0
LINE
8
BLACK
6
CONTINUOUS
10
4.6607994094488188
20
-6.2859719685039366
11
4.6587200787401573
21
-6.2847862598425195
0
LINE
8
BLACK
6
CONTINUOUS
10
4.6587200787401573
20
-6.2847862598425195
11
4.6563071259842514
21
-6.2840527559055115
0
LINE
8
BLACK
6
CONTINUOUS
10
4.6563071259842514
20
-6.2840527559055115
11
4.6534809448818892
21
-6.2837953937007871
0
LINE
8
BLACK
6
CONTINUOUS
10
4.6534809448818892
20
-6.2837953937007871
11
4.6504924015748035
21
-6.2841757086614169
0
LINE
8
BLACK
6
CONTINUOUS
10
4.6504924015748035
20
-6.2841757086614169
11
4.6482113385826773
21
-6.2852306692913382
0
LINE
8
BLACK
6
CONTINUOUS
10
4.6482113385826773
20
-6.2852306692913382
11
4.6464637795275587
21
-6.2869433858267714
0
LINE
8
BLACK
6
CONTINUOUS
10
4.6464637795275587
20
-6.2869433858267714
11
4.6452760629921261
21
-6.2891710236220471
0
LINE
8
BLACK
6
CONTINUOUS
10
4.6452760629921261
20
-6.2891710236220471
11
4.6444694094488188
21
-6.2922938188976376
0
LINE
8
BLACK
6
CONTINUOUS
10
4.6444694094488188
20
-6.2922938188976376
11
4.6441631889763775
21
-6.2965892913385826
0
LINE
8
BLACK
6
CONTINUOUS
10
4.6441631889763775
20
-6.2965892913385826
11
4.6441631889763775
21
-6.3237204724409448
0
LINE
8
BLACK
6
CONTINUOUS
10
4.6441631889763775
20
-6.3237204724409448
11
4.6367024803149608
21
-6.3237204724409448
0
LINE
8
BLACK
6
CONTINUOUS
10
4.6367024803149608
20
-6.3237204724409448
11
4.6367024803149608
21
-6.2963440944881892
0
LINE
8
BLACK
6
CONTINUOUS
10
4.6367024803149608
20
-6.2963440944881892
11
4.6369824803149609
21
-6.2917178346456692
0
LINE
8
BLACK
6
CONTINUOUS
10
4.6369824803149609
20
-6.2917178346456692
11
4.6377580708661412
21
-6.287919960629921
0
LINE
8
BLACK
6
CONTINUOUS
10
4.6377580708661412
20
-6.287919960629921
11
4.6389555511811027
21
-6.2848117716535432
0
LINE
8
BLACK
6
CONTINUOUS
10
4.6389555511811027
20
-6.2848117716535432
11
4.6405355905511811
21
-6.282277283464567
0
LINE
8
BLACK
6
CONTINUOUS
10
4.6405355905511811
20
-6.282277283464567
11
4.6426275984251966
21
-6.2801342125984254
0
LINE
8
BLACK
6
CONTINUOUS
10
4.6426275984251966
20
-6.2801342125984254
11
4.6450850787401574
21
-6.2786097244094483
0
LINE
8
BLACK
6
CONTINUOUS
10
4.6450850787401574
20
-6.2786097244094483
11
4.6479807874015746
21
-6.2776660236220474
0
LINE
8
BLACK
6
CONTINUOUS
10
4.6479807874015746
20
-6.2776660236220474
11
4.6514255511811022
21
-6.277333543307086
0
LINE
8
BLACK
6
CONTINUOUS
10
4.6514255511811022
20
-6.277333543307086
11
4.6548536220472441
21
-6.2776118503937006
0
LINE
8
BLACK
6
CONTINUOUS
10
4.6548536220472441
20
-6.2776118503937006
11
4.6578679921259845
21
-6.2784120472440943
0
LINE
8
BLACK
6
CONTINUOUS
10
4.6578679921259845
20
-6.2784120472440943
11
4.6605413779527556
21
-6.2797098818897634
0
LINE
8
BLACK
6
CONTINUOUS
10
4.6605413779527556
20
-6.2797098818897634
11
4.6629172834645667
21
-6.2815041338582676
0
LINE
8
BLACK
6
CONTINUOUS
10
4.6629172834645667
20
-6.2815041338582676
11
4.6651343307086615
21
-6.2839226771653545
0
LINE
8
BLACK
6
CONTINUOUS
10
4.6651343307086615
20
-6.2839226771653545
11
4.6671979527559051
21
-6.2870696062992124
0
LINE
8
BLACK
6
CONTINUOUS
10
4.6671979527559051
20
-6.2870696062992124
11
4.668548503937008
21
-6.2840705905511811
0
LINE
8
BLACK
6
CONTINUOUS
10
4.668548503937008
20
-6.2840705905511811
11
4.6702498425196852
21
-6.2816877559055113
0
LINE
8
BLACK
6
CONTINUOUS
10
4.6702498425196852
20
-6.2816877559055113
11
4.672303976377953
21
-6.2798288582677166
0
LINE
8
BLACK
6
CONTINUOUS
10
4.672303976377953
20
-6.2798288582677166
11
4.6747114566929131
21
-6.2784657874015748
0
LINE
8
BLACK
6
CONTINUOUS
10
4.6747114566929131
20
-6.2784657874015748
11
4.6774729527559051
21
-6.2776266141732284
0
LINE
8
BLACK
6
CONTINUOUS
10
4.6774729527559051
20
-6.2776266141732284
11
4.6806733858267719
21
-6.277333543307086
0
LINE
8
BLACK
6
CONTINUOUS
10
4.6806733858267719
20
-6.277333543307086
11
4.6838762992125984
21
-6.2775670472440943
0
LINE
8
BLACK
6
CONTINUOUS
10
4.9861868110236216
20
-6.277573503937008
11
4.9891975196850389
21
-6.2782513385826766
0
LINE
8
BLACK
6
CONTINUOUS
10
4.9891975196850389
20
-6.2782513385826766
11
4.9917729133858266
21
-6.2793240157480312
0
LINE
8
BLACK
6
CONTINUOUS
10
4.9917729133858266
20
-6.2793240157480312
11
4.9940840944881888
21
-6.2808569685039366
0
LINE
8
BLACK
6
CONTINUOUS
10
4.9940840944881888
20
-6.2808569685039366
11
4.9961078346456693
21
-6.2828657874015743
0
LINE
8
BLACK
6
CONTINUOUS
10
4.9961078346456693
20
-6.2828657874015743
11
4.9978633464566924
21
-6.2854108661417323
0
LINE
8
BLACK
6
CONTINUOUS
10
4.9978633464566924
20
-6.2854108661417323
11
4.9978633464566924
21
-6.2784874409448816
0
LINE
8
BLACK
6
CONTINUOUS
10
4.9978633464566924
20
-6.2784874409448816
11
5.0053276771653543
21
-6.2784874409448816
0
LINE
8
BLACK
6
CONTINUOUS
10
5.0053276771653543
20
-6.2784874409448816
11
5.0053276771653543
21
-6.3237204724409448
0
LINE
8
BLACK
6
CONTINUOUS
10
5.0053276771653543
20
-6.3237204724409448
11
4.9978633464566924
21
-6.3237204724409448
0
LINE
8
BLACK
6
CONTINUOUS
10
4.9978633464566924
20
-6.3237204724409448
11
4.9978633464566924
21
-6.299827440944882
0
LINE
8
BLACK
6
CONTINUOUS
10
4.9978633464566924
20
-6.299827440944882
11
4.997617834645669
21
-6.2959611811023617
0
LINE
8
BLACK
6
CONTINUOUS
10
4.997617834645669
20
-6.2959611811023617
11
4.996937992125984
21
-6.2927959055118112
0
LINE
8
BLACK
6
CONTINUOUS
10
4.996937992125984
20
-6.2927959055118112
11
4.9958868897637796
21
-6.2902112598425193
0
LINE
8
BLACK
6
CONTINUOUS
10
4.9958868897637796
20
-6.2902112598425193
11
4.9944953937007872
21
-6.2881081102362204
0
LINE
8
BLACK
6
CONTINUOUS
10
4.9944953937007872
20
-6.2881081102362204
11
4.9926729527559051
21
-6.286355551181102
0
LINE
8
BLACK
6
CONTINUOUS
10
4.9926729527559051
20
-6.286355551181102
11
4.9905068110236224
21
-6.28509405511811
0
LINE
8
BLACK
6
CONTINUOUS
10
4.9905068110236224
20
-6.28509405511811
11
4.9879275984251965
21
-6.2843056299212599
0
LINE
8
BLACK
6
CONTINUOUS
10
4.9879275984251965
20
-6.2843056299212599
11
4.984835078740157
21
-6.2840261811023623
0
LINE
8
BLACK
6
CONTINUOUS
10
4.984835078740157
20
-6.2840261811023623
11
4.981586102362205
21
-6.2843651574803152
0
LINE
8
BLACK
6
CONTINUOUS
10
4.981586102362205
20
-6.2843651574803152
11
4.9788636220472444
21
-6.2854108661417323
0
LINE
8
BLACK
6
CONTINUOUS
10
4.9788636220472444
20
-6.2854108661417323
11
4.978903267716535
21
-6.2777951181102365
0
LINE
8
BLACK
6
CONTINUOUS
10
4.978903267716535
20
-6.2777951181102365
11
4.9809622834645664
21
-6.2774489370078737
0
LINE
8
BLACK
6
CONTINUOUS
10
4.9809622834645664
20
-6.2774489370078737
11
4.9826570866141733
21
-6.277333543307086
0
LINE
8
BLACK
6
CONTINUOUS
10
4.9826570866141733
20
-6.277333543307086
11
4.9861868110236216
21
-6.277573503937008
0
LINE
8
BLACK
6
CONTINUOUS
10
5.1764000000000001
20
-6.2612068897637796
11
5.1793113385826768
21
-6.2619181102362207
0
LINE
8
BLACK
6
CONTINUOUS
10
5.1793113385826768
20
-6.2619181102362207
11
5.1816312992125981
21
-6.2630133858267714
0
LINE
8
BLACK
6
CONTINUOUS
10
5.1816312992125981
20
-6.2630133858267714
11
5.1834687007874019
21
-6.2644675196850388
0
LINE
8
BLACK
6
CONTINUOUS
10
5.1834687007874019
20
-6.2644675196850388
11
5.1849053149606297
21
-6.2663154330708659
0
LINE
8
BLACK
6
CONTINUOUS
10
5.1849053149606297
20
-6.2663154330708659
11
5.1859922440944883
21
-6.2686639370078741
0
LINE
8
BLACK
6
CONTINUOUS
10
5.1859922440944883
20
-6.2686639370078741
11
5.1867007480314964
21
-6.271627440944882
0
LINE
8
BLACK
6
CONTINUOUS
10
5.1867007480314964
20
-6.271627440944882
11
5.1869592519685037
21
-6.2753502755905508
0
LINE
8
BLACK
6
CONTINUOUS
10
5.1869592519685037
20
-6.2753502755905508
11
5.1869592519685037
21
-6.2784874409448816
0
LINE
8
BLACK
6
CONTINUOUS
10
5.1869592519685037
20
-6.2784874409448816
11
5.1940593700787403
21
-6.2784874409448816
0
LINE
8
BLACK
6
CONTINUOUS
10
5.1940593700787403
20
-6.2784874409448816
11
5.1940593700787403
21
-6.2842569685039367
0
LINE
8
BLACK
6
CONTINUOUS
10
5.1940593700787403
20
-6.2842569685039367
11
5.1869592519685037
21
-6.2842569685039367
0
LINE
8
BLACK
6
CONTINUOUS
10
5.1869592519685037
20
-6.2842569685039367
11
5.1869592519685037
21
-6.3237204724409448
0
LINE
8
BLACK
6
CONTINUOUS
10
5.1869592519685037
20
-6.3237204724409448
11
5.1794949212598427
21
-6.3237204724409448
0
LINE
8
BLACK
6
CONTINUOUS
10
5.1794949212598427
20
-6.3237204724409448
11
5.1794949212598427
21
-6.2842569685039367
0
LINE
8
BLACK
6
CONTINUOUS
10
5.1794949212598427
20
-6.2842569685039367
11
5.159124921259842
21
-6.2842569685039367
0
LINE
8
BLACK
6
CONTINUOUS
10
5.159124921259842
20
-6.2842569685039367
11
5.159124921259842
21
-6.3237204724409448
0
LINE
8
BLACK
6
CONTINUOUS
10
5.159124921259842
20
-6.3237204724409448
11
5.1516606299212597
21
-6.3237204724409448
0
LINE
8
BLACK
6
CONTINUOUS
10
5.1516606299212597
20
-6.3237204724409448
11
5.1516606299212597
21
-6.2784874409448816
0
LINE
8
BLACK
6
CONTINUOUS
10
5.1516606299212597
20
-6.2784874409448816
11
5.1794949212598427
21
-6.2784874409448816
0
LINE
8
BLACK
6
CONTINUOUS
10
5.1794949212598427
20
-6.2784874409448816
11
5.1794949212598427
21
-6.2745317322834646
0
LINE
8
BLACK
6
CONTINUOUS
10
5.1794949212598427
20
-6.2745317322834646
11
5.1792795275590553
21
-6.2717903149606302
0
LINE
8
BLACK
6
CONTINUOUS
10
5.1792795275590553
20
-6.2717903149606302
11
5.1787305118110236
21
-6.2699587007874014
0
LINE
8
BLACK
6
CONTINUOUS
10
5.1787305118110236
20
-6.2699587007874014
11
5.1779443700787402
21
-6.2687802362204721
0
LINE
8
BLACK
6
CONTINUOUS
10
5.1779443700787402
20
-6.2687802362204721
11
5.1767899999999996
21
-6.2679626377952751
0
LINE
8
BLACK
6
CONTINUOUS
10
5.1767899999999996
20
-6.2679626377952751
11
5.1750197637795274
21
-6.2673988582677165
0
LINE
8
BLACK
6
CONTINUOUS
10
5.1750197637795274
20
-6.2673988582677165
11
5.1723948031496061
21
-6.2671792125984247
0
LINE
8
BLACK
6
CONTINUOUS
10
5.1723948031496061
20
-6.2671792125984247
11
5.1652947244094491
21
-6.2671792125984247
0
LINE
8
BLACK
6
CONTINUOUS
10
5.1652947244094491
20
-6.2671792125984247
11
5.1652947244094491
21
-6.2609481102362201
0
LINE
8
BLACK
6
CONTINUOUS
10
5.1652947244094491
20
-6.2609481102362201
11
5.1727590157480314
21
-6.2609481102362201
0
LINE
8
BLACK
6
CONTINUOUS
10
5.1727590157480314
20
-6.2609481102362201
11
5.1764000000000001
21
-6.2612068897637796
0
LINE
8
BLACK
6
CONTINUOUS
10
5.2111335039370079
20
-6.3237204724409448
11
5.2037088582677162
21
-6.3237204724409448
0
LINE
8
BLACK
6
CONTINUOUS
10
5.2037088582677162
20
-6.3237204724409448
11
5.2037088582677162
21
-6.2784874409448816
0
LINE
8
BLACK
6
CONTINUOUS
10
5.2037088582677162
20
-6.2784874409448816
11
5.2111335039370079
21
-6.2784874409448816
0
LINE
8
BLACK
6
CONTINUOUS
10
5.2111335039370079
20
-6.2784874409448816
11
5.2111335039370079
21
-6.3237204724409448
0
LINE
8
BLACK
6
CONTINUOUS
10
5.2262563779527555
20
-6.277573503937008
11
5.2292670866141728
21
-6.2782513385826766
0
LINE
8
BLACK
6
CONTINUOUS
10
5.2292670866141728
20
-6.2782513385826766
11
5.2318424803149606
21
-6.2793240157480312
0
LINE
8
BLACK
6
CONTINUOUS
10
5.2318424803149606
20
-6.2793240157480312
11
5.234153622047244
21
-6.2808569685039366
0
LINE
8
BLACK
6
CONTINUOUS
10
5.234153622047244
20
-6.2808569685039366
11
5.2361774015748033
21
-6.2828657874015743
0
LINE
8
BLACK
6
CONTINUOUS
10
5.2361774015748033
20
-6.2828657874015743
11
5.2379329133858263
21
-6.2854108661417323
0
LINE
8
BLACK
6
CONTINUOUS
10
5.2379329133858263
20
-6.2854108661417323
11
5.2379329133858263
21
-6.2784874409448816
0
LINE
8
BLACK
6
CONTINUOUS
10
5.2379329133858263
20
-6.2784874409448816
11
5.2453972440944883
21
-6.2784874409448816
0
LINE
8
BLACK
6
CONTINUOUS
10
5.2453972440944883
20
-6.2784874409448816
11
5.2453972440944883
21
-6.3237204724409448
0
LINE
8
BLACK
6
CONTINUOUS
10
5.2453972440944883
20
-6.3237204724409448
11
5.2379329133858263
21
-6.3237204724409448
0
LINE
8
BLACK
6
CONTINUOUS
10
5.2379329133858263
20
-6.3237204724409448
11
5.2379329133858263
21
-6.299827440944882
0
LINE
8
BLACK
6
CONTINUOUS
10
5.2379329133858263
20
-6.299827440944882
11
5.2376874015748029
21
-6.2959611811023617
0
LINE
8
BLACK
6
CONTINUOUS
10
5.2376874015748029
20
-6.2959611811023617
11
5.2370075590551179
21
-6.2927959055118112
0
LINE
8
BLACK
6
CONTINUOUS
10
5.2370075590551179
20
-6.2927959055118112
11
5.2359564173228348
21
-6.2902112598425193
0
LINE
8
BLACK
6
CONTINUOUS
10
5.2359564173228348
20
-6.2902112598425193
11
5.2345649606299212
21
-6.2881081102362204
0
LINE
8
BLACK
6
CONTINUOUS
10
5.2345649606299212
20
-6.2881081102362204
11
5.232742519685039
21
-6.286355551181102
0
LINE
8
BLACK
6
CONTINUOUS
10
5.232742519685039
20
-6.286355551181102
11
5.2305763779527554
21
-6.28509405511811
0
LINE
8
BLACK
6
CONTINUOUS
10
5.2305763779527554
20
-6.28509405511811
11
5.2279971653543305
21
-6.2843056299212599
0
LINE
8
BLACK
6
CONTINUOUS
10
5.2279971653543305
20
-6.2843056299212599
11
5.2249046456692909
21
-6.2840261811023623
0
LINE
8
BLACK
6
CONTINUOUS
10
5.2249046456692909
20
-6.2840261811023623
11
5.2216556692913381
21
-6.2843651574803152
0
LINE
8
BLACK
6
CONTINUOUS
10
5.2216556692913381
20
-6.2843651574803152
11
5.2189331889763775
21
-6.2854108661417323
0
LINE
8
BLACK
6
CONTINUOUS
10
5.2189331889763775
20
-6.2854108661417323
11
5.218972834645669
21
-6.2777951181102365
0
LINE
8
BLACK
6
CONTINUOUS
10
5.218972834645669
20
-6.2777951181102365
11
5.2210318503937003
21
-6.2774489370078737
0
LINE
8
BLACK
6
CONTINUOUS
10
5.2210318503937003
20
-6.2774489370078737
11
5.2227266535433072
21
-6.277333543307086
0
LINE
8
BLACK
6
CONTINUOUS
10
5.2227266535433072
20
-6.277333543307086
11
5.2262563779527555
21
-6.277573503937008
0
LINE
8
BLACK
6
CONTINUOUS
10
5.2776019291338585
20
-6.2784874409448816
11
5.2830505511811019
21
-6.2784874409448816
0
LINE
8
BLACK
6
CONTINUOUS
10
5.2830505511811019
20
-6.2784874409448816
11
5.2830505511811019
21
-6.2842569685039367
0
LINE
8
BLACK
6
CONTINUOUS
10
5.2830505511811019
20
-6.2842569685039367
11
5.2776019291338585
21
-6.2842569685039367
0
LINE
8
BLACK
6
CONTINUOUS
10
5.2776019291338585
20
-6.2842569685039367
11
5.2776019291338585
21
-6.3088062598425196
0
LINE
8
BLACK
6
CONTINUOUS
10
5.2776019291338585
20
-6.3088062598425196
11
5.2773388976377955
21
-6.3131987401574801
0
LINE
8
BLACK
6
CONTINUOUS
10
5.2773388976377955
20
-6.3131987401574801
11
5.2766427952755901
21
-6.3164560629921258
0
LINE
8
BLACK
6
CONTINUOUS
10
5.2766427952755901
20
-6.3164560629921258
11
5.2756220078740155
21
-6.3188253149606295
0
LINE
8
BLACK
6
CONTINUOUS
10
5.2756220078740155
20
-6.3188253149606295
11
5.274334960629921
21
-6.3205075590551179
0
LINE
8
BLACK
6
CONTINUOUS
10
5.274334960629921
20
-6.3205075590551179
11
5.2726325196850397
21
-6.3217697637795274
0
LINE
8
BLACK
6
CONTINUOUS
10
5.2726325196850397
20
-6.3217697637795274
11
5.2702322834645665
21
-6.3227744488188975
0
LINE
8
BLACK
6
CONTINUOUS
10
5.2702322834645665
20
-6.3227744488188975
11
5.2669296456692916
21
-6.3234608661417324
0
LINE
8
BLACK
6
CONTINUOUS
10
5.2669296456692916
20
-6.3234608661417324
11
5.2624750000000002
21
-6.3237204724409448
0
LINE
8
BLACK
6
CONTINUOUS
10
5.2624750000000002
20
-6.3237204724409448
11
5.2548520078740157
21
-6.3237204724409448
0
LINE
8
BLACK
6
CONTINUOUS
10
5.2548520078740157
20
-6.3237204724409448
11
5.2548520078740157
21
-6.3174893700787402
0
LINE
8
BLACK
6
CONTINUOUS
10
5.2548520078740157
20
-6.3174893700787402
11
5.2624750000000002
21
-6.3174893700787402
0
LINE
8
BLACK
6
CONTINUOUS
10
5.2624750000000002
20
-6.3174893700787402
11
5.265556771653543
21
-6.3172607480314955
0
LINE
8
BLACK
6
CONTINUOUS
10
5.265556771653543
20
-6.3172607480314955
11
5.2674890944881891
21
-6.3166949606299214
0
LINE
8
BLACK
6
CONTINUOUS
10
5.2674890944881891
20
-6.3166949606299214
11
5.2686303543307087
21
-6.3159135826771653
0
LINE
8
BLACK
6
CONTINUOUS
10
5.2686303543307087
20
-6.3159135826771653
11
5.2693568897637793
21
-6.3147237795275588
0
LINE
8
BLACK
6
CONTINUOUS
10
5.2693568897637793
20
-6.3147237795275588
11
5.2699104724409445
21
-6.3125255905511812
0
LINE
8
BLACK
6
CONTINUOUS
10
5.2699104724409445
20
-6.3125255905511812
11
5.2701412598425197
21
-6.3088062598425196
0
LINE
8
BLACK
6
CONTINUOUS
10
5.2701412598425197
20
-6.3088062598425196
11
5.2701412598425197
21
-6.2842569685039367
0
LINE
8
BLACK
6
CONTINUOUS
10
5.2701412598425197
20
-6.2842569685039367
11
5.2548520078740157
21
-6.2842569685039367
0
LINE
8
BLACK
6
CONTINUOUS
10
5.2548520078740157
20
-6.2842569685039367
11
5.2548520078740157
21
-6.2784874409448816
0
LINE
8
BLACK
6
CONTINUOUS
10
5.2548520078740157
20
-6.2784874409448816
11
5.2701412598425197
21
-6.2784874409448816
0
LINE
8
BLACK
6
CONTINUOUS
10
5.2701412598425197
20
-6.2784874409448816
11
5.2701412598425197
21
-6.2655637401574804
0
LINE
8
BLACK
6
CONTINUOUS
10
5.2701412598425197
20
-6.2655637401574804
11
5.2776019291338585
21
-6.2655637401574804
0
LINE
8
BLACK
6
CONTINUOUS
10
5.2776019291338585
20
-6.2655637401574804
11
5.2776019291338585
21
-6.2784874409448816
0
LINE
8
BLACK
6
CONTINUOUS
10
5.3966811417322837
20
-6.3237204724409448
11
5.3892564960629921
21
-6.3237204724409448
0
LINE
8
BLACK
6
CONTINUOUS
10
5.3892564960629921
20
-6.3237204724409448
11
5.3892564960629921
21
-6.2609481102362201
0
LINE
8
BLACK
6
CONTINUOUS
10
5.3892564960629921
20
-6.2609481102362201
11
5.3966811417322837
21
-6.2609481102362201
0
LINE
8
BLACK
6
CONTINUOUS
10
5.3966811417322837
20
-6.2609481102362201
11
5.3966811417322837
21
-6.3237204724409448
0
LINE
8
BLACK
6
CONTINUOUS
10
5.5373031102362207
20
-6.2775670472440943
11
5.5400908267716531
21
-6.2782335433070866
0
LINE
8
BLACK
6
CONTINUOUS
10
5.5400908267716531
20
-6.2782335433070866
11
5.5425309055118106
21
-6.2793024015748031
0
LINE
8
BLACK
6
CONTINUOUS
10
5.5425309055118106
20
-6.2793024015748031
11
5.5447253543307085
21
-6.2808067322834642
0
LINE
8
BLACK
6
CONTINUOUS
10
5.5447253543307085
20
-6.2808067322834642
11
5.5467521653543308
21
-6.2828183858267712
0
LINE
8
BLACK
6
CONTINUOUS
10
5.5467521653543308
20
-6.2828183858267712
11
5.5486213385826773
21
-6.2854108661417323
0
LINE
8
BLACK
6
CONTINUOUS
10
5.5486213385826773
20
-6.2854108661417323
11
5.5486213385826773
21
-6.2784874409448816
0
LINE
8
BLACK
6
CONTINUOUS
10
5.5486213385826773
20
-6.2784874409448816
11
5.5560856692913383
21
-6.2784874409448816
0
LINE
8
BLACK
6
CONTINUOUS
10
5.5560856692913383
20
-6.2784874409448816
11
5.5560856692913383
21
-6.3237204724409448
0
LINE
8
BLACK
6
CONTINUOUS
10
5.5560856692913383
20
-6.3237204724409448
11
5.5486213385826773
21
-6.3237204724409448
0
LINE
8
BLACK
6
CONTINUOUS
10
5.5486213385826773
20
-6.3237204724409448
11
5.5486213385826773
21
-6.2980857874015745
0
LINE
8
BLACK
6
CONTINUOUS
10
5.5486213385826773
20
-6.2980857874015745
11
5.5482124409448819
21
-6.2938180314960626
0
LINE
8
BLACK
6
CONTINUOUS
10
5.5482124409448819
20
-6.2938180314960626
11
5.5470756299212596
21
-6.29039968503937
0
LINE
8
BLACK
6
CONTINUOUS
10
5.5470756299212596
20
-6.29039968503937
11
5.5452750393700789
21
-6.2876501574803152
0
LINE
8
BLACK
6
CONTINUOUS
10
5.5452750393700789
20
-6.2876501574803152
11
5.5434724409448819
21
-6.2859772440944877
0
LINE
8
BLACK
6
CONTINUOUS
10
5.5434724409448819
20
-6.2859772440944877
11
5.5414046062992126
21
-6.284786496062992
0
LINE
8
BLACK
6
CONTINUOUS
10
5.5414046062992126
20
-6.284786496062992
11
5.5390188976377948
21
-6.2840523228346452
0
LINE
8
BLACK
6
CONTINUOUS
10
5.5390188976377948
20
-6.2840523228346452
11
5.5362385433070864
21
-6.2837953937007871
0
LINE
8
BLACK
6
CONTINUOUS
10
5.5362385433070864
20
-6.2837953937007871
11
5.5331925196850396
21
-6.2841762598425195
0
LINE
8
BLACK
6
CONTINUOUS
10
5.5331925196850396
20
-6.2841762598425195
11
5.5308867716535435
21
-6.2852278740157477
0
LINE
8
BLACK
6
CONTINUOUS
10
5.5308867716535435
20
-6.2852278740157477
11
5.5291384251968498
21
-6.2869253543307089
0
LINE
8
BLACK
6
CONTINUOUS
10
5.5291384251968498
20
-6.2869253543307089
11
5.5279527559055115
21
-6.2891401574803147
0
LINE
8
BLACK
6
CONTINUOUS
10
5.5279527559055115
20
-6.2891401574803147
11
5.527145157480315
21
-6.2922659842519684
0
LINE
8
BLACK
6
CONTINUOUS
10
5.527145157480315
20
-6.2922659842519684
11
5.5268378346456695
21
-6.2965892913385826
0
LINE
8
BLACK
6
CONTINUOUS
10
5.5268378346456695
20
-6.2965892913385826
11
5.5268378346456695
21
-6.3237204724409448
0
LINE
8
BLACK
6
CONTINUOUS
10
5.5268378346456695
20
-6.3237204724409448
11
5.5193735039370075
21
-6.3237204724409448
0
LINE
8
BLACK
6
CONTINUOUS
10
5.5193735039370075
20
-6.3237204724409448
11
5.5193735039370075
21
-6.2980857874015745
0
LINE
8
BLACK
6
CONTINUOUS
10
5.5193735039370075
20
-6.2980857874015745
11
5.5189632677165354
21
-6.2937913779527559
0
LINE
8
BLACK
6
CONTINUOUS
10
5.5189632677165354
20
-6.2937913779527559
11
5.517825354330709
21
-6.2903690157480314
0
LINE
8
BLACK
6
CONTINUOUS
10
5.517825354330709
20
-6.2903690157480314
11
5.5160272047244092
21
-6.2876321259842518
0
LINE
8
BLACK
6
CONTINUOUS
10
5.5160272047244092
20
-6.2876321259842518
11
5.5142262598425198
21
-6.2859719685039366
0
LINE
8
BLACK
6
CONTINUOUS
10
5.5142262598425198
20
-6.2859719685039366
11
5.5121468897637795
21
-6.2847862598425195
0
LINE
8
BLACK
6
CONTINUOUS
10
5.5121468897637795
20
-6.2847862598425195
11
5.5097339370078737
21
-6.2840527559055115
0
LINE
8
BLACK
6
CONTINUOUS
10
5.5097339370078737
20
-6.2840527559055115
11
5.5069077559055115
21
-6.2837953937007871
0
LINE
8
BLACK
6
CONTINUOUS
10
5.5069077559055115
20
-6.2837953937007871
11
5.5039192519685036
21
-6.2841757086614169
0
LINE
8
BLACK
6
CONTINUOUS
10
5.5039192519685036
20
-6.2841757086614169
11
5.5016381496062987
21
-6.2852306692913382
0
LINE
8
BLACK
6
CONTINUOUS
10
5.5016381496062987
20
-6.2852306692913382
11
5.499890590551181
21
-6.2869433858267714
0
LINE
8
BLACK
6
CONTINUOUS
10
5.499890590551181
20
-6.2869433858267714
11
5.4987028740157475
21
-6.2891710236220471
0
LINE
8
BLACK
6
CONTINUOUS
10
5.4987028740157475
20
-6.2891710236220471
11
5.4978962204724411
21
-6.2922938188976376
0
LINE
8
BLACK
6
CONTINUOUS
10
5.4978962204724411
20
-6.2922938188976376
11
5.4975899999999998
21
-6.2965892913385826
0
LINE
8
BLACK
6
CONTINUOUS
10
5.4975899999999998
20
-6.2965892913385826
11
5.4975899999999998
21
-6.3237204724409448
0
LINE
8
BLACK
6
CONTINUOUS
10
5.4975899999999998
20
-6.3237204724409448
11
5.4901292913385822
21
-6.3237204724409448
0
LINE
8
BLACK
6
CONTINUOUS
10
5.4901292913385822
20
-6.3237204724409448
11
5.4901292913385822
21
-6.2963440944881892
0
LINE
8
BLACK
6
CONTINUOUS
10
5.4901292913385822
20
-6.2963440944881892
11
5.4904092913385822
21
-6.2917178346456692
0
LINE
8
BLACK
6
CONTINUOUS
10
5.4904092913385822
20
-6.2917178346456692
11
5.4911848818897635
21
-6.287919960629921
0
LINE
8
BLACK
6
CONTINUOUS
10
5.4911848818897635
20
-6.287919960629921
11
5.4923823622047241
21
-6.2848117716535432
0
LINE
8
BLACK
6
CONTINUOUS
10
5.4923823622047241
20
-6.2848117716535432
11
5.4939624015748034
21
-6.282277283464567
0
LINE
8
BLACK
6
CONTINUOUS
10
5.4939624015748034
20
-6.282277283464567
11
5.4960544094488188
21
-6.2801342125984254
0
LINE
8
BLACK
6
CONTINUOUS
10
5.4960544094488188
20
-6.2801342125984254
11
5.4985118897637797
21
-6.2786097244094483
0
LINE
8
BLACK
6
CONTINUOUS
10
5.4985118897637797
20
-6.2786097244094483
11
5.5014075984251969
21
-6.2776660236220474
0
LINE
8
BLACK
6
CONTINUOUS
10
5.5014075984251969
20
-6.2776660236220474
11
5.5048523622047245
21
-6.277333543307086
0
LINE
8
BLACK
6
CONTINUOUS
10
5.5048523622047245
20
-6.277333543307086
11
5.5082804330708663
21
-6.2776118503937006
0
LINE
8
BLACK
6
CONTINUOUS
10
5.5082804330708663
20
-6.2776118503937006
11
5.5112948031496058
21
-6.2784120472440943
0
LINE
8
BLACK
6
CONTINUOUS
10
5.5112948031496058
20
-6.2784120472440943
11
5.5139681889763779
21
-6.2797098818897634
0
LINE
8
BLACK
6
CONTINUOUS
10
5.5139681889763779
20
-6.2797098818897634
11
5.516344094488189
21
-6.2815041338582676
0
LINE
8
BLACK
6
CONTINUOUS
10
5.516344094488189
20
-6.2815041338582676
11
5.5185611417322837
21
-6.2839226771653545
0
LINE
8
BLACK
6
CONTINUOUS
10
5.5185611417322837
20
-6.2839226771653545
11
5.5206247637795274
21
-6.2870696062992124
0
LINE
8
BLACK
6
CONTINUOUS
10
5.5206247637795274
20
-6.2870696062992124
11
5.5219753149606294
21
-6.2840705905511811
0
LINE
8
BLACK
6
CONTINUOUS
10
5.5219753149606294
20
-6.2840705905511811
11
5.5236766535433066
21
-6.2816877559055113
0
LINE
8
BLACK
6
CONTINUOUS
10
5.5236766535433066
20
-6.2816877559055113
11
5.5257307874015744
21
-6.2798288582677166
0
LINE
8
BLACK
6
CONTINUOUS
10
5.5257307874015744
20
-6.2798288582677166
11
5.5281382677165354
21
-6.2784657874015748
0
LINE
8
BLACK
6
CONTINUOUS
10
5.5281382677165354
20
-6.2784657874015748
11
5.5308997637795274
21
-6.2776266141732284
0
LINE
8
BLACK
6
CONTINUOUS
10
5.5308997637795274
20
-6.2776266141732284
11
5.5341001968503933
21
-6.277333543307086
0
LINE
8
BLACK
6
CONTINUOUS
10
5.5341001968503933
20
-6.277333543307086
11
5.5373031102362207
21
-6.2775670472440943
0
LINE
8
BLACK
6
CONTINUOUS
10
5.6769534251968503
20
-6.3237204724409448
11
5.6684397637795279
21
-6.3237204724409448
0
LINE
8
BLACK
6
CONTINUOUS
10
5.6684397637795279
20
-6.3237204724409448
11
5.6684397637795279
21
-6.3135661023622047
0
LINE
8
BLACK
6
CONTINUOUS
10
5.6684397637795279
20
-6.3135661023622047
11
5.6769534251968503
21
-6.3135661023622047
0
LINE
8
BLACK
6
CONTINUOUS
10
5.6769534251968503
20
-6.3135661023622047
11
5.6769534251968503
21
-6.3237204724409448
0
LINE
8
BLACK
6
CONTINUOUS
10
5.8355033464566928
20
-6.3237204724409448
11
5.8280390157480317
21
-6.3237204724409448
0
LINE
8
BLACK
6
CONTINUOUS
10
5.8280390157480317
20
-6.3237204724409448
11
5.8280390157480317
21
-6.2980857874015745
0
LINE
8
BLACK
6
CONTINUOUS
10
5.8280390157480317
20
-6.2980857874015745
11
5.8277969685039368
21
-6.2947826377952758
0
LINE
8
BLACK
6
CONTINUOUS
10
5.8277969685039368
20
-6.2947826377952758
11
5.8271151181102363
21
-6.2919948031496062
0
LINE
8
BLACK
6
CONTINUOUS
10
5.8271151181102363
20
-6.2919948031496062
11
5.8260363779527555
21
-6.2896342913385821
0
LINE
8
BLACK
6
CONTINUOUS
10
5.8260363779527555
20
-6.2896342913385821
11
5.8245701181102358
21
-6.2876321259842518
0
LINE
8
BLACK
6
CONTINUOUS
10
5.8245701181102358
20
-6.2876321259842518
11
5.8227140157480317
21
-6.2859798031496066
0
LINE
8
BLACK
6
CONTINUOUS
10
5.8227140157480317
20
-6.2859798031496066
11
5.8205587401574803
21
-6.2847927559055119
0
LINE
8
BLACK
6
CONTINUOUS
10
5.8205587401574803
20
-6.2847927559055119
11
5.8180451574803147
21
-6.2840549999999995
0
LINE
8
BLACK
6
CONTINUOUS
10
5.8180451574803147
20
-6.2840549999999995
11
5.8150900787401572
21
-6.2837953937007871
0
LINE
8
BLACK
6
CONTINUOUS
10
5.8150900787401572
20
-6.2837953937007871
11
5.8119085433070863
21
-6.2841824015748031
0
LINE
8
BLACK
6
CONTINUOUS
10
5.8119085433070863
20
-6.2841824015748031
11
5.8094683070866138
21
-6.2852542913385827
0
LINE
8
BLACK
6
CONTINUOUS
10
5.8094683070866138
20
-6.2852542913385827
11
5.8075896850393702
21
-6.2869830708661416
0
LINE
8
BLACK
6
CONTINUOUS
10
5.8075896850393702
20
-6.2869830708661416
11
5.8062864566929129
21
-6.2892509842519679
0
LINE
8
BLACK
6
CONTINUOUS
10
5.8062864566929129
20
-6.2892509842519679
11
5.805414842519685
21
-6.2923670866141732
0
LINE
8
BLACK
6
CONTINUOUS
10
5.805414842519685
20
-6.2923670866141732
11
5.8050871653543306
21
-6.2965892913385826
0
LINE
8
BLACK
6
CONTINUOUS
10
5.8050871653543306
20
-6.2965892913385826
11
5.8050871653543306
21
-6.3237204724409448
0
LINE
8
BLACK
6
CONTINUOUS
10
5.8050871653543306
20
-6.3237204724409448
11
5.7976625196850389
21
-6.3237204724409448
0
LINE
8
BLACK
6
CONTINUOUS
10
5.7976625196850389
20
-6.3237204724409448
11
5.7976625196850389
21
-6.2963440944881892
0
LINE
8
BLACK
6
CONTINUOUS
10
5.7976625196850389
20
-6.2963440944881892
11
5.7979576771653543
21
-6.2915890944881889
0
LINE
8
BLACK
6
CONTINUOUS
10
5.7979576771653543
20
-6.2915890944881889
11
5.7987703543307081
21
-6.2877415354330708
0
LINE
8
BLACK
6
CONTINUOUS
10
5.7987703543307081
20
-6.2877415354330708
11
5.8000180314960632
21
-6.2846418897637797
0
LINE
8
BLACK
6
CONTINUOUS
10
5.8000180314960632
20
-6.2846418897637797
11
5.801657913385827
21
-6.2821583070866138
0
LINE
8
BLACK
6
CONTINUOUS
10
5.801657913385827
20
-6.2821583070866138
11
5.8038156692913381
21
-6.2801030314960631
0
LINE
8
BLACK
6
CONTINUOUS
10
5.8038156692913381
20
-6.2801030314960631
11
5.8064284251968505
21
-6.2786105511811021
0
LINE
8
BLACK
6
CONTINUOUS
10
5.8064284251968505
20
-6.2786105511811021
11
5.8095903543307088
21
-6.2776694881889759
0
LINE
8
BLACK
6
CONTINUOUS
10
5.8095903543307088
20
-6.2776694881889759
11
5.8134349212598426
21
-6.277333543307086
0
LINE
8
BLACK
6
CONTINUOUS
10
5.8134349212598426
20
-6.277333543307086
11
5.8165292913385827
21
-6.2775677165354331
0
LINE
8
BLACK
6
CONTINUOUS
10
5.8165292913385827
20
-6.2775677165354331
11
5.8192885039370079
21
-6.2782438188976375
0
LINE
8
BLACK
6
CONTINUOUS
10
5.8192885039370079
20
-6.2782438188976375
11
5.8217682677165357
21
-6.2793420472440946
0
LINE
8
BLACK
6
CONTINUOUS
10
5.8217682677165357
20
-6.2793420472440946
11
5.8240150000000002
21
-6.2808648425196845
0
LINE
8
BLACK
6
CONTINUOUS
10
5.8240150000000002
20
-6.2808648425196845
11
5.8261017716535433
21
-6.2828667716535431
0
LINE
8
BLACK
6
CONTINUOUS
10
5.8261017716535433
20
-6.2828667716535431
11
5.8280390157480317
21
-6.2854108661417323
0
LINE
8
BLACK
6
CONTINUOUS
10
5.8280390157480317
20
-6.2854108661417323
11
5.8280390157480317
21
-6.2609481102362201
0
LINE
8
BLACK
6
CONTINUOUS
10
5.8280390157480317
20
-6.2609481102362201
11
5.8355033464566928
21
-6.2609481102362201
0
LINE
8
BLACK
6
CONTINUOUS
10
5.8355033464566928
20
-6.2609481102362201
11
5.8355033464566928
21
-6.3237204724409448
0
LINE
8
BLACK
6
CONTINUOUS
10
5.867708031496063
20
-6.2784874409448816
11
5.8731566535433073
21
-6.2784874409448816
0
LINE
8
BLACK
6
CONTINUOUS
10
5.8731566535433073
20
-6.2784874409448816
11
5.8731566535433073
21
-6.2842569685039367
0
LINE
8
BLACK
6
CONTINUOUS
10
5.8731566535433073
20
-6.2842569685039367
11
5.867708031496063
21
-6.2842569685039367
0
LINE
8
BLACK
6
CONTINUOUS
10
5.867708031496063
20
-6.2842569685039367
11
5.867708031496063
21
-6.3088062598425196
0
LINE
8
BLACK
6
CONTINUOUS
10
5.867708031496063
20
-6.3088062598425196
11
5.867445
21
-6.3131987401574801
0
LINE
8
BLACK
6
CONTINUOUS
10
5.867445
20
-6.3131987401574801
11
5.8667488976377955
21
-6.3164560629921258
0
LINE
8
BLACK
6
CONTINUOUS
10
5.8667488976377955
20
-6.3164560629921258
11
5.86572811023622
21
-6.3188253149606295
0
LINE
8
BLACK
6
CONTINUOUS
10
5.86572811023622
20
-6.3188253149606295
11
5.8644410629921255
21
-6.3205075590551179
0
LINE
8
BLACK
6
CONTINUOUS
10
5.8644410629921255
20
-6.3205075590551179
11
5.8627386220472442
21
-6.3217697637795274
0
LINE
8
BLACK
6
CONTINUOUS
10
5.8627386220472442
20
-6.3217697637795274
11
5.8603383858267719
21
-6.3227744488188975
0
LINE
8
BLACK
6
CONTINUOUS
10
5.8603383858267719
20
-6.3227744488188975
11
5.8570357480314961
21
-6.3234608661417324
0
LINE
8
BLACK
6
CONTINUOUS
10
5.8570357480314961
20
-6.3234608661417324
11
5.8525811023622047
21
-6.3237204724409448
0
LINE
8
BLACK
6
CONTINUOUS
10
5.8525811023622047
20
-6.3237204724409448
11
5.8449581102362203
21
-6.3237204724409448
0
LINE
8
BLACK
6
CONTINUOUS
10
5.8449581102362203
20
-6.3237204724409448
11
5.8449581102362203
21
-6.3174893700787402
0
LINE
8
BLACK
6
CONTINUOUS
10
5.8449581102362203
20
-6.3174893700787402
11
5.8525811023622047
21
-6.3174893700787402
0
LINE
8
BLACK
6
CONTINUOUS
10
5.8525811023622047
20
-6.3174893700787402
11
5.8556628740157475
21
-6.3172607480314955
0
LINE
8
BLACK
6
CONTINUOUS
10
5.8556628740157475
20
-6.3172607480314955
11
5.8575951968503936
21
-6.3166949606299214
0
LINE
8
BLACK
6
CONTINUOUS
10
5.8575951968503936
20
-6.3166949606299214
11
5.8587364566929132
21
-6.3159135826771653
0
LINE
8
BLACK
6
CONTINUOUS
10
5.8587364566929132
20
-6.3159135826771653
11
5.8594629921259838
21
-6.3147237795275588
0
LINE
8
BLACK
6
CONTINUOUS
10
5.8594629921259838
20
-6.3147237795275588
11
5.8600165748031499
21
-6.3125255905511812
0
LINE
8
BLACK
6
CONTINUOUS
10
5.8600165748031499
20
-6.3125255905511812
11
5.8602473622047242
21
-6.3088062598425196
0
LINE
8
BLACK
6
CONTINUOUS
10
5.8602473622047242
20
-6.3088062598425196
11
5.8602473622047242
21
-6.2842569685039367
0
LINE
8
BLACK
6
CONTINUOUS
10
5.8602473622047242
20
-6.2842569685039367
11
5.8449581102362203
21
-6.2842569685039367
0
LINE
8
BLACK
6
CONTINUOUS
10
5.8449581102362203
20
-6.2842569685039367
11
5.8449581102362203
21
-6.2784874409448816
0
LINE
8
BLACK
6
CONTINUOUS
10
5.8449581102362203
20
-6.2784874409448816
11
5.8602473622047242
21
-6.2784874409448816
0
LINE
8
BLACK
6
CONTINUOUS
10
5.8602473622047242
20
-6.2784874409448816
11
5.8602473622047242
21
-6.2655637401574804
0
LINE
8
BLACK
6
CONTINUOUS
10
5.8602473622047242
20
-6.2655637401574804
11
5.867708031496063
21
-6.2655637401574804
0
LINE
8
BLACK
6
CONTINUOUS
10
5.867708031496063
20
-6.2655637401574804
11
5.867708031496063
21
-6.2784874409448816
0
LINE
8
BLACK
6
CONTINUOUS
10
5.8905517322834644
20
-6.3237204724409448
11
5.8831270866141727
21
-6.3237204724409448
0
LINE
8
BLACK
6
CONTINUOUS
10
5.8831270866141727
20
-6.3237204724409448
11
5.8831270866141727
21
-6.2784874409448816
0
LINE
8
BLACK
6
CONTINUOUS
10
5.8831270866141727
20
-6.2784874409448816
11
5.8905517322834644
21
-6.2784874409448816
0
LINE
8
BLACK
6
CONTINUOUS
10
5.8905517322834644
20
-6.2784874409448816
11
5.8905517322834644
21
-6.3237204724409448
0
LINE
8
BLACK
6
CONTINUOUS
10
4.7833815748031494
20
-6.3043348818897638
11
4.7616377165354331
21
-6.3043348818897638
0
LINE
8
BLACK
6
CONTINUOUS
10
4.7616377165354331
20
-6.3043348818897638
11
4.7616377165354331
21
-6.2976422440944884
0
LINE
8
BLACK
6
CONTINUOUS
10
4.7616377165354331
20
-6.2976422440944884
11
4.7833815748031494
21
-6.2976422440944884
0
LINE
8
BLACK
6
CONTINUOUS
10
4.7833815748031494
20
-6.2976422440944884
11
4.7833815748031494
21
-6.3043348818897638
0
LINE
8
BLACK
6
CONTINUOUS
10
5.159124921259842
20
-6.2704101181102363
11
5.1516606299212597
21
-6.2704101181102363
0
LINE
8
BLACK
6
CONTINUOUS
10
5.1516606299212597
20
-6.2704101181102363
11
5.1516606299212597
21
-6.2609481102362201
0
LINE
8
BLACK
6
CONTINUOUS
10
5.1516606299212597
20
-6.2609481102362201
11
5.159124921259842
21
-6.2609481102362201
0
LINE
8
BLACK
6
CONTINUOUS
10
5.159124921259842
20
-6.2609481102362201
11
5.159124921259842
21
-6.2704101181102363
0
LINE
8
BLACK
6
CONTINUOUS
10
5.2111335039370079
20
-6.2704101181102363
11
5.2037088582677162
21
-6.2704101181102363
0
LINE
8
BLACK
6
CONTINUOUS
10
5.2037088582677162
20
-6.2704101181102363
11
5.2037088582677162
21
-6.2609481102362201
0
LINE
8
BLACK
6
CONTINUOUS
10
5.2037088582677162
20
-6.2609481102362201
11
5.2111335039370079
21
-6.2609481102362201
0
LINE
8
BLACK
6
CONTINUOUS
10
5.2111335039370079
20
-6.2609481102362201
11
5.2111335039370079
21
-6.2704101181102363
0
LINE
8
BLACK
6
CONTINUOUS
10
5.8905517322834644
20
-6.2704101181102363
11
5.8831270866141727
21
-6.2704101181102363
0
LINE
8
BLACK
6
CONTINUOUS
10
5.8831270866141727
20
-6.2704101181102363
11
5.8831270866141727
21
-6.2609481102362201
0
LINE
8
BLACK
6
CONTINUOUS
10
5.8831270866141727
20
-6.2609481102362201
11
5.8905517322834644
21
-6.2609481102362201
0
LINE
8
BLACK
6
CONTINUOUS
10
5.8905517322834644
20
-6.2609481102362201
11
5.8905517322834644
21
-6.2704101181102363
0
CIRCLE
8
BLACK
10
6.1641338582677161
20
-5.1218503937007869
40
0.0236220472440945
0
CIRCLE
8
BLACK
10
6.1641338582677161
20
-4.7281496062992128
40
0.0236220472440945
0
CIRCLE
8
BLACK
10
6.0657086614173226
20
-5.1218503937007869
40
0.0236220472440945
0
CIRCLE
8
BLACK
10
6.0657086614173226
20
-4.7281496062992128
40
0.0236220472440945
0
CIRCLE
8
BLACK
10
5.8688582677165355
20
-4.9249999999999998
40
0.0236220472440945
0
LINE
8
BLACK
6
CONTINUOUS
10
5.8846933070866143
20
-5.1062370866141729
11
5.8886642913385829
21
-5.1073011023622046
0
LINE
8
BLACK
6
CONTINUOUS
10
5.8886642913385829
20
-5.1073011023622046
11
5.8922246062992123
21
-5.1093566535433066
0
LINE
8
BLACK
6
CONTINUOUS
10
5.8922246062992123
20
-5.1093566535433066
11
5.8951315354330704
21
-5.1122635826771656
0
LINE
8
BLACK
6
CONTINUOUS
10
5.8951315354330704
20
-5.1122635826771656
11
5.8971870866141733
21
-5.115823897637795
0
LINE
8
BLACK
6
CONTINUOUS
10
5.8971870866141733
20
-5.115823897637795
11
5.8982511023622042
21
-5.1197948818897636
0
LINE
8
BLACK
6
CONTINUOUS
10
5.8982511023622042
20
-5.1197948818897636
11
5.8982511023622042
21
-5.123905905511811
0
LINE
8
BLACK
6
CONTINUOUS
10
5.8982511023622042
20
-5.123905905511811
11
5.8971870866141733
21
-5.1278768897637796
0
LINE
8
BLACK
6
CONTINUOUS
10
5.8971870866141733
20
-5.1278768897637796
11
5.8951315354330704
21
-5.131437204724409
0
LINE
8
BLACK
6
CONTINUOUS
10
5.8951315354330704
20
-5.131437204724409
11
5.8922246062992123
21
-5.1343441338582672
0
LINE
8
BLACK
6
CONTINUOUS
10
5.8922246062992123
20
-5.1343441338582672
11
5.8886642913385829
21
-5.1363996850393701
0
LINE
8
BLACK
6
CONTINUOUS
10
5.8886642913385829
20
-5.1363996850393701
11
5.8846933070866143
21
-5.1374637007874018
0
LINE
8
BLACK
6
CONTINUOUS
10
5.8846933070866143
20
-5.1374637007874018
11
5.8826377952755902
21
-5.1375984251968498
0
LINE
8
BLACK
6
CONTINUOUS
10
5.8826377952755902
20
-5.1375984251968498
11
5.85507874015748
21
-5.1375984251968498
0
LINE
8
BLACK
6
CONTINUOUS
10
5.85507874015748
20
-5.1375984251968498
11
5.8530232283464567
21
-5.1374637007874018
0
LINE
8
BLACK
6
CONTINUOUS
10
5.8530232283464567
20
-5.1374637007874018
11
5.8490522440944881
21
-5.1363996850393701
0
LINE
8
BLACK
6
CONTINUOUS
10
5.8490522440944881
20
-5.1363996850393701
11
5.8454919291338578
21
-5.1343441338582672
0
LINE
8
BLACK
6
CONTINUOUS
10
5.8454919291338578
20
-5.1343441338582672
11
5.8425849999999997
21
-5.131437204724409
0
LINE
8
BLACK
6
CONTINUOUS
10
5.8425849999999997
20
-5.131437204724409
11
5.8405294488188977
21
-5.1278768897637796
0
LINE
8
BLACK
6
CONTINUOUS
10
5.8405294488188977
20
-5.1278768897637796
11
5.839465433070866
21
-5.123905905511811
0
LINE
8
BLACK
6
CONTINUOUS
10
5.839465433070866
20
-5.123905905511811
11
5.839465433070866
21
-5.1197948818897636
0
LINE
8
BLACK
6
CONTINUOUS
10
5.839465433070866
20
-5.1197948818897636
11
5.8405294488188977
21
-5.115823897637795
0
LINE
8
BLACK
6
CONTINUOUS
10
5.8405294488188977
20
-5.115823897637795
11
5.8425849999999997
21
-5.1122635826771656
0
LINE
8
BLACK
6
CONTINUOUS
10
5.8425849999999997
20
-5.1122635826771656
11
5.8454919291338578
21
-5.1093566535433066
0
LINE
8
BLACK
6
CONTINUOUS
10
5.8454919291338578
20
-5.1093566535433066
11
5.8490522440944881
21
-5.1073011023622046
0
LINE
8
BLACK
6
CONTINUOUS
10
5.8490522440944881
20
-5.1073011023622046
11
5.8530232283464567
21
-5.1062370866141729
0
LINE
8
BLACK
6
CONTINUOUS
10
5.8530232283464567
20
-5.1062370866141729
11
5.85507874015748
21
-5.1061023622047239
0
LINE
8
BLACK
6
CONTINUOUS
10
5.85507874015748
20
-5.1061023622047239
11
5.8826377952755902
21
-5.1061023622047239
0
LINE
8
BLACK
6
CONTINUOUS
10
5.8826377952755902
20
-5.1061023622047239
11
5.8846933070866143
21
-5.1062370866141729
0
LINE
8
BLACK
6
CONTINUOUS
10
5.8846933070866143
20
-5.0078118897637793
11
5.8886642913385829
21
-5.0088759055118111
0
LINE
8
BLACK
6
CONTINUOUS
10
5.8886642913385829
20
-5.0088759055118111
11
5.8922246062992123
21
-5.0109314566929131
0
LINE
8
BLACK
6
CONTINUOUS
10
5.8922246062992123
20
-5.0109314566929131
11
5.8951315354330704
21
-5.0138383858267712
0
LINE
8
BLACK
6
CONTINUOUS
10
5.8951315354330704
20
-5.0138383858267712
11
5.8971870866141733
21
-5.0173987007874015
0
LINE
8
BLACK
6
CONTINUOUS
10
5.8971870866141733
20
-5.0173987007874015
11
5.8982511023622042
21
-5.0213696850393701
0
LINE
8
BLACK
6
CONTINUOUS
10
5.8982511023622042
20
-5.0213696850393701
11
5.8982511023622042
21
-5.0254807086614175
0
LINE
8
BLACK
6
CONTINUOUS
10
5.8982511023622042
20
-5.0254807086614175
11
5.8971870866141733
21
-5.0294516929133861
0
LINE
8
BLACK
6
CONTINUOUS
10
5.8971870866141733
20
-5.0294516929133861
11
5.8951315354330704
21
-5.0330120078740155
0
LINE
8
BLACK
6
CONTINUOUS
10
5.8951315354330704
20
-5.0330120078740155
11
5.8922246062992123
21
-5.0359189370078736
0
LINE
8
BLACK
6
CONTINUOUS
10
5.8922246062992123
20
-5.0359189370078736
11
5.8886642913385829
21
-5.0379744881889765
0
LINE
8
BLACK
6
CONTINUOUS
10
5.8886642913385829
20
-5.0379744881889765
11
5.8846933070866143
21
-5.0390385039370074
0
LINE
8
BLACK
6
CONTINUOUS
10
5.8846933070866143
20
-5.0390385039370074
11
5.8826377952755902
21
-5.0391732283464563
0
LINE
8
BLACK
6
CONTINUOUS
10
5.8826377952755902
20
-5.0391732283464563
11
5.85507874015748
21
-5.0391732283464563
0
LINE
8
BLACK
6
CONTINUOUS
10
5.85507874015748
20
-5.0391732283464563
11
5.8530232283464567
21
-5.0390385039370074
0
LINE
8
BLACK
6
CONTINUOUS
10
5.8530232283464567
20
-5.0390385039370074
11
5.8490522440944881
21
-5.0379744881889765
0
LINE
8
BLACK
6
CONTINUOUS
10
5.8490522440944881
20
-5.0379744881889765
11
5.8454919291338578
21
-5.0359189370078736
0
LINE
8
BLACK
6
CONTINUOUS
10
5.8454919291338578
20
-5.0359189370078736
11
5.8425849999999997
21
-5.0330120078740155
0
LINE
8
BLACK
6
CONTINUOUS
10
5.8425849999999997
20
-5.0330120078740155
11
5.8405294488188977
21
-5.0294516929133861
0
LINE
8
BLACK
6
CONTINUOUS
10
5.8405294488188977
20
-5.0294516929133861
11
5.839465433070866
21
-5.0254807086614175
0
LINE
8
BLACK
6
CONTINUOUS
10
5.839465433070866
20
-5.0254807086614175
11
5.839465433070866
21
-5.0213696850393701
0
LINE
8
BLACK
6
CONTINUOUS
10
5.839465433070866
20
-5.0213696850393701
11
5.8405294488188977
21
-5.0173987007874015
0
LINE
8
BLACK
6
CONTINUOUS
10
5.8405294488188977
20
-5.0173987007874015
11
5.8425849999999997
21
-5.0138383858267712
0
LINE
8
BLACK
6
CONTINUOUS
10
5.8425849999999997
20
-5.0138383858267712
11
5.8454919291338578
21
-5.0109314566929131
0
LINE
8
BLACK
6
CONTINUOUS
10
5.8454919291338578
20
-5.0109314566929131
11
5.8490522440944881
21
-5.0088759055118111
0
LINE
8
BLACK
6
CONTINUOUS
10
5.8490522440944881
20
-5.0088759055118111
11
5.8530232283464567
21
-5.0078118897637793
0
LINE
8
BLACK
6
CONTINUOUS
10
5.8530232283464567
20
-5.0078118897637793
11
5.85507874015748
21
-5.0076771653543304
0
LINE
8
BLACK
6
CONTINUOUS
10
5.85507874015748
20
-5.0076771653543304
11
5.8826377952755902
21
-5.0076771653543304
0
LINE
8
BLACK
6
CONTINUOUS
10
5.8826377952755902
20
-5.0076771653543304
11
5.8846933070866143
21
-5.0078118897637793
0
LINE
8
BLACK
6
CONTINUOUS
10
6.0500953543307086
20
-4.909164960629921
11
6.0511593700787403
21
-4.9051939763779524
0
LINE
8
BLACK
6
CONTINUOUS
10
6.0511593700787403
20
-4.9051939763779524
11
6.0532149212598423
21
-4.901633661417323
0
LINE
8
BLACK
6
CONTINUOUS
10
6.0532149212598423
20
-4.901633661417323
11
6.0561218503937004
21
-4.8987267322834649
0
LINE
8
BLACK
6
CONTINUOUS
10
6.0561218503937004
20
-4.8987267322834649
11
6.0596821653543307
21
-4.896671181102362
0
LINE
8
BLACK
6
CONTINUOUS
10
6.0596821653543307
20
-4.896671181102362
11
6.0636531496062993
21
-4.8956071653543303
0
LINE
8
BLACK
6
CONTINUOUS
10
6.0636531496062993
20
-4.8956071653543303
11
6.0677641732283467
21
-4.8956071653543303
0
LINE
8
BLACK
6
CONTINUOUS
10
6.0677641732283467
20
-4.8956071653543303
11
6.0717351574803144
21
-4.896671181102362
0
LINE
8
BLACK
6
CONTINUOUS
10
6.0717351574803144
20
-4.896671181102362
11
6.0752954724409447
21
-4.8987267322834649
0
LINE
8
BLACK
6
CONTINUOUS
10
6.0752954724409447
20
-4.8987267322834649
11
6.0782024015748028
21
-4.901633661417323
0
LINE
8
BLACK
6
CONTINUOUS
10
6.0782024015748028
20
-4.901633661417323
11
6.0802579527559057
21
-4.9051939763779524
0
LINE
8
BLACK
6
CONTINUOUS
10
6.0802579527559057
20
-4.9051939763779524
11
6.0813219685039366
21
-4.909164960629921
0
LINE
8
BLACK
6
CONTINUOUS
10
6.0813219685039366
20
-4.909164960629921
11
6.0814566929133855
21
-4.9112204724409452
0
LINE
8
BLACK
6
CONTINUOUS
10
6.0814566929133855
20
-4.9112204724409452
11
6.0814566929133855
21
-4.9387795275590554
0
LINE
8
BLACK
6
CONTINUOUS
10
6.0814566929133855
20
-4.9387795275590554
11
6.0813219685039366
21
-4.9408350393700786
0
LINE
8
BLACK
6
CONTINUOUS
10
6.0813219685039366
20
-4.9408350393700786
11
6.0802579527559057
21
-4.9448060236220472
0
LINE
8
BLACK
6
CONTINUOUS
10
6.0802579527559057
20
-4.9448060236220472
11
6.0782024015748028
21
-4.9483663385826775
0
LINE
8
BLACK
6
CONTINUOUS
10
6.0782024015748028
20
-4.9483663385826775
11
6.0752954724409447
21
-4.9512732677165356
0
LINE
8
BLACK
6
CONTINUOUS
10
6.0752954724409447
20
-4.9512732677165356
11
6.0717351574803144
21
-4.9533288188976377
0
LINE
8
BLACK
6
CONTINUOUS
10
6.0717351574803144
20
-4.9533288188976377
11
6.0677641732283467
21
-4.9543928346456694
0
LINE
8
BLACK
6
CONTINUOUS
10
6.0677641732283467
20
-4.9543928346456694
11
6.0636531496062993
21
-4.9543928346456694
0
LINE
8
BLACK
6
CONTINUOUS
10
6.0636531496062993
20
-4.9543928346456694
11
6.0596821653543307
21
-4.9533288188976377
0
LINE
8
BLACK
6
CONTINUOUS
10
6.0596821653543307
20
-4.9533288188976377
11
6.0561218503937004
21
-4.9512732677165356
0
LINE
8
BLACK
6
CONTINUOUS
10
6.0561218503937004
20
-4.9512732677165356
11
6.0532149212598423
21
-4.9483663385826775
0
LINE
8
BLACK
6
CONTINUOUS
10
6.0532149212598423
20
-4.9483663385826775
11
6.0511593700787403
21
-4.9448060236220472
0
LINE
8
BLACK
6
CONTINUOUS
10
6.0511593700787403
20
-4.9448060236220472
11
6.0500953543307086
21
-4.9408350393700786
0
LINE
8
BLACK
6
CONTINUOUS
10
6.0500953543307086
20
-4.9408350393700786
11
6.0499606299212596
21
-4.9387795275590554
0
LINE
8
BLACK
6
CONTINUOUS
10
6.0499606299212596
20
-4.9387795275590554
11
6.0499606299212596
21
-4.9112204724409452
0
LINE
8
BLACK
6
CONTINUOUS
10
6.0499606299212596
20
-4.9112204724409452
11
6.0500953543307086
21
-4.909164960629921
0
LINE
8
BLACK
6
CONTINUOUS
10
5.8846933070866143
20
-4.7125362992125988
11
5.8886642913385829
21
-4.7136003149606296
0
LINE
8
BLACK
6
CONTINUOUS
10
5.8886642913385829
20
-4.7136003149606296
11
5.8922246062992123
21
-4.7156558661417325
0
LINE
8
BLACK
6
CONTINUOUS
10
5.8922246062992123
20
-4.7156558661417325
11
5.8951315354330704
21
-4.7185627952755906
0
LINE
8
BLACK
6
CONTINUOUS
10
5.8951315354330704
20
-4.7185627952755906
11
5.8971870866141733
21
-4.72212311023622
0
LINE
8
BLACK
6
CONTINUOUS
10
5.8971870866141733
20
-4.72212311023622
11
5.8982511023622042
21
-4.7260940944881886
0
LINE
8
BLACK
6
CONTINUOUS
10
5.8982511023622042
20
-4.7260940944881886
11
5.8982511023622042
21
-4.730205118110236
0
LINE
8
BLACK
6
CONTINUOUS
10
5.8982511023622042
20
-4.730205118110236
11
5.8971870866141733
21
-4.7341761023622047
0
LINE
8
BLACK
6
CONTINUOUS
10
5.8971870866141733
20
-4.7341761023622047
11
5.8951315354330704
21
-4.7377364173228349
0
LINE
8
BLACK
6
CONTINUOUS
10
5.8951315354330704
20
-4.7377364173228349
11
5.8922246062992123
21
-4.7406433464566931
0
LINE
8
BLACK
6
CONTINUOUS
10
5.8922246062992123
20
-4.7406433464566931
11
5.8886642913385829
21
-4.7426988976377951
0
LINE
8
BLACK
6
CONTINUOUS
10
5.8886642913385829
20
-4.7426988976377951
11
5.8846933070866143
21
-4.7437629133858268
0
LINE
8
BLACK
6
CONTINUOUS
10
5.8846933070866143
20
-4.7437629133858268
11
5.8826377952755902
21
-4.7438976377952757
0
LINE
8
BLACK
6
CONTINUOUS
10
5.8826377952755902
20
-4.7438976377952757
11
5.85507874015748
21
-4.7438976377952757
0
LINE
8
BLACK
6
CONTINUOUS
10
5.85507874015748
20
-4.7438976377952757
11
5.8530232283464567
21
-4.7437629133858268
0
LINE
8
BLACK
6
CONTINUOUS
10
5.8530232283464567
20
-4.7437629133858268
11
5.8490522440944881
21
-4.7426988976377951
0
LINE
8
BLACK
6
CONTINUOUS
10
5.8490522440944881
20
-4.7426988976377951
11
5.8454919291338578
21
-4.7406433464566931
0
LINE
8
BLACK
6
CONTINUOUS
10
5.8454919291338578
20
-4.7406433464566931
11
5.8425849999999997
21
-4.7377364173228349
0
LINE
8
BLACK
6
CONTINUOUS
10
5.8425849999999997
20
-4.7377364173228349
11
5.8405294488188977
21
-4.7341761023622047
0
LINE
8
BLACK
6
CONTINUOUS
10
5.8405294488188977
20
-4.7341761023622047
11
5.839465433070866
21
-4.730205118110236
0
LINE
8
BLACK
6
CONTINUOUS
10
5.839465433070866
20
-4.730205118110236
11
5.839465433070866
21
-4.7260940944881886
0
LINE
8
BLACK
6
CONTINUOUS
10
5.839465433070866
20
-4.7260940944881886
11
5.8405294488188977
21
-4.72212311023622
0
LINE
8
BLACK
6
CONTINUOUS
10
5.8405294488188977
20
-4.72212311023622
11
5.8425849999999997
21
-4.7185627952755906
0
LINE
8
BLACK
6
CONTINUOUS
10
5.8425849999999997
20
-4.7185627952755906
11
5.8454919291338578
21
-4.7156558661417325
0
LINE
8
BLACK
6
CONTINUOUS
10
5.8454919291338578
20
-4.7156558661417325
11
5.8490522440944881
21
-4.7136003149606296
0
LINE
8
BLACK
6
CONTINUOUS
10
5.8490522440944881
20
-4.7136003149606296
11
5.8530232283464567
21
-4.7125362992125988
0
LINE
8
BLACK
6
CONTINUOUS
10
5.8530232283464567
20
-4.7125362992125988
11
5.85507874015748
21
-4.7124015748031498
0
LINE
8
BLACK
6
CONTINUOUS
10
5.85507874015748
20
-4.7124015748031498
11
5.8826377952755902
21
-4.7124015748031498
0
LINE
8
BLACK
6
CONTINUOUS
10
5.8826377952755902
20
-4.7124015748031498
11
5.8846933070866143
21
-4.7125362992125988
0
LINE
8
BLACK
6
CONTINUOUS
10
5.8846933070866143
20
-4.8109614960629923
11
5.8886642913385829
21
-4.8120255118110231
0
LINE
8
BLACK
6
CONTINUOUS
10
5.8886642913385829
20
-4.8120255118110231
11
5.8922246062992123
21
-4.814081062992126
0
LINE
8
BLACK
6
CONTINUOUS
10
5.8922246062992123
20
-4.814081062992126
11
5.8951315354330704
21
-4.8169879921259842
0
LINE
8
BLACK
6
CONTINUOUS
10
5.8951315354330704
20
-4.8169879921259842
11
5.8971870866141733
21
-4.8205483070866144
0
LINE
8
BLACK
6
CONTINUOUS
10
5.8971870866141733
20
-4.8205483070866144
11
5.8982511023622042
21
-4.8245192913385821
0
LINE
8
BLACK
6
CONTINUOUS
10
5.8982511023622042
20
-4.8245192913385821
11
5.8982511023622042
21
-4.8286303149606296
0
LINE
8
BLACK
6
CONTINUOUS
10
5.8982511023622042
20
-4.8286303149606296
11
5.8971870866141733
21
-4.8326012992125982
0
LINE
8
BLACK
6
CONTINUOUS
10
5.8971870866141733
20
-4.8326012992125982
11
5.8951315354330704
21
-4.8361616141732284
0
LINE
8
BLACK
6
CONTINUOUS
10
5.8951315354330704
20
-4.8361616141732284
11
5.8922246062992123
21
-4.8390685433070866
0
LINE
8
BLACK
6
CONTINUOUS
10
5.8922246062992123
20
-4.8390685433070866
11
5.8886642913385829
21
-4.8411240944881886
0
LINE
8
BLACK
6
CONTINUOUS
10
5.8886642913385829
20
-4.8411240944881886
11
5.8846933070866143
21
-4.8421881102362203
0
LINE
8
BLACK
6
CONTINUOUS
10
5.8846933070866143
20
-4.8421881102362203
11
5.8826377952755902
21
-4.8423228346456693
0
LINE
8
BLACK
6
CONTINUOUS
10
5.8826377952755902
20
-4.8423228346456693
11
5.85507874015748
21
-4.8423228346456693
0
LINE
8
BLACK
6
CONTINUOUS
10
5.85507874015748
20
-4.8423228346456693
11
5.8530232283464567
21
-4.8421881102362203
0
LINE
8
BLACK
6
CONTINUOUS
10
5.8530232283464567
20
-4.8421881102362203
11
5.8490522440944881
21
-4.8411240944881886
0
LINE
8
BLACK
6
CONTINUOUS
10
5.8490522440944881
20
-4.8411240944881886
11
5.8454919291338578
21
-4.8390685433070866
0
LINE
8
BLACK
6
CONTINUOUS
10
5.8454919291338578
20
-4.8390685433070866
11
5.8425849999999997
21
-4.8361616141732284
0
LINE
8
BLACK
6
CONTINUOUS
10
5.8425849999999997
20
-4.8361616141732284
11
5.8405294488188977
21
-4.8326012992125982
0
LINE
8
BLACK
6
CONTINUOUS
10
5.8405294488188977
20
-4.8326012992125982
11
5.839465433070866
21
-4.8286303149606296
0
LINE
8
BLACK
6
CONTINUOUS
10
5.839465433070866
20
-4.8286303149606296
11
5.839465433070866
21
-4.8245192913385821
0
LINE
8
BLACK
6
CONTINUOUS
10
5.839465433070866
20
-4.8245192913385821
11
5.8405294488188977
21
-4.8205483070866144
0
LINE
8
BLACK
6
CONTINUOUS
10
5.8405294488188977
20
-4.8205483070866144
11
5.8425849999999997
21
-4.8169879921259842
0
LINE
8
BLACK
6
CONTINUOUS
10
5.8425849999999997
20
-4.8169879921259842
11
5.8454919291338578
21
-4.814081062992126
0
LINE
8
BLACK
6
CONTINUOUS
10
5.8454919291338578
20
-4.814081062992126
11
5.8490522440944881
21
-4.8120255118110231
0
LINE
8
BLACK
6
CONTINUOUS
10
5.8490522440944881
20
-4.8120255118110231
11
5.8530232283464567
21
-4.8109614960629923
0
LINE
8
BLACK
6
CONTINUOUS
10
5.8530232283464567
20
-4.8109614960629923
11
5.85507874015748
21
-4.8108267716535433
0
LINE
8
BLACK
6
CONTINUOUS
10
5.85507874015748
20
-4.8108267716535433
11
5.8826377952755902
21
-4.8108267716535433
0
LINE
8
BLACK
6
CONTINUOUS
10
5.8826377952755902
20
-4.8108267716535433
11
5.8846933070866143
21
-4.8109614960629923
0
CIRCLE
8
BLACK
10
2.5590551181102361
20
-6.148031496062992
40
0.0196850393700787
0
CIRCLE
8
BLACK
10
2.459055118110236
20
-6.148031496062992
40
0.0196850393700787
0
CIRCLE
8
BLACK
10
2.5590551181102361
20
-6.0480314960629924
40
0.0196850393700787
0
CIRCLE
8
BLACK
10
2.459055118110236
20
-6.0480314960629924
40
0.0196850393700787
0
CIRCLE
8
BLACK
10
2.5590551181102361
20
-5.9480314960629919
40
0.0196850393700787
0
CIRCLE
8
BLACK
10
2.459055118110236
20
-5.9480314960629919
40
0.0196850393700787
0
CIRCLE
8
BLACK
10
2.5590551181102361
20
-5.8480314960629922
40
0.0196850393700787
0
CIRCLE
8
BLACK
10
2.459055118110236
20
-5.8480314960629922
40
0.0196850393700787
0
CIRCLE
8
BLACK
10
2.5590551181102361
20
-5.7480314960629917
40
0.0196850393700787
0
CIRCLE
8
BLACK
10
2.459055118110236
20
-5.7480314960629917
40
0.0196850393700787
0
CIRCLE
8
BLACK
10
2.5590551181102361
20
-5.648031496062992
40
0.0196850393700787
0
CIRCLE
8
BLACK
10
2.459055118110236
20
-5.648031496062992
40
0.0196850393700787
0
CIRCLE
8
BLACK
10
2.5800000000000001
20
-5.1725196850393695
40
0.062992125984252
0
CIRCLE
8
BLACK
10
2.4409448818897639
20
-6.4173228346456694
40
0.0196850393700787
0
CIRCLE
8
BLACK
10
2.5409448818897635
20
-6.4173228346456694
40
0.0196850393700787
0
CIRCLE
8
BLACK
10
2.6409448818897636
20
-6.4173228346456694
40
0.0196850393700787
0
CIRCLE
8
BLACK
10
2.7409448818897637
20
-6.4173228346456694
40
0.0196850393700787
0
CIRCLE
8
BLACK
10
2.8409448818897638
20
-6.4173228346456694
40
0.0196850393700787
0
CIRCLE
8
BLACK
10
2.9409448818897639
20
-6.4173228346456694
40
0.0196850393700787
0
CIRCLE
8
BLACK
10
3.0409448818897635
20
-6.4173228346456694
40
0.0196850393700787
0
CIRCLE
8
BLACK
10
3.1409448818897636
20
-6.4173228346456694
40
0.0196850393700787
0
CIRCLE
8
BLACK
10
3.2409448818897637
20
-6.4173228346456694
40
0.0196850393700787
0
CIRCLE
8
BLACK
10
3.3409448818897638
20
-6.4173228346456694
40
0.0196850393700787
0
CIRCLE
8
BLACK
10
3.4409448818897639
20
-6.4173228346456694
40
0.0196850393700787
0
CIRCLE
8
BLACK
10
3.5409448818897635
20
-6.4173228346456694
40
0.0196850393700787
0
CIRCLE
8
BLACK
10
3.6409448818897636
20
-6.4173228346456694
40
0.0196850393700787
0
CIRCLE
8
BLACK
10
3.7409448818897637
20
-6.4173228346456694
40
0.0196850393700787
0
CIRCLE
8
BLACK
10
3.8409448818897638
20
-6.4173228346456694
40
0.0196850393700787
0
CIRCLE
8
BLACK
10
3.9409448818897639
20
-6.4173228346456694
40
0.0196850393700787
0
CIRCLE
8
BLACK
10
4.0409448818897635
20
-6.4173228346456694
40
0.0196850393700787
0
CIRCLE
8
BLACK
10
4.1409448818897641
20
-6.4173228346456694
40
0.0196850393700787
0
CIRCLE
8
BLACK
10
4.2409448818897637
20
-6.4173228346456694
40
0.0196850393700787
0
CIRCLE
8
BLACK
10
4.3409448818897634
20
-6.4173228346456694
40
0.0196850393700787
0
CIRCLE
8
BLACK
10
4.4409448818897639
20
-6.4173228346456694
40
0.0196850393700787
0
CIRCLE
8
BLACK
10
4.5409448818897635
20
-6.4173228346456694
40
0.0196850393700787
0
CIRCLE
8
BLACK
10
4.6409448818897641
20
-6.4173228346456694
40
0.0196850393700787
0
CIRCLE
8
BLACK
10
4.7409448818897637
20
-6.4173228346456694
40
0.0196850393700787
0
CIRCLE
8
BLACK
10
4.8409448818897634
20
-6.4173228346456694
40
0.0196850393700787
0
CIRCLE
8
BLACK
10
4.9409448818897639
20
-6.4173228346456694
40
0.0196850393700787
0
CIRCLE
8
BLACK
10
5.0409448818897635
20
-6.4173228346456694
40
0.0196850393700787
0
CIRCLE
8
BLACK
10
5.1409448818897641
20
-6.4173228346456694
40
0.0196850393700787
0
CIRCLE
8
BLACK
10
5.2409448818897637
20
-6.4173228346456694
40
0.0196850393700787
0
CIRCLE
8
BLACK
10
5.3409448818897634
20
-6.4173228346456694
40
0.0196850393700787
0
CIRCLE
8
BLACK
10
5.4409448818897639
20
-6.4173228346456694
40
0.0196850393700787
0
CIRCLE
8
BLACK
10
5.5409448818897635
20
-6.4173228346456694
40
0.0196850393700787
0
CIRCLE
8
BLACK
10
5.6409448818897641
20
-6.4173228346456694
40
0.0196850393700787
0
CIRCLE
8
BLACK
10
5.7409448818897637
20
-6.4173228346456694
40
0.0196850393700787
0
CIRCLE
8
BLACK
10
5.8409448818897634
20
-6.4173228346456694
40
0.0196850393700787
0
CIRCLE
8
BLACK
10
5.9409448818897639
20
-6.4173228346456694
40
0.0196850393700787
0
CIRCLE
8
BLACK
10
6.0409448818897635
20
-6.4173228346456694
40
0.0196850393700787
0
CIRCLE
8
BLACK
10
6.1409448818897641
20
-6.4173228346456694
40
0.0196850393700787
0
CIRCLE
8
BLACK
10
6.2409448818897637
20
-6.4173228346456694
40
0.0196850393700787
  0
ENDSEC
  0
EOF
