  0
SECTION
  2
HEADER
  9
$ANGBASE
  50
0.0
  9
$ANGDIR
  70
1
  9
$MEASUREMENT
  70
0
  0
ENDSEC
  0
SECTION
  2
TABLES
  0
TABLE
  2
LTYPE
  70
4
  0
LTYPE
  5
40F
  2
CONTINUOUS
  70
0
  3
Solid line
  72
65
  73
0
  40
0.0
  0
LTYPE
  5
410
  2
DASHDOT
 70
0
  3
Dash Dot ____ _ ____ _
 72
65
 73
4
 40
2.0
 49
1.25
 49
-0.25
 49
0.25
 49
-0.25
  0
LTYPE
  5
411
  2
DASHED
 70
0
  3
Dashed __ __ __ __ __
 72
65
 73
2
 40
0.75
 49
0.5
 49
-0.25
  0
LTYPE
  5
43B
  2
DOTTED
 70
0
  3
Dotted .  .  .  .
 72
65
 73
2
 40
0.2
 49
0.0
 49
-0.2
  0
ENDTAB
  0
TABLE
  2
STYLE
  70
4
  0
STYLE
  2
KICAD
  70
0
  40
0
  41
1
  42
1
  50
0
  71
0
  3
isocp.shx
  0
STYLE
  2
KICADB
  70
0
  40
0
  41
1
  42
1
  50
0
  71
0
  3
isocp.shx
  0
STYLE
  2
KICADI
  70
0
  40
0
  41
1
  42
1
  50
15
  71
0
  3
isocp.shx
  0
STYLE
  2
KICADBI
  70
0
  40
0
  41
1
  42
1
  50
15
  71
0
  3
isocp.shx
  0
ENDTAB
  0
TABLE
  2
LAYER
  70
1
  0
LAYER
  2
BLACK
  70
0
  62
7
  6
CONTINUOUS
  0
ENDTAB
  0
ENDSEC
  0
SECTION
  2
ENTITIES
0
LINE
8
BLACK
6
CONTINUOUS
10
6.3114002755905512
20
-6.3455473622047247
11
6.3119329527559049
21
-6.3460800393700785
0
LINE
8
BLACK
6
CONTINUOUS
10
6.3119329527559049
20
-6.3460800393700785
11
6.3120078740157481
21
-6.3464566929133861
0
LINE
8
BLACK
6
CONTINUOUS
10
6.3120078740157481
20
-6.3464566929133861
11
6.3120078740157481
21
-6.4881889763779528
0
LINE
8
BLACK
6
CONTINUOUS
10
6.3120078740157481
20
-6.4881889763779528
11
6.3119329527559049
21
-6.4885656299212595
0
LINE
8
BLACK
6
CONTINUOUS
10
6.3119329527559049
20
-6.4885656299212595
11
6.3114002755905512
21
-6.4890983070866142
0
LINE
8
BLACK
6
CONTINUOUS
10
6.3114002755905512
20
-6.4890983070866142
11
6.3110236220472435
21
-6.4891732283464565
0
LINE
8
BLACK
6
CONTINUOUS
10
6.3110236220472435
20
-6.4891732283464565
11
2.3700787401574801
21
-6.4891732283464565
0
LINE
8
BLACK
6
CONTINUOUS
10
2.3700787401574801
20
-6.4891732283464565
11
2.3697020866141734
21
-6.4890983070866142
0
LINE
8
BLACK
6
CONTINUOUS
10
2.3697020866141734
20
-6.4890983070866142
11
2.3691694094488187
21
-6.4885656299212595
0
LINE
8
BLACK
6
CONTINUOUS
10
2.3691694094488187
20
-6.4885656299212595
11
2.3690944881889764
21
-6.4881889763779528
0
LINE
8
BLACK
6
CONTINUOUS
10
2.3690944881889764
20
-6.4881889763779528
11
2.3690944881889764
21
-6.3464566929133861
0
LINE
8
BLACK
6
CONTINUOUS
10
2.3690944881889764
20
-6.3464566929133861
11
2.3691694094488187
21
-6.3460800393700785
0
LINE
8
BLACK
6
CONTINUOUS
10
2.3691694094488187
20
-6.3460800393700785
11
2.3697020866141734
21
-6.3455473622047247
0
LINE
8
BLACK
6
CONTINUOUS
10
2.3697020866141734
20
-6.3455473622047247
11
2.3700787401574801
21
-6.3454724409448815
0
LINE
8
BLACK
6
CONTINUOUS
10
2.3700787401574801
20
-6.3454724409448815
11
6.3110236220472435
21
-6.3454724409448815
0
LINE
8
BLACK
6
CONTINUOUS
10
6.3110236220472435
20
-6.3454724409448815
11
6.3114002755905512
21
-6.3455473622047247
0
LINE
8
BLACK
6
CONTINUOUS
10
2.3710629921259843
20
-6.3474409448818898
11
2.3710629921259843
21
-6.4872047244094491
0
LINE
8
BLACK
6
CONTINUOUS
10
2.3710629921259843
20
-6.4872047244094491
11
6.3100393700787398
21
-6.4872047244094491
0
LINE
8
BLACK
6
CONTINUOUS
10
6.3100393700787398
20
-6.4872047244094491
11
6.3100393700787398
21
-6.3474409448818898
0
LINE
8
BLACK
6
CONTINUOUS
10
6.3100393700787398
20
-6.3474409448818898
11
2.3710629921259843
21
-6.3474409448818898
0
LINE
8
BLACK
6
CONTINUOUS
10
2.6291168110236218
20
-5.5774371259842521
11
2.6296494881889765
21
-5.5779698031496059
0
LINE
8
BLACK
6
CONTINUOUS
10
2.6296494881889765
20
-5.5779698031496059
11
2.6297244094488188
21
-5.5783464566929135
0
LINE
8
BLACK
6
CONTINUOUS
10
2.6297244094488188
20
-5.5783464566929135
11
2.6297244094488188
21
-6.2177165354330706
0
LINE
8
BLACK
6
CONTINUOUS
10
2.6297244094488188
20
-6.2177165354330706
11
2.6296494881889765
21
-6.2180931889763782
0
LINE
8
BLACK
6
CONTINUOUS
10
2.6296494881889765
20
-6.2180931889763782
11
2.6291168110236218
21
-6.218625866141732
0
LINE
8
BLACK
6
CONTINUOUS
10
2.6291168110236218
20
-6.218625866141732
11
2.6287401574803151
21
-6.2187007874015743
0
LINE
8
BLACK
6
CONTINUOUS
10
2.6287401574803151
20
-6.2187007874015743
11
2.3889763779527557
21
-6.2187007874015743
0
LINE
8
BLACK
6
CONTINUOUS
10
2.3889763779527557
20
-6.2187007874015743
11
2.3885997244094486
21
-6.218625866141732
0
LINE
8
BLACK
6
CONTINUOUS
10
2.3885997244094486
20
-6.218625866141732
11
2.3880670472440944
21
-6.2180931889763782
0
LINE
8
BLACK
6
CONTINUOUS
10
2.3880670472440944
20
-6.2180931889763782
11
2.387992125984252
21
-6.2177165354330706
0
LINE
8
BLACK
6
CONTINUOUS
10
2.387992125984252
20
-6.2177165354330706
11
2.387992125984252
21
-5.5783464566929135
0
LINE
8
BLACK
6
CONTINUOUS
10
2.387992125984252
20
-5.5783464566929135
11
2.3880670472440944
21
-5.5779698031496059
0
LINE
8
BLACK
6
CONTINUOUS
10
2.3880670472440944
20
-5.5779698031496059
11
2.3885997244094486
21
-5.5774371259842521
0
LINE
8
BLACK
6
CONTINUOUS
10
2.3885997244094486
20
-5.5774371259842521
11
2.3889763779527557
21
-5.5773622047244089
0
LINE
8
BLACK
6
CONTINUOUS
10
2.3889763779527557
20
-5.5773622047244089
11
2.6287401574803151
21
-5.5773622047244089
0
LINE
8
BLACK
6
CONTINUOUS
10
2.6287401574803151
20
-5.5773622047244089
11
2.6291168110236218
21
-5.5774371259842521
0
LINE
8
BLACK
6
CONTINUOUS
10
2.3899606299212599
20
-5.5793307086614172
11
2.3899606299212599
21
-6.2167322834645669
0
LINE
8
BLACK
6
CONTINUOUS
10
2.3899606299212599
20
-6.2167322834645669
11
2.6277559055118109
21
-6.2167322834645669
0
LINE
8
BLACK
6
CONTINUOUS
10
2.6277559055118109
20
-6.2167322834645669
11
2.6277559055118109
21
-5.5793307086614172
0
LINE
8
BLACK
6
CONTINUOUS
10
2.6277559055118109
20
-5.5793307086614172
11
2.3899606299212599
21
-5.5793307086614172
0
LINE
8
BLACK
6
CONTINUOUS
10
5.0795105118110238
20
-5.751059173228346
11
5.0800431889763775
21
-5.7515918503937007
0
LINE
8
BLACK
6
CONTINUOUS
10
5.0800431889763775
20
-5.7515918503937007
11
5.0801181102362207
21
-5.7519685039370074
0
LINE
8
BLACK
6
CONTINUOUS
10
5.0801181102362207
20
-5.7519685039370074
11
5.0801181102362207
21
-5.8257874015748028
0
LINE
8
BLACK
6
CONTINUOUS
10
5.0801181102362207
20
-5.8257874015748028
11
5.0964566929133861
21
-5.8257874015748028
0
LINE
8
BLACK
6
CONTINUOUS
10
5.0964566929133861
20
-5.8257874015748028
11
5.0968333464566928
21
-5.8258623228346451
0
LINE
8
BLACK
6
CONTINUOUS
10
5.0968333464566928
20
-5.8258623228346451
11
5.0973660236220475
21
-5.8263949999999998
0
LINE
8
BLACK
6
CONTINUOUS
10
5.0973660236220475
20
-5.8263949999999998
11
5.0974409448818898
21
-5.8267716535433074
0
LINE
8
BLACK
6
CONTINUOUS
10
5.0974409448818898
20
-5.8267716535433074
11
5.0974409448818898
21
-6.1417322834645667
0
LINE
8
BLACK
6
CONTINUOUS
10
5.0974409448818898
20
-6.1417322834645667
11
5.0973660236220475
21
-6.1421089370078743
0
LINE
8
BLACK
6
CONTINUOUS
10
5.0973660236220475
20
-6.1421089370078743
11
5.0968333464566928
21
-6.1426416141732281
0
LINE
8
BLACK
6
CONTINUOUS
10
5.0968333464566928
20
-6.1426416141732281
11
5.0964566929133861
21
-6.1427165354330704
0
LINE
8
BLACK
6
CONTINUOUS
10
5.0964566929133861
20
-6.1427165354330704
11
5.0801181102362207
21
-6.1427165354330704
0
LINE
8
BLACK
6
CONTINUOUS
10
5.0801181102362207
20
-6.1427165354330704
11
5.0801181102362207
21
-6.2165354330708658
0
LINE
8
BLACK
6
CONTINUOUS
10
5.0801181102362207
20
-6.2165354330708658
11
5.0800431889763775
21
-6.2169120866141734
0
LINE
8
BLACK
6
CONTINUOUS
10
5.0800431889763775
20
-6.2169120866141734
11
5.0795105118110238
21
-6.2174447637795272
0
LINE
8
BLACK
6
CONTINUOUS
10
5.0795105118110238
20
-6.2174447637795272
11
5.0791338582677161
21
-6.2175196850393704
0
LINE
8
BLACK
6
CONTINUOUS
10
5.0791338582677161
20
-6.2175196850393704
11
4.4877952755905515
21
-6.2175196850393704
0
LINE
8
BLACK
6
CONTINUOUS
10
4.4877952755905515
20
-6.2175196850393704
11
4.4874186220472438
21
-6.2174447637795272
0
LINE
8
BLACK
6
CONTINUOUS
10
4.4874186220472438
20
-6.2174447637795272
11
4.4868859448818901
21
-6.2169120866141734
0
LINE
8
BLACK
6
CONTINUOUS
10
4.4868859448818901
20
-6.2169120866141734
11
4.4868110236220469
21
-6.2165354330708658
0
LINE
8
BLACK
6
CONTINUOUS
10
4.4868110236220469
20
-6.2165354330708658
11
4.4868110236220469
21
-6.1427165354330704
0
LINE
8
BLACK
6
CONTINUOUS
10
4.4868110236220469
20
-6.1427165354330704
11
4.4704724409448815
21
-6.1427165354330704
0
LINE
8
BLACK
6
CONTINUOUS
10
4.4704724409448815
20
-6.1427165354330704
11
4.4700957874015748
21
-6.1426416141732281
0
LINE
8
BLACK
6
CONTINUOUS
10
4.4700957874015748
20
-6.1426416141732281
11
4.4695631102362201
21
-6.1421089370078743
0
LINE
8
BLACK
6
CONTINUOUS
10
4.4695631102362201
20
-6.1421089370078743
11
4.4694881889763778
21
-6.1417322834645667
0
LINE
8
BLACK
6
CONTINUOUS
10
4.4694881889763778
20
-6.1417322834645667
11
4.4694881889763778
21
-5.8267716535433074
0
LINE
8
BLACK
6
CONTINUOUS
10
4.4694881889763778
20
-5.8267716535433074
11
4.4695631102362201
21
-5.8263949999999998
0
LINE
8
BLACK
6
CONTINUOUS
10
4.4695631102362201
20
-5.8263949999999998
11
4.4700957874015748
21
-5.8258623228346451
0
LINE
8
BLACK
6
CONTINUOUS
10
4.4700957874015748
20
-5.8258623228346451
11
4.4704724409448815
21
-5.8257874015748028
0
LINE
8
BLACK
6
CONTINUOUS
10
4.4704724409448815
20
-5.8257874015748028
11
4.4868110236220469
21
-5.8257874015748028
0
LINE
8
BLACK
6
CONTINUOUS
10
4.4868110236220469
20
-5.8257874015748028
11
4.4868110236220469
21
-5.7519685039370074
0
LINE
8
BLACK
6
CONTINUOUS
10
4.4868110236220469
20
-5.7519685039370074
11
4.4868859448818901
21
-5.7515918503937007
0
LINE
8
BLACK
6
CONTINUOUS
10
4.4868859448818901
20
-5.7515918503937007
11
4.4874186220472438
21
-5.751059173228346
0
LINE
8
BLACK
6
CONTINUOUS
10
4.4874186220472438
20
-5.751059173228346
11
4.4877952755905515
21
-5.7509842519685037
0
LINE
8
BLACK
6
CONTINUOUS
10
4.4877952755905515
20
-5.7509842519685037
11
5.0791338582677161
21
-5.7509842519685037
0
LINE
8
BLACK
6
CONTINUOUS
10
5.0791338582677161
20
-5.7509842519685037
11
5.0795105118110238
21
-5.751059173228346
0
LINE
8
BLACK
6
CONTINUOUS
10
4.4887795275590552
20
-5.752952755905512
11
4.4887795275590552
21
-5.8267716535433074
0
LINE
8
BLACK
6
CONTINUOUS
10
4.4887795275590552
20
-5.8267716535433074
11
4.4887046062992129
21
-5.8271483070866141
0
LINE
8
BLACK
6
CONTINUOUS
10
4.4887046062992129
20
-5.8271483070866141
11
4.4881719291338582
21
-5.8276809842519688
0
LINE
8
BLACK
6
CONTINUOUS
10
4.4881719291338582
20
-5.8276809842519688
11
4.4877952755905515
21
-5.8277559055118111
0
LINE
8
BLACK
6
CONTINUOUS
10
4.4877952755905515
20
-5.8277559055118111
11
4.4714566929133861
21
-5.8277559055118111
0
LINE
8
BLACK
6
CONTINUOUS
10
4.4714566929133861
20
-5.8277559055118111
11
4.4714566929133861
21
-6.140748031496063
0
LINE
8
BLACK
6
CONTINUOUS
10
4.4714566929133861
20
-6.140748031496063
11
4.4877952755905515
21
-6.140748031496063
0
LINE
8
BLACK
6
CONTINUOUS
10
4.4877952755905515
20
-6.140748031496063
11
4.4881719291338582
21
-6.1408229527559053
0
LINE
8
BLACK
6
CONTINUOUS
10
4.4881719291338582
20
-6.1408229527559053
11
4.4887046062992129
21
-6.1413556299212599
0
LINE
8
BLACK
6
CONTINUOUS
10
4.4887046062992129
20
-6.1413556299212599
11
4.4887795275590552
21
-6.1417322834645667
0
LINE
8
BLACK
6
CONTINUOUS
10
4.4887795275590552
20
-6.1417322834645667
11
4.4887795275590552
21
-6.215551181102362
0
LINE
8
BLACK
6
CONTINUOUS
10
4.4887795275590552
20
-6.215551181102362
11
5.0781496062992124
21
-6.215551181102362
0
LINE
8
BLACK
6
CONTINUOUS
10
5.0781496062992124
20
-6.215551181102362
11
5.0781496062992124
21
-6.1417322834645667
0
LINE
8
BLACK
6
CONTINUOUS
10
5.0781496062992124
20
-6.1417322834645667
11
5.0782245275590547
21
-6.1413556299212599
0
LINE
8
BLACK
6
CONTINUOUS
10
5.0782245275590547
20
-6.1413556299212599
11
5.0787572047244094
21
-6.1408229527559053
0
LINE
8
BLACK
6
CONTINUOUS
10
5.0787572047244094
20
-6.1408229527559053
11
5.0791338582677161
21
-6.140748031496063
0
LINE
8
BLACK
6
CONTINUOUS
10
5.0791338582677161
20
-6.140748031496063
11
5.0954724409448815
21
-6.140748031496063
0
LINE
8
BLACK
6
CONTINUOUS
10
5.0954724409448815
20
-6.140748031496063
11
5.0954724409448815
21
-5.8277559055118111
0
LINE
8
BLACK
6
CONTINUOUS
10
5.0954724409448815
20
-5.8277559055118111
11
5.0791338582677161
21
-5.8277559055118111
0
LINE
8
BLACK
6
CONTINUOUS
10
5.0791338582677161
20
-5.8277559055118111
11
5.0787572047244094
21
-5.8276809842519688
0
LINE
8
BLACK
6
CONTINUOUS
10
5.0787572047244094
20
-5.8276809842519688
11
5.0782245275590547
21
-5.8271483070866141
0
LINE
8
BLACK
6
CONTINUOUS
10
5.0782245275590547
20
-5.8271483070866141
11
5.0781496062992124
21
-5.8267716535433074
0
LINE
8
BLACK
6
CONTINUOUS
10
5.0781496062992124
20
-5.8267716535433074
11
5.0781496062992124
21
-5.752952755905512
0
LINE
8
BLACK
6
CONTINUOUS
10
5.0781496062992124
20
-5.752952755905512
11
4.4887795275590552
21
-5.752952755905512
0
LINE
8
BLACK
6
CONTINUOUS
10
3.6564790157480314
20
-5.7439725590551181
11
3.6570116929133856
21
-5.7445052362204727
0
LINE
8
BLACK
6
CONTINUOUS
10
3.6570116929133856
20
-5.7445052362204727
11
3.6570866141732283
21
-5.7448818897637794
0
LINE
8
BLACK
6
CONTINUOUS
10
3.6570866141732283
20
-5.7448818897637794
11
3.6570866141732283
21
-5.8198818897637796
0
LINE
8
BLACK
6
CONTINUOUS
10
3.6570866141732283
20
-5.8198818897637796
11
3.6710629921259841
21
-5.8198818897637796
0
LINE
8
BLACK
6
CONTINUOUS
10
3.6710629921259841
20
-5.8198818897637796
11
3.6714396456692913
21
-5.8199568110236219
0
LINE
8
BLACK
6
CONTINUOUS
10
3.6714396456692913
20
-5.8199568110236219
11
3.6719723228346455
21
-5.8204894881889766
0
LINE
8
BLACK
6
CONTINUOUS
10
3.6719723228346455
20
-5.8204894881889766
11
3.6720472440944882
21
-5.8208661417322833
0
LINE
8
BLACK
6
CONTINUOUS
10
3.6720472440944882
20
-5.8208661417322833
11
3.6720472440944882
21
-6.1358267716535435
0
LINE
8
BLACK
6
CONTINUOUS
10
3.6720472440944882
20
-6.1358267716535435
11
3.6719723228346455
21
-6.1362034251968502
0
LINE
8
BLACK
6
CONTINUOUS
10
3.6719723228346455
20
-6.1362034251968502
11
3.6714396456692913
21
-6.1367361023622049
0
LINE
8
BLACK
6
CONTINUOUS
10
3.6714396456692913
20
-6.1367361023622049
11
3.6710629921259841
21
-6.1368110236220472
0
LINE
8
BLACK
6
CONTINUOUS
10
3.6710629921259841
20
-6.1368110236220472
11
3.6570866141732283
21
-6.1368110236220472
0
LINE
8
BLACK
6
CONTINUOUS
10
3.6570866141732283
20
-6.1368110236220472
11
3.6570866141732283
21
-6.2118110236220474
0
LINE
8
BLACK
6
CONTINUOUS
10
3.6570866141732283
20
-6.2118110236220474
11
3.6570116929133856
21
-6.2121876771653541
0
LINE
8
BLACK
6
CONTINUOUS
10
3.6570116929133856
20
-6.2121876771653541
11
3.6564790157480314
21
-6.2127203543307088
0
LINE
8
BLACK
6
CONTINUOUS
10
3.6564790157480314
20
-6.2127203543307088
11
3.6561023622047242
21
-6.2127952755905511
0
LINE
8
BLACK
6
CONTINUOUS
10
3.6561023622047242
20
-6.2127952755905511
11
3.1624015748031495
21
-6.2127952755905511
0
LINE
8
BLACK
6
CONTINUOUS
10
3.1624015748031495
20
-6.2127952755905511
11
3.1620249212598424
21
-6.2127203543307088
0
LINE
8
BLACK
6
CONTINUOUS
10
3.1620249212598424
20
-6.2127203543307088
11
3.1614922440944881
21
-6.2121876771653541
0
LINE
8
BLACK
6
CONTINUOUS
10
3.1614922440944881
20
-6.2121876771653541
11
3.1614173228346454
21
-6.2118110236220474
0
LINE
8
BLACK
6
CONTINUOUS
10
3.1614173228346454
20
-6.2118110236220474
11
3.1614173228346454
21
-6.1368110236220472
0
LINE
8
BLACK
6
CONTINUOUS
10
3.1614173228346454
20
-6.1368110236220472
11
3.1474409448818896
21
-6.1368110236220472
0
LINE
8
BLACK
6
CONTINUOUS
10
3.1474409448818896
20
-6.1368110236220472
11
3.1470642913385825
21
-6.1367361023622049
0
LINE
8
BLACK
6
CONTINUOUS
10
3.1470642913385825
20
-6.1367361023622049
11
3.1465316141732282
21
-6.1362034251968502
0
LINE
8
BLACK
6
CONTINUOUS
10
3.1465316141732282
20
-6.1362034251968502
11
3.1464566929133859
21
-6.1358267716535435
0
LINE
8
BLACK
6
CONTINUOUS
10
3.1464566929133859
20
-6.1358267716535435
11
3.1464566929133859
21
-5.8208661417322833
0
LINE
8
BLACK
6
CONTINUOUS
10
3.1464566929133859
20
-5.8208661417322833
11
3.1465316141732282
21
-5.8204894881889766
0
LINE
8
BLACK
6
CONTINUOUS
10
3.1465316141732282
20
-5.8204894881889766
11
3.1470642913385825
21
-5.8199568110236219
0
LINE
8
BLACK
6
CONTINUOUS
10
3.1470642913385825
20
-5.8199568110236219
11
3.1474409448818896
21
-5.8198818897637796
0
LINE
8
BLACK
6
CONTINUOUS
10
3.1474409448818896
20
-5.8198818897637796
11
3.1614173228346454
21
-5.8198818897637796
0
LINE
8
BLACK
6
CONTINUOUS
10
3.1614173228346454
20
-5.8198818897637796
11
3.1614173228346454
21
-5.7448818897637794
0
LINE
8
BLACK
6
CONTINUOUS
10
3.1614173228346454
20
-5.7448818897637794
11
3.1614922440944881
21
-5.7445052362204727
0
LINE
8
BLACK
6
CONTINUOUS
10
3.1614922440944881
20
-5.7445052362204727
11
3.1620249212598424
21
-5.7439725590551181
0
LINE
8
BLACK
6
CONTINUOUS
10
3.1620249212598424
20
-5.7439725590551181
11
3.1624015748031495
21
-5.7438976377952757
0
LINE
8
BLACK
6
CONTINUOUS
10
3.1624015748031495
20
-5.7438976377952757
11
3.6561023622047242
21
-5.7438976377952757
0
LINE
8
BLACK
6
CONTINUOUS
10
3.6561023622047242
20
-5.7438976377952757
11
3.6564790157480314
21
-5.7439725590551181
0
LINE
8
BLACK
6
CONTINUOUS
10
3.1633858267716533
20
-5.7458661417322832
11
3.1633858267716533
21
-5.8208661417322833
0
LINE
8
BLACK
6
CONTINUOUS
10
3.1633858267716533
20
-5.8208661417322833
11
3.1633109055118109
21
-5.8212427952755901
0
LINE
8
BLACK
6
CONTINUOUS
10
3.1633109055118109
20
-5.8212427952755901
11
3.1627782283464567
21
-5.8217754724409447
0
LINE
8
BLACK
6
CONTINUOUS
10
3.1627782283464567
20
-5.8217754724409447
11
3.1624015748031495
21
-5.8218503937007871
0
LINE
8
BLACK
6
CONTINUOUS
10
3.1624015748031495
20
-5.8218503937007871
11
3.1484251968503938
21
-5.8218503937007871
0
LINE
8
BLACK
6
CONTINUOUS
10
3.1484251968503938
20
-5.8218503937007871
11
3.1484251968503938
21
-6.1348425196850389
0
LINE
8
BLACK
6
CONTINUOUS
10
3.1484251968503938
20
-6.1348425196850389
11
3.1624015748031495
21
-6.1348425196850389
0
LINE
8
BLACK
6
CONTINUOUS
10
3.1624015748031495
20
-6.1348425196850389
11
3.1627782283464567
21
-6.1349174409448821
0
LINE
8
BLACK
6
CONTINUOUS
10
3.1627782283464567
20
-6.1349174409448821
11
3.1633109055118109
21
-6.1354501181102359
0
LINE
8
BLACK
6
CONTINUOUS
10
3.1633109055118109
20
-6.1354501181102359
11
3.1633858267716533
21
-6.1358267716535435
0
LINE
8
BLACK
6
CONTINUOUS
10
3.1633858267716533
20
-6.1358267716535435
11
3.1633858267716533
21
-6.2108267716535428
0
LINE
8
BLACK
6
CONTINUOUS
10
3.1633858267716533
20
-6.2108267716535428
11
3.6551181102362205
21
-6.2108267716535428
0
LINE
8
BLACK
6
CONTINUOUS
10
3.6551181102362205
20
-6.2108267716535428
11
3.6551181102362205
21
-6.1358267716535435
0
LINE
8
BLACK
6
CONTINUOUS
10
3.6551181102362205
20
-6.1358267716535435
11
3.6551930314960628
21
-6.1354501181102359
0
LINE
8
BLACK
6
CONTINUOUS
10
3.6551930314960628
20
-6.1354501181102359
11
3.6557257086614174
21
-6.1349174409448821
0
LINE
8
BLACK
6
CONTINUOUS
10
3.6557257086614174
20
-6.1349174409448821
11
3.6561023622047242
21
-6.1348425196850389
0
LINE
8
BLACK
6
CONTINUOUS
10
3.6561023622047242
20
-6.1348425196850389
11
3.6700787401574804
21
-6.1348425196850389
0
LINE
8
BLACK
6
CONTINUOUS
10
3.6700787401574804
20
-6.1348425196850389
11
3.6700787401574804
21
-5.8218503937007871
0
LINE
8
BLACK
6
CONTINUOUS
10
3.6700787401574804
20
-5.8218503937007871
11
3.6561023622047242
21
-5.8218503937007871
0
LINE
8
BLACK
6
CONTINUOUS
10
3.6561023622047242
20
-5.8218503937007871
11
3.6557257086614174
21
-5.8217754724409447
0
LINE
8
BLACK
6
CONTINUOUS
10
3.6557257086614174
20
-5.8217754724409447
11
3.6551930314960628
21
-5.8212427952755901
0
LINE
8
BLACK
6
CONTINUOUS
10
3.6551930314960628
20
-5.8212427952755901
11
3.6551181102362205
21
-5.8208661417322833
0
LINE
8
BLACK
6
CONTINUOUS
10
3.6551181102362205
20
-5.8208661417322833
11
3.6551181102362205
21
-5.7458661417322832
0
LINE
8
BLACK
6
CONTINUOUS
10
3.6551181102362205
20
-5.7458661417322832
11
3.1633858267716533
21
-5.7458661417322832
0
LINE
8
BLACK
6
CONTINUOUS
10
4.4452585433070864
20
-6.1416103543307088
11
4.445791220472441
21
-6.1421430314960626
0
LINE
8
BLACK
6
CONTINUOUS
10
4.445791220472441
20
-6.1421430314960626
11
4.4458661417322833
21
-6.1425196850393702
0
LINE
8
BLACK
6
CONTINUOUS
10
4.4458661417322833
20
-6.1425196850393702
11
4.4458661417322833
21
-6.2000000000000002
0
LINE
8
BLACK
6
CONTINUOUS
10
4.4458661417322833
20
-6.2000000000000002
11
4.445791220472441
21
-6.2003766535433069
0
LINE
8
BLACK
6
CONTINUOUS
10
4.445791220472441
20
-6.2003766535433069
11
4.4452585433070864
21
-6.2009093307086616
0
LINE
8
BLACK
6
CONTINUOUS
10
4.4452585433070864
20
-6.2009093307086616
11
4.4448818897637796
21
-6.2009842519685039
0
LINE
8
BLACK
6
CONTINUOUS
10
4.4448818897637796
20
-6.2009842519685039
11
4.3149606299212602
21
-6.2009842519685039
0
LINE
8
BLACK
6
CONTINUOUS
10
4.3149606299212602
20
-6.2009842519685039
11
4.3145839763779525
21
-6.2009093307086616
0
LINE
8
BLACK
6
CONTINUOUS
10
4.3145839763779525
20
-6.2009093307086616
11
4.3140512992125979
21
-6.2003766535433069
0
LINE
8
BLACK
6
CONTINUOUS
10
4.3140512992125979
20
-6.2003766535433069
11
4.3139763779527556
21
-6.2000000000000002
0
LINE
8
BLACK
6
CONTINUOUS
10
4.3139763779527556
20
-6.2000000000000002
11
4.3139763779527556
21
-6.1425196850393702
0
LINE
8
BLACK
6
CONTINUOUS
10
4.3139763779527556
20
-6.1425196850393702
11
4.3140512992125979
21
-6.1421430314960626
0
LINE
8
BLACK
6
CONTINUOUS
10
4.3140512992125979
20
-6.1421430314960626
11
4.3145839763779525
21
-6.1416103543307088
0
LINE
8
BLACK
6
CONTINUOUS
10
4.3145839763779525
20
-6.1416103543307088
11
4.3149606299212602
21
-6.1415354330708656
0
LINE
8
BLACK
6
CONTINUOUS
10
4.3149606299212602
20
-6.1415354330708656
11
4.4448818897637796
21
-6.1415354330708656
0
LINE
8
BLACK
6
CONTINUOUS
10
4.4448818897637796
20
-6.1415354330708656
11
4.4452585433070864
21
-6.1416103543307088
0
LINE
8
BLACK
6
CONTINUOUS
10
4.3159448818897639
20
-6.1435039370078739
11
4.3159448818897639
21
-6.1990157480314956
0
LINE
8
BLACK
6
CONTINUOUS
10
4.3159448818897639
20
-6.1990157480314956
11
4.4438976377952759
21
-6.1990157480314956
0
LINE
8
BLACK
6
CONTINUOUS
10
4.4438976377952759
20
-6.1990157480314956
11
4.4438976377952759
21
-6.1435039370078739
0
LINE
8
BLACK
6
CONTINUOUS
10
4.4438976377952759
20
-6.1435039370078739
11
4.3159448818897639
21
-6.1435039370078739
0
LINE
8
BLACK
6
CONTINUOUS
10
2.9910262598425197
20
-6.1128701968503938
11
2.9915589370078739
21
-6.1134028740157476
0
LINE
8
BLACK
6
CONTINUOUS
10
2.9915589370078739
20
-6.1134028740157476
11
2.9916338582677167
21
-6.1137795275590552
0
LINE
8
BLACK
6
CONTINUOUS
10
2.9916338582677167
20
-6.1137795275590552
11
2.9916338582677167
21
-6.1712598425196852
0
LINE
8
BLACK
6
CONTINUOUS
10
2.9916338582677167
20
-6.1712598425196852
11
2.9915589370078739
21
-6.1716364960629919
0
LINE
8
BLACK
6
CONTINUOUS
10
2.9915589370078739
20
-6.1716364960629919
11
2.9910262598425197
21
-6.1721691732283466
0
LINE
8
BLACK
6
CONTINUOUS
10
2.9910262598425197
20
-6.1721691732283466
11
2.9906496062992125
21
-6.1722440944881889
0
LINE
8
BLACK
6
CONTINUOUS
10
2.9906496062992125
20
-6.1722440944881889
11
2.860728346456693
21
-6.1722440944881889
0
LINE
8
BLACK
6
CONTINUOUS
10
2.860728346456693
20
-6.1722440944881889
11
2.8603516929133859
21
-6.1721691732283466
0
LINE
8
BLACK
6
CONTINUOUS
10
2.8603516929133859
20
-6.1721691732283466
11
2.8598190157480312
21
-6.1716364960629919
0
LINE
8
BLACK
6
CONTINUOUS
10
2.8598190157480312
20
-6.1716364960629919
11
2.8597440944881889
21
-6.1712598425196852
0
LINE
8
BLACK
6
CONTINUOUS
10
2.8597440944881889
20
-6.1712598425196852
11
2.8597440944881889
21
-6.1137795275590552
0
LINE
8
BLACK
6
CONTINUOUS
10
2.8597440944881889
20
-6.1137795275590552
11
2.8598190157480312
21
-6.1134028740157476
0
LINE
8
BLACK
6
CONTINUOUS
10
2.8598190157480312
20
-6.1134028740157476
11
2.8603516929133859
21
-6.1128701968503938
0
LINE
8
BLACK
6
CONTINUOUS
10
2.8603516929133859
20
-6.1128701968503938
11
2.860728346456693
21
-6.1127952755905515
0
LINE
8
BLACK
6
CONTINUOUS
10
2.860728346456693
20
-6.1127952755905515
11
2.9906496062992125
21
-6.1127952755905515
0
LINE
8
BLACK
6
CONTINUOUS
10
2.9906496062992125
20
-6.1127952755905515
11
2.9910262598425197
21
-6.1128701968503938
0
LINE
8
BLACK
6
CONTINUOUS
10
2.8617125984251968
20
-6.1147637795275589
11
2.8617125984251968
21
-6.1702755905511806
0
LINE
8
BLACK
6
CONTINUOUS
10
2.8617125984251968
20
-6.1702755905511806
11
2.9896653543307088
21
-6.1702755905511806
0
LINE
8
BLACK
6
CONTINUOUS
10
2.9896653543307088
20
-6.1702755905511806
11
2.9896653543307088
21
-6.1147637795275589
0
LINE
8
BLACK
6
CONTINUOUS
10
2.9896653543307088
20
-6.1147637795275589
11
2.8617125984251968
21
-6.1147637795275589
0
LINE
8
BLACK
6
CONTINUOUS
10
2.9910262598425197
20
-6.0140512992125981
11
2.9915589370078739
21
-6.0145839763779527
0
LINE
8
BLACK
6
CONTINUOUS
10
2.9915589370078739
20
-6.0145839763779527
11
2.9916338582677167
21
-6.0149606299212595
0
LINE
8
BLACK
6
CONTINUOUS
10
2.9916338582677167
20
-6.0149606299212595
11
2.9916338582677167
21
-6.0724409448818895
0
LINE
8
BLACK
6
CONTINUOUS
10
2.9916338582677167
20
-6.0724409448818895
11
2.9915589370078739
21
-6.0728175984251971
0
LINE
8
BLACK
6
CONTINUOUS
10
2.9915589370078739
20
-6.0728175984251971
11
2.9910262598425197
21
-6.0733502755905509
0
LINE
8
BLACK
6
CONTINUOUS
10
2.9910262598425197
20
-6.0733502755905509
11
2.9906496062992125
21
-6.0734251968503932
0
LINE
8
BLACK
6
CONTINUOUS
10
2.9906496062992125
20
-6.0734251968503932
11
2.860728346456693
21
-6.0734251968503932
0
LINE
8
BLACK
6
CONTINUOUS
10
2.860728346456693
20
-6.0734251968503932
11
2.8603516929133859
21
-6.0733502755905509
0
LINE
8
BLACK
6
CONTINUOUS
10
2.8603516929133859
20
-6.0733502755905509
11
2.8598190157480312
21
-6.0728175984251971
0
LINE
8
BLACK
6
CONTINUOUS
10
2.8598190157480312
20
-6.0728175984251971
11
2.8597440944881889
21
-6.0724409448818895
0
LINE
8
BLACK
6
CONTINUOUS
10
2.8597440944881889
20
-6.0724409448818895
11
2.8597440944881889
21
-6.0149606299212595
0
LINE
8
BLACK
6
CONTINUOUS
10
2.8597440944881889
20
-6.0149606299212595
11
2.8598190157480312
21
-6.0145839763779527
0
LINE
8
BLACK
6
CONTINUOUS
10
2.8598190157480312
20
-6.0145839763779527
11
2.8603516929133859
21
-6.0140512992125981
0
LINE
8
BLACK
6
CONTINUOUS
10
2.8603516929133859
20
-6.0140512992125981
11
2.860728346456693
21
-6.0139763779527557
0
LINE
8
BLACK
6
CONTINUOUS
10
2.860728346456693
20
-6.0139763779527557
11
2.9906496062992125
21
-6.0139763779527557
0
LINE
8
BLACK
6
CONTINUOUS
10
2.9906496062992125
20
-6.0139763779527557
11
2.9910262598425197
21
-6.0140512992125981
0
LINE
8
BLACK
6
CONTINUOUS
10
2.8617125984251968
20
-6.0159448818897641
11
2.8617125984251968
21
-6.0714566929133857
0
LINE
8
BLACK
6
CONTINUOUS
10
2.8617125984251968
20
-6.0714566929133857
11
2.9896653543307088
21
-6.0714566929133857
0
LINE
8
BLACK
6
CONTINUOUS
10
2.9896653543307088
20
-6.0714566929133857
11
2.9896653543307088
21
-6.0159448818897641
0
LINE
8
BLACK
6
CONTINUOUS
10
2.9896653543307088
20
-6.0159448818897641
11
2.8617125984251968
21
-6.0159448818897641
0
LINE
8
BLACK
6
CONTINUOUS
10
2.9910262598425197
20
-5.9152324015748032
11
2.9915589370078739
21
-5.915765078740157
0
LINE
8
BLACK
6
CONTINUOUS
10
2.9915589370078739
20
-5.915765078740157
11
2.9916338582677167
21
-5.9161417322834646
0
LINE
8
BLACK
6
CONTINUOUS
10
2.9916338582677167
20
-5.9161417322834646
11
2.9916338582677167
21
-5.9736220472440946
0
LINE
8
BLACK
6
CONTINUOUS
10
2.9916338582677167
20
-5.9736220472440946
11
2.9915589370078739
21
-5.9739987007874014
0
LINE
8
BLACK
6
CONTINUOUS
10
2.9915589370078739
20
-5.9739987007874014
11
2.9910262598425197
21
-5.974531377952756
0
LINE
8
BLACK
6
CONTINUOUS
10
2.9910262598425197
20
-5.974531377952756
11
2.9906496062992125
21
-5.9746062992125983
0
LINE
8
BLACK
6
CONTINUOUS
10
2.9906496062992125
20
-5.9746062992125983
11
2.860728346456693
21
-5.9746062992125983
0
LINE
8
BLACK
6
CONTINUOUS
10
2.860728346456693
20
-5.9746062992125983
11
2.8603516929133859
21
-5.974531377952756
0
LINE
8
BLACK
6
CONTINUOUS
10
2.8603516929133859
20
-5.974531377952756
11
2.8598190157480312
21
-5.9739987007874014
0
LINE
8
BLACK
6
CONTINUOUS
10
2.8598190157480312
20
-5.9739987007874014
11
2.8597440944881889
21
-5.9736220472440946
0
LINE
8
BLACK
6
CONTINUOUS
10
2.8597440944881889
20
-5.9736220472440946
11
2.8597440944881889
21
-5.9161417322834646
0
LINE
8
BLACK
6
CONTINUOUS
10
2.8597440944881889
20
-5.9161417322834646
11
2.8598190157480312
21
-5.915765078740157
0
LINE
8
BLACK
6
CONTINUOUS
10
2.8598190157480312
20
-5.915765078740157
11
2.8603516929133859
21
-5.9152324015748032
0
LINE
8
BLACK
6
CONTINUOUS
10
2.8603516929133859
20
-5.9152324015748032
11
2.860728346456693
21
-5.9151574803149609
0
LINE
8
BLACK
6
CONTINUOUS
10
2.860728346456693
20
-5.9151574803149609
11
2.9906496062992125
21
-5.9151574803149609
0
LINE
8
BLACK
6
CONTINUOUS
10
2.9906496062992125
20
-5.9151574803149609
11
2.9910262598425197
21
-5.9152324015748032
0
LINE
8
BLACK
6
CONTINUOUS
10
2.8617125984251968
20
-5.9171259842519683
11
2.8617125984251968
21
-5.97263779527559
0
LINE
8
BLACK
6
CONTINUOUS
10
2.8617125984251968
20
-5.97263779527559
11
2.9896653543307088
21
-5.97263779527559
0
LINE
8
BLACK
6
CONTINUOUS
10
2.9896653543307088
20
-5.97263779527559
11
2.9896653543307088
21
-5.9171259842519683
0
LINE
8
BLACK
6
CONTINUOUS
10
2.9896653543307088
20
-5.9171259842519683
11
2.8617125984251968
21
-5.9171259842519683
0
LINE
8
BLACK
6
CONTINUOUS
10
4.2145498818897638
20
-5.6486969685039368
11
4.2150825590551184
21
-5.6492296456692914
0
LINE
8
BLACK
6
CONTINUOUS
10
4.2150825590551184
20
-5.6492296456692914
11
4.2151574803149607
21
-5.6496062992125982
0
LINE
8
BLACK
6
CONTINUOUS
10
4.2151574803149607
20
-5.6496062992125982
11
4.2151574803149607
21
-5.9055118110236222
0
LINE
8
BLACK
6
CONTINUOUS
10
4.2151574803149607
20
-5.9055118110236222
11
4.2150825590551184
21
-5.905888464566929
0
LINE
8
BLACK
6
CONTINUOUS
10
4.2150825590551184
20
-5.905888464566929
11
4.2145498818897638
21
-5.9064211417322836
0
LINE
8
BLACK
6
CONTINUOUS
10
4.2145498818897638
20
-5.9064211417322836
11
4.214173228346457
21
-5.9064960629921259
0
LINE
8
BLACK
6
CONTINUOUS
10
4.214173228346457
20
-5.9064960629921259
11
3.8992125984251969
21
-5.9064960629921259
0
LINE
8
BLACK
6
CONTINUOUS
10
3.8992125984251969
20
-5.9064960629921259
11
3.8988359448818897
21
-5.9064211417322836
0
LINE
8
BLACK
6
CONTINUOUS
10
3.8988359448818897
20
-5.9064211417322836
11
3.8983032677165355
21
-5.905888464566929
0
LINE
8
BLACK
6
CONTINUOUS
10
3.8983032677165355
20
-5.905888464566929
11
3.8982283464566927
21
-5.9055118110236222
0
LINE
8
BLACK
6
CONTINUOUS
10
3.8982283464566927
20
-5.9055118110236222
11
3.8982283464566927
21
-5.6496062992125982
0
LINE
8
BLACK
6
CONTINUOUS
10
3.8982283464566927
20
-5.6496062992125982
11
3.8983032677165355
21
-5.6492296456692914
0
LINE
8
BLACK
6
CONTINUOUS
10
3.8983032677165355
20
-5.6492296456692914
11
3.8988359448818897
21
-5.6486969685039368
0
LINE
8
BLACK
6
CONTINUOUS
10
3.8988359448818897
20
-5.6486969685039368
11
3.8992125984251969
21
-5.6486220472440944
0
LINE
8
BLACK
6
CONTINUOUS
10
3.8992125984251969
20
-5.6486220472440944
11
4.214173228346457
21
-5.6486220472440944
0
LINE
8
BLACK
6
CONTINUOUS
10
4.214173228346457
20
-5.6486220472440944
11
4.2145498818897638
21
-5.6486969685039368
0
LINE
8
BLACK
6
CONTINUOUS
10
3.9001968503937006
20
-5.6505905511811019
11
3.9001968503937006
21
-5.9045275590551176
0
LINE
8
BLACK
6
CONTINUOUS
10
3.9001968503937006
20
-5.9045275590551176
11
4.2131889763779524
21
-5.9045275590551176
0
LINE
8
BLACK
6
CONTINUOUS
10
4.2131889763779524
20
-5.9045275590551176
11
4.2131889763779524
21
-5.6505905511811019
0
LINE
8
BLACK
6
CONTINUOUS
10
4.2131889763779524
20
-5.6505905511811019
11
3.9001968503937006
21
-5.6505905511811019
0
LINE
8
BLACK
6
CONTINUOUS
10
2.9910262598425197
20
-5.8164135039370075
11
2.9915589370078739
21
-5.8169461811023622
0
LINE
8
BLACK
6
CONTINUOUS
10
2.9915589370078739
20
-5.8169461811023622
11
2.9916338582677167
21
-5.8173228346456689
0
LINE
8
BLACK
6
CONTINUOUS
10
2.9916338582677167
20
-5.8173228346456689
11
2.9916338582677167
21
-5.8748031496062989
0
LINE
8
BLACK
6
CONTINUOUS
10
2.9916338582677167
20
-5.8748031496062989
11
2.9915589370078739
21
-5.8751798031496065
0
LINE
8
BLACK
6
CONTINUOUS
10
2.9915589370078739
20
-5.8751798031496065
11
2.9910262598425197
21
-5.8757124803149603
0
LINE
8
BLACK
6
CONTINUOUS
10
2.9910262598425197
20
-5.8757124803149603
11
2.9906496062992125
21
-5.8757874015748026
0
LINE
8
BLACK
6
CONTINUOUS
10
2.9906496062992125
20
-5.8757874015748026
11
2.860728346456693
21
-5.8757874015748026
0
LINE
8
BLACK
6
CONTINUOUS
10
2.860728346456693
20
-5.8757874015748026
11
2.8603516929133859
21
-5.8757124803149603
0
LINE
8
BLACK
6
CONTINUOUS
10
2.8603516929133859
20
-5.8757124803149603
11
2.8598190157480312
21
-5.8751798031496065
0
LINE
8
BLACK
6
CONTINUOUS
10
2.8598190157480312
20
-5.8751798031496065
11
2.8597440944881889
21
-5.8748031496062989
0
LINE
8
BLACK
6
CONTINUOUS
10
2.8597440944881889
20
-5.8748031496062989
11
2.8597440944881889
21
-5.8173228346456689
0
LINE
8
BLACK
6
CONTINUOUS
10
2.8597440944881889
20
-5.8173228346456689
11
2.8598190157480312
21
-5.8169461811023622
0
LINE
8
BLACK
6
CONTINUOUS
10
2.8598190157480312
20
-5.8169461811023622
11
2.8603516929133859
21
-5.8164135039370075
0
LINE
8
BLACK
6
CONTINUOUS
10
2.8603516929133859
20
-5.8164135039370075
11
2.860728346456693
21
-5.8163385826771652
0
LINE
8
BLACK
6
CONTINUOUS
10
2.860728346456693
20
-5.8163385826771652
11
2.9906496062992125
21
-5.8163385826771652
0
LINE
8
BLACK
6
CONTINUOUS
10
2.9906496062992125
20
-5.8163385826771652
11
2.9910262598425197
21
-5.8164135039370075
0
LINE
8
BLACK
6
CONTINUOUS
10
2.8617125984251968
20
-5.8183070866141735
11
2.8617125984251968
21
-5.8738188976377952
0
LINE
8
BLACK
6
CONTINUOUS
10
2.8617125984251968
20
-5.8738188976377952
11
2.9896653543307088
21
-5.8738188976377952
0
LINE
8
BLACK
6
CONTINUOUS
10
2.9896653543307088
20
-5.8738188976377952
11
2.9896653543307088
21
-5.8183070866141735
0
LINE
8
BLACK
6
CONTINUOUS
10
2.9896653543307088
20
-5.8183070866141735
11
2.8617125984251968
21
-5.8183070866141735
0
LINE
8
BLACK
6
CONTINUOUS
10
5.8061798031496066
20
-5.7557087795275592
11
5.8067124803149603
21
-5.756241456692913
0
LINE
8
BLACK
6
CONTINUOUS
10
5.8067124803149603
20
-5.756241456692913
11
5.8067874015748027
21
-5.7566181102362206
0
LINE
8
BLACK
6
CONTINUOUS
10
5.8067874015748027
20
-5.7566181102362206
11
5.8067874015748027
21
-5.8471692913385827
0
LINE
8
BLACK
6
CONTINUOUS
10
5.8067874015748027
20
-5.8471692913385827
11
5.8067124803149603
21
-5.8475459448818894
0
LINE
8
BLACK
6
CONTINUOUS
10
5.8067124803149603
20
-5.8475459448818894
11
5.8061798031496066
21
-5.848078622047244
0
LINE
8
BLACK
6
CONTINUOUS
10
5.8061798031496066
20
-5.848078622047244
11
5.805803149606299
21
-5.8481535433070864
0
LINE
8
BLACK
6
CONTINUOUS
10
5.805803149606299
20
-5.8481535433070864
11
5.6247007874015749
21
-5.8481535433070864
0
LINE
8
BLACK
6
CONTINUOUS
10
5.6247007874015749
20
-5.8481535433070864
11
5.6243241338582672
21
-5.848078622047244
0
LINE
8
BLACK
6
CONTINUOUS
10
5.6243241338582672
20
-5.848078622047244
11
5.6237914566929135
21
-5.8475459448818894
0
LINE
8
BLACK
6
CONTINUOUS
10
5.6237914566929135
20
-5.8475459448818894
11
5.6237165354330712
21
-5.8471692913385827
0
LINE
8
BLACK
6
CONTINUOUS
10
5.6237165354330712
20
-5.8471692913385827
11
5.6237165354330712
21
-5.7566181102362206
0
LINE
8
BLACK
6
CONTINUOUS
10
5.6237165354330712
20
-5.7566181102362206
11
5.6237914566929135
21
-5.756241456692913
0
LINE
8
BLACK
6
CONTINUOUS
10
5.6237914566929135
20
-5.756241456692913
11
5.6243241338582672
21
-5.7557087795275592
0
LINE
8
BLACK
6
CONTINUOUS
10
5.6243241338582672
20
-5.7557087795275592
11
5.6247007874015749
21
-5.755633858267716
0
LINE
8
BLACK
6
CONTINUOUS
10
5.6247007874015749
20
-5.755633858267716
11
5.805803149606299
21
-5.755633858267716
0
LINE
8
BLACK
6
CONTINUOUS
10
5.805803149606299
20
-5.755633858267716
11
5.8061798031496066
21
-5.7557087795275592
0
LINE
8
BLACK
6
CONTINUOUS
10
5.6256850393700786
20
-5.7576023622047243
11
5.6256850393700786
21
-5.8461850393700789
0
LINE
8
BLACK
6
CONTINUOUS
10
5.6256850393700786
20
-5.8461850393700789
11
5.8048188976377952
21
-5.8461850393700789
0
LINE
8
BLACK
6
CONTINUOUS
10
5.8048188976377952
20
-5.8461850393700789
11
5.8048188976377952
21
-5.7576023622047243
0
LINE
8
BLACK
6
CONTINUOUS
10
5.8048188976377952
20
-5.7576023622047243
11
5.6256850393700786
21
-5.7576023622047243
0
LINE
8
BLACK
6
CONTINUOUS
10
5.3475183858267714
20
-5.7722442125984248
11
5.3480510629921261
21
-5.7727768897637795
0
LINE
8
BLACK
6
CONTINUOUS
10
5.3480510629921261
20
-5.7727768897637795
11
5.3481259842519684
21
-5.7731535433070862
0
LINE
8
BLACK
6
CONTINUOUS
10
5.3481259842519684
20
-5.7731535433070862
11
5.3481259842519684
21
-5.8306338582677162
0
LINE
8
BLACK
6
CONTINUOUS
10
5.3481259842519684
20
-5.8306338582677162
11
5.3480510629921261
21
-5.8310105118110238
0
LINE
8
BLACK
6
CONTINUOUS
10
5.3480510629921261
20
-5.8310105118110238
11
5.3475183858267714
21
-5.8315431889763776
0
LINE
8
BLACK
6
CONTINUOUS
10
5.3475183858267714
20
-5.8315431889763776
11
5.3471417322834647
21
-5.8316181102362199
0
LINE
8
BLACK
6
CONTINUOUS
10
5.3471417322834647
20
-5.8316181102362199
11
5.2172204724409443
21
-5.8316181102362199
0
LINE
8
BLACK
6
CONTINUOUS
10
5.2172204724409443
20
-5.8316181102362199
11
5.2168438188976376
21
-5.8315431889763776
0
LINE
8
BLACK
6
CONTINUOUS
10
5.2168438188976376
20
-5.8315431889763776
11
5.2163111417322829
21
-5.8310105118110238
0
LINE
8
BLACK
6
CONTINUOUS
10
5.2163111417322829
20
-5.8310105118110238
11
5.2162362204724406
21
-5.8306338582677162
0
LINE
8
BLACK
6
CONTINUOUS
10
5.2162362204724406
20
-5.8306338582677162
11
5.2162362204724406
21
-5.7731535433070862
0
LINE
8
BLACK
6
CONTINUOUS
10
5.2162362204724406
20
-5.7731535433070862
11
5.2163111417322829
21
-5.7727768897637795
0
LINE
8
BLACK
6
CONTINUOUS
10
5.2163111417322829
20
-5.7727768897637795
11
5.2168438188976376
21
-5.7722442125984248
0
LINE
8
BLACK
6
CONTINUOUS
10
5.2168438188976376
20
-5.7722442125984248
11
5.2172204724409443
21
-5.7721692913385825
0
LINE
8
BLACK
6
CONTINUOUS
10
5.2172204724409443
20
-5.7721692913385825
11
5.3471417322834647
21
-5.7721692913385825
0
LINE
8
BLACK
6
CONTINUOUS
10
5.3471417322834647
20
-5.7721692913385825
11
5.3475183858267714
21
-5.7722442125984248
0
LINE
8
BLACK
6
CONTINUOUS
10
5.2182047244094489
20
-5.7741377952755908
11
5.2182047244094489
21
-5.8296496062992125
0
LINE
8
BLACK
6
CONTINUOUS
10
5.2182047244094489
20
-5.8296496062992125
11
5.3461574803149601
21
-5.8296496062992125
0
LINE
8
BLACK
6
CONTINUOUS
10
5.3461574803149601
20
-5.8296496062992125
11
5.3461574803149601
21
-5.7741377952755908
0
LINE
8
BLACK
6
CONTINUOUS
10
5.3461574803149601
20
-5.7741377952755908
11
5.2182047244094489
21
-5.7741377952755908
0
LINE
8
BLACK
6
CONTINUOUS
10
5.5640538188976381
20
-5.7722442125984248
11
5.5645864960629918
21
-5.7727768897637795
0
LINE
8
BLACK
6
CONTINUOUS
10
5.5645864960629918
20
-5.7727768897637795
11
5.5646614173228341
21
-5.7731535433070862
0
LINE
8
BLACK
6
CONTINUOUS
10
5.5646614173228341
20
-5.7731535433070862
11
5.5646614173228341
21
-5.8306338582677162
0
LINE
8
BLACK
6
CONTINUOUS
10
5.5646614173228341
20
-5.8306338582677162
11
5.5645864960629918
21
-5.8310105118110238
0
LINE
8
BLACK
6
CONTINUOUS
10
5.5645864960629918
20
-5.8310105118110238
11
5.5640538188976381
21
-5.8315431889763776
0
LINE
8
BLACK
6
CONTINUOUS
10
5.5640538188976381
20
-5.8315431889763776
11
5.5636771653543304
21
-5.8316181102362199
0
LINE
8
BLACK
6
CONTINUOUS
10
5.5636771653543304
20
-5.8316181102362199
11
5.433755905511811
21
-5.8316181102362199
0
LINE
8
BLACK
6
CONTINUOUS
10
5.433755905511811
20
-5.8316181102362199
11
5.4333792519685042
21
-5.8315431889763776
0
LINE
8
BLACK
6
CONTINUOUS
10
5.4333792519685042
20
-5.8315431889763776
11
5.4328465748031496
21
-5.8310105118110238
0
LINE
8
BLACK
6
CONTINUOUS
10
5.4328465748031496
20
-5.8310105118110238
11
5.4327716535433073
21
-5.8306338582677162
0
LINE
8
BLACK
6
CONTINUOUS
10
5.4327716535433073
20
-5.8306338582677162
11
5.4327716535433073
21
-5.7731535433070862
0
LINE
8
BLACK
6
CONTINUOUS
10
5.4327716535433073
20
-5.7731535433070862
11
5.4328465748031496
21
-5.7727768897637795
0
LINE
8
BLACK
6
CONTINUOUS
10
5.4328465748031496
20
-5.7727768897637795
11
5.4333792519685042
21
-5.7722442125984248
0
LINE
8
BLACK
6
CONTINUOUS
10
5.4333792519685042
20
-5.7722442125984248
11
5.433755905511811
21
-5.7721692913385825
0
LINE
8
BLACK
6
CONTINUOUS
10
5.433755905511811
20
-5.7721692913385825
11
5.5636771653543304
21
-5.7721692913385825
0
LINE
8
BLACK
6
CONTINUOUS
10
5.5636771653543304
20
-5.7721692913385825
11
5.5640538188976381
21
-5.7722442125984248
0
LINE
8
BLACK
6
CONTINUOUS
10
5.4347401574803147
20
-5.7741377952755908
11
5.4347401574803147
21
-5.8296496062992125
0
LINE
8
BLACK
6
CONTINUOUS
10
5.4347401574803147
20
-5.8296496062992125
11
5.5626929133858267
21
-5.8296496062992125
0
LINE
8
BLACK
6
CONTINUOUS
10
5.5626929133858267
20
-5.8296496062992125
11
5.5626929133858267
21
-5.7741377952755908
0
LINE
8
BLACK
6
CONTINUOUS
10
5.5626929133858267
20
-5.7741377952755908
11
5.4347401574803147
21
-5.7741377952755908
0
LINE
8
BLACK
6
CONTINUOUS
10
5.9971246850393696
20
-5.7722442125984248
11
5.9976573622047242
21
-5.7727768897637795
0
LINE
8
BLACK
6
CONTINUOUS
10
5.9976573622047242
20
-5.7727768897637795
11
5.9977322834645665
21
-5.7731535433070862
0
LINE
8
BLACK
6
CONTINUOUS
10
5.9977322834645665
20
-5.7731535433070862
11
5.9977322834645665
21
-5.8306338582677162
0
LINE
8
BLACK
6
CONTINUOUS
10
5.9977322834645665
20
-5.8306338582677162
11
5.9976573622047242
21
-5.8310105118110238
0
LINE
8
BLACK
6
CONTINUOUS
10
5.9976573622047242
20
-5.8310105118110238
11
5.9971246850393696
21
-5.8315431889763776
0
LINE
8
BLACK
6
CONTINUOUS
10
5.9971246850393696
20
-5.8315431889763776
11
5.9967480314960628
21
-5.8316181102362199
0
LINE
8
BLACK
6
CONTINUOUS
10
5.9967480314960628
20
-5.8316181102362199
11
5.8668267716535434
21
-5.8316181102362199
0
LINE
8
BLACK
6
CONTINUOUS
10
5.8668267716535434
20
-5.8316181102362199
11
5.8664501181102358
21
-5.8315431889763776
0
LINE
8
BLACK
6
CONTINUOUS
10
5.8664501181102358
20
-5.8315431889763776
11
5.865917440944882
21
-5.8310105118110238
0
LINE
8
BLACK
6
CONTINUOUS
10
5.865917440944882
20
-5.8310105118110238
11
5.8658425196850397
21
-5.8306338582677162
0
LINE
8
BLACK
6
CONTINUOUS
10
5.8658425196850397
20
-5.8306338582677162
11
5.8658425196850397
21
-5.7731535433070862
0
LINE
8
BLACK
6
CONTINUOUS
10
5.8658425196850397
20
-5.7731535433070862
11
5.865917440944882
21
-5.7727768897637795
0
LINE
8
BLACK
6
CONTINUOUS
10
5.865917440944882
20
-5.7727768897637795
11
5.8664501181102358
21
-5.7722442125984248
0
LINE
8
BLACK
6
CONTINUOUS
10
5.8664501181102358
20
-5.7722442125984248
11
5.8668267716535434
21
-5.7721692913385825
0
LINE
8
BLACK
6
CONTINUOUS
10
5.8668267716535434
20
-5.7721692913385825
11
5.9967480314960628
21
-5.7721692913385825
0
LINE
8
BLACK
6
CONTINUOUS
10
5.9967480314960628
20
-5.7721692913385825
11
5.9971246850393696
21
-5.7722442125984248
0
LINE
8
BLACK
6
CONTINUOUS
10
5.8678110236220471
20
-5.7741377952755908
11
5.8678110236220471
21
-5.8296496062992125
0
LINE
8
BLACK
6
CONTINUOUS
10
5.8678110236220471
20
-5.8296496062992125
11
5.9957637795275591
21
-5.8296496062992125
0
LINE
8
BLACK
6
CONTINUOUS
10
5.9957637795275591
20
-5.8296496062992125
11
5.9957637795275591
21
-5.7741377952755908
0
LINE
8
BLACK
6
CONTINUOUS
10
5.9957637795275591
20
-5.7741377952755908
11
5.8678110236220471
21
-5.7741377952755908
0
LINE
8
BLACK
6
CONTINUOUS
10
6.2195656299212594
20
-5.7360237401574805
11
6.220098307086614
21
-5.7365564173228343
0
LINE
8
BLACK
6
CONTINUOUS
10
6.220098307086614
20
-5.7365564173228343
11
6.2201732283464564
21
-5.7369330708661419
0
LINE
8
BLACK
6
CONTINUOUS
10
6.2201732283464564
20
-5.7369330708661419
11
6.2201732283464564
21
-5.8274842519685039
0
LINE
8
BLACK
6
CONTINUOUS
10
6.2201732283464564
20
-5.8274842519685039
11
6.220098307086614
21
-5.8278609055118107
0
LINE
8
BLACK
6
CONTINUOUS
10
6.220098307086614
20
-5.8278609055118107
11
6.2195656299212594
21
-5.8283935826771653
0
LINE
8
BLACK
6
CONTINUOUS
10
6.2195656299212594
20
-5.8283935826771653
11
6.2191889763779526
21
-5.8284685039370077
0
LINE
8
BLACK
6
CONTINUOUS
10
6.2191889763779526
20
-5.8284685039370077
11
6.0380866141732286
21
-5.8284685039370077
0
LINE
8
BLACK
6
CONTINUOUS
10
6.0380866141732286
20
-5.8284685039370077
11
6.0377099606299209
21
-5.8283935826771653
0
LINE
8
BLACK
6
CONTINUOUS
10
6.0377099606299209
20
-5.8283935826771653
11
6.0371772834645672
21
-5.8278609055118107
0
LINE
8
BLACK
6
CONTINUOUS
10
6.0371772834645672
20
-5.8278609055118107
11
6.037102362204724
21
-5.8274842519685039
0
LINE
8
BLACK
6
CONTINUOUS
10
6.037102362204724
20
-5.8274842519685039
11
6.037102362204724
21
-5.7369330708661419
0
LINE
8
BLACK
6
CONTINUOUS
10
6.037102362204724
20
-5.7369330708661419
11
6.0371772834645672
21
-5.7365564173228343
0
LINE
8
BLACK
6
CONTINUOUS
10
6.0371772834645672
20
-5.7365564173228343
11
6.0377099606299209
21
-5.7360237401574805
0
LINE
8
BLACK
6
CONTINUOUS
10
6.0377099606299209
20
-5.7360237401574805
11
6.0380866141732286
21
-5.7359488188976373
0
LINE
8
BLACK
6
CONTINUOUS
10
6.0380866141732286
20
-5.7359488188976373
11
6.2191889763779526
21
-5.7359488188976373
0
LINE
8
BLACK
6
CONTINUOUS
10
6.2191889763779526
20
-5.7359488188976373
11
6.2195656299212594
21
-5.7360237401574805
0
LINE
8
BLACK
6
CONTINUOUS
10
6.0390708661417323
20
-5.7379173228346456
11
6.0390708661417323
21
-5.8265000000000002
0
LINE
8
BLACK
6
CONTINUOUS
10
6.0390708661417323
20
-5.8265000000000002
11
6.2182047244094489
21
-5.8265000000000002
0
LINE
8
BLACK
6
CONTINUOUS
10
6.2182047244094489
20
-5.8265000000000002
11
6.2182047244094489
21
-5.7379173228346456
0
LINE
8
BLACK
6
CONTINUOUS
10
6.2182047244094489
20
-5.7379173228346456
11
6.0390708661417323
21
-5.7379173228346456
0
LINE
8
BLACK
6
CONTINUOUS
10
2.9841364960629919
20
-5.7207442125984249
11
2.9846691732283466
21
-5.7212768897637796
0
LINE
8
BLACK
6
CONTINUOUS
10
2.9846691732283466
20
-5.7212768897637796
11
2.9847440944881889
21
-5.7216535433070863
0
LINE
8
BLACK
6
CONTINUOUS
10
2.9847440944881889
20
-5.7216535433070863
11
2.9847440944881889
21
-5.7791338582677163
0
LINE
8
BLACK
6
CONTINUOUS
10
2.9847440944881889
20
-5.7791338582677163
11
2.9846691732283466
21
-5.7795105118110239
0
LINE
8
BLACK
6
CONTINUOUS
10
2.9846691732283466
20
-5.7795105118110239
11
2.9841364960629919
21
-5.7800431889763777
0
LINE
8
BLACK
6
CONTINUOUS
10
2.9841364960629919
20
-5.7800431889763777
11
2.9837598425196852
21
-5.78011811023622
0
LINE
8
BLACK
6
CONTINUOUS
10
2.9837598425196852
20
-5.78011811023622
11
2.8538385826771653
21
-5.78011811023622
0
LINE
8
BLACK
6
CONTINUOUS
10
2.8538385826771653
20
-5.78011811023622
11
2.8534619291338581
21
-5.7800431889763777
0
LINE
8
BLACK
6
CONTINUOUS
10
2.8534619291338581
20
-5.7800431889763777
11
2.8529292519685039
21
-5.7795105118110239
0
LINE
8
BLACK
6
CONTINUOUS
10
2.8529292519685039
20
-5.7795105118110239
11
2.8528543307086616
21
-5.7791338582677163
0
LINE
8
BLACK
6
CONTINUOUS
10
2.8528543307086616
20
-5.7791338582677163
11
2.8528543307086616
21
-5.7216535433070863
0
LINE
8
BLACK
6
CONTINUOUS
10
2.8528543307086616
20
-5.7216535433070863
11
2.8529292519685039
21
-5.7212768897637796
0
LINE
8
BLACK
6
CONTINUOUS
10
2.8529292519685039
20
-5.7212768897637796
11
2.8534619291338581
21
-5.7207442125984249
0
LINE
8
BLACK
6
CONTINUOUS
10
2.8534619291338581
20
-5.7207442125984249
11
2.8538385826771653
21
-5.7206692913385826
0
LINE
8
BLACK
6
CONTINUOUS
10
2.8538385826771653
20
-5.7206692913385826
11
2.9837598425196852
21
-5.7206692913385826
0
LINE
8
BLACK
6
CONTINUOUS
10
2.9837598425196852
20
-5.7206692913385826
11
2.9841364960629919
21
-5.7207442125984249
0
LINE
8
BLACK
6
CONTINUOUS
10
2.8548228346456694
20
-5.72263779527559
11
2.8548228346456694
21
-5.7781496062992126
0
LINE
8
BLACK
6
CONTINUOUS
10
2.8548228346456694
20
-5.7781496062992126
11
2.982775590551181
21
-5.7781496062992126
0
LINE
8
BLACK
6
CONTINUOUS
10
2.982775590551181
20
-5.7781496062992126
11
2.982775590551181
21
-5.72263779527559
0
LINE
8
BLACK
6
CONTINUOUS
10
2.982775590551181
20
-5.72263779527559
11
2.8548228346456694
21
-5.72263779527559
0
LINE
8
BLACK
6
CONTINUOUS
10
3.2149435826771651
20
-5.6790119291338579
11
3.2154762598425197
21
-5.6795446062992125
0
LINE
8
BLACK
6
CONTINUOUS
10
3.2154762598425197
20
-5.6795446062992125
11
3.215551181102362
21
-5.6799212598425193
0
LINE
8
BLACK
6
CONTINUOUS
10
3.215551181102362
20
-5.6799212598425193
11
3.215551181102362
21
-5.7374015748031493
0
LINE
8
BLACK
6
CONTINUOUS
10
3.215551181102362
20
-5.7374015748031493
11
3.2154762598425197
21
-5.7377782283464569
0
LINE
8
BLACK
6
CONTINUOUS
10
3.2154762598425197
20
-5.7377782283464569
11
3.2149435826771651
21
-5.7383109055118107
0
LINE
8
BLACK
6
CONTINUOUS
10
3.2149435826771651
20
-5.7383109055118107
11
3.2145669291338583
21
-5.738385826771653
0
LINE
8
BLACK
6
CONTINUOUS
10
3.2145669291338583
20
-5.738385826771653
11
3.0846456692913384
21
-5.738385826771653
0
LINE
8
BLACK
6
CONTINUOUS
10
3.0846456692913384
20
-5.738385826771653
11
3.0842690157480313
21
-5.7383109055118107
0
LINE
8
BLACK
6
CONTINUOUS
10
3.0842690157480313
20
-5.7383109055118107
11
3.083736338582677
21
-5.7377782283464569
0
LINE
8
BLACK
6
CONTINUOUS
10
3.083736338582677
20
-5.7377782283464569
11
3.0836614173228347
21
-5.7374015748031493
0
LINE
8
BLACK
6
CONTINUOUS
10
3.0836614173228347
20
-5.7374015748031493
11
3.0836614173228347
21
-5.6799212598425193
0
LINE
8
BLACK
6
CONTINUOUS
10
3.0836614173228347
20
-5.6799212598425193
11
3.083736338582677
21
-5.6795446062992125
0
LINE
8
BLACK
6
CONTINUOUS
10
3.083736338582677
20
-5.6795446062992125
11
3.0842690157480313
21
-5.6790119291338579
0
LINE
8
BLACK
6
CONTINUOUS
10
3.0842690157480313
20
-5.6790119291338579
11
3.0846456692913384
21
-5.6789370078740156
0
LINE
8
BLACK
6
CONTINUOUS
10
3.0846456692913384
20
-5.6789370078740156
11
3.2145669291338583
21
-5.6789370078740156
0
LINE
8
BLACK
6
CONTINUOUS
10
3.2145669291338583
20
-5.6789370078740156
11
3.2149435826771651
21
-5.6790119291338579
0
LINE
8
BLACK
6
CONTINUOUS
10
3.0856299212598426
20
-5.6809055118110239
11
3.0856299212598426
21
-5.7364173228346456
0
LINE
8
BLACK
6
CONTINUOUS
10
3.0856299212598426
20
-5.7364173228346456
11
3.2135826771653542
21
-5.7364173228346456
0
LINE
8
BLACK
6
CONTINUOUS
10
3.2135826771653542
20
-5.7364173228346456
11
3.2135826771653542
21
-5.6809055118110239
0
LINE
8
BLACK
6
CONTINUOUS
10
3.2135826771653542
20
-5.6809055118110239
11
3.0856299212598426
21
-5.6809055118110239
0
LINE
8
BLACK
6
CONTINUOUS
10
4.8822664173228345
20
-5.341610354330709
11
4.8827990944881892
21
-5.3421430314960627
0
LINE
8
BLACK
6
CONTINUOUS
10
4.8827990944881892
20
-5.3421430314960627
11
4.8828740157480315
21
-5.3425196850393704
0
LINE
8
BLACK
6
CONTINUOUS
10
4.8828740157480315
20
-5.3425196850393704
11
4.8828740157480315
21
-5.4112204724409452
0
LINE
8
BLACK
6
CONTINUOUS
10
4.8828740157480315
20
-5.4112204724409452
11
4.8976377952755907
21
-5.4112204724409452
0
LINE
8
BLACK
6
CONTINUOUS
10
4.8976377952755907
20
-5.4112204724409452
11
4.8980144488188975
21
-5.4112953937007875
0
LINE
8
BLACK
6
CONTINUOUS
10
4.8980144488188975
20
-5.4112953937007875
11
4.8985471259842521
21
-5.4118280708661413
0
LINE
8
BLACK
6
CONTINUOUS
10
4.8985471259842521
20
-5.4118280708661413
11
4.8986220472440944
21
-5.4122047244094489
0
LINE
8
BLACK
6
CONTINUOUS
10
4.8986220472440944
20
-5.4122047244094489
11
4.8986220472440944
21
-5.6114173228346456
0
LINE
8
BLACK
6
CONTINUOUS
10
4.8986220472440944
20
-5.6114173228346456
11
4.8985471259842521
21
-5.6117939763779523
0
LINE
8
BLACK
6
CONTINUOUS
10
4.8985471259842521
20
-5.6117939763779523
11
4.8980144488188975
21
-5.612326653543307
0
LINE
8
BLACK
6
CONTINUOUS
10
4.8980144488188975
20
-5.612326653543307
11
4.8976377952755907
21
-5.6124015748031493
0
LINE
8
BLACK
6
CONTINUOUS
10
4.8976377952755907
20
-5.6124015748031493
11
4.8828740157480315
21
-5.6124015748031493
0
LINE
8
BLACK
6
CONTINUOUS
10
4.8828740157480315
20
-5.6124015748031493
11
4.8828740157480315
21
-5.6811023622047241
0
LINE
8
BLACK
6
CONTINUOUS
10
4.8828740157480315
20
-5.6811023622047241
11
4.8827990944881892
21
-5.6814790157480317
0
LINE
8
BLACK
6
CONTINUOUS
10
4.8827990944881892
20
-5.6814790157480317
11
4.8822664173228345
21
-5.6820116929133855
0
LINE
8
BLACK
6
CONTINUOUS
10
4.8822664173228345
20
-5.6820116929133855
11
4.8818897637795278
21
-5.6820866141732278
0
LINE
8
BLACK
6
CONTINUOUS
10
4.8818897637795278
20
-5.6820866141732278
11
4.4881889763779528
21
-5.6820866141732278
0
LINE
8
BLACK
6
CONTINUOUS
10
4.4881889763779528
20
-5.6820866141732278
11
4.4878123228346452
21
-5.6820116929133855
0
LINE
8
BLACK
6
CONTINUOUS
10
4.4878123228346452
20
-5.6820116929133855
11
4.4872796456692914
21
-5.6814790157480317
0
LINE
8
BLACK
6
CONTINUOUS
10
4.4872796456692914
20
-5.6814790157480317
11
4.4872047244094491
21
-5.6811023622047241
0
LINE
8
BLACK
6
CONTINUOUS
10
4.4872047244094491
20
-5.6811023622047241
11
4.4872047244094491
21
-5.6124015748031493
0
LINE
8
BLACK
6
CONTINUOUS
10
4.4872047244094491
20
-5.6124015748031493
11
4.4724409448818898
21
-5.6124015748031493
0
LINE
8
BLACK
6
CONTINUOUS
10
4.4724409448818898
20
-5.6124015748031493
11
4.4720642913385822
21
-5.612326653543307
0
LINE
8
BLACK
6
CONTINUOUS
10
4.4720642913385822
20
-5.612326653543307
11
4.4715316141732284
21
-5.6117939763779523
0
LINE
8
BLACK
6
CONTINUOUS
10
4.4715316141732284
20
-5.6117939763779523
11
4.4714566929133861
21
-5.6114173228346456
0
LINE
8
BLACK
6
CONTINUOUS
10
4.4714566929133861
20
-5.6114173228346456
11
4.4714566929133861
21
-5.4122047244094489
0
LINE
8
BLACK
6
CONTINUOUS
10
4.4714566929133861
20
-5.4122047244094489
11
4.4715316141732284
21
-5.4118280708661413
0
LINE
8
BLACK
6
CONTINUOUS
10
4.4715316141732284
20
-5.4118280708661413
11
4.4720642913385822
21
-5.4112953937007875
0
LINE
8
BLACK
6
CONTINUOUS
10
4.4720642913385822
20
-5.4112953937007875
11
4.4724409448818898
21
-5.4112204724409452
0
LINE
8
BLACK
6
CONTINUOUS
10
4.4724409448818898
20
-5.4112204724409452
11
4.4872047244094491
21
-5.4112204724409452
0
LINE
8
BLACK
6
CONTINUOUS
10
4.4872047244094491
20
-5.4112204724409452
11
4.4872047244094491
21
-5.3425196850393704
0
LINE
8
BLACK
6
CONTINUOUS
10
4.4872047244094491
20
-5.3425196850393704
11
4.4872796456692914
21
-5.3421430314960627
0
LINE
8
BLACK
6
CONTINUOUS
10
4.4872796456692914
20
-5.3421430314960627
11
4.4878123228346452
21
-5.341610354330709
0
LINE
8
BLACK
6
CONTINUOUS
10
4.4878123228346452
20
-5.341610354330709
11
4.4881889763779528
21
-5.3415354330708658
0
LINE
8
BLACK
6
CONTINUOUS
10
4.4881889763779528
20
-5.3415354330708658
11
4.8818897637795278
21
-5.3415354330708658
0
LINE
8
BLACK
6
CONTINUOUS
10
4.8818897637795278
20
-5.3415354330708658
11
4.8822664173228345
21
-5.341610354330709
0
LINE
8
BLACK
6
CONTINUOUS
10
4.4891732283464565
20
-5.3435039370078741
11
4.4891732283464565
21
-5.4122047244094489
0
LINE
8
BLACK
6
CONTINUOUS
10
4.4891732283464565
20
-5.4122047244094489
11
4.4890983070866142
21
-5.4125813779527556
0
LINE
8
BLACK
6
CONTINUOUS
10
4.4890983070866142
20
-5.4125813779527556
11
4.4885656299212595
21
-5.4131140551181103
0
LINE
8
BLACK
6
CONTINUOUS
10
4.4885656299212595
20
-5.4131140551181103
11
4.4881889763779528
21
-5.4131889763779526
0
LINE
8
BLACK
6
CONTINUOUS
10
4.4881889763779528
20
-5.4131889763779526
11
4.4734251968503935
21
-5.4131889763779526
0
LINE
8
BLACK
6
CONTINUOUS
10
4.4734251968503935
20
-5.4131889763779526
11
4.4734251968503935
21
-5.6104330708661418
0
LINE
8
BLACK
6
CONTINUOUS
10
4.4734251968503935
20
-5.6104330708661418
11
4.4881889763779528
21
-5.6104330708661418
0
LINE
8
BLACK
6
CONTINUOUS
10
4.4881889763779528
20
-5.6104330708661418
11
4.4885656299212595
21
-5.6105079921259842
0
LINE
8
BLACK
6
CONTINUOUS
10
4.4885656299212595
20
-5.6105079921259842
11
4.4890983070866142
21
-5.6110406692913388
0
LINE
8
BLACK
6
CONTINUOUS
10
4.4890983070866142
20
-5.6110406692913388
11
4.4891732283464565
21
-5.6114173228346456
0
LINE
8
BLACK
6
CONTINUOUS
10
4.4891732283464565
20
-5.6114173228346456
11
4.4891732283464565
21
-5.6801181102362204
0
LINE
8
BLACK
6
CONTINUOUS
10
4.4891732283464565
20
-5.6801181102362204
11
4.8809055118110232
21
-5.6801181102362204
0
LINE
8
BLACK
6
CONTINUOUS
10
4.8809055118110232
20
-5.6801181102362204
11
4.8809055118110232
21
-5.6114173228346456
0
LINE
8
BLACK
6
CONTINUOUS
10
4.8809055118110232
20
-5.6114173228346456
11
4.8809804330708664
21
-5.6110406692913388
0
LINE
8
BLACK
6
CONTINUOUS
10
4.8809804330708664
20
-5.6110406692913388
11
4.8815131102362201
21
-5.6105079921259842
0
LINE
8
BLACK
6
CONTINUOUS
10
4.8815131102362201
20
-5.6105079921259842
11
4.8818897637795278
21
-5.6104330708661418
0
LINE
8
BLACK
6
CONTINUOUS
10
4.8818897637795278
20
-5.6104330708661418
11
4.8966535433070861
21
-5.6104330708661418
0
LINE
8
BLACK
6
CONTINUOUS
10
4.8966535433070861
20
-5.6104330708661418
11
4.8966535433070861
21
-5.4131889763779526
0
LINE
8
BLACK
6
CONTINUOUS
10
4.8966535433070861
20
-5.4131889763779526
11
4.8818897637795278
21
-5.4131889763779526
0
LINE
8
BLACK
6
CONTINUOUS
10
4.8818897637795278
20
-5.4131889763779526
11
4.8815131102362201
21
-5.4131140551181103
0
LINE
8
BLACK
6
CONTINUOUS
10
4.8815131102362201
20
-5.4131140551181103
11
4.8809804330708664
21
-5.4125813779527556
0
LINE
8
BLACK
6
CONTINUOUS
10
4.8809804330708664
20
-5.4125813779527556
11
4.8809055118110232
21
-5.4122047244094489
0
LINE
8
BLACK
6
CONTINUOUS
10
4.8809055118110232
20
-5.4122047244094489
11
4.8809055118110232
21
-5.3435039370078741
0
LINE
8
BLACK
6
CONTINUOUS
10
4.8809055118110232
20
-5.3435039370078741
11
4.4891732283464565
21
-5.3435039370078741
0
LINE
8
BLACK
6
CONTINUOUS
10
2.9841364960629919
20
-5.618775708661417
11
2.9846691732283466
21
-5.6193083858267716
0
LINE
8
BLACK
6
CONTINUOUS
10
2.9846691732283466
20
-5.6193083858267716
11
2.9847440944881889
21
-5.6196850393700783
0
LINE
8
BLACK
6
CONTINUOUS
10
2.9847440944881889
20
-5.6196850393700783
11
2.9847440944881889
21
-5.6771653543307083
0
LINE
8
BLACK
6
CONTINUOUS
10
2.9847440944881889
20
-5.6771653543307083
11
2.9846691732283466
21
-5.677542007874016
0
LINE
8
BLACK
6
CONTINUOUS
10
2.9846691732283466
20
-5.677542007874016
11
2.9841364960629919
21
-5.6780746850393697
0
LINE
8
BLACK
6
CONTINUOUS
10
2.9841364960629919
20
-5.6780746850393697
11
2.9837598425196852
21
-5.6781496062992121
0
LINE
8
BLACK
6
CONTINUOUS
10
2.9837598425196852
20
-5.6781496062992121
11
2.8538385826771653
21
-5.6781496062992121
0
LINE
8
BLACK
6
CONTINUOUS
10
2.8538385826771653
20
-5.6781496062992121
11
2.8534619291338581
21
-5.6780746850393697
0
LINE
8
BLACK
6
CONTINUOUS
10
2.8534619291338581
20
-5.6780746850393697
11
2.8529292519685039
21
-5.677542007874016
0
LINE
8
BLACK
6
CONTINUOUS
10
2.8529292519685039
20
-5.677542007874016
11
2.8528543307086616
21
-5.6771653543307083
0
LINE
8
BLACK
6
CONTINUOUS
10
2.8528543307086616
20
-5.6771653543307083
11
2.8528543307086616
21
-5.6196850393700783
0
LINE
8
BLACK
6
CONTINUOUS
10
2.8528543307086616
20
-5.6196850393700783
11
2.8529292519685039
21
-5.6193083858267716
0
LINE
8
BLACK
6
CONTINUOUS
10
2.8529292519685039
20
-5.6193083858267716
11
2.8534619291338581
21
-5.618775708661417
0
LINE
8
BLACK
6
CONTINUOUS
10
2.8534619291338581
20
-5.618775708661417
11
2.8538385826771653
21
-5.6187007874015746
0
LINE
8
BLACK
6
CONTINUOUS
10
2.8538385826771653
20
-5.6187007874015746
11
2.9837598425196852
21
-5.6187007874015746
0
LINE
8
BLACK
6
CONTINUOUS
10
2.9837598425196852
20
-5.6187007874015746
11
2.9841364960629919
21
-5.618775708661417
0
LINE
8
BLACK
6
CONTINUOUS
10
2.8548228346456694
20
-5.620669291338583
11
2.8548228346456694
21
-5.6761811023622046
0
LINE
8
BLACK
6
CONTINUOUS
10
2.8548228346456694
20
-5.6761811023622046
11
2.982775590551181
21
-5.6761811023622046
0
LINE
8
BLACK
6
CONTINUOUS
10
2.982775590551181
20
-5.6761811023622046
11
2.982775590551181
21
-5.620669291338583
0
LINE
8
BLACK
6
CONTINUOUS
10
2.982775590551181
20
-5.620669291338583
11
2.8548228346456694
21
-5.620669291338583
0
LINE
8
BLACK
6
CONTINUOUS
10
4.4452585433070864
20
-5.6002717716535431
11
4.445791220472441
21
-5.6008044488188977
0
LINE
8
BLACK
6
CONTINUOUS
10
4.445791220472441
20
-5.6008044488188977
11
4.4458661417322833
21
-5.6011811023622045
0
LINE
8
BLACK
6
CONTINUOUS
10
4.4458661417322833
20
-5.6011811023622045
11
4.4458661417322833
21
-5.6586614173228345
0
LINE
8
BLACK
6
CONTINUOUS
10
4.4458661417322833
20
-5.6586614173228345
11
4.445791220472441
21
-5.6590380708661412
0
LINE
8
BLACK
6
CONTINUOUS
10
4.445791220472441
20
-5.6590380708661412
11
4.4452585433070864
21
-5.6595707480314958
0
LINE
8
BLACK
6
CONTINUOUS
10
4.4452585433070864
20
-5.6595707480314958
11
4.4448818897637796
21
-5.6596456692913382
0
LINE
8
BLACK
6
CONTINUOUS
10
4.4448818897637796
20
-5.6596456692913382
11
4.3149606299212602
21
-5.6596456692913382
0
LINE
8
BLACK
6
CONTINUOUS
10
4.3149606299212602
20
-5.6596456692913382
11
4.3145839763779525
21
-5.6595707480314958
0
LINE
8
BLACK
6
CONTINUOUS
10
4.3145839763779525
20
-5.6595707480314958
11
4.3140512992125979
21
-5.6590380708661412
0
LINE
8
BLACK
6
CONTINUOUS
10
4.3140512992125979
20
-5.6590380708661412
11
4.3139763779527556
21
-5.6586614173228345
0
LINE
8
BLACK
6
CONTINUOUS
10
4.3139763779527556
20
-5.6586614173228345
11
4.3139763779527556
21
-5.6011811023622045
0
LINE
8
BLACK
6
CONTINUOUS
10
4.3139763779527556
20
-5.6011811023622045
11
4.3140512992125979
21
-5.6008044488188977
0
LINE
8
BLACK
6
CONTINUOUS
10
4.3140512992125979
20
-5.6008044488188977
11
4.3145839763779525
21
-5.6002717716535431
0
LINE
8
BLACK
6
CONTINUOUS
10
4.3145839763779525
20
-5.6002717716535431
11
4.3149606299212602
21
-5.6001968503937007
0
LINE
8
BLACK
6
CONTINUOUS
10
4.3149606299212602
20
-5.6001968503937007
11
4.4448818897637796
21
-5.6001968503937007
0
LINE
8
BLACK
6
CONTINUOUS
10
4.4448818897637796
20
-5.6001968503937007
11
4.4452585433070864
21
-5.6002717716535431
0
LINE
8
BLACK
6
CONTINUOUS
10
4.3159448818897639
20
-5.6021653543307082
11
4.3159448818897639
21
-5.6576771653543307
0
LINE
8
BLACK
6
CONTINUOUS
10
4.3159448818897639
20
-5.6576771653543307
11
4.4438976377952759
21
-5.6576771653543307
0
LINE
8
BLACK
6
CONTINUOUS
10
4.4438976377952759
20
-5.6576771653543307
11
4.4438976377952759
21
-5.6021653543307082
0
LINE
8
BLACK
6
CONTINUOUS
10
4.4438976377952759
20
-5.6021653543307082
11
4.3159448818897639
21
-5.6021653543307082
0
LINE
8
BLACK
6
CONTINUOUS
10
5.4508648425196853
20
-5.5753938188976377
11
5.4513975196850391
21
-5.5759264960629924
0
LINE
8
BLACK
6
CONTINUOUS
10
5.4513975196850391
20
-5.5759264960629924
11
5.4514724409448814
21
-5.5763031496062991
0
LINE
8
BLACK
6
CONTINUOUS
10
5.4514724409448814
20
-5.5763031496062991
11
5.4514724409448814
21
-5.6337834645669291
0
LINE
8
BLACK
6
CONTINUOUS
10
5.4514724409448814
20
-5.6337834645669291
11
5.4513975196850391
21
-5.6341601181102359
0
LINE
8
BLACK
6
CONTINUOUS
10
5.4513975196850391
20
-5.6341601181102359
11
5.4508648425196853
21
-5.6346927952755905
0
LINE
8
BLACK
6
CONTINUOUS
10
5.4508648425196853
20
-5.6346927952755905
11
5.4504881889763777
21
-5.6347677165354328
0
LINE
8
BLACK
6
CONTINUOUS
10
5.4504881889763777
20
-5.6347677165354328
11
5.3205669291338582
21
-5.6347677165354328
0
LINE
8
BLACK
6
CONTINUOUS
10
5.3205669291338582
20
-5.6347677165354328
11
5.3201902755905515
21
-5.6346927952755905
0
LINE
8
BLACK
6
CONTINUOUS
10
5.3201902755905515
20
-5.6346927952755905
11
5.3196575984251968
21
-5.6341601181102359
0
LINE
8
BLACK
6
CONTINUOUS
10
5.3196575984251968
20
-5.6341601181102359
11
5.3195826771653545
21
-5.6337834645669291
0
LINE
8
BLACK
6
CONTINUOUS
10
5.3195826771653545
20
-5.6337834645669291
11
5.3195826771653545
21
-5.5763031496062991
0
LINE
8
BLACK
6
CONTINUOUS
10
5.3195826771653545
20
-5.5763031496062991
11
5.3196575984251968
21
-5.5759264960629924
0
LINE
8
BLACK
6
CONTINUOUS
10
5.3196575984251968
20
-5.5759264960629924
11
5.3201902755905515
21
-5.5753938188976377
0
LINE
8
BLACK
6
CONTINUOUS
10
5.3201902755905515
20
-5.5753938188976377
11
5.3205669291338582
21
-5.5753188976377954
0
LINE
8
BLACK
6
CONTINUOUS
10
5.3205669291338582
20
-5.5753188976377954
11
5.4504881889763777
21
-5.5753188976377954
0
LINE
8
BLACK
6
CONTINUOUS
10
5.4504881889763777
20
-5.5753188976377954
11
5.4508648425196853
21
-5.5753938188976377
0
LINE
8
BLACK
6
CONTINUOUS
10
5.3215511811023619
20
-5.5772874015748028
11
5.3215511811023619
21
-5.6327992125984254
0
LINE
8
BLACK
6
CONTINUOUS
10
5.3215511811023619
20
-5.6327992125984254
11
5.4495039370078739
21
-5.6327992125984254
0
LINE
8
BLACK
6
CONTINUOUS
10
5.4495039370078739
20
-5.6327992125984254
11
5.4495039370078739
21
-5.5772874015748028
0
LINE
8
BLACK
6
CONTINUOUS
10
5.4495039370078739
20
-5.5772874015748028
11
5.3215511811023619
21
-5.5772874015748028
0
LINE
8
BLACK
6
CONTINUOUS
10
4.0515577559055114
20
-5.5707442125984254
11
4.052090433070866
21
-5.5712768897637792
0
LINE
8
BLACK
6
CONTINUOUS
10
4.052090433070866
20
-5.5712768897637792
11
4.0521653543307083
21
-5.5716535433070868
0
LINE
8
BLACK
6
CONTINUOUS
10
4.0521653543307083
20
-5.5716535433070868
11
4.0521653543307083
21
-5.6291338582677168
0
LINE
8
BLACK
6
CONTINUOUS
10
4.0521653543307083
20
-5.6291338582677168
11
4.052090433070866
21
-5.6295105118110236
0
LINE
8
BLACK
6
CONTINUOUS
10
4.052090433070866
20
-5.6295105118110236
11
4.0515577559055114
21
-5.6300431889763782
0
LINE
8
BLACK
6
CONTINUOUS
10
4.0515577559055114
20
-5.6300431889763782
11
4.0511811023622046
21
-5.6301181102362206
0
LINE
8
BLACK
6
CONTINUOUS
10
4.0511811023622046
20
-5.6301181102362206
11
3.9212598425196847
21
-5.6301181102362206
0
LINE
8
BLACK
6
CONTINUOUS
10
3.9212598425196847
20
-5.6301181102362206
11
3.920883188976378
21
-5.6300431889763782
0
LINE
8
BLACK
6
CONTINUOUS
10
3.920883188976378
20
-5.6300431889763782
11
3.9203505118110233
21
-5.6295105118110236
0
LINE
8
BLACK
6
CONTINUOUS
10
3.9203505118110233
20
-5.6295105118110236
11
3.920275590551181
21
-5.6291338582677168
0
LINE
8
BLACK
6
CONTINUOUS
10
3.920275590551181
20
-5.6291338582677168
11
3.920275590551181
21
-5.5716535433070868
0
LINE
8
BLACK
6
CONTINUOUS
10
3.920275590551181
20
-5.5716535433070868
11
3.9203505118110233
21
-5.5712768897637792
0
LINE
8
BLACK
6
CONTINUOUS
10
3.9203505118110233
20
-5.5712768897637792
11
3.920883188976378
21
-5.5707442125984254
0
LINE
8
BLACK
6
CONTINUOUS
10
3.920883188976378
20
-5.5707442125984254
11
3.9212598425196847
21
-5.5706692913385822
0
LINE
8
BLACK
6
CONTINUOUS
10
3.9212598425196847
20
-5.5706692913385822
11
4.0511811023622046
21
-5.5706692913385822
0
LINE
8
BLACK
6
CONTINUOUS
10
4.0511811023622046
20
-5.5706692913385822
11
4.0515577559055114
21
-5.5707442125984254
0
LINE
8
BLACK
6
CONTINUOUS
10
3.9222440944881889
20
-5.5726377952755906
11
3.9222440944881889
21
-5.6281496062992122
0
LINE
8
BLACK
6
CONTINUOUS
10
3.9222440944881889
20
-5.6281496062992122
11
4.0501968503937009
21
-5.6281496062992122
0
LINE
8
BLACK
6
CONTINUOUS
10
4.0501968503937009
20
-5.6281496062992122
11
4.0501968503937009
21
-5.5726377952755906
0
LINE
8
BLACK
6
CONTINUOUS
10
4.0501968503937009
20
-5.5726377952755906
11
3.9222440944881889
21
-5.5726377952755906
0
LINE
8
BLACK
6
CONTINUOUS
10
2.6000743307086616
20
-5.0371894488188973
11
2.6132423622047245
21
-5.0398087007874013
0
LINE
8
BLACK
6
CONTINUOUS
10
2.6132423622047245
20
-5.0398087007874013
11
2.6260902362204726
21
-5.0437060629921255
0
LINE
8
BLACK
6
CONTINUOUS
10
2.6260902362204726
20
-5.0437060629921255
11
2.638494251968504
21
-5.0488439763779525
0
LINE
8
BLACK
6
CONTINUOUS
10
2.638494251968504
20
-5.0488439763779525
11
2.6503349212598426
21
-5.0551729527559051
0
LINE
8
BLACK
6
CONTINUOUS
10
2.6503349212598426
20
-5.0551729527559051
11
2.6614982283464568
21
-5.0626320472440947
0
LINE
8
BLACK
6
CONTINUOUS
10
2.6614982283464568
20
-5.0626320472440947
11
2.6718766535433072
21
-5.071149409448819
0
LINE
8
BLACK
6
CONTINUOUS
10
2.6718766535433072
20
-5.071149409448819
11
2.6813702755905511
21
-5.0806430314960629
0
LINE
8
BLACK
6
CONTINUOUS
10
2.6813702755905511
20
-5.0806430314960629
11
2.6898876377952754
21
-5.0910214566929133
0
LINE
8
BLACK
6
CONTINUOUS
10
2.6898876377952754
20
-5.0910214566929133
11
2.6973467322834646
21
-5.102184763779527
0
LINE
8
BLACK
6
CONTINUOUS
10
2.6973467322834646
20
-5.102184763779527
11
2.7036757086614172
21
-5.1140254330708661
0
LINE
8
BLACK
6
CONTINUOUS
10
2.7036757086614172
20
-5.1140254330708661
11
2.7088136220472441
21
-5.1264294488188975
0
LINE
8
BLACK
6
CONTINUOUS
10
2.7088136220472441
20
-5.1264294488188975
11
2.7127109842519683
21
-5.1392773228346451
0
LINE
8
BLACK
6
CONTINUOUS
10
2.7127109842519683
20
-5.1392773228346451
11
2.7153302362204723
21
-5.1524453543307089
0
LINE
8
BLACK
6
CONTINUOUS
10
2.7153302362204723
20
-5.1524453543307089
11
2.7166462204724411
21
-5.1658066929133861
0
LINE
8
BLACK
6
CONTINUOUS
10
2.7166462204724411
20
-5.1658066929133861
11
2.7166462204724411
21
-5.1792326771653538
0
LINE
8
BLACK
6
CONTINUOUS
10
2.7166462204724411
20
-5.1792326771653538
11
2.7153302362204723
21
-5.192594015748031
0
LINE
8
BLACK
6
CONTINUOUS
10
2.7153302362204723
20
-5.192594015748031
11
2.7127109842519683
21
-5.205762047244094
0
LINE
8
BLACK
6
CONTINUOUS
10
2.7127109842519683
20
-5.205762047244094
11
2.7088136220472441
21
-5.2186099212598425
0
LINE
8
BLACK
6
CONTINUOUS
10
2.7088136220472441
20
-5.2186099212598425
11
2.7036757086614172
21
-5.2310139370078739
0
LINE
8
BLACK
6
CONTINUOUS
10
2.7036757086614172
20
-5.2310139370078739
11
2.6973467322834646
21
-5.2428546062992121
0
LINE
8
BLACK
6
CONTINUOUS
10
2.6973467322834646
20
-5.2428546062992121
11
2.6898876377952754
21
-5.2540179133858267
0
LINE
8
BLACK
6
CONTINUOUS
10
2.6898876377952754
20
-5.2540179133858267
11
2.6813702755905511
21
-5.2643963385826771
0
LINE
8
BLACK
6
CONTINUOUS
10
2.6813702755905511
20
-5.2643963385826771
11
2.6718766535433072
21
-5.273889960629921
0
LINE
8
BLACK
6
CONTINUOUS
10
2.6718766535433072
20
-5.273889960629921
11
2.6614982283464568
21
-5.2824073228346453
0
LINE
8
BLACK
6
CONTINUOUS
10
2.6614982283464568
20
-5.2824073228346453
11
2.6503349212598426
21
-5.2898664173228349
0
LINE
8
BLACK
6
CONTINUOUS
10
2.6503349212598426
20
-5.2898664173228349
11
2.638494251968504
21
-5.2961953937007875
0
LINE
8
BLACK
6
CONTINUOUS
10
2.638494251968504
20
-5.2961953937007875
11
2.6260902362204726
21
-5.3013333070866144
0
LINE
8
BLACK
6
CONTINUOUS
10
2.6260902362204726
20
-5.3013333070866144
11
2.6132423622047245
21
-5.3052306692913387
0
LINE
8
BLACK
6
CONTINUOUS
10
2.6132423622047245
20
-5.3052306692913387
11
2.6000743307086616
21
-5.3078499212598427
0
LINE
8
BLACK
6
CONTINUOUS
10
2.6000743307086616
20
-5.3078499212598427
11
2.5867129921259844
21
-5.3091659055118106
0
LINE
8
BLACK
6
CONTINUOUS
10
2.5867129921259844
20
-5.3091659055118106
11
2.5732870078740158
21
-5.3091659055118106
0
LINE
8
BLACK
6
CONTINUOUS
10
2.5732870078740158
20
-5.3091659055118106
11
2.5599256692913386
21
-5.3078499212598427
0
LINE
8
BLACK
6
CONTINUOUS
10
2.5599256692913386
20
-5.3078499212598427
11
2.5467576377952756
21
-5.3052306692913387
0
LINE
8
BLACK
6
CONTINUOUS
10
2.5467576377952756
20
-5.3052306692913387
11
2.5339097637795276
21
-5.3013333070866144
0
LINE
8
BLACK
6
CONTINUOUS
10
2.5339097637795276
20
-5.3013333070866144
11
2.5215057480314962
21
-5.2961953937007875
0
LINE
8
BLACK
6
CONTINUOUS
10
2.5215057480314962
20
-5.2961953937007875
11
2.5096650787401575
21
-5.2898664173228349
0
LINE
8
BLACK
6
CONTINUOUS
10
2.5096650787401575
20
-5.2898664173228349
11
2.4985017716535434
21
-5.2824073228346453
0
LINE
8
BLACK
6
CONTINUOUS
10
2.4985017716535434
20
-5.2824073228346453
11
2.488123346456693
21
-5.273889960629921
0
LINE
8
BLACK
6
CONTINUOUS
10
2.488123346456693
20
-5.273889960629921
11
2.4786297244094486
21
-5.2643963385826771
0
LINE
8
BLACK
6
CONTINUOUS
10
2.4786297244094486
20
-5.2643963385826771
11
2.4701123622047243
21
-5.2540179133858267
0
LINE
8
BLACK
6
CONTINUOUS
10
2.4701123622047243
20
-5.2540179133858267
11
2.4626532677165356
21
-5.2428546062992121
0
LINE
8
BLACK
6
CONTINUOUS
10
2.4626532677165356
20
-5.2428546062992121
11
2.4563242913385825
21
-5.2310139370078739
0
LINE
8
BLACK
6
CONTINUOUS
10
2.4563242913385825
20
-5.2310139370078739
11
2.4511863779527561
21
-5.2186099212598425
0
LINE
8
BLACK
6
CONTINUOUS
10
2.4511863779527561
20
-5.2186099212598425
11
2.4472890157480314
21
-5.205762047244094
0
LINE
8
BLACK
6
CONTINUOUS
10
2.4472890157480314
20
-5.205762047244094
11
2.4446697637795274
21
-5.192594015748031
0
LINE
8
BLACK
6
CONTINUOUS
10
2.4446697637795274
20
-5.192594015748031
11
2.4433537795275591
21
-5.1792326771653538
0
LINE
8
BLACK
6
CONTINUOUS
10
2.4433537795275591
20
-5.1792326771653538
11
2.4433537795275591
21
-5.1658953149606299
0
LINE
8
BLACK
6
CONTINUOUS
10
2.4433537795275591
20
-5.1658953149606299
11
2.4433537795275591
21
-5.1658066929133861
0
LINE
8
BLACK
6
CONTINUOUS
10
2.4433537795275591
20
-5.1658066929133861
11
2.4446697637795274
21
-5.1524453543307089
0
LINE
8
BLACK
6
CONTINUOUS
10
2.4446697637795274
20
-5.1524453543307089
11
2.4472890157480314
21
-5.1392773228346451
0
LINE
8
BLACK
6
CONTINUOUS
10
2.4472890157480314
20
-5.1392773228346451
11
2.4511863779527561
21
-5.1264294488188975
0
LINE
8
BLACK
6
CONTINUOUS
10
2.4511863779527561
20
-5.1264294488188975
11
2.4563242913385825
21
-5.1140254330708661
0
LINE
8
BLACK
6
CONTINUOUS
10
2.4563242913385825
20
-5.1140254330708661
11
2.4626532677165356
21
-5.102184763779527
0
LINE
8
BLACK
6
CONTINUOUS
10
2.4626532677165356
20
-5.102184763779527
11
2.4701123622047243
21
-5.0910214566929133
0
LINE
8
BLACK
6
CONTINUOUS
10
2.4701123622047243
20
-5.0910214566929133
11
2.4786297244094486
21
-5.0806430314960629
0
LINE
8
BLACK
6
CONTINUOUS
10
2.4786297244094486
20
-5.0806430314960629
11
2.488123346456693
21
-5.071149409448819
0
LINE
8
BLACK
6
CONTINUOUS
10
2.488123346456693
20
-5.071149409448819
11
2.4985017716535434
21
-5.0626320472440947
0
LINE
8
BLACK
6
CONTINUOUS
10
2.4985017716535434
20
-5.0626320472440947
11
2.5096650787401575
21
-5.0551729527559051
0
LINE
8
BLACK
6
CONTINUOUS
10
2.5096650787401575
20
-5.0551729527559051
11
2.5215057480314962
21
-5.0488439763779525
0
LINE
8
BLACK
6
CONTINUOUS
10
2.5215057480314962
20
-5.0488439763779525
11
2.5339097637795276
21
-5.0437060629921255
0
LINE
8
BLACK
6
CONTINUOUS
10
2.5339097637795276
20
-5.0437060629921255
11
2.5467576377952756
21
-5.0398087007874013
0
LINE
8
BLACK
6
CONTINUOUS
10
2.5467576377952756
20
-5.0398087007874013
11
2.5599256692913386
21
-5.0371894488188973
0
LINE
8
BLACK
6
CONTINUOUS
10
2.5599256692913386
20
-5.0371894488188973
11
2.5732870078740158
21
-5.0358734645669294
0
LINE
8
BLACK
6
CONTINUOUS
10
2.5732870078740158
20
-5.0358734645669294
11
2.5867129921259844
21
-5.0358734645669294
0
LINE
8
BLACK
6
CONTINUOUS
10
2.5867129921259844
20
-5.0358734645669294
11
2.6000743307086616
21
-5.0371894488188973
0
LINE
8
BLACK
6
CONTINUOUS
10
2.4451574803149607
20
-5.17914405511811
11
2.4464560629921261
21
-5.19232905511811
0
LINE
8
BLACK
6
CONTINUOUS
10
2.4464560629921261
20
-5.19232905511811
11
2.4490407874015747
21
-5.2053232677165351
0
LINE
8
BLACK
6
CONTINUOUS
10
2.4490407874015747
20
-5.2053232677165351
11
2.4528866929133857
21
-5.2180015354330704
0
LINE
8
BLACK
6
CONTINUOUS
10
2.4528866929133857
20
-5.2180015354330704
11
2.4579567716535431
21
-5.230241811023622
0
LINE
8
BLACK
6
CONTINUOUS
10
2.4579567716535431
20
-5.230241811023622
11
2.4642022047244092
21
-5.2419262204724406
0
LINE
8
BLACK
6
CONTINUOUS
10
2.4642022047244092
20
-5.2419262204724406
11
2.4715628346456691
21
-5.2529421653543302
0
LINE
8
BLACK
6
CONTINUOUS
10
2.4715628346456691
20
-5.2529421653543302
11
2.4799677952755905
21
-5.2631836220472437
0
LINE
8
BLACK
6
CONTINUOUS
10
2.4799677952755905
20
-5.2631836220472437
11
2.489336062992126
21
-5.2725518897637791
0
LINE
8
BLACK
6
CONTINUOUS
10
2.489336062992126
20
-5.2725518897637791
11
2.4995775196850394
21
-5.280956850393701
0
LINE
8
BLACK
6
CONTINUOUS
10
2.4995775196850394
20
-5.280956850393701
11
2.510593464566929
21
-5.2883174803149604
0
LINE
8
BLACK
6
CONTINUOUS
10
2.510593464566929
20
-5.2883174803149604
11
2.5222778740157481
21
-5.2945629133858265
0
LINE
8
BLACK
6
CONTINUOUS
10
2.5222778740157481
20
-5.2945629133858265
11
2.5345181496062992
21
-5.2996329921259839
0
LINE
8
BLACK
6
CONTINUOUS
10
2.5345181496062992
20
-5.2996329921259839
11
2.5471964173228345
21
-5.3034788976377953
0
LINE
8
BLACK
6
CONTINUOUS
10
2.5471964173228345
20
-5.3034788976377953
11
2.5601906299212596
21
-5.3060636220472439
0
LINE
8
BLACK
6
CONTINUOUS
10
2.5601906299212596
20
-5.3060636220472439
11
2.5733756299212596
21
-5.3073622047244093
0
LINE
8
BLACK
6
CONTINUOUS
10
2.5733756299212596
20
-5.3073622047244093
11
2.5866243700787401
21
-5.3073622047244093
0
LINE
8
BLACK
6
CONTINUOUS
10
2.5866243700787401
20
-5.3073622047244093
11
2.5998093700787401
21
-5.3060636220472439
0
LINE
8
BLACK
6
CONTINUOUS
10
2.5998093700787401
20
-5.3060636220472439
11
2.6128035826771652
21
-5.3034788976377953
0
LINE
8
BLACK
6
CONTINUOUS
10
2.6128035826771652
20
-5.3034788976377953
11
2.6254818503937005
21
-5.2996329921259839
0
LINE
8
BLACK
6
CONTINUOUS
10
2.6254818503937005
20
-5.2996329921259839
11
2.637722125984252
21
-5.2945629133858265
0
LINE
8
BLACK
6
CONTINUOUS
10
2.637722125984252
20
-5.2945629133858265
11
2.6494065354330707
21
-5.2883174803149604
0
LINE
8
BLACK
6
CONTINUOUS
10
2.6494065354330707
20
-5.2883174803149604
11
2.6604224803149608
21
-5.280956850393701
0
LINE
8
BLACK
6
CONTINUOUS
10
2.6604224803149608
20
-5.280956850393701
11
2.6706639370078737
21
-5.2725518897637791
0
LINE
8
BLACK
6
CONTINUOUS
10
2.6706639370078737
20
-5.2725518897637791
11
2.6800322047244092
21
-5.2631836220472437
0
LINE
8
BLACK
6
CONTINUOUS
10
2.6800322047244092
20
-5.2631836220472437
11
2.6884371653543306
21
-5.2529421653543302
0
LINE
8
BLACK
6
CONTINUOUS
10
2.6884371653543306
20
-5.2529421653543302
11
2.6957977952755905
21
-5.2419262204724406
0
LINE
8
BLACK
6
CONTINUOUS
10
2.6957977952755905
20
-5.2419262204724406
11
2.7020432283464566
21
-5.230241811023622
0
LINE
8
BLACK
6
CONTINUOUS
10
2.7020432283464566
20
-5.230241811023622
11
2.707113307086614
21
-5.2180015354330704
0
LINE
8
BLACK
6
CONTINUOUS
10
2.707113307086614
20
-5.2180015354330704
11
2.710959212598425
21
-5.2053232677165351
0
LINE
8
BLACK
6
CONTINUOUS
10
2.710959212598425
20
-5.2053232677165351
11
2.713543937007874
21
-5.19232905511811
0
LINE
8
BLACK
6
CONTINUOUS
10
2.713543937007874
20
-5.19232905511811
11
2.7148425196850394
21
-5.17914405511811
0
LINE
8
BLACK
6
CONTINUOUS
10
2.7148425196850394
20
-5.17914405511811
11
2.7148425196850394
21
-5.1658953149606299
0
LINE
8
BLACK
6
CONTINUOUS
10
2.7148425196850394
20
-5.1658953149606299
11
2.713543937007874
21
-5.1527103149606299
0
LINE
8
BLACK
6
CONTINUOUS
10
2.713543937007874
20
-5.1527103149606299
11
2.710959212598425
21
-5.1397161023622049
0
LINE
8
BLACK
6
CONTINUOUS
10
2.710959212598425
20
-5.1397161023622049
11
2.707113307086614
21
-5.1270378346456695
0
LINE
8
BLACK
6
CONTINUOUS
10
2.707113307086614
20
-5.1270378346456695
11
2.7020432283464566
21
-5.114797559055118
0
LINE
8
BLACK
6
CONTINUOUS
10
2.7020432283464566
20
-5.114797559055118
11
2.6957977952755905
21
-5.1031131496062994
0
LINE
8
BLACK
6
CONTINUOUS
10
2.6957977952755905
20
-5.1031131496062994
11
2.6884371653543306
21
-5.0920972047244097
0
LINE
8
BLACK
6
CONTINUOUS
10
2.6884371653543306
20
-5.0920972047244097
11
2.6800322047244092
21
-5.0818557480314963
0
LINE
8
BLACK
6
CONTINUOUS
10
2.6800322047244092
20
-5.0818557480314963
11
2.6706639370078737
21
-5.0724874803149609
0
LINE
8
BLACK
6
CONTINUOUS
10
2.6706639370078737
20
-5.0724874803149609
11
2.6604224803149608
21
-5.064082519685039
0
LINE
8
BLACK
6
CONTINUOUS
10
2.6604224803149608
20
-5.064082519685039
11
2.6494065354330707
21
-5.0567218897637796
0
LINE
8
BLACK
6
CONTINUOUS
10
2.6494065354330707
20
-5.0567218897637796
11
2.637722125984252
21
-5.0504764566929135
0
LINE
8
BLACK
6
CONTINUOUS
10
2.637722125984252
20
-5.0504764566929135
11
2.6254818503937005
21
-5.045406377952756
0
LINE
8
BLACK
6
CONTINUOUS
10
2.6254818503937005
20
-5.045406377952756
11
2.6128035826771652
21
-5.0415604724409446
0
LINE
8
BLACK
6
CONTINUOUS
10
2.6128035826771652
20
-5.0415604724409446
11
2.5998093700787401
21
-5.0389757480314961
0
LINE
8
BLACK
6
CONTINUOUS
10
2.5998093700787401
20
-5.0389757480314961
11
2.5866243700787401
21
-5.0376771653543306
0
LINE
8
BLACK
6
CONTINUOUS
10
2.5866243700787401
20
-5.0376771653543306
11
2.5733756299212596
21
-5.0376771653543306
0
LINE
8
BLACK
6
CONTINUOUS
10
2.5733756299212596
20
-5.0376771653543306
11
2.5601906299212596
21
-5.0389757480314961
0
LINE
8
BLACK
6
CONTINUOUS
10
2.5601906299212596
20
-5.0389757480314961
11
2.5471964173228345
21
-5.0415604724409446
0
LINE
8
BLACK
6
CONTINUOUS
10
2.5471964173228345
20
-5.0415604724409446
11
2.5345181496062992
21
-5.045406377952756
0
LINE
8
BLACK
6
CONTINUOUS
10
2.5345181496062992
20
-5.045406377952756
11
2.5222778740157481
21
-5.0504764566929135
0
LINE
8
BLACK
6
CONTINUOUS
10
2.5222778740157481
20
-5.0504764566929135
11
2.510593464566929
21
-5.0567218897637796
0
LINE
8
BLACK
6
CONTINUOUS
10
2.510593464566929
20
-5.0567218897637796
11
2.4995775196850394
21
-5.064082519685039
0
LINE
8
BLACK
6
CONTINUOUS
10
2.4995775196850394
20
-5.064082519685039
11
2.489336062992126
21
-5.0724874803149609
0
LINE
8
BLACK
6
CONTINUOUS
10
2.489336062992126
20
-5.0724874803149609
11
2.4799677952755905
21
-5.0818557480314963
0
LINE
8
BLACK
6
CONTINUOUS
10
2.4799677952755905
20
-5.0818557480314963
11
2.4715628346456691
21
-5.0920972047244097
0
LINE
8
BLACK
6
CONTINUOUS
10
2.4715628346456691
20
-5.0920972047244097
11
2.4642022047244092
21
-5.1031131496062994
0
LINE
8
BLACK
6
CONTINUOUS
10
2.4642022047244092
20
-5.1031131496062994
11
2.4579567716535431
21
-5.114797559055118
0
LINE
8
BLACK
6
CONTINUOUS
10
2.4579567716535431
20
-5.114797559055118
11
2.4528866929133857
21
-5.1270378346456695
0
LINE
8
BLACK
6
CONTINUOUS
10
2.4528866929133857
20
-5.1270378346456695
11
2.4490407874015747
21
-5.1397161023622049
0
LINE
8
BLACK
6
CONTINUOUS
10
2.4490407874015747
20
-5.1397161023622049
11
2.4464560629921261
21
-5.1527103149606299
0
LINE
8
BLACK
6
CONTINUOUS
10
2.4464560629921261
20
-5.1527103149606299
11
2.4451574803149607
21
-5.1658953149606299
0
LINE
8
BLACK
6
CONTINUOUS
10
2.4451574803149607
20
-5.1658953149606299
11
2.4451574803149607
21
-5.17914405511811
0
LINE
8
BLACK
6
CONTINUOUS
10
4.8421089370078736
20
-5.1078505118110238
11
4.8426416141732282
21
-5.1083831889763776
0
LINE
8
BLACK
6
CONTINUOUS
10
4.8426416141732282
20
-5.1083831889763776
11
4.8427165354330706
21
-5.1087598425196852
0
LINE
8
BLACK
6
CONTINUOUS
10
4.8427165354330706
20
-5.1087598425196852
11
4.8427165354330706
21
-5.2386811023622046
0
LINE
8
BLACK
6
CONTINUOUS
10
4.8427165354330706
20
-5.2386811023622046
11
4.8426416141732282
21
-5.2390577559055114
0
LINE
8
BLACK
6
CONTINUOUS
10
4.8426416141732282
20
-5.2390577559055114
11
4.8421089370078736
21
-5.239590433070866
0
LINE
8
BLACK
6
CONTINUOUS
10
4.8421089370078736
20
-5.239590433070866
11
4.8417322834645669
21
-5.2396653543307083
0
LINE
8
BLACK
6
CONTINUOUS
10
4.8417322834645669
20
-5.2396653543307083
11
4.7842519685039369
21
-5.2396653543307083
0
LINE
8
BLACK
6
CONTINUOUS
10
4.7842519685039369
20
-5.2396653543307083
11
4.7838753149606301
21
-5.239590433070866
0
LINE
8
BLACK
6
CONTINUOUS
10
4.7838753149606301
20
-5.239590433070866
11
4.7833426377952755
21
-5.2390577559055114
0
LINE
8
BLACK
6
CONTINUOUS
10
4.7833426377952755
20
-5.2390577559055114
11
4.7832677165354331
21
-5.2386811023622046
0
LINE
8
BLACK
6
CONTINUOUS
10
4.7832677165354331
20
-5.2386811023622046
11
4.7832677165354331
21
-5.1087598425196852
0
LINE
8
BLACK
6
CONTINUOUS
10
4.7832677165354331
20
-5.1087598425196852
11
4.7833426377952755
21
-5.1083831889763776
0
LINE
8
BLACK
6
CONTINUOUS
10
4.7833426377952755
20
-5.1083831889763776
11
4.7838753149606301
21
-5.1078505118110238
0
LINE
8
BLACK
6
CONTINUOUS
10
4.7838753149606301
20
-5.1078505118110238
11
4.7842519685039369
21
-5.1077755905511806
0
LINE
8
BLACK
6
CONTINUOUS
10
4.7842519685039369
20
-5.1077755905511806
11
4.8417322834645669
21
-5.1077755905511806
0
LINE
8
BLACK
6
CONTINUOUS
10
4.8417322834645669
20
-5.1077755905511806
11
4.8421089370078736
21
-5.1078505118110238
0
LINE
8
BLACK
6
CONTINUOUS
10
4.7852362204724406
20
-5.1097440944881889
11
4.7852362204724406
21
-5.2376968503937009
0
LINE
8
BLACK
6
CONTINUOUS
10
4.7852362204724406
20
-5.2376968503937009
11
4.8407480314960631
21
-5.2376968503937009
0
LINE
8
BLACK
6
CONTINUOUS
10
4.8407480314960631
20
-5.2376968503937009
11
4.8407480314960631
21
-5.1097440944881889
0
LINE
8
BLACK
6
CONTINUOUS
10
4.8407480314960631
20
-5.1097440944881889
11
4.7852362204724406
21
-5.1097440944881889
0
LINE
8
BLACK
6
CONTINUOUS
10
4.615730984251968
20
-5.1058820078740155
11
4.6162636614173227
21
-5.1064146850393701
0
LINE
8
BLACK
6
CONTINUOUS
10
4.6162636614173227
20
-5.1064146850393701
11
4.616338582677165
21
-5.1067913385826769
0
LINE
8
BLACK
6
CONTINUOUS
10
4.616338582677165
20
-5.1067913385826769
11
4.616338582677165
21
-5.2367125984251963
0
LINE
8
BLACK
6
CONTINUOUS
10
4.616338582677165
20
-5.2367125984251963
11
4.6162636614173227
21
-5.2370892519685039
0
LINE
8
BLACK
6
CONTINUOUS
10
4.6162636614173227
20
-5.2370892519685039
11
4.615730984251968
21
-5.2376219291338577
0
LINE
8
BLACK
6
CONTINUOUS
10
4.615730984251968
20
-5.2376219291338577
11
4.6153543307086613
21
-5.2376968503937009
0
LINE
8
BLACK
6
CONTINUOUS
10
4.6153543307086613
20
-5.2376968503937009
11
4.5578740157480313
21
-5.2376968503937009
0
LINE
8
BLACK
6
CONTINUOUS
10
4.5578740157480313
20
-5.2376968503937009
11
4.5574973622047246
21
-5.2376219291338577
0
LINE
8
BLACK
6
CONTINUOUS
10
4.5574973622047246
20
-5.2376219291338577
11
4.5569646850393699
21
-5.2370892519685039
0
LINE
8
BLACK
6
CONTINUOUS
10
4.5569646850393699
20
-5.2370892519685039
11
4.5568897637795276
21
-5.2367125984251963
0
LINE
8
BLACK
6
CONTINUOUS
10
4.5568897637795276
20
-5.2367125984251963
11
4.5568897637795276
21
-5.1067913385826769
0
LINE
8
BLACK
6
CONTINUOUS
10
4.5568897637795276
20
-5.1067913385826769
11
4.5569646850393699
21
-5.1064146850393701
0
LINE
8
BLACK
6
CONTINUOUS
10
4.5569646850393699
20
-5.1064146850393701
11
4.5574973622047246
21
-5.1058820078740155
0
LINE
8
BLACK
6
CONTINUOUS
10
4.5574973622047246
20
-5.1058820078740155
11
4.5578740157480313
21
-5.1058070866141732
0
LINE
8
BLACK
6
CONTINUOUS
10
4.5578740157480313
20
-5.1058070866141732
11
4.6153543307086613
21
-5.1058070866141732
0
LINE
8
BLACK
6
CONTINUOUS
10
4.6153543307086613
20
-5.1058070866141732
11
4.615730984251968
21
-5.1058820078740155
0
LINE
8
BLACK
6
CONTINUOUS
10
4.558858267716535
20
-5.1077755905511806
11
4.558858267716535
21
-5.2357283464566926
0
LINE
8
BLACK
6
CONTINUOUS
10
4.558858267716535
20
-5.2357283464566926
11
4.6143700787401576
21
-5.2357283464566926
0
LINE
8
BLACK
6
CONTINUOUS
10
4.6143700787401576
20
-5.2357283464566926
11
4.6143700787401576
21
-5.1077755905511806
0
LINE
8
BLACK
6
CONTINUOUS
10
4.6143700787401576
20
-5.1077755905511806
11
4.558858267716535
21
-5.1077755905511806
0
LINE
8
BLACK
6
CONTINUOUS
10
4.7239987007874014
20
-5.1058820078740155
11
4.724531377952756
21
-5.1064146850393701
0
LINE
8
BLACK
6
CONTINUOUS
10
4.724531377952756
20
-5.1064146850393701
11
4.7246062992125983
21
-5.1067913385826769
0
LINE
8
BLACK
6
CONTINUOUS
10
4.7246062992125983
20
-5.1067913385826769
11
4.7246062992125983
21
-5.2367125984251963
0
LINE
8
BLACK
6
CONTINUOUS
10
4.7246062992125983
20
-5.2367125984251963
11
4.724531377952756
21
-5.2370892519685039
0
LINE
8
BLACK
6
CONTINUOUS
10
4.724531377952756
20
-5.2370892519685039
11
4.7239987007874014
21
-5.2376219291338577
0
LINE
8
BLACK
6
CONTINUOUS
10
4.7239987007874014
20
-5.2376219291338577
11
4.7236220472440946
21
-5.2376968503937009
0
LINE
8
BLACK
6
CONTINUOUS
10
4.7236220472440946
20
-5.2376968503937009
11
4.6661417322834646
21
-5.2376968503937009
0
LINE
8
BLACK
6
CONTINUOUS
10
4.6661417322834646
20
-5.2376968503937009
11
4.665765078740157
21
-5.2376219291338577
0
LINE
8
BLACK
6
CONTINUOUS
10
4.665765078740157
20
-5.2376219291338577
11
4.6652324015748032
21
-5.2370892519685039
0
LINE
8
BLACK
6
CONTINUOUS
10
4.6652324015748032
20
-5.2370892519685039
11
4.6651574803149609
21
-5.2367125984251963
0
LINE
8
BLACK
6
CONTINUOUS
10
4.6651574803149609
20
-5.2367125984251963
11
4.6651574803149609
21
-5.1067913385826769
0
LINE
8
BLACK
6
CONTINUOUS
10
4.6651574803149609
20
-5.1067913385826769
11
4.6652324015748032
21
-5.1064146850393701
0
LINE
8
BLACK
6
CONTINUOUS
10
4.6652324015748032
20
-5.1064146850393701
11
4.665765078740157
21
-5.1058820078740155
0
LINE
8
BLACK
6
CONTINUOUS
10
4.665765078740157
20
-5.1058820078740155
11
4.6661417322834646
21
-5.1058070866141732
0
LINE
8
BLACK
6
CONTINUOUS
10
4.6661417322834646
20
-5.1058070866141732
11
4.7236220472440946
21
-5.1058070866141732
0
LINE
8
BLACK
6
CONTINUOUS
10
4.7236220472440946
20
-5.1058070866141732
11
4.7239987007874014
21
-5.1058820078740155
0
LINE
8
BLACK
6
CONTINUOUS
10
4.6671259842519683
20
-5.1077755905511806
11
4.6671259842519683
21
-5.2357283464566926
0
LINE
8
BLACK
6
CONTINUOUS
10
4.6671259842519683
20
-5.2357283464566926
11
4.72263779527559
21
-5.2357283464566926
0
LINE
8
BLACK
6
CONTINUOUS
10
4.72263779527559
20
-5.2357283464566926
11
4.72263779527559
21
-5.1077755905511806
0
LINE
8
BLACK
6
CONTINUOUS
10
4.72263779527559
20
-5.1077755905511806
11
4.6671259842519683
21
-5.1077755905511806
0
LINE
8
BLACK
6
CONTINUOUS
10
6.3318333464566932
20
-4.6780276771653542
11
6.3323660236220469
21
-4.6785603543307088
0
LINE
8
BLACK
6
CONTINUOUS
10
6.3323660236220469
20
-4.6785603543307088
11
6.3324409448818892
21
-4.6789370078740156
0
LINE
8
BLACK
6
CONTINUOUS
10
6.3324409448818892
20
-4.6789370078740156
11
6.3324409448818892
21
-5.1710629921259841
0
LINE
8
BLACK
6
CONTINUOUS
10
6.3324409448818892
20
-5.1710629921259841
11
6.3323660236220469
21
-5.1714396456692908
0
LINE
8
BLACK
6
CONTINUOUS
10
6.3323660236220469
20
-5.1714396456692908
11
6.3318333464566932
21
-5.1719723228346455
0
LINE
8
BLACK
6
CONTINUOUS
10
6.3318333464566932
20
-5.1719723228346455
11
6.3314566929133855
21
-5.1720472440944878
0
LINE
8
BLACK
6
CONTINUOUS
10
6.3314566929133855
20
-5.1720472440944878
11
5.7409055118110235
21
-5.1720472440944878
0
LINE
8
BLACK
6
CONTINUOUS
10
5.7409055118110235
20
-5.1720472440944878
11
5.7405288582677167
21
-5.1719723228346455
0
LINE
8
BLACK
6
CONTINUOUS
10
5.7405288582677167
20
-5.1719723228346455
11
5.7399961811023621
21
-5.1714396456692908
0
LINE
8
BLACK
6
CONTINUOUS
10
5.7399961811023621
20
-5.1714396456692908
11
5.7399212598425198
21
-5.1710629921259841
0
LINE
8
BLACK
6
CONTINUOUS
10
5.7399212598425198
20
-5.1710629921259841
11
5.7399212598425198
21
-4.6789370078740156
0
LINE
8
BLACK
6
CONTINUOUS
10
5.7399212598425198
20
-4.6789370078740156
11
5.7399961811023621
21
-4.6785603543307088
0
LINE
8
BLACK
6
CONTINUOUS
10
5.7399961811023621
20
-4.6785603543307088
11
5.7405288582677167
21
-4.6780276771653542
0
LINE
8
BLACK
6
CONTINUOUS
10
5.7405288582677167
20
-4.6780276771653542
11
5.7409055118110235
21
-4.6779527559055119
0
LINE
8
BLACK
6
CONTINUOUS
10
5.7409055118110235
20
-4.6779527559055119
11
6.3314566929133855
21
-4.6779527559055119
0
LINE
8
BLACK
6
CONTINUOUS
10
6.3314566929133855
20
-4.6779527559055119
11
6.3318333464566932
21
-4.6780276771653542
0
LINE
8
BLACK
6
CONTINUOUS
10
5.7418897637795272
20
-4.6799212598425193
11
5.7418897637795272
21
-5.1700787401574804
0
LINE
8
BLACK
6
CONTINUOUS
10
5.7418897637795272
20
-5.1700787401574804
11
6.3304724409448818
21
-5.1700787401574804
0
LINE
8
BLACK
6
CONTINUOUS
10
6.3304724409448818
20
-5.1700787401574804
11
6.3304724409448818
21
-4.6799212598425193
0
LINE
8
BLACK
6
CONTINUOUS
10
6.3304724409448818
20
-4.6799212598425193
11
5.7418897637795272
21
-4.6799212598425193
0
LINE
8
BLACK
6
CONTINUOUS
10
4.9897467322834643
20
-4.9931851574803146
11
4.990279409448819
21
-4.9937178346456692
0
LINE
8
BLACK
6
CONTINUOUS
10
4.990279409448819
20
-4.9937178346456692
11
4.9903543307086613
21
-4.9940944881889759
0
LINE
8
BLACK
6
CONTINUOUS
10
4.9903543307086613
20
-4.9940944881889759
11
4.9903543307086613
21
-5.1240157480314963
0
LINE
8
BLACK
6
CONTINUOUS
10
4.9903543307086613
20
-5.1240157480314963
11
4.990279409448819
21
-5.124392401574803
0
LINE
8
BLACK
6
CONTINUOUS
10
4.990279409448819
20
-5.124392401574803
11
4.9897467322834643
21
-5.1249250787401577
0
LINE
8
BLACK
6
CONTINUOUS
10
4.9897467322834643
20
-5.1249250787401577
11
4.9893700787401576
21
-5.125
0
LINE
8
BLACK
6
CONTINUOUS
10
4.9893700787401576
20
-5.125
11
4.9318897637795276
21
-5.125
0
LINE
8
BLACK
6
CONTINUOUS
10
4.9318897637795276
20
-5.125
11
4.93151311023622
21
-5.1249250787401577
0
LINE
8
BLACK
6
CONTINUOUS
10
4.93151311023622
20
-5.1249250787401577
11
4.9309804330708662
21
-5.124392401574803
0
LINE
8
BLACK
6
CONTINUOUS
10
4.9309804330708662
20
-5.124392401574803
11
4.9309055118110239
21
-5.1240157480314963
0
LINE
8
BLACK
6
CONTINUOUS
10
4.9309055118110239
20
-5.1240157480314963
11
4.9309055118110239
21
-4.9940944881889759
0
LINE
8
BLACK
6
CONTINUOUS
10
4.9309055118110239
20
-4.9940944881889759
11
4.9309804330708662
21
-4.9937178346456692
0
LINE
8
BLACK
6
CONTINUOUS
10
4.9309804330708662
20
-4.9937178346456692
11
4.93151311023622
21
-4.9931851574803146
0
LINE
8
BLACK
6
CONTINUOUS
10
4.93151311023622
20
-4.9931851574803146
11
4.9318897637795276
21
-4.9931102362204722
0
LINE
8
BLACK
6
CONTINUOUS
10
4.9318897637795276
20
-4.9931102362204722
11
4.9893700787401576
21
-4.9931102362204722
0
LINE
8
BLACK
6
CONTINUOUS
10
4.9893700787401576
20
-4.9931102362204722
11
4.9897467322834643
21
-4.9931851574803146
0
LINE
8
BLACK
6
CONTINUOUS
10
4.9328740157480313
20
-4.9950787401574805
11
4.9328740157480313
21
-5.1230314960629917
0
LINE
8
BLACK
6
CONTINUOUS
10
4.9328740157480313
20
-5.1230314960629917
11
4.988385826771653
21
-5.1230314960629917
0
LINE
8
BLACK
6
CONTINUOUS
10
4.988385826771653
20
-5.1230314960629917
11
4.988385826771653
21
-4.9950787401574805
0
LINE
8
BLACK
6
CONTINUOUS
10
4.988385826771653
20
-4.9950787401574805
11
4.9328740157480313
21
-4.9950787401574805
0
LINE
8
BLACK
6
CONTINUOUS
10
4.8624829527559053
20
-4.7943662598425192
11
4.8630156299212599
21
-4.7948989370078738
0
LINE
8
BLACK
6
CONTINUOUS
10
4.8630156299212599
20
-4.7948989370078738
11
4.8630905511811022
21
-4.7952755905511806
0
LINE
8
BLACK
6
CONTINUOUS
10
4.8630905511811022
20
-4.7952755905511806
11
4.8630905511811022
21
-4.853346456692913
0
LINE
8
BLACK
6
CONTINUOUS
10
4.8630905511811022
20
-4.853346456692913
11
4.8707677165354326
21
-4.853346456692913
0
LINE
8
BLACK
6
CONTINUOUS
10
4.8707677165354326
20
-4.853346456692913
11
4.8711443700787402
21
-4.8534213779527562
0
LINE
8
BLACK
6
CONTINUOUS
10
4.8711443700787402
20
-4.8534213779527562
11
4.871677047244094
21
-4.85395405511811
0
LINE
8
BLACK
6
CONTINUOUS
10
4.871677047244094
20
-4.85395405511811
11
4.8717519685039372
21
-4.8543307086614176
0
LINE
8
BLACK
6
CONTINUOUS
10
4.8717519685039372
20
-4.8543307086614176
11
4.8717519685039372
21
-5.0275590551181102
0
LINE
8
BLACK
6
CONTINUOUS
10
4.8717519685039372
20
-5.0275590551181102
11
4.871677047244094
21
-5.0279357086614169
0
LINE
8
BLACK
6
CONTINUOUS
10
4.871677047244094
20
-5.0279357086614169
11
4.8711443700787402
21
-5.0284683858267716
0
LINE
8
BLACK
6
CONTINUOUS
10
4.8711443700787402
20
-5.0284683858267716
11
4.8707677165354326
21
-5.0285433070866139
0
LINE
8
BLACK
6
CONTINUOUS
10
4.8707677165354326
20
-5.0285433070866139
11
4.8630905511811022
21
-5.0285433070866139
0
LINE
8
BLACK
6
CONTINUOUS
10
4.8630905511811022
20
-5.0285433070866139
11
4.8630905511811022
21
-5.0866141732283463
0
LINE
8
BLACK
6
CONTINUOUS
10
4.8630905511811022
20
-5.0866141732283463
11
4.8630156299212599
21
-5.086990826771653
0
LINE
8
BLACK
6
CONTINUOUS
10
4.8630156299212599
20
-5.086990826771653
11
4.8624829527559053
21
-5.0875235039370077
0
LINE
8
BLACK
6
CONTINUOUS
10
4.8624829527559053
20
-5.0875235039370077
11
4.8621062992125985
21
-5.08759842519685
0
LINE
8
BLACK
6
CONTINUOUS
10
4.8621062992125985
20
-5.08759842519685
11
4.5187992125984247
21
-5.08759842519685
0
LINE
8
BLACK
6
CONTINUOUS
10
4.5187992125984247
20
-5.08759842519685
11
4.5184225590551179
21
-5.0875235039370077
0
LINE
8
BLACK
6
CONTINUOUS
10
4.5184225590551179
20
-5.0875235039370077
11
4.5178898818897633
21
-5.086990826771653
0
LINE
8
BLACK
6
CONTINUOUS
10
4.5178898818897633
20
-5.086990826771653
11
4.5178149606299209
21
-5.0866141732283463
0
LINE
8
BLACK
6
CONTINUOUS
10
4.5178149606299209
20
-5.0866141732283463
11
4.5178149606299209
21
-5.0285433070866139
0
LINE
8
BLACK
6
CONTINUOUS
10
4.5178149606299209
20
-5.0285433070866139
11
4.5101377952755906
21
-5.0285433070866139
0
LINE
8
BLACK
6
CONTINUOUS
10
4.5101377952755906
20
-5.0285433070866139
11
4.5097611417322829
21
-5.0284683858267716
0
LINE
8
BLACK
6
CONTINUOUS
10
4.5097611417322829
20
-5.0284683858267716
11
4.5092284645669292
21
-5.0279357086614169
0
LINE
8
BLACK
6
CONTINUOUS
10
4.5092284645669292
20
-5.0279357086614169
11
4.5091535433070868
21
-5.0275590551181102
0
LINE
8
BLACK
6
CONTINUOUS
10
4.5091535433070868
20
-5.0275590551181102
11
4.5091535433070868
21
-4.8543307086614176
0
LINE
8
BLACK
6
CONTINUOUS
10
4.5091535433070868
20
-4.8543307086614176
11
4.5092284645669292
21
-4.85395405511811
0
LINE
8
BLACK
6
CONTINUOUS
10
4.5092284645669292
20
-4.85395405511811
11
4.5097611417322829
21
-4.8534213779527562
0
LINE
8
BLACK
6
CONTINUOUS
10
4.5097611417322829
20
-4.8534213779527562
11
4.5101377952755906
21
-4.853346456692913
0
LINE
8
BLACK
6
CONTINUOUS
10
4.5101377952755906
20
-4.853346456692913
11
4.5178149606299209
21
-4.853346456692913
0
LINE
8
BLACK
6
CONTINUOUS
10
4.5178149606299209
20
-4.853346456692913
11
4.5178149606299209
21
-4.7952755905511806
0
LINE
8
BLACK
6
CONTINUOUS
10
4.5178149606299209
20
-4.7952755905511806
11
4.5178898818897633
21
-4.7948989370078738
0
LINE
8
BLACK
6
CONTINUOUS
10
4.5178898818897633
20
-4.7948989370078738
11
4.5184225590551179
21
-4.7943662598425192
0
LINE
8
BLACK
6
CONTINUOUS
10
4.5184225590551179
20
-4.7943662598425192
11
4.5187992125984247
21
-4.7942913385826769
0
LINE
8
BLACK
6
CONTINUOUS
10
4.5187992125984247
20
-4.7942913385826769
11
4.8621062992125985
21
-4.7942913385826769
0
LINE
8
BLACK
6
CONTINUOUS
10
4.8621062992125985
20
-4.7942913385826769
11
4.8624829527559053
21
-4.7943662598425192
0
LINE
8
BLACK
6
CONTINUOUS
10
4.5197834645669293
20
-4.7962598425196852
11
4.5197834645669293
21
-4.8543307086614176
0
LINE
8
BLACK
6
CONTINUOUS
10
4.5197834645669293
20
-4.8543307086614176
11
4.5197085433070869
21
-4.8547073622047243
0
LINE
8
BLACK
6
CONTINUOUS
10
4.5197085433070869
20
-4.8547073622047243
11
4.5191758661417323
21
-4.855240039370079
0
LINE
8
BLACK
6
CONTINUOUS
10
4.5191758661417323
20
-4.855240039370079
11
4.5187992125984247
21
-4.8553149606299213
0
LINE
8
BLACK
6
CONTINUOUS
10
4.5187992125984247
20
-4.8553149606299213
11
4.5111220472440943
21
-4.8553149606299213
0
LINE
8
BLACK
6
CONTINUOUS
10
4.5111220472440943
20
-4.8553149606299213
11
4.5111220472440943
21
-5.0265748031496065
0
LINE
8
BLACK
6
CONTINUOUS
10
4.5111220472440943
20
-5.0265748031496065
11
4.5187992125984247
21
-5.0265748031496065
0
LINE
8
BLACK
6
CONTINUOUS
10
4.5187992125984247
20
-5.0265748031496065
11
4.5191758661417323
21
-5.0266497244094488
0
LINE
8
BLACK
6
CONTINUOUS
10
4.5191758661417323
20
-5.0266497244094488
11
4.5197085433070869
21
-5.0271824015748034
0
LINE
8
BLACK
6
CONTINUOUS
10
4.5197085433070869
20
-5.0271824015748034
11
4.5197834645669293
21
-5.0275590551181102
0
LINE
8
BLACK
6
CONTINUOUS
10
4.5197834645669293
20
-5.0275590551181102
11
4.5197834645669293
21
-5.0856299212598426
0
LINE
8
BLACK
6
CONTINUOUS
10
4.5197834645669293
20
-5.0856299212598426
11
4.8611220472440948
21
-5.0856299212598426
0
LINE
8
BLACK
6
CONTINUOUS
10
4.8611220472440948
20
-5.0856299212598426
11
4.8611220472440948
21
-5.0275590551181102
0
LINE
8
BLACK
6
CONTINUOUS
10
4.8611220472440948
20
-5.0275590551181102
11
4.8611969685039371
21
-5.0271824015748034
0
LINE
8
BLACK
6
CONTINUOUS
10
4.8611969685039371
20
-5.0271824015748034
11
4.8617296456692909
21
-5.0266497244094488
0
LINE
8
BLACK
6
CONTINUOUS
10
4.8617296456692909
20
-5.0266497244094488
11
4.8621062992125985
21
-5.0265748031496065
0
LINE
8
BLACK
6
CONTINUOUS
10
4.8621062992125985
20
-5.0265748031496065
11
4.8697834645669289
21
-5.0265748031496065
0
LINE
8
BLACK
6
CONTINUOUS
10
4.8697834645669289
20
-5.0265748031496065
11
4.8697834645669289
21
-4.8553149606299213
0
LINE
8
BLACK
6
CONTINUOUS
10
4.8697834645669289
20
-4.8553149606299213
11
4.8621062992125985
21
-4.8553149606299213
0
LINE
8
BLACK
6
CONTINUOUS
10
4.8621062992125985
20
-4.8553149606299213
11
4.8617296456692909
21
-4.855240039370079
0
LINE
8
BLACK
6
CONTINUOUS
10
4.8617296456692909
20
-4.855240039370079
11
4.8611969685039371
21
-4.8547073622047243
0
LINE
8
BLACK
6
CONTINUOUS
10
4.8611969685039371
20
-4.8547073622047243
11
4.8611220472440948
21
-4.8543307086614176
0
LINE
8
BLACK
6
CONTINUOUS
10
4.8611220472440948
20
-4.8543307086614176
11
4.8611220472440948
21
-4.7962598425196852
0
LINE
8
BLACK
6
CONTINUOUS
10
4.8611220472440948
20
-4.7962598425196852
11
4.5197834645669293
21
-4.7962598425196852
0
LINE
8
BLACK
6
CONTINUOUS
10
5.4228175984251967
20
-4.7077520866141729
11
5.4233502755905514
21
-4.7082847637795275
0
LINE
8
BLACK
6
CONTINUOUS
10
5.4233502755905514
20
-4.7082847637795275
11
5.4234251968503937
21
-4.7086614173228343
0
LINE
8
BLACK
6
CONTINUOUS
10
5.4234251968503937
20
-4.7086614173228343
11
5.4234251968503937
21
-4.8385826771653546
0
LINE
8
BLACK
6
CONTINUOUS
10
5.4234251968503937
20
-4.8385826771653546
11
5.4233502755905514
21
-4.8389593307086614
0
LINE
8
BLACK
6
CONTINUOUS
10
5.4233502755905514
20
-4.8389593307086614
11
5.4228175984251967
21
-4.839492007874016
0
LINE
8
BLACK
6
CONTINUOUS
10
5.4228175984251967
20
-4.839492007874016
11
5.42244094488189
21
-4.8395669291338583
0
LINE
8
BLACK
6
CONTINUOUS
10
5.42244094488189
20
-4.8395669291338583
11
5.36496062992126
21
-4.8395669291338583
0
LINE
8
BLACK
6
CONTINUOUS
10
5.36496062992126
20
-4.8395669291338583
11
5.3645839763779524
21
-4.839492007874016
0
LINE
8
BLACK
6
CONTINUOUS
10
5.3645839763779524
20
-4.839492007874016
11
5.3640512992125986
21
-4.8389593307086614
0
LINE
8
BLACK
6
CONTINUOUS
10
5.3640512992125986
20
-4.8389593307086614
11
5.3639763779527554
21
-4.8385826771653546
0
LINE
8
BLACK
6
CONTINUOUS
10
5.3639763779527554
20
-4.8385826771653546
11
5.3639763779527554
21
-4.7086614173228343
0
LINE
8
BLACK
6
CONTINUOUS
10
5.3639763779527554
20
-4.7086614173228343
11
5.3640512992125986
21
-4.7082847637795275
0
LINE
8
BLACK
6
CONTINUOUS
10
5.3640512992125986
20
-4.7082847637795275
11
5.3645839763779524
21
-4.7077520866141729
0
LINE
8
BLACK
6
CONTINUOUS
10
5.3645839763779524
20
-4.7077520866141729
11
5.36496062992126
21
-4.7076771653543306
0
LINE
8
BLACK
6
CONTINUOUS
10
5.36496062992126
20
-4.7076771653543306
11
5.42244094488189
21
-4.7076771653543306
0
LINE
8
BLACK
6
CONTINUOUS
10
5.42244094488189
20
-4.7076771653543306
11
5.4228175984251967
21
-4.7077520866141729
0
LINE
8
BLACK
6
CONTINUOUS
10
5.3659448818897637
20
-4.7096456692913389
11
5.3659448818897637
21
-4.83759842519685
0
LINE
8
BLACK
6
CONTINUOUS
10
5.3659448818897637
20
-4.83759842519685
11
5.4214566929133854
21
-4.83759842519685
0
LINE
8
BLACK
6
CONTINUOUS
10
5.4214566929133854
20
-4.83759842519685
11
5.4214566929133854
21
-4.7096456692913389
0
LINE
8
BLACK
6
CONTINUOUS
10
5.4214566929133854
20
-4.7096456692913389
11
5.3659448818897637
21
-4.7096456692913389
0
LINE
8
BLACK
6
CONTINUOUS
10
5.2259672047244097
20
-4.697909566929134
11
5.2264998818897634
21
-4.6984422440944877
0
LINE
8
BLACK
6
CONTINUOUS
10
5.2264998818897634
20
-4.6984422440944877
11
5.2265748031496058
21
-4.6988188976377954
0
LINE
8
BLACK
6
CONTINUOUS
10
5.2265748031496058
20
-4.6988188976377954
11
5.2265748031496058
21
-4.8287401574803148
0
LINE
8
BLACK
6
CONTINUOUS
10
5.2265748031496058
20
-4.8287401574803148
11
5.2264998818897634
21
-4.8291168110236216
0
LINE
8
BLACK
6
CONTINUOUS
10
5.2264998818897634
20
-4.8291168110236216
11
5.2259672047244097
21
-4.8296494881889762
0
LINE
8
BLACK
6
CONTINUOUS
10
5.2259672047244097
20
-4.8296494881889762
11
5.2255905511811021
21
-4.8297244094488185
0
LINE
8
BLACK
6
CONTINUOUS
10
5.2255905511811021
20
-4.8297244094488185
11
5.1681102362204721
21
-4.8297244094488185
0
LINE
8
BLACK
6
CONTINUOUS
10
5.1681102362204721
20
-4.8297244094488185
11
5.1677335826771653
21
-4.8296494881889762
0
LINE
8
BLACK
6
CONTINUOUS
10
5.1677335826771653
20
-4.8296494881889762
11
5.1672009055118107
21
-4.8291168110236216
0
LINE
8
BLACK
6
CONTINUOUS
10
5.1672009055118107
20
-4.8291168110236216
11
5.1671259842519683
21
-4.8287401574803148
0
LINE
8
BLACK
6
CONTINUOUS
10
5.1671259842519683
20
-4.8287401574803148
11
5.1671259842519683
21
-4.6988188976377954
0
LINE
8
BLACK
6
CONTINUOUS
10
5.1671259842519683
20
-4.6988188976377954
11
5.1672009055118107
21
-4.6984422440944877
0
LINE
8
BLACK
6
CONTINUOUS
10
5.1672009055118107
20
-4.6984422440944877
11
5.1677335826771653
21
-4.697909566929134
0
LINE
8
BLACK
6
CONTINUOUS
10
5.1677335826771653
20
-4.697909566929134
11
5.1681102362204721
21
-4.6978346456692917
0
LINE
8
BLACK
6
CONTINUOUS
10
5.1681102362204721
20
-4.6978346456692917
11
5.2255905511811021
21
-4.6978346456692917
0
LINE
8
BLACK
6
CONTINUOUS
10
5.2255905511811021
20
-4.6978346456692917
11
5.2259672047244097
21
-4.697909566929134
0
LINE
8
BLACK
6
CONTINUOUS
10
5.1690944881889767
20
-4.6998031496062991
11
5.1690944881889767
21
-4.8277559055118111
0
LINE
8
BLACK
6
CONTINUOUS
10
5.1690944881889767
20
-4.8277559055118111
11
5.2246062992125983
21
-4.8277559055118111
0
LINE
8
BLACK
6
CONTINUOUS
10
5.2246062992125983
20
-4.8277559055118111
11
5.2246062992125983
21
-4.6998031496062991
0
LINE
8
BLACK
6
CONTINUOUS
10
5.2246062992125983
20
-4.6998031496062991
11
5.1690944881889767
21
-4.6998031496062991
0
LINE
8
BLACK
6
CONTINUOUS
10
5.6295105118110236
20
-4.697909566929134
11
5.6300431889763782
21
-4.6984422440944877
0
LINE
8
BLACK
6
CONTINUOUS
10
5.6300431889763782
20
-4.6984422440944877
11
5.6301181102362206
21
-4.6988188976377954
0
LINE
8
BLACK
6
CONTINUOUS
10
5.6301181102362206
20
-4.6988188976377954
11
5.6301181102362206
21
-4.8287401574803148
0
LINE
8
BLACK
6
CONTINUOUS
10
5.6301181102362206
20
-4.8287401574803148
11
5.6300431889763782
21
-4.8291168110236216
0
LINE
8
BLACK
6
CONTINUOUS
10
5.6300431889763782
20
-4.8291168110236216
11
5.6295105118110236
21
-4.8296494881889762
0
LINE
8
BLACK
6
CONTINUOUS
10
5.6295105118110236
20
-4.8296494881889762
11
5.6291338582677168
21
-4.8297244094488185
0
LINE
8
BLACK
6
CONTINUOUS
10
5.6291338582677168
20
-4.8297244094488185
11
5.5716535433070868
21
-4.8297244094488185
0
LINE
8
BLACK
6
CONTINUOUS
10
5.5716535433070868
20
-4.8297244094488185
11
5.5712768897637792
21
-4.8296494881889762
0
LINE
8
BLACK
6
CONTINUOUS
10
5.5712768897637792
20
-4.8296494881889762
11
5.5707442125984254
21
-4.8291168110236216
0
LINE
8
BLACK
6
CONTINUOUS
10
5.5707442125984254
20
-4.8291168110236216
11
5.5706692913385822
21
-4.8287401574803148
0
LINE
8
BLACK
6
CONTINUOUS
10
5.5706692913385822
20
-4.8287401574803148
11
5.5706692913385822
21
-4.6988188976377954
0
LINE
8
BLACK
6
CONTINUOUS
10
5.5706692913385822
20
-4.6988188976377954
11
5.5707442125984254
21
-4.6984422440944877
0
LINE
8
BLACK
6
CONTINUOUS
10
5.5707442125984254
20
-4.6984422440944877
11
5.5712768897637792
21
-4.697909566929134
0
LINE
8
BLACK
6
CONTINUOUS
10
5.5712768897637792
20
-4.697909566929134
11
5.5716535433070868
21
-4.6978346456692917
0
LINE
8
BLACK
6
CONTINUOUS
10
5.5716535433070868
20
-4.6978346456692917
11
5.6291338582677168
21
-4.6978346456692917
0
LINE
8
BLACK
6
CONTINUOUS
10
5.6291338582677168
20
-4.6978346456692917
11
5.6295105118110236
21
-4.697909566929134
0
LINE
8
BLACK
6
CONTINUOUS
10
5.5726377952755906
20
-4.6998031496062991
11
5.5726377952755906
21
-4.8277559055118111
0
LINE
8
BLACK
6
CONTINUOUS
10
5.5726377952755906
20
-4.8277559055118111
11
5.6281496062992122
21
-4.8277559055118111
0
LINE
8
BLACK
6
CONTINUOUS
10
5.6281496062992122
20
-4.8277559055118111
11
5.6281496062992122
21
-4.6998031496062991
0
LINE
8
BLACK
6
CONTINUOUS
10
5.6281496062992122
20
-4.6998031496062991
11
5.5726377952755906
21
-4.6998031496062991
0
LINE
8
BLACK
6
CONTINUOUS
10
4.5830538188976373
20
-4.6750749212598421
11
4.583586496062992
21
-4.6756075984251968
0
LINE
8
BLACK
6
CONTINUOUS
10
4.583586496062992
20
-4.6756075984251968
11
4.5836614173228343
21
-4.6759842519685035
0
LINE
8
BLACK
6
CONTINUOUS
10
4.5836614173228343
20
-4.6759842519685035
11
4.5836614173228343
21
-4.7334645669291335
0
LINE
8
BLACK
6
CONTINUOUS
10
4.5836614173228343
20
-4.7334645669291335
11
4.583586496062992
21
-4.7338412204724412
0
LINE
8
BLACK
6
CONTINUOUS
10
4.583586496062992
20
-4.7338412204724412
11
4.5830538188976373
21
-4.7343738976377949
0
LINE
8
BLACK
6
CONTINUOUS
10
4.5830538188976373
20
-4.7343738976377949
11
4.5826771653543306
21
-4.7344488188976372
0
LINE
8
BLACK
6
CONTINUOUS
10
4.5826771653543306
20
-4.7344488188976372
11
4.4527559055118111
21
-4.7344488188976372
0
LINE
8
BLACK
6
CONTINUOUS
10
4.4527559055118111
20
-4.7344488188976372
11
4.4523792519685035
21
-4.7343738976377949
0
LINE
8
BLACK
6
CONTINUOUS
10
4.4523792519685035
20
-4.7343738976377949
11
4.4518465748031497
21
-4.7338412204724412
0
LINE
8
BLACK
6
CONTINUOUS
10
4.4518465748031497
20
-4.7338412204724412
11
4.4517716535433074
21
-4.7334645669291335
0
LINE
8
BLACK
6
CONTINUOUS
10
4.4517716535433074
20
-4.7334645669291335
11
4.4517716535433074
21
-4.6759842519685035
0
LINE
8
BLACK
6
CONTINUOUS
10
4.4517716535433074
20
-4.6759842519685035
11
4.4518465748031497
21
-4.6756075984251968
0
LINE
8
BLACK
6
CONTINUOUS
10
4.4518465748031497
20
-4.6756075984251968
11
4.4523792519685035
21
-4.6750749212598421
0
LINE
8
BLACK
6
CONTINUOUS
10
4.4523792519685035
20
-4.6750749212598421
11
4.4527559055118111
21
-4.6749999999999998
0
LINE
8
BLACK
6
CONTINUOUS
10
4.4527559055118111
20
-4.6749999999999998
11
4.5826771653543306
21
-4.6749999999999998
0
LINE
8
BLACK
6
CONTINUOUS
10
4.5826771653543306
20
-4.6749999999999998
11
4.5830538188976373
21
-4.6750749212598421
0
LINE
8
BLACK
6
CONTINUOUS
10
4.4537401574803148
20
-4.6769685039370081
11
4.4537401574803148
21
-4.7324803149606298
0
LINE
8
BLACK
6
CONTINUOUS
10
4.4537401574803148
20
-4.7324803149606298
11
4.5816929133858268
21
-4.7324803149606298
0
LINE
8
BLACK
6
CONTINUOUS
10
4.5816929133858268
20
-4.7324803149606298
11
4.5816929133858268
21
-4.6769685039370081
0
LINE
8
BLACK
6
CONTINUOUS
10
4.5816929133858268
20
-4.6769685039370081
11
4.4537401574803148
21
-4.6769685039370081
0
LINE
8
BLACK
6
CONTINUOUS
10
4.6649435826771652
20
-4.5994843700787404
11
4.6654762598425199
21
-4.6000170472440942
0
LINE
8
BLACK
6
CONTINUOUS
10
4.6654762598425199
20
-4.6000170472440942
11
4.6655511811023622
21
-4.6003937007874018
0
LINE
8
BLACK
6
CONTINUOUS
10
4.6655511811023622
20
-4.6003937007874018
11
4.6655511811023622
21
-4.7303149606299213
0
LINE
8
BLACK
6
CONTINUOUS
10
4.6655511811023622
20
-4.7303149606299213
11
4.6654762598425199
21
-4.730691614173228
0
LINE
8
BLACK
6
CONTINUOUS
10
4.6654762598425199
20
-4.730691614173228
11
4.6649435826771652
21
-4.7312242913385827
0
LINE
8
BLACK
6
CONTINUOUS
10
4.6649435826771652
20
-4.7312242913385827
11
4.6645669291338585
21
-4.731299212598425
0
LINE
8
BLACK
6
CONTINUOUS
10
4.6645669291338585
20
-4.731299212598425
11
4.6070866141732285
21
-4.731299212598425
0
LINE
8
BLACK
6
CONTINUOUS
10
4.6070866141732285
20
-4.731299212598425
11
4.6067099606299209
21
-4.7312242913385827
0
LINE
8
BLACK
6
CONTINUOUS
10
4.6067099606299209
20
-4.7312242913385827
11
4.6061772834645671
21
-4.730691614173228
0
LINE
8
BLACK
6
CONTINUOUS
10
4.6061772834645671
20
-4.730691614173228
11
4.6061023622047239
21
-4.7303149606299213
0
LINE
8
BLACK
6
CONTINUOUS
10
4.6061023622047239
20
-4.7303149606299213
11
4.6061023622047239
21
-4.6003937007874018
0
LINE
8
BLACK
6
CONTINUOUS
10
4.6061023622047239
20
-4.6003937007874018
11
4.6061772834645671
21
-4.6000170472440942
0
LINE
8
BLACK
6
CONTINUOUS
10
4.6061772834645671
20
-4.6000170472440942
11
4.6067099606299209
21
-4.5994843700787404
0
LINE
8
BLACK
6
CONTINUOUS
10
4.6067099606299209
20
-4.5994843700787404
11
4.6070866141732285
21
-4.5994094488188972
0
LINE
8
BLACK
6
CONTINUOUS
10
4.6070866141732285
20
-4.5994094488188972
11
4.6645669291338585
21
-4.5994094488188972
0
LINE
8
BLACK
6
CONTINUOUS
10
4.6645669291338585
20
-4.5994094488188972
11
4.6649435826771652
21
-4.5994843700787404
0
LINE
8
BLACK
6
CONTINUOUS
10
4.6080708661417322
20
-4.6013779527559056
11
4.6080708661417322
21
-4.7293307086614176
0
LINE
8
BLACK
6
CONTINUOUS
10
4.6080708661417322
20
-4.7293307086614176
11
4.6635826771653539
21
-4.7293307086614176
0
LINE
8
BLACK
6
CONTINUOUS
10
4.6635826771653539
20
-4.7293307086614176
11
4.6635826771653539
21
-4.6013779527559056
0
LINE
8
BLACK
6
CONTINUOUS
10
4.6635826771653539
20
-4.6013779527559056
11
4.6080708661417322
21
-4.6013779527559056
0
LINE
8
BLACK
6
CONTINUOUS
10
4.7732112992125986
20
-4.5994843700787404
11
4.7737439763779523
21
-4.6000170472440942
0
LINE
8
BLACK
6
CONTINUOUS
10
4.7737439763779523
20
-4.6000170472440942
11
4.7738188976377955
21
-4.6003937007874018
0
LINE
8
BLACK
6
CONTINUOUS
10
4.7738188976377955
20
-4.6003937007874018
11
4.7738188976377955
21
-4.7303149606299213
0
LINE
8
BLACK
6
CONTINUOUS
10
4.7738188976377955
20
-4.7303149606299213
11
4.7737439763779523
21
-4.730691614173228
0
LINE
8
BLACK
6
CONTINUOUS
10
4.7737439763779523
20
-4.730691614173228
11
4.7732112992125986
21
-4.7312242913385827
0
LINE
8
BLACK
6
CONTINUOUS
10
4.7732112992125986
20
-4.7312242913385827
11
4.7728346456692909
21
-4.731299212598425
0
LINE
8
BLACK
6
CONTINUOUS
10
4.7728346456692909
20
-4.731299212598425
11
4.7153543307086609
21
-4.731299212598425
0
LINE
8
BLACK
6
CONTINUOUS
10
4.7153543307086609
20
-4.731299212598425
11
4.7149776771653542
21
-4.7312242913385827
0
LINE
8
BLACK
6
CONTINUOUS
10
4.7149776771653542
20
-4.7312242913385827
11
4.7144449999999996
21
-4.730691614173228
0
LINE
8
BLACK
6
CONTINUOUS
10
4.7144449999999996
20
-4.730691614173228
11
4.7143700787401572
21
-4.7303149606299213
0
LINE
8
BLACK
6
CONTINUOUS
10
4.7143700787401572
20
-4.7303149606299213
11
4.7143700787401572
21
-4.6003937007874018
0
LINE
8
BLACK
6
CONTINUOUS
10
4.7143700787401572
20
-4.6003937007874018
11
4.7144449999999996
21
-4.6000170472440942
0
LINE
8
BLACK
6
CONTINUOUS
10
4.7144449999999996
20
-4.6000170472440942
11
4.7149776771653542
21
-4.5994843700787404
0
LINE
8
BLACK
6
CONTINUOUS
10
4.7149776771653542
20
-4.5994843700787404
11
4.7153543307086609
21
-4.5994094488188972
0
LINE
8
BLACK
6
CONTINUOUS
10
4.7153543307086609
20
-4.5994094488188972
11
4.7728346456692909
21
-4.5994094488188972
0
LINE
8
BLACK
6
CONTINUOUS
10
4.7728346456692909
20
-4.5994094488188972
11
4.7732112992125986
21
-4.5994843700787404
0
LINE
8
BLACK
6
CONTINUOUS
10
4.7163385826771655
20
-4.6013779527559056
11
4.7163385826771655
21
-4.7293307086614176
0
LINE
8
BLACK
6
CONTINUOUS
10
4.7163385826771655
20
-4.7293307086614176
11
4.7718503937007872
21
-4.7293307086614176
0
LINE
8
BLACK
6
CONTINUOUS
10
4.7718503937007872
20
-4.7293307086614176
11
4.7718503937007872
21
-4.6013779527559056
0
LINE
8
BLACK
6
CONTINUOUS
10
4.7718503937007872
20
-4.6013779527559056
11
4.7163385826771655
21
-4.6013779527559056
0
LINE
8
BLACK
6
CONTINUOUS
10
4.8617939763779523
20
-4.5994843700787404
11
4.862326653543307
21
-4.6000170472440942
0
LINE
8
BLACK
6
CONTINUOUS
10
4.862326653543307
20
-4.6000170472440942
11
4.8624015748031493
21
-4.6003937007874018
0
LINE
8
BLACK
6
CONTINUOUS
10
4.8624015748031493
20
-4.6003937007874018
11
4.8624015748031493
21
-4.7303149606299213
0
LINE
8
BLACK
6
CONTINUOUS
10
4.8624015748031493
20
-4.7303149606299213
11
4.862326653543307
21
-4.730691614173228
0
LINE
8
BLACK
6
CONTINUOUS
10
4.862326653543307
20
-4.730691614173228
11
4.8617939763779523
21
-4.7312242913385827
0
LINE
8
BLACK
6
CONTINUOUS
10
4.8617939763779523
20
-4.7312242913385827
11
4.8614173228346456
21
-4.731299212598425
0
LINE
8
BLACK
6
CONTINUOUS
10
4.8614173228346456
20
-4.731299212598425
11
4.8039370078740156
21
-4.731299212598425
0
LINE
8
BLACK
6
CONTINUOUS
10
4.8039370078740156
20
-4.731299212598425
11
4.8035603543307088
21
-4.7312242913385827
0
LINE
8
BLACK
6
CONTINUOUS
10
4.8035603543307088
20
-4.7312242913385827
11
4.8030276771653542
21
-4.730691614173228
0
LINE
8
BLACK
6
CONTINUOUS
10
4.8030276771653542
20
-4.730691614173228
11
4.8029527559055119
21
-4.7303149606299213
0
LINE
8
BLACK
6
CONTINUOUS
10
4.8029527559055119
20
-4.7303149606299213
11
4.8029527559055119
21
-4.6003937007874018
0
LINE
8
BLACK
6
CONTINUOUS
10
4.8029527559055119
20
-4.6003937007874018
11
4.8030276771653542
21
-4.6000170472440942
0
LINE
8
BLACK
6
CONTINUOUS
10
4.8030276771653542
20
-4.6000170472440942
11
4.8035603543307088
21
-4.5994843700787404
0
LINE
8
BLACK
6
CONTINUOUS
10
4.8035603543307088
20
-4.5994843700787404
11
4.8039370078740156
21
-4.5994094488188972
0
LINE
8
BLACK
6
CONTINUOUS
10
4.8039370078740156
20
-4.5994094488188972
11
4.8614173228346456
21
-4.5994094488188972
0
LINE
8
BLACK
6
CONTINUOUS
10
4.8614173228346456
20
-4.5994094488188972
11
4.8617939763779523
21
-4.5994843700787404
0
LINE
8
BLACK
6
CONTINUOUS
10
4.8049212598425193
20
-4.6013779527559056
11
4.8049212598425193
21
-4.7293307086614176
0
LINE
8
BLACK
6
CONTINUOUS
10
4.8049212598425193
20
-4.7293307086614176
11
4.8604330708661418
21
-4.7293307086614176
0
LINE
8
BLACK
6
CONTINUOUS
10
4.8604330708661418
20
-4.7293307086614176
11
4.8604330708661418
21
-4.6013779527559056
0
LINE
8
BLACK
6
CONTINUOUS
10
4.8604330708661418
20
-4.6013779527559056
11
4.8049212598425193
21
-4.6013779527559056
0
LINE
8
BLACK
6
CONTINUOUS
10
4.9503766535433069
20
-4.5994843700787404
11
4.9509093307086616
21
-4.6000170472440942
0
LINE
8
BLACK
6
CONTINUOUS
10
4.9509093307086616
20
-4.6000170472440942
11
4.9509842519685039
21
-4.6003937007874018
0
LINE
8
BLACK
6
CONTINUOUS
10
4.9509842519685039
20
-4.6003937007874018
11
4.9509842519685039
21
-4.7303149606299213
0
LINE
8
BLACK
6
CONTINUOUS
10
4.9509842519685039
20
-4.7303149606299213
11
4.9509093307086616
21
-4.730691614173228
0
LINE
8
BLACK
6
CONTINUOUS
10
4.9509093307086616
20
-4.730691614173228
11
4.9503766535433069
21
-4.7312242913385827
0
LINE
8
BLACK
6
CONTINUOUS
10
4.9503766535433069
20
-4.7312242913385827
11
4.9500000000000002
21
-4.731299212598425
0
LINE
8
BLACK
6
CONTINUOUS
10
4.9500000000000002
20
-4.731299212598425
11
4.8925196850393702
21
-4.731299212598425
0
LINE
8
BLACK
6
CONTINUOUS
10
4.8925196850393702
20
-4.731299212598425
11
4.8921430314960626
21
-4.7312242913385827
0
LINE
8
BLACK
6
CONTINUOUS
10
4.8921430314960626
20
-4.7312242913385827
11
4.8916103543307088
21
-4.730691614173228
0
LINE
8
BLACK
6
CONTINUOUS
10
4.8916103543307088
20
-4.730691614173228
11
4.8915354330708665
21
-4.7303149606299213
0
LINE
8
BLACK
6
CONTINUOUS
10
4.8915354330708665
20
-4.7303149606299213
11
4.8915354330708665
21
-4.6003937007874018
0
LINE
8
BLACK
6
CONTINUOUS
10
4.8915354330708665
20
-4.6003937007874018
11
4.8916103543307088
21
-4.6000170472440942
0
LINE
8
BLACK
6
CONTINUOUS
10
4.8916103543307088
20
-4.6000170472440942
11
4.8921430314960626
21
-4.5994843700787404
0
LINE
8
BLACK
6
CONTINUOUS
10
4.8921430314960626
20
-4.5994843700787404
11
4.8925196850393702
21
-4.5994094488188972
0
LINE
8
BLACK
6
CONTINUOUS
10
4.8925196850393702
20
-4.5994094488188972
11
4.9500000000000002
21
-4.5994094488188972
0
LINE
8
BLACK
6
CONTINUOUS
10
4.9500000000000002
20
-4.5994094488188972
11
4.9503766535433069
21
-4.5994843700787404
0
LINE
8
BLACK
6
CONTINUOUS
10
4.8935039370078739
20
-4.6013779527559056
11
4.8935039370078739
21
-4.7293307086614176
0
LINE
8
BLACK
6
CONTINUOUS
10
4.8935039370078739
20
-4.7293307086614176
11
4.9490157480314956
21
-4.7293307086614176
0
LINE
8
BLACK
6
CONTINUOUS
10
4.9490157480314956
20
-4.7293307086614176
11
4.9490157480314956
21
-4.6013779527559056
0
LINE
8
BLACK
6
CONTINUOUS
10
4.9490157480314956
20
-4.6013779527559056
11
4.8935039370078739
21
-4.6013779527559056
0
LINE
8
BLACK
6
CONTINUOUS
10
5.224573503937008
20
-4.5360001181102358
11
5.2251061811023618
21
-4.5365327952755905
0
LINE
8
BLACK
6
CONTINUOUS
10
5.2251061811023618
20
-4.5365327952755905
11
5.225181102362205
21
-4.5369094488188972
0
LINE
8
BLACK
6
CONTINUOUS
10
5.225181102362205
20
-4.5369094488188972
11
5.225181102362205
21
-4.6668307086614176
0
LINE
8
BLACK
6
CONTINUOUS
10
5.225181102362205
20
-4.6668307086614176
11
5.2251061811023618
21
-4.6672073622047243
0
LINE
8
BLACK
6
CONTINUOUS
10
5.2251061811023618
20
-4.6672073622047243
11
5.224573503937008
21
-4.667740039370079
0
LINE
8
BLACK
6
CONTINUOUS
10
5.224573503937008
20
-4.667740039370079
11
5.2241968503937004
21
-4.6678149606299213
0
LINE
8
BLACK
6
CONTINUOUS
10
5.2241968503937004
20
-4.6678149606299213
11
5.1667165354330704
21
-4.6678149606299213
0
LINE
8
BLACK
6
CONTINUOUS
10
5.1667165354330704
20
-4.6678149606299213
11
5.1663398818897637
21
-4.667740039370079
0
LINE
8
BLACK
6
CONTINUOUS
10
5.1663398818897637
20
-4.667740039370079
11
5.165807204724409
21
-4.6672073622047243
0
LINE
8
BLACK
6
CONTINUOUS
10
5.165807204724409
20
-4.6672073622047243
11
5.1657322834645667
21
-4.6668307086614176
0
LINE
8
BLACK
6
CONTINUOUS
10
5.1657322834645667
20
-4.6668307086614176
11
5.1657322834645667
21
-4.5369094488188972
0
LINE
8
BLACK
6
CONTINUOUS
10
5.1657322834645667
20
-4.5369094488188972
11
5.165807204724409
21
-4.5365327952755905
0
LINE
8
BLACK
6
CONTINUOUS
10
5.165807204724409
20
-4.5365327952755905
11
5.1663398818897637
21
-4.5360001181102358
0
LINE
8
BLACK
6
CONTINUOUS
10
5.1663398818897637
20
-4.5360001181102358
11
5.1667165354330704
21
-4.5359251968503935
0
LINE
8
BLACK
6
CONTINUOUS
10
5.1667165354330704
20
-4.5359251968503935
11
5.2241968503937004
21
-4.5359251968503935
0
LINE
8
BLACK
6
CONTINUOUS
10
5.2241968503937004
20
-4.5359251968503935
11
5.224573503937008
21
-4.5360001181102358
0
LINE
8
BLACK
6
CONTINUOUS
10
5.167700787401575
20
-4.5378937007874018
11
5.167700787401575
21
-4.665846456692913
0
LINE
8
BLACK
6
CONTINUOUS
10
5.167700787401575
20
-4.665846456692913
11
5.2232125984251967
21
-4.665846456692913
0
LINE
8
BLACK
6
CONTINUOUS
10
5.2232125984251967
20
-4.665846456692913
11
5.2232125984251967
21
-4.5378937007874018
0
LINE
8
BLACK
6
CONTINUOUS
10
5.2232125984251967
20
-4.5378937007874018
11
5.167700787401575
21
-4.5378937007874018
0
LINE
8
BLACK
6
CONTINUOUS
10
5.4233924015748034
20
-4.5360001181102358
11
5.4239250787401572
21
-4.5365327952755905
0
LINE
8
BLACK
6
CONTINUOUS
10
5.4239250787401572
20
-4.5365327952755905
11
5.4239999999999995
21
-4.5369094488188972
0
LINE
8
BLACK
6
CONTINUOUS
10
5.4239999999999995
20
-4.5369094488188972
11
5.4239999999999995
21
-4.6668307086614176
0
LINE
8
BLACK
6
CONTINUOUS
10
5.4239999999999995
20
-4.6668307086614176
11
5.4239250787401572
21
-4.6672073622047243
0
LINE
8
BLACK
6
CONTINUOUS
10
5.4239250787401572
20
-4.6672073622047243
11
5.4233924015748034
21
-4.667740039370079
0
LINE
8
BLACK
6
CONTINUOUS
10
5.4233924015748034
20
-4.667740039370079
11
5.4230157480314958
21
-4.6678149606299213
0
LINE
8
BLACK
6
CONTINUOUS
10
5.4230157480314958
20
-4.6678149606299213
11
5.3655354330708658
21
-4.6678149606299213
0
LINE
8
BLACK
6
CONTINUOUS
10
5.3655354330708658
20
-4.6678149606299213
11
5.365158779527559
21
-4.667740039370079
0
LINE
8
BLACK
6
CONTINUOUS
10
5.365158779527559
20
-4.667740039370079
11
5.3646261023622044
21
-4.6672073622047243
0
LINE
8
BLACK
6
CONTINUOUS
10
5.3646261023622044
20
-4.6672073622047243
11
5.3645511811023621
21
-4.6668307086614176
0
LINE
8
BLACK
6
CONTINUOUS
10
5.3645511811023621
20
-4.6668307086614176
11
5.3645511811023621
21
-4.5369094488188972
0
LINE
8
BLACK
6
CONTINUOUS
10
5.3645511811023621
20
-4.5369094488188972
11
5.3646261023622044
21
-4.5365327952755905
0
LINE
8
BLACK
6
CONTINUOUS
10
5.3646261023622044
20
-4.5365327952755905
11
5.365158779527559
21
-4.5360001181102358
0
LINE
8
BLACK
6
CONTINUOUS
10
5.365158779527559
20
-4.5360001181102358
11
5.3655354330708658
21
-4.5359251968503935
0
LINE
8
BLACK
6
CONTINUOUS
10
5.3655354330708658
20
-4.5359251968503935
11
5.4230157480314958
21
-4.5359251968503935
0
LINE
8
BLACK
6
CONTINUOUS
10
5.4230157480314958
20
-4.5359251968503935
11
5.4233924015748034
21
-4.5360001181102358
0
LINE
8
BLACK
6
CONTINUOUS
10
5.3665196850393704
20
-4.5378937007874018
11
5.3665196850393704
21
-4.665846456692913
0
LINE
8
BLACK
6
CONTINUOUS
10
5.3665196850393704
20
-4.665846456692913
11
5.4220314960629921
21
-4.665846456692913
0
LINE
8
BLACK
6
CONTINUOUS
10
5.4220314960629921
20
-4.665846456692913
11
5.4220314960629921
21
-4.5378937007874018
0
LINE
8
BLACK
6
CONTINUOUS
10
5.4220314960629921
20
-4.5378937007874018
11
5.3665196850393704
21
-4.5378937007874018
0
LINE
8
BLACK
6
CONTINUOUS
10
5.6291010629921256
20
-4.5360001181102358
11
5.6296337401574803
21
-4.5365327952755905
0
LINE
8
BLACK
6
CONTINUOUS
10
5.6296337401574803
20
-4.5365327952755905
11
5.6297086614173226
21
-4.5369094488188972
0
LINE
8
BLACK
6
CONTINUOUS
10
5.6297086614173226
20
-4.5369094488188972
11
5.6297086614173226
21
-4.6668307086614176
0
LINE
8
BLACK
6
CONTINUOUS
10
5.6297086614173226
20
-4.6668307086614176
11
5.6296337401574803
21
-4.6672073622047243
0
LINE
8
BLACK
6
CONTINUOUS
10
5.6296337401574803
20
-4.6672073622047243
11
5.6291010629921256
21
-4.667740039370079
0
LINE
8
BLACK
6
CONTINUOUS
10
5.6291010629921256
20
-4.667740039370079
11
5.6287244094488189
21
-4.6678149606299213
0
LINE
8
BLACK
6
CONTINUOUS
10
5.6287244094488189
20
-4.6678149606299213
11
5.5712440944881889
21
-4.6678149606299213
0
LINE
8
BLACK
6
CONTINUOUS
10
5.5712440944881889
20
-4.6678149606299213
11
5.5708674409448822
21
-4.667740039370079
0
LINE
8
BLACK
6
CONTINUOUS
10
5.5708674409448822
20
-4.667740039370079
11
5.5703347637795275
21
-4.6672073622047243
0
LINE
8
BLACK
6
CONTINUOUS
10
5.5703347637795275
20
-4.6672073622047243
11
5.5702598425196852
21
-4.6668307086614176
0
LINE
8
BLACK
6
CONTINUOUS
10
5.5702598425196852
20
-4.6668307086614176
11
5.5702598425196852
21
-4.5369094488188972
0
LINE
8
BLACK
6
CONTINUOUS
10
5.5702598425196852
20
-4.5369094488188972
11
5.5703347637795275
21
-4.5365327952755905
0
LINE
8
BLACK
6
CONTINUOUS
10
5.5703347637795275
20
-4.5365327952755905
11
5.5708674409448822
21
-4.5360001181102358
0
LINE
8
BLACK
6
CONTINUOUS
10
5.5708674409448822
20
-4.5360001181102358
11
5.5712440944881889
21
-4.5359251968503935
0
LINE
8
BLACK
6
CONTINUOUS
10
5.5712440944881889
20
-4.5359251968503935
11
5.6287244094488189
21
-4.5359251968503935
0
LINE
8
BLACK
6
CONTINUOUS
10
5.6287244094488189
20
-4.5359251968503935
11
5.6291010629921256
21
-4.5360001181102358
0
LINE
8
BLACK
6
CONTINUOUS
10
5.5722283464566926
20
-4.5378937007874018
11
5.5722283464566926
21
-4.665846456692913
0
LINE
8
BLACK
6
CONTINUOUS
10
5.5722283464566926
20
-4.665846456692913
11
5.6277401574803152
21
-4.665846456692913
0
LINE
8
BLACK
6
CONTINUOUS
10
5.6277401574803152
20
-4.665846456692913
11
5.6277401574803152
21
-4.5378937007874018
0
LINE
8
BLACK
6
CONTINUOUS
10
5.6277401574803152
20
-4.5378937007874018
11
5.5722283464566926
21
-4.5378937007874018
0
LINE
8
BLACK
6
CONTINUOUS
10
4.5864987007874012
20
-4.5963347637795273
11
4.5870313779527558
21
-4.596867440944882
0
LINE
8
BLACK
6
CONTINUOUS
10
4.5870313779527558
20
-4.596867440944882
11
4.5871062992125982
21
-4.5972440944881887
0
LINE
8
BLACK
6
CONTINUOUS
10
4.5871062992125982
20
-4.5972440944881887
11
4.5871062992125982
21
-4.6547244094488187
0
LINE
8
BLACK
6
CONTINUOUS
10
4.5871062992125982
20
-4.6547244094488187
11
4.5870313779527558
21
-4.6551010629921254
0
LINE
8
BLACK
6
CONTINUOUS
10
4.5870313779527558
20
-4.6551010629921254
11
4.5864987007874012
21
-4.6556337401574801
0
LINE
8
BLACK
6
CONTINUOUS
10
4.5864987007874012
20
-4.6556337401574801
11
4.5861220472440944
21
-4.6557086614173224
0
LINE
8
BLACK
6
CONTINUOUS
10
4.5861220472440944
20
-4.6557086614173224
11
4.456200787401575
21
-4.6557086614173224
0
LINE
8
BLACK
6
CONTINUOUS
10
4.456200787401575
20
-4.6557086614173224
11
4.4558241338582674
21
-4.6556337401574801
0
LINE
8
BLACK
6
CONTINUOUS
10
4.4558241338582674
20
-4.6556337401574801
11
4.4552914566929136
21
-4.6551010629921254
0
LINE
8
BLACK
6
CONTINUOUS
10
4.4552914566929136
20
-4.6551010629921254
11
4.4552165354330704
21
-4.6547244094488187
0
LINE
8
BLACK
6
CONTINUOUS
10
4.4552165354330704
20
-4.6547244094488187
11
4.4552165354330704
21
-4.5972440944881887
0
LINE
8
BLACK
6
CONTINUOUS
10
4.4552165354330704
20
-4.5972440944881887
11
4.4552914566929136
21
-4.596867440944882
0
LINE
8
BLACK
6
CONTINUOUS
10
4.4552914566929136
20
-4.596867440944882
11
4.4558241338582674
21
-4.5963347637795273
0
LINE
8
BLACK
6
CONTINUOUS
10
4.4558241338582674
20
-4.5963347637795273
11
4.456200787401575
21
-4.596259842519685
0
LINE
8
BLACK
6
CONTINUOUS
10
4.456200787401575
20
-4.596259842519685
11
4.5861220472440944
21
-4.596259842519685
0
LINE
8
BLACK
6
CONTINUOUS
10
4.5861220472440944
20
-4.596259842519685
11
4.5864987007874012
21
-4.5963347637795273
0
LINE
8
BLACK
6
CONTINUOUS
10
4.4571850393700787
20
-4.5982283464566924
11
4.4571850393700787
21
-4.653740157480315
0
LINE
8
BLACK
6
CONTINUOUS
10
4.4571850393700787
20
-4.653740157480315
11
4.5851377952755907
21
-4.653740157480315
0
LINE
8
BLACK
6
CONTINUOUS
10
4.5851377952755907
20
-4.653740157480315
11
4.5851377952755907
21
-4.5982283464566924
0
LINE
8
BLACK
6
CONTINUOUS
10
4.5851377952755907
20
-4.5982283464566924
11
4.4571850393700787
21
-4.5982283464566924
0
CIRCLE
8
BLACK
10
6.1641338582677161
20
-5.1218503937007869
40
0.0236220472440945
0
CIRCLE
8
BLACK
10
6.1641338582677161
20
-4.7281496062992128
40
0.0236220472440945
0
CIRCLE
8
BLACK
10
6.0657086614173226
20
-5.1218503937007869
40
0.0236220472440945
0
CIRCLE
8
BLACK
10
6.0657086614173226
20
-4.7281496062992128
40
0.0236220472440945
0
CIRCLE
8
BLACK
10
5.8688582677165355
20
-4.9249999999999998
40
0.0236220472440945
0
LINE
8
BLACK
6
CONTINUOUS
10
5.8846933070866143
20
-5.1062370866141729
11
5.8886642913385829
21
-5.1073011023622046
0
LINE
8
BLACK
6
CONTINUOUS
10
5.8886642913385829
20
-5.1073011023622046
11
5.8922246062992123
21
-5.1093566535433066
0
LINE
8
BLACK
6
CONTINUOUS
10
5.8922246062992123
20
-5.1093566535433066
11
5.8951315354330704
21
-5.1122635826771656
0
LINE
8
BLACK
6
CONTINUOUS
10
5.8951315354330704
20
-5.1122635826771656
11
5.8971870866141733
21
-5.115823897637795
0
LINE
8
BLACK
6
CONTINUOUS
10
5.8971870866141733
20
-5.115823897637795
11
5.8982511023622042
21
-5.1197948818897636
0
LINE
8
BLACK
6
CONTINUOUS
10
5.8982511023622042
20
-5.1197948818897636
11
5.8982511023622042
21
-5.123905905511811
0
LINE
8
BLACK
6
CONTINUOUS
10
5.8982511023622042
20
-5.123905905511811
11
5.8971870866141733
21
-5.1278768897637796
0
LINE
8
BLACK
6
CONTINUOUS
10
5.8971870866141733
20
-5.1278768897637796
11
5.8951315354330704
21
-5.131437204724409
0
LINE
8
BLACK
6
CONTINUOUS
10
5.8951315354330704
20
-5.131437204724409
11
5.8922246062992123
21
-5.1343441338582672
0
LINE
8
BLACK
6
CONTINUOUS
10
5.8922246062992123
20
-5.1343441338582672
11
5.8886642913385829
21
-5.1363996850393701
0
LINE
8
BLACK
6
CONTINUOUS
10
5.8886642913385829
20
-5.1363996850393701
11
5.8846933070866143
21
-5.1374637007874018
0
LINE
8
BLACK
6
CONTINUOUS
10
5.8846933070866143
20
-5.1374637007874018
11
5.8826377952755902
21
-5.1375984251968498
0
LINE
8
BLACK
6
CONTINUOUS
10
5.8826377952755902
20
-5.1375984251968498
11
5.85507874015748
21
-5.1375984251968498
0
LINE
8
BLACK
6
CONTINUOUS
10
5.85507874015748
20
-5.1375984251968498
11
5.8530232283464567
21
-5.1374637007874018
0
LINE
8
BLACK
6
CONTINUOUS
10
5.8530232283464567
20
-5.1374637007874018
11
5.8490522440944881
21
-5.1363996850393701
0
LINE
8
BLACK
6
CONTINUOUS
10
5.8490522440944881
20
-5.1363996850393701
11
5.8454919291338578
21
-5.1343441338582672
0
LINE
8
BLACK
6
CONTINUOUS
10
5.8454919291338578
20
-5.1343441338582672
11
5.8425849999999997
21
-5.131437204724409
0
LINE
8
BLACK
6
CONTINUOUS
10
5.8425849999999997
20
-5.131437204724409
11
5.8405294488188977
21
-5.1278768897637796
0
LINE
8
BLACK
6
CONTINUOUS
10
5.8405294488188977
20
-5.1278768897637796
11
5.839465433070866
21
-5.123905905511811
0
LINE
8
BLACK
6
CONTINUOUS
10
5.839465433070866
20
-5.123905905511811
11
5.839465433070866
21
-5.1197948818897636
0
LINE
8
BLACK
6
CONTINUOUS
10
5.839465433070866
20
-5.1197948818897636
11
5.8405294488188977
21
-5.115823897637795
0
LINE
8
BLACK
6
CONTINUOUS
10
5.8405294488188977
20
-5.115823897637795
11
5.8425849999999997
21
-5.1122635826771656
0
LINE
8
BLACK
6
CONTINUOUS
10
5.8425849999999997
20
-5.1122635826771656
11
5.8454919291338578
21
-5.1093566535433066
0
LINE
8
BLACK
6
CONTINUOUS
10
5.8454919291338578
20
-5.1093566535433066
11
5.8490522440944881
21
-5.1073011023622046
0
LINE
8
BLACK
6
CONTINUOUS
10
5.8490522440944881
20
-5.1073011023622046
11
5.8530232283464567
21
-5.1062370866141729
0
LINE
8
BLACK
6
CONTINUOUS
10
5.8530232283464567
20
-5.1062370866141729
11
5.85507874015748
21
-5.1061023622047239
0
LINE
8
BLACK
6
CONTINUOUS
10
5.85507874015748
20
-5.1061023622047239
11
5.8826377952755902
21
-5.1061023622047239
0
LINE
8
BLACK
6
CONTINUOUS
10
5.8826377952755902
20
-5.1061023622047239
11
5.8846933070866143
21
-5.1062370866141729
0
LINE
8
BLACK
6
CONTINUOUS
10
5.8846933070866143
20
-5.0078118897637793
11
5.8886642913385829
21
-5.0088759055118111
0
LINE
8
BLACK
6
CONTINUOUS
10
5.8886642913385829
20
-5.0088759055118111
11
5.8922246062992123
21
-5.0109314566929131
0
LINE
8
BLACK
6
CONTINUOUS
10
5.8922246062992123
20
-5.0109314566929131
11
5.8951315354330704
21
-5.0138383858267712
0
LINE
8
BLACK
6
CONTINUOUS
10
5.8951315354330704
20
-5.0138383858267712
11
5.8971870866141733
21
-5.0173987007874015
0
LINE
8
BLACK
6
CONTINUOUS
10
5.8971870866141733
20
-5.0173987007874015
11
5.8982511023622042
21
-5.0213696850393701
0
LINE
8
BLACK
6
CONTINUOUS
10
5.8982511023622042
20
-5.0213696850393701
11
5.8982511023622042
21
-5.0254807086614175
0
LINE
8
BLACK
6
CONTINUOUS
10
5.8982511023622042
20
-5.0254807086614175
11
5.8971870866141733
21
-5.0294516929133861
0
LINE
8
BLACK
6
CONTINUOUS
10
5.8971870866141733
20
-5.0294516929133861
11
5.8951315354330704
21
-5.0330120078740155
0
LINE
8
BLACK
6
CONTINUOUS
10
5.8951315354330704
20
-5.0330120078740155
11
5.8922246062992123
21
-5.0359189370078736
0
LINE
8
BLACK
6
CONTINUOUS
10
5.8922246062992123
20
-5.0359189370078736
11
5.8886642913385829
21
-5.0379744881889765
0
LINE
8
BLACK
6
CONTINUOUS
10
5.8886642913385829
20
-5.0379744881889765
11
5.8846933070866143
21
-5.0390385039370074
0
LINE
8
BLACK
6
CONTINUOUS
10
5.8846933070866143
20
-5.0390385039370074
11
5.8826377952755902
21
-5.0391732283464563
0
LINE
8
BLACK
6
CONTINUOUS
10
5.8826377952755902
20
-5.0391732283464563
11
5.85507874015748
21
-5.0391732283464563
0
LINE
8
BLACK
6
CONTINUOUS
10
5.85507874015748
20
-5.0391732283464563
11
5.8530232283464567
21
-5.0390385039370074
0
LINE
8
BLACK
6
CONTINUOUS
10
5.8530232283464567
20
-5.0390385039370074
11
5.8490522440944881
21
-5.0379744881889765
0
LINE
8
BLACK
6
CONTINUOUS
10
5.8490522440944881
20
-5.0379744881889765
11
5.8454919291338578
21
-5.0359189370078736
0
LINE
8
BLACK
6
CONTINUOUS
10
5.8454919291338578
20
-5.0359189370078736
11
5.8425849999999997
21
-5.0330120078740155
0
LINE
8
BLACK
6
CONTINUOUS
10
5.8425849999999997
20
-5.0330120078740155
11
5.8405294488188977
21
-5.0294516929133861
0
LINE
8
BLACK
6
CONTINUOUS
10
5.8405294488188977
20
-5.0294516929133861
11
5.839465433070866
21
-5.0254807086614175
0
LINE
8
BLACK
6
CONTINUOUS
10
5.839465433070866
20
-5.0254807086614175
11
5.839465433070866
21
-5.0213696850393701
0
LINE
8
BLACK
6
CONTINUOUS
10
5.839465433070866
20
-5.0213696850393701
11
5.8405294488188977
21
-5.0173987007874015
0
LINE
8
BLACK
6
CONTINUOUS
10
5.8405294488188977
20
-5.0173987007874015
11
5.8425849999999997
21
-5.0138383858267712
0
LINE
8
BLACK
6
CONTINUOUS
10
5.8425849999999997
20
-5.0138383858267712
11
5.8454919291338578
21
-5.0109314566929131
0
LINE
8
BLACK
6
CONTINUOUS
10
5.8454919291338578
20
-5.0109314566929131
11
5.8490522440944881
21
-5.0088759055118111
0
LINE
8
BLACK
6
CONTINUOUS
10
5.8490522440944881
20
-5.0088759055118111
11
5.8530232283464567
21
-5.0078118897637793
0
LINE
8
BLACK
6
CONTINUOUS
10
5.8530232283464567
20
-5.0078118897637793
11
5.85507874015748
21
-5.0076771653543304
0
LINE
8
BLACK
6
CONTINUOUS
10
5.85507874015748
20
-5.0076771653543304
11
5.8826377952755902
21
-5.0076771653543304
0
LINE
8
BLACK
6
CONTINUOUS
10
5.8826377952755902
20
-5.0076771653543304
11
5.8846933070866143
21
-5.0078118897637793
0
LINE
8
BLACK
6
CONTINUOUS
10
6.0500953543307086
20
-4.909164960629921
11
6.0511593700787403
21
-4.9051939763779524
0
LINE
8
BLACK
6
CONTINUOUS
10
6.0511593700787403
20
-4.9051939763779524
11
6.0532149212598423
21
-4.901633661417323
0
LINE
8
BLACK
6
CONTINUOUS
10
6.0532149212598423
20
-4.901633661417323
11
6.0561218503937004
21
-4.8987267322834649
0
LINE
8
BLACK
6
CONTINUOUS
10
6.0561218503937004
20
-4.8987267322834649
11
6.0596821653543307
21
-4.896671181102362
0
LINE
8
BLACK
6
CONTINUOUS
10
6.0596821653543307
20
-4.896671181102362
11
6.0636531496062993
21
-4.8956071653543303
0
LINE
8
BLACK
6
CONTINUOUS
10
6.0636531496062993
20
-4.8956071653543303
11
6.0677641732283467
21
-4.8956071653543303
0
LINE
8
BLACK
6
CONTINUOUS
10
6.0677641732283467
20
-4.8956071653543303
11
6.0717351574803144
21
-4.896671181102362
0
LINE
8
BLACK
6
CONTINUOUS
10
6.0717351574803144
20
-4.896671181102362
11
6.0752954724409447
21
-4.8987267322834649
0
LINE
8
BLACK
6
CONTINUOUS
10
6.0752954724409447
20
-4.8987267322834649
11
6.0782024015748028
21
-4.901633661417323
0
LINE
8
BLACK
6
CONTINUOUS
10
6.0782024015748028
20
-4.901633661417323
11
6.0802579527559057
21
-4.9051939763779524
0
LINE
8
BLACK
6
CONTINUOUS
10
6.0802579527559057
20
-4.9051939763779524
11
6.0813219685039366
21
-4.909164960629921
0
LINE
8
BLACK
6
CONTINUOUS
10
6.0813219685039366
20
-4.909164960629921
11
6.0814566929133855
21
-4.9112204724409452
0
LINE
8
BLACK
6
CONTINUOUS
10
6.0814566929133855
20
-4.9112204724409452
11
6.0814566929133855
21
-4.9387795275590554
0
LINE
8
BLACK
6
CONTINUOUS
10
6.0814566929133855
20
-4.9387795275590554
11
6.0813219685039366
21
-4.9408350393700786
0
LINE
8
BLACK
6
CONTINUOUS
10
6.0813219685039366
20
-4.9408350393700786
11
6.0802579527559057
21
-4.9448060236220472
0
LINE
8
BLACK
6
CONTINUOUS
10
6.0802579527559057
20
-4.9448060236220472
11
6.0782024015748028
21
-4.9483663385826775
0
LINE
8
BLACK
6
CONTINUOUS
10
6.0782024015748028
20
-4.9483663385826775
11
6.0752954724409447
21
-4.9512732677165356
0
LINE
8
BLACK
6
CONTINUOUS
10
6.0752954724409447
20
-4.9512732677165356
11
6.0717351574803144
21
-4.9533288188976377
0
LINE
8
BLACK
6
CONTINUOUS
10
6.0717351574803144
20
-4.9533288188976377
11
6.0677641732283467
21
-4.9543928346456694
0
LINE
8
BLACK
6
CONTINUOUS
10
6.0677641732283467
20
-4.9543928346456694
11
6.0636531496062993
21
-4.9543928346456694
0
LINE
8
BLACK
6
CONTINUOUS
10
6.0636531496062993
20
-4.9543928346456694
11
6.0596821653543307
21
-4.9533288188976377
0
LINE
8
BLACK
6
CONTINUOUS
10
6.0596821653543307
20
-4.9533288188976377
11
6.0561218503937004
21
-4.9512732677165356
0
LINE
8
BLACK
6
CONTINUOUS
10
6.0561218503937004
20
-4.9512732677165356
11
6.0532149212598423
21
-4.9483663385826775
0
LINE
8
BLACK
6
CONTINUOUS
10
6.0532149212598423
20
-4.9483663385826775
11
6.0511593700787403
21
-4.9448060236220472
0
LINE
8
BLACK
6
CONTINUOUS
10
6.0511593700787403
20
-4.9448060236220472
11
6.0500953543307086
21
-4.9408350393700786
0
LINE
8
BLACK
6
CONTINUOUS
10
6.0500953543307086
20
-4.9408350393700786
11
6.0499606299212596
21
-4.9387795275590554
0
LINE
8
BLACK
6
CONTINUOUS
10
6.0499606299212596
20
-4.9387795275590554
11
6.0499606299212596
21
-4.9112204724409452
0
LINE
8
BLACK
6
CONTINUOUS
10
6.0499606299212596
20
-4.9112204724409452
11
6.0500953543307086
21
-4.909164960629921
0
LINE
8
BLACK
6
CONTINUOUS
10
5.8846933070866143
20
-4.7125362992125988
11
5.8886642913385829
21
-4.7136003149606296
0
LINE
8
BLACK
6
CONTINUOUS
10
5.8886642913385829
20
-4.7136003149606296
11
5.8922246062992123
21
-4.7156558661417325
0
LINE
8
BLACK
6
CONTINUOUS
10
5.8922246062992123
20
-4.7156558661417325
11
5.8951315354330704
21
-4.7185627952755906
0
LINE
8
BLACK
6
CONTINUOUS
10
5.8951315354330704
20
-4.7185627952755906
11
5.8971870866141733
21
-4.72212311023622
0
LINE
8
BLACK
6
CONTINUOUS
10
5.8971870866141733
20
-4.72212311023622
11
5.8982511023622042
21
-4.7260940944881886
0
LINE
8
BLACK
6
CONTINUOUS
10
5.8982511023622042
20
-4.7260940944881886
11
5.8982511023622042
21
-4.730205118110236
0
LINE
8
BLACK
6
CONTINUOUS
10
5.8982511023622042
20
-4.730205118110236
11
5.8971870866141733
21
-4.7341761023622047
0
LINE
8
BLACK
6
CONTINUOUS
10
5.8971870866141733
20
-4.7341761023622047
11
5.8951315354330704
21
-4.7377364173228349
0
LINE
8
BLACK
6
CONTINUOUS
10
5.8951315354330704
20
-4.7377364173228349
11
5.8922246062992123
21
-4.7406433464566931
0
LINE
8
BLACK
6
CONTINUOUS
10
5.8922246062992123
20
-4.7406433464566931
11
5.8886642913385829
21
-4.7426988976377951
0
LINE
8
BLACK
6
CONTINUOUS
10
5.8886642913385829
20
-4.7426988976377951
11
5.8846933070866143
21
-4.7437629133858268
0
LINE
8
BLACK
6
CONTINUOUS
10
5.8846933070866143
20
-4.7437629133858268
11
5.8826377952755902
21
-4.7438976377952757
0
LINE
8
BLACK
6
CONTINUOUS
10
5.8826377952755902
20
-4.7438976377952757
11
5.85507874015748
21
-4.7438976377952757
0
LINE
8
BLACK
6
CONTINUOUS
10
5.85507874015748
20
-4.7438976377952757
11
5.8530232283464567
21
-4.7437629133858268
0
LINE
8
BLACK
6
CONTINUOUS
10
5.8530232283464567
20
-4.7437629133858268
11
5.8490522440944881
21
-4.7426988976377951
0
LINE
8
BLACK
6
CONTINUOUS
10
5.8490522440944881
20
-4.7426988976377951
11
5.8454919291338578
21
-4.7406433464566931
0
LINE
8
BLACK
6
CONTINUOUS
10
5.8454919291338578
20
-4.7406433464566931
11
5.8425849999999997
21
-4.7377364173228349
0
LINE
8
BLACK
6
CONTINUOUS
10
5.8425849999999997
20
-4.7377364173228349
11
5.8405294488188977
21
-4.7341761023622047
0
LINE
8
BLACK
6
CONTINUOUS
10
5.8405294488188977
20
-4.7341761023622047
11
5.839465433070866
21
-4.730205118110236
0
LINE
8
BLACK
6
CONTINUOUS
10
5.839465433070866
20
-4.730205118110236
11
5.839465433070866
21
-4.7260940944881886
0
LINE
8
BLACK
6
CONTINUOUS
10
5.839465433070866
20
-4.7260940944881886
11
5.8405294488188977
21
-4.72212311023622
0
LINE
8
BLACK
6
CONTINUOUS
10
5.8405294488188977
20
-4.72212311023622
11
5.8425849999999997
21
-4.7185627952755906
0
LINE
8
BLACK
6
CONTINUOUS
10
5.8425849999999997
20
-4.7185627952755906
11
5.8454919291338578
21
-4.7156558661417325
0
LINE
8
BLACK
6
CONTINUOUS
10
5.8454919291338578
20
-4.7156558661417325
11
5.8490522440944881
21
-4.7136003149606296
0
LINE
8
BLACK
6
CONTINUOUS
10
5.8490522440944881
20
-4.7136003149606296
11
5.8530232283464567
21
-4.7125362992125988
0
LINE
8
BLACK
6
CONTINUOUS
10
5.8530232283464567
20
-4.7125362992125988
11
5.85507874015748
21
-4.7124015748031498
0
LINE
8
BLACK
6
CONTINUOUS
10
5.85507874015748
20
-4.7124015748031498
11
5.8826377952755902
21
-4.7124015748031498
0
LINE
8
BLACK
6
CONTINUOUS
10
5.8826377952755902
20
-4.7124015748031498
11
5.8846933070866143
21
-4.7125362992125988
0
LINE
8
BLACK
6
CONTINUOUS
10
5.8846933070866143
20
-4.8109614960629923
11
5.8886642913385829
21
-4.8120255118110231
0
LINE
8
BLACK
6
CONTINUOUS
10
5.8886642913385829
20
-4.8120255118110231
11
5.8922246062992123
21
-4.814081062992126
0
LINE
8
BLACK
6
CONTINUOUS
10
5.8922246062992123
20
-4.814081062992126
11
5.8951315354330704
21
-4.8169879921259842
0
LINE
8
BLACK
6
CONTINUOUS
10
5.8951315354330704
20
-4.8169879921259842
11
5.8971870866141733
21
-4.8205483070866144
0
LINE
8
BLACK
6
CONTINUOUS
10
5.8971870866141733
20
-4.8205483070866144
11
5.8982511023622042
21
-4.8245192913385821
0
LINE
8
BLACK
6
CONTINUOUS
10
5.8982511023622042
20
-4.8245192913385821
11
5.8982511023622042
21
-4.8286303149606296
0
LINE
8
BLACK
6
CONTINUOUS
10
5.8982511023622042
20
-4.8286303149606296
11
5.8971870866141733
21
-4.8326012992125982
0
LINE
8
BLACK
6
CONTINUOUS
10
5.8971870866141733
20
-4.8326012992125982
11
5.8951315354330704
21
-4.8361616141732284
0
LINE
8
BLACK
6
CONTINUOUS
10
5.8951315354330704
20
-4.8361616141732284
11
5.8922246062992123
21
-4.8390685433070866
0
LINE
8
BLACK
6
CONTINUOUS
10
5.8922246062992123
20
-4.8390685433070866
11
5.8886642913385829
21
-4.8411240944881886
0
LINE
8
BLACK
6
CONTINUOUS
10
5.8886642913385829
20
-4.8411240944881886
11
5.8846933070866143
21
-4.8421881102362203
0
LINE
8
BLACK
6
CONTINUOUS
10
5.8846933070866143
20
-4.8421881102362203
11
5.8826377952755902
21
-4.8423228346456693
0
LINE
8
BLACK
6
CONTINUOUS
10
5.8826377952755902
20
-4.8423228346456693
11
5.85507874015748
21
-4.8423228346456693
0
LINE
8
BLACK
6
CONTINUOUS
10
5.85507874015748
20
-4.8423228346456693
11
5.8530232283464567
21
-4.8421881102362203
0
LINE
8
BLACK
6
CONTINUOUS
10
5.8530232283464567
20
-4.8421881102362203
11
5.8490522440944881
21
-4.8411240944881886
0
LINE
8
BLACK
6
CONTINUOUS
10
5.8490522440944881
20
-4.8411240944881886
11
5.8454919291338578
21
-4.8390685433070866
0
LINE
8
BLACK
6
CONTINUOUS
10
5.8454919291338578
20
-4.8390685433070866
11
5.8425849999999997
21
-4.8361616141732284
0
LINE
8
BLACK
6
CONTINUOUS
10
5.8425849999999997
20
-4.8361616141732284
11
5.8405294488188977
21
-4.8326012992125982
0
LINE
8
BLACK
6
CONTINUOUS
10
5.8405294488188977
20
-4.8326012992125982
11
5.839465433070866
21
-4.8286303149606296
0
LINE
8
BLACK
6
CONTINUOUS
10
5.839465433070866
20
-4.8286303149606296
11
5.839465433070866
21
-4.8245192913385821
0
LINE
8
BLACK
6
CONTINUOUS
10
5.839465433070866
20
-4.8245192913385821
11
5.8405294488188977
21
-4.8205483070866144
0
LINE
8
BLACK
6
CONTINUOUS
10
5.8405294488188977
20
-4.8205483070866144
11
5.8425849999999997
21
-4.8169879921259842
0
LINE
8
BLACK
6
CONTINUOUS
10
5.8425849999999997
20
-4.8169879921259842
11
5.8454919291338578
21
-4.814081062992126
0
LINE
8
BLACK
6
CONTINUOUS
10
5.8454919291338578
20
-4.814081062992126
11
5.8490522440944881
21
-4.8120255118110231
0
LINE
8
BLACK
6
CONTINUOUS
10
5.8490522440944881
20
-4.8120255118110231
11
5.8530232283464567
21
-4.8109614960629923
0
LINE
8
BLACK
6
CONTINUOUS
10
5.8530232283464567
20
-4.8109614960629923
11
5.85507874015748
21
-4.8108267716535433
0
LINE
8
BLACK
6
CONTINUOUS
10
5.85507874015748
20
-4.8108267716535433
11
5.8826377952755902
21
-4.8108267716535433
0
LINE
8
BLACK
6
CONTINUOUS
10
5.8826377952755902
20
-4.8108267716535433
11
5.8846933070866143
21
-4.8109614960629923
0
CIRCLE
8
BLACK
10
2.5590551181102361
20
-6.148031496062992
40
0.0196850393700787
0
CIRCLE
8
BLACK
10
2.459055118110236
20
-6.148031496062992
40
0.0196850393700787
0
CIRCLE
8
BLACK
10
2.5590551181102361
20
-6.0480314960629924
40
0.0196850393700787
0
CIRCLE
8
BLACK
10
2.459055118110236
20
-6.0480314960629924
40
0.0196850393700787
0
CIRCLE
8
BLACK
10
2.5590551181102361
20
-5.9480314960629919
40
0.0196850393700787
0
CIRCLE
8
BLACK
10
2.459055118110236
20
-5.9480314960629919
40
0.0196850393700787
0
CIRCLE
8
BLACK
10
2.5590551181102361
20
-5.8480314960629922
40
0.0196850393700787
0
CIRCLE
8
BLACK
10
2.459055118110236
20
-5.8480314960629922
40
0.0196850393700787
0
CIRCLE
8
BLACK
10
2.5590551181102361
20
-5.7480314960629917
40
0.0196850393700787
0
CIRCLE
8
BLACK
10
2.459055118110236
20
-5.7480314960629917
40
0.0196850393700787
0
CIRCLE
8
BLACK
10
2.5590551181102361
20
-5.648031496062992
40
0.0196850393700787
0
CIRCLE
8
BLACK
10
2.459055118110236
20
-5.648031496062992
40
0.0196850393700787
0
CIRCLE
8
BLACK
10
2.5800000000000001
20
-5.1725196850393695
40
0.062992125984252
0
CIRCLE
8
BLACK
10
2.4409448818897639
20
-6.4173228346456694
40
0.0196850393700787
0
CIRCLE
8
BLACK
10
2.5409448818897635
20
-6.4173228346456694
40
0.0196850393700787
0
CIRCLE
8
BLACK
10
2.6409448818897636
20
-6.4173228346456694
40
0.0196850393700787
0
CIRCLE
8
BLACK
10
2.7409448818897637
20
-6.4173228346456694
40
0.0196850393700787
0
CIRCLE
8
BLACK
10
2.8409448818897638
20
-6.4173228346456694
40
0.0196850393700787
0
CIRCLE
8
BLACK
10
2.9409448818897639
20
-6.4173228346456694
40
0.0196850393700787
0
CIRCLE
8
BLACK
10
3.0409448818897635
20
-6.4173228346456694
40
0.0196850393700787
0
CIRCLE
8
BLACK
10
3.1409448818897636
20
-6.4173228346456694
40
0.0196850393700787
0
CIRCLE
8
BLACK
10
3.2409448818897637
20
-6.4173228346456694
40
0.0196850393700787
0
CIRCLE
8
BLACK
10
3.3409448818897638
20
-6.4173228346456694
40
0.0196850393700787
0
CIRCLE
8
BLACK
10
3.4409448818897639
20
-6.4173228346456694
40
0.0196850393700787
0
CIRCLE
8
BLACK
10
3.5409448818897635
20
-6.4173228346456694
40
0.0196850393700787
0
CIRCLE
8
BLACK
10
3.6409448818897636
20
-6.4173228346456694
40
0.0196850393700787
0
CIRCLE
8
BLACK
10
3.7409448818897637
20
-6.4173228346456694
40
0.0196850393700787
0
CIRCLE
8
BLACK
10
3.8409448818897638
20
-6.4173228346456694
40
0.0196850393700787
0
CIRCLE
8
BLACK
10
3.9409448818897639
20
-6.4173228346456694
40
0.0196850393700787
0
CIRCLE
8
BLACK
10
4.0409448818897635
20
-6.4173228346456694
40
0.0196850393700787
0
CIRCLE
8
BLACK
10
4.1409448818897641
20
-6.4173228346456694
40
0.0196850393700787
0
CIRCLE
8
BLACK
10
4.2409448818897637
20
-6.4173228346456694
40
0.0196850393700787
0
CIRCLE
8
BLACK
10
4.3409448818897634
20
-6.4173228346456694
40
0.0196850393700787
0
CIRCLE
8
BLACK
10
4.4409448818897639
20
-6.4173228346456694
40
0.0196850393700787
0
CIRCLE
8
BLACK
10
4.5409448818897635
20
-6.4173228346456694
40
0.0196850393700787
0
CIRCLE
8
BLACK
10
4.6409448818897641
20
-6.4173228346456694
40
0.0196850393700787
0
CIRCLE
8
BLACK
10
4.7409448818897637
20
-6.4173228346456694
40
0.0196850393700787
0
CIRCLE
8
BLACK
10
4.8409448818897634
20
-6.4173228346456694
40
0.0196850393700787
0
CIRCLE
8
BLACK
10
4.9409448818897639
20
-6.4173228346456694
40
0.0196850393700787
0
CIRCLE
8
BLACK
10
5.0409448818897635
20
-6.4173228346456694
40
0.0196850393700787
0
CIRCLE
8
BLACK
10
5.1409448818897641
20
-6.4173228346456694
40
0.0196850393700787
0
CIRCLE
8
BLACK
10
5.2409448818897637
20
-6.4173228346456694
40
0.0196850393700787
0
CIRCLE
8
BLACK
10
5.3409448818897634
20
-6.4173228346456694
40
0.0196850393700787
0
CIRCLE
8
BLACK
10
5.4409448818897639
20
-6.4173228346456694
40
0.0196850393700787
0
CIRCLE
8
BLACK
10
5.5409448818897635
20
-6.4173228346456694
40
0.0196850393700787
0
CIRCLE
8
BLACK
10
5.6409448818897641
20
-6.4173228346456694
40
0.0196850393700787
0
CIRCLE
8
BLACK
10
5.7409448818897637
20
-6.4173228346456694
40
0.0196850393700787
0
CIRCLE
8
BLACK
10
5.8409448818897634
20
-6.4173228346456694
40
0.0196850393700787
0
CIRCLE
8
BLACK
10
5.9409448818897639
20
-6.4173228346456694
40
0.0196850393700787
0
CIRCLE
8
BLACK
10
6.0409448818897635
20
-6.4173228346456694
40
0.0196850393700787
0
CIRCLE
8
BLACK
10
6.1409448818897641
20
-6.4173228346456694
40
0.0196850393700787
0
CIRCLE
8
BLACK
10
6.2409448818897637
20
-6.4173228346456694
40
0.0196850393700787
  0
ENDSEC
  0
EOF
