  0
SECTION
  2
HEADER
  9
$ANGBASE
  50
0.0
  9
$ANGDIR
  70
1
  9
$MEASUREMENT
  70
0
  0
ENDSEC
  0
SECTION
  2
TABLES
  0
TABLE
  2
LTYPE
  70
4
  0
LTYPE
  5
40F
  2
CONTINUOUS
  70
0
  3
Solid line
  72
65
  73
0
  40
0.0
  0
LTYPE
  5
410
  2
DASHDOT
 70
0
  3
Dash Dot ____ _ ____ _
 72
65
 73
4
 40
2.0
 49
1.25
 49
-0.25
 49
0.25
 49
-0.25
  0
LTYPE
  5
411
  2
DASHED
 70
0
  3
Dashed __ __ __ __ __
 72
65
 73
2
 40
0.75
 49
0.5
 49
-0.25
  0
LTYPE
  5
43B
  2
DOTTED
 70
0
  3
Dotted .  .  .  .
 72
65
 73
2
 40
0.2
 49
0.0
 49
-0.2
  0
ENDTAB
  0
TABLE
  2
STYLE
  70
4
  0
STYLE
  2
KICAD
  70
0
  40
0
  41
1
  42
1
  50
0
  71
0
  3
isocp.shx
  0
STYLE
  2
KICADB
  70
0
  40
0
  41
1
  42
1
  50
0
  71
0
  3
isocp.shx
  0
STYLE
  2
KICADI
  70
0
  40
0
  41
1
  42
1
  50
15
  71
0
  3
isocp.shx
  0
STYLE
  2
KICADBI
  70
0
  40
0
  41
1
  42
1
  50
15
  71
0
  3
isocp.shx
  0
ENDTAB
  0
TABLE
  2
LAYER
  70
1
  0
LAYER
  2
BLACK
  70
0
  62
7
  6
CONTINUOUS
  0
ENDTAB
  0
ENDSEC
  0
SECTION
  2
ENTITIES
0
LINE
8
BLACK
6
CONTINUOUS
10
6.1023622047244093
20
-4.5049212598425195
11
6.1195830314960631
21
-4.5055978740157476
0
LINE
8
BLACK
6
CONTINUOUS
10
6.1195830314960631
20
-4.5055978740157476
11
6.1366977165354326
21
-4.5076235433070861
0
LINE
8
BLACK
6
CONTINUOUS
10
6.1366977165354326
20
-4.5076235433070861
11
6.1536007086614175
21
-4.5109857480314961
0
LINE
8
BLACK
6
CONTINUOUS
10
6.1536007086614175
20
-4.5109857480314961
11
6.1701877952755906
21
-4.5156637795275589
0
LINE
8
BLACK
6
CONTINUOUS
10
6.1701877952755906
20
-4.5156637795275589
11
6.1863566929133853
21
-4.5216288188976375
0
LINE
8
BLACK
6
CONTINUOUS
10
6.1863566929133853
20
-4.5216288188976375
11
6.2020077559055116
21
-4.5288440551181104
0
LINE
8
BLACK
6
CONTINUOUS
10
6.2020077559055116
20
-4.5288440551181104
11
6.2170444488188972
21
-4.5372649999999997
0
LINE
8
BLACK
6
CONTINUOUS
10
6.2170444488188972
20
-4.5372649999999997
11
6.2313741338582673
21
-4.546839763779527
0
LINE
8
BLACK
6
CONTINUOUS
10
6.2313741338582673
20
-4.546839763779527
11
6.2449083858267711
21
-4.5575093307086609
0
LINE
8
BLACK
6
CONTINUOUS
10
6.2449083858267711
20
-4.5575093307086609
11
6.2575637795275592
21
-4.5692078740157482
0
LINE
8
BLACK
6
CONTINUOUS
10
6.2575637795275592
20
-4.5692078740157482
11
6.2692623228346456
21
-4.5818632677165354
0
LINE
8
BLACK
6
CONTINUOUS
10
6.2692623228346456
20
-4.5818632677165354
11
6.2799318897637795
21
-4.5953975196850392
0
LINE
8
BLACK
6
CONTINUOUS
10
6.2799318897637795
20
-4.5953975196850392
11
6.2895066535433068
21
-4.6097272047244093
0
LINE
8
BLACK
6
CONTINUOUS
10
6.2895066535433068
20
-4.6097272047244093
11
6.297927598425197
21
-4.6247638976377949
0
LINE
8
BLACK
6
CONTINUOUS
10
6.297927598425197
20
-4.6247638976377949
11
6.305142834645669
21
-4.6404149606299212
0
LINE
8
BLACK
6
CONTINUOUS
10
6.305142834645669
20
-4.6404149606299212
11
6.3111078740157476
21
-4.6565838582677168
0
LINE
8
BLACK
6
CONTINUOUS
10
6.3111078740157476
20
-4.6565838582677168
11
6.3157859055118113
21
-4.6731709448818899
0
LINE
8
BLACK
6
CONTINUOUS
10
6.3157859055118113
20
-4.6731709448818899
11
6.3191481102362204
21
-4.6900739370078739
0
LINE
8
BLACK
6
CONTINUOUS
10
6.3191481102362204
20
-4.6900739370078739
11
6.3211737795275589
21
-4.7071886220472443
0
LINE
8
BLACK
6
CONTINUOUS
10
6.3211737795275589
20
-4.7071886220472443
11
6.3218503937007871
21
-4.7244094488188972
0
LINE
8
BLACK
6
CONTINUOUS
10
6.3218503937007871
20
-4.7244094488188972
11
6.3218503937007871
21
-4.7850000000000001
0
LINE
8
BLACK
6
CONTINUOUS
10
6.3218503937007871
20
-4.7850000000000001
11
6.3217936614173231
21
-4.785576062992126
0
LINE
8
BLACK
6
CONTINUOUS
10
6.3217936614173231
20
-4.785576062992126
11
6.3213527559055116
21
-4.7866404724409444
0
LINE
8
BLACK
6
CONTINUOUS
10
6.3213527559055116
20
-4.7866404724409444
11
6.3205381102362201
21
-4.7874551181102358
0
LINE
8
BLACK
6
CONTINUOUS
10
6.3205381102362201
20
-4.7874551181102358
11
6.3194737007874018
21
-4.7878960236220474
0
LINE
8
BLACK
6
CONTINUOUS
10
6.3194737007874018
20
-4.7878960236220474
11
6.318897637795275
21
-4.7879527559055113
0
LINE
8
BLACK
6
CONTINUOUS
10
6.318897637795275
20
-4.7879527559055113
11
6.2800000000000002
21
-4.7879527559055113
0
LINE
8
BLACK
6
CONTINUOUS
10
6.2800000000000002
20
-4.7879527559055113
11
6.2763213385826768
21
-4.7879527559055113
0
LINE
8
BLACK
6
CONTINUOUS
10
6.2763213385826768
20
-4.7879527559055113
11
6.269075787401575
21
-4.7892303149606299
0
LINE
8
BLACK
6
CONTINUOUS
10
6.269075787401575
20
-4.7892303149606299
11
6.2621621653543302
21
-4.7917466929133861
0
LINE
8
BLACK
6
CONTINUOUS
10
6.2621621653543302
20
-4.7917466929133861
11
6.2557905511811018
21
-4.7954253149606298
0
LINE
8
BLACK
6
CONTINUOUS
10
6.2557905511811018
20
-4.7954253149606298
11
6.2501545275590553
21
-4.8001545275590551
0
LINE
8
BLACK
6
CONTINUOUS
10
6.2501545275590553
20
-4.8001545275590551
11
6.24542531496063
21
-4.8057905511811025
0
LINE
8
BLACK
6
CONTINUOUS
10
6.24542531496063
20
-4.8057905511811025
11
6.2417466929133854
21
-4.8121621653543309
0
LINE
8
BLACK
6
CONTINUOUS
10
6.2417466929133854
20
-4.8121621653543309
11
6.2392303149606301
21
-4.8190757874015748
0
LINE
8
BLACK
6
CONTINUOUS
10
6.2392303149606301
20
-4.8190757874015748
11
6.2379527559055115
21
-4.8263213385826766
0
LINE
8
BLACK
6
CONTINUOUS
10
6.2379527559055115
20
-4.8263213385826766
11
6.2379527559055115
21
-4.8300000000000001
0
LINE
8
BLACK
6
CONTINUOUS
10
6.2379527559055115
20
-4.8300000000000001
11
6.2379527559055115
21
-5.0199999999999996
0
LINE
8
BLACK
6
CONTINUOUS
10
6.2379527559055115
20
-5.0199999999999996
11
6.2379527559055115
21
-5.023678661417323
0
LINE
8
BLACK
6
CONTINUOUS
10
6.2379527559055115
20
-5.023678661417323
11
6.2392303149606301
21
-5.0309242125984248
0
LINE
8
BLACK
6
CONTINUOUS
10
6.2392303149606301
20
-5.0309242125984248
11
6.2417466929133854
21
-5.0378378346456696
0
LINE
8
BLACK
6
CONTINUOUS
10
6.2417466929133854
20
-5.0378378346456696
11
6.24542531496063
21
-5.0442094488188971
0
LINE
8
BLACK
6
CONTINUOUS
10
6.24542531496063
20
-5.0442094488188971
11
6.2501545275590553
21
-5.0498454724409445
0
LINE
8
BLACK
6
CONTINUOUS
10
6.2501545275590553
20
-5.0498454724409445
11
6.2557905511811018
21
-5.0545746850393698
0
LINE
8
BLACK
6
CONTINUOUS
10
6.2557905511811018
20
-5.0545746850393698
11
6.2621621653543302
21
-5.0582533070866145
0
LINE
8
BLACK
6
CONTINUOUS
10
6.2621621653543302
20
-5.0582533070866145
11
6.269075787401575
21
-5.0607696850393697
0
LINE
8
BLACK
6
CONTINUOUS
10
6.269075787401575
20
-5.0607696850393697
11
6.2763213385826768
21
-5.0620472440944884
0
LINE
8
BLACK
6
CONTINUOUS
10
6.2763213385826768
20
-5.0620472440944884
11
6.2800000000000002
21
-5.0620472440944884
0
LINE
8
BLACK
6
CONTINUOUS
10
6.2800000000000002
20
-5.0620472440944884
11
6.318897637795275
21
-5.0620472440944884
0
LINE
8
BLACK
6
CONTINUOUS
10
6.318897637795275
20
-5.0620472440944884
11
6.3194737007874018
21
-5.0621039763779523
0
LINE
8
BLACK
6
CONTINUOUS
10
6.3194737007874018
20
-5.0621039763779523
11
6.3205381102362201
21
-5.0625448818897638
0
LINE
8
BLACK
6
CONTINUOUS
10
6.3205381102362201
20
-5.0625448818897638
11
6.3213527559055116
21
-5.0633595275590553
0
LINE
8
BLACK
6
CONTINUOUS
10
6.3213527559055116
20
-5.0633595275590553
11
6.3217936614173231
21
-5.0644239370078736
0
LINE
8
BLACK
6
CONTINUOUS
10
6.3217936614173231
20
-5.0644239370078736
11
6.3218503937007871
21
-5.0649999999999995
0
LINE
8
BLACK
6
CONTINUOUS
10
6.3218503937007871
20
-5.0649999999999995
11
6.3218503937007871
21
-6.4763779527559056
0
LINE
8
BLACK
6
CONTINUOUS
10
6.3218503937007871
20
-6.4763779527559056
11
6.3217936614173231
21
-6.4769540157480314
0
LINE
8
BLACK
6
CONTINUOUS
10
6.3217936614173231
20
-6.4769540157480314
11
6.3213527559055116
21
-6.4780184251968507
0
LINE
8
BLACK
6
CONTINUOUS
10
6.3213527559055116
20
-6.4780184251968507
11
6.3205381102362201
21
-6.4788330708661412
0
LINE
8
BLACK
6
CONTINUOUS
10
6.3205381102362201
20
-6.4788330708661412
11
6.3194737007874018
21
-6.4792739763779528
0
LINE
8
BLACK
6
CONTINUOUS
10
6.3194737007874018
20
-6.4792739763779528
11
6.318897637795275
21
-6.4793307086614176
0
LINE
8
BLACK
6
CONTINUOUS
10
6.318897637795275
20
-6.4793307086614176
11
2.3818897637795273
21
-6.4793307086614176
0
LINE
8
BLACK
6
CONTINUOUS
10
2.3818897637795273
20
-6.4793307086614176
11
2.3813137007874015
21
-6.4792739763779528
0
LINE
8
BLACK
6
CONTINUOUS
10
2.3813137007874015
20
-6.4792739763779528
11
2.3802492913385827
21
-6.4788330708661412
0
LINE
8
BLACK
6
CONTINUOUS
10
2.3802492913385827
20
-6.4788330708661412
11
2.3794346456692912
21
-6.4780184251968507
0
LINE
8
BLACK
6
CONTINUOUS
10
2.3794346456692912
20
-6.4780184251968507
11
2.3789937401574801
21
-6.4769540157480314
0
LINE
8
BLACK
6
CONTINUOUS
10
2.3789937401574801
20
-6.4769540157480314
11
2.3789370078740157
21
-6.4763779527559056
0
LINE
8
BLACK
6
CONTINUOUS
10
2.3789370078740157
20
-6.4763779527559056
11
2.3789370078740157
21
-5.0984251968503935
0
LINE
8
BLACK
6
CONTINUOUS
10
2.3789370078740157
20
-5.0984251968503935
11
2.3789937401574801
21
-5.0978491338582677
0
LINE
8
BLACK
6
CONTINUOUS
10
2.3789937401574801
20
-5.0978491338582677
11
2.3794346456692912
21
-5.0967847244094484
0
LINE
8
BLACK
6
CONTINUOUS
10
2.3794346456692912
20
-5.0967847244094484
11
2.3798018503937008
21
-5.0963372834645666
0
LINE
8
BLACK
6
CONTINUOUS
10
2.3798018503937008
20
-5.0963372834645666
11
2.9703530314960629
21
-4.5057861023622046
0
LINE
8
BLACK
6
CONTINUOUS
10
2.9703530314960629
20
-4.5057861023622046
11
2.9708004724409447
21
-4.5054188976377949
0
LINE
8
BLACK
6
CONTINUOUS
10
2.9708004724409447
20
-4.5054188976377949
11
2.9718648818897635
21
-4.5049779921259843
0
LINE
8
BLACK
6
CONTINUOUS
10
2.9718648818897635
20
-4.5049779921259843
11
2.9724409448818898
21
-4.5049212598425195
0
LINE
8
BLACK
6
CONTINUOUS
10
2.9724409448818898
20
-4.5049212598425195
11
6.1023622047244093
21
-4.5049212598425195
0
LINE
8
BLACK
6
CONTINUOUS
10
2.9736640157480316
20
-4.5108267716535435
11
2.3848425196850394
21
-5.0996482677165353
0
LINE
8
BLACK
6
CONTINUOUS
10
2.3848425196850394
20
-5.0996482677165353
11
2.3848425196850394
21
-6.4734251968503935
0
LINE
8
BLACK
6
CONTINUOUS
10
2.3848425196850394
20
-6.4734251968503935
11
6.3159448818897639
21
-6.4734251968503935
0
LINE
8
BLACK
6
CONTINUOUS
10
6.3159448818897639
20
-6.4734251968503935
11
6.3159448818897639
21
-5.0679527559055115
0
LINE
8
BLACK
6
CONTINUOUS
10
6.3159448818897639
20
-5.0679527559055115
11
6.2800000000000002
21
-5.0679527559055115
0
LINE
8
BLACK
6
CONTINUOUS
10
6.2800000000000002
20
-5.0679527559055115
11
6.2724985433070861
21
-5.0673623622047241
0
LINE
8
BLACK
6
CONTINUOUS
10
6.2724985433070861
20
-5.0673623622047241
11
6.265181771653543
21
-5.0656057874015747
0
LINE
8
BLACK
6
CONTINUOUS
10
6.265181771653543
20
-5.0656057874015747
11
6.2582299212598427
21
-5.0627262204724408
0
LINE
8
BLACK
6
CONTINUOUS
10
6.2582299212598427
20
-5.0627262204724408
11
6.2518140944881893
21
-5.0587946062992124
0
LINE
8
BLACK
6
CONTINUOUS
10
6.2518140944881893
20
-5.0587946062992124
11
6.2460922834645665
21
-5.0539077165354334
0
LINE
8
BLACK
6
CONTINUOUS
10
6.2460922834645665
20
-5.0539077165354334
11
6.2412053937007874
21
-5.0481859055118106
0
LINE
8
BLACK
6
CONTINUOUS
10
6.2412053937007874
20
-5.0481859055118106
11
6.237273779527559
21
-5.0417700787401571
0
LINE
8
BLACK
6
CONTINUOUS
10
6.237273779527559
20
-5.0417700787401571
11
6.2343942125984251
21
-5.0348182283464569
0
LINE
8
BLACK
6
CONTINUOUS
10
6.2343942125984251
20
-5.0348182283464569
11
6.2326376377952757
21
-5.0275014566929137
0
LINE
8
BLACK
6
CONTINUOUS
10
6.2326376377952757
20
-5.0275014566929137
11
6.2320472440944883
21
-5.0199999999999996
0
LINE
8
BLACK
6
CONTINUOUS
10
6.2320472440944883
20
-5.0199999999999996
11
6.2320472440944883
21
-4.8300000000000001
0
LINE
8
BLACK
6
CONTINUOUS
10
6.2320472440944883
20
-4.8300000000000001
11
6.2326376377952757
21
-4.8224985433070868
0
LINE
8
BLACK
6
CONTINUOUS
10
6.2326376377952757
20
-4.8224985433070868
11
6.2343942125984251
21
-4.8151817716535428
0
LINE
8
BLACK
6
CONTINUOUS
10
6.2343942125984251
20
-4.8151817716535428
11
6.237273779527559
21
-4.8082299212598425
0
LINE
8
BLACK
6
CONTINUOUS
10
6.237273779527559
20
-4.8082299212598425
11
6.2412053937007874
21
-4.8018140944881891
0
LINE
8
BLACK
6
CONTINUOUS
10
6.2412053937007874
20
-4.8018140944881891
11
6.2460922834645665
21
-4.7960922834645672
0
LINE
8
BLACK
6
CONTINUOUS
10
6.2460922834645665
20
-4.7960922834645672
11
6.2518140944881893
21
-4.7912053937007872
0
LINE
8
BLACK
6
CONTINUOUS
10
6.2518140944881893
20
-4.7912053937007872
11
6.2582299212598427
21
-4.7872737795275588
0
LINE
8
BLACK
6
CONTINUOUS
10
6.2582299212598427
20
-4.7872737795275588
11
6.265181771653543
21
-4.7843942125984249
0
LINE
8
BLACK
6
CONTINUOUS
10
6.265181771653543
20
-4.7843942125984249
11
6.2724985433070861
21
-4.7826376377952755
0
LINE
8
BLACK
6
CONTINUOUS
10
6.2724985433070861
20
-4.7826376377952755
11
6.2800000000000002
21
-4.7820472440944881
0
LINE
8
BLACK
6
CONTINUOUS
10
6.2800000000000002
20
-4.7820472440944881
11
6.3159448818897639
21
-4.7820472440944881
0
LINE
8
BLACK
6
CONTINUOUS
10
6.3159448818897639
20
-4.7820472440944881
11
6.3159448818897639
21
-4.7244094488188972
0
LINE
8
BLACK
6
CONTINUOUS
10
6.3159448818897639
20
-4.7244094488188972
11
6.3159448818897639
21
-4.7155755905511807
0
LINE
8
BLACK
6
CONTINUOUS
10
6.3159448818897639
20
-4.7155755905511807
11
6.3144859055118108
21
-4.6979682677165355
0
LINE
8
BLACK
6
CONTINUOUS
10
6.3144859055118108
20
-4.6979682677165355
11
6.3115778740157475
21
-4.6805415354330711
0
LINE
8
BLACK
6
CONTINUOUS
10
6.3115778740157475
20
-4.6805415354330711
11
6.3072407086614168
21
-4.6634144881889759
0
LINE
8
BLACK
6
CONTINUOUS
10
6.3072407086614168
20
-4.6634144881889759
11
6.3015040157480318
21
-4.6467040551181098
0
LINE
8
BLACK
6
CONTINUOUS
10
6.3015040157480318
20
-4.6467040551181098
11
6.2944070078740157
21
-4.6305244881889767
0
LINE
8
BLACK
6
CONTINUOUS
10
6.2944070078740157
20
-4.6305244881889767
11
6.2859981102362203
21
-4.6149861811023625
0
LINE
8
BLACK
6
CONTINUOUS
10
6.2859981102362203
20
-4.6149861811023625
11
6.2763348031496058
21
-4.6001953937007869
0
LINE
8
BLACK
6
CONTINUOUS
10
6.2763348031496058
20
-4.6001953937007869
11
6.265483070866142
21
-4.5862531102362203
0
LINE
8
BLACK
6
CONTINUOUS
10
6.265483070866142
20
-4.5862531102362203
11
6.2535170866141732
21
-4.5732545669291333
0
LINE
8
BLACK
6
CONTINUOUS
10
6.2535170866141732
20
-4.5732545669291333
11
6.2405185433070862
21
-4.5612885826771654
0
LINE
8
BLACK
6
CONTINUOUS
10
6.2405185433070862
20
-4.5612885826771654
11
6.2265762598425196
21
-4.5504368503937007
0
LINE
8
BLACK
6
CONTINUOUS
10
6.2265762598425196
20
-4.5504368503937007
11
6.2117854724409449
21
-4.5407735433070862
0
LINE
8
BLACK
6
CONTINUOUS
10
6.2117854724409449
20
-4.5407735433070862
11
6.1962471653543307
21
-4.5323646456692916
0
LINE
8
BLACK
6
CONTINUOUS
10
6.1962471653543307
20
-4.5323646456692916
11
6.1800675984251967
21
-4.5252676377952756
0
LINE
8
BLACK
6
CONTINUOUS
10
6.1800675984251967
20
-4.5252676377952756
11
6.1633571653543306
21
-4.5195309448818897
0
LINE
8
BLACK
6
CONTINUOUS
10
6.1633571653543306
20
-4.5195309448818897
11
6.1462301181102363
21
-4.515193779527559
0
LINE
8
BLACK
6
CONTINUOUS
10
6.1462301181102363
20
-4.515193779527559
11
6.1288033858267719
21
-4.5122857480314957
0
LINE
8
BLACK
6
CONTINUOUS
10
6.1288033858267719
20
-4.5122857480314957
11
6.1111960629921258
21
-4.5108267716535435
0
LINE
8
BLACK
6
CONTINUOUS
10
6.1111960629921258
20
-4.5108267716535435
11
6.1023622047244093
21
-4.5108267716535435
0
LINE
8
BLACK
6
CONTINUOUS
10
6.1023622047244093
20
-4.5108267716535435
11
2.9736640157480316
21
-4.5108267716535435
0
CIRCLE
8
BLACK
10
6.1641338582677161
20
-5.1218503937007869
40
0.0236220472440945
0
CIRCLE
8
BLACK
10
6.1641338582677161
20
-4.7281496062992128
40
0.0236220472440945
0
CIRCLE
8
BLACK
10
6.0657086614173226
20
-5.1218503937007869
40
0.0236220472440945
0
CIRCLE
8
BLACK
10
6.0657086614173226
20
-4.7281496062992128
40
0.0236220472440945
0
CIRCLE
8
BLACK
10
5.8688582677165355
20
-4.9249999999999998
40
0.0236220472440945
0
LINE
8
BLACK
6
CONTINUOUS
10
5.8846933070866143
20
-5.1062370866141729
11
5.8886642913385829
21
-5.1073011023622046
0
LINE
8
BLACK
6
CONTINUOUS
10
5.8886642913385829
20
-5.1073011023622046
11
5.8922246062992123
21
-5.1093566535433066
0
LINE
8
BLACK
6
CONTINUOUS
10
5.8922246062992123
20
-5.1093566535433066
11
5.8951315354330704
21
-5.1122635826771656
0
LINE
8
BLACK
6
CONTINUOUS
10
5.8951315354330704
20
-5.1122635826771656
11
5.8971870866141733
21
-5.115823897637795
0
LINE
8
BLACK
6
CONTINUOUS
10
5.8971870866141733
20
-5.115823897637795
11
5.8982511023622042
21
-5.1197948818897636
0
LINE
8
BLACK
6
CONTINUOUS
10
5.8982511023622042
20
-5.1197948818897636
11
5.8982511023622042
21
-5.123905905511811
0
LINE
8
BLACK
6
CONTINUOUS
10
5.8982511023622042
20
-5.123905905511811
11
5.8971870866141733
21
-5.1278768897637796
0
LINE
8
BLACK
6
CONTINUOUS
10
5.8971870866141733
20
-5.1278768897637796
11
5.8951315354330704
21
-5.131437204724409
0
LINE
8
BLACK
6
CONTINUOUS
10
5.8951315354330704
20
-5.131437204724409
11
5.8922246062992123
21
-5.1343441338582672
0
LINE
8
BLACK
6
CONTINUOUS
10
5.8922246062992123
20
-5.1343441338582672
11
5.8886642913385829
21
-5.1363996850393701
0
LINE
8
BLACK
6
CONTINUOUS
10
5.8886642913385829
20
-5.1363996850393701
11
5.8846933070866143
21
-5.1374637007874018
0
LINE
8
BLACK
6
CONTINUOUS
10
5.8846933070866143
20
-5.1374637007874018
11
5.8826377952755902
21
-5.1375984251968498
0
LINE
8
BLACK
6
CONTINUOUS
10
5.8826377952755902
20
-5.1375984251968498
11
5.85507874015748
21
-5.1375984251968498
0
LINE
8
BLACK
6
CONTINUOUS
10
5.85507874015748
20
-5.1375984251968498
11
5.8530232283464567
21
-5.1374637007874018
0
LINE
8
BLACK
6
CONTINUOUS
10
5.8530232283464567
20
-5.1374637007874018
11
5.8490522440944881
21
-5.1363996850393701
0
LINE
8
BLACK
6
CONTINUOUS
10
5.8490522440944881
20
-5.1363996850393701
11
5.8454919291338578
21
-5.1343441338582672
0
LINE
8
BLACK
6
CONTINUOUS
10
5.8454919291338578
20
-5.1343441338582672
11
5.8425849999999997
21
-5.131437204724409
0
LINE
8
BLACK
6
CONTINUOUS
10
5.8425849999999997
20
-5.131437204724409
11
5.8405294488188977
21
-5.1278768897637796
0
LINE
8
BLACK
6
CONTINUOUS
10
5.8405294488188977
20
-5.1278768897637796
11
5.839465433070866
21
-5.123905905511811
0
LINE
8
BLACK
6
CONTINUOUS
10
5.839465433070866
20
-5.123905905511811
11
5.839465433070866
21
-5.1197948818897636
0
LINE
8
BLACK
6
CONTINUOUS
10
5.839465433070866
20
-5.1197948818897636
11
5.8405294488188977
21
-5.115823897637795
0
LINE
8
BLACK
6
CONTINUOUS
10
5.8405294488188977
20
-5.115823897637795
11
5.8425849999999997
21
-5.1122635826771656
0
LINE
8
BLACK
6
CONTINUOUS
10
5.8425849999999997
20
-5.1122635826771656
11
5.8454919291338578
21
-5.1093566535433066
0
LINE
8
BLACK
6
CONTINUOUS
10
5.8454919291338578
20
-5.1093566535433066
11
5.8490522440944881
21
-5.1073011023622046
0
LINE
8
BLACK
6
CONTINUOUS
10
5.8490522440944881
20
-5.1073011023622046
11
5.8530232283464567
21
-5.1062370866141729
0
LINE
8
BLACK
6
CONTINUOUS
10
5.8530232283464567
20
-5.1062370866141729
11
5.85507874015748
21
-5.1061023622047239
0
LINE
8
BLACK
6
CONTINUOUS
10
5.85507874015748
20
-5.1061023622047239
11
5.8826377952755902
21
-5.1061023622047239
0
LINE
8
BLACK
6
CONTINUOUS
10
5.8826377952755902
20
-5.1061023622047239
11
5.8846933070866143
21
-5.1062370866141729
0
LINE
8
BLACK
6
CONTINUOUS
10
5.8846933070866143
20
-5.0078118897637793
11
5.8886642913385829
21
-5.0088759055118111
0
LINE
8
BLACK
6
CONTINUOUS
10
5.8886642913385829
20
-5.0088759055118111
11
5.8922246062992123
21
-5.0109314566929131
0
LINE
8
BLACK
6
CONTINUOUS
10
5.8922246062992123
20
-5.0109314566929131
11
5.8951315354330704
21
-5.0138383858267712
0
LINE
8
BLACK
6
CONTINUOUS
10
5.8951315354330704
20
-5.0138383858267712
11
5.8971870866141733
21
-5.0173987007874015
0
LINE
8
BLACK
6
CONTINUOUS
10
5.8971870866141733
20
-5.0173987007874015
11
5.8982511023622042
21
-5.0213696850393701
0
LINE
8
BLACK
6
CONTINUOUS
10
5.8982511023622042
20
-5.0213696850393701
11
5.8982511023622042
21
-5.0254807086614175
0
LINE
8
BLACK
6
CONTINUOUS
10
5.8982511023622042
20
-5.0254807086614175
11
5.8971870866141733
21
-5.0294516929133861
0
LINE
8
BLACK
6
CONTINUOUS
10
5.8971870866141733
20
-5.0294516929133861
11
5.8951315354330704
21
-5.0330120078740155
0
LINE
8
BLACK
6
CONTINUOUS
10
5.8951315354330704
20
-5.0330120078740155
11
5.8922246062992123
21
-5.0359189370078736
0
LINE
8
BLACK
6
CONTINUOUS
10
5.8922246062992123
20
-5.0359189370078736
11
5.8886642913385829
21
-5.0379744881889765
0
LINE
8
BLACK
6
CONTINUOUS
10
5.8886642913385829
20
-5.0379744881889765
11
5.8846933070866143
21
-5.0390385039370074
0
LINE
8
BLACK
6
CONTINUOUS
10
5.8846933070866143
20
-5.0390385039370074
11
5.8826377952755902
21
-5.0391732283464563
0
LINE
8
BLACK
6
CONTINUOUS
10
5.8826377952755902
20
-5.0391732283464563
11
5.85507874015748
21
-5.0391732283464563
0
LINE
8
BLACK
6
CONTINUOUS
10
5.85507874015748
20
-5.0391732283464563
11
5.8530232283464567
21
-5.0390385039370074
0
LINE
8
BLACK
6
CONTINUOUS
10
5.8530232283464567
20
-5.0390385039370074
11
5.8490522440944881
21
-5.0379744881889765
0
LINE
8
BLACK
6
CONTINUOUS
10
5.8490522440944881
20
-5.0379744881889765
11
5.8454919291338578
21
-5.0359189370078736
0
LINE
8
BLACK
6
CONTINUOUS
10
5.8454919291338578
20
-5.0359189370078736
11
5.8425849999999997
21
-5.0330120078740155
0
LINE
8
BLACK
6
CONTINUOUS
10
5.8425849999999997
20
-5.0330120078740155
11
5.8405294488188977
21
-5.0294516929133861
0
LINE
8
BLACK
6
CONTINUOUS
10
5.8405294488188977
20
-5.0294516929133861
11
5.839465433070866
21
-5.0254807086614175
0
LINE
8
BLACK
6
CONTINUOUS
10
5.839465433070866
20
-5.0254807086614175
11
5.839465433070866
21
-5.0213696850393701
0
LINE
8
BLACK
6
CONTINUOUS
10
5.839465433070866
20
-5.0213696850393701
11
5.8405294488188977
21
-5.0173987007874015
0
LINE
8
BLACK
6
CONTINUOUS
10
5.8405294488188977
20
-5.0173987007874015
11
5.8425849999999997
21
-5.0138383858267712
0
LINE
8
BLACK
6
CONTINUOUS
10
5.8425849999999997
20
-5.0138383858267712
11
5.8454919291338578
21
-5.0109314566929131
0
LINE
8
BLACK
6
CONTINUOUS
10
5.8454919291338578
20
-5.0109314566929131
11
5.8490522440944881
21
-5.0088759055118111
0
LINE
8
BLACK
6
CONTINUOUS
10
5.8490522440944881
20
-5.0088759055118111
11
5.8530232283464567
21
-5.0078118897637793
0
LINE
8
BLACK
6
CONTINUOUS
10
5.8530232283464567
20
-5.0078118897637793
11
5.85507874015748
21
-5.0076771653543304
0
LINE
8
BLACK
6
CONTINUOUS
10
5.85507874015748
20
-5.0076771653543304
11
5.8826377952755902
21
-5.0076771653543304
0
LINE
8
BLACK
6
CONTINUOUS
10
5.8826377952755902
20
-5.0076771653543304
11
5.8846933070866143
21
-5.0078118897637793
0
LINE
8
BLACK
6
CONTINUOUS
10
6.0500953543307086
20
-4.909164960629921
11
6.0511593700787403
21
-4.9051939763779524
0
LINE
8
BLACK
6
CONTINUOUS
10
6.0511593700787403
20
-4.9051939763779524
11
6.0532149212598423
21
-4.901633661417323
0
LINE
8
BLACK
6
CONTINUOUS
10
6.0532149212598423
20
-4.901633661417323
11
6.0561218503937004
21
-4.8987267322834649
0
LINE
8
BLACK
6
CONTINUOUS
10
6.0561218503937004
20
-4.8987267322834649
11
6.0596821653543307
21
-4.896671181102362
0
LINE
8
BLACK
6
CONTINUOUS
10
6.0596821653543307
20
-4.896671181102362
11
6.0636531496062993
21
-4.8956071653543303
0
LINE
8
BLACK
6
CONTINUOUS
10
6.0636531496062993
20
-4.8956071653543303
11
6.0677641732283467
21
-4.8956071653543303
0
LINE
8
BLACK
6
CONTINUOUS
10
6.0677641732283467
20
-4.8956071653543303
11
6.0717351574803144
21
-4.896671181102362
0
LINE
8
BLACK
6
CONTINUOUS
10
6.0717351574803144
20
-4.896671181102362
11
6.0752954724409447
21
-4.8987267322834649
0
LINE
8
BLACK
6
CONTINUOUS
10
6.0752954724409447
20
-4.8987267322834649
11
6.0782024015748028
21
-4.901633661417323
0
LINE
8
BLACK
6
CONTINUOUS
10
6.0782024015748028
20
-4.901633661417323
11
6.0802579527559057
21
-4.9051939763779524
0
LINE
8
BLACK
6
CONTINUOUS
10
6.0802579527559057
20
-4.9051939763779524
11
6.0813219685039366
21
-4.909164960629921
0
LINE
8
BLACK
6
CONTINUOUS
10
6.0813219685039366
20
-4.909164960629921
11
6.0814566929133855
21
-4.9112204724409452
0
LINE
8
BLACK
6
CONTINUOUS
10
6.0814566929133855
20
-4.9112204724409452
11
6.0814566929133855
21
-4.9387795275590554
0
LINE
8
BLACK
6
CONTINUOUS
10
6.0814566929133855
20
-4.9387795275590554
11
6.0813219685039366
21
-4.9408350393700786
0
LINE
8
BLACK
6
CONTINUOUS
10
6.0813219685039366
20
-4.9408350393700786
11
6.0802579527559057
21
-4.9448060236220472
0
LINE
8
BLACK
6
CONTINUOUS
10
6.0802579527559057
20
-4.9448060236220472
11
6.0782024015748028
21
-4.9483663385826775
0
LINE
8
BLACK
6
CONTINUOUS
10
6.0782024015748028
20
-4.9483663385826775
11
6.0752954724409447
21
-4.9512732677165356
0
LINE
8
BLACK
6
CONTINUOUS
10
6.0752954724409447
20
-4.9512732677165356
11
6.0717351574803144
21
-4.9533288188976377
0
LINE
8
BLACK
6
CONTINUOUS
10
6.0717351574803144
20
-4.9533288188976377
11
6.0677641732283467
21
-4.9543928346456694
0
LINE
8
BLACK
6
CONTINUOUS
10
6.0677641732283467
20
-4.9543928346456694
11
6.0636531496062993
21
-4.9543928346456694
0
LINE
8
BLACK
6
CONTINUOUS
10
6.0636531496062993
20
-4.9543928346456694
11
6.0596821653543307
21
-4.9533288188976377
0
LINE
8
BLACK
6
CONTINUOUS
10
6.0596821653543307
20
-4.9533288188976377
11
6.0561218503937004
21
-4.9512732677165356
0
LINE
8
BLACK
6
CONTINUOUS
10
6.0561218503937004
20
-4.9512732677165356
11
6.0532149212598423
21
-4.9483663385826775
0
LINE
8
BLACK
6
CONTINUOUS
10
6.0532149212598423
20
-4.9483663385826775
11
6.0511593700787403
21
-4.9448060236220472
0
LINE
8
BLACK
6
CONTINUOUS
10
6.0511593700787403
20
-4.9448060236220472
11
6.0500953543307086
21
-4.9408350393700786
0
LINE
8
BLACK
6
CONTINUOUS
10
6.0500953543307086
20
-4.9408350393700786
11
6.0499606299212596
21
-4.9387795275590554
0
LINE
8
BLACK
6
CONTINUOUS
10
6.0499606299212596
20
-4.9387795275590554
11
6.0499606299212596
21
-4.9112204724409452
0
LINE
8
BLACK
6
CONTINUOUS
10
6.0499606299212596
20
-4.9112204724409452
11
6.0500953543307086
21
-4.909164960629921
0
LINE
8
BLACK
6
CONTINUOUS
10
5.8846933070866143
20
-4.7125362992125988
11
5.8886642913385829
21
-4.7136003149606296
0
LINE
8
BLACK
6
CONTINUOUS
10
5.8886642913385829
20
-4.7136003149606296
11
5.8922246062992123
21
-4.7156558661417325
0
LINE
8
BLACK
6
CONTINUOUS
10
5.8922246062992123
20
-4.7156558661417325
11
5.8951315354330704
21
-4.7185627952755906
0
LINE
8
BLACK
6
CONTINUOUS
10
5.8951315354330704
20
-4.7185627952755906
11
5.8971870866141733
21
-4.72212311023622
0
LINE
8
BLACK
6
CONTINUOUS
10
5.8971870866141733
20
-4.72212311023622
11
5.8982511023622042
21
-4.7260940944881886
0
LINE
8
BLACK
6
CONTINUOUS
10
5.8982511023622042
20
-4.7260940944881886
11
5.8982511023622042
21
-4.730205118110236
0
LINE
8
BLACK
6
CONTINUOUS
10
5.8982511023622042
20
-4.730205118110236
11
5.8971870866141733
21
-4.7341761023622047
0
LINE
8
BLACK
6
CONTINUOUS
10
5.8971870866141733
20
-4.7341761023622047
11
5.8951315354330704
21
-4.7377364173228349
0
LINE
8
BLACK
6
CONTINUOUS
10
5.8951315354330704
20
-4.7377364173228349
11
5.8922246062992123
21
-4.7406433464566931
0
LINE
8
BLACK
6
CONTINUOUS
10
5.8922246062992123
20
-4.7406433464566931
11
5.8886642913385829
21
-4.7426988976377951
0
LINE
8
BLACK
6
CONTINUOUS
10
5.8886642913385829
20
-4.7426988976377951
11
5.8846933070866143
21
-4.7437629133858268
0
LINE
8
BLACK
6
CONTINUOUS
10
5.8846933070866143
20
-4.7437629133858268
11
5.8826377952755902
21
-4.7438976377952757
0
LINE
8
BLACK
6
CONTINUOUS
10
5.8826377952755902
20
-4.7438976377952757
11
5.85507874015748
21
-4.7438976377952757
0
LINE
8
BLACK
6
CONTINUOUS
10
5.85507874015748
20
-4.7438976377952757
11
5.8530232283464567
21
-4.7437629133858268
0
LINE
8
BLACK
6
CONTINUOUS
10
5.8530232283464567
20
-4.7437629133858268
11
5.8490522440944881
21
-4.7426988976377951
0
LINE
8
BLACK
6
CONTINUOUS
10
5.8490522440944881
20
-4.7426988976377951
11
5.8454919291338578
21
-4.7406433464566931
0
LINE
8
BLACK
6
CONTINUOUS
10
5.8454919291338578
20
-4.7406433464566931
11
5.8425849999999997
21
-4.7377364173228349
0
LINE
8
BLACK
6
CONTINUOUS
10
5.8425849999999997
20
-4.7377364173228349
11
5.8405294488188977
21
-4.7341761023622047
0
LINE
8
BLACK
6
CONTINUOUS
10
5.8405294488188977
20
-4.7341761023622047
11
5.839465433070866
21
-4.730205118110236
0
LINE
8
BLACK
6
CONTINUOUS
10
5.839465433070866
20
-4.730205118110236
11
5.839465433070866
21
-4.7260940944881886
0
LINE
8
BLACK
6
CONTINUOUS
10
5.839465433070866
20
-4.7260940944881886
11
5.8405294488188977
21
-4.72212311023622
0
LINE
8
BLACK
6
CONTINUOUS
10
5.8405294488188977
20
-4.72212311023622
11
5.8425849999999997
21
-4.7185627952755906
0
LINE
8
BLACK
6
CONTINUOUS
10
5.8425849999999997
20
-4.7185627952755906
11
5.8454919291338578
21
-4.7156558661417325
0
LINE
8
BLACK
6
CONTINUOUS
10
5.8454919291338578
20
-4.7156558661417325
11
5.8490522440944881
21
-4.7136003149606296
0
LINE
8
BLACK
6
CONTINUOUS
10
5.8490522440944881
20
-4.7136003149606296
11
5.8530232283464567
21
-4.7125362992125988
0
LINE
8
BLACK
6
CONTINUOUS
10
5.8530232283464567
20
-4.7125362992125988
11
5.85507874015748
21
-4.7124015748031498
0
LINE
8
BLACK
6
CONTINUOUS
10
5.85507874015748
20
-4.7124015748031498
11
5.8826377952755902
21
-4.7124015748031498
0
LINE
8
BLACK
6
CONTINUOUS
10
5.8826377952755902
20
-4.7124015748031498
11
5.8846933070866143
21
-4.7125362992125988
0
LINE
8
BLACK
6
CONTINUOUS
10
5.8846933070866143
20
-4.8109614960629923
11
5.8886642913385829
21
-4.8120255118110231
0
LINE
8
BLACK
6
CONTINUOUS
10
5.8886642913385829
20
-4.8120255118110231
11
5.8922246062992123
21
-4.814081062992126
0
LINE
8
BLACK
6
CONTINUOUS
10
5.8922246062992123
20
-4.814081062992126
11
5.8951315354330704
21
-4.8169879921259842
0
LINE
8
BLACK
6
CONTINUOUS
10
5.8951315354330704
20
-4.8169879921259842
11
5.8971870866141733
21
-4.8205483070866144
0
LINE
8
BLACK
6
CONTINUOUS
10
5.8971870866141733
20
-4.8205483070866144
11
5.8982511023622042
21
-4.8245192913385821
0
LINE
8
BLACK
6
CONTINUOUS
10
5.8982511023622042
20
-4.8245192913385821
11
5.8982511023622042
21
-4.8286303149606296
0
LINE
8
BLACK
6
CONTINUOUS
10
5.8982511023622042
20
-4.8286303149606296
11
5.8971870866141733
21
-4.8326012992125982
0
LINE
8
BLACK
6
CONTINUOUS
10
5.8971870866141733
20
-4.8326012992125982
11
5.8951315354330704
21
-4.8361616141732284
0
LINE
8
BLACK
6
CONTINUOUS
10
5.8951315354330704
20
-4.8361616141732284
11
5.8922246062992123
21
-4.8390685433070866
0
LINE
8
BLACK
6
CONTINUOUS
10
5.8922246062992123
20
-4.8390685433070866
11
5.8886642913385829
21
-4.8411240944881886
0
LINE
8
BLACK
6
CONTINUOUS
10
5.8886642913385829
20
-4.8411240944881886
11
5.8846933070866143
21
-4.8421881102362203
0
LINE
8
BLACK
6
CONTINUOUS
10
5.8846933070866143
20
-4.8421881102362203
11
5.8826377952755902
21
-4.8423228346456693
0
LINE
8
BLACK
6
CONTINUOUS
10
5.8826377952755902
20
-4.8423228346456693
11
5.85507874015748
21
-4.8423228346456693
0
LINE
8
BLACK
6
CONTINUOUS
10
5.85507874015748
20
-4.8423228346456693
11
5.8530232283464567
21
-4.8421881102362203
0
LINE
8
BLACK
6
CONTINUOUS
10
5.8530232283464567
20
-4.8421881102362203
11
5.8490522440944881
21
-4.8411240944881886
0
LINE
8
BLACK
6
CONTINUOUS
10
5.8490522440944881
20
-4.8411240944881886
11
5.8454919291338578
21
-4.8390685433070866
0
LINE
8
BLACK
6
CONTINUOUS
10
5.8454919291338578
20
-4.8390685433070866
11
5.8425849999999997
21
-4.8361616141732284
0
LINE
8
BLACK
6
CONTINUOUS
10
5.8425849999999997
20
-4.8361616141732284
11
5.8405294488188977
21
-4.8326012992125982
0
LINE
8
BLACK
6
CONTINUOUS
10
5.8405294488188977
20
-4.8326012992125982
11
5.839465433070866
21
-4.8286303149606296
0
LINE
8
BLACK
6
CONTINUOUS
10
5.839465433070866
20
-4.8286303149606296
11
5.839465433070866
21
-4.8245192913385821
0
LINE
8
BLACK
6
CONTINUOUS
10
5.839465433070866
20
-4.8245192913385821
11
5.8405294488188977
21
-4.8205483070866144
0
LINE
8
BLACK
6
CONTINUOUS
10
5.8405294488188977
20
-4.8205483070866144
11
5.8425849999999997
21
-4.8169879921259842
0
LINE
8
BLACK
6
CONTINUOUS
10
5.8425849999999997
20
-4.8169879921259842
11
5.8454919291338578
21
-4.814081062992126
0
LINE
8
BLACK
6
CONTINUOUS
10
5.8454919291338578
20
-4.814081062992126
11
5.8490522440944881
21
-4.8120255118110231
0
LINE
8
BLACK
6
CONTINUOUS
10
5.8490522440944881
20
-4.8120255118110231
11
5.8530232283464567
21
-4.8109614960629923
0
LINE
8
BLACK
6
CONTINUOUS
10
5.8530232283464567
20
-4.8109614960629923
11
5.85507874015748
21
-4.8108267716535433
0
LINE
8
BLACK
6
CONTINUOUS
10
5.85507874015748
20
-4.8108267716535433
11
5.8826377952755902
21
-4.8108267716535433
0
LINE
8
BLACK
6
CONTINUOUS
10
5.8826377952755902
20
-4.8108267716535433
11
5.8846933070866143
21
-4.8109614960629923
0
CIRCLE
8
BLACK
10
2.5590551181102361
20
-6.148031496062992
40
0.0196850393700787
0
CIRCLE
8
BLACK
10
2.459055118110236
20
-6.148031496062992
40
0.0196850393700787
0
CIRCLE
8
BLACK
10
2.5590551181102361
20
-6.0480314960629924
40
0.0196850393700787
0
CIRCLE
8
BLACK
10
2.459055118110236
20
-6.0480314960629924
40
0.0196850393700787
0
CIRCLE
8
BLACK
10
2.5590551181102361
20
-5.9480314960629919
40
0.0196850393700787
0
CIRCLE
8
BLACK
10
2.459055118110236
20
-5.9480314960629919
40
0.0196850393700787
0
CIRCLE
8
BLACK
10
2.5590551181102361
20
-5.8480314960629922
40
0.0196850393700787
0
CIRCLE
8
BLACK
10
2.459055118110236
20
-5.8480314960629922
40
0.0196850393700787
0
CIRCLE
8
BLACK
10
2.5590551181102361
20
-5.7480314960629917
40
0.0196850393700787
0
CIRCLE
8
BLACK
10
2.459055118110236
20
-5.7480314960629917
40
0.0196850393700787
0
CIRCLE
8
BLACK
10
2.5590551181102361
20
-5.648031496062992
40
0.0196850393700787
0
CIRCLE
8
BLACK
10
2.459055118110236
20
-5.648031496062992
40
0.0196850393700787
0
CIRCLE
8
BLACK
10
2.5800000000000001
20
-5.1725196850393695
40
0.062992125984252
0
CIRCLE
8
BLACK
10
2.4409448818897639
20
-6.4173228346456694
40
0.0196850393700787
0
CIRCLE
8
BLACK
10
2.5409448818897635
20
-6.4173228346456694
40
0.0196850393700787
0
CIRCLE
8
BLACK
10
2.6409448818897636
20
-6.4173228346456694
40
0.0196850393700787
0
CIRCLE
8
BLACK
10
2.7409448818897637
20
-6.4173228346456694
40
0.0196850393700787
0
CIRCLE
8
BLACK
10
2.8409448818897638
20
-6.4173228346456694
40
0.0196850393700787
0
CIRCLE
8
BLACK
10
2.9409448818897639
20
-6.4173228346456694
40
0.0196850393700787
0
CIRCLE
8
BLACK
10
3.0409448818897635
20
-6.4173228346456694
40
0.0196850393700787
0
CIRCLE
8
BLACK
10
3.1409448818897636
20
-6.4173228346456694
40
0.0196850393700787
0
CIRCLE
8
BLACK
10
3.2409448818897637
20
-6.4173228346456694
40
0.0196850393700787
0
CIRCLE
8
BLACK
10
3.3409448818897638
20
-6.4173228346456694
40
0.0196850393700787
0
CIRCLE
8
BLACK
10
3.4409448818897639
20
-6.4173228346456694
40
0.0196850393700787
0
CIRCLE
8
BLACK
10
3.5409448818897635
20
-6.4173228346456694
40
0.0196850393700787
0
CIRCLE
8
BLACK
10
3.6409448818897636
20
-6.4173228346456694
40
0.0196850393700787
0
CIRCLE
8
BLACK
10
3.7409448818897637
20
-6.4173228346456694
40
0.0196850393700787
0
CIRCLE
8
BLACK
10
3.8409448818897638
20
-6.4173228346456694
40
0.0196850393700787
0
CIRCLE
8
BLACK
10
3.9409448818897639
20
-6.4173228346456694
40
0.0196850393700787
0
CIRCLE
8
BLACK
10
4.0409448818897635
20
-6.4173228346456694
40
0.0196850393700787
0
CIRCLE
8
BLACK
10
4.1409448818897641
20
-6.4173228346456694
40
0.0196850393700787
0
CIRCLE
8
BLACK
10
4.2409448818897637
20
-6.4173228346456694
40
0.0196850393700787
0
CIRCLE
8
BLACK
10
4.3409448818897634
20
-6.4173228346456694
40
0.0196850393700787
0
CIRCLE
8
BLACK
10
4.4409448818897639
20
-6.4173228346456694
40
0.0196850393700787
0
CIRCLE
8
BLACK
10
4.5409448818897635
20
-6.4173228346456694
40
0.0196850393700787
0
CIRCLE
8
BLACK
10
4.6409448818897641
20
-6.4173228346456694
40
0.0196850393700787
0
CIRCLE
8
BLACK
10
4.7409448818897637
20
-6.4173228346456694
40
0.0196850393700787
0
CIRCLE
8
BLACK
10
4.8409448818897634
20
-6.4173228346456694
40
0.0196850393700787
0
CIRCLE
8
BLACK
10
4.9409448818897639
20
-6.4173228346456694
40
0.0196850393700787
0
CIRCLE
8
BLACK
10
5.0409448818897635
20
-6.4173228346456694
40
0.0196850393700787
0
CIRCLE
8
BLACK
10
5.1409448818897641
20
-6.4173228346456694
40
0.0196850393700787
0
CIRCLE
8
BLACK
10
5.2409448818897637
20
-6.4173228346456694
40
0.0196850393700787
0
CIRCLE
8
BLACK
10
5.3409448818897634
20
-6.4173228346456694
40
0.0196850393700787
0
CIRCLE
8
BLACK
10
5.4409448818897639
20
-6.4173228346456694
40
0.0196850393700787
0
CIRCLE
8
BLACK
10
5.5409448818897635
20
-6.4173228346456694
40
0.0196850393700787
0
CIRCLE
8
BLACK
10
5.6409448818897641
20
-6.4173228346456694
40
0.0196850393700787
0
CIRCLE
8
BLACK
10
5.7409448818897637
20
-6.4173228346456694
40
0.0196850393700787
0
CIRCLE
8
BLACK
10
5.8409448818897634
20
-6.4173228346456694
40
0.0196850393700787
0
CIRCLE
8
BLACK
10
5.9409448818897639
20
-6.4173228346456694
40
0.0196850393700787
0
CIRCLE
8
BLACK
10
6.0409448818897635
20
-6.4173228346456694
40
0.0196850393700787
0
CIRCLE
8
BLACK
10
6.1409448818897641
20
-6.4173228346456694
40
0.0196850393700787
0
CIRCLE
8
BLACK
10
6.2409448818897637
20
-6.4173228346456694
40
0.0196850393700787
  0
ENDSEC
  0
EOF
