  0
SECTION
  2
HEADER
  9
$ANGBASE
  50
0.0
  9
$ANGDIR
  70
1
  9
$MEASUREMENT
  70
0
  0
ENDSEC
  0
SECTION
  2
TABLES
  0
TABLE
  2
LTYPE
  70
4
  0
LTYPE
  5
40F
  2
CONTINUOUS
  70
0
  3
Solid line
  72
65
  73
0
  40
0.0
  0
LTYPE
  5
410
  2
DASHDOT
 70
0
  3
Dash Dot ____ _ ____ _
 72
65
 73
4
 40
2.0
 49
1.25
 49
-0.25
 49
0.25
 49
-0.25
  0
LTYPE
  5
411
  2
DASHED
 70
0
  3
Dashed __ __ __ __ __
 72
65
 73
2
 40
0.75
 49
0.5
 49
-0.25
  0
LTYPE
  5
43B
  2
DOTTED
 70
0
  3
Dotted .  .  .  .
 72
65
 73
2
 40
0.2
 49
0.0
 49
-0.2
  0
ENDTAB
  0
TABLE
  2
STYLE
  70
4
  0
STYLE
  2
KICAD
  70
0
  40
0
  41
1
  42
1
  50
0
  71
0
  3
isocp.shx
  0
STYLE
  2
KICADB
  70
0
  40
0
  41
1
  42
1
  50
0
  71
0
  3
isocp.shx
  0
STYLE
  2
KICADI
  70
0
  40
0
  41
1
  42
1
  50
15
  71
0
  3
isocp.shx
  0
STYLE
  2
KICADBI
  70
0
  40
0
  41
1
  42
1
  50
15
  71
0
  3
isocp.shx
  0
ENDTAB
  0
TABLE
  2
LAYER
  70
1
  0
LAYER
  2
BLACK
  70
0
  62
7
  6
CONTINUOUS
  0
ENDTAB
  0
ENDSEC
  0
SECTION
  2
ENTITIES
0
LINE
8
BLACK
6
CONTINUOUS
10
2.5989189763779525
20
-5.0449782283464568
11
2.6113291338582676
21
-5.0474467716535436
0
LINE
8
BLACK
6
CONTINUOUS
10
2.6113291338582676
20
-5.0474467716535436
11
2.6234375590551182
21
-5.0511198031496063
0
LINE
8
BLACK
6
CONTINUOUS
10
2.6234375590551182
20
-5.0511198031496063
11
2.6351276771653542
21
-5.0559620078740153
0
LINE
8
BLACK
6
CONTINUOUS
10
2.6351276771653542
20
-5.0559620078740153
11
2.6462868503937007
21
-5.0619267322834647
0
LINE
8
BLACK
6
CONTINUOUS
10
2.6462868503937007
20
-5.0619267322834647
11
2.6568076771653542
21
-5.0689564960629916
0
LINE
8
BLACK
6
CONTINUOUS
10
2.6568076771653542
20
-5.0689564960629916
11
2.6665888188976377
21
-5.0769836614173229
0
LINE
8
BLACK
6
CONTINUOUS
10
2.6665888188976377
20
-5.0769836614173229
11
2.6755360236220471
21
-5.085930866141732
0
LINE
8
BLACK
6
CONTINUOUS
10
2.6755360236220471
20
-5.085930866141732
11
2.683563188976378
21
-5.0957120078740159
0
LINE
8
BLACK
6
CONTINUOUS
10
2.683563188976378
20
-5.0957120078740159
11
2.6905929527559054
21
-5.1062328346456693
0
LINE
8
BLACK
6
CONTINUOUS
10
2.6905929527559054
20
-5.1062328346456693
11
2.6965576771653543
21
-5.1173920078740158
0
LINE
8
BLACK
6
CONTINUOUS
10
2.6965576771653543
20
-5.1173920078740158
11
2.7013998818897638
21
-5.1290821259842518
0
LINE
8
BLACK
6
CONTINUOUS
10
2.7013998818897638
20
-5.1290821259842518
11
2.7050729133858269
21
-5.1411905511811025
0
LINE
8
BLACK
6
CONTINUOUS
10
2.7050729133858269
20
-5.1411905511811025
11
2.7075414566929132
21
-5.1536007086614175
0
LINE
8
BLACK
6
CONTINUOUS
10
2.7075414566929132
20
-5.1536007086614175
11
2.7087816929133859
21
-5.1661930314960625
0
LINE
8
BLACK
6
CONTINUOUS
10
2.7087816929133859
20
-5.1661930314960625
11
2.7087816929133859
21
-5.1788463385826766
0
LINE
8
BLACK
6
CONTINUOUS
10
2.7087816929133859
20
-5.1788463385826766
11
2.7075414566929132
21
-5.1914386614173225
0
LINE
8
BLACK
6
CONTINUOUS
10
2.7075414566929132
20
-5.1914386614173225
11
2.7050729133858269
21
-5.2038488188976375
0
LINE
8
BLACK
6
CONTINUOUS
10
2.7050729133858269
20
-5.2038488188976375
11
2.7013998818897638
21
-5.2159572440944881
0
LINE
8
BLACK
6
CONTINUOUS
10
2.7013998818897638
20
-5.2159572440944881
11
2.6965576771653543
21
-5.2276473622047241
0
LINE
8
BLACK
6
CONTINUOUS
10
2.6965576771653543
20
-5.2276473622047241
11
2.6905929527559054
21
-5.2388065354330706
0
LINE
8
BLACK
6
CONTINUOUS
10
2.6905929527559054
20
-5.2388065354330706
11
2.683563188976378
21
-5.2493273622047241
0
LINE
8
BLACK
6
CONTINUOUS
10
2.683563188976378
20
-5.2493273622047241
11
2.6755360236220471
21
-5.259108503937008
0
LINE
8
BLACK
6
CONTINUOUS
10
2.6755360236220471
20
-5.259108503937008
11
2.6665888188976377
21
-5.268055708661417
0
LINE
8
BLACK
6
CONTINUOUS
10
2.6665888188976377
20
-5.268055708661417
11
2.6568076771653542
21
-5.2760828740157475
0
LINE
8
BLACK
6
CONTINUOUS
10
2.6568076771653542
20
-5.2760828740157475
11
2.6462868503937007
21
-5.2831126377952753
0
LINE
8
BLACK
6
CONTINUOUS
10
2.6462868503937007
20
-5.2831126377952753
11
2.6351276771653542
21
-5.2890773622047247
0
LINE
8
BLACK
6
CONTINUOUS
10
2.6351276771653542
20
-5.2890773622047247
11
2.6234375590551182
21
-5.2939195669291337
0
LINE
8
BLACK
6
CONTINUOUS
10
2.6234375590551182
20
-5.2939195669291337
11
2.6113291338582676
21
-5.2975925984251964
0
LINE
8
BLACK
6
CONTINUOUS
10
2.6113291338582676
20
-5.2975925984251964
11
2.5989189763779525
21
-5.3000611417322832
0
LINE
8
BLACK
6
CONTINUOUS
10
2.5989189763779525
20
-5.3000611417322832
11
2.5863266535433072
21
-5.3013013779527558
0
LINE
8
BLACK
6
CONTINUOUS
10
2.5863266535433072
20
-5.3013013779527558
11
2.573673346456693
21
-5.3013013779527558
0
LINE
8
BLACK
6
CONTINUOUS
10
2.573673346456693
20
-5.3013013779527558
11
2.5610810236220471
21
-5.3000611417322832
0
LINE
8
BLACK
6
CONTINUOUS
10
2.5610810236220471
20
-5.3000611417322832
11
2.5486708661417321
21
-5.2975925984251964
0
LINE
8
BLACK
6
CONTINUOUS
10
2.5486708661417321
20
-5.2975925984251964
11
2.5365624409448819
21
-5.2939195669291337
0
LINE
8
BLACK
6
CONTINUOUS
10
2.5365624409448819
20
-5.2939195669291337
11
2.5248723228346455
21
-5.2890773622047247
0
LINE
8
BLACK
6
CONTINUOUS
10
2.5248723228346455
20
-5.2890773622047247
11
2.513713149606299
21
-5.2831126377952753
0
LINE
8
BLACK
6
CONTINUOUS
10
2.513713149606299
20
-5.2831126377952753
11
2.5031923228346455
21
-5.2760828740157475
0
LINE
8
BLACK
6
CONTINUOUS
10
2.5031923228346455
20
-5.2760828740157475
11
2.493411181102362
21
-5.268055708661417
0
LINE
8
BLACK
6
CONTINUOUS
10
2.493411181102362
20
-5.268055708661417
11
2.4844639763779526
21
-5.259108503937008
0
LINE
8
BLACK
6
CONTINUOUS
10
2.4844639763779526
20
-5.259108503937008
11
2.4764368110236221
21
-5.2493273622047241
0
LINE
8
BLACK
6
CONTINUOUS
10
2.4764368110236221
20
-5.2493273622047241
11
2.4694070472440943
21
-5.2388065354330706
0
LINE
8
BLACK
6
CONTINUOUS
10
2.4694070472440943
20
-5.2388065354330706
11
2.4634423228346458
21
-5.2276473622047241
0
LINE
8
BLACK
6
CONTINUOUS
10
2.4634423228346458
20
-5.2276473622047241
11
2.4586001181102364
21
-5.2159572440944881
0
LINE
8
BLACK
6
CONTINUOUS
10
2.4586001181102364
20
-5.2159572440944881
11
2.4549270866141732
21
-5.2038488188976375
0
LINE
8
BLACK
6
CONTINUOUS
10
2.4549270866141732
20
-5.2038488188976375
11
2.4524585433070865
21
-5.1914386614173225
0
LINE
8
BLACK
6
CONTINUOUS
10
2.4524585433070865
20
-5.1914386614173225
11
2.4512183070866143
21
-5.1788463385826766
0
LINE
8
BLACK
6
CONTINUOUS
10
2.4512183070866143
20
-5.1788463385826766
11
2.4512183070866143
21
-5.1661930314960625
0
LINE
8
BLACK
6
CONTINUOUS
10
2.4512183070866143
20
-5.1661930314960625
11
2.4512757086614174
21
-5.1656103937007876
0
LINE
8
BLACK
6
CONTINUOUS
10
2.4512757086614174
20
-5.1656103937007876
11
2.4524585433070865
21
-5.1536007086614175
0
LINE
8
BLACK
6
CONTINUOUS
10
2.4524585433070865
20
-5.1536007086614175
11
2.4549270866141732
21
-5.1411905511811025
0
LINE
8
BLACK
6
CONTINUOUS
10
2.4549270866141732
20
-5.1411905511811025
11
2.4586001181102364
21
-5.1290821259842518
0
LINE
8
BLACK
6
CONTINUOUS
10
2.4586001181102364
20
-5.1290821259842518
11
2.4634423228346458
21
-5.1173920078740158
0
LINE
8
BLACK
6
CONTINUOUS
10
2.4634423228346458
20
-5.1173920078740158
11
2.4694070472440943
21
-5.1062328346456693
0
LINE
8
BLACK
6
CONTINUOUS
10
2.4694070472440943
20
-5.1062328346456693
11
2.4764368110236221
21
-5.0957120078740159
0
LINE
8
BLACK
6
CONTINUOUS
10
2.4764368110236221
20
-5.0957120078740159
11
2.4844639763779526
21
-5.085930866141732
0
LINE
8
BLACK
6
CONTINUOUS
10
2.4844639763779526
20
-5.085930866141732
11
2.493411181102362
21
-5.0769836614173229
0
LINE
8
BLACK
6
CONTINUOUS
10
2.493411181102362
20
-5.0769836614173229
11
2.5031923228346455
21
-5.0689564960629916
0
LINE
8
BLACK
6
CONTINUOUS
10
2.5031923228346455
20
-5.0689564960629916
11
2.513713149606299
21
-5.0619267322834647
0
LINE
8
BLACK
6
CONTINUOUS
10
2.513713149606299
20
-5.0619267322834647
11
2.5248723228346455
21
-5.0559620078740153
0
LINE
8
BLACK
6
CONTINUOUS
10
2.5248723228346455
20
-5.0559620078740153
11
2.5365624409448819
21
-5.0511198031496063
0
LINE
8
BLACK
6
CONTINUOUS
10
2.5365624409448819
20
-5.0511198031496063
11
2.5486708661417321
21
-5.0474467716535436
0
LINE
8
BLACK
6
CONTINUOUS
10
2.5486708661417321
20
-5.0474467716535436
11
2.5610810236220471
21
-5.0449782283464568
0
LINE
8
BLACK
6
CONTINUOUS
10
2.5610810236220471
20
-5.0449782283464568
11
2.573673346456693
21
-5.0437379921259842
0
LINE
8
BLACK
6
CONTINUOUS
10
2.573673346456693
20
-5.0437379921259842
11
2.5863266535433072
21
-5.0437379921259842
0
LINE
8
BLACK
6
CONTINUOUS
10
2.5863266535433072
20
-5.0437379921259842
11
2.5989189763779525
21
-5.0449782283464568
0
LINE
8
BLACK
6
CONTINUOUS
10
2.4569685039370079
20
-5.1794289763779524
11
2.4585157086614173
21
-5.1931607086614173
0
LINE
8
BLACK
6
CONTINUOUS
10
2.4585157086614173
20
-5.1931607086614173
11
2.4615906299212598
21
-5.206632834645669
0
LINE
8
BLACK
6
CONTINUOUS
10
2.4615906299212598
20
-5.206632834645669
11
2.4661546062992126
21
-5.2196759842519684
0
LINE
8
BLACK
6
CONTINUOUS
10
2.4661546062992126
20
-5.2196759842519684
11
2.4721502755905513
21
-5.232126102362205
0
LINE
8
BLACK
6
CONTINUOUS
10
2.4721502755905513
20
-5.232126102362205
11
2.4795022047244095
21
-5.2438266535433069
0
LINE
8
BLACK
6
CONTINUOUS
10
2.4795022047244095
20
-5.2438266535433069
11
2.4881179921259844
21
-5.2546304724409447
0
LINE
8
BLACK
6
CONTINUOUS
10
2.4881179921259844
20
-5.2546304724409447
11
2.4978892125984253
21
-5.2644016929133857
0
LINE
8
BLACK
6
CONTINUOUS
10
2.4978892125984253
20
-5.2644016929133857
11
2.5086930314960632
21
-5.2730174803149605
0
LINE
8
BLACK
6
CONTINUOUS
10
2.5086930314960632
20
-5.2730174803149605
11
2.5203935826771655
21
-5.2803694094488192
0
LINE
8
BLACK
6
CONTINUOUS
10
2.5203935826771655
20
-5.2803694094488192
11
2.5328437007874016
21
-5.2863650787401575
0
LINE
8
BLACK
6
CONTINUOUS
10
2.5328437007874016
20
-5.2863650787401575
11
2.5458868503937007
21
-5.2909290551181103
0
LINE
8
BLACK
6
CONTINUOUS
10
2.5458868503937007
20
-5.2909290551181103
11
2.5593589763779527
21
-5.2940039763779527
0
LINE
8
BLACK
6
CONTINUOUS
10
2.5593589763779527
20
-5.2940039763779527
11
2.5730907086614172
21
-5.2955511811023621
0
LINE
8
BLACK
6
CONTINUOUS
10
2.5730907086614172
20
-5.2955511811023621
11
2.5869092913385825
21
-5.2955511811023621
0
LINE
8
BLACK
6
CONTINUOUS
10
2.5869092913385825
20
-5.2955511811023621
11
2.600641023622047
21
-5.2940039763779527
0
LINE
8
BLACK
6
CONTINUOUS
10
2.600641023622047
20
-5.2940039763779527
11
2.614113149606299
21
-5.2909290551181103
0
LINE
8
BLACK
6
CONTINUOUS
10
2.614113149606299
20
-5.2909290551181103
11
2.6271562992125985
21
-5.2863650787401575
0
LINE
8
BLACK
6
CONTINUOUS
10
2.6271562992125985
20
-5.2863650787401575
11
2.6396064173228346
21
-5.2803694094488192
0
LINE
8
BLACK
6
CONTINUOUS
10
2.6396064173228346
20
-5.2803694094488192
11
2.651306968503937
21
-5.2730174803149605
0
LINE
8
BLACK
6
CONTINUOUS
10
2.651306968503937
20
-5.2730174803149605
11
2.6621107874015748
21
-5.2644016929133857
0
LINE
8
BLACK
6
CONTINUOUS
10
2.6621107874015748
20
-5.2644016929133857
11
2.6718820078740158
21
-5.2546304724409447
0
LINE
8
BLACK
6
CONTINUOUS
10
2.6718820078740158
20
-5.2546304724409447
11
2.6804977952755906
21
-5.2438266535433069
0
LINE
8
BLACK
6
CONTINUOUS
10
2.6804977952755906
20
-5.2438266535433069
11
2.6878497244094488
21
-5.232126102362205
0
LINE
8
BLACK
6
CONTINUOUS
10
2.6878497244094488
20
-5.232126102362205
11
2.6938453937007871
21
-5.2196759842519684
0
LINE
8
BLACK
6
CONTINUOUS
10
2.6938453937007871
20
-5.2196759842519684
11
2.6984093700787399
21
-5.206632834645669
0
LINE
8
BLACK
6
CONTINUOUS
10
2.6984093700787399
20
-5.206632834645669
11
2.7014842913385828
21
-5.1931607086614173
0
LINE
8
BLACK
6
CONTINUOUS
10
2.7014842913385828
20
-5.1931607086614173
11
2.7030314960629922
21
-5.1794289763779524
0
LINE
8
BLACK
6
CONTINUOUS
10
2.7030314960629922
20
-5.1794289763779524
11
2.7030314960629922
21
-5.1656103937007876
0
LINE
8
BLACK
6
CONTINUOUS
10
2.7030314960629922
20
-5.1656103937007876
11
2.7014842913385828
21
-5.1518786614173226
0
LINE
8
BLACK
6
CONTINUOUS
10
2.7014842913385828
20
-5.1518786614173226
11
2.6984093700787399
21
-5.138406535433071
0
LINE
8
BLACK
6
CONTINUOUS
10
2.6984093700787399
20
-5.138406535433071
11
2.6938453937007871
21
-5.1253633858267715
0
LINE
8
BLACK
6
CONTINUOUS
10
2.6938453937007871
20
-5.1253633858267715
11
2.6878497244094488
21
-5.112913267716535
0
LINE
8
BLACK
6
CONTINUOUS
10
2.6878497244094488
20
-5.112913267716535
11
2.6804977952755906
21
-5.1012127165354331
0
LINE
8
BLACK
6
CONTINUOUS
10
2.6804977952755906
20
-5.1012127165354331
11
2.6718820078740158
21
-5.0904088976377952
0
LINE
8
BLACK
6
CONTINUOUS
10
2.6718820078740158
20
-5.0904088976377952
11
2.6621107874015748
21
-5.0806376771653543
0
LINE
8
BLACK
6
CONTINUOUS
10
2.6621107874015748
20
-5.0806376771653543
11
2.651306968503937
21
-5.0720218897637794
0
LINE
8
BLACK
6
CONTINUOUS
10
2.651306968503937
20
-5.0720218897637794
11
2.6396064173228346
21
-5.0646699606299208
0
LINE
8
BLACK
6
CONTINUOUS
10
2.6396064173228346
20
-5.0646699606299208
11
2.6271562992125985
21
-5.0586742913385825
0
LINE
8
BLACK
6
CONTINUOUS
10
2.6271562992125985
20
-5.0586742913385825
11
2.614113149606299
21
-5.0541103149606297
0
LINE
8
BLACK
6
CONTINUOUS
10
2.614113149606299
20
-5.0541103149606297
11
2.600641023622047
21
-5.0510353937007872
0
LINE
8
BLACK
6
CONTINUOUS
10
2.600641023622047
20
-5.0510353937007872
11
2.5869092913385825
21
-5.0494881889763779
0
LINE
8
BLACK
6
CONTINUOUS
10
2.5869092913385825
20
-5.0494881889763779
11
2.5730907086614172
21
-5.0494881889763779
0
LINE
8
BLACK
6
CONTINUOUS
10
2.5730907086614172
20
-5.0494881889763779
11
2.5593589763779527
21
-5.0510353937007872
0
LINE
8
BLACK
6
CONTINUOUS
10
2.5593589763779527
20
-5.0510353937007872
11
2.5458868503937007
21
-5.0541103149606297
0
LINE
8
BLACK
6
CONTINUOUS
10
2.5458868503937007
20
-5.0541103149606297
11
2.5328437007874016
21
-5.0586742913385825
0
LINE
8
BLACK
6
CONTINUOUS
10
2.5328437007874016
20
-5.0586742913385825
11
2.5203935826771655
21
-5.0646699606299208
0
LINE
8
BLACK
6
CONTINUOUS
10
2.5203935826771655
20
-5.0646699606299208
11
2.5086930314960632
21
-5.0720218897637794
0
LINE
8
BLACK
6
CONTINUOUS
10
2.5086930314960632
20
-5.0720218897637794
11
2.4978892125984253
21
-5.0806376771653543
0
LINE
8
BLACK
6
CONTINUOUS
10
2.4978892125984253
20
-5.0806376771653543
11
2.4881179921259844
21
-5.0904088976377952
0
LINE
8
BLACK
6
CONTINUOUS
10
2.4881179921259844
20
-5.0904088976377952
11
2.4795022047244095
21
-5.1012127165354331
0
LINE
8
BLACK
6
CONTINUOUS
10
2.4795022047244095
20
-5.1012127165354331
11
2.4721502755905513
21
-5.112913267716535
0
LINE
8
BLACK
6
CONTINUOUS
10
2.4721502755905513
20
-5.112913267716535
11
2.4661546062992126
21
-5.1253633858267715
0
LINE
8
BLACK
6
CONTINUOUS
10
2.4661546062992126
20
-5.1253633858267715
11
2.4615906299212598
21
-5.138406535433071
0
LINE
8
BLACK
6
CONTINUOUS
10
2.4615906299212598
20
-5.138406535433071
11
2.4585157086614173
21
-5.1518786614173226
0
LINE
8
BLACK
6
CONTINUOUS
10
2.4585157086614173
20
-5.1518786614173226
11
2.4569685039370079
21
-5.1656103937007876
0
LINE
8
BLACK
6
CONTINUOUS
10
2.4569685039370079
20
-5.1656103937007876
11
2.4569685039370079
21
-5.1794289763779524
0
CIRCLE
8
BLACK
10
6.1641338582677161
20
-5.1218503937007869
40
0.0236220472440945
0
CIRCLE
8
BLACK
10
6.1641338582677161
20
-4.7281496062992128
40
0.0236220472440945
0
CIRCLE
8
BLACK
10
6.0657086614173226
20
-5.1218503937007869
40
0.0236220472440945
0
CIRCLE
8
BLACK
10
6.0657086614173226
20
-4.7281496062992128
40
0.0236220472440945
0
CIRCLE
8
BLACK
10
5.8688582677165355
20
-4.9249999999999998
40
0.0236220472440945
0
LINE
8
BLACK
6
CONTINUOUS
10
5.8846933070866143
20
-5.1062370866141729
11
5.8886642913385829
21
-5.1073011023622046
0
LINE
8
BLACK
6
CONTINUOUS
10
5.8886642913385829
20
-5.1073011023622046
11
5.8922246062992123
21
-5.1093566535433066
0
LINE
8
BLACK
6
CONTINUOUS
10
5.8922246062992123
20
-5.1093566535433066
11
5.8951315354330704
21
-5.1122635826771656
0
LINE
8
BLACK
6
CONTINUOUS
10
5.8951315354330704
20
-5.1122635826771656
11
5.8971870866141733
21
-5.115823897637795
0
LINE
8
BLACK
6
CONTINUOUS
10
5.8971870866141733
20
-5.115823897637795
11
5.8982511023622042
21
-5.1197948818897636
0
LINE
8
BLACK
6
CONTINUOUS
10
5.8982511023622042
20
-5.1197948818897636
11
5.8982511023622042
21
-5.123905905511811
0
LINE
8
BLACK
6
CONTINUOUS
10
5.8982511023622042
20
-5.123905905511811
11
5.8971870866141733
21
-5.1278768897637796
0
LINE
8
BLACK
6
CONTINUOUS
10
5.8971870866141733
20
-5.1278768897637796
11
5.8951315354330704
21
-5.131437204724409
0
LINE
8
BLACK
6
CONTINUOUS
10
5.8951315354330704
20
-5.131437204724409
11
5.8922246062992123
21
-5.1343441338582672
0
LINE
8
BLACK
6
CONTINUOUS
10
5.8922246062992123
20
-5.1343441338582672
11
5.8886642913385829
21
-5.1363996850393701
0
LINE
8
BLACK
6
CONTINUOUS
10
5.8886642913385829
20
-5.1363996850393701
11
5.8846933070866143
21
-5.1374637007874018
0
LINE
8
BLACK
6
CONTINUOUS
10
5.8846933070866143
20
-5.1374637007874018
11
5.8826377952755902
21
-5.1375984251968498
0
LINE
8
BLACK
6
CONTINUOUS
10
5.8826377952755902
20
-5.1375984251968498
11
5.85507874015748
21
-5.1375984251968498
0
LINE
8
BLACK
6
CONTINUOUS
10
5.85507874015748
20
-5.1375984251968498
11
5.8530232283464567
21
-5.1374637007874018
0
LINE
8
BLACK
6
CONTINUOUS
10
5.8530232283464567
20
-5.1374637007874018
11
5.8490522440944881
21
-5.1363996850393701
0
LINE
8
BLACK
6
CONTINUOUS
10
5.8490522440944881
20
-5.1363996850393701
11
5.8454919291338578
21
-5.1343441338582672
0
LINE
8
BLACK
6
CONTINUOUS
10
5.8454919291338578
20
-5.1343441338582672
11
5.8425849999999997
21
-5.131437204724409
0
LINE
8
BLACK
6
CONTINUOUS
10
5.8425849999999997
20
-5.131437204724409
11
5.8405294488188977
21
-5.1278768897637796
0
LINE
8
BLACK
6
CONTINUOUS
10
5.8405294488188977
20
-5.1278768897637796
11
5.839465433070866
21
-5.123905905511811
0
LINE
8
BLACK
6
CONTINUOUS
10
5.839465433070866
20
-5.123905905511811
11
5.839465433070866
21
-5.1197948818897636
0
LINE
8
BLACK
6
CONTINUOUS
10
5.839465433070866
20
-5.1197948818897636
11
5.8405294488188977
21
-5.115823897637795
0
LINE
8
BLACK
6
CONTINUOUS
10
5.8405294488188977
20
-5.115823897637795
11
5.8425849999999997
21
-5.1122635826771656
0
LINE
8
BLACK
6
CONTINUOUS
10
5.8425849999999997
20
-5.1122635826771656
11
5.8454919291338578
21
-5.1093566535433066
0
LINE
8
BLACK
6
CONTINUOUS
10
5.8454919291338578
20
-5.1093566535433066
11
5.8490522440944881
21
-5.1073011023622046
0
LINE
8
BLACK
6
CONTINUOUS
10
5.8490522440944881
20
-5.1073011023622046
11
5.8530232283464567
21
-5.1062370866141729
0
LINE
8
BLACK
6
CONTINUOUS
10
5.8530232283464567
20
-5.1062370866141729
11
5.85507874015748
21
-5.1061023622047239
0
LINE
8
BLACK
6
CONTINUOUS
10
5.85507874015748
20
-5.1061023622047239
11
5.8826377952755902
21
-5.1061023622047239
0
LINE
8
BLACK
6
CONTINUOUS
10
5.8826377952755902
20
-5.1061023622047239
11
5.8846933070866143
21
-5.1062370866141729
0
LINE
8
BLACK
6
CONTINUOUS
10
5.8846933070866143
20
-5.0078118897637793
11
5.8886642913385829
21
-5.0088759055118111
0
LINE
8
BLACK
6
CONTINUOUS
10
5.8886642913385829
20
-5.0088759055118111
11
5.8922246062992123
21
-5.0109314566929131
0
LINE
8
BLACK
6
CONTINUOUS
10
5.8922246062992123
20
-5.0109314566929131
11
5.8951315354330704
21
-5.0138383858267712
0
LINE
8
BLACK
6
CONTINUOUS
10
5.8951315354330704
20
-5.0138383858267712
11
5.8971870866141733
21
-5.0173987007874015
0
LINE
8
BLACK
6
CONTINUOUS
10
5.8971870866141733
20
-5.0173987007874015
11
5.8982511023622042
21
-5.0213696850393701
0
LINE
8
BLACK
6
CONTINUOUS
10
5.8982511023622042
20
-5.0213696850393701
11
5.8982511023622042
21
-5.0254807086614175
0
LINE
8
BLACK
6
CONTINUOUS
10
5.8982511023622042
20
-5.0254807086614175
11
5.8971870866141733
21
-5.0294516929133861
0
LINE
8
BLACK
6
CONTINUOUS
10
5.8971870866141733
20
-5.0294516929133861
11
5.8951315354330704
21
-5.0330120078740155
0
LINE
8
BLACK
6
CONTINUOUS
10
5.8951315354330704
20
-5.0330120078740155
11
5.8922246062992123
21
-5.0359189370078736
0
LINE
8
BLACK
6
CONTINUOUS
10
5.8922246062992123
20
-5.0359189370078736
11
5.8886642913385829
21
-5.0379744881889765
0
LINE
8
BLACK
6
CONTINUOUS
10
5.8886642913385829
20
-5.0379744881889765
11
5.8846933070866143
21
-5.0390385039370074
0
LINE
8
BLACK
6
CONTINUOUS
10
5.8846933070866143
20
-5.0390385039370074
11
5.8826377952755902
21
-5.0391732283464563
0
LINE
8
BLACK
6
CONTINUOUS
10
5.8826377952755902
20
-5.0391732283464563
11
5.85507874015748
21
-5.0391732283464563
0
LINE
8
BLACK
6
CONTINUOUS
10
5.85507874015748
20
-5.0391732283464563
11
5.8530232283464567
21
-5.0390385039370074
0
LINE
8
BLACK
6
CONTINUOUS
10
5.8530232283464567
20
-5.0390385039370074
11
5.8490522440944881
21
-5.0379744881889765
0
LINE
8
BLACK
6
CONTINUOUS
10
5.8490522440944881
20
-5.0379744881889765
11
5.8454919291338578
21
-5.0359189370078736
0
LINE
8
BLACK
6
CONTINUOUS
10
5.8454919291338578
20
-5.0359189370078736
11
5.8425849999999997
21
-5.0330120078740155
0
LINE
8
BLACK
6
CONTINUOUS
10
5.8425849999999997
20
-5.0330120078740155
11
5.8405294488188977
21
-5.0294516929133861
0
LINE
8
BLACK
6
CONTINUOUS
10
5.8405294488188977
20
-5.0294516929133861
11
5.839465433070866
21
-5.0254807086614175
0
LINE
8
BLACK
6
CONTINUOUS
10
5.839465433070866
20
-5.0254807086614175
11
5.839465433070866
21
-5.0213696850393701
0
LINE
8
BLACK
6
CONTINUOUS
10
5.839465433070866
20
-5.0213696850393701
11
5.8405294488188977
21
-5.0173987007874015
0
LINE
8
BLACK
6
CONTINUOUS
10
5.8405294488188977
20
-5.0173987007874015
11
5.8425849999999997
21
-5.0138383858267712
0
LINE
8
BLACK
6
CONTINUOUS
10
5.8425849999999997
20
-5.0138383858267712
11
5.8454919291338578
21
-5.0109314566929131
0
LINE
8
BLACK
6
CONTINUOUS
10
5.8454919291338578
20
-5.0109314566929131
11
5.8490522440944881
21
-5.0088759055118111
0
LINE
8
BLACK
6
CONTINUOUS
10
5.8490522440944881
20
-5.0088759055118111
11
5.8530232283464567
21
-5.0078118897637793
0
LINE
8
BLACK
6
CONTINUOUS
10
5.8530232283464567
20
-5.0078118897637793
11
5.85507874015748
21
-5.0076771653543304
0
LINE
8
BLACK
6
CONTINUOUS
10
5.85507874015748
20
-5.0076771653543304
11
5.8826377952755902
21
-5.0076771653543304
0
LINE
8
BLACK
6
CONTINUOUS
10
5.8826377952755902
20
-5.0076771653543304
11
5.8846933070866143
21
-5.0078118897637793
0
LINE
8
BLACK
6
CONTINUOUS
10
6.0500953543307086
20
-4.909164960629921
11
6.0511593700787403
21
-4.9051939763779524
0
LINE
8
BLACK
6
CONTINUOUS
10
6.0511593700787403
20
-4.9051939763779524
11
6.0532149212598423
21
-4.901633661417323
0
LINE
8
BLACK
6
CONTINUOUS
10
6.0532149212598423
20
-4.901633661417323
11
6.0561218503937004
21
-4.8987267322834649
0
LINE
8
BLACK
6
CONTINUOUS
10
6.0561218503937004
20
-4.8987267322834649
11
6.0596821653543307
21
-4.896671181102362
0
LINE
8
BLACK
6
CONTINUOUS
10
6.0596821653543307
20
-4.896671181102362
11
6.0636531496062993
21
-4.8956071653543303
0
LINE
8
BLACK
6
CONTINUOUS
10
6.0636531496062993
20
-4.8956071653543303
11
6.0677641732283467
21
-4.8956071653543303
0
LINE
8
BLACK
6
CONTINUOUS
10
6.0677641732283467
20
-4.8956071653543303
11
6.0717351574803144
21
-4.896671181102362
0
LINE
8
BLACK
6
CONTINUOUS
10
6.0717351574803144
20
-4.896671181102362
11
6.0752954724409447
21
-4.8987267322834649
0
LINE
8
BLACK
6
CONTINUOUS
10
6.0752954724409447
20
-4.8987267322834649
11
6.0782024015748028
21
-4.901633661417323
0
LINE
8
BLACK
6
CONTINUOUS
10
6.0782024015748028
20
-4.901633661417323
11
6.0802579527559057
21
-4.9051939763779524
0
LINE
8
BLACK
6
CONTINUOUS
10
6.0802579527559057
20
-4.9051939763779524
11
6.0813219685039366
21
-4.909164960629921
0
LINE
8
BLACK
6
CONTINUOUS
10
6.0813219685039366
20
-4.909164960629921
11
6.0814566929133855
21
-4.9112204724409452
0
LINE
8
BLACK
6
CONTINUOUS
10
6.0814566929133855
20
-4.9112204724409452
11
6.0814566929133855
21
-4.9387795275590554
0
LINE
8
BLACK
6
CONTINUOUS
10
6.0814566929133855
20
-4.9387795275590554
11
6.0813219685039366
21
-4.9408350393700786
0
LINE
8
BLACK
6
CONTINUOUS
10
6.0813219685039366
20
-4.9408350393700786
11
6.0802579527559057
21
-4.9448060236220472
0
LINE
8
BLACK
6
CONTINUOUS
10
6.0802579527559057
20
-4.9448060236220472
11
6.0782024015748028
21
-4.9483663385826775
0
LINE
8
BLACK
6
CONTINUOUS
10
6.0782024015748028
20
-4.9483663385826775
11
6.0752954724409447
21
-4.9512732677165356
0
LINE
8
BLACK
6
CONTINUOUS
10
6.0752954724409447
20
-4.9512732677165356
11
6.0717351574803144
21
-4.9533288188976377
0
LINE
8
BLACK
6
CONTINUOUS
10
6.0717351574803144
20
-4.9533288188976377
11
6.0677641732283467
21
-4.9543928346456694
0
LINE
8
BLACK
6
CONTINUOUS
10
6.0677641732283467
20
-4.9543928346456694
11
6.0636531496062993
21
-4.9543928346456694
0
LINE
8
BLACK
6
CONTINUOUS
10
6.0636531496062993
20
-4.9543928346456694
11
6.0596821653543307
21
-4.9533288188976377
0
LINE
8
BLACK
6
CONTINUOUS
10
6.0596821653543307
20
-4.9533288188976377
11
6.0561218503937004
21
-4.9512732677165356
0
LINE
8
BLACK
6
CONTINUOUS
10
6.0561218503937004
20
-4.9512732677165356
11
6.0532149212598423
21
-4.9483663385826775
0
LINE
8
BLACK
6
CONTINUOUS
10
6.0532149212598423
20
-4.9483663385826775
11
6.0511593700787403
21
-4.9448060236220472
0
LINE
8
BLACK
6
CONTINUOUS
10
6.0511593700787403
20
-4.9448060236220472
11
6.0500953543307086
21
-4.9408350393700786
0
LINE
8
BLACK
6
CONTINUOUS
10
6.0500953543307086
20
-4.9408350393700786
11
6.0499606299212596
21
-4.9387795275590554
0
LINE
8
BLACK
6
CONTINUOUS
10
6.0499606299212596
20
-4.9387795275590554
11
6.0499606299212596
21
-4.9112204724409452
0
LINE
8
BLACK
6
CONTINUOUS
10
6.0499606299212596
20
-4.9112204724409452
11
6.0500953543307086
21
-4.909164960629921
0
LINE
8
BLACK
6
CONTINUOUS
10
5.8846933070866143
20
-4.7125362992125988
11
5.8886642913385829
21
-4.7136003149606296
0
LINE
8
BLACK
6
CONTINUOUS
10
5.8886642913385829
20
-4.7136003149606296
11
5.8922246062992123
21
-4.7156558661417325
0
LINE
8
BLACK
6
CONTINUOUS
10
5.8922246062992123
20
-4.7156558661417325
11
5.8951315354330704
21
-4.7185627952755906
0
LINE
8
BLACK
6
CONTINUOUS
10
5.8951315354330704
20
-4.7185627952755906
11
5.8971870866141733
21
-4.72212311023622
0
LINE
8
BLACK
6
CONTINUOUS
10
5.8971870866141733
20
-4.72212311023622
11
5.8982511023622042
21
-4.7260940944881886
0
LINE
8
BLACK
6
CONTINUOUS
10
5.8982511023622042
20
-4.7260940944881886
11
5.8982511023622042
21
-4.730205118110236
0
LINE
8
BLACK
6
CONTINUOUS
10
5.8982511023622042
20
-4.730205118110236
11
5.8971870866141733
21
-4.7341761023622047
0
LINE
8
BLACK
6
CONTINUOUS
10
5.8971870866141733
20
-4.7341761023622047
11
5.8951315354330704
21
-4.7377364173228349
0
LINE
8
BLACK
6
CONTINUOUS
10
5.8951315354330704
20
-4.7377364173228349
11
5.8922246062992123
21
-4.7406433464566931
0
LINE
8
BLACK
6
CONTINUOUS
10
5.8922246062992123
20
-4.7406433464566931
11
5.8886642913385829
21
-4.7426988976377951
0
LINE
8
BLACK
6
CONTINUOUS
10
5.8886642913385829
20
-4.7426988976377951
11
5.8846933070866143
21
-4.7437629133858268
0
LINE
8
BLACK
6
CONTINUOUS
10
5.8846933070866143
20
-4.7437629133858268
11
5.8826377952755902
21
-4.7438976377952757
0
LINE
8
BLACK
6
CONTINUOUS
10
5.8826377952755902
20
-4.7438976377952757
11
5.85507874015748
21
-4.7438976377952757
0
LINE
8
BLACK
6
CONTINUOUS
10
5.85507874015748
20
-4.7438976377952757
11
5.8530232283464567
21
-4.7437629133858268
0
LINE
8
BLACK
6
CONTINUOUS
10
5.8530232283464567
20
-4.7437629133858268
11
5.8490522440944881
21
-4.7426988976377951
0
LINE
8
BLACK
6
CONTINUOUS
10
5.8490522440944881
20
-4.7426988976377951
11
5.8454919291338578
21
-4.7406433464566931
0
LINE
8
BLACK
6
CONTINUOUS
10
5.8454919291338578
20
-4.7406433464566931
11
5.8425849999999997
21
-4.7377364173228349
0
LINE
8
BLACK
6
CONTINUOUS
10
5.8425849999999997
20
-4.7377364173228349
11
5.8405294488188977
21
-4.7341761023622047
0
LINE
8
BLACK
6
CONTINUOUS
10
5.8405294488188977
20
-4.7341761023622047
11
5.839465433070866
21
-4.730205118110236
0
LINE
8
BLACK
6
CONTINUOUS
10
5.839465433070866
20
-4.730205118110236
11
5.839465433070866
21
-4.7260940944881886
0
LINE
8
BLACK
6
CONTINUOUS
10
5.839465433070866
20
-4.7260940944881886
11
5.8405294488188977
21
-4.72212311023622
0
LINE
8
BLACK
6
CONTINUOUS
10
5.8405294488188977
20
-4.72212311023622
11
5.8425849999999997
21
-4.7185627952755906
0
LINE
8
BLACK
6
CONTINUOUS
10
5.8425849999999997
20
-4.7185627952755906
11
5.8454919291338578
21
-4.7156558661417325
0
LINE
8
BLACK
6
CONTINUOUS
10
5.8454919291338578
20
-4.7156558661417325
11
5.8490522440944881
21
-4.7136003149606296
0
LINE
8
BLACK
6
CONTINUOUS
10
5.8490522440944881
20
-4.7136003149606296
11
5.8530232283464567
21
-4.7125362992125988
0
LINE
8
BLACK
6
CONTINUOUS
10
5.8530232283464567
20
-4.7125362992125988
11
5.85507874015748
21
-4.7124015748031498
0
LINE
8
BLACK
6
CONTINUOUS
10
5.85507874015748
20
-4.7124015748031498
11
5.8826377952755902
21
-4.7124015748031498
0
LINE
8
BLACK
6
CONTINUOUS
10
5.8826377952755902
20
-4.7124015748031498
11
5.8846933070866143
21
-4.7125362992125988
0
LINE
8
BLACK
6
CONTINUOUS
10
5.8846933070866143
20
-4.8109614960629923
11
5.8886642913385829
21
-4.8120255118110231
0
LINE
8
BLACK
6
CONTINUOUS
10
5.8886642913385829
20
-4.8120255118110231
11
5.8922246062992123
21
-4.814081062992126
0
LINE
8
BLACK
6
CONTINUOUS
10
5.8922246062992123
20
-4.814081062992126
11
5.8951315354330704
21
-4.8169879921259842
0
LINE
8
BLACK
6
CONTINUOUS
10
5.8951315354330704
20
-4.8169879921259842
11
5.8971870866141733
21
-4.8205483070866144
0
LINE
8
BLACK
6
CONTINUOUS
10
5.8971870866141733
20
-4.8205483070866144
11
5.8982511023622042
21
-4.8245192913385821
0
LINE
8
BLACK
6
CONTINUOUS
10
5.8982511023622042
20
-4.8245192913385821
11
5.8982511023622042
21
-4.8286303149606296
0
LINE
8
BLACK
6
CONTINUOUS
10
5.8982511023622042
20
-4.8286303149606296
11
5.8971870866141733
21
-4.8326012992125982
0
LINE
8
BLACK
6
CONTINUOUS
10
5.8971870866141733
20
-4.8326012992125982
11
5.8951315354330704
21
-4.8361616141732284
0
LINE
8
BLACK
6
CONTINUOUS
10
5.8951315354330704
20
-4.8361616141732284
11
5.8922246062992123
21
-4.8390685433070866
0
LINE
8
BLACK
6
CONTINUOUS
10
5.8922246062992123
20
-4.8390685433070866
11
5.8886642913385829
21
-4.8411240944881886
0
LINE
8
BLACK
6
CONTINUOUS
10
5.8886642913385829
20
-4.8411240944881886
11
5.8846933070866143
21
-4.8421881102362203
0
LINE
8
BLACK
6
CONTINUOUS
10
5.8846933070866143
20
-4.8421881102362203
11
5.8826377952755902
21
-4.8423228346456693
0
LINE
8
BLACK
6
CONTINUOUS
10
5.8826377952755902
20
-4.8423228346456693
11
5.85507874015748
21
-4.8423228346456693
0
LINE
8
BLACK
6
CONTINUOUS
10
5.85507874015748
20
-4.8423228346456693
11
5.8530232283464567
21
-4.8421881102362203
0
LINE
8
BLACK
6
CONTINUOUS
10
5.8530232283464567
20
-4.8421881102362203
11
5.8490522440944881
21
-4.8411240944881886
0
LINE
8
BLACK
6
CONTINUOUS
10
5.8490522440944881
20
-4.8411240944881886
11
5.8454919291338578
21
-4.8390685433070866
0
LINE
8
BLACK
6
CONTINUOUS
10
5.8454919291338578
20
-4.8390685433070866
11
5.8425849999999997
21
-4.8361616141732284
0
LINE
8
BLACK
6
CONTINUOUS
10
5.8425849999999997
20
-4.8361616141732284
11
5.8405294488188977
21
-4.8326012992125982
0
LINE
8
BLACK
6
CONTINUOUS
10
5.8405294488188977
20
-4.8326012992125982
11
5.839465433070866
21
-4.8286303149606296
0
LINE
8
BLACK
6
CONTINUOUS
10
5.839465433070866
20
-4.8286303149606296
11
5.839465433070866
21
-4.8245192913385821
0
LINE
8
BLACK
6
CONTINUOUS
10
5.839465433070866
20
-4.8245192913385821
11
5.8405294488188977
21
-4.8205483070866144
0
LINE
8
BLACK
6
CONTINUOUS
10
5.8405294488188977
20
-4.8205483070866144
11
5.8425849999999997
21
-4.8169879921259842
0
LINE
8
BLACK
6
CONTINUOUS
10
5.8425849999999997
20
-4.8169879921259842
11
5.8454919291338578
21
-4.814081062992126
0
LINE
8
BLACK
6
CONTINUOUS
10
5.8454919291338578
20
-4.814081062992126
11
5.8490522440944881
21
-4.8120255118110231
0
LINE
8
BLACK
6
CONTINUOUS
10
5.8490522440944881
20
-4.8120255118110231
11
5.8530232283464567
21
-4.8109614960629923
0
LINE
8
BLACK
6
CONTINUOUS
10
5.8530232283464567
20
-4.8109614960629923
11
5.85507874015748
21
-4.8108267716535433
0
LINE
8
BLACK
6
CONTINUOUS
10
5.85507874015748
20
-4.8108267716535433
11
5.8826377952755902
21
-4.8108267716535433
0
LINE
8
BLACK
6
CONTINUOUS
10
5.8826377952755902
20
-4.8108267716535433
11
5.8846933070866143
21
-4.8109614960629923
0
CIRCLE
8
BLACK
10
2.5590551181102361
20
-6.148031496062992
40
0.0196850393700787
0
CIRCLE
8
BLACK
10
2.459055118110236
20
-6.148031496062992
40
0.0196850393700787
0
CIRCLE
8
BLACK
10
2.5590551181102361
20
-6.0480314960629924
40
0.0196850393700787
0
CIRCLE
8
BLACK
10
2.459055118110236
20
-6.0480314960629924
40
0.0196850393700787
0
CIRCLE
8
BLACK
10
2.5590551181102361
20
-5.9480314960629919
40
0.0196850393700787
0
CIRCLE
8
BLACK
10
2.459055118110236
20
-5.9480314960629919
40
0.0196850393700787
0
CIRCLE
8
BLACK
10
2.5590551181102361
20
-5.8480314960629922
40
0.0196850393700787
0
CIRCLE
8
BLACK
10
2.459055118110236
20
-5.8480314960629922
40
0.0196850393700787
0
CIRCLE
8
BLACK
10
2.5590551181102361
20
-5.7480314960629917
40
0.0196850393700787
0
CIRCLE
8
BLACK
10
2.459055118110236
20
-5.7480314960629917
40
0.0196850393700787
0
CIRCLE
8
BLACK
10
2.5590551181102361
20
-5.648031496062992
40
0.0196850393700787
0
CIRCLE
8
BLACK
10
2.459055118110236
20
-5.648031496062992
40
0.0196850393700787
0
CIRCLE
8
BLACK
10
2.5800000000000001
20
-5.1725196850393695
40
0.062992125984252
0
CIRCLE
8
BLACK
10
2.4409448818897639
20
-6.4173228346456694
40
0.0196850393700787
0
CIRCLE
8
BLACK
10
2.5409448818897635
20
-6.4173228346456694
40
0.0196850393700787
0
CIRCLE
8
BLACK
10
2.6409448818897636
20
-6.4173228346456694
40
0.0196850393700787
0
CIRCLE
8
BLACK
10
2.7409448818897637
20
-6.4173228346456694
40
0.0196850393700787
0
CIRCLE
8
BLACK
10
2.8409448818897638
20
-6.4173228346456694
40
0.0196850393700787
0
CIRCLE
8
BLACK
10
2.9409448818897639
20
-6.4173228346456694
40
0.0196850393700787
0
CIRCLE
8
BLACK
10
3.0409448818897635
20
-6.4173228346456694
40
0.0196850393700787
0
CIRCLE
8
BLACK
10
3.1409448818897636
20
-6.4173228346456694
40
0.0196850393700787
0
CIRCLE
8
BLACK
10
3.2409448818897637
20
-6.4173228346456694
40
0.0196850393700787
0
CIRCLE
8
BLACK
10
3.3409448818897638
20
-6.4173228346456694
40
0.0196850393700787
0
CIRCLE
8
BLACK
10
3.4409448818897639
20
-6.4173228346456694
40
0.0196850393700787
0
CIRCLE
8
BLACK
10
3.5409448818897635
20
-6.4173228346456694
40
0.0196850393700787
0
CIRCLE
8
BLACK
10
3.6409448818897636
20
-6.4173228346456694
40
0.0196850393700787
0
CIRCLE
8
BLACK
10
3.7409448818897637
20
-6.4173228346456694
40
0.0196850393700787
0
CIRCLE
8
BLACK
10
3.8409448818897638
20
-6.4173228346456694
40
0.0196850393700787
0
CIRCLE
8
BLACK
10
3.9409448818897639
20
-6.4173228346456694
40
0.0196850393700787
0
CIRCLE
8
BLACK
10
4.0409448818897635
20
-6.4173228346456694
40
0.0196850393700787
0
CIRCLE
8
BLACK
10
4.1409448818897641
20
-6.4173228346456694
40
0.0196850393700787
0
CIRCLE
8
BLACK
10
4.2409448818897637
20
-6.4173228346456694
40
0.0196850393700787
0
CIRCLE
8
BLACK
10
4.3409448818897634
20
-6.4173228346456694
40
0.0196850393700787
0
CIRCLE
8
BLACK
10
4.4409448818897639
20
-6.4173228346456694
40
0.0196850393700787
0
CIRCLE
8
BLACK
10
4.5409448818897635
20
-6.4173228346456694
40
0.0196850393700787
0
CIRCLE
8
BLACK
10
4.6409448818897641
20
-6.4173228346456694
40
0.0196850393700787
0
CIRCLE
8
BLACK
10
4.7409448818897637
20
-6.4173228346456694
40
0.0196850393700787
0
CIRCLE
8
BLACK
10
4.8409448818897634
20
-6.4173228346456694
40
0.0196850393700787
0
CIRCLE
8
BLACK
10
4.9409448818897639
20
-6.4173228346456694
40
0.0196850393700787
0
CIRCLE
8
BLACK
10
5.0409448818897635
20
-6.4173228346456694
40
0.0196850393700787
0
CIRCLE
8
BLACK
10
5.1409448818897641
20
-6.4173228346456694
40
0.0196850393700787
0
CIRCLE
8
BLACK
10
5.2409448818897637
20
-6.4173228346456694
40
0.0196850393700787
0
CIRCLE
8
BLACK
10
5.3409448818897634
20
-6.4173228346456694
40
0.0196850393700787
0
CIRCLE
8
BLACK
10
5.4409448818897639
20
-6.4173228346456694
40
0.0196850393700787
0
CIRCLE
8
BLACK
10
5.5409448818897635
20
-6.4173228346456694
40
0.0196850393700787
0
CIRCLE
8
BLACK
10
5.6409448818897641
20
-6.4173228346456694
40
0.0196850393700787
0
CIRCLE
8
BLACK
10
5.7409448818897637
20
-6.4173228346456694
40
0.0196850393700787
0
CIRCLE
8
BLACK
10
5.8409448818897634
20
-6.4173228346456694
40
0.0196850393700787
0
CIRCLE
8
BLACK
10
5.9409448818897639
20
-6.4173228346456694
40
0.0196850393700787
0
CIRCLE
8
BLACK
10
6.0409448818897635
20
-6.4173228346456694
40
0.0196850393700787
0
CIRCLE
8
BLACK
10
6.1409448818897641
20
-6.4173228346456694
40
0.0196850393700787
0
CIRCLE
8
BLACK
10
6.2409448818897637
20
-6.4173228346456694
40
0.0196850393700787
  0
ENDSEC
  0
EOF
