<?xml version="1.0" standalone="no"?>
 <!DOCTYPE svg PUBLIC "-//W3C//DTD SVG 1.1//EN" 
 "http://www.w3.org/Graphics/SVG/1.1/DTD/svg11.dtd"> 
<svg
  xmlns:svg="http://www.w3.org/2000/svg"
  xmlns="http://www.w3.org/2000/svg"
  xmlns:xlink="http://www.w3.org/1999/xlink"
  version="1.1"
  width="297.0022mm" height="210.0072mm" viewBox="0.0000 0.0000 297.0022 210.0072">
<title>SVG Image created as rcbus-opl3-B_Silkscreen2.svg date 2025/10/07 23:47:18 </title>
  <desc>Image generated by PCBNEW </desc>
<g style="fill:#000000; fill-opacity:1.0000;stroke:#000000; stroke-opacity:1.0000;
stroke-linecap:round; stroke-linejoin:round;"
 transform="translate(0 0) scale(1 1)">
<path style="fill:#000000; fill-opacity:1.0000; stroke:none;fill-rule:evenodd;"
d="M 136.7700,161.3725
136.7700,159.7718
137.0815,159.7718
137.0815,160.3600
137.1479,160.3137
137.2397,160.2680
137.3394,160.2366
137.4399,160.2262
137.5241,160.2326
137.5910,160.2499
137.6439,160.2766
137.6896,160.3144
137.7260,160.3609
137.7536,160.4174
137.7784,160.5120
137.7873,160.6262
137.7873,161.3725
137.4759,161.3725
137.4759,160.6661
137.4703,160.6158
137.4550,160.5770
137.4303,160.5456
137.3983,160.5235
137.3605,160.5105
137.3155,160.5059
137.2297,160.5170
137.1519,160.5468
137.0815,160.5890
137.0815,161.3725
Z" /> 
<path style="fill:#000000; fill-opacity:1.0000; stroke:none;fill-rule:evenodd;"
d="M 138.4485,161.3725
138.3621,161.3677
138.2927,161.3546
138.2373,161.3348
138.1886,161.3042
138.1501,161.2628
138.1208,161.2090
138.1025,161.1491
138.0910,161.0713
138.0882,160.9716
138.0986,160.4940
137.9226,160.4940
137.9226,160.2946
138.1098,160.2451
138.1511,159.9291
138.3966,159.9291
138.3966,160.2451
138.6627,160.2451
138.6627,160.4940
138.3966,160.4940
138.3966,160.9700
138.4053,161.0450
138.4162,161.0723
138.4300,161.0921
138.4665,161.1180
138.5095,161.1282
138.6515,161.1423
138.6515,161.3725
Z" /> 
<path style="fill:#000000; fill-opacity:1.0000; stroke:none;fill-rule:evenodd;"
d="M 139.2647,161.3725
139.1783,161.3677
139.1089,161.3546
139.0536,161.3348
139.0049,161.3042
138.9663,161.2628
138.9370,161.2090
138.9188,161.1491
138.9073,161.0713
138.9045,160.9716
138.9148,160.4940
138.7388,160.4940
138.7388,160.2946
138.9260,160.2451
138.9673,159.9291
139.2129,159.9291
139.2129,160.2451
139.4790,160.2451
139.4790,160.4940
139.2129,160.4940
139.2129,160.9700
139.2216,161.0450
139.2325,161.0723
139.2462,161.0921
139.2828,161.1180
139.3257,161.1282
139.4678,161.1423
139.4678,161.3725
Z" /> 
<path style="fill:#000000; fill-opacity:1.0000; stroke:none;fill-rule:evenodd;"
d="M 140.2129,160.2324
140.1550,160.2457
140.1003,160.2662
140.0507,160.2918
139.9626,160.3525
139.9120,160.2451
139.6511,160.2451
139.6511,161.8702
139.9626,161.8702
139.9626,161.3142
140.0331,161.3451
140.1130,161.3688
140.1954,161.3834
140.2753,161.3882
140.3754,161.3796
140.4539,161.3559
140.5155,161.3193
140.5665,161.2683
140.6077,161.2031
140.6389,161.1208
140.6655,160.9843
140.6754,160.8097
140.3640,160.8097
140.3563,160.9312
140.3373,161.0084
140.3046,161.0696
140.2671,161.1048
140.2220,161.1249
140.1740,161.1316
140.1175,161.1278
140.0607,161.1164
140.0069,161.0983
139.9626,161.0764
139.9626,160.5412
140.0552,160.4988
140.1118,160.4836
140.1755,160.4784
140.2276,160.4859
140.2726,160.5082
140.3086,160.5460
140.3394,160.6108
140.3570,160.6906
140.3640,160.8097
140.6754,160.8097
140.6694,160.6782
140.6524,160.5668
140.6220,160.4646
140.5806,160.3833
140.5246,160.3163
140.4556,160.2678
140.3746,160.2384
140.2753,160.2279
Z" /> 
<path style="fill:#000000; fill-opacity:1.0000; stroke:none;fill-rule:evenodd;"
d="M 141.2896,161.3851
141.1755,161.3817
141.0534,161.3725
140.9408,161.3567
140.8536,161.3341
140.8536,161.1516
141.3526,161.1516
141.4248,161.1441
141.4503,161.1331
141.4672,161.1167
141.4772,161.0941
141.4810,161.0604
141.4810,161.0241
141.4739,160.9862
141.4536,160.9589
141.4194,160.9425
141.3532,160.9354
141.1765,160.9354
141.0829,160.9279
141.0021,160.9065
140.9537,160.8827
140.9130,160.8509
140.8793,160.8104
140.8553,160.7634
140.8397,160.7041
140.8340,160.6291
140.8340,160.5637
140.8391,160.4931
140.8532,160.4336
140.8754,160.3833
140.9080,160.3400
140.9540,160.3031
141.0160,160.2725
141.0835,160.2529
141.1722,160.2396
141.2871,160.2347
141.4358,160.2419
141.5846,160.2607
141.6958,160.2861
141.6958,160.4687
141.2240,160.4687
141.1671,160.4744
141.1310,160.4889
141.1081,160.5158
141.0994,160.5637
141.0994,160.5985
141.1035,160.6316
141.1143,160.6532
141.1325,160.6685
141.1604,160.6787
141.2365,160.6854
141.4177,160.6854
141.5052,160.6913
141.5738,160.7075
141.6272,160.7321
141.6683,160.7643
141.7105,160.8214
141.7370,160.8928
141.7465,160.9827
141.7465,161.0835
141.7399,161.1574
141.7217,161.2162
141.6933,161.2631
141.6539,161.3018
141.6031,161.3332
141.5385,161.3572
141.4310,161.3775
Z" /> 
<path style="fill:#000000; fill-opacity:1.0000; stroke:none;fill-rule:evenodd;"
d="M 141.9760,161.3756
141.9511,161.3706
141.9374,161.3573
141.9324,161.3335
141.9324,161.1188
141.9376,161.0930
141.9514,161.0789
141.9760,161.0736
142.1557,161.0736
142.1814,161.0789
142.1957,161.0932
142.2010,161.1188
142.2010,161.3335
142.1974,161.3542
142.1882,161.3663
142.1557,161.3756
Z" /> 
<path style="fill:#000000; fill-opacity:1.0000; stroke:none;fill-rule:evenodd;"
d="M 141.9760,160.5432
141.9511,160.5382
141.9374,160.5249
141.9324,160.5011
141.9324,160.2864
141.9376,160.2606
141.9514,160.2465
141.9760,160.2413
142.1557,160.2413
142.1814,160.2466
142.1957,160.2608
142.2010,160.2864
142.2010,160.5011
142.1974,160.5218
142.1882,160.5339
142.1557,160.5432
Z" /> 
<path style="fill:#000000; fill-opacity:1.0000; stroke:none;fill-rule:evenodd;"
d="M 142.3003,161.5237
142.8905,159.7555
143.2067,159.7555
142.6166,161.5237
Z" /> 
<path style="fill:#000000; fill-opacity:1.0000; stroke:none;fill-rule:evenodd;"
d="M 142.9759,161.5237
143.5660,159.7555
143.8823,159.7555
143.2922,161.5237
Z" /> 
<path style="fill:#000000; fill-opacity:1.0000; stroke:none;fill-rule:evenodd;"
d="M 143.9478,161.3725
143.9478,160.2451
144.2045,160.2451
144.2593,160.3600
144.3362,160.3092
144.4206,160.2657
144.4801,160.2446
144.5513,160.2311
144.6361,160.2262
144.7053,160.2316
144.7633,160.2468
144.8121,160.2708
144.8746,160.3218
144.9196,160.3846
145.0305,160.3122
145.0965,160.2788
145.1682,160.2510
145.2423,160.2323
145.3138,160.2262
145.4032,160.2327
145.4734,160.2504
145.5281,160.2774
145.5751,160.3160
145.6117,160.3637
145.6387,160.4220
145.6624,160.5201
145.6710,160.6416
145.6710,161.3725
145.3596,161.3725
145.3596,160.6692
145.3542,160.6175
145.3395,160.5786
145.3155,160.5470
145.2840,160.5244
145.2461,160.5108
145.1985,160.5059
145.1361,160.5121
145.0711,160.5315
145.0093,160.5604
144.9561,160.5941
144.9628,160.6342
144.9651,160.6754
144.9651,161.3725
144.6537,161.3725
144.6537,160.6692
144.6483,160.6175
144.6336,160.5786
144.6097,160.5470
144.5784,160.5244
144.5408,160.5108
144.4933,160.5059
144.4072,160.5162
144.3300,160.5452
144.2593,160.5890
144.2593,161.3725
Z" /> 
<path style="fill:#000000; fill-opacity:1.0000; stroke:none;fill-rule:evenodd;"
d="M 146.2350,160.2356
146.1215,160.2489
146.0170,160.2697
145.9315,160.2936
145.9315,160.4730
146.2686,160.4730
146.3670,160.4778
146.4256,160.4893
146.4707,160.5112
146.4958,160.5398
146.5093,160.5771
146.5143,160.6273
146.5143,160.7037
146.2266,160.7037
146.1291,160.7100
146.0521,160.7270
145.9916,160.7530
145.9446,160.7869
145.8945,160.8473
145.8646,160.9167
145.8542,160.9983
145.8542,161.1002
145.8639,161.1854
145.8909,161.2537
145.9348,161.3091
145.9925,161.3507
146.0608,161.3762
146.1428,161.3851
146.2117,161.3815
146.2761,161.3708
146.3376,161.3540
146.3911,161.3339
146.4782,161.2902
146.5296,161.2534
146.5802,161.3725
146.8258,161.3725
146.8258,161.1139
146.5143,161.1139
146.4939,161.1222
146.4539,161.1366
146.4021,161.1517
146.3476,161.1642
146.2994,161.1689
146.2322,161.1573
146.2049,161.1422
146.1837,161.1192
146.1705,161.0892
146.1657,161.0483
146.1657,161.0028
146.1757,160.9470
146.2043,160.9065
146.2503,160.8797
146.3260,160.8641
146.5143,160.8510
146.5143,161.1139
146.8258,161.1139
146.8258,160.6059
146.8191,160.5102
146.8010,160.4362
146.7736,160.3793
146.7341,160.3306
146.6841,160.2922
146.6220,160.2637
146.5167,160.2390
146.3818,160.2303
Z" /> 
<path style="fill:#000000; fill-opacity:1.0000; stroke:none;fill-rule:evenodd;"
d="M 147.0952,160.0791
147.0703,160.0741
147.0567,160.0608
147.0516,160.0371
147.0516,159.8317
147.0568,159.8059
147.0706,159.7917
147.0952,159.7865
147.3349,159.7865
147.3530,159.7899
147.3649,159.7992
147.3748,159.8317
147.3748,160.0371
147.3701,160.0612
147.3574,160.0743
147.3349,160.0791
Z" /> 
<path style="fill:#000000; fill-opacity:1.0000; stroke:none;fill-rule:evenodd;"
d="M 147.0575,161.3725
147.0575,160.2451
147.3690,160.2451
147.3690,161.3725
Z" /> 
<path style="fill:#000000; fill-opacity:1.0000; stroke:none;fill-rule:evenodd;"
d="M 148.2866,160.2805
148.1519,160.2436
148.0754,160.2318
147.9979,160.2279
147.8917,160.2357
147.8086,160.2569
147.7439,160.2893
147.6895,160.3361
147.6457,160.3988
147.6124,160.4807
147.5922,160.5683
147.5787,160.6800
147.5737,160.8202
147.5796,160.9563
147.5955,161.0641
147.6192,161.1485
147.6563,161.2267
147.7015,161.2858
147.7549,161.3291
147.8172,161.3594
147.8904,161.3784
147.9769,161.3851
148.0341,161.3811
148.0911,161.3689
148.1465,161.3499
148.1989,161.3253
148.2474,161.2959
148.2866,161.2651
148.3372,161.3725
148.5980,161.3725
148.5980,160.5045
148.2866,160.5045
148.2866,161.0718
148.2008,161.1142
148.1478,161.1293
148.0860,161.1346
148.0181,161.1273
147.9690,161.1074
147.9321,161.0713
147.9047,161.0084
147.8908,160.9292
147.8852,160.8048
147.8913,160.6726
147.9061,160.5903
147.9243,160.5436
147.9472,160.5108
147.9746,160.4888
148.0269,160.4689
148.0992,160.4614
148.1503,160.4650
148.1982,160.4755
148.2866,160.5045
148.5980,160.5045
148.5980,159.7702
148.2866,159.7702
Z" /> 
<path style="fill:#000000; fill-opacity:1.0000; stroke:none;fill-rule:evenodd;"
d="M 149.1630,160.2356
149.0495,160.2489
148.9450,160.2697
148.8595,160.2936
148.8595,160.4730
149.1966,160.4730
149.2950,160.4778
149.3536,160.4893
149.3986,160.5112
149.4238,160.5398
149.4373,160.5771
149.4422,160.6273
149.4422,160.7037
149.1545,160.7037
149.0571,160.7100
148.9801,160.7270
148.9196,160.7530
148.8726,160.7869
148.8224,160.8473
148.7926,160.9167
148.7822,160.9983
148.7822,161.1002
148.7919,161.1854
148.8189,161.2537
148.8627,161.3091
148.9205,161.3507
148.9888,161.3762
149.0707,161.3851
149.1397,161.3815
149.2041,161.3708
149.2656,161.3540
149.3190,161.3339
149.4061,161.2902
149.4576,161.2534
149.5082,161.3725
149.7537,161.3725
149.7537,161.1139
149.4422,161.1139
149.4219,161.1222
149.3819,161.1366
149.3301,161.1517
149.2755,161.1642
149.2274,161.1689
149.1602,161.1573
149.1329,161.1422
149.1117,161.1192
149.0985,161.0892
149.0936,161.0483
149.0936,161.0028
149.1037,160.9470
149.1323,160.9065
149.1783,160.8797
149.2540,160.8641
149.4422,160.8510
149.4422,161.1139
149.7537,161.1139
149.7537,160.6059
149.7471,160.5102
149.7290,160.4362
149.7016,160.3793
149.6620,160.3306
149.6120,160.2922
149.5499,160.2637
149.4447,160.2390
149.3098,160.2303
Z" /> 
<path style="fill:#000000; fill-opacity:1.0000; stroke:none;fill-rule:evenodd;"
d="M 150.2704,161.3725
149.8924,160.2451
150.2131,160.2451
150.4558,161.0846
150.7070,160.2451
151.0246,160.2451
150.6290,161.3725
Z" /> 
<path style="fill:#000000; fill-opacity:1.0000; stroke:none;fill-rule:evenodd;"
d="M 151.4593,160.2356
151.3459,160.2489
151.2414,160.2697
151.1559,160.2936
151.1559,160.4730
151.4930,160.4730
151.5913,160.4778
151.6499,160.4893
151.6950,160.5112
151.7202,160.5398
151.7336,160.5771
151.7386,160.6273
151.7386,160.7037
151.4509,160.7037
151.3534,160.7100
151.2764,160.7270
151.2160,160.7530
151.1690,160.7869
151.1188,160.8473
151.0889,160.9167
151.0786,160.9983
151.0786,161.1002
151.0882,161.1854
151.1153,161.2537
151.1591,161.3091
151.2169,161.3507
151.2852,161.3762
151.3671,161.3851
151.4360,161.3815
151.5005,161.3708
151.5620,161.3540
151.6154,161.3339
151.7025,161.2902
151.7540,161.2534
151.8046,161.3725
152.0501,161.3725
152.0501,161.1139
151.7386,161.1139
151.7183,161.1222
151.6782,161.1366
151.6265,161.1517
151.5719,161.1642
151.5237,161.1689
151.4566,161.1573
151.4292,161.1422
151.4081,161.1192
151.3949,161.0892
151.3900,161.0483
151.3900,161.0028
151.4001,160.9470
151.4287,160.9065
151.4747,160.8797
151.5504,160.8641
151.7386,160.8510
151.7386,161.1139
152.0501,161.1139
152.0501,160.6059
152.0434,160.5102
152.0254,160.4362
151.9980,160.3793
151.9584,160.3306
151.9084,160.2922
151.8463,160.2637
151.7410,160.2390
151.6062,160.2303
Z" /> 
<path style="fill:#000000; fill-opacity:1.0000; stroke:none;fill-rule:evenodd;"
d="M 152.6356,161.3771
152.5569,161.3723
152.4917,161.3589
152.4378,161.3382
152.3898,161.3076
152.3510,161.2679
152.3205,161.2181
152.3001,161.1625
152.2867,161.0935
152.2818,161.0083
152.2818,159.7702
152.5933,159.7702
152.5933,160.9624
152.5970,161.0225
152.6064,161.0628
152.6234,161.0955
152.6456,161.1167
152.6740,161.1306
152.7102,161.1399
152.7969,161.1516
152.7969,161.3771
Z" /> 
<path style="fill:#000000; fill-opacity:1.0000; stroke:none;fill-rule:evenodd;"
d="M 153.2786,160.2344
153.1818,160.2521
153.1074,160.2784
153.0427,160.3196
152.9912,160.3774
152.9519,160.4547
152.9278,160.5402
152.9113,160.6561
152.9050,160.8097
152.9116,160.9592
152.9290,161.0732
152.9546,161.1584
152.9956,161.2349
153.0490,161.2924
153.1159,161.3336
153.1921,161.3597
153.2899,161.3772
153.4140,161.3836
153.5434,161.3793
153.6457,161.3676
153.8261,161.3341
153.8261,161.1516
153.4965,161.1516
153.3886,161.1451
153.3220,161.1294
153.2712,161.0993
153.2403,161.0559
153.2233,160.9998
153.2135,160.9191
153.4985,160.9191
153.6056,160.9117
153.6915,160.8912
153.7426,160.8678
153.7843,160.8365
153.8178,160.7970
153.8415,160.7508
153.8569,160.6919
153.8624,160.6187
153.5879,160.6187
153.5795,160.6762
153.5585,160.7081
153.5238,160.7261
153.4663,160.7332
153.2104,160.7332
153.2157,160.6285
153.2289,160.5611
153.2544,160.5077
153.2897,160.4761
153.3365,160.4588
153.4030,160.4523
153.4662,160.4567
153.5103,160.4680
153.5455,160.4892
153.5693,160.5203
153.5828,160.5605
153.5879,160.6187
153.8624,160.6187
153.8625,160.6171
153.8566,160.5151
153.8408,160.4375
153.8174,160.3792
153.7816,160.3290
153.7338,160.2899
153.6717,160.2612
153.5625,160.2373
153.4030,160.2279
Z" /> 
<path style="fill:#000000; fill-opacity:1.0000; stroke:none;fill-rule:evenodd;"
d="M 154.1027,161.3756
154.0778,161.3706
154.0641,161.3573
154.0591,161.3335
154.0591,161.1188
154.0643,161.0930
154.0781,161.0789
154.1027,161.0736
154.2824,161.0736
154.3081,161.0789
154.3223,161.0932
154.3276,161.1188
154.3276,161.3335
154.3241,161.3542
154.3149,161.3663
154.2824,161.3756
Z" /> 
<path style="fill:#000000; fill-opacity:1.0000; stroke:none;fill-rule:evenodd;"
d="M 154.9079,160.2349
154.8039,160.2538
154.7407,160.2760
154.6875,160.3061
154.6429,160.3441
154.6066,160.3902
154.5761,160.4484
154.5518,160.5210
154.5309,160.6409
154.5229,160.8062
154.5306,160.9633
154.5510,161.0811
154.5747,161.1528
154.6049,161.2115
154.6413,161.2589
154.6860,161.2986
154.7392,161.3305
154.8023,161.3546
154.9066,161.3758
155.0406,161.3836
155.1774,161.3761
155.2822,161.3562
155.3455,161.3330
155.3985,161.3021
155.4426,161.2635
155.4785,161.2170
155.5084,161.1587
155.5318,161.0865
155.5518,160.9674
155.5594,160.8062
155.5593,160.8046
155.2480,160.8046
155.2445,160.9100
155.2357,160.9820
155.2191,161.0434
155.1986,161.0815
155.1702,161.1087
155.1348,161.1245
155.0937,161.1319
155.0406,161.1346
154.9876,161.1319
154.9467,161.1245
154.9115,161.1087
154.8831,161.0815
154.8627,161.0434
154.8463,160.9820
154.8377,160.9099
154.8344,160.8046
154.8378,160.6990
154.8463,160.6278
154.8627,160.5673
154.8831,160.5297
154.9115,160.5027
154.9467,160.4870
154.9876,160.4796
155.0406,160.4768
155.0937,160.4796
155.1348,160.4870
155.1702,160.5027
155.1986,160.5297
155.2192,160.5673
155.2357,160.6278
155.2445,160.6990
155.2480,160.8046
155.5593,160.8046
155.5514,160.6437
155.5302,160.5241
155.5059,160.4514
155.4755,160.3933
155.4396,160.3472
155.3956,160.3091
155.3425,160.2785
155.2791,160.2554
155.1747,160.2353
155.0406,160.2279
Z" /> 
<path style="fill:#000000; fill-opacity:1.0000; stroke:none;fill-rule:evenodd;"
d="M 155.7638,161.3725
155.7638,160.2451
156.0047,160.2451
156.0753,160.4173
156.1402,160.3453
156.2126,160.2848
156.2663,160.2544
156.3266,160.2359
156.3954,160.2294
156.4412,160.2318
156.4872,160.2405
156.4872,160.5596
156.4204,160.5528
156.3554,160.5501
156.2960,160.5536
156.2449,160.5636
156.1973,160.5803
156.1540,160.6032
156.1141,160.6326
156.0753,160.6705
156.0753,161.3725
Z" /> 
<path style="fill:#000000; fill-opacity:1.0000; stroke:none;fill-rule:evenodd;"
d="M 157.0014,160.2491
156.9149,160.2630
156.8444,160.2842
156.7794,160.3166
156.7283,160.3571
156.6890,160.4060
156.6614,160.4626
156.6438,160.5306
156.6375,160.6127
156.6418,160.6759
156.6546,160.7369
156.6772,160.7947
156.7113,160.8487
156.7566,160.8954
156.8175,160.9357
156.7616,160.9539
156.7167,160.9797
156.6809,161.0130
156.6541,161.0536
156.6377,161.1004
156.6320,161.1552
156.6420,161.2201
156.6715,161.2775
156.7233,161.3298
156.7481,161.3438
156.6854,161.3786
156.6263,161.4343
156.5975,161.4791
156.5800,161.5300
156.5740,161.5885
156.5740,161.6224
156.5796,161.6789
156.5958,161.7277
156.6224,161.7704
156.6786,161.8229
156.7547,161.8623
156.8418,161.8854
156.9435,161.8936
157.2821,161.8936
157.3936,161.8864
157.4821,161.8669
157.5519,161.8371
157.6066,161.7981
157.6518,161.7471
157.6844,161.6875
157.7047,161.6177
157.7118,161.5353
157.7118,161.5197
157.4168,161.5197
157.4168,161.5522
157.4113,161.5908
157.3959,161.6209
157.3702,161.6446
157.3184,161.6670
157.2452,161.6754
157.0311,161.6754
156.9583,161.6666
156.9106,161.6439
156.8878,161.6201
156.8739,161.5901
156.8689,161.5517
156.8689,161.5271
156.8742,161.4879
156.8890,161.4573
156.9126,161.4330
156.9449,161.4148
156.9824,161.4042
157.0272,161.4004
157.2537,161.4004
157.3082,161.4044
157.3466,161.4147
157.3783,161.4326
157.3995,161.4553
157.4122,161.4837
157.4168,161.5197
157.7118,161.5197
157.7118,161.5057
157.7058,161.4252
157.6891,161.3605
157.6633,161.3087
157.6266,161.2639
157.5807,161.2280
157.5239,161.2005
157.4276,161.1759
157.3043,161.1669
156.9918,161.1669
156.9561,161.1634
156.9246,161.1534
156.9021,161.1345
156.8943,161.1030
156.9034,161.0660
156.9299,161.0428
156.9686,161.0302
157.0212,161.0256
157.2212,161.0256
157.3195,161.0197
157.3973,161.0039
157.4583,160.9800
157.5134,160.9451
157.5560,160.9041
157.5877,160.8568
157.6178,160.7752
157.6282,160.6813
157.6258,160.6383
157.3475,160.6383
157.3439,160.6825
157.3340,160.7189
157.3153,160.7494
157.2854,160.7728
157.2461,160.7866
157.1864,160.7920
157.0669,160.7920
157.0187,160.7872
156.9825,160.7741
156.9554,160.7539
156.9360,160.7260
156.9231,160.6869
156.9183,160.6327
156.9235,160.5769
156.9373,160.5383
156.9578,160.5123
157.0042,160.4872
157.0765,160.4776
157.1937,160.4776
157.2416,160.4817
157.2783,160.4929
157.3082,160.5132
157.3301,160.5439
157.3426,160.5829
157.3475,160.6383
157.6258,160.6383
157.6247,160.6168
157.6154,160.5695
157.6004,160.5275
157.5835,160.4959
157.5447,160.4468
157.7174,160.4157
157.7174,160.2440
157.1068,160.2440
Z" /> 
<path style="fill:#000000; fill-opacity:1.0000; stroke:none;fill-rule:evenodd;"
d="M 157.7873,161.5237
158.3774,159.7555
158.6937,159.7555
158.1035,161.5237
Z" /> 
<path style="fill:#000000; fill-opacity:1.0000; stroke:none;fill-rule:evenodd;"
d="M 159.3210,160.2324
159.2631,160.2457
159.2084,160.2662
159.1588,160.2918
159.0707,160.3525
159.0201,160.2451
158.7592,160.2451
158.7592,161.8702
159.0707,161.8702
159.0707,161.3142
159.1412,161.3451
159.2210,161.3688
159.3035,161.3834
159.3834,161.3882
159.4835,161.3796
159.5620,161.3559
159.6236,161.3193
159.6746,161.2683
159.7157,161.2031
159.7470,161.1208
159.7736,160.9843
159.7835,160.8097
159.4721,160.8097
159.4644,160.9312
159.4454,161.0084
159.4127,161.0696
159.3752,161.1048
159.3301,161.1249
159.2820,161.1316
159.2255,161.1278
159.1688,161.1164
159.1150,161.0983
159.0707,161.0764
159.0707,160.5412
159.1633,160.4988
159.2199,160.4836
159.2836,160.4784
159.3357,160.4859
159.3807,160.5082
159.4167,160.5460
159.4475,160.6108
159.4651,160.6906
159.4721,160.8097
159.7835,160.8097
159.7775,160.6782
159.7605,160.5668
159.7301,160.4646
159.6887,160.3833
159.6327,160.3163
159.5637,160.2678
159.4827,160.2384
159.3834,160.2279
Z" /> 
<path style="fill:#000000; fill-opacity:1.0000; stroke:none;fill-rule:evenodd;"
d="M 159.9872,161.3725
159.9872,160.2451
160.2282,160.2451
160.2987,160.4173
160.3636,160.3453
160.4361,160.2848
160.4897,160.2544
160.5501,160.2359
160.6188,160.2294
160.6646,160.2318
160.7107,160.2405
160.7107,160.5596
160.6438,160.5528
160.5789,160.5501
160.5194,160.5536
160.4683,160.5636
160.4208,160.5803
160.3775,160.6032
160.3376,160.6326
160.2987,160.6705
160.2987,161.3725
Z" /> 
<path style="fill:#000000; fill-opacity:1.0000; stroke:none;fill-rule:evenodd;"
d="M 161.2269,160.2349
161.1229,160.2538
161.0597,160.2760
161.0065,160.3061
160.9619,160.3441
160.9256,160.3902
160.8951,160.4484
160.8709,160.5210
160.8500,160.6409
160.8419,160.8062
160.8496,160.9633
160.8701,161.0811
160.8937,161.1528
160.9240,161.2115
160.9604,161.2589
161.0050,161.2986
161.0582,161.3305
161.1214,161.3546
161.2257,161.3758
161.3596,161.3836
161.4965,161.3761
161.6012,161.3562
161.6646,161.3330
161.7176,161.3021
161.7617,161.2635
161.7976,161.2170
161.8274,161.1587
161.8508,161.0865
161.8708,160.9674
161.8785,160.8062
161.8784,160.8046
161.5671,160.8046
161.5636,160.9100
161.5548,160.9820
161.5382,161.0434
161.5177,161.0815
161.4892,161.1087
161.4539,161.1245
161.4127,161.1319
161.3596,161.1346
161.3067,161.1319
161.2657,161.1245
161.2306,161.1087
161.2022,161.0815
161.1818,161.0434
161.1653,160.9820
161.1568,160.9099
161.1534,160.8046
161.1568,160.6990
161.1653,160.6278
161.1818,160.5673
161.2022,160.5297
161.2305,160.5027
161.2657,160.4870
161.3067,160.4796
161.3596,160.4768
161.4127,160.4796
161.4539,160.4870
161.4893,160.5027
161.5177,160.5297
161.5382,160.5673
161.5548,160.6278
161.5636,160.6990
161.5671,160.8046
161.8784,160.8046
161.8704,160.6437
161.8493,160.5241
161.8249,160.4514
161.7946,160.3933
161.7587,160.3472
161.7146,160.3091
161.6616,160.2785
161.5981,160.2554
161.4937,160.2353
161.3596,160.2279
Z" /> 
<path style="fill:#000000; fill-opacity:1.0000; stroke:none;fill-rule:evenodd;"
d="M 162.1191,160.0791
162.0941,160.0741
162.0804,160.0608
162.0754,160.0371
162.0754,159.8317
162.0806,159.8059
162.0944,159.7917
162.1191,159.7865
162.3587,159.7865
162.3768,159.7899
162.3887,159.7992
162.3986,159.8317
162.3986,160.0371
162.3938,160.0612
162.3812,160.0743
162.3587,160.0791
Z" /> 
<path style="fill:#000000; fill-opacity:1.0000; stroke:none;fill-rule:evenodd;"
d="M 162.0828,161.8702
162.0828,160.2451
162.3943,160.2451
162.3943,161.3634
162.3893,161.4961
162.3742,161.6337
162.3493,161.7666
162.3191,161.8702
Z" /> 
<path style="fill:#000000; fill-opacity:1.0000; stroke:none;fill-rule:evenodd;"
d="M 162.9726,160.2344
162.8758,160.2521
162.8014,160.2784
162.7367,160.3196
162.6852,160.3774
162.6459,160.4547
162.6218,160.5402
162.6053,160.6561
162.5990,160.8097
162.6056,160.9592
162.6230,161.0732
162.6486,161.1584
162.6896,161.2349
162.7430,161.2924
162.8099,161.3336
162.8861,161.3597
162.9839,161.3772
163.1080,161.3836
163.2374,161.3793
163.3397,161.3676
163.5201,161.3341
163.5201,161.1516
163.1905,161.1516
163.0826,161.1451
163.0160,161.1294
162.9652,161.0993
162.9343,161.0559
162.9173,160.9998
162.9075,160.9191
163.1925,160.9191
163.2996,160.9117
163.3855,160.8912
163.4366,160.8678
163.4783,160.8365
163.5118,160.7970
163.5355,160.7508
163.5509,160.6919
163.5564,160.6187
163.2819,160.6187
163.2735,160.6762
163.2525,160.7081
163.2178,160.7261
163.1603,160.7332
162.9044,160.7332
162.9097,160.6285
162.9229,160.5611
162.9484,160.5077
162.9837,160.4761
163.0305,160.4588
163.0970,160.4523
163.1602,160.4567
163.2043,160.4680
163.2395,160.4892
163.2633,160.5203
163.2768,160.5605
163.2819,160.6187
163.5564,160.6187
163.5565,160.6171
163.5506,160.5151
163.5348,160.4375
163.5114,160.3792
163.4756,160.3290
163.4278,160.2899
163.3657,160.2612
163.2565,160.2373
163.0970,160.2279
Z" /> 
<path style="fill:#000000; fill-opacity:1.0000; stroke:none;fill-rule:evenodd;"
d="M 164.1989,161.3851
164.0989,161.3781
164.0094,161.3579
163.9283,161.3214
163.8590,161.2667
163.8214,161.2210
163.7885,161.1634
163.7608,161.0919
163.7355,160.9736
163.7260,160.8139
163.7348,160.6488
163.7582,160.5276
163.7844,160.4539
163.8157,160.3950
163.8518,160.3484
163.8957,160.3092
163.9459,160.2784
164.0034,160.2557
164.0972,160.2356
164.2081,160.2284
164.3086,160.2314
164.4038,160.2401
164.4987,160.2554
164.6008,160.2795
164.6008,160.4590
164.3049,160.4590
164.2134,160.4669
164.1491,160.4876
164.1146,160.5111
164.0863,160.5453
164.0639,160.5924
164.0451,160.6770
164.0375,160.8115
164.0452,160.9446
164.0640,161.0267
164.0864,161.0716
164.1148,161.1036
164.1496,161.1249
164.2141,161.1430
164.3079,161.1500
164.6161,161.1500
164.6161,161.3264
164.4952,161.3563
164.3488,161.3776
Z" /> 
<path style="fill:#000000; fill-opacity:1.0000; stroke:none;fill-rule:evenodd;"
d="M 165.2180,161.3725
165.1316,161.3677
165.0622,161.3546
165.0069,161.3348
164.9581,161.3042
164.9196,161.2628
164.8903,161.2090
164.8720,161.1491
164.8605,161.0713
164.8577,160.9716
164.8681,160.4940
164.6921,160.4940
164.6921,160.2946
164.8793,160.2451
164.9206,159.9291
165.1661,159.9291
165.1661,160.2451
165.4322,160.2451
165.4322,160.4940
165.1661,160.4940
165.1661,160.9700
165.1748,161.0450
165.1857,161.0723
165.1995,161.0921
165.2360,161.1180
165.2790,161.1282
165.4210,161.1423
165.4210,161.3725
Z" /> 
<path style="fill:#000000; fill-opacity:1.0000; stroke:none;fill-rule:evenodd;"
d="M 166.0148,161.3851
165.9007,161.3817
165.7786,161.3725
165.6659,161.3567
165.5787,161.3341
165.5787,161.1516
166.0778,161.1516
166.1500,161.1441
166.1755,161.1331
166.1924,161.1167
166.2024,161.0941
166.2062,161.0604
166.2062,161.0241
166.1991,160.9862
166.1788,160.9589
166.1446,160.9425
166.0784,160.9354
165.9017,160.9354
165.8081,160.9279
165.7273,160.9065
165.6789,160.8827
165.6382,160.8509
165.6045,160.8104
165.5805,160.7634
165.5649,160.7041
165.5592,160.6291
165.5592,160.5637
165.5643,160.4931
165.5784,160.4336
165.6006,160.3833
165.6332,160.3400
165.6791,160.3031
165.7412,160.2725
165.8087,160.2529
165.8974,160.2396
166.0122,160.2347
166.1610,160.2419
166.3098,160.2607
166.4210,160.2861
166.4210,160.4687
165.9492,160.4687
165.8923,160.4744
165.8562,160.4889
165.8333,160.5158
165.8246,160.5637
165.8246,160.5985
165.8287,160.6316
165.8395,160.6532
165.8577,160.6685
165.8856,160.6787
165.9617,160.6854
166.1429,160.6854
166.2304,160.6913
166.2990,160.7075
166.3523,160.7321
166.3935,160.7643
166.4357,160.8214
166.4622,160.8928
166.4717,160.9827
166.4717,161.0835
166.4651,161.1574
166.4469,161.2162
166.4185,161.2631
166.3791,161.3018
166.3283,161.3332
166.2637,161.3572
166.1562,161.3775
Z" /> 
<path style="fill:#000000; fill-opacity:1.0000; stroke:none;fill-rule:evenodd;"
d="M 166.5361,161.5237
167.1262,159.7555
167.4424,159.7555
166.8523,161.5237
Z" /> 
<path style="fill:#000000; fill-opacity:1.0000; stroke:none;fill-rule:evenodd;"
d="M 167.5079,161.3725
167.5079,160.2451
167.7489,160.2451
167.8194,160.4173
167.8843,160.3453
167.9568,160.2848
168.0105,160.2544
168.0708,160.2359
168.1395,160.2294
168.1853,160.2318
168.2314,160.2405
168.2314,160.5596
168.1645,160.5528
168.0996,160.5501
168.0401,160.5536
167.9891,160.5636
167.9415,160.5803
167.8982,160.6032
167.8583,160.6326
167.8194,160.6705
167.8194,161.3725
Z" /> 
<path style="fill:#000000; fill-opacity:1.0000; stroke:none;fill-rule:evenodd;"
d="M 168.8356,161.3851
168.7356,161.3781
168.6461,161.3579
168.5650,161.3214
168.4957,161.2667
168.4581,161.2210
168.4252,161.1634
168.3975,161.0919
168.3722,160.9736
168.3627,160.8139
168.3716,160.6488
168.3949,160.5276
168.4211,160.4539
168.4524,160.3950
168.4885,160.3484
168.5324,160.3092
168.5826,160.2784
168.6401,160.2557
168.7339,160.2356
168.8448,160.2284
168.9453,160.2314
169.0405,160.2401
169.1355,160.2554
169.2375,160.2795
169.2375,160.4590
168.9416,160.4590
168.8501,160.4669
168.7858,160.4876
168.7513,160.5111
168.7230,160.5453
168.7006,160.5924
168.6818,160.6770
168.6742,160.8115
168.6819,160.9446
168.7007,161.0267
168.7231,161.0716
168.7515,161.1036
168.7863,161.1249
168.8508,161.1430
168.9446,161.1500
169.2528,161.1500
169.2528,161.3264
169.1319,161.3563
168.9855,161.3776
Z" /> 
<path style="fill:#000000; fill-opacity:1.0000; stroke:none;fill-rule:evenodd;"
d="M 169.4247,161.3725
169.6857,161.3725
169.7363,161.2651
169.8259,161.3244
169.8752,161.3488
169.9316,161.3685
169.9924,161.3808
170.0643,161.3851
170.1506,161.3776
170.2221,161.3566
170.2817,161.3231
170.3319,161.2766
170.3741,161.2151
170.4080,161.1354
170.4297,161.0505
170.4439,160.9465
170.4491,160.8202
170.4485,160.8048
170.1377,160.8048
170.1306,160.9241
170.1129,161.0025
170.0820,161.0657
170.0457,161.1027
170.0006,161.1242
169.9476,161.1316
169.8815,161.1270
169.8274,161.1143
169.7363,161.0764
169.7363,160.5412
169.8315,160.4979
169.8871,160.4834
169.9476,160.4784
169.9964,160.4838
170.0413,160.4999
170.0786,160.5308
170.1112,160.5903
170.1298,160.6690
170.1377,160.8048
170.4485,160.8048
170.4439,160.6785
170.4300,160.5663
170.4093,160.4787
170.3757,160.3965
170.3331,160.3343
170.2817,160.2883
170.2204,160.2561
170.1441,160.2354
170.0490,160.2279
169.9721,160.2350
169.8876,160.2576
169.8055,160.2896
169.7363,160.3233
169.7363,159.7702
169.4247,159.7702
Z" /> 
<path style="fill:#000000; fill-opacity:1.0000; stroke:none;fill-rule:evenodd;"
d="M 170.9727,161.3851
170.8974,161.3790
170.8341,161.3615
170.7805,161.3338
170.7351,161.2957
170.6893,161.2310
170.6603,161.1486
170.6498,161.0432
170.6498,160.2451
170.9612,160.2451
170.9612,160.9495
170.9672,161.0112
170.9827,161.0517
171.0054,161.0773
171.0550,161.1012
171.1250,161.1101
171.1831,161.1047
171.2453,161.0878
171.3047,161.0615
171.3557,161.0287
171.3557,160.2451
171.6671,160.2451
171.6671,161.3725
171.4104,161.3725
171.3557,161.2576
171.2754,161.3037
171.1807,161.3462
171.0800,161.3753
Z" /> 
<path style="fill:#000000; fill-opacity:1.0000; stroke:none;fill-rule:evenodd;"
d="M 172.3119,161.3851
172.1978,161.3817
172.0757,161.3725
171.9630,161.3567
171.8758,161.3341
171.8758,161.1516
172.3749,161.1516
172.4471,161.1441
172.4726,161.1331
172.4895,161.1167
172.4995,161.0941
172.5033,161.0604
172.5033,161.0241
172.4962,160.9862
172.4758,160.9589
172.4417,160.9425
172.3754,160.9354
172.1988,160.9354
172.1051,160.9279
172.0244,160.9065
171.9759,160.8827
171.9353,160.8509
171.9016,160.8104
171.8776,160.7634
171.8620,160.7041
171.8563,160.6291
171.8563,160.5637
171.8613,160.4931
171.8754,160.4336
171.8977,160.3833
171.9303,160.3400
171.9762,160.3031
172.0383,160.2725
172.1057,160.2529
172.1945,160.2396
172.3093,160.2347
172.4581,160.2419
172.6069,160.2607
172.7181,160.2861
172.7181,160.4687
172.2463,160.4687
172.1894,160.4744
172.1532,160.4889
172.1304,160.5158
172.1216,160.5637
172.1216,160.5985
172.1258,160.6316
172.1366,160.6532
172.1548,160.6685
172.1826,160.6787
172.2588,160.6854
172.4399,160.6854
172.5275,160.6913
172.5960,160.7075
172.6494,160.7321
172.6905,160.7643
172.7328,160.8214
172.7592,160.8928
172.7687,160.9827
172.7687,161.0835
172.7622,161.1574
172.7440,161.2162
172.7155,161.2631
172.6762,161.3018
172.6254,161.3332
172.5607,161.3572
172.4532,161.3775
Z" /> 
<path style="fill:#000000; fill-opacity:1.0000; stroke:none;fill-rule:evenodd;"
d="M 172.8880,160.8885
172.8880,160.6385
173.5304,160.6385
173.5304,160.8885
Z" /> 
<path style="fill:#000000; fill-opacity:1.0000; stroke:none;fill-rule:evenodd;"
d="M 174.0467,160.2349
173.9428,160.2538
173.8795,160.2760
173.8263,160.3061
173.7817,160.3441
173.7454,160.3902
173.7149,160.4484
173.6907,160.5210
173.6698,160.6409
173.6618,160.8062
173.6695,160.9633
173.6899,161.0811
173.7135,161.1528
173.7438,161.2115
173.7802,161.2589
173.8248,161.2986
173.8781,161.3305
173.9412,161.3546
174.0455,161.3758
174.1794,161.3836
174.3163,161.3761
174.4210,161.3562
174.4844,161.3330
174.5374,161.3021
174.5815,161.2635
174.6174,161.2170
174.6473,161.1587
174.6706,161.0865
174.6907,160.9674
174.6983,160.8062
174.6982,160.8046
174.3869,160.8046
174.3834,160.9100
174.3746,160.9820
174.3580,161.0434
174.3375,161.0815
174.3091,161.1087
174.2737,161.1245
174.2326,161.1319
174.1794,161.1346
174.1265,161.1319
174.0855,161.1245
174.0504,161.1087
174.0220,161.0815
174.0016,161.0434
173.9852,160.9820
173.9766,160.9099
173.9733,160.8046
173.9766,160.6990
173.9852,160.6278
174.0016,160.5673
174.0220,160.5297
174.0504,160.5027
174.0855,160.4870
174.1265,160.4796
174.1794,160.4768
174.2326,160.4796
174.2737,160.4870
174.3091,160.5027
174.3375,160.5297
174.3580,160.5673
174.3746,160.6278
174.3834,160.6990
174.3869,160.8046
174.6982,160.8046
174.6902,160.6437
174.6691,160.5241
174.6447,160.4514
174.6144,160.3933
174.5785,160.3472
174.5344,160.3091
174.4814,160.2785
174.4179,160.2554
174.3135,160.2353
174.1794,160.2279
Z" /> 
<path style="fill:#000000; fill-opacity:1.0000; stroke:none;fill-rule:evenodd;"
d="M 175.4644,160.2324
175.4066,160.2457
175.3518,160.2662
175.3022,160.2918
175.2141,160.3525
175.1636,160.2451
174.9026,160.2451
174.9026,161.8702
175.2141,161.8702
175.2141,161.3142
175.2847,161.3451
175.3645,161.3688
175.4470,161.3834
175.5269,161.3882
175.6270,161.3796
175.7055,161.3559
175.7671,161.3193
175.8180,161.2683
175.8592,161.2031
175.8904,161.1208
175.9171,160.9843
175.9270,160.8097
175.6156,160.8097
175.6079,160.9312
175.5888,161.0084
175.5562,161.0696
175.5187,161.1048
175.4735,161.1249
175.4255,161.1316
175.3690,161.1278
175.3123,161.1164
175.2585,161.0983
175.2141,161.0764
175.2141,160.5412
175.3067,160.4988
175.3633,160.4836
175.4271,160.4784
175.4792,160.4859
175.5242,160.5082
175.5602,160.5460
175.5909,160.6108
175.6086,160.6906
175.6156,160.8097
175.9270,160.8097
175.9209,160.6782
175.9040,160.5668
175.8736,160.4646
175.8322,160.3833
175.7762,160.3163
175.7072,160.2678
175.6262,160.2384
175.5269,160.2279
Z" /> 
<path style="fill:#000000; fill-opacity:1.0000; stroke:none;fill-rule:evenodd;"
d="M 176.4845,161.3771
176.4057,161.3723
176.3405,161.3589
176.2867,161.3382
176.2387,161.3076
176.1998,161.2679
176.1693,161.2181
176.1489,161.1625
176.1355,161.0935
176.1307,161.0083
176.1307,159.7702
176.4422,159.7702
176.4422,160.9624
176.4459,161.0225
176.4553,161.0628
176.4722,161.0955
176.4945,161.1167
176.5228,161.1306
176.5591,161.1399
176.6458,161.1516
176.6458,161.3771
Z" /> 
<path style="fill:#000000; fill-opacity:1.0000; stroke:none;fill-rule:evenodd;"
d="M 177.3424,161.3851
177.1769,161.3822
177.0229,161.3735
176.8744,161.3589
176.7476,161.3403
176.7476,161.0917
177.2246,161.0917
177.3062,161.0882
177.3652,161.0790
177.4150,161.0607
177.4469,161.0348
177.4661,160.9986
177.4733,160.9453
177.4733,160.8806
177.4660,160.8289
177.4459,160.7917
177.4145,160.7636
177.3727,160.7435
177.3251,160.7318
177.2692,160.7262
176.8865,160.7100
176.8865,160.4718
177.2555,160.4515
177.3449,160.4387
177.4031,160.4165
177.4313,160.3929
177.4485,160.3603
177.4548,160.3156
177.4548,160.2629
177.4481,160.2108
177.4295,160.1711
177.3992,160.1407
177.3598,160.1205
177.3004,160.1063
177.2139,160.1008
176.7811,160.1008
176.7811,159.8522
177.0422,159.8182
177.1851,159.8074
177.3387,159.8058
177.4286,159.8120
177.5049,159.8275
177.5696,159.8513
177.6285,159.8856
177.6761,159.9283
177.7137,159.9800
177.7404,160.0386
177.7572,160.1076
177.7632,160.1891
177.7632,160.3049
177.7594,160.3634
177.7486,160.4127
177.7308,160.4576
177.7075,160.4954
177.6785,160.5280
177.6452,160.5544
177.6083,160.5753
177.5682,160.5909
177.6108,160.6068
177.6514,160.6314
177.6879,160.6630
177.7204,160.7016
177.7470,160.7459
177.7682,160.7993
177.7813,160.8573
177.7859,160.9236
177.7859,161.0037
177.7778,161.0953
177.7550,161.1713
177.7187,161.2346
177.6685,161.2874
177.6078,161.3282
177.5349,161.3587
177.4474,161.3782
Z" /> 
<path style="fill:#000000; fill-opacity:1.0000; stroke:none;fill-rule:evenodd;"
d="M 177.9153,161.5237
178.5055,159.7555
178.8217,159.7555
178.2316,161.5237
Z" /> 
</g> 
</svg>
