<?xml version="1.0" standalone="no"?>
 <!DOCTYPE svg PUBLIC "-//W3C//DTD SVG 1.1//EN" 
 "http://www.w3.org/Graphics/SVG/1.1/DTD/svg11.dtd"> 
<svg
  xmlns:svg="http://www.w3.org/2000/svg"
  xmlns="http://www.w3.org/2000/svg"
  xmlns:xlink="http://www.w3.org/1999/xlink"
  version="1.1"
  width="297.0022mm" height="210.0072mm" viewBox="0.0000 0.0000 297.0022 210.0072">
<title>SVG Image created as rcbus-opl3-B_Cu0.svg date 2025/10/06 23:49:14 </title>
  <desc>Image generated by PCBNEW </desc>
<g style="fill:#000000; fill-opacity:1.0000;stroke:#000000; stroke-opacity:1.0000;
stroke-linecap:round; stroke-linejoin:round;"
 transform="translate(0 0) scale(1 1)">
<path style="fill:#000000; fill-opacity:1.0000; stroke:none;fill-rule:evenodd;"
d="M 147.1832,129.6950
147.1832,131.4950
149.6832,131.4950
149.6832,129.6950
Z" /> 
<path style="fill:#000000; fill-opacity:1.0000; stroke:none;fill-rule:evenodd;"
d="M 147.1832,127.1950
147.1832,128.9950
149.6832,128.9950
149.6832,127.1950
Z" /> 
<path style="fill:#000000; fill-opacity:1.0000; stroke:none;fill-rule:evenodd;"
d="M 142.5332,124.3450
142.5332,126.8450
144.3332,126.8450
144.3332,124.3450
Z" /> 
<path style="fill:#000000; fill-opacity:1.0000; stroke:none;fill-rule:evenodd;"
d="M 147.1832,119.6950
147.1832,121.4950
149.6832,121.4950
149.6832,119.6950
Z" /> 
<path style="fill:#000000; fill-opacity:1.0000; stroke:none;fill-rule:evenodd;"
d="M 147.1832,122.1950
147.1832,123.9950
149.6832,123.9950
149.6832,122.1950
Z" /> 
<path style="fill:#000000; fill-opacity:1.0000; stroke:none;fill-rule:evenodd;"
d="M 231.1522,153.3100
231.1522,155.0100
232.8522,155.0100
232.8522,153.3100
Z" /> 
</g>
<g style="fill:#000000; fill-opacity:1.0000; stroke:none;">
<circle cx="234.5422" cy="154.1600" r="0.8500" /> 
</g>
<g style="fill:#000000; fill-opacity:1.0000; stroke:none;">
<circle cx="232.0022" cy="151.6200" r="0.8500" /> 
</g>
<g style="fill:#000000; fill-opacity:1.0000; stroke:none;">
<circle cx="234.5422" cy="151.6200" r="0.8500" /> 
</g>
<g style="fill:#000000; fill-opacity:1.0000; stroke:none;">
<circle cx="232.0022" cy="149.0800" r="0.8500" /> 
</g>
<g style="fill:#000000; fill-opacity:1.0000; stroke:none;">
<circle cx="234.5422" cy="149.0800" r="0.8500" /> 
</g>
<g style="fill:#000000; fill-opacity:1.0000; stroke:none;">
<circle cx="232.0022" cy="146.5400" r="0.8500" /> 
</g>
<g style="fill:#000000; fill-opacity:1.0000; stroke:none;">
<circle cx="234.5422" cy="146.5400" r="0.8500" /> 
</g>
<g style="fill:#000000; fill-opacity:1.0000; stroke:none;">
<circle cx="232.0022" cy="144.0000" r="0.8500" /> 
</g>
<g style="fill:#000000; fill-opacity:1.0000; stroke:none;">
<circle cx="234.5422" cy="144.0000" r="0.8500" /> 
</g>
<g style="fill:#000000; fill-opacity:1.0000; stroke:none;">
<circle cx="232.0022" cy="141.4600" r="0.8500" /> 
</g>
<g style="fill:#000000; fill-opacity:1.0000; stroke:none;">
<circle cx="234.5422" cy="141.4600" r="0.8500" /> 
<path style="fill:#000000; fill-opacity:1.0000; stroke:none;fill-rule:evenodd;"
d="M 234.6522,164.3500
236.3522,164.3500
236.3522,162.6500
234.6522,162.6500
Z" /> 
</g>
<g style="fill:#000000; fill-opacity:1.0000; stroke:none;">
<circle cx="232.9622" cy="163.5000" r="0.8500" /> 
<circle cx="230.4222" cy="163.5000" r="0.8500" /> 
<circle cx="227.8822" cy="163.5000" r="0.8500" /> 
<circle cx="225.3422" cy="163.5000" r="0.8500" /> 
<circle cx="222.8022" cy="163.5000" r="0.8500" /> 
<circle cx="220.2622" cy="163.5000" r="0.8500" /> 
<circle cx="217.7222" cy="163.5000" r="0.8500" /> 
<circle cx="215.1822" cy="163.5000" r="0.8500" /> 
<circle cx="212.6422" cy="163.5000" r="0.8500" /> 
<circle cx="210.1022" cy="163.5000" r="0.8500" /> 
<circle cx="207.5622" cy="163.5000" r="0.8500" /> 
<circle cx="205.0222" cy="163.5000" r="0.8500" /> 
<circle cx="202.4822" cy="163.5000" r="0.8500" /> 
<circle cx="199.9422" cy="163.5000" r="0.8500" /> 
<circle cx="197.4022" cy="163.5000" r="0.8500" /> 
<circle cx="194.8622" cy="163.5000" r="0.8500" /> 
<circle cx="192.3222" cy="163.5000" r="0.8500" /> 
<circle cx="189.7822" cy="163.5000" r="0.8500" /> 
<circle cx="187.2422" cy="163.5000" r="0.8500" /> 
<circle cx="184.7022" cy="163.5000" r="0.8500" /> 
<circle cx="182.1622" cy="163.5000" r="0.8500" /> 
<circle cx="179.6222" cy="163.5000" r="0.8500" /> 
<circle cx="177.0822" cy="163.5000" r="0.8500" /> 
<circle cx="174.5422" cy="163.5000" r="0.8500" /> 
<circle cx="172.0022" cy="163.5000" r="0.8500" /> 
<circle cx="169.4622" cy="163.5000" r="0.8500" /> 
<circle cx="166.9222" cy="163.5000" r="0.8500" /> 
<circle cx="164.3822" cy="163.5000" r="0.8500" /> 
<circle cx="161.8422" cy="163.5000" r="0.8500" /> 
<circle cx="159.3022" cy="163.5000" r="0.8500" /> 
<circle cx="156.7622" cy="163.5000" r="0.8500" /> 
<circle cx="154.2222" cy="163.5000" r="0.8500" /> 
<circle cx="151.6822" cy="163.5000" r="0.8500" /> 
<circle cx="149.1422" cy="163.5000" r="0.8500" /> 
<circle cx="146.6022" cy="163.5000" r="0.8500" /> 
<circle cx="144.0622" cy="163.5000" r="0.8500" /> 
<circle cx="141.5222" cy="163.5000" r="0.8500" /> 
<circle cx="138.9822" cy="163.5000" r="0.8500" /> 
<circle cx="191.6172" cy="157.1000" r="0.3429" /> 
</g>
<g style="fill:#000000; fill-opacity:1.0000; stroke:none;">
<circle cx="222.2022" cy="151.5000" r="0.3429" /> 
</g>
<g style="fill:#000000; fill-opacity:1.0000; stroke:none;">
<circle cx="176.7792" cy="129.4770" r="0.3429" /> 
</g>
<g style="fill:#000000; fill-opacity:1.0000; stroke:none;">
<circle cx="167.9022" cy="157.9850" r="0.3429" /> 
</g>
<g style="fill:#000000; fill-opacity:1.0000; stroke:none;">
<circle cx="176.6022" cy="137.6000" r="0.3429" /> 
</g>
<g style="fill:#000000; fill-opacity:1.0000; stroke:none;">
<circle cx="222.1022" cy="154.0000" r="0.3429" /> 
</g>
<g style="fill:#000000; fill-opacity:1.0000; stroke:none;">
<circle cx="211.4022" cy="144.1000" r="0.3429" /> 
</g>
<g style="fill:#000000; fill-opacity:1.0000; stroke:none;">
<circle cx="222.2022" cy="144.0000" r="0.3429" /> 
</g>
<g style="fill:#000000; fill-opacity:1.0000; stroke:none;">
<circle cx="173.4022" cy="130.2000" r="0.3429" /> 
</g>
<g style="fill:#000000; fill-opacity:1.0000; stroke:none;">
<circle cx="199.5022" cy="145.5000" r="0.3429" /> 
</g>
<g style="fill:#000000; fill-opacity:1.0000; stroke:none;">
<circle cx="155.5272" cy="124.4000" r="0.3429" /> 
</g>
<g style="fill:#000000; fill-opacity:1.0000; stroke:none;">
<circle cx="219.2022" cy="142.4000" r="0.3429" /> 
</g>
<g style="fill:#000000; fill-opacity:1.0000; stroke:none;">
<circle cx="199.2662" cy="156.0602" r="0.3429" /> 
</g>
<g style="fill:#000000; fill-opacity:1.0000; stroke:none;">
<circle cx="180.4022" cy="141.7000" r="0.3429" /> 
</g>
<g style="fill:#000000; fill-opacity:1.0000; stroke:none;">
<circle cx="173.5022" cy="121.2329" r="0.3429" /> 
</g>
<g style="fill:#000000; fill-opacity:1.0000; stroke:none;">
<circle cx="222.2022" cy="146.5000" r="0.3429" /> 
</g>
<g style="fill:#000000; fill-opacity:1.0000; stroke:none;">
<circle cx="222.2022" cy="141.5000" r="0.3429" /> 
</g>
<g style="fill:#000000; fill-opacity:1.0000; stroke:none;">
<circle cx="155.5272" cy="134.4000" r="0.3429" /> 
</g>
<g style="fill:#000000; fill-opacity:1.0000; stroke:none;">
<circle cx="190.5022" cy="127.8000" r="0.3429" /> 
</g>
<g style="fill:#000000; fill-opacity:1.0000; stroke:none;">
<circle cx="175.2022" cy="144.0000" r="0.3429" /> 
</g>
<g style="fill:#000000; fill-opacity:1.0000; stroke:none;">
<circle cx="205.0022" cy="156.5126" r="0.3429" /> 
</g>
<g style="fill:#000000; fill-opacity:1.0000; stroke:none;">
<circle cx="222.2022" cy="149.0000" r="0.3429" /> 
</g>
<g style="fill:#000000; fill-opacity:1.0000; stroke:none;">
<circle cx="195.3022" cy="161.7224" r="0.3429" /> 
</g>
<g style="fill:#000000; fill-opacity:1.0000; stroke:none;">
<circle cx="171.3022" cy="152.9000" r="0.3429" /> 
</g>
<g style="fill:#000000; fill-opacity:1.0000; stroke:none;">
<circle cx="180.6022" cy="153.0000" r="0.3429" /> 
</g>
<g style="fill:#000000; fill-opacity:1.0000; stroke:none;">
<circle cx="185.0223" cy="157.6126" r="0.3429" /> 
</g>
<g style="fill:#000000; fill-opacity:1.0000; stroke:none;">
<circle cx="209.5022" cy="152.8000" r="0.3429" /> 
</g>
<g style="fill:#000000; fill-opacity:1.0000; stroke:none;">
<circle cx="201.3022" cy="157.5000" r="0.3429" /> 
</g>
<g style="fill:#000000; fill-opacity:1.0000; stroke:none;">
<circle cx="181.3022" cy="158.5000" r="0.3429" /> 
</g>
<g style="fill:#000000; fill-opacity:1.0000; stroke:none;">
<circle cx="171.2689" cy="137.3599" r="0.3429" /> 
</g>
<g style="fill:#000000; fill-opacity:1.0000; stroke:none;">
<circle cx="173.8056" cy="137.3177" r="0.3429" /> 
</g>
<g style="fill:#000000; fill-opacity:1.0000; stroke:none;">
<circle cx="210.5022" cy="151.5000" r="0.3429" /> 
</g>
<g style="fill:#000000; fill-opacity:1.0000; stroke:none;">
<circle cx="209.4522" cy="147.4500" r="0.3429" /> 
</g>
<g style="fill:#000000; fill-opacity:1.0000; stroke:none;">
<circle cx="212.0022" cy="147.5000" r="0.3429" /> 
</g>
<g style="fill:#000000; fill-opacity:1.0000; stroke:none;">
<circle cx="211.3722" cy="153.6810" r="0.3429" /> 
</g>
<g style="fill:#000000; fill-opacity:1.0000; stroke:none;">
<circle cx="213.9022" cy="153.6810" r="0.3429" /> 
</g>
<g style="fill:#000000; fill-opacity:1.0000; stroke:none;">
<circle cx="217.8022" cy="146.4000" r="0.3429" /> 
</g>
<g style="fill:#000000; fill-opacity:1.0000; stroke:none;">
<circle cx="208.9022" cy="151.0000" r="0.3429" /> 
</g>
<g style="fill:#000000; fill-opacity:1.0000; stroke:none;">
<circle cx="206.2922" cy="147.4181" r="0.3429" /> 
</g>
<g style="fill:#000000; fill-opacity:1.0000; stroke:none;">
<circle cx="205.7022" cy="151.2000" r="0.3429" /> 
</g>
<g style="fill:#000000; fill-opacity:1.0000; stroke:none;">
<circle cx="207.8704" cy="151.6318" r="0.3429" /> 
</g>
<g style="fill:none; 
stroke:#000000; stroke-width:0.7620; stroke-opacity:1; 
stroke-linecap:round; stroke-linejoin:round;">
<path d="M191.6172 157.1000
L190.5917 158.1255
" />
<path d="M190.5917 161.7695
L192.3222 163.5000
" />
<path d="M190.5917 158.1255
L190.5917 161.7695
" />
</g>
<g style="fill:none; 
stroke:#000000; stroke-width:0.3810; stroke-opacity:1; 
stroke-linecap:round; stroke-linejoin:round;">
<path d="M198.1646 161.7224
L195.3022 161.7224
" />
<path d="M199.9422 163.5000
L198.1646 161.7224
" />
<path d="M180.6022 153.0000
L171.4022 153.0000
" />
<path d="M171.4022 153.0000
L171.3022 152.9000
" />
<path d="M185.0223 161.2801
L185.0223 157.6126
" />
<path d="M187.2422 163.5000
L185.0223 161.2801
" />
<path d="M201.3022 157.5000
L206.0022 152.8000
" />
<path d="M181.3022 158.5000
L177.0022 158.5000
" />
<path d="M206.0022 152.8000
L209.5022 152.8000
" />
<path d="M177.0022 158.5000
L172.0022 163.5000
" />
<path d="M171.3288 137.3000
L173.7879 137.3000
" />
<path d="M173.7879 137.3000
L173.8056 137.3177
" />
<path d="M171.2689 137.3599
L171.3288 137.3000
" />
<path d="M210.0022 151.0000
L210.5022 151.5000
" />
<path d="M210.0022 148.6000
L210.0022 151.0000
" />
<path d="M209.4522 147.4500
L209.4522 148.0500
" />
<path d="M209.4522 148.0500
L210.0022 148.6000
" />
<path d="M211.9022 147.5000
L211.6022 147.8000
" />
<path d="M211.6022 153.3874
L211.3722 153.6174
" />
<path d="M211.6022 147.8000
L211.6022 153.3874
" />
<path d="M212.0022 147.5000
L211.9022 147.5000
" />
<path d="M217.8022 146.4000
L216.1436 148.0586
" />
<path d="M213.9122 153.6710
L213.9022 153.6810
" />
<path d="M216.1436 148.0586
L215.4022 148.0586
" />
<path d="M213.9122 149.5486
L213.9122 153.6710
" />
<path d="M215.4022 148.0586
L213.9122 149.5486
" />
<path d="M206.2922 147.4181
L206.2922 148.3900
" />
<path d="M206.2922 148.3900
L208.9022 151.0000
" />
<path d="M205.8022 151.2000
L205.7022 151.2000
" />
<path d="M207.6387 151.4000
L206.0022 151.4000
" />
<path d="M207.8704 151.6318
L207.6387 151.4000
" />
<path d="M206.0022 151.4000
L205.8022 151.2000
" />
<path style="fill:#000000; fill-opacity:1.0000; stroke:none;fill-rule:evenodd;"
d="M 142.4996,115.5006
142.0945,115.5174
142.0842,115.5182
141.6845,115.5680
141.6742,115.5698
141.2800,115.6524
141.2699,115.6550
140.8839,115.7699
140.8740,115.7733
140.4988,115.9197
140.4892,115.9239
140.1488,116.0903
140.1274,116.1008
140.1182,116.1057
139.7722,116.3119
139.7635,116.3176
139.6149,116.4237
139.4357,116.5517
139.4275,116.5581
139.1201,116.8184
139.1124,116.8254
138.8276,117.1102
138.8206,117.1179
138.5603,117.4253
138.5539,117.4335
138.3198,117.7613
138.3141,117.7700
138.1079,118.1160
138.1030,118.1252
137.9261,118.4870
137.9219,118.4966
137.7755,118.8718
137.7721,118.8817
137.6572,119.2677
137.6546,119.2778
137.5720,119.6720
137.5702,119.6823
137.5204,120.0820
137.5196,120.0924
137.5028,120.4974
137.5027,120.5026
137.5027,121.4125
137.5227,121.4806
137.5764,121.5271
137.6287,121.5385
138.1078,121.5385
138.3404,121.5720
138.5660,121.6382
138.7799,121.7358
138.9776,121.8629
139.1553,122.0169
139.3093,122.1946
139.4364,122.3923
139.5340,122.6062
139.6002,122.8318
139.6337,123.0644
139.6337,128.1256
139.6002,128.3582
139.5340,128.5838
139.4364,128.7977
139.3093,128.9954
139.1553,129.1731
138.9776,129.3270
138.7822,129.4527
138.7799,129.4541
138.5660,129.5518
138.3404,129.6180
138.1077,129.6515
138.0561,129.6515
137.6287,129.6515
137.5606,129.6715
137.5141,129.7252
137.5027,129.7775
137.5027,162.9041
137.5227,162.9722
137.5764,163.0187
137.6466,163.0288
137.7112,162.9993
137.7410,162.9613
137.8271,162.7922
137.9521,162.6202
137.9521,162.6202
137.9521,162.6202
138.1024,162.4699
138.1024,162.4699
138.1024,162.4699
138.2744,162.3449
138.4638,162.2484
138.6660,162.1828
138.8759,162.1495
139.0885,162.1495
139.2984,162.1828
139.2984,162.1828
139.2984,162.1828
139.5006,162.2484
139.5006,162.2484
139.6900,162.3450
139.8620,162.4699
139.8620,162.4699
140.0123,162.6202
140.0123,162.6202
140.1373,162.7922
140.1399,162.7975
140.1887,162.8491
140.2576,162.8661
140.3248,162.8432
140.3645,162.7975
140.3671,162.7922
140.3672,162.7922
140.4921,162.6202
140.4921,162.6202
140.4921,162.6202
140.6424,162.4699
140.6424,162.4699
140.6424,162.4699
140.8144,162.3449
141.0038,162.2484
141.2060,162.1828
141.4159,162.1495
141.6285,162.1495
141.8384,162.1828
141.8384,162.1828
141.8384,162.1828
142.0406,162.2484
142.0406,162.2484
142.2300,162.3450
142.4020,162.4699
142.4020,162.4699
142.5523,162.6202
142.5523,162.6202
142.6773,162.7922
142.6799,162.7975
142.7287,162.8491
142.7976,162.8661
142.8648,162.8432
142.9045,162.7975
142.9072,162.7922
142.9072,162.7922
143.0321,162.6202
143.0321,162.6202
143.0321,162.6202
143.1824,162.4699
143.1824,162.4699
143.1824,162.4699
143.3544,162.3449
143.5438,162.2484
143.7460,162.1828
143.9559,162.1495
144.1685,162.1495
144.3784,162.1828
144.3784,162.1828
144.3784,162.1828
144.5806,162.2484
144.5806,162.2484
144.7700,162.3450
144.9420,162.4699
144.9420,162.4699
145.0923,162.6202
145.0923,162.6202
145.2173,162.7922
145.2199,162.7975
145.2687,162.8491
145.3376,162.8661
145.4048,162.8432
145.4445,162.7975
145.4471,162.7922
145.4472,162.7922
145.5721,162.6202
145.5721,162.6202
145.5721,162.6202
145.7224,162.4699
145.7224,162.4699
145.7224,162.4699
145.8944,162.3449
146.0838,162.2484
146.2860,162.1828
146.4959,162.1495
146.7085,162.1495
146.9184,162.1828
146.9184,162.1828
146.9184,162.1828
147.1206,162.2484
147.1206,162.2484
147.3100,162.3450
147.4820,162.4699
147.4820,162.4699
147.6323,162.6202
147.6323,162.6202
147.7573,162.7922
147.7599,162.7975
147.8087,162.8491
147.8776,162.8661
147.9448,162.8432
147.9845,162.7975
147.9871,162.7922
147.9872,162.7922
148.1121,162.6202
148.1121,162.6202
148.1121,162.6202
148.2624,162.4699
148.2624,162.4699
148.2624,162.4699
148.4344,162.3449
148.6238,162.2484
148.8260,162.1828
149.0359,162.1495
149.2485,162.1495
149.4584,162.1828
149.4584,162.1828
149.4584,162.1828
149.6606,162.2484
149.6606,162.2484
149.8500,162.3450
150.0220,162.4699
150.0220,162.4699
150.1723,162.6202
150.1723,162.6202
150.2973,162.7922
150.2999,162.7975
150.3487,162.8491
150.4176,162.8661
150.4848,162.8432
150.5245,162.7975
150.5272,162.7922
150.5272,162.7922
150.6521,162.6202
150.6521,162.6202
150.6521,162.6202
150.8024,162.4699
150.8024,162.4699
150.8024,162.4699
150.9744,162.3449
151.1638,162.2484
151.3660,162.1828
151.5759,162.1495
151.7885,162.1495
151.9984,162.1828
151.9984,162.1828
151.9984,162.1828
152.2006,162.2484
152.2006,162.2484
152.3900,162.3450
152.5620,162.4699
152.5620,162.4699
152.7123,162.6202
152.7123,162.6202
152.8373,162.7922
152.8399,162.7975
152.8887,162.8491
152.9576,162.8661
153.0248,162.8432
153.0645,162.7975
153.0671,162.7922
153.0672,162.7922
153.1921,162.6202
153.1921,162.6202
153.1921,162.6202
153.3424,162.4699
153.3424,162.4699
153.3424,162.4699
153.5144,162.3449
153.7038,162.2484
153.9060,162.1828
154.1159,162.1495
154.3285,162.1495
154.5384,162.1828
154.5384,162.1828
154.5384,162.1828
154.7406,162.2484
154.7406,162.2484
154.9300,162.3450
155.1020,162.4699
155.1020,162.4699
155.2523,162.6202
155.2523,162.6202
155.3773,162.7922
155.3799,162.7975
155.4287,162.8491
155.4976,162.8661
155.5648,162.8432
155.6045,162.7975
155.6071,162.7922
155.6072,162.7922
155.7321,162.6202
155.7321,162.6202
155.7321,162.6202
155.8824,162.4699
155.8824,162.4699
155.8824,162.4699
156.0544,162.3449
156.2438,162.2484
156.4460,162.1828
156.6559,162.1495
156.8685,162.1495
157.0784,162.1828
157.0784,162.1828
157.0784,162.1828
157.2806,162.2484
157.2806,162.2484
157.4700,162.3450
157.6420,162.4699
157.6420,162.4699
157.7923,162.6202
157.7923,162.6202
157.9173,162.7922
157.9199,162.7975
157.9687,162.8491
158.0376,162.8661
158.1048,162.8432
158.1445,162.7975
158.1471,162.7922
158.1472,162.7922
158.2721,162.6202
158.2721,162.6202
158.2721,162.6202
158.4224,162.4699
158.4224,162.4699
158.4224,162.4699
158.5944,162.3449
158.7838,162.2484
158.9860,162.1828
159.1959,162.1495
159.4085,162.1495
159.6184,162.1828
159.6184,162.1828
159.6184,162.1828
159.8206,162.2484
159.8206,162.2484
160.0100,162.3450
160.1820,162.4699
160.1820,162.4699
160.3323,162.6202
160.3323,162.6202
160.4573,162.7922
160.4599,162.7975
160.5087,162.8491
160.5776,162.8661
160.6448,162.8432
160.6845,162.7975
160.6872,162.7922
160.6872,162.7922
160.8121,162.6202
160.8121,162.6202
160.8121,162.6202
160.9624,162.4699
160.9624,162.4699
160.9624,162.4699
161.1344,162.3449
161.3238,162.2484
161.5260,162.1828
161.7359,162.1495
161.9485,162.1495
162.1584,162.1828
162.1584,162.1828
162.1584,162.1828
162.3606,162.2484
162.3606,162.2484
162.5500,162.3450
162.7220,162.4699
162.7220,162.4699
162.8723,162.6202
162.8723,162.6202
162.9973,162.7922
162.9999,162.7975
163.0487,162.8491
163.1176,162.8661
163.1848,162.8432
163.2245,162.7975
163.2271,162.7922
163.2272,162.7922
163.3521,162.6202
163.3521,162.6202
163.3521,162.6202
163.5024,162.4699
163.5024,162.4699
163.5024,162.4699
163.6744,162.3449
163.8638,162.2484
164.0660,162.1828
164.2759,162.1495
164.4885,162.1495
164.6984,162.1828
164.6984,162.1828
164.6984,162.1828
164.9006,162.2484
164.9006,162.2484
165.0900,162.3450
165.2620,162.4699
165.2620,162.4699
165.4123,162.6202
165.4123,162.6202
165.5373,162.7922
165.5399,162.7975
165.5887,162.8491
165.6576,162.8661
165.7248,162.8432
165.7645,162.7975
165.7671,162.7922
165.7672,162.7922
165.8921,162.6202
165.8921,162.6202
165.8921,162.6202
166.0424,162.4699
166.0424,162.4699
166.0424,162.4699
166.2144,162.3449
166.4038,162.2484
166.6060,162.1828
166.8159,162.1495
167.0285,162.1495
167.2384,162.1828
167.2384,162.1828
167.2384,162.1828
167.4406,162.2484
167.4406,162.2484
167.6300,162.3450
167.8020,162.4699
167.8020,162.4699
167.9523,162.6202
167.9523,162.6202
168.0773,162.7922
168.0799,162.7975
168.1287,162.8491
168.1976,162.8661
168.2648,162.8432
168.3045,162.7975
168.3071,162.7922
168.3072,162.7922
168.4321,162.6202
168.4321,162.6202
168.4321,162.6202
168.5824,162.4699
168.5824,162.4699
168.5824,162.4699
168.7544,162.3449
168.9438,162.2484
169.1460,162.1828
169.3559,162.1495
169.5685,162.1495
169.7784,162.1828
169.7784,162.1828
169.7784,162.1828
169.9806,162.2484
169.9806,162.2484
170.1700,162.3450
170.3420,162.4699
170.3420,162.4699
170.4923,162.6202
170.4923,162.6202
170.6173,162.7922
170.6199,162.7975
170.6687,162.8491
170.7376,162.8661
170.8048,162.8432
170.8445,162.7975
170.8471,162.7922
170.8472,162.7922
170.9721,162.6202
170.9721,162.6202
170.9721,162.6202
171.1224,162.4699
171.1224,162.4699
171.1224,162.4699
171.2944,162.3449
171.4838,162.2484
171.6860,162.1828
171.8959,162.1495
172.1085,162.1495
172.2756,162.1760
172.3460,162.1669
172.3844,162.1406
176.5617,157.9633
176.5617,157.9633
176.5631,157.9624
176.6749,157.8876
176.7214,157.8684
176.8006,157.8356
176.8006,157.8356
176.9341,157.8090
176.9341,157.8090
180.7801,157.8090
180.8482,157.7890
180.8501,157.7878
180.9027,157.7526
181.0562,157.6890
181.0562,157.6890
181.2191,157.6566
181.2191,157.6566
181.3853,157.6566
181.3853,157.6566
181.5482,157.6890
181.5482,157.6890
181.7017,157.7526
181.8398,157.8449
181.8398,157.8449
181.9573,157.9624
181.9573,157.9624
182.0496,158.1005
182.1132,158.2540
182.1132,158.2540
182.1456,158.4169
182.1456,158.4169
182.1456,158.5831
182.1132,158.7460
182.0496,158.8995
181.9879,158.9918
181.9573,159.0376
181.9573,159.0376
181.8398,159.1551
181.8398,159.1551
181.7017,159.2474
181.5482,159.3110
181.3853,159.3434
181.3853,159.3434
181.2191,159.3434
181.2191,159.3434
181.0562,159.3110
180.9027,159.2474
180.8501,159.2122
180.7823,159.1910
180.7801,159.1910
177.3406,159.1910
177.2725,159.2110
177.2515,159.2279
174.5450,161.9344
174.5110,161.9967
174.5161,162.0675
174.5586,162.1244
174.6251,162.1492
174.6341,162.1495
174.6485,162.1495
174.8584,162.1828
174.8584,162.1828
174.8584,162.1828
175.0606,162.2484
175.0606,162.2484
175.2500,162.3450
175.4220,162.4699
175.4220,162.4699
175.5723,162.6202
175.5723,162.6202
175.6973,162.7922
175.6999,162.7975
175.7487,162.8491
175.8176,162.8661
175.8848,162.8432
175.9245,162.7975
175.9271,162.7922
175.9272,162.7922
176.0521,162.6202
176.0521,162.6202
176.0521,162.6202
176.2024,162.4699
176.2024,162.4699
176.2024,162.4699
176.3744,162.3449
176.5638,162.2484
176.7660,162.1828
176.9759,162.1495
177.1885,162.1495
177.3984,162.1828
177.3984,162.1828
177.3984,162.1828
177.6006,162.2484
177.6006,162.2484
177.7900,162.3450
177.9620,162.4699
177.9620,162.4699
178.1123,162.6202
178.1123,162.6202
178.2373,162.7922
178.2399,162.7975
178.2887,162.8491
178.3576,162.8661
178.4248,162.8432
178.4645,162.7975
178.4672,162.7922
178.4672,162.7922
178.5921,162.6202
178.5921,162.6202
178.5921,162.6202
178.7424,162.4699
178.7424,162.4699
178.7424,162.4699
178.9144,162.3449
179.1038,162.2484
179.3060,162.1828
179.5159,162.1495
179.7285,162.1495
179.9384,162.1828
179.9384,162.1828
179.9384,162.1828
180.1406,162.2484
180.1406,162.2484
180.3300,162.3450
180.5020,162.4699
180.5020,162.4699
180.6523,162.6202
180.6523,162.6202
180.7773,162.7922
180.7799,162.7975
180.8287,162.8491
180.8976,162.8661
180.9648,162.8432
181.0045,162.7975
181.0071,162.7922
181.0072,162.7922
181.1321,162.6202
181.1321,162.6202
181.1321,162.6202
181.2824,162.4699
181.2824,162.4699
181.2824,162.4699
181.4544,162.3449
181.6438,162.2484
181.8460,162.1828
182.0559,162.1495
182.2685,162.1495
182.4784,162.1828
182.4784,162.1828
182.4784,162.1828
182.6806,162.2484
182.6806,162.2484
182.8700,162.3450
183.0420,162.4699
183.0420,162.4699
183.1923,162.6202
183.1923,162.6202
183.3173,162.7922
183.3199,162.7975
183.3687,162.8491
183.4376,162.8661
183.5048,162.8432
183.5445,162.7975
183.5471,162.7922
183.5472,162.7922
183.6721,162.6202
183.6721,162.6202
183.6721,162.6202
183.8224,162.4699
183.8224,162.4699
183.8224,162.4699
183.9944,162.3449
184.1838,162.2484
184.3860,162.1828
184.5959,162.1495
184.6103,162.1495
184.6784,162.1295
184.7249,162.0758
184.7350,162.0056
184.7055,161.9410
184.6994,161.9344
184.4856,161.7206
184.4856,161.7206
184.4856,161.7206
184.4100,161.6074
184.3579,161.4817
184.3313,161.3482
184.3313,161.2121
184.3313,158.1347
184.3113,158.0666
184.3101,158.0648
184.2749,158.0121
184.2113,157.8586
184.1789,157.6957
184.1789,157.5295
184.2113,157.3666
184.2749,157.2131
184.3672,157.0750
184.3672,157.0750
184.4847,156.9575
184.4847,156.9575
184.5305,156.9269
184.6228,156.8652
184.7763,156.8016
184.9392,156.7692
184.9392,156.7692
185.1054,156.7692
185.1054,156.7692
185.2683,156.8016
185.2683,156.8016
185.4218,156.8652
185.5600,156.9575
185.5600,156.9575
185.6774,157.0750
185.6774,157.0750
185.7697,157.2131
185.8333,157.3666
185.8333,157.3666
185.8657,157.5295
185.8657,157.6957
185.8333,157.8586
185.8333,157.8586
185.7697,158.0121
185.7697,158.0121
185.7697,158.0121
185.7346,158.0647
185.7133,158.1325
185.7133,158.1347
185.7133,160.9417
185.7333,161.0098
185.7502,161.0308
186.8600,162.1406
186.9223,162.1746
186.9688,162.1760
187.1359,162.1495
187.3485,162.1495
187.5584,162.1828
187.5584,162.1828
187.5584,162.1828
187.7606,162.2484
187.7606,162.2484
187.9500,162.3450
188.1220,162.4699
188.1220,162.4699
188.2723,162.6202
188.2723,162.6202
188.3973,162.7922
188.3999,162.7975
188.4487,162.8491
188.5176,162.8661
188.5848,162.8432
188.6245,162.7975
188.6272,162.7922
188.6272,162.7922
188.7521,162.6202
188.7521,162.6202
188.7521,162.6202
188.9024,162.4699
188.9024,162.4699
188.9024,162.4699
189.0744,162.3449
189.2638,162.2484
189.4660,162.1828
189.6363,162.1558
189.7004,162.1254
189.7379,162.0651
189.7401,162.0068
189.7102,161.8563
189.7102,161.6827
189.7102,158.0387
189.7104,158.0376
189.7441,157.8684
189.8105,157.7080
189.9070,157.5636
189.9070,157.5636
189.9070,157.5636
191.0553,156.4153
191.0553,156.4153
191.1997,156.3188
191.3601,156.2524
191.3601,156.2524
191.5304,156.2185
191.5304,156.2185
191.7040,156.2185
191.7040,156.2185
191.8743,156.2524
191.8743,156.2524
192.0348,156.3188
192.1791,156.4153
192.1791,156.4153
192.3019,156.5381
192.3019,156.5381
192.3984,156.6825
192.4648,156.8429
192.4648,156.8429
192.4987,157.0132
192.4987,157.1868
192.4648,157.3571
192.4648,157.3571
192.3984,157.5175
192.3019,157.6619
191.5101,158.4537
191.4761,158.5160
191.4732,158.5428
191.4732,161.3522
191.4932,161.4203
191.5101,161.4413
192.1814,162.1126
192.2437,162.1466
192.2705,162.1495
192.4285,162.1495
192.6384,162.1828
192.6384,162.1828
192.6384,162.1828
192.8406,162.2484
192.8406,162.2484
193.0300,162.3450
193.2020,162.4699
193.2020,162.4699
193.3523,162.6202
193.3523,162.6202
193.4772,162.7922
193.5738,162.9816
193.5738,162.9816
193.5858,163.0187
193.6394,163.1838
193.6727,163.3937
193.6727,163.6063
193.6394,163.8162
193.5738,164.0184
193.5343,164.0959
193.4772,164.2078
193.4107,164.2994
193.3868,164.3663
193.4029,164.4355
193.4538,164.4849
193.5126,164.4995
196.2118,164.4995
196.2799,164.4795
196.3264,164.4258
196.3365,164.3556
196.3137,164.2994
196.2471,164.2078
196.1506,164.0184
196.0850,163.8162
196.0517,163.6063
196.0517,163.3937
196.0850,163.1838
196.1506,162.9816
196.2471,162.7922
196.3721,162.6202
196.3721,162.6202
196.3750,162.6162
196.3739,162.6154
196.4003,162.5564
196.3896,162.4862
196.3428,162.4329
196.2754,162.4134
195.8243,162.4134
195.7562,162.4334
195.7543,162.4346
195.7017,162.4698
195.5482,162.5334
195.3853,162.5658
195.3853,162.5658
195.2191,162.5658
195.2191,162.5658
195.0562,162.5334
194.9027,162.4698
194.7646,162.3775
194.6471,162.2600
194.5548,162.1219
194.4912,161.9684
194.4588,161.8055
194.4588,161.6393
194.4912,161.4764
194.5548,161.3229
194.6471,161.1848
194.6471,161.1848
194.7646,161.0673
194.7646,161.0673
194.8192,161.0308
194.9027,160.9750
195.0562,160.9114
195.2191,160.8790
195.2191,160.8790
195.3853,160.8790
195.3853,160.8790
195.5482,160.9114
195.5482,160.9114
195.7017,160.9750
195.7543,161.0102
195.8221,161.0314
195.8243,161.0314
198.2327,161.0314
198.3662,161.0580
198.3662,161.0580
198.4919,161.1100
198.6051,161.1857
199.5600,162.1406
199.6223,162.1746
199.6688,162.1760
199.7647,162.1608
199.8359,162.1495
200.0485,162.1495
200.2584,162.1828
200.2584,162.1828
200.2584,162.1828
200.4606,162.2484
200.4606,162.2484
200.6500,162.3450
200.8220,162.4699
200.8220,162.4699
200.9723,162.6202
200.9723,162.6202
201.0973,162.7922
201.0999,162.7975
201.1487,162.8491
201.2176,162.8661
201.2848,162.8432
201.3245,162.7975
201.3271,162.7922
201.3272,162.7922
201.4521,162.6202
201.4521,162.6202
201.4521,162.6202
201.6024,162.4699
201.6024,162.4699
201.6024,162.4699
201.7744,162.3449
201.9638,162.2484
202.1660,162.1828
202.3759,162.1495
202.5885,162.1495
202.7984,162.1828
202.7984,162.1828
202.7984,162.1828
203.0006,162.2484
203.0006,162.2484
203.1900,162.3450
203.3620,162.4699
203.3620,162.4699
203.5123,162.6202
203.5123,162.6202
203.6373,162.7922
203.6399,162.7975
203.6887,162.8491
203.7576,162.8661
203.8248,162.8432
203.8645,162.7975
203.8671,162.7922
203.8672,162.7922
203.9921,162.6202
203.9921,162.6202
203.9921,162.6202
204.1424,162.4699
204.1424,162.4699
204.1424,162.4699
204.3144,162.3449
204.5038,162.2484
204.7060,162.1828
204.9159,162.1495
205.1285,162.1495
205.3384,162.1828
205.3384,162.1828
205.3384,162.1828
205.5406,162.2484
205.5406,162.2484
205.7300,162.3450
205.9020,162.4699
205.9020,162.4699
206.0523,162.6202
206.0523,162.6202
206.1773,162.7922
206.1799,162.7975
206.2287,162.8491
206.2976,162.8661
206.3648,162.8432
206.4045,162.7975
206.4072,162.7922
206.4072,162.7922
206.5321,162.6202
206.5321,162.6202
206.5321,162.6202
206.6824,162.4699
206.6824,162.4699
206.6824,162.4699
206.8544,162.3449
207.0438,162.2484
207.2460,162.1828
207.4559,162.1495
207.6685,162.1495
207.8784,162.1828
207.8784,162.1828
207.8784,162.1828
208.0806,162.2484
208.0806,162.2484
208.2700,162.3450
208.4420,162.4699
208.4420,162.4699
208.5923,162.6202
208.5923,162.6202
208.7173,162.7922
208.7199,162.7975
208.7687,162.8491
208.8376,162.8661
208.9048,162.8432
208.9445,162.7975
208.9471,162.7922
208.9472,162.7922
209.0721,162.6202
209.0721,162.6202
209.0721,162.6202
209.2224,162.4699
209.2224,162.4699
209.2224,162.4699
209.3944,162.3449
209.5838,162.2484
209.7860,162.1828
209.9959,162.1495
210.2085,162.1495
210.4184,162.1828
210.4184,162.1828
210.4184,162.1828
210.6206,162.2484
210.6206,162.2484
210.8100,162.3450
210.9820,162.4699
210.9820,162.4699
211.1323,162.6202
211.1323,162.6202
211.2573,162.7922
211.2599,162.7975
211.3087,162.8491
211.3776,162.8661
211.4448,162.8432
211.4845,162.7975
211.4871,162.7922
211.4872,162.7922
211.6121,162.6202
211.6121,162.6202
211.6121,162.6202
211.7624,162.4699
211.7624,162.4699
211.7624,162.4699
211.9344,162.3449
212.1238,162.2484
212.3260,162.1828
212.5359,162.1495
212.7485,162.1495
212.9584,162.1828
212.9584,162.1828
212.9584,162.1828
213.1606,162.2484
213.1606,162.2484
213.3500,162.3450
213.5220,162.4699
213.5220,162.4699
213.6723,162.6202
213.6723,162.6202
213.7973,162.7922
213.7999,162.7975
213.8487,162.8491
213.9176,162.8661
213.9848,162.8432
214.0245,162.7975
214.0271,162.7922
214.0272,162.7922
214.1521,162.6202
214.1521,162.6202
214.1521,162.6202
214.3024,162.4699
214.3024,162.4699
214.3024,162.4699
214.4744,162.3449
214.6638,162.2484
214.8660,162.1828
215.0759,162.1495
215.2885,162.1495
215.4984,162.1828
215.4984,162.1828
215.4984,162.1828
215.7006,162.2484
215.7006,162.2484
215.8900,162.3450
216.0620,162.4699
216.0620,162.4699
216.2123,162.6202
216.2123,162.6202
216.3373,162.7922
216.3399,162.7975
216.3887,162.8491
216.4576,162.8661
216.5248,162.8432
216.5645,162.7975
216.5671,162.7922
216.5672,162.7922
216.6921,162.6202
216.6921,162.6202
216.6921,162.6202
216.8424,162.4699
216.8424,162.4699
216.8424,162.4699
217.0144,162.3449
217.2038,162.2484
217.4060,162.1828
217.6159,162.1495
217.8285,162.1495
218.0384,162.1828
218.0384,162.1828
218.0384,162.1828
218.2406,162.2484
218.2406,162.2484
218.4300,162.3450
218.6020,162.4699
218.6020,162.4699
218.7523,162.6202
218.7523,162.6202
218.8773,162.7922
218.8799,162.7975
218.9287,162.8491
218.9976,162.8661
219.0648,162.8432
219.1045,162.7975
219.1071,162.7922
219.1072,162.7922
219.2321,162.6202
219.2321,162.6202
219.2321,162.6202
219.3824,162.4699
219.3824,162.4699
219.3824,162.4699
219.5544,162.3449
219.7438,162.2484
219.9460,162.1828
220.1559,162.1495
220.3685,162.1495
220.5784,162.1828
220.5784,162.1828
220.5784,162.1828
220.7806,162.2484
220.7806,162.2484
220.9700,162.3450
221.1420,162.4699
221.1420,162.4699
221.2923,162.6202
221.2923,162.6202
221.4173,162.7922
221.4199,162.7975
221.4687,162.8491
221.5376,162.8661
221.6048,162.8432
221.6445,162.7975
221.6471,162.7922
221.6472,162.7922
221.7721,162.6202
221.7721,162.6202
221.7721,162.6202
221.9224,162.4699
221.9224,162.4699
221.9224,162.4699
222.0944,162.3449
222.2838,162.2484
222.4860,162.1828
222.6959,162.1495
222.9085,162.1495
223.1184,162.1828
223.1184,162.1828
223.1184,162.1828
223.3206,162.2484
223.3206,162.2484
223.5100,162.3450
223.6820,162.4699
223.6820,162.4699
223.8323,162.6202
223.8323,162.6202
223.9573,162.7922
223.9599,162.7975
224.0087,162.8491
224.0776,162.8661
224.1448,162.8432
224.1845,162.7975
224.1872,162.7922
224.1872,162.7922
224.3121,162.6202
224.3121,162.6202
224.3121,162.6202
224.4624,162.4699
224.4624,162.4699
224.4624,162.4699
224.6344,162.3449
224.8238,162.2484
225.0260,162.1828
225.2359,162.1495
225.4485,162.1495
225.6584,162.1828
225.6584,162.1828
225.6584,162.1828
225.8606,162.2484
225.8606,162.2484
226.0500,162.3450
226.2220,162.4699
226.2220,162.4699
226.3723,162.6202
226.3723,162.6202
226.4973,162.7922
226.4999,162.7975
226.5487,162.8491
226.6176,162.8661
226.6848,162.8432
226.7245,162.7975
226.7271,162.7922
226.7272,162.7922
226.8521,162.6202
226.8521,162.6202
226.8521,162.6202
227.0024,162.4699
227.0024,162.4699
227.0024,162.4699
227.1744,162.3449
227.3638,162.2484
227.5660,162.1828
227.7759,162.1495
227.9885,162.1495
228.1984,162.1828
228.1984,162.1828
228.1984,162.1828
228.4006,162.2484
228.4006,162.2484
228.5900,162.3450
228.7620,162.4699
228.7620,162.4699
228.9123,162.6202
228.9123,162.6202
229.0373,162.7922
229.0399,162.7975
229.0887,162.8491
229.1576,162.8661
229.2248,162.8432
229.2645,162.7975
229.2671,162.7922
229.2672,162.7922
229.3921,162.6202
229.3921,162.6202
229.3921,162.6202
229.5424,162.4699
229.5424,162.4699
229.5424,162.4699
229.7144,162.3449
229.9038,162.2484
230.1060,162.1828
230.3159,162.1495
230.5285,162.1495
230.7384,162.1828
230.7384,162.1828
230.7384,162.1828
230.9406,162.2484
230.9406,162.2484
231.1300,162.3450
231.3020,162.4699
231.3020,162.4699
231.4523,162.6202
231.4523,162.6202
231.5773,162.7922
231.5799,162.7975
231.6287,162.8491
231.6976,162.8661
231.7648,162.8432
231.8045,162.7975
231.8071,162.7922
231.8072,162.7922
231.9321,162.6202
231.9321,162.6202
231.9321,162.6202
232.0824,162.4699
232.0824,162.4699
232.0824,162.4699
232.2544,162.3449
232.4438,162.2484
232.6460,162.1828
232.8559,162.1495
233.0685,162.1495
233.2784,162.1828
233.2784,162.1828
233.2784,162.1828
233.4806,162.2484
233.4806,162.2484
233.6700,162.3450
233.8420,162.4699
233.9533,162.5812
234.0156,162.6153
234.0865,162.6102
234.1433,162.5676
234.1605,162.5362
234.2084,162.4077
234.2084,162.4077
234.2084,162.4077
234.2554,162.3449
234.2947,162.2925
234.3716,162.2348
234.4099,162.2062
234.4099,162.2062
234.4099,162.2062
234.5447,162.1559
234.5447,162.1559
234.6043,162.1495
236.3757,162.1495
236.4438,162.1295
236.4903,162.0758
236.5017,162.0235
236.5017,141.3537
235.8927,141.3537
235.8927,141.5663
235.8594,141.7762
235.7938,141.9784
235.6973,142.1678
235.5723,142.3398
235.5723,142.3398
235.5723,142.3398
235.4220,142.4901
235.4220,142.4901
235.4220,142.4901
235.2500,142.6151
235.2469,142.6166
235.2447,142.6177
235.1931,142.6665
235.1761,142.7354
235.1990,142.8026
235.2447,142.8423
235.2500,142.8449
235.4220,142.9699
235.4220,142.9699
235.5723,143.1202
235.5723,143.1202
235.6972,143.2922
235.6973,143.2922
235.7938,143.4816
235.8594,143.6838
235.8927,143.8937
235.8927,144.1063
235.8594,144.3162
235.7938,144.5184
235.6973,144.7078
235.5723,144.8798
235.5723,144.8798
235.5723,144.8798
235.4220,145.0301
235.4220,145.0301
235.4220,145.0301
235.2500,145.1551
235.2469,145.1566
235.2447,145.1577
235.1931,145.2065
235.1761,145.2754
235.1990,145.3426
235.2447,145.3823
235.2500,145.3849
235.4220,145.5099
235.4220,145.5099
235.5723,145.6602
235.5723,145.6602
235.6972,145.8322
235.6973,145.8322
235.7938,146.0216
235.8594,146.2238
235.8927,146.4337
235.8927,146.6463
235.8594,146.8562
235.7938,147.0584
235.6973,147.2478
235.6972,147.2478
235.6928,147.2540
235.5723,147.4198
235.5723,147.4198
235.5723,147.4198
235.4220,147.5701
235.4220,147.5701
235.4220,147.5701
235.2500,147.6951
235.2481,147.6960
235.2447,147.6977
235.1931,147.7465
235.1761,147.8154
235.1990,147.8826
235.2447,147.9223
235.2500,147.9249
235.4220,148.0499
235.4220,148.0499
235.5723,148.2002
235.5723,148.2002
235.6972,148.3722
235.7938,148.5616
235.7938,148.5616
235.8549,148.7496
235.8594,148.7638
235.8927,148.9737
235.8927,149.1863
235.8594,149.3962
235.7938,149.5984
235.6973,149.7878
235.6972,149.7878
235.6664,149.8303
235.5723,149.9598
235.5723,149.9598
235.5723,149.9598
235.4220,150.1101
235.4220,150.1101
235.4220,150.1101
235.2500,150.2351
235.2469,150.2366
235.2447,150.2377
235.1931,150.2865
235.1761,150.3554
235.1990,150.4226
235.2447,150.4623
235.2500,150.4649
235.4220,150.5899
235.4220,150.5899
235.5723,150.7402
235.5723,150.7402
235.6972,150.9122
235.7938,151.1016
235.7938,151.1016
235.8527,151.2831
235.8594,151.3038
235.8927,151.5137
235.8927,151.7263
235.8594,151.9362
235.7938,152.1384
235.6973,152.3278
235.5723,152.4998
235.5723,152.4998
235.5723,152.4998
235.4220,152.6501
235.4220,152.6501
235.4220,152.6501
235.2500,152.7751
235.2487,152.7757
235.2447,152.7777
235.1931,152.8265
235.1761,152.8954
235.1990,152.9626
235.2447,153.0023
235.2500,153.0049
235.4220,153.1299
235.4220,153.1299
235.5723,153.2802
235.5723,153.2802
235.6972,153.4522
235.7938,153.6416
235.7938,153.6416
235.8336,153.7641
235.8594,153.8438
235.8927,154.0537
235.8927,154.2663
235.8594,154.4762
235.7938,154.6784
235.6973,154.8678
235.5723,155.0398
235.5723,155.0398
235.5723,155.0398
235.4220,155.1901
235.4220,155.1901
235.4220,155.1901
235.2500,155.3151
235.0606,155.4116
234.8584,155.4772
234.6485,155.5105
234.6485,155.5105
234.4359,155.5105
234.4359,155.5105
234.2260,155.4772
234.0238,155.4116
233.8344,155.3151
233.6624,155.1901
233.5511,155.0788
233.4888,155.0447
233.4179,155.0498
233.3611,155.0924
233.3439,155.1238
233.2960,155.2523
233.2960,155.2523
233.2097,155.3675
233.1521,155.4107
233.0945,155.4538
233.0945,155.4538
233.0945,155.4538
233.0342,155.4763
232.9597,155.5041
232.9597,155.5041
232.9001,155.5105
231.1043,155.5105
231.0447,155.5041
230.9099,155.4538
230.7947,155.3675
230.7084,155.2523
230.6581,155.1175
230.6517,155.0579
230.6517,153.2621
230.6581,153.2025
230.6852,153.1299
230.7084,153.0677
230.7084,153.0677
230.7084,153.0677
230.7592,152.9998
230.7947,152.9525
230.8873,152.8831
230.9099,152.8662
230.9099,152.8662
230.9099,152.8662
231.0384,152.8183
231.0952,152.7757
231.1200,152.7092
231.1049,152.6398
231.0834,152.6111
230.9721,152.4998
230.8471,152.3278
230.7506,152.1384
230.6850,151.9362
230.6517,151.7263
230.6517,151.5137
230.6850,151.3038
230.7506,151.1016
230.8471,150.9122
230.9721,150.7402
230.9721,150.7402
230.9721,150.7402
231.1224,150.5899
231.1224,150.5899
231.1224,150.5899
231.2944,150.4649
231.2996,150.4623
231.3513,150.4135
231.3683,150.3446
231.3454,150.2774
231.2996,150.2377
231.2944,150.2351
231.1224,150.1101
230.9721,149.9598
230.8471,149.7878
230.7506,149.5984
230.6850,149.3962
230.6517,149.1863
230.6517,148.9737
230.6850,148.7638
230.7506,148.5616
230.8471,148.3722
230.9721,148.2002
230.9721,148.2002
230.9721,148.2002
231.1224,148.0499
231.1224,148.0499
231.1224,148.0499
231.2944,147.9249
231.2996,147.9223
231.3513,147.8735
231.3683,147.8046
231.3454,147.7374
231.2996,147.6977
231.2944,147.6951
231.1224,147.5701
230.9721,147.4198
230.8471,147.2478
230.7506,147.0584
230.6850,146.8562
230.6517,146.6463
230.6517,146.4337
230.6702,146.3169
218.6456,146.3169
218.6456,146.3169
218.6456,146.4831
218.6132,146.6460
218.5496,146.7995
218.5193,146.8449
218.4573,146.9376
218.4573,146.9376
218.3398,147.0551
218.3398,147.0551
218.2017,147.1474
218.0482,147.2110
217.9861,147.2233
217.9232,147.2562
217.9216,147.2578
216.5841,148.5954
216.4709,148.6710
216.3451,148.7231
216.3376,148.7246
216.3261,148.7268
216.3261,148.7268
216.2116,148.7496
215.7406,148.7496
215.6725,148.7696
215.6515,148.7865
214.6401,149.7979
214.6061,149.8602
214.6032,149.8870
214.6032,153.1738
214.6232,153.2419
214.6244,153.2438
214.6306,153.2530
214.6496,153.2815
214.7132,153.4350
214.7132,153.4350
214.7456,153.5979
214.7456,153.5979
214.7456,153.7641
214.7132,153.9270
214.6496,154.0805
214.5879,154.1728
214.5573,154.2186
214.5573,154.2186
214.4398,154.3361
214.4398,154.3361
214.3017,154.4284
214.1482,154.4920
213.9853,154.5244
213.9853,154.5244
213.8191,154.5244
213.8191,154.5244
213.6562,154.4920
213.5027,154.4284
213.3646,154.3361
213.2471,154.2186
213.1548,154.0805
213.0912,153.9270
213.0588,153.7641
213.0588,153.5979
213.0912,153.4350
213.1548,153.2815
213.2000,153.2139
213.2212,153.1461
213.2212,153.1439
213.2212,149.4806
213.2212,149.4806
213.2380,149.3962
213.2478,149.3471
213.2998,149.2213
213.3755,149.1081
213.3755,149.1081
213.3755,149.1081
214.9617,147.5219
214.9617,147.5219
214.9617,147.5219
215.0749,147.4463
215.1457,147.4169
212.8456,147.4169
212.8456,147.5831
212.8231,147.6960
212.8132,147.7460
212.7496,147.8995
212.6879,147.9918
212.6573,148.0376
212.6573,148.0376
212.5398,148.1551
212.5398,148.1551
212.4017,148.2474
212.4017,148.2474
212.4017,148.2474
212.3710,148.2601
212.3157,148.3047
212.2933,148.3720
212.2932,148.3765
212.2932,153.4555
212.2819,153.5122
212.2764,153.5400
212.2666,153.5890
212.2666,153.5890
212.2666,153.5890
212.2252,153.6890
212.2156,153.7373
212.2156,153.7641
212.1832,153.9270
212.1196,154.0805
212.0579,154.1728
212.0273,154.2186
212.0273,154.2186
211.9098,154.3361
211.9098,154.3361
211.7717,154.4284
211.6182,154.4920
211.4553,154.5244
211.4553,154.5244
211.2891,154.5244
211.2891,154.5244
211.1262,154.4920
210.9727,154.4284
210.8346,154.3361
210.7171,154.2186
210.6248,154.0805
210.5612,153.9270
210.5288,153.7641
210.5288,153.5979
210.5612,153.4350
210.6248,153.2815
210.7171,153.1434
210.7171,153.1434
210.8346,153.0259
210.8346,153.0259
210.8552,153.0121
210.9007,152.9576
210.9112,152.9073
210.9112,152.4314
210.8912,152.3633
210.8375,152.3168
210.7673,152.3067
210.7486,152.3109
210.7482,152.3110
210.7482,152.3110
210.5853,152.3434
210.5853,152.3434
210.4145,152.3434
210.3464,152.3634
210.2999,152.4171
210.2898,152.4873
210.2981,152.5176
210.3132,152.5540
210.3132,152.5540
210.3456,152.7169
210.3456,152.8831
210.3219,153.0023
210.3132,153.0460
210.2496,153.1995
210.2217,153.2412
210.1573,153.3376
210.1573,153.3376
210.0398,153.4551
210.0398,153.4551
209.9017,153.5474
209.7482,153.6110
209.5853,153.6434
209.5853,153.6434
209.4191,153.6434
209.4191,153.6434
209.2562,153.6110
209.1027,153.5474
209.0501,153.5122
208.9823,153.4910
208.9801,153.4910
206.3406,153.4910
206.2725,153.5110
206.2515,153.5279
202.1600,157.6194
202.1260,157.6817
202.1255,157.6839
202.1132,157.7460
202.1132,157.7460
202.0496,157.8995
202.0070,157.9633
201.9573,158.0376
201.9573,158.0376
201.8398,158.1551
201.8398,158.1551
201.7017,158.2474
201.5482,158.3110
201.3853,158.3434
201.3853,158.3434
201.2191,158.3434
201.2191,158.3434
201.0562,158.3110
200.9027,158.2474
200.7646,158.1551
200.6471,158.0376
200.5548,157.8995
200.4912,157.7460
200.4588,157.5831
200.4588,157.4169
200.4912,157.2540
200.5548,157.1005
200.6471,156.9624
200.6471,156.9624
200.7646,156.8449
200.7646,156.8449
200.8778,156.7692
200.9027,156.7526
200.9995,156.7125
201.0562,156.6890
201.0562,156.6890
201.1183,156.6767
201.1812,156.6437
201.1828,156.6422
204.8251,152.9998
204.9080,152.9169
181.4456,152.9169
181.4456,153.0831
181.4363,153.1299
181.4132,153.2460
181.3496,153.3995
181.3144,153.4522
181.2573,153.5376
181.2573,153.5376
181.1398,153.6551
181.1398,153.6551
181.0017,153.7474
180.8482,153.8110
180.6853,153.8434
180.6853,153.8434
180.5191,153.8434
180.5191,153.8434
180.3562,153.8110
180.2027,153.7474
180.1501,153.7122
180.0823,153.6910
180.0801,153.6910
171.6215,153.6910
171.5733,153.7006
171.5482,153.7110
171.3853,153.7434
171.3853,153.7434
171.2191,153.7434
171.2191,153.7434
171.0562,153.7110
170.9027,153.6474
170.7646,153.5551
170.6471,153.4376
170.5548,153.2995
170.4912,153.1460
170.4588,152.9831
170.4588,152.8169
170.4912,152.6540
170.5548,152.5005
170.6471,152.3624
170.6471,152.3624
170.7646,152.2449
170.7646,152.2449
170.8104,152.2143
170.9027,152.1526
171.0562,152.0890
171.2191,152.0566
171.2191,152.0566
171.3853,152.0566
171.3853,152.0566
171.5482,152.0890
171.5482,152.0890
171.7017,152.1526
171.8398,152.2449
171.8398,152.2449
171.8670,152.2721
171.9294,152.3061
171.9561,152.3090
180.0801,152.3090
180.1482,152.2890
180.1501,152.2878
180.2027,152.2526
180.3562,152.1890
180.3562,152.1890
180.5191,152.1566
180.5191,152.1566
180.6853,152.1566
180.6853,152.1566
180.8482,152.1890
180.8482,152.1890
181.0017,152.2526
181.1398,152.3449
181.1398,152.3449
181.2573,152.4624
181.2573,152.4624
181.3496,152.6005
181.4132,152.7540
181.4132,152.7540
181.4456,152.9169
204.9080,152.9169
205.5617,152.2633
205.5617,152.2633
205.5755,152.2540
205.6211,152.1996
205.6299,152.1291
205.5993,152.0651
205.5389,152.0278
205.5301,152.0257
205.4562,152.0110
205.3027,151.9474
205.1646,151.8551
205.0471,151.7376
204.9548,151.5995
204.8912,151.4460
204.8588,151.2831
204.8588,151.1169
204.8912,150.9540
204.9548,150.8005
205.0471,150.6624
205.0471,150.6624
205.1646,150.5449
205.1646,150.5449
205.2842,150.4649
205.3027,150.4526
205.4562,150.3890
205.6191,150.3566
205.6191,150.3566
205.7853,150.3566
205.7853,150.3566
205.9482,150.3890
205.9482,150.3890
206.1017,150.4526
206.2398,150.5449
206.3573,150.6624
206.3578,150.6629
206.3581,150.6632
206.3617,150.6667
206.3624,150.6661
206.4165,150.7029
206.4552,150.7090
207.3298,150.7090
207.3979,150.6890
207.4444,150.6353
207.4545,150.5651
207.4250,150.5005
207.4189,150.4939
205.7555,148.8305
205.7555,148.8305
205.6798,148.7173
205.6278,148.5916
205.6159,148.5319
205.6012,148.4581
205.6012,147.9402
205.5812,147.8721
205.5800,147.8703
205.5448,147.8176
205.4812,147.6641
205.4488,147.5012
205.4488,147.3350
205.4812,147.1721
205.5448,147.0186
205.6371,146.8805
205.6371,146.8805
205.7546,146.7630
205.7546,146.7630
205.8450,146.7026
205.8927,146.6707
206.0462,146.6071
206.0487,146.6066
206.2091,146.5747
206.2091,146.5747
206.3753,146.5747
206.3753,146.5747
206.5382,146.6071
206.5382,146.6071
206.6917,146.6707
206.8298,146.7630
206.8298,146.7630
206.9473,146.8805
206.9473,146.8805
207.0396,147.0186
207.1032,147.1721
207.1032,147.1721
207.1356,147.3350
207.1356,147.5012
207.1032,147.6641
207.1032,147.6641
207.0396,147.8176
207.0396,147.8176
207.0396,147.8176
207.0044,147.8702
206.9987,147.8886
206.9883,147.9047
206.9838,147.9362
206.9832,147.9380
206.9832,147.9402
206.9832,148.0516
207.0032,148.1197
207.0201,148.1407
209.0216,150.1422
209.0839,150.1762
209.0861,150.1767
209.1106,150.1815
209.1482,150.1890
209.1482,150.1890
209.1482,150.1890
209.1486,150.1891
209.1489,150.1891
209.1543,150.1902
209.1545,150.1892
209.2196,150.1898
209.2797,150.1519
209.3098,150.0876
209.3112,150.0686
209.3112,148.9384
209.2912,148.8703
209.2743,148.8493
209.0960,148.6710
208.9155,148.4905
208.8398,148.3773
208.7878,148.2516
208.7770,148.1974
208.7612,148.1181
208.7612,147.9721
208.7412,147.9040
208.7400,147.9022
208.7048,147.8495
208.6412,147.6960
208.6088,147.5331
208.6088,147.3669
208.6412,147.2040
208.7048,147.0505
208.7971,146.9124
208.7971,146.9124
208.9146,146.7949
208.9146,146.7949
208.9779,146.7526
209.0527,146.7026
209.2062,146.6390
209.3691,146.6066
209.3691,146.6066
209.5353,146.6066
209.5353,146.6066
209.6982,146.6390
209.6982,146.6390
209.8517,146.7026
209.9898,146.7949
209.9898,146.7949
210.1073,146.9124
210.1073,146.9124
210.1996,147.0505
210.2632,147.2040
210.2632,147.2040
210.2956,147.3669
210.2956,147.5331
210.2632,147.6960
210.2632,147.6960
210.2404,147.7510
210.2328,147.8216
210.2646,147.8851
210.2677,147.8883
210.5389,148.1595
210.5949,148.2433
210.5949,148.2433
210.6004,148.2516
210.6146,148.2727
210.6666,148.3984
210.6669,148.3997
210.6707,148.4081
210.6925,148.4331
210.7133,148.4589
210.7157,148.4597
210.7174,148.4616
210.7492,148.4708
210.7807,148.4813
210.7831,148.4807
210.7856,148.4814
210.8173,148.4720
210.8495,148.4638
210.8512,148.4619
210.8536,148.4612
210.8753,148.4361
210.8979,148.4118
210.8985,148.4091
210.9000,148.4074
210.9015,148.3964
210.9112,148.3554
210.9112,147.7319
210.9112,147.7319
210.9378,147.5984
210.9898,147.4727
211.0133,147.4376
211.0655,147.3595
211.0655,147.3595
211.0655,147.3595
211.1878,147.2372
211.2151,147.1963
211.2251,147.1721
211.2548,147.1005
211.3471,146.9624
211.3471,146.9624
211.4646,146.8449
211.4646,146.8449
211.5394,146.7949
211.6027,146.7526
211.7562,146.6890
211.9191,146.6566
211.9191,146.6566
212.0853,146.6566
212.0853,146.6566
212.2482,146.6890
212.2482,146.6890
212.4017,146.7526
212.5398,146.8449
212.5398,146.8449
212.6573,146.9624
212.6573,146.9624
212.7496,147.1005
212.8132,147.2540
212.8132,147.2540
212.8456,147.4169
215.1457,147.4169
215.2006,147.3942
215.2440,147.3856
215.2440,147.3856
215.3341,147.3676
215.3341,147.3676
215.8052,147.3676
215.8733,147.3476
215.8943,147.3307
216.9444,146.2806
216.9784,146.2183
216.9788,146.2162
216.9912,146.1540
217.0548,146.0005
217.1471,145.8624
217.1471,145.8624
217.2646,145.7449
217.2646,145.7449
217.3104,145.7143
217.4027,145.6526
217.5562,145.5890
217.7191,145.5566
217.7191,145.5566
217.8853,145.5566
217.8853,145.5566
218.0482,145.5890
218.0482,145.5890
218.2017,145.6526
218.3398,145.7449
218.3398,145.7449
218.4573,145.8624
218.4573,145.8624
218.5496,146.0005
218.6132,146.1540
218.6132,146.1540
218.6456,146.3169
230.6702,146.3169
230.6850,146.2238
230.7506,146.0216
230.8471,145.8322
230.9721,145.6602
230.9721,145.6602
230.9721,145.6602
231.1224,145.5099
231.1224,145.5099
231.1224,145.5099
231.2944,145.3849
231.2996,145.3823
231.3513,145.3335
231.3683,145.2646
231.3454,145.1974
231.2996,145.1577
231.2944,145.1551
231.1224,145.0301
230.9721,144.8798
230.8471,144.7078
230.7506,144.5184
230.6850,144.3162
230.6517,144.1063
230.6517,143.8937
230.6850,143.6838
230.7506,143.4816
230.8471,143.2922
230.9721,143.1202
230.9721,143.1202
230.9721,143.1202
231.1224,142.9699
231.1224,142.9699
231.1224,142.9699
231.2944,142.8449
231.2996,142.8423
231.3513,142.7935
231.3683,142.7246
231.3454,142.6574
231.2996,142.6177
231.2944,142.6151
231.1224,142.4901
230.9721,142.3398
230.8471,142.1678
230.7506,141.9784
230.6850,141.7762
230.6517,141.5663
230.6517,141.3537
230.6850,141.1438
230.7506,140.9416
230.8471,140.7522
230.9721,140.5802
230.9721,140.5802
230.9721,140.5802
231.1224,140.4299
231.1224,140.4299
231.1224,140.4299
231.2944,140.3049
231.4838,140.2084
231.6860,140.1428
231.8959,140.1095
232.1085,140.1095
232.3184,140.1428
232.3184,140.1428
232.3184,140.1428
232.5206,140.2084
232.5206,140.2084
232.7100,140.3050
232.8820,140.4299
232.8820,140.4299
233.0323,140.5802
233.0323,140.5802
233.1573,140.7522
233.1599,140.7575
233.2087,140.8091
233.2776,140.8261
233.3448,140.8032
233.3845,140.7575
233.3871,140.7522
233.3872,140.7522
233.5121,140.5802
233.5121,140.5802
233.5121,140.5802
233.6624,140.4299
233.6624,140.4299
233.6624,140.4299
233.8344,140.3049
234.0238,140.2084
234.2260,140.1428
234.4359,140.1095
234.6485,140.1095
234.8584,140.1428
234.8584,140.1428
234.8584,140.1428
235.0606,140.2084
235.0606,140.2084
235.2500,140.3050
235.4220,140.4299
235.4220,140.4299
235.5723,140.5802
235.5723,140.5802
235.6972,140.7522
235.6973,140.7522
235.7938,140.9416
235.8594,141.1438
235.8927,141.3537
236.5017,141.3537
236.5017,137.2346
174.6490,137.2346
174.6490,137.4008
174.6406,137.4430
174.6166,137.5637
174.5530,137.7172
174.4913,137.8095
174.4607,137.8554
174.4607,137.8554
174.3432,137.9728
174.3432,137.9728
174.2051,138.0651
174.0516,138.1287
173.8887,138.1611
173.8887,138.1611
173.7225,138.1611
173.7225,138.1611
173.5596,138.1287
173.4061,138.0651
173.3269,138.0122
173.2592,137.9910
173.2569,137.9910
171.8807,137.9910
171.8125,138.0110
171.8107,138.0122
171.8065,138.0150
171.6684,138.1073
171.5149,138.1709
171.3519,138.2033
171.3519,138.2033
171.1858,138.2033
171.1858,138.2033
171.0229,138.1709
170.8694,138.1073
170.7312,138.0150
170.6138,137.8975
170.5215,137.7594
170.4579,137.6059
170.4255,137.4430
170.4255,137.2768
170.4579,137.1139
170.5215,136.9604
170.6138,136.8223
170.6138,136.8222
170.7312,136.7048
170.7312,136.7048
170.7944,136.6626
170.8694,136.6125
171.0229,136.5489
171.1858,136.5165
171.1858,136.5165
171.3519,136.5165
171.3520,136.5165
171.5149,136.5489
171.5149,136.5489
171.6368,136.5994
171.6850,136.6090
173.3100,136.6090
173.3781,136.5890
173.3800,136.5878
173.4061,136.5703
173.5360,136.5165
173.5596,136.5067
173.5596,136.5067
173.7225,136.4743
173.7225,136.4743
173.8887,136.4743
173.8887,136.4743
174.0516,136.5067
174.0516,136.5067
174.2051,136.5703
174.3432,136.6626
174.3432,136.6626
174.4607,136.7801
174.4607,136.7801
174.5530,136.9182
174.6166,137.0717
174.6166,137.0717
174.6490,137.2346
236.5017,137.2346
236.5017,131.7607
233.8207,131.7607
233.8207,132.0033
233.7890,132.2438
233.7263,132.4781
233.7263,132.4781
233.7263,132.4781
233.6334,132.7022
233.6334,132.7022
233.6334,132.7022
233.5121,132.9123
233.5121,132.9123
233.5121,132.9123
233.3645,133.1047
233.3645,133.1047
233.3645,133.1047
233.1929,133.2763
233.1929,133.2763
233.1929,133.2763
233.0005,133.4239
233.0005,133.4239
232.7904,133.5452
232.7904,133.5452
232.7904,133.5452
232.5663,133.6381
232.3320,133.7008
232.3320,133.7008
232.3320,133.7008
232.2700,133.7090
232.0915,133.7325
232.0915,133.7325
231.8489,133.7325
231.8489,133.7325
231.6316,133.7039
231.6084,133.7008
231.6084,133.7008
231.6084,133.7008
231.3741,133.6381
231.1500,133.5452
230.9399,133.4239
230.7475,133.2763
230.5759,133.1047
230.4283,132.9123
230.3070,132.7022
230.2141,132.4781
230.1514,132.2438
230.1197,132.0033
230.1197,131.7607
230.1484,131.5429
230.1514,131.5202
230.1514,131.5202
230.1514,131.5202
230.2141,131.2859
230.3070,131.0618
230.3070,131.0618
230.3070,131.0618
230.4283,130.8517
230.4349,130.8431
230.5759,130.6593
230.5759,130.6593
230.5759,130.6593
230.7475,130.4877
230.7475,130.4877
230.7475,130.4877
230.9399,130.3401
230.9399,130.3401
230.9399,130.3401
231.1500,130.2188
231.1500,130.2188
231.1500,130.2188
231.3741,130.1259
231.3741,130.1259
231.3741,130.1259
231.6084,130.0632
231.8489,130.0315
231.8489,130.0315
232.0915,130.0315
232.0915,130.0315
232.3320,130.0632
232.5663,130.1259
232.5663,130.1259
232.7261,130.1921
232.7904,130.2188
232.7904,130.2188
233.0005,130.3401
233.1929,130.4877
233.1929,130.4877
233.3645,130.6593
233.3645,130.6593
233.5121,130.8517
233.6334,131.0618
233.6334,131.0618
233.7263,131.2859
233.7263,131.2859
233.7890,131.5202
233.8207,131.7607
236.5017,131.7607
236.5017,130.2595
236.4817,130.1914
236.4648,130.1704
233.4415,127.1471
150.1837,127.1471
150.1837,129.0429
150.1837,129.0429
150.1773,129.1025
150.1773,129.1025
150.1270,129.2373
150.1029,129.2695
150.0781,129.3360
150.0932,129.4054
150.1029,129.4205
150.1270,129.4527
150.1773,129.5875
150.1837,129.6471
150.1837,131.5429
150.1837,131.5429
150.1773,131.6025
150.1773,131.6025
150.1270,131.7373
150.1270,131.7373
150.0407,131.8525
149.9831,131.8957
149.9255,131.9388
149.9255,131.9388
149.9255,131.9388
149.8652,131.9613
149.7907,131.9891
149.7907,131.9891
149.7311,131.9955
147.1353,131.9955
147.0757,131.9891
146.9409,131.9388
146.8257,131.8525
146.7394,131.7373
146.6891,131.6025
146.6827,131.5429
146.6827,130.5112
144.2837,130.5112
144.2837,130.6788
144.2510,130.8431
144.2322,130.8884
144.1869,130.9979
144.1404,131.0675
144.0938,131.1372
144.0938,131.1372
143.9754,131.2556
143.9754,131.2556
143.8361,131.3487
143.6813,131.4128
143.5170,131.4455
143.5170,131.4455
143.3494,131.4455
143.3494,131.4455
143.1851,131.4128
143.0303,131.3487
142.8910,131.2556
142.7726,131.1372
142.6795,130.9979
142.6154,130.8431
142.5827,130.6788
142.5827,130.5112
142.5827,130.5112
141.7837,130.5112
141.7837,130.6788
141.7510,130.8431
141.7322,130.8884
141.6869,130.9979
141.6404,131.0675
141.5938,131.1372
141.5938,131.1372
141.4754,131.2556
141.4754,131.2556
141.3361,131.3487
141.1813,131.4128
141.0170,131.4455
141.0170,131.4455
140.8494,131.4455
140.8494,131.4455
140.6851,131.4128
140.5303,131.3487
140.3910,131.2556
140.2726,131.1372
140.1795,130.9979
140.1154,130.8431
140.0827,130.6788
140.0827,130.5112
140.1154,130.3469
140.1795,130.1921
140.2726,130.0528
140.2726,130.0528
140.3910,129.9344
140.3910,129.9344
140.5303,129.8413
140.5303,129.8413
140.5303,129.8413
140.6844,129.7775
140.6851,129.7772
140.6851,129.7772
140.6851,129.7772
140.7678,129.7607
140.8494,129.7445
140.8494,129.7445
141.0170,129.7445
141.0170,129.7445
141.1394,129.7688
141.1813,129.7772
141.1813,129.7772
141.1813,129.7772
141.3361,129.8413
141.4754,129.9344
141.4754,129.9344
141.5938,130.0528
141.5938,130.0528
141.6869,130.1921
141.6869,130.1921
141.6979,130.2188
141.7510,130.3469
141.7837,130.5112
142.5827,130.5112
142.6154,130.3469
142.6795,130.1921
142.7726,130.0528
142.7726,130.0528
142.8910,129.9344
142.8910,129.9344
143.0303,129.8413
143.0303,129.8413
143.0303,129.8413
143.1844,129.7775
143.1851,129.7772
143.1851,129.7772
143.1851,129.7772
143.2678,129.7607
143.3494,129.7445
143.3494,129.7445
143.5170,129.7445
143.5170,129.7445
143.6394,129.7688
143.6813,129.7772
143.6813,129.7772
143.6813,129.7772
143.8361,129.8413
143.9754,129.9344
143.9754,129.9344
144.0938,130.0528
144.0938,130.0528
144.1869,130.1921
144.1869,130.1921
144.1979,130.2188
144.2510,130.3469
144.2837,130.5112
146.6827,130.5112
146.6827,129.6471
146.6891,129.5875
146.7394,129.4527
146.7635,129.4205
146.7883,129.3540
146.7732,129.2846
146.7635,129.2695
146.7394,129.2373
146.6891,129.1025
146.6827,129.0429
146.6827,127.1471
146.6891,127.0875
146.7104,127.0304
146.7394,126.9527
146.7394,126.9527
146.7394,126.9527
146.7836,126.8936
146.8257,126.8375
146.9026,126.7798
146.9409,126.7512
146.9409,126.7512
146.9409,126.7512
147.0757,126.7009
147.0757,126.7009
147.1353,126.6945
149.7311,126.6945
149.7311,126.6945
149.7907,126.7009
149.7907,126.7009
149.9255,126.7512
149.9255,126.7512
150.0407,126.8375
150.1270,126.9527
150.1270,126.9527
150.1773,127.0875
150.1837,127.1471
233.4415,127.1471
231.8056,125.5112
149.2837,125.5112
149.2837,125.5112
149.2837,125.6788
149.2510,125.8431
149.1869,125.9979
149.1869,125.9979
149.0938,126.1372
149.0938,126.1372
148.9754,126.2556
148.9754,126.2556
148.8361,126.3487
148.7078,126.4018
148.6813,126.4128
148.6813,126.4128
148.6813,126.4128
148.5170,126.4455
148.3494,126.4455
148.1851,126.4128
148.0303,126.3487
147.8910,126.2556
147.7726,126.1372
147.6795,125.9979
147.6154,125.8431
147.5827,125.6788
147.5827,125.5112
147.6154,125.3469
147.6795,125.1921
147.7726,125.0528
147.7726,125.0528
147.8910,124.9344
147.8910,124.9344
147.9840,124.8723
148.0303,124.8413
148.1851,124.7772
148.2772,124.7589
148.3344,124.7475
148.3344,124.7475
148.3494,124.7445
148.5170,124.7445
148.5320,124.7475
148.5320,124.7475
148.6300,124.7670
148.6813,124.7772
148.6813,124.7772
148.6813,124.7772
148.8361,124.8413
148.9754,124.9344
148.9754,124.9344
149.0938,125.0528
149.0938,125.0528
149.1869,125.1921
149.2510,125.3469
149.2837,125.5112
231.8056,125.5112
225.9415,119.6471
150.1837,119.6471
150.1837,121.5429
150.1837,121.5429
150.1773,121.6025
150.1773,121.6025
150.1270,121.7373
150.1029,121.7695
150.0781,121.8360
150.0932,121.9054
150.1029,121.9205
150.1270,121.9527
150.1773,122.0875
150.1837,122.1471
150.1837,124.0429
150.1837,124.0429
150.1773,124.1025
150.1773,124.1025
150.1270,124.2373
150.1270,124.2373
150.0407,124.3525
149.9831,124.3957
149.9255,124.4388
149.9255,124.4388
149.9255,124.4388
149.8652,124.4613
149.7907,124.4891
149.7907,124.4891
149.7311,124.4955
147.1353,124.4955
147.0757,124.4891
146.9409,124.4388
146.8257,124.3525
146.7836,124.2964
144.8412,124.2964
144.8412,125.3410
143.8332,125.3410
143.8332,125.8490
144.8412,125.8490
144.8412,126.8936
144.8347,126.9541
144.7836,127.0910
144.7836,127.0910
144.6961,127.2079
144.5792,127.2954
144.4423,127.3465
144.3818,127.3530
144.3818,127.3530
143.6872,127.3530
143.6872,126.2567
143.6788,126.2651
143.5876,126.3177
143.4859,126.3450
143.3805,126.3450
143.2788,126.3177
143.1876,126.2651
143.1792,126.2567
143.1792,127.3530
142.4846,127.3530
142.4846,127.3530
142.4241,127.3465
142.2872,127.2954
142.2872,127.2954
142.1703,127.2079
142.0828,127.0910
142.0828,127.0910
142.0317,126.9541
142.0252,126.8936
142.0252,126.8936
142.0252,125.8490
143.0332,125.8490
143.0332,125.3410
142.0252,125.3410
142.0252,124.2964
142.0252,124.2964
142.0317,124.2359
142.0828,124.0990
142.0828,124.0990
142.1703,123.9821
142.2872,123.8946
142.4241,123.8435
142.4846,123.8370
143.1792,123.8370
143.1792,124.9333
143.1876,124.9249
143.2788,124.8723
143.3805,124.8450
143.4859,124.8450
143.5876,124.8723
143.6788,124.9249
143.6872,124.9333
143.6872,123.8370
144.3818,123.8370
144.4423,123.8435
144.5792,123.8946
144.5792,123.8946
144.6961,123.9821
144.7836,124.0990
144.7836,124.0990
144.8347,124.2359
144.8412,124.2964
146.7836,124.2964
146.7394,124.2373
146.6891,124.1025
146.6827,124.0429
146.6827,122.1471
146.6891,122.0875
146.7394,121.9527
146.7635,121.9205
146.7883,121.8540
146.7732,121.7846
146.7635,121.7695
146.7394,121.7373
146.6891,121.6025
146.6827,121.5429
146.6827,120.5112
144.2837,120.5112
144.2837,120.5112
144.2837,120.6788
144.2510,120.8431
144.1869,120.9979
144.1869,120.9979
144.0938,121.1372
144.0938,121.1372
143.9754,121.2556
143.9754,121.2556
143.8361,121.3487
143.6813,121.4128
143.5170,121.4455
143.5170,121.4455
143.3494,121.4455
143.3494,121.4455
143.1851,121.4128
143.0303,121.3487
142.8910,121.2556
142.7726,121.1372
142.6795,120.9979
142.6154,120.8431
142.5827,120.6788
142.5827,120.5112
142.5827,120.5112
141.7837,120.5112
141.7837,120.5112
141.7837,120.6788
141.7510,120.8431
141.6869,120.9979
141.6869,120.9979
141.5938,121.1372
141.5938,121.1372
141.4754,121.2556
141.4754,121.2556
141.3361,121.3487
141.1813,121.4128
141.0170,121.4455
141.0170,121.4455
140.8494,121.4455
140.8494,121.4455
140.6851,121.4128
140.5303,121.3487
140.3910,121.2556
140.2726,121.1372
140.1795,120.9979
140.1154,120.8431
140.0827,120.6788
140.0827,120.5112
140.1154,120.3469
140.1795,120.1921
140.2726,120.0528
140.2726,120.0528
140.3910,119.9344
140.3910,119.9344
140.5303,119.8413
140.5303,119.8413
140.5303,119.8413
140.6441,119.7942
140.6851,119.7772
140.6851,119.7772
140.6851,119.7772
140.7678,119.7607
140.8494,119.7445
140.8494,119.7445
141.0170,119.7445
141.0170,119.7445
141.1394,119.7688
141.1813,119.7772
141.1813,119.7772
141.1813,119.7772
141.3361,119.8413
141.4754,119.9344
141.4754,119.9344
141.5938,120.0528
141.5938,120.0528
141.6869,120.1921
141.7510,120.3469
141.7837,120.5112
142.5827,120.5112
142.6154,120.3469
142.6795,120.1921
142.7726,120.0528
142.7726,120.0528
142.8910,119.9344
142.8910,119.9344
143.0303,119.8413
143.0303,119.8413
143.0303,119.8413
143.1441,119.7942
143.1851,119.7772
143.1851,119.7772
143.1851,119.7772
143.2678,119.7607
143.3494,119.7445
143.3494,119.7445
143.5170,119.7445
143.5170,119.7445
143.6394,119.7688
143.6813,119.7772
143.6813,119.7772
143.6813,119.7772
143.8361,119.8413
143.9754,119.9344
143.9754,119.9344
144.0938,120.0528
144.0938,120.0528
144.1869,120.1921
144.2510,120.3469
144.2837,120.5112
146.6827,120.5112
146.6827,119.6471
146.6891,119.5875
146.7104,119.5304
146.7394,119.4527
146.7394,119.4527
146.7394,119.4527
146.7825,119.3951
146.8257,119.3375
146.9188,119.2677
146.9409,119.2512
146.9409,119.2512
146.9409,119.2512
147.0757,119.2009
147.0757,119.2009
147.1353,119.1945
149.7311,119.1945
149.7311,119.1945
149.7907,119.2009
149.7907,119.2009
149.9255,119.2512
149.9255,119.2512
150.0407,119.3375
150.1270,119.4527
150.1270,119.4527
150.1773,119.5875
150.1837,119.6471
225.9415,119.6471
221.8318,115.5374
221.7695,115.5034
221.7427,115.5005
142.5681,115.5005
142.5048,115.5005
Z" /> 
</g>
<g style="fill:#FFFFFF; fill-opacity:1.0000; stroke:none;">
<circle cx="191.6172" cy="157.1000" r="0.1651" /> 
</g>
<g style="fill:#FFFFFF; fill-opacity:1.0000; stroke:none;">
<circle cx="222.2022" cy="151.5000" r="0.1651" /> 
</g>
<g style="fill:#FFFFFF; fill-opacity:1.0000; stroke:none;">
<circle cx="176.7792" cy="129.4770" r="0.1651" /> 
</g>
<g style="fill:#FFFFFF; fill-opacity:1.0000; stroke:none;">
<circle cx="167.9022" cy="157.9850" r="0.1651" /> 
</g>
<g style="fill:#FFFFFF; fill-opacity:1.0000; stroke:none;">
<circle cx="176.6022" cy="137.6000" r="0.1651" /> 
</g>
<g style="fill:#FFFFFF; fill-opacity:1.0000; stroke:none;">
<circle cx="222.1022" cy="154.0000" r="0.1651" /> 
</g>
<g style="fill:#FFFFFF; fill-opacity:1.0000; stroke:none;">
<circle cx="211.4022" cy="144.1000" r="0.1651" /> 
</g>
<g style="fill:#FFFFFF; fill-opacity:1.0000; stroke:none;">
<circle cx="222.2022" cy="144.0000" r="0.1651" /> 
</g>
<g style="fill:#FFFFFF; fill-opacity:1.0000; stroke:none;">
<circle cx="173.4022" cy="130.2000" r="0.1651" /> 
</g>
<g style="fill:#FFFFFF; fill-opacity:1.0000; stroke:none;">
<circle cx="199.5022" cy="145.5000" r="0.1651" /> 
</g>
<g style="fill:#FFFFFF; fill-opacity:1.0000; stroke:none;">
<circle cx="155.5272" cy="124.4000" r="0.1651" /> 
</g>
<g style="fill:#FFFFFF; fill-opacity:1.0000; stroke:none;">
<circle cx="219.2022" cy="142.4000" r="0.1651" /> 
</g>
<g style="fill:#FFFFFF; fill-opacity:1.0000; stroke:none;">
<circle cx="199.2662" cy="156.0602" r="0.1651" /> 
</g>
<g style="fill:#FFFFFF; fill-opacity:1.0000; stroke:none;">
<circle cx="180.4022" cy="141.7000" r="0.1651" /> 
</g>
<g style="fill:#FFFFFF; fill-opacity:1.0000; stroke:none;">
<circle cx="173.5022" cy="121.2329" r="0.1651" /> 
</g>
<g style="fill:#FFFFFF; fill-opacity:1.0000; stroke:none;">
<circle cx="222.2022" cy="146.5000" r="0.1651" /> 
</g>
<g style="fill:#FFFFFF; fill-opacity:1.0000; stroke:none;">
<circle cx="222.2022" cy="141.5000" r="0.1651" /> 
</g>
<g style="fill:#FFFFFF; fill-opacity:1.0000; stroke:none;">
<circle cx="155.5272" cy="134.4000" r="0.1651" /> 
</g>
<g style="fill:#FFFFFF; fill-opacity:1.0000; stroke:none;">
<circle cx="190.5022" cy="127.8000" r="0.1651" /> 
</g>
<g style="fill:#FFFFFF; fill-opacity:1.0000; stroke:none;">
<circle cx="175.2022" cy="144.0000" r="0.1651" /> 
</g>
<g style="fill:#FFFFFF; fill-opacity:1.0000; stroke:none;">
<circle cx="205.0022" cy="156.5126" r="0.1651" /> 
</g>
<g style="fill:#FFFFFF; fill-opacity:1.0000; stroke:none;">
<circle cx="222.2022" cy="149.0000" r="0.1651" /> 
</g>
<g style="fill:#FFFFFF; fill-opacity:1.0000; stroke:none;">
<circle cx="195.3022" cy="161.7224" r="0.1651" /> 
</g>
<g style="fill:#FFFFFF; fill-opacity:1.0000; stroke:none;">
<circle cx="171.3022" cy="152.9000" r="0.1651" /> 
</g>
<g style="fill:#FFFFFF; fill-opacity:1.0000; stroke:none;">
<circle cx="180.6022" cy="153.0000" r="0.1651" /> 
</g>
<g style="fill:#FFFFFF; fill-opacity:1.0000; stroke:none;">
<circle cx="185.0223" cy="157.6126" r="0.1651" /> 
</g>
<g style="fill:#FFFFFF; fill-opacity:1.0000; stroke:none;">
<circle cx="209.5022" cy="152.8000" r="0.1651" /> 
</g>
<g style="fill:#FFFFFF; fill-opacity:1.0000; stroke:none;">
<circle cx="201.3022" cy="157.5000" r="0.1651" /> 
</g>
<g style="fill:#FFFFFF; fill-opacity:1.0000; stroke:none;">
<circle cx="181.3022" cy="158.5000" r="0.1651" /> 
</g>
<g style="fill:#FFFFFF; fill-opacity:1.0000; stroke:none;">
<circle cx="171.2689" cy="137.3599" r="0.1651" /> 
</g>
<g style="fill:#FFFFFF; fill-opacity:1.0000; stroke:none;">
<circle cx="173.8056" cy="137.3177" r="0.1651" /> 
</g>
<g style="fill:#FFFFFF; fill-opacity:1.0000; stroke:none;">
<circle cx="210.5022" cy="151.5000" r="0.1651" /> 
</g>
<g style="fill:#FFFFFF; fill-opacity:1.0000; stroke:none;">
<circle cx="209.4522" cy="147.4500" r="0.1651" /> 
</g>
<g style="fill:#FFFFFF; fill-opacity:1.0000; stroke:none;">
<circle cx="212.0022" cy="147.5000" r="0.1651" /> 
</g>
<g style="fill:#FFFFFF; fill-opacity:1.0000; stroke:none;">
<circle cx="211.3722" cy="153.6810" r="0.1651" /> 
</g>
<g style="fill:#FFFFFF; fill-opacity:1.0000; stroke:none;">
<circle cx="213.9022" cy="153.6810" r="0.1651" /> 
</g>
<g style="fill:#FFFFFF; fill-opacity:1.0000; stroke:none;">
<circle cx="217.8022" cy="146.4000" r="0.1651" /> 
</g>
<g style="fill:#FFFFFF; fill-opacity:1.0000; stroke:none;">
<circle cx="208.9022" cy="151.0000" r="0.1651" /> 
</g>
<g style="fill:#FFFFFF; fill-opacity:1.0000; stroke:none;">
<circle cx="206.2922" cy="147.4181" r="0.1651" /> 
</g>
<g style="fill:#FFFFFF; fill-opacity:1.0000; stroke:none;">
<circle cx="205.7022" cy="151.2000" r="0.1651" /> 
</g>
<g style="fill:#FFFFFF; fill-opacity:1.0000; stroke:none;">
<circle cx="207.8704" cy="151.6318" r="0.1651" /> 
</g>
<g style="fill:#FFFFFF; fill-opacity:1.0000; stroke:none;">
<circle cx="140.9332" cy="130.5950" r="0.6000" /> 
</g>
<g style="fill:#FFFFFF; fill-opacity:1.0000; stroke:none;">
<circle cx="140.9332" cy="120.5950" r="0.6000" /> 
</g>
<g style="fill:#FFFFFF; fill-opacity:1.0000; stroke:none;">
<circle cx="143.4332" cy="130.5950" r="0.6000" /> 
</g>
<g style="fill:#FFFFFF; fill-opacity:1.0000; stroke:none;">
<circle cx="143.4332" cy="120.5950" r="0.6000" /> 
</g>
<g style="fill:#FFFFFF; fill-opacity:1.0000; stroke:none;">
<circle cx="148.4332" cy="125.5950" r="0.6000" /> 
</g>
<g style="fill:none; 
stroke:#FFFFFF; stroke-width:0.8000; stroke-opacity:1; 
stroke-linecap:round; stroke-linejoin:round;">
<path d="M148.0832 130.5950
L148.7832 130.5950
" />
<path d="M148.0832 128.0950
L148.7832 128.0950
" />
<path d="M143.4332 125.9450
L143.4332 125.2450
" />
<path d="M148.0832 120.5950
L148.7832 120.5950
" />
<path d="M148.0832 123.0950
L148.7832 123.0950
" />
</g>
<g style="fill:#FFFFFF; fill-opacity:1.0000; stroke:none;">
<circle cx="232.0022" cy="154.1600" r="0.5000" /> 
</g>
<g style="fill:#FFFFFF; fill-opacity:1.0000; stroke:none;">
<circle cx="234.5422" cy="154.1600" r="0.5000" /> 
</g>
<g style="fill:#FFFFFF; fill-opacity:1.0000; stroke:none;">
<circle cx="232.0022" cy="151.6200" r="0.5000" /> 
</g>
<g style="fill:#FFFFFF; fill-opacity:1.0000; stroke:none;">
<circle cx="234.5422" cy="151.6200" r="0.5000" /> 
</g>
<g style="fill:#FFFFFF; fill-opacity:1.0000; stroke:none;">
<circle cx="232.0022" cy="149.0800" r="0.5000" /> 
</g>
<g style="fill:#FFFFFF; fill-opacity:1.0000; stroke:none;">
<circle cx="234.5422" cy="149.0800" r="0.5000" /> 
</g>
<g style="fill:#FFFFFF; fill-opacity:1.0000; stroke:none;">
<circle cx="232.0022" cy="146.5400" r="0.5000" /> 
</g>
<g style="fill:#FFFFFF; fill-opacity:1.0000; stroke:none;">
<circle cx="234.5422" cy="146.5400" r="0.5000" /> 
</g>
<g style="fill:#FFFFFF; fill-opacity:1.0000; stroke:none;">
<circle cx="232.0022" cy="144.0000" r="0.5000" /> 
</g>
<g style="fill:#FFFFFF; fill-opacity:1.0000; stroke:none;">
<circle cx="234.5422" cy="144.0000" r="0.5000" /> 
</g>
<g style="fill:#FFFFFF; fill-opacity:1.0000; stroke:none;">
<circle cx="232.0022" cy="141.4600" r="0.5000" /> 
</g>
<g style="fill:#FFFFFF; fill-opacity:1.0000; stroke:none;">
<circle cx="234.5422" cy="141.4600" r="0.5000" /> 
</g>
<g style="fill:#FFFFFF; fill-opacity:1.0000; stroke:none;">
<circle cx="231.9702" cy="131.8820" r="1.6000" /> 
</g>
<g style="fill:#FFFFFF; fill-opacity:1.0000; stroke:none;">
<circle cx="235.5022" cy="163.5000" r="0.5000" /> 
</g>
<g style="fill:#FFFFFF; fill-opacity:1.0000; stroke:none;">
<circle cx="232.9622" cy="163.5000" r="0.5000" /> 
</g>
<g style="fill:#FFFFFF; fill-opacity:1.0000; stroke:none;">
<circle cx="230.4222" cy="163.5000" r="0.5000" /> 
</g>
<g style="fill:#FFFFFF; fill-opacity:1.0000; stroke:none;">
<circle cx="227.8822" cy="163.5000" r="0.5000" /> 
</g>
<g style="fill:#FFFFFF; fill-opacity:1.0000; stroke:none;">
<circle cx="225.3422" cy="163.5000" r="0.5000" /> 
</g>
<g style="fill:#FFFFFF; fill-opacity:1.0000; stroke:none;">
<circle cx="222.8022" cy="163.5000" r="0.5000" /> 
</g>
<g style="fill:#FFFFFF; fill-opacity:1.0000; stroke:none;">
<circle cx="220.2622" cy="163.5000" r="0.5000" /> 
</g>
<g style="fill:#FFFFFF; fill-opacity:1.0000; stroke:none;">
<circle cx="217.7222" cy="163.5000" r="0.5000" /> 
</g>
<g style="fill:#FFFFFF; fill-opacity:1.0000; stroke:none;">
<circle cx="215.1822" cy="163.5000" r="0.5000" /> 
</g>
<g style="fill:#FFFFFF; fill-opacity:1.0000; stroke:none;">
<circle cx="212.6422" cy="163.5000" r="0.5000" /> 
</g>
<g style="fill:#FFFFFF; fill-opacity:1.0000; stroke:none;">
<circle cx="210.1022" cy="163.5000" r="0.5000" /> 
</g>
<g style="fill:#FFFFFF; fill-opacity:1.0000; stroke:none;">
<circle cx="207.5622" cy="163.5000" r="0.5000" /> 
</g>
<g style="fill:#FFFFFF; fill-opacity:1.0000; stroke:none;">
<circle cx="205.0222" cy="163.5000" r="0.5000" /> 
</g>
<g style="fill:#FFFFFF; fill-opacity:1.0000; stroke:none;">
<circle cx="202.4822" cy="163.5000" r="0.5000" /> 
</g>
<g style="fill:#FFFFFF; fill-opacity:1.0000; stroke:none;">
<circle cx="199.9422" cy="163.5000" r="0.5000" /> 
</g>
<g style="fill:#FFFFFF; fill-opacity:1.0000; stroke:none;">
<circle cx="197.4022" cy="163.5000" r="0.5000" /> 
</g>
<g style="fill:#FFFFFF; fill-opacity:1.0000; stroke:none;">
<circle cx="194.8622" cy="163.5000" r="0.5000" /> 
</g>
<g style="fill:#FFFFFF; fill-opacity:1.0000; stroke:none;">
<circle cx="192.3222" cy="163.5000" r="0.5000" /> 
</g>
<g style="fill:#FFFFFF; fill-opacity:1.0000; stroke:none;">
<circle cx="189.7822" cy="163.5000" r="0.5000" /> 
</g>
<g style="fill:#FFFFFF; fill-opacity:1.0000; stroke:none;">
<circle cx="187.2422" cy="163.5000" r="0.5000" /> 
</g>
<g style="fill:#FFFFFF; fill-opacity:1.0000; stroke:none;">
<circle cx="184.7022" cy="163.5000" r="0.5000" /> 
</g>
<g style="fill:#FFFFFF; fill-opacity:1.0000; stroke:none;">
<circle cx="182.1622" cy="163.5000" r="0.5000" /> 
</g>
<g style="fill:#FFFFFF; fill-opacity:1.0000; stroke:none;">
<circle cx="179.6222" cy="163.5000" r="0.5000" /> 
</g>
<g style="fill:#FFFFFF; fill-opacity:1.0000; stroke:none;">
<circle cx="177.0822" cy="163.5000" r="0.5000" /> 
</g>
<g style="fill:#FFFFFF; fill-opacity:1.0000; stroke:none;">
<circle cx="174.5422" cy="163.5000" r="0.5000" /> 
</g>
<g style="fill:#FFFFFF; fill-opacity:1.0000; stroke:none;">
<circle cx="172.0022" cy="163.5000" r="0.5000" /> 
</g>
<g style="fill:#FFFFFF; fill-opacity:1.0000; stroke:none;">
<circle cx="169.4622" cy="163.5000" r="0.5000" /> 
</g>
<g style="fill:#FFFFFF; fill-opacity:1.0000; stroke:none;">
<circle cx="166.9222" cy="163.5000" r="0.5000" /> 
</g>
<g style="fill:#FFFFFF; fill-opacity:1.0000; stroke:none;">
<circle cx="164.3822" cy="163.5000" r="0.5000" /> 
</g>
<g style="fill:#FFFFFF; fill-opacity:1.0000; stroke:none;">
<circle cx="161.8422" cy="163.5000" r="0.5000" /> 
</g>
<g style="fill:#FFFFFF; fill-opacity:1.0000; stroke:none;">
<circle cx="159.3022" cy="163.5000" r="0.5000" /> 
</g>
<g style="fill:#FFFFFF; fill-opacity:1.0000; stroke:none;">
<circle cx="156.7622" cy="163.5000" r="0.5000" /> 
</g>
<g style="fill:#FFFFFF; fill-opacity:1.0000; stroke:none;">
<circle cx="154.2222" cy="163.5000" r="0.5000" /> 
</g>
<g style="fill:#FFFFFF; fill-opacity:1.0000; stroke:none;">
<circle cx="151.6822" cy="163.5000" r="0.5000" /> 
</g>
<g style="fill:#FFFFFF; fill-opacity:1.0000; stroke:none;">
<circle cx="149.1422" cy="163.5000" r="0.5000" /> 
</g>
<g style="fill:#FFFFFF; fill-opacity:1.0000; stroke:none;">
<circle cx="146.6022" cy="163.5000" r="0.5000" /> 
</g>
<g style="fill:#FFFFFF; fill-opacity:1.0000; stroke:none;">
<circle cx="144.0622" cy="163.5000" r="0.5000" /> 
</g>
<g style="fill:#FFFFFF; fill-opacity:1.0000; stroke:none;">
<circle cx="141.5222" cy="163.5000" r="0.5000" /> 
</g>
<g style="fill:#FFFFFF; fill-opacity:1.0000; stroke:none;">
<circle cx="138.9822" cy="163.5000" r="0.5000" /> 
</g> 
</svg>
