<?xml version="1.0" standalone="no"?>
 <!DOCTYPE svg PUBLIC "-//W3C//DTD SVG 1.1//EN" 
 "http://www.w3.org/Graphics/SVG/1.1/DTD/svg11.dtd"> 
<svg
  xmlns:svg="http://www.w3.org/2000/svg"
  xmlns="http://www.w3.org/2000/svg"
  xmlns:xlink="http://www.w3.org/1999/xlink"
  version="1.1"
  width="297.0022mm" height="210.0072mm" viewBox="0.0000 0.0000 297.0022 210.0072">
<title>SVG Image created as rcbus-ymf262-B_Silkscreen2.svg date 2025/09/02 22:49:35 </title>
  <desc>Image generated by PCBNEW </desc>
<g style="fill:#000000; fill-opacity:1.0000;stroke:#000000; stroke-opacity:1.0000;
stroke-linecap:round; stroke-linejoin:round;"
 transform="translate(0 0) scale(1 1)">
<path style="fill:#000000; fill-opacity:1.0000; stroke:none;fill-rule:evenodd;"
d="M 147.2110,159.4991
147.1246,159.5130
147.0541,159.5342
146.9891,159.5666
146.9379,159.6071
146.8987,159.6560
146.8710,159.7126
146.8535,159.7806
146.8472,159.8627
146.8515,159.9259
146.8642,159.9869
146.8868,160.0447
146.9209,160.0987
146.9663,160.1454
147.0272,160.1857
146.9713,160.2039
146.9263,160.2297
146.8905,160.2630
146.8637,160.3036
146.8474,160.3504
146.8417,160.4052
146.8516,160.4701
146.8812,160.5275
146.9329,160.5798
146.9578,160.5938
146.8950,160.6286
146.8359,160.6843
146.8072,160.7291
146.7897,160.7800
146.7836,160.8385
146.7836,160.8724
146.7893,160.9289
146.8055,160.9777
146.8321,161.0204
146.8883,161.0729
146.9643,161.1123
147.0515,161.1354
147.1532,161.1436
147.4917,161.1436
147.6032,161.1364
147.6918,161.1169
147.7616,161.0871
147.8162,161.0481
147.8615,160.9971
147.8940,160.9375
147.9143,160.8677
147.9215,160.7853
147.9215,160.7697
147.6265,160.7697
147.6265,160.8022
147.6210,160.8408
147.6056,160.8709
147.5798,160.8946
147.5280,160.9170
147.4549,160.9254
147.2408,160.9254
147.1680,160.9166
147.1202,160.8939
147.0974,160.8701
147.0835,160.8401
147.0786,160.8017
147.0786,160.7771
147.0838,160.7379
147.0986,160.7073
147.1223,160.6830
147.1546,160.6648
147.1921,160.6542
147.2368,160.6504
147.4633,160.6504
147.5178,160.6544
147.5563,160.6647
147.5879,160.6826
147.6091,160.7053
147.6219,160.7337
147.6265,160.7697
147.9215,160.7697
147.9215,160.7557
147.9154,160.6752
147.8988,160.6105
147.8729,160.5587
147.8363,160.5139
147.7903,160.4780
147.7335,160.4505
147.6373,160.4259
147.5140,160.4169
147.2015,160.4169
147.1658,160.4134
147.1342,160.4034
147.1117,160.3845
147.1039,160.3530
147.1131,160.3160
147.1396,160.2928
147.1782,160.2802
147.2309,160.2756
147.4309,160.2756
147.5292,160.2697
147.6069,160.2539
147.6679,160.2300
147.7231,160.1951
147.7657,160.1541
147.7974,160.1068
147.8275,160.0252
147.8379,159.9313
147.8355,159.8883
147.5571,159.8883
147.5536,159.9325
147.5437,159.9689
147.5250,159.9994
147.4950,160.0228
147.4558,160.0366
147.3960,160.0420
147.2766,160.0420
147.2284,160.0372
147.1922,160.0241
147.1650,160.0039
147.1456,159.9760
147.1328,159.9369
147.1279,159.8827
147.1332,159.8269
147.1470,159.7883
147.1675,159.7623
147.2138,159.7372
147.2862,159.7276
147.4033,159.7276
147.4513,159.7317
147.4880,159.7429
147.5179,159.7632
147.5397,159.7939
147.5523,159.8329
147.5571,159.8883
147.8355,159.8883
147.8343,159.8668
147.8250,159.8195
147.8101,159.7775
147.7932,159.7459
147.7543,159.6968
147.9271,159.6657
147.9271,159.4940
147.3164,159.4940
Z" /> 
<path style="fill:#000000; fill-opacity:1.0000; stroke:none;fill-rule:evenodd;"
d="M 148.1214,159.3291
148.0965,159.3241
148.0829,159.3108
148.0778,159.2871
148.0778,159.0817
148.0830,159.0559
148.0968,159.0417
148.1214,159.0365
148.3611,159.0365
148.3792,159.0399
148.3912,159.0492
148.4010,159.0817
148.4010,159.2871
148.3963,159.3112
148.3836,159.3243
148.3611,159.3291
Z" /> 
<path style="fill:#000000; fill-opacity:1.0000; stroke:none;fill-rule:evenodd;"
d="M 148.0837,160.6225
148.0837,159.4951
148.3952,159.4951
148.3952,160.6225
Z" /> 
<path style="fill:#000000; fill-opacity:1.0000; stroke:none;fill-rule:evenodd;"
d="M 149.0632,160.6225
148.9767,160.6177
148.9074,160.6046
148.8520,160.5848
148.8033,160.5542
148.7648,160.5128
148.7354,160.4590
148.7172,160.3991
148.7057,160.3213
148.7029,160.2216
148.7133,159.7440
148.5372,159.7440
148.5372,159.5446
148.7245,159.4951
148.7658,159.1791
149.0113,159.1791
149.0113,159.4951
149.2774,159.4951
149.2774,159.7440
149.0113,159.7440
149.0113,160.2200
149.0200,160.2950
149.0309,160.3223
149.0447,160.3421
149.0812,160.3680
149.1242,160.3782
149.2662,160.3923
149.2662,160.6225
Z" /> 
<path style="fill:#000000; fill-opacity:1.0000; stroke:none;fill-rule:evenodd;"
d="M 149.4495,160.6225
149.4495,159.0218
149.7610,159.0218
149.7610,159.6100
149.8274,159.5637
149.9193,159.5180
150.0189,159.4866
150.1194,159.4762
150.2037,159.4826
150.2705,159.4999
150.3234,159.5266
150.3691,159.5644
150.4055,159.6109
150.4331,159.6674
150.4579,159.7620
150.4668,159.8762
150.4668,160.6225
150.1554,160.6225
150.1554,159.9161
150.1498,159.8658
150.1345,159.8270
150.1098,159.7956
150.0778,159.7735
150.0400,159.7605
149.9950,159.7559
149.9092,159.7670
149.8314,159.7968
149.7610,159.8390
149.7610,160.6225
Z" /> 
<path style="fill:#000000; fill-opacity:1.0000; stroke:none;fill-rule:evenodd;"
d="M 151.0180,160.6351
150.9427,160.6290
150.8793,160.6115
150.8258,160.5838
150.7804,160.5457
150.7346,160.4810
150.7056,160.3986
150.6950,160.2932
150.6950,159.4951
151.0064,159.4951
151.0064,160.1995
151.0125,160.2612
151.0279,160.3017
151.0507,160.3273
151.1003,160.3512
151.1703,160.3601
151.2284,160.3547
151.2906,160.3378
151.3500,160.3115
151.4009,160.2787
151.4009,159.4951
151.7123,159.4951
151.7123,160.6225
151.4557,160.6225
151.4009,160.5076
151.3206,160.5537
151.2260,160.5962
151.1253,160.6253
Z" /> 
<path style="fill:#000000; fill-opacity:1.0000; stroke:none;fill-rule:evenodd;"
d="M 151.9466,160.6225
152.2076,160.6225
152.2581,160.5151
152.3478,160.5744
152.3971,160.5988
152.4535,160.6185
152.5143,160.6308
152.5862,160.6351
152.6724,160.6276
152.7439,160.6066
152.8036,160.5731
152.8538,160.5266
152.8960,160.4651
152.9299,160.3854
152.9516,160.3005
152.9658,160.1965
152.9710,160.0702
152.9704,160.0548
152.6596,160.0548
152.6525,160.1741
152.6347,160.2525
152.6039,160.3157
152.5676,160.3527
152.5224,160.3742
152.4695,160.3816
152.4034,160.3770
152.3493,160.3643
152.2581,160.3264
152.2581,159.7912
152.3534,159.7479
152.4090,159.7334
152.4695,159.7284
152.5183,159.7338
152.5632,159.7499
152.6005,159.7808
152.6331,159.8403
152.6517,159.9190
152.6596,160.0548
152.9704,160.0548
152.9658,159.9285
152.9519,159.8163
152.9311,159.7287
152.8975,159.6465
152.8549,159.5843
152.8036,159.5383
152.7423,159.5061
152.6659,159.4854
152.5709,159.4779
152.4940,159.4850
152.4094,159.5076
152.3274,159.5396
152.2581,159.5733
152.2581,159.0202
151.9466,159.0202
Z" /> 
<path style="fill:#000000; fill-opacity:1.0000; stroke:none;fill-rule:evenodd;"
d="M 153.2120,160.6256
153.1872,160.6206
153.1735,160.6073
153.1685,160.5835
153.1685,160.3688
153.1736,160.3430
153.1874,160.3289
153.2120,160.3236
153.3918,160.3236
153.4174,160.3289
153.4317,160.3432
153.4370,160.3688
153.4370,160.5835
153.4335,160.6042
153.4243,160.6163
153.3918,160.6256
Z" /> 
<path style="fill:#000000; fill-opacity:1.0000; stroke:none;fill-rule:evenodd;"
d="M 154.1052,160.6351
154.0052,160.6281
153.9157,160.6079
153.8346,160.5714
153.7654,160.5167
153.7277,160.4710
153.6949,160.4134
153.6671,160.3419
153.6418,160.2236
153.6323,160.0639
153.6412,159.8988
153.6645,159.7776
153.6907,159.7039
153.7220,159.6450
153.7581,159.5984
153.8020,159.5592
153.8522,159.5284
153.9097,159.5057
154.0035,159.4856
154.1144,159.4784
154.2150,159.4814
154.3101,159.4901
154.4051,159.5054
154.5071,159.5295
154.5071,159.7090
154.2112,159.7090
154.1197,159.7169
154.0554,159.7376
154.0209,159.7611
153.9926,159.7953
153.9702,159.8424
153.9514,159.9270
153.9438,160.0615
153.9515,160.1946
153.9703,160.2767
153.9927,160.3216
154.0211,160.3536
154.0559,160.3749
154.1204,160.3930
154.2142,160.4000
154.5224,160.4000
154.5224,160.5764
154.4015,160.6063
154.2551,160.6276
Z" /> 
<path style="fill:#000000; fill-opacity:1.0000; stroke:none;fill-rule:evenodd;"
d="M 155.0460,159.4849
154.9420,159.5038
154.8788,159.5260
154.8256,159.5561
154.7810,159.5941
154.7447,159.6402
154.7142,159.6984
154.6900,159.7710
154.6690,159.8909
154.6610,160.0562
154.6687,160.2133
154.6891,160.3311
154.7128,160.4028
154.7430,160.4615
154.7794,160.5089
154.8241,160.5486
154.8773,160.5805
154.9405,160.6046
155.0448,160.6258
155.1787,160.6336
155.3156,160.6261
155.4203,160.6062
155.4837,160.5830
155.5367,160.5521
155.5808,160.5135
155.6166,160.4670
155.6465,160.4087
155.6699,160.3365
155.6899,160.2174
155.6976,160.0562
155.6975,160.0546
155.3861,160.0546
155.3827,160.1600
155.3739,160.2320
155.3573,160.2934
155.3368,160.3315
155.3083,160.3587
155.2729,160.3745
155.2318,160.3819
155.1787,160.3846
155.1257,160.3819
155.0848,160.3745
155.0497,160.3587
155.0212,160.3315
155.0009,160.2934
154.9844,160.2320
154.9759,160.1599
154.9725,160.0546
154.9759,159.9490
154.9844,159.8778
155.0008,159.8173
155.0212,159.7797
155.0496,159.7527
155.0848,159.7370
155.1257,159.7296
155.1787,159.7268
155.2318,159.7296
155.2729,159.7370
155.3083,159.7527
155.3368,159.7797
155.3573,159.8173
155.3739,159.8778
155.3827,159.9490
155.3861,160.0546
155.6975,160.0546
155.6895,159.8937
155.6683,159.7741
155.6440,159.7014
155.6136,159.6433
155.5778,159.5972
155.5337,159.5591
155.4807,159.5285
155.4172,159.5054
155.3128,159.4853
155.1787,159.4779
Z" /> 
<path style="fill:#000000; fill-opacity:1.0000; stroke:none;fill-rule:evenodd;"
d="M 155.9019,160.6225
155.9019,159.4951
156.1586,159.4951
156.2134,159.6100
156.2903,159.5592
156.3747,159.5157
156.4342,159.4946
156.5054,159.4811
156.5902,159.4762
156.6594,159.4816
156.7174,159.4968
156.7662,159.5208
156.8287,159.5718
156.8737,159.6346
156.9846,159.5622
157.0506,159.5288
157.1223,159.5010
157.1964,159.4823
157.2679,159.4762
157.3573,159.4827
157.4275,159.5004
157.4822,159.5274
157.5292,159.5660
157.5659,159.6137
157.5928,159.6720
157.6165,159.7701
157.6251,159.8916
157.6251,160.6225
157.3137,160.6225
157.3137,159.9192
157.3083,159.8675
157.2936,159.8286
157.2696,159.7970
157.2381,159.7744
157.2002,159.7608
157.1527,159.7559
157.0902,159.7621
157.0253,159.7815
156.9635,159.8104
156.9102,159.8441
156.9169,159.8842
156.9192,159.9254
156.9192,160.6225
156.6078,160.6225
156.6078,159.9192
156.6024,159.8675
156.5877,159.8286
156.5638,159.7970
156.5325,159.7744
156.4949,159.7608
156.4474,159.7559
156.3613,159.7662
156.2841,159.7952
156.2134,159.8390
156.2134,160.6225
Z" /> 
<path style="fill:#000000; fill-opacity:1.0000; stroke:none;fill-rule:evenodd;"
d="M 157.7701,160.7737
158.3602,159.0055
158.6765,159.0055
158.0863,160.7737
Z" /> 
<path style="fill:#000000; fill-opacity:1.0000; stroke:none;fill-rule:evenodd;"
d="M 159.0191,159.4844
158.9224,159.5021
158.8480,159.5284
158.7833,159.5696
158.7318,159.6274
158.6925,159.7047
158.6684,159.7902
158.6519,159.9061
158.6456,160.0597
158.6522,160.2092
158.6696,160.3232
158.6951,160.4084
158.7362,160.4849
158.7896,160.5424
158.8564,160.5836
158.9327,160.6097
159.0305,160.6272
159.1546,160.6336
159.2840,160.6293
159.3863,160.6176
159.5667,160.5841
159.5667,160.4016
159.2371,160.4016
159.1292,160.3951
159.0626,160.3794
159.0118,160.3493
158.9809,160.3059
158.9638,160.2498
158.9541,160.1691
159.2391,160.1691
159.3462,160.1617
159.4321,160.1412
159.4832,160.1178
159.5249,160.0865
159.5584,160.0470
159.5821,160.0008
159.5975,159.9419
159.6030,159.8687
159.3285,159.8687
159.3201,159.9262
159.2991,159.9581
159.2644,159.9761
159.2069,159.9832
158.9510,159.9832
158.9563,159.8785
158.9695,159.8111
158.9950,159.7577
159.0303,159.7261
159.0770,159.7088
159.1436,159.7023
159.2067,159.7067
159.2508,159.7180
159.2861,159.7392
159.3099,159.7703
159.3233,159.8105
159.3285,159.8687
159.6030,159.8687
159.6031,159.8671
159.5972,159.7651
159.5814,159.6875
159.5579,159.6292
159.5222,159.5790
159.4744,159.5399
159.4123,159.5112
159.3031,159.4873
159.1436,159.4779
Z" /> 
<path style="fill:#000000; fill-opacity:1.0000; stroke:none;fill-rule:evenodd;"
d="M 160.1597,160.6271
160.0809,160.6223
160.0157,160.6089
159.9619,160.5882
159.9139,160.5576
159.8750,160.5179
159.8445,160.4681
159.8241,160.4125
159.8107,160.3435
159.8059,160.2583
159.8059,159.0202
160.1174,159.0202
160.1174,160.2124
160.1211,160.2725
160.1305,160.3128
160.1474,160.3455
160.1697,160.3667
160.1980,160.3806
160.2342,160.3899
160.3210,160.4016
160.3210,160.6271
Z" /> 
<path style="fill:#000000; fill-opacity:1.0000; stroke:none;fill-rule:evenodd;"
d="M 160.8026,159.4844
160.7058,159.5021
160.6315,159.5284
160.5667,159.5696
160.5152,159.6274
160.4760,159.7047
160.4519,159.7902
160.4353,159.9061
160.4291,160.0597
160.4356,160.2092
160.4531,160.3232
160.4786,160.4084
160.5196,160.4849
160.5730,160.5424
160.6399,160.5836
160.7162,160.6097
160.8139,160.6272
160.9380,160.6336
161.0674,160.6293
161.1698,160.6176
161.3502,160.5841
161.3502,160.4016
161.0206,160.4016
160.9126,160.3951
160.8461,160.3794
160.7953,160.3493
160.7644,160.3059
160.7473,160.2498
160.7375,160.1691
161.0226,160.1691
161.1296,160.1617
161.2156,160.1412
161.2667,160.1178
161.3084,160.0865
161.3419,160.0470
161.3655,160.0008
161.3809,159.9419
161.3864,159.8687
161.1120,159.8687
161.1036,159.9262
161.0826,159.9581
161.0478,159.9761
160.9903,159.9832
160.7344,159.9832
160.7397,159.8785
160.7529,159.8111
160.7785,159.7577
160.8137,159.7261
160.8605,159.7088
160.9270,159.7023
160.9902,159.7067
161.0343,159.7180
161.0696,159.7392
161.0934,159.7703
161.1068,159.8105
161.1120,159.8687
161.3864,159.8687
161.3866,159.8671
161.3806,159.7651
161.3648,159.6875
161.3414,159.6292
161.3056,159.5790
161.2578,159.5399
161.1958,159.5112
161.0865,159.4873
160.9270,159.4779
Z" /> 
<path style="fill:#000000; fill-opacity:1.0000; stroke:none;fill-rule:evenodd;"
d="M 162.0290,160.6351
161.9289,160.6281
161.8395,160.6079
161.7583,160.5714
161.6891,160.5167
161.6515,160.4710
161.6186,160.4134
161.5908,160.3419
161.5656,160.2236
161.5560,160.0639
161.5649,159.8988
161.5882,159.7776
161.6144,159.7039
161.6458,159.6450
161.6818,159.5984
161.7257,159.5592
161.7759,159.5284
161.8334,159.5057
161.9272,159.4856
162.0381,159.4784
162.1387,159.4814
162.2339,159.4901
162.3288,159.5054
162.4309,159.5295
162.4309,159.7090
162.1349,159.7090
162.0434,159.7169
161.9791,159.7376
161.9446,159.7611
161.9163,159.7953
161.8940,159.8424
161.8752,159.9270
161.8675,160.0615
161.8752,160.1946
161.8941,160.2767
161.9164,160.3216
161.9448,160.3536
161.9796,160.3749
162.0441,160.3930
162.1380,160.4000
162.4462,160.4000
162.4462,160.5764
162.3253,160.6063
162.1788,160.6276
Z" /> 
<path style="fill:#000000; fill-opacity:1.0000; stroke:none;fill-rule:evenodd;"
d="M 163.0480,160.6225
162.9616,160.6177
162.8922,160.6046
162.8369,160.5848
162.7882,160.5542
162.7496,160.5128
162.7203,160.4590
162.7021,160.3991
162.6906,160.3213
162.6878,160.2216
162.6981,159.7440
162.5221,159.7440
162.5221,159.5446
162.7093,159.4951
162.7506,159.1791
162.9962,159.1791
162.9962,159.4951
163.2622,159.4951
163.2622,159.7440
162.9962,159.7440
162.9962,160.2200
163.0049,160.2950
163.0158,160.3223
163.0295,160.3421
163.0661,160.3680
163.1090,160.3782
163.2511,160.3923
163.2511,160.6225
Z" /> 
<path style="fill:#000000; fill-opacity:1.0000; stroke:none;fill-rule:evenodd;"
d="M 163.4343,160.6225
163.4343,159.4951
163.6753,159.4951
163.7458,159.6673
163.8108,159.5953
163.8832,159.5348
163.9369,159.5044
163.9972,159.4859
164.0660,159.4794
164.1118,159.4818
164.1578,159.4905
164.1578,159.8096
164.0910,159.8028
164.0260,159.8001
163.9665,159.8036
163.9155,159.8136
163.8679,159.8303
163.8246,159.8532
163.7847,159.8826
163.7458,159.9205
163.7458,160.6225
Z" /> 
<path style="fill:#000000; fill-opacity:1.0000; stroke:none;fill-rule:evenodd;"
d="M 164.3601,159.3291
164.3352,159.3241
164.3216,159.3108
164.3166,159.2871
164.3166,159.0817
164.3217,159.0559
164.3355,159.0417
164.3601,159.0365
164.5998,159.0365
164.6179,159.0399
164.6299,159.0492
164.6398,159.0817
164.6398,159.2871
164.6350,159.3112
164.6223,159.3243
164.5998,159.3291
Z" /> 
<path style="fill:#000000; fill-opacity:1.0000; stroke:none;fill-rule:evenodd;"
d="M 164.3224,160.6225
164.3224,159.4951
164.6339,159.4951
164.6339,160.6225
Z" /> 
<path style="fill:#000000; fill-opacity:1.0000; stroke:none;fill-rule:evenodd;"
d="M 164.9356,160.6225
164.9356,159.7440
164.7760,159.7440
164.7760,159.5446
164.9356,159.4951
164.9356,159.3736
164.9405,159.2813
164.9535,159.2099
164.9730,159.1554
165.0028,159.1068
165.0405,159.0693
165.0872,159.0416
165.1697,159.0168
165.2794,159.0076
165.3651,159.0102
165.4413,159.0175
165.5120,159.0295
165.5609,159.0426
165.5609,159.2681
165.4785,159.2630
165.3875,159.2611
165.3381,159.2659
165.3039,159.2783
165.2776,159.2997
165.2600,159.3302
165.2507,159.3673
165.2471,159.4181
165.2471,159.4951
165.8515,159.4951
165.8515,159.7440
165.2471,159.7440
165.2471,160.6225
Z" /> 
<path style="fill:#000000; fill-opacity:1.0000; stroke:none;fill-rule:evenodd;"
d="M 165.7020,160.6225
165.7020,159.4951
166.0134,159.4951
166.0134,160.6225
Z" /> 
<path style="fill:#000000; fill-opacity:1.0000; stroke:none;fill-rule:evenodd;"
d="M 165.7397,159.3291
165.7147,159.3241
165.7010,159.3108
165.6960,159.2871
165.6960,159.0817
165.7012,159.0559
165.7150,159.0417
165.7397,159.0365
165.9793,159.0365
165.9975,159.0399
166.0094,159.0492
166.0193,159.0817
166.0193,159.2871
166.0145,159.3112
166.0018,159.3243
165.9793,159.3291
Z" /> 
<path style="fill:#000000; fill-opacity:1.0000; stroke:none;fill-rule:evenodd;"
d="M 166.5912,159.4844
166.4944,159.5021
166.4200,159.5284
166.3553,159.5696
166.3038,159.6274
166.2645,159.7047
166.2404,159.7902
166.2239,159.9061
166.2176,160.0597
166.2242,160.2092
166.2416,160.3232
166.2672,160.4084
166.3082,160.4849
166.3616,160.5424
166.4285,160.5836
166.5047,160.6097
166.6025,160.6272
166.7266,160.6336
166.8560,160.6293
166.9583,160.6176
167.1387,160.5841
167.1387,160.4016
166.8091,160.4016
166.7012,160.3951
166.6346,160.3794
166.5838,160.3493
166.5529,160.3059
166.5359,160.2498
166.5261,160.1691
166.8111,160.1691
166.9182,160.1617
167.0041,160.1412
167.0552,160.1178
167.0969,160.0865
167.1304,160.0470
167.1541,160.0008
167.1695,159.9419
167.1750,159.8687
166.9005,159.8687
166.8921,159.9262
166.8711,159.9581
166.8364,159.9761
166.7789,159.9832
166.5230,159.9832
166.5283,159.8785
166.5415,159.8111
166.5670,159.7577
166.6023,159.7261
166.6490,159.7088
166.7156,159.7023
166.7788,159.7067
166.8228,159.7180
166.8581,159.7392
166.8819,159.7703
166.8953,159.8105
166.9005,159.8687
167.1750,159.8687
167.1751,159.8671
167.1692,159.7651
167.1534,159.6875
167.1300,159.6292
167.0942,159.5790
167.0464,159.5399
166.9843,159.5112
166.8751,159.4873
166.7156,159.4779
Z" /> 
<path style="fill:#000000; fill-opacity:1.0000; stroke:none;fill-rule:evenodd;"
d="M 168.0575,159.5305
167.9228,159.4936
167.8463,159.4818
167.7688,159.4779
167.6626,159.4857
167.5794,159.5069
167.5147,159.5393
167.4604,159.5861
167.4166,159.6488
167.3833,159.7307
167.3631,159.8183
167.3495,159.9300
167.3446,160.0702
167.3504,160.2063
167.3663,160.3141
167.3901,160.3985
167.4271,160.4767
167.4723,160.5358
167.5257,160.5791
167.5880,160.6094
167.6613,160.6284
167.7477,160.6351
167.8049,160.6311
167.8619,160.6189
167.9174,160.5999
167.9698,160.5753
168.0182,160.5459
168.0575,160.5151
168.1081,160.6225
168.3689,160.6225
168.3689,159.7545
168.0575,159.7545
168.0575,160.3218
167.9717,160.3642
167.9187,160.3793
167.8568,160.3846
167.7890,160.3773
167.7399,160.3574
167.7029,160.3213
167.6756,160.2584
167.6617,160.1792
167.6561,160.0548
167.6621,159.9226
167.6769,159.8403
167.6951,159.7936
167.7181,159.7608
167.7454,159.7388
167.7978,159.7189
167.8701,159.7114
167.9212,159.7150
167.9690,159.7255
168.0575,159.7545
168.3689,159.7545
168.3689,159.0202
168.0575,159.0202
Z" /> 
<path style="fill:#000000; fill-opacity:1.0000; stroke:none;fill-rule:evenodd;"
d="M 168.5148,160.7737
169.1049,159.0055
169.4212,159.0055
168.8311,160.7737
Z" /> 
<path style="fill:#000000; fill-opacity:1.0000; stroke:none;fill-rule:evenodd;"
d="M 169.4867,160.6225
169.4867,159.4951
169.7277,159.4951
169.7982,159.6673
169.8631,159.5953
169.9356,159.5348
169.9892,159.5044
170.0496,159.4859
170.1183,159.4794
170.1641,159.4818
170.2102,159.4905
170.2102,159.8096
170.1433,159.8028
170.0784,159.8001
170.0189,159.8036
169.9678,159.8136
169.9203,159.8303
169.8770,159.8532
169.8371,159.8826
169.7982,159.9205
169.7982,160.6225
Z" /> 
<path style="fill:#000000; fill-opacity:1.0000; stroke:none;fill-rule:evenodd;"
d="M 170.8144,160.6351
170.7143,160.6281
170.6249,160.6079
170.5437,160.5714
170.4745,160.5167
170.4369,160.4710
170.4040,160.4134
170.3762,160.3419
170.3510,160.2236
170.3414,160.0639
170.3503,159.8988
170.3737,159.7776
170.3998,159.7039
170.4312,159.6450
170.4673,159.5984
170.5111,159.5592
170.5613,159.5284
170.6188,159.5057
170.7127,159.4856
170.8235,159.4784
170.9241,159.4814
171.0193,159.4901
171.1142,159.5054
171.2163,159.5295
171.2163,159.7090
170.9204,159.7090
170.8288,159.7169
170.7646,159.7376
170.7300,159.7611
170.7017,159.7953
170.6794,159.8424
170.6606,159.9270
170.6529,160.0615
170.6606,160.1946
170.6795,160.2767
170.7018,160.3216
170.7302,160.3536
170.7650,160.3749
170.8295,160.3930
170.9234,160.4000
171.2316,160.4000
171.2316,160.5764
171.1107,160.6063
170.9642,160.6276
Z" /> 
<path style="fill:#000000; fill-opacity:1.0000; stroke:none;fill-rule:evenodd;"
d="M 171.4035,160.6225
171.6644,160.6225
171.7150,160.5151
171.8047,160.5744
171.8540,160.5988
171.9104,160.6185
171.9711,160.6308
172.0431,160.6351
172.1293,160.6276
172.2008,160.6066
172.2604,160.5731
172.3107,160.5266
172.3528,160.4651
172.3867,160.3854
172.4084,160.3005
172.4227,160.1965
172.4279,160.0702
172.4273,160.0548
172.1164,160.0548
172.1094,160.1741
172.0916,160.2525
172.0608,160.3157
172.0245,160.3527
171.9793,160.3742
171.9264,160.3816
171.8602,160.3770
171.8061,160.3643
171.7150,160.3264
171.7150,159.7912
171.8103,159.7479
171.8659,159.7334
171.9264,159.7284
171.9752,159.7338
172.0201,159.7499
172.0574,159.7808
172.0900,159.8403
172.1086,159.9190
172.1164,160.0548
172.4273,160.0548
172.4227,159.9285
172.4087,159.8163
172.3880,159.7287
172.3544,159.6465
172.3118,159.5843
172.2604,159.5383
172.1991,159.5061
172.1228,159.4854
172.0278,159.4779
171.9508,159.4850
171.8663,159.5076
171.7842,159.5396
171.7150,159.5733
171.7150,159.0202
171.4035,159.0202
Z" /> 
<path style="fill:#000000; fill-opacity:1.0000; stroke:none;fill-rule:evenodd;"
d="M 172.9515,160.6351
172.8762,160.6290
172.8128,160.6115
172.7593,160.5838
172.7139,160.5457
172.6681,160.4810
172.6391,160.3986
172.6285,160.2932
172.6285,159.4951
172.9399,159.4951
172.9399,160.1995
172.9460,160.2612
172.9614,160.3017
172.9842,160.3273
173.0338,160.3512
173.1038,160.3601
173.1619,160.3547
173.2241,160.3378
173.2834,160.3115
173.3344,160.2787
173.3344,159.4951
173.6458,159.4951
173.6458,160.6225
173.3892,160.6225
173.3344,160.5076
173.2541,160.5537
173.1595,160.5962
173.0587,160.6253
Z" /> 
<path style="fill:#000000; fill-opacity:1.0000; stroke:none;fill-rule:evenodd;"
d="M 174.2906,160.6351
174.1765,160.6317
174.0544,160.6225
173.9418,160.6067
173.8546,160.5841
173.8546,160.4016
174.3536,160.4016
174.4258,160.3941
174.4513,160.3831
174.4682,160.3667
174.4782,160.3441
174.4821,160.3104
174.4821,160.2741
174.4749,160.2362
174.4546,160.2089
174.4204,160.1925
174.3542,160.1854
174.1775,160.1854
174.0839,160.1779
174.0031,160.1565
173.9547,160.1327
173.9141,160.1009
173.8803,160.0604
173.8563,160.0134
173.8407,159.9541
173.8351,159.8791
173.8351,159.8137
173.8401,159.7431
173.8542,159.6836
173.8765,159.6333
173.9090,159.5900
173.9550,159.5531
174.0171,159.5225
174.0845,159.5029
174.1732,159.4896
174.2881,159.4847
174.4368,159.4919
174.5856,159.5107
174.6968,159.5361
174.6968,159.7187
174.2251,159.7187
174.1681,159.7244
174.1320,159.7389
174.1091,159.7658
174.1004,159.8137
174.1004,159.8485
174.1045,159.8816
174.1153,159.9032
174.1335,159.9185
174.1614,159.9287
174.2375,159.9354
174.4187,159.9354
174.5062,159.9413
174.5748,159.9575
174.6282,159.9821
174.6693,160.0143
174.7115,160.0714
174.7380,160.1428
174.7475,160.2327
174.7475,160.3335
174.7409,160.4074
174.7228,160.4662
174.6943,160.5131
174.6549,160.5518
174.6041,160.5832
174.5395,160.6072
174.4320,160.6275
Z" /> 
<path style="fill:#000000; fill-opacity:1.0000; stroke:none;fill-rule:evenodd;"
d="M 174.8667,160.1385
174.8667,159.8885
175.5092,159.8885
175.5092,160.1385
Z" /> 
<path style="fill:#000000; fill-opacity:1.0000; stroke:none;fill-rule:evenodd;"
d="M 176.0264,161.1202
176.1492,160.6225
176.0585,160.6129
175.9832,160.5868
175.9183,160.5439
175.8652,160.4849
175.8247,160.4127
175.7929,160.3209
175.5808,159.4951
175.9041,159.4951
176.0813,160.2576
176.0945,160.2952
176.1088,160.3202
176.1443,160.3526
176.1791,160.3658
176.2043,160.3688
176.4068,159.4951
176.7235,159.4951
176.3872,160.9123
176.2850,161.1202
Z" /> 
<path style="fill:#000000; fill-opacity:1.0000; stroke:none;fill-rule:evenodd;"
d="M 176.8682,160.6225
176.8682,159.4951
177.1249,159.4951
177.1797,159.6100
177.2566,159.5592
177.3410,159.5157
177.4005,159.4946
177.4717,159.4811
177.5565,159.4762
177.6257,159.4816
177.6837,159.4968
177.7325,159.5208
177.7950,159.5718
177.8400,159.6346
177.9509,159.5622
178.0169,159.5288
178.0886,159.5010
178.1627,159.4823
178.2342,159.4762
178.3236,159.4827
178.3938,159.5004
178.4485,159.5274
178.4955,159.5660
178.5322,159.6137
178.5591,159.6720
178.5828,159.7701
178.5914,159.8916
178.5914,160.6225
178.2800,160.6225
178.2800,159.9192
178.2746,159.8675
178.2599,159.8286
178.2359,159.7970
178.2044,159.7744
178.1665,159.7608
178.1190,159.7559
178.0565,159.7621
177.9916,159.7815
177.9298,159.8104
177.8765,159.8441
177.8832,159.8842
177.8855,159.9254
177.8855,160.6225
177.5741,160.6225
177.5741,159.9192
177.5687,159.8675
177.5540,159.8286
177.5301,159.7970
177.4988,159.7744
177.4612,159.7608
177.4137,159.7559
177.3276,159.7662
177.2504,159.7952
177.1797,159.8390
177.1797,160.6225
Z" /> 
<path style="fill:#000000; fill-opacity:1.0000; stroke:none;fill-rule:evenodd;"
d="M 178.9022,160.6225
178.9022,159.7440
178.7425,159.7440
178.7425,159.5446
178.9022,159.4951
178.9022,159.4196
178.9070,159.3244
178.9202,159.2473
178.9403,159.1853
178.9712,159.1291
179.0111,159.0848
179.0606,159.0509
179.1171,159.0280
179.1880,159.0130
179.2767,159.0076
179.3486,159.0103
179.4108,159.0179
179.5105,159.0386
179.5105,159.2611
179.3387,159.2611
179.2937,159.2653
179.2636,159.2760
179.2405,159.2947
179.2250,159.3216
179.2168,159.3550
179.2137,159.4028
179.2137,159.4951
179.5009,159.4951
179.5009,159.7440
179.2137,159.7440
179.2137,160.6225
Z" /> 
<path style="fill:#000000; fill-opacity:1.0000; stroke:none;fill-rule:evenodd;"
d="M 179.6251,160.6225
179.6251,160.3736
180.1447,159.8571
180.2034,159.7963
180.2469,159.7440
180.2823,159.6907
180.3063,159.6403
180.3212,159.5875
180.3262,159.5304
180.3206,159.4766
180.3049,159.4334
180.2773,159.3984
180.2340,159.3718
180.1795,159.3567
180.0981,159.3508
179.6622,159.3508
179.6622,159.1053
179.8850,159.0716
180.0114,159.0600
180.1595,159.0558
180.2803,159.0623
180.3737,159.0799
180.4450,159.1059
180.5089,159.1452
180.5577,159.1934
180.5934,159.2511
180.6172,159.3159
180.6324,159.3913
180.6377,159.4794
180.6305,159.5816
180.6098,159.6711
180.5754,159.7550
180.5268,159.8359
180.4665,159.9129
180.3887,159.9956
180.0385,160.3418
180.6853,160.3418
180.6853,160.6225
Z" /> 
<path style="fill:#000000; fill-opacity:1.0000; stroke:none;fill-rule:evenodd;"
d="M 181.3602,159.0607
181.2782,159.0746
181.2047,159.0970
181.1361,159.1300
181.0748,159.1748
181.0199,159.2321
180.9753,159.2980
180.9366,159.3803
180.9045,159.4819
180.8838,159.5866
180.8702,159.7135
180.8653,159.8662
180.8737,160.0851
180.8954,160.2444
180.9206,160.3428
180.9505,160.4196
180.9842,160.4784
181.0273,160.5301
181.0757,160.5694
181.1299,160.5977
181.2212,160.6232
181.3307,160.6323
181.5560,160.6323
181.6646,160.6226
181.7558,160.5952
181.8097,160.5655
181.8546,160.5266
181.8914,160.4776
181.9173,160.4218
181.9341,160.3522
181.9402,160.2657
181.9402,160.1027
181.6293,160.1027
181.6293,160.2038
181.6246,160.2546
181.6121,160.2907
181.5912,160.3192
181.5634,160.3381
181.5296,160.3488
181.4854,160.3527
181.3921,160.3527
181.3392,160.3479
181.2962,160.3347
181.2596,160.3106
181.2287,160.2720
181.2066,160.2222
181.1894,160.1489
181.1802,160.0654
181.1767,159.9505
181.4403,159.9505
181.5031,159.9540
181.5479,159.9630
181.5846,159.9808
181.6094,160.0077
181.6236,160.0445
181.6293,160.1027
181.9402,160.1027
181.9402,160.0427
181.9301,159.9376
181.9017,159.8526
181.8708,159.8040
181.8282,159.7631
181.7722,159.7293
181.7101,159.7068
181.6299,159.6918
181.5272,159.6863
181.3956,159.6888
181.2800,159.6992
181.1767,159.7219
181.1863,159.5965
181.2121,159.5027
181.2507,159.4334
181.2913,159.3919
181.3417,159.3616
181.4043,159.3424
181.4822,159.3355
181.8478,159.3355
181.8478,159.0899
181.7616,159.0751
181.6593,159.0642
181.4520,159.0558
Z" /> 
<path style="fill:#000000; fill-opacity:1.0000; stroke:none;fill-rule:evenodd;"
d="M 182.1281,160.6225
182.1281,160.3736
182.6477,159.8571
182.7064,159.7963
182.7499,159.7440
182.7853,159.6907
182.8093,159.6403
182.8242,159.5875
182.8292,159.5304
182.8236,159.4766
182.8079,159.4334
182.7803,159.3984
182.7370,159.3718
182.6825,159.3567
182.6011,159.3508
182.1652,159.3508
182.1652,159.1053
182.3880,159.0716
182.5144,159.0600
182.6625,159.0558
182.7833,159.0623
182.8767,159.0799
182.9480,159.1059
183.0119,159.1452
183.0607,159.1934
183.0964,159.2511
183.1202,159.3159
183.1354,159.3913
183.1407,159.4794
183.1335,159.5816
183.1128,159.6711
183.0784,159.7550
183.0298,159.8359
182.9695,159.9129
182.8917,159.9956
182.5415,160.3418
183.1883,160.3418
183.1883,160.6225
Z" /> 
</g> 
</svg>
