<?xml version="1.0" standalone="no"?>
 <!DOCTYPE svg PUBLIC "-//W3C//DTD SVG 1.1//EN" 
 "http://www.w3.org/Graphics/SVG/1.1/DTD/svg11.dtd"> 
<svg
  xmlns:svg="http://www.w3.org/2000/svg"
  xmlns="http://www.w3.org/2000/svg"
  xmlns:xlink="http://www.w3.org/1999/xlink"
  version="1.1"
  width="297.0022mm" height="210.0072mm" viewBox="0.0000 0.0000 297.0022 210.0072">
<title>SVG Image created as rcbus-opl3-B_Silkscreen2.svg date 2025/10/09 21:12:03 </title>
  <desc>Image generated by PCBNEW </desc>
<g style="fill:#000000; fill-opacity:1.0000;stroke:#000000; stroke-opacity:1.0000;
stroke-linecap:round; stroke-linejoin:round;"
 transform="translate(0 0) scale(1 1)">
<path style="fill:#000000; fill-opacity:1.0000; stroke:none;fill-rule:evenodd;"
d="M 136.7700,161.3725
136.7700,159.7718
137.0815,159.7718
137.0815,160.3600
137.1479,160.3137
137.2397,160.2680
137.3394,160.2366
137.4399,160.2262
137.5241,160.2326
137.5910,160.2499
137.6439,160.2766
137.6896,160.3144
137.7260,160.3609
137.7536,160.4174
137.7784,160.5120
137.7873,160.6262
137.7873,161.3725
137.4759,161.3725
137.4759,160.6661
137.4703,160.6158
137.4550,160.5770
137.4303,160.5456
137.3983,160.5235
137.3605,160.5105
137.3155,160.5059
137.2297,160.5170
137.1519,160.5468
137.0815,160.5890
137.0815,161.3725
Z" /> 
<path style="fill:#000000; fill-opacity:1.0000; stroke:none;fill-rule:evenodd;"
d="M 138.4485,161.3725
138.3621,161.3677
138.2927,161.3546
138.2373,161.3348
138.1886,161.3042
138.1501,161.2628
138.1208,161.2090
138.1025,161.1491
138.0910,161.0713
138.0882,160.9716
138.0986,160.4940
137.9226,160.4940
137.9226,160.2946
138.1098,160.2451
138.1511,159.9291
138.3966,159.9291
138.3966,160.2451
138.6627,160.2451
138.6627,160.4940
138.3966,160.4940
138.3966,160.9700
138.4053,161.0450
138.4162,161.0723
138.4300,161.0921
138.4665,161.1180
138.5095,161.1282
138.6515,161.1423
138.6515,161.3725
Z" /> 
<path style="fill:#000000; fill-opacity:1.0000; stroke:none;fill-rule:evenodd;"
d="M 139.2647,161.3725
139.1783,161.3677
139.1089,161.3546
139.0536,161.3348
139.0049,161.3042
138.9663,161.2628
138.9370,161.2090
138.9188,161.1491
138.9073,161.0713
138.9045,160.9716
138.9148,160.4940
138.7388,160.4940
138.7388,160.2946
138.9260,160.2451
138.9673,159.9291
139.2129,159.9291
139.2129,160.2451
139.4790,160.2451
139.4790,160.4940
139.2129,160.4940
139.2129,160.9700
139.2216,161.0450
139.2325,161.0723
139.2462,161.0921
139.2828,161.1180
139.3257,161.1282
139.4678,161.1423
139.4678,161.3725
Z" /> 
<path style="fill:#000000; fill-opacity:1.0000; stroke:none;fill-rule:evenodd;"
d="M 140.2129,160.2324
140.1550,160.2457
140.1003,160.2662
140.0507,160.2918
139.9626,160.3525
139.9120,160.2451
139.6511,160.2451
139.6511,161.8702
139.9626,161.8702
139.9626,161.3142
140.0331,161.3451
140.1130,161.3688
140.1954,161.3834
140.2753,161.3882
140.3754,161.3796
140.4539,161.3559
140.5155,161.3193
140.5665,161.2683
140.6077,161.2031
140.6389,161.1208
140.6655,160.9843
140.6754,160.8097
140.3640,160.8097
140.3563,160.9312
140.3373,161.0084
140.3046,161.0696
140.2671,161.1048
140.2220,161.1249
140.1740,161.1316
140.1175,161.1278
140.0607,161.1164
140.0069,161.0983
139.9626,161.0764
139.9626,160.5412
140.0552,160.4988
140.1118,160.4836
140.1755,160.4784
140.2276,160.4859
140.2726,160.5082
140.3086,160.5460
140.3394,160.6108
140.3570,160.6906
140.3640,160.8097
140.6754,160.8097
140.6694,160.6782
140.6524,160.5668
140.6220,160.4646
140.5806,160.3833
140.5246,160.3163
140.4556,160.2678
140.3746,160.2384
140.2753,160.2279
Z" /> 
<path style="fill:#000000; fill-opacity:1.0000; stroke:none;fill-rule:evenodd;"
d="M 141.2896,161.3851
141.1755,161.3817
141.0534,161.3725
140.9408,161.3567
140.8536,161.3341
140.8536,161.1516
141.3526,161.1516
141.4248,161.1441
141.4503,161.1331
141.4672,161.1167
141.4772,161.0941
141.4810,161.0604
141.4810,161.0241
141.4739,160.9862
141.4536,160.9589
141.4194,160.9425
141.3532,160.9354
141.1765,160.9354
141.0829,160.9279
141.0021,160.9065
140.9537,160.8827
140.9130,160.8509
140.8793,160.8104
140.8553,160.7634
140.8397,160.7041
140.8340,160.6291
140.8340,160.5637
140.8391,160.4931
140.8532,160.4336
140.8754,160.3833
140.9080,160.3400
140.9540,160.3031
141.0160,160.2725
141.0835,160.2529
141.1722,160.2396
141.2871,160.2347
141.4358,160.2419
141.5846,160.2607
141.6958,160.2861
141.6958,160.4687
141.2240,160.4687
141.1671,160.4744
141.1310,160.4889
141.1081,160.5158
141.0994,160.5637
141.0994,160.5985
141.1035,160.6316
141.1143,160.6532
141.1325,160.6685
141.1604,160.6787
141.2365,160.6854
141.4177,160.6854
141.5052,160.6913
141.5738,160.7075
141.6272,160.7321
141.6683,160.7643
141.7105,160.8214
141.7370,160.8928
141.7465,160.9827
141.7465,161.0835
141.7399,161.1574
141.7217,161.2162
141.6933,161.2631
141.6539,161.3018
141.6031,161.3332
141.5385,161.3572
141.4310,161.3775
Z" /> 
<path style="fill:#000000; fill-opacity:1.0000; stroke:none;fill-rule:evenodd;"
d="M 141.9760,161.3756
141.9511,161.3706
141.9374,161.3573
141.9324,161.3335
141.9324,161.1188
141.9376,161.0930
141.9514,161.0789
141.9760,161.0736
142.1557,161.0736
142.1814,161.0789
142.1957,161.0932
142.2010,161.1188
142.2010,161.3335
142.1974,161.3542
142.1882,161.3663
142.1557,161.3756
Z" /> 
<path style="fill:#000000; fill-opacity:1.0000; stroke:none;fill-rule:evenodd;"
d="M 141.9760,160.5432
141.9511,160.5382
141.9374,160.5249
141.9324,160.5011
141.9324,160.2864
141.9376,160.2606
141.9514,160.2465
141.9760,160.2413
142.1557,160.2413
142.1814,160.2466
142.1957,160.2608
142.2010,160.2864
142.2010,160.5011
142.1974,160.5218
142.1882,160.5339
142.1557,160.5432
Z" /> 
<path style="fill:#000000; fill-opacity:1.0000; stroke:none;fill-rule:evenodd;"
d="M 142.3003,161.5237
142.8905,159.7555
143.2067,159.7555
142.6166,161.5237
Z" /> 
<path style="fill:#000000; fill-opacity:1.0000; stroke:none;fill-rule:evenodd;"
d="M 142.9759,161.5237
143.5660,159.7555
143.8823,159.7555
143.2922,161.5237
Z" /> 
<path style="fill:#000000; fill-opacity:1.0000; stroke:none;fill-rule:evenodd;"
d="M 143.9478,161.3725
143.9478,160.2451
144.2045,160.2451
144.2593,160.3600
144.3362,160.3092
144.4206,160.2657
144.4801,160.2446
144.5513,160.2311
144.6361,160.2262
144.7053,160.2316
144.7633,160.2468
144.8121,160.2708
144.8746,160.3218
144.9196,160.3846
145.0305,160.3122
145.0965,160.2788
145.1682,160.2510
145.2423,160.2323
145.3138,160.2262
145.4032,160.2327
145.4734,160.2504
145.5281,160.2774
145.5751,160.3160
145.6117,160.3637
145.6387,160.4220
145.6624,160.5201
145.6710,160.6416
145.6710,161.3725
145.3596,161.3725
145.3596,160.6692
145.3542,160.6175
145.3395,160.5786
145.3155,160.5470
145.2840,160.5244
145.2461,160.5108
145.1985,160.5059
145.1361,160.5121
145.0711,160.5315
145.0093,160.5604
144.9561,160.5941
144.9628,160.6342
144.9651,160.6754
144.9651,161.3725
144.6537,161.3725
144.6537,160.6692
144.6483,160.6175
144.6336,160.5786
144.6097,160.5470
144.5784,160.5244
144.5408,160.5108
144.4933,160.5059
144.4072,160.5162
144.3300,160.5452
144.2593,160.5890
144.2593,161.3725
Z" /> 
<path style="fill:#000000; fill-opacity:1.0000; stroke:none;fill-rule:evenodd;"
d="M 146.2350,160.2356
146.1215,160.2489
146.0170,160.2697
145.9315,160.2936
145.9315,160.4730
146.2686,160.4730
146.3670,160.4778
146.4256,160.4893
146.4707,160.5112
146.4958,160.5398
146.5093,160.5771
146.5143,160.6273
146.5143,160.7037
146.2266,160.7037
146.1291,160.7100
146.0521,160.7270
145.9916,160.7530
145.9446,160.7869
145.8945,160.8473
145.8646,160.9167
145.8542,160.9983
145.8542,161.1002
145.8639,161.1854
145.8909,161.2537
145.9348,161.3091
145.9925,161.3507
146.0608,161.3762
146.1428,161.3851
146.2117,161.3815
146.2761,161.3708
146.3376,161.3540
146.3911,161.3339
146.4782,161.2902
146.5296,161.2534
146.5802,161.3725
146.8258,161.3725
146.8258,161.1139
146.5143,161.1139
146.4939,161.1222
146.4539,161.1366
146.4021,161.1517
146.3476,161.1642
146.2994,161.1689
146.2322,161.1573
146.2049,161.1422
146.1837,161.1192
146.1705,161.0892
146.1657,161.0483
146.1657,161.0028
146.1757,160.9470
146.2043,160.9065
146.2503,160.8797
146.3260,160.8641
146.5143,160.8510
146.5143,161.1139
146.8258,161.1139
146.8258,160.6059
146.8191,160.5102
146.8010,160.4362
146.7736,160.3793
146.7341,160.3306
146.6841,160.2922
146.6220,160.2637
146.5167,160.2390
146.3818,160.2303
Z" /> 
<path style="fill:#000000; fill-opacity:1.0000; stroke:none;fill-rule:evenodd;"
d="M 147.0952,160.0791
147.0703,160.0741
147.0567,160.0608
147.0516,160.0371
147.0516,159.8317
147.0568,159.8059
147.0706,159.7917
147.0952,159.7865
147.3349,159.7865
147.3530,159.7899
147.3649,159.7992
147.3748,159.8317
147.3748,160.0371
147.3701,160.0612
147.3574,160.0743
147.3349,160.0791
Z" /> 
<path style="fill:#000000; fill-opacity:1.0000; stroke:none;fill-rule:evenodd;"
d="M 147.0575,161.3725
147.0575,160.2451
147.3690,160.2451
147.3690,161.3725
Z" /> 
<path style="fill:#000000; fill-opacity:1.0000; stroke:none;fill-rule:evenodd;"
d="M 148.2866,160.2805
148.1519,160.2436
148.0754,160.2318
147.9979,160.2279
147.8917,160.2357
147.8086,160.2569
147.7439,160.2893
147.6895,160.3361
147.6457,160.3988
147.6124,160.4807
147.5922,160.5683
147.5787,160.6800
147.5737,160.8202
147.5796,160.9563
147.5955,161.0641
147.6192,161.1485
147.6563,161.2267
147.7015,161.2858
147.7549,161.3291
147.8172,161.3594
147.8904,161.3784
147.9769,161.3851
148.0341,161.3811
148.0911,161.3689
148.1465,161.3499
148.1989,161.3253
148.2474,161.2959
148.2866,161.2651
148.3372,161.3725
148.5980,161.3725
148.5980,160.5045
148.2866,160.5045
148.2866,161.0718
148.2008,161.1142
148.1478,161.1293
148.0860,161.1346
148.0181,161.1273
147.9690,161.1074
147.9321,161.0713
147.9047,161.0084
147.8908,160.9292
147.8852,160.8048
147.8913,160.6726
147.9061,160.5903
147.9243,160.5436
147.9472,160.5108
147.9746,160.4888
148.0269,160.4689
148.0992,160.4614
148.1503,160.4650
148.1982,160.4755
148.2866,160.5045
148.5980,160.5045
148.5980,159.7702
148.2866,159.7702
Z" /> 
<path style="fill:#000000; fill-opacity:1.0000; stroke:none;fill-rule:evenodd;"
d="M 149.1630,160.2356
149.0495,160.2489
148.9450,160.2697
148.8595,160.2936
148.8595,160.4730
149.1966,160.4730
149.2950,160.4778
149.3536,160.4893
149.3986,160.5112
149.4238,160.5398
149.4373,160.5771
149.4422,160.6273
149.4422,160.7037
149.1545,160.7037
149.0571,160.7100
148.9801,160.7270
148.9196,160.7530
148.8726,160.7869
148.8224,160.8473
148.7926,160.9167
148.7822,160.9983
148.7822,161.1002
148.7919,161.1854
148.8189,161.2537
148.8627,161.3091
148.9205,161.3507
148.9888,161.3762
149.0707,161.3851
149.1397,161.3815
149.2041,161.3708
149.2656,161.3540
149.3190,161.3339
149.4061,161.2902
149.4576,161.2534
149.5082,161.3725
149.7537,161.3725
149.7537,161.1139
149.4422,161.1139
149.4219,161.1222
149.3819,161.1366
149.3301,161.1517
149.2755,161.1642
149.2274,161.1689
149.1602,161.1573
149.1329,161.1422
149.1117,161.1192
149.0985,161.0892
149.0936,161.0483
149.0936,161.0028
149.1037,160.9470
149.1323,160.9065
149.1783,160.8797
149.2540,160.8641
149.4422,160.8510
149.4422,161.1139
149.7537,161.1139
149.7537,160.6059
149.7471,160.5102
149.7290,160.4362
149.7016,160.3793
149.6620,160.3306
149.6120,160.2922
149.5499,160.2637
149.4447,160.2390
149.3098,160.2303
Z" /> 
<path style="fill:#000000; fill-opacity:1.0000; stroke:none;fill-rule:evenodd;"
d="M 150.2704,161.3725
149.8924,160.2451
150.2131,160.2451
150.4558,161.0846
150.7070,160.2451
151.0246,160.2451
150.6290,161.3725
Z" /> 
<path style="fill:#000000; fill-opacity:1.0000; stroke:none;fill-rule:evenodd;"
d="M 151.4593,160.2356
151.3459,160.2489
151.2414,160.2697
151.1559,160.2936
151.1559,160.4730
151.4930,160.4730
151.5913,160.4778
151.6499,160.4893
151.6950,160.5112
151.7202,160.5398
151.7336,160.5771
151.7386,160.6273
151.7386,160.7037
151.4509,160.7037
151.3534,160.7100
151.2764,160.7270
151.2160,160.7530
151.1690,160.7869
151.1188,160.8473
151.0889,160.9167
151.0786,160.9983
151.0786,161.1002
151.0882,161.1854
151.1153,161.2537
151.1591,161.3091
151.2169,161.3507
151.2852,161.3762
151.3671,161.3851
151.4360,161.3815
151.5005,161.3708
151.5620,161.3540
151.6154,161.3339
151.7025,161.2902
151.7540,161.2534
151.8046,161.3725
152.0501,161.3725
152.0501,161.1139
151.7386,161.1139
151.7183,161.1222
151.6782,161.1366
151.6265,161.1517
151.5719,161.1642
151.5237,161.1689
151.4566,161.1573
151.4292,161.1422
151.4081,161.1192
151.3949,161.0892
151.3900,161.0483
151.3900,161.0028
151.4001,160.9470
151.4287,160.9065
151.4747,160.8797
151.5504,160.8641
151.7386,160.8510
151.7386,161.1139
152.0501,161.1139
152.0501,160.6059
152.0434,160.5102
152.0254,160.4362
151.9980,160.3793
151.9584,160.3306
151.9084,160.2922
151.8463,160.2637
151.7410,160.2390
151.6062,160.2303
Z" /> 
<path style="fill:#000000; fill-opacity:1.0000; stroke:none;fill-rule:evenodd;"
d="M 152.6356,161.3771
152.5569,161.3723
152.4917,161.3589
152.4378,161.3382
152.3898,161.3076
152.3510,161.2679
152.3205,161.2181
152.3001,161.1625
152.2867,161.0935
152.2818,161.0083
152.2818,159.7702
152.5933,159.7702
152.5933,160.9624
152.5970,161.0225
152.6064,161.0628
152.6234,161.0955
152.6456,161.1167
152.6740,161.1306
152.7102,161.1399
152.7969,161.1516
152.7969,161.3771
Z" /> 
<path style="fill:#000000; fill-opacity:1.0000; stroke:none;fill-rule:evenodd;"
d="M 153.2786,160.2344
153.1818,160.2521
153.1074,160.2784
153.0427,160.3196
152.9912,160.3774
152.9519,160.4547
152.9278,160.5402
152.9113,160.6561
152.9050,160.8097
152.9116,160.9592
152.9290,161.0732
152.9546,161.1584
152.9956,161.2349
153.0490,161.2924
153.1159,161.3336
153.1921,161.3597
153.2899,161.3772
153.4140,161.3836
153.5434,161.3793
153.6457,161.3676
153.8261,161.3341
153.8261,161.1516
153.4965,161.1516
153.3886,161.1451
153.3220,161.1294
153.2712,161.0993
153.2403,161.0559
153.2233,160.9998
153.2135,160.9191
153.4985,160.9191
153.6056,160.9117
153.6915,160.8912
153.7426,160.8678
153.7843,160.8365
153.8178,160.7970
153.8415,160.7508
153.8569,160.6919
153.8624,160.6187
153.5879,160.6187
153.5795,160.6762
153.5585,160.7081
153.5238,160.7261
153.4663,160.7332
153.2104,160.7332
153.2157,160.6285
153.2289,160.5611
153.2544,160.5077
153.2897,160.4761
153.3365,160.4588
153.4030,160.4523
153.4662,160.4567
153.5103,160.4680
153.5455,160.4892
153.5693,160.5203
153.5828,160.5605
153.5879,160.6187
153.8624,160.6187
153.8625,160.6171
153.8566,160.5151
153.8408,160.4375
153.8174,160.3792
153.7816,160.3290
153.7338,160.2899
153.6717,160.2612
153.5625,160.2373
153.4030,160.2279
Z" /> 
<path style="fill:#000000; fill-opacity:1.0000; stroke:none;fill-rule:evenodd;"
d="M 154.1027,161.3756
154.0778,161.3706
154.0641,161.3573
154.0591,161.3335
154.0591,161.1188
154.0643,161.0930
154.0781,161.0789
154.1027,161.0736
154.2824,161.0736
154.3081,161.0789
154.3223,161.0932
154.3276,161.1188
154.3276,161.3335
154.3241,161.3542
154.3149,161.3663
154.2824,161.3756
Z" /> 
<path style="fill:#000000; fill-opacity:1.0000; stroke:none;fill-rule:evenodd;"
d="M 154.9079,160.2349
154.8039,160.2538
154.7407,160.2760
154.6875,160.3061
154.6429,160.3441
154.6066,160.3902
154.5761,160.4484
154.5518,160.5210
154.5309,160.6409
154.5229,160.8062
154.5306,160.9633
154.5510,161.0811
154.5747,161.1528
154.6049,161.2115
154.6413,161.2589
154.6860,161.2986
154.7392,161.3305
154.8023,161.3546
154.9066,161.3758
155.0406,161.3836
155.1774,161.3761
155.2822,161.3562
155.3455,161.3330
155.3985,161.3021
155.4426,161.2635
155.4785,161.2170
155.5084,161.1587
155.5318,161.0865
155.5518,160.9674
155.5594,160.8062
155.5593,160.8046
155.2480,160.8046
155.2445,160.9100
155.2357,160.9820
155.2191,161.0434
155.1986,161.0815
155.1702,161.1087
155.1348,161.1245
155.0937,161.1319
155.0406,161.1346
154.9876,161.1319
154.9467,161.1245
154.9115,161.1087
154.8831,161.0815
154.8627,161.0434
154.8463,160.9820
154.8377,160.9099
154.8344,160.8046
154.8378,160.6990
154.8463,160.6278
154.8627,160.5673
154.8831,160.5297
154.9115,160.5027
154.9467,160.4870
154.9876,160.4796
155.0406,160.4768
155.0937,160.4796
155.1348,160.4870
155.1702,160.5027
155.1986,160.5297
155.2192,160.5673
155.2357,160.6278
155.2445,160.6990
155.2480,160.8046
155.5593,160.8046
155.5514,160.6437
155.5302,160.5241
155.5059,160.4514
155.4755,160.3933
155.4396,160.3472
155.3956,160.3091
155.3425,160.2785
155.2791,160.2554
155.1747,160.2353
155.0406,160.2279
Z" /> 
<path style="fill:#000000; fill-opacity:1.0000; stroke:none;fill-rule:evenodd;"
d="M 155.7638,161.3725
155.7638,160.2451
156.0047,160.2451
156.0753,160.4173
156.1402,160.3453
156.2126,160.2848
156.2663,160.2544
156.3266,160.2359
156.3954,160.2294
156.4412,160.2318
156.4872,160.2405
156.4872,160.5596
156.4204,160.5528
156.3554,160.5501
156.2960,160.5536
156.2449,160.5636
156.1973,160.5803
156.1540,160.6032
156.1141,160.6326
156.0753,160.6705
156.0753,161.3725
Z" /> 
<path style="fill:#000000; fill-opacity:1.0000; stroke:none;fill-rule:evenodd;"
d="M 157.0014,160.2491
156.9149,160.2630
156.8444,160.2842
156.7794,160.3166
156.7283,160.3571
156.6890,160.4060
156.6614,160.4626
156.6438,160.5306
156.6375,160.6127
156.6418,160.6759
156.6546,160.7369
156.6772,160.7947
156.7113,160.8487
156.7566,160.8954
156.8175,160.9357
156.7616,160.9539
156.7167,160.9797
156.6809,161.0130
156.6541,161.0536
156.6377,161.1004
156.6320,161.1552
156.6420,161.2201
156.6715,161.2775
156.7233,161.3298
156.7481,161.3438
156.6854,161.3786
156.6263,161.4343
156.5975,161.4791
156.5800,161.5300
156.5740,161.5885
156.5740,161.6224
156.5796,161.6789
156.5958,161.7277
156.6224,161.7704
156.6786,161.8229
156.7547,161.8623
156.8418,161.8854
156.9435,161.8936
157.2821,161.8936
157.3936,161.8864
157.4821,161.8669
157.5519,161.8371
157.6066,161.7981
157.6518,161.7471
157.6844,161.6875
157.7047,161.6177
157.7118,161.5353
157.7118,161.5197
157.4168,161.5197
157.4168,161.5522
157.4113,161.5908
157.3959,161.6209
157.3702,161.6446
157.3184,161.6670
157.2452,161.6754
157.0311,161.6754
156.9583,161.6666
156.9106,161.6439
156.8878,161.6201
156.8739,161.5901
156.8689,161.5517
156.8689,161.5271
156.8742,161.4879
156.8890,161.4573
156.9126,161.4330
156.9449,161.4148
156.9824,161.4042
157.0272,161.4004
157.2537,161.4004
157.3082,161.4044
157.3466,161.4147
157.3783,161.4326
157.3995,161.4553
157.4122,161.4837
157.4168,161.5197
157.7118,161.5197
157.7118,161.5057
157.7058,161.4252
157.6891,161.3605
157.6633,161.3087
157.6266,161.2639
157.5807,161.2280
157.5239,161.2005
157.4276,161.1759
157.3043,161.1669
156.9918,161.1669
156.9561,161.1634
156.9246,161.1534
156.9021,161.1345
156.8943,161.1030
156.9034,161.0660
156.9299,161.0428
156.9686,161.0302
157.0212,161.0256
157.2212,161.0256
157.3195,161.0197
157.3973,161.0039
157.4583,160.9800
157.5134,160.9451
157.5560,160.9041
157.5877,160.8568
157.6178,160.7752
157.6282,160.6813
157.6258,160.6383
157.3475,160.6383
157.3439,160.6825
157.3340,160.7189
157.3153,160.7494
157.2854,160.7728
157.2461,160.7866
157.1864,160.7920
157.0669,160.7920
157.0187,160.7872
156.9825,160.7741
156.9554,160.7539
156.9360,160.7260
156.9231,160.6869
156.9183,160.6327
156.9235,160.5769
156.9373,160.5383
156.9578,160.5123
157.0042,160.4872
157.0765,160.4776
157.1937,160.4776
157.2416,160.4817
157.2783,160.4929
157.3082,160.5132
157.3301,160.5439
157.3426,160.5829
157.3475,160.6383
157.6258,160.6383
157.6247,160.6168
157.6154,160.5695
157.6004,160.5275
157.5835,160.4959
157.5447,160.4468
157.7174,160.4157
157.7174,160.2440
157.1068,160.2440
Z" /> 
<path style="fill:#000000; fill-opacity:1.0000; stroke:none;fill-rule:evenodd;"
d="M 157.7873,161.5237
158.3774,159.7555
158.6937,159.7555
158.1035,161.5237
Z" /> 
<path style="fill:#000000; fill-opacity:1.0000; stroke:none;fill-rule:evenodd;"
d="M 159.3210,160.2324
159.2631,160.2457
159.2084,160.2662
159.1588,160.2918
159.0707,160.3525
159.0201,160.2451
158.7592,160.2451
158.7592,161.8702
159.0707,161.8702
159.0707,161.3142
159.1412,161.3451
159.2210,161.3688
159.3035,161.3834
159.3834,161.3882
159.4835,161.3796
159.5620,161.3559
159.6236,161.3193
159.6746,161.2683
159.7157,161.2031
159.7470,161.1208
159.7736,160.9843
159.7835,160.8097
159.4721,160.8097
159.4644,160.9312
159.4454,161.0084
159.4127,161.0696
159.3752,161.1048
159.3301,161.1249
159.2820,161.1316
159.2255,161.1278
159.1688,161.1164
159.1150,161.0983
159.0707,161.0764
159.0707,160.5412
159.1633,160.4988
159.2199,160.4836
159.2836,160.4784
159.3357,160.4859
159.3807,160.5082
159.4167,160.5460
159.4475,160.6108
159.4651,160.6906
159.4721,160.8097
159.7835,160.8097
159.7775,160.6782
159.7605,160.5668
159.7301,160.4646
159.6887,160.3833
159.6327,160.3163
159.5637,160.2678
159.4827,160.2384
159.3834,160.2279
Z" /> 
<path style="fill:#000000; fill-opacity:1.0000; stroke:none;fill-rule:evenodd;"
d="M 159.9872,161.3725
159.9872,160.2451
160.2282,160.2451
160.2987,160.4173
160.3636,160.3453
160.4361,160.2848
160.4897,160.2544
160.5501,160.2359
160.6188,160.2294
160.6646,160.2318
160.7107,160.2405
160.7107,160.5596
160.6438,160.5528
160.5789,160.5501
160.5194,160.5536
160.4683,160.5636
160.4208,160.5803
160.3775,160.6032
160.3376,160.6326
160.2987,160.6705
160.2987,161.3725
Z" /> 
<path style="fill:#000000; fill-opacity:1.0000; stroke:none;fill-rule:evenodd;"
d="M 161.2269,160.2349
161.1229,160.2538
161.0597,160.2760
161.0065,160.3061
160.9619,160.3441
160.9256,160.3902
160.8951,160.4484
160.8709,160.5210
160.8500,160.6409
160.8419,160.8062
160.8496,160.9633
160.8701,161.0811
160.8937,161.1528
160.9240,161.2115
160.9604,161.2589
161.0050,161.2986
161.0582,161.3305
161.1214,161.3546
161.2257,161.3758
161.3596,161.3836
161.4965,161.3761
161.6012,161.3562
161.6646,161.3330
161.7176,161.3021
161.7617,161.2635
161.7976,161.2170
161.8274,161.1587
161.8508,161.0865
161.8708,160.9674
161.8785,160.8062
161.8784,160.8046
161.5671,160.8046
161.5636,160.9100
161.5548,160.9820
161.5382,161.0434
161.5177,161.0815
161.4892,161.1087
161.4539,161.1245
161.4127,161.1319
161.3596,161.1346
161.3067,161.1319
161.2657,161.1245
161.2306,161.1087
161.2022,161.0815
161.1818,161.0434
161.1653,160.9820
161.1568,160.9099
161.1534,160.8046
161.1568,160.6990
161.1653,160.6278
161.1818,160.5673
161.2022,160.5297
161.2305,160.5027
161.2657,160.4870
161.3067,160.4796
161.3596,160.4768
161.4127,160.4796
161.4539,160.4870
161.4893,160.5027
161.5177,160.5297
161.5382,160.5673
161.5548,160.6278
161.5636,160.6990
161.5671,160.8046
161.8784,160.8046
161.8704,160.6437
161.8493,160.5241
161.8249,160.4514
161.7946,160.3933
161.7587,160.3472
161.7146,160.3091
161.6616,160.2785
161.5981,160.2554
161.4937,160.2353
161.3596,160.2279
Z" /> 
<path style="fill:#000000; fill-opacity:1.0000; stroke:none;fill-rule:evenodd;"
d="M 162.1191,160.0791
162.0941,160.0741
162.0804,160.0608
162.0754,160.0371
162.0754,159.8317
162.0806,159.8059
162.0944,159.7917
162.1191,159.7865
162.3587,159.7865
162.3768,159.7899
162.3887,159.7992
162.3986,159.8317
162.3986,160.0371
162.3938,160.0612
162.3812,160.0743
162.3587,160.0791
Z" /> 
<path style="fill:#000000; fill-opacity:1.0000; stroke:none;fill-rule:evenodd;"
d="M 162.0828,161.8702
162.0828,160.2451
162.3943,160.2451
162.3943,161.3634
162.3893,161.4961
162.3742,161.6337
162.3493,161.7666
162.3191,161.8702
Z" /> 
<path style="fill:#000000; fill-opacity:1.0000; stroke:none;fill-rule:evenodd;"
d="M 162.9726,160.2344
162.8758,160.2521
162.8014,160.2784
162.7367,160.3196
162.6852,160.3774
162.6459,160.4547
162.6218,160.5402
162.6053,160.6561
162.5990,160.8097
162.6056,160.9592
162.6230,161.0732
162.6486,161.1584
162.6896,161.2349
162.7430,161.2924
162.8099,161.3336
162.8861,161.3597
162.9839,161.3772
163.1080,161.3836
163.2374,161.3793
163.3397,161.3676
163.5201,161.3341
163.5201,161.1516
163.1905,161.1516
163.0826,161.1451
163.0160,161.1294
162.9652,161.0993
162.9343,161.0559
162.9173,160.9998
162.9075,160.9191
163.1925,160.9191
163.2996,160.9117
163.3855,160.8912
163.4366,160.8678
163.4783,160.8365
163.5118,160.7970
163.5355,160.7508
163.5509,160.6919
163.5564,160.6187
163.2819,160.6187
163.2735,160.6762
163.2525,160.7081
163.2178,160.7261
163.1603,160.7332
162.9044,160.7332
162.9097,160.6285
162.9229,160.5611
162.9484,160.5077
162.9837,160.4761
163.0305,160.4588
163.0970,160.4523
163.1602,160.4567
163.2043,160.4680
163.2395,160.4892
163.2633,160.5203
163.2768,160.5605
163.2819,160.6187
163.5564,160.6187
163.5565,160.6171
163.5506,160.5151
163.5348,160.4375
163.5114,160.3792
163.4756,160.3290
163.4278,160.2899
163.3657,160.2612
163.2565,160.2373
163.0970,160.2279
Z" /> 
<path style="fill:#000000; fill-opacity:1.0000; stroke:none;fill-rule:evenodd;"
d="M 164.1989,161.3851
164.0989,161.3781
164.0094,161.3579
163.9283,161.3214
163.8590,161.2667
163.8214,161.2210
163.7885,161.1634
163.7608,161.0919
163.7355,160.9736
163.7260,160.8139
163.7348,160.6488
163.7582,160.5276
163.7844,160.4539
163.8157,160.3950
163.8518,160.3484
163.8957,160.3092
163.9459,160.2784
164.0034,160.2557
164.0972,160.2356
164.2081,160.2284
164.3086,160.2314
164.4038,160.2401
164.4987,160.2554
164.6008,160.2795
164.6008,160.4590
164.3049,160.4590
164.2134,160.4669
164.1491,160.4876
164.1146,160.5111
164.0863,160.5453
164.0639,160.5924
164.0451,160.6770
164.0375,160.8115
164.0452,160.9446
164.0640,161.0267
164.0864,161.0716
164.1148,161.1036
164.1496,161.1249
164.2141,161.1430
164.3079,161.1500
164.6161,161.1500
164.6161,161.3264
164.4952,161.3563
164.3488,161.3776
Z" /> 
<path style="fill:#000000; fill-opacity:1.0000; stroke:none;fill-rule:evenodd;"
d="M 165.2180,161.3725
165.1316,161.3677
165.0622,161.3546
165.0069,161.3348
164.9581,161.3042
164.9196,161.2628
164.8903,161.2090
164.8720,161.1491
164.8605,161.0713
164.8577,160.9716
164.8681,160.4940
164.6921,160.4940
164.6921,160.2946
164.8793,160.2451
164.9206,159.9291
165.1661,159.9291
165.1661,160.2451
165.4322,160.2451
165.4322,160.4940
165.1661,160.4940
165.1661,160.9700
165.1748,161.0450
165.1857,161.0723
165.1995,161.0921
165.2360,161.1180
165.2790,161.1282
165.4210,161.1423
165.4210,161.3725
Z" /> 
<path style="fill:#000000; fill-opacity:1.0000; stroke:none;fill-rule:evenodd;"
d="M 166.0148,161.3851
165.9007,161.3817
165.7786,161.3725
165.6659,161.3567
165.5787,161.3341
165.5787,161.1516
166.0778,161.1516
166.1500,161.1441
166.1755,161.1331
166.1924,161.1167
166.2024,161.0941
166.2062,161.0604
166.2062,161.0241
166.1991,160.9862
166.1788,160.9589
166.1446,160.9425
166.0784,160.9354
165.9017,160.9354
165.8081,160.9279
165.7273,160.9065
165.6789,160.8827
165.6382,160.8509
165.6045,160.8104
165.5805,160.7634
165.5649,160.7041
165.5592,160.6291
165.5592,160.5637
165.5643,160.4931
165.5784,160.4336
165.6006,160.3833
165.6332,160.3400
165.6791,160.3031
165.7412,160.2725
165.8087,160.2529
165.8974,160.2396
166.0122,160.2347
166.1610,160.2419
166.3098,160.2607
166.4210,160.2861
166.4210,160.4687
165.9492,160.4687
165.8923,160.4744
165.8562,160.4889
165.8333,160.5158
165.8246,160.5637
165.8246,160.5985
165.8287,160.6316
165.8395,160.6532
165.8577,160.6685
165.8856,160.6787
165.9617,160.6854
166.1429,160.6854
166.2304,160.6913
166.2990,160.7075
166.3523,160.7321
166.3935,160.7643
166.4357,160.8214
166.4622,160.8928
166.4717,160.9827
166.4717,161.0835
166.4651,161.1574
166.4469,161.2162
166.4185,161.2631
166.3791,161.3018
166.3283,161.3332
166.2637,161.3572
166.1562,161.3775
Z" /> 
<path style="fill:#000000; fill-opacity:1.0000; stroke:none;fill-rule:evenodd;"
d="M 166.5361,161.5237
167.1262,159.7555
167.4424,159.7555
166.8523,161.5237
Z" /> 
<path style="fill:#000000; fill-opacity:1.0000; stroke:none;fill-rule:evenodd;"
d="M 167.5079,161.3725
167.5079,160.2451
167.7489,160.2451
167.8194,160.4173
167.8843,160.3453
167.9568,160.2848
168.0105,160.2544
168.0708,160.2359
168.1395,160.2294
168.1853,160.2318
168.2314,160.2405
168.2314,160.5596
168.1645,160.5528
168.0996,160.5501
168.0401,160.5536
167.9891,160.5636
167.9415,160.5803
167.8982,160.6032
167.8583,160.6326
167.8194,160.6705
167.8194,161.3725
Z" /> 
<path style="fill:#000000; fill-opacity:1.0000; stroke:none;fill-rule:evenodd;"
d="M 168.8356,161.3851
168.7356,161.3781
168.6461,161.3579
168.5650,161.3214
168.4957,161.2667
168.4581,161.2210
168.4252,161.1634
168.3975,161.0919
168.3722,160.9736
168.3627,160.8139
168.3716,160.6488
168.3949,160.5276
168.4211,160.4539
168.4524,160.3950
168.4885,160.3484
168.5324,160.3092
168.5826,160.2784
168.6401,160.2557
168.7339,160.2356
168.8448,160.2284
168.9453,160.2314
169.0405,160.2401
169.1355,160.2554
169.2375,160.2795
169.2375,160.4590
168.9416,160.4590
168.8501,160.4669
168.7858,160.4876
168.7513,160.5111
168.7230,160.5453
168.7006,160.5924
168.6818,160.6770
168.6742,160.8115
168.6819,160.9446
168.7007,161.0267
168.7231,161.0716
168.7515,161.1036
168.7863,161.1249
168.8508,161.1430
168.9446,161.1500
169.2528,161.1500
169.2528,161.3264
169.1319,161.3563
168.9855,161.3776
Z" /> 
<path style="fill:#000000; fill-opacity:1.0000; stroke:none;fill-rule:evenodd;"
d="M 169.4247,161.3725
169.6857,161.3725
169.7363,161.2651
169.8259,161.3244
169.8752,161.3488
169.9316,161.3685
169.9924,161.3808
170.0643,161.3851
170.1506,161.3776
170.2221,161.3566
170.2817,161.3231
170.3319,161.2766
170.3741,161.2151
170.4080,161.1354
170.4297,161.0505
170.4439,160.9465
170.4491,160.8202
170.4485,160.8048
170.1377,160.8048
170.1306,160.9241
170.1129,161.0025
170.0820,161.0657
170.0457,161.1027
170.0006,161.1242
169.9476,161.1316
169.8815,161.1270
169.8274,161.1143
169.7363,161.0764
169.7363,160.5412
169.8315,160.4979
169.8871,160.4834
169.9476,160.4784
169.9964,160.4838
170.0413,160.4999
170.0786,160.5308
170.1112,160.5903
170.1298,160.6690
170.1377,160.8048
170.4485,160.8048
170.4439,160.6785
170.4300,160.5663
170.4093,160.4787
170.3757,160.3965
170.3331,160.3343
170.2817,160.2883
170.2204,160.2561
170.1441,160.2354
170.0490,160.2279
169.9721,160.2350
169.8876,160.2576
169.8055,160.2896
169.7363,160.3233
169.7363,159.7702
169.4247,159.7702
Z" /> 
<path style="fill:#000000; fill-opacity:1.0000; stroke:none;fill-rule:evenodd;"
d="M 170.9727,161.3851
170.8974,161.3790
170.8341,161.3615
170.7805,161.3338
170.7351,161.2957
170.6893,161.2310
170.6603,161.1486
170.6498,161.0432
170.6498,160.2451
170.9612,160.2451
170.9612,160.9495
170.9672,161.0112
170.9827,161.0517
171.0054,161.0773
171.0550,161.1012
171.1250,161.1101
171.1831,161.1047
171.2453,161.0878
171.3047,161.0615
171.3557,161.0287
171.3557,160.2451
171.6671,160.2451
171.6671,161.3725
171.4104,161.3725
171.3557,161.2576
171.2754,161.3037
171.1807,161.3462
171.0800,161.3753
Z" /> 
<path style="fill:#000000; fill-opacity:1.0000; stroke:none;fill-rule:evenodd;"
d="M 172.3119,161.3851
172.1978,161.3817
172.0757,161.3725
171.9630,161.3567
171.8758,161.3341
171.8758,161.1516
172.3749,161.1516
172.4471,161.1441
172.4726,161.1331
172.4895,161.1167
172.4995,161.0941
172.5033,161.0604
172.5033,161.0241
172.4962,160.9862
172.4758,160.9589
172.4417,160.9425
172.3754,160.9354
172.1988,160.9354
172.1051,160.9279
172.0244,160.9065
171.9759,160.8827
171.9353,160.8509
171.9016,160.8104
171.8776,160.7634
171.8620,160.7041
171.8563,160.6291
171.8563,160.5637
171.8613,160.4931
171.8754,160.4336
171.8977,160.3833
171.9303,160.3400
171.9762,160.3031
172.0383,160.2725
172.1057,160.2529
172.1945,160.2396
172.3093,160.2347
172.4581,160.2419
172.6069,160.2607
172.7181,160.2861
172.7181,160.4687
172.2463,160.4687
172.1894,160.4744
172.1532,160.4889
172.1304,160.5158
172.1216,160.5637
172.1216,160.5985
172.1258,160.6316
172.1366,160.6532
172.1548,160.6685
172.1826,160.6787
172.2588,160.6854
172.4399,160.6854
172.5275,160.6913
172.5960,160.7075
172.6494,160.7321
172.6905,160.7643
172.7328,160.8214
172.7592,160.8928
172.7687,160.9827
172.7687,161.0835
172.7622,161.1574
172.7440,161.2162
172.7155,161.2631
172.6762,161.3018
172.6254,161.3332
172.5607,161.3572
172.4532,161.3775
Z" /> 
<path style="fill:#000000; fill-opacity:1.0000; stroke:none;fill-rule:evenodd;"
d="M 172.8880,160.8885
172.8880,160.6385
173.5304,160.6385
173.5304,160.8885
Z" /> 
<path style="fill:#000000; fill-opacity:1.0000; stroke:none;fill-rule:evenodd;"
d="M 174.0467,160.2349
173.9428,160.2538
173.8795,160.2760
173.8263,160.3061
173.7817,160.3441
173.7454,160.3902
173.7149,160.4484
173.6907,160.5210
173.6698,160.6409
173.6618,160.8062
173.6695,160.9633
173.6899,161.0811
173.7135,161.1528
173.7438,161.2115
173.7802,161.2589
173.8248,161.2986
173.8781,161.3305
173.9412,161.3546
174.0455,161.3758
174.1794,161.3836
174.3163,161.3761
174.4210,161.3562
174.4844,161.3330
174.5374,161.3021
174.5815,161.2635
174.6174,161.2170
174.6473,161.1587
174.6706,161.0865
174.6907,160.9674
174.6983,160.8062
174.6982,160.8046
174.3869,160.8046
174.3834,160.9100
174.3746,160.9820
174.3580,161.0434
174.3375,161.0815
174.3091,161.1087
174.2737,161.1245
174.2326,161.1319
174.1794,161.1346
174.1265,161.1319
174.0855,161.1245
174.0504,161.1087
174.0220,161.0815
174.0016,161.0434
173.9852,160.9820
173.9766,160.9099
173.9733,160.8046
173.9766,160.6990
173.9852,160.6278
174.0016,160.5673
174.0220,160.5297
174.0504,160.5027
174.0855,160.4870
174.1265,160.4796
174.1794,160.4768
174.2326,160.4796
174.2737,160.4870
174.3091,160.5027
174.3375,160.5297
174.3580,160.5673
174.3746,160.6278
174.3834,160.6990
174.3869,160.8046
174.6982,160.8046
174.6902,160.6437
174.6691,160.5241
174.6447,160.4514
174.6144,160.3933
174.5785,160.3472
174.5344,160.3091
174.4814,160.2785
174.4179,160.2554
174.3135,160.2353
174.1794,160.2279
Z" /> 
<path style="fill:#000000; fill-opacity:1.0000; stroke:none;fill-rule:evenodd;"
d="M 175.4644,160.2324
175.4066,160.2457
175.3518,160.2662
175.3022,160.2918
175.2141,160.3525
175.1636,160.2451
174.9026,160.2451
174.9026,161.8702
175.2141,161.8702
175.2141,161.3142
175.2847,161.3451
175.3645,161.3688
175.4470,161.3834
175.5269,161.3882
175.6270,161.3796
175.7055,161.3559
175.7671,161.3193
175.8180,161.2683
175.8592,161.2031
175.8904,161.1208
175.9171,160.9843
175.9270,160.8097
175.6156,160.8097
175.6079,160.9312
175.5888,161.0084
175.5562,161.0696
175.5187,161.1048
175.4735,161.1249
175.4255,161.1316
175.3690,161.1278
175.3123,161.1164
175.2585,161.0983
175.2141,161.0764
175.2141,160.5412
175.3067,160.4988
175.3633,160.4836
175.4271,160.4784
175.4792,160.4859
175.5242,160.5082
175.5602,160.5460
175.5909,160.6108
175.6086,160.6906
175.6156,160.8097
175.9270,160.8097
175.9209,160.6782
175.9040,160.5668
175.8736,160.4646
175.8322,160.3833
175.7762,160.3163
175.7072,160.2678
175.6262,160.2384
175.5269,160.2279
Z" /> 
<path style="fill:#000000; fill-opacity:1.0000; stroke:none;fill-rule:evenodd;"
d="M 176.4845,161.3771
176.4057,161.3723
176.3405,161.3589
176.2867,161.3382
176.2387,161.3076
176.1998,161.2679
176.1693,161.2181
176.1489,161.1625
176.1355,161.0935
176.1307,161.0083
176.1307,159.7702
176.4422,159.7702
176.4422,160.9624
176.4459,161.0225
176.4553,161.0628
176.4722,161.0955
176.4945,161.1167
176.5228,161.1306
176.5591,161.1399
176.6458,161.1516
176.6458,161.3771
Z" /> 
<path style="fill:#000000; fill-opacity:1.0000; stroke:none;fill-rule:evenodd;"
d="M 177.3424,161.3851
177.1769,161.3822
177.0229,161.3735
176.8744,161.3589
176.7476,161.3403
176.7476,161.0917
177.2246,161.0917
177.3062,161.0882
177.3652,161.0790
177.4150,161.0607
177.4469,161.0348
177.4661,160.9986
177.4733,160.9453
177.4733,160.8806
177.4660,160.8289
177.4459,160.7917
177.4145,160.7636
177.3727,160.7435
177.3251,160.7318
177.2692,160.7262
176.8865,160.7100
176.8865,160.4718
177.2555,160.4515
177.3449,160.4387
177.4031,160.4165
177.4313,160.3929
177.4485,160.3603
177.4548,160.3156
177.4548,160.2629
177.4481,160.2108
177.4295,160.1711
177.3992,160.1407
177.3598,160.1205
177.3004,160.1063
177.2139,160.1008
176.7811,160.1008
176.7811,159.8522
177.0422,159.8182
177.1851,159.8074
177.3387,159.8058
177.4286,159.8120
177.5049,159.8275
177.5696,159.8513
177.6285,159.8856
177.6761,159.9283
177.7137,159.9800
177.7404,160.0386
177.7572,160.1076
177.7632,160.1891
177.7632,160.3049
177.7594,160.3634
177.7486,160.4127
177.7308,160.4576
177.7075,160.4954
177.6785,160.5280
177.6452,160.5544
177.6083,160.5753
177.5682,160.5909
177.6108,160.6068
177.6514,160.6314
177.6879,160.6630
177.7204,160.7016
177.7470,160.7459
177.7682,160.7993
177.7813,160.8573
177.7859,160.9236
177.7859,161.0037
177.7778,161.0953
177.7550,161.1713
177.7187,161.2346
177.6685,161.2874
177.6078,161.3282
177.5349,161.3587
177.4474,161.3782
Z" /> 
<path style="fill:#000000; fill-opacity:1.0000; stroke:none;fill-rule:evenodd;"
d="M 177.9153,161.5237
178.5055,159.7555
178.8217,159.7555
178.2316,161.5237
Z" /> 
<path style="fill:#000000; fill-opacity:1.0000; stroke:none;fill-rule:evenodd;"
d="M 209.1596,158.3751
209.0289,158.3668
208.9203,158.3436
208.8544,158.3168
208.7960,158.2787
208.7440,158.2284
208.7023,158.1690
208.6656,158.0903
208.6347,157.9881
208.6154,157.8827
208.6024,157.7486
208.5976,157.5805
208.6026,157.4196
208.6160,157.2897
208.6362,157.1860
208.6679,157.0854
208.7056,157.0068
208.7484,156.9464
208.8013,156.8950
208.8605,156.8557
208.9269,156.8277
209.0360,156.8030
209.1641,156.7943
209.2672,156.7972
209.3605,156.8057
209.5255,156.8332
209.6495,156.8670
209.6495,157.1079
209.5472,157.0922
209.4013,157.0791
209.2291,157.0739
209.1449,157.0791
209.0798,157.0931
209.0244,157.1209
208.9809,157.1660
208.9503,157.2269
208.9264,157.3203
208.9139,157.4286
208.9090,157.5835
208.9132,157.7326
208.9241,157.8404
208.9457,157.9344
208.9745,157.9965
209.0167,158.0433
209.0723,158.0736
209.1389,158.0895
209.2293,158.0955
209.4886,158.0891
209.6495,158.0737
209.6495,158.3147
209.5195,158.3467
209.3578,158.3675
Z" /> 
<path style="fill:#000000; fill-opacity:1.0000; stroke:none;fill-rule:evenodd;"
d="M 210.3686,158.3751
210.2379,158.3668
210.1293,158.3436
210.0634,158.3168
210.0050,158.2787
209.9530,158.2284
209.9113,158.1690
209.8746,158.0903
209.8437,157.9881
209.8244,157.8827
209.8114,157.7486
209.8066,157.5805
209.8116,157.4196
209.8250,157.2897
209.8452,157.1860
209.8769,157.0854
209.9146,157.0068
209.9574,156.9464
210.0103,156.8950
210.0695,156.8557
210.1359,156.8277
210.2450,156.8030
210.3731,156.7943
210.4762,156.7972
210.5695,156.8057
210.7345,156.8332
210.8585,156.8670
210.8585,157.1079
210.7562,157.0922
210.6104,157.0791
210.4381,157.0739
210.3539,157.0791
210.2888,157.0931
210.2334,157.1209
210.1899,157.1660
210.1593,157.2269
210.1354,157.3203
210.1229,157.4286
210.1180,157.5835
210.1222,157.7326
210.1331,157.8404
210.1547,157.9344
210.1835,157.9965
210.2257,158.0433
210.2813,158.0736
210.3479,158.0895
210.4383,158.0955
210.6976,158.0891
210.8585,158.0737
210.8585,158.3147
210.7285,158.3467
210.5668,158.3675
Z" /> 
<path style="fill:#000000; fill-opacity:1.0000; stroke:none;fill-rule:evenodd;"
d="M 211.6163,158.3625
212.2551,158.3625
212.3549,158.3574
212.4390,158.3432
212.5099,158.3212
212.5744,158.2874
212.6267,158.2426
212.6680,158.1859
212.6964,158.1210
212.7150,158.0384
212.7218,157.9341
212.7179,157.8793
212.4257,157.8793
212.4196,157.9486
212.4035,157.9974
212.3766,158.0363
212.3415,158.0624
212.2990,158.0775
212.2458,158.0829
211.9277,158.0829
211.9277,157.6879
212.2458,157.6879
212.2969,157.6939
212.3395,157.7110
212.3752,157.7387
212.4027,157.7766
212.4196,157.8222
212.4257,157.8793
212.7179,157.8793
212.7158,157.8507
212.6993,157.7820
212.6723,157.7201
212.6385,157.6698
212.5974,157.6276
212.5525,157.5958
212.5039,157.5718
212.4553,157.5553
212.5178,157.5312
212.5703,157.4933
212.6124,157.4429
212.6448,157.3785
212.6643,157.3054
212.6670,157.2700
212.3751,157.2700
212.3640,157.3442
212.3352,157.3998
212.3063,157.4275
212.2716,157.4440
212.2289,157.4498
211.9277,157.4498
211.9277,157.0880
212.2250,157.0880
212.2837,157.0980
212.3324,157.1276
212.3550,157.1573
212.3701,157.2027
212.3751,157.2700
212.6670,157.2700
212.6712,157.2163
212.6638,157.1189
212.6428,157.0380
212.6098,156.9707
212.5649,156.9146
212.5091,156.8712
212.4371,156.8381
212.3450,156.8164
212.2280,156.8084
211.6163,156.8084
Z" /> 
<path style="fill:#000000; fill-opacity:1.0000; stroke:none;fill-rule:evenodd;"
d="M 213.3013,158.3625
213.3013,157.8917
212.8340,156.8084
213.1573,156.8084
213.4631,157.5747
213.7691,156.8084
214.0800,156.8084
213.6128,157.8917
213.6128,158.3625
Z" /> 
<path style="fill:#000000; fill-opacity:1.0000; stroke:none;fill-rule:evenodd;"
d="M 214.0780,157.8785
214.0780,157.6285
214.7204,157.6285
214.7204,157.8785
Z" /> 
<path style="fill:#000000; fill-opacity:1.0000; stroke:none;fill-rule:evenodd;"
d="M 215.3693,158.3751
215.2440,158.3715
215.1135,158.3606
214.9890,158.3445
214.8810,158.3232
214.8810,158.0777
215.0246,158.0874
215.1906,158.0934
215.3539,158.0955
215.4307,158.0919
215.4914,158.0820
215.5443,158.0624
215.5814,158.0342
215.6047,157.9949
215.6132,157.9382
215.6132,157.8814
215.6082,157.8366
215.5941,157.8020
215.5717,157.7751
215.5241,157.7486
215.4554,157.7388
215.3222,157.7388
215.2094,157.7316
215.1172,157.7119
215.0419,157.6813
214.9807,157.6409
214.9320,157.5882
214.8952,157.5184
214.8710,157.4273
214.8621,157.3092
214.8621,157.2325
214.8715,157.1201
214.8973,157.0302
214.9376,156.9583
214.9923,156.9013
215.0593,156.8577
215.1414,156.8248
215.2418,156.8035
215.3642,156.7958
215.5362,156.8042
215.6997,156.8244
215.8344,156.8494
215.8344,157.0949
215.6205,157.0812
215.4010,157.0755
215.3305,157.0791
215.2729,157.0892
215.2231,157.1094
215.1879,157.1403
215.1664,157.1831
215.1582,157.2479
215.1582,157.2892
215.1642,157.3420
215.1802,157.3801
215.2051,157.4072
215.2383,157.4258
215.2825,157.4381
215.3410,157.4426
215.4954,157.4426
215.5873,157.4490
215.6634,157.4668
215.7264,157.4947
215.7829,157.5340
215.8282,157.5810
215.8636,157.6365
215.8886,157.6980
215.9040,157.7658
215.9094,157.8414
215.9094,157.9305
215.9005,158.0504
215.8768,158.1411
215.8411,158.2090
215.7902,158.2662
215.7278,158.3097
215.6519,158.3403
215.5253,158.3659
Z" /> 
<path style="fill:#000000; fill-opacity:1.0000; stroke:none;fill-rule:evenodd;"
d="M 216.0379,158.3625
216.3581,158.3625
216.4551,158.0374
216.9844,158.0374
217.0835,158.3625
217.4068,158.3625
217.2165,157.7577
216.9102,157.7577
216.5281,157.7577
216.7193,157.0754
216.9102,157.7577
217.2165,157.7577
216.9178,156.8084
216.5269,156.8084
Z" /> 
<path style="fill:#000000; fill-opacity:1.0000; stroke:none;fill-rule:evenodd;"
d="M 208.6217,160.8825
208.6217,159.2818
208.9332,159.2818
208.9332,159.8700
208.9997,159.8237
209.0915,159.7780
209.1911,159.7466
209.2916,159.7362
209.3759,159.7426
209.4428,159.7599
209.4957,159.7866
209.5414,159.8244
209.5777,159.8709
209.6053,159.9274
209.6302,160.0220
209.6390,160.1362
209.6390,160.8825
209.3276,160.8825
209.3276,160.1761
209.3221,160.1258
209.3067,160.0870
209.2820,160.0556
209.2500,160.0335
209.2122,160.0205
209.1672,160.0159
209.0814,160.0270
209.0037,160.0568
208.9332,160.0990
208.9332,160.8825
Z" /> 
<path style="fill:#000000; fill-opacity:1.0000; stroke:none;fill-rule:evenodd;"
d="M 210.3002,160.8825
210.2138,160.8777
210.1444,160.8646
210.0891,160.8448
210.0404,160.8142
210.0018,160.7728
209.9725,160.7190
209.9543,160.6591
209.9428,160.5813
209.9400,160.4816
209.9503,160.0041
209.7743,160.0041
209.7743,159.8046
209.9615,159.7551
210.0028,159.4391
210.2484,159.4391
210.2484,159.7551
210.5145,159.7551
210.5145,160.0041
210.2484,160.0041
210.2484,160.4800
210.2571,160.5550
210.2680,160.5823
210.2817,160.6021
210.3183,160.6280
210.3612,160.6382
210.5033,160.6523
210.5033,160.8825
Z" /> 
<path style="fill:#000000; fill-opacity:1.0000; stroke:none;fill-rule:evenodd;"
d="M 211.1165,160.8825
211.0301,160.8777
210.9607,160.8646
210.9054,160.8448
210.8567,160.8142
210.8181,160.7728
210.7888,160.7190
210.7705,160.6591
210.7590,160.5813
210.7563,160.4816
210.7666,160.0041
210.5906,160.0041
210.5906,159.8046
210.7778,159.7551
210.8191,159.4391
211.0646,159.4391
211.0646,159.7551
211.3307,159.7551
211.3307,160.0041
211.0646,160.0041
211.0646,160.4800
211.0733,160.5550
211.0843,160.5823
211.0980,160.6021
211.1345,160.6280
211.1775,160.6382
211.3195,160.6523
211.3195,160.8825
Z" /> 
<path style="fill:#000000; fill-opacity:1.0000; stroke:none;fill-rule:evenodd;"
d="M 212.0646,159.7424
212.0067,159.7557
211.9520,159.7762
211.9024,159.8018
211.8143,159.8625
211.7638,159.7551
211.5028,159.7551
211.5028,161.3802
211.8143,161.3802
211.8143,160.8242
211.8849,160.8551
211.9647,160.8788
212.0472,160.8934
212.1271,160.8982
212.2271,160.8896
212.3057,160.8659
212.3673,160.8293
212.4182,160.7783
212.4594,160.7131
212.4906,160.6308
212.5173,160.4943
212.5272,160.3197
212.2158,160.3197
212.2081,160.4412
212.1890,160.5184
212.1564,160.5796
212.1189,160.6148
212.0737,160.6349
212.0257,160.6416
211.9692,160.6378
211.9125,160.6264
211.8587,160.6083
211.8143,160.5864
211.8143,160.0512
211.9069,160.0088
211.9635,159.9936
212.0273,159.9884
212.0794,159.9959
212.1244,160.0182
212.1604,160.0560
212.1911,160.1208
212.2088,160.2006
212.2158,160.3197
212.5272,160.3197
212.5211,160.1882
212.5042,160.0768
212.4738,159.9746
212.4324,159.8933
212.3764,159.8263
212.3073,159.7778
212.2264,159.7484
212.1271,159.7379
Z" /> 
<path style="fill:#000000; fill-opacity:1.0000; stroke:none;fill-rule:evenodd;"
d="M 213.1414,160.8951
213.0273,160.8918
212.9052,160.8825
212.7925,160.8667
212.7053,160.8441
212.7053,160.6616
213.2044,160.6616
213.2766,160.6541
213.3021,160.6431
213.3190,160.6267
213.3290,160.6041
213.3328,160.5704
213.3328,160.5341
213.3257,160.4962
213.3053,160.4689
213.2711,160.4525
213.2049,160.4454
213.0283,160.4454
212.9346,160.4379
212.8539,160.4165
212.8054,160.3927
212.7648,160.3609
212.7311,160.3204
212.7070,160.2734
212.6915,160.2141
212.6858,160.1391
212.6858,160.0737
212.6908,160.0031
212.7049,159.9436
212.7272,159.8933
212.7598,159.8500
212.8057,159.8131
212.8678,159.7825
212.9352,159.7629
213.0239,159.7496
213.1388,159.7447
213.2876,159.7519
213.4364,159.7707
213.5476,159.7961
213.5476,159.9787
213.0758,159.9787
213.0189,159.9844
212.9827,159.9989
212.9599,160.0258
212.9511,160.0737
212.9511,160.1085
212.9553,160.1416
212.9661,160.1632
212.9843,160.1785
213.0121,160.1887
213.0883,160.1954
213.2694,160.1954
213.3569,160.2013
213.4255,160.2175
213.4789,160.2421
213.5200,160.2743
213.5623,160.3314
213.5887,160.4028
213.5982,160.4927
213.5982,160.5935
213.5917,160.6674
213.5735,160.7262
213.5450,160.7731
213.5057,160.8118
213.4549,160.8432
213.3902,160.8672
213.2827,160.8875
Z" /> 
<path style="fill:#000000; fill-opacity:1.0000; stroke:none;fill-rule:evenodd;"
d="M 213.8278,160.8856
213.8029,160.8806
213.7892,160.8673
213.7842,160.8435
213.7842,160.6288
213.7894,160.6030
213.8032,160.5889
213.8278,160.5836
214.0075,160.5836
214.0332,160.5889
214.0474,160.6032
214.0527,160.6288
214.0527,160.8435
214.0492,160.8642
214.0400,160.8763
214.0075,160.8856
Z" /> 
<path style="fill:#000000; fill-opacity:1.0000; stroke:none;fill-rule:evenodd;"
d="M 213.8278,160.0532
213.8029,160.0482
213.7892,160.0349
213.7842,160.0111
213.7842,159.7964
213.7894,159.7706
213.8032,159.7565
213.8278,159.7513
214.0075,159.7513
214.0332,159.7566
214.0474,159.7708
214.0527,159.7964
214.0527,160.0111
214.0492,160.0318
214.0400,160.0439
214.0075,160.0532
Z" /> 
<path style="fill:#000000; fill-opacity:1.0000; stroke:none;fill-rule:evenodd;"
d="M 214.1521,161.0337
214.7422,159.2655
215.0585,159.2655
214.4683,161.0337
Z" /> 
<path style="fill:#000000; fill-opacity:1.0000; stroke:none;fill-rule:evenodd;"
d="M 214.8277,161.0337
215.4178,159.2655
215.7340,159.2655
215.1439,161.0337
Z" /> 
<path style="fill:#000000; fill-opacity:1.0000; stroke:none;fill-rule:evenodd;"
d="M 216.1762,160.8951
216.0761,160.8881
215.9867,160.8679
215.9055,160.8314
215.8363,160.7767
215.7987,160.7310
215.7658,160.6734
215.7380,160.6019
215.7127,160.4836
215.7032,160.3239
215.7121,160.1588
215.7354,160.0376
215.7616,159.9639
215.7929,159.9050
215.8290,159.8584
215.8729,159.8192
215.9231,159.7884
215.9806,159.7657
216.0744,159.7456
216.1853,159.7384
216.2859,159.7414
216.3810,159.7501
216.4760,159.7654
216.5781,159.7895
216.5781,159.9690
216.2821,159.9690
216.1906,159.9769
216.1263,159.9976
216.0918,160.0211
216.0635,160.0553
216.0412,160.1024
216.0223,160.1870
216.0147,160.3215
216.0224,160.4546
216.0412,160.5367
216.0636,160.5816
216.0920,160.6136
216.1268,160.6349
216.1913,160.6530
216.2851,160.6600
216.5934,160.6600
216.5934,160.8364
216.4725,160.8663
216.3260,160.8876
Z" /> 
<path style="fill:#000000; fill-opacity:1.0000; stroke:none;fill-rule:evenodd;"
d="M 216.7653,160.8825
216.7653,159.7551
217.0062,159.7551
217.0768,159.9273
217.1417,159.8553
217.2142,159.7948
217.2678,159.7644
217.3282,159.7459
217.3969,159.7394
217.4427,159.7418
217.4887,159.7505
217.4887,160.0696
217.4219,160.0628
217.3569,160.0601
217.2975,160.0636
217.2464,160.0736
217.1988,160.0903
217.1555,160.1132
217.1156,160.1426
217.0768,160.1805
217.0768,160.8825
Z" /> 
<path style="fill:#000000; fill-opacity:1.0000; stroke:none;fill-rule:evenodd;"
d="M 217.9935,159.7444
217.8968,159.7621
217.8224,159.7884
217.7577,159.8296
217.7062,159.8874
217.6669,159.9647
217.6428,160.0502
217.6263,160.1661
217.6200,160.3197
217.6266,160.4692
217.6440,160.5832
217.6695,160.6684
217.7106,160.7449
217.7640,160.8024
217.8308,160.8436
217.9071,160.8697
218.0049,160.8872
218.1290,160.8936
218.2584,160.8893
218.3607,160.8776
218.5411,160.8441
218.5411,160.6616
218.2115,160.6616
218.1036,160.6551
218.0370,160.6394
217.9862,160.6093
217.9553,160.5659
217.9382,160.5098
217.9285,160.4291
218.2135,160.4291
218.3206,160.4217
218.4065,160.4012
218.4576,160.3778
218.4993,160.3465
218.5328,160.3070
218.5565,160.2608
218.5719,160.2019
218.5774,160.1287
218.3029,160.1287
218.2945,160.1862
218.2735,160.2181
218.2388,160.2361
218.1813,160.2432
217.9254,160.2432
217.9307,160.1385
217.9439,160.0711
217.9694,160.0177
218.0047,159.9861
218.0514,159.9688
218.1180,159.9623
218.1811,159.9667
218.2252,159.9780
218.2605,159.9992
218.2843,160.0303
218.2977,160.0705
218.3029,160.1287
218.5774,160.1287
218.5775,160.1271
218.5716,160.0251
218.5558,159.9475
218.5323,159.8892
218.4966,159.8390
218.4488,159.7999
218.3867,159.7712
218.2775,159.7473
218.1180,159.7379
Z" /> 
<path style="fill:#000000; fill-opacity:1.0000; stroke:none;fill-rule:evenodd;"
d="M 219.1126,159.7456
218.9991,159.7589
218.8946,159.7797
218.8091,159.8036
218.8091,159.9830
219.1462,159.9830
219.2446,159.9878
219.3032,159.9993
219.3482,160.0212
219.3734,160.0498
219.3868,160.0871
219.3918,160.1373
219.3918,160.2137
219.1041,160.2137
219.0067,160.2200
218.9296,160.2370
218.8692,160.2630
218.8222,160.2969
218.7720,160.3572
218.7421,160.4267
218.7318,160.5083
218.7318,160.6102
218.7415,160.6954
218.7685,160.7637
218.8123,160.8191
218.8701,160.8607
218.9384,160.8862
219.0203,160.8951
219.0893,160.8915
219.1537,160.8808
219.2152,160.8640
219.2686,160.8439
219.3557,160.8002
219.4072,160.7634
219.4578,160.8825
219.7033,160.8825
219.7033,160.6239
219.3918,160.6239
219.3715,160.6322
219.3315,160.6466
219.2797,160.6617
219.2251,160.6742
219.1770,160.6789
219.1098,160.6673
219.0824,160.6522
219.0613,160.6292
219.0481,160.5992
219.0432,160.5583
219.0432,160.5128
219.0533,160.4570
219.0819,160.4165
219.1279,160.3897
219.2036,160.3741
219.3918,160.3610
219.3918,160.6239
219.7033,160.6239
219.7033,160.1159
219.6967,160.0202
219.6786,159.9462
219.6512,159.8893
219.6116,159.8406
219.5616,159.8022
219.4995,159.7737
219.3943,159.7490
219.2594,159.7403
Z" /> 
<path style="fill:#000000; fill-opacity:1.0000; stroke:none;fill-rule:evenodd;"
d="M 220.3650,160.8825
220.2786,160.8777
220.2092,160.8646
220.1539,160.8448
220.1052,160.8142
220.0666,160.7728
220.0373,160.7190
220.0190,160.6591
220.0075,160.5813
220.0048,160.4816
220.0151,160.0041
219.8391,160.0041
219.8391,159.8046
220.0263,159.7551
220.0676,159.4391
220.3131,159.4391
220.3131,159.7551
220.5792,159.7551
220.5792,160.0041
220.3131,160.0041
220.3131,160.4800
220.3218,160.5550
220.3328,160.5823
220.3465,160.6021
220.3830,160.6280
220.4260,160.6382
220.5680,160.6523
220.5680,160.8825
Z" /> 
<path style="fill:#000000; fill-opacity:1.0000; stroke:none;fill-rule:evenodd;"
d="M 220.7891,159.5891
220.7642,159.5841
220.7505,159.5708
220.7455,159.5471
220.7455,159.3417
220.7506,159.3159
220.7644,159.3017
220.7891,159.2965
221.0287,159.2965
221.0468,159.2999
221.0588,159.3092
221.0687,159.3417
221.0687,159.5471
221.0639,159.5712
221.0512,159.5843
221.0287,159.5891
Z" /> 
<path style="fill:#000000; fill-opacity:1.0000; stroke:none;fill-rule:evenodd;"
d="M 220.7513,160.8825
220.7513,159.7551
221.0628,159.7551
221.0628,160.8825
Z" /> 
<path style="fill:#000000; fill-opacity:1.0000; stroke:none;fill-rule:evenodd;"
d="M 221.5858,160.8825
221.2078,159.7551
221.5285,159.7551
221.7712,160.5946
222.0224,159.7551
222.3400,159.7551
221.9444,160.8825
Z" /> 
<path style="fill:#000000; fill-opacity:1.0000; stroke:none;fill-rule:evenodd;"
d="M 222.7827,159.7444
222.6859,159.7621
222.6115,159.7884
222.5468,159.8296
222.4953,159.8874
222.4560,159.9647
222.4319,160.0502
222.4154,160.1661
222.4091,160.3197
222.4157,160.4692
222.4331,160.5832
222.4587,160.6684
222.4997,160.7449
222.5531,160.8024
222.6200,160.8436
222.6962,160.8697
222.7940,160.8872
222.9181,160.8936
223.0475,160.8893
223.1498,160.8776
223.3302,160.8441
223.3302,160.6616
223.0006,160.6616
222.8927,160.6551
222.8261,160.6394
222.7753,160.6093
222.7444,160.5659
222.7274,160.5098
222.7176,160.4291
223.0026,160.4291
223.1097,160.4217
223.1956,160.4012
223.2467,160.3778
223.2884,160.3465
223.3219,160.3070
223.3456,160.2608
223.3610,160.2019
223.3665,160.1287
223.0920,160.1287
223.0836,160.1862
223.0626,160.2181
223.0279,160.2361
222.9704,160.2432
222.7145,160.2432
222.7198,160.1385
222.7330,160.0711
222.7585,160.0177
222.7938,159.9861
222.8405,159.9688
222.9071,159.9623
222.9703,159.9667
223.0143,159.9780
223.0496,159.9992
223.0734,160.0303
223.0868,160.0705
223.0920,160.1287
223.3665,160.1287
223.3666,160.1271
223.3607,160.0251
223.3449,159.9475
223.3215,159.8892
223.2857,159.8390
223.2379,159.7999
223.1758,159.7712
223.0666,159.7473
222.9071,159.7379
Z" /> 
<path style="fill:#000000; fill-opacity:1.0000; stroke:none;fill-rule:evenodd;"
d="M 224.0090,160.8951
223.9090,160.8881
223.8195,160.8679
223.7384,160.8314
223.6691,160.7767
223.6315,160.7310
223.5986,160.6734
223.5709,160.6019
223.5456,160.4836
223.5360,160.3239
223.5449,160.1588
223.5683,160.0376
223.5944,159.9639
223.6258,159.9050
223.6619,159.8584
223.7058,159.8192
223.7560,159.7884
223.8135,159.7657
223.9073,159.7456
224.0182,159.7384
224.1187,159.7414
224.2139,159.7501
224.3088,159.7654
224.4109,159.7895
224.4109,159.9690
224.1150,159.9690
224.0235,159.9769
223.9592,159.9976
223.9247,160.0211
223.8963,160.0553
223.8740,160.1024
223.8552,160.1870
223.8475,160.3215
223.8553,160.4546
223.8741,160.5367
223.8965,160.5816
223.9249,160.6136
223.9597,160.6349
224.0242,160.6530
224.1180,160.6600
224.4262,160.6600
224.4262,160.8364
224.3053,160.8663
224.1589,160.8876
Z" /> 
<path style="fill:#000000; fill-opacity:1.0000; stroke:none;fill-rule:evenodd;"
d="M 224.9498,159.7449
224.8458,159.7638
224.7826,159.7860
224.7294,159.8161
224.6848,159.8541
224.6485,159.9002
224.6180,159.9584
224.5937,160.0310
224.5728,160.1509
224.5648,160.3162
224.5725,160.4733
224.5929,160.5911
224.6166,160.6628
224.6468,160.7215
224.6832,160.7689
224.7279,160.8086
224.7811,160.8405
224.8442,160.8646
224.9485,160.8858
225.0825,160.8936
225.2193,160.8861
225.3241,160.8662
225.3874,160.8430
225.4405,160.8121
225.4846,160.7735
225.5204,160.7270
225.5503,160.6687
225.5737,160.5965
225.5937,160.4774
225.6013,160.3162
225.6013,160.3146
225.2899,160.3146
225.2865,160.4200
225.2777,160.4920
225.2611,160.5534
225.2406,160.5915
225.2121,160.6187
225.1767,160.6345
225.1356,160.6419
225.0825,160.6446
225.0295,160.6419
224.9886,160.6345
224.9534,160.6187
224.9250,160.5915
224.9046,160.5534
224.8882,160.4920
224.8797,160.4199
224.8763,160.3146
224.8797,160.2090
224.8882,160.1378
224.9046,160.0773
224.9250,160.0397
224.9534,160.0127
224.9886,159.9970
225.0295,159.9896
225.0825,159.9868
225.1356,159.9896
225.1767,159.9970
225.2121,160.0127
225.2406,160.0397
225.2611,160.0773
225.2777,160.1378
225.2864,160.2090
225.2899,160.3146
225.6013,160.3146
225.5933,160.1537
225.5721,160.0341
225.5478,159.9614
225.5174,159.9033
225.4815,159.8572
225.4375,159.8191
225.3844,159.7885
225.3210,159.7654
225.2166,159.7453
225.0825,159.7379
Z" /> 
<path style="fill:#000000; fill-opacity:1.0000; stroke:none;fill-rule:evenodd;"
d="M 225.8057,160.8825
225.8057,159.7551
226.0624,159.7551
226.1172,159.8700
226.1941,159.8192
226.2785,159.7757
226.3380,159.7546
226.4092,159.7411
226.4940,159.7362
226.5632,159.7416
226.6212,159.7568
226.6700,159.7808
226.7325,159.8318
226.7775,159.8946
226.8884,159.8222
226.9544,159.7888
227.0261,159.7610
227.1001,159.7423
227.1717,159.7362
227.2611,159.7427
227.3313,159.7604
227.3860,159.7874
227.4330,159.8260
227.4696,159.8737
227.4966,159.9320
227.5203,160.0301
227.5289,160.1516
227.5289,160.8825
227.2175,160.8825
227.2175,160.1792
227.2121,160.1275
227.1974,160.0886
227.1734,160.0570
227.1419,160.0344
227.1040,160.0208
227.0564,160.0159
226.9940,160.0221
226.9290,160.0415
226.8672,160.0704
226.8140,160.1041
226.8207,160.1442
226.8230,160.1854
226.8230,160.8825
226.5116,160.8825
226.5116,160.1792
226.5062,160.1275
226.4915,160.0886
226.4676,160.0570
226.4363,160.0344
226.3987,160.0208
226.3512,160.0159
226.2651,160.0262
226.1879,160.0552
226.1172,160.0990
226.1172,160.8825
Z" /> 
<path style="fill:#000000; fill-opacity:1.0000; stroke:none;fill-rule:evenodd;"
d="M 227.7606,160.8825
227.7606,159.7551
228.0173,159.7551
228.0721,159.8700
228.1490,159.8192
228.2334,159.7757
228.2929,159.7546
228.3641,159.7411
228.4489,159.7362
228.5181,159.7416
228.5761,159.7568
228.6249,159.7808
228.6874,159.8318
228.7324,159.8946
228.8433,159.8222
228.9093,159.7888
228.9810,159.7610
229.0551,159.7423
229.1266,159.7362
229.2160,159.7427
229.2862,159.7604
229.3409,159.7874
229.3879,159.8260
229.4246,159.8737
229.4515,159.9320
229.4752,160.0301
229.4838,160.1516
229.4838,160.8825
229.1724,160.8825
229.1724,160.1792
229.1670,160.1275
229.1523,160.0886
229.1283,160.0570
229.0968,160.0344
229.0589,160.0208
229.0114,160.0159
228.9489,160.0221
228.8840,160.0415
228.8222,160.0704
228.7689,160.1041
228.7756,160.1442
228.7779,160.1854
228.7779,160.8825
228.4665,160.8825
228.4665,160.1792
228.4611,160.1275
228.4464,160.0886
228.4225,160.0570
228.3912,160.0344
228.3536,160.0208
228.3061,160.0159
228.2200,160.0262
228.1428,160.0552
228.0721,160.0990
228.0721,160.8825
Z" /> 
<path style="fill:#000000; fill-opacity:1.0000; stroke:none;fill-rule:evenodd;"
d="M 230.0672,159.7449
229.9632,159.7638
229.8999,159.7860
229.8467,159.8161
229.8022,159.8541
229.7659,159.9002
229.7354,159.9584
229.7111,160.0310
229.6902,160.1509
229.6822,160.3162
229.6899,160.4733
229.7103,160.5911
229.7340,160.6628
229.7642,160.7215
229.8006,160.7689
229.8453,160.8086
229.8985,160.8405
229.9616,160.8646
230.0659,160.8858
230.1998,160.8936
230.3367,160.8861
230.4415,160.8662
230.5048,160.8430
230.5578,160.8121
230.6019,160.7735
230.6378,160.7270
230.6677,160.6687
230.6911,160.5965
230.7111,160.4774
230.7187,160.3162
230.7186,160.3146
230.4073,160.3146
230.4038,160.4200
230.3950,160.4920
230.3784,160.5534
230.3579,160.5915
230.3295,160.6187
230.2941,160.6345
230.2530,160.6419
230.1998,160.6446
230.1469,160.6419
230.1060,160.6345
230.0708,160.6187
230.0424,160.5915
230.0220,160.5534
230.0056,160.4920
229.9970,160.4199
229.9937,160.3146
229.9971,160.2090
230.0056,160.1378
230.0220,160.0773
230.0424,160.0397
230.0708,160.0127
230.1060,159.9970
230.1469,159.9896
230.1998,159.9868
230.2530,159.9896
230.2941,159.9970
230.3295,160.0127
230.3579,160.0397
230.3785,160.0773
230.3950,160.1378
230.4038,160.2090
230.4073,160.3146
230.7186,160.3146
230.7107,160.1537
230.6895,160.0341
230.6652,159.9614
230.6348,159.9033
230.5989,159.8572
230.5549,159.8191
230.5018,159.7885
230.4384,159.7654
230.3339,159.7453
230.1998,159.7379
Z" /> 
<path style="fill:#000000; fill-opacity:1.0000; stroke:none;fill-rule:evenodd;"
d="M 230.9231,160.8825
230.9231,159.7551
231.1798,159.7551
231.2346,159.8700
231.3034,159.8224
231.3936,159.7773
231.4910,159.7464
231.5898,159.7362
231.6802,159.7432
231.7498,159.7619
231.8031,159.7905
231.8486,159.8307
231.8839,159.8790
231.9097,159.9365
231.9324,160.0315
231.9404,160.1393
231.9404,160.8825
231.6289,160.8825
231.6289,160.1792
231.6235,160.1275
231.6089,160.0886
231.5849,160.0570
231.5537,160.0344
231.5160,160.0208
231.4686,160.0159
231.3825,160.0262
231.3053,160.0552
231.2346,160.0990
231.2346,160.8825
Z" /> 
<path style="fill:#000000; fill-opacity:1.0000; stroke:none;fill-rule:evenodd;"
d="M 232.5821,160.8951
232.4680,160.8918
232.3459,160.8825
232.2333,160.8667
232.1461,160.8441
232.1461,160.6616
232.6451,160.6616
232.7173,160.6541
232.7428,160.6431
232.7597,160.6267
232.7697,160.6041
232.7736,160.5704
232.7736,160.5341
232.7664,160.4962
232.7461,160.4689
232.7119,160.4525
232.6457,160.4454
232.4690,160.4454
232.3754,160.4379
232.2946,160.4165
232.2462,160.3927
232.2056,160.3609
232.1718,160.3204
232.1478,160.2734
232.1322,160.2141
232.1266,160.1391
232.1266,160.0737
232.1316,160.0031
232.1457,159.9436
232.1680,159.8933
232.2005,159.8500
232.2465,159.8131
232.3085,159.7825
232.3760,159.7629
232.4647,159.7496
232.5796,159.7447
232.7283,159.7519
232.8771,159.7707
232.9883,159.7961
232.9883,159.9787
232.5166,159.9787
232.4596,159.9844
232.4235,159.9989
232.4006,160.0258
232.3919,160.0737
232.3919,160.1085
232.3960,160.1416
232.4068,160.1632
232.4250,160.1785
232.4529,160.1887
232.5290,160.1954
232.7102,160.1954
232.7977,160.2013
232.8663,160.2175
232.9197,160.2421
232.9608,160.2743
233.0030,160.3314
233.0295,160.4028
233.0390,160.4927
233.0390,160.5935
233.0324,160.6674
233.0143,160.7262
232.9858,160.7731
232.9464,160.8118
232.8956,160.8432
232.8310,160.8672
232.7235,160.8875
Z" /> 
<path style="fill:#000000; fill-opacity:1.0000; stroke:none;fill-rule:evenodd;"
d="M 233.2685,160.8856
233.2436,160.8806
233.2300,160.8673
233.2249,160.8435
233.2249,160.6288
233.2301,160.6030
233.2439,160.5889
233.2685,160.5836
233.4482,160.5836
233.4739,160.5889
233.4882,160.6032
233.4935,160.6288
233.4935,160.8435
233.4899,160.8642
233.4807,160.8763
233.4482,160.8856
Z" /> 
<path style="fill:#000000; fill-opacity:1.0000; stroke:none;fill-rule:evenodd;"
d="M 234.0737,159.7449
233.9697,159.7638
233.9065,159.7860
233.8533,159.8161
233.8087,159.8541
233.7724,159.9002
233.7419,159.9584
233.7177,160.0310
233.6968,160.1509
233.6887,160.3162
233.6964,160.4733
233.7169,160.5911
233.7405,160.6628
233.7708,160.7215
233.8072,160.7689
233.8518,160.8086
233.9050,160.8405
233.9682,160.8646
234.0725,160.8858
234.2064,160.8936
234.3433,160.8861
234.4480,160.8662
234.5114,160.8430
234.5644,160.8121
234.6085,160.7735
234.6444,160.7270
234.6742,160.6687
234.6976,160.5965
234.7176,160.4774
234.7253,160.3162
234.7252,160.3146
234.4139,160.3146
234.4104,160.4200
234.4016,160.4920
234.3850,160.5534
234.3645,160.5915
234.3360,160.6187
234.3007,160.6345
234.2595,160.6419
234.2064,160.6446
234.1535,160.6419
234.1125,160.6345
234.0774,160.6187
234.0490,160.5915
234.0286,160.5534
234.0121,160.4920
234.0036,160.4199
234.0002,160.3146
234.0036,160.2090
234.0121,160.1378
234.0286,160.0773
234.0490,160.0397
234.0773,160.0127
234.1125,159.9970
234.1535,159.9896
234.2064,159.9868
234.2595,159.9896
234.3007,159.9970
234.3361,160.0127
234.3645,160.0397
234.3850,160.0773
234.4016,160.1378
234.4104,160.2090
234.4139,160.3146
234.7252,160.3146
234.7172,160.1537
234.6961,160.0341
234.6717,159.9614
234.6414,159.9033
234.6055,159.8572
234.5614,159.8191
234.5084,159.7885
234.4449,159.7654
234.3405,159.7453
234.2064,159.7379
Z" /> 
<path style="fill:#000000; fill-opacity:1.0000; stroke:none;fill-rule:evenodd;"
d="M 234.9296,160.8825
234.9296,159.7551
235.1706,159.7551
235.2411,159.9273
235.3060,159.8553
235.3785,159.7948
235.4321,159.7644
235.4925,159.7459
235.5612,159.7394
235.6070,159.7418
235.6531,159.7505
235.6531,160.0696
235.5862,160.0628
235.5213,160.0601
235.4618,160.0636
235.4107,160.0736
235.3632,160.0903
235.3199,160.1132
235.2800,160.1426
235.2411,160.1805
235.2411,160.8825
Z" /> 
<path style="fill:#000000; fill-opacity:1.0000; stroke:none;fill-rule:evenodd;"
d="M 236.1672,159.7591
236.0808,159.7730
236.0103,159.7942
235.9453,159.8266
235.8941,159.8671
235.8549,159.9160
235.8272,159.9726
235.8097,160.0406
235.8034,160.1227
235.8077,160.1859
235.8204,160.2469
235.8430,160.3047
235.8771,160.3587
235.9225,160.4054
235.9834,160.4457
235.9275,160.4639
235.8825,160.4897
235.8467,160.5230
235.8199,160.5636
235.8036,160.6104
235.7979,160.6652
235.8078,160.7301
235.8374,160.7875
235.8891,160.8398
235.9140,160.8538
235.8512,160.8886
235.7921,160.9443
235.7633,160.9891
235.7459,161.0400
235.7398,161.0985
235.7398,161.1324
235.7455,161.1889
235.7617,161.2377
235.7883,161.2804
235.8445,161.3329
235.9205,161.3723
236.0077,161.3954
236.1094,161.4036
236.4479,161.4036
236.5594,161.3964
236.6480,161.3769
236.7178,161.3471
236.7724,161.3081
236.8176,161.2571
236.8502,161.1975
236.8705,161.1277
236.8777,161.0453
236.8777,161.0297
236.5826,161.0297
236.5826,161.0622
236.5772,161.1008
236.5618,161.1309
236.5360,161.1546
236.4842,161.1770
236.4111,161.1854
236.1970,161.1854
236.1241,161.1766
236.0764,161.1539
236.0536,161.1301
236.0397,161.1001
236.0347,161.0617
236.0347,161.0371
236.0400,160.9979
236.0548,160.9673
236.0785,160.9430
236.1108,160.9248
236.1483,160.9142
236.1930,160.9104
236.4195,160.9104
236.4740,160.9144
236.5125,160.9247
236.5441,160.9426
236.5653,160.9653
236.5781,160.9937
236.5826,161.0297
236.8777,161.0297
236.8777,161.0157
236.8716,160.9352
236.8549,160.8705
236.8291,160.8187
236.7925,160.7739
236.7465,160.7380
236.6897,160.7105
236.5934,160.6859
236.4702,160.6769
236.1577,160.6769
236.1220,160.6734
236.0904,160.6634
236.0679,160.6445
236.0601,160.6130
236.0692,160.5760
236.0957,160.5528
236.1344,160.5402
236.1871,160.5356
236.3871,160.5356
236.4854,160.5297
236.5631,160.5139
236.6241,160.4900
236.6793,160.4551
236.7219,160.4141
236.7536,160.3667
236.7836,160.2852
236.7940,160.1913
236.7917,160.1483
236.5133,160.1483
236.5098,160.1925
236.4998,160.2289
236.4812,160.2594
236.4512,160.2828
236.4120,160.2966
236.3522,160.3020
236.2328,160.3020
236.1846,160.2972
236.1483,160.2841
236.1212,160.2639
236.1018,160.2360
236.0890,160.1969
236.0841,160.1427
236.0894,160.0869
236.1031,160.0483
236.1237,160.0223
236.1700,159.9972
236.2424,159.9876
236.3595,159.9876
236.4075,159.9917
236.4442,160.0029
236.4741,160.0232
236.4959,160.0539
236.5085,160.0929
236.5133,160.1483
236.7917,160.1483
236.7905,160.1268
236.7812,160.0795
236.7662,160.0375
236.7493,160.0059
236.7105,159.9568
236.8832,159.9257
236.8832,159.7540
236.2726,159.7540
Z" /> 
<path style="fill:#000000; fill-opacity:1.0000; stroke:none;fill-rule:evenodd;"
d="M 199.0522,159.0000
199.9522,159.0000
199.9522,160.8500
199.0522,160.8500
Z" /> 
<path style="fill:#000000; fill-opacity:1.0000; 
stroke:#000000; stroke-width:0.4000; stroke-opacity:1; 
stroke-linecap:round; stroke-linejoin:round;fill-rule:evenodd;"
d="M 198.9022,158.2000
200.1022,158.2000
200.1022,159.2000
198.9022,159.2000
Z" /> 
<path style="fill:#000000; fill-opacity:1.0000; stroke:none;fill-rule:evenodd;"
d="M 198.7022,159.2000
200.3022,159.2000
200.3022,159.4000
198.7022,159.4000
Z" /> 
</g>
<g style="fill:none; 
stroke:#000000; stroke-width:0.4000; stroke-opacity:1; 
stroke-linecap:round; stroke-linejoin:round;">
<circle cx="199.5028" cy="159.0000" r="2.5000" /> 
</g>
<g style="fill:#000000; fill-opacity:1.0000; stroke:none;">
<circle cx="199.5022" cy="157.4100" r="0.4000" /> 
</g>
<g style="fill:none; 
stroke:#000000; stroke-width:0.4000; stroke-opacity:1; 
stroke-linecap:round; stroke-linejoin:round;">
<circle cx="205.5028" cy="159.0000" r="2.5000" /> 
<path style="fill:#000000; fill-opacity:1.0000; stroke:none;fill-rule:evenodd;"
d="M 205.4425,157.4000
205.3808,157.4035
205.3203,157.4093
205.2610,157.4175
205.2029,157.4280
205.1459,157.4409
205.0902,157.4561
205.0357,157.4736
204.9824,157.4934
204.9303,157.5156
204.8794,157.5401
204.8297,157.5670
204.7812,157.5962
204.7339,157.6277
204.6878,157.6616
204.6429,157.6978
204.5996,157.7361
204.5585,157.7763
204.5194,157.8185
204.4825,157.8626
204.4476,157.9086
204.4149,157.9566
204.3843,158.0064
204.3558,158.0582
204.3294,158.1119
204.3052,158.1676
204.2830,158.2251
204.2629,158.2846
204.2450,158.3460
204.2291,158.4093
204.2154,158.4746
204.2038,158.5418
203.9711,158.5417
204.5585,159.1291
205.1458,158.5417
204.9289,158.5417
204.9401,158.4782
204.9473,158.4481
204.9555,158.4189
204.9646,158.3908
204.9748,158.3637
204.9861,158.3376
204.9983,158.3125
205.0115,158.2885
205.0258,158.2654
205.0410,158.2434
205.0573,158.2225
205.0746,158.2025
205.0929,158.1836
205.1122,158.1657
205.1325,158.1488
205.1539,158.1330
205.1762,158.1181
205.1996,158.1043
205.2240,158.0915
205.2494,158.0798
205.2758,158.0690
205.3032,158.0593
205.3316,158.0506
205.3915,158.0363
205.4555,158.0261
205.5235,158.0199
205.5956,158.0179
205.6360,158.0189
205.6753,158.0217
205.7133,158.0265
205.7501,158.0333
205.7858,158.0419
205.8202,158.0525
205.8534,158.0650
205.8854,158.0794
205.9162,158.0958
205.9459,158.1140
205.9743,158.1342
206.0015,158.1563
206.0275,158.1803
206.0524,158.2063
206.0760,158.2342
206.0984,158.2639
206.1196,158.2956
206.1393,158.3290
206.1577,158.3641
206.1748,158.4010
206.1905,158.4397
206.2048,158.4801
206.2177,158.5223
206.2293,158.5662
206.2396,158.6119
206.2484,158.6594
206.2559,158.7086
206.2621,158.7595
206.2669,158.8123
206.2703,158.8667
206.2723,158.9230
206.2730,158.9810
206.2723,159.0365
206.2700,159.0906
206.2663,159.1433
206.2611,159.1946
206.2544,159.2445
206.2462,159.2930
206.2365,159.3401
206.2253,159.3858
206.2127,159.4300
206.1985,159.4729
206.1829,159.5144
206.1658,159.5544
206.1471,159.5931
206.1270,159.6303
206.1054,159.6662
206.0823,159.7006
206.0580,159.7333
206.0328,159.7638
206.0066,159.7923
205.9795,159.8186
205.9514,159.8429
205.9223,159.8650
205.8923,159.8850
205.8614,159.9030
205.8295,159.9188
205.7966,159.9325
205.7628,159.9441
205.7281,159.9536
205.6924,159.9610
205.6558,159.9662
205.6182,159.9694
205.5797,159.9705
205.5412,159.9699
205.5039,159.9683
205.4678,159.9657
205.4329,159.9620
205.3991,159.9573
205.3665,159.9515
205.3351,159.9446
205.3048,159.9367
205.2757,159.9278
205.2478,159.9177
205.2210,159.9067
205.1954,159.8945
205.1710,159.8814
205.1477,159.8671
205.1256,159.8518
205.1047,159.8355
205.0849,159.8181
205.0663,159.7997
205.0489,159.7802
205.0327,159.7596
205.0176,159.7380
205.0037,159.7153
204.9909,159.6916
204.9793,159.6668
204.9689,159.6410
204.9597,159.6141
204.9516,159.5862
204.9447,159.5572
204.9390,159.5271
204.9344,159.4960
204.9310,159.4639
204.9288,159.4307
204.1825,159.4307
204.1929,159.4991
204.2055,159.5656
204.2205,159.6301
204.2377,159.6926
204.2572,159.7531
204.2790,159.8116
204.3030,159.8682
204.3293,159.9228
204.3579,159.9753
204.3888,160.0259
204.4219,160.0746
204.4573,160.1212
204.4950,160.1658
204.5349,160.2085
204.5772,160.2492
204.6217,160.2879
204.6679,160.3244
204.7151,160.3586
204.7634,160.3904
204.8128,160.4199
204.8633,160.4470
204.9148,160.4717
204.9675,160.4941
205.0212,160.5141
205.0759,160.5318
205.1318,160.5471
205.1887,160.5601
205.2467,160.5707
205.3058,160.5789
205.3660,160.5848
205.4272,160.5883
205.4895,160.5895
205.5738,160.5877
205.6562,160.5824
205.7366,160.5736
205.8150,160.5612
205.8914,160.5453
205.9658,160.5259
206.0382,160.5029
206.1087,160.4763
206.1771,160.4463
206.2436,160.4127
206.3081,160.3756
206.3706,160.3349
206.4312,160.2908
206.4897,160.2431
206.5463,160.1918
206.6009,160.1370
206.6528,160.0796
206.7013,160.0204
206.7465,159.9593
206.7883,159.8965
206.8268,159.8319
206.8620,159.7654
206.8938,159.6972
206.9222,159.6272
206.9474,159.5553
206.9691,159.4817
206.9875,159.4063
207.0026,159.3290
207.0143,159.2500
207.0227,159.1692
207.0277,159.0865
207.0294,159.0021
207.0278,158.9151
207.0229,158.8301
207.0149,158.7471
207.0036,158.6661
206.9891,158.5871
206.9713,158.5100
206.9504,158.4349
206.9262,158.3618
206.8988,158.2907
206.8682,158.2216
206.8343,158.1544
206.7972,158.0893
206.7569,158.0261
206.7134,157.9649
206.6666,157.9057
206.6167,157.8485
206.5639,157.7941
206.5090,157.7432
206.4518,157.6957
206.3924,157.6518
206.3308,157.6114
206.2669,157.5745
206.2008,157.5412
206.1324,157.5113
206.0619,157.4849
205.9890,157.4621
205.9140,157.4428
205.8367,157.4270
205.7572,157.4147
205.6755,157.4059
205.5916,157.4006
205.5054,157.3988
Z" /> 
</g>
<g style="fill:none; 
stroke:#000000; stroke-width:0.4000; stroke-opacity:1; 
stroke-linecap:round; stroke-linejoin:round;">
<circle cx="193.5022" cy="159.0000" r="2.5000" /> 
<path style="fill:#000000; fill-opacity:1.0000; stroke:none;fill-rule:evenodd;"
d="M 192.4880,157.9535
192.4361,157.9568
192.3853,157.9624
192.3356,157.9702
192.2872,157.9802
192.2399,157.9924
192.1937,158.0068
192.1487,158.0235
192.1049,158.0424
192.0622,158.0635
192.0207,158.0868
191.9803,158.1123
191.9411,158.1401
191.9031,158.1701
191.8662,158.2022
191.8305,158.2367
191.7964,158.2730
191.7646,158.3108
191.7349,158.3503
191.7075,158.3913
191.6822,158.4338
191.6591,158.4779
191.6383,158.5236
191.6196,158.5708
191.6031,158.6196
191.5888,158.6699
191.5767,158.7218
191.5669,158.7752
191.5592,158.8303
191.5537,158.8868
191.5504,158.9450
191.5493,159.0047
191.5504,159.0658
191.5536,159.1252
191.5591,159.1830
191.5667,159.2390
191.5764,159.2933
191.5884,159.3459
191.6025,159.3969
191.6188,159.4461
191.6373,159.4936
191.6579,159.5394
191.6807,159.5836
191.7057,159.6260
191.7329,159.6667
191.7622,159.7057
191.7937,159.7430
191.8274,159.7786
191.8629,159.8124
191.8997,159.8439
191.9379,159.8733
191.9775,159.9004
192.0184,159.9254
192.0607,159.9483
192.1044,159.9689
192.1495,159.9874
192.1959,160.0037
192.2437,160.0178
192.2929,160.0297
192.3434,160.0395
192.3953,160.0471
192.4486,160.0525
192.5032,160.0558
192.5592,160.0569
192.5946,160.0563
192.6296,160.0547
192.6642,160.0519
192.6984,160.0480
192.7322,160.0430
192.7657,160.0369
192.7988,160.0297
192.8315,160.0214
192.8638,160.0119
192.8957,160.0014
192.9273,159.9897
192.9584,159.9770
192.9892,159.9631
193.0196,159.9481
193.0497,159.9320
193.0793,159.9147
193.1084,159.8966
193.1367,159.8776
193.1642,159.8578
193.1908,159.8371
193.2167,159.8156
193.2418,159.7933
193.2660,159.7702
193.2895,159.7462
193.3122,159.7214
193.3340,159.6958
193.3551,159.6693
193.3753,159.6421
193.3947,159.6140
193.4134,159.5850
193.4312,159.5552
193.4482,159.5246
193.0311,159.3130
193.0152,159.3481
192.9980,159.3810
192.9795,159.4116
192.9596,159.4400
192.9383,159.4660
192.9156,159.4899
192.8916,159.5114
192.8662,159.5307
192.8394,159.5477
192.8113,159.5624
192.7817,159.5749
192.7509,159.5851
192.7186,159.5931
192.6850,159.5987
192.6500,159.6021
192.6136,159.6033
192.5861,159.6026
192.5594,159.6007
192.5335,159.5975
192.5085,159.5931
192.4844,159.5873
192.4611,159.5803
192.4386,159.5720
192.4170,159.5624
192.4066,159.5572
192.3963,159.5516
192.3862,159.5457
192.3764,159.5394
192.3668,159.5329
192.3573,159.5260
192.3481,159.5189
192.3391,159.5114
192.3218,159.4954
192.3053,159.4782
192.2897,159.4597
192.2749,159.4399
192.2610,159.4190
192.2480,159.3973
192.2359,159.3748
192.2247,159.3514
192.2143,159.3272
192.2049,159.3021
192.1964,159.2762
192.1888,159.2494
192.1820,159.2218
192.1762,159.1933
192.1713,159.1640
192.1672,159.1338
192.1641,159.1028
192.1618,159.0709
192.1605,159.0382
192.1600,159.0046
192.1605,158.9677
192.1618,158.9321
192.1640,158.8976
192.1671,158.8642
192.1711,158.8321
192.1760,158.8011
192.1818,158.7713
192.1884,158.7426
192.1959,158.7151
192.2044,158.6888
192.2137,158.6637
192.2239,158.6397
192.2349,158.6169
192.2469,158.5953
192.2598,158.5748
192.2735,158.5555
192.2881,158.5374
192.3036,158.5205
192.3200,158.5047
192.3373,158.4901
192.3555,158.4766
192.3745,158.4643
192.3944,158.4532
192.4153,158.4433
192.4370,158.4345
192.4595,158.4269
192.4830,158.4205
192.5074,158.4152
192.5326,158.4111
192.5587,158.4082
192.5858,158.4065
192.6136,158.4059
192.6251,158.4061
192.6366,158.4068
192.6482,158.4080
192.6600,158.4097
192.6719,158.4118
192.6839,158.4144
192.6960,158.4175
192.7082,158.4210
192.7205,158.4250
192.7330,158.4295
192.7456,158.4345
192.7583,158.4399
192.7711,158.4458
192.7841,158.4522
192.7971,158.4590
192.8103,158.4663
192.8234,158.4742
192.8362,158.4829
192.8488,158.4922
192.8611,158.5022
192.8731,158.5130
192.8849,158.5245
192.8964,158.5366
192.9077,158.5495
192.9187,158.5631
192.9295,158.5774
192.9400,158.5924
192.9502,158.6081
192.9602,158.6245
192.9699,158.6416
192.9794,158.6595
192.9886,158.6780
193.4423,158.4421
193.4069,158.3828
193.3687,158.3273
193.3277,158.2756
193.2839,158.2277
193.2374,158.1837
193.1880,158.1436
193.1359,158.1072
193.0810,158.0747
193.0232,158.0460
192.9627,158.0211
192.8995,158.0001
192.8334,157.9829
192.7645,157.9695
192.6928,157.9600
192.6184,157.9543
192.5412,157.9524
Z" /> 
<path style="fill:#000000; fill-opacity:1.0000; stroke:none;fill-rule:evenodd;"
d="M 194.4475,157.9535
194.3955,157.9568
194.3447,157.9624
194.2951,157.9702
194.2466,157.9802
194.1993,157.9924
194.1532,158.0068
194.1082,158.0235
194.0644,158.0424
194.0217,158.0635
193.9802,158.0868
193.9399,158.1123
193.9007,158.1401
193.8627,158.1701
193.8258,158.2022
193.7901,158.2367
193.7560,158.2730
193.7241,158.3108
193.6945,158.3503
193.6670,158.3913
193.6417,158.4338
193.6186,158.4779
193.5977,158.5236
193.5791,158.5708
193.5626,158.6196
193.5483,158.6699
193.5362,158.7218
193.5264,158.7752
193.5187,158.8303
193.5132,158.8868
193.5099,158.9450
193.5088,159.0047
193.5099,159.0658
193.5131,159.1252
193.5185,159.1830
193.5260,159.2390
193.5356,159.2933
193.5475,159.3459
193.5614,159.3969
193.5776,159.4461
193.5959,159.4936
193.6163,159.5394
193.6389,159.5836
193.6636,159.6260
193.6905,159.6667
193.7196,159.7057
193.7508,159.7430
193.7842,159.7786
193.8193,159.8124
193.8558,159.8439
193.8938,159.8733
193.9332,159.9004
193.9740,159.9254
194.0163,159.9483
194.0601,159.9689
194.1053,159.9874
194.1519,160.0037
194.2000,160.0178
194.2495,160.0297
194.3004,160.0395
194.3529,160.0471
194.4067,160.0525
194.4620,160.0558
194.5188,160.0569
194.5534,160.0563
194.5876,160.0547
194.6216,160.0519
194.6552,160.0480
194.6885,160.0430
194.7214,160.0369
194.7540,160.0297
194.7863,160.0214
194.8183,160.0119
194.8499,160.0014
194.8812,159.9897
194.9122,159.9770
194.9428,159.9631
194.9732,159.9481
195.0031,159.9320
195.0328,159.9147
195.0619,159.8966
195.0902,159.8776
195.1178,159.8578
195.1446,159.8371
195.1706,159.8156
195.1960,159.7933
195.2205,159.7702
195.2443,159.7462
195.2674,159.7214
195.2897,159.6958
195.3112,159.6693
195.3320,159.6421
195.3520,159.6140
195.3713,159.5850
195.3898,159.5552
195.4075,159.5246
194.9842,159.3130
194.9684,159.3481
194.9513,159.3810
194.9327,159.4116
194.9128,159.4400
194.8915,159.4660
194.8689,159.4899
194.8449,159.5114
194.8195,159.5307
194.7927,159.5477
194.7646,159.5624
194.7351,159.5749
194.7042,159.5851
194.6720,159.5931
194.6384,159.5987
194.6034,159.6021
194.5671,159.6033
194.5395,159.6026
194.5128,159.6007
194.4869,159.5975
194.4619,159.5931
194.4377,159.5873
194.4144,159.5803
194.3920,159.5720
194.3704,159.5624
194.3599,159.5572
194.3496,159.5516
194.3396,159.5457
194.3298,159.5394
194.3201,159.5329
194.3107,159.5260
194.3015,159.5189
194.2925,159.5114
194.2838,159.5035
194.2752,159.4954
194.2587,159.4782
194.2431,159.4597
194.2283,159.4399
194.2144,159.4190
194.2014,159.3973
194.1893,159.3748
194.1781,159.3514
194.1678,159.3272
194.1584,159.3021
194.1498,159.2762
194.1422,159.2494
194.1354,159.2218
194.1296,159.1933
194.1247,159.1640
194.1206,159.1338
194.1175,159.1028
194.1152,159.0709
194.1139,159.0382
194.1134,159.0046
194.1139,158.9677
194.1152,158.9321
194.1174,158.8976
194.1205,158.8642
194.1245,158.8321
194.1294,158.8011
194.1351,158.7713
194.1418,158.7426
194.1493,158.7151
194.1577,158.6888
194.1670,158.6637
194.1772,158.6397
194.1883,158.6169
194.2003,158.5953
194.2131,158.5748
194.2269,158.5555
194.2415,158.5374
194.2570,158.5205
194.2734,158.5047
194.2907,158.4901
194.3089,158.4766
194.3279,158.4643
194.3478,158.4532
194.3687,158.4433
194.3904,158.4345
194.4130,158.4269
194.4364,158.4205
194.4608,158.4152
194.4861,158.4111
194.5122,158.4082
194.5392,158.4065
194.5671,158.4059
194.5792,158.4061
194.5914,158.4068
194.6036,158.4080
194.6159,158.4097
194.6283,158.4118
194.6408,158.4144
194.6534,158.4175
194.6660,158.4210
194.6787,158.4250
194.6915,158.4295
194.7043,158.4345
194.7172,158.4399
194.7302,158.4458
194.7433,158.4522
194.7565,158.4590
194.7697,158.4663
194.7828,158.4742
194.7956,158.4829
194.8082,158.4922
194.8205,158.5022
194.8326,158.5130
194.8444,158.5245
194.8559,158.5366
194.8672,158.5495
194.8782,158.5631
194.8890,158.5774
194.8995,158.5924
194.9097,158.6081
194.9197,158.6245
194.9295,158.6416
194.9389,158.6595
194.9481,158.6780
195.3957,158.4421
195.3957,158.4421
195.3610,158.3828
195.3235,158.3273
195.2832,158.2756
195.2400,158.2277
195.1940,158.1837
195.1451,158.1436
195.0934,158.1072
195.0389,158.0747
194.9815,158.0460
194.9213,158.0211
194.8583,158.0001
194.7924,157.9829
194.7237,157.9695
194.6521,157.9600
194.5778,157.9543
194.5006,157.9524
Z" /> 
</g> 
</svg>
