<?xml version='1.0' encoding='ASCII' standalone='yes'?>
<svg xmlns="http://www.w3.org/2000/svg" version="1.1" width="297.0022mm" height="210.0072mm" viewBox="0.0000 0.0000 297.0022 210.0072">
            <title>Picture generated by PcbDraw </title>
            <desc>Picture generated by PcbDraw</desc>
        <defs><clipPath id="cut-off"><path d=" M 157.869 128.008 A 1.143 1.143 0 0 0 159.012 129.151 L 160.0 129.151 L 160.0 165.0 L 60.0 165.0 L 60.0 130.0 L 75.0 115.0 L 154.5 115.0 A 5.5 5.5 0 0 1 160.0 120.5 L 160.0 122.039 L 159.012 122.039 A 1.143 1.143 0 0 0 157.869 123.182 L 157.869 128.008 " style="fill-rule: evenodd;"/></clipPath><mask id="pads-mask-silkscreen"><rect x="40.525716" y="106.69212" width="124.024284" height="70.474302" fill="white"/><g style="fill:#000000; fill-opacity:1.0000; stroke:none;">
<circle cx="156.0690" cy="130.5950" r="0.6000"/> 
</g>
<g style="fill:#000000; fill-opacity:1.0000; stroke:none;">
<circle cx="156.0690" cy="120.5950" r="0.6000"/> 
</g>
<g style="fill:#000000; fill-opacity:1.0000; stroke:none;">
<circle cx="153.5690" cy="130.5950" r="0.6000"/> 
</g>
<g style="fill:#000000; fill-opacity:1.0000; stroke:none;">
<circle cx="153.5690" cy="120.5950" r="0.6000"/> 
</g>
<g style="fill:#000000; fill-opacity:1.0000; stroke:none;">
<circle cx="148.5690" cy="125.5950" r="0.6000"/> 
<path style="fill:#000000; fill-opacity:1.0000; stroke:none;fill-rule:evenodd;" d="M 149.8190,129.6950 149.8190,131.4950 147.3190,131.4950 147.3190,129.6950 Z"/> 
<path style="fill:#000000; fill-opacity:1.0000; stroke:none;fill-rule:evenodd;" d="M 149.8190,127.1950 149.8190,128.9950 147.3190,128.9950 147.3190,127.1950 Z"/> 
<path style="fill:#000000; fill-opacity:1.0000; stroke:none;fill-rule:evenodd;" d="M 154.4690,124.3450 154.4690,126.8450 152.6690,126.8450 152.6690,124.3450 Z"/> 
<path style="fill:#000000; fill-opacity:1.0000; stroke:none;fill-rule:evenodd;" d="M 149.8190,119.6950 149.8190,121.4950 147.3190,121.4950 147.3190,119.6950 Z"/> 
<path style="fill:#000000; fill-opacity:1.0000; stroke:none;fill-rule:evenodd;" d="M 149.8190,122.1950 149.8190,123.9950 147.3190,123.9950 147.3190,122.1950 Z"/> 
<path style="fill:#000000; fill-opacity:1.0000; stroke:none;fill-rule:evenodd;" d="M 65.8500,153.3100 65.8500,155.0100 64.1500,155.0100 64.1500,153.3100 Z"/> 
</g>
<g style="fill:#000000; fill-opacity:1.0000; stroke:none;">
<circle cx="62.4600" cy="154.1600" r="0.8500"/> 
</g>
<g style="fill:#000000; fill-opacity:1.0000; stroke:none;">
<circle cx="65.0000" cy="151.6200" r="0.8500"/> 
</g>
<g style="fill:#000000; fill-opacity:1.0000; stroke:none;">
<circle cx="62.4600" cy="151.6200" r="0.8500"/> 
</g>
<g style="fill:#000000; fill-opacity:1.0000; stroke:none;">
<circle cx="65.0000" cy="149.0800" r="0.8500"/> 
</g>
<g style="fill:#000000; fill-opacity:1.0000; stroke:none;">
<circle cx="62.4600" cy="149.0800" r="0.8500"/> 
</g>
<g style="fill:#000000; fill-opacity:1.0000; stroke:none;">
<circle cx="65.0000" cy="146.5400" r="0.8500"/> 
</g>
<g style="fill:#000000; fill-opacity:1.0000; stroke:none;">
<circle cx="62.4600" cy="146.5400" r="0.8500"/> 
</g>
<g style="fill:#000000; fill-opacity:1.0000; stroke:none;">
<circle cx="65.0000" cy="144.0000" r="0.8500"/> 
</g>
<g style="fill:#000000; fill-opacity:1.0000; stroke:none;">
<circle cx="62.4600" cy="144.0000" r="0.8500"/> 
</g>
<g style="fill:#000000; fill-opacity:1.0000; stroke:none;">
<circle cx="65.0000" cy="141.4600" r="0.8500"/> 
</g>
<g style="fill:#000000; fill-opacity:1.0000; stroke:none;">
<circle cx="62.4600" cy="141.4600" r="0.8500"/> 
</g>
<g style="fill:#000000; fill-opacity:1.0000; stroke:none;">
<circle cx="65.0320" cy="131.8820" r="1.6000"/> 
<path style="fill:#000000; fill-opacity:1.0000; stroke:none;fill-rule:evenodd;" d="M 62.3500,164.3500 60.6500,164.3500 60.6500,162.6500 62.3500,162.6500 Z"/> 
</g>
<g style="fill:#000000; fill-opacity:1.0000; stroke:none;">
<circle cx="64.0400" cy="163.5000" r="0.8500"/> 
<circle cx="66.5800" cy="163.5000" r="0.8500"/> 
<circle cx="69.1200" cy="163.5000" r="0.8500"/> 
<circle cx="71.6600" cy="163.5000" r="0.8500"/> 
<circle cx="74.2000" cy="163.5000" r="0.8500"/> 
<circle cx="76.7400" cy="163.5000" r="0.8500"/> 
<circle cx="79.2800" cy="163.5000" r="0.8500"/> 
<circle cx="81.8200" cy="163.5000" r="0.8500"/> 
<circle cx="84.3600" cy="163.5000" r="0.8500"/> 
<circle cx="86.9000" cy="163.5000" r="0.8500"/> 
<circle cx="89.4400" cy="163.5000" r="0.8500"/> 
<circle cx="91.9800" cy="163.5000" r="0.8500"/> 
<circle cx="94.5200" cy="163.5000" r="0.8500"/> 
<circle cx="97.0600" cy="163.5000" r="0.8500"/> 
<circle cx="99.6000" cy="163.5000" r="0.8500"/> 
<circle cx="102.1400" cy="163.5000" r="0.8500"/> 
<circle cx="104.6800" cy="163.5000" r="0.8500"/> 
<circle cx="107.2200" cy="163.5000" r="0.8500"/> 
<circle cx="109.7600" cy="163.5000" r="0.8500"/> 
<circle cx="112.3000" cy="163.5000" r="0.8500"/> 
<circle cx="114.8400" cy="163.5000" r="0.8500"/> 
<circle cx="117.3800" cy="163.5000" r="0.8500"/> 
<circle cx="119.9200" cy="163.5000" r="0.8500"/> 
<circle cx="122.4600" cy="163.5000" r="0.8500"/> 
<circle cx="125.0000" cy="163.5000" r="0.8500"/> 
<circle cx="127.5400" cy="163.5000" r="0.8500"/> 
<circle cx="130.0800" cy="163.5000" r="0.8500"/> 
<circle cx="132.6200" cy="163.5000" r="0.8500"/> 
<circle cx="135.1600" cy="163.5000" r="0.8500"/> 
<circle cx="137.7000" cy="163.5000" r="0.8500"/> 
<circle cx="140.2400" cy="163.5000" r="0.8500"/> 
<circle cx="142.7800" cy="163.5000" r="0.8500"/> 
<circle cx="145.3200" cy="163.5000" r="0.8500"/> 
<circle cx="147.8600" cy="163.5000" r="0.8500"/> 
<circle cx="150.4000" cy="163.5000" r="0.8500"/> 
<circle cx="152.9400" cy="163.5000" r="0.8500"/> 
<circle cx="155.4800" cy="163.5000" r="0.8500"/> 
<circle cx="158.0200" cy="163.5000" r="0.8500"/> 
</g> 
</mask></defs><g transform="scale(-1,1) translate(-297.0022,0)" id="boardContainer"><g id="substrate" clip-path="url(#cut-off)" mask="url(#pads-mask-silkscreen)"><g id="substrate-board" style="fill:#143324; fill-opacity:0.25098039215686274; stroke:#143324; stroke-width:0;"><path d=" M 157.869 128.008 A 1.143 1.143 0 0 0 159.012 129.151 L 160.0 129.151 L 160.0 165.0 L 60.0 165.0 L 60.0 130.0 L 75.0 115.0 L 154.5 115.0 A 5.5 5.5 0 0 1 160.0 120.5 L 160.0 122.039 L 159.012 122.039 A 1.143 1.143 0 0 0 157.869 123.182 L 157.869 128.008 " style="fill-rule: evenodd;"/><g style="fill: none;stroke: #4ca06c;stroke-width: 0.1500;stroke-opacity: 1;stroke-linecap: round;stroke-linejoin: round">
<path d="M157.8690 123.1820 L157.8690 128.0080 "/>
<path d="M160.0000 122.0390 L160.0000 120.5000 "/>
<path d="M154.5000 115.0000 L75.0000 115.0000 "/>
<path d="M160.0000 120.5000 A5.5000 5.5000 0.0 0 0 154.5000 115.0000"/>
<path d="M160.0000 122.0390 L159.0120 122.0390 "/>
<path d="M160.0000 129.1510 L159.0120 129.1510 "/>
<path d="M60.0000 130.0000 L75.0000 115.0000 "/>
<path d="M60.0000 130.0000 L60.0000 165.0000 "/>
<path d="M157.8690 128.0080 A1.1430 1.1430 0.0 0 0 159.0120 129.1510"/>
<path d="M160.0000 165.0000 L160.0000 129.1510 "/>
<path d="M60.0000 165.0000 L160.0000 165.0000 "/>
<path d="M159.0120 122.0390 A1.1430 1.1430 0.0 0 0 157.8690 123.1820"/>
</g> 
</g></g></g></svg>
