<?xml version="1.0" standalone="no"?>
 <!DOCTYPE svg PUBLIC "-//W3C//DTD SVG 1.1//EN" 
 "http://www.w3.org/Graphics/SVG/1.1/DTD/svg11.dtd"> 
<svg
  xmlns:svg="http://www.w3.org/2000/svg"
  xmlns="http://www.w3.org/2000/svg"
  xmlns:xlink="http://www.w3.org/1999/xlink"
  version="1.1"
  width="10.215000000000002cm" height="5.215cm" viewBox="59.425 113.425 102.15 52.15">
<title>SVG Image created as rcbus-ymf262-B_Cu.svg date 2025/08/31 08:58:31 </title>
  <desc>Image generated by PCBNEW </desc>
<g style="fill:#000000; fill-opacity:1.000000;stroke:#000000; stroke-opacity:1.000000;
stroke-linecap:round; stroke-linejoin:round;"
 transform="translate(0 0) scale(1 1)">
<path style="fill:#000000; fill-opacity:1.000000; stroke:none;fill-rule:evenodd;"
d="M 150.319000,129.195000
150.319000,130.995000
147.819000,130.995000
147.819000,129.195000
Z" /> 
<path style="fill:#000000; fill-opacity:1.000000; stroke:none;fill-rule:evenodd;"
d="M 150.319000,126.695000
150.319000,128.495000
147.819000,128.495000
147.819000,126.695000
Z" /> 
<path style="fill:#000000; fill-opacity:1.000000; stroke:none;fill-rule:evenodd;"
d="M 154.969000,123.845000
154.969000,126.345000
153.169000,126.345000
153.169000,123.845000
Z" /> 
<path style="fill:#000000; fill-opacity:1.000000; stroke:none;fill-rule:evenodd;"
d="M 150.319000,119.195000
150.319000,120.995000
147.819000,120.995000
147.819000,119.195000
Z" /> 
<path style="fill:#000000; fill-opacity:1.000000; stroke:none;fill-rule:evenodd;"
d="M 150.319000,121.695000
150.319000,123.495000
147.819000,123.495000
147.819000,121.695000
Z" /> 
<path style="fill:#000000; fill-opacity:1.000000; stroke:none;fill-rule:evenodd;"
d="M 65.850000,155.310000
65.850000,157.010000
64.150000,157.010000
64.150000,155.310000
Z" /> 
</g>
<g style="fill:#000000; fill-opacity:1.000000; stroke:none;">
<circle cx="62.460000" cy="156.160000" r="0.850000" /> 
</g>
<g style="fill:#000000; fill-opacity:1.000000; stroke:none;">
<circle cx="65.000000" cy="153.620000" r="0.850000" /> 
</g>
<g style="fill:#000000; fill-opacity:1.000000; stroke:none;">
<circle cx="62.460000" cy="153.620000" r="0.850000" /> 
</g>
<g style="fill:#000000; fill-opacity:1.000000; stroke:none;">
<circle cx="65.000000" cy="151.080000" r="0.850000" /> 
</g>
<g style="fill:#000000; fill-opacity:1.000000; stroke:none;">
<circle cx="62.460000" cy="151.080000" r="0.850000" /> 
</g>
<g style="fill:#000000; fill-opacity:1.000000; stroke:none;">
<circle cx="65.000000" cy="148.540000" r="0.850000" /> 
</g>
<g style="fill:#000000; fill-opacity:1.000000; stroke:none;">
<circle cx="62.460000" cy="148.540000" r="0.850000" /> 
</g>
<g style="fill:#000000; fill-opacity:1.000000; stroke:none;">
<circle cx="65.000000" cy="146.000000" r="0.850000" /> 
</g>
<g style="fill:#000000; fill-opacity:1.000000; stroke:none;">
<circle cx="62.460000" cy="146.000000" r="0.850000" /> 
</g>
<g style="fill:#000000; fill-opacity:1.000000; stroke:none;">
<circle cx="65.000000" cy="143.460000" r="0.850000" /> 
</g>
<g style="fill:#000000; fill-opacity:1.000000; stroke:none;">
<circle cx="62.460000" cy="143.460000" r="0.850000" /> 
<path style="fill:#000000; fill-opacity:1.000000; stroke:none;fill-rule:evenodd;"
d="M 62.850000,163.850000
61.150000,163.850000
61.150000,162.150000
62.850000,162.150000
Z" /> 
</g>
<g style="fill:#000000; fill-opacity:1.000000; stroke:none;">
<circle cx="64.540000" cy="163.000000" r="0.850000" /> 
<circle cx="67.080000" cy="163.000000" r="0.850000" /> 
<circle cx="69.620000" cy="163.000000" r="0.850000" /> 
<circle cx="72.160000" cy="163.000000" r="0.850000" /> 
<circle cx="74.700000" cy="163.000000" r="0.850000" /> 
<circle cx="77.240000" cy="163.000000" r="0.850000" /> 
<circle cx="79.780000" cy="163.000000" r="0.850000" /> 
<circle cx="82.320000" cy="163.000000" r="0.850000" /> 
<circle cx="84.860000" cy="163.000000" r="0.850000" /> 
<circle cx="87.400000" cy="163.000000" r="0.850000" /> 
<circle cx="89.940000" cy="163.000000" r="0.850000" /> 
<circle cx="92.480000" cy="163.000000" r="0.850000" /> 
<circle cx="95.020000" cy="163.000000" r="0.850000" /> 
<circle cx="97.560000" cy="163.000000" r="0.850000" /> 
<circle cx="100.100000" cy="163.000000" r="0.850000" /> 
<circle cx="102.640000" cy="163.000000" r="0.850000" /> 
<circle cx="105.180000" cy="163.000000" r="0.850000" /> 
<circle cx="107.720000" cy="163.000000" r="0.850000" /> 
<circle cx="110.260000" cy="163.000000" r="0.850000" /> 
<circle cx="112.800000" cy="163.000000" r="0.850000" /> 
<circle cx="115.340000" cy="163.000000" r="0.850000" /> 
<circle cx="117.880000" cy="163.000000" r="0.850000" /> 
<circle cx="120.420000" cy="163.000000" r="0.850000" /> 
<circle cx="122.960000" cy="163.000000" r="0.850000" /> 
<circle cx="125.500000" cy="163.000000" r="0.850000" /> 
<circle cx="128.040000" cy="163.000000" r="0.850000" /> 
<circle cx="130.580000" cy="163.000000" r="0.850000" /> 
<circle cx="133.120000" cy="163.000000" r="0.850000" /> 
<circle cx="135.660000" cy="163.000000" r="0.850000" /> 
<circle cx="138.200000" cy="163.000000" r="0.850000" /> 
<circle cx="140.740000" cy="163.000000" r="0.850000" /> 
<circle cx="143.280000" cy="163.000000" r="0.850000" /> 
<circle cx="145.820000" cy="163.000000" r="0.850000" /> 
<circle cx="148.360000" cy="163.000000" r="0.850000" /> 
<circle cx="150.900000" cy="163.000000" r="0.850000" /> 
<circle cx="153.440000" cy="163.000000" r="0.850000" /> 
<circle cx="155.980000" cy="163.000000" r="0.850000" /> 
<circle cx="158.520000" cy="163.000000" r="0.850000" /> 
<circle cx="92.212600" cy="154.250000" r="0.342900" /> 
</g>
<g style="fill:#000000; fill-opacity:1.000000; stroke:none;">
<circle cx="100.500000" cy="154.250000" r="0.342900" /> 
</g>
<g style="fill:#000000; fill-opacity:1.000000; stroke:none;">
<circle cx="76.700000" cy="153.500000" r="0.342900" /> 
</g>
<g style="fill:#000000; fill-opacity:1.000000; stroke:none;">
<circle cx="76.143018" cy="144.056982" r="0.342900" /> 
</g>
<g style="fill:#000000; fill-opacity:1.000000; stroke:none;">
<circle cx="61.000000" cy="135.000000" r="0.342900" /> 
</g>
<g style="fill:#000000; fill-opacity:1.000000; stroke:none;">
<circle cx="81.000000" cy="130.000000" r="0.342900" /> 
</g>
<g style="fill:#000000; fill-opacity:1.000000; stroke:none;">
<circle cx="71.000000" cy="135.000000" r="0.342900" /> 
</g>
<g style="fill:#000000; fill-opacity:1.000000; stroke:none;">
<circle cx="86.000000" cy="115.000000" r="0.342900" /> 
</g>
<g style="fill:#000000; fill-opacity:1.000000; stroke:none;">
<circle cx="86.000000" cy="140.000000" r="0.342900" /> 
</g>
<g style="fill:#000000; fill-opacity:1.000000; stroke:none;">
<circle cx="91.000000" cy="140.000000" r="0.342900" /> 
</g>
<g style="fill:#000000; fill-opacity:1.000000; stroke:none;">
<circle cx="96.000000" cy="135.000000" r="0.342900" /> 
</g>
<g style="fill:#000000; fill-opacity:1.000000; stroke:none;">
<circle cx="91.000000" cy="125.000000" r="0.342900" /> 
</g>
<g style="fill:#000000; fill-opacity:1.000000; stroke:none;">
<circle cx="101.000000" cy="135.000000" r="0.342900" /> 
</g>
<g style="fill:#000000; fill-opacity:1.000000; stroke:none;">
<circle cx="81.000000" cy="125.000000" r="0.342900" /> 
</g>
<g style="fill:#000000; fill-opacity:1.000000; stroke:none;">
<circle cx="86.000000" cy="130.000000" r="0.342900" /> 
</g>
<g style="fill:#000000; fill-opacity:1.000000; stroke:none;">
<circle cx="61.000000" cy="140.000000" r="0.342900" /> 
</g>
<g style="fill:#000000; fill-opacity:1.000000; stroke:none;">
<circle cx="76.000000" cy="115.000000" r="0.342900" /> 
</g>
<g style="fill:#000000; fill-opacity:1.000000; stroke:none;">
<circle cx="76.000000" cy="130.000000" r="0.342900" /> 
</g>
<g style="fill:#000000; fill-opacity:1.000000; stroke:none;">
<circle cx="106.000000" cy="140.000000" r="0.342900" /> 
</g>
<g style="fill:#000000; fill-opacity:1.000000; stroke:none;">
<circle cx="81.000000" cy="115.000000" r="0.342900" /> 
</g>
<g style="fill:#000000; fill-opacity:1.000000; stroke:none;">
<circle cx="61.000000" cy="155.000000" r="0.342900" /> 
</g>
<g style="fill:#000000; fill-opacity:1.000000; stroke:none;">
<circle cx="71.000000" cy="140.000000" r="0.342900" /> 
</g>
<g style="fill:#000000; fill-opacity:1.000000; stroke:none;">
<circle cx="81.000000" cy="140.000000" r="0.342900" /> 
</g>
<g style="fill:#000000; fill-opacity:1.000000; stroke:none;">
<circle cx="128.485000" cy="158.500000" r="0.342900" /> 
</g>
<g style="fill:#000000; fill-opacity:1.000000; stroke:none;">
<circle cx="76.700000" cy="156.000000" r="0.342900" /> 
</g>
<g style="fill:#000000; fill-opacity:1.000000; stroke:none;">
<circle cx="86.000000" cy="125.000000" r="0.342900" /> 
</g>
<g style="fill:#000000; fill-opacity:1.000000; stroke:none;">
<circle cx="91.000000" cy="135.000000" r="0.342900" /> 
</g>
<g style="fill:#000000; fill-opacity:1.000000; stroke:none;">
<circle cx="66.000000" cy="125.000000" r="0.342900" /> 
</g>
<g style="fill:#000000; fill-opacity:1.000000; stroke:none;">
<circle cx="101.000000" cy="120.000000" r="0.342900" /> 
</g>
<g style="fill:#000000; fill-opacity:1.000000; stroke:none;">
<circle cx="126.000000" cy="131.000000" r="0.342900" /> 
</g>
<g style="fill:#000000; fill-opacity:1.000000; stroke:none;">
<circle cx="76.700000" cy="148.500000" r="0.342900" /> 
</g>
<g style="fill:#000000; fill-opacity:1.000000; stroke:none;">
<circle cx="101.000000" cy="140.000000" r="0.342900" /> 
</g>
<g style="fill:#000000; fill-opacity:1.000000; stroke:none;">
<circle cx="115.800000" cy="141.400000" r="0.342900" /> 
</g>
<g style="fill:#000000; fill-opacity:1.000000; stroke:none;">
<circle cx="61.000000" cy="130.000000" r="0.342900" /> 
</g>
<g style="fill:#000000; fill-opacity:1.000000; stroke:none;">
<circle cx="119.000000" cy="120.750000" r="0.342900" /> 
</g>
<g style="fill:#000000; fill-opacity:1.000000; stroke:none;">
<circle cx="101.000000" cy="130.000000" r="0.342900" /> 
</g>
<g style="fill:#000000; fill-opacity:1.000000; stroke:none;">
<circle cx="76.000000" cy="120.000000" r="0.342900" /> 
</g>
<g style="fill:#000000; fill-opacity:1.000000; stroke:none;">
<circle cx="83.731069" cy="145.881900" r="0.342900" /> 
</g>
<g style="fill:#000000; fill-opacity:1.000000; stroke:none;">
<circle cx="91.000000" cy="120.000000" r="0.342900" /> 
</g>
<g style="fill:#000000; fill-opacity:1.000000; stroke:none;">
<circle cx="76.000000" cy="140.000000" r="0.342900" /> 
</g>
<g style="fill:#000000; fill-opacity:1.000000; stroke:none;">
<circle cx="106.000000" cy="115.000000" r="0.342900" /> 
</g>
<g style="fill:#000000; fill-opacity:1.000000; stroke:none;">
<circle cx="119.250000" cy="133.750000" r="0.342900" /> 
</g>
<g style="fill:#000000; fill-opacity:1.000000; stroke:none;">
<circle cx="61.000000" cy="150.000000" r="0.342900" /> 
</g>
<g style="fill:#000000; fill-opacity:1.000000; stroke:none;">
<circle cx="96.000000" cy="120.000000" r="0.342900" /> 
</g>
<g style="fill:#000000; fill-opacity:1.000000; stroke:none;">
<circle cx="96.000000" cy="130.000000" r="0.342900" /> 
</g>
<g style="fill:#000000; fill-opacity:1.000000; stroke:none;">
<circle cx="115.000000" cy="132.250000" r="0.342900" /> 
</g>
<g style="fill:#000000; fill-opacity:1.000000; stroke:none;">
<circle cx="66.000000" cy="140.000000" r="0.342900" /> 
</g>
<g style="fill:#000000; fill-opacity:1.000000; stroke:none;">
<circle cx="96.000000" cy="115.000000" r="0.342900" /> 
</g>
<g style="fill:#000000; fill-opacity:1.000000; stroke:none;">
<circle cx="61.000000" cy="160.000000" r="0.342900" /> 
</g>
<g style="fill:#000000; fill-opacity:1.000000; stroke:none;">
<circle cx="101.000000" cy="115.000000" r="0.342900" /> 
</g>
<g style="fill:#000000; fill-opacity:1.000000; stroke:none;">
<circle cx="106.000000" cy="135.000000" r="0.342900" /> 
</g>
<g style="fill:#000000; fill-opacity:1.000000; stroke:none;">
<circle cx="86.000000" cy="120.000000" r="0.342900" /> 
</g>
<g style="fill:#000000; fill-opacity:1.000000; stroke:none;">
<circle cx="61.000000" cy="145.000000" r="0.342900" /> 
</g>
<g style="fill:#000000; fill-opacity:1.000000; stroke:none;">
<circle cx="143.702100" cy="115.987500" r="0.342900" /> 
</g>
<g style="fill:#000000; fill-opacity:1.000000; stroke:none;">
<circle cx="71.000000" cy="120.000000" r="0.342900" /> 
</g>
<g style="fill:#000000; fill-opacity:1.000000; stroke:none;">
<circle cx="92.955615" cy="158.503700" r="0.342900" /> 
</g>
<g style="fill:#000000; fill-opacity:1.000000; stroke:none;">
<circle cx="106.000000" cy="120.000000" r="0.342900" /> 
</g>
<g style="fill:#000000; fill-opacity:1.000000; stroke:none;">
<circle cx="106.000000" cy="130.000000" r="0.342900" /> 
</g>
<g style="fill:#000000; fill-opacity:1.000000; stroke:none;">
<circle cx="76.000000" cy="125.000000" r="0.342900" /> 
</g>
<g style="fill:#000000; fill-opacity:1.000000; stroke:none;">
<circle cx="91.000000" cy="115.000000" r="0.342900" /> 
</g>
<g style="fill:#000000; fill-opacity:1.000000; stroke:none;">
<circle cx="76.700000" cy="146.000000" r="0.342900" /> 
</g>
<g style="fill:#000000; fill-opacity:1.000000; stroke:none;">
<circle cx="81.000000" cy="120.000000" r="0.342900" /> 
</g>
<g style="fill:#000000; fill-opacity:1.000000; stroke:none;">
<circle cx="96.000000" cy="125.000000" r="0.342900" /> 
</g>
<g style="fill:#000000; fill-opacity:1.000000; stroke:none;">
<circle cx="76.700000" cy="151.000000" r="0.342900" /> 
</g>
<g style="fill:#000000; fill-opacity:1.000000; stroke:none;">
<circle cx="71.000000" cy="130.000000" r="0.342900" /> 
</g>
<g style="fill:#000000; fill-opacity:1.000000; stroke:none;">
<circle cx="91.000000" cy="130.000000" r="0.342900" /> 
</g>
<g style="fill:#000000; fill-opacity:1.000000; stroke:none;">
<circle cx="106.000000" cy="125.000000" r="0.342900" /> 
</g>
<g style="fill:#000000; fill-opacity:1.000000; stroke:none;">
<circle cx="143.800000" cy="120.100000" r="0.342900" /> 
</g>
<g style="fill:#000000; fill-opacity:1.000000; stroke:none;">
<circle cx="86.000000" cy="135.000000" r="0.342900" /> 
</g>
<g style="fill:#000000; fill-opacity:1.000000; stroke:none;">
<circle cx="81.000000" cy="135.000000" r="0.342900" /> 
</g>
<g style="fill:#000000; fill-opacity:1.000000; stroke:none;">
<circle cx="76.000000" cy="135.000000" r="0.342900" /> 
</g>
<g style="fill:#000000; fill-opacity:1.000000; stroke:none;">
<circle cx="71.000000" cy="125.000000" r="0.342900" /> 
</g>
<g style="fill:#000000; fill-opacity:1.000000; stroke:none;">
<circle cx="96.000000" cy="140.000000" r="0.342900" /> 
</g>
<g style="fill:#000000; fill-opacity:1.000000; stroke:none;">
<circle cx="101.000000" cy="125.000000" r="0.342900" /> 
</g>
<g style="fill:#000000; fill-opacity:1.000000; stroke:none;">
<circle cx="66.000000" cy="135.000000" r="0.342900" /> 
</g>
<g style="fill:#000000; fill-opacity:1.000000; stroke:none;">
<circle cx="123.800000" cy="158.500000" r="0.342900" /> 
</g>
<g style="fill:#000000; fill-opacity:1.000000; stroke:none;">
<circle cx="85.000000" cy="154.450000" r="0.342900" /> 
</g>
<g style="fill:#000000; fill-opacity:1.000000; stroke:none;">
<circle cx="119.537412" cy="145.143729" r="0.342900" /> 
</g>
<g style="fill:#000000; fill-opacity:1.000000; stroke:none;">
<circle cx="116.700000" cy="145.400000" r="0.342900" /> 
</g>
<g style="fill:#000000; fill-opacity:1.000000; stroke:none;">
<circle cx="138.817400" cy="145.468100" r="0.342900" /> 
</g>
<g style="fill:#000000; fill-opacity:1.000000; stroke:none;">
<circle cx="151.293900" cy="146.295300" r="0.342900" /> 
</g>
<g style="fill:#000000; fill-opacity:1.000000; stroke:none;">
<circle cx="144.160700" cy="145.870000" r="0.342900" /> 
</g>
<g style="fill:#000000; fill-opacity:1.000000; stroke:none;">
<circle cx="124.500000" cy="128.000000" r="0.342900" /> 
</g>
<g style="fill:#000000; fill-opacity:1.000000; stroke:none;">
<circle cx="120.500000" cy="124.500000" r="0.342900" /> 
</g>
<g style="fill:#000000; fill-opacity:1.000000; stroke:none;">
<circle cx="148.595900" cy="146.504300" r="0.342900" /> 
</g>
<g style="fill:#000000; fill-opacity:1.000000; stroke:none;">
<circle cx="88.500001" cy="150.474799" r="0.342900" /> 
</g>
<g style="fill:#000000; fill-opacity:1.000000; stroke:none;">
<circle cx="81.368224" cy="153.118224" r="0.342900" /> 
</g>
<g style="fill:#000000; fill-opacity:1.000000; stroke:none;">
<circle cx="85.895910" cy="151.240000" r="0.342900" /> 
</g>
<g style="fill:#000000; fill-opacity:1.000000; stroke:none;">
<circle cx="85.983804" cy="153.449800" r="0.342900" /> 
</g>
<g style="fill:#000000; fill-opacity:1.000000; stroke:none;">
<circle cx="72.956600" cy="144.814800" r="0.342900" /> 
</g>
<g style="fill:#000000; fill-opacity:1.000000; stroke:none;">
<circle cx="82.937400" cy="159.600000" r="0.342900" /> 
</g>
<g style="fill:#000000; fill-opacity:1.000000; stroke:none;">
<circle cx="78.805238" cy="153.471756" r="0.342900" /> 
</g>
<g style="fill:#000000; fill-opacity:1.000000; stroke:none;">
<circle cx="90.500000" cy="149.817600" r="0.342900" /> 
</g>
<g style="fill:#000000; fill-opacity:1.000000; stroke:none;">
<circle cx="80.874257" cy="151.454431" r="0.342900" /> 
</g>
<g style="fill:#000000; fill-opacity:1.000000; stroke:none;">
<circle cx="79.176756" cy="151.880846" r="0.342900" /> 
</g>
<g style="fill:none; 
stroke:#000000; stroke-width:0.381000; stroke-opacity:1; 
stroke-linecap:round; stroke-linejoin:round;">
<path d="M100.500000 154.250000
L100.500000 158.320000
" />
<path d="M92.212600 154.250000
L100.500000 154.250000
" />
<path d="M105.180000 163.000000
L100.590000 158.410000
" />
<path d="M100.500000 158.320000
L100.590000 158.410000
" />
<path d="M102.640000 163.000000
L98.143700 158.503700
" />
<path d="M98.143700 158.503700
L92.955615 158.503700
" />
<path d="M118.550000 153.250000
L97.613552 153.250000
" />
<path d="M97.576152 153.287400
L96.923848 153.287400
" />
<path d="M96.923848 153.287400
L96.886448 153.250000
" />
<path d="M87.297156 153.250000
L86.097156 154.450000
" />
<path d="M96.886448 153.250000
L87.297156 153.250000
" />
<path d="M97.613552 153.250000
L97.576152 153.287400
" />
<path d="M123.800000 158.500000
L118.550000 153.250000
" />
<path d="M86.097156 154.450000
L85.000000 154.450000
" />
<path d="M119.481141 145.200000
L119.537412 145.143729
" />
<path d="M118.227800 145.400000
L118.427800 145.200000
" />
<path d="M116.700000 145.400000
L118.227800 145.400000
" />
<path d="M118.427800 145.200000
L119.481141 145.200000
" />
<path d="M148.974700 145.589900
L148.217100 145.589900
" />
<path d="M151.293900 146.295300
L149.680100 146.295300
" />
<path d="M147.937000 145.870000
L144.160700 145.870000
" />
<path d="M144.160700 145.870000
L143.758800 145.468100
" />
<path d="M149.680100 146.295300
L148.974700 145.589900
" />
<path d="M143.758800 145.468100
L138.817400 145.468100
" />
<path d="M148.217100 145.589900
L147.937000 145.870000
" />
<path d="M124.500000 128.000000
L121.000000 124.500000
" />
<path d="M121.000000 124.500000
L120.500000 124.500000
" />
<path d="M148.595900 146.504300
L148.315800 146.784400
" />
<path d="M84.033848 150.452600
L81.368224 153.118224
" />
<path d="M88.500001 150.474799
L86.444061 150.474799
" />
<path d="M86.421862 150.452600
L84.033848 150.452600
" />
<path d="M86.444061 150.474799
L86.421862 150.452600
" />
<path d="M85.983804 151.327894
L85.983804 153.449800
" />
<path d="M85.895910 151.240000
L85.983804 151.327894
" />
<path d="M72.956600 154.570152
L77.986448 159.600000
" />
<path d="M77.986448 159.600000
L82.937400 159.600000
" />
<path d="M72.956600 144.814800
L72.956600 154.570152
" />
<path d="M90.500000 149.817600
L88.956354 149.817600
" />
<path d="M83.770822 149.817600
L81.257598 152.330824
" />
<path d="M81.257598 152.330824
L79.946170 152.330824
" />
<path d="M88.173849 149.687399
L88.043648 149.817600
" />
<path d="M88.826153 149.687399
L88.173849 149.687399
" />
<path d="M79.946170 152.330824
L78.805238 153.471756
" />
<path d="M88.956354 149.817600
L88.826153 149.687399
" />
<path d="M88.043648 149.817600
L83.770822 149.817600
" />
<path d="M79.176756 151.880846
L79.603171 151.454431
" />
<path d="M79.603171 151.454431
L80.874257 151.454431
" />
<path style="fill:#000000; fill-opacity:1.000000; stroke:none;fill-rule:evenodd;"
d="M 155.002611,114.575608
155.442760,114.593812
155.453109,114.594669
155.887674,114.648838
155.897938,114.650551
156.326544,114.740420
156.336612,114.742969
156.756351,114.867931
156.766183,114.871307
156.923625,114.932741
157.174138,115.030492
157.183675,115.034675
157.577094,115.227006
157.586252,115.231962
157.962439,115.456120
157.971158,115.461816
158.327560,115.716282
158.335767,115.722669
158.669954,116.005712
158.677602,116.012754
158.987245,116.322397
158.994288,116.330046
159.277327,116.664229
159.283717,116.672439
159.538183,117.028841
159.543879,117.037560
159.768037,117.413747
159.772993,117.422905
159.965324,117.816324
159.969507,117.825861
160.128689,118.233807
160.132071,118.243657
160.257026,118.663373
160.259582,118.673468
160.349447,119.102057
160.351161,119.112329
160.405328,119.546876
160.406188,119.557254
160.424392,119.997388
160.424500,120.002595
160.424500,121.337500
160.404498,121.405621
160.350842,121.452114
160.298500,121.463500
159.536531,121.463500
159.512000,121.463500
159.416102,121.463500
159.226667,121.493503
159.226664,121.493503
159.226663,121.493504
159.044259,121.552771
158.873363,121.639847
158.718197,121.752582
158.718194,121.752584
158.582584,121.888194
158.582582,121.888197
158.469847,122.043363
158.382771,122.214259
158.349423,122.316893
158.323503,122.396667
158.293500,122.586102
158.293500,122.666982
158.293500,127.483469
158.293500,127.508000
158.293500,127.603898
158.323503,127.793333
158.323504,127.793336
158.363663,127.916933
158.382772,127.975742
158.469845,128.146633
158.582580,128.301800
158.582582,128.301802
158.582584,128.301805
158.718194,128.437415
158.718197,128.437417
158.718200,128.437420
158.873367,128.550155
159.044258,128.637228
159.226667,128.696497
159.416102,128.726500
159.496982,128.726500
160.298500,128.726500
160.366621,128.746502
160.413114,128.800158
160.424500,128.852500
160.424500,164.298500
160.404498,164.366621
160.350842,164.413114
160.298500,164.424500
159.223820,164.424500
159.155699,164.404498
159.109206,164.350842
159.099102,164.280568
159.128596,164.215988
159.166615,164.186234
159.227816,164.155051
159.399792,164.030104
159.550104,163.879792
159.675051,163.707816
159.771557,163.518412
159.837246,163.316243
159.870500,163.106287
159.870500,162.893713
159.837246,162.683757
159.771557,162.481588
159.675051,162.292184
159.550104,162.120208
159.550101,162.120205
159.550099,162.120202
159.399797,161.969900
159.399794,161.969898
159.399792,161.969896
159.227816,161.844949
159.038412,161.748443
158.836243,161.682754
158.626287,161.649500
158.413713,161.649500
158.203757,161.682754
158.203754,161.682754
158.203753,161.682755
158.001588,161.748443
158.001586,161.748444
157.812180,161.844951
157.640205,161.969898
157.640202,161.969900
157.489900,162.120202
157.489898,162.120205
157.364949,162.292183
157.362265,162.297451
157.313516,162.349065
157.244600,162.366129
157.177399,162.343226
157.137735,162.297451
157.135197,162.292471
157.135051,162.292184
157.010104,162.120208
157.010101,162.120205
157.010099,162.120202
156.859797,161.969900
156.859794,161.969898
156.859792,161.969896
156.687816,161.844949
156.498412,161.748443
156.296243,161.682754
156.086287,161.649500
155.873713,161.649500
155.663757,161.682754
155.663754,161.682754
155.663753,161.682755
155.461588,161.748443
155.461586,161.748444
155.272180,161.844951
155.100205,161.969898
155.100202,161.969900
154.949900,162.120202
154.949898,162.120205
154.824949,162.292183
154.822265,162.297451
154.773516,162.349065
154.704600,162.366129
154.637399,162.343226
154.597735,162.297451
154.595197,162.292471
154.595051,162.292184
154.470104,162.120208
154.470101,162.120205
154.470099,162.120202
154.319797,161.969900
154.319794,161.969898
154.319792,161.969896
154.147816,161.844949
153.958412,161.748443
153.756243,161.682754
153.546287,161.649500
153.333713,161.649500
153.123757,161.682754
153.123754,161.682754
153.123753,161.682755
152.921588,161.748443
152.921586,161.748444
152.732180,161.844951
152.560205,161.969898
152.560202,161.969900
152.409900,162.120202
152.409898,162.120205
152.284949,162.292183
152.282265,162.297451
152.233516,162.349065
152.164600,162.366129
152.097399,162.343226
152.057735,162.297451
152.055197,162.292471
152.055051,162.292184
151.930104,162.120208
151.930101,162.120205
151.930099,162.120202
151.779797,161.969900
151.779794,161.969898
151.779792,161.969896
151.607816,161.844949
151.418412,161.748443
151.216243,161.682754
151.006287,161.649500
150.793713,161.649500
150.583757,161.682754
150.583754,161.682754
150.583753,161.682755
150.381588,161.748443
150.381586,161.748444
150.192180,161.844951
150.020205,161.969898
150.020202,161.969900
149.869900,162.120202
149.869898,162.120205
149.744949,162.292183
149.742265,162.297451
149.693516,162.349065
149.624600,162.366129
149.557399,162.343226
149.517735,162.297451
149.515197,162.292471
149.515051,162.292184
149.390104,162.120208
149.390101,162.120205
149.390099,162.120202
149.239797,161.969900
149.239794,161.969898
149.239792,161.969896
149.067816,161.844949
148.878412,161.748443
148.676243,161.682754
148.466287,161.649500
148.253713,161.649500
148.043757,161.682754
148.043754,161.682754
148.043753,161.682755
147.841588,161.748443
147.841586,161.748444
147.652180,161.844951
147.480205,161.969898
147.480202,161.969900
147.329900,162.120202
147.329898,162.120205
147.204949,162.292183
147.202265,162.297451
147.153516,162.349065
147.084600,162.366129
147.017399,162.343226
146.977735,162.297451
146.975197,162.292471
146.975051,162.292184
146.850104,162.120208
146.850101,162.120205
146.850099,162.120202
146.699797,161.969900
146.699794,161.969898
146.699792,161.969896
146.527816,161.844949
146.338412,161.748443
146.136243,161.682754
145.926287,161.649500
145.713713,161.649500
145.503757,161.682754
145.503754,161.682754
145.503753,161.682755
145.301588,161.748443
145.301586,161.748444
145.112180,161.844951
144.940205,161.969898
144.940202,161.969900
144.789900,162.120202
144.789898,162.120205
144.664949,162.292183
144.662265,162.297451
144.613516,162.349065
144.544600,162.366129
144.477399,162.343226
144.437735,162.297451
144.435197,162.292471
144.435051,162.292184
144.310104,162.120208
144.310101,162.120205
144.310099,162.120202
144.159797,161.969900
144.159794,161.969898
144.159792,161.969896
143.987816,161.844949
143.798412,161.748443
143.596243,161.682754
143.386287,161.649500
143.173713,161.649500
142.963757,161.682754
142.963754,161.682754
142.963753,161.682755
142.761588,161.748443
142.761586,161.748444
142.572180,161.844951
142.400205,161.969898
142.400202,161.969900
142.249900,162.120202
142.249898,162.120205
142.124949,162.292183
142.122265,162.297451
142.073516,162.349065
142.004600,162.366129
141.937399,162.343226
141.897735,162.297451
141.895197,162.292471
141.895051,162.292184
141.770104,162.120208
141.770101,162.120205
141.770099,162.120202
141.619797,161.969900
141.619794,161.969898
141.619792,161.969896
141.447816,161.844949
141.258412,161.748443
141.056243,161.682754
140.846287,161.649500
140.633713,161.649500
140.423757,161.682754
140.423754,161.682754
140.423753,161.682755
140.221588,161.748443
140.221586,161.748444
140.032180,161.844951
139.860205,161.969898
139.860202,161.969900
139.709900,162.120202
139.709898,162.120205
139.584949,162.292183
139.582265,162.297451
139.533516,162.349065
139.464600,162.366129
139.397399,162.343226
139.357735,162.297451
139.355197,162.292471
139.355051,162.292184
139.230104,162.120208
139.230101,162.120205
139.230099,162.120202
139.079797,161.969900
139.079794,161.969898
139.079792,161.969896
138.907816,161.844949
138.718412,161.748443
138.516243,161.682754
138.306287,161.649500
138.093713,161.649500
137.883757,161.682754
137.883754,161.682754
137.883753,161.682755
137.681588,161.748443
137.681586,161.748444
137.492180,161.844951
137.320205,161.969898
137.320202,161.969900
137.169900,162.120202
137.169898,162.120205
137.044949,162.292183
137.042265,162.297451
136.993516,162.349065
136.924600,162.366129
136.857399,162.343226
136.817735,162.297451
136.815197,162.292471
136.815051,162.292184
136.690104,162.120208
136.690101,162.120205
136.690099,162.120202
136.539797,161.969900
136.539794,161.969898
136.539792,161.969896
136.367816,161.844949
136.178412,161.748443
135.976243,161.682754
135.766287,161.649500
135.553713,161.649500
135.343757,161.682754
135.343754,161.682754
135.343753,161.682755
135.141588,161.748443
135.141586,161.748444
134.952180,161.844951
134.780205,161.969898
134.780202,161.969900
134.629900,162.120202
134.629898,162.120205
134.504949,162.292183
134.502265,162.297451
134.453516,162.349065
134.384600,162.366129
134.317399,162.343226
134.277735,162.297451
134.275197,162.292471
134.275051,162.292184
134.150104,162.120208
134.150101,162.120205
134.150099,162.120202
133.999797,161.969900
133.999794,161.969898
133.999792,161.969896
133.827816,161.844949
133.638412,161.748443
133.436243,161.682754
133.226287,161.649500
133.013713,161.649500
132.803757,161.682754
132.803754,161.682754
132.803753,161.682755
132.601588,161.748443
132.601586,161.748444
132.412180,161.844951
132.240205,161.969898
132.240202,161.969900
132.089900,162.120202
132.089898,162.120205
131.964949,162.292183
131.962265,162.297451
131.913516,162.349065
131.844600,162.366129
131.777399,162.343226
131.737735,162.297451
131.735197,162.292471
131.735051,162.292184
131.610104,162.120208
131.610101,162.120205
131.610099,162.120202
131.459797,161.969900
131.459794,161.969898
131.459792,161.969896
131.287816,161.844949
131.098412,161.748443
130.896243,161.682754
130.686287,161.649500
130.473713,161.649500
130.263757,161.682754
130.263754,161.682754
130.263753,161.682755
130.061588,161.748443
130.061586,161.748444
129.872180,161.844951
129.700205,161.969898
129.700202,161.969900
129.549900,162.120202
129.549898,162.120205
129.424949,162.292183
129.422265,162.297451
129.373516,162.349065
129.304600,162.366129
129.237399,162.343226
129.197735,162.297451
129.195197,162.292471
129.195051,162.292184
129.070104,162.120208
129.070101,162.120205
129.070099,162.120202
128.919797,161.969900
128.919794,161.969898
128.919792,161.969896
128.747816,161.844949
128.558412,161.748443
128.356243,161.682754
128.146287,161.649500
127.933713,161.649500
127.723757,161.682754
127.723754,161.682754
127.723753,161.682755
127.521588,161.748443
127.521586,161.748444
127.332180,161.844951
127.160205,161.969898
127.160202,161.969900
127.009900,162.120202
127.009898,162.120205
126.884949,162.292183
126.882265,162.297451
126.833516,162.349065
126.764600,162.366129
126.697399,162.343226
126.657735,162.297451
126.655197,162.292471
126.655051,162.292184
126.530104,162.120208
126.530101,162.120205
126.530099,162.120202
126.379797,161.969900
126.379794,161.969898
126.379792,161.969896
126.207816,161.844949
126.018412,161.748443
125.816243,161.682754
125.606287,161.649500
125.393713,161.649500
125.183757,161.682754
125.183754,161.682754
125.183753,161.682755
124.981588,161.748443
124.981586,161.748444
124.792180,161.844951
124.620205,161.969898
124.620202,161.969900
124.469900,162.120202
124.469898,162.120205
124.344949,162.292183
124.342265,162.297451
124.293516,162.349065
124.224600,162.366129
124.157399,162.343226
124.117735,162.297451
124.115197,162.292471
124.115051,162.292184
123.990104,162.120208
123.990101,162.120205
123.990099,162.120202
123.839797,161.969900
123.839794,161.969898
123.839792,161.969896
123.667816,161.844949
123.478412,161.748443
123.276243,161.682754
123.066287,161.649500
122.853713,161.649500
122.643757,161.682754
122.643754,161.682754
122.643753,161.682755
122.441588,161.748443
122.441586,161.748444
122.252180,161.844951
122.080205,161.969898
122.080202,161.969900
121.929900,162.120202
121.929898,162.120205
121.804949,162.292183
121.802265,162.297451
121.753516,162.349065
121.684600,162.366129
121.617399,162.343226
121.577735,162.297451
121.575197,162.292471
121.575051,162.292184
121.450104,162.120208
121.450101,162.120205
121.450099,162.120202
121.299797,161.969900
121.299794,161.969898
121.299792,161.969896
121.127816,161.844949
120.938412,161.748443
120.736243,161.682754
120.526287,161.649500
120.313713,161.649500
120.103757,161.682754
120.103754,161.682754
120.103753,161.682755
119.901588,161.748443
119.901586,161.748444
119.712180,161.844951
119.540205,161.969898
119.540202,161.969900
119.389900,162.120202
119.389898,162.120205
119.264949,162.292183
119.262265,162.297451
119.213516,162.349065
119.144600,162.366129
119.077399,162.343226
119.037735,162.297451
119.035197,162.292471
119.035051,162.292184
118.910104,162.120208
118.910101,162.120205
118.910099,162.120202
118.759797,161.969900
118.759794,161.969898
118.759792,161.969896
118.587816,161.844949
118.398412,161.748443
118.196243,161.682754
117.986287,161.649500
117.773713,161.649500
117.563757,161.682754
117.563754,161.682754
117.563753,161.682755
117.361588,161.748443
117.361586,161.748444
117.172180,161.844951
117.000205,161.969898
117.000202,161.969900
116.849900,162.120202
116.849898,162.120205
116.724949,162.292183
116.722265,162.297451
116.673516,162.349065
116.604600,162.366129
116.537399,162.343226
116.497735,162.297451
116.495197,162.292471
116.495051,162.292184
116.370104,162.120208
116.370101,162.120205
116.370099,162.120202
116.219797,161.969900
116.219794,161.969898
116.219792,161.969896
116.047816,161.844949
115.858412,161.748443
115.656243,161.682754
115.446287,161.649500
115.233713,161.649500
115.023757,161.682754
115.023754,161.682754
115.023753,161.682755
114.821588,161.748443
114.821586,161.748444
114.632180,161.844951
114.460205,161.969898
114.460202,161.969900
114.309900,162.120202
114.309898,162.120205
114.184949,162.292183
114.182265,162.297451
114.133516,162.349065
114.064600,162.366129
113.997399,162.343226
113.957735,162.297451
113.955197,162.292471
113.955051,162.292184
113.830104,162.120208
113.830101,162.120205
113.830099,162.120202
113.679797,161.969900
113.679794,161.969898
113.679792,161.969896
113.507816,161.844949
113.318412,161.748443
113.116243,161.682754
112.906287,161.649500
112.693713,161.649500
112.483757,161.682754
112.483754,161.682754
112.483753,161.682755
112.281588,161.748443
112.281586,161.748444
112.092180,161.844951
111.920205,161.969898
111.920202,161.969900
111.769900,162.120202
111.769898,162.120205
111.644949,162.292183
111.642265,162.297451
111.593516,162.349065
111.524600,162.366129
111.457399,162.343226
111.417735,162.297451
111.415197,162.292471
111.415051,162.292184
111.290104,162.120208
111.290101,162.120205
111.290099,162.120202
111.139797,161.969900
111.139794,161.969898
111.139792,161.969896
110.967816,161.844949
110.778412,161.748443
110.576243,161.682754
110.366287,161.649500
110.153713,161.649500
109.943757,161.682754
109.943754,161.682754
109.943753,161.682755
109.741588,161.748443
109.741586,161.748444
109.552180,161.844951
109.380205,161.969898
109.380202,161.969900
109.229900,162.120202
109.229898,162.120205
109.104949,162.292183
109.102265,162.297451
109.053516,162.349065
108.984600,162.366129
108.917399,162.343226
108.877735,162.297451
108.875197,162.292471
108.875051,162.292184
108.750104,162.120208
108.750101,162.120205
108.750099,162.120202
108.599797,161.969900
108.599794,161.969898
108.599792,161.969896
108.427816,161.844949
108.238412,161.748443
108.036243,161.682754
107.826287,161.649500
107.613713,161.649500
107.403757,161.682754
107.403754,161.682754
107.403753,161.682755
107.201588,161.748443
107.201586,161.748444
107.012180,161.844951
106.840205,161.969898
106.840202,161.969900
106.689900,162.120202
106.689898,162.120205
106.564949,162.292183
106.562265,162.297451
106.513516,162.349065
106.444600,162.366129
106.377399,162.343226
106.337735,162.297451
106.335197,162.292471
106.335051,162.292184
106.210104,162.120208
106.210101,162.120205
106.210099,162.120202
106.059797,161.969900
106.059794,161.969898
106.059792,161.969896
105.887816,161.844949
105.698412,161.748443
105.496243,161.682754
105.286287,161.649500
105.073713,161.649500
104.906635,161.675962
104.836226,161.666863
104.797831,161.640609
101.227905,158.070683
101.193879,158.008371
101.191000,157.981588
101.191000,154.772147
101.211002,154.704026
101.212175,154.702234
101.247412,154.649500
101.310989,154.496011
101.343400,154.333068
101.343400,154.166932
101.328412,154.091581
101.334740,154.020868
101.378294,153.964800
101.445247,153.941181
101.451991,153.941000
118.211588,153.941000
118.279709,153.961002
118.300683,153.977905
122.942174,158.619396
122.976200,158.681708
122.976657,158.683907
122.989011,158.746011
123.052588,158.899500
123.082918,158.944892
123.144887,159.037635
123.144892,159.037641
123.262358,159.155107
123.262364,159.155112
123.400500,159.247412
123.553989,159.310989
123.716932,159.343400
123.716933,159.343400
123.883067,159.343400
123.883068,159.343400
124.046011,159.310989
124.199500,159.247412
124.337636,159.155112
124.455112,159.037636
124.547412,158.899500
124.610989,158.746011
124.643400,158.583068
124.643400,158.416932
124.610989,158.253989
124.547412,158.100500
124.455112,157.962364
124.455107,157.962358
124.337641,157.844892
124.337635,157.844887
124.291799,157.814260
124.199500,157.752588
124.046011,157.689011
123.983907,157.676657
123.920999,157.643750
123.919396,157.642174
118.990494,152.713271
118.990488,152.713266
118.979989,152.706251
118.877311,152.637644
118.877309,152.637643
118.751560,152.585556
118.751557,152.585555
118.618061,152.559000
118.618058,152.559000
97.545494,152.559000
97.545490,152.559000
97.411993,152.585555
97.411983,152.585558
97.408970,152.586807
97.400659,152.588460
97.396247,152.591296
97.360749,152.596400
97.139251,152.596400
97.091030,152.586807
97.088016,152.585558
97.088006,152.585555
96.954509,152.559000
96.954506,152.559000
87.229098,152.559000
87.229094,152.559000
87.095598,152.585555
87.095595,152.585556
86.969846,152.637643
86.870805,152.703820
86.803052,152.725034
86.734585,152.706251
86.687143,152.653433
86.674804,152.599054
86.674804,151.588558
86.684394,151.540341
86.706899,151.486011
86.739310,151.323068
86.739310,151.291799
86.759312,151.223678
86.812968,151.177185
86.865310,151.165799
87.977853,151.165799
88.045974,151.185801
88.047855,151.187034
88.100501,151.222211
88.253990,151.285788
88.416933,151.318199
88.416934,151.318199
88.583068,151.318199
88.583069,151.318199
88.746012,151.285788
88.899501,151.222211
89.037637,151.129911
89.155113,151.012435
89.247413,150.874299
89.310990,150.720810
89.333028,150.610018
89.365936,150.547108
89.427631,150.511977
89.456607,150.508600
89.977852,150.508600
90.045973,150.528602
90.047854,150.529835
90.100500,150.565012
90.253989,150.628589
90.416932,150.661000
90.416933,150.661000
90.583067,150.661000
90.583068,150.661000
90.746011,150.628589
90.899500,150.565012
91.037636,150.472712
91.155112,150.355236
91.247412,150.217100
91.310989,150.063611
91.343400,149.900668
91.343400,149.734532
91.310989,149.571589
91.247412,149.418100
91.155112,149.279964
91.155107,149.279958
91.037641,149.162492
91.037635,149.162487
90.953991,149.106598
90.899500,149.070188
90.746011,149.006611
90.721070,149.001650
90.583070,148.974200
90.583068,148.974200
90.416932,148.974200
90.416929,148.974200
90.253988,149.006611
90.253983,149.006613
90.100499,149.070188
90.047854,149.105365
89.980101,149.126580
89.977852,149.126600
89.268846,149.126600
89.200725,149.106598
89.198844,149.105365
89.153464,149.075043
89.074164,149.042196
89.027713,149.022955
89.027710,149.022954
88.894214,148.996399
88.894211,148.996399
88.105791,148.996399
88.105787,148.996399
87.972291,149.022954
87.972288,149.022955
87.846538,149.075043
87.801158,149.105365
87.733405,149.126580
87.731156,149.126600
83.702760,149.126600
83.588262,149.149375
83.588261,149.149376
83.575596,149.151895
83.569263,149.153155
83.443509,149.205244
83.330339,149.280862
83.330332,149.280867
81.700982,150.910217
81.638670,150.944243
81.567854,150.939178
81.522792,150.910217
81.411898,150.799323
81.411892,150.799318
81.358153,150.763411
81.273757,150.707019
81.120268,150.643442
80.957327,150.611031
80.957325,150.611031
80.791189,150.611031
80.791186,150.611031
80.628245,150.643442
80.628240,150.643444
80.474756,150.707019
80.422111,150.742196
80.354358,150.763411
80.352109,150.763431
79.535109,150.763431
79.401613,150.789986
79.401610,150.789987
79.275860,150.842075
79.164034,150.916795
79.162684,150.917697
79.162682,150.917698
79.057358,151.023021
78.995045,151.057046
78.992870,151.057498
78.975736,151.060907
78.930742,151.069857
78.930741,151.069858
78.777256,151.133434
78.639120,151.225733
78.639114,151.225738
78.521648,151.343204
78.521643,151.343210
78.429344,151.481346
78.365769,151.634829
78.365767,151.634834
78.333356,151.797775
78.333356,151.797778
78.333356,151.963914
78.365767,152.126857
78.429344,152.280346
78.521644,152.418482
78.570633,152.467471
78.604657,152.529781
78.599593,152.600596
78.557047,152.657432
78.529756,152.672974
78.456864,152.703166
78.455288,152.703820
78.405736,152.724345
78.267602,152.816643
78.267596,152.816648
78.150130,152.934114
78.150125,152.934120
78.057826,153.072256
77.994251,153.225739
77.994249,153.225744
77.961838,153.388685
77.961838,153.554826
77.978584,153.639013
77.994249,153.717767
78.057826,153.871256
78.085290,153.912358
78.150125,154.009391
78.150130,154.009397
78.267596,154.126863
78.267602,154.126868
78.405738,154.219168
78.559227,154.282745
78.722170,154.315156
78.722171,154.315156
78.888305,154.315156
78.888306,154.315156
79.051249,154.282745
79.204738,154.219168
79.342874,154.126868
79.460350,154.009392
79.552650,153.871256
79.616227,153.717767
79.628579,153.655665
79.661483,153.592759
79.663005,153.591208
80.195487,153.058728
80.222861,153.043780
80.249084,153.026928
80.255382,153.026022
80.257799,153.024703
80.284582,153.021824
80.398824,153.021824
80.466945,153.041826
80.513438,153.095482
80.524824,153.147824
80.524824,153.201294
80.545205,153.303757
80.557235,153.364235
80.620812,153.517724
80.680197,153.606600
80.713111,153.655859
80.713116,153.655865
80.830582,153.773331
80.830588,153.773336
80.968724,153.865636
81.122213,153.929213
81.285156,153.961624
81.285157,153.961624
81.451291,153.961624
81.451292,153.961624
81.614235,153.929213
81.767724,153.865636
81.905860,153.773336
82.023336,153.655860
82.115636,153.517724
82.179213,153.364235
82.191565,153.302132
82.224469,153.239227
82.225991,153.237677
84.283164,151.180505
84.345476,151.146479
84.372259,151.143600
84.926510,151.143600
84.994631,151.163602
85.041124,151.217258
85.052510,151.269600
85.052510,151.323068
85.084921,151.486011
85.148498,151.639500
85.240798,151.777636
85.255898,151.792736
85.289924,151.855046
85.292804,151.881832
85.292804,152.927651
85.272802,152.995772
85.271570,152.997652
85.236391,153.050301
85.172817,153.203783
85.172815,153.203788
85.140404,153.366729
85.140404,153.480600
85.120402,153.548721
85.066746,153.595214
85.014404,153.606600
84.916929,153.606600
84.753988,153.639011
84.753983,153.639013
84.600500,153.702588
84.462364,153.794887
84.462358,153.794892
84.344892,153.912358
84.344887,153.912364
84.252588,154.050500
84.189013,154.203983
84.189011,154.203988
84.156600,154.366929
84.156600,154.533070
84.177514,154.638211
84.189011,154.696011
84.252588,154.849500
84.283258,154.895400
84.344887,154.987635
84.344892,154.987641
84.462358,155.105107
84.462364,155.105112
84.600500,155.197412
84.753989,155.260989
84.916932,155.293400
84.916933,155.293400
85.083067,155.293400
85.083068,155.293400
85.246011,155.260989
85.399500,155.197412
85.452146,155.162235
85.519899,155.141020
85.522148,155.141000
86.165214,155.141000
86.298713,155.114445
86.424467,155.062356
86.458154,155.039847
86.537643,154.986735
87.546473,153.977905
87.608785,153.943880
87.635568,153.941000
91.260609,153.941000
91.328730,153.961002
91.375223,154.014658
91.385327,154.084932
91.384188,154.091582
91.369200,154.166929
91.369200,154.166932
91.369200,154.333068
91.401611,154.496011
91.465188,154.649500
91.505085,154.709210
91.557487,154.787635
91.557492,154.787641
91.674958,154.905107
91.674964,154.905112
91.813100,154.997412
91.966589,155.060989
92.129532,155.093400
92.129533,155.093400
92.295667,155.093400
92.295668,155.093400
92.458611,155.060989
92.612100,154.997412
92.664746,154.962235
92.732499,154.941020
92.734748,154.941000
99.683000,154.941000
99.751121,154.961002
99.797614,155.014658
99.809000,155.067000
99.809000,158.388058
99.818227,158.434444
99.835555,158.521557
99.835556,158.521560
99.876081,158.619396
99.887644,158.647311
99.963265,158.760487
100.053264,158.850486
102.857095,161.654317
102.891121,161.716629
102.894000,161.743412
102.894000,162.569297
102.832993,162.534075
102.705826,162.500000
102.574174,162.500000
102.447007,162.534075
102.386000,162.569297
102.386000,161.665302
102.321995,161.675440
102.118713,161.741490
102.118707,161.741493
101.928249,161.838536
101.755320,161.964177
101.604177,162.115320
101.478534,162.288252
101.478057,162.289189
101.477781,162.289481
101.475949,162.292471
101.475320,162.292086
101.429308,162.340804
101.360393,162.357869
101.293192,162.334967
101.259033,162.295545
101.257636,162.296402
101.255052,162.292185
101.223814,162.249190
101.130104,162.120208
101.130101,162.120205
101.130099,162.120202
100.979797,161.969900
100.979794,161.969898
100.979792,161.969896
100.807816,161.844949
100.618412,161.748443
100.416243,161.682754
100.206287,161.649500
99.993713,161.649500
99.783757,161.682754
99.783754,161.682754
99.783753,161.682755
99.581588,161.748443
99.581586,161.748444
99.392180,161.844951
99.220205,161.969898
99.220202,161.969900
99.069900,162.120202
99.069898,162.120205
98.944949,162.292183
98.942265,162.297451
98.893516,162.349065
98.824600,162.366129
98.757399,162.343226
98.717735,162.297451
98.715197,162.292471
98.715051,162.292184
98.590104,162.120208
98.590101,162.120205
98.590099,162.120202
98.439797,161.969900
98.439794,161.969898
98.439792,161.969896
98.267816,161.844949
98.078412,161.748443
97.876243,161.682754
97.666287,161.649500
97.453713,161.649500
97.243757,161.682754
97.243754,161.682754
97.243753,161.682755
97.041588,161.748443
97.041586,161.748444
96.852180,161.844951
96.680205,161.969898
96.680202,161.969900
96.529900,162.120202
96.529898,162.120205
96.404949,162.292183
96.402265,162.297451
96.353516,162.349065
96.284600,162.366129
96.217399,162.343226
96.177735,162.297451
96.175197,162.292471
96.175051,162.292184
96.050104,162.120208
96.050101,162.120205
96.050099,162.120202
95.899797,161.969900
95.899794,161.969898
95.899792,161.969896
95.727816,161.844949
95.538412,161.748443
95.336243,161.682754
95.126287,161.649500
94.913713,161.649500
94.703757,161.682754
94.703754,161.682754
94.703753,161.682755
94.501588,161.748443
94.501586,161.748444
94.312180,161.844951
94.140205,161.969898
94.140202,161.969900
93.989900,162.120202
93.989898,162.120205
93.864949,162.292183
93.862265,162.297451
93.813516,162.349065
93.744600,162.366129
93.677399,162.343226
93.637735,162.297451
93.635197,162.292471
93.635051,162.292184
93.510104,162.120208
93.510101,162.120205
93.510099,162.120202
93.359797,161.969900
93.359794,161.969898
93.359792,161.969896
93.187816,161.844949
92.998412,161.748443
92.796243,161.682754
92.586287,161.649500
92.373713,161.649500
92.163757,161.682754
92.163754,161.682754
92.163753,161.682755
91.961588,161.748443
91.961586,161.748444
91.772180,161.844951
91.600205,161.969898
91.600202,161.969900
91.449900,162.120202
91.449898,162.120205
91.324949,162.292183
91.322265,162.297451
91.273516,162.349065
91.204600,162.366129
91.137399,162.343226
91.097735,162.297451
91.095197,162.292471
91.095051,162.292184
90.970104,162.120208
90.970101,162.120205
90.970099,162.120202
90.819797,161.969900
90.819794,161.969898
90.819792,161.969896
90.647816,161.844949
90.458412,161.748443
90.256243,161.682754
90.046287,161.649500
89.833713,161.649500
89.623757,161.682754
89.623754,161.682754
89.623753,161.682755
89.421588,161.748443
89.421586,161.748444
89.232180,161.844951
89.060205,161.969898
89.060202,161.969900
88.909900,162.120202
88.909898,162.120205
88.784949,162.292183
88.782265,162.297451
88.733516,162.349065
88.664600,162.366129
88.597399,162.343226
88.557735,162.297451
88.555197,162.292471
88.555051,162.292184
88.430104,162.120208
88.430101,162.120205
88.430099,162.120202
88.279797,161.969900
88.279794,161.969898
88.279792,161.969896
88.107816,161.844949
87.918412,161.748443
87.716243,161.682754
87.506287,161.649500
87.293713,161.649500
87.083757,161.682754
87.083754,161.682754
87.083753,161.682755
86.881588,161.748443
86.881586,161.748444
86.692180,161.844951
86.520205,161.969898
86.520202,161.969900
86.369900,162.120202
86.369898,162.120205
86.244949,162.292183
86.242265,162.297451
86.193516,162.349065
86.124600,162.366129
86.057399,162.343226
86.017735,162.297451
86.015197,162.292471
86.015051,162.292184
85.890104,162.120208
85.890101,162.120205
85.890099,162.120202
85.739797,161.969900
85.739794,161.969898
85.739792,161.969896
85.567816,161.844949
85.378412,161.748443
85.176243,161.682754
84.966287,161.649500
84.753713,161.649500
84.543757,161.682754
84.543754,161.682754
84.543753,161.682755
84.341588,161.748443
84.341586,161.748444
84.152180,161.844951
83.980205,161.969898
83.980202,161.969900
83.829900,162.120202
83.829898,162.120205
83.704949,162.292183
83.702265,162.297451
83.653516,162.349065
83.584600,162.366129
83.517399,162.343226
83.477735,162.297451
83.475197,162.292471
83.475051,162.292184
83.350104,162.120208
83.350101,162.120205
83.350099,162.120202
83.199797,161.969900
83.199794,161.969898
83.199792,161.969896
83.027816,161.844949
82.838412,161.748443
82.636243,161.682754
82.426287,161.649500
82.213713,161.649500
82.003757,161.682754
82.003754,161.682754
82.003753,161.682755
81.801588,161.748443
81.801586,161.748444
81.612180,161.844951
81.440205,161.969898
81.440202,161.969900
81.289900,162.120202
81.289898,162.120205
81.164949,162.292183
81.162265,162.297451
81.113516,162.349065
81.044600,162.366129
80.977399,162.343226
80.937735,162.297451
80.935197,162.292471
80.935051,162.292184
80.810104,162.120208
80.810101,162.120205
80.810099,162.120202
80.659797,161.969900
80.659794,161.969898
80.659792,161.969896
80.487816,161.844949
80.298412,161.748443
80.096243,161.682754
79.886287,161.649500
79.673713,161.649500
79.463757,161.682754
79.463754,161.682754
79.463753,161.682755
79.261588,161.748443
79.261586,161.748444
79.072180,161.844951
78.900205,161.969898
78.900202,161.969900
78.749900,162.120202
78.749898,162.120205
78.624949,162.292183
78.622265,162.297451
78.573516,162.349065
78.504600,162.366129
78.437399,162.343226
78.397735,162.297451
78.395197,162.292471
78.395051,162.292184
78.270104,162.120208
78.270101,162.120205
78.270099,162.120202
78.119797,161.969900
78.119794,161.969898
78.119792,161.969896
77.947816,161.844949
77.758412,161.748443
77.556243,161.682754
77.346287,161.649500
77.133713,161.649500
76.923757,161.682754
76.923754,161.682754
76.923753,161.682755
76.721588,161.748443
76.721586,161.748444
76.532180,161.844951
76.360205,161.969898
76.360202,161.969900
76.209900,162.120202
76.209898,162.120205
76.084949,162.292183
76.082265,162.297451
76.033516,162.349065
75.964600,162.366129
75.897399,162.343226
75.857735,162.297451
75.855197,162.292471
75.855051,162.292184
75.730104,162.120208
75.730101,162.120205
75.730099,162.120202
75.579797,161.969900
75.579794,161.969898
75.579792,161.969896
75.407816,161.844949
75.218412,161.748443
75.016243,161.682754
74.806287,161.649500
74.593713,161.649500
74.383757,161.682754
74.383754,161.682754
74.383753,161.682755
74.181588,161.748443
74.181586,161.748444
73.992180,161.844951
73.820205,161.969898
73.820202,161.969900
73.669900,162.120202
73.669898,162.120205
73.544949,162.292183
73.542265,162.297451
73.493516,162.349065
73.424600,162.366129
73.357399,162.343226
73.317735,162.297451
73.315197,162.292471
73.315051,162.292184
73.190104,162.120208
73.190101,162.120205
73.190099,162.120202
73.039797,161.969900
73.039794,161.969898
73.039792,161.969896
72.867816,161.844949
72.678412,161.748443
72.476243,161.682754
72.266287,161.649500
72.053713,161.649500
71.843757,161.682754
71.843754,161.682754
71.843753,161.682755
71.641588,161.748443
71.641586,161.748444
71.452180,161.844951
71.280205,161.969898
71.280202,161.969900
71.129900,162.120202
71.129898,162.120205
71.004949,162.292183
71.002265,162.297451
70.953516,162.349065
70.884600,162.366129
70.817399,162.343226
70.777735,162.297451
70.775197,162.292471
70.775051,162.292184
70.650104,162.120208
70.650101,162.120205
70.650099,162.120202
70.499797,161.969900
70.499794,161.969898
70.499792,161.969896
70.327816,161.844949
70.138412,161.748443
69.936243,161.682754
69.726287,161.649500
69.513713,161.649500
69.303757,161.682754
69.303754,161.682754
69.303753,161.682755
69.101588,161.748443
69.101586,161.748444
68.912180,161.844951
68.740205,161.969898
68.740202,161.969900
68.589900,162.120202
68.589898,162.120205
68.464949,162.292183
68.462265,162.297451
68.413516,162.349065
68.344600,162.366129
68.277399,162.343226
68.237735,162.297451
68.235197,162.292471
68.235051,162.292184
68.110104,162.120208
68.110101,162.120205
68.110099,162.120202
67.959797,161.969900
67.959794,161.969898
67.959792,161.969896
67.787816,161.844949
67.598412,161.748443
67.396243,161.682754
67.186287,161.649500
66.973713,161.649500
66.763757,161.682754
66.763754,161.682754
66.763753,161.682755
66.561588,161.748443
66.561586,161.748444
66.372180,161.844951
66.200205,161.969898
66.200202,161.969900
66.049900,162.120202
66.049898,162.120205
65.924949,162.292183
65.922265,162.297451
65.873516,162.349065
65.804600,162.366129
65.737399,162.343226
65.697735,162.297451
65.695197,162.292471
65.695051,162.292184
65.570104,162.120208
65.570101,162.120205
65.570099,162.120202
65.419797,161.969900
65.419794,161.969898
65.419792,161.969896
65.247816,161.844949
65.058412,161.748443
64.856243,161.682754
64.646287,161.649500
64.433713,161.649500
64.223757,161.682754
64.223754,161.682754
64.223753,161.682755
64.021588,161.748443
64.021586,161.748444
63.832180,161.844951
63.660207,161.969896
63.548873,162.081230
63.486561,162.115255
63.415745,162.110189
63.358909,162.067643
63.341722,162.036165
63.293798,161.907673
63.293796,161.907670
63.293796,161.907669
63.230617,161.823273
63.207546,161.792453
63.103020,161.714206
63.092331,161.706204
63.092329,161.706203
63.092326,161.706201
62.957483,161.655909
62.957486,161.655909
62.897873,161.649500
61.102135,161.649500
61.102114,161.649502
61.042519,161.655908
61.042518,161.655908
60.907673,161.706201
60.907670,161.706203
60.792450,161.792456
60.790595,161.794312
60.788291,161.795569
60.785239,161.797855
60.784910,161.797416
60.728283,161.828338
60.657468,161.823273
60.600632,161.780726
60.575821,161.714206
60.575500,161.705217
60.575500,143.353713
61.109500,143.353713
61.109500,143.566287
61.142754,143.776243
61.208443,143.978412
61.304949,144.167816
61.429896,144.339792
61.429898,144.339794
61.429900,144.339797
61.580202,144.490099
61.580205,144.490101
61.580208,144.490104
61.752184,144.615051
61.755317,144.616647
61.757451,144.617735
61.809065,144.666484
61.826129,144.735400
61.803226,144.802601
61.757451,144.842265
61.752183,144.844949
61.580205,144.969898
61.580202,144.969900
61.429900,145.120202
61.429898,145.120205
61.304951,145.292180
61.208444,145.481586
61.208443,145.481588
61.143530,145.681370
61.142754,145.683757
61.109500,145.893713
61.109500,146.106287
61.142754,146.316243
61.208443,146.518412
61.304949,146.707816
61.429896,146.879792
61.429898,146.879794
61.429900,146.879797
61.580202,147.030099
61.580205,147.030101
61.580208,147.030104
61.752184,147.155051
61.755317,147.156647
61.757451,147.157735
61.809065,147.206484
61.826129,147.275400
61.803226,147.342601
61.757451,147.382265
61.752183,147.384949
61.580205,147.509898
61.580202,147.509900
61.429900,147.660202
61.429898,147.660205
61.304951,147.832180
61.304949,147.832184
61.208443,148.021588
61.142754,148.223757
61.109500,148.433713
61.109500,148.646287
61.142754,148.856243
61.208443,149.058412
61.304949,149.247816
61.429896,149.419792
61.429898,149.419794
61.429900,149.419797
61.580202,149.570099
61.580205,149.570101
61.580208,149.570104
61.752184,149.695051
61.755317,149.696647
61.757451,149.697735
61.809065,149.746484
61.826129,149.815400
61.803226,149.882601
61.757451,149.922265
61.752183,149.924949
61.580205,150.049898
61.580202,150.049900
61.429900,150.200202
61.429898,150.200205
61.304951,150.372180
61.208444,150.561586
61.208443,150.561588
61.149760,150.742196
61.142754,150.763757
61.109500,150.973713
61.109500,151.186287
61.142754,151.396243
61.208443,151.598412
61.304949,151.787816
61.304951,151.787819
61.312187,151.797778
61.429896,151.959792
61.429898,151.959794
61.429900,151.959797
61.580202,152.110099
61.580205,152.110101
61.580208,152.110104
61.752184,152.235051
61.755317,152.236647
61.757451,152.237735
61.809065,152.286484
61.826129,152.355400
61.803226,152.422601
61.757451,152.462265
61.752183,152.464949
61.580205,152.589898
61.580202,152.589900
61.429900,152.740202
61.429898,152.740205
61.304951,152.912180
61.304949,152.912184
61.208443,153.101588
61.142754,153.303757
61.109500,153.513713
61.109500,153.726287
61.142754,153.936243
61.208443,154.138412
61.304949,154.327816
61.429896,154.499792
61.429898,154.499794
61.429900,154.499797
61.580202,154.650099
61.580205,154.650101
61.580208,154.650104
61.752184,154.775051
61.753517,154.775730
61.757451,154.777735
61.809065,154.826484
61.826129,154.895400
61.803226,154.962601
61.757451,155.002265
61.752183,155.004949
61.580205,155.129898
61.580202,155.129900
61.429900,155.280202
61.429898,155.280205
61.304951,155.452180
61.304949,155.452184
61.208443,155.641588
61.142754,155.843757
61.109500,156.053713
61.109500,156.266287
61.142754,156.476243
61.208443,156.678412
61.304949,156.867816
61.429896,157.039792
61.429898,157.039794
61.429900,157.039797
61.580202,157.190099
61.580205,157.190101
61.580208,157.190104
61.752184,157.315051
61.941588,157.411557
62.143757,157.477246
62.353713,157.510500
62.353716,157.510500
62.566284,157.510500
62.566287,157.510500
62.776243,157.477246
62.978412,157.411557
63.167816,157.315051
63.339792,157.190104
63.451127,157.078768
63.513437,157.044745
63.584253,157.049809
63.641089,157.092356
63.658277,157.123833
63.706202,157.252328
63.706203,157.252329
63.792453,157.367546
63.850061,157.410671
63.907669,157.453796
63.907671,157.453796
63.907673,157.453798
63.968030,157.476309
64.042514,157.504090
64.042517,157.504091
64.102127,157.510500
65.897872,157.510499
65.957483,157.504091
66.092331,157.453796
66.207546,157.367546
66.293796,157.252331
66.344091,157.117483
66.350500,157.057873
66.350499,155.262128
66.344091,155.202517
66.317005,155.129896
66.293798,155.067673
66.293796,155.067670
66.293796,155.067669
66.233887,154.987641
66.207546,154.952453
66.116913,154.884606
66.092331,154.866204
66.092329,154.866203
66.092328,154.866202
65.963833,154.818277
65.906997,154.775730
65.882186,154.709210
65.897277,154.639836
65.918767,154.611128
66.030104,154.499792
66.155051,154.327816
66.251557,154.138412
66.317246,153.936243
66.350500,153.726287
66.350500,153.513713
66.317246,153.303757
66.251557,153.101588
66.155051,152.912184
66.030104,152.740208
66.030101,152.740205
66.030099,152.740202
65.879797,152.589900
65.879794,152.589898
65.879792,152.589896
65.707816,152.464949
65.702551,152.462266
65.650937,152.413520
65.633870,152.344606
65.656770,152.277404
65.702551,152.237733
65.707816,152.235051
65.879792,152.110104
66.030104,151.959792
66.155051,151.787816
66.251557,151.598412
66.317246,151.396243
66.350500,151.186287
66.350500,150.973713
66.317246,150.763757
66.251557,150.561588
66.155051,150.372184
66.030104,150.200208
66.030101,150.200205
66.030099,150.200202
65.879797,150.049900
65.879794,150.049898
65.879792,150.049896
65.707816,149.924949
65.702551,149.922266
65.650937,149.873520
65.633870,149.804606
65.656770,149.737404
65.702551,149.697733
65.707816,149.695051
65.879792,149.570104
66.030104,149.419792
66.155051,149.247816
66.251557,149.058412
66.317246,148.856243
66.350500,148.646287
66.350500,148.433713
66.317246,148.223757
66.251557,148.021588
66.155051,147.832184
66.030104,147.660208
66.030101,147.660205
66.030099,147.660202
65.879797,147.509900
65.879794,147.509898
65.879792,147.509896
65.707816,147.384949
65.702551,147.382266
65.650937,147.333520
65.633870,147.264606
65.656770,147.197404
65.702551,147.157733
65.707816,147.155051
65.879792,147.030104
66.030104,146.879792
66.155051,146.707816
66.251557,146.518412
66.317246,146.316243
66.350500,146.106287
66.350500,145.893713
66.317246,145.683757
66.251557,145.481588
66.155051,145.292184
66.030104,145.120208
66.030101,145.120205
66.030099,145.120202
65.879797,144.969900
65.879794,144.969898
65.879792,144.969896
65.707816,144.844949
65.702551,144.842266
65.693249,144.833480
65.681392,144.828668
65.667926,144.809565
65.650937,144.793520
65.647861,144.781099
65.640488,144.770640
65.639487,144.747288
65.635634,144.731729
72.113200,144.731729
72.113200,144.897870
72.119863,144.931365
72.145581,145.060662
72.145611,145.060810
72.145613,145.060816
72.209186,145.214297
72.209187,145.214299
72.209188,145.214300
72.244366,145.266947
72.265580,145.334697
72.265600,145.336947
72.265600,154.638211
72.292155,154.771709
72.292156,154.771712
72.324377,154.849499
72.344244,154.897463
72.416064,155.004951
72.419866,155.010640
72.419871,155.010646
77.545956,160.136731
77.545960,160.136734
77.545961,160.136735
77.625450,160.189847
77.659137,160.212356
77.784891,160.264445
77.918390,160.291000
82.415252,160.291000
82.483373,160.311002
82.485254,160.312235
82.537900,160.347412
82.691389,160.410989
82.854332,160.443400
82.854333,160.443400
83.020467,160.443400
83.020468,160.443400
83.183411,160.410989
83.336900,160.347412
83.475036,160.255112
83.592512,160.137636
83.684812,159.999500
83.748389,159.846011
83.780800,159.683068
83.780800,159.516932
83.748389,159.353989
83.684812,159.200500
83.592512,159.062364
83.592507,159.062358
83.475041,158.944892
83.475035,158.944887
83.391391,158.888998
83.336900,158.852588
83.183411,158.789011
83.020470,158.756600
83.020468,158.756600
82.854332,158.756600
82.854329,158.756600
82.691388,158.789011
82.691383,158.789013
82.537899,158.852588
82.485254,158.887765
82.417501,158.908980
82.415252,158.909000
78.324860,158.909000
78.256739,158.888998
78.235765,158.872095
73.684505,154.320835
73.650479,154.258523
73.647600,154.231740
73.647600,145.336947
73.653013,145.318509
73.653041,145.316929
115.856600,145.316929
115.856600,145.483070
115.869493,145.547888
115.889011,145.646011
115.952588,145.799500
115.998091,145.867599
116.044887,145.937635
116.044892,145.937641
116.162358,146.055107
116.162364,146.055112
116.300500,146.147412
116.453989,146.210989
116.616932,146.243400
116.616933,146.243400
116.783067,146.243400
116.783068,146.243400
116.946011,146.210989
117.099500,146.147412
117.152146,146.112235
117.219899,146.091020
117.222148,146.091000
118.295858,146.091000
118.429357,146.064445
118.555111,146.012356
118.565019,146.005736
118.668287,145.936735
118.668294,145.936728
118.677118,145.927905
118.739430,145.893879
118.766213,145.891000
119.112508,145.891000
119.160726,145.900591
119.291401,145.954718
119.454344,145.987129
119.454345,145.987129
119.620479,145.987129
119.620480,145.987129
119.783423,145.954718
119.936912,145.891141
120.075048,145.798841
120.192524,145.681365
120.284824,145.543229
120.348401,145.389740
120.349338,145.385029
137.974000,145.385029
137.974000,145.551170
137.984568,145.604300
138.006411,145.714111
138.069988,145.867600
138.149855,145.987129
138.162286,146.005733
138.162292,146.005741
138.279758,146.123207
138.279764,146.123212
138.417900,146.215512
138.571389,146.279089
138.734332,146.311500
138.734333,146.311500
138.900467,146.311500
138.900468,146.311500
139.063411,146.279089
139.216900,146.215512
139.269546,146.180335
139.337299,146.159120
139.339548,146.159100
143.283368,146.159100
143.351489,146.179102
143.397982,146.232758
143.399773,146.236872
143.413288,146.269500
143.413289,146.269501
143.505587,146.407635
143.505592,146.407641
143.623058,146.525107
143.623064,146.525112
143.761200,146.617412
143.914689,146.680989
144.077632,146.713400
144.077633,146.713400
144.243767,146.713400
144.243768,146.713400
144.406711,146.680989
144.560200,146.617412
144.612846,146.582235
144.680599,146.561020
144.682848,146.561000
147.502168,146.561000
147.570289,146.581002
147.616782,146.634658
147.626886,146.704932
147.625747,146.711583
147.624800,146.716342
147.624800,146.852459
147.651355,146.985957
147.651356,146.985960
147.651497,146.986300
147.703444,147.111711
147.735316,147.159412
147.779066,147.224888
147.779071,147.224894
147.875305,147.321128
147.875311,147.321133
147.875313,147.321135
147.988489,147.396756
148.114243,147.448845
148.247743,147.475400
148.247744,147.475400
148.383856,147.475400
148.383857,147.475400
148.517357,147.448845
148.643111,147.396756
148.711611,147.350984
148.757031,147.332171
148.841911,147.315289
148.995400,147.251712
149.133536,147.159412
149.251012,147.041936
149.285900,146.989721
149.340375,146.944196
149.410818,146.935347
149.438878,146.943315
149.478543,146.959745
149.612042,146.986300
150.771752,146.986300
150.839873,147.006302
150.841754,147.007535
150.894400,147.042712
151.047889,147.106289
151.210832,147.138700
151.210833,147.138700
151.376967,147.138700
151.376968,147.138700
151.539911,147.106289
151.693400,147.042712
151.831536,146.950412
151.949012,146.832936
152.041312,146.694800
152.104889,146.541311
152.137300,146.378368
152.137300,146.212232
152.104889,146.049289
152.041312,145.895800
151.949012,145.757664
151.949007,145.757658
151.831541,145.640192
151.831535,145.640187
151.747891,145.584298
151.693400,145.547888
151.539911,145.484311
151.533662,145.483068
151.376970,145.451900
151.376968,145.451900
151.210832,145.451900
151.210829,145.451900
151.047888,145.484311
151.047883,145.484313
150.894399,145.547888
150.841754,145.583065
150.774001,145.604280
150.771752,145.604300
150.018512,145.604300
149.950391,145.584298
149.929421,145.567399
149.415187,145.053165
149.302011,144.977544
149.283547,144.969896
149.176260,144.925456
149.176257,144.925455
149.042761,144.898900
149.042758,144.898900
148.149042,144.898900
148.149038,144.898900
148.015542,144.925455
148.015539,144.925456
147.889788,144.977544
147.776611,145.053166
147.732147,145.097630
147.687681,145.142096
147.625372,145.176120
147.598588,145.179000
144.682848,145.179000
144.614727,145.158998
144.612846,145.157765
144.560200,145.122588
144.406716,145.059013
144.406715,145.059012
144.406711,145.059011
144.344607,145.046657
144.281699,145.013750
144.280152,145.012230
144.199287,144.931365
144.086111,144.855744
143.960360,144.803656
143.960357,144.803655
143.826861,144.777100
143.826858,144.777100
139.339548,144.777100
139.271427,144.757098
139.269546,144.755865
139.216900,144.720688
139.063416,144.657113
139.063411,144.657111
138.900470,144.624700
138.900468,144.624700
138.734332,144.624700
138.734329,144.624700
138.571388,144.657111
138.571383,144.657113
138.417900,144.720688
138.279764,144.812987
138.279758,144.812992
138.162292,144.930458
138.162287,144.930464
138.069988,145.068600
138.006413,145.222083
138.006411,145.222088
137.974000,145.385029
120.349338,145.385029
120.380812,145.226797
120.380812,145.060661
120.348401,144.897718
120.284824,144.744229
120.192524,144.606093
120.192519,144.606087
120.075053,144.488621
120.075047,144.488616
120.029211,144.457989
119.936912,144.396317
119.783423,144.332740
119.620482,144.300329
119.620480,144.300329
119.454344,144.300329
119.454341,144.300329
119.291400,144.332740
119.291395,144.332742
119.137912,144.396317
119.001051,144.487765
118.933298,144.508980
118.931049,144.509000
118.359738,144.509000
118.247267,144.531372
118.247267,144.531373
118.242011,144.532418
118.226240,144.535555
118.226239,144.535556
118.100488,144.587644
117.987318,144.663262
117.987311,144.663267
117.978484,144.672095
117.916172,144.706121
117.889389,144.709000
117.222148,144.709000
117.154027,144.688998
117.152146,144.687765
117.099500,144.652588
116.946016,144.589013
116.946011,144.589011
116.783070,144.556600
116.783068,144.556600
116.616932,144.556600
116.616929,144.556600
116.453988,144.589011
116.453983,144.589013
116.300500,144.652588
116.162364,144.744887
116.162358,144.744892
116.044892,144.862358
116.044887,144.862364
115.952588,145.000500
115.889013,145.153983
115.889011,145.153988
115.856600,145.316929
73.653041,145.316929
73.653357,145.299295
73.667072,145.270630
73.667602,145.268826
73.668836,145.266944
73.686346,145.240739
73.695660,145.226799
73.704012,145.214300
73.767589,145.060811
73.800000,144.897868
73.800000,144.731732
73.767589,144.568789
73.704012,144.415300
73.611712,144.277164
73.611707,144.277158
73.494241,144.159692
73.494235,144.159687
73.421275,144.110937
73.356100,144.067388
73.202611,144.003811
73.039670,143.971400
73.039668,143.971400
72.873532,143.971400
72.873529,143.971400
72.710588,144.003811
72.710583,144.003813
72.557100,144.067388
72.418964,144.159687
72.418958,144.159692
72.301492,144.277158
72.301487,144.277164
72.209188,144.415300
72.145613,144.568783
72.145611,144.568788
72.113200,144.731729
65.635634,144.731729
65.633870,144.724606
65.637996,144.712495
65.637449,144.699708
65.649233,144.679521
65.656770,144.657404
65.667646,144.647979
65.673242,144.638394
65.702554,144.617732
65.707816,144.615051
65.879792,144.490104
66.030104,144.339792
66.155051,144.167816
66.251557,143.978412
66.317246,143.776243
66.350500,143.566287
66.350500,143.353713
66.317246,143.143757
66.251557,142.941588
66.155051,142.752184
66.030104,142.580208
66.030101,142.580205
66.030099,142.580202
65.879797,142.429900
65.879794,142.429898
65.879792,142.429896
65.707816,142.304949
65.518412,142.208443
65.316243,142.142754
65.106287,142.109500
64.893713,142.109500
64.683757,142.142754
64.683754,142.142754
64.683753,142.142755
64.481588,142.208443
64.481586,142.208444
64.292180,142.304951
64.120205,142.429898
64.120202,142.429900
63.969900,142.580202
63.969898,142.580205
63.844949,142.752183
63.842265,142.757451
63.793516,142.809065
63.724600,142.826129
63.657399,142.803226
63.617735,142.757451
63.615050,142.752183
63.615048,142.752180
63.490104,142.580208
63.490101,142.580205
63.490099,142.580202
63.339797,142.429900
63.339794,142.429898
63.339792,142.429896
63.167816,142.304949
62.978412,142.208443
62.776243,142.142754
62.566287,142.109500
62.353713,142.109500
62.143757,142.142754
62.143754,142.142754
62.143753,142.142755
61.941588,142.208443
61.941586,142.208444
61.752180,142.304951
61.580205,142.429898
61.580202,142.429900
61.429900,142.580202
61.429898,142.580205
61.304951,142.752180
61.304949,142.752184
61.208443,142.941588
61.142754,143.143757
61.109500,143.353713
60.575500,143.353713
60.575500,131.260709
63.681500,131.260709
63.681500,131.503290
63.713160,131.743782
63.775944,131.978095
63.775945,131.978097
63.775946,131.978100
63.868776,132.202212
63.868777,132.202213
63.868782,132.202224
63.990061,132.412285
63.990063,132.412288
63.990064,132.412289
64.137735,132.604738
64.137739,132.604742
64.137744,132.604748
64.309251,132.776255
64.309256,132.776259
64.309262,132.776265
64.501711,132.923936
64.501714,132.923938
64.711775,133.045217
64.711779,133.045218
64.711788,133.045224
64.935900,133.138054
65.170211,133.200838
65.170215,133.200838
65.170217,133.200839
65.232202,133.208999
65.410712,133.232500
65.410719,133.232500
65.653281,133.232500
65.653288,133.232500
65.870637,133.203885
65.893782,133.200839
65.893782,133.200838
65.893789,133.200838
66.128100,133.138054
66.352212,133.045224
66.562289,132.923936
66.754738,132.776265
66.926265,132.604738
67.073936,132.412289
67.195224,132.202212
67.288054,131.978100
67.350838,131.743789
67.382500,131.503288
67.382500,131.260712
67.353822,131.042878
67.350839,131.020217
67.350838,131.020215
67.350838,131.020211
67.288054,130.785900
67.195224,130.561788
67.195218,130.561779
67.195217,130.561775
67.073938,130.351714
67.067317,130.343085
66.926265,130.159262
66.926259,130.159256
66.926255,130.159251
66.754748,129.987744
66.754742,129.987739
66.754738,129.987735
66.562289,129.840064
66.562288,129.840063
66.562285,129.840061
66.352224,129.718782
66.352216,129.718778
66.352212,129.718776
66.128100,129.625946
66.128097,129.625945
66.128095,129.625944
65.893782,129.563160
65.653290,129.531500
65.653288,129.531500
65.410712,129.531500
65.410709,129.531500
65.170217,129.563160
64.935904,129.625944
64.935900,129.625946
64.776101,129.692137
64.711786,129.718777
64.711775,129.718782
64.501714,129.840061
64.309262,129.987735
64.309251,129.987744
64.137744,130.159251
64.137735,130.159262
63.990061,130.351714
63.868782,130.561775
63.868777,130.561786
63.775946,130.785900
63.775944,130.785904
63.713160,131.020217
63.681500,131.260709
60.575500,131.260709
60.575500,129.583463
60.595502,129.515342
60.612405,129.494368
65.689844,124.416929
119.656600,124.416929
119.656600,124.583070
119.678295,124.692137
119.689011,124.746011
119.752588,124.899500
119.814260,124.991799
119.844887,125.037635
119.844892,125.037641
119.962358,125.155107
119.962364,125.155112
120.100500,125.247412
120.253989,125.310989
120.416932,125.343400
120.416933,125.343400
120.583067,125.343400
120.583068,125.343400
120.746011,125.310989
120.746012,125.310988
120.752082,125.309781
120.752600,125.312387
120.812044,125.311846
120.866744,125.343966
123.642174,128.119396
123.676200,128.181708
123.676657,128.183907
123.689011,128.246011
123.752588,128.399500
123.814260,128.491799
123.844887,128.537635
123.844892,128.537641
123.962358,128.655107
123.962364,128.655112
124.100500,128.747412
124.253989,128.810989
124.416932,128.843400
124.416933,128.843400
124.583067,128.843400
124.583068,128.843400
124.746011,128.810989
124.899500,128.747412
125.037636,128.655112
125.155112,128.537636
125.247412,128.399500
125.310989,128.246011
125.343400,128.083068
125.343400,127.916932
125.310989,127.753989
125.247412,127.600500
125.155112,127.462364
125.155107,127.462358
125.037641,127.344892
125.037635,127.344887
124.991799,127.314260
124.899500,127.252588
124.746011,127.189011
124.683907,127.176657
124.620999,127.143750
124.619396,127.142174
124.124343,126.647121
147.318500,126.647121
147.318500,128.542864
147.318502,128.542885
147.324908,128.602480
147.324908,128.602481
147.375203,128.737330
147.399278,128.769491
147.424089,128.836011
147.408998,128.905385
147.399278,128.920509
147.375203,128.952669
147.324909,129.087515
147.318500,129.147121
147.318500,131.042864
147.318502,131.042885
147.324908,131.102480
147.324908,131.102481
147.375201,131.237326
147.375203,131.237329
147.461453,131.352546
147.519061,131.395671
147.576669,131.438796
147.576671,131.438796
147.576673,131.438798
147.637030,131.461309
147.711514,131.489090
147.711517,131.489091
147.771127,131.495500
150.366872,131.495499
150.426483,131.489091
150.561331,131.438796
150.676546,131.352546
150.762796,131.237331
150.813091,131.102483
150.819500,131.042873
150.819499,130.011230
153.218500,130.011230
153.218500,130.178769
153.251185,130.343085
153.269964,130.388420
153.315297,130.497863
153.361835,130.567512
153.408373,130.637161
153.408378,130.637167
153.526832,130.755621
153.526838,130.755626
153.666137,130.848703
153.820918,130.912816
153.985233,130.945500
153.985234,130.945500
154.152766,130.945500
154.152767,130.945500
154.317082,130.912816
154.471863,130.848703
154.611162,130.755626
154.729626,130.637162
154.822703,130.497863
154.886816,130.343082
154.919500,130.178767
154.919500,130.011233
154.919499,130.011230
155.718500,130.011230
155.718500,130.178769
155.751185,130.343085
155.769964,130.388420
155.815297,130.497863
155.861835,130.567512
155.908373,130.637161
155.908378,130.637167
156.026832,130.755621
156.026838,130.755626
156.166137,130.848703
156.320918,130.912816
156.485233,130.945500
156.485234,130.945500
156.652766,130.945500
156.652767,130.945500
156.817082,130.912816
156.971863,130.848703
157.111162,130.755626
157.229626,130.637162
157.322703,130.497863
157.386816,130.343082
157.419500,130.178767
157.419500,130.011233
157.386816,129.846918
157.322703,129.692137
157.229626,129.552838
157.229621,129.552832
157.111167,129.434378
157.111161,129.434373
156.971864,129.341298
156.971865,129.341298
156.971863,129.341297
156.862420,129.295964
156.817085,129.277185
156.817083,129.277184
156.817082,129.277184
156.734368,129.260731
156.652769,129.244500
156.652767,129.244500
156.485233,129.244500
156.485230,129.244500
156.362830,129.268847
156.320918,129.277184
156.320917,129.277184
156.320914,129.277185
156.166135,129.341298
156.026838,129.434373
156.026832,129.434378
155.908378,129.552832
155.908373,129.552838
155.815298,129.692135
155.751185,129.846914
155.718500,130.011230
154.919499,130.011230
154.886816,129.846918
154.822703,129.692137
154.729626,129.552838
154.729621,129.552832
154.611167,129.434378
154.611161,129.434373
154.471864,129.341298
154.471865,129.341298
154.471863,129.341297
154.362420,129.295964
154.317085,129.277185
154.317083,129.277184
154.317082,129.277184
154.234368,129.260731
154.152769,129.244500
154.152767,129.244500
153.985233,129.244500
153.985230,129.244500
153.862830,129.268847
153.820918,129.277184
153.820917,129.277184
153.820914,129.277185
153.666135,129.341298
153.526838,129.434373
153.526832,129.434378
153.408378,129.552832
153.408373,129.552838
153.315298,129.692135
153.251185,129.846914
153.218500,130.011230
150.819499,130.011230
150.819499,129.147128
150.813091,129.087517
150.762796,128.952669
150.738721,128.920509
150.713909,128.853992
150.728999,128.784618
150.738716,128.769497
150.762796,128.737331
150.813091,128.602483
150.819500,128.542873
150.819499,126.647128
150.813091,126.587517
150.791800,126.530435
150.762798,126.452673
150.762796,126.452670
150.762796,126.452669
150.718566,126.393585
150.676546,126.337453
150.599591,126.279845
150.561331,126.251204
150.561329,126.251203
150.561326,126.251201
150.426483,126.200909
150.426486,126.200909
150.366878,126.194500
147.771135,126.194500
147.771114,126.194502
147.711519,126.200908
147.711518,126.200908
147.576673,126.251201
147.576670,126.251203
147.461453,126.337453
147.375203,126.452670
147.375201,126.452673
147.324909,126.587515
147.318500,126.647121
124.124343,126.647121
122.488453,125.011230
148.218500,125.011230
148.218500,125.011233
148.218500,125.178767
148.245078,125.312387
148.251185,125.343085
148.251550,125.343966
148.315297,125.497863
148.315298,125.497864
148.408373,125.637161
148.408378,125.637167
148.526832,125.755621
148.526838,125.755626
148.666137,125.848703
148.794357,125.901814
148.820915,125.912815
148.820916,125.912815
148.820918,125.912816
148.985233,125.945500
149.152767,125.945500
149.317082,125.912816
149.471863,125.848703
149.611162,125.755626
149.729626,125.637162
149.822703,125.497863
149.886816,125.343082
149.919500,125.178767
149.919500,125.011233
149.886816,124.846918
149.822703,124.692137
149.729626,124.552838
149.729621,124.552832
149.611167,124.434378
149.611161,124.434373
149.518201,124.372259
149.471863,124.341297
149.317082,124.277184
149.224963,124.258860
149.167846,124.247499
149.167844,124.247499
149.152767,124.244500
148.985233,124.244500
148.970156,124.247499
148.970152,124.247499
148.872157,124.266991
148.820918,124.277184
148.820916,124.277184
148.820915,124.277185
148.666135,124.341298
148.526838,124.434373
148.526832,124.434378
148.408378,124.552832
148.408373,124.552838
148.315298,124.692135
148.251185,124.846914
148.218500,125.011230
122.488453,125.011230
121.440494,123.963271
121.440488,123.963266
121.439138,123.962364
121.327311,123.887644
121.224089,123.844888
121.201560,123.835556
121.201557,123.835555
121.068061,123.809000
121.068058,123.809000
121.022148,123.809000
120.954027,123.788998
120.952146,123.787765
120.899500,123.752588
120.746016,123.689013
120.746011,123.689011
120.583070,123.656600
120.583068,123.656600
120.416932,123.656600
120.416929,123.656600
120.253988,123.689011
120.253983,123.689013
120.100500,123.752588
119.962364,123.844887
119.962358,123.844892
119.844892,123.962358
119.844887,123.962364
119.752588,124.100500
119.689013,124.253983
119.689011,124.253988
119.656600,124.416929
65.689844,124.416929
65.785126,124.321647
68.063407,122.043367
70.959653,119.147121
147.318500,119.147121
147.318500,121.042864
147.318502,121.042885
147.324908,121.102480
147.324908,121.102481
147.375203,121.237330
147.399278,121.269491
147.424089,121.336011
147.408998,121.405385
147.399278,121.420509
147.375203,121.452669
147.324909,121.587515
147.318500,121.647121
147.318500,123.542864
147.318502,123.542885
147.324908,123.602480
147.324908,123.602481
147.375201,123.737326
147.375203,123.737329
147.375204,123.737331
147.403845,123.775591
147.461453,123.852546
147.508339,123.887644
147.576669,123.938796
147.576671,123.938796
147.576673,123.938798
147.637030,123.961309
147.711514,123.989090
147.711517,123.989091
147.771127,123.995500
150.366872,123.995499
150.426483,123.989091
150.561331,123.938796
150.676546,123.852546
150.718575,123.796402
152.661000,123.796402
152.661000,124.841000
153.669000,124.841000
153.669000,125.349000
152.661000,125.349000
152.661000,126.393597
152.667505,126.454093
152.718555,126.590964
152.718555,126.590965
152.806095,126.707904
152.923034,126.795444
153.059906,126.846494
153.120402,126.852999
153.120415,126.853000
153.815000,126.853000
153.815000,125.756686
153.823394,125.765080
153.914606,125.817741
154.016339,125.845000
154.121661,125.845000
154.223394,125.817741
154.314606,125.765080
154.323000,125.756686
154.323000,126.853000
155.017585,126.853000
155.017597,126.852999
155.078093,126.846494
155.214964,126.795444
155.214965,126.795444
155.331904,126.707904
155.419444,126.590965
155.419444,126.590964
155.470494,126.454093
155.476999,126.393597
155.477000,126.393585
155.477000,125.349000
154.469000,125.349000
154.469000,124.841000
155.477000,124.841000
155.477000,123.796414
155.476999,123.796402
155.470494,123.735906
155.419444,123.599035
155.419444,123.599034
155.331904,123.482095
155.214965,123.394555
155.078093,123.343505
155.017597,123.337000
154.323000,123.337000
154.323000,124.433314
154.314606,124.424920
154.223394,124.372259
154.121661,124.345000
154.016339,124.345000
153.914606,124.372259
153.823394,124.424920
153.815000,124.433314
153.815000,123.337000
153.120402,123.337000
153.059906,123.343505
152.923035,123.394555
152.923034,123.394555
152.806095,123.482095
152.718555,123.599034
152.718555,123.599035
152.667505,123.735906
152.661000,123.796402
150.718575,123.796402
150.762796,123.737331
150.813091,123.602483
150.819500,123.542873
150.819499,121.647128
150.813091,121.587517
150.762796,121.452669
150.738721,121.420509
150.713909,121.353992
150.728999,121.284618
150.738716,121.269497
150.762796,121.237331
150.813091,121.102483
150.819500,121.042873
150.819499,120.011230
153.218500,120.011230
153.218500,120.011233
153.218500,120.178767
153.251184,120.343082
153.315297,120.497863
153.315298,120.497864
153.408373,120.637161
153.408378,120.637167
153.526832,120.755621
153.526838,120.755626
153.666137,120.848703
153.820918,120.912816
153.985233,120.945500
153.985234,120.945500
154.152766,120.945500
154.152767,120.945500
154.317082,120.912816
154.471863,120.848703
154.611162,120.755626
154.729626,120.637162
154.822703,120.497863
154.886816,120.343082
154.919500,120.178767
154.919500,120.011233
154.919499,120.011230
155.718500,120.011230
155.718500,120.011233
155.718500,120.178767
155.751184,120.343082
155.815297,120.497863
155.815298,120.497864
155.908373,120.637161
155.908378,120.637167
156.026832,120.755621
156.026838,120.755626
156.166137,120.848703
156.320918,120.912816
156.485233,120.945500
156.485234,120.945500
156.652766,120.945500
156.652767,120.945500
156.817082,120.912816
156.971863,120.848703
157.111162,120.755626
157.229626,120.637162
157.322703,120.497863
157.386816,120.343082
157.419500,120.178767
157.419500,120.011233
157.386816,119.846918
157.322703,119.692137
157.229626,119.552838
157.229621,119.552832
157.111167,119.434378
157.111161,119.434373
156.971864,119.341298
156.971865,119.341298
156.971863,119.341297
156.862420,119.295964
156.817085,119.277185
156.817083,119.277184
156.817082,119.277184
156.734368,119.260731
156.652769,119.244500
156.652767,119.244500
156.485233,119.244500
156.485230,119.244500
156.362830,119.268847
156.320918,119.277184
156.320917,119.277184
156.320914,119.277185
156.166135,119.341298
156.026838,119.434373
156.026832,119.434378
155.908378,119.552832
155.908373,119.552838
155.815298,119.692135
155.751185,119.846914
155.718500,120.011230
154.919499,120.011230
154.886816,119.846918
154.822703,119.692137
154.729626,119.552838
154.729621,119.552832
154.611167,119.434378
154.611161,119.434373
154.471864,119.341298
154.471865,119.341298
154.471863,119.341297
154.362420,119.295964
154.317085,119.277185
154.317083,119.277184
154.317082,119.277184
154.234368,119.260731
154.152769,119.244500
154.152767,119.244500
153.985233,119.244500
153.985230,119.244500
153.862830,119.268847
153.820918,119.277184
153.820917,119.277184
153.820914,119.277185
153.666135,119.341298
153.526838,119.434373
153.526832,119.434378
153.408378,119.552832
153.408373,119.552838
153.315298,119.692135
153.251185,119.846914
153.218500,120.011230
150.819499,120.011230
150.819499,119.147128
150.813091,119.087517
150.791800,119.030435
150.762798,118.952673
150.762796,118.952670
150.762796,118.952669
150.719671,118.895061
150.676546,118.837453
150.599591,118.779845
150.561331,118.751204
150.561329,118.751203
150.561326,118.751201
150.426483,118.700909
150.426486,118.700909
150.366873,118.694500
147.771135,118.694500
147.771114,118.694502
147.711519,118.700908
147.711518,118.700908
147.576673,118.751201
147.576670,118.751203
147.461453,118.837453
147.375203,118.952670
147.375201,118.952673
147.324909,119.087515
147.318500,119.147121
70.959653,119.147121
75.494369,114.612405
75.556681,114.578379
75.583464,114.575500
154.975469,114.575500
154.997404,114.575500
Z" /> 
</g> 
</svg>
