<?xml version="1.0" standalone="no"?>
 <!DOCTYPE svg PUBLIC "-//W3C//DTD SVG 1.1//EN" 
 "http://www.w3.org/Graphics/SVG/1.1/DTD/svg11.dtd"> 
<svg
  xmlns:svg="http://www.w3.org/2000/svg"
  xmlns="http://www.w3.org/2000/svg"
  xmlns:xlink="http://www.w3.org/1999/xlink"
  version="1.1"
  width="10.215000000000002cm" height="5.215cm" viewBox="59.425 113.425 102.15 52.15">
<title>SVG Image created as rcbus-ymf262-B_Mask.svg date 2025/09/11 23:19:44 </title>
  <desc>Image generated by PCBNEW </desc>
<g style="fill:#000000; fill-opacity:1.000000;stroke:#000000; stroke-opacity:1.000000;
stroke-linecap:round; stroke-linejoin:round;"
 transform="translate(0 0) scale(1 1)">
</g>
<g style="fill:#000000; fill-opacity:1.000000; stroke:none;">
<circle cx="156.569000" cy="130.095000" r="0.600000" /> 
</g>
<g style="fill:#000000; fill-opacity:1.000000; stroke:none;">
<circle cx="156.569000" cy="120.095000" r="0.600000" /> 
</g>
<g style="fill:#000000; fill-opacity:1.000000; stroke:none;">
<circle cx="154.069000" cy="130.095000" r="0.600000" /> 
</g>
<g style="fill:#000000; fill-opacity:1.000000; stroke:none;">
<circle cx="154.069000" cy="120.095000" r="0.600000" /> 
</g>
<g style="fill:#000000; fill-opacity:1.000000; stroke:none;">
<circle cx="149.069000" cy="125.095000" r="0.600000" /> 
<path style="fill:#000000; fill-opacity:1.000000; stroke:none;fill-rule:evenodd;"
d="M 150.319000,129.195000
150.319000,130.995000
147.819000,130.995000
147.819000,129.195000
Z" /> 
<path style="fill:#000000; fill-opacity:1.000000; stroke:none;fill-rule:evenodd;"
d="M 150.319000,126.695000
150.319000,128.495000
147.819000,128.495000
147.819000,126.695000
Z" /> 
<path style="fill:#000000; fill-opacity:1.000000; stroke:none;fill-rule:evenodd;"
d="M 154.969000,123.845000
154.969000,126.345000
153.169000,126.345000
153.169000,123.845000
Z" /> 
<path style="fill:#000000; fill-opacity:1.000000; stroke:none;fill-rule:evenodd;"
d="M 150.319000,119.195000
150.319000,120.995000
147.819000,120.995000
147.819000,119.195000
Z" /> 
<path style="fill:#000000; fill-opacity:1.000000; stroke:none;fill-rule:evenodd;"
d="M 150.319000,121.695000
150.319000,123.495000
147.819000,123.495000
147.819000,121.695000
Z" /> 
<path style="fill:#000000; fill-opacity:1.000000; stroke:none;fill-rule:evenodd;"
d="M 65.850000,155.310000
65.850000,157.010000
64.150000,157.010000
64.150000,155.310000
Z" /> 
</g>
<g style="fill:#000000; fill-opacity:1.000000; stroke:none;">
<circle cx="62.460000" cy="156.160000" r="0.850000" /> 
</g>
<g style="fill:#000000; fill-opacity:1.000000; stroke:none;">
<circle cx="65.000000" cy="153.620000" r="0.850000" /> 
</g>
<g style="fill:#000000; fill-opacity:1.000000; stroke:none;">
<circle cx="62.460000" cy="153.620000" r="0.850000" /> 
</g>
<g style="fill:#000000; fill-opacity:1.000000; stroke:none;">
<circle cx="65.000000" cy="151.080000" r="0.850000" /> 
</g>
<g style="fill:#000000; fill-opacity:1.000000; stroke:none;">
<circle cx="62.460000" cy="151.080000" r="0.850000" /> 
</g>
<g style="fill:#000000; fill-opacity:1.000000; stroke:none;">
<circle cx="65.000000" cy="148.540000" r="0.850000" /> 
</g>
<g style="fill:#000000; fill-opacity:1.000000; stroke:none;">
<circle cx="62.460000" cy="148.540000" r="0.850000" /> 
</g>
<g style="fill:#000000; fill-opacity:1.000000; stroke:none;">
<circle cx="65.000000" cy="146.000000" r="0.850000" /> 
</g>
<g style="fill:#000000; fill-opacity:1.000000; stroke:none;">
<circle cx="62.460000" cy="146.000000" r="0.850000" /> 
</g>
<g style="fill:#000000; fill-opacity:1.000000; stroke:none;">
<circle cx="65.000000" cy="143.460000" r="0.850000" /> 
</g>
<g style="fill:#000000; fill-opacity:1.000000; stroke:none;">
<circle cx="62.460000" cy="143.460000" r="0.850000" /> 
</g>
<g style="fill:#000000; fill-opacity:1.000000; stroke:none;">
<circle cx="65.532000" cy="131.382000" r="1.600000" /> 
<path style="fill:#000000; fill-opacity:1.000000; stroke:none;fill-rule:evenodd;"
d="M 62.850000,163.850000
61.150000,163.850000
61.150000,162.150000
62.850000,162.150000
Z" /> 
</g>
<g style="fill:#000000; fill-opacity:1.000000; stroke:none;">
<circle cx="64.540000" cy="163.000000" r="0.850000" /> 
<circle cx="67.080000" cy="163.000000" r="0.850000" /> 
<circle cx="69.620000" cy="163.000000" r="0.850000" /> 
<circle cx="72.160000" cy="163.000000" r="0.850000" /> 
<circle cx="74.700000" cy="163.000000" r="0.850000" /> 
<circle cx="77.240000" cy="163.000000" r="0.850000" /> 
<circle cx="79.780000" cy="163.000000" r="0.850000" /> 
<circle cx="82.320000" cy="163.000000" r="0.850000" /> 
<circle cx="84.860000" cy="163.000000" r="0.850000" /> 
<circle cx="87.400000" cy="163.000000" r="0.850000" /> 
<circle cx="89.940000" cy="163.000000" r="0.850000" /> 
<circle cx="92.480000" cy="163.000000" r="0.850000" /> 
<circle cx="95.020000" cy="163.000000" r="0.850000" /> 
<circle cx="97.560000" cy="163.000000" r="0.850000" /> 
<circle cx="100.100000" cy="163.000000" r="0.850000" /> 
<circle cx="102.640000" cy="163.000000" r="0.850000" /> 
<circle cx="105.180000" cy="163.000000" r="0.850000" /> 
<circle cx="107.720000" cy="163.000000" r="0.850000" /> 
<circle cx="110.260000" cy="163.000000" r="0.850000" /> 
<circle cx="112.800000" cy="163.000000" r="0.850000" /> 
<circle cx="115.340000" cy="163.000000" r="0.850000" /> 
<circle cx="117.880000" cy="163.000000" r="0.850000" /> 
<circle cx="120.420000" cy="163.000000" r="0.850000" /> 
<circle cx="122.960000" cy="163.000000" r="0.850000" /> 
<circle cx="125.500000" cy="163.000000" r="0.850000" /> 
<circle cx="128.040000" cy="163.000000" r="0.850000" /> 
<circle cx="130.580000" cy="163.000000" r="0.850000" /> 
<circle cx="133.120000" cy="163.000000" r="0.850000" /> 
<circle cx="135.660000" cy="163.000000" r="0.850000" /> 
<circle cx="138.200000" cy="163.000000" r="0.850000" /> 
<circle cx="140.740000" cy="163.000000" r="0.850000" /> 
<circle cx="143.280000" cy="163.000000" r="0.850000" /> 
<circle cx="145.820000" cy="163.000000" r="0.850000" /> 
<circle cx="148.360000" cy="163.000000" r="0.850000" /> 
<circle cx="150.900000" cy="163.000000" r="0.850000" /> 
<circle cx="153.440000" cy="163.000000" r="0.850000" /> 
<circle cx="155.980000" cy="163.000000" r="0.850000" /> 
<circle cx="158.520000" cy="163.000000" r="0.850000" /> 
</g> 
</svg>
