<?xml version="1.0" standalone="no"?>
 <!DOCTYPE svg PUBLIC "-//W3C//DTD SVG 1.1//EN" 
 "http://www.w3.org/Graphics/SVG/1.1/DTD/svg11.dtd"> 
<svg
  xmlns:svg="http://www.w3.org/2000/svg"
  xmlns="http://www.w3.org/2000/svg"
  xmlns:xlink="http://www.w3.org/1999/xlink"
  version="1.1"
  width="10.215000000000002cm" height="5.215cm" viewBox="59.425 113.425 102.15 52.15">
<title>SVG Image created as rcbus-ymf262-B_SilkS.svg date 2025/08/28 08:10:37 </title>
  <desc>Image generated by PCBNEW </desc>
<g style="fill:#000000; fill-opacity:1.000000;stroke:#000000; stroke-opacity:1.000000;
stroke-linecap:round; stroke-linejoin:round;"
 transform="translate(0 0) scale(1 1)">
<path style="fill:#000000; fill-opacity:1.000000; stroke:none;fill-rule:evenodd;"
d="M 150.666832,159.454699
150.755884,159.484825
150.834701,159.534482
150.905037,159.605564
150.959441,159.688874
150.999649,159.786226
151.025080,159.900191
151.034088,160.033935
151.025094,160.167076
150.999686,160.280686
150.959481,160.377885
150.905037,160.461208
150.834701,160.532290
150.755884,160.581947
150.666832,160.612073
150.564776,160.622500
150.481286,160.616586
150.409175,160.599773
150.346606,160.572949
150.290272,160.534979
150.240524,160.485540
150.196946,160.423197
150.196946,160.513598
150.203717,160.611149
150.222356,160.689547
150.251078,160.752350
150.289178,160.802384
150.337945,160.842221
150.398612,160.871942
150.473773,160.891082
150.566791,160.898005
150.650049,160.892621
150.731746,160.876482
150.811995,160.849658
150.895694,160.810078
150.895694,160.991795
150.811465,161.020338
150.724602,161.040430
150.634905,161.052209
150.537115,161.056275
150.402618,161.045956
150.294542,161.017469
150.207796,160.973243
150.138511,160.913851
150.085171,160.839838
150.044578,160.745961
150.018044,160.627733
150.008360,160.479617
150.008360,160.033935
150.196946,160.033935
150.203100,160.137549
150.220180,160.223086
150.246599,160.293506
150.281485,160.351298
150.327919,160.400628
150.381809,160.435398
150.444625,160.456749
150.518705,160.464230
150.592196,160.456770
150.654658,160.435453
150.708389,160.400688
150.754827,160.351298
150.789713,160.293506
150.816132,160.223086
150.833212,160.137549
150.839366,160.033935
150.833198,159.929704
150.816096,159.843832
150.789674,159.773299
150.754827,159.715565
150.708383,159.666130
150.654650,159.631338
150.592190,159.610006
150.518705,159.602541
150.444631,159.610027
150.381817,159.631393
150.327925,159.666191
150.281485,159.715565
150.246638,159.773299
150.220216,159.843832
150.203114,159.929704
150.196946,160.033935
150.008360,160.033935
150.008360,159.473581
150.196946,159.473581
150.196946,159.643574
150.240524,159.581231
150.290272,159.531792
150.346606,159.493823
150.409175,159.466998
150.481286,159.450186
150.564776,159.444272
Z" /> 
<path style="fill:#000000; fill-opacity:1.000000; stroke:none;fill-rule:evenodd;"
d="M 149.620014,159.473581
149.431428,159.473581
149.431428,160.622500
149.620014,160.622500
Z" /> 
<path style="fill:#000000; fill-opacity:1.000000; stroke:none;fill-rule:evenodd;"
d="M 149.620014,159.028082
149.431428,159.028082
149.431428,159.268417
149.620014,159.268417
Z" /> 
<path style="fill:#000000; fill-opacity:1.000000; stroke:none;fill-rule:evenodd;"
d="M 148.850283,159.145319
148.850283,159.473581
148.461936,159.473581
148.461936,159.620127
148.850283,159.620127
148.850283,160.243679
148.844421,160.338150
148.830360,160.393984
148.811906,160.424205
148.782918,160.444052
148.733837,160.458423
148.655560,160.464230
148.461936,160.464230
148.461936,160.622500
148.655560,160.622500
148.768708,160.615906
148.852595,160.598471
148.913561,160.572952
148.956803,160.540892
148.989494,160.498163
149.015422,160.437984
149.033103,160.355248
149.039784,160.243679
149.039784,159.620127
149.178179,159.620127
149.178179,159.473581
149.039784,159.473581
149.039784,159.145319
Z" /> 
<path style="fill:#000000; fill-opacity:1.000000; stroke:none;fill-rule:evenodd;"
d="M 147.260628,159.927140
147.260628,160.622500
147.449214,160.622500
147.449214,159.933368
147.457537,159.826124
147.479676,159.746975
147.512778,159.689370
147.560495,159.645459
147.622477,159.618233
147.703288,159.608403
147.778347,159.614997
147.842192,159.633736
147.896936,159.663887
147.944081,159.705856
147.981324,159.756711
148.008724,159.816668
148.026043,159.887479
148.032191,159.971379
148.032191,160.622500
148.221785,160.622500
148.221785,159.028082
148.032191,159.028082
148.032191,159.649436
147.982985,159.584816
147.929981,159.533967
147.872914,159.495288
147.809928,159.467393
147.739844,159.450220
147.661247,159.444272
147.563595,159.452805
147.483282,159.476708
147.416918,159.514617
147.362111,159.566821
147.320458,159.629904
147.288767,159.708635
147.268125,159.806363
Z" /> 
<path style="fill:#000000; fill-opacity:1.000000; stroke:none;fill-rule:evenodd;"
d="M 146.903423,160.169490
146.903423,159.473581
146.714928,159.473581
146.714928,160.162346
146.706631,160.269343
146.684534,160.348526
146.651456,160.406345
146.603652,160.450472
146.541607,160.477811
146.460763,160.487677
146.385692,160.481106
146.321754,160.462422
146.266857,160.432352
146.219512,160.390499
146.182008,160.339651
146.154442,160.279752
146.137031,160.209060
146.130852,160.125343
146.130852,159.473581
145.942266,159.473581
145.942266,160.622500
146.130852,160.622500
146.130852,160.446645
146.180759,160.512002
146.233802,160.562981
146.290221,160.601342
146.352473,160.628892
146.422172,160.645902
146.500788,160.651809
146.598404,160.643278
146.678926,160.619350
146.745683,160.581355
146.801024,160.528985
146.843145,160.465607
146.875113,160.386853
146.895890,160.289464
Z" /> 
<path style="fill:#000000; fill-opacity:1.000000; stroke:none;fill-rule:evenodd;"
d="M 145.560515,160.622500
145.370921,160.622500
145.370921,160.452506
145.326691,160.515540
145.276776,160.565119
145.220803,160.602807
145.158570,160.629340
145.086935,160.645964
145.004099,160.651809
144.903475,160.641188
144.814953,160.610356
144.735841,160.559206
144.664479,160.485479
144.609300,160.399662
144.568576,160.299920
144.542868,160.183740
144.533779,160.048040
144.729509,160.048040
144.735693,160.153601
144.752919,160.241482
144.779657,160.314496
144.815055,160.375020
144.862327,160.427307
144.916245,160.463727
144.978122,160.485848
145.050169,160.493539
145.122265,160.485847
145.184172,160.463722
145.238103,160.427302
145.285375,160.375020
145.320773,160.314496
145.347511,160.241482
145.364737,160.153601
145.370921,160.048040
145.364736,159.942476
145.347508,159.854613
145.320770,159.781632
145.285375,159.721152
145.238097,159.668825
145.184164,159.632378
145.122259,159.610239
145.050169,159.602541
144.978128,159.610237
144.916253,159.632373
144.862333,159.668819
144.815055,159.721152
144.779660,159.781632
144.752922,159.854613
144.735694,159.942476
144.729509,160.048040
144.533779,160.048040
144.542868,159.912340
144.568576,159.796161
144.609300,159.696419
144.664479,159.610601
144.735841,159.536875
144.814953,159.485725
144.903475,159.454893
145.004099,159.444272
145.086930,159.450127
145.158565,159.466781
145.220803,159.493365
145.276772,159.531000
145.326687,159.580547
145.370921,159.643574
145.370921,159.028082
145.560515,159.028082
Z" /> 
<path style="fill:#000000; fill-opacity:1.000000; stroke:none;fill-rule:evenodd;"
d="M 144.194617,160.364579
143.978370,160.364579
143.978370,160.622500
144.194617,160.622500
Z" /> 
<path style="fill:#000000; fill-opacity:1.000000; stroke:none;fill-rule:evenodd;"
d="M 142.728610,159.514614
142.728610,159.690469
142.809574,159.651635
142.888986,159.624523
142.969957,159.608015
143.051377,159.602541
143.141580,159.610527
143.217427,159.633120
143.281664,159.669323
143.336226,159.719595
143.378576,159.780353
143.410165,159.853592
143.430376,159.941795
143.437617,160.048040
143.430376,160.154285
143.410165,160.242488
143.378576,160.315728
143.336226,160.376486
143.281664,160.426758
143.217427,160.462961
143.141580,160.485553
143.051377,160.493539
142.969957,160.488066
142.888986,160.471557
142.809574,160.444445
142.728610,160.405612
142.728610,160.581467
142.808890,160.612241
142.892009,160.634223
142.978142,160.647303
143.071894,160.651809
143.175516,160.644689
143.266814,160.624285
143.347673,160.591491
143.419629,160.546460
143.483779,160.488593
143.548700,160.402938
143.596128,160.302933
143.625927,160.185824
143.636461,160.048040
143.625750,159.908050
143.595556,159.790045
143.547673,159.690172
143.482313,159.605472
143.417817,159.548734
143.344738,159.504306
143.261851,159.471758
143.167488,159.451402
143.059620,159.444272
142.973278,159.448696
142.889536,159.461857
142.807826,159.483820
Z" /> 
<path style="fill:#000000; fill-opacity:1.000000; stroke:none;fill-rule:evenodd;"
d="M 142.077715,159.455121
142.180439,159.485914
142.268132,159.535447
142.343287,159.604465
142.401967,159.687746
142.445516,159.787198
142.473248,159.905981
142.483146,160.048040
142.473270,160.189528
142.445570,160.308091
142.402024,160.407602
142.343287,160.491158
142.268103,160.560394
142.180399,160.610064
142.077685,160.640935
141.956406,160.651809
141.835727,160.640960
141.733280,160.610129
141.645574,160.560462
141.570167,160.491158
141.511179,160.407566
141.467465,160.308043
141.439668,160.189492
141.429757,160.048040
141.629609,160.048040
141.635918,160.152223
141.653558,160.239560
141.681077,160.312714
141.717720,160.373921
141.766271,160.426764
141.821233,160.463527
141.883895,160.485811
141.956406,160.493539
142.030076,160.485790
142.093347,160.463516
142.148450,160.426906
142.196741,160.374471
142.233090,160.313535
142.260443,160.240423
142.278010,160.152836
142.284302,160.048040
142.277973,159.943276
142.260303,159.855719
142.232782,159.782627
142.196191,159.721701
142.147674,159.669149
142.092561,159.632516
142.029532,159.610268
141.956406,159.602541
141.883930,159.610297
141.821280,159.632667
141.766305,159.669593
141.717720,159.722709
141.681027,159.784153
141.653511,159.857336
141.635900,159.944434
141.629609,160.048040
141.429757,160.048040
141.439689,159.906017
141.467520,159.787247
141.511236,159.687781
141.570167,159.604465
141.645545,159.535380
141.733240,159.485850
141.835697,159.455095
141.956406,159.444272
Z" /> 
<path style="fill:#000000; fill-opacity:1.000000; stroke:none;fill-rule:evenodd;"
d="M 140.223869,159.691568
140.171453,159.611636
140.115140,159.550205
140.054792,159.504631
139.986888,159.471666
139.910323,159.451341
139.823250,159.444272
139.735753,159.452717
139.662202,159.476687
139.599782,159.515409
139.546645,159.569843
139.506512,159.634219
139.476096,159.713167
139.456396,159.809633
139.449284,159.927140
139.449284,160.622500
139.638786,160.622500
139.638786,159.933368
139.646564,159.824263
139.667053,159.744944
139.697221,159.688362
139.741609,159.644859
139.799549,159.618063
139.875457,159.608403
139.947242,159.614940
140.008531,159.633571
140.061347,159.663688
140.107091,159.705856
140.152764,159.775373
140.181667,159.862301
140.192087,159.971379
140.192087,160.622500
140.381681,160.622500
140.381681,159.933368
140.389487,159.823556
140.410000,159.744160
140.440116,159.687904
140.484524,159.644788
140.543090,159.618077
140.620459,159.608403
140.691080,159.614929
140.751677,159.633577
140.804200,159.663822
140.849986,159.706314
140.895721,159.776152
140.924596,159.862978
140.934982,159.971379
140.934982,160.622500
141.124576,160.622500
141.124576,159.473581
140.934982,159.473581
140.934982,159.649436
140.887505,159.583587
140.836024,159.532491
140.780285,159.494281
140.718307,159.467132
140.647499,159.450203
140.566145,159.444272
140.484854,159.451716
140.414712,159.473031
140.353562,159.507653
140.301387,159.554869
140.258173,159.615393
Z" /> 
<path style="fill:#000000; fill-opacity:1.000000; stroke:none;fill-rule:evenodd;"
d="M 138.737988,159.092562
138.563873,159.092562
139.096658,160.815940
139.270864,160.815940
Z" /> 
<path style="fill:#000000; fill-opacity:1.000000; stroke:none;fill-rule:evenodd;"
d="M 137.989231,159.451480
138.080093,159.472154
138.160668,159.505425
138.232481,159.551197
138.296610,159.610143
138.361153,159.696907
138.408435,159.798492
138.438205,159.917739
138.448743,160.058299
138.441657,160.168131
138.421401,160.264591
138.388994,160.349641
138.344770,160.424910
138.288367,160.491616
138.221624,160.547896
138.146194,160.592062
138.060837,160.624454
137.963902,160.644716
137.853401,160.651809
137.744456,160.646166
137.637246,160.629277
137.532058,160.601753
137.429151,160.563881
137.429151,160.388026
137.530851,160.434541
137.631567,160.467161
137.734787,160.486895
137.842135,160.493539
137.935427,160.486325
138.013592,160.466037
138.079323,160.433925
138.134677,160.390133
138.179400,160.335582
138.214246,160.268874
138.238874,160.187692
138.252005,160.089073
137.385096,160.089073
137.385096,159.997482
137.389141,159.942527
137.573682,159.942527
138.245869,159.943535
138.226143,159.839447
138.189462,159.757040
138.136784,159.691934
138.068710,159.643376
137.985873,159.613251
137.884176,159.602541
137.795324,159.613340
137.721869,159.644150
137.660235,159.695048
137.614261,159.761231
137.585032,159.842391
137.573682,159.942527
137.389141,159.942527
137.394478,159.870011
137.420929,159.762245
137.462822,159.670821
137.519826,159.593107
137.591915,159.528932
137.675358,159.482889
137.772396,159.454314
137.886191,159.444272
Z" /> 
<path style="fill:#000000; fill-opacity:1.000000; stroke:none;fill-rule:evenodd;"
d="M 137.075701,159.028082
136.887115,159.028082
136.887115,160.622500
137.075701,160.622500
Z" /> 
<path style="fill:#000000; fill-opacity:1.000000; stroke:none;fill-rule:evenodd;"
d="M 136.114911,159.451480
136.205773,159.472154
136.286349,159.505425
136.358162,159.551197
136.422291,159.610143
136.486833,159.696907
136.534115,159.798492
136.563885,159.917739
136.574423,160.058299
136.567337,160.168131
136.547082,160.264591
136.514675,160.349641
136.470451,160.424910
136.414047,160.491616
136.347305,160.547896
136.271874,160.592062
136.186517,160.624454
136.089583,160.644716
135.979081,160.651809
135.870136,160.646166
135.762926,160.629277
135.657739,160.601753
135.554832,160.563881
135.554832,160.388026
135.656532,160.434541
135.757248,160.467161
135.860467,160.486895
135.967816,160.493539
136.061108,160.486325
136.139272,160.466037
136.205003,160.433925
136.260358,160.390133
136.305080,160.335582
136.339927,160.268874
136.364555,160.187692
136.377686,160.089073
135.510776,160.089073
135.510776,159.997482
135.514821,159.942527
135.699362,159.942527
136.371549,159.943535
136.351823,159.839447
136.315142,159.757040
136.262464,159.691934
136.194390,159.643376
136.111554,159.613251
136.009856,159.602541
135.921005,159.613340
135.847550,159.644150
135.785916,159.695048
135.739941,159.761231
135.710712,159.842391
135.699362,159.942527
135.514821,159.942527
135.520158,159.870011
135.546609,159.762245
135.588503,159.670821
135.645507,159.593107
135.717596,159.528932
135.801038,159.482889
135.898076,159.454314
136.011871,159.444272
Z" /> 
<path style="fill:#000000; fill-opacity:1.000000; stroke:none;fill-rule:evenodd;"
d="M 134.375505,159.514614
134.375505,159.690469
134.456468,159.651635
134.535881,159.624523
134.616851,159.608015
134.698272,159.602541
134.788475,159.610527
134.864322,159.633120
134.928559,159.669323
134.983120,159.719595
135.025471,159.780353
135.057060,159.853592
135.077271,159.941795
135.084511,160.048040
135.077271,160.154285
135.057060,160.242488
135.025471,160.315728
134.983120,160.376486
134.928559,160.426758
134.864322,160.462961
134.788475,160.485553
134.698272,160.493539
134.616851,160.488066
134.535881,160.471557
134.456468,160.444445
134.375505,160.405612
134.375505,160.581467
134.455784,160.612241
134.538903,160.634223
134.625037,160.647303
134.718788,160.651809
134.822411,160.644689
134.913708,160.624285
134.994568,160.591491
135.066523,160.546460
135.130673,160.488593
135.195595,160.402938
135.243023,160.302933
135.272822,160.185824
135.283356,160.048040
135.272644,159.908050
135.242451,159.790045
135.194568,159.690172
135.129208,159.605472
135.064711,159.548734
134.991632,159.504306
134.908745,159.471758
134.814383,159.451402
134.706515,159.444272
134.620173,159.448696
134.536431,159.461857
134.454721,159.483820
Z" /> 
<path style="fill:#000000; fill-opacity:1.000000; stroke:none;fill-rule:evenodd;"
d="M 133.861588,159.145319
133.861588,159.473581
133.473241,159.473581
133.473241,159.620127
133.861588,159.620127
133.861588,160.243679
133.855726,160.338150
133.841665,160.393984
133.823211,160.424205
133.794223,160.444052
133.745142,160.458423
133.666865,160.464230
133.473241,160.464230
133.473241,160.622500
133.666865,160.622500
133.780013,160.615906
133.863900,160.598471
133.924866,160.572952
133.968108,160.540892
134.000799,160.498163
134.026727,160.437984
134.044408,160.355248
134.051089,160.243679
134.051089,159.620127
134.189484,159.620127
134.189484,159.473581
134.051089,159.473581
134.051089,159.145319
Z" /> 
<path style="fill:#000000; fill-opacity:1.000000; stroke:none;fill-rule:evenodd;"
d="M 132.560903,159.649436
132.630054,159.622875
132.712578,159.614265
132.791128,159.621363
132.856640,159.641389
132.911660,159.673431
132.957950,159.717946
132.993293,159.771366
133.019992,159.837016
133.037260,159.917414
133.043496,160.015617
133.043496,160.622500
133.233090,160.622500
133.233090,159.473581
133.043496,159.473581
133.043496,159.649436
132.998906,159.584791
132.947502,159.533767
132.888799,159.494830
132.823384,159.467584
132.746912,159.450367
132.657257,159.444272
132.614209,159.447203
132.561910,159.455996
Z" /> 
<path style="fill:#000000; fill-opacity:1.000000; stroke:none;fill-rule:evenodd;"
d="M 132.362791,159.473581
132.174205,159.473581
132.174205,160.622500
132.362791,160.622500
Z" /> 
<path style="fill:#000000; fill-opacity:1.000000; stroke:none;fill-rule:evenodd;"
d="M 132.362791,159.028082
132.174205,159.028082
132.174205,159.268417
132.362791,159.268417
Z" /> 
<path style="fill:#000000; fill-opacity:1.000000; stroke:none;fill-rule:evenodd;"
d="M 130.852180,159.473581
130.852180,160.622500
131.041773,160.622500
131.041773,159.620127
131.559171,159.620127
131.559171,160.622500
131.748765,160.622500
131.748765,159.620127
131.929108,159.620127
131.929108,159.473581
131.748765,159.473581
131.748765,159.393897
131.742199,159.299337
131.724203,159.224064
131.696595,159.164412
131.660105,159.117475
131.613435,159.080540
131.554508,159.052720
131.480560,159.034655
131.388079,159.028082
131.198486,159.028082
131.198486,159.186352
131.378828,159.186352
131.445502,159.191931
131.490466,159.206251
131.519787,159.227018
131.539755,159.256951
131.553700,159.303474
131.559171,159.373106
131.559171,159.473581
Z" /> 
<path style="fill:#000000; fill-opacity:1.000000; stroke:none;fill-rule:evenodd;"
d="M 131.041773,159.028082
130.852180,159.028082
130.852180,159.268417
131.041773,159.268417
Z" /> 
<path style="fill:#000000; fill-opacity:1.000000; stroke:none;fill-rule:evenodd;"
d="M 130.080159,159.451480
130.171021,159.472154
130.251596,159.505425
130.323409,159.551197
130.387538,159.610143
130.452081,159.696907
130.499363,159.798492
130.529133,159.917739
130.539671,160.058299
130.532585,160.168131
130.512329,160.264591
130.479922,160.349641
130.435699,160.424910
130.379295,160.491616
130.312552,160.547896
130.237122,160.592062
130.151765,160.624454
130.054830,160.644716
129.944329,160.651809
129.835384,160.646166
129.728174,160.629277
129.622986,160.601753
129.520079,160.563881
129.520079,160.388026
129.621779,160.434541
129.722496,160.467161
129.825715,160.486895
129.933063,160.493539
130.026355,160.486325
130.104520,160.466037
130.170251,160.433925
130.225605,160.390133
130.270328,160.335582
130.305174,160.268874
130.329803,160.187692
130.342933,160.089073
129.476024,160.089073
129.476024,159.997482
129.480069,159.942527
129.664610,159.942527
130.336797,159.943535
130.317071,159.839447
130.280390,159.757040
130.227712,159.691934
130.159638,159.643376
130.076801,159.613251
129.975104,159.602541
129.886252,159.613340
129.812797,159.644150
129.751164,159.695048
129.705189,159.761231
129.675960,159.842391
129.664610,159.942527
129.480069,159.942527
129.485406,159.870011
129.511857,159.762245
129.553750,159.670821
129.610754,159.593107
129.682843,159.528932
129.766286,159.482889
129.863324,159.454314
129.977119,159.444272
Z" /> 
<path style="fill:#000000; fill-opacity:1.000000; stroke:none;fill-rule:evenodd;"
d="M 128.411461,159.643574
128.455695,159.580547
128.505610,159.531000
128.561579,159.493365
128.623827,159.466812
128.695776,159.450143
128.779291,159.444272
128.879381,159.454871
128.967590,159.485669
129.046582,159.536813
129.117995,159.610601
129.173132,159.696413
129.213828,159.796153
129.239520,159.912335
129.248603,160.048040
129.239520,160.183746
129.213828,160.299928
129.173132,160.399667
129.117995,160.485479
129.046582,160.559268
128.967590,160.610412
128.879381,160.641209
128.779291,160.651809
128.695771,160.645948
128.623822,160.629309
128.561579,160.602807
128.505606,160.565119
128.455691,160.515540
128.411461,160.452506
128.411461,160.622500
128.222875,160.622500
128.222875,160.048040
128.411461,160.048040
128.417681,160.153565
128.435008,160.241434
128.461914,160.314461
128.497557,160.375020
128.545045,160.427315
128.599131,160.463737
128.661125,160.485853
128.733220,160.493539
128.805267,160.485848
128.867145,160.463727
128.921062,160.427307
128.968335,160.375020
129.003733,160.314496
129.030471,160.241482
129.047697,160.153601
129.053881,160.048040
129.047695,159.942476
129.030468,159.854613
129.003730,159.781632
128.968335,159.721152
128.921056,159.668819
128.867137,159.632373
128.805261,159.610237
128.733220,159.602541
128.661131,159.610232
128.599139,159.632363
128.545051,159.668812
128.497557,159.721152
128.461918,159.781667
128.435011,159.854660
128.417682,159.942512
128.411461,160.048040
128.222875,160.048040
128.222875,159.028082
128.411461,159.028082
Z" /> 
<path style="fill:#000000; fill-opacity:1.000000; stroke:none;fill-rule:evenodd;"
d="M 127.499397,159.092562
127.325283,159.092562
127.858068,160.815940
128.032274,160.815940
Z" /> 
<path style="fill:#000000; fill-opacity:1.000000; stroke:none;fill-rule:evenodd;"
d="M 126.463136,159.649436
126.532287,159.622875
126.614811,159.614265
126.693361,159.621363
126.758873,159.641389
126.813893,159.673431
126.860183,159.717946
126.895527,159.771366
126.922225,159.837016
126.939493,159.917414
126.945729,160.015617
126.945729,160.622500
127.135323,160.622500
127.135323,159.473581
126.945729,159.473581
126.945729,159.649436
126.901139,159.584791
126.849736,159.533767
126.791032,159.494830
126.725617,159.467584
126.649145,159.450367
126.559490,159.444272
126.516442,159.447203
126.464143,159.455996
Z" /> 
<path style="fill:#000000; fill-opacity:1.000000; stroke:none;fill-rule:evenodd;"
d="M 125.486042,159.514614
125.486042,159.690469
125.567006,159.651635
125.646418,159.624523
125.727388,159.608015
125.808809,159.602541
125.899012,159.610527
125.974859,159.633120
126.039096,159.669323
126.093657,159.719595
126.136008,159.780353
126.167597,159.853592
126.187808,159.941795
126.195049,160.048040
126.187808,160.154285
126.167597,160.242488
126.136008,160.315728
126.093657,160.376486
126.039096,160.426758
125.974859,160.462961
125.899012,160.485553
125.808809,160.493539
125.727388,160.488066
125.646418,160.471557
125.567006,160.444445
125.486042,160.405612
125.486042,160.581467
125.566322,160.612241
125.649441,160.634223
125.735574,160.647303
125.829326,160.651809
125.932948,160.644689
126.024246,160.624285
126.105105,160.591491
126.177061,160.546460
126.241211,160.488593
126.306132,160.402938
126.353560,160.302933
126.383359,160.185824
126.393893,160.048040
126.383182,159.908050
126.352988,159.790045
126.305105,159.690172
126.239745,159.605472
126.175249,159.548734
126.102170,159.504306
126.019283,159.471758
125.924920,159.451402
125.817052,159.444272
125.730710,159.448696
125.646968,159.461857
125.565258,159.483820
Z" /> 
<path style="fill:#000000; fill-opacity:1.000000; stroke:none;fill-rule:evenodd;"
d="M 125.165748,160.622500
124.976155,160.622500
124.976155,160.452506
124.931925,160.515540
124.882010,160.565119
124.826037,160.602807
124.763804,160.629340
124.692169,160.645964
124.609333,160.651809
124.508708,160.641188
124.420187,160.610356
124.341075,160.559206
124.269713,160.485479
124.214534,160.399662
124.173810,160.299920
124.148102,160.183740
124.139013,160.048040
124.334743,160.048040
124.340927,160.153601
124.358153,160.241482
124.384890,160.314496
124.420289,160.375020
124.467561,160.427307
124.521478,160.463727
124.583356,160.485848
124.655403,160.493539
124.727499,160.485847
124.789406,160.463722
124.843337,160.427302
124.890609,160.375020
124.926007,160.314496
124.952745,160.241482
124.969971,160.153601
124.976155,160.048040
124.969969,159.942476
124.952742,159.854613
124.926004,159.781632
124.890609,159.721152
124.843331,159.668825
124.789398,159.632378
124.727493,159.610239
124.655403,159.602541
124.583362,159.610237
124.521486,159.632373
124.467567,159.668819
124.420289,159.721152
124.384894,159.781632
124.358156,159.854613
124.340928,159.942476
124.334743,160.048040
124.139013,160.048040
124.148102,159.912340
124.173810,159.796161
124.214534,159.696419
124.269713,159.610601
124.341075,159.536875
124.420187,159.485725
124.508708,159.454893
124.609333,159.444272
124.692164,159.450127
124.763798,159.466781
124.826037,159.493365
124.882006,159.531000
124.931921,159.580547
124.976155,159.643574
124.976155,159.028082
125.165748,159.028082
Z" /> 
<path style="fill:#000000; fill-opacity:1.000000; stroke:none;fill-rule:evenodd;"
d="M 123.845921,160.169490
123.845921,159.473581
123.657427,159.473581
123.657427,160.162346
123.649129,160.269343
123.627033,160.348526
123.593954,160.406345
123.546150,160.450472
123.484106,160.477811
123.403261,160.487677
123.328191,160.481106
123.264252,160.462422
123.209355,160.432352
123.162011,160.390499
123.124506,160.339651
123.096940,160.279752
123.079529,160.209060
123.073350,160.125343
123.073350,159.473581
122.884764,159.473581
122.884764,160.622500
123.073350,160.622500
123.073350,160.446645
123.123258,160.512002
123.176300,160.562981
123.232719,160.601342
123.294972,160.628892
123.364671,160.645902
123.443287,160.651809
123.540902,160.643278
123.621425,160.619350
123.688181,160.581355
123.743522,160.528985
123.785644,160.465607
123.817611,160.386853
123.838388,160.289464
Z" /> 
<path style="fill:#000000; fill-opacity:1.000000; stroke:none;fill-rule:evenodd;"
d="M 121.764239,159.508752
121.764239,159.684607
121.845885,159.648647
121.930294,159.623058
122.017402,159.607723
122.108530,159.602541
122.201814,159.608302
122.270114,159.623461
122.319098,159.645589
122.358146,159.679086
122.381178,159.721099
122.389257,159.774458
122.383496,159.815602
122.366954,159.849271
122.339065,159.877315
122.275025,159.909592
122.137198,159.948481
122.072626,159.962769
121.940480,159.999431
121.848556,160.040631
121.787320,160.084677
121.741422,160.142173
121.712962,160.213943
121.702782,160.304221
121.710975,160.381504
121.734583,160.448218
121.773493,160.506657
121.829361,160.558203
121.894067,160.597036
121.971874,160.626277
122.065270,160.645071
122.177223,160.651809
122.270125,160.647163
122.369290,160.632758
122.469970,160.609465
122.579858,160.575605
122.579858,160.382165
122.474599,160.431511
122.373961,160.465696
122.272310,160.486674
122.173102,160.493539
122.084974,160.487569
122.018163,160.471575
121.968121,160.447652
121.927862,160.412366
121.904474,160.370034
121.896405,160.318234
121.902567,160.269182
121.919862,160.230502
121.948154,160.199715
121.986261,160.177130
122.056969,160.150637
122.175117,160.120306
122.240696,160.105010
122.355260,160.072958
122.437217,160.034705
122.493854,159.991803
122.536103,159.936441
122.562336,159.867890
122.571706,159.782335
122.564013,159.703472
122.542152,159.637065
122.506777,159.580583
122.456943,159.532383
122.398157,159.496070
122.326114,159.468539
122.238144,159.450709
122.131062,159.444272
122.028258,159.448415
121.934324,159.460392
121.844574,159.480859
Z" /> 
<path style="fill:#000000; fill-opacity:1.000000; stroke:none;fill-rule:evenodd;"
d="M 121.497892,159.960113
120.945598,159.960113
120.945598,160.130106
121.497892,160.130106
Z" /> 
<path style="fill:#000000; fill-opacity:1.000000; stroke:none;fill-rule:evenodd;"
d="M 120.205543,160.726089
120.265949,160.861813
120.317500,160.946114
120.361339,160.993718
120.415144,161.027361
120.481658,161.048631
120.564213,161.056275
120.714880,161.056275
120.714880,160.898005
120.604147,160.898005
120.532465,160.888108
120.483247,160.861552
120.443766,160.810549
120.387992,160.689361
120.354195,160.603265
120.818378,159.473581
120.618527,159.473581
120.259856,160.372181
119.901277,159.473581
119.701425,159.473581
Z" /> 
<path style="fill:#000000; fill-opacity:1.000000; stroke:none;fill-rule:evenodd;"
d="M 118.546828,159.691568
118.494412,159.611636
118.438099,159.550205
118.377751,159.504631
118.309847,159.471666
118.233282,159.451341
118.146209,159.444272
118.058712,159.452717
117.985161,159.476687
117.922741,159.515409
117.869604,159.569843
117.829471,159.634219
117.799055,159.713167
117.779355,159.809633
117.772243,159.927140
117.772243,160.622500
117.961745,160.622500
117.961745,159.933368
117.969523,159.824263
117.990012,159.744944
118.020180,159.688362
118.064568,159.644859
118.122507,159.618063
118.198416,159.608403
118.270201,159.614940
118.331490,159.633571
118.384305,159.663688
118.430050,159.705856
118.475722,159.775373
118.504626,159.862301
118.515046,159.971379
118.515046,160.622500
118.704640,160.622500
118.704640,159.933368
118.712446,159.823556
118.732959,159.744160
118.763075,159.687904
118.807483,159.644788
118.866049,159.618077
118.943418,159.608403
119.014039,159.614929
119.074636,159.633577
119.127159,159.663822
119.172945,159.706314
119.218680,159.776152
119.247555,159.862978
119.257941,159.971379
119.257941,160.622500
119.447535,160.622500
119.447535,159.473581
119.257941,159.473581
119.257941,159.649436
119.210464,159.583587
119.158983,159.532491
119.103244,159.494281
119.041265,159.467132
118.970458,159.450203
118.889104,159.444272
118.807813,159.451716
118.737671,159.473031
118.676521,159.507653
118.624346,159.554869
118.581132,159.615393
Z" /> 
<path style="fill:#000000; fill-opacity:1.000000; stroke:none;fill-rule:evenodd;"
d="M 116.815024,159.028082
116.815024,159.186352
116.995367,159.186352
117.062041,159.191931
117.107004,159.206251
117.136326,159.227018
117.156294,159.256951
117.170239,159.303474
117.175710,159.373106
117.175710,159.473581
116.865308,159.473581
116.865308,159.620127
117.175710,159.620127
117.175710,160.622500
117.365303,160.622500
117.365303,159.620127
117.545646,159.620127
117.545646,159.473581
117.365303,159.473581
117.365303,159.394446
117.358620,159.297441
117.340408,159.221206
117.312654,159.161680
117.276185,159.115643
117.229459,159.079898
117.169052,159.052607
117.091705,159.034668
116.993352,159.028082
Z" /> 
<path style="fill:#000000; fill-opacity:1.000000; stroke:none;fill-rule:evenodd;"
d="M 116.452507,160.446645
115.730128,160.446645
115.730128,160.622500
116.701543,160.622500
116.701543,160.446645
116.380333,160.119665
116.124702,159.855150
116.035404,159.745523
115.985850,159.666380
115.955876,159.588314
115.946375,159.514431
115.956200,159.437038
115.984527,159.371825
116.031921,159.315861
116.092962,159.274094
116.166149,159.248252
116.254762,159.239108
116.352884,159.247153
116.460292,159.272539
116.568800,159.313168
116.691285,159.373930
116.691285,159.162904
116.567488,159.118684
116.457728,159.088441
116.350958,159.069207
116.258883,159.063253
116.140048,159.071546
116.039116,159.094944
115.953149,159.131956
115.879788,159.182138
115.818036,159.246419
115.774409,159.319465
115.747683,159.403036
115.738371,159.499776
115.747268,159.591914
115.773726,159.678654
115.819547,159.764483
115.902319,159.877956
116.065260,160.049597
Z" /> 
<path style="fill:#000000; fill-opacity:1.000000; stroke:none;fill-rule:evenodd;"
d="M 114.853502,159.072354
114.954830,159.098620
115.045592,159.141346
115.127483,159.200989
115.201556,159.279133
115.260912,159.366781
115.308338,159.466598
115.343595,159.580310
115.365838,159.710006
115.373656,159.858080
115.366842,160.019578
115.347816,160.156190
115.318394,160.271246
115.279947,160.367744
115.233338,160.448293
115.171894,160.521833
115.102011,160.577898
115.022645,160.618175
114.931966,160.643099
114.827498,160.651809
114.713434,160.642181
114.615421,160.614735
114.530538,160.570529
114.456646,160.509110
114.396870,160.433791
114.353636,160.347097
114.326706,160.246841
114.317244,160.130106
114.525248,160.130106
114.535266,160.237565
114.563024,160.323186
114.606764,160.391598
114.650722,160.433353
114.701196,160.463015
114.759483,160.481285
114.827498,160.487677
114.895562,160.481285
114.953896,160.463014
115.004415,160.433351
115.048416,160.391598
115.092103,160.323193
115.119831,160.237572
115.129840,160.130106
115.119798,160.021959
115.092042,159.936238
115.048416,159.868155
115.004444,159.826623
114.953935,159.797097
114.895591,159.778902
114.827498,159.772534
114.759454,159.778902
114.701157,159.797096
114.650693,159.826622
114.606764,159.868155
114.563085,159.936245
114.535300,160.021966
114.525248,160.130106
114.317244,160.130106
114.326492,160.010170
114.352615,159.908630
114.394145,159.822271
114.450967,159.748629
114.522038,159.688514
114.604772,159.645069
114.701458,159.617960
114.815225,159.608403
114.887124,159.613837
114.953754,159.629786
115.016084,159.656122
115.073139,159.692323
115.123497,159.737696
115.167667,159.793051
115.152225,159.650688
115.125205,159.537015
115.088757,159.447132
115.044203,159.376861
114.985296,159.317527
114.915174,159.275007
114.831577,159.248499
114.731144,159.239108
114.653328,159.243570
114.573883,159.257151
114.495275,159.279111
114.416621,159.309450
114.416621,159.121871
114.502313,159.095890
114.582126,159.077908
114.661491,159.066885
114.739388,159.063253
Z" /> 
<path style="fill:#000000; fill-opacity:1.000000; stroke:none;fill-rule:evenodd;"
d="M 113.782444,160.446645
113.060065,160.446645
113.060065,160.622500
114.031480,160.622500
114.031480,160.446645
113.710270,160.119665
113.454640,159.855150
113.365341,159.745523
113.315788,159.666380
113.285813,159.588314
113.276312,159.514431
113.286138,159.437038
113.314464,159.371825
113.361858,159.315861
113.422899,159.274094
113.496086,159.248252
113.584699,159.239108
113.682821,159.247153
113.790229,159.272539
113.898737,159.313168
114.021222,159.373930
114.021222,159.162904
113.897426,159.118684
113.787665,159.088441
113.680895,159.069207
113.588821,159.063253
113.469985,159.071546
113.369053,159.094944
113.283086,159.131956
113.209725,159.182138
113.147973,159.246419
113.104346,159.319465
113.077620,159.403036
113.068309,159.499776
113.077206,159.591914
113.103663,159.678654
113.149484,159.764483
113.232257,159.877956
113.395197,160.049597
Z" /> 
</g> 
</svg>
