<?xml version="1.0" standalone="no"?>
 <!DOCTYPE svg PUBLIC "-//W3C//DTD SVG 1.1//EN" 
 "http://www.w3.org/Graphics/SVG/1.1/DTD/svg11.dtd"> 
<svg
  xmlns:svg="http://www.w3.org/2000/svg"
  xmlns="http://www.w3.org/2000/svg"
  xmlns:xlink="http://www.w3.org/1999/xlink"
  version="1.1"
  width="10.215000000000002cm" height="5.215cm" viewBox="59.425 113.425 102.15 52.15">
<title>SVG Image created as rcbus-ymf262-B_SilkS.svg date 2025/09/02 22:40:58 </title>
  <desc>Image generated by PCBNEW </desc>
<g style="fill:#000000; fill-opacity:1.000000;stroke:#000000; stroke-opacity:1.000000;
stroke-linecap:round; stroke-linejoin:round;"
 transform="translate(0 0) scale(1 1)">
<path style="fill:#000000; fill-opacity:1.000000; stroke:none;fill-rule:evenodd;"
d="M 149.791165,159.499054
149.877617,159.512967
149.948093,159.534214
150.013125,159.566626
150.064267,159.607145
150.103523,159.656031
150.131163,159.712577
150.148722,159.780605
150.154998,159.862660
150.150716,159.925907
150.137962,159.986949
150.115355,160.044714
150.081267,160.098690
150.035922,160.145358
149.975021,160.185702
150.030934,160.203863
150.075873,160.229681
150.111675,160.263005
150.138453,160.303594
150.154794,160.350446
150.160493,160.405245
150.150573,160.470141
150.121018,160.527546
150.069268,160.579818
150.044437,160.593819
150.107174,160.628642
150.166263,160.684323
150.195043,160.729132
150.212509,160.779968
150.218562,160.838471
150.218562,160.872360
150.212914,160.928905
150.196686,160.977709
150.170110,161.020371
150.113921,161.072921
150.037853,161.112329
149.950701,161.135432
149.848992,161.143561
149.510471,161.143561
149.398963,161.136409
149.310437,161.116867
149.240602,161.087086
149.185964,161.048123
149.140748,160.997091
149.108177,160.937524
149.087882,160.867730
149.080726,160.785348
149.080726,160.769686
149.375741,160.769686
149.375741,160.802201
149.381205,160.840791
149.396633,160.870897
149.422361,160.894617
149.474174,160.917007
149.547291,160.925391
149.761431,160.925391
149.834238,160.916636
149.881965,160.893884
149.904772,160.870141
149.918680,160.840069
149.923638,160.801652
149.923638,160.777105
149.918376,160.737924
149.903580,160.707313
149.879906,160.682974
149.847618,160.664815
149.810106,160.654199
149.765369,160.650435
149.538864,160.650435
149.484365,160.654404
149.445899,160.664723
149.414252,160.682573
149.393051,160.705298
149.380286,160.733695
149.375741,160.769686
149.080726,160.769686
149.080726,160.755673
149.086771,160.675169
149.103440,160.610515
149.129269,160.558661
149.165895,160.513933
149.211880,160.478019
149.268671,160.450491
149.364948,160.425913
149.488215,160.416878
149.800723,160.416878
149.836427,160.413423
149.867951,160.403414
149.890457,160.384469
149.898268,160.353039
149.889140,160.316033
149.862639,160.292772
149.823951,160.280245
149.771323,160.275553
149.571288,160.275553
149.473004,160.269746
149.395259,160.253945
149.334250,160.230032
149.279103,160.195097
149.236503,160.154135
149.204832,160.106750
149.174743,160.025175
149.164349,159.931262
149.166706,159.888306
149.445075,159.888306
149.448622,159.932466
149.458539,159.968906
149.477195,159.999419
149.507174,160.022761
149.546418,160.036571
149.606184,160.041995
149.725619,160.041995
149.773798,160.037189
149.810038,160.024150
149.837176,160.003893
149.856560,159.976012
149.869422,159.936868
149.874271,159.882718
149.869001,159.826938
149.855239,159.788344
149.834704,159.762276
149.788355,159.737198
149.716002,159.727563
149.598857,159.727563
149.550909,159.731708
149.514226,159.742950
149.484291,159.763158
149.462477,159.793875
149.449888,159.832865
149.445075,159.888306
149.166706,159.888306
149.167884,159.866829
149.177171,159.819521
149.192142,159.777546
149.209045,159.745881
149.247880,159.696789
149.075139,159.665739
149.075139,159.494006
149.685776,159.494006
Z" /> 
<path style="fill:#000000; fill-opacity:1.000000; stroke:none;fill-rule:evenodd;"
d="M 148.880783,159.329142
148.905682,159.324135
148.919343,159.310823
148.924380,159.287102
148.924380,159.081663
148.919190,159.055880
148.905388,159.041728
148.880783,159.036509
148.641089,159.036509
148.622995,159.039892
148.611047,159.049240
148.601155,159.081663
148.601155,159.287102
148.605941,159.311171
148.618613,159.324316
148.641089,159.329142
Z" /> 
<path style="fill:#000000; fill-opacity:1.000000; stroke:none;fill-rule:evenodd;"
d="M 148.918518,160.622500
148.918518,159.495105
148.607017,159.495105
148.607017,160.622500
Z" /> 
<path style="fill:#000000; fill-opacity:1.000000; stroke:none;fill-rule:evenodd;"
d="M 147.939043,160.622500
148.025460,160.617719
148.094843,160.604639
148.150161,160.584764
148.198873,160.554208
148.237436,160.512843
148.266756,160.459009
148.284994,160.399082
148.296481,160.321295
148.299271,160.221605
148.288921,159.744050
148.464959,159.744050
148.464959,159.544564
148.277747,159.495105
148.236439,159.179116
147.990884,159.179116
147.990884,159.495105
147.724812,159.495105
147.724812,159.744050
147.990884,159.744050
147.990884,160.220048
147.982183,160.294970
147.971267,160.322278
147.957545,160.342139
147.921000,160.367968
147.878044,160.378226
147.735986,160.392331
147.735986,160.622500
Z" /> 
<path style="fill:#000000; fill-opacity:1.000000; stroke:none;fill-rule:evenodd;"
d="M 147.552712,160.622500
147.552712,159.021762
147.241211,159.021762
147.241211,159.609960
147.174750,159.563743
147.082941,159.518003
146.983329,159.486567
146.882815,159.476237
146.798544,159.482558
146.731668,159.499896
146.678750,159.526612
146.633067,159.564391
146.596697,159.610894
146.569116,159.667388
146.544284,159.762014
146.535410,159.876215
146.535410,160.622500
146.846820,160.622500
146.846820,159.916149
146.852381,159.865791
146.867702,159.827031
146.892392,159.795639
146.924397,159.773542
146.962231,159.760461
147.007196,159.755865
147.093017,159.767039
147.170777,159.796806
147.241211,159.839030
147.241211,160.622500
Z" /> 
<path style="fill:#000000; fill-opacity:1.000000; stroke:none;fill-rule:evenodd;"
d="M 145.984215,160.635139
146.059541,160.628964
146.122881,160.611541
146.176427,160.583798
146.221802,160.545655
146.267607,160.480991
146.296641,160.398554
146.307165,160.293230
146.307165,159.495105
145.995756,159.495105
145.995756,160.199532
145.989719,160.261214
145.974265,160.301720
145.951517,160.327301
145.901919,160.351212
145.831899,160.360091
145.773826,160.354707
145.711640,160.337834
145.652248,160.311539
145.601273,160.278667
145.601273,159.495105
145.289863,159.495105
145.289863,160.622500
145.546501,160.622500
145.601273,160.507644
145.681560,160.553706
145.776212,160.596213
145.876947,160.625323
Z" /> 
<path style="fill:#000000; fill-opacity:1.000000; stroke:none;fill-rule:evenodd;"
d="M 145.055573,160.622500
144.794630,160.622500
144.744072,160.515063
144.654404,160.574414
144.605112,160.598822
144.548708,160.618469
144.487950,160.630757
144.415993,160.635139
144.329763,160.627650
144.258263,160.606605
144.198647,160.573132
144.148409,160.526648
144.106243,160.465070
144.072343,160.385370
144.050647,160.300467
144.036392,160.196517
144.031219,160.070205
144.031779,160.054818
144.342628,160.054818
144.349710,160.174116
144.367450,160.252472
144.398305,160.315654
144.434586,160.352672
144.479750,160.374226
144.532680,160.381615
144.598824,160.377027
144.652939,160.364304
144.744072,160.326386
144.744072,159.791219
144.648817,159.747896
144.593179,159.733350
144.532680,159.728387
144.483902,159.733817
144.438982,159.749911
144.401715,159.780796
144.369098,159.840312
144.350479,159.918962
144.342628,160.054818
144.031779,160.054818
144.036374,159.928504
144.050323,159.816280
144.071061,159.728662
144.104663,159.646543
144.147268,159.584279
144.198647,159.538336
144.259934,159.506103
144.336259,159.485386
144.431288,159.477886
144.508247,159.485005
144.592764,159.507561
144.674837,159.539601
144.744072,159.573324
144.744072,159.020205
145.055573,159.020205
Z" /> 
<path style="fill:#000000; fill-opacity:1.000000; stroke:none;fill-rule:evenodd;"
d="M 143.790151,160.625614
143.815042,160.620600
143.828707,160.607263
143.833748,160.583482
143.833748,160.368792
143.828559,160.343009
143.814756,160.328857
143.790151,160.323638
143.610449,160.323638
143.584755,160.328939
143.570507,160.343167
143.565203,160.368792
143.565203,160.583482
143.568731,160.604213
143.577935,160.616271
143.610449,160.625614
Z" /> 
<path style="fill:#000000; fill-opacity:1.000000; stroke:none;fill-rule:evenodd;"
d="M 142.896955,160.635139
142.997013,160.628137
143.086457,160.607937
143.167618,160.571421
143.236849,160.516712
143.274457,160.471003
143.307345,160.413424
143.335127,160.341864
143.360371,160.223621
143.369931,160.063886
143.361037,159.898753
143.337691,159.777572
143.311531,159.703948
143.280165,159.644998
143.244085,159.598420
143.200229,159.559209
143.150005,159.528399
143.092502,159.505730
142.998684,159.485599
142.887796,159.478435
142.787241,159.481393
142.692066,159.490068
142.597137,159.505441
142.495053,159.529452
142.495053,159.708970
142.790984,159.708970
142.882510,159.716904
142.946780,159.737638
142.981308,159.761112
143.009631,159.795253
143.031960,159.842418
143.050771,159.926991
143.058430,160.061504
143.050700,160.194615
143.031869,160.276652
143.009501,160.321632
142.981108,160.353613
142.946323,160.374929
142.881807,160.393001
142.787962,160.400025
142.479758,160.400025
142.479758,160.576429
142.600658,160.606288
142.747112,160.627629
Z" /> 
<path style="fill:#000000; fill-opacity:1.000000; stroke:none;fill-rule:evenodd;"
d="M 141.956195,159.484886
142.060179,159.503806
142.123410,159.525957
142.176609,159.556080
142.221196,159.594115
142.257488,159.640201
142.288004,159.698385
142.312238,159.770977
142.333160,159.890931
142.341180,160.056192
142.333470,160.213260
142.313062,160.331057
142.289401,160.402828
142.259153,160.461454
142.222753,160.508927
142.178094,160.548560
142.124867,160.580465
142.061736,160.604639
141.957432,160.625761
141.823508,160.633582
141.686647,160.626131
141.581890,160.606196
141.518531,160.582994
141.465528,160.552075
141.421423,160.513506
141.385556,160.467005
141.355682,160.408729
141.332305,160.336461
141.312269,160.217415
141.304644,160.056192
141.304721,160.054635
141.616054,160.054635
141.619521,160.159952
141.628327,160.232047
141.644926,160.293443
141.665421,160.331515
141.693871,160.358702
141.729260,160.374471
141.770376,160.381880
141.823508,160.384637
141.876455,160.381879
141.917388,160.374471
141.952545,160.358720
141.980953,160.331515
142.001341,160.293449
142.017772,160.232047
142.026315,160.159949
142.029679,160.054635
142.026301,159.949050
142.017772,159.877773
142.001361,159.817313
141.980953,159.779678
141.952567,159.752694
141.917388,159.736997
141.876455,159.729589
141.823508,159.726830
141.770376,159.729588
141.729260,159.736997
141.693850,159.752712
141.665421,159.779678
141.644906,159.817319
141.628327,159.877773
141.619536,159.949047
141.616054,160.054635
141.304721,160.054635
141.312704,159.893685
141.333862,159.774091
141.358193,159.701431
141.388560,159.643251
141.424445,159.597229
141.468503,159.559111
141.521532,159.528457
141.585004,159.505363
141.689409,159.485318
141.823508,159.477886
Z" /> 
<path style="fill:#000000; fill-opacity:1.000000; stroke:none;fill-rule:evenodd;"
d="M 141.100305,160.622500
141.100305,159.495105
140.843575,159.495105
140.788803,159.609960
140.711862,159.559238
140.627511,159.515713
140.567959,159.494636
140.496829,159.481089
140.411998,159.476237
140.342803,159.481620
140.284792,159.496764
140.235960,159.520751
140.173452,159.571833
140.128523,159.634598
140.017607,159.562241
139.951594,159.528799
139.879854,159.500967
139.805830,159.482297
139.734315,159.476237
139.644880,159.482725
139.574729,159.500408
139.519992,159.527437
139.473020,159.565996
139.436344,159.613702
139.409350,159.671967
139.385687,159.770132
139.377110,159.891603
139.377110,160.622500
139.688520,160.622500
139.688520,159.919172
139.693914,159.867465
139.708578,159.828588
139.732578,159.797035
139.764082,159.774366
139.801960,159.760756
139.849537,159.755865
139.912018,159.762119
139.976940,159.781510
140.038734,159.810380
140.091978,159.844067
140.085292,159.884184
140.083003,159.925400
140.083003,160.622500
140.394412,160.622500
140.394412,159.919172
140.399806,159.867465
140.414471,159.828588
140.438422,159.797014
140.469700,159.774366
140.507329,159.760762
140.554788,159.755865
140.640884,159.766215
140.718095,159.795249
140.788803,159.839030
140.788803,160.622500
Z" /> 
<path style="fill:#000000; fill-opacity:1.000000; stroke:none;fill-rule:evenodd;"
d="M 139.232122,160.773716
138.642000,159.005459
138.325736,159.005459
138.915858,160.773716
Z" /> 
<path style="fill:#000000; fill-opacity:1.000000; stroke:none;fill-rule:evenodd;"
d="M 137.983051,159.484429
138.079837,159.502061
138.154186,159.528353
138.218914,159.569621
138.270433,159.627393
138.309708,159.704665
138.333775,159.790195
138.350348,159.906070
138.356603,160.059672
138.350049,160.209229
138.332595,160.323172
138.307052,160.408360
138.266030,160.484943
138.212640,160.542425
138.145760,160.583573
138.069505,160.609722
137.971713,160.627151
137.847631,160.633582
137.718245,160.629278
137.615906,160.617645
137.435471,160.584123
137.435471,160.401582
137.765107,160.401582
137.873016,160.395136
137.939588,160.379417
137.990406,160.349293
138.021288,160.305869
138.038358,160.249800
138.048124,160.169124
137.763092,160.169124
137.656045,160.161674
137.570110,160.141188
137.518973,160.117803
137.477304,160.086547
137.443806,160.047033
137.420144,160.000810
137.404742,159.941911
137.399227,159.868705
137.673700,159.868705
137.682095,159.926182
137.703100,159.958098
137.737838,159.976074
137.795332,159.983194
138.051238,159.983194
138.045916,159.878482
138.032737,159.811094
138.007179,159.757736
137.971920,159.726098
137.925169,159.708839
137.858622,159.702284
137.795458,159.706680
137.751369,159.718038
137.716084,159.739192
137.692293,159.770336
137.678869,159.810489
137.673700,159.868705
137.399227,159.868705
137.399110,159.867148
137.405021,159.765146
137.420828,159.687481
137.444264,159.629194
137.480028,159.578991
137.527843,159.539901
137.589894,159.511225
137.699124,159.487276
137.858622,159.477886
Z" /> 
<path style="fill:#000000; fill-opacity:1.000000; stroke:none;fill-rule:evenodd;"
d="M 136.842511,160.627079
136.921302,160.622278
136.986499,160.608934
137.040347,160.588244
137.088349,160.557594
137.127176,160.517903
137.157675,160.468077
137.178100,160.412534
137.191464,160.343548
137.196327,160.258333
137.196327,159.020205
136.884826,159.020205
136.884826,160.212355
136.881117,160.272455
136.871728,160.312830
136.854798,160.345540
136.832527,160.366686
136.804188,160.380646
136.767955,160.389950
136.681219,160.401582
136.681219,160.627079
Z" /> 
<path style="fill:#000000; fill-opacity:1.000000; stroke:none;fill-rule:evenodd;"
d="M 136.199589,159.484429
136.296376,159.502061
136.370725,159.528353
136.435453,159.569621
136.486971,159.627393
136.526247,159.704665
136.550314,159.790195
136.566887,159.906070
136.573141,160.059672
136.566587,160.209229
136.549134,160.323172
136.523590,160.408360
136.482569,160.484943
136.429179,160.542425
136.362299,160.583573
136.286044,160.609722
136.188252,160.627151
136.064170,160.633582
135.934783,160.629278
135.832444,160.617645
135.652010,160.584123
135.652010,160.401582
135.981646,160.401582
136.089554,160.395136
136.156127,160.379417
136.206944,160.349293
136.237826,160.305869
136.254897,160.249800
136.264663,160.169124
135.979631,160.169124
135.872584,160.161674
135.786649,160.141188
135.735512,160.117803
135.693843,160.086547
135.660345,160.047033
135.636683,160.000810
135.621281,159.941911
135.615765,159.868705
135.890238,159.868705
135.898633,159.926182
135.919639,159.958098
135.954377,159.976074
136.011871,159.983194
136.267777,159.983194
136.262455,159.878482
136.249275,159.811094
136.223718,159.757736
136.188459,159.726098
136.141708,159.708839
136.075161,159.702284
136.011997,159.706680
135.967907,159.718038
135.932622,159.739192
135.908831,159.770336
135.895408,159.810489
135.890238,159.868705
135.615765,159.868705
135.615648,159.867148
135.621560,159.765146
135.637367,159.687481
135.660803,159.629194
135.696566,159.578991
135.744381,159.539901
135.806432,159.511225
135.915662,159.487276
136.075161,159.477886
Z" /> 
<path style="fill:#000000; fill-opacity:1.000000; stroke:none;fill-rule:evenodd;"
d="M 134.973228,160.635139
135.073287,160.628137
135.162730,160.607937
135.243892,160.571421
135.313123,160.516712
135.350730,160.471003
135.383618,160.413424
135.411400,160.341864
135.436645,160.223621
135.446205,160.063886
135.437311,159.898753
135.413965,159.777572
135.387804,159.703948
135.356438,159.644998
135.320359,159.598420
135.276503,159.559209
135.226278,159.528399
135.168775,159.505730
135.074957,159.485599
134.964069,159.478435
134.863515,159.481393
134.768339,159.490068
134.673411,159.505441
134.571327,159.529452
134.571327,159.708970
134.867258,159.708970
134.958784,159.716904
135.023054,159.737638
135.057582,159.761112
135.085905,159.795253
135.108234,159.842418
135.127045,159.926991
135.134704,160.061504
135.126973,160.194615
135.108142,160.276652
135.085775,160.321632
135.057381,160.353613
135.022596,160.374929
134.958080,160.393001
134.864235,160.400025
134.556031,160.400025
134.556031,160.576429
134.676931,160.606288
134.823385,160.627629
Z" /> 
<path style="fill:#000000; fill-opacity:1.000000; stroke:none;fill-rule:evenodd;"
d="M 133.954186,160.622500
134.040603,160.617719
134.109986,160.604639
134.165304,160.584764
134.214016,160.554208
134.252579,160.512843
134.281899,160.459009
134.300137,160.399082
134.311624,160.321295
134.314414,160.221605
134.304064,159.744050
134.480102,159.744050
134.480102,159.544564
134.292890,159.495105
134.251582,159.179116
134.006027,159.179116
134.006027,159.495105
133.739955,159.495105
133.739955,159.744050
134.006027,159.744050
134.006027,160.220048
133.997326,160.294970
133.986410,160.322278
133.972688,160.342139
133.936143,160.367968
133.893187,160.378226
133.751129,160.392331
133.751129,160.622500
Z" /> 
<path style="fill:#000000; fill-opacity:1.000000; stroke:none;fill-rule:evenodd;"
d="M 133.567855,160.622500
133.567855,159.495105
133.326879,159.495105
133.256354,159.667296
133.191442,159.595274
133.118967,159.534764
133.065327,159.504396
133.004972,159.485863
132.936243,159.479443
132.890448,159.481824
132.844377,159.490525
132.844377,159.809629
132.911239,159.802759
132.976177,159.800103
133.035664,159.803624
133.086727,159.813567
133.134283,159.830257
133.177586,159.853226
133.217486,159.882634
133.256354,159.920454
133.256354,160.622500
Z" /> 
<path style="fill:#000000; fill-opacity:1.000000; stroke:none;fill-rule:evenodd;"
d="M 132.642053,159.329142
132.666952,159.324135
132.680613,159.310823
132.685650,159.287102
132.685650,159.081663
132.680460,159.055880
132.666658,159.041728
132.642053,159.036509
132.402359,159.036509
132.384265,159.039892
132.372317,159.049240
132.362425,159.081663
132.362425,159.287102
132.367211,159.311171
132.379883,159.324316
132.402359,159.329142
Z" /> 
<path style="fill:#000000; fill-opacity:1.000000; stroke:none;fill-rule:evenodd;"
d="M 132.679788,160.622500
132.679788,159.495105
132.368287,159.495105
132.368287,160.622500
Z" /> 
<path style="fill:#000000; fill-opacity:1.000000; stroke:none;fill-rule:evenodd;"
d="M 132.066586,160.622500
132.066586,159.744050
132.226229,159.744050
132.226229,159.544564
132.066586,159.495105
132.066586,159.373564
132.061723,159.281255
132.048651,159.209867
132.029217,159.155394
131.999448,159.106793
131.961665,159.069311
131.915003,159.041638
131.832533,159.016805
131.722753,159.007566
131.637067,159.010160
131.560912,159.017549
131.490208,159.029492
131.441294,159.042554
131.441294,159.268142
131.523726,159.263013
131.614676,159.261090
131.664077,159.265855
131.698298,159.278309
131.724573,159.299730
131.742170,159.330150
131.751533,159.367258
131.755085,159.418077
131.755085,159.495105
131.150675,159.495105
131.150675,159.744050
131.755085,159.744050
131.755085,160.622500
Z" /> 
<path style="fill:#000000; fill-opacity:1.000000; stroke:none;fill-rule:evenodd;"
d="M 131.300243,160.622500
131.300243,159.495105
130.988834,159.495105
130.988834,160.622500
Z" /> 
<path style="fill:#000000; fill-opacity:1.000000; stroke:none;fill-rule:evenodd;"
d="M 131.262508,159.329142
131.287468,159.324131
131.301154,159.310815
131.306197,159.287102
131.306197,159.081663
131.301001,159.055889
131.287174,159.041732
131.262508,159.036509
131.022906,159.036509
131.004732,159.039896
130.992772,159.049240
130.982880,159.081663
130.982880,159.287102
130.987673,159.311162
131.000370,159.324312
131.022906,159.329142
Z" /> 
<path style="fill:#000000; fill-opacity:1.000000; stroke:none;fill-rule:evenodd;"
d="M 130.411034,159.484429
130.507820,159.502061
130.582170,159.528353
130.646897,159.569621
130.698416,159.627393
130.737691,159.704665
130.761758,159.790195
130.778331,159.906070
130.784586,160.059672
130.778032,160.209229
130.760578,160.323172
130.735035,160.408360
130.694013,160.484943
130.640623,160.542425
130.573743,160.583573
130.497489,160.609722
130.399696,160.627151
130.275614,160.633582
130.146228,160.629278
130.043889,160.617645
129.863454,160.584123
129.863454,160.401582
130.193091,160.401582
130.300999,160.395136
130.367572,160.379417
130.418389,160.349293
130.449271,160.305869
130.466342,160.249800
130.476107,160.169124
130.191076,160.169124
130.084028,160.161674
129.998093,160.141188
129.946956,160.117803
129.905287,160.086547
129.871789,160.047033
129.848127,160.000810
129.832725,159.941911
129.827210,159.868705
130.101683,159.868705
130.110078,159.926182
130.131084,159.958098
130.165821,159.976074
130.223316,159.983194
130.479221,159.983194
130.473900,159.878482
130.460720,159.811094
130.435163,159.757736
130.399903,159.726098
130.353152,159.708839
130.286605,159.702284
130.223442,159.706680
130.179352,159.718038
130.144067,159.739192
130.120276,159.770336
130.106852,159.810489
130.101683,159.868705
129.827210,159.868705
129.827093,159.867148
129.833004,159.765146
129.848811,159.687481
129.872247,159.629194
129.908011,159.578991
129.955826,159.539901
130.017877,159.511225
130.127107,159.487276
130.286605,159.477886
Z" /> 
<path style="fill:#000000; fill-opacity:1.000000; stroke:none;fill-rule:evenodd;"
d="M 128.944704,159.530459
129.079435,159.493640
129.155900,159.481828
129.233399,159.477886
129.339624,159.485667
129.422758,159.506863
129.487473,159.539252
129.541788,159.586093
129.585604,159.648797
129.618906,159.730677
129.639101,159.818350
129.652652,159.929985
129.657649,160.070205
129.651779,160.206339
129.635877,160.314147
129.612129,160.398468
129.575078,160.476701
129.529866,160.535836
129.476482,160.579085
129.414153,160.609371
129.340925,160.628404
129.254465,160.635139
129.197256,160.631107
129.140251,160.618927
129.084845,160.599878
129.032449,160.575330
128.983982,160.545930
128.944704,160.515063
128.894146,160.622500
128.633295,160.622500
128.633295,159.754491
128.944704,159.754491
128.944704,160.321806
129.030525,160.364213
129.083541,160.379331
129.145380,160.384637
129.213189,160.377256
129.262342,160.357435
129.299264,160.321301
129.326639,160.258425
129.340516,160.179176
129.346148,160.054818
129.340078,159.922647
129.325265,159.840312
129.307067,159.793588
129.284148,159.760761
129.256755,159.738829
129.204433,159.718899
129.132100,159.711443
129.080993,159.714998
129.033181,159.725457
128.944704,159.754491
128.633295,159.754491
128.633295,159.020205
128.944704,159.020205
Z" /> 
<path style="fill:#000000; fill-opacity:1.000000; stroke:none;fill-rule:evenodd;"
d="M 128.487390,160.773716
127.897269,159.005459
127.581005,159.005459
128.171126,160.773716
Z" /> 
<path style="fill:#000000; fill-opacity:1.000000; stroke:none;fill-rule:evenodd;"
d="M 127.515517,160.622500
127.515517,159.495105
127.274541,159.495105
127.204016,159.667296
127.139105,159.595274
127.066630,159.534764
127.012989,159.504396
126.952634,159.485863
126.883905,159.479443
126.838110,159.481824
126.792040,159.490525
126.792040,159.809629
126.858901,159.802759
126.923839,159.800103
126.983327,159.803624
127.034390,159.813567
127.081946,159.830257
127.125248,159.853226
127.165148,159.882634
127.204016,159.920454
127.204016,160.622500
Z" /> 
<path style="fill:#000000; fill-opacity:1.000000; stroke:none;fill-rule:evenodd;"
d="M 126.187813,160.635139
126.287871,160.628137
126.377315,160.607937
126.458477,160.571421
126.527708,160.516712
126.565315,160.471003
126.598203,160.413424
126.625985,160.341864
126.651230,160.223621
126.660790,160.063886
126.651896,159.898753
126.628549,159.777572
126.602389,159.703948
126.571023,159.644998
126.534943,159.598420
126.491088,159.559209
126.440863,159.528399
126.383360,159.505730
126.289542,159.485599
126.178654,159.478435
126.078099,159.481393
125.982924,159.490068
125.887995,159.505441
125.785912,159.529452
125.785912,159.708970
126.081842,159.708970
126.173369,159.716904
126.237639,159.737638
126.272166,159.761112
126.300490,159.795253
126.322819,159.842418
126.341629,159.926991
126.349288,160.061504
126.341558,160.194615
126.322727,160.276652
126.300360,160.321632
126.271966,160.353613
126.237181,160.374929
126.172665,160.393001
126.078820,160.400025
125.770616,160.400025
125.770616,160.576429
125.891516,160.606288
126.037970,160.627629
Z" /> 
<path style="fill:#000000; fill-opacity:1.000000; stroke:none;fill-rule:evenodd;"
d="M 125.598700,160.622500
125.337757,160.622500
125.287198,160.515063
125.197531,160.574414
125.148238,160.598822
125.091835,160.618469
125.031076,160.630757
124.959119,160.635139
124.872889,160.627650
124.801389,160.606605
124.741773,160.573132
124.691535,160.526648
124.649370,160.465070
124.615469,160.385370
124.593773,160.300467
124.579518,160.196517
124.574345,160.070205
124.574905,160.054818
124.885755,160.054818
124.892837,160.174116
124.910576,160.252472
124.941431,160.315654
124.977712,160.352672
125.022876,160.374226
125.075806,160.381615
125.141950,160.377027
125.196065,160.364304
125.287198,160.326386
125.287198,159.791219
125.191944,159.747896
125.136305,159.733350
125.075806,159.728387
125.027028,159.733817
124.982108,159.749911
124.944841,159.780796
124.912224,159.840312
124.893605,159.918962
124.885755,160.054818
124.574905,160.054818
124.579501,159.928504
124.593450,159.816280
124.614187,159.728662
124.647789,159.646543
124.690395,159.584279
124.741773,159.538336
124.803061,159.506103
124.879386,159.485386
124.974415,159.477886
125.051373,159.485005
125.135890,159.507561
125.217963,159.539601
125.287198,159.573324
125.287198,159.020205
125.598700,159.020205
Z" /> 
<path style="fill:#000000; fill-opacity:1.000000; stroke:none;fill-rule:evenodd;"
d="M 124.050719,160.635139
124.126044,160.628964
124.189385,160.611541
124.242931,160.583798
124.288306,160.545655
124.334111,160.480991
124.363145,160.398554
124.373669,160.293230
124.373669,159.495105
124.062259,159.495105
124.062259,160.199532
124.056223,160.261214
124.040769,160.301720
124.018021,160.327301
123.968423,160.351212
123.898403,160.360091
123.840330,160.354707
123.778144,160.337834
123.718752,160.311539
123.667777,160.278667
123.667777,159.495105
123.356367,159.495105
123.356367,160.622500
123.613005,160.622500
123.667777,160.507644
123.748064,160.553706
123.842716,160.596213
123.943451,160.625323
Z" /> 
<path style="fill:#000000; fill-opacity:1.000000; stroke:none;fill-rule:evenodd;"
d="M 122.711566,160.635139
122.825688,160.631750
122.947779,160.622500
123.060436,160.606746
123.147631,160.584123
123.147631,160.401582
122.648551,160.401582
122.576377,160.394071
122.550887,160.383107
122.533971,160.366686
122.523972,160.344114
122.520141,160.310449
122.520141,160.274087
122.527283,160.236216
122.547618,160.208874
122.581795,160.192453
122.648002,160.185427
122.824681,160.185427
122.918315,160.177910
122.999070,160.156484
123.047519,160.132744
123.088146,160.100911
123.121894,160.060405
123.145894,160.013447
123.161463,159.954055
123.167140,159.879146
123.167140,159.813750
123.162121,159.743113
123.148008,159.683596
123.125741,159.633316
123.093159,159.590026
123.047233,159.553106
122.985148,159.522491
122.917731,159.502910
122.828998,159.489623
122.714130,159.484664
122.565387,159.491899
122.416551,159.510676
122.305360,159.536138
122.305360,159.718679
122.777145,159.718679
122.834087,159.724419
122.870202,159.738920
122.893055,159.765776
122.901801,159.813750
122.901801,159.848463
122.897658,159.881608
122.886871,159.903235
122.868680,159.918473
122.840801,159.928697
122.764689,159.935383
122.583522,159.935383
122.495998,159.941330
122.427407,159.957508
122.374035,159.982105
122.332928,160.014335
122.290657,160.071424
122.264207,160.142836
122.254710,160.232688
122.254710,160.333530
122.261281,160.407398
122.279447,160.466223
122.307924,160.513140
122.347254,160.551803
122.398079,160.583235
122.462713,160.607204
122.570216,160.627522
Z" /> 
<path style="fill:#000000; fill-opacity:1.000000; stroke:none;fill-rule:evenodd;"
d="M 122.135458,160.138532
122.135458,159.888489
121.493038,159.888489
121.493038,160.138532
Z" /> 
<path style="fill:#000000; fill-opacity:1.000000; stroke:none;fill-rule:evenodd;"
d="M 120.975824,161.120205
120.853000,160.622500
120.943664,160.612898
121.018963,160.586779
121.083927,160.543886
121.137024,160.484930
121.177525,160.412714
121.209289,160.320890
121.421414,159.495105
121.098098,159.495105
120.920869,160.257601
120.907749,160.295158
120.893392,160.320249
120.857946,160.352581
120.823050,160.365770
120.797862,160.368792
120.595354,159.495105
120.278724,159.495105
120.614955,160.912294
120.717170,161.120205
Z" /> 
<path style="fill:#000000; fill-opacity:1.000000; stroke:none;fill-rule:evenodd;"
d="M 120.134010,160.622500
120.134010,159.495105
119.877280,159.495105
119.822509,159.609960
119.745568,159.559238
119.661217,159.515713
119.601664,159.494636
119.530535,159.481089
119.445703,159.476237
119.376508,159.481620
119.318497,159.496764
119.269665,159.520751
119.207158,159.571833
119.162229,159.634598
119.051312,159.562241
118.985300,159.528799
118.913559,159.500967
118.839535,159.482297
118.768021,159.476237
118.678585,159.482725
118.608434,159.500408
118.553698,159.527437
118.506725,159.565996
118.470050,159.613702
118.443056,159.671967
118.419392,159.770132
118.410816,159.891603
118.410816,160.622500
118.722225,160.622500
118.722225,159.919172
118.727619,159.867465
118.742284,159.828588
118.766283,159.797035
118.797788,159.774366
118.835665,159.760756
118.883242,159.755865
118.945724,159.762119
119.010646,159.781510
119.072439,159.810380
119.125684,159.844067
119.118998,159.884184
119.116708,159.925400
119.116708,160.622500
119.428118,160.622500
119.428118,159.919172
119.433512,159.867465
119.448176,159.828588
119.472127,159.797014
119.503406,159.774366
119.541035,159.760762
119.588494,159.755865
119.674589,159.766215
119.751801,159.795249
119.822509,159.839030
119.822509,160.622500
Z" /> 
<path style="fill:#000000; fill-opacity:1.000000; stroke:none;fill-rule:evenodd;"
d="M 118.100047,160.622500
118.100047,159.744050
118.259690,159.744050
118.259690,159.544564
118.100047,159.495105
118.100047,159.419634
118.095219,159.324416
118.081980,159.247321
118.061854,159.185344
118.030981,159.129100
117.991141,159.084788
117.941595,159.050888
117.885116,159.028019
117.814166,159.013037
117.725531,159.007566
117.653640,159.010276
117.591350,159.017916
117.491699,159.038615
117.491699,159.261090
117.663524,159.261090
117.708456,159.265267
117.738629,159.276019
117.761675,159.294666
117.777189,159.321632
117.785374,159.355014
117.788546,159.402781
117.788546,159.495105
117.501316,159.495105
117.501316,159.744050
117.788546,159.744050
117.788546,160.622500
Z" /> 
<path style="fill:#000000; fill-opacity:1.000000; stroke:none;fill-rule:evenodd;"
d="M 117.377119,160.622500
117.377119,160.373555
116.857523,159.857073
116.798787,159.796273
116.755307,159.743958
116.719945,159.690667
116.695865,159.640277
116.681031,159.587512
116.675989,159.530368
116.681613,159.476573
116.697330,159.433373
116.724933,159.398395
116.768222,159.371823
116.822738,159.356704
116.904051,159.350758
117.340025,159.350758
117.340025,159.105293
117.117183,159.071588
116.990823,159.059987
116.842685,159.055834
116.721896,159.062349
116.628490,159.079864
116.557196,159.105935
116.493315,159.145226
116.444499,159.193357
116.408818,159.251106
116.384964,159.315892
116.369843,159.391345
116.364488,159.479351
116.371727,159.581583
116.392423,159.671051
116.426830,159.755026
116.475405,159.835915
116.535686,159.912883
116.613524,159.995559
116.963677,160.341773
116.316861,160.341773
116.316861,160.622500
Z" /> 
<path style="fill:#000000; fill-opacity:1.000000; stroke:none;fill-rule:evenodd;"
d="M 115.642001,159.060691
115.724028,159.074635
115.797539,159.096959
115.866069,159.130041
115.927385,159.174766
115.982279,159.232056
116.026918,159.298005
116.065641,159.380310
116.097683,159.481916
116.118375,159.586557
116.131966,159.713504
116.136884,159.866232
116.128531,160.085097
116.106751,160.244412
116.081609,160.342849
116.051690,160.419594
116.017999,160.478427
115.974861,160.530098
115.926493,160.569428
115.872278,160.597678
115.780972,160.623218
115.671510,160.632300
115.446196,160.632300
115.337619,160.622609
115.246436,160.595205
115.192523,160.565506
115.147634,160.526576
115.110790,160.477602
115.084866,160.421755
115.068070,160.352164
115.061972,160.265661
115.061972,160.102720
115.372923,160.102720
115.372923,160.203837
115.377631,160.254569
115.390051,160.290665
115.410991,160.319156
115.438777,160.338109
115.472637,160.348755
115.516813,160.352672
115.610052,160.352672
115.662970,160.347936
115.706040,160.334720
115.742629,160.310628
115.773543,160.271980
115.795588,160.222210
115.812835,160.148882
115.821969,160.065388
115.825475,159.950496
115.561876,159.950496
115.499059,159.953965
115.454348,159.962952
115.417587,159.980771
115.392798,160.007740
115.378576,160.044521
115.372923,160.102720
115.061972,160.102720
115.061972,160.042728
115.072137,159.937641
115.100531,159.852585
115.131443,159.803965
115.173975,159.763055
115.229950,159.729303
115.292068,159.706820
115.372349,159.691809
115.474956,159.686256
115.606572,159.688820
115.722160,159.699170
115.825475,159.721885
115.815854,159.596493
115.790128,159.502705
115.751469,159.433373
115.710946,159.391862
115.660457,159.361607
115.597850,159.342385
115.520018,159.335462
115.154387,159.335462
115.154387,159.089906
115.240596,159.075087
115.342881,159.064169
115.550243,159.055834
Z" /> 
<path style="fill:#000000; fill-opacity:1.000000; stroke:none;fill-rule:evenodd;"
d="M 114.874118,160.622500
114.874118,160.373555
114.354522,159.857073
114.295786,159.796273
114.252306,159.743958
114.216945,159.690667
114.192864,159.640277
114.178031,159.587512
114.172989,159.530368
114.178612,159.476573
114.194329,159.433373
114.221932,159.398395
114.265221,159.371823
114.319738,159.356704
114.401050,159.350758
114.837024,159.350758
114.837024,159.105293
114.614183,159.071588
114.487822,159.059987
114.339684,159.055834
114.218896,159.062349
114.125489,159.079864
114.054195,159.105935
113.990314,159.145226
113.941498,159.193357
113.905817,159.251106
113.881964,159.315892
113.866842,159.391345
113.861487,159.479351
113.868726,159.581583
113.889423,159.671051
113.923830,159.755026
113.972404,159.835915
114.032686,159.912883
114.110523,159.995559
114.460676,160.341773
113.813860,160.341773
113.813860,160.622500
Z" /> 
</g> 
</svg>
