<?xml version="1.0" standalone="no"?>
 <!DOCTYPE svg PUBLIC "-//W3C//DTD SVG 1.1//EN" 
 "http://www.w3.org/Graphics/SVG/1.1/DTD/svg11.dtd"> 
<svg
  xmlns:svg="http://www.w3.org/2000/svg"
  xmlns="http://www.w3.org/2000/svg"
  xmlns:xlink="http://www.w3.org/1999/xlink"
  version="1.1"
  width="10.215000000000002cm" height="5.215cm" viewBox="59.425 113.425 102.15 52.15">
<title>SVG Image created as rcbus-ymf262-F_Mask.svg date 2025/09/02 21:15:50 </title>
  <desc>Image generated by PCBNEW </desc>
<g style="fill:#000000; fill-opacity:1.000000;stroke:#000000; stroke-opacity:1.000000;
stroke-linecap:round; stroke-linejoin:round;"
 transform="translate(0 0) scale(1 1)">
<path style="fill:#000000; fill-opacity:1.000000; stroke:none;fill-rule:evenodd;"
d="M 112.650000,156.987500
112.631921,157.078387
112.580438,157.155438
112.503387,157.206921
112.412500,157.225000
111.812500,157.225000
111.721613,157.206921
111.644562,157.155438
111.593079,157.078387
111.575000,156.987500
111.575000,156.512500
111.593079,156.421613
111.644562,156.344562
111.721613,156.293079
111.812500,156.275000
112.412500,156.275000
112.503387,156.293079
112.580438,156.344562
112.631921,156.421613
112.650000,156.512500
Z" /> 
<path style="fill:#000000; fill-opacity:1.000000; stroke:none;fill-rule:evenodd;"
d="M 110.925000,156.987500
110.906921,157.078387
110.855438,157.155438
110.778387,157.206921
110.687500,157.225000
110.087500,157.225000
109.996613,157.206921
109.919562,157.155438
109.868079,157.078387
109.850000,156.987500
109.850000,156.512500
109.868079,156.421613
109.919562,156.344562
109.996613,156.293079
110.087500,156.275000
110.687500,156.275000
110.778387,156.293079
110.855438,156.344562
110.906921,156.421613
110.925000,156.512500
Z" /> 
<path style="fill:#000000; fill-opacity:1.000000; stroke:none;fill-rule:evenodd;"
d="M 112.650000,143.237500
112.631921,143.328387
112.580438,143.405438
112.503387,143.456921
112.412500,143.475000
111.812500,143.475000
111.721613,143.456921
111.644562,143.405438
111.593079,143.328387
111.575000,143.237500
111.575000,142.762500
111.593079,142.671613
111.644562,142.594562
111.721613,142.543079
111.812500,142.525000
112.412500,142.525000
112.503387,142.543079
112.580438,142.594562
112.631921,142.671613
112.650000,142.762500
Z" /> 
<path style="fill:#000000; fill-opacity:1.000000; stroke:none;fill-rule:evenodd;"
d="M 110.925000,143.237500
110.906921,143.328387
110.855438,143.405438
110.778387,143.456921
110.687500,143.475000
110.087500,143.475000
109.996613,143.456921
109.919562,143.405438
109.868079,143.328387
109.850000,143.237500
109.850000,142.762500
109.868079,142.671613
109.919562,142.594562
109.996613,142.543079
110.087500,142.525000
110.687500,142.525000
110.778387,142.543079
110.855438,142.594562
110.906921,142.671613
110.925000,142.762500
Z" /> 
</g>
<g style="fill:#000000; fill-opacity:1.000000; stroke:none;">
<circle cx="156.569000" cy="130.095000" r="0.600000" /> 
</g>
<g style="fill:#000000; fill-opacity:1.000000; stroke:none;">
<circle cx="156.569000" cy="120.095000" r="0.600000" /> 
</g>
<g style="fill:#000000; fill-opacity:1.000000; stroke:none;">
<circle cx="154.069000" cy="130.095000" r="0.600000" /> 
</g>
<g style="fill:#000000; fill-opacity:1.000000; stroke:none;">
<circle cx="154.069000" cy="120.095000" r="0.600000" /> 
</g>
<g style="fill:#000000; fill-opacity:1.000000; stroke:none;">
<circle cx="149.069000" cy="125.095000" r="0.600000" /> 
<path style="fill:#000000; fill-opacity:1.000000; stroke:none;fill-rule:evenodd;"
d="M 150.319000,129.195000
150.319000,130.995000
147.819000,130.995000
147.819000,129.195000
Z" /> 
<path style="fill:#000000; fill-opacity:1.000000; stroke:none;fill-rule:evenodd;"
d="M 150.319000,126.695000
150.319000,128.495000
147.819000,128.495000
147.819000,126.695000
Z" /> 
<path style="fill:#000000; fill-opacity:1.000000; stroke:none;fill-rule:evenodd;"
d="M 154.969000,123.845000
154.969000,126.345000
153.169000,126.345000
153.169000,123.845000
Z" /> 
<path style="fill:#000000; fill-opacity:1.000000; stroke:none;fill-rule:evenodd;"
d="M 150.319000,119.195000
150.319000,120.995000
147.819000,120.995000
147.819000,119.195000
Z" /> 
<path style="fill:#000000; fill-opacity:1.000000; stroke:none;fill-rule:evenodd;"
d="M 150.319000,121.695000
150.319000,123.495000
147.819000,123.495000
147.819000,121.695000
Z" /> 
<path style="fill:#000000; fill-opacity:1.000000; stroke:none;fill-rule:evenodd;"
d="M 65.850000,155.310000
65.850000,157.010000
64.150000,157.010000
64.150000,155.310000
Z" /> 
</g>
<g style="fill:#000000; fill-opacity:1.000000; stroke:none;">
<circle cx="62.460000" cy="156.160000" r="0.850000" /> 
</g>
<g style="fill:#000000; fill-opacity:1.000000; stroke:none;">
<circle cx="65.000000" cy="153.620000" r="0.850000" /> 
</g>
<g style="fill:#000000; fill-opacity:1.000000; stroke:none;">
<circle cx="62.460000" cy="153.620000" r="0.850000" /> 
</g>
<g style="fill:#000000; fill-opacity:1.000000; stroke:none;">
<circle cx="65.000000" cy="151.080000" r="0.850000" /> 
</g>
<g style="fill:#000000; fill-opacity:1.000000; stroke:none;">
<circle cx="62.460000" cy="151.080000" r="0.850000" /> 
</g>
<g style="fill:#000000; fill-opacity:1.000000; stroke:none;">
<circle cx="65.000000" cy="148.540000" r="0.850000" /> 
</g>
<g style="fill:#000000; fill-opacity:1.000000; stroke:none;">
<circle cx="62.460000" cy="148.540000" r="0.850000" /> 
</g>
<g style="fill:#000000; fill-opacity:1.000000; stroke:none;">
<circle cx="65.000000" cy="146.000000" r="0.850000" /> 
</g>
<g style="fill:#000000; fill-opacity:1.000000; stroke:none;">
<circle cx="62.460000" cy="146.000000" r="0.850000" /> 
</g>
<g style="fill:#000000; fill-opacity:1.000000; stroke:none;">
<circle cx="65.000000" cy="143.460000" r="0.850000" /> 
</g>
<g style="fill:#000000; fill-opacity:1.000000; stroke:none;">
<circle cx="62.460000" cy="143.460000" r="0.850000" /> 
</g>
<g style="fill:#000000; fill-opacity:1.000000; stroke:none;">
<circle cx="65.532000" cy="131.382000" r="1.600000" /> 
<path style="fill:#000000; fill-opacity:1.000000; stroke:none;fill-rule:evenodd;"
d="M 62.850000,163.850000
61.150000,163.850000
61.150000,162.150000
62.850000,162.150000
Z" /> 
</g>
<g style="fill:#000000; fill-opacity:1.000000; stroke:none;">
<circle cx="64.540000" cy="163.000000" r="0.850000" /> 
<circle cx="67.080000" cy="163.000000" r="0.850000" /> 
<circle cx="69.620000" cy="163.000000" r="0.850000" /> 
<circle cx="72.160000" cy="163.000000" r="0.850000" /> 
<circle cx="74.700000" cy="163.000000" r="0.850000" /> 
<circle cx="77.240000" cy="163.000000" r="0.850000" /> 
<circle cx="79.780000" cy="163.000000" r="0.850000" /> 
<circle cx="82.320000" cy="163.000000" r="0.850000" /> 
<circle cx="84.860000" cy="163.000000" r="0.850000" /> 
<circle cx="87.400000" cy="163.000000" r="0.850000" /> 
<circle cx="89.940000" cy="163.000000" r="0.850000" /> 
<circle cx="92.480000" cy="163.000000" r="0.850000" /> 
<circle cx="95.020000" cy="163.000000" r="0.850000" /> 
<circle cx="97.560000" cy="163.000000" r="0.850000" /> 
<circle cx="100.100000" cy="163.000000" r="0.850000" /> 
<circle cx="102.640000" cy="163.000000" r="0.850000" /> 
<circle cx="105.180000" cy="163.000000" r="0.850000" /> 
<circle cx="107.720000" cy="163.000000" r="0.850000" /> 
<circle cx="110.260000" cy="163.000000" r="0.850000" /> 
<circle cx="112.800000" cy="163.000000" r="0.850000" /> 
<circle cx="115.340000" cy="163.000000" r="0.850000" /> 
<circle cx="117.880000" cy="163.000000" r="0.850000" /> 
<circle cx="120.420000" cy="163.000000" r="0.850000" /> 
<circle cx="122.960000" cy="163.000000" r="0.850000" /> 
<circle cx="125.500000" cy="163.000000" r="0.850000" /> 
<circle cx="128.040000" cy="163.000000" r="0.850000" /> 
<circle cx="130.580000" cy="163.000000" r="0.850000" /> 
<circle cx="133.120000" cy="163.000000" r="0.850000" /> 
<circle cx="135.660000" cy="163.000000" r="0.850000" /> 
<circle cx="138.200000" cy="163.000000" r="0.850000" /> 
<circle cx="140.740000" cy="163.000000" r="0.850000" /> 
<circle cx="143.280000" cy="163.000000" r="0.850000" /> 
<circle cx="145.820000" cy="163.000000" r="0.850000" /> 
<circle cx="148.360000" cy="163.000000" r="0.850000" /> 
<circle cx="150.900000" cy="163.000000" r="0.850000" /> 
<circle cx="153.440000" cy="163.000000" r="0.850000" /> 
<circle cx="155.980000" cy="163.000000" r="0.850000" /> 
<circle cx="158.520000" cy="163.000000" r="0.850000" /> 
<path style="fill:#000000; fill-opacity:1.000000; stroke:none;fill-rule:evenodd;"
d="M 80.730000,157.525000
80.672597,157.513582
80.623934,157.481066
80.591418,157.432403
80.580000,157.375000
80.580000,155.625000
80.591418,155.567597
80.623934,155.518934
80.672597,155.486418
80.730000,155.475000
81.030000,155.475000
81.087403,155.486418
81.136066,155.518934
81.168582,155.567597
81.180000,155.625000
81.180000,157.375000
81.168582,157.432403
81.136066,157.481066
81.087403,157.513582
81.030000,157.525000
Z" /> 
<path style="fill:#000000; fill-opacity:1.000000; stroke:none;fill-rule:evenodd;"
d="M 82.000000,157.525000
81.942597,157.513582
81.893934,157.481066
81.861418,157.432403
81.850000,157.375000
81.850000,155.625000
81.861418,155.567597
81.893934,155.518934
81.942597,155.486418
82.000000,155.475000
82.300000,155.475000
82.357403,155.486418
82.406066,155.518934
82.438582,155.567597
82.450000,155.625000
82.450000,157.375000
82.438582,157.432403
82.406066,157.481066
82.357403,157.513582
82.300000,157.525000
Z" /> 
<path style="fill:#000000; fill-opacity:1.000000; stroke:none;fill-rule:evenodd;"
d="M 83.270000,157.525000
83.212597,157.513582
83.163934,157.481066
83.131418,157.432403
83.120000,157.375000
83.120000,155.625000
83.131418,155.567597
83.163934,155.518934
83.212597,155.486418
83.270000,155.475000
83.570000,155.475000
83.627403,155.486418
83.676066,155.518934
83.708582,155.567597
83.720000,155.625000
83.720000,157.375000
83.708582,157.432403
83.676066,157.481066
83.627403,157.513582
83.570000,157.525000
Z" /> 
<path style="fill:#000000; fill-opacity:1.000000; stroke:none;fill-rule:evenodd;"
d="M 84.540000,157.525000
84.482597,157.513582
84.433934,157.481066
84.401418,157.432403
84.390000,157.375000
84.390000,155.625000
84.401418,155.567597
84.433934,155.518934
84.482597,155.486418
84.540000,155.475000
84.840000,155.475000
84.897403,155.486418
84.946066,155.518934
84.978582,155.567597
84.990000,155.625000
84.990000,157.375000
84.978582,157.432403
84.946066,157.481066
84.897403,157.513582
84.840000,157.525000
Z" /> 
<path style="fill:#000000; fill-opacity:1.000000; stroke:none;fill-rule:evenodd;"
d="M 85.810000,157.525000
85.752597,157.513582
85.703934,157.481066
85.671418,157.432403
85.660000,157.375000
85.660000,155.625000
85.671418,155.567597
85.703934,155.518934
85.752597,155.486418
85.810000,155.475000
86.110000,155.475000
86.167403,155.486418
86.216066,155.518934
86.248582,155.567597
86.260000,155.625000
86.260000,157.375000
86.248582,157.432403
86.216066,157.481066
86.167403,157.513582
86.110000,157.525000
Z" /> 
<path style="fill:#000000; fill-opacity:1.000000; stroke:none;fill-rule:evenodd;"
d="M 87.080000,157.525000
87.022597,157.513582
86.973934,157.481066
86.941418,157.432403
86.930000,157.375000
86.930000,155.625000
86.941418,155.567597
86.973934,155.518934
87.022597,155.486418
87.080000,155.475000
87.380000,155.475000
87.437403,155.486418
87.486066,155.518934
87.518582,155.567597
87.530000,155.625000
87.530000,157.375000
87.518582,157.432403
87.486066,157.481066
87.437403,157.513582
87.380000,157.525000
Z" /> 
<path style="fill:#000000; fill-opacity:1.000000; stroke:none;fill-rule:evenodd;"
d="M 88.350000,157.525000
88.292597,157.513582
88.243934,157.481066
88.211418,157.432403
88.200000,157.375000
88.200000,155.625000
88.211418,155.567597
88.243934,155.518934
88.292597,155.486418
88.350000,155.475000
88.650000,155.475000
88.707403,155.486418
88.756066,155.518934
88.788582,155.567597
88.800000,155.625000
88.800000,157.375000
88.788582,157.432403
88.756066,157.481066
88.707403,157.513582
88.650000,157.525000
Z" /> 
<path style="fill:#000000; fill-opacity:1.000000; stroke:none;fill-rule:evenodd;"
d="M 89.620000,157.525000
89.562597,157.513582
89.513934,157.481066
89.481418,157.432403
89.470000,157.375000
89.470000,155.625000
89.481418,155.567597
89.513934,155.518934
89.562597,155.486418
89.620000,155.475000
89.920000,155.475000
89.977403,155.486418
90.026066,155.518934
90.058582,155.567597
90.070000,155.625000
90.070000,157.375000
90.058582,157.432403
90.026066,157.481066
89.977403,157.513582
89.920000,157.525000
Z" /> 
<path style="fill:#000000; fill-opacity:1.000000; stroke:none;fill-rule:evenodd;"
d="M 90.890000,157.525000
90.832597,157.513582
90.783934,157.481066
90.751418,157.432403
90.740000,157.375000
90.740000,155.625000
90.751418,155.567597
90.783934,155.518934
90.832597,155.486418
90.890000,155.475000
91.190000,155.475000
91.247403,155.486418
91.296066,155.518934
91.328582,155.567597
91.340000,155.625000
91.340000,157.375000
91.328582,157.432403
91.296066,157.481066
91.247403,157.513582
91.190000,157.525000
Z" /> 
<path style="fill:#000000; fill-opacity:1.000000; stroke:none;fill-rule:evenodd;"
d="M 92.160000,157.525000
92.102597,157.513582
92.053934,157.481066
92.021418,157.432403
92.010000,157.375000
92.010000,155.625000
92.021418,155.567597
92.053934,155.518934
92.102597,155.486418
92.160000,155.475000
92.460000,155.475000
92.517403,155.486418
92.566066,155.518934
92.598582,155.567597
92.610000,155.625000
92.610000,157.375000
92.598582,157.432403
92.566066,157.481066
92.517403,157.513582
92.460000,157.525000
Z" /> 
<path style="fill:#000000; fill-opacity:1.000000; stroke:none;fill-rule:evenodd;"
d="M 92.160000,148.225000
92.102597,148.213582
92.053934,148.181066
92.021418,148.132403
92.010000,148.075000
92.010000,146.325000
92.021418,146.267597
92.053934,146.218934
92.102597,146.186418
92.160000,146.175000
92.460000,146.175000
92.517403,146.186418
92.566066,146.218934
92.598582,146.267597
92.610000,146.325000
92.610000,148.075000
92.598582,148.132403
92.566066,148.181066
92.517403,148.213582
92.460000,148.225000
Z" /> 
<path style="fill:#000000; fill-opacity:1.000000; stroke:none;fill-rule:evenodd;"
d="M 90.890000,148.225000
90.832597,148.213582
90.783934,148.181066
90.751418,148.132403
90.740000,148.075000
90.740000,146.325000
90.751418,146.267597
90.783934,146.218934
90.832597,146.186418
90.890000,146.175000
91.190000,146.175000
91.247403,146.186418
91.296066,146.218934
91.328582,146.267597
91.340000,146.325000
91.340000,148.075000
91.328582,148.132403
91.296066,148.181066
91.247403,148.213582
91.190000,148.225000
Z" /> 
<path style="fill:#000000; fill-opacity:1.000000; stroke:none;fill-rule:evenodd;"
d="M 89.620000,148.225000
89.562597,148.213582
89.513934,148.181066
89.481418,148.132403
89.470000,148.075000
89.470000,146.325000
89.481418,146.267597
89.513934,146.218934
89.562597,146.186418
89.620000,146.175000
89.920000,146.175000
89.977403,146.186418
90.026066,146.218934
90.058582,146.267597
90.070000,146.325000
90.070000,148.075000
90.058582,148.132403
90.026066,148.181066
89.977403,148.213582
89.920000,148.225000
Z" /> 
<path style="fill:#000000; fill-opacity:1.000000; stroke:none;fill-rule:evenodd;"
d="M 88.350000,148.225000
88.292597,148.213582
88.243934,148.181066
88.211418,148.132403
88.200000,148.075000
88.200000,146.325000
88.211418,146.267597
88.243934,146.218934
88.292597,146.186418
88.350000,146.175000
88.650000,146.175000
88.707403,146.186418
88.756066,146.218934
88.788582,146.267597
88.800000,146.325000
88.800000,148.075000
88.788582,148.132403
88.756066,148.181066
88.707403,148.213582
88.650000,148.225000
Z" /> 
<path style="fill:#000000; fill-opacity:1.000000; stroke:none;fill-rule:evenodd;"
d="M 87.080000,148.225000
87.022597,148.213582
86.973934,148.181066
86.941418,148.132403
86.930000,148.075000
86.930000,146.325000
86.941418,146.267597
86.973934,146.218934
87.022597,146.186418
87.080000,146.175000
87.380000,146.175000
87.437403,146.186418
87.486066,146.218934
87.518582,146.267597
87.530000,146.325000
87.530000,148.075000
87.518582,148.132403
87.486066,148.181066
87.437403,148.213582
87.380000,148.225000
Z" /> 
<path style="fill:#000000; fill-opacity:1.000000; stroke:none;fill-rule:evenodd;"
d="M 85.810000,148.225000
85.752597,148.213582
85.703934,148.181066
85.671418,148.132403
85.660000,148.075000
85.660000,146.325000
85.671418,146.267597
85.703934,146.218934
85.752597,146.186418
85.810000,146.175000
86.110000,146.175000
86.167403,146.186418
86.216066,146.218934
86.248582,146.267597
86.260000,146.325000
86.260000,148.075000
86.248582,148.132403
86.216066,148.181066
86.167403,148.213582
86.110000,148.225000
Z" /> 
<path style="fill:#000000; fill-opacity:1.000000; stroke:none;fill-rule:evenodd;"
d="M 84.540000,148.225000
84.482597,148.213582
84.433934,148.181066
84.401418,148.132403
84.390000,148.075000
84.390000,146.325000
84.401418,146.267597
84.433934,146.218934
84.482597,146.186418
84.540000,146.175000
84.840000,146.175000
84.897403,146.186418
84.946066,146.218934
84.978582,146.267597
84.990000,146.325000
84.990000,148.075000
84.978582,148.132403
84.946066,148.181066
84.897403,148.213582
84.840000,148.225000
Z" /> 
<path style="fill:#000000; fill-opacity:1.000000; stroke:none;fill-rule:evenodd;"
d="M 83.270000,148.225000
83.212597,148.213582
83.163934,148.181066
83.131418,148.132403
83.120000,148.075000
83.120000,146.325000
83.131418,146.267597
83.163934,146.218934
83.212597,146.186418
83.270000,146.175000
83.570000,146.175000
83.627403,146.186418
83.676066,146.218934
83.708582,146.267597
83.720000,146.325000
83.720000,148.075000
83.708582,148.132403
83.676066,148.181066
83.627403,148.213582
83.570000,148.225000
Z" /> 
<path style="fill:#000000; fill-opacity:1.000000; stroke:none;fill-rule:evenodd;"
d="M 82.000000,148.225000
81.942597,148.213582
81.893934,148.181066
81.861418,148.132403
81.850000,148.075000
81.850000,146.325000
81.861418,146.267597
81.893934,146.218934
81.942597,146.186418
82.000000,146.175000
82.300000,146.175000
82.357403,146.186418
82.406066,146.218934
82.438582,146.267597
82.450000,146.325000
82.450000,148.075000
82.438582,148.132403
82.406066,148.181066
82.357403,148.213582
82.300000,148.225000
Z" /> 
<path style="fill:#000000; fill-opacity:1.000000; stroke:none;fill-rule:evenodd;"
d="M 80.730000,148.225000
80.672597,148.213582
80.623934,148.181066
80.591418,148.132403
80.580000,148.075000
80.580000,146.325000
80.591418,146.267597
80.623934,146.218934
80.672597,146.186418
80.730000,146.175000
81.030000,146.175000
81.087403,146.186418
81.136066,146.218934
81.168582,146.267597
81.180000,146.325000
81.180000,148.075000
81.168582,148.132403
81.136066,148.181066
81.087403,148.213582
81.030000,148.225000
Z" /> 
<path style="fill:#000000; fill-opacity:1.000000; stroke:none;fill-rule:evenodd;"
d="M 126.237500,127.100000
126.328387,127.118079
126.405438,127.169562
126.456921,127.246613
126.475000,127.337500
126.475000,127.937500
126.456921,128.028387
126.405438,128.105438
126.328387,128.156921
126.237500,128.175000
125.762500,128.175000
125.671613,128.156921
125.594562,128.105438
125.543079,128.028387
125.525000,127.937500
125.525000,127.337500
125.543079,127.246613
125.594562,127.169562
125.671613,127.118079
125.762500,127.100000
Z" /> 
<path style="fill:#000000; fill-opacity:1.000000; stroke:none;fill-rule:evenodd;"
d="M 126.237500,128.825000
126.328387,128.843079
126.405438,128.894562
126.456921,128.971613
126.475000,129.062500
126.475000,129.662500
126.456921,129.753387
126.405438,129.830438
126.328387,129.881921
126.237500,129.900000
125.762500,129.900000
125.671613,129.881921
125.594562,129.830438
125.543079,129.753387
125.525000,129.662500
125.525000,129.062500
125.543079,128.971613
125.594562,128.894562
125.671613,128.843079
125.762500,128.825000
Z" /> 
<path style="fill:#000000; fill-opacity:1.000000; stroke:none;fill-rule:evenodd;"
d="M 116.737500,129.962500
116.828387,129.980579
116.905438,130.032062
116.956921,130.109113
116.975000,130.200000
116.975000,130.800000
116.956921,130.890887
116.905438,130.967938
116.828387,131.019421
116.737500,131.037500
116.262500,131.037500
116.171613,131.019421
116.094562,130.967938
116.043079,130.890887
116.025000,130.800000
116.025000,130.200000
116.043079,130.109113
116.094562,130.032062
116.171613,129.980579
116.262500,129.962500
Z" /> 
<path style="fill:#000000; fill-opacity:1.000000; stroke:none;fill-rule:evenodd;"
d="M 116.737500,131.687500
116.828387,131.705579
116.905438,131.757062
116.956921,131.834113
116.975000,131.925000
116.975000,132.525000
116.956921,132.615887
116.905438,132.692938
116.828387,132.744421
116.737500,132.762500
116.262500,132.762500
116.171613,132.744421
116.094562,132.692938
116.043079,132.615887
116.025000,132.525000
116.025000,131.925000
116.043079,131.834113
116.094562,131.757062
116.171613,131.705579
116.262500,131.687500
Z" /> 
<path style="fill:#000000; fill-opacity:1.000000; stroke:none;fill-rule:evenodd;"
d="M 119.487500,129.962500
119.578387,129.980579
119.655438,130.032062
119.706921,130.109113
119.725000,130.200000
119.725000,130.800000
119.706921,130.890887
119.655438,130.967938
119.578387,131.019421
119.487500,131.037500
119.012500,131.037500
118.921613,131.019421
118.844562,130.967938
118.793079,130.890887
118.775000,130.800000
118.775000,130.200000
118.793079,130.109113
118.844562,130.032062
118.921613,129.980579
119.012500,129.962500
Z" /> 
<path style="fill:#000000; fill-opacity:1.000000; stroke:none;fill-rule:evenodd;"
d="M 119.487500,131.687500
119.578387,131.705579
119.655438,131.757062
119.706921,131.834113
119.725000,131.925000
119.725000,132.525000
119.706921,132.615887
119.655438,132.692938
119.578387,132.744421
119.487500,132.762500
119.012500,132.762500
118.921613,132.744421
118.844562,132.692938
118.793079,132.615887
118.775000,132.525000
118.775000,131.925000
118.793079,131.834113
118.844562,131.757062
118.921613,131.705579
119.012500,131.687500
Z" /> 
<path style="fill:#000000; fill-opacity:1.000000; stroke:none;fill-rule:evenodd;"
d="M 114.377500,157.650000
114.324881,157.639533
114.280273,157.609727
114.250467,157.565119
114.240000,157.512500
114.240000,155.787500
114.250467,155.734881
114.280273,155.690273
114.324881,155.660467
114.377500,155.650000
114.652500,155.650000
114.705119,155.660467
114.749727,155.690273
114.779533,155.734881
114.790000,155.787500
114.790000,157.512500
114.779533,157.565119
114.749727,157.609727
114.705119,157.639533
114.652500,157.650000
Z" /> 
<path style="fill:#000000; fill-opacity:1.000000; stroke:none;fill-rule:evenodd;"
d="M 115.647500,157.650000
115.594881,157.639533
115.550273,157.609727
115.520467,157.565119
115.510000,157.512500
115.510000,155.787500
115.520467,155.734881
115.550273,155.690273
115.594881,155.660467
115.647500,155.650000
115.922500,155.650000
115.975119,155.660467
116.019727,155.690273
116.049533,155.734881
116.060000,155.787500
116.060000,157.512500
116.049533,157.565119
116.019727,157.609727
115.975119,157.639533
115.922500,157.650000
Z" /> 
<path style="fill:#000000; fill-opacity:1.000000; stroke:none;fill-rule:evenodd;"
d="M 116.917500,157.650000
116.864881,157.639533
116.820273,157.609727
116.790467,157.565119
116.780000,157.512500
116.780000,155.787500
116.790467,155.734881
116.820273,155.690273
116.864881,155.660467
116.917500,155.650000
117.192500,155.650000
117.245119,155.660467
117.289727,155.690273
117.319533,155.734881
117.330000,155.787500
117.330000,157.512500
117.319533,157.565119
117.289727,157.609727
117.245119,157.639533
117.192500,157.650000
Z" /> 
<path style="fill:#000000; fill-opacity:1.000000; stroke:none;fill-rule:evenodd;"
d="M 118.187500,157.650000
118.134881,157.639533
118.090273,157.609727
118.060467,157.565119
118.050000,157.512500
118.050000,155.787500
118.060467,155.734881
118.090273,155.690273
118.134881,155.660467
118.187500,155.650000
118.462500,155.650000
118.515119,155.660467
118.559727,155.690273
118.589533,155.734881
118.600000,155.787500
118.600000,157.512500
118.589533,157.565119
118.559727,157.609727
118.515119,157.639533
118.462500,157.650000
Z" /> 
<path style="fill:#000000; fill-opacity:1.000000; stroke:none;fill-rule:evenodd;"
d="M 119.457500,157.650000
119.404881,157.639533
119.360273,157.609727
119.330467,157.565119
119.320000,157.512500
119.320000,155.787500
119.330467,155.734881
119.360273,155.690273
119.404881,155.660467
119.457500,155.650000
119.732500,155.650000
119.785119,155.660467
119.829727,155.690273
119.859533,155.734881
119.870000,155.787500
119.870000,157.512500
119.859533,157.565119
119.829727,157.609727
119.785119,157.639533
119.732500,157.650000
Z" /> 
<path style="fill:#000000; fill-opacity:1.000000; stroke:none;fill-rule:evenodd;"
d="M 120.727500,157.650000
120.674881,157.639533
120.630273,157.609727
120.600467,157.565119
120.590000,157.512500
120.590000,155.787500
120.600467,155.734881
120.630273,155.690273
120.674881,155.660467
120.727500,155.650000
121.002500,155.650000
121.055119,155.660467
121.099727,155.690273
121.129533,155.734881
121.140000,155.787500
121.140000,157.512500
121.129533,157.565119
121.099727,157.609727
121.055119,157.639533
121.002500,157.650000
Z" /> 
<path style="fill:#000000; fill-opacity:1.000000; stroke:none;fill-rule:evenodd;"
d="M 121.997500,157.650000
121.944881,157.639533
121.900273,157.609727
121.870467,157.565119
121.860000,157.512500
121.860000,155.787500
121.870467,155.734881
121.900273,155.690273
121.944881,155.660467
121.997500,155.650000
122.272500,155.650000
122.325119,155.660467
122.369727,155.690273
122.399533,155.734881
122.410000,155.787500
122.410000,157.512500
122.399533,157.565119
122.369727,157.609727
122.325119,157.639533
122.272500,157.650000
Z" /> 
<path style="fill:#000000; fill-opacity:1.000000; stroke:none;fill-rule:evenodd;"
d="M 123.267500,157.650000
123.214881,157.639533
123.170273,157.609727
123.140467,157.565119
123.130000,157.512500
123.130000,155.787500
123.140467,155.734881
123.170273,155.690273
123.214881,155.660467
123.267500,155.650000
123.542500,155.650000
123.595119,155.660467
123.639727,155.690273
123.669533,155.734881
123.680000,155.787500
123.680000,157.512500
123.669533,157.565119
123.639727,157.609727
123.595119,157.639533
123.542500,157.650000
Z" /> 
<path style="fill:#000000; fill-opacity:1.000000; stroke:none;fill-rule:evenodd;"
d="M 124.537500,157.650000
124.484881,157.639533
124.440273,157.609727
124.410467,157.565119
124.400000,157.512500
124.400000,155.787500
124.410467,155.734881
124.440273,155.690273
124.484881,155.660467
124.537500,155.650000
124.812500,155.650000
124.865119,155.660467
124.909727,155.690273
124.939533,155.734881
124.950000,155.787500
124.950000,157.512500
124.939533,157.565119
124.909727,157.609727
124.865119,157.639533
124.812500,157.650000
Z" /> 
<path style="fill:#000000; fill-opacity:1.000000; stroke:none;fill-rule:evenodd;"
d="M 125.807500,157.650000
125.754881,157.639533
125.710273,157.609727
125.680467,157.565119
125.670000,157.512500
125.670000,155.787500
125.680467,155.734881
125.710273,155.690273
125.754881,155.660467
125.807500,155.650000
126.082500,155.650000
126.135119,155.660467
126.179727,155.690273
126.209533,155.734881
126.220000,155.787500
126.220000,157.512500
126.209533,157.565119
126.179727,157.609727
126.135119,157.639533
126.082500,157.650000
Z" /> 
<path style="fill:#000000; fill-opacity:1.000000; stroke:none;fill-rule:evenodd;"
d="M 127.077500,157.650000
127.024881,157.639533
126.980273,157.609727
126.950467,157.565119
126.940000,157.512500
126.940000,155.787500
126.950467,155.734881
126.980273,155.690273
127.024881,155.660467
127.077500,155.650000
127.352500,155.650000
127.405119,155.660467
127.449727,155.690273
127.479533,155.734881
127.490000,155.787500
127.490000,157.512500
127.479533,157.565119
127.449727,157.609727
127.405119,157.639533
127.352500,157.650000
Z" /> 
<path style="fill:#000000; fill-opacity:1.000000; stroke:none;fill-rule:evenodd;"
d="M 128.347500,157.650000
128.294881,157.639533
128.250273,157.609727
128.220467,157.565119
128.210000,157.512500
128.210000,155.787500
128.220467,155.734881
128.250273,155.690273
128.294881,155.660467
128.347500,155.650000
128.622500,155.650000
128.675119,155.660467
128.719727,155.690273
128.749533,155.734881
128.760000,155.787500
128.760000,157.512500
128.749533,157.565119
128.719727,157.609727
128.675119,157.639533
128.622500,157.650000
Z" /> 
<path style="fill:#000000; fill-opacity:1.000000; stroke:none;fill-rule:evenodd;"
d="M 128.347500,148.350000
128.294881,148.339533
128.250273,148.309727
128.220467,148.265119
128.210000,148.212500
128.210000,146.487500
128.220467,146.434881
128.250273,146.390273
128.294881,146.360467
128.347500,146.350000
128.622500,146.350000
128.675119,146.360467
128.719727,146.390273
128.749533,146.434881
128.760000,146.487500
128.760000,148.212500
128.749533,148.265119
128.719727,148.309727
128.675119,148.339533
128.622500,148.350000
Z" /> 
<path style="fill:#000000; fill-opacity:1.000000; stroke:none;fill-rule:evenodd;"
d="M 127.077500,148.350000
127.024881,148.339533
126.980273,148.309727
126.950467,148.265119
126.940000,148.212500
126.940000,146.487500
126.950467,146.434881
126.980273,146.390273
127.024881,146.360467
127.077500,146.350000
127.352500,146.350000
127.405119,146.360467
127.449727,146.390273
127.479533,146.434881
127.490000,146.487500
127.490000,148.212500
127.479533,148.265119
127.449727,148.309727
127.405119,148.339533
127.352500,148.350000
Z" /> 
<path style="fill:#000000; fill-opacity:1.000000; stroke:none;fill-rule:evenodd;"
d="M 125.807500,148.350000
125.754881,148.339533
125.710273,148.309727
125.680467,148.265119
125.670000,148.212500
125.670000,146.487500
125.680467,146.434881
125.710273,146.390273
125.754881,146.360467
125.807500,146.350000
126.082500,146.350000
126.135119,146.360467
126.179727,146.390273
126.209533,146.434881
126.220000,146.487500
126.220000,148.212500
126.209533,148.265119
126.179727,148.309727
126.135119,148.339533
126.082500,148.350000
Z" /> 
<path style="fill:#000000; fill-opacity:1.000000; stroke:none;fill-rule:evenodd;"
d="M 124.537500,148.350000
124.484881,148.339533
124.440273,148.309727
124.410467,148.265119
124.400000,148.212500
124.400000,146.487500
124.410467,146.434881
124.440273,146.390273
124.484881,146.360467
124.537500,146.350000
124.812500,146.350000
124.865119,146.360467
124.909727,146.390273
124.939533,146.434881
124.950000,146.487500
124.950000,148.212500
124.939533,148.265119
124.909727,148.309727
124.865119,148.339533
124.812500,148.350000
Z" /> 
<path style="fill:#000000; fill-opacity:1.000000; stroke:none;fill-rule:evenodd;"
d="M 123.267500,148.350000
123.214881,148.339533
123.170273,148.309727
123.140467,148.265119
123.130000,148.212500
123.130000,146.487500
123.140467,146.434881
123.170273,146.390273
123.214881,146.360467
123.267500,146.350000
123.542500,146.350000
123.595119,146.360467
123.639727,146.390273
123.669533,146.434881
123.680000,146.487500
123.680000,148.212500
123.669533,148.265119
123.639727,148.309727
123.595119,148.339533
123.542500,148.350000
Z" /> 
<path style="fill:#000000; fill-opacity:1.000000; stroke:none;fill-rule:evenodd;"
d="M 121.997500,148.350000
121.944881,148.339533
121.900273,148.309727
121.870467,148.265119
121.860000,148.212500
121.860000,146.487500
121.870467,146.434881
121.900273,146.390273
121.944881,146.360467
121.997500,146.350000
122.272500,146.350000
122.325119,146.360467
122.369727,146.390273
122.399533,146.434881
122.410000,146.487500
122.410000,148.212500
122.399533,148.265119
122.369727,148.309727
122.325119,148.339533
122.272500,148.350000
Z" /> 
<path style="fill:#000000; fill-opacity:1.000000; stroke:none;fill-rule:evenodd;"
d="M 120.727500,148.350000
120.674881,148.339533
120.630273,148.309727
120.600467,148.265119
120.590000,148.212500
120.590000,146.487500
120.600467,146.434881
120.630273,146.390273
120.674881,146.360467
120.727500,146.350000
121.002500,146.350000
121.055119,146.360467
121.099727,146.390273
121.129533,146.434881
121.140000,146.487500
121.140000,148.212500
121.129533,148.265119
121.099727,148.309727
121.055119,148.339533
121.002500,148.350000
Z" /> 
<path style="fill:#000000; fill-opacity:1.000000; stroke:none;fill-rule:evenodd;"
d="M 119.457500,148.350000
119.404881,148.339533
119.360273,148.309727
119.330467,148.265119
119.320000,148.212500
119.320000,146.487500
119.330467,146.434881
119.360273,146.390273
119.404881,146.360467
119.457500,146.350000
119.732500,146.350000
119.785119,146.360467
119.829727,146.390273
119.859533,146.434881
119.870000,146.487500
119.870000,148.212500
119.859533,148.265119
119.829727,148.309727
119.785119,148.339533
119.732500,148.350000
Z" /> 
<path style="fill:#000000; fill-opacity:1.000000; stroke:none;fill-rule:evenodd;"
d="M 118.187500,148.350000
118.134881,148.339533
118.090273,148.309727
118.060467,148.265119
118.050000,148.212500
118.050000,146.487500
118.060467,146.434881
118.090273,146.390273
118.134881,146.360467
118.187500,146.350000
118.462500,146.350000
118.515119,146.360467
118.559727,146.390273
118.589533,146.434881
118.600000,146.487500
118.600000,148.212500
118.589533,148.265119
118.559727,148.309727
118.515119,148.339533
118.462500,148.350000
Z" /> 
<path style="fill:#000000; fill-opacity:1.000000; stroke:none;fill-rule:evenodd;"
d="M 116.917500,148.350000
116.864881,148.339533
116.820273,148.309727
116.790467,148.265119
116.780000,148.212500
116.780000,146.487500
116.790467,146.434881
116.820273,146.390273
116.864881,146.360467
116.917500,146.350000
117.192500,146.350000
117.245119,146.360467
117.289727,146.390273
117.319533,146.434881
117.330000,146.487500
117.330000,148.212500
117.319533,148.265119
117.289727,148.309727
117.245119,148.339533
117.192500,148.350000
Z" /> 
<path style="fill:#000000; fill-opacity:1.000000; stroke:none;fill-rule:evenodd;"
d="M 115.647500,148.350000
115.594881,148.339533
115.550273,148.309727
115.520467,148.265119
115.510000,148.212500
115.510000,146.487500
115.520467,146.434881
115.550273,146.390273
115.594881,146.360467
115.647500,146.350000
115.922500,146.350000
115.975119,146.360467
116.019727,146.390273
116.049533,146.434881
116.060000,146.487500
116.060000,148.212500
116.049533,148.265119
116.019727,148.309727
115.975119,148.339533
115.922500,148.350000
Z" /> 
<path style="fill:#000000; fill-opacity:1.000000; stroke:none;fill-rule:evenodd;"
d="M 114.377500,148.350000
114.324881,148.339533
114.280273,148.309727
114.250467,148.265119
114.240000,148.212500
114.240000,146.487500
114.250467,146.434881
114.280273,146.390273
114.324881,146.360467
114.377500,146.350000
114.652500,146.350000
114.705119,146.360467
114.749727,146.390273
114.779533,146.434881
114.790000,146.487500
114.790000,148.212500
114.779533,148.265119
114.749727,148.309727
114.705119,148.339533
114.652500,148.350000
Z" /> 
<path style="fill:#000000; fill-opacity:1.000000; stroke:none;fill-rule:evenodd;"
d="M 81.400000,145.237500
81.381921,145.328387
81.330438,145.405438
81.253387,145.456921
81.162500,145.475000
80.562500,145.475000
80.471613,145.456921
80.394562,145.405438
80.343079,145.328387
80.325000,145.237500
80.325000,144.762500
80.343079,144.671613
80.394562,144.594562
80.471613,144.543079
80.562500,144.525000
81.162500,144.525000
81.253387,144.543079
81.330438,144.594562
81.381921,144.671613
81.400000,144.762500
Z" /> 
<path style="fill:#000000; fill-opacity:1.000000; stroke:none;fill-rule:evenodd;"
d="M 79.675000,145.237500
79.656921,145.328387
79.605438,145.405438
79.528387,145.456921
79.437500,145.475000
78.837500,145.475000
78.746613,145.456921
78.669562,145.405438
78.618079,145.328387
78.600000,145.237500
78.600000,144.762500
78.618079,144.671613
78.669562,144.594562
78.746613,144.543079
78.837500,144.525000
79.437500,144.525000
79.528387,144.543079
79.605438,144.594562
79.656921,144.671613
79.675000,144.762500
Z" /> 
<path style="fill:#000000; fill-opacity:1.000000; stroke:none;fill-rule:evenodd;"
d="M 99.600000,148.000000
99.619030,147.904329
99.673223,147.823223
99.754329,147.769030
99.850000,147.750000
101.150000,147.750000
101.245671,147.769030
101.326777,147.823223
101.380970,147.904329
101.400000,148.000000
101.400000,149.500000
101.380970,149.595671
101.326777,149.676777
101.245671,149.730970
101.150000,149.750000
99.850000,149.750000
99.754329,149.730970
99.673223,149.676777
99.619030,149.595671
99.600000,149.500000
Z" /> 
<path style="fill:#000000; fill-opacity:1.000000; stroke:none;fill-rule:evenodd;"
d="M 104.680000,148.000000
104.699030,147.904329
104.753223,147.823223
104.834329,147.769030
104.930000,147.750000
106.230000,147.750000
106.325671,147.769030
106.406777,147.823223
106.460970,147.904329
106.480000,148.000000
106.480000,149.500000
106.460970,149.595671
106.406777,149.676777
106.325671,149.730970
106.230000,149.750000
104.930000,149.750000
104.834329,149.730970
104.753223,149.676777
104.699030,149.595671
104.680000,149.500000
Z" /> 
<path style="fill:#000000; fill-opacity:1.000000; stroke:none;fill-rule:evenodd;"
d="M 104.680000,144.000000
104.699030,143.904329
104.753223,143.823223
104.834329,143.769030
104.930000,143.750000
106.230000,143.750000
106.325671,143.769030
106.406777,143.823223
106.460970,143.904329
106.480000,144.000000
106.480000,145.500000
106.460970,145.595671
106.406777,145.676777
106.325671,145.730970
106.230000,145.750000
104.930000,145.750000
104.834329,145.730970
104.753223,145.676777
104.699030,145.595671
104.680000,145.500000
Z" /> 
<path style="fill:#000000; fill-opacity:1.000000; stroke:none;fill-rule:evenodd;"
d="M 99.600000,144.000000
99.619030,143.904329
99.673223,143.823223
99.754329,143.769030
99.850000,143.750000
101.150000,143.750000
101.245671,143.769030
101.326777,143.823223
101.380970,143.904329
101.400000,144.000000
101.400000,145.500000
101.380970,145.595671
101.326777,145.676777
101.245671,145.730970
101.150000,145.750000
99.850000,145.750000
99.754329,145.730970
99.673223,145.676777
99.619030,145.595671
99.600000,145.500000
Z" /> 
<path style="fill:#000000; fill-opacity:1.000000; stroke:none;fill-rule:evenodd;"
d="M 96.600000,136.762500
96.618079,136.671613
96.669562,136.594562
96.746613,136.543079
96.837500,136.525000
97.412500,136.525000
97.503387,136.543079
97.580438,136.594562
97.631921,136.671613
97.650000,136.762500
97.650000,137.237500
97.631921,137.328387
97.580438,137.405438
97.503387,137.456921
97.412500,137.475000
96.837500,137.475000
96.746613,137.456921
96.669562,137.405438
96.618079,137.328387
96.600000,137.237500
Z" /> 
<path style="fill:#000000; fill-opacity:1.000000; stroke:none;fill-rule:evenodd;"
d="M 98.350000,136.762500
98.368079,136.671613
98.419562,136.594562
98.496613,136.543079
98.587500,136.525000
99.162500,136.525000
99.253387,136.543079
99.330438,136.594562
99.381921,136.671613
99.400000,136.762500
99.400000,137.237500
99.381921,137.328387
99.330438,137.405438
99.253387,137.456921
99.162500,137.475000
98.587500,137.475000
98.496613,137.456921
98.419562,137.405438
98.368079,137.328387
98.350000,137.237500
Z" /> 
<path style="fill:#000000; fill-opacity:1.000000; stroke:none;fill-rule:evenodd;"
d="M 114.405000,144.050000
114.347597,144.038582
114.298934,144.006066
114.266418,143.957403
114.255000,143.900000
114.255000,142.600000
114.266418,142.542597
114.298934,142.493934
114.347597,142.461418
114.405000,142.450000
114.705000,142.450000
114.762403,142.461418
114.811066,142.493934
114.843582,142.542597
114.855000,142.600000
114.855000,143.900000
114.843582,143.957403
114.811066,144.006066
114.762403,144.038582
114.705000,144.050000
Z" /> 
<path style="fill:#000000; fill-opacity:1.000000; stroke:none;fill-rule:evenodd;"
d="M 115.675000,144.050000
115.617597,144.038582
115.568934,144.006066
115.536418,143.957403
115.525000,143.900000
115.525000,142.600000
115.536418,142.542597
115.568934,142.493934
115.617597,142.461418
115.675000,142.450000
115.975000,142.450000
116.032403,142.461418
116.081066,142.493934
116.113582,142.542597
116.125000,142.600000
116.125000,143.900000
116.113582,143.957403
116.081066,144.006066
116.032403,144.038582
115.975000,144.050000
Z" /> 
<path style="fill:#000000; fill-opacity:1.000000; stroke:none;fill-rule:evenodd;"
d="M 116.945000,144.050000
116.887597,144.038582
116.838934,144.006066
116.806418,143.957403
116.795000,143.900000
116.795000,142.600000
116.806418,142.542597
116.838934,142.493934
116.887597,142.461418
116.945000,142.450000
117.245000,142.450000
117.302403,142.461418
117.351066,142.493934
117.383582,142.542597
117.395000,142.600000
117.395000,143.900000
117.383582,143.957403
117.351066,144.006066
117.302403,144.038582
117.245000,144.050000
Z" /> 
<path style="fill:#000000; fill-opacity:1.000000; stroke:none;fill-rule:evenodd;"
d="M 118.215000,144.050000
118.157597,144.038582
118.108934,144.006066
118.076418,143.957403
118.065000,143.900000
118.065000,142.600000
118.076418,142.542597
118.108934,142.493934
118.157597,142.461418
118.215000,142.450000
118.515000,142.450000
118.572403,142.461418
118.621066,142.493934
118.653582,142.542597
118.665000,142.600000
118.665000,143.900000
118.653582,143.957403
118.621066,144.006066
118.572403,144.038582
118.515000,144.050000
Z" /> 
<path style="fill:#000000; fill-opacity:1.000000; stroke:none;fill-rule:evenodd;"
d="M 119.485000,144.050000
119.427597,144.038582
119.378934,144.006066
119.346418,143.957403
119.335000,143.900000
119.335000,142.600000
119.346418,142.542597
119.378934,142.493934
119.427597,142.461418
119.485000,142.450000
119.785000,142.450000
119.842403,142.461418
119.891066,142.493934
119.923582,142.542597
119.935000,142.600000
119.935000,143.900000
119.923582,143.957403
119.891066,144.006066
119.842403,144.038582
119.785000,144.050000
Z" /> 
<path style="fill:#000000; fill-opacity:1.000000; stroke:none;fill-rule:evenodd;"
d="M 120.755000,144.050000
120.697597,144.038582
120.648934,144.006066
120.616418,143.957403
120.605000,143.900000
120.605000,142.600000
120.616418,142.542597
120.648934,142.493934
120.697597,142.461418
120.755000,142.450000
121.055000,142.450000
121.112403,142.461418
121.161066,142.493934
121.193582,142.542597
121.205000,142.600000
121.205000,143.900000
121.193582,143.957403
121.161066,144.006066
121.112403,144.038582
121.055000,144.050000
Z" /> 
<path style="fill:#000000; fill-opacity:1.000000; stroke:none;fill-rule:evenodd;"
d="M 122.025000,144.050000
121.967597,144.038582
121.918934,144.006066
121.886418,143.957403
121.875000,143.900000
121.875000,142.600000
121.886418,142.542597
121.918934,142.493934
121.967597,142.461418
122.025000,142.450000
122.325000,142.450000
122.382403,142.461418
122.431066,142.493934
122.463582,142.542597
122.475000,142.600000
122.475000,143.900000
122.463582,143.957403
122.431066,144.006066
122.382403,144.038582
122.325000,144.050000
Z" /> 
<path style="fill:#000000; fill-opacity:1.000000; stroke:none;fill-rule:evenodd;"
d="M 123.295000,144.050000
123.237597,144.038582
123.188934,144.006066
123.156418,143.957403
123.145000,143.900000
123.145000,142.600000
123.156418,142.542597
123.188934,142.493934
123.237597,142.461418
123.295000,142.450000
123.595000,142.450000
123.652403,142.461418
123.701066,142.493934
123.733582,142.542597
123.745000,142.600000
123.745000,143.900000
123.733582,143.957403
123.701066,144.006066
123.652403,144.038582
123.595000,144.050000
Z" /> 
<path style="fill:#000000; fill-opacity:1.000000; stroke:none;fill-rule:evenodd;"
d="M 123.295000,137.550000
123.237597,137.538582
123.188934,137.506066
123.156418,137.457403
123.145000,137.400000
123.145000,136.100000
123.156418,136.042597
123.188934,135.993934
123.237597,135.961418
123.295000,135.950000
123.595000,135.950000
123.652403,135.961418
123.701066,135.993934
123.733582,136.042597
123.745000,136.100000
123.745000,137.400000
123.733582,137.457403
123.701066,137.506066
123.652403,137.538582
123.595000,137.550000
Z" /> 
<path style="fill:#000000; fill-opacity:1.000000; stroke:none;fill-rule:evenodd;"
d="M 122.025000,137.550000
121.967597,137.538582
121.918934,137.506066
121.886418,137.457403
121.875000,137.400000
121.875000,136.100000
121.886418,136.042597
121.918934,135.993934
121.967597,135.961418
122.025000,135.950000
122.325000,135.950000
122.382403,135.961418
122.431066,135.993934
122.463582,136.042597
122.475000,136.100000
122.475000,137.400000
122.463582,137.457403
122.431066,137.506066
122.382403,137.538582
122.325000,137.550000
Z" /> 
<path style="fill:#000000; fill-opacity:1.000000; stroke:none;fill-rule:evenodd;"
d="M 120.755000,137.550000
120.697597,137.538582
120.648934,137.506066
120.616418,137.457403
120.605000,137.400000
120.605000,136.100000
120.616418,136.042597
120.648934,135.993934
120.697597,135.961418
120.755000,135.950000
121.055000,135.950000
121.112403,135.961418
121.161066,135.993934
121.193582,136.042597
121.205000,136.100000
121.205000,137.400000
121.193582,137.457403
121.161066,137.506066
121.112403,137.538582
121.055000,137.550000
Z" /> 
<path style="fill:#000000; fill-opacity:1.000000; stroke:none;fill-rule:evenodd;"
d="M 119.485000,137.550000
119.427597,137.538582
119.378934,137.506066
119.346418,137.457403
119.335000,137.400000
119.335000,136.100000
119.346418,136.042597
119.378934,135.993934
119.427597,135.961418
119.485000,135.950000
119.785000,135.950000
119.842403,135.961418
119.891066,135.993934
119.923582,136.042597
119.935000,136.100000
119.935000,137.400000
119.923582,137.457403
119.891066,137.506066
119.842403,137.538582
119.785000,137.550000
Z" /> 
<path style="fill:#000000; fill-opacity:1.000000; stroke:none;fill-rule:evenodd;"
d="M 118.215000,137.550000
118.157597,137.538582
118.108934,137.506066
118.076418,137.457403
118.065000,137.400000
118.065000,136.100000
118.076418,136.042597
118.108934,135.993934
118.157597,135.961418
118.215000,135.950000
118.515000,135.950000
118.572403,135.961418
118.621066,135.993934
118.653582,136.042597
118.665000,136.100000
118.665000,137.400000
118.653582,137.457403
118.621066,137.506066
118.572403,137.538582
118.515000,137.550000
Z" /> 
<path style="fill:#000000; fill-opacity:1.000000; stroke:none;fill-rule:evenodd;"
d="M 116.945000,137.550000
116.887597,137.538582
116.838934,137.506066
116.806418,137.457403
116.795000,137.400000
116.795000,136.100000
116.806418,136.042597
116.838934,135.993934
116.887597,135.961418
116.945000,135.950000
117.245000,135.950000
117.302403,135.961418
117.351066,135.993934
117.383582,136.042597
117.395000,136.100000
117.395000,137.400000
117.383582,137.457403
117.351066,137.506066
117.302403,137.538582
117.245000,137.550000
Z" /> 
<path style="fill:#000000; fill-opacity:1.000000; stroke:none;fill-rule:evenodd;"
d="M 115.675000,137.550000
115.617597,137.538582
115.568934,137.506066
115.536418,137.457403
115.525000,137.400000
115.525000,136.100000
115.536418,136.042597
115.568934,135.993934
115.617597,135.961418
115.675000,135.950000
115.975000,135.950000
116.032403,135.961418
116.081066,135.993934
116.113582,136.042597
116.125000,136.100000
116.125000,137.400000
116.113582,137.457403
116.081066,137.506066
116.032403,137.538582
115.975000,137.550000
Z" /> 
<path style="fill:#000000; fill-opacity:1.000000; stroke:none;fill-rule:evenodd;"
d="M 114.405000,137.550000
114.347597,137.538582
114.298934,137.506066
114.266418,137.457403
114.255000,137.400000
114.255000,136.100000
114.266418,136.042597
114.298934,135.993934
114.347597,135.961418
114.405000,135.950000
114.705000,135.950000
114.762403,135.961418
114.811066,135.993934
114.843582,136.042597
114.855000,136.100000
114.855000,137.400000
114.843582,137.457403
114.811066,137.506066
114.762403,137.538582
114.705000,137.550000
Z" /> 
<path style="fill:#000000; fill-opacity:1.000000; stroke:none;fill-rule:evenodd;"
d="M 80.100000,136.762500
80.118079,136.671613
80.169562,136.594562
80.246613,136.543079
80.337500,136.525000
80.937500,136.525000
81.028387,136.543079
81.105438,136.594562
81.156921,136.671613
81.175000,136.762500
81.175000,137.237500
81.156921,137.328387
81.105438,137.405438
81.028387,137.456921
80.937500,137.475000
80.337500,137.475000
80.246613,137.456921
80.169562,137.405438
80.118079,137.328387
80.100000,137.237500
Z" /> 
<path style="fill:#000000; fill-opacity:1.000000; stroke:none;fill-rule:evenodd;"
d="M 81.825000,136.762500
81.843079,136.671613
81.894562,136.594562
81.971613,136.543079
82.062500,136.525000
82.662500,136.525000
82.753387,136.543079
82.830438,136.594562
82.881921,136.671613
82.900000,136.762500
82.900000,137.237500
82.881921,137.328387
82.830438,137.405438
82.753387,137.456921
82.662500,137.475000
82.062500,137.475000
81.971613,137.456921
81.894562,137.405438
81.843079,137.328387
81.825000,137.237500
Z" /> 
<path style="fill:#000000; fill-opacity:1.000000; stroke:none;fill-rule:evenodd;"
d="M 72.912500,155.782500
72.930579,155.691613
72.982062,155.614562
73.059113,155.563079
73.150000,155.545000
73.650000,155.545000
73.740887,155.563079
73.817938,155.614562
73.869421,155.691613
73.887500,155.782500
73.887500,156.257500
73.869421,156.348387
73.817938,156.425438
73.740887,156.476921
73.650000,156.495000
73.150000,156.495000
73.059113,156.476921
72.982062,156.425438
72.930579,156.348387
72.912500,156.257500
Z" /> 
<path style="fill:#000000; fill-opacity:1.000000; stroke:none;fill-rule:evenodd;"
d="M 74.737500,155.782500
74.755579,155.691613
74.807062,155.614562
74.884113,155.563079
74.975000,155.545000
75.475000,155.545000
75.565887,155.563079
75.642938,155.614562
75.694421,155.691613
75.712500,155.782500
75.712500,156.257500
75.694421,156.348387
75.642938,156.425438
75.565887,156.476921
75.475000,156.495000
74.975000,156.495000
74.884113,156.476921
74.807062,156.425438
74.755579,156.348387
74.737500,156.257500
Z" /> 
<path style="fill:#000000; fill-opacity:1.000000; stroke:none;fill-rule:evenodd;"
d="M 125.237500,117.100000
125.328387,117.118079
125.405438,117.169562
125.456921,117.246613
125.475000,117.337500
125.475000,117.937500
125.456921,118.028387
125.405438,118.105438
125.328387,118.156921
125.237500,118.175000
124.762500,118.175000
124.671613,118.156921
124.594562,118.105438
124.543079,118.028387
124.525000,117.937500
124.525000,117.337500
124.543079,117.246613
124.594562,117.169562
124.671613,117.118079
124.762500,117.100000
Z" /> 
<path style="fill:#000000; fill-opacity:1.000000; stroke:none;fill-rule:evenodd;"
d="M 125.237500,118.825000
125.328387,118.843079
125.405438,118.894562
125.456921,118.971613
125.475000,119.062500
125.475000,119.662500
125.456921,119.753387
125.405438,119.830438
125.328387,119.881921
125.237500,119.900000
124.762500,119.900000
124.671613,119.881921
124.594562,119.830438
124.543079,119.753387
124.525000,119.662500
124.525000,119.062500
124.543079,118.971613
124.594562,118.894562
124.671613,118.843079
124.762500,118.825000
Z" /> 
<path style="fill:#000000; fill-opacity:1.000000; stroke:none;fill-rule:evenodd;"
d="M 137.237500,119.850000
137.328387,119.868079
137.405438,119.919562
137.456921,119.996613
137.475000,120.087500
137.475000,120.587500
137.456921,120.678387
137.405438,120.755438
137.328387,120.806921
137.237500,120.825000
136.762500,120.825000
136.671613,120.806921
136.594562,120.755438
136.543079,120.678387
136.525000,120.587500
136.525000,120.087500
136.543079,119.996613
136.594562,119.919562
136.671613,119.868079
136.762500,119.850000
Z" /> 
<path style="fill:#000000; fill-opacity:1.000000; stroke:none;fill-rule:evenodd;"
d="M 137.237500,121.675000
137.328387,121.693079
137.405438,121.744562
137.456921,121.821613
137.475000,121.912500
137.475000,122.412500
137.456921,122.503387
137.405438,122.580438
137.328387,122.631921
137.237500,122.650000
136.762500,122.650000
136.671613,122.631921
136.594562,122.580438
136.543079,122.503387
136.525000,122.412500
136.525000,121.912500
136.543079,121.821613
136.594562,121.744562
136.671613,121.693079
136.762500,121.675000
Z" /> 
<path style="fill:#000000; fill-opacity:1.000000; stroke:none;fill-rule:evenodd;"
d="M 120.262500,119.900000
120.171613,119.881921
120.094562,119.830438
120.043079,119.753387
120.025000,119.662500
120.025000,119.062500
120.043079,118.971613
120.094562,118.894562
120.171613,118.843079
120.262500,118.825000
120.737500,118.825000
120.828387,118.843079
120.905438,118.894562
120.956921,118.971613
120.975000,119.062500
120.975000,119.662500
120.956921,119.753387
120.905438,119.830438
120.828387,119.881921
120.737500,119.900000
Z" /> 
<path style="fill:#000000; fill-opacity:1.000000; stroke:none;fill-rule:evenodd;"
d="M 120.262500,118.175000
120.171613,118.156921
120.094562,118.105438
120.043079,118.028387
120.025000,117.937500
120.025000,117.337500
120.043079,117.246613
120.094562,117.169562
120.171613,117.118079
120.262500,117.100000
120.737500,117.100000
120.828387,117.118079
120.905438,117.169562
120.956921,117.246613
120.975000,117.337500
120.975000,117.937500
120.956921,118.028387
120.905438,118.105438
120.828387,118.156921
120.737500,118.175000
Z" /> 
<path style="fill:#000000; fill-opacity:1.000000; stroke:none;fill-rule:evenodd;"
d="M 72.912500,153.272500
72.930579,153.181613
72.982062,153.104562
73.059113,153.053079
73.150000,153.035000
73.650000,153.035000
73.740887,153.053079
73.817938,153.104562
73.869421,153.181613
73.887500,153.272500
73.887500,153.747500
73.869421,153.838387
73.817938,153.915438
73.740887,153.966921
73.650000,153.985000
73.150000,153.985000
73.059113,153.966921
72.982062,153.915438
72.930579,153.838387
72.912500,153.747500
Z" /> 
<path style="fill:#000000; fill-opacity:1.000000; stroke:none;fill-rule:evenodd;"
d="M 74.737500,153.272500
74.755579,153.181613
74.807062,153.104562
74.884113,153.053079
74.975000,153.035000
75.475000,153.035000
75.565887,153.053079
75.642938,153.104562
75.694421,153.181613
75.712500,153.272500
75.712500,153.747500
75.694421,153.838387
75.642938,153.915438
75.565887,153.966921
75.475000,153.985000
74.975000,153.985000
74.884113,153.966921
74.807062,153.915438
74.755579,153.838387
74.737500,153.747500
Z" /> 
<path style="fill:#000000; fill-opacity:1.000000; stroke:none;fill-rule:evenodd;"
d="M 116.237500,117.737500
116.219421,117.828387
116.167938,117.905438
116.090887,117.956921
116.000000,117.975000
115.500000,117.975000
115.409113,117.956921
115.332062,117.905438
115.280579,117.828387
115.262500,117.737500
115.262500,117.262500
115.280579,117.171613
115.332062,117.094562
115.409113,117.043079
115.500000,117.025000
116.000000,117.025000
116.090887,117.043079
116.167938,117.094562
116.219421,117.171613
116.237500,117.262500
Z" /> 
<path style="fill:#000000; fill-opacity:1.000000; stroke:none;fill-rule:evenodd;"
d="M 114.412500,117.737500
114.394421,117.828387
114.342938,117.905438
114.265887,117.956921
114.175000,117.975000
113.675000,117.975000
113.584113,117.956921
113.507062,117.905438
113.455579,117.828387
113.437500,117.737500
113.437500,117.262500
113.455579,117.171613
113.507062,117.094562
113.584113,117.043079
113.675000,117.025000
114.175000,117.025000
114.265887,117.043079
114.342938,117.094562
114.394421,117.171613
114.412500,117.262500
Z" /> 
<path style="fill:#000000; fill-opacity:1.000000; stroke:none;fill-rule:evenodd;"
d="M 142.012500,122.400000
141.921613,122.381921
141.844562,122.330438
141.793079,122.253387
141.775000,122.162500
141.775000,121.562500
141.793079,121.471613
141.844562,121.394562
141.921613,121.343079
142.012500,121.325000
142.487500,121.325000
142.578387,121.343079
142.655438,121.394562
142.706921,121.471613
142.725000,121.562500
142.725000,122.162500
142.706921,122.253387
142.655438,122.330438
142.578387,122.381921
142.487500,122.400000
Z" /> 
<path style="fill:#000000; fill-opacity:1.000000; stroke:none;fill-rule:evenodd;"
d="M 142.012500,120.675000
141.921613,120.656921
141.844562,120.605438
141.793079,120.528387
141.775000,120.437500
141.775000,119.837500
141.793079,119.746613
141.844562,119.669562
141.921613,119.618079
142.012500,119.600000
142.487500,119.600000
142.578387,119.618079
142.655438,119.669562
142.706921,119.746613
142.725000,119.837500
142.725000,120.437500
142.706921,120.528387
142.655438,120.605438
142.578387,120.656921
142.487500,120.675000
Z" /> 
<path style="fill:#000000; fill-opacity:1.000000; stroke:none;fill-rule:evenodd;"
d="M 122.012500,132.812500
121.921613,132.794421
121.844562,132.742938
121.793079,132.665887
121.775000,132.575000
121.775000,132.075000
121.793079,131.984113
121.844562,131.907062
121.921613,131.855579
122.012500,131.837500
122.487500,131.837500
122.578387,131.855579
122.655438,131.907062
122.706921,131.984113
122.725000,132.075000
122.725000,132.575000
122.706921,132.665887
122.655438,132.742938
122.578387,132.794421
122.487500,132.812500
Z" /> 
<path style="fill:#000000; fill-opacity:1.000000; stroke:none;fill-rule:evenodd;"
d="M 122.012500,130.987500
121.921613,130.969421
121.844562,130.917938
121.793079,130.840887
121.775000,130.750000
121.775000,130.250000
121.793079,130.159113
121.844562,130.082062
121.921613,130.030579
122.012500,130.012500
122.487500,130.012500
122.578387,130.030579
122.655438,130.082062
122.706921,130.159113
122.725000,130.250000
122.725000,130.750000
122.706921,130.840887
122.655438,130.917938
122.578387,130.969421
122.487500,130.987500
Z" /> 
<path style="fill:#000000; fill-opacity:1.000000; stroke:none;fill-rule:evenodd;"
d="M 122.512500,119.900000
122.421613,119.881921
122.344562,119.830438
122.293079,119.753387
122.275000,119.662500
122.275000,119.162500
122.293079,119.071613
122.344562,118.994562
122.421613,118.943079
122.512500,118.925000
122.987500,118.925000
123.078387,118.943079
123.155438,118.994562
123.206921,119.071613
123.225000,119.162500
123.225000,119.662500
123.206921,119.753387
123.155438,119.830438
123.078387,119.881921
122.987500,119.900000
Z" /> 
<path style="fill:#000000; fill-opacity:1.000000; stroke:none;fill-rule:evenodd;"
d="M 122.512500,118.075000
122.421613,118.056921
122.344562,118.005438
122.293079,117.928387
122.275000,117.837500
122.275000,117.337500
122.293079,117.246613
122.344562,117.169562
122.421613,117.118079
122.512500,117.100000
122.987500,117.100000
123.078387,117.118079
123.155438,117.169562
123.206921,117.246613
123.225000,117.337500
123.225000,117.837500
123.206921,117.928387
123.155438,118.005438
123.078387,118.056921
122.987500,118.075000
Z" /> 
<path style="fill:#000000; fill-opacity:1.000000; stroke:none;fill-rule:evenodd;"
d="M 72.912500,148.252500
72.930579,148.161613
72.982062,148.084562
73.059113,148.033079
73.150000,148.015000
73.650000,148.015000
73.740887,148.033079
73.817938,148.084562
73.869421,148.161613
73.887500,148.252500
73.887500,148.727500
73.869421,148.818387
73.817938,148.895438
73.740887,148.946921
73.650000,148.965000
73.150000,148.965000
73.059113,148.946921
72.982062,148.895438
72.930579,148.818387
72.912500,148.727500
Z" /> 
<path style="fill:#000000; fill-opacity:1.000000; stroke:none;fill-rule:evenodd;"
d="M 74.737500,148.252500
74.755579,148.161613
74.807062,148.084562
74.884113,148.033079
74.975000,148.015000
75.475000,148.015000
75.565887,148.033079
75.642938,148.084562
75.694421,148.161613
75.712500,148.252500
75.712500,148.727500
75.694421,148.818387
75.642938,148.895438
75.565887,148.946921
75.475000,148.965000
74.975000,148.965000
74.884113,148.946921
74.807062,148.895438
74.755579,148.818387
74.737500,148.727500
Z" /> 
<path style="fill:#000000; fill-opacity:1.000000; stroke:none;fill-rule:evenodd;"
d="M 72.737500,143.232500
72.755579,143.141613
72.807062,143.064562
72.884113,143.013079
72.975000,142.995000
73.475000,142.995000
73.565887,143.013079
73.642938,143.064562
73.694421,143.141613
73.712500,143.232500
73.712500,143.707500
73.694421,143.798387
73.642938,143.875438
73.565887,143.926921
73.475000,143.945000
72.975000,143.945000
72.884113,143.926921
72.807062,143.875438
72.755579,143.798387
72.737500,143.707500
Z" /> 
<path style="fill:#000000; fill-opacity:1.000000; stroke:none;fill-rule:evenodd;"
d="M 74.562500,143.232500
74.580579,143.141613
74.632062,143.064562
74.709113,143.013079
74.800000,142.995000
75.300000,142.995000
75.390887,143.013079
75.467938,143.064562
75.519421,143.141613
75.537500,143.232500
75.537500,143.707500
75.519421,143.798387
75.467938,143.875438
75.390887,143.926921
75.300000,143.945000
74.800000,143.945000
74.709113,143.926921
74.632062,143.875438
74.580579,143.798387
74.562500,143.707500
Z" /> 
<path style="fill:#000000; fill-opacity:1.000000; stroke:none;fill-rule:evenodd;"
d="M 117.512500,119.900000
117.421613,119.881921
117.344562,119.830438
117.293079,119.753387
117.275000,119.662500
117.275000,119.062500
117.293079,118.971613
117.344562,118.894562
117.421613,118.843079
117.512500,118.825000
117.987500,118.825000
118.078387,118.843079
118.155438,118.894562
118.206921,118.971613
118.225000,119.062500
118.225000,119.662500
118.206921,119.753387
118.155438,119.830438
118.078387,119.881921
117.987500,119.900000
Z" /> 
<path style="fill:#000000; fill-opacity:1.000000; stroke:none;fill-rule:evenodd;"
d="M 117.512500,118.175000
117.421613,118.156921
117.344562,118.105438
117.293079,118.028387
117.275000,117.937500
117.275000,117.337500
117.293079,117.246613
117.344562,117.169562
117.421613,117.118079
117.512500,117.100000
117.987500,117.100000
118.078387,117.118079
118.155438,117.169562
118.206921,117.246613
118.225000,117.337500
118.225000,117.937500
118.206921,118.028387
118.155438,118.105438
118.078387,118.156921
117.987500,118.175000
Z" /> 
<path style="fill:#000000; fill-opacity:1.000000; stroke:none;fill-rule:evenodd;"
d="M 72.737500,145.822500
72.755579,145.731613
72.807062,145.654562
72.884113,145.603079
72.975000,145.585000
73.475000,145.585000
73.565887,145.603079
73.642938,145.654562
73.694421,145.731613
73.712500,145.822500
73.712500,146.297500
73.694421,146.388387
73.642938,146.465438
73.565887,146.516921
73.475000,146.535000
72.975000,146.535000
72.884113,146.516921
72.807062,146.465438
72.755579,146.388387
72.737500,146.297500
Z" /> 
<path style="fill:#000000; fill-opacity:1.000000; stroke:none;fill-rule:evenodd;"
d="M 74.562500,145.822500
74.580579,145.731613
74.632062,145.654562
74.709113,145.603079
74.800000,145.585000
75.300000,145.585000
75.390887,145.603079
75.467938,145.654562
75.519421,145.731613
75.537500,145.822500
75.537500,146.297500
75.519421,146.388387
75.467938,146.465438
75.390887,146.516921
75.300000,146.535000
74.800000,146.535000
74.709113,146.516921
74.632062,146.465438
74.580579,146.388387
74.562500,146.297500
Z" /> 
<path style="fill:#000000; fill-opacity:1.000000; stroke:none;fill-rule:evenodd;"
d="M 115.177500,128.950000
115.120097,128.938582
115.071434,128.906066
115.038918,128.857403
115.027500,128.800000
115.027500,127.150000
115.038918,127.092597
115.071434,127.043934
115.120097,127.011418
115.177500,127.000000
115.477500,127.000000
115.534903,127.011418
115.583566,127.043934
115.616082,127.092597
115.627500,127.150000
115.627500,128.800000
115.616082,128.857403
115.583566,128.906066
115.534903,128.938582
115.477500,128.950000
Z" /> 
<path style="fill:#000000; fill-opacity:1.000000; stroke:none;fill-rule:evenodd;"
d="M 116.447500,128.950000
116.390097,128.938582
116.341434,128.906066
116.308918,128.857403
116.297500,128.800000
116.297500,127.150000
116.308918,127.092597
116.341434,127.043934
116.390097,127.011418
116.447500,127.000000
116.747500,127.000000
116.804903,127.011418
116.853566,127.043934
116.886082,127.092597
116.897500,127.150000
116.897500,128.800000
116.886082,128.857403
116.853566,128.906066
116.804903,128.938582
116.747500,128.950000
Z" /> 
<path style="fill:#000000; fill-opacity:1.000000; stroke:none;fill-rule:evenodd;"
d="M 117.717500,128.950000
117.660097,128.938582
117.611434,128.906066
117.578918,128.857403
117.567500,128.800000
117.567500,127.150000
117.578918,127.092597
117.611434,127.043934
117.660097,127.011418
117.717500,127.000000
118.017500,127.000000
118.074903,127.011418
118.123566,127.043934
118.156082,127.092597
118.167500,127.150000
118.167500,128.800000
118.156082,128.857403
118.123566,128.906066
118.074903,128.938582
118.017500,128.950000
Z" /> 
<path style="fill:#000000; fill-opacity:1.000000; stroke:none;fill-rule:evenodd;"
d="M 118.987500,128.950000
118.930097,128.938582
118.881434,128.906066
118.848918,128.857403
118.837500,128.800000
118.837500,127.150000
118.848918,127.092597
118.881434,127.043934
118.930097,127.011418
118.987500,127.000000
119.287500,127.000000
119.344903,127.011418
119.393566,127.043934
119.426082,127.092597
119.437500,127.150000
119.437500,128.800000
119.426082,128.857403
119.393566,128.906066
119.344903,128.938582
119.287500,128.950000
Z" /> 
<path style="fill:#000000; fill-opacity:1.000000; stroke:none;fill-rule:evenodd;"
d="M 120.257500,128.950000
120.200097,128.938582
120.151434,128.906066
120.118918,128.857403
120.107500,128.800000
120.107500,127.150000
120.118918,127.092597
120.151434,127.043934
120.200097,127.011418
120.257500,127.000000
120.557500,127.000000
120.614903,127.011418
120.663566,127.043934
120.696082,127.092597
120.707500,127.150000
120.707500,128.800000
120.696082,128.857403
120.663566,128.906066
120.614903,128.938582
120.557500,128.950000
Z" /> 
<path style="fill:#000000; fill-opacity:1.000000; stroke:none;fill-rule:evenodd;"
d="M 121.527500,128.950000
121.470097,128.938582
121.421434,128.906066
121.388918,128.857403
121.377500,128.800000
121.377500,127.150000
121.388918,127.092597
121.421434,127.043934
121.470097,127.011418
121.527500,127.000000
121.827500,127.000000
121.884903,127.011418
121.933566,127.043934
121.966082,127.092597
121.977500,127.150000
121.977500,128.800000
121.966082,128.857403
121.933566,128.906066
121.884903,128.938582
121.827500,128.950000
Z" /> 
<path style="fill:#000000; fill-opacity:1.000000; stroke:none;fill-rule:evenodd;"
d="M 122.797500,128.950000
122.740097,128.938582
122.691434,128.906066
122.658918,128.857403
122.647500,128.800000
122.647500,127.150000
122.658918,127.092597
122.691434,127.043934
122.740097,127.011418
122.797500,127.000000
123.097500,127.000000
123.154903,127.011418
123.203566,127.043934
123.236082,127.092597
123.247500,127.150000
123.247500,128.800000
123.236082,128.857403
123.203566,128.906066
123.154903,128.938582
123.097500,128.950000
Z" /> 
<path style="fill:#000000; fill-opacity:1.000000; stroke:none;fill-rule:evenodd;"
d="M 122.797500,124.000000
122.740097,123.988582
122.691434,123.956066
122.658918,123.907403
122.647500,123.850000
122.647500,122.200000
122.658918,122.142597
122.691434,122.093934
122.740097,122.061418
122.797500,122.050000
123.097500,122.050000
123.154903,122.061418
123.203566,122.093934
123.236082,122.142597
123.247500,122.200000
123.247500,123.850000
123.236082,123.907403
123.203566,123.956066
123.154903,123.988582
123.097500,124.000000
Z" /> 
<path style="fill:#000000; fill-opacity:1.000000; stroke:none;fill-rule:evenodd;"
d="M 121.527500,124.000000
121.470097,123.988582
121.421434,123.956066
121.388918,123.907403
121.377500,123.850000
121.377500,122.200000
121.388918,122.142597
121.421434,122.093934
121.470097,122.061418
121.527500,122.050000
121.827500,122.050000
121.884903,122.061418
121.933566,122.093934
121.966082,122.142597
121.977500,122.200000
121.977500,123.850000
121.966082,123.907403
121.933566,123.956066
121.884903,123.988582
121.827500,124.000000
Z" /> 
<path style="fill:#000000; fill-opacity:1.000000; stroke:none;fill-rule:evenodd;"
d="M 120.257500,124.000000
120.200097,123.988582
120.151434,123.956066
120.118918,123.907403
120.107500,123.850000
120.107500,122.200000
120.118918,122.142597
120.151434,122.093934
120.200097,122.061418
120.257500,122.050000
120.557500,122.050000
120.614903,122.061418
120.663566,122.093934
120.696082,122.142597
120.707500,122.200000
120.707500,123.850000
120.696082,123.907403
120.663566,123.956066
120.614903,123.988582
120.557500,124.000000
Z" /> 
<path style="fill:#000000; fill-opacity:1.000000; stroke:none;fill-rule:evenodd;"
d="M 118.987500,124.000000
118.930097,123.988582
118.881434,123.956066
118.848918,123.907403
118.837500,123.850000
118.837500,122.200000
118.848918,122.142597
118.881434,122.093934
118.930097,122.061418
118.987500,122.050000
119.287500,122.050000
119.344903,122.061418
119.393566,122.093934
119.426082,122.142597
119.437500,122.200000
119.437500,123.850000
119.426082,123.907403
119.393566,123.956066
119.344903,123.988582
119.287500,124.000000
Z" /> 
<path style="fill:#000000; fill-opacity:1.000000; stroke:none;fill-rule:evenodd;"
d="M 117.717500,124.000000
117.660097,123.988582
117.611434,123.956066
117.578918,123.907403
117.567500,123.850000
117.567500,122.200000
117.578918,122.142597
117.611434,122.093934
117.660097,122.061418
117.717500,122.050000
118.017500,122.050000
118.074903,122.061418
118.123566,122.093934
118.156082,122.142597
118.167500,122.200000
118.167500,123.850000
118.156082,123.907403
118.123566,123.956066
118.074903,123.988582
118.017500,124.000000
Z" /> 
<path style="fill:#000000; fill-opacity:1.000000; stroke:none;fill-rule:evenodd;"
d="M 116.447500,124.000000
116.390097,123.988582
116.341434,123.956066
116.308918,123.907403
116.297500,123.850000
116.297500,122.200000
116.308918,122.142597
116.341434,122.093934
116.390097,122.061418
116.447500,122.050000
116.747500,122.050000
116.804903,122.061418
116.853566,122.093934
116.886082,122.142597
116.897500,122.200000
116.897500,123.850000
116.886082,123.907403
116.853566,123.956066
116.804903,123.988582
116.747500,124.000000
Z" /> 
<path style="fill:#000000; fill-opacity:1.000000; stroke:none;fill-rule:evenodd;"
d="M 115.177500,124.000000
115.120097,123.988582
115.071434,123.956066
115.038918,123.907403
115.027500,123.850000
115.027500,122.200000
115.038918,122.142597
115.071434,122.093934
115.120097,122.061418
115.177500,122.050000
115.477500,122.050000
115.534903,122.061418
115.583566,122.093934
115.616082,122.142597
115.627500,122.200000
115.627500,123.850000
115.616082,123.907403
115.583566,123.956066
115.534903,123.988582
115.477500,124.000000
Z" /> 
<path style="fill:#000000; fill-opacity:1.000000; stroke:none;fill-rule:evenodd;"
d="M 131.727100,118.287500
131.636213,118.269421
131.559162,118.217938
131.507679,118.140887
131.489600,118.050000
131.489600,117.450000
131.507679,117.359113
131.559162,117.282062
131.636213,117.230579
131.727100,117.212500
132.202100,117.212500
132.292987,117.230579
132.370038,117.282062
132.421521,117.359113
132.439600,117.450000
132.439600,118.050000
132.421521,118.140887
132.370038,118.217938
132.292987,118.269421
132.202100,118.287500
Z" /> 
<path style="fill:#000000; fill-opacity:1.000000; stroke:none;fill-rule:evenodd;"
d="M 131.727100,116.562500
131.636213,116.544421
131.559162,116.492938
131.507679,116.415887
131.489600,116.325000
131.489600,115.725000
131.507679,115.634113
131.559162,115.557062
131.636213,115.505579
131.727100,115.487500
132.202100,115.487500
132.292987,115.505579
132.370038,115.557062
132.421521,115.634113
132.439600,115.725000
132.439600,116.325000
132.421521,116.415887
132.370038,116.492938
132.292987,116.544421
132.202100,116.562500
Z" /> 
<path style="fill:#000000; fill-opacity:1.000000; stroke:none;fill-rule:evenodd;"
d="M 90.450000,136.350000
90.469030,136.254329
90.523223,136.173223
90.604329,136.119030
90.700000,136.100000
91.350000,136.100000
91.445671,136.119030
91.526777,136.173223
91.580970,136.254329
91.600000,136.350000
91.600000,137.650000
91.580970,137.745671
91.526777,137.826777
91.445671,137.880970
91.350000,137.900000
90.700000,137.900000
90.604329,137.880970
90.523223,137.826777
90.469030,137.745671
90.450000,137.650000
Z" /> 
<path style="fill:#000000; fill-opacity:1.000000; stroke:none;fill-rule:evenodd;"
d="M 93.400000,136.350000
93.419030,136.254329
93.473223,136.173223
93.554329,136.119030
93.650000,136.100000
94.300000,136.100000
94.395671,136.119030
94.476777,136.173223
94.530970,136.254329
94.550000,136.350000
94.550000,137.650000
94.530970,137.745671
94.476777,137.826777
94.395671,137.880970
94.300000,137.900000
93.650000,137.900000
93.554329,137.880970
93.473223,137.826777
93.419030,137.745671
93.400000,137.650000
Z" /> 
<path style="fill:#000000; fill-opacity:1.000000; stroke:none;fill-rule:evenodd;"
d="M 72.912500,150.762500
72.930579,150.671613
72.982062,150.594562
73.059113,150.543079
73.150000,150.525000
73.650000,150.525000
73.740887,150.543079
73.817938,150.594562
73.869421,150.671613
73.887500,150.762500
73.887500,151.237500
73.869421,151.328387
73.817938,151.405438
73.740887,151.456921
73.650000,151.475000
73.150000,151.475000
73.059113,151.456921
72.982062,151.405438
72.930579,151.328387
72.912500,151.237500
Z" /> 
<path style="fill:#000000; fill-opacity:1.000000; stroke:none;fill-rule:evenodd;"
d="M 74.737500,150.762500
74.755579,150.671613
74.807062,150.594562
74.884113,150.543079
74.975000,150.525000
75.475000,150.525000
75.565887,150.543079
75.642938,150.594562
75.694421,150.671613
75.712500,150.762500
75.712500,151.237500
75.694421,151.328387
75.642938,151.405438
75.565887,151.456921
75.475000,151.475000
74.975000,151.475000
74.884113,151.456921
74.807062,151.405438
74.755579,151.328387
74.737500,151.237500
Z" /> 
<path style="fill:#000000; fill-opacity:1.000000; stroke:none;fill-rule:evenodd;"
d="M 100.950000,135.850000
100.969030,135.754329
101.023223,135.673223
101.104329,135.619030
101.200000,135.600000
101.850000,135.600000
101.945671,135.619030
102.026777,135.673223
102.080970,135.754329
102.100000,135.850000
102.100000,137.150000
102.080970,137.245671
102.026777,137.326777
101.945671,137.380970
101.850000,137.400000
101.200000,137.400000
101.104329,137.380970
101.023223,137.326777
100.969030,137.245671
100.950000,137.150000
Z" /> 
<path style="fill:#000000; fill-opacity:1.000000; stroke:none;fill-rule:evenodd;"
d="M 103.900000,135.850000
103.919030,135.754329
103.973223,135.673223
104.054329,135.619030
104.150000,135.600000
104.800000,135.600000
104.895671,135.619030
104.976777,135.673223
105.030970,135.754329
105.050000,135.850000
105.050000,137.150000
105.030970,137.245671
104.976777,137.326777
104.895671,137.380970
104.800000,137.400000
104.150000,137.400000
104.054329,137.380970
103.973223,137.326777
103.919030,137.245671
103.900000,137.150000
Z" /> 
<path style="fill:#000000; fill-opacity:1.000000; stroke:none;fill-rule:evenodd;"
d="M 142.002100,118.287500
141.911213,118.269421
141.834162,118.217938
141.782679,118.140887
141.764600,118.050000
141.764600,117.450000
141.782679,117.359113
141.834162,117.282062
141.911213,117.230579
142.002100,117.212500
142.477100,117.212500
142.567987,117.230579
142.645038,117.282062
142.696521,117.359113
142.714600,117.450000
142.714600,118.050000
142.696521,118.140887
142.645038,118.217938
142.567987,118.269421
142.477100,118.287500
Z" /> 
<path style="fill:#000000; fill-opacity:1.000000; stroke:none;fill-rule:evenodd;"
d="M 142.002100,116.562500
141.911213,116.544421
141.834162,116.492938
141.782679,116.415887
141.764600,116.325000
141.764600,115.725000
141.782679,115.634113
141.834162,115.557062
141.911213,115.505579
142.002100,115.487500
142.477100,115.487500
142.567987,115.505579
142.645038,115.557062
142.696521,115.634113
142.714600,115.725000
142.714600,116.325000
142.696521,116.415887
142.645038,116.492938
142.567987,116.544421
142.477100,116.562500
Z" /> 
<path style="fill:#000000; fill-opacity:1.000000; stroke:none;fill-rule:evenodd;"
d="M 131.762500,122.400000
131.671613,122.381921
131.594562,122.330438
131.543079,122.253387
131.525000,122.162500
131.525000,121.562500
131.543079,121.471613
131.594562,121.394562
131.671613,121.343079
131.762500,121.325000
132.237500,121.325000
132.328387,121.343079
132.405438,121.394562
132.456921,121.471613
132.475000,121.562500
132.475000,122.162500
132.456921,122.253387
132.405438,122.330438
132.328387,122.381921
132.237500,122.400000
Z" /> 
<path style="fill:#000000; fill-opacity:1.000000; stroke:none;fill-rule:evenodd;"
d="M 131.762500,120.675000
131.671613,120.656921
131.594562,120.605438
131.543079,120.528387
131.525000,120.437500
131.525000,119.837500
131.543079,119.746613
131.594562,119.669562
131.671613,119.618079
131.762500,119.600000
132.237500,119.600000
132.328387,119.618079
132.405438,119.669562
132.456921,119.746613
132.475000,119.837500
132.475000,120.437500
132.456921,120.528387
132.405438,120.605438
132.328387,120.656921
132.237500,120.675000
Z" /> 
<path style="fill:#000000; fill-opacity:1.000000; stroke:none;fill-rule:evenodd;"
d="M 137.252100,115.487500
137.342987,115.505579
137.420038,115.557062
137.471521,115.634113
137.489600,115.725000
137.489600,116.225000
137.471521,116.315887
137.420038,116.392938
137.342987,116.444421
137.252100,116.462500
136.777100,116.462500
136.686213,116.444421
136.609162,116.392938
136.557679,116.315887
136.539600,116.225000
136.539600,115.725000
136.557679,115.634113
136.609162,115.557062
136.686213,115.505579
136.777100,115.487500
Z" /> 
<path style="fill:#000000; fill-opacity:1.000000; stroke:none;fill-rule:evenodd;"
d="M 137.252100,117.312500
137.342987,117.330579
137.420038,117.382062
137.471521,117.459113
137.489600,117.550000
137.489600,118.050000
137.471521,118.140887
137.420038,118.217938
137.342987,118.269421
137.252100,118.287500
136.777100,118.287500
136.686213,118.269421
136.609162,118.217938
136.557679,118.140887
136.539600,118.050000
136.539600,117.550000
136.557679,117.459113
136.609162,117.382062
136.686213,117.330579
136.777100,117.312500
Z" /> 
<path style="fill:#000000; fill-opacity:1.000000; stroke:none;fill-rule:evenodd;"
d="M 99.850000,142.012500
99.868079,141.921613
99.919562,141.844562
99.996613,141.793079
100.087500,141.775000
100.687500,141.775000
100.778387,141.793079
100.855438,141.844562
100.906921,141.921613
100.925000,142.012500
100.925000,142.487500
100.906921,142.578387
100.855438,142.655438
100.778387,142.706921
100.687500,142.725000
100.087500,142.725000
99.996613,142.706921
99.919562,142.655438
99.868079,142.578387
99.850000,142.487500
Z" /> 
<path style="fill:#000000; fill-opacity:1.000000; stroke:none;fill-rule:evenodd;"
d="M 101.575000,142.012500
101.593079,141.921613
101.644562,141.844562
101.721613,141.793079
101.812500,141.775000
102.412500,141.775000
102.503387,141.793079
102.580438,141.844562
102.631921,141.921613
102.650000,142.012500
102.650000,142.487500
102.631921,142.578387
102.580438,142.655438
102.503387,142.706921
102.412500,142.725000
101.812500,142.725000
101.721613,142.706921
101.644562,142.655438
101.593079,142.578387
101.575000,142.487500
Z" /> 
<path style="fill:#000000; fill-opacity:1.000000; stroke:none;fill-rule:evenodd;"
d="M 85.600000,136.762500
85.618079,136.671613
85.669562,136.594562
85.746613,136.543079
85.837500,136.525000
86.437500,136.525000
86.528387,136.543079
86.605438,136.594562
86.656921,136.671613
86.675000,136.762500
86.675000,137.237500
86.656921,137.328387
86.605438,137.405438
86.528387,137.456921
86.437500,137.475000
85.837500,137.475000
85.746613,137.456921
85.669562,137.405438
85.618079,137.328387
85.600000,137.237500
Z" /> 
<path style="fill:#000000; fill-opacity:1.000000; stroke:none;fill-rule:evenodd;"
d="M 87.325000,136.762500
87.343079,136.671613
87.394562,136.594562
87.471613,136.543079
87.562500,136.525000
88.162500,136.525000
88.253387,136.543079
88.330438,136.594562
88.381921,136.671613
88.400000,136.762500
88.400000,137.237500
88.381921,137.328387
88.330438,137.405438
88.253387,137.456921
88.162500,137.475000
87.562500,137.475000
87.471613,137.456921
87.394562,137.405438
87.343079,137.328387
87.325000,137.237500
Z" /> 
<path style="fill:#000000; fill-opacity:1.000000; stroke:none;fill-rule:evenodd;"
d="M 85.525000,132.237500
85.506921,132.328387
85.455438,132.405438
85.378387,132.456921
85.287500,132.475000
84.712500,132.475000
84.621613,132.456921
84.544562,132.405438
84.493079,132.328387
84.475000,132.237500
84.475000,131.762500
84.493079,131.671613
84.544562,131.594562
84.621613,131.543079
84.712500,131.525000
85.287500,131.525000
85.378387,131.543079
85.455438,131.594562
85.506921,131.671613
85.525000,131.762500
Z" /> 
<path style="fill:#000000; fill-opacity:1.000000; stroke:none;fill-rule:evenodd;"
d="M 83.775000,132.237500
83.756921,132.328387
83.705438,132.405438
83.628387,132.456921
83.537500,132.475000
82.962500,132.475000
82.871613,132.456921
82.794562,132.405438
82.743079,132.328387
82.725000,132.237500
82.725000,131.762500
82.743079,131.671613
82.794562,131.594562
82.871613,131.543079
82.962500,131.525000
83.537500,131.525000
83.628387,131.543079
83.705438,131.594562
83.756921,131.671613
83.775000,131.762500
Z" /> 
<path style="fill:#000000; fill-opacity:1.000000; stroke:none;fill-rule:evenodd;"
d="M 116.150000,119.737500
116.131921,119.828387
116.080438,119.905438
116.003387,119.956921
115.912500,119.975000
115.312500,119.975000
115.221613,119.956921
115.144562,119.905438
115.093079,119.828387
115.075000,119.737500
115.075000,119.262500
115.093079,119.171613
115.144562,119.094562
115.221613,119.043079
115.312500,119.025000
115.912500,119.025000
116.003387,119.043079
116.080438,119.094562
116.131921,119.171613
116.150000,119.262500
Z" /> 
<path style="fill:#000000; fill-opacity:1.000000; stroke:none;fill-rule:evenodd;"
d="M 114.425000,119.737500
114.406921,119.828387
114.355438,119.905438
114.278387,119.956921
114.187500,119.975000
113.587500,119.975000
113.496613,119.956921
113.419562,119.905438
113.368079,119.828387
113.350000,119.737500
113.350000,119.262500
113.368079,119.171613
113.419562,119.094562
113.496613,119.043079
113.587500,119.025000
114.187500,119.025000
114.278387,119.043079
114.355438,119.094562
114.406921,119.171613
114.425000,119.262500
Z" /> 
</g> 
</svg>
