<?xml version="1.0" standalone="no"?>
 <!DOCTYPE svg PUBLIC "-//W3C//DTD SVG 1.1//EN" 
 "http://www.w3.org/Graphics/SVG/1.1/DTD/svg11.dtd"> 
<svg
  xmlns:svg="http://www.w3.org/2000/svg"
  xmlns="http://www.w3.org/2000/svg"
  xmlns:xlink="http://www.w3.org/1999/xlink"
  version="1.1"
  width="297.0022mm" height="210.0072mm" viewBox="0.0000 0.0000 297.0022 210.0072">
<title>SVG Image created as rcbus-ymf262-F_Paste0.svg date 2025/09/01 23:04:51 </title>
  <desc>Image generated by PCBNEW </desc>
<g style="fill:#000000; fill-opacity:1.0000;stroke:#000000; stroke-opacity:1.0000;
stroke-linecap:round; stroke-linejoin:round;"
 transform="translate(0 0) scale(1 1)">
<path style="fill:#000000; fill-opacity:1.0000; stroke:none;fill-rule:evenodd;"
d="M 168.2254,135.6201
168.1892,135.8018
168.0863,135.9559
167.9322,136.0589
167.7504,136.0951
166.5504,136.0951
166.3686,136.0589
166.2145,135.9559
166.1115,135.8018
166.0754,135.6201
166.0754,134.6701
166.1115,134.4883
166.2145,134.3342
166.3686,134.2312
166.5504,134.1951
167.7504,134.1951
167.9322,134.2312
168.0863,134.3342
168.1892,134.4883
168.2254,134.6701
Z" /> 
<path style="fill:#000000; fill-opacity:1.0000; stroke:none;fill-rule:evenodd;"
d="M 164.7754,135.6201
164.7392,135.8018
164.6363,135.9559
164.4822,136.0589
164.3004,136.0951
163.1004,136.0951
162.9186,136.0589
162.7645,135.9559
162.6615,135.8018
162.6254,135.6201
162.6254,134.6701
162.6615,134.4883
162.7645,134.3342
162.9186,134.2312
163.1004,134.1951
164.3004,134.1951
164.4822,134.2312
164.6363,134.3342
164.7392,134.4883
164.7754,134.6701
Z" /> 
<path style="fill:#000000; fill-opacity:1.0000; stroke:none;fill-rule:evenodd;"
d="M 168.2254,108.1201
168.1892,108.3018
168.0863,108.4559
167.9322,108.5589
167.7504,108.5951
166.5504,108.5951
166.3686,108.5589
166.2145,108.4559
166.1115,108.3018
166.0754,108.1201
166.0754,107.1701
166.1115,106.9883
166.2145,106.8342
166.3686,106.7312
166.5504,106.6951
167.7504,106.6951
167.9322,106.7312
168.0863,106.8342
168.1892,106.9883
168.2254,107.1701
Z" /> 
<path style="fill:#000000; fill-opacity:1.0000; stroke:none;fill-rule:evenodd;"
d="M 164.7754,108.1201
164.7392,108.3018
164.6363,108.4559
164.4822,108.5589
164.3004,108.5951
163.1004,108.5951
162.9186,108.5589
162.7645,108.4559
162.6615,108.3018
162.6254,108.1201
162.6254,107.1701
162.6615,106.9883
162.7645,106.8342
162.9186,106.7312
163.1004,106.6951
164.3004,106.6951
164.4822,106.7312
164.6363,106.8342
164.7392,106.9883
164.7754,107.1701
Z" /> 
<path style="fill:#000000; fill-opacity:1.0000; stroke:none;fill-rule:evenodd;"
d="M 104.3854,136.6951
104.2706,136.6722
104.1733,136.6072
104.1082,136.5099
104.0854,136.3951
104.0854,132.8951
104.1082,132.7803
104.1733,132.6829
104.2706,132.6179
104.3854,132.5951
104.9854,132.5951
105.1002,132.6179
105.1975,132.6829
105.2625,132.7803
105.2854,132.8951
105.2854,136.3951
105.2625,136.5099
105.1975,136.6072
105.1002,136.6722
104.9854,136.6951
Z" /> 
<path style="fill:#000000; fill-opacity:1.0000; stroke:none;fill-rule:evenodd;"
d="M 106.9254,136.6951
106.8106,136.6722
106.7133,136.6072
106.6482,136.5099
106.6254,136.3951
106.6254,132.8951
106.6482,132.7803
106.7133,132.6829
106.8106,132.6179
106.9254,132.5951
107.5254,132.5951
107.6402,132.6179
107.7375,132.6829
107.8025,132.7803
107.8254,132.8951
107.8254,136.3951
107.8025,136.5099
107.7375,136.6072
107.6402,136.6722
107.5254,136.6951
Z" /> 
<path style="fill:#000000; fill-opacity:1.0000; stroke:none;fill-rule:evenodd;"
d="M 109.4654,136.6951
109.3506,136.6722
109.2533,136.6072
109.1882,136.5099
109.1654,136.3951
109.1654,132.8951
109.1882,132.7803
109.2533,132.6829
109.3506,132.6179
109.4654,132.5951
110.0654,132.5951
110.1802,132.6179
110.2775,132.6829
110.3425,132.7803
110.3654,132.8951
110.3654,136.3951
110.3425,136.5099
110.2775,136.6072
110.1802,136.6722
110.0654,136.6951
Z" /> 
<path style="fill:#000000; fill-opacity:1.0000; stroke:none;fill-rule:evenodd;"
d="M 112.0054,136.6951
111.8906,136.6722
111.7933,136.6072
111.7282,136.5099
111.7054,136.3951
111.7054,132.8951
111.7282,132.7803
111.7933,132.6829
111.8906,132.6179
112.0054,132.5951
112.6054,132.5951
112.7202,132.6179
112.8175,132.6829
112.8825,132.7803
112.9054,132.8951
112.9054,136.3951
112.8825,136.5099
112.8175,136.6072
112.7202,136.6722
112.6054,136.6951
Z" /> 
<path style="fill:#000000; fill-opacity:1.0000; stroke:none;fill-rule:evenodd;"
d="M 114.5454,136.6951
114.4306,136.6722
114.3333,136.6072
114.2682,136.5099
114.2454,136.3951
114.2454,132.8951
114.2682,132.7803
114.3333,132.6829
114.4306,132.6179
114.5454,132.5951
115.1454,132.5951
115.2602,132.6179
115.3575,132.6829
115.4225,132.7803
115.4454,132.8951
115.4454,136.3951
115.4225,136.5099
115.3575,136.6072
115.2602,136.6722
115.1454,136.6951
Z" /> 
<path style="fill:#000000; fill-opacity:1.0000; stroke:none;fill-rule:evenodd;"
d="M 117.0854,136.6951
116.9706,136.6722
116.8733,136.6072
116.8082,136.5099
116.7854,136.3951
116.7854,132.8951
116.8082,132.7803
116.8733,132.6829
116.9706,132.6179
117.0854,132.5951
117.6854,132.5951
117.8002,132.6179
117.8975,132.6829
117.9625,132.7803
117.9854,132.8951
117.9854,136.3951
117.9625,136.5099
117.8975,136.6072
117.8002,136.6722
117.6854,136.6951
Z" /> 
<path style="fill:#000000; fill-opacity:1.0000; stroke:none;fill-rule:evenodd;"
d="M 119.6254,136.6951
119.5106,136.6722
119.4133,136.6072
119.3482,136.5099
119.3254,136.3951
119.3254,132.8951
119.3482,132.7803
119.4133,132.6829
119.5106,132.6179
119.6254,132.5951
120.2254,132.5951
120.3402,132.6179
120.4375,132.6829
120.5025,132.7803
120.5254,132.8951
120.5254,136.3951
120.5025,136.5099
120.4375,136.6072
120.3402,136.6722
120.2254,136.6951
Z" /> 
<path style="fill:#000000; fill-opacity:1.0000; stroke:none;fill-rule:evenodd;"
d="M 122.1654,136.6951
122.0506,136.6722
121.9533,136.6072
121.8882,136.5099
121.8654,136.3951
121.8654,132.8951
121.8882,132.7803
121.9533,132.6829
122.0506,132.6179
122.1654,132.5951
122.7654,132.5951
122.8802,132.6179
122.9775,132.6829
123.0425,132.7803
123.0654,132.8951
123.0654,136.3951
123.0425,136.5099
122.9775,136.6072
122.8802,136.6722
122.7654,136.6951
Z" /> 
<path style="fill:#000000; fill-opacity:1.0000; stroke:none;fill-rule:evenodd;"
d="M 124.7054,136.6951
124.5906,136.6722
124.4933,136.6072
124.4282,136.5099
124.4054,136.3951
124.4054,132.8951
124.4282,132.7803
124.4933,132.6829
124.5906,132.6179
124.7054,132.5951
125.3054,132.5951
125.4202,132.6179
125.5175,132.6829
125.5825,132.7803
125.6054,132.8951
125.6054,136.3951
125.5825,136.5099
125.5175,136.6072
125.4202,136.6722
125.3054,136.6951
Z" /> 
<path style="fill:#000000; fill-opacity:1.0000; stroke:none;fill-rule:evenodd;"
d="M 127.2454,136.6951
127.1306,136.6722
127.0333,136.6072
126.9682,136.5099
126.9454,136.3951
126.9454,132.8951
126.9682,132.7803
127.0333,132.6829
127.1306,132.6179
127.2454,132.5951
127.8454,132.5951
127.9602,132.6179
128.0575,132.6829
128.1225,132.7803
128.1454,132.8951
128.1454,136.3951
128.1225,136.5099
128.0575,136.6072
127.9602,136.6722
127.8454,136.6951
Z" /> 
<path style="fill:#000000; fill-opacity:1.0000; stroke:none;fill-rule:evenodd;"
d="M 127.2454,118.0951
127.1306,118.0722
127.0333,118.0072
126.9682,117.9099
126.9454,117.7951
126.9454,114.2951
126.9682,114.1803
127.0333,114.0829
127.1306,114.0179
127.2454,113.9951
127.8454,113.9951
127.9602,114.0179
128.0575,114.0829
128.1225,114.1803
128.1454,114.2951
128.1454,117.7951
128.1225,117.9099
128.0575,118.0072
127.9602,118.0722
127.8454,118.0951
Z" /> 
<path style="fill:#000000; fill-opacity:1.0000; stroke:none;fill-rule:evenodd;"
d="M 124.7054,118.0951
124.5906,118.0722
124.4933,118.0072
124.4282,117.9099
124.4054,117.7951
124.4054,114.2951
124.4282,114.1803
124.4933,114.0829
124.5906,114.0179
124.7054,113.9951
125.3054,113.9951
125.4202,114.0179
125.5175,114.0829
125.5825,114.1803
125.6054,114.2951
125.6054,117.7951
125.5825,117.9099
125.5175,118.0072
125.4202,118.0722
125.3054,118.0951
Z" /> 
<path style="fill:#000000; fill-opacity:1.0000; stroke:none;fill-rule:evenodd;"
d="M 122.1654,118.0951
122.0506,118.0722
121.9533,118.0072
121.8882,117.9099
121.8654,117.7951
121.8654,114.2951
121.8882,114.1803
121.9533,114.0829
122.0506,114.0179
122.1654,113.9951
122.7654,113.9951
122.8802,114.0179
122.9775,114.0829
123.0425,114.1803
123.0654,114.2951
123.0654,117.7951
123.0425,117.9099
122.9775,118.0072
122.8802,118.0722
122.7654,118.0951
Z" /> 
<path style="fill:#000000; fill-opacity:1.0000; stroke:none;fill-rule:evenodd;"
d="M 119.6254,118.0951
119.5106,118.0722
119.4133,118.0072
119.3482,117.9099
119.3254,117.7951
119.3254,114.2951
119.3482,114.1803
119.4133,114.0829
119.5106,114.0179
119.6254,113.9951
120.2254,113.9951
120.3402,114.0179
120.4375,114.0829
120.5025,114.1803
120.5254,114.2951
120.5254,117.7951
120.5025,117.9099
120.4375,118.0072
120.3402,118.0722
120.2254,118.0951
Z" /> 
<path style="fill:#000000; fill-opacity:1.0000; stroke:none;fill-rule:evenodd;"
d="M 117.0854,118.0951
116.9706,118.0722
116.8733,118.0072
116.8082,117.9099
116.7854,117.7951
116.7854,114.2951
116.8082,114.1803
116.8733,114.0829
116.9706,114.0179
117.0854,113.9951
117.6854,113.9951
117.8002,114.0179
117.8975,114.0829
117.9625,114.1803
117.9854,114.2951
117.9854,117.7951
117.9625,117.9099
117.8975,118.0072
117.8002,118.0722
117.6854,118.0951
Z" /> 
<path style="fill:#000000; fill-opacity:1.0000; stroke:none;fill-rule:evenodd;"
d="M 114.5454,118.0951
114.4306,118.0722
114.3333,118.0072
114.2682,117.9099
114.2454,117.7951
114.2454,114.2951
114.2682,114.1803
114.3333,114.0829
114.4306,114.0179
114.5454,113.9951
115.1454,113.9951
115.2602,114.0179
115.3575,114.0829
115.4225,114.1803
115.4454,114.2951
115.4454,117.7951
115.4225,117.9099
115.3575,118.0072
115.2602,118.0722
115.1454,118.0951
Z" /> 
<path style="fill:#000000; fill-opacity:1.0000; stroke:none;fill-rule:evenodd;"
d="M 112.0054,118.0951
111.8906,118.0722
111.7933,118.0072
111.7282,117.9099
111.7054,117.7951
111.7054,114.2951
111.7282,114.1803
111.7933,114.0829
111.8906,114.0179
112.0054,113.9951
112.6054,113.9951
112.7202,114.0179
112.8175,114.0829
112.8825,114.1803
112.9054,114.2951
112.9054,117.7951
112.8825,117.9099
112.8175,118.0072
112.7202,118.0722
112.6054,118.0951
Z" /> 
<path style="fill:#000000; fill-opacity:1.0000; stroke:none;fill-rule:evenodd;"
d="M 109.4654,118.0951
109.3506,118.0722
109.2533,118.0072
109.1882,117.9099
109.1654,117.7951
109.1654,114.2951
109.1882,114.1803
109.2533,114.0829
109.3506,114.0179
109.4654,113.9951
110.0654,113.9951
110.1802,114.0179
110.2775,114.0829
110.3425,114.1803
110.3654,114.2951
110.3654,117.7951
110.3425,117.9099
110.2775,118.0072
110.1802,118.0722
110.0654,118.0951
Z" /> 
<path style="fill:#000000; fill-opacity:1.0000; stroke:none;fill-rule:evenodd;"
d="M 106.9254,118.0951
106.8106,118.0722
106.7133,118.0072
106.6482,117.9099
106.6254,117.7951
106.6254,114.2951
106.6482,114.1803
106.7133,114.0829
106.8106,114.0179
106.9254,113.9951
107.5254,113.9951
107.6402,114.0179
107.7375,114.0829
107.8025,114.1803
107.8254,114.2951
107.8254,117.7951
107.8025,117.9099
107.7375,118.0072
107.6402,118.0722
107.5254,118.0951
Z" /> 
<path style="fill:#000000; fill-opacity:1.0000; stroke:none;fill-rule:evenodd;"
d="M 104.3854,118.0951
104.2706,118.0722
104.1733,118.0072
104.1082,117.9099
104.0854,117.7951
104.0854,114.2951
104.1082,114.1803
104.1733,114.0829
104.2706,114.0179
104.3854,113.9951
104.9854,113.9951
105.1002,114.0179
105.1975,114.0829
105.2625,114.1803
105.2854,114.2951
105.2854,117.7951
105.2625,117.9099
105.1975,118.0072
105.1002,118.0722
104.9854,118.0951
Z" /> 
<path style="fill:#000000; fill-opacity:1.0000; stroke:none;fill-rule:evenodd;"
d="M 195.4004,75.8451
195.5822,75.8812
195.7363,75.9842
195.8392,76.1383
195.8754,76.3201
195.8754,77.5201
195.8392,77.7018
195.7363,77.8559
195.5822,77.9589
195.4004,77.9951
194.4504,77.9951
194.2686,77.9589
194.1145,77.8559
194.0115,77.7018
193.9754,77.5201
193.9754,76.3201
194.0115,76.1383
194.1145,75.9842
194.2686,75.8812
194.4504,75.8451
Z" /> 
<path style="fill:#000000; fill-opacity:1.0000; stroke:none;fill-rule:evenodd;"
d="M 195.4004,79.2951
195.5822,79.3312
195.7363,79.4342
195.8392,79.5883
195.8754,79.7701
195.8754,80.9701
195.8392,81.1518
195.7363,81.3059
195.5822,81.4089
195.4004,81.4451
194.4504,81.4451
194.2686,81.4089
194.1145,81.3059
194.0115,81.1518
193.9754,80.9701
193.9754,79.7701
194.0115,79.5883
194.1145,79.4342
194.2686,79.3312
194.4504,79.2951
Z" /> 
<path style="fill:#000000; fill-opacity:1.0000; stroke:none;fill-rule:evenodd;"
d="M 176.4004,81.5701
176.5822,81.6062
176.7363,81.7092
176.8392,81.8633
176.8754,82.0451
176.8754,83.2451
176.8392,83.4268
176.7363,83.5809
176.5822,83.6839
176.4004,83.7201
175.4504,83.7201
175.2686,83.6839
175.1145,83.5809
175.0115,83.4268
174.9754,83.2451
174.9754,82.0451
175.0115,81.8633
175.1145,81.7092
175.2686,81.6062
175.4504,81.5701
Z" /> 
<path style="fill:#000000; fill-opacity:1.0000; stroke:none;fill-rule:evenodd;"
d="M 176.4004,85.0201
176.5822,85.0562
176.7363,85.1592
176.8392,85.3133
176.8754,85.4951
176.8754,86.6951
176.8392,86.8768
176.7363,87.0309
176.5822,87.1339
176.4004,87.1701
175.4504,87.1701
175.2686,87.1339
175.1145,87.0309
175.0115,86.8768
174.9754,86.6951
174.9754,85.4951
175.0115,85.3133
175.1145,85.1592
175.2686,85.0562
175.4504,85.0201
Z" /> 
<path style="fill:#000000; fill-opacity:1.0000; stroke:none;fill-rule:evenodd;"
d="M 181.9004,81.5701
182.0822,81.6062
182.2363,81.7092
182.3392,81.8633
182.3754,82.0451
182.3754,83.2451
182.3392,83.4268
182.2363,83.5809
182.0822,83.6839
181.9004,83.7201
180.9504,83.7201
180.7686,83.6839
180.6145,83.5809
180.5115,83.4268
180.4754,83.2451
180.4754,82.0451
180.5115,81.8633
180.6145,81.7092
180.7686,81.6062
180.9504,81.5701
Z" /> 
<path style="fill:#000000; fill-opacity:1.0000; stroke:none;fill-rule:evenodd;"
d="M 181.9004,85.0201
182.0822,85.0562
182.2363,85.1592
182.3392,85.3133
182.3754,85.4951
182.3754,86.6951
182.3392,86.8768
182.2363,87.0309
182.0822,87.1339
181.9004,87.1701
180.9504,87.1701
180.7686,87.1339
180.6145,87.0309
180.5115,86.8768
180.4754,86.6951
180.4754,85.4951
180.5115,85.3133
180.6145,85.1592
180.7686,85.0562
180.9504,85.0201
Z" /> 
<path style="fill:#000000; fill-opacity:1.0000; stroke:none;fill-rule:evenodd;"
d="M 171.6804,136.9451
171.5751,136.9241
171.4859,136.8645
171.4263,136.7753
171.4054,136.6701
171.4054,133.2201
171.4263,133.1148
171.4859,133.0256
171.5751,132.9660
171.6804,132.9451
172.2304,132.9451
172.3356,132.9660
172.4248,133.0256
172.4844,133.1148
172.5054,133.2201
172.5054,136.6701
172.4844,136.7753
172.4248,136.8645
172.3356,136.9241
172.2304,136.9451
Z" /> 
<path style="fill:#000000; fill-opacity:1.0000; stroke:none;fill-rule:evenodd;"
d="M 174.2204,136.9451
174.1151,136.9241
174.0259,136.8645
173.9663,136.7753
173.9454,136.6701
173.9454,133.2201
173.9663,133.1148
174.0259,133.0256
174.1151,132.9660
174.2204,132.9451
174.7704,132.9451
174.8756,132.9660
174.9648,133.0256
175.0245,133.1148
175.0454,133.2201
175.0454,136.6701
175.0245,136.7753
174.9648,136.8645
174.8756,136.9241
174.7704,136.9451
Z" /> 
<path style="fill:#000000; fill-opacity:1.0000; stroke:none;fill-rule:evenodd;"
d="M 176.7604,136.9451
176.6551,136.9241
176.5659,136.8645
176.5063,136.7753
176.4854,136.6701
176.4854,133.2201
176.5063,133.1148
176.5659,133.0256
176.6551,132.9660
176.7604,132.9451
177.3104,132.9451
177.4156,132.9660
177.5048,133.0256
177.5644,133.1148
177.5854,133.2201
177.5854,136.6701
177.5644,136.7753
177.5048,136.8645
177.4156,136.9241
177.3104,136.9451
Z" /> 
<path style="fill:#000000; fill-opacity:1.0000; stroke:none;fill-rule:evenodd;"
d="M 179.3004,136.9451
179.1951,136.9241
179.1059,136.8645
179.0463,136.7753
179.0254,136.6701
179.0254,133.2201
179.0463,133.1148
179.1059,133.0256
179.1951,132.9660
179.3004,132.9451
179.8504,132.9451
179.9556,132.9660
180.0448,133.0256
180.1044,133.1148
180.1254,133.2201
180.1254,136.6701
180.1044,136.7753
180.0448,136.8645
179.9556,136.9241
179.8504,136.9451
Z" /> 
<path style="fill:#000000; fill-opacity:1.0000; stroke:none;fill-rule:evenodd;"
d="M 181.8404,136.9451
181.7351,136.9241
181.6459,136.8645
181.5863,136.7753
181.5654,136.6701
181.5654,133.2201
181.5863,133.1148
181.6459,133.0256
181.7351,132.9660
181.8404,132.9451
182.3904,132.9451
182.4956,132.9660
182.5848,133.0256
182.6444,133.1148
182.6654,133.2201
182.6654,136.6701
182.6444,136.7753
182.5848,136.8645
182.4956,136.9241
182.3904,136.9451
Z" /> 
<path style="fill:#000000; fill-opacity:1.0000; stroke:none;fill-rule:evenodd;"
d="M 184.3804,136.9451
184.2751,136.9241
184.1859,136.8645
184.1263,136.7753
184.1054,136.6701
184.1054,133.2201
184.1263,133.1148
184.1859,133.0256
184.2751,132.9660
184.3804,132.9451
184.9304,132.9451
185.0356,132.9660
185.1248,133.0256
185.1844,133.1148
185.2054,133.2201
185.2054,136.6701
185.1844,136.7753
185.1248,136.8645
185.0356,136.9241
184.9304,136.9451
Z" /> 
<path style="fill:#000000; fill-opacity:1.0000; stroke:none;fill-rule:evenodd;"
d="M 186.9204,136.9451
186.8151,136.9241
186.7259,136.8645
186.6663,136.7753
186.6454,136.6701
186.6454,133.2201
186.6663,133.1148
186.7259,133.0256
186.8151,132.9660
186.9204,132.9451
187.4704,132.9451
187.5756,132.9660
187.6648,133.0256
187.7244,133.1148
187.7454,133.2201
187.7454,136.6701
187.7244,136.7753
187.6648,136.8645
187.5756,136.9241
187.4704,136.9451
Z" /> 
<path style="fill:#000000; fill-opacity:1.0000; stroke:none;fill-rule:evenodd;"
d="M 189.4604,136.9451
189.3551,136.9241
189.2659,136.8645
189.2063,136.7753
189.1854,136.6701
189.1854,133.2201
189.2063,133.1148
189.2659,133.0256
189.3551,132.9660
189.4604,132.9451
190.0104,132.9451
190.1156,132.9660
190.2048,133.0256
190.2644,133.1148
190.2854,133.2201
190.2854,136.6701
190.2644,136.7753
190.2048,136.8645
190.1156,136.9241
190.0104,136.9451
Z" /> 
<path style="fill:#000000; fill-opacity:1.0000; stroke:none;fill-rule:evenodd;"
d="M 192.0004,136.9451
191.8951,136.9241
191.8059,136.8645
191.7463,136.7753
191.7254,136.6701
191.7254,133.2201
191.7463,133.1148
191.8059,133.0256
191.8951,132.9660
192.0004,132.9451
192.5504,132.9451
192.6556,132.9660
192.7448,133.0256
192.8045,133.1148
192.8254,133.2201
192.8254,136.6701
192.8045,136.7753
192.7448,136.8645
192.6556,136.9241
192.5504,136.9451
Z" /> 
<path style="fill:#000000; fill-opacity:1.0000; stroke:none;fill-rule:evenodd;"
d="M 194.5404,136.9451
194.4351,136.9241
194.3459,136.8645
194.2863,136.7753
194.2654,136.6701
194.2654,133.2201
194.2863,133.1148
194.3459,133.0256
194.4351,132.9660
194.5404,132.9451
195.0904,132.9451
195.1956,132.9660
195.2848,133.0256
195.3444,133.1148
195.3654,133.2201
195.3654,136.6701
195.3444,136.7753
195.2848,136.8645
195.1956,136.9241
195.0904,136.9451
Z" /> 
<path style="fill:#000000; fill-opacity:1.0000; stroke:none;fill-rule:evenodd;"
d="M 197.0804,136.9451
196.9751,136.9241
196.8859,136.8645
196.8263,136.7753
196.8054,136.6701
196.8054,133.2201
196.8263,133.1148
196.8859,133.0256
196.9751,132.9660
197.0804,132.9451
197.6304,132.9451
197.7356,132.9660
197.8248,133.0256
197.8844,133.1148
197.9054,133.2201
197.9054,136.6701
197.8844,136.7753
197.8248,136.8645
197.7356,136.9241
197.6304,136.9451
Z" /> 
<path style="fill:#000000; fill-opacity:1.0000; stroke:none;fill-rule:evenodd;"
d="M 199.6204,136.9451
199.5151,136.9241
199.4259,136.8645
199.3663,136.7753
199.3454,136.6701
199.3454,133.2201
199.3663,133.1148
199.4259,133.0256
199.5151,132.9660
199.6204,132.9451
200.1704,132.9451
200.2756,132.9660
200.3648,133.0256
200.4244,133.1148
200.4454,133.2201
200.4454,136.6701
200.4244,136.7753
200.3648,136.8645
200.2756,136.9241
200.1704,136.9451
Z" /> 
<path style="fill:#000000; fill-opacity:1.0000; stroke:none;fill-rule:evenodd;"
d="M 199.6204,118.3451
199.5151,118.3241
199.4259,118.2645
199.3663,118.1753
199.3454,118.0701
199.3454,114.6201
199.3663,114.5148
199.4259,114.4256
199.5151,114.3660
199.6204,114.3451
200.1704,114.3451
200.2756,114.3660
200.3648,114.4256
200.4244,114.5148
200.4454,114.6201
200.4454,118.0701
200.4244,118.1753
200.3648,118.2645
200.2756,118.3241
200.1704,118.3451
Z" /> 
<path style="fill:#000000; fill-opacity:1.0000; stroke:none;fill-rule:evenodd;"
d="M 197.0804,118.3451
196.9751,118.3241
196.8859,118.2645
196.8263,118.1753
196.8054,118.0701
196.8054,114.6201
196.8263,114.5148
196.8859,114.4256
196.9751,114.3660
197.0804,114.3451
197.6304,114.3451
197.7356,114.3660
197.8248,114.4256
197.8844,114.5148
197.9054,114.6201
197.9054,118.0701
197.8844,118.1753
197.8248,118.2645
197.7356,118.3241
197.6304,118.3451
Z" /> 
<path style="fill:#000000; fill-opacity:1.0000; stroke:none;fill-rule:evenodd;"
d="M 194.5404,118.3451
194.4351,118.3241
194.3459,118.2645
194.2863,118.1753
194.2654,118.0701
194.2654,114.6201
194.2863,114.5148
194.3459,114.4256
194.4351,114.3660
194.5404,114.3451
195.0904,114.3451
195.1956,114.3660
195.2848,114.4256
195.3444,114.5148
195.3654,114.6201
195.3654,118.0701
195.3444,118.1753
195.2848,118.2645
195.1956,118.3241
195.0904,118.3451
Z" /> 
<path style="fill:#000000; fill-opacity:1.0000; stroke:none;fill-rule:evenodd;"
d="M 192.0004,118.3451
191.8951,118.3241
191.8059,118.2645
191.7463,118.1753
191.7254,118.0701
191.7254,114.6201
191.7463,114.5148
191.8059,114.4256
191.8951,114.3660
192.0004,114.3451
192.5504,114.3451
192.6556,114.3660
192.7448,114.4256
192.8045,114.5148
192.8254,114.6201
192.8254,118.0701
192.8045,118.1753
192.7448,118.2645
192.6556,118.3241
192.5504,118.3451
Z" /> 
<path style="fill:#000000; fill-opacity:1.0000; stroke:none;fill-rule:evenodd;"
d="M 189.4604,118.3451
189.3551,118.3241
189.2659,118.2645
189.2063,118.1753
189.1854,118.0701
189.1854,114.6201
189.2063,114.5148
189.2659,114.4256
189.3551,114.3660
189.4604,114.3451
190.0104,114.3451
190.1156,114.3660
190.2048,114.4256
190.2644,114.5148
190.2854,114.6201
190.2854,118.0701
190.2644,118.1753
190.2048,118.2645
190.1156,118.3241
190.0104,118.3451
Z" /> 
<path style="fill:#000000; fill-opacity:1.0000; stroke:none;fill-rule:evenodd;"
d="M 186.9204,118.3451
186.8151,118.3241
186.7259,118.2645
186.6663,118.1753
186.6454,118.0701
186.6454,114.6201
186.6663,114.5148
186.7259,114.4256
186.8151,114.3660
186.9204,114.3451
187.4704,114.3451
187.5756,114.3660
187.6648,114.4256
187.7244,114.5148
187.7454,114.6201
187.7454,118.0701
187.7244,118.1753
187.6648,118.2645
187.5756,118.3241
187.4704,118.3451
Z" /> 
<path style="fill:#000000; fill-opacity:1.0000; stroke:none;fill-rule:evenodd;"
d="M 184.3804,118.3451
184.2751,118.3241
184.1859,118.2645
184.1263,118.1753
184.1054,118.0701
184.1054,114.6201
184.1263,114.5148
184.1859,114.4256
184.2751,114.3660
184.3804,114.3451
184.9304,114.3451
185.0356,114.3660
185.1248,114.4256
185.1844,114.5148
185.2054,114.6201
185.2054,118.0701
185.1844,118.1753
185.1248,118.2645
185.0356,118.3241
184.9304,118.3451
Z" /> 
<path style="fill:#000000; fill-opacity:1.0000; stroke:none;fill-rule:evenodd;"
d="M 181.8404,118.3451
181.7351,118.3241
181.6459,118.2645
181.5863,118.1753
181.5654,118.0701
181.5654,114.6201
181.5863,114.5148
181.6459,114.4256
181.7351,114.3660
181.8404,114.3451
182.3904,114.3451
182.4956,114.3660
182.5848,114.4256
182.6444,114.5148
182.6654,114.6201
182.6654,118.0701
182.6444,118.1753
182.5848,118.2645
182.4956,118.3241
182.3904,118.3451
Z" /> 
<path style="fill:#000000; fill-opacity:1.0000; stroke:none;fill-rule:evenodd;"
d="M 179.3004,118.3451
179.1951,118.3241
179.1059,118.2645
179.0463,118.1753
179.0254,118.0701
179.0254,114.6201
179.0463,114.5148
179.1059,114.4256
179.1951,114.3660
179.3004,114.3451
179.8504,114.3451
179.9556,114.3660
180.0448,114.4256
180.1044,114.5148
180.1254,114.6201
180.1254,118.0701
180.1044,118.1753
180.0448,118.2645
179.9556,118.3241
179.8504,118.3451
Z" /> 
<path style="fill:#000000; fill-opacity:1.0000; stroke:none;fill-rule:evenodd;"
d="M 176.7604,118.3451
176.6551,118.3241
176.5659,118.2645
176.5063,118.1753
176.4854,118.0701
176.4854,114.6201
176.5063,114.5148
176.5659,114.4256
176.6551,114.3660
176.7604,114.3451
177.3104,114.3451
177.4156,114.3660
177.5048,114.4256
177.5644,114.5148
177.5854,114.6201
177.5854,118.0701
177.5644,118.1753
177.5048,118.2645
177.4156,118.3241
177.3104,118.3451
Z" /> 
<path style="fill:#000000; fill-opacity:1.0000; stroke:none;fill-rule:evenodd;"
d="M 174.2204,118.3451
174.1151,118.3241
174.0259,118.2645
173.9663,118.1753
173.9454,118.0701
173.9454,114.6201
173.9663,114.5148
174.0259,114.4256
174.1151,114.3660
174.2204,114.3451
174.7704,114.3451
174.8756,114.3660
174.9648,114.4256
175.0245,114.5148
175.0454,114.6201
175.0454,118.0701
175.0245,118.1753
174.9648,118.2645
174.8756,118.3241
174.7704,118.3451
Z" /> 
<path style="fill:#000000; fill-opacity:1.0000; stroke:none;fill-rule:evenodd;"
d="M 171.6804,118.3451
171.5751,118.3241
171.4859,118.2645
171.4263,118.1753
171.4054,118.0701
171.4054,114.6201
171.4263,114.5148
171.4859,114.4256
171.5751,114.3660
171.6804,114.3451
172.2304,114.3451
172.3356,114.3660
172.4248,114.4256
172.4844,114.5148
172.5054,114.6201
172.5054,118.0701
172.4844,118.1753
172.4248,118.2645
172.3356,118.3241
172.2304,118.3451
Z" /> 
<path style="fill:#000000; fill-opacity:1.0000; stroke:none;fill-rule:evenodd;"
d="M 105.7254,112.1201
105.6892,112.3018
105.5863,112.4559
105.4322,112.5589
105.2504,112.5951
104.0504,112.5951
103.8686,112.5589
103.7145,112.4559
103.6115,112.3018
103.5754,112.1201
103.5754,111.1701
103.6115,110.9883
103.7145,110.8342
103.8686,110.7312
104.0504,110.6951
105.2504,110.6951
105.4322,110.7312
105.5863,110.8342
105.6892,110.9883
105.7254,111.1701
Z" /> 
<path style="fill:#000000; fill-opacity:1.0000; stroke:none;fill-rule:evenodd;"
d="M 102.2754,112.1201
102.2392,112.3018
102.1363,112.4559
101.9822,112.5589
101.8004,112.5951
100.6004,112.5951
100.4186,112.5589
100.2645,112.4559
100.1615,112.3018
100.1254,112.1201
100.1254,111.1701
100.1615,110.9883
100.2645,110.8342
100.4186,110.7312
100.6004,110.6951
101.8004,110.6951
101.9822,110.7312
102.1363,110.8342
102.2392,110.9883
102.2754,111.1701
Z" /> 
<path style="fill:#000000; fill-opacity:1.0000; stroke:none;fill-rule:evenodd;"
d="M 142.1254,117.6451
142.1634,117.4537
142.2718,117.2915
142.4340,117.1831
142.6254,117.1451
145.2254,117.1451
145.4167,117.1831
145.5789,117.2915
145.6873,117.4537
145.7254,117.6451
145.7254,120.6451
145.6873,120.8364
145.5789,120.9986
145.4167,121.1070
145.2254,121.1451
142.6254,121.1451
142.4340,121.1070
142.2718,120.9986
142.1634,120.8364
142.1254,120.6451
Z" /> 
<path style="fill:#000000; fill-opacity:1.0000; stroke:none;fill-rule:evenodd;"
d="M 152.2854,117.6451
152.3234,117.4537
152.4318,117.2915
152.5940,117.1831
152.7854,117.1451
155.3854,117.1451
155.5767,117.1831
155.7389,117.2915
155.8473,117.4537
155.8854,117.6451
155.8854,120.6451
155.8473,120.8364
155.7389,120.9986
155.5767,121.1070
155.3854,121.1451
152.7854,121.1451
152.5940,121.1070
152.4318,120.9986
152.3234,120.8364
152.2854,120.6451
Z" /> 
<path style="fill:#000000; fill-opacity:1.0000; stroke:none;fill-rule:evenodd;"
d="M 152.2854,109.6451
152.3234,109.4537
152.4318,109.2915
152.5940,109.1831
152.7854,109.1451
155.3854,109.1451
155.5767,109.1831
155.7389,109.2915
155.8473,109.4537
155.8854,109.6451
155.8854,112.6451
155.8473,112.8364
155.7389,112.9986
155.5767,113.1070
155.3854,113.1451
152.7854,113.1451
152.5940,113.1070
152.4318,112.9986
152.3234,112.8364
152.2854,112.6451
Z" /> 
<path style="fill:#000000; fill-opacity:1.0000; stroke:none;fill-rule:evenodd;"
d="M 142.1254,109.6451
142.1634,109.4537
142.2718,109.2915
142.4340,109.1831
142.6254,109.1451
145.2254,109.1451
145.4167,109.1831
145.5789,109.2915
145.6873,109.4537
145.7254,109.6451
145.7254,112.6451
145.6873,112.8364
145.5789,112.9986
145.4167,113.1070
145.2254,113.1451
142.6254,113.1451
142.4340,113.1070
142.2718,112.9986
142.1634,112.8364
142.1254,112.6451
Z" /> 
<path style="fill:#000000; fill-opacity:1.0000; stroke:none;fill-rule:evenodd;"
d="M 136.1254,95.1701
136.1615,94.9883
136.2645,94.8342
136.4186,94.7312
136.6004,94.6951
137.7504,94.6951
137.9322,94.7312
138.0863,94.8342
138.1892,94.9883
138.2254,95.1701
138.2254,96.1201
138.1892,96.3018
138.0863,96.4559
137.9322,96.5589
137.7504,96.5951
136.6004,96.5951
136.4186,96.5589
136.2645,96.4559
136.1615,96.3018
136.1254,96.1201
Z" /> 
<path style="fill:#000000; fill-opacity:1.0000; stroke:none;fill-rule:evenodd;"
d="M 139.6254,95.1701
139.6615,94.9883
139.7645,94.8342
139.9186,94.7312
140.1004,94.6951
141.2504,94.6951
141.4322,94.7312
141.5863,94.8342
141.6892,94.9883
141.7254,95.1701
141.7254,96.1201
141.6892,96.3018
141.5863,96.4559
141.4322,96.5589
141.2504,96.5951
140.1004,96.5951
139.9186,96.5589
139.7645,96.4559
139.6615,96.3018
139.6254,96.1201
Z" /> 
<path style="fill:#000000; fill-opacity:1.0000; stroke:none;fill-rule:evenodd;"
d="M 171.7354,109.7451
171.6206,109.7222
171.5233,109.6572
171.4582,109.5599
171.4354,109.4451
171.4354,106.8451
171.4582,106.7303
171.5233,106.6329
171.6206,106.5679
171.7354,106.5451
172.3354,106.5451
172.4502,106.5679
172.5475,106.6329
172.6125,106.7303
172.6354,106.8451
172.6354,109.4451
172.6125,109.5599
172.5475,109.6572
172.4502,109.7222
172.3354,109.7451
Z" /> 
<path style="fill:#000000; fill-opacity:1.0000; stroke:none;fill-rule:evenodd;"
d="M 174.2754,109.7451
174.1606,109.7222
174.0633,109.6572
173.9982,109.5599
173.9754,109.4451
173.9754,106.8451
173.9982,106.7303
174.0633,106.6329
174.1606,106.5679
174.2754,106.5451
174.8754,106.5451
174.9902,106.5679
175.0875,106.6329
175.1525,106.7303
175.1754,106.8451
175.1754,109.4451
175.1525,109.5599
175.0875,109.6572
174.9902,109.7222
174.8754,109.7451
Z" /> 
<path style="fill:#000000; fill-opacity:1.0000; stroke:none;fill-rule:evenodd;"
d="M 176.8154,109.7451
176.7006,109.7222
176.6033,109.6572
176.5382,109.5599
176.5154,109.4451
176.5154,106.8451
176.5382,106.7303
176.6033,106.6329
176.7006,106.5679
176.8154,106.5451
177.4154,106.5451
177.5302,106.5679
177.6275,106.6329
177.6925,106.7303
177.7154,106.8451
177.7154,109.4451
177.6925,109.5599
177.6275,109.6572
177.5302,109.7222
177.4154,109.7451
Z" /> 
<path style="fill:#000000; fill-opacity:1.0000; stroke:none;fill-rule:evenodd;"
d="M 179.3554,109.7451
179.2406,109.7222
179.1433,109.6572
179.0782,109.5599
179.0554,109.4451
179.0554,106.8451
179.0782,106.7303
179.1433,106.6329
179.2406,106.5679
179.3554,106.5451
179.9554,106.5451
180.0702,106.5679
180.1675,106.6329
180.2325,106.7303
180.2554,106.8451
180.2554,109.4451
180.2325,109.5599
180.1675,109.6572
180.0702,109.7222
179.9554,109.7451
Z" /> 
<path style="fill:#000000; fill-opacity:1.0000; stroke:none;fill-rule:evenodd;"
d="M 181.8954,109.7451
181.7806,109.7222
181.6833,109.6572
181.6182,109.5599
181.5954,109.4451
181.5954,106.8451
181.6182,106.7303
181.6833,106.6329
181.7806,106.5679
181.8954,106.5451
182.4954,106.5451
182.6102,106.5679
182.7075,106.6329
182.7725,106.7303
182.7954,106.8451
182.7954,109.4451
182.7725,109.5599
182.7075,109.6572
182.6102,109.7222
182.4954,109.7451
Z" /> 
<path style="fill:#000000; fill-opacity:1.0000; stroke:none;fill-rule:evenodd;"
d="M 184.4354,109.7451
184.3206,109.7222
184.2233,109.6572
184.1582,109.5599
184.1354,109.4451
184.1354,106.8451
184.1582,106.7303
184.2233,106.6329
184.3206,106.5679
184.4354,106.5451
185.0354,106.5451
185.1502,106.5679
185.2475,106.6329
185.3125,106.7303
185.3354,106.8451
185.3354,109.4451
185.3125,109.5599
185.2475,109.6572
185.1502,109.7222
185.0354,109.7451
Z" /> 
<path style="fill:#000000; fill-opacity:1.0000; stroke:none;fill-rule:evenodd;"
d="M 186.9754,109.7451
186.8606,109.7222
186.7633,109.6572
186.6982,109.5599
186.6754,109.4451
186.6754,106.8451
186.6982,106.7303
186.7633,106.6329
186.8606,106.5679
186.9754,106.5451
187.5754,106.5451
187.6902,106.5679
187.7875,106.6329
187.8525,106.7303
187.8754,106.8451
187.8754,109.4451
187.8525,109.5599
187.7875,109.6572
187.6902,109.7222
187.5754,109.7451
Z" /> 
<path style="fill:#000000; fill-opacity:1.0000; stroke:none;fill-rule:evenodd;"
d="M 189.5154,109.7451
189.4006,109.7222
189.3033,109.6572
189.2382,109.5599
189.2154,109.4451
189.2154,106.8451
189.2382,106.7303
189.3033,106.6329
189.4006,106.5679
189.5154,106.5451
190.1154,106.5451
190.2302,106.5679
190.3275,106.6329
190.3925,106.7303
190.4154,106.8451
190.4154,109.4451
190.3925,109.5599
190.3275,109.6572
190.2302,109.7222
190.1154,109.7451
Z" /> 
<path style="fill:#000000; fill-opacity:1.0000; stroke:none;fill-rule:evenodd;"
d="M 189.5154,96.7451
189.4006,96.7222
189.3033,96.6572
189.2382,96.5599
189.2154,96.4451
189.2154,93.8451
189.2382,93.7303
189.3033,93.6329
189.4006,93.5679
189.5154,93.5451
190.1154,93.5451
190.2302,93.5679
190.3275,93.6329
190.3925,93.7303
190.4154,93.8451
190.4154,96.4451
190.3925,96.5599
190.3275,96.6572
190.2302,96.7222
190.1154,96.7451
Z" /> 
<path style="fill:#000000; fill-opacity:1.0000; stroke:none;fill-rule:evenodd;"
d="M 186.9754,96.7451
186.8606,96.7222
186.7633,96.6572
186.6982,96.5599
186.6754,96.4451
186.6754,93.8451
186.6982,93.7303
186.7633,93.6329
186.8606,93.5679
186.9754,93.5451
187.5754,93.5451
187.6902,93.5679
187.7875,93.6329
187.8525,93.7303
187.8754,93.8451
187.8754,96.4451
187.8525,96.5599
187.7875,96.6572
187.6902,96.7222
187.5754,96.7451
Z" /> 
<path style="fill:#000000; fill-opacity:1.0000; stroke:none;fill-rule:evenodd;"
d="M 184.4354,96.7451
184.3206,96.7222
184.2233,96.6572
184.1582,96.5599
184.1354,96.4451
184.1354,93.8451
184.1582,93.7303
184.2233,93.6329
184.3206,93.5679
184.4354,93.5451
185.0354,93.5451
185.1502,93.5679
185.2475,93.6329
185.3125,93.7303
185.3354,93.8451
185.3354,96.4451
185.3125,96.5599
185.2475,96.6572
185.1502,96.7222
185.0354,96.7451
Z" /> 
<path style="fill:#000000; fill-opacity:1.0000; stroke:none;fill-rule:evenodd;"
d="M 181.8954,96.7451
181.7806,96.7222
181.6833,96.6572
181.6182,96.5599
181.5954,96.4451
181.5954,93.8451
181.6182,93.7303
181.6833,93.6329
181.7806,93.5679
181.8954,93.5451
182.4954,93.5451
182.6102,93.5679
182.7075,93.6329
182.7725,93.7303
182.7954,93.8451
182.7954,96.4451
182.7725,96.5599
182.7075,96.6572
182.6102,96.7222
182.4954,96.7451
Z" /> 
<path style="fill:#000000; fill-opacity:1.0000; stroke:none;fill-rule:evenodd;"
d="M 179.3554,96.7451
179.2406,96.7222
179.1433,96.6572
179.0782,96.5599
179.0554,96.4451
179.0554,93.8451
179.0782,93.7303
179.1433,93.6329
179.2406,93.5679
179.3554,93.5451
179.9554,93.5451
180.0702,93.5679
180.1675,93.6329
180.2325,93.7303
180.2554,93.8451
180.2554,96.4451
180.2325,96.5599
180.1675,96.6572
180.0702,96.7222
179.9554,96.7451
Z" /> 
<path style="fill:#000000; fill-opacity:1.0000; stroke:none;fill-rule:evenodd;"
d="M 176.8154,96.7451
176.7006,96.7222
176.6033,96.6572
176.5382,96.5599
176.5154,96.4451
176.5154,93.8451
176.5382,93.7303
176.6033,93.6329
176.7006,93.5679
176.8154,93.5451
177.4154,93.5451
177.5302,93.5679
177.6275,93.6329
177.6925,93.7303
177.7154,93.8451
177.7154,96.4451
177.6925,96.5599
177.6275,96.6572
177.5302,96.7222
177.4154,96.7451
Z" /> 
<path style="fill:#000000; fill-opacity:1.0000; stroke:none;fill-rule:evenodd;"
d="M 174.2754,96.7451
174.1606,96.7222
174.0633,96.6572
173.9982,96.5599
173.9754,96.4451
173.9754,93.8451
173.9982,93.7303
174.0633,93.6329
174.1606,93.5679
174.2754,93.5451
174.8754,93.5451
174.9902,93.5679
175.0875,93.6329
175.1525,93.7303
175.1754,93.8451
175.1754,96.4451
175.1525,96.5599
175.0875,96.6572
174.9902,96.7222
174.8754,96.7451
Z" /> 
<path style="fill:#000000; fill-opacity:1.0000; stroke:none;fill-rule:evenodd;"
d="M 171.7354,96.7451
171.6206,96.7222
171.5233,96.6572
171.4582,96.5599
171.4354,96.4451
171.4354,93.8451
171.4582,93.7303
171.5233,93.6329
171.6206,93.5679
171.7354,93.5451
172.3354,93.5451
172.4502,93.5679
172.5475,93.6329
172.6125,93.7303
172.6354,93.8451
172.6354,96.4451
172.6125,96.5599
172.5475,96.6572
172.4502,96.7222
172.3354,96.7451
Z" /> 
<path style="fill:#000000; fill-opacity:1.0000; stroke:none;fill-rule:evenodd;"
d="M 103.1254,95.1701
103.1615,94.9883
103.2645,94.8342
103.4186,94.7312
103.6004,94.6951
104.8004,94.6951
104.9822,94.7312
105.1363,94.8342
105.2392,94.9883
105.2754,95.1701
105.2754,96.1201
105.2392,96.3018
105.1363,96.4559
104.9822,96.5589
104.8004,96.5951
103.6004,96.5951
103.4186,96.5589
103.2645,96.4559
103.1615,96.3018
103.1254,96.1201
Z" /> 
<path style="fill:#000000; fill-opacity:1.0000; stroke:none;fill-rule:evenodd;"
d="M 106.5754,95.1701
106.6115,94.9883
106.7145,94.8342
106.8686,94.7312
107.0504,94.6951
108.2504,94.6951
108.4322,94.7312
108.5863,94.8342
108.6892,94.9883
108.7254,95.1701
108.7254,96.1201
108.6892,96.3018
108.5863,96.4559
108.4322,96.5589
108.2504,96.5951
107.0504,96.5951
106.8686,96.5589
106.7145,96.4559
106.6115,96.3018
106.5754,96.1201
Z" /> 
<path style="fill:#000000; fill-opacity:1.0000; stroke:none;fill-rule:evenodd;"
d="M 88.7504,133.2101
88.7865,133.0283
88.8895,132.8742
89.0436,132.7712
89.2254,132.7351
90.2254,132.7351
90.4072,132.7712
90.5613,132.8742
90.6642,133.0283
90.7004,133.2101
90.7004,134.1601
90.6642,134.3418
90.5613,134.4959
90.4072,134.5989
90.2254,134.6351
89.2254,134.6351
89.0436,134.5989
88.8895,134.4959
88.7865,134.3418
88.7504,134.1601
Z" /> 
<path style="fill:#000000; fill-opacity:1.0000; stroke:none;fill-rule:evenodd;"
d="M 92.4004,133.2101
92.4365,133.0283
92.5395,132.8742
92.6936,132.7712
92.8754,132.7351
93.8754,132.7351
94.0572,132.7712
94.2113,132.8742
94.3142,133.0283
94.3504,133.2101
94.3504,134.1601
94.3142,134.3418
94.2113,134.4959
94.0572,134.5989
93.8754,134.6351
92.8754,134.6351
92.6936,134.5989
92.5395,134.4959
92.4365,134.3418
92.4004,134.1601
Z" /> 
<path style="fill:#000000; fill-opacity:1.0000; stroke:none;fill-rule:evenodd;"
d="M 193.4004,55.8451
193.5822,55.8812
193.7363,55.9842
193.8392,56.1383
193.8754,56.3201
193.8754,57.5201
193.8392,57.7018
193.7363,57.8559
193.5822,57.9589
193.4004,57.9951
192.4504,57.9951
192.2686,57.9589
192.1145,57.8559
192.0115,57.7018
191.9754,57.5201
191.9754,56.3201
192.0115,56.1383
192.1145,55.9842
192.2686,55.8812
192.4504,55.8451
Z" /> 
<path style="fill:#000000; fill-opacity:1.0000; stroke:none;fill-rule:evenodd;"
d="M 193.4004,59.2951
193.5822,59.3312
193.7363,59.4342
193.8392,59.5883
193.8754,59.7701
193.8754,60.9701
193.8392,61.1518
193.7363,61.3059
193.5822,61.4089
193.4004,61.4451
192.4504,61.4451
192.2686,61.4089
192.1145,61.3059
192.0115,61.1518
191.9754,60.9701
191.9754,59.7701
192.0115,59.5883
192.1145,59.4342
192.2686,59.3312
192.4504,59.2951
Z" /> 
<path style="fill:#000000; fill-opacity:1.0000; stroke:none;fill-rule:evenodd;"
d="M 217.4004,61.3451
217.5822,61.3812
217.7363,61.4842
217.8392,61.6383
217.8754,61.8201
217.8754,62.8201
217.8392,63.0018
217.7363,63.1559
217.5822,63.2589
217.4004,63.2951
216.4504,63.2951
216.2686,63.2589
216.1145,63.1559
216.0115,63.0018
215.9754,62.8201
215.9754,61.8201
216.0115,61.6383
216.1145,61.4842
216.2686,61.3812
216.4504,61.3451
Z" /> 
<path style="fill:#000000; fill-opacity:1.0000; stroke:none;fill-rule:evenodd;"
d="M 217.4004,64.9951
217.5822,65.0312
217.7363,65.1342
217.8392,65.2883
217.8754,65.4701
217.8754,66.4701
217.8392,66.6518
217.7363,66.8059
217.5822,66.9089
217.4004,66.9451
216.4504,66.9451
216.2686,66.9089
216.1145,66.8059
216.0115,66.6518
215.9754,66.4701
215.9754,65.4701
216.0115,65.2883
216.1145,65.1342
216.2686,65.0312
216.4504,64.9951
Z" /> 
<path style="fill:#000000; fill-opacity:1.0000; stroke:none;fill-rule:evenodd;"
d="M 183.4504,61.4451
183.2686,61.4089
183.1145,61.3059
183.0115,61.1518
182.9754,60.9701
182.9754,59.7701
183.0115,59.5883
183.1145,59.4342
183.2686,59.3312
183.4504,59.2951
184.4004,59.2951
184.5822,59.3312
184.7363,59.4342
184.8392,59.5883
184.8754,59.7701
184.8754,60.9701
184.8392,61.1518
184.7363,61.3059
184.5822,61.4089
184.4004,61.4451
Z" /> 
<path style="fill:#000000; fill-opacity:1.0000; stroke:none;fill-rule:evenodd;"
d="M 183.4504,57.9951
183.2686,57.9589
183.1145,57.8559
183.0115,57.7018
182.9754,57.5201
182.9754,56.3201
183.0115,56.1383
183.1145,55.9842
183.2686,55.8812
183.4504,55.8451
184.4004,55.8451
184.5822,55.8812
184.7363,55.9842
184.8392,56.1383
184.8754,56.3201
184.8754,57.5201
184.8392,57.7018
184.7363,57.8559
184.5822,57.9589
184.4004,57.9951
Z" /> 
<path style="fill:#000000; fill-opacity:1.0000; stroke:none;fill-rule:evenodd;"
d="M 88.7504,128.1901
88.7865,128.0083
88.8895,127.8542
89.0436,127.7512
89.2254,127.7151
90.2254,127.7151
90.4072,127.7512
90.5613,127.8542
90.6642,128.0083
90.7004,128.1901
90.7004,129.1401
90.6642,129.3218
90.5613,129.4759
90.4072,129.5789
90.2254,129.6151
89.2254,129.6151
89.0436,129.5789
88.8895,129.4759
88.7865,129.3218
88.7504,129.1401
Z" /> 
<path style="fill:#000000; fill-opacity:1.0000; stroke:none;fill-rule:evenodd;"
d="M 92.4004,128.1901
92.4365,128.0083
92.5395,127.8542
92.6936,127.7512
92.8754,127.7151
93.8754,127.7151
94.0572,127.7512
94.2113,127.8542
94.3142,128.0083
94.3504,128.1901
94.3504,129.1401
94.3142,129.3218
94.2113,129.4759
94.0572,129.5789
93.8754,129.6151
92.8754,129.6151
92.6936,129.5789
92.5395,129.4759
92.4365,129.3218
92.4004,129.1401
Z" /> 
<path style="fill:#000000; fill-opacity:1.0000; stroke:none;fill-rule:evenodd;"
d="M 175.4004,57.1201
175.3642,57.3018
175.2613,57.4559
175.1072,57.5589
174.9254,57.5951
173.9254,57.5951
173.7436,57.5589
173.5895,57.4559
173.4865,57.3018
173.4504,57.1201
173.4504,56.1701
173.4865,55.9883
173.5895,55.8342
173.7436,55.7312
173.9254,55.6951
174.9254,55.6951
175.1072,55.7312
175.2613,55.8342
175.3642,55.9883
175.4004,56.1701
Z" /> 
<path style="fill:#000000; fill-opacity:1.0000; stroke:none;fill-rule:evenodd;"
d="M 171.7504,57.1201
171.7142,57.3018
171.6113,57.4559
171.4572,57.5589
171.2754,57.5951
170.2754,57.5951
170.0936,57.5589
169.9395,57.4559
169.8365,57.3018
169.8004,57.1201
169.8004,56.1701
169.8365,55.9883
169.9395,55.8342
170.0936,55.7312
170.2754,55.6951
171.2754,55.6951
171.4572,55.7312
171.6113,55.8342
171.7142,55.9883
171.7504,56.1701
Z" /> 
<path style="fill:#000000; fill-opacity:1.0000; stroke:none;fill-rule:evenodd;"
d="M 226.9504,66.4451
226.7686,66.4089
226.6145,66.3059
226.5115,66.1518
226.4754,65.9701
226.4754,64.7701
226.5115,64.5883
226.6145,64.4342
226.7686,64.3312
226.9504,64.2951
227.9004,64.2951
228.0822,64.3312
228.2363,64.4342
228.3392,64.5883
228.3754,64.7701
228.3754,65.9701
228.3392,66.1518
228.2363,66.3059
228.0822,66.4089
227.9004,66.4451
Z" /> 
<path style="fill:#000000; fill-opacity:1.0000; stroke:none;fill-rule:evenodd;"
d="M 226.9504,62.9951
226.7686,62.9589
226.6145,62.8559
226.5115,62.7018
226.4754,62.5201
226.4754,61.3201
226.5115,61.1383
226.6145,60.9842
226.7686,60.8812
226.9504,60.8451
227.9004,60.8451
228.0822,60.8812
228.2363,60.9842
228.3392,61.1383
228.3754,61.3201
228.3754,62.5201
228.3392,62.7018
228.2363,62.8559
228.0822,62.9589
227.9004,62.9951
Z" /> 
<path style="fill:#000000; fill-opacity:1.0000; stroke:none;fill-rule:evenodd;"
d="M 186.9504,87.2701
186.7686,87.2339
186.6145,87.1309
186.5115,86.9768
186.4754,86.7951
186.4754,85.7951
186.5115,85.6133
186.6145,85.4592
186.7686,85.3562
186.9504,85.3201
187.9004,85.3201
188.0822,85.3562
188.2363,85.4592
188.3392,85.6133
188.3754,85.7951
188.3754,86.7951
188.3392,86.9768
188.2363,87.1309
188.0822,87.2339
187.9004,87.2701
Z" /> 
<path style="fill:#000000; fill-opacity:1.0000; stroke:none;fill-rule:evenodd;"
d="M 186.9504,83.6201
186.7686,83.5839
186.6145,83.4809
186.5115,83.3268
186.4754,83.1451
186.4754,82.1451
186.5115,81.9633
186.6145,81.8092
186.7686,81.7062
186.9504,81.6701
187.9004,81.6701
188.0822,81.7062
188.2363,81.8092
188.3392,81.9633
188.3754,82.1451
188.3754,83.1451
188.3392,83.3268
188.2363,83.4809
188.0822,83.5839
187.9004,83.6201
Z" /> 
<path style="fill:#000000; fill-opacity:1.0000; stroke:none;fill-rule:evenodd;"
d="M 187.9504,61.4451
187.7686,61.4089
187.6145,61.3059
187.5115,61.1518
187.4754,60.9701
187.4754,59.9701
187.5115,59.7883
187.6145,59.6342
187.7686,59.5312
187.9504,59.4951
188.9004,59.4951
189.0822,59.5312
189.2363,59.6342
189.3392,59.7883
189.3754,59.9701
189.3754,60.9701
189.3392,61.1518
189.2363,61.3059
189.0822,61.4089
188.9004,61.4451
Z" /> 
<path style="fill:#000000; fill-opacity:1.0000; stroke:none;fill-rule:evenodd;"
d="M 187.9504,57.7951
187.7686,57.7589
187.6145,57.6559
187.5115,57.5018
187.4754,57.3201
187.4754,56.3201
187.5115,56.1383
187.6145,55.9842
187.7686,55.8812
187.9504,55.8451
188.9004,55.8451
189.0822,55.8812
189.2363,55.9842
189.3392,56.1383
189.3754,56.3201
189.3754,57.3201
189.3392,57.5018
189.2363,57.6559
189.0822,57.7589
188.9004,57.7951
Z" /> 
<path style="fill:#000000; fill-opacity:1.0000; stroke:none;fill-rule:evenodd;"
d="M 88.7504,118.1501
88.7865,117.9683
88.8895,117.8142
89.0436,117.7112
89.2254,117.6751
90.2254,117.6751
90.4072,117.7112
90.5613,117.8142
90.6642,117.9683
90.7004,118.1501
90.7004,119.1001
90.6642,119.2818
90.5613,119.4359
90.4072,119.5389
90.2254,119.5751
89.2254,119.5751
89.0436,119.5389
88.8895,119.4359
88.7865,119.2818
88.7504,119.1001
Z" /> 
<path style="fill:#000000; fill-opacity:1.0000; stroke:none;fill-rule:evenodd;"
d="M 92.4004,118.1501
92.4365,117.9683
92.5395,117.8142
92.6936,117.7112
92.8754,117.6751
93.8754,117.6751
94.0572,117.7112
94.2113,117.8142
94.3142,117.9683
94.3504,118.1501
94.3504,119.1001
94.3142,119.2818
94.2113,119.4359
94.0572,119.5389
93.8754,119.5751
92.8754,119.5751
92.6936,119.5389
92.5395,119.4359
92.4365,119.2818
92.4004,119.1001
Z" /> 
<path style="fill:#000000; fill-opacity:1.0000; stroke:none;fill-rule:evenodd;"
d="M 88.4004,108.1101
88.4365,107.9283
88.5395,107.7742
88.6936,107.6712
88.8754,107.6351
89.8754,107.6351
90.0572,107.6712
90.2113,107.7742
90.3142,107.9283
90.3504,108.1101
90.3504,109.0601
90.3142,109.2418
90.2113,109.3959
90.0572,109.4989
89.8754,109.5351
88.8754,109.5351
88.6936,109.4989
88.5395,109.3959
88.4365,109.2418
88.4004,109.0601
Z" /> 
<path style="fill:#000000; fill-opacity:1.0000; stroke:none;fill-rule:evenodd;"
d="M 92.0504,108.1101
92.0865,107.9283
92.1895,107.7742
92.3436,107.6712
92.5254,107.6351
93.5254,107.6351
93.7072,107.6712
93.8613,107.7742
93.9642,107.9283
94.0004,108.1101
94.0004,109.0601
93.9642,109.2418
93.8613,109.3959
93.7072,109.4989
93.5254,109.5351
92.5254,109.5351
92.3436,109.4989
92.1895,109.3959
92.0865,109.2418
92.0504,109.0601
Z" /> 
<path style="fill:#000000; fill-opacity:1.0000; stroke:none;fill-rule:evenodd;"
d="M 177.9504,61.4451
177.7686,61.4089
177.6145,61.3059
177.5115,61.1518
177.4754,60.9701
177.4754,59.7701
177.5115,59.5883
177.6145,59.4342
177.7686,59.3312
177.9504,59.2951
178.9004,59.2951
179.0822,59.3312
179.2363,59.4342
179.3392,59.5883
179.3754,59.7701
179.3754,60.9701
179.3392,61.1518
179.2363,61.3059
179.0822,61.4089
178.9004,61.4451
Z" /> 
<path style="fill:#000000; fill-opacity:1.0000; stroke:none;fill-rule:evenodd;"
d="M 177.9504,57.9951
177.7686,57.9589
177.6145,57.8559
177.5115,57.7018
177.4754,57.5201
177.4754,56.3201
177.5115,56.1383
177.6145,55.9842
177.7686,55.8812
177.9504,55.8451
178.9004,55.8451
179.0822,55.8812
179.2363,55.9842
179.3392,56.1383
179.3754,56.3201
179.3754,57.5201
179.3392,57.7018
179.2363,57.8559
179.0822,57.9589
178.9004,57.9951
Z" /> 
<path style="fill:#000000; fill-opacity:1.0000; stroke:none;fill-rule:evenodd;"
d="M 88.4004,113.2901
88.4365,113.1083
88.5395,112.9542
88.6936,112.8512
88.8754,112.8151
89.8754,112.8151
90.0572,112.8512
90.2113,112.9542
90.3142,113.1083
90.3504,113.2901
90.3504,114.2401
90.3142,114.4218
90.2113,114.5759
90.0572,114.6789
89.8754,114.7151
88.8754,114.7151
88.6936,114.6789
88.5395,114.5759
88.4365,114.4218
88.4004,114.2401
Z" /> 
<path style="fill:#000000; fill-opacity:1.0000; stroke:none;fill-rule:evenodd;"
d="M 92.0504,113.2901
92.0865,113.1083
92.1895,112.9542
92.3436,112.8512
92.5254,112.8151
93.5254,112.8151
93.7072,112.8512
93.8613,112.9542
93.9642,113.1083
94.0004,113.2901
94.0004,114.2401
93.9642,114.4218
93.8613,114.5759
93.7072,114.6789
93.5254,114.7151
92.5254,114.7151
92.3436,114.6789
92.1895,114.5759
92.0865,114.4218
92.0504,114.2401
Z" /> 
<path style="fill:#000000; fill-opacity:1.0000; stroke:none;fill-rule:evenodd;"
d="M 173.2804,79.5451
173.1656,79.5222
173.0683,79.4572
173.0032,79.3599
172.9804,79.2451
172.9804,75.9451
173.0032,75.8303
173.0683,75.7329
173.1656,75.6679
173.2804,75.6451
173.8804,75.6451
173.9952,75.6679
174.0925,75.7329
174.1575,75.8303
174.1804,75.9451
174.1804,79.2451
174.1575,79.3599
174.0925,79.4572
173.9952,79.5222
173.8804,79.5451
Z" /> 
<path style="fill:#000000; fill-opacity:1.0000; stroke:none;fill-rule:evenodd;"
d="M 175.8204,79.5451
175.7056,79.5222
175.6083,79.4572
175.5432,79.3599
175.5204,79.2451
175.5204,75.9451
175.5432,75.8303
175.6083,75.7329
175.7056,75.6679
175.8204,75.6451
176.4204,75.6451
176.5352,75.6679
176.6325,75.7329
176.6975,75.8303
176.7204,75.9451
176.7204,79.2451
176.6975,79.3599
176.6325,79.4572
176.5352,79.5222
176.4204,79.5451
Z" /> 
<path style="fill:#000000; fill-opacity:1.0000; stroke:none;fill-rule:evenodd;"
d="M 178.3604,79.5451
178.2456,79.5222
178.1483,79.4572
178.0832,79.3599
178.0604,79.2451
178.0604,75.9451
178.0832,75.8303
178.1483,75.7329
178.2456,75.6679
178.3604,75.6451
178.9604,75.6451
179.0752,75.6679
179.1725,75.7329
179.2375,75.8303
179.2604,75.9451
179.2604,79.2451
179.2375,79.3599
179.1725,79.4572
179.0752,79.5222
178.9604,79.5451
Z" /> 
<path style="fill:#000000; fill-opacity:1.0000; stroke:none;fill-rule:evenodd;"
d="M 180.9004,79.5451
180.7856,79.5222
180.6883,79.4572
180.6232,79.3599
180.6004,79.2451
180.6004,75.9451
180.6232,75.8303
180.6883,75.7329
180.7856,75.6679
180.9004,75.6451
181.5004,75.6451
181.6152,75.6679
181.7125,75.7329
181.7775,75.8303
181.8004,75.9451
181.8004,79.2451
181.7775,79.3599
181.7125,79.4572
181.6152,79.5222
181.5004,79.5451
Z" /> 
<path style="fill:#000000; fill-opacity:1.0000; stroke:none;fill-rule:evenodd;"
d="M 183.4404,79.5451
183.3256,79.5222
183.2283,79.4572
183.1632,79.3599
183.1404,79.2451
183.1404,75.9451
183.1632,75.8303
183.2283,75.7329
183.3256,75.6679
183.4404,75.6451
184.0404,75.6451
184.1552,75.6679
184.2525,75.7329
184.3175,75.8303
184.3404,75.9451
184.3404,79.2451
184.3175,79.3599
184.2525,79.4572
184.1552,79.5222
184.0404,79.5451
Z" /> 
<path style="fill:#000000; fill-opacity:1.0000; stroke:none;fill-rule:evenodd;"
d="M 185.9804,79.5451
185.8656,79.5222
185.7683,79.4572
185.7032,79.3599
185.6804,79.2451
185.6804,75.9451
185.7032,75.8303
185.7683,75.7329
185.8656,75.6679
185.9804,75.6451
186.5804,75.6451
186.6952,75.6679
186.7925,75.7329
186.8575,75.8303
186.8804,75.9451
186.8804,79.2451
186.8575,79.3599
186.7925,79.4572
186.6952,79.5222
186.5804,79.5451
Z" /> 
<path style="fill:#000000; fill-opacity:1.0000; stroke:none;fill-rule:evenodd;"
d="M 188.5204,79.5451
188.4056,79.5222
188.3083,79.4572
188.2432,79.3599
188.2204,79.2451
188.2204,75.9451
188.2432,75.8303
188.3083,75.7329
188.4056,75.6679
188.5204,75.6451
189.1204,75.6451
189.2352,75.6679
189.3325,75.7329
189.3975,75.8303
189.4204,75.9451
189.4204,79.2451
189.3975,79.3599
189.3325,79.4572
189.2352,79.5222
189.1204,79.5451
Z" /> 
<path style="fill:#000000; fill-opacity:1.0000; stroke:none;fill-rule:evenodd;"
d="M 188.5204,69.6451
188.4056,69.6222
188.3083,69.5572
188.2432,69.4599
188.2204,69.3451
188.2204,66.0451
188.2432,65.9303
188.3083,65.8329
188.4056,65.7679
188.5204,65.7451
189.1204,65.7451
189.2352,65.7679
189.3325,65.8329
189.3975,65.9303
189.4204,66.0451
189.4204,69.3451
189.3975,69.4599
189.3325,69.5572
189.2352,69.6222
189.1204,69.6451
Z" /> 
<path style="fill:#000000; fill-opacity:1.0000; stroke:none;fill-rule:evenodd;"
d="M 185.9804,69.6451
185.8656,69.6222
185.7683,69.5572
185.7032,69.4599
185.6804,69.3451
185.6804,66.0451
185.7032,65.9303
185.7683,65.8329
185.8656,65.7679
185.9804,65.7451
186.5804,65.7451
186.6952,65.7679
186.7925,65.8329
186.8575,65.9303
186.8804,66.0451
186.8804,69.3451
186.8575,69.4599
186.7925,69.5572
186.6952,69.6222
186.5804,69.6451
Z" /> 
<path style="fill:#000000; fill-opacity:1.0000; stroke:none;fill-rule:evenodd;"
d="M 183.4404,69.6451
183.3256,69.6222
183.2283,69.5572
183.1632,69.4599
183.1404,69.3451
183.1404,66.0451
183.1632,65.9303
183.2283,65.8329
183.3256,65.7679
183.4404,65.7451
184.0404,65.7451
184.1552,65.7679
184.2525,65.8329
184.3175,65.9303
184.3404,66.0451
184.3404,69.3451
184.3175,69.4599
184.2525,69.5572
184.1552,69.6222
184.0404,69.6451
Z" /> 
<path style="fill:#000000; fill-opacity:1.0000; stroke:none;fill-rule:evenodd;"
d="M 180.9004,69.6451
180.7856,69.6222
180.6883,69.5572
180.6232,69.4599
180.6004,69.3451
180.6004,66.0451
180.6232,65.9303
180.6883,65.8329
180.7856,65.7679
180.9004,65.7451
181.5004,65.7451
181.6152,65.7679
181.7125,65.8329
181.7775,65.9303
181.8004,66.0451
181.8004,69.3451
181.7775,69.4599
181.7125,69.5572
181.6152,69.6222
181.5004,69.6451
Z" /> 
<path style="fill:#000000; fill-opacity:1.0000; stroke:none;fill-rule:evenodd;"
d="M 178.3604,69.6451
178.2456,69.6222
178.1483,69.5572
178.0832,69.4599
178.0604,69.3451
178.0604,66.0451
178.0832,65.9303
178.1483,65.8329
178.2456,65.7679
178.3604,65.7451
178.9604,65.7451
179.0752,65.7679
179.1725,65.8329
179.2375,65.9303
179.2604,66.0451
179.2604,69.3451
179.2375,69.4599
179.1725,69.5572
179.0752,69.6222
178.9604,69.6451
Z" /> 
<path style="fill:#000000; fill-opacity:1.0000; stroke:none;fill-rule:evenodd;"
d="M 175.8204,69.6451
175.7056,69.6222
175.6083,69.5572
175.5432,69.4599
175.5204,69.3451
175.5204,66.0451
175.5432,65.9303
175.6083,65.8329
175.7056,65.7679
175.8204,65.7451
176.4204,65.7451
176.5352,65.7679
176.6325,65.8329
176.6975,65.9303
176.7204,66.0451
176.7204,69.3451
176.6975,69.4599
176.6325,69.5572
176.5352,69.6222
176.4204,69.6451
Z" /> 
<path style="fill:#000000; fill-opacity:1.0000; stroke:none;fill-rule:evenodd;"
d="M 173.2804,69.6451
173.1656,69.6222
173.0683,69.5572
173.0032,69.4599
172.9804,69.3451
172.9804,66.0451
173.0032,65.9303
173.0683,65.8329
173.1656,65.7679
173.2804,65.7451
173.8804,65.7451
173.9952,65.7679
174.0925,65.8329
174.1575,65.9303
174.1804,66.0451
174.1804,69.3451
174.1575,69.4599
174.0925,69.5572
173.9952,69.6222
173.8804,69.6451
Z" /> 
<path style="fill:#000000; fill-opacity:1.0000; stroke:none;fill-rule:evenodd;"
d="M 206.3796,58.2201
206.1978,58.1839
206.0437,58.0809
205.9407,57.9268
205.9046,57.7451
205.9046,56.5451
205.9407,56.3633
206.0437,56.2092
206.1978,56.1062
206.3796,56.0701
207.3296,56.0701
207.5114,56.1062
207.6655,56.2092
207.7684,56.3633
207.8046,56.5451
207.8046,57.7451
207.7684,57.9268
207.6655,58.0809
207.5114,58.1839
207.3296,58.2201
Z" /> 
<path style="fill:#000000; fill-opacity:1.0000; stroke:none;fill-rule:evenodd;"
d="M 206.3796,54.7701
206.1978,54.7339
206.0437,54.6309
205.9407,54.4768
205.9046,54.2951
205.9046,53.0951
205.9407,52.9133
206.0437,52.7592
206.1978,52.6562
206.3796,52.6201
207.3296,52.6201
207.5114,52.6562
207.6655,52.7592
207.7684,52.9133
207.8046,53.0951
207.8046,54.2951
207.7684,54.4768
207.6655,54.6309
207.5114,54.7339
207.3296,54.7701
Z" /> 
<path style="fill:#000000; fill-opacity:1.0000; stroke:none;fill-rule:evenodd;"
d="M 123.8254,94.3451
123.8634,94.1537
123.9718,93.9915
124.1340,93.8831
124.3254,93.8451
125.6254,93.8451
125.8167,93.8831
125.9789,93.9915
126.0873,94.1537
126.1254,94.3451
126.1254,96.9451
126.0873,97.1364
125.9789,97.2986
125.8167,97.4070
125.6254,97.4451
124.3254,97.4451
124.1340,97.4070
123.9718,97.2986
123.8634,97.1364
123.8254,96.9451
Z" /> 
<path style="fill:#000000; fill-opacity:1.0000; stroke:none;fill-rule:evenodd;"
d="M 129.7254,94.3451
129.7634,94.1537
129.8718,93.9915
130.0340,93.8831
130.2254,93.8451
131.5254,93.8451
131.7167,93.8831
131.8789,93.9915
131.9873,94.1537
132.0254,94.3451
132.0254,96.9451
131.9873,97.1364
131.8789,97.2986
131.7167,97.4070
131.5254,97.4451
130.2254,97.4451
130.0340,97.4070
129.8718,97.2986
129.7634,97.1364
129.7254,96.9451
Z" /> 
<path style="fill:#000000; fill-opacity:1.0000; stroke:none;fill-rule:evenodd;"
d="M 88.7504,123.1701
88.7865,122.9883
88.8895,122.8342
89.0436,122.7312
89.2254,122.6951
90.2254,122.6951
90.4072,122.7312
90.5613,122.8342
90.6642,122.9883
90.7004,123.1701
90.7004,124.1201
90.6642,124.3018
90.5613,124.4559
90.4072,124.5589
90.2254,124.5951
89.2254,124.5951
89.0436,124.5589
88.8895,124.4559
88.7865,124.3018
88.7504,124.1201
Z" /> 
<path style="fill:#000000; fill-opacity:1.0000; stroke:none;fill-rule:evenodd;"
d="M 92.4004,123.1701
92.4365,122.9883
92.5395,122.8342
92.6936,122.7312
92.8754,122.6951
93.8754,122.6951
94.0572,122.7312
94.2113,122.8342
94.3142,122.9883
94.3504,123.1701
94.3504,124.1201
94.3142,124.3018
94.2113,124.4559
94.0572,124.5589
93.8754,124.5951
92.8754,124.5951
92.6936,124.5589
92.5395,124.4559
92.4365,124.3018
92.4004,124.1201
Z" /> 
<path style="fill:#000000; fill-opacity:1.0000; stroke:none;fill-rule:evenodd;"
d="M 144.8254,93.3451
144.8634,93.1537
144.9718,92.9915
145.1340,92.8831
145.3254,92.8451
146.6254,92.8451
146.8167,92.8831
146.9789,92.9915
147.0873,93.1537
147.1254,93.3451
147.1254,95.9451
147.0873,96.1364
146.9789,96.2986
146.8167,96.4070
146.6254,96.4451
145.3254,96.4451
145.1340,96.4070
144.9718,96.2986
144.8634,96.1364
144.8254,95.9451
Z" /> 
<path style="fill:#000000; fill-opacity:1.0000; stroke:none;fill-rule:evenodd;"
d="M 150.7254,93.3451
150.7634,93.1537
150.8718,92.9915
151.0340,92.8831
151.2254,92.8451
152.5254,92.8451
152.7167,92.8831
152.8789,92.9915
152.9873,93.1537
153.0254,93.3451
153.0254,95.9451
152.9873,96.1364
152.8789,96.2986
152.7167,96.4070
152.5254,96.4451
151.2254,96.4451
151.0340,96.4070
150.8718,96.2986
150.7634,96.1364
150.7254,95.9451
Z" /> 
<path style="fill:#000000; fill-opacity:1.0000; stroke:none;fill-rule:evenodd;"
d="M 226.9296,58.2201
226.7478,58.1839
226.5937,58.0809
226.4907,57.9268
226.4546,57.7451
226.4546,56.5451
226.4907,56.3633
226.5937,56.2092
226.7478,56.1062
226.9296,56.0701
227.8796,56.0701
228.0614,56.1062
228.2155,56.2092
228.3184,56.3633
228.3546,56.5451
228.3546,57.7451
228.3184,57.9268
228.2155,58.0809
228.0614,58.1839
227.8796,58.2201
Z" /> 
<path style="fill:#000000; fill-opacity:1.0000; stroke:none;fill-rule:evenodd;"
d="M 226.9296,54.7701
226.7478,54.7339
226.5937,54.6309
226.4907,54.4768
226.4546,54.2951
226.4546,53.0951
226.4907,52.9133
226.5937,52.7592
226.7478,52.6562
226.9296,52.6201
227.8796,52.6201
228.0614,52.6562
228.2155,52.7592
228.3184,52.9133
228.3546,53.0951
228.3546,54.2951
228.3184,54.4768
228.2155,54.6309
228.0614,54.7339
227.8796,54.7701
Z" /> 
<path style="fill:#000000; fill-opacity:1.0000; stroke:none;fill-rule:evenodd;"
d="M 206.4504,66.4451
206.2686,66.4089
206.1145,66.3059
206.0115,66.1518
205.9754,65.9701
205.9754,64.7701
206.0115,64.5883
206.1145,64.4342
206.2686,64.3312
206.4504,64.2951
207.4004,64.2951
207.5822,64.3312
207.7363,64.4342
207.8392,64.5883
207.8754,64.7701
207.8754,65.9701
207.8392,66.1518
207.7363,66.3059
207.5822,66.4089
207.4004,66.4451
Z" /> 
<path style="fill:#000000; fill-opacity:1.0000; stroke:none;fill-rule:evenodd;"
d="M 206.4504,62.9951
206.2686,62.9589
206.1145,62.8559
206.0115,62.7018
205.9754,62.5201
205.9754,61.3201
206.0115,61.1383
206.1145,60.9842
206.2686,60.8812
206.4504,60.8451
207.4004,60.8451
207.5822,60.8812
207.7363,60.9842
207.8392,61.1383
207.8754,61.3201
207.8754,62.5201
207.8392,62.7018
207.7363,62.8559
207.5822,62.9589
207.4004,62.9951
Z" /> 
<path style="fill:#000000; fill-opacity:1.0000; stroke:none;fill-rule:evenodd;"
d="M 217.4296,52.6201
217.6114,52.6562
217.7655,52.7592
217.8684,52.9133
217.9046,53.0951
217.9046,54.0951
217.8684,54.2768
217.7655,54.4309
217.6114,54.5339
217.4296,54.5701
216.4796,54.5701
216.2978,54.5339
216.1437,54.4309
216.0407,54.2768
216.0046,54.0951
216.0046,53.0951
216.0407,52.9133
216.1437,52.7592
216.2978,52.6562
216.4796,52.6201
Z" /> 
<path style="fill:#000000; fill-opacity:1.0000; stroke:none;fill-rule:evenodd;"
d="M 217.4296,56.2701
217.6114,56.3062
217.7655,56.4092
217.8684,56.5633
217.9046,56.7451
217.9046,57.7451
217.8684,57.9268
217.7655,58.0809
217.6114,58.1839
217.4296,58.2201
216.4796,58.2201
216.2978,58.1839
216.1437,58.0809
216.0407,57.9268
216.0046,57.7451
216.0046,56.7451
216.0407,56.5633
216.1437,56.4092
216.2978,56.3062
216.4796,56.2701
Z" /> 
<path style="fill:#000000; fill-opacity:1.0000; stroke:none;fill-rule:evenodd;"
d="M 142.6254,105.6701
142.6615,105.4883
142.7645,105.3342
142.9186,105.2312
143.1004,105.1951
144.3004,105.1951
144.4822,105.2312
144.6363,105.3342
144.7392,105.4883
144.7754,105.6701
144.7754,106.6201
144.7392,106.8018
144.6363,106.9559
144.4822,107.0589
144.3004,107.0951
143.1004,107.0951
142.9186,107.0589
142.7645,106.9559
142.6615,106.8018
142.6254,106.6201
Z" /> 
<path style="fill:#000000; fill-opacity:1.0000; stroke:none;fill-rule:evenodd;"
d="M 146.0754,105.6701
146.1115,105.4883
146.2145,105.3342
146.3686,105.2312
146.5504,105.1951
147.7504,105.1951
147.9322,105.2312
148.0863,105.3342
148.1892,105.4883
148.2254,105.6701
148.2254,106.6201
148.1892,106.8018
148.0863,106.9559
147.9322,107.0589
147.7504,107.0951
146.5504,107.0951
146.3686,107.0589
146.2145,106.9559
146.1115,106.8018
146.0754,106.6201
Z" /> 
<path style="fill:#000000; fill-opacity:1.0000; stroke:none;fill-rule:evenodd;"
d="M 114.1254,95.1701
114.1615,94.9883
114.2645,94.8342
114.4186,94.7312
114.6004,94.6951
115.8004,94.6951
115.9822,94.7312
116.1363,94.8342
116.2392,94.9883
116.2754,95.1701
116.2754,96.1201
116.2392,96.3018
116.1363,96.4559
115.9822,96.5589
115.8004,96.5951
114.6004,96.5951
114.4186,96.5589
114.2645,96.4559
114.1615,96.3018
114.1254,96.1201
Z" /> 
<path style="fill:#000000; fill-opacity:1.0000; stroke:none;fill-rule:evenodd;"
d="M 117.5754,95.1701
117.6115,94.9883
117.7145,94.8342
117.8686,94.7312
118.0504,94.6951
119.2504,94.6951
119.4322,94.7312
119.5863,94.8342
119.6892,94.9883
119.7254,95.1701
119.7254,96.1201
119.6892,96.3018
119.5863,96.4559
119.4322,96.5589
119.2504,96.5951
118.0504,96.5951
117.8686,96.5589
117.7145,96.4559
117.6115,96.3018
117.5754,96.1201
Z" /> 
<path style="fill:#000000; fill-opacity:1.0000; stroke:none;fill-rule:evenodd;"
d="M 113.9754,86.1201
113.9392,86.3018
113.8363,86.4559
113.6822,86.5589
113.5004,86.5951
112.3504,86.5951
112.1686,86.5589
112.0145,86.4559
111.9115,86.3018
111.8754,86.1201
111.8754,85.1701
111.9115,84.9883
112.0145,84.8342
112.1686,84.7312
112.3504,84.6951
113.5004,84.6951
113.6822,84.7312
113.8363,84.8342
113.9392,84.9883
113.9754,85.1701
Z" /> 
<path style="fill:#000000; fill-opacity:1.0000; stroke:none;fill-rule:evenodd;"
d="M 110.4754,86.1201
110.4392,86.3018
110.3363,86.4559
110.1822,86.5589
110.0004,86.5951
108.8504,86.5951
108.6686,86.5589
108.5145,86.4559
108.4115,86.3018
108.3754,86.1201
108.3754,85.1701
108.4115,84.9883
108.5145,84.8342
108.6686,84.7312
108.8504,84.6951
110.0004,84.6951
110.1822,84.7312
110.3363,84.8342
110.4392,84.9883
110.4754,85.1701
Z" /> 
<path style="fill:#000000; fill-opacity:1.0000; stroke:none;fill-rule:evenodd;"
d="M 175.2254,61.1201
175.1892,61.3018
175.0863,61.4559
174.9322,61.5589
174.7504,61.5951
173.5504,61.5951
173.3686,61.5589
173.2145,61.4559
173.1115,61.3018
173.0754,61.1201
173.0754,60.1701
173.1115,59.9883
173.2145,59.8342
173.3686,59.7312
173.5504,59.6951
174.7504,59.6951
174.9322,59.7312
175.0863,59.8342
175.1892,59.9883
175.2254,60.1701
Z" /> 
<path style="fill:#000000; fill-opacity:1.0000; stroke:none;fill-rule:evenodd;"
d="M 171.7754,61.1201
171.7392,61.3018
171.6363,61.4559
171.4822,61.5589
171.3004,61.5951
170.1004,61.5951
169.9186,61.5589
169.7645,61.4559
169.6615,61.3018
169.6254,61.1201
169.6254,60.1701
169.6615,59.9883
169.7645,59.8342
169.9186,59.7312
170.1004,59.6951
171.3004,59.6951
171.4822,59.7312
171.6363,59.8342
171.7392,59.9883
171.7754,60.1701
Z" /> 
</g> 
</svg>
