<?xml version="1.0" standalone="no"?>
 <!DOCTYPE svg PUBLIC "-//W3C//DTD SVG 1.1//EN" 
 "http://www.w3.org/Graphics/SVG/1.1/DTD/svg11.dtd"> 
<svg
  xmlns:svg="http://www.w3.org/2000/svg"
  xmlns="http://www.w3.org/2000/svg"
  xmlns:xlink="http://www.w3.org/1999/xlink"
  version="1.1"
  width="297.0022mm" height="210.0072mm" viewBox="0.0000 0.0000 297.0022 210.0072">
<title>SVG Image created as rcbus-ymf262-User_Drawings2.svg date 2025/09/01 23:04:51 </title>
  <desc>Image generated by PCBNEW </desc>
<g style="fill:#000000; fill-opacity:1.0000;stroke:#000000; stroke-opacity:1.0000;
stroke-linecap:round; stroke-linejoin:round;"
 transform="translate(0 0) scale(1 1)">
</g>
<g style="fill:none; 
stroke:#000000; stroke-width:0.6000; stroke-opacity:1; 
stroke-linecap:round; stroke-linejoin:round;">
<g transform="rotate(-90.000000 40.0054 100.6451)">
<text x="40.0054" y="102.1451"
textLength="30.0571" font-size="4.0000" lengthAdjust="spacingAndGlyphs"
text-anchor="middle" opacity="0" stroke-opacity="0">50.0000 mm</text>
</g>
<g class="stroked-text"><desc>50.0000 mm</desc>
<path d="M38.3620 112.9308
L38.3620 114.3593
" />
<path d="M38.3620 114.3593
L39.7906 114.5022
" />
<path d="M39.7906 114.5022
L39.6478 114.3593
" />
<path d="M39.6478 114.3593
L39.5049 114.0736
" />
<path d="M39.5049 114.0736
L39.5049 113.3593
" />
<path d="M39.5049 113.3593
L39.6478 113.0736
" />
<path d="M39.6478 113.0736
L39.7906 112.9308
" />
<path d="M39.7906 112.9308
L40.0763 112.7879
" />
<path d="M40.0763 112.7879
L40.7906 112.7879
" />
<path d="M40.7906 112.7879
L41.0763 112.9308
" />
<path d="M41.0763 112.9308
L41.2192 113.0736
" />
<path d="M41.2192 113.0736
L41.3620 113.3593
" />
<path d="M41.3620 113.3593
L41.3620 114.0736
" />
<path d="M41.3620 114.0736
L41.2192 114.3593
" />
<path d="M41.2192 114.3593
L41.0763 114.5022
" />
<path d="M38.3620 110.9308
L38.3620 110.6451
" />
<path d="M38.3620 110.6451
L38.5049 110.3593
" />
<path d="M38.5049 110.3593
L38.6478 110.2165
" />
<path d="M38.6478 110.2165
L38.9335 110.0736
" />
<path d="M38.9335 110.0736
L39.5049 109.9308
" />
<path d="M39.5049 109.9308
L40.2192 109.9308
" />
<path d="M40.2192 109.9308
L40.7906 110.0736
" />
<path d="M40.7906 110.0736
L41.0763 110.2165
" />
<path d="M41.0763 110.2165
L41.2192 110.3593
" />
<path d="M41.2192 110.3593
L41.3620 110.6451
" />
<path d="M41.3620 110.6451
L41.3620 110.9308
" />
<path d="M41.3620 110.9308
L41.2192 111.2165
" />
<path d="M41.2192 111.2165
L41.0763 111.3593
" />
<path d="M41.0763 111.3593
L40.7906 111.5022
" />
<path d="M40.7906 111.5022
L40.2192 111.6451
" />
<path d="M40.2192 111.6451
L39.5049 111.6451
" />
<path d="M39.5049 111.6451
L38.9335 111.5022
" />
<path d="M38.9335 111.5022
L38.6478 111.3593
" />
<path d="M38.6478 111.3593
L38.5049 111.2165
" />
<path d="M38.5049 111.2165
L38.3620 110.9308
" />
<path d="M41.0763 108.6451
L41.2192 108.5022
" />
<path d="M41.2192 108.5022
L41.3620 108.6451
" />
<path d="M41.3620 108.6451
L41.2192 108.7879
" />
<path d="M41.2192 108.7879
L41.0763 108.6451
" />
<path d="M41.0763 108.6451
L41.3620 108.6451
" />
<path d="M38.3620 106.6451
L38.3620 106.3593
" />
<path d="M38.3620 106.3593
L38.5049 106.0736
" />
<path d="M38.5049 106.0736
L38.6478 105.9308
" />
<path d="M38.6478 105.9308
L38.9335 105.7879
" />
<path d="M38.9335 105.7879
L39.5049 105.6451
" />
<path d="M39.5049 105.6451
L40.2192 105.6451
" />
<path d="M40.2192 105.6451
L40.7906 105.7879
" />
<path d="M40.7906 105.7879
L41.0763 105.9308
" />
<path d="M41.0763 105.9308
L41.2192 106.0736
" />
<path d="M41.2192 106.0736
L41.3620 106.3593
" />
<path d="M41.3620 106.3593
L41.3620 106.6451
" />
<path d="M41.3620 106.6451
L41.2192 106.9308
" />
<path d="M41.2192 106.9308
L41.0763 107.0736
" />
<path d="M41.0763 107.0736
L40.7906 107.2165
" />
<path d="M40.7906 107.2165
L40.2192 107.3593
" />
<path d="M40.2192 107.3593
L39.5049 107.3593
" />
<path d="M39.5049 107.3593
L38.9335 107.2165
" />
<path d="M38.9335 107.2165
L38.6478 107.0736
" />
<path d="M38.6478 107.0736
L38.5049 106.9308
" />
<path d="M38.5049 106.9308
L38.3620 106.6451
" />
<path d="M38.3620 103.7879
L38.3620 103.5022
" />
<path d="M38.3620 103.5022
L38.5049 103.2165
" />
<path d="M38.5049 103.2165
L38.6478 103.0736
" />
<path d="M38.6478 103.0736
L38.9335 102.9308
" />
<path d="M38.9335 102.9308
L39.5049 102.7879
" />
<path d="M39.5049 102.7879
L40.2192 102.7879
" />
<path d="M40.2192 102.7879
L40.7906 102.9308
" />
<path d="M40.7906 102.9308
L41.0763 103.0736
" />
<path d="M41.0763 103.0736
L41.2192 103.2165
" />
<path d="M41.2192 103.2165
L41.3620 103.5022
" />
<path d="M41.3620 103.5022
L41.3620 103.7879
" />
<path d="M41.3620 103.7879
L41.2192 104.0736
" />
<path d="M41.2192 104.0736
L41.0763 104.2165
" />
<path d="M41.0763 104.2165
L40.7906 104.3593
" />
<path d="M40.7906 104.3593
L40.2192 104.5022
" />
<path d="M40.2192 104.5022
L39.5049 104.5022
" />
<path d="M39.5049 104.5022
L38.9335 104.3593
" />
<path d="M38.9335 104.3593
L38.6478 104.2165
" />
<path d="M38.6478 104.2165
L38.5049 104.0736
" />
<path d="M38.5049 104.0736
L38.3620 103.7879
" />
<path d="M38.3620 100.9308
L38.3620 100.6451
" />
<path d="M38.3620 100.6451
L38.5049 100.3593
" />
<path d="M38.5049 100.3593
L38.6478 100.2165
" />
<path d="M38.6478 100.2165
L38.9335 100.0736
" />
<path d="M38.9335 100.0736
L39.5049 99.9308
" />
<path d="M39.5049 99.9308
L40.2192 99.9308
" />
<path d="M40.2192 99.9308
L40.7906 100.0736
" />
<path d="M40.7906 100.0736
L41.0763 100.2165
" />
<path d="M41.0763 100.2165
L41.2192 100.3593
" />
<path d="M41.2192 100.3593
L41.3620 100.6451
" />
<path d="M41.3620 100.6451
L41.3620 100.9308
" />
<path d="M41.3620 100.9308
L41.2192 101.2165
" />
<path d="M41.2192 101.2165
L41.0763 101.3593
" />
<path d="M41.0763 101.3593
L40.7906 101.5022
" />
<path d="M40.7906 101.5022
L40.2192 101.6451
" />
<path d="M40.2192 101.6451
L39.5049 101.6451
" />
<path d="M39.5049 101.6451
L38.9335 101.5022
" />
<path d="M38.9335 101.5022
L38.6478 101.3593
" />
<path d="M38.6478 101.3593
L38.5049 101.2165
" />
<path d="M38.5049 101.2165
L38.3620 100.9308
" />
<path d="M38.3620 98.0736
L38.3620 97.7879
" />
<path d="M38.3620 97.7879
L38.5049 97.5022
" />
<path d="M38.5049 97.5022
L38.6478 97.3593
" />
<path d="M38.6478 97.3593
L38.9335 97.2165
" />
<path d="M38.9335 97.2165
L39.5049 97.0736
" />
<path d="M39.5049 97.0736
L40.2192 97.0736
" />
<path d="M40.2192 97.0736
L40.7906 97.2165
" />
<path d="M40.7906 97.2165
L41.0763 97.3593
" />
<path d="M41.0763 97.3593
L41.2192 97.5022
" />
<path d="M41.2192 97.5022
L41.3620 97.7879
" />
<path d="M41.3620 97.7879
L41.3620 98.0736
" />
<path d="M41.3620 98.0736
L41.2192 98.3593
" />
<path d="M41.2192 98.3593
L41.0763 98.5022
" />
<path d="M41.0763 98.5022
L40.7906 98.6451
" />
<path d="M40.7906 98.6451
L40.2192 98.7879
" />
<path d="M40.2192 98.7879
L39.5049 98.7879
" />
<path d="M39.5049 98.7879
L38.9335 98.6451
" />
<path d="M38.9335 98.6451
L38.6478 98.5022
" />
<path d="M38.6478 98.5022
L38.5049 98.3593
" />
<path d="M38.5049 98.3593
L38.3620 98.0736
" />
<path d="M41.3620 93.5022
L39.3620 93.5022
" />
<path d="M39.6478 93.5022
L39.5049 93.3593
" />
<path d="M39.5049 93.3593
L39.3620 93.0736
" />
<path d="M39.3620 93.0736
L39.3620 92.6451
" />
<path d="M39.3620 92.6451
L39.5049 92.3593
" />
<path d="M39.5049 92.3593
L39.7906 92.2165
" />
<path d="M39.7906 92.2165
L41.3620 92.2165
" />
<path d="M39.7906 92.2165
L39.5049 92.0736
" />
<path d="M39.5049 92.0736
L39.3620 91.7879
" />
<path d="M39.3620 91.7879
L39.3620 91.3593
" />
<path d="M39.3620 91.3593
L39.5049 91.0736
" />
<path d="M39.5049 91.0736
L39.7906 90.9308
" />
<path d="M39.7906 90.9308
L41.3620 90.9308
" />
<path d="M41.3620 89.5022
L39.3620 89.5022
" />
<path d="M39.6478 89.5022
L39.5049 89.3593
" />
<path d="M39.5049 89.3593
L39.3620 89.0736
" />
<path d="M39.3620 89.0736
L39.3620 88.6451
" />
<path d="M39.3620 88.6451
L39.5049 88.3593
" />
<path d="M39.5049 88.3593
L39.7906 88.2165
" />
<path d="M39.7906 88.2165
L41.3620 88.2165
" />
<path d="M39.7906 88.2165
L39.5049 88.0736
" />
<path d="M39.5049 88.0736
L39.3620 87.7879
" />
<path d="M39.3620 87.7879
L39.3620 87.3593
" />
<path d="M39.3620 87.3593
L39.5049 87.0736
" />
<path d="M39.5049 87.0736
L39.7906 86.9308
" />
<path d="M39.7906 86.9308
L41.3620 86.9308
" />
</g><path d="M63.9254 50.6451
L42.4325 50.6451
" />
<path d="M63.9254 150.6451
L42.4325 150.6451
" />
<path d="M43.6054 50.6451
L43.6054 150.6451
" />
<path d="M43.6054 50.6451
L44.7782 52.8981
" />
<path d="M43.6054 50.6451
L42.4325 52.8981
" />
<path d="M43.6054 150.6451
L42.4325 148.3920
" />
<path d="M43.6054 150.6451
L44.7782 148.3920
" />
<text x="258.4254" y="39.3373"
textLength="27.2000" font-size="4.0000" lengthAdjust="spacingAndGlyphs"
text-anchor="middle" opacity="0" stroke-opacity="0">5.5000 mm</text>
<g class="stroked-text"><desc>5.5000 mm</desc>
<path d="M247.5682 36.1940
L246.1397 36.1940
" />
<path d="M246.1397 36.1940
L245.9968 37.6225
" />
<path d="M245.9968 37.6225
L246.1397 37.4797
" />
<path d="M246.1397 37.4797
L246.4254 37.3368
" />
<path d="M246.4254 37.3368
L247.1397 37.3368
" />
<path d="M247.1397 37.3368
L247.4254 37.4797
" />
<path d="M247.4254 37.4797
L247.5682 37.6225
" />
<path d="M247.5682 37.6225
L247.7111 37.9082
" />
<path d="M247.7111 37.9082
L247.7111 38.6225
" />
<path d="M247.7111 38.6225
L247.5682 38.9082
" />
<path d="M247.5682 38.9082
L247.4254 39.0511
" />
<path d="M247.4254 39.0511
L247.1397 39.1940
" />
<path d="M247.1397 39.1940
L246.4254 39.1940
" />
<path d="M246.4254 39.1940
L246.1397 39.0511
" />
<path d="M246.1397 39.0511
L245.9968 38.9082
" />
<path d="M248.9968 38.9082
L249.1397 39.0511
" />
<path d="M249.1397 39.0511
L248.9968 39.1940
" />
<path d="M248.9968 39.1940
L248.8540 39.0511
" />
<path d="M248.8540 39.0511
L248.9968 38.9082
" />
<path d="M248.9968 38.9082
L248.9968 39.1940
" />
<path d="M251.8540 36.1940
L250.4254 36.1940
" />
<path d="M250.4254 36.1940
L250.2825 37.6225
" />
<path d="M250.2825 37.6225
L250.4254 37.4797
" />
<path d="M250.4254 37.4797
L250.7111 37.3368
" />
<path d="M250.7111 37.3368
L251.4254 37.3368
" />
<path d="M251.4254 37.3368
L251.7111 37.4797
" />
<path d="M251.7111 37.4797
L251.8540 37.6225
" />
<path d="M251.8540 37.6225
L251.9968 37.9082
" />
<path d="M251.9968 37.9082
L251.9968 38.6225
" />
<path d="M251.9968 38.6225
L251.8540 38.9082
" />
<path d="M251.8540 38.9082
L251.7111 39.0511
" />
<path d="M251.7111 39.0511
L251.4254 39.1940
" />
<path d="M251.4254 39.1940
L250.7111 39.1940
" />
<path d="M250.7111 39.1940
L250.4254 39.0511
" />
<path d="M250.4254 39.0511
L250.2825 38.9082
" />
<path d="M253.8540 36.1940
L254.1397 36.1940
" />
<path d="M254.1397 36.1940
L254.4254 36.3368
" />
<path d="M254.4254 36.3368
L254.5682 36.4797
" />
<path d="M254.5682 36.4797
L254.7111 36.7654
" />
<path d="M254.7111 36.7654
L254.8540 37.3368
" />
<path d="M254.8540 37.3368
L254.8540 38.0511
" />
<path d="M254.8540 38.0511
L254.7111 38.6225
" />
<path d="M254.7111 38.6225
L254.5682 38.9082
" />
<path d="M254.5682 38.9082
L254.4254 39.0511
" />
<path d="M254.4254 39.0511
L254.1397 39.1940
" />
<path d="M254.1397 39.1940
L253.8540 39.1940
" />
<path d="M253.8540 39.1940
L253.5682 39.0511
" />
<path d="M253.5682 39.0511
L253.4254 38.9082
" />
<path d="M253.4254 38.9082
L253.2825 38.6225
" />
<path d="M253.2825 38.6225
L253.1397 38.0511
" />
<path d="M253.1397 38.0511
L253.1397 37.3368
" />
<path d="M253.1397 37.3368
L253.2825 36.7654
" />
<path d="M253.2825 36.7654
L253.4254 36.4797
" />
<path d="M253.4254 36.4797
L253.5682 36.3368
" />
<path d="M253.5682 36.3368
L253.8540 36.1940
" />
<path d="M256.7111 36.1940
L256.9968 36.1940
" />
<path d="M256.9968 36.1940
L257.2825 36.3368
" />
<path d="M257.2825 36.3368
L257.4254 36.4797
" />
<path d="M257.4254 36.4797
L257.5682 36.7654
" />
<path d="M257.5682 36.7654
L257.7111 37.3368
" />
<path d="M257.7111 37.3368
L257.7111 38.0511
" />
<path d="M257.7111 38.0511
L257.5682 38.6225
" />
<path d="M257.5682 38.6225
L257.4254 38.9082
" />
<path d="M257.4254 38.9082
L257.2825 39.0511
" />
<path d="M257.2825 39.0511
L256.9968 39.1940
" />
<path d="M256.9968 39.1940
L256.7111 39.1940
" />
<path d="M256.7111 39.1940
L256.4254 39.0511
" />
<path d="M256.4254 39.0511
L256.2825 38.9082
" />
<path d="M256.2825 38.9082
L256.1397 38.6225
" />
<path d="M256.1397 38.6225
L255.9968 38.0511
" />
<path d="M255.9968 38.0511
L255.9968 37.3368
" />
<path d="M255.9968 37.3368
L256.1397 36.7654
" />
<path d="M256.1397 36.7654
L256.2825 36.4797
" />
<path d="M256.2825 36.4797
L256.4254 36.3368
" />
<path d="M256.4254 36.3368
L256.7111 36.1940
" />
<path d="M259.5682 36.1940
L259.8540 36.1940
" />
<path d="M259.8540 36.1940
L260.1397 36.3368
" />
<path d="M260.1397 36.3368
L260.2825 36.4797
" />
<path d="M260.2825 36.4797
L260.4254 36.7654
" />
<path d="M260.4254 36.7654
L260.5682 37.3368
" />
<path d="M260.5682 37.3368
L260.5682 38.0511
" />
<path d="M260.5682 38.0511
L260.4254 38.6225
" />
<path d="M260.4254 38.6225
L260.2825 38.9082
" />
<path d="M260.2825 38.9082
L260.1397 39.0511
" />
<path d="M260.1397 39.0511
L259.8540 39.1940
" />
<path d="M259.8540 39.1940
L259.5682 39.1940
" />
<path d="M259.5682 39.1940
L259.2825 39.0511
" />
<path d="M259.2825 39.0511
L259.1397 38.9082
" />
<path d="M259.1397 38.9082
L258.9968 38.6225
" />
<path d="M258.9968 38.6225
L258.8540 38.0511
" />
<path d="M258.8540 38.0511
L258.8540 37.3368
" />
<path d="M258.8540 37.3368
L258.9968 36.7654
" />
<path d="M258.9968 36.7654
L259.1397 36.4797
" />
<path d="M259.1397 36.4797
L259.2825 36.3368
" />
<path d="M259.2825 36.3368
L259.5682 36.1940
" />
<path d="M264.1397 39.1940
L264.1397 37.1940
" />
<path d="M264.1397 37.4797
L264.2825 37.3368
" />
<path d="M264.2825 37.3368
L264.5682 37.1940
" />
<path d="M264.5682 37.1940
L264.9968 37.1940
" />
<path d="M264.9968 37.1940
L265.2825 37.3368
" />
<path d="M265.2825 37.3368
L265.4254 37.6225
" />
<path d="M265.4254 37.6225
L265.4254 39.1940
" />
<path d="M265.4254 37.6225
L265.5682 37.3368
" />
<path d="M265.5682 37.3368
L265.8540 37.1940
" />
<path d="M265.8540 37.1940
L266.2825 37.1940
" />
<path d="M266.2825 37.1940
L266.5682 37.3368
" />
<path d="M266.5682 37.3368
L266.7111 37.6225
" />
<path d="M266.7111 37.6225
L266.7111 39.1940
" />
<path d="M268.1397 39.1940
L268.1397 37.1940
" />
<path d="M268.1397 37.4797
L268.2825 37.3368
" />
<path d="M268.2825 37.3368
L268.5682 37.1940
" />
<path d="M268.5682 37.1940
L268.9968 37.1940
" />
<path d="M268.9968 37.1940
L269.2825 37.3368
" />
<path d="M269.2825 37.3368
L269.4254 37.6225
" />
<path d="M269.4254 37.6225
L269.4254 39.1940
" />
<path d="M269.4254 37.6225
L269.5682 37.3368
" />
<path d="M269.5682 37.3368
L269.8540 37.1940
" />
<path d="M269.8540 37.1940
L270.2825 37.1940
" />
<path d="M270.2825 37.1940
L270.5682 37.3368
" />
<path d="M270.5682 37.3368
L270.7111 37.6225
" />
<path d="M270.7111 37.6225
L270.7111 39.1940
" />
</g><path d="M263.9254 50.4373
L263.9254 40.2645
" />
<path d="M252.9254 50.4373
L252.9254 40.2645
" />
<path d="M263.9254 41.4373
L252.9254 41.4373
" />
<path d="M263.9254 41.4373
L261.6724 42.6101
" />
<path d="M263.9254 41.4373
L261.6724 40.2645
" />
<path d="M252.9254 41.4373
L255.1784 40.2645
" />
<path d="M252.9254 41.4373
L255.1784 42.6101
" />
<text x="163.9254" y="171.4051"
textLength="32.9143" font-size="4.0000" lengthAdjust="spacingAndGlyphs"
text-anchor="middle" opacity="0" stroke-opacity="0">100.0000 mm</text>
<g class="stroked-text"><desc>100.0000 mm</desc>
<path d="M150.3540 171.2617
L148.6397 171.2617
" />
<path d="M149.4968 171.2617
L149.4968 168.2617
" />
<path d="M149.4968 168.2617
L149.2111 168.6903
" />
<path d="M149.2111 168.6903
L148.9254 168.9760
" />
<path d="M148.9254 168.9760
L148.6397 169.1189
" />
<path d="M152.2111 168.2617
L152.4968 168.2617
" />
<path d="M152.4968 168.2617
L152.7825 168.4046
" />
<path d="M152.7825 168.4046
L152.9254 168.5474
" />
<path d="M152.9254 168.5474
L153.0682 168.8331
" />
<path d="M153.0682 168.8331
L153.2111 169.4046
" />
<path d="M153.2111 169.4046
L153.2111 170.1189
" />
<path d="M153.2111 170.1189
L153.0682 170.6903
" />
<path d="M153.0682 170.6903
L152.9254 170.9760
" />
<path d="M152.9254 170.9760
L152.7825 171.1189
" />
<path d="M152.7825 171.1189
L152.4968 171.2617
" />
<path d="M152.4968 171.2617
L152.2111 171.2617
" />
<path d="M152.2111 171.2617
L151.9254 171.1189
" />
<path d="M151.9254 171.1189
L151.7825 170.9760
" />
<path d="M151.7825 170.9760
L151.6397 170.6903
" />
<path d="M151.6397 170.6903
L151.4968 170.1189
" />
<path d="M151.4968 170.1189
L151.4968 169.4046
" />
<path d="M151.4968 169.4046
L151.6397 168.8331
" />
<path d="M151.6397 168.8331
L151.7825 168.5474
" />
<path d="M151.7825 168.5474
L151.9254 168.4046
" />
<path d="M151.9254 168.4046
L152.2111 168.2617
" />
<path d="M155.0682 168.2617
L155.3540 168.2617
" />
<path d="M155.3540 168.2617
L155.6397 168.4046
" />
<path d="M155.6397 168.4046
L155.7825 168.5474
" />
<path d="M155.7825 168.5474
L155.9254 168.8331
" />
<path d="M155.9254 168.8331
L156.0682 169.4046
" />
<path d="M156.0682 169.4046
L156.0682 170.1189
" />
<path d="M156.0682 170.1189
L155.9254 170.6903
" />
<path d="M155.9254 170.6903
L155.7825 170.9760
" />
<path d="M155.7825 170.9760
L155.6397 171.1189
" />
<path d="M155.6397 171.1189
L155.3540 171.2617
" />
<path d="M155.3540 171.2617
L155.0682 171.2617
" />
<path d="M155.0682 171.2617
L154.7825 171.1189
" />
<path d="M154.7825 171.1189
L154.6397 170.9760
" />
<path d="M154.6397 170.9760
L154.4968 170.6903
" />
<path d="M154.4968 170.6903
L154.3540 170.1189
" />
<path d="M154.3540 170.1189
L154.3540 169.4046
" />
<path d="M154.3540 169.4046
L154.4968 168.8331
" />
<path d="M154.4968 168.8331
L154.6397 168.5474
" />
<path d="M154.6397 168.5474
L154.7825 168.4046
" />
<path d="M154.7825 168.4046
L155.0682 168.2617
" />
<path d="M157.3540 170.9760
L157.4968 171.1189
" />
<path d="M157.4968 171.1189
L157.3540 171.2617
" />
<path d="M157.3540 171.2617
L157.2111 171.1189
" />
<path d="M157.2111 171.1189
L157.3540 170.9760
" />
<path d="M157.3540 170.9760
L157.3540 171.2617
" />
<path d="M159.3540 168.2617
L159.6397 168.2617
" />
<path d="M159.6397 168.2617
L159.9254 168.4046
" />
<path d="M159.9254 168.4046
L160.0682 168.5474
" />
<path d="M160.0682 168.5474
L160.2111 168.8331
" />
<path d="M160.2111 168.8331
L160.3540 169.4046
" />
<path d="M160.3540 169.4046
L160.3540 170.1189
" />
<path d="M160.3540 170.1189
L160.2111 170.6903
" />
<path d="M160.2111 170.6903
L160.0682 170.9760
" />
<path d="M160.0682 170.9760
L159.9254 171.1189
" />
<path d="M159.9254 171.1189
L159.6397 171.2617
" />
<path d="M159.6397 171.2617
L159.3540 171.2617
" />
<path d="M159.3540 171.2617
L159.0682 171.1189
" />
<path d="M159.0682 171.1189
L158.9254 170.9760
" />
<path d="M158.9254 170.9760
L158.7825 170.6903
" />
<path d="M158.7825 170.6903
L158.6397 170.1189
" />
<path d="M158.6397 170.1189
L158.6397 169.4046
" />
<path d="M158.6397 169.4046
L158.7825 168.8331
" />
<path d="M158.7825 168.8331
L158.9254 168.5474
" />
<path d="M158.9254 168.5474
L159.0682 168.4046
" />
<path d="M159.0682 168.4046
L159.3540 168.2617
" />
<path d="M162.2111 168.2617
L162.4968 168.2617
" />
<path d="M162.4968 168.2617
L162.7825 168.4046
" />
<path d="M162.7825 168.4046
L162.9254 168.5474
" />
<path d="M162.9254 168.5474
L163.0682 168.8331
" />
<path d="M163.0682 168.8331
L163.2111 169.4046
" />
<path d="M163.2111 169.4046
L163.2111 170.1189
" />
<path d="M163.2111 170.1189
L163.0682 170.6903
" />
<path d="M163.0682 170.6903
L162.9254 170.9760
" />
<path d="M162.9254 170.9760
L162.7825 171.1189
" />
<path d="M162.7825 171.1189
L162.4968 171.2617
" />
<path d="M162.4968 171.2617
L162.2111 171.2617
" />
<path d="M162.2111 171.2617
L161.9254 171.1189
" />
<path d="M161.9254 171.1189
L161.7825 170.9760
" />
<path d="M161.7825 170.9760
L161.6397 170.6903
" />
<path d="M161.6397 170.6903
L161.4968 170.1189
" />
<path d="M161.4968 170.1189
L161.4968 169.4046
" />
<path d="M161.4968 169.4046
L161.6397 168.8331
" />
<path d="M161.6397 168.8331
L161.7825 168.5474
" />
<path d="M161.7825 168.5474
L161.9254 168.4046
" />
<path d="M161.9254 168.4046
L162.2111 168.2617
" />
<path d="M165.0682 168.2617
L165.3540 168.2617
" />
<path d="M165.3540 168.2617
L165.6397 168.4046
" />
<path d="M165.6397 168.4046
L165.7825 168.5474
" />
<path d="M165.7825 168.5474
L165.9254 168.8331
" />
<path d="M165.9254 168.8331
L166.0682 169.4046
" />
<path d="M166.0682 169.4046
L166.0682 170.1189
" />
<path d="M166.0682 170.1189
L165.9254 170.6903
" />
<path d="M165.9254 170.6903
L165.7825 170.9760
" />
<path d="M165.7825 170.9760
L165.6397 171.1189
" />
<path d="M165.6397 171.1189
L165.3540 171.2617
" />
<path d="M165.3540 171.2617
L165.0682 171.2617
" />
<path d="M165.0682 171.2617
L164.7825 171.1189
" />
<path d="M164.7825 171.1189
L164.6397 170.9760
" />
<path d="M164.6397 170.9760
L164.4968 170.6903
" />
<path d="M164.4968 170.6903
L164.3540 170.1189
" />
<path d="M164.3540 170.1189
L164.3540 169.4046
" />
<path d="M164.3540 169.4046
L164.4968 168.8331
" />
<path d="M164.4968 168.8331
L164.6397 168.5474
" />
<path d="M164.6397 168.5474
L164.7825 168.4046
" />
<path d="M164.7825 168.4046
L165.0682 168.2617
" />
<path d="M167.9254 168.2617
L168.2111 168.2617
" />
<path d="M168.2111 168.2617
L168.4968 168.4046
" />
<path d="M168.4968 168.4046
L168.6397 168.5474
" />
<path d="M168.6397 168.5474
L168.7825 168.8331
" />
<path d="M168.7825 168.8331
L168.9254 169.4046
" />
<path d="M168.9254 169.4046
L168.9254 170.1189
" />
<path d="M168.9254 170.1189
L168.7825 170.6903
" />
<path d="M168.7825 170.6903
L168.6397 170.9760
" />
<path d="M168.6397 170.9760
L168.4968 171.1189
" />
<path d="M168.4968 171.1189
L168.2111 171.2617
" />
<path d="M168.2111 171.2617
L167.9254 171.2617
" />
<path d="M167.9254 171.2617
L167.6397 171.1189
" />
<path d="M167.6397 171.1189
L167.4968 170.9760
" />
<path d="M167.4968 170.9760
L167.3540 170.6903
" />
<path d="M167.3540 170.6903
L167.2111 170.1189
" />
<path d="M167.2111 170.1189
L167.2111 169.4046
" />
<path d="M167.2111 169.4046
L167.3540 168.8331
" />
<path d="M167.3540 168.8331
L167.4968 168.5474
" />
<path d="M167.4968 168.5474
L167.6397 168.4046
" />
<path d="M167.6397 168.4046
L167.9254 168.2617
" />
<path d="M172.4968 171.2617
L172.4968 169.2617
" />
<path d="M172.4968 169.5474
L172.6397 169.4046
" />
<path d="M172.6397 169.4046
L172.9254 169.2617
" />
<path d="M172.9254 169.2617
L173.3540 169.2617
" />
<path d="M173.3540 169.2617
L173.6397 169.4046
" />
<path d="M173.6397 169.4046
L173.7825 169.6903
" />
<path d="M173.7825 169.6903
L173.7825 171.2617
" />
<path d="M173.7825 169.6903
L173.9254 169.4046
" />
<path d="M173.9254 169.4046
L174.2111 169.2617
" />
<path d="M174.2111 169.2617
L174.6397 169.2617
" />
<path d="M174.6397 169.2617
L174.9254 169.4046
" />
<path d="M174.9254 169.4046
L175.0682 169.6903
" />
<path d="M175.0682 169.6903
L175.0682 171.2617
" />
<path d="M176.4968 171.2617
L176.4968 169.2617
" />
<path d="M176.4968 169.5474
L176.6397 169.4046
" />
<path d="M176.6397 169.4046
L176.9254 169.2617
" />
<path d="M176.9254 169.2617
L177.3540 169.2617
" />
<path d="M177.3540 169.2617
L177.6397 169.4046
" />
<path d="M177.6397 169.4046
L177.7825 169.6903
" />
<path d="M177.7825 169.6903
L177.7825 171.2617
" />
<path d="M177.7825 169.6903
L177.9254 169.4046
" />
<path d="M177.9254 169.4046
L178.2111 169.2617
" />
<path d="M178.2111 169.2617
L178.6397 169.2617
" />
<path d="M178.6397 169.2617
L178.9254 169.4046
" />
<path d="M178.9254 169.4046
L179.0682 169.6903
" />
<path d="M179.0682 169.6903
L179.0682 171.2617
" />
</g><path d="M263.9254 150.6451
L263.9254 174.6779
" />
<path d="M63.9254 150.6451
L63.9254 174.6779
" />
<path d="M263.9254 173.5051
L63.9254 173.5051
" />
<path d="M263.9254 173.5051
L261.6724 174.6779
" />
<path d="M263.9254 173.5051
L261.6724 172.3322
" />
<path d="M63.9254 173.5051
L66.1784 172.3322
" />
<path d="M63.9254 173.5051
L66.1784 174.6779
" />
<g transform="rotate(-90.000000 50.1654 115.6451)">
<text x="50.1654" y="117.1451"
textLength="30.0571" font-size="4.0000" lengthAdjust="spacingAndGlyphs"
text-anchor="middle" opacity="0" stroke-opacity="0">35.0000 mm</text>
</g>
<g class="stroked-text"><desc>35.0000 mm</desc>
<path d="M48.5220 129.6451
L48.5220 127.7879
" />
<path d="M48.5220 127.7879
L49.6649 128.7879
" />
<path d="M49.6649 128.7879
L49.6649 128.3593
" />
<path d="M49.6649 128.3593
L49.8078 128.0736
" />
<path d="M49.8078 128.0736
L49.9506 127.9308
" />
<path d="M49.9506 127.9308
L50.2363 127.7879
" />
<path d="M50.2363 127.7879
L50.9506 127.7879
" />
<path d="M50.9506 127.7879
L51.2363 127.9308
" />
<path d="M51.2363 127.9308
L51.3792 128.0736
" />
<path d="M51.3792 128.0736
L51.5220 128.3593
" />
<path d="M51.5220 128.3593
L51.5220 129.2165
" />
<path d="M51.5220 129.2165
L51.3792 129.5022
" />
<path d="M51.3792 129.5022
L51.2363 129.6451
" />
<path d="M48.5220 125.0736
L48.5220 126.5022
" />
<path d="M48.5220 126.5022
L49.9506 126.6451
" />
<path d="M49.9506 126.6451
L49.8078 126.5022
" />
<path d="M49.8078 126.5022
L49.6649 126.2165
" />
<path d="M49.6649 126.2165
L49.6649 125.5022
" />
<path d="M49.6649 125.5022
L49.8078 125.2165
" />
<path d="M49.8078 125.2165
L49.9506 125.0736
" />
<path d="M49.9506 125.0736
L50.2363 124.9308
" />
<path d="M50.2363 124.9308
L50.9506 124.9308
" />
<path d="M50.9506 124.9308
L51.2363 125.0736
" />
<path d="M51.2363 125.0736
L51.3792 125.2165
" />
<path d="M51.3792 125.2165
L51.5220 125.5022
" />
<path d="M51.5220 125.5022
L51.5220 126.2165
" />
<path d="M51.5220 126.2165
L51.3792 126.5022
" />
<path d="M51.3792 126.5022
L51.2363 126.6451
" />
<path d="M51.2363 123.6451
L51.3792 123.5022
" />
<path d="M51.3792 123.5022
L51.5220 123.6451
" />
<path d="M51.5220 123.6451
L51.3792 123.7879
" />
<path d="M51.3792 123.7879
L51.2363 123.6451
" />
<path d="M51.2363 123.6451
L51.5220 123.6451
" />
<path d="M48.5220 121.6451
L48.5220 121.3593
" />
<path d="M48.5220 121.3593
L48.6649 121.0736
" />
<path d="M48.6649 121.0736
L48.8078 120.9308
" />
<path d="M48.8078 120.9308
L49.0935 120.7879
" />
<path d="M49.0935 120.7879
L49.6649 120.6451
" />
<path d="M49.6649 120.6451
L50.3792 120.6451
" />
<path d="M50.3792 120.6451
L50.9506 120.7879
" />
<path d="M50.9506 120.7879
L51.2363 120.9308
" />
<path d="M51.2363 120.9308
L51.3792 121.0736
" />
<path d="M51.3792 121.0736
L51.5220 121.3593
" />
<path d="M51.5220 121.3593
L51.5220 121.6451
" />
<path d="M51.5220 121.6451
L51.3792 121.9308
" />
<path d="M51.3792 121.9308
L51.2363 122.0736
" />
<path d="M51.2363 122.0736
L50.9506 122.2165
" />
<path d="M50.9506 122.2165
L50.3792 122.3593
" />
<path d="M50.3792 122.3593
L49.6649 122.3593
" />
<path d="M49.6649 122.3593
L49.0935 122.2165
" />
<path d="M49.0935 122.2165
L48.8078 122.0736
" />
<path d="M48.8078 122.0736
L48.6649 121.9308
" />
<path d="M48.6649 121.9308
L48.5220 121.6451
" />
<path d="M48.5220 118.7879
L48.5220 118.5022
" />
<path d="M48.5220 118.5022
L48.6649 118.2165
" />
<path d="M48.6649 118.2165
L48.8078 118.0736
" />
<path d="M48.8078 118.0736
L49.0935 117.9308
" />
<path d="M49.0935 117.9308
L49.6649 117.7879
" />
<path d="M49.6649 117.7879
L50.3792 117.7879
" />
<path d="M50.3792 117.7879
L50.9506 117.9308
" />
<path d="M50.9506 117.9308
L51.2363 118.0736
" />
<path d="M51.2363 118.0736
L51.3792 118.2165
" />
<path d="M51.3792 118.2165
L51.5220 118.5022
" />
<path d="M51.5220 118.5022
L51.5220 118.7879
" />
<path d="M51.5220 118.7879
L51.3792 119.0736
" />
<path d="M51.3792 119.0736
L51.2363 119.2165
" />
<path d="M51.2363 119.2165
L50.9506 119.3593
" />
<path d="M50.9506 119.3593
L50.3792 119.5022
" />
<path d="M50.3792 119.5022
L49.6649 119.5022
" />
<path d="M49.6649 119.5022
L49.0935 119.3593
" />
<path d="M49.0935 119.3593
L48.8078 119.2165
" />
<path d="M48.8078 119.2165
L48.6649 119.0736
" />
<path d="M48.6649 119.0736
L48.5220 118.7879
" />
<path d="M48.5220 115.9308
L48.5220 115.6451
" />
<path d="M48.5220 115.6451
L48.6649 115.3593
" />
<path d="M48.6649 115.3593
L48.8078 115.2165
" />
<path d="M48.8078 115.2165
L49.0935 115.0736
" />
<path d="M49.0935 115.0736
L49.6649 114.9308
" />
<path d="M49.6649 114.9308
L50.3792 114.9308
" />
<path d="M50.3792 114.9308
L50.9506 115.0736
" />
<path d="M50.9506 115.0736
L51.2363 115.2165
" />
<path d="M51.2363 115.2165
L51.3792 115.3593
" />
<path d="M51.3792 115.3593
L51.5220 115.6451
" />
<path d="M51.5220 115.6451
L51.5220 115.9308
" />
<path d="M51.5220 115.9308
L51.3792 116.2165
" />
<path d="M51.3792 116.2165
L51.2363 116.3593
" />
<path d="M51.2363 116.3593
L50.9506 116.5022
" />
<path d="M50.9506 116.5022
L50.3792 116.6451
" />
<path d="M50.3792 116.6451
L49.6649 116.6451
" />
<path d="M49.6649 116.6451
L49.0935 116.5022
" />
<path d="M49.0935 116.5022
L48.8078 116.3593
" />
<path d="M48.8078 116.3593
L48.6649 116.2165
" />
<path d="M48.6649 116.2165
L48.5220 115.9308
" />
<path d="M48.5220 113.0736
L48.5220 112.7879
" />
<path d="M48.5220 112.7879
L48.6649 112.5022
" />
<path d="M48.6649 112.5022
L48.8078 112.3593
" />
<path d="M48.8078 112.3593
L49.0935 112.2165
" />
<path d="M49.0935 112.2165
L49.6649 112.0736
" />
<path d="M49.6649 112.0736
L50.3792 112.0736
" />
<path d="M50.3792 112.0736
L50.9506 112.2165
" />
<path d="M50.9506 112.2165
L51.2363 112.3593
" />
<path d="M51.2363 112.3593
L51.3792 112.5022
" />
<path d="M51.3792 112.5022
L51.5220 112.7879
" />
<path d="M51.5220 112.7879
L51.5220 113.0736
" />
<path d="M51.5220 113.0736
L51.3792 113.3593
" />
<path d="M51.3792 113.3593
L51.2363 113.5022
" />
<path d="M51.2363 113.5022
L50.9506 113.6451
" />
<path d="M50.9506 113.6451
L50.3792 113.7879
" />
<path d="M50.3792 113.7879
L49.6649 113.7879
" />
<path d="M49.6649 113.7879
L49.0935 113.6451
" />
<path d="M49.0935 113.6451
L48.8078 113.5022
" />
<path d="M48.8078 113.5022
L48.6649 113.3593
" />
<path d="M48.6649 113.3593
L48.5220 113.0736
" />
<path d="M51.5220 108.5022
L49.5220 108.5022
" />
<path d="M49.8078 108.5022
L49.6649 108.3593
" />
<path d="M49.6649 108.3593
L49.5220 108.0736
" />
<path d="M49.5220 108.0736
L49.5220 107.6451
" />
<path d="M49.5220 107.6451
L49.6649 107.3593
" />
<path d="M49.6649 107.3593
L49.9506 107.2165
" />
<path d="M49.9506 107.2165
L51.5220 107.2165
" />
<path d="M49.9506 107.2165
L49.6649 107.0736
" />
<path d="M49.6649 107.0736
L49.5220 106.7879
" />
<path d="M49.5220 106.7879
L49.5220 106.3593
" />
<path d="M49.5220 106.3593
L49.6649 106.0736
" />
<path d="M49.6649 106.0736
L49.9506 105.9308
" />
<path d="M49.9506 105.9308
L51.5220 105.9308
" />
<path d="M51.5220 104.5022
L49.5220 104.5022
" />
<path d="M49.8078 104.5022
L49.6649 104.3593
" />
<path d="M49.6649 104.3593
L49.5220 104.0736
" />
<path d="M49.5220 104.0736
L49.5220 103.6451
" />
<path d="M49.5220 103.6451
L49.6649 103.3593
" />
<path d="M49.6649 103.3593
L49.9506 103.2165
" />
<path d="M49.9506 103.2165
L51.5220 103.2165
" />
<path d="M49.9506 103.2165
L49.6649 103.0736
" />
<path d="M49.6649 103.0736
L49.5220 102.7879
" />
<path d="M49.5220 102.7879
L49.5220 102.3593
" />
<path d="M49.5220 102.3593
L49.6649 102.0736
" />
<path d="M49.6649 102.0736
L49.9506 101.9308
" />
<path d="M49.9506 101.9308
L51.5220 101.9308
" />
</g><path d="M63.9254 80.6451
L52.5925 80.6451
" />
<path d="M63.9254 150.6451
L52.5925 150.6451
" />
<path d="M53.7654 80.6451
L53.7654 150.6451
" />
<path d="M53.7654 80.6451
L54.9382 82.8981
" />
<path d="M53.7654 80.6451
L52.5925 82.8981
" />
<path d="M53.7654 150.6451
L52.5925 148.3920
" />
<path d="M53.7654 150.6451
L54.9382 148.3920
" />
</g> 
</svg>
