<?xml version="1.0" standalone="no"?>
 <!DOCTYPE svg PUBLIC "-//W3C//DTD SVG 1.1//EN" 
 "http://www.w3.org/Graphics/SVG/1.1/DTD/svg11.dtd"> 
<svg
  xmlns:svg="http://www.w3.org/2000/svg"
  xmlns="http://www.w3.org/2000/svg"
  xmlns:xlink="http://www.w3.org/1999/xlink"
  version="1.1"
  width="297.0022mm" height="210.0072mm" viewBox="0.0000 0.0000 297.0022 210.0072">
<title>SVG Image created as rcbus-ymf262-B_Silkscreen.svg date 2025/08/20 22:39:58 </title>
  <desc>Image generated by PCBNEW </desc>
<g style="fill:#000000; fill-opacity:1.0000;stroke:#000000; stroke-opacity:1.0000;
stroke-linecap:round; stroke-linejoin:round;"
 transform="translate(0 0) scale(1 1)">
<path style="fill:#000000; fill-opacity:1.0000; stroke:none;fill-rule:evenodd;"
d="M 150.6668,159.4547
150.7559,159.4848
150.8347,159.5345
150.9050,159.6056
150.9594,159.6889
150.9996,159.7862
151.0251,159.9002
151.0341,160.0339
151.0251,160.1671
150.9997,160.2807
150.9595,160.3779
150.9050,160.4612
150.8347,160.5323
150.7559,160.5819
150.6668,160.6121
150.5648,160.6225
150.4813,160.6166
150.4092,160.5998
150.3466,160.5729
150.2903,160.5350
150.2405,160.4855
150.1969,160.4232
150.1969,160.5136
150.2037,160.6111
150.2224,160.6895
150.2511,160.7523
150.2892,160.8024
150.3379,160.8422
150.3986,160.8719
150.4738,160.8911
150.5668,160.8980
150.6500,160.8926
150.7317,160.8765
150.8120,160.8497
150.8957,160.8101
150.8957,160.9918
150.8115,161.0203
150.7246,161.0404
150.6349,161.0522
150.5371,161.0563
150.4026,161.0460
150.2945,161.0175
150.2078,160.9732
150.1385,160.9139
150.0852,160.8398
150.0446,160.7460
150.0180,160.6277
150.0084,160.4796
150.0084,160.0339
150.1969,160.0339
150.2031,160.1375
150.2202,160.2231
150.2466,160.2935
150.2815,160.3513
150.3279,160.4006
150.3818,160.4354
150.4446,160.4567
150.5187,160.4642
150.5922,160.4568
150.6547,160.4355
150.7084,160.4007
150.7548,160.3513
150.7897,160.2935
150.8161,160.2231
150.8332,160.1375
150.8394,160.0339
150.8332,159.9297
150.8161,159.8438
150.7897,159.7733
150.7548,159.7156
150.7084,159.6661
150.6547,159.6313
150.5922,159.6100
150.5187,159.6025
150.4446,159.6100
150.3818,159.6314
150.3279,159.6662
150.2815,159.7156
150.2466,159.7733
150.2202,159.8438
150.2031,159.9297
150.1969,160.0339
150.0084,160.0339
150.0084,159.4736
150.1969,159.4736
150.1969,159.6436
150.2405,159.5812
150.2903,159.5318
150.3466,159.4938
150.4092,159.4670
150.4813,159.4502
150.5648,159.4443
Z" /> 
<path style="fill:#000000; fill-opacity:1.0000; stroke:none;fill-rule:evenodd;"
d="M 149.6200,159.4736
149.4314,159.4736
149.4314,160.6225
149.6200,160.6225
Z" /> 
<path style="fill:#000000; fill-opacity:1.0000; stroke:none;fill-rule:evenodd;"
d="M 149.6200,159.0281
149.4314,159.0281
149.4314,159.2684
149.6200,159.2684
Z" /> 
<path style="fill:#000000; fill-opacity:1.0000; stroke:none;fill-rule:evenodd;"
d="M 148.8503,159.1453
148.8503,159.4736
148.4619,159.4736
148.4619,159.6201
148.8503,159.6201
148.8503,160.2437
148.8444,160.3381
148.8304,160.3940
148.8119,160.4242
148.7829,160.4441
148.7338,160.4584
148.6556,160.4642
148.4619,160.4642
148.4619,160.6225
148.6556,160.6225
148.7687,160.6159
148.8526,160.5985
148.9136,160.5730
148.9568,160.5409
148.9895,160.4982
149.0154,160.4380
149.0331,160.3552
149.0398,160.2437
149.0398,159.6201
149.1782,159.6201
149.1782,159.4736
149.0398,159.4736
149.0398,159.1453
Z" /> 
<path style="fill:#000000; fill-opacity:1.0000; stroke:none;fill-rule:evenodd;"
d="M 147.2606,159.9271
147.2606,160.6225
147.4492,160.6225
147.4492,159.9334
147.4575,159.8261
147.4797,159.7470
147.5128,159.6894
147.5605,159.6455
147.6225,159.6182
147.7033,159.6084
147.7783,159.6150
147.8422,159.6337
147.8969,159.6639
147.9441,159.7059
147.9813,159.7567
148.0087,159.8167
148.0260,159.8875
148.0322,159.9714
148.0322,160.6225
148.2218,160.6225
148.2218,159.0281
148.0322,159.0281
148.0322,159.6494
147.9830,159.5848
147.9300,159.5340
147.8729,159.4953
147.8099,159.4674
147.7398,159.4502
147.6612,159.4443
147.5636,159.4528
147.4833,159.4767
147.4169,159.5146
147.3621,159.5668
147.3205,159.6299
147.2888,159.7086
147.2681,159.8064
Z" /> 
<path style="fill:#000000; fill-opacity:1.0000; stroke:none;fill-rule:evenodd;"
d="M 146.9034,160.1695
146.9034,159.4736
146.7149,159.4736
146.7149,160.1623
146.7066,160.2693
146.6845,160.3485
146.6515,160.4063
146.6037,160.4505
146.5416,160.4778
146.4608,160.4877
146.3857,160.4811
146.3218,160.4624
146.2669,160.4324
146.2195,160.3905
146.1820,160.3397
146.1544,160.2798
146.1370,160.2091
146.1309,160.1253
146.1309,159.4736
145.9423,159.4736
145.9423,160.6225
146.1309,160.6225
146.1309,160.4466
146.1808,160.5120
146.2338,160.5630
146.2902,160.6013
146.3525,160.6289
146.4222,160.6459
146.5008,160.6518
146.5984,160.6433
146.6789,160.6193
146.7457,160.5814
146.8010,160.5290
146.8431,160.4656
146.8751,160.3869
146.8959,160.2895
Z" /> 
<path style="fill:#000000; fill-opacity:1.0000; stroke:none;fill-rule:evenodd;"
d="M 145.5605,160.6225
145.3709,160.6225
145.3709,160.4525
145.3267,160.5155
145.2768,160.5651
145.2208,160.6028
145.1586,160.6293
145.0869,160.6460
145.0041,160.6518
144.9035,160.6412
144.8150,160.6104
144.7358,160.5592
144.6645,160.4855
144.6093,160.3997
144.5686,160.2999
144.5429,160.1837
144.5338,160.0480
144.7295,160.0480
144.7357,160.1536
144.7529,160.2415
144.7797,160.3145
144.8151,160.3750
144.8623,160.4273
144.9162,160.4637
144.9781,160.4858
145.0502,160.4935
145.1223,160.4858
145.1842,160.4637
145.2381,160.4273
145.2854,160.3750
145.3208,160.3145
145.3475,160.2415
145.3647,160.1536
145.3709,160.0480
145.3647,159.9425
145.3475,159.8546
145.3208,159.7816
145.2854,159.7212
145.2381,159.6688
145.1842,159.6324
145.1223,159.6102
145.0502,159.6025
144.9781,159.6102
144.9163,159.6324
144.8623,159.6688
144.8151,159.7212
144.7797,159.7816
144.7529,159.8546
144.7357,159.9425
144.7295,160.0480
144.5338,160.0480
144.5429,159.9123
144.5686,159.7962
144.6093,159.6964
144.6645,159.6106
144.7358,159.5369
144.8150,159.4857
144.9035,159.4549
145.0041,159.4443
145.0869,159.4501
145.1586,159.4668
145.2208,159.4934
145.2768,159.5310
145.3267,159.5805
145.3709,159.6436
145.3709,159.0281
145.5605,159.0281
Z" /> 
<path style="fill:#000000; fill-opacity:1.0000; stroke:none;fill-rule:evenodd;"
d="M 144.1946,160.3646
143.9784,160.3646
143.9784,160.6225
144.1946,160.6225
Z" /> 
<path style="fill:#000000; fill-opacity:1.0000; stroke:none;fill-rule:evenodd;"
d="M 142.7286,159.5146
142.7286,159.6905
142.8096,159.6516
142.8890,159.6245
142.9700,159.6080
143.0514,159.6025
143.1416,159.6105
143.2174,159.6331
143.2817,159.6693
143.3362,159.7196
143.3786,159.7804
143.4102,159.8536
143.4304,159.9418
143.4376,160.0480
143.4304,160.1543
143.4102,160.2425
143.3786,160.3157
143.3362,160.3765
143.2817,160.4268
143.2174,160.4630
143.1416,160.4856
143.0514,160.4935
142.9700,160.4881
142.8890,160.4716
142.8096,160.4444
142.7286,160.4056
142.7286,160.5815
142.8089,160.6122
142.8920,160.6342
142.9781,160.6473
143.0719,160.6518
143.1755,160.6447
143.2668,160.6243
143.3477,160.5915
143.4196,160.5465
143.4838,160.4886
143.5487,160.4029
143.5961,160.3029
143.6259,160.1858
143.6365,160.0480
143.6257,159.9081
143.5956,159.7900
143.5477,159.6902
143.4823,159.6055
143.4178,159.5487
143.3447,159.5043
143.2619,159.4718
143.1675,159.4514
143.0596,159.4443
142.9733,159.4487
142.8895,159.4619
142.8078,159.4838
Z" /> 
<path style="fill:#000000; fill-opacity:1.0000; stroke:none;fill-rule:evenodd;"
d="M 142.0777,159.4551
142.1804,159.4859
142.2681,159.5354
142.3433,159.6045
142.4020,159.6877
142.4455,159.7872
142.4732,159.9060
142.4831,160.0480
142.4733,160.1895
142.4456,160.3081
142.4020,160.4076
142.3433,160.4912
142.2681,160.5604
142.1804,160.6101
142.0777,160.6409
141.9564,160.6518
141.8357,160.6410
141.7333,160.6101
141.6456,160.5605
141.5702,160.4912
141.5112,160.4076
141.4675,160.3080
141.4397,160.1895
141.4298,160.0480
141.6296,160.0480
141.6359,160.1522
141.6536,160.2396
141.6811,160.3127
141.7177,160.3739
141.7663,160.4268
141.8212,160.4635
141.8839,160.4858
141.9564,160.4935
142.0301,160.4858
142.0933,160.4635
142.1484,160.4269
142.1967,160.3745
142.2331,160.3135
142.2604,160.2404
142.2780,160.1528
142.2843,160.0480
142.2780,159.9433
142.2603,159.8557
142.2328,159.7826
142.1962,159.7217
142.1477,159.6691
142.0926,159.6325
142.0295,159.6103
141.9564,159.6025
141.8839,159.6103
141.8213,159.6327
141.7663,159.6696
141.7177,159.7227
141.6810,159.7842
141.6535,159.8573
141.6359,159.9444
141.6296,160.0480
141.4298,160.0480
141.4397,159.9060
141.4675,159.7872
141.5112,159.6878
141.5702,159.6045
141.6455,159.5354
141.7332,159.4858
141.8357,159.4551
141.9564,159.4443
Z" /> 
<path style="fill:#000000; fill-opacity:1.0000; stroke:none;fill-rule:evenodd;"
d="M 140.2239,159.6916
140.1715,159.6116
140.1151,159.5502
140.0548,159.5046
139.9869,159.4717
139.9103,159.4513
139.8233,159.4443
139.7358,159.4527
139.6622,159.4767
139.5998,159.5154
139.5466,159.5698
139.5065,159.6342
139.4761,159.7132
139.4564,159.8096
139.4493,159.9271
139.4493,160.6225
139.6388,160.6225
139.6388,159.9334
139.6466,159.8243
139.6671,159.7449
139.6972,159.6884
139.7416,159.6449
139.7995,159.6181
139.8755,159.6084
139.9472,159.6149
140.0085,159.6336
140.0613,159.6637
140.1071,159.7059
140.1528,159.7754
140.1817,159.8623
140.1921,159.9714
140.1921,160.6225
140.3817,160.6225
140.3817,159.9334
140.3895,159.8236
140.4100,159.7442
140.4401,159.6879
140.4845,159.6448
140.5431,159.6181
140.6205,159.6084
140.6911,159.6149
140.7517,159.6336
140.8042,159.6638
140.8500,159.7063
140.8957,159.7762
140.9246,159.8630
140.9350,159.9714
140.9350,160.6225
141.1246,160.6225
141.1246,159.4736
140.9350,159.4736
140.9350,159.6494
140.8875,159.5836
140.8360,159.5325
140.7803,159.4943
140.7183,159.4671
140.6475,159.4502
140.5661,159.4443
140.4849,159.4517
140.4147,159.4730
140.3536,159.5077
140.3014,159.5549
140.2582,159.6154
Z" /> 
<path style="fill:#000000; fill-opacity:1.0000; stroke:none;fill-rule:evenodd;"
d="M 138.7380,159.0926
138.5639,159.0926
139.0967,160.8159
139.2709,160.8159
Z" /> 
<path style="fill:#000000; fill-opacity:1.0000; stroke:none;fill-rule:evenodd;"
d="M 137.9892,159.4515
138.0801,159.4722
138.1607,159.5054
138.2325,159.5512
138.2966,159.6101
138.3612,159.6969
138.4084,159.7985
138.4382,159.9177
138.4487,160.0583
138.4417,160.1681
138.4214,160.2646
138.3890,160.3496
138.3448,160.4249
138.2884,160.4916
138.2216,160.5479
138.1462,160.5921
138.0608,160.6245
137.9639,160.6447
137.8534,160.6518
137.7445,160.6462
137.6372,160.6293
137.5321,160.6018
137.4292,160.5639
137.4292,160.3880
137.5309,160.4345
137.6316,160.4672
137.7348,160.4869
137.8421,160.4935
137.9354,160.4863
138.0136,160.4660
138.0793,160.4339
138.1347,160.3901
138.1794,160.3356
138.2142,160.2689
138.2389,160.1877
138.2520,160.0891
137.3851,160.0891
137.3851,159.9975
137.3891,159.9425
137.5737,159.9425
138.2459,159.9435
138.2261,159.8394
138.1895,159.7570
138.1368,159.6919
138.0687,159.6434
137.9859,159.6133
137.8842,159.6025
137.7953,159.6133
137.7219,159.6441
137.6602,159.6950
137.6143,159.7612
137.5850,159.8424
137.5737,159.9425
137.3891,159.9425
137.3945,159.8700
137.4209,159.7622
137.4628,159.6708
137.5198,159.5931
137.5919,159.5289
137.6754,159.4829
137.7724,159.4543
137.8862,159.4443
Z" /> 
<path style="fill:#000000; fill-opacity:1.0000; stroke:none;fill-rule:evenodd;"
d="M 137.0757,159.0281
136.8871,159.0281
136.8871,160.6225
137.0757,160.6225
Z" /> 
<path style="fill:#000000; fill-opacity:1.0000; stroke:none;fill-rule:evenodd;"
d="M 136.1149,159.4515
136.2058,159.4722
136.2863,159.5054
136.3582,159.5512
136.4223,159.6101
136.4868,159.6969
136.5341,159.7985
136.5639,159.9177
136.5744,160.0583
136.5673,160.1681
136.5471,160.2646
136.5147,160.3496
136.4705,160.4249
136.4140,160.4916
136.3473,160.5479
136.2719,160.5921
136.1865,160.6245
136.0896,160.6447
135.9791,160.6518
135.8701,160.6462
135.7629,160.6293
135.6577,160.6018
135.5548,160.5639
135.5548,160.3880
135.6565,160.4345
135.7572,160.4672
135.8605,160.4869
135.9678,160.4935
136.0611,160.4863
136.1393,160.4660
136.2050,160.4339
136.2604,160.3901
136.3051,160.3356
136.3399,160.2689
136.3646,160.1877
136.3777,160.0891
135.5108,160.0891
135.5108,159.9975
135.5148,159.9425
135.6994,159.9425
136.3715,159.9435
136.3518,159.8394
136.3151,159.7570
136.2625,159.6919
136.1944,159.6434
136.1116,159.6133
136.0099,159.6025
135.9210,159.6133
135.8475,159.6441
135.7859,159.6950
135.7399,159.7612
135.7107,159.8424
135.6994,159.9425
135.5148,159.9425
135.5202,159.8700
135.5466,159.7622
135.5885,159.6708
135.6455,159.5931
135.7176,159.5289
135.8010,159.4829
135.8981,159.4543
136.0119,159.4443
Z" /> 
<path style="fill:#000000; fill-opacity:1.0000; stroke:none;fill-rule:evenodd;"
d="M 134.3755,159.5146
134.3755,159.6905
134.4565,159.6516
134.5359,159.6245
134.6169,159.6080
134.6983,159.6025
134.7885,159.6105
134.8643,159.6331
134.9286,159.6693
134.9831,159.7196
135.0255,159.7804
135.0571,159.8536
135.0773,159.9418
135.0845,160.0480
135.0773,160.1543
135.0571,160.2425
135.0255,160.3157
134.9831,160.3765
134.9286,160.4268
134.8643,160.4630
134.7885,160.4856
134.6983,160.4935
134.6169,160.4881
134.5359,160.4716
134.4565,160.4444
134.3755,160.4056
134.3755,160.5815
134.4558,160.6122
134.5389,160.6342
134.6250,160.6473
134.7188,160.6518
134.8224,160.6447
134.9137,160.6243
134.9946,160.5915
135.0665,160.5465
135.1307,160.4886
135.1956,160.4029
135.2430,160.3029
135.2728,160.1858
135.2834,160.0480
135.2726,159.9081
135.2425,159.7900
135.1946,159.6902
135.1292,159.6055
135.0647,159.5487
134.9916,159.5043
134.9087,159.4718
134.8144,159.4514
134.7065,159.4443
134.6202,159.4487
134.5364,159.4619
134.4547,159.4838
Z" /> 
<path style="fill:#000000; fill-opacity:1.0000; stroke:none;fill-rule:evenodd;"
d="M 133.8616,159.1453
133.8616,159.4736
133.4732,159.4736
133.4732,159.6201
133.8616,159.6201
133.8616,160.2437
133.8557,160.3381
133.8417,160.3940
133.8232,160.4242
133.7942,160.4441
133.7451,160.4584
133.6669,160.4642
133.4732,160.4642
133.4732,160.6225
133.6669,160.6225
133.7800,160.6159
133.8639,160.5985
133.9249,160.5730
133.9681,160.5409
134.0008,160.4982
134.0267,160.4380
134.0444,160.3552
134.0511,160.2437
134.0511,159.6201
134.1895,159.6201
134.1895,159.4736
134.0511,159.4736
134.0511,159.1453
Z" /> 
<path style="fill:#000000; fill-opacity:1.0000; stroke:none;fill-rule:evenodd;"
d="M 132.5609,159.6494
132.6301,159.6229
132.7126,159.6143
132.7911,159.6214
132.8566,159.6414
132.9117,159.6734
132.9579,159.7179
132.9933,159.7714
133.0200,159.8370
133.0373,159.9174
133.0435,160.0156
133.0435,160.6225
133.2331,160.6225
133.2331,159.4736
133.0435,159.4736
133.0435,159.6494
132.9989,159.5848
132.9475,159.5338
132.8888,159.4948
132.8234,159.4676
132.7469,159.4504
132.6573,159.4443
132.6142,159.4472
132.5619,159.4560
Z" /> 
<path style="fill:#000000; fill-opacity:1.0000; stroke:none;fill-rule:evenodd;"
d="M 132.3628,159.4736
132.1742,159.4736
132.1742,160.6225
132.3628,160.6225
Z" /> 
<path style="fill:#000000; fill-opacity:1.0000; stroke:none;fill-rule:evenodd;"
d="M 132.3628,159.0281
132.1742,159.0281
132.1742,159.2684
132.3628,159.2684
Z" /> 
<path style="fill:#000000; fill-opacity:1.0000; stroke:none;fill-rule:evenodd;"
d="M 130.8522,159.4736
130.8522,160.6225
131.0418,160.6225
131.0418,159.6201
131.5592,159.6201
131.5592,160.6225
131.7488,160.6225
131.7488,159.6201
131.9291,159.6201
131.9291,159.4736
131.7488,159.4736
131.7488,159.3939
131.7422,159.2993
131.7242,159.2241
131.6966,159.1644
131.6601,159.1175
131.6134,159.0805
131.5545,159.0527
131.4806,159.0347
131.3881,159.0281
131.1985,159.0281
131.1985,159.1864
131.3788,159.1864
131.4455,159.1919
131.4905,159.2063
131.5198,159.2270
131.5398,159.2570
131.5537,159.3035
131.5592,159.3731
131.5592,159.4736
Z" /> 
<path style="fill:#000000; fill-opacity:1.0000; stroke:none;fill-rule:evenodd;"
d="M 131.0418,159.0281
130.8522,159.0281
130.8522,159.2684
131.0418,159.2684
Z" /> 
<path style="fill:#000000; fill-opacity:1.0000; stroke:none;fill-rule:evenodd;"
d="M 130.0802,159.4515
130.1710,159.4722
130.2516,159.5054
130.3234,159.5512
130.3875,159.6101
130.4521,159.6969
130.4994,159.7985
130.5291,159.9177
130.5397,160.0583
130.5326,160.1681
130.5123,160.2646
130.4799,160.3496
130.4357,160.4249
130.3793,160.4916
130.3126,160.5479
130.2371,160.5921
130.1518,160.6245
130.0548,160.6447
129.9443,160.6518
129.8354,160.6462
129.7282,160.6293
129.6230,160.6018
129.5201,160.5639
129.5201,160.3880
129.6218,160.4345
129.7225,160.4672
129.8257,160.4869
129.9331,160.4935
130.0264,160.4863
130.1045,160.4660
130.1703,160.4339
130.2256,160.3901
130.2703,160.3356
130.3052,160.2689
130.3298,160.1877
130.3429,160.0891
129.4760,160.0891
129.4760,159.9975
129.4801,159.9425
129.6646,159.9425
130.3368,159.9435
130.3171,159.8394
130.2804,159.7570
130.2277,159.6919
130.1596,159.6434
130.0768,159.6133
129.9751,159.6025
129.8863,159.6133
129.8128,159.6441
129.7512,159.6950
129.7052,159.7612
129.6760,159.8424
129.6646,159.9425
129.4801,159.9425
129.4854,159.8700
129.5119,159.7622
129.5538,159.6708
129.6108,159.5931
129.6828,159.5289
129.7663,159.4829
129.8633,159.4543
129.9771,159.4443
Z" /> 
<path style="fill:#000000; fill-opacity:1.0000; stroke:none;fill-rule:evenodd;"
d="M 128.4115,159.6436
128.4557,159.5805
128.5056,159.5310
128.5616,159.4934
128.6238,159.4668
128.6958,159.4501
128.7793,159.4443
128.8794,159.4549
128.9676,159.4857
129.0466,159.5368
129.1180,159.6106
129.1731,159.6964
129.2138,159.7962
129.2395,159.9123
129.2486,160.0480
129.2395,160.1837
129.2138,160.2999
129.1731,160.3997
129.1180,160.4855
129.0466,160.5593
128.9676,160.6104
128.8794,160.6412
128.7793,160.6518
128.6958,160.6459
128.6238,160.6293
128.5616,160.6028
128.5056,160.5651
128.4557,160.5155
128.4115,160.4525
128.4115,160.6225
128.2229,160.6225
128.2229,160.0480
128.4115,160.0480
128.4177,160.1536
128.4350,160.2414
128.4619,160.3145
128.4976,160.3750
128.5450,160.4273
128.5991,160.4637
128.6611,160.4859
128.7332,160.4935
128.8053,160.4858
128.8671,160.4637
128.9211,160.4273
128.9683,160.3750
129.0037,160.3145
129.0305,160.2415
129.0477,160.1536
129.0539,160.0480
129.0477,159.9425
129.0305,159.8546
129.0037,159.7816
128.9683,159.7212
128.9211,159.6688
128.8671,159.6324
128.8053,159.6102
128.7332,159.6025
128.6611,159.6102
128.5991,159.6324
128.5451,159.6688
128.4976,159.7212
128.4619,159.7817
128.4350,159.8547
128.4177,159.9425
128.4115,160.0480
128.2229,160.0480
128.2229,159.0281
128.4115,159.0281
Z" /> 
<path style="fill:#000000; fill-opacity:1.0000; stroke:none;fill-rule:evenodd;"
d="M 127.4994,159.0926
127.3253,159.0926
127.8581,160.8159
128.0323,160.8159
Z" /> 
<path style="fill:#000000; fill-opacity:1.0000; stroke:none;fill-rule:evenodd;"
d="M 126.4631,159.6494
126.5323,159.6229
126.6148,159.6143
126.6934,159.6214
126.7589,159.6414
126.8139,159.6734
126.8602,159.7179
126.8955,159.7714
126.9222,159.8370
126.9395,159.9174
126.9457,160.0156
126.9457,160.6225
127.1353,160.6225
127.1353,159.4736
126.9457,159.4736
126.9457,159.6494
126.9011,159.5848
126.8497,159.5338
126.7910,159.4948
126.7256,159.4676
126.6491,159.4504
126.5595,159.4443
126.5164,159.4472
126.4641,159.4560
Z" /> 
<path style="fill:#000000; fill-opacity:1.0000; stroke:none;fill-rule:evenodd;"
d="M 125.4860,159.5146
125.4860,159.6905
125.5670,159.6516
125.6464,159.6245
125.7274,159.6080
125.8088,159.6025
125.8990,159.6105
125.9749,159.6331
126.0391,159.6693
126.0937,159.7196
126.1360,159.7804
126.1676,159.8536
126.1878,159.9418
126.1950,160.0480
126.1878,160.1543
126.1676,160.2425
126.1360,160.3157
126.0937,160.3765
126.0391,160.4268
125.9749,160.4630
125.8990,160.4856
125.8088,160.4935
125.7274,160.4881
125.6464,160.4716
125.5670,160.4444
125.4860,160.4056
125.4860,160.5815
125.5663,160.6122
125.6494,160.6342
125.7356,160.6473
125.8293,160.6518
125.9329,160.6447
126.0242,160.6243
126.1051,160.5915
126.1771,160.5465
126.2412,160.4886
126.3061,160.4029
126.3536,160.3029
126.3834,160.1858
126.3939,160.0480
126.3832,159.9081
126.3530,159.7900
126.3051,159.6902
126.2397,159.6055
126.1752,159.5487
126.1022,159.5043
126.0193,159.4718
125.9249,159.4514
125.8171,159.4443
125.7307,159.4487
125.6470,159.4619
125.5653,159.4838
Z" /> 
<path style="fill:#000000; fill-opacity:1.0000; stroke:none;fill-rule:evenodd;"
d="M 125.1657,160.6225
124.9762,160.6225
124.9762,160.4525
124.9319,160.5155
124.8820,160.5651
124.8260,160.6028
124.7638,160.6293
124.6922,160.6460
124.6093,160.6518
124.5087,160.6412
124.4202,160.6104
124.3411,160.5592
124.2697,160.4855
124.2145,160.3997
124.1738,160.2999
124.1481,160.1837
124.1390,160.0480
124.3347,160.0480
124.3409,160.1536
124.3582,160.2415
124.3849,160.3145
124.4203,160.3750
124.4676,160.4273
124.5215,160.4637
124.5834,160.4858
124.6554,160.4935
124.7275,160.4858
124.7894,160.4637
124.8433,160.4273
124.8906,160.3750
124.9260,160.3145
124.9527,160.2415
124.9700,160.1536
124.9762,160.0480
124.9700,159.9425
124.9527,159.8546
124.9260,159.7816
124.8906,159.7212
124.8433,159.6688
124.7894,159.6324
124.7275,159.6102
124.6554,159.6025
124.5834,159.6102
124.5215,159.6324
124.4676,159.6688
124.4203,159.7212
124.3849,159.7816
124.3582,159.8546
124.3409,159.9425
124.3347,160.0480
124.1390,160.0480
124.1481,159.9123
124.1738,159.7962
124.2145,159.6964
124.2697,159.6106
124.3411,159.5369
124.4202,159.4857
124.5087,159.4549
124.6093,159.4443
124.6922,159.4501
124.7638,159.4668
124.8260,159.4934
124.8820,159.5310
124.9319,159.5805
124.9762,159.6436
124.9762,159.0281
125.1657,159.0281
Z" /> 
<path style="fill:#000000; fill-opacity:1.0000; stroke:none;fill-rule:evenodd;"
d="M 123.8459,160.1695
123.8459,159.4736
123.6574,159.4736
123.6574,160.1623
123.6491,160.2693
123.6270,160.3485
123.5940,160.4063
123.5461,160.4505
123.4841,160.4778
123.4033,160.4877
123.3282,160.4811
123.2643,160.4624
123.2094,160.4324
123.1620,160.3905
123.1245,160.3397
123.0969,160.2798
123.0795,160.2091
123.0733,160.1253
123.0733,159.4736
122.8848,159.4736
122.8848,160.6225
123.0733,160.6225
123.0733,160.4466
123.1233,160.5120
123.1763,160.5630
123.2327,160.6013
123.2950,160.6289
123.3647,160.6459
123.4433,160.6518
123.5409,160.6433
123.6214,160.6193
123.6882,160.5814
123.7435,160.5290
123.7856,160.4656
123.8176,160.3869
123.8384,160.2895
Z" /> 
<path style="fill:#000000; fill-opacity:1.0000; stroke:none;fill-rule:evenodd;"
d="M 121.7642,159.5088
121.7642,159.6846
121.8459,159.6486
121.9303,159.6231
122.0174,159.6077
122.1085,159.6025
122.2018,159.6083
122.2701,159.6235
122.3191,159.6456
122.3581,159.6791
122.3812,159.7211
122.3893,159.7745
122.3835,159.8156
122.3670,159.8493
122.3391,159.8773
122.2750,159.9096
122.1372,159.9485
122.0726,159.9628
121.9405,159.9994
121.8486,160.0406
121.7873,160.0847
121.7414,160.1422
121.7130,160.2139
121.7028,160.3042
121.7110,160.3815
121.7346,160.4482
121.7735,160.5067
121.8294,160.5582
121.8941,160.5970
121.9719,160.6263
122.0653,160.6451
122.1772,160.6518
122.2701,160.6472
122.3693,160.6328
122.4700,160.6095
122.5799,160.5756
122.5799,160.3822
122.4746,160.4315
122.3740,160.4657
122.2723,160.4867
122.1731,160.4935
122.0850,160.4876
122.0182,160.4716
121.9681,160.4477
121.9279,160.4124
121.9045,160.3700
121.8964,160.3182
121.9026,160.2692
121.9199,160.2305
121.9482,160.1997
121.9863,160.1771
122.0570,160.1506
122.1751,160.1203
122.2407,160.1050
122.3553,160.0730
122.4372,160.0347
122.4939,159.9918
122.5361,159.9364
122.5623,159.8679
122.5717,159.7823
122.5640,159.7035
122.5422,159.6371
122.5068,159.5806
122.4569,159.5324
122.3982,159.4961
122.3261,159.4685
122.2381,159.4507
122.1311,159.4443
122.0283,159.4484
121.9343,159.4604
121.8446,159.4809
Z" /> 
<path style="fill:#000000; fill-opacity:1.0000; stroke:none;fill-rule:evenodd;"
d="M 121.4979,159.9601
120.9456,159.9601
120.9456,160.1301
121.4979,160.1301
Z" /> 
<path style="fill:#000000; fill-opacity:1.0000; stroke:none;fill-rule:evenodd;"
d="M 120.2055,160.7261
120.2659,160.8618
120.3175,160.9461
120.3613,160.9937
120.4151,161.0274
120.4817,161.0486
120.5642,161.0563
120.7149,161.0563
120.7149,160.8980
120.6041,160.8980
120.5325,160.8881
120.4832,160.8616
120.4438,160.8105
120.3880,160.6894
120.3542,160.6033
120.8184,159.4736
120.6185,159.4736
120.2599,160.3722
119.9013,159.4736
119.7014,159.4736
Z" /> 
<path style="fill:#000000; fill-opacity:1.0000; stroke:none;fill-rule:evenodd;"
d="M 118.5468,159.6916
118.4944,159.6116
118.4381,159.5502
118.3778,159.5046
118.3098,159.4717
118.2333,159.4513
118.1462,159.4443
118.0587,159.4527
117.9852,159.4767
117.9227,159.5154
117.8696,159.5698
117.8295,159.6342
117.7991,159.7132
117.7794,159.8096
117.7722,159.9271
117.7722,160.6225
117.9617,160.6225
117.9617,159.9334
117.9695,159.8243
117.9900,159.7449
118.0202,159.6884
118.0646,159.6449
118.1225,159.6181
118.1984,159.6084
118.2702,159.6149
118.3315,159.6336
118.3843,159.6637
118.4300,159.7059
118.4757,159.7754
118.5046,159.8623
118.5150,159.9714
118.5150,160.6225
118.7046,160.6225
118.7046,159.9334
118.7124,159.8236
118.7330,159.7442
118.7631,159.6879
118.8075,159.6448
118.8660,159.6181
118.9434,159.6084
119.0140,159.6149
119.0746,159.6336
119.1272,159.6638
119.1729,159.7063
119.2187,159.7762
119.2476,159.8630
119.2579,159.9714
119.2579,160.6225
119.4475,160.6225
119.4475,159.4736
119.2579,159.4736
119.2579,159.6494
119.2105,159.5836
119.1590,159.5325
119.1032,159.4943
119.0413,159.4671
118.9705,159.4502
118.8891,159.4443
118.8078,159.4517
118.7377,159.4730
118.6765,159.5077
118.6243,159.5549
118.5811,159.6154
Z" /> 
<path style="fill:#000000; fill-opacity:1.0000; stroke:none;fill-rule:evenodd;"
d="M 116.8150,159.0281
116.8150,159.1864
116.9954,159.1864
117.0620,159.1919
117.1070,159.2063
117.1363,159.2270
117.1563,159.2570
117.1702,159.3035
117.1757,159.3731
117.1757,159.4736
116.8653,159.4736
116.8653,159.6201
117.1757,159.6201
117.1757,160.6225
117.3653,160.6225
117.3653,159.6201
117.5456,159.6201
117.5456,159.4736
117.3653,159.4736
117.3653,159.3944
117.3586,159.2974
117.3404,159.2212
117.3127,159.1617
117.2762,159.1156
117.2295,159.0799
117.1691,159.0526
117.0917,159.0347
116.9934,159.0281
Z" /> 
<path style="fill:#000000; fill-opacity:1.0000; stroke:none;fill-rule:evenodd;"
d="M 116.4525,160.4466
115.7301,160.4466
115.7301,160.6225
116.7015,160.6225
116.7015,160.4466
116.3803,160.1197
116.1247,159.8551
116.0354,159.7455
115.9858,159.6664
115.9559,159.5883
115.9464,159.5144
115.9562,159.4370
115.9845,159.3718
116.0319,159.3159
116.0930,159.2741
116.1661,159.2483
116.2548,159.2391
116.3529,159.2472
116.4603,159.2725
116.5688,159.3132
116.6913,159.3739
116.6913,159.1629
116.5675,159.1187
116.4577,159.0884
116.3510,159.0692
116.2589,159.0633
116.1400,159.0715
116.0391,159.0949
115.9531,159.1320
115.8798,159.1821
115.8180,159.2464
115.7744,159.3195
115.7477,159.4030
115.7384,159.4998
115.7473,159.5919
115.7737,159.6787
115.8195,159.7645
115.9023,159.8780
116.0653,160.0496
Z" /> 
<path style="fill:#000000; fill-opacity:1.0000; stroke:none;fill-rule:evenodd;"
d="M 114.8535,159.0724
114.9548,159.0986
115.0456,159.1413
115.1275,159.2010
115.2016,159.2791
115.2609,159.3668
115.3083,159.4666
115.3436,159.5803
115.3658,159.7100
115.3737,159.8581
115.3668,160.0196
115.3478,160.1562
115.3184,160.2712
115.2799,160.3677
115.2333,160.4483
115.1719,160.5218
115.1020,160.5779
115.0226,160.6182
114.9320,160.6431
114.8275,160.6518
114.7134,160.6422
114.6154,160.6147
114.5305,160.5705
114.4566,160.5091
114.3969,160.4338
114.3536,160.3471
114.3267,160.2468
114.3172,160.1301
114.5252,160.1301
114.5353,160.2376
114.5630,160.3232
114.6068,160.3916
114.6507,160.4334
114.7012,160.4630
114.7595,160.4813
114.8275,160.4877
114.8956,160.4813
114.9539,160.4630
115.0044,160.4334
115.0484,160.3916
115.0921,160.3232
115.1198,160.2376
115.1298,160.1301
115.1198,160.0220
115.0920,159.9362
115.0484,159.8682
115.0044,159.8266
114.9539,159.7971
114.8956,159.7789
114.8275,159.7725
114.7595,159.7789
114.7012,159.7971
114.6507,159.8266
114.6068,159.8682
114.5631,159.9362
114.5353,160.0220
114.5252,160.1301
114.3172,160.1301
114.3265,160.0102
114.3526,159.9086
114.3941,159.8223
114.4510,159.7486
114.5220,159.6885
114.6048,159.6451
114.7015,159.6180
114.8152,159.6084
114.8871,159.6138
114.9538,159.6298
115.0161,159.6561
115.0731,159.6923
115.1235,159.7377
115.1677,159.7931
115.1522,159.6507
115.1252,159.5370
115.0888,159.4471
115.0442,159.3769
114.9853,159.3175
114.9152,159.2750
114.8316,159.2485
114.7311,159.2391
114.6533,159.2436
114.5739,159.2572
114.4953,159.2791
114.4166,159.3094
114.4166,159.1219
114.5023,159.0959
114.5821,159.0779
114.6615,159.0669
114.7394,159.0633
Z" /> 
<path style="fill:#000000; fill-opacity:1.0000; stroke:none;fill-rule:evenodd;"
d="M 113.7824,160.4466
113.0601,160.4466
113.0601,160.6225
114.0315,160.6225
114.0315,160.4466
113.7103,160.1197
113.4546,159.8551
113.3653,159.7455
113.3158,159.6664
113.2858,159.5883
113.2763,159.5144
113.2861,159.4370
113.3145,159.3718
113.3619,159.3159
113.4229,159.2741
113.4961,159.2483
113.5847,159.2391
113.6828,159.2472
113.7902,159.2725
113.8987,159.3132
114.0212,159.3739
114.0212,159.1629
113.8974,159.1187
113.7877,159.0884
113.6809,159.0692
113.5888,159.0633
113.4700,159.0715
113.3691,159.0949
113.2831,159.1320
113.2097,159.1821
113.1480,159.2464
113.1043,159.3195
113.0776,159.4030
113.0683,159.4998
113.0772,159.5919
113.1037,159.6787
113.1495,159.7645
113.2323,159.8780
113.3952,160.0496
Z" /> 
</g>
<g style="fill:#000000; fill-opacity:1.0000; stroke:none;">
<circle cx="156.5690" cy="130.0950" r="0.6000" /> 
</g>
<g style="fill:#000000; fill-opacity:1.0000; stroke:none;">
<circle cx="156.5690" cy="120.0950" r="0.6000" /> 
</g>
<g style="fill:#000000; fill-opacity:1.0000; stroke:none;">
<circle cx="154.0690" cy="130.0950" r="0.6000" /> 
</g>
<g style="fill:#000000; fill-opacity:1.0000; stroke:none;">
<circle cx="154.0690" cy="120.0950" r="0.6000" /> 
</g>
<g style="fill:#000000; fill-opacity:1.0000; stroke:none;">
<circle cx="149.0690" cy="125.0950" r="0.6000" /> 
</g>
<g style="fill:none; 
stroke:#000000; stroke-width:0.8000; stroke-opacity:1; 
stroke-linecap:round; stroke-linejoin:round;">
<path d="M149.4190 130.0950
L148.7190 130.0950
" />
<path d="M149.4190 127.5950
L148.7190 127.5950
" />
<path d="M154.0690 125.4450
L154.0690 124.7450
" />
<path d="M149.4190 120.0950
L148.7190 120.0950
" />
<path d="M149.4190 122.5950
L148.7190 122.5950
" />
</g>
<g style="fill:#000000; fill-opacity:1.0000; stroke:none;">
<circle cx="65.0000" cy="156.1600" r="0.5000" /> 
</g>
<g style="fill:#000000; fill-opacity:1.0000; stroke:none;">
<circle cx="62.4600" cy="156.1600" r="0.5000" /> 
</g>
<g style="fill:#000000; fill-opacity:1.0000; stroke:none;">
<circle cx="65.0000" cy="153.6200" r="0.5000" /> 
</g>
<g style="fill:#000000; fill-opacity:1.0000; stroke:none;">
<circle cx="62.4600" cy="153.6200" r="0.5000" /> 
</g>
<g style="fill:#000000; fill-opacity:1.0000; stroke:none;">
<circle cx="65.0000" cy="151.0800" r="0.5000" /> 
</g>
<g style="fill:#000000; fill-opacity:1.0000; stroke:none;">
<circle cx="62.4600" cy="151.0800" r="0.5000" /> 
</g>
<g style="fill:#000000; fill-opacity:1.0000; stroke:none;">
<circle cx="65.0000" cy="148.5400" r="0.5000" /> 
</g>
<g style="fill:#000000; fill-opacity:1.0000; stroke:none;">
<circle cx="62.4600" cy="148.5400" r="0.5000" /> 
</g>
<g style="fill:#000000; fill-opacity:1.0000; stroke:none;">
<circle cx="65.0000" cy="146.0000" r="0.5000" /> 
</g>
<g style="fill:#000000; fill-opacity:1.0000; stroke:none;">
<circle cx="62.4600" cy="146.0000" r="0.5000" /> 
</g>
<g style="fill:#000000; fill-opacity:1.0000; stroke:none;">
<circle cx="65.0000" cy="143.4600" r="0.5000" /> 
</g>
<g style="fill:#000000; fill-opacity:1.0000; stroke:none;">
<circle cx="62.4600" cy="143.4600" r="0.5000" /> 
</g>
<g style="fill:#000000; fill-opacity:1.0000; stroke:none;">
<circle cx="86.8800" cy="138.6400" r="0.4000" /> 
</g>
<g style="fill:#000000; fill-opacity:1.0000; stroke:none;">
<circle cx="94.5000" cy="138.6400" r="0.4000" /> 
</g>
<g style="fill:#000000; fill-opacity:1.0000; stroke:none;">
<circle cx="102.1200" cy="138.6400" r="0.4000" /> 
</g>
<g style="fill:#000000; fill-opacity:1.0000; stroke:none;">
<circle cx="102.1200" cy="131.0200" r="0.4000" /> 
</g>
<g style="fill:#000000; fill-opacity:1.0000; stroke:none;">
<circle cx="94.5000" cy="131.0200" r="0.4000" /> 
</g>
<g style="fill:#000000; fill-opacity:1.0000; stroke:none;">
<circle cx="86.8800" cy="131.0200" r="0.4000" /> 
</g>
<g style="fill:#000000; fill-opacity:1.0000; stroke:none;">
<circle cx="65.5320" cy="131.3820" r="1.6000" /> 
</g>
<g style="fill:#000000; fill-opacity:1.0000; stroke:none;">
<circle cx="62.0000" cy="163.0000" r="0.5000" /> 
</g>
<g style="fill:#000000; fill-opacity:1.0000; stroke:none;">
<circle cx="64.5400" cy="163.0000" r="0.5000" /> 
</g>
<g style="fill:#000000; fill-opacity:1.0000; stroke:none;">
<circle cx="67.0800" cy="163.0000" r="0.5000" /> 
</g>
<g style="fill:#000000; fill-opacity:1.0000; stroke:none;">
<circle cx="69.6200" cy="163.0000" r="0.5000" /> 
</g>
<g style="fill:#000000; fill-opacity:1.0000; stroke:none;">
<circle cx="72.1600" cy="163.0000" r="0.5000" /> 
</g>
<g style="fill:#000000; fill-opacity:1.0000; stroke:none;">
<circle cx="74.7000" cy="163.0000" r="0.5000" /> 
</g>
<g style="fill:#000000; fill-opacity:1.0000; stroke:none;">
<circle cx="77.2400" cy="163.0000" r="0.5000" /> 
</g>
<g style="fill:#000000; fill-opacity:1.0000; stroke:none;">
<circle cx="79.7800" cy="163.0000" r="0.5000" /> 
</g>
<g style="fill:#000000; fill-opacity:1.0000; stroke:none;">
<circle cx="82.3200" cy="163.0000" r="0.5000" /> 
</g>
<g style="fill:#000000; fill-opacity:1.0000; stroke:none;">
<circle cx="84.8600" cy="163.0000" r="0.5000" /> 
</g>
<g style="fill:#000000; fill-opacity:1.0000; stroke:none;">
<circle cx="87.4000" cy="163.0000" r="0.5000" /> 
</g>
<g style="fill:#000000; fill-opacity:1.0000; stroke:none;">
<circle cx="89.9400" cy="163.0000" r="0.5000" /> 
</g>
<g style="fill:#000000; fill-opacity:1.0000; stroke:none;">
<circle cx="92.4800" cy="163.0000" r="0.5000" /> 
</g>
<g style="fill:#000000; fill-opacity:1.0000; stroke:none;">
<circle cx="95.0200" cy="163.0000" r="0.5000" /> 
</g>
<g style="fill:#000000; fill-opacity:1.0000; stroke:none;">
<circle cx="97.5600" cy="163.0000" r="0.5000" /> 
</g>
<g style="fill:#000000; fill-opacity:1.0000; stroke:none;">
<circle cx="100.1000" cy="163.0000" r="0.5000" /> 
</g>
<g style="fill:#000000; fill-opacity:1.0000; stroke:none;">
<circle cx="102.6400" cy="163.0000" r="0.5000" /> 
</g>
<g style="fill:#000000; fill-opacity:1.0000; stroke:none;">
<circle cx="105.1800" cy="163.0000" r="0.5000" /> 
</g>
<g style="fill:#000000; fill-opacity:1.0000; stroke:none;">
<circle cx="107.7200" cy="163.0000" r="0.5000" /> 
</g>
<g style="fill:#000000; fill-opacity:1.0000; stroke:none;">
<circle cx="110.2600" cy="163.0000" r="0.5000" /> 
</g>
<g style="fill:#000000; fill-opacity:1.0000; stroke:none;">
<circle cx="112.8000" cy="163.0000" r="0.5000" /> 
</g>
<g style="fill:#000000; fill-opacity:1.0000; stroke:none;">
<circle cx="115.3400" cy="163.0000" r="0.5000" /> 
</g>
<g style="fill:#000000; fill-opacity:1.0000; stroke:none;">
<circle cx="117.8800" cy="163.0000" r="0.5000" /> 
</g>
<g style="fill:#000000; fill-opacity:1.0000; stroke:none;">
<circle cx="120.4200" cy="163.0000" r="0.5000" /> 
</g>
<g style="fill:#000000; fill-opacity:1.0000; stroke:none;">
<circle cx="122.9600" cy="163.0000" r="0.5000" /> 
</g>
<g style="fill:#000000; fill-opacity:1.0000; stroke:none;">
<circle cx="125.5000" cy="163.0000" r="0.5000" /> 
</g>
<g style="fill:#000000; fill-opacity:1.0000; stroke:none;">
<circle cx="128.0400" cy="163.0000" r="0.5000" /> 
</g>
<g style="fill:#000000; fill-opacity:1.0000; stroke:none;">
<circle cx="130.5800" cy="163.0000" r="0.5000" /> 
</g>
<g style="fill:#000000; fill-opacity:1.0000; stroke:none;">
<circle cx="133.1200" cy="163.0000" r="0.5000" /> 
</g>
<g style="fill:#000000; fill-opacity:1.0000; stroke:none;">
<circle cx="135.6600" cy="163.0000" r="0.5000" /> 
</g>
<g style="fill:#000000; fill-opacity:1.0000; stroke:none;">
<circle cx="138.2000" cy="163.0000" r="0.5000" /> 
</g>
<g style="fill:#000000; fill-opacity:1.0000; stroke:none;">
<circle cx="140.7400" cy="163.0000" r="0.5000" /> 
</g>
<g style="fill:#000000; fill-opacity:1.0000; stroke:none;">
<circle cx="143.2800" cy="163.0000" r="0.5000" /> 
</g>
<g style="fill:#000000; fill-opacity:1.0000; stroke:none;">
<circle cx="145.8200" cy="163.0000" r="0.5000" /> 
</g>
<g style="fill:#000000; fill-opacity:1.0000; stroke:none;">
<circle cx="148.3600" cy="163.0000" r="0.5000" /> 
</g>
<g style="fill:#000000; fill-opacity:1.0000; stroke:none;">
<circle cx="150.9000" cy="163.0000" r="0.5000" /> 
</g>
<g style="fill:#000000; fill-opacity:1.0000; stroke:none;">
<circle cx="153.4400" cy="163.0000" r="0.5000" /> 
</g>
<g style="fill:#000000; fill-opacity:1.0000; stroke:none;">
<circle cx="155.9800" cy="163.0000" r="0.5000" /> 
</g>
<g style="fill:#000000; fill-opacity:1.0000; stroke:none;">
<circle cx="158.5200" cy="163.0000" r="0.5000" /> 
</g> 
</svg>
