<?xml version="1.0" standalone="no"?>
 <!DOCTYPE svg PUBLIC "-//W3C//DTD SVG 1.1//EN" 
 "http://www.w3.org/Graphics/SVG/1.1/DTD/svg11.dtd"> 
<svg
  xmlns:svg="http://www.w3.org/2000/svg"
  xmlns="http://www.w3.org/2000/svg"
  xmlns:xlink="http://www.w3.org/1999/xlink"
  version="1.1"
  width="297.0022mm" height="210.0072mm" viewBox="0.0000 0.0000 297.0022 210.0072">
<title>SVG Image created as rcbus-ymf262-F_Mask.svg date 2025/08/28 08:21:05 </title>
  <desc>Image generated by PCBNEW </desc>
<g style="fill:#000000; fill-opacity:1.0000;stroke:#000000; stroke-opacity:1.0000;
stroke-linecap:round; stroke-linejoin:round;"
 transform="translate(0 0) scale(1 1)">
<path style="fill:#000000; fill-opacity:1.0000; stroke:none;fill-rule:evenodd;"
d="M 112.6500,156.9875
112.6319,157.0784
112.5804,157.1554
112.5034,157.2069
112.4125,157.2250
111.8125,157.2250
111.7216,157.2069
111.6446,157.1554
111.5931,157.0784
111.5750,156.9875
111.5750,156.5125
111.5931,156.4216
111.6446,156.3446
111.7216,156.2931
111.8125,156.2750
112.4125,156.2750
112.5034,156.2931
112.5804,156.3446
112.6319,156.4216
112.6500,156.5125
Z" /> 
<path style="fill:#000000; fill-opacity:1.0000; stroke:none;fill-rule:evenodd;"
d="M 110.9250,156.9875
110.9069,157.0784
110.8554,157.1554
110.7784,157.2069
110.6875,157.2250
110.0875,157.2250
109.9966,157.2069
109.9196,157.1554
109.8681,157.0784
109.8500,156.9875
109.8500,156.5125
109.8681,156.4216
109.9196,156.3446
109.9966,156.2931
110.0875,156.2750
110.6875,156.2750
110.7784,156.2931
110.8554,156.3446
110.9069,156.4216
110.9250,156.5125
Z" /> 
<path style="fill:#000000; fill-opacity:1.0000; stroke:none;fill-rule:evenodd;"
d="M 112.6500,143.2375
112.6319,143.3284
112.5804,143.4054
112.5034,143.4569
112.4125,143.4750
111.8125,143.4750
111.7216,143.4569
111.6446,143.4054
111.5931,143.3284
111.5750,143.2375
111.5750,142.7625
111.5931,142.6716
111.6446,142.5946
111.7216,142.5431
111.8125,142.5250
112.4125,142.5250
112.5034,142.5431
112.5804,142.5946
112.6319,142.6716
112.6500,142.7625
Z" /> 
<path style="fill:#000000; fill-opacity:1.0000; stroke:none;fill-rule:evenodd;"
d="M 110.9250,143.2375
110.9069,143.3284
110.8554,143.4054
110.7784,143.4569
110.6875,143.4750
110.0875,143.4750
109.9966,143.4569
109.9196,143.4054
109.8681,143.3284
109.8500,143.2375
109.8500,142.7625
109.8681,142.6716
109.9196,142.5946
109.9966,142.5431
110.0875,142.5250
110.6875,142.5250
110.7784,142.5431
110.8554,142.5946
110.9069,142.6716
110.9250,142.7625
Z" /> 
</g>
<g style="fill:#000000; fill-opacity:1.0000; stroke:none;">
<circle cx="156.5690" cy="130.0950" r="0.6000" /> 
</g>
<g style="fill:#000000; fill-opacity:1.0000; stroke:none;">
<circle cx="156.5690" cy="120.0950" r="0.6000" /> 
</g>
<g style="fill:#000000; fill-opacity:1.0000; stroke:none;">
<circle cx="154.0690" cy="130.0950" r="0.6000" /> 
</g>
<g style="fill:#000000; fill-opacity:1.0000; stroke:none;">
<circle cx="154.0690" cy="120.0950" r="0.6000" /> 
</g>
<g style="fill:#000000; fill-opacity:1.0000; stroke:none;">
<circle cx="149.0690" cy="125.0950" r="0.6000" /> 
<path style="fill:#000000; fill-opacity:1.0000; stroke:none;fill-rule:evenodd;"
d="M 150.3190,129.1950
150.3190,130.9950
147.8190,130.9950
147.8190,129.1950
Z" /> 
<path style="fill:#000000; fill-opacity:1.0000; stroke:none;fill-rule:evenodd;"
d="M 150.3190,126.6950
150.3190,128.4950
147.8190,128.4950
147.8190,126.6950
Z" /> 
<path style="fill:#000000; fill-opacity:1.0000; stroke:none;fill-rule:evenodd;"
d="M 154.9690,123.8450
154.9690,126.3450
153.1690,126.3450
153.1690,123.8450
Z" /> 
<path style="fill:#000000; fill-opacity:1.0000; stroke:none;fill-rule:evenodd;"
d="M 150.3190,119.1950
150.3190,120.9950
147.8190,120.9950
147.8190,119.1950
Z" /> 
<path style="fill:#000000; fill-opacity:1.0000; stroke:none;fill-rule:evenodd;"
d="M 150.3190,121.6950
150.3190,123.4950
147.8190,123.4950
147.8190,121.6950
Z" /> 
<path style="fill:#000000; fill-opacity:1.0000; stroke:none;fill-rule:evenodd;"
d="M 65.8500,155.3100
65.8500,157.0100
64.1500,157.0100
64.1500,155.3100
Z" /> 
</g>
<g style="fill:#000000; fill-opacity:1.0000; stroke:none;">
<circle cx="62.4600" cy="156.1600" r="0.8500" /> 
</g>
<g style="fill:#000000; fill-opacity:1.0000; stroke:none;">
<circle cx="65.0000" cy="153.6200" r="0.8500" /> 
</g>
<g style="fill:#000000; fill-opacity:1.0000; stroke:none;">
<circle cx="62.4600" cy="153.6200" r="0.8500" /> 
</g>
<g style="fill:#000000; fill-opacity:1.0000; stroke:none;">
<circle cx="65.0000" cy="151.0800" r="0.8500" /> 
</g>
<g style="fill:#000000; fill-opacity:1.0000; stroke:none;">
<circle cx="62.4600" cy="151.0800" r="0.8500" /> 
</g>
<g style="fill:#000000; fill-opacity:1.0000; stroke:none;">
<circle cx="65.0000" cy="148.5400" r="0.8500" /> 
</g>
<g style="fill:#000000; fill-opacity:1.0000; stroke:none;">
<circle cx="62.4600" cy="148.5400" r="0.8500" /> 
</g>
<g style="fill:#000000; fill-opacity:1.0000; stroke:none;">
<circle cx="65.0000" cy="146.0000" r="0.8500" /> 
</g>
<g style="fill:#000000; fill-opacity:1.0000; stroke:none;">
<circle cx="62.4600" cy="146.0000" r="0.8500" /> 
</g>
<g style="fill:#000000; fill-opacity:1.0000; stroke:none;">
<circle cx="65.0000" cy="143.4600" r="0.8500" /> 
</g>
<g style="fill:#000000; fill-opacity:1.0000; stroke:none;">
<circle cx="62.4600" cy="143.4600" r="0.8500" /> 
</g>
<g style="fill:#000000; fill-opacity:1.0000; stroke:none;">
<circle cx="65.5320" cy="131.3820" r="1.6000" /> 
<path style="fill:#000000; fill-opacity:1.0000; stroke:none;fill-rule:evenodd;"
d="M 62.8500,163.8500
61.1500,163.8500
61.1500,162.1500
62.8500,162.1500
Z" /> 
</g>
<g style="fill:#000000; fill-opacity:1.0000; stroke:none;">
<circle cx="64.5400" cy="163.0000" r="0.8500" /> 
<circle cx="67.0800" cy="163.0000" r="0.8500" /> 
<circle cx="69.6200" cy="163.0000" r="0.8500" /> 
<circle cx="72.1600" cy="163.0000" r="0.8500" /> 
<circle cx="74.7000" cy="163.0000" r="0.8500" /> 
<circle cx="77.2400" cy="163.0000" r="0.8500" /> 
<circle cx="79.7800" cy="163.0000" r="0.8500" /> 
<circle cx="82.3200" cy="163.0000" r="0.8500" /> 
<circle cx="84.8600" cy="163.0000" r="0.8500" /> 
<circle cx="87.4000" cy="163.0000" r="0.8500" /> 
<circle cx="89.9400" cy="163.0000" r="0.8500" /> 
<circle cx="92.4800" cy="163.0000" r="0.8500" /> 
<circle cx="95.0200" cy="163.0000" r="0.8500" /> 
<circle cx="97.5600" cy="163.0000" r="0.8500" /> 
<circle cx="100.1000" cy="163.0000" r="0.8500" /> 
<circle cx="102.6400" cy="163.0000" r="0.8500" /> 
<circle cx="105.1800" cy="163.0000" r="0.8500" /> 
<circle cx="107.7200" cy="163.0000" r="0.8500" /> 
<circle cx="110.2600" cy="163.0000" r="0.8500" /> 
<circle cx="112.8000" cy="163.0000" r="0.8500" /> 
<circle cx="115.3400" cy="163.0000" r="0.8500" /> 
<circle cx="117.8800" cy="163.0000" r="0.8500" /> 
<circle cx="120.4200" cy="163.0000" r="0.8500" /> 
<circle cx="122.9600" cy="163.0000" r="0.8500" /> 
<circle cx="125.5000" cy="163.0000" r="0.8500" /> 
<circle cx="128.0400" cy="163.0000" r="0.8500" /> 
<circle cx="130.5800" cy="163.0000" r="0.8500" /> 
<circle cx="133.1200" cy="163.0000" r="0.8500" /> 
<circle cx="135.6600" cy="163.0000" r="0.8500" /> 
<circle cx="138.2000" cy="163.0000" r="0.8500" /> 
<circle cx="140.7400" cy="163.0000" r="0.8500" /> 
<circle cx="143.2800" cy="163.0000" r="0.8500" /> 
<circle cx="145.8200" cy="163.0000" r="0.8500" /> 
<circle cx="148.3600" cy="163.0000" r="0.8500" /> 
<circle cx="150.9000" cy="163.0000" r="0.8500" /> 
<circle cx="153.4400" cy="163.0000" r="0.8500" /> 
<circle cx="155.9800" cy="163.0000" r="0.8500" /> 
<circle cx="158.5200" cy="163.0000" r="0.8500" /> 
<path style="fill:#000000; fill-opacity:1.0000; stroke:none;fill-rule:evenodd;"
d="M 80.7300,157.5250
80.6726,157.5136
80.6239,157.4811
80.5914,157.4324
80.5800,157.3750
80.5800,155.6250
80.5914,155.5676
80.6239,155.5189
80.6726,155.4864
80.7300,155.4750
81.0300,155.4750
81.0874,155.4864
81.1361,155.5189
81.1686,155.5676
81.1800,155.6250
81.1800,157.3750
81.1686,157.4324
81.1361,157.4811
81.0874,157.5136
81.0300,157.5250
Z" /> 
<path style="fill:#000000; fill-opacity:1.0000; stroke:none;fill-rule:evenodd;"
d="M 82.0000,157.5250
81.9426,157.5136
81.8939,157.4811
81.8614,157.4324
81.8500,157.3750
81.8500,155.6250
81.8614,155.5676
81.8939,155.5189
81.9426,155.4864
82.0000,155.4750
82.3000,155.4750
82.3574,155.4864
82.4061,155.5189
82.4386,155.5676
82.4500,155.6250
82.4500,157.3750
82.4386,157.4324
82.4061,157.4811
82.3574,157.5136
82.3000,157.5250
Z" /> 
<path style="fill:#000000; fill-opacity:1.0000; stroke:none;fill-rule:evenodd;"
d="M 83.2700,157.5250
83.2126,157.5136
83.1639,157.4811
83.1314,157.4324
83.1200,157.3750
83.1200,155.6250
83.1314,155.5676
83.1639,155.5189
83.2126,155.4864
83.2700,155.4750
83.5700,155.4750
83.6274,155.4864
83.6761,155.5189
83.7086,155.5676
83.7200,155.6250
83.7200,157.3750
83.7086,157.4324
83.6761,157.4811
83.6274,157.5136
83.5700,157.5250
Z" /> 
<path style="fill:#000000; fill-opacity:1.0000; stroke:none;fill-rule:evenodd;"
d="M 84.5400,157.5250
84.4826,157.5136
84.4339,157.4811
84.4014,157.4324
84.3900,157.3750
84.3900,155.6250
84.4014,155.5676
84.4339,155.5189
84.4826,155.4864
84.5400,155.4750
84.8400,155.4750
84.8974,155.4864
84.9461,155.5189
84.9786,155.5676
84.9900,155.6250
84.9900,157.3750
84.9786,157.4324
84.9461,157.4811
84.8974,157.5136
84.8400,157.5250
Z" /> 
<path style="fill:#000000; fill-opacity:1.0000; stroke:none;fill-rule:evenodd;"
d="M 85.8100,157.5250
85.7526,157.5136
85.7039,157.4811
85.6714,157.4324
85.6600,157.3750
85.6600,155.6250
85.6714,155.5676
85.7039,155.5189
85.7526,155.4864
85.8100,155.4750
86.1100,155.4750
86.1674,155.4864
86.2161,155.5189
86.2486,155.5676
86.2600,155.6250
86.2600,157.3750
86.2486,157.4324
86.2161,157.4811
86.1674,157.5136
86.1100,157.5250
Z" /> 
<path style="fill:#000000; fill-opacity:1.0000; stroke:none;fill-rule:evenodd;"
d="M 87.0800,157.5250
87.0226,157.5136
86.9739,157.4811
86.9414,157.4324
86.9300,157.3750
86.9300,155.6250
86.9414,155.5676
86.9739,155.5189
87.0226,155.4864
87.0800,155.4750
87.3800,155.4750
87.4374,155.4864
87.4861,155.5189
87.5186,155.5676
87.5300,155.6250
87.5300,157.3750
87.5186,157.4324
87.4861,157.4811
87.4374,157.5136
87.3800,157.5250
Z" /> 
<path style="fill:#000000; fill-opacity:1.0000; stroke:none;fill-rule:evenodd;"
d="M 88.3500,157.5250
88.2926,157.5136
88.2439,157.4811
88.2114,157.4324
88.2000,157.3750
88.2000,155.6250
88.2114,155.5676
88.2439,155.5189
88.2926,155.4864
88.3500,155.4750
88.6500,155.4750
88.7074,155.4864
88.7561,155.5189
88.7886,155.5676
88.8000,155.6250
88.8000,157.3750
88.7886,157.4324
88.7561,157.4811
88.7074,157.5136
88.6500,157.5250
Z" /> 
<path style="fill:#000000; fill-opacity:1.0000; stroke:none;fill-rule:evenodd;"
d="M 89.6200,157.5250
89.5626,157.5136
89.5139,157.4811
89.4814,157.4324
89.4700,157.3750
89.4700,155.6250
89.4814,155.5676
89.5139,155.5189
89.5626,155.4864
89.6200,155.4750
89.9200,155.4750
89.9774,155.4864
90.0261,155.5189
90.0586,155.5676
90.0700,155.6250
90.0700,157.3750
90.0586,157.4324
90.0261,157.4811
89.9774,157.5136
89.9200,157.5250
Z" /> 
<path style="fill:#000000; fill-opacity:1.0000; stroke:none;fill-rule:evenodd;"
d="M 90.8900,157.5250
90.8326,157.5136
90.7839,157.4811
90.7514,157.4324
90.7400,157.3750
90.7400,155.6250
90.7514,155.5676
90.7839,155.5189
90.8326,155.4864
90.8900,155.4750
91.1900,155.4750
91.2474,155.4864
91.2961,155.5189
91.3286,155.5676
91.3400,155.6250
91.3400,157.3750
91.3286,157.4324
91.2961,157.4811
91.2474,157.5136
91.1900,157.5250
Z" /> 
<path style="fill:#000000; fill-opacity:1.0000; stroke:none;fill-rule:evenodd;"
d="M 92.1600,157.5250
92.1026,157.5136
92.0539,157.4811
92.0214,157.4324
92.0100,157.3750
92.0100,155.6250
92.0214,155.5676
92.0539,155.5189
92.1026,155.4864
92.1600,155.4750
92.4600,155.4750
92.5174,155.4864
92.5661,155.5189
92.5986,155.5676
92.6100,155.6250
92.6100,157.3750
92.5986,157.4324
92.5661,157.4811
92.5174,157.5136
92.4600,157.5250
Z" /> 
<path style="fill:#000000; fill-opacity:1.0000; stroke:none;fill-rule:evenodd;"
d="M 92.1600,148.2250
92.1026,148.2136
92.0539,148.1811
92.0214,148.1324
92.0100,148.0750
92.0100,146.3250
92.0214,146.2676
92.0539,146.2189
92.1026,146.1864
92.1600,146.1750
92.4600,146.1750
92.5174,146.1864
92.5661,146.2189
92.5986,146.2676
92.6100,146.3250
92.6100,148.0750
92.5986,148.1324
92.5661,148.1811
92.5174,148.2136
92.4600,148.2250
Z" /> 
<path style="fill:#000000; fill-opacity:1.0000; stroke:none;fill-rule:evenodd;"
d="M 90.8900,148.2250
90.8326,148.2136
90.7839,148.1811
90.7514,148.1324
90.7400,148.0750
90.7400,146.3250
90.7514,146.2676
90.7839,146.2189
90.8326,146.1864
90.8900,146.1750
91.1900,146.1750
91.2474,146.1864
91.2961,146.2189
91.3286,146.2676
91.3400,146.3250
91.3400,148.0750
91.3286,148.1324
91.2961,148.1811
91.2474,148.2136
91.1900,148.2250
Z" /> 
<path style="fill:#000000; fill-opacity:1.0000; stroke:none;fill-rule:evenodd;"
d="M 89.6200,148.2250
89.5626,148.2136
89.5139,148.1811
89.4814,148.1324
89.4700,148.0750
89.4700,146.3250
89.4814,146.2676
89.5139,146.2189
89.5626,146.1864
89.6200,146.1750
89.9200,146.1750
89.9774,146.1864
90.0261,146.2189
90.0586,146.2676
90.0700,146.3250
90.0700,148.0750
90.0586,148.1324
90.0261,148.1811
89.9774,148.2136
89.9200,148.2250
Z" /> 
<path style="fill:#000000; fill-opacity:1.0000; stroke:none;fill-rule:evenodd;"
d="M 88.3500,148.2250
88.2926,148.2136
88.2439,148.1811
88.2114,148.1324
88.2000,148.0750
88.2000,146.3250
88.2114,146.2676
88.2439,146.2189
88.2926,146.1864
88.3500,146.1750
88.6500,146.1750
88.7074,146.1864
88.7561,146.2189
88.7886,146.2676
88.8000,146.3250
88.8000,148.0750
88.7886,148.1324
88.7561,148.1811
88.7074,148.2136
88.6500,148.2250
Z" /> 
<path style="fill:#000000; fill-opacity:1.0000; stroke:none;fill-rule:evenodd;"
d="M 87.0800,148.2250
87.0226,148.2136
86.9739,148.1811
86.9414,148.1324
86.9300,148.0750
86.9300,146.3250
86.9414,146.2676
86.9739,146.2189
87.0226,146.1864
87.0800,146.1750
87.3800,146.1750
87.4374,146.1864
87.4861,146.2189
87.5186,146.2676
87.5300,146.3250
87.5300,148.0750
87.5186,148.1324
87.4861,148.1811
87.4374,148.2136
87.3800,148.2250
Z" /> 
<path style="fill:#000000; fill-opacity:1.0000; stroke:none;fill-rule:evenodd;"
d="M 85.8100,148.2250
85.7526,148.2136
85.7039,148.1811
85.6714,148.1324
85.6600,148.0750
85.6600,146.3250
85.6714,146.2676
85.7039,146.2189
85.7526,146.1864
85.8100,146.1750
86.1100,146.1750
86.1674,146.1864
86.2161,146.2189
86.2486,146.2676
86.2600,146.3250
86.2600,148.0750
86.2486,148.1324
86.2161,148.1811
86.1674,148.2136
86.1100,148.2250
Z" /> 
<path style="fill:#000000; fill-opacity:1.0000; stroke:none;fill-rule:evenodd;"
d="M 84.5400,148.2250
84.4826,148.2136
84.4339,148.1811
84.4014,148.1324
84.3900,148.0750
84.3900,146.3250
84.4014,146.2676
84.4339,146.2189
84.4826,146.1864
84.5400,146.1750
84.8400,146.1750
84.8974,146.1864
84.9461,146.2189
84.9786,146.2676
84.9900,146.3250
84.9900,148.0750
84.9786,148.1324
84.9461,148.1811
84.8974,148.2136
84.8400,148.2250
Z" /> 
<path style="fill:#000000; fill-opacity:1.0000; stroke:none;fill-rule:evenodd;"
d="M 83.2700,148.2250
83.2126,148.2136
83.1639,148.1811
83.1314,148.1324
83.1200,148.0750
83.1200,146.3250
83.1314,146.2676
83.1639,146.2189
83.2126,146.1864
83.2700,146.1750
83.5700,146.1750
83.6274,146.1864
83.6761,146.2189
83.7086,146.2676
83.7200,146.3250
83.7200,148.0750
83.7086,148.1324
83.6761,148.1811
83.6274,148.2136
83.5700,148.2250
Z" /> 
<path style="fill:#000000; fill-opacity:1.0000; stroke:none;fill-rule:evenodd;"
d="M 82.0000,148.2250
81.9426,148.2136
81.8939,148.1811
81.8614,148.1324
81.8500,148.0750
81.8500,146.3250
81.8614,146.2676
81.8939,146.2189
81.9426,146.1864
82.0000,146.1750
82.3000,146.1750
82.3574,146.1864
82.4061,146.2189
82.4386,146.2676
82.4500,146.3250
82.4500,148.0750
82.4386,148.1324
82.4061,148.1811
82.3574,148.2136
82.3000,148.2250
Z" /> 
<path style="fill:#000000; fill-opacity:1.0000; stroke:none;fill-rule:evenodd;"
d="M 80.7300,148.2250
80.6726,148.2136
80.6239,148.1811
80.5914,148.1324
80.5800,148.0750
80.5800,146.3250
80.5914,146.2676
80.6239,146.2189
80.6726,146.1864
80.7300,146.1750
81.0300,146.1750
81.0874,146.1864
81.1361,146.2189
81.1686,146.2676
81.1800,146.3250
81.1800,148.0750
81.1686,148.1324
81.1361,148.1811
81.0874,148.2136
81.0300,148.2250
Z" /> 
<path style="fill:#000000; fill-opacity:1.0000; stroke:none;fill-rule:evenodd;"
d="M 126.2375,127.1000
126.3284,127.1181
126.4054,127.1696
126.4569,127.2466
126.4750,127.3375
126.4750,127.9375
126.4569,128.0284
126.4054,128.1054
126.3284,128.1569
126.2375,128.1750
125.7625,128.1750
125.6716,128.1569
125.5946,128.1054
125.5431,128.0284
125.5250,127.9375
125.5250,127.3375
125.5431,127.2466
125.5946,127.1696
125.6716,127.1181
125.7625,127.1000
Z" /> 
<path style="fill:#000000; fill-opacity:1.0000; stroke:none;fill-rule:evenodd;"
d="M 126.2375,128.8250
126.3284,128.8431
126.4054,128.8946
126.4569,128.9716
126.4750,129.0625
126.4750,129.6625
126.4569,129.7534
126.4054,129.8304
126.3284,129.8819
126.2375,129.9000
125.7625,129.9000
125.6716,129.8819
125.5946,129.8304
125.5431,129.7534
125.5250,129.6625
125.5250,129.0625
125.5431,128.9716
125.5946,128.8946
125.6716,128.8431
125.7625,128.8250
Z" /> 
<path style="fill:#000000; fill-opacity:1.0000; stroke:none;fill-rule:evenodd;"
d="M 116.7375,129.9625
116.8284,129.9806
116.9054,130.0321
116.9569,130.1091
116.9750,130.2000
116.9750,130.8000
116.9569,130.8909
116.9054,130.9679
116.8284,131.0194
116.7375,131.0375
116.2625,131.0375
116.1716,131.0194
116.0946,130.9679
116.0431,130.8909
116.0250,130.8000
116.0250,130.2000
116.0431,130.1091
116.0946,130.0321
116.1716,129.9806
116.2625,129.9625
Z" /> 
<path style="fill:#000000; fill-opacity:1.0000; stroke:none;fill-rule:evenodd;"
d="M 116.7375,131.6875
116.8284,131.7056
116.9054,131.7571
116.9569,131.8341
116.9750,131.9250
116.9750,132.5250
116.9569,132.6159
116.9054,132.6929
116.8284,132.7444
116.7375,132.7625
116.2625,132.7625
116.1716,132.7444
116.0946,132.6929
116.0431,132.6159
116.0250,132.5250
116.0250,131.9250
116.0431,131.8341
116.0946,131.7571
116.1716,131.7056
116.2625,131.6875
Z" /> 
<path style="fill:#000000; fill-opacity:1.0000; stroke:none;fill-rule:evenodd;"
d="M 119.4875,129.9625
119.5784,129.9806
119.6554,130.0321
119.7069,130.1091
119.7250,130.2000
119.7250,130.8000
119.7069,130.8909
119.6554,130.9679
119.5784,131.0194
119.4875,131.0375
119.0125,131.0375
118.9216,131.0194
118.8446,130.9679
118.7931,130.8909
118.7750,130.8000
118.7750,130.2000
118.7931,130.1091
118.8446,130.0321
118.9216,129.9806
119.0125,129.9625
Z" /> 
<path style="fill:#000000; fill-opacity:1.0000; stroke:none;fill-rule:evenodd;"
d="M 119.4875,131.6875
119.5784,131.7056
119.6554,131.7571
119.7069,131.8341
119.7250,131.9250
119.7250,132.5250
119.7069,132.6159
119.6554,132.6929
119.5784,132.7444
119.4875,132.7625
119.0125,132.7625
118.9216,132.7444
118.8446,132.6929
118.7931,132.6159
118.7750,132.5250
118.7750,131.9250
118.7931,131.8341
118.8446,131.7571
118.9216,131.7056
119.0125,131.6875
Z" /> 
<path style="fill:#000000; fill-opacity:1.0000; stroke:none;fill-rule:evenodd;"
d="M 114.3775,157.6500
114.3249,157.6395
114.2803,157.6097
114.2505,157.5651
114.2400,157.5125
114.2400,155.7875
114.2505,155.7349
114.2803,155.6903
114.3249,155.6605
114.3775,155.6500
114.6525,155.6500
114.7051,155.6605
114.7497,155.6903
114.7795,155.7349
114.7900,155.7875
114.7900,157.5125
114.7795,157.5651
114.7497,157.6097
114.7051,157.6395
114.6525,157.6500
Z" /> 
<path style="fill:#000000; fill-opacity:1.0000; stroke:none;fill-rule:evenodd;"
d="M 115.6475,157.6500
115.5949,157.6395
115.5503,157.6097
115.5205,157.5651
115.5100,157.5125
115.5100,155.7875
115.5205,155.7349
115.5503,155.6903
115.5949,155.6605
115.6475,155.6500
115.9225,155.6500
115.9751,155.6605
116.0197,155.6903
116.0495,155.7349
116.0600,155.7875
116.0600,157.5125
116.0495,157.5651
116.0197,157.6097
115.9751,157.6395
115.9225,157.6500
Z" /> 
<path style="fill:#000000; fill-opacity:1.0000; stroke:none;fill-rule:evenodd;"
d="M 116.9175,157.6500
116.8649,157.6395
116.8203,157.6097
116.7905,157.5651
116.7800,157.5125
116.7800,155.7875
116.7905,155.7349
116.8203,155.6903
116.8649,155.6605
116.9175,155.6500
117.1925,155.6500
117.2451,155.6605
117.2897,155.6903
117.3195,155.7349
117.3300,155.7875
117.3300,157.5125
117.3195,157.5651
117.2897,157.6097
117.2451,157.6395
117.1925,157.6500
Z" /> 
<path style="fill:#000000; fill-opacity:1.0000; stroke:none;fill-rule:evenodd;"
d="M 118.1875,157.6500
118.1349,157.6395
118.0903,157.6097
118.0605,157.5651
118.0500,157.5125
118.0500,155.7875
118.0605,155.7349
118.0903,155.6903
118.1349,155.6605
118.1875,155.6500
118.4625,155.6500
118.5151,155.6605
118.5597,155.6903
118.5895,155.7349
118.6000,155.7875
118.6000,157.5125
118.5895,157.5651
118.5597,157.6097
118.5151,157.6395
118.4625,157.6500
Z" /> 
<path style="fill:#000000; fill-opacity:1.0000; stroke:none;fill-rule:evenodd;"
d="M 119.4575,157.6500
119.4049,157.6395
119.3603,157.6097
119.3305,157.5651
119.3200,157.5125
119.3200,155.7875
119.3305,155.7349
119.3603,155.6903
119.4049,155.6605
119.4575,155.6500
119.7325,155.6500
119.7851,155.6605
119.8297,155.6903
119.8595,155.7349
119.8700,155.7875
119.8700,157.5125
119.8595,157.5651
119.8297,157.6097
119.7851,157.6395
119.7325,157.6500
Z" /> 
<path style="fill:#000000; fill-opacity:1.0000; stroke:none;fill-rule:evenodd;"
d="M 120.7275,157.6500
120.6749,157.6395
120.6303,157.6097
120.6005,157.5651
120.5900,157.5125
120.5900,155.7875
120.6005,155.7349
120.6303,155.6903
120.6749,155.6605
120.7275,155.6500
121.0025,155.6500
121.0551,155.6605
121.0997,155.6903
121.1295,155.7349
121.1400,155.7875
121.1400,157.5125
121.1295,157.5651
121.0997,157.6097
121.0551,157.6395
121.0025,157.6500
Z" /> 
<path style="fill:#000000; fill-opacity:1.0000; stroke:none;fill-rule:evenodd;"
d="M 121.9975,157.6500
121.9449,157.6395
121.9003,157.6097
121.8705,157.5651
121.8600,157.5125
121.8600,155.7875
121.8705,155.7349
121.9003,155.6903
121.9449,155.6605
121.9975,155.6500
122.2725,155.6500
122.3251,155.6605
122.3697,155.6903
122.3995,155.7349
122.4100,155.7875
122.4100,157.5125
122.3995,157.5651
122.3697,157.6097
122.3251,157.6395
122.2725,157.6500
Z" /> 
<path style="fill:#000000; fill-opacity:1.0000; stroke:none;fill-rule:evenodd;"
d="M 123.2675,157.6500
123.2149,157.6395
123.1703,157.6097
123.1405,157.5651
123.1300,157.5125
123.1300,155.7875
123.1405,155.7349
123.1703,155.6903
123.2149,155.6605
123.2675,155.6500
123.5425,155.6500
123.5951,155.6605
123.6397,155.6903
123.6695,155.7349
123.6800,155.7875
123.6800,157.5125
123.6695,157.5651
123.6397,157.6097
123.5951,157.6395
123.5425,157.6500
Z" /> 
<path style="fill:#000000; fill-opacity:1.0000; stroke:none;fill-rule:evenodd;"
d="M 124.5375,157.6500
124.4849,157.6395
124.4403,157.6097
124.4105,157.5651
124.4000,157.5125
124.4000,155.7875
124.4105,155.7349
124.4403,155.6903
124.4849,155.6605
124.5375,155.6500
124.8125,155.6500
124.8651,155.6605
124.9097,155.6903
124.9395,155.7349
124.9500,155.7875
124.9500,157.5125
124.9395,157.5651
124.9097,157.6097
124.8651,157.6395
124.8125,157.6500
Z" /> 
<path style="fill:#000000; fill-opacity:1.0000; stroke:none;fill-rule:evenodd;"
d="M 125.8075,157.6500
125.7549,157.6395
125.7103,157.6097
125.6805,157.5651
125.6700,157.5125
125.6700,155.7875
125.6805,155.7349
125.7103,155.6903
125.7549,155.6605
125.8075,155.6500
126.0825,155.6500
126.1351,155.6605
126.1797,155.6903
126.2095,155.7349
126.2200,155.7875
126.2200,157.5125
126.2095,157.5651
126.1797,157.6097
126.1351,157.6395
126.0825,157.6500
Z" /> 
<path style="fill:#000000; fill-opacity:1.0000; stroke:none;fill-rule:evenodd;"
d="M 127.0775,157.6500
127.0249,157.6395
126.9803,157.6097
126.9505,157.5651
126.9400,157.5125
126.9400,155.7875
126.9505,155.7349
126.9803,155.6903
127.0249,155.6605
127.0775,155.6500
127.3525,155.6500
127.4051,155.6605
127.4497,155.6903
127.4795,155.7349
127.4900,155.7875
127.4900,157.5125
127.4795,157.5651
127.4497,157.6097
127.4051,157.6395
127.3525,157.6500
Z" /> 
<path style="fill:#000000; fill-opacity:1.0000; stroke:none;fill-rule:evenodd;"
d="M 128.3475,157.6500
128.2949,157.6395
128.2503,157.6097
128.2205,157.5651
128.2100,157.5125
128.2100,155.7875
128.2205,155.7349
128.2503,155.6903
128.2949,155.6605
128.3475,155.6500
128.6225,155.6500
128.6751,155.6605
128.7197,155.6903
128.7495,155.7349
128.7600,155.7875
128.7600,157.5125
128.7495,157.5651
128.7197,157.6097
128.6751,157.6395
128.6225,157.6500
Z" /> 
<path style="fill:#000000; fill-opacity:1.0000; stroke:none;fill-rule:evenodd;"
d="M 128.3475,148.3500
128.2949,148.3395
128.2503,148.3097
128.2205,148.2651
128.2100,148.2125
128.2100,146.4875
128.2205,146.4349
128.2503,146.3903
128.2949,146.3605
128.3475,146.3500
128.6225,146.3500
128.6751,146.3605
128.7197,146.3903
128.7495,146.4349
128.7600,146.4875
128.7600,148.2125
128.7495,148.2651
128.7197,148.3097
128.6751,148.3395
128.6225,148.3500
Z" /> 
<path style="fill:#000000; fill-opacity:1.0000; stroke:none;fill-rule:evenodd;"
d="M 127.0775,148.3500
127.0249,148.3395
126.9803,148.3097
126.9505,148.2651
126.9400,148.2125
126.9400,146.4875
126.9505,146.4349
126.9803,146.3903
127.0249,146.3605
127.0775,146.3500
127.3525,146.3500
127.4051,146.3605
127.4497,146.3903
127.4795,146.4349
127.4900,146.4875
127.4900,148.2125
127.4795,148.2651
127.4497,148.3097
127.4051,148.3395
127.3525,148.3500
Z" /> 
<path style="fill:#000000; fill-opacity:1.0000; stroke:none;fill-rule:evenodd;"
d="M 125.8075,148.3500
125.7549,148.3395
125.7103,148.3097
125.6805,148.2651
125.6700,148.2125
125.6700,146.4875
125.6805,146.4349
125.7103,146.3903
125.7549,146.3605
125.8075,146.3500
126.0825,146.3500
126.1351,146.3605
126.1797,146.3903
126.2095,146.4349
126.2200,146.4875
126.2200,148.2125
126.2095,148.2651
126.1797,148.3097
126.1351,148.3395
126.0825,148.3500
Z" /> 
<path style="fill:#000000; fill-opacity:1.0000; stroke:none;fill-rule:evenodd;"
d="M 124.5375,148.3500
124.4849,148.3395
124.4403,148.3097
124.4105,148.2651
124.4000,148.2125
124.4000,146.4875
124.4105,146.4349
124.4403,146.3903
124.4849,146.3605
124.5375,146.3500
124.8125,146.3500
124.8651,146.3605
124.9097,146.3903
124.9395,146.4349
124.9500,146.4875
124.9500,148.2125
124.9395,148.2651
124.9097,148.3097
124.8651,148.3395
124.8125,148.3500
Z" /> 
<path style="fill:#000000; fill-opacity:1.0000; stroke:none;fill-rule:evenodd;"
d="M 123.2675,148.3500
123.2149,148.3395
123.1703,148.3097
123.1405,148.2651
123.1300,148.2125
123.1300,146.4875
123.1405,146.4349
123.1703,146.3903
123.2149,146.3605
123.2675,146.3500
123.5425,146.3500
123.5951,146.3605
123.6397,146.3903
123.6695,146.4349
123.6800,146.4875
123.6800,148.2125
123.6695,148.2651
123.6397,148.3097
123.5951,148.3395
123.5425,148.3500
Z" /> 
<path style="fill:#000000; fill-opacity:1.0000; stroke:none;fill-rule:evenodd;"
d="M 121.9975,148.3500
121.9449,148.3395
121.9003,148.3097
121.8705,148.2651
121.8600,148.2125
121.8600,146.4875
121.8705,146.4349
121.9003,146.3903
121.9449,146.3605
121.9975,146.3500
122.2725,146.3500
122.3251,146.3605
122.3697,146.3903
122.3995,146.4349
122.4100,146.4875
122.4100,148.2125
122.3995,148.2651
122.3697,148.3097
122.3251,148.3395
122.2725,148.3500
Z" /> 
<path style="fill:#000000; fill-opacity:1.0000; stroke:none;fill-rule:evenodd;"
d="M 120.7275,148.3500
120.6749,148.3395
120.6303,148.3097
120.6005,148.2651
120.5900,148.2125
120.5900,146.4875
120.6005,146.4349
120.6303,146.3903
120.6749,146.3605
120.7275,146.3500
121.0025,146.3500
121.0551,146.3605
121.0997,146.3903
121.1295,146.4349
121.1400,146.4875
121.1400,148.2125
121.1295,148.2651
121.0997,148.3097
121.0551,148.3395
121.0025,148.3500
Z" /> 
<path style="fill:#000000; fill-opacity:1.0000; stroke:none;fill-rule:evenodd;"
d="M 119.4575,148.3500
119.4049,148.3395
119.3603,148.3097
119.3305,148.2651
119.3200,148.2125
119.3200,146.4875
119.3305,146.4349
119.3603,146.3903
119.4049,146.3605
119.4575,146.3500
119.7325,146.3500
119.7851,146.3605
119.8297,146.3903
119.8595,146.4349
119.8700,146.4875
119.8700,148.2125
119.8595,148.2651
119.8297,148.3097
119.7851,148.3395
119.7325,148.3500
Z" /> 
<path style="fill:#000000; fill-opacity:1.0000; stroke:none;fill-rule:evenodd;"
d="M 118.1875,148.3500
118.1349,148.3395
118.0903,148.3097
118.0605,148.2651
118.0500,148.2125
118.0500,146.4875
118.0605,146.4349
118.0903,146.3903
118.1349,146.3605
118.1875,146.3500
118.4625,146.3500
118.5151,146.3605
118.5597,146.3903
118.5895,146.4349
118.6000,146.4875
118.6000,148.2125
118.5895,148.2651
118.5597,148.3097
118.5151,148.3395
118.4625,148.3500
Z" /> 
<path style="fill:#000000; fill-opacity:1.0000; stroke:none;fill-rule:evenodd;"
d="M 116.9175,148.3500
116.8649,148.3395
116.8203,148.3097
116.7905,148.2651
116.7800,148.2125
116.7800,146.4875
116.7905,146.4349
116.8203,146.3903
116.8649,146.3605
116.9175,146.3500
117.1925,146.3500
117.2451,146.3605
117.2897,146.3903
117.3195,146.4349
117.3300,146.4875
117.3300,148.2125
117.3195,148.2651
117.2897,148.3097
117.2451,148.3395
117.1925,148.3500
Z" /> 
<path style="fill:#000000; fill-opacity:1.0000; stroke:none;fill-rule:evenodd;"
d="M 115.6475,148.3500
115.5949,148.3395
115.5503,148.3097
115.5205,148.2651
115.5100,148.2125
115.5100,146.4875
115.5205,146.4349
115.5503,146.3903
115.5949,146.3605
115.6475,146.3500
115.9225,146.3500
115.9751,146.3605
116.0197,146.3903
116.0495,146.4349
116.0600,146.4875
116.0600,148.2125
116.0495,148.2651
116.0197,148.3097
115.9751,148.3395
115.9225,148.3500
Z" /> 
<path style="fill:#000000; fill-opacity:1.0000; stroke:none;fill-rule:evenodd;"
d="M 114.3775,148.3500
114.3249,148.3395
114.2803,148.3097
114.2505,148.2651
114.2400,148.2125
114.2400,146.4875
114.2505,146.4349
114.2803,146.3903
114.3249,146.3605
114.3775,146.3500
114.6525,146.3500
114.7051,146.3605
114.7497,146.3903
114.7795,146.4349
114.7900,146.4875
114.7900,148.2125
114.7795,148.2651
114.7497,148.3097
114.7051,148.3395
114.6525,148.3500
Z" /> 
<path style="fill:#000000; fill-opacity:1.0000; stroke:none;fill-rule:evenodd;"
d="M 81.4000,145.2375
81.3819,145.3284
81.3304,145.4054
81.2534,145.4569
81.1625,145.4750
80.5625,145.4750
80.4716,145.4569
80.3946,145.4054
80.3431,145.3284
80.3250,145.2375
80.3250,144.7625
80.3431,144.6716
80.3946,144.5946
80.4716,144.5431
80.5625,144.5250
81.1625,144.5250
81.2534,144.5431
81.3304,144.5946
81.3819,144.6716
81.4000,144.7625
Z" /> 
<path style="fill:#000000; fill-opacity:1.0000; stroke:none;fill-rule:evenodd;"
d="M 79.6750,145.2375
79.6569,145.3284
79.6054,145.4054
79.5284,145.4569
79.4375,145.4750
78.8375,145.4750
78.7466,145.4569
78.6696,145.4054
78.6181,145.3284
78.6000,145.2375
78.6000,144.7625
78.6181,144.6716
78.6696,144.5946
78.7466,144.5431
78.8375,144.5250
79.4375,144.5250
79.5284,144.5431
79.6054,144.5946
79.6569,144.6716
79.6750,144.7625
Z" /> 
<path style="fill:#000000; fill-opacity:1.0000; stroke:none;fill-rule:evenodd;"
d="M 99.6000,148.0000
99.6190,147.9043
99.6732,147.8232
99.7543,147.7690
99.8500,147.7500
101.1500,147.7500
101.2457,147.7690
101.3268,147.8232
101.3810,147.9043
101.4000,148.0000
101.4000,149.5000
101.3810,149.5957
101.3268,149.6768
101.2457,149.7310
101.1500,149.7500
99.8500,149.7500
99.7543,149.7310
99.6732,149.6768
99.6190,149.5957
99.6000,149.5000
Z" /> 
<path style="fill:#000000; fill-opacity:1.0000; stroke:none;fill-rule:evenodd;"
d="M 104.6800,148.0000
104.6990,147.9043
104.7532,147.8232
104.8343,147.7690
104.9300,147.7500
106.2300,147.7500
106.3257,147.7690
106.4068,147.8232
106.4610,147.9043
106.4800,148.0000
106.4800,149.5000
106.4610,149.5957
106.4068,149.6768
106.3257,149.7310
106.2300,149.7500
104.9300,149.7500
104.8343,149.7310
104.7532,149.6768
104.6990,149.5957
104.6800,149.5000
Z" /> 
<path style="fill:#000000; fill-opacity:1.0000; stroke:none;fill-rule:evenodd;"
d="M 104.6800,144.0000
104.6990,143.9043
104.7532,143.8232
104.8343,143.7690
104.9300,143.7500
106.2300,143.7500
106.3257,143.7690
106.4068,143.8232
106.4610,143.9043
106.4800,144.0000
106.4800,145.5000
106.4610,145.5957
106.4068,145.6768
106.3257,145.7310
106.2300,145.7500
104.9300,145.7500
104.8343,145.7310
104.7532,145.6768
104.6990,145.5957
104.6800,145.5000
Z" /> 
<path style="fill:#000000; fill-opacity:1.0000; stroke:none;fill-rule:evenodd;"
d="M 99.6000,144.0000
99.6190,143.9043
99.6732,143.8232
99.7543,143.7690
99.8500,143.7500
101.1500,143.7500
101.2457,143.7690
101.3268,143.8232
101.3810,143.9043
101.4000,144.0000
101.4000,145.5000
101.3810,145.5957
101.3268,145.6768
101.2457,145.7310
101.1500,145.7500
99.8500,145.7500
99.7543,145.7310
99.6732,145.6768
99.6190,145.5957
99.6000,145.5000
Z" /> 
<path style="fill:#000000; fill-opacity:1.0000; stroke:none;fill-rule:evenodd;"
d="M 149.2674,147.1306
149.2855,147.0397
149.3370,146.9627
149.4140,146.9112
149.5049,146.8931
150.0799,146.8931
150.1708,146.9112
150.2478,146.9627
150.2993,147.0397
150.3174,147.1306
150.3174,147.6056
150.2993,147.6965
150.2478,147.7735
150.1708,147.8250
150.0799,147.8431
149.5049,147.8431
149.4140,147.8250
149.3370,147.7735
149.2855,147.6965
149.2674,147.6056
Z" /> 
<path style="fill:#000000; fill-opacity:1.0000; stroke:none;fill-rule:evenodd;"
d="M 151.0174,147.1306
151.0355,147.0397
151.0870,146.9627
151.1640,146.9112
151.2549,146.8931
151.8299,146.8931
151.9208,146.9112
151.9978,146.9627
152.0493,147.0397
152.0674,147.1306
152.0674,147.6056
152.0493,147.6965
151.9978,147.7735
151.9208,147.8250
151.8299,147.8431
151.2549,147.8431
151.1640,147.8250
151.0870,147.7735
151.0355,147.6965
151.0174,147.6056
Z" /> 
<path style="fill:#000000; fill-opacity:1.0000; stroke:none;fill-rule:evenodd;"
d="M 114.4050,144.0500
114.3476,144.0386
114.2989,144.0061
114.2664,143.9574
114.2550,143.9000
114.2550,142.6000
114.2664,142.5426
114.2989,142.4939
114.3476,142.4614
114.4050,142.4500
114.7050,142.4500
114.7624,142.4614
114.8111,142.4939
114.8436,142.5426
114.8550,142.6000
114.8550,143.9000
114.8436,143.9574
114.8111,144.0061
114.7624,144.0386
114.7050,144.0500
Z" /> 
<path style="fill:#000000; fill-opacity:1.0000; stroke:none;fill-rule:evenodd;"
d="M 115.6750,144.0500
115.6176,144.0386
115.5689,144.0061
115.5364,143.9574
115.5250,143.9000
115.5250,142.6000
115.5364,142.5426
115.5689,142.4939
115.6176,142.4614
115.6750,142.4500
115.9750,142.4500
116.0324,142.4614
116.0811,142.4939
116.1136,142.5426
116.1250,142.6000
116.1250,143.9000
116.1136,143.9574
116.0811,144.0061
116.0324,144.0386
115.9750,144.0500
Z" /> 
<path style="fill:#000000; fill-opacity:1.0000; stroke:none;fill-rule:evenodd;"
d="M 116.9450,144.0500
116.8876,144.0386
116.8389,144.0061
116.8064,143.9574
116.7950,143.9000
116.7950,142.6000
116.8064,142.5426
116.8389,142.4939
116.8876,142.4614
116.9450,142.4500
117.2450,142.4500
117.3024,142.4614
117.3511,142.4939
117.3836,142.5426
117.3950,142.6000
117.3950,143.9000
117.3836,143.9574
117.3511,144.0061
117.3024,144.0386
117.2450,144.0500
Z" /> 
<path style="fill:#000000; fill-opacity:1.0000; stroke:none;fill-rule:evenodd;"
d="M 118.2150,144.0500
118.1576,144.0386
118.1089,144.0061
118.0764,143.9574
118.0650,143.9000
118.0650,142.6000
118.0764,142.5426
118.1089,142.4939
118.1576,142.4614
118.2150,142.4500
118.5150,142.4500
118.5724,142.4614
118.6211,142.4939
118.6536,142.5426
118.6650,142.6000
118.6650,143.9000
118.6536,143.9574
118.6211,144.0061
118.5724,144.0386
118.5150,144.0500
Z" /> 
<path style="fill:#000000; fill-opacity:1.0000; stroke:none;fill-rule:evenodd;"
d="M 119.4850,144.0500
119.4276,144.0386
119.3789,144.0061
119.3464,143.9574
119.3350,143.9000
119.3350,142.6000
119.3464,142.5426
119.3789,142.4939
119.4276,142.4614
119.4850,142.4500
119.7850,142.4500
119.8424,142.4614
119.8911,142.4939
119.9236,142.5426
119.9350,142.6000
119.9350,143.9000
119.9236,143.9574
119.8911,144.0061
119.8424,144.0386
119.7850,144.0500
Z" /> 
<path style="fill:#000000; fill-opacity:1.0000; stroke:none;fill-rule:evenodd;"
d="M 120.7550,144.0500
120.6976,144.0386
120.6489,144.0061
120.6164,143.9574
120.6050,143.9000
120.6050,142.6000
120.6164,142.5426
120.6489,142.4939
120.6976,142.4614
120.7550,142.4500
121.0550,142.4500
121.1124,142.4614
121.1611,142.4939
121.1936,142.5426
121.2050,142.6000
121.2050,143.9000
121.1936,143.9574
121.1611,144.0061
121.1124,144.0386
121.0550,144.0500
Z" /> 
<path style="fill:#000000; fill-opacity:1.0000; stroke:none;fill-rule:evenodd;"
d="M 122.0250,144.0500
121.9676,144.0386
121.9189,144.0061
121.8864,143.9574
121.8750,143.9000
121.8750,142.6000
121.8864,142.5426
121.9189,142.4939
121.9676,142.4614
122.0250,142.4500
122.3250,142.4500
122.3824,142.4614
122.4311,142.4939
122.4636,142.5426
122.4750,142.6000
122.4750,143.9000
122.4636,143.9574
122.4311,144.0061
122.3824,144.0386
122.3250,144.0500
Z" /> 
<path style="fill:#000000; fill-opacity:1.0000; stroke:none;fill-rule:evenodd;"
d="M 123.2950,144.0500
123.2376,144.0386
123.1889,144.0061
123.1564,143.9574
123.1450,143.9000
123.1450,142.6000
123.1564,142.5426
123.1889,142.4939
123.2376,142.4614
123.2950,142.4500
123.5950,142.4500
123.6524,142.4614
123.7011,142.4939
123.7336,142.5426
123.7450,142.6000
123.7450,143.9000
123.7336,143.9574
123.7011,144.0061
123.6524,144.0386
123.5950,144.0500
Z" /> 
<path style="fill:#000000; fill-opacity:1.0000; stroke:none;fill-rule:evenodd;"
d="M 123.2950,137.5500
123.2376,137.5386
123.1889,137.5061
123.1564,137.4574
123.1450,137.4000
123.1450,136.1000
123.1564,136.0426
123.1889,135.9939
123.2376,135.9614
123.2950,135.9500
123.5950,135.9500
123.6524,135.9614
123.7011,135.9939
123.7336,136.0426
123.7450,136.1000
123.7450,137.4000
123.7336,137.4574
123.7011,137.5061
123.6524,137.5386
123.5950,137.5500
Z" /> 
<path style="fill:#000000; fill-opacity:1.0000; stroke:none;fill-rule:evenodd;"
d="M 122.0250,137.5500
121.9676,137.5386
121.9189,137.5061
121.8864,137.4574
121.8750,137.4000
121.8750,136.1000
121.8864,136.0426
121.9189,135.9939
121.9676,135.9614
122.0250,135.9500
122.3250,135.9500
122.3824,135.9614
122.4311,135.9939
122.4636,136.0426
122.4750,136.1000
122.4750,137.4000
122.4636,137.4574
122.4311,137.5061
122.3824,137.5386
122.3250,137.5500
Z" /> 
<path style="fill:#000000; fill-opacity:1.0000; stroke:none;fill-rule:evenodd;"
d="M 120.7550,137.5500
120.6976,137.5386
120.6489,137.5061
120.6164,137.4574
120.6050,137.4000
120.6050,136.1000
120.6164,136.0426
120.6489,135.9939
120.6976,135.9614
120.7550,135.9500
121.0550,135.9500
121.1124,135.9614
121.1611,135.9939
121.1936,136.0426
121.2050,136.1000
121.2050,137.4000
121.1936,137.4574
121.1611,137.5061
121.1124,137.5386
121.0550,137.5500
Z" /> 
<path style="fill:#000000; fill-opacity:1.0000; stroke:none;fill-rule:evenodd;"
d="M 119.4850,137.5500
119.4276,137.5386
119.3789,137.5061
119.3464,137.4574
119.3350,137.4000
119.3350,136.1000
119.3464,136.0426
119.3789,135.9939
119.4276,135.9614
119.4850,135.9500
119.7850,135.9500
119.8424,135.9614
119.8911,135.9939
119.9236,136.0426
119.9350,136.1000
119.9350,137.4000
119.9236,137.4574
119.8911,137.5061
119.8424,137.5386
119.7850,137.5500
Z" /> 
<path style="fill:#000000; fill-opacity:1.0000; stroke:none;fill-rule:evenodd;"
d="M 118.2150,137.5500
118.1576,137.5386
118.1089,137.5061
118.0764,137.4574
118.0650,137.4000
118.0650,136.1000
118.0764,136.0426
118.1089,135.9939
118.1576,135.9614
118.2150,135.9500
118.5150,135.9500
118.5724,135.9614
118.6211,135.9939
118.6536,136.0426
118.6650,136.1000
118.6650,137.4000
118.6536,137.4574
118.6211,137.5061
118.5724,137.5386
118.5150,137.5500
Z" /> 
<path style="fill:#000000; fill-opacity:1.0000; stroke:none;fill-rule:evenodd;"
d="M 116.9450,137.5500
116.8876,137.5386
116.8389,137.5061
116.8064,137.4574
116.7950,137.4000
116.7950,136.1000
116.8064,136.0426
116.8389,135.9939
116.8876,135.9614
116.9450,135.9500
117.2450,135.9500
117.3024,135.9614
117.3511,135.9939
117.3836,136.0426
117.3950,136.1000
117.3950,137.4000
117.3836,137.4574
117.3511,137.5061
117.3024,137.5386
117.2450,137.5500
Z" /> 
<path style="fill:#000000; fill-opacity:1.0000; stroke:none;fill-rule:evenodd;"
d="M 115.6750,137.5500
115.6176,137.5386
115.5689,137.5061
115.5364,137.4574
115.5250,137.4000
115.5250,136.1000
115.5364,136.0426
115.5689,135.9939
115.6176,135.9614
115.6750,135.9500
115.9750,135.9500
116.0324,135.9614
116.0811,135.9939
116.1136,136.0426
116.1250,136.1000
116.1250,137.4000
116.1136,137.4574
116.0811,137.5061
116.0324,137.5386
115.9750,137.5500
Z" /> 
<path style="fill:#000000; fill-opacity:1.0000; stroke:none;fill-rule:evenodd;"
d="M 114.4050,137.5500
114.3476,137.5386
114.2989,137.5061
114.2664,137.4574
114.2550,137.4000
114.2550,136.1000
114.2664,136.0426
114.2989,135.9939
114.3476,135.9614
114.4050,135.9500
114.7050,135.9500
114.7624,135.9614
114.8111,135.9939
114.8436,136.0426
114.8550,136.1000
114.8550,137.4000
114.8436,137.4574
114.8111,137.5061
114.7624,137.5386
114.7050,137.5500
Z" /> 
<path style="fill:#000000; fill-opacity:1.0000; stroke:none;fill-rule:evenodd;"
d="M 132.7674,147.1306
132.7855,147.0397
132.8370,146.9627
132.9140,146.9112
133.0049,146.8931
133.6049,146.8931
133.6958,146.9112
133.7728,146.9627
133.8243,147.0397
133.8424,147.1306
133.8424,147.6056
133.8243,147.6965
133.7728,147.7735
133.6958,147.8250
133.6049,147.8431
133.0049,147.8431
132.9140,147.8250
132.8370,147.7735
132.7855,147.6965
132.7674,147.6056
Z" /> 
<path style="fill:#000000; fill-opacity:1.0000; stroke:none;fill-rule:evenodd;"
d="M 134.4924,147.1306
134.5105,147.0397
134.5620,146.9627
134.6390,146.9112
134.7299,146.8931
135.3299,146.8931
135.4208,146.9112
135.4978,146.9627
135.5493,147.0397
135.5674,147.1306
135.5674,147.6056
135.5493,147.6965
135.4978,147.7735
135.4208,147.8250
135.3299,147.8431
134.7299,147.8431
134.6390,147.8250
134.5620,147.7735
134.5105,147.6965
134.4924,147.6056
Z" /> 
<path style="fill:#000000; fill-opacity:1.0000; stroke:none;fill-rule:evenodd;"
d="M 75.7125,156.2575
75.6944,156.3484
75.6429,156.4254
75.5659,156.4769
75.4750,156.4950
74.9750,156.4950
74.8841,156.4769
74.8071,156.4254
74.7556,156.3484
74.7375,156.2575
74.7375,155.7825
74.7556,155.6916
74.8071,155.6146
74.8841,155.5631
74.9750,155.5450
75.4750,155.5450
75.5659,155.5631
75.6429,155.6146
75.6944,155.6916
75.7125,155.7825
Z" /> 
<path style="fill:#000000; fill-opacity:1.0000; stroke:none;fill-rule:evenodd;"
d="M 73.8875,156.2575
73.8694,156.3484
73.8179,156.4254
73.7409,156.4769
73.6500,156.4950
73.1500,156.4950
73.0591,156.4769
72.9821,156.4254
72.9306,156.3484
72.9125,156.2575
72.9125,155.7825
72.9306,155.6916
72.9821,155.6146
73.0591,155.5631
73.1500,155.5450
73.6500,155.5450
73.7409,155.5631
73.8179,155.6146
73.8694,155.6916
73.8875,155.7825
Z" /> 
<path style="fill:#000000; fill-opacity:1.0000; stroke:none;fill-rule:evenodd;"
d="M 125.2375,117.1000
125.3284,117.1181
125.4054,117.1696
125.4569,117.2466
125.4750,117.3375
125.4750,117.9375
125.4569,118.0284
125.4054,118.1054
125.3284,118.1569
125.2375,118.1750
124.7625,118.1750
124.6716,118.1569
124.5946,118.1054
124.5431,118.0284
124.5250,117.9375
124.5250,117.3375
124.5431,117.2466
124.5946,117.1696
124.6716,117.1181
124.7625,117.1000
Z" /> 
<path style="fill:#000000; fill-opacity:1.0000; stroke:none;fill-rule:evenodd;"
d="M 125.2375,118.8250
125.3284,118.8431
125.4054,118.8946
125.4569,118.9716
125.4750,119.0625
125.4750,119.6625
125.4569,119.7534
125.4054,119.8304
125.3284,119.8819
125.2375,119.9000
124.7625,119.9000
124.6716,119.8819
124.5946,119.8304
124.5431,119.7534
124.5250,119.6625
124.5250,119.0625
124.5431,118.9716
124.5946,118.8946
124.6716,118.8431
124.7625,118.8250
Z" /> 
<path style="fill:#000000; fill-opacity:1.0000; stroke:none;fill-rule:evenodd;"
d="M 137.2375,119.8500
137.3284,119.8681
137.4054,119.9196
137.4569,119.9966
137.4750,120.0875
137.4750,120.5875
137.4569,120.6784
137.4054,120.7554
137.3284,120.8069
137.2375,120.8250
136.7625,120.8250
136.6716,120.8069
136.5946,120.7554
136.5431,120.6784
136.5250,120.5875
136.5250,120.0875
136.5431,119.9966
136.5946,119.9196
136.6716,119.8681
136.7625,119.8500
Z" /> 
<path style="fill:#000000; fill-opacity:1.0000; stroke:none;fill-rule:evenodd;"
d="M 137.2375,121.6750
137.3284,121.6931
137.4054,121.7446
137.4569,121.8216
137.4750,121.9125
137.4750,122.4125
137.4569,122.5034
137.4054,122.5804
137.3284,122.6319
137.2375,122.6500
136.7625,122.6500
136.6716,122.6319
136.5946,122.5804
136.5431,122.5034
136.5250,122.4125
136.5250,121.9125
136.5431,121.8216
136.5946,121.7446
136.6716,121.6931
136.7625,121.6750
Z" /> 
<path style="fill:#000000; fill-opacity:1.0000; stroke:none;fill-rule:evenodd;"
d="M 120.2625,119.9000
120.1716,119.8819
120.0946,119.8304
120.0431,119.7534
120.0250,119.6625
120.0250,119.0625
120.0431,118.9716
120.0946,118.8946
120.1716,118.8431
120.2625,118.8250
120.7375,118.8250
120.8284,118.8431
120.9054,118.8946
120.9569,118.9716
120.9750,119.0625
120.9750,119.6625
120.9569,119.7534
120.9054,119.8304
120.8284,119.8819
120.7375,119.9000
Z" /> 
<path style="fill:#000000; fill-opacity:1.0000; stroke:none;fill-rule:evenodd;"
d="M 120.2625,118.1750
120.1716,118.1569
120.0946,118.1054
120.0431,118.0284
120.0250,117.9375
120.0250,117.3375
120.0431,117.2466
120.0946,117.1696
120.1716,117.1181
120.2625,117.1000
120.7375,117.1000
120.8284,117.1181
120.9054,117.1696
120.9569,117.2466
120.9750,117.3375
120.9750,117.9375
120.9569,118.0284
120.9054,118.1054
120.8284,118.1569
120.7375,118.1750
Z" /> 
<path style="fill:#000000; fill-opacity:1.0000; stroke:none;fill-rule:evenodd;"
d="M 75.7125,153.7475
75.6944,153.8384
75.6429,153.9154
75.5659,153.9669
75.4750,153.9850
74.9750,153.9850
74.8841,153.9669
74.8071,153.9154
74.7556,153.8384
74.7375,153.7475
74.7375,153.2725
74.7556,153.1816
74.8071,153.1046
74.8841,153.0531
74.9750,153.0350
75.4750,153.0350
75.5659,153.0531
75.6429,153.1046
75.6944,153.1816
75.7125,153.2725
Z" /> 
<path style="fill:#000000; fill-opacity:1.0000; stroke:none;fill-rule:evenodd;"
d="M 73.8875,153.7475
73.8694,153.8384
73.8179,153.9154
73.7409,153.9669
73.6500,153.9850
73.1500,153.9850
73.0591,153.9669
72.9821,153.9154
72.9306,153.8384
72.9125,153.7475
72.9125,153.2725
72.9306,153.1816
72.9821,153.1046
73.0591,153.0531
73.1500,153.0350
73.6500,153.0350
73.7409,153.0531
73.8179,153.1046
73.8694,153.1816
73.8875,153.2725
Z" /> 
<path style="fill:#000000; fill-opacity:1.0000; stroke:none;fill-rule:evenodd;"
d="M 116.2375,117.7375
116.2194,117.8284
116.1679,117.9054
116.0909,117.9569
116.0000,117.9750
115.5000,117.9750
115.4091,117.9569
115.3321,117.9054
115.2806,117.8284
115.2625,117.7375
115.2625,117.2625
115.2806,117.1716
115.3321,117.0946
115.4091,117.0431
115.5000,117.0250
116.0000,117.0250
116.0909,117.0431
116.1679,117.0946
116.2194,117.1716
116.2375,117.2625
Z" /> 
<path style="fill:#000000; fill-opacity:1.0000; stroke:none;fill-rule:evenodd;"
d="M 114.4125,117.7375
114.3944,117.8284
114.3429,117.9054
114.2659,117.9569
114.1750,117.9750
113.6750,117.9750
113.5841,117.9569
113.5071,117.9054
113.4556,117.8284
113.4375,117.7375
113.4375,117.2625
113.4556,117.1716
113.5071,117.0946
113.5841,117.0431
113.6750,117.0250
114.1750,117.0250
114.2659,117.0431
114.3429,117.0946
114.3944,117.1716
114.4125,117.2625
Z" /> 
<path style="fill:#000000; fill-opacity:1.0000; stroke:none;fill-rule:evenodd;"
d="M 142.0125,122.4000
141.9216,122.3819
141.8446,122.3304
141.7931,122.2534
141.7750,122.1625
141.7750,121.5625
141.7931,121.4716
141.8446,121.3946
141.9216,121.3431
142.0125,121.3250
142.4875,121.3250
142.5784,121.3431
142.6554,121.3946
142.7069,121.4716
142.7250,121.5625
142.7250,122.1625
142.7069,122.2534
142.6554,122.3304
142.5784,122.3819
142.4875,122.4000
Z" /> 
<path style="fill:#000000; fill-opacity:1.0000; stroke:none;fill-rule:evenodd;"
d="M 142.0125,120.6750
141.9216,120.6569
141.8446,120.6054
141.7931,120.5284
141.7750,120.4375
141.7750,119.8375
141.7931,119.7466
141.8446,119.6696
141.9216,119.6181
142.0125,119.6000
142.4875,119.6000
142.5784,119.6181
142.6554,119.6696
142.7069,119.7466
142.7250,119.8375
142.7250,120.4375
142.7069,120.5284
142.6554,120.6054
142.5784,120.6569
142.4875,120.6750
Z" /> 
<path style="fill:#000000; fill-opacity:1.0000; stroke:none;fill-rule:evenodd;"
d="M 122.0125,132.8125
121.9216,132.7944
121.8446,132.7429
121.7931,132.6659
121.7750,132.5750
121.7750,132.0750
121.7931,131.9841
121.8446,131.9071
121.9216,131.8556
122.0125,131.8375
122.4875,131.8375
122.5784,131.8556
122.6554,131.9071
122.7069,131.9841
122.7250,132.0750
122.7250,132.5750
122.7069,132.6659
122.6554,132.7429
122.5784,132.7944
122.4875,132.8125
Z" /> 
<path style="fill:#000000; fill-opacity:1.0000; stroke:none;fill-rule:evenodd;"
d="M 122.0125,130.9875
121.9216,130.9694
121.8446,130.9179
121.7931,130.8409
121.7750,130.7500
121.7750,130.2500
121.7931,130.1591
121.8446,130.0821
121.9216,130.0306
122.0125,130.0125
122.4875,130.0125
122.5784,130.0306
122.6554,130.0821
122.7069,130.1591
122.7250,130.2500
122.7250,130.7500
122.7069,130.8409
122.6554,130.9179
122.5784,130.9694
122.4875,130.9875
Z" /> 
<path style="fill:#000000; fill-opacity:1.0000; stroke:none;fill-rule:evenodd;"
d="M 122.5125,119.9000
122.4216,119.8819
122.3446,119.8304
122.2931,119.7534
122.2750,119.6625
122.2750,119.1625
122.2931,119.0716
122.3446,118.9946
122.4216,118.9431
122.5125,118.9250
122.9875,118.9250
123.0784,118.9431
123.1554,118.9946
123.2069,119.0716
123.2250,119.1625
123.2250,119.6625
123.2069,119.7534
123.1554,119.8304
123.0784,119.8819
122.9875,119.9000
Z" /> 
<path style="fill:#000000; fill-opacity:1.0000; stroke:none;fill-rule:evenodd;"
d="M 122.5125,118.0750
122.4216,118.0569
122.3446,118.0054
122.2931,117.9284
122.2750,117.8375
122.2750,117.3375
122.2931,117.2466
122.3446,117.1696
122.4216,117.1181
122.5125,117.1000
122.9875,117.1000
123.0784,117.1181
123.1554,117.1696
123.2069,117.2466
123.2250,117.3375
123.2250,117.8375
123.2069,117.9284
123.1554,118.0054
123.0784,118.0569
122.9875,118.0750
Z" /> 
<path style="fill:#000000; fill-opacity:1.0000; stroke:none;fill-rule:evenodd;"
d="M 75.7125,148.7275
75.6944,148.8184
75.6429,148.8954
75.5659,148.9469
75.4750,148.9650
74.9750,148.9650
74.8841,148.9469
74.8071,148.8954
74.7556,148.8184
74.7375,148.7275
74.7375,148.2525
74.7556,148.1616
74.8071,148.0846
74.8841,148.0331
74.9750,148.0150
75.4750,148.0150
75.5659,148.0331
75.6429,148.0846
75.6944,148.1616
75.7125,148.2525
Z" /> 
<path style="fill:#000000; fill-opacity:1.0000; stroke:none;fill-rule:evenodd;"
d="M 73.8875,148.7275
73.8694,148.8184
73.8179,148.8954
73.7409,148.9469
73.6500,148.9650
73.1500,148.9650
73.0591,148.9469
72.9821,148.8954
72.9306,148.8184
72.9125,148.7275
72.9125,148.2525
72.9306,148.1616
72.9821,148.0846
73.0591,148.0331
73.1500,148.0150
73.6500,148.0150
73.7409,148.0331
73.8179,148.0846
73.8694,148.1616
73.8875,148.2525
Z" /> 
<path style="fill:#000000; fill-opacity:1.0000; stroke:none;fill-rule:evenodd;"
d="M 75.5375,143.7075
75.5194,143.7984
75.4679,143.8754
75.3909,143.9269
75.3000,143.9450
74.8000,143.9450
74.7091,143.9269
74.6321,143.8754
74.5806,143.7984
74.5625,143.7075
74.5625,143.2325
74.5806,143.1416
74.6321,143.0646
74.7091,143.0131
74.8000,142.9950
75.3000,142.9950
75.3909,143.0131
75.4679,143.0646
75.5194,143.1416
75.5375,143.2325
Z" /> 
<path style="fill:#000000; fill-opacity:1.0000; stroke:none;fill-rule:evenodd;"
d="M 73.7125,143.7075
73.6944,143.7984
73.6429,143.8754
73.5659,143.9269
73.4750,143.9450
72.9750,143.9450
72.8841,143.9269
72.8071,143.8754
72.7556,143.7984
72.7375,143.7075
72.7375,143.2325
72.7556,143.1416
72.8071,143.0646
72.8841,143.0131
72.9750,142.9950
73.4750,142.9950
73.5659,143.0131
73.6429,143.0646
73.6944,143.1416
73.7125,143.2325
Z" /> 
<path style="fill:#000000; fill-opacity:1.0000; stroke:none;fill-rule:evenodd;"
d="M 117.5125,119.9000
117.4216,119.8819
117.3446,119.8304
117.2931,119.7534
117.2750,119.6625
117.2750,119.0625
117.2931,118.9716
117.3446,118.8946
117.4216,118.8431
117.5125,118.8250
117.9875,118.8250
118.0784,118.8431
118.1554,118.8946
118.2069,118.9716
118.2250,119.0625
118.2250,119.6625
118.2069,119.7534
118.1554,119.8304
118.0784,119.8819
117.9875,119.9000
Z" /> 
<path style="fill:#000000; fill-opacity:1.0000; stroke:none;fill-rule:evenodd;"
d="M 117.5125,118.1750
117.4216,118.1569
117.3446,118.1054
117.2931,118.0284
117.2750,117.9375
117.2750,117.3375
117.2931,117.2466
117.3446,117.1696
117.4216,117.1181
117.5125,117.1000
117.9875,117.1000
118.0784,117.1181
118.1554,117.1696
118.2069,117.2466
118.2250,117.3375
118.2250,117.9375
118.2069,118.0284
118.1554,118.1054
118.0784,118.1569
117.9875,118.1750
Z" /> 
<path style="fill:#000000; fill-opacity:1.0000; stroke:none;fill-rule:evenodd;"
d="M 75.5375,146.2975
75.5194,146.3884
75.4679,146.4654
75.3909,146.5169
75.3000,146.5350
74.8000,146.5350
74.7091,146.5169
74.6321,146.4654
74.5806,146.3884
74.5625,146.2975
74.5625,145.8225
74.5806,145.7316
74.6321,145.6546
74.7091,145.6031
74.8000,145.5850
75.3000,145.5850
75.3909,145.6031
75.4679,145.6546
75.5194,145.7316
75.5375,145.8225
Z" /> 
<path style="fill:#000000; fill-opacity:1.0000; stroke:none;fill-rule:evenodd;"
d="M 73.7125,146.2975
73.6944,146.3884
73.6429,146.4654
73.5659,146.5169
73.4750,146.5350
72.9750,146.5350
72.8841,146.5169
72.8071,146.4654
72.7556,146.3884
72.7375,146.2975
72.7375,145.8225
72.7556,145.7316
72.8071,145.6546
72.8841,145.6031
72.9750,145.5850
73.4750,145.5850
73.5659,145.6031
73.6429,145.6546
73.6944,145.7316
73.7125,145.8225
Z" /> 
<path style="fill:#000000; fill-opacity:1.0000; stroke:none;fill-rule:evenodd;"
d="M 115.1775,128.9500
115.1201,128.9386
115.0714,128.9061
115.0389,128.8574
115.0275,128.8000
115.0275,127.1500
115.0389,127.0926
115.0714,127.0439
115.1201,127.0114
115.1775,127.0000
115.4775,127.0000
115.5349,127.0114
115.5836,127.0439
115.6161,127.0926
115.6275,127.1500
115.6275,128.8000
115.6161,128.8574
115.5836,128.9061
115.5349,128.9386
115.4775,128.9500
Z" /> 
<path style="fill:#000000; fill-opacity:1.0000; stroke:none;fill-rule:evenodd;"
d="M 116.4475,128.9500
116.3901,128.9386
116.3414,128.9061
116.3089,128.8574
116.2975,128.8000
116.2975,127.1500
116.3089,127.0926
116.3414,127.0439
116.3901,127.0114
116.4475,127.0000
116.7475,127.0000
116.8049,127.0114
116.8536,127.0439
116.8861,127.0926
116.8975,127.1500
116.8975,128.8000
116.8861,128.8574
116.8536,128.9061
116.8049,128.9386
116.7475,128.9500
Z" /> 
<path style="fill:#000000; fill-opacity:1.0000; stroke:none;fill-rule:evenodd;"
d="M 117.7175,128.9500
117.6601,128.9386
117.6114,128.9061
117.5789,128.8574
117.5675,128.8000
117.5675,127.1500
117.5789,127.0926
117.6114,127.0439
117.6601,127.0114
117.7175,127.0000
118.0175,127.0000
118.0749,127.0114
118.1236,127.0439
118.1561,127.0926
118.1675,127.1500
118.1675,128.8000
118.1561,128.8574
118.1236,128.9061
118.0749,128.9386
118.0175,128.9500
Z" /> 
<path style="fill:#000000; fill-opacity:1.0000; stroke:none;fill-rule:evenodd;"
d="M 118.9875,128.9500
118.9301,128.9386
118.8814,128.9061
118.8489,128.8574
118.8375,128.8000
118.8375,127.1500
118.8489,127.0926
118.8814,127.0439
118.9301,127.0114
118.9875,127.0000
119.2875,127.0000
119.3449,127.0114
119.3936,127.0439
119.4261,127.0926
119.4375,127.1500
119.4375,128.8000
119.4261,128.8574
119.3936,128.9061
119.3449,128.9386
119.2875,128.9500
Z" /> 
<path style="fill:#000000; fill-opacity:1.0000; stroke:none;fill-rule:evenodd;"
d="M 120.2575,128.9500
120.2001,128.9386
120.1514,128.9061
120.1189,128.8574
120.1075,128.8000
120.1075,127.1500
120.1189,127.0926
120.1514,127.0439
120.2001,127.0114
120.2575,127.0000
120.5575,127.0000
120.6149,127.0114
120.6636,127.0439
120.6961,127.0926
120.7075,127.1500
120.7075,128.8000
120.6961,128.8574
120.6636,128.9061
120.6149,128.9386
120.5575,128.9500
Z" /> 
<path style="fill:#000000; fill-opacity:1.0000; stroke:none;fill-rule:evenodd;"
d="M 121.5275,128.9500
121.4701,128.9386
121.4214,128.9061
121.3889,128.8574
121.3775,128.8000
121.3775,127.1500
121.3889,127.0926
121.4214,127.0439
121.4701,127.0114
121.5275,127.0000
121.8275,127.0000
121.8849,127.0114
121.9336,127.0439
121.9661,127.0926
121.9775,127.1500
121.9775,128.8000
121.9661,128.8574
121.9336,128.9061
121.8849,128.9386
121.8275,128.9500
Z" /> 
<path style="fill:#000000; fill-opacity:1.0000; stroke:none;fill-rule:evenodd;"
d="M 122.7975,128.9500
122.7401,128.9386
122.6914,128.9061
122.6589,128.8574
122.6475,128.8000
122.6475,127.1500
122.6589,127.0926
122.6914,127.0439
122.7401,127.0114
122.7975,127.0000
123.0975,127.0000
123.1549,127.0114
123.2036,127.0439
123.2361,127.0926
123.2475,127.1500
123.2475,128.8000
123.2361,128.8574
123.2036,128.9061
123.1549,128.9386
123.0975,128.9500
Z" /> 
<path style="fill:#000000; fill-opacity:1.0000; stroke:none;fill-rule:evenodd;"
d="M 122.7975,124.0000
122.7401,123.9886
122.6914,123.9561
122.6589,123.9074
122.6475,123.8500
122.6475,122.2000
122.6589,122.1426
122.6914,122.0939
122.7401,122.0614
122.7975,122.0500
123.0975,122.0500
123.1549,122.0614
123.2036,122.0939
123.2361,122.1426
123.2475,122.2000
123.2475,123.8500
123.2361,123.9074
123.2036,123.9561
123.1549,123.9886
123.0975,124.0000
Z" /> 
<path style="fill:#000000; fill-opacity:1.0000; stroke:none;fill-rule:evenodd;"
d="M 121.5275,124.0000
121.4701,123.9886
121.4214,123.9561
121.3889,123.9074
121.3775,123.8500
121.3775,122.2000
121.3889,122.1426
121.4214,122.0939
121.4701,122.0614
121.5275,122.0500
121.8275,122.0500
121.8849,122.0614
121.9336,122.0939
121.9661,122.1426
121.9775,122.2000
121.9775,123.8500
121.9661,123.9074
121.9336,123.9561
121.8849,123.9886
121.8275,124.0000
Z" /> 
<path style="fill:#000000; fill-opacity:1.0000; stroke:none;fill-rule:evenodd;"
d="M 120.2575,124.0000
120.2001,123.9886
120.1514,123.9561
120.1189,123.9074
120.1075,123.8500
120.1075,122.2000
120.1189,122.1426
120.1514,122.0939
120.2001,122.0614
120.2575,122.0500
120.5575,122.0500
120.6149,122.0614
120.6636,122.0939
120.6961,122.1426
120.7075,122.2000
120.7075,123.8500
120.6961,123.9074
120.6636,123.9561
120.6149,123.9886
120.5575,124.0000
Z" /> 
<path style="fill:#000000; fill-opacity:1.0000; stroke:none;fill-rule:evenodd;"
d="M 118.9875,124.0000
118.9301,123.9886
118.8814,123.9561
118.8489,123.9074
118.8375,123.8500
118.8375,122.2000
118.8489,122.1426
118.8814,122.0939
118.9301,122.0614
118.9875,122.0500
119.2875,122.0500
119.3449,122.0614
119.3936,122.0939
119.4261,122.1426
119.4375,122.2000
119.4375,123.8500
119.4261,123.9074
119.3936,123.9561
119.3449,123.9886
119.2875,124.0000
Z" /> 
<path style="fill:#000000; fill-opacity:1.0000; stroke:none;fill-rule:evenodd;"
d="M 117.7175,124.0000
117.6601,123.9886
117.6114,123.9561
117.5789,123.9074
117.5675,123.8500
117.5675,122.2000
117.5789,122.1426
117.6114,122.0939
117.6601,122.0614
117.7175,122.0500
118.0175,122.0500
118.0749,122.0614
118.1236,122.0939
118.1561,122.1426
118.1675,122.2000
118.1675,123.8500
118.1561,123.9074
118.1236,123.9561
118.0749,123.9886
118.0175,124.0000
Z" /> 
<path style="fill:#000000; fill-opacity:1.0000; stroke:none;fill-rule:evenodd;"
d="M 116.4475,124.0000
116.3901,123.9886
116.3414,123.9561
116.3089,123.9074
116.2975,123.8500
116.2975,122.2000
116.3089,122.1426
116.3414,122.0939
116.3901,122.0614
116.4475,122.0500
116.7475,122.0500
116.8049,122.0614
116.8536,122.0939
116.8861,122.1426
116.8975,122.2000
116.8975,123.8500
116.8861,123.9074
116.8536,123.9561
116.8049,123.9886
116.7475,124.0000
Z" /> 
<path style="fill:#000000; fill-opacity:1.0000; stroke:none;fill-rule:evenodd;"
d="M 115.1775,124.0000
115.1201,123.9886
115.0714,123.9561
115.0389,123.9074
115.0275,123.8500
115.0275,122.2000
115.0389,122.1426
115.0714,122.0939
115.1201,122.0614
115.1775,122.0500
115.4775,122.0500
115.5349,122.0614
115.5836,122.0939
115.6161,122.1426
115.6275,122.2000
115.6275,123.8500
115.6161,123.9074
115.5836,123.9561
115.5349,123.9886
115.4775,124.0000
Z" /> 
<path style="fill:#000000; fill-opacity:1.0000; stroke:none;fill-rule:evenodd;"
d="M 131.7271,118.2875
131.6362,118.2694
131.5592,118.2179
131.5077,118.1409
131.4896,118.0500
131.4896,117.4500
131.5077,117.3591
131.5592,117.2821
131.6362,117.2306
131.7271,117.2125
132.2021,117.2125
132.2930,117.2306
132.3700,117.2821
132.4215,117.3591
132.4396,117.4500
132.4396,118.0500
132.4215,118.1409
132.3700,118.2179
132.2930,118.2694
132.2021,118.2875
Z" /> 
<path style="fill:#000000; fill-opacity:1.0000; stroke:none;fill-rule:evenodd;"
d="M 131.7271,116.5625
131.6362,116.5444
131.5592,116.4929
131.5077,116.4159
131.4896,116.3250
131.4896,115.7250
131.5077,115.6341
131.5592,115.5571
131.6362,115.5056
131.7271,115.4875
132.2021,115.4875
132.2930,115.5056
132.3700,115.5571
132.4215,115.6341
132.4396,115.7250
132.4396,116.3250
132.4215,116.4159
132.3700,116.4929
132.2930,116.5444
132.2021,116.5625
Z" /> 
<path style="fill:#000000; fill-opacity:1.0000; stroke:none;fill-rule:evenodd;"
d="M 143.1174,146.7181
143.1364,146.6224
143.1906,146.5413
143.2717,146.4871
143.3674,146.4681
144.0174,146.4681
144.1131,146.4871
144.1942,146.5413
144.2484,146.6224
144.2674,146.7181
144.2674,148.0181
144.2484,148.1138
144.1942,148.1949
144.1131,148.2491
144.0174,148.2681
143.3674,148.2681
143.2717,148.2491
143.1906,148.1949
143.1364,148.1138
143.1174,148.0181
Z" /> 
<path style="fill:#000000; fill-opacity:1.0000; stroke:none;fill-rule:evenodd;"
d="M 146.0674,146.7181
146.0864,146.6224
146.1406,146.5413
146.2217,146.4871
146.3174,146.4681
146.9674,146.4681
147.0631,146.4871
147.1442,146.5413
147.1984,146.6224
147.2174,146.7181
147.2174,148.0181
147.1984,148.1138
147.1442,148.1949
147.0631,148.2491
146.9674,148.2681
146.3174,148.2681
146.2217,148.2491
146.1406,148.1949
146.0864,148.1138
146.0674,148.0181
Z" /> 
<path style="fill:#000000; fill-opacity:1.0000; stroke:none;fill-rule:evenodd;"
d="M 75.7125,151.2375
75.6944,151.3284
75.6429,151.4054
75.5659,151.4569
75.4750,151.4750
74.9750,151.4750
74.8841,151.4569
74.8071,151.4054
74.7556,151.3284
74.7375,151.2375
74.7375,150.7625
74.7556,150.6716
74.8071,150.5946
74.8841,150.5431
74.9750,150.5250
75.4750,150.5250
75.5659,150.5431
75.6429,150.5946
75.6944,150.6716
75.7125,150.7625
Z" /> 
<path style="fill:#000000; fill-opacity:1.0000; stroke:none;fill-rule:evenodd;"
d="M 73.8875,151.2375
73.8694,151.3284
73.8179,151.4054
73.7409,151.4569
73.6500,151.4750
73.1500,151.4750
73.0591,151.4569
72.9821,151.4054
72.9306,151.3284
72.9125,151.2375
72.9125,150.7625
72.9306,150.6716
72.9821,150.5946
73.0591,150.5431
73.1500,150.5250
73.6500,150.5250
73.7409,150.5431
73.8179,150.5946
73.8694,150.6716
73.8875,150.7625
Z" /> 
<path style="fill:#000000; fill-opacity:1.0000; stroke:none;fill-rule:evenodd;"
d="M 153.6174,146.2181
153.6364,146.1224
153.6906,146.0413
153.7717,145.9871
153.8674,145.9681
154.5174,145.9681
154.6131,145.9871
154.6942,146.0413
154.7484,146.1224
154.7674,146.2181
154.7674,147.5181
154.7484,147.6138
154.6942,147.6949
154.6131,147.7491
154.5174,147.7681
153.8674,147.7681
153.7717,147.7491
153.6906,147.6949
153.6364,147.6138
153.6174,147.5181
Z" /> 
<path style="fill:#000000; fill-opacity:1.0000; stroke:none;fill-rule:evenodd;"
d="M 156.5674,146.2181
156.5864,146.1224
156.6406,146.0413
156.7217,145.9871
156.8174,145.9681
157.4674,145.9681
157.5631,145.9871
157.6442,146.0413
157.6984,146.1224
157.7174,146.2181
157.7174,147.5181
157.6984,147.6138
157.6442,147.6949
157.5631,147.7491
157.4674,147.7681
156.8174,147.7681
156.7217,147.7491
156.6406,147.6949
156.5864,147.6138
156.5674,147.5181
Z" /> 
<path style="fill:#000000; fill-opacity:1.0000; stroke:none;fill-rule:evenodd;"
d="M 142.0021,118.2875
141.9112,118.2694
141.8342,118.2179
141.7827,118.1409
141.7646,118.0500
141.7646,117.4500
141.7827,117.3591
141.8342,117.2821
141.9112,117.2306
142.0021,117.2125
142.4771,117.2125
142.5680,117.2306
142.6450,117.2821
142.6965,117.3591
142.7146,117.4500
142.7146,118.0500
142.6965,118.1409
142.6450,118.2179
142.5680,118.2694
142.4771,118.2875
Z" /> 
<path style="fill:#000000; fill-opacity:1.0000; stroke:none;fill-rule:evenodd;"
d="M 142.0021,116.5625
141.9112,116.5444
141.8342,116.4929
141.7827,116.4159
141.7646,116.3250
141.7646,115.7250
141.7827,115.6341
141.8342,115.5571
141.9112,115.5056
142.0021,115.4875
142.4771,115.4875
142.5680,115.5056
142.6450,115.5571
142.6965,115.6341
142.7146,115.7250
142.7146,116.3250
142.6965,116.4159
142.6450,116.4929
142.5680,116.5444
142.4771,116.5625
Z" /> 
<path style="fill:#000000; fill-opacity:1.0000; stroke:none;fill-rule:evenodd;"
d="M 131.7625,122.4000
131.6716,122.3819
131.5946,122.3304
131.5431,122.2534
131.5250,122.1625
131.5250,121.5625
131.5431,121.4716
131.5946,121.3946
131.6716,121.3431
131.7625,121.3250
132.2375,121.3250
132.3284,121.3431
132.4054,121.3946
132.4569,121.4716
132.4750,121.5625
132.4750,122.1625
132.4569,122.2534
132.4054,122.3304
132.3284,122.3819
132.2375,122.4000
Z" /> 
<path style="fill:#000000; fill-opacity:1.0000; stroke:none;fill-rule:evenodd;"
d="M 131.7625,120.6750
131.6716,120.6569
131.5946,120.6054
131.5431,120.5284
131.5250,120.4375
131.5250,119.8375
131.5431,119.7466
131.5946,119.6696
131.6716,119.6181
131.7625,119.6000
132.2375,119.6000
132.3284,119.6181
132.4054,119.6696
132.4569,119.7466
132.4750,119.8375
132.4750,120.4375
132.4569,120.5284
132.4054,120.6054
132.3284,120.6569
132.2375,120.6750
Z" /> 
<path style="fill:#000000; fill-opacity:1.0000; stroke:none;fill-rule:evenodd;"
d="M 137.2521,115.4875
137.3430,115.5056
137.4200,115.5571
137.4715,115.6341
137.4896,115.7250
137.4896,116.2250
137.4715,116.3159
137.4200,116.3929
137.3430,116.4444
137.2521,116.4625
136.7771,116.4625
136.6862,116.4444
136.6092,116.3929
136.5577,116.3159
136.5396,116.2250
136.5396,115.7250
136.5577,115.6341
136.6092,115.5571
136.6862,115.5056
136.7771,115.4875
Z" /> 
<path style="fill:#000000; fill-opacity:1.0000; stroke:none;fill-rule:evenodd;"
d="M 137.2521,117.3125
137.3430,117.3306
137.4200,117.3821
137.4715,117.4591
137.4896,117.5500
137.4896,118.0500
137.4715,118.1409
137.4200,118.2179
137.3430,118.2694
137.2521,118.2875
136.7771,118.2875
136.6862,118.2694
136.6092,118.2179
136.5577,118.1409
136.5396,118.0500
136.5396,117.5500
136.5577,117.4591
136.6092,117.3821
136.6862,117.3306
136.7771,117.3125
Z" /> 
<path style="fill:#000000; fill-opacity:1.0000; stroke:none;fill-rule:evenodd;"
d="M 99.8500,142.0125
99.8681,141.9216
99.9196,141.8446
99.9966,141.7931
100.0875,141.7750
100.6875,141.7750
100.7784,141.7931
100.8554,141.8446
100.9069,141.9216
100.9250,142.0125
100.9250,142.4875
100.9069,142.5784
100.8554,142.6554
100.7784,142.7069
100.6875,142.7250
100.0875,142.7250
99.9966,142.7069
99.9196,142.6554
99.8681,142.5784
99.8500,142.4875
Z" /> 
<path style="fill:#000000; fill-opacity:1.0000; stroke:none;fill-rule:evenodd;"
d="M 101.5750,142.0125
101.5931,141.9216
101.6446,141.8446
101.7216,141.7931
101.8125,141.7750
102.4125,141.7750
102.5034,141.7931
102.5804,141.8446
102.6319,141.9216
102.6500,142.0125
102.6500,142.4875
102.6319,142.5784
102.5804,142.6554
102.5034,142.7069
102.4125,142.7250
101.8125,142.7250
101.7216,142.7069
101.6446,142.6554
101.5931,142.5784
101.5750,142.4875
Z" /> 
<path style="fill:#000000; fill-opacity:1.0000; stroke:none;fill-rule:evenodd;"
d="M 138.2674,147.1306
138.2855,147.0397
138.3370,146.9627
138.4140,146.9112
138.5049,146.8931
139.1049,146.8931
139.1958,146.9112
139.2728,146.9627
139.3243,147.0397
139.3424,147.1306
139.3424,147.6056
139.3243,147.6965
139.2728,147.7735
139.1958,147.8250
139.1049,147.8431
138.5049,147.8431
138.4140,147.8250
138.3370,147.7735
138.2855,147.6965
138.2674,147.6056
Z" /> 
<path style="fill:#000000; fill-opacity:1.0000; stroke:none;fill-rule:evenodd;"
d="M 139.9924,147.1306
140.0105,147.0397
140.0620,146.9627
140.1390,146.9112
140.2299,146.8931
140.8299,146.8931
140.9208,146.9112
140.9978,146.9627
141.0493,147.0397
141.0674,147.1306
141.0674,147.6056
141.0493,147.6965
140.9978,147.7735
140.9208,147.8250
140.8299,147.8431
140.2299,147.8431
140.1390,147.8250
140.0620,147.7735
140.0105,147.6965
139.9924,147.6056
Z" /> 
<path style="fill:#000000; fill-opacity:1.0000; stroke:none;fill-rule:evenodd;"
d="M 138.1924,142.6056
138.1743,142.6965
138.1228,142.7735
138.0458,142.8250
137.9549,142.8431
137.3799,142.8431
137.2890,142.8250
137.2120,142.7735
137.1605,142.6965
137.1424,142.6056
137.1424,142.1306
137.1605,142.0397
137.2120,141.9627
137.2890,141.9112
137.3799,141.8931
137.9549,141.8931
138.0458,141.9112
138.1228,141.9627
138.1743,142.0397
138.1924,142.1306
Z" /> 
<path style="fill:#000000; fill-opacity:1.0000; stroke:none;fill-rule:evenodd;"
d="M 136.4424,142.6056
136.4243,142.6965
136.3728,142.7735
136.2958,142.8250
136.2049,142.8431
135.6299,142.8431
135.5390,142.8250
135.4620,142.7735
135.4105,142.6965
135.3924,142.6056
135.3924,142.1306
135.4105,142.0397
135.4620,141.9627
135.5390,141.9112
135.6299,141.8931
136.2049,141.8931
136.2958,141.9112
136.3728,141.9627
136.4243,142.0397
136.4424,142.1306
Z" /> 
<path style="fill:#000000; fill-opacity:1.0000; stroke:none;fill-rule:evenodd;"
d="M 116.1500,119.7375
116.1319,119.8284
116.0804,119.9054
116.0034,119.9569
115.9125,119.9750
115.3125,119.9750
115.2216,119.9569
115.1446,119.9054
115.0931,119.8284
115.0750,119.7375
115.0750,119.2625
115.0931,119.1716
115.1446,119.0946
115.2216,119.0431
115.3125,119.0250
115.9125,119.0250
116.0034,119.0431
116.0804,119.0946
116.1319,119.1716
116.1500,119.2625
Z" /> 
<path style="fill:#000000; fill-opacity:1.0000; stroke:none;fill-rule:evenodd;"
d="M 114.4250,119.7375
114.4069,119.8284
114.3554,119.9054
114.2784,119.9569
114.1875,119.9750
113.5875,119.9750
113.4966,119.9569
113.4196,119.9054
113.3681,119.8284
113.3500,119.7375
113.3500,119.2625
113.3681,119.1716
113.4196,119.0946
113.4966,119.0431
113.5875,119.0250
114.1875,119.0250
114.2784,119.0431
114.3554,119.0946
114.4069,119.1716
114.4250,119.2625
Z" /> 
</g> 
</svg>
