<?xml version="1.0" standalone="no"?>
 <!DOCTYPE svg PUBLIC "-//W3C//DTD SVG 1.1//EN" 
 "http://www.w3.org/Graphics/SVG/1.1/DTD/svg11.dtd"> 
<svg
  xmlns:svg="http://www.w3.org/2000/svg"
  xmlns="http://www.w3.org/2000/svg"
  xmlns:xlink="http://www.w3.org/1999/xlink"
  version="1.1"
  width="297.0022mm" height="210.0072mm" viewBox="0.0000 0.0000 297.0022 210.0072">
<title>SVG Image created as rcbus-ymf262-F_Courtyard.svg date 2025/08/20 22:39:58 </title>
  <desc>Image generated by PCBNEW </desc>
<g style="fill:#000000; fill-opacity:1.0000;stroke:#000000; stroke-opacity:1.0000;
stroke-linecap:round; stroke-linejoin:round;"
 transform="translate(0 0) scale(1 1)">
</g>
<g style="fill:none; 
stroke:#000000; stroke-width:0.0500; stroke-opacity:1; 
stroke-linecap:round; stroke-linejoin:round;">
<path d="M108.6875 156.8700
L111.9875 156.8700
" />
<path d="M108.6875 158.3300
L108.6875 156.8700
" />
<path d="M111.9875 156.8700
L111.9875 158.3300
" />
<path d="M111.9875 158.3300
L108.6875 158.3300
" />
<path d="M108.3125 142.4700
L111.6125 142.4700
" />
<path d="M108.3125 143.9300
L108.3125 142.4700
" />
<path d="M111.6125 142.4700
L111.6125 143.9300
" />
<path d="M111.6125 143.9300
L108.3125 143.9300
" />
<path d="M145.8190 131.3450
L145.8190 118.8450
" />
<path d="M160.8190 118.8450
L145.8190 118.8450
" />
<path d="M160.8190 131.3450
L145.8190 131.3450
" />
<path d="M160.8190 131.3450
L160.8190 118.8450
" />
<path d="M60.6800 141.6900
L60.6800 157.9300
" />
<path d="M60.6800 157.9300
L66.7700 157.9300
" />
<path d="M66.7700 141.6900
L60.6800 141.6900
" />
<path d="M66.7700 157.9300
L66.7700 141.6900
" />
<path d="M83.9000 128.2300
L83.9000 141.4300
" />
<path d="M83.9000 141.4300
L105.1000 141.4300
" />
<path d="M105.1000 128.2300
L83.9000 128.2300
" />
<path d="M105.1000 141.4300
L105.1000 128.2300
" />
<circle cx="65.5320" cy="131.3820" r="3.4500" /> 
<path d="M60.2000 161.2000
L60.2000 164.8000
" />
<path d="M60.2000 164.8000
L160.3000 164.8000
" />
<path d="M160.3000 161.2000
L60.2000 161.2000
" />
<path d="M160.3000 164.8000
L160.3000 161.2000
" />
<path d="M79.9450 147.8500
L80.3250 147.8500
" />
<path d="M79.9450 155.8500
L79.9450 147.8500
" />
<path d="M80.3250 145.9200
L92.8650 145.9200
" />
<path d="M80.3250 147.8500
L80.3250 145.9200
" />
<path d="M80.3250 155.8500
L79.9450 155.8500
" />
<path d="M80.3250 157.7800
L80.3250 155.8500
" />
<path d="M92.8650 145.9200
L92.8650 147.8500
" />
<path d="M92.8650 147.8500
L93.2450 147.8500
" />
<path d="M92.8650 155.8500
L92.8650 157.7800
" />
<path d="M92.8650 157.7800
L80.3250 157.7800
" />
<path d="M93.2450 147.8500
L93.2450 155.8500
" />
<path d="M93.2450 155.8500
L92.8650 155.8500
" />
<path d="M125.2700 126.8500
L126.7300 126.8500
" />
<path d="M125.2700 130.1500
L125.2700 126.8500
" />
<path d="M126.7300 126.8500
L126.7300 130.1500
" />
<path d="M126.7300 130.1500
L125.2700 130.1500
" />
<path d="M115.7700 129.7125
L117.2300 129.7125
" />
<path d="M115.7700 133.0125
L115.7700 129.7125
" />
<path d="M117.2300 129.7125
L117.2300 133.0125
" />
<path d="M117.2300 133.0125
L115.7700 133.0125
" />
<path d="M118.5200 129.7125
L119.9800 129.7125
" />
<path d="M118.5200 133.0125
L118.5200 129.7125
" />
<path d="M119.9800 129.7125
L119.9800 133.0125
" />
<path d="M119.9800 133.0125
L118.5200 133.0125
" />
<path d="M113.5500 148.0000
L113.9900 148.0000
" />
<path d="M113.5500 156.0000
L113.5500 148.0000
" />
<path d="M113.9900 146.1000
L129.0100 146.1000
" />
<path d="M113.9900 148.0000
L113.9900 146.1000
" />
<path d="M113.9900 156.0000
L113.5500 156.0000
" />
<path d="M113.9900 157.9000
L113.9900 156.0000
" />
<path d="M129.0100 146.1000
L129.0100 148.0000
" />
<path d="M129.0100 148.0000
L129.4500 148.0000
" />
<path d="M129.0100 156.0000
L129.0100 157.9000
" />
<path d="M129.0100 157.9000
L113.9900 157.9000
" />
<path d="M129.4500 148.0000
L129.4500 156.0000
" />
<path d="M129.4500 156.0000
L129.0100 156.0000
" />
<path d="M77.6875 144.2700
L80.9875 144.2700
" />
<path d="M77.6875 145.7300
L77.6875 144.2700
" />
<path d="M80.9875 144.2700
L80.9875 145.7300
" />
<path d="M80.9875 145.7300
L77.6875 145.7300
" />
<path d="M149.0174 146.6381
L152.3174 146.6381
" />
<path d="M149.0174 148.0981
L149.0174 146.6381
" />
<path d="M152.3174 146.6381
L152.3174 148.0981
" />
<path d="M152.3174 148.0981
L149.0174 148.0981
" />
<path d="M113.6000 137.4700
L114.0000 137.4700
" />
<path d="M113.6000 142.5300
L113.6000 137.4700
" />
<path d="M114.0000 135.7000
L124.0000 135.7000
" />
<path d="M114.0000 137.4700
L114.0000 135.7000
" />
<path d="M114.0000 142.5300
L113.6000 142.5300
" />
<path d="M114.0000 144.3000
L114.0000 142.5300
" />
<path d="M124.0000 135.7000
L124.0000 137.4700
" />
<path d="M124.0000 137.4700
L124.4000 137.4700
" />
<path d="M124.0000 142.5300
L124.0000 144.3000
" />
<path d="M124.0000 144.3000
L114.0000 144.3000
" />
<path d="M124.4000 137.4700
L124.4000 142.5300
" />
<path d="M124.4000 142.5300
L124.0000 142.5300
" />
<path d="M132.5174 146.6381
L135.8174 146.6381
" />
<path d="M132.5174 148.0981
L132.5174 146.6381
" />
<path d="M135.8174 146.6381
L135.8174 148.0981
" />
<path d="M135.8174 148.0981
L132.5174 148.0981
" />
<path d="M72.6625 155.2900
L75.9625 155.2900
" />
<path d="M72.6625 156.7500
L72.6625 155.2900
" />
<path d="M75.9625 155.2900
L75.9625 156.7500
" />
<path d="M75.9625 156.7500
L72.6625 156.7500
" />
<path d="M124.2700 116.8500
L125.7300 116.8500
" />
<path d="M124.2700 120.1500
L124.2700 116.8500
" />
<path d="M125.7300 116.8500
L125.7300 120.1500
" />
<path d="M125.7300 120.1500
L124.2700 120.1500
" />
<path d="M136.2700 119.6000
L137.7300 119.6000
" />
<path d="M136.2700 122.9000
L136.2700 119.6000
" />
<path d="M137.7300 119.6000
L137.7300 122.9000
" />
<path d="M137.7300 122.9000
L136.2700 122.9000
" />
<path d="M119.7700 116.8500
L121.2300 116.8500
" />
<path d="M119.7700 120.1500
L119.7700 116.8500
" />
<path d="M121.2300 116.8500
L121.2300 120.1500
" />
<path d="M121.2300 120.1500
L119.7700 120.1500
" />
<path d="M72.6625 152.7800
L75.9625 152.7800
" />
<path d="M72.6625 154.2400
L72.6625 152.7800
" />
<path d="M75.9625 152.7800
L75.9625 154.2400
" />
<path d="M75.9625 154.2400
L72.6625 154.2400
" />
<path d="M113.1875 116.7700
L116.4875 116.7700
" />
<path d="M113.1875 118.2300
L113.1875 116.7700
" />
<path d="M116.4875 116.7700
L116.4875 118.2300
" />
<path d="M116.4875 118.2300
L113.1875 118.2300
" />
<path d="M141.5200 119.3500
L142.9800 119.3500
" />
<path d="M141.5200 122.6500
L141.5200 119.3500
" />
<path d="M142.9800 119.3500
L142.9800 122.6500
" />
<path d="M142.9800 122.6500
L141.5200 122.6500
" />
<path d="M121.5200 129.7625
L122.9800 129.7625
" />
<path d="M121.5200 133.0625
L121.5200 129.7625
" />
<path d="M122.9800 129.7625
L122.9800 133.0625
" />
<path d="M122.9800 133.0625
L121.5200 133.0625
" />
<path d="M122.0200 116.8500
L123.4800 116.8500
" />
<path d="M122.0200 120.1500
L122.0200 116.8500
" />
<path d="M123.4800 116.8500
L123.4800 120.1500
" />
<path d="M123.4800 120.1500
L122.0200 120.1500
" />
<path d="M72.6625 147.7600
L75.9625 147.7600
" />
<path d="M72.6625 149.2200
L72.6625 147.7600
" />
<path d="M75.9625 147.7600
L75.9625 149.2200
" />
<path d="M75.9625 149.2200
L72.6625 149.2200
" />
<path d="M72.4875 142.7400
L75.7875 142.7400
" />
<path d="M72.4875 144.2000
L72.4875 142.7400
" />
<path d="M75.7875 142.7400
L75.7875 144.2000
" />
<path d="M75.7875 144.2000
L72.4875 144.2000
" />
<path d="M117.0200 116.8500
L118.4800 116.8500
" />
<path d="M117.0200 120.1500
L117.0200 116.8500
" />
<path d="M118.4800 116.8500
L118.4800 120.1500
" />
<path d="M118.4800 120.1500
L117.0200 120.1500
" />
<path d="M72.4875 145.3300
L75.7875 145.3300
" />
<path d="M72.4875 146.7900
L72.4875 145.3300
" />
<path d="M75.7875 145.3300
L75.7875 146.7900
" />
<path d="M75.7875 146.7900
L72.4875 146.7900
" />
<path d="M114.5575 123.3000
L114.7775 123.3000
" />
<path d="M114.5575 127.7000
L114.5575 123.3000
" />
<path d="M114.7775 121.8000
L123.4975 121.8000
" />
<path d="M114.7775 123.3000
L114.7775 121.8000
" />
<path d="M114.7775 127.7000
L114.5575 127.7000
" />
<path d="M114.7775 129.2000
L114.7775 127.7000
" />
<path d="M123.4975 121.8000
L123.4975 123.3000
" />
<path d="M123.4975 123.3000
L123.7175 123.3000
" />
<path d="M123.4975 127.7000
L123.4975 129.2000
" />
<path d="M123.4975 129.2000
L114.7775 129.2000
" />
<path d="M123.7175 123.3000
L123.7175 127.7000
" />
<path d="M123.7175 127.7000
L123.4975 127.7000
" />
<path d="M131.2346 115.2375
L132.6946 115.2375
" />
<path d="M131.2346 118.5375
L131.2346 115.2375
" />
<path d="M132.6946 115.2375
L132.6946 118.5375
" />
<path d="M132.6946 118.5375
L131.2346 118.5375
" />
<path d="M142.8674 146.2181
L147.4674 146.2181
" />
<path d="M142.8674 148.5181
L142.8674 146.2181
" />
<path d="M147.4674 146.2181
L147.4674 148.5181
" />
<path d="M147.4674 148.5181
L142.8674 148.5181
" />
<path d="M72.6625 150.2700
L75.9625 150.2700
" />
<path d="M72.6625 151.7300
L72.6625 150.2700
" />
<path d="M75.9625 150.2700
L75.9625 151.7300
" />
<path d="M75.9625 151.7300
L72.6625 151.7300
" />
<path d="M153.3674 145.7181
L157.9674 145.7181
" />
<path d="M153.3674 148.0181
L153.3674 145.7181
" />
<path d="M157.9674 145.7181
L157.9674 148.0181
" />
<path d="M157.9674 148.0181
L153.3674 148.0181
" />
<path d="M141.5096 115.2375
L142.9696 115.2375
" />
<path d="M141.5096 118.5375
L141.5096 115.2375
" />
<path d="M142.9696 115.2375
L142.9696 118.5375
" />
<path d="M142.9696 118.5375
L141.5096 118.5375
" />
<path d="M131.2700 119.3500
L132.7300 119.3500
" />
<path d="M131.2700 122.6500
L131.2700 119.3500
" />
<path d="M132.7300 119.3500
L132.7300 122.6500
" />
<path d="M132.7300 122.6500
L131.2700 122.6500
" />
<path d="M136.2846 115.2375
L137.7446 115.2375
" />
<path d="M136.2846 118.5375
L136.2846 115.2375
" />
<path d="M137.7446 115.2375
L137.7446 118.5375
" />
<path d="M137.7446 118.5375
L136.2846 118.5375
" />
<path d="M138.0174 146.6381
L141.3174 146.6381
" />
<path d="M138.0174 148.0981
L138.0174 146.6381
" />
<path d="M141.3174 146.6381
L141.3174 148.0981
" />
<path d="M141.3174 148.0981
L138.0174 148.0981
" />
<path d="M135.1424 141.6381
L138.4424 141.6381
" />
<path d="M135.1424 143.0981
L135.1424 141.6381
" />
<path d="M138.4424 141.6381
L138.4424 143.0981
" />
<path d="M138.4424 143.0981
L135.1424 143.0981
" />
<path d="M113.1000 118.7700
L116.4000 118.7700
" />
<path d="M113.1000 120.2300
L113.1000 118.7700
" />
<path d="M116.4000 118.7700
L116.4000 120.2300
" />
<path d="M116.4000 120.2300
L113.1000 120.2300
" />
</g>
<g style="fill:#000000; fill-opacity:1.0000; stroke:none;">
<circle cx="156.5690" cy="130.0950" r="0.6000" /> 
</g>
<g style="fill:#000000; fill-opacity:1.0000; stroke:none;">
<circle cx="156.5690" cy="120.0950" r="0.6000" /> 
</g>
<g style="fill:#000000; fill-opacity:1.0000; stroke:none;">
<circle cx="154.0690" cy="130.0950" r="0.6000" /> 
</g>
<g style="fill:#000000; fill-opacity:1.0000; stroke:none;">
<circle cx="154.0690" cy="120.0950" r="0.6000" /> 
</g>
<g style="fill:#000000; fill-opacity:1.0000; stroke:none;">
<circle cx="149.0690" cy="125.0950" r="0.6000" /> 
</g>
<g style="fill:none; 
stroke:#000000; stroke-width:0.8000; stroke-opacity:1; 
stroke-linecap:round; stroke-linejoin:round;">
<path d="M149.4190 130.0950
L148.7190 130.0950
" />
<path d="M149.4190 127.5950
L148.7190 127.5950
" />
<path d="M154.0690 125.4450
L154.0690 124.7450
" />
<path d="M149.4190 120.0950
L148.7190 120.0950
" />
<path d="M149.4190 122.5950
L148.7190 122.5950
" />
</g>
<g style="fill:#000000; fill-opacity:1.0000; stroke:none;">
<circle cx="65.0000" cy="156.1600" r="0.5000" /> 
</g>
<g style="fill:#000000; fill-opacity:1.0000; stroke:none;">
<circle cx="62.4600" cy="156.1600" r="0.5000" /> 
</g>
<g style="fill:#000000; fill-opacity:1.0000; stroke:none;">
<circle cx="65.0000" cy="153.6200" r="0.5000" /> 
</g>
<g style="fill:#000000; fill-opacity:1.0000; stroke:none;">
<circle cx="62.4600" cy="153.6200" r="0.5000" /> 
</g>
<g style="fill:#000000; fill-opacity:1.0000; stroke:none;">
<circle cx="65.0000" cy="151.0800" r="0.5000" /> 
</g>
<g style="fill:#000000; fill-opacity:1.0000; stroke:none;">
<circle cx="62.4600" cy="151.0800" r="0.5000" /> 
</g>
<g style="fill:#000000; fill-opacity:1.0000; stroke:none;">
<circle cx="65.0000" cy="148.5400" r="0.5000" /> 
</g>
<g style="fill:#000000; fill-opacity:1.0000; stroke:none;">
<circle cx="62.4600" cy="148.5400" r="0.5000" /> 
</g>
<g style="fill:#000000; fill-opacity:1.0000; stroke:none;">
<circle cx="65.0000" cy="146.0000" r="0.5000" /> 
</g>
<g style="fill:#000000; fill-opacity:1.0000; stroke:none;">
<circle cx="62.4600" cy="146.0000" r="0.5000" /> 
</g>
<g style="fill:#000000; fill-opacity:1.0000; stroke:none;">
<circle cx="65.0000" cy="143.4600" r="0.5000" /> 
</g>
<g style="fill:#000000; fill-opacity:1.0000; stroke:none;">
<circle cx="62.4600" cy="143.4600" r="0.5000" /> 
</g>
<g style="fill:#000000; fill-opacity:1.0000; stroke:none;">
<circle cx="86.8800" cy="138.6400" r="0.4000" /> 
</g>
<g style="fill:#000000; fill-opacity:1.0000; stroke:none;">
<circle cx="94.5000" cy="138.6400" r="0.4000" /> 
</g>
<g style="fill:#000000; fill-opacity:1.0000; stroke:none;">
<circle cx="102.1200" cy="138.6400" r="0.4000" /> 
</g>
<g style="fill:#000000; fill-opacity:1.0000; stroke:none;">
<circle cx="102.1200" cy="131.0200" r="0.4000" /> 
</g>
<g style="fill:#000000; fill-opacity:1.0000; stroke:none;">
<circle cx="94.5000" cy="131.0200" r="0.4000" /> 
</g>
<g style="fill:#000000; fill-opacity:1.0000; stroke:none;">
<circle cx="86.8800" cy="131.0200" r="0.4000" /> 
</g>
<g style="fill:#000000; fill-opacity:1.0000; stroke:none;">
<circle cx="65.5320" cy="131.3820" r="1.6000" /> 
</g>
<g style="fill:#000000; fill-opacity:1.0000; stroke:none;">
<circle cx="62.0000" cy="163.0000" r="0.5000" /> 
</g>
<g style="fill:#000000; fill-opacity:1.0000; stroke:none;">
<circle cx="64.5400" cy="163.0000" r="0.5000" /> 
</g>
<g style="fill:#000000; fill-opacity:1.0000; stroke:none;">
<circle cx="67.0800" cy="163.0000" r="0.5000" /> 
</g>
<g style="fill:#000000; fill-opacity:1.0000; stroke:none;">
<circle cx="69.6200" cy="163.0000" r="0.5000" /> 
</g>
<g style="fill:#000000; fill-opacity:1.0000; stroke:none;">
<circle cx="72.1600" cy="163.0000" r="0.5000" /> 
</g>
<g style="fill:#000000; fill-opacity:1.0000; stroke:none;">
<circle cx="74.7000" cy="163.0000" r="0.5000" /> 
</g>
<g style="fill:#000000; fill-opacity:1.0000; stroke:none;">
<circle cx="77.2400" cy="163.0000" r="0.5000" /> 
</g>
<g style="fill:#000000; fill-opacity:1.0000; stroke:none;">
<circle cx="79.7800" cy="163.0000" r="0.5000" /> 
</g>
<g style="fill:#000000; fill-opacity:1.0000; stroke:none;">
<circle cx="82.3200" cy="163.0000" r="0.5000" /> 
</g>
<g style="fill:#000000; fill-opacity:1.0000; stroke:none;">
<circle cx="84.8600" cy="163.0000" r="0.5000" /> 
</g>
<g style="fill:#000000; fill-opacity:1.0000; stroke:none;">
<circle cx="87.4000" cy="163.0000" r="0.5000" /> 
</g>
<g style="fill:#000000; fill-opacity:1.0000; stroke:none;">
<circle cx="89.9400" cy="163.0000" r="0.5000" /> 
</g>
<g style="fill:#000000; fill-opacity:1.0000; stroke:none;">
<circle cx="92.4800" cy="163.0000" r="0.5000" /> 
</g>
<g style="fill:#000000; fill-opacity:1.0000; stroke:none;">
<circle cx="95.0200" cy="163.0000" r="0.5000" /> 
</g>
<g style="fill:#000000; fill-opacity:1.0000; stroke:none;">
<circle cx="97.5600" cy="163.0000" r="0.5000" /> 
</g>
<g style="fill:#000000; fill-opacity:1.0000; stroke:none;">
<circle cx="100.1000" cy="163.0000" r="0.5000" /> 
</g>
<g style="fill:#000000; fill-opacity:1.0000; stroke:none;">
<circle cx="102.6400" cy="163.0000" r="0.5000" /> 
</g>
<g style="fill:#000000; fill-opacity:1.0000; stroke:none;">
<circle cx="105.1800" cy="163.0000" r="0.5000" /> 
</g>
<g style="fill:#000000; fill-opacity:1.0000; stroke:none;">
<circle cx="107.7200" cy="163.0000" r="0.5000" /> 
</g>
<g style="fill:#000000; fill-opacity:1.0000; stroke:none;">
<circle cx="110.2600" cy="163.0000" r="0.5000" /> 
</g>
<g style="fill:#000000; fill-opacity:1.0000; stroke:none;">
<circle cx="112.8000" cy="163.0000" r="0.5000" /> 
</g>
<g style="fill:#000000; fill-opacity:1.0000; stroke:none;">
<circle cx="115.3400" cy="163.0000" r="0.5000" /> 
</g>
<g style="fill:#000000; fill-opacity:1.0000; stroke:none;">
<circle cx="117.8800" cy="163.0000" r="0.5000" /> 
</g>
<g style="fill:#000000; fill-opacity:1.0000; stroke:none;">
<circle cx="120.4200" cy="163.0000" r="0.5000" /> 
</g>
<g style="fill:#000000; fill-opacity:1.0000; stroke:none;">
<circle cx="122.9600" cy="163.0000" r="0.5000" /> 
</g>
<g style="fill:#000000; fill-opacity:1.0000; stroke:none;">
<circle cx="125.5000" cy="163.0000" r="0.5000" /> 
</g>
<g style="fill:#000000; fill-opacity:1.0000; stroke:none;">
<circle cx="128.0400" cy="163.0000" r="0.5000" /> 
</g>
<g style="fill:#000000; fill-opacity:1.0000; stroke:none;">
<circle cx="130.5800" cy="163.0000" r="0.5000" /> 
</g>
<g style="fill:#000000; fill-opacity:1.0000; stroke:none;">
<circle cx="133.1200" cy="163.0000" r="0.5000" /> 
</g>
<g style="fill:#000000; fill-opacity:1.0000; stroke:none;">
<circle cx="135.6600" cy="163.0000" r="0.5000" /> 
</g>
<g style="fill:#000000; fill-opacity:1.0000; stroke:none;">
<circle cx="138.2000" cy="163.0000" r="0.5000" /> 
</g>
<g style="fill:#000000; fill-opacity:1.0000; stroke:none;">
<circle cx="140.7400" cy="163.0000" r="0.5000" /> 
</g>
<g style="fill:#000000; fill-opacity:1.0000; stroke:none;">
<circle cx="143.2800" cy="163.0000" r="0.5000" /> 
</g>
<g style="fill:#000000; fill-opacity:1.0000; stroke:none;">
<circle cx="145.8200" cy="163.0000" r="0.5000" /> 
</g>
<g style="fill:#000000; fill-opacity:1.0000; stroke:none;">
<circle cx="148.3600" cy="163.0000" r="0.5000" /> 
</g>
<g style="fill:#000000; fill-opacity:1.0000; stroke:none;">
<circle cx="150.9000" cy="163.0000" r="0.5000" /> 
</g>
<g style="fill:#000000; fill-opacity:1.0000; stroke:none;">
<circle cx="153.4400" cy="163.0000" r="0.5000" /> 
</g>
<g style="fill:#000000; fill-opacity:1.0000; stroke:none;">
<circle cx="155.9800" cy="163.0000" r="0.5000" /> 
</g>
<g style="fill:#000000; fill-opacity:1.0000; stroke:none;">
<circle cx="158.5200" cy="163.0000" r="0.5000" /> 
</g> 
</svg>
