<?xml version="1.0" standalone="no"?>
 <!DOCTYPE svg PUBLIC "-//W3C//DTD SVG 1.1//EN" 
 "http://www.w3.org/Graphics/SVG/1.1/DTD/svg11.dtd"> 
<svg
  xmlns:svg="http://www.w3.org/2000/svg"
  xmlns="http://www.w3.org/2000/svg"
  xmlns:xlink="http://www.w3.org/1999/xlink"
  version="1.1"
  width="297.0022mm" height="210.0072mm" viewBox="0.0000 0.0000 297.0022 210.0072">
<title>SVG Image created as rcbus-ymf262-B_Mask.svg date 2025/08/26 22:53:48 </title>
  <desc>Image generated by PCBNEW </desc>
<g style="fill:#000000; fill-opacity:1.0000;stroke:#000000; stroke-opacity:1.0000;
stroke-linecap:round; stroke-linejoin:round;"
 transform="translate(0 0) scale(1 1)">
</g>
<g style="fill:#000000; fill-opacity:1.0000; stroke:none;">
<circle cx="156.5690" cy="130.0950" r="0.6000" /> 
</g>
<g style="fill:#000000; fill-opacity:1.0000; stroke:none;">
<circle cx="156.5690" cy="120.0950" r="0.6000" /> 
</g>
<g style="fill:#000000; fill-opacity:1.0000; stroke:none;">
<circle cx="154.0690" cy="130.0950" r="0.6000" /> 
</g>
<g style="fill:#000000; fill-opacity:1.0000; stroke:none;">
<circle cx="154.0690" cy="120.0950" r="0.6000" /> 
</g>
<g style="fill:#000000; fill-opacity:1.0000; stroke:none;">
<circle cx="149.0690" cy="125.0950" r="0.6000" /> 
<path style="fill:#000000; fill-opacity:1.0000; stroke:none;fill-rule:evenodd;"
d="M 150.3190,129.1950
150.3190,130.9950
147.8190,130.9950
147.8190,129.1950
Z" /> 
<path style="fill:#000000; fill-opacity:1.0000; stroke:none;fill-rule:evenodd;"
d="M 150.3190,126.6950
150.3190,128.4950
147.8190,128.4950
147.8190,126.6950
Z" /> 
<path style="fill:#000000; fill-opacity:1.0000; stroke:none;fill-rule:evenodd;"
d="M 154.9690,123.8450
154.9690,126.3450
153.1690,126.3450
153.1690,123.8450
Z" /> 
<path style="fill:#000000; fill-opacity:1.0000; stroke:none;fill-rule:evenodd;"
d="M 150.3190,119.1950
150.3190,120.9950
147.8190,120.9950
147.8190,119.1950
Z" /> 
<path style="fill:#000000; fill-opacity:1.0000; stroke:none;fill-rule:evenodd;"
d="M 150.3190,121.6950
150.3190,123.4950
147.8190,123.4950
147.8190,121.6950
Z" /> 
<path style="fill:#000000; fill-opacity:1.0000; stroke:none;fill-rule:evenodd;"
d="M 65.8500,155.3100
65.8500,157.0100
64.1500,157.0100
64.1500,155.3100
Z" /> 
</g>
<g style="fill:#000000; fill-opacity:1.0000; stroke:none;">
<circle cx="62.4600" cy="156.1600" r="0.8500" /> 
</g>
<g style="fill:#000000; fill-opacity:1.0000; stroke:none;">
<circle cx="65.0000" cy="153.6200" r="0.8500" /> 
</g>
<g style="fill:#000000; fill-opacity:1.0000; stroke:none;">
<circle cx="62.4600" cy="153.6200" r="0.8500" /> 
</g>
<g style="fill:#000000; fill-opacity:1.0000; stroke:none;">
<circle cx="65.0000" cy="151.0800" r="0.8500" /> 
</g>
<g style="fill:#000000; fill-opacity:1.0000; stroke:none;">
<circle cx="62.4600" cy="151.0800" r="0.8500" /> 
</g>
<g style="fill:#000000; fill-opacity:1.0000; stroke:none;">
<circle cx="65.0000" cy="148.5400" r="0.8500" /> 
</g>
<g style="fill:#000000; fill-opacity:1.0000; stroke:none;">
<circle cx="62.4600" cy="148.5400" r="0.8500" /> 
</g>
<g style="fill:#000000; fill-opacity:1.0000; stroke:none;">
<circle cx="65.0000" cy="146.0000" r="0.8500" /> 
</g>
<g style="fill:#000000; fill-opacity:1.0000; stroke:none;">
<circle cx="62.4600" cy="146.0000" r="0.8500" /> 
</g>
<g style="fill:#000000; fill-opacity:1.0000; stroke:none;">
<circle cx="65.0000" cy="143.4600" r="0.8500" /> 
</g>
<g style="fill:#000000; fill-opacity:1.0000; stroke:none;">
<circle cx="62.4600" cy="143.4600" r="0.8500" /> 
</g>
<g style="fill:#000000; fill-opacity:1.0000; stroke:none;">
<circle cx="65.5320" cy="131.3820" r="1.6000" /> 
<path style="fill:#000000; fill-opacity:1.0000; stroke:none;fill-rule:evenodd;"
d="M 62.8500,163.8500
61.1500,163.8500
61.1500,162.1500
62.8500,162.1500
Z" /> 
</g>
<g style="fill:#000000; fill-opacity:1.0000; stroke:none;">
<circle cx="64.5400" cy="163.0000" r="0.8500" /> 
<circle cx="67.0800" cy="163.0000" r="0.8500" /> 
<circle cx="69.6200" cy="163.0000" r="0.8500" /> 
<circle cx="72.1600" cy="163.0000" r="0.8500" /> 
<circle cx="74.7000" cy="163.0000" r="0.8500" /> 
<circle cx="77.2400" cy="163.0000" r="0.8500" /> 
<circle cx="79.7800" cy="163.0000" r="0.8500" /> 
<circle cx="82.3200" cy="163.0000" r="0.8500" /> 
<circle cx="84.8600" cy="163.0000" r="0.8500" /> 
<circle cx="87.4000" cy="163.0000" r="0.8500" /> 
<circle cx="89.9400" cy="163.0000" r="0.8500" /> 
<circle cx="92.4800" cy="163.0000" r="0.8500" /> 
<circle cx="95.0200" cy="163.0000" r="0.8500" /> 
<circle cx="97.5600" cy="163.0000" r="0.8500" /> 
<circle cx="100.1000" cy="163.0000" r="0.8500" /> 
<circle cx="102.6400" cy="163.0000" r="0.8500" /> 
<circle cx="105.1800" cy="163.0000" r="0.8500" /> 
<circle cx="107.7200" cy="163.0000" r="0.8500" /> 
<circle cx="110.2600" cy="163.0000" r="0.8500" /> 
<circle cx="112.8000" cy="163.0000" r="0.8500" /> 
<circle cx="115.3400" cy="163.0000" r="0.8500" /> 
<circle cx="117.8800" cy="163.0000" r="0.8500" /> 
<circle cx="120.4200" cy="163.0000" r="0.8500" /> 
<circle cx="122.9600" cy="163.0000" r="0.8500" /> 
<circle cx="125.5000" cy="163.0000" r="0.8500" /> 
<circle cx="128.0400" cy="163.0000" r="0.8500" /> 
<circle cx="130.5800" cy="163.0000" r="0.8500" /> 
<circle cx="133.1200" cy="163.0000" r="0.8500" /> 
<circle cx="135.6600" cy="163.0000" r="0.8500" /> 
<circle cx="138.2000" cy="163.0000" r="0.8500" /> 
<circle cx="140.7400" cy="163.0000" r="0.8500" /> 
<circle cx="143.2800" cy="163.0000" r="0.8500" /> 
<circle cx="145.8200" cy="163.0000" r="0.8500" /> 
<circle cx="148.3600" cy="163.0000" r="0.8500" /> 
<circle cx="150.9000" cy="163.0000" r="0.8500" /> 
<circle cx="153.4400" cy="163.0000" r="0.8500" /> 
<circle cx="155.9800" cy="163.0000" r="0.8500" /> 
<circle cx="158.5200" cy="163.0000" r="0.8500" /> 
</g> 
</svg>
