<?xml version="1.0" standalone="no"?>
 <!DOCTYPE svg PUBLIC "-//W3C//DTD SVG 1.1//EN" 
 "http://www.w3.org/Graphics/SVG/1.1/DTD/svg11.dtd"> 
<svg
  xmlns:svg="http://www.w3.org/2000/svg"
  xmlns="http://www.w3.org/2000/svg"
  xmlns:xlink="http://www.w3.org/1999/xlink"
  version="1.1"
  width="297.0022mm" height="210.0072mm" viewBox="0.0000 0.0000 297.0022 210.0072">
<title>SVG Image created as rcbus-ymf262-Back.svg date 2025/08/31 09:08:58 </title>
  <desc>Image generated by PCBNEW </desc>
<g style="fill:#000000; fill-opacity:1.0000;stroke:#000000; stroke-opacity:1.0000;
stroke-linecap:round; stroke-linejoin:round;"
 transform="translate(0 0) scale(1 1)">
<path style="fill:#000000; fill-opacity:1.0000; stroke:none;fill-rule:evenodd;"
d="M 150.3190,129.1950
150.3190,130.9950
147.8190,130.9950
147.8190,129.1950
Z" /> 
<path style="fill:#000000; fill-opacity:1.0000; stroke:none;fill-rule:evenodd;"
d="M 150.3190,126.6950
150.3190,128.4950
147.8190,128.4950
147.8190,126.6950
Z" /> 
<path style="fill:#000000; fill-opacity:1.0000; stroke:none;fill-rule:evenodd;"
d="M 154.9690,123.8450
154.9690,126.3450
153.1690,126.3450
153.1690,123.8450
Z" /> 
<path style="fill:#000000; fill-opacity:1.0000; stroke:none;fill-rule:evenodd;"
d="M 150.3190,119.1950
150.3190,120.9950
147.8190,120.9950
147.8190,119.1950
Z" /> 
<path style="fill:#000000; fill-opacity:1.0000; stroke:none;fill-rule:evenodd;"
d="M 150.3190,121.6950
150.3190,123.4950
147.8190,123.4950
147.8190,121.6950
Z" /> 
<path style="fill:#000000; fill-opacity:1.0000; stroke:none;fill-rule:evenodd;"
d="M 65.8500,155.3100
65.8500,157.0100
64.1500,157.0100
64.1500,155.3100
Z" /> 
</g>
<g style="fill:#000000; fill-opacity:1.0000; stroke:none;">
<circle cx="62.4600" cy="156.1600" r="0.8500" /> 
</g>
<g style="fill:#000000; fill-opacity:1.0000; stroke:none;">
<circle cx="65.0000" cy="153.6200" r="0.8500" /> 
</g>
<g style="fill:#000000; fill-opacity:1.0000; stroke:none;">
<circle cx="62.4600" cy="153.6200" r="0.8500" /> 
</g>
<g style="fill:#000000; fill-opacity:1.0000; stroke:none;">
<circle cx="65.0000" cy="151.0800" r="0.8500" /> 
</g>
<g style="fill:#000000; fill-opacity:1.0000; stroke:none;">
<circle cx="62.4600" cy="151.0800" r="0.8500" /> 
</g>
<g style="fill:#000000; fill-opacity:1.0000; stroke:none;">
<circle cx="65.0000" cy="148.5400" r="0.8500" /> 
</g>
<g style="fill:#000000; fill-opacity:1.0000; stroke:none;">
<circle cx="62.4600" cy="148.5400" r="0.8500" /> 
</g>
<g style="fill:#000000; fill-opacity:1.0000; stroke:none;">
<circle cx="65.0000" cy="146.0000" r="0.8500" /> 
</g>
<g style="fill:#000000; fill-opacity:1.0000; stroke:none;">
<circle cx="62.4600" cy="146.0000" r="0.8500" /> 
</g>
<g style="fill:#000000; fill-opacity:1.0000; stroke:none;">
<circle cx="65.0000" cy="143.4600" r="0.8500" /> 
</g>
<g style="fill:#000000; fill-opacity:1.0000; stroke:none;">
<circle cx="62.4600" cy="143.4600" r="0.8500" /> 
<path style="fill:#000000; fill-opacity:1.0000; stroke:none;fill-rule:evenodd;"
d="M 62.8500,163.8500
61.1500,163.8500
61.1500,162.1500
62.8500,162.1500
Z" /> 
</g>
<g style="fill:#000000; fill-opacity:1.0000; stroke:none;">
<circle cx="64.5400" cy="163.0000" r="0.8500" /> 
<circle cx="67.0800" cy="163.0000" r="0.8500" /> 
<circle cx="69.6200" cy="163.0000" r="0.8500" /> 
<circle cx="72.1600" cy="163.0000" r="0.8500" /> 
<circle cx="74.7000" cy="163.0000" r="0.8500" /> 
<circle cx="77.2400" cy="163.0000" r="0.8500" /> 
<circle cx="79.7800" cy="163.0000" r="0.8500" /> 
<circle cx="82.3200" cy="163.0000" r="0.8500" /> 
<circle cx="84.8600" cy="163.0000" r="0.8500" /> 
<circle cx="87.4000" cy="163.0000" r="0.8500" /> 
<circle cx="89.9400" cy="163.0000" r="0.8500" /> 
<circle cx="92.4800" cy="163.0000" r="0.8500" /> 
<circle cx="95.0200" cy="163.0000" r="0.8500" /> 
<circle cx="97.5600" cy="163.0000" r="0.8500" /> 
<circle cx="100.1000" cy="163.0000" r="0.8500" /> 
<circle cx="102.6400" cy="163.0000" r="0.8500" /> 
<circle cx="105.1800" cy="163.0000" r="0.8500" /> 
<circle cx="107.7200" cy="163.0000" r="0.8500" /> 
<circle cx="110.2600" cy="163.0000" r="0.8500" /> 
<circle cx="112.8000" cy="163.0000" r="0.8500" /> 
<circle cx="115.3400" cy="163.0000" r="0.8500" /> 
<circle cx="117.8800" cy="163.0000" r="0.8500" /> 
<circle cx="120.4200" cy="163.0000" r="0.8500" /> 
<circle cx="122.9600" cy="163.0000" r="0.8500" /> 
<circle cx="125.5000" cy="163.0000" r="0.8500" /> 
<circle cx="128.0400" cy="163.0000" r="0.8500" /> 
<circle cx="130.5800" cy="163.0000" r="0.8500" /> 
<circle cx="133.1200" cy="163.0000" r="0.8500" /> 
<circle cx="135.6600" cy="163.0000" r="0.8500" /> 
<circle cx="138.2000" cy="163.0000" r="0.8500" /> 
<circle cx="140.7400" cy="163.0000" r="0.8500" /> 
<circle cx="143.2800" cy="163.0000" r="0.8500" /> 
<circle cx="145.8200" cy="163.0000" r="0.8500" /> 
<circle cx="148.3600" cy="163.0000" r="0.8500" /> 
<circle cx="150.9000" cy="163.0000" r="0.8500" /> 
<circle cx="153.4400" cy="163.0000" r="0.8500" /> 
<circle cx="155.9800" cy="163.0000" r="0.8500" /> 
<circle cx="158.5200" cy="163.0000" r="0.8500" /> 
<circle cx="92.2126" cy="154.2500" r="0.3429" /> 
</g>
<g style="fill:#000000; fill-opacity:1.0000; stroke:none;">
<circle cx="100.5000" cy="154.2500" r="0.3429" /> 
</g>
<g style="fill:#000000; fill-opacity:1.0000; stroke:none;">
<circle cx="76.7000" cy="153.5000" r="0.3429" /> 
</g>
<g style="fill:#000000; fill-opacity:1.0000; stroke:none;">
<circle cx="76.1430" cy="144.0570" r="0.3429" /> 
</g>
<g style="fill:#000000; fill-opacity:1.0000; stroke:none;">
<circle cx="61.0000" cy="135.0000" r="0.3429" /> 
</g>
<g style="fill:#000000; fill-opacity:1.0000; stroke:none;">
<circle cx="81.0000" cy="130.0000" r="0.3429" /> 
</g>
<g style="fill:#000000; fill-opacity:1.0000; stroke:none;">
<circle cx="71.0000" cy="135.0000" r="0.3429" /> 
</g>
<g style="fill:#000000; fill-opacity:1.0000; stroke:none;">
<circle cx="86.0000" cy="115.0000" r="0.3429" /> 
</g>
<g style="fill:#000000; fill-opacity:1.0000; stroke:none;">
<circle cx="86.0000" cy="140.0000" r="0.3429" /> 
</g>
<g style="fill:#000000; fill-opacity:1.0000; stroke:none;">
<circle cx="91.0000" cy="140.0000" r="0.3429" /> 
</g>
<g style="fill:#000000; fill-opacity:1.0000; stroke:none;">
<circle cx="96.0000" cy="135.0000" r="0.3429" /> 
</g>
<g style="fill:#000000; fill-opacity:1.0000; stroke:none;">
<circle cx="91.0000" cy="125.0000" r="0.3429" /> 
</g>
<g style="fill:#000000; fill-opacity:1.0000; stroke:none;">
<circle cx="101.0000" cy="135.0000" r="0.3429" /> 
</g>
<g style="fill:#000000; fill-opacity:1.0000; stroke:none;">
<circle cx="81.0000" cy="125.0000" r="0.3429" /> 
</g>
<g style="fill:#000000; fill-opacity:1.0000; stroke:none;">
<circle cx="86.0000" cy="130.0000" r="0.3429" /> 
</g>
<g style="fill:#000000; fill-opacity:1.0000; stroke:none;">
<circle cx="61.0000" cy="140.0000" r="0.3429" /> 
</g>
<g style="fill:#000000; fill-opacity:1.0000; stroke:none;">
<circle cx="76.0000" cy="115.0000" r="0.3429" /> 
</g>
<g style="fill:#000000; fill-opacity:1.0000; stroke:none;">
<circle cx="76.0000" cy="130.0000" r="0.3429" /> 
</g>
<g style="fill:#000000; fill-opacity:1.0000; stroke:none;">
<circle cx="106.0000" cy="140.0000" r="0.3429" /> 
</g>
<g style="fill:#000000; fill-opacity:1.0000; stroke:none;">
<circle cx="81.0000" cy="115.0000" r="0.3429" /> 
</g>
<g style="fill:#000000; fill-opacity:1.0000; stroke:none;">
<circle cx="61.0000" cy="155.0000" r="0.3429" /> 
</g>
<g style="fill:#000000; fill-opacity:1.0000; stroke:none;">
<circle cx="71.0000" cy="140.0000" r="0.3429" /> 
</g>
<g style="fill:#000000; fill-opacity:1.0000; stroke:none;">
<circle cx="81.0000" cy="140.0000" r="0.3429" /> 
</g>
<g style="fill:#000000; fill-opacity:1.0000; stroke:none;">
<circle cx="128.4850" cy="158.5000" r="0.3429" /> 
</g>
<g style="fill:#000000; fill-opacity:1.0000; stroke:none;">
<circle cx="76.7000" cy="156.0000" r="0.3429" /> 
</g>
<g style="fill:#000000; fill-opacity:1.0000; stroke:none;">
<circle cx="86.0000" cy="125.0000" r="0.3429" /> 
</g>
<g style="fill:#000000; fill-opacity:1.0000; stroke:none;">
<circle cx="91.0000" cy="135.0000" r="0.3429" /> 
</g>
<g style="fill:#000000; fill-opacity:1.0000; stroke:none;">
<circle cx="66.0000" cy="125.0000" r="0.3429" /> 
</g>
<g style="fill:#000000; fill-opacity:1.0000; stroke:none;">
<circle cx="101.0000" cy="120.0000" r="0.3429" /> 
</g>
<g style="fill:#000000; fill-opacity:1.0000; stroke:none;">
<circle cx="126.0000" cy="131.0000" r="0.3429" /> 
</g>
<g style="fill:#000000; fill-opacity:1.0000; stroke:none;">
<circle cx="76.7000" cy="148.5000" r="0.3429" /> 
</g>
<g style="fill:#000000; fill-opacity:1.0000; stroke:none;">
<circle cx="101.0000" cy="140.0000" r="0.3429" /> 
</g>
<g style="fill:#000000; fill-opacity:1.0000; stroke:none;">
<circle cx="115.8000" cy="141.4000" r="0.3429" /> 
</g>
<g style="fill:#000000; fill-opacity:1.0000; stroke:none;">
<circle cx="61.0000" cy="130.0000" r="0.3429" /> 
</g>
<g style="fill:#000000; fill-opacity:1.0000; stroke:none;">
<circle cx="119.0000" cy="120.7500" r="0.3429" /> 
</g>
<g style="fill:#000000; fill-opacity:1.0000; stroke:none;">
<circle cx="101.0000" cy="130.0000" r="0.3429" /> 
</g>
<g style="fill:#000000; fill-opacity:1.0000; stroke:none;">
<circle cx="76.0000" cy="120.0000" r="0.3429" /> 
</g>
<g style="fill:#000000; fill-opacity:1.0000; stroke:none;">
<circle cx="83.7311" cy="145.8819" r="0.3429" /> 
</g>
<g style="fill:#000000; fill-opacity:1.0000; stroke:none;">
<circle cx="91.0000" cy="120.0000" r="0.3429" /> 
</g>
<g style="fill:#000000; fill-opacity:1.0000; stroke:none;">
<circle cx="76.0000" cy="140.0000" r="0.3429" /> 
</g>
<g style="fill:#000000; fill-opacity:1.0000; stroke:none;">
<circle cx="106.0000" cy="115.0000" r="0.3429" /> 
</g>
<g style="fill:#000000; fill-opacity:1.0000; stroke:none;">
<circle cx="119.2500" cy="133.7500" r="0.3429" /> 
</g>
<g style="fill:#000000; fill-opacity:1.0000; stroke:none;">
<circle cx="61.0000" cy="150.0000" r="0.3429" /> 
</g>
<g style="fill:#000000; fill-opacity:1.0000; stroke:none;">
<circle cx="96.0000" cy="120.0000" r="0.3429" /> 
</g>
<g style="fill:#000000; fill-opacity:1.0000; stroke:none;">
<circle cx="96.0000" cy="130.0000" r="0.3429" /> 
</g>
<g style="fill:#000000; fill-opacity:1.0000; stroke:none;">
<circle cx="115.0000" cy="132.2500" r="0.3429" /> 
</g>
<g style="fill:#000000; fill-opacity:1.0000; stroke:none;">
<circle cx="66.0000" cy="140.0000" r="0.3429" /> 
</g>
<g style="fill:#000000; fill-opacity:1.0000; stroke:none;">
<circle cx="96.0000" cy="115.0000" r="0.3429" /> 
</g>
<g style="fill:#000000; fill-opacity:1.0000; stroke:none;">
<circle cx="61.0000" cy="160.0000" r="0.3429" /> 
</g>
<g style="fill:#000000; fill-opacity:1.0000; stroke:none;">
<circle cx="101.0000" cy="115.0000" r="0.3429" /> 
</g>
<g style="fill:#000000; fill-opacity:1.0000; stroke:none;">
<circle cx="106.0000" cy="135.0000" r="0.3429" /> 
</g>
<g style="fill:#000000; fill-opacity:1.0000; stroke:none;">
<circle cx="86.0000" cy="120.0000" r="0.3429" /> 
</g>
<g style="fill:#000000; fill-opacity:1.0000; stroke:none;">
<circle cx="61.0000" cy="145.0000" r="0.3429" /> 
</g>
<g style="fill:#000000; fill-opacity:1.0000; stroke:none;">
<circle cx="143.7021" cy="115.9875" r="0.3429" /> 
</g>
<g style="fill:#000000; fill-opacity:1.0000; stroke:none;">
<circle cx="71.0000" cy="120.0000" r="0.3429" /> 
</g>
<g style="fill:#000000; fill-opacity:1.0000; stroke:none;">
<circle cx="92.9556" cy="158.5037" r="0.3429" /> 
</g>
<g style="fill:#000000; fill-opacity:1.0000; stroke:none;">
<circle cx="106.0000" cy="120.0000" r="0.3429" /> 
</g>
<g style="fill:#000000; fill-opacity:1.0000; stroke:none;">
<circle cx="106.0000" cy="130.0000" r="0.3429" /> 
</g>
<g style="fill:#000000; fill-opacity:1.0000; stroke:none;">
<circle cx="76.0000" cy="125.0000" r="0.3429" /> 
</g>
<g style="fill:#000000; fill-opacity:1.0000; stroke:none;">
<circle cx="91.0000" cy="115.0000" r="0.3429" /> 
</g>
<g style="fill:#000000; fill-opacity:1.0000; stroke:none;">
<circle cx="76.7000" cy="146.0000" r="0.3429" /> 
</g>
<g style="fill:#000000; fill-opacity:1.0000; stroke:none;">
<circle cx="81.0000" cy="120.0000" r="0.3429" /> 
</g>
<g style="fill:#000000; fill-opacity:1.0000; stroke:none;">
<circle cx="96.0000" cy="125.0000" r="0.3429" /> 
</g>
<g style="fill:#000000; fill-opacity:1.0000; stroke:none;">
<circle cx="76.7000" cy="151.0000" r="0.3429" /> 
</g>
<g style="fill:#000000; fill-opacity:1.0000; stroke:none;">
<circle cx="71.0000" cy="130.0000" r="0.3429" /> 
</g>
<g style="fill:#000000; fill-opacity:1.0000; stroke:none;">
<circle cx="91.0000" cy="130.0000" r="0.3429" /> 
</g>
<g style="fill:#000000; fill-opacity:1.0000; stroke:none;">
<circle cx="106.0000" cy="125.0000" r="0.3429" /> 
</g>
<g style="fill:#000000; fill-opacity:1.0000; stroke:none;">
<circle cx="143.8000" cy="120.1000" r="0.3429" /> 
</g>
<g style="fill:#000000; fill-opacity:1.0000; stroke:none;">
<circle cx="86.0000" cy="135.0000" r="0.3429" /> 
</g>
<g style="fill:#000000; fill-opacity:1.0000; stroke:none;">
<circle cx="81.0000" cy="135.0000" r="0.3429" /> 
</g>
<g style="fill:#000000; fill-opacity:1.0000; stroke:none;">
<circle cx="76.0000" cy="135.0000" r="0.3429" /> 
</g>
<g style="fill:#000000; fill-opacity:1.0000; stroke:none;">
<circle cx="71.0000" cy="125.0000" r="0.3429" /> 
</g>
<g style="fill:#000000; fill-opacity:1.0000; stroke:none;">
<circle cx="96.0000" cy="140.0000" r="0.3429" /> 
</g>
<g style="fill:#000000; fill-opacity:1.0000; stroke:none;">
<circle cx="101.0000" cy="125.0000" r="0.3429" /> 
</g>
<g style="fill:#000000; fill-opacity:1.0000; stroke:none;">
<circle cx="66.0000" cy="135.0000" r="0.3429" /> 
</g>
<g style="fill:#000000; fill-opacity:1.0000; stroke:none;">
<circle cx="123.8000" cy="158.5000" r="0.3429" /> 
</g>
<g style="fill:#000000; fill-opacity:1.0000; stroke:none;">
<circle cx="85.0000" cy="154.4500" r="0.3429" /> 
</g>
<g style="fill:#000000; fill-opacity:1.0000; stroke:none;">
<circle cx="119.5374" cy="145.1437" r="0.3429" /> 
</g>
<g style="fill:#000000; fill-opacity:1.0000; stroke:none;">
<circle cx="116.7000" cy="145.4000" r="0.3429" /> 
</g>
<g style="fill:#000000; fill-opacity:1.0000; stroke:none;">
<circle cx="138.8174" cy="145.4681" r="0.3429" /> 
</g>
<g style="fill:#000000; fill-opacity:1.0000; stroke:none;">
<circle cx="151.2939" cy="146.2953" r="0.3429" /> 
</g>
<g style="fill:#000000; fill-opacity:1.0000; stroke:none;">
<circle cx="144.1607" cy="145.8700" r="0.3429" /> 
</g>
<g style="fill:#000000; fill-opacity:1.0000; stroke:none;">
<circle cx="124.5000" cy="128.0000" r="0.3429" /> 
</g>
<g style="fill:#000000; fill-opacity:1.0000; stroke:none;">
<circle cx="120.5000" cy="124.5000" r="0.3429" /> 
</g>
<g style="fill:#000000; fill-opacity:1.0000; stroke:none;">
<circle cx="148.5959" cy="146.5043" r="0.3429" /> 
</g>
<g style="fill:#000000; fill-opacity:1.0000; stroke:none;">
<circle cx="88.5000" cy="150.4748" r="0.3429" /> 
</g>
<g style="fill:#000000; fill-opacity:1.0000; stroke:none;">
<circle cx="81.3682" cy="153.1182" r="0.3429" /> 
</g>
<g style="fill:#000000; fill-opacity:1.0000; stroke:none;">
<circle cx="85.8959" cy="151.2400" r="0.3429" /> 
</g>
<g style="fill:#000000; fill-opacity:1.0000; stroke:none;">
<circle cx="85.9838" cy="153.4498" r="0.3429" /> 
</g>
<g style="fill:#000000; fill-opacity:1.0000; stroke:none;">
<circle cx="72.9566" cy="144.8148" r="0.3429" /> 
</g>
<g style="fill:#000000; fill-opacity:1.0000; stroke:none;">
<circle cx="82.9374" cy="159.6000" r="0.3429" /> 
</g>
<g style="fill:#000000; fill-opacity:1.0000; stroke:none;">
<circle cx="78.8052" cy="153.4718" r="0.3429" /> 
</g>
<g style="fill:#000000; fill-opacity:1.0000; stroke:none;">
<circle cx="90.5000" cy="149.8176" r="0.3429" /> 
</g>
<g style="fill:#000000; fill-opacity:1.0000; stroke:none;">
<circle cx="80.8743" cy="151.4544" r="0.3429" /> 
</g>
<g style="fill:#000000; fill-opacity:1.0000; stroke:none;">
<circle cx="79.1768" cy="151.8808" r="0.3429" /> 
</g>
<g style="fill:none; 
stroke:#000000; stroke-width:0.3810; stroke-opacity:1; 
stroke-linecap:round; stroke-linejoin:round;">
<path d="M100.5000 154.2500
L100.5000 158.3200
" />
<path d="M92.2126 154.2500
L100.5000 154.2500
" />
<path d="M105.1800 163.0000
L100.5900 158.4100
" />
<path d="M100.5000 158.3200
L100.5900 158.4100
" />
<path d="M102.6400 163.0000
L98.1437 158.5037
" />
<path d="M98.1437 158.5037
L92.9556 158.5037
" />
<path d="M118.5500 153.2500
L97.6136 153.2500
" />
<path d="M97.5762 153.2874
L96.9238 153.2874
" />
<path d="M96.9238 153.2874
L96.8864 153.2500
" />
<path d="M87.2972 153.2500
L86.0972 154.4500
" />
<path d="M96.8864 153.2500
L87.2972 153.2500
" />
<path d="M97.6136 153.2500
L97.5762 153.2874
" />
<path d="M123.8000 158.5000
L118.5500 153.2500
" />
<path d="M86.0972 154.4500
L85.0000 154.4500
" />
<path d="M119.4811 145.2000
L119.5374 145.1437
" />
<path d="M118.2278 145.4000
L118.4278 145.2000
" />
<path d="M116.7000 145.4000
L118.2278 145.4000
" />
<path d="M118.4278 145.2000
L119.4811 145.2000
" />
<path d="M148.9747 145.5899
L148.2171 145.5899
" />
<path d="M151.2939 146.2953
L149.6801 146.2953
" />
<path d="M147.9370 145.8700
L144.1607 145.8700
" />
<path d="M144.1607 145.8700
L143.7588 145.4681
" />
<path d="M149.6801 146.2953
L148.9747 145.5899
" />
<path d="M143.7588 145.4681
L138.8174 145.4681
" />
<path d="M148.2171 145.5899
L147.9370 145.8700
" />
<path d="M124.5000 128.0000
L121.0000 124.5000
" />
<path d="M121.0000 124.5000
L120.5000 124.5000
" />
<path d="M148.5959 146.5043
L148.3158 146.7844
" />
<path d="M84.0338 150.4526
L81.3682 153.1182
" />
<path d="M88.5000 150.4748
L86.4441 150.4748
" />
<path d="M86.4219 150.4526
L84.0338 150.4526
" />
<path d="M86.4441 150.4748
L86.4219 150.4526
" />
<path d="M85.9838 151.3279
L85.9838 153.4498
" />
<path d="M85.8959 151.2400
L85.9838 151.3279
" />
<path d="M72.9566 154.5702
L77.9864 159.6000
" />
<path d="M77.9864 159.6000
L82.9374 159.6000
" />
<path d="M72.9566 144.8148
L72.9566 154.5702
" />
<path d="M90.5000 149.8176
L88.9564 149.8176
" />
<path d="M83.7708 149.8176
L81.2576 152.3308
" />
<path d="M81.2576 152.3308
L79.9462 152.3308
" />
<path d="M88.1738 149.6874
L88.0436 149.8176
" />
<path d="M88.8262 149.6874
L88.1738 149.6874
" />
<path d="M79.9462 152.3308
L78.8052 153.4718
" />
<path d="M88.9564 149.8176
L88.8262 149.6874
" />
<path d="M88.0436 149.8176
L83.7708 149.8176
" />
<path d="M79.1768 151.8808
L79.6032 151.4544
" />
<path d="M79.6032 151.4544
L80.8743 151.4544
" />
<path style="fill:#000000; fill-opacity:1.0000; stroke:none;fill-rule:evenodd;"
d="M 155.0026,114.5756
155.4428,114.5938
155.4531,114.5947
155.8877,114.6488
155.8979,114.6506
156.3265,114.7404
156.3366,114.7430
156.7564,114.8679
156.7662,114.8713
156.9236,114.9327
157.1741,115.0305
157.1837,115.0347
157.5771,115.2270
157.5863,115.2320
157.9624,115.4561
157.9712,115.4618
158.3276,115.7163
158.3358,115.7227
158.6700,116.0057
158.6776,116.0128
158.9872,116.3224
158.9943,116.3300
159.2773,116.6642
159.2837,116.6724
159.5382,117.0288
159.5439,117.0376
159.7680,117.4137
159.7730,117.4229
159.9653,117.8163
159.9695,117.8259
160.1287,118.2338
160.1321,118.2437
160.2570,118.6634
160.2596,118.6735
160.3494,119.1021
160.3512,119.1123
160.4053,119.5469
160.4062,119.5573
160.4244,119.9974
160.4245,120.0026
160.4245,121.3375
160.4045,121.4056
160.3508,121.4521
160.2985,121.4635
159.5365,121.4635
159.5120,121.4635
159.4161,121.4635
159.2267,121.4935
159.2267,121.4935
159.2267,121.4935
159.0443,121.5528
158.8734,121.6398
158.7182,121.7526
158.7182,121.7526
158.5826,121.8882
158.5826,121.8882
158.4698,122.0434
158.3828,122.2143
158.3494,122.3169
158.3235,122.3967
158.2935,122.5861
158.2935,122.6670
158.2935,127.4835
158.2935,127.5080
158.2935,127.6039
158.3235,127.7933
158.3235,127.7933
158.3637,127.9169
158.3828,127.9757
158.4698,128.1466
158.5826,128.3018
158.5826,128.3018
158.5826,128.3018
158.7182,128.4374
158.7182,128.4374
158.7182,128.4374
158.8734,128.5502
159.0443,128.6372
159.2267,128.6965
159.4161,128.7265
159.4970,128.7265
160.2985,128.7265
160.3666,128.7465
160.4131,128.8002
160.4245,128.8525
160.4245,164.2985
160.4045,164.3666
160.3508,164.4131
160.2985,164.4245
159.2238,164.4245
159.1557,164.4045
159.1092,164.3508
159.0991,164.2806
159.1286,164.2160
159.1666,164.1862
159.2278,164.1551
159.3998,164.0301
159.5501,163.8798
159.6751,163.7078
159.7716,163.5184
159.8372,163.3162
159.8705,163.1063
159.8705,162.8937
159.8372,162.6838
159.7716,162.4816
159.6751,162.2922
159.5501,162.1202
159.5501,162.1202
159.5501,162.1202
159.3998,161.9699
159.3998,161.9699
159.3998,161.9699
159.2278,161.8449
159.0384,161.7484
158.8362,161.6828
158.6263,161.6495
158.4137,161.6495
158.2038,161.6828
158.2038,161.6828
158.2038,161.6828
158.0016,161.7484
158.0016,161.7484
157.8122,161.8450
157.6402,161.9699
157.6402,161.9699
157.4899,162.1202
157.4899,162.1202
157.3649,162.2922
157.3623,162.2975
157.3135,162.3491
157.2446,162.3661
157.1774,162.3432
157.1377,162.2975
157.1352,162.2925
157.1351,162.2922
157.0101,162.1202
157.0101,162.1202
157.0101,162.1202
156.8598,161.9699
156.8598,161.9699
156.8598,161.9699
156.6878,161.8449
156.4984,161.7484
156.2962,161.6828
156.0863,161.6495
155.8737,161.6495
155.6638,161.6828
155.6638,161.6828
155.6638,161.6828
155.4616,161.7484
155.4616,161.7484
155.2722,161.8450
155.1002,161.9699
155.1002,161.9699
154.9499,162.1202
154.9499,162.1202
154.8249,162.2922
154.8223,162.2975
154.7735,162.3491
154.7046,162.3661
154.6374,162.3432
154.5977,162.2975
154.5952,162.2925
154.5951,162.2922
154.4701,162.1202
154.4701,162.1202
154.4701,162.1202
154.3198,161.9699
154.3198,161.9699
154.3198,161.9699
154.1478,161.8449
153.9584,161.7484
153.7562,161.6828
153.5463,161.6495
153.3337,161.6495
153.1238,161.6828
153.1238,161.6828
153.1238,161.6828
152.9216,161.7484
152.9216,161.7484
152.7322,161.8450
152.5602,161.9699
152.5602,161.9699
152.4099,162.1202
152.4099,162.1202
152.2849,162.2922
152.2823,162.2975
152.2335,162.3491
152.1646,162.3661
152.0974,162.3432
152.0577,162.2975
152.0552,162.2925
152.0551,162.2922
151.9301,162.1202
151.9301,162.1202
151.9301,162.1202
151.7798,161.9699
151.7798,161.9699
151.7798,161.9699
151.6078,161.8449
151.4184,161.7484
151.2162,161.6828
151.0063,161.6495
150.7937,161.6495
150.5838,161.6828
150.5838,161.6828
150.5838,161.6828
150.3816,161.7484
150.3816,161.7484
150.1922,161.8450
150.0202,161.9699
150.0202,161.9699
149.8699,162.1202
149.8699,162.1202
149.7449,162.2922
149.7423,162.2975
149.6935,162.3491
149.6246,162.3661
149.5574,162.3432
149.5177,162.2975
149.5152,162.2925
149.5151,162.2922
149.3901,162.1202
149.3901,162.1202
149.3901,162.1202
149.2398,161.9699
149.2398,161.9699
149.2398,161.9699
149.0678,161.8449
148.8784,161.7484
148.6762,161.6828
148.4663,161.6495
148.2537,161.6495
148.0438,161.6828
148.0438,161.6828
148.0438,161.6828
147.8416,161.7484
147.8416,161.7484
147.6522,161.8450
147.4802,161.9699
147.4802,161.9699
147.3299,162.1202
147.3299,162.1202
147.2049,162.2922
147.2023,162.2975
147.1535,162.3491
147.0846,162.3661
147.0174,162.3432
146.9777,162.2975
146.9752,162.2925
146.9751,162.2922
146.8501,162.1202
146.8501,162.1202
146.8501,162.1202
146.6998,161.9699
146.6998,161.9699
146.6998,161.9699
146.5278,161.8449
146.3384,161.7484
146.1362,161.6828
145.9263,161.6495
145.7137,161.6495
145.5038,161.6828
145.5038,161.6828
145.5038,161.6828
145.3016,161.7484
145.3016,161.7484
145.1122,161.8450
144.9402,161.9699
144.9402,161.9699
144.7899,162.1202
144.7899,162.1202
144.6649,162.2922
144.6623,162.2975
144.6135,162.3491
144.5446,162.3661
144.4774,162.3432
144.4377,162.2975
144.4352,162.2925
144.4351,162.2922
144.3101,162.1202
144.3101,162.1202
144.3101,162.1202
144.1598,161.9699
144.1598,161.9699
144.1598,161.9699
143.9878,161.8449
143.7984,161.7484
143.5962,161.6828
143.3863,161.6495
143.1737,161.6495
142.9638,161.6828
142.9638,161.6828
142.9638,161.6828
142.7616,161.7484
142.7616,161.7484
142.5722,161.8450
142.4002,161.9699
142.4002,161.9699
142.2499,162.1202
142.2499,162.1202
142.1249,162.2922
142.1223,162.2975
142.0735,162.3491
142.0046,162.3661
141.9374,162.3432
141.8977,162.2975
141.8952,162.2925
141.8951,162.2922
141.7701,162.1202
141.7701,162.1202
141.7701,162.1202
141.6198,161.9699
141.6198,161.9699
141.6198,161.9699
141.4478,161.8449
141.2584,161.7484
141.0562,161.6828
140.8463,161.6495
140.6337,161.6495
140.4238,161.6828
140.4238,161.6828
140.4238,161.6828
140.2216,161.7484
140.2216,161.7484
140.0322,161.8450
139.8602,161.9699
139.8602,161.9699
139.7099,162.1202
139.7099,162.1202
139.5849,162.2922
139.5823,162.2975
139.5335,162.3491
139.4646,162.3661
139.3974,162.3432
139.3577,162.2975
139.3552,162.2925
139.3551,162.2922
139.2301,162.1202
139.2301,162.1202
139.2301,162.1202
139.0798,161.9699
139.0798,161.9699
139.0798,161.9699
138.9078,161.8449
138.7184,161.7484
138.5162,161.6828
138.3063,161.6495
138.0937,161.6495
137.8838,161.6828
137.8838,161.6828
137.8838,161.6828
137.6816,161.7484
137.6816,161.7484
137.4922,161.8450
137.3202,161.9699
137.3202,161.9699
137.1699,162.1202
137.1699,162.1202
137.0449,162.2922
137.0423,162.2975
136.9935,162.3491
136.9246,162.3661
136.8574,162.3432
136.8177,162.2975
136.8152,162.2925
136.8151,162.2922
136.6901,162.1202
136.6901,162.1202
136.6901,162.1202
136.5398,161.9699
136.5398,161.9699
136.5398,161.9699
136.3678,161.8449
136.1784,161.7484
135.9762,161.6828
135.7663,161.6495
135.5537,161.6495
135.3438,161.6828
135.3438,161.6828
135.3438,161.6828
135.1416,161.7484
135.1416,161.7484
134.9522,161.8450
134.7802,161.9699
134.7802,161.9699
134.6299,162.1202
134.6299,162.1202
134.5049,162.2922
134.5023,162.2975
134.4535,162.3491
134.3846,162.3661
134.3174,162.3432
134.2777,162.2975
134.2752,162.2925
134.2751,162.2922
134.1501,162.1202
134.1501,162.1202
134.1501,162.1202
133.9998,161.9699
133.9998,161.9699
133.9998,161.9699
133.8278,161.8449
133.6384,161.7484
133.4362,161.6828
133.2263,161.6495
133.0137,161.6495
132.8038,161.6828
132.8038,161.6828
132.8038,161.6828
132.6016,161.7484
132.6016,161.7484
132.4122,161.8450
132.2402,161.9699
132.2402,161.9699
132.0899,162.1202
132.0899,162.1202
131.9649,162.2922
131.9623,162.2975
131.9135,162.3491
131.8446,162.3661
131.7774,162.3432
131.7377,162.2975
131.7352,162.2925
131.7351,162.2922
131.6101,162.1202
131.6101,162.1202
131.6101,162.1202
131.4598,161.9699
131.4598,161.9699
131.4598,161.9699
131.2878,161.8449
131.0984,161.7484
130.8962,161.6828
130.6863,161.6495
130.4737,161.6495
130.2638,161.6828
130.2638,161.6828
130.2638,161.6828
130.0616,161.7484
130.0616,161.7484
129.8722,161.8450
129.7002,161.9699
129.7002,161.9699
129.5499,162.1202
129.5499,162.1202
129.4249,162.2922
129.4223,162.2975
129.3735,162.3491
129.3046,162.3661
129.2374,162.3432
129.1977,162.2975
129.1952,162.2925
129.1951,162.2922
129.0701,162.1202
129.0701,162.1202
129.0701,162.1202
128.9198,161.9699
128.9198,161.9699
128.9198,161.9699
128.7478,161.8449
128.5584,161.7484
128.3562,161.6828
128.1463,161.6495
127.9337,161.6495
127.7238,161.6828
127.7238,161.6828
127.7238,161.6828
127.5216,161.7484
127.5216,161.7484
127.3322,161.8450
127.1602,161.9699
127.1602,161.9699
127.0099,162.1202
127.0099,162.1202
126.8849,162.2922
126.8823,162.2975
126.8335,162.3491
126.7646,162.3661
126.6974,162.3432
126.6577,162.2975
126.6552,162.2925
126.6551,162.2922
126.5301,162.1202
126.5301,162.1202
126.5301,162.1202
126.3798,161.9699
126.3798,161.9699
126.3798,161.9699
126.2078,161.8449
126.0184,161.7484
125.8162,161.6828
125.6063,161.6495
125.3937,161.6495
125.1838,161.6828
125.1838,161.6828
125.1838,161.6828
124.9816,161.7484
124.9816,161.7484
124.7922,161.8450
124.6202,161.9699
124.6202,161.9699
124.4699,162.1202
124.4699,162.1202
124.3449,162.2922
124.3423,162.2975
124.2935,162.3491
124.2246,162.3661
124.1574,162.3432
124.1177,162.2975
124.1152,162.2925
124.1151,162.2922
123.9901,162.1202
123.9901,162.1202
123.9901,162.1202
123.8398,161.9699
123.8398,161.9699
123.8398,161.9699
123.6678,161.8449
123.4784,161.7484
123.2762,161.6828
123.0663,161.6495
122.8537,161.6495
122.6438,161.6828
122.6438,161.6828
122.6438,161.6828
122.4416,161.7484
122.4416,161.7484
122.2522,161.8450
122.0802,161.9699
122.0802,161.9699
121.9299,162.1202
121.9299,162.1202
121.8049,162.2922
121.8023,162.2975
121.7535,162.3491
121.6846,162.3661
121.6174,162.3432
121.5777,162.2975
121.5752,162.2925
121.5751,162.2922
121.4501,162.1202
121.4501,162.1202
121.4501,162.1202
121.2998,161.9699
121.2998,161.9699
121.2998,161.9699
121.1278,161.8449
120.9384,161.7484
120.7362,161.6828
120.5263,161.6495
120.3137,161.6495
120.1038,161.6828
120.1038,161.6828
120.1038,161.6828
119.9016,161.7484
119.9016,161.7484
119.7122,161.8450
119.5402,161.9699
119.5402,161.9699
119.3899,162.1202
119.3899,162.1202
119.2649,162.2922
119.2623,162.2975
119.2135,162.3491
119.1446,162.3661
119.0774,162.3432
119.0377,162.2975
119.0352,162.2925
119.0351,162.2922
118.9101,162.1202
118.9101,162.1202
118.9101,162.1202
118.7598,161.9699
118.7598,161.9699
118.7598,161.9699
118.5878,161.8449
118.3984,161.7484
118.1962,161.6828
117.9863,161.6495
117.7737,161.6495
117.5638,161.6828
117.5638,161.6828
117.5638,161.6828
117.3616,161.7484
117.3616,161.7484
117.1722,161.8450
117.0002,161.9699
117.0002,161.9699
116.8499,162.1202
116.8499,162.1202
116.7249,162.2922
116.7223,162.2975
116.6735,162.3491
116.6046,162.3661
116.5374,162.3432
116.4977,162.2975
116.4952,162.2925
116.4951,162.2922
116.3701,162.1202
116.3701,162.1202
116.3701,162.1202
116.2198,161.9699
116.2198,161.9699
116.2198,161.9699
116.0478,161.8449
115.8584,161.7484
115.6562,161.6828
115.4463,161.6495
115.2337,161.6495
115.0238,161.6828
115.0238,161.6828
115.0238,161.6828
114.8216,161.7484
114.8216,161.7484
114.6322,161.8450
114.4602,161.9699
114.4602,161.9699
114.3099,162.1202
114.3099,162.1202
114.1849,162.2922
114.1823,162.2975
114.1335,162.3491
114.0646,162.3661
113.9974,162.3432
113.9577,162.2975
113.9552,162.2925
113.9551,162.2922
113.8301,162.1202
113.8301,162.1202
113.8301,162.1202
113.6798,161.9699
113.6798,161.9699
113.6798,161.9699
113.5078,161.8449
113.3184,161.7484
113.1162,161.6828
112.9063,161.6495
112.6937,161.6495
112.4838,161.6828
112.4838,161.6828
112.4838,161.6828
112.2816,161.7484
112.2816,161.7484
112.0922,161.8450
111.9202,161.9699
111.9202,161.9699
111.7699,162.1202
111.7699,162.1202
111.6449,162.2922
111.6423,162.2975
111.5935,162.3491
111.5246,162.3661
111.4574,162.3432
111.4177,162.2975
111.4152,162.2925
111.4151,162.2922
111.2901,162.1202
111.2901,162.1202
111.2901,162.1202
111.1398,161.9699
111.1398,161.9699
111.1398,161.9699
110.9678,161.8449
110.7784,161.7484
110.5762,161.6828
110.3663,161.6495
110.1537,161.6495
109.9438,161.6828
109.9438,161.6828
109.9438,161.6828
109.7416,161.7484
109.7416,161.7484
109.5522,161.8450
109.3802,161.9699
109.3802,161.9699
109.2299,162.1202
109.2299,162.1202
109.1049,162.2922
109.1023,162.2975
109.0535,162.3491
108.9846,162.3661
108.9174,162.3432
108.8777,162.2975
108.8752,162.2925
108.8751,162.2922
108.7501,162.1202
108.7501,162.1202
108.7501,162.1202
108.5998,161.9699
108.5998,161.9699
108.5998,161.9699
108.4278,161.8449
108.2384,161.7484
108.0362,161.6828
107.8263,161.6495
107.6137,161.6495
107.4038,161.6828
107.4038,161.6828
107.4038,161.6828
107.2016,161.7484
107.2016,161.7484
107.0122,161.8450
106.8402,161.9699
106.8402,161.9699
106.6899,162.1202
106.6899,162.1202
106.5649,162.2922
106.5623,162.2975
106.5135,162.3491
106.4446,162.3661
106.3774,162.3432
106.3377,162.2975
106.3352,162.2925
106.3351,162.2922
106.2101,162.1202
106.2101,162.1202
106.2101,162.1202
106.0598,161.9699
106.0598,161.9699
106.0598,161.9699
105.8878,161.8449
105.6984,161.7484
105.4962,161.6828
105.2863,161.6495
105.0737,161.6495
104.9066,161.6760
104.8362,161.6669
104.7978,161.6406
101.2279,158.0707
101.1939,158.0084
101.1910,157.9816
101.1910,154.7721
101.2110,154.7040
101.2122,154.7022
101.2474,154.6495
101.3110,154.4960
101.3434,154.3331
101.3434,154.1669
101.3284,154.0916
101.3347,154.0209
101.3783,153.9648
101.4452,153.9412
101.4520,153.9410
118.2116,153.9410
118.2797,153.9610
118.3007,153.9779
122.9422,158.6194
122.9762,158.6817
122.9767,158.6839
122.9890,158.7460
123.0526,158.8995
123.0829,158.9449
123.1449,159.0376
123.1449,159.0376
123.2624,159.1551
123.2624,159.1551
123.4005,159.2474
123.5540,159.3110
123.7169,159.3434
123.7169,159.3434
123.8831,159.3434
123.8831,159.3434
124.0460,159.3110
124.1995,159.2474
124.3376,159.1551
124.4551,159.0376
124.5474,158.8995
124.6110,158.7460
124.6434,158.5831
124.6434,158.4169
124.6110,158.2540
124.5474,158.1005
124.4551,157.9624
124.4551,157.9624
124.3376,157.8449
124.3376,157.8449
124.2918,157.8143
124.1995,157.7526
124.0460,157.6890
123.9839,157.6767
123.9210,157.6437
123.9194,157.6422
118.9905,152.7133
118.9905,152.7133
118.9800,152.7063
118.8773,152.6376
118.8773,152.6376
118.7516,152.5856
118.7516,152.5856
118.6181,152.5590
118.6181,152.5590
97.5455,152.5590
97.5455,152.5590
97.4120,152.5856
97.4120,152.5856
97.4090,152.5868
97.4007,152.5885
97.3962,152.5913
97.3607,152.5964
97.1393,152.5964
97.0910,152.5868
97.0880,152.5856
97.0880,152.5856
96.9545,152.5590
96.9545,152.5590
87.2291,152.5590
87.2291,152.5590
87.0956,152.5856
87.0956,152.5856
86.9698,152.6376
86.8708,152.7038
86.8031,152.7250
86.7346,152.7063
86.6871,152.6534
86.6748,152.5991
86.6748,151.5886
86.6844,151.5403
86.7069,151.4860
86.7393,151.3231
86.7393,151.2918
86.7593,151.2237
86.8130,151.1772
86.8653,151.1658
87.9779,151.1658
88.0460,151.1858
88.0479,151.1870
88.1005,151.2222
88.2540,151.2858
88.4169,151.3182
88.4169,151.3182
88.5831,151.3182
88.5831,151.3182
88.7460,151.2858
88.8995,151.2222
89.0376,151.1299
89.1551,151.0124
89.2474,150.8743
89.3110,150.7208
89.3330,150.6100
89.3659,150.5471
89.4276,150.5120
89.4566,150.5086
89.9779,150.5086
90.0460,150.5286
90.0479,150.5298
90.1005,150.5650
90.2540,150.6286
90.4169,150.6610
90.4169,150.6610
90.5831,150.6610
90.5831,150.6610
90.7460,150.6286
90.8995,150.5650
91.0376,150.4727
91.1551,150.3552
91.2474,150.2171
91.3110,150.0636
91.3434,149.9007
91.3434,149.7345
91.3110,149.5716
91.2474,149.4181
91.1551,149.2800
91.1551,149.2800
91.0376,149.1625
91.0376,149.1625
90.9540,149.1066
90.8995,149.0702
90.7460,149.0066
90.7211,149.0016
90.5831,148.9742
90.5831,148.9742
90.4169,148.9742
90.4169,148.9742
90.2540,149.0066
90.2540,149.0066
90.1005,149.0702
90.0479,149.1054
89.9801,149.1266
89.9779,149.1266
89.2688,149.1266
89.2007,149.1066
89.1988,149.1054
89.1535,149.0750
89.0742,149.0422
89.0277,149.0230
89.0277,149.0230
88.8942,148.9964
88.8942,148.9964
88.1058,148.9964
88.1058,148.9964
87.9723,149.0230
87.9723,149.0230
87.8465,149.0750
87.8012,149.1054
87.7334,149.1266
87.7312,149.1266
83.7028,149.1266
83.5883,149.1494
83.5883,149.1494
83.5756,149.1519
83.5693,149.1532
83.4435,149.2052
83.3303,149.2809
83.3303,149.2809
81.7010,150.9102
81.6387,150.9442
81.5679,150.9392
81.5228,150.9102
81.4119,150.7993
81.4119,150.7993
81.3582,150.7634
81.2738,150.7070
81.1203,150.6434
80.9573,150.6110
80.9573,150.6110
80.7912,150.6110
80.7912,150.6110
80.6282,150.6434
80.6282,150.6434
80.4748,150.7070
80.4221,150.7422
80.3544,150.7634
80.3521,150.7634
79.5351,150.7634
79.4016,150.7900
79.4016,150.7900
79.2759,150.8421
79.1640,150.9168
79.1627,150.9177
79.1627,150.9177
79.0574,151.0230
78.9950,151.0570
78.9929,151.0575
78.9757,151.0609
78.9307,151.0699
78.9307,151.0699
78.7773,151.1334
78.6391,151.2257
78.6391,151.2257
78.5216,151.3432
78.5216,151.3432
78.4293,151.4813
78.3658,151.6348
78.3658,151.6348
78.3334,151.7978
78.3334,151.7978
78.3334,151.9639
78.3658,152.1269
78.4293,152.2803
78.5216,152.4185
78.5706,152.4675
78.6047,152.5298
78.5996,152.6006
78.5570,152.6574
78.5298,152.6730
78.4569,152.7032
78.4553,152.7038
78.4057,152.7243
78.2676,152.8166
78.2676,152.8166
78.1501,152.9341
78.1501,152.9341
78.0578,153.0723
77.9943,153.2257
77.9942,153.2257
77.9618,153.3887
77.9618,153.5548
77.9786,153.6390
77.9942,153.7178
78.0578,153.8713
78.0853,153.9124
78.1501,154.0094
78.1501,154.0094
78.2676,154.1269
78.2676,154.1269
78.4057,154.2192
78.5592,154.2827
78.7222,154.3152
78.7222,154.3152
78.8883,154.3152
78.8883,154.3152
79.0512,154.2827
79.2047,154.2192
79.3429,154.1269
79.4603,154.0094
79.5526,153.8713
79.6162,153.7178
79.6286,153.6557
79.6615,153.5928
79.6630,153.5912
80.1955,153.0587
80.2229,153.0438
80.2491,153.0269
80.2554,153.0260
80.2578,153.0247
80.2846,153.0218
80.3988,153.0218
80.4669,153.0418
80.5134,153.0955
80.5248,153.1478
80.5248,153.2013
80.5452,153.3038
80.5572,153.3642
80.6208,153.5177
80.6802,153.6066
80.7131,153.6559
80.7131,153.6559
80.8306,153.7733
80.8306,153.7733
80.9687,153.8656
81.1222,153.9292
81.2852,153.9616
81.2852,153.9616
81.4513,153.9616
81.4513,153.9616
81.6142,153.9292
81.7677,153.8656
81.9059,153.7733
82.0233,153.6559
82.1156,153.5177
82.1792,153.3642
82.1916,153.3021
82.2245,153.2392
82.2260,153.2377
84.2832,151.1805
84.3455,151.1465
84.3723,151.1436
84.9265,151.1436
84.9946,151.1636
85.0411,151.2173
85.0525,151.2696
85.0525,151.3231
85.0849,151.4860
85.1485,151.6395
85.2408,151.7776
85.2559,151.7927
85.2899,151.8550
85.2928,151.8818
85.2928,152.9277
85.2728,152.9958
85.2716,152.9977
85.2364,153.0503
85.1728,153.2038
85.1728,153.2038
85.1404,153.3667
85.1404,153.4806
85.1204,153.5487
85.0667,153.5952
85.0144,153.6066
84.9169,153.6066
84.7540,153.6390
84.7540,153.6390
84.6005,153.7026
84.4624,153.7949
84.4624,153.7949
84.3449,153.9124
84.3449,153.9124
84.2526,154.0505
84.1890,154.2040
84.1890,154.2040
84.1566,154.3669
84.1566,154.5331
84.1775,154.6382
84.1890,154.6960
84.2526,154.8495
84.2833,154.8954
84.3449,154.9876
84.3449,154.9876
84.4624,155.1051
84.4624,155.1051
84.6005,155.1974
84.7540,155.2610
84.9169,155.2934
84.9169,155.2934
85.0831,155.2934
85.0831,155.2934
85.2460,155.2610
85.3995,155.1974
85.4521,155.1622
85.5199,155.1410
85.5221,155.1410
86.1652,155.1410
86.2987,155.1144
86.4245,155.0624
86.4582,155.0398
86.5376,154.9867
87.5465,153.9779
87.6088,153.9439
87.6356,153.9410
91.2606,153.9410
91.3287,153.9610
91.3752,154.0147
91.3853,154.0849
91.3842,154.0916
91.3692,154.1669
91.3692,154.1669
91.3692,154.3331
91.4016,154.4960
91.4652,154.6495
91.5051,154.7092
91.5575,154.7876
91.5575,154.7876
91.6750,154.9051
91.6750,154.9051
91.8131,154.9974
91.9666,155.0610
92.1295,155.0934
92.1295,155.0934
92.2957,155.0934
92.2957,155.0934
92.4586,155.0610
92.6121,154.9974
92.6647,154.9622
92.7325,154.9410
92.7347,154.9410
99.6830,154.9410
99.7511,154.9610
99.7976,155.0147
99.8090,155.0670
99.8090,158.3881
99.8182,158.4344
99.8356,158.5216
99.8356,158.5216
99.8761,158.6194
99.8876,158.6473
99.9633,158.7605
100.0533,158.8505
102.8571,161.6543
102.8911,161.7166
102.8940,161.7434
102.8940,162.5693
102.8330,162.5341
102.7058,162.5000
102.5742,162.5000
102.4470,162.5341
102.3860,162.5693
102.3860,161.6653
102.3220,161.6754
102.1187,161.7415
102.1187,161.7415
101.9282,161.8385
101.7553,161.9642
101.6042,162.1153
101.4785,162.2883
101.4781,162.2892
101.4778,162.2895
101.4759,162.2925
101.4753,162.2921
101.4293,162.3408
101.3604,162.3579
101.2932,162.3350
101.2590,162.2955
101.2576,162.2964
101.2551,162.2922
101.2238,162.2492
101.1301,162.1202
101.1301,162.1202
101.1301,162.1202
100.9798,161.9699
100.9798,161.9699
100.9798,161.9699
100.8078,161.8449
100.6184,161.7484
100.4162,161.6828
100.2063,161.6495
99.9937,161.6495
99.7838,161.6828
99.7838,161.6828
99.7838,161.6828
99.5816,161.7484
99.5816,161.7484
99.3922,161.8450
99.2202,161.9699
99.2202,161.9699
99.0699,162.1202
99.0699,162.1202
98.9449,162.2922
98.9423,162.2975
98.8935,162.3491
98.8246,162.3661
98.7574,162.3432
98.7177,162.2975
98.7152,162.2925
98.7151,162.2922
98.5901,162.1202
98.5901,162.1202
98.5901,162.1202
98.4398,161.9699
98.4398,161.9699
98.4398,161.9699
98.2678,161.8449
98.0784,161.7484
97.8762,161.6828
97.6663,161.6495
97.4537,161.6495
97.2438,161.6828
97.2438,161.6828
97.2438,161.6828
97.0416,161.7484
97.0416,161.7484
96.8522,161.8450
96.6802,161.9699
96.6802,161.9699
96.5299,162.1202
96.5299,162.1202
96.4049,162.2922
96.4023,162.2975
96.3535,162.3491
96.2846,162.3661
96.2174,162.3432
96.1777,162.2975
96.1752,162.2925
96.1751,162.2922
96.0501,162.1202
96.0501,162.1202
96.0501,162.1202
95.8998,161.9699
95.8998,161.9699
95.8998,161.9699
95.7278,161.8449
95.5384,161.7484
95.3362,161.6828
95.1263,161.6495
94.9137,161.6495
94.7038,161.6828
94.7038,161.6828
94.7038,161.6828
94.5016,161.7484
94.5016,161.7484
94.3122,161.8450
94.1402,161.9699
94.1402,161.9699
93.9899,162.1202
93.9899,162.1202
93.8649,162.2922
93.8623,162.2975
93.8135,162.3491
93.7446,162.3661
93.6774,162.3432
93.6377,162.2975
93.6352,162.2925
93.6351,162.2922
93.5101,162.1202
93.5101,162.1202
93.5101,162.1202
93.3598,161.9699
93.3598,161.9699
93.3598,161.9699
93.1878,161.8449
92.9984,161.7484
92.7962,161.6828
92.5863,161.6495
92.3737,161.6495
92.1638,161.6828
92.1638,161.6828
92.1638,161.6828
91.9616,161.7484
91.9616,161.7484
91.7722,161.8450
91.6002,161.9699
91.6002,161.9699
91.4499,162.1202
91.4499,162.1202
91.3249,162.2922
91.3223,162.2975
91.2735,162.3491
91.2046,162.3661
91.1374,162.3432
91.0977,162.2975
91.0952,162.2925
91.0951,162.2922
90.9701,162.1202
90.9701,162.1202
90.9701,162.1202
90.8198,161.9699
90.8198,161.9699
90.8198,161.9699
90.6478,161.8449
90.4584,161.7484
90.2562,161.6828
90.0463,161.6495
89.8337,161.6495
89.6238,161.6828
89.6238,161.6828
89.6238,161.6828
89.4216,161.7484
89.4216,161.7484
89.2322,161.8450
89.0602,161.9699
89.0602,161.9699
88.9099,162.1202
88.9099,162.1202
88.7849,162.2922
88.7823,162.2975
88.7335,162.3491
88.6646,162.3661
88.5974,162.3432
88.5577,162.2975
88.5552,162.2925
88.5551,162.2922
88.4301,162.1202
88.4301,162.1202
88.4301,162.1202
88.2798,161.9699
88.2798,161.9699
88.2798,161.9699
88.1078,161.8449
87.9184,161.7484
87.7162,161.6828
87.5063,161.6495
87.2937,161.6495
87.0838,161.6828
87.0838,161.6828
87.0838,161.6828
86.8816,161.7484
86.8816,161.7484
86.6922,161.8450
86.5202,161.9699
86.5202,161.9699
86.3699,162.1202
86.3699,162.1202
86.2449,162.2922
86.2423,162.2975
86.1935,162.3491
86.1246,162.3661
86.0574,162.3432
86.0177,162.2975
86.0152,162.2925
86.0151,162.2922
85.8901,162.1202
85.8901,162.1202
85.8901,162.1202
85.7398,161.9699
85.7398,161.9699
85.7398,161.9699
85.5678,161.8449
85.3784,161.7484
85.1762,161.6828
84.9663,161.6495
84.7537,161.6495
84.5438,161.6828
84.5438,161.6828
84.5438,161.6828
84.3416,161.7484
84.3416,161.7484
84.1522,161.8450
83.9802,161.9699
83.9802,161.9699
83.8299,162.1202
83.8299,162.1202
83.7049,162.2922
83.7023,162.2975
83.6535,162.3491
83.5846,162.3661
83.5174,162.3432
83.4777,162.2975
83.4752,162.2925
83.4751,162.2922
83.3501,162.1202
83.3501,162.1202
83.3501,162.1202
83.1998,161.9699
83.1998,161.9699
83.1998,161.9699
83.0278,161.8449
82.8384,161.7484
82.6362,161.6828
82.4263,161.6495
82.2137,161.6495
82.0038,161.6828
82.0038,161.6828
82.0038,161.6828
81.8016,161.7484
81.8016,161.7484
81.6122,161.8450
81.4402,161.9699
81.4402,161.9699
81.2899,162.1202
81.2899,162.1202
81.1649,162.2922
81.1623,162.2975
81.1135,162.3491
81.0446,162.3661
80.9774,162.3432
80.9377,162.2975
80.9352,162.2925
80.9351,162.2922
80.8101,162.1202
80.8101,162.1202
80.8101,162.1202
80.6598,161.9699
80.6598,161.9699
80.6598,161.9699
80.4878,161.8449
80.2984,161.7484
80.0962,161.6828
79.8863,161.6495
79.6737,161.6495
79.4638,161.6828
79.4638,161.6828
79.4638,161.6828
79.2616,161.7484
79.2616,161.7484
79.0722,161.8450
78.9002,161.9699
78.9002,161.9699
78.7499,162.1202
78.7499,162.1202
78.6249,162.2922
78.6223,162.2975
78.5735,162.3491
78.5046,162.3661
78.4374,162.3432
78.3977,162.2975
78.3952,162.2925
78.3951,162.2922
78.2701,162.1202
78.2701,162.1202
78.2701,162.1202
78.1198,161.9699
78.1198,161.9699
78.1198,161.9699
77.9478,161.8449
77.7584,161.7484
77.5562,161.6828
77.3463,161.6495
77.1337,161.6495
76.9238,161.6828
76.9238,161.6828
76.9238,161.6828
76.7216,161.7484
76.7216,161.7484
76.5322,161.8450
76.3602,161.9699
76.3602,161.9699
76.2099,162.1202
76.2099,162.1202
76.0849,162.2922
76.0823,162.2975
76.0335,162.3491
75.9646,162.3661
75.8974,162.3432
75.8577,162.2975
75.8552,162.2925
75.8551,162.2922
75.7301,162.1202
75.7301,162.1202
75.7301,162.1202
75.5798,161.9699
75.5798,161.9699
75.5798,161.9699
75.4078,161.8449
75.2184,161.7484
75.0162,161.6828
74.8063,161.6495
74.5937,161.6495
74.3838,161.6828
74.3838,161.6828
74.3838,161.6828
74.1816,161.7484
74.1816,161.7484
73.9922,161.8450
73.8202,161.9699
73.8202,161.9699
73.6699,162.1202
73.6699,162.1202
73.5449,162.2922
73.5423,162.2975
73.4935,162.3491
73.4246,162.3661
73.3574,162.3432
73.3177,162.2975
73.3152,162.2925
73.3151,162.2922
73.1901,162.1202
73.1901,162.1202
73.1901,162.1202
73.0398,161.9699
73.0398,161.9699
73.0398,161.9699
72.8678,161.8449
72.6784,161.7484
72.4762,161.6828
72.2663,161.6495
72.0537,161.6495
71.8438,161.6828
71.8438,161.6828
71.8438,161.6828
71.6416,161.7484
71.6416,161.7484
71.4522,161.8450
71.2802,161.9699
71.2802,161.9699
71.1299,162.1202
71.1299,162.1202
71.0049,162.2922
71.0023,162.2975
70.9535,162.3491
70.8846,162.3661
70.8174,162.3432
70.7777,162.2975
70.7752,162.2925
70.7751,162.2922
70.6501,162.1202
70.6501,162.1202
70.6501,162.1202
70.4998,161.9699
70.4998,161.9699
70.4998,161.9699
70.3278,161.8449
70.1384,161.7484
69.9362,161.6828
69.7263,161.6495
69.5137,161.6495
69.3038,161.6828
69.3038,161.6828
69.3038,161.6828
69.1016,161.7484
69.1016,161.7484
68.9122,161.8450
68.7402,161.9699
68.7402,161.9699
68.5899,162.1202
68.5899,162.1202
68.4649,162.2922
68.4623,162.2975
68.4135,162.3491
68.3446,162.3661
68.2774,162.3432
68.2377,162.2975
68.2352,162.2925
68.2351,162.2922
68.1101,162.1202
68.1101,162.1202
68.1101,162.1202
67.9598,161.9699
67.9598,161.9699
67.9598,161.9699
67.7878,161.8449
67.5984,161.7484
67.3962,161.6828
67.1863,161.6495
66.9737,161.6495
66.7638,161.6828
66.7638,161.6828
66.7638,161.6828
66.5616,161.7484
66.5616,161.7484
66.3722,161.8450
66.2002,161.9699
66.2002,161.9699
66.0499,162.1202
66.0499,162.1202
65.9249,162.2922
65.9223,162.2975
65.8735,162.3491
65.8046,162.3661
65.7374,162.3432
65.6977,162.2975
65.6952,162.2925
65.6951,162.2922
65.5701,162.1202
65.5701,162.1202
65.5701,162.1202
65.4198,161.9699
65.4198,161.9699
65.4198,161.9699
65.2478,161.8449
65.0584,161.7484
64.8562,161.6828
64.6463,161.6495
64.4337,161.6495
64.2238,161.6828
64.2238,161.6828
64.2238,161.6828
64.0216,161.7484
64.0216,161.7484
63.8322,161.8450
63.6602,161.9699
63.5489,162.0812
63.4866,162.1153
63.4157,162.1102
63.3589,162.0676
63.3417,162.0362
63.2938,161.9077
63.2938,161.9077
63.2938,161.9077
63.2306,161.8233
63.2075,161.7925
63.1030,161.7142
63.0923,161.7062
63.0923,161.7062
63.0923,161.7062
62.9575,161.6559
62.9575,161.6559
62.8979,161.6495
61.1021,161.6495
61.1021,161.6495
61.0425,161.6559
61.0425,161.6559
60.9077,161.7062
60.9077,161.7062
60.7924,161.7925
60.7906,161.7943
60.7883,161.7956
60.7852,161.7979
60.7849,161.7974
60.7283,161.8283
60.6575,161.8233
60.6006,161.7807
60.5758,161.7142
60.5755,161.7052
60.5755,143.3537
61.1095,143.3537
61.1095,143.5663
61.1428,143.7762
61.2084,143.9784
61.3049,144.1678
61.4299,144.3398
61.4299,144.3398
61.4299,144.3398
61.5802,144.4901
61.5802,144.4901
61.5802,144.4901
61.7522,144.6151
61.7553,144.6166
61.7575,144.6177
61.8091,144.6665
61.8261,144.7354
61.8032,144.8026
61.7575,144.8423
61.7522,144.8449
61.5802,144.9699
61.5802,144.9699
61.4299,145.1202
61.4299,145.1202
61.3050,145.2922
61.2084,145.4816
61.2084,145.4816
61.1435,145.6814
61.1428,145.6838
61.1095,145.8937
61.1095,146.1063
61.1428,146.3162
61.2084,146.5184
61.3049,146.7078
61.4299,146.8798
61.4299,146.8798
61.4299,146.8798
61.5802,147.0301
61.5802,147.0301
61.5802,147.0301
61.7522,147.1551
61.7553,147.1566
61.7575,147.1577
61.8091,147.2065
61.8261,147.2754
61.8032,147.3426
61.7575,147.3823
61.7522,147.3849
61.5802,147.5099
61.5802,147.5099
61.4299,147.6602
61.4299,147.6602
61.3050,147.8322
61.3049,147.8322
61.2084,148.0216
61.1428,148.2238
61.1095,148.4337
61.1095,148.6463
61.1428,148.8562
61.2084,149.0584
61.3049,149.2478
61.4299,149.4198
61.4299,149.4198
61.4299,149.4198
61.5802,149.5701
61.5802,149.5701
61.5802,149.5701
61.7522,149.6951
61.7553,149.6966
61.7575,149.6977
61.8091,149.7465
61.8261,149.8154
61.8032,149.8826
61.7575,149.9223
61.7522,149.9249
61.5802,150.0499
61.5802,150.0499
61.4299,150.2002
61.4299,150.2002
61.3050,150.3722
61.2084,150.5616
61.2084,150.5616
61.1498,150.7422
61.1428,150.7638
61.1095,150.9737
61.1095,151.1863
61.1428,151.3962
61.2084,151.5984
61.3049,151.7878
61.3050,151.7878
61.3122,151.7978
61.4299,151.9598
61.4299,151.9598
61.4299,151.9598
61.5802,152.1101
61.5802,152.1101
61.5802,152.1101
61.7522,152.2351
61.7553,152.2366
61.7575,152.2377
61.8091,152.2865
61.8261,152.3554
61.8032,152.4226
61.7575,152.4623
61.7522,152.4649
61.5802,152.5899
61.5802,152.5899
61.4299,152.7402
61.4299,152.7402
61.3050,152.9122
61.3049,152.9122
61.2084,153.1016
61.1428,153.3038
61.1095,153.5137
61.1095,153.7263
61.1428,153.9362
61.2084,154.1384
61.3049,154.3278
61.4299,154.4998
61.4299,154.4998
61.4299,154.4998
61.5802,154.6501
61.5802,154.6501
61.5802,154.6501
61.7522,154.7751
61.7535,154.7757
61.7575,154.7777
61.8091,154.8265
61.8261,154.8954
61.8032,154.9626
61.7575,155.0023
61.7522,155.0049
61.5802,155.1299
61.5802,155.1299
61.4299,155.2802
61.4299,155.2802
61.3050,155.4522
61.3049,155.4522
61.2084,155.6416
61.1428,155.8438
61.1095,156.0537
61.1095,156.2663
61.1428,156.4762
61.2084,156.6784
61.3049,156.8678
61.4299,157.0398
61.4299,157.0398
61.4299,157.0398
61.5802,157.1901
61.5802,157.1901
61.5802,157.1901
61.7522,157.3151
61.9416,157.4116
62.1438,157.4772
62.3537,157.5105
62.3537,157.5105
62.5663,157.5105
62.5663,157.5105
62.7762,157.4772
62.9784,157.4116
63.1678,157.3151
63.3398,157.1901
63.4511,157.0788
63.5134,157.0447
63.5843,157.0498
63.6411,157.0924
63.6583,157.1238
63.7062,157.2523
63.7062,157.2523
63.7925,157.3675
63.8501,157.4107
63.9077,157.4538
63.9077,157.4538
63.9077,157.4538
63.9680,157.4763
64.0425,157.5041
64.0425,157.5041
64.1021,157.5105
65.8979,157.5105
65.9575,157.5041
66.0923,157.4538
66.2075,157.3675
66.2938,157.2523
66.3441,157.1175
66.3505,157.0579
66.3505,155.2621
66.3441,155.2025
66.3170,155.1299
66.2938,155.0677
66.2938,155.0677
66.2938,155.0677
66.2339,154.9876
66.2075,154.9525
66.1169,154.8846
66.0923,154.8662
66.0923,154.8662
66.0923,154.8662
65.9638,154.8183
65.9070,154.7757
65.8822,154.7092
65.8973,154.6398
65.9188,154.6111
66.0301,154.4998
66.1551,154.3278
66.2516,154.1384
66.3172,153.9362
66.3505,153.7263
66.3505,153.5137
66.3172,153.3038
66.2516,153.1016
66.1551,152.9122
66.0301,152.7402
66.0301,152.7402
66.0301,152.7402
65.8798,152.5899
65.8798,152.5899
65.8798,152.5899
65.7078,152.4649
65.7026,152.4623
65.6509,152.4135
65.6339,152.3446
65.6568,152.2774
65.7026,152.2377
65.7078,152.2351
65.8798,152.1101
66.0301,151.9598
66.1551,151.7878
66.2516,151.5984
66.3172,151.3962
66.3505,151.1863
66.3505,150.9737
66.3172,150.7638
66.2516,150.5616
66.1551,150.3722
66.0301,150.2002
66.0301,150.2002
66.0301,150.2002
65.8798,150.0499
65.8798,150.0499
65.8798,150.0499
65.7078,149.9249
65.7026,149.9223
65.6509,149.8735
65.6339,149.8046
65.6568,149.7374
65.7026,149.6977
65.7078,149.6951
65.8798,149.5701
66.0301,149.4198
66.1551,149.2478
66.2516,149.0584
66.3172,148.8562
66.3505,148.6463
66.3505,148.4337
66.3172,148.2238
66.2516,148.0216
66.1551,147.8322
66.0301,147.6602
66.0301,147.6602
66.0301,147.6602
65.8798,147.5099
65.8798,147.5099
65.8798,147.5099
65.7078,147.3849
65.7026,147.3823
65.6509,147.3335
65.6339,147.2646
65.6568,147.1974
65.7026,147.1577
65.7078,147.1551
65.8798,147.0301
66.0301,146.8798
66.1551,146.7078
66.2516,146.5184
66.3172,146.3162
66.3505,146.1063
66.3505,145.8937
66.3172,145.6838
66.2516,145.4816
66.1551,145.2922
66.0301,145.1202
66.0301,145.1202
66.0301,145.1202
65.8798,144.9699
65.8798,144.9699
65.8798,144.9699
65.7078,144.8449
65.7026,144.8423
65.6932,144.8335
65.6814,144.8287
65.6679,144.8096
65.6509,144.7935
65.6479,144.7811
65.6405,144.7706
65.6395,144.7473
65.6356,144.7317
72.1132,144.7317
72.1132,144.8979
72.1199,144.9314
72.1456,145.0607
72.1456,145.0608
72.1456,145.0608
72.2092,145.2143
72.2092,145.2143
72.2092,145.2143
72.2444,145.2669
72.2656,145.3347
72.2656,145.3369
72.2656,154.6382
72.2922,154.7717
72.2922,154.7717
72.3244,154.8495
72.3442,154.8975
72.4161,155.0050
72.4199,155.0106
72.4199,155.0106
77.5460,160.1367
77.5460,160.1367
77.5460,160.1367
77.6255,160.1898
77.6591,160.2124
77.7849,160.2644
77.9184,160.2910
82.4153,160.2910
82.4834,160.3110
82.4853,160.3122
82.5379,160.3474
82.6914,160.4110
82.8543,160.4434
82.8543,160.4434
83.0205,160.4434
83.0205,160.4434
83.1834,160.4110
83.3369,160.3474
83.4750,160.2551
83.5925,160.1376
83.6848,159.9995
83.7484,159.8460
83.7808,159.6831
83.7808,159.5169
83.7484,159.3540
83.6848,159.2005
83.5925,159.0624
83.5925,159.0624
83.4750,158.9449
83.4750,158.9449
83.3914,158.8890
83.3369,158.8526
83.1834,158.7890
83.0205,158.7566
83.0205,158.7566
82.8543,158.7566
82.8543,158.7566
82.6914,158.7890
82.6914,158.7890
82.5379,158.8526
82.4853,158.8878
82.4175,158.9090
82.4153,158.9090
78.3249,158.9090
78.2567,158.8890
78.2358,158.8721
73.6845,154.3208
73.6505,154.2585
73.6476,154.2317
73.6476,145.3369
73.6530,145.3185
73.6530,145.3169
115.8566,145.3169
115.8566,145.4831
115.8695,145.5479
115.8890,145.6460
115.9526,145.7995
115.9981,145.8676
116.0449,145.9376
116.0449,145.9376
116.1624,146.0551
116.1624,146.0551
116.3005,146.1474
116.4540,146.2110
116.6169,146.2434
116.6169,146.2434
116.7831,146.2434
116.7831,146.2434
116.9460,146.2110
117.0995,146.1474
117.1521,146.1122
117.2199,146.0910
117.2221,146.0910
118.2959,146.0910
118.4294,146.0644
118.5551,146.0124
118.5650,146.0057
118.6683,145.9367
118.6683,145.9367
118.6771,145.9279
118.7394,145.8939
118.7662,145.8910
119.1125,145.8910
119.1607,145.9006
119.2914,145.9547
119.4543,145.9871
119.4543,145.9871
119.6205,145.9871
119.6205,145.9871
119.7834,145.9547
119.9369,145.8911
120.0750,145.7988
120.1925,145.6814
120.2848,145.5432
120.3484,145.3897
120.3493,145.3850
137.9740,145.3850
137.9740,145.5512
137.9846,145.6043
138.0064,145.7141
138.0700,145.8676
138.1499,145.9871
138.1623,146.0057
138.1623,146.0057
138.2798,146.1232
138.2798,146.1232
138.4179,146.2155
138.5714,146.2791
138.7343,146.3115
138.7343,146.3115
138.9005,146.3115
138.9005,146.3115
139.0634,146.2791
139.2169,146.2155
139.2695,146.1803
139.3373,146.1591
139.3395,146.1591
143.2834,146.1591
143.3515,146.1791
143.3980,146.2328
143.3998,146.2369
143.4133,146.2695
143.4133,146.2695
143.5056,146.4076
143.5056,146.4076
143.6231,146.5251
143.6231,146.5251
143.7612,146.6174
143.9147,146.6810
144.0776,146.7134
144.0776,146.7134
144.2438,146.7134
144.2438,146.7134
144.4067,146.6810
144.5602,146.6174
144.6128,146.5822
144.6806,146.5610
144.6828,146.5610
147.5022,146.5610
147.5703,146.5810
147.6168,146.6347
147.6269,146.7049
147.6257,146.7116
147.6248,146.7163
147.6248,146.8525
147.6514,146.9860
147.6514,146.9860
147.6515,146.9863
147.7034,147.1117
147.7353,147.1594
147.7791,147.2249
147.7791,147.2249
147.8753,147.3211
147.8753,147.3211
147.8753,147.3211
147.9885,147.3968
148.1142,147.4488
148.2477,147.4754
148.2477,147.4754
148.3839,147.4754
148.3839,147.4754
148.5174,147.4488
148.6431,147.3968
148.7116,147.3510
148.7570,147.3322
148.8419,147.3153
148.9954,147.2517
149.1335,147.1594
149.2510,147.0419
149.2859,146.9897
149.3404,146.9442
149.4108,146.9353
149.4389,146.9433
149.4785,146.9597
149.6120,146.9863
150.7718,146.9863
150.8399,147.0063
150.8418,147.0075
150.8944,147.0427
151.0479,147.1063
151.2108,147.1387
151.2108,147.1387
151.3770,147.1387
151.3770,147.1387
151.5399,147.1063
151.6934,147.0427
151.8315,146.9504
151.9490,146.8329
152.0413,146.6948
152.1049,146.5413
152.1373,146.3784
152.1373,146.2122
152.1049,146.0493
152.0413,145.8958
151.9490,145.7577
151.9490,145.7577
151.8315,145.6402
151.8315,145.6402
151.7479,145.5843
151.6934,145.5479
151.5399,145.4843
151.5337,145.4831
151.3770,145.4519
151.3770,145.4519
151.2108,145.4519
151.2108,145.4519
151.0479,145.4843
151.0479,145.4843
150.8944,145.5479
150.8418,145.5831
150.7740,145.6043
150.7718,145.6043
150.0185,145.6043
149.9504,145.5843
149.9294,145.5674
149.4152,145.0532
149.3020,144.9775
149.2835,144.9699
149.1763,144.9255
149.1763,144.9255
149.0428,144.8989
149.0428,144.8989
148.1490,144.8989
148.1490,144.8989
148.0155,144.9255
148.0155,144.9255
147.8898,144.9775
147.7766,145.0532
147.7321,145.0976
147.6877,145.1421
147.6254,145.1761
147.5986,145.1790
144.6828,145.1790
144.6147,145.1590
144.6128,145.1578
144.5602,145.1226
144.4067,145.0590
144.4067,145.0590
144.4067,145.0590
144.3446,145.0467
144.2817,145.0137
144.2802,145.0122
144.1993,144.9314
144.0861,144.8557
143.9604,144.8037
143.9604,144.8037
143.8269,144.7771
143.8269,144.7771
139.3395,144.7771
139.2714,144.7571
139.2695,144.7559
139.2169,144.7207
139.0634,144.6571
139.0634,144.6571
138.9005,144.6247
138.9005,144.6247
138.7343,144.6247
138.7343,144.6247
138.5714,144.6571
138.5714,144.6571
138.4179,144.7207
138.2798,144.8130
138.2798,144.8130
138.1623,144.9305
138.1623,144.9305
138.0700,145.0686
138.0064,145.2221
138.0064,145.2221
137.9740,145.3850
120.3493,145.3850
120.3808,145.2268
120.3808,145.0607
120.3484,144.8977
120.2848,144.7442
120.1925,144.6061
120.1925,144.6061
120.0751,144.4886
120.0750,144.4886
120.0292,144.4580
119.9369,144.3963
119.7834,144.3327
119.6205,144.3003
119.6205,144.3003
119.4543,144.3003
119.4543,144.3003
119.2914,144.3327
119.2914,144.3327
119.1379,144.3963
119.0011,144.4878
118.9333,144.5090
118.9310,144.5090
118.3597,144.5090
118.2473,144.5314
118.2473,144.5314
118.2420,144.5324
118.2262,144.5356
118.2262,144.5356
118.1005,144.5876
117.9873,144.6633
117.9873,144.6633
117.9785,144.6721
117.9162,144.7061
117.8894,144.7090
117.2221,144.7090
117.1540,144.6890
117.1521,144.6878
117.0995,144.6526
116.9460,144.5890
116.9460,144.5890
116.7831,144.5566
116.7831,144.5566
116.6169,144.5566
116.6169,144.5566
116.4540,144.5890
116.4540,144.5890
116.3005,144.6526
116.1624,144.7449
116.1624,144.7449
116.0449,144.8624
116.0449,144.8624
115.9526,145.0005
115.8890,145.1540
115.8890,145.1540
115.8566,145.3169
73.6530,145.3169
73.6534,145.2993
73.6671,145.2706
73.6676,145.2688
73.6688,145.2669
73.6863,145.2407
73.6957,145.2268
73.7040,145.2143
73.7676,145.0608
73.8000,144.8979
73.8000,144.7317
73.7676,144.5688
73.7040,144.4153
73.6117,144.2772
73.6117,144.2772
73.4942,144.1597
73.4942,144.1597
73.4213,144.1109
73.3561,144.0674
73.2026,144.0038
73.0397,143.9714
73.0397,143.9714
72.8735,143.9714
72.8735,143.9714
72.7106,144.0038
72.7106,144.0038
72.5571,144.0674
72.4190,144.1597
72.4190,144.1597
72.3015,144.2772
72.3015,144.2772
72.2092,144.4153
72.1456,144.5688
72.1456,144.5688
72.1132,144.7317
65.6356,144.7317
65.6339,144.7246
65.6380,144.7125
65.6374,144.6997
65.6492,144.6795
65.6568,144.6574
65.6676,144.6480
65.6732,144.6384
65.7026,144.6177
65.7078,144.6151
65.8798,144.4901
66.0301,144.3398
66.1551,144.1678
66.2516,143.9784
66.3172,143.7762
66.3505,143.5663
66.3505,143.3537
66.3172,143.1438
66.2516,142.9416
66.1551,142.7522
66.0301,142.5802
66.0301,142.5802
66.0301,142.5802
65.8798,142.4299
65.8798,142.4299
65.8798,142.4299
65.7078,142.3049
65.5184,142.2084
65.3162,142.1428
65.1063,142.1095
64.8937,142.1095
64.6838,142.1428
64.6838,142.1428
64.6838,142.1428
64.4816,142.2084
64.4816,142.2084
64.2922,142.3050
64.1202,142.4299
64.1202,142.4299
63.9699,142.5802
63.9699,142.5802
63.8449,142.7522
63.8423,142.7575
63.7935,142.8091
63.7246,142.8261
63.6574,142.8032
63.6177,142.7575
63.6150,142.7522
63.6150,142.7522
63.4901,142.5802
63.4901,142.5802
63.4901,142.5802
63.3398,142.4299
63.3398,142.4299
63.3398,142.4299
63.1678,142.3049
62.9784,142.2084
62.7762,142.1428
62.5663,142.1095
62.3537,142.1095
62.1438,142.1428
62.1438,142.1428
62.1438,142.1428
61.9416,142.2084
61.9416,142.2084
61.7522,142.3050
61.5802,142.4299
61.5802,142.4299
61.4299,142.5802
61.4299,142.5802
61.3050,142.7522
61.3049,142.7522
61.2084,142.9416
61.1428,143.1438
61.1095,143.3537
60.5755,143.3537
60.5755,131.2607
63.6815,131.2607
63.6815,131.5033
63.7132,131.7438
63.7759,131.9781
63.7759,131.9781
63.7759,131.9781
63.8688,132.2022
63.8688,132.2022
63.8688,132.2022
63.9901,132.4123
63.9901,132.4123
63.9901,132.4123
64.1377,132.6047
64.1377,132.6047
64.1377,132.6047
64.3093,132.7763
64.3093,132.7763
64.3093,132.7763
64.5017,132.9239
64.5017,132.9239
64.7118,133.0452
64.7118,133.0452
64.7118,133.0452
64.9359,133.1381
65.1702,133.2008
65.1702,133.2008
65.1702,133.2008
65.2322,133.2090
65.4107,133.2325
65.4107,133.2325
65.6533,133.2325
65.6533,133.2325
65.8706,133.2039
65.8938,133.2008
65.8938,133.2008
65.8938,133.2008
66.1281,133.1381
66.3522,133.0452
66.5623,132.9239
66.7547,132.7763
66.9263,132.6047
67.0739,132.4123
67.1952,132.2022
67.2881,131.9781
67.3508,131.7438
67.3825,131.5033
67.3825,131.2607
67.3538,131.0429
67.3508,131.0202
67.3508,131.0202
67.3508,131.0202
67.2881,130.7859
67.1952,130.5618
67.1952,130.5618
67.1952,130.5618
67.0739,130.3517
67.0673,130.3431
66.9263,130.1593
66.9263,130.1593
66.9263,130.1593
66.7547,129.9877
66.7547,129.9877
66.7547,129.9877
66.5623,129.8401
66.5623,129.8401
66.5623,129.8401
66.3522,129.7188
66.3522,129.7188
66.3522,129.7188
66.1281,129.6259
66.1281,129.6259
66.1281,129.6259
65.8938,129.5632
65.6533,129.5315
65.6533,129.5315
65.4107,129.5315
65.4107,129.5315
65.1702,129.5632
64.9359,129.6259
64.9359,129.6259
64.7761,129.6921
64.7118,129.7188
64.7118,129.7188
64.5017,129.8401
64.3093,129.9877
64.3093,129.9877
64.1377,130.1593
64.1377,130.1593
63.9901,130.3517
63.8688,130.5618
63.8688,130.5618
63.7759,130.7859
63.7759,130.7859
63.7132,131.0202
63.6815,131.2607
60.5755,131.2607
60.5755,129.5835
60.5955,129.5153
60.6124,129.4944
65.6898,124.4169
119.6566,124.4169
119.6566,124.5831
119.6783,124.6921
119.6890,124.7460
119.7526,124.8995
119.8143,124.9918
119.8449,125.0376
119.8449,125.0376
119.9624,125.1551
119.9624,125.1551
120.1005,125.2474
120.2540,125.3110
120.4169,125.3434
120.4169,125.3434
120.5831,125.3434
120.5831,125.3434
120.7460,125.3110
120.7460,125.3110
120.7521,125.3098
120.7526,125.3124
120.8120,125.3118
120.8667,125.3440
123.6422,128.1194
123.6762,128.1817
123.6767,128.1839
123.6890,128.2460
123.7526,128.3995
123.8143,128.4918
123.8449,128.5376
123.8449,128.5376
123.9624,128.6551
123.9624,128.6551
124.1005,128.7474
124.2540,128.8110
124.4169,128.8434
124.4169,128.8434
124.5831,128.8434
124.5831,128.8434
124.7460,128.8110
124.8995,128.7474
125.0376,128.6551
125.1551,128.5376
125.2474,128.3995
125.3110,128.2460
125.3434,128.0831
125.3434,127.9169
125.3110,127.7540
125.2474,127.6005
125.1551,127.4624
125.1551,127.4624
125.0376,127.3449
125.0376,127.3449
124.9918,127.3143
124.8995,127.2526
124.7460,127.1890
124.6839,127.1767
124.6210,127.1437
124.6194,127.1422
124.1243,126.6471
147.3185,126.6471
147.3185,128.5429
147.3185,128.5429
147.3249,128.6025
147.3249,128.6025
147.3752,128.7373
147.3993,128.7695
147.4241,128.8360
147.4090,128.9054
147.3993,128.9205
147.3752,128.9527
147.3249,129.0875
147.3185,129.1471
147.3185,131.0429
147.3185,131.0429
147.3249,131.1025
147.3249,131.1025
147.3752,131.2373
147.3752,131.2373
147.4615,131.3525
147.5191,131.3957
147.5767,131.4388
147.5767,131.4388
147.5767,131.4388
147.6370,131.4613
147.7115,131.4891
147.7115,131.4891
147.7711,131.4955
150.3669,131.4955
150.4265,131.4891
150.5613,131.4388
150.6765,131.3525
150.7628,131.2373
150.8131,131.1025
150.8195,131.0429
150.8195,130.0112
153.2185,130.0112
153.2185,130.1788
153.2512,130.3431
153.2700,130.3884
153.3153,130.4979
153.3618,130.5675
153.4084,130.6372
153.4084,130.6372
153.5268,130.7556
153.5268,130.7556
153.6661,130.8487
153.8209,130.9128
153.9852,130.9455
153.9852,130.9455
154.1528,130.9455
154.1528,130.9455
154.3171,130.9128
154.4719,130.8487
154.6112,130.7556
154.7296,130.6372
154.8227,130.4979
154.8868,130.3431
154.9195,130.1788
154.9195,130.0112
154.9195,130.0112
155.7185,130.0112
155.7185,130.1788
155.7512,130.3431
155.7700,130.3884
155.8153,130.4979
155.8618,130.5675
155.9084,130.6372
155.9084,130.6372
156.0268,130.7556
156.0268,130.7556
156.1661,130.8487
156.3209,130.9128
156.4852,130.9455
156.4852,130.9455
156.6528,130.9455
156.6528,130.9455
156.8171,130.9128
156.9719,130.8487
157.1112,130.7556
157.2296,130.6372
157.3227,130.4979
157.3868,130.3431
157.4195,130.1788
157.4195,130.0112
157.3868,129.8469
157.3227,129.6921
157.2296,129.5528
157.2296,129.5528
157.1112,129.4344
157.1112,129.4344
156.9719,129.3413
156.9719,129.3413
156.9719,129.3413
156.8624,129.2960
156.8171,129.2772
156.8171,129.2772
156.8171,129.2772
156.7344,129.2607
156.6528,129.2445
156.6528,129.2445
156.4852,129.2445
156.4852,129.2445
156.3628,129.2688
156.3209,129.2772
156.3209,129.2772
156.3209,129.2772
156.1661,129.3413
156.0268,129.4344
156.0268,129.4344
155.9084,129.5528
155.9084,129.5528
155.8153,129.6921
155.7512,129.8469
155.7185,130.0112
154.9195,130.0112
154.8868,129.8469
154.8227,129.6921
154.7296,129.5528
154.7296,129.5528
154.6112,129.4344
154.6112,129.4344
154.4719,129.3413
154.4719,129.3413
154.4719,129.3413
154.3624,129.2960
154.3171,129.2772
154.3171,129.2772
154.3171,129.2772
154.2344,129.2607
154.1528,129.2445
154.1528,129.2445
153.9852,129.2445
153.9852,129.2445
153.8628,129.2688
153.8209,129.2772
153.8209,129.2772
153.8209,129.2772
153.6661,129.3413
153.5268,129.4344
153.5268,129.4344
153.4084,129.5528
153.4084,129.5528
153.3153,129.6921
153.2512,129.8469
153.2185,130.0112
150.8195,130.0112
150.8195,129.1471
150.8131,129.0875
150.7628,128.9527
150.7387,128.9205
150.7139,128.8540
150.7290,128.7846
150.7387,128.7695
150.7628,128.7373
150.8131,128.6025
150.8195,128.5429
150.8195,126.6471
150.8131,126.5875
150.7918,126.5304
150.7628,126.4527
150.7628,126.4527
150.7628,126.4527
150.7186,126.3936
150.6765,126.3375
150.5996,126.2798
150.5613,126.2512
150.5613,126.2512
150.5613,126.2512
150.4265,126.2009
150.4265,126.2009
150.3669,126.1945
147.7711,126.1945
147.7711,126.1945
147.7115,126.2009
147.7115,126.2009
147.5767,126.2512
147.5767,126.2512
147.4615,126.3375
147.3752,126.4527
147.3752,126.4527
147.3249,126.5875
147.3185,126.6471
124.1243,126.6471
122.4885,125.0112
148.2185,125.0112
148.2185,125.0112
148.2185,125.1788
148.2451,125.3124
148.2512,125.3431
148.2515,125.3440
148.3153,125.4979
148.3153,125.4979
148.4084,125.6372
148.4084,125.6372
148.5268,125.7556
148.5268,125.7556
148.6661,125.8487
148.7944,125.9018
148.8209,125.9128
148.8209,125.9128
148.8209,125.9128
148.9852,125.9455
149.1528,125.9455
149.3171,125.9128
149.4719,125.8487
149.6112,125.7556
149.7296,125.6372
149.8227,125.4979
149.8868,125.3431
149.9195,125.1788
149.9195,125.0112
149.8868,124.8469
149.8227,124.6921
149.7296,124.5528
149.7296,124.5528
149.6112,124.4344
149.6112,124.4344
149.5182,124.3723
149.4719,124.3413
149.3171,124.2772
149.2250,124.2589
149.1678,124.2475
149.1678,124.2475
149.1528,124.2445
148.9852,124.2445
148.9702,124.2475
148.9702,124.2475
148.8722,124.2670
148.8209,124.2772
148.8209,124.2772
148.8209,124.2772
148.6661,124.3413
148.5268,124.4344
148.5268,124.4344
148.4084,124.5528
148.4084,124.5528
148.3153,124.6921
148.2512,124.8469
148.2185,125.0112
122.4885,125.0112
121.4405,123.9633
121.4405,123.9633
121.4391,123.9624
121.3273,123.8876
121.2241,123.8449
121.2016,123.8356
121.2016,123.8356
121.0681,123.8090
121.0681,123.8090
121.0221,123.8090
120.9540,123.7890
120.9521,123.7878
120.8995,123.7526
120.7460,123.6890
120.7460,123.6890
120.5831,123.6566
120.5831,123.6566
120.4169,123.6566
120.4169,123.6566
120.2540,123.6890
120.2540,123.6890
120.1005,123.7526
119.9624,123.8449
119.9624,123.8449
119.8449,123.9624
119.8449,123.9624
119.7526,124.1005
119.6890,124.2540
119.6890,124.2540
119.6566,124.4169
65.6898,124.4169
65.7851,124.3216
68.0634,122.0434
70.9597,119.1471
147.3185,119.1471
147.3185,121.0429
147.3185,121.0429
147.3249,121.1025
147.3249,121.1025
147.3752,121.2373
147.3993,121.2695
147.4241,121.3360
147.4090,121.4054
147.3993,121.4205
147.3752,121.4527
147.3249,121.5875
147.3185,121.6471
147.3185,123.5429
147.3185,123.5429
147.3249,123.6025
147.3249,123.6025
147.3752,123.7373
147.3752,123.7373
147.3752,123.7373
147.4038,123.7756
147.4615,123.8525
147.5083,123.8876
147.5767,123.9388
147.5767,123.9388
147.5767,123.9388
147.6370,123.9613
147.7115,123.9891
147.7115,123.9891
147.7711,123.9955
150.3669,123.9955
150.4265,123.9891
150.5613,123.9388
150.6765,123.8525
150.7186,123.7964
152.6610,123.7964
152.6610,124.8410
153.6690,124.8410
153.6690,125.3490
152.6610,125.3490
152.6610,126.3936
152.6675,126.4541
152.7186,126.5910
152.7186,126.5910
152.8061,126.7079
152.9230,126.7954
153.0599,126.8465
153.1204,126.8530
153.1204,126.8530
153.8150,126.8530
153.8150,125.7567
153.8234,125.7651
153.9146,125.8177
154.0163,125.8450
154.1217,125.8450
154.2234,125.8177
154.3146,125.7651
154.3230,125.7567
154.3230,126.8530
155.0176,126.8530
155.0176,126.8530
155.0781,126.8465
155.2150,126.7954
155.2150,126.7954
155.3319,126.7079
155.4194,126.5910
155.4194,126.5910
155.4705,126.4541
155.4770,126.3936
155.4770,126.3936
155.4770,125.3490
154.4690,125.3490
154.4690,124.8410
155.4770,124.8410
155.4770,123.7964
155.4770,123.7964
155.4705,123.7359
155.4194,123.5990
155.4194,123.5990
155.3319,123.4821
155.2150,123.3946
155.0781,123.3435
155.0176,123.3370
154.3230,123.3370
154.3230,124.4333
154.3146,124.4249
154.2234,124.3723
154.1217,124.3450
154.0163,124.3450
153.9146,124.3723
153.8234,124.4249
153.8150,124.4333
153.8150,123.3370
153.1204,123.3370
153.0599,123.3435
152.9230,123.3946
152.9230,123.3946
152.8061,123.4821
152.7186,123.5990
152.7186,123.5990
152.6675,123.7359
152.6610,123.7964
150.7186,123.7964
150.7628,123.7373
150.8131,123.6025
150.8195,123.5429
150.8195,121.6471
150.8131,121.5875
150.7628,121.4527
150.7387,121.4205
150.7139,121.3540
150.7290,121.2846
150.7387,121.2695
150.7628,121.2373
150.8131,121.1025
150.8195,121.0429
150.8195,120.0112
153.2185,120.0112
153.2185,120.0112
153.2185,120.1788
153.2512,120.3431
153.3153,120.4979
153.3153,120.4979
153.4084,120.6372
153.4084,120.6372
153.5268,120.7556
153.5268,120.7556
153.6661,120.8487
153.8209,120.9128
153.9852,120.9455
153.9852,120.9455
154.1528,120.9455
154.1528,120.9455
154.3171,120.9128
154.4719,120.8487
154.6112,120.7556
154.7296,120.6372
154.8227,120.4979
154.8868,120.3431
154.9195,120.1788
154.9195,120.0112
154.9195,120.0112
155.7185,120.0112
155.7185,120.0112
155.7185,120.1788
155.7512,120.3431
155.8153,120.4979
155.8153,120.4979
155.9084,120.6372
155.9084,120.6372
156.0268,120.7556
156.0268,120.7556
156.1661,120.8487
156.3209,120.9128
156.4852,120.9455
156.4852,120.9455
156.6528,120.9455
156.6528,120.9455
156.8171,120.9128
156.9719,120.8487
157.1112,120.7556
157.2296,120.6372
157.3227,120.4979
157.3868,120.3431
157.4195,120.1788
157.4195,120.0112
157.3868,119.8469
157.3227,119.6921
157.2296,119.5528
157.2296,119.5528
157.1112,119.4344
157.1112,119.4344
156.9719,119.3413
156.9719,119.3413
156.9719,119.3413
156.8624,119.2960
156.8171,119.2772
156.8171,119.2772
156.8171,119.2772
156.7344,119.2607
156.6528,119.2445
156.6528,119.2445
156.4852,119.2445
156.4852,119.2445
156.3628,119.2688
156.3209,119.2772
156.3209,119.2772
156.3209,119.2772
156.1661,119.3413
156.0268,119.4344
156.0268,119.4344
155.9084,119.5528
155.9084,119.5528
155.8153,119.6921
155.7512,119.8469
155.7185,120.0112
154.9195,120.0112
154.8868,119.8469
154.8227,119.6921
154.7296,119.5528
154.7296,119.5528
154.6112,119.4344
154.6112,119.4344
154.4719,119.3413
154.4719,119.3413
154.4719,119.3413
154.3624,119.2960
154.3171,119.2772
154.3171,119.2772
154.3171,119.2772
154.2344,119.2607
154.1528,119.2445
154.1528,119.2445
153.9852,119.2445
153.9852,119.2445
153.8628,119.2688
153.8209,119.2772
153.8209,119.2772
153.8209,119.2772
153.6661,119.3413
153.5268,119.4344
153.5268,119.4344
153.4084,119.5528
153.4084,119.5528
153.3153,119.6921
153.2512,119.8469
153.2185,120.0112
150.8195,120.0112
150.8195,119.1471
150.8131,119.0875
150.7918,119.0304
150.7628,118.9527
150.7628,118.9527
150.7628,118.9527
150.7197,118.8951
150.6765,118.8375
150.5996,118.7798
150.5613,118.7512
150.5613,118.7512
150.5613,118.7512
150.4265,118.7009
150.4265,118.7009
150.3669,118.6945
147.7711,118.6945
147.7711,118.6945
147.7115,118.7009
147.7115,118.7009
147.5767,118.7512
147.5767,118.7512
147.4615,118.8375
147.3752,118.9527
147.3752,118.9527
147.3249,119.0875
147.3185,119.1471
70.9597,119.1471
75.4944,114.6124
75.5567,114.5784
75.5835,114.5755
154.9755,114.5755
154.9974,114.5755
Z" /> 
</g>
<g style="fill:#FFFFFF; fill-opacity:1.0000; stroke:none;">
<circle cx="92.2126" cy="154.2500" r="0.1651" /> 
</g>
<g style="fill:#FFFFFF; fill-opacity:1.0000; stroke:none;">
<circle cx="100.5000" cy="154.2500" r="0.1651" /> 
</g>
<g style="fill:#FFFFFF; fill-opacity:1.0000; stroke:none;">
<circle cx="76.7000" cy="153.5000" r="0.1651" /> 
</g>
<g style="fill:#FFFFFF; fill-opacity:1.0000; stroke:none;">
<circle cx="76.1430" cy="144.0570" r="0.1651" /> 
</g>
<g style="fill:#FFFFFF; fill-opacity:1.0000; stroke:none;">
<circle cx="61.0000" cy="135.0000" r="0.1651" /> 
</g>
<g style="fill:#FFFFFF; fill-opacity:1.0000; stroke:none;">
<circle cx="81.0000" cy="130.0000" r="0.1651" /> 
</g>
<g style="fill:#FFFFFF; fill-opacity:1.0000; stroke:none;">
<circle cx="71.0000" cy="135.0000" r="0.1651" /> 
</g>
<g style="fill:#FFFFFF; fill-opacity:1.0000; stroke:none;">
<circle cx="86.0000" cy="115.0000" r="0.1651" /> 
</g>
<g style="fill:#FFFFFF; fill-opacity:1.0000; stroke:none;">
<circle cx="86.0000" cy="140.0000" r="0.1651" /> 
</g>
<g style="fill:#FFFFFF; fill-opacity:1.0000; stroke:none;">
<circle cx="91.0000" cy="140.0000" r="0.1651" /> 
</g>
<g style="fill:#FFFFFF; fill-opacity:1.0000; stroke:none;">
<circle cx="96.0000" cy="135.0000" r="0.1651" /> 
</g>
<g style="fill:#FFFFFF; fill-opacity:1.0000; stroke:none;">
<circle cx="91.0000" cy="125.0000" r="0.1651" /> 
</g>
<g style="fill:#FFFFFF; fill-opacity:1.0000; stroke:none;">
<circle cx="101.0000" cy="135.0000" r="0.1651" /> 
</g>
<g style="fill:#FFFFFF; fill-opacity:1.0000; stroke:none;">
<circle cx="81.0000" cy="125.0000" r="0.1651" /> 
</g>
<g style="fill:#FFFFFF; fill-opacity:1.0000; stroke:none;">
<circle cx="86.0000" cy="130.0000" r="0.1651" /> 
</g>
<g style="fill:#FFFFFF; fill-opacity:1.0000; stroke:none;">
<circle cx="61.0000" cy="140.0000" r="0.1651" /> 
</g>
<g style="fill:#FFFFFF; fill-opacity:1.0000; stroke:none;">
<circle cx="76.0000" cy="115.0000" r="0.1651" /> 
</g>
<g style="fill:#FFFFFF; fill-opacity:1.0000; stroke:none;">
<circle cx="76.0000" cy="130.0000" r="0.1651" /> 
</g>
<g style="fill:#FFFFFF; fill-opacity:1.0000; stroke:none;">
<circle cx="106.0000" cy="140.0000" r="0.1651" /> 
</g>
<g style="fill:#FFFFFF; fill-opacity:1.0000; stroke:none;">
<circle cx="81.0000" cy="115.0000" r="0.1651" /> 
</g>
<g style="fill:#FFFFFF; fill-opacity:1.0000; stroke:none;">
<circle cx="61.0000" cy="155.0000" r="0.1651" /> 
</g>
<g style="fill:#FFFFFF; fill-opacity:1.0000; stroke:none;">
<circle cx="71.0000" cy="140.0000" r="0.1651" /> 
</g>
<g style="fill:#FFFFFF; fill-opacity:1.0000; stroke:none;">
<circle cx="81.0000" cy="140.0000" r="0.1651" /> 
</g>
<g style="fill:#FFFFFF; fill-opacity:1.0000; stroke:none;">
<circle cx="128.4850" cy="158.5000" r="0.1651" /> 
</g>
<g style="fill:#FFFFFF; fill-opacity:1.0000; stroke:none;">
<circle cx="76.7000" cy="156.0000" r="0.1651" /> 
</g>
<g style="fill:#FFFFFF; fill-opacity:1.0000; stroke:none;">
<circle cx="86.0000" cy="125.0000" r="0.1651" /> 
</g>
<g style="fill:#FFFFFF; fill-opacity:1.0000; stroke:none;">
<circle cx="91.0000" cy="135.0000" r="0.1651" /> 
</g>
<g style="fill:#FFFFFF; fill-opacity:1.0000; stroke:none;">
<circle cx="66.0000" cy="125.0000" r="0.1651" /> 
</g>
<g style="fill:#FFFFFF; fill-opacity:1.0000; stroke:none;">
<circle cx="101.0000" cy="120.0000" r="0.1651" /> 
</g>
<g style="fill:#FFFFFF; fill-opacity:1.0000; stroke:none;">
<circle cx="126.0000" cy="131.0000" r="0.1651" /> 
</g>
<g style="fill:#FFFFFF; fill-opacity:1.0000; stroke:none;">
<circle cx="76.7000" cy="148.5000" r="0.1651" /> 
</g>
<g style="fill:#FFFFFF; fill-opacity:1.0000; stroke:none;">
<circle cx="101.0000" cy="140.0000" r="0.1651" /> 
</g>
<g style="fill:#FFFFFF; fill-opacity:1.0000; stroke:none;">
<circle cx="115.8000" cy="141.4000" r="0.1651" /> 
</g>
<g style="fill:#FFFFFF; fill-opacity:1.0000; stroke:none;">
<circle cx="61.0000" cy="130.0000" r="0.1651" /> 
</g>
<g style="fill:#FFFFFF; fill-opacity:1.0000; stroke:none;">
<circle cx="119.0000" cy="120.7500" r="0.1651" /> 
</g>
<g style="fill:#FFFFFF; fill-opacity:1.0000; stroke:none;">
<circle cx="101.0000" cy="130.0000" r="0.1651" /> 
</g>
<g style="fill:#FFFFFF; fill-opacity:1.0000; stroke:none;">
<circle cx="76.0000" cy="120.0000" r="0.1651" /> 
</g>
<g style="fill:#FFFFFF; fill-opacity:1.0000; stroke:none;">
<circle cx="83.7311" cy="145.8819" r="0.1651" /> 
</g>
<g style="fill:#FFFFFF; fill-opacity:1.0000; stroke:none;">
<circle cx="91.0000" cy="120.0000" r="0.1651" /> 
</g>
<g style="fill:#FFFFFF; fill-opacity:1.0000; stroke:none;">
<circle cx="76.0000" cy="140.0000" r="0.1651" /> 
</g>
<g style="fill:#FFFFFF; fill-opacity:1.0000; stroke:none;">
<circle cx="106.0000" cy="115.0000" r="0.1651" /> 
</g>
<g style="fill:#FFFFFF; fill-opacity:1.0000; stroke:none;">
<circle cx="119.2500" cy="133.7500" r="0.1651" /> 
</g>
<g style="fill:#FFFFFF; fill-opacity:1.0000; stroke:none;">
<circle cx="61.0000" cy="150.0000" r="0.1651" /> 
</g>
<g style="fill:#FFFFFF; fill-opacity:1.0000; stroke:none;">
<circle cx="96.0000" cy="120.0000" r="0.1651" /> 
</g>
<g style="fill:#FFFFFF; fill-opacity:1.0000; stroke:none;">
<circle cx="96.0000" cy="130.0000" r="0.1651" /> 
</g>
<g style="fill:#FFFFFF; fill-opacity:1.0000; stroke:none;">
<circle cx="115.0000" cy="132.2500" r="0.1651" /> 
</g>
<g style="fill:#FFFFFF; fill-opacity:1.0000; stroke:none;">
<circle cx="66.0000" cy="140.0000" r="0.1651" /> 
</g>
<g style="fill:#FFFFFF; fill-opacity:1.0000; stroke:none;">
<circle cx="96.0000" cy="115.0000" r="0.1651" /> 
</g>
<g style="fill:#FFFFFF; fill-opacity:1.0000; stroke:none;">
<circle cx="61.0000" cy="160.0000" r="0.1651" /> 
</g>
<g style="fill:#FFFFFF; fill-opacity:1.0000; stroke:none;">
<circle cx="101.0000" cy="115.0000" r="0.1651" /> 
</g>
<g style="fill:#FFFFFF; fill-opacity:1.0000; stroke:none;">
<circle cx="106.0000" cy="135.0000" r="0.1651" /> 
</g>
<g style="fill:#FFFFFF; fill-opacity:1.0000; stroke:none;">
<circle cx="86.0000" cy="120.0000" r="0.1651" /> 
</g>
<g style="fill:#FFFFFF; fill-opacity:1.0000; stroke:none;">
<circle cx="61.0000" cy="145.0000" r="0.1651" /> 
</g>
<g style="fill:#FFFFFF; fill-opacity:1.0000; stroke:none;">
<circle cx="143.7021" cy="115.9875" r="0.1651" /> 
</g>
<g style="fill:#FFFFFF; fill-opacity:1.0000; stroke:none;">
<circle cx="71.0000" cy="120.0000" r="0.1651" /> 
</g>
<g style="fill:#FFFFFF; fill-opacity:1.0000; stroke:none;">
<circle cx="92.9556" cy="158.5037" r="0.1651" /> 
</g>
<g style="fill:#FFFFFF; fill-opacity:1.0000; stroke:none;">
<circle cx="106.0000" cy="120.0000" r="0.1651" /> 
</g>
<g style="fill:#FFFFFF; fill-opacity:1.0000; stroke:none;">
<circle cx="106.0000" cy="130.0000" r="0.1651" /> 
</g>
<g style="fill:#FFFFFF; fill-opacity:1.0000; stroke:none;">
<circle cx="76.0000" cy="125.0000" r="0.1651" /> 
</g>
<g style="fill:#FFFFFF; fill-opacity:1.0000; stroke:none;">
<circle cx="91.0000" cy="115.0000" r="0.1651" /> 
</g>
<g style="fill:#FFFFFF; fill-opacity:1.0000; stroke:none;">
<circle cx="76.7000" cy="146.0000" r="0.1651" /> 
</g>
<g style="fill:#FFFFFF; fill-opacity:1.0000; stroke:none;">
<circle cx="81.0000" cy="120.0000" r="0.1651" /> 
</g>
<g style="fill:#FFFFFF; fill-opacity:1.0000; stroke:none;">
<circle cx="96.0000" cy="125.0000" r="0.1651" /> 
</g>
<g style="fill:#FFFFFF; fill-opacity:1.0000; stroke:none;">
<circle cx="76.7000" cy="151.0000" r="0.1651" /> 
</g>
<g style="fill:#FFFFFF; fill-opacity:1.0000; stroke:none;">
<circle cx="71.0000" cy="130.0000" r="0.1651" /> 
</g>
<g style="fill:#FFFFFF; fill-opacity:1.0000; stroke:none;">
<circle cx="91.0000" cy="130.0000" r="0.1651" /> 
</g>
<g style="fill:#FFFFFF; fill-opacity:1.0000; stroke:none;">
<circle cx="106.0000" cy="125.0000" r="0.1651" /> 
</g>
<g style="fill:#FFFFFF; fill-opacity:1.0000; stroke:none;">
<circle cx="143.8000" cy="120.1000" r="0.1651" /> 
</g>
<g style="fill:#FFFFFF; fill-opacity:1.0000; stroke:none;">
<circle cx="86.0000" cy="135.0000" r="0.1651" /> 
</g>
<g style="fill:#FFFFFF; fill-opacity:1.0000; stroke:none;">
<circle cx="81.0000" cy="135.0000" r="0.1651" /> 
</g>
<g style="fill:#FFFFFF; fill-opacity:1.0000; stroke:none;">
<circle cx="76.0000" cy="135.0000" r="0.1651" /> 
</g>
<g style="fill:#FFFFFF; fill-opacity:1.0000; stroke:none;">
<circle cx="71.0000" cy="125.0000" r="0.1651" /> 
</g>
<g style="fill:#FFFFFF; fill-opacity:1.0000; stroke:none;">
<circle cx="96.0000" cy="140.0000" r="0.1651" /> 
</g>
<g style="fill:#FFFFFF; fill-opacity:1.0000; stroke:none;">
<circle cx="101.0000" cy="125.0000" r="0.1651" /> 
</g>
<g style="fill:#FFFFFF; fill-opacity:1.0000; stroke:none;">
<circle cx="66.0000" cy="135.0000" r="0.1651" /> 
</g>
<g style="fill:#FFFFFF; fill-opacity:1.0000; stroke:none;">
<circle cx="123.8000" cy="158.5000" r="0.1651" /> 
</g>
<g style="fill:#FFFFFF; fill-opacity:1.0000; stroke:none;">
<circle cx="85.0000" cy="154.4500" r="0.1651" /> 
</g>
<g style="fill:#FFFFFF; fill-opacity:1.0000; stroke:none;">
<circle cx="119.5374" cy="145.1437" r="0.1651" /> 
</g>
<g style="fill:#FFFFFF; fill-opacity:1.0000; stroke:none;">
<circle cx="116.7000" cy="145.4000" r="0.1651" /> 
</g>
<g style="fill:#FFFFFF; fill-opacity:1.0000; stroke:none;">
<circle cx="138.8174" cy="145.4681" r="0.1651" /> 
</g>
<g style="fill:#FFFFFF; fill-opacity:1.0000; stroke:none;">
<circle cx="151.2939" cy="146.2953" r="0.1651" /> 
</g>
<g style="fill:#FFFFFF; fill-opacity:1.0000; stroke:none;">
<circle cx="144.1607" cy="145.8700" r="0.1651" /> 
</g>
<g style="fill:#FFFFFF; fill-opacity:1.0000; stroke:none;">
<circle cx="124.5000" cy="128.0000" r="0.1651" /> 
</g>
<g style="fill:#FFFFFF; fill-opacity:1.0000; stroke:none;">
<circle cx="120.5000" cy="124.5000" r="0.1651" /> 
</g>
<g style="fill:#FFFFFF; fill-opacity:1.0000; stroke:none;">
<circle cx="148.5959" cy="146.5043" r="0.1651" /> 
</g>
<g style="fill:#FFFFFF; fill-opacity:1.0000; stroke:none;">
<circle cx="88.5000" cy="150.4748" r="0.1651" /> 
</g>
<g style="fill:#FFFFFF; fill-opacity:1.0000; stroke:none;">
<circle cx="81.3682" cy="153.1182" r="0.1651" /> 
</g>
<g style="fill:#FFFFFF; fill-opacity:1.0000; stroke:none;">
<circle cx="85.8959" cy="151.2400" r="0.1651" /> 
</g>
<g style="fill:#FFFFFF; fill-opacity:1.0000; stroke:none;">
<circle cx="85.9838" cy="153.4498" r="0.1651" /> 
</g>
<g style="fill:#FFFFFF; fill-opacity:1.0000; stroke:none;">
<circle cx="72.9566" cy="144.8148" r="0.1651" /> 
</g>
<g style="fill:#FFFFFF; fill-opacity:1.0000; stroke:none;">
<circle cx="82.9374" cy="159.6000" r="0.1651" /> 
</g>
<g style="fill:#FFFFFF; fill-opacity:1.0000; stroke:none;">
<circle cx="78.8052" cy="153.4718" r="0.1651" /> 
</g>
<g style="fill:#FFFFFF; fill-opacity:1.0000; stroke:none;">
<circle cx="90.5000" cy="149.8176" r="0.1651" /> 
</g>
<g style="fill:#FFFFFF; fill-opacity:1.0000; stroke:none;">
<circle cx="80.8743" cy="151.4544" r="0.1651" /> 
</g>
<g style="fill:#FFFFFF; fill-opacity:1.0000; stroke:none;">
<circle cx="79.1768" cy="151.8808" r="0.1651" /> 
</g>
<g style="fill:#FFFFFF; fill-opacity:1.0000; stroke:none;">
<circle cx="156.5690" cy="130.0950" r="0.6000" /> 
</g>
<g style="fill:#FFFFFF; fill-opacity:1.0000; stroke:none;">
<circle cx="156.5690" cy="120.0950" r="0.6000" /> 
</g>
<g style="fill:#FFFFFF; fill-opacity:1.0000; stroke:none;">
<circle cx="154.0690" cy="130.0950" r="0.6000" /> 
</g>
<g style="fill:#FFFFFF; fill-opacity:1.0000; stroke:none;">
<circle cx="154.0690" cy="120.0950" r="0.6000" /> 
</g>
<g style="fill:#FFFFFF; fill-opacity:1.0000; stroke:none;">
<circle cx="149.0690" cy="125.0950" r="0.6000" /> 
</g>
<g style="fill:none; 
stroke:#FFFFFF; stroke-width:0.8000; stroke-opacity:1; 
stroke-linecap:round; stroke-linejoin:round;">
<path d="M149.4190 130.0950
L148.7190 130.0950
" />
<path d="M149.4190 127.5950
L148.7190 127.5950
" />
<path d="M154.0690 125.4450
L154.0690 124.7450
" />
<path d="M149.4190 120.0950
L148.7190 120.0950
" />
<path d="M149.4190 122.5950
L148.7190 122.5950
" />
</g>
<g style="fill:#FFFFFF; fill-opacity:1.0000; stroke:none;">
<circle cx="65.0000" cy="156.1600" r="0.5000" /> 
</g>
<g style="fill:#FFFFFF; fill-opacity:1.0000; stroke:none;">
<circle cx="62.4600" cy="156.1600" r="0.5000" /> 
</g>
<g style="fill:#FFFFFF; fill-opacity:1.0000; stroke:none;">
<circle cx="65.0000" cy="153.6200" r="0.5000" /> 
</g>
<g style="fill:#FFFFFF; fill-opacity:1.0000; stroke:none;">
<circle cx="62.4600" cy="153.6200" r="0.5000" /> 
</g>
<g style="fill:#FFFFFF; fill-opacity:1.0000; stroke:none;">
<circle cx="65.0000" cy="151.0800" r="0.5000" /> 
</g>
<g style="fill:#FFFFFF; fill-opacity:1.0000; stroke:none;">
<circle cx="62.4600" cy="151.0800" r="0.5000" /> 
</g>
<g style="fill:#FFFFFF; fill-opacity:1.0000; stroke:none;">
<circle cx="65.0000" cy="148.5400" r="0.5000" /> 
</g>
<g style="fill:#FFFFFF; fill-opacity:1.0000; stroke:none;">
<circle cx="62.4600" cy="148.5400" r="0.5000" /> 
</g>
<g style="fill:#FFFFFF; fill-opacity:1.0000; stroke:none;">
<circle cx="65.0000" cy="146.0000" r="0.5000" /> 
</g>
<g style="fill:#FFFFFF; fill-opacity:1.0000; stroke:none;">
<circle cx="62.4600" cy="146.0000" r="0.5000" /> 
</g>
<g style="fill:#FFFFFF; fill-opacity:1.0000; stroke:none;">
<circle cx="65.0000" cy="143.4600" r="0.5000" /> 
</g>
<g style="fill:#FFFFFF; fill-opacity:1.0000; stroke:none;">
<circle cx="62.4600" cy="143.4600" r="0.5000" /> 
</g>
<g style="fill:#FFFFFF; fill-opacity:1.0000; stroke:none;">
<circle cx="65.5320" cy="131.3820" r="1.6000" /> 
</g>
<g style="fill:#FFFFFF; fill-opacity:1.0000; stroke:none;">
<circle cx="62.0000" cy="163.0000" r="0.5000" /> 
</g>
<g style="fill:#FFFFFF; fill-opacity:1.0000; stroke:none;">
<circle cx="64.5400" cy="163.0000" r="0.5000" /> 
</g>
<g style="fill:#FFFFFF; fill-opacity:1.0000; stroke:none;">
<circle cx="67.0800" cy="163.0000" r="0.5000" /> 
</g>
<g style="fill:#FFFFFF; fill-opacity:1.0000; stroke:none;">
<circle cx="69.6200" cy="163.0000" r="0.5000" /> 
</g>
<g style="fill:#FFFFFF; fill-opacity:1.0000; stroke:none;">
<circle cx="72.1600" cy="163.0000" r="0.5000" /> 
</g>
<g style="fill:#FFFFFF; fill-opacity:1.0000; stroke:none;">
<circle cx="74.7000" cy="163.0000" r="0.5000" /> 
</g>
<g style="fill:#FFFFFF; fill-opacity:1.0000; stroke:none;">
<circle cx="77.2400" cy="163.0000" r="0.5000" /> 
</g>
<g style="fill:#FFFFFF; fill-opacity:1.0000; stroke:none;">
<circle cx="79.7800" cy="163.0000" r="0.5000" /> 
</g>
<g style="fill:#FFFFFF; fill-opacity:1.0000; stroke:none;">
<circle cx="82.3200" cy="163.0000" r="0.5000" /> 
</g>
<g style="fill:#FFFFFF; fill-opacity:1.0000; stroke:none;">
<circle cx="84.8600" cy="163.0000" r="0.5000" /> 
</g>
<g style="fill:#FFFFFF; fill-opacity:1.0000; stroke:none;">
<circle cx="87.4000" cy="163.0000" r="0.5000" /> 
</g>
<g style="fill:#FFFFFF; fill-opacity:1.0000; stroke:none;">
<circle cx="89.9400" cy="163.0000" r="0.5000" /> 
</g>
<g style="fill:#FFFFFF; fill-opacity:1.0000; stroke:none;">
<circle cx="92.4800" cy="163.0000" r="0.5000" /> 
</g>
<g style="fill:#FFFFFF; fill-opacity:1.0000; stroke:none;">
<circle cx="95.0200" cy="163.0000" r="0.5000" /> 
</g>
<g style="fill:#FFFFFF; fill-opacity:1.0000; stroke:none;">
<circle cx="97.5600" cy="163.0000" r="0.5000" /> 
</g>
<g style="fill:#FFFFFF; fill-opacity:1.0000; stroke:none;">
<circle cx="100.1000" cy="163.0000" r="0.5000" /> 
</g>
<g style="fill:#FFFFFF; fill-opacity:1.0000; stroke:none;">
<circle cx="102.6400" cy="163.0000" r="0.5000" /> 
</g>
<g style="fill:#FFFFFF; fill-opacity:1.0000; stroke:none;">
<circle cx="105.1800" cy="163.0000" r="0.5000" /> 
</g>
<g style="fill:#FFFFFF; fill-opacity:1.0000; stroke:none;">
<circle cx="107.7200" cy="163.0000" r="0.5000" /> 
</g>
<g style="fill:#FFFFFF; fill-opacity:1.0000; stroke:none;">
<circle cx="110.2600" cy="163.0000" r="0.5000" /> 
</g>
<g style="fill:#FFFFFF; fill-opacity:1.0000; stroke:none;">
<circle cx="112.8000" cy="163.0000" r="0.5000" /> 
</g>
<g style="fill:#FFFFFF; fill-opacity:1.0000; stroke:none;">
<circle cx="115.3400" cy="163.0000" r="0.5000" /> 
</g>
<g style="fill:#FFFFFF; fill-opacity:1.0000; stroke:none;">
<circle cx="117.8800" cy="163.0000" r="0.5000" /> 
</g>
<g style="fill:#FFFFFF; fill-opacity:1.0000; stroke:none;">
<circle cx="120.4200" cy="163.0000" r="0.5000" /> 
</g>
<g style="fill:#FFFFFF; fill-opacity:1.0000; stroke:none;">
<circle cx="122.9600" cy="163.0000" r="0.5000" /> 
</g>
<g style="fill:#FFFFFF; fill-opacity:1.0000; stroke:none;">
<circle cx="125.5000" cy="163.0000" r="0.5000" /> 
</g>
<g style="fill:#FFFFFF; fill-opacity:1.0000; stroke:none;">
<circle cx="128.0400" cy="163.0000" r="0.5000" /> 
</g>
<g style="fill:#FFFFFF; fill-opacity:1.0000; stroke:none;">
<circle cx="130.5800" cy="163.0000" r="0.5000" /> 
</g>
<g style="fill:#FFFFFF; fill-opacity:1.0000; stroke:none;">
<circle cx="133.1200" cy="163.0000" r="0.5000" /> 
</g>
<g style="fill:#FFFFFF; fill-opacity:1.0000; stroke:none;">
<circle cx="135.6600" cy="163.0000" r="0.5000" /> 
</g>
<g style="fill:#FFFFFF; fill-opacity:1.0000; stroke:none;">
<circle cx="138.2000" cy="163.0000" r="0.5000" /> 
</g>
<g style="fill:#FFFFFF; fill-opacity:1.0000; stroke:none;">
<circle cx="140.7400" cy="163.0000" r="0.5000" /> 
</g>
<g style="fill:#FFFFFF; fill-opacity:1.0000; stroke:none;">
<circle cx="143.2800" cy="163.0000" r="0.5000" /> 
</g>
<g style="fill:#FFFFFF; fill-opacity:1.0000; stroke:none;">
<circle cx="145.8200" cy="163.0000" r="0.5000" /> 
</g>
<g style="fill:#FFFFFF; fill-opacity:1.0000; stroke:none;">
<circle cx="148.3600" cy="163.0000" r="0.5000" /> 
</g>
<g style="fill:#FFFFFF; fill-opacity:1.0000; stroke:none;">
<circle cx="150.9000" cy="163.0000" r="0.5000" /> 
</g>
<g style="fill:#FFFFFF; fill-opacity:1.0000; stroke:none;">
<circle cx="153.4400" cy="163.0000" r="0.5000" /> 
</g>
<g style="fill:#FFFFFF; fill-opacity:1.0000; stroke:none;">
<circle cx="155.9800" cy="163.0000" r="0.5000" /> 
</g>
<g style="fill:#FFFFFF; fill-opacity:1.0000; stroke:none;">
<circle cx="158.5200" cy="163.0000" r="0.5000" /> 
</g> 
</svg>
