<?xml version="1.0" standalone="no"?>
 <!DOCTYPE svg PUBLIC "-//W3C//DTD SVG 1.1//EN" 
 "http://www.w3.org/Graphics/SVG/1.1/DTD/svg11.dtd"> 
<svg
  xmlns:svg="http://www.w3.org/2000/svg"
  xmlns="http://www.w3.org/2000/svg"
  xmlns:xlink="http://www.w3.org/1999/xlink"
  version="1.1"
  width="297.0022mm" height="210.0072mm" viewBox="0.0000 0.0000 297.0022 210.0072">
<title>SVG Image created as rcbus-ymf262-Edge_Cuts4.svg date 2025/08/26 22:52:35 </title>
  <desc>Image generated by PCBNEW </desc>
<g style="fill:#000000; fill-opacity:1.0000;stroke:#000000; stroke-opacity:1.0000;
stroke-linecap:round; stroke-linejoin:round;"
 transform="translate(0 0) scale(1 1)">
</g>
<g style="fill:none; 
stroke:#000000; stroke-width:0.1500; stroke-opacity:1; 
stroke-linecap:round; stroke-linejoin:round;">
<path d="M158.3690 122.6820
L158.3690 127.5080
" />
<path d="M160.5000 121.5390
L160.5000 120.0000
" />
<path d="M155.0000 114.5000
L75.5000 114.5000
" />
<path d="M160.5000 120.0000 A5.5000 5.5000 0.0 0 0 155.0000 114.5000" />
<path d="M160.5000 121.5390
L159.5120 121.5390
" />
<path d="M160.5000 128.6510
L159.5120 128.6510
" />
<path d="M60.5000 129.5000
L75.5000 114.5000
" />
<path d="M60.5000 129.5000
L60.5000 164.5000
" />
<path d="M158.3690 127.5080 A1.1430 1.1430 0.0 0 0 159.5120 128.6510" />
<path d="M160.5000 164.5000
L160.5000 128.6510
" />
<path d="M60.5000 164.5000
L160.5000 164.5000
" />
<path d="M159.5120 121.5390 A1.1430 1.1430 0.0 0 0 158.3690 122.6820" />
</g> 
</svg>
