<?xml version="1.0" standalone="no"?>
 <!DOCTYPE svg PUBLIC "-//W3C//DTD SVG 1.1//EN" 
 "http://www.w3.org/Graphics/SVG/1.1/DTD/svg11.dtd"> 
<svg
  xmlns:svg="http://www.w3.org/2000/svg"
  xmlns="http://www.w3.org/2000/svg"
  xmlns:xlink="http://www.w3.org/1999/xlink"
  version="1.1"
  width="297.0022mm" height="210.0072mm" viewBox="0.0000 0.0000 297.0022 210.0072">
<title>SVG Image created as rcbus-ymf262-User_Drawings0.svg date 2025/08/28 22:25:29 </title>
  <desc>Image generated by PCBNEW </desc>
<g style="fill:#000000; fill-opacity:1.0000;stroke:#000000; stroke-opacity:1.0000;
stroke-linecap:round; stroke-linejoin:round;"
 transform="translate(0 0) scale(1 1)">
<path style="fill:none; 
stroke:#000000; stroke-width:0.3200; stroke-opacity:1; 
stroke-linecap:round; stroke-linejoin:round;fill:none"
d="M 67.1320,131.3820
65.5320,132.9820
63.9320,131.3820
65.5320,129.7820
Z" /> 
<path style="fill:none; 
stroke:#000000; stroke-width:0.1200; stroke-opacity:1; 
stroke-linecap:round; stroke-linejoin:round;fill:none"
d="M 156.1447,129.6707
156.9933,129.6707
156.9933,130.5193
156.1447,130.5193
Z" /> 
<path style="fill:none; 
stroke:#000000; stroke-width:0.1200; stroke-opacity:1; 
stroke-linecap:round; stroke-linejoin:round;fill:none"
d="M 156.1447,119.6707
156.9933,119.6707
156.9933,120.5193
156.1447,120.5193
Z" /> 
<path style="fill:none; 
stroke:#000000; stroke-width:0.1200; stroke-opacity:1; 
stroke-linecap:round; stroke-linejoin:round;fill:none"
d="M 153.6447,129.6707
154.4933,129.6707
154.4933,130.5193
153.6447,130.5193
Z" /> 
<path style="fill:none; 
stroke:#000000; stroke-width:0.1200; stroke-opacity:1; 
stroke-linecap:round; stroke-linejoin:round;fill:none"
d="M 153.6447,119.6707
154.4933,119.6707
154.4933,120.5193
153.6447,120.5193
Z" /> 
<path style="fill:none; 
stroke:#000000; stroke-width:0.1200; stroke-opacity:1; 
stroke-linecap:round; stroke-linejoin:round;fill:none"
d="M 148.6447,124.6707
149.4933,124.6707
149.4933,125.5193
148.6447,125.5193
Z" /> 
</g>
<g style="fill:none; 
stroke:#000000; stroke-width:0.1000; stroke-opacity:1; 
stroke-linecap:round; stroke-linejoin:round;">
<path d="M158.0200 163.0000
L159.0200 163.0000
" />
<path d="M158.5200 162.5000
L158.5200 163.5000
" />
<path d="M155.4800 163.0000
L156.4800 163.0000
" />
<path d="M155.9800 162.5000
L155.9800 163.5000
" />
<path d="M152.9400 163.0000
L153.9400 163.0000
" />
<path d="M153.4400 162.5000
L153.4400 163.5000
" />
<path d="M150.4000 163.0000
L151.4000 163.0000
" />
<path d="M150.9000 162.5000
L150.9000 163.5000
" />
<path d="M147.8600 163.0000
L148.8600 163.0000
" />
<path d="M148.3600 162.5000
L148.3600 163.5000
" />
<path d="M145.3200 163.0000
L146.3200 163.0000
" />
<path d="M145.8200 162.5000
L145.8200 163.5000
" />
<path d="M142.7800 163.0000
L143.7800 163.0000
" />
<path d="M143.2800 162.5000
L143.2800 163.5000
" />
<path d="M140.2400 163.0000
L141.2400 163.0000
" />
<path d="M140.7400 162.5000
L140.7400 163.5000
" />
<path d="M137.7000 163.0000
L138.7000 163.0000
" />
<path d="M138.2000 162.5000
L138.2000 163.5000
" />
<path d="M135.1600 163.0000
L136.1600 163.0000
" />
<path d="M135.6600 162.5000
L135.6600 163.5000
" />
<path d="M132.6200 163.0000
L133.6200 163.0000
" />
<path d="M133.1200 162.5000
L133.1200 163.5000
" />
<path d="M130.0800 163.0000
L131.0800 163.0000
" />
<path d="M130.5800 162.5000
L130.5800 163.5000
" />
<path d="M127.5400 163.0000
L128.5400 163.0000
" />
<path d="M128.0400 162.5000
L128.0400 163.5000
" />
<path d="M125.0000 163.0000
L126.0000 163.0000
" />
<path d="M125.5000 162.5000
L125.5000 163.5000
" />
<path d="M122.4600 163.0000
L123.4600 163.0000
" />
<path d="M122.9600 162.5000
L122.9600 163.5000
" />
<path d="M119.9200 163.0000
L120.9200 163.0000
" />
<path d="M120.4200 162.5000
L120.4200 163.5000
" />
<path d="M117.3800 163.0000
L118.3800 163.0000
" />
<path d="M117.8800 162.5000
L117.8800 163.5000
" />
<path d="M114.8400 163.0000
L115.8400 163.0000
" />
<path d="M115.3400 162.5000
L115.3400 163.5000
" />
<path d="M112.3000 163.0000
L113.3000 163.0000
" />
<path d="M112.8000 162.5000
L112.8000 163.5000
" />
<path d="M109.7600 163.0000
L110.7600 163.0000
" />
<path d="M110.2600 162.5000
L110.2600 163.5000
" />
<path d="M107.2200 163.0000
L108.2200 163.0000
" />
<path d="M107.7200 162.5000
L107.7200 163.5000
" />
<path d="M104.6800 163.0000
L105.6800 163.0000
" />
<path d="M105.1800 162.5000
L105.1800 163.5000
" />
<path d="M102.1400 163.0000
L103.1400 163.0000
" />
<path d="M102.6400 162.5000
L102.6400 163.5000
" />
<path d="M99.6000 163.0000
L100.6000 163.0000
" />
<path d="M100.1000 162.5000
L100.1000 163.5000
" />
<path d="M97.0600 163.0000
L98.0600 163.0000
" />
<path d="M97.5600 162.5000
L97.5600 163.5000
" />
<path d="M94.5200 163.0000
L95.5200 163.0000
" />
<path d="M95.0200 162.5000
L95.0200 163.5000
" />
<path d="M91.9800 163.0000
L92.9800 163.0000
" />
<path d="M92.4800 162.5000
L92.4800 163.5000
" />
<path d="M89.4400 163.0000
L90.4400 163.0000
" />
<path d="M89.9400 162.5000
L89.9400 163.5000
" />
<path d="M86.9000 163.0000
L87.9000 163.0000
" />
<path d="M87.4000 162.5000
L87.4000 163.5000
" />
<path d="M84.3600 163.0000
L85.3600 163.0000
" />
<path d="M84.8600 162.5000
L84.8600 163.5000
" />
<path d="M81.8200 163.0000
L82.8200 163.0000
" />
<path d="M82.3200 162.5000
L82.3200 163.5000
" />
<path d="M79.2800 163.0000
L80.2800 163.0000
" />
<path d="M79.7800 162.5000
L79.7800 163.5000
" />
<path d="M76.7400 163.0000
L77.7400 163.0000
" />
<path d="M77.2400 162.5000
L77.2400 163.5000
" />
<path d="M74.2000 163.0000
L75.2000 163.0000
" />
<path d="M74.7000 162.5000
L74.7000 163.5000
" />
<path d="M71.6600 163.0000
L72.6600 163.0000
" />
<path d="M72.1600 162.5000
L72.1600 163.5000
" />
<path d="M69.1200 163.0000
L70.1200 163.0000
" />
<path d="M69.6200 162.5000
L69.6200 163.5000
" />
<path d="M66.5800 163.0000
L67.5800 163.0000
" />
<path d="M67.0800 162.5000
L67.0800 163.5000
" />
<path d="M64.5000 156.1600
L65.5000 156.1600
" />
<path d="M65.0000 155.6600
L65.0000 156.6600
" />
<path d="M64.5000 153.6200
L65.5000 153.6200
" />
<path d="M65.0000 153.1200
L65.0000 154.1200
" />
<path d="M64.5000 151.0800
L65.5000 151.0800
" />
<path d="M65.0000 150.5800
L65.0000 151.5800
" />
<path d="M64.5000 148.5400
L65.5000 148.5400
" />
<path d="M65.0000 148.0400
L65.0000 149.0400
" />
<path d="M64.5000 146.0000
L65.5000 146.0000
" />
<path d="M65.0000 145.5000
L65.0000 146.5000
" />
<path d="M64.5000 143.4600
L65.5000 143.4600
" />
<path d="M65.0000 142.9600
L65.0000 143.9600
" />
<path d="M64.0400 163.0000
L65.0400 163.0000
" />
<path d="M64.5400 162.5000
L64.5400 163.5000
" />
<path d="M61.9600 156.1600
L62.9600 156.1600
" />
<path d="M62.4600 155.6600
L62.4600 156.6600
" />
<path d="M61.9600 153.6200
L62.9600 153.6200
" />
<path d="M62.4600 153.1200
L62.4600 154.1200
" />
<path d="M61.9600 151.0800
L62.9600 151.0800
" />
<path d="M62.4600 150.5800
L62.4600 151.5800
" />
<path d="M61.9600 148.5400
L62.9600 148.5400
" />
<path d="M62.4600 148.0400
L62.4600 149.0400
" />
<path d="M61.9600 146.0000
L62.9600 146.0000
" />
<path d="M62.4600 145.5000
L62.4600 146.5000
" />
<path d="M61.9600 143.4600
L62.9600 143.4600
" />
<path d="M62.4600 142.9600
L62.4600 143.9600
" />
<path d="M61.5000 163.0000
L62.5000 163.0000
" />
<path d="M62.0000 162.5000
L62.0000 163.5000
" />
<path d="M153.6690 125.4450 A0.4000 0.4000 0.0 0 0 154.4690 125.4450" />
<path d="M153.6690 124.7450
L153.6690 125.4450
" />
<path d="M154.4690 124.7450 A0.4000 0.4000 0.0 0 0 153.6690 124.7450" />
<path d="M154.4690 125.4450
L154.4690 124.7450
" />
<circle cx="154.0690" cy="125.0950" r="0.4000" /> 
<path d="M149.4190 130.4950 A0.4000 0.4000 0.0 0 0 149.4190 129.6950" />
<path d="M148.7190 130.4950
L149.4190 130.4950
" />
<path d="M148.7190 129.6950 A0.4000 0.4000 0.0 0 0 148.7190 130.4950" />
<path d="M149.4190 129.6950
L148.7190 129.6950
" />
<circle cx="149.0690" cy="130.0950" r="0.4000" /> 
<path d="M149.4190 127.9950 A0.4000 0.4000 0.0 0 0 149.4190 127.1950" />
<path d="M148.7190 127.9950
L149.4190 127.9950
" />
<path d="M148.7190 127.1950 A0.4000 0.4000 0.0 0 0 148.7190 127.9950" />
<path d="M149.4190 127.1950
L148.7190 127.1950
" />
<circle cx="149.0690" cy="127.5950" r="0.4000" /> 
<path d="M149.4190 122.9950 A0.4000 0.4000 0.0 0 0 149.4190 122.1950" />
<path d="M148.7190 122.9950
L149.4190 122.9950
" />
<path d="M148.7190 122.1950 A0.4000 0.4000 0.0 0 0 148.7190 122.9950" />
<path d="M149.4190 122.1950
L148.7190 122.1950
" />
<circle cx="149.0690" cy="122.5950" r="0.4000" /> 
<path d="M149.4190 120.4950 A0.4000 0.4000 0.0 0 0 149.4190 119.6950" />
<path d="M148.7190 120.4950
L149.4190 120.4950
" />
<path d="M148.7190 119.6950 A0.4000 0.4000 0.0 0 0 148.7190 120.4950" />
<path d="M149.4190 119.6950
L148.7190 119.6950
" />
<circle cx="149.0690" cy="120.0950" r="0.4000" /> 
<path d="M151.4590 146.1302
L151.1288 146.4604
" />
<path d="M151.1288 146.1302
L151.4590 146.4604
" />
<path d="M148.7610 146.3392
L148.4308 146.6694
" />
<path d="M148.4308 146.3392
L148.7610 146.6694
" />
<path d="M144.3258 145.7049
L143.9956 146.0351
" />
<path d="M143.9956 145.7049
L144.3258 146.0351
" />
<path d="M143.9651 119.9349
L143.6349 120.2651
" />
<path d="M143.6349 119.9349
L143.9651 120.2651
" />
<path d="M143.8672 115.8224
L143.5370 116.1526
" />
<path d="M143.5370 115.8224
L143.8672 116.1526
" />
<path d="M138.9825 145.3030
L138.6523 145.6332
" />
<path d="M138.6523 145.3030
L138.9825 145.6332
" />
<path d="M128.6501 158.3349
L128.3199 158.6651
" />
<path d="M128.3199 158.3349
L128.6501 158.6651
" />
<path d="M126.1651 130.8349
L125.8349 131.1651
" />
<path d="M125.8349 130.8349
L126.1651 131.1651
" />
<path d="M124.6651 127.8349
L124.3349 128.1651
" />
<path d="M124.3349 127.8349
L124.6651 128.1651
" />
<path d="M123.9651 158.3349
L123.6349 158.6651
" />
<path d="M123.6349 158.3349
L123.9651 158.6651
" />
<path d="M120.6651 124.3349
L120.3349 124.6651
" />
<path d="M120.3349 124.3349
L120.6651 124.6651
" />
<path d="M119.7025 144.9786
L119.3723 145.3088
" />
<path d="M119.3723 144.9786
L119.7025 145.3088
" />
<path d="M119.4151 133.5849
L119.0849 133.9151
" />
<path d="M119.0849 133.5849
L119.4151 133.9151
" />
<path d="M119.1651 120.5849
L118.8349 120.9151
" />
<path d="M118.8349 120.5849
L119.1651 120.9151
" />
<path d="M116.8651 145.2349
L116.5349 145.5651
" />
<path d="M116.5349 145.2349
L116.8651 145.5651
" />
<path d="M115.9651 141.2349
L115.6349 141.5651
" />
<path d="M115.6349 141.2349
L115.9651 141.5651
" />
<path d="M115.1651 132.0849
L114.8349 132.4151
" />
<path d="M114.8349 132.0849
L115.1651 132.4151
" />
<path d="M106.1651 139.8349
L105.8349 140.1651
" />
<path d="M105.8349 139.8349
L106.1651 140.1651
" />
<path d="M106.1651 134.8349
L105.8349 135.1651
" />
<path d="M105.8349 134.8349
L106.1651 135.1651
" />
<path d="M106.1651 129.8349
L105.8349 130.1651
" />
<path d="M105.8349 129.8349
L106.1651 130.1651
" />
<path d="M106.1651 124.8349
L105.8349 125.1651
" />
<path d="M105.8349 124.8349
L106.1651 125.1651
" />
<path d="M106.1651 119.8349
L105.8349 120.1651
" />
<path d="M105.8349 119.8349
L106.1651 120.1651
" />
<path d="M106.1651 114.8349
L105.8349 115.1651
" />
<path d="M105.8349 114.8349
L106.1651 115.1651
" />
<path d="M101.1651 139.8349
L100.8349 140.1651
" />
<path d="M100.8349 139.8349
L101.1651 140.1651
" />
<path d="M101.1651 134.8349
L100.8349 135.1651
" />
<path d="M100.8349 134.8349
L101.1651 135.1651
" />
<path d="M101.1651 129.8349
L100.8349 130.1651
" />
<path d="M100.8349 129.8349
L101.1651 130.1651
" />
<path d="M101.1651 124.8349
L100.8349 125.1651
" />
<path d="M100.8349 124.8349
L101.1651 125.1651
" />
<path d="M101.1651 119.8349
L100.8349 120.1651
" />
<path d="M100.8349 119.8349
L101.1651 120.1651
" />
<path d="M101.1651 114.8349
L100.8349 115.1651
" />
<path d="M100.8349 114.8349
L101.1651 115.1651
" />
<path d="M100.6651 154.0849
L100.3349 154.4151
" />
<path d="M100.3349 154.0849
L100.6651 154.4151
" />
<path d="M96.1651 139.8349
L95.8349 140.1651
" />
<path d="M95.8349 139.8349
L96.1651 140.1651
" />
<path d="M96.1651 134.8349
L95.8349 135.1651
" />
<path d="M95.8349 134.8349
L96.1651 135.1651
" />
<path d="M96.1651 129.8349
L95.8349 130.1651
" />
<path d="M95.8349 129.8349
L96.1651 130.1651
" />
<path d="M96.1651 124.8349
L95.8349 125.1651
" />
<path d="M95.8349 124.8349
L96.1651 125.1651
" />
<path d="M96.1651 119.8349
L95.8349 120.1651
" />
<path d="M95.8349 119.8349
L96.1651 120.1651
" />
<path d="M96.1651 114.8349
L95.8349 115.1651
" />
<path d="M95.8349 114.8349
L96.1651 115.1651
" />
<path d="M93.1207 158.3386
L92.7905 158.6688
" />
<path d="M92.7905 158.3386
L93.1207 158.6688
" />
<path d="M92.3777 154.0849
L92.0475 154.4151
" />
<path d="M92.0475 154.0849
L92.3777 154.4151
" />
<path d="M91.1651 139.8349
L90.8349 140.1651
" />
<path d="M90.8349 139.8349
L91.1651 140.1651
" />
<path d="M91.1651 134.8349
L90.8349 135.1651
" />
<path d="M90.8349 134.8349
L91.1651 135.1651
" />
<path d="M91.1651 129.8349
L90.8349 130.1651
" />
<path d="M90.8349 129.8349
L91.1651 130.1651
" />
<path d="M91.1651 124.8349
L90.8349 125.1651
" />
<path d="M90.8349 124.8349
L91.1651 125.1651
" />
<path d="M91.1651 119.8349
L90.8349 120.1651
" />
<path d="M90.8349 119.8349
L91.1651 120.1651
" />
<path d="M91.1651 114.8349
L90.8349 115.1651
" />
<path d="M90.8349 114.8349
L91.1651 115.1651
" />
<path d="M90.6651 149.6525
L90.3349 149.9827
" />
<path d="M90.3349 149.6525
L90.6651 149.9827
" />
<path d="M88.6651 150.3097
L88.3349 150.6399
" />
<path d="M88.3349 150.3097
L88.6651 150.6399
" />
<path d="M86.1651 139.8349
L85.8349 140.1651
" />
<path d="M85.8349 139.8349
L86.1651 140.1651
" />
<path d="M86.1651 134.8349
L85.8349 135.1651
" />
<path d="M85.8349 134.8349
L86.1651 135.1651
" />
<path d="M86.1651 129.8349
L85.8349 130.1651
" />
<path d="M85.8349 129.8349
L86.1651 130.1651
" />
<path d="M86.1651 124.8349
L85.8349 125.1651
" />
<path d="M85.8349 124.8349
L86.1651 125.1651
" />
<path d="M86.1651 119.8349
L85.8349 120.1651
" />
<path d="M85.8349 119.8349
L86.1651 120.1651
" />
<path d="M86.1651 114.8349
L85.8349 115.1651
" />
<path d="M85.8349 114.8349
L86.1651 115.1651
" />
<path d="M86.1489 153.2847
L85.8187 153.6149
" />
<path d="M85.8187 153.2847
L86.1489 153.6149
" />
<path d="M86.0610 151.0749
L85.7308 151.4051
" />
<path d="M85.7308 151.0749
L86.0610 151.4051
" />
<path d="M85.1651 154.2849
L84.8349 154.6151
" />
<path d="M84.8349 154.2849
L85.1651 154.6151
" />
<path d="M83.8962 145.7168
L83.5660 146.0470
" />
<path d="M83.5660 145.7168
L83.8962 146.0470
" />
<path d="M83.1025 159.4349
L82.7723 159.7651
" />
<path d="M82.7723 159.4349
L83.1025 159.7651
" />
<path d="M81.5333 152.9531
L81.2031 153.2833
" />
<path d="M81.2031 152.9531
L81.5333 153.2833
" />
<path d="M81.1651 139.8349
L80.8349 140.1651
" />
<path d="M80.8349 139.8349
L81.1651 140.1651
" />
<path d="M81.1651 134.8349
L80.8349 135.1651
" />
<path d="M80.8349 134.8349
L81.1651 135.1651
" />
<path d="M81.1651 129.8349
L80.8349 130.1651
" />
<path d="M80.8349 129.8349
L81.1651 130.1651
" />
<path d="M81.1651 124.8349
L80.8349 125.1651
" />
<path d="M80.8349 124.8349
L81.1651 125.1651
" />
<path d="M81.1651 119.8349
L80.8349 120.1651
" />
<path d="M80.8349 119.8349
L81.1651 120.1651
" />
<path d="M81.1651 114.8349
L80.8349 115.1651
" />
<path d="M80.8349 114.8349
L81.1651 115.1651
" />
<path d="M81.0394 151.2893
L80.7092 151.6195
" />
<path d="M80.7092 151.2893
L81.0394 151.6195
" />
<path d="M79.3419 151.7157
L79.0117 152.0459
" />
<path d="M79.0117 151.7157
L79.3419 152.0459
" />
<path d="M78.9703 153.3067
L78.6401 153.6369
" />
<path d="M78.6401 153.3067
L78.9703 153.6369
" />
<path d="M76.8651 155.8349
L76.5349 156.1651
" />
<path d="M76.5349 155.8349
L76.8651 156.1651
" />
<path d="M76.8651 153.3349
L76.5349 153.6651
" />
<path d="M76.5349 153.3349
L76.8651 153.6651
" />
<path d="M76.8651 150.8349
L76.5349 151.1651
" />
<path d="M76.5349 150.8349
L76.8651 151.1651
" />
<path d="M76.8651 148.3349
L76.5349 148.6651
" />
<path d="M76.5349 148.3349
L76.8651 148.6651
" />
<path d="M76.8651 145.8349
L76.5349 146.1651
" />
<path d="M76.5349 145.8349
L76.8651 146.1651
" />
<path d="M76.3081 143.8919
L75.9779 144.2221
" />
<path d="M75.9779 143.8919
L76.3081 144.2221
" />
<path d="M76.1651 139.8349
L75.8349 140.1651
" />
<path d="M75.8349 139.8349
L76.1651 140.1651
" />
<path d="M76.1651 134.8349
L75.8349 135.1651
" />
<path d="M75.8349 134.8349
L76.1651 135.1651
" />
<path d="M76.1651 129.8349
L75.8349 130.1651
" />
<path d="M75.8349 129.8349
L76.1651 130.1651
" />
<path d="M76.1651 124.8349
L75.8349 125.1651
" />
<path d="M75.8349 124.8349
L76.1651 125.1651
" />
<path d="M76.1651 119.8349
L75.8349 120.1651
" />
<path d="M75.8349 119.8349
L76.1651 120.1651
" />
<path d="M76.1651 114.8349
L75.8349 115.1651
" />
<path d="M75.8349 114.8349
L76.1651 115.1651
" />
<path d="M73.1217 144.6497
L72.7915 144.9799
" />
<path d="M72.7915 144.6497
L73.1217 144.9799
" />
<path d="M71.1651 139.8349
L70.8349 140.1651
" />
<path d="M70.8349 139.8349
L71.1651 140.1651
" />
<path d="M71.1651 134.8349
L70.8349 135.1651
" />
<path d="M70.8349 134.8349
L71.1651 135.1651
" />
<path d="M71.1651 129.8349
L70.8349 130.1651
" />
<path d="M70.8349 129.8349
L71.1651 130.1651
" />
<path d="M71.1651 124.8349
L70.8349 125.1651
" />
<path d="M70.8349 124.8349
L71.1651 125.1651
" />
<path d="M71.1651 119.8349
L70.8349 120.1651
" />
<path d="M70.8349 119.8349
L71.1651 120.1651
" />
<path d="M66.1651 139.8349
L65.8349 140.1651
" />
<path d="M65.8349 139.8349
L66.1651 140.1651
" />
<path d="M66.1651 134.8349
L65.8349 135.1651
" />
<path d="M65.8349 134.8349
L66.1651 135.1651
" />
<path d="M66.1651 124.8349
L65.8349 125.1651
" />
<path d="M65.8349 124.8349
L66.1651 125.1651
" />
<path d="M61.1651 159.8349
L60.8349 160.1651
" />
<path d="M60.8349 159.8349
L61.1651 160.1651
" />
<path d="M61.1651 154.8349
L60.8349 155.1651
" />
<path d="M60.8349 154.8349
L61.1651 155.1651
" />
<path d="M61.1651 149.8349
L60.8349 150.1651
" />
<path d="M60.8349 149.8349
L61.1651 150.1651
" />
<path d="M61.1651 144.8349
L60.8349 145.1651
" />
<path d="M60.8349 144.8349
L61.1651 145.1651
" />
<path d="M61.1651 139.8349
L60.8349 140.1651
" />
<path d="M60.8349 139.8349
L61.1651 140.1651
" />
<path d="M61.1651 134.8349
L60.8349 135.1651
" />
<path d="M60.8349 134.8349
L61.1651 135.1651
" />
<path d="M61.1651 129.8349
L60.8349 130.1651
" />
<path d="M60.8349 129.8349
L61.1651 130.1651
" />
</g>
<g style="fill:none; 
stroke:#000000; stroke-width:0.3000; stroke-opacity:1; 
stroke-linecap:round; stroke-linejoin:round;">
<g transform="rotate(-90.000000 48.5400 139.5000)">
<text x="48.5400" y="140.2500"
textLength="15.0286" font-size="2.0000" lengthAdjust="spacingAndGlyphs"
text-anchor="middle" opacity="0" stroke-opacity="0">50.0000 mm</text>
</g>
<g class="stroked-text"><desc>50.0000 mm</desc>
<path d="M47.7183 145.6429
L47.7183 146.3571
" />
<path d="M47.7183 146.3571
L48.4326 146.4286
" />
<path d="M48.4326 146.4286
L48.3612 146.3571
" />
<path d="M48.3612 146.3571
L48.2898 146.2143
" />
<path d="M48.2898 146.2143
L48.2898 145.8571
" />
<path d="M48.2898 145.8571
L48.3612 145.7143
" />
<path d="M48.3612 145.7143
L48.4326 145.6429
" />
<path d="M48.4326 145.6429
L48.5755 145.5714
" />
<path d="M48.5755 145.5714
L48.9326 145.5714
" />
<path d="M48.9326 145.5714
L49.0755 145.6429
" />
<path d="M49.0755 145.6429
L49.1469 145.7143
" />
<path d="M49.1469 145.7143
L49.2183 145.8571
" />
<path d="M49.2183 145.8571
L49.2183 146.2143
" />
<path d="M49.2183 146.2143
L49.1469 146.3571
" />
<path d="M49.1469 146.3571
L49.0755 146.4286
" />
<path d="M47.7183 144.6429
L47.7183 144.5000
" />
<path d="M47.7183 144.5000
L47.7898 144.3571
" />
<path d="M47.7898 144.3571
L47.8612 144.2857
" />
<path d="M47.8612 144.2857
L48.0040 144.2143
" />
<path d="M48.0040 144.2143
L48.2898 144.1429
" />
<path d="M48.2898 144.1429
L48.6469 144.1429
" />
<path d="M48.6469 144.1429
L48.9326 144.2143
" />
<path d="M48.9326 144.2143
L49.0755 144.2857
" />
<path d="M49.0755 144.2857
L49.1469 144.3571
" />
<path d="M49.1469 144.3571
L49.2183 144.5000
" />
<path d="M49.2183 144.5000
L49.2183 144.6429
" />
<path d="M49.2183 144.6429
L49.1469 144.7857
" />
<path d="M49.1469 144.7857
L49.0755 144.8571
" />
<path d="M49.0755 144.8571
L48.9326 144.9286
" />
<path d="M48.9326 144.9286
L48.6469 145.0000
" />
<path d="M48.6469 145.0000
L48.2898 145.0000
" />
<path d="M48.2898 145.0000
L48.0040 144.9286
" />
<path d="M48.0040 144.9286
L47.8612 144.8571
" />
<path d="M47.8612 144.8571
L47.7898 144.7857
" />
<path d="M47.7898 144.7857
L47.7183 144.6429
" />
<path d="M49.0755 143.5000
L49.1469 143.4286
" />
<path d="M49.1469 143.4286
L49.2183 143.5000
" />
<path d="M49.2183 143.5000
L49.1469 143.5714
" />
<path d="M49.1469 143.5714
L49.0755 143.5000
" />
<path d="M49.0755 143.5000
L49.2183 143.5000
" />
<path d="M47.7183 142.5000
L47.7183 142.3571
" />
<path d="M47.7183 142.3571
L47.7898 142.2143
" />
<path d="M47.7898 142.2143
L47.8612 142.1429
" />
<path d="M47.8612 142.1429
L48.0040 142.0714
" />
<path d="M48.0040 142.0714
L48.2898 142.0000
" />
<path d="M48.2898 142.0000
L48.6469 142.0000
" />
<path d="M48.6469 142.0000
L48.9326 142.0714
" />
<path d="M48.9326 142.0714
L49.0755 142.1429
" />
<path d="M49.0755 142.1429
L49.1469 142.2143
" />
<path d="M49.1469 142.2143
L49.2183 142.3571
" />
<path d="M49.2183 142.3571
L49.2183 142.5000
" />
<path d="M49.2183 142.5000
L49.1469 142.6429
" />
<path d="M49.1469 142.6429
L49.0755 142.7143
" />
<path d="M49.0755 142.7143
L48.9326 142.7857
" />
<path d="M48.9326 142.7857
L48.6469 142.8571
" />
<path d="M48.6469 142.8571
L48.2898 142.8571
" />
<path d="M48.2898 142.8571
L48.0040 142.7857
" />
<path d="M48.0040 142.7857
L47.8612 142.7143
" />
<path d="M47.8612 142.7143
L47.7898 142.6429
" />
<path d="M47.7898 142.6429
L47.7183 142.5000
" />
<path d="M47.7183 141.0714
L47.7183 140.9286
" />
<path d="M47.7183 140.9286
L47.7898 140.7857
" />
<path d="M47.7898 140.7857
L47.8612 140.7143
" />
<path d="M47.8612 140.7143
L48.0040 140.6429
" />
<path d="M48.0040 140.6429
L48.2898 140.5714
" />
<path d="M48.2898 140.5714
L48.6469 140.5714
" />
<path d="M48.6469 140.5714
L48.9326 140.6429
" />
<path d="M48.9326 140.6429
L49.0755 140.7143
" />
<path d="M49.0755 140.7143
L49.1469 140.7857
" />
<path d="M49.1469 140.7857
L49.2183 140.9286
" />
<path d="M49.2183 140.9286
L49.2183 141.0714
" />
<path d="M49.2183 141.0714
L49.1469 141.2143
" />
<path d="M49.1469 141.2143
L49.0755 141.2857
" />
<path d="M49.0755 141.2857
L48.9326 141.3571
" />
<path d="M48.9326 141.3571
L48.6469 141.4286
" />
<path d="M48.6469 141.4286
L48.2898 141.4286
" />
<path d="M48.2898 141.4286
L48.0040 141.3571
" />
<path d="M48.0040 141.3571
L47.8612 141.2857
" />
<path d="M47.8612 141.2857
L47.7898 141.2143
" />
<path d="M47.7898 141.2143
L47.7183 141.0714
" />
<path d="M47.7183 139.6429
L47.7183 139.5000
" />
<path d="M47.7183 139.5000
L47.7898 139.3571
" />
<path d="M47.7898 139.3571
L47.8612 139.2857
" />
<path d="M47.8612 139.2857
L48.0040 139.2143
" />
<path d="M48.0040 139.2143
L48.2898 139.1429
" />
<path d="M48.2898 139.1429
L48.6469 139.1429
" />
<path d="M48.6469 139.1429
L48.9326 139.2143
" />
<path d="M48.9326 139.2143
L49.0755 139.2857
" />
<path d="M49.0755 139.2857
L49.1469 139.3571
" />
<path d="M49.1469 139.3571
L49.2183 139.5000
" />
<path d="M49.2183 139.5000
L49.2183 139.6429
" />
<path d="M49.2183 139.6429
L49.1469 139.7857
" />
<path d="M49.1469 139.7857
L49.0755 139.8571
" />
<path d="M49.0755 139.8571
L48.9326 139.9286
" />
<path d="M48.9326 139.9286
L48.6469 140.0000
" />
<path d="M48.6469 140.0000
L48.2898 140.0000
" />
<path d="M48.2898 140.0000
L48.0040 139.9286
" />
<path d="M48.0040 139.9286
L47.8612 139.8571
" />
<path d="M47.8612 139.8571
L47.7898 139.7857
" />
<path d="M47.7898 139.7857
L47.7183 139.6429
" />
<path d="M47.7183 138.2143
L47.7183 138.0714
" />
<path d="M47.7183 138.0714
L47.7898 137.9286
" />
<path d="M47.7898 137.9286
L47.8612 137.8571
" />
<path d="M47.8612 137.8571
L48.0040 137.7857
" />
<path d="M48.0040 137.7857
L48.2898 137.7143
" />
<path d="M48.2898 137.7143
L48.6469 137.7143
" />
<path d="M48.6469 137.7143
L48.9326 137.7857
" />
<path d="M48.9326 137.7857
L49.0755 137.8571
" />
<path d="M49.0755 137.8571
L49.1469 137.9286
" />
<path d="M49.1469 137.9286
L49.2183 138.0714
" />
<path d="M49.2183 138.0714
L49.2183 138.2143
" />
<path d="M49.2183 138.2143
L49.1469 138.3571
" />
<path d="M49.1469 138.3571
L49.0755 138.4286
" />
<path d="M49.0755 138.4286
L48.9326 138.5000
" />
<path d="M48.9326 138.5000
L48.6469 138.5714
" />
<path d="M48.6469 138.5714
L48.2898 138.5714
" />
<path d="M48.2898 138.5714
L48.0040 138.5000
" />
<path d="M48.0040 138.5000
L47.8612 138.4286
" />
<path d="M47.8612 138.4286
L47.7898 138.3571
" />
<path d="M47.7898 138.3571
L47.7183 138.2143
" />
<path d="M49.2183 135.9286
L48.2183 135.9286
" />
<path d="M48.3612 135.9286
L48.2898 135.8571
" />
<path d="M48.2898 135.8571
L48.2183 135.7143
" />
<path d="M48.2183 135.7143
L48.2183 135.5000
" />
<path d="M48.2183 135.5000
L48.2898 135.3571
" />
<path d="M48.2898 135.3571
L48.4326 135.2857
" />
<path d="M48.4326 135.2857
L49.2183 135.2857
" />
<path d="M48.4326 135.2857
L48.2898 135.2143
" />
<path d="M48.2898 135.2143
L48.2183 135.0714
" />
<path d="M48.2183 135.0714
L48.2183 134.8571
" />
<path d="M48.2183 134.8571
L48.2898 134.7143
" />
<path d="M48.2898 134.7143
L48.4326 134.6429
" />
<path d="M48.4326 134.6429
L49.2183 134.6429
" />
<path d="M49.2183 133.9286
L48.2183 133.9286
" />
<path d="M48.3612 133.9286
L48.2898 133.8571
" />
<path d="M48.2898 133.8571
L48.2183 133.7143
" />
<path d="M48.2183 133.7143
L48.2183 133.5000
" />
<path d="M48.2183 133.5000
L48.2898 133.3571
" />
<path d="M48.2898 133.3571
L48.4326 133.2857
" />
<path d="M48.4326 133.2857
L49.2183 133.2857
" />
<path d="M48.4326 133.2857
L48.2898 133.2143
" />
<path d="M48.2898 133.2143
L48.2183 133.0714
" />
<path d="M48.2183 133.0714
L48.2183 132.8571
" />
<path d="M48.2183 132.8571
L48.2898 132.7143
" />
<path d="M48.2898 132.7143
L48.4326 132.6429
" />
<path d="M48.4326 132.6429
L49.2183 132.6429
" />
</g><path d="M60.5000 114.5000
L49.7536 114.5000
" />
<path d="M60.5000 164.5000
L49.7536 164.5000
" />
<path d="M50.3400 114.5000
L50.3400 164.5000
" />
<path d="M50.3400 114.5000
L50.9264 115.6265
" />
<path d="M50.3400 114.5000
L49.7536 115.6265
" />
<path d="M50.3400 164.5000
L49.7536 163.3735
" />
<path d="M50.3400 164.5000
L50.9264 163.3735
" />
<text x="157.7500" y="108.8461"
textLength="13.6000" font-size="2.0000" lengthAdjust="spacingAndGlyphs"
text-anchor="middle" opacity="0" stroke-opacity="0">5.5000 mm</text>
<g class="stroked-text"><desc>5.5000 mm</desc>
<path d="M152.3214 107.2744
L151.6071 107.2744
" />
<path d="M151.6071 107.2744
L151.5357 107.9887
" />
<path d="M151.5357 107.9887
L151.6071 107.9173
" />
<path d="M151.6071 107.9173
L151.7500 107.8459
" />
<path d="M151.7500 107.8459
L152.1071 107.8459
" />
<path d="M152.1071 107.8459
L152.2500 107.9173
" />
<path d="M152.2500 107.9173
L152.3214 107.9887
" />
<path d="M152.3214 107.9887
L152.3929 108.1316
" />
<path d="M152.3929 108.1316
L152.3929 108.4887
" />
<path d="M152.3929 108.4887
L152.3214 108.6316
" />
<path d="M152.3214 108.6316
L152.2500 108.7030
" />
<path d="M152.2500 108.7030
L152.1071 108.7744
" />
<path d="M152.1071 108.7744
L151.7500 108.7744
" />
<path d="M151.7500 108.7744
L151.6071 108.7030
" />
<path d="M151.6071 108.7030
L151.5357 108.6316
" />
<path d="M153.0357 108.6316
L153.1071 108.7030
" />
<path d="M153.1071 108.7030
L153.0357 108.7744
" />
<path d="M153.0357 108.7744
L152.9643 108.7030
" />
<path d="M152.9643 108.7030
L153.0357 108.6316
" />
<path d="M153.0357 108.6316
L153.0357 108.7744
" />
<path d="M154.4643 107.2744
L153.7500 107.2744
" />
<path d="M153.7500 107.2744
L153.6786 107.9887
" />
<path d="M153.6786 107.9887
L153.7500 107.9173
" />
<path d="M153.7500 107.9173
L153.8929 107.8459
" />
<path d="M153.8929 107.8459
L154.2500 107.8459
" />
<path d="M154.2500 107.8459
L154.3929 107.9173
" />
<path d="M154.3929 107.9173
L154.4643 107.9887
" />
<path d="M154.4643 107.9887
L154.5357 108.1316
" />
<path d="M154.5357 108.1316
L154.5357 108.4887
" />
<path d="M154.5357 108.4887
L154.4643 108.6316
" />
<path d="M154.4643 108.6316
L154.3929 108.7030
" />
<path d="M154.3929 108.7030
L154.2500 108.7744
" />
<path d="M154.2500 108.7744
L153.8929 108.7744
" />
<path d="M153.8929 108.7744
L153.7500 108.7030
" />
<path d="M153.7500 108.7030
L153.6786 108.6316
" />
<path d="M155.4643 107.2744
L155.6071 107.2744
" />
<path d="M155.6071 107.2744
L155.7500 107.3459
" />
<path d="M155.7500 107.3459
L155.8214 107.4173
" />
<path d="M155.8214 107.4173
L155.8929 107.5602
" />
<path d="M155.8929 107.5602
L155.9643 107.8459
" />
<path d="M155.9643 107.8459
L155.9643 108.2030
" />
<path d="M155.9643 108.2030
L155.8929 108.4887
" />
<path d="M155.8929 108.4887
L155.8214 108.6316
" />
<path d="M155.8214 108.6316
L155.7500 108.7030
" />
<path d="M155.7500 108.7030
L155.6071 108.7744
" />
<path d="M155.6071 108.7744
L155.4643 108.7744
" />
<path d="M155.4643 108.7744
L155.3214 108.7030
" />
<path d="M155.3214 108.7030
L155.2500 108.6316
" />
<path d="M155.2500 108.6316
L155.1786 108.4887
" />
<path d="M155.1786 108.4887
L155.1071 108.2030
" />
<path d="M155.1071 108.2030
L155.1071 107.8459
" />
<path d="M155.1071 107.8459
L155.1786 107.5602
" />
<path d="M155.1786 107.5602
L155.2500 107.4173
" />
<path d="M155.2500 107.4173
L155.3214 107.3459
" />
<path d="M155.3214 107.3459
L155.4643 107.2744
" />
<path d="M156.8929 107.2744
L157.0357 107.2744
" />
<path d="M157.0357 107.2744
L157.1786 107.3459
" />
<path d="M157.1786 107.3459
L157.2500 107.4173
" />
<path d="M157.2500 107.4173
L157.3214 107.5602
" />
<path d="M157.3214 107.5602
L157.3929 107.8459
" />
<path d="M157.3929 107.8459
L157.3929 108.2030
" />
<path d="M157.3929 108.2030
L157.3214 108.4887
" />
<path d="M157.3214 108.4887
L157.2500 108.6316
" />
<path d="M157.2500 108.6316
L157.1786 108.7030
" />
<path d="M157.1786 108.7030
L157.0357 108.7744
" />
<path d="M157.0357 108.7744
L156.8929 108.7744
" />
<path d="M156.8929 108.7744
L156.7500 108.7030
" />
<path d="M156.7500 108.7030
L156.6786 108.6316
" />
<path d="M156.6786 108.6316
L156.6071 108.4887
" />
<path d="M156.6071 108.4887
L156.5357 108.2030
" />
<path d="M156.5357 108.2030
L156.5357 107.8459
" />
<path d="M156.5357 107.8459
L156.6071 107.5602
" />
<path d="M156.6071 107.5602
L156.6786 107.4173
" />
<path d="M156.6786 107.4173
L156.7500 107.3459
" />
<path d="M156.7500 107.3459
L156.8929 107.2744
" />
<path d="M158.3214 107.2744
L158.4643 107.2744
" />
<path d="M158.4643 107.2744
L158.6071 107.3459
" />
<path d="M158.6071 107.3459
L158.6786 107.4173
" />
<path d="M158.6786 107.4173
L158.7500 107.5602
" />
<path d="M158.7500 107.5602
L158.8214 107.8459
" />
<path d="M158.8214 107.8459
L158.8214 108.2030
" />
<path d="M158.8214 108.2030
L158.7500 108.4887
" />
<path d="M158.7500 108.4887
L158.6786 108.6316
" />
<path d="M158.6786 108.6316
L158.6071 108.7030
" />
<path d="M158.6071 108.7030
L158.4643 108.7744
" />
<path d="M158.4643 108.7744
L158.3214 108.7744
" />
<path d="M158.3214 108.7744
L158.1786 108.7030
" />
<path d="M158.1786 108.7030
L158.1071 108.6316
" />
<path d="M158.1071 108.6316
L158.0357 108.4887
" />
<path d="M158.0357 108.4887
L157.9643 108.2030
" />
<path d="M157.9643 108.2030
L157.9643 107.8459
" />
<path d="M157.9643 107.8459
L158.0357 107.5602
" />
<path d="M158.0357 107.5602
L158.1071 107.4173
" />
<path d="M158.1071 107.4173
L158.1786 107.3459
" />
<path d="M158.1786 107.3459
L158.3214 107.2744
" />
<path d="M160.6071 108.7744
L160.6071 107.7744
" />
<path d="M160.6071 107.9173
L160.6786 107.8459
" />
<path d="M160.6786 107.8459
L160.8214 107.7744
" />
<path d="M160.8214 107.7744
L161.0357 107.7744
" />
<path d="M161.0357 107.7744
L161.1786 107.8459
" />
<path d="M161.1786 107.8459
L161.2500 107.9887
" />
<path d="M161.2500 107.9887
L161.2500 108.7744
" />
<path d="M161.2500 107.9887
L161.3214 107.8459
" />
<path d="M161.3214 107.8459
L161.4643 107.7744
" />
<path d="M161.4643 107.7744
L161.6786 107.7744
" />
<path d="M161.6786 107.7744
L161.8214 107.8459
" />
<path d="M161.8214 107.8459
L161.8929 107.9887
" />
<path d="M161.8929 107.9887
L161.8929 108.7744
" />
<path d="M162.6071 108.7744
L162.6071 107.7744
" />
<path d="M162.6071 107.9173
L162.6786 107.8459
" />
<path d="M162.6786 107.8459
L162.8214 107.7744
" />
<path d="M162.8214 107.7744
L163.0357 107.7744
" />
<path d="M163.0357 107.7744
L163.1786 107.8459
" />
<path d="M163.1786 107.8459
L163.2500 107.9887
" />
<path d="M163.2500 107.9887
L163.2500 108.7744
" />
<path d="M163.2500 107.9887
L163.3214 107.8459
" />
<path d="M163.3214 107.8459
L163.4643 107.7744
" />
<path d="M163.4643 107.7744
L163.6786 107.7744
" />
<path d="M163.6786 107.7744
L163.8214 107.8459
" />
<path d="M163.8214 107.8459
L163.8929 107.9887
" />
<path d="M163.8929 107.9887
L163.8929 108.7744
" />
</g><path d="M160.5000 114.3961
L160.5000 109.3097
" />
<path d="M155.0000 114.3961
L155.0000 109.3097
" />
<path d="M160.5000 109.8961
L155.0000 109.8961
" />
<path d="M160.5000 109.8961
L159.3735 110.4825
" />
<path d="M160.5000 109.8961
L159.3735 109.3097
" />
<path d="M155.0000 109.8961
L156.1265 109.3097
" />
<path d="M155.0000 109.8961
L156.1265 110.4825
" />
<text x="110.5000" y="174.8800"
textLength="16.4571" font-size="2.0000" lengthAdjust="spacingAndGlyphs"
text-anchor="middle" opacity="0" stroke-opacity="0">100.0000 mm</text>
<g class="stroked-text"><desc>100.0000 mm</desc>
<path d="M103.7143 174.8083
L102.8571 174.8083
" />
<path d="M103.2857 174.8083
L103.2857 173.3083
" />
<path d="M103.2857 173.3083
L103.1429 173.5226
" />
<path d="M103.1429 173.5226
L103.0000 173.6655
" />
<path d="M103.0000 173.6655
L102.8571 173.7369
" />
<path d="M104.6429 173.3083
L104.7857 173.3083
" />
<path d="M104.7857 173.3083
L104.9286 173.3798
" />
<path d="M104.9286 173.3798
L105.0000 173.4512
" />
<path d="M105.0000 173.4512
L105.0714 173.5940
" />
<path d="M105.0714 173.5940
L105.1429 173.8798
" />
<path d="M105.1429 173.8798
L105.1429 174.2369
" />
<path d="M105.1429 174.2369
L105.0714 174.5226
" />
<path d="M105.0714 174.5226
L105.0000 174.6655
" />
<path d="M105.0000 174.6655
L104.9286 174.7369
" />
<path d="M104.9286 174.7369
L104.7857 174.8083
" />
<path d="M104.7857 174.8083
L104.6429 174.8083
" />
<path d="M104.6429 174.8083
L104.5000 174.7369
" />
<path d="M104.5000 174.7369
L104.4286 174.6655
" />
<path d="M104.4286 174.6655
L104.3571 174.5226
" />
<path d="M104.3571 174.5226
L104.2857 174.2369
" />
<path d="M104.2857 174.2369
L104.2857 173.8798
" />
<path d="M104.2857 173.8798
L104.3571 173.5940
" />
<path d="M104.3571 173.5940
L104.4286 173.4512
" />
<path d="M104.4286 173.4512
L104.5000 173.3798
" />
<path d="M104.5000 173.3798
L104.6429 173.3083
" />
<path d="M106.0714 173.3083
L106.2143 173.3083
" />
<path d="M106.2143 173.3083
L106.3571 173.3798
" />
<path d="M106.3571 173.3798
L106.4286 173.4512
" />
<path d="M106.4286 173.4512
L106.5000 173.5940
" />
<path d="M106.5000 173.5940
L106.5714 173.8798
" />
<path d="M106.5714 173.8798
L106.5714 174.2369
" />
<path d="M106.5714 174.2369
L106.5000 174.5226
" />
<path d="M106.5000 174.5226
L106.4286 174.6655
" />
<path d="M106.4286 174.6655
L106.3571 174.7369
" />
<path d="M106.3571 174.7369
L106.2143 174.8083
" />
<path d="M106.2143 174.8083
L106.0714 174.8083
" />
<path d="M106.0714 174.8083
L105.9286 174.7369
" />
<path d="M105.9286 174.7369
L105.8571 174.6655
" />
<path d="M105.8571 174.6655
L105.7857 174.5226
" />
<path d="M105.7857 174.5226
L105.7143 174.2369
" />
<path d="M105.7143 174.2369
L105.7143 173.8798
" />
<path d="M105.7143 173.8798
L105.7857 173.5940
" />
<path d="M105.7857 173.5940
L105.8571 173.4512
" />
<path d="M105.8571 173.4512
L105.9286 173.3798
" />
<path d="M105.9286 173.3798
L106.0714 173.3083
" />
<path d="M107.2143 174.6655
L107.2857 174.7369
" />
<path d="M107.2857 174.7369
L107.2143 174.8083
" />
<path d="M107.2143 174.8083
L107.1429 174.7369
" />
<path d="M107.1429 174.7369
L107.2143 174.6655
" />
<path d="M107.2143 174.6655
L107.2143 174.8083
" />
<path d="M108.2143 173.3083
L108.3571 173.3083
" />
<path d="M108.3571 173.3083
L108.5000 173.3798
" />
<path d="M108.5000 173.3798
L108.5714 173.4512
" />
<path d="M108.5714 173.4512
L108.6429 173.5940
" />
<path d="M108.6429 173.5940
L108.7143 173.8798
" />
<path d="M108.7143 173.8798
L108.7143 174.2369
" />
<path d="M108.7143 174.2369
L108.6429 174.5226
" />
<path d="M108.6429 174.5226
L108.5714 174.6655
" />
<path d="M108.5714 174.6655
L108.5000 174.7369
" />
<path d="M108.5000 174.7369
L108.3571 174.8083
" />
<path d="M108.3571 174.8083
L108.2143 174.8083
" />
<path d="M108.2143 174.8083
L108.0714 174.7369
" />
<path d="M108.0714 174.7369
L108.0000 174.6655
" />
<path d="M108.0000 174.6655
L107.9286 174.5226
" />
<path d="M107.9286 174.5226
L107.8571 174.2369
" />
<path d="M107.8571 174.2369
L107.8571 173.8798
" />
<path d="M107.8571 173.8798
L107.9286 173.5940
" />
<path d="M107.9286 173.5940
L108.0000 173.4512
" />
<path d="M108.0000 173.4512
L108.0714 173.3798
" />
<path d="M108.0714 173.3798
L108.2143 173.3083
" />
<path d="M109.6429 173.3083
L109.7857 173.3083
" />
<path d="M109.7857 173.3083
L109.9286 173.3798
" />
<path d="M109.9286 173.3798
L110.0000 173.4512
" />
<path d="M110.0000 173.4512
L110.0714 173.5940
" />
<path d="M110.0714 173.5940
L110.1429 173.8798
" />
<path d="M110.1429 173.8798
L110.1429 174.2369
" />
<path d="M110.1429 174.2369
L110.0714 174.5226
" />
<path d="M110.0714 174.5226
L110.0000 174.6655
" />
<path d="M110.0000 174.6655
L109.9286 174.7369
" />
<path d="M109.9286 174.7369
L109.7857 174.8083
" />
<path d="M109.7857 174.8083
L109.6429 174.8083
" />
<path d="M109.6429 174.8083
L109.5000 174.7369
" />
<path d="M109.5000 174.7369
L109.4286 174.6655
" />
<path d="M109.4286 174.6655
L109.3571 174.5226
" />
<path d="M109.3571 174.5226
L109.2857 174.2369
" />
<path d="M109.2857 174.2369
L109.2857 173.8798
" />
<path d="M109.2857 173.8798
L109.3571 173.5940
" />
<path d="M109.3571 173.5940
L109.4286 173.4512
" />
<path d="M109.4286 173.4512
L109.5000 173.3798
" />
<path d="M109.5000 173.3798
L109.6429 173.3083
" />
<path d="M111.0714 173.3083
L111.2143 173.3083
" />
<path d="M111.2143 173.3083
L111.3571 173.3798
" />
<path d="M111.3571 173.3798
L111.4286 173.4512
" />
<path d="M111.4286 173.4512
L111.5000 173.5940
" />
<path d="M111.5000 173.5940
L111.5714 173.8798
" />
<path d="M111.5714 173.8798
L111.5714 174.2369
" />
<path d="M111.5714 174.2369
L111.5000 174.5226
" />
<path d="M111.5000 174.5226
L111.4286 174.6655
" />
<path d="M111.4286 174.6655
L111.3571 174.7369
" />
<path d="M111.3571 174.7369
L111.2143 174.8083
" />
<path d="M111.2143 174.8083
L111.0714 174.8083
" />
<path d="M111.0714 174.8083
L110.9286 174.7369
" />
<path d="M110.9286 174.7369
L110.8571 174.6655
" />
<path d="M110.8571 174.6655
L110.7857 174.5226
" />
<path d="M110.7857 174.5226
L110.7143 174.2369
" />
<path d="M110.7143 174.2369
L110.7143 173.8798
" />
<path d="M110.7143 173.8798
L110.7857 173.5940
" />
<path d="M110.7857 173.5940
L110.8571 173.4512
" />
<path d="M110.8571 173.4512
L110.9286 173.3798
" />
<path d="M110.9286 173.3798
L111.0714 173.3083
" />
<path d="M112.5000 173.3083
L112.6429 173.3083
" />
<path d="M112.6429 173.3083
L112.7857 173.3798
" />
<path d="M112.7857 173.3798
L112.8571 173.4512
" />
<path d="M112.8571 173.4512
L112.9286 173.5940
" />
<path d="M112.9286 173.5940
L113.0000 173.8798
" />
<path d="M113.0000 173.8798
L113.0000 174.2369
" />
<path d="M113.0000 174.2369
L112.9286 174.5226
" />
<path d="M112.9286 174.5226
L112.8571 174.6655
" />
<path d="M112.8571 174.6655
L112.7857 174.7369
" />
<path d="M112.7857 174.7369
L112.6429 174.8083
" />
<path d="M112.6429 174.8083
L112.5000 174.8083
" />
<path d="M112.5000 174.8083
L112.3571 174.7369
" />
<path d="M112.3571 174.7369
L112.2857 174.6655
" />
<path d="M112.2857 174.6655
L112.2143 174.5226
" />
<path d="M112.2143 174.5226
L112.1429 174.2369
" />
<path d="M112.1429 174.2369
L112.1429 173.8798
" />
<path d="M112.1429 173.8798
L112.2143 173.5940
" />
<path d="M112.2143 173.5940
L112.2857 173.4512
" />
<path d="M112.2857 173.4512
L112.3571 173.3798
" />
<path d="M112.3571 173.3798
L112.5000 173.3083
" />
<path d="M114.7857 174.8083
L114.7857 173.8083
" />
<path d="M114.7857 173.9512
L114.8571 173.8798
" />
<path d="M114.8571 173.8798
L115.0000 173.8083
" />
<path d="M115.0000 173.8083
L115.2143 173.8083
" />
<path d="M115.2143 173.8083
L115.3571 173.8798
" />
<path d="M115.3571 173.8798
L115.4286 174.0226
" />
<path d="M115.4286 174.0226
L115.4286 174.8083
" />
<path d="M115.4286 174.0226
L115.5000 173.8798
" />
<path d="M115.5000 173.8798
L115.6429 173.8083
" />
<path d="M115.6429 173.8083
L115.8571 173.8083
" />
<path d="M115.8571 173.8083
L116.0000 173.8798
" />
<path d="M116.0000 173.8798
L116.0714 174.0226
" />
<path d="M116.0714 174.0226
L116.0714 174.8083
" />
<path d="M116.7857 174.8083
L116.7857 173.8083
" />
<path d="M116.7857 173.9512
L116.8571 173.8798
" />
<path d="M116.8571 173.8798
L117.0000 173.8083
" />
<path d="M117.0000 173.8083
L117.2143 173.8083
" />
<path d="M117.2143 173.8083
L117.3571 173.8798
" />
<path d="M117.3571 173.8798
L117.4286 174.0226
" />
<path d="M117.4286 174.0226
L117.4286 174.8083
" />
<path d="M117.4286 174.0226
L117.5000 173.8798
" />
<path d="M117.5000 173.8798
L117.6429 173.8083
" />
<path d="M117.6429 173.8083
L117.8571 173.8083
" />
<path d="M117.8571 173.8083
L118.0000 173.8798
" />
<path d="M118.0000 173.8798
L118.0714 174.0226
" />
<path d="M118.0714 174.0226
L118.0714 174.8083
" />
</g><path d="M160.5000 164.5000
L160.5000 176.5164
" />
<path d="M60.5000 164.5000
L60.5000 176.5164
" />
<path d="M160.5000 175.9300
L60.5000 175.9300
" />
<path d="M160.5000 175.9300
L159.3735 176.5164
" />
<path d="M160.5000 175.9300
L159.3735 175.3436
" />
<path d="M60.5000 175.9300
L61.6265 175.3436
" />
<path d="M60.5000 175.9300
L61.6265 176.5164
" />
<g transform="rotate(-90.000000 53.6200 147.0000)">
<text x="53.6200" y="147.7500"
textLength="15.0286" font-size="2.0000" lengthAdjust="spacingAndGlyphs"
text-anchor="middle" opacity="0" stroke-opacity="0">35.0000 mm</text>
</g>
<g class="stroked-text"><desc>35.0000 mm</desc>
<path d="M52.7983 154.0000
L52.7983 153.0714
" />
<path d="M52.7983 153.0714
L53.3698 153.5714
" />
<path d="M53.3698 153.5714
L53.3698 153.3571
" />
<path d="M53.3698 153.3571
L53.4412 153.2143
" />
<path d="M53.4412 153.2143
L53.5126 153.1429
" />
<path d="M53.5126 153.1429
L53.6555 153.0714
" />
<path d="M53.6555 153.0714
L54.0126 153.0714
" />
<path d="M54.0126 153.0714
L54.1555 153.1429
" />
<path d="M54.1555 153.1429
L54.2269 153.2143
" />
<path d="M54.2269 153.2143
L54.2983 153.3571
" />
<path d="M54.2983 153.3571
L54.2983 153.7857
" />
<path d="M54.2983 153.7857
L54.2269 153.9286
" />
<path d="M54.2269 153.9286
L54.1555 154.0000
" />
<path d="M52.7983 151.7143
L52.7983 152.4286
" />
<path d="M52.7983 152.4286
L53.5126 152.5000
" />
<path d="M53.5126 152.5000
L53.4412 152.4286
" />
<path d="M53.4412 152.4286
L53.3698 152.2857
" />
<path d="M53.3698 152.2857
L53.3698 151.9286
" />
<path d="M53.3698 151.9286
L53.4412 151.7857
" />
<path d="M53.4412 151.7857
L53.5126 151.7143
" />
<path d="M53.5126 151.7143
L53.6555 151.6429
" />
<path d="M53.6555 151.6429
L54.0126 151.6429
" />
<path d="M54.0126 151.6429
L54.1555 151.7143
" />
<path d="M54.1555 151.7143
L54.2269 151.7857
" />
<path d="M54.2269 151.7857
L54.2983 151.9286
" />
<path d="M54.2983 151.9286
L54.2983 152.2857
" />
<path d="M54.2983 152.2857
L54.2269 152.4286
" />
<path d="M54.2269 152.4286
L54.1555 152.5000
" />
<path d="M54.1555 151.0000
L54.2269 150.9286
" />
<path d="M54.2269 150.9286
L54.2983 151.0000
" />
<path d="M54.2983 151.0000
L54.2269 151.0714
" />
<path d="M54.2269 151.0714
L54.1555 151.0000
" />
<path d="M54.1555 151.0000
L54.2983 151.0000
" />
<path d="M52.7983 150.0000
L52.7983 149.8571
" />
<path d="M52.7983 149.8571
L52.8698 149.7143
" />
<path d="M52.8698 149.7143
L52.9412 149.6429
" />
<path d="M52.9412 149.6429
L53.0840 149.5714
" />
<path d="M53.0840 149.5714
L53.3698 149.5000
" />
<path d="M53.3698 149.5000
L53.7269 149.5000
" />
<path d="M53.7269 149.5000
L54.0126 149.5714
" />
<path d="M54.0126 149.5714
L54.1555 149.6429
" />
<path d="M54.1555 149.6429
L54.2269 149.7143
" />
<path d="M54.2269 149.7143
L54.2983 149.8571
" />
<path d="M54.2983 149.8571
L54.2983 150.0000
" />
<path d="M54.2983 150.0000
L54.2269 150.1429
" />
<path d="M54.2269 150.1429
L54.1555 150.2143
" />
<path d="M54.1555 150.2143
L54.0126 150.2857
" />
<path d="M54.0126 150.2857
L53.7269 150.3571
" />
<path d="M53.7269 150.3571
L53.3698 150.3571
" />
<path d="M53.3698 150.3571
L53.0840 150.2857
" />
<path d="M53.0840 150.2857
L52.9412 150.2143
" />
<path d="M52.9412 150.2143
L52.8698 150.1429
" />
<path d="M52.8698 150.1429
L52.7983 150.0000
" />
<path d="M52.7983 148.5714
L52.7983 148.4286
" />
<path d="M52.7983 148.4286
L52.8698 148.2857
" />
<path d="M52.8698 148.2857
L52.9412 148.2143
" />
<path d="M52.9412 148.2143
L53.0840 148.1429
" />
<path d="M53.0840 148.1429
L53.3698 148.0714
" />
<path d="M53.3698 148.0714
L53.7269 148.0714
" />
<path d="M53.7269 148.0714
L54.0126 148.1429
" />
<path d="M54.0126 148.1429
L54.1555 148.2143
" />
<path d="M54.1555 148.2143
L54.2269 148.2857
" />
<path d="M54.2269 148.2857
L54.2983 148.4286
" />
<path d="M54.2983 148.4286
L54.2983 148.5714
" />
<path d="M54.2983 148.5714
L54.2269 148.7143
" />
<path d="M54.2269 148.7143
L54.1555 148.7857
" />
<path d="M54.1555 148.7857
L54.0126 148.8571
" />
<path d="M54.0126 148.8571
L53.7269 148.9286
" />
<path d="M53.7269 148.9286
L53.3698 148.9286
" />
<path d="M53.3698 148.9286
L53.0840 148.8571
" />
<path d="M53.0840 148.8571
L52.9412 148.7857
" />
<path d="M52.9412 148.7857
L52.8698 148.7143
" />
<path d="M52.8698 148.7143
L52.7983 148.5714
" />
<path d="M52.7983 147.1429
L52.7983 147.0000
" />
<path d="M52.7983 147.0000
L52.8698 146.8571
" />
<path d="M52.8698 146.8571
L52.9412 146.7857
" />
<path d="M52.9412 146.7857
L53.0840 146.7143
" />
<path d="M53.0840 146.7143
L53.3698 146.6429
" />
<path d="M53.3698 146.6429
L53.7269 146.6429
" />
<path d="M53.7269 146.6429
L54.0126 146.7143
" />
<path d="M54.0126 146.7143
L54.1555 146.7857
" />
<path d="M54.1555 146.7857
L54.2269 146.8571
" />
<path d="M54.2269 146.8571
L54.2983 147.0000
" />
<path d="M54.2983 147.0000
L54.2983 147.1429
" />
<path d="M54.2983 147.1429
L54.2269 147.2857
" />
<path d="M54.2269 147.2857
L54.1555 147.3571
" />
<path d="M54.1555 147.3571
L54.0126 147.4286
" />
<path d="M54.0126 147.4286
L53.7269 147.5000
" />
<path d="M53.7269 147.5000
L53.3698 147.5000
" />
<path d="M53.3698 147.5000
L53.0840 147.4286
" />
<path d="M53.0840 147.4286
L52.9412 147.3571
" />
<path d="M52.9412 147.3571
L52.8698 147.2857
" />
<path d="M52.8698 147.2857
L52.7983 147.1429
" />
<path d="M52.7983 145.7143
L52.7983 145.5714
" />
<path d="M52.7983 145.5714
L52.8698 145.4286
" />
<path d="M52.8698 145.4286
L52.9412 145.3571
" />
<path d="M52.9412 145.3571
L53.0840 145.2857
" />
<path d="M53.0840 145.2857
L53.3698 145.2143
" />
<path d="M53.3698 145.2143
L53.7269 145.2143
" />
<path d="M53.7269 145.2143
L54.0126 145.2857
" />
<path d="M54.0126 145.2857
L54.1555 145.3571
" />
<path d="M54.1555 145.3571
L54.2269 145.4286
" />
<path d="M54.2269 145.4286
L54.2983 145.5714
" />
<path d="M54.2983 145.5714
L54.2983 145.7143
" />
<path d="M54.2983 145.7143
L54.2269 145.8571
" />
<path d="M54.2269 145.8571
L54.1555 145.9286
" />
<path d="M54.1555 145.9286
L54.0126 146.0000
" />
<path d="M54.0126 146.0000
L53.7269 146.0714
" />
<path d="M53.7269 146.0714
L53.3698 146.0714
" />
<path d="M53.3698 146.0714
L53.0840 146.0000
" />
<path d="M53.0840 146.0000
L52.9412 145.9286
" />
<path d="M52.9412 145.9286
L52.8698 145.8571
" />
<path d="M52.8698 145.8571
L52.7983 145.7143
" />
<path d="M54.2983 143.4286
L53.2983 143.4286
" />
<path d="M53.4412 143.4286
L53.3698 143.3571
" />
<path d="M53.3698 143.3571
L53.2983 143.2143
" />
<path d="M53.2983 143.2143
L53.2983 143.0000
" />
<path d="M53.2983 143.0000
L53.3698 142.8571
" />
<path d="M53.3698 142.8571
L53.5126 142.7857
" />
<path d="M53.5126 142.7857
L54.2983 142.7857
" />
<path d="M53.5126 142.7857
L53.3698 142.7143
" />
<path d="M53.3698 142.7143
L53.2983 142.5714
" />
<path d="M53.2983 142.5714
L53.2983 142.3571
" />
<path d="M53.2983 142.3571
L53.3698 142.2143
" />
<path d="M53.3698 142.2143
L53.5126 142.1429
" />
<path d="M53.5126 142.1429
L54.2983 142.1429
" />
<path d="M54.2983 141.4286
L53.2983 141.4286
" />
<path d="M53.4412 141.4286
L53.3698 141.3571
" />
<path d="M53.3698 141.3571
L53.2983 141.2143
" />
<path d="M53.2983 141.2143
L53.2983 141.0000
" />
<path d="M53.2983 141.0000
L53.3698 140.8571
" />
<path d="M53.3698 140.8571
L53.5126 140.7857
" />
<path d="M53.5126 140.7857
L54.2983 140.7857
" />
<path d="M53.5126 140.7857
L53.3698 140.7143
" />
<path d="M53.3698 140.7143
L53.2983 140.5714
" />
<path d="M53.2983 140.5714
L53.2983 140.3571
" />
<path d="M53.2983 140.3571
L53.3698 140.2143
" />
<path d="M53.3698 140.2143
L53.5126 140.1429
" />
<path d="M53.5126 140.1429
L54.2983 140.1429
" />
</g><path d="M60.5000 129.5000
L54.8336 129.5000
" />
<path d="M60.5000 164.5000
L54.8336 164.5000
" />
<path d="M55.4200 129.5000
L55.4200 164.5000
" />
<path d="M55.4200 129.5000
L56.0064 130.6265
" />
<path d="M55.4200 129.5000
L54.8336 130.6265
" />
<path d="M55.4200 164.5000
L54.8336 163.3735
" />
<path d="M55.4200 164.5000
L56.0064 163.3735
" />
</g> 
</svg>
