%TF.GenerationSoftware,KiCad,Pcbnew,9.0.1+1*%
%TF.CreationDate,2025-10-04T22:34:10+00:00*%
%TF.ProjectId,rcbus-opl3,72636275-732d-46f7-906c-332e6b696361,@version@*%
%TF.SameCoordinates,Original*%
%TF.FileFunction,Other,User*%
%FSLAX46Y46*%
G04 Gerber Fmt 4.6, Leading zero omitted, Abs format (unit mm)*
G04 Created by KiCad (PCBNEW 9.0.1+1) date 2025-10-04 22:34:10*
%MOMM*%
%LPD*%
G01*
G04 APERTURE LIST*
%ADD10C,0.050000*%
G04 APERTURE END LIST*
D10*
%TO.C,C1*%
X79520000Y-141770000D02*
X82480000Y-141770000D01*
X79520000Y-143230000D02*
X79520000Y-141770000D01*
X82480000Y-141770000D02*
X82480000Y-143230000D01*
X82480000Y-143230000D02*
X79520000Y-143230000D01*
%TO.C,C7*%
X109270000Y-140770000D02*
X112230000Y-140770000D01*
X109270000Y-142230000D02*
X109270000Y-140770000D01*
X112230000Y-140770000D02*
X112230000Y-142230000D01*
X112230000Y-142230000D02*
X109270000Y-142230000D01*
%TO.C,CON1*%
X145319000Y-131845000D02*
X145319000Y-119345000D01*
X160319000Y-119345000D02*
X145319000Y-119345000D01*
X160319000Y-131845000D02*
X145319000Y-131845000D01*
X160319000Y-131845000D02*
X160319000Y-119345000D01*
%TO.C,JP1*%
X60680000Y-139690000D02*
X60680000Y-155930000D01*
X60680000Y-155930000D02*
X66770000Y-155930000D01*
X66770000Y-139690000D02*
X60680000Y-139690000D01*
X66770000Y-155930000D02*
X66770000Y-139690000D01*
%TO.C,H1*%
X68482000Y-131882000D02*
G75*
G02*
X61582000Y-131882000I-3450000J0D01*
G01*
X61582000Y-131882000D02*
G75*
G02*
X68482000Y-131882000I3450000J0D01*
G01*
%TO.C,P1*%
X59700000Y-161700000D02*
X59700000Y-165300000D01*
X59700000Y-165300000D02*
X159800000Y-165300000D01*
X159800000Y-161700000D02*
X59700000Y-161700000D01*
X159800000Y-165300000D02*
X159800000Y-161700000D01*
%TO.C,U1*%
X79350000Y-146350000D02*
X79730000Y-146350000D01*
X79350000Y-154350000D02*
X79350000Y-146350000D01*
X79730000Y-144420000D02*
X92270000Y-144420000D01*
X79730000Y-146350000D02*
X79730000Y-144420000D01*
X79730000Y-154350000D02*
X79350000Y-154350000D01*
X79730000Y-156280000D02*
X79730000Y-154350000D01*
X92270000Y-144420000D02*
X92270000Y-146350000D01*
X92270000Y-146350000D02*
X92650000Y-146350000D01*
X92270000Y-154350000D02*
X92270000Y-156280000D01*
X92270000Y-156280000D02*
X79730000Y-156280000D01*
X92650000Y-146350000D02*
X92650000Y-154350000D01*
X92650000Y-154350000D02*
X92270000Y-154350000D01*
%TO.C,C11*%
X120270000Y-128400197D02*
X121730000Y-128400197D01*
X120270000Y-131360197D02*
X120270000Y-128400197D01*
X121730000Y-128400197D02*
X121730000Y-131360197D01*
X121730000Y-131360197D02*
X120270000Y-131360197D01*
%TO.C,C8*%
X103950000Y-129850000D02*
X103950000Y-135800000D01*
X105100000Y-128700000D02*
X103950000Y-129850000D01*
X106450000Y-127550000D02*
X106450000Y-128700000D01*
X106450000Y-128700000D02*
X105100000Y-128700000D01*
X106450000Y-135800000D02*
X103950000Y-135800000D01*
X106450000Y-136950000D02*
X106450000Y-135800000D01*
X108550000Y-127550000D02*
X106450000Y-127550000D01*
X108550000Y-128700000D02*
X108550000Y-127550000D01*
X108550000Y-135800000D02*
X108550000Y-136950000D01*
X108550000Y-136950000D02*
X106450000Y-136950000D01*
X109900000Y-128700000D02*
X108550000Y-128700000D01*
X109900000Y-128700000D02*
X111050000Y-129850000D01*
X111050000Y-129850000D02*
X111050000Y-135800000D01*
X111050000Y-135800000D02*
X108550000Y-135800000D01*
%TO.C,C12*%
X118020000Y-128400197D02*
X119480000Y-128400197D01*
X118020000Y-131360197D02*
X118020000Y-128400197D01*
X119480000Y-128400197D02*
X119480000Y-131360197D01*
X119480000Y-131360197D02*
X118020000Y-131360197D01*
%TO.C,U2*%
X126550000Y-146500000D02*
X126990000Y-146500000D01*
X126550000Y-154500000D02*
X126550000Y-146500000D01*
X126990000Y-144600000D02*
X142010000Y-144600000D01*
X126990000Y-146500000D02*
X126990000Y-144600000D01*
X126990000Y-154500000D02*
X126550000Y-154500000D01*
X126990000Y-156400000D02*
X126990000Y-154500000D01*
X142010000Y-144600000D02*
X142010000Y-146500000D01*
X142010000Y-146500000D02*
X142450000Y-146500000D01*
X142010000Y-154500000D02*
X142010000Y-156400000D01*
X142010000Y-156400000D02*
X126990000Y-156400000D01*
X142450000Y-146500000D02*
X142450000Y-154500000D01*
X142450000Y-154500000D02*
X142010000Y-154500000D01*
%TO.C,C6*%
X122495000Y-154770000D02*
X125455000Y-154770000D01*
X122495000Y-156230000D02*
X122495000Y-154770000D01*
X125455000Y-154770000D02*
X125455000Y-156230000D01*
X125455000Y-156230000D02*
X122495000Y-156230000D01*
%TO.C,Y1*%
X115500000Y-147250000D02*
X123500000Y-147250000D01*
X123500000Y-153750000D01*
X115500000Y-153750000D01*
X115500000Y-147250000D01*
%TO.C,U3*%
X113100000Y-135970000D02*
X113500000Y-135970000D01*
X113100000Y-141030000D02*
X113100000Y-135970000D01*
X113500000Y-134200000D02*
X123500000Y-134200000D01*
X113500000Y-135970000D02*
X113500000Y-134200000D01*
X113500000Y-141030000D02*
X113100000Y-141030000D01*
X113500000Y-142800000D02*
X113500000Y-141030000D01*
X123500000Y-134200000D02*
X123500000Y-135970000D01*
X123500000Y-135970000D02*
X123900000Y-135970000D01*
X123500000Y-141030000D02*
X123500000Y-142800000D01*
X123500000Y-142800000D02*
X113500000Y-142800000D01*
X123900000Y-135970000D02*
X123900000Y-141030000D01*
X123900000Y-141030000D02*
X123500000Y-141030000D01*
%TO.C,R6*%
X71520000Y-153270000D02*
X74480000Y-153270000D01*
X71520000Y-154730000D02*
X71520000Y-153270000D01*
X74480000Y-153270000D02*
X74480000Y-154730000D01*
X74480000Y-154730000D02*
X71520000Y-154730000D01*
%TO.C,C9*%
X119270000Y-116995000D02*
X120730000Y-116995000D01*
X119270000Y-119955000D02*
X119270000Y-116995000D01*
X120730000Y-116995000D02*
X120730000Y-119955000D01*
X120730000Y-119955000D02*
X119270000Y-119955000D01*
%TO.C,R5*%
X71520000Y-150770000D02*
X74480000Y-150770000D01*
X71520000Y-152230000D02*
X71520000Y-150770000D01*
X74480000Y-150770000D02*
X74480000Y-152230000D01*
X74480000Y-152230000D02*
X71520000Y-152230000D01*
%TO.C,R8*%
X139020000Y-122270000D02*
X141980000Y-122270000D01*
X139020000Y-123730000D02*
X139020000Y-122270000D01*
X141980000Y-122270000D02*
X141980000Y-123730000D01*
X141980000Y-123730000D02*
X139020000Y-123730000D01*
%TO.C,R7*%
X122020000Y-128450197D02*
X123480000Y-128450197D01*
X122020000Y-131410197D02*
X122020000Y-128450197D01*
X123480000Y-128450197D02*
X123480000Y-131410197D01*
X123480000Y-131410197D02*
X122020000Y-131410197D01*
%TO.C,R9*%
X139020000Y-132270000D02*
X141980000Y-132270000D01*
X139020000Y-133730000D02*
X139020000Y-132270000D01*
X141980000Y-132270000D02*
X141980000Y-133730000D01*
X141980000Y-133730000D02*
X139020000Y-133730000D01*
%TO.C,R3*%
X71520000Y-145770000D02*
X74480000Y-145770000D01*
X71520000Y-147230000D02*
X71520000Y-145770000D01*
X74480000Y-145770000D02*
X74480000Y-147230000D01*
X74480000Y-147230000D02*
X71520000Y-147230000D01*
%TO.C,R1*%
X71520000Y-140770000D02*
X74480000Y-140770000D01*
X71520000Y-142230000D02*
X71520000Y-140770000D01*
X74480000Y-140770000D02*
X74480000Y-142230000D01*
X74480000Y-142230000D02*
X71520000Y-142230000D01*
%TO.C,C10*%
X116570000Y-117020000D02*
X118030000Y-117020000D01*
X116570000Y-119980000D02*
X116570000Y-117020000D01*
X118030000Y-117020000D02*
X118030000Y-119980000D01*
X118030000Y-119980000D02*
X116570000Y-119980000D01*
%TO.C,R2*%
X71520000Y-143270000D02*
X74480000Y-143270000D01*
X71520000Y-144730000D02*
X71520000Y-143270000D01*
X74480000Y-143270000D02*
X74480000Y-144730000D01*
X74480000Y-144730000D02*
X71520000Y-144730000D01*
%TO.C,U4*%
X114057500Y-121817697D02*
X114277500Y-121817697D01*
X114057500Y-126217697D02*
X114057500Y-121817697D01*
X114277500Y-120317697D02*
X122997500Y-120317697D01*
X114277500Y-121817697D02*
X114277500Y-120317697D01*
X114277500Y-126217697D02*
X114057500Y-126217697D01*
X114277500Y-127717697D02*
X114277500Y-126217697D01*
X122997500Y-120317697D02*
X122997500Y-121817697D01*
X122997500Y-121817697D02*
X123217500Y-121817697D01*
X122997500Y-126217697D02*
X122997500Y-127717697D01*
X122997500Y-127717697D02*
X114277500Y-127717697D01*
X123217500Y-121817697D02*
X123217500Y-126217697D01*
X123217500Y-126217697D02*
X122997500Y-126217697D01*
%TO.C,C16*%
X128300000Y-131950000D02*
X128300000Y-134050000D01*
X128300000Y-134050000D02*
X129450000Y-134050000D01*
X129450000Y-130600000D02*
X129450000Y-131950000D01*
X129450000Y-130600000D02*
X130600000Y-129450000D01*
X129450000Y-131950000D02*
X128300000Y-131950000D01*
X129450000Y-134050000D02*
X129450000Y-135400000D01*
X129450000Y-135400000D02*
X130600000Y-136550000D01*
X130600000Y-129450000D02*
X136550000Y-129450000D01*
X130600000Y-136550000D02*
X136550000Y-136550000D01*
X136550000Y-129450000D02*
X136550000Y-131950000D01*
X136550000Y-131950000D02*
X137700000Y-131950000D01*
X136550000Y-134050000D02*
X136550000Y-136550000D01*
X137700000Y-131950000D02*
X137700000Y-134050000D01*
X137700000Y-134050000D02*
X136550000Y-134050000D01*
%TO.C,R4*%
X71520000Y-148270000D02*
X74480000Y-148270000D01*
X71520000Y-149730000D02*
X71520000Y-148270000D01*
X74480000Y-148270000D02*
X74480000Y-149730000D01*
X74480000Y-149730000D02*
X71520000Y-149730000D01*
%TO.C,C5*%
X97800000Y-154950000D02*
X98950000Y-154950000D01*
X97800000Y-157050000D02*
X97800000Y-154950000D01*
X98950000Y-154950000D02*
X98950000Y-152450000D01*
X98950000Y-157050000D02*
X97800000Y-157050000D01*
X98950000Y-159550000D02*
X98950000Y-157050000D01*
X104900000Y-152450000D02*
X98950000Y-152450000D01*
X104900000Y-159550000D02*
X98950000Y-159550000D01*
X106050000Y-153600000D02*
X104900000Y-152450000D01*
X106050000Y-154950000D02*
X106050000Y-153600000D01*
X106050000Y-157050000D02*
X107200000Y-157050000D01*
X106050000Y-158400000D02*
X104900000Y-159550000D01*
X106050000Y-158400000D02*
X106050000Y-157050000D01*
X107200000Y-154950000D02*
X106050000Y-154950000D01*
X107200000Y-157050000D02*
X107200000Y-154950000D01*
%TO.C,C2*%
X97800000Y-144450000D02*
X98950000Y-144450000D01*
X97800000Y-146550000D02*
X97800000Y-144450000D01*
X98950000Y-144450000D02*
X98950000Y-141950000D01*
X98950000Y-146550000D02*
X97800000Y-146550000D01*
X98950000Y-149050000D02*
X98950000Y-146550000D01*
X104900000Y-141950000D02*
X98950000Y-141950000D01*
X104900000Y-149050000D02*
X98950000Y-149050000D01*
X106050000Y-143100000D02*
X104900000Y-141950000D01*
X106050000Y-144450000D02*
X106050000Y-143100000D01*
X106050000Y-146550000D02*
X107200000Y-146550000D01*
X106050000Y-147900000D02*
X104900000Y-149050000D01*
X106050000Y-147900000D02*
X106050000Y-146550000D01*
X107200000Y-144450000D02*
X106050000Y-144450000D01*
X107200000Y-146550000D02*
X107200000Y-144450000D01*
%TO.C,C15*%
X128300000Y-121950000D02*
X128300000Y-124050000D01*
X128300000Y-124050000D02*
X129450000Y-124050000D01*
X129450000Y-120600000D02*
X129450000Y-121950000D01*
X129450000Y-120600000D02*
X130600000Y-119450000D01*
X129450000Y-121950000D02*
X128300000Y-121950000D01*
X129450000Y-124050000D02*
X129450000Y-125400000D01*
X129450000Y-125400000D02*
X130600000Y-126550000D01*
X130600000Y-119450000D02*
X136550000Y-119450000D01*
X130600000Y-126550000D02*
X136550000Y-126550000D01*
X136550000Y-119450000D02*
X136550000Y-121950000D01*
X136550000Y-121950000D02*
X137700000Y-121950000D01*
X136550000Y-124050000D02*
X136550000Y-126550000D01*
X137700000Y-121950000D02*
X137700000Y-124050000D01*
X137700000Y-124050000D02*
X136550000Y-124050000D01*
%TO.C,C19*%
X113270000Y-150520000D02*
X114730000Y-150520000D01*
X113270000Y-153480000D02*
X113270000Y-150520000D01*
X114730000Y-150520000D02*
X114730000Y-153480000D01*
X114730000Y-153480000D02*
X113270000Y-153480000D01*
%TO.C,R10*%
X139020000Y-126270000D02*
X141980000Y-126270000D01*
X139020000Y-127730000D02*
X139020000Y-126270000D01*
X141980000Y-126270000D02*
X141980000Y-127730000D01*
X141980000Y-127730000D02*
X139020000Y-127730000D01*
%TO.C,R11*%
X139020000Y-136270000D02*
X141980000Y-136270000D01*
X139020000Y-137730000D02*
X139020000Y-136270000D01*
X141980000Y-136270000D02*
X141980000Y-137730000D01*
X141980000Y-137730000D02*
X139020000Y-137730000D01*
%TD*%
M02*
