%TF.GenerationSoftware,KiCad,Pcbnew,9.0.1+1*%
%TF.CreationDate,2025-10-05T23:07:08+00:00*%
%TF.ProjectId,rcbus-opl3,72636275-732d-46f7-906c-332e6b696361,@version@*%
%TF.SameCoordinates,Original*%
%TF.FileFunction,Plated,1,2,PTH,Mixed*%
%TF.FilePolarity,Positive*%
%FSLAX46Y46*%
G04 Gerber Fmt 4.6, Leading zero omitted, Abs format (unit mm)*
G04 Created by KiCad (PCBNEW 9.0.1+1) date 2025-10-05 23:07:08*
%MOMM*%
%LPD*%
G01*
G04 APERTURE LIST*
%TA.AperFunction,ViaDrill*%
%ADD10C,0.330200*%
%TD*%
G04 aperture for slot hole*
%TA.AperFunction,ComponentDrill*%
%ADD11C,0.800000*%
%TD*%
%TA.AperFunction,ComponentDrill*%
%ADD12C,1.000000*%
%TD*%
G04 APERTURE END LIST*
D10*
X74900000Y-141500000D03*
X74900000Y-144000000D03*
X74900000Y-146500000D03*
X74900000Y-149000000D03*
X74900000Y-151500000D03*
X74900000Y-154000000D03*
X77900000Y-151500000D03*
X80994854Y-148281174D03*
X81178592Y-152558250D03*
X81746881Y-149172600D03*
X82800000Y-142500000D03*
X82800000Y-147400000D03*
X82800000Y-153500000D03*
X83772712Y-149151382D03*
X85430824Y-153500000D03*
X87873631Y-153500000D03*
X87900000Y-150442600D03*
X90453700Y-153046300D03*
X91715001Y-156500000D03*
X92503401Y-157400000D03*
X95750000Y-158400000D03*
X97500000Y-145500000D03*
X97500000Y-156000000D03*
X101700000Y-161452400D03*
X105000000Y-156540500D03*
X106400000Y-127800000D03*
X110700000Y-152400000D03*
X111900000Y-159600000D03*
X114421249Y-157092303D03*
X116200000Y-141700000D03*
X117400000Y-153000000D03*
X120400000Y-137600000D03*
X121400000Y-144000000D03*
X122800000Y-130500000D03*
X123499999Y-121232925D03*
X124576187Y-130430064D03*
X125700000Y-152900000D03*
X129300000Y-158000000D03*
X141475000Y-124400000D03*
X141475000Y-134400000D03*
D11*
%TO.C,CON1*%
X148219000Y-120595000D02*
X148919000Y-120595000D01*
X148219000Y-123095000D02*
X148919000Y-123095000D01*
X148219000Y-128095000D02*
X148919000Y-128095000D01*
X148219000Y-130595000D02*
X148919000Y-130595000D01*
X153569000Y-125245000D02*
X153569000Y-125945000D01*
D12*
%TO.C,P1*%
X61500000Y-163500000D03*
%TO.C,JP1*%
X62460000Y-141460000D03*
X62460000Y-144000000D03*
X62460000Y-146540000D03*
X62460000Y-149080000D03*
X62460000Y-151620000D03*
X62460000Y-154160000D03*
%TO.C,P1*%
X64040000Y-163500000D03*
%TO.C,JP1*%
X65000000Y-141460000D03*
X65000000Y-144000000D03*
X65000000Y-146540000D03*
X65000000Y-149080000D03*
X65000000Y-151620000D03*
X65000000Y-154160000D03*
%TO.C,P1*%
X66580000Y-163500000D03*
X69120000Y-163500000D03*
X71660000Y-163500000D03*
X74200000Y-163500000D03*
X76740000Y-163500000D03*
X79280000Y-163500000D03*
X81820000Y-163500000D03*
X84360000Y-163500000D03*
X86900000Y-163500000D03*
X89440000Y-163500000D03*
X91980000Y-163500000D03*
X94520000Y-163500000D03*
X97060000Y-163500000D03*
X99600000Y-163500000D03*
X102140000Y-163500000D03*
X104680000Y-163500000D03*
X107220000Y-163500000D03*
X109760000Y-163500000D03*
X112300000Y-163500000D03*
X114840000Y-163500000D03*
X117380000Y-163500000D03*
X119920000Y-163500000D03*
X122460000Y-163500000D03*
X125000000Y-163500000D03*
X127540000Y-163500000D03*
X130080000Y-163500000D03*
X132620000Y-163500000D03*
X135160000Y-163500000D03*
X137700000Y-163500000D03*
X140240000Y-163500000D03*
X142780000Y-163500000D03*
X145320000Y-163500000D03*
X147860000Y-163500000D03*
X150400000Y-163500000D03*
X152940000Y-163500000D03*
X155480000Y-163500000D03*
X158020000Y-163500000D03*
M02*
