%TF.GenerationSoftware,KiCad,Pcbnew,9.0.1+1*%
%TF.CreationDate,2025-10-09T21:11:35+00:00*%
%TF.ProjectId,rcbus-opl3,72636275-732d-46f7-906c-332e6b696361,@version@*%
%TF.SameCoordinates,Original*%
%TF.FileFunction,AssemblyDrawing,Top*%
%FSLAX46Y46*%
G04 Gerber Fmt 4.6, Leading zero omitted, Abs format (unit mm)*
G04 Created by KiCad (PCBNEW 9.0.1+1) date 2025-10-09 21:11:35*
%MOMM*%
%LPD*%
G01*
G04 APERTURE LIST*
%ADD10C,0.150000*%
%ADD11C,0.060000*%
%ADD12C,0.100000*%
G04 APERTURE END LIST*
D10*
X77757143Y-140424819D02*
X77852381Y-140424819D01*
X77852381Y-140424819D02*
X77947619Y-140472438D01*
X77947619Y-140472438D02*
X77995238Y-140520057D01*
X77995238Y-140520057D02*
X78042857Y-140615295D01*
X78042857Y-140615295D02*
X78090476Y-140805771D01*
X78090476Y-140805771D02*
X78090476Y-141043866D01*
X78090476Y-141043866D02*
X78042857Y-141234342D01*
X78042857Y-141234342D02*
X77995238Y-141329580D01*
X77995238Y-141329580D02*
X77947619Y-141377200D01*
X77947619Y-141377200D02*
X77852381Y-141424819D01*
X77852381Y-141424819D02*
X77757143Y-141424819D01*
X77757143Y-141424819D02*
X77661905Y-141377200D01*
X77661905Y-141377200D02*
X77614286Y-141329580D01*
X77614286Y-141329580D02*
X77566667Y-141234342D01*
X77566667Y-141234342D02*
X77519048Y-141043866D01*
X77519048Y-141043866D02*
X77519048Y-140805771D01*
X77519048Y-140805771D02*
X77566667Y-140615295D01*
X77566667Y-140615295D02*
X77614286Y-140520057D01*
X77614286Y-140520057D02*
X77661905Y-140472438D01*
X77661905Y-140472438D02*
X77757143Y-140424819D01*
X78519048Y-141329580D02*
X78566667Y-141377200D01*
X78566667Y-141377200D02*
X78519048Y-141424819D01*
X78519048Y-141424819D02*
X78471429Y-141377200D01*
X78471429Y-141377200D02*
X78519048Y-141329580D01*
X78519048Y-141329580D02*
X78519048Y-141424819D01*
X79519047Y-141424819D02*
X78947619Y-141424819D01*
X79233333Y-141424819D02*
X79233333Y-140424819D01*
X79233333Y-140424819D02*
X79138095Y-140567676D01*
X79138095Y-140567676D02*
X79042857Y-140662914D01*
X79042857Y-140662914D02*
X78947619Y-140710533D01*
X80376190Y-140758152D02*
X80376190Y-141424819D01*
X79947619Y-140758152D02*
X79947619Y-141281961D01*
X79947619Y-141281961D02*
X79995238Y-141377200D01*
X79995238Y-141377200D02*
X80090476Y-141424819D01*
X80090476Y-141424819D02*
X80233333Y-141424819D01*
X80233333Y-141424819D02*
X80328571Y-141377200D01*
X80328571Y-141377200D02*
X80376190Y-141329580D01*
X81185714Y-140901009D02*
X80852381Y-140901009D01*
X80852381Y-141424819D02*
X80852381Y-140424819D01*
X80852381Y-140424819D02*
X81328571Y-140424819D01*
D11*
X79333333Y-142543832D02*
X79314285Y-142562880D01*
X79314285Y-142562880D02*
X79257143Y-142581927D01*
X79257143Y-142581927D02*
X79219047Y-142581927D01*
X79219047Y-142581927D02*
X79161904Y-142562880D01*
X79161904Y-142562880D02*
X79123809Y-142524784D01*
X79123809Y-142524784D02*
X79104762Y-142486689D01*
X79104762Y-142486689D02*
X79085714Y-142410499D01*
X79085714Y-142410499D02*
X79085714Y-142353356D01*
X79085714Y-142353356D02*
X79104762Y-142277165D01*
X79104762Y-142277165D02*
X79123809Y-142239070D01*
X79123809Y-142239070D02*
X79161904Y-142200975D01*
X79161904Y-142200975D02*
X79219047Y-142181927D01*
X79219047Y-142181927D02*
X79257143Y-142181927D01*
X79257143Y-142181927D02*
X79314285Y-142200975D01*
X79314285Y-142200975D02*
X79333333Y-142220022D01*
X79561904Y-142353356D02*
X79523809Y-142334308D01*
X79523809Y-142334308D02*
X79504762Y-142315260D01*
X79504762Y-142315260D02*
X79485714Y-142277165D01*
X79485714Y-142277165D02*
X79485714Y-142258118D01*
X79485714Y-142258118D02*
X79504762Y-142220022D01*
X79504762Y-142220022D02*
X79523809Y-142200975D01*
X79523809Y-142200975D02*
X79561904Y-142181927D01*
X79561904Y-142181927D02*
X79638095Y-142181927D01*
X79638095Y-142181927D02*
X79676190Y-142200975D01*
X79676190Y-142200975D02*
X79695238Y-142220022D01*
X79695238Y-142220022D02*
X79714285Y-142258118D01*
X79714285Y-142258118D02*
X79714285Y-142277165D01*
X79714285Y-142277165D02*
X79695238Y-142315260D01*
X79695238Y-142315260D02*
X79676190Y-142334308D01*
X79676190Y-142334308D02*
X79638095Y-142353356D01*
X79638095Y-142353356D02*
X79561904Y-142353356D01*
X79561904Y-142353356D02*
X79523809Y-142372403D01*
X79523809Y-142372403D02*
X79504762Y-142391451D01*
X79504762Y-142391451D02*
X79485714Y-142429546D01*
X79485714Y-142429546D02*
X79485714Y-142505737D01*
X79485714Y-142505737D02*
X79504762Y-142543832D01*
X79504762Y-142543832D02*
X79523809Y-142562880D01*
X79523809Y-142562880D02*
X79561904Y-142581927D01*
X79561904Y-142581927D02*
X79638095Y-142581927D01*
X79638095Y-142581927D02*
X79676190Y-142562880D01*
X79676190Y-142562880D02*
X79695238Y-142543832D01*
X79695238Y-142543832D02*
X79714285Y-142505737D01*
X79714285Y-142505737D02*
X79714285Y-142429546D01*
X79714285Y-142429546D02*
X79695238Y-142391451D01*
X79695238Y-142391451D02*
X79676190Y-142372403D01*
X79676190Y-142372403D02*
X79638095Y-142353356D01*
D10*
X116682143Y-139724819D02*
X116777381Y-139724819D01*
X116777381Y-139724819D02*
X116872619Y-139772438D01*
X116872619Y-139772438D02*
X116920238Y-139820057D01*
X116920238Y-139820057D02*
X116967857Y-139915295D01*
X116967857Y-139915295D02*
X117015476Y-140105771D01*
X117015476Y-140105771D02*
X117015476Y-140343866D01*
X117015476Y-140343866D02*
X116967857Y-140534342D01*
X116967857Y-140534342D02*
X116920238Y-140629580D01*
X116920238Y-140629580D02*
X116872619Y-140677200D01*
X116872619Y-140677200D02*
X116777381Y-140724819D01*
X116777381Y-140724819D02*
X116682143Y-140724819D01*
X116682143Y-140724819D02*
X116586905Y-140677200D01*
X116586905Y-140677200D02*
X116539286Y-140629580D01*
X116539286Y-140629580D02*
X116491667Y-140534342D01*
X116491667Y-140534342D02*
X116444048Y-140343866D01*
X116444048Y-140343866D02*
X116444048Y-140105771D01*
X116444048Y-140105771D02*
X116491667Y-139915295D01*
X116491667Y-139915295D02*
X116539286Y-139820057D01*
X116539286Y-139820057D02*
X116586905Y-139772438D01*
X116586905Y-139772438D02*
X116682143Y-139724819D01*
X117444048Y-140629580D02*
X117491667Y-140677200D01*
X117491667Y-140677200D02*
X117444048Y-140724819D01*
X117444048Y-140724819D02*
X117396429Y-140677200D01*
X117396429Y-140677200D02*
X117444048Y-140629580D01*
X117444048Y-140629580D02*
X117444048Y-140724819D01*
X118444047Y-140724819D02*
X117872619Y-140724819D01*
X118158333Y-140724819D02*
X118158333Y-139724819D01*
X118158333Y-139724819D02*
X118063095Y-139867676D01*
X118063095Y-139867676D02*
X117967857Y-139962914D01*
X117967857Y-139962914D02*
X117872619Y-140010533D01*
X119301190Y-140058152D02*
X119301190Y-140724819D01*
X118872619Y-140058152D02*
X118872619Y-140581961D01*
X118872619Y-140581961D02*
X118920238Y-140677200D01*
X118920238Y-140677200D02*
X119015476Y-140724819D01*
X119015476Y-140724819D02*
X119158333Y-140724819D01*
X119158333Y-140724819D02*
X119253571Y-140677200D01*
X119253571Y-140677200D02*
X119301190Y-140629580D01*
X120110714Y-140201009D02*
X119777381Y-140201009D01*
X119777381Y-140724819D02*
X119777381Y-139724819D01*
X119777381Y-139724819D02*
X120253571Y-139724819D01*
D11*
X118067857Y-141843832D02*
X118048809Y-141862880D01*
X118048809Y-141862880D02*
X117991667Y-141881927D01*
X117991667Y-141881927D02*
X117953571Y-141881927D01*
X117953571Y-141881927D02*
X117896428Y-141862880D01*
X117896428Y-141862880D02*
X117858333Y-141824784D01*
X117858333Y-141824784D02*
X117839286Y-141786689D01*
X117839286Y-141786689D02*
X117820238Y-141710499D01*
X117820238Y-141710499D02*
X117820238Y-141653356D01*
X117820238Y-141653356D02*
X117839286Y-141577165D01*
X117839286Y-141577165D02*
X117858333Y-141539070D01*
X117858333Y-141539070D02*
X117896428Y-141500975D01*
X117896428Y-141500975D02*
X117953571Y-141481927D01*
X117953571Y-141481927D02*
X117991667Y-141481927D01*
X117991667Y-141481927D02*
X118048809Y-141500975D01*
X118048809Y-141500975D02*
X118067857Y-141520022D01*
X118448809Y-141881927D02*
X118220238Y-141881927D01*
X118334524Y-141881927D02*
X118334524Y-141481927D01*
X118334524Y-141481927D02*
X118296428Y-141539070D01*
X118296428Y-141539070D02*
X118258333Y-141577165D01*
X118258333Y-141577165D02*
X118220238Y-141596213D01*
X118601190Y-141520022D02*
X118620238Y-141500975D01*
X118620238Y-141500975D02*
X118658333Y-141481927D01*
X118658333Y-141481927D02*
X118753571Y-141481927D01*
X118753571Y-141481927D02*
X118791666Y-141500975D01*
X118791666Y-141500975D02*
X118810714Y-141520022D01*
X118810714Y-141520022D02*
X118829761Y-141558118D01*
X118829761Y-141558118D02*
X118829761Y-141596213D01*
X118829761Y-141596213D02*
X118810714Y-141653356D01*
X118810714Y-141653356D02*
X118582142Y-141881927D01*
X118582142Y-141881927D02*
X118829761Y-141881927D01*
D10*
X148533286Y-117549819D02*
X149152333Y-117549819D01*
X149152333Y-117549819D02*
X148819000Y-117930771D01*
X148819000Y-117930771D02*
X148961857Y-117930771D01*
X148961857Y-117930771D02*
X149057095Y-117978390D01*
X149057095Y-117978390D02*
X149104714Y-118026009D01*
X149104714Y-118026009D02*
X149152333Y-118121247D01*
X149152333Y-118121247D02*
X149152333Y-118359342D01*
X149152333Y-118359342D02*
X149104714Y-118454580D01*
X149104714Y-118454580D02*
X149057095Y-118502200D01*
X149057095Y-118502200D02*
X148961857Y-118549819D01*
X148961857Y-118549819D02*
X148676143Y-118549819D01*
X148676143Y-118549819D02*
X148580905Y-118502200D01*
X148580905Y-118502200D02*
X148533286Y-118454580D01*
X149580905Y-118454580D02*
X149628524Y-118502200D01*
X149628524Y-118502200D02*
X149580905Y-118549819D01*
X149580905Y-118549819D02*
X149533286Y-118502200D01*
X149533286Y-118502200D02*
X149580905Y-118454580D01*
X149580905Y-118454580D02*
X149580905Y-118549819D01*
X150533285Y-117549819D02*
X150057095Y-117549819D01*
X150057095Y-117549819D02*
X150009476Y-118026009D01*
X150009476Y-118026009D02*
X150057095Y-117978390D01*
X150057095Y-117978390D02*
X150152333Y-117930771D01*
X150152333Y-117930771D02*
X150390428Y-117930771D01*
X150390428Y-117930771D02*
X150485666Y-117978390D01*
X150485666Y-117978390D02*
X150533285Y-118026009D01*
X150533285Y-118026009D02*
X150580904Y-118121247D01*
X150580904Y-118121247D02*
X150580904Y-118359342D01*
X150580904Y-118359342D02*
X150533285Y-118454580D01*
X150533285Y-118454580D02*
X150485666Y-118502200D01*
X150485666Y-118502200D02*
X150390428Y-118549819D01*
X150390428Y-118549819D02*
X150152333Y-118549819D01*
X150152333Y-118549819D02*
X150057095Y-118502200D01*
X150057095Y-118502200D02*
X150009476Y-118454580D01*
X151009476Y-118549819D02*
X151009476Y-117883152D01*
X151009476Y-117978390D02*
X151057095Y-117930771D01*
X151057095Y-117930771D02*
X151152333Y-117883152D01*
X151152333Y-117883152D02*
X151295190Y-117883152D01*
X151295190Y-117883152D02*
X151390428Y-117930771D01*
X151390428Y-117930771D02*
X151438047Y-118026009D01*
X151438047Y-118026009D02*
X151438047Y-118549819D01*
X151438047Y-118026009D02*
X151485666Y-117930771D01*
X151485666Y-117930771D02*
X151580904Y-117883152D01*
X151580904Y-117883152D02*
X151723761Y-117883152D01*
X151723761Y-117883152D02*
X151819000Y-117930771D01*
X151819000Y-117930771D02*
X151866619Y-118026009D01*
X151866619Y-118026009D02*
X151866619Y-118549819D01*
X152342809Y-118549819D02*
X152342809Y-117883152D01*
X152342809Y-117978390D02*
X152390428Y-117930771D01*
X152390428Y-117930771D02*
X152485666Y-117883152D01*
X152485666Y-117883152D02*
X152628523Y-117883152D01*
X152628523Y-117883152D02*
X152723761Y-117930771D01*
X152723761Y-117930771D02*
X152771380Y-118026009D01*
X152771380Y-118026009D02*
X152771380Y-118549819D01*
X152771380Y-118026009D02*
X152818999Y-117930771D01*
X152818999Y-117930771D02*
X152914237Y-117883152D01*
X152914237Y-117883152D02*
X153057094Y-117883152D01*
X153057094Y-117883152D02*
X153152333Y-117930771D01*
X153152333Y-117930771D02*
X153199952Y-118026009D01*
X153199952Y-118026009D02*
X153199952Y-118549819D01*
X154438047Y-117883152D02*
X154438047Y-118740295D01*
X154438047Y-118740295D02*
X154390428Y-118835533D01*
X154390428Y-118835533D02*
X154295190Y-118883152D01*
X154295190Y-118883152D02*
X154247571Y-118883152D01*
X154438047Y-117549819D02*
X154390428Y-117597438D01*
X154390428Y-117597438D02*
X154438047Y-117645057D01*
X154438047Y-117645057D02*
X154485666Y-117597438D01*
X154485666Y-117597438D02*
X154438047Y-117549819D01*
X154438047Y-117549819D02*
X154438047Y-117645057D01*
X155342808Y-118549819D02*
X155342808Y-118026009D01*
X155342808Y-118026009D02*
X155295189Y-117930771D01*
X155295189Y-117930771D02*
X155199951Y-117883152D01*
X155199951Y-117883152D02*
X155009475Y-117883152D01*
X155009475Y-117883152D02*
X154914237Y-117930771D01*
X155342808Y-118502200D02*
X155247570Y-118549819D01*
X155247570Y-118549819D02*
X155009475Y-118549819D01*
X155009475Y-118549819D02*
X154914237Y-118502200D01*
X154914237Y-118502200D02*
X154866618Y-118406961D01*
X154866618Y-118406961D02*
X154866618Y-118311723D01*
X154866618Y-118311723D02*
X154914237Y-118216485D01*
X154914237Y-118216485D02*
X155009475Y-118168866D01*
X155009475Y-118168866D02*
X155247570Y-118168866D01*
X155247570Y-118168866D02*
X155342808Y-118121247D01*
X156247570Y-118502200D02*
X156152332Y-118549819D01*
X156152332Y-118549819D02*
X155961856Y-118549819D01*
X155961856Y-118549819D02*
X155866618Y-118502200D01*
X155866618Y-118502200D02*
X155818999Y-118454580D01*
X155818999Y-118454580D02*
X155771380Y-118359342D01*
X155771380Y-118359342D02*
X155771380Y-118073628D01*
X155771380Y-118073628D02*
X155818999Y-117978390D01*
X155818999Y-117978390D02*
X155866618Y-117930771D01*
X155866618Y-117930771D02*
X155961856Y-117883152D01*
X155961856Y-117883152D02*
X156152332Y-117883152D01*
X156152332Y-117883152D02*
X156247570Y-117930771D01*
X156676142Y-118549819D02*
X156676142Y-117549819D01*
X156771380Y-118168866D02*
X157057094Y-118549819D01*
X157057094Y-117883152D02*
X156676142Y-118264104D01*
X155604714Y-125954580D02*
X155557095Y-126002200D01*
X155557095Y-126002200D02*
X155414238Y-126049819D01*
X155414238Y-126049819D02*
X155319000Y-126049819D01*
X155319000Y-126049819D02*
X155176143Y-126002200D01*
X155176143Y-126002200D02*
X155080905Y-125906961D01*
X155080905Y-125906961D02*
X155033286Y-125811723D01*
X155033286Y-125811723D02*
X154985667Y-125621247D01*
X154985667Y-125621247D02*
X154985667Y-125478390D01*
X154985667Y-125478390D02*
X155033286Y-125287914D01*
X155033286Y-125287914D02*
X155080905Y-125192676D01*
X155080905Y-125192676D02*
X155176143Y-125097438D01*
X155176143Y-125097438D02*
X155319000Y-125049819D01*
X155319000Y-125049819D02*
X155414238Y-125049819D01*
X155414238Y-125049819D02*
X155557095Y-125097438D01*
X155557095Y-125097438D02*
X155604714Y-125145057D01*
X156223762Y-125049819D02*
X156414238Y-125049819D01*
X156414238Y-125049819D02*
X156509476Y-125097438D01*
X156509476Y-125097438D02*
X156604714Y-125192676D01*
X156604714Y-125192676D02*
X156652333Y-125383152D01*
X156652333Y-125383152D02*
X156652333Y-125716485D01*
X156652333Y-125716485D02*
X156604714Y-125906961D01*
X156604714Y-125906961D02*
X156509476Y-126002200D01*
X156509476Y-126002200D02*
X156414238Y-126049819D01*
X156414238Y-126049819D02*
X156223762Y-126049819D01*
X156223762Y-126049819D02*
X156128524Y-126002200D01*
X156128524Y-126002200D02*
X156033286Y-125906961D01*
X156033286Y-125906961D02*
X155985667Y-125716485D01*
X155985667Y-125716485D02*
X155985667Y-125383152D01*
X155985667Y-125383152D02*
X156033286Y-125192676D01*
X156033286Y-125192676D02*
X156128524Y-125097438D01*
X156128524Y-125097438D02*
X156223762Y-125049819D01*
X157080905Y-126049819D02*
X157080905Y-125049819D01*
X157080905Y-125049819D02*
X157652333Y-126049819D01*
X157652333Y-126049819D02*
X157652333Y-125049819D01*
X158652333Y-126049819D02*
X158080905Y-126049819D01*
X158366619Y-126049819D02*
X158366619Y-125049819D01*
X158366619Y-125049819D02*
X158271381Y-125192676D01*
X158271381Y-125192676D02*
X158176143Y-125287914D01*
X158176143Y-125287914D02*
X158080905Y-125335533D01*
X57929999Y-139111009D02*
X58072856Y-139158628D01*
X58072856Y-139158628D02*
X58120475Y-139206247D01*
X58120475Y-139206247D02*
X58168094Y-139301485D01*
X58168094Y-139301485D02*
X58168094Y-139444342D01*
X58168094Y-139444342D02*
X58120475Y-139539580D01*
X58120475Y-139539580D02*
X58072856Y-139587200D01*
X58072856Y-139587200D02*
X57977618Y-139634819D01*
X57977618Y-139634819D02*
X57596666Y-139634819D01*
X57596666Y-139634819D02*
X57596666Y-138634819D01*
X57596666Y-138634819D02*
X57929999Y-138634819D01*
X57929999Y-138634819D02*
X58025237Y-138682438D01*
X58025237Y-138682438D02*
X58072856Y-138730057D01*
X58072856Y-138730057D02*
X58120475Y-138825295D01*
X58120475Y-138825295D02*
X58120475Y-138920533D01*
X58120475Y-138920533D02*
X58072856Y-139015771D01*
X58072856Y-139015771D02*
X58025237Y-139063390D01*
X58025237Y-139063390D02*
X57929999Y-139111009D01*
X57929999Y-139111009D02*
X57596666Y-139111009D01*
X58549047Y-139349104D02*
X59025237Y-139349104D01*
X58453809Y-139634819D02*
X58787142Y-138634819D01*
X58787142Y-138634819D02*
X59120475Y-139634819D01*
X59406190Y-139587200D02*
X59549047Y-139634819D01*
X59549047Y-139634819D02*
X59787142Y-139634819D01*
X59787142Y-139634819D02*
X59882380Y-139587200D01*
X59882380Y-139587200D02*
X59929999Y-139539580D01*
X59929999Y-139539580D02*
X59977618Y-139444342D01*
X59977618Y-139444342D02*
X59977618Y-139349104D01*
X59977618Y-139349104D02*
X59929999Y-139253866D01*
X59929999Y-139253866D02*
X59882380Y-139206247D01*
X59882380Y-139206247D02*
X59787142Y-139158628D01*
X59787142Y-139158628D02*
X59596666Y-139111009D01*
X59596666Y-139111009D02*
X59501428Y-139063390D01*
X59501428Y-139063390D02*
X59453809Y-139015771D01*
X59453809Y-139015771D02*
X59406190Y-138920533D01*
X59406190Y-138920533D02*
X59406190Y-138825295D01*
X59406190Y-138825295D02*
X59453809Y-138730057D01*
X59453809Y-138730057D02*
X59501428Y-138682438D01*
X59501428Y-138682438D02*
X59596666Y-138634819D01*
X59596666Y-138634819D02*
X59834761Y-138634819D01*
X59834761Y-138634819D02*
X59977618Y-138682438D01*
X60406190Y-139111009D02*
X60739523Y-139111009D01*
X60882380Y-139634819D02*
X60406190Y-139634819D01*
X60406190Y-139634819D02*
X60406190Y-138634819D01*
X60406190Y-138634819D02*
X60882380Y-138634819D01*
X62025238Y-139349104D02*
X62501428Y-139349104D01*
X61930000Y-139634819D02*
X62263333Y-138634819D01*
X62263333Y-138634819D02*
X62596666Y-139634819D01*
X62930000Y-139634819D02*
X62930000Y-138634819D01*
X62930000Y-138634819D02*
X63168095Y-138634819D01*
X63168095Y-138634819D02*
X63310952Y-138682438D01*
X63310952Y-138682438D02*
X63406190Y-138777676D01*
X63406190Y-138777676D02*
X63453809Y-138872914D01*
X63453809Y-138872914D02*
X63501428Y-139063390D01*
X63501428Y-139063390D02*
X63501428Y-139206247D01*
X63501428Y-139206247D02*
X63453809Y-139396723D01*
X63453809Y-139396723D02*
X63406190Y-139491961D01*
X63406190Y-139491961D02*
X63310952Y-139587200D01*
X63310952Y-139587200D02*
X63168095Y-139634819D01*
X63168095Y-139634819D02*
X62930000Y-139634819D01*
X63930000Y-139634819D02*
X63930000Y-138634819D01*
X63930000Y-138634819D02*
X64168095Y-138634819D01*
X64168095Y-138634819D02*
X64310952Y-138682438D01*
X64310952Y-138682438D02*
X64406190Y-138777676D01*
X64406190Y-138777676D02*
X64453809Y-138872914D01*
X64453809Y-138872914D02*
X64501428Y-139063390D01*
X64501428Y-139063390D02*
X64501428Y-139206247D01*
X64501428Y-139206247D02*
X64453809Y-139396723D01*
X64453809Y-139396723D02*
X64406190Y-139491961D01*
X64406190Y-139491961D02*
X64310952Y-139587200D01*
X64310952Y-139587200D02*
X64168095Y-139634819D01*
X64168095Y-139634819D02*
X63930000Y-139634819D01*
X65501428Y-139634819D02*
X65168095Y-139158628D01*
X64930000Y-139634819D02*
X64930000Y-138634819D01*
X64930000Y-138634819D02*
X65310952Y-138634819D01*
X65310952Y-138634819D02*
X65406190Y-138682438D01*
X65406190Y-138682438D02*
X65453809Y-138730057D01*
X65453809Y-138730057D02*
X65501428Y-138825295D01*
X65501428Y-138825295D02*
X65501428Y-138968152D01*
X65501428Y-138968152D02*
X65453809Y-139063390D01*
X65453809Y-139063390D02*
X65406190Y-139111009D01*
X65406190Y-139111009D02*
X65310952Y-139158628D01*
X65310952Y-139158628D02*
X64930000Y-139158628D01*
X65930000Y-139111009D02*
X66263333Y-139111009D01*
X66406190Y-139634819D02*
X65930000Y-139634819D01*
X65930000Y-139634819D02*
X65930000Y-138634819D01*
X65930000Y-138634819D02*
X66406190Y-138634819D01*
X66787143Y-139587200D02*
X66930000Y-139634819D01*
X66930000Y-139634819D02*
X67168095Y-139634819D01*
X67168095Y-139634819D02*
X67263333Y-139587200D01*
X67263333Y-139587200D02*
X67310952Y-139539580D01*
X67310952Y-139539580D02*
X67358571Y-139444342D01*
X67358571Y-139444342D02*
X67358571Y-139349104D01*
X67358571Y-139349104D02*
X67310952Y-139253866D01*
X67310952Y-139253866D02*
X67263333Y-139206247D01*
X67263333Y-139206247D02*
X67168095Y-139158628D01*
X67168095Y-139158628D02*
X66977619Y-139111009D01*
X66977619Y-139111009D02*
X66882381Y-139063390D01*
X66882381Y-139063390D02*
X66834762Y-139015771D01*
X66834762Y-139015771D02*
X66787143Y-138920533D01*
X66787143Y-138920533D02*
X66787143Y-138825295D01*
X66787143Y-138825295D02*
X66834762Y-138730057D01*
X66834762Y-138730057D02*
X66882381Y-138682438D01*
X66882381Y-138682438D02*
X66977619Y-138634819D01*
X66977619Y-138634819D02*
X67215714Y-138634819D01*
X67215714Y-138634819D02*
X67358571Y-138682438D01*
X67739524Y-139587200D02*
X67882381Y-139634819D01*
X67882381Y-139634819D02*
X68120476Y-139634819D01*
X68120476Y-139634819D02*
X68215714Y-139587200D01*
X68215714Y-139587200D02*
X68263333Y-139539580D01*
X68263333Y-139539580D02*
X68310952Y-139444342D01*
X68310952Y-139444342D02*
X68310952Y-139349104D01*
X68310952Y-139349104D02*
X68263333Y-139253866D01*
X68263333Y-139253866D02*
X68215714Y-139206247D01*
X68215714Y-139206247D02*
X68120476Y-139158628D01*
X68120476Y-139158628D02*
X67930000Y-139111009D01*
X67930000Y-139111009D02*
X67834762Y-139063390D01*
X67834762Y-139063390D02*
X67787143Y-139015771D01*
X67787143Y-139015771D02*
X67739524Y-138920533D01*
X67739524Y-138920533D02*
X67739524Y-138825295D01*
X67739524Y-138825295D02*
X67787143Y-138730057D01*
X67787143Y-138730057D02*
X67834762Y-138682438D01*
X67834762Y-138682438D02*
X67930000Y-138634819D01*
X67930000Y-138634819D02*
X68168095Y-138634819D01*
X68168095Y-138634819D02*
X68310952Y-138682438D01*
X63184819Y-148643333D02*
X63899104Y-148643333D01*
X63899104Y-148643333D02*
X64041961Y-148690952D01*
X64041961Y-148690952D02*
X64137200Y-148786190D01*
X64137200Y-148786190D02*
X64184819Y-148929047D01*
X64184819Y-148929047D02*
X64184819Y-149024285D01*
X64184819Y-148167142D02*
X63184819Y-148167142D01*
X63184819Y-148167142D02*
X63184819Y-147786190D01*
X63184819Y-147786190D02*
X63232438Y-147690952D01*
X63232438Y-147690952D02*
X63280057Y-147643333D01*
X63280057Y-147643333D02*
X63375295Y-147595714D01*
X63375295Y-147595714D02*
X63518152Y-147595714D01*
X63518152Y-147595714D02*
X63613390Y-147643333D01*
X63613390Y-147643333D02*
X63661009Y-147690952D01*
X63661009Y-147690952D02*
X63708628Y-147786190D01*
X63708628Y-147786190D02*
X63708628Y-148167142D01*
X64184819Y-146643333D02*
X64184819Y-147214761D01*
X64184819Y-146929047D02*
X63184819Y-146929047D01*
X63184819Y-146929047D02*
X63327676Y-147024285D01*
X63327676Y-147024285D02*
X63422914Y-147119523D01*
X63422914Y-147119523D02*
X63470533Y-147214761D01*
X60246285Y-136536819D02*
X60246285Y-135536819D01*
X60246285Y-135536819D02*
X60579618Y-136251104D01*
X60579618Y-136251104D02*
X60912951Y-135536819D01*
X60912951Y-135536819D02*
X60912951Y-136536819D01*
X61531999Y-136536819D02*
X61436761Y-136489200D01*
X61436761Y-136489200D02*
X61389142Y-136441580D01*
X61389142Y-136441580D02*
X61341523Y-136346342D01*
X61341523Y-136346342D02*
X61341523Y-136060628D01*
X61341523Y-136060628D02*
X61389142Y-135965390D01*
X61389142Y-135965390D02*
X61436761Y-135917771D01*
X61436761Y-135917771D02*
X61531999Y-135870152D01*
X61531999Y-135870152D02*
X61674856Y-135870152D01*
X61674856Y-135870152D02*
X61770094Y-135917771D01*
X61770094Y-135917771D02*
X61817713Y-135965390D01*
X61817713Y-135965390D02*
X61865332Y-136060628D01*
X61865332Y-136060628D02*
X61865332Y-136346342D01*
X61865332Y-136346342D02*
X61817713Y-136441580D01*
X61817713Y-136441580D02*
X61770094Y-136489200D01*
X61770094Y-136489200D02*
X61674856Y-136536819D01*
X61674856Y-136536819D02*
X61531999Y-136536819D01*
X62722475Y-135870152D02*
X62722475Y-136536819D01*
X62293904Y-135870152D02*
X62293904Y-136393961D01*
X62293904Y-136393961D02*
X62341523Y-136489200D01*
X62341523Y-136489200D02*
X62436761Y-136536819D01*
X62436761Y-136536819D02*
X62579618Y-136536819D01*
X62579618Y-136536819D02*
X62674856Y-136489200D01*
X62674856Y-136489200D02*
X62722475Y-136441580D01*
X63198666Y-135870152D02*
X63198666Y-136536819D01*
X63198666Y-135965390D02*
X63246285Y-135917771D01*
X63246285Y-135917771D02*
X63341523Y-135870152D01*
X63341523Y-135870152D02*
X63484380Y-135870152D01*
X63484380Y-135870152D02*
X63579618Y-135917771D01*
X63579618Y-135917771D02*
X63627237Y-136013009D01*
X63627237Y-136013009D02*
X63627237Y-136536819D01*
X63960571Y-135870152D02*
X64341523Y-135870152D01*
X64103428Y-135536819D02*
X64103428Y-136393961D01*
X64103428Y-136393961D02*
X64151047Y-136489200D01*
X64151047Y-136489200D02*
X64246285Y-136536819D01*
X64246285Y-136536819D02*
X64341523Y-136536819D01*
X64674857Y-136536819D02*
X64674857Y-135870152D01*
X64674857Y-135536819D02*
X64627238Y-135584438D01*
X64627238Y-135584438D02*
X64674857Y-135632057D01*
X64674857Y-135632057D02*
X64722476Y-135584438D01*
X64722476Y-135584438D02*
X64674857Y-135536819D01*
X64674857Y-135536819D02*
X64674857Y-135632057D01*
X65151047Y-135870152D02*
X65151047Y-136536819D01*
X65151047Y-135965390D02*
X65198666Y-135917771D01*
X65198666Y-135917771D02*
X65293904Y-135870152D01*
X65293904Y-135870152D02*
X65436761Y-135870152D01*
X65436761Y-135870152D02*
X65531999Y-135917771D01*
X65531999Y-135917771D02*
X65579618Y-136013009D01*
X65579618Y-136013009D02*
X65579618Y-136536819D01*
X66484380Y-135870152D02*
X66484380Y-136679676D01*
X66484380Y-136679676D02*
X66436761Y-136774914D01*
X66436761Y-136774914D02*
X66389142Y-136822533D01*
X66389142Y-136822533D02*
X66293904Y-136870152D01*
X66293904Y-136870152D02*
X66151047Y-136870152D01*
X66151047Y-136870152D02*
X66055809Y-136822533D01*
X66484380Y-136489200D02*
X66389142Y-136536819D01*
X66389142Y-136536819D02*
X66198666Y-136536819D01*
X66198666Y-136536819D02*
X66103428Y-136489200D01*
X66103428Y-136489200D02*
X66055809Y-136441580D01*
X66055809Y-136441580D02*
X66008190Y-136346342D01*
X66008190Y-136346342D02*
X66008190Y-136060628D01*
X66008190Y-136060628D02*
X66055809Y-135965390D01*
X66055809Y-135965390D02*
X66103428Y-135917771D01*
X66103428Y-135917771D02*
X66198666Y-135870152D01*
X66198666Y-135870152D02*
X66389142Y-135870152D01*
X66389142Y-135870152D02*
X66484380Y-135917771D01*
X66960571Y-136536819D02*
X66960571Y-135536819D01*
X66960571Y-136013009D02*
X67531999Y-136013009D01*
X67531999Y-136536819D02*
X67531999Y-135536819D01*
X68151047Y-136536819D02*
X68055809Y-136489200D01*
X68055809Y-136489200D02*
X68008190Y-136441580D01*
X68008190Y-136441580D02*
X67960571Y-136346342D01*
X67960571Y-136346342D02*
X67960571Y-136060628D01*
X67960571Y-136060628D02*
X68008190Y-135965390D01*
X68008190Y-135965390D02*
X68055809Y-135917771D01*
X68055809Y-135917771D02*
X68151047Y-135870152D01*
X68151047Y-135870152D02*
X68293904Y-135870152D01*
X68293904Y-135870152D02*
X68389142Y-135917771D01*
X68389142Y-135917771D02*
X68436761Y-135965390D01*
X68436761Y-135965390D02*
X68484380Y-136060628D01*
X68484380Y-136060628D02*
X68484380Y-136346342D01*
X68484380Y-136346342D02*
X68436761Y-136441580D01*
X68436761Y-136441580D02*
X68389142Y-136489200D01*
X68389142Y-136489200D02*
X68293904Y-136536819D01*
X68293904Y-136536819D02*
X68151047Y-136536819D01*
X69055809Y-136536819D02*
X68960571Y-136489200D01*
X68960571Y-136489200D02*
X68912952Y-136393961D01*
X68912952Y-136393961D02*
X68912952Y-135536819D01*
X69817714Y-136489200D02*
X69722476Y-136536819D01*
X69722476Y-136536819D02*
X69532000Y-136536819D01*
X69532000Y-136536819D02*
X69436762Y-136489200D01*
X69436762Y-136489200D02*
X69389143Y-136393961D01*
X69389143Y-136393961D02*
X69389143Y-136013009D01*
X69389143Y-136013009D02*
X69436762Y-135917771D01*
X69436762Y-135917771D02*
X69532000Y-135870152D01*
X69532000Y-135870152D02*
X69722476Y-135870152D01*
X69722476Y-135870152D02*
X69817714Y-135917771D01*
X69817714Y-135917771D02*
X69865333Y-136013009D01*
X69865333Y-136013009D02*
X69865333Y-136108247D01*
X69865333Y-136108247D02*
X69389143Y-136203485D01*
X64570095Y-132336819D02*
X64570095Y-131336819D01*
X64570095Y-131813009D02*
X65141523Y-131813009D01*
X65141523Y-132336819D02*
X65141523Y-131336819D01*
X66141523Y-132336819D02*
X65570095Y-132336819D01*
X65855809Y-132336819D02*
X65855809Y-131336819D01*
X65855809Y-131336819D02*
X65760571Y-131479676D01*
X65760571Y-131479676D02*
X65665333Y-131574914D01*
X65665333Y-131574914D02*
X65570095Y-131622533D01*
X61023809Y-166704819D02*
X60690476Y-166228628D01*
X60452381Y-166704819D02*
X60452381Y-165704819D01*
X60452381Y-165704819D02*
X60833333Y-165704819D01*
X60833333Y-165704819D02*
X60928571Y-165752438D01*
X60928571Y-165752438D02*
X60976190Y-165800057D01*
X60976190Y-165800057D02*
X61023809Y-165895295D01*
X61023809Y-165895295D02*
X61023809Y-166038152D01*
X61023809Y-166038152D02*
X60976190Y-166133390D01*
X60976190Y-166133390D02*
X60928571Y-166181009D01*
X60928571Y-166181009D02*
X60833333Y-166228628D01*
X60833333Y-166228628D02*
X60452381Y-166228628D01*
X62023809Y-166609580D02*
X61976190Y-166657200D01*
X61976190Y-166657200D02*
X61833333Y-166704819D01*
X61833333Y-166704819D02*
X61738095Y-166704819D01*
X61738095Y-166704819D02*
X61595238Y-166657200D01*
X61595238Y-166657200D02*
X61500000Y-166561961D01*
X61500000Y-166561961D02*
X61452381Y-166466723D01*
X61452381Y-166466723D02*
X61404762Y-166276247D01*
X61404762Y-166276247D02*
X61404762Y-166133390D01*
X61404762Y-166133390D02*
X61452381Y-165942914D01*
X61452381Y-165942914D02*
X61500000Y-165847676D01*
X61500000Y-165847676D02*
X61595238Y-165752438D01*
X61595238Y-165752438D02*
X61738095Y-165704819D01*
X61738095Y-165704819D02*
X61833333Y-165704819D01*
X61833333Y-165704819D02*
X61976190Y-165752438D01*
X61976190Y-165752438D02*
X62023809Y-165800057D01*
X62404762Y-165800057D02*
X62452381Y-165752438D01*
X62452381Y-165752438D02*
X62547619Y-165704819D01*
X62547619Y-165704819D02*
X62785714Y-165704819D01*
X62785714Y-165704819D02*
X62880952Y-165752438D01*
X62880952Y-165752438D02*
X62928571Y-165800057D01*
X62928571Y-165800057D02*
X62976190Y-165895295D01*
X62976190Y-165895295D02*
X62976190Y-165990533D01*
X62976190Y-165990533D02*
X62928571Y-166133390D01*
X62928571Y-166133390D02*
X62357143Y-166704819D01*
X62357143Y-166704819D02*
X62976190Y-166704819D01*
X63595238Y-165704819D02*
X63690476Y-165704819D01*
X63690476Y-165704819D02*
X63785714Y-165752438D01*
X63785714Y-165752438D02*
X63833333Y-165800057D01*
X63833333Y-165800057D02*
X63880952Y-165895295D01*
X63880952Y-165895295D02*
X63928571Y-166085771D01*
X63928571Y-166085771D02*
X63928571Y-166323866D01*
X63928571Y-166323866D02*
X63880952Y-166514342D01*
X63880952Y-166514342D02*
X63833333Y-166609580D01*
X63833333Y-166609580D02*
X63785714Y-166657200D01*
X63785714Y-166657200D02*
X63690476Y-166704819D01*
X63690476Y-166704819D02*
X63595238Y-166704819D01*
X63595238Y-166704819D02*
X63500000Y-166657200D01*
X63500000Y-166657200D02*
X63452381Y-166609580D01*
X63452381Y-166609580D02*
X63404762Y-166514342D01*
X63404762Y-166514342D02*
X63357143Y-166323866D01*
X63357143Y-166323866D02*
X63357143Y-166085771D01*
X63357143Y-166085771D02*
X63404762Y-165895295D01*
X63404762Y-165895295D02*
X63452381Y-165800057D01*
X63452381Y-165800057D02*
X63500000Y-165752438D01*
X63500000Y-165752438D02*
X63595238Y-165704819D01*
X64880952Y-166704819D02*
X64309524Y-166704819D01*
X64595238Y-166704819D02*
X64595238Y-165704819D01*
X64595238Y-165704819D02*
X64500000Y-165847676D01*
X64500000Y-165847676D02*
X64404762Y-165942914D01*
X64404762Y-165942914D02*
X64309524Y-165990533D01*
X65738095Y-166038152D02*
X65738095Y-166704819D01*
X65500000Y-165657200D02*
X65261905Y-166371485D01*
X65261905Y-166371485D02*
X65880952Y-166371485D01*
X67357143Y-166181009D02*
X67500000Y-166228628D01*
X67500000Y-166228628D02*
X67547619Y-166276247D01*
X67547619Y-166276247D02*
X67595238Y-166371485D01*
X67595238Y-166371485D02*
X67595238Y-166514342D01*
X67595238Y-166514342D02*
X67547619Y-166609580D01*
X67547619Y-166609580D02*
X67500000Y-166657200D01*
X67500000Y-166657200D02*
X67404762Y-166704819D01*
X67404762Y-166704819D02*
X67023810Y-166704819D01*
X67023810Y-166704819D02*
X67023810Y-165704819D01*
X67023810Y-165704819D02*
X67357143Y-165704819D01*
X67357143Y-165704819D02*
X67452381Y-165752438D01*
X67452381Y-165752438D02*
X67500000Y-165800057D01*
X67500000Y-165800057D02*
X67547619Y-165895295D01*
X67547619Y-165895295D02*
X67547619Y-165990533D01*
X67547619Y-165990533D02*
X67500000Y-166085771D01*
X67500000Y-166085771D02*
X67452381Y-166133390D01*
X67452381Y-166133390D02*
X67357143Y-166181009D01*
X67357143Y-166181009D02*
X67023810Y-166181009D01*
X68023810Y-165704819D02*
X68023810Y-166514342D01*
X68023810Y-166514342D02*
X68071429Y-166609580D01*
X68071429Y-166609580D02*
X68119048Y-166657200D01*
X68119048Y-166657200D02*
X68214286Y-166704819D01*
X68214286Y-166704819D02*
X68404762Y-166704819D01*
X68404762Y-166704819D02*
X68500000Y-166657200D01*
X68500000Y-166657200D02*
X68547619Y-166609580D01*
X68547619Y-166609580D02*
X68595238Y-166514342D01*
X68595238Y-166514342D02*
X68595238Y-165704819D01*
X69023810Y-166657200D02*
X69166667Y-166704819D01*
X69166667Y-166704819D02*
X69404762Y-166704819D01*
X69404762Y-166704819D02*
X69500000Y-166657200D01*
X69500000Y-166657200D02*
X69547619Y-166609580D01*
X69547619Y-166609580D02*
X69595238Y-166514342D01*
X69595238Y-166514342D02*
X69595238Y-166419104D01*
X69595238Y-166419104D02*
X69547619Y-166323866D01*
X69547619Y-166323866D02*
X69500000Y-166276247D01*
X69500000Y-166276247D02*
X69404762Y-166228628D01*
X69404762Y-166228628D02*
X69214286Y-166181009D01*
X69214286Y-166181009D02*
X69119048Y-166133390D01*
X69119048Y-166133390D02*
X69071429Y-166085771D01*
X69071429Y-166085771D02*
X69023810Y-165990533D01*
X69023810Y-165990533D02*
X69023810Y-165895295D01*
X69023810Y-165895295D02*
X69071429Y-165800057D01*
X69071429Y-165800057D02*
X69119048Y-165752438D01*
X69119048Y-165752438D02*
X69214286Y-165704819D01*
X69214286Y-165704819D02*
X69452381Y-165704819D01*
X69452381Y-165704819D02*
X69595238Y-165752438D01*
X109021905Y-163954819D02*
X109021905Y-162954819D01*
X109021905Y-162954819D02*
X109402857Y-162954819D01*
X109402857Y-162954819D02*
X109498095Y-163002438D01*
X109498095Y-163002438D02*
X109545714Y-163050057D01*
X109545714Y-163050057D02*
X109593333Y-163145295D01*
X109593333Y-163145295D02*
X109593333Y-163288152D01*
X109593333Y-163288152D02*
X109545714Y-163383390D01*
X109545714Y-163383390D02*
X109498095Y-163431009D01*
X109498095Y-163431009D02*
X109402857Y-163478628D01*
X109402857Y-163478628D02*
X109021905Y-163478628D01*
X110545714Y-163954819D02*
X109974286Y-163954819D01*
X110260000Y-163954819D02*
X110260000Y-162954819D01*
X110260000Y-162954819D02*
X110164762Y-163097676D01*
X110164762Y-163097676D02*
X110069524Y-163192914D01*
X110069524Y-163192914D02*
X109974286Y-163240533D01*
X93069819Y-153992856D02*
X93069819Y-153326190D01*
X93069819Y-153326190D02*
X94069819Y-153754761D01*
X93403152Y-152516666D02*
X94069819Y-152516666D01*
X93022200Y-152754761D02*
X93736485Y-152992856D01*
X93736485Y-152992856D02*
X93736485Y-152373809D01*
X94069819Y-151992856D02*
X93069819Y-151992856D01*
X93546009Y-151992856D02*
X93546009Y-151421428D01*
X94069819Y-151421428D02*
X93069819Y-151421428D01*
X93974580Y-150373809D02*
X94022200Y-150421428D01*
X94022200Y-150421428D02*
X94069819Y-150564285D01*
X94069819Y-150564285D02*
X94069819Y-150659523D01*
X94069819Y-150659523D02*
X94022200Y-150802380D01*
X94022200Y-150802380D02*
X93926961Y-150897618D01*
X93926961Y-150897618D02*
X93831723Y-150945237D01*
X93831723Y-150945237D02*
X93641247Y-150992856D01*
X93641247Y-150992856D02*
X93498390Y-150992856D01*
X93498390Y-150992856D02*
X93307914Y-150945237D01*
X93307914Y-150945237D02*
X93212676Y-150897618D01*
X93212676Y-150897618D02*
X93117438Y-150802380D01*
X93117438Y-150802380D02*
X93069819Y-150659523D01*
X93069819Y-150659523D02*
X93069819Y-150564285D01*
X93069819Y-150564285D02*
X93117438Y-150421428D01*
X93117438Y-150421428D02*
X93165057Y-150373809D01*
X93069819Y-150088094D02*
X93069819Y-149516666D01*
X94069819Y-149802380D02*
X93069819Y-149802380D01*
X93069819Y-148754761D02*
X93069819Y-148945237D01*
X93069819Y-148945237D02*
X93117438Y-149040475D01*
X93117438Y-149040475D02*
X93165057Y-149088094D01*
X93165057Y-149088094D02*
X93307914Y-149183332D01*
X93307914Y-149183332D02*
X93498390Y-149230951D01*
X93498390Y-149230951D02*
X93879342Y-149230951D01*
X93879342Y-149230951D02*
X93974580Y-149183332D01*
X93974580Y-149183332D02*
X94022200Y-149135713D01*
X94022200Y-149135713D02*
X94069819Y-149040475D01*
X94069819Y-149040475D02*
X94069819Y-148849999D01*
X94069819Y-148849999D02*
X94022200Y-148754761D01*
X94022200Y-148754761D02*
X93974580Y-148707142D01*
X93974580Y-148707142D02*
X93879342Y-148659523D01*
X93879342Y-148659523D02*
X93641247Y-148659523D01*
X93641247Y-148659523D02*
X93546009Y-148707142D01*
X93546009Y-148707142D02*
X93498390Y-148754761D01*
X93498390Y-148754761D02*
X93450771Y-148849999D01*
X93450771Y-148849999D02*
X93450771Y-149040475D01*
X93450771Y-149040475D02*
X93498390Y-149135713D01*
X93498390Y-149135713D02*
X93546009Y-149183332D01*
X93546009Y-149183332D02*
X93641247Y-149230951D01*
X93498390Y-148088094D02*
X93450771Y-148183332D01*
X93450771Y-148183332D02*
X93403152Y-148230951D01*
X93403152Y-148230951D02*
X93307914Y-148278570D01*
X93307914Y-148278570D02*
X93260295Y-148278570D01*
X93260295Y-148278570D02*
X93165057Y-148230951D01*
X93165057Y-148230951D02*
X93117438Y-148183332D01*
X93117438Y-148183332D02*
X93069819Y-148088094D01*
X93069819Y-148088094D02*
X93069819Y-147897618D01*
X93069819Y-147897618D02*
X93117438Y-147802380D01*
X93117438Y-147802380D02*
X93165057Y-147754761D01*
X93165057Y-147754761D02*
X93260295Y-147707142D01*
X93260295Y-147707142D02*
X93307914Y-147707142D01*
X93307914Y-147707142D02*
X93403152Y-147754761D01*
X93403152Y-147754761D02*
X93450771Y-147802380D01*
X93450771Y-147802380D02*
X93498390Y-147897618D01*
X93498390Y-147897618D02*
X93498390Y-148088094D01*
X93498390Y-148088094D02*
X93546009Y-148183332D01*
X93546009Y-148183332D02*
X93593628Y-148230951D01*
X93593628Y-148230951D02*
X93688866Y-148278570D01*
X93688866Y-148278570D02*
X93879342Y-148278570D01*
X93879342Y-148278570D02*
X93974580Y-148230951D01*
X93974580Y-148230951D02*
X94022200Y-148183332D01*
X94022200Y-148183332D02*
X94069819Y-148088094D01*
X94069819Y-148088094D02*
X94069819Y-147897618D01*
X94069819Y-147897618D02*
X94022200Y-147802380D01*
X94022200Y-147802380D02*
X93974580Y-147754761D01*
X93974580Y-147754761D02*
X93879342Y-147707142D01*
X93879342Y-147707142D02*
X93688866Y-147707142D01*
X93688866Y-147707142D02*
X93593628Y-147754761D01*
X93593628Y-147754761D02*
X93546009Y-147802380D01*
X93546009Y-147802380D02*
X93498390Y-147897618D01*
X93498390Y-147135713D02*
X93450771Y-147230951D01*
X93450771Y-147230951D02*
X93403152Y-147278570D01*
X93403152Y-147278570D02*
X93307914Y-147326189D01*
X93307914Y-147326189D02*
X93260295Y-147326189D01*
X93260295Y-147326189D02*
X93165057Y-147278570D01*
X93165057Y-147278570D02*
X93117438Y-147230951D01*
X93117438Y-147230951D02*
X93069819Y-147135713D01*
X93069819Y-147135713D02*
X93069819Y-146945237D01*
X93069819Y-146945237D02*
X93117438Y-146849999D01*
X93117438Y-146849999D02*
X93165057Y-146802380D01*
X93165057Y-146802380D02*
X93260295Y-146754761D01*
X93260295Y-146754761D02*
X93307914Y-146754761D01*
X93307914Y-146754761D02*
X93403152Y-146802380D01*
X93403152Y-146802380D02*
X93450771Y-146849999D01*
X93450771Y-146849999D02*
X93498390Y-146945237D01*
X93498390Y-146945237D02*
X93498390Y-147135713D01*
X93498390Y-147135713D02*
X93546009Y-147230951D01*
X93546009Y-147230951D02*
X93593628Y-147278570D01*
X93593628Y-147278570D02*
X93688866Y-147326189D01*
X93688866Y-147326189D02*
X93879342Y-147326189D01*
X93879342Y-147326189D02*
X93974580Y-147278570D01*
X93974580Y-147278570D02*
X94022200Y-147230951D01*
X94022200Y-147230951D02*
X94069819Y-147135713D01*
X94069819Y-147135713D02*
X94069819Y-146945237D01*
X94069819Y-146945237D02*
X94022200Y-146849999D01*
X94022200Y-146849999D02*
X93974580Y-146802380D01*
X93974580Y-146802380D02*
X93879342Y-146754761D01*
X93879342Y-146754761D02*
X93688866Y-146754761D01*
X93688866Y-146754761D02*
X93593628Y-146802380D01*
X93593628Y-146802380D02*
X93546009Y-146849999D01*
X93546009Y-146849999D02*
X93498390Y-146945237D01*
X85719819Y-151111904D02*
X86529342Y-151111904D01*
X86529342Y-151111904D02*
X86624580Y-151064285D01*
X86624580Y-151064285D02*
X86672200Y-151016666D01*
X86672200Y-151016666D02*
X86719819Y-150921428D01*
X86719819Y-150921428D02*
X86719819Y-150730952D01*
X86719819Y-150730952D02*
X86672200Y-150635714D01*
X86672200Y-150635714D02*
X86624580Y-150588095D01*
X86624580Y-150588095D02*
X86529342Y-150540476D01*
X86529342Y-150540476D02*
X85719819Y-150540476D01*
X85719819Y-150159523D02*
X85719819Y-149540476D01*
X85719819Y-149540476D02*
X86100771Y-149873809D01*
X86100771Y-149873809D02*
X86100771Y-149730952D01*
X86100771Y-149730952D02*
X86148390Y-149635714D01*
X86148390Y-149635714D02*
X86196009Y-149588095D01*
X86196009Y-149588095D02*
X86291247Y-149540476D01*
X86291247Y-149540476D02*
X86529342Y-149540476D01*
X86529342Y-149540476D02*
X86624580Y-149588095D01*
X86624580Y-149588095D02*
X86672200Y-149635714D01*
X86672200Y-149635714D02*
X86719819Y-149730952D01*
X86719819Y-149730952D02*
X86719819Y-150016666D01*
X86719819Y-150016666D02*
X86672200Y-150111904D01*
X86672200Y-150111904D02*
X86624580Y-150159523D01*
X119833333Y-129454819D02*
X119642857Y-129454819D01*
X119642857Y-129454819D02*
X119547619Y-129502438D01*
X119547619Y-129502438D02*
X119500000Y-129550057D01*
X119500000Y-129550057D02*
X119404762Y-129692914D01*
X119404762Y-129692914D02*
X119357143Y-129883390D01*
X119357143Y-129883390D02*
X119357143Y-130264342D01*
X119357143Y-130264342D02*
X119404762Y-130359580D01*
X119404762Y-130359580D02*
X119452381Y-130407200D01*
X119452381Y-130407200D02*
X119547619Y-130454819D01*
X119547619Y-130454819D02*
X119738095Y-130454819D01*
X119738095Y-130454819D02*
X119833333Y-130407200D01*
X119833333Y-130407200D02*
X119880952Y-130359580D01*
X119880952Y-130359580D02*
X119928571Y-130264342D01*
X119928571Y-130264342D02*
X119928571Y-130026247D01*
X119928571Y-130026247D02*
X119880952Y-129931009D01*
X119880952Y-129931009D02*
X119833333Y-129883390D01*
X119833333Y-129883390D02*
X119738095Y-129835771D01*
X119738095Y-129835771D02*
X119547619Y-129835771D01*
X119547619Y-129835771D02*
X119452381Y-129883390D01*
X119452381Y-129883390D02*
X119404762Y-129931009D01*
X119404762Y-129931009D02*
X119357143Y-130026247D01*
X120500000Y-129883390D02*
X120404762Y-129835771D01*
X120404762Y-129835771D02*
X120357143Y-129788152D01*
X120357143Y-129788152D02*
X120309524Y-129692914D01*
X120309524Y-129692914D02*
X120309524Y-129645295D01*
X120309524Y-129645295D02*
X120357143Y-129550057D01*
X120357143Y-129550057D02*
X120404762Y-129502438D01*
X120404762Y-129502438D02*
X120500000Y-129454819D01*
X120500000Y-129454819D02*
X120690476Y-129454819D01*
X120690476Y-129454819D02*
X120785714Y-129502438D01*
X120785714Y-129502438D02*
X120833333Y-129550057D01*
X120833333Y-129550057D02*
X120880952Y-129645295D01*
X120880952Y-129645295D02*
X120880952Y-129692914D01*
X120880952Y-129692914D02*
X120833333Y-129788152D01*
X120833333Y-129788152D02*
X120785714Y-129835771D01*
X120785714Y-129835771D02*
X120690476Y-129883390D01*
X120690476Y-129883390D02*
X120500000Y-129883390D01*
X120500000Y-129883390D02*
X120404762Y-129931009D01*
X120404762Y-129931009D02*
X120357143Y-129978628D01*
X120357143Y-129978628D02*
X120309524Y-130073866D01*
X120309524Y-130073866D02*
X120309524Y-130264342D01*
X120309524Y-130264342D02*
X120357143Y-130359580D01*
X120357143Y-130359580D02*
X120404762Y-130407200D01*
X120404762Y-130407200D02*
X120500000Y-130454819D01*
X120500000Y-130454819D02*
X120690476Y-130454819D01*
X120690476Y-130454819D02*
X120785714Y-130407200D01*
X120785714Y-130407200D02*
X120833333Y-130359580D01*
X120833333Y-130359580D02*
X120880952Y-130264342D01*
X120880952Y-130264342D02*
X120880952Y-130073866D01*
X120880952Y-130073866D02*
X120833333Y-129978628D01*
X120833333Y-129978628D02*
X120785714Y-129931009D01*
X120785714Y-129931009D02*
X120690476Y-129883390D01*
X121309524Y-129788152D02*
X121309524Y-130788152D01*
X121309524Y-129835771D02*
X121404762Y-129788152D01*
X121404762Y-129788152D02*
X121595238Y-129788152D01*
X121595238Y-129788152D02*
X121690476Y-129835771D01*
X121690476Y-129835771D02*
X121738095Y-129883390D01*
X121738095Y-129883390D02*
X121785714Y-129978628D01*
X121785714Y-129978628D02*
X121785714Y-130264342D01*
X121785714Y-130264342D02*
X121738095Y-130359580D01*
X121738095Y-130359580D02*
X121690476Y-130407200D01*
X121690476Y-130407200D02*
X121595238Y-130454819D01*
X121595238Y-130454819D02*
X121404762Y-130454819D01*
X121404762Y-130454819D02*
X121309524Y-130407200D01*
X122547619Y-129931009D02*
X122214286Y-129931009D01*
X122214286Y-130454819D02*
X122214286Y-129454819D01*
X122214286Y-129454819D02*
X122690476Y-129454819D01*
D11*
X124043832Y-128766666D02*
X124062880Y-128785714D01*
X124062880Y-128785714D02*
X124081927Y-128842856D01*
X124081927Y-128842856D02*
X124081927Y-128880952D01*
X124081927Y-128880952D02*
X124062880Y-128938095D01*
X124062880Y-128938095D02*
X124024784Y-128976190D01*
X124024784Y-128976190D02*
X123986689Y-128995237D01*
X123986689Y-128995237D02*
X123910499Y-129014285D01*
X123910499Y-129014285D02*
X123853356Y-129014285D01*
X123853356Y-129014285D02*
X123777165Y-128995237D01*
X123777165Y-128995237D02*
X123739070Y-128976190D01*
X123739070Y-128976190D02*
X123700975Y-128938095D01*
X123700975Y-128938095D02*
X123681927Y-128880952D01*
X123681927Y-128880952D02*
X123681927Y-128842856D01*
X123681927Y-128842856D02*
X123700975Y-128785714D01*
X123700975Y-128785714D02*
X123720022Y-128766666D01*
X123681927Y-128423809D02*
X123681927Y-128499999D01*
X123681927Y-128499999D02*
X123700975Y-128538095D01*
X123700975Y-128538095D02*
X123720022Y-128557142D01*
X123720022Y-128557142D02*
X123777165Y-128595237D01*
X123777165Y-128595237D02*
X123853356Y-128614285D01*
X123853356Y-128614285D02*
X124005737Y-128614285D01*
X124005737Y-128614285D02*
X124043832Y-128595237D01*
X124043832Y-128595237D02*
X124062880Y-128576190D01*
X124062880Y-128576190D02*
X124081927Y-128538095D01*
X124081927Y-128538095D02*
X124081927Y-128461904D01*
X124081927Y-128461904D02*
X124062880Y-128423809D01*
X124062880Y-128423809D02*
X124043832Y-128404761D01*
X124043832Y-128404761D02*
X124005737Y-128385714D01*
X124005737Y-128385714D02*
X123910499Y-128385714D01*
X123910499Y-128385714D02*
X123872403Y-128404761D01*
X123872403Y-128404761D02*
X123853356Y-128423809D01*
X123853356Y-128423809D02*
X123834308Y-128461904D01*
X123834308Y-128461904D02*
X123834308Y-128538095D01*
X123834308Y-128538095D02*
X123853356Y-128576190D01*
X123853356Y-128576190D02*
X123872403Y-128595237D01*
X123872403Y-128595237D02*
X123910499Y-128614285D01*
D10*
X110428571Y-123904819D02*
X109857143Y-123904819D01*
X110142857Y-123904819D02*
X110142857Y-122904819D01*
X110142857Y-122904819D02*
X110047619Y-123047676D01*
X110047619Y-123047676D02*
X109952381Y-123142914D01*
X109952381Y-123142914D02*
X109857143Y-123190533D01*
X111047619Y-122904819D02*
X111142857Y-122904819D01*
X111142857Y-122904819D02*
X111238095Y-122952438D01*
X111238095Y-122952438D02*
X111285714Y-123000057D01*
X111285714Y-123000057D02*
X111333333Y-123095295D01*
X111333333Y-123095295D02*
X111380952Y-123285771D01*
X111380952Y-123285771D02*
X111380952Y-123523866D01*
X111380952Y-123523866D02*
X111333333Y-123714342D01*
X111333333Y-123714342D02*
X111285714Y-123809580D01*
X111285714Y-123809580D02*
X111238095Y-123857200D01*
X111238095Y-123857200D02*
X111142857Y-123904819D01*
X111142857Y-123904819D02*
X111047619Y-123904819D01*
X111047619Y-123904819D02*
X110952381Y-123857200D01*
X110952381Y-123857200D02*
X110904762Y-123809580D01*
X110904762Y-123809580D02*
X110857143Y-123714342D01*
X110857143Y-123714342D02*
X110809524Y-123523866D01*
X110809524Y-123523866D02*
X110809524Y-123285771D01*
X110809524Y-123285771D02*
X110857143Y-123095295D01*
X110857143Y-123095295D02*
X110904762Y-123000057D01*
X110904762Y-123000057D02*
X110952381Y-122952438D01*
X110952381Y-122952438D02*
X111047619Y-122904819D01*
X112238095Y-123238152D02*
X112238095Y-123904819D01*
X111809524Y-123238152D02*
X111809524Y-123761961D01*
X111809524Y-123761961D02*
X111857143Y-123857200D01*
X111857143Y-123857200D02*
X111952381Y-123904819D01*
X111952381Y-123904819D02*
X112095238Y-123904819D01*
X112095238Y-123904819D02*
X112190476Y-123857200D01*
X112190476Y-123857200D02*
X112238095Y-123809580D01*
X113047619Y-123381009D02*
X112714286Y-123381009D01*
X112714286Y-123904819D02*
X112714286Y-122904819D01*
X112714286Y-122904819D02*
X113190476Y-122904819D01*
X111333333Y-128159580D02*
X111285714Y-128207200D01*
X111285714Y-128207200D02*
X111142857Y-128254819D01*
X111142857Y-128254819D02*
X111047619Y-128254819D01*
X111047619Y-128254819D02*
X110904762Y-128207200D01*
X110904762Y-128207200D02*
X110809524Y-128111961D01*
X110809524Y-128111961D02*
X110761905Y-128016723D01*
X110761905Y-128016723D02*
X110714286Y-127826247D01*
X110714286Y-127826247D02*
X110714286Y-127683390D01*
X110714286Y-127683390D02*
X110761905Y-127492914D01*
X110761905Y-127492914D02*
X110809524Y-127397676D01*
X110809524Y-127397676D02*
X110904762Y-127302438D01*
X110904762Y-127302438D02*
X111047619Y-127254819D01*
X111047619Y-127254819D02*
X111142857Y-127254819D01*
X111142857Y-127254819D02*
X111285714Y-127302438D01*
X111285714Y-127302438D02*
X111333333Y-127350057D01*
X112285714Y-128254819D02*
X111714286Y-128254819D01*
X112000000Y-128254819D02*
X112000000Y-127254819D01*
X112000000Y-127254819D02*
X111904762Y-127397676D01*
X111904762Y-127397676D02*
X111809524Y-127492914D01*
X111809524Y-127492914D02*
X111714286Y-127540533D01*
X112857143Y-119254819D02*
X112952381Y-119254819D01*
X112952381Y-119254819D02*
X113047619Y-119302438D01*
X113047619Y-119302438D02*
X113095238Y-119350057D01*
X113095238Y-119350057D02*
X113142857Y-119445295D01*
X113142857Y-119445295D02*
X113190476Y-119635771D01*
X113190476Y-119635771D02*
X113190476Y-119873866D01*
X113190476Y-119873866D02*
X113142857Y-120064342D01*
X113142857Y-120064342D02*
X113095238Y-120159580D01*
X113095238Y-120159580D02*
X113047619Y-120207200D01*
X113047619Y-120207200D02*
X112952381Y-120254819D01*
X112952381Y-120254819D02*
X112857143Y-120254819D01*
X112857143Y-120254819D02*
X112761905Y-120207200D01*
X112761905Y-120207200D02*
X112714286Y-120159580D01*
X112714286Y-120159580D02*
X112666667Y-120064342D01*
X112666667Y-120064342D02*
X112619048Y-119873866D01*
X112619048Y-119873866D02*
X112619048Y-119635771D01*
X112619048Y-119635771D02*
X112666667Y-119445295D01*
X112666667Y-119445295D02*
X112714286Y-119350057D01*
X112714286Y-119350057D02*
X112761905Y-119302438D01*
X112761905Y-119302438D02*
X112857143Y-119254819D01*
X113619048Y-120159580D02*
X113666667Y-120207200D01*
X113666667Y-120207200D02*
X113619048Y-120254819D01*
X113619048Y-120254819D02*
X113571429Y-120207200D01*
X113571429Y-120207200D02*
X113619048Y-120159580D01*
X113619048Y-120159580D02*
X113619048Y-120254819D01*
X114619047Y-120254819D02*
X114047619Y-120254819D01*
X114333333Y-120254819D02*
X114333333Y-119254819D01*
X114333333Y-119254819D02*
X114238095Y-119397676D01*
X114238095Y-119397676D02*
X114142857Y-119492914D01*
X114142857Y-119492914D02*
X114047619Y-119540533D01*
X115476190Y-119588152D02*
X115476190Y-120254819D01*
X115047619Y-119588152D02*
X115047619Y-120111961D01*
X115047619Y-120111961D02*
X115095238Y-120207200D01*
X115095238Y-120207200D02*
X115190476Y-120254819D01*
X115190476Y-120254819D02*
X115333333Y-120254819D01*
X115333333Y-120254819D02*
X115428571Y-120207200D01*
X115428571Y-120207200D02*
X115476190Y-120159580D01*
X116285714Y-119731009D02*
X115952381Y-119731009D01*
X115952381Y-120254819D02*
X115952381Y-119254819D01*
X115952381Y-119254819D02*
X116428571Y-119254819D01*
D11*
X117343832Y-121466666D02*
X117362880Y-121485714D01*
X117362880Y-121485714D02*
X117381927Y-121542856D01*
X117381927Y-121542856D02*
X117381927Y-121580952D01*
X117381927Y-121580952D02*
X117362880Y-121638095D01*
X117362880Y-121638095D02*
X117324784Y-121676190D01*
X117324784Y-121676190D02*
X117286689Y-121695237D01*
X117286689Y-121695237D02*
X117210499Y-121714285D01*
X117210499Y-121714285D02*
X117153356Y-121714285D01*
X117153356Y-121714285D02*
X117077165Y-121695237D01*
X117077165Y-121695237D02*
X117039070Y-121676190D01*
X117039070Y-121676190D02*
X117000975Y-121638095D01*
X117000975Y-121638095D02*
X116981927Y-121580952D01*
X116981927Y-121580952D02*
X116981927Y-121542856D01*
X116981927Y-121542856D02*
X117000975Y-121485714D01*
X117000975Y-121485714D02*
X117020022Y-121466666D01*
X116981927Y-121104761D02*
X116981927Y-121295237D01*
X116981927Y-121295237D02*
X117172403Y-121314285D01*
X117172403Y-121314285D02*
X117153356Y-121295237D01*
X117153356Y-121295237D02*
X117134308Y-121257142D01*
X117134308Y-121257142D02*
X117134308Y-121161904D01*
X117134308Y-121161904D02*
X117153356Y-121123809D01*
X117153356Y-121123809D02*
X117172403Y-121104761D01*
X117172403Y-121104761D02*
X117210499Y-121085714D01*
X117210499Y-121085714D02*
X117305737Y-121085714D01*
X117305737Y-121085714D02*
X117343832Y-121104761D01*
X117343832Y-121104761D02*
X117362880Y-121123809D01*
X117362880Y-121123809D02*
X117381927Y-121161904D01*
X117381927Y-121161904D02*
X117381927Y-121257142D01*
X117381927Y-121257142D02*
X117362880Y-121295237D01*
X117362880Y-121295237D02*
X117343832Y-121314285D01*
D10*
X129571428Y-159628628D02*
X129571428Y-160104819D01*
X129238095Y-159104819D02*
X129571428Y-159628628D01*
X129571428Y-159628628D02*
X129904761Y-159104819D01*
X130238095Y-160104819D02*
X130238095Y-159104819D01*
X130238095Y-159104819D02*
X130571428Y-159819104D01*
X130571428Y-159819104D02*
X130904761Y-159104819D01*
X130904761Y-159104819D02*
X130904761Y-160104819D01*
X131714285Y-159581009D02*
X131380952Y-159581009D01*
X131380952Y-160104819D02*
X131380952Y-159104819D01*
X131380952Y-159104819D02*
X131857142Y-159104819D01*
X132190476Y-159200057D02*
X132238095Y-159152438D01*
X132238095Y-159152438D02*
X132333333Y-159104819D01*
X132333333Y-159104819D02*
X132571428Y-159104819D01*
X132571428Y-159104819D02*
X132666666Y-159152438D01*
X132666666Y-159152438D02*
X132714285Y-159200057D01*
X132714285Y-159200057D02*
X132761904Y-159295295D01*
X132761904Y-159295295D02*
X132761904Y-159390533D01*
X132761904Y-159390533D02*
X132714285Y-159533390D01*
X132714285Y-159533390D02*
X132142857Y-160104819D01*
X132142857Y-160104819D02*
X132761904Y-160104819D01*
X133619047Y-159104819D02*
X133428571Y-159104819D01*
X133428571Y-159104819D02*
X133333333Y-159152438D01*
X133333333Y-159152438D02*
X133285714Y-159200057D01*
X133285714Y-159200057D02*
X133190476Y-159342914D01*
X133190476Y-159342914D02*
X133142857Y-159533390D01*
X133142857Y-159533390D02*
X133142857Y-159914342D01*
X133142857Y-159914342D02*
X133190476Y-160009580D01*
X133190476Y-160009580D02*
X133238095Y-160057200D01*
X133238095Y-160057200D02*
X133333333Y-160104819D01*
X133333333Y-160104819D02*
X133523809Y-160104819D01*
X133523809Y-160104819D02*
X133619047Y-160057200D01*
X133619047Y-160057200D02*
X133666666Y-160009580D01*
X133666666Y-160009580D02*
X133714285Y-159914342D01*
X133714285Y-159914342D02*
X133714285Y-159676247D01*
X133714285Y-159676247D02*
X133666666Y-159581009D01*
X133666666Y-159581009D02*
X133619047Y-159533390D01*
X133619047Y-159533390D02*
X133523809Y-159485771D01*
X133523809Y-159485771D02*
X133333333Y-159485771D01*
X133333333Y-159485771D02*
X133238095Y-159533390D01*
X133238095Y-159533390D02*
X133190476Y-159581009D01*
X133190476Y-159581009D02*
X133142857Y-159676247D01*
X134095238Y-159200057D02*
X134142857Y-159152438D01*
X134142857Y-159152438D02*
X134238095Y-159104819D01*
X134238095Y-159104819D02*
X134476190Y-159104819D01*
X134476190Y-159104819D02*
X134571428Y-159152438D01*
X134571428Y-159152438D02*
X134619047Y-159200057D01*
X134619047Y-159200057D02*
X134666666Y-159295295D01*
X134666666Y-159295295D02*
X134666666Y-159390533D01*
X134666666Y-159390533D02*
X134619047Y-159533390D01*
X134619047Y-159533390D02*
X134047619Y-160104819D01*
X134047619Y-160104819D02*
X134666666Y-160104819D01*
X131238095Y-150454819D02*
X131238095Y-151264342D01*
X131238095Y-151264342D02*
X131285714Y-151359580D01*
X131285714Y-151359580D02*
X131333333Y-151407200D01*
X131333333Y-151407200D02*
X131428571Y-151454819D01*
X131428571Y-151454819D02*
X131619047Y-151454819D01*
X131619047Y-151454819D02*
X131714285Y-151407200D01*
X131714285Y-151407200D02*
X131761904Y-151359580D01*
X131761904Y-151359580D02*
X131809523Y-151264342D01*
X131809523Y-151264342D02*
X131809523Y-150454819D01*
X132714285Y-150788152D02*
X132714285Y-151454819D01*
X132476190Y-150407200D02*
X132238095Y-151121485D01*
X132238095Y-151121485D02*
X132857142Y-151121485D01*
X121857143Y-141454819D02*
X121952381Y-141454819D01*
X121952381Y-141454819D02*
X122047619Y-141502438D01*
X122047619Y-141502438D02*
X122095238Y-141550057D01*
X122095238Y-141550057D02*
X122142857Y-141645295D01*
X122142857Y-141645295D02*
X122190476Y-141835771D01*
X122190476Y-141835771D02*
X122190476Y-142073866D01*
X122190476Y-142073866D02*
X122142857Y-142264342D01*
X122142857Y-142264342D02*
X122095238Y-142359580D01*
X122095238Y-142359580D02*
X122047619Y-142407200D01*
X122047619Y-142407200D02*
X121952381Y-142454819D01*
X121952381Y-142454819D02*
X121857143Y-142454819D01*
X121857143Y-142454819D02*
X121761905Y-142407200D01*
X121761905Y-142407200D02*
X121714286Y-142359580D01*
X121714286Y-142359580D02*
X121666667Y-142264342D01*
X121666667Y-142264342D02*
X121619048Y-142073866D01*
X121619048Y-142073866D02*
X121619048Y-141835771D01*
X121619048Y-141835771D02*
X121666667Y-141645295D01*
X121666667Y-141645295D02*
X121714286Y-141550057D01*
X121714286Y-141550057D02*
X121761905Y-141502438D01*
X121761905Y-141502438D02*
X121857143Y-141454819D01*
X122619048Y-142359580D02*
X122666667Y-142407200D01*
X122666667Y-142407200D02*
X122619048Y-142454819D01*
X122619048Y-142454819D02*
X122571429Y-142407200D01*
X122571429Y-142407200D02*
X122619048Y-142359580D01*
X122619048Y-142359580D02*
X122619048Y-142454819D01*
X123619047Y-142454819D02*
X123047619Y-142454819D01*
X123333333Y-142454819D02*
X123333333Y-141454819D01*
X123333333Y-141454819D02*
X123238095Y-141597676D01*
X123238095Y-141597676D02*
X123142857Y-141692914D01*
X123142857Y-141692914D02*
X123047619Y-141740533D01*
X124476190Y-141788152D02*
X124476190Y-142454819D01*
X124047619Y-141788152D02*
X124047619Y-142311961D01*
X124047619Y-142311961D02*
X124095238Y-142407200D01*
X124095238Y-142407200D02*
X124190476Y-142454819D01*
X124190476Y-142454819D02*
X124333333Y-142454819D01*
X124333333Y-142454819D02*
X124428571Y-142407200D01*
X124428571Y-142407200D02*
X124476190Y-142359580D01*
X125285714Y-141931009D02*
X124952381Y-141931009D01*
X124952381Y-142454819D02*
X124952381Y-141454819D01*
X124952381Y-141454819D02*
X125428571Y-141454819D01*
D11*
X123242857Y-144143832D02*
X123223809Y-144162880D01*
X123223809Y-144162880D02*
X123166667Y-144181927D01*
X123166667Y-144181927D02*
X123128571Y-144181927D01*
X123128571Y-144181927D02*
X123071428Y-144162880D01*
X123071428Y-144162880D02*
X123033333Y-144124784D01*
X123033333Y-144124784D02*
X123014286Y-144086689D01*
X123014286Y-144086689D02*
X122995238Y-144010499D01*
X122995238Y-144010499D02*
X122995238Y-143953356D01*
X122995238Y-143953356D02*
X123014286Y-143877165D01*
X123014286Y-143877165D02*
X123033333Y-143839070D01*
X123033333Y-143839070D02*
X123071428Y-143800975D01*
X123071428Y-143800975D02*
X123128571Y-143781927D01*
X123128571Y-143781927D02*
X123166667Y-143781927D01*
X123166667Y-143781927D02*
X123223809Y-143800975D01*
X123223809Y-143800975D02*
X123242857Y-143820022D01*
X123623809Y-144181927D02*
X123395238Y-144181927D01*
X123509524Y-144181927D02*
X123509524Y-143781927D01*
X123509524Y-143781927D02*
X123471428Y-143839070D01*
X123471428Y-143839070D02*
X123433333Y-143877165D01*
X123433333Y-143877165D02*
X123395238Y-143896213D01*
X124004761Y-144181927D02*
X123776190Y-144181927D01*
X123890476Y-144181927D02*
X123890476Y-143781927D01*
X123890476Y-143781927D02*
X123852380Y-143839070D01*
X123852380Y-143839070D02*
X123814285Y-143877165D01*
X123814285Y-143877165D02*
X123776190Y-143896213D01*
D10*
X140866666Y-151854819D02*
X140295238Y-151854819D01*
X140580952Y-151854819D02*
X140580952Y-150854819D01*
X140580952Y-150854819D02*
X140485714Y-150997676D01*
X140485714Y-150997676D02*
X140390476Y-151092914D01*
X140390476Y-151092914D02*
X140295238Y-151140533D01*
X141723809Y-151188152D02*
X141723809Y-151854819D01*
X141485714Y-150807200D02*
X141247619Y-151521485D01*
X141247619Y-151521485D02*
X141866666Y-151521485D01*
X142247619Y-151759580D02*
X142295238Y-151807200D01*
X142295238Y-151807200D02*
X142247619Y-151854819D01*
X142247619Y-151854819D02*
X142200000Y-151807200D01*
X142200000Y-151807200D02*
X142247619Y-151759580D01*
X142247619Y-151759580D02*
X142247619Y-151854819D01*
X142628571Y-150854819D02*
X143247618Y-150854819D01*
X143247618Y-150854819D02*
X142914285Y-151235771D01*
X142914285Y-151235771D02*
X143057142Y-151235771D01*
X143057142Y-151235771D02*
X143152380Y-151283390D01*
X143152380Y-151283390D02*
X143199999Y-151331009D01*
X143199999Y-151331009D02*
X143247618Y-151426247D01*
X143247618Y-151426247D02*
X143247618Y-151664342D01*
X143247618Y-151664342D02*
X143199999Y-151759580D01*
X143199999Y-151759580D02*
X143152380Y-151807200D01*
X143152380Y-151807200D02*
X143057142Y-151854819D01*
X143057142Y-151854819D02*
X142771428Y-151854819D01*
X142771428Y-151854819D02*
X142676190Y-151807200D01*
X142676190Y-151807200D02*
X142628571Y-151759580D01*
X144199999Y-151854819D02*
X143628571Y-151854819D01*
X143914285Y-151854819D02*
X143914285Y-150854819D01*
X143914285Y-150854819D02*
X143819047Y-150997676D01*
X143819047Y-150997676D02*
X143723809Y-151092914D01*
X143723809Y-151092914D02*
X143628571Y-151140533D01*
X144771428Y-151283390D02*
X144676190Y-151235771D01*
X144676190Y-151235771D02*
X144628571Y-151188152D01*
X144628571Y-151188152D02*
X144580952Y-151092914D01*
X144580952Y-151092914D02*
X144580952Y-151045295D01*
X144580952Y-151045295D02*
X144628571Y-150950057D01*
X144628571Y-150950057D02*
X144676190Y-150902438D01*
X144676190Y-150902438D02*
X144771428Y-150854819D01*
X144771428Y-150854819D02*
X144961904Y-150854819D01*
X144961904Y-150854819D02*
X145057142Y-150902438D01*
X145057142Y-150902438D02*
X145104761Y-150950057D01*
X145104761Y-150950057D02*
X145152380Y-151045295D01*
X145152380Y-151045295D02*
X145152380Y-151092914D01*
X145152380Y-151092914D02*
X145104761Y-151188152D01*
X145104761Y-151188152D02*
X145057142Y-151235771D01*
X145057142Y-151235771D02*
X144961904Y-151283390D01*
X144961904Y-151283390D02*
X144771428Y-151283390D01*
X144771428Y-151283390D02*
X144676190Y-151331009D01*
X144676190Y-151331009D02*
X144628571Y-151378628D01*
X144628571Y-151378628D02*
X144580952Y-151473866D01*
X144580952Y-151473866D02*
X144580952Y-151664342D01*
X144580952Y-151664342D02*
X144628571Y-151759580D01*
X144628571Y-151759580D02*
X144676190Y-151807200D01*
X144676190Y-151807200D02*
X144771428Y-151854819D01*
X144771428Y-151854819D02*
X144961904Y-151854819D01*
X144961904Y-151854819D02*
X145057142Y-151807200D01*
X145057142Y-151807200D02*
X145104761Y-151759580D01*
X145104761Y-151759580D02*
X145152380Y-151664342D01*
X145152380Y-151664342D02*
X145152380Y-151473866D01*
X145152380Y-151473866D02*
X145104761Y-151378628D01*
X145104761Y-151378628D02*
X145057142Y-151331009D01*
X145057142Y-151331009D02*
X144961904Y-151283390D01*
X146104761Y-151854819D02*
X145533333Y-151854819D01*
X145819047Y-151854819D02*
X145819047Y-150854819D01*
X145819047Y-150854819D02*
X145723809Y-150997676D01*
X145723809Y-150997676D02*
X145628571Y-151092914D01*
X145628571Y-151092914D02*
X145533333Y-151140533D01*
X146533333Y-151854819D02*
X146533333Y-150854819D01*
X146533333Y-150854819D02*
X146866666Y-151569104D01*
X146866666Y-151569104D02*
X147199999Y-150854819D01*
X147199999Y-150854819D02*
X147199999Y-151854819D01*
X147676190Y-151854819D02*
X147676190Y-150854819D01*
X147676190Y-151331009D02*
X148247618Y-151331009D01*
X148247618Y-151854819D02*
X148247618Y-150854819D01*
X148628571Y-151188152D02*
X149152380Y-151188152D01*
X149152380Y-151188152D02*
X148628571Y-151854819D01*
X148628571Y-151854819D02*
X149152380Y-151854819D01*
X144478628Y-146976190D02*
X144954819Y-146976190D01*
X143954819Y-147309523D02*
X144478628Y-146976190D01*
X144478628Y-146976190D02*
X143954819Y-146642857D01*
X144954819Y-145785714D02*
X144954819Y-146357142D01*
X144954819Y-146071428D02*
X143954819Y-146071428D01*
X143954819Y-146071428D02*
X144097676Y-146166666D01*
X144097676Y-146166666D02*
X144192914Y-146261904D01*
X144192914Y-146261904D02*
X144240533Y-146357142D01*
X121237857Y-134478628D02*
X121237857Y-134954819D01*
X120904524Y-133954819D02*
X121237857Y-134478628D01*
X121237857Y-134478628D02*
X121571190Y-133954819D01*
X121856905Y-134669104D02*
X122333095Y-134669104D01*
X121761667Y-134954819D02*
X122095000Y-133954819D01*
X122095000Y-133954819D02*
X122428333Y-134954819D01*
X123333095Y-134859580D02*
X123285476Y-134907200D01*
X123285476Y-134907200D02*
X123142619Y-134954819D01*
X123142619Y-134954819D02*
X123047381Y-134954819D01*
X123047381Y-134954819D02*
X122904524Y-134907200D01*
X122904524Y-134907200D02*
X122809286Y-134811961D01*
X122809286Y-134811961D02*
X122761667Y-134716723D01*
X122761667Y-134716723D02*
X122714048Y-134526247D01*
X122714048Y-134526247D02*
X122714048Y-134383390D01*
X122714048Y-134383390D02*
X122761667Y-134192914D01*
X122761667Y-134192914D02*
X122809286Y-134097676D01*
X122809286Y-134097676D02*
X122904524Y-134002438D01*
X122904524Y-134002438D02*
X123047381Y-133954819D01*
X123047381Y-133954819D02*
X123142619Y-133954819D01*
X123142619Y-133954819D02*
X123285476Y-134002438D01*
X123285476Y-134002438D02*
X123333095Y-134050057D01*
X124237857Y-133954819D02*
X123761667Y-133954819D01*
X123761667Y-133954819D02*
X123714048Y-134431009D01*
X123714048Y-134431009D02*
X123761667Y-134383390D01*
X123761667Y-134383390D02*
X123856905Y-134335771D01*
X123856905Y-134335771D02*
X124095000Y-134335771D01*
X124095000Y-134335771D02*
X124190238Y-134383390D01*
X124190238Y-134383390D02*
X124237857Y-134431009D01*
X124237857Y-134431009D02*
X124285476Y-134526247D01*
X124285476Y-134526247D02*
X124285476Y-134764342D01*
X124285476Y-134764342D02*
X124237857Y-134859580D01*
X124237857Y-134859580D02*
X124190238Y-134907200D01*
X124190238Y-134907200D02*
X124095000Y-134954819D01*
X124095000Y-134954819D02*
X123856905Y-134954819D01*
X123856905Y-134954819D02*
X123761667Y-134907200D01*
X123761667Y-134907200D02*
X123714048Y-134859580D01*
X125237857Y-134954819D02*
X124666429Y-134954819D01*
X124952143Y-134954819D02*
X124952143Y-133954819D01*
X124952143Y-133954819D02*
X124856905Y-134097676D01*
X124856905Y-134097676D02*
X124761667Y-134192914D01*
X124761667Y-134192914D02*
X124666429Y-134240533D01*
X125618810Y-134050057D02*
X125666429Y-134002438D01*
X125666429Y-134002438D02*
X125761667Y-133954819D01*
X125761667Y-133954819D02*
X125999762Y-133954819D01*
X125999762Y-133954819D02*
X126095000Y-134002438D01*
X126095000Y-134002438D02*
X126142619Y-134050057D01*
X126142619Y-134050057D02*
X126190238Y-134145295D01*
X126190238Y-134145295D02*
X126190238Y-134240533D01*
X126190238Y-134240533D02*
X126142619Y-134383390D01*
X126142619Y-134383390D02*
X125571191Y-134954819D01*
X125571191Y-134954819D02*
X126190238Y-134954819D01*
X122833095Y-135204819D02*
X122833095Y-136014342D01*
X122833095Y-136014342D02*
X122880714Y-136109580D01*
X122880714Y-136109580D02*
X122928333Y-136157200D01*
X122928333Y-136157200D02*
X123023571Y-136204819D01*
X123023571Y-136204819D02*
X123214047Y-136204819D01*
X123214047Y-136204819D02*
X123309285Y-136157200D01*
X123309285Y-136157200D02*
X123356904Y-136109580D01*
X123356904Y-136109580D02*
X123404523Y-136014342D01*
X123404523Y-136014342D02*
X123404523Y-135204819D01*
X123833095Y-135300057D02*
X123880714Y-135252438D01*
X123880714Y-135252438D02*
X123975952Y-135204819D01*
X123975952Y-135204819D02*
X124214047Y-135204819D01*
X124214047Y-135204819D02*
X124309285Y-135252438D01*
X124309285Y-135252438D02*
X124356904Y-135300057D01*
X124356904Y-135300057D02*
X124404523Y-135395295D01*
X124404523Y-135395295D02*
X124404523Y-135490533D01*
X124404523Y-135490533D02*
X124356904Y-135633390D01*
X124356904Y-135633390D02*
X123785476Y-136204819D01*
X123785476Y-136204819D02*
X124404523Y-136204819D01*
X72309523Y-155884819D02*
X71738095Y-155884819D01*
X72023809Y-155884819D02*
X72023809Y-154884819D01*
X72023809Y-154884819D02*
X71928571Y-155027676D01*
X71928571Y-155027676D02*
X71833333Y-155122914D01*
X71833333Y-155122914D02*
X71738095Y-155170533D01*
X72928571Y-154884819D02*
X73023809Y-154884819D01*
X73023809Y-154884819D02*
X73119047Y-154932438D01*
X73119047Y-154932438D02*
X73166666Y-154980057D01*
X73166666Y-154980057D02*
X73214285Y-155075295D01*
X73214285Y-155075295D02*
X73261904Y-155265771D01*
X73261904Y-155265771D02*
X73261904Y-155503866D01*
X73261904Y-155503866D02*
X73214285Y-155694342D01*
X73214285Y-155694342D02*
X73166666Y-155789580D01*
X73166666Y-155789580D02*
X73119047Y-155837200D01*
X73119047Y-155837200D02*
X73023809Y-155884819D01*
X73023809Y-155884819D02*
X72928571Y-155884819D01*
X72928571Y-155884819D02*
X72833333Y-155837200D01*
X72833333Y-155837200D02*
X72785714Y-155789580D01*
X72785714Y-155789580D02*
X72738095Y-155694342D01*
X72738095Y-155694342D02*
X72690476Y-155503866D01*
X72690476Y-155503866D02*
X72690476Y-155265771D01*
X72690476Y-155265771D02*
X72738095Y-155075295D01*
X72738095Y-155075295D02*
X72785714Y-154980057D01*
X72785714Y-154980057D02*
X72833333Y-154932438D01*
X72833333Y-154932438D02*
X72928571Y-154884819D01*
X73690476Y-155884819D02*
X73690476Y-154884819D01*
X74261904Y-155884819D02*
X73833333Y-155313390D01*
X74261904Y-154884819D02*
X73690476Y-155456247D01*
D11*
X72742857Y-154181927D02*
X72609524Y-153991451D01*
X72514286Y-154181927D02*
X72514286Y-153781927D01*
X72514286Y-153781927D02*
X72666667Y-153781927D01*
X72666667Y-153781927D02*
X72704762Y-153800975D01*
X72704762Y-153800975D02*
X72723809Y-153820022D01*
X72723809Y-153820022D02*
X72742857Y-153858118D01*
X72742857Y-153858118D02*
X72742857Y-153915260D01*
X72742857Y-153915260D02*
X72723809Y-153953356D01*
X72723809Y-153953356D02*
X72704762Y-153972403D01*
X72704762Y-153972403D02*
X72666667Y-153991451D01*
X72666667Y-153991451D02*
X72514286Y-153991451D01*
X73123809Y-154181927D02*
X72895238Y-154181927D01*
X73009524Y-154181927D02*
X73009524Y-153781927D01*
X73009524Y-153781927D02*
X72971428Y-153839070D01*
X72971428Y-153839070D02*
X72933333Y-153877165D01*
X72933333Y-153877165D02*
X72895238Y-153896213D01*
X73504761Y-154181927D02*
X73276190Y-154181927D01*
X73390476Y-154181927D02*
X73390476Y-153781927D01*
X73390476Y-153781927D02*
X73352380Y-153839070D01*
X73352380Y-153839070D02*
X73314285Y-153877165D01*
X73314285Y-153877165D02*
X73276190Y-153896213D01*
D10*
X128619048Y-116050057D02*
X128666667Y-116002438D01*
X128666667Y-116002438D02*
X128761905Y-115954819D01*
X128761905Y-115954819D02*
X129000000Y-115954819D01*
X129000000Y-115954819D02*
X129095238Y-116002438D01*
X129095238Y-116002438D02*
X129142857Y-116050057D01*
X129142857Y-116050057D02*
X129190476Y-116145295D01*
X129190476Y-116145295D02*
X129190476Y-116240533D01*
X129190476Y-116240533D02*
X129142857Y-116383390D01*
X129142857Y-116383390D02*
X128571429Y-116954819D01*
X128571429Y-116954819D02*
X129190476Y-116954819D01*
X129619048Y-116859580D02*
X129666667Y-116907200D01*
X129666667Y-116907200D02*
X129619048Y-116954819D01*
X129619048Y-116954819D02*
X129571429Y-116907200D01*
X129571429Y-116907200D02*
X129619048Y-116859580D01*
X129619048Y-116859580D02*
X129619048Y-116954819D01*
X130000000Y-115954819D02*
X130666666Y-115954819D01*
X130666666Y-115954819D02*
X130238095Y-116954819D01*
X131047619Y-116288152D02*
X131047619Y-116954819D01*
X131047619Y-116383390D02*
X131095238Y-116335771D01*
X131095238Y-116335771D02*
X131190476Y-116288152D01*
X131190476Y-116288152D02*
X131333333Y-116288152D01*
X131333333Y-116288152D02*
X131428571Y-116335771D01*
X131428571Y-116335771D02*
X131476190Y-116431009D01*
X131476190Y-116431009D02*
X131476190Y-116954819D01*
X132285714Y-116431009D02*
X131952381Y-116431009D01*
X131952381Y-116954819D02*
X131952381Y-115954819D01*
X131952381Y-115954819D02*
X132428571Y-115954819D01*
D11*
X127033333Y-118143832D02*
X127014285Y-118162880D01*
X127014285Y-118162880D02*
X126957143Y-118181927D01*
X126957143Y-118181927D02*
X126919047Y-118181927D01*
X126919047Y-118181927D02*
X126861904Y-118162880D01*
X126861904Y-118162880D02*
X126823809Y-118124784D01*
X126823809Y-118124784D02*
X126804762Y-118086689D01*
X126804762Y-118086689D02*
X126785714Y-118010499D01*
X126785714Y-118010499D02*
X126785714Y-117953356D01*
X126785714Y-117953356D02*
X126804762Y-117877165D01*
X126804762Y-117877165D02*
X126823809Y-117839070D01*
X126823809Y-117839070D02*
X126861904Y-117800975D01*
X126861904Y-117800975D02*
X126919047Y-117781927D01*
X126919047Y-117781927D02*
X126957143Y-117781927D01*
X126957143Y-117781927D02*
X127014285Y-117800975D01*
X127014285Y-117800975D02*
X127033333Y-117820022D01*
X127376190Y-117915260D02*
X127376190Y-118181927D01*
X127280952Y-117762880D02*
X127185714Y-118048594D01*
X127185714Y-118048594D02*
X127433333Y-118048594D01*
D10*
X72309523Y-153384819D02*
X71738095Y-153384819D01*
X72023809Y-153384819D02*
X72023809Y-152384819D01*
X72023809Y-152384819D02*
X71928571Y-152527676D01*
X71928571Y-152527676D02*
X71833333Y-152622914D01*
X71833333Y-152622914D02*
X71738095Y-152670533D01*
X72928571Y-152384819D02*
X73023809Y-152384819D01*
X73023809Y-152384819D02*
X73119047Y-152432438D01*
X73119047Y-152432438D02*
X73166666Y-152480057D01*
X73166666Y-152480057D02*
X73214285Y-152575295D01*
X73214285Y-152575295D02*
X73261904Y-152765771D01*
X73261904Y-152765771D02*
X73261904Y-153003866D01*
X73261904Y-153003866D02*
X73214285Y-153194342D01*
X73214285Y-153194342D02*
X73166666Y-153289580D01*
X73166666Y-153289580D02*
X73119047Y-153337200D01*
X73119047Y-153337200D02*
X73023809Y-153384819D01*
X73023809Y-153384819D02*
X72928571Y-153384819D01*
X72928571Y-153384819D02*
X72833333Y-153337200D01*
X72833333Y-153337200D02*
X72785714Y-153289580D01*
X72785714Y-153289580D02*
X72738095Y-153194342D01*
X72738095Y-153194342D02*
X72690476Y-153003866D01*
X72690476Y-153003866D02*
X72690476Y-152765771D01*
X72690476Y-152765771D02*
X72738095Y-152575295D01*
X72738095Y-152575295D02*
X72785714Y-152480057D01*
X72785714Y-152480057D02*
X72833333Y-152432438D01*
X72833333Y-152432438D02*
X72928571Y-152384819D01*
X73690476Y-153384819D02*
X73690476Y-152384819D01*
X74261904Y-153384819D02*
X73833333Y-152813390D01*
X74261904Y-152384819D02*
X73690476Y-152956247D01*
D11*
X72933333Y-151681927D02*
X72800000Y-151491451D01*
X72704762Y-151681927D02*
X72704762Y-151281927D01*
X72704762Y-151281927D02*
X72857143Y-151281927D01*
X72857143Y-151281927D02*
X72895238Y-151300975D01*
X72895238Y-151300975D02*
X72914285Y-151320022D01*
X72914285Y-151320022D02*
X72933333Y-151358118D01*
X72933333Y-151358118D02*
X72933333Y-151415260D01*
X72933333Y-151415260D02*
X72914285Y-151453356D01*
X72914285Y-151453356D02*
X72895238Y-151472403D01*
X72895238Y-151472403D02*
X72857143Y-151491451D01*
X72857143Y-151491451D02*
X72704762Y-151491451D01*
X73066666Y-151281927D02*
X73333333Y-151281927D01*
X73333333Y-151281927D02*
X73161904Y-151681927D01*
D10*
X142733333Y-122479819D02*
X142161905Y-122479819D01*
X142447619Y-122479819D02*
X142447619Y-121479819D01*
X142447619Y-121479819D02*
X142352381Y-121622676D01*
X142352381Y-121622676D02*
X142257143Y-121717914D01*
X142257143Y-121717914D02*
X142161905Y-121765533D01*
X143352381Y-121479819D02*
X143447619Y-121479819D01*
X143447619Y-121479819D02*
X143542857Y-121527438D01*
X143542857Y-121527438D02*
X143590476Y-121575057D01*
X143590476Y-121575057D02*
X143638095Y-121670295D01*
X143638095Y-121670295D02*
X143685714Y-121860771D01*
X143685714Y-121860771D02*
X143685714Y-122098866D01*
X143685714Y-122098866D02*
X143638095Y-122289342D01*
X143638095Y-122289342D02*
X143590476Y-122384580D01*
X143590476Y-122384580D02*
X143542857Y-122432200D01*
X143542857Y-122432200D02*
X143447619Y-122479819D01*
X143447619Y-122479819D02*
X143352381Y-122479819D01*
X143352381Y-122479819D02*
X143257143Y-122432200D01*
X143257143Y-122432200D02*
X143209524Y-122384580D01*
X143209524Y-122384580D02*
X143161905Y-122289342D01*
X143161905Y-122289342D02*
X143114286Y-122098866D01*
X143114286Y-122098866D02*
X143114286Y-121860771D01*
X143114286Y-121860771D02*
X143161905Y-121670295D01*
X143161905Y-121670295D02*
X143209524Y-121575057D01*
X143209524Y-121575057D02*
X143257143Y-121527438D01*
X143257143Y-121527438D02*
X143352381Y-121479819D01*
X144304762Y-121479819D02*
X144400000Y-121479819D01*
X144400000Y-121479819D02*
X144495238Y-121527438D01*
X144495238Y-121527438D02*
X144542857Y-121575057D01*
X144542857Y-121575057D02*
X144590476Y-121670295D01*
X144590476Y-121670295D02*
X144638095Y-121860771D01*
X144638095Y-121860771D02*
X144638095Y-122098866D01*
X144638095Y-122098866D02*
X144590476Y-122289342D01*
X144590476Y-122289342D02*
X144542857Y-122384580D01*
X144542857Y-122384580D02*
X144495238Y-122432200D01*
X144495238Y-122432200D02*
X144400000Y-122479819D01*
X144400000Y-122479819D02*
X144304762Y-122479819D01*
X144304762Y-122479819D02*
X144209524Y-122432200D01*
X144209524Y-122432200D02*
X144161905Y-122384580D01*
X144161905Y-122384580D02*
X144114286Y-122289342D01*
X144114286Y-122289342D02*
X144066667Y-122098866D01*
X144066667Y-122098866D02*
X144066667Y-121860771D01*
X144066667Y-121860771D02*
X144114286Y-121670295D01*
X144114286Y-121670295D02*
X144161905Y-121575057D01*
X144161905Y-121575057D02*
X144209524Y-121527438D01*
X144209524Y-121527438D02*
X144304762Y-121479819D01*
D11*
X143333333Y-120776927D02*
X143200000Y-120586451D01*
X143104762Y-120776927D02*
X143104762Y-120376927D01*
X143104762Y-120376927D02*
X143257143Y-120376927D01*
X143257143Y-120376927D02*
X143295238Y-120395975D01*
X143295238Y-120395975D02*
X143314285Y-120415022D01*
X143314285Y-120415022D02*
X143333333Y-120453118D01*
X143333333Y-120453118D02*
X143333333Y-120510260D01*
X143333333Y-120510260D02*
X143314285Y-120548356D01*
X143314285Y-120548356D02*
X143295238Y-120567403D01*
X143295238Y-120567403D02*
X143257143Y-120586451D01*
X143257143Y-120586451D02*
X143104762Y-120586451D01*
X143466666Y-120376927D02*
X143714285Y-120376927D01*
X143714285Y-120376927D02*
X143580952Y-120529308D01*
X143580952Y-120529308D02*
X143638095Y-120529308D01*
X143638095Y-120529308D02*
X143676190Y-120548356D01*
X143676190Y-120548356D02*
X143695238Y-120567403D01*
X143695238Y-120567403D02*
X143714285Y-120605499D01*
X143714285Y-120605499D02*
X143714285Y-120700737D01*
X143714285Y-120700737D02*
X143695238Y-120738832D01*
X143695238Y-120738832D02*
X143676190Y-120757880D01*
X143676190Y-120757880D02*
X143638095Y-120776927D01*
X143638095Y-120776927D02*
X143523809Y-120776927D01*
X143523809Y-120776927D02*
X143485714Y-120757880D01*
X143485714Y-120757880D02*
X143466666Y-120738832D01*
D10*
X127190476Y-129454819D02*
X127809523Y-129454819D01*
X127809523Y-129454819D02*
X127476190Y-129835771D01*
X127476190Y-129835771D02*
X127619047Y-129835771D01*
X127619047Y-129835771D02*
X127714285Y-129883390D01*
X127714285Y-129883390D02*
X127761904Y-129931009D01*
X127761904Y-129931009D02*
X127809523Y-130026247D01*
X127809523Y-130026247D02*
X127809523Y-130264342D01*
X127809523Y-130264342D02*
X127761904Y-130359580D01*
X127761904Y-130359580D02*
X127714285Y-130407200D01*
X127714285Y-130407200D02*
X127619047Y-130454819D01*
X127619047Y-130454819D02*
X127333333Y-130454819D01*
X127333333Y-130454819D02*
X127238095Y-130407200D01*
X127238095Y-130407200D02*
X127190476Y-130359580D01*
X128142857Y-129454819D02*
X128761904Y-129454819D01*
X128761904Y-129454819D02*
X128428571Y-129835771D01*
X128428571Y-129835771D02*
X128571428Y-129835771D01*
X128571428Y-129835771D02*
X128666666Y-129883390D01*
X128666666Y-129883390D02*
X128714285Y-129931009D01*
X128714285Y-129931009D02*
X128761904Y-130026247D01*
X128761904Y-130026247D02*
X128761904Y-130264342D01*
X128761904Y-130264342D02*
X128714285Y-130359580D01*
X128714285Y-130359580D02*
X128666666Y-130407200D01*
X128666666Y-130407200D02*
X128571428Y-130454819D01*
X128571428Y-130454819D02*
X128285714Y-130454819D01*
X128285714Y-130454819D02*
X128190476Y-130407200D01*
X128190476Y-130407200D02*
X128142857Y-130359580D01*
D11*
X126081927Y-128766666D02*
X125891451Y-128899999D01*
X126081927Y-128995237D02*
X125681927Y-128995237D01*
X125681927Y-128995237D02*
X125681927Y-128842856D01*
X125681927Y-128842856D02*
X125700975Y-128804761D01*
X125700975Y-128804761D02*
X125720022Y-128785714D01*
X125720022Y-128785714D02*
X125758118Y-128766666D01*
X125758118Y-128766666D02*
X125815260Y-128766666D01*
X125815260Y-128766666D02*
X125853356Y-128785714D01*
X125853356Y-128785714D02*
X125872403Y-128804761D01*
X125872403Y-128804761D02*
X125891451Y-128842856D01*
X125891451Y-128842856D02*
X125891451Y-128995237D01*
X126081927Y-128385714D02*
X126081927Y-128614285D01*
X126081927Y-128499999D02*
X125681927Y-128499999D01*
X125681927Y-128499999D02*
X125739070Y-128538095D01*
X125739070Y-128538095D02*
X125777165Y-128576190D01*
X125777165Y-128576190D02*
X125796213Y-128614285D01*
D10*
X142733333Y-132479819D02*
X142161905Y-132479819D01*
X142447619Y-132479819D02*
X142447619Y-131479819D01*
X142447619Y-131479819D02*
X142352381Y-131622676D01*
X142352381Y-131622676D02*
X142257143Y-131717914D01*
X142257143Y-131717914D02*
X142161905Y-131765533D01*
X143352381Y-131479819D02*
X143447619Y-131479819D01*
X143447619Y-131479819D02*
X143542857Y-131527438D01*
X143542857Y-131527438D02*
X143590476Y-131575057D01*
X143590476Y-131575057D02*
X143638095Y-131670295D01*
X143638095Y-131670295D02*
X143685714Y-131860771D01*
X143685714Y-131860771D02*
X143685714Y-132098866D01*
X143685714Y-132098866D02*
X143638095Y-132289342D01*
X143638095Y-132289342D02*
X143590476Y-132384580D01*
X143590476Y-132384580D02*
X143542857Y-132432200D01*
X143542857Y-132432200D02*
X143447619Y-132479819D01*
X143447619Y-132479819D02*
X143352381Y-132479819D01*
X143352381Y-132479819D02*
X143257143Y-132432200D01*
X143257143Y-132432200D02*
X143209524Y-132384580D01*
X143209524Y-132384580D02*
X143161905Y-132289342D01*
X143161905Y-132289342D02*
X143114286Y-132098866D01*
X143114286Y-132098866D02*
X143114286Y-131860771D01*
X143114286Y-131860771D02*
X143161905Y-131670295D01*
X143161905Y-131670295D02*
X143209524Y-131575057D01*
X143209524Y-131575057D02*
X143257143Y-131527438D01*
X143257143Y-131527438D02*
X143352381Y-131479819D01*
X144304762Y-131479819D02*
X144400000Y-131479819D01*
X144400000Y-131479819D02*
X144495238Y-131527438D01*
X144495238Y-131527438D02*
X144542857Y-131575057D01*
X144542857Y-131575057D02*
X144590476Y-131670295D01*
X144590476Y-131670295D02*
X144638095Y-131860771D01*
X144638095Y-131860771D02*
X144638095Y-132098866D01*
X144638095Y-132098866D02*
X144590476Y-132289342D01*
X144590476Y-132289342D02*
X144542857Y-132384580D01*
X144542857Y-132384580D02*
X144495238Y-132432200D01*
X144495238Y-132432200D02*
X144400000Y-132479819D01*
X144400000Y-132479819D02*
X144304762Y-132479819D01*
X144304762Y-132479819D02*
X144209524Y-132432200D01*
X144209524Y-132432200D02*
X144161905Y-132384580D01*
X144161905Y-132384580D02*
X144114286Y-132289342D01*
X144114286Y-132289342D02*
X144066667Y-132098866D01*
X144066667Y-132098866D02*
X144066667Y-131860771D01*
X144066667Y-131860771D02*
X144114286Y-131670295D01*
X144114286Y-131670295D02*
X144161905Y-131575057D01*
X144161905Y-131575057D02*
X144209524Y-131527438D01*
X144209524Y-131527438D02*
X144304762Y-131479819D01*
D11*
X143333333Y-130776927D02*
X143200000Y-130586451D01*
X143104762Y-130776927D02*
X143104762Y-130376927D01*
X143104762Y-130376927D02*
X143257143Y-130376927D01*
X143257143Y-130376927D02*
X143295238Y-130395975D01*
X143295238Y-130395975D02*
X143314285Y-130415022D01*
X143314285Y-130415022D02*
X143333333Y-130453118D01*
X143333333Y-130453118D02*
X143333333Y-130510260D01*
X143333333Y-130510260D02*
X143314285Y-130548356D01*
X143314285Y-130548356D02*
X143295238Y-130567403D01*
X143295238Y-130567403D02*
X143257143Y-130586451D01*
X143257143Y-130586451D02*
X143104762Y-130586451D01*
X143676190Y-130510260D02*
X143676190Y-130776927D01*
X143580952Y-130357880D02*
X143485714Y-130643594D01*
X143485714Y-130643594D02*
X143733333Y-130643594D01*
D10*
X72309523Y-148384819D02*
X71738095Y-148384819D01*
X72023809Y-148384819D02*
X72023809Y-147384819D01*
X72023809Y-147384819D02*
X71928571Y-147527676D01*
X71928571Y-147527676D02*
X71833333Y-147622914D01*
X71833333Y-147622914D02*
X71738095Y-147670533D01*
X72928571Y-147384819D02*
X73023809Y-147384819D01*
X73023809Y-147384819D02*
X73119047Y-147432438D01*
X73119047Y-147432438D02*
X73166666Y-147480057D01*
X73166666Y-147480057D02*
X73214285Y-147575295D01*
X73214285Y-147575295D02*
X73261904Y-147765771D01*
X73261904Y-147765771D02*
X73261904Y-148003866D01*
X73261904Y-148003866D02*
X73214285Y-148194342D01*
X73214285Y-148194342D02*
X73166666Y-148289580D01*
X73166666Y-148289580D02*
X73119047Y-148337200D01*
X73119047Y-148337200D02*
X73023809Y-148384819D01*
X73023809Y-148384819D02*
X72928571Y-148384819D01*
X72928571Y-148384819D02*
X72833333Y-148337200D01*
X72833333Y-148337200D02*
X72785714Y-148289580D01*
X72785714Y-148289580D02*
X72738095Y-148194342D01*
X72738095Y-148194342D02*
X72690476Y-148003866D01*
X72690476Y-148003866D02*
X72690476Y-147765771D01*
X72690476Y-147765771D02*
X72738095Y-147575295D01*
X72738095Y-147575295D02*
X72785714Y-147480057D01*
X72785714Y-147480057D02*
X72833333Y-147432438D01*
X72833333Y-147432438D02*
X72928571Y-147384819D01*
X73690476Y-148384819D02*
X73690476Y-147384819D01*
X74261904Y-148384819D02*
X73833333Y-147813390D01*
X74261904Y-147384819D02*
X73690476Y-147956247D01*
D11*
X72742857Y-146681927D02*
X72609524Y-146491451D01*
X72514286Y-146681927D02*
X72514286Y-146281927D01*
X72514286Y-146281927D02*
X72666667Y-146281927D01*
X72666667Y-146281927D02*
X72704762Y-146300975D01*
X72704762Y-146300975D02*
X72723809Y-146320022D01*
X72723809Y-146320022D02*
X72742857Y-146358118D01*
X72742857Y-146358118D02*
X72742857Y-146415260D01*
X72742857Y-146415260D02*
X72723809Y-146453356D01*
X72723809Y-146453356D02*
X72704762Y-146472403D01*
X72704762Y-146472403D02*
X72666667Y-146491451D01*
X72666667Y-146491451D02*
X72514286Y-146491451D01*
X73123809Y-146681927D02*
X72895238Y-146681927D01*
X73009524Y-146681927D02*
X73009524Y-146281927D01*
X73009524Y-146281927D02*
X72971428Y-146339070D01*
X72971428Y-146339070D02*
X72933333Y-146377165D01*
X72933333Y-146377165D02*
X72895238Y-146396213D01*
X73371428Y-146281927D02*
X73409523Y-146281927D01*
X73409523Y-146281927D02*
X73447619Y-146300975D01*
X73447619Y-146300975D02*
X73466666Y-146320022D01*
X73466666Y-146320022D02*
X73485714Y-146358118D01*
X73485714Y-146358118D02*
X73504761Y-146434308D01*
X73504761Y-146434308D02*
X73504761Y-146529546D01*
X73504761Y-146529546D02*
X73485714Y-146605737D01*
X73485714Y-146605737D02*
X73466666Y-146643832D01*
X73466666Y-146643832D02*
X73447619Y-146662880D01*
X73447619Y-146662880D02*
X73409523Y-146681927D01*
X73409523Y-146681927D02*
X73371428Y-146681927D01*
X73371428Y-146681927D02*
X73333333Y-146662880D01*
X73333333Y-146662880D02*
X73314285Y-146643832D01*
X73314285Y-146643832D02*
X73295238Y-146605737D01*
X73295238Y-146605737D02*
X73276190Y-146529546D01*
X73276190Y-146529546D02*
X73276190Y-146434308D01*
X73276190Y-146434308D02*
X73295238Y-146358118D01*
X73295238Y-146358118D02*
X73314285Y-146320022D01*
X73314285Y-146320022D02*
X73333333Y-146300975D01*
X73333333Y-146300975D02*
X73371428Y-146281927D01*
D10*
X72309523Y-143384819D02*
X71738095Y-143384819D01*
X72023809Y-143384819D02*
X72023809Y-142384819D01*
X72023809Y-142384819D02*
X71928571Y-142527676D01*
X71928571Y-142527676D02*
X71833333Y-142622914D01*
X71833333Y-142622914D02*
X71738095Y-142670533D01*
X72928571Y-142384819D02*
X73023809Y-142384819D01*
X73023809Y-142384819D02*
X73119047Y-142432438D01*
X73119047Y-142432438D02*
X73166666Y-142480057D01*
X73166666Y-142480057D02*
X73214285Y-142575295D01*
X73214285Y-142575295D02*
X73261904Y-142765771D01*
X73261904Y-142765771D02*
X73261904Y-143003866D01*
X73261904Y-143003866D02*
X73214285Y-143194342D01*
X73214285Y-143194342D02*
X73166666Y-143289580D01*
X73166666Y-143289580D02*
X73119047Y-143337200D01*
X73119047Y-143337200D02*
X73023809Y-143384819D01*
X73023809Y-143384819D02*
X72928571Y-143384819D01*
X72928571Y-143384819D02*
X72833333Y-143337200D01*
X72833333Y-143337200D02*
X72785714Y-143289580D01*
X72785714Y-143289580D02*
X72738095Y-143194342D01*
X72738095Y-143194342D02*
X72690476Y-143003866D01*
X72690476Y-143003866D02*
X72690476Y-142765771D01*
X72690476Y-142765771D02*
X72738095Y-142575295D01*
X72738095Y-142575295D02*
X72785714Y-142480057D01*
X72785714Y-142480057D02*
X72833333Y-142432438D01*
X72833333Y-142432438D02*
X72928571Y-142384819D01*
X73690476Y-143384819D02*
X73690476Y-142384819D01*
X74261904Y-143384819D02*
X73833333Y-142813390D01*
X74261904Y-142384819D02*
X73690476Y-142956247D01*
D11*
X72933333Y-141681927D02*
X72800000Y-141491451D01*
X72704762Y-141681927D02*
X72704762Y-141281927D01*
X72704762Y-141281927D02*
X72857143Y-141281927D01*
X72857143Y-141281927D02*
X72895238Y-141300975D01*
X72895238Y-141300975D02*
X72914285Y-141320022D01*
X72914285Y-141320022D02*
X72933333Y-141358118D01*
X72933333Y-141358118D02*
X72933333Y-141415260D01*
X72933333Y-141415260D02*
X72914285Y-141453356D01*
X72914285Y-141453356D02*
X72895238Y-141472403D01*
X72895238Y-141472403D02*
X72857143Y-141491451D01*
X72857143Y-141491451D02*
X72704762Y-141491451D01*
X73123809Y-141681927D02*
X73200000Y-141681927D01*
X73200000Y-141681927D02*
X73238095Y-141662880D01*
X73238095Y-141662880D02*
X73257143Y-141643832D01*
X73257143Y-141643832D02*
X73295238Y-141586689D01*
X73295238Y-141586689D02*
X73314285Y-141510499D01*
X73314285Y-141510499D02*
X73314285Y-141358118D01*
X73314285Y-141358118D02*
X73295238Y-141320022D01*
X73295238Y-141320022D02*
X73276190Y-141300975D01*
X73276190Y-141300975D02*
X73238095Y-141281927D01*
X73238095Y-141281927D02*
X73161904Y-141281927D01*
X73161904Y-141281927D02*
X73123809Y-141300975D01*
X73123809Y-141300975D02*
X73104762Y-141320022D01*
X73104762Y-141320022D02*
X73085714Y-141358118D01*
X73085714Y-141358118D02*
X73085714Y-141453356D01*
X73085714Y-141453356D02*
X73104762Y-141491451D01*
X73104762Y-141491451D02*
X73123809Y-141510499D01*
X73123809Y-141510499D02*
X73161904Y-141529546D01*
X73161904Y-141529546D02*
X73238095Y-141529546D01*
X73238095Y-141529546D02*
X73276190Y-141510499D01*
X73276190Y-141510499D02*
X73295238Y-141491451D01*
X73295238Y-141491451D02*
X73314285Y-141453356D01*
D10*
X116619048Y-117550057D02*
X116666667Y-117502438D01*
X116666667Y-117502438D02*
X116761905Y-117454819D01*
X116761905Y-117454819D02*
X117000000Y-117454819D01*
X117000000Y-117454819D02*
X117095238Y-117502438D01*
X117095238Y-117502438D02*
X117142857Y-117550057D01*
X117142857Y-117550057D02*
X117190476Y-117645295D01*
X117190476Y-117645295D02*
X117190476Y-117740533D01*
X117190476Y-117740533D02*
X117142857Y-117883390D01*
X117142857Y-117883390D02*
X116571429Y-118454819D01*
X116571429Y-118454819D02*
X117190476Y-118454819D01*
X117619048Y-118359580D02*
X117666667Y-118407200D01*
X117666667Y-118407200D02*
X117619048Y-118454819D01*
X117619048Y-118454819D02*
X117571429Y-118407200D01*
X117571429Y-118407200D02*
X117619048Y-118359580D01*
X117619048Y-118359580D02*
X117619048Y-118454819D01*
X118000000Y-117454819D02*
X118666666Y-117454819D01*
X118666666Y-117454819D02*
X118238095Y-118454819D01*
X119047619Y-117788152D02*
X119047619Y-118454819D01*
X119047619Y-117883390D02*
X119095238Y-117835771D01*
X119095238Y-117835771D02*
X119190476Y-117788152D01*
X119190476Y-117788152D02*
X119333333Y-117788152D01*
X119333333Y-117788152D02*
X119428571Y-117835771D01*
X119428571Y-117835771D02*
X119476190Y-117931009D01*
X119476190Y-117931009D02*
X119476190Y-118454819D01*
X120285714Y-117931009D02*
X119952381Y-117931009D01*
X119952381Y-118454819D02*
X119952381Y-117454819D01*
X119952381Y-117454819D02*
X120428571Y-117454819D01*
D11*
X123158333Y-118143832D02*
X123139285Y-118162880D01*
X123139285Y-118162880D02*
X123082143Y-118181927D01*
X123082143Y-118181927D02*
X123044047Y-118181927D01*
X123044047Y-118181927D02*
X122986904Y-118162880D01*
X122986904Y-118162880D02*
X122948809Y-118124784D01*
X122948809Y-118124784D02*
X122929762Y-118086689D01*
X122929762Y-118086689D02*
X122910714Y-118010499D01*
X122910714Y-118010499D02*
X122910714Y-117953356D01*
X122910714Y-117953356D02*
X122929762Y-117877165D01*
X122929762Y-117877165D02*
X122948809Y-117839070D01*
X122948809Y-117839070D02*
X122986904Y-117800975D01*
X122986904Y-117800975D02*
X123044047Y-117781927D01*
X123044047Y-117781927D02*
X123082143Y-117781927D01*
X123082143Y-117781927D02*
X123139285Y-117800975D01*
X123139285Y-117800975D02*
X123158333Y-117820022D01*
X123291666Y-117781927D02*
X123539285Y-117781927D01*
X123539285Y-117781927D02*
X123405952Y-117934308D01*
X123405952Y-117934308D02*
X123463095Y-117934308D01*
X123463095Y-117934308D02*
X123501190Y-117953356D01*
X123501190Y-117953356D02*
X123520238Y-117972403D01*
X123520238Y-117972403D02*
X123539285Y-118010499D01*
X123539285Y-118010499D02*
X123539285Y-118105737D01*
X123539285Y-118105737D02*
X123520238Y-118143832D01*
X123520238Y-118143832D02*
X123501190Y-118162880D01*
X123501190Y-118162880D02*
X123463095Y-118181927D01*
X123463095Y-118181927D02*
X123348809Y-118181927D01*
X123348809Y-118181927D02*
X123310714Y-118162880D01*
X123310714Y-118162880D02*
X123291666Y-118143832D01*
D10*
X72309523Y-145884819D02*
X71738095Y-145884819D01*
X72023809Y-145884819D02*
X72023809Y-144884819D01*
X72023809Y-144884819D02*
X71928571Y-145027676D01*
X71928571Y-145027676D02*
X71833333Y-145122914D01*
X71833333Y-145122914D02*
X71738095Y-145170533D01*
X72928571Y-144884819D02*
X73023809Y-144884819D01*
X73023809Y-144884819D02*
X73119047Y-144932438D01*
X73119047Y-144932438D02*
X73166666Y-144980057D01*
X73166666Y-144980057D02*
X73214285Y-145075295D01*
X73214285Y-145075295D02*
X73261904Y-145265771D01*
X73261904Y-145265771D02*
X73261904Y-145503866D01*
X73261904Y-145503866D02*
X73214285Y-145694342D01*
X73214285Y-145694342D02*
X73166666Y-145789580D01*
X73166666Y-145789580D02*
X73119047Y-145837200D01*
X73119047Y-145837200D02*
X73023809Y-145884819D01*
X73023809Y-145884819D02*
X72928571Y-145884819D01*
X72928571Y-145884819D02*
X72833333Y-145837200D01*
X72833333Y-145837200D02*
X72785714Y-145789580D01*
X72785714Y-145789580D02*
X72738095Y-145694342D01*
X72738095Y-145694342D02*
X72690476Y-145503866D01*
X72690476Y-145503866D02*
X72690476Y-145265771D01*
X72690476Y-145265771D02*
X72738095Y-145075295D01*
X72738095Y-145075295D02*
X72785714Y-144980057D01*
X72785714Y-144980057D02*
X72833333Y-144932438D01*
X72833333Y-144932438D02*
X72928571Y-144884819D01*
X73690476Y-145884819D02*
X73690476Y-144884819D01*
X74261904Y-145884819D02*
X73833333Y-145313390D01*
X74261904Y-144884819D02*
X73690476Y-145456247D01*
D11*
X72933333Y-144181927D02*
X72800000Y-143991451D01*
X72704762Y-144181927D02*
X72704762Y-143781927D01*
X72704762Y-143781927D02*
X72857143Y-143781927D01*
X72857143Y-143781927D02*
X72895238Y-143800975D01*
X72895238Y-143800975D02*
X72914285Y-143820022D01*
X72914285Y-143820022D02*
X72933333Y-143858118D01*
X72933333Y-143858118D02*
X72933333Y-143915260D01*
X72933333Y-143915260D02*
X72914285Y-143953356D01*
X72914285Y-143953356D02*
X72895238Y-143972403D01*
X72895238Y-143972403D02*
X72857143Y-143991451D01*
X72857143Y-143991451D02*
X72704762Y-143991451D01*
X73161904Y-143953356D02*
X73123809Y-143934308D01*
X73123809Y-143934308D02*
X73104762Y-143915260D01*
X73104762Y-143915260D02*
X73085714Y-143877165D01*
X73085714Y-143877165D02*
X73085714Y-143858118D01*
X73085714Y-143858118D02*
X73104762Y-143820022D01*
X73104762Y-143820022D02*
X73123809Y-143800975D01*
X73123809Y-143800975D02*
X73161904Y-143781927D01*
X73161904Y-143781927D02*
X73238095Y-143781927D01*
X73238095Y-143781927D02*
X73276190Y-143800975D01*
X73276190Y-143800975D02*
X73295238Y-143820022D01*
X73295238Y-143820022D02*
X73314285Y-143858118D01*
X73314285Y-143858118D02*
X73314285Y-143877165D01*
X73314285Y-143877165D02*
X73295238Y-143915260D01*
X73295238Y-143915260D02*
X73276190Y-143934308D01*
X73276190Y-143934308D02*
X73238095Y-143953356D01*
X73238095Y-143953356D02*
X73161904Y-143953356D01*
X73161904Y-143953356D02*
X73123809Y-143972403D01*
X73123809Y-143972403D02*
X73104762Y-143991451D01*
X73104762Y-143991451D02*
X73085714Y-144029546D01*
X73085714Y-144029546D02*
X73085714Y-144105737D01*
X73085714Y-144105737D02*
X73104762Y-144143832D01*
X73104762Y-144143832D02*
X73123809Y-144162880D01*
X73123809Y-144162880D02*
X73161904Y-144181927D01*
X73161904Y-144181927D02*
X73238095Y-144181927D01*
X73238095Y-144181927D02*
X73276190Y-144162880D01*
X73276190Y-144162880D02*
X73295238Y-144143832D01*
X73295238Y-144143832D02*
X73314285Y-144105737D01*
X73314285Y-144105737D02*
X73314285Y-144029546D01*
X73314285Y-144029546D02*
X73295238Y-143991451D01*
X73295238Y-143991451D02*
X73276190Y-143972403D01*
X73276190Y-143972403D02*
X73238095Y-143953356D01*
D10*
X128234819Y-125156069D02*
X128234819Y-124584641D01*
X129234819Y-124870355D02*
X128234819Y-124870355D01*
X129234819Y-123775117D02*
X129234819Y-124251307D01*
X129234819Y-124251307D02*
X128234819Y-124251307D01*
X128234819Y-123251307D02*
X128234819Y-123156069D01*
X128234819Y-123156069D02*
X128282438Y-123060831D01*
X128282438Y-123060831D02*
X128330057Y-123013212D01*
X128330057Y-123013212D02*
X128425295Y-122965593D01*
X128425295Y-122965593D02*
X128615771Y-122917974D01*
X128615771Y-122917974D02*
X128853866Y-122917974D01*
X128853866Y-122917974D02*
X129044342Y-122965593D01*
X129044342Y-122965593D02*
X129139580Y-123013212D01*
X129139580Y-123013212D02*
X129187200Y-123060831D01*
X129187200Y-123060831D02*
X129234819Y-123156069D01*
X129234819Y-123156069D02*
X129234819Y-123251307D01*
X129234819Y-123251307D02*
X129187200Y-123346545D01*
X129187200Y-123346545D02*
X129139580Y-123394164D01*
X129139580Y-123394164D02*
X129044342Y-123441783D01*
X129044342Y-123441783D02*
X128853866Y-123489402D01*
X128853866Y-123489402D02*
X128615771Y-123489402D01*
X128615771Y-123489402D02*
X128425295Y-123441783D01*
X128425295Y-123441783D02*
X128330057Y-123394164D01*
X128330057Y-123394164D02*
X128282438Y-123346545D01*
X128282438Y-123346545D02*
X128234819Y-123251307D01*
X128234819Y-122584640D02*
X128234819Y-121917974D01*
X128234819Y-121917974D02*
X129234819Y-122346545D01*
X128568152Y-121108450D02*
X129234819Y-121108450D01*
X128187200Y-121346545D02*
X128901485Y-121584640D01*
X128901485Y-121584640D02*
X128901485Y-120965593D01*
X122753333Y-122502588D02*
X122753333Y-123295922D01*
X122753333Y-123295922D02*
X122800000Y-123389255D01*
X122800000Y-123389255D02*
X122846666Y-123435922D01*
X122846666Y-123435922D02*
X122940000Y-123482588D01*
X122940000Y-123482588D02*
X123126666Y-123482588D01*
X123126666Y-123482588D02*
X123220000Y-123435922D01*
X123220000Y-123435922D02*
X123266666Y-123389255D01*
X123266666Y-123389255D02*
X123313333Y-123295922D01*
X123313333Y-123295922D02*
X123313333Y-122502588D01*
X124293333Y-123482588D02*
X123733333Y-123482588D01*
X124013333Y-123482588D02*
X124013333Y-122502588D01*
X124013333Y-122502588D02*
X123920000Y-122642588D01*
X123920000Y-122642588D02*
X123826667Y-122735922D01*
X123826667Y-122735922D02*
X123733333Y-122782588D01*
X134828571Y-135399819D02*
X134257143Y-135399819D01*
X134542857Y-135399819D02*
X134542857Y-134399819D01*
X134542857Y-134399819D02*
X134447619Y-134542676D01*
X134447619Y-134542676D02*
X134352381Y-134637914D01*
X134352381Y-134637914D02*
X134257143Y-134685533D01*
X135447619Y-134399819D02*
X135542857Y-134399819D01*
X135542857Y-134399819D02*
X135638095Y-134447438D01*
X135638095Y-134447438D02*
X135685714Y-134495057D01*
X135685714Y-134495057D02*
X135733333Y-134590295D01*
X135733333Y-134590295D02*
X135780952Y-134780771D01*
X135780952Y-134780771D02*
X135780952Y-135018866D01*
X135780952Y-135018866D02*
X135733333Y-135209342D01*
X135733333Y-135209342D02*
X135685714Y-135304580D01*
X135685714Y-135304580D02*
X135638095Y-135352200D01*
X135638095Y-135352200D02*
X135542857Y-135399819D01*
X135542857Y-135399819D02*
X135447619Y-135399819D01*
X135447619Y-135399819D02*
X135352381Y-135352200D01*
X135352381Y-135352200D02*
X135304762Y-135304580D01*
X135304762Y-135304580D02*
X135257143Y-135209342D01*
X135257143Y-135209342D02*
X135209524Y-135018866D01*
X135209524Y-135018866D02*
X135209524Y-134780771D01*
X135209524Y-134780771D02*
X135257143Y-134590295D01*
X135257143Y-134590295D02*
X135304762Y-134495057D01*
X135304762Y-134495057D02*
X135352381Y-134447438D01*
X135352381Y-134447438D02*
X135447619Y-134399819D01*
X136638095Y-134733152D02*
X136638095Y-135399819D01*
X136209524Y-134733152D02*
X136209524Y-135256961D01*
X136209524Y-135256961D02*
X136257143Y-135352200D01*
X136257143Y-135352200D02*
X136352381Y-135399819D01*
X136352381Y-135399819D02*
X136495238Y-135399819D01*
X136495238Y-135399819D02*
X136590476Y-135352200D01*
X136590476Y-135352200D02*
X136638095Y-135304580D01*
X137447619Y-134876009D02*
X137114286Y-134876009D01*
X137114286Y-135399819D02*
X137114286Y-134399819D01*
X137114286Y-134399819D02*
X137590476Y-134399819D01*
X135733333Y-130954580D02*
X135685714Y-131002200D01*
X135685714Y-131002200D02*
X135542857Y-131049819D01*
X135542857Y-131049819D02*
X135447619Y-131049819D01*
X135447619Y-131049819D02*
X135304762Y-131002200D01*
X135304762Y-131002200D02*
X135209524Y-130906961D01*
X135209524Y-130906961D02*
X135161905Y-130811723D01*
X135161905Y-130811723D02*
X135114286Y-130621247D01*
X135114286Y-130621247D02*
X135114286Y-130478390D01*
X135114286Y-130478390D02*
X135161905Y-130287914D01*
X135161905Y-130287914D02*
X135209524Y-130192676D01*
X135209524Y-130192676D02*
X135304762Y-130097438D01*
X135304762Y-130097438D02*
X135447619Y-130049819D01*
X135447619Y-130049819D02*
X135542857Y-130049819D01*
X135542857Y-130049819D02*
X135685714Y-130097438D01*
X135685714Y-130097438D02*
X135733333Y-130145057D01*
X136114286Y-130145057D02*
X136161905Y-130097438D01*
X136161905Y-130097438D02*
X136257143Y-130049819D01*
X136257143Y-130049819D02*
X136495238Y-130049819D01*
X136495238Y-130049819D02*
X136590476Y-130097438D01*
X136590476Y-130097438D02*
X136638095Y-130145057D01*
X136638095Y-130145057D02*
X136685714Y-130240295D01*
X136685714Y-130240295D02*
X136685714Y-130335533D01*
X136685714Y-130335533D02*
X136638095Y-130478390D01*
X136638095Y-130478390D02*
X136066667Y-131049819D01*
X136066667Y-131049819D02*
X136685714Y-131049819D01*
X72309523Y-150884819D02*
X71738095Y-150884819D01*
X72023809Y-150884819D02*
X72023809Y-149884819D01*
X72023809Y-149884819D02*
X71928571Y-150027676D01*
X71928571Y-150027676D02*
X71833333Y-150122914D01*
X71833333Y-150122914D02*
X71738095Y-150170533D01*
X72928571Y-149884819D02*
X73023809Y-149884819D01*
X73023809Y-149884819D02*
X73119047Y-149932438D01*
X73119047Y-149932438D02*
X73166666Y-149980057D01*
X73166666Y-149980057D02*
X73214285Y-150075295D01*
X73214285Y-150075295D02*
X73261904Y-150265771D01*
X73261904Y-150265771D02*
X73261904Y-150503866D01*
X73261904Y-150503866D02*
X73214285Y-150694342D01*
X73214285Y-150694342D02*
X73166666Y-150789580D01*
X73166666Y-150789580D02*
X73119047Y-150837200D01*
X73119047Y-150837200D02*
X73023809Y-150884819D01*
X73023809Y-150884819D02*
X72928571Y-150884819D01*
X72928571Y-150884819D02*
X72833333Y-150837200D01*
X72833333Y-150837200D02*
X72785714Y-150789580D01*
X72785714Y-150789580D02*
X72738095Y-150694342D01*
X72738095Y-150694342D02*
X72690476Y-150503866D01*
X72690476Y-150503866D02*
X72690476Y-150265771D01*
X72690476Y-150265771D02*
X72738095Y-150075295D01*
X72738095Y-150075295D02*
X72785714Y-149980057D01*
X72785714Y-149980057D02*
X72833333Y-149932438D01*
X72833333Y-149932438D02*
X72928571Y-149884819D01*
X73690476Y-150884819D02*
X73690476Y-149884819D01*
X74261904Y-150884819D02*
X73833333Y-150313390D01*
X74261904Y-149884819D02*
X73690476Y-150456247D01*
D11*
X72933333Y-149181927D02*
X72800000Y-148991451D01*
X72704762Y-149181927D02*
X72704762Y-148781927D01*
X72704762Y-148781927D02*
X72857143Y-148781927D01*
X72857143Y-148781927D02*
X72895238Y-148800975D01*
X72895238Y-148800975D02*
X72914285Y-148820022D01*
X72914285Y-148820022D02*
X72933333Y-148858118D01*
X72933333Y-148858118D02*
X72933333Y-148915260D01*
X72933333Y-148915260D02*
X72914285Y-148953356D01*
X72914285Y-148953356D02*
X72895238Y-148972403D01*
X72895238Y-148972403D02*
X72857143Y-148991451D01*
X72857143Y-148991451D02*
X72704762Y-148991451D01*
X73276190Y-148781927D02*
X73200000Y-148781927D01*
X73200000Y-148781927D02*
X73161904Y-148800975D01*
X73161904Y-148800975D02*
X73142857Y-148820022D01*
X73142857Y-148820022D02*
X73104762Y-148877165D01*
X73104762Y-148877165D02*
X73085714Y-148953356D01*
X73085714Y-148953356D02*
X73085714Y-149105737D01*
X73085714Y-149105737D02*
X73104762Y-149143832D01*
X73104762Y-149143832D02*
X73123809Y-149162880D01*
X73123809Y-149162880D02*
X73161904Y-149181927D01*
X73161904Y-149181927D02*
X73238095Y-149181927D01*
X73238095Y-149181927D02*
X73276190Y-149162880D01*
X73276190Y-149162880D02*
X73295238Y-149143832D01*
X73295238Y-149143832D02*
X73314285Y-149105737D01*
X73314285Y-149105737D02*
X73314285Y-149010499D01*
X73314285Y-149010499D02*
X73295238Y-148972403D01*
X73295238Y-148972403D02*
X73276190Y-148953356D01*
X73276190Y-148953356D02*
X73238095Y-148934308D01*
X73238095Y-148934308D02*
X73161904Y-148934308D01*
X73161904Y-148934308D02*
X73123809Y-148953356D01*
X73123809Y-148953356D02*
X73104762Y-148972403D01*
X73104762Y-148972403D02*
X73085714Y-149010499D01*
D10*
X100952380Y-152104819D02*
X100380952Y-152104819D01*
X100666666Y-152104819D02*
X100666666Y-151104819D01*
X100666666Y-151104819D02*
X100571428Y-151247676D01*
X100571428Y-151247676D02*
X100476190Y-151342914D01*
X100476190Y-151342914D02*
X100380952Y-151390533D01*
X101571428Y-151104819D02*
X101666666Y-151104819D01*
X101666666Y-151104819D02*
X101761904Y-151152438D01*
X101761904Y-151152438D02*
X101809523Y-151200057D01*
X101809523Y-151200057D02*
X101857142Y-151295295D01*
X101857142Y-151295295D02*
X101904761Y-151485771D01*
X101904761Y-151485771D02*
X101904761Y-151723866D01*
X101904761Y-151723866D02*
X101857142Y-151914342D01*
X101857142Y-151914342D02*
X101809523Y-152009580D01*
X101809523Y-152009580D02*
X101761904Y-152057200D01*
X101761904Y-152057200D02*
X101666666Y-152104819D01*
X101666666Y-152104819D02*
X101571428Y-152104819D01*
X101571428Y-152104819D02*
X101476190Y-152057200D01*
X101476190Y-152057200D02*
X101428571Y-152009580D01*
X101428571Y-152009580D02*
X101380952Y-151914342D01*
X101380952Y-151914342D02*
X101333333Y-151723866D01*
X101333333Y-151723866D02*
X101333333Y-151485771D01*
X101333333Y-151485771D02*
X101380952Y-151295295D01*
X101380952Y-151295295D02*
X101428571Y-151200057D01*
X101428571Y-151200057D02*
X101476190Y-151152438D01*
X101476190Y-151152438D02*
X101571428Y-151104819D01*
X102523809Y-151104819D02*
X102619047Y-151104819D01*
X102619047Y-151104819D02*
X102714285Y-151152438D01*
X102714285Y-151152438D02*
X102761904Y-151200057D01*
X102761904Y-151200057D02*
X102809523Y-151295295D01*
X102809523Y-151295295D02*
X102857142Y-151485771D01*
X102857142Y-151485771D02*
X102857142Y-151723866D01*
X102857142Y-151723866D02*
X102809523Y-151914342D01*
X102809523Y-151914342D02*
X102761904Y-152009580D01*
X102761904Y-152009580D02*
X102714285Y-152057200D01*
X102714285Y-152057200D02*
X102619047Y-152104819D01*
X102619047Y-152104819D02*
X102523809Y-152104819D01*
X102523809Y-152104819D02*
X102428571Y-152057200D01*
X102428571Y-152057200D02*
X102380952Y-152009580D01*
X102380952Y-152009580D02*
X102333333Y-151914342D01*
X102333333Y-151914342D02*
X102285714Y-151723866D01*
X102285714Y-151723866D02*
X102285714Y-151485771D01*
X102285714Y-151485771D02*
X102333333Y-151295295D01*
X102333333Y-151295295D02*
X102380952Y-151200057D01*
X102380952Y-151200057D02*
X102428571Y-151152438D01*
X102428571Y-151152438D02*
X102523809Y-151104819D01*
X103714285Y-151438152D02*
X103714285Y-152104819D01*
X103285714Y-151438152D02*
X103285714Y-151961961D01*
X103285714Y-151961961D02*
X103333333Y-152057200D01*
X103333333Y-152057200D02*
X103428571Y-152104819D01*
X103428571Y-152104819D02*
X103571428Y-152104819D01*
X103571428Y-152104819D02*
X103666666Y-152057200D01*
X103666666Y-152057200D02*
X103714285Y-152009580D01*
X104523809Y-151581009D02*
X104190476Y-151581009D01*
X104190476Y-152104819D02*
X104190476Y-151104819D01*
X104190476Y-151104819D02*
X104666666Y-151104819D01*
X102333333Y-156359580D02*
X102285714Y-156407200D01*
X102285714Y-156407200D02*
X102142857Y-156454819D01*
X102142857Y-156454819D02*
X102047619Y-156454819D01*
X102047619Y-156454819D02*
X101904762Y-156407200D01*
X101904762Y-156407200D02*
X101809524Y-156311961D01*
X101809524Y-156311961D02*
X101761905Y-156216723D01*
X101761905Y-156216723D02*
X101714286Y-156026247D01*
X101714286Y-156026247D02*
X101714286Y-155883390D01*
X101714286Y-155883390D02*
X101761905Y-155692914D01*
X101761905Y-155692914D02*
X101809524Y-155597676D01*
X101809524Y-155597676D02*
X101904762Y-155502438D01*
X101904762Y-155502438D02*
X102047619Y-155454819D01*
X102047619Y-155454819D02*
X102142857Y-155454819D01*
X102142857Y-155454819D02*
X102285714Y-155502438D01*
X102285714Y-155502438D02*
X102333333Y-155550057D01*
X102809524Y-156454819D02*
X103000000Y-156454819D01*
X103000000Y-156454819D02*
X103095238Y-156407200D01*
X103095238Y-156407200D02*
X103142857Y-156359580D01*
X103142857Y-156359580D02*
X103238095Y-156216723D01*
X103238095Y-156216723D02*
X103285714Y-156026247D01*
X103285714Y-156026247D02*
X103285714Y-155645295D01*
X103285714Y-155645295D02*
X103238095Y-155550057D01*
X103238095Y-155550057D02*
X103190476Y-155502438D01*
X103190476Y-155502438D02*
X103095238Y-155454819D01*
X103095238Y-155454819D02*
X102904762Y-155454819D01*
X102904762Y-155454819D02*
X102809524Y-155502438D01*
X102809524Y-155502438D02*
X102761905Y-155550057D01*
X102761905Y-155550057D02*
X102714286Y-155645295D01*
X102714286Y-155645295D02*
X102714286Y-155883390D01*
X102714286Y-155883390D02*
X102761905Y-155978628D01*
X102761905Y-155978628D02*
X102809524Y-156026247D01*
X102809524Y-156026247D02*
X102904762Y-156073866D01*
X102904762Y-156073866D02*
X103095238Y-156073866D01*
X103095238Y-156073866D02*
X103190476Y-156026247D01*
X103190476Y-156026247D02*
X103238095Y-155978628D01*
X103238095Y-155978628D02*
X103285714Y-155883390D01*
X101428571Y-141604819D02*
X100857143Y-141604819D01*
X101142857Y-141604819D02*
X101142857Y-140604819D01*
X101142857Y-140604819D02*
X101047619Y-140747676D01*
X101047619Y-140747676D02*
X100952381Y-140842914D01*
X100952381Y-140842914D02*
X100857143Y-140890533D01*
X102047619Y-140604819D02*
X102142857Y-140604819D01*
X102142857Y-140604819D02*
X102238095Y-140652438D01*
X102238095Y-140652438D02*
X102285714Y-140700057D01*
X102285714Y-140700057D02*
X102333333Y-140795295D01*
X102333333Y-140795295D02*
X102380952Y-140985771D01*
X102380952Y-140985771D02*
X102380952Y-141223866D01*
X102380952Y-141223866D02*
X102333333Y-141414342D01*
X102333333Y-141414342D02*
X102285714Y-141509580D01*
X102285714Y-141509580D02*
X102238095Y-141557200D01*
X102238095Y-141557200D02*
X102142857Y-141604819D01*
X102142857Y-141604819D02*
X102047619Y-141604819D01*
X102047619Y-141604819D02*
X101952381Y-141557200D01*
X101952381Y-141557200D02*
X101904762Y-141509580D01*
X101904762Y-141509580D02*
X101857143Y-141414342D01*
X101857143Y-141414342D02*
X101809524Y-141223866D01*
X101809524Y-141223866D02*
X101809524Y-140985771D01*
X101809524Y-140985771D02*
X101857143Y-140795295D01*
X101857143Y-140795295D02*
X101904762Y-140700057D01*
X101904762Y-140700057D02*
X101952381Y-140652438D01*
X101952381Y-140652438D02*
X102047619Y-140604819D01*
X103238095Y-140938152D02*
X103238095Y-141604819D01*
X102809524Y-140938152D02*
X102809524Y-141461961D01*
X102809524Y-141461961D02*
X102857143Y-141557200D01*
X102857143Y-141557200D02*
X102952381Y-141604819D01*
X102952381Y-141604819D02*
X103095238Y-141604819D01*
X103095238Y-141604819D02*
X103190476Y-141557200D01*
X103190476Y-141557200D02*
X103238095Y-141509580D01*
X104047619Y-141081009D02*
X103714286Y-141081009D01*
X103714286Y-141604819D02*
X103714286Y-140604819D01*
X103714286Y-140604819D02*
X104190476Y-140604819D01*
X101857142Y-145859580D02*
X101809523Y-145907200D01*
X101809523Y-145907200D02*
X101666666Y-145954819D01*
X101666666Y-145954819D02*
X101571428Y-145954819D01*
X101571428Y-145954819D02*
X101428571Y-145907200D01*
X101428571Y-145907200D02*
X101333333Y-145811961D01*
X101333333Y-145811961D02*
X101285714Y-145716723D01*
X101285714Y-145716723D02*
X101238095Y-145526247D01*
X101238095Y-145526247D02*
X101238095Y-145383390D01*
X101238095Y-145383390D02*
X101285714Y-145192914D01*
X101285714Y-145192914D02*
X101333333Y-145097676D01*
X101333333Y-145097676D02*
X101428571Y-145002438D01*
X101428571Y-145002438D02*
X101571428Y-144954819D01*
X101571428Y-144954819D02*
X101666666Y-144954819D01*
X101666666Y-144954819D02*
X101809523Y-145002438D01*
X101809523Y-145002438D02*
X101857142Y-145050057D01*
X102809523Y-145954819D02*
X102238095Y-145954819D01*
X102523809Y-145954819D02*
X102523809Y-144954819D01*
X102523809Y-144954819D02*
X102428571Y-145097676D01*
X102428571Y-145097676D02*
X102333333Y-145192914D01*
X102333333Y-145192914D02*
X102238095Y-145240533D01*
X103428571Y-144954819D02*
X103523809Y-144954819D01*
X103523809Y-144954819D02*
X103619047Y-145002438D01*
X103619047Y-145002438D02*
X103666666Y-145050057D01*
X103666666Y-145050057D02*
X103714285Y-145145295D01*
X103714285Y-145145295D02*
X103761904Y-145335771D01*
X103761904Y-145335771D02*
X103761904Y-145573866D01*
X103761904Y-145573866D02*
X103714285Y-145764342D01*
X103714285Y-145764342D02*
X103666666Y-145859580D01*
X103666666Y-145859580D02*
X103619047Y-145907200D01*
X103619047Y-145907200D02*
X103523809Y-145954819D01*
X103523809Y-145954819D02*
X103428571Y-145954819D01*
X103428571Y-145954819D02*
X103333333Y-145907200D01*
X103333333Y-145907200D02*
X103285714Y-145859580D01*
X103285714Y-145859580D02*
X103238095Y-145764342D01*
X103238095Y-145764342D02*
X103190476Y-145573866D01*
X103190476Y-145573866D02*
X103190476Y-145335771D01*
X103190476Y-145335771D02*
X103238095Y-145145295D01*
X103238095Y-145145295D02*
X103285714Y-145050057D01*
X103285714Y-145050057D02*
X103333333Y-145002438D01*
X103333333Y-145002438D02*
X103428571Y-144954819D01*
X134828571Y-125399819D02*
X134257143Y-125399819D01*
X134542857Y-125399819D02*
X134542857Y-124399819D01*
X134542857Y-124399819D02*
X134447619Y-124542676D01*
X134447619Y-124542676D02*
X134352381Y-124637914D01*
X134352381Y-124637914D02*
X134257143Y-124685533D01*
X135447619Y-124399819D02*
X135542857Y-124399819D01*
X135542857Y-124399819D02*
X135638095Y-124447438D01*
X135638095Y-124447438D02*
X135685714Y-124495057D01*
X135685714Y-124495057D02*
X135733333Y-124590295D01*
X135733333Y-124590295D02*
X135780952Y-124780771D01*
X135780952Y-124780771D02*
X135780952Y-125018866D01*
X135780952Y-125018866D02*
X135733333Y-125209342D01*
X135733333Y-125209342D02*
X135685714Y-125304580D01*
X135685714Y-125304580D02*
X135638095Y-125352200D01*
X135638095Y-125352200D02*
X135542857Y-125399819D01*
X135542857Y-125399819D02*
X135447619Y-125399819D01*
X135447619Y-125399819D02*
X135352381Y-125352200D01*
X135352381Y-125352200D02*
X135304762Y-125304580D01*
X135304762Y-125304580D02*
X135257143Y-125209342D01*
X135257143Y-125209342D02*
X135209524Y-125018866D01*
X135209524Y-125018866D02*
X135209524Y-124780771D01*
X135209524Y-124780771D02*
X135257143Y-124590295D01*
X135257143Y-124590295D02*
X135304762Y-124495057D01*
X135304762Y-124495057D02*
X135352381Y-124447438D01*
X135352381Y-124447438D02*
X135447619Y-124399819D01*
X136638095Y-124733152D02*
X136638095Y-125399819D01*
X136209524Y-124733152D02*
X136209524Y-125256961D01*
X136209524Y-125256961D02*
X136257143Y-125352200D01*
X136257143Y-125352200D02*
X136352381Y-125399819D01*
X136352381Y-125399819D02*
X136495238Y-125399819D01*
X136495238Y-125399819D02*
X136590476Y-125352200D01*
X136590476Y-125352200D02*
X136638095Y-125304580D01*
X137447619Y-124876009D02*
X137114286Y-124876009D01*
X137114286Y-125399819D02*
X137114286Y-124399819D01*
X137114286Y-124399819D02*
X137590476Y-124399819D01*
X135733333Y-120954580D02*
X135685714Y-121002200D01*
X135685714Y-121002200D02*
X135542857Y-121049819D01*
X135542857Y-121049819D02*
X135447619Y-121049819D01*
X135447619Y-121049819D02*
X135304762Y-121002200D01*
X135304762Y-121002200D02*
X135209524Y-120906961D01*
X135209524Y-120906961D02*
X135161905Y-120811723D01*
X135161905Y-120811723D02*
X135114286Y-120621247D01*
X135114286Y-120621247D02*
X135114286Y-120478390D01*
X135114286Y-120478390D02*
X135161905Y-120287914D01*
X135161905Y-120287914D02*
X135209524Y-120192676D01*
X135209524Y-120192676D02*
X135304762Y-120097438D01*
X135304762Y-120097438D02*
X135447619Y-120049819D01*
X135447619Y-120049819D02*
X135542857Y-120049819D01*
X135542857Y-120049819D02*
X135685714Y-120097438D01*
X135685714Y-120097438D02*
X135733333Y-120145057D01*
X136066667Y-120049819D02*
X136733333Y-120049819D01*
X136733333Y-120049819D02*
X136304762Y-121049819D01*
X148721143Y-145254819D02*
X148816381Y-145254819D01*
X148816381Y-145254819D02*
X148911619Y-145302438D01*
X148911619Y-145302438D02*
X148959238Y-145350057D01*
X148959238Y-145350057D02*
X149006857Y-145445295D01*
X149006857Y-145445295D02*
X149054476Y-145635771D01*
X149054476Y-145635771D02*
X149054476Y-145873866D01*
X149054476Y-145873866D02*
X149006857Y-146064342D01*
X149006857Y-146064342D02*
X148959238Y-146159580D01*
X148959238Y-146159580D02*
X148911619Y-146207200D01*
X148911619Y-146207200D02*
X148816381Y-146254819D01*
X148816381Y-146254819D02*
X148721143Y-146254819D01*
X148721143Y-146254819D02*
X148625905Y-146207200D01*
X148625905Y-146207200D02*
X148578286Y-146159580D01*
X148578286Y-146159580D02*
X148530667Y-146064342D01*
X148530667Y-146064342D02*
X148483048Y-145873866D01*
X148483048Y-145873866D02*
X148483048Y-145635771D01*
X148483048Y-145635771D02*
X148530667Y-145445295D01*
X148530667Y-145445295D02*
X148578286Y-145350057D01*
X148578286Y-145350057D02*
X148625905Y-145302438D01*
X148625905Y-145302438D02*
X148721143Y-145254819D01*
X149483048Y-146159580D02*
X149530667Y-146207200D01*
X149530667Y-146207200D02*
X149483048Y-146254819D01*
X149483048Y-146254819D02*
X149435429Y-146207200D01*
X149435429Y-146207200D02*
X149483048Y-146159580D01*
X149483048Y-146159580D02*
X149483048Y-146254819D01*
X150483047Y-146254819D02*
X149911619Y-146254819D01*
X150197333Y-146254819D02*
X150197333Y-145254819D01*
X150197333Y-145254819D02*
X150102095Y-145397676D01*
X150102095Y-145397676D02*
X150006857Y-145492914D01*
X150006857Y-145492914D02*
X149911619Y-145540533D01*
X151340190Y-145588152D02*
X151340190Y-146254819D01*
X150911619Y-145588152D02*
X150911619Y-146111961D01*
X150911619Y-146111961D02*
X150959238Y-146207200D01*
X150959238Y-146207200D02*
X151054476Y-146254819D01*
X151054476Y-146254819D02*
X151197333Y-146254819D01*
X151197333Y-146254819D02*
X151292571Y-146207200D01*
X151292571Y-146207200D02*
X151340190Y-146159580D01*
X152149714Y-145731009D02*
X151816381Y-145731009D01*
X151816381Y-146254819D02*
X151816381Y-145254819D01*
X151816381Y-145254819D02*
X152292571Y-145254819D01*
D11*
X150106857Y-149169832D02*
X150087809Y-149188880D01*
X150087809Y-149188880D02*
X150030667Y-149207927D01*
X150030667Y-149207927D02*
X149992571Y-149207927D01*
X149992571Y-149207927D02*
X149935428Y-149188880D01*
X149935428Y-149188880D02*
X149897333Y-149150784D01*
X149897333Y-149150784D02*
X149878286Y-149112689D01*
X149878286Y-149112689D02*
X149859238Y-149036499D01*
X149859238Y-149036499D02*
X149859238Y-148979356D01*
X149859238Y-148979356D02*
X149878286Y-148903165D01*
X149878286Y-148903165D02*
X149897333Y-148865070D01*
X149897333Y-148865070D02*
X149935428Y-148826975D01*
X149935428Y-148826975D02*
X149992571Y-148807927D01*
X149992571Y-148807927D02*
X150030667Y-148807927D01*
X150030667Y-148807927D02*
X150087809Y-148826975D01*
X150087809Y-148826975D02*
X150106857Y-148846022D01*
X150487809Y-149207927D02*
X150259238Y-149207927D01*
X150373524Y-149207927D02*
X150373524Y-148807927D01*
X150373524Y-148807927D02*
X150335428Y-148865070D01*
X150335428Y-148865070D02*
X150297333Y-148903165D01*
X150297333Y-148903165D02*
X150259238Y-148922213D01*
X150621142Y-148807927D02*
X150868761Y-148807927D01*
X150868761Y-148807927D02*
X150735428Y-148960308D01*
X150735428Y-148960308D02*
X150792571Y-148960308D01*
X150792571Y-148960308D02*
X150830666Y-148979356D01*
X150830666Y-148979356D02*
X150849714Y-148998403D01*
X150849714Y-148998403D02*
X150868761Y-149036499D01*
X150868761Y-149036499D02*
X150868761Y-149131737D01*
X150868761Y-149131737D02*
X150849714Y-149169832D01*
X150849714Y-149169832D02*
X150830666Y-149188880D01*
X150830666Y-149188880D02*
X150792571Y-149207927D01*
X150792571Y-149207927D02*
X150678285Y-149207927D01*
X150678285Y-149207927D02*
X150640190Y-149188880D01*
X150640190Y-149188880D02*
X150621142Y-149169832D01*
D10*
X142709523Y-126479819D02*
X142138095Y-126479819D01*
X142423809Y-126479819D02*
X142423809Y-125479819D01*
X142423809Y-125479819D02*
X142328571Y-125622676D01*
X142328571Y-125622676D02*
X142233333Y-125717914D01*
X142233333Y-125717914D02*
X142138095Y-125765533D01*
X143328571Y-125479819D02*
X143423809Y-125479819D01*
X143423809Y-125479819D02*
X143519047Y-125527438D01*
X143519047Y-125527438D02*
X143566666Y-125575057D01*
X143566666Y-125575057D02*
X143614285Y-125670295D01*
X143614285Y-125670295D02*
X143661904Y-125860771D01*
X143661904Y-125860771D02*
X143661904Y-126098866D01*
X143661904Y-126098866D02*
X143614285Y-126289342D01*
X143614285Y-126289342D02*
X143566666Y-126384580D01*
X143566666Y-126384580D02*
X143519047Y-126432200D01*
X143519047Y-126432200D02*
X143423809Y-126479819D01*
X143423809Y-126479819D02*
X143328571Y-126479819D01*
X143328571Y-126479819D02*
X143233333Y-126432200D01*
X143233333Y-126432200D02*
X143185714Y-126384580D01*
X143185714Y-126384580D02*
X143138095Y-126289342D01*
X143138095Y-126289342D02*
X143090476Y-126098866D01*
X143090476Y-126098866D02*
X143090476Y-125860771D01*
X143090476Y-125860771D02*
X143138095Y-125670295D01*
X143138095Y-125670295D02*
X143185714Y-125575057D01*
X143185714Y-125575057D02*
X143233333Y-125527438D01*
X143233333Y-125527438D02*
X143328571Y-125479819D01*
X144090476Y-126479819D02*
X144090476Y-125479819D01*
X144661904Y-126479819D02*
X144233333Y-125908390D01*
X144661904Y-125479819D02*
X144090476Y-126051247D01*
D11*
X143333333Y-124776927D02*
X143200000Y-124586451D01*
X143104762Y-124776927D02*
X143104762Y-124376927D01*
X143104762Y-124376927D02*
X143257143Y-124376927D01*
X143257143Y-124376927D02*
X143295238Y-124395975D01*
X143295238Y-124395975D02*
X143314285Y-124415022D01*
X143314285Y-124415022D02*
X143333333Y-124453118D01*
X143333333Y-124453118D02*
X143333333Y-124510260D01*
X143333333Y-124510260D02*
X143314285Y-124548356D01*
X143314285Y-124548356D02*
X143295238Y-124567403D01*
X143295238Y-124567403D02*
X143257143Y-124586451D01*
X143257143Y-124586451D02*
X143104762Y-124586451D01*
X143485714Y-124415022D02*
X143504762Y-124395975D01*
X143504762Y-124395975D02*
X143542857Y-124376927D01*
X143542857Y-124376927D02*
X143638095Y-124376927D01*
X143638095Y-124376927D02*
X143676190Y-124395975D01*
X143676190Y-124395975D02*
X143695238Y-124415022D01*
X143695238Y-124415022D02*
X143714285Y-124453118D01*
X143714285Y-124453118D02*
X143714285Y-124491213D01*
X143714285Y-124491213D02*
X143695238Y-124548356D01*
X143695238Y-124548356D02*
X143466666Y-124776927D01*
X143466666Y-124776927D02*
X143714285Y-124776927D01*
D10*
X142709523Y-136674819D02*
X142138095Y-136674819D01*
X142423809Y-136674819D02*
X142423809Y-135674819D01*
X142423809Y-135674819D02*
X142328571Y-135817676D01*
X142328571Y-135817676D02*
X142233333Y-135912914D01*
X142233333Y-135912914D02*
X142138095Y-135960533D01*
X143328571Y-135674819D02*
X143423809Y-135674819D01*
X143423809Y-135674819D02*
X143519047Y-135722438D01*
X143519047Y-135722438D02*
X143566666Y-135770057D01*
X143566666Y-135770057D02*
X143614285Y-135865295D01*
X143614285Y-135865295D02*
X143661904Y-136055771D01*
X143661904Y-136055771D02*
X143661904Y-136293866D01*
X143661904Y-136293866D02*
X143614285Y-136484342D01*
X143614285Y-136484342D02*
X143566666Y-136579580D01*
X143566666Y-136579580D02*
X143519047Y-136627200D01*
X143519047Y-136627200D02*
X143423809Y-136674819D01*
X143423809Y-136674819D02*
X143328571Y-136674819D01*
X143328571Y-136674819D02*
X143233333Y-136627200D01*
X143233333Y-136627200D02*
X143185714Y-136579580D01*
X143185714Y-136579580D02*
X143138095Y-136484342D01*
X143138095Y-136484342D02*
X143090476Y-136293866D01*
X143090476Y-136293866D02*
X143090476Y-136055771D01*
X143090476Y-136055771D02*
X143138095Y-135865295D01*
X143138095Y-135865295D02*
X143185714Y-135770057D01*
X143185714Y-135770057D02*
X143233333Y-135722438D01*
X143233333Y-135722438D02*
X143328571Y-135674819D01*
X144090476Y-136674819D02*
X144090476Y-135674819D01*
X144661904Y-136674819D02*
X144233333Y-136103390D01*
X144661904Y-135674819D02*
X144090476Y-136246247D01*
D11*
X143333333Y-134971927D02*
X143200000Y-134781451D01*
X143104762Y-134971927D02*
X143104762Y-134571927D01*
X143104762Y-134571927D02*
X143257143Y-134571927D01*
X143257143Y-134571927D02*
X143295238Y-134590975D01*
X143295238Y-134590975D02*
X143314285Y-134610022D01*
X143314285Y-134610022D02*
X143333333Y-134648118D01*
X143333333Y-134648118D02*
X143333333Y-134705260D01*
X143333333Y-134705260D02*
X143314285Y-134743356D01*
X143314285Y-134743356D02*
X143295238Y-134762403D01*
X143295238Y-134762403D02*
X143257143Y-134781451D01*
X143257143Y-134781451D02*
X143104762Y-134781451D01*
X143695238Y-134571927D02*
X143504762Y-134571927D01*
X143504762Y-134571927D02*
X143485714Y-134762403D01*
X143485714Y-134762403D02*
X143504762Y-134743356D01*
X143504762Y-134743356D02*
X143542857Y-134724308D01*
X143542857Y-134724308D02*
X143638095Y-134724308D01*
X143638095Y-134724308D02*
X143676190Y-134743356D01*
X143676190Y-134743356D02*
X143695238Y-134762403D01*
X143695238Y-134762403D02*
X143714285Y-134800499D01*
X143714285Y-134800499D02*
X143714285Y-134895737D01*
X143714285Y-134895737D02*
X143695238Y-134933832D01*
X143695238Y-134933832D02*
X143676190Y-134952880D01*
X143676190Y-134952880D02*
X143638095Y-134971927D01*
X143638095Y-134971927D02*
X143542857Y-134971927D01*
X143542857Y-134971927D02*
X143504762Y-134952880D01*
X143504762Y-134952880D02*
X143485714Y-134933832D01*
D12*
%TO.C,C8*%
X78600000Y-142000000D02*
X80200000Y-142000000D01*
X78600000Y-142800000D02*
X78600000Y-142000000D01*
X80200000Y-142000000D02*
X80200000Y-142800000D01*
X80200000Y-142800000D02*
X78600000Y-142800000D01*
%TO.C,C12*%
X117525000Y-141300000D02*
X119125000Y-141300000D01*
X117525000Y-142100000D02*
X117525000Y-141300000D01*
X119125000Y-141300000D02*
X119125000Y-142100000D01*
X119125000Y-142100000D02*
X117525000Y-142100000D01*
%TO.C,CON1*%
X145869000Y-131595000D02*
X145869000Y-119595000D01*
X158969000Y-131595000D02*
X145869000Y-131595000D01*
X159869000Y-119595000D02*
X145869000Y-119595000D01*
X159869000Y-130695000D02*
X158969000Y-131595000D01*
X159869000Y-130695000D02*
X159869000Y-119595000D01*
%TO.C,JP1*%
X61190000Y-140190000D02*
X66270000Y-140190000D01*
X61190000Y-155430000D02*
X61190000Y-140190000D01*
X65000000Y-155430000D02*
X61190000Y-155430000D01*
X66270000Y-140190000D02*
X66270000Y-154160000D01*
X66270000Y-154160000D02*
X65000000Y-155430000D01*
%TO.C,P1*%
X60230000Y-162230000D02*
X159290000Y-162230000D01*
X60230000Y-164135000D02*
X60230000Y-162230000D01*
X60865000Y-164770000D02*
X60230000Y-164135000D01*
X159290000Y-162230000D02*
X159290000Y-164770000D01*
X159290000Y-164770000D02*
X60865000Y-164770000D01*
%TO.C,U3*%
X92665000Y-154100000D02*
X80865000Y-154100000D01*
X79865000Y-153100000D01*
X79865000Y-146600000D01*
X92665000Y-146600000D01*
X92665000Y-154100000D01*
%TO.C,C6*%
X123500000Y-127900000D02*
X124300000Y-127900000D01*
X123500000Y-129500000D02*
X123500000Y-127900000D01*
X124300000Y-127900000D02*
X124300000Y-129500000D01*
X124300000Y-129500000D02*
X123500000Y-129500000D01*
%TO.C,C1*%
X108200000Y-131100000D02*
X108200000Y-124500000D01*
X113800000Y-124500000D02*
X108200000Y-124500000D01*
X113800000Y-131100000D02*
X108200000Y-131100000D01*
X113889838Y-129445000D02*
X113889838Y-128815000D01*
X114204838Y-129130000D02*
X113574838Y-129130000D01*
X114800000Y-125500000D02*
X113800000Y-124500000D01*
X114800000Y-130100000D02*
X113800000Y-131100000D01*
X114800000Y-130100000D02*
X114800000Y-125500000D01*
X114650000Y-127800000D02*
G75*
G02*
X108350000Y-127800000I-3150000J0D01*
G01*
X108350000Y-127800000D02*
G75*
G02*
X114650000Y-127800000I3150000J0D01*
G01*
%TO.C,C5*%
X116800000Y-120600000D02*
X117600000Y-120600000D01*
X116800000Y-122200000D02*
X116800000Y-120600000D01*
X117600000Y-120600000D02*
X117600000Y-122200000D01*
X117600000Y-122200000D02*
X116800000Y-122200000D01*
%TO.C,U4*%
X135750000Y-158700000D02*
X128250000Y-158700000D01*
X128250000Y-144300000D01*
X129250000Y-143300000D01*
X135750000Y-143300000D01*
X135750000Y-158700000D01*
%TO.C,C11*%
X122700000Y-143600000D02*
X124300000Y-143600000D01*
X122700000Y-144400000D02*
X122700000Y-143600000D01*
X124300000Y-143600000D02*
X124300000Y-144400000D01*
X124300000Y-144400000D02*
X122700000Y-144400000D01*
%TO.C,Y1*%
X147040000Y-149000000D02*
X146040000Y-150000000D01*
X141960000Y-150000000D01*
X141960000Y-143000000D01*
X147040000Y-143000000D01*
X147040000Y-149000000D01*
%TO.C,U2*%
X128745000Y-138025000D02*
X119445000Y-138025000D01*
X118445000Y-137025000D01*
X118445000Y-133475000D01*
X128745000Y-133475000D01*
X128745000Y-138025000D01*
%TO.C,R11*%
X72200000Y-153587500D02*
X73800000Y-153587500D01*
X72200000Y-154412500D02*
X72200000Y-153587500D01*
X73800000Y-153587500D02*
X73800000Y-154412500D01*
X73800000Y-154412500D02*
X72200000Y-154412500D01*
%TO.C,C4*%
X126300000Y-117600000D02*
X127900000Y-117600000D01*
X126300000Y-118400000D02*
X126300000Y-117600000D01*
X127900000Y-117600000D02*
X127900000Y-118400000D01*
X127900000Y-118400000D02*
X126300000Y-118400000D01*
%TO.C,R7*%
X72200000Y-151087500D02*
X73800000Y-151087500D01*
X72200000Y-151912500D02*
X72200000Y-151087500D01*
X73800000Y-151087500D02*
X73800000Y-151912500D01*
X73800000Y-151912500D02*
X72200000Y-151912500D01*
%TO.C,R3*%
X142600000Y-120182500D02*
X144200000Y-120182500D01*
X142600000Y-121007500D02*
X142600000Y-120182500D01*
X144200000Y-120182500D02*
X144200000Y-121007500D01*
X144200000Y-121007500D02*
X142600000Y-121007500D01*
%TO.C,R1*%
X125487500Y-127900000D02*
X126312500Y-127900000D01*
X125487500Y-129500000D02*
X125487500Y-127900000D01*
X126312500Y-127900000D02*
X126312500Y-129500000D01*
X126312500Y-129500000D02*
X125487500Y-129500000D01*
%TO.C,R4*%
X142600000Y-130182500D02*
X144200000Y-130182500D01*
X142600000Y-131007500D02*
X142600000Y-130182500D01*
X144200000Y-130182500D02*
X144200000Y-131007500D01*
X144200000Y-131007500D02*
X142600000Y-131007500D01*
%TO.C,R10*%
X72200000Y-146087500D02*
X73800000Y-146087500D01*
X72200000Y-146912500D02*
X72200000Y-146087500D01*
X73800000Y-146087500D02*
X73800000Y-146912500D01*
X73800000Y-146912500D02*
X72200000Y-146912500D01*
%TO.C,R9*%
X72200000Y-141087500D02*
X73800000Y-141087500D01*
X72200000Y-141912500D02*
X72200000Y-141087500D01*
X73800000Y-141087500D02*
X73800000Y-141912500D01*
X73800000Y-141912500D02*
X72200000Y-141912500D01*
%TO.C,C3*%
X122425000Y-117600000D02*
X124025000Y-117600000D01*
X122425000Y-118400000D02*
X122425000Y-117600000D01*
X124025000Y-117600000D02*
X124025000Y-118400000D01*
X124025000Y-118400000D02*
X122425000Y-118400000D01*
%TO.C,R8*%
X72200000Y-143587500D02*
X73800000Y-143587500D01*
X72200000Y-144412500D02*
X72200000Y-143587500D01*
X73800000Y-143587500D02*
X73800000Y-144412500D01*
X73800000Y-144412500D02*
X72200000Y-144412500D01*
%TO.C,U1*%
X127825000Y-124987022D02*
X120150000Y-124987022D01*
X119175000Y-124012022D01*
X119175000Y-121087022D01*
X127825000Y-121087022D01*
X127825000Y-124987022D01*
%TO.C,C2*%
X132600000Y-128295000D02*
X132600000Y-132895000D01*
X132600000Y-128295000D02*
X133600000Y-127295000D01*
X132600000Y-132895000D02*
X133600000Y-133895000D01*
X133195162Y-129265000D02*
X133825162Y-129265000D01*
X133510162Y-128950000D02*
X133510162Y-129580000D01*
X133600000Y-127295000D02*
X139200000Y-127295000D01*
X133600000Y-133895000D02*
X139200000Y-133895000D01*
X139200000Y-127295000D02*
X139200000Y-133895000D01*
X139050000Y-130595000D02*
G75*
G02*
X132750000Y-130595000I-3150000J0D01*
G01*
X132750000Y-130595000D02*
G75*
G02*
X139050000Y-130595000I3150000J0D01*
G01*
%TO.C,R6*%
X72200000Y-148587500D02*
X73800000Y-148587500D01*
X72200000Y-149412500D02*
X72200000Y-148587500D01*
X73800000Y-148587500D02*
X73800000Y-149412500D01*
X73800000Y-149412500D02*
X72200000Y-149412500D01*
%TO.C,C9*%
X99200000Y-159300000D02*
X99200000Y-152700000D01*
X104800000Y-152700000D02*
X99200000Y-152700000D01*
X104800000Y-159300000D02*
X99200000Y-159300000D01*
X104889838Y-157645000D02*
X104889838Y-157015000D01*
X105204838Y-157330000D02*
X104574838Y-157330000D01*
X105800000Y-153700000D02*
X104800000Y-152700000D01*
X105800000Y-158300000D02*
X104800000Y-159300000D01*
X105800000Y-158300000D02*
X105800000Y-153700000D01*
X105650000Y-156000000D02*
G75*
G02*
X99350000Y-156000000I-3150000J0D01*
G01*
X99350000Y-156000000D02*
G75*
G02*
X105650000Y-156000000I3150000J0D01*
G01*
%TO.C,C10*%
X99200000Y-148800000D02*
X99200000Y-142200000D01*
X104800000Y-142200000D02*
X99200000Y-142200000D01*
X104800000Y-148800000D02*
X99200000Y-148800000D01*
X104889838Y-147145000D02*
X104889838Y-146515000D01*
X105204838Y-146830000D02*
X104574838Y-146830000D01*
X105800000Y-143200000D02*
X104800000Y-142200000D01*
X105800000Y-147800000D02*
X104800000Y-148800000D01*
X105800000Y-147800000D02*
X105800000Y-143200000D01*
X105650000Y-145500000D02*
G75*
G02*
X99350000Y-145500000I-3150000J0D01*
G01*
X99350000Y-145500000D02*
G75*
G02*
X105650000Y-145500000I3150000J0D01*
G01*
%TO.C,C7*%
X132600000Y-118295000D02*
X132600000Y-122895000D01*
X132600000Y-118295000D02*
X133600000Y-117295000D01*
X132600000Y-122895000D02*
X133600000Y-123895000D01*
X133195162Y-119265000D02*
X133825162Y-119265000D01*
X133510162Y-118950000D02*
X133510162Y-119580000D01*
X133600000Y-117295000D02*
X139200000Y-117295000D01*
X133600000Y-123895000D02*
X139200000Y-123895000D01*
X139200000Y-117295000D02*
X139200000Y-123895000D01*
X139050000Y-120595000D02*
G75*
G02*
X132750000Y-120595000I-3150000J0D01*
G01*
X132750000Y-120595000D02*
G75*
G02*
X139050000Y-120595000I3150000J0D01*
G01*
%TO.C,C13*%
X149564000Y-148626000D02*
X151164000Y-148626000D01*
X149564000Y-149426000D02*
X149564000Y-148626000D01*
X151164000Y-148626000D02*
X151164000Y-149426000D01*
X151164000Y-149426000D02*
X149564000Y-149426000D01*
%TO.C,R2*%
X142600000Y-124182500D02*
X144200000Y-124182500D01*
X142600000Y-125007500D02*
X142600000Y-124182500D01*
X144200000Y-124182500D02*
X144200000Y-125007500D01*
X144200000Y-125007500D02*
X142600000Y-125007500D01*
%TO.C,R5*%
X142600000Y-134377500D02*
X144200000Y-134377500D01*
X142600000Y-135202500D02*
X142600000Y-134377500D01*
X144200000Y-134377500D02*
X144200000Y-135202500D01*
X144200000Y-135202500D02*
X142600000Y-135202500D01*
%TD*%
M02*
