%TF.GenerationSoftware,KiCad,Pcbnew,9.0.1+1*%
%TF.CreationDate,2025-08-31T09:06:52+00:00*%
%TF.ProjectId,rcbus-ymf262,72636275-732d-4796-9d66-3236322e6b69,@version@*%
%TF.SameCoordinates,Original*%
%TF.FileFunction,Legend,Top*%
%TF.FilePolarity,Positive*%
%FSLAX46Y46*%
G04 Gerber Fmt 4.6, Leading zero omitted, Abs format (unit mm)*
G04 Created by KiCad (PCBNEW 9.0.1+1) date 2025-08-31 09:06:52*
%MOMM*%
%LPD*%
G01*
G04 APERTURE LIST*
%ADD10C,0.150000*%
%ADD11C,0.300000*%
%ADD12C,0.187500*%
%ADD13C,0.120000*%
%ADD14C,0.100000*%
%ADD15C,0.000000*%
G04 APERTURE END LIST*
D10*
X107750000Y-114500000D02*
X107750000Y-139750000D01*
X107750000Y-139750000D02*
X160500000Y-139750000D01*
G36*
X149383619Y-117622500D02*
G01*
X149168380Y-117622500D01*
X149029070Y-117229757D01*
X148339389Y-117229757D01*
X148200079Y-117622500D01*
X147981817Y-117622500D01*
X148196650Y-117059764D01*
X148401946Y-117059764D01*
X148964498Y-117059764D01*
X148682672Y-116296902D01*
X148401946Y-117059764D01*
X148196650Y-117059764D01*
X148565894Y-116092562D01*
X148800550Y-116092562D01*
X149383619Y-117622500D01*
G37*
G36*
X149579898Y-117169490D02*
G01*
X149579898Y-116473581D01*
X149768393Y-116473581D01*
X149768393Y-117162346D01*
X149776691Y-117269343D01*
X149798787Y-117348526D01*
X149831865Y-117406345D01*
X149879669Y-117450472D01*
X149941714Y-117477811D01*
X150022558Y-117487677D01*
X150097629Y-117481106D01*
X150161567Y-117462422D01*
X150216464Y-117432352D01*
X150263809Y-117390499D01*
X150301313Y-117339651D01*
X150328879Y-117279752D01*
X150346291Y-117209060D01*
X150352469Y-117125343D01*
X150352469Y-116473581D01*
X150541055Y-116473581D01*
X150541055Y-117622500D01*
X150352469Y-117622500D01*
X150352469Y-117446645D01*
X150302562Y-117512002D01*
X150249519Y-117562981D01*
X150193100Y-117601342D01*
X150130848Y-117628892D01*
X150061149Y-117645902D01*
X149982533Y-117651809D01*
X149884918Y-117643278D01*
X149804395Y-117619350D01*
X149737638Y-117581355D01*
X149682297Y-117528985D01*
X149640176Y-117465607D01*
X149608208Y-117386853D01*
X149587431Y-117289464D01*
X149579898Y-117169490D01*
G37*
G36*
X151873705Y-117622500D02*
G01*
X151685119Y-117622500D01*
X151685119Y-117452506D01*
X151640889Y-117515540D01*
X151590974Y-117565119D01*
X151535001Y-117602807D01*
X151472758Y-117629309D01*
X151400809Y-117645948D01*
X151317289Y-117651809D01*
X151217199Y-117641209D01*
X151128990Y-117610412D01*
X151049998Y-117559268D01*
X150978585Y-117485479D01*
X150923448Y-117399667D01*
X150882752Y-117299928D01*
X150857060Y-117183746D01*
X150847977Y-117048040D01*
X151042699Y-117048040D01*
X151048883Y-117153601D01*
X151066109Y-117241482D01*
X151092847Y-117314496D01*
X151128245Y-117375020D01*
X151175518Y-117427307D01*
X151229435Y-117463727D01*
X151291313Y-117485848D01*
X151363360Y-117493539D01*
X151435455Y-117485853D01*
X151497449Y-117463737D01*
X151551535Y-117427315D01*
X151599023Y-117375020D01*
X151634666Y-117314461D01*
X151661572Y-117241434D01*
X151678899Y-117153565D01*
X151685119Y-117048040D01*
X151678898Y-116942512D01*
X151661569Y-116854660D01*
X151634662Y-116781667D01*
X151599023Y-116721152D01*
X151551529Y-116668812D01*
X151497441Y-116632363D01*
X151435449Y-116610232D01*
X151363360Y-116602541D01*
X151291319Y-116610237D01*
X151229443Y-116632373D01*
X151175524Y-116668819D01*
X151128245Y-116721152D01*
X151092850Y-116781632D01*
X151066112Y-116854613D01*
X151048885Y-116942476D01*
X151042699Y-117048040D01*
X150847977Y-117048040D01*
X150857060Y-116912335D01*
X150882752Y-116796153D01*
X150923448Y-116696413D01*
X150978585Y-116610601D01*
X151049998Y-116536813D01*
X151128990Y-116485669D01*
X151217199Y-116454871D01*
X151317289Y-116444272D01*
X151400804Y-116450143D01*
X151472753Y-116466812D01*
X151535001Y-116493365D01*
X151590970Y-116531000D01*
X151640885Y-116580547D01*
X151685119Y-116643574D01*
X151685119Y-116028082D01*
X151873705Y-116028082D01*
X151873705Y-117622500D01*
G37*
G36*
X152262051Y-116473581D02*
G01*
X152450637Y-116473581D01*
X152450637Y-117622500D01*
X152262051Y-117622500D01*
X152262051Y-116473581D01*
G37*
G36*
X152262051Y-116028082D02*
G01*
X152450637Y-116028082D01*
X152450637Y-116268417D01*
X152262051Y-116268417D01*
X152262051Y-116028082D01*
G37*
G36*
X153410779Y-116455095D02*
G01*
X153513235Y-116485850D01*
X153600931Y-116535380D01*
X153676309Y-116604465D01*
X153735239Y-116687781D01*
X153778955Y-116787247D01*
X153806786Y-116906017D01*
X153816718Y-117048040D01*
X153806808Y-117189492D01*
X153779010Y-117308043D01*
X153735296Y-117407566D01*
X153676309Y-117491158D01*
X153600902Y-117560462D01*
X153513195Y-117610129D01*
X153410749Y-117640960D01*
X153290069Y-117651809D01*
X153168790Y-117640935D01*
X153066077Y-117610064D01*
X152978372Y-117560394D01*
X152903189Y-117491158D01*
X152844452Y-117407602D01*
X152800905Y-117308091D01*
X152773206Y-117189528D01*
X152763329Y-117048040D01*
X152962173Y-117048040D01*
X152968466Y-117152836D01*
X152986032Y-117240423D01*
X153013385Y-117313535D01*
X153049734Y-117374471D01*
X153098025Y-117426906D01*
X153153129Y-117463516D01*
X153216399Y-117485790D01*
X153290069Y-117493539D01*
X153362580Y-117485811D01*
X153425243Y-117463527D01*
X153480205Y-117426764D01*
X153528756Y-117373921D01*
X153565399Y-117312714D01*
X153592917Y-117239560D01*
X153610557Y-117152223D01*
X153616866Y-117048040D01*
X153610576Y-116944434D01*
X153592964Y-116857336D01*
X153565448Y-116784153D01*
X153528756Y-116722709D01*
X153480170Y-116669593D01*
X153425195Y-116632667D01*
X153362546Y-116610297D01*
X153290069Y-116602541D01*
X153216943Y-116610268D01*
X153153914Y-116632516D01*
X153098801Y-116669149D01*
X153050284Y-116721701D01*
X153013693Y-116782627D01*
X152986172Y-116855719D01*
X152968502Y-116943276D01*
X152962173Y-117048040D01*
X152763329Y-117048040D01*
X152773227Y-116905981D01*
X152800960Y-116787198D01*
X152844509Y-116687746D01*
X152903189Y-116604465D01*
X152978343Y-116535447D01*
X153066036Y-116485914D01*
X153168760Y-116455121D01*
X153290069Y-116444272D01*
X153410779Y-116455095D01*
G37*
G36*
X155361302Y-116455095D02*
G01*
X155463758Y-116485850D01*
X155551454Y-116535380D01*
X155626832Y-116604465D01*
X155685763Y-116687781D01*
X155729479Y-116787247D01*
X155757309Y-116906017D01*
X155767241Y-117048040D01*
X155757331Y-117189492D01*
X155729533Y-117308043D01*
X155685820Y-117407566D01*
X155626832Y-117491158D01*
X155551425Y-117560462D01*
X155463718Y-117610129D01*
X155361272Y-117640960D01*
X155240593Y-117651809D01*
X155119313Y-117640935D01*
X155016600Y-117610064D01*
X154928895Y-117560394D01*
X154853712Y-117491158D01*
X154794975Y-117407602D01*
X154751429Y-117308091D01*
X154723729Y-117189528D01*
X154713852Y-117048040D01*
X154912697Y-117048040D01*
X154918989Y-117152836D01*
X154936556Y-117240423D01*
X154963909Y-117313535D01*
X155000258Y-117374471D01*
X155048548Y-117426906D01*
X155103652Y-117463516D01*
X155166923Y-117485790D01*
X155240593Y-117493539D01*
X155313104Y-117485811D01*
X155375766Y-117463527D01*
X155430728Y-117426764D01*
X155479279Y-117373921D01*
X155515922Y-117312714D01*
X155543441Y-117239560D01*
X155561081Y-117152223D01*
X155567390Y-117048040D01*
X155561099Y-116944434D01*
X155543487Y-116857336D01*
X155515971Y-116784153D01*
X155479279Y-116722709D01*
X155430694Y-116669593D01*
X155375719Y-116632667D01*
X155313069Y-116610297D01*
X155240593Y-116602541D01*
X155167467Y-116610268D01*
X155104438Y-116632516D01*
X155049325Y-116669149D01*
X155000807Y-116721701D01*
X154964216Y-116782627D01*
X154936695Y-116855719D01*
X154919025Y-116943276D01*
X154912697Y-117048040D01*
X154713852Y-117048040D01*
X154723751Y-116905981D01*
X154751483Y-116787198D01*
X154795032Y-116687746D01*
X154853712Y-116604465D01*
X154928866Y-116535447D01*
X155016560Y-116485914D01*
X155119283Y-116455121D01*
X155240593Y-116444272D01*
X155361302Y-116455095D01*
G37*
G36*
X156060149Y-117169490D02*
G01*
X156060149Y-116473581D01*
X156248644Y-116473581D01*
X156248644Y-117162346D01*
X156256942Y-117269343D01*
X156279038Y-117348526D01*
X156312116Y-117406345D01*
X156359920Y-117450472D01*
X156421965Y-117477811D01*
X156502809Y-117487677D01*
X156577880Y-117481106D01*
X156641818Y-117462422D01*
X156696715Y-117432352D01*
X156744060Y-117390499D01*
X156781564Y-117339651D01*
X156809130Y-117279752D01*
X156826542Y-117209060D01*
X156832720Y-117125343D01*
X156832720Y-116473581D01*
X157021306Y-116473581D01*
X157021306Y-117622500D01*
X156832720Y-117622500D01*
X156832720Y-117446645D01*
X156782813Y-117512002D01*
X156729770Y-117562981D01*
X156673352Y-117601342D01*
X156611099Y-117628892D01*
X156541400Y-117645902D01*
X156462784Y-117651809D01*
X156365169Y-117643278D01*
X156284646Y-117619350D01*
X156217889Y-117581355D01*
X156162548Y-117528985D01*
X156120427Y-117465607D01*
X156088459Y-117386853D01*
X156067683Y-117289464D01*
X156060149Y-117169490D01*
G37*
G36*
X157596681Y-116145319D02*
G01*
X157596681Y-116473581D01*
X157985027Y-116473581D01*
X157985027Y-116620127D01*
X157596681Y-116620127D01*
X157596681Y-117243679D01*
X157602542Y-117338150D01*
X157616604Y-117393984D01*
X157635058Y-117424205D01*
X157664046Y-117444052D01*
X157713127Y-117458423D01*
X157791404Y-117464230D01*
X157985027Y-117464230D01*
X157985027Y-117622500D01*
X157791404Y-117622500D01*
X157678256Y-117615906D01*
X157594369Y-117598471D01*
X157533402Y-117572952D01*
X157490161Y-117540892D01*
X157457470Y-117498163D01*
X157431541Y-117437984D01*
X157413861Y-117355248D01*
X157407179Y-117243679D01*
X157407179Y-116620127D01*
X157268785Y-116620127D01*
X157268785Y-116473581D01*
X157407179Y-116473581D01*
X157407179Y-116145319D01*
X157596681Y-116145319D01*
G37*
D11*
G36*
X127180761Y-159600794D02*
G01*
X127287394Y-159623317D01*
X127371969Y-159657647D01*
X127438533Y-159702472D01*
X127493034Y-159761605D01*
X127533041Y-159834467D01*
X127558517Y-159923991D01*
X127567677Y-160034214D01*
X127559608Y-160128696D01*
X127536847Y-160207843D01*
X127500541Y-160274549D01*
X127450070Y-160330812D01*
X127385864Y-160374902D01*
X127305360Y-160407082D01*
X127368356Y-160440411D01*
X127434961Y-160503252D01*
X127494816Y-160585373D01*
X127561540Y-160705577D01*
X127771650Y-161122500D01*
X127549267Y-161122500D01*
X127353537Y-160731131D01*
X127297440Y-160630879D01*
X127248770Y-160566170D01*
X127206442Y-160527799D01*
X127156541Y-160501234D01*
X127093008Y-160483995D01*
X127012360Y-160477698D01*
X126786955Y-160477698D01*
X126786955Y-161122500D01*
X126579959Y-161122500D01*
X126579959Y-160307705D01*
X126786955Y-160307705D01*
X127047165Y-160307705D01*
X127144644Y-160298863D01*
X127218108Y-160274969D01*
X127273120Y-160238279D01*
X127314180Y-160187169D01*
X127340087Y-160120695D01*
X127349507Y-160034123D01*
X127340063Y-159947574D01*
X127314142Y-159881476D01*
X127273120Y-159830974D01*
X127218191Y-159794856D01*
X127144732Y-159771287D01*
X127047165Y-159762555D01*
X126786955Y-159762555D01*
X126786955Y-160307705D01*
X126579959Y-160307705D01*
X126579959Y-159592562D01*
X127047165Y-159592562D01*
X127180761Y-159600794D01*
G37*
G36*
X128530429Y-159954314D02*
G01*
X128627467Y-159982889D01*
X128710910Y-160028932D01*
X128782999Y-160093107D01*
X128840003Y-160170821D01*
X128881896Y-160262245D01*
X128908347Y-160370011D01*
X128917729Y-160497482D01*
X128917729Y-160589073D01*
X128050820Y-160589073D01*
X128063951Y-160687692D01*
X128088579Y-160768874D01*
X128123425Y-160835582D01*
X128168148Y-160890133D01*
X128223502Y-160933925D01*
X128289233Y-160966037D01*
X128367398Y-160986325D01*
X128460690Y-160993539D01*
X128568038Y-160986895D01*
X128671258Y-160967161D01*
X128771974Y-160934541D01*
X128873674Y-160888026D01*
X128873674Y-161063881D01*
X128770767Y-161101753D01*
X128665579Y-161129277D01*
X128558369Y-161146166D01*
X128449424Y-161151809D01*
X128338923Y-161144716D01*
X128241988Y-161124454D01*
X128156631Y-161092062D01*
X128081201Y-161047896D01*
X128014458Y-160991616D01*
X127958055Y-160924910D01*
X127913831Y-160849641D01*
X127881424Y-160764591D01*
X127861168Y-160668131D01*
X127854082Y-160558299D01*
X127862686Y-160443535D01*
X128056956Y-160443535D01*
X128729143Y-160442527D01*
X128717793Y-160342391D01*
X128688564Y-160261231D01*
X128642590Y-160195048D01*
X128580956Y-160144150D01*
X128507501Y-160113340D01*
X128418649Y-160102541D01*
X128316952Y-160113251D01*
X128234115Y-160143376D01*
X128166041Y-160191934D01*
X128113363Y-160257040D01*
X128076682Y-160339447D01*
X128056956Y-160443535D01*
X127862686Y-160443535D01*
X127864620Y-160417739D01*
X127894391Y-160298492D01*
X127941672Y-160196907D01*
X128006215Y-160110143D01*
X128070344Y-160051197D01*
X128142157Y-160005425D01*
X128222732Y-159972154D01*
X128313595Y-159951480D01*
X128416634Y-159944272D01*
X128530429Y-159954314D01*
G37*
G36*
X129091844Y-159973581D02*
G01*
X129291696Y-159973581D01*
X129650366Y-160937852D01*
X130008945Y-159973581D01*
X130208797Y-159973581D01*
X129778410Y-161122500D01*
X129522230Y-161122500D01*
X129091844Y-159973581D01*
G37*
G36*
X130402237Y-160864579D02*
G01*
X130618484Y-160864579D01*
X130618484Y-161122500D01*
X130402237Y-161122500D01*
X130402237Y-160864579D01*
G37*
G36*
X130402237Y-160038061D02*
G01*
X130618484Y-160038061D01*
X130618484Y-160295982D01*
X130402237Y-160295982D01*
X130402237Y-160038061D01*
G37*
G36*
X132238547Y-159765395D02*
G01*
X132332861Y-159772281D01*
X132422919Y-159784812D01*
X132511237Y-159803101D01*
X132597126Y-159827035D01*
X132597126Y-160008752D01*
X132510686Y-159970706D01*
X132422461Y-159942532D01*
X132331843Y-159923945D01*
X132238547Y-159914963D01*
X132238547Y-160353318D01*
X132391415Y-160386798D01*
X132502405Y-160430253D01*
X132580731Y-160481179D01*
X132628320Y-160530926D01*
X132662167Y-160588308D01*
X132683048Y-160654845D01*
X132690365Y-160732780D01*
X132682570Y-160817408D01*
X132660352Y-160889573D01*
X132624418Y-160951698D01*
X132574045Y-161005446D01*
X132513999Y-161047474D01*
X132439936Y-161081262D01*
X132349189Y-161106083D01*
X132238547Y-161120484D01*
X132238547Y-161433176D01*
X132136056Y-161433176D01*
X132135049Y-161122500D01*
X132027712Y-161115296D01*
X131919810Y-161097587D01*
X131812931Y-161069167D01*
X131703655Y-161028710D01*
X131703655Y-160846994D01*
X131810015Y-160904524D01*
X131915230Y-160944996D01*
X132023769Y-160969946D01*
X132136056Y-160978976D01*
X132136056Y-160975954D01*
X132238547Y-160975954D01*
X132323645Y-160958467D01*
X132387586Y-160933429D01*
X132434735Y-160902223D01*
X132471376Y-160860780D01*
X132493258Y-160812009D01*
X132500863Y-160753571D01*
X132493543Y-160696412D01*
X132472626Y-160649408D01*
X132437849Y-160610139D01*
X132392813Y-160580412D01*
X132328232Y-160554023D01*
X132238547Y-160532287D01*
X132238547Y-160975954D01*
X132136056Y-160975954D01*
X132136056Y-160511679D01*
X131987091Y-160477784D01*
X131880471Y-160435186D01*
X131806603Y-160386290D01*
X131762069Y-160338633D01*
X131730260Y-160283421D01*
X131710570Y-160219157D01*
X131703655Y-160143666D01*
X131705227Y-160126447D01*
X131892149Y-160126447D01*
X131899017Y-160182643D01*
X131918370Y-160227622D01*
X131950035Y-160264016D01*
X131991505Y-160291300D01*
X132051673Y-160315344D01*
X132136056Y-160334816D01*
X132136056Y-159913955D01*
X132058588Y-159928666D01*
X131999335Y-159951673D01*
X131954614Y-159981733D01*
X131920139Y-160021631D01*
X131899398Y-160069086D01*
X131892149Y-160126447D01*
X131705227Y-160126447D01*
X131711152Y-160061566D01*
X131732505Y-159991602D01*
X131767007Y-159931429D01*
X131815304Y-159879426D01*
X131873108Y-159838602D01*
X131944093Y-159805935D01*
X132030742Y-159782086D01*
X132136056Y-159768417D01*
X132136056Y-159528082D01*
X132238547Y-159528082D01*
X132238547Y-159765395D01*
G37*
G36*
X133937286Y-161315940D02*
G01*
X133937286Y-161462486D01*
X133873813Y-161462486D01*
X133739085Y-161456019D01*
X133642872Y-161439255D01*
X133576317Y-161415456D01*
X133531996Y-161386740D01*
X133498286Y-161346470D01*
X133471271Y-161287128D01*
X133452592Y-161202551D01*
X133445442Y-161085039D01*
X133445442Y-160840491D01*
X133437706Y-160737631D01*
X133418056Y-160669153D01*
X133390121Y-160625343D01*
X133348708Y-160594836D01*
X133284727Y-160573824D01*
X133189262Y-160565626D01*
X133126797Y-160565626D01*
X133126797Y-160419080D01*
X133189262Y-160419080D01*
X133285541Y-160410966D01*
X133349567Y-160390257D01*
X133390579Y-160360370D01*
X133418323Y-160317267D01*
X133437790Y-160250128D01*
X133445442Y-160149528D01*
X133445442Y-159904430D01*
X133452602Y-159786890D01*
X133471294Y-159702436D01*
X133498306Y-159643302D01*
X133531996Y-159603278D01*
X133576276Y-159574790D01*
X133642811Y-159551160D01*
X133739035Y-159534507D01*
X133873813Y-159528082D01*
X133937286Y-159528082D01*
X133937286Y-159674628D01*
X133867677Y-159674628D01*
X133771188Y-159681309D01*
X133712403Y-159697601D01*
X133679091Y-159719599D01*
X133657530Y-159753293D01*
X133641568Y-159812266D01*
X133635036Y-159908460D01*
X133635036Y-160161709D01*
X133628611Y-160268741D01*
X133612036Y-160343795D01*
X133588416Y-160394808D01*
X133552053Y-160436214D01*
X133500291Y-160469062D01*
X133429047Y-160492903D01*
X133500932Y-160518072D01*
X133552806Y-160551744D01*
X133588874Y-160593469D01*
X133612268Y-160644554D01*
X133628679Y-160719548D01*
X133635036Y-160826294D01*
X133635036Y-161080917D01*
X133641571Y-161177625D01*
X133657538Y-161236914D01*
X133679091Y-161270785D01*
X133712421Y-161292881D01*
X133771209Y-161309235D01*
X133867677Y-161315940D01*
X133937286Y-161315940D01*
G37*
G36*
X134799982Y-161122500D02*
G01*
X134215906Y-159592562D01*
X134432153Y-159592562D01*
X134916761Y-160880699D01*
X135402468Y-159592562D01*
X135617707Y-159592562D01*
X135034639Y-161122500D01*
X134799982Y-161122500D01*
G37*
G36*
X135841648Y-159592562D02*
G01*
X136808941Y-159592562D01*
X136808941Y-159768417D01*
X136048643Y-159768417D01*
X136048643Y-160219778D01*
X136777159Y-160219778D01*
X136777159Y-160395633D01*
X136048643Y-160395633D01*
X136048643Y-160946645D01*
X136827351Y-160946645D01*
X136827351Y-161122500D01*
X135841648Y-161122500D01*
X135841648Y-159592562D01*
G37*
G36*
X137768689Y-159600794D02*
G01*
X137875322Y-159623317D01*
X137959896Y-159657647D01*
X138026461Y-159702472D01*
X138080961Y-159761605D01*
X138120968Y-159834467D01*
X138146444Y-159923991D01*
X138155604Y-160034214D01*
X138147535Y-160128696D01*
X138124774Y-160207843D01*
X138088468Y-160274549D01*
X138037997Y-160330812D01*
X137973791Y-160374902D01*
X137893287Y-160407082D01*
X137956283Y-160440411D01*
X138022889Y-160503252D01*
X138082743Y-160585373D01*
X138149468Y-160705577D01*
X138359578Y-161122500D01*
X138137195Y-161122500D01*
X137941464Y-160731131D01*
X137885368Y-160630879D01*
X137836697Y-160566170D01*
X137794369Y-160527799D01*
X137744469Y-160501234D01*
X137680935Y-160483995D01*
X137600288Y-160477698D01*
X137374882Y-160477698D01*
X137374882Y-161122500D01*
X137167886Y-161122500D01*
X137167886Y-160307705D01*
X137374882Y-160307705D01*
X137635092Y-160307705D01*
X137732572Y-160298863D01*
X137806035Y-160274969D01*
X137861047Y-160238279D01*
X137902108Y-160187169D01*
X137928015Y-160120695D01*
X137937434Y-160034123D01*
X137927990Y-159947574D01*
X137902069Y-159881476D01*
X137861047Y-159830974D01*
X137806118Y-159794856D01*
X137732659Y-159771287D01*
X137635092Y-159762555D01*
X137374882Y-159762555D01*
X137374882Y-160307705D01*
X137167886Y-160307705D01*
X137167886Y-159592562D01*
X137635092Y-159592562D01*
X137768689Y-159600794D01*
G37*
G36*
X139543117Y-159639457D02*
G01*
X139543117Y-159838759D01*
X139425920Y-159791376D01*
X139320734Y-159759441D01*
X139216754Y-159739632D01*
X139118868Y-159733246D01*
X139007609Y-159741598D01*
X138922531Y-159764135D01*
X138858016Y-159798276D01*
X138807194Y-159847571D01*
X138776936Y-159907999D01*
X138766334Y-159983198D01*
X138773782Y-160047466D01*
X138794367Y-160096905D01*
X138827333Y-160135056D01*
X138871615Y-160163007D01*
X138944951Y-160191066D01*
X139058417Y-160217855D01*
X139183439Y-160243592D01*
X139300234Y-160272588D01*
X139393694Y-160308912D01*
X139467591Y-160351397D01*
X139525074Y-160399480D01*
X139572256Y-160458381D01*
X139606428Y-160526520D01*
X139627753Y-160605682D01*
X139635258Y-160698250D01*
X139625042Y-160807701D01*
X139596276Y-160898271D01*
X139550253Y-160973749D01*
X139486148Y-161036679D01*
X139409887Y-161083709D01*
X139314479Y-161119711D01*
X139195853Y-161143247D01*
X139049167Y-161151809D01*
X138939152Y-161145735D01*
X138818083Y-161126621D01*
X138695296Y-161095952D01*
X138564467Y-161052158D01*
X138564467Y-160841132D01*
X138691304Y-160903226D01*
X138811396Y-160946370D01*
X138932443Y-160973119D01*
X139049167Y-160981816D01*
X139165729Y-160972884D01*
X139254963Y-160948755D01*
X139322749Y-160912115D01*
X139364833Y-160873592D01*
X139394482Y-160828576D01*
X139412706Y-160775790D01*
X139419103Y-160713179D01*
X139410817Y-160640962D01*
X139387581Y-160583271D01*
X139349952Y-160536775D01*
X139300006Y-160501228D01*
X139226676Y-160468966D01*
X139122989Y-160441428D01*
X138996960Y-160416699D01*
X138878712Y-160387253D01*
X138786275Y-160352708D01*
X138715240Y-160314217D01*
X138661828Y-160272443D01*
X138617685Y-160220221D01*
X138585603Y-160158629D01*
X138565465Y-160085804D01*
X138558330Y-159999227D01*
X138567829Y-159900455D01*
X138594968Y-159816077D01*
X138639072Y-159743209D01*
X138701304Y-159679940D01*
X138775130Y-159631192D01*
X138863444Y-159594810D01*
X138969037Y-159571563D01*
X139095329Y-159563253D01*
X139203208Y-159567955D01*
X139314598Y-159582304D01*
X139426451Y-159605831D01*
X139543117Y-159639457D01*
G37*
G36*
X139958117Y-159592562D02*
G01*
X140165112Y-159592562D01*
X140165112Y-161122500D01*
X139958117Y-161122500D01*
X139958117Y-159592562D01*
G37*
G36*
X141325367Y-159572528D02*
G01*
X141438649Y-159599210D01*
X141539695Y-159642329D01*
X141630356Y-159701944D01*
X141711902Y-159779133D01*
X141779028Y-159867868D01*
X141832136Y-159968261D01*
X141871315Y-160081969D01*
X141895902Y-160211089D01*
X141904518Y-160358080D01*
X141895913Y-160504571D01*
X141871346Y-160633351D01*
X141832182Y-160746860D01*
X141779067Y-160847173D01*
X141711902Y-160935928D01*
X141630356Y-161013118D01*
X141539695Y-161072733D01*
X141438649Y-161115852D01*
X141325367Y-161142533D01*
X141197527Y-161151809D01*
X141069221Y-161142547D01*
X140955555Y-161115909D01*
X140854203Y-161072879D01*
X140763310Y-161013419D01*
X140681594Y-160936478D01*
X140614269Y-160847894D01*
X140561012Y-160747637D01*
X140521726Y-160634047D01*
X140497070Y-160505019D01*
X140488429Y-160358080D01*
X140706690Y-160358080D01*
X140716096Y-160503093D01*
X140742472Y-160625063D01*
X140783833Y-160727715D01*
X140839314Y-160814112D01*
X140911669Y-160887642D01*
X140993969Y-160939299D01*
X141088213Y-160970838D01*
X141197527Y-160981816D01*
X141306797Y-160970823D01*
X141400804Y-160939268D01*
X141482715Y-160887615D01*
X141554549Y-160814112D01*
X141609618Y-160727773D01*
X141650699Y-160625142D01*
X141676908Y-160503152D01*
X141686257Y-160358080D01*
X141676895Y-160212402D01*
X141650663Y-160090057D01*
X141609579Y-159987276D01*
X141554549Y-159900949D01*
X141482715Y-159827446D01*
X141400804Y-159775794D01*
X141306797Y-159744239D01*
X141197527Y-159733246D01*
X141088213Y-159744224D01*
X140993969Y-159775763D01*
X140911669Y-159827419D01*
X140839314Y-159900949D01*
X140783871Y-159987334D01*
X140742507Y-160090136D01*
X140716110Y-160212460D01*
X140706690Y-160358080D01*
X140488429Y-160358080D01*
X140497066Y-160211118D01*
X140521715Y-160082014D01*
X140560998Y-159968306D01*
X140614259Y-159867897D01*
X140681594Y-159779133D01*
X140763339Y-159701973D01*
X140854248Y-159642361D01*
X140955599Y-159599230D01*
X141069250Y-159572534D01*
X141197527Y-159563253D01*
X141325367Y-159572528D01*
G37*
G36*
X142228110Y-159592562D02*
G01*
X142506821Y-159592562D01*
X143185145Y-160872456D01*
X143185145Y-159592562D01*
X143386004Y-159592562D01*
X143386004Y-161122500D01*
X143107292Y-161122500D01*
X142428877Y-159842606D01*
X142428877Y-161122500D01*
X142228110Y-161122500D01*
X142228110Y-159592562D01*
G37*
G36*
X143853943Y-161315940D02*
G01*
X143925658Y-161315940D01*
X144021473Y-161309366D01*
X144079710Y-161293358D01*
X144112596Y-161271793D01*
X144133812Y-161238515D01*
X144149663Y-161179123D01*
X144156193Y-161080917D01*
X144156193Y-160826294D01*
X144162538Y-160719541D01*
X144178918Y-160644547D01*
X144202263Y-160593469D01*
X144238384Y-160551740D01*
X144290293Y-160518069D01*
X144362181Y-160492903D01*
X144290278Y-160469000D01*
X144238394Y-160436138D01*
X144202263Y-160394808D01*
X144178936Y-160343838D01*
X144162548Y-160268787D01*
X144156193Y-160161709D01*
X144156193Y-159908460D01*
X144149694Y-159811493D01*
X144133868Y-159752451D01*
X144112596Y-159719050D01*
X144079683Y-159697338D01*
X144021441Y-159681237D01*
X143925658Y-159674628D01*
X143853943Y-159674628D01*
X143853943Y-159528082D01*
X143918514Y-159528082D01*
X144053368Y-159534525D01*
X144149345Y-159551203D01*
X144215452Y-159574831D01*
X144259233Y-159603278D01*
X144292481Y-159643223D01*
X144319188Y-159702313D01*
X144337689Y-159786787D01*
X144344779Y-159904430D01*
X144344779Y-160149528D01*
X144352486Y-160250080D01*
X144372105Y-160317224D01*
X144400100Y-160360370D01*
X144441418Y-160390315D01*
X144505385Y-160410999D01*
X144600959Y-160419080D01*
X144664432Y-160419080D01*
X144664432Y-160565626D01*
X144600959Y-160565626D01*
X144505495Y-160573824D01*
X144441514Y-160594836D01*
X144400100Y-160625343D01*
X144372165Y-160669153D01*
X144352515Y-160737631D01*
X144344779Y-160840491D01*
X144344779Y-161085039D01*
X144337699Y-161202654D01*
X144319210Y-161287251D01*
X144292502Y-161346549D01*
X144259233Y-161386740D01*
X144215411Y-161415416D01*
X144149283Y-161439212D01*
X144053317Y-161456001D01*
X143918514Y-161462486D01*
X143853943Y-161462486D01*
X143853943Y-161315940D01*
G37*
G36*
X146302538Y-159765395D02*
G01*
X146396853Y-159772281D01*
X146486911Y-159784812D01*
X146575229Y-159803101D01*
X146661117Y-159827035D01*
X146661117Y-160008752D01*
X146574678Y-159970706D01*
X146486453Y-159942532D01*
X146395835Y-159923945D01*
X146302538Y-159914963D01*
X146302538Y-160353318D01*
X146455407Y-160386798D01*
X146566397Y-160430253D01*
X146644722Y-160481179D01*
X146692312Y-160530926D01*
X146726159Y-160588308D01*
X146747039Y-160654845D01*
X146754357Y-160732780D01*
X146746561Y-160817408D01*
X146724344Y-160889573D01*
X146688410Y-160951698D01*
X146638036Y-161005446D01*
X146577991Y-161047474D01*
X146503928Y-161081262D01*
X146413181Y-161106083D01*
X146302538Y-161120484D01*
X146302538Y-161433176D01*
X146200048Y-161433176D01*
X146199040Y-161122500D01*
X146091703Y-161115296D01*
X145983801Y-161097587D01*
X145876923Y-161069167D01*
X145767646Y-161028710D01*
X145767646Y-160846994D01*
X145874006Y-160904524D01*
X145979222Y-160944996D01*
X146087760Y-160969946D01*
X146200048Y-160978976D01*
X146200048Y-160975954D01*
X146302538Y-160975954D01*
X146387637Y-160958467D01*
X146451577Y-160933429D01*
X146498726Y-160902223D01*
X146535368Y-160860780D01*
X146557250Y-160812009D01*
X146564855Y-160753571D01*
X146557535Y-160696412D01*
X146536617Y-160649408D01*
X146501840Y-160610139D01*
X146456805Y-160580412D01*
X146392224Y-160554023D01*
X146302538Y-160532287D01*
X146302538Y-160975954D01*
X146200048Y-160975954D01*
X146200048Y-160511679D01*
X146051083Y-160477784D01*
X145944462Y-160435186D01*
X145870595Y-160386290D01*
X145826061Y-160338633D01*
X145794252Y-160283421D01*
X145774562Y-160219157D01*
X145767646Y-160143666D01*
X145769218Y-160126447D01*
X145956141Y-160126447D01*
X145963009Y-160182643D01*
X145982362Y-160227622D01*
X146014026Y-160264016D01*
X146055496Y-160291300D01*
X146115665Y-160315344D01*
X146200048Y-160334816D01*
X146200048Y-159913955D01*
X146122580Y-159928666D01*
X146063327Y-159951673D01*
X146018606Y-159981733D01*
X145984130Y-160021631D01*
X145963389Y-160069086D01*
X145956141Y-160126447D01*
X145769218Y-160126447D01*
X145775143Y-160061566D01*
X145796497Y-159991602D01*
X145830998Y-159931429D01*
X145879296Y-159879426D01*
X145937100Y-159838602D01*
X146008085Y-159805935D01*
X146094733Y-159782086D01*
X146200048Y-159768417D01*
X146200048Y-159528082D01*
X146302538Y-159528082D01*
X146302538Y-159765395D01*
G37*
G36*
X148001278Y-161315940D02*
G01*
X148001278Y-161462486D01*
X147937805Y-161462486D01*
X147803077Y-161456019D01*
X147706864Y-161439255D01*
X147640309Y-161415456D01*
X147595987Y-161386740D01*
X147562278Y-161346470D01*
X147535263Y-161287128D01*
X147516583Y-161202551D01*
X147509434Y-161085039D01*
X147509434Y-160840491D01*
X147501698Y-160737631D01*
X147482047Y-160669153D01*
X147454113Y-160625343D01*
X147412699Y-160594836D01*
X147348718Y-160573824D01*
X147253253Y-160565626D01*
X147190788Y-160565626D01*
X147190788Y-160419080D01*
X147253253Y-160419080D01*
X147349532Y-160410966D01*
X147413559Y-160390257D01*
X147454571Y-160360370D01*
X147482315Y-160317267D01*
X147501782Y-160250128D01*
X147509434Y-160149528D01*
X147509434Y-159904430D01*
X147516593Y-159786890D01*
X147535286Y-159702436D01*
X147562298Y-159643302D01*
X147595987Y-159603278D01*
X147640268Y-159574790D01*
X147706802Y-159551160D01*
X147803027Y-159534507D01*
X147937805Y-159528082D01*
X148001278Y-159528082D01*
X148001278Y-159674628D01*
X147931669Y-159674628D01*
X147835179Y-159681309D01*
X147776394Y-159697601D01*
X147743083Y-159719599D01*
X147721522Y-159753293D01*
X147705560Y-159812266D01*
X147699027Y-159908460D01*
X147699027Y-160161709D01*
X147692603Y-160268741D01*
X147676028Y-160343795D01*
X147652407Y-160394808D01*
X147616044Y-160436214D01*
X147564282Y-160469062D01*
X147493039Y-160492903D01*
X147564924Y-160518072D01*
X147616798Y-160551744D01*
X147652865Y-160593469D01*
X147676260Y-160644554D01*
X147692671Y-160719548D01*
X147699027Y-160826294D01*
X147699027Y-161080917D01*
X147705563Y-161177625D01*
X147721529Y-161236914D01*
X147743083Y-161270785D01*
X147776412Y-161292881D01*
X147835201Y-161309235D01*
X147931669Y-161315940D01*
X148001278Y-161315940D01*
G37*
G36*
X149512622Y-160904330D02*
G01*
X149512622Y-160495284D01*
X149174468Y-160495284D01*
X149174468Y-160325291D01*
X149717511Y-160325291D01*
X149717511Y-160979801D01*
X149635131Y-161031696D01*
X149547178Y-161074489D01*
X149453088Y-161108303D01*
X149305336Y-161140710D01*
X149144701Y-161151809D01*
X149000190Y-161142451D01*
X148874374Y-161115804D01*
X148764463Y-161073335D01*
X148668146Y-161015570D01*
X148583705Y-160942065D01*
X148513449Y-160855427D01*
X148457769Y-160755880D01*
X148416543Y-160641521D01*
X148390541Y-160509891D01*
X148381381Y-160358080D01*
X148390551Y-160205766D01*
X148416575Y-160073798D01*
X148457815Y-159959242D01*
X148513490Y-159859615D01*
X148583705Y-159772997D01*
X148668144Y-159699495D01*
X148764468Y-159641731D01*
X148874396Y-159599261D01*
X149000239Y-159572612D01*
X149144792Y-159563253D01*
X149291819Y-159572703D01*
X149429091Y-159600439D01*
X149559120Y-159646565D01*
X149677577Y-159709799D01*
X149677577Y-159932548D01*
X149598212Y-159871055D01*
X149517036Y-159821588D01*
X149433670Y-159783346D01*
X149346449Y-159755588D01*
X149256192Y-159738878D01*
X149162195Y-159733246D01*
X149047945Y-159740499D01*
X148951138Y-159760896D01*
X148869044Y-159792959D01*
X148799396Y-159836014D01*
X148740509Y-159890233D01*
X148682492Y-159971780D01*
X148638565Y-160073791D01*
X148610012Y-160200724D01*
X148599642Y-160358080D01*
X148609998Y-160514823D01*
X148638528Y-160641406D01*
X148682453Y-160743272D01*
X148740509Y-160824829D01*
X148799433Y-160879054D01*
X148869103Y-160922111D01*
X148951202Y-160954171D01*
X149047990Y-160974565D01*
X149162195Y-160981816D01*
X149268729Y-160976824D01*
X149357833Y-160962948D01*
X149440574Y-160938481D01*
X149512622Y-160904330D01*
G37*
G36*
X150096149Y-159592562D02*
G01*
X150303144Y-159592562D01*
X150303144Y-161122500D01*
X150096149Y-161122500D01*
X150096149Y-159592562D01*
G37*
G36*
X150502447Y-159592562D02*
G01*
X151796628Y-159592562D01*
X151796628Y-159768417D01*
X151253493Y-159768417D01*
X151253493Y-161122500D01*
X151045490Y-161122500D01*
X151045490Y-159768417D01*
X150502447Y-159768417D01*
X150502447Y-159592562D01*
G37*
G36*
X152860642Y-161468347D02*
G01*
X152860642Y-161614893D01*
X151770342Y-161614893D01*
X151770342Y-161468347D01*
X152860642Y-161468347D01*
G37*
G36*
X153046114Y-159592562D02*
G01*
X153253110Y-159592562D01*
X153253110Y-160219778D01*
X154005164Y-160219778D01*
X154005164Y-159592562D01*
X154212160Y-159592562D01*
X154212160Y-161122500D01*
X154005164Y-161122500D01*
X154005164Y-160395633D01*
X153253110Y-160395633D01*
X153253110Y-161122500D01*
X153046114Y-161122500D01*
X153046114Y-159592562D01*
G37*
G36*
X155836619Y-161122500D02*
G01*
X155621380Y-161122500D01*
X155482070Y-160729757D01*
X154792389Y-160729757D01*
X154653079Y-161122500D01*
X154434817Y-161122500D01*
X154649650Y-160559764D01*
X154854946Y-160559764D01*
X155417498Y-160559764D01*
X155135672Y-159796902D01*
X154854946Y-160559764D01*
X154649650Y-160559764D01*
X155018894Y-159592562D01*
X155253550Y-159592562D01*
X155836619Y-161122500D01*
G37*
G36*
X156977660Y-159639457D02*
G01*
X156977660Y-159838759D01*
X156860463Y-159791376D01*
X156755277Y-159759441D01*
X156651297Y-159739632D01*
X156553410Y-159733246D01*
X156442151Y-159741598D01*
X156357073Y-159764135D01*
X156292559Y-159798276D01*
X156241737Y-159847571D01*
X156211479Y-159907999D01*
X156200876Y-159983198D01*
X156208325Y-160047466D01*
X156228910Y-160096905D01*
X156261876Y-160135056D01*
X156306158Y-160163007D01*
X156379494Y-160191066D01*
X156492960Y-160217855D01*
X156617982Y-160243592D01*
X156734777Y-160272588D01*
X156828237Y-160308912D01*
X156902134Y-160351397D01*
X156959617Y-160399480D01*
X157006799Y-160458381D01*
X157040971Y-160526520D01*
X157062296Y-160605682D01*
X157069801Y-160698250D01*
X157059585Y-160807701D01*
X157030819Y-160898271D01*
X156984796Y-160973749D01*
X156920691Y-161036679D01*
X156844430Y-161083709D01*
X156749022Y-161119711D01*
X156630396Y-161143247D01*
X156483710Y-161151809D01*
X156373694Y-161145735D01*
X156252625Y-161126621D01*
X156129839Y-161095952D01*
X155999010Y-161052158D01*
X155999010Y-160841132D01*
X156125847Y-160903226D01*
X156245939Y-160946370D01*
X156366986Y-160973119D01*
X156483710Y-160981816D01*
X156600272Y-160972884D01*
X156689506Y-160948755D01*
X156757292Y-160912115D01*
X156799376Y-160873592D01*
X156829025Y-160828576D01*
X156847249Y-160775790D01*
X156853646Y-160713179D01*
X156845360Y-160640962D01*
X156822124Y-160583271D01*
X156784495Y-160536775D01*
X156734549Y-160501228D01*
X156661219Y-160468966D01*
X156557532Y-160441428D01*
X156431503Y-160416699D01*
X156313255Y-160387253D01*
X156220818Y-160352708D01*
X156149783Y-160314217D01*
X156096371Y-160272443D01*
X156052228Y-160220221D01*
X156020146Y-160158629D01*
X156000008Y-160085804D01*
X155992873Y-159999227D01*
X156002372Y-159900455D01*
X156029511Y-159816077D01*
X156073615Y-159743209D01*
X156135847Y-159679940D01*
X156209673Y-159631192D01*
X156297987Y-159594810D01*
X156403580Y-159571563D01*
X156529872Y-159563253D01*
X156637751Y-159567955D01*
X156749141Y-159582304D01*
X156860994Y-159605831D01*
X156977660Y-159639457D01*
G37*
G36*
X157392659Y-159592562D02*
G01*
X157599655Y-159592562D01*
X157599655Y-160219778D01*
X158351710Y-160219778D01*
X158351710Y-159592562D01*
X158558705Y-159592562D01*
X158558705Y-161122500D01*
X158351710Y-161122500D01*
X158351710Y-160395633D01*
X157599655Y-160395633D01*
X157599655Y-161122500D01*
X157392659Y-161122500D01*
X157392659Y-159592562D01*
G37*
G36*
X159027285Y-161315940D02*
G01*
X159099001Y-161315940D01*
X159194816Y-161309366D01*
X159253053Y-161293358D01*
X159285938Y-161271793D01*
X159307155Y-161238515D01*
X159323006Y-161179123D01*
X159329536Y-161080917D01*
X159329536Y-160826294D01*
X159335881Y-160719541D01*
X159352260Y-160644547D01*
X159375606Y-160593469D01*
X159411727Y-160551740D01*
X159463635Y-160518069D01*
X159535524Y-160492903D01*
X159463621Y-160469000D01*
X159411736Y-160436138D01*
X159375606Y-160394808D01*
X159352278Y-160343838D01*
X159335890Y-160268787D01*
X159329536Y-160161709D01*
X159329536Y-159908460D01*
X159323037Y-159811493D01*
X159307211Y-159752451D01*
X159285938Y-159719050D01*
X159253026Y-159697338D01*
X159194784Y-159681237D01*
X159099001Y-159674628D01*
X159027285Y-159674628D01*
X159027285Y-159528082D01*
X159091857Y-159528082D01*
X159226711Y-159534525D01*
X159322688Y-159551203D01*
X159388795Y-159574831D01*
X159432576Y-159603278D01*
X159465824Y-159643223D01*
X159492530Y-159702313D01*
X159511032Y-159786787D01*
X159518122Y-159904430D01*
X159518122Y-160149528D01*
X159525829Y-160250080D01*
X159545448Y-160317224D01*
X159573443Y-160360370D01*
X159614761Y-160390315D01*
X159678728Y-160410999D01*
X159774302Y-160419080D01*
X159837775Y-160419080D01*
X159837775Y-160565626D01*
X159774302Y-160565626D01*
X159678837Y-160573824D01*
X159614856Y-160594836D01*
X159573443Y-160625343D01*
X159545508Y-160669153D01*
X159525857Y-160737631D01*
X159518122Y-160840491D01*
X159518122Y-161085039D01*
X159511042Y-161202654D01*
X159492553Y-161287251D01*
X159465844Y-161346549D01*
X159432576Y-161386740D01*
X159388754Y-161415416D01*
X159322626Y-161439212D01*
X159226660Y-161456001D01*
X159091857Y-161462486D01*
X159027285Y-161462486D01*
X159027285Y-161315940D01*
G37*
G36*
X61402725Y-160946645D02*
G01*
X62125104Y-160946645D01*
X62125104Y-161122500D01*
X61153689Y-161122500D01*
X61153689Y-160946645D01*
X61474899Y-160619665D01*
X61730530Y-160355150D01*
X61819828Y-160245523D01*
X61869382Y-160166380D01*
X61899356Y-160088314D01*
X61908858Y-160014431D01*
X61899032Y-159937038D01*
X61870705Y-159871825D01*
X61823312Y-159815861D01*
X61762270Y-159774094D01*
X61689084Y-159748252D01*
X61600471Y-159739108D01*
X61502348Y-159747153D01*
X61394940Y-159772539D01*
X61286433Y-159813168D01*
X61163948Y-159873930D01*
X61163948Y-159662904D01*
X61287744Y-159618684D01*
X61397505Y-159588441D01*
X61504274Y-159569207D01*
X61596349Y-159563253D01*
X61715185Y-159571546D01*
X61816116Y-159594944D01*
X61902084Y-159631956D01*
X61975444Y-159682138D01*
X62037197Y-159746419D01*
X62080824Y-159819465D01*
X62107550Y-159903036D01*
X62116861Y-159999776D01*
X62107964Y-160091914D01*
X62081507Y-160178654D01*
X62035686Y-160264483D01*
X61952913Y-160377956D01*
X61789972Y-160549597D01*
X61402725Y-160946645D01*
G37*
G36*
X63102948Y-159571903D02*
G01*
X63190588Y-159596689D01*
X63267438Y-159636848D01*
X63335261Y-159692952D01*
X63395014Y-159766860D01*
X63450042Y-159869589D01*
X63492621Y-159998578D01*
X63520630Y-160159299D01*
X63530844Y-160358080D01*
X63520642Y-160556238D01*
X63492653Y-160716625D01*
X63450076Y-160845505D01*
X63395014Y-160948293D01*
X63335266Y-161022163D01*
X63267446Y-161078242D01*
X63190596Y-161118385D01*
X63102953Y-161143162D01*
X63002089Y-161151809D01*
X62901226Y-161143163D01*
X62813572Y-161118387D01*
X62736703Y-161078245D01*
X62668855Y-161022165D01*
X62609071Y-160948293D01*
X62554050Y-160845511D01*
X62511501Y-160716633D01*
X62483529Y-160556244D01*
X62473333Y-160358080D01*
X62681337Y-160358080D01*
X62687627Y-160521857D01*
X62704650Y-160651455D01*
X62729985Y-160752580D01*
X62761754Y-160830324D01*
X62809018Y-160901555D01*
X62863785Y-160949438D01*
X62927191Y-160977859D01*
X63002089Y-160987677D01*
X63077517Y-160977832D01*
X63141229Y-160949367D01*
X63196115Y-160901477D01*
X63243340Y-160830324D01*
X63275146Y-160752575D01*
X63300510Y-160651448D01*
X63317551Y-160521852D01*
X63323848Y-160358080D01*
X63317542Y-160193680D01*
X63300487Y-160063753D01*
X63275122Y-159962521D01*
X63243340Y-159884829D01*
X63196110Y-159813628D01*
X63141221Y-159765712D01*
X63077511Y-159737233D01*
X63002089Y-159727384D01*
X62927197Y-159737207D01*
X62863793Y-159765641D01*
X62809024Y-159813551D01*
X62761754Y-159884829D01*
X62730009Y-159962516D01*
X62704673Y-160063746D01*
X62687636Y-160193675D01*
X62681337Y-160358080D01*
X62473333Y-160358080D01*
X62483541Y-160159292D01*
X62511532Y-159998570D01*
X62554084Y-159869583D01*
X62609071Y-159766860D01*
X62668860Y-159692950D01*
X62736711Y-159636845D01*
X62813580Y-159596686D01*
X62901231Y-159571902D01*
X63002089Y-159563253D01*
X63102948Y-159571903D01*
G37*
G36*
X64072788Y-160946645D02*
G01*
X64795167Y-160946645D01*
X64795167Y-161122500D01*
X63823752Y-161122500D01*
X63823752Y-160946645D01*
X64144962Y-160619665D01*
X64400593Y-160355150D01*
X64489891Y-160245523D01*
X64539445Y-160166380D01*
X64569419Y-160088314D01*
X64578920Y-160014431D01*
X64569095Y-159937038D01*
X64540768Y-159871825D01*
X64493374Y-159815861D01*
X64432333Y-159774094D01*
X64359146Y-159748252D01*
X64270533Y-159739108D01*
X64172411Y-159747153D01*
X64065003Y-159772539D01*
X63956495Y-159813168D01*
X63834010Y-159873930D01*
X63834010Y-159662904D01*
X63957807Y-159618684D01*
X64067568Y-159588441D01*
X64174337Y-159569207D01*
X64266412Y-159563253D01*
X64385247Y-159571546D01*
X64486179Y-159594944D01*
X64572146Y-159631956D01*
X64645507Y-159682138D01*
X64707260Y-159746419D01*
X64750886Y-159819465D01*
X64777613Y-159903036D01*
X64786924Y-159999776D01*
X64778027Y-160091914D01*
X64751570Y-160178654D01*
X64705749Y-160264483D01*
X64622976Y-160377956D01*
X64460035Y-160549597D01*
X64072788Y-160946645D01*
G37*
G36*
X65231507Y-159592562D02*
G01*
X66044103Y-159592562D01*
X66044103Y-159768417D01*
X65421100Y-159768417D01*
X65421100Y-160139453D01*
X65511226Y-160116188D01*
X65601443Y-160108403D01*
X65728814Y-160118133D01*
X65836781Y-160145626D01*
X65928709Y-160189328D01*
X66007192Y-160249087D01*
X66071545Y-160324008D01*
X66117885Y-160410785D01*
X66146712Y-160511745D01*
X66156851Y-160630106D01*
X66146315Y-160752133D01*
X66116550Y-160854624D01*
X66068977Y-160941264D01*
X66003162Y-161014697D01*
X65923149Y-161072035D01*
X65826592Y-161114730D01*
X65710177Y-161142028D01*
X65569753Y-161151809D01*
X65473092Y-161147827D01*
X65373473Y-161135689D01*
X65273146Y-161115830D01*
X65167027Y-161087329D01*
X65167027Y-160882165D01*
X65261083Y-160923602D01*
X65357628Y-160952781D01*
X65457777Y-160970045D01*
X65565631Y-160975954D01*
X65654019Y-160969476D01*
X65728812Y-160951207D01*
X65792321Y-160922269D01*
X65846358Y-160882897D01*
X65891035Y-160833016D01*
X65923046Y-160775385D01*
X65942888Y-160708471D01*
X65949856Y-160630106D01*
X65942887Y-160551739D01*
X65923042Y-160484843D01*
X65891032Y-160427243D01*
X65846358Y-160377406D01*
X65792316Y-160337996D01*
X65728793Y-160309030D01*
X65653972Y-160290743D01*
X65565539Y-160284258D01*
X65482863Y-160288885D01*
X65400034Y-160302851D01*
X65317876Y-160326099D01*
X65231507Y-160360462D01*
X65231507Y-159592562D01*
G37*
G36*
X67212896Y-159592562D02*
G01*
X68180190Y-159592562D01*
X68180190Y-159768417D01*
X67419892Y-159768417D01*
X67419892Y-160219778D01*
X68148408Y-160219778D01*
X68148408Y-160395633D01*
X67419892Y-160395633D01*
X67419892Y-160946645D01*
X68198599Y-160946645D01*
X68198599Y-161122500D01*
X67212896Y-161122500D01*
X67212896Y-159592562D01*
G37*
G36*
X69474646Y-161122500D02*
G01*
X69286060Y-161122500D01*
X69286060Y-160952506D01*
X69241830Y-161015540D01*
X69191915Y-161065119D01*
X69135942Y-161102807D01*
X69073699Y-161129309D01*
X69001750Y-161145948D01*
X68918230Y-161151809D01*
X68818141Y-161141209D01*
X68729931Y-161110412D01*
X68650939Y-161059268D01*
X68579527Y-160985479D01*
X68524389Y-160899667D01*
X68483693Y-160799928D01*
X68458001Y-160683746D01*
X68448918Y-160548040D01*
X68643640Y-160548040D01*
X68649825Y-160653601D01*
X68667050Y-160741482D01*
X68693788Y-160814496D01*
X68729187Y-160875020D01*
X68776459Y-160927307D01*
X68830376Y-160963727D01*
X68892254Y-160985848D01*
X68964301Y-160993539D01*
X69036396Y-160985853D01*
X69098390Y-160963737D01*
X69152476Y-160927315D01*
X69199965Y-160875020D01*
X69235607Y-160814461D01*
X69262513Y-160741434D01*
X69279841Y-160653565D01*
X69286060Y-160548040D01*
X69279839Y-160442512D01*
X69262510Y-160354660D01*
X69235604Y-160281667D01*
X69199965Y-160221152D01*
X69152470Y-160168812D01*
X69098382Y-160132363D01*
X69036390Y-160110232D01*
X68964301Y-160102541D01*
X68892260Y-160110237D01*
X68830384Y-160132373D01*
X68776465Y-160168819D01*
X68729187Y-160221152D01*
X68693791Y-160281632D01*
X68667054Y-160354613D01*
X68649826Y-160442476D01*
X68643640Y-160548040D01*
X68448918Y-160548040D01*
X68458001Y-160412335D01*
X68483693Y-160296153D01*
X68524389Y-160196413D01*
X68579527Y-160110601D01*
X68650939Y-160036813D01*
X68729931Y-159985669D01*
X68818141Y-159954871D01*
X68918230Y-159944272D01*
X69001745Y-159950143D01*
X69073694Y-159966812D01*
X69135942Y-159993365D01*
X69191911Y-160031000D01*
X69241826Y-160080547D01*
X69286060Y-160143574D01*
X69286060Y-159528082D01*
X69474646Y-159528082D01*
X69474646Y-161122500D01*
G37*
G36*
X71186806Y-159599785D02*
G01*
X71285335Y-159619781D01*
X71365887Y-159650632D01*
X71431489Y-159691297D01*
X71487068Y-159745277D01*
X71526574Y-159808662D01*
X71551016Y-159883321D01*
X71559625Y-159972116D01*
X71551541Y-160063996D01*
X71529160Y-160137503D01*
X71494046Y-160196422D01*
X71445107Y-160243783D01*
X71381994Y-160278505D01*
X71301338Y-160300286D01*
X71398187Y-160331124D01*
X71476194Y-160376606D01*
X71538559Y-160436666D01*
X71584737Y-160509836D01*
X71613140Y-160595106D01*
X71623098Y-160695594D01*
X71613682Y-160795484D01*
X71586986Y-160879447D01*
X71543963Y-160950650D01*
X71483696Y-161011216D01*
X71412063Y-161057194D01*
X71324379Y-161091939D01*
X71217398Y-161114399D01*
X71087199Y-161122500D01*
X70538019Y-161122500D01*
X70538019Y-160952506D01*
X70745014Y-160952506D01*
X71076940Y-160952506D01*
X71186523Y-160943508D01*
X71266658Y-160919614D01*
X71324419Y-160883813D01*
X71367496Y-160832606D01*
X71394822Y-160764336D01*
X71404836Y-160673520D01*
X71394770Y-160582043D01*
X71367407Y-160513891D01*
X71324419Y-160463319D01*
X71266744Y-160428081D01*
X71186615Y-160404516D01*
X71076940Y-160395633D01*
X70745014Y-160395633D01*
X70745014Y-160952506D01*
X70538019Y-160952506D01*
X70538019Y-160225640D01*
X70745014Y-160225640D01*
X71051386Y-160225640D01*
X71151349Y-160218113D01*
X71224569Y-160198184D01*
X71277342Y-160168579D01*
X71317547Y-160125426D01*
X71342557Y-160068729D01*
X71351622Y-159994098D01*
X71342595Y-159920132D01*
X71317615Y-159863566D01*
X71277342Y-159820166D01*
X71224523Y-159790257D01*
X71151300Y-159770146D01*
X71051386Y-159762555D01*
X70745014Y-159762555D01*
X70745014Y-160225640D01*
X70538019Y-160225640D01*
X70538019Y-159592562D01*
X71066682Y-159592562D01*
X71186806Y-159599785D01*
G37*
G36*
X72635362Y-160149436D02*
G01*
X72566211Y-160122875D01*
X72483688Y-160114265D01*
X72405137Y-160121363D01*
X72339625Y-160141389D01*
X72284605Y-160173431D01*
X72238315Y-160217946D01*
X72202972Y-160271366D01*
X72176273Y-160337016D01*
X72159005Y-160417414D01*
X72152769Y-160515617D01*
X72152769Y-161122500D01*
X71963176Y-161122500D01*
X71963176Y-159973581D01*
X72152769Y-159973581D01*
X72152769Y-160149436D01*
X72197359Y-160084791D01*
X72248763Y-160033767D01*
X72307466Y-159994830D01*
X72372881Y-159967584D01*
X72449353Y-159950367D01*
X72539009Y-159944272D01*
X72582056Y-159947203D01*
X72634355Y-159955996D01*
X72635362Y-160149436D01*
G37*
G36*
X72833474Y-159973581D02*
G01*
X73022060Y-159973581D01*
X73022060Y-161122500D01*
X72833474Y-161122500D01*
X72833474Y-159973581D01*
G37*
G36*
X72833474Y-159528082D02*
G01*
X73022060Y-159528082D01*
X73022060Y-159768417D01*
X72833474Y-159768417D01*
X72833474Y-159528082D01*
G37*
G36*
X74370738Y-160427140D02*
G01*
X74370738Y-161122500D01*
X74182152Y-161122500D01*
X74182152Y-160433368D01*
X74173829Y-160326124D01*
X74151691Y-160246975D01*
X74118588Y-160189370D01*
X74070871Y-160145459D01*
X74008890Y-160118233D01*
X73928079Y-160108403D01*
X73853019Y-160114997D01*
X73789174Y-160133736D01*
X73734430Y-160163887D01*
X73687286Y-160205856D01*
X73650042Y-160256711D01*
X73622642Y-160316668D01*
X73605323Y-160387479D01*
X73599175Y-160471379D01*
X73599175Y-161122500D01*
X73409582Y-161122500D01*
X73409582Y-159973581D01*
X73599175Y-159973581D01*
X73599175Y-160149436D01*
X73648381Y-160084816D01*
X73701386Y-160033967D01*
X73758452Y-159995288D01*
X73821438Y-159967393D01*
X73891522Y-159950220D01*
X73970119Y-159944272D01*
X74067771Y-159952805D01*
X74148085Y-159976708D01*
X74214449Y-160014617D01*
X74269255Y-160066821D01*
X74310908Y-160129904D01*
X74342599Y-160208635D01*
X74363241Y-160306363D01*
X74370738Y-160427140D01*
G37*
G36*
X75691115Y-161122500D02*
G01*
X75502529Y-161122500D01*
X75502529Y-160952506D01*
X75458299Y-161015540D01*
X75408384Y-161065119D01*
X75352411Y-161102807D01*
X75290168Y-161129309D01*
X75218219Y-161145948D01*
X75134699Y-161151809D01*
X75034610Y-161141209D01*
X74946400Y-161110412D01*
X74867408Y-161059268D01*
X74795996Y-160985479D01*
X74740858Y-160899667D01*
X74700162Y-160799928D01*
X74674470Y-160683746D01*
X74665387Y-160548040D01*
X74860109Y-160548040D01*
X74866294Y-160653601D01*
X74883519Y-160741482D01*
X74910257Y-160814496D01*
X74945655Y-160875020D01*
X74992928Y-160927307D01*
X75046845Y-160963727D01*
X75108723Y-160985848D01*
X75180770Y-160993539D01*
X75252865Y-160985853D01*
X75314859Y-160963737D01*
X75368945Y-160927315D01*
X75416434Y-160875020D01*
X75452076Y-160814461D01*
X75478982Y-160741434D01*
X75496310Y-160653565D01*
X75502529Y-160548040D01*
X75496308Y-160442512D01*
X75478979Y-160354660D01*
X75452073Y-160281667D01*
X75416434Y-160221152D01*
X75368939Y-160168812D01*
X75314851Y-160132363D01*
X75252859Y-160110232D01*
X75180770Y-160102541D01*
X75108729Y-160110237D01*
X75046853Y-160132373D01*
X74992934Y-160168819D01*
X74945655Y-160221152D01*
X74910260Y-160281632D01*
X74883523Y-160354613D01*
X74866295Y-160442476D01*
X74860109Y-160548040D01*
X74665387Y-160548040D01*
X74674470Y-160412335D01*
X74700162Y-160296153D01*
X74740858Y-160196413D01*
X74795996Y-160110601D01*
X74867408Y-160036813D01*
X74946400Y-159985669D01*
X75034610Y-159954871D01*
X75134699Y-159944272D01*
X75218214Y-159950143D01*
X75290163Y-159966812D01*
X75352411Y-159993365D01*
X75408380Y-160031000D01*
X75458295Y-160080547D01*
X75502529Y-160143574D01*
X75502529Y-159528082D01*
X75691115Y-159528082D01*
X75691115Y-161122500D01*
G37*
G36*
X76079461Y-159528082D02*
G01*
X76268047Y-159528082D01*
X76268047Y-161122500D01*
X76079461Y-161122500D01*
X76079461Y-159528082D01*
G37*
G36*
X77257086Y-159954314D02*
G01*
X77354124Y-159982889D01*
X77437567Y-160028932D01*
X77509656Y-160093107D01*
X77566660Y-160170821D01*
X77608553Y-160262245D01*
X77635004Y-160370011D01*
X77644386Y-160497482D01*
X77644386Y-160589073D01*
X76777477Y-160589073D01*
X76790608Y-160687692D01*
X76815236Y-160768874D01*
X76850082Y-160835582D01*
X76894805Y-160890133D01*
X76950159Y-160933925D01*
X77015890Y-160966037D01*
X77094055Y-160986325D01*
X77187347Y-160993539D01*
X77294695Y-160986895D01*
X77397915Y-160967161D01*
X77498631Y-160934541D01*
X77600331Y-160888026D01*
X77600331Y-161063881D01*
X77497424Y-161101753D01*
X77392236Y-161129277D01*
X77285026Y-161146166D01*
X77176081Y-161151809D01*
X77065580Y-161144716D01*
X76968645Y-161124454D01*
X76883288Y-161092062D01*
X76807858Y-161047896D01*
X76741115Y-160991616D01*
X76684712Y-160924910D01*
X76640488Y-160849641D01*
X76608081Y-160764591D01*
X76587825Y-160668131D01*
X76580739Y-160558299D01*
X76589343Y-160443535D01*
X76783613Y-160443535D01*
X77455800Y-160442527D01*
X77444450Y-160342391D01*
X77415221Y-160261231D01*
X77369247Y-160195048D01*
X77307613Y-160144150D01*
X77234158Y-160113340D01*
X77145307Y-160102541D01*
X77043609Y-160113251D01*
X76960772Y-160143376D01*
X76892698Y-160191934D01*
X76840020Y-160257040D01*
X76803339Y-160339447D01*
X76783613Y-160443535D01*
X76589343Y-160443535D01*
X76591277Y-160417739D01*
X76621048Y-160298492D01*
X76668329Y-160196907D01*
X76732872Y-160110143D01*
X76797001Y-160051197D01*
X76868814Y-160005425D01*
X76949389Y-159972154D01*
X77040252Y-159951480D01*
X77143292Y-159944272D01*
X77257086Y-159954314D01*
G37*
G36*
X78431337Y-161226089D02*
G01*
X78370930Y-161361813D01*
X78319379Y-161446114D01*
X78275540Y-161493718D01*
X78221735Y-161527361D01*
X78155221Y-161548631D01*
X78072666Y-161556275D01*
X77921999Y-161556275D01*
X77921999Y-161398005D01*
X78032732Y-161398005D01*
X78104415Y-161388108D01*
X78153633Y-161361552D01*
X78193113Y-161310549D01*
X78248887Y-161189361D01*
X78282684Y-161103265D01*
X77818501Y-159973581D01*
X78018353Y-159973581D01*
X78377023Y-160872181D01*
X78735602Y-159973581D01*
X78935454Y-159973581D01*
X78431337Y-161226089D01*
G37*
D10*
X67909523Y-151554819D02*
X67338095Y-151554819D01*
X67623809Y-151554819D02*
X67623809Y-150554819D01*
X67623809Y-150554819D02*
X67528571Y-150697676D01*
X67528571Y-150697676D02*
X67433333Y-150792914D01*
X67433333Y-150792914D02*
X67338095Y-150840533D01*
X68528571Y-150554819D02*
X68623809Y-150554819D01*
X68623809Y-150554819D02*
X68719047Y-150602438D01*
X68719047Y-150602438D02*
X68766666Y-150650057D01*
X68766666Y-150650057D02*
X68814285Y-150745295D01*
X68814285Y-150745295D02*
X68861904Y-150935771D01*
X68861904Y-150935771D02*
X68861904Y-151173866D01*
X68861904Y-151173866D02*
X68814285Y-151364342D01*
X68814285Y-151364342D02*
X68766666Y-151459580D01*
X68766666Y-151459580D02*
X68719047Y-151507200D01*
X68719047Y-151507200D02*
X68623809Y-151554819D01*
X68623809Y-151554819D02*
X68528571Y-151554819D01*
X68528571Y-151554819D02*
X68433333Y-151507200D01*
X68433333Y-151507200D02*
X68385714Y-151459580D01*
X68385714Y-151459580D02*
X68338095Y-151364342D01*
X68338095Y-151364342D02*
X68290476Y-151173866D01*
X68290476Y-151173866D02*
X68290476Y-150935771D01*
X68290476Y-150935771D02*
X68338095Y-150745295D01*
X68338095Y-150745295D02*
X68385714Y-150650057D01*
X68385714Y-150650057D02*
X68433333Y-150602438D01*
X68433333Y-150602438D02*
X68528571Y-150554819D01*
D12*
G36*
X62999018Y-135939785D02*
G01*
X63097547Y-135959781D01*
X63178100Y-135990632D01*
X63243702Y-136031297D01*
X63299280Y-136085277D01*
X63338786Y-136148662D01*
X63363228Y-136223321D01*
X63371838Y-136312116D01*
X63363753Y-136403996D01*
X63341372Y-136477503D01*
X63306258Y-136536422D01*
X63257319Y-136583783D01*
X63194206Y-136618505D01*
X63113551Y-136640286D01*
X63210399Y-136671124D01*
X63288406Y-136716606D01*
X63350772Y-136776666D01*
X63396949Y-136849836D01*
X63425353Y-136935106D01*
X63435310Y-137035594D01*
X63425895Y-137135484D01*
X63399198Y-137219447D01*
X63356175Y-137290650D01*
X63295909Y-137351216D01*
X63224275Y-137397194D01*
X63136592Y-137431939D01*
X63029610Y-137454399D01*
X62899411Y-137462500D01*
X62350231Y-137462500D01*
X62350231Y-137292506D01*
X62557227Y-137292506D01*
X62889153Y-137292506D01*
X62998735Y-137283508D01*
X63078871Y-137259614D01*
X63136632Y-137223813D01*
X63179708Y-137172606D01*
X63207035Y-137104336D01*
X63217049Y-137013520D01*
X63206983Y-136922043D01*
X63179619Y-136853891D01*
X63136632Y-136803319D01*
X63078957Y-136768081D01*
X62998827Y-136744516D01*
X62889153Y-136735633D01*
X62557227Y-136735633D01*
X62557227Y-137292506D01*
X62350231Y-137292506D01*
X62350231Y-136565640D01*
X62557227Y-136565640D01*
X62863599Y-136565640D01*
X62963561Y-136558113D01*
X63036781Y-136538184D01*
X63089554Y-136508579D01*
X63129759Y-136465426D01*
X63154769Y-136408729D01*
X63163834Y-136334098D01*
X63154807Y-136260132D01*
X63129828Y-136203566D01*
X63089554Y-136160166D01*
X63036735Y-136130257D01*
X62963512Y-136110146D01*
X62863599Y-136102555D01*
X62557227Y-136102555D01*
X62557227Y-136565640D01*
X62350231Y-136565640D01*
X62350231Y-135932562D01*
X62878894Y-135932562D01*
X62999018Y-135939785D01*
G37*
G36*
X64310101Y-136293630D02*
G01*
X64410860Y-136319486D01*
X64492024Y-136359618D01*
X64557118Y-136413415D01*
X64607823Y-136480932D01*
X64646145Y-136565923D01*
X64671061Y-136672281D01*
X64680124Y-136804876D01*
X64680124Y-137462500D01*
X64491630Y-137462500D01*
X64491630Y-137286645D01*
X64443848Y-137351999D01*
X64390346Y-137403179D01*
X64330704Y-137441800D01*
X64264709Y-137468675D01*
X64186911Y-137485742D01*
X64095041Y-137491809D01*
X64007599Y-137484997D01*
X63933162Y-137465703D01*
X63869464Y-137434934D01*
X63814772Y-137392707D01*
X63770000Y-137339958D01*
X63737810Y-137279243D01*
X63717829Y-137209005D01*
X63710816Y-137127093D01*
X63712032Y-137114087D01*
X63899402Y-137114087D01*
X63907173Y-137178430D01*
X63929217Y-137230911D01*
X63965439Y-137274280D01*
X64012764Y-137306200D01*
X64071667Y-137326309D01*
X64145324Y-137333539D01*
X64221574Y-137326196D01*
X64287659Y-137305089D01*
X64345624Y-137270588D01*
X64396833Y-137221707D01*
X64436969Y-137163617D01*
X64466469Y-137095963D01*
X64485058Y-137016968D01*
X64491630Y-136924402D01*
X64491630Y-136882178D01*
X64304143Y-136882178D01*
X64150239Y-136889828D01*
X64049666Y-136908901D01*
X63987513Y-136934752D01*
X63949813Y-136964768D01*
X63922731Y-137003277D01*
X63905598Y-137052077D01*
X63899402Y-137114087D01*
X63712032Y-137114087D01*
X63719723Y-137031854D01*
X63744758Y-136953373D01*
X63784754Y-136888269D01*
X63840417Y-136834276D01*
X63906568Y-136794240D01*
X63990395Y-136763369D01*
X64095776Y-136743057D01*
X64227298Y-136735633D01*
X64491630Y-136735633D01*
X64491630Y-136716948D01*
X64481442Y-136633605D01*
X64452814Y-136567386D01*
X64406084Y-136514257D01*
X64345114Y-136476098D01*
X64266624Y-136451521D01*
X64165749Y-136442541D01*
X64068400Y-136448435D01*
X63974140Y-136465989D01*
X63882896Y-136495216D01*
X63794805Y-136536331D01*
X63794805Y-136360476D01*
X63898117Y-136326754D01*
X63995664Y-136303323D01*
X64092578Y-136288949D01*
X64185166Y-136284272D01*
X64310101Y-136293630D01*
G37*
G36*
X65800833Y-136348752D02*
G01*
X65800833Y-136524607D01*
X65719187Y-136488647D01*
X65634778Y-136463058D01*
X65547670Y-136447723D01*
X65456542Y-136442541D01*
X65363258Y-136448302D01*
X65294958Y-136463461D01*
X65245974Y-136485589D01*
X65206926Y-136519086D01*
X65183894Y-136561099D01*
X65175815Y-136614458D01*
X65181576Y-136655602D01*
X65198118Y-136689271D01*
X65226007Y-136717315D01*
X65290047Y-136749592D01*
X65427874Y-136788481D01*
X65492446Y-136802769D01*
X65624592Y-136839431D01*
X65716516Y-136880631D01*
X65777752Y-136924677D01*
X65823650Y-136982173D01*
X65852110Y-137053943D01*
X65862290Y-137144221D01*
X65854097Y-137221504D01*
X65830489Y-137288218D01*
X65791579Y-137346657D01*
X65735711Y-137398203D01*
X65671005Y-137437036D01*
X65593198Y-137466277D01*
X65499802Y-137485071D01*
X65387849Y-137491809D01*
X65294947Y-137487163D01*
X65195782Y-137472758D01*
X65095102Y-137449465D01*
X64985214Y-137415605D01*
X64985214Y-137222165D01*
X65090473Y-137271511D01*
X65191111Y-137305696D01*
X65292762Y-137326674D01*
X65391970Y-137333539D01*
X65480098Y-137327569D01*
X65546909Y-137311575D01*
X65596951Y-137287652D01*
X65637210Y-137252366D01*
X65660598Y-137210034D01*
X65668667Y-137158234D01*
X65662505Y-137109182D01*
X65645210Y-137070502D01*
X65616918Y-137039715D01*
X65578811Y-137017130D01*
X65508103Y-136990637D01*
X65389955Y-136960306D01*
X65324376Y-136945010D01*
X65209812Y-136912958D01*
X65127855Y-136874705D01*
X65071218Y-136831803D01*
X65028969Y-136776441D01*
X65002736Y-136707890D01*
X64993366Y-136622335D01*
X65001059Y-136543472D01*
X65022920Y-136477065D01*
X65058295Y-136420583D01*
X65108129Y-136372383D01*
X65166915Y-136336070D01*
X65238958Y-136308539D01*
X65326928Y-136290709D01*
X65434010Y-136284272D01*
X65536814Y-136288415D01*
X65630748Y-136300392D01*
X65720498Y-136320859D01*
X65800833Y-136348752D01*
G37*
G36*
X66756807Y-136294314D02*
G01*
X66853845Y-136322889D01*
X66937288Y-136368932D01*
X67009377Y-136433107D01*
X67066381Y-136510821D01*
X67108274Y-136602245D01*
X67134725Y-136710011D01*
X67144107Y-136837482D01*
X67144107Y-136929073D01*
X66277198Y-136929073D01*
X66290329Y-137027692D01*
X66314957Y-137108874D01*
X66349803Y-137175582D01*
X66394526Y-137230133D01*
X66449880Y-137273925D01*
X66515611Y-137306037D01*
X66593776Y-137326325D01*
X66687068Y-137333539D01*
X66794417Y-137326895D01*
X66897636Y-137307161D01*
X66998352Y-137274541D01*
X67100052Y-137228026D01*
X67100052Y-137403881D01*
X66997145Y-137441753D01*
X66891957Y-137469277D01*
X66784748Y-137486166D01*
X66675802Y-137491809D01*
X66565301Y-137484716D01*
X66468366Y-137464454D01*
X66383009Y-137432062D01*
X66307579Y-137387896D01*
X66240836Y-137331616D01*
X66184433Y-137264910D01*
X66140209Y-137189641D01*
X66107802Y-137104591D01*
X66087546Y-137008131D01*
X66080460Y-136898299D01*
X66089064Y-136783535D01*
X66283334Y-136783535D01*
X66955521Y-136782527D01*
X66944171Y-136682391D01*
X66914943Y-136601231D01*
X66868968Y-136535048D01*
X66807334Y-136484150D01*
X66733879Y-136453340D01*
X66645028Y-136442541D01*
X66543330Y-136453251D01*
X66460493Y-136483376D01*
X66392419Y-136531934D01*
X66339741Y-136597040D01*
X66303061Y-136679447D01*
X66283334Y-136783535D01*
X66089064Y-136783535D01*
X66090998Y-136757739D01*
X66120769Y-136638492D01*
X66168050Y-136536907D01*
X66232593Y-136450143D01*
X66296722Y-136391197D01*
X66368535Y-136345425D01*
X66449110Y-136312154D01*
X66539973Y-136291480D01*
X66643013Y-136284272D01*
X66756807Y-136294314D01*
G37*
G36*
X61939446Y-139982500D02*
G01*
X61724207Y-139982500D01*
X61584897Y-139589757D01*
X60895216Y-139589757D01*
X60755906Y-139982500D01*
X60537644Y-139982500D01*
X60752477Y-139419764D01*
X60957773Y-139419764D01*
X61520325Y-139419764D01*
X61238499Y-138656902D01*
X60957773Y-139419764D01*
X60752477Y-139419764D01*
X61121721Y-138452562D01*
X61356377Y-138452562D01*
X61939446Y-139982500D01*
G37*
G36*
X63062260Y-139982500D02*
G01*
X62873674Y-139982500D01*
X62873674Y-139812506D01*
X62829445Y-139875540D01*
X62779529Y-139925119D01*
X62723557Y-139962807D01*
X62661314Y-139989309D01*
X62589365Y-140005948D01*
X62505845Y-140011809D01*
X62405755Y-140001209D01*
X62317545Y-139970412D01*
X62238553Y-139919268D01*
X62167141Y-139845479D01*
X62112004Y-139759667D01*
X62071308Y-139659928D01*
X62045616Y-139543746D01*
X62036532Y-139408040D01*
X62231255Y-139408040D01*
X62237439Y-139513601D01*
X62254665Y-139601482D01*
X62281403Y-139674496D01*
X62316801Y-139735020D01*
X62364073Y-139787307D01*
X62417990Y-139823727D01*
X62479868Y-139845848D01*
X62551915Y-139853539D01*
X62624010Y-139845853D01*
X62686004Y-139823737D01*
X62740090Y-139787315D01*
X62787579Y-139735020D01*
X62823221Y-139674461D01*
X62850127Y-139601434D01*
X62867455Y-139513565D01*
X62873674Y-139408040D01*
X62867454Y-139302512D01*
X62850124Y-139214660D01*
X62823218Y-139141667D01*
X62787579Y-139081152D01*
X62740084Y-139028812D01*
X62685996Y-138992363D01*
X62624004Y-138970232D01*
X62551915Y-138962541D01*
X62479874Y-138970237D01*
X62417998Y-138992373D01*
X62364079Y-139028819D01*
X62316801Y-139081152D01*
X62281406Y-139141632D01*
X62254668Y-139214613D01*
X62237440Y-139302476D01*
X62231255Y-139408040D01*
X62036532Y-139408040D01*
X62045616Y-139272335D01*
X62071308Y-139156153D01*
X62112004Y-139056413D01*
X62167141Y-138970601D01*
X62238553Y-138896813D01*
X62317545Y-138845669D01*
X62405755Y-138814871D01*
X62505845Y-138804272D01*
X62589360Y-138810143D01*
X62661308Y-138826812D01*
X62723557Y-138853365D01*
X62779526Y-138891000D01*
X62829441Y-138940547D01*
X62873674Y-139003574D01*
X62873674Y-138388082D01*
X63062260Y-138388082D01*
X63062260Y-139982500D01*
G37*
G36*
X64394361Y-139982500D02*
G01*
X64205775Y-139982500D01*
X64205775Y-139812506D01*
X64161545Y-139875540D01*
X64111630Y-139925119D01*
X64055657Y-139962807D01*
X63993414Y-139989309D01*
X63921465Y-140005948D01*
X63837945Y-140011809D01*
X63737855Y-140001209D01*
X63649646Y-139970412D01*
X63570654Y-139919268D01*
X63499241Y-139845479D01*
X63444104Y-139759667D01*
X63403408Y-139659928D01*
X63377716Y-139543746D01*
X63368633Y-139408040D01*
X63563355Y-139408040D01*
X63569539Y-139513601D01*
X63586765Y-139601482D01*
X63613503Y-139674496D01*
X63648901Y-139735020D01*
X63696174Y-139787307D01*
X63750091Y-139823727D01*
X63811969Y-139845848D01*
X63884016Y-139853539D01*
X63956111Y-139845853D01*
X64018105Y-139823737D01*
X64072191Y-139787315D01*
X64119679Y-139735020D01*
X64155322Y-139674461D01*
X64182228Y-139601434D01*
X64199555Y-139513565D01*
X64205775Y-139408040D01*
X64199554Y-139302512D01*
X64182225Y-139214660D01*
X64155318Y-139141667D01*
X64119679Y-139081152D01*
X64072185Y-139028812D01*
X64018097Y-138992363D01*
X63956105Y-138970232D01*
X63884016Y-138962541D01*
X63811975Y-138970237D01*
X63750099Y-138992373D01*
X63696180Y-139028819D01*
X63648901Y-139081152D01*
X63613506Y-139141632D01*
X63586768Y-139214613D01*
X63569541Y-139302476D01*
X63563355Y-139408040D01*
X63368633Y-139408040D01*
X63377716Y-139272335D01*
X63403408Y-139156153D01*
X63444104Y-139056413D01*
X63499241Y-138970601D01*
X63570654Y-138896813D01*
X63649646Y-138845669D01*
X63737855Y-138814871D01*
X63837945Y-138804272D01*
X63921460Y-138810143D01*
X63993409Y-138826812D01*
X64055657Y-138853365D01*
X64111626Y-138891000D01*
X64161541Y-138940547D01*
X64205775Y-139003574D01*
X64205775Y-138388082D01*
X64394361Y-138388082D01*
X64394361Y-139982500D01*
G37*
G36*
X65447750Y-139009436D02*
G01*
X65378599Y-138982875D01*
X65296075Y-138974265D01*
X65217524Y-138981363D01*
X65152013Y-139001389D01*
X65096993Y-139033431D01*
X65050703Y-139077946D01*
X65015359Y-139131366D01*
X64988661Y-139197016D01*
X64971392Y-139277414D01*
X64965157Y-139375617D01*
X64965157Y-139982500D01*
X64775563Y-139982500D01*
X64775563Y-138833581D01*
X64965157Y-138833581D01*
X64965157Y-139009436D01*
X65009746Y-138944791D01*
X65061150Y-138893767D01*
X65119854Y-138854830D01*
X65185269Y-138827584D01*
X65261741Y-138810367D01*
X65351396Y-138804272D01*
X65394444Y-138807203D01*
X65446742Y-138815996D01*
X65447750Y-139009436D01*
G37*
G36*
X66193340Y-138814314D02*
G01*
X66290378Y-138842889D01*
X66373820Y-138888932D01*
X66445909Y-138953107D01*
X66502913Y-139030821D01*
X66544807Y-139122245D01*
X66571258Y-139230011D01*
X66580640Y-139357482D01*
X66580640Y-139449073D01*
X65713730Y-139449073D01*
X65726861Y-139547692D01*
X65751489Y-139628874D01*
X65786336Y-139695582D01*
X65831058Y-139750133D01*
X65886413Y-139793925D01*
X65952144Y-139826037D01*
X66030308Y-139846325D01*
X66123600Y-139853539D01*
X66230949Y-139846895D01*
X66334168Y-139827161D01*
X66434884Y-139794541D01*
X66536584Y-139748026D01*
X66536584Y-139923881D01*
X66433678Y-139961753D01*
X66328490Y-139989277D01*
X66221280Y-140006166D01*
X66112335Y-140011809D01*
X66001833Y-140004716D01*
X65904899Y-139984454D01*
X65819542Y-139952062D01*
X65744111Y-139907896D01*
X65677369Y-139851616D01*
X65620965Y-139784910D01*
X65576741Y-139709641D01*
X65544334Y-139624591D01*
X65524079Y-139528131D01*
X65516993Y-139418299D01*
X65525597Y-139303535D01*
X65719867Y-139303535D01*
X66392054Y-139302527D01*
X66380704Y-139202391D01*
X66351475Y-139121231D01*
X66305500Y-139055048D01*
X66243866Y-139004150D01*
X66170411Y-138973340D01*
X66081560Y-138962541D01*
X65979862Y-138973251D01*
X65897026Y-139003376D01*
X65828952Y-139051934D01*
X65776274Y-139117040D01*
X65739593Y-139199447D01*
X65719867Y-139303535D01*
X65525597Y-139303535D01*
X65527531Y-139277739D01*
X65557301Y-139158492D01*
X65604583Y-139056907D01*
X65669125Y-138970143D01*
X65733254Y-138911197D01*
X65805067Y-138865425D01*
X65885643Y-138832154D01*
X65976505Y-138811480D01*
X66079545Y-138804272D01*
X66193340Y-138814314D01*
G37*
G36*
X67621664Y-138868752D02*
G01*
X67621664Y-139044607D01*
X67540019Y-139008647D01*
X67455609Y-138983058D01*
X67368501Y-138967723D01*
X67277373Y-138962541D01*
X67184089Y-138968302D01*
X67115789Y-138983461D01*
X67066805Y-139005589D01*
X67027758Y-139039086D01*
X67004725Y-139081099D01*
X66996646Y-139134458D01*
X67002407Y-139175602D01*
X67018949Y-139209271D01*
X67046838Y-139237315D01*
X67110878Y-139269592D01*
X67248705Y-139308481D01*
X67313277Y-139322769D01*
X67445423Y-139359431D01*
X67537347Y-139400631D01*
X67598583Y-139444677D01*
X67644481Y-139502173D01*
X67672941Y-139573943D01*
X67683121Y-139664221D01*
X67674928Y-139741504D01*
X67651320Y-139808218D01*
X67612410Y-139866657D01*
X67556543Y-139918203D01*
X67491836Y-139957036D01*
X67414029Y-139986277D01*
X67320633Y-140005071D01*
X67208680Y-140011809D01*
X67115779Y-140007163D01*
X67016613Y-139992758D01*
X66915933Y-139969465D01*
X66806045Y-139935605D01*
X66806045Y-139742165D01*
X66911304Y-139791511D01*
X67011942Y-139825696D01*
X67113594Y-139846674D01*
X67212801Y-139853539D01*
X67300929Y-139847569D01*
X67367740Y-139831575D01*
X67417782Y-139807652D01*
X67458041Y-139772366D01*
X67481430Y-139730034D01*
X67489498Y-139678234D01*
X67483336Y-139629182D01*
X67466041Y-139590502D01*
X67437749Y-139559715D01*
X67399642Y-139537130D01*
X67328934Y-139510637D01*
X67210786Y-139480306D01*
X67145207Y-139465010D01*
X67030643Y-139432958D01*
X66948687Y-139394705D01*
X66892049Y-139351803D01*
X66849800Y-139296441D01*
X66823567Y-139227890D01*
X66814197Y-139142335D01*
X66821890Y-139063472D01*
X66843751Y-138997065D01*
X66879127Y-138940583D01*
X66928961Y-138892383D01*
X66987746Y-138856070D01*
X67059790Y-138828539D01*
X67147759Y-138810709D01*
X67254842Y-138804272D01*
X67357645Y-138808415D01*
X67451579Y-138820392D01*
X67541330Y-138840859D01*
X67621664Y-138868752D01*
G37*
G36*
X68714895Y-138868752D02*
G01*
X68714895Y-139044607D01*
X68633250Y-139008647D01*
X68548840Y-138983058D01*
X68461732Y-138967723D01*
X68370604Y-138962541D01*
X68277320Y-138968302D01*
X68209020Y-138983461D01*
X68160036Y-139005589D01*
X68120989Y-139039086D01*
X68097956Y-139081099D01*
X68089877Y-139134458D01*
X68095638Y-139175602D01*
X68112180Y-139209271D01*
X68140069Y-139237315D01*
X68204109Y-139269592D01*
X68341936Y-139308481D01*
X68406508Y-139322769D01*
X68538654Y-139359431D01*
X68630578Y-139400631D01*
X68691814Y-139444677D01*
X68737712Y-139502173D01*
X68766172Y-139573943D01*
X68776352Y-139664221D01*
X68768159Y-139741504D01*
X68744551Y-139808218D01*
X68705641Y-139866657D01*
X68649774Y-139918203D01*
X68585067Y-139957036D01*
X68507260Y-139986277D01*
X68413864Y-140005071D01*
X68301911Y-140011809D01*
X68209009Y-140007163D01*
X68109844Y-139992758D01*
X68009164Y-139969465D01*
X67899276Y-139935605D01*
X67899276Y-139742165D01*
X68004535Y-139791511D01*
X68105173Y-139825696D01*
X68206825Y-139846674D01*
X68306032Y-139853539D01*
X68394160Y-139847569D01*
X68460971Y-139831575D01*
X68511013Y-139807652D01*
X68551272Y-139772366D01*
X68574661Y-139730034D01*
X68582729Y-139678234D01*
X68576567Y-139629182D01*
X68559272Y-139590502D01*
X68530980Y-139559715D01*
X68492873Y-139537130D01*
X68422165Y-139510637D01*
X68304017Y-139480306D01*
X68238438Y-139465010D01*
X68123874Y-139432958D01*
X68041918Y-139394705D01*
X67985280Y-139351803D01*
X67943031Y-139296441D01*
X67916798Y-139227890D01*
X67907428Y-139142335D01*
X67915121Y-139063472D01*
X67936982Y-138997065D01*
X67972358Y-138940583D01*
X68022192Y-138892383D01*
X68080977Y-138856070D01*
X68153021Y-138828539D01*
X68240990Y-138810709D01*
X68348073Y-138804272D01*
X68450876Y-138808415D01*
X68544810Y-138820392D01*
X68634561Y-138840859D01*
X68714895Y-138868752D01*
G37*
D10*
X67528571Y-143483390D02*
X67433333Y-143435771D01*
X67433333Y-143435771D02*
X67385714Y-143388152D01*
X67385714Y-143388152D02*
X67338095Y-143292914D01*
X67338095Y-143292914D02*
X67338095Y-143245295D01*
X67338095Y-143245295D02*
X67385714Y-143150057D01*
X67385714Y-143150057D02*
X67433333Y-143102438D01*
X67433333Y-143102438D02*
X67528571Y-143054819D01*
X67528571Y-143054819D02*
X67719047Y-143054819D01*
X67719047Y-143054819D02*
X67814285Y-143102438D01*
X67814285Y-143102438D02*
X67861904Y-143150057D01*
X67861904Y-143150057D02*
X67909523Y-143245295D01*
X67909523Y-143245295D02*
X67909523Y-143292914D01*
X67909523Y-143292914D02*
X67861904Y-143388152D01*
X67861904Y-143388152D02*
X67814285Y-143435771D01*
X67814285Y-143435771D02*
X67719047Y-143483390D01*
X67719047Y-143483390D02*
X67528571Y-143483390D01*
X67528571Y-143483390D02*
X67433333Y-143531009D01*
X67433333Y-143531009D02*
X67385714Y-143578628D01*
X67385714Y-143578628D02*
X67338095Y-143673866D01*
X67338095Y-143673866D02*
X67338095Y-143864342D01*
X67338095Y-143864342D02*
X67385714Y-143959580D01*
X67385714Y-143959580D02*
X67433333Y-144007200D01*
X67433333Y-144007200D02*
X67528571Y-144054819D01*
X67528571Y-144054819D02*
X67719047Y-144054819D01*
X67719047Y-144054819D02*
X67814285Y-144007200D01*
X67814285Y-144007200D02*
X67861904Y-143959580D01*
X67861904Y-143959580D02*
X67909523Y-143864342D01*
X67909523Y-143864342D02*
X67909523Y-143673866D01*
X67909523Y-143673866D02*
X67861904Y-143578628D01*
X67861904Y-143578628D02*
X67814285Y-143531009D01*
X67814285Y-143531009D02*
X67719047Y-143483390D01*
X68528571Y-143054819D02*
X68623809Y-143054819D01*
X68623809Y-143054819D02*
X68719047Y-143102438D01*
X68719047Y-143102438D02*
X68766666Y-143150057D01*
X68766666Y-143150057D02*
X68814285Y-143245295D01*
X68814285Y-143245295D02*
X68861904Y-143435771D01*
X68861904Y-143435771D02*
X68861904Y-143673866D01*
X68861904Y-143673866D02*
X68814285Y-143864342D01*
X68814285Y-143864342D02*
X68766666Y-143959580D01*
X68766666Y-143959580D02*
X68719047Y-144007200D01*
X68719047Y-144007200D02*
X68623809Y-144054819D01*
X68623809Y-144054819D02*
X68528571Y-144054819D01*
X68528571Y-144054819D02*
X68433333Y-144007200D01*
X68433333Y-144007200D02*
X68385714Y-143959580D01*
X68385714Y-143959580D02*
X68338095Y-143864342D01*
X68338095Y-143864342D02*
X68290476Y-143673866D01*
X68290476Y-143673866D02*
X68290476Y-143435771D01*
X68290476Y-143435771D02*
X68338095Y-143245295D01*
X68338095Y-143245295D02*
X68385714Y-143150057D01*
X68385714Y-143150057D02*
X68433333Y-143102438D01*
X68433333Y-143102438D02*
X68528571Y-143054819D01*
X67338095Y-148150057D02*
X67385714Y-148102438D01*
X67385714Y-148102438D02*
X67480952Y-148054819D01*
X67480952Y-148054819D02*
X67719047Y-148054819D01*
X67719047Y-148054819D02*
X67814285Y-148102438D01*
X67814285Y-148102438D02*
X67861904Y-148150057D01*
X67861904Y-148150057D02*
X67909523Y-148245295D01*
X67909523Y-148245295D02*
X67909523Y-148340533D01*
X67909523Y-148340533D02*
X67861904Y-148483390D01*
X67861904Y-148483390D02*
X67290476Y-149054819D01*
X67290476Y-149054819D02*
X67909523Y-149054819D01*
X68528571Y-148054819D02*
X68623809Y-148054819D01*
X68623809Y-148054819D02*
X68719047Y-148102438D01*
X68719047Y-148102438D02*
X68766666Y-148150057D01*
X68766666Y-148150057D02*
X68814285Y-148245295D01*
X68814285Y-148245295D02*
X68861904Y-148435771D01*
X68861904Y-148435771D02*
X68861904Y-148673866D01*
X68861904Y-148673866D02*
X68814285Y-148864342D01*
X68814285Y-148864342D02*
X68766666Y-148959580D01*
X68766666Y-148959580D02*
X68719047Y-149007200D01*
X68719047Y-149007200D02*
X68623809Y-149054819D01*
X68623809Y-149054819D02*
X68528571Y-149054819D01*
X68528571Y-149054819D02*
X68433333Y-149007200D01*
X68433333Y-149007200D02*
X68385714Y-148959580D01*
X68385714Y-148959580D02*
X68338095Y-148864342D01*
X68338095Y-148864342D02*
X68290476Y-148673866D01*
X68290476Y-148673866D02*
X68290476Y-148435771D01*
X68290476Y-148435771D02*
X68338095Y-148245295D01*
X68338095Y-148245295D02*
X68385714Y-148150057D01*
X68385714Y-148150057D02*
X68433333Y-148102438D01*
X68433333Y-148102438D02*
X68528571Y-148054819D01*
X67504762Y-153733390D02*
X67409524Y-153685771D01*
X67409524Y-153685771D02*
X67361905Y-153638152D01*
X67361905Y-153638152D02*
X67314286Y-153542914D01*
X67314286Y-153542914D02*
X67314286Y-153495295D01*
X67314286Y-153495295D02*
X67361905Y-153400057D01*
X67361905Y-153400057D02*
X67409524Y-153352438D01*
X67409524Y-153352438D02*
X67504762Y-153304819D01*
X67504762Y-153304819D02*
X67695238Y-153304819D01*
X67695238Y-153304819D02*
X67790476Y-153352438D01*
X67790476Y-153352438D02*
X67838095Y-153400057D01*
X67838095Y-153400057D02*
X67885714Y-153495295D01*
X67885714Y-153495295D02*
X67885714Y-153542914D01*
X67885714Y-153542914D02*
X67838095Y-153638152D01*
X67838095Y-153638152D02*
X67790476Y-153685771D01*
X67790476Y-153685771D02*
X67695238Y-153733390D01*
X67695238Y-153733390D02*
X67504762Y-153733390D01*
X67504762Y-153733390D02*
X67409524Y-153781009D01*
X67409524Y-153781009D02*
X67361905Y-153828628D01*
X67361905Y-153828628D02*
X67314286Y-153923866D01*
X67314286Y-153923866D02*
X67314286Y-154114342D01*
X67314286Y-154114342D02*
X67361905Y-154209580D01*
X67361905Y-154209580D02*
X67409524Y-154257200D01*
X67409524Y-154257200D02*
X67504762Y-154304819D01*
X67504762Y-154304819D02*
X67695238Y-154304819D01*
X67695238Y-154304819D02*
X67790476Y-154257200D01*
X67790476Y-154257200D02*
X67838095Y-154209580D01*
X67838095Y-154209580D02*
X67885714Y-154114342D01*
X67885714Y-154114342D02*
X67885714Y-153923866D01*
X67885714Y-153923866D02*
X67838095Y-153828628D01*
X67838095Y-153828628D02*
X67790476Y-153781009D01*
X67790476Y-153781009D02*
X67695238Y-153733390D01*
X67790476Y-156138152D02*
X67790476Y-156804819D01*
X67552381Y-155757200D02*
X67314286Y-156471485D01*
X67314286Y-156471485D02*
X67933333Y-156471485D01*
X67547619Y-140554819D02*
X67642857Y-140554819D01*
X67642857Y-140554819D02*
X67738095Y-140602438D01*
X67738095Y-140602438D02*
X67785714Y-140650057D01*
X67785714Y-140650057D02*
X67833333Y-140745295D01*
X67833333Y-140745295D02*
X67880952Y-140935771D01*
X67880952Y-140935771D02*
X67880952Y-141173866D01*
X67880952Y-141173866D02*
X67833333Y-141364342D01*
X67833333Y-141364342D02*
X67785714Y-141459580D01*
X67785714Y-141459580D02*
X67738095Y-141507200D01*
X67738095Y-141507200D02*
X67642857Y-141554819D01*
X67642857Y-141554819D02*
X67547619Y-141554819D01*
X67547619Y-141554819D02*
X67452381Y-141507200D01*
X67452381Y-141507200D02*
X67404762Y-141459580D01*
X67404762Y-141459580D02*
X67357143Y-141364342D01*
X67357143Y-141364342D02*
X67309524Y-141173866D01*
X67309524Y-141173866D02*
X67309524Y-140935771D01*
X67309524Y-140935771D02*
X67357143Y-140745295D01*
X67357143Y-140745295D02*
X67404762Y-140650057D01*
X67404762Y-140650057D02*
X67452381Y-140602438D01*
X67452381Y-140602438D02*
X67547619Y-140554819D01*
X68214286Y-141554819D02*
X68738095Y-140888152D01*
X68214286Y-140888152D02*
X68738095Y-141554819D01*
X67814285Y-145888152D02*
X67814285Y-146554819D01*
X67576190Y-145507200D02*
X67338095Y-146221485D01*
X67338095Y-146221485D02*
X67957142Y-146221485D01*
X68528571Y-145554819D02*
X68623809Y-145554819D01*
X68623809Y-145554819D02*
X68719047Y-145602438D01*
X68719047Y-145602438D02*
X68766666Y-145650057D01*
X68766666Y-145650057D02*
X68814285Y-145745295D01*
X68814285Y-145745295D02*
X68861904Y-145935771D01*
X68861904Y-145935771D02*
X68861904Y-146173866D01*
X68861904Y-146173866D02*
X68814285Y-146364342D01*
X68814285Y-146364342D02*
X68766666Y-146459580D01*
X68766666Y-146459580D02*
X68719047Y-146507200D01*
X68719047Y-146507200D02*
X68623809Y-146554819D01*
X68623809Y-146554819D02*
X68528571Y-146554819D01*
X68528571Y-146554819D02*
X68433333Y-146507200D01*
X68433333Y-146507200D02*
X68385714Y-146459580D01*
X68385714Y-146459580D02*
X68338095Y-146364342D01*
X68338095Y-146364342D02*
X68290476Y-146173866D01*
X68290476Y-146173866D02*
X68290476Y-145935771D01*
X68290476Y-145935771D02*
X68338095Y-145745295D01*
X68338095Y-145745295D02*
X68385714Y-145650057D01*
X68385714Y-145650057D02*
X68433333Y-145602438D01*
X68433333Y-145602438D02*
X68528571Y-145554819D01*
X111083333Y-158539580D02*
X111035714Y-158587200D01*
X111035714Y-158587200D02*
X110892857Y-158634819D01*
X110892857Y-158634819D02*
X110797619Y-158634819D01*
X110797619Y-158634819D02*
X110654762Y-158587200D01*
X110654762Y-158587200D02*
X110559524Y-158491961D01*
X110559524Y-158491961D02*
X110511905Y-158396723D01*
X110511905Y-158396723D02*
X110464286Y-158206247D01*
X110464286Y-158206247D02*
X110464286Y-158063390D01*
X110464286Y-158063390D02*
X110511905Y-157872914D01*
X110511905Y-157872914D02*
X110559524Y-157777676D01*
X110559524Y-157777676D02*
X110654762Y-157682438D01*
X110654762Y-157682438D02*
X110797619Y-157634819D01*
X110797619Y-157634819D02*
X110892857Y-157634819D01*
X110892857Y-157634819D02*
X111035714Y-157682438D01*
X111035714Y-157682438D02*
X111083333Y-157730057D01*
X112035714Y-158634819D02*
X111464286Y-158634819D01*
X111750000Y-158634819D02*
X111750000Y-157634819D01*
X111750000Y-157634819D02*
X111654762Y-157777676D01*
X111654762Y-157777676D02*
X111559524Y-157872914D01*
X111559524Y-157872914D02*
X111464286Y-157920533D01*
X111083333Y-144789580D02*
X111035714Y-144837200D01*
X111035714Y-144837200D02*
X110892857Y-144884819D01*
X110892857Y-144884819D02*
X110797619Y-144884819D01*
X110797619Y-144884819D02*
X110654762Y-144837200D01*
X110654762Y-144837200D02*
X110559524Y-144741961D01*
X110559524Y-144741961D02*
X110511905Y-144646723D01*
X110511905Y-144646723D02*
X110464286Y-144456247D01*
X110464286Y-144456247D02*
X110464286Y-144313390D01*
X110464286Y-144313390D02*
X110511905Y-144122914D01*
X110511905Y-144122914D02*
X110559524Y-144027676D01*
X110559524Y-144027676D02*
X110654762Y-143932438D01*
X110654762Y-143932438D02*
X110797619Y-143884819D01*
X110797619Y-143884819D02*
X110892857Y-143884819D01*
X110892857Y-143884819D02*
X111035714Y-143932438D01*
X111035714Y-143932438D02*
X111083333Y-143980057D01*
X111416667Y-143884819D02*
X112083333Y-143884819D01*
X112083333Y-143884819D02*
X111654762Y-144884819D01*
X152272114Y-142822680D02*
X152224495Y-142870300D01*
X152224495Y-142870300D02*
X152081638Y-142917919D01*
X152081638Y-142917919D02*
X151986400Y-142917919D01*
X151986400Y-142917919D02*
X151843543Y-142870300D01*
X151843543Y-142870300D02*
X151748305Y-142775061D01*
X151748305Y-142775061D02*
X151700686Y-142679823D01*
X151700686Y-142679823D02*
X151653067Y-142489347D01*
X151653067Y-142489347D02*
X151653067Y-142346490D01*
X151653067Y-142346490D02*
X151700686Y-142156014D01*
X151700686Y-142156014D02*
X151748305Y-142060776D01*
X151748305Y-142060776D02*
X151843543Y-141965538D01*
X151843543Y-141965538D02*
X151986400Y-141917919D01*
X151986400Y-141917919D02*
X152081638Y-141917919D01*
X152081638Y-141917919D02*
X152224495Y-141965538D01*
X152224495Y-141965538D02*
X152272114Y-142013157D01*
X152891162Y-141917919D02*
X153081638Y-141917919D01*
X153081638Y-141917919D02*
X153176876Y-141965538D01*
X153176876Y-141965538D02*
X153272114Y-142060776D01*
X153272114Y-142060776D02*
X153319733Y-142251252D01*
X153319733Y-142251252D02*
X153319733Y-142584585D01*
X153319733Y-142584585D02*
X153272114Y-142775061D01*
X153272114Y-142775061D02*
X153176876Y-142870300D01*
X153176876Y-142870300D02*
X153081638Y-142917919D01*
X153081638Y-142917919D02*
X152891162Y-142917919D01*
X152891162Y-142917919D02*
X152795924Y-142870300D01*
X152795924Y-142870300D02*
X152700686Y-142775061D01*
X152700686Y-142775061D02*
X152653067Y-142584585D01*
X152653067Y-142584585D02*
X152653067Y-142251252D01*
X152653067Y-142251252D02*
X152700686Y-142060776D01*
X152700686Y-142060776D02*
X152795924Y-141965538D01*
X152795924Y-141965538D02*
X152891162Y-141917919D01*
X153748305Y-142917919D02*
X153748305Y-141917919D01*
X153748305Y-141917919D02*
X154319733Y-142917919D01*
X154319733Y-142917919D02*
X154319733Y-141917919D01*
X155319733Y-142917919D02*
X154748305Y-142917919D01*
X155034019Y-142917919D02*
X155034019Y-141917919D01*
X155034019Y-141917919D02*
X154938781Y-142060776D01*
X154938781Y-142060776D02*
X154843543Y-142156014D01*
X154843543Y-142156014D02*
X154748305Y-142203633D01*
X62896666Y-157994819D02*
X62896666Y-158709104D01*
X62896666Y-158709104D02*
X62849047Y-158851961D01*
X62849047Y-158851961D02*
X62753809Y-158947200D01*
X62753809Y-158947200D02*
X62610952Y-158994819D01*
X62610952Y-158994819D02*
X62515714Y-158994819D01*
X63372857Y-158994819D02*
X63372857Y-157994819D01*
X63372857Y-157994819D02*
X63753809Y-157994819D01*
X63753809Y-157994819D02*
X63849047Y-158042438D01*
X63849047Y-158042438D02*
X63896666Y-158090057D01*
X63896666Y-158090057D02*
X63944285Y-158185295D01*
X63944285Y-158185295D02*
X63944285Y-158328152D01*
X63944285Y-158328152D02*
X63896666Y-158423390D01*
X63896666Y-158423390D02*
X63849047Y-158471009D01*
X63849047Y-158471009D02*
X63753809Y-158518628D01*
X63753809Y-158518628D02*
X63372857Y-158518628D01*
X64896666Y-158994819D02*
X64325238Y-158994819D01*
X64610952Y-158994819D02*
X64610952Y-157994819D01*
X64610952Y-157994819D02*
X64515714Y-158137676D01*
X64515714Y-158137676D02*
X64420476Y-158232914D01*
X64420476Y-158232914D02*
X64325238Y-158280533D01*
X78699819Y-152611904D02*
X79509342Y-152611904D01*
X79509342Y-152611904D02*
X79604580Y-152564285D01*
X79604580Y-152564285D02*
X79652200Y-152516666D01*
X79652200Y-152516666D02*
X79699819Y-152421428D01*
X79699819Y-152421428D02*
X79699819Y-152230952D01*
X79699819Y-152230952D02*
X79652200Y-152135714D01*
X79652200Y-152135714D02*
X79604580Y-152088095D01*
X79604580Y-152088095D02*
X79509342Y-152040476D01*
X79509342Y-152040476D02*
X78699819Y-152040476D01*
X79699819Y-151040476D02*
X79699819Y-151611904D01*
X79699819Y-151326190D02*
X78699819Y-151326190D01*
X78699819Y-151326190D02*
X78842676Y-151421428D01*
X78842676Y-151421428D02*
X78937914Y-151516666D01*
X78937914Y-151516666D02*
X78985533Y-151611904D01*
X127789580Y-129142857D02*
X127837200Y-129190476D01*
X127837200Y-129190476D02*
X127884819Y-129333333D01*
X127884819Y-129333333D02*
X127884819Y-129428571D01*
X127884819Y-129428571D02*
X127837200Y-129571428D01*
X127837200Y-129571428D02*
X127741961Y-129666666D01*
X127741961Y-129666666D02*
X127646723Y-129714285D01*
X127646723Y-129714285D02*
X127456247Y-129761904D01*
X127456247Y-129761904D02*
X127313390Y-129761904D01*
X127313390Y-129761904D02*
X127122914Y-129714285D01*
X127122914Y-129714285D02*
X127027676Y-129666666D01*
X127027676Y-129666666D02*
X126932438Y-129571428D01*
X126932438Y-129571428D02*
X126884819Y-129428571D01*
X126884819Y-129428571D02*
X126884819Y-129333333D01*
X126884819Y-129333333D02*
X126932438Y-129190476D01*
X126932438Y-129190476D02*
X126980057Y-129142857D01*
X127884819Y-128190476D02*
X127884819Y-128761904D01*
X127884819Y-128476190D02*
X126884819Y-128476190D01*
X126884819Y-128476190D02*
X127027676Y-128571428D01*
X127027676Y-128571428D02*
X127122914Y-128666666D01*
X127122914Y-128666666D02*
X127170533Y-128761904D01*
X127884819Y-127238095D02*
X127884819Y-127809523D01*
X127884819Y-127523809D02*
X126884819Y-127523809D01*
X126884819Y-127523809D02*
X127027676Y-127619047D01*
X127027676Y-127619047D02*
X127122914Y-127714285D01*
X127122914Y-127714285D02*
X127170533Y-127809523D01*
X116859580Y-134416666D02*
X116907200Y-134464285D01*
X116907200Y-134464285D02*
X116954819Y-134607142D01*
X116954819Y-134607142D02*
X116954819Y-134702380D01*
X116954819Y-134702380D02*
X116907200Y-134845237D01*
X116907200Y-134845237D02*
X116811961Y-134940475D01*
X116811961Y-134940475D02*
X116716723Y-134988094D01*
X116716723Y-134988094D02*
X116526247Y-135035713D01*
X116526247Y-135035713D02*
X116383390Y-135035713D01*
X116383390Y-135035713D02*
X116192914Y-134988094D01*
X116192914Y-134988094D02*
X116097676Y-134940475D01*
X116097676Y-134940475D02*
X116002438Y-134845237D01*
X116002438Y-134845237D02*
X115954819Y-134702380D01*
X115954819Y-134702380D02*
X115954819Y-134607142D01*
X115954819Y-134607142D02*
X116002438Y-134464285D01*
X116002438Y-134464285D02*
X116050057Y-134416666D01*
X116383390Y-133845237D02*
X116335771Y-133940475D01*
X116335771Y-133940475D02*
X116288152Y-133988094D01*
X116288152Y-133988094D02*
X116192914Y-134035713D01*
X116192914Y-134035713D02*
X116145295Y-134035713D01*
X116145295Y-134035713D02*
X116050057Y-133988094D01*
X116050057Y-133988094D02*
X116002438Y-133940475D01*
X116002438Y-133940475D02*
X115954819Y-133845237D01*
X115954819Y-133845237D02*
X115954819Y-133654761D01*
X115954819Y-133654761D02*
X116002438Y-133559523D01*
X116002438Y-133559523D02*
X116050057Y-133511904D01*
X116050057Y-133511904D02*
X116145295Y-133464285D01*
X116145295Y-133464285D02*
X116192914Y-133464285D01*
X116192914Y-133464285D02*
X116288152Y-133511904D01*
X116288152Y-133511904D02*
X116335771Y-133559523D01*
X116335771Y-133559523D02*
X116383390Y-133654761D01*
X116383390Y-133654761D02*
X116383390Y-133845237D01*
X116383390Y-133845237D02*
X116431009Y-133940475D01*
X116431009Y-133940475D02*
X116478628Y-133988094D01*
X116478628Y-133988094D02*
X116573866Y-134035713D01*
X116573866Y-134035713D02*
X116764342Y-134035713D01*
X116764342Y-134035713D02*
X116859580Y-133988094D01*
X116859580Y-133988094D02*
X116907200Y-133940475D01*
X116907200Y-133940475D02*
X116954819Y-133845237D01*
X116954819Y-133845237D02*
X116954819Y-133654761D01*
X116954819Y-133654761D02*
X116907200Y-133559523D01*
X116907200Y-133559523D02*
X116859580Y-133511904D01*
X116859580Y-133511904D02*
X116764342Y-133464285D01*
X116764342Y-133464285D02*
X116573866Y-133464285D01*
X116573866Y-133464285D02*
X116478628Y-133511904D01*
X116478628Y-133511904D02*
X116431009Y-133559523D01*
X116431009Y-133559523D02*
X116383390Y-133654761D01*
X119609580Y-135142857D02*
X119657200Y-135190476D01*
X119657200Y-135190476D02*
X119704819Y-135333333D01*
X119704819Y-135333333D02*
X119704819Y-135428571D01*
X119704819Y-135428571D02*
X119657200Y-135571428D01*
X119657200Y-135571428D02*
X119561961Y-135666666D01*
X119561961Y-135666666D02*
X119466723Y-135714285D01*
X119466723Y-135714285D02*
X119276247Y-135761904D01*
X119276247Y-135761904D02*
X119133390Y-135761904D01*
X119133390Y-135761904D02*
X118942914Y-135714285D01*
X118942914Y-135714285D02*
X118847676Y-135666666D01*
X118847676Y-135666666D02*
X118752438Y-135571428D01*
X118752438Y-135571428D02*
X118704819Y-135428571D01*
X118704819Y-135428571D02*
X118704819Y-135333333D01*
X118704819Y-135333333D02*
X118752438Y-135190476D01*
X118752438Y-135190476D02*
X118800057Y-135142857D01*
X119704819Y-134190476D02*
X119704819Y-134761904D01*
X119704819Y-134476190D02*
X118704819Y-134476190D01*
X118704819Y-134476190D02*
X118847676Y-134571428D01*
X118847676Y-134571428D02*
X118942914Y-134666666D01*
X118942914Y-134666666D02*
X118990533Y-134761904D01*
X118800057Y-133809523D02*
X118752438Y-133761904D01*
X118752438Y-133761904D02*
X118704819Y-133666666D01*
X118704819Y-133666666D02*
X118704819Y-133428571D01*
X118704819Y-133428571D02*
X118752438Y-133333333D01*
X118752438Y-133333333D02*
X118800057Y-133285714D01*
X118800057Y-133285714D02*
X118895295Y-133238095D01*
X118895295Y-133238095D02*
X118990533Y-133238095D01*
X118990533Y-133238095D02*
X119133390Y-133285714D01*
X119133390Y-133285714D02*
X119704819Y-133857142D01*
X119704819Y-133857142D02*
X119704819Y-133238095D01*
X112304819Y-152761904D02*
X113114342Y-152761904D01*
X113114342Y-152761904D02*
X113209580Y-152714285D01*
X113209580Y-152714285D02*
X113257200Y-152666666D01*
X113257200Y-152666666D02*
X113304819Y-152571428D01*
X113304819Y-152571428D02*
X113304819Y-152380952D01*
X113304819Y-152380952D02*
X113257200Y-152285714D01*
X113257200Y-152285714D02*
X113209580Y-152238095D01*
X113209580Y-152238095D02*
X113114342Y-152190476D01*
X113114342Y-152190476D02*
X112304819Y-152190476D01*
X112400057Y-151761904D02*
X112352438Y-151714285D01*
X112352438Y-151714285D02*
X112304819Y-151619047D01*
X112304819Y-151619047D02*
X112304819Y-151380952D01*
X112304819Y-151380952D02*
X112352438Y-151285714D01*
X112352438Y-151285714D02*
X112400057Y-151238095D01*
X112400057Y-151238095D02*
X112495295Y-151190476D01*
X112495295Y-151190476D02*
X112590533Y-151190476D01*
X112590533Y-151190476D02*
X112733390Y-151238095D01*
X112733390Y-151238095D02*
X113304819Y-151809523D01*
X113304819Y-151809523D02*
X113304819Y-151190476D01*
X79979600Y-143859580D02*
X79931981Y-143907200D01*
X79931981Y-143907200D02*
X79789124Y-143954819D01*
X79789124Y-143954819D02*
X79693886Y-143954819D01*
X79693886Y-143954819D02*
X79551029Y-143907200D01*
X79551029Y-143907200D02*
X79455791Y-143811961D01*
X79455791Y-143811961D02*
X79408172Y-143716723D01*
X79408172Y-143716723D02*
X79360553Y-143526247D01*
X79360553Y-143526247D02*
X79360553Y-143383390D01*
X79360553Y-143383390D02*
X79408172Y-143192914D01*
X79408172Y-143192914D02*
X79455791Y-143097676D01*
X79455791Y-143097676D02*
X79551029Y-143002438D01*
X79551029Y-143002438D02*
X79693886Y-142954819D01*
X79693886Y-142954819D02*
X79789124Y-142954819D01*
X79789124Y-142954819D02*
X79931981Y-143002438D01*
X79931981Y-143002438D02*
X79979600Y-143050057D01*
X80836743Y-142954819D02*
X80646267Y-142954819D01*
X80646267Y-142954819D02*
X80551029Y-143002438D01*
X80551029Y-143002438D02*
X80503410Y-143050057D01*
X80503410Y-143050057D02*
X80408172Y-143192914D01*
X80408172Y-143192914D02*
X80360553Y-143383390D01*
X80360553Y-143383390D02*
X80360553Y-143764342D01*
X80360553Y-143764342D02*
X80408172Y-143859580D01*
X80408172Y-143859580D02*
X80455791Y-143907200D01*
X80455791Y-143907200D02*
X80551029Y-143954819D01*
X80551029Y-143954819D02*
X80741505Y-143954819D01*
X80741505Y-143954819D02*
X80836743Y-143907200D01*
X80836743Y-143907200D02*
X80884362Y-143859580D01*
X80884362Y-143859580D02*
X80931981Y-143764342D01*
X80931981Y-143764342D02*
X80931981Y-143526247D01*
X80931981Y-143526247D02*
X80884362Y-143431009D01*
X80884362Y-143431009D02*
X80836743Y-143383390D01*
X80836743Y-143383390D02*
X80741505Y-143335771D01*
X80741505Y-143335771D02*
X80551029Y-143335771D01*
X80551029Y-143335771D02*
X80455791Y-143383390D01*
X80455791Y-143383390D02*
X80408172Y-143431009D01*
X80408172Y-143431009D02*
X80360553Y-143526247D01*
X97523809Y-146728628D02*
X97523809Y-147204819D01*
X97190476Y-146204819D02*
X97523809Y-146728628D01*
X97523809Y-146728628D02*
X97857142Y-146204819D01*
X98714285Y-147204819D02*
X98142857Y-147204819D01*
X98428571Y-147204819D02*
X98428571Y-146204819D01*
X98428571Y-146204819D02*
X98333333Y-146347676D01*
X98333333Y-146347676D02*
X98238095Y-146442914D01*
X98238095Y-146442914D02*
X98142857Y-146490533D01*
X150500733Y-146392919D02*
X150024543Y-146392919D01*
X150024543Y-146392919D02*
X150024543Y-145392919D01*
X150786448Y-145488157D02*
X150834067Y-145440538D01*
X150834067Y-145440538D02*
X150929305Y-145392919D01*
X150929305Y-145392919D02*
X151167400Y-145392919D01*
X151167400Y-145392919D02*
X151262638Y-145440538D01*
X151262638Y-145440538D02*
X151310257Y-145488157D01*
X151310257Y-145488157D02*
X151357876Y-145583395D01*
X151357876Y-145583395D02*
X151357876Y-145678633D01*
X151357876Y-145678633D02*
X151310257Y-145821490D01*
X151310257Y-145821490D02*
X150738829Y-146392919D01*
X150738829Y-146392919D02*
X151357876Y-146392919D01*
X112354819Y-141761904D02*
X113164342Y-141761904D01*
X113164342Y-141761904D02*
X113259580Y-141714285D01*
X113259580Y-141714285D02*
X113307200Y-141666666D01*
X113307200Y-141666666D02*
X113354819Y-141571428D01*
X113354819Y-141571428D02*
X113354819Y-141380952D01*
X113354819Y-141380952D02*
X113307200Y-141285714D01*
X113307200Y-141285714D02*
X113259580Y-141238095D01*
X113259580Y-141238095D02*
X113164342Y-141190476D01*
X113164342Y-141190476D02*
X112354819Y-141190476D01*
X112354819Y-140809523D02*
X112354819Y-140190476D01*
X112354819Y-140190476D02*
X112735771Y-140523809D01*
X112735771Y-140523809D02*
X112735771Y-140380952D01*
X112735771Y-140380952D02*
X112783390Y-140285714D01*
X112783390Y-140285714D02*
X112831009Y-140238095D01*
X112831009Y-140238095D02*
X112926247Y-140190476D01*
X112926247Y-140190476D02*
X113164342Y-140190476D01*
X113164342Y-140190476D02*
X113259580Y-140238095D01*
X113259580Y-140238095D02*
X113307200Y-140285714D01*
X113307200Y-140285714D02*
X113354819Y-140380952D01*
X113354819Y-140380952D02*
X113354819Y-140666666D01*
X113354819Y-140666666D02*
X113307200Y-140761904D01*
X113307200Y-140761904D02*
X113259580Y-140809523D01*
X134000733Y-146297680D02*
X133953114Y-146345300D01*
X133953114Y-146345300D02*
X133810257Y-146392919D01*
X133810257Y-146392919D02*
X133715019Y-146392919D01*
X133715019Y-146392919D02*
X133572162Y-146345300D01*
X133572162Y-146345300D02*
X133476924Y-146250061D01*
X133476924Y-146250061D02*
X133429305Y-146154823D01*
X133429305Y-146154823D02*
X133381686Y-145964347D01*
X133381686Y-145964347D02*
X133381686Y-145821490D01*
X133381686Y-145821490D02*
X133429305Y-145631014D01*
X133429305Y-145631014D02*
X133476924Y-145535776D01*
X133476924Y-145535776D02*
X133572162Y-145440538D01*
X133572162Y-145440538D02*
X133715019Y-145392919D01*
X133715019Y-145392919D02*
X133810257Y-145392919D01*
X133810257Y-145392919D02*
X133953114Y-145440538D01*
X133953114Y-145440538D02*
X134000733Y-145488157D01*
X134381686Y-145488157D02*
X134429305Y-145440538D01*
X134429305Y-145440538D02*
X134524543Y-145392919D01*
X134524543Y-145392919D02*
X134762638Y-145392919D01*
X134762638Y-145392919D02*
X134857876Y-145440538D01*
X134857876Y-145440538D02*
X134905495Y-145488157D01*
X134905495Y-145488157D02*
X134953114Y-145583395D01*
X134953114Y-145583395D02*
X134953114Y-145678633D01*
X134953114Y-145678633D02*
X134905495Y-145821490D01*
X134905495Y-145821490D02*
X134334067Y-146392919D01*
X134334067Y-146392919D02*
X134953114Y-146392919D01*
X76958333Y-156394819D02*
X76625000Y-155918628D01*
X76386905Y-156394819D02*
X76386905Y-155394819D01*
X76386905Y-155394819D02*
X76767857Y-155394819D01*
X76767857Y-155394819D02*
X76863095Y-155442438D01*
X76863095Y-155442438D02*
X76910714Y-155490057D01*
X76910714Y-155490057D02*
X76958333Y-155585295D01*
X76958333Y-155585295D02*
X76958333Y-155728152D01*
X76958333Y-155728152D02*
X76910714Y-155823390D01*
X76910714Y-155823390D02*
X76863095Y-155871009D01*
X76863095Y-155871009D02*
X76767857Y-155918628D01*
X76767857Y-155918628D02*
X76386905Y-155918628D01*
X77815476Y-155394819D02*
X77625000Y-155394819D01*
X77625000Y-155394819D02*
X77529762Y-155442438D01*
X77529762Y-155442438D02*
X77482143Y-155490057D01*
X77482143Y-155490057D02*
X77386905Y-155632914D01*
X77386905Y-155632914D02*
X77339286Y-155823390D01*
X77339286Y-155823390D02*
X77339286Y-156204342D01*
X77339286Y-156204342D02*
X77386905Y-156299580D01*
X77386905Y-156299580D02*
X77434524Y-156347200D01*
X77434524Y-156347200D02*
X77529762Y-156394819D01*
X77529762Y-156394819D02*
X77720238Y-156394819D01*
X77720238Y-156394819D02*
X77815476Y-156347200D01*
X77815476Y-156347200D02*
X77863095Y-156299580D01*
X77863095Y-156299580D02*
X77910714Y-156204342D01*
X77910714Y-156204342D02*
X77910714Y-155966247D01*
X77910714Y-155966247D02*
X77863095Y-155871009D01*
X77863095Y-155871009D02*
X77815476Y-155823390D01*
X77815476Y-155823390D02*
X77720238Y-155775771D01*
X77720238Y-155775771D02*
X77529762Y-155775771D01*
X77529762Y-155775771D02*
X77434524Y-155823390D01*
X77434524Y-155823390D02*
X77386905Y-155871009D01*
X77386905Y-155871009D02*
X77339286Y-155966247D01*
X127109580Y-119142857D02*
X127157200Y-119190476D01*
X127157200Y-119190476D02*
X127204819Y-119333333D01*
X127204819Y-119333333D02*
X127204819Y-119428571D01*
X127204819Y-119428571D02*
X127157200Y-119571428D01*
X127157200Y-119571428D02*
X127061961Y-119666666D01*
X127061961Y-119666666D02*
X126966723Y-119714285D01*
X126966723Y-119714285D02*
X126776247Y-119761904D01*
X126776247Y-119761904D02*
X126633390Y-119761904D01*
X126633390Y-119761904D02*
X126442914Y-119714285D01*
X126442914Y-119714285D02*
X126347676Y-119666666D01*
X126347676Y-119666666D02*
X126252438Y-119571428D01*
X126252438Y-119571428D02*
X126204819Y-119428571D01*
X126204819Y-119428571D02*
X126204819Y-119333333D01*
X126204819Y-119333333D02*
X126252438Y-119190476D01*
X126252438Y-119190476D02*
X126300057Y-119142857D01*
X127204819Y-118190476D02*
X127204819Y-118761904D01*
X127204819Y-118476190D02*
X126204819Y-118476190D01*
X126204819Y-118476190D02*
X126347676Y-118571428D01*
X126347676Y-118571428D02*
X126442914Y-118666666D01*
X126442914Y-118666666D02*
X126490533Y-118761904D01*
X126204819Y-117857142D02*
X126204819Y-117238095D01*
X126204819Y-117238095D02*
X126585771Y-117571428D01*
X126585771Y-117571428D02*
X126585771Y-117428571D01*
X126585771Y-117428571D02*
X126633390Y-117333333D01*
X126633390Y-117333333D02*
X126681009Y-117285714D01*
X126681009Y-117285714D02*
X126776247Y-117238095D01*
X126776247Y-117238095D02*
X127014342Y-117238095D01*
X127014342Y-117238095D02*
X127109580Y-117285714D01*
X127109580Y-117285714D02*
X127157200Y-117333333D01*
X127157200Y-117333333D02*
X127204819Y-117428571D01*
X127204819Y-117428571D02*
X127204819Y-117714285D01*
X127204819Y-117714285D02*
X127157200Y-117809523D01*
X127157200Y-117809523D02*
X127109580Y-117857142D01*
X138884819Y-121892857D02*
X138408628Y-122226190D01*
X138884819Y-122464285D02*
X137884819Y-122464285D01*
X137884819Y-122464285D02*
X137884819Y-122083333D01*
X137884819Y-122083333D02*
X137932438Y-121988095D01*
X137932438Y-121988095D02*
X137980057Y-121940476D01*
X137980057Y-121940476D02*
X138075295Y-121892857D01*
X138075295Y-121892857D02*
X138218152Y-121892857D01*
X138218152Y-121892857D02*
X138313390Y-121940476D01*
X138313390Y-121940476D02*
X138361009Y-121988095D01*
X138361009Y-121988095D02*
X138408628Y-122083333D01*
X138408628Y-122083333D02*
X138408628Y-122464285D01*
X138884819Y-120940476D02*
X138884819Y-121511904D01*
X138884819Y-121226190D02*
X137884819Y-121226190D01*
X137884819Y-121226190D02*
X138027676Y-121321428D01*
X138027676Y-121321428D02*
X138122914Y-121416666D01*
X138122914Y-121416666D02*
X138170533Y-121511904D01*
X137884819Y-120321428D02*
X137884819Y-120226190D01*
X137884819Y-120226190D02*
X137932438Y-120130952D01*
X137932438Y-120130952D02*
X137980057Y-120083333D01*
X137980057Y-120083333D02*
X138075295Y-120035714D01*
X138075295Y-120035714D02*
X138265771Y-119988095D01*
X138265771Y-119988095D02*
X138503866Y-119988095D01*
X138503866Y-119988095D02*
X138694342Y-120035714D01*
X138694342Y-120035714D02*
X138789580Y-120083333D01*
X138789580Y-120083333D02*
X138837200Y-120130952D01*
X138837200Y-120130952D02*
X138884819Y-120226190D01*
X138884819Y-120226190D02*
X138884819Y-120321428D01*
X138884819Y-120321428D02*
X138837200Y-120416666D01*
X138837200Y-120416666D02*
X138789580Y-120464285D01*
X138789580Y-120464285D02*
X138694342Y-120511904D01*
X138694342Y-120511904D02*
X138503866Y-120559523D01*
X138503866Y-120559523D02*
X138265771Y-120559523D01*
X138265771Y-120559523D02*
X138075295Y-120511904D01*
X138075295Y-120511904D02*
X137980057Y-120464285D01*
X137980057Y-120464285D02*
X137932438Y-120416666D01*
X137932438Y-120416666D02*
X137884819Y-120321428D01*
X120859580Y-115916666D02*
X120907200Y-115964285D01*
X120907200Y-115964285D02*
X120954819Y-116107142D01*
X120954819Y-116107142D02*
X120954819Y-116202380D01*
X120954819Y-116202380D02*
X120907200Y-116345237D01*
X120907200Y-116345237D02*
X120811961Y-116440475D01*
X120811961Y-116440475D02*
X120716723Y-116488094D01*
X120716723Y-116488094D02*
X120526247Y-116535713D01*
X120526247Y-116535713D02*
X120383390Y-116535713D01*
X120383390Y-116535713D02*
X120192914Y-116488094D01*
X120192914Y-116488094D02*
X120097676Y-116440475D01*
X120097676Y-116440475D02*
X120002438Y-116345237D01*
X120002438Y-116345237D02*
X119954819Y-116202380D01*
X119954819Y-116202380D02*
X119954819Y-116107142D01*
X119954819Y-116107142D02*
X120002438Y-115964285D01*
X120002438Y-115964285D02*
X120050057Y-115916666D01*
X120954819Y-115440475D02*
X120954819Y-115249999D01*
X120954819Y-115249999D02*
X120907200Y-115154761D01*
X120907200Y-115154761D02*
X120859580Y-115107142D01*
X120859580Y-115107142D02*
X120716723Y-115011904D01*
X120716723Y-115011904D02*
X120526247Y-114964285D01*
X120526247Y-114964285D02*
X120145295Y-114964285D01*
X120145295Y-114964285D02*
X120050057Y-115011904D01*
X120050057Y-115011904D02*
X120002438Y-115059523D01*
X120002438Y-115059523D02*
X119954819Y-115154761D01*
X119954819Y-115154761D02*
X119954819Y-115345237D01*
X119954819Y-115345237D02*
X120002438Y-115440475D01*
X120002438Y-115440475D02*
X120050057Y-115488094D01*
X120050057Y-115488094D02*
X120145295Y-115535713D01*
X120145295Y-115535713D02*
X120383390Y-115535713D01*
X120383390Y-115535713D02*
X120478628Y-115488094D01*
X120478628Y-115488094D02*
X120526247Y-115440475D01*
X120526247Y-115440475D02*
X120573866Y-115345237D01*
X120573866Y-115345237D02*
X120573866Y-115154761D01*
X120573866Y-115154761D02*
X120526247Y-115059523D01*
X120526247Y-115059523D02*
X120478628Y-115011904D01*
X120478628Y-115011904D02*
X120383390Y-114964285D01*
X76958333Y-153974819D02*
X76625000Y-153498628D01*
X76386905Y-153974819D02*
X76386905Y-152974819D01*
X76386905Y-152974819D02*
X76767857Y-152974819D01*
X76767857Y-152974819D02*
X76863095Y-153022438D01*
X76863095Y-153022438D02*
X76910714Y-153070057D01*
X76910714Y-153070057D02*
X76958333Y-153165295D01*
X76958333Y-153165295D02*
X76958333Y-153308152D01*
X76958333Y-153308152D02*
X76910714Y-153403390D01*
X76910714Y-153403390D02*
X76863095Y-153451009D01*
X76863095Y-153451009D02*
X76767857Y-153498628D01*
X76767857Y-153498628D02*
X76386905Y-153498628D01*
X77863095Y-152974819D02*
X77386905Y-152974819D01*
X77386905Y-152974819D02*
X77339286Y-153451009D01*
X77339286Y-153451009D02*
X77386905Y-153403390D01*
X77386905Y-153403390D02*
X77482143Y-153355771D01*
X77482143Y-153355771D02*
X77720238Y-153355771D01*
X77720238Y-153355771D02*
X77815476Y-153403390D01*
X77815476Y-153403390D02*
X77863095Y-153451009D01*
X77863095Y-153451009D02*
X77910714Y-153546247D01*
X77910714Y-153546247D02*
X77910714Y-153784342D01*
X77910714Y-153784342D02*
X77863095Y-153879580D01*
X77863095Y-153879580D02*
X77815476Y-153927200D01*
X77815476Y-153927200D02*
X77720238Y-153974819D01*
X77720238Y-153974819D02*
X77482143Y-153974819D01*
X77482143Y-153974819D02*
X77386905Y-153927200D01*
X77386905Y-153927200D02*
X77339286Y-153879580D01*
X111083333Y-117954819D02*
X110750000Y-117478628D01*
X110511905Y-117954819D02*
X110511905Y-116954819D01*
X110511905Y-116954819D02*
X110892857Y-116954819D01*
X110892857Y-116954819D02*
X110988095Y-117002438D01*
X110988095Y-117002438D02*
X111035714Y-117050057D01*
X111035714Y-117050057D02*
X111083333Y-117145295D01*
X111083333Y-117145295D02*
X111083333Y-117288152D01*
X111083333Y-117288152D02*
X111035714Y-117383390D01*
X111035714Y-117383390D02*
X110988095Y-117431009D01*
X110988095Y-117431009D02*
X110892857Y-117478628D01*
X110892857Y-117478628D02*
X110511905Y-117478628D01*
X111559524Y-117954819D02*
X111750000Y-117954819D01*
X111750000Y-117954819D02*
X111845238Y-117907200D01*
X111845238Y-117907200D02*
X111892857Y-117859580D01*
X111892857Y-117859580D02*
X111988095Y-117716723D01*
X111988095Y-117716723D02*
X112035714Y-117526247D01*
X112035714Y-117526247D02*
X112035714Y-117145295D01*
X112035714Y-117145295D02*
X111988095Y-117050057D01*
X111988095Y-117050057D02*
X111940476Y-117002438D01*
X111940476Y-117002438D02*
X111845238Y-116954819D01*
X111845238Y-116954819D02*
X111654762Y-116954819D01*
X111654762Y-116954819D02*
X111559524Y-117002438D01*
X111559524Y-117002438D02*
X111511905Y-117050057D01*
X111511905Y-117050057D02*
X111464286Y-117145295D01*
X111464286Y-117145295D02*
X111464286Y-117383390D01*
X111464286Y-117383390D02*
X111511905Y-117478628D01*
X111511905Y-117478628D02*
X111559524Y-117526247D01*
X111559524Y-117526247D02*
X111654762Y-117573866D01*
X111654762Y-117573866D02*
X111845238Y-117573866D01*
X111845238Y-117573866D02*
X111940476Y-117526247D01*
X111940476Y-117526247D02*
X111988095Y-117478628D01*
X111988095Y-117478628D02*
X112035714Y-117383390D01*
X141179580Y-121642857D02*
X141227200Y-121690476D01*
X141227200Y-121690476D02*
X141274819Y-121833333D01*
X141274819Y-121833333D02*
X141274819Y-121928571D01*
X141274819Y-121928571D02*
X141227200Y-122071428D01*
X141227200Y-122071428D02*
X141131961Y-122166666D01*
X141131961Y-122166666D02*
X141036723Y-122214285D01*
X141036723Y-122214285D02*
X140846247Y-122261904D01*
X140846247Y-122261904D02*
X140703390Y-122261904D01*
X140703390Y-122261904D02*
X140512914Y-122214285D01*
X140512914Y-122214285D02*
X140417676Y-122166666D01*
X140417676Y-122166666D02*
X140322438Y-122071428D01*
X140322438Y-122071428D02*
X140274819Y-121928571D01*
X140274819Y-121928571D02*
X140274819Y-121833333D01*
X140274819Y-121833333D02*
X140322438Y-121690476D01*
X140322438Y-121690476D02*
X140370057Y-121642857D01*
X141274819Y-120690476D02*
X141274819Y-121261904D01*
X141274819Y-120976190D02*
X140274819Y-120976190D01*
X140274819Y-120976190D02*
X140417676Y-121071428D01*
X140417676Y-121071428D02*
X140512914Y-121166666D01*
X140512914Y-121166666D02*
X140560533Y-121261904D01*
X140274819Y-120357142D02*
X140274819Y-119690476D01*
X140274819Y-119690476D02*
X141274819Y-120119047D01*
X122704819Y-134416666D02*
X122228628Y-134749999D01*
X122704819Y-134988094D02*
X121704819Y-134988094D01*
X121704819Y-134988094D02*
X121704819Y-134607142D01*
X121704819Y-134607142D02*
X121752438Y-134511904D01*
X121752438Y-134511904D02*
X121800057Y-134464285D01*
X121800057Y-134464285D02*
X121895295Y-134416666D01*
X121895295Y-134416666D02*
X122038152Y-134416666D01*
X122038152Y-134416666D02*
X122133390Y-134464285D01*
X122133390Y-134464285D02*
X122181009Y-134511904D01*
X122181009Y-134511904D02*
X122228628Y-134607142D01*
X122228628Y-134607142D02*
X122228628Y-134988094D01*
X121704819Y-134083332D02*
X121704819Y-133416666D01*
X121704819Y-133416666D02*
X122704819Y-133845237D01*
X123204819Y-115916666D02*
X122728628Y-116249999D01*
X123204819Y-116488094D02*
X122204819Y-116488094D01*
X122204819Y-116488094D02*
X122204819Y-116107142D01*
X122204819Y-116107142D02*
X122252438Y-116011904D01*
X122252438Y-116011904D02*
X122300057Y-115964285D01*
X122300057Y-115964285D02*
X122395295Y-115916666D01*
X122395295Y-115916666D02*
X122538152Y-115916666D01*
X122538152Y-115916666D02*
X122633390Y-115964285D01*
X122633390Y-115964285D02*
X122681009Y-116011904D01*
X122681009Y-116011904D02*
X122728628Y-116107142D01*
X122728628Y-116107142D02*
X122728628Y-116488094D01*
X122633390Y-115345237D02*
X122585771Y-115440475D01*
X122585771Y-115440475D02*
X122538152Y-115488094D01*
X122538152Y-115488094D02*
X122442914Y-115535713D01*
X122442914Y-115535713D02*
X122395295Y-115535713D01*
X122395295Y-115535713D02*
X122300057Y-115488094D01*
X122300057Y-115488094D02*
X122252438Y-115440475D01*
X122252438Y-115440475D02*
X122204819Y-115345237D01*
X122204819Y-115345237D02*
X122204819Y-115154761D01*
X122204819Y-115154761D02*
X122252438Y-115059523D01*
X122252438Y-115059523D02*
X122300057Y-115011904D01*
X122300057Y-115011904D02*
X122395295Y-114964285D01*
X122395295Y-114964285D02*
X122442914Y-114964285D01*
X122442914Y-114964285D02*
X122538152Y-115011904D01*
X122538152Y-115011904D02*
X122585771Y-115059523D01*
X122585771Y-115059523D02*
X122633390Y-115154761D01*
X122633390Y-115154761D02*
X122633390Y-115345237D01*
X122633390Y-115345237D02*
X122681009Y-115440475D01*
X122681009Y-115440475D02*
X122728628Y-115488094D01*
X122728628Y-115488094D02*
X122823866Y-115535713D01*
X122823866Y-115535713D02*
X123014342Y-115535713D01*
X123014342Y-115535713D02*
X123109580Y-115488094D01*
X123109580Y-115488094D02*
X123157200Y-115440475D01*
X123157200Y-115440475D02*
X123204819Y-115345237D01*
X123204819Y-115345237D02*
X123204819Y-115154761D01*
X123204819Y-115154761D02*
X123157200Y-115059523D01*
X123157200Y-115059523D02*
X123109580Y-115011904D01*
X123109580Y-115011904D02*
X123014342Y-114964285D01*
X123014342Y-114964285D02*
X122823866Y-114964285D01*
X122823866Y-114964285D02*
X122728628Y-115011904D01*
X122728628Y-115011904D02*
X122681009Y-115059523D01*
X122681009Y-115059523D02*
X122633390Y-115154761D01*
X76945833Y-148834819D02*
X76612500Y-148358628D01*
X76374405Y-148834819D02*
X76374405Y-147834819D01*
X76374405Y-147834819D02*
X76755357Y-147834819D01*
X76755357Y-147834819D02*
X76850595Y-147882438D01*
X76850595Y-147882438D02*
X76898214Y-147930057D01*
X76898214Y-147930057D02*
X76945833Y-148025295D01*
X76945833Y-148025295D02*
X76945833Y-148168152D01*
X76945833Y-148168152D02*
X76898214Y-148263390D01*
X76898214Y-148263390D02*
X76850595Y-148311009D01*
X76850595Y-148311009D02*
X76755357Y-148358628D01*
X76755357Y-148358628D02*
X76374405Y-148358628D01*
X77279167Y-147834819D02*
X77898214Y-147834819D01*
X77898214Y-147834819D02*
X77564881Y-148215771D01*
X77564881Y-148215771D02*
X77707738Y-148215771D01*
X77707738Y-148215771D02*
X77802976Y-148263390D01*
X77802976Y-148263390D02*
X77850595Y-148311009D01*
X77850595Y-148311009D02*
X77898214Y-148406247D01*
X77898214Y-148406247D02*
X77898214Y-148644342D01*
X77898214Y-148644342D02*
X77850595Y-148739580D01*
X77850595Y-148739580D02*
X77802976Y-148787200D01*
X77802976Y-148787200D02*
X77707738Y-148834819D01*
X77707738Y-148834819D02*
X77422024Y-148834819D01*
X77422024Y-148834819D02*
X77326786Y-148787200D01*
X77326786Y-148787200D02*
X77279167Y-148739580D01*
X76608333Y-143794819D02*
X76275000Y-143318628D01*
X76036905Y-143794819D02*
X76036905Y-142794819D01*
X76036905Y-142794819D02*
X76417857Y-142794819D01*
X76417857Y-142794819D02*
X76513095Y-142842438D01*
X76513095Y-142842438D02*
X76560714Y-142890057D01*
X76560714Y-142890057D02*
X76608333Y-142985295D01*
X76608333Y-142985295D02*
X76608333Y-143128152D01*
X76608333Y-143128152D02*
X76560714Y-143223390D01*
X76560714Y-143223390D02*
X76513095Y-143271009D01*
X76513095Y-143271009D02*
X76417857Y-143318628D01*
X76417857Y-143318628D02*
X76036905Y-143318628D01*
X77560714Y-143794819D02*
X76989286Y-143794819D01*
X77275000Y-143794819D02*
X77275000Y-142794819D01*
X77275000Y-142794819D02*
X77179762Y-142937676D01*
X77179762Y-142937676D02*
X77084524Y-143032914D01*
X77084524Y-143032914D02*
X76989286Y-143080533D01*
X117107142Y-116109580D02*
X117059523Y-116157200D01*
X117059523Y-116157200D02*
X116916666Y-116204819D01*
X116916666Y-116204819D02*
X116821428Y-116204819D01*
X116821428Y-116204819D02*
X116678571Y-116157200D01*
X116678571Y-116157200D02*
X116583333Y-116061961D01*
X116583333Y-116061961D02*
X116535714Y-115966723D01*
X116535714Y-115966723D02*
X116488095Y-115776247D01*
X116488095Y-115776247D02*
X116488095Y-115633390D01*
X116488095Y-115633390D02*
X116535714Y-115442914D01*
X116535714Y-115442914D02*
X116583333Y-115347676D01*
X116583333Y-115347676D02*
X116678571Y-115252438D01*
X116678571Y-115252438D02*
X116821428Y-115204819D01*
X116821428Y-115204819D02*
X116916666Y-115204819D01*
X116916666Y-115204819D02*
X117059523Y-115252438D01*
X117059523Y-115252438D02*
X117107142Y-115300057D01*
X118059523Y-116204819D02*
X117488095Y-116204819D01*
X117773809Y-116204819D02*
X117773809Y-115204819D01*
X117773809Y-115204819D02*
X117678571Y-115347676D01*
X117678571Y-115347676D02*
X117583333Y-115442914D01*
X117583333Y-115442914D02*
X117488095Y-115490533D01*
X118678571Y-115204819D02*
X118773809Y-115204819D01*
X118773809Y-115204819D02*
X118869047Y-115252438D01*
X118869047Y-115252438D02*
X118916666Y-115300057D01*
X118916666Y-115300057D02*
X118964285Y-115395295D01*
X118964285Y-115395295D02*
X119011904Y-115585771D01*
X119011904Y-115585771D02*
X119011904Y-115823866D01*
X119011904Y-115823866D02*
X118964285Y-116014342D01*
X118964285Y-116014342D02*
X118916666Y-116109580D01*
X118916666Y-116109580D02*
X118869047Y-116157200D01*
X118869047Y-116157200D02*
X118773809Y-116204819D01*
X118773809Y-116204819D02*
X118678571Y-116204819D01*
X118678571Y-116204819D02*
X118583333Y-116157200D01*
X118583333Y-116157200D02*
X118535714Y-116109580D01*
X118535714Y-116109580D02*
X118488095Y-116014342D01*
X118488095Y-116014342D02*
X118440476Y-115823866D01*
X118440476Y-115823866D02*
X118440476Y-115585771D01*
X118440476Y-115585771D02*
X118488095Y-115395295D01*
X118488095Y-115395295D02*
X118535714Y-115300057D01*
X118535714Y-115300057D02*
X118583333Y-115252438D01*
X118583333Y-115252438D02*
X118678571Y-115204819D01*
X76608333Y-146374819D02*
X76275000Y-145898628D01*
X76036905Y-146374819D02*
X76036905Y-145374819D01*
X76036905Y-145374819D02*
X76417857Y-145374819D01*
X76417857Y-145374819D02*
X76513095Y-145422438D01*
X76513095Y-145422438D02*
X76560714Y-145470057D01*
X76560714Y-145470057D02*
X76608333Y-145565295D01*
X76608333Y-145565295D02*
X76608333Y-145708152D01*
X76608333Y-145708152D02*
X76560714Y-145803390D01*
X76560714Y-145803390D02*
X76513095Y-145851009D01*
X76513095Y-145851009D02*
X76417857Y-145898628D01*
X76417857Y-145898628D02*
X76036905Y-145898628D01*
X76989286Y-145470057D02*
X77036905Y-145422438D01*
X77036905Y-145422438D02*
X77132143Y-145374819D01*
X77132143Y-145374819D02*
X77370238Y-145374819D01*
X77370238Y-145374819D02*
X77465476Y-145422438D01*
X77465476Y-145422438D02*
X77513095Y-145470057D01*
X77513095Y-145470057D02*
X77560714Y-145565295D01*
X77560714Y-145565295D02*
X77560714Y-145660533D01*
X77560714Y-145660533D02*
X77513095Y-145803390D01*
X77513095Y-145803390D02*
X76941667Y-146374819D01*
X76941667Y-146374819D02*
X77560714Y-146374819D01*
X113312319Y-126261904D02*
X114121842Y-126261904D01*
X114121842Y-126261904D02*
X114217080Y-126214285D01*
X114217080Y-126214285D02*
X114264700Y-126166666D01*
X114264700Y-126166666D02*
X114312319Y-126071428D01*
X114312319Y-126071428D02*
X114312319Y-125880952D01*
X114312319Y-125880952D02*
X114264700Y-125785714D01*
X114264700Y-125785714D02*
X114217080Y-125738095D01*
X114217080Y-125738095D02*
X114121842Y-125690476D01*
X114121842Y-125690476D02*
X113312319Y-125690476D01*
X113645652Y-124785714D02*
X114312319Y-124785714D01*
X113264700Y-125023809D02*
X113978985Y-125261904D01*
X113978985Y-125261904D02*
X113978985Y-124642857D01*
X130894180Y-117530357D02*
X130941800Y-117577976D01*
X130941800Y-117577976D02*
X130989419Y-117720833D01*
X130989419Y-117720833D02*
X130989419Y-117816071D01*
X130989419Y-117816071D02*
X130941800Y-117958928D01*
X130941800Y-117958928D02*
X130846561Y-118054166D01*
X130846561Y-118054166D02*
X130751323Y-118101785D01*
X130751323Y-118101785D02*
X130560847Y-118149404D01*
X130560847Y-118149404D02*
X130417990Y-118149404D01*
X130417990Y-118149404D02*
X130227514Y-118101785D01*
X130227514Y-118101785D02*
X130132276Y-118054166D01*
X130132276Y-118054166D02*
X130037038Y-117958928D01*
X130037038Y-117958928D02*
X129989419Y-117816071D01*
X129989419Y-117816071D02*
X129989419Y-117720833D01*
X129989419Y-117720833D02*
X130037038Y-117577976D01*
X130037038Y-117577976D02*
X130084657Y-117530357D01*
X130989419Y-116577976D02*
X130989419Y-117149404D01*
X130989419Y-116863690D02*
X129989419Y-116863690D01*
X129989419Y-116863690D02*
X130132276Y-116958928D01*
X130132276Y-116958928D02*
X130227514Y-117054166D01*
X130227514Y-117054166D02*
X130275133Y-117149404D01*
X129989419Y-115720833D02*
X129989419Y-115911309D01*
X129989419Y-115911309D02*
X130037038Y-116006547D01*
X130037038Y-116006547D02*
X130084657Y-116054166D01*
X130084657Y-116054166D02*
X130227514Y-116149404D01*
X130227514Y-116149404D02*
X130417990Y-116197023D01*
X130417990Y-116197023D02*
X130798942Y-116197023D01*
X130798942Y-116197023D02*
X130894180Y-116149404D01*
X130894180Y-116149404D02*
X130941800Y-116101785D01*
X130941800Y-116101785D02*
X130989419Y-116006547D01*
X130989419Y-116006547D02*
X130989419Y-115816071D01*
X130989419Y-115816071D02*
X130941800Y-115720833D01*
X130941800Y-115720833D02*
X130894180Y-115673214D01*
X130894180Y-115673214D02*
X130798942Y-115625595D01*
X130798942Y-115625595D02*
X130560847Y-115625595D01*
X130560847Y-115625595D02*
X130465609Y-115673214D01*
X130465609Y-115673214D02*
X130417990Y-115720833D01*
X130417990Y-115720833D02*
X130370371Y-115816071D01*
X130370371Y-115816071D02*
X130370371Y-116006547D01*
X130370371Y-116006547D02*
X130417990Y-116101785D01*
X130417990Y-116101785D02*
X130465609Y-116149404D01*
X130465609Y-116149404D02*
X130560847Y-116197023D01*
X145000733Y-145877680D02*
X144953114Y-145925300D01*
X144953114Y-145925300D02*
X144810257Y-145972919D01*
X144810257Y-145972919D02*
X144715019Y-145972919D01*
X144715019Y-145972919D02*
X144572162Y-145925300D01*
X144572162Y-145925300D02*
X144476924Y-145830061D01*
X144476924Y-145830061D02*
X144429305Y-145734823D01*
X144429305Y-145734823D02*
X144381686Y-145544347D01*
X144381686Y-145544347D02*
X144381686Y-145401490D01*
X144381686Y-145401490D02*
X144429305Y-145211014D01*
X144429305Y-145211014D02*
X144476924Y-145115776D01*
X144476924Y-145115776D02*
X144572162Y-145020538D01*
X144572162Y-145020538D02*
X144715019Y-144972919D01*
X144715019Y-144972919D02*
X144810257Y-144972919D01*
X144810257Y-144972919D02*
X144953114Y-145020538D01*
X144953114Y-145020538D02*
X145000733Y-145068157D01*
X145857876Y-145306252D02*
X145857876Y-145972919D01*
X145619781Y-144925300D02*
X145381686Y-145639585D01*
X145381686Y-145639585D02*
X146000733Y-145639585D01*
X76945833Y-151354819D02*
X76612500Y-150878628D01*
X76374405Y-151354819D02*
X76374405Y-150354819D01*
X76374405Y-150354819D02*
X76755357Y-150354819D01*
X76755357Y-150354819D02*
X76850595Y-150402438D01*
X76850595Y-150402438D02*
X76898214Y-150450057D01*
X76898214Y-150450057D02*
X76945833Y-150545295D01*
X76945833Y-150545295D02*
X76945833Y-150688152D01*
X76945833Y-150688152D02*
X76898214Y-150783390D01*
X76898214Y-150783390D02*
X76850595Y-150831009D01*
X76850595Y-150831009D02*
X76755357Y-150878628D01*
X76755357Y-150878628D02*
X76374405Y-150878628D01*
X77802976Y-150688152D02*
X77802976Y-151354819D01*
X77564881Y-150307200D02*
X77326786Y-151021485D01*
X77326786Y-151021485D02*
X77945833Y-151021485D01*
X155500733Y-145377680D02*
X155453114Y-145425300D01*
X155453114Y-145425300D02*
X155310257Y-145472919D01*
X155310257Y-145472919D02*
X155215019Y-145472919D01*
X155215019Y-145472919D02*
X155072162Y-145425300D01*
X155072162Y-145425300D02*
X154976924Y-145330061D01*
X154976924Y-145330061D02*
X154929305Y-145234823D01*
X154929305Y-145234823D02*
X154881686Y-145044347D01*
X154881686Y-145044347D02*
X154881686Y-144901490D01*
X154881686Y-144901490D02*
X154929305Y-144711014D01*
X154929305Y-144711014D02*
X154976924Y-144615776D01*
X154976924Y-144615776D02*
X155072162Y-144520538D01*
X155072162Y-144520538D02*
X155215019Y-144472919D01*
X155215019Y-144472919D02*
X155310257Y-144472919D01*
X155310257Y-144472919D02*
X155453114Y-144520538D01*
X155453114Y-144520538D02*
X155500733Y-144568157D01*
X156405495Y-144472919D02*
X155929305Y-144472919D01*
X155929305Y-144472919D02*
X155881686Y-144949109D01*
X155881686Y-144949109D02*
X155929305Y-144901490D01*
X155929305Y-144901490D02*
X156024543Y-144853871D01*
X156024543Y-144853871D02*
X156262638Y-144853871D01*
X156262638Y-144853871D02*
X156357876Y-144901490D01*
X156357876Y-144901490D02*
X156405495Y-144949109D01*
X156405495Y-144949109D02*
X156453114Y-145044347D01*
X156453114Y-145044347D02*
X156453114Y-145282442D01*
X156453114Y-145282442D02*
X156405495Y-145377680D01*
X156405495Y-145377680D02*
X156357876Y-145425300D01*
X156357876Y-145425300D02*
X156262638Y-145472919D01*
X156262638Y-145472919D02*
X156024543Y-145472919D01*
X156024543Y-145472919D02*
X155929305Y-145425300D01*
X155929305Y-145425300D02*
X155881686Y-145377680D01*
X141169180Y-117530357D02*
X141216800Y-117577976D01*
X141216800Y-117577976D02*
X141264419Y-117720833D01*
X141264419Y-117720833D02*
X141264419Y-117816071D01*
X141264419Y-117816071D02*
X141216800Y-117958928D01*
X141216800Y-117958928D02*
X141121561Y-118054166D01*
X141121561Y-118054166D02*
X141026323Y-118101785D01*
X141026323Y-118101785D02*
X140835847Y-118149404D01*
X140835847Y-118149404D02*
X140692990Y-118149404D01*
X140692990Y-118149404D02*
X140502514Y-118101785D01*
X140502514Y-118101785D02*
X140407276Y-118054166D01*
X140407276Y-118054166D02*
X140312038Y-117958928D01*
X140312038Y-117958928D02*
X140264419Y-117816071D01*
X140264419Y-117816071D02*
X140264419Y-117720833D01*
X140264419Y-117720833D02*
X140312038Y-117577976D01*
X140312038Y-117577976D02*
X140359657Y-117530357D01*
X141264419Y-116577976D02*
X141264419Y-117149404D01*
X141264419Y-116863690D02*
X140264419Y-116863690D01*
X140264419Y-116863690D02*
X140407276Y-116958928D01*
X140407276Y-116958928D02*
X140502514Y-117054166D01*
X140502514Y-117054166D02*
X140550133Y-117149404D01*
X140692990Y-116006547D02*
X140645371Y-116101785D01*
X140645371Y-116101785D02*
X140597752Y-116149404D01*
X140597752Y-116149404D02*
X140502514Y-116197023D01*
X140502514Y-116197023D02*
X140454895Y-116197023D01*
X140454895Y-116197023D02*
X140359657Y-116149404D01*
X140359657Y-116149404D02*
X140312038Y-116101785D01*
X140312038Y-116101785D02*
X140264419Y-116006547D01*
X140264419Y-116006547D02*
X140264419Y-115816071D01*
X140264419Y-115816071D02*
X140312038Y-115720833D01*
X140312038Y-115720833D02*
X140359657Y-115673214D01*
X140359657Y-115673214D02*
X140454895Y-115625595D01*
X140454895Y-115625595D02*
X140502514Y-115625595D01*
X140502514Y-115625595D02*
X140597752Y-115673214D01*
X140597752Y-115673214D02*
X140645371Y-115720833D01*
X140645371Y-115720833D02*
X140692990Y-115816071D01*
X140692990Y-115816071D02*
X140692990Y-116006547D01*
X140692990Y-116006547D02*
X140740609Y-116101785D01*
X140740609Y-116101785D02*
X140788228Y-116149404D01*
X140788228Y-116149404D02*
X140883466Y-116197023D01*
X140883466Y-116197023D02*
X141073942Y-116197023D01*
X141073942Y-116197023D02*
X141169180Y-116149404D01*
X141169180Y-116149404D02*
X141216800Y-116101785D01*
X141216800Y-116101785D02*
X141264419Y-116006547D01*
X141264419Y-116006547D02*
X141264419Y-115816071D01*
X141264419Y-115816071D02*
X141216800Y-115720833D01*
X141216800Y-115720833D02*
X141169180Y-115673214D01*
X141169180Y-115673214D02*
X141073942Y-115625595D01*
X141073942Y-115625595D02*
X140883466Y-115625595D01*
X140883466Y-115625595D02*
X140788228Y-115673214D01*
X140788228Y-115673214D02*
X140740609Y-115720833D01*
X140740609Y-115720833D02*
X140692990Y-115816071D01*
X130929580Y-121642857D02*
X130977200Y-121690476D01*
X130977200Y-121690476D02*
X131024819Y-121833333D01*
X131024819Y-121833333D02*
X131024819Y-121928571D01*
X131024819Y-121928571D02*
X130977200Y-122071428D01*
X130977200Y-122071428D02*
X130881961Y-122166666D01*
X130881961Y-122166666D02*
X130786723Y-122214285D01*
X130786723Y-122214285D02*
X130596247Y-122261904D01*
X130596247Y-122261904D02*
X130453390Y-122261904D01*
X130453390Y-122261904D02*
X130262914Y-122214285D01*
X130262914Y-122214285D02*
X130167676Y-122166666D01*
X130167676Y-122166666D02*
X130072438Y-122071428D01*
X130072438Y-122071428D02*
X130024819Y-121928571D01*
X130024819Y-121928571D02*
X130024819Y-121833333D01*
X130024819Y-121833333D02*
X130072438Y-121690476D01*
X130072438Y-121690476D02*
X130120057Y-121642857D01*
X131024819Y-120690476D02*
X131024819Y-121261904D01*
X131024819Y-120976190D02*
X130024819Y-120976190D01*
X130024819Y-120976190D02*
X130167676Y-121071428D01*
X130167676Y-121071428D02*
X130262914Y-121166666D01*
X130262914Y-121166666D02*
X130310533Y-121261904D01*
X130024819Y-119785714D02*
X130024819Y-120261904D01*
X130024819Y-120261904D02*
X130501009Y-120309523D01*
X130501009Y-120309523D02*
X130453390Y-120261904D01*
X130453390Y-120261904D02*
X130405771Y-120166666D01*
X130405771Y-120166666D02*
X130405771Y-119928571D01*
X130405771Y-119928571D02*
X130453390Y-119833333D01*
X130453390Y-119833333D02*
X130501009Y-119785714D01*
X130501009Y-119785714D02*
X130596247Y-119738095D01*
X130596247Y-119738095D02*
X130834342Y-119738095D01*
X130834342Y-119738095D02*
X130929580Y-119785714D01*
X130929580Y-119785714D02*
X130977200Y-119833333D01*
X130977200Y-119833333D02*
X131024819Y-119928571D01*
X131024819Y-119928571D02*
X131024819Y-120166666D01*
X131024819Y-120166666D02*
X130977200Y-120261904D01*
X130977200Y-120261904D02*
X130929580Y-120309523D01*
X138899419Y-117530357D02*
X138423228Y-117863690D01*
X138899419Y-118101785D02*
X137899419Y-118101785D01*
X137899419Y-118101785D02*
X137899419Y-117720833D01*
X137899419Y-117720833D02*
X137947038Y-117625595D01*
X137947038Y-117625595D02*
X137994657Y-117577976D01*
X137994657Y-117577976D02*
X138089895Y-117530357D01*
X138089895Y-117530357D02*
X138232752Y-117530357D01*
X138232752Y-117530357D02*
X138327990Y-117577976D01*
X138327990Y-117577976D02*
X138375609Y-117625595D01*
X138375609Y-117625595D02*
X138423228Y-117720833D01*
X138423228Y-117720833D02*
X138423228Y-118101785D01*
X138899419Y-116577976D02*
X138899419Y-117149404D01*
X138899419Y-116863690D02*
X137899419Y-116863690D01*
X137899419Y-116863690D02*
X138042276Y-116958928D01*
X138042276Y-116958928D02*
X138137514Y-117054166D01*
X138137514Y-117054166D02*
X138185133Y-117149404D01*
X138899419Y-115625595D02*
X138899419Y-116197023D01*
X138899419Y-115911309D02*
X137899419Y-115911309D01*
X137899419Y-115911309D02*
X138042276Y-116006547D01*
X138042276Y-116006547D02*
X138137514Y-116101785D01*
X138137514Y-116101785D02*
X138185133Y-116197023D01*
X100607142Y-141179580D02*
X100559523Y-141227200D01*
X100559523Y-141227200D02*
X100416666Y-141274819D01*
X100416666Y-141274819D02*
X100321428Y-141274819D01*
X100321428Y-141274819D02*
X100178571Y-141227200D01*
X100178571Y-141227200D02*
X100083333Y-141131961D01*
X100083333Y-141131961D02*
X100035714Y-141036723D01*
X100035714Y-141036723D02*
X99988095Y-140846247D01*
X99988095Y-140846247D02*
X99988095Y-140703390D01*
X99988095Y-140703390D02*
X100035714Y-140512914D01*
X100035714Y-140512914D02*
X100083333Y-140417676D01*
X100083333Y-140417676D02*
X100178571Y-140322438D01*
X100178571Y-140322438D02*
X100321428Y-140274819D01*
X100321428Y-140274819D02*
X100416666Y-140274819D01*
X100416666Y-140274819D02*
X100559523Y-140322438D01*
X100559523Y-140322438D02*
X100607142Y-140370057D01*
X101559523Y-141274819D02*
X100988095Y-141274819D01*
X101273809Y-141274819D02*
X101273809Y-140274819D01*
X101273809Y-140274819D02*
X101178571Y-140417676D01*
X101178571Y-140417676D02*
X101083333Y-140512914D01*
X101083333Y-140512914D02*
X100988095Y-140560533D01*
X102035714Y-141274819D02*
X102226190Y-141274819D01*
X102226190Y-141274819D02*
X102321428Y-141227200D01*
X102321428Y-141227200D02*
X102369047Y-141179580D01*
X102369047Y-141179580D02*
X102464285Y-141036723D01*
X102464285Y-141036723D02*
X102511904Y-140846247D01*
X102511904Y-140846247D02*
X102511904Y-140465295D01*
X102511904Y-140465295D02*
X102464285Y-140370057D01*
X102464285Y-140370057D02*
X102416666Y-140322438D01*
X102416666Y-140322438D02*
X102321428Y-140274819D01*
X102321428Y-140274819D02*
X102130952Y-140274819D01*
X102130952Y-140274819D02*
X102035714Y-140322438D01*
X102035714Y-140322438D02*
X101988095Y-140370057D01*
X101988095Y-140370057D02*
X101940476Y-140465295D01*
X101940476Y-140465295D02*
X101940476Y-140703390D01*
X101940476Y-140703390D02*
X101988095Y-140798628D01*
X101988095Y-140798628D02*
X102035714Y-140846247D01*
X102035714Y-140846247D02*
X102130952Y-140893866D01*
X102130952Y-140893866D02*
X102321428Y-140893866D01*
X102321428Y-140893866D02*
X102416666Y-140846247D01*
X102416666Y-140846247D02*
X102464285Y-140798628D01*
X102464285Y-140798628D02*
X102511904Y-140703390D01*
X139500733Y-145727680D02*
X139453114Y-145775300D01*
X139453114Y-145775300D02*
X139310257Y-145822919D01*
X139310257Y-145822919D02*
X139215019Y-145822919D01*
X139215019Y-145822919D02*
X139072162Y-145775300D01*
X139072162Y-145775300D02*
X138976924Y-145680061D01*
X138976924Y-145680061D02*
X138929305Y-145584823D01*
X138929305Y-145584823D02*
X138881686Y-145394347D01*
X138881686Y-145394347D02*
X138881686Y-145251490D01*
X138881686Y-145251490D02*
X138929305Y-145061014D01*
X138929305Y-145061014D02*
X138976924Y-144965776D01*
X138976924Y-144965776D02*
X139072162Y-144870538D01*
X139072162Y-144870538D02*
X139215019Y-144822919D01*
X139215019Y-144822919D02*
X139310257Y-144822919D01*
X139310257Y-144822919D02*
X139453114Y-144870538D01*
X139453114Y-144870538D02*
X139500733Y-144918157D01*
X139834067Y-144822919D02*
X140453114Y-144822919D01*
X140453114Y-144822919D02*
X140119781Y-145203871D01*
X140119781Y-145203871D02*
X140262638Y-145203871D01*
X140262638Y-145203871D02*
X140357876Y-145251490D01*
X140357876Y-145251490D02*
X140405495Y-145299109D01*
X140405495Y-145299109D02*
X140453114Y-145394347D01*
X140453114Y-145394347D02*
X140453114Y-145632442D01*
X140453114Y-145632442D02*
X140405495Y-145727680D01*
X140405495Y-145727680D02*
X140357876Y-145775300D01*
X140357876Y-145775300D02*
X140262638Y-145822919D01*
X140262638Y-145822919D02*
X139976924Y-145822919D01*
X139976924Y-145822919D02*
X139881686Y-145775300D01*
X139881686Y-145775300D02*
X139834067Y-145727680D01*
X136625733Y-144252919D02*
X136149543Y-144252919D01*
X136149543Y-144252919D02*
X136149543Y-143252919D01*
X137482876Y-144252919D02*
X136911448Y-144252919D01*
X137197162Y-144252919D02*
X137197162Y-143252919D01*
X137197162Y-143252919D02*
X137101924Y-143395776D01*
X137101924Y-143395776D02*
X137006686Y-143491014D01*
X137006686Y-143491014D02*
X136911448Y-143538633D01*
X110857142Y-120109580D02*
X110809523Y-120157200D01*
X110809523Y-120157200D02*
X110666666Y-120204819D01*
X110666666Y-120204819D02*
X110571428Y-120204819D01*
X110571428Y-120204819D02*
X110428571Y-120157200D01*
X110428571Y-120157200D02*
X110333333Y-120061961D01*
X110333333Y-120061961D02*
X110285714Y-119966723D01*
X110285714Y-119966723D02*
X110238095Y-119776247D01*
X110238095Y-119776247D02*
X110238095Y-119633390D01*
X110238095Y-119633390D02*
X110285714Y-119442914D01*
X110285714Y-119442914D02*
X110333333Y-119347676D01*
X110333333Y-119347676D02*
X110428571Y-119252438D01*
X110428571Y-119252438D02*
X110571428Y-119204819D01*
X110571428Y-119204819D02*
X110666666Y-119204819D01*
X110666666Y-119204819D02*
X110809523Y-119252438D01*
X110809523Y-119252438D02*
X110857142Y-119300057D01*
X111809523Y-120204819D02*
X111238095Y-120204819D01*
X111523809Y-120204819D02*
X111523809Y-119204819D01*
X111523809Y-119204819D02*
X111428571Y-119347676D01*
X111428571Y-119347676D02*
X111333333Y-119442914D01*
X111333333Y-119442914D02*
X111238095Y-119490533D01*
X112666666Y-119538152D02*
X112666666Y-120204819D01*
X112428571Y-119157200D02*
X112190476Y-119871485D01*
X112190476Y-119871485D02*
X112809523Y-119871485D01*
D13*
%TO.C,C1*%
X111396267Y-156240000D02*
X111103733Y-156240000D01*
X111396267Y-157260000D02*
X111103733Y-157260000D01*
%TO.C,C7*%
X111396267Y-142490000D02*
X111103733Y-142490000D01*
X111396267Y-143510000D02*
X111103733Y-143510000D01*
D14*
%TO.C,CON1*%
X146269000Y-118995000D02*
X146269000Y-120395000D01*
X146269000Y-131195000D02*
X146269000Y-129695000D01*
X146869000Y-118995000D02*
X146269000Y-118995000D01*
X146869000Y-131195000D02*
X146269000Y-131195000D01*
D13*
%TO.C,JP1*%
X61080000Y-157540000D02*
X61080000Y-142080000D01*
X63730000Y-154890000D02*
X63730000Y-157540000D01*
X63730000Y-157540000D02*
X61080000Y-157540000D01*
X66380000Y-142080000D02*
X61080000Y-142080000D01*
X66380000Y-154890000D02*
X63730000Y-154890000D01*
X66380000Y-154890000D02*
X66380000Y-142080000D01*
X66380000Y-156160000D02*
X66380000Y-157540000D01*
X66380000Y-157540000D02*
X65000000Y-157540000D01*
%TO.C,U1*%
X80085000Y-147990000D02*
X80320000Y-147990000D01*
X80085000Y-151850000D02*
X80085000Y-147990000D01*
X80085000Y-151850000D02*
X80085000Y-155710000D01*
X80085000Y-155710000D02*
X80320000Y-155710000D01*
X93105000Y-147990000D02*
X92870000Y-147990000D01*
X93105000Y-151850000D02*
X93105000Y-147990000D01*
X93105000Y-151850000D02*
X93105000Y-155710000D01*
X93105000Y-155710000D02*
X92870000Y-155710000D01*
X80320000Y-156562500D02*
X79850000Y-156902500D01*
X79850000Y-156222500D01*
X80320000Y-156562500D01*
G36*
X80320000Y-156562500D02*
G01*
X79850000Y-156902500D01*
X79850000Y-156222500D01*
X80320000Y-156562500D01*
G37*
%TO.C,C11*%
X125490000Y-128353733D02*
X125490000Y-128646267D01*
X126510000Y-128353733D02*
X126510000Y-128646267D01*
%TO.C,C8*%
X115990000Y-131216233D02*
X115990000Y-131508767D01*
X117010000Y-131216233D02*
X117010000Y-131508767D01*
%TO.C,C12*%
X118740000Y-131216233D02*
X118740000Y-131508767D01*
X119760000Y-131216233D02*
X119760000Y-131508767D01*
%TO.C,U2*%
X113690000Y-148140000D02*
X113980000Y-148140000D01*
X113690000Y-152000000D02*
X113690000Y-148140000D01*
X113690000Y-152000000D02*
X113690000Y-155860000D01*
X113690000Y-155860000D02*
X113980000Y-155860000D01*
X129310000Y-148140000D02*
X129020000Y-148140000D01*
X129310000Y-152000000D02*
X129310000Y-148140000D01*
X129310000Y-152000000D02*
X129310000Y-155860000D01*
X129310000Y-155860000D02*
X129020000Y-155860000D01*
X113980000Y-156700000D02*
X113510000Y-157040000D01*
X113510000Y-156360000D01*
X113980000Y-156700000D01*
G36*
X113980000Y-156700000D02*
G01*
X113510000Y-157040000D01*
X113510000Y-156360000D01*
X113980000Y-156700000D01*
G37*
%TO.C,C6*%
X80146267Y-144490000D02*
X79853733Y-144490000D01*
X80146267Y-145510000D02*
X79853733Y-145510000D01*
%TO.C,Y1*%
X99280000Y-143950000D02*
X99340000Y-143950000D01*
X99280000Y-149550000D02*
X99280000Y-143950000D01*
X99340000Y-149550000D02*
X99280000Y-149550000D01*
X99340000Y-150010000D02*
X99340000Y-149550000D01*
X101660000Y-143950000D02*
X104420000Y-143950000D01*
X101660000Y-149550000D02*
X101660000Y-150010000D01*
X104420000Y-149550000D02*
X101660000Y-149550000D01*
X106740000Y-143950000D02*
X106800000Y-143950000D01*
X106800000Y-143950000D02*
X106800000Y-149550000D01*
X106800000Y-149550000D02*
X106740000Y-149550000D01*
%TO.C,L2*%
X150496133Y-146858100D02*
X150838667Y-146858100D01*
X150496133Y-147878100D02*
X150838667Y-147878100D01*
%TO.C,U3*%
X113740000Y-137615000D02*
X113995000Y-137615000D01*
X113740000Y-140000000D02*
X113740000Y-137615000D01*
X113740000Y-140000000D02*
X113740000Y-142385000D01*
X113740000Y-142385000D02*
X113995000Y-142385000D01*
X124260000Y-137615000D02*
X124005000Y-137615000D01*
X124260000Y-140000000D02*
X124260000Y-137615000D01*
X124260000Y-140000000D02*
X124260000Y-142385000D01*
X124260000Y-142385000D02*
X124005000Y-142385000D01*
X113995000Y-143162500D02*
X113665000Y-143402500D01*
X113665000Y-142922500D01*
X113995000Y-143162500D01*
G36*
X113995000Y-143162500D02*
G01*
X113665000Y-143402500D01*
X113665000Y-142922500D01*
X113995000Y-143162500D01*
G37*
%TO.C,C2*%
X134021133Y-146858100D02*
X134313667Y-146858100D01*
X134021133Y-147878100D02*
X134313667Y-147878100D01*
D15*
%TO.C,G2*%
G36*
X101512637Y-124632728D02*
G01*
X101602881Y-124643579D01*
X101675264Y-124665597D01*
X101723208Y-124688503D01*
X101823084Y-124757819D01*
X101898971Y-124841442D01*
X101940095Y-124926194D01*
X101944409Y-124959068D01*
X101927424Y-125046992D01*
X101879703Y-125165420D01*
X101806092Y-125305469D01*
X101711440Y-125458254D01*
X101600595Y-125614891D01*
X101552925Y-125676489D01*
X101513466Y-125730293D01*
X101493728Y-125765315D01*
X101493207Y-125768144D01*
X101479164Y-125794707D01*
X101440374Y-125857400D01*
X101381845Y-125948394D01*
X101308587Y-126059861D01*
X101257919Y-126135890D01*
X101093661Y-126382474D01*
X100934181Y-126624489D01*
X100784552Y-126854098D01*
X100649849Y-127063469D01*
X100535148Y-127244765D01*
X100445886Y-127389550D01*
X100369747Y-127513237D01*
X100280016Y-127655539D01*
X100192765Y-127791052D01*
X100168884Y-127827481D01*
X100101046Y-127931618D01*
X100040418Y-128026887D01*
X99995639Y-128099610D01*
X99980354Y-128126030D01*
X99938204Y-128200753D01*
X99876938Y-128306169D01*
X99802842Y-128431787D01*
X99722205Y-128567118D01*
X99641311Y-128701672D01*
X99566449Y-128824958D01*
X99503905Y-128926488D01*
X99459966Y-128995770D01*
X99451440Y-129008568D01*
X99400057Y-129086735D01*
X99335847Y-129188163D01*
X99274982Y-129287165D01*
X99220792Y-129376738D01*
X99174770Y-129452535D01*
X99146031Y-129499546D01*
X99144304Y-129502335D01*
X99119684Y-129545430D01*
X99078547Y-129620806D01*
X99028937Y-129713685D01*
X99018646Y-129733175D01*
X98976016Y-129815423D01*
X98949256Y-129878391D01*
X98943309Y-129924918D01*
X98963122Y-129957841D01*
X99013637Y-129979999D01*
X99099800Y-129994231D01*
X99226554Y-130003374D01*
X99398844Y-130010266D01*
X99507673Y-130013890D01*
X99695668Y-130020522D01*
X99849903Y-130027381D01*
X99983897Y-130035707D01*
X100111170Y-130046737D01*
X100245242Y-130061710D01*
X100399632Y-130081863D01*
X100587860Y-130108435D01*
X100670428Y-130120379D01*
X100804839Y-130140135D01*
X100919067Y-130157728D01*
X101024726Y-130175269D01*
X101133431Y-130194870D01*
X101256797Y-130218641D01*
X101406440Y-130248694D01*
X101593973Y-130287140D01*
X101639184Y-130296463D01*
X101902577Y-130351771D01*
X102118118Y-130399532D01*
X102290257Y-130441264D01*
X102423446Y-130478483D01*
X102522135Y-130512708D01*
X102590776Y-130545455D01*
X102633818Y-130578242D01*
X102655713Y-130612586D01*
X102661023Y-130644802D01*
X102644120Y-130683739D01*
X102598384Y-130751138D01*
X102531275Y-130836722D01*
X102468599Y-130909822D01*
X102370181Y-131022484D01*
X102267240Y-131143711D01*
X102175912Y-131254376D01*
X102139799Y-131299574D01*
X102036565Y-131417385D01*
X101934889Y-131501273D01*
X101849760Y-131550807D01*
X101784208Y-131582644D01*
X101727865Y-131604225D01*
X101668196Y-131617415D01*
X101592666Y-131624083D01*
X101488741Y-131626094D01*
X101349145Y-131625364D01*
X101201153Y-131622121D01*
X101056015Y-131615632D01*
X100930580Y-131606842D01*
X100842946Y-131596900D01*
X100750648Y-131583100D01*
X100623819Y-131565304D01*
X100480614Y-131546015D01*
X100365203Y-131531031D01*
X100222027Y-131512295D01*
X100080541Y-131492905D01*
X99958901Y-131475397D01*
X99887460Y-131464346D01*
X99636075Y-131428806D01*
X99346459Y-131397445D01*
X99032655Y-131371090D01*
X98708706Y-131350569D01*
X98388656Y-131336712D01*
X98086549Y-131330345D01*
X97816427Y-131332296D01*
X97711075Y-131336015D01*
X97482049Y-131347972D01*
X97297415Y-131361333D01*
X97148483Y-131377484D01*
X97026565Y-131397812D01*
X96922970Y-131423703D01*
X96829009Y-131456543D01*
X96755589Y-131488445D01*
X96586320Y-131565180D01*
X96452226Y-131620226D01*
X96341941Y-131657415D01*
X96244096Y-131680582D01*
X96147322Y-131693557D01*
X96147168Y-131693571D01*
X96050918Y-131699307D01*
X95987728Y-131692353D01*
X95938372Y-131669166D01*
X95912904Y-131650404D01*
X95864609Y-131601230D01*
X95843608Y-131541470D01*
X95839916Y-131473923D01*
X95842806Y-131415710D01*
X95853873Y-131358190D01*
X95876706Y-131294221D01*
X95914898Y-131216661D01*
X95972039Y-131118366D01*
X96051721Y-130992196D01*
X96157535Y-130831007D01*
X96180812Y-130795951D01*
X96291328Y-130631387D01*
X96381560Y-130504503D01*
X96459935Y-130408333D01*
X96534880Y-130335909D01*
X96614824Y-130280265D01*
X96708193Y-130234433D01*
X96823416Y-130191447D01*
X96968919Y-130144340D01*
X96969091Y-130144286D01*
X97102946Y-130101353D01*
X97221770Y-130061818D01*
X97314756Y-130029380D01*
X97371098Y-130007738D01*
X97379317Y-130003862D01*
X97410566Y-129973134D01*
X97464148Y-129905758D01*
X97534008Y-129809940D01*
X97614092Y-129693886D01*
X97668400Y-129612040D01*
X97765086Y-129464870D01*
X97867356Y-129310575D01*
X97964912Y-129164603D01*
X98047457Y-129042406D01*
X98070583Y-129008568D01*
X98143400Y-128901475D01*
X98235682Y-128764246D01*
X98337865Y-128611187D01*
X98440384Y-128456602D01*
X98490367Y-128380795D01*
X98595503Y-128221334D01*
X98718268Y-128035725D01*
X98846758Y-127841929D01*
X98969070Y-127657910D01*
X99031504Y-127564214D01*
X99119812Y-127430968D01*
X99197007Y-127312816D01*
X99258567Y-127216819D01*
X99299967Y-127150041D01*
X99316683Y-127119543D01*
X99316823Y-127118776D01*
X99333074Y-127088351D01*
X99367832Y-127046224D01*
X99395493Y-127010276D01*
X99448024Y-126936247D01*
X99521132Y-126830412D01*
X99610522Y-126699043D01*
X99711901Y-126548413D01*
X99820973Y-126384794D01*
X99832303Y-126367711D01*
X99944145Y-126199098D01*
X100050467Y-126039003D01*
X100146545Y-125894524D01*
X100227655Y-125772757D01*
X100289075Y-125680801D01*
X100326080Y-125625752D01*
X100326892Y-125624556D01*
X100374949Y-125553096D01*
X100442420Y-125451842D01*
X100519607Y-125335384D01*
X100582733Y-125239707D01*
X100681154Y-125092159D01*
X100759276Y-124981138D01*
X100824568Y-124897928D01*
X100884500Y-124833816D01*
X100946542Y-124780089D01*
X101018164Y-124728032D01*
X101025866Y-124722769D01*
X101096089Y-124677346D01*
X101154223Y-124649895D01*
X101217954Y-124635873D01*
X101304966Y-124630738D01*
X101387042Y-124630003D01*
X101512637Y-124632728D01*
G37*
G36*
X89002190Y-124569786D02*
G01*
X89039566Y-124572660D01*
X89231093Y-124615537D01*
X89415018Y-124705789D01*
X89583861Y-124837706D01*
X89730146Y-125005580D01*
X89834952Y-125179881D01*
X89884418Y-125283447D01*
X89910796Y-125354285D01*
X89915716Y-125406638D01*
X89900810Y-125454753D01*
X89872242Y-125505470D01*
X89826008Y-125559925D01*
X89755329Y-125601224D01*
X89664781Y-125632980D01*
X89508305Y-125685023D01*
X89381691Y-125737577D01*
X89290995Y-125787499D01*
X89242277Y-125831642D01*
X89235954Y-125855562D01*
X89250750Y-125879345D01*
X89290748Y-125897969D01*
X89365132Y-125914205D01*
X89483084Y-125930825D01*
X89486736Y-125931278D01*
X89629584Y-125953294D01*
X89735961Y-125983452D01*
X89822476Y-126029711D01*
X89905742Y-126100029D01*
X89963490Y-126159708D01*
X90029520Y-126239418D01*
X90088964Y-126324508D01*
X90098973Y-126341170D01*
X90131283Y-126409494D01*
X90165154Y-126499979D01*
X90196212Y-126597844D01*
X90220082Y-126688309D01*
X90232390Y-126756594D01*
X90230622Y-126785951D01*
X90228083Y-126821103D01*
X90234161Y-126890877D01*
X90242958Y-126951619D01*
X90252682Y-127043234D01*
X90251413Y-127146215D01*
X90238131Y-127271109D01*
X90211816Y-127428459D01*
X90182661Y-127575339D01*
X90134077Y-127773572D01*
X90068747Y-127988224D01*
X89992270Y-128204047D01*
X89910243Y-128405791D01*
X89828264Y-128578206D01*
X89788081Y-128650261D01*
X89764183Y-128695058D01*
X89727115Y-128769558D01*
X89695819Y-128834680D01*
X89655914Y-128913727D01*
X89610087Y-128992024D01*
X89552291Y-129078236D01*
X89476476Y-129181029D01*
X89376596Y-129309068D01*
X89284221Y-129424441D01*
X89205343Y-129522879D01*
X89133537Y-129613539D01*
X89078941Y-129683569D01*
X89058620Y-129710395D01*
X88948855Y-129846592D01*
X88807810Y-130002557D01*
X88644242Y-130170173D01*
X88466906Y-130341319D01*
X88284560Y-130507876D01*
X88105960Y-130661726D01*
X87939863Y-130794749D01*
X87795026Y-130898825D01*
X87738499Y-130934420D01*
X87644492Y-130991166D01*
X87564955Y-131041034D01*
X87513607Y-131075368D01*
X87505955Y-131081177D01*
X87453107Y-131115824D01*
X87362115Y-131166816D01*
X87243372Y-131229004D01*
X87107269Y-131297241D01*
X86964201Y-131366378D01*
X86824559Y-131431267D01*
X86698736Y-131486761D01*
X86630093Y-131515035D01*
X86534108Y-131551587D01*
X86438878Y-131584208D01*
X86335038Y-131615440D01*
X86213224Y-131647824D01*
X86064071Y-131683900D01*
X85878216Y-131726211D01*
X85735843Y-131757700D01*
X85594381Y-131775115D01*
X85408708Y-131775870D01*
X85185003Y-131759989D01*
X85143782Y-131755652D01*
X84901258Y-131708750D01*
X84658506Y-131625214D01*
X84463045Y-131526941D01*
X84248813Y-131369161D01*
X84055234Y-131168387D01*
X83886018Y-130931927D01*
X83744874Y-130667093D01*
X83635511Y-130381196D01*
X83608099Y-130270000D01*
X84610651Y-130270000D01*
X84623988Y-130492336D01*
X84664141Y-130669999D01*
X84732196Y-130804745D01*
X84829240Y-130898331D01*
X84956358Y-130952515D01*
X85041148Y-130966308D01*
X85118291Y-130973545D01*
X85173334Y-130979382D01*
X85183594Y-130980730D01*
X85221595Y-130979278D01*
X85296244Y-130971559D01*
X85391701Y-130959224D01*
X85395924Y-130958630D01*
X85583375Y-130918382D01*
X85800527Y-130848649D01*
X86036697Y-130754397D01*
X86281205Y-130640595D01*
X86523367Y-130512210D01*
X86752503Y-130374209D01*
X86955626Y-130233297D01*
X87051769Y-130157474D01*
X87170627Y-130058475D01*
X87303242Y-129944313D01*
X87440658Y-129822996D01*
X87573918Y-129702537D01*
X87694063Y-129590946D01*
X87792139Y-129496235D01*
X87859187Y-129426413D01*
X87864215Y-129420676D01*
X87919371Y-129358715D01*
X87997295Y-129273498D01*
X88084101Y-129180161D01*
X88114719Y-129147626D01*
X88195295Y-129060297D01*
X88265701Y-128980361D01*
X88314957Y-128920428D01*
X88327049Y-128903723D01*
X88360649Y-128854645D01*
X88415914Y-128775946D01*
X88483406Y-128681021D01*
X88518056Y-128632676D01*
X88741550Y-128294210D01*
X88934428Y-127945527D01*
X89092095Y-127596343D01*
X89209957Y-127256374D01*
X89258215Y-127067485D01*
X89270311Y-126962656D01*
X89267775Y-126843769D01*
X89252680Y-126728730D01*
X89227095Y-126635444D01*
X89203181Y-126591606D01*
X89154578Y-126558143D01*
X89072661Y-126523541D01*
X88976662Y-126494175D01*
X88885813Y-126476425D01*
X88848197Y-126473898D01*
X88691674Y-126487935D01*
X88497410Y-126528507D01*
X88272296Y-126593415D01*
X88023225Y-126680460D01*
X87757087Y-126787442D01*
X87492685Y-126906504D01*
X87295059Y-127006997D01*
X87073134Y-127131334D01*
X86840099Y-127271229D01*
X86609144Y-127418399D01*
X86393460Y-127564557D01*
X86206238Y-127701418D01*
X86125809Y-127765094D01*
X85929186Y-127932770D01*
X85739012Y-128107057D01*
X85562856Y-128280267D01*
X85408288Y-128444715D01*
X85282875Y-128592714D01*
X85203903Y-128701297D01*
X85136401Y-128803527D01*
X85074953Y-128893739D01*
X85028193Y-128959398D01*
X85010579Y-128982027D01*
X84937166Y-129088235D01*
X84860147Y-129235174D01*
X84784416Y-129411174D01*
X84714864Y-129604569D01*
X84656385Y-129803689D01*
X84642373Y-129860089D01*
X84628456Y-129946398D01*
X84617665Y-130066214D01*
X84611513Y-130199985D01*
X84610651Y-130270000D01*
X83608099Y-130270000D01*
X83561641Y-130081546D01*
X83526973Y-129775454D01*
X83524764Y-129677967D01*
X83530641Y-129455116D01*
X83550725Y-129259573D01*
X83588696Y-129066614D01*
X83647382Y-128854317D01*
X83676767Y-128755073D01*
X83698873Y-128675080D01*
X83709943Y-128628111D01*
X83710553Y-128622745D01*
X83720996Y-128587724D01*
X83748313Y-128518561D01*
X83786487Y-128429005D01*
X83829498Y-128332808D01*
X83871331Y-128243721D01*
X83905965Y-128175492D01*
X83907597Y-128172518D01*
X83942252Y-128108846D01*
X83987501Y-128024638D01*
X84007715Y-127986729D01*
X84171525Y-127714668D01*
X84379144Y-127429262D01*
X84624952Y-127136530D01*
X84903332Y-126842486D01*
X85208666Y-126553147D01*
X85535335Y-126274529D01*
X85793840Y-126074079D01*
X85925388Y-125977336D01*
X86047556Y-125889283D01*
X86151924Y-125815851D01*
X86230070Y-125762971D01*
X86271583Y-125737565D01*
X86332725Y-125703102D01*
X86420463Y-125649915D01*
X86517210Y-125588701D01*
X86530232Y-125580256D01*
X86620673Y-125523072D01*
X86698641Y-125476752D01*
X86749819Y-125449733D01*
X86755833Y-125447297D01*
X86817740Y-125415326D01*
X86842423Y-125397448D01*
X86893033Y-125364560D01*
X86983038Y-125315290D01*
X87103033Y-125254142D01*
X87243611Y-125185616D01*
X87395366Y-125114214D01*
X87548891Y-125044440D01*
X87694781Y-124980793D01*
X87823629Y-124927777D01*
X87824451Y-124927453D01*
X88072832Y-124830110D01*
X88278026Y-124751200D01*
X88445949Y-124688993D01*
X88582520Y-124641764D01*
X88693655Y-124607782D01*
X88785272Y-124585322D01*
X88863288Y-124572654D01*
X88933622Y-124568051D01*
X89002190Y-124569786D01*
G37*
G36*
X94776100Y-124555451D02*
G01*
X95050972Y-124562060D01*
X95312402Y-124575296D01*
X95388714Y-124580741D01*
X95607929Y-124598564D01*
X95785584Y-124615903D01*
X95933145Y-124634742D01*
X96062076Y-124657063D01*
X96183843Y-124684850D01*
X96309911Y-124720088D01*
X96451086Y-124764545D01*
X96772076Y-124887817D01*
X97045628Y-125033436D01*
X97272962Y-125202534D01*
X97455297Y-125396242D01*
X97593853Y-125615691D01*
X97689851Y-125862013D01*
X97707793Y-125929780D01*
X97745306Y-126121917D01*
X97771385Y-126332362D01*
X97785522Y-126547291D01*
X97787207Y-126752884D01*
X97775934Y-126935319D01*
X97751192Y-127080774D01*
X97750262Y-127084326D01*
X97730615Y-127160858D01*
X97705032Y-127263659D01*
X97684789Y-127346752D01*
X97590107Y-127631215D01*
X97444852Y-127913421D01*
X97251532Y-128190451D01*
X97012653Y-128459384D01*
X96730721Y-128717300D01*
X96408244Y-128961280D01*
X96161831Y-129120931D01*
X96086274Y-129165972D01*
X96030834Y-129197319D01*
X96009074Y-129207628D01*
X95982772Y-129218491D01*
X95917619Y-129248304D01*
X95822551Y-129292903D01*
X95706504Y-129348123D01*
X95666802Y-129367161D01*
X95478634Y-129455853D01*
X95330482Y-129521480D01*
X95215835Y-129566535D01*
X95128182Y-129593510D01*
X95061013Y-129604897D01*
X95043677Y-129605648D01*
X94978873Y-129613752D01*
X94890787Y-129633505D01*
X94848301Y-129645465D01*
X94673562Y-129689075D01*
X94454308Y-129728575D01*
X94199001Y-129763187D01*
X93916105Y-129792133D01*
X93614082Y-129814633D01*
X93301395Y-129829909D01*
X92986507Y-129837182D01*
X92766292Y-129837061D01*
X92253901Y-129831348D01*
X92202885Y-129897701D01*
X92155791Y-129968677D01*
X92110479Y-130051237D01*
X92107729Y-130056948D01*
X92064893Y-130138653D01*
X92020399Y-130211758D01*
X92017348Y-130216196D01*
X91972425Y-130285236D01*
X91923834Y-130366158D01*
X91918539Y-130375444D01*
X91797607Y-130582408D01*
X91670607Y-130787698D01*
X91542945Y-130983411D01*
X91420025Y-131161646D01*
X91307253Y-131314502D01*
X91210035Y-131434076D01*
X91152476Y-131495343D01*
X90997668Y-131622819D01*
X90851048Y-131698491D01*
X90711166Y-131722757D01*
X90576568Y-131696014D01*
X90519175Y-131668490D01*
X90397587Y-131570964D01*
X90315004Y-131442305D01*
X90274347Y-131290313D01*
X90278540Y-131122790D01*
X90291463Y-131060684D01*
X90329661Y-130952003D01*
X90396853Y-130806937D01*
X90489993Y-130631421D01*
X90606033Y-130431391D01*
X90660092Y-130342747D01*
X90711836Y-130257899D01*
X90750594Y-130192182D01*
X90769639Y-130157071D01*
X90770532Y-130154398D01*
X90783220Y-130128954D01*
X90817370Y-130068304D01*
X90867109Y-129982749D01*
X90903219Y-129921683D01*
X90960163Y-129822568D01*
X91004882Y-129738274D01*
X91031333Y-129680543D01*
X91035925Y-129663751D01*
X91017113Y-129625187D01*
X90970620Y-129574331D01*
X90958385Y-129563598D01*
X90901457Y-129501353D01*
X90842005Y-129414722D01*
X90813658Y-129363551D01*
X90776068Y-129278862D01*
X90758380Y-129204819D01*
X90756405Y-129116841D01*
X90760600Y-129052314D01*
X90792529Y-128862216D01*
X90856892Y-128710761D01*
X90927171Y-128627633D01*
X92980125Y-128627633D01*
X92992020Y-128677666D01*
X93049770Y-128722581D01*
X93146166Y-128758715D01*
X93274000Y-128782410D01*
X93287857Y-128783915D01*
X93462447Y-128797222D01*
X93655909Y-128804410D01*
X93854810Y-128805658D01*
X94045716Y-128801147D01*
X94215195Y-128791059D01*
X94349812Y-128775574D01*
X94385046Y-128769155D01*
X94529033Y-128734465D01*
X94700403Y-128685934D01*
X94879998Y-128629608D01*
X95048660Y-128571534D01*
X95187232Y-128517758D01*
X95202925Y-128511011D01*
X95313556Y-128461160D01*
X95439008Y-128402196D01*
X95570081Y-128338740D01*
X95697570Y-128275412D01*
X95812276Y-128216836D01*
X95904995Y-128167630D01*
X95966525Y-128132418D01*
X95987356Y-128117067D01*
X96018078Y-128088373D01*
X96077720Y-128045250D01*
X96114195Y-128021565D01*
X96274033Y-127906757D01*
X96438596Y-127763215D01*
X96587901Y-127609190D01*
X96656814Y-127525923D01*
X96735938Y-127419610D01*
X96816570Y-127305331D01*
X96892595Y-127192480D01*
X96957897Y-127090453D01*
X97006359Y-127008647D01*
X97031867Y-126956455D01*
X97034273Y-126946048D01*
X97042762Y-126901622D01*
X97063368Y-126835162D01*
X97065085Y-126830367D01*
X97080443Y-126714581D01*
X97052179Y-126590658D01*
X96984921Y-126472594D01*
X96925601Y-126408416D01*
X96841853Y-126340982D01*
X96744034Y-126279858D01*
X96622969Y-126220606D01*
X96469483Y-126158786D01*
X96274399Y-126089959D01*
X96251305Y-126082204D01*
X96033021Y-126011786D01*
X95850999Y-125959990D01*
X95692702Y-125924552D01*
X95545592Y-125903206D01*
X95397131Y-125893688D01*
X95234782Y-125893732D01*
X95211360Y-125894340D01*
X95069030Y-125900143D01*
X94958587Y-125912432D01*
X94870522Y-125937268D01*
X94795326Y-125980712D01*
X94723492Y-126048823D01*
X94645512Y-126147664D01*
X94551877Y-126283295D01*
X94515369Y-126337991D01*
X94398253Y-126513495D01*
X94273890Y-126698922D01*
X94146982Y-126887345D01*
X94022230Y-127071836D01*
X93904338Y-127245467D01*
X93798005Y-127401311D01*
X93707935Y-127532440D01*
X93638828Y-127631926D01*
X93601563Y-127684398D01*
X93531558Y-127782906D01*
X93449622Y-127901449D01*
X93360973Y-128032105D01*
X93270829Y-128166954D01*
X93184410Y-128298074D01*
X93106935Y-128417544D01*
X93043621Y-128517443D01*
X92999688Y-128589851D01*
X92980355Y-128626845D01*
X92980125Y-128627633D01*
X90927171Y-128627633D01*
X90957260Y-128592043D01*
X91093070Y-128502235D01*
X91203494Y-128458532D01*
X91348007Y-128418313D01*
X91507619Y-128385587D01*
X91663340Y-128364359D01*
X91775087Y-128358343D01*
X91860842Y-128350142D01*
X91924104Y-128317186D01*
X91969478Y-128273771D01*
X92035021Y-128193877D01*
X92093542Y-128107324D01*
X92100838Y-128094617D01*
X92141382Y-128027619D01*
X92201603Y-127935353D01*
X92269924Y-127835457D01*
X92284890Y-127814211D01*
X92356891Y-127711168D01*
X92444895Y-127583107D01*
X92535690Y-127449330D01*
X92589564Y-127369026D01*
X92678388Y-127237446D01*
X92776227Y-127095038D01*
X92868388Y-126963088D01*
X92914465Y-126898326D01*
X92990844Y-126790403D01*
X93064934Y-126682882D01*
X93124670Y-126593371D01*
X93142197Y-126565987D01*
X93193677Y-126487140D01*
X93263683Y-126384215D01*
X93339395Y-126275976D01*
X93361163Y-126245471D01*
X93432265Y-126144033D01*
X93481065Y-126064456D01*
X93503927Y-126004986D01*
X93497210Y-125963869D01*
X93457277Y-125939352D01*
X93380490Y-125929680D01*
X93263210Y-125933101D01*
X93101799Y-125947860D01*
X92892619Y-125972204D01*
X92814210Y-125981829D01*
X92714525Y-125998627D01*
X92578697Y-126027595D01*
X92421232Y-126065027D01*
X92256641Y-126107214D01*
X92099430Y-126150449D01*
X91964108Y-126191026D01*
X91871995Y-126222600D01*
X91763738Y-126263782D01*
X91659849Y-126303038D01*
X91584208Y-126331350D01*
X91489998Y-126369929D01*
X91392239Y-126415148D01*
X91379571Y-126421513D01*
X91241481Y-126464654D01*
X91119876Y-126473876D01*
X91004341Y-126465300D01*
X90935585Y-126437878D01*
X90909870Y-126389065D01*
X90916897Y-126335808D01*
X90950312Y-126260023D01*
X91012863Y-126152071D01*
X91098701Y-126019712D01*
X91201978Y-125870702D01*
X91316847Y-125712801D01*
X91437458Y-125553765D01*
X91557965Y-125401352D01*
X91672519Y-125263321D01*
X91775271Y-125147430D01*
X91860375Y-125061436D01*
X91906475Y-125023068D01*
X92001653Y-124968769D01*
X92119963Y-124919386D01*
X92201009Y-124894556D01*
X92311517Y-124866531D01*
X92447834Y-124831306D01*
X92584510Y-124795471D01*
X92615151Y-124787349D01*
X92737461Y-124756532D01*
X92855719Y-124729609D01*
X92949903Y-124711049D01*
X92973458Y-124707358D01*
X93067720Y-124691491D01*
X93154325Y-124672452D01*
X93172517Y-124667481D01*
X93309184Y-124636790D01*
X93490484Y-124610454D01*
X93708120Y-124588796D01*
X93953796Y-124572143D01*
X94219216Y-124560818D01*
X94496083Y-124555146D01*
X94776100Y-124555451D01*
G37*
D13*
%TO.C,R6*%
X74057776Y-155497500D02*
X74567224Y-155497500D01*
X74057776Y-156542500D02*
X74567224Y-156542500D01*
%TO.C,C13*%
X124490000Y-118353733D02*
X124490000Y-118646267D01*
X125510000Y-118353733D02*
X125510000Y-118646267D01*
%TO.C,R10*%
X136477500Y-120995276D02*
X136477500Y-121504724D01*
X137522500Y-120995276D02*
X137522500Y-121504724D01*
%TO.C,C9*%
X119990000Y-118646267D02*
X119990000Y-118353733D01*
X121010000Y-118646267D02*
X121010000Y-118353733D01*
%TO.C,R5*%
X74057776Y-152987500D02*
X74567224Y-152987500D01*
X74057776Y-154032500D02*
X74567224Y-154032500D01*
%TO.C,R9*%
X115092224Y-116977500D02*
X114582776Y-116977500D01*
X115092224Y-118022500D02*
X114582776Y-118022500D01*
%TO.C,C17*%
X141740000Y-121146267D02*
X141740000Y-120853733D01*
X142760000Y-121146267D02*
X142760000Y-120853733D01*
%TO.C,R7*%
X121727500Y-131667224D02*
X121727500Y-131157776D01*
X122772500Y-131667224D02*
X122772500Y-131157776D01*
%TO.C,R8*%
X122227500Y-118754724D02*
X122227500Y-118245276D01*
X123272500Y-118754724D02*
X123272500Y-118245276D01*
%TO.C,R3*%
X74057776Y-147967500D02*
X74567224Y-147967500D01*
X74057776Y-149012500D02*
X74567224Y-149012500D01*
%TO.C,R1*%
X73882776Y-142947500D02*
X74392224Y-142947500D01*
X73882776Y-143992500D02*
X74392224Y-143992500D01*
%TO.C,C10*%
X117240000Y-118646267D02*
X117240000Y-118353733D01*
X118260000Y-118646267D02*
X118260000Y-118353733D01*
%TO.C,R2*%
X73882776Y-145537500D02*
X74392224Y-145537500D01*
X73882776Y-146582500D02*
X74392224Y-146582500D01*
%TO.C,U4*%
X114702500Y-125500000D02*
X114702500Y-123550000D01*
X114702500Y-125500000D02*
X114702500Y-127450000D01*
X123572500Y-125500000D02*
X123572500Y-123550000D01*
X123572500Y-125500000D02*
X123572500Y-127450000D01*
X114767500Y-128200000D02*
X114437500Y-128440000D01*
X114437500Y-127960000D01*
X114767500Y-128200000D01*
G36*
X114767500Y-128200000D02*
G01*
X114437500Y-128440000D01*
X114437500Y-127960000D01*
X114767500Y-128200000D01*
G37*
D15*
%TO.C,G1*%
G36*
X78079491Y-121386801D02*
G01*
X78128522Y-121426141D01*
X78164071Y-121481021D01*
X78172363Y-121530158D01*
X78154648Y-121566345D01*
X78106629Y-121581484D01*
X78077537Y-121583291D01*
X77705570Y-121596562D01*
X77317933Y-121614874D01*
X76909708Y-121638581D01*
X76475979Y-121668036D01*
X76011829Y-121703593D01*
X75512341Y-121745606D01*
X74972600Y-121794427D01*
X74461477Y-121843200D01*
X74237354Y-121864562D01*
X73997464Y-121886592D01*
X73755324Y-121908106D01*
X73524450Y-121927919D01*
X73318358Y-121944848D01*
X73172709Y-121956090D01*
X72961586Y-121972227D01*
X72795312Y-121986390D01*
X72668760Y-121999321D01*
X72576804Y-122011766D01*
X72514318Y-122024466D01*
X72476174Y-122038167D01*
X72457247Y-122053610D01*
X72453940Y-122060347D01*
X72472353Y-122077878D01*
X72538428Y-122092894D01*
X72639753Y-122104052D01*
X72716812Y-122108081D01*
X72839358Y-122111635D01*
X73002833Y-122114718D01*
X73202679Y-122117337D01*
X73434335Y-122119498D01*
X73693244Y-122121205D01*
X73974845Y-122122466D01*
X74274581Y-122123285D01*
X74587892Y-122123668D01*
X74910220Y-122123621D01*
X75237004Y-122123149D01*
X75563687Y-122122258D01*
X75885709Y-122120955D01*
X76198512Y-122119244D01*
X76497536Y-122117131D01*
X76778223Y-122114622D01*
X77036013Y-122111723D01*
X77266347Y-122108439D01*
X77464667Y-122104777D01*
X77626414Y-122100740D01*
X77714679Y-122097726D01*
X78465418Y-122067821D01*
X78510263Y-122122365D01*
X78540982Y-122175928D01*
X78547476Y-122216631D01*
X78538888Y-122229735D01*
X78514858Y-122240640D01*
X78469672Y-122250014D01*
X78397619Y-122258522D01*
X78292986Y-122266831D01*
X78150059Y-122275608D01*
X77963127Y-122285517D01*
X77952090Y-122286076D01*
X77735585Y-122297734D01*
X77489236Y-122312163D01*
X77233086Y-122328117D01*
X76987178Y-122344348D01*
X76776256Y-122359259D01*
X76606425Y-122371771D01*
X76450409Y-122383191D01*
X76316101Y-122392948D01*
X76211395Y-122400469D01*
X76144183Y-122405183D01*
X76125615Y-122406398D01*
X76067841Y-122410918D01*
X75980932Y-122418945D01*
X75900394Y-122427029D01*
X75819137Y-122435112D01*
X75700781Y-122446382D01*
X75558087Y-122459648D01*
X75403813Y-122473720D01*
X75312315Y-122481936D01*
X75132250Y-122498226D01*
X74932342Y-122516681D01*
X74733692Y-122535331D01*
X74557399Y-122552206D01*
X74511527Y-122556676D01*
X74359026Y-122571015D01*
X74173773Y-122587490D01*
X73972934Y-122604630D01*
X73773675Y-122620962D01*
X73635665Y-122631790D01*
X73408456Y-122649357D01*
X73226248Y-122664000D01*
X73084120Y-122676374D01*
X72977153Y-122687132D01*
X72900426Y-122696929D01*
X72849018Y-122706420D01*
X72818010Y-122716260D01*
X72802480Y-122727102D01*
X72797510Y-122739602D01*
X72797340Y-122743308D01*
X72818443Y-122764368D01*
X72856468Y-122778774D01*
X72897068Y-122782619D01*
X72983571Y-122785995D01*
X73111829Y-122788909D01*
X73277697Y-122791370D01*
X73477031Y-122793386D01*
X73705684Y-122794966D01*
X73959511Y-122796118D01*
X74234367Y-122796851D01*
X74526105Y-122797172D01*
X74830582Y-122797089D01*
X75143650Y-122796613D01*
X75461165Y-122795750D01*
X75778981Y-122794509D01*
X76092953Y-122792898D01*
X76398934Y-122790926D01*
X76692781Y-122788602D01*
X76970346Y-122785932D01*
X77227485Y-122782927D01*
X77460053Y-122779593D01*
X77663903Y-122775940D01*
X77834890Y-122771976D01*
X77946931Y-122768526D01*
X78180404Y-122760245D01*
X78368926Y-122753929D01*
X78517561Y-122749664D01*
X78631372Y-122747538D01*
X78715422Y-122747638D01*
X78774775Y-122750051D01*
X78814494Y-122754866D01*
X78839643Y-122762169D01*
X78855283Y-122772048D01*
X78866336Y-122784403D01*
X78900014Y-122849861D01*
X78887251Y-122897127D01*
X78828554Y-122925349D01*
X78778226Y-122932349D01*
X78728534Y-122935763D01*
X78635051Y-122942034D01*
X78503928Y-122950756D01*
X78341315Y-122961522D01*
X78153364Y-122973924D01*
X77946227Y-122987556D01*
X77726054Y-123002010D01*
X77677143Y-123005217D01*
X77450474Y-123020345D01*
X77231684Y-123035463D01*
X77027621Y-123050060D01*
X76845133Y-123063625D01*
X76691069Y-123075648D01*
X76572277Y-123085618D01*
X76495606Y-123093024D01*
X76488473Y-123093845D01*
X76359194Y-123107805D01*
X76211588Y-123121607D01*
X76077298Y-123132297D01*
X76075566Y-123132417D01*
X75875251Y-123147534D01*
X75642924Y-123167450D01*
X75373036Y-123192669D01*
X75060042Y-123223691D01*
X74999507Y-123229848D01*
X74842302Y-123245133D01*
X74676543Y-123259983D01*
X74521139Y-123272774D01*
X74395002Y-123281886D01*
X74386404Y-123282429D01*
X74230186Y-123292788D01*
X74062089Y-123305054D01*
X73889923Y-123318538D01*
X73721501Y-123332552D01*
X73564634Y-123346407D01*
X73427134Y-123359416D01*
X73316811Y-123370891D01*
X73241477Y-123380144D01*
X73209890Y-123386062D01*
X73174753Y-123409340D01*
X73186641Y-123431409D01*
X73242561Y-123449291D01*
X73279064Y-123454911D01*
X73340489Y-123459284D01*
X73447532Y-123463350D01*
X73595762Y-123467095D01*
X73780749Y-123470505D01*
X73998060Y-123473567D01*
X74243265Y-123476267D01*
X74511935Y-123478594D01*
X74799637Y-123480532D01*
X75101941Y-123482070D01*
X75414417Y-123483193D01*
X75732633Y-123483889D01*
X76052159Y-123484144D01*
X76368564Y-123483944D01*
X76677417Y-123483278D01*
X76974287Y-123482130D01*
X77254744Y-123480488D01*
X77514357Y-123478339D01*
X77748694Y-123475670D01*
X77953326Y-123472466D01*
X78098601Y-123469364D01*
X78363426Y-123462851D01*
X78582687Y-123457755D01*
X78760849Y-123454144D01*
X78902380Y-123452088D01*
X79011746Y-123451656D01*
X79093414Y-123452919D01*
X79151850Y-123455945D01*
X79191521Y-123460805D01*
X79216894Y-123467568D01*
X79232434Y-123476302D01*
X79242609Y-123487079D01*
X79242682Y-123487174D01*
X79274930Y-123552724D01*
X79267063Y-123603849D01*
X79222413Y-123630640D01*
X79177822Y-123635671D01*
X79093912Y-123641683D01*
X78981388Y-123648030D01*
X78850955Y-123654065D01*
X78803251Y-123655977D01*
X78435901Y-123671179D01*
X78086694Y-123687781D01*
X77762176Y-123705405D01*
X77468898Y-123723673D01*
X77213406Y-123742210D01*
X77026502Y-123758304D01*
X76858131Y-123773936D01*
X76674830Y-123790431D01*
X76497125Y-123805971D01*
X76345543Y-123818740D01*
X76325812Y-123820346D01*
X76177770Y-123832871D01*
X76001336Y-123848646D01*
X75817899Y-123865716D01*
X75648846Y-123882126D01*
X75637635Y-123883247D01*
X75334672Y-123912484D01*
X75011508Y-123941695D01*
X74684166Y-123969531D01*
X74368668Y-123994645D01*
X74081037Y-124015691D01*
X73986738Y-124022055D01*
X73816576Y-124035128D01*
X73693580Y-124049264D01*
X73614865Y-124065200D01*
X73577551Y-124083671D01*
X73578755Y-124105417D01*
X73598337Y-124121348D01*
X73632507Y-124127697D01*
X73710121Y-124133627D01*
X73824572Y-124138895D01*
X73969254Y-124143259D01*
X74137562Y-124146478D01*
X74322889Y-124148309D01*
X74336354Y-124148379D01*
X74548558Y-124149956D01*
X74771295Y-124152557D01*
X74991692Y-124155965D01*
X75196871Y-124159965D01*
X75373958Y-124164339D01*
X75474975Y-124167531D01*
X75912906Y-124183251D01*
X75996366Y-124341081D01*
X76036041Y-124423453D01*
X76061592Y-124491081D01*
X76067808Y-124530035D01*
X76067452Y-124531158D01*
X76061697Y-124540812D01*
X76049193Y-124549194D01*
X76025024Y-124556872D01*
X75984272Y-124564412D01*
X75922017Y-124572380D01*
X75833343Y-124581344D01*
X75713331Y-124591870D01*
X75557063Y-124604525D01*
X75359622Y-124619874D01*
X75174679Y-124634021D01*
X74898638Y-124655191D01*
X74668185Y-124673186D01*
X74478986Y-124688418D01*
X74326709Y-124701298D01*
X74207022Y-124712237D01*
X74115590Y-124721646D01*
X74048082Y-124729936D01*
X74000163Y-124737519D01*
X73967503Y-124744807D01*
X73950786Y-124750183D01*
X73906934Y-124769396D01*
X73906679Y-124784761D01*
X73935960Y-124803196D01*
X73959835Y-124808126D01*
X74014175Y-124812453D01*
X74100782Y-124816195D01*
X74221459Y-124819368D01*
X74378009Y-124821985D01*
X74572236Y-124824065D01*
X74805941Y-124825622D01*
X75080928Y-124826673D01*
X75399000Y-124827232D01*
X75761959Y-124827317D01*
X76171609Y-124826942D01*
X76563546Y-124826263D01*
X76928507Y-124825464D01*
X77286193Y-124824582D01*
X77632562Y-124823632D01*
X77963571Y-124822630D01*
X78275177Y-124821591D01*
X78563337Y-124820531D01*
X78824010Y-124819464D01*
X79053150Y-124818405D01*
X79246717Y-124817372D01*
X79400668Y-124816378D01*
X79510958Y-124815438D01*
X79553357Y-124814925D01*
X79965632Y-124808867D01*
X79989691Y-124877196D01*
X80002734Y-124930614D01*
X79999864Y-124959412D01*
X79976727Y-124968010D01*
X79922456Y-124976177D01*
X79833001Y-124984233D01*
X79704313Y-124992499D01*
X79532343Y-125001297D01*
X79391330Y-125007630D01*
X79185400Y-125016576D01*
X79012528Y-125024371D01*
X78863631Y-125031622D01*
X78729627Y-125038938D01*
X78601437Y-125046928D01*
X78469976Y-125056200D01*
X78326165Y-125067363D01*
X78160922Y-125081026D01*
X77965165Y-125097798D01*
X77729812Y-125118285D01*
X77695911Y-125121247D01*
X77570693Y-125132167D01*
X77412100Y-125145968D01*
X77236619Y-125161217D01*
X77060738Y-125176481D01*
X76976453Y-125183787D01*
X76806570Y-125198604D01*
X76604413Y-125216392D01*
X76387555Y-125235596D01*
X76173565Y-125254659D01*
X76000492Y-125270182D01*
X75567961Y-125308005D01*
X75157412Y-125341659D01*
X74779187Y-125370317D01*
X74547544Y-125386409D01*
X74408954Y-125399403D01*
X74319253Y-125416654D01*
X74278755Y-125438061D01*
X74287775Y-125463519D01*
X74295491Y-125469051D01*
X74325942Y-125473226D01*
X74402083Y-125477743D01*
X74519556Y-125482489D01*
X74674006Y-125487354D01*
X74861074Y-125492225D01*
X75076404Y-125496990D01*
X75315638Y-125501538D01*
X75574419Y-125505757D01*
X75848390Y-125509535D01*
X75897067Y-125510136D01*
X76504652Y-125516104D01*
X77072048Y-125518625D01*
X77609005Y-125517607D01*
X78125271Y-125512959D01*
X78630594Y-125504589D01*
X79134724Y-125492406D01*
X79647409Y-125476317D01*
X79704138Y-125474326D01*
X79867953Y-125469000D01*
X80015509Y-125465112D01*
X80139276Y-125462787D01*
X80231727Y-125462148D01*
X80285334Y-125463321D01*
X80295083Y-125464573D01*
X80326521Y-125493635D01*
X80353812Y-125544276D01*
X80367905Y-125595133D01*
X80362232Y-125623075D01*
X80332788Y-125629098D01*
X80260168Y-125636608D01*
X80151206Y-125645117D01*
X80012736Y-125654136D01*
X79851591Y-125663177D01*
X79691625Y-125670984D01*
X79503262Y-125680072D01*
X79319854Y-125689879D01*
X79150945Y-125699822D01*
X79006079Y-125709318D01*
X78894799Y-125717786D01*
X78840788Y-125722923D01*
X78711531Y-125736200D01*
X78563948Y-125749651D01*
X78429666Y-125760396D01*
X78427881Y-125760524D01*
X78339129Y-125767218D01*
X78211329Y-125777304D01*
X78055305Y-125789905D01*
X77881875Y-125804145D01*
X77701860Y-125819147D01*
X77639606Y-125824390D01*
X77452338Y-125840186D01*
X77260896Y-125856297D01*
X77077999Y-125871656D01*
X76916368Y-125885194D01*
X76788725Y-125895844D01*
X76763744Y-125897920D01*
X76621169Y-125910145D01*
X76449523Y-125925466D01*
X76269535Y-125942002D01*
X76101936Y-125957873D01*
X76088078Y-125959213D01*
X75922535Y-125974267D01*
X75728190Y-125990390D01*
X75526214Y-126005911D01*
X75337781Y-126019158D01*
X75287290Y-126022424D01*
X75090201Y-126035232D01*
X74937618Y-126046242D01*
X74824065Y-126056192D01*
X74744061Y-126065817D01*
X74692130Y-126075856D01*
X74662794Y-126087043D01*
X74650573Y-126100117D01*
X74649162Y-126108225D01*
X74649391Y-126115730D01*
X74651384Y-126122644D01*
X74657101Y-126128985D01*
X74668500Y-126134773D01*
X74687542Y-126140028D01*
X74716186Y-126144767D01*
X74756391Y-126149011D01*
X74810116Y-126152779D01*
X74879321Y-126156089D01*
X74965965Y-126158962D01*
X75072008Y-126161417D01*
X75199409Y-126163472D01*
X75350127Y-126165147D01*
X75526122Y-126166461D01*
X75729353Y-126167433D01*
X75961780Y-126168083D01*
X76225362Y-126168430D01*
X76522058Y-126168493D01*
X76853828Y-126168291D01*
X77222631Y-126167844D01*
X77630427Y-126167170D01*
X78079174Y-126166290D01*
X78570833Y-126165221D01*
X79107362Y-126163984D01*
X79690722Y-126162598D01*
X80091402Y-126161637D01*
X80691375Y-126160197D01*
X80715420Y-126228526D01*
X80728830Y-126281516D01*
X80726826Y-126309495D01*
X80698305Y-126315463D01*
X80630011Y-126322356D01*
X80532189Y-126329319D01*
X80415615Y-126335474D01*
X80006459Y-126354583D01*
X79644656Y-126373263D01*
X79327512Y-126391675D01*
X79052335Y-126409981D01*
X78816430Y-126428341D01*
X78715665Y-126437285D01*
X78542264Y-126453074D01*
X78340424Y-126470939D01*
X78131598Y-126489012D01*
X77937238Y-126505421D01*
X77877340Y-126510364D01*
X77580913Y-126534983D01*
X77329355Y-126556638D01*
X77117602Y-126575802D01*
X76940591Y-126592951D01*
X76793259Y-126608557D01*
X76670543Y-126623095D01*
X76663645Y-126623971D01*
X76583694Y-126632715D01*
X76463026Y-126644033D01*
X76310858Y-126657152D01*
X76136412Y-126671298D01*
X75948907Y-126685698D01*
X75787191Y-126697486D01*
X75606506Y-126710798D01*
X75440825Y-126723927D01*
X75297130Y-126736244D01*
X75182402Y-126747123D01*
X75103623Y-126755938D01*
X75067776Y-126762061D01*
X75067733Y-126762077D01*
X75028604Y-126789828D01*
X75037537Y-126818395D01*
X75068325Y-126832784D01*
X75108064Y-126837164D01*
X75193651Y-126841277D01*
X75320886Y-126845108D01*
X75485570Y-126848642D01*
X75683501Y-126851864D01*
X75910481Y-126854758D01*
X76162307Y-126857309D01*
X76434781Y-126859502D01*
X76723703Y-126861321D01*
X77024871Y-126862753D01*
X77334086Y-126863780D01*
X77647147Y-126864388D01*
X77959856Y-126864562D01*
X78268010Y-126864286D01*
X78567410Y-126863545D01*
X78853857Y-126862324D01*
X79123149Y-126860608D01*
X79371086Y-126858381D01*
X79593469Y-126855628D01*
X79786097Y-126852334D01*
X79879310Y-126850250D01*
X81017931Y-126822035D01*
X81062775Y-126876812D01*
X81093467Y-126930480D01*
X81099981Y-126971311D01*
X81092717Y-126982025D01*
X81072277Y-126991384D01*
X81034041Y-126999798D01*
X80973390Y-127007678D01*
X80885704Y-127015433D01*
X80766361Y-127023475D01*
X80610744Y-127032213D01*
X80414230Y-127042059D01*
X80179275Y-127053096D01*
X79497105Y-127090082D01*
X78771344Y-127140109D01*
X78006630Y-127202833D01*
X77376847Y-127261249D01*
X77080627Y-127289438D01*
X76816624Y-127313062D01*
X76567368Y-127333550D01*
X76315387Y-127352325D01*
X76043209Y-127370815D01*
X76000492Y-127373592D01*
X75790058Y-127388756D01*
X75626981Y-127404168D01*
X75508568Y-127420314D01*
X75432129Y-127437678D01*
X75394970Y-127456746D01*
X75394401Y-127478003D01*
X75398049Y-127482173D01*
X75421283Y-127489880D01*
X75476275Y-127496531D01*
X75565732Y-127502212D01*
X75692361Y-127507007D01*
X75858872Y-127511003D01*
X76067970Y-127514287D01*
X76322364Y-127516943D01*
X76546004Y-127518585D01*
X76778439Y-127520257D01*
X76995768Y-127522218D01*
X77192814Y-127524393D01*
X77364396Y-127526704D01*
X77505335Y-127529078D01*
X77610451Y-127531438D01*
X77674566Y-127533708D01*
X77692610Y-127535301D01*
X77719431Y-127561334D01*
X77758425Y-127617980D01*
X77802369Y-127692041D01*
X77844037Y-127770314D01*
X77876204Y-127839601D01*
X77891647Y-127886701D01*
X77890933Y-127897659D01*
X77860563Y-127911387D01*
X77794590Y-127925341D01*
X77708160Y-127936405D01*
X77587622Y-127948781D01*
X77452667Y-127964120D01*
X77364335Y-127975036D01*
X77289594Y-127983069D01*
X77174313Y-127993352D01*
X77027910Y-128005145D01*
X76859805Y-128017709D01*
X76679417Y-128030303D01*
X76563546Y-128037930D01*
X76325668Y-128054135D01*
X76134270Y-128069392D01*
X75985803Y-128084180D01*
X75876717Y-128098975D01*
X75803465Y-128114256D01*
X75762497Y-128130502D01*
X75750246Y-128147491D01*
X75756735Y-128159843D01*
X75778811Y-128170146D01*
X75820388Y-128178576D01*
X75885378Y-128185304D01*
X75977695Y-128190506D01*
X76101253Y-128194355D01*
X76259964Y-128197025D01*
X76457742Y-128198689D01*
X76698500Y-128199521D01*
X76926404Y-128199704D01*
X77150446Y-128200071D01*
X77361197Y-128201117D01*
X77552872Y-128202763D01*
X77719687Y-128204929D01*
X77855859Y-128207532D01*
X77955604Y-128210494D01*
X78013138Y-128213734D01*
X78022323Y-128214937D01*
X78070486Y-128232831D01*
X78112285Y-128271825D01*
X78157993Y-128342753D01*
X78177691Y-128378769D01*
X78221112Y-128467615D01*
X78238147Y-128524430D01*
X78231326Y-128558031D01*
X78229730Y-128560096D01*
X78189421Y-128578649D01*
X78104778Y-128594484D01*
X77981487Y-128606594D01*
X77958623Y-128608114D01*
X77821596Y-128617665D01*
X77660052Y-128630504D01*
X77480493Y-128645968D01*
X77289422Y-128663391D01*
X77093342Y-128682107D01*
X76898756Y-128701452D01*
X76712164Y-128720759D01*
X76540072Y-128739365D01*
X76388980Y-128756604D01*
X76265391Y-128771810D01*
X76175808Y-128784318D01*
X76126734Y-128793464D01*
X76119657Y-128796243D01*
X76113860Y-128826754D01*
X76126430Y-128838336D01*
X76157330Y-128842649D01*
X76232775Y-128847094D01*
X76347264Y-128851518D01*
X76495293Y-128855770D01*
X76671360Y-128859698D01*
X76869962Y-128863153D01*
X77085596Y-128865982D01*
X77160877Y-128866765D01*
X77387286Y-128869280D01*
X77603878Y-128872278D01*
X77804197Y-128875628D01*
X77981784Y-128879196D01*
X78130183Y-128882849D01*
X78242938Y-128886457D01*
X78313590Y-128889885D01*
X78323228Y-128890636D01*
X78481334Y-128904742D01*
X78570708Y-129044456D01*
X78616329Y-129115657D01*
X78646496Y-129169411D01*
X78656525Y-129208813D01*
X78641732Y-129236958D01*
X78597435Y-129256942D01*
X78518948Y-129271860D01*
X78401590Y-129284810D01*
X78240677Y-129298885D01*
X78177635Y-129304269D01*
X77987792Y-129320884D01*
X77778668Y-129339676D01*
X77569307Y-129358904D01*
X77378755Y-129376824D01*
X77276748Y-129386678D01*
X77122643Y-129401280D01*
X76971412Y-129414724D01*
X76836422Y-129425885D01*
X76731043Y-129433633D01*
X76693051Y-129435906D01*
X76585801Y-129446758D01*
X76512363Y-129465251D01*
X76477716Y-129489158D01*
X76486843Y-129516254D01*
X76496987Y-129523539D01*
X76528068Y-129528059D01*
X76604105Y-129532974D01*
X76720006Y-129538124D01*
X76870680Y-129543348D01*
X77051036Y-129548485D01*
X77255984Y-129553375D01*
X77480432Y-129557857D01*
X77697960Y-129561454D01*
X77936136Y-129565254D01*
X78159769Y-129569285D01*
X78363719Y-129573423D01*
X78542844Y-129577542D01*
X78692005Y-129581515D01*
X78806060Y-129585217D01*
X78879868Y-129588523D01*
X78907689Y-129591070D01*
X78947128Y-129620534D01*
X78996380Y-129680452D01*
X79045452Y-129755313D01*
X79084352Y-129829607D01*
X79103086Y-129887824D01*
X79103546Y-129895067D01*
X79099290Y-129920326D01*
X79080123Y-129937089D01*
X79036448Y-129948320D01*
X78958665Y-129956982D01*
X78884581Y-129962689D01*
X78750301Y-129973447D01*
X78603030Y-129986927D01*
X78473164Y-130000336D01*
X78465418Y-130001211D01*
X78378390Y-130010075D01*
X78252678Y-130021492D01*
X78099526Y-130034510D01*
X77930175Y-130048177D01*
X77755869Y-130061543D01*
X77727192Y-130063669D01*
X77473650Y-130083401D01*
X77261055Y-130102120D01*
X77091267Y-130119617D01*
X76966147Y-130135683D01*
X76887554Y-130150110D01*
X76858459Y-130161179D01*
X76847883Y-130177620D01*
X76854736Y-130191182D01*
X76882956Y-130202154D01*
X76936481Y-130210825D01*
X77019251Y-130217484D01*
X77135205Y-130222421D01*
X77288281Y-130225923D01*
X77482418Y-130228281D01*
X77721555Y-130229784D01*
X77797486Y-130230092D01*
X78022477Y-130231327D01*
X78244900Y-130233294D01*
X78456538Y-130235868D01*
X78649172Y-130238921D01*
X78814584Y-130242328D01*
X78944555Y-130245961D01*
X79015857Y-130248861D01*
X79316050Y-130264236D01*
X79371412Y-130419810D01*
X79396575Y-130501457D01*
X79408077Y-130562521D01*
X79403945Y-130589493D01*
X79367503Y-130599200D01*
X79290705Y-130611414D01*
X79183111Y-130625019D01*
X79054281Y-130638899D01*
X78913777Y-130651939D01*
X78778226Y-130662529D01*
X78685503Y-130669745D01*
X78557381Y-130680684D01*
X78408261Y-130694071D01*
X78252542Y-130708630D01*
X78190147Y-130714640D01*
X78022256Y-130730646D01*
X77841965Y-130747297D01*
X77668394Y-130762861D01*
X77520659Y-130775602D01*
X77489598Y-130778177D01*
X77338387Y-130791464D01*
X77230639Y-130803445D01*
X77159831Y-130815347D01*
X77119441Y-130828401D01*
X77102947Y-130843836D01*
X77101576Y-130851324D01*
X77106948Y-130865857D01*
X77126409Y-130877453D01*
X77164970Y-130886473D01*
X77227647Y-130893274D01*
X77319454Y-130898217D01*
X77445404Y-130901660D01*
X77610511Y-130903962D01*
X77819789Y-130905482D01*
X77860618Y-130905692D01*
X78075004Y-130907286D01*
X78304548Y-130909937D01*
X78534926Y-130913416D01*
X78751815Y-130917491D01*
X78940892Y-130921933D01*
X79028203Y-130924460D01*
X79515913Y-130939901D01*
X79545378Y-131002463D01*
X79567162Y-131069816D01*
X79581933Y-131152894D01*
X79583039Y-131164455D01*
X79585623Y-131228295D01*
X79570585Y-131259574D01*
X79524913Y-131274776D01*
X79491282Y-131280699D01*
X79418238Y-131290677D01*
X79315120Y-131301907D01*
X79201791Y-131312265D01*
X79178620Y-131314126D01*
X78975932Y-131330861D01*
X78724448Y-131353208D01*
X78425097Y-131381085D01*
X78190147Y-131403593D01*
X78061700Y-131415326D01*
X77904567Y-131428650D01*
X77739996Y-131441810D01*
X77608974Y-131451636D01*
X77430759Y-131467554D01*
X77301487Y-131486220D01*
X77220117Y-131507879D01*
X77185606Y-131532776D01*
X77187698Y-131550636D01*
X77214530Y-131555195D01*
X77286297Y-131560153D01*
X77397891Y-131565339D01*
X77544201Y-131570584D01*
X77720117Y-131575719D01*
X77920529Y-131580574D01*
X78140327Y-131584979D01*
X78308251Y-131587787D01*
X78543105Y-131591677D01*
X78765805Y-131595915D01*
X78970651Y-131600350D01*
X79151947Y-131604836D01*
X79303991Y-131609226D01*
X79421087Y-131613370D01*
X79497535Y-131617122D01*
X79522709Y-131619277D01*
X79629064Y-131633761D01*
X79629064Y-131780187D01*
X79622595Y-131878499D01*
X79596989Y-131938269D01*
X79542943Y-131968503D01*
X79451158Y-131978206D01*
X79424256Y-131978480D01*
X79370667Y-131980788D01*
X79275101Y-131987261D01*
X79145397Y-131997272D01*
X78989396Y-132010193D01*
X78814939Y-132025394D01*
X78640591Y-132041253D01*
X78433884Y-132060358D01*
X78218122Y-132080156D01*
X78006016Y-132099491D01*
X77810280Y-132117206D01*
X77643625Y-132132145D01*
X77559022Y-132139633D01*
X77374520Y-132157438D01*
X77237458Y-132174482D01*
X77145244Y-132191325D01*
X77095286Y-132208528D01*
X77084992Y-132226648D01*
X77098231Y-132239114D01*
X77110125Y-132243521D01*
X77133214Y-132247556D01*
X77171093Y-132251339D01*
X77227355Y-132254989D01*
X77305593Y-132258625D01*
X77409402Y-132262366D01*
X77542375Y-132266332D01*
X77708106Y-132270641D01*
X77910189Y-132275412D01*
X78152218Y-132280765D01*
X78437786Y-132286819D01*
X78703152Y-132292312D01*
X78903392Y-132296945D01*
X79087683Y-132302206D01*
X79250050Y-132307847D01*
X79384520Y-132313619D01*
X79485121Y-132319274D01*
X79545878Y-132324566D01*
X79561541Y-132327954D01*
X79567616Y-132360975D01*
X79560567Y-132424331D01*
X79551827Y-132464627D01*
X79523459Y-132547228D01*
X79485707Y-132593012D01*
X79459341Y-132606724D01*
X79414346Y-132616621D01*
X79329031Y-132629081D01*
X79212987Y-132642938D01*
X79075803Y-132657025D01*
X78960036Y-132667445D01*
X78813841Y-132680228D01*
X78682051Y-132692563D01*
X78574019Y-132703511D01*
X78499098Y-132712133D01*
X78469404Y-132716699D01*
X78425397Y-132722955D01*
X78342304Y-132731507D01*
X78230980Y-132741347D01*
X78102280Y-132751468D01*
X78065024Y-132754186D01*
X77798452Y-132773389D01*
X77577294Y-132789580D01*
X77397031Y-132803165D01*
X77253143Y-132814549D01*
X77141113Y-132824137D01*
X77056421Y-132832336D01*
X76994548Y-132839550D01*
X76950976Y-132846184D01*
X76921186Y-132852646D01*
X76902955Y-132858444D01*
X76861927Y-132878813D01*
X76865075Y-132895922D01*
X76876354Y-132902900D01*
X76912758Y-132909555D01*
X76993721Y-132916275D01*
X77113755Y-132922906D01*
X77267372Y-132929297D01*
X77449082Y-132935296D01*
X77653396Y-132940751D01*
X77874826Y-132945509D01*
X78107882Y-132949419D01*
X78347077Y-132952328D01*
X78586920Y-132954085D01*
X78740689Y-132954537D01*
X78906907Y-132955637D01*
X79057356Y-132958384D01*
X79184476Y-132962497D01*
X79280708Y-132967698D01*
X79338494Y-132973705D01*
X79350999Y-132977152D01*
X79368739Y-132997516D01*
X79368624Y-133033817D01*
X79349658Y-133098900D01*
X79339267Y-133128397D01*
X79308744Y-133204485D01*
X79280305Y-133260992D01*
X79266665Y-133279323D01*
X79231923Y-133289564D01*
X79151294Y-133302662D01*
X79028834Y-133318199D01*
X78868599Y-133335751D01*
X78674646Y-133354900D01*
X78451028Y-133375222D01*
X78201802Y-133396299D01*
X77939901Y-133417028D01*
X77529108Y-133449477D01*
X77126305Y-133483134D01*
X76750941Y-133516367D01*
X76694775Y-133521531D01*
X76601695Y-133534298D01*
X76524395Y-133552313D01*
X76482066Y-133570299D01*
X76471309Y-133583494D01*
X76483609Y-133592740D01*
X76525018Y-133598692D01*
X76601589Y-133602004D01*
X76719372Y-133603330D01*
X76788768Y-133603453D01*
X77144370Y-133603921D01*
X77479129Y-133605245D01*
X77789994Y-133607370D01*
X78073911Y-133610241D01*
X78327827Y-133613805D01*
X78548689Y-133618007D01*
X78733445Y-133622792D01*
X78879041Y-133628107D01*
X78982425Y-133633897D01*
X79040543Y-133640106D01*
X79052224Y-133643791D01*
X79056684Y-133677866D01*
X79029635Y-133742876D01*
X78990252Y-133810269D01*
X78960593Y-133858498D01*
X78935324Y-133895320D01*
X78907488Y-133922828D01*
X78870133Y-133943117D01*
X78816303Y-133958279D01*
X78739044Y-133970409D01*
X78631402Y-133981601D01*
X78486422Y-133993948D01*
X78340295Y-134005947D01*
X78207715Y-134017142D01*
X78084004Y-134027950D01*
X77982611Y-134037172D01*
X77916983Y-134043611D01*
X77914877Y-134043839D01*
X77853473Y-134049559D01*
X77754434Y-134057682D01*
X77630061Y-134067244D01*
X77492656Y-134077279D01*
X77451921Y-134080154D01*
X77292991Y-134091840D01*
X77116539Y-134105768D01*
X76929690Y-134121282D01*
X76739568Y-134137725D01*
X76553298Y-134154440D01*
X76378006Y-134170769D01*
X76220816Y-134186057D01*
X76088854Y-134199646D01*
X75989244Y-134210879D01*
X75929111Y-134219100D01*
X75916643Y-134221696D01*
X75887347Y-134233209D01*
X75883179Y-134243206D01*
X75906774Y-134251816D01*
X75960768Y-134259165D01*
X76047797Y-134265384D01*
X76170498Y-134270599D01*
X76331506Y-134274938D01*
X76533457Y-134278530D01*
X76778987Y-134281503D01*
X77070732Y-134283985D01*
X77219205Y-134284985D01*
X77532096Y-134287280D01*
X77797625Y-134289972D01*
X78018478Y-134293136D01*
X78197341Y-134296848D01*
X78336900Y-134301185D01*
X78439843Y-134306222D01*
X78508854Y-134312035D01*
X78546621Y-134318701D01*
X78555075Y-134322786D01*
X78567546Y-134353105D01*
X78546621Y-134396678D01*
X78525697Y-134423549D01*
X78440488Y-134516434D01*
X78359707Y-134575992D01*
X78265562Y-134611761D01*
X78140256Y-134633275D01*
X78132644Y-134634172D01*
X77953122Y-134654803D01*
X77788734Y-134673146D01*
X77633006Y-134689772D01*
X77479463Y-134705252D01*
X77321634Y-134720159D01*
X77153043Y-134735064D01*
X76967217Y-134750537D01*
X76757683Y-134767150D01*
X76517968Y-134785475D01*
X76241597Y-134806083D01*
X75922098Y-134829545D01*
X75904671Y-134830819D01*
X75724241Y-134844448D01*
X75559949Y-134857718D01*
X75418474Y-134870020D01*
X75306499Y-134880746D01*
X75230704Y-134889287D01*
X75197772Y-134895033D01*
X75197317Y-134895268D01*
X75181211Y-134909280D01*
X75184321Y-134921051D01*
X75210038Y-134930762D01*
X75261752Y-134938595D01*
X75342855Y-134944733D01*
X75456736Y-134949357D01*
X75606788Y-134952649D01*
X75796401Y-134954791D01*
X76028966Y-134955964D01*
X76307872Y-134956352D01*
X76336026Y-134956354D01*
X76663114Y-134956761D01*
X76943166Y-134958061D01*
X77179192Y-134960373D01*
X77374198Y-134963816D01*
X77531195Y-134968509D01*
X77653189Y-134974571D01*
X77743189Y-134982122D01*
X77804204Y-134991280D01*
X77839240Y-135002164D01*
X77851308Y-135014894D01*
X77851365Y-135016332D01*
X77830177Y-135046984D01*
X77772506Y-135097205D01*
X77685231Y-135161564D01*
X77575228Y-135234631D01*
X77573851Y-135235504D01*
X77527211Y-135251859D01*
X77437142Y-135271460D01*
X77310094Y-135293452D01*
X77152519Y-135316979D01*
X76970869Y-135341186D01*
X76771595Y-135365217D01*
X76561148Y-135388216D01*
X76345979Y-135409328D01*
X76132539Y-135427698D01*
X76113103Y-135429229D01*
X75700786Y-135460754D01*
X75325896Y-135487921D01*
X74976082Y-135511593D01*
X74638995Y-135532634D01*
X74612272Y-135534226D01*
X74466662Y-135543526D01*
X74338210Y-135552973D01*
X74235326Y-135561849D01*
X74166420Y-135569435D01*
X74140389Y-135574576D01*
X74127715Y-135588495D01*
X74140740Y-135600109D01*
X74182587Y-135609593D01*
X74256380Y-135617123D01*
X74365242Y-135622877D01*
X74512295Y-135627029D01*
X74700664Y-135629756D01*
X74933470Y-135631235D01*
X75151982Y-135631636D01*
X75515629Y-135632652D01*
X75832529Y-135635382D01*
X76102218Y-135639809D01*
X76324230Y-135645917D01*
X76498097Y-135653689D01*
X76623355Y-135663110D01*
X76699537Y-135674162D01*
X76726177Y-135686829D01*
X76726207Y-135687291D01*
X76703276Y-135711768D01*
X76639612Y-135746252D01*
X76542909Y-135788109D01*
X76420858Y-135834701D01*
X76281153Y-135883393D01*
X76131486Y-135931547D01*
X75979551Y-135976529D01*
X75833040Y-136015701D01*
X75699646Y-136046428D01*
X75650147Y-136056043D01*
X75204971Y-136113828D01*
X74766325Y-136124053D01*
X74437345Y-136100755D01*
X74305418Y-136081927D01*
X74144111Y-136052503D01*
X73969508Y-136016020D01*
X73797693Y-135976010D01*
X73644752Y-135936009D01*
X73535566Y-135902605D01*
X73174329Y-135755340D01*
X72831348Y-135568799D01*
X72513564Y-135347791D01*
X72227920Y-135097125D01*
X71988944Y-134831231D01*
X71928063Y-134754822D01*
X71879193Y-134694338D01*
X71850527Y-134659891D01*
X71847002Y-134656059D01*
X71787664Y-134584418D01*
X71717225Y-134475262D01*
X71641030Y-134338344D01*
X71564427Y-134183419D01*
X71492761Y-134020241D01*
X71476676Y-133980394D01*
X71347752Y-133587528D01*
X71265437Y-133178632D01*
X71230197Y-132757066D01*
X71242499Y-132326189D01*
X71244085Y-132307685D01*
X71258217Y-132157815D01*
X71272552Y-132037795D01*
X71290227Y-131928409D01*
X71314378Y-131810441D01*
X71348140Y-131664673D01*
X71350903Y-131653103D01*
X71399659Y-131479572D01*
X71466099Y-131285719D01*
X71543966Y-131087061D01*
X71627006Y-130899114D01*
X71708965Y-130737394D01*
X71745090Y-130675253D01*
X71786160Y-130606599D01*
X71813855Y-130556650D01*
X71821379Y-130539222D01*
X71834866Y-130514774D01*
X71870939Y-130459593D01*
X71923013Y-130383613D01*
X71949649Y-130345657D01*
X72244010Y-129968610D01*
X72572284Y-129620653D01*
X72928141Y-129307818D01*
X73305253Y-129036136D01*
X73360394Y-129001097D01*
X73600638Y-128862933D01*
X73858986Y-128735566D01*
X74121715Y-128624784D01*
X74375103Y-128536372D01*
X74605369Y-128476128D01*
X74682228Y-128456378D01*
X74734436Y-128435554D01*
X74749261Y-128421528D01*
X74746706Y-128409106D01*
X74737623Y-128386094D01*
X74719882Y-128348437D01*
X74691354Y-128292083D01*
X74649910Y-128212976D01*
X74593419Y-128107062D01*
X74519753Y-127970288D01*
X74426783Y-127798598D01*
X74312378Y-127587940D01*
X74284441Y-127536551D01*
X74209912Y-127400119D01*
X74143122Y-127279065D01*
X74087853Y-127180149D01*
X74047892Y-127110133D01*
X74027023Y-127075779D01*
X74025281Y-127073596D01*
X74007437Y-127046057D01*
X73975470Y-126987149D01*
X73943188Y-126923448D01*
X73898300Y-126834782D01*
X73840211Y-126723293D01*
X73779895Y-126609986D01*
X73766719Y-126585615D01*
X73623257Y-126321252D01*
X73499043Y-126092453D01*
X73395053Y-125901015D01*
X73312262Y-125748732D01*
X73251647Y-125637400D01*
X73222841Y-125584630D01*
X73128243Y-125411299D01*
X73029694Y-125230075D01*
X72933001Y-125051682D01*
X72843966Y-124886843D01*
X72768395Y-124746282D01*
X72720160Y-124655935D01*
X72671254Y-124564799D01*
X72630021Y-124489697D01*
X72602912Y-124442315D01*
X72597296Y-124433497D01*
X72578833Y-124402352D01*
X72542504Y-124336972D01*
X72493818Y-124247382D01*
X72446058Y-124158226D01*
X72383873Y-124042572D01*
X72322081Y-123929621D01*
X72269188Y-123834829D01*
X72242282Y-123788012D01*
X72203589Y-123720611D01*
X72177960Y-123672878D01*
X72171724Y-123658267D01*
X72159914Y-123632539D01*
X72125641Y-123566242D01*
X72070636Y-123462618D01*
X71996632Y-123324909D01*
X71905362Y-123156357D01*
X71803663Y-122969556D01*
X71636128Y-122661905D01*
X71491828Y-122395529D01*
X71369530Y-122168045D01*
X71268003Y-121977067D01*
X71186015Y-121820209D01*
X71122334Y-121695087D01*
X71075728Y-121599315D01*
X71044966Y-121530508D01*
X71028814Y-121486280D01*
X71026043Y-121464248D01*
X71026121Y-121464000D01*
X71037836Y-121458756D01*
X71070863Y-121454158D01*
X71127605Y-121450183D01*
X71210463Y-121446808D01*
X71321838Y-121444008D01*
X71464131Y-121441759D01*
X71639745Y-121440039D01*
X71851081Y-121438823D01*
X72100540Y-121438088D01*
X72390524Y-121437810D01*
X72723433Y-121437965D01*
X73101671Y-121438529D01*
X73512176Y-121439441D01*
X73929066Y-121440072D01*
X74342850Y-121439905D01*
X74750360Y-121438984D01*
X75148426Y-121437351D01*
X75533879Y-121435047D01*
X75903550Y-121432116D01*
X76254270Y-121428599D01*
X76582870Y-121424540D01*
X76886180Y-121419981D01*
X77161033Y-121414964D01*
X77404257Y-121409531D01*
X77612685Y-121403726D01*
X77783148Y-121397590D01*
X77912475Y-121391166D01*
X77997499Y-121384496D01*
X78031779Y-121378923D01*
X78079491Y-121386801D01*
G37*
D13*
%TO.C,C16*%
X131454600Y-117033767D02*
X131454600Y-116741233D01*
X132474600Y-117033767D02*
X132474600Y-116741233D01*
%TO.C,C4*%
X144456148Y-146458100D02*
X145878652Y-146458100D01*
X144456148Y-148278100D02*
X145878652Y-148278100D01*
%TO.C,R4*%
X74057776Y-150477500D02*
X74567224Y-150477500D01*
X74057776Y-151522500D02*
X74567224Y-151522500D01*
%TO.C,C5*%
X154956148Y-145958100D02*
X156378652Y-145958100D01*
X154956148Y-147778100D02*
X156378652Y-147778100D01*
%TO.C,C18*%
X141729600Y-117033767D02*
X141729600Y-116741233D01*
X142749600Y-117033767D02*
X142749600Y-116741233D01*
%TO.C,C15*%
X131490000Y-121146267D02*
X131490000Y-120853733D01*
X132510000Y-121146267D02*
X132510000Y-120853733D01*
%TO.C,R11*%
X136492100Y-116632776D02*
X136492100Y-117142224D01*
X137537100Y-116632776D02*
X137537100Y-117142224D01*
%TO.C,C19*%
X101103733Y-141740000D02*
X101396267Y-141740000D01*
X101103733Y-142760000D02*
X101396267Y-142760000D01*
%TO.C,C3*%
X139521133Y-146858100D02*
X139813667Y-146858100D01*
X139521133Y-147878100D02*
X139813667Y-147878100D01*
%TO.C,L1*%
X136963667Y-141858100D02*
X136621133Y-141858100D01*
X136963667Y-142878100D02*
X136621133Y-142878100D01*
%TO.C,C14*%
X114896267Y-118990000D02*
X114603733Y-118990000D01*
X114896267Y-120010000D02*
X114603733Y-120010000D01*
%TD*%
M02*
