%TF.GenerationSoftware,KiCad,Pcbnew,9.0.1+1*%
%TF.CreationDate,2025-10-09T21:11:35+00:00*%
%TF.ProjectId,rcbus-opl3,72636275-732d-46f7-906c-332e6b696361,@version@*%
%TF.SameCoordinates,Original*%
%TF.FileFunction,Legend,Bot*%
%TF.FilePolarity,Positive*%
%FSLAX46Y46*%
G04 Gerber Fmt 4.6, Leading zero omitted, Abs format (unit mm)*
G04 Created by KiCad (PCBNEW 9.0.1+1) date 2025-10-09 21:11:35*
%MOMM*%
%LPD*%
G01*
G04 APERTURE LIST*
%ADD10C,0.300000*%
%ADD11C,0.400000*%
%ADD12C,0.000000*%
G04 APERTURE END LIST*
D10*
G36*
X160232230Y-161372500D02*
G01*
X160232230Y-159771762D01*
X159920729Y-159771762D01*
X159920729Y-160359960D01*
X159854268Y-160313743D01*
X159762460Y-160268003D01*
X159662847Y-160236567D01*
X159562333Y-160226237D01*
X159478063Y-160232558D01*
X159411186Y-160249896D01*
X159358268Y-160276612D01*
X159312585Y-160314391D01*
X159276215Y-160360894D01*
X159248634Y-160417388D01*
X159223803Y-160512014D01*
X159214928Y-160626215D01*
X159214928Y-161372500D01*
X159526338Y-161372500D01*
X159526338Y-160666149D01*
X159531899Y-160615791D01*
X159547221Y-160577031D01*
X159571910Y-160545639D01*
X159603916Y-160523542D01*
X159641749Y-160510461D01*
X159686714Y-160505865D01*
X159772535Y-160517039D01*
X159850296Y-160546806D01*
X159920729Y-160589030D01*
X159920729Y-161372500D01*
X160232230Y-161372500D01*
G37*
G36*
X158553732Y-161372500D02*
G01*
X158640149Y-161367719D01*
X158709532Y-161354639D01*
X158764850Y-161334764D01*
X158813562Y-161304208D01*
X158852125Y-161262843D01*
X158881445Y-161209009D01*
X158899684Y-161149082D01*
X158911170Y-161071295D01*
X158913960Y-160971605D01*
X158903610Y-160494050D01*
X159079648Y-160494050D01*
X159079648Y-160294564D01*
X158892436Y-160245105D01*
X158851129Y-159929116D01*
X158605573Y-159929116D01*
X158605573Y-160245105D01*
X158339501Y-160245105D01*
X158339501Y-160494050D01*
X158605573Y-160494050D01*
X158605573Y-160970048D01*
X158596872Y-161044970D01*
X158585956Y-161072278D01*
X158572234Y-161092139D01*
X158535689Y-161117968D01*
X158492733Y-161128226D01*
X158350675Y-161142331D01*
X158350675Y-161372500D01*
X158553732Y-161372500D01*
G37*
G36*
X157737473Y-161372500D02*
G01*
X157823890Y-161367719D01*
X157893273Y-161354639D01*
X157948590Y-161334764D01*
X157997302Y-161304208D01*
X158035865Y-161262843D01*
X158065186Y-161209009D01*
X158083424Y-161149082D01*
X158094911Y-161071295D01*
X158097700Y-160971605D01*
X158087351Y-160494050D01*
X158263389Y-160494050D01*
X158263389Y-160294564D01*
X158076177Y-160245105D01*
X158034869Y-159929116D01*
X157789313Y-159929116D01*
X157789313Y-160245105D01*
X157523241Y-160245105D01*
X157523241Y-160494050D01*
X157789313Y-160494050D01*
X157789313Y-160970048D01*
X157780612Y-161044970D01*
X157769696Y-161072278D01*
X157755974Y-161092139D01*
X157719429Y-161117968D01*
X157676473Y-161128226D01*
X157534415Y-161142331D01*
X157534415Y-161372500D01*
X157737473Y-161372500D01*
G37*
G36*
X156789343Y-160232406D02*
G01*
X156847208Y-160245655D01*
X156901936Y-160266207D01*
X156951530Y-160291816D01*
X157039640Y-160352541D01*
X157090199Y-160245105D01*
X157351142Y-160245105D01*
X157351142Y-161870205D01*
X157039640Y-161870205D01*
X157039640Y-161314248D01*
X156969068Y-161345131D01*
X156889248Y-161368836D01*
X156806804Y-161383399D01*
X156726857Y-161388162D01*
X156626816Y-161379556D01*
X156548281Y-161355946D01*
X156486705Y-161319285D01*
X156435732Y-161268346D01*
X156394546Y-161203114D01*
X156363332Y-161120807D01*
X156336657Y-160984329D01*
X156326787Y-160809672D01*
X156638197Y-160809672D01*
X156645899Y-160931226D01*
X156664941Y-161008425D01*
X156697593Y-161069576D01*
X156735100Y-161104779D01*
X156780243Y-161124949D01*
X156828248Y-161131615D01*
X156884749Y-161127840D01*
X156941455Y-161116411D01*
X156995300Y-161098338D01*
X157039640Y-161076386D01*
X157039640Y-160541219D01*
X156947042Y-160498812D01*
X156890420Y-160483639D01*
X156826691Y-160478387D01*
X156774558Y-160485948D01*
X156729605Y-160508155D01*
X156693571Y-160545987D01*
X156662835Y-160610828D01*
X156645183Y-160690631D01*
X156638197Y-160809672D01*
X156326787Y-160809672D01*
X156332842Y-160678244D01*
X156349777Y-160566773D01*
X156380156Y-160464595D01*
X156421584Y-160383316D01*
X156477592Y-160316343D01*
X156546606Y-160267820D01*
X156627552Y-160238357D01*
X156726857Y-160227886D01*
X156789343Y-160232406D01*
G37*
G36*
X155712577Y-161385139D02*
G01*
X155826700Y-161381750D01*
X155948791Y-161372500D01*
X156061448Y-161356746D01*
X156148643Y-161334123D01*
X156148643Y-161151582D01*
X155649563Y-161151582D01*
X155577389Y-161144071D01*
X155551898Y-161133107D01*
X155534982Y-161116686D01*
X155524984Y-161094114D01*
X155521152Y-161060449D01*
X155521152Y-161024087D01*
X155528294Y-160986216D01*
X155548629Y-160958874D01*
X155582806Y-160942453D01*
X155649013Y-160935427D01*
X155825692Y-160935427D01*
X155919326Y-160927910D01*
X156000082Y-160906484D01*
X156048531Y-160882744D01*
X156089158Y-160850911D01*
X156122905Y-160810405D01*
X156146906Y-160763447D01*
X156162475Y-160704055D01*
X156168151Y-160629146D01*
X156168151Y-160563750D01*
X156163133Y-160493113D01*
X156149020Y-160433596D01*
X156126752Y-160383316D01*
X156094171Y-160340026D01*
X156048244Y-160303106D01*
X155986160Y-160272491D01*
X155918742Y-160252910D01*
X155830010Y-160239623D01*
X155715142Y-160234664D01*
X155566398Y-160241899D01*
X155417563Y-160260676D01*
X155306371Y-160286138D01*
X155306371Y-160468679D01*
X155778157Y-160468679D01*
X155835098Y-160474419D01*
X155871213Y-160488920D01*
X155894067Y-160515776D01*
X155902812Y-160563750D01*
X155902812Y-160598463D01*
X155898669Y-160631608D01*
X155887883Y-160653235D01*
X155869691Y-160668473D01*
X155841812Y-160678697D01*
X155765700Y-160685383D01*
X155584533Y-160685383D01*
X155497009Y-160691330D01*
X155428418Y-160707508D01*
X155375046Y-160732105D01*
X155333940Y-160764335D01*
X155291668Y-160821424D01*
X155265219Y-160892836D01*
X155255721Y-160982688D01*
X155255721Y-161083530D01*
X155262293Y-161157398D01*
X155280459Y-161216223D01*
X155308936Y-161263140D01*
X155348266Y-161301803D01*
X155399090Y-161333235D01*
X155463725Y-161357204D01*
X155571227Y-161377522D01*
X155712577Y-161385139D01*
G37*
G36*
X155026194Y-161375614D02*
G01*
X155051085Y-161370600D01*
X155064750Y-161357263D01*
X155069791Y-161333482D01*
X155069791Y-161118792D01*
X155064602Y-161093009D01*
X155050799Y-161078857D01*
X155026194Y-161073638D01*
X154846492Y-161073638D01*
X154820798Y-161078939D01*
X154806550Y-161093167D01*
X154801246Y-161118792D01*
X154801246Y-161333482D01*
X154804774Y-161354213D01*
X154813978Y-161366271D01*
X154846492Y-161375614D01*
X155026194Y-161375614D01*
G37*
G36*
X155026194Y-160543234D02*
G01*
X155051085Y-160538220D01*
X155064750Y-160524884D01*
X155069791Y-160501102D01*
X155069791Y-160286413D01*
X155064602Y-160260629D01*
X155050799Y-160246477D01*
X155026194Y-160241258D01*
X154846492Y-160241258D01*
X154820798Y-160246560D01*
X154806550Y-160260787D01*
X154801246Y-160286413D01*
X154801246Y-160501102D01*
X154804774Y-160521834D01*
X154813978Y-160533892D01*
X154846492Y-160543234D01*
X155026194Y-160543234D01*
G37*
G36*
X154701870Y-161523716D02*
G01*
X154111749Y-159755459D01*
X153795485Y-159755459D01*
X154385606Y-161523716D01*
X154701870Y-161523716D01*
G37*
G36*
X154026294Y-161523716D02*
G01*
X153436173Y-159755459D01*
X153119909Y-159755459D01*
X153710030Y-161523716D01*
X154026294Y-161523716D01*
G37*
G36*
X153054422Y-161372500D02*
G01*
X153054422Y-160245105D01*
X152797692Y-160245105D01*
X152742920Y-160359960D01*
X152665979Y-160309238D01*
X152581628Y-160265713D01*
X152522075Y-160244636D01*
X152450946Y-160231089D01*
X152366115Y-160226237D01*
X152296920Y-160231620D01*
X152238909Y-160246764D01*
X152190077Y-160270751D01*
X152127569Y-160321833D01*
X152082640Y-160384598D01*
X151971723Y-160312241D01*
X151905711Y-160278799D01*
X151833971Y-160250967D01*
X151759947Y-160232297D01*
X151688432Y-160226237D01*
X151598997Y-160232725D01*
X151528846Y-160250408D01*
X151474109Y-160277437D01*
X151427137Y-160315996D01*
X151390461Y-160363702D01*
X151363467Y-160421967D01*
X151339804Y-160520132D01*
X151331227Y-160641603D01*
X151331227Y-161372500D01*
X151642637Y-161372500D01*
X151642637Y-160669172D01*
X151648031Y-160617465D01*
X151662695Y-160578588D01*
X151686695Y-160547035D01*
X151718199Y-160524366D01*
X151756077Y-160510756D01*
X151803654Y-160505865D01*
X151866135Y-160512119D01*
X151931057Y-160531510D01*
X151992851Y-160560380D01*
X152046095Y-160594067D01*
X152039409Y-160634184D01*
X152037120Y-160675400D01*
X152037120Y-161372500D01*
X152348529Y-161372500D01*
X152348529Y-160669172D01*
X152353923Y-160617465D01*
X152368588Y-160578588D01*
X152392539Y-160547014D01*
X152423817Y-160524366D01*
X152461446Y-160510762D01*
X152508905Y-160505865D01*
X152595001Y-160516215D01*
X152672212Y-160545249D01*
X152742920Y-160589030D01*
X152742920Y-161372500D01*
X153054422Y-161372500D01*
G37*
G36*
X150767225Y-160235600D02*
G01*
X150880691Y-160248860D01*
X150985165Y-160269718D01*
X151070651Y-160293557D01*
X151070651Y-160472984D01*
X150733595Y-160472984D01*
X150635214Y-160477785D01*
X150576608Y-160489287D01*
X150531542Y-160511159D01*
X150506358Y-160539845D01*
X150492932Y-160577073D01*
X150487948Y-160627315D01*
X150487948Y-160703702D01*
X150775636Y-160703702D01*
X150873108Y-160709961D01*
X150950128Y-160727027D01*
X151010562Y-160752977D01*
X151057553Y-160786866D01*
X151107735Y-160847250D01*
X151137629Y-160916736D01*
X151147953Y-160998258D01*
X151147953Y-161100199D01*
X151138315Y-161185357D01*
X151111255Y-161253726D01*
X151067445Y-161309118D01*
X151009702Y-161350721D01*
X150941356Y-161376190D01*
X150859442Y-161385139D01*
X150790514Y-161381479D01*
X150726085Y-161370759D01*
X150664590Y-161354021D01*
X150611138Y-161333940D01*
X150524035Y-161290159D01*
X150472561Y-161253431D01*
X150422003Y-161372500D01*
X150176447Y-161372500D01*
X150176447Y-161113938D01*
X150487948Y-161113938D01*
X150508281Y-161122181D01*
X150548307Y-161136561D01*
X150600056Y-161151673D01*
X150654644Y-161164221D01*
X150702821Y-161168893D01*
X150769957Y-161157260D01*
X150797329Y-161142250D01*
X150818500Y-161119159D01*
X150831687Y-161089161D01*
X150836544Y-161048267D01*
X150836544Y-161002838D01*
X150826463Y-160947039D01*
X150797892Y-160906484D01*
X150751879Y-160879689D01*
X150676168Y-160864077D01*
X150487948Y-160850980D01*
X150487948Y-161113938D01*
X150176447Y-161113938D01*
X150176447Y-160605882D01*
X150183124Y-160510208D01*
X150201196Y-160436151D01*
X150228562Y-160379286D01*
X150268144Y-160330552D01*
X150318134Y-160292201D01*
X150380237Y-160263698D01*
X150485523Y-160238995D01*
X150620389Y-160230267D01*
X150767225Y-160235600D01*
G37*
G36*
X149906986Y-160079142D02*
G01*
X149931886Y-160074135D01*
X149945547Y-160060823D01*
X149950583Y-160037102D01*
X149950583Y-159831663D01*
X149945394Y-159805880D01*
X149931591Y-159791728D01*
X149906986Y-159786509D01*
X149667292Y-159786509D01*
X149649198Y-159789892D01*
X149637250Y-159799240D01*
X149627359Y-159831663D01*
X149627359Y-160037102D01*
X149632145Y-160061171D01*
X149644817Y-160074316D01*
X149667292Y-160079142D01*
X149906986Y-160079142D01*
G37*
G36*
X149944722Y-161372500D02*
G01*
X149944722Y-160245105D01*
X149633220Y-160245105D01*
X149633220Y-161372500D01*
X149944722Y-161372500D01*
G37*
G36*
X148715569Y-160280459D02*
G01*
X148850300Y-160243640D01*
X148926765Y-160231828D01*
X149004264Y-160227886D01*
X149110489Y-160235667D01*
X149193623Y-160256863D01*
X149258338Y-160289252D01*
X149312653Y-160336093D01*
X149356470Y-160398797D01*
X149389771Y-160480677D01*
X149409966Y-160568350D01*
X149423517Y-160679985D01*
X149428514Y-160820205D01*
X149422644Y-160956339D01*
X149406742Y-161064147D01*
X149382994Y-161148468D01*
X149345943Y-161226701D01*
X149300731Y-161285836D01*
X149247347Y-161329085D01*
X149185018Y-161359371D01*
X149111790Y-161378404D01*
X149025330Y-161385139D01*
X148968121Y-161381107D01*
X148911116Y-161368927D01*
X148855710Y-161349878D01*
X148803314Y-161325330D01*
X148754847Y-161295930D01*
X148715569Y-161265063D01*
X148665011Y-161372500D01*
X148404160Y-161372500D01*
X148404160Y-160504491D01*
X148715569Y-160504491D01*
X148715569Y-161071806D01*
X148801390Y-161114213D01*
X148854406Y-161129331D01*
X148916245Y-161134637D01*
X148984054Y-161127256D01*
X149033207Y-161107435D01*
X149070129Y-161071301D01*
X149097504Y-161008425D01*
X149111381Y-160929176D01*
X149117013Y-160804818D01*
X149110943Y-160672647D01*
X149096130Y-160590312D01*
X149077932Y-160543588D01*
X149055013Y-160510761D01*
X149027620Y-160488829D01*
X148975298Y-160468899D01*
X148902965Y-160461443D01*
X148851858Y-160464998D01*
X148804046Y-160475457D01*
X148715569Y-160504491D01*
X148404160Y-160504491D01*
X148404160Y-159770205D01*
X148715569Y-159770205D01*
X148715569Y-160280459D01*
G37*
G36*
X147839241Y-160235600D02*
G01*
X147952707Y-160248860D01*
X148057182Y-160269718D01*
X148142667Y-160293557D01*
X148142667Y-160472984D01*
X147805612Y-160472984D01*
X147707231Y-160477785D01*
X147648625Y-160489287D01*
X147603559Y-160511159D01*
X147578375Y-160539845D01*
X147564949Y-160577073D01*
X147559965Y-160627315D01*
X147559965Y-160703702D01*
X147847652Y-160703702D01*
X147945125Y-160709961D01*
X148022145Y-160727027D01*
X148082579Y-160752977D01*
X148129570Y-160786866D01*
X148179751Y-160847250D01*
X148209646Y-160916736D01*
X148219970Y-160998258D01*
X148219970Y-161100199D01*
X148210332Y-161185357D01*
X148183272Y-161253726D01*
X148139462Y-161309118D01*
X148081718Y-161350721D01*
X148013373Y-161376190D01*
X147931458Y-161385139D01*
X147862531Y-161381479D01*
X147798102Y-161370759D01*
X147736607Y-161354021D01*
X147683155Y-161333940D01*
X147596052Y-161290159D01*
X147544578Y-161253431D01*
X147494019Y-161372500D01*
X147248464Y-161372500D01*
X147248464Y-161113938D01*
X147559965Y-161113938D01*
X147580298Y-161122181D01*
X147620323Y-161136561D01*
X147672072Y-161151673D01*
X147726661Y-161164221D01*
X147774838Y-161168893D01*
X147841974Y-161157260D01*
X147869346Y-161142250D01*
X147890517Y-161119159D01*
X147903704Y-161089161D01*
X147908561Y-161048267D01*
X147908561Y-161002838D01*
X147898480Y-160947039D01*
X147869909Y-160906484D01*
X147823896Y-160879689D01*
X147748185Y-160864077D01*
X147559965Y-160850980D01*
X147559965Y-161113938D01*
X147248464Y-161113938D01*
X147248464Y-160605882D01*
X147255141Y-160510208D01*
X147273213Y-160436151D01*
X147300579Y-160379286D01*
X147340161Y-160330552D01*
X147390151Y-160292201D01*
X147452254Y-160263698D01*
X147557540Y-160238995D01*
X147692406Y-160230267D01*
X147839241Y-160235600D01*
G37*
G36*
X146731799Y-161372500D02*
G01*
X147109795Y-160245105D01*
X146789135Y-160245105D01*
X146546418Y-161084629D01*
X146295184Y-160245105D01*
X145977638Y-160245105D01*
X146373219Y-161372500D01*
X146731799Y-161372500D01*
G37*
G36*
X145542870Y-160235600D02*
G01*
X145656336Y-160248860D01*
X145760810Y-160269718D01*
X145846296Y-160293557D01*
X145846296Y-160472984D01*
X145509241Y-160472984D01*
X145410859Y-160477785D01*
X145352254Y-160489287D01*
X145307188Y-160511159D01*
X145282003Y-160539845D01*
X145268577Y-160577073D01*
X145263594Y-160627315D01*
X145263594Y-160703702D01*
X145551281Y-160703702D01*
X145648754Y-160709961D01*
X145725774Y-160727027D01*
X145786207Y-160752977D01*
X145833199Y-160786866D01*
X145883380Y-160847250D01*
X145913274Y-160916736D01*
X145923599Y-160998258D01*
X145923599Y-161100199D01*
X145913961Y-161185357D01*
X145886901Y-161253726D01*
X145843090Y-161309118D01*
X145785347Y-161350721D01*
X145717002Y-161376190D01*
X145635087Y-161385139D01*
X145566159Y-161381479D01*
X145501730Y-161370759D01*
X145440236Y-161354021D01*
X145386784Y-161333940D01*
X145299681Y-161290159D01*
X145248206Y-161253431D01*
X145197648Y-161372500D01*
X144952092Y-161372500D01*
X144952092Y-161113938D01*
X145263594Y-161113938D01*
X145283927Y-161122181D01*
X145323952Y-161136561D01*
X145375701Y-161151673D01*
X145430289Y-161164221D01*
X145478466Y-161168893D01*
X145545603Y-161157260D01*
X145572975Y-161142250D01*
X145594146Y-161119159D01*
X145607333Y-161089161D01*
X145612189Y-161048267D01*
X145612189Y-161002838D01*
X145602109Y-160947039D01*
X145573538Y-160906484D01*
X145527524Y-160879689D01*
X145451813Y-160864077D01*
X145263594Y-160850980D01*
X145263594Y-161113938D01*
X144952092Y-161113938D01*
X144952092Y-160605882D01*
X144958770Y-160510208D01*
X144976842Y-160436151D01*
X145004208Y-160379286D01*
X145043790Y-160330552D01*
X145093780Y-160292201D01*
X145155883Y-160263698D01*
X145261169Y-160238995D01*
X145396034Y-160230267D01*
X145542870Y-160235600D01*
G37*
G36*
X144366551Y-161377079D02*
G01*
X144445342Y-161372278D01*
X144510539Y-161358934D01*
X144564387Y-161338244D01*
X144612389Y-161307594D01*
X144651216Y-161267903D01*
X144681716Y-161218077D01*
X144702140Y-161162534D01*
X144715504Y-161093548D01*
X144720367Y-161008333D01*
X144720367Y-159770205D01*
X144408866Y-159770205D01*
X144408866Y-160962355D01*
X144405157Y-161022455D01*
X144395768Y-161062830D01*
X144378838Y-161095540D01*
X144356567Y-161116686D01*
X144328228Y-161130646D01*
X144291996Y-161139950D01*
X144205259Y-161151582D01*
X144205259Y-161377079D01*
X144366551Y-161377079D01*
G37*
G36*
X143723630Y-160234429D02*
G01*
X143820416Y-160252061D01*
X143894765Y-160278353D01*
X143959493Y-160319621D01*
X144011012Y-160377393D01*
X144050287Y-160454665D01*
X144074354Y-160540195D01*
X144090927Y-160656070D01*
X144097181Y-160809672D01*
X144090627Y-160959229D01*
X144073174Y-161073172D01*
X144047631Y-161158360D01*
X144006609Y-161234943D01*
X143953219Y-161292425D01*
X143886339Y-161333573D01*
X143810084Y-161359722D01*
X143712292Y-161377151D01*
X143588210Y-161383582D01*
X143458824Y-161379278D01*
X143356484Y-161367645D01*
X143176050Y-161334123D01*
X143176050Y-161151582D01*
X143505686Y-161151582D01*
X143613595Y-161145136D01*
X143680167Y-161129417D01*
X143730985Y-161099293D01*
X143761867Y-161055869D01*
X143778937Y-160999800D01*
X143788703Y-160919124D01*
X143503671Y-160919124D01*
X143396624Y-160911674D01*
X143310689Y-160891188D01*
X143259552Y-160867803D01*
X143217883Y-160836547D01*
X143184385Y-160797033D01*
X143160723Y-160750810D01*
X143145321Y-160691911D01*
X143139805Y-160618705D01*
X143414278Y-160618705D01*
X143422674Y-160676182D01*
X143443679Y-160708098D01*
X143478417Y-160726074D01*
X143535911Y-160733194D01*
X143791817Y-160733194D01*
X143786495Y-160628482D01*
X143773315Y-160561094D01*
X143747758Y-160507736D01*
X143712499Y-160476098D01*
X143665748Y-160458839D01*
X143599201Y-160452284D01*
X143536037Y-160456680D01*
X143491948Y-160468038D01*
X143456662Y-160489192D01*
X143432871Y-160520336D01*
X143419448Y-160560489D01*
X143414278Y-160618705D01*
X143139805Y-160618705D01*
X143139688Y-160617148D01*
X143145600Y-160515146D01*
X143161407Y-160437481D01*
X143184843Y-160379194D01*
X143220607Y-160328991D01*
X143268422Y-160289901D01*
X143330473Y-160261225D01*
X143439703Y-160237276D01*
X143599201Y-160227886D01*
X143723630Y-160234429D01*
G37*
G36*
X142899537Y-161375614D02*
G01*
X142924427Y-161370600D01*
X142938093Y-161357263D01*
X142943134Y-161333482D01*
X142943134Y-161118792D01*
X142937944Y-161093009D01*
X142924142Y-161078857D01*
X142899537Y-161073638D01*
X142719835Y-161073638D01*
X142694140Y-161078939D01*
X142679892Y-161093167D01*
X142674589Y-161118792D01*
X142674589Y-161333482D01*
X142678117Y-161354213D01*
X142687320Y-161366271D01*
X142719835Y-161375614D01*
X142899537Y-161375614D01*
G37*
G36*
X142094331Y-160234886D02*
G01*
X142198315Y-160253806D01*
X142261547Y-160275957D01*
X142314745Y-160306080D01*
X142359333Y-160344115D01*
X142395624Y-160390201D01*
X142426140Y-160448385D01*
X142450374Y-160520977D01*
X142471296Y-160640931D01*
X142479317Y-160806192D01*
X142471607Y-160963260D01*
X142451198Y-161081057D01*
X142427538Y-161152828D01*
X142397289Y-161211454D01*
X142360890Y-161258927D01*
X142316230Y-161298560D01*
X142263003Y-161330465D01*
X142199872Y-161354639D01*
X142095568Y-161375761D01*
X141961644Y-161383582D01*
X141824783Y-161376131D01*
X141720027Y-161356196D01*
X141656667Y-161332994D01*
X141603664Y-161302075D01*
X141559559Y-161263506D01*
X141523693Y-161217005D01*
X141493819Y-161158729D01*
X141470441Y-161086461D01*
X141450406Y-160967415D01*
X141442781Y-160806192D01*
X141442858Y-160804635D01*
X141754190Y-160804635D01*
X141757658Y-160909952D01*
X141766464Y-160982047D01*
X141783062Y-161043443D01*
X141803558Y-161081515D01*
X141832008Y-161108702D01*
X141867397Y-161124471D01*
X141908513Y-161131880D01*
X141961644Y-161134637D01*
X142014591Y-161131879D01*
X142055525Y-161124471D01*
X142090682Y-161108720D01*
X142119089Y-161081515D01*
X142139477Y-161043449D01*
X142155909Y-160982047D01*
X142164452Y-160909949D01*
X142167816Y-160804635D01*
X142164437Y-160699050D01*
X142155909Y-160627773D01*
X142139497Y-160567313D01*
X142119089Y-160529678D01*
X142090703Y-160502694D01*
X142055525Y-160486997D01*
X142014591Y-160479589D01*
X141961644Y-160476830D01*
X141908513Y-160479588D01*
X141867397Y-160486997D01*
X141831986Y-160502712D01*
X141803558Y-160529678D01*
X141783042Y-160567319D01*
X141766464Y-160627773D01*
X141757673Y-160699047D01*
X141754190Y-160804635D01*
X141442858Y-160804635D01*
X141450840Y-160643685D01*
X141471998Y-160524091D01*
X141496330Y-160451431D01*
X141526696Y-160393251D01*
X141562582Y-160347229D01*
X141606640Y-160309111D01*
X141659668Y-160278457D01*
X141723141Y-160255363D01*
X141827546Y-160235318D01*
X141961644Y-160227886D01*
X142094331Y-160234886D01*
G37*
G36*
X141238441Y-161372500D02*
G01*
X141238441Y-160245105D01*
X140997465Y-160245105D01*
X140926940Y-160417296D01*
X140862028Y-160345274D01*
X140789553Y-160284764D01*
X140735913Y-160254396D01*
X140675558Y-160235863D01*
X140606829Y-160229443D01*
X140561034Y-160231824D01*
X140514963Y-160240525D01*
X140514963Y-160559629D01*
X140581825Y-160552759D01*
X140646763Y-160550103D01*
X140706250Y-160553624D01*
X140757313Y-160563567D01*
X140804869Y-160580257D01*
X140848172Y-160603226D01*
X140888072Y-160632634D01*
X140926940Y-160670454D01*
X140926940Y-161372500D01*
X141238441Y-161372500D01*
G37*
G36*
X140000829Y-160249054D02*
G01*
X140087281Y-160262967D01*
X140157758Y-160284214D01*
X140222790Y-160316626D01*
X140273931Y-160357145D01*
X140313188Y-160406031D01*
X140340828Y-160462577D01*
X140358387Y-160530605D01*
X140364662Y-160612660D01*
X140360381Y-160675907D01*
X140347626Y-160736949D01*
X140325020Y-160794714D01*
X140290931Y-160848690D01*
X140245586Y-160895358D01*
X140184686Y-160935702D01*
X140240599Y-160953863D01*
X140285538Y-160979681D01*
X140321340Y-161013005D01*
X140348118Y-161053594D01*
X140364459Y-161100446D01*
X140370158Y-161155245D01*
X140360238Y-161220141D01*
X140330683Y-161277546D01*
X140278933Y-161329818D01*
X140254102Y-161343819D01*
X140316839Y-161378642D01*
X140375928Y-161434323D01*
X140404708Y-161479132D01*
X140422174Y-161529968D01*
X140428226Y-161588471D01*
X140428226Y-161622360D01*
X140422579Y-161678905D01*
X140406351Y-161727709D01*
X140379775Y-161770371D01*
X140323586Y-161822921D01*
X140247517Y-161862329D01*
X140160365Y-161885432D01*
X140058656Y-161893561D01*
X139720136Y-161893561D01*
X139608628Y-161886409D01*
X139520101Y-161866867D01*
X139450267Y-161837086D01*
X139395629Y-161798123D01*
X139350413Y-161747091D01*
X139317842Y-161687524D01*
X139297547Y-161617730D01*
X139290391Y-161535348D01*
X139290391Y-161519686D01*
X139585405Y-161519686D01*
X139585405Y-161552201D01*
X139590870Y-161590791D01*
X139606298Y-161620897D01*
X139632025Y-161644617D01*
X139683839Y-161667007D01*
X139756956Y-161675391D01*
X139971095Y-161675391D01*
X140043903Y-161666636D01*
X140091629Y-161643884D01*
X140114437Y-161620141D01*
X140128344Y-161590069D01*
X140133303Y-161551652D01*
X140133303Y-161527105D01*
X140128041Y-161487924D01*
X140113245Y-161457313D01*
X140089571Y-161432974D01*
X140057283Y-161414815D01*
X140019770Y-161404199D01*
X139975034Y-161400435D01*
X139748529Y-161400435D01*
X139694030Y-161404404D01*
X139655564Y-161414723D01*
X139623916Y-161432573D01*
X139602716Y-161455298D01*
X139589951Y-161483695D01*
X139585405Y-161519686D01*
X139290391Y-161519686D01*
X139290391Y-161505673D01*
X139296436Y-161425169D01*
X139313105Y-161360515D01*
X139338934Y-161308661D01*
X139375559Y-161263933D01*
X139421545Y-161228019D01*
X139478335Y-161200491D01*
X139574613Y-161175913D01*
X139697879Y-161166878D01*
X140010388Y-161166878D01*
X140046092Y-161163423D01*
X140077616Y-161153414D01*
X140100122Y-161134469D01*
X140107932Y-161103039D01*
X140098805Y-161066033D01*
X140072304Y-161042772D01*
X140033615Y-161030245D01*
X139980987Y-161025553D01*
X139780952Y-161025553D01*
X139682669Y-161019746D01*
X139604924Y-161003945D01*
X139543915Y-160980032D01*
X139488767Y-160945097D01*
X139446168Y-160904135D01*
X139414497Y-160856750D01*
X139384408Y-160775175D01*
X139374013Y-160681262D01*
X139376370Y-160638306D01*
X139654740Y-160638306D01*
X139658287Y-160682466D01*
X139668204Y-160718906D01*
X139686860Y-160749419D01*
X139716839Y-160772761D01*
X139756083Y-160786571D01*
X139815849Y-160791995D01*
X139935283Y-160791995D01*
X139983463Y-160787189D01*
X140019702Y-160774150D01*
X140046841Y-160753893D01*
X140066224Y-160726012D01*
X140079087Y-160686868D01*
X140083936Y-160632718D01*
X140078665Y-160576938D01*
X140064904Y-160538344D01*
X140044368Y-160512276D01*
X139998019Y-160487198D01*
X139925666Y-160477563D01*
X139808521Y-160477563D01*
X139760574Y-160481708D01*
X139723891Y-160492950D01*
X139693955Y-160513158D01*
X139672142Y-160543875D01*
X139659553Y-160582865D01*
X139654740Y-160638306D01*
X139376370Y-160638306D01*
X139377549Y-160616829D01*
X139386836Y-160569521D01*
X139401806Y-160527546D01*
X139418710Y-160495881D01*
X139457544Y-160446789D01*
X139284804Y-160415739D01*
X139284804Y-160244006D01*
X139895441Y-160244006D01*
X140000829Y-160249054D01*
G37*
G36*
X139214920Y-161523716D02*
G01*
X138624798Y-159755459D01*
X138308534Y-159755459D01*
X138898656Y-161523716D01*
X139214920Y-161523716D01*
G37*
G36*
X137681249Y-160232406D02*
G01*
X137739113Y-160245655D01*
X137793841Y-160266207D01*
X137843435Y-160291816D01*
X137931546Y-160352541D01*
X137982104Y-160245105D01*
X138243047Y-160245105D01*
X138243047Y-161870205D01*
X137931546Y-161870205D01*
X137931546Y-161314248D01*
X137860973Y-161345131D01*
X137781153Y-161368836D01*
X137698709Y-161383399D01*
X137618762Y-161388162D01*
X137518721Y-161379556D01*
X137440186Y-161355946D01*
X137378610Y-161319285D01*
X137327637Y-161268346D01*
X137286451Y-161203114D01*
X137255237Y-161120807D01*
X137228562Y-160984329D01*
X137218692Y-160809672D01*
X137530102Y-160809672D01*
X137537804Y-160931226D01*
X137556846Y-161008425D01*
X137589499Y-161069576D01*
X137627005Y-161104779D01*
X137672149Y-161124949D01*
X137720153Y-161131615D01*
X137776654Y-161127840D01*
X137833360Y-161116411D01*
X137887205Y-161098338D01*
X137931546Y-161076386D01*
X137931546Y-160541219D01*
X137838947Y-160498812D01*
X137782325Y-160483639D01*
X137718596Y-160478387D01*
X137666463Y-160485948D01*
X137621510Y-160508155D01*
X137585476Y-160545987D01*
X137554740Y-160610828D01*
X137537088Y-160690631D01*
X137530102Y-160809672D01*
X137218692Y-160809672D01*
X137224747Y-160678244D01*
X137241682Y-160566773D01*
X137272061Y-160464595D01*
X137313489Y-160383316D01*
X137369497Y-160316343D01*
X137438511Y-160267820D01*
X137519457Y-160238357D01*
X137618762Y-160227886D01*
X137681249Y-160232406D01*
G37*
G36*
X137014994Y-161372500D02*
G01*
X137014994Y-160245105D01*
X136774018Y-160245105D01*
X136703493Y-160417296D01*
X136638581Y-160345274D01*
X136566106Y-160284764D01*
X136512465Y-160254396D01*
X136452110Y-160235863D01*
X136383382Y-160229443D01*
X136337586Y-160231824D01*
X136291516Y-160240525D01*
X136291516Y-160559629D01*
X136358377Y-160552759D01*
X136423315Y-160550103D01*
X136482803Y-160553624D01*
X136533866Y-160563567D01*
X136581422Y-160580257D01*
X136624724Y-160603226D01*
X136664624Y-160632634D01*
X136703493Y-160670454D01*
X136703493Y-161372500D01*
X137014994Y-161372500D01*
G37*
G36*
X135775280Y-160234886D02*
G01*
X135879264Y-160253806D01*
X135942496Y-160275957D01*
X135995694Y-160306080D01*
X136040282Y-160344115D01*
X136076574Y-160390201D01*
X136107089Y-160448385D01*
X136131323Y-160520977D01*
X136152245Y-160640931D01*
X136160266Y-160806192D01*
X136152556Y-160963260D01*
X136132147Y-161081057D01*
X136108487Y-161152828D01*
X136078238Y-161211454D01*
X136041839Y-161258927D01*
X135997179Y-161298560D01*
X135943952Y-161330465D01*
X135880822Y-161354639D01*
X135776517Y-161375761D01*
X135642593Y-161383582D01*
X135505732Y-161376131D01*
X135400976Y-161356196D01*
X135337617Y-161332994D01*
X135284613Y-161302075D01*
X135240508Y-161263506D01*
X135204642Y-161217005D01*
X135174768Y-161158729D01*
X135151390Y-161086461D01*
X135131355Y-160967415D01*
X135123730Y-160806192D01*
X135123807Y-160804635D01*
X135435139Y-160804635D01*
X135438607Y-160909952D01*
X135447413Y-160982047D01*
X135464011Y-161043443D01*
X135484507Y-161081515D01*
X135512957Y-161108702D01*
X135548346Y-161124471D01*
X135589462Y-161131880D01*
X135642593Y-161134637D01*
X135695540Y-161131879D01*
X135736474Y-161124471D01*
X135771631Y-161108720D01*
X135800038Y-161081515D01*
X135820426Y-161043449D01*
X135836858Y-160982047D01*
X135845401Y-160909949D01*
X135848765Y-160804635D01*
X135845386Y-160699050D01*
X135836858Y-160627773D01*
X135820446Y-160567313D01*
X135800038Y-160529678D01*
X135771652Y-160502694D01*
X135736474Y-160486997D01*
X135695540Y-160479589D01*
X135642593Y-160476830D01*
X135589462Y-160479588D01*
X135548346Y-160486997D01*
X135512935Y-160502712D01*
X135484507Y-160529678D01*
X135463991Y-160567319D01*
X135447413Y-160627773D01*
X135438622Y-160699047D01*
X135435139Y-160804635D01*
X135123807Y-160804635D01*
X135131790Y-160643685D01*
X135152947Y-160524091D01*
X135177279Y-160451431D01*
X135207645Y-160393251D01*
X135243531Y-160347229D01*
X135287589Y-160309111D01*
X135340617Y-160278457D01*
X135404090Y-160255363D01*
X135508495Y-160235318D01*
X135642593Y-160227886D01*
X135775280Y-160234886D01*
G37*
G36*
X134883120Y-160079142D02*
G01*
X134908080Y-160074131D01*
X134921766Y-160060815D01*
X134926809Y-160037102D01*
X134926809Y-159831663D01*
X134921613Y-159805889D01*
X134907786Y-159791732D01*
X134883120Y-159786509D01*
X134643518Y-159786509D01*
X134625424Y-159789892D01*
X134613476Y-159799240D01*
X134603584Y-159831663D01*
X134603584Y-160037102D01*
X134608370Y-160061171D01*
X134621042Y-160074316D01*
X134643518Y-160079142D01*
X134883120Y-160079142D01*
G37*
G36*
X134919390Y-161870205D02*
G01*
X134919390Y-160245105D01*
X134607889Y-160245105D01*
X134607889Y-161363432D01*
X134612858Y-161496116D01*
X134628039Y-161633717D01*
X134652904Y-161766566D01*
X134683085Y-161870205D01*
X134919390Y-161870205D01*
G37*
G36*
X134029631Y-160234429D02*
G01*
X134126418Y-160252061D01*
X134200767Y-160278353D01*
X134265494Y-160319621D01*
X134317013Y-160377393D01*
X134356288Y-160454665D01*
X134380356Y-160540195D01*
X134396928Y-160656070D01*
X134403183Y-160809672D01*
X134396629Y-160959229D01*
X134379175Y-161073172D01*
X134353632Y-161158360D01*
X134312610Y-161234943D01*
X134259220Y-161292425D01*
X134192340Y-161333573D01*
X134116086Y-161359722D01*
X134018293Y-161377151D01*
X133894211Y-161383582D01*
X133764825Y-161379278D01*
X133662486Y-161367645D01*
X133482051Y-161334123D01*
X133482051Y-161151582D01*
X133811688Y-161151582D01*
X133919596Y-161145136D01*
X133986169Y-161129417D01*
X134036986Y-161099293D01*
X134067868Y-161055869D01*
X134084939Y-160999800D01*
X134094704Y-160919124D01*
X133809673Y-160919124D01*
X133702625Y-160911674D01*
X133616690Y-160891188D01*
X133565553Y-160867803D01*
X133523884Y-160836547D01*
X133490386Y-160797033D01*
X133466724Y-160750810D01*
X133451322Y-160691911D01*
X133445807Y-160618705D01*
X133720280Y-160618705D01*
X133728675Y-160676182D01*
X133749681Y-160708098D01*
X133784418Y-160726074D01*
X133841913Y-160733194D01*
X134097818Y-160733194D01*
X134092497Y-160628482D01*
X134079317Y-160561094D01*
X134053760Y-160507736D01*
X134018500Y-160476098D01*
X133971749Y-160458839D01*
X133905202Y-160452284D01*
X133842039Y-160456680D01*
X133797949Y-160468038D01*
X133762664Y-160489192D01*
X133738873Y-160520336D01*
X133725449Y-160560489D01*
X133720280Y-160618705D01*
X133445807Y-160618705D01*
X133445690Y-160617148D01*
X133451601Y-160515146D01*
X133467408Y-160437481D01*
X133490844Y-160379194D01*
X133526608Y-160328991D01*
X133574423Y-160289901D01*
X133636474Y-160261225D01*
X133745704Y-160237276D01*
X133905202Y-160227886D01*
X134029631Y-160234429D01*
G37*
G36*
X132803270Y-161385139D02*
G01*
X132903328Y-161378137D01*
X132992772Y-161357937D01*
X133073933Y-161321421D01*
X133143165Y-161266712D01*
X133180772Y-161221003D01*
X133213660Y-161163424D01*
X133241442Y-161091864D01*
X133266687Y-160973621D01*
X133276246Y-160813886D01*
X133267353Y-160648753D01*
X133244006Y-160527572D01*
X133217846Y-160453948D01*
X133186480Y-160394998D01*
X133150400Y-160348420D01*
X133106545Y-160309209D01*
X133056320Y-160278399D01*
X132998817Y-160255730D01*
X132904999Y-160235599D01*
X132794111Y-160228435D01*
X132693556Y-160231393D01*
X132598381Y-160240068D01*
X132503452Y-160255441D01*
X132401368Y-160279452D01*
X132401368Y-160458970D01*
X132697299Y-160458970D01*
X132788826Y-160466904D01*
X132853096Y-160487638D01*
X132887623Y-160511112D01*
X132915946Y-160545253D01*
X132938275Y-160592418D01*
X132957086Y-160676991D01*
X132964745Y-160811504D01*
X132957015Y-160944615D01*
X132938184Y-161026652D01*
X132915817Y-161071632D01*
X132887423Y-161103613D01*
X132852638Y-161124929D01*
X132788122Y-161143001D01*
X132694277Y-161150025D01*
X132386073Y-161150025D01*
X132386073Y-161326429D01*
X132506973Y-161356288D01*
X132653427Y-161377629D01*
X132803270Y-161385139D01*
G37*
G36*
X131784228Y-161372500D02*
G01*
X131870645Y-161367719D01*
X131940028Y-161354639D01*
X131995345Y-161334764D01*
X132044057Y-161304208D01*
X132082620Y-161262843D01*
X132111941Y-161209009D01*
X132130179Y-161149082D01*
X132141666Y-161071295D01*
X132144456Y-160971605D01*
X132134106Y-160494050D01*
X132310144Y-160494050D01*
X132310144Y-160294564D01*
X132122932Y-160245105D01*
X132081624Y-159929116D01*
X131836068Y-159929116D01*
X131836068Y-160245105D01*
X131569996Y-160245105D01*
X131569996Y-160494050D01*
X131836068Y-160494050D01*
X131836068Y-160970048D01*
X131827367Y-161044970D01*
X131816452Y-161072278D01*
X131802729Y-161092139D01*
X131766184Y-161117968D01*
X131723228Y-161128226D01*
X131581170Y-161142331D01*
X131581170Y-161372500D01*
X131784228Y-161372500D01*
G37*
G36*
X130987386Y-161385139D02*
G01*
X131101508Y-161381750D01*
X131223599Y-161372500D01*
X131336256Y-161356746D01*
X131423451Y-161334123D01*
X131423451Y-161151582D01*
X130924371Y-161151582D01*
X130852197Y-161144071D01*
X130826706Y-161133107D01*
X130809790Y-161116686D01*
X130799792Y-161094114D01*
X130795960Y-161060449D01*
X130795960Y-161024087D01*
X130803102Y-160986216D01*
X130823438Y-160958874D01*
X130857614Y-160942453D01*
X130923821Y-160935427D01*
X131100501Y-160935427D01*
X131194135Y-160927910D01*
X131274890Y-160906484D01*
X131323339Y-160882744D01*
X131363966Y-160850911D01*
X131397714Y-160810405D01*
X131421714Y-160763447D01*
X131437283Y-160704055D01*
X131442960Y-160629146D01*
X131442960Y-160563750D01*
X131437941Y-160493113D01*
X131423828Y-160433596D01*
X131401560Y-160383316D01*
X131368979Y-160340026D01*
X131323053Y-160303106D01*
X131260968Y-160272491D01*
X131193550Y-160252910D01*
X131104818Y-160239623D01*
X130989950Y-160234664D01*
X130841206Y-160241899D01*
X130692371Y-160260676D01*
X130581179Y-160286138D01*
X130581179Y-160468679D01*
X131052965Y-160468679D01*
X131109906Y-160474419D01*
X131146021Y-160488920D01*
X131168875Y-160515776D01*
X131177620Y-160563750D01*
X131177620Y-160598463D01*
X131173478Y-160631608D01*
X131162691Y-160653235D01*
X131144499Y-160668473D01*
X131116621Y-160678697D01*
X131040508Y-160685383D01*
X130859341Y-160685383D01*
X130771818Y-160691330D01*
X130703226Y-160707508D01*
X130649855Y-160732105D01*
X130608748Y-160764335D01*
X130566476Y-160821424D01*
X130540027Y-160892836D01*
X130530529Y-160982688D01*
X130530529Y-161083530D01*
X130537101Y-161157398D01*
X130555267Y-161216223D01*
X130583744Y-161263140D01*
X130623074Y-161301803D01*
X130673898Y-161333235D01*
X130738533Y-161357204D01*
X130846036Y-161377522D01*
X130987386Y-161385139D01*
G37*
G36*
X130466141Y-161523716D02*
G01*
X129876020Y-159755459D01*
X129559756Y-159755459D01*
X130149877Y-161523716D01*
X130466141Y-161523716D01*
G37*
G36*
X129494268Y-161372500D02*
G01*
X129494268Y-160245105D01*
X129253292Y-160245105D01*
X129182767Y-160417296D01*
X129117855Y-160345274D01*
X129045380Y-160284764D01*
X128991739Y-160254396D01*
X128931385Y-160235863D01*
X128862656Y-160229443D01*
X128816860Y-160231824D01*
X128770790Y-160240525D01*
X128770790Y-160559629D01*
X128837652Y-160552759D01*
X128902590Y-160550103D01*
X128962077Y-160553624D01*
X129013140Y-160563567D01*
X129060696Y-160580257D01*
X129103998Y-160603226D01*
X129143899Y-160632634D01*
X129182767Y-160670454D01*
X129182767Y-161372500D01*
X129494268Y-161372500D01*
G37*
G36*
X128166564Y-161385139D02*
G01*
X128266622Y-161378137D01*
X128356066Y-161357937D01*
X128437227Y-161321421D01*
X128506458Y-161266712D01*
X128544066Y-161221003D01*
X128576954Y-161163424D01*
X128604736Y-161091864D01*
X128629980Y-160973621D01*
X128639540Y-160813886D01*
X128630646Y-160648753D01*
X128607300Y-160527572D01*
X128581140Y-160453948D01*
X128549774Y-160394998D01*
X128513694Y-160348420D01*
X128469838Y-160309209D01*
X128419614Y-160278399D01*
X128362111Y-160255730D01*
X128268293Y-160235599D01*
X128157405Y-160228435D01*
X128056850Y-160231393D01*
X127961675Y-160240068D01*
X127866746Y-160255441D01*
X127764662Y-160279452D01*
X127764662Y-160458970D01*
X128060593Y-160458970D01*
X128152119Y-160466904D01*
X128216389Y-160487638D01*
X128250917Y-160511112D01*
X128279240Y-160545253D01*
X128301569Y-160592418D01*
X128320380Y-160676991D01*
X128328039Y-160811504D01*
X128320309Y-160944615D01*
X128301478Y-161026652D01*
X128279110Y-161071632D01*
X128250716Y-161103613D01*
X128215931Y-161124929D01*
X128151416Y-161143001D01*
X128057570Y-161150025D01*
X127749367Y-161150025D01*
X127749367Y-161326429D01*
X127870267Y-161356288D01*
X128016721Y-161377629D01*
X128166564Y-161385139D01*
G37*
G36*
X127577450Y-161372500D02*
G01*
X127316507Y-161372500D01*
X127265949Y-161265063D01*
X127176281Y-161324414D01*
X127126989Y-161348822D01*
X127070585Y-161368469D01*
X127009827Y-161380757D01*
X126937870Y-161385139D01*
X126851640Y-161377650D01*
X126780140Y-161356605D01*
X126720524Y-161323132D01*
X126670286Y-161276648D01*
X126628120Y-161215070D01*
X126594220Y-161135370D01*
X126572524Y-161050467D01*
X126558269Y-160946517D01*
X126553096Y-160820205D01*
X126553656Y-160804818D01*
X126864505Y-160804818D01*
X126871587Y-160924116D01*
X126889326Y-161002472D01*
X126920182Y-161065654D01*
X126956463Y-161102672D01*
X127001627Y-161124226D01*
X127054557Y-161131615D01*
X127120701Y-161127027D01*
X127174816Y-161114304D01*
X127265949Y-161076386D01*
X127265949Y-160541219D01*
X127170694Y-160497896D01*
X127115056Y-160483350D01*
X127054557Y-160478387D01*
X127005779Y-160483817D01*
X126960859Y-160499911D01*
X126923592Y-160530796D01*
X126890975Y-160590312D01*
X126872356Y-160668962D01*
X126864505Y-160804818D01*
X126553656Y-160804818D01*
X126558251Y-160678504D01*
X126572200Y-160566280D01*
X126592938Y-160478662D01*
X126626540Y-160396543D01*
X126669145Y-160334279D01*
X126720524Y-160288336D01*
X126781811Y-160256103D01*
X126858136Y-160235386D01*
X126953165Y-160227886D01*
X127030124Y-160235005D01*
X127114640Y-160257561D01*
X127196714Y-160289601D01*
X127265949Y-160323324D01*
X127265949Y-159770205D01*
X127577450Y-159770205D01*
X127577450Y-161372500D01*
G37*
G36*
X126029469Y-161385139D02*
G01*
X126104795Y-161378964D01*
X126168135Y-161361541D01*
X126221682Y-161333798D01*
X126267057Y-161295655D01*
X126312861Y-161230991D01*
X126341896Y-161148554D01*
X126352420Y-161043230D01*
X126352420Y-160245105D01*
X126041010Y-160245105D01*
X126041010Y-160949532D01*
X126034974Y-161011214D01*
X126019519Y-161051720D01*
X125996771Y-161077301D01*
X125947174Y-161101212D01*
X125877154Y-161110091D01*
X125819081Y-161104707D01*
X125756894Y-161087834D01*
X125697502Y-161061539D01*
X125646527Y-161028667D01*
X125646527Y-160245105D01*
X125335118Y-160245105D01*
X125335118Y-161372500D01*
X125591756Y-161372500D01*
X125646527Y-161257644D01*
X125726815Y-161303706D01*
X125821466Y-161346213D01*
X125922202Y-161375323D01*
X126029469Y-161385139D01*
G37*
G36*
X124690316Y-161385139D02*
G01*
X124804439Y-161381750D01*
X124926530Y-161372500D01*
X125039187Y-161356746D01*
X125126382Y-161334123D01*
X125126382Y-161151582D01*
X124627302Y-161151582D01*
X124555128Y-161144071D01*
X124529637Y-161133107D01*
X124512721Y-161116686D01*
X124502723Y-161094114D01*
X124498891Y-161060449D01*
X124498891Y-161024087D01*
X124506033Y-160986216D01*
X124526368Y-160958874D01*
X124560545Y-160942453D01*
X124626752Y-160935427D01*
X124803431Y-160935427D01*
X124897066Y-160927910D01*
X124977821Y-160906484D01*
X125026270Y-160882744D01*
X125066897Y-160850911D01*
X125100644Y-160810405D01*
X125124645Y-160763447D01*
X125140214Y-160704055D01*
X125145890Y-160629146D01*
X125145890Y-160563750D01*
X125140872Y-160493113D01*
X125126759Y-160433596D01*
X125104491Y-160383316D01*
X125071910Y-160340026D01*
X125025983Y-160303106D01*
X124963899Y-160272491D01*
X124896481Y-160252910D01*
X124807749Y-160239623D01*
X124692881Y-160234664D01*
X124544137Y-160241899D01*
X124395302Y-160260676D01*
X124284110Y-160286138D01*
X124284110Y-160468679D01*
X124755896Y-160468679D01*
X124812837Y-160474419D01*
X124848952Y-160488920D01*
X124871806Y-160515776D01*
X124880551Y-160563750D01*
X124880551Y-160598463D01*
X124876408Y-160631608D01*
X124865622Y-160653235D01*
X124847430Y-160668473D01*
X124819551Y-160678697D01*
X124743439Y-160685383D01*
X124562272Y-160685383D01*
X124474748Y-160691330D01*
X124406157Y-160707508D01*
X124352785Y-160732105D01*
X124311679Y-160764335D01*
X124269407Y-160821424D01*
X124242958Y-160892836D01*
X124233460Y-160982688D01*
X124233460Y-161083530D01*
X124240032Y-161157398D01*
X124258198Y-161216223D01*
X124286675Y-161263140D01*
X124326005Y-161301803D01*
X124376829Y-161333235D01*
X124441464Y-161357204D01*
X124548966Y-161377522D01*
X124690316Y-161385139D01*
G37*
G36*
X124114209Y-160888532D02*
G01*
X124114209Y-160638489D01*
X123471789Y-160638489D01*
X123471789Y-160888532D01*
X124114209Y-160888532D01*
G37*
G36*
X122955462Y-160234886D02*
G01*
X123059446Y-160253806D01*
X123122677Y-160275957D01*
X123175876Y-160306080D01*
X123220463Y-160344115D01*
X123256755Y-160390201D01*
X123287271Y-160448385D01*
X123311505Y-160520977D01*
X123332427Y-160640931D01*
X123340447Y-160806192D01*
X123332737Y-160963260D01*
X123312329Y-161081057D01*
X123288668Y-161152828D01*
X123258420Y-161211454D01*
X123222020Y-161258927D01*
X123177361Y-161298560D01*
X123124134Y-161330465D01*
X123061003Y-161354639D01*
X122956699Y-161375761D01*
X122822775Y-161383582D01*
X122685914Y-161376131D01*
X122581157Y-161356196D01*
X122517798Y-161332994D01*
X122464795Y-161302075D01*
X122420690Y-161263506D01*
X122384823Y-161217005D01*
X122354949Y-161158729D01*
X122331572Y-161086461D01*
X122311536Y-160967415D01*
X122303911Y-160806192D01*
X122303988Y-160804635D01*
X122615321Y-160804635D01*
X122618788Y-160909952D01*
X122627594Y-160982047D01*
X122644193Y-161043443D01*
X122664688Y-161081515D01*
X122693138Y-161108702D01*
X122728527Y-161124471D01*
X122769643Y-161131880D01*
X122822775Y-161134637D01*
X122875722Y-161131879D01*
X122916655Y-161124471D01*
X122951812Y-161108720D01*
X122980220Y-161081515D01*
X123000608Y-161043449D01*
X123017039Y-160982047D01*
X123025582Y-160909949D01*
X123028946Y-160804635D01*
X123025568Y-160699050D01*
X123017039Y-160627773D01*
X123000628Y-160567313D01*
X122980220Y-160529678D01*
X122951834Y-160502694D01*
X122916655Y-160486997D01*
X122875722Y-160479589D01*
X122822775Y-160476830D01*
X122769643Y-160479588D01*
X122728527Y-160486997D01*
X122693117Y-160502712D01*
X122664688Y-160529678D01*
X122644173Y-160567319D01*
X122627594Y-160627773D01*
X122618803Y-160699047D01*
X122615321Y-160804635D01*
X122303988Y-160804635D01*
X122311971Y-160643685D01*
X122333129Y-160524091D01*
X122357460Y-160451431D01*
X122387827Y-160393251D01*
X122423712Y-160347229D01*
X122467770Y-160309111D01*
X122520799Y-160278457D01*
X122584271Y-160255363D01*
X122688676Y-160235318D01*
X122822775Y-160227886D01*
X122955462Y-160234886D01*
G37*
G36*
X121537773Y-160232406D02*
G01*
X121595637Y-160245655D01*
X121650366Y-160266207D01*
X121699960Y-160291816D01*
X121788070Y-160352541D01*
X121838629Y-160245105D01*
X122099572Y-160245105D01*
X122099572Y-161870205D01*
X121788070Y-161870205D01*
X121788070Y-161314248D01*
X121717498Y-161345131D01*
X121637678Y-161368836D01*
X121555234Y-161383399D01*
X121475287Y-161388162D01*
X121375245Y-161379556D01*
X121296711Y-161355946D01*
X121235135Y-161319285D01*
X121184162Y-161268346D01*
X121142976Y-161203114D01*
X121111762Y-161120807D01*
X121085087Y-160984329D01*
X121075217Y-160809672D01*
X121386627Y-160809672D01*
X121394329Y-160931226D01*
X121413371Y-161008425D01*
X121446023Y-161069576D01*
X121483530Y-161104779D01*
X121528673Y-161124949D01*
X121576678Y-161131615D01*
X121633179Y-161127840D01*
X121689885Y-161116411D01*
X121743730Y-161098338D01*
X121788070Y-161076386D01*
X121788070Y-160541219D01*
X121695472Y-160498812D01*
X121638850Y-160483639D01*
X121575121Y-160478387D01*
X121522988Y-160485948D01*
X121478035Y-160508155D01*
X121442001Y-160545987D01*
X121411265Y-160610828D01*
X121393613Y-160690631D01*
X121386627Y-160809672D01*
X121075217Y-160809672D01*
X121081272Y-160678244D01*
X121098206Y-160566773D01*
X121128586Y-160464595D01*
X121170014Y-160383316D01*
X121226022Y-160316343D01*
X121295036Y-160267820D01*
X121375982Y-160238357D01*
X121475287Y-160227886D01*
X121537773Y-160232406D01*
G37*
G36*
X120517702Y-161377079D02*
G01*
X120596494Y-161372278D01*
X120661691Y-161358934D01*
X120715539Y-161338244D01*
X120763541Y-161307594D01*
X120802367Y-161267903D01*
X120832867Y-161218077D01*
X120853292Y-161162534D01*
X120866656Y-161093548D01*
X120871519Y-161008333D01*
X120871519Y-159770205D01*
X120560017Y-159770205D01*
X120560017Y-160962355D01*
X120556309Y-161022455D01*
X120546920Y-161062830D01*
X120529990Y-161095540D01*
X120507719Y-161116686D01*
X120479380Y-161130646D01*
X120443147Y-161139950D01*
X120356410Y-161151582D01*
X120356410Y-161377079D01*
X120517702Y-161377079D01*
G37*
G36*
X119659769Y-161385139D02*
G01*
X119825331Y-161382159D01*
X119979330Y-161373507D01*
X120127793Y-161358943D01*
X120254561Y-161340259D01*
X120254561Y-161091681D01*
X119777555Y-161091681D01*
X119696025Y-161088174D01*
X119636962Y-161079042D01*
X119587183Y-161060730D01*
X119555263Y-161034803D01*
X119536082Y-160998618D01*
X119528885Y-160945319D01*
X119528885Y-160880564D01*
X119536210Y-160828899D01*
X119556271Y-160791721D01*
X119587733Y-160763553D01*
X119629544Y-160743544D01*
X119677126Y-160731811D01*
X119732950Y-160726233D01*
X120115709Y-160710021D01*
X120115709Y-160471793D01*
X119746689Y-160451460D01*
X119657257Y-160438738D01*
X119599135Y-160416472D01*
X119570908Y-160392852D01*
X119553658Y-160360276D01*
X119547386Y-160315630D01*
X119547386Y-160262874D01*
X119554092Y-160210808D01*
X119572704Y-160171096D01*
X119602982Y-160140691D01*
X119642426Y-160120521D01*
X119701838Y-160106306D01*
X119788271Y-160100758D01*
X120221130Y-160100758D01*
X120221130Y-159852179D01*
X119960004Y-159818199D01*
X119817082Y-159807441D01*
X119663524Y-159805834D01*
X119573556Y-159812033D01*
X119497276Y-159827548D01*
X119432623Y-159851263D01*
X119373748Y-159885596D01*
X119326124Y-159928322D01*
X119288458Y-159980040D01*
X119261802Y-160038597D01*
X119244970Y-160107582D01*
X119238999Y-160189143D01*
X119238999Y-160304914D01*
X119242824Y-160363388D01*
X119253562Y-160412717D01*
X119271362Y-160457638D01*
X119294687Y-160495423D01*
X119323715Y-160527971D01*
X119356969Y-160554408D01*
X119393914Y-160575299D01*
X119433997Y-160590861D01*
X119391421Y-160606818D01*
X119350832Y-160631436D01*
X119314305Y-160663014D01*
X119281772Y-160701595D01*
X119255168Y-160745926D01*
X119233962Y-160799323D01*
X119220867Y-160857332D01*
X119216285Y-160923612D01*
X119216285Y-161003662D01*
X119224394Y-161095338D01*
X119247194Y-161171302D01*
X119283504Y-161234611D01*
X119333704Y-161287411D01*
X119394385Y-161328209D01*
X119467274Y-161358674D01*
X119554757Y-161378163D01*
X119659769Y-161385139D01*
G37*
G36*
X119086867Y-161523716D02*
G01*
X118496745Y-159755459D01*
X118180481Y-159755459D01*
X118770603Y-161523716D01*
X119086867Y-161523716D01*
G37*
G36*
X87842560Y-158375139D02*
G01*
X87973255Y-158366819D01*
X88081887Y-158343632D01*
X88147780Y-158316817D01*
X88206229Y-158278662D01*
X88258200Y-158228410D01*
X88299852Y-158169023D01*
X88336615Y-158090339D01*
X88367468Y-157988075D01*
X88386782Y-157882735D01*
X88399773Y-157748636D01*
X88404563Y-157580495D01*
X88399628Y-157419611D01*
X88386168Y-157289659D01*
X88366003Y-157186012D01*
X88334258Y-157085383D01*
X88296558Y-157006781D01*
X88253804Y-156946410D01*
X88200916Y-156894986D01*
X88141714Y-156855680D01*
X88075293Y-156827708D01*
X87966181Y-156803023D01*
X87838072Y-156794277D01*
X87734961Y-156797235D01*
X87641701Y-156805726D01*
X87476654Y-156833203D01*
X87352731Y-156867001D01*
X87352731Y-157107885D01*
X87455038Y-157092223D01*
X87600851Y-157079125D01*
X87773134Y-157073905D01*
X87857343Y-157079111D01*
X87922427Y-157093139D01*
X87977757Y-157120859D01*
X88021254Y-157166045D01*
X88051911Y-157226930D01*
X88075842Y-157320285D01*
X88088294Y-157428580D01*
X88093153Y-157583517D01*
X88088980Y-157732646D01*
X88078132Y-157840430D01*
X88056515Y-157934384D01*
X88027666Y-157996502D01*
X87985499Y-158043324D01*
X87929938Y-158073621D01*
X87863331Y-158089500D01*
X87772859Y-158095512D01*
X87513565Y-158089100D01*
X87352731Y-158073713D01*
X87352731Y-158314689D01*
X87482699Y-158346746D01*
X87644448Y-158367537D01*
X87842560Y-158375139D01*
G37*
G36*
X86633558Y-158375139D02*
G01*
X86764253Y-158366819D01*
X86872885Y-158343632D01*
X86938778Y-158316817D01*
X86997227Y-158278662D01*
X87049198Y-158228410D01*
X87090850Y-158169023D01*
X87127613Y-158090339D01*
X87158466Y-157988075D01*
X87177780Y-157882735D01*
X87190771Y-157748636D01*
X87195561Y-157580495D01*
X87190626Y-157419611D01*
X87177166Y-157289659D01*
X87157001Y-157186012D01*
X87125256Y-157085383D01*
X87087556Y-157006781D01*
X87044802Y-156946410D01*
X86991914Y-156894986D01*
X86932712Y-156855680D01*
X86866291Y-156827708D01*
X86757179Y-156803023D01*
X86629070Y-156794277D01*
X86525959Y-156797235D01*
X86432699Y-156805726D01*
X86267652Y-156833203D01*
X86143729Y-156867001D01*
X86143729Y-157107885D01*
X86246036Y-157092223D01*
X86391849Y-157079125D01*
X86564132Y-157073905D01*
X86648341Y-157079111D01*
X86713425Y-157093139D01*
X86768755Y-157120859D01*
X86812252Y-157166045D01*
X86842909Y-157226930D01*
X86866840Y-157320285D01*
X86879292Y-157428580D01*
X86884151Y-157583517D01*
X86879978Y-157732646D01*
X86869130Y-157840430D01*
X86847513Y-157934384D01*
X86818663Y-157996502D01*
X86776497Y-158043324D01*
X86720936Y-158073621D01*
X86654329Y-158089500D01*
X86563857Y-158095512D01*
X86304563Y-158089100D01*
X86143729Y-158073713D01*
X86143729Y-158314689D01*
X86273697Y-158346746D01*
X86435446Y-158367537D01*
X86633558Y-158375139D01*
G37*
G36*
X85385904Y-158362500D02*
G01*
X84747148Y-158362500D01*
X84647328Y-158357420D01*
X84563151Y-158343228D01*
X84492342Y-158321192D01*
X84427751Y-158287350D01*
X84375534Y-158242559D01*
X84334164Y-158185912D01*
X84305823Y-158120979D01*
X84287219Y-158038432D01*
X84280400Y-157934128D01*
X84284317Y-157879265D01*
X84576514Y-157879265D01*
X84582638Y-157948584D01*
X84598679Y-157997418D01*
X84625614Y-158036346D01*
X84660686Y-158062447D01*
X84703196Y-158077475D01*
X84756399Y-158082872D01*
X85074495Y-158082872D01*
X85074495Y-157687931D01*
X84756399Y-157687931D01*
X84705328Y-157693915D01*
X84662701Y-157711012D01*
X84626970Y-157738723D01*
X84599503Y-157776591D01*
X84582580Y-157822152D01*
X84576514Y-157879265D01*
X84284317Y-157879265D01*
X84286354Y-157850732D01*
X84302932Y-157781995D01*
X84329866Y-157720128D01*
X84363656Y-157669796D01*
X84404784Y-157627569D01*
X84449660Y-157595791D01*
X84498264Y-157571754D01*
X84546930Y-157555307D01*
X84484371Y-157531205D01*
X84431892Y-157493300D01*
X84389791Y-157442889D01*
X84357428Y-157378537D01*
X84337944Y-157305357D01*
X84335170Y-157270001D01*
X84627072Y-157270001D01*
X84638247Y-157344194D01*
X84667006Y-157399786D01*
X84695863Y-157427481D01*
X84730642Y-157444016D01*
X84773252Y-157449795D01*
X85074495Y-157449795D01*
X85074495Y-157088010D01*
X84777190Y-157088010D01*
X84718508Y-157098044D01*
X84669845Y-157127577D01*
X84647178Y-157157284D01*
X84632126Y-157202683D01*
X84627072Y-157270001D01*
X84335170Y-157270001D01*
X84330958Y-157216329D01*
X84338444Y-157118894D01*
X84359406Y-157038006D01*
X84392433Y-156970678D01*
X84437296Y-156914628D01*
X84493084Y-156871172D01*
X84565094Y-156838073D01*
X84657176Y-156816351D01*
X84774168Y-156808382D01*
X85385904Y-156808382D01*
X85385904Y-158362500D01*
G37*
G36*
X83700903Y-158362500D02*
G01*
X83700903Y-157891721D01*
X84168201Y-156808382D01*
X83844885Y-156808382D01*
X83539062Y-157574725D01*
X83233148Y-156808382D01*
X82922196Y-156808382D01*
X83389402Y-157891721D01*
X83389402Y-158362500D01*
X83700903Y-158362500D01*
G37*
G36*
X82924211Y-157878532D02*
G01*
X82924211Y-157628489D01*
X82281791Y-157628489D01*
X82281791Y-157878532D01*
X82924211Y-157878532D01*
G37*
G36*
X81632869Y-158375139D02*
G01*
X81758165Y-158371475D01*
X81888683Y-158360576D01*
X82013246Y-158344456D01*
X82121232Y-158323207D01*
X82121232Y-158077743D01*
X81977618Y-158087360D01*
X81811563Y-158093405D01*
X81648256Y-158095512D01*
X81571514Y-158091858D01*
X81510778Y-158081956D01*
X81457851Y-158062448D01*
X81420835Y-158034237D01*
X81397528Y-157994895D01*
X81388962Y-157938158D01*
X81388962Y-157881372D01*
X81394039Y-157836624D01*
X81408084Y-157802006D01*
X81430544Y-157775126D01*
X81478120Y-157748584D01*
X81546773Y-157738764D01*
X81680038Y-157738764D01*
X81792780Y-157731628D01*
X81885025Y-157711871D01*
X81960294Y-157681340D01*
X82021490Y-157640945D01*
X82070161Y-157588202D01*
X82106984Y-157518410D01*
X82131176Y-157427294D01*
X82140100Y-157309202D01*
X82140100Y-157232540D01*
X82130743Y-157120079D01*
X82104901Y-157030194D01*
X82064595Y-156958348D01*
X82009949Y-156901256D01*
X81942946Y-156857702D01*
X81860788Y-156824792D01*
X81760385Y-156803513D01*
X81637998Y-156795834D01*
X81465990Y-156804169D01*
X81302500Y-156824411D01*
X81167769Y-156849415D01*
X81167769Y-157094879D01*
X81381726Y-157081232D01*
X81601178Y-157075462D01*
X81671743Y-157079123D01*
X81729314Y-157089200D01*
X81779122Y-157109419D01*
X81814311Y-157140308D01*
X81835787Y-157183114D01*
X81843986Y-157247928D01*
X81843986Y-157289235D01*
X81838033Y-157342022D01*
X81822040Y-157380072D01*
X81797092Y-157407205D01*
X81763915Y-157425796D01*
X81719660Y-157438082D01*
X81661170Y-157442650D01*
X81506839Y-157442650D01*
X81414883Y-157449038D01*
X81338775Y-157466847D01*
X81275755Y-157494674D01*
X81219334Y-157533952D01*
X81173953Y-157581008D01*
X81138552Y-157636549D01*
X81113564Y-157697953D01*
X81098171Y-157765849D01*
X81092848Y-157841438D01*
X81092848Y-157930464D01*
X81101684Y-158050378D01*
X81125398Y-158141093D01*
X81161083Y-158208993D01*
X81212019Y-158266159D01*
X81274438Y-158309717D01*
X81350310Y-158340334D01*
X81476862Y-158365863D01*
X81632869Y-158375139D01*
G37*
G36*
X80964346Y-158362500D02*
G01*
X80644143Y-158362500D01*
X80547057Y-158037351D01*
X80017843Y-158037351D01*
X79918742Y-158362500D01*
X79595425Y-158362500D01*
X79785718Y-157757724D01*
X80092032Y-157757724D01*
X80474059Y-157757724D01*
X80282908Y-157075370D01*
X80092032Y-157757724D01*
X79785718Y-157757724D01*
X80084430Y-156808382D01*
X80475341Y-156808382D01*
X80964346Y-158362500D01*
G37*
G36*
X88380474Y-160882500D02*
G01*
X88380474Y-159281762D01*
X88068973Y-159281762D01*
X88068973Y-159869960D01*
X88002512Y-159823743D01*
X87910704Y-159778003D01*
X87811091Y-159746567D01*
X87710577Y-159736237D01*
X87626307Y-159742558D01*
X87559430Y-159759896D01*
X87506512Y-159786612D01*
X87460829Y-159824391D01*
X87424459Y-159870894D01*
X87396878Y-159927388D01*
X87372047Y-160022014D01*
X87363172Y-160136215D01*
X87363172Y-160882500D01*
X87674582Y-160882500D01*
X87674582Y-160176149D01*
X87680143Y-160125791D01*
X87695465Y-160087031D01*
X87720154Y-160055639D01*
X87752160Y-160033542D01*
X87789993Y-160020461D01*
X87834958Y-160015865D01*
X87920779Y-160027039D01*
X87998540Y-160056806D01*
X88068973Y-160099030D01*
X88068973Y-160882500D01*
X88380474Y-160882500D01*
G37*
G36*
X86701976Y-160882500D02*
G01*
X86788393Y-160877719D01*
X86857776Y-160864639D01*
X86913094Y-160844764D01*
X86961806Y-160814208D01*
X87000369Y-160772843D01*
X87029689Y-160719009D01*
X87047928Y-160659082D01*
X87059414Y-160581295D01*
X87062204Y-160481605D01*
X87051854Y-160004050D01*
X87227892Y-160004050D01*
X87227892Y-159804564D01*
X87040680Y-159755105D01*
X86999373Y-159439116D01*
X86753817Y-159439116D01*
X86753817Y-159755105D01*
X86487745Y-159755105D01*
X86487745Y-160004050D01*
X86753817Y-160004050D01*
X86753817Y-160480048D01*
X86745116Y-160554970D01*
X86734200Y-160582278D01*
X86720478Y-160602139D01*
X86683933Y-160627968D01*
X86640977Y-160638226D01*
X86498919Y-160652331D01*
X86498919Y-160882500D01*
X86701976Y-160882500D01*
G37*
G36*
X85885717Y-160882500D02*
G01*
X85972134Y-160877719D01*
X86041517Y-160864639D01*
X86096834Y-160844764D01*
X86145546Y-160814208D01*
X86184109Y-160772843D01*
X86213430Y-160719009D01*
X86231668Y-160659082D01*
X86243155Y-160581295D01*
X86245944Y-160481605D01*
X86235595Y-160004050D01*
X86411633Y-160004050D01*
X86411633Y-159804564D01*
X86224421Y-159755105D01*
X86183113Y-159439116D01*
X85937557Y-159439116D01*
X85937557Y-159755105D01*
X85671485Y-159755105D01*
X85671485Y-160004050D01*
X85937557Y-160004050D01*
X85937557Y-160480048D01*
X85928856Y-160554970D01*
X85917940Y-160582278D01*
X85904218Y-160602139D01*
X85867673Y-160627968D01*
X85824717Y-160638226D01*
X85682659Y-160652331D01*
X85682659Y-160882500D01*
X85885717Y-160882500D01*
G37*
G36*
X84937587Y-159742406D02*
G01*
X84995452Y-159755655D01*
X85050180Y-159776207D01*
X85099774Y-159801816D01*
X85187884Y-159862541D01*
X85238443Y-159755105D01*
X85499386Y-159755105D01*
X85499386Y-161380205D01*
X85187884Y-161380205D01*
X85187884Y-160824248D01*
X85117312Y-160855131D01*
X85037492Y-160878836D01*
X84955048Y-160893399D01*
X84875101Y-160898162D01*
X84775060Y-160889556D01*
X84696525Y-160865946D01*
X84634949Y-160829285D01*
X84583976Y-160778346D01*
X84542790Y-160713114D01*
X84511576Y-160630807D01*
X84484901Y-160494329D01*
X84475031Y-160319672D01*
X84786441Y-160319672D01*
X84794143Y-160441226D01*
X84813185Y-160518425D01*
X84845837Y-160579576D01*
X84883344Y-160614779D01*
X84928487Y-160634949D01*
X84976492Y-160641615D01*
X85032993Y-160637840D01*
X85089699Y-160626411D01*
X85143544Y-160608338D01*
X85187884Y-160586386D01*
X85187884Y-160051219D01*
X85095286Y-160008812D01*
X85038664Y-159993639D01*
X84974935Y-159988387D01*
X84922802Y-159995948D01*
X84877849Y-160018155D01*
X84841815Y-160055987D01*
X84811079Y-160120828D01*
X84793427Y-160200631D01*
X84786441Y-160319672D01*
X84475031Y-160319672D01*
X84481086Y-160188244D01*
X84498021Y-160076773D01*
X84528400Y-159974595D01*
X84569828Y-159893316D01*
X84625836Y-159826343D01*
X84694850Y-159777820D01*
X84775796Y-159748357D01*
X84875101Y-159737886D01*
X84937587Y-159742406D01*
G37*
G36*
X83860821Y-160895139D02*
G01*
X83974944Y-160891750D01*
X84097035Y-160882500D01*
X84209692Y-160866746D01*
X84296887Y-160844123D01*
X84296887Y-160661582D01*
X83797807Y-160661582D01*
X83725633Y-160654071D01*
X83700142Y-160643107D01*
X83683226Y-160626686D01*
X83673228Y-160604114D01*
X83669396Y-160570449D01*
X83669396Y-160534087D01*
X83676538Y-160496216D01*
X83696873Y-160468874D01*
X83731050Y-160452453D01*
X83797257Y-160445427D01*
X83973936Y-160445427D01*
X84067570Y-160437910D01*
X84148326Y-160416484D01*
X84196775Y-160392744D01*
X84237402Y-160360911D01*
X84271149Y-160320405D01*
X84295150Y-160273447D01*
X84310719Y-160214055D01*
X84316395Y-160139146D01*
X84316395Y-160073750D01*
X84311377Y-160003113D01*
X84297264Y-159943596D01*
X84274996Y-159893316D01*
X84242415Y-159850026D01*
X84196488Y-159813106D01*
X84134404Y-159782491D01*
X84066986Y-159762910D01*
X83978254Y-159749623D01*
X83863386Y-159744664D01*
X83714642Y-159751899D01*
X83565807Y-159770676D01*
X83454615Y-159796138D01*
X83454615Y-159978679D01*
X83926401Y-159978679D01*
X83983342Y-159984419D01*
X84019457Y-159998920D01*
X84042311Y-160025776D01*
X84051056Y-160073750D01*
X84051056Y-160108463D01*
X84046913Y-160141608D01*
X84036127Y-160163235D01*
X84017935Y-160178473D01*
X83990056Y-160188697D01*
X83913944Y-160195383D01*
X83732777Y-160195383D01*
X83645253Y-160201330D01*
X83576662Y-160217508D01*
X83523290Y-160242105D01*
X83482184Y-160274335D01*
X83439912Y-160331424D01*
X83413463Y-160402836D01*
X83403965Y-160492688D01*
X83403965Y-160593530D01*
X83410537Y-160667398D01*
X83428703Y-160726223D01*
X83457180Y-160773140D01*
X83496510Y-160811803D01*
X83547334Y-160843235D01*
X83611969Y-160867204D01*
X83719471Y-160887522D01*
X83860821Y-160895139D01*
G37*
G36*
X83174438Y-160885614D02*
G01*
X83199329Y-160880600D01*
X83212994Y-160867263D01*
X83218035Y-160843482D01*
X83218035Y-160628792D01*
X83212846Y-160603009D01*
X83199043Y-160588857D01*
X83174438Y-160583638D01*
X82994736Y-160583638D01*
X82969042Y-160588939D01*
X82954794Y-160603167D01*
X82949490Y-160628792D01*
X82949490Y-160843482D01*
X82953018Y-160864213D01*
X82962222Y-160876271D01*
X82994736Y-160885614D01*
X83174438Y-160885614D01*
G37*
G36*
X83174438Y-160053234D02*
G01*
X83199329Y-160048220D01*
X83212994Y-160034884D01*
X83218035Y-160011102D01*
X83218035Y-159796413D01*
X83212846Y-159770629D01*
X83199043Y-159756477D01*
X83174438Y-159751258D01*
X82994736Y-159751258D01*
X82969042Y-159756560D01*
X82954794Y-159770787D01*
X82949490Y-159796413D01*
X82949490Y-160011102D01*
X82953018Y-160031834D01*
X82962222Y-160043892D01*
X82994736Y-160053234D01*
X83174438Y-160053234D01*
G37*
G36*
X82850114Y-161033716D02*
G01*
X82259993Y-159265459D01*
X81943729Y-159265459D01*
X82533850Y-161033716D01*
X82850114Y-161033716D01*
G37*
G36*
X82174538Y-161033716D02*
G01*
X81584417Y-159265459D01*
X81268153Y-159265459D01*
X81858274Y-161033716D01*
X82174538Y-161033716D01*
G37*
G36*
X80826043Y-160895139D02*
G01*
X80926101Y-160888137D01*
X81015545Y-160867937D01*
X81096706Y-160831421D01*
X81165937Y-160776712D01*
X81203545Y-160731003D01*
X81236433Y-160673424D01*
X81264215Y-160601864D01*
X81289459Y-160483621D01*
X81299019Y-160323886D01*
X81290126Y-160158753D01*
X81266779Y-160037572D01*
X81240619Y-159963948D01*
X81209253Y-159904998D01*
X81173173Y-159858420D01*
X81129318Y-159819209D01*
X81079093Y-159788399D01*
X81021590Y-159765730D01*
X80927772Y-159745599D01*
X80816884Y-159738435D01*
X80716329Y-159741393D01*
X80621154Y-159750068D01*
X80526225Y-159765441D01*
X80424141Y-159789452D01*
X80424141Y-159968970D01*
X80720072Y-159968970D01*
X80811599Y-159976904D01*
X80875869Y-159997638D01*
X80910396Y-160021112D01*
X80938719Y-160055253D01*
X80961048Y-160102418D01*
X80979859Y-160186991D01*
X80987518Y-160321504D01*
X80979788Y-160454615D01*
X80960957Y-160536652D01*
X80938590Y-160581632D01*
X80910196Y-160613613D01*
X80875411Y-160634929D01*
X80810895Y-160653001D01*
X80717050Y-160660025D01*
X80408846Y-160660025D01*
X80408846Y-160836429D01*
X80529746Y-160866288D01*
X80676200Y-160887629D01*
X80826043Y-160895139D01*
G37*
G36*
X80236929Y-160882500D02*
G01*
X80236929Y-159755105D01*
X79995953Y-159755105D01*
X79925428Y-159927296D01*
X79860516Y-159855274D01*
X79788041Y-159794764D01*
X79734401Y-159764396D01*
X79674046Y-159745863D01*
X79605317Y-159739443D01*
X79559522Y-159741824D01*
X79513451Y-159750525D01*
X79513451Y-160069629D01*
X79580313Y-160062759D01*
X79645251Y-160060103D01*
X79704739Y-160063624D01*
X79755801Y-160073567D01*
X79803357Y-160090257D01*
X79846660Y-160113226D01*
X79886560Y-160142634D01*
X79925428Y-160180454D01*
X79925428Y-160882500D01*
X80236929Y-160882500D01*
G37*
G36*
X79008650Y-159744429D02*
G01*
X79105436Y-159762061D01*
X79179785Y-159788353D01*
X79244513Y-159829621D01*
X79296032Y-159887393D01*
X79335307Y-159964665D01*
X79359374Y-160050195D01*
X79375947Y-160166070D01*
X79382201Y-160319672D01*
X79375647Y-160469229D01*
X79358194Y-160583172D01*
X79332651Y-160668360D01*
X79291629Y-160744943D01*
X79238239Y-160802425D01*
X79171359Y-160843573D01*
X79095104Y-160869722D01*
X78997312Y-160887151D01*
X78873230Y-160893582D01*
X78743844Y-160889278D01*
X78641504Y-160877645D01*
X78461070Y-160844123D01*
X78461070Y-160661582D01*
X78790706Y-160661582D01*
X78898615Y-160655136D01*
X78965187Y-160639417D01*
X79016005Y-160609293D01*
X79046887Y-160565869D01*
X79063957Y-160509800D01*
X79073723Y-160429124D01*
X78788691Y-160429124D01*
X78681644Y-160421674D01*
X78595709Y-160401188D01*
X78544572Y-160377803D01*
X78502903Y-160346547D01*
X78469405Y-160307033D01*
X78445743Y-160260810D01*
X78430341Y-160201911D01*
X78424825Y-160128705D01*
X78699298Y-160128705D01*
X78707694Y-160186182D01*
X78728699Y-160218098D01*
X78763437Y-160236074D01*
X78820931Y-160243194D01*
X79076837Y-160243194D01*
X79071515Y-160138482D01*
X79058335Y-160071094D01*
X79032778Y-160017736D01*
X78997519Y-159986098D01*
X78950768Y-159968839D01*
X78884221Y-159962284D01*
X78821057Y-159966680D01*
X78776968Y-159978038D01*
X78741682Y-159999192D01*
X78717891Y-160030336D01*
X78704468Y-160070489D01*
X78699298Y-160128705D01*
X78424825Y-160128705D01*
X78424708Y-160127148D01*
X78430620Y-160025146D01*
X78446427Y-159947481D01*
X78469863Y-159889194D01*
X78505627Y-159838991D01*
X78553442Y-159799901D01*
X78615493Y-159771225D01*
X78724723Y-159747276D01*
X78884221Y-159737886D01*
X79008650Y-159744429D01*
G37*
G36*
X77889649Y-159745600D02*
G01*
X78003115Y-159758860D01*
X78107589Y-159779718D01*
X78193075Y-159803557D01*
X78193075Y-159982984D01*
X77856019Y-159982984D01*
X77757638Y-159987785D01*
X77699032Y-159999287D01*
X77653966Y-160021159D01*
X77628782Y-160049845D01*
X77615356Y-160087073D01*
X77610372Y-160137315D01*
X77610372Y-160213702D01*
X77898060Y-160213702D01*
X77995532Y-160219961D01*
X78072552Y-160237027D01*
X78132986Y-160262977D01*
X78179977Y-160296866D01*
X78230159Y-160357250D01*
X78260053Y-160426736D01*
X78270377Y-160508258D01*
X78270377Y-160610199D01*
X78260739Y-160695357D01*
X78233679Y-160763726D01*
X78189869Y-160819118D01*
X78132126Y-160860721D01*
X78063780Y-160886190D01*
X77981866Y-160895139D01*
X77912938Y-160891479D01*
X77848509Y-160880759D01*
X77787014Y-160864021D01*
X77733562Y-160843940D01*
X77646459Y-160800159D01*
X77594985Y-160763431D01*
X77544427Y-160882500D01*
X77298871Y-160882500D01*
X77298871Y-160623938D01*
X77610372Y-160623938D01*
X77630705Y-160632181D01*
X77670731Y-160646561D01*
X77722480Y-160661673D01*
X77777068Y-160674221D01*
X77825245Y-160678893D01*
X77892381Y-160667260D01*
X77919753Y-160652250D01*
X77940924Y-160629159D01*
X77954111Y-160599161D01*
X77958968Y-160558267D01*
X77958968Y-160512838D01*
X77948887Y-160457039D01*
X77920316Y-160416484D01*
X77874303Y-160389689D01*
X77798592Y-160374077D01*
X77610372Y-160360980D01*
X77610372Y-160623938D01*
X77298871Y-160623938D01*
X77298871Y-160115882D01*
X77305548Y-160020208D01*
X77323620Y-159946151D01*
X77350986Y-159889286D01*
X77390568Y-159840552D01*
X77440558Y-159802201D01*
X77502661Y-159773698D01*
X77607947Y-159748995D01*
X77742813Y-159740267D01*
X77889649Y-159745600D01*
G37*
G36*
X76637217Y-160882500D02*
G01*
X76723634Y-160877719D01*
X76793017Y-160864639D01*
X76848335Y-160844764D01*
X76897047Y-160814208D01*
X76935610Y-160772843D01*
X76964930Y-160719009D01*
X76983168Y-160659082D01*
X76994655Y-160581295D01*
X76997445Y-160481605D01*
X76987095Y-160004050D01*
X77163133Y-160004050D01*
X77163133Y-159804564D01*
X76975921Y-159755105D01*
X76934613Y-159439116D01*
X76689058Y-159439116D01*
X76689058Y-159755105D01*
X76422986Y-159755105D01*
X76422986Y-160004050D01*
X76689058Y-160004050D01*
X76689058Y-160480048D01*
X76680357Y-160554970D01*
X76669441Y-160582278D01*
X76655719Y-160602139D01*
X76619174Y-160627968D01*
X76576217Y-160638226D01*
X76434160Y-160652331D01*
X76434160Y-160882500D01*
X76637217Y-160882500D01*
G37*
G36*
X76213150Y-159589142D02*
G01*
X76238050Y-159584135D01*
X76251711Y-159570823D01*
X76256748Y-159547102D01*
X76256748Y-159341663D01*
X76251558Y-159315880D01*
X76237756Y-159301728D01*
X76213150Y-159296509D01*
X75973457Y-159296509D01*
X75955363Y-159299892D01*
X75943415Y-159309240D01*
X75933523Y-159341663D01*
X75933523Y-159547102D01*
X75938309Y-159571171D01*
X75950981Y-159584316D01*
X75973457Y-159589142D01*
X76213150Y-159589142D01*
G37*
G36*
X76250886Y-160882500D02*
G01*
X76250886Y-159755105D01*
X75939385Y-159755105D01*
X75939385Y-160882500D01*
X76250886Y-160882500D01*
G37*
G36*
X75416400Y-160882500D02*
G01*
X75794396Y-159755105D01*
X75473736Y-159755105D01*
X75231019Y-160594629D01*
X74979785Y-159755105D01*
X74662239Y-159755105D01*
X75057821Y-160882500D01*
X75416400Y-160882500D01*
G37*
G36*
X74219536Y-159744429D02*
G01*
X74316322Y-159762061D01*
X74390671Y-159788353D01*
X74455399Y-159829621D01*
X74506918Y-159887393D01*
X74546193Y-159964665D01*
X74570260Y-160050195D01*
X74586833Y-160166070D01*
X74593088Y-160319672D01*
X74586534Y-160469229D01*
X74569080Y-160583172D01*
X74543537Y-160668360D01*
X74502515Y-160744943D01*
X74449125Y-160802425D01*
X74382245Y-160843573D01*
X74305991Y-160869722D01*
X74208198Y-160887151D01*
X74084116Y-160893582D01*
X73954730Y-160889278D01*
X73852391Y-160877645D01*
X73671956Y-160844123D01*
X73671956Y-160661582D01*
X74001593Y-160661582D01*
X74109501Y-160655136D01*
X74176074Y-160639417D01*
X74226891Y-160609293D01*
X74257773Y-160565869D01*
X74274844Y-160509800D01*
X74284609Y-160429124D01*
X73999578Y-160429124D01*
X73892530Y-160421674D01*
X73806595Y-160401188D01*
X73755458Y-160377803D01*
X73713789Y-160346547D01*
X73680291Y-160307033D01*
X73656629Y-160260810D01*
X73641227Y-160201911D01*
X73635712Y-160128705D01*
X73910185Y-160128705D01*
X73918580Y-160186182D01*
X73939585Y-160218098D01*
X73974323Y-160236074D01*
X74031818Y-160243194D01*
X74287723Y-160243194D01*
X74282402Y-160138482D01*
X74269222Y-160071094D01*
X74243664Y-160017736D01*
X74208405Y-159986098D01*
X74161654Y-159968839D01*
X74095107Y-159962284D01*
X74031944Y-159966680D01*
X73987854Y-159978038D01*
X73952569Y-159999192D01*
X73928778Y-160030336D01*
X73915354Y-160070489D01*
X73910185Y-160128705D01*
X73635712Y-160128705D01*
X73635595Y-160127148D01*
X73641506Y-160025146D01*
X73657313Y-159947481D01*
X73680749Y-159889194D01*
X73716513Y-159838991D01*
X73764328Y-159799901D01*
X73826379Y-159771225D01*
X73935609Y-159747276D01*
X74095107Y-159737886D01*
X74219536Y-159744429D01*
G37*
G36*
X72993175Y-160895139D02*
G01*
X73093233Y-160888137D01*
X73182677Y-160867937D01*
X73263838Y-160831421D01*
X73333069Y-160776712D01*
X73370677Y-160731003D01*
X73403565Y-160673424D01*
X73431347Y-160601864D01*
X73456591Y-160483621D01*
X73466151Y-160323886D01*
X73457257Y-160158753D01*
X73433911Y-160037572D01*
X73407751Y-159963948D01*
X73376385Y-159904998D01*
X73340305Y-159858420D01*
X73296449Y-159819209D01*
X73246225Y-159788399D01*
X73188722Y-159765730D01*
X73094904Y-159745599D01*
X72984016Y-159738435D01*
X72883461Y-159741393D01*
X72788286Y-159750068D01*
X72693357Y-159765441D01*
X72591273Y-159789452D01*
X72591273Y-159968970D01*
X72887204Y-159968970D01*
X72978730Y-159976904D01*
X73043000Y-159997638D01*
X73077528Y-160021112D01*
X73105851Y-160055253D01*
X73128180Y-160102418D01*
X73146991Y-160186991D01*
X73154650Y-160321504D01*
X73146920Y-160454615D01*
X73128089Y-160536652D01*
X73105721Y-160581632D01*
X73077328Y-160613613D01*
X73042543Y-160634929D01*
X72978027Y-160653001D01*
X72884182Y-160660025D01*
X72575978Y-160660025D01*
X72575978Y-160836429D01*
X72696878Y-160866288D01*
X72843332Y-160887629D01*
X72993175Y-160895139D01*
G37*
G36*
X72052415Y-159744886D02*
G01*
X72156399Y-159763806D01*
X72219630Y-159785957D01*
X72272829Y-159816080D01*
X72317416Y-159854115D01*
X72353708Y-159900201D01*
X72384224Y-159958385D01*
X72408458Y-160030977D01*
X72429380Y-160150931D01*
X72437400Y-160316192D01*
X72429690Y-160473260D01*
X72409282Y-160591057D01*
X72385621Y-160662828D01*
X72355373Y-160721454D01*
X72318973Y-160768927D01*
X72274314Y-160808560D01*
X72221087Y-160840465D01*
X72157956Y-160864639D01*
X72053652Y-160885761D01*
X71919728Y-160893582D01*
X71782867Y-160886131D01*
X71678110Y-160866196D01*
X71614751Y-160842994D01*
X71561748Y-160812075D01*
X71517643Y-160773506D01*
X71481776Y-160727005D01*
X71451902Y-160668729D01*
X71428525Y-160596461D01*
X71408489Y-160477415D01*
X71400864Y-160316192D01*
X71400941Y-160314635D01*
X71712274Y-160314635D01*
X71715741Y-160419952D01*
X71724547Y-160492047D01*
X71741146Y-160553443D01*
X71761641Y-160591515D01*
X71790091Y-160618702D01*
X71825480Y-160634471D01*
X71866596Y-160641880D01*
X71919728Y-160644637D01*
X71972675Y-160641879D01*
X72013608Y-160634471D01*
X72048765Y-160618720D01*
X72077173Y-160591515D01*
X72097561Y-160553449D01*
X72113992Y-160492047D01*
X72122535Y-160419949D01*
X72125899Y-160314635D01*
X72122521Y-160209050D01*
X72113992Y-160137773D01*
X72097581Y-160077313D01*
X72077173Y-160039678D01*
X72048787Y-160012694D01*
X72013608Y-159996997D01*
X71972675Y-159989589D01*
X71919728Y-159986830D01*
X71866596Y-159989588D01*
X71825480Y-159996997D01*
X71790070Y-160012712D01*
X71761641Y-160039678D01*
X71741126Y-160077319D01*
X71724547Y-160137773D01*
X71715756Y-160209047D01*
X71712274Y-160314635D01*
X71400941Y-160314635D01*
X71408924Y-160153685D01*
X71430082Y-160034091D01*
X71454413Y-159961431D01*
X71484780Y-159903251D01*
X71520665Y-159857229D01*
X71564723Y-159819111D01*
X71617752Y-159788457D01*
X71681224Y-159765363D01*
X71785629Y-159745318D01*
X71919728Y-159737886D01*
X72052415Y-159744886D01*
G37*
G36*
X71196525Y-160882500D02*
G01*
X71196525Y-159755105D01*
X70939795Y-159755105D01*
X70885023Y-159869960D01*
X70808082Y-159819238D01*
X70723731Y-159775713D01*
X70664178Y-159754636D01*
X70593049Y-159741089D01*
X70508218Y-159736237D01*
X70439023Y-159741620D01*
X70381012Y-159756764D01*
X70332180Y-159780751D01*
X70269672Y-159831833D01*
X70224743Y-159894598D01*
X70113827Y-159822241D01*
X70047814Y-159788799D01*
X69976074Y-159760967D01*
X69902050Y-159742297D01*
X69830535Y-159736237D01*
X69741100Y-159742725D01*
X69670949Y-159760408D01*
X69616212Y-159787437D01*
X69569240Y-159825996D01*
X69532564Y-159873702D01*
X69505570Y-159931967D01*
X69481907Y-160030132D01*
X69473330Y-160151603D01*
X69473330Y-160882500D01*
X69784740Y-160882500D01*
X69784740Y-160179172D01*
X69790134Y-160127465D01*
X69804798Y-160088588D01*
X69828798Y-160057035D01*
X69860302Y-160034366D01*
X69898180Y-160020756D01*
X69945757Y-160015865D01*
X70008238Y-160022119D01*
X70073160Y-160041510D01*
X70134954Y-160070380D01*
X70188198Y-160104067D01*
X70181512Y-160144184D01*
X70179223Y-160185400D01*
X70179223Y-160882500D01*
X70490632Y-160882500D01*
X70490632Y-160179172D01*
X70496026Y-160127465D01*
X70510691Y-160088588D01*
X70534642Y-160057014D01*
X70565920Y-160034366D01*
X70603549Y-160020762D01*
X70651008Y-160015865D01*
X70737104Y-160026215D01*
X70814315Y-160055249D01*
X70885023Y-160099030D01*
X70885023Y-160882500D01*
X71196525Y-160882500D01*
G37*
G36*
X69241605Y-160882500D02*
G01*
X69241605Y-159755105D01*
X68984875Y-159755105D01*
X68930104Y-159869960D01*
X68853163Y-159819238D01*
X68768812Y-159775713D01*
X68709259Y-159754636D01*
X68638129Y-159741089D01*
X68553298Y-159736237D01*
X68484103Y-159741620D01*
X68426092Y-159756764D01*
X68377260Y-159780751D01*
X68314752Y-159831833D01*
X68269824Y-159894598D01*
X68158907Y-159822241D01*
X68092895Y-159788799D01*
X68021154Y-159760967D01*
X67947130Y-159742297D01*
X67875616Y-159736237D01*
X67786180Y-159742725D01*
X67716029Y-159760408D01*
X67661293Y-159787437D01*
X67614320Y-159825996D01*
X67577645Y-159873702D01*
X67550650Y-159931967D01*
X67526987Y-160030132D01*
X67518410Y-160151603D01*
X67518410Y-160882500D01*
X67829820Y-160882500D01*
X67829820Y-160179172D01*
X67835214Y-160127465D01*
X67849879Y-160088588D01*
X67873878Y-160057035D01*
X67905383Y-160034366D01*
X67943260Y-160020756D01*
X67990837Y-160015865D01*
X68053318Y-160022119D01*
X68118240Y-160041510D01*
X68180034Y-160070380D01*
X68233279Y-160104067D01*
X68226593Y-160144184D01*
X68224303Y-160185400D01*
X68224303Y-160882500D01*
X68535712Y-160882500D01*
X68535712Y-160179172D01*
X68541106Y-160127465D01*
X68555771Y-160088588D01*
X68579722Y-160057014D01*
X68611000Y-160034366D01*
X68648630Y-160020762D01*
X68696088Y-160015865D01*
X68782184Y-160026215D01*
X68859395Y-160055249D01*
X68930104Y-160099030D01*
X68930104Y-160882500D01*
X69241605Y-160882500D01*
G37*
G36*
X66935039Y-159744886D02*
G01*
X67039023Y-159763806D01*
X67102254Y-159785957D01*
X67155453Y-159816080D01*
X67200040Y-159854115D01*
X67236332Y-159900201D01*
X67266848Y-159958385D01*
X67291081Y-160030977D01*
X67312003Y-160150931D01*
X67320024Y-160316192D01*
X67312314Y-160473260D01*
X67291906Y-160591057D01*
X67268245Y-160662828D01*
X67237997Y-160721454D01*
X67201597Y-160768927D01*
X67156937Y-160808560D01*
X67103711Y-160840465D01*
X67040580Y-160864639D01*
X66936276Y-160885761D01*
X66802351Y-160893582D01*
X66665490Y-160886131D01*
X66560734Y-160866196D01*
X66497375Y-160842994D01*
X66444372Y-160812075D01*
X66400267Y-160773506D01*
X66364400Y-160727005D01*
X66334526Y-160668729D01*
X66311149Y-160596461D01*
X66291113Y-160477415D01*
X66283488Y-160316192D01*
X66283565Y-160314635D01*
X66594898Y-160314635D01*
X66598365Y-160419952D01*
X66607171Y-160492047D01*
X66623769Y-160553443D01*
X66644265Y-160591515D01*
X66672715Y-160618702D01*
X66708104Y-160634471D01*
X66749220Y-160641880D01*
X66802351Y-160644637D01*
X66855299Y-160641879D01*
X66896232Y-160634471D01*
X66931389Y-160618720D01*
X66959797Y-160591515D01*
X66980185Y-160553449D01*
X66996616Y-160492047D01*
X67005159Y-160419949D01*
X67008523Y-160314635D01*
X67005145Y-160209050D01*
X66996616Y-160137773D01*
X66980204Y-160077313D01*
X66959797Y-160039678D01*
X66931411Y-160012694D01*
X66896232Y-159996997D01*
X66855299Y-159989589D01*
X66802351Y-159986830D01*
X66749220Y-159989588D01*
X66708104Y-159996997D01*
X66672694Y-160012712D01*
X66644265Y-160039678D01*
X66623749Y-160077319D01*
X66607171Y-160137773D01*
X66598380Y-160209047D01*
X66594898Y-160314635D01*
X66283565Y-160314635D01*
X66291548Y-160153685D01*
X66312706Y-160034091D01*
X66337037Y-159961431D01*
X66367404Y-159903251D01*
X66403289Y-159857229D01*
X66447347Y-159819111D01*
X66500375Y-159788457D01*
X66563848Y-159765363D01*
X66668253Y-159745318D01*
X66802351Y-159737886D01*
X66935039Y-159744886D01*
G37*
G36*
X66079148Y-160882500D02*
G01*
X66079148Y-159755105D01*
X65822419Y-159755105D01*
X65767647Y-159869960D01*
X65698819Y-159822436D01*
X65608645Y-159777270D01*
X65511170Y-159746400D01*
X65412365Y-159736237D01*
X65322013Y-159743156D01*
X65252371Y-159761904D01*
X65199050Y-159790459D01*
X65153572Y-159830676D01*
X65118260Y-159878968D01*
X65092529Y-159936547D01*
X65069778Y-160031470D01*
X65061846Y-160139330D01*
X65061846Y-160882500D01*
X65373256Y-160882500D01*
X65373256Y-160179172D01*
X65378650Y-160127465D01*
X65393314Y-160088588D01*
X65417266Y-160057014D01*
X65448544Y-160034366D01*
X65486173Y-160020762D01*
X65533632Y-160015865D01*
X65619728Y-160026215D01*
X65696939Y-160055249D01*
X65767647Y-160099030D01*
X65767647Y-160882500D01*
X66079148Y-160882500D01*
G37*
G36*
X64420068Y-160895139D02*
G01*
X64534190Y-160891750D01*
X64656281Y-160882500D01*
X64768938Y-160866746D01*
X64856133Y-160844123D01*
X64856133Y-160661582D01*
X64357053Y-160661582D01*
X64284879Y-160654071D01*
X64259389Y-160643107D01*
X64242473Y-160626686D01*
X64232474Y-160604114D01*
X64228642Y-160570449D01*
X64228642Y-160534087D01*
X64235785Y-160496216D01*
X64256120Y-160468874D01*
X64290297Y-160452453D01*
X64356504Y-160445427D01*
X64533183Y-160445427D01*
X64626817Y-160437910D01*
X64707572Y-160416484D01*
X64756021Y-160392744D01*
X64796648Y-160360911D01*
X64830396Y-160320405D01*
X64854396Y-160273447D01*
X64869965Y-160214055D01*
X64875642Y-160139146D01*
X64875642Y-160073750D01*
X64870623Y-160003113D01*
X64856510Y-159943596D01*
X64834243Y-159893316D01*
X64801661Y-159850026D01*
X64755735Y-159813106D01*
X64693650Y-159782491D01*
X64626233Y-159762910D01*
X64537500Y-159749623D01*
X64422632Y-159744664D01*
X64273888Y-159751899D01*
X64125053Y-159770676D01*
X64013861Y-159796138D01*
X64013861Y-159978679D01*
X64485647Y-159978679D01*
X64542589Y-159984419D01*
X64578704Y-159998920D01*
X64601557Y-160025776D01*
X64610302Y-160073750D01*
X64610302Y-160108463D01*
X64606160Y-160141608D01*
X64595373Y-160163235D01*
X64577182Y-160178473D01*
X64549303Y-160188697D01*
X64473191Y-160195383D01*
X64292023Y-160195383D01*
X64204500Y-160201330D01*
X64135909Y-160217508D01*
X64082537Y-160242105D01*
X64041430Y-160274335D01*
X63999158Y-160331424D01*
X63972709Y-160402836D01*
X63963212Y-160492688D01*
X63963212Y-160593530D01*
X63969783Y-160667398D01*
X63987949Y-160726223D01*
X64016426Y-160773140D01*
X64055756Y-160811803D01*
X64106581Y-160843235D01*
X64171215Y-160867204D01*
X64278718Y-160887522D01*
X64420068Y-160895139D01*
G37*
G36*
X63733684Y-160885614D02*
G01*
X63758575Y-160880600D01*
X63772241Y-160867263D01*
X63777282Y-160843482D01*
X63777282Y-160628792D01*
X63772092Y-160603009D01*
X63758290Y-160588857D01*
X63733684Y-160583638D01*
X63553983Y-160583638D01*
X63528288Y-160588939D01*
X63514040Y-160603167D01*
X63508737Y-160628792D01*
X63508737Y-160843482D01*
X63512265Y-160864213D01*
X63521468Y-160876271D01*
X63553983Y-160885614D01*
X63733684Y-160885614D01*
G37*
G36*
X62928479Y-159744886D02*
G01*
X63032463Y-159763806D01*
X63095694Y-159785957D01*
X63148893Y-159816080D01*
X63193480Y-159854115D01*
X63229772Y-159900201D01*
X63260288Y-159958385D01*
X63284522Y-160030977D01*
X63305444Y-160150931D01*
X63313465Y-160316192D01*
X63305754Y-160473260D01*
X63285346Y-160591057D01*
X63261686Y-160662828D01*
X63231437Y-160721454D01*
X63195037Y-160768927D01*
X63150378Y-160808560D01*
X63097151Y-160840465D01*
X63034020Y-160864639D01*
X62929716Y-160885761D01*
X62795792Y-160893582D01*
X62658931Y-160886131D01*
X62554175Y-160866196D01*
X62490815Y-160842994D01*
X62437812Y-160812075D01*
X62393707Y-160773506D01*
X62357840Y-160727005D01*
X62327966Y-160668729D01*
X62304589Y-160596461D01*
X62284554Y-160477415D01*
X62276928Y-160316192D01*
X62277005Y-160314635D01*
X62588338Y-160314635D01*
X62591806Y-160419952D01*
X62600611Y-160492047D01*
X62617210Y-160553443D01*
X62637706Y-160591515D01*
X62666155Y-160618702D01*
X62701545Y-160634471D01*
X62742660Y-160641880D01*
X62795792Y-160644637D01*
X62848739Y-160641879D01*
X62889673Y-160634471D01*
X62924830Y-160618720D01*
X62953237Y-160591515D01*
X62973625Y-160553449D01*
X62990056Y-160492047D01*
X62998599Y-160419949D01*
X63001963Y-160314635D01*
X62998585Y-160209050D01*
X62990056Y-160137773D01*
X62973645Y-160077313D01*
X62953237Y-160039678D01*
X62924851Y-160012694D01*
X62889673Y-159996997D01*
X62848739Y-159989589D01*
X62795792Y-159986830D01*
X62742660Y-159989588D01*
X62701545Y-159996997D01*
X62666134Y-160012712D01*
X62637706Y-160039678D01*
X62617190Y-160077319D01*
X62600611Y-160137773D01*
X62591821Y-160209047D01*
X62588338Y-160314635D01*
X62277005Y-160314635D01*
X62284988Y-160153685D01*
X62306146Y-160034091D01*
X62330477Y-159961431D01*
X62360844Y-159903251D01*
X62396730Y-159857229D01*
X62440788Y-159819111D01*
X62493816Y-159788457D01*
X62557289Y-159765363D01*
X62661693Y-159745318D01*
X62795792Y-159737886D01*
X62928479Y-159744886D01*
G37*
G36*
X62072589Y-160882500D02*
G01*
X62072589Y-159755105D01*
X61831613Y-159755105D01*
X61761088Y-159927296D01*
X61696176Y-159855274D01*
X61623701Y-159794764D01*
X61570060Y-159764396D01*
X61509705Y-159745863D01*
X61440977Y-159739443D01*
X61395181Y-159741824D01*
X61349111Y-159750525D01*
X61349111Y-160069629D01*
X61415972Y-160062759D01*
X61480910Y-160060103D01*
X61540398Y-160063624D01*
X61591461Y-160073567D01*
X61639017Y-160090257D01*
X61682319Y-160113226D01*
X61722219Y-160142634D01*
X61761088Y-160180454D01*
X61761088Y-160882500D01*
X62072589Y-160882500D01*
G37*
G36*
X60834977Y-159759054D02*
G01*
X60921429Y-159772967D01*
X60991906Y-159794214D01*
X61056938Y-159826626D01*
X61108079Y-159867145D01*
X61147336Y-159916031D01*
X61174976Y-159972577D01*
X61192535Y-160040605D01*
X61198810Y-160122660D01*
X61194528Y-160185907D01*
X61181774Y-160246949D01*
X61159167Y-160304714D01*
X61125079Y-160358690D01*
X61079734Y-160405358D01*
X61018834Y-160445702D01*
X61074746Y-160463863D01*
X61119685Y-160489681D01*
X61155487Y-160523005D01*
X61182266Y-160563594D01*
X61198607Y-160610446D01*
X61204305Y-160665245D01*
X61194385Y-160730141D01*
X61164830Y-160787546D01*
X61113081Y-160839818D01*
X61088249Y-160853819D01*
X61150987Y-160888642D01*
X61210076Y-160944323D01*
X61238856Y-160989132D01*
X61256322Y-161039968D01*
X61262374Y-161098471D01*
X61262374Y-161132360D01*
X61256727Y-161188905D01*
X61240499Y-161237709D01*
X61213922Y-161280371D01*
X61157734Y-161332921D01*
X61081665Y-161372329D01*
X60994513Y-161395432D01*
X60892804Y-161403561D01*
X60554284Y-161403561D01*
X60442775Y-161396409D01*
X60354249Y-161376867D01*
X60284415Y-161347086D01*
X60229776Y-161308123D01*
X60184561Y-161257091D01*
X60151990Y-161197524D01*
X60131694Y-161127730D01*
X60124538Y-161045348D01*
X60124538Y-161029686D01*
X60419553Y-161029686D01*
X60419553Y-161062201D01*
X60425018Y-161100791D01*
X60440445Y-161130897D01*
X60466173Y-161154617D01*
X60517987Y-161177007D01*
X60591103Y-161185391D01*
X60805243Y-161185391D01*
X60878051Y-161176636D01*
X60925777Y-161153884D01*
X60948584Y-161130141D01*
X60962492Y-161100069D01*
X60967451Y-161061652D01*
X60967451Y-161037105D01*
X60962188Y-160997924D01*
X60947392Y-160967313D01*
X60923719Y-160942974D01*
X60891430Y-160924815D01*
X60853918Y-160914199D01*
X60809182Y-160910435D01*
X60582677Y-160910435D01*
X60528178Y-160914404D01*
X60489712Y-160924723D01*
X60458064Y-160942573D01*
X60436864Y-160965298D01*
X60424098Y-160993695D01*
X60419553Y-161029686D01*
X60124538Y-161029686D01*
X60124538Y-161015673D01*
X60130583Y-160935169D01*
X60147253Y-160870515D01*
X60173082Y-160818661D01*
X60209707Y-160773933D01*
X60255692Y-160738019D01*
X60312483Y-160710491D01*
X60408760Y-160685913D01*
X60532027Y-160676878D01*
X60844536Y-160676878D01*
X60880240Y-160673423D01*
X60911764Y-160663414D01*
X60934269Y-160644469D01*
X60942080Y-160613039D01*
X60932953Y-160576033D01*
X60906451Y-160552772D01*
X60867763Y-160540245D01*
X60815135Y-160535553D01*
X60615100Y-160535553D01*
X60516817Y-160529746D01*
X60439072Y-160513945D01*
X60378062Y-160490032D01*
X60322915Y-160455097D01*
X60280315Y-160414135D01*
X60248644Y-160366750D01*
X60218555Y-160285175D01*
X60208161Y-160191262D01*
X60210518Y-160148306D01*
X60488888Y-160148306D01*
X60492434Y-160192466D01*
X60502351Y-160228906D01*
X60521007Y-160259419D01*
X60550986Y-160282761D01*
X60590231Y-160296571D01*
X60649996Y-160301995D01*
X60769431Y-160301995D01*
X60817611Y-160297189D01*
X60853850Y-160284150D01*
X60880989Y-160263893D01*
X60900372Y-160236012D01*
X60913234Y-160196868D01*
X60918083Y-160142718D01*
X60912813Y-160086938D01*
X60899052Y-160048344D01*
X60878516Y-160022276D01*
X60832167Y-159997198D01*
X60759814Y-159987563D01*
X60642669Y-159987563D01*
X60594722Y-159991708D01*
X60558039Y-160002950D01*
X60528103Y-160023158D01*
X60506290Y-160053875D01*
X60493701Y-160092865D01*
X60488888Y-160148306D01*
X60210518Y-160148306D01*
X60211697Y-160126829D01*
X60220984Y-160079521D01*
X60235954Y-160037546D01*
X60252857Y-160005881D01*
X60291692Y-159956789D01*
X60118951Y-159925739D01*
X60118951Y-159754006D01*
X60729589Y-159754006D01*
X60834977Y-159759054D01*
G37*
%TO.C,G4*%
G36*
X97950000Y-159000000D02*
G01*
X97050000Y-159000000D01*
X97050000Y-160850000D01*
X97950000Y-160850000D01*
X97950000Y-159000000D01*
G37*
D11*
X98100000Y-158200000D02*
X96900000Y-158200000D01*
X96900000Y-159200000D01*
X98100000Y-159200000D01*
X98100000Y-158200000D01*
G36*
X98100000Y-158200000D02*
G01*
X96900000Y-158200000D01*
X96900000Y-159200000D01*
X98100000Y-159200000D01*
X98100000Y-158200000D01*
G37*
G36*
X98300000Y-159200000D02*
G01*
X96700000Y-159200000D01*
X96700000Y-159400000D01*
X98300000Y-159400000D01*
X98300000Y-159200000D01*
G37*
X99999360Y-159000000D02*
G75*
G02*
X94999360Y-159000000I-2500000J0D01*
G01*
X94999360Y-159000000D02*
G75*
G02*
X99999360Y-159000000I2500000J0D01*
G01*
X97700000Y-157410000D02*
G75*
G02*
X97300000Y-157410000I-200000J0D01*
G01*
X97300000Y-157410000D02*
G75*
G02*
X97700000Y-157410000I200000J0D01*
G01*
%TO.C,G5*%
X93999360Y-159000000D02*
G75*
G02*
X88999360Y-159000000I-2500000J0D01*
G01*
X88999360Y-159000000D02*
G75*
G02*
X93999360Y-159000000I2500000J0D01*
G01*
D12*
G36*
X91559708Y-157400003D02*
G01*
X91621420Y-157403506D01*
X91681929Y-157409344D01*
X91741237Y-157417518D01*
X91799344Y-157428027D01*
X91856250Y-157440871D01*
X91911955Y-157456051D01*
X91966459Y-157473566D01*
X92019764Y-157493417D01*
X92071868Y-157515603D01*
X92122773Y-157540124D01*
X92172478Y-157566981D01*
X92220984Y-157596173D01*
X92268291Y-157627700D01*
X92314399Y-157661563D01*
X92359309Y-157697761D01*
X92402582Y-157736088D01*
X92443743Y-157776339D01*
X92482793Y-157818512D01*
X92519732Y-157862608D01*
X92554560Y-157908627D01*
X92587277Y-157956569D01*
X92617885Y-158006435D01*
X92646382Y-158058223D01*
X92672770Y-158111934D01*
X92697049Y-158167568D01*
X92719218Y-158225125D01*
X92739279Y-158284605D01*
X92757231Y-158346008D01*
X92773075Y-158409334D01*
X92786810Y-158474583D01*
X92798438Y-158541755D01*
X93031060Y-158541663D01*
X92443671Y-159129051D01*
X91856376Y-158541663D01*
X92073347Y-158541663D01*
X92062068Y-158478233D01*
X92054909Y-158448052D01*
X92046738Y-158418896D01*
X92037553Y-158390762D01*
X92027357Y-158363652D01*
X92016147Y-158337565D01*
X92003925Y-158312501D01*
X91990689Y-158288460D01*
X91976441Y-158265443D01*
X91961180Y-158243449D01*
X91944905Y-158222477D01*
X91927618Y-158202530D01*
X91909317Y-158183605D01*
X91890003Y-158165703D01*
X91869676Y-158148824D01*
X91848336Y-158132969D01*
X91825982Y-158118136D01*
X91802615Y-158104327D01*
X91778234Y-158091541D01*
X91752840Y-158079777D01*
X91726432Y-158069037D01*
X91699011Y-158059319D01*
X91670576Y-158050625D01*
X91610664Y-158036305D01*
X91546698Y-158026076D01*
X91478676Y-158019939D01*
X91406597Y-158017894D01*
X91366154Y-158018855D01*
X91326916Y-158021739D01*
X91288884Y-158026546D01*
X91252055Y-158033276D01*
X91216431Y-158041928D01*
X91182009Y-158052502D01*
X91148788Y-158064999D01*
X91116769Y-158079418D01*
X91085950Y-158095758D01*
X91056331Y-158114020D01*
X91027910Y-158134204D01*
X91000687Y-158156309D01*
X90974661Y-158180336D01*
X90949831Y-158206284D01*
X90926197Y-158234153D01*
X90903757Y-158263943D01*
X90882629Y-158295588D01*
X90862862Y-158328986D01*
X90844457Y-158364140D01*
X90827413Y-158401048D01*
X90811732Y-158439711D01*
X90797412Y-158480130D01*
X90784455Y-158522306D01*
X90772861Y-158566238D01*
X90762630Y-158611926D01*
X90753762Y-158659373D01*
X90746257Y-158708577D01*
X90740117Y-158759539D01*
X90735340Y-158812259D01*
X90731928Y-158866739D01*
X90729880Y-158922978D01*
X90729198Y-158980977D01*
X90729942Y-159036482D01*
X90732176Y-159090586D01*
X90735899Y-159143289D01*
X90741111Y-159194590D01*
X90747812Y-159244489D01*
X90756003Y-159292984D01*
X90765684Y-159340075D01*
X90776854Y-159385761D01*
X90789515Y-159430042D01*
X90803666Y-159472918D01*
X90819307Y-159514386D01*
X90836438Y-159554447D01*
X90855060Y-159593100D01*
X90875172Y-159630344D01*
X90896776Y-159666179D01*
X90919870Y-159700604D01*
X90944153Y-159733271D01*
X90969389Y-159763832D01*
X90995580Y-159792287D01*
X91022723Y-159818637D01*
X91050819Y-159842880D01*
X91079866Y-159865016D01*
X91109864Y-159885045D01*
X91140812Y-159902967D01*
X91172710Y-159918782D01*
X91205557Y-159932489D01*
X91239352Y-159944088D01*
X91274094Y-159953578D01*
X91309783Y-159960961D01*
X91346419Y-159966234D01*
X91384000Y-159969398D01*
X91422525Y-159970453D01*
X91460974Y-159969926D01*
X91498254Y-159968344D01*
X91534367Y-159965708D01*
X91569310Y-159962019D01*
X91603086Y-159957274D01*
X91635694Y-159951476D01*
X91667133Y-159944623D01*
X91697404Y-159936716D01*
X91726507Y-159927755D01*
X91754441Y-159917739D01*
X91781207Y-159906669D01*
X91806805Y-159894545D01*
X91831235Y-159881366D01*
X91854497Y-159867134D01*
X91876590Y-159851847D01*
X91897516Y-159835505D01*
X91917273Y-159818110D01*
X91935861Y-159799660D01*
X91953282Y-159780156D01*
X91969534Y-159759597D01*
X91984618Y-159737985D01*
X91998534Y-159715318D01*
X92011282Y-159691597D01*
X92022861Y-159666821D01*
X92033272Y-159640991D01*
X92042515Y-159614107D01*
X92050590Y-159586169D01*
X92057497Y-159557176D01*
X92063235Y-159527129D01*
X92067805Y-159496028D01*
X92071207Y-159463873D01*
X92073440Y-159430663D01*
X92819737Y-159430663D01*
X92809330Y-159499123D01*
X92796652Y-159565598D01*
X92781703Y-159630087D01*
X92764483Y-159692591D01*
X92744991Y-159753110D01*
X92723226Y-159811645D01*
X92699189Y-159868195D01*
X92672878Y-159922762D01*
X92644295Y-159975344D01*
X92613437Y-160025943D01*
X92580305Y-160074559D01*
X92544898Y-160121192D01*
X92507216Y-160165842D01*
X92467259Y-160208510D01*
X92425025Y-160249196D01*
X92380516Y-160287900D01*
X92334347Y-160324433D01*
X92287101Y-160358608D01*
X92238780Y-160390424D01*
X92189382Y-160419881D01*
X92138908Y-160446980D01*
X92087359Y-160471722D01*
X92034734Y-160494105D01*
X91981033Y-160514132D01*
X91926257Y-160531801D01*
X91870405Y-160547114D01*
X91813478Y-160560070D01*
X91755477Y-160570670D01*
X91696400Y-160578913D01*
X91636249Y-160584801D01*
X91575023Y-160588334D01*
X91512722Y-160589512D01*
X91428360Y-160587743D01*
X91345990Y-160582437D01*
X91265610Y-160573594D01*
X91187219Y-160561215D01*
X91110816Y-160545301D01*
X91036400Y-160525851D01*
X90963970Y-160502867D01*
X90893524Y-160476349D01*
X90825063Y-160446298D01*
X90758584Y-160412713D01*
X90694087Y-160375597D01*
X90631570Y-160334948D01*
X90571033Y-160290769D01*
X90512474Y-160243058D01*
X90455892Y-160191818D01*
X90401287Y-160137047D01*
X90349411Y-160079613D01*
X90300880Y-160020379D01*
X90255694Y-159959346D01*
X90213853Y-159896512D01*
X90175358Y-159831880D01*
X90140210Y-159765447D01*
X90108407Y-159697214D01*
X90079951Y-159627181D01*
X90054841Y-159555347D01*
X90033079Y-159481713D01*
X90014664Y-159406278D01*
X89999596Y-159329043D01*
X89987877Y-159250007D01*
X89979505Y-159169169D01*
X89974482Y-159086531D01*
X89972808Y-159002091D01*
X89974420Y-158915119D01*
X89979258Y-158830129D01*
X89987321Y-158747122D01*
X89998608Y-158666097D01*
X90013120Y-158587054D01*
X90030857Y-158509995D01*
X90051818Y-158434918D01*
X90076003Y-158361825D01*
X90103413Y-158290716D01*
X90134047Y-158221591D01*
X90167904Y-158154450D01*
X90204985Y-158089294D01*
X90245290Y-158026123D01*
X90288818Y-157964937D01*
X90335570Y-157905736D01*
X90385544Y-157848521D01*
X90438250Y-157794087D01*
X90493191Y-157743161D01*
X90550369Y-157695744D01*
X90609783Y-157651835D01*
X90671430Y-157611436D01*
X90735312Y-157574548D01*
X90801426Y-157541170D01*
X90869772Y-157511303D01*
X90940349Y-157484947D01*
X91013156Y-157462105D01*
X91088194Y-157442774D01*
X91165460Y-157426958D01*
X91244953Y-157414655D01*
X91326674Y-157405866D01*
X91410622Y-157400593D01*
X91496794Y-157398835D01*
X91559708Y-157400003D01*
G37*
D11*
%TO.C,G3*%
X106000000Y-159000000D02*
G75*
G02*
X101000000Y-159000000I-2500000J0D01*
G01*
X101000000Y-159000000D02*
G75*
G02*
X106000000Y-159000000I2500000J0D01*
G01*
D12*
G36*
X104514166Y-157953499D02*
G01*
X104566122Y-157956833D01*
X104616917Y-157962388D01*
X104666552Y-157970165D01*
X104715027Y-157980163D01*
X104762342Y-157992382D01*
X104808497Y-158006822D01*
X104853492Y-158023482D01*
X104897327Y-158042362D01*
X104940003Y-158063461D01*
X104981520Y-158086780D01*
X105021878Y-158112319D01*
X105061076Y-158140076D01*
X105099116Y-158170051D01*
X105135997Y-158202245D01*
X105171719Y-158236656D01*
X105205765Y-158272974D01*
X105237615Y-158310848D01*
X105267270Y-158350278D01*
X105294729Y-158391264D01*
X105319992Y-158433808D01*
X105343060Y-158477909D01*
X105363931Y-158523568D01*
X105382606Y-158570785D01*
X105399084Y-158619562D01*
X105413366Y-158669898D01*
X105425451Y-158721794D01*
X105435339Y-158775250D01*
X105443030Y-158830268D01*
X105448523Y-158886846D01*
X105451820Y-158944986D01*
X105452919Y-159004689D01*
X105451832Y-159065811D01*
X105448573Y-159125235D01*
X105443141Y-159182958D01*
X105435535Y-159238982D01*
X105425757Y-159293307D01*
X105413807Y-159345931D01*
X105399683Y-159396856D01*
X105383386Y-159446080D01*
X105364917Y-159493604D01*
X105344274Y-159539427D01*
X105321459Y-159583550D01*
X105296470Y-159625972D01*
X105269309Y-159666693D01*
X105239975Y-159705712D01*
X105208468Y-159743031D01*
X105174789Y-159778648D01*
X105139335Y-159812364D01*
X105102508Y-159843900D01*
X105064308Y-159873257D01*
X105024735Y-159900436D01*
X104983790Y-159925436D01*
X104941473Y-159948260D01*
X104897784Y-159968907D01*
X104852725Y-159987378D01*
X104806295Y-160003673D01*
X104758495Y-160017794D01*
X104709325Y-160029741D01*
X104658787Y-160039514D01*
X104606880Y-160047114D01*
X104553604Y-160052542D01*
X104498961Y-160055799D01*
X104442951Y-160056884D01*
X104407600Y-160056329D01*
X104372626Y-160054666D01*
X104338030Y-160051893D01*
X104303812Y-160048010D01*
X104269973Y-160043018D01*
X104236514Y-160036915D01*
X104203434Y-160029701D01*
X104170735Y-160021377D01*
X104138416Y-160011941D01*
X104106479Y-160001394D01*
X104074923Y-159989735D01*
X104043750Y-159976963D01*
X104012959Y-159963079D01*
X103982551Y-159948083D01*
X103952527Y-159931973D01*
X103922886Y-159914750D01*
X103893800Y-159896577D01*
X103865518Y-159877577D01*
X103838039Y-159857751D01*
X103811364Y-159837098D01*
X103785493Y-159815618D01*
X103760426Y-159793310D01*
X103736162Y-159770174D01*
X103712701Y-159746210D01*
X103690045Y-159721418D01*
X103668192Y-159695797D01*
X103647143Y-159669347D01*
X103626897Y-159642067D01*
X103607455Y-159613958D01*
X103588817Y-159585018D01*
X103570982Y-159555248D01*
X103553951Y-159524648D01*
X103971146Y-159312982D01*
X103986971Y-159348124D01*
X104004162Y-159381001D01*
X104022721Y-159411612D01*
X104042647Y-159439958D01*
X104063941Y-159466039D01*
X104086604Y-159489853D01*
X104110635Y-159511400D01*
X104136035Y-159530681D01*
X104162804Y-159547694D01*
X104190943Y-159562440D01*
X104220451Y-159574918D01*
X104251330Y-159585129D01*
X104283580Y-159593070D01*
X104317200Y-159598744D01*
X104352191Y-159602148D01*
X104388553Y-159603282D01*
X104416107Y-159602644D01*
X104442811Y-159600728D01*
X104468664Y-159597535D01*
X104493665Y-159593065D01*
X104517817Y-159587318D01*
X104541117Y-159580294D01*
X104563566Y-159571994D01*
X104585165Y-159562418D01*
X104595645Y-159557151D01*
X104605913Y-159551565D01*
X104615968Y-159545660D01*
X104625810Y-159539436D01*
X104635439Y-159532893D01*
X104644856Y-159526032D01*
X104654060Y-159518851D01*
X104663052Y-159511351D01*
X104680396Y-159495395D01*
X104696890Y-159478164D01*
X104712533Y-159459657D01*
X104727326Y-159439876D01*
X104741225Y-159419033D01*
X104754229Y-159397345D01*
X104766336Y-159374810D01*
X104777548Y-159351427D01*
X104787864Y-159327197D01*
X104797284Y-159302118D01*
X104805807Y-159276192D01*
X104813434Y-159249415D01*
X104820164Y-159221790D01*
X104825998Y-159193314D01*
X104830934Y-159163988D01*
X104834973Y-159133811D01*
X104838115Y-159102782D01*
X104840359Y-159070902D01*
X104841706Y-159038169D01*
X104842155Y-159004583D01*
X104841711Y-158967743D01*
X104840381Y-158932073D01*
X104838165Y-158897573D01*
X104835061Y-158864243D01*
X104831072Y-158832083D01*
X104826196Y-158801093D01*
X104820433Y-158771273D01*
X104813785Y-158742623D01*
X104806250Y-158715142D01*
X104797829Y-158688832D01*
X104788522Y-158663691D01*
X104778330Y-158639720D01*
X104767251Y-158616919D01*
X104755287Y-158595287D01*
X104742437Y-158574825D01*
X104728701Y-158555532D01*
X104714080Y-158537410D01*
X104698574Y-158520456D01*
X104682182Y-158504672D01*
X104664905Y-158490058D01*
X104646742Y-158476612D01*
X104627695Y-158464337D01*
X104607762Y-158453230D01*
X104586944Y-158443293D01*
X104565242Y-158434525D01*
X104542654Y-158426926D01*
X104519182Y-158420497D01*
X104494825Y-158415236D01*
X104469584Y-158411145D01*
X104443458Y-158408222D01*
X104416448Y-158406469D01*
X104388553Y-158405884D01*
X104377144Y-158406121D01*
X104365618Y-158406831D01*
X104353976Y-158408015D01*
X104342216Y-158409671D01*
X104330339Y-158411800D01*
X104318345Y-158414401D01*
X104306234Y-158417474D01*
X104294004Y-158421018D01*
X104281657Y-158425034D01*
X104269192Y-158429521D01*
X104256609Y-158434478D01*
X104243907Y-158439906D01*
X104231087Y-158445804D01*
X104218148Y-158452172D01*
X104205091Y-158459009D01*
X104191915Y-158466315D01*
X104178829Y-158474231D01*
X104166003Y-158482859D01*
X104153438Y-158492197D01*
X104141131Y-158502245D01*
X104129084Y-158513003D01*
X104117296Y-158524470D01*
X104105767Y-158536644D01*
X104094495Y-158549526D01*
X104083482Y-158563116D01*
X104072726Y-158577411D01*
X104062228Y-158592412D01*
X104051987Y-158608118D01*
X104042002Y-158624529D01*
X104032274Y-158641644D01*
X104022802Y-158659461D01*
X104013586Y-158677982D01*
X103559878Y-158442079D01*
X103595302Y-158382755D01*
X103633509Y-158327258D01*
X103674501Y-158275590D01*
X103718277Y-158227750D01*
X103764839Y-158183738D01*
X103814188Y-158143556D01*
X103866323Y-158107202D01*
X103921246Y-158074678D01*
X103978956Y-158045984D01*
X104039456Y-158021120D01*
X104102744Y-158000087D01*
X104168823Y-157982884D01*
X104237692Y-157969513D01*
X104309352Y-157959973D01*
X104383804Y-157954264D01*
X104461049Y-157952388D01*
X104514166Y-157953499D01*
G37*
G36*
X102554749Y-157953499D02*
G01*
X102606688Y-157956833D01*
X102657469Y-157962388D01*
X102707091Y-157970165D01*
X102755554Y-157980163D01*
X102802858Y-157992382D01*
X102849003Y-158006822D01*
X102893988Y-158023482D01*
X102937813Y-158042362D01*
X102980479Y-158063461D01*
X103021985Y-158086780D01*
X103062331Y-158112319D01*
X103101516Y-158140076D01*
X103139541Y-158170051D01*
X103176406Y-158202245D01*
X103212110Y-158236656D01*
X103246192Y-158272974D01*
X103278071Y-158310848D01*
X103307749Y-158350278D01*
X103335225Y-158391264D01*
X103360501Y-158433808D01*
X103383577Y-158477909D01*
X103404452Y-158523568D01*
X103423128Y-158570785D01*
X103439605Y-158619562D01*
X103453884Y-158669898D01*
X103465965Y-158721794D01*
X103475848Y-158775250D01*
X103483534Y-158830268D01*
X103489024Y-158886846D01*
X103492317Y-158944986D01*
X103493415Y-159004689D01*
X103492341Y-159065811D01*
X103489118Y-159125235D01*
X103483746Y-159182958D01*
X103476223Y-159238982D01*
X103466551Y-159293307D01*
X103454727Y-159345931D01*
X103440751Y-159396856D01*
X103424623Y-159446080D01*
X103406342Y-159493604D01*
X103385907Y-159539427D01*
X103363318Y-159583550D01*
X103338574Y-159625972D01*
X103311674Y-159666693D01*
X103282619Y-159705712D01*
X103251406Y-159743031D01*
X103218036Y-159778648D01*
X103182946Y-159812364D01*
X103146415Y-159843900D01*
X103108442Y-159873257D01*
X103069026Y-159900436D01*
X103028169Y-159925436D01*
X102985868Y-159948260D01*
X102942125Y-159968907D01*
X102896938Y-159987378D01*
X102850308Y-160003673D01*
X102802233Y-160017794D01*
X102752715Y-160029741D01*
X102701752Y-160039514D01*
X102649344Y-160047114D01*
X102595491Y-160052542D01*
X102540192Y-160055799D01*
X102483447Y-160056884D01*
X102448846Y-160056329D01*
X102414575Y-160054666D01*
X102380633Y-160051893D01*
X102347022Y-160048010D01*
X102313740Y-160043018D01*
X102280788Y-160036915D01*
X102248166Y-160029701D01*
X102215874Y-160021377D01*
X102183912Y-160011941D01*
X102152280Y-160001394D01*
X102120978Y-159989735D01*
X102090006Y-159976963D01*
X102059363Y-159963079D01*
X102029050Y-159948083D01*
X101999068Y-159931973D01*
X101969415Y-159914750D01*
X101940342Y-159896577D01*
X101912018Y-159877577D01*
X101884445Y-159857751D01*
X101857624Y-159837098D01*
X101831554Y-159815618D01*
X101806238Y-159793310D01*
X101781676Y-159770174D01*
X101757868Y-159746210D01*
X101734815Y-159721418D01*
X101712518Y-159695797D01*
X101690978Y-159669347D01*
X101670196Y-159642067D01*
X101650172Y-159613958D01*
X101630908Y-159585018D01*
X101612403Y-159555248D01*
X101594659Y-159524648D01*
X102017992Y-159312982D01*
X102033781Y-159348124D01*
X102050942Y-159381001D01*
X102069477Y-159411612D01*
X102089384Y-159439958D01*
X102110662Y-159466039D01*
X102133312Y-159489853D01*
X102157332Y-159511400D01*
X102182722Y-159530681D01*
X102209481Y-159547694D01*
X102237609Y-159562440D01*
X102267105Y-159574918D01*
X102297968Y-159585129D01*
X102330198Y-159593070D01*
X102363794Y-159598744D01*
X102398756Y-159602148D01*
X102435082Y-159603282D01*
X102462672Y-159602644D01*
X102489405Y-159600728D01*
X102515280Y-159597535D01*
X102540298Y-159593065D01*
X102564460Y-159587318D01*
X102587767Y-159580294D01*
X102610217Y-159571994D01*
X102631813Y-159562418D01*
X102642290Y-159557151D01*
X102652554Y-159551565D01*
X102662604Y-159545660D01*
X102672441Y-159539436D01*
X102682065Y-159532893D01*
X102691475Y-159526032D01*
X102700671Y-159518851D01*
X102709655Y-159511351D01*
X102718425Y-159503533D01*
X102726983Y-159495395D01*
X102743458Y-159478164D01*
X102759082Y-159459657D01*
X102773855Y-159439876D01*
X102787755Y-159419033D01*
X102800762Y-159397345D01*
X102812875Y-159374810D01*
X102824094Y-159351427D01*
X102834418Y-159327197D01*
X102843846Y-159302118D01*
X102852379Y-159276192D01*
X102860016Y-159249415D01*
X102866756Y-159221790D01*
X102872599Y-159193314D01*
X102877544Y-159163988D01*
X102881591Y-159133811D01*
X102884740Y-159102782D01*
X102886989Y-159070902D01*
X102888339Y-159038169D01*
X102888789Y-159004583D01*
X102888346Y-158967743D01*
X102887016Y-158932073D01*
X102884799Y-158897573D01*
X102881696Y-158864243D01*
X102877706Y-158832083D01*
X102872830Y-158801093D01*
X102867067Y-158771273D01*
X102860418Y-158742623D01*
X102852882Y-158715142D01*
X102844461Y-158688832D01*
X102835153Y-158663691D01*
X102824959Y-158639720D01*
X102813879Y-158616919D01*
X102801913Y-158595287D01*
X102789061Y-158574825D01*
X102775323Y-158555532D01*
X102760699Y-158537410D01*
X102745189Y-158520456D01*
X102728794Y-158504672D01*
X102711513Y-158490058D01*
X102693347Y-158476612D01*
X102674295Y-158464337D01*
X102654357Y-158453230D01*
X102633534Y-158443293D01*
X102611826Y-158434525D01*
X102589232Y-158426926D01*
X102565753Y-158420497D01*
X102541389Y-158415236D01*
X102516140Y-158411145D01*
X102490006Y-158408222D01*
X102462986Y-158406469D01*
X102435082Y-158405884D01*
X102422997Y-158406121D01*
X102410833Y-158406831D01*
X102398591Y-158408015D01*
X102386271Y-158409671D01*
X102373874Y-158411800D01*
X102361399Y-158414401D01*
X102348848Y-158417474D01*
X102336220Y-158421018D01*
X102323517Y-158425034D01*
X102310739Y-158429521D01*
X102297886Y-158434478D01*
X102284959Y-158439906D01*
X102271958Y-158445804D01*
X102258884Y-158452172D01*
X102245736Y-158459009D01*
X102232517Y-158466315D01*
X102219429Y-158474231D01*
X102206597Y-158482859D01*
X102194021Y-158492197D01*
X102181702Y-158502245D01*
X102169640Y-158513003D01*
X102157837Y-158524470D01*
X102146291Y-158536644D01*
X102135005Y-158549526D01*
X102123977Y-158563116D01*
X102113209Y-158577411D01*
X102102702Y-158592412D01*
X102092455Y-158608118D01*
X102082469Y-158624529D01*
X102072744Y-158641644D01*
X102063282Y-158659461D01*
X102054082Y-158677982D01*
X101606513Y-158442079D01*
X101606512Y-158442079D01*
X101641172Y-158382755D01*
X101678673Y-158327258D01*
X101719015Y-158275590D01*
X101762198Y-158227750D01*
X101808220Y-158183738D01*
X101857081Y-158143556D01*
X101908780Y-158107202D01*
X101963316Y-158074678D01*
X102020688Y-158045984D01*
X102080897Y-158021120D01*
X102143940Y-158000087D01*
X102209817Y-157982884D01*
X102278527Y-157969513D01*
X102350070Y-157959973D01*
X102424445Y-157954264D01*
X102501650Y-157952388D01*
X102554749Y-157953499D01*
G37*
%TD*%
M02*
