%TF.GenerationSoftware,KiCad,Pcbnew,9.0.1+1*%
%TF.CreationDate,2025-10-01T23:06:09+00:00*%
%TF.ProjectId,rcbus-opl3,72636275-732d-46f7-906c-332e6b696361,@version@*%
%TF.SameCoordinates,Original*%
%TF.FileFunction,Legend,Top*%
%TF.FilePolarity,Positive*%
%FSLAX46Y46*%
G04 Gerber Fmt 4.6, Leading zero omitted, Abs format (unit mm)*
G04 Created by KiCad (PCBNEW 9.0.1+1) date 2025-10-01 23:06:09*
%MOMM*%
%LPD*%
G01*
G04 APERTURE LIST*
%ADD10C,0.300000*%
%ADD11C,0.340000*%
%ADD12C,0.150000*%
%ADD13C,0.120000*%
%ADD14C,0.100000*%
%ADD15C,0.000000*%
G04 APERTURE END LIST*
D10*
G36*
X151598106Y-116714998D02*
G01*
X151645918Y-116725457D01*
X151734395Y-116754491D01*
X151734395Y-117321806D01*
X151648574Y-117364213D01*
X151595558Y-117379331D01*
X151533719Y-117384637D01*
X151465910Y-117377256D01*
X151416757Y-117357435D01*
X151379835Y-117321301D01*
X151352460Y-117258425D01*
X151338583Y-117179176D01*
X151332951Y-117054818D01*
X151339021Y-116922647D01*
X151353834Y-116840312D01*
X151372032Y-116793588D01*
X151394951Y-116760761D01*
X151422344Y-116738829D01*
X151474666Y-116718899D01*
X151547000Y-116711443D01*
X151598106Y-116714998D01*
G37*
G36*
X153365457Y-116729588D02*
G01*
X153406573Y-116736997D01*
X153441984Y-116752712D01*
X153470412Y-116779678D01*
X153490928Y-116817319D01*
X153507506Y-116877773D01*
X153516297Y-116949047D01*
X153519780Y-117054635D01*
X153516312Y-117159952D01*
X153507506Y-117232047D01*
X153490908Y-117293443D01*
X153470412Y-117331515D01*
X153441962Y-117358702D01*
X153406573Y-117374471D01*
X153365457Y-117381880D01*
X153312326Y-117384637D01*
X153259378Y-117381879D01*
X153218445Y-117374471D01*
X153183288Y-117358720D01*
X153154881Y-117331515D01*
X153134493Y-117293449D01*
X153118061Y-117232047D01*
X153109518Y-117159949D01*
X153106154Y-117054635D01*
X153109533Y-116949050D01*
X153118061Y-116877773D01*
X153134473Y-116817313D01*
X153154881Y-116779678D01*
X153183267Y-116752694D01*
X153218445Y-116736997D01*
X153259378Y-116729589D01*
X153312326Y-116726830D01*
X153365457Y-116729588D01*
G37*
G36*
X155113748Y-116729588D02*
G01*
X155154863Y-116736997D01*
X155190274Y-116752712D01*
X155218702Y-116779678D01*
X155239218Y-116817319D01*
X155255797Y-116877773D01*
X155264587Y-116949047D01*
X155268070Y-117054635D01*
X155264602Y-117159952D01*
X155255797Y-117232047D01*
X155239198Y-117293443D01*
X155218702Y-117331515D01*
X155190252Y-117358702D01*
X155154863Y-117374471D01*
X155113748Y-117381880D01*
X155060616Y-117384637D01*
X155007669Y-117381879D01*
X154966735Y-117374471D01*
X154931578Y-117358720D01*
X154903171Y-117331515D01*
X154882783Y-117293449D01*
X154866351Y-117232047D01*
X154857808Y-117159949D01*
X154854445Y-117054635D01*
X154857823Y-116949050D01*
X154866351Y-116877773D01*
X154882763Y-116817313D01*
X154903171Y-116779678D01*
X154931557Y-116752694D01*
X154966735Y-116736997D01*
X155007669Y-116729589D01*
X155060616Y-116726830D01*
X155113748Y-116729588D01*
G37*
G36*
X149177355Y-117017724D02*
G01*
X148795329Y-117017724D01*
X148986480Y-116335370D01*
X149177355Y-117017724D01*
G37*
G36*
X157843216Y-117801806D02*
G01*
X148138375Y-117801806D01*
X148138375Y-117622500D01*
X148305042Y-117622500D01*
X148625244Y-117622500D01*
X148722331Y-117297351D01*
X149251544Y-117297351D01*
X149350646Y-117622500D01*
X149673962Y-117622500D01*
X149570357Y-117293230D01*
X149803197Y-117293230D01*
X149813721Y-117398554D01*
X149842756Y-117480991D01*
X149888560Y-117545655D01*
X149933935Y-117583798D01*
X149987482Y-117611541D01*
X150050822Y-117628964D01*
X150126147Y-117635139D01*
X150233415Y-117625323D01*
X150334151Y-117596213D01*
X150428802Y-117553706D01*
X150509090Y-117507644D01*
X150563861Y-117622500D01*
X150820499Y-117622500D01*
X150820499Y-117070205D01*
X151021450Y-117070205D01*
X151027320Y-117206339D01*
X151043222Y-117314147D01*
X151066971Y-117398468D01*
X151104021Y-117476701D01*
X151149234Y-117535836D01*
X151202617Y-117579085D01*
X151264947Y-117609371D01*
X151338174Y-117628404D01*
X151424634Y-117635139D01*
X151481844Y-117631107D01*
X151538848Y-117618927D01*
X151594254Y-117599878D01*
X151646651Y-117575330D01*
X151695117Y-117545930D01*
X151734395Y-117515063D01*
X151784953Y-117622500D01*
X152045804Y-117622500D01*
X152278446Y-117622500D01*
X152589947Y-117622500D01*
X152589947Y-117056192D01*
X152794653Y-117056192D01*
X152802363Y-117213260D01*
X152822772Y-117331057D01*
X152846432Y-117402828D01*
X152876680Y-117461454D01*
X152913080Y-117508927D01*
X152957740Y-117548560D01*
X153010967Y-117580465D01*
X153074097Y-117604639D01*
X153178402Y-117625761D01*
X153312326Y-117633582D01*
X153449187Y-117626131D01*
X153553943Y-117606196D01*
X153617302Y-117582994D01*
X153670306Y-117552075D01*
X153714411Y-117513506D01*
X153750277Y-117467005D01*
X153780151Y-117408729D01*
X153803529Y-117336461D01*
X153823564Y-117217415D01*
X153831189Y-117056192D01*
X154542943Y-117056192D01*
X154550654Y-117213260D01*
X154571062Y-117331057D01*
X154594722Y-117402828D01*
X154624971Y-117461454D01*
X154661371Y-117508927D01*
X154706030Y-117548560D01*
X154759257Y-117580465D01*
X154822388Y-117604639D01*
X154926692Y-117625761D01*
X155060616Y-117633582D01*
X155197477Y-117626131D01*
X155302233Y-117606196D01*
X155365593Y-117582994D01*
X155418596Y-117552075D01*
X155462701Y-117513506D01*
X155498568Y-117467005D01*
X155528442Y-117408729D01*
X155551819Y-117336461D01*
X155559095Y-117293230D01*
X155780797Y-117293230D01*
X155791320Y-117398554D01*
X155820355Y-117480991D01*
X155866160Y-117545655D01*
X155911535Y-117583798D01*
X155965081Y-117611541D01*
X156028421Y-117628964D01*
X156103747Y-117635139D01*
X156211014Y-117625323D01*
X156311750Y-117596213D01*
X156406401Y-117553706D01*
X156486689Y-117507644D01*
X156541460Y-117622500D01*
X156798099Y-117622500D01*
X156798099Y-116544564D01*
X156936401Y-116544564D01*
X156936401Y-116744050D01*
X157112439Y-116744050D01*
X157102089Y-117221605D01*
X157104879Y-117321295D01*
X157116366Y-117399082D01*
X157134604Y-117459009D01*
X157163924Y-117512843D01*
X157202488Y-117554208D01*
X157251200Y-117584764D01*
X157306517Y-117604639D01*
X157375900Y-117617719D01*
X157462317Y-117622500D01*
X157665374Y-117622500D01*
X157665374Y-117392331D01*
X157523317Y-117378226D01*
X157480360Y-117367968D01*
X157443816Y-117342139D01*
X157430093Y-117322278D01*
X157419178Y-117294970D01*
X157410477Y-117220048D01*
X157410477Y-116744050D01*
X157676549Y-116744050D01*
X157676549Y-116495105D01*
X157410477Y-116495105D01*
X157410477Y-116179116D01*
X157164921Y-116179116D01*
X157123613Y-116495105D01*
X156936401Y-116544564D01*
X156798099Y-116544564D01*
X156798099Y-116495105D01*
X156486689Y-116495105D01*
X156486689Y-117278667D01*
X156435714Y-117311539D01*
X156376322Y-117337834D01*
X156314136Y-117354707D01*
X156256063Y-117360091D01*
X156186043Y-117351212D01*
X156136445Y-117327301D01*
X156113697Y-117301720D01*
X156098242Y-117261214D01*
X156092206Y-117199532D01*
X156092206Y-116495105D01*
X155780797Y-116495105D01*
X155780797Y-117293230D01*
X155559095Y-117293230D01*
X155571854Y-117217415D01*
X155579479Y-117056192D01*
X155571420Y-116893685D01*
X155550262Y-116774091D01*
X155525930Y-116701431D01*
X155495564Y-116643251D01*
X155459678Y-116597229D01*
X155415620Y-116559111D01*
X155362592Y-116528457D01*
X155299119Y-116505363D01*
X155194715Y-116485318D01*
X155060616Y-116477886D01*
X154927929Y-116484886D01*
X154823945Y-116503806D01*
X154760714Y-116525957D01*
X154707515Y-116556080D01*
X154662928Y-116594115D01*
X154626636Y-116640201D01*
X154596120Y-116698385D01*
X154571886Y-116770977D01*
X154550964Y-116890931D01*
X154543019Y-117054635D01*
X154542943Y-117056192D01*
X153831189Y-117056192D01*
X153823129Y-116893685D01*
X153801972Y-116774091D01*
X153777640Y-116701431D01*
X153747274Y-116643251D01*
X153711388Y-116597229D01*
X153667330Y-116559111D01*
X153614302Y-116528457D01*
X153550829Y-116505363D01*
X153446424Y-116485318D01*
X153312326Y-116477886D01*
X153179639Y-116484886D01*
X153075654Y-116503806D01*
X153012423Y-116525957D01*
X152959225Y-116556080D01*
X152914637Y-116594115D01*
X152878345Y-116640201D01*
X152847830Y-116698385D01*
X152823596Y-116770977D01*
X152802674Y-116890931D01*
X152794729Y-117054635D01*
X152794653Y-117056192D01*
X152589947Y-117056192D01*
X152589947Y-116495105D01*
X152278446Y-116495105D01*
X152278446Y-117622500D01*
X152045804Y-117622500D01*
X152045804Y-116081663D01*
X152272584Y-116081663D01*
X152272584Y-116287102D01*
X152277621Y-116310823D01*
X152291282Y-116324135D01*
X152316181Y-116329142D01*
X152555875Y-116329142D01*
X152578351Y-116324316D01*
X152591023Y-116311171D01*
X152595809Y-116287102D01*
X152595809Y-116081663D01*
X152585917Y-116049240D01*
X152573969Y-116039892D01*
X152555875Y-116036509D01*
X152316181Y-116036509D01*
X152291576Y-116041728D01*
X152277774Y-116055880D01*
X152272584Y-116081663D01*
X152045804Y-116081663D01*
X152045804Y-116020205D01*
X151734395Y-116020205D01*
X151734395Y-116530459D01*
X151599664Y-116493640D01*
X151523199Y-116481828D01*
X151445700Y-116477886D01*
X151339475Y-116485667D01*
X151256341Y-116506863D01*
X151191626Y-116539252D01*
X151137312Y-116586093D01*
X151093495Y-116648797D01*
X151060193Y-116730677D01*
X151039999Y-116818350D01*
X151026448Y-116929985D01*
X151021998Y-117054818D01*
X151021450Y-117070205D01*
X150820499Y-117070205D01*
X150820499Y-116495105D01*
X150509090Y-116495105D01*
X150509090Y-117278667D01*
X150458114Y-117311539D01*
X150398722Y-117337834D01*
X150336536Y-117354707D01*
X150278463Y-117360091D01*
X150208443Y-117351212D01*
X150158845Y-117327301D01*
X150136097Y-117301720D01*
X150120643Y-117261214D01*
X150114607Y-117199532D01*
X150114607Y-116495105D01*
X149803197Y-116495105D01*
X149803197Y-117293230D01*
X149570357Y-117293230D01*
X149184957Y-116068382D01*
X148794047Y-116068382D01*
X148495335Y-117017724D01*
X148305042Y-117622500D01*
X148138375Y-117622500D01*
X148138375Y-115853538D01*
X157843216Y-115853538D01*
X157843216Y-117801806D01*
G37*
D11*
G36*
X139858722Y-159574064D02*
G01*
X139940776Y-159590547D01*
X140016310Y-159620924D01*
X140082009Y-159667667D01*
X140135095Y-159730942D01*
X140177447Y-159818975D01*
X140202314Y-159922449D01*
X140211794Y-160065172D01*
X140206063Y-160169299D01*
X140190728Y-160248995D01*
X140165339Y-160319784D01*
X140135132Y-160372552D01*
X140097678Y-160416521D01*
X140056638Y-160449855D01*
X139966971Y-160497940D01*
X140255940Y-161122500D01*
X139939860Y-161122500D01*
X139688717Y-160547124D01*
X139631473Y-160546575D01*
X139565527Y-160545659D01*
X139498208Y-160544835D01*
X139437391Y-160543644D01*
X139437391Y-161122500D01*
X139125981Y-161122500D01*
X139125981Y-160298180D01*
X139437391Y-160298180D01*
X139714729Y-160298180D01*
X139755023Y-160295437D01*
X139789833Y-160287647D01*
X139821295Y-160273156D01*
X139848727Y-160250644D01*
X139870317Y-160220805D01*
X139887103Y-160179661D01*
X139896720Y-160131915D01*
X139900384Y-160066729D01*
X139896632Y-160003332D01*
X139886828Y-159957461D01*
X139869770Y-159918324D01*
X139848177Y-159891149D01*
X139820925Y-159871082D01*
X139789284Y-159857810D01*
X139714729Y-159848010D01*
X139437391Y-159848010D01*
X139437391Y-160298180D01*
X139125981Y-160298180D01*
X139125981Y-159568382D01*
X139768493Y-159568382D01*
X139858722Y-159574064D01*
G37*
G36*
X141030289Y-159987276D02*
G01*
X141139519Y-160011225D01*
X141201570Y-160039901D01*
X141249385Y-160078991D01*
X141285149Y-160129194D01*
X141308585Y-160187481D01*
X141324392Y-160265146D01*
X141330304Y-160367148D01*
X141324671Y-160441911D01*
X141309269Y-160500810D01*
X141285607Y-160547033D01*
X141252109Y-160586547D01*
X141210440Y-160617803D01*
X141159303Y-160641188D01*
X141073368Y-160661674D01*
X140966321Y-160669124D01*
X140681289Y-160669124D01*
X140691055Y-160749800D01*
X140708126Y-160805869D01*
X140739008Y-160849293D01*
X140789825Y-160879417D01*
X140856397Y-160895136D01*
X140964306Y-160901582D01*
X141293942Y-160901582D01*
X141293942Y-161084123D01*
X141113508Y-161117645D01*
X141011168Y-161129278D01*
X140881782Y-161133582D01*
X140757700Y-161127151D01*
X140659908Y-161109722D01*
X140583653Y-161083573D01*
X140516773Y-161042425D01*
X140463383Y-160984943D01*
X140422361Y-160908360D01*
X140396818Y-160823172D01*
X140379365Y-160709229D01*
X140372811Y-160559672D01*
X140375925Y-160483194D01*
X140678175Y-160483194D01*
X140934081Y-160483194D01*
X140991575Y-160476074D01*
X141026313Y-160458098D01*
X141047318Y-160426182D01*
X141055714Y-160368705D01*
X141050544Y-160310489D01*
X141037121Y-160270336D01*
X141013330Y-160239192D01*
X140978044Y-160218038D01*
X140933955Y-160206680D01*
X140870791Y-160202284D01*
X140804244Y-160208839D01*
X140757493Y-160226098D01*
X140722234Y-160257736D01*
X140696677Y-160311094D01*
X140683497Y-160378482D01*
X140678175Y-160483194D01*
X140375925Y-160483194D01*
X140379065Y-160406070D01*
X140395638Y-160290195D01*
X140419705Y-160204665D01*
X140458981Y-160127393D01*
X140510499Y-160069621D01*
X140575227Y-160028353D01*
X140649576Y-160002061D01*
X140746362Y-159984429D01*
X140870791Y-159977886D01*
X141030289Y-159987276D01*
G37*
G36*
X141797510Y-161122500D02*
G01*
X141419513Y-159995105D01*
X141740174Y-159995105D01*
X141982890Y-160834629D01*
X142234124Y-159995105D01*
X142551671Y-159995105D01*
X142156089Y-161122500D01*
X141797510Y-161122500D01*
G37*
G36*
X142734028Y-161125614D02*
G01*
X142709138Y-161120600D01*
X142695472Y-161107263D01*
X142690431Y-161083482D01*
X142690431Y-160868792D01*
X142695621Y-160843009D01*
X142709423Y-160828857D01*
X142734028Y-160823638D01*
X142913730Y-160823638D01*
X142939425Y-160828939D01*
X142953673Y-160843167D01*
X142958976Y-160868792D01*
X142958976Y-161083482D01*
X142955448Y-161104213D01*
X142946245Y-161116271D01*
X142913730Y-161125614D01*
X142734028Y-161125614D01*
G37*
G36*
X142734028Y-160293234D02*
G01*
X142709138Y-160288220D01*
X142695472Y-160274884D01*
X142690431Y-160251102D01*
X142690431Y-160036413D01*
X142695621Y-160010629D01*
X142709423Y-159996477D01*
X142734028Y-159991258D01*
X142913730Y-159991258D01*
X142939425Y-159996560D01*
X142953673Y-160010787D01*
X142958976Y-160036413D01*
X142958976Y-160251102D01*
X142955448Y-160271834D01*
X142946245Y-160283892D01*
X142913730Y-160293234D01*
X142734028Y-160293234D01*
G37*
G36*
X144544975Y-159561898D02*
G01*
X144617104Y-159578884D01*
X144677499Y-159605568D01*
X144731140Y-159643533D01*
X144774708Y-159690685D01*
X144809024Y-159748084D01*
X144832594Y-159811414D01*
X144847577Y-159885650D01*
X144852896Y-159972757D01*
X144852896Y-160730123D01*
X144845518Y-160827281D01*
X144824923Y-160907411D01*
X144792597Y-160973609D01*
X144748849Y-161028252D01*
X144693971Y-161072045D01*
X144628569Y-161104183D01*
X144550541Y-161124512D01*
X144457131Y-161131750D01*
X144132716Y-161131750D01*
X144047140Y-161126255D01*
X143973763Y-161110716D01*
X143910699Y-161086138D01*
X143853960Y-161050589D01*
X143807814Y-161005737D01*
X143771206Y-160950675D01*
X143745807Y-160888976D01*
X143729679Y-160816176D01*
X143723945Y-160730123D01*
X143723945Y-160003531D01*
X144035354Y-160003531D01*
X144035354Y-160682496D01*
X144041034Y-160739466D01*
X144056268Y-160781155D01*
X144079684Y-160811365D01*
X144111657Y-160833109D01*
X144153008Y-160847037D01*
X144206446Y-160852123D01*
X144374241Y-160852123D01*
X144429652Y-160846735D01*
X144470576Y-160832252D01*
X144500545Y-160809991D01*
X144522251Y-160779321D01*
X144536299Y-160738391D01*
X144541486Y-160684053D01*
X144541486Y-160003531D01*
X144535913Y-159943504D01*
X144521346Y-159901791D01*
X144499629Y-159873472D01*
X144452178Y-159845550D01*
X144386514Y-159835462D01*
X144195730Y-159835462D01*
X144145598Y-159840694D01*
X144106776Y-159855101D01*
X144076662Y-159877868D01*
X144054727Y-159908617D01*
X144040571Y-159949475D01*
X144035354Y-160003531D01*
X143723945Y-160003531D01*
X143723945Y-159972757D01*
X143729918Y-159882875D01*
X143746665Y-159807370D01*
X143772946Y-159743871D01*
X143810708Y-159686983D01*
X143857745Y-159640559D01*
X143915004Y-159603645D01*
X143978638Y-159577716D01*
X144051183Y-159561512D01*
X144134273Y-159555834D01*
X144458688Y-159555834D01*
X144544975Y-159561898D01*
G37*
G36*
X145124189Y-161125614D02*
G01*
X145099298Y-161120600D01*
X145085633Y-161107263D01*
X145080591Y-161083482D01*
X145080591Y-160868792D01*
X145085781Y-160843009D01*
X145099584Y-160828857D01*
X145124189Y-160823638D01*
X145303891Y-160823638D01*
X145329585Y-160828939D01*
X145343833Y-160843167D01*
X145349137Y-160868792D01*
X145349137Y-161083482D01*
X145345609Y-161104213D01*
X145336405Y-161116271D01*
X145303891Y-161125614D01*
X145124189Y-161125614D01*
G37*
G36*
X146394382Y-159561898D02*
G01*
X146466511Y-159578884D01*
X146526906Y-159605568D01*
X146580547Y-159643533D01*
X146624115Y-159690685D01*
X146658431Y-159748084D01*
X146682001Y-159811414D01*
X146696984Y-159885650D01*
X146702303Y-159972757D01*
X146702303Y-160730123D01*
X146694925Y-160827281D01*
X146674330Y-160907411D01*
X146642004Y-160973609D01*
X146598255Y-161028252D01*
X146543378Y-161072045D01*
X146477976Y-161104183D01*
X146399948Y-161124512D01*
X146306538Y-161131750D01*
X145982122Y-161131750D01*
X145896547Y-161126255D01*
X145823170Y-161110716D01*
X145760106Y-161086138D01*
X145703367Y-161050589D01*
X145657221Y-161005737D01*
X145620612Y-160950675D01*
X145595214Y-160888976D01*
X145579085Y-160816176D01*
X145573351Y-160730123D01*
X145573351Y-160003531D01*
X145884761Y-160003531D01*
X145884761Y-160682496D01*
X145890441Y-160739466D01*
X145905674Y-160781155D01*
X145929091Y-160811365D01*
X145961063Y-160833109D01*
X146002415Y-160847037D01*
X146055853Y-160852123D01*
X146223648Y-160852123D01*
X146279059Y-160846735D01*
X146319983Y-160832252D01*
X146349952Y-160809991D01*
X146371658Y-160779321D01*
X146385706Y-160738391D01*
X146390893Y-160684053D01*
X146390893Y-160003531D01*
X146385319Y-159943504D01*
X146370752Y-159901791D01*
X146349036Y-159873472D01*
X146301585Y-159845550D01*
X146235921Y-159835462D01*
X146045137Y-159835462D01*
X145995005Y-159840694D01*
X145956182Y-159855101D01*
X145926069Y-159877868D01*
X145904134Y-159908617D01*
X145889978Y-159949475D01*
X145884761Y-160003531D01*
X145573351Y-160003531D01*
X145573351Y-159972757D01*
X145579324Y-159882875D01*
X145596072Y-159807370D01*
X145622353Y-159743871D01*
X145660115Y-159686983D01*
X145707152Y-159640559D01*
X145764410Y-159603645D01*
X145828045Y-159577716D01*
X145900590Y-159561512D01*
X145983679Y-159555834D01*
X146308095Y-159555834D01*
X146394382Y-159561898D01*
G37*
G36*
X146973596Y-161125614D02*
G01*
X146948705Y-161120600D01*
X146935040Y-161107263D01*
X146929998Y-161083482D01*
X146929998Y-160868792D01*
X146935188Y-160843009D01*
X146948991Y-160828857D01*
X146973596Y-160823638D01*
X147153297Y-160823638D01*
X147178992Y-160828939D01*
X147193240Y-160843167D01*
X147198543Y-160868792D01*
X147198543Y-161083482D01*
X147195015Y-161104213D01*
X147185812Y-161116271D01*
X147153297Y-161125614D01*
X146973596Y-161125614D01*
G37*
G36*
X147501985Y-161122500D02*
G01*
X147501985Y-159852498D01*
X147225929Y-159886936D01*
X147225929Y-159687451D01*
X147535782Y-159554644D01*
X147813486Y-159554644D01*
X147813486Y-161122500D01*
X147501985Y-161122500D01*
G37*
G36*
X149057934Y-161133032D02*
G01*
X148961914Y-161126442D01*
X148883185Y-161107418D01*
X148818606Y-161077528D01*
X148761345Y-161035248D01*
X148712954Y-160982450D01*
X148672885Y-160917885D01*
X148629446Y-160807616D01*
X148599429Y-160668941D01*
X148583901Y-160519524D01*
X148578363Y-160345532D01*
X148584752Y-160163649D01*
X148602451Y-160011683D01*
X148623724Y-159915245D01*
X148652626Y-159832911D01*
X148688455Y-159762830D01*
X148735092Y-159700510D01*
X148792781Y-159649004D01*
X148862845Y-159607583D01*
X148939838Y-159579377D01*
X149034986Y-159560964D01*
X149151998Y-159554277D01*
X149347545Y-159562612D01*
X149516530Y-159586517D01*
X149676265Y-159622421D01*
X149676265Y-159863306D01*
X149558387Y-159849475D01*
X149395080Y-159838393D01*
X149208784Y-159833905D01*
X149120471Y-159840103D01*
X149054819Y-159856584D01*
X149006734Y-159881074D01*
X148967870Y-159917427D01*
X148936764Y-159969185D01*
X148914044Y-160040534D01*
X148896686Y-160162979D01*
X148889772Y-160346632D01*
X148893468Y-160491511D01*
X148903053Y-160595576D01*
X148922198Y-160686622D01*
X148947658Y-160747892D01*
X148984603Y-160795302D01*
X149030456Y-160825103D01*
X149085671Y-160841292D01*
X149157768Y-160847268D01*
X149243232Y-160843524D01*
X149322540Y-160832614D01*
X149449119Y-160802572D01*
X149449119Y-160499955D01*
X149170224Y-160499955D01*
X149170224Y-160255498D01*
X149275004Y-160245057D01*
X149402591Y-160237730D01*
X149529261Y-160234524D01*
X149650711Y-160235898D01*
X149748347Y-160240478D01*
X149748347Y-161122500D01*
X149515065Y-161122500D01*
X149471742Y-161017353D01*
X149404691Y-161051259D01*
X149300742Y-161092549D01*
X149186189Y-161122359D01*
X149057934Y-161133032D01*
G37*
G36*
X150038233Y-159829142D02*
G01*
X150013333Y-159824135D01*
X149999672Y-159810823D01*
X149994635Y-159787102D01*
X149994635Y-159581663D01*
X149999825Y-159555880D01*
X150013628Y-159541728D01*
X150038233Y-159536509D01*
X150277927Y-159536509D01*
X150296021Y-159539892D01*
X150307969Y-159549240D01*
X150317860Y-159581663D01*
X150317860Y-159787102D01*
X150313074Y-159811171D01*
X150300402Y-159824316D01*
X150277927Y-159829142D01*
X150038233Y-159829142D01*
G37*
G36*
X150000497Y-161122500D02*
G01*
X150000497Y-159995105D01*
X150311999Y-159995105D01*
X150311999Y-161122500D01*
X150000497Y-161122500D01*
G37*
G36*
X150979972Y-161122500D02*
G01*
X150893555Y-161117719D01*
X150824172Y-161104639D01*
X150768855Y-161084764D01*
X150720143Y-161054208D01*
X150681580Y-161012843D01*
X150652259Y-160959009D01*
X150634021Y-160899082D01*
X150622534Y-160821295D01*
X150619744Y-160721605D01*
X150630094Y-160244050D01*
X150454056Y-160244050D01*
X150454056Y-160044564D01*
X150641268Y-159995105D01*
X150682576Y-159679116D01*
X150928132Y-159679116D01*
X150928132Y-159995105D01*
X151194204Y-159995105D01*
X151194204Y-160244050D01*
X150928132Y-160244050D01*
X150928132Y-160720048D01*
X150936833Y-160794970D01*
X150947749Y-160822278D01*
X150961471Y-160842139D01*
X150998016Y-160867968D01*
X151040972Y-160878226D01*
X151183030Y-160892331D01*
X151183030Y-161122500D01*
X150979972Y-161122500D01*
G37*
G36*
X151403672Y-161125614D02*
G01*
X151378782Y-161120600D01*
X151365116Y-161107263D01*
X151360075Y-161083482D01*
X151360075Y-160868792D01*
X151365265Y-160843009D01*
X151379067Y-160828857D01*
X151403672Y-160823638D01*
X151583374Y-160823638D01*
X151609069Y-160828939D01*
X151623317Y-160843167D01*
X151628620Y-160868792D01*
X151628620Y-161083482D01*
X151625092Y-161104213D01*
X151615889Y-161116271D01*
X151583374Y-161125614D01*
X151403672Y-161125614D01*
G37*
G36*
X151403672Y-160293234D02*
G01*
X151378782Y-160288220D01*
X151365116Y-160274884D01*
X151360075Y-160251102D01*
X151360075Y-160036413D01*
X151365265Y-160010629D01*
X151379067Y-159996477D01*
X151403672Y-159991258D01*
X151583374Y-159991258D01*
X151609069Y-159996560D01*
X151623317Y-160010787D01*
X151628620Y-160036413D01*
X151628620Y-160251102D01*
X151625092Y-160271834D01*
X151615889Y-160283892D01*
X151583374Y-160293234D01*
X151403672Y-160293234D01*
G37*
G36*
X152296869Y-161135139D02*
G01*
X152196810Y-161128137D01*
X152107367Y-161107937D01*
X152026205Y-161071421D01*
X151956974Y-161016712D01*
X151919367Y-160971003D01*
X151886479Y-160913424D01*
X151858697Y-160841864D01*
X151833452Y-160723621D01*
X151823892Y-160563886D01*
X151832786Y-160398753D01*
X151856132Y-160277572D01*
X151882293Y-160203948D01*
X151913659Y-160144998D01*
X151949738Y-160098420D01*
X151993594Y-160059209D01*
X152043819Y-160028399D01*
X152101322Y-160005730D01*
X152195140Y-159985599D01*
X152306028Y-159978435D01*
X152406582Y-159981393D01*
X152501758Y-159990068D01*
X152596686Y-160005441D01*
X152698770Y-160029452D01*
X152698770Y-160208970D01*
X152402839Y-160208970D01*
X152311313Y-160216904D01*
X152247043Y-160237638D01*
X152212515Y-160261112D01*
X152184192Y-160295253D01*
X152161863Y-160342418D01*
X152143052Y-160426991D01*
X152135393Y-160561504D01*
X152143124Y-160694615D01*
X152161955Y-160776652D01*
X152184322Y-160821632D01*
X152212716Y-160853613D01*
X152247501Y-160874929D01*
X152312017Y-160893001D01*
X152405862Y-160900025D01*
X152714066Y-160900025D01*
X152714066Y-161076429D01*
X152593166Y-161106288D01*
X152446712Y-161127629D01*
X152296869Y-161135139D01*
G37*
G36*
X153499961Y-159988995D02*
G01*
X153605247Y-160013698D01*
X153667350Y-160042201D01*
X153717340Y-160080552D01*
X153756922Y-160129286D01*
X153784288Y-160186151D01*
X153802360Y-160260208D01*
X153809037Y-160355882D01*
X153809037Y-161122500D01*
X153563481Y-161122500D01*
X153512923Y-161003431D01*
X153461449Y-161040159D01*
X153374346Y-161083940D01*
X153320894Y-161104021D01*
X153259399Y-161120759D01*
X153194970Y-161131479D01*
X153126042Y-161135139D01*
X153044128Y-161126190D01*
X152975782Y-161100721D01*
X152918039Y-161059118D01*
X152874229Y-161003726D01*
X152847169Y-160935357D01*
X152837531Y-160850199D01*
X152837531Y-160752838D01*
X153148940Y-160752838D01*
X153148940Y-160798267D01*
X153153797Y-160839161D01*
X153166984Y-160869159D01*
X153188155Y-160892250D01*
X153215527Y-160907260D01*
X153282663Y-160918893D01*
X153330840Y-160914221D01*
X153385428Y-160901673D01*
X153437177Y-160886561D01*
X153477203Y-160872181D01*
X153497536Y-160863938D01*
X153497536Y-160600980D01*
X153309316Y-160614077D01*
X153233605Y-160629689D01*
X153187592Y-160656484D01*
X153159021Y-160697039D01*
X153148940Y-160752838D01*
X152837531Y-160752838D01*
X152837531Y-160748258D01*
X152847855Y-160666736D01*
X152877750Y-160597250D01*
X152927931Y-160536866D01*
X152974922Y-160502977D01*
X153035356Y-160477027D01*
X153112376Y-160459961D01*
X153209848Y-160453702D01*
X153497536Y-160453702D01*
X153497536Y-160377315D01*
X153492552Y-160327073D01*
X153479126Y-160289845D01*
X153453942Y-160261159D01*
X153408876Y-160239287D01*
X153350270Y-160227785D01*
X153251889Y-160222984D01*
X152914833Y-160222984D01*
X152914833Y-160043557D01*
X153000319Y-160019718D01*
X153104793Y-159998860D01*
X153218259Y-159985600D01*
X153365095Y-159980267D01*
X153499961Y-159988995D01*
G37*
G36*
X154595988Y-161135139D02*
G01*
X154430426Y-161132159D01*
X154276426Y-161123507D01*
X154127963Y-161108943D01*
X154001195Y-161090259D01*
X154001195Y-160841681D01*
X154478201Y-160841681D01*
X154559731Y-160838174D01*
X154618794Y-160829042D01*
X154668573Y-160810730D01*
X154700493Y-160784803D01*
X154719674Y-160748618D01*
X154726871Y-160695319D01*
X154726871Y-160630564D01*
X154719546Y-160578899D01*
X154699485Y-160541721D01*
X154668023Y-160513553D01*
X154626213Y-160493544D01*
X154578630Y-160481811D01*
X154522806Y-160476233D01*
X154140047Y-160460021D01*
X154140047Y-160221793D01*
X154509068Y-160201460D01*
X154598500Y-160188738D01*
X154656621Y-160166472D01*
X154684848Y-160142852D01*
X154702098Y-160110276D01*
X154708370Y-160065630D01*
X154708370Y-160012874D01*
X154701665Y-159960808D01*
X154683052Y-159921096D01*
X154652774Y-159890691D01*
X154613330Y-159870521D01*
X154553918Y-159856306D01*
X154467485Y-159850758D01*
X154034626Y-159850758D01*
X154034626Y-159602179D01*
X154295752Y-159568199D01*
X154438674Y-159557441D01*
X154592232Y-159555834D01*
X154682200Y-159562033D01*
X154758481Y-159577548D01*
X154823133Y-159601263D01*
X154882008Y-159635596D01*
X154929633Y-159678322D01*
X154967298Y-159730040D01*
X154993954Y-159788597D01*
X155010786Y-159857582D01*
X155016757Y-159939143D01*
X155016757Y-160054914D01*
X155012932Y-160113388D01*
X155002194Y-160162717D01*
X154984394Y-160207638D01*
X154961070Y-160245423D01*
X154932041Y-160277971D01*
X154898788Y-160304408D01*
X154861842Y-160325299D01*
X154821760Y-160340861D01*
X154864335Y-160356818D01*
X154904924Y-160381436D01*
X154941452Y-160413014D01*
X154973984Y-160451595D01*
X155000588Y-160495926D01*
X155021794Y-160549323D01*
X155034889Y-160607332D01*
X155039471Y-160673612D01*
X155039471Y-160753662D01*
X155031362Y-160845338D01*
X155008563Y-160921302D01*
X154972252Y-160984611D01*
X154922052Y-161037411D01*
X154861371Y-161078209D01*
X154788482Y-161108674D01*
X154700999Y-161128163D01*
X154595988Y-161135139D01*
G37*
G36*
X155810851Y-161135139D02*
G01*
X155645289Y-161132159D01*
X155491290Y-161123507D01*
X155342827Y-161108943D01*
X155216059Y-161090259D01*
X155216059Y-160841681D01*
X155693065Y-160841681D01*
X155774595Y-160838174D01*
X155833658Y-160829042D01*
X155883437Y-160810730D01*
X155915357Y-160784803D01*
X155934538Y-160748618D01*
X155941735Y-160695319D01*
X155941735Y-160630564D01*
X155934410Y-160578899D01*
X155914349Y-160541721D01*
X155882887Y-160513553D01*
X155841076Y-160493544D01*
X155793494Y-160481811D01*
X155737670Y-160476233D01*
X155354911Y-160460021D01*
X155354911Y-160221793D01*
X155723932Y-160201460D01*
X155813364Y-160188738D01*
X155871485Y-160166472D01*
X155899712Y-160142852D01*
X155916962Y-160110276D01*
X155923234Y-160065630D01*
X155923234Y-160012874D01*
X155916528Y-159960808D01*
X155897916Y-159921096D01*
X155867638Y-159890691D01*
X155828194Y-159870521D01*
X155768782Y-159856306D01*
X155682349Y-159850758D01*
X155249490Y-159850758D01*
X155249490Y-159602179D01*
X155510616Y-159568199D01*
X155653538Y-159557441D01*
X155807096Y-159555834D01*
X155897064Y-159562033D01*
X155973345Y-159577548D01*
X156037997Y-159601263D01*
X156096872Y-159635596D01*
X156144497Y-159678322D01*
X156182162Y-159730040D01*
X156208818Y-159788597D01*
X156225650Y-159857582D01*
X156231621Y-159939143D01*
X156231621Y-160054914D01*
X156227796Y-160113388D01*
X156217058Y-160162717D01*
X156199258Y-160207638D01*
X156175933Y-160245423D01*
X156146905Y-160277971D01*
X156113652Y-160304408D01*
X156076706Y-160325299D01*
X156036623Y-160340861D01*
X156079199Y-160356818D01*
X156119788Y-160381436D01*
X156156315Y-160413014D01*
X156188848Y-160451595D01*
X156215452Y-160495926D01*
X156236658Y-160549323D01*
X156249753Y-160607332D01*
X156254335Y-160673612D01*
X156254335Y-160753662D01*
X156246226Y-160845338D01*
X156223427Y-160921302D01*
X156187116Y-160984611D01*
X156136916Y-161037411D01*
X156076235Y-161078209D01*
X156003346Y-161108674D01*
X155915863Y-161128163D01*
X155810851Y-161135139D01*
G37*
G36*
X157010694Y-161133948D02*
G01*
X156741966Y-161123415D01*
X156475803Y-161099877D01*
X156475803Y-160854321D01*
X157023426Y-160854321D01*
X157094780Y-160847246D01*
X157142769Y-160828950D01*
X157179902Y-160799128D01*
X157203768Y-160762363D01*
X157217335Y-160720390D01*
X157221812Y-160677550D01*
X157221812Y-160570663D01*
X157211765Y-160502135D01*
X157184351Y-160453793D01*
X157156384Y-160431534D01*
X157116604Y-160416901D01*
X157060886Y-160411386D01*
X156939711Y-160411386D01*
X156876633Y-160419247D01*
X156835572Y-160439688D01*
X156807331Y-160473863D01*
X156790693Y-160525601D01*
X156495769Y-160525601D01*
X156539916Y-159568382D01*
X157473779Y-159568382D01*
X157473779Y-159848010D01*
X156807179Y-159848010D01*
X156789960Y-160216847D01*
X156826344Y-160187985D01*
X156877429Y-160165281D01*
X156935314Y-160151878D01*
X157002818Y-160147146D01*
X157171986Y-160147146D01*
X157251987Y-160153066D01*
X157318309Y-160169613D01*
X157373395Y-160195598D01*
X157422333Y-160231936D01*
X157461980Y-160275500D01*
X157493105Y-160327031D01*
X157522885Y-160413902D01*
X157533221Y-160514243D01*
X157533221Y-160743221D01*
X157525907Y-160831701D01*
X157505427Y-160904762D01*
X157473046Y-160965329D01*
X157427933Y-161016997D01*
X157369943Y-161059509D01*
X157296825Y-161093007D01*
X157218334Y-161114734D01*
X157123856Y-161128860D01*
X157010694Y-161133948D01*
G37*
G36*
X157823016Y-161122500D02*
G01*
X157823016Y-160244050D01*
X157663372Y-160244050D01*
X157663372Y-160044564D01*
X157823016Y-159995105D01*
X157823016Y-159919634D01*
X157827843Y-159824416D01*
X157841083Y-159747321D01*
X157861209Y-159685344D01*
X157892082Y-159629100D01*
X157931922Y-159584788D01*
X157981468Y-159550888D01*
X158037946Y-159528019D01*
X158108897Y-159513037D01*
X158197531Y-159507566D01*
X158269423Y-159510276D01*
X158331712Y-159517916D01*
X158431363Y-159538615D01*
X158431363Y-159761090D01*
X158259539Y-159761090D01*
X158214607Y-159765267D01*
X158184434Y-159776019D01*
X158161387Y-159794666D01*
X158145874Y-159821632D01*
X158137688Y-159855014D01*
X158134517Y-159902781D01*
X158134517Y-159995105D01*
X158421746Y-159995105D01*
X158421746Y-160244050D01*
X158134517Y-160244050D01*
X158134517Y-161122500D01*
X157823016Y-161122500D01*
G37*
G36*
X159237090Y-161121400D02*
G01*
X159237090Y-160792497D01*
X158556660Y-160792497D01*
X158498775Y-160645860D01*
X159002159Y-159568382D01*
X159320346Y-159568382D01*
X158867612Y-160528165D01*
X159237090Y-160528165D01*
X159237090Y-160224999D01*
X159298456Y-160046488D01*
X159548591Y-160046488D01*
X159548591Y-160528165D01*
X159708418Y-160528165D01*
X159708418Y-160743038D01*
X159548591Y-160792497D01*
X159548591Y-161121400D01*
X159237090Y-161121400D01*
G37*
D10*
G36*
X61095804Y-161122500D02*
G01*
X61095804Y-160873555D01*
X61615400Y-160357073D01*
X61674136Y-160296273D01*
X61717616Y-160243958D01*
X61752977Y-160190667D01*
X61777058Y-160140277D01*
X61791891Y-160087512D01*
X61796933Y-160030368D01*
X61791310Y-159976573D01*
X61775593Y-159933373D01*
X61747990Y-159898395D01*
X61704701Y-159871823D01*
X61650184Y-159856704D01*
X61568872Y-159850758D01*
X61132898Y-159850758D01*
X61132898Y-159605293D01*
X61355739Y-159571588D01*
X61482100Y-159559987D01*
X61630238Y-159555834D01*
X61751026Y-159562349D01*
X61844433Y-159579864D01*
X61915727Y-159605935D01*
X61979608Y-159645226D01*
X62028424Y-159693357D01*
X62064105Y-159751106D01*
X62087958Y-159815892D01*
X62103080Y-159891345D01*
X62108435Y-159979351D01*
X62101196Y-160081583D01*
X62080499Y-160171051D01*
X62046092Y-160255026D01*
X61997518Y-160335915D01*
X61937236Y-160412883D01*
X61859398Y-160495559D01*
X61509246Y-160841773D01*
X62156062Y-160841773D01*
X62156062Y-161122500D01*
X61095804Y-161122500D01*
G37*
G36*
X63165037Y-159561898D02*
G01*
X63237166Y-159578884D01*
X63297561Y-159605568D01*
X63351202Y-159643533D01*
X63394770Y-159690685D01*
X63429086Y-159748084D01*
X63452656Y-159811414D01*
X63467639Y-159885650D01*
X63472958Y-159972757D01*
X63472958Y-160730123D01*
X63465580Y-160827281D01*
X63444985Y-160907411D01*
X63412660Y-160973609D01*
X63368911Y-161028252D01*
X63314033Y-161072045D01*
X63248631Y-161104183D01*
X63170603Y-161124512D01*
X63077193Y-161131750D01*
X62752778Y-161131750D01*
X62667203Y-161126255D01*
X62593825Y-161110716D01*
X62530761Y-161086138D01*
X62474022Y-161050589D01*
X62427877Y-161005737D01*
X62391268Y-160950675D01*
X62365869Y-160888976D01*
X62349741Y-160816176D01*
X62344007Y-160730123D01*
X62344007Y-160003531D01*
X62655416Y-160003531D01*
X62655416Y-160682496D01*
X62661097Y-160739466D01*
X62676330Y-160781155D01*
X62699747Y-160811365D01*
X62731719Y-160833109D01*
X62773070Y-160847037D01*
X62826509Y-160852123D01*
X62994303Y-160852123D01*
X63049714Y-160846735D01*
X63090638Y-160832252D01*
X63120607Y-160809991D01*
X63142314Y-160779321D01*
X63156362Y-160738391D01*
X63161549Y-160684053D01*
X63161549Y-160003531D01*
X63155975Y-159943504D01*
X63141408Y-159901791D01*
X63119692Y-159873472D01*
X63072240Y-159845550D01*
X63006577Y-159835462D01*
X62815792Y-159835462D01*
X62765660Y-159840694D01*
X62726838Y-159855101D01*
X62696724Y-159877868D01*
X62674789Y-159908617D01*
X62660633Y-159949475D01*
X62655416Y-160003531D01*
X62344007Y-160003531D01*
X62344007Y-159972757D01*
X62349980Y-159882875D01*
X62366727Y-159807370D01*
X62393008Y-159743871D01*
X62430770Y-159686983D01*
X62477807Y-159640559D01*
X62535066Y-159603645D01*
X62598701Y-159577716D01*
X62671245Y-159561512D01*
X62754335Y-159555834D01*
X63078750Y-159555834D01*
X63165037Y-159561898D01*
G37*
G36*
X63683801Y-161122500D02*
G01*
X63683801Y-160873555D01*
X64203397Y-160357073D01*
X64262133Y-160296273D01*
X64305613Y-160243958D01*
X64340974Y-160190667D01*
X64365055Y-160140277D01*
X64379889Y-160087512D01*
X64384931Y-160030368D01*
X64379307Y-159976573D01*
X64363590Y-159933373D01*
X64335987Y-159898395D01*
X64292698Y-159871823D01*
X64238181Y-159856704D01*
X64156869Y-159850758D01*
X63720895Y-159850758D01*
X63720895Y-159605293D01*
X63943736Y-159571588D01*
X64070097Y-159559987D01*
X64218235Y-159555834D01*
X64339024Y-159562349D01*
X64432430Y-159579864D01*
X64503724Y-159605935D01*
X64567605Y-159645226D01*
X64616421Y-159693357D01*
X64652102Y-159751106D01*
X64675955Y-159815892D01*
X64691077Y-159891345D01*
X64696432Y-159979351D01*
X64689193Y-160081583D01*
X64668497Y-160171051D01*
X64634090Y-160255026D01*
X64585515Y-160335915D01*
X64525234Y-160412883D01*
X64447396Y-160495559D01*
X64097243Y-160841773D01*
X64744059Y-160841773D01*
X64744059Y-161122500D01*
X63683801Y-161122500D01*
G37*
G36*
X65476605Y-161133948D02*
G01*
X65207876Y-161123415D01*
X64941713Y-161099877D01*
X64941713Y-160854321D01*
X65489336Y-160854321D01*
X65560690Y-160847246D01*
X65608679Y-160828950D01*
X65645813Y-160799128D01*
X65669678Y-160762363D01*
X65683246Y-160720390D01*
X65687722Y-160677550D01*
X65687722Y-160570663D01*
X65677675Y-160502135D01*
X65650261Y-160453793D01*
X65622294Y-160431534D01*
X65582514Y-160416901D01*
X65526796Y-160411386D01*
X65405621Y-160411386D01*
X65342543Y-160419247D01*
X65301482Y-160439688D01*
X65273241Y-160473863D01*
X65256603Y-160525601D01*
X64961680Y-160525601D01*
X65005826Y-159568382D01*
X65939689Y-159568382D01*
X65939689Y-159848010D01*
X65273089Y-159848010D01*
X65255870Y-160216847D01*
X65292254Y-160187985D01*
X65343340Y-160165281D01*
X65401224Y-160151878D01*
X65468728Y-160147146D01*
X65637896Y-160147146D01*
X65717897Y-160153066D01*
X65784219Y-160169613D01*
X65839305Y-160195598D01*
X65888243Y-160231936D01*
X65927890Y-160275500D01*
X65959015Y-160327031D01*
X65988795Y-160413902D01*
X65999132Y-160514243D01*
X65999132Y-160743221D01*
X65991817Y-160831701D01*
X65971337Y-160904762D01*
X65938956Y-160965329D01*
X65893843Y-161016997D01*
X65835853Y-161059509D01*
X65762735Y-161093007D01*
X65684244Y-161114734D01*
X65589766Y-161128860D01*
X65476605Y-161133948D01*
G37*
G36*
X67144203Y-161133399D02*
G01*
X67028157Y-161123415D01*
X66964819Y-161107809D01*
X66903502Y-161080368D01*
X66849948Y-161039228D01*
X66804858Y-160978335D01*
X66784443Y-160930749D01*
X66770922Y-160869256D01*
X66765932Y-160790482D01*
X66765932Y-159924305D01*
X66774572Y-159825712D01*
X66797897Y-159751198D01*
X66835664Y-159688062D01*
X66881520Y-159641838D01*
X66936088Y-159607662D01*
X66996558Y-159585143D01*
X67059912Y-159572503D01*
X67121122Y-159568382D01*
X67399101Y-159573420D01*
X67616263Y-159583037D01*
X67792393Y-159594852D01*
X67792393Y-159855703D01*
X67213263Y-159855703D01*
X67154050Y-159864166D01*
X67113062Y-159887028D01*
X67087074Y-159924819D01*
X67077342Y-159984206D01*
X67077342Y-160208146D01*
X67693017Y-160225182D01*
X67693017Y-160470646D01*
X67077342Y-160487682D01*
X67077342Y-160702921D01*
X67082313Y-160753541D01*
X67095110Y-160787276D01*
X67116158Y-160813036D01*
X67142829Y-160829408D01*
X67173632Y-160838446D01*
X67206577Y-160841498D01*
X67792393Y-160841498D01*
X67792393Y-161102349D01*
X67588237Y-161118927D01*
X67362373Y-161129186D01*
X67144203Y-161133399D01*
G37*
G36*
X68994617Y-161122500D02*
G01*
X68733766Y-161122500D01*
X68683208Y-161015063D01*
X68643930Y-161045930D01*
X68595464Y-161075330D01*
X68543067Y-161099878D01*
X68487661Y-161118927D01*
X68430656Y-161131107D01*
X68373447Y-161135139D01*
X68286987Y-161128404D01*
X68213760Y-161109371D01*
X68151430Y-161079085D01*
X68098047Y-161035836D01*
X68052834Y-160976701D01*
X68015784Y-160898468D01*
X67992035Y-160814147D01*
X67976133Y-160706339D01*
X67970263Y-160570205D01*
X67970811Y-160554818D01*
X68281764Y-160554818D01*
X68287396Y-160679176D01*
X68301273Y-160758425D01*
X68328648Y-160821301D01*
X68365570Y-160857435D01*
X68414723Y-160877256D01*
X68482532Y-160884637D01*
X68544371Y-160879331D01*
X68597387Y-160864213D01*
X68683208Y-160821806D01*
X68683208Y-160254491D01*
X68594731Y-160225457D01*
X68546919Y-160214998D01*
X68495812Y-160211443D01*
X68423479Y-160218899D01*
X68371157Y-160238829D01*
X68343764Y-160260761D01*
X68320845Y-160293588D01*
X68302647Y-160340312D01*
X68287834Y-160422647D01*
X68281764Y-160554818D01*
X67970811Y-160554818D01*
X67975261Y-160429985D01*
X67988812Y-160318350D01*
X68009006Y-160230677D01*
X68042308Y-160148797D01*
X68086125Y-160086093D01*
X68140439Y-160039252D01*
X68205154Y-160006863D01*
X68288288Y-159985667D01*
X68394513Y-159977886D01*
X68472012Y-159981828D01*
X68548477Y-159993640D01*
X68683208Y-160030459D01*
X68683208Y-159520205D01*
X68994617Y-159520205D01*
X68994617Y-161122500D01*
G37*
G36*
X70512037Y-159576351D02*
G01*
X70604118Y-159598073D01*
X70676128Y-159631172D01*
X70731917Y-159674628D01*
X70776779Y-159730678D01*
X70809807Y-159798006D01*
X70830769Y-159878894D01*
X70838254Y-159976329D01*
X70831268Y-160065357D01*
X70811784Y-160138537D01*
X70779421Y-160202889D01*
X70737321Y-160253300D01*
X70684841Y-160291205D01*
X70622282Y-160315307D01*
X70670948Y-160331754D01*
X70719552Y-160355791D01*
X70764428Y-160387569D01*
X70805556Y-160429796D01*
X70839346Y-160480128D01*
X70866281Y-160541995D01*
X70882859Y-160610732D01*
X70888812Y-160694128D01*
X70881994Y-160798432D01*
X70863389Y-160880979D01*
X70835048Y-160945912D01*
X70793679Y-161002559D01*
X70741462Y-161047350D01*
X70676871Y-161081192D01*
X70606061Y-161103228D01*
X70521885Y-161117420D01*
X70422064Y-161122500D01*
X69783308Y-161122500D01*
X69783308Y-160842872D01*
X70094718Y-160842872D01*
X70412814Y-160842872D01*
X70466017Y-160837475D01*
X70508526Y-160822447D01*
X70543598Y-160796346D01*
X70570533Y-160757418D01*
X70586575Y-160708584D01*
X70592698Y-160639265D01*
X70586632Y-160582152D01*
X70569709Y-160536591D01*
X70542243Y-160498723D01*
X70506511Y-160471012D01*
X70463884Y-160453915D01*
X70412814Y-160447931D01*
X70094718Y-160447931D01*
X70094718Y-160842872D01*
X69783308Y-160842872D01*
X69783308Y-160209795D01*
X70094718Y-160209795D01*
X70395961Y-160209795D01*
X70438570Y-160204016D01*
X70473349Y-160187481D01*
X70502206Y-160159786D01*
X70530965Y-160104194D01*
X70542140Y-160030001D01*
X70537087Y-159962683D01*
X70522035Y-159917284D01*
X70499367Y-159887577D01*
X70450704Y-159858044D01*
X70392022Y-159848010D01*
X70094718Y-159848010D01*
X70094718Y-160209795D01*
X69783308Y-160209795D01*
X69783308Y-159568382D01*
X70395045Y-159568382D01*
X70512037Y-159576351D01*
G37*
G36*
X71083993Y-161122500D02*
G01*
X71083993Y-159995105D01*
X71324969Y-159995105D01*
X71395494Y-160167296D01*
X71460406Y-160095274D01*
X71532881Y-160034764D01*
X71586521Y-160004396D01*
X71646876Y-159985863D01*
X71715605Y-159979443D01*
X71761400Y-159981824D01*
X71807471Y-159990525D01*
X71807471Y-160309629D01*
X71740609Y-160302759D01*
X71675671Y-160300103D01*
X71616184Y-160303624D01*
X71565121Y-160313567D01*
X71517565Y-160330257D01*
X71474262Y-160353226D01*
X71434362Y-160382634D01*
X71395494Y-160420454D01*
X71395494Y-161122500D01*
X71083993Y-161122500D01*
G37*
G36*
X72009795Y-159829142D02*
G01*
X71984896Y-159824135D01*
X71971235Y-159810823D01*
X71966198Y-159787102D01*
X71966198Y-159581663D01*
X71971388Y-159555880D01*
X71985190Y-159541728D01*
X72009795Y-159536509D01*
X72249489Y-159536509D01*
X72267583Y-159539892D01*
X72279531Y-159549240D01*
X72289423Y-159581663D01*
X72289423Y-159787102D01*
X72284637Y-159811171D01*
X72271965Y-159824316D01*
X72249489Y-159829142D01*
X72009795Y-159829142D01*
G37*
G36*
X71972060Y-161122500D02*
G01*
X71972060Y-159995105D01*
X72283561Y-159995105D01*
X72283561Y-161122500D01*
X71972060Y-161122500D01*
G37*
G36*
X72521606Y-161122500D02*
G01*
X72521606Y-159995105D01*
X72778336Y-159995105D01*
X72833107Y-160109960D01*
X72901936Y-160062436D01*
X72992110Y-160017270D01*
X73089584Y-159986400D01*
X73188389Y-159976237D01*
X73278742Y-159983156D01*
X73348384Y-160001904D01*
X73401705Y-160030459D01*
X73447183Y-160070676D01*
X73482495Y-160118968D01*
X73508225Y-160176547D01*
X73530977Y-160271470D01*
X73538908Y-160379330D01*
X73538908Y-161122500D01*
X73227499Y-161122500D01*
X73227499Y-160419172D01*
X73222105Y-160367465D01*
X73207440Y-160328588D01*
X73183489Y-160297014D01*
X73152211Y-160274366D01*
X73114581Y-160260762D01*
X73067123Y-160255865D01*
X72981027Y-160266215D01*
X72903816Y-160295249D01*
X72833107Y-160339030D01*
X72833107Y-161122500D01*
X72521606Y-161122500D01*
G37*
G36*
X74761191Y-161122500D02*
G01*
X74500340Y-161122500D01*
X74449781Y-161015063D01*
X74410504Y-161045930D01*
X74362037Y-161075330D01*
X74309641Y-161099878D01*
X74254234Y-161118927D01*
X74197230Y-161131107D01*
X74140020Y-161135139D01*
X74053561Y-161128404D01*
X73980333Y-161109371D01*
X73918004Y-161079085D01*
X73864620Y-161035836D01*
X73819408Y-160976701D01*
X73782357Y-160898468D01*
X73758609Y-160814147D01*
X73742707Y-160706339D01*
X73736837Y-160570205D01*
X73737385Y-160554818D01*
X74048338Y-160554818D01*
X74053970Y-160679176D01*
X74067847Y-160758425D01*
X74095221Y-160821301D01*
X74132144Y-160857435D01*
X74181297Y-160877256D01*
X74249105Y-160884637D01*
X74310944Y-160879331D01*
X74363961Y-160864213D01*
X74449781Y-160821806D01*
X74449781Y-160254491D01*
X74361304Y-160225457D01*
X74313493Y-160214998D01*
X74262386Y-160211443D01*
X74190053Y-160218899D01*
X74137731Y-160238829D01*
X74110338Y-160260761D01*
X74087419Y-160293588D01*
X74069221Y-160340312D01*
X74054408Y-160422647D01*
X74048338Y-160554818D01*
X73737385Y-160554818D01*
X73741834Y-160429985D01*
X73755385Y-160318350D01*
X73775580Y-160230677D01*
X73808881Y-160148797D01*
X73852698Y-160086093D01*
X73907013Y-160039252D01*
X73971728Y-160006863D01*
X74054862Y-159985667D01*
X74161086Y-159977886D01*
X74238586Y-159981828D01*
X74315051Y-159993640D01*
X74449781Y-160030459D01*
X74449781Y-159520205D01*
X74761191Y-159520205D01*
X74761191Y-161122500D01*
G37*
G36*
X75347649Y-161127079D02*
G01*
X75268857Y-161122278D01*
X75203660Y-161108934D01*
X75149812Y-161088244D01*
X75101810Y-161057594D01*
X75062983Y-161017903D01*
X75032484Y-160968077D01*
X75012059Y-160912534D01*
X74998695Y-160843548D01*
X74993832Y-160758333D01*
X74993832Y-159520205D01*
X75305334Y-159520205D01*
X75305334Y-160712355D01*
X75309042Y-160772455D01*
X75318431Y-160812830D01*
X75335361Y-160845540D01*
X75357632Y-160866686D01*
X75385971Y-160880646D01*
X75422204Y-160889950D01*
X75508941Y-160901582D01*
X75508941Y-161127079D01*
X75347649Y-161127079D01*
G37*
G36*
X76274497Y-159987276D02*
G01*
X76383727Y-160011225D01*
X76445778Y-160039901D01*
X76493593Y-160078991D01*
X76529357Y-160129194D01*
X76552792Y-160187481D01*
X76568599Y-160265146D01*
X76574511Y-160367148D01*
X76568878Y-160441911D01*
X76553476Y-160500810D01*
X76529815Y-160547033D01*
X76496316Y-160586547D01*
X76454648Y-160617803D01*
X76403510Y-160641188D01*
X76317575Y-160661674D01*
X76210528Y-160669124D01*
X75925497Y-160669124D01*
X75935262Y-160749800D01*
X75952333Y-160805869D01*
X75983215Y-160849293D01*
X76034032Y-160879417D01*
X76100605Y-160895136D01*
X76208513Y-160901582D01*
X76538149Y-160901582D01*
X76538149Y-161084123D01*
X76357715Y-161117645D01*
X76255376Y-161129278D01*
X76125990Y-161133582D01*
X76001907Y-161127151D01*
X75904115Y-161109722D01*
X75827861Y-161083573D01*
X75760981Y-161042425D01*
X75707590Y-160984943D01*
X75666569Y-160908360D01*
X75641026Y-160823172D01*
X75623572Y-160709229D01*
X75617018Y-160559672D01*
X75620132Y-160483194D01*
X75922383Y-160483194D01*
X76178288Y-160483194D01*
X76235783Y-160476074D01*
X76270520Y-160458098D01*
X76291526Y-160426182D01*
X76299921Y-160368705D01*
X76294751Y-160310489D01*
X76281328Y-160270336D01*
X76257537Y-160239192D01*
X76222252Y-160218038D01*
X76178162Y-160206680D01*
X76114999Y-160202284D01*
X76048451Y-160208839D01*
X76001700Y-160226098D01*
X75966441Y-160257736D01*
X75940884Y-160311094D01*
X75927704Y-160378482D01*
X75922383Y-160483194D01*
X75620132Y-160483194D01*
X75623273Y-160406070D01*
X75639845Y-160290195D01*
X75663913Y-160204665D01*
X75703188Y-160127393D01*
X75754707Y-160069621D01*
X75819434Y-160028353D01*
X75893783Y-160002061D01*
X75990570Y-159984429D01*
X76114999Y-159977886D01*
X76274497Y-159987276D01*
G37*
G36*
X77109311Y-161620205D02*
G01*
X77232135Y-161122500D01*
X77141471Y-161112898D01*
X77066172Y-161086779D01*
X77001208Y-161043886D01*
X76948111Y-160984930D01*
X76907609Y-160912714D01*
X76875846Y-160820890D01*
X76663721Y-159995105D01*
X76987037Y-159995105D01*
X77164266Y-160757601D01*
X77177386Y-160795158D01*
X77191743Y-160820249D01*
X77227189Y-160852581D01*
X77262085Y-160865770D01*
X77287273Y-160868792D01*
X77489781Y-159995105D01*
X77806411Y-159995105D01*
X77470180Y-161412294D01*
X77367964Y-161620205D01*
X77109311Y-161620205D01*
G37*
D12*
X67909523Y-151554819D02*
X67338095Y-151554819D01*
X67623809Y-151554819D02*
X67623809Y-150554819D01*
X67623809Y-150554819D02*
X67528571Y-150697676D01*
X67528571Y-150697676D02*
X67433333Y-150792914D01*
X67433333Y-150792914D02*
X67338095Y-150840533D01*
X68528571Y-150554819D02*
X68623809Y-150554819D01*
X68623809Y-150554819D02*
X68719047Y-150602438D01*
X68719047Y-150602438D02*
X68766666Y-150650057D01*
X68766666Y-150650057D02*
X68814285Y-150745295D01*
X68814285Y-150745295D02*
X68861904Y-150935771D01*
X68861904Y-150935771D02*
X68861904Y-151173866D01*
X68861904Y-151173866D02*
X68814285Y-151364342D01*
X68814285Y-151364342D02*
X68766666Y-151459580D01*
X68766666Y-151459580D02*
X68719047Y-151507200D01*
X68719047Y-151507200D02*
X68623809Y-151554819D01*
X68623809Y-151554819D02*
X68528571Y-151554819D01*
X68528571Y-151554819D02*
X68433333Y-151507200D01*
X68433333Y-151507200D02*
X68385714Y-151459580D01*
X68385714Y-151459580D02*
X68338095Y-151364342D01*
X68338095Y-151364342D02*
X68290476Y-151173866D01*
X68290476Y-151173866D02*
X68290476Y-150935771D01*
X68290476Y-150935771D02*
X68338095Y-150745295D01*
X68338095Y-150745295D02*
X68385714Y-150650057D01*
X68385714Y-150650057D02*
X68433333Y-150602438D01*
X68433333Y-150602438D02*
X68528571Y-150554819D01*
D10*
G36*
X62774938Y-139074998D02*
G01*
X62822749Y-139085457D01*
X62911226Y-139114491D01*
X62911226Y-139681806D01*
X62825405Y-139724213D01*
X62772389Y-139739331D01*
X62710550Y-139744637D01*
X62642742Y-139737256D01*
X62593588Y-139717435D01*
X62556666Y-139681301D01*
X62529291Y-139618425D01*
X62515415Y-139539176D01*
X62509783Y-139414818D01*
X62515853Y-139282647D01*
X62530665Y-139200312D01*
X62548863Y-139153588D01*
X62571783Y-139120761D01*
X62599175Y-139098829D01*
X62651498Y-139078899D01*
X62723831Y-139071443D01*
X62774938Y-139074998D01*
G37*
G36*
X63998594Y-139074998D02*
G01*
X64046406Y-139085457D01*
X64134883Y-139114491D01*
X64134883Y-139681806D01*
X64049062Y-139724213D01*
X63996046Y-139739331D01*
X63934207Y-139744637D01*
X63866399Y-139737256D01*
X63817245Y-139717435D01*
X63780323Y-139681301D01*
X63752948Y-139618425D01*
X63739071Y-139539176D01*
X63733439Y-139414818D01*
X63739509Y-139282647D01*
X63754322Y-139200312D01*
X63772520Y-139153588D01*
X63795439Y-139120761D01*
X63822832Y-139098829D01*
X63875154Y-139078899D01*
X63947488Y-139071443D01*
X63998594Y-139074998D01*
G37*
G36*
X66094806Y-139066680D02*
G01*
X66138895Y-139078038D01*
X66174181Y-139099192D01*
X66197972Y-139130336D01*
X66211395Y-139170489D01*
X66216565Y-139228705D01*
X66208169Y-139286182D01*
X66187164Y-139318098D01*
X66152426Y-139336074D01*
X66094932Y-139343194D01*
X65839026Y-139343194D01*
X65844348Y-139238482D01*
X65857528Y-139171094D01*
X65883085Y-139117736D01*
X65918344Y-139086098D01*
X65965095Y-139068839D01*
X66031642Y-139062284D01*
X66094806Y-139066680D01*
G37*
G36*
X61613014Y-139377724D02*
G01*
X61230988Y-139377724D01*
X61422139Y-138695370D01*
X61613014Y-139377724D01*
G37*
G36*
X64417808Y-137203938D02*
G01*
X64397475Y-137212181D01*
X64357449Y-137226561D01*
X64305700Y-137241673D01*
X64251112Y-137254221D01*
X64202935Y-137258893D01*
X64135799Y-137247260D01*
X64108427Y-137232250D01*
X64087256Y-137209159D01*
X64074068Y-137179161D01*
X64069212Y-137138267D01*
X64069212Y-137092838D01*
X64079293Y-137037039D01*
X64107864Y-136996484D01*
X64153877Y-136969689D01*
X64229588Y-136954077D01*
X64417808Y-136940980D01*
X64417808Y-137203938D01*
G37*
G36*
X66548365Y-136546680D02*
G01*
X66592454Y-136558038D01*
X66627740Y-136579192D01*
X66651531Y-136610336D01*
X66664954Y-136650489D01*
X66670124Y-136708705D01*
X66661728Y-136766182D01*
X66640723Y-136798098D01*
X66605985Y-136816074D01*
X66548491Y-136823194D01*
X66292585Y-136823194D01*
X66297907Y-136718482D01*
X66311087Y-136651094D01*
X66336644Y-136597736D01*
X66371903Y-136566098D01*
X66418654Y-136548839D01*
X66485201Y-136542284D01*
X66548365Y-136546680D01*
G37*
G36*
X63186145Y-136793915D02*
G01*
X63228772Y-136811012D01*
X63264504Y-136838723D01*
X63291970Y-136876591D01*
X63308893Y-136922152D01*
X63314960Y-136979265D01*
X63308836Y-137048584D01*
X63292795Y-137097418D01*
X63265860Y-137136346D01*
X63230787Y-137162447D01*
X63188278Y-137177475D01*
X63135075Y-137182872D01*
X62816979Y-137182872D01*
X62816979Y-136787931D01*
X63135075Y-136787931D01*
X63186145Y-136793915D01*
G37*
G36*
X63172966Y-136198044D02*
G01*
X63221628Y-136227577D01*
X63244296Y-136257284D01*
X63259348Y-136302683D01*
X63264401Y-136370001D01*
X63253226Y-136444194D01*
X63224468Y-136499786D01*
X63195610Y-136527481D01*
X63160832Y-136544016D01*
X63118222Y-136549795D01*
X62816979Y-136549795D01*
X62816979Y-136188010D01*
X63114284Y-136188010D01*
X63172966Y-136198044D01*
G37*
G36*
X68787497Y-140161806D02*
G01*
X60574034Y-140161806D01*
X60574034Y-139982500D01*
X60740701Y-139982500D01*
X61060903Y-139982500D01*
X61157990Y-139657351D01*
X61687203Y-139657351D01*
X61786305Y-139982500D01*
X62109621Y-139982500D01*
X61935841Y-139430205D01*
X62198281Y-139430205D01*
X62204151Y-139566339D01*
X62220054Y-139674147D01*
X62243802Y-139758468D01*
X62280853Y-139836701D01*
X62326065Y-139895836D01*
X62379448Y-139939085D01*
X62441778Y-139969371D01*
X62515006Y-139988404D01*
X62601465Y-139995139D01*
X62658675Y-139991107D01*
X62715679Y-139978927D01*
X62771086Y-139959878D01*
X62823482Y-139935330D01*
X62871948Y-139905930D01*
X62911226Y-139875063D01*
X62961784Y-139982500D01*
X63222636Y-139982500D01*
X63222636Y-139430205D01*
X63421938Y-139430205D01*
X63427808Y-139566339D01*
X63443710Y-139674147D01*
X63467459Y-139758468D01*
X63504509Y-139836701D01*
X63549722Y-139895836D01*
X63603105Y-139939085D01*
X63665435Y-139969371D01*
X63738662Y-139988404D01*
X63825122Y-139995139D01*
X63882332Y-139991107D01*
X63939336Y-139978927D01*
X63994742Y-139959878D01*
X64047139Y-139935330D01*
X64095605Y-139905930D01*
X64134883Y-139875063D01*
X64185441Y-139982500D01*
X64446293Y-139982500D01*
X64446293Y-138855105D01*
X64678934Y-138855105D01*
X64678934Y-139982500D01*
X64990435Y-139982500D01*
X64990435Y-139419672D01*
X65533662Y-139419672D01*
X65540216Y-139569229D01*
X65557669Y-139683172D01*
X65583212Y-139768360D01*
X65624234Y-139844943D01*
X65677624Y-139902425D01*
X65744504Y-139943573D01*
X65820759Y-139969722D01*
X65918551Y-139987151D01*
X66042633Y-139993582D01*
X66172019Y-139989278D01*
X66274359Y-139977645D01*
X66454793Y-139944123D01*
X66454793Y-139761582D01*
X66125157Y-139761582D01*
X66017249Y-139755136D01*
X65950676Y-139739417D01*
X65899859Y-139709293D01*
X65868977Y-139665869D01*
X65851906Y-139609800D01*
X65842140Y-139529124D01*
X66127172Y-139529124D01*
X66234219Y-139521674D01*
X66320154Y-139501188D01*
X66371291Y-139477803D01*
X66412960Y-139446547D01*
X66446458Y-139407033D01*
X66470120Y-139360810D01*
X66485522Y-139301911D01*
X66491155Y-139227148D01*
X66488060Y-139173750D01*
X66648875Y-139173750D01*
X66648875Y-139239146D01*
X66654551Y-139314055D01*
X66670120Y-139373447D01*
X66694121Y-139420405D01*
X66727868Y-139460911D01*
X66768495Y-139492744D01*
X66816944Y-139516484D01*
X66897699Y-139537910D01*
X66991334Y-139545427D01*
X67168013Y-139545427D01*
X67234220Y-139552453D01*
X67268397Y-139568874D01*
X67288732Y-139596216D01*
X67295874Y-139634087D01*
X67295874Y-139670449D01*
X67292042Y-139704114D01*
X67282044Y-139726686D01*
X67265128Y-139743107D01*
X67239637Y-139754071D01*
X67167463Y-139761582D01*
X66668383Y-139761582D01*
X66668383Y-139944123D01*
X66755578Y-139966746D01*
X66868235Y-139982500D01*
X66990326Y-139991750D01*
X67104448Y-139995139D01*
X67245798Y-139987522D01*
X67353301Y-139967204D01*
X67417936Y-139943235D01*
X67468760Y-139911803D01*
X67508090Y-139873140D01*
X67536567Y-139826223D01*
X67554733Y-139767398D01*
X67561305Y-139693530D01*
X67561305Y-139592688D01*
X67551807Y-139502836D01*
X67525358Y-139431424D01*
X67483086Y-139374335D01*
X67441979Y-139342105D01*
X67388608Y-139317508D01*
X67320017Y-139301330D01*
X67232493Y-139295383D01*
X67051326Y-139295383D01*
X66975213Y-139288697D01*
X66947335Y-139278473D01*
X66929143Y-139263235D01*
X66918357Y-139241608D01*
X66914214Y-139208463D01*
X66914214Y-139173750D01*
X67708400Y-139173750D01*
X67708400Y-139239146D01*
X67714077Y-139314055D01*
X67729645Y-139373447D01*
X67753646Y-139420405D01*
X67787394Y-139460911D01*
X67828021Y-139492744D01*
X67876470Y-139516484D01*
X67957225Y-139537910D01*
X68050859Y-139545427D01*
X68227538Y-139545427D01*
X68293745Y-139552453D01*
X68327922Y-139568874D01*
X68348257Y-139596216D01*
X68355399Y-139634087D01*
X68355399Y-139670449D01*
X68351568Y-139704114D01*
X68341569Y-139726686D01*
X68324653Y-139743107D01*
X68299162Y-139754071D01*
X68226989Y-139761582D01*
X67727909Y-139761582D01*
X67727909Y-139944123D01*
X67815104Y-139966746D01*
X67927761Y-139982500D01*
X68049851Y-139991750D01*
X68163974Y-139995139D01*
X68305324Y-139987522D01*
X68412827Y-139967204D01*
X68477461Y-139943235D01*
X68528286Y-139911803D01*
X68567616Y-139873140D01*
X68596093Y-139826223D01*
X68614259Y-139767398D01*
X68620830Y-139693530D01*
X68620830Y-139592688D01*
X68611333Y-139502836D01*
X68584883Y-139431424D01*
X68542611Y-139374335D01*
X68501505Y-139342105D01*
X68448133Y-139317508D01*
X68379542Y-139301330D01*
X68292018Y-139295383D01*
X68110851Y-139295383D01*
X68034739Y-139288697D01*
X68006860Y-139278473D01*
X67988669Y-139263235D01*
X67977882Y-139241608D01*
X67973739Y-139208463D01*
X67973739Y-139173750D01*
X67982484Y-139125776D01*
X68005338Y-139098920D01*
X68041453Y-139084419D01*
X68098395Y-139078679D01*
X68570180Y-139078679D01*
X68570180Y-138896138D01*
X68458989Y-138870676D01*
X68310153Y-138851899D01*
X68161409Y-138844664D01*
X68046541Y-138849623D01*
X67957809Y-138862910D01*
X67890391Y-138882491D01*
X67828307Y-138913106D01*
X67782380Y-138950026D01*
X67749799Y-138993316D01*
X67727531Y-139043596D01*
X67713418Y-139103113D01*
X67708400Y-139173750D01*
X66914214Y-139173750D01*
X66922959Y-139125776D01*
X66945813Y-139098920D01*
X66981928Y-139084419D01*
X67038869Y-139078679D01*
X67510655Y-139078679D01*
X67510655Y-138896138D01*
X67399463Y-138870676D01*
X67250628Y-138851899D01*
X67101884Y-138844664D01*
X66987016Y-138849623D01*
X66898284Y-138862910D01*
X66830866Y-138882491D01*
X66768782Y-138913106D01*
X66722855Y-138950026D01*
X66690274Y-138993316D01*
X66668006Y-139043596D01*
X66653893Y-139103113D01*
X66648875Y-139173750D01*
X66488060Y-139173750D01*
X66485243Y-139125146D01*
X66469436Y-139047481D01*
X66446000Y-138989194D01*
X66410236Y-138938991D01*
X66362421Y-138899901D01*
X66300371Y-138871225D01*
X66191141Y-138847276D01*
X66031642Y-138837886D01*
X65907213Y-138844429D01*
X65810427Y-138862061D01*
X65736078Y-138888353D01*
X65671350Y-138929621D01*
X65619832Y-138987393D01*
X65580556Y-139064665D01*
X65556489Y-139150195D01*
X65539916Y-139266070D01*
X65536776Y-139343194D01*
X65533662Y-139419672D01*
X64990435Y-139419672D01*
X64990435Y-139280454D01*
X65029303Y-139242634D01*
X65069203Y-139213226D01*
X65112506Y-139190257D01*
X65160062Y-139173567D01*
X65211125Y-139163624D01*
X65270612Y-139160103D01*
X65335550Y-139162759D01*
X65402412Y-139169629D01*
X65402412Y-138850525D01*
X65356341Y-138841824D01*
X65310546Y-138839443D01*
X65241817Y-138845863D01*
X65181462Y-138864396D01*
X65127822Y-138894764D01*
X65055347Y-138955274D01*
X64990435Y-139027296D01*
X64919910Y-138855105D01*
X64678934Y-138855105D01*
X64446293Y-138855105D01*
X64446293Y-138380205D01*
X64134883Y-138380205D01*
X64134883Y-138890459D01*
X64000152Y-138853640D01*
X63923687Y-138841828D01*
X63846188Y-138837886D01*
X63739963Y-138845667D01*
X63656829Y-138866863D01*
X63592114Y-138899252D01*
X63537800Y-138946093D01*
X63493983Y-139008797D01*
X63460681Y-139090677D01*
X63440487Y-139178350D01*
X63426936Y-139289985D01*
X63422486Y-139414818D01*
X63421938Y-139430205D01*
X63222636Y-139430205D01*
X63222636Y-138380205D01*
X62911226Y-138380205D01*
X62911226Y-138890459D01*
X62776496Y-138853640D01*
X62700031Y-138841828D01*
X62622531Y-138837886D01*
X62516307Y-138845667D01*
X62433173Y-138866863D01*
X62368458Y-138899252D01*
X62314143Y-138946093D01*
X62270326Y-139008797D01*
X62237024Y-139090677D01*
X62216830Y-139178350D01*
X62203279Y-139289985D01*
X62198829Y-139414818D01*
X62198281Y-139430205D01*
X61935841Y-139430205D01*
X61620616Y-138428382D01*
X61229706Y-138428382D01*
X60930994Y-139377724D01*
X60740701Y-139982500D01*
X60574034Y-139982500D01*
X60574034Y-136549795D01*
X62505569Y-136549795D01*
X62505569Y-137182872D01*
X62505569Y-137462500D01*
X63144326Y-137462500D01*
X63244146Y-137457420D01*
X63328322Y-137443228D01*
X63399132Y-137421192D01*
X63463723Y-137387350D01*
X63515940Y-137342559D01*
X63557310Y-137285912D01*
X63585651Y-137220979D01*
X63604255Y-137138432D01*
X63607535Y-137088258D01*
X63757802Y-137088258D01*
X63757802Y-137092838D01*
X63757802Y-137190199D01*
X63767441Y-137275357D01*
X63794501Y-137343726D01*
X63838311Y-137399118D01*
X63896054Y-137440721D01*
X63964400Y-137466190D01*
X64046314Y-137475139D01*
X64115242Y-137471479D01*
X64179671Y-137460759D01*
X64241166Y-137444021D01*
X64294618Y-137423940D01*
X64381721Y-137380159D01*
X64433195Y-137343431D01*
X64483753Y-137462500D01*
X64729309Y-137462500D01*
X64729309Y-136695882D01*
X64726369Y-136653750D01*
X64915972Y-136653750D01*
X64915972Y-136719146D01*
X64921648Y-136794055D01*
X64937217Y-136853447D01*
X64961218Y-136900405D01*
X64994965Y-136940911D01*
X65035592Y-136972744D01*
X65084041Y-136996484D01*
X65164796Y-137017910D01*
X65258431Y-137025427D01*
X65435110Y-137025427D01*
X65501317Y-137032453D01*
X65535494Y-137048874D01*
X65555829Y-137076216D01*
X65562971Y-137114087D01*
X65562971Y-137150449D01*
X65559139Y-137184114D01*
X65549141Y-137206686D01*
X65532225Y-137223107D01*
X65506734Y-137234071D01*
X65434560Y-137241582D01*
X64935480Y-137241582D01*
X64935480Y-137424123D01*
X65022675Y-137446746D01*
X65135332Y-137462500D01*
X65257423Y-137471750D01*
X65371546Y-137475139D01*
X65512895Y-137467522D01*
X65620398Y-137447204D01*
X65685033Y-137423235D01*
X65735857Y-137391803D01*
X65775187Y-137353140D01*
X65803664Y-137306223D01*
X65821830Y-137247398D01*
X65828402Y-137173530D01*
X65828402Y-137072688D01*
X65818904Y-136982836D01*
X65792455Y-136911424D01*
X65783753Y-136899672D01*
X65987221Y-136899672D01*
X65993775Y-137049229D01*
X66011228Y-137163172D01*
X66036771Y-137248360D01*
X66077793Y-137324943D01*
X66131183Y-137382425D01*
X66198063Y-137423573D01*
X66274318Y-137449722D01*
X66372110Y-137467151D01*
X66496192Y-137473582D01*
X66625578Y-137469278D01*
X66727918Y-137457645D01*
X66908352Y-137424123D01*
X66908352Y-137241582D01*
X66578716Y-137241582D01*
X66470808Y-137235136D01*
X66404235Y-137219417D01*
X66353418Y-137189293D01*
X66322536Y-137145869D01*
X66305465Y-137089800D01*
X66295699Y-137009124D01*
X66580731Y-137009124D01*
X66687778Y-137001674D01*
X66773713Y-136981188D01*
X66824850Y-136957803D01*
X66866519Y-136926547D01*
X66900017Y-136887033D01*
X66923679Y-136840810D01*
X66939081Y-136781911D01*
X66944714Y-136707148D01*
X66938802Y-136605146D01*
X66922995Y-136527481D01*
X66899559Y-136469194D01*
X66863795Y-136418991D01*
X66815980Y-136379901D01*
X66753929Y-136351225D01*
X66644699Y-136327276D01*
X66485201Y-136317886D01*
X66360772Y-136324429D01*
X66263986Y-136342061D01*
X66189637Y-136368353D01*
X66124909Y-136409621D01*
X66073391Y-136467393D01*
X66034115Y-136544665D01*
X66010048Y-136630195D01*
X65993475Y-136746070D01*
X65990335Y-136823194D01*
X65987221Y-136899672D01*
X65783753Y-136899672D01*
X65750183Y-136854335D01*
X65709077Y-136822105D01*
X65655705Y-136797508D01*
X65587114Y-136781330D01*
X65499590Y-136775383D01*
X65318423Y-136775383D01*
X65242311Y-136768697D01*
X65214432Y-136758473D01*
X65196240Y-136743235D01*
X65185454Y-136721608D01*
X65181311Y-136688463D01*
X65181311Y-136653750D01*
X65190056Y-136605776D01*
X65212910Y-136578920D01*
X65249025Y-136564419D01*
X65305966Y-136558679D01*
X65777752Y-136558679D01*
X65777752Y-136376138D01*
X65666560Y-136350676D01*
X65517725Y-136331899D01*
X65368981Y-136324664D01*
X65254113Y-136329623D01*
X65165381Y-136342910D01*
X65097963Y-136362491D01*
X65035879Y-136393106D01*
X64989952Y-136430026D01*
X64957371Y-136473316D01*
X64935103Y-136523596D01*
X64920990Y-136583113D01*
X64915972Y-136653750D01*
X64726369Y-136653750D01*
X64722632Y-136600208D01*
X64704560Y-136526151D01*
X64677194Y-136469286D01*
X64637612Y-136420552D01*
X64587622Y-136382201D01*
X64525519Y-136353698D01*
X64420232Y-136328995D01*
X64285367Y-136320267D01*
X64138531Y-136325600D01*
X64025065Y-136338860D01*
X63920591Y-136359718D01*
X63835105Y-136383557D01*
X63835105Y-136562984D01*
X64172160Y-136562984D01*
X64270542Y-136567785D01*
X64329148Y-136579287D01*
X64374214Y-136601159D01*
X64399398Y-136629845D01*
X64412824Y-136667073D01*
X64417808Y-136717315D01*
X64417808Y-136793702D01*
X64130120Y-136793702D01*
X64032648Y-136799961D01*
X63955627Y-136817027D01*
X63895194Y-136842977D01*
X63848203Y-136876866D01*
X63798021Y-136937250D01*
X63768127Y-137006736D01*
X63757802Y-137088258D01*
X63607535Y-137088258D01*
X63611074Y-137034128D01*
X63605120Y-136950732D01*
X63588542Y-136881995D01*
X63561607Y-136820128D01*
X63527817Y-136769796D01*
X63486689Y-136727569D01*
X63441813Y-136695791D01*
X63393210Y-136671754D01*
X63344544Y-136655307D01*
X63407102Y-136631205D01*
X63459582Y-136593300D01*
X63501683Y-136542889D01*
X63534046Y-136478537D01*
X63553530Y-136405357D01*
X63560515Y-136316329D01*
X63553030Y-136218894D01*
X63532068Y-136138006D01*
X63499041Y-136070678D01*
X63454178Y-136014628D01*
X63398390Y-135971172D01*
X63326380Y-135938073D01*
X63234298Y-135916351D01*
X63117306Y-135908382D01*
X62505569Y-135908382D01*
X62505569Y-136549795D01*
X60574034Y-136549795D01*
X60574034Y-135741715D01*
X68787497Y-135741715D01*
X68787497Y-140161806D01*
G37*
D12*
X67528571Y-143483390D02*
X67433333Y-143435771D01*
X67433333Y-143435771D02*
X67385714Y-143388152D01*
X67385714Y-143388152D02*
X67338095Y-143292914D01*
X67338095Y-143292914D02*
X67338095Y-143245295D01*
X67338095Y-143245295D02*
X67385714Y-143150057D01*
X67385714Y-143150057D02*
X67433333Y-143102438D01*
X67433333Y-143102438D02*
X67528571Y-143054819D01*
X67528571Y-143054819D02*
X67719047Y-143054819D01*
X67719047Y-143054819D02*
X67814285Y-143102438D01*
X67814285Y-143102438D02*
X67861904Y-143150057D01*
X67861904Y-143150057D02*
X67909523Y-143245295D01*
X67909523Y-143245295D02*
X67909523Y-143292914D01*
X67909523Y-143292914D02*
X67861904Y-143388152D01*
X67861904Y-143388152D02*
X67814285Y-143435771D01*
X67814285Y-143435771D02*
X67719047Y-143483390D01*
X67719047Y-143483390D02*
X67528571Y-143483390D01*
X67528571Y-143483390D02*
X67433333Y-143531009D01*
X67433333Y-143531009D02*
X67385714Y-143578628D01*
X67385714Y-143578628D02*
X67338095Y-143673866D01*
X67338095Y-143673866D02*
X67338095Y-143864342D01*
X67338095Y-143864342D02*
X67385714Y-143959580D01*
X67385714Y-143959580D02*
X67433333Y-144007200D01*
X67433333Y-144007200D02*
X67528571Y-144054819D01*
X67528571Y-144054819D02*
X67719047Y-144054819D01*
X67719047Y-144054819D02*
X67814285Y-144007200D01*
X67814285Y-144007200D02*
X67861904Y-143959580D01*
X67861904Y-143959580D02*
X67909523Y-143864342D01*
X67909523Y-143864342D02*
X67909523Y-143673866D01*
X67909523Y-143673866D02*
X67861904Y-143578628D01*
X67861904Y-143578628D02*
X67814285Y-143531009D01*
X67814285Y-143531009D02*
X67719047Y-143483390D01*
X68528571Y-143054819D02*
X68623809Y-143054819D01*
X68623809Y-143054819D02*
X68719047Y-143102438D01*
X68719047Y-143102438D02*
X68766666Y-143150057D01*
X68766666Y-143150057D02*
X68814285Y-143245295D01*
X68814285Y-143245295D02*
X68861904Y-143435771D01*
X68861904Y-143435771D02*
X68861904Y-143673866D01*
X68861904Y-143673866D02*
X68814285Y-143864342D01*
X68814285Y-143864342D02*
X68766666Y-143959580D01*
X68766666Y-143959580D02*
X68719047Y-144007200D01*
X68719047Y-144007200D02*
X68623809Y-144054819D01*
X68623809Y-144054819D02*
X68528571Y-144054819D01*
X68528571Y-144054819D02*
X68433333Y-144007200D01*
X68433333Y-144007200D02*
X68385714Y-143959580D01*
X68385714Y-143959580D02*
X68338095Y-143864342D01*
X68338095Y-143864342D02*
X68290476Y-143673866D01*
X68290476Y-143673866D02*
X68290476Y-143435771D01*
X68290476Y-143435771D02*
X68338095Y-143245295D01*
X68338095Y-143245295D02*
X68385714Y-143150057D01*
X68385714Y-143150057D02*
X68433333Y-143102438D01*
X68433333Y-143102438D02*
X68528571Y-143054819D01*
X67338095Y-148150057D02*
X67385714Y-148102438D01*
X67385714Y-148102438D02*
X67480952Y-148054819D01*
X67480952Y-148054819D02*
X67719047Y-148054819D01*
X67719047Y-148054819D02*
X67814285Y-148102438D01*
X67814285Y-148102438D02*
X67861904Y-148150057D01*
X67861904Y-148150057D02*
X67909523Y-148245295D01*
X67909523Y-148245295D02*
X67909523Y-148340533D01*
X67909523Y-148340533D02*
X67861904Y-148483390D01*
X67861904Y-148483390D02*
X67290476Y-149054819D01*
X67290476Y-149054819D02*
X67909523Y-149054819D01*
X68528571Y-148054819D02*
X68623809Y-148054819D01*
X68623809Y-148054819D02*
X68719047Y-148102438D01*
X68719047Y-148102438D02*
X68766666Y-148150057D01*
X68766666Y-148150057D02*
X68814285Y-148245295D01*
X68814285Y-148245295D02*
X68861904Y-148435771D01*
X68861904Y-148435771D02*
X68861904Y-148673866D01*
X68861904Y-148673866D02*
X68814285Y-148864342D01*
X68814285Y-148864342D02*
X68766666Y-148959580D01*
X68766666Y-148959580D02*
X68719047Y-149007200D01*
X68719047Y-149007200D02*
X68623809Y-149054819D01*
X68623809Y-149054819D02*
X68528571Y-149054819D01*
X68528571Y-149054819D02*
X68433333Y-149007200D01*
X68433333Y-149007200D02*
X68385714Y-148959580D01*
X68385714Y-148959580D02*
X68338095Y-148864342D01*
X68338095Y-148864342D02*
X68290476Y-148673866D01*
X68290476Y-148673866D02*
X68290476Y-148435771D01*
X68290476Y-148435771D02*
X68338095Y-148245295D01*
X68338095Y-148245295D02*
X68385714Y-148150057D01*
X68385714Y-148150057D02*
X68433333Y-148102438D01*
X68433333Y-148102438D02*
X68528571Y-148054819D01*
D10*
G36*
X88155894Y-126235419D02*
G01*
X88265300Y-126257397D01*
X88366013Y-126297899D01*
X88453611Y-126360223D01*
X88524392Y-126444589D01*
X88580861Y-126561967D01*
X88614018Y-126699933D01*
X88626657Y-126890230D01*
X88619016Y-127029066D01*
X88598569Y-127135327D01*
X88564717Y-127229713D01*
X88524441Y-127300069D01*
X88474503Y-127358695D01*
X88419783Y-127403140D01*
X88300226Y-127467254D01*
X88685519Y-128300000D01*
X88264078Y-128300000D01*
X87929221Y-127532833D01*
X87852896Y-127532100D01*
X87764968Y-127530879D01*
X87675209Y-127529780D01*
X87594120Y-127528192D01*
X87594120Y-128300000D01*
X87178907Y-128300000D01*
X87178907Y-127200907D01*
X87594120Y-127200907D01*
X87963904Y-127200907D01*
X88017630Y-127197250D01*
X88064043Y-127186863D01*
X88105993Y-127167541D01*
X88142568Y-127137526D01*
X88171355Y-127097740D01*
X88193736Y-127042882D01*
X88206559Y-126979220D01*
X88211444Y-126892306D01*
X88206442Y-126807776D01*
X88193370Y-126746615D01*
X88170626Y-126694432D01*
X88141835Y-126658199D01*
X88105499Y-126631442D01*
X88063311Y-126613747D01*
X87963904Y-126600680D01*
X87594120Y-126600680D01*
X87594120Y-127200907D01*
X87178907Y-127200907D01*
X87178907Y-126227843D01*
X88035589Y-126227843D01*
X88155894Y-126235419D01*
G37*
G36*
X89630373Y-128316852D02*
G01*
X89456113Y-128305759D01*
X89311270Y-128274842D01*
X89223413Y-128239089D01*
X89145481Y-128188216D01*
X89076186Y-128121214D01*
X89020650Y-128042030D01*
X88971633Y-127937119D01*
X88930495Y-127800767D01*
X88904743Y-127660313D01*
X88887423Y-127481515D01*
X88881036Y-127257327D01*
X88887616Y-127042814D01*
X88905562Y-126869546D01*
X88932449Y-126731350D01*
X88974776Y-126597177D01*
X89025042Y-126492375D01*
X89082048Y-126411880D01*
X89152565Y-126343315D01*
X89231500Y-126290907D01*
X89320062Y-126253611D01*
X89465545Y-126220698D01*
X89636357Y-126209036D01*
X89773838Y-126212980D01*
X89898185Y-126224302D01*
X90118248Y-126260938D01*
X90283478Y-126306001D01*
X90283478Y-126627180D01*
X90147069Y-126606297D01*
X89952651Y-126588834D01*
X89722941Y-126581873D01*
X89610662Y-126588815D01*
X89523883Y-126607519D01*
X89450110Y-126644478D01*
X89392114Y-126704727D01*
X89351238Y-126785906D01*
X89319330Y-126910380D01*
X89302728Y-127054773D01*
X89296249Y-127261357D01*
X89301812Y-127460195D01*
X89316277Y-127603907D01*
X89345099Y-127729179D01*
X89383565Y-127812002D01*
X89439788Y-127874432D01*
X89513869Y-127914829D01*
X89602678Y-127936000D01*
X89723307Y-127944016D01*
X90069033Y-127935467D01*
X90283478Y-127914951D01*
X90283478Y-128236252D01*
X90110188Y-128278995D01*
X89894521Y-128306716D01*
X89630373Y-128316852D01*
G37*
G36*
X91544544Y-126238468D02*
G01*
X91667320Y-126267430D01*
X91763333Y-126311563D01*
X91837718Y-126369504D01*
X91897534Y-126444238D01*
X91941571Y-126534008D01*
X91969520Y-126641859D01*
X91979501Y-126771772D01*
X91970186Y-126890476D01*
X91944207Y-126988049D01*
X91901057Y-127073852D01*
X91844923Y-127141067D01*
X91774950Y-127191607D01*
X91691538Y-127223743D01*
X91756426Y-127245672D01*
X91821231Y-127277721D01*
X91881066Y-127320092D01*
X91935903Y-127376395D01*
X91980957Y-127443504D01*
X92016870Y-127525994D01*
X92038973Y-127617643D01*
X92046912Y-127728838D01*
X92037820Y-127867909D01*
X92013014Y-127977973D01*
X91975226Y-128064549D01*
X91920067Y-128140079D01*
X91850444Y-128199800D01*
X91764323Y-128244923D01*
X91669910Y-128274304D01*
X91557675Y-128293227D01*
X91424581Y-128300000D01*
X90572906Y-128300000D01*
X90572906Y-127927163D01*
X90988119Y-127927163D01*
X91412247Y-127927163D01*
X91483184Y-127919967D01*
X91539863Y-127899930D01*
X91586626Y-127865128D01*
X91622540Y-127813224D01*
X91643928Y-127748112D01*
X91652093Y-127655687D01*
X91644005Y-127579537D01*
X91621441Y-127518789D01*
X91584819Y-127468298D01*
X91537177Y-127431350D01*
X91480341Y-127408553D01*
X91412247Y-127400575D01*
X90988119Y-127400575D01*
X90988119Y-127927163D01*
X90572906Y-127927163D01*
X90572906Y-127083060D01*
X90988119Y-127083060D01*
X91389776Y-127083060D01*
X91446589Y-127075355D01*
X91492961Y-127053308D01*
X91531437Y-127016381D01*
X91569782Y-126942259D01*
X91584682Y-126843335D01*
X91577944Y-126753577D01*
X91557875Y-126693045D01*
X91527651Y-126653436D01*
X91462767Y-126614059D01*
X91384525Y-126600680D01*
X90988119Y-126600680D01*
X90988119Y-127083060D01*
X90572906Y-127083060D01*
X90572906Y-126227843D01*
X91388555Y-126227843D01*
X91544544Y-126238468D01*
G37*
G36*
X92733722Y-128316852D02*
G01*
X92633288Y-128308619D01*
X92548835Y-128285388D01*
X92477440Y-128248398D01*
X92416939Y-128197540D01*
X92355867Y-128111322D01*
X92317154Y-128001405D01*
X92303122Y-127860973D01*
X92303122Y-126796807D01*
X92718335Y-126796807D01*
X92718335Y-127736043D01*
X92726383Y-127818286D01*
X92746989Y-127872293D01*
X92777320Y-127906402D01*
X92843450Y-127938282D01*
X92936810Y-127950122D01*
X93014241Y-127942943D01*
X93097156Y-127920446D01*
X93176345Y-127885385D01*
X93244312Y-127841556D01*
X93244312Y-126796807D01*
X93659525Y-126796807D01*
X93659525Y-128300000D01*
X93317341Y-128300000D01*
X93244312Y-128146859D01*
X93137262Y-128208275D01*
X93011060Y-128264951D01*
X92876746Y-128303764D01*
X92733722Y-128316852D01*
G37*
G36*
X94519260Y-128316852D02*
G01*
X94367096Y-128312334D01*
X94204309Y-128300000D01*
X94054099Y-128278995D01*
X93937840Y-128248831D01*
X93937840Y-128005443D01*
X94603279Y-128005443D01*
X94699511Y-127995429D01*
X94733499Y-127980810D01*
X94756053Y-127958914D01*
X94769385Y-127928818D01*
X94774494Y-127883932D01*
X94774494Y-127835450D01*
X94764971Y-127784955D01*
X94737857Y-127748499D01*
X94692288Y-127726605D01*
X94604012Y-127717236D01*
X94368440Y-127717236D01*
X94243594Y-127707213D01*
X94135921Y-127678646D01*
X94071322Y-127646992D01*
X94017153Y-127604548D01*
X93972156Y-127550540D01*
X93940155Y-127487929D01*
X93919397Y-127408740D01*
X93911828Y-127308862D01*
X93911828Y-127221667D01*
X93918519Y-127127484D01*
X93937336Y-127048128D01*
X93967027Y-126981088D01*
X94010468Y-126923368D01*
X94071704Y-126874142D01*
X94154483Y-126833321D01*
X94244373Y-126807214D01*
X94362683Y-126789498D01*
X94515840Y-126782885D01*
X94714166Y-126792533D01*
X94912613Y-126817568D01*
X95060868Y-126851517D01*
X95060868Y-127094905D01*
X94431821Y-127094905D01*
X94355899Y-127102559D01*
X94307745Y-127121894D01*
X94277274Y-127157701D01*
X94265614Y-127221667D01*
X94265614Y-127267951D01*
X94271137Y-127312144D01*
X94285519Y-127340980D01*
X94309775Y-127361298D01*
X94346946Y-127374930D01*
X94448429Y-127383845D01*
X94689986Y-127383845D01*
X94806684Y-127391774D01*
X94898139Y-127413345D01*
X94969301Y-127446141D01*
X95024110Y-127489113D01*
X95080472Y-127565232D01*
X95115738Y-127660448D01*
X95128401Y-127780251D01*
X95128401Y-127914706D01*
X95119639Y-128013198D01*
X95095418Y-128091631D01*
X95057449Y-128154187D01*
X95005009Y-128205737D01*
X94937243Y-128247647D01*
X94851064Y-128279605D01*
X94707726Y-128306696D01*
X94519260Y-128316852D01*
G37*
G36*
X97132778Y-126220325D02*
G01*
X97299720Y-126251290D01*
X97401740Y-126287749D01*
X97489984Y-126338815D01*
X97566311Y-126404797D01*
X97628220Y-126484540D01*
X97681869Y-126589349D01*
X97726046Y-126724633D01*
X97753660Y-126864917D01*
X97772210Y-127043226D01*
X97779047Y-127266608D01*
X97772160Y-127489578D01*
X97753480Y-127667428D01*
X97725680Y-127807240D01*
X97681226Y-127941886D01*
X97627336Y-128045899D01*
X97565212Y-128124755D01*
X97488743Y-128189795D01*
X97400496Y-128240016D01*
X97298621Y-128275697D01*
X97132135Y-128305855D01*
X96926273Y-128316852D01*
X96721004Y-128305874D01*
X96554169Y-128275697D01*
X96452134Y-128240005D01*
X96363810Y-128189781D01*
X96287334Y-128124755D01*
X96225210Y-128045899D01*
X96171321Y-127941886D01*
X96126866Y-127807240D01*
X96099066Y-127667428D01*
X96080386Y-127489578D01*
X96073499Y-127266608D01*
X96488712Y-127266608D01*
X96494583Y-127468831D01*
X96509717Y-127612090D01*
X96539997Y-127736050D01*
X96580303Y-127817376D01*
X96638452Y-127877843D01*
X96714881Y-127916538D01*
X96805588Y-127936511D01*
X96926273Y-127944016D01*
X97046607Y-127936492D01*
X97136322Y-127916538D01*
X97212001Y-127877923D01*
X97270289Y-127817376D01*
X97311003Y-127736027D01*
X97341852Y-127612090D01*
X97357601Y-127468841D01*
X97363712Y-127266608D01*
X97357450Y-127054871D01*
X97341486Y-126908670D01*
X97310230Y-126783281D01*
X97269556Y-126702651D01*
X97211334Y-126643426D01*
X97135956Y-126606908D01*
X97046687Y-126588751D01*
X96926273Y-126581873D01*
X96810868Y-126588656D01*
X96721720Y-126606908D01*
X96645590Y-126643417D01*
X96586287Y-126702651D01*
X96544524Y-126783363D01*
X96512037Y-126908670D01*
X96495285Y-127054859D01*
X96488712Y-127266608D01*
X96073499Y-127266608D01*
X96080429Y-127043242D01*
X96099234Y-126864936D01*
X96127233Y-126724633D01*
X96171906Y-126589401D01*
X96226036Y-126484583D01*
X96288433Y-126404797D01*
X96365196Y-126338764D01*
X96453582Y-126287707D01*
X96555390Y-126251290D01*
X96721856Y-126220296D01*
X96926273Y-126209036D01*
X97132778Y-126220325D01*
G37*
G36*
X99057664Y-126233698D02*
G01*
X99162194Y-126251657D01*
X99262334Y-126287078D01*
X99355635Y-126347034D01*
X99408398Y-126399635D01*
X99456024Y-126469748D01*
X99498150Y-126560868D01*
X99526360Y-126657373D01*
X99545264Y-126781201D01*
X99552250Y-126938101D01*
X99545262Y-127096797D01*
X99526327Y-127222485D01*
X99498028Y-127320830D01*
X99455954Y-127414100D01*
X99408797Y-127486204D01*
X99356978Y-127540648D01*
X99265391Y-127603836D01*
X99168789Y-127641643D01*
X99067874Y-127661478D01*
X98971929Y-127667899D01*
X98855792Y-127663381D01*
X98719993Y-127651046D01*
X98591765Y-127635170D01*
X98497121Y-127622348D01*
X98497121Y-128300000D01*
X98081908Y-128300000D01*
X98081908Y-127295062D01*
X98497121Y-127295062D01*
X98908548Y-127295062D01*
X98976986Y-127285900D01*
X99032501Y-127259769D01*
X99076264Y-127215851D01*
X99110048Y-127147295D01*
X99128843Y-127063512D01*
X99136182Y-126942131D01*
X99128369Y-126823601D01*
X99108339Y-126741974D01*
X99073797Y-126675314D01*
X99032013Y-126633897D01*
X98979797Y-126609273D01*
X98916120Y-126600680D01*
X98497121Y-126600680D01*
X98497121Y-127295062D01*
X98081908Y-127295062D01*
X98081908Y-126227843D01*
X98957030Y-126227843D01*
X99057664Y-126233698D01*
G37*
G36*
X100308914Y-128300000D02*
G01*
X100155936Y-128286952D01*
X100038415Y-128251517D01*
X99971211Y-128212417D01*
X99916786Y-128160514D01*
X99873796Y-128094347D01*
X99844852Y-128019732D01*
X99825884Y-127926320D01*
X99818963Y-127810048D01*
X99818963Y-126227843D01*
X100234176Y-126227843D01*
X100234176Y-127742393D01*
X100240445Y-127806203D01*
X100257013Y-127851448D01*
X100284949Y-127886602D01*
X100322226Y-127909211D01*
X100366227Y-127921417D01*
X100417358Y-127925697D01*
X101074860Y-127925697D01*
X101074860Y-128300000D01*
X100308914Y-128300000D01*
G37*
G36*
X102035589Y-128316852D02*
G01*
X101814840Y-128312879D01*
X101609508Y-128301343D01*
X101411557Y-128281924D01*
X101242533Y-128257013D01*
X101242533Y-127925575D01*
X101878541Y-127925575D01*
X101987247Y-127920898D01*
X102065997Y-127908722D01*
X102132370Y-127884307D01*
X102174930Y-127849738D01*
X102200505Y-127801491D01*
X102210101Y-127730425D01*
X102210101Y-127644085D01*
X102200334Y-127575199D01*
X102173586Y-127525628D01*
X102131637Y-127488070D01*
X102075889Y-127461392D01*
X102012446Y-127445748D01*
X101938014Y-127438311D01*
X101427669Y-127416695D01*
X101427669Y-127099057D01*
X101919696Y-127071946D01*
X102038939Y-127054985D01*
X102116434Y-127025296D01*
X102154070Y-126993802D01*
X102177070Y-126950368D01*
X102185432Y-126890840D01*
X102185432Y-126820498D01*
X102176492Y-126751078D01*
X102151675Y-126698128D01*
X102111304Y-126657588D01*
X102058712Y-126630695D01*
X101979497Y-126611741D01*
X101864253Y-126604344D01*
X101287107Y-126604344D01*
X101287107Y-126272906D01*
X101635275Y-126227599D01*
X101825838Y-126213255D01*
X102030582Y-126211113D01*
X102150539Y-126219378D01*
X102252247Y-126240064D01*
X102338450Y-126271685D01*
X102416950Y-126317461D01*
X102480449Y-126374429D01*
X102530669Y-126443387D01*
X102566211Y-126521463D01*
X102588654Y-126613443D01*
X102596615Y-126722191D01*
X102596615Y-126876552D01*
X102591515Y-126954518D01*
X102577198Y-127020289D01*
X102553464Y-127080184D01*
X102522365Y-127130565D01*
X102483660Y-127173962D01*
X102439323Y-127209211D01*
X102390062Y-127237065D01*
X102336618Y-127257815D01*
X102393386Y-127279090D01*
X102447505Y-127311915D01*
X102496208Y-127354019D01*
X102539584Y-127405460D01*
X102575056Y-127464569D01*
X102603332Y-127535764D01*
X102620791Y-127613109D01*
X102626901Y-127701482D01*
X102626901Y-127808217D01*
X102616088Y-127930451D01*
X102585689Y-128031736D01*
X102537275Y-128116149D01*
X102470341Y-128186549D01*
X102389434Y-128240945D01*
X102292249Y-128281565D01*
X102175604Y-128307551D01*
X102035589Y-128316852D01*
G37*
G36*
X87804169Y-131676852D02*
G01*
X87637107Y-131671967D01*
X87463084Y-131657435D01*
X87296999Y-131635942D01*
X87153018Y-131607609D01*
X87153018Y-131280324D01*
X87344504Y-131293147D01*
X87565910Y-131301207D01*
X87783653Y-131304016D01*
X87885975Y-131299145D01*
X87966957Y-131285942D01*
X88037526Y-131259931D01*
X88086880Y-131222316D01*
X88117957Y-131169860D01*
X88129378Y-131094211D01*
X88129378Y-131018496D01*
X88122608Y-130958833D01*
X88103882Y-130912675D01*
X88073935Y-130876835D01*
X88010501Y-130841445D01*
X87918963Y-130828353D01*
X87741277Y-130828353D01*
X87590954Y-130818837D01*
X87467961Y-130792494D01*
X87367602Y-130751787D01*
X87286008Y-130697927D01*
X87221112Y-130627603D01*
X87172015Y-130534546D01*
X87139760Y-130413058D01*
X87127861Y-130255603D01*
X87127861Y-130153387D01*
X87140336Y-130003439D01*
X87174793Y-129883592D01*
X87228535Y-129787797D01*
X87301395Y-129711674D01*
X87390732Y-129653603D01*
X87500276Y-129609723D01*
X87634148Y-129581351D01*
X87797330Y-129571113D01*
X88026674Y-129582226D01*
X88244661Y-129609214D01*
X88424302Y-129642554D01*
X88424302Y-129969839D01*
X88139026Y-129951643D01*
X87846423Y-129943949D01*
X87752336Y-129948831D01*
X87675575Y-129962267D01*
X87609165Y-129989226D01*
X87562247Y-130030411D01*
X87533612Y-130087486D01*
X87522679Y-130173904D01*
X87522679Y-130228981D01*
X87530616Y-130299363D01*
X87551941Y-130350096D01*
X87585205Y-130386273D01*
X87629440Y-130411062D01*
X87688447Y-130427443D01*
X87766434Y-130433534D01*
X87972208Y-130433534D01*
X88094817Y-130442050D01*
X88196294Y-130465796D01*
X88280321Y-130502899D01*
X88355549Y-130555270D01*
X88416056Y-130618011D01*
X88463258Y-130692065D01*
X88496575Y-130773938D01*
X88517099Y-130864466D01*
X88524197Y-130965251D01*
X88524197Y-131083953D01*
X88512416Y-131243838D01*
X88480797Y-131364790D01*
X88433217Y-131455324D01*
X88365302Y-131531545D01*
X88282076Y-131589623D01*
X88180914Y-131630446D01*
X88012178Y-131664484D01*
X87804169Y-131676852D01*
G37*
G36*
X89632217Y-130143757D02*
G01*
X89771423Y-130170484D01*
X89856054Y-130201276D01*
X89926758Y-130242148D01*
X89985502Y-130292972D01*
X90033349Y-130354334D01*
X90073838Y-130431909D01*
X90106280Y-130528789D01*
X90134490Y-130688246D01*
X90145237Y-130904923D01*
X90135070Y-131119887D01*
X90108356Y-131278614D01*
X90077186Y-131374973D01*
X90037354Y-131452673D01*
X89989532Y-131514675D01*
X89930725Y-131566100D01*
X89860054Y-131607325D01*
X89775575Y-131638262D01*
X89635900Y-131664842D01*
X89453419Y-131674776D01*
X89274853Y-131664348D01*
X89135781Y-131636186D01*
X89051607Y-131603953D01*
X88980638Y-131561413D01*
X88921092Y-131508569D01*
X88872558Y-131445272D01*
X88832227Y-131367104D01*
X88800680Y-131271409D01*
X88773469Y-131114347D01*
X88763189Y-130904923D01*
X88763290Y-130902847D01*
X89178524Y-130902847D01*
X89183009Y-131043266D01*
X89194399Y-131139396D01*
X89216308Y-131221265D01*
X89243492Y-131272020D01*
X89281369Y-131308293D01*
X89328244Y-131329295D01*
X89382822Y-131339172D01*
X89453419Y-131342850D01*
X89524261Y-131339173D01*
X89579082Y-131329295D01*
X89626267Y-131308269D01*
X89664200Y-131272020D01*
X89691528Y-131221257D01*
X89713660Y-131139396D01*
X89725400Y-131043269D01*
X89730024Y-130902847D01*
X89725381Y-130762062D01*
X89713660Y-130667030D01*
X89691555Y-130586425D01*
X89664200Y-130536238D01*
X89626296Y-130500283D01*
X89579082Y-130479330D01*
X89524261Y-130469451D01*
X89453419Y-130465774D01*
X89382822Y-130469452D01*
X89328244Y-130479330D01*
X89281340Y-130500259D01*
X89243492Y-130536238D01*
X89216282Y-130586417D01*
X89194399Y-130667030D01*
X89183028Y-130762066D01*
X89178524Y-130902847D01*
X88763290Y-130902847D01*
X88773883Y-130684575D01*
X88801779Y-130524637D01*
X88834091Y-130427846D01*
X88874778Y-130350268D01*
X88923168Y-130288820D01*
X88982617Y-130238107D01*
X89053549Y-130197943D01*
X89137857Y-130168408D01*
X89276503Y-130143182D01*
X89453419Y-130133848D01*
X89632217Y-130143757D01*
G37*
G36*
X90844260Y-131676852D02*
G01*
X90743826Y-131668619D01*
X90659372Y-131645388D01*
X90587977Y-131608398D01*
X90527477Y-131557540D01*
X90466404Y-131471322D01*
X90427691Y-131361405D01*
X90413660Y-131220973D01*
X90413660Y-130156807D01*
X90828872Y-130156807D01*
X90828872Y-131096043D01*
X90836921Y-131178286D01*
X90857527Y-131232293D01*
X90887857Y-131266402D01*
X90953988Y-131298282D01*
X91047348Y-131310122D01*
X91124778Y-131302943D01*
X91207693Y-131280446D01*
X91286883Y-131245385D01*
X91354849Y-131201556D01*
X91354849Y-130156807D01*
X91770062Y-130156807D01*
X91770062Y-131660000D01*
X91427878Y-131660000D01*
X91354849Y-131506859D01*
X91247799Y-131568275D01*
X91121598Y-131624951D01*
X90987283Y-131663764D01*
X90844260Y-131676852D01*
G37*
G36*
X92082449Y-131660000D02*
G01*
X92082449Y-130156807D01*
X92424755Y-130156807D01*
X92497784Y-130309947D01*
X92589555Y-130246582D01*
X92709787Y-130186360D01*
X92839753Y-130145200D01*
X92971493Y-130131650D01*
X93091963Y-130140875D01*
X93184819Y-130165872D01*
X93255914Y-130203946D01*
X93316551Y-130257568D01*
X93363633Y-130321958D01*
X93397941Y-130398729D01*
X93428277Y-130525294D01*
X93438852Y-130669106D01*
X93438852Y-131660000D01*
X93023639Y-131660000D01*
X93023639Y-130722229D01*
X93016447Y-130653287D01*
X92996894Y-130601451D01*
X92964959Y-130559352D01*
X92923255Y-130529155D01*
X92873082Y-130511016D01*
X92809804Y-130504487D01*
X92695010Y-130518286D01*
X92592062Y-130556999D01*
X92497784Y-130615373D01*
X92497784Y-131660000D01*
X92082449Y-131660000D01*
G37*
G36*
X95068562Y-131660000D02*
G01*
X94720760Y-131660000D01*
X94653349Y-131516751D01*
X94600979Y-131557906D01*
X94536357Y-131597107D01*
X94466495Y-131629838D01*
X94392620Y-131655237D01*
X94316614Y-131671477D01*
X94240334Y-131676852D01*
X94125055Y-131667872D01*
X94027418Y-131642495D01*
X93944312Y-131602114D01*
X93873134Y-131544448D01*
X93812851Y-131465602D01*
X93763450Y-131361290D01*
X93731786Y-131248862D01*
X93710583Y-131105118D01*
X93702756Y-130923607D01*
X93703487Y-130903091D01*
X94118091Y-130903091D01*
X94125600Y-131068901D01*
X94144103Y-131174567D01*
X94180602Y-131258402D01*
X94229832Y-131306580D01*
X94295370Y-131333008D01*
X94385781Y-131342850D01*
X94468233Y-131335775D01*
X94538921Y-131315617D01*
X94653349Y-131259075D01*
X94653349Y-130502655D01*
X94535380Y-130463942D01*
X94471631Y-130449998D01*
X94403489Y-130445258D01*
X94307044Y-130455199D01*
X94237281Y-130481772D01*
X94200758Y-130511015D01*
X94170199Y-130554784D01*
X94145935Y-130617083D01*
X94126184Y-130726863D01*
X94118091Y-130903091D01*
X93703487Y-130903091D01*
X93709419Y-130736646D01*
X93727487Y-130587800D01*
X93754413Y-130470903D01*
X93798816Y-130361729D01*
X93857238Y-130278124D01*
X93929658Y-130215669D01*
X94015944Y-130172484D01*
X94126790Y-130144223D01*
X94268422Y-130133848D01*
X94371755Y-130139104D01*
X94473709Y-130154853D01*
X94653349Y-130203946D01*
X94653349Y-129523607D01*
X95068562Y-129523607D01*
X95068562Y-131660000D01*
G37*
G36*
X96816974Y-131676852D02*
G01*
X96642715Y-131665759D01*
X96497871Y-131634842D01*
X96410014Y-131599089D01*
X96332082Y-131548216D01*
X96262787Y-131481214D01*
X96207251Y-131402030D01*
X96158234Y-131297119D01*
X96117096Y-131160767D01*
X96091345Y-131020313D01*
X96074024Y-130841515D01*
X96067637Y-130617327D01*
X96074217Y-130402814D01*
X96092163Y-130229546D01*
X96119050Y-130091350D01*
X96161377Y-129957177D01*
X96211643Y-129852375D01*
X96268649Y-129771880D01*
X96339166Y-129703315D01*
X96418102Y-129650907D01*
X96506664Y-129613611D01*
X96652146Y-129580698D01*
X96822958Y-129569036D01*
X96960440Y-129572980D01*
X97084787Y-129584302D01*
X97304849Y-129620938D01*
X97470080Y-129666001D01*
X97470080Y-129987180D01*
X97333670Y-129966297D01*
X97139253Y-129948834D01*
X96909542Y-129941873D01*
X96797263Y-129948815D01*
X96710484Y-129967519D01*
X96636712Y-130004478D01*
X96578715Y-130064727D01*
X96537839Y-130145906D01*
X96505931Y-130270380D01*
X96489329Y-130414773D01*
X96482850Y-130621357D01*
X96488414Y-130820195D01*
X96502878Y-130963907D01*
X96531701Y-131089179D01*
X96570167Y-131172002D01*
X96626389Y-131234432D01*
X96700471Y-131274829D01*
X96789279Y-131296000D01*
X96909909Y-131304016D01*
X97255635Y-131295467D01*
X97470080Y-131274951D01*
X97470080Y-131596252D01*
X97296789Y-131638995D01*
X97081123Y-131666716D01*
X96816974Y-131676852D01*
G37*
G36*
X98557751Y-130148661D02*
G01*
X98698133Y-130181598D01*
X98780937Y-130219602D01*
X98847590Y-130270737D01*
X98900366Y-130335715D01*
X98936854Y-130411535D01*
X98960950Y-130510277D01*
X98969853Y-130637843D01*
X98969853Y-131660000D01*
X98642445Y-131660000D01*
X98575034Y-131501242D01*
X98506402Y-131550212D01*
X98390265Y-131608586D01*
X98318995Y-131635362D01*
X98237002Y-131657679D01*
X98151097Y-131671972D01*
X98059193Y-131676852D01*
X97949974Y-131664920D01*
X97858847Y-131630962D01*
X97781856Y-131575491D01*
X97723442Y-131501635D01*
X97687362Y-131410476D01*
X97674511Y-131296933D01*
X97674511Y-131167117D01*
X98089724Y-131167117D01*
X98089724Y-131227690D01*
X98096199Y-131282215D01*
X98113782Y-131322212D01*
X98142010Y-131353001D01*
X98178506Y-131373014D01*
X98268021Y-131388524D01*
X98332257Y-131382295D01*
X98405041Y-131365565D01*
X98474040Y-131345415D01*
X98527407Y-131326242D01*
X98554518Y-131315251D01*
X98554518Y-130964640D01*
X98303558Y-130982103D01*
X98202610Y-131002919D01*
X98141259Y-131038646D01*
X98103165Y-131092719D01*
X98089724Y-131167117D01*
X97674511Y-131167117D01*
X97674511Y-131161011D01*
X97688277Y-131052315D01*
X97728136Y-130959666D01*
X97795045Y-130879155D01*
X97857700Y-130833970D01*
X97938278Y-130799369D01*
X98040971Y-130776615D01*
X98170935Y-130768269D01*
X98554518Y-130768269D01*
X98554518Y-130666420D01*
X98547873Y-130599430D01*
X98529972Y-130549794D01*
X98496392Y-130511546D01*
X98436304Y-130482383D01*
X98358164Y-130467047D01*
X98226988Y-130460645D01*
X97777581Y-130460645D01*
X97777581Y-130221409D01*
X97891562Y-130189624D01*
X98030861Y-130161814D01*
X98182149Y-130144134D01*
X98377930Y-130137023D01*
X98557751Y-130148661D01*
G37*
G36*
X99278820Y-131660000D02*
G01*
X99278820Y-130156807D01*
X99600122Y-130156807D01*
X99694155Y-130386395D01*
X99780704Y-130290366D01*
X99877337Y-130209685D01*
X99948858Y-130169195D01*
X100029331Y-130144484D01*
X100120969Y-130135924D01*
X100182030Y-130139099D01*
X100243457Y-130150701D01*
X100243457Y-130576172D01*
X100154309Y-130567013D01*
X100067725Y-130563471D01*
X99988408Y-130568166D01*
X99920324Y-130581423D01*
X99856916Y-130603676D01*
X99799180Y-130634302D01*
X99745979Y-130673512D01*
X99694155Y-130723939D01*
X99694155Y-131660000D01*
X99278820Y-131660000D01*
G37*
G36*
X101784263Y-131660000D02*
G01*
X101436461Y-131660000D01*
X101369050Y-131516751D01*
X101316680Y-131557906D01*
X101252058Y-131597107D01*
X101182197Y-131629838D01*
X101108321Y-131655237D01*
X101032315Y-131671477D01*
X100956036Y-131676852D01*
X100840756Y-131667872D01*
X100743119Y-131642495D01*
X100660013Y-131602114D01*
X100588836Y-131544448D01*
X100528552Y-131465602D01*
X100479152Y-131361290D01*
X100447487Y-131248862D01*
X100426284Y-131105118D01*
X100418457Y-130923607D01*
X100419188Y-130903091D01*
X100833792Y-130903091D01*
X100841302Y-131068901D01*
X100859804Y-131174567D01*
X100896304Y-131258402D01*
X100945533Y-131306580D01*
X101011071Y-131333008D01*
X101101482Y-131342850D01*
X101183934Y-131335775D01*
X101254623Y-131315617D01*
X101369050Y-131259075D01*
X101369050Y-130502655D01*
X101251081Y-130463942D01*
X101187332Y-130449998D01*
X101119190Y-130445258D01*
X101022746Y-130455199D01*
X100952983Y-130481772D01*
X100916459Y-130511015D01*
X100885900Y-130554784D01*
X100861636Y-130617083D01*
X100841886Y-130726863D01*
X100833792Y-130903091D01*
X100419188Y-130903091D01*
X100425121Y-130736646D01*
X100443189Y-130587800D01*
X100470115Y-130470903D01*
X100514517Y-130361729D01*
X100572939Y-130278124D01*
X100645359Y-130215669D01*
X100731646Y-130172484D01*
X100842491Y-130144223D01*
X100984124Y-130133848D01*
X101087456Y-130139104D01*
X101189410Y-130154853D01*
X101369050Y-130203946D01*
X101369050Y-129523607D01*
X101784263Y-129523607D01*
X101784263Y-131660000D01*
G37*
D12*
X67504762Y-153733390D02*
X67409524Y-153685771D01*
X67409524Y-153685771D02*
X67361905Y-153638152D01*
X67361905Y-153638152D02*
X67314286Y-153542914D01*
X67314286Y-153542914D02*
X67314286Y-153495295D01*
X67314286Y-153495295D02*
X67361905Y-153400057D01*
X67361905Y-153400057D02*
X67409524Y-153352438D01*
X67409524Y-153352438D02*
X67504762Y-153304819D01*
X67504762Y-153304819D02*
X67695238Y-153304819D01*
X67695238Y-153304819D02*
X67790476Y-153352438D01*
X67790476Y-153352438D02*
X67838095Y-153400057D01*
X67838095Y-153400057D02*
X67885714Y-153495295D01*
X67885714Y-153495295D02*
X67885714Y-153542914D01*
X67885714Y-153542914D02*
X67838095Y-153638152D01*
X67838095Y-153638152D02*
X67790476Y-153685771D01*
X67790476Y-153685771D02*
X67695238Y-153733390D01*
X67695238Y-153733390D02*
X67504762Y-153733390D01*
X67504762Y-153733390D02*
X67409524Y-153781009D01*
X67409524Y-153781009D02*
X67361905Y-153828628D01*
X67361905Y-153828628D02*
X67314286Y-153923866D01*
X67314286Y-153923866D02*
X67314286Y-154114342D01*
X67314286Y-154114342D02*
X67361905Y-154209580D01*
X67361905Y-154209580D02*
X67409524Y-154257200D01*
X67409524Y-154257200D02*
X67504762Y-154304819D01*
X67504762Y-154304819D02*
X67695238Y-154304819D01*
X67695238Y-154304819D02*
X67790476Y-154257200D01*
X67790476Y-154257200D02*
X67838095Y-154209580D01*
X67838095Y-154209580D02*
X67885714Y-154114342D01*
X67885714Y-154114342D02*
X67885714Y-153923866D01*
X67885714Y-153923866D02*
X67838095Y-153828628D01*
X67838095Y-153828628D02*
X67790476Y-153781009D01*
X67790476Y-153781009D02*
X67695238Y-153733390D01*
X67790476Y-156138152D02*
X67790476Y-156804819D01*
X67552381Y-155757200D02*
X67314286Y-156471485D01*
X67314286Y-156471485D02*
X67933333Y-156471485D01*
X67547619Y-140554819D02*
X67642857Y-140554819D01*
X67642857Y-140554819D02*
X67738095Y-140602438D01*
X67738095Y-140602438D02*
X67785714Y-140650057D01*
X67785714Y-140650057D02*
X67833333Y-140745295D01*
X67833333Y-140745295D02*
X67880952Y-140935771D01*
X67880952Y-140935771D02*
X67880952Y-141173866D01*
X67880952Y-141173866D02*
X67833333Y-141364342D01*
X67833333Y-141364342D02*
X67785714Y-141459580D01*
X67785714Y-141459580D02*
X67738095Y-141507200D01*
X67738095Y-141507200D02*
X67642857Y-141554819D01*
X67642857Y-141554819D02*
X67547619Y-141554819D01*
X67547619Y-141554819D02*
X67452381Y-141507200D01*
X67452381Y-141507200D02*
X67404762Y-141459580D01*
X67404762Y-141459580D02*
X67357143Y-141364342D01*
X67357143Y-141364342D02*
X67309524Y-141173866D01*
X67309524Y-141173866D02*
X67309524Y-140935771D01*
X67309524Y-140935771D02*
X67357143Y-140745295D01*
X67357143Y-140745295D02*
X67404762Y-140650057D01*
X67404762Y-140650057D02*
X67452381Y-140602438D01*
X67452381Y-140602438D02*
X67547619Y-140554819D01*
X68214286Y-141554819D02*
X68738095Y-140888152D01*
X68214286Y-140888152D02*
X68738095Y-141554819D01*
X67814285Y-145888152D02*
X67814285Y-146554819D01*
X67576190Y-145507200D02*
X67338095Y-146221485D01*
X67338095Y-146221485D02*
X67957142Y-146221485D01*
X68528571Y-145554819D02*
X68623809Y-145554819D01*
X68623809Y-145554819D02*
X68719047Y-145602438D01*
X68719047Y-145602438D02*
X68766666Y-145650057D01*
X68766666Y-145650057D02*
X68814285Y-145745295D01*
X68814285Y-145745295D02*
X68861904Y-145935771D01*
X68861904Y-145935771D02*
X68861904Y-146173866D01*
X68861904Y-146173866D02*
X68814285Y-146364342D01*
X68814285Y-146364342D02*
X68766666Y-146459580D01*
X68766666Y-146459580D02*
X68719047Y-146507200D01*
X68719047Y-146507200D02*
X68623809Y-146554819D01*
X68623809Y-146554819D02*
X68528571Y-146554819D01*
X68528571Y-146554819D02*
X68433333Y-146507200D01*
X68433333Y-146507200D02*
X68385714Y-146459580D01*
X68385714Y-146459580D02*
X68338095Y-146364342D01*
X68338095Y-146364342D02*
X68290476Y-146173866D01*
X68290476Y-146173866D02*
X68290476Y-145935771D01*
X68290476Y-145935771D02*
X68338095Y-145745295D01*
X68338095Y-145745295D02*
X68385714Y-145650057D01*
X68385714Y-145650057D02*
X68433333Y-145602438D01*
X68433333Y-145602438D02*
X68528571Y-145554819D01*
X111083333Y-158539580D02*
X111035714Y-158587200D01*
X111035714Y-158587200D02*
X110892857Y-158634819D01*
X110892857Y-158634819D02*
X110797619Y-158634819D01*
X110797619Y-158634819D02*
X110654762Y-158587200D01*
X110654762Y-158587200D02*
X110559524Y-158491961D01*
X110559524Y-158491961D02*
X110511905Y-158396723D01*
X110511905Y-158396723D02*
X110464286Y-158206247D01*
X110464286Y-158206247D02*
X110464286Y-158063390D01*
X110464286Y-158063390D02*
X110511905Y-157872914D01*
X110511905Y-157872914D02*
X110559524Y-157777676D01*
X110559524Y-157777676D02*
X110654762Y-157682438D01*
X110654762Y-157682438D02*
X110797619Y-157634819D01*
X110797619Y-157634819D02*
X110892857Y-157634819D01*
X110892857Y-157634819D02*
X111035714Y-157682438D01*
X111035714Y-157682438D02*
X111083333Y-157730057D01*
X112035714Y-158634819D02*
X111464286Y-158634819D01*
X111750000Y-158634819D02*
X111750000Y-157634819D01*
X111750000Y-157634819D02*
X111654762Y-157777676D01*
X111654762Y-157777676D02*
X111559524Y-157872914D01*
X111559524Y-157872914D02*
X111464286Y-157920533D01*
X111083333Y-142789580D02*
X111035714Y-142837200D01*
X111035714Y-142837200D02*
X110892857Y-142884819D01*
X110892857Y-142884819D02*
X110797619Y-142884819D01*
X110797619Y-142884819D02*
X110654762Y-142837200D01*
X110654762Y-142837200D02*
X110559524Y-142741961D01*
X110559524Y-142741961D02*
X110511905Y-142646723D01*
X110511905Y-142646723D02*
X110464286Y-142456247D01*
X110464286Y-142456247D02*
X110464286Y-142313390D01*
X110464286Y-142313390D02*
X110511905Y-142122914D01*
X110511905Y-142122914D02*
X110559524Y-142027676D01*
X110559524Y-142027676D02*
X110654762Y-141932438D01*
X110654762Y-141932438D02*
X110797619Y-141884819D01*
X110797619Y-141884819D02*
X110892857Y-141884819D01*
X110892857Y-141884819D02*
X111035714Y-141932438D01*
X111035714Y-141932438D02*
X111083333Y-141980057D01*
X111416667Y-141884819D02*
X112083333Y-141884819D01*
X112083333Y-141884819D02*
X111654762Y-142884819D01*
X146785714Y-133359580D02*
X146738095Y-133407200D01*
X146738095Y-133407200D02*
X146595238Y-133454819D01*
X146595238Y-133454819D02*
X146500000Y-133454819D01*
X146500000Y-133454819D02*
X146357143Y-133407200D01*
X146357143Y-133407200D02*
X146261905Y-133311961D01*
X146261905Y-133311961D02*
X146214286Y-133216723D01*
X146214286Y-133216723D02*
X146166667Y-133026247D01*
X146166667Y-133026247D02*
X146166667Y-132883390D01*
X146166667Y-132883390D02*
X146214286Y-132692914D01*
X146214286Y-132692914D02*
X146261905Y-132597676D01*
X146261905Y-132597676D02*
X146357143Y-132502438D01*
X146357143Y-132502438D02*
X146500000Y-132454819D01*
X146500000Y-132454819D02*
X146595238Y-132454819D01*
X146595238Y-132454819D02*
X146738095Y-132502438D01*
X146738095Y-132502438D02*
X146785714Y-132550057D01*
X147404762Y-132454819D02*
X147595238Y-132454819D01*
X147595238Y-132454819D02*
X147690476Y-132502438D01*
X147690476Y-132502438D02*
X147785714Y-132597676D01*
X147785714Y-132597676D02*
X147833333Y-132788152D01*
X147833333Y-132788152D02*
X147833333Y-133121485D01*
X147833333Y-133121485D02*
X147785714Y-133311961D01*
X147785714Y-133311961D02*
X147690476Y-133407200D01*
X147690476Y-133407200D02*
X147595238Y-133454819D01*
X147595238Y-133454819D02*
X147404762Y-133454819D01*
X147404762Y-133454819D02*
X147309524Y-133407200D01*
X147309524Y-133407200D02*
X147214286Y-133311961D01*
X147214286Y-133311961D02*
X147166667Y-133121485D01*
X147166667Y-133121485D02*
X147166667Y-132788152D01*
X147166667Y-132788152D02*
X147214286Y-132597676D01*
X147214286Y-132597676D02*
X147309524Y-132502438D01*
X147309524Y-132502438D02*
X147404762Y-132454819D01*
X148261905Y-133454819D02*
X148261905Y-132454819D01*
X148261905Y-132454819D02*
X148833333Y-133454819D01*
X148833333Y-133454819D02*
X148833333Y-132454819D01*
X149833333Y-133454819D02*
X149261905Y-133454819D01*
X149547619Y-133454819D02*
X149547619Y-132454819D01*
X149547619Y-132454819D02*
X149452381Y-132597676D01*
X149452381Y-132597676D02*
X149357143Y-132692914D01*
X149357143Y-132692914D02*
X149261905Y-132740533D01*
X62896666Y-157994819D02*
X62896666Y-158709104D01*
X62896666Y-158709104D02*
X62849047Y-158851961D01*
X62849047Y-158851961D02*
X62753809Y-158947200D01*
X62753809Y-158947200D02*
X62610952Y-158994819D01*
X62610952Y-158994819D02*
X62515714Y-158994819D01*
X63372857Y-158994819D02*
X63372857Y-157994819D01*
X63372857Y-157994819D02*
X63753809Y-157994819D01*
X63753809Y-157994819D02*
X63849047Y-158042438D01*
X63849047Y-158042438D02*
X63896666Y-158090057D01*
X63896666Y-158090057D02*
X63944285Y-158185295D01*
X63944285Y-158185295D02*
X63944285Y-158328152D01*
X63944285Y-158328152D02*
X63896666Y-158423390D01*
X63896666Y-158423390D02*
X63849047Y-158471009D01*
X63849047Y-158471009D02*
X63753809Y-158518628D01*
X63753809Y-158518628D02*
X63372857Y-158518628D01*
X64896666Y-158994819D02*
X64325238Y-158994819D01*
X64610952Y-158994819D02*
X64610952Y-157994819D01*
X64610952Y-157994819D02*
X64515714Y-158137676D01*
X64515714Y-158137676D02*
X64420476Y-158232914D01*
X64420476Y-158232914D02*
X64325238Y-158280533D01*
X77988095Y-154454819D02*
X77988095Y-155264342D01*
X77988095Y-155264342D02*
X78035714Y-155359580D01*
X78035714Y-155359580D02*
X78083333Y-155407200D01*
X78083333Y-155407200D02*
X78178571Y-155454819D01*
X78178571Y-155454819D02*
X78369047Y-155454819D01*
X78369047Y-155454819D02*
X78464285Y-155407200D01*
X78464285Y-155407200D02*
X78511904Y-155359580D01*
X78511904Y-155359580D02*
X78559523Y-155264342D01*
X78559523Y-155264342D02*
X78559523Y-154454819D01*
X79559523Y-155454819D02*
X78988095Y-155454819D01*
X79273809Y-155454819D02*
X79273809Y-154454819D01*
X79273809Y-154454819D02*
X79178571Y-154597676D01*
X79178571Y-154597676D02*
X79083333Y-154692914D01*
X79083333Y-154692914D02*
X78988095Y-154740533D01*
X121357142Y-132859580D02*
X121309523Y-132907200D01*
X121309523Y-132907200D02*
X121166666Y-132954819D01*
X121166666Y-132954819D02*
X121071428Y-132954819D01*
X121071428Y-132954819D02*
X120928571Y-132907200D01*
X120928571Y-132907200D02*
X120833333Y-132811961D01*
X120833333Y-132811961D02*
X120785714Y-132716723D01*
X120785714Y-132716723D02*
X120738095Y-132526247D01*
X120738095Y-132526247D02*
X120738095Y-132383390D01*
X120738095Y-132383390D02*
X120785714Y-132192914D01*
X120785714Y-132192914D02*
X120833333Y-132097676D01*
X120833333Y-132097676D02*
X120928571Y-132002438D01*
X120928571Y-132002438D02*
X121071428Y-131954819D01*
X121071428Y-131954819D02*
X121166666Y-131954819D01*
X121166666Y-131954819D02*
X121309523Y-132002438D01*
X121309523Y-132002438D02*
X121357142Y-132050057D01*
X122309523Y-132954819D02*
X121738095Y-132954819D01*
X122023809Y-132954819D02*
X122023809Y-131954819D01*
X122023809Y-131954819D02*
X121928571Y-132097676D01*
X121928571Y-132097676D02*
X121833333Y-132192914D01*
X121833333Y-132192914D02*
X121738095Y-132240533D01*
X123261904Y-132954819D02*
X122690476Y-132954819D01*
X122976190Y-132954819D02*
X122976190Y-131954819D01*
X122976190Y-131954819D02*
X122880952Y-132097676D01*
X122880952Y-132097676D02*
X122785714Y-132192914D01*
X122785714Y-132192914D02*
X122690476Y-132240533D01*
X112959580Y-131916666D02*
X113007200Y-131964285D01*
X113007200Y-131964285D02*
X113054819Y-132107142D01*
X113054819Y-132107142D02*
X113054819Y-132202380D01*
X113054819Y-132202380D02*
X113007200Y-132345237D01*
X113007200Y-132345237D02*
X112911961Y-132440475D01*
X112911961Y-132440475D02*
X112816723Y-132488094D01*
X112816723Y-132488094D02*
X112626247Y-132535713D01*
X112626247Y-132535713D02*
X112483390Y-132535713D01*
X112483390Y-132535713D02*
X112292914Y-132488094D01*
X112292914Y-132488094D02*
X112197676Y-132440475D01*
X112197676Y-132440475D02*
X112102438Y-132345237D01*
X112102438Y-132345237D02*
X112054819Y-132202380D01*
X112054819Y-132202380D02*
X112054819Y-132107142D01*
X112054819Y-132107142D02*
X112102438Y-131964285D01*
X112102438Y-131964285D02*
X112150057Y-131916666D01*
X112483390Y-131345237D02*
X112435771Y-131440475D01*
X112435771Y-131440475D02*
X112388152Y-131488094D01*
X112388152Y-131488094D02*
X112292914Y-131535713D01*
X112292914Y-131535713D02*
X112245295Y-131535713D01*
X112245295Y-131535713D02*
X112150057Y-131488094D01*
X112150057Y-131488094D02*
X112102438Y-131440475D01*
X112102438Y-131440475D02*
X112054819Y-131345237D01*
X112054819Y-131345237D02*
X112054819Y-131154761D01*
X112054819Y-131154761D02*
X112102438Y-131059523D01*
X112102438Y-131059523D02*
X112150057Y-131011904D01*
X112150057Y-131011904D02*
X112245295Y-130964285D01*
X112245295Y-130964285D02*
X112292914Y-130964285D01*
X112292914Y-130964285D02*
X112388152Y-131011904D01*
X112388152Y-131011904D02*
X112435771Y-131059523D01*
X112435771Y-131059523D02*
X112483390Y-131154761D01*
X112483390Y-131154761D02*
X112483390Y-131345237D01*
X112483390Y-131345237D02*
X112531009Y-131440475D01*
X112531009Y-131440475D02*
X112578628Y-131488094D01*
X112578628Y-131488094D02*
X112673866Y-131535713D01*
X112673866Y-131535713D02*
X112864342Y-131535713D01*
X112864342Y-131535713D02*
X112959580Y-131488094D01*
X112959580Y-131488094D02*
X113007200Y-131440475D01*
X113007200Y-131440475D02*
X113054819Y-131345237D01*
X113054819Y-131345237D02*
X113054819Y-131154761D01*
X113054819Y-131154761D02*
X113007200Y-131059523D01*
X113007200Y-131059523D02*
X112959580Y-131011904D01*
X112959580Y-131011904D02*
X112864342Y-130964285D01*
X112864342Y-130964285D02*
X112673866Y-130964285D01*
X112673866Y-130964285D02*
X112578628Y-131011904D01*
X112578628Y-131011904D02*
X112531009Y-131059523D01*
X112531009Y-131059523D02*
X112483390Y-131154761D01*
X118107142Y-132859580D02*
X118059523Y-132907200D01*
X118059523Y-132907200D02*
X117916666Y-132954819D01*
X117916666Y-132954819D02*
X117821428Y-132954819D01*
X117821428Y-132954819D02*
X117678571Y-132907200D01*
X117678571Y-132907200D02*
X117583333Y-132811961D01*
X117583333Y-132811961D02*
X117535714Y-132716723D01*
X117535714Y-132716723D02*
X117488095Y-132526247D01*
X117488095Y-132526247D02*
X117488095Y-132383390D01*
X117488095Y-132383390D02*
X117535714Y-132192914D01*
X117535714Y-132192914D02*
X117583333Y-132097676D01*
X117583333Y-132097676D02*
X117678571Y-132002438D01*
X117678571Y-132002438D02*
X117821428Y-131954819D01*
X117821428Y-131954819D02*
X117916666Y-131954819D01*
X117916666Y-131954819D02*
X118059523Y-132002438D01*
X118059523Y-132002438D02*
X118107142Y-132050057D01*
X119059523Y-132954819D02*
X118488095Y-132954819D01*
X118773809Y-132954819D02*
X118773809Y-131954819D01*
X118773809Y-131954819D02*
X118678571Y-132097676D01*
X118678571Y-132097676D02*
X118583333Y-132192914D01*
X118583333Y-132192914D02*
X118488095Y-132240533D01*
X119440476Y-132050057D02*
X119488095Y-132002438D01*
X119488095Y-132002438D02*
X119583333Y-131954819D01*
X119583333Y-131954819D02*
X119821428Y-131954819D01*
X119821428Y-131954819D02*
X119916666Y-132002438D01*
X119916666Y-132002438D02*
X119964285Y-132050057D01*
X119964285Y-132050057D02*
X120011904Y-132145295D01*
X120011904Y-132145295D02*
X120011904Y-132240533D01*
X120011904Y-132240533D02*
X119964285Y-132383390D01*
X119964285Y-132383390D02*
X119392857Y-132954819D01*
X119392857Y-132954819D02*
X120011904Y-132954819D01*
X111488095Y-154454819D02*
X111488095Y-155264342D01*
X111488095Y-155264342D02*
X111535714Y-155359580D01*
X111535714Y-155359580D02*
X111583333Y-155407200D01*
X111583333Y-155407200D02*
X111678571Y-155454819D01*
X111678571Y-155454819D02*
X111869047Y-155454819D01*
X111869047Y-155454819D02*
X111964285Y-155407200D01*
X111964285Y-155407200D02*
X112011904Y-155359580D01*
X112011904Y-155359580D02*
X112059523Y-155264342D01*
X112059523Y-155264342D02*
X112059523Y-154454819D01*
X112488095Y-154550057D02*
X112535714Y-154502438D01*
X112535714Y-154502438D02*
X112630952Y-154454819D01*
X112630952Y-154454819D02*
X112869047Y-154454819D01*
X112869047Y-154454819D02*
X112964285Y-154502438D01*
X112964285Y-154502438D02*
X113011904Y-154550057D01*
X113011904Y-154550057D02*
X113059523Y-154645295D01*
X113059523Y-154645295D02*
X113059523Y-154740533D01*
X113059523Y-154740533D02*
X113011904Y-154883390D01*
X113011904Y-154883390D02*
X112440476Y-155454819D01*
X112440476Y-155454819D02*
X113059523Y-155454819D01*
X79692753Y-143859580D02*
X79645134Y-143907200D01*
X79645134Y-143907200D02*
X79502277Y-143954819D01*
X79502277Y-143954819D02*
X79407039Y-143954819D01*
X79407039Y-143954819D02*
X79264182Y-143907200D01*
X79264182Y-143907200D02*
X79168944Y-143811961D01*
X79168944Y-143811961D02*
X79121325Y-143716723D01*
X79121325Y-143716723D02*
X79073706Y-143526247D01*
X79073706Y-143526247D02*
X79073706Y-143383390D01*
X79073706Y-143383390D02*
X79121325Y-143192914D01*
X79121325Y-143192914D02*
X79168944Y-143097676D01*
X79168944Y-143097676D02*
X79264182Y-143002438D01*
X79264182Y-143002438D02*
X79407039Y-142954819D01*
X79407039Y-142954819D02*
X79502277Y-142954819D01*
X79502277Y-142954819D02*
X79645134Y-143002438D01*
X79645134Y-143002438D02*
X79692753Y-143050057D01*
X80549896Y-142954819D02*
X80359420Y-142954819D01*
X80359420Y-142954819D02*
X80264182Y-143002438D01*
X80264182Y-143002438D02*
X80216563Y-143050057D01*
X80216563Y-143050057D02*
X80121325Y-143192914D01*
X80121325Y-143192914D02*
X80073706Y-143383390D01*
X80073706Y-143383390D02*
X80073706Y-143764342D01*
X80073706Y-143764342D02*
X80121325Y-143859580D01*
X80121325Y-143859580D02*
X80168944Y-143907200D01*
X80168944Y-143907200D02*
X80264182Y-143954819D01*
X80264182Y-143954819D02*
X80454658Y-143954819D01*
X80454658Y-143954819D02*
X80549896Y-143907200D01*
X80549896Y-143907200D02*
X80597515Y-143859580D01*
X80597515Y-143859580D02*
X80645134Y-143764342D01*
X80645134Y-143764342D02*
X80645134Y-143526247D01*
X80645134Y-143526247D02*
X80597515Y-143431009D01*
X80597515Y-143431009D02*
X80549896Y-143383390D01*
X80549896Y-143383390D02*
X80454658Y-143335771D01*
X80454658Y-143335771D02*
X80264182Y-143335771D01*
X80264182Y-143335771D02*
X80168944Y-143383390D01*
X80168944Y-143383390D02*
X80121325Y-143431009D01*
X80121325Y-143431009D02*
X80073706Y-143526247D01*
X103523809Y-144478628D02*
X103523809Y-144954819D01*
X103190476Y-143954819D02*
X103523809Y-144478628D01*
X103523809Y-144478628D02*
X103857142Y-143954819D01*
X104714285Y-144954819D02*
X104142857Y-144954819D01*
X104428571Y-144954819D02*
X104428571Y-143954819D01*
X104428571Y-143954819D02*
X104333333Y-144097676D01*
X104333333Y-144097676D02*
X104238095Y-144192914D01*
X104238095Y-144192914D02*
X104142857Y-144240533D01*
X111738095Y-138454819D02*
X111738095Y-139264342D01*
X111738095Y-139264342D02*
X111785714Y-139359580D01*
X111785714Y-139359580D02*
X111833333Y-139407200D01*
X111833333Y-139407200D02*
X111928571Y-139454819D01*
X111928571Y-139454819D02*
X112119047Y-139454819D01*
X112119047Y-139454819D02*
X112214285Y-139407200D01*
X112214285Y-139407200D02*
X112261904Y-139359580D01*
X112261904Y-139359580D02*
X112309523Y-139264342D01*
X112309523Y-139264342D02*
X112309523Y-138454819D01*
X112690476Y-138454819D02*
X113309523Y-138454819D01*
X113309523Y-138454819D02*
X112976190Y-138835771D01*
X112976190Y-138835771D02*
X113119047Y-138835771D01*
X113119047Y-138835771D02*
X113214285Y-138883390D01*
X113214285Y-138883390D02*
X113261904Y-138931009D01*
X113261904Y-138931009D02*
X113309523Y-139026247D01*
X113309523Y-139026247D02*
X113309523Y-139264342D01*
X113309523Y-139264342D02*
X113261904Y-139359580D01*
X113261904Y-139359580D02*
X113214285Y-139407200D01*
X113214285Y-139407200D02*
X113119047Y-139454819D01*
X113119047Y-139454819D02*
X112833333Y-139454819D01*
X112833333Y-139454819D02*
X112738095Y-139407200D01*
X112738095Y-139407200D02*
X112690476Y-139359580D01*
X71333333Y-156454819D02*
X71000000Y-155978628D01*
X70761905Y-156454819D02*
X70761905Y-155454819D01*
X70761905Y-155454819D02*
X71142857Y-155454819D01*
X71142857Y-155454819D02*
X71238095Y-155502438D01*
X71238095Y-155502438D02*
X71285714Y-155550057D01*
X71285714Y-155550057D02*
X71333333Y-155645295D01*
X71333333Y-155645295D02*
X71333333Y-155788152D01*
X71333333Y-155788152D02*
X71285714Y-155883390D01*
X71285714Y-155883390D02*
X71238095Y-155931009D01*
X71238095Y-155931009D02*
X71142857Y-155978628D01*
X71142857Y-155978628D02*
X70761905Y-155978628D01*
X72190476Y-155454819D02*
X72000000Y-155454819D01*
X72000000Y-155454819D02*
X71904762Y-155502438D01*
X71904762Y-155502438D02*
X71857143Y-155550057D01*
X71857143Y-155550057D02*
X71761905Y-155692914D01*
X71761905Y-155692914D02*
X71714286Y-155883390D01*
X71714286Y-155883390D02*
X71714286Y-156264342D01*
X71714286Y-156264342D02*
X71761905Y-156359580D01*
X71761905Y-156359580D02*
X71809524Y-156407200D01*
X71809524Y-156407200D02*
X71904762Y-156454819D01*
X71904762Y-156454819D02*
X72095238Y-156454819D01*
X72095238Y-156454819D02*
X72190476Y-156407200D01*
X72190476Y-156407200D02*
X72238095Y-156359580D01*
X72238095Y-156359580D02*
X72285714Y-156264342D01*
X72285714Y-156264342D02*
X72285714Y-156026247D01*
X72285714Y-156026247D02*
X72238095Y-155931009D01*
X72238095Y-155931009D02*
X72190476Y-155883390D01*
X72190476Y-155883390D02*
X72095238Y-155835771D01*
X72095238Y-155835771D02*
X71904762Y-155835771D01*
X71904762Y-155835771D02*
X71809524Y-155883390D01*
X71809524Y-155883390D02*
X71761905Y-155931009D01*
X71761905Y-155931009D02*
X71714286Y-156026247D01*
X122233333Y-118359580D02*
X122185714Y-118407200D01*
X122185714Y-118407200D02*
X122042857Y-118454819D01*
X122042857Y-118454819D02*
X121947619Y-118454819D01*
X121947619Y-118454819D02*
X121804762Y-118407200D01*
X121804762Y-118407200D02*
X121709524Y-118311961D01*
X121709524Y-118311961D02*
X121661905Y-118216723D01*
X121661905Y-118216723D02*
X121614286Y-118026247D01*
X121614286Y-118026247D02*
X121614286Y-117883390D01*
X121614286Y-117883390D02*
X121661905Y-117692914D01*
X121661905Y-117692914D02*
X121709524Y-117597676D01*
X121709524Y-117597676D02*
X121804762Y-117502438D01*
X121804762Y-117502438D02*
X121947619Y-117454819D01*
X121947619Y-117454819D02*
X122042857Y-117454819D01*
X122042857Y-117454819D02*
X122185714Y-117502438D01*
X122185714Y-117502438D02*
X122233333Y-117550057D01*
X122709524Y-118454819D02*
X122900000Y-118454819D01*
X122900000Y-118454819D02*
X122995238Y-118407200D01*
X122995238Y-118407200D02*
X123042857Y-118359580D01*
X123042857Y-118359580D02*
X123138095Y-118216723D01*
X123138095Y-118216723D02*
X123185714Y-118026247D01*
X123185714Y-118026247D02*
X123185714Y-117645295D01*
X123185714Y-117645295D02*
X123138095Y-117550057D01*
X123138095Y-117550057D02*
X123090476Y-117502438D01*
X123090476Y-117502438D02*
X122995238Y-117454819D01*
X122995238Y-117454819D02*
X122804762Y-117454819D01*
X122804762Y-117454819D02*
X122709524Y-117502438D01*
X122709524Y-117502438D02*
X122661905Y-117550057D01*
X122661905Y-117550057D02*
X122614286Y-117645295D01*
X122614286Y-117645295D02*
X122614286Y-117883390D01*
X122614286Y-117883390D02*
X122661905Y-117978628D01*
X122661905Y-117978628D02*
X122709524Y-118026247D01*
X122709524Y-118026247D02*
X122804762Y-118073866D01*
X122804762Y-118073866D02*
X122995238Y-118073866D01*
X122995238Y-118073866D02*
X123090476Y-118026247D01*
X123090476Y-118026247D02*
X123138095Y-117978628D01*
X123138095Y-117978628D02*
X123185714Y-117883390D01*
X71333333Y-153954819D02*
X71000000Y-153478628D01*
X70761905Y-153954819D02*
X70761905Y-152954819D01*
X70761905Y-152954819D02*
X71142857Y-152954819D01*
X71142857Y-152954819D02*
X71238095Y-153002438D01*
X71238095Y-153002438D02*
X71285714Y-153050057D01*
X71285714Y-153050057D02*
X71333333Y-153145295D01*
X71333333Y-153145295D02*
X71333333Y-153288152D01*
X71333333Y-153288152D02*
X71285714Y-153383390D01*
X71285714Y-153383390D02*
X71238095Y-153431009D01*
X71238095Y-153431009D02*
X71142857Y-153478628D01*
X71142857Y-153478628D02*
X70761905Y-153478628D01*
X72238095Y-152954819D02*
X71761905Y-152954819D01*
X71761905Y-152954819D02*
X71714286Y-153431009D01*
X71714286Y-153431009D02*
X71761905Y-153383390D01*
X71761905Y-153383390D02*
X71857143Y-153335771D01*
X71857143Y-153335771D02*
X72095238Y-153335771D01*
X72095238Y-153335771D02*
X72190476Y-153383390D01*
X72190476Y-153383390D02*
X72238095Y-153431009D01*
X72238095Y-153431009D02*
X72285714Y-153526247D01*
X72285714Y-153526247D02*
X72285714Y-153764342D01*
X72285714Y-153764342D02*
X72238095Y-153859580D01*
X72238095Y-153859580D02*
X72190476Y-153907200D01*
X72190476Y-153907200D02*
X72095238Y-153954819D01*
X72095238Y-153954819D02*
X71857143Y-153954819D01*
X71857143Y-153954819D02*
X71761905Y-153907200D01*
X71761905Y-153907200D02*
X71714286Y-153859580D01*
X140758333Y-119024819D02*
X140425000Y-118548628D01*
X140186905Y-119024819D02*
X140186905Y-118024819D01*
X140186905Y-118024819D02*
X140567857Y-118024819D01*
X140567857Y-118024819D02*
X140663095Y-118072438D01*
X140663095Y-118072438D02*
X140710714Y-118120057D01*
X140710714Y-118120057D02*
X140758333Y-118215295D01*
X140758333Y-118215295D02*
X140758333Y-118358152D01*
X140758333Y-118358152D02*
X140710714Y-118453390D01*
X140710714Y-118453390D02*
X140663095Y-118501009D01*
X140663095Y-118501009D02*
X140567857Y-118548628D01*
X140567857Y-118548628D02*
X140186905Y-118548628D01*
X141329762Y-118453390D02*
X141234524Y-118405771D01*
X141234524Y-118405771D02*
X141186905Y-118358152D01*
X141186905Y-118358152D02*
X141139286Y-118262914D01*
X141139286Y-118262914D02*
X141139286Y-118215295D01*
X141139286Y-118215295D02*
X141186905Y-118120057D01*
X141186905Y-118120057D02*
X141234524Y-118072438D01*
X141234524Y-118072438D02*
X141329762Y-118024819D01*
X141329762Y-118024819D02*
X141520238Y-118024819D01*
X141520238Y-118024819D02*
X141615476Y-118072438D01*
X141615476Y-118072438D02*
X141663095Y-118120057D01*
X141663095Y-118120057D02*
X141710714Y-118215295D01*
X141710714Y-118215295D02*
X141710714Y-118262914D01*
X141710714Y-118262914D02*
X141663095Y-118358152D01*
X141663095Y-118358152D02*
X141615476Y-118405771D01*
X141615476Y-118405771D02*
X141520238Y-118453390D01*
X141520238Y-118453390D02*
X141329762Y-118453390D01*
X141329762Y-118453390D02*
X141234524Y-118501009D01*
X141234524Y-118501009D02*
X141186905Y-118548628D01*
X141186905Y-118548628D02*
X141139286Y-118643866D01*
X141139286Y-118643866D02*
X141139286Y-118834342D01*
X141139286Y-118834342D02*
X141186905Y-118929580D01*
X141186905Y-118929580D02*
X141234524Y-118977200D01*
X141234524Y-118977200D02*
X141329762Y-119024819D01*
X141329762Y-119024819D02*
X141520238Y-119024819D01*
X141520238Y-119024819D02*
X141615476Y-118977200D01*
X141615476Y-118977200D02*
X141663095Y-118929580D01*
X141663095Y-118929580D02*
X141710714Y-118834342D01*
X141710714Y-118834342D02*
X141710714Y-118643866D01*
X141710714Y-118643866D02*
X141663095Y-118548628D01*
X141663095Y-118548628D02*
X141615476Y-118501009D01*
X141615476Y-118501009D02*
X141520238Y-118453390D01*
X125083333Y-129954819D02*
X124750000Y-129478628D01*
X124511905Y-129954819D02*
X124511905Y-128954819D01*
X124511905Y-128954819D02*
X124892857Y-128954819D01*
X124892857Y-128954819D02*
X124988095Y-129002438D01*
X124988095Y-129002438D02*
X125035714Y-129050057D01*
X125035714Y-129050057D02*
X125083333Y-129145295D01*
X125083333Y-129145295D02*
X125083333Y-129288152D01*
X125083333Y-129288152D02*
X125035714Y-129383390D01*
X125035714Y-129383390D02*
X124988095Y-129431009D01*
X124988095Y-129431009D02*
X124892857Y-129478628D01*
X124892857Y-129478628D02*
X124511905Y-129478628D01*
X125416667Y-128954819D02*
X126083333Y-128954819D01*
X126083333Y-128954819D02*
X125654762Y-129954819D01*
X140508333Y-129274819D02*
X140175000Y-128798628D01*
X139936905Y-129274819D02*
X139936905Y-128274819D01*
X139936905Y-128274819D02*
X140317857Y-128274819D01*
X140317857Y-128274819D02*
X140413095Y-128322438D01*
X140413095Y-128322438D02*
X140460714Y-128370057D01*
X140460714Y-128370057D02*
X140508333Y-128465295D01*
X140508333Y-128465295D02*
X140508333Y-128608152D01*
X140508333Y-128608152D02*
X140460714Y-128703390D01*
X140460714Y-128703390D02*
X140413095Y-128751009D01*
X140413095Y-128751009D02*
X140317857Y-128798628D01*
X140317857Y-128798628D02*
X139936905Y-128798628D01*
X140984524Y-129274819D02*
X141175000Y-129274819D01*
X141175000Y-129274819D02*
X141270238Y-129227200D01*
X141270238Y-129227200D02*
X141317857Y-129179580D01*
X141317857Y-129179580D02*
X141413095Y-129036723D01*
X141413095Y-129036723D02*
X141460714Y-128846247D01*
X141460714Y-128846247D02*
X141460714Y-128465295D01*
X141460714Y-128465295D02*
X141413095Y-128370057D01*
X141413095Y-128370057D02*
X141365476Y-128322438D01*
X141365476Y-128322438D02*
X141270238Y-128274819D01*
X141270238Y-128274819D02*
X141079762Y-128274819D01*
X141079762Y-128274819D02*
X140984524Y-128322438D01*
X140984524Y-128322438D02*
X140936905Y-128370057D01*
X140936905Y-128370057D02*
X140889286Y-128465295D01*
X140889286Y-128465295D02*
X140889286Y-128703390D01*
X140889286Y-128703390D02*
X140936905Y-128798628D01*
X140936905Y-128798628D02*
X140984524Y-128846247D01*
X140984524Y-128846247D02*
X141079762Y-128893866D01*
X141079762Y-128893866D02*
X141270238Y-128893866D01*
X141270238Y-128893866D02*
X141365476Y-128846247D01*
X141365476Y-128846247D02*
X141413095Y-128798628D01*
X141413095Y-128798628D02*
X141460714Y-128703390D01*
X71333333Y-148954819D02*
X71000000Y-148478628D01*
X70761905Y-148954819D02*
X70761905Y-147954819D01*
X70761905Y-147954819D02*
X71142857Y-147954819D01*
X71142857Y-147954819D02*
X71238095Y-148002438D01*
X71238095Y-148002438D02*
X71285714Y-148050057D01*
X71285714Y-148050057D02*
X71333333Y-148145295D01*
X71333333Y-148145295D02*
X71333333Y-148288152D01*
X71333333Y-148288152D02*
X71285714Y-148383390D01*
X71285714Y-148383390D02*
X71238095Y-148431009D01*
X71238095Y-148431009D02*
X71142857Y-148478628D01*
X71142857Y-148478628D02*
X70761905Y-148478628D01*
X71666667Y-147954819D02*
X72285714Y-147954819D01*
X72285714Y-147954819D02*
X71952381Y-148335771D01*
X71952381Y-148335771D02*
X72095238Y-148335771D01*
X72095238Y-148335771D02*
X72190476Y-148383390D01*
X72190476Y-148383390D02*
X72238095Y-148431009D01*
X72238095Y-148431009D02*
X72285714Y-148526247D01*
X72285714Y-148526247D02*
X72285714Y-148764342D01*
X72285714Y-148764342D02*
X72238095Y-148859580D01*
X72238095Y-148859580D02*
X72190476Y-148907200D01*
X72190476Y-148907200D02*
X72095238Y-148954819D01*
X72095238Y-148954819D02*
X71809524Y-148954819D01*
X71809524Y-148954819D02*
X71714286Y-148907200D01*
X71714286Y-148907200D02*
X71666667Y-148859580D01*
X71333333Y-143954819D02*
X71000000Y-143478628D01*
X70761905Y-143954819D02*
X70761905Y-142954819D01*
X70761905Y-142954819D02*
X71142857Y-142954819D01*
X71142857Y-142954819D02*
X71238095Y-143002438D01*
X71238095Y-143002438D02*
X71285714Y-143050057D01*
X71285714Y-143050057D02*
X71333333Y-143145295D01*
X71333333Y-143145295D02*
X71333333Y-143288152D01*
X71333333Y-143288152D02*
X71285714Y-143383390D01*
X71285714Y-143383390D02*
X71238095Y-143431009D01*
X71238095Y-143431009D02*
X71142857Y-143478628D01*
X71142857Y-143478628D02*
X70761905Y-143478628D01*
X72285714Y-143954819D02*
X71714286Y-143954819D01*
X72000000Y-143954819D02*
X72000000Y-142954819D01*
X72000000Y-142954819D02*
X71904762Y-143097676D01*
X71904762Y-143097676D02*
X71809524Y-143192914D01*
X71809524Y-143192914D02*
X71714286Y-143240533D01*
X114807142Y-118241883D02*
X114759523Y-118289503D01*
X114759523Y-118289503D02*
X114616666Y-118337122D01*
X114616666Y-118337122D02*
X114521428Y-118337122D01*
X114521428Y-118337122D02*
X114378571Y-118289503D01*
X114378571Y-118289503D02*
X114283333Y-118194264D01*
X114283333Y-118194264D02*
X114235714Y-118099026D01*
X114235714Y-118099026D02*
X114188095Y-117908550D01*
X114188095Y-117908550D02*
X114188095Y-117765693D01*
X114188095Y-117765693D02*
X114235714Y-117575217D01*
X114235714Y-117575217D02*
X114283333Y-117479979D01*
X114283333Y-117479979D02*
X114378571Y-117384741D01*
X114378571Y-117384741D02*
X114521428Y-117337122D01*
X114521428Y-117337122D02*
X114616666Y-117337122D01*
X114616666Y-117337122D02*
X114759523Y-117384741D01*
X114759523Y-117384741D02*
X114807142Y-117432360D01*
X115759523Y-118337122D02*
X115188095Y-118337122D01*
X115473809Y-118337122D02*
X115473809Y-117337122D01*
X115473809Y-117337122D02*
X115378571Y-117479979D01*
X115378571Y-117479979D02*
X115283333Y-117575217D01*
X115283333Y-117575217D02*
X115188095Y-117622836D01*
X116378571Y-117337122D02*
X116473809Y-117337122D01*
X116473809Y-117337122D02*
X116569047Y-117384741D01*
X116569047Y-117384741D02*
X116616666Y-117432360D01*
X116616666Y-117432360D02*
X116664285Y-117527598D01*
X116664285Y-117527598D02*
X116711904Y-117718074D01*
X116711904Y-117718074D02*
X116711904Y-117956169D01*
X116711904Y-117956169D02*
X116664285Y-118146645D01*
X116664285Y-118146645D02*
X116616666Y-118241883D01*
X116616666Y-118241883D02*
X116569047Y-118289503D01*
X116569047Y-118289503D02*
X116473809Y-118337122D01*
X116473809Y-118337122D02*
X116378571Y-118337122D01*
X116378571Y-118337122D02*
X116283333Y-118289503D01*
X116283333Y-118289503D02*
X116235714Y-118241883D01*
X116235714Y-118241883D02*
X116188095Y-118146645D01*
X116188095Y-118146645D02*
X116140476Y-117956169D01*
X116140476Y-117956169D02*
X116140476Y-117718074D01*
X116140476Y-117718074D02*
X116188095Y-117527598D01*
X116188095Y-117527598D02*
X116235714Y-117432360D01*
X116235714Y-117432360D02*
X116283333Y-117384741D01*
X116283333Y-117384741D02*
X116378571Y-117337122D01*
X71333333Y-146454819D02*
X71000000Y-145978628D01*
X70761905Y-146454819D02*
X70761905Y-145454819D01*
X70761905Y-145454819D02*
X71142857Y-145454819D01*
X71142857Y-145454819D02*
X71238095Y-145502438D01*
X71238095Y-145502438D02*
X71285714Y-145550057D01*
X71285714Y-145550057D02*
X71333333Y-145645295D01*
X71333333Y-145645295D02*
X71333333Y-145788152D01*
X71333333Y-145788152D02*
X71285714Y-145883390D01*
X71285714Y-145883390D02*
X71238095Y-145931009D01*
X71238095Y-145931009D02*
X71142857Y-145978628D01*
X71142857Y-145978628D02*
X70761905Y-145978628D01*
X71714286Y-145550057D02*
X71761905Y-145502438D01*
X71761905Y-145502438D02*
X71857143Y-145454819D01*
X71857143Y-145454819D02*
X72095238Y-145454819D01*
X72095238Y-145454819D02*
X72190476Y-145502438D01*
X72190476Y-145502438D02*
X72238095Y-145550057D01*
X72238095Y-145550057D02*
X72285714Y-145645295D01*
X72285714Y-145645295D02*
X72285714Y-145740533D01*
X72285714Y-145740533D02*
X72238095Y-145883390D01*
X72238095Y-145883390D02*
X71666667Y-146454819D01*
X71666667Y-146454819D02*
X72285714Y-146454819D01*
X112238095Y-125972516D02*
X112238095Y-126782039D01*
X112238095Y-126782039D02*
X112285714Y-126877277D01*
X112285714Y-126877277D02*
X112333333Y-126924897D01*
X112333333Y-126924897D02*
X112428571Y-126972516D01*
X112428571Y-126972516D02*
X112619047Y-126972516D01*
X112619047Y-126972516D02*
X112714285Y-126924897D01*
X112714285Y-126924897D02*
X112761904Y-126877277D01*
X112761904Y-126877277D02*
X112809523Y-126782039D01*
X112809523Y-126782039D02*
X112809523Y-125972516D01*
X113714285Y-126305849D02*
X113714285Y-126972516D01*
X113476190Y-125924897D02*
X113238095Y-126639182D01*
X113238095Y-126639182D02*
X113857142Y-126639182D01*
X133107142Y-126259580D02*
X133059523Y-126307200D01*
X133059523Y-126307200D02*
X132916666Y-126354819D01*
X132916666Y-126354819D02*
X132821428Y-126354819D01*
X132821428Y-126354819D02*
X132678571Y-126307200D01*
X132678571Y-126307200D02*
X132583333Y-126211961D01*
X132583333Y-126211961D02*
X132535714Y-126116723D01*
X132535714Y-126116723D02*
X132488095Y-125926247D01*
X132488095Y-125926247D02*
X132488095Y-125783390D01*
X132488095Y-125783390D02*
X132535714Y-125592914D01*
X132535714Y-125592914D02*
X132583333Y-125497676D01*
X132583333Y-125497676D02*
X132678571Y-125402438D01*
X132678571Y-125402438D02*
X132821428Y-125354819D01*
X132821428Y-125354819D02*
X132916666Y-125354819D01*
X132916666Y-125354819D02*
X133059523Y-125402438D01*
X133059523Y-125402438D02*
X133107142Y-125450057D01*
X134059523Y-126354819D02*
X133488095Y-126354819D01*
X133773809Y-126354819D02*
X133773809Y-125354819D01*
X133773809Y-125354819D02*
X133678571Y-125497676D01*
X133678571Y-125497676D02*
X133583333Y-125592914D01*
X133583333Y-125592914D02*
X133488095Y-125640533D01*
X134916666Y-125354819D02*
X134726190Y-125354819D01*
X134726190Y-125354819D02*
X134630952Y-125402438D01*
X134630952Y-125402438D02*
X134583333Y-125450057D01*
X134583333Y-125450057D02*
X134488095Y-125592914D01*
X134488095Y-125592914D02*
X134440476Y-125783390D01*
X134440476Y-125783390D02*
X134440476Y-126164342D01*
X134440476Y-126164342D02*
X134488095Y-126259580D01*
X134488095Y-126259580D02*
X134535714Y-126307200D01*
X134535714Y-126307200D02*
X134630952Y-126354819D01*
X134630952Y-126354819D02*
X134821428Y-126354819D01*
X134821428Y-126354819D02*
X134916666Y-126307200D01*
X134916666Y-126307200D02*
X134964285Y-126259580D01*
X134964285Y-126259580D02*
X135011904Y-126164342D01*
X135011904Y-126164342D02*
X135011904Y-125926247D01*
X135011904Y-125926247D02*
X134964285Y-125831009D01*
X134964285Y-125831009D02*
X134916666Y-125783390D01*
X134916666Y-125783390D02*
X134821428Y-125735771D01*
X134821428Y-125735771D02*
X134630952Y-125735771D01*
X134630952Y-125735771D02*
X134535714Y-125783390D01*
X134535714Y-125783390D02*
X134488095Y-125831009D01*
X134488095Y-125831009D02*
X134440476Y-125926247D01*
X71333333Y-151454819D02*
X71000000Y-150978628D01*
X70761905Y-151454819D02*
X70761905Y-150454819D01*
X70761905Y-150454819D02*
X71142857Y-150454819D01*
X71142857Y-150454819D02*
X71238095Y-150502438D01*
X71238095Y-150502438D02*
X71285714Y-150550057D01*
X71285714Y-150550057D02*
X71333333Y-150645295D01*
X71333333Y-150645295D02*
X71333333Y-150788152D01*
X71333333Y-150788152D02*
X71285714Y-150883390D01*
X71285714Y-150883390D02*
X71238095Y-150931009D01*
X71238095Y-150931009D02*
X71142857Y-150978628D01*
X71142857Y-150978628D02*
X70761905Y-150978628D01*
X72190476Y-150788152D02*
X72190476Y-151454819D01*
X71952381Y-150407200D02*
X71714286Y-151121485D01*
X71714286Y-151121485D02*
X72333333Y-151121485D01*
X103209580Y-155616666D02*
X103257200Y-155664285D01*
X103257200Y-155664285D02*
X103304819Y-155807142D01*
X103304819Y-155807142D02*
X103304819Y-155902380D01*
X103304819Y-155902380D02*
X103257200Y-156045237D01*
X103257200Y-156045237D02*
X103161961Y-156140475D01*
X103161961Y-156140475D02*
X103066723Y-156188094D01*
X103066723Y-156188094D02*
X102876247Y-156235713D01*
X102876247Y-156235713D02*
X102733390Y-156235713D01*
X102733390Y-156235713D02*
X102542914Y-156188094D01*
X102542914Y-156188094D02*
X102447676Y-156140475D01*
X102447676Y-156140475D02*
X102352438Y-156045237D01*
X102352438Y-156045237D02*
X102304819Y-155902380D01*
X102304819Y-155902380D02*
X102304819Y-155807142D01*
X102304819Y-155807142D02*
X102352438Y-155664285D01*
X102352438Y-155664285D02*
X102400057Y-155616666D01*
X102304819Y-154711904D02*
X102304819Y-155188094D01*
X102304819Y-155188094D02*
X102781009Y-155235713D01*
X102781009Y-155235713D02*
X102733390Y-155188094D01*
X102733390Y-155188094D02*
X102685771Y-155092856D01*
X102685771Y-155092856D02*
X102685771Y-154854761D01*
X102685771Y-154854761D02*
X102733390Y-154759523D01*
X102733390Y-154759523D02*
X102781009Y-154711904D01*
X102781009Y-154711904D02*
X102876247Y-154664285D01*
X102876247Y-154664285D02*
X103114342Y-154664285D01*
X103114342Y-154664285D02*
X103209580Y-154711904D01*
X103209580Y-154711904D02*
X103257200Y-154759523D01*
X103257200Y-154759523D02*
X103304819Y-154854761D01*
X103304819Y-154854761D02*
X103304819Y-155092856D01*
X103304819Y-155092856D02*
X103257200Y-155188094D01*
X103257200Y-155188094D02*
X103209580Y-155235713D01*
X132857142Y-116009580D02*
X132809523Y-116057200D01*
X132809523Y-116057200D02*
X132666666Y-116104819D01*
X132666666Y-116104819D02*
X132571428Y-116104819D01*
X132571428Y-116104819D02*
X132428571Y-116057200D01*
X132428571Y-116057200D02*
X132333333Y-115961961D01*
X132333333Y-115961961D02*
X132285714Y-115866723D01*
X132285714Y-115866723D02*
X132238095Y-115676247D01*
X132238095Y-115676247D02*
X132238095Y-115533390D01*
X132238095Y-115533390D02*
X132285714Y-115342914D01*
X132285714Y-115342914D02*
X132333333Y-115247676D01*
X132333333Y-115247676D02*
X132428571Y-115152438D01*
X132428571Y-115152438D02*
X132571428Y-115104819D01*
X132571428Y-115104819D02*
X132666666Y-115104819D01*
X132666666Y-115104819D02*
X132809523Y-115152438D01*
X132809523Y-115152438D02*
X132857142Y-115200057D01*
X133809523Y-116104819D02*
X133238095Y-116104819D01*
X133523809Y-116104819D02*
X133523809Y-115104819D01*
X133523809Y-115104819D02*
X133428571Y-115247676D01*
X133428571Y-115247676D02*
X133333333Y-115342914D01*
X133333333Y-115342914D02*
X133238095Y-115390533D01*
X134714285Y-115104819D02*
X134238095Y-115104819D01*
X134238095Y-115104819D02*
X134190476Y-115581009D01*
X134190476Y-115581009D02*
X134238095Y-115533390D01*
X134238095Y-115533390D02*
X134333333Y-115485771D01*
X134333333Y-115485771D02*
X134571428Y-115485771D01*
X134571428Y-115485771D02*
X134666666Y-115533390D01*
X134666666Y-115533390D02*
X134714285Y-115581009D01*
X134714285Y-115581009D02*
X134761904Y-115676247D01*
X134761904Y-115676247D02*
X134761904Y-115914342D01*
X134761904Y-115914342D02*
X134714285Y-116009580D01*
X134714285Y-116009580D02*
X134666666Y-116057200D01*
X134666666Y-116057200D02*
X134571428Y-116104819D01*
X134571428Y-116104819D02*
X134333333Y-116104819D01*
X134333333Y-116104819D02*
X134238095Y-116057200D01*
X134238095Y-116057200D02*
X134190476Y-116009580D01*
X98857142Y-150359580D02*
X98809523Y-150407200D01*
X98809523Y-150407200D02*
X98666666Y-150454819D01*
X98666666Y-150454819D02*
X98571428Y-150454819D01*
X98571428Y-150454819D02*
X98428571Y-150407200D01*
X98428571Y-150407200D02*
X98333333Y-150311961D01*
X98333333Y-150311961D02*
X98285714Y-150216723D01*
X98285714Y-150216723D02*
X98238095Y-150026247D01*
X98238095Y-150026247D02*
X98238095Y-149883390D01*
X98238095Y-149883390D02*
X98285714Y-149692914D01*
X98285714Y-149692914D02*
X98333333Y-149597676D01*
X98333333Y-149597676D02*
X98428571Y-149502438D01*
X98428571Y-149502438D02*
X98571428Y-149454819D01*
X98571428Y-149454819D02*
X98666666Y-149454819D01*
X98666666Y-149454819D02*
X98809523Y-149502438D01*
X98809523Y-149502438D02*
X98857142Y-149550057D01*
X99809523Y-150454819D02*
X99238095Y-150454819D01*
X99523809Y-150454819D02*
X99523809Y-149454819D01*
X99523809Y-149454819D02*
X99428571Y-149597676D01*
X99428571Y-149597676D02*
X99333333Y-149692914D01*
X99333333Y-149692914D02*
X99238095Y-149740533D01*
X100285714Y-150454819D02*
X100476190Y-150454819D01*
X100476190Y-150454819D02*
X100571428Y-150407200D01*
X100571428Y-150407200D02*
X100619047Y-150359580D01*
X100619047Y-150359580D02*
X100714285Y-150216723D01*
X100714285Y-150216723D02*
X100761904Y-150026247D01*
X100761904Y-150026247D02*
X100761904Y-149645295D01*
X100761904Y-149645295D02*
X100714285Y-149550057D01*
X100714285Y-149550057D02*
X100666666Y-149502438D01*
X100666666Y-149502438D02*
X100571428Y-149454819D01*
X100571428Y-149454819D02*
X100380952Y-149454819D01*
X100380952Y-149454819D02*
X100285714Y-149502438D01*
X100285714Y-149502438D02*
X100238095Y-149550057D01*
X100238095Y-149550057D02*
X100190476Y-149645295D01*
X100190476Y-149645295D02*
X100190476Y-149883390D01*
X100190476Y-149883390D02*
X100238095Y-149978628D01*
X100238095Y-149978628D02*
X100285714Y-150026247D01*
X100285714Y-150026247D02*
X100380952Y-150073866D01*
X100380952Y-150073866D02*
X100571428Y-150073866D01*
X100571428Y-150073866D02*
X100666666Y-150026247D01*
X100666666Y-150026247D02*
X100714285Y-149978628D01*
X100714285Y-149978628D02*
X100761904Y-149883390D01*
X140282142Y-124274819D02*
X139948809Y-123798628D01*
X139710714Y-124274819D02*
X139710714Y-123274819D01*
X139710714Y-123274819D02*
X140091666Y-123274819D01*
X140091666Y-123274819D02*
X140186904Y-123322438D01*
X140186904Y-123322438D02*
X140234523Y-123370057D01*
X140234523Y-123370057D02*
X140282142Y-123465295D01*
X140282142Y-123465295D02*
X140282142Y-123608152D01*
X140282142Y-123608152D02*
X140234523Y-123703390D01*
X140234523Y-123703390D02*
X140186904Y-123751009D01*
X140186904Y-123751009D02*
X140091666Y-123798628D01*
X140091666Y-123798628D02*
X139710714Y-123798628D01*
X141234523Y-124274819D02*
X140663095Y-124274819D01*
X140948809Y-124274819D02*
X140948809Y-123274819D01*
X140948809Y-123274819D02*
X140853571Y-123417676D01*
X140853571Y-123417676D02*
X140758333Y-123512914D01*
X140758333Y-123512914D02*
X140663095Y-123560533D01*
X141853571Y-123274819D02*
X141948809Y-123274819D01*
X141948809Y-123274819D02*
X142044047Y-123322438D01*
X142044047Y-123322438D02*
X142091666Y-123370057D01*
X142091666Y-123370057D02*
X142139285Y-123465295D01*
X142139285Y-123465295D02*
X142186904Y-123655771D01*
X142186904Y-123655771D02*
X142186904Y-123893866D01*
X142186904Y-123893866D02*
X142139285Y-124084342D01*
X142139285Y-124084342D02*
X142091666Y-124179580D01*
X142091666Y-124179580D02*
X142044047Y-124227200D01*
X142044047Y-124227200D02*
X141948809Y-124274819D01*
X141948809Y-124274819D02*
X141853571Y-124274819D01*
X141853571Y-124274819D02*
X141758333Y-124227200D01*
X141758333Y-124227200D02*
X141710714Y-124179580D01*
X141710714Y-124179580D02*
X141663095Y-124084342D01*
X141663095Y-124084342D02*
X141615476Y-123893866D01*
X141615476Y-123893866D02*
X141615476Y-123655771D01*
X141615476Y-123655771D02*
X141663095Y-123465295D01*
X141663095Y-123465295D02*
X141710714Y-123370057D01*
X141710714Y-123370057D02*
X141758333Y-123322438D01*
X141758333Y-123322438D02*
X141853571Y-123274819D01*
X140107142Y-134274819D02*
X139773809Y-133798628D01*
X139535714Y-134274819D02*
X139535714Y-133274819D01*
X139535714Y-133274819D02*
X139916666Y-133274819D01*
X139916666Y-133274819D02*
X140011904Y-133322438D01*
X140011904Y-133322438D02*
X140059523Y-133370057D01*
X140059523Y-133370057D02*
X140107142Y-133465295D01*
X140107142Y-133465295D02*
X140107142Y-133608152D01*
X140107142Y-133608152D02*
X140059523Y-133703390D01*
X140059523Y-133703390D02*
X140011904Y-133751009D01*
X140011904Y-133751009D02*
X139916666Y-133798628D01*
X139916666Y-133798628D02*
X139535714Y-133798628D01*
X141059523Y-134274819D02*
X140488095Y-134274819D01*
X140773809Y-134274819D02*
X140773809Y-133274819D01*
X140773809Y-133274819D02*
X140678571Y-133417676D01*
X140678571Y-133417676D02*
X140583333Y-133512914D01*
X140583333Y-133512914D02*
X140488095Y-133560533D01*
X142011904Y-134274819D02*
X141440476Y-134274819D01*
X141726190Y-134274819D02*
X141726190Y-133274819D01*
X141726190Y-133274819D02*
X141630952Y-133417676D01*
X141630952Y-133417676D02*
X141535714Y-133512914D01*
X141535714Y-133512914D02*
X141440476Y-133560533D01*
D13*
%TO.C,C1*%
X111390580Y-156240000D02*
X111109420Y-156240000D01*
X111390580Y-157260000D02*
X111109420Y-157260000D01*
%TO.C,C7*%
X111390580Y-140490000D02*
X111109420Y-140490000D01*
X111390580Y-141510000D02*
X111109420Y-141510000D01*
D14*
%TO.C,CON1*%
X146269000Y-118995000D02*
X146269000Y-120395000D01*
X146269000Y-131195000D02*
X146269000Y-129695000D01*
X146869000Y-118995000D02*
X146269000Y-118995000D01*
X146869000Y-131195000D02*
X146269000Y-131195000D01*
D13*
%TO.C,JP1*%
X61080000Y-157540000D02*
X61080000Y-142080000D01*
X63730000Y-154890000D02*
X63730000Y-157540000D01*
X63730000Y-157540000D02*
X61080000Y-157540000D01*
X66380000Y-142080000D02*
X61080000Y-142080000D01*
X66380000Y-154890000D02*
X63730000Y-154890000D01*
X66380000Y-154890000D02*
X66380000Y-142080000D01*
X66380000Y-156160000D02*
X66380000Y-157540000D01*
X66380000Y-157540000D02*
X65000000Y-157540000D01*
%TO.C,U1*%
X80085000Y-147990000D02*
X80320000Y-147990000D01*
X80085000Y-151850000D02*
X80085000Y-147990000D01*
X80085000Y-151850000D02*
X80085000Y-155710000D01*
X80085000Y-155710000D02*
X80320000Y-155710000D01*
X93105000Y-147990000D02*
X92870000Y-147990000D01*
X93105000Y-151850000D02*
X93105000Y-147990000D01*
X93105000Y-151850000D02*
X93105000Y-155710000D01*
X93105000Y-155710000D02*
X92870000Y-155710000D01*
X80320000Y-156562500D02*
X79850000Y-156902500D01*
X79850000Y-156222500D01*
X80320000Y-156562500D01*
G36*
X80320000Y-156562500D02*
G01*
X79850000Y-156902500D01*
X79850000Y-156222500D01*
X80320000Y-156562500D01*
G37*
%TO.C,C11*%
X120990000Y-129239617D02*
X120990000Y-129520777D01*
X122010000Y-129239617D02*
X122010000Y-129520777D01*
%TO.C,C8*%
X104840000Y-129404437D02*
X104840000Y-135160000D01*
X104840000Y-135160000D02*
X107190000Y-135160000D01*
X105904437Y-128340000D02*
X104840000Y-129404437D01*
X105904437Y-128340000D02*
X107190000Y-128340000D01*
X110097500Y-127312500D02*
X110097500Y-128100000D01*
X110491250Y-127706250D02*
X109703750Y-127706250D01*
X110595563Y-128340000D02*
X109310000Y-128340000D01*
X110595563Y-128340000D02*
X111660000Y-129404437D01*
X111660000Y-129404437D02*
X111660000Y-135160000D01*
X111660000Y-135160000D02*
X109310000Y-135160000D01*
%TO.C,C12*%
X118740000Y-129239617D02*
X118740000Y-129520777D01*
X119760000Y-129239617D02*
X119760000Y-129520777D01*
%TO.C,U2*%
X113690000Y-148140000D02*
X113980000Y-148140000D01*
X113690000Y-152000000D02*
X113690000Y-148140000D01*
X113690000Y-152000000D02*
X113690000Y-155860000D01*
X113690000Y-155860000D02*
X113980000Y-155860000D01*
X129310000Y-148140000D02*
X129020000Y-148140000D01*
X129310000Y-152000000D02*
X129310000Y-148140000D01*
X129310000Y-152000000D02*
X129310000Y-155860000D01*
X129310000Y-155860000D02*
X129020000Y-155860000D01*
X113980000Y-156700000D02*
X113510000Y-157040000D01*
X113510000Y-156360000D01*
X113980000Y-156700000D01*
G36*
X113980000Y-156700000D02*
G01*
X113510000Y-157040000D01*
X113510000Y-156360000D01*
X113980000Y-156700000D01*
G37*
%TO.C,C6*%
X80140580Y-144490000D02*
X79859420Y-144490000D01*
X80140580Y-145510000D02*
X79859420Y-145510000D01*
%TO.C,Y1*%
X103490000Y-145950000D02*
X103550000Y-145950000D01*
X103490000Y-151550000D02*
X103490000Y-145950000D01*
X103550000Y-151550000D02*
X103490000Y-151550000D01*
X103550000Y-152010000D02*
X103550000Y-151550000D01*
X105870000Y-145950000D02*
X108630000Y-145950000D01*
X105870000Y-151550000D02*
X105870000Y-152010000D01*
X108630000Y-151550000D02*
X105870000Y-151550000D01*
X110950000Y-145950000D02*
X111010000Y-145950000D01*
X111010000Y-145950000D02*
X111010000Y-151550000D01*
X111010000Y-151550000D02*
X110950000Y-151550000D01*
%TO.C,U3*%
X113740000Y-135615000D02*
X113995000Y-135615000D01*
X113740000Y-138000000D02*
X113740000Y-135615000D01*
X113740000Y-138000000D02*
X113740000Y-140385000D01*
X113740000Y-140385000D02*
X113995000Y-140385000D01*
X124260000Y-135615000D02*
X124005000Y-135615000D01*
X124260000Y-138000000D02*
X124260000Y-135615000D01*
X124260000Y-138000000D02*
X124260000Y-140385000D01*
X124260000Y-140385000D02*
X124005000Y-140385000D01*
X113995000Y-141162500D02*
X113665000Y-141402500D01*
X113665000Y-140922500D01*
X113995000Y-141162500D01*
G36*
X113995000Y-141162500D02*
G01*
X113665000Y-141402500D01*
X113665000Y-140922500D01*
X113995000Y-141162500D01*
G37*
D15*
%TO.C,G2*%
G36*
X103012637Y-117882728D02*
G01*
X103102881Y-117893579D01*
X103175264Y-117915597D01*
X103223208Y-117938503D01*
X103323084Y-118007819D01*
X103398971Y-118091442D01*
X103440095Y-118176194D01*
X103444409Y-118209068D01*
X103427424Y-118296992D01*
X103379703Y-118415420D01*
X103306092Y-118555469D01*
X103211440Y-118708254D01*
X103100595Y-118864891D01*
X103052925Y-118926489D01*
X103013466Y-118980293D01*
X102993728Y-119015315D01*
X102993207Y-119018144D01*
X102979164Y-119044707D01*
X102940374Y-119107400D01*
X102881845Y-119198394D01*
X102808587Y-119309861D01*
X102757919Y-119385890D01*
X102593661Y-119632474D01*
X102434181Y-119874489D01*
X102284552Y-120104098D01*
X102149849Y-120313469D01*
X102035148Y-120494765D01*
X101945886Y-120639550D01*
X101869747Y-120763237D01*
X101780016Y-120905539D01*
X101692765Y-121041052D01*
X101668884Y-121077481D01*
X101601046Y-121181618D01*
X101540418Y-121276887D01*
X101495639Y-121349610D01*
X101480354Y-121376030D01*
X101438204Y-121450753D01*
X101376938Y-121556169D01*
X101302842Y-121681787D01*
X101222205Y-121817118D01*
X101141311Y-121951672D01*
X101066449Y-122074958D01*
X101003905Y-122176488D01*
X100959966Y-122245770D01*
X100951440Y-122258568D01*
X100900057Y-122336735D01*
X100835847Y-122438163D01*
X100774982Y-122537165D01*
X100720792Y-122626738D01*
X100674770Y-122702535D01*
X100646031Y-122749546D01*
X100644304Y-122752335D01*
X100619684Y-122795430D01*
X100578547Y-122870806D01*
X100528937Y-122963685D01*
X100518646Y-122983175D01*
X100476016Y-123065423D01*
X100449256Y-123128391D01*
X100443309Y-123174918D01*
X100463122Y-123207841D01*
X100513637Y-123229999D01*
X100599800Y-123244231D01*
X100726554Y-123253374D01*
X100898844Y-123260266D01*
X101007673Y-123263890D01*
X101195668Y-123270522D01*
X101349903Y-123277381D01*
X101483897Y-123285707D01*
X101611170Y-123296737D01*
X101745242Y-123311710D01*
X101899632Y-123331863D01*
X102087860Y-123358435D01*
X102170428Y-123370379D01*
X102304839Y-123390135D01*
X102419067Y-123407728D01*
X102524726Y-123425269D01*
X102633431Y-123444870D01*
X102756797Y-123468641D01*
X102906440Y-123498694D01*
X103093973Y-123537140D01*
X103139184Y-123546463D01*
X103402577Y-123601771D01*
X103618118Y-123649532D01*
X103790257Y-123691264D01*
X103923446Y-123728483D01*
X104022135Y-123762708D01*
X104090776Y-123795455D01*
X104133818Y-123828242D01*
X104155713Y-123862586D01*
X104161023Y-123894802D01*
X104144120Y-123933739D01*
X104098384Y-124001138D01*
X104031275Y-124086722D01*
X103968599Y-124159822D01*
X103870181Y-124272484D01*
X103767240Y-124393711D01*
X103675912Y-124504376D01*
X103639799Y-124549574D01*
X103536565Y-124667385D01*
X103434889Y-124751273D01*
X103349760Y-124800807D01*
X103284208Y-124832644D01*
X103227865Y-124854225D01*
X103168196Y-124867415D01*
X103092666Y-124874083D01*
X102988741Y-124876094D01*
X102849145Y-124875364D01*
X102701153Y-124872121D01*
X102556015Y-124865632D01*
X102430580Y-124856842D01*
X102342946Y-124846900D01*
X102250648Y-124833100D01*
X102123819Y-124815304D01*
X101980614Y-124796015D01*
X101865203Y-124781031D01*
X101722027Y-124762295D01*
X101580541Y-124742905D01*
X101458901Y-124725397D01*
X101387460Y-124714346D01*
X101136075Y-124678806D01*
X100846459Y-124647445D01*
X100532655Y-124621090D01*
X100208706Y-124600569D01*
X99888656Y-124586712D01*
X99586549Y-124580345D01*
X99316427Y-124582296D01*
X99211075Y-124586015D01*
X98982049Y-124597972D01*
X98797415Y-124611333D01*
X98648483Y-124627484D01*
X98526565Y-124647812D01*
X98422970Y-124673703D01*
X98329009Y-124706543D01*
X98255589Y-124738445D01*
X98086320Y-124815180D01*
X97952226Y-124870226D01*
X97841941Y-124907415D01*
X97744096Y-124930582D01*
X97647322Y-124943557D01*
X97647168Y-124943571D01*
X97550918Y-124949307D01*
X97487728Y-124942353D01*
X97438372Y-124919166D01*
X97412904Y-124900404D01*
X97364609Y-124851230D01*
X97343608Y-124791470D01*
X97339916Y-124723923D01*
X97342806Y-124665710D01*
X97353873Y-124608190D01*
X97376706Y-124544221D01*
X97414898Y-124466661D01*
X97472039Y-124368366D01*
X97551721Y-124242196D01*
X97657535Y-124081007D01*
X97680812Y-124045951D01*
X97791328Y-123881387D01*
X97881560Y-123754503D01*
X97959935Y-123658333D01*
X98034880Y-123585909D01*
X98114824Y-123530265D01*
X98208193Y-123484433D01*
X98323416Y-123441447D01*
X98468919Y-123394340D01*
X98469091Y-123394286D01*
X98602946Y-123351353D01*
X98721770Y-123311818D01*
X98814756Y-123279380D01*
X98871098Y-123257738D01*
X98879317Y-123253862D01*
X98910566Y-123223134D01*
X98964148Y-123155758D01*
X99034008Y-123059940D01*
X99114092Y-122943886D01*
X99168400Y-122862040D01*
X99265086Y-122714870D01*
X99367356Y-122560575D01*
X99464912Y-122414603D01*
X99547457Y-122292406D01*
X99570583Y-122258568D01*
X99643400Y-122151475D01*
X99735682Y-122014246D01*
X99837865Y-121861187D01*
X99940384Y-121706602D01*
X99990367Y-121630795D01*
X100095503Y-121471334D01*
X100218268Y-121285725D01*
X100346758Y-121091929D01*
X100469070Y-120907910D01*
X100531504Y-120814214D01*
X100619812Y-120680968D01*
X100697007Y-120562816D01*
X100758567Y-120466819D01*
X100799967Y-120400041D01*
X100816683Y-120369543D01*
X100816823Y-120368776D01*
X100833074Y-120338351D01*
X100867832Y-120296224D01*
X100895493Y-120260276D01*
X100948024Y-120186247D01*
X101021132Y-120080412D01*
X101110522Y-119949043D01*
X101211901Y-119798413D01*
X101320973Y-119634794D01*
X101332303Y-119617711D01*
X101444145Y-119449098D01*
X101550467Y-119289003D01*
X101646545Y-119144524D01*
X101727655Y-119022757D01*
X101789075Y-118930801D01*
X101826080Y-118875752D01*
X101826892Y-118874556D01*
X101874949Y-118803096D01*
X101942420Y-118701842D01*
X102019607Y-118585384D01*
X102082733Y-118489707D01*
X102181154Y-118342159D01*
X102259276Y-118231138D01*
X102324568Y-118147928D01*
X102384500Y-118083816D01*
X102446542Y-118030089D01*
X102518164Y-117978032D01*
X102525866Y-117972769D01*
X102596089Y-117927346D01*
X102654223Y-117899895D01*
X102717954Y-117885873D01*
X102804966Y-117880738D01*
X102887042Y-117880003D01*
X103012637Y-117882728D01*
G37*
G36*
X90502190Y-117819786D02*
G01*
X90539566Y-117822660D01*
X90731093Y-117865537D01*
X90915018Y-117955789D01*
X91083861Y-118087706D01*
X91230146Y-118255580D01*
X91334952Y-118429881D01*
X91384418Y-118533447D01*
X91410796Y-118604285D01*
X91415716Y-118656638D01*
X91400810Y-118704753D01*
X91372242Y-118755470D01*
X91326008Y-118809925D01*
X91255329Y-118851224D01*
X91164781Y-118882980D01*
X91008305Y-118935023D01*
X90881691Y-118987577D01*
X90790995Y-119037499D01*
X90742277Y-119081642D01*
X90735954Y-119105562D01*
X90750750Y-119129345D01*
X90790748Y-119147969D01*
X90865132Y-119164205D01*
X90983084Y-119180825D01*
X90986736Y-119181278D01*
X91129584Y-119203294D01*
X91235961Y-119233452D01*
X91322476Y-119279711D01*
X91405742Y-119350029D01*
X91463490Y-119409708D01*
X91529520Y-119489418D01*
X91588964Y-119574508D01*
X91598973Y-119591170D01*
X91631283Y-119659494D01*
X91665154Y-119749979D01*
X91696212Y-119847844D01*
X91720082Y-119938309D01*
X91732390Y-120006594D01*
X91730622Y-120035951D01*
X91728083Y-120071103D01*
X91734161Y-120140877D01*
X91742958Y-120201619D01*
X91752682Y-120293234D01*
X91751413Y-120396215D01*
X91738131Y-120521109D01*
X91711816Y-120678459D01*
X91682661Y-120825339D01*
X91634077Y-121023572D01*
X91568747Y-121238224D01*
X91492270Y-121454047D01*
X91410243Y-121655791D01*
X91328264Y-121828206D01*
X91288081Y-121900261D01*
X91264183Y-121945058D01*
X91227115Y-122019558D01*
X91195819Y-122084680D01*
X91155914Y-122163727D01*
X91110087Y-122242024D01*
X91052291Y-122328236D01*
X90976476Y-122431029D01*
X90876596Y-122559068D01*
X90784221Y-122674441D01*
X90705343Y-122772879D01*
X90633537Y-122863539D01*
X90578941Y-122933569D01*
X90558620Y-122960395D01*
X90448855Y-123096592D01*
X90307810Y-123252557D01*
X90144242Y-123420173D01*
X89966906Y-123591319D01*
X89784560Y-123757876D01*
X89605960Y-123911726D01*
X89439863Y-124044749D01*
X89295026Y-124148825D01*
X89238499Y-124184420D01*
X89144492Y-124241166D01*
X89064955Y-124291034D01*
X89013607Y-124325368D01*
X89005955Y-124331177D01*
X88953107Y-124365824D01*
X88862115Y-124416816D01*
X88743372Y-124479004D01*
X88607269Y-124547241D01*
X88464201Y-124616378D01*
X88324559Y-124681267D01*
X88198736Y-124736761D01*
X88130093Y-124765035D01*
X88034108Y-124801587D01*
X87938878Y-124834208D01*
X87835038Y-124865440D01*
X87713224Y-124897824D01*
X87564071Y-124933900D01*
X87378216Y-124976211D01*
X87235843Y-125007700D01*
X87094381Y-125025115D01*
X86908708Y-125025870D01*
X86685003Y-125009989D01*
X86643782Y-125005652D01*
X86401258Y-124958750D01*
X86158506Y-124875214D01*
X85963045Y-124776941D01*
X85748813Y-124619161D01*
X85555234Y-124418387D01*
X85386018Y-124181927D01*
X85244874Y-123917093D01*
X85135511Y-123631196D01*
X85108099Y-123520000D01*
X86110651Y-123520000D01*
X86123988Y-123742336D01*
X86164141Y-123919999D01*
X86232196Y-124054745D01*
X86329240Y-124148331D01*
X86456358Y-124202515D01*
X86541148Y-124216308D01*
X86618291Y-124223545D01*
X86673334Y-124229382D01*
X86683594Y-124230730D01*
X86721595Y-124229278D01*
X86796244Y-124221559D01*
X86891701Y-124209224D01*
X86895924Y-124208630D01*
X87083375Y-124168382D01*
X87300527Y-124098649D01*
X87536697Y-124004397D01*
X87781205Y-123890595D01*
X88023367Y-123762210D01*
X88252503Y-123624209D01*
X88455626Y-123483297D01*
X88551769Y-123407474D01*
X88670627Y-123308475D01*
X88803242Y-123194313D01*
X88940658Y-123072996D01*
X89073918Y-122952537D01*
X89194063Y-122840946D01*
X89292139Y-122746235D01*
X89359187Y-122676413D01*
X89364215Y-122670676D01*
X89419371Y-122608715D01*
X89497295Y-122523498D01*
X89584101Y-122430161D01*
X89614719Y-122397626D01*
X89695295Y-122310297D01*
X89765701Y-122230361D01*
X89814957Y-122170428D01*
X89827049Y-122153723D01*
X89860649Y-122104645D01*
X89915914Y-122025946D01*
X89983406Y-121931021D01*
X90018056Y-121882676D01*
X90241550Y-121544210D01*
X90434428Y-121195527D01*
X90592095Y-120846343D01*
X90709957Y-120506374D01*
X90758215Y-120317485D01*
X90770311Y-120212656D01*
X90767775Y-120093769D01*
X90752680Y-119978730D01*
X90727095Y-119885444D01*
X90703181Y-119841606D01*
X90654578Y-119808143D01*
X90572661Y-119773541D01*
X90476662Y-119744175D01*
X90385813Y-119726425D01*
X90348197Y-119723898D01*
X90191674Y-119737935D01*
X89997410Y-119778507D01*
X89772296Y-119843415D01*
X89523225Y-119930460D01*
X89257087Y-120037442D01*
X88992685Y-120156504D01*
X88795059Y-120256997D01*
X88573134Y-120381334D01*
X88340099Y-120521229D01*
X88109144Y-120668399D01*
X87893460Y-120814557D01*
X87706238Y-120951418D01*
X87625809Y-121015094D01*
X87429186Y-121182770D01*
X87239012Y-121357057D01*
X87062856Y-121530267D01*
X86908288Y-121694715D01*
X86782875Y-121842714D01*
X86703903Y-121951297D01*
X86636401Y-122053527D01*
X86574953Y-122143739D01*
X86528193Y-122209398D01*
X86510579Y-122232027D01*
X86437166Y-122338235D01*
X86360147Y-122485174D01*
X86284416Y-122661174D01*
X86214864Y-122854569D01*
X86156385Y-123053689D01*
X86142373Y-123110089D01*
X86128456Y-123196398D01*
X86117665Y-123316214D01*
X86111513Y-123449985D01*
X86110651Y-123520000D01*
X85108099Y-123520000D01*
X85061641Y-123331546D01*
X85026973Y-123025454D01*
X85024764Y-122927967D01*
X85030641Y-122705116D01*
X85050725Y-122509573D01*
X85088696Y-122316614D01*
X85147382Y-122104317D01*
X85176767Y-122005073D01*
X85198873Y-121925080D01*
X85209943Y-121878111D01*
X85210553Y-121872745D01*
X85220996Y-121837724D01*
X85248313Y-121768561D01*
X85286487Y-121679005D01*
X85329498Y-121582808D01*
X85371331Y-121493721D01*
X85405965Y-121425492D01*
X85407597Y-121422518D01*
X85442252Y-121358846D01*
X85487501Y-121274638D01*
X85507715Y-121236729D01*
X85671525Y-120964668D01*
X85879144Y-120679262D01*
X86124952Y-120386530D01*
X86403332Y-120092486D01*
X86708666Y-119803147D01*
X87035335Y-119524529D01*
X87293840Y-119324079D01*
X87425388Y-119227336D01*
X87547556Y-119139283D01*
X87651924Y-119065851D01*
X87730070Y-119012971D01*
X87771583Y-118987565D01*
X87832725Y-118953102D01*
X87920463Y-118899915D01*
X88017210Y-118838701D01*
X88030232Y-118830256D01*
X88120673Y-118773072D01*
X88198641Y-118726752D01*
X88249819Y-118699733D01*
X88255833Y-118697297D01*
X88317740Y-118665326D01*
X88342423Y-118647448D01*
X88393033Y-118614560D01*
X88483038Y-118565290D01*
X88603033Y-118504142D01*
X88743611Y-118435616D01*
X88895366Y-118364214D01*
X89048891Y-118294440D01*
X89194781Y-118230793D01*
X89323629Y-118177777D01*
X89324451Y-118177453D01*
X89572832Y-118080110D01*
X89778026Y-118001200D01*
X89945949Y-117938993D01*
X90082520Y-117891764D01*
X90193655Y-117857782D01*
X90285272Y-117835322D01*
X90363288Y-117822654D01*
X90433622Y-117818051D01*
X90502190Y-117819786D01*
G37*
G36*
X96276100Y-117805451D02*
G01*
X96550972Y-117812060D01*
X96812402Y-117825296D01*
X96888714Y-117830741D01*
X97107929Y-117848564D01*
X97285584Y-117865903D01*
X97433145Y-117884742D01*
X97562076Y-117907063D01*
X97683843Y-117934850D01*
X97809911Y-117970088D01*
X97951086Y-118014545D01*
X98272076Y-118137817D01*
X98545628Y-118283436D01*
X98772962Y-118452534D01*
X98955297Y-118646242D01*
X99093853Y-118865691D01*
X99189851Y-119112013D01*
X99207793Y-119179780D01*
X99245306Y-119371917D01*
X99271385Y-119582362D01*
X99285522Y-119797291D01*
X99287207Y-120002884D01*
X99275934Y-120185319D01*
X99251192Y-120330774D01*
X99250262Y-120334326D01*
X99230615Y-120410858D01*
X99205032Y-120513659D01*
X99184789Y-120596752D01*
X99090107Y-120881215D01*
X98944852Y-121163421D01*
X98751532Y-121440451D01*
X98512653Y-121709384D01*
X98230721Y-121967300D01*
X97908244Y-122211280D01*
X97661831Y-122370931D01*
X97586274Y-122415972D01*
X97530834Y-122447319D01*
X97509074Y-122457628D01*
X97482772Y-122468491D01*
X97417619Y-122498304D01*
X97322551Y-122542903D01*
X97206504Y-122598123D01*
X97166802Y-122617161D01*
X96978634Y-122705853D01*
X96830482Y-122771480D01*
X96715835Y-122816535D01*
X96628182Y-122843510D01*
X96561013Y-122854897D01*
X96543677Y-122855648D01*
X96478873Y-122863752D01*
X96390787Y-122883505D01*
X96348301Y-122895465D01*
X96173562Y-122939075D01*
X95954308Y-122978575D01*
X95699001Y-123013187D01*
X95416105Y-123042133D01*
X95114082Y-123064633D01*
X94801395Y-123079909D01*
X94486507Y-123087182D01*
X94266292Y-123087061D01*
X93753901Y-123081348D01*
X93702885Y-123147701D01*
X93655791Y-123218677D01*
X93610479Y-123301237D01*
X93607729Y-123306948D01*
X93564893Y-123388653D01*
X93520399Y-123461758D01*
X93517348Y-123466196D01*
X93472425Y-123535236D01*
X93423834Y-123616158D01*
X93418539Y-123625444D01*
X93297607Y-123832408D01*
X93170607Y-124037698D01*
X93042945Y-124233411D01*
X92920025Y-124411646D01*
X92807253Y-124564502D01*
X92710035Y-124684076D01*
X92652476Y-124745343D01*
X92497668Y-124872819D01*
X92351048Y-124948491D01*
X92211166Y-124972757D01*
X92076568Y-124946014D01*
X92019175Y-124918490D01*
X91897587Y-124820964D01*
X91815004Y-124692305D01*
X91774347Y-124540313D01*
X91778540Y-124372790D01*
X91791463Y-124310684D01*
X91829661Y-124202003D01*
X91896853Y-124056937D01*
X91989993Y-123881421D01*
X92106033Y-123681391D01*
X92160092Y-123592747D01*
X92211836Y-123507899D01*
X92250594Y-123442182D01*
X92269639Y-123407071D01*
X92270532Y-123404398D01*
X92283220Y-123378954D01*
X92317370Y-123318304D01*
X92367109Y-123232749D01*
X92403219Y-123171683D01*
X92460163Y-123072568D01*
X92504882Y-122988274D01*
X92531333Y-122930543D01*
X92535925Y-122913751D01*
X92517113Y-122875187D01*
X92470620Y-122824331D01*
X92458385Y-122813598D01*
X92401457Y-122751353D01*
X92342005Y-122664722D01*
X92313658Y-122613551D01*
X92276068Y-122528862D01*
X92258380Y-122454819D01*
X92256405Y-122366841D01*
X92260600Y-122302314D01*
X92292529Y-122112216D01*
X92356892Y-121960761D01*
X92427171Y-121877633D01*
X94480125Y-121877633D01*
X94492020Y-121927666D01*
X94549770Y-121972581D01*
X94646166Y-122008715D01*
X94774000Y-122032410D01*
X94787857Y-122033915D01*
X94962447Y-122047222D01*
X95155909Y-122054410D01*
X95354810Y-122055658D01*
X95545716Y-122051147D01*
X95715195Y-122041059D01*
X95849812Y-122025574D01*
X95885046Y-122019155D01*
X96029033Y-121984465D01*
X96200403Y-121935934D01*
X96379998Y-121879608D01*
X96548660Y-121821534D01*
X96687232Y-121767758D01*
X96702925Y-121761011D01*
X96813556Y-121711160D01*
X96939008Y-121652196D01*
X97070081Y-121588740D01*
X97197570Y-121525412D01*
X97312276Y-121466836D01*
X97404995Y-121417630D01*
X97466525Y-121382418D01*
X97487356Y-121367067D01*
X97518078Y-121338373D01*
X97577720Y-121295250D01*
X97614195Y-121271565D01*
X97774033Y-121156757D01*
X97938596Y-121013215D01*
X98087901Y-120859190D01*
X98156814Y-120775923D01*
X98235938Y-120669610D01*
X98316570Y-120555331D01*
X98392595Y-120442480D01*
X98457897Y-120340453D01*
X98506359Y-120258647D01*
X98531867Y-120206455D01*
X98534273Y-120196048D01*
X98542762Y-120151622D01*
X98563368Y-120085162D01*
X98565085Y-120080367D01*
X98580443Y-119964581D01*
X98552179Y-119840658D01*
X98484921Y-119722594D01*
X98425601Y-119658416D01*
X98341853Y-119590982D01*
X98244034Y-119529858D01*
X98122969Y-119470606D01*
X97969483Y-119408786D01*
X97774399Y-119339959D01*
X97751305Y-119332204D01*
X97533021Y-119261786D01*
X97350999Y-119209990D01*
X97192702Y-119174552D01*
X97045592Y-119153206D01*
X96897131Y-119143688D01*
X96734782Y-119143732D01*
X96711360Y-119144340D01*
X96569030Y-119150143D01*
X96458587Y-119162432D01*
X96370522Y-119187268D01*
X96295326Y-119230712D01*
X96223492Y-119298823D01*
X96145512Y-119397664D01*
X96051877Y-119533295D01*
X96015369Y-119587991D01*
X95898253Y-119763495D01*
X95773890Y-119948922D01*
X95646982Y-120137345D01*
X95522230Y-120321836D01*
X95404338Y-120495467D01*
X95298005Y-120651311D01*
X95207935Y-120782440D01*
X95138828Y-120881926D01*
X95101563Y-120934398D01*
X95031558Y-121032906D01*
X94949622Y-121151449D01*
X94860973Y-121282105D01*
X94770829Y-121416954D01*
X94684410Y-121548074D01*
X94606935Y-121667544D01*
X94543621Y-121767443D01*
X94499688Y-121839851D01*
X94480355Y-121876845D01*
X94480125Y-121877633D01*
X92427171Y-121877633D01*
X92457260Y-121842043D01*
X92593070Y-121752235D01*
X92703494Y-121708532D01*
X92848007Y-121668313D01*
X93007619Y-121635587D01*
X93163340Y-121614359D01*
X93275087Y-121608343D01*
X93360842Y-121600142D01*
X93424104Y-121567186D01*
X93469478Y-121523771D01*
X93535021Y-121443877D01*
X93593542Y-121357324D01*
X93600838Y-121344617D01*
X93641382Y-121277619D01*
X93701603Y-121185353D01*
X93769924Y-121085457D01*
X93784890Y-121064211D01*
X93856891Y-120961168D01*
X93944895Y-120833107D01*
X94035690Y-120699330D01*
X94089564Y-120619026D01*
X94178388Y-120487446D01*
X94276227Y-120345038D01*
X94368388Y-120213088D01*
X94414465Y-120148326D01*
X94490844Y-120040403D01*
X94564934Y-119932882D01*
X94624670Y-119843371D01*
X94642197Y-119815987D01*
X94693677Y-119737140D01*
X94763683Y-119634215D01*
X94839395Y-119525976D01*
X94861163Y-119495471D01*
X94932265Y-119394033D01*
X94981065Y-119314456D01*
X95003927Y-119254986D01*
X94997210Y-119213869D01*
X94957277Y-119189352D01*
X94880490Y-119179680D01*
X94763210Y-119183101D01*
X94601799Y-119197860D01*
X94392619Y-119222204D01*
X94314210Y-119231829D01*
X94214525Y-119248627D01*
X94078697Y-119277595D01*
X93921232Y-119315027D01*
X93756641Y-119357214D01*
X93599430Y-119400449D01*
X93464108Y-119441026D01*
X93371995Y-119472600D01*
X93263738Y-119513782D01*
X93159849Y-119553038D01*
X93084208Y-119581350D01*
X92989998Y-119619929D01*
X92892239Y-119665148D01*
X92879571Y-119671513D01*
X92741481Y-119714654D01*
X92619876Y-119723876D01*
X92504341Y-119715300D01*
X92435585Y-119687878D01*
X92409870Y-119639065D01*
X92416897Y-119585808D01*
X92450312Y-119510023D01*
X92512863Y-119402071D01*
X92598701Y-119269712D01*
X92701978Y-119120702D01*
X92816847Y-118962801D01*
X92937458Y-118803765D01*
X93057965Y-118651352D01*
X93172519Y-118513321D01*
X93275271Y-118397430D01*
X93360375Y-118311436D01*
X93406475Y-118273068D01*
X93501653Y-118218769D01*
X93619963Y-118169386D01*
X93701009Y-118144556D01*
X93811517Y-118116531D01*
X93947834Y-118081306D01*
X94084510Y-118045471D01*
X94115151Y-118037349D01*
X94237461Y-118006532D01*
X94355719Y-117979609D01*
X94449903Y-117961049D01*
X94473458Y-117957358D01*
X94567720Y-117941491D01*
X94654325Y-117922452D01*
X94672517Y-117917481D01*
X94809184Y-117886790D01*
X94990484Y-117860454D01*
X95208120Y-117838796D01*
X95453796Y-117822143D01*
X95719216Y-117810818D01*
X95996083Y-117805146D01*
X96276100Y-117805451D01*
G37*
D13*
%TO.C,R6*%
X73925242Y-155477500D02*
X74399758Y-155477500D01*
X73925242Y-156522500D02*
X74399758Y-156522500D01*
%TO.C,C9*%
X119990000Y-118115580D02*
X119990000Y-117834420D01*
X121010000Y-118115580D02*
X121010000Y-117834420D01*
%TO.C,R5*%
X73925242Y-152977500D02*
X74399758Y-152977500D01*
X73925242Y-154022500D02*
X74399758Y-154022500D01*
%TO.C,R8*%
X140687742Y-119477500D02*
X141162258Y-119477500D01*
X140687742Y-120522500D02*
X141162258Y-120522500D01*
%TO.C,R7*%
X122727500Y-129667455D02*
X122727500Y-129192939D01*
X123772500Y-129667455D02*
X123772500Y-129192939D01*
%TO.C,R9*%
X140437742Y-129727500D02*
X140912258Y-129727500D01*
X140437742Y-130772500D02*
X140912258Y-130772500D01*
%TO.C,R3*%
X73925242Y-147977500D02*
X74399758Y-147977500D01*
X73925242Y-149022500D02*
X74399758Y-149022500D01*
%TO.C,R1*%
X73925242Y-142977500D02*
X74399758Y-142977500D01*
X73925242Y-144022500D02*
X74399758Y-144022500D01*
%TO.C,C10*%
X117290000Y-118140580D02*
X117290000Y-117859420D01*
X118310000Y-118140580D02*
X118310000Y-117859420D01*
%TO.C,R2*%
X73925242Y-145477500D02*
X74399758Y-145477500D01*
X73925242Y-146522500D02*
X74399758Y-146522500D01*
%TO.C,U4*%
X114702500Y-123517697D02*
X114702500Y-121567697D01*
X114702500Y-123517697D02*
X114702500Y-125467697D01*
X123572500Y-123517697D02*
X123572500Y-121567697D01*
X123572500Y-123517697D02*
X123572500Y-125467697D01*
X114767500Y-126217697D02*
X114437500Y-126457697D01*
X114437500Y-125977697D01*
X114767500Y-126217697D01*
G36*
X114767500Y-126217697D02*
G01*
X114437500Y-126457697D01*
X114437500Y-125977697D01*
X114767500Y-126217697D01*
G37*
D15*
%TO.C,G1*%
G36*
X80579491Y-117886801D02*
G01*
X80628522Y-117926141D01*
X80664071Y-117981021D01*
X80672363Y-118030158D01*
X80654648Y-118066345D01*
X80606629Y-118081484D01*
X80577537Y-118083291D01*
X80205570Y-118096562D01*
X79817933Y-118114874D01*
X79409708Y-118138581D01*
X78975979Y-118168036D01*
X78511829Y-118203593D01*
X78012341Y-118245606D01*
X77472600Y-118294427D01*
X76961477Y-118343200D01*
X76737354Y-118364562D01*
X76497464Y-118386592D01*
X76255324Y-118408106D01*
X76024450Y-118427919D01*
X75818358Y-118444848D01*
X75672709Y-118456090D01*
X75461586Y-118472227D01*
X75295312Y-118486390D01*
X75168760Y-118499321D01*
X75076804Y-118511766D01*
X75014318Y-118524466D01*
X74976174Y-118538167D01*
X74957247Y-118553610D01*
X74953940Y-118560347D01*
X74972353Y-118577878D01*
X75038428Y-118592894D01*
X75139753Y-118604052D01*
X75216812Y-118608081D01*
X75339358Y-118611635D01*
X75502833Y-118614718D01*
X75702679Y-118617337D01*
X75934335Y-118619498D01*
X76193244Y-118621205D01*
X76474845Y-118622466D01*
X76774581Y-118623285D01*
X77087892Y-118623668D01*
X77410220Y-118623621D01*
X77737004Y-118623149D01*
X78063687Y-118622258D01*
X78385709Y-118620955D01*
X78698512Y-118619244D01*
X78997536Y-118617131D01*
X79278223Y-118614622D01*
X79536013Y-118611723D01*
X79766347Y-118608439D01*
X79964667Y-118604777D01*
X80126414Y-118600740D01*
X80214679Y-118597726D01*
X80965418Y-118567821D01*
X81010263Y-118622365D01*
X81040982Y-118675928D01*
X81047476Y-118716631D01*
X81038888Y-118729735D01*
X81014858Y-118740640D01*
X80969672Y-118750014D01*
X80897619Y-118758522D01*
X80792986Y-118766831D01*
X80650059Y-118775608D01*
X80463127Y-118785517D01*
X80452090Y-118786076D01*
X80235585Y-118797734D01*
X79989236Y-118812163D01*
X79733086Y-118828117D01*
X79487178Y-118844348D01*
X79276256Y-118859259D01*
X79106425Y-118871771D01*
X78950409Y-118883191D01*
X78816101Y-118892948D01*
X78711395Y-118900469D01*
X78644183Y-118905183D01*
X78625615Y-118906398D01*
X78567841Y-118910918D01*
X78480932Y-118918945D01*
X78400394Y-118927029D01*
X78319137Y-118935112D01*
X78200781Y-118946382D01*
X78058087Y-118959648D01*
X77903813Y-118973720D01*
X77812315Y-118981936D01*
X77632250Y-118998226D01*
X77432342Y-119016681D01*
X77233692Y-119035331D01*
X77057399Y-119052206D01*
X77011527Y-119056676D01*
X76859026Y-119071015D01*
X76673773Y-119087490D01*
X76472934Y-119104630D01*
X76273675Y-119120962D01*
X76135665Y-119131790D01*
X75908456Y-119149357D01*
X75726248Y-119164000D01*
X75584120Y-119176374D01*
X75477153Y-119187132D01*
X75400426Y-119196929D01*
X75349018Y-119206420D01*
X75318010Y-119216260D01*
X75302480Y-119227102D01*
X75297510Y-119239602D01*
X75297340Y-119243308D01*
X75318443Y-119264368D01*
X75356468Y-119278774D01*
X75397068Y-119282619D01*
X75483571Y-119285995D01*
X75611829Y-119288909D01*
X75777697Y-119291370D01*
X75977031Y-119293386D01*
X76205684Y-119294966D01*
X76459511Y-119296118D01*
X76734367Y-119296851D01*
X77026105Y-119297172D01*
X77330582Y-119297089D01*
X77643650Y-119296613D01*
X77961165Y-119295750D01*
X78278981Y-119294509D01*
X78592953Y-119292898D01*
X78898934Y-119290926D01*
X79192781Y-119288602D01*
X79470346Y-119285932D01*
X79727485Y-119282927D01*
X79960053Y-119279593D01*
X80163903Y-119275940D01*
X80334890Y-119271976D01*
X80446931Y-119268526D01*
X80680404Y-119260245D01*
X80868926Y-119253929D01*
X81017561Y-119249664D01*
X81131372Y-119247538D01*
X81215422Y-119247638D01*
X81274775Y-119250051D01*
X81314494Y-119254866D01*
X81339643Y-119262169D01*
X81355283Y-119272048D01*
X81366336Y-119284403D01*
X81400014Y-119349861D01*
X81387251Y-119397127D01*
X81328554Y-119425349D01*
X81278226Y-119432349D01*
X81228534Y-119435763D01*
X81135051Y-119442034D01*
X81003928Y-119450756D01*
X80841315Y-119461522D01*
X80653364Y-119473924D01*
X80446227Y-119487556D01*
X80226054Y-119502010D01*
X80177143Y-119505217D01*
X79950474Y-119520345D01*
X79731684Y-119535463D01*
X79527621Y-119550060D01*
X79345133Y-119563625D01*
X79191069Y-119575648D01*
X79072277Y-119585618D01*
X78995606Y-119593024D01*
X78988473Y-119593845D01*
X78859194Y-119607805D01*
X78711588Y-119621607D01*
X78577298Y-119632297D01*
X78575566Y-119632417D01*
X78375251Y-119647534D01*
X78142924Y-119667450D01*
X77873036Y-119692669D01*
X77560042Y-119723691D01*
X77499507Y-119729848D01*
X77342302Y-119745133D01*
X77176543Y-119759983D01*
X77021139Y-119772774D01*
X76895002Y-119781886D01*
X76886404Y-119782429D01*
X76730186Y-119792788D01*
X76562089Y-119805054D01*
X76389923Y-119818538D01*
X76221501Y-119832552D01*
X76064634Y-119846407D01*
X75927134Y-119859416D01*
X75816811Y-119870891D01*
X75741477Y-119880144D01*
X75709890Y-119886062D01*
X75674753Y-119909340D01*
X75686641Y-119931409D01*
X75742561Y-119949291D01*
X75779064Y-119954911D01*
X75840489Y-119959284D01*
X75947532Y-119963350D01*
X76095762Y-119967095D01*
X76280749Y-119970505D01*
X76498060Y-119973567D01*
X76743265Y-119976267D01*
X77011935Y-119978594D01*
X77299637Y-119980532D01*
X77601941Y-119982070D01*
X77914417Y-119983193D01*
X78232633Y-119983889D01*
X78552159Y-119984144D01*
X78868564Y-119983944D01*
X79177417Y-119983278D01*
X79474287Y-119982130D01*
X79754744Y-119980488D01*
X80014357Y-119978339D01*
X80248694Y-119975670D01*
X80453326Y-119972466D01*
X80598601Y-119969364D01*
X80863426Y-119962851D01*
X81082687Y-119957755D01*
X81260849Y-119954144D01*
X81402380Y-119952088D01*
X81511746Y-119951656D01*
X81593414Y-119952919D01*
X81651850Y-119955945D01*
X81691521Y-119960805D01*
X81716894Y-119967568D01*
X81732434Y-119976302D01*
X81742609Y-119987079D01*
X81742682Y-119987174D01*
X81774930Y-120052724D01*
X81767063Y-120103849D01*
X81722413Y-120130640D01*
X81677822Y-120135671D01*
X81593912Y-120141683D01*
X81481388Y-120148030D01*
X81350955Y-120154065D01*
X81303251Y-120155977D01*
X80935901Y-120171179D01*
X80586694Y-120187781D01*
X80262176Y-120205405D01*
X79968898Y-120223673D01*
X79713406Y-120242210D01*
X79526502Y-120258304D01*
X79358131Y-120273936D01*
X79174830Y-120290431D01*
X78997125Y-120305971D01*
X78845543Y-120318740D01*
X78825812Y-120320346D01*
X78677770Y-120332871D01*
X78501336Y-120348646D01*
X78317899Y-120365716D01*
X78148846Y-120382126D01*
X78137635Y-120383247D01*
X77834672Y-120412484D01*
X77511508Y-120441695D01*
X77184166Y-120469531D01*
X76868668Y-120494645D01*
X76581037Y-120515691D01*
X76486738Y-120522055D01*
X76316576Y-120535128D01*
X76193580Y-120549264D01*
X76114865Y-120565200D01*
X76077551Y-120583671D01*
X76078755Y-120605417D01*
X76098337Y-120621348D01*
X76132507Y-120627697D01*
X76210121Y-120633627D01*
X76324572Y-120638895D01*
X76469254Y-120643259D01*
X76637562Y-120646478D01*
X76822889Y-120648309D01*
X76836354Y-120648379D01*
X77048558Y-120649956D01*
X77271295Y-120652557D01*
X77491692Y-120655965D01*
X77696871Y-120659965D01*
X77873958Y-120664339D01*
X77974975Y-120667531D01*
X78412906Y-120683251D01*
X78496366Y-120841081D01*
X78536041Y-120923453D01*
X78561592Y-120991081D01*
X78567808Y-121030035D01*
X78567452Y-121031158D01*
X78561697Y-121040812D01*
X78549193Y-121049194D01*
X78525024Y-121056872D01*
X78484272Y-121064412D01*
X78422017Y-121072380D01*
X78333343Y-121081344D01*
X78213331Y-121091870D01*
X78057063Y-121104525D01*
X77859622Y-121119874D01*
X77674679Y-121134021D01*
X77398638Y-121155191D01*
X77168185Y-121173186D01*
X76978986Y-121188418D01*
X76826709Y-121201298D01*
X76707022Y-121212237D01*
X76615590Y-121221646D01*
X76548082Y-121229936D01*
X76500163Y-121237519D01*
X76467503Y-121244807D01*
X76450786Y-121250183D01*
X76406934Y-121269396D01*
X76406679Y-121284761D01*
X76435960Y-121303196D01*
X76459835Y-121308126D01*
X76514175Y-121312453D01*
X76600782Y-121316195D01*
X76721459Y-121319368D01*
X76878009Y-121321985D01*
X77072236Y-121324065D01*
X77305941Y-121325622D01*
X77580928Y-121326673D01*
X77899000Y-121327232D01*
X78261959Y-121327317D01*
X78671609Y-121326942D01*
X79063546Y-121326263D01*
X79428507Y-121325464D01*
X79786193Y-121324582D01*
X80132562Y-121323632D01*
X80463571Y-121322630D01*
X80775177Y-121321591D01*
X81063337Y-121320531D01*
X81324010Y-121319464D01*
X81553150Y-121318405D01*
X81746717Y-121317372D01*
X81900668Y-121316378D01*
X82010958Y-121315438D01*
X82053357Y-121314925D01*
X82465632Y-121308867D01*
X82489691Y-121377196D01*
X82502734Y-121430614D01*
X82499864Y-121459412D01*
X82476727Y-121468010D01*
X82422456Y-121476177D01*
X82333001Y-121484233D01*
X82204313Y-121492499D01*
X82032343Y-121501297D01*
X81891330Y-121507630D01*
X81685400Y-121516576D01*
X81512528Y-121524371D01*
X81363631Y-121531622D01*
X81229627Y-121538938D01*
X81101437Y-121546928D01*
X80969976Y-121556200D01*
X80826165Y-121567363D01*
X80660922Y-121581026D01*
X80465165Y-121597798D01*
X80229812Y-121618285D01*
X80195911Y-121621247D01*
X80070693Y-121632167D01*
X79912100Y-121645968D01*
X79736619Y-121661217D01*
X79560738Y-121676481D01*
X79476453Y-121683787D01*
X79306570Y-121698604D01*
X79104413Y-121716392D01*
X78887555Y-121735596D01*
X78673565Y-121754659D01*
X78500492Y-121770182D01*
X78067961Y-121808005D01*
X77657412Y-121841659D01*
X77279187Y-121870317D01*
X77047544Y-121886409D01*
X76908954Y-121899403D01*
X76819253Y-121916654D01*
X76778755Y-121938061D01*
X76787775Y-121963519D01*
X76795491Y-121969051D01*
X76825942Y-121973226D01*
X76902083Y-121977743D01*
X77019556Y-121982489D01*
X77174006Y-121987354D01*
X77361074Y-121992225D01*
X77576404Y-121996990D01*
X77815638Y-122001538D01*
X78074419Y-122005757D01*
X78348390Y-122009535D01*
X78397067Y-122010136D01*
X79004652Y-122016104D01*
X79572048Y-122018625D01*
X80109005Y-122017607D01*
X80625271Y-122012959D01*
X81130594Y-122004589D01*
X81634724Y-121992406D01*
X82147409Y-121976317D01*
X82204138Y-121974326D01*
X82367953Y-121969000D01*
X82515509Y-121965112D01*
X82639276Y-121962787D01*
X82731727Y-121962148D01*
X82785334Y-121963321D01*
X82795083Y-121964573D01*
X82826521Y-121993635D01*
X82853812Y-122044276D01*
X82867905Y-122095133D01*
X82862232Y-122123075D01*
X82832788Y-122129098D01*
X82760168Y-122136608D01*
X82651206Y-122145117D01*
X82512736Y-122154136D01*
X82351591Y-122163177D01*
X82191625Y-122170984D01*
X82003262Y-122180072D01*
X81819854Y-122189879D01*
X81650945Y-122199822D01*
X81506079Y-122209318D01*
X81394799Y-122217786D01*
X81340788Y-122222923D01*
X81211531Y-122236200D01*
X81063948Y-122249651D01*
X80929666Y-122260396D01*
X80927881Y-122260524D01*
X80839129Y-122267218D01*
X80711329Y-122277304D01*
X80555305Y-122289905D01*
X80381875Y-122304145D01*
X80201860Y-122319147D01*
X80139606Y-122324390D01*
X79952338Y-122340186D01*
X79760896Y-122356297D01*
X79577999Y-122371656D01*
X79416368Y-122385194D01*
X79288725Y-122395844D01*
X79263744Y-122397920D01*
X79121169Y-122410145D01*
X78949523Y-122425466D01*
X78769535Y-122442002D01*
X78601936Y-122457873D01*
X78588078Y-122459213D01*
X78422535Y-122474267D01*
X78228190Y-122490390D01*
X78026214Y-122505911D01*
X77837781Y-122519158D01*
X77787290Y-122522424D01*
X77590201Y-122535232D01*
X77437618Y-122546242D01*
X77324065Y-122556192D01*
X77244061Y-122565817D01*
X77192130Y-122575856D01*
X77162794Y-122587043D01*
X77150573Y-122600117D01*
X77149162Y-122608225D01*
X77149391Y-122615730D01*
X77151384Y-122622644D01*
X77157101Y-122628985D01*
X77168500Y-122634773D01*
X77187542Y-122640028D01*
X77216186Y-122644767D01*
X77256391Y-122649011D01*
X77310116Y-122652779D01*
X77379321Y-122656089D01*
X77465965Y-122658962D01*
X77572008Y-122661417D01*
X77699409Y-122663472D01*
X77850127Y-122665147D01*
X78026122Y-122666461D01*
X78229353Y-122667433D01*
X78461780Y-122668083D01*
X78725362Y-122668430D01*
X79022058Y-122668493D01*
X79353828Y-122668291D01*
X79722631Y-122667844D01*
X80130427Y-122667170D01*
X80579174Y-122666290D01*
X81070833Y-122665221D01*
X81607362Y-122663984D01*
X82190722Y-122662598D01*
X82591402Y-122661637D01*
X83191375Y-122660197D01*
X83215420Y-122728526D01*
X83228830Y-122781516D01*
X83226826Y-122809495D01*
X83198305Y-122815463D01*
X83130011Y-122822356D01*
X83032189Y-122829319D01*
X82915615Y-122835474D01*
X82506459Y-122854583D01*
X82144656Y-122873263D01*
X81827512Y-122891675D01*
X81552335Y-122909981D01*
X81316430Y-122928341D01*
X81215665Y-122937285D01*
X81042264Y-122953074D01*
X80840424Y-122970939D01*
X80631598Y-122989012D01*
X80437238Y-123005421D01*
X80377340Y-123010364D01*
X80080913Y-123034983D01*
X79829355Y-123056638D01*
X79617602Y-123075802D01*
X79440591Y-123092951D01*
X79293259Y-123108557D01*
X79170543Y-123123095D01*
X79163645Y-123123971D01*
X79083694Y-123132715D01*
X78963026Y-123144033D01*
X78810858Y-123157152D01*
X78636412Y-123171298D01*
X78448907Y-123185698D01*
X78287191Y-123197486D01*
X78106506Y-123210798D01*
X77940825Y-123223927D01*
X77797130Y-123236244D01*
X77682402Y-123247123D01*
X77603623Y-123255938D01*
X77567776Y-123262061D01*
X77567733Y-123262077D01*
X77528604Y-123289828D01*
X77537537Y-123318395D01*
X77568325Y-123332784D01*
X77608064Y-123337164D01*
X77693651Y-123341277D01*
X77820886Y-123345108D01*
X77985570Y-123348642D01*
X78183501Y-123351864D01*
X78410481Y-123354758D01*
X78662307Y-123357309D01*
X78934781Y-123359502D01*
X79223703Y-123361321D01*
X79524871Y-123362753D01*
X79834086Y-123363780D01*
X80147147Y-123364388D01*
X80459856Y-123364562D01*
X80768010Y-123364286D01*
X81067410Y-123363545D01*
X81353857Y-123362324D01*
X81623149Y-123360608D01*
X81871086Y-123358381D01*
X82093469Y-123355628D01*
X82286097Y-123352334D01*
X82379310Y-123350250D01*
X83517931Y-123322035D01*
X83562775Y-123376812D01*
X83593467Y-123430480D01*
X83599981Y-123471311D01*
X83592717Y-123482025D01*
X83572277Y-123491384D01*
X83534041Y-123499798D01*
X83473390Y-123507678D01*
X83385704Y-123515433D01*
X83266361Y-123523475D01*
X83110744Y-123532213D01*
X82914230Y-123542059D01*
X82679275Y-123553096D01*
X81997105Y-123590082D01*
X81271344Y-123640109D01*
X80506630Y-123702833D01*
X79876847Y-123761249D01*
X79580627Y-123789438D01*
X79316624Y-123813062D01*
X79067368Y-123833550D01*
X78815387Y-123852325D01*
X78543209Y-123870815D01*
X78500492Y-123873592D01*
X78290058Y-123888756D01*
X78126981Y-123904168D01*
X78008568Y-123920314D01*
X77932129Y-123937678D01*
X77894970Y-123956746D01*
X77894401Y-123978003D01*
X77898049Y-123982173D01*
X77921283Y-123989880D01*
X77976275Y-123996531D01*
X78065732Y-124002212D01*
X78192361Y-124007007D01*
X78358872Y-124011003D01*
X78567970Y-124014287D01*
X78822364Y-124016943D01*
X79046004Y-124018585D01*
X79278439Y-124020257D01*
X79495768Y-124022218D01*
X79692814Y-124024393D01*
X79864396Y-124026704D01*
X80005335Y-124029078D01*
X80110451Y-124031438D01*
X80174566Y-124033708D01*
X80192610Y-124035301D01*
X80219431Y-124061334D01*
X80258425Y-124117980D01*
X80302369Y-124192041D01*
X80344037Y-124270314D01*
X80376204Y-124339601D01*
X80391647Y-124386701D01*
X80390933Y-124397659D01*
X80360563Y-124411387D01*
X80294590Y-124425341D01*
X80208160Y-124436405D01*
X80087622Y-124448781D01*
X79952667Y-124464120D01*
X79864335Y-124475036D01*
X79789594Y-124483069D01*
X79674313Y-124493352D01*
X79527910Y-124505145D01*
X79359805Y-124517709D01*
X79179417Y-124530303D01*
X79063546Y-124537930D01*
X78825668Y-124554135D01*
X78634270Y-124569392D01*
X78485803Y-124584180D01*
X78376717Y-124598975D01*
X78303465Y-124614256D01*
X78262497Y-124630502D01*
X78250246Y-124647491D01*
X78256735Y-124659843D01*
X78278811Y-124670146D01*
X78320388Y-124678576D01*
X78385378Y-124685304D01*
X78477695Y-124690506D01*
X78601253Y-124694355D01*
X78759964Y-124697025D01*
X78957742Y-124698689D01*
X79198500Y-124699521D01*
X79426404Y-124699704D01*
X79650446Y-124700071D01*
X79861197Y-124701117D01*
X80052872Y-124702763D01*
X80219687Y-124704929D01*
X80355859Y-124707532D01*
X80455604Y-124710494D01*
X80513138Y-124713734D01*
X80522323Y-124714937D01*
X80570486Y-124732831D01*
X80612285Y-124771825D01*
X80657993Y-124842753D01*
X80677691Y-124878769D01*
X80721112Y-124967615D01*
X80738147Y-125024430D01*
X80731326Y-125058031D01*
X80729730Y-125060096D01*
X80689421Y-125078649D01*
X80604778Y-125094484D01*
X80481487Y-125106594D01*
X80458623Y-125108114D01*
X80321596Y-125117665D01*
X80160052Y-125130504D01*
X79980493Y-125145968D01*
X79789422Y-125163391D01*
X79593342Y-125182107D01*
X79398756Y-125201452D01*
X79212164Y-125220759D01*
X79040072Y-125239365D01*
X78888980Y-125256604D01*
X78765391Y-125271810D01*
X78675808Y-125284318D01*
X78626734Y-125293464D01*
X78619657Y-125296243D01*
X78613860Y-125326754D01*
X78626430Y-125338336D01*
X78657330Y-125342649D01*
X78732775Y-125347094D01*
X78847264Y-125351518D01*
X78995293Y-125355770D01*
X79171360Y-125359698D01*
X79369962Y-125363153D01*
X79585596Y-125365982D01*
X79660877Y-125366765D01*
X79887286Y-125369280D01*
X80103878Y-125372278D01*
X80304197Y-125375628D01*
X80481784Y-125379196D01*
X80630183Y-125382849D01*
X80742938Y-125386457D01*
X80813590Y-125389885D01*
X80823228Y-125390636D01*
X80981334Y-125404742D01*
X81070708Y-125544456D01*
X81116329Y-125615657D01*
X81146496Y-125669411D01*
X81156525Y-125708813D01*
X81141732Y-125736958D01*
X81097435Y-125756942D01*
X81018948Y-125771860D01*
X80901590Y-125784810D01*
X80740677Y-125798885D01*
X80677635Y-125804269D01*
X80487792Y-125820884D01*
X80278668Y-125839676D01*
X80069307Y-125858904D01*
X79878755Y-125876824D01*
X79776748Y-125886678D01*
X79622643Y-125901280D01*
X79471412Y-125914724D01*
X79336422Y-125925885D01*
X79231043Y-125933633D01*
X79193051Y-125935906D01*
X79085801Y-125946758D01*
X79012363Y-125965251D01*
X78977716Y-125989158D01*
X78986843Y-126016254D01*
X78996987Y-126023539D01*
X79028068Y-126028059D01*
X79104105Y-126032974D01*
X79220006Y-126038124D01*
X79370680Y-126043348D01*
X79551036Y-126048485D01*
X79755984Y-126053375D01*
X79980432Y-126057857D01*
X80197960Y-126061454D01*
X80436136Y-126065254D01*
X80659769Y-126069285D01*
X80863719Y-126073423D01*
X81042844Y-126077542D01*
X81192005Y-126081515D01*
X81306060Y-126085217D01*
X81379868Y-126088523D01*
X81407689Y-126091070D01*
X81447128Y-126120534D01*
X81496380Y-126180452D01*
X81545452Y-126255313D01*
X81584352Y-126329607D01*
X81603086Y-126387824D01*
X81603546Y-126395067D01*
X81599290Y-126420326D01*
X81580123Y-126437089D01*
X81536448Y-126448320D01*
X81458665Y-126456982D01*
X81384581Y-126462689D01*
X81250301Y-126473447D01*
X81103030Y-126486927D01*
X80973164Y-126500336D01*
X80965418Y-126501211D01*
X80878390Y-126510075D01*
X80752678Y-126521492D01*
X80599526Y-126534510D01*
X80430175Y-126548177D01*
X80255869Y-126561543D01*
X80227192Y-126563669D01*
X79973650Y-126583401D01*
X79761055Y-126602120D01*
X79591267Y-126619617D01*
X79466147Y-126635683D01*
X79387554Y-126650110D01*
X79358459Y-126661179D01*
X79347883Y-126677620D01*
X79354736Y-126691182D01*
X79382956Y-126702154D01*
X79436481Y-126710825D01*
X79519251Y-126717484D01*
X79635205Y-126722421D01*
X79788281Y-126725923D01*
X79982418Y-126728281D01*
X80221555Y-126729784D01*
X80297486Y-126730092D01*
X80522477Y-126731327D01*
X80744900Y-126733294D01*
X80956538Y-126735868D01*
X81149172Y-126738921D01*
X81314584Y-126742328D01*
X81444555Y-126745961D01*
X81515857Y-126748861D01*
X81816050Y-126764236D01*
X81871412Y-126919810D01*
X81896575Y-127001457D01*
X81908077Y-127062521D01*
X81903945Y-127089493D01*
X81867503Y-127099200D01*
X81790705Y-127111414D01*
X81683111Y-127125019D01*
X81554281Y-127138899D01*
X81413777Y-127151939D01*
X81278226Y-127162529D01*
X81185503Y-127169745D01*
X81057381Y-127180684D01*
X80908261Y-127194071D01*
X80752542Y-127208630D01*
X80690147Y-127214640D01*
X80522256Y-127230646D01*
X80341965Y-127247297D01*
X80168394Y-127262861D01*
X80020659Y-127275602D01*
X79989598Y-127278177D01*
X79838387Y-127291464D01*
X79730639Y-127303445D01*
X79659831Y-127315347D01*
X79619441Y-127328401D01*
X79602947Y-127343836D01*
X79601576Y-127351324D01*
X79606948Y-127365857D01*
X79626409Y-127377453D01*
X79664970Y-127386473D01*
X79727647Y-127393274D01*
X79819454Y-127398217D01*
X79945404Y-127401660D01*
X80110511Y-127403962D01*
X80319789Y-127405482D01*
X80360618Y-127405692D01*
X80575004Y-127407286D01*
X80804548Y-127409937D01*
X81034926Y-127413416D01*
X81251815Y-127417491D01*
X81440892Y-127421933D01*
X81528203Y-127424460D01*
X82015913Y-127439901D01*
X82045378Y-127502463D01*
X82067162Y-127569816D01*
X82081933Y-127652894D01*
X82083039Y-127664455D01*
X82085623Y-127728295D01*
X82070585Y-127759574D01*
X82024913Y-127774776D01*
X81991282Y-127780699D01*
X81918238Y-127790677D01*
X81815120Y-127801907D01*
X81701791Y-127812265D01*
X81678620Y-127814126D01*
X81475932Y-127830861D01*
X81224448Y-127853208D01*
X80925097Y-127881085D01*
X80690147Y-127903593D01*
X80561700Y-127915326D01*
X80404567Y-127928650D01*
X80239996Y-127941810D01*
X80108974Y-127951636D01*
X79930759Y-127967554D01*
X79801487Y-127986220D01*
X79720117Y-128007879D01*
X79685606Y-128032776D01*
X79687698Y-128050636D01*
X79714530Y-128055195D01*
X79786297Y-128060153D01*
X79897891Y-128065339D01*
X80044201Y-128070584D01*
X80220117Y-128075719D01*
X80420529Y-128080574D01*
X80640327Y-128084979D01*
X80808251Y-128087787D01*
X81043105Y-128091677D01*
X81265805Y-128095915D01*
X81470651Y-128100350D01*
X81651947Y-128104836D01*
X81803991Y-128109226D01*
X81921087Y-128113370D01*
X81997535Y-128117122D01*
X82022709Y-128119277D01*
X82129064Y-128133761D01*
X82129064Y-128280187D01*
X82122595Y-128378499D01*
X82096989Y-128438269D01*
X82042943Y-128468503D01*
X81951158Y-128478206D01*
X81924256Y-128478480D01*
X81870667Y-128480788D01*
X81775101Y-128487261D01*
X81645397Y-128497272D01*
X81489396Y-128510193D01*
X81314939Y-128525394D01*
X81140591Y-128541253D01*
X80933884Y-128560358D01*
X80718122Y-128580156D01*
X80506016Y-128599491D01*
X80310280Y-128617206D01*
X80143625Y-128632145D01*
X80059022Y-128639633D01*
X79874520Y-128657438D01*
X79737458Y-128674482D01*
X79645244Y-128691325D01*
X79595286Y-128708528D01*
X79584992Y-128726648D01*
X79598231Y-128739114D01*
X79610125Y-128743521D01*
X79633214Y-128747556D01*
X79671093Y-128751339D01*
X79727355Y-128754989D01*
X79805593Y-128758625D01*
X79909402Y-128762366D01*
X80042375Y-128766332D01*
X80208106Y-128770641D01*
X80410189Y-128775412D01*
X80652218Y-128780765D01*
X80937786Y-128786819D01*
X81203152Y-128792312D01*
X81403392Y-128796945D01*
X81587683Y-128802206D01*
X81750050Y-128807847D01*
X81884520Y-128813619D01*
X81985121Y-128819274D01*
X82045878Y-128824566D01*
X82061541Y-128827954D01*
X82067616Y-128860975D01*
X82060567Y-128924331D01*
X82051827Y-128964627D01*
X82023459Y-129047228D01*
X81985707Y-129093012D01*
X81959341Y-129106724D01*
X81914346Y-129116621D01*
X81829031Y-129129081D01*
X81712987Y-129142938D01*
X81575803Y-129157025D01*
X81460036Y-129167445D01*
X81313841Y-129180228D01*
X81182051Y-129192563D01*
X81074019Y-129203511D01*
X80999098Y-129212133D01*
X80969404Y-129216699D01*
X80925397Y-129222955D01*
X80842304Y-129231507D01*
X80730980Y-129241347D01*
X80602280Y-129251468D01*
X80565024Y-129254186D01*
X80298452Y-129273389D01*
X80077294Y-129289580D01*
X79897031Y-129303165D01*
X79753143Y-129314549D01*
X79641113Y-129324137D01*
X79556421Y-129332336D01*
X79494548Y-129339550D01*
X79450976Y-129346184D01*
X79421186Y-129352646D01*
X79402955Y-129358444D01*
X79361927Y-129378813D01*
X79365075Y-129395922D01*
X79376354Y-129402900D01*
X79412758Y-129409555D01*
X79493721Y-129416275D01*
X79613755Y-129422906D01*
X79767372Y-129429297D01*
X79949082Y-129435296D01*
X80153396Y-129440751D01*
X80374826Y-129445509D01*
X80607882Y-129449419D01*
X80847077Y-129452328D01*
X81086920Y-129454085D01*
X81240689Y-129454537D01*
X81406907Y-129455637D01*
X81557356Y-129458384D01*
X81684476Y-129462497D01*
X81780708Y-129467698D01*
X81838494Y-129473705D01*
X81850999Y-129477152D01*
X81868739Y-129497516D01*
X81868624Y-129533817D01*
X81849658Y-129598900D01*
X81839267Y-129628397D01*
X81808744Y-129704485D01*
X81780305Y-129760992D01*
X81766665Y-129779323D01*
X81731923Y-129789564D01*
X81651294Y-129802662D01*
X81528834Y-129818199D01*
X81368599Y-129835751D01*
X81174646Y-129854900D01*
X80951028Y-129875222D01*
X80701802Y-129896299D01*
X80439901Y-129917028D01*
X80029108Y-129949477D01*
X79626305Y-129983134D01*
X79250941Y-130016367D01*
X79194775Y-130021531D01*
X79101695Y-130034298D01*
X79024395Y-130052313D01*
X78982066Y-130070299D01*
X78971309Y-130083494D01*
X78983609Y-130092740D01*
X79025018Y-130098692D01*
X79101589Y-130102004D01*
X79219372Y-130103330D01*
X79288768Y-130103453D01*
X79644370Y-130103921D01*
X79979129Y-130105245D01*
X80289994Y-130107370D01*
X80573911Y-130110241D01*
X80827827Y-130113805D01*
X81048689Y-130118007D01*
X81233445Y-130122792D01*
X81379041Y-130128107D01*
X81482425Y-130133897D01*
X81540543Y-130140106D01*
X81552224Y-130143791D01*
X81556684Y-130177866D01*
X81529635Y-130242876D01*
X81490252Y-130310269D01*
X81460593Y-130358498D01*
X81435324Y-130395320D01*
X81407488Y-130422828D01*
X81370133Y-130443117D01*
X81316303Y-130458279D01*
X81239044Y-130470409D01*
X81131402Y-130481601D01*
X80986422Y-130493948D01*
X80840295Y-130505947D01*
X80707715Y-130517142D01*
X80584004Y-130527950D01*
X80482611Y-130537172D01*
X80416983Y-130543611D01*
X80414877Y-130543839D01*
X80353473Y-130549559D01*
X80254434Y-130557682D01*
X80130061Y-130567244D01*
X79992656Y-130577279D01*
X79951921Y-130580154D01*
X79792991Y-130591840D01*
X79616539Y-130605768D01*
X79429690Y-130621282D01*
X79239568Y-130637725D01*
X79053298Y-130654440D01*
X78878006Y-130670769D01*
X78720816Y-130686057D01*
X78588854Y-130699646D01*
X78489244Y-130710879D01*
X78429111Y-130719100D01*
X78416643Y-130721696D01*
X78387347Y-130733209D01*
X78383179Y-130743206D01*
X78406774Y-130751816D01*
X78460768Y-130759165D01*
X78547797Y-130765384D01*
X78670498Y-130770599D01*
X78831506Y-130774938D01*
X79033457Y-130778530D01*
X79278987Y-130781503D01*
X79570732Y-130783985D01*
X79719205Y-130784985D01*
X80032096Y-130787280D01*
X80297625Y-130789972D01*
X80518478Y-130793136D01*
X80697341Y-130796848D01*
X80836900Y-130801185D01*
X80939843Y-130806222D01*
X81008854Y-130812035D01*
X81046621Y-130818701D01*
X81055075Y-130822786D01*
X81067546Y-130853105D01*
X81046621Y-130896678D01*
X81025697Y-130923549D01*
X80940488Y-131016434D01*
X80859707Y-131075992D01*
X80765562Y-131111761D01*
X80640256Y-131133275D01*
X80632644Y-131134172D01*
X80453122Y-131154803D01*
X80288734Y-131173146D01*
X80133006Y-131189772D01*
X79979463Y-131205252D01*
X79821634Y-131220159D01*
X79653043Y-131235064D01*
X79467217Y-131250537D01*
X79257683Y-131267150D01*
X79017968Y-131285475D01*
X78741597Y-131306083D01*
X78422098Y-131329545D01*
X78404671Y-131330819D01*
X78224241Y-131344448D01*
X78059949Y-131357718D01*
X77918474Y-131370020D01*
X77806499Y-131380746D01*
X77730704Y-131389287D01*
X77697772Y-131395033D01*
X77697317Y-131395268D01*
X77681211Y-131409280D01*
X77684321Y-131421051D01*
X77710038Y-131430762D01*
X77761752Y-131438595D01*
X77842855Y-131444733D01*
X77956736Y-131449357D01*
X78106788Y-131452649D01*
X78296401Y-131454791D01*
X78528966Y-131455964D01*
X78807872Y-131456352D01*
X78836026Y-131456354D01*
X79163114Y-131456761D01*
X79443166Y-131458061D01*
X79679192Y-131460373D01*
X79874198Y-131463816D01*
X80031195Y-131468509D01*
X80153189Y-131474571D01*
X80243189Y-131482122D01*
X80304204Y-131491280D01*
X80339240Y-131502164D01*
X80351308Y-131514894D01*
X80351365Y-131516332D01*
X80330177Y-131546984D01*
X80272506Y-131597205D01*
X80185231Y-131661564D01*
X80075228Y-131734631D01*
X80073851Y-131735504D01*
X80027211Y-131751859D01*
X79937142Y-131771460D01*
X79810094Y-131793452D01*
X79652519Y-131816979D01*
X79470869Y-131841186D01*
X79271595Y-131865217D01*
X79061148Y-131888216D01*
X78845979Y-131909328D01*
X78632539Y-131927698D01*
X78613103Y-131929229D01*
X78200786Y-131960754D01*
X77825896Y-131987921D01*
X77476082Y-132011593D01*
X77138995Y-132032634D01*
X77112272Y-132034226D01*
X76966662Y-132043526D01*
X76838210Y-132052973D01*
X76735326Y-132061849D01*
X76666420Y-132069435D01*
X76640389Y-132074576D01*
X76627715Y-132088495D01*
X76640740Y-132100109D01*
X76682587Y-132109593D01*
X76756380Y-132117123D01*
X76865242Y-132122877D01*
X77012295Y-132127029D01*
X77200664Y-132129756D01*
X77433470Y-132131235D01*
X77651982Y-132131636D01*
X78015629Y-132132652D01*
X78332529Y-132135382D01*
X78602218Y-132139809D01*
X78824230Y-132145917D01*
X78998097Y-132153689D01*
X79123355Y-132163110D01*
X79199537Y-132174162D01*
X79226177Y-132186829D01*
X79226207Y-132187291D01*
X79203276Y-132211768D01*
X79139612Y-132246252D01*
X79042909Y-132288109D01*
X78920858Y-132334701D01*
X78781153Y-132383393D01*
X78631486Y-132431547D01*
X78479551Y-132476529D01*
X78333040Y-132515701D01*
X78199646Y-132546428D01*
X78150147Y-132556043D01*
X77704971Y-132613828D01*
X77266325Y-132624053D01*
X76937345Y-132600755D01*
X76805418Y-132581927D01*
X76644111Y-132552503D01*
X76469508Y-132516020D01*
X76297693Y-132476010D01*
X76144752Y-132436009D01*
X76035566Y-132402605D01*
X75674329Y-132255340D01*
X75331348Y-132068799D01*
X75013564Y-131847791D01*
X74727920Y-131597125D01*
X74488944Y-131331231D01*
X74428063Y-131254822D01*
X74379193Y-131194338D01*
X74350527Y-131159891D01*
X74347002Y-131156059D01*
X74287664Y-131084418D01*
X74217225Y-130975262D01*
X74141030Y-130838344D01*
X74064427Y-130683419D01*
X73992761Y-130520241D01*
X73976676Y-130480394D01*
X73847752Y-130087528D01*
X73765437Y-129678632D01*
X73730197Y-129257066D01*
X73742499Y-128826189D01*
X73744085Y-128807685D01*
X73758217Y-128657815D01*
X73772552Y-128537795D01*
X73790227Y-128428409D01*
X73814378Y-128310441D01*
X73848140Y-128164673D01*
X73850903Y-128153103D01*
X73899659Y-127979572D01*
X73966099Y-127785719D01*
X74043966Y-127587061D01*
X74127006Y-127399114D01*
X74208965Y-127237394D01*
X74245090Y-127175253D01*
X74286160Y-127106599D01*
X74313855Y-127056650D01*
X74321379Y-127039222D01*
X74334866Y-127014774D01*
X74370939Y-126959593D01*
X74423013Y-126883613D01*
X74449649Y-126845657D01*
X74744010Y-126468610D01*
X75072284Y-126120653D01*
X75428141Y-125807818D01*
X75805253Y-125536136D01*
X75860394Y-125501097D01*
X76100638Y-125362933D01*
X76358986Y-125235566D01*
X76621715Y-125124784D01*
X76875103Y-125036372D01*
X77105369Y-124976128D01*
X77182228Y-124956378D01*
X77234436Y-124935554D01*
X77249261Y-124921528D01*
X77246706Y-124909106D01*
X77237623Y-124886094D01*
X77219882Y-124848437D01*
X77191354Y-124792083D01*
X77149910Y-124712976D01*
X77093419Y-124607062D01*
X77019753Y-124470288D01*
X76926783Y-124298598D01*
X76812378Y-124087940D01*
X76784441Y-124036551D01*
X76709912Y-123900119D01*
X76643122Y-123779065D01*
X76587853Y-123680149D01*
X76547892Y-123610133D01*
X76527023Y-123575779D01*
X76525281Y-123573596D01*
X76507437Y-123546057D01*
X76475470Y-123487149D01*
X76443188Y-123423448D01*
X76398300Y-123334782D01*
X76340211Y-123223293D01*
X76279895Y-123109986D01*
X76266719Y-123085615D01*
X76123257Y-122821252D01*
X75999043Y-122592453D01*
X75895053Y-122401015D01*
X75812262Y-122248732D01*
X75751647Y-122137400D01*
X75722841Y-122084630D01*
X75628243Y-121911299D01*
X75529694Y-121730075D01*
X75433001Y-121551682D01*
X75343966Y-121386843D01*
X75268395Y-121246282D01*
X75220160Y-121155935D01*
X75171254Y-121064799D01*
X75130021Y-120989697D01*
X75102912Y-120942315D01*
X75097296Y-120933497D01*
X75078833Y-120902352D01*
X75042504Y-120836972D01*
X74993818Y-120747382D01*
X74946058Y-120658226D01*
X74883873Y-120542572D01*
X74822081Y-120429621D01*
X74769188Y-120334829D01*
X74742282Y-120288012D01*
X74703589Y-120220611D01*
X74677960Y-120172878D01*
X74671724Y-120158267D01*
X74659914Y-120132539D01*
X74625641Y-120066242D01*
X74570636Y-119962618D01*
X74496632Y-119824909D01*
X74405362Y-119656357D01*
X74303663Y-119469556D01*
X74136128Y-119161905D01*
X73991828Y-118895529D01*
X73869530Y-118668045D01*
X73768003Y-118477067D01*
X73686015Y-118320209D01*
X73622334Y-118195087D01*
X73575728Y-118099315D01*
X73544966Y-118030508D01*
X73528814Y-117986280D01*
X73526043Y-117964248D01*
X73526121Y-117964000D01*
X73537836Y-117958756D01*
X73570863Y-117954158D01*
X73627605Y-117950183D01*
X73710463Y-117946808D01*
X73821838Y-117944008D01*
X73964131Y-117941759D01*
X74139745Y-117940039D01*
X74351081Y-117938823D01*
X74600540Y-117938088D01*
X74890524Y-117937810D01*
X75223433Y-117937965D01*
X75601671Y-117938529D01*
X76012176Y-117939441D01*
X76429066Y-117940072D01*
X76842850Y-117939905D01*
X77250360Y-117938984D01*
X77648426Y-117937351D01*
X78033879Y-117935047D01*
X78403550Y-117932116D01*
X78754270Y-117928599D01*
X79082870Y-117924540D01*
X79386180Y-117919981D01*
X79661033Y-117914964D01*
X79904257Y-117909531D01*
X80112685Y-117903726D01*
X80283148Y-117897590D01*
X80412475Y-117891166D01*
X80497499Y-117884496D01*
X80531779Y-117878923D01*
X80579491Y-117886801D01*
G37*
D13*
%TO.C,C16*%
X129312500Y-128402500D02*
X130100000Y-128402500D01*
X129706250Y-128008750D02*
X129706250Y-128796250D01*
X130340000Y-127904437D02*
X130340000Y-129190000D01*
X130340000Y-127904437D02*
X131404437Y-126840000D01*
X130340000Y-132595563D02*
X130340000Y-131310000D01*
X130340000Y-132595563D02*
X131404437Y-133660000D01*
X131404437Y-126840000D02*
X137160000Y-126840000D01*
X131404437Y-133660000D02*
X137160000Y-133660000D01*
X137160000Y-126840000D02*
X137160000Y-129190000D01*
X137160000Y-133660000D02*
X137160000Y-131310000D01*
%TO.C,R4*%
X73925242Y-150477500D02*
X74399758Y-150477500D01*
X73925242Y-151522500D02*
X74399758Y-151522500D01*
%TO.C,C5*%
X95090000Y-153104437D02*
X95090000Y-158860000D01*
X95090000Y-158860000D02*
X97440000Y-158860000D01*
X96154437Y-152040000D02*
X95090000Y-153104437D01*
X96154437Y-152040000D02*
X97440000Y-152040000D01*
X100347500Y-151012500D02*
X100347500Y-151800000D01*
X100741250Y-151406250D02*
X99953750Y-151406250D01*
X100845563Y-152040000D02*
X99560000Y-152040000D01*
X100845563Y-152040000D02*
X101910000Y-153104437D01*
X101910000Y-153104437D02*
X101910000Y-158860000D01*
X101910000Y-158860000D02*
X99560000Y-158860000D01*
%TO.C,C15*%
X129062500Y-118152500D02*
X129850000Y-118152500D01*
X129456250Y-117758750D02*
X129456250Y-118546250D01*
X130090000Y-117654437D02*
X130090000Y-118940000D01*
X130090000Y-117654437D02*
X131154437Y-116590000D01*
X130090000Y-122345563D02*
X130090000Y-121060000D01*
X130090000Y-122345563D02*
X131154437Y-123410000D01*
X131154437Y-116590000D02*
X136910000Y-116590000D01*
X131154437Y-123410000D02*
X136910000Y-123410000D01*
X136910000Y-116590000D02*
X136910000Y-118940000D01*
X136910000Y-123410000D02*
X136910000Y-121060000D01*
%TO.C,C19*%
X101240000Y-150140580D02*
X101240000Y-149859420D01*
X102260000Y-150140580D02*
X102260000Y-149859420D01*
%TO.C,R10*%
X140687742Y-124727500D02*
X141162258Y-124727500D01*
X140687742Y-125772500D02*
X141162258Y-125772500D01*
%TO.C,R11*%
X140512742Y-134727500D02*
X140987258Y-134727500D01*
X140512742Y-135772500D02*
X140987258Y-135772500D01*
%TD*%
M02*
