%TF.GenerationSoftware,KiCad,Pcbnew,9.0.1+1*%
%TF.CreationDate,2025-10-04T22:34:10+00:00*%
%TF.ProjectId,rcbus-opl3,72636275-732d-46f7-906c-332e6b696361,@version@*%
%TF.SameCoordinates,Original*%
%TF.FileFunction,Copper,L1,Top*%
%TF.FilePolarity,Positive*%
%FSLAX46Y46*%
G04 Gerber Fmt 4.6, Leading zero omitted, Abs format (unit mm)*
G04 Created by KiCad (PCBNEW 9.0.1+1) date 2025-10-04 22:34:10*
%MOMM*%
%LPD*%
G01*
G04 APERTURE LIST*
G04 Aperture macros list*
%AMRoundRect*
0 Rectangle with rounded corners*
0 $1 Rounding radius*
0 $2 $3 $4 $5 $6 $7 $8 $9 X,Y pos of 4 corners*
0 Add a 4 corners polygon primitive as box body*
4,1,4,$2,$3,$4,$5,$6,$7,$8,$9,$2,$3,0*
0 Add four circle primitives for the rounded corners*
1,1,$1+$1,$2,$3*
1,1,$1+$1,$4,$5*
1,1,$1+$1,$6,$7*
1,1,$1+$1,$8,$9*
0 Add four rect primitives between the rounded corners*
20,1,$1+$1,$2,$3,$4,$5,0*
20,1,$1+$1,$4,$5,$6,$7,0*
20,1,$1+$1,$6,$7,$8,$9,0*
20,1,$1+$1,$8,$9,$2,$3,0*%
G04 Aperture macros list end*
%TA.AperFunction,SMDPad,CuDef*%
%ADD10RoundRect,0.225000X-0.225000X-0.250000X0.225000X-0.250000X0.225000X0.250000X-0.225000X0.250000X0*%
%TD*%
%TA.AperFunction,SMDPad,CuDef*%
%ADD11RoundRect,0.225000X0.225000X0.250000X-0.225000X0.250000X-0.225000X-0.250000X0.225000X-0.250000X0*%
%TD*%
%TA.AperFunction,ComponentPad*%
%ADD12R,2.500000X1.800000*%
%TD*%
%TA.AperFunction,ComponentPad*%
%ADD13R,1.800000X2.500000*%
%TD*%
%TA.AperFunction,ComponentPad*%
%ADD14R,1.700000X1.700000*%
%TD*%
%TA.AperFunction,ComponentPad*%
%ADD15C,1.700000*%
%TD*%
%TA.AperFunction,ComponentPad*%
%ADD16O,1.700000X1.700000*%
%TD*%
%TA.AperFunction,SMDPad,CuDef*%
%ADD17RoundRect,0.150000X0.150000X-0.875000X0.150000X0.875000X-0.150000X0.875000X-0.150000X-0.875000X0*%
%TD*%
%TA.AperFunction,SMDPad,CuDef*%
%ADD18RoundRect,0.225000X-0.250000X0.225000X-0.250000X-0.225000X0.250000X-0.225000X0.250000X0.225000X0*%
%TD*%
%TA.AperFunction,SMDPad,CuDef*%
%ADD19RoundRect,0.250000X-0.550000X1.500000X-0.550000X-1.500000X0.550000X-1.500000X0.550000X1.500000X0*%
%TD*%
%TA.AperFunction,SMDPad,CuDef*%
%ADD20RoundRect,0.137500X0.137500X-0.862500X0.137500X0.862500X-0.137500X0.862500X-0.137500X-0.862500X0*%
%TD*%
%TA.AperFunction,SMDPad,CuDef*%
%ADD21RoundRect,0.250000X-0.650000X-0.750000X0.650000X-0.750000X0.650000X0.750000X-0.650000X0.750000X0*%
%TD*%
%TA.AperFunction,SMDPad,CuDef*%
%ADD22RoundRect,0.150000X0.150000X-0.650000X0.150000X0.650000X-0.150000X0.650000X-0.150000X-0.650000X0*%
%TD*%
%TA.AperFunction,SMDPad,CuDef*%
%ADD23RoundRect,0.200000X-0.200000X-0.275000X0.200000X-0.275000X0.200000X0.275000X-0.200000X0.275000X0*%
%TD*%
%TA.AperFunction,SMDPad,CuDef*%
%ADD24RoundRect,0.225000X0.250000X-0.225000X0.250000X0.225000X-0.250000X0.225000X-0.250000X-0.225000X0*%
%TD*%
%TA.AperFunction,SMDPad,CuDef*%
%ADD25RoundRect,0.200000X0.275000X-0.200000X0.275000X0.200000X-0.275000X0.200000X-0.275000X-0.200000X0*%
%TD*%
%TA.AperFunction,SMDPad,CuDef*%
%ADD26RoundRect,0.150000X0.150000X-0.825000X0.150000X0.825000X-0.150000X0.825000X-0.150000X-0.825000X0*%
%TD*%
%TA.AperFunction,SMDPad,CuDef*%
%ADD27RoundRect,0.250000X-1.500000X-0.550000X1.500000X-0.550000X1.500000X0.550000X-1.500000X0.550000X0*%
%TD*%
%TA.AperFunction,SMDPad,CuDef*%
%ADD28RoundRect,0.250000X1.500000X0.550000X-1.500000X0.550000X-1.500000X-0.550000X1.500000X-0.550000X0*%
%TD*%
%TA.AperFunction,ViaPad*%
%ADD29C,0.685800*%
%TD*%
%TA.AperFunction,Conductor*%
%ADD30C,0.762000*%
%TD*%
%TA.AperFunction,Conductor*%
%ADD31C,0.381000*%
%TD*%
G04 APERTURE END LIST*
D10*
%TO.P,C1,1*%
%TO.N,+5V*%
X80225000Y-142500000D03*
%TO.P,C1,2*%
%TO.N,GND*%
X81775000Y-142500000D03*
%TD*%
D11*
%TO.P,C7,1*%
%TO.N,+5V*%
X111525000Y-141500000D03*
%TO.P,C7,2*%
%TO.N,GND*%
X109975000Y-141500000D03*
%TD*%
D12*
%TO.P,CON1,R*%
%TO.N,Net-(CON1-PadR)*%
X148569000Y-130595000D03*
%TO.P,CON1,RN*%
X148569000Y-128095000D03*
D13*
%TO.P,CON1,S*%
%TO.N,GND*%
X153569000Y-125595000D03*
D12*
%TO.P,CON1,T*%
%TO.N,Net-(CON1-PadT)*%
X148569000Y-120595000D03*
%TO.P,CON1,TN*%
X148569000Y-123095000D03*
%TD*%
D14*
%TO.P,JP1,1,Pin_1*%
%TO.N,Net-(JP1-Pin_1)*%
X65000000Y-154160000D03*
D15*
%TO.P,JP1,2,Pin_2*%
%TO.N,+5V*%
X62460000Y-154160000D03*
%TO.P,JP1,3,Pin_3*%
%TO.N,Net-(JP1-Pin_3)*%
X65000000Y-151620000D03*
%TO.P,JP1,4,Pin_4*%
%TO.N,+5V*%
X62460000Y-151620000D03*
%TO.P,JP1,5,Pin_5*%
%TO.N,Net-(JP1-Pin_5)*%
X65000000Y-149080000D03*
%TO.P,JP1,6,Pin_6*%
%TO.N,+5V*%
X62460000Y-149080000D03*
%TO.P,JP1,7,Pin_7*%
%TO.N,Net-(JP1-Pin_7)*%
X65000000Y-146540000D03*
%TO.P,JP1,8,Pin_8*%
%TO.N,+5V*%
X62460000Y-146540000D03*
%TO.P,JP1,9,Pin_9*%
%TO.N,Net-(JP1-Pin_9)*%
X65000000Y-144000000D03*
%TO.P,JP1,10,Pin_10*%
%TO.N,+5V*%
X62460000Y-144000000D03*
%TO.P,JP1,11,Pin_11*%
%TO.N,Net-(JP1-Pin_11)*%
X65000000Y-141460000D03*
%TO.P,JP1,12,Pin_12*%
%TO.N,+5V*%
X62460000Y-141460000D03*
%TD*%
D14*
%TO.P,P1,1,Pin_1*%
%TO.N,unconnected-(P1-Pin_1-Pad1)*%
X61500000Y-163500000D03*
D16*
%TO.P,P1,2,Pin_2*%
%TO.N,unconnected-(P1-Pin_2-Pad2)*%
X64040000Y-163500000D03*
%TO.P,P1,3,Pin_3*%
%TO.N,unconnected-(P1-Pin_3-Pad3)*%
X66580000Y-163500000D03*
%TO.P,P1,4,Pin_4*%
%TO.N,unconnected-(P1-Pin_4-Pad4)*%
X69120000Y-163500000D03*
%TO.P,P1,5,Pin_5*%
%TO.N,unconnected-(P1-Pin_5-Pad5)*%
X71660000Y-163500000D03*
%TO.P,P1,6,Pin_6*%
%TO.N,unconnected-(P1-Pin_6-Pad6)*%
X74200000Y-163500000D03*
%TO.P,P1,7,Pin_7*%
%TO.N,unconnected-(P1-Pin_7-Pad7)*%
X76740000Y-163500000D03*
%TO.P,P1,8,Pin_8*%
%TO.N,unconnected-(P1-Pin_8-Pad8)*%
X79280000Y-163500000D03*
%TO.P,P1,9,Pin_9*%
%TO.N,/A7*%
X81820000Y-163500000D03*
%TO.P,P1,10,Pin_10*%
%TO.N,/A6*%
X84360000Y-163500000D03*
%TO.P,P1,11,Pin_11*%
%TO.N,/A5*%
X86900000Y-163500000D03*
%TO.P,P1,12,Pin_12*%
%TO.N,/A4*%
X89440000Y-163500000D03*
%TO.P,P1,13,Pin_13*%
%TO.N,/A3*%
X91980000Y-163500000D03*
%TO.P,P1,14,Pin_14*%
%TO.N,/A2*%
X94520000Y-163500000D03*
%TO.P,P1,15,Pin_15*%
%TO.N,/A1*%
X97060000Y-163500000D03*
%TO.P,P1,16,Pin_16*%
%TO.N,/A0*%
X99600000Y-163500000D03*
%TO.P,P1,17,Pin_17*%
%TO.N,GND*%
X102140000Y-163500000D03*
%TO.P,P1,18,Pin_18*%
%TO.N,+5V*%
X104680000Y-163500000D03*
%TO.P,P1,19,Pin_19*%
%TO.N,unconnected-(P1-Pin_19-Pad19)*%
X107220000Y-163500000D03*
%TO.P,P1,20,Pin_20*%
%TO.N,/~{RESET}*%
X109760000Y-163500000D03*
%TO.P,P1,21,Pin_21*%
%TO.N,unconnected-(P1-Pin_21-Pad21)*%
X112300000Y-163500000D03*
%TO.P,P1,22,Pin_22*%
%TO.N,/~{INT}*%
X114840000Y-163500000D03*
%TO.P,P1,23,Pin_23*%
%TO.N,unconnected-(P1-Pin_23-Pad23)*%
X117380000Y-163500000D03*
%TO.P,P1,24,Pin_24*%
%TO.N,/~{WR}*%
X119920000Y-163500000D03*
%TO.P,P1,25,Pin_25*%
%TO.N,/~{RD}*%
X122460000Y-163500000D03*
%TO.P,P1,26,Pin_26*%
%TO.N,/~{IORQ}*%
X125000000Y-163500000D03*
%TO.P,P1,27,Pin_27*%
%TO.N,/D0*%
X127540000Y-163500000D03*
%TO.P,P1,28,Pin_28*%
%TO.N,/D1*%
X130080000Y-163500000D03*
%TO.P,P1,29,Pin_29*%
%TO.N,/D2*%
X132620000Y-163500000D03*
%TO.P,P1,30,Pin_30*%
%TO.N,/D3*%
X135160000Y-163500000D03*
%TO.P,P1,31,Pin_31*%
%TO.N,/D4*%
X137700000Y-163500000D03*
%TO.P,P1,32,Pin_32*%
%TO.N,/D5*%
X140240000Y-163500000D03*
%TO.P,P1,33,Pin_33*%
%TO.N,/D6*%
X142780000Y-163500000D03*
%TO.P,P1,34,Pin_34*%
%TO.N,/D7*%
X145320000Y-163500000D03*
%TO.P,P1,35,Pin_35*%
%TO.N,unconnected-(P1-Pin_35-Pad35)*%
X147860000Y-163500000D03*
%TO.P,P1,36,Pin_36*%
%TO.N,unconnected-(P1-Pin_36-Pad36)*%
X150400000Y-163500000D03*
%TO.P,P1,37,Pin_37*%
%TO.N,unconnected-(P1-Pin_37-Pad37)*%
X152940000Y-163500000D03*
%TO.P,P1,38,Pin_38*%
%TO.N,unconnected-(P1-Pin_38-Pad38)*%
X155480000Y-163500000D03*
%TO.P,P1,39,Pin_39*%
%TO.N,unconnected-(P1-Pin_39-Pad39)*%
X158020000Y-163500000D03*
%TD*%
D17*
%TO.P,U1,1,G*%
%TO.N,/~{IORQ}*%
X80285000Y-155000000D03*
%TO.P,U1,2,P0*%
%TO.N,/A7*%
X81555000Y-155000000D03*
%TO.P,U1,3,R0*%
%TO.N,Net-(JP1-Pin_11)*%
X82825000Y-155000000D03*
%TO.P,U1,4,P1*%
%TO.N,/A6*%
X84095000Y-155000000D03*
%TO.P,U1,5,R1*%
%TO.N,Net-(JP1-Pin_9)*%
X85365000Y-155000000D03*
%TO.P,U1,6,P2*%
%TO.N,/A5*%
X86635000Y-155000000D03*
%TO.P,U1,7,R2*%
%TO.N,Net-(JP1-Pin_7)*%
X87905000Y-155000000D03*
%TO.P,U1,8,P3*%
%TO.N,/A4*%
X89175000Y-155000000D03*
%TO.P,U1,9,R3*%
%TO.N,Net-(JP1-Pin_5)*%
X90445000Y-155000000D03*
%TO.P,U1,10,GND*%
%TO.N,GND*%
X91715000Y-155000000D03*
%TO.P,U1,11,P4*%
%TO.N,/A3*%
X91715000Y-145700000D03*
%TO.P,U1,12,R4*%
%TO.N,Net-(JP1-Pin_3)*%
X90445000Y-145700000D03*
%TO.P,U1,13,P5*%
%TO.N,/A2*%
X89175000Y-145700000D03*
%TO.P,U1,14,R5*%
%TO.N,Net-(JP1-Pin_1)*%
X87905000Y-145700000D03*
%TO.P,U1,15,P6*%
%TO.N,GND*%
X86635000Y-145700000D03*
%TO.P,U1,16,R6*%
X85365000Y-145700000D03*
%TO.P,U1,17,P7*%
X84095000Y-145700000D03*
%TO.P,U1,18,R7*%
X82825000Y-145700000D03*
%TO.P,U1,19,P=R*%
%TO.N,/~{CS}*%
X81555000Y-145700000D03*
%TO.P,U1,20,VCC*%
%TO.N,+5V*%
X80285000Y-145700000D03*
%TD*%
D18*
%TO.P,C11,1*%
%TO.N,Net-(U3-AOUT)*%
X121000000Y-129105197D03*
%TO.P,C11,2*%
%TO.N,GND*%
X121000000Y-130655197D03*
%TD*%
D19*
%TO.P,C8,1*%
%TO.N,Net-(U3-CV)*%
X107500000Y-129550000D03*
%TO.P,C8,2*%
%TO.N,GND*%
X107500000Y-134950000D03*
%TD*%
D18*
%TO.P,C12,1*%
%TO.N,+5V*%
X118750000Y-129105197D03*
%TO.P,C12,2*%
%TO.N,GND*%
X118750000Y-130655197D03*
%TD*%
D20*
%TO.P,U2,1,VDD*%
%TO.N,+5V*%
X127515000Y-155150000D03*
%TO.P,U2,2,~{IRQ}*%
%TO.N,unconnected-(U2-~{IRQ}-Pad2)*%
X128785000Y-155150000D03*
%TO.P,U2,3,~{IC}*%
%TO.N,/~{RESET}*%
X130055000Y-155150000D03*
%TO.P,U2,4,A_{0}*%
%TO.N,/A0*%
X131325000Y-155150000D03*
%TO.P,U2,5,A_{1}*%
%TO.N,/A1*%
X132595000Y-155150000D03*
%TO.P,U2,6,~{WR}*%
%TO.N,/~{WR}*%
X133865000Y-155150000D03*
%TO.P,U2,7,~{RD}*%
%TO.N,/~{RD}*%
X135135000Y-155150000D03*
%TO.P,U2,8,~{CS}*%
%TO.N,/~{CS}*%
X136405000Y-155150000D03*
%TO.P,U2,9,TEST*%
%TO.N,unconnected-(U2-TEST-Pad9)*%
X137675000Y-155150000D03*
%TO.P,U2,10,D_{0}*%
%TO.N,/D0*%
X138945000Y-155150000D03*
%TO.P,U2,11,D_{1}*%
%TO.N,/D1*%
X140215000Y-155150000D03*
%TO.P,U2,12,GND*%
%TO.N,GND*%
X141485000Y-155150000D03*
%TO.P,U2,13,D_{2}*%
%TO.N,/D2*%
X141485000Y-145850000D03*
%TO.P,U2,14,D_{3}*%
%TO.N,/D3*%
X140215000Y-145850000D03*
%TO.P,U2,15,D_{4}*%
%TO.N,/D4*%
X138945000Y-145850000D03*
%TO.P,U2,16,D_{5}*%
%TO.N,/D5*%
X137675000Y-145850000D03*
%TO.P,U2,17,D_{6}*%
%TO.N,/D6*%
X136405000Y-145850000D03*
%TO.P,U2,18,D_{7}*%
%TO.N,/D7*%
X135135000Y-145850000D03*
%TO.P,U2,19,SMPBD*%
%TO.N,/SMPBD*%
X133865000Y-145850000D03*
%TO.P,U2,20,SMPAC*%
%TO.N,/SMPAC*%
X132595000Y-145850000D03*
%TO.P,U2,21,DOAB*%
%TO.N,/DOAB*%
X131325000Y-145850000D03*
%TO.P,U2,22,DOCD*%
%TO.N,unconnected-(U2-DOCD-Pad22)*%
X130055000Y-145850000D03*
%TO.P,U2,23,\u03A6SY*%
%TO.N,/DAC_CLK*%
X128785000Y-145850000D03*
%TO.P,U2,24,\u03A6M*%
%TO.N,/CLK*%
X127515000Y-145850000D03*
%TD*%
D11*
%TO.P,C6,1*%
%TO.N,+5V*%
X124750000Y-155500000D03*
%TO.P,C6,2*%
%TO.N,GND*%
X123200000Y-155500000D03*
%TD*%
D21*
%TO.P,Y1,1,EN*%
%TO.N,+5V*%
X116960000Y-152500000D03*
%TO.P,Y1,2,GND*%
%TO.N,GND*%
X122040000Y-152500000D03*
%TO.P,Y1,3,OUT*%
%TO.N,/CLK*%
X122040000Y-148500000D03*
%TO.P,Y1,4,Vdd*%
%TO.N,+5V*%
X116960000Y-148500000D03*
%TD*%
D22*
%TO.P,U3,1,VDD*%
%TO.N,+5V*%
X114055000Y-141750000D03*
%TO.P,U3,2,GND*%
%TO.N,GND*%
X115325000Y-141750000D03*
%TO.P,U3,3,VDD*%
%TO.N,+5V*%
X116595000Y-141750000D03*
%TO.P,U3,4,DIN*%
%TO.N,/DOAB*%
X117865000Y-141750000D03*
%TO.P,U3,5,CLK*%
%TO.N,/DAC_CLK*%
X119135000Y-141750000D03*
%TO.P,U3,6,FSEL*%
%TO.N,+5V*%
X120405000Y-141750000D03*
%TO.P,U3,7,SMP2*%
%TO.N,/SMPBD*%
X121675000Y-141750000D03*
%TO.P,U3,8,SMP1*%
%TO.N,/SMPAC*%
X122945000Y-141750000D03*
%TO.P,U3,9,TST1*%
%TO.N,+5V*%
X122945000Y-135250000D03*
%TO.P,U3,10,CH1*%
%TO.N,/AUDIO_CH1*%
X121675000Y-135250000D03*
%TO.P,U3,11,CH2*%
%TO.N,/AUDIO_CH2*%
X120405000Y-135250000D03*
%TO.P,U3,12,SWIN*%
%TO.N,Net-(U3-SWIN)*%
X119135000Y-135250000D03*
%TO.P,U3,13,AOUT*%
%TO.N,Net-(U3-AOUT)*%
X117865000Y-135250000D03*
%TO.P,U3,14,MP*%
%TO.N,Net-(U3-MP)*%
X116595000Y-135250000D03*
%TO.P,U3,15,TST2*%
%TO.N,unconnected-(U3-TST2-Pad15)*%
X115325000Y-135250000D03*
%TO.P,U3,16,CV*%
%TO.N,Net-(U3-CV)*%
X114055000Y-135250000D03*
%TD*%
D23*
%TO.P,R6,1*%
%TO.N,Net-(JP1-Pin_1)*%
X72175000Y-154000000D03*
%TO.P,R6,2*%
%TO.N,GND*%
X73825000Y-154000000D03*
%TD*%
D24*
%TO.P,C9,1*%
%TO.N,/AUDIO_CH1*%
X120000000Y-119250000D03*
%TO.P,C9,2*%
%TO.N,GND*%
X120000000Y-117700000D03*
%TD*%
D23*
%TO.P,R5,1*%
%TO.N,Net-(JP1-Pin_3)*%
X72175000Y-151500000D03*
%TO.P,R5,2*%
%TO.N,GND*%
X73825000Y-151500000D03*
%TD*%
%TO.P,R8,1*%
%TO.N,Net-(C15-Pad2)*%
X139675000Y-123000000D03*
%TO.P,R8,2*%
%TO.N,Net-(CON1-PadT)*%
X141325000Y-123000000D03*
%TD*%
D25*
%TO.P,R7,1*%
%TO.N,Net-(U3-SWIN)*%
X122750000Y-130755197D03*
%TO.P,R7,2*%
%TO.N,Net-(U4B--)*%
X122750000Y-129105197D03*
%TD*%
D23*
%TO.P,R9,1*%
%TO.N,Net-(C16-Pad2)*%
X139675000Y-133000000D03*
%TO.P,R9,2*%
%TO.N,Net-(CON1-PadR)*%
X141325000Y-133000000D03*
%TD*%
%TO.P,R3,1*%
%TO.N,Net-(JP1-Pin_7)*%
X72175000Y-146500000D03*
%TO.P,R3,2*%
%TO.N,GND*%
X73825000Y-146500000D03*
%TD*%
%TO.P,R1,1*%
%TO.N,Net-(JP1-Pin_11)*%
X72175000Y-141500000D03*
%TO.P,R1,2*%
%TO.N,GND*%
X73825000Y-141500000D03*
%TD*%
D24*
%TO.P,C10,1*%
%TO.N,/AUDIO_CH2*%
X117300000Y-119275000D03*
%TO.P,C10,2*%
%TO.N,GND*%
X117300000Y-117725000D03*
%TD*%
D23*
%TO.P,R2,1*%
%TO.N,Net-(JP1-Pin_9)*%
X72175000Y-144000000D03*
%TO.P,R2,2*%
%TO.N,GND*%
X73825000Y-144000000D03*
%TD*%
D26*
%TO.P,U4,1*%
%TO.N,Net-(U3-MP)*%
X114827500Y-126492697D03*
%TO.P,U4,2,-*%
X116097500Y-126492697D03*
%TO.P,U4,3,+*%
%TO.N,Net-(U3-CV)*%
X117367500Y-126492697D03*
%TO.P,U4,4,V+*%
%TO.N,+5V*%
X118637500Y-126492697D03*
%TO.P,U4,5,+*%
%TO.N,Net-(U3-AOUT)*%
X119907500Y-126492697D03*
%TO.P,U4,6,-*%
%TO.N,Net-(U4B--)*%
X121177500Y-126492697D03*
%TO.P,U4,7*%
X122447500Y-126492697D03*
%TO.P,U4,8*%
%TO.N,/R*%
X122447500Y-121542697D03*
%TO.P,U4,9,-*%
X121177500Y-121542697D03*
%TO.P,U4,10,+*%
%TO.N,/AUDIO_CH1*%
X119907500Y-121542697D03*
%TO.P,U4,11,V-*%
%TO.N,GND*%
X118637500Y-121542697D03*
%TO.P,U4,12,+*%
%TO.N,/AUDIO_CH2*%
X117367500Y-121542697D03*
%TO.P,U4,13,-*%
%TO.N,/L*%
X116097500Y-121542697D03*
%TO.P,U4,14*%
X114827500Y-121542697D03*
%TD*%
D27*
%TO.P,C16,1*%
%TO.N,/R*%
X130300000Y-133000000D03*
%TO.P,C16,2*%
%TO.N,Net-(C16-Pad2)*%
X135700000Y-133000000D03*
%TD*%
D23*
%TO.P,R4,1*%
%TO.N,Net-(JP1-Pin_5)*%
X72175000Y-149000000D03*
%TO.P,R4,2*%
%TO.N,GND*%
X73825000Y-149000000D03*
%TD*%
D28*
%TO.P,C5,1*%
%TO.N,+5V*%
X105200000Y-156000000D03*
%TO.P,C5,2*%
%TO.N,GND*%
X99800000Y-156000000D03*
%TD*%
%TO.P,C2,1*%
%TO.N,+5V*%
X105200000Y-145500000D03*
%TO.P,C2,2*%
%TO.N,GND*%
X99800000Y-145500000D03*
%TD*%
D27*
%TO.P,C15,1*%
%TO.N,/L*%
X130300000Y-123000000D03*
%TO.P,C15,2*%
%TO.N,Net-(C15-Pad2)*%
X135700000Y-123000000D03*
%TD*%
D24*
%TO.P,C19,1*%
%TO.N,+5V*%
X114000000Y-152775000D03*
%TO.P,C19,2*%
%TO.N,GND*%
X114000000Y-151225000D03*
%TD*%
D23*
%TO.P,R10,1*%
%TO.N,GND*%
X139675000Y-127000000D03*
%TO.P,R10,2*%
%TO.N,Net-(CON1-PadT)*%
X141325000Y-127000000D03*
%TD*%
%TO.P,R11,1*%
%TO.N,GND*%
X139675000Y-137000000D03*
%TO.P,R11,2*%
%TO.N,Net-(CON1-PadR)*%
X141325000Y-137000000D03*
%TD*%
D29*
%TO.N,+5V*%
X105000000Y-157500000D03*
%TO.N,GND*%
X74900000Y-151500000D03*
X117251002Y-116787400D03*
X107600000Y-120400000D03*
X120000000Y-116787400D03*
X120776187Y-131610261D03*
X109000000Y-141500000D03*
X74900000Y-154000000D03*
X74900000Y-144000000D03*
X97500000Y-145500000D03*
X138575000Y-127000000D03*
X82800000Y-147400000D03*
X97500000Y-156000000D03*
X107500000Y-137500000D03*
X82555018Y-142231673D03*
X114000000Y-149850000D03*
X115325000Y-140250000D03*
X118637499Y-122213600D03*
X118750001Y-131756115D03*
X74900000Y-146500000D03*
X74900000Y-141500000D03*
X138575000Y-137000000D03*
X141500000Y-153500000D03*
X91715001Y-156500000D03*
X74900000Y-149000000D03*
X121900000Y-155500000D03*
%TO.N,/A1*%
X129404661Y-157433982D03*
X132500000Y-157000000D03*
%TO.N,/~{CS}*%
X95800000Y-142800000D03*
X110600000Y-145200000D03*
%TO.N,/~{RESET}*%
X126000000Y-159074800D03*
X130054999Y-156755536D03*
%TO.N,/~{IORQ}*%
X92503401Y-157400000D03*
X119490082Y-157990082D03*
X95800000Y-158450000D03*
%TO.N,/DAC_CLK*%
X119200000Y-143100000D03*
X120284465Y-144404499D03*
%TO.N,Net-(JP1-Pin_9)*%
X81746881Y-149172600D03*
X85430824Y-153500000D03*
%TO.N,Net-(JP1-Pin_7)*%
X83772712Y-149151382D03*
X87873631Y-153500000D03*
%TO.N,Net-(JP1-Pin_11)*%
X80994854Y-148281174D03*
X82800000Y-153500000D03*
%TO.N,Net-(JP1-Pin_3)*%
X77900000Y-151500000D03*
X81178592Y-152558250D03*
%TO.N,Net-(JP1-Pin_5)*%
X87900000Y-150442600D03*
X90453700Y-153046300D03*
%TD*%
D30*
%TO.N,+5V*%
X105200000Y-145500000D02*
X108000000Y-145500000D01*
X116868848Y-123700000D02*
X107800000Y-123700000D01*
X101550000Y-139950000D02*
X105200000Y-143600000D01*
X116595000Y-141750000D02*
X116595000Y-142549999D01*
X80225000Y-140199000D02*
X80000000Y-139974000D01*
X111000000Y-148500000D02*
X108000000Y-145500000D01*
X116960000Y-148500000D02*
X119324000Y-150864000D01*
X111525000Y-141500000D02*
X113805000Y-141500000D01*
X122945000Y-138353586D02*
X120405000Y-140893586D01*
X127165000Y-155500000D02*
X127515000Y-155150000D01*
X63946000Y-139974000D02*
X80000000Y-139974000D01*
X80024000Y-139950000D02*
X99650000Y-139950000D01*
X118637500Y-126492697D02*
X118637500Y-128992697D01*
X123063920Y-150864000D02*
X124750000Y-152550080D01*
X80285000Y-142560000D02*
X80285000Y-145700000D01*
X116960000Y-148500000D02*
X116960000Y-152500000D01*
X111525000Y-141975000D02*
X111525000Y-141500000D01*
X105000000Y-157500000D02*
X105000000Y-156200000D01*
X122945000Y-135250000D02*
X122945000Y-138353586D01*
X114275000Y-152500000D02*
X114000000Y-152775000D01*
X99650000Y-139950000D02*
X101550000Y-139950000D01*
X113805000Y-141500000D02*
X114055000Y-141750000D01*
X124750000Y-152550080D02*
X124750000Y-155500000D01*
X99650000Y-139950000D02*
X99650000Y-131850000D01*
X117300000Y-140100000D02*
X116595000Y-140805000D01*
X116960000Y-148500000D02*
X111000000Y-148500000D01*
X119400728Y-140100000D02*
X117300000Y-140100000D01*
X105200000Y-156000000D02*
X105200000Y-145500000D01*
X118637500Y-128992697D02*
X118750000Y-129105197D01*
X114905001Y-143400000D02*
X114055000Y-142549999D01*
X80225000Y-142500000D02*
X80225000Y-140199000D01*
X116595000Y-142549999D02*
X115744999Y-143400000D01*
X116595000Y-140805000D02*
X116595000Y-141750000D01*
X62460000Y-141460000D02*
X63946000Y-139974000D01*
X119324000Y-150864000D02*
X123063920Y-150864000D01*
X116960000Y-152500000D02*
X114275000Y-152500000D01*
X62460000Y-154540000D02*
X62460000Y-141840000D01*
X120405000Y-141104272D02*
X119400728Y-140100000D01*
X105000000Y-156200000D02*
X105200000Y-156000000D01*
X118637500Y-126492697D02*
X118637500Y-125468652D01*
X108000000Y-145500000D02*
X111525000Y-141975000D01*
X120405000Y-141750000D02*
X120405000Y-141104272D01*
X99650000Y-131850000D02*
X102250000Y-129250000D01*
X114055000Y-142549999D02*
X114055000Y-141750000D01*
X120405000Y-140893586D02*
X120405000Y-141750000D01*
X107800000Y-123700000D02*
X102250000Y-129250000D01*
X115744999Y-143400000D02*
X114905001Y-143400000D01*
X105200000Y-143600000D02*
X105200000Y-145500000D01*
X80225000Y-142500000D02*
X80285000Y-142560000D01*
X118637500Y-125468652D02*
X116868848Y-123700000D01*
X80000000Y-139974000D02*
X80024000Y-139950000D01*
X124750000Y-155500000D02*
X127165000Y-155500000D01*
D31*
%TO.N,GND*%
X121000000Y-130655197D02*
X121000000Y-131386448D01*
X82825000Y-145700000D02*
X84095000Y-145700000D01*
X82286691Y-142500000D02*
X82555018Y-142231673D01*
X73825000Y-149000000D02*
X74900000Y-149000000D01*
X91715000Y-155000000D02*
X91715001Y-156500000D01*
X97400000Y-145500000D02*
X99800000Y-145500000D01*
X82825000Y-145700000D02*
X82825000Y-147375000D01*
X123200000Y-155500000D02*
X121900000Y-155500000D01*
X107500000Y-134950000D02*
X107500000Y-137500000D01*
X81775000Y-142500000D02*
X82286691Y-142500000D01*
X118750000Y-130655197D02*
X118750001Y-131756115D01*
X121000000Y-131386448D02*
X120776187Y-131610261D01*
X97500000Y-156000000D02*
X99800000Y-156000000D01*
X73825000Y-154000000D02*
X74900000Y-154000000D01*
X117300000Y-116836398D02*
X117251002Y-116787400D01*
X82825000Y-147375000D02*
X82800000Y-147400000D01*
X139675000Y-127000000D02*
X138575000Y-127000000D01*
X84095000Y-145700000D02*
X85365000Y-145700000D01*
X141485000Y-153515000D02*
X141500000Y-153500000D01*
X117300000Y-117725000D02*
X117300000Y-116836398D01*
X85365000Y-145700000D02*
X86635000Y-145700000D01*
X73825000Y-144000000D02*
X74900000Y-144000000D01*
X139750000Y-137000000D02*
X138575000Y-137000000D01*
X120000000Y-116787400D02*
X120000000Y-117700000D01*
X141485000Y-155150000D02*
X141485000Y-153515000D01*
X73825000Y-141500000D02*
X74900000Y-141500000D01*
X115325000Y-141750000D02*
X115325000Y-140250000D01*
X73825000Y-151500000D02*
X74900000Y-151500000D01*
X114000000Y-151225000D02*
X114000000Y-149850000D01*
X109975000Y-141500000D02*
X109000000Y-141500000D01*
X73825000Y-146500000D02*
X74900000Y-146500000D01*
%TO.N,/CLK*%
X126300000Y-148500000D02*
X127515000Y-147285000D01*
X122040000Y-148500000D02*
X126300000Y-148500000D01*
X127515000Y-147285000D02*
X127515000Y-145850000D01*
%TO.N,/D0*%
X135248026Y-158450000D02*
X136955922Y-158450000D01*
X129866377Y-161173623D02*
X130969434Y-161173623D01*
X131874604Y-161035000D02*
X132663026Y-161035000D01*
X132663026Y-161035000D02*
X135248026Y-158450000D01*
X130969434Y-161173623D02*
X131085657Y-161057400D01*
X136955922Y-158450000D02*
X138945000Y-156460922D01*
X138945000Y-156460922D02*
X138945000Y-155150000D01*
X131085657Y-161057400D02*
X131852204Y-161057400D01*
X131852204Y-161057400D02*
X131874604Y-161035000D01*
X127540000Y-163500000D02*
X129866377Y-161173623D01*
%TO.N,/D1*%
X131887600Y-161692400D02*
X132115230Y-161692400D01*
X133576052Y-161670000D02*
X136161052Y-159085000D01*
X130080000Y-163500000D02*
X131887600Y-161692400D01*
X140215000Y-156088948D02*
X140215000Y-155150000D01*
X137218948Y-159085000D02*
X140215000Y-156088948D01*
X132137630Y-161670000D02*
X133576052Y-161670000D01*
X132115230Y-161692400D02*
X132137630Y-161670000D01*
X136161052Y-159085000D02*
X137218948Y-159085000D01*
%TO.N,/D2*%
X134244078Y-161900000D02*
X133839078Y-162305000D01*
X132620000Y-162580000D02*
X132620000Y-163500000D01*
X142600000Y-155863298D02*
X141867798Y-156595500D01*
X133839078Y-162305000D02*
X132895000Y-162305000D01*
X135301974Y-161900000D02*
X134244078Y-161900000D01*
X140606474Y-156595500D02*
X135301974Y-161900000D01*
X142600000Y-150900000D02*
X142600000Y-155863298D01*
X132895000Y-162305000D02*
X132620000Y-162580000D01*
X141485000Y-149785000D02*
X142600000Y-150900000D01*
X141867798Y-156595500D02*
X140606474Y-156595500D01*
X141485000Y-145850000D02*
X141485000Y-149785000D01*
%TO.N,/D3*%
X140215000Y-144850001D02*
X140660501Y-144404500D01*
X143600000Y-146136702D02*
X143600000Y-155761324D01*
X140215000Y-145850000D02*
X140215000Y-144850001D01*
X141867798Y-144404500D02*
X143600000Y-146136702D01*
X135160000Y-162940000D02*
X135160000Y-163500000D01*
X140660501Y-144404500D02*
X141867798Y-144404500D01*
X137000000Y-161100000D02*
X135160000Y-162940000D01*
X138261324Y-161100000D02*
X137000000Y-161100000D01*
X143600000Y-155761324D02*
X138261324Y-161100000D01*
%TO.N,/D4*%
X142130822Y-143769500D02*
X145000000Y-146638678D01*
X145000000Y-146638678D02*
X145000000Y-156200000D01*
X145000000Y-156200000D02*
X137700000Y-163500000D01*
X140025501Y-143769500D02*
X142130822Y-143769500D01*
X138945000Y-144850001D02*
X140025501Y-143769500D01*
X138945000Y-145850000D02*
X138945000Y-144850001D01*
%TO.N,/D5*%
X143100000Y-142750000D02*
X146500000Y-146150000D01*
X146500000Y-157240000D02*
X140240000Y-163500000D01*
X139775002Y-142750000D02*
X143100000Y-142750000D01*
X137675000Y-145850000D02*
X137675000Y-144850002D01*
X137675000Y-144850002D02*
X139775002Y-142750000D01*
X146500000Y-146150000D02*
X146500000Y-157240000D01*
%TO.N,/D6*%
X148000000Y-145600000D02*
X148000000Y-158280000D01*
X136405000Y-145850000D02*
X136405000Y-144145000D01*
X139150000Y-141400000D02*
X143800000Y-141400000D01*
X136405000Y-144145000D02*
X139150000Y-141400000D01*
X148000000Y-158280000D02*
X142780000Y-163500000D01*
X143800000Y-141400000D02*
X148000000Y-145600000D01*
%TO.N,/D7*%
X150000000Y-158820000D02*
X145320000Y-163500000D01*
X150000000Y-145200000D02*
X150000000Y-158820000D01*
X135135000Y-145850000D02*
X135135000Y-143665000D01*
X138650000Y-140150000D02*
X144950000Y-140150000D01*
X144950000Y-140150000D02*
X150000000Y-145200000D01*
X135135000Y-143665000D02*
X138650000Y-140150000D01*
%TO.N,/A1*%
X101599500Y-158960500D02*
X105604959Y-158960500D01*
X132595000Y-156905000D02*
X132500000Y-157000000D01*
X132595000Y-155150000D02*
X132595000Y-156905000D01*
X105604959Y-158960500D02*
X105787977Y-158777482D01*
X119836070Y-158777482D02*
X121113552Y-157500000D01*
X97060000Y-163500000D02*
X101599500Y-158960500D01*
X121113552Y-157500000D02*
X129338643Y-157500000D01*
X129338643Y-157500000D02*
X129404661Y-157433982D01*
X105787977Y-158777482D02*
X119836070Y-158777482D01*
%TO.N,/A4*%
X89440000Y-160040000D02*
X89440000Y-163500000D01*
X89175000Y-155000000D02*
X89175000Y-159775000D01*
X89175000Y-159775000D02*
X89440000Y-160040000D01*
%TO.N,/A3*%
X93290801Y-162189199D02*
X91980000Y-163500000D01*
X93290801Y-147275801D02*
X93290801Y-162189199D01*
X91715000Y-145700000D02*
X93290801Y-147275801D01*
%TO.N,/A2*%
X89175000Y-144675001D02*
X89620501Y-144229500D01*
X89620501Y-144229500D02*
X92117234Y-144229500D01*
X92117234Y-144229500D02*
X94500000Y-146612266D01*
X94500000Y-146612266D02*
X94500000Y-163480000D01*
X89175000Y-145700000D02*
X89175000Y-144675001D01*
%TO.N,/A5*%
X86635000Y-155000000D02*
X86635000Y-159935000D01*
X86635000Y-159935000D02*
X86900000Y-160200000D01*
X86900000Y-160200000D02*
X86900000Y-163500000D01*
%TO.N,/A6*%
X84360000Y-159960000D02*
X84360000Y-163500000D01*
X84095000Y-159695000D02*
X84360000Y-159960000D01*
X84095000Y-155000000D02*
X84095000Y-159695000D01*
%TO.N,/A7*%
X81555000Y-155000000D02*
X81555000Y-159805000D01*
X81820000Y-160070000D02*
X81820000Y-163500000D01*
X81555000Y-159805000D02*
X81820000Y-160070000D01*
%TO.N,/A0*%
X131325000Y-155150000D02*
X131325000Y-156845155D01*
X103227600Y-159872400D02*
X99600000Y-163500000D01*
X131325000Y-156845155D02*
X129882755Y-158287400D01*
X119639178Y-159872400D02*
X103227600Y-159872400D01*
X129882755Y-158287400D02*
X121224178Y-158287400D01*
X121224178Y-158287400D02*
X119639178Y-159872400D01*
%TO.N,/~{CS}*%
X120238500Y-150038500D02*
X119300000Y-149100000D01*
X123405853Y-150038500D02*
X120238500Y-150038500D01*
X81555000Y-144445000D02*
X82500000Y-143500000D01*
X124067354Y-150700000D02*
X123405853Y-150038500D01*
X82500000Y-143500000D02*
X83013552Y-143500000D01*
X81555000Y-145700000D02*
X81555000Y-144445000D01*
X132954999Y-150700000D02*
X124067354Y-150700000D01*
X119300000Y-147400000D02*
X117100000Y-145200000D01*
X83713552Y-142800000D02*
X95800000Y-142800000D01*
X136405000Y-154150001D02*
X132954999Y-150700000D01*
X83013552Y-143500000D02*
X83713552Y-142800000D01*
X117100000Y-145200000D02*
X110600000Y-145200000D01*
X136405000Y-155150000D02*
X136405000Y-154150001D01*
X119300000Y-149100000D02*
X119300000Y-147400000D01*
%TO.N,/~{RESET}*%
X112325500Y-160934500D02*
X121065500Y-160934500D01*
X109760000Y-163500000D02*
X112325500Y-160934500D01*
X130055000Y-155150000D02*
X130054999Y-156755536D01*
X125925200Y-159000000D02*
X126000000Y-159074800D01*
X123000000Y-159000000D02*
X125925200Y-159000000D01*
X121065500Y-160934500D02*
X123000000Y-159000000D01*
%TO.N,/~{WR}*%
X119920000Y-163500000D02*
X123557800Y-159862200D01*
X123557800Y-159862200D02*
X126326152Y-159862200D01*
X126326152Y-159862200D02*
X126400952Y-159787400D01*
X133865000Y-157248552D02*
X133865000Y-155150000D01*
X126400952Y-159787400D02*
X131326152Y-159787400D01*
X131326152Y-159787400D02*
X133865000Y-157248552D01*
%TO.N,/~{IORQ}*%
X80285000Y-155000000D02*
X80285000Y-153975001D01*
X92503401Y-153917081D02*
X92503401Y-157400000D01*
X95924500Y-158325500D02*
X95800000Y-158450000D01*
X82686448Y-152500000D02*
X89886448Y-152500000D01*
X90127548Y-152258900D02*
X90845220Y-152258900D01*
X80730501Y-153529500D02*
X81656948Y-153529500D01*
X119490082Y-157990082D02*
X105677351Y-157990082D01*
X105341933Y-158325500D02*
X95924500Y-158325500D01*
X81656948Y-153529500D02*
X82686448Y-152500000D01*
X105677351Y-157990082D02*
X105341933Y-158325500D01*
X80285000Y-153975001D02*
X80730501Y-153529500D01*
X89886448Y-152500000D02*
X90127548Y-152258900D01*
X90845220Y-152258900D02*
X92503401Y-153917081D01*
%TO.N,/~{RD}*%
X135135000Y-156876578D02*
X135135000Y-155150000D01*
X130706408Y-160538623D02*
X130822631Y-160422400D01*
X130822631Y-160422400D02*
X131589178Y-160422400D01*
X125421377Y-160538623D02*
X130706408Y-160538623D01*
X131589178Y-160422400D02*
X135135000Y-156876578D01*
X122460000Y-163500000D02*
X125421377Y-160538623D01*
%TO.N,/DAC_CLK*%
X119135000Y-141750000D02*
X119135000Y-143035000D01*
X128785000Y-144785000D02*
X128404500Y-144404500D01*
X128785000Y-145850000D02*
X128785000Y-144785000D01*
X128404500Y-144404500D02*
X120284465Y-144404499D01*
X119135000Y-143035000D02*
X119200000Y-143100000D01*
%TO.N,/R*%
X122447500Y-121542697D02*
X122912223Y-121542697D01*
X130300000Y-128930474D02*
X130300000Y-133000000D01*
X122912223Y-121542697D02*
X130300000Y-128930474D01*
X122447500Y-121542697D02*
X121177500Y-121542697D01*
%TO.N,/L*%
X128100000Y-123000000D02*
X130300000Y-123000000D01*
X116097500Y-121542697D02*
X116097500Y-120000000D01*
X115000000Y-120000000D02*
X116097500Y-120000000D01*
X114827500Y-121542697D02*
X114827500Y-120172500D01*
X121100000Y-116000000D02*
X128100000Y-123000000D01*
X116097500Y-116825936D02*
X116923436Y-116000000D01*
X114827500Y-120172500D02*
X115000000Y-120000000D01*
X116097500Y-120000000D02*
X116097500Y-116825936D01*
X116923436Y-116000000D02*
X121100000Y-116000000D01*
%TO.N,/SMPBD*%
X133865000Y-144365000D02*
X130004500Y-140504500D01*
X130004500Y-140504500D02*
X122120501Y-140504500D01*
X122120501Y-140504500D02*
X121675000Y-140950001D01*
X121675000Y-140950001D02*
X121675000Y-141750000D01*
X133865000Y-145850000D02*
X133865000Y-144365000D01*
%TO.N,/DOAB*%
X118873848Y-143887400D02*
X117865000Y-142878552D01*
X131325000Y-145850000D02*
X131325000Y-144850002D01*
X119526152Y-143887400D02*
X118873848Y-143887400D01*
X129774998Y-143300000D02*
X120113552Y-143300000D01*
X131325000Y-144850002D02*
X129774998Y-143300000D01*
X117865000Y-142878552D02*
X117865000Y-141750000D01*
X120113552Y-143300000D02*
X119526152Y-143887400D01*
%TO.N,/SMPAC*%
X129494999Y-141750000D02*
X122945000Y-141750000D01*
X132595000Y-144850001D02*
X129494999Y-141750000D01*
X132595000Y-145850000D02*
X132595000Y-144850001D01*
%TO.N,Net-(U3-CV)*%
X114900000Y-132700000D02*
X116100000Y-132700000D01*
X114055000Y-133545000D02*
X114900000Y-132700000D01*
X107500000Y-129550000D02*
X107750000Y-129550000D01*
X116921999Y-125072197D02*
X110027804Y-125072197D01*
X117367500Y-125517698D02*
X116921999Y-125072197D01*
X107500000Y-127600001D02*
X107500000Y-129550000D01*
X117367500Y-131432500D02*
X117367500Y-126492697D01*
X110027804Y-125072197D02*
X107500000Y-127600001D01*
X117367500Y-126492697D02*
X117367500Y-125517698D01*
X114055000Y-134467698D02*
X114055000Y-133545000D01*
X116100000Y-132700000D02*
X117367500Y-131432500D01*
X114055000Y-135250000D02*
X114055000Y-134450001D01*
%TO.N,Net-(U3-AOUT)*%
X120631180Y-127767697D02*
X119907500Y-127767697D01*
X119907500Y-126492697D02*
X119907500Y-127767697D01*
X121000000Y-129105197D02*
X121000000Y-128136517D01*
X117865000Y-134057106D02*
X117865000Y-135250000D01*
X121000000Y-128136517D02*
X120631180Y-127767697D01*
X119907500Y-127767697D02*
X119907500Y-132032303D01*
X119907500Y-132032303D02*
X117865000Y-134074803D01*
%TO.N,Net-(C15-Pad2)*%
X139675000Y-123000000D02*
X135775000Y-123000000D01*
%TO.N,/AUDIO_CH2*%
X123670500Y-131478940D02*
X123670500Y-125894377D01*
X122176123Y-124400000D02*
X119249804Y-124400000D01*
X121464000Y-133136000D02*
X122013440Y-133136000D01*
X120405000Y-134195000D02*
X121464000Y-133136000D01*
X122013440Y-133136000D02*
X123670500Y-131478940D01*
X120405000Y-134744440D02*
X120405000Y-134195000D01*
X123670500Y-125894377D02*
X122176123Y-124400000D01*
X117367500Y-121542697D02*
X117367500Y-119342500D01*
X119249804Y-124400000D02*
X117367500Y-122517696D01*
X117367500Y-122517696D02*
X117367500Y-121542697D01*
%TO.N,Net-(C16-Pad2)*%
X139675000Y-133000000D02*
X135700000Y-133000000D01*
%TO.N,Net-(U4B--)*%
X122447500Y-128802697D02*
X122750000Y-129105197D01*
X122447500Y-126492697D02*
X122447500Y-128802697D01*
X121177500Y-126492697D02*
X122447500Y-126492697D01*
%TO.N,Net-(U3-SWIN)*%
X119135000Y-134365000D02*
X121000000Y-132500000D01*
X119135000Y-135250000D02*
X119135000Y-134365000D01*
X121750000Y-132500000D02*
X122750000Y-131500000D01*
X122750000Y-131500000D02*
X122750000Y-130755197D01*
X121000000Y-132500000D02*
X121750000Y-132500000D01*
%TO.N,Net-(U3-MP)*%
X112000000Y-130517697D02*
X112000000Y-135767697D01*
X116595000Y-136205834D02*
X116595000Y-135250000D01*
X114827500Y-126492697D02*
X116097500Y-126492697D01*
X113250000Y-137000000D02*
X115800834Y-137000000D01*
X114827500Y-127690197D02*
X112000000Y-130517697D01*
X114827500Y-126492697D02*
X114827500Y-127690197D01*
X112000000Y-135750000D02*
X113250000Y-137000000D01*
X115800834Y-137000000D02*
X116595000Y-136205834D01*
%TO.N,Net-(JP1-Pin_1)*%
X65160000Y-154000000D02*
X65000000Y-154160000D01*
X81947796Y-151442600D02*
X82160396Y-151230000D01*
X75313552Y-155200000D02*
X78344082Y-152169470D01*
X87905000Y-148391448D02*
X87905000Y-145700000D01*
X72175000Y-154000000D02*
X72175000Y-154775000D01*
X72175000Y-154000000D02*
X65160000Y-154000000D01*
X88687400Y-151230000D02*
X88687400Y-149173848D01*
X82160396Y-151230000D02*
X88687400Y-151230000D01*
X88687400Y-149173848D02*
X87905000Y-148391448D01*
X72175000Y-154775000D02*
X72600000Y-155200000D01*
X78344082Y-152169470D02*
X80453820Y-152169470D01*
X72600000Y-155200000D02*
X75313552Y-155200000D01*
X80453820Y-152169470D02*
X81180690Y-151442600D01*
X81180690Y-151442600D02*
X81947796Y-151442600D01*
%TO.N,Net-(JP1-Pin_9)*%
X80772728Y-149172600D02*
X81746881Y-149172600D01*
X85365000Y-153565824D02*
X85430824Y-153500000D01*
X72720500Y-145220500D02*
X76932034Y-145220500D01*
X72175000Y-144000000D02*
X72175000Y-144675000D01*
X80207454Y-148495920D02*
X80207454Y-148607326D01*
X80207454Y-148607326D02*
X80772728Y-149172600D01*
X85365000Y-155000000D02*
X85365000Y-153565824D01*
X72175000Y-144675000D02*
X72720500Y-145220500D01*
X76932034Y-145220500D02*
X80207454Y-148495920D01*
X65000000Y-144000000D02*
X72175000Y-144000000D01*
%TO.N,Net-(JP1-Pin_7)*%
X78286627Y-147800000D02*
X80446627Y-149960000D01*
X80446627Y-149960000D02*
X82964094Y-149960000D01*
X72175000Y-146500000D02*
X72175000Y-147175000D01*
X72800000Y-147800000D02*
X78286627Y-147800000D01*
X82964094Y-149960000D02*
X83772712Y-149151382D01*
X87905000Y-155000000D02*
X87905000Y-153531369D01*
X72175000Y-147175000D02*
X72800000Y-147800000D01*
X65000000Y-146540000D02*
X72135000Y-146540000D01*
X87905000Y-153531369D02*
X87873631Y-153500000D01*
X72135000Y-146540000D02*
X72175000Y-146500000D01*
%TO.N,Net-(JP1-Pin_11)*%
X75793180Y-143079500D02*
X80994854Y-148281174D01*
X65000000Y-141460000D02*
X72135000Y-141460000D01*
X82825000Y-155000000D02*
X82825000Y-153525000D01*
X73079500Y-143079500D02*
X75793180Y-143079500D01*
X72175000Y-141500000D02*
X72175000Y-142175000D01*
X72175000Y-142175000D02*
X73079500Y-143079500D01*
X72135000Y-141460000D02*
X72175000Y-141500000D01*
X82825000Y-153525000D02*
X82800000Y-153500000D01*
%TO.N,Net-(JP1-Pin_3)*%
X72800000Y-152800000D02*
X76600000Y-152800000D01*
X72175000Y-151500000D02*
X72175000Y-152175000D01*
X82423422Y-151865000D02*
X81730172Y-152558250D01*
X90445000Y-150630130D02*
X89210130Y-151865000D01*
X72175000Y-151500000D02*
X65120000Y-151500000D01*
X90445000Y-145700000D02*
X90445000Y-150630130D01*
X89210130Y-151865000D02*
X82423422Y-151865000D01*
X81730172Y-152558250D02*
X81178592Y-152558250D01*
X76600000Y-152800000D02*
X77900000Y-151500000D01*
X65120000Y-151500000D02*
X65000000Y-151620000D01*
X72175000Y-152175000D02*
X72800000Y-152800000D01*
%TO.N,Net-(JP1-Pin_5)*%
X80396201Y-150807600D02*
X81684770Y-150807600D01*
X90453700Y-155008700D02*
X90453700Y-153046300D01*
X65080000Y-149000000D02*
X65000000Y-149080000D01*
X87747600Y-150595000D02*
X87900000Y-150442600D01*
X90445000Y-155000000D02*
X90453700Y-155008700D01*
X72175000Y-149000000D02*
X65080000Y-149000000D01*
X72870000Y-150170000D02*
X79758601Y-150170000D01*
X72175000Y-149475000D02*
X72870000Y-150170000D01*
X81684770Y-150807600D02*
X81897370Y-150595000D01*
X81897370Y-150595000D02*
X87747600Y-150595000D01*
X79758601Y-150170000D02*
X80396201Y-150807600D01*
X72175000Y-149000000D02*
X72175000Y-149475000D01*
%TO.N,/AUDIO_CH1*%
X121675000Y-135250000D02*
X121675000Y-134450000D01*
X119907500Y-121542697D02*
X119907500Y-119342500D01*
X120063197Y-122963197D02*
X119907500Y-122807500D01*
X124800000Y-125400000D02*
X122363197Y-122963197D01*
X124800000Y-131325000D02*
X124800000Y-125400000D01*
X122363197Y-122963197D02*
X120063197Y-122963197D01*
X119907500Y-122807500D02*
X119907500Y-121542697D01*
X121675000Y-134450000D02*
X124800000Y-131325000D01*
%TO.N,Net-(CON1-PadT)*%
X148569000Y-120595000D02*
X143730000Y-120595000D01*
X143730000Y-120595000D02*
X141325000Y-123000000D01*
X148569000Y-123095000D02*
X148569000Y-120595000D01*
X141325000Y-127000000D02*
X141325000Y-123000000D01*
%TO.N,Net-(CON1-PadR)*%
X141325000Y-133000000D02*
X141325000Y-137000000D01*
X143730000Y-130595000D02*
X141325000Y-133000000D01*
X148569000Y-128095000D02*
X148569000Y-130595000D01*
X148569000Y-130595000D02*
X143730000Y-130595000D01*
%TD*%
%TA.AperFunction,Conductor*%
%TO.N,GND*%
G36*
X111483310Y-160583402D02*
G01*
X111529803Y-160637058D01*
X111539907Y-160707332D01*
X111510413Y-160771912D01*
X111504299Y-160778479D01*
X110471776Y-161811002D01*
X110142168Y-162140610D01*
X110079856Y-162174635D01*
X110033365Y-162175962D01*
X109866287Y-162149500D01*
X109653713Y-162149500D01*
X109443757Y-162182754D01*
X109443754Y-162182754D01*
X109443753Y-162182755D01*
X109241588Y-162248443D01*
X109241586Y-162248444D01*
X109052180Y-162344951D01*
X108880205Y-162469898D01*
X108880202Y-162469900D01*
X108729900Y-162620202D01*
X108729898Y-162620205D01*
X108604949Y-162792183D01*
X108602265Y-162797451D01*
X108553516Y-162849065D01*
X108484600Y-162866129D01*
X108417399Y-162843226D01*
X108377735Y-162797451D01*
X108375050Y-162792183D01*
X108362421Y-162774800D01*
X108250104Y-162620208D01*
X108250101Y-162620205D01*
X108250099Y-162620202D01*
X108099797Y-162469900D01*
X108099794Y-162469898D01*
X108099792Y-162469896D01*
X107962939Y-162370467D01*
X107927819Y-162344951D01*
X107927818Y-162344950D01*
X107927816Y-162344949D01*
X107738412Y-162248443D01*
X107536243Y-162182754D01*
X107326287Y-162149500D01*
X107113713Y-162149500D01*
X106903757Y-162182754D01*
X106903754Y-162182754D01*
X106903753Y-162182755D01*
X106701588Y-162248443D01*
X106701586Y-162248444D01*
X106512180Y-162344951D01*
X106340205Y-162469898D01*
X106340202Y-162469900D01*
X106189900Y-162620202D01*
X106189898Y-162620205D01*
X106064949Y-162792183D01*
X106062265Y-162797451D01*
X106013516Y-162849065D01*
X105944600Y-162866129D01*
X105877399Y-162843226D01*
X105837735Y-162797451D01*
X105835050Y-162792183D01*
X105822421Y-162774800D01*
X105710104Y-162620208D01*
X105710101Y-162620205D01*
X105710099Y-162620202D01*
X105559797Y-162469900D01*
X105559794Y-162469898D01*
X105559792Y-162469896D01*
X105422939Y-162370467D01*
X105387819Y-162344951D01*
X105387818Y-162344950D01*
X105387816Y-162344949D01*
X105198412Y-162248443D01*
X104996243Y-162182754D01*
X104786287Y-162149500D01*
X104573713Y-162149500D01*
X104363757Y-162182754D01*
X104363754Y-162182754D01*
X104363753Y-162182755D01*
X104161588Y-162248443D01*
X104161586Y-162248444D01*
X103972180Y-162344951D01*
X103800205Y-162469898D01*
X103800202Y-162469900D01*
X103649900Y-162620202D01*
X103649898Y-162620205D01*
X103524951Y-162792180D01*
X103428444Y-162981586D01*
X103428443Y-162981588D01*
X103416373Y-163018737D01*
X103362754Y-163183757D01*
X103329500Y-163393713D01*
X103329500Y-163606287D01*
X103362754Y-163816243D01*
X103428443Y-164018412D01*
X103467913Y-164095876D01*
X103524951Y-164207819D01*
X103591517Y-164299439D01*
X103615375Y-164366307D01*
X103599295Y-164435458D01*
X103548381Y-164484938D01*
X103489581Y-164499500D01*
X100790419Y-164499500D01*
X100722298Y-164479498D01*
X100675805Y-164425842D01*
X100665701Y-164355568D01*
X100688483Y-164299439D01*
X100755051Y-164207816D01*
X100851557Y-164018412D01*
X100917246Y-163816243D01*
X100950500Y-163606287D01*
X100950500Y-163393713D01*
X100924037Y-163226634D01*
X100933137Y-163156224D01*
X100959388Y-163117832D01*
X103476917Y-160600305D01*
X103539229Y-160566279D01*
X103566012Y-160563400D01*
X111415189Y-160563400D01*
X111483310Y-160583402D01*
G37*
%TD.AperFunction*%
%TA.AperFunction,Conductor*%
G36*
X154502611Y-115500608D02*
G01*
X154907663Y-115517361D01*
X154918012Y-115518218D01*
X155317722Y-115568042D01*
X155327986Y-115569755D01*
X155722213Y-115652415D01*
X155732276Y-115654962D01*
X156118344Y-115769901D01*
X156128187Y-115773281D01*
X156503427Y-115919700D01*
X156512964Y-115923883D01*
X156853371Y-116090298D01*
X156874811Y-116100779D01*
X156883969Y-116105735D01*
X157229991Y-116311919D01*
X157238702Y-116317610D01*
X157333714Y-116385447D01*
X157566512Y-116551662D01*
X157574730Y-116558058D01*
X157882102Y-116818388D01*
X157889763Y-116825442D01*
X158174557Y-117110236D01*
X158181611Y-117117897D01*
X158441941Y-117425269D01*
X158448337Y-117433487D01*
X158682384Y-117761289D01*
X158688080Y-117770008D01*
X158894264Y-118116030D01*
X158899220Y-118125188D01*
X159076116Y-118487035D01*
X159080299Y-118496572D01*
X159226718Y-118871812D01*
X159230100Y-118881661D01*
X159345032Y-119267707D01*
X159347588Y-119277803D01*
X159430243Y-119672009D01*
X159431957Y-119682281D01*
X159481779Y-120081973D01*
X159482639Y-120092351D01*
X159499392Y-120497388D01*
X159499500Y-120502595D01*
X159499500Y-121412500D01*
X159479498Y-121480621D01*
X159425842Y-121527114D01*
X159373500Y-121538500D01*
X158894449Y-121538500D01*
X158661758Y-121571956D01*
X158436187Y-121638190D01*
X158222340Y-121735850D01*
X158024571Y-121862949D01*
X157846901Y-122016901D01*
X157692949Y-122194571D01*
X157565850Y-122392340D01*
X157468190Y-122606187D01*
X157401956Y-122831758D01*
X157368500Y-123064449D01*
X157368500Y-128125550D01*
X157401956Y-128358241D01*
X157468190Y-128583812D01*
X157565850Y-128797659D01*
X157692949Y-128995428D01*
X157846901Y-129173098D01*
X158024571Y-129327050D01*
X158220037Y-129452669D01*
X158222342Y-129454150D01*
X158436189Y-129551810D01*
X158661757Y-129618043D01*
X158894455Y-129651500D01*
X158946108Y-129651500D01*
X159373500Y-129651500D01*
X159441621Y-129671502D01*
X159488114Y-129725158D01*
X159499500Y-129777500D01*
X159499500Y-162904123D01*
X159479498Y-162972244D01*
X159425842Y-163018737D01*
X159355568Y-163028841D01*
X159290988Y-162999347D01*
X159261233Y-162961326D01*
X159175051Y-162792184D01*
X159050104Y-162620208D01*
X159050101Y-162620205D01*
X159050099Y-162620202D01*
X158899797Y-162469900D01*
X158899794Y-162469898D01*
X158899792Y-162469896D01*
X158762939Y-162370467D01*
X158727819Y-162344951D01*
X158727818Y-162344950D01*
X158727816Y-162344949D01*
X158538412Y-162248443D01*
X158336243Y-162182754D01*
X158126287Y-162149500D01*
X157913713Y-162149500D01*
X157703757Y-162182754D01*
X157703754Y-162182754D01*
X157703753Y-162182755D01*
X157501588Y-162248443D01*
X157501586Y-162248444D01*
X157312180Y-162344951D01*
X157140205Y-162469898D01*
X157140202Y-162469900D01*
X156989900Y-162620202D01*
X156989898Y-162620205D01*
X156864949Y-162792183D01*
X156862265Y-162797451D01*
X156813516Y-162849065D01*
X156744600Y-162866129D01*
X156677399Y-162843226D01*
X156637735Y-162797451D01*
X156635050Y-162792183D01*
X156622421Y-162774800D01*
X156510104Y-162620208D01*
X156510101Y-162620205D01*
X156510099Y-162620202D01*
X156359797Y-162469900D01*
X156359794Y-162469898D01*
X156359792Y-162469896D01*
X156222939Y-162370467D01*
X156187819Y-162344951D01*
X156187818Y-162344950D01*
X156187816Y-162344949D01*
X155998412Y-162248443D01*
X155796243Y-162182754D01*
X155586287Y-162149500D01*
X155373713Y-162149500D01*
X155163757Y-162182754D01*
X155163754Y-162182754D01*
X155163753Y-162182755D01*
X154961588Y-162248443D01*
X154961586Y-162248444D01*
X154772180Y-162344951D01*
X154600205Y-162469898D01*
X154600202Y-162469900D01*
X154449900Y-162620202D01*
X154449898Y-162620205D01*
X154324949Y-162792183D01*
X154322265Y-162797451D01*
X154273516Y-162849065D01*
X154204600Y-162866129D01*
X154137399Y-162843226D01*
X154097735Y-162797451D01*
X154095050Y-162792183D01*
X154082421Y-162774800D01*
X153970104Y-162620208D01*
X153970101Y-162620205D01*
X153970099Y-162620202D01*
X153819797Y-162469900D01*
X153819794Y-162469898D01*
X153819792Y-162469896D01*
X153682939Y-162370467D01*
X153647819Y-162344951D01*
X153647818Y-162344950D01*
X153647816Y-162344949D01*
X153458412Y-162248443D01*
X153256243Y-162182754D01*
X153046287Y-162149500D01*
X152833713Y-162149500D01*
X152623757Y-162182754D01*
X152623754Y-162182754D01*
X152623753Y-162182755D01*
X152421588Y-162248443D01*
X152421586Y-162248444D01*
X152232180Y-162344951D01*
X152060205Y-162469898D01*
X152060202Y-162469900D01*
X151909900Y-162620202D01*
X151909898Y-162620205D01*
X151784949Y-162792183D01*
X151782265Y-162797451D01*
X151733516Y-162849065D01*
X151664600Y-162866129D01*
X151597399Y-162843226D01*
X151557735Y-162797451D01*
X151555050Y-162792183D01*
X151542421Y-162774800D01*
X151430104Y-162620208D01*
X151430101Y-162620205D01*
X151430099Y-162620202D01*
X151279797Y-162469900D01*
X151279794Y-162469898D01*
X151279792Y-162469896D01*
X151142939Y-162370467D01*
X151107819Y-162344951D01*
X151107818Y-162344950D01*
X151107816Y-162344949D01*
X150918412Y-162248443D01*
X150716243Y-162182754D01*
X150506287Y-162149500D01*
X150293713Y-162149500D01*
X150083757Y-162182754D01*
X150083754Y-162182754D01*
X150083753Y-162182755D01*
X149881588Y-162248443D01*
X149881586Y-162248444D01*
X149692180Y-162344951D01*
X149520205Y-162469898D01*
X149520202Y-162469900D01*
X149369900Y-162620202D01*
X149369898Y-162620205D01*
X149244949Y-162792183D01*
X149242265Y-162797451D01*
X149193516Y-162849065D01*
X149124600Y-162866129D01*
X149057399Y-162843226D01*
X149017735Y-162797451D01*
X149015050Y-162792183D01*
X149002421Y-162774800D01*
X148890104Y-162620208D01*
X148890101Y-162620205D01*
X148890099Y-162620202D01*
X148739797Y-162469900D01*
X148739794Y-162469898D01*
X148739792Y-162469896D01*
X148602939Y-162370467D01*
X148567819Y-162344951D01*
X148567818Y-162344950D01*
X148567816Y-162344949D01*
X148378412Y-162248443D01*
X148176243Y-162182754D01*
X147966287Y-162149500D01*
X147951911Y-162149500D01*
X147883790Y-162129498D01*
X147837297Y-162075842D01*
X147827193Y-162005568D01*
X147856687Y-161940988D01*
X147862816Y-161934405D01*
X149035509Y-160761712D01*
X150536735Y-159260487D01*
X150612356Y-159147312D01*
X150664445Y-159021558D01*
X150664445Y-159021553D01*
X150664447Y-159021551D01*
X150671192Y-158987639D01*
X150671192Y-158987636D01*
X150672194Y-158982598D01*
X150691000Y-158888058D01*
X150691000Y-145131942D01*
X150665215Y-145002312D01*
X150664445Y-144998442D01*
X150612356Y-144872688D01*
X150536735Y-144759513D01*
X147964866Y-142187644D01*
X145390494Y-139613271D01*
X145390488Y-139613266D01*
X145390482Y-139613262D01*
X145277311Y-139537644D01*
X145151560Y-139485556D01*
X145151557Y-139485555D01*
X145018061Y-139459000D01*
X145018058Y-139459000D01*
X138581942Y-139459000D01*
X138581938Y-139459000D01*
X138448442Y-139485555D01*
X138448439Y-139485556D01*
X138322688Y-139537644D01*
X138209518Y-139613262D01*
X138209511Y-139613267D01*
X134598271Y-143224505D01*
X134598266Y-143224512D01*
X134532479Y-143322969D01*
X134522645Y-143337686D01*
X134470556Y-143463439D01*
X134470555Y-143463442D01*
X134444000Y-143596938D01*
X134444000Y-143662587D01*
X134423998Y-143730708D01*
X134370342Y-143777201D01*
X134300068Y-143787305D01*
X134235488Y-143757811D01*
X134228905Y-143751682D01*
X130444994Y-139967771D01*
X130444988Y-139967766D01*
X130331811Y-139892144D01*
X130206060Y-139840056D01*
X130206057Y-139840055D01*
X130072561Y-139813500D01*
X130072558Y-139813500D01*
X123035905Y-139813500D01*
X122967784Y-139793498D01*
X122921291Y-139739842D01*
X122911187Y-139669568D01*
X122940681Y-139604988D01*
X122946810Y-139598405D01*
X123279922Y-139265293D01*
X123629705Y-138915510D01*
X123629706Y-138915509D01*
X123726175Y-138771133D01*
X123792624Y-138610710D01*
X123826500Y-138440406D01*
X123826500Y-135163180D01*
X123792624Y-134992876D01*
X123792620Y-134992866D01*
X123755091Y-134902260D01*
X123745500Y-134854043D01*
X123745500Y-134534306D01*
X123742598Y-134497432D01*
X123742598Y-134497431D01*
X123696744Y-134339602D01*
X123696742Y-134339598D01*
X123613082Y-134198136D01*
X123613076Y-134198129D01*
X123496870Y-134081923D01*
X123496863Y-134081917D01*
X123355400Y-133998256D01*
X123350059Y-133995945D01*
X123295486Y-133950533D01*
X123274127Y-133882825D01*
X123292765Y-133814319D01*
X123311003Y-133791218D01*
X125336735Y-131765487D01*
X125412356Y-131652312D01*
X125464445Y-131526558D01*
X125480568Y-131445500D01*
X125491000Y-131393058D01*
X125491000Y-125402886D01*
X125511002Y-125334765D01*
X125564658Y-125288272D01*
X125634932Y-125278168D01*
X125699512Y-125307662D01*
X125706095Y-125313791D01*
X129572095Y-129179791D01*
X129606121Y-129242103D01*
X129609000Y-129268886D01*
X129609000Y-131573500D01*
X129588998Y-131641621D01*
X129535342Y-131688114D01*
X129483000Y-131699500D01*
X128749990Y-131699500D01*
X128647202Y-131710000D01*
X128480665Y-131765185D01*
X128331343Y-131857288D01*
X128331337Y-131857293D01*
X128207293Y-131981337D01*
X128207288Y-131981343D01*
X128115185Y-132130665D01*
X128060002Y-132297196D01*
X128060000Y-132297208D01*
X128049500Y-132399982D01*
X128049500Y-133600009D01*
X128060000Y-133702797D01*
X128115185Y-133869334D01*
X128207288Y-134018656D01*
X128207293Y-134018662D01*
X128331337Y-134142706D01*
X128331343Y-134142711D01*
X128331344Y-134142712D01*
X128388563Y-134178004D01*
X128480665Y-134234814D01*
X128647196Y-134289997D01*
X128647197Y-134289997D01*
X128647203Y-134289999D01*
X128749991Y-134300500D01*
X131850008Y-134300499D01*
X131850009Y-134300499D01*
X131952797Y-134289999D01*
X132119334Y-134234814D01*
X132268656Y-134142712D01*
X132392712Y-134018656D01*
X132484814Y-133869334D01*
X132539999Y-133702797D01*
X132550500Y-133600009D01*
X132550499Y-132399992D01*
X132550498Y-132399982D01*
X133449500Y-132399982D01*
X133449500Y-133600009D01*
X133460000Y-133702797D01*
X133515185Y-133869334D01*
X133607288Y-134018656D01*
X133607293Y-134018662D01*
X133731337Y-134142706D01*
X133731343Y-134142711D01*
X133731344Y-134142712D01*
X133788563Y-134178004D01*
X133880665Y-134234814D01*
X134047196Y-134289997D01*
X134047197Y-134289997D01*
X134047203Y-134289999D01*
X134149991Y-134300500D01*
X137250008Y-134300499D01*
X137250009Y-134300499D01*
X137352797Y-134289999D01*
X137519334Y-134234814D01*
X137668656Y-134142712D01*
X137792712Y-134018656D01*
X137884814Y-133869334D01*
X137915289Y-133777364D01*
X137955702Y-133718996D01*
X138021259Y-133691740D01*
X138034893Y-133691000D01*
X138848152Y-133691000D01*
X138916273Y-133711002D01*
X138937247Y-133727905D01*
X139039809Y-133830467D01*
X139039813Y-133830470D01*
X139039815Y-133830472D01*
X139185394Y-133918478D01*
X139347804Y-133969086D01*
X139418384Y-133975500D01*
X139418387Y-133975500D01*
X139931613Y-133975500D01*
X139931616Y-133975500D01*
X140002196Y-133969086D01*
X140164606Y-133918478D01*
X140310185Y-133830472D01*
X140410906Y-133729750D01*
X140418978Y-133725343D01*
X140424491Y-133717979D01*
X140449649Y-133708595D01*
X140473216Y-133695727D01*
X140482391Y-133696383D01*
X140491011Y-133693168D01*
X140517250Y-133698875D01*
X140544032Y-133700791D01*
X140553230Y-133706702D01*
X140560385Y-133708259D01*
X140589095Y-133729752D01*
X140597095Y-133737752D01*
X140631121Y-133800064D01*
X140634000Y-133826847D01*
X140634000Y-136173152D01*
X140613998Y-136241273D01*
X140597095Y-136262247D01*
X140569532Y-136289809D01*
X140569528Y-136289814D01*
X140520133Y-136371524D01*
X140498451Y-136407391D01*
X140481521Y-136435396D01*
X140481520Y-136435397D01*
X140430913Y-136597806D01*
X140424500Y-136668386D01*
X140424500Y-137331613D01*
X140430913Y-137402193D01*
X140481520Y-137564602D01*
X140481521Y-137564603D01*
X140481522Y-137564606D01*
X140541877Y-137664445D01*
X140569528Y-137710185D01*
X140569532Y-137710190D01*
X140689809Y-137830467D01*
X140689814Y-137830471D01*
X140689815Y-137830472D01*
X140835394Y-137918478D01*
X140997804Y-137969086D01*
X141068384Y-137975500D01*
X141068387Y-137975500D01*
X141581613Y-137975500D01*
X141581616Y-137975500D01*
X141652196Y-137969086D01*
X141814606Y-137918478D01*
X141960185Y-137830472D01*
X142080472Y-137710185D01*
X142168478Y-137564606D01*
X142219086Y-137402196D01*
X142225500Y-137331616D01*
X142225500Y-136668384D01*
X142219086Y-136597804D01*
X142168478Y-136435394D01*
X142080472Y-136289815D01*
X142080471Y-136289814D01*
X142080467Y-136289809D01*
X142052905Y-136262247D01*
X142018879Y-136199935D01*
X142016000Y-136173152D01*
X142016000Y-133826847D01*
X142036002Y-133758726D01*
X142052901Y-133737755D01*
X142080472Y-133710185D01*
X142168478Y-133564606D01*
X142219086Y-133402196D01*
X142225500Y-133331616D01*
X142225500Y-133128911D01*
X142245502Y-133060790D01*
X142262405Y-133039816D01*
X143979316Y-131322905D01*
X144041628Y-131288879D01*
X144068411Y-131286000D01*
X146692501Y-131286000D01*
X146760622Y-131306002D01*
X146807115Y-131359658D01*
X146818501Y-131412000D01*
X146818501Y-131542864D01*
X146818502Y-131542885D01*
X146824908Y-131602480D01*
X146824908Y-131602481D01*
X146875201Y-131737326D01*
X146875203Y-131737329D01*
X146875204Y-131737331D01*
X146894552Y-131763176D01*
X146961453Y-131852546D01*
X146988754Y-131872983D01*
X147076669Y-131938796D01*
X147076671Y-131938796D01*
X147076673Y-131938798D01*
X147137030Y-131961309D01*
X147211514Y-131989090D01*
X147211517Y-131989091D01*
X147271127Y-131995500D01*
X149866872Y-131995499D01*
X149926483Y-131989091D01*
X150061331Y-131938796D01*
X150176546Y-131852546D01*
X150262796Y-131737331D01*
X150313091Y-131602483D01*
X150319500Y-131542873D01*
X150319499Y-130511230D01*
X152718500Y-130511230D01*
X152718500Y-130678769D01*
X152751185Y-130843085D01*
X152769964Y-130888420D01*
X152815297Y-130997863D01*
X152861835Y-131067512D01*
X152908373Y-131137161D01*
X152908378Y-131137167D01*
X153026832Y-131255621D01*
X153026838Y-131255626D01*
X153166137Y-131348703D01*
X153320918Y-131412816D01*
X153485233Y-131445500D01*
X153485234Y-131445500D01*
X153652766Y-131445500D01*
X153652767Y-131445500D01*
X153817082Y-131412816D01*
X153971863Y-131348703D01*
X154111162Y-131255626D01*
X154229626Y-131137162D01*
X154322703Y-130997863D01*
X154386816Y-130843082D01*
X154419500Y-130678767D01*
X154419500Y-130511233D01*
X154419499Y-130511230D01*
X155218500Y-130511230D01*
X155218500Y-130678769D01*
X155251185Y-130843085D01*
X155269964Y-130888420D01*
X155315297Y-130997863D01*
X155361835Y-131067512D01*
X155408373Y-131137161D01*
X155408378Y-131137167D01*
X155526832Y-131255621D01*
X155526838Y-131255626D01*
X155666137Y-131348703D01*
X155820918Y-131412816D01*
X155985233Y-131445500D01*
X155985234Y-131445500D01*
X156152766Y-131445500D01*
X156152767Y-131445500D01*
X156317082Y-131412816D01*
X156471863Y-131348703D01*
X156611162Y-131255626D01*
X156729626Y-131137162D01*
X156822703Y-130997863D01*
X156886816Y-130843082D01*
X156919500Y-130678767D01*
X156919500Y-130511233D01*
X156886816Y-130346918D01*
X156822703Y-130192137D01*
X156729626Y-130052838D01*
X156729621Y-130052832D01*
X156611167Y-129934378D01*
X156611161Y-129934373D01*
X156500855Y-129860669D01*
X156471863Y-129841297D01*
X156331705Y-129783241D01*
X156317085Y-129777185D01*
X156317083Y-129777184D01*
X156317082Y-129777184D01*
X156234368Y-129760731D01*
X156152769Y-129744500D01*
X156152767Y-129744500D01*
X155985233Y-129744500D01*
X155985230Y-129744500D01*
X155864063Y-129768602D01*
X155820918Y-129777184D01*
X155820917Y-129777184D01*
X155820914Y-129777185D01*
X155666135Y-129841298D01*
X155526838Y-129934373D01*
X155526832Y-129934378D01*
X155408378Y-130052832D01*
X155408373Y-130052838D01*
X155315298Y-130192135D01*
X155315297Y-130192137D01*
X155304263Y-130218776D01*
X155251185Y-130346914D01*
X155218500Y-130511230D01*
X154419499Y-130511230D01*
X154386816Y-130346918D01*
X154322703Y-130192137D01*
X154229626Y-130052838D01*
X154229621Y-130052832D01*
X154111167Y-129934378D01*
X154111161Y-129934373D01*
X154000855Y-129860669D01*
X153971863Y-129841297D01*
X153831705Y-129783241D01*
X153817085Y-129777185D01*
X153817083Y-129777184D01*
X153817082Y-129777184D01*
X153734368Y-129760731D01*
X153652769Y-129744500D01*
X153652767Y-129744500D01*
X153485233Y-129744500D01*
X153485230Y-129744500D01*
X153364063Y-129768602D01*
X153320918Y-129777184D01*
X153320917Y-129777184D01*
X153320914Y-129777185D01*
X153166135Y-129841298D01*
X153026838Y-129934373D01*
X153026832Y-129934378D01*
X152908378Y-130052832D01*
X152908373Y-130052838D01*
X152815298Y-130192135D01*
X152815297Y-130192137D01*
X152804263Y-130218776D01*
X152751185Y-130346914D01*
X152718500Y-130511230D01*
X150319499Y-130511230D01*
X150319499Y-129647128D01*
X150313091Y-129587517D01*
X150262796Y-129452669D01*
X150238721Y-129420509D01*
X150213909Y-129353992D01*
X150228999Y-129284618D01*
X150238716Y-129269497D01*
X150262796Y-129237331D01*
X150313091Y-129102483D01*
X150319500Y-129042873D01*
X150319499Y-127147128D01*
X150313091Y-127087517D01*
X150291800Y-127030435D01*
X150262798Y-126952673D01*
X150262796Y-126952670D01*
X150262796Y-126952669D01*
X150218566Y-126893585D01*
X150176546Y-126837453D01*
X150099591Y-126779845D01*
X150061331Y-126751204D01*
X150061329Y-126751203D01*
X150061326Y-126751201D01*
X149926483Y-126700909D01*
X149926486Y-126700909D01*
X149866878Y-126694500D01*
X147271135Y-126694500D01*
X147271114Y-126694502D01*
X147211519Y-126700908D01*
X147211518Y-126700908D01*
X147076673Y-126751201D01*
X147076670Y-126751203D01*
X146961453Y-126837453D01*
X146875203Y-126952670D01*
X146875201Y-126952673D01*
X146824909Y-127087515D01*
X146818500Y-127147121D01*
X146818500Y-129042864D01*
X146818502Y-129042885D01*
X146824908Y-129102480D01*
X146824908Y-129102481D01*
X146875203Y-129237330D01*
X146899278Y-129269491D01*
X146924089Y-129336011D01*
X146908998Y-129405385D01*
X146899278Y-129420509D01*
X146875203Y-129452669D01*
X146824909Y-129587515D01*
X146818500Y-129647121D01*
X146818500Y-129778000D01*
X146798498Y-129846121D01*
X146744842Y-129892614D01*
X146692500Y-129904000D01*
X143661939Y-129904000D01*
X143623136Y-129911718D01*
X143623137Y-129911719D01*
X143528442Y-129930555D01*
X143528439Y-129930556D01*
X143402688Y-129982644D01*
X143289518Y-130058262D01*
X143289511Y-130058267D01*
X141360183Y-131987595D01*
X141297871Y-132021621D01*
X141271088Y-132024500D01*
X141068384Y-132024500D01*
X141050747Y-132026102D01*
X140997806Y-132030913D01*
X140835397Y-132081520D01*
X140835396Y-132081521D01*
X140689814Y-132169528D01*
X140689809Y-132169532D01*
X140589095Y-132270247D01*
X140526783Y-132304273D01*
X140455968Y-132299208D01*
X140410905Y-132270247D01*
X140310190Y-132169532D01*
X140310185Y-132169528D01*
X140299820Y-132163262D01*
X140164606Y-132081522D01*
X140164603Y-132081521D01*
X140164602Y-132081520D01*
X140002193Y-132030913D01*
X139950855Y-132026248D01*
X139931616Y-132024500D01*
X139418384Y-132024500D01*
X139400747Y-132026102D01*
X139347806Y-132030913D01*
X139185397Y-132081520D01*
X139185396Y-132081521D01*
X139039814Y-132169528D01*
X139039809Y-132169532D01*
X138937247Y-132272095D01*
X138874935Y-132306121D01*
X138848152Y-132309000D01*
X138034893Y-132309000D01*
X137966772Y-132288998D01*
X137920279Y-132235342D01*
X137915293Y-132222647D01*
X137884814Y-132130666D01*
X137792712Y-131981344D01*
X137792711Y-131981343D01*
X137792706Y-131981337D01*
X137668662Y-131857293D01*
X137668656Y-131857288D01*
X137519334Y-131765185D01*
X137352803Y-131710002D01*
X137352791Y-131710000D01*
X137250017Y-131699500D01*
X134149990Y-131699500D01*
X134047202Y-131710000D01*
X133880665Y-131765185D01*
X133731343Y-131857288D01*
X133731337Y-131857293D01*
X133607293Y-131981337D01*
X133607288Y-131981343D01*
X133515185Y-132130665D01*
X133460002Y-132297196D01*
X133460000Y-132297208D01*
X133449500Y-132399982D01*
X132550498Y-132399982D01*
X132539999Y-132297203D01*
X132522300Y-132243789D01*
X132484814Y-132130665D01*
X132401443Y-131995499D01*
X132392712Y-131981344D01*
X132392711Y-131981343D01*
X132392706Y-131981337D01*
X132268662Y-131857293D01*
X132268656Y-131857288D01*
X132119334Y-131765185D01*
X131952803Y-131710002D01*
X131952791Y-131710000D01*
X131850017Y-131699500D01*
X131850009Y-131699500D01*
X131117000Y-131699500D01*
X131048879Y-131679498D01*
X131002386Y-131625842D01*
X130991000Y-131573500D01*
X130991000Y-128862415D01*
X130990999Y-128862412D01*
X130965769Y-128735573D01*
X130965769Y-128735571D01*
X130964445Y-128728917D01*
X130947529Y-128688078D01*
X130912356Y-128603162D01*
X130836735Y-128489987D01*
X123352710Y-121005962D01*
X123303997Y-120973413D01*
X123258470Y-120918935D01*
X123248000Y-120868648D01*
X123248000Y-120652003D01*
X123245098Y-120615129D01*
X123245098Y-120615128D01*
X123199244Y-120457299D01*
X123146489Y-120368094D01*
X123115582Y-120315833D01*
X123115576Y-120315826D01*
X122999370Y-120199620D01*
X122999363Y-120199614D01*
X122857901Y-120115954D01*
X122845847Y-120112452D01*
X122833712Y-120108926D01*
X122700068Y-120070098D01*
X122666095Y-120067425D01*
X122663194Y-120067197D01*
X122231806Y-120067197D01*
X122228905Y-120067425D01*
X122194932Y-120070098D01*
X122194931Y-120070098D01*
X122037098Y-120115954D01*
X121895634Y-120199616D01*
X121889719Y-120204204D01*
X121823632Y-120230146D01*
X121754011Y-120216241D01*
X121735281Y-120204204D01*
X121729365Y-120199616D01*
X121587901Y-120115954D01*
X121575847Y-120112452D01*
X121563712Y-120108926D01*
X121430068Y-120070098D01*
X121396095Y-120067425D01*
X121393194Y-120067197D01*
X120962896Y-120067197D01*
X120894775Y-120047195D01*
X120848282Y-119993539D01*
X120838178Y-119923265D01*
X120855655Y-119875050D01*
X120874073Y-119845190D01*
X120912003Y-119783697D01*
X120965349Y-119622708D01*
X120975500Y-119523345D01*
X120975499Y-118976656D01*
X120965349Y-118877292D01*
X120912003Y-118716303D01*
X120822968Y-118571956D01*
X120822967Y-118571955D01*
X120822962Y-118571949D01*
X120703050Y-118452037D01*
X120703044Y-118452032D01*
X120558697Y-118362997D01*
X120397708Y-118309651D01*
X120397704Y-118309650D01*
X120397702Y-118309650D01*
X120298353Y-118299500D01*
X119701654Y-118299500D01*
X119602295Y-118309650D01*
X119441303Y-118362997D01*
X119296955Y-118452032D01*
X119296949Y-118452037D01*
X119177037Y-118571949D01*
X119177032Y-118571955D01*
X119087997Y-118716302D01*
X119034651Y-118877293D01*
X119034650Y-118877297D01*
X119024500Y-118976646D01*
X119024500Y-119523345D01*
X119034650Y-119622704D01*
X119034650Y-119622706D01*
X119034651Y-119622708D01*
X119087997Y-119783697D01*
X119177032Y-119928044D01*
X119179591Y-119930603D01*
X119180786Y-119932792D01*
X119181585Y-119933802D01*
X119181412Y-119933938D01*
X119213619Y-119992911D01*
X119216500Y-120019702D01*
X119216500Y-120320115D01*
X119198954Y-120384253D01*
X119155756Y-120457296D01*
X119109901Y-120615128D01*
X119109901Y-120615129D01*
X119107000Y-120652003D01*
X119107000Y-122433390D01*
X119109901Y-122470264D01*
X119109901Y-122470265D01*
X119155756Y-122628096D01*
X119198953Y-122701136D01*
X119216500Y-122765276D01*
X119216500Y-122875558D01*
X119227716Y-122931942D01*
X119243055Y-123009057D01*
X119271082Y-123076721D01*
X119288420Y-123118577D01*
X119296009Y-123189166D01*
X119264230Y-123252653D01*
X119203172Y-123288881D01*
X119132221Y-123286347D01*
X119082916Y-123255890D01*
X118204905Y-122377879D01*
X118170879Y-122315567D01*
X118168000Y-122288784D01*
X118168000Y-120652003D01*
X118165098Y-120615129D01*
X118165098Y-120615128D01*
X118134913Y-120511233D01*
X118119244Y-120457299D01*
X118119243Y-120457298D01*
X118119243Y-120457296D01*
X118076046Y-120384253D01*
X118071625Y-120368094D01*
X118063604Y-120355613D01*
X118058500Y-120320115D01*
X118058500Y-120069702D01*
X118078502Y-120001581D01*
X118095401Y-119980610D01*
X118122968Y-119953044D01*
X118212003Y-119808697D01*
X118265349Y-119647708D01*
X118275500Y-119548345D01*
X118275499Y-119001656D01*
X118265349Y-118902292D01*
X118212003Y-118741303D01*
X118122968Y-118596956D01*
X118122967Y-118596955D01*
X118122962Y-118596949D01*
X118003050Y-118477037D01*
X118003044Y-118477032D01*
X117858697Y-118387997D01*
X117811498Y-118372357D01*
X117697708Y-118334651D01*
X117697704Y-118334650D01*
X117697702Y-118334650D01*
X117598353Y-118324500D01*
X117001653Y-118324500D01*
X116927303Y-118332095D01*
X116857502Y-118319118D01*
X116805798Y-118270464D01*
X116788500Y-118206747D01*
X116788500Y-117164347D01*
X116808502Y-117096226D01*
X116825405Y-117075252D01*
X117172752Y-116727905D01*
X117235064Y-116693879D01*
X117261847Y-116691000D01*
X120761588Y-116691000D01*
X120829709Y-116711002D01*
X120850683Y-116727905D01*
X124314914Y-120192135D01*
X127659514Y-123536735D01*
X127728006Y-123582500D01*
X127772689Y-123612356D01*
X127898443Y-123664445D01*
X127985848Y-123681831D01*
X128048757Y-123714739D01*
X128080870Y-123765777D01*
X128115185Y-123869334D01*
X128207288Y-124018656D01*
X128207293Y-124018662D01*
X128331337Y-124142706D01*
X128331343Y-124142711D01*
X128331344Y-124142712D01*
X128388563Y-124178004D01*
X128480665Y-124234814D01*
X128647196Y-124289997D01*
X128647197Y-124289997D01*
X128647203Y-124289999D01*
X128749991Y-124300500D01*
X131850008Y-124300499D01*
X131850009Y-124300499D01*
X131952797Y-124289999D01*
X132119334Y-124234814D01*
X132268656Y-124142712D01*
X132392712Y-124018656D01*
X132484814Y-123869334D01*
X132539999Y-123702797D01*
X132550500Y-123600009D01*
X132550499Y-122399992D01*
X132550498Y-122399982D01*
X133449500Y-122399982D01*
X133449500Y-123600009D01*
X133460000Y-123702797D01*
X133515185Y-123869334D01*
X133607288Y-124018656D01*
X133607293Y-124018662D01*
X133731337Y-124142706D01*
X133731343Y-124142711D01*
X133731344Y-124142712D01*
X133788563Y-124178004D01*
X133880665Y-124234814D01*
X134047196Y-124289997D01*
X134047197Y-124289997D01*
X134047203Y-124289999D01*
X134149991Y-124300500D01*
X137250008Y-124300499D01*
X137250009Y-124300499D01*
X137352797Y-124289999D01*
X137519334Y-124234814D01*
X137668656Y-124142712D01*
X137792712Y-124018656D01*
X137884814Y-123869334D01*
X137915289Y-123777364D01*
X137955702Y-123718996D01*
X138021259Y-123691740D01*
X138034893Y-123691000D01*
X138848152Y-123691000D01*
X138916273Y-123711002D01*
X138937247Y-123727905D01*
X139039809Y-123830467D01*
X139039813Y-123830470D01*
X139039815Y-123830472D01*
X139185394Y-123918478D01*
X139347804Y-123969086D01*
X139418384Y-123975500D01*
X139418387Y-123975500D01*
X139931613Y-123975500D01*
X139931616Y-123975500D01*
X140002196Y-123969086D01*
X140164606Y-123918478D01*
X140310185Y-123830472D01*
X140410906Y-123729750D01*
X140418978Y-123725343D01*
X140424491Y-123717979D01*
X140449649Y-123708595D01*
X140473216Y-123695727D01*
X140482391Y-123696383D01*
X140491011Y-123693168D01*
X140517250Y-123698875D01*
X140544032Y-123700791D01*
X140553230Y-123706702D01*
X140560385Y-123708259D01*
X140589095Y-123729752D01*
X140597095Y-123737752D01*
X140631121Y-123800064D01*
X140634000Y-123826847D01*
X140634000Y-126173152D01*
X140613998Y-126241273D01*
X140597095Y-126262247D01*
X140569532Y-126289809D01*
X140569528Y-126289814D01*
X140481521Y-126435396D01*
X140481520Y-126435397D01*
X140430913Y-126597806D01*
X140424500Y-126668386D01*
X140424500Y-127331613D01*
X140430913Y-127402193D01*
X140481520Y-127564602D01*
X140481521Y-127564603D01*
X140481522Y-127564606D01*
X140491641Y-127581344D01*
X140569528Y-127710185D01*
X140569532Y-127710190D01*
X140689809Y-127830467D01*
X140689814Y-127830471D01*
X140689815Y-127830472D01*
X140835394Y-127918478D01*
X140997804Y-127969086D01*
X141068384Y-127975500D01*
X141068387Y-127975500D01*
X141581613Y-127975500D01*
X141581616Y-127975500D01*
X141652196Y-127969086D01*
X141814606Y-127918478D01*
X141960185Y-127830472D01*
X142080472Y-127710185D01*
X142168478Y-127564606D01*
X142219086Y-127402196D01*
X142225500Y-127331616D01*
X142225500Y-126668384D01*
X142219086Y-126597804D01*
X142168478Y-126435394D01*
X142080472Y-126289815D01*
X142080471Y-126289814D01*
X142080467Y-126289809D01*
X142052905Y-126262247D01*
X142018879Y-126199935D01*
X142016000Y-126173152D01*
X142016000Y-125511230D01*
X147718500Y-125511230D01*
X147718500Y-125511233D01*
X147718500Y-125678767D01*
X147751184Y-125843082D01*
X147815297Y-125997863D01*
X147815298Y-125997864D01*
X147908373Y-126137161D01*
X147908378Y-126137167D01*
X148026832Y-126255621D01*
X148026838Y-126255626D01*
X148166137Y-126348703D01*
X148294357Y-126401814D01*
X148320915Y-126412815D01*
X148320916Y-126412815D01*
X148320918Y-126412816D01*
X148485233Y-126445500D01*
X148652767Y-126445500D01*
X148817082Y-126412816D01*
X148971863Y-126348703D01*
X149111162Y-126255626D01*
X149229626Y-126137162D01*
X149322703Y-125997863D01*
X149386816Y-125843082D01*
X149419500Y-125678767D01*
X149419500Y-125511233D01*
X149386816Y-125346918D01*
X149322703Y-125192137D01*
X149229626Y-125052838D01*
X149229621Y-125052832D01*
X149111167Y-124934378D01*
X149111161Y-124934373D01*
X149018201Y-124872259D01*
X148971863Y-124841297D01*
X148817082Y-124777184D01*
X148724963Y-124758860D01*
X148667846Y-124747499D01*
X148667844Y-124747499D01*
X148652767Y-124744500D01*
X148485233Y-124744500D01*
X148470156Y-124747499D01*
X148470152Y-124747499D01*
X148372157Y-124766991D01*
X148320918Y-124777184D01*
X148320916Y-124777184D01*
X148320915Y-124777185D01*
X148166135Y-124841298D01*
X148026838Y-124934373D01*
X148026832Y-124934378D01*
X147908378Y-125052832D01*
X147908373Y-125052838D01*
X147815298Y-125192135D01*
X147751185Y-125346914D01*
X147718500Y-125511230D01*
X142016000Y-125511230D01*
X142016000Y-123826847D01*
X142036002Y-123758726D01*
X142052901Y-123737755D01*
X142080472Y-123710185D01*
X142168478Y-123564606D01*
X142219086Y-123402196D01*
X142225500Y-123331616D01*
X142225500Y-123128911D01*
X142245502Y-123060790D01*
X142262405Y-123039816D01*
X143979316Y-121322905D01*
X144041628Y-121288879D01*
X144068411Y-121286000D01*
X146692501Y-121286000D01*
X146760622Y-121306002D01*
X146807115Y-121359658D01*
X146818501Y-121412000D01*
X146818501Y-121542864D01*
X146818502Y-121542885D01*
X146824908Y-121602480D01*
X146824908Y-121602481D01*
X146875203Y-121737330D01*
X146899278Y-121769491D01*
X146924089Y-121836011D01*
X146908998Y-121905385D01*
X146899278Y-121920509D01*
X146875203Y-121952669D01*
X146824909Y-122087515D01*
X146818500Y-122147121D01*
X146818500Y-124042864D01*
X146818502Y-124042885D01*
X146824908Y-124102480D01*
X146824908Y-124102481D01*
X146875201Y-124237326D01*
X146875203Y-124237329D01*
X146961453Y-124352546D01*
X147019061Y-124395671D01*
X147076669Y-124438796D01*
X147076671Y-124438796D01*
X147076673Y-124438798D01*
X147137030Y-124461309D01*
X147211514Y-124489090D01*
X147211517Y-124489091D01*
X147271127Y-124495500D01*
X149866872Y-124495499D01*
X149926483Y-124489091D01*
X150061331Y-124438796D01*
X150176546Y-124352546D01*
X150218575Y-124296402D01*
X152161000Y-124296402D01*
X152161000Y-125341000D01*
X153169000Y-125341000D01*
X153169000Y-125849000D01*
X152161000Y-125849000D01*
X152161000Y-126893597D01*
X152167505Y-126954093D01*
X152218555Y-127090964D01*
X152218555Y-127090965D01*
X152306095Y-127207904D01*
X152423034Y-127295444D01*
X152559906Y-127346494D01*
X152620402Y-127352999D01*
X152620415Y-127353000D01*
X153315000Y-127353000D01*
X153315000Y-126256686D01*
X153323394Y-126265080D01*
X153414606Y-126317741D01*
X153516339Y-126345000D01*
X153621661Y-126345000D01*
X153723394Y-126317741D01*
X153814606Y-126265080D01*
X153823000Y-126256686D01*
X153823000Y-127353000D01*
X154517585Y-127353000D01*
X154517597Y-127352999D01*
X154578093Y-127346494D01*
X154714964Y-127295444D01*
X154714965Y-127295444D01*
X154831904Y-127207904D01*
X154919444Y-127090965D01*
X154919444Y-127090964D01*
X154970494Y-126954093D01*
X154976999Y-126893597D01*
X154977000Y-126893585D01*
X154977000Y-125849000D01*
X153969000Y-125849000D01*
X153969000Y-125341000D01*
X154977000Y-125341000D01*
X154977000Y-124296414D01*
X154976999Y-124296402D01*
X154970494Y-124235906D01*
X154919444Y-124099035D01*
X154919444Y-124099034D01*
X154831904Y-123982095D01*
X154714965Y-123894555D01*
X154578093Y-123843505D01*
X154517597Y-123837000D01*
X153823000Y-123837000D01*
X153823000Y-124933314D01*
X153814606Y-124924920D01*
X153723394Y-124872259D01*
X153621661Y-124845000D01*
X153516339Y-124845000D01*
X153414606Y-124872259D01*
X153323394Y-124924920D01*
X153315000Y-124933314D01*
X153315000Y-123837000D01*
X152620402Y-123837000D01*
X152559906Y-123843505D01*
X152423035Y-123894555D01*
X152423034Y-123894555D01*
X152306095Y-123982095D01*
X152218555Y-124099034D01*
X152218555Y-124099035D01*
X152167505Y-124235906D01*
X152161000Y-124296402D01*
X150218575Y-124296402D01*
X150262796Y-124237331D01*
X150313091Y-124102483D01*
X150319500Y-124042873D01*
X150319499Y-122147128D01*
X150313091Y-122087517D01*
X150262796Y-121952669D01*
X150238721Y-121920509D01*
X150213909Y-121853992D01*
X150228999Y-121784618D01*
X150238716Y-121769497D01*
X150262796Y-121737331D01*
X150313091Y-121602483D01*
X150319500Y-121542873D01*
X150319499Y-120511230D01*
X152718500Y-120511230D01*
X152718500Y-120511233D01*
X152718500Y-120678767D01*
X152751184Y-120843082D01*
X152815297Y-120997863D01*
X152815298Y-120997864D01*
X152908373Y-121137161D01*
X152908378Y-121137167D01*
X153026832Y-121255621D01*
X153026838Y-121255626D01*
X153166137Y-121348703D01*
X153320918Y-121412816D01*
X153485233Y-121445500D01*
X153485234Y-121445500D01*
X153652766Y-121445500D01*
X153652767Y-121445500D01*
X153817082Y-121412816D01*
X153971863Y-121348703D01*
X154111162Y-121255626D01*
X154229626Y-121137162D01*
X154322703Y-120997863D01*
X154386816Y-120843082D01*
X154419500Y-120678767D01*
X154419500Y-120511233D01*
X154419499Y-120511230D01*
X155218500Y-120511230D01*
X155218500Y-120511233D01*
X155218500Y-120678767D01*
X155251184Y-120843082D01*
X155315297Y-120997863D01*
X155315298Y-120997864D01*
X155408373Y-121137161D01*
X155408378Y-121137167D01*
X155526832Y-121255621D01*
X155526838Y-121255626D01*
X155666137Y-121348703D01*
X155820918Y-121412816D01*
X155985233Y-121445500D01*
X155985234Y-121445500D01*
X156152766Y-121445500D01*
X156152767Y-121445500D01*
X156317082Y-121412816D01*
X156471863Y-121348703D01*
X156611162Y-121255626D01*
X156729626Y-121137162D01*
X156822703Y-120997863D01*
X156886816Y-120843082D01*
X156919500Y-120678767D01*
X156919500Y-120511233D01*
X156886816Y-120346918D01*
X156822703Y-120192137D01*
X156729626Y-120052838D01*
X156729621Y-120052832D01*
X156611167Y-119934378D01*
X156611161Y-119934373D01*
X156522378Y-119875050D01*
X156471863Y-119841297D01*
X156332806Y-119783697D01*
X156317085Y-119777185D01*
X156317083Y-119777184D01*
X156317082Y-119777184D01*
X156234368Y-119760731D01*
X156152769Y-119744500D01*
X156152767Y-119744500D01*
X155985233Y-119744500D01*
X155985230Y-119744500D01*
X155862830Y-119768847D01*
X155820918Y-119777184D01*
X155820917Y-119777184D01*
X155820914Y-119777185D01*
X155666135Y-119841298D01*
X155526838Y-119934373D01*
X155526832Y-119934378D01*
X155408378Y-120052832D01*
X155408373Y-120052838D01*
X155315298Y-120192135D01*
X155315297Y-120192137D01*
X155310299Y-120204204D01*
X155251185Y-120346914D01*
X155251184Y-120346917D01*
X155251184Y-120346918D01*
X155246972Y-120368094D01*
X155218500Y-120511230D01*
X154419499Y-120511230D01*
X154386816Y-120346918D01*
X154322703Y-120192137D01*
X154229626Y-120052838D01*
X154229621Y-120052832D01*
X154111167Y-119934378D01*
X154111161Y-119934373D01*
X154022378Y-119875050D01*
X153971863Y-119841297D01*
X153832806Y-119783697D01*
X153817085Y-119777185D01*
X153817083Y-119777184D01*
X153817082Y-119777184D01*
X153734368Y-119760731D01*
X153652769Y-119744500D01*
X153652767Y-119744500D01*
X153485233Y-119744500D01*
X153485230Y-119744500D01*
X153362830Y-119768847D01*
X153320918Y-119777184D01*
X153320917Y-119777184D01*
X153320914Y-119777185D01*
X153166135Y-119841298D01*
X153026838Y-119934373D01*
X153026832Y-119934378D01*
X152908378Y-120052832D01*
X152908373Y-120052838D01*
X152815298Y-120192135D01*
X152815297Y-120192137D01*
X152810299Y-120204204D01*
X152751185Y-120346914D01*
X152751184Y-120346917D01*
X152751184Y-120346918D01*
X152746972Y-120368094D01*
X152718500Y-120511230D01*
X150319499Y-120511230D01*
X150319499Y-119647128D01*
X150313091Y-119587517D01*
X150266748Y-119463264D01*
X150262798Y-119452673D01*
X150262796Y-119452670D01*
X150262796Y-119452669D01*
X150214118Y-119387644D01*
X150176546Y-119337453D01*
X150083376Y-119267707D01*
X150061331Y-119251204D01*
X150061329Y-119251203D01*
X150061326Y-119251201D01*
X149926483Y-119200909D01*
X149926486Y-119200909D01*
X149866873Y-119194500D01*
X147271135Y-119194500D01*
X147271114Y-119194502D01*
X147211519Y-119200908D01*
X147211518Y-119200908D01*
X147076673Y-119251201D01*
X147076670Y-119251203D01*
X146961453Y-119337453D01*
X146875203Y-119452670D01*
X146875201Y-119452673D01*
X146824909Y-119587515D01*
X146818500Y-119647121D01*
X146818500Y-119778000D01*
X146798498Y-119846121D01*
X146744842Y-119892614D01*
X146692500Y-119904000D01*
X143661938Y-119904000D01*
X143528442Y-119930555D01*
X143528439Y-119930556D01*
X143402688Y-119982644D01*
X143289518Y-120058262D01*
X143289511Y-120058267D01*
X141360183Y-121987595D01*
X141297871Y-122021621D01*
X141271088Y-122024500D01*
X141068384Y-122024500D01*
X141050747Y-122026102D01*
X140997806Y-122030913D01*
X140835397Y-122081520D01*
X140835396Y-122081521D01*
X140835394Y-122081521D01*
X140835394Y-122081522D01*
X140825477Y-122087517D01*
X140689814Y-122169528D01*
X140689809Y-122169532D01*
X140589095Y-122270247D01*
X140526783Y-122304273D01*
X140455968Y-122299208D01*
X140410905Y-122270247D01*
X140310190Y-122169532D01*
X140310185Y-122169528D01*
X140164606Y-122081522D01*
X140164603Y-122081521D01*
X140164602Y-122081520D01*
X140002193Y-122030913D01*
X139950855Y-122026248D01*
X139931616Y-122024500D01*
X139418384Y-122024500D01*
X139400747Y-122026102D01*
X139347806Y-122030913D01*
X139185397Y-122081520D01*
X139185396Y-122081521D01*
X139185394Y-122081521D01*
X139185394Y-122081522D01*
X139175477Y-122087517D01*
X139039814Y-122169528D01*
X139039809Y-122169532D01*
X138937247Y-122272095D01*
X138874935Y-122306121D01*
X138848152Y-122309000D01*
X138034893Y-122309000D01*
X137966772Y-122288998D01*
X137920279Y-122235342D01*
X137915293Y-122222647D01*
X137884814Y-122130666D01*
X137792712Y-121981344D01*
X137792711Y-121981343D01*
X137792706Y-121981337D01*
X137668662Y-121857293D01*
X137668656Y-121857288D01*
X137519334Y-121765185D01*
X137352803Y-121710002D01*
X137352791Y-121710000D01*
X137250017Y-121699500D01*
X134149990Y-121699500D01*
X134047202Y-121710000D01*
X133880665Y-121765185D01*
X133731343Y-121857288D01*
X133731337Y-121857293D01*
X133607293Y-121981337D01*
X133607288Y-121981343D01*
X133515185Y-122130665D01*
X133460002Y-122297196D01*
X133460000Y-122297208D01*
X133449500Y-122399982D01*
X132550498Y-122399982D01*
X132549717Y-122392340D01*
X132539999Y-122297202D01*
X132484814Y-122130665D01*
X132414644Y-122016902D01*
X132392712Y-121981344D01*
X132392711Y-121981343D01*
X132392706Y-121981337D01*
X132268662Y-121857293D01*
X132268656Y-121857288D01*
X132119334Y-121765185D01*
X131952803Y-121710002D01*
X131952791Y-121710000D01*
X131850017Y-121699500D01*
X128749990Y-121699500D01*
X128647202Y-121710000D01*
X128480665Y-121765185D01*
X128331343Y-121857288D01*
X128222021Y-121966610D01*
X128159709Y-122000635D01*
X128088893Y-121995569D01*
X128043831Y-121966609D01*
X121792817Y-115715595D01*
X121758791Y-115653283D01*
X121763856Y-115582468D01*
X121806403Y-115525632D01*
X121872923Y-115500821D01*
X121881912Y-115500500D01*
X154434108Y-115500500D01*
X154497404Y-115500500D01*
X154502611Y-115500608D01*
G37*
%TD.AperFunction*%
%TA.AperFunction,Conductor*%
G36*
X116209645Y-115520502D02*
G01*
X116256138Y-115574158D01*
X116266242Y-115644432D01*
X116236748Y-115709012D01*
X116230619Y-115715596D01*
X115560767Y-116385446D01*
X115560766Y-116385447D01*
X115485144Y-116498624D01*
X115433056Y-116624375D01*
X115433055Y-116624378D01*
X115406500Y-116757874D01*
X115406500Y-119183000D01*
X115386498Y-119251121D01*
X115332842Y-119297614D01*
X115280500Y-119309000D01*
X114931938Y-119309000D01*
X114834127Y-119328456D01*
X114834127Y-119328457D01*
X114798443Y-119335555D01*
X114798441Y-119335556D01*
X114798437Y-119335557D01*
X114672688Y-119387644D01*
X114559515Y-119463264D01*
X114559507Y-119463270D01*
X114290769Y-119732008D01*
X114290764Y-119732014D01*
X114239527Y-119808695D01*
X114239528Y-119808696D01*
X114215143Y-119845190D01*
X114163056Y-119970939D01*
X114163055Y-119970942D01*
X114136500Y-120104438D01*
X114136500Y-120320115D01*
X114118954Y-120384253D01*
X114075756Y-120457296D01*
X114029901Y-120615128D01*
X114029901Y-120615129D01*
X114027000Y-120652003D01*
X114027000Y-122433390D01*
X114029901Y-122470264D01*
X114029901Y-122470265D01*
X114075757Y-122628098D01*
X114075758Y-122628101D01*
X114075915Y-122628366D01*
X114075974Y-122628600D01*
X114078905Y-122635373D01*
X114077812Y-122635845D01*
X114093372Y-122697183D01*
X114070852Y-122764513D01*
X114015506Y-122808980D01*
X113967459Y-122818500D01*
X107713175Y-122818500D01*
X107579922Y-122845006D01*
X107579922Y-122845007D01*
X107570660Y-122846849D01*
X107542873Y-122852376D01*
X107542872Y-122852377D01*
X107382452Y-122918825D01*
X107247413Y-123009056D01*
X107247412Y-123009057D01*
X107238075Y-123015295D01*
X107238071Y-123015298D01*
X101565292Y-128688078D01*
X98965300Y-131288068D01*
X98965295Y-131288074D01*
X98895148Y-131393058D01*
X98868825Y-131432452D01*
X98802377Y-131592872D01*
X98802376Y-131592875D01*
X98768500Y-131763176D01*
X98768500Y-138942500D01*
X98748498Y-139010621D01*
X98694842Y-139057114D01*
X98642500Y-139068500D01*
X79937175Y-139068500D01*
X79828696Y-139090079D01*
X79804114Y-139092500D01*
X63859175Y-139092500D01*
X63688875Y-139126376D01*
X63688872Y-139126377D01*
X63528453Y-139192825D01*
X63384080Y-139289292D01*
X63384078Y-139289293D01*
X62600774Y-140072596D01*
X62538462Y-140106621D01*
X62511679Y-140109500D01*
X62353713Y-140109500D01*
X62143757Y-140142754D01*
X62143754Y-140142754D01*
X62143753Y-140142755D01*
X61941588Y-140208443D01*
X61941586Y-140208444D01*
X61752180Y-140304951D01*
X61580205Y-140429898D01*
X61580202Y-140429900D01*
X61429900Y-140580202D01*
X61429898Y-140580205D01*
X61304951Y-140752180D01*
X61208444Y-140941586D01*
X61208443Y-140941588D01*
X61156227Y-141102293D01*
X61142754Y-141143757D01*
X61109500Y-141353713D01*
X61109500Y-141566287D01*
X61142754Y-141776243D01*
X61208443Y-141978412D01*
X61304949Y-142167816D01*
X61304951Y-142167819D01*
X61346247Y-142224658D01*
X61429896Y-142339792D01*
X61541596Y-142451492D01*
X61575620Y-142513802D01*
X61578500Y-142540586D01*
X61578500Y-142919413D01*
X61558498Y-142987534D01*
X61541595Y-143008508D01*
X61429900Y-143120202D01*
X61429898Y-143120205D01*
X61304951Y-143292180D01*
X61208444Y-143481586D01*
X61208443Y-143481588D01*
X61145532Y-143675208D01*
X61142754Y-143683757D01*
X61109500Y-143893713D01*
X61109500Y-144106287D01*
X61142754Y-144316243D01*
X61208443Y-144518412D01*
X61304949Y-144707816D01*
X61304951Y-144707819D01*
X61384275Y-144817000D01*
X61429896Y-144879792D01*
X61541596Y-144991492D01*
X61575620Y-145053802D01*
X61578500Y-145080586D01*
X61578500Y-145459413D01*
X61558498Y-145527534D01*
X61541595Y-145548508D01*
X61429900Y-145660202D01*
X61429898Y-145660205D01*
X61304951Y-145832180D01*
X61227907Y-145983387D01*
X61208443Y-146021588D01*
X61142754Y-146223757D01*
X61109500Y-146433713D01*
X61109500Y-146646287D01*
X61142754Y-146856243D01*
X61208443Y-147058412D01*
X61304949Y-147247816D01*
X61304951Y-147247819D01*
X61342868Y-147300008D01*
X61429896Y-147419792D01*
X61541596Y-147531492D01*
X61575620Y-147593802D01*
X61578500Y-147620586D01*
X61578500Y-147999413D01*
X61558498Y-148067534D01*
X61541595Y-148088508D01*
X61429900Y-148200202D01*
X61429898Y-148200205D01*
X61304951Y-148372180D01*
X61208444Y-148561586D01*
X61208443Y-148561588D01*
X61143459Y-148761588D01*
X61142754Y-148763757D01*
X61109500Y-148973713D01*
X61109500Y-149186287D01*
X61142754Y-149396243D01*
X61208443Y-149598412D01*
X61304949Y-149787816D01*
X61429896Y-149959792D01*
X61541596Y-150071492D01*
X61575620Y-150133802D01*
X61578500Y-150160586D01*
X61578500Y-150539413D01*
X61558498Y-150607534D01*
X61541595Y-150628508D01*
X61429900Y-150740202D01*
X61429898Y-150740205D01*
X61304951Y-150912180D01*
X61208444Y-151101586D01*
X61208443Y-151101588D01*
X61150039Y-151281337D01*
X61142754Y-151303757D01*
X61109500Y-151513713D01*
X61109500Y-151726287D01*
X61142754Y-151936243D01*
X61208443Y-152138412D01*
X61304949Y-152327816D01*
X61304951Y-152327819D01*
X61359059Y-152402293D01*
X61429896Y-152499792D01*
X61541596Y-152611492D01*
X61575620Y-152673802D01*
X61578500Y-152700586D01*
X61578500Y-153079413D01*
X61558498Y-153147534D01*
X61541595Y-153168508D01*
X61429900Y-153280202D01*
X61429898Y-153280205D01*
X61304951Y-153452180D01*
X61208444Y-153641586D01*
X61208443Y-153641588D01*
X61143094Y-153842712D01*
X61142754Y-153843757D01*
X61109500Y-154053713D01*
X61109500Y-154266287D01*
X61142754Y-154476243D01*
X61208443Y-154678412D01*
X61304949Y-154867816D01*
X61429896Y-155039792D01*
X61429898Y-155039794D01*
X61429900Y-155039797D01*
X61580202Y-155190099D01*
X61580205Y-155190101D01*
X61580208Y-155190104D01*
X61752184Y-155315051D01*
X61941588Y-155411557D01*
X62143757Y-155477246D01*
X62353713Y-155510500D01*
X62353716Y-155510500D01*
X62566284Y-155510500D01*
X62566287Y-155510500D01*
X62776243Y-155477246D01*
X62978412Y-155411557D01*
X63167816Y-155315051D01*
X63339792Y-155190104D01*
X63451127Y-155078768D01*
X63513437Y-155044745D01*
X63584253Y-155049809D01*
X63641089Y-155092356D01*
X63658277Y-155123833D01*
X63706202Y-155252328D01*
X63706203Y-155252329D01*
X63792453Y-155367546D01*
X63835795Y-155399991D01*
X63907669Y-155453796D01*
X63907671Y-155453796D01*
X63907673Y-155453798D01*
X63968030Y-155476309D01*
X64042514Y-155504090D01*
X64042517Y-155504091D01*
X64102127Y-155510500D01*
X65897872Y-155510499D01*
X65957483Y-155504091D01*
X66092331Y-155453796D01*
X66207546Y-155367546D01*
X66293796Y-155252331D01*
X66344091Y-155117483D01*
X66350500Y-155057873D01*
X66350500Y-154817000D01*
X66370502Y-154748879D01*
X66424158Y-154702386D01*
X66476500Y-154691000D01*
X66874000Y-154691000D01*
X66942121Y-154711002D01*
X66988614Y-154764658D01*
X67000000Y-154817000D01*
X67000000Y-155000000D01*
X71436075Y-155000000D01*
X71504196Y-155020002D01*
X71550689Y-155073658D01*
X71552476Y-155077765D01*
X71562644Y-155102311D01*
X71638265Y-155215487D01*
X71638268Y-155215490D01*
X71638269Y-155215491D01*
X72159506Y-155736728D01*
X72159509Y-155736730D01*
X72159514Y-155736735D01*
X72193604Y-155759513D01*
X72272689Y-155812356D01*
X72398443Y-155864445D01*
X72531942Y-155891000D01*
X75381610Y-155891000D01*
X75515109Y-155864445D01*
X75640863Y-155812356D01*
X75661832Y-155798345D01*
X75754039Y-155736735D01*
X76453870Y-155036903D01*
X76516181Y-155002880D01*
X76542964Y-155000000D01*
X79358500Y-155000000D01*
X79426621Y-155020002D01*
X79473114Y-155073658D01*
X79484500Y-155126000D01*
X79484500Y-155940693D01*
X79487401Y-155977567D01*
X79487401Y-155977568D01*
X79533257Y-156135401D01*
X79616917Y-156276863D01*
X79616923Y-156276870D01*
X79733129Y-156393076D01*
X79733136Y-156393082D01*
X79874598Y-156476742D01*
X79874599Y-156476742D01*
X79874602Y-156476744D01*
X80032431Y-156522598D01*
X80069306Y-156525500D01*
X80069307Y-156525500D01*
X80500693Y-156525500D01*
X80500694Y-156525500D01*
X80537569Y-156522598D01*
X80695398Y-156476744D01*
X80695401Y-156476741D01*
X80702846Y-156474579D01*
X80773843Y-156474782D01*
X80833459Y-156513335D01*
X80862768Y-156578000D01*
X80864000Y-156595576D01*
X80864000Y-159873060D01*
X80874584Y-159926267D01*
X80890555Y-160006557D01*
X80890556Y-160006560D01*
X80929081Y-160099568D01*
X80942644Y-160132311D01*
X81018265Y-160245487D01*
X81071190Y-160298412D01*
X81092095Y-160319316D01*
X81126120Y-160381628D01*
X81129000Y-160408412D01*
X81129000Y-162268531D01*
X81108998Y-162336652D01*
X81077061Y-162370467D01*
X80940205Y-162469898D01*
X80940202Y-162469900D01*
X80789900Y-162620202D01*
X80789898Y-162620205D01*
X80664949Y-162792183D01*
X80662265Y-162797451D01*
X80613516Y-162849065D01*
X80544600Y-162866129D01*
X80477399Y-162843226D01*
X80437735Y-162797451D01*
X80435050Y-162792183D01*
X80422421Y-162774800D01*
X80310104Y-162620208D01*
X80310101Y-162620205D01*
X80310099Y-162620202D01*
X80159797Y-162469900D01*
X80159794Y-162469898D01*
X80159792Y-162469896D01*
X80022939Y-162370467D01*
X79987819Y-162344951D01*
X79987818Y-162344950D01*
X79987816Y-162344949D01*
X79798412Y-162248443D01*
X79596243Y-162182754D01*
X79386287Y-162149500D01*
X79173713Y-162149500D01*
X78963757Y-162182754D01*
X78963754Y-162182754D01*
X78963753Y-162182755D01*
X78761588Y-162248443D01*
X78761586Y-162248444D01*
X78572180Y-162344951D01*
X78400205Y-162469898D01*
X78400202Y-162469900D01*
X78249900Y-162620202D01*
X78249898Y-162620205D01*
X78124949Y-162792183D01*
X78122265Y-162797451D01*
X78073516Y-162849065D01*
X78004600Y-162866129D01*
X77937399Y-162843226D01*
X77897735Y-162797451D01*
X77895050Y-162792183D01*
X77882421Y-162774800D01*
X77770104Y-162620208D01*
X77770101Y-162620205D01*
X77770099Y-162620202D01*
X77619797Y-162469900D01*
X77619794Y-162469898D01*
X77619792Y-162469896D01*
X77482939Y-162370467D01*
X77447819Y-162344951D01*
X77447818Y-162344950D01*
X77447816Y-162344949D01*
X77258412Y-162248443D01*
X77056243Y-162182754D01*
X76846287Y-162149500D01*
X76633713Y-162149500D01*
X76423757Y-162182754D01*
X76423754Y-162182754D01*
X76423753Y-162182755D01*
X76221588Y-162248443D01*
X76221586Y-162248444D01*
X76032180Y-162344951D01*
X75860205Y-162469898D01*
X75860202Y-162469900D01*
X75709900Y-162620202D01*
X75709898Y-162620205D01*
X75584949Y-162792183D01*
X75582265Y-162797451D01*
X75533516Y-162849065D01*
X75464600Y-162866129D01*
X75397399Y-162843226D01*
X75357735Y-162797451D01*
X75355050Y-162792183D01*
X75342421Y-162774800D01*
X75230104Y-162620208D01*
X75230101Y-162620205D01*
X75230099Y-162620202D01*
X75079797Y-162469900D01*
X75079794Y-162469898D01*
X75079792Y-162469896D01*
X74942939Y-162370467D01*
X74907819Y-162344951D01*
X74907818Y-162344950D01*
X74907816Y-162344949D01*
X74718412Y-162248443D01*
X74516243Y-162182754D01*
X74306287Y-162149500D01*
X74093713Y-162149500D01*
X73883757Y-162182754D01*
X73883754Y-162182754D01*
X73883753Y-162182755D01*
X73681588Y-162248443D01*
X73681586Y-162248444D01*
X73492180Y-162344951D01*
X73320205Y-162469898D01*
X73320202Y-162469900D01*
X73169900Y-162620202D01*
X73169898Y-162620205D01*
X73044949Y-162792183D01*
X73042265Y-162797451D01*
X72993516Y-162849065D01*
X72924600Y-162866129D01*
X72857399Y-162843226D01*
X72817735Y-162797451D01*
X72815050Y-162792183D01*
X72802421Y-162774800D01*
X72690104Y-162620208D01*
X72690101Y-162620205D01*
X72690099Y-162620202D01*
X72539797Y-162469900D01*
X72539794Y-162469898D01*
X72539792Y-162469896D01*
X72402939Y-162370467D01*
X72367819Y-162344951D01*
X72367818Y-162344950D01*
X72367816Y-162344949D01*
X72178412Y-162248443D01*
X71976243Y-162182754D01*
X71766287Y-162149500D01*
X71553713Y-162149500D01*
X71343757Y-162182754D01*
X71343754Y-162182754D01*
X71343753Y-162182755D01*
X71141588Y-162248443D01*
X71141586Y-162248444D01*
X70952180Y-162344951D01*
X70780205Y-162469898D01*
X70780202Y-162469900D01*
X70629900Y-162620202D01*
X70629898Y-162620205D01*
X70504949Y-162792183D01*
X70502265Y-162797451D01*
X70453516Y-162849065D01*
X70384600Y-162866129D01*
X70317399Y-162843226D01*
X70277735Y-162797451D01*
X70275050Y-162792183D01*
X70262421Y-162774800D01*
X70150104Y-162620208D01*
X70150101Y-162620205D01*
X70150099Y-162620202D01*
X69999797Y-162469900D01*
X69999794Y-162469898D01*
X69999792Y-162469896D01*
X69862939Y-162370467D01*
X69827819Y-162344951D01*
X69827818Y-162344950D01*
X69827816Y-162344949D01*
X69638412Y-162248443D01*
X69436243Y-162182754D01*
X69226287Y-162149500D01*
X69013713Y-162149500D01*
X68803757Y-162182754D01*
X68803754Y-162182754D01*
X68803753Y-162182755D01*
X68601588Y-162248443D01*
X68601586Y-162248444D01*
X68412180Y-162344951D01*
X68240205Y-162469898D01*
X68240202Y-162469900D01*
X68089900Y-162620202D01*
X68089898Y-162620205D01*
X67964949Y-162792183D01*
X67962265Y-162797451D01*
X67913516Y-162849065D01*
X67844600Y-162866129D01*
X67777399Y-162843226D01*
X67737735Y-162797451D01*
X67735050Y-162792183D01*
X67722421Y-162774800D01*
X67610104Y-162620208D01*
X67610101Y-162620205D01*
X67610099Y-162620202D01*
X67459797Y-162469900D01*
X67459794Y-162469898D01*
X67459792Y-162469896D01*
X67322939Y-162370467D01*
X67287819Y-162344951D01*
X67287818Y-162344950D01*
X67287816Y-162344949D01*
X67098412Y-162248443D01*
X66896243Y-162182754D01*
X66686287Y-162149500D01*
X66473713Y-162149500D01*
X66263757Y-162182754D01*
X66263754Y-162182754D01*
X66263753Y-162182755D01*
X66061588Y-162248443D01*
X66061586Y-162248444D01*
X65872180Y-162344951D01*
X65700205Y-162469898D01*
X65700202Y-162469900D01*
X65549900Y-162620202D01*
X65549898Y-162620205D01*
X65424949Y-162792183D01*
X65422265Y-162797451D01*
X65373516Y-162849065D01*
X65304600Y-162866129D01*
X65237399Y-162843226D01*
X65197735Y-162797451D01*
X65195050Y-162792183D01*
X65182421Y-162774800D01*
X65070104Y-162620208D01*
X65070101Y-162620205D01*
X65070099Y-162620202D01*
X64919797Y-162469900D01*
X64919794Y-162469898D01*
X64919792Y-162469896D01*
X64782939Y-162370467D01*
X64747819Y-162344951D01*
X64747818Y-162344950D01*
X64747816Y-162344949D01*
X64558412Y-162248443D01*
X64356243Y-162182754D01*
X64146287Y-162149500D01*
X63933713Y-162149500D01*
X63723757Y-162182754D01*
X63723754Y-162182754D01*
X63723753Y-162182755D01*
X63521588Y-162248443D01*
X63521586Y-162248444D01*
X63332180Y-162344951D01*
X63160207Y-162469896D01*
X63048873Y-162581230D01*
X62986561Y-162615255D01*
X62915745Y-162610189D01*
X62858909Y-162567643D01*
X62841722Y-162536165D01*
X62793798Y-162407673D01*
X62793796Y-162407670D01*
X62793796Y-162407669D01*
X62712981Y-162299714D01*
X62707546Y-162292453D01*
X62630591Y-162234845D01*
X62592331Y-162206204D01*
X62592329Y-162206203D01*
X62592326Y-162206201D01*
X62457483Y-162155909D01*
X62457486Y-162155909D01*
X62397878Y-162149500D01*
X60626500Y-162149500D01*
X60558379Y-162129498D01*
X60511886Y-162075842D01*
X60500500Y-162023500D01*
X60500500Y-131760709D01*
X63181500Y-131760709D01*
X63181500Y-132003290D01*
X63213160Y-132243782D01*
X63275944Y-132478095D01*
X63275945Y-132478097D01*
X63275946Y-132478100D01*
X63368776Y-132702212D01*
X63368777Y-132702213D01*
X63368782Y-132702224D01*
X63490061Y-132912285D01*
X63490063Y-132912288D01*
X63490064Y-132912289D01*
X63637735Y-133104738D01*
X63637739Y-133104742D01*
X63637744Y-133104748D01*
X63809251Y-133276255D01*
X63809256Y-133276259D01*
X63809262Y-133276265D01*
X63924181Y-133364445D01*
X64001714Y-133423938D01*
X64211775Y-133545217D01*
X64211779Y-133545218D01*
X64211788Y-133545224D01*
X64435900Y-133638054D01*
X64670211Y-133700838D01*
X64670215Y-133700838D01*
X64670217Y-133700839D01*
X64714753Y-133706702D01*
X64910712Y-133732500D01*
X64910719Y-133732500D01*
X65153281Y-133732500D01*
X65153288Y-133732500D01*
X65378954Y-133702791D01*
X65393782Y-133700839D01*
X65393782Y-133700838D01*
X65393789Y-133700838D01*
X65628100Y-133638054D01*
X65852212Y-133545224D01*
X66062289Y-133423936D01*
X66254738Y-133276265D01*
X66426265Y-133104738D01*
X66573936Y-132912289D01*
X66695224Y-132702212D01*
X66788054Y-132478100D01*
X66850838Y-132243789D01*
X66882500Y-132003288D01*
X66882500Y-131760712D01*
X66853822Y-131542878D01*
X66850839Y-131520217D01*
X66850838Y-131520215D01*
X66850838Y-131520211D01*
X66788054Y-131285900D01*
X66695224Y-131061788D01*
X66695218Y-131061779D01*
X66695217Y-131061775D01*
X66573938Y-130851714D01*
X66567317Y-130843085D01*
X66426265Y-130659262D01*
X66426259Y-130659256D01*
X66426255Y-130659251D01*
X66254748Y-130487744D01*
X66254742Y-130487739D01*
X66254738Y-130487735D01*
X66062289Y-130340064D01*
X66062288Y-130340063D01*
X66062285Y-130340061D01*
X65852224Y-130218782D01*
X65852216Y-130218778D01*
X65852212Y-130218776D01*
X65628100Y-130125946D01*
X65628097Y-130125945D01*
X65628095Y-130125944D01*
X65393782Y-130063160D01*
X65153290Y-130031500D01*
X65153288Y-130031500D01*
X64910712Y-130031500D01*
X64910709Y-130031500D01*
X64670217Y-130063160D01*
X64435904Y-130125944D01*
X64435900Y-130125946D01*
X64276101Y-130192137D01*
X64211786Y-130218777D01*
X64211775Y-130218782D01*
X64001714Y-130340061D01*
X63809262Y-130487735D01*
X63809251Y-130487744D01*
X63637744Y-130659251D01*
X63637735Y-130659262D01*
X63490061Y-130851714D01*
X63368782Y-131061775D01*
X63368777Y-131061786D01*
X63368776Y-131061788D01*
X63352941Y-131100017D01*
X63275946Y-131285900D01*
X63275944Y-131285904D01*
X63213160Y-131520217D01*
X63181500Y-131760709D01*
X60500500Y-131760709D01*
X60500500Y-130259504D01*
X60520502Y-130191383D01*
X60537405Y-130170409D01*
X75170409Y-115537405D01*
X75232721Y-115503379D01*
X75259504Y-115500500D01*
X116141524Y-115500500D01*
X116209645Y-115520502D01*
G37*
%TD.AperFunction*%
%TA.AperFunction,Conductor*%
G36*
X91393907Y-153795867D02*
G01*
X91430334Y-153821236D01*
X91775496Y-154166398D01*
X91809522Y-154228710D01*
X91812401Y-154255493D01*
X91812401Y-156877851D01*
X91792399Y-156945972D01*
X91791167Y-156947852D01*
X91755988Y-157000501D01*
X91692414Y-157153983D01*
X91692412Y-157153988D01*
X91660001Y-157316929D01*
X91660001Y-157483070D01*
X91682194Y-157594641D01*
X91692412Y-157646011D01*
X91755989Y-157799500D01*
X91804189Y-157871636D01*
X91848288Y-157937635D01*
X91848293Y-157937641D01*
X91965759Y-158055107D01*
X91965765Y-158055112D01*
X92103901Y-158147412D01*
X92257390Y-158210989D01*
X92420333Y-158243400D01*
X92420334Y-158243400D01*
X92473801Y-158243400D01*
X92541922Y-158263402D01*
X92588415Y-158317058D01*
X92599801Y-158369400D01*
X92599801Y-161850787D01*
X92579799Y-161918908D01*
X92562900Y-161939877D01*
X92450347Y-162052431D01*
X92362168Y-162140610D01*
X92299856Y-162174635D01*
X92253365Y-162175962D01*
X92086287Y-162149500D01*
X91873713Y-162149500D01*
X91663757Y-162182754D01*
X91663754Y-162182754D01*
X91663753Y-162182755D01*
X91461588Y-162248443D01*
X91461586Y-162248444D01*
X91272180Y-162344951D01*
X91100205Y-162469898D01*
X91100202Y-162469900D01*
X90949900Y-162620202D01*
X90949898Y-162620205D01*
X90824949Y-162792183D01*
X90822265Y-162797451D01*
X90773516Y-162849065D01*
X90704600Y-162866129D01*
X90637399Y-162843226D01*
X90597735Y-162797451D01*
X90595050Y-162792183D01*
X90582421Y-162774800D01*
X90470104Y-162620208D01*
X90470101Y-162620205D01*
X90470099Y-162620202D01*
X90319797Y-162469900D01*
X90319794Y-162469898D01*
X90319792Y-162469896D01*
X90182939Y-162370467D01*
X90139585Y-162314245D01*
X90131000Y-162268531D01*
X90131000Y-159971941D01*
X90130999Y-159971938D01*
X90104445Y-159838443D01*
X90052356Y-159712689D01*
X89996780Y-159629514D01*
X89976735Y-159599514D01*
X89900341Y-159523119D01*
X89897932Y-159520416D01*
X89884225Y-159491474D01*
X89868879Y-159463369D01*
X89868281Y-159457807D01*
X89867544Y-159456251D01*
X89867855Y-159453847D01*
X89866000Y-159436587D01*
X89866000Y-156595576D01*
X89886002Y-156527455D01*
X89939658Y-156480962D01*
X90009932Y-156470858D01*
X90027154Y-156474579D01*
X90034598Y-156476741D01*
X90034602Y-156476744D01*
X90192431Y-156522598D01*
X90229306Y-156525500D01*
X90229307Y-156525500D01*
X90660693Y-156525500D01*
X90660694Y-156525500D01*
X90697569Y-156522598D01*
X90855398Y-156476744D01*
X90996865Y-156393081D01*
X91113081Y-156276865D01*
X91196744Y-156135398D01*
X91242598Y-155977569D01*
X91245500Y-155940694D01*
X91245500Y-154059306D01*
X91242598Y-154022431D01*
X91220242Y-153945481D01*
X91220444Y-153874489D01*
X91258998Y-153814872D01*
X91323662Y-153785563D01*
X91393907Y-153795867D01*
G37*
%TD.AperFunction*%
%TA.AperFunction,Conductor*%
G36*
X101200801Y-140851502D02*
G01*
X101221775Y-140868405D01*
X104281595Y-143928224D01*
X104296539Y-143955592D01*
X104313396Y-143981821D01*
X104314301Y-143988119D01*
X104315621Y-143990536D01*
X104318500Y-144017319D01*
X104318500Y-144073500D01*
X104298498Y-144141621D01*
X104244842Y-144188114D01*
X104192500Y-144199500D01*
X103649990Y-144199500D01*
X103547202Y-144210000D01*
X103380665Y-144265185D01*
X103231343Y-144357288D01*
X103231337Y-144357293D01*
X103107293Y-144481337D01*
X103107288Y-144481343D01*
X103015185Y-144630665D01*
X102960002Y-144797196D01*
X102960000Y-144797208D01*
X102949500Y-144899982D01*
X102949500Y-146100009D01*
X102960000Y-146202797D01*
X103015185Y-146369334D01*
X103107288Y-146518656D01*
X103107293Y-146518662D01*
X103231337Y-146642706D01*
X103231343Y-146642711D01*
X103231344Y-146642712D01*
X103287853Y-146677567D01*
X103380665Y-146734814D01*
X103547196Y-146789997D01*
X103547197Y-146789997D01*
X103547203Y-146789999D01*
X103649991Y-146800500D01*
X104192500Y-146800499D01*
X104260621Y-146820501D01*
X104307114Y-146874156D01*
X104318500Y-146926499D01*
X104318500Y-154573500D01*
X104298498Y-154641621D01*
X104244842Y-154688114D01*
X104192500Y-154699500D01*
X103649990Y-154699500D01*
X103547202Y-154710000D01*
X103380665Y-154765185D01*
X103231343Y-154857288D01*
X103231337Y-154857293D01*
X103107293Y-154981337D01*
X103107288Y-154981343D01*
X103015185Y-155130665D01*
X102960002Y-155297196D01*
X102960000Y-155297208D01*
X102949500Y-155399982D01*
X102949500Y-156600009D01*
X102960000Y-156702797D01*
X103015185Y-156869334D01*
X103107288Y-157018656D01*
X103107293Y-157018662D01*
X103231337Y-157142706D01*
X103231343Y-157142711D01*
X103231344Y-157142712D01*
X103288563Y-157178004D01*
X103380665Y-157234814D01*
X103547196Y-157289997D01*
X103547197Y-157289997D01*
X103547203Y-157289999D01*
X103649991Y-157300500D01*
X103992500Y-157300499D01*
X104001325Y-157303090D01*
X104010432Y-157301781D01*
X104034858Y-157312936D01*
X104060620Y-157320501D01*
X104066644Y-157327453D01*
X104075012Y-157331275D01*
X104089528Y-157353862D01*
X104107113Y-157374156D01*
X104109437Y-157384841D01*
X104113396Y-157391001D01*
X104118500Y-157426499D01*
X104118500Y-157508500D01*
X104098498Y-157576621D01*
X104044842Y-157623114D01*
X103992500Y-157634500D01*
X96035742Y-157634500D01*
X96011161Y-157632079D01*
X95883073Y-157606600D01*
X95883068Y-157606600D01*
X95716932Y-157606600D01*
X95716929Y-157606600D01*
X95553988Y-157639011D01*
X95553983Y-157639013D01*
X95400501Y-157702587D01*
X95387001Y-157711608D01*
X95319248Y-157732822D01*
X95250781Y-157714038D01*
X95203339Y-157661221D01*
X95191000Y-157606842D01*
X95191000Y-146544207D01*
X95190999Y-146544204D01*
X95164445Y-146410709D01*
X95112356Y-146284955D01*
X95098652Y-146264445D01*
X95098652Y-146264444D01*
X95071465Y-146223757D01*
X95036735Y-146171779D01*
X95036730Y-146171774D01*
X95036728Y-146171771D01*
X92571052Y-143706095D01*
X92537026Y-143643783D01*
X92542091Y-143572968D01*
X92584638Y-143516132D01*
X92651158Y-143491321D01*
X92660147Y-143491000D01*
X95277852Y-143491000D01*
X95345973Y-143511002D01*
X95347854Y-143512235D01*
X95349270Y-143513181D01*
X95400500Y-143547412D01*
X95553989Y-143610989D01*
X95716932Y-143643400D01*
X95716933Y-143643400D01*
X95883067Y-143643400D01*
X95883068Y-143643400D01*
X96046011Y-143610989D01*
X96199500Y-143547412D01*
X96337636Y-143455112D01*
X96455112Y-143337636D01*
X96547412Y-143199500D01*
X96610989Y-143046011D01*
X96643400Y-142883068D01*
X96643400Y-142716932D01*
X96610989Y-142553989D01*
X96547412Y-142400500D01*
X96455112Y-142262364D01*
X96455107Y-142262358D01*
X96337641Y-142144892D01*
X96337635Y-142144887D01*
X96273887Y-142102292D01*
X96199500Y-142052588D01*
X96046011Y-141989011D01*
X95992721Y-141978411D01*
X95883070Y-141956600D01*
X95883068Y-141956600D01*
X95716932Y-141956600D01*
X95716929Y-141956600D01*
X95553988Y-141989011D01*
X95553983Y-141989013D01*
X95400499Y-142052588D01*
X95347854Y-142087765D01*
X95280101Y-142108980D01*
X95277852Y-142109000D01*
X83645490Y-142109000D01*
X83530992Y-142131775D01*
X83530991Y-142131776D01*
X83518326Y-142134295D01*
X83511993Y-142135555D01*
X83386239Y-142187644D01*
X83273069Y-142263262D01*
X83273062Y-142263267D01*
X82764235Y-142772095D01*
X82701923Y-142806121D01*
X82675140Y-142809000D01*
X82431938Y-142809000D01*
X82363451Y-142822624D01*
X82298442Y-142835555D01*
X82298439Y-142835556D01*
X82172688Y-142887644D01*
X82059518Y-142963262D01*
X82059516Y-142963263D01*
X81381595Y-143641183D01*
X81319283Y-143675208D01*
X81248467Y-143670143D01*
X81191632Y-143627596D01*
X81166821Y-143561076D01*
X81166500Y-143552087D01*
X81166500Y-142892864D01*
X81167152Y-142880058D01*
X81175500Y-142798345D01*
X81175499Y-142201656D01*
X81165349Y-142102292D01*
X81112894Y-141943991D01*
X81106500Y-141904365D01*
X81106500Y-140957500D01*
X81126502Y-140889379D01*
X81180158Y-140842886D01*
X81232500Y-140831500D01*
X99563180Y-140831500D01*
X99736820Y-140831500D01*
X101132680Y-140831500D01*
X101200801Y-140851502D01*
G37*
%TD.AperFunction*%
%TA.AperFunction,Conductor*%
G36*
X107650801Y-146401502D02*
G01*
X107671775Y-146418405D01*
X108996903Y-147743532D01*
X110315294Y-149061923D01*
X110438077Y-149184706D01*
X110540753Y-149253312D01*
X110582453Y-149281175D01*
X110582455Y-149281176D01*
X110627918Y-149300007D01*
X110627919Y-149300008D01*
X110627920Y-149300008D01*
X110742876Y-149347625D01*
X110913180Y-149381500D01*
X111086821Y-149381500D01*
X115471959Y-149381500D01*
X115540080Y-149401502D01*
X115586573Y-149455158D01*
X115591558Y-149467852D01*
X115625186Y-149569334D01*
X115645243Y-149601851D01*
X115717288Y-149718656D01*
X115717293Y-149718662D01*
X115841337Y-149842706D01*
X115841343Y-149842711D01*
X115841344Y-149842712D01*
X115990666Y-149934814D01*
X115992129Y-149935298D01*
X115993005Y-149935905D01*
X115997311Y-149937913D01*
X115996967Y-149938648D01*
X116050501Y-149975709D01*
X116077760Y-150041264D01*
X116078500Y-150054904D01*
X116078500Y-150945095D01*
X116058498Y-151013216D01*
X116004842Y-151059709D01*
X115992136Y-151064698D01*
X115990673Y-151065182D01*
X115990664Y-151065186D01*
X115841346Y-151157286D01*
X115841337Y-151157293D01*
X115717293Y-151281337D01*
X115717288Y-151281343D01*
X115630174Y-151422579D01*
X115625186Y-151430666D01*
X115591562Y-151532135D01*
X115551150Y-151590504D01*
X115485593Y-151617760D01*
X115471959Y-151618500D01*
X114188176Y-151618500D01*
X114060451Y-151643906D01*
X114017876Y-151652375D01*
X113917029Y-151694148D01*
X113857453Y-151718825D01*
X113780996Y-151769912D01*
X113776643Y-151772820D01*
X113776635Y-151772825D01*
X113724912Y-151807386D01*
X113667715Y-151827968D01*
X113602295Y-151834650D01*
X113441303Y-151887997D01*
X113296955Y-151977032D01*
X113296949Y-151977037D01*
X113177037Y-152096949D01*
X113177032Y-152096955D01*
X113087997Y-152241302D01*
X113034651Y-152402293D01*
X113034650Y-152402297D01*
X113024500Y-152501646D01*
X113024500Y-153048345D01*
X113034650Y-153147704D01*
X113034650Y-153147706D01*
X113034651Y-153147708D01*
X113087997Y-153308697D01*
X113154758Y-153416932D01*
X113177032Y-153453044D01*
X113177037Y-153453050D01*
X113296949Y-153572962D01*
X113296955Y-153572967D01*
X113296956Y-153572968D01*
X113441303Y-153662003D01*
X113602292Y-153715349D01*
X113701655Y-153725500D01*
X114298344Y-153725499D01*
X114298345Y-153725499D01*
X114318216Y-153723469D01*
X114397708Y-153715349D01*
X114558697Y-153662003D01*
X114703044Y-153572968D01*
X114822968Y-153453044D01*
X114830180Y-153441352D01*
X114882967Y-153393874D01*
X114937420Y-153381500D01*
X115471959Y-153381500D01*
X115540080Y-153401502D01*
X115586573Y-153455158D01*
X115591558Y-153467852D01*
X115625186Y-153569334D01*
X115693838Y-153680638D01*
X115717288Y-153718656D01*
X115717293Y-153718662D01*
X115841337Y-153842706D01*
X115841343Y-153842711D01*
X115841344Y-153842712D01*
X115876834Y-153864602D01*
X115990665Y-153934814D01*
X116157196Y-153989997D01*
X116157197Y-153989997D01*
X116157203Y-153989999D01*
X116259991Y-154000500D01*
X117660008Y-154000499D01*
X117660009Y-154000499D01*
X117762797Y-153989999D01*
X117929334Y-153934814D01*
X118078656Y-153842712D01*
X118202712Y-153718656D01*
X118294814Y-153569334D01*
X118349999Y-153402797D01*
X118360500Y-153300009D01*
X118360499Y-151699992D01*
X118354899Y-151645175D01*
X118349999Y-151597202D01*
X118294813Y-151430662D01*
X118291711Y-151424009D01*
X118294777Y-151422579D01*
X118279864Y-151368724D01*
X118300916Y-151300921D01*
X118355283Y-151255262D01*
X118425704Y-151246244D01*
X118489822Y-151276731D01*
X118494944Y-151281575D01*
X118762071Y-151548702D01*
X118762075Y-151548705D01*
X118762076Y-151548706D01*
X118791039Y-151568058D01*
X118906453Y-151645175D01*
X118923838Y-151652376D01*
X119066876Y-151711625D01*
X119237179Y-151745500D01*
X119237180Y-151745500D01*
X122646600Y-151745500D01*
X122714721Y-151765502D01*
X122735695Y-151782405D01*
X123831595Y-152878304D01*
X123865620Y-152940616D01*
X123868500Y-152967399D01*
X123868500Y-154904365D01*
X123862105Y-154943991D01*
X123809651Y-155102292D01*
X123809651Y-155102294D01*
X123809650Y-155102297D01*
X123799500Y-155201646D01*
X123799500Y-155798345D01*
X123809650Y-155897704D01*
X123809650Y-155897706D01*
X123809651Y-155897708D01*
X123862997Y-156058697D01*
X123910307Y-156135398D01*
X123952032Y-156203044D01*
X123952037Y-156203050D01*
X124071949Y-156322962D01*
X124071955Y-156322967D01*
X124071956Y-156322968D01*
X124216303Y-156412003D01*
X124377292Y-156465349D01*
X124476655Y-156475500D01*
X125023344Y-156475499D01*
X125023345Y-156475499D01*
X125045175Y-156473269D01*
X125122708Y-156465349D01*
X125283697Y-156412003D01*
X125302737Y-156400258D01*
X125368883Y-156381500D01*
X126792040Y-156381500D01*
X126860161Y-156401502D01*
X126881135Y-156418405D01*
X126983351Y-156520621D01*
X126983358Y-156520627D01*
X127074532Y-156574547D01*
X127122985Y-156626440D01*
X127135690Y-156696290D01*
X127108615Y-156761921D01*
X127050354Y-156802495D01*
X127010393Y-156809000D01*
X121045490Y-156809000D01*
X120930992Y-156831775D01*
X120930991Y-156831776D01*
X120918326Y-156834295D01*
X120911993Y-156835555D01*
X120786239Y-156887644D01*
X120673066Y-156963264D01*
X120673064Y-156963265D01*
X120253633Y-157382695D01*
X120191321Y-157416720D01*
X120120505Y-157411655D01*
X120075443Y-157382694D01*
X120027723Y-157334974D01*
X120027717Y-157334969D01*
X119944073Y-157279080D01*
X119889582Y-157242670D01*
X119736093Y-157179093D01*
X119573152Y-157146682D01*
X119573150Y-157146682D01*
X119407014Y-157146682D01*
X119407011Y-157146682D01*
X119244070Y-157179093D01*
X119244065Y-157179095D01*
X119090581Y-157242670D01*
X119037936Y-157277847D01*
X118970183Y-157299062D01*
X118967934Y-157299082D01*
X107316477Y-157299082D01*
X107248356Y-157279080D01*
X107201863Y-157225424D01*
X107191759Y-157155150D01*
X107221253Y-157090570D01*
X107227382Y-157083987D01*
X107292706Y-157018662D01*
X107292712Y-157018656D01*
X107384814Y-156869334D01*
X107439999Y-156702797D01*
X107450500Y-156600009D01*
X107450499Y-155399992D01*
X107439999Y-155297203D01*
X107425130Y-155252329D01*
X107384814Y-155130665D01*
X107292711Y-154981343D01*
X107292706Y-154981337D01*
X107168662Y-154857293D01*
X107168656Y-154857288D01*
X107019334Y-154765185D01*
X106852803Y-154710002D01*
X106852791Y-154710000D01*
X106750017Y-154699500D01*
X106750009Y-154699500D01*
X106207500Y-154699500D01*
X106139379Y-154679498D01*
X106092886Y-154625842D01*
X106081500Y-154573500D01*
X106081500Y-146926499D01*
X106101502Y-146858378D01*
X106155158Y-146811885D01*
X106207500Y-146800499D01*
X106750009Y-146800499D01*
X106852797Y-146789999D01*
X107019334Y-146734814D01*
X107168656Y-146642712D01*
X107292712Y-146518656D01*
X107340392Y-146441354D01*
X107348101Y-146434419D01*
X107352409Y-146424988D01*
X107374047Y-146411081D01*
X107393177Y-146393875D01*
X107405002Y-146391187D01*
X107412135Y-146386604D01*
X107447633Y-146381500D01*
X107582680Y-146381500D01*
X107650801Y-146401502D01*
G37*
%TD.AperFunction*%
%TA.AperFunction,Conductor*%
G36*
X139624030Y-147177402D02*
G01*
X139669095Y-147206364D01*
X139683357Y-147220626D01*
X139822106Y-147302681D01*
X139976902Y-147347654D01*
X140013065Y-147350500D01*
X140416934Y-147350499D01*
X140453098Y-147347654D01*
X140607894Y-147302681D01*
X140607898Y-147302678D01*
X140615172Y-147299532D01*
X140616210Y-147301932D01*
X140672677Y-147287607D01*
X140740008Y-147310124D01*
X140784478Y-147365468D01*
X140794000Y-147413520D01*
X140794000Y-149853058D01*
X140817347Y-149970433D01*
X140817349Y-149970442D01*
X140817350Y-149970443D01*
X140819496Y-149981236D01*
X140820555Y-149986558D01*
X140871022Y-150108396D01*
X140872644Y-150112311D01*
X140948265Y-150225487D01*
X141872096Y-151149318D01*
X141906120Y-151211629D01*
X141909000Y-151238412D01*
X141909000Y-155524886D01*
X141888998Y-155593007D01*
X141872095Y-155613981D01*
X141618481Y-155867595D01*
X141556169Y-155901621D01*
X141529386Y-155904500D01*
X141116500Y-155904500D01*
X141048379Y-155884498D01*
X141001886Y-155830842D01*
X140990500Y-155778500D01*
X140990499Y-154223066D01*
X140987654Y-154186903D01*
X140948958Y-154053713D01*
X140942681Y-154032106D01*
X140860626Y-153893357D01*
X140860622Y-153893353D01*
X140860621Y-153893351D01*
X140746648Y-153779378D01*
X140746646Y-153779377D01*
X140746643Y-153779374D01*
X140607894Y-153697319D01*
X140568370Y-153685836D01*
X140453103Y-153652347D01*
X140453099Y-153652346D01*
X140453098Y-153652346D01*
X140453096Y-153652345D01*
X140453091Y-153652345D01*
X140416943Y-153649500D01*
X140013066Y-153649500D01*
X139976903Y-153652345D01*
X139822105Y-153697319D01*
X139774454Y-153725500D01*
X139683357Y-153779374D01*
X139683355Y-153779375D01*
X139683353Y-153779377D01*
X139683351Y-153779378D01*
X139669095Y-153793635D01*
X139606783Y-153827661D01*
X139535968Y-153822596D01*
X139490905Y-153793635D01*
X139476648Y-153779378D01*
X139476646Y-153779377D01*
X139476643Y-153779374D01*
X139337894Y-153697319D01*
X139298370Y-153685836D01*
X139183103Y-153652347D01*
X139183099Y-153652346D01*
X139183098Y-153652346D01*
X139183096Y-153652345D01*
X139183091Y-153652345D01*
X139146943Y-153649500D01*
X138743066Y-153649500D01*
X138706903Y-153652345D01*
X138552105Y-153697319D01*
X138504454Y-153725500D01*
X138413357Y-153779374D01*
X138413355Y-153779375D01*
X138413353Y-153779377D01*
X138413351Y-153779378D01*
X138399095Y-153793635D01*
X138336783Y-153827661D01*
X138265968Y-153822596D01*
X138220905Y-153793635D01*
X138206648Y-153779378D01*
X138206646Y-153779377D01*
X138206643Y-153779374D01*
X138067894Y-153697319D01*
X138028370Y-153685836D01*
X137913103Y-153652347D01*
X137913099Y-153652346D01*
X137913098Y-153652346D01*
X137913096Y-153652345D01*
X137913091Y-153652345D01*
X137876943Y-153649500D01*
X137473066Y-153649500D01*
X137436903Y-153652345D01*
X137282105Y-153697319D01*
X137136534Y-153783409D01*
X137135003Y-153780820D01*
X137082027Y-153801596D01*
X137012410Y-153787667D01*
X136966172Y-153746087D01*
X136952416Y-153725500D01*
X136941735Y-153709514D01*
X136941730Y-153709509D01*
X136941728Y-153709506D01*
X133395493Y-150163271D01*
X133395487Y-150163266D01*
X133391476Y-150160586D01*
X133282310Y-150087644D01*
X133196997Y-150052306D01*
X133156559Y-150035556D01*
X133156556Y-150035555D01*
X133023060Y-150009000D01*
X133023057Y-150009000D01*
X124405766Y-150009000D01*
X124337645Y-149988998D01*
X124316671Y-149972096D01*
X123846339Y-149501765D01*
X123733164Y-149426144D01*
X123733163Y-149426143D01*
X123728017Y-149422705D01*
X123729338Y-149420726D01*
X123686221Y-149378380D01*
X123670505Y-149309145D01*
X123694715Y-149242403D01*
X123751165Y-149199346D01*
X123796260Y-149191000D01*
X126368058Y-149191000D01*
X126501557Y-149164445D01*
X126627311Y-149112356D01*
X126639004Y-149104543D01*
X126740487Y-149036735D01*
X128051735Y-147725487D01*
X128127356Y-147612312D01*
X128179445Y-147486558D01*
X128182701Y-147470185D01*
X128183222Y-147467568D01*
X128183223Y-147467562D01*
X128194606Y-147410335D01*
X128199868Y-147383879D01*
X128232775Y-147320971D01*
X128294470Y-147285839D01*
X128365365Y-147289639D01*
X128387585Y-147300008D01*
X128392103Y-147302680D01*
X128392105Y-147302680D01*
X128392106Y-147302681D01*
X128546902Y-147347654D01*
X128583065Y-147350500D01*
X128986934Y-147350499D01*
X129023098Y-147347654D01*
X129177894Y-147302681D01*
X129316643Y-147220626D01*
X129330904Y-147206364D01*
X129393214Y-147172339D01*
X129464030Y-147177402D01*
X129509095Y-147206364D01*
X129523357Y-147220626D01*
X129662106Y-147302681D01*
X129816902Y-147347654D01*
X129853065Y-147350500D01*
X130256934Y-147350499D01*
X130293098Y-147347654D01*
X130447894Y-147302681D01*
X130586643Y-147220626D01*
X130600904Y-147206364D01*
X130663214Y-147172339D01*
X130734030Y-147177402D01*
X130779095Y-147206364D01*
X130793357Y-147220626D01*
X130932106Y-147302681D01*
X131086902Y-147347654D01*
X131123065Y-147350500D01*
X131526934Y-147350499D01*
X131563098Y-147347654D01*
X131717894Y-147302681D01*
X131856643Y-147220626D01*
X131870904Y-147206364D01*
X131933214Y-147172339D01*
X132004030Y-147177402D01*
X132049095Y-147206364D01*
X132063357Y-147220626D01*
X132202106Y-147302681D01*
X132356902Y-147347654D01*
X132393065Y-147350500D01*
X132796934Y-147350499D01*
X132833098Y-147347654D01*
X132987894Y-147302681D01*
X133126643Y-147220626D01*
X133140904Y-147206364D01*
X133203214Y-147172339D01*
X133274030Y-147177402D01*
X133319095Y-147206364D01*
X133333357Y-147220626D01*
X133472106Y-147302681D01*
X133626902Y-147347654D01*
X133663065Y-147350500D01*
X134066934Y-147350499D01*
X134103098Y-147347654D01*
X134257894Y-147302681D01*
X134396643Y-147220626D01*
X134410904Y-147206364D01*
X134473214Y-147172339D01*
X134544030Y-147177402D01*
X134589095Y-147206364D01*
X134603357Y-147220626D01*
X134742106Y-147302681D01*
X134896902Y-147347654D01*
X134933065Y-147350500D01*
X135336934Y-147350499D01*
X135373098Y-147347654D01*
X135527894Y-147302681D01*
X135666643Y-147220626D01*
X135680904Y-147206364D01*
X135743214Y-147172339D01*
X135814030Y-147177402D01*
X135859095Y-147206364D01*
X135873357Y-147220626D01*
X136012106Y-147302681D01*
X136166902Y-147347654D01*
X136203065Y-147350500D01*
X136606934Y-147350499D01*
X136643098Y-147347654D01*
X136797894Y-147302681D01*
X136936643Y-147220626D01*
X136950904Y-147206364D01*
X137013214Y-147172339D01*
X137084030Y-147177402D01*
X137129095Y-147206364D01*
X137143357Y-147220626D01*
X137282106Y-147302681D01*
X137436902Y-147347654D01*
X137473065Y-147350500D01*
X137876934Y-147350499D01*
X137913098Y-147347654D01*
X138067894Y-147302681D01*
X138206643Y-147220626D01*
X138220904Y-147206364D01*
X138283214Y-147172339D01*
X138354030Y-147177402D01*
X138399095Y-147206364D01*
X138413357Y-147220626D01*
X138552106Y-147302681D01*
X138706902Y-147347654D01*
X138743065Y-147350500D01*
X139146934Y-147350499D01*
X139183098Y-147347654D01*
X139337894Y-147302681D01*
X139476643Y-147220626D01*
X139490904Y-147206364D01*
X139553214Y-147172339D01*
X139624030Y-147177402D01*
G37*
%TD.AperFunction*%
%TA.AperFunction,Conductor*%
G36*
X89145710Y-143511002D02*
G01*
X89192203Y-143564658D01*
X89202307Y-143634932D01*
X89172813Y-143699512D01*
X89166684Y-143706096D01*
X88638265Y-144234513D01*
X88618464Y-144264148D01*
X88563986Y-144309675D01*
X88493543Y-144318522D01*
X88449560Y-144302599D01*
X88445990Y-144300488D01*
X88315398Y-144223256D01*
X88157568Y-144177401D01*
X88123595Y-144174728D01*
X88120694Y-144174500D01*
X87689306Y-144174500D01*
X87686405Y-144174728D01*
X87652432Y-144177401D01*
X87652431Y-144177401D01*
X87494598Y-144223257D01*
X87353136Y-144306917D01*
X87353129Y-144306923D01*
X87236923Y-144423129D01*
X87236917Y-144423136D01*
X87153257Y-144564598D01*
X87107401Y-144722431D01*
X87107401Y-144722432D01*
X87104500Y-144759306D01*
X87104500Y-146640693D01*
X87107401Y-146677567D01*
X87107401Y-146677568D01*
X87153256Y-146835399D01*
X87177439Y-146876289D01*
X87195542Y-146906900D01*
X87196453Y-146908439D01*
X87214000Y-146972579D01*
X87214000Y-148459507D01*
X87220265Y-148491001D01*
X87234305Y-148561586D01*
X87240555Y-148593005D01*
X87292644Y-148718759D01*
X87368265Y-148831935D01*
X87368268Y-148831938D01*
X87368269Y-148831939D01*
X87920435Y-149384105D01*
X87954461Y-149446417D01*
X87949396Y-149517232D01*
X87906849Y-149574068D01*
X87840329Y-149598879D01*
X87831340Y-149599200D01*
X87816929Y-149599200D01*
X87653988Y-149631611D01*
X87653983Y-149631613D01*
X87500500Y-149695188D01*
X87362364Y-149787487D01*
X87332852Y-149817000D01*
X87282755Y-149867096D01*
X87220446Y-149901120D01*
X87193662Y-149904000D01*
X84517033Y-149904000D01*
X84448912Y-149883998D01*
X84402419Y-149830342D01*
X84392315Y-149760068D01*
X84421809Y-149695488D01*
X84427758Y-149689097D01*
X84427819Y-149689022D01*
X84427824Y-149689018D01*
X84520124Y-149550882D01*
X84583701Y-149397393D01*
X84616112Y-149234450D01*
X84616112Y-149068314D01*
X84583701Y-148905371D01*
X84520124Y-148751882D01*
X84427824Y-148613746D01*
X84427819Y-148613740D01*
X84310353Y-148496274D01*
X84310347Y-148496269D01*
X84264511Y-148465642D01*
X84172212Y-148403970D01*
X84018723Y-148340393D01*
X83970752Y-148330851D01*
X83855782Y-148307982D01*
X83855780Y-148307982D01*
X83689644Y-148307982D01*
X83689641Y-148307982D01*
X83526700Y-148340393D01*
X83526695Y-148340395D01*
X83373212Y-148403970D01*
X83235076Y-148496269D01*
X83235070Y-148496274D01*
X83117604Y-148613740D01*
X83117599Y-148613746D01*
X83025300Y-148751882D01*
X82986093Y-148846537D01*
X82961723Y-148905371D01*
X82952423Y-148952120D01*
X82949370Y-148967473D01*
X82940463Y-148984498D01*
X82936379Y-149003275D01*
X82917330Y-149028719D01*
X82916461Y-149030382D01*
X82914886Y-149031985D01*
X82801274Y-149145597D01*
X82738962Y-149179623D01*
X82668147Y-149174558D01*
X82611311Y-149132011D01*
X82588600Y-149081083D01*
X82557870Y-148926589D01*
X82494293Y-148773100D01*
X82401993Y-148634964D01*
X82401988Y-148634958D01*
X82284522Y-148517492D01*
X82284516Y-148517487D01*
X82238680Y-148486860D01*
X82146381Y-148425188D01*
X82018408Y-148372180D01*
X81992895Y-148361612D01*
X81992886Y-148361609D01*
X81939670Y-148351023D01*
X81876761Y-148318115D01*
X81841631Y-148256419D01*
X81838254Y-148227445D01*
X81838254Y-148198107D01*
X81838253Y-148198103D01*
X81835249Y-148183000D01*
X81805843Y-148035163D01*
X81742266Y-147881674D01*
X81649966Y-147743538D01*
X81649961Y-147743532D01*
X81532495Y-147626066D01*
X81532489Y-147626061D01*
X81448743Y-147570104D01*
X81394354Y-147533762D01*
X81280369Y-147486548D01*
X81240868Y-147470186D01*
X81240865Y-147470185D01*
X81227709Y-147467568D01*
X81178762Y-147457831D01*
X81161736Y-147448925D01*
X81142960Y-147444841D01*
X81117520Y-147425796D01*
X81115853Y-147424924D01*
X81114250Y-147423348D01*
X81101237Y-147410335D01*
X81067211Y-147348023D01*
X81072276Y-147277208D01*
X81114823Y-147220372D01*
X81181343Y-147195561D01*
X81225485Y-147200243D01*
X81295643Y-147220626D01*
X81302431Y-147222598D01*
X81339306Y-147225500D01*
X81339307Y-147225500D01*
X81770693Y-147225500D01*
X81770694Y-147225500D01*
X81807569Y-147222598D01*
X81965398Y-147176744D01*
X82106865Y-147093081D01*
X82223081Y-146976865D01*
X82306744Y-146835398D01*
X82352598Y-146677569D01*
X82355500Y-146640694D01*
X82355500Y-144759306D01*
X82352598Y-144722431D01*
X82351369Y-144718200D01*
X82351570Y-144647203D01*
X82383267Y-144593953D01*
X82749318Y-144227902D01*
X82811628Y-144193879D01*
X82838411Y-144191000D01*
X83081610Y-144191000D01*
X83215109Y-144164445D01*
X83340863Y-144112356D01*
X83375490Y-144089219D01*
X83454039Y-144036735D01*
X83962870Y-143527903D01*
X84025181Y-143493880D01*
X84051964Y-143491000D01*
X89077589Y-143491000D01*
X89145710Y-143511002D01*
G37*
%TD.AperFunction*%
%TA.AperFunction,Conductor*%
G36*
X109305211Y-124601502D02*
G01*
X109351704Y-124655158D01*
X109361808Y-124725432D01*
X109332314Y-124790012D01*
X109326185Y-124796595D01*
X106967140Y-127155637D01*
X106967135Y-127155643D01*
X106963265Y-127159514D01*
X106915525Y-127230963D01*
X106915146Y-127231529D01*
X106915129Y-127231555D01*
X106900462Y-127253504D01*
X106845984Y-127299030D01*
X106808514Y-127308845D01*
X106800621Y-127309651D01*
X106797203Y-127310001D01*
X106797201Y-127310001D01*
X106797196Y-127310002D01*
X106630665Y-127365185D01*
X106481343Y-127457288D01*
X106481337Y-127457293D01*
X106357293Y-127581337D01*
X106357288Y-127581343D01*
X106265185Y-127730665D01*
X106210002Y-127897196D01*
X106210000Y-127897208D01*
X106199500Y-127999982D01*
X106199500Y-131100009D01*
X106210000Y-131202797D01*
X106265185Y-131369334D01*
X106357288Y-131518656D01*
X106357293Y-131518662D01*
X106481337Y-131642706D01*
X106481343Y-131642711D01*
X106481344Y-131642712D01*
X106538563Y-131678004D01*
X106630665Y-131734814D01*
X106797196Y-131789997D01*
X106797197Y-131789997D01*
X106797203Y-131789999D01*
X106899991Y-131800500D01*
X108100008Y-131800499D01*
X108100009Y-131800499D01*
X108202797Y-131789999D01*
X108369334Y-131734814D01*
X108377461Y-131729801D01*
X108518656Y-131642712D01*
X108642712Y-131518656D01*
X108734814Y-131369334D01*
X108789999Y-131202797D01*
X108800500Y-131100009D01*
X108800499Y-127999992D01*
X108796008Y-127956032D01*
X108789999Y-127897202D01*
X108734814Y-127730665D01*
X108698393Y-127671618D01*
X108642712Y-127581344D01*
X108642709Y-127581341D01*
X108638996Y-127575321D01*
X108620259Y-127506842D01*
X108641518Y-127439103D01*
X108657137Y-127420084D01*
X110277120Y-125800102D01*
X110339432Y-125766076D01*
X110366215Y-125763197D01*
X113901000Y-125763197D01*
X113969121Y-125783199D01*
X114015614Y-125836855D01*
X114027000Y-125889197D01*
X114027000Y-127383390D01*
X114029902Y-127420269D01*
X114031057Y-127426591D01*
X114029419Y-127426890D01*
X114029240Y-127489682D01*
X113997541Y-127542933D01*
X111463268Y-130077205D01*
X111463265Y-130077209D01*
X111406374Y-130162355D01*
X111406373Y-130162355D01*
X111387646Y-130190381D01*
X111387644Y-130190385D01*
X111335556Y-130316136D01*
X111335555Y-130316139D01*
X111309000Y-130449635D01*
X111309000Y-135835758D01*
X111335555Y-135969254D01*
X111335556Y-135969257D01*
X111354797Y-136015708D01*
X111387644Y-136095008D01*
X111463266Y-136208184D01*
X111559513Y-136304431D01*
X111602527Y-136333172D01*
X111621620Y-136348842D01*
X112809514Y-137536735D01*
X112922689Y-137612356D01*
X113048443Y-137664445D01*
X113181942Y-137691000D01*
X115868892Y-137691000D01*
X116002391Y-137664445D01*
X116128145Y-137612356D01*
X116241321Y-137536735D01*
X117131735Y-136646321D01*
X117207356Y-136533145D01*
X117210886Y-136524623D01*
X117255433Y-136469342D01*
X117322796Y-136446920D01*
X117391434Y-136464386D01*
X117399813Y-136469342D01*
X117454598Y-136501742D01*
X117454602Y-136501744D01*
X117612431Y-136547598D01*
X117649306Y-136550500D01*
X117649307Y-136550500D01*
X118080693Y-136550500D01*
X118080694Y-136550500D01*
X118117569Y-136547598D01*
X118275398Y-136501744D01*
X118416865Y-136418081D01*
X118416872Y-136418073D01*
X118422775Y-136413496D01*
X118488861Y-136387550D01*
X118558484Y-136401452D01*
X118577225Y-136413496D01*
X118583131Y-136418077D01*
X118583135Y-136418081D01*
X118583139Y-136418083D01*
X118583140Y-136418084D01*
X118724598Y-136501742D01*
X118724599Y-136501742D01*
X118724602Y-136501744D01*
X118882431Y-136547598D01*
X118919306Y-136550500D01*
X118919307Y-136550500D01*
X119350693Y-136550500D01*
X119350694Y-136550500D01*
X119387569Y-136547598D01*
X119545398Y-136501744D01*
X119686865Y-136418081D01*
X119686872Y-136418073D01*
X119692775Y-136413496D01*
X119758861Y-136387550D01*
X119828484Y-136401452D01*
X119847225Y-136413496D01*
X119853131Y-136418077D01*
X119853135Y-136418081D01*
X119853139Y-136418083D01*
X119853140Y-136418084D01*
X119994598Y-136501742D01*
X119994599Y-136501742D01*
X119994602Y-136501744D01*
X120152431Y-136547598D01*
X120189306Y-136550500D01*
X120189307Y-136550500D01*
X120620693Y-136550500D01*
X120620694Y-136550500D01*
X120657569Y-136547598D01*
X120815398Y-136501744D01*
X120956865Y-136418081D01*
X120956872Y-136418073D01*
X120962775Y-136413496D01*
X121028861Y-136387550D01*
X121098484Y-136401452D01*
X121117225Y-136413496D01*
X121123131Y-136418077D01*
X121123135Y-136418081D01*
X121123139Y-136418083D01*
X121123140Y-136418084D01*
X121264598Y-136501742D01*
X121264599Y-136501742D01*
X121264602Y-136501744D01*
X121422431Y-136547598D01*
X121459306Y-136550500D01*
X121459307Y-136550500D01*
X121890692Y-136550500D01*
X121890694Y-136550500D01*
X121927569Y-136547598D01*
X121927571Y-136547597D01*
X121927614Y-136547594D01*
X121997094Y-136562190D01*
X122047653Y-136612032D01*
X122063500Y-136673206D01*
X122063500Y-137936266D01*
X122043498Y-138004387D01*
X122026595Y-138025361D01*
X120388752Y-139663203D01*
X120326440Y-139697229D01*
X120255624Y-139692164D01*
X120210562Y-139663203D01*
X119962659Y-139415300D01*
X119962653Y-139415295D01*
X119818275Y-139318825D01*
X119657855Y-139252377D01*
X119657852Y-139252376D01*
X119487552Y-139218500D01*
X119487549Y-139218500D01*
X119487548Y-139218500D01*
X117386821Y-139218500D01*
X117213180Y-139218500D01*
X117213176Y-139218500D01*
X117042876Y-139252375D01*
X117011678Y-139265298D01*
X116953745Y-139289295D01*
X116882453Y-139318825D01*
X116778812Y-139388076D01*
X116738076Y-139415295D01*
X116738069Y-139415300D01*
X115910298Y-140243071D01*
X115910293Y-140243077D01*
X115813825Y-140387452D01*
X115747378Y-140547870D01*
X115747376Y-140547875D01*
X115723178Y-140669527D01*
X115713500Y-140718179D01*
X115713500Y-142132679D01*
X115693498Y-142200800D01*
X115676595Y-142221774D01*
X115416774Y-142481595D01*
X115389405Y-142496539D01*
X115363177Y-142513396D01*
X115356878Y-142514301D01*
X115354462Y-142515621D01*
X115327679Y-142518500D01*
X115322321Y-142518500D01*
X115254200Y-142498498D01*
X115233226Y-142481595D01*
X114973405Y-142221774D01*
X114939379Y-142159462D01*
X114936500Y-142132679D01*
X114936500Y-141663183D01*
X114936500Y-141663180D01*
X114927612Y-141618500D01*
X114902624Y-141492876D01*
X114902620Y-141492866D01*
X114865091Y-141402260D01*
X114855500Y-141354043D01*
X114855500Y-141034306D01*
X114852598Y-140997432D01*
X114852598Y-140997431D01*
X114851538Y-140993783D01*
X114806744Y-140839602D01*
X114801953Y-140831500D01*
X114723082Y-140698136D01*
X114723076Y-140698129D01*
X114606870Y-140581923D01*
X114606863Y-140581917D01*
X114465401Y-140498257D01*
X114307568Y-140452401D01*
X114273595Y-140449728D01*
X114270694Y-140449500D01*
X113839306Y-140449500D01*
X113836405Y-140449728D01*
X113802432Y-140452401D01*
X113802431Y-140452401D01*
X113644598Y-140498257D01*
X113503136Y-140581917D01*
X113496868Y-140586780D01*
X113496003Y-140585665D01*
X113441146Y-140615621D01*
X113414363Y-140618500D01*
X112143883Y-140618500D01*
X112077737Y-140599741D01*
X112058697Y-140587997D01*
X111897708Y-140534651D01*
X111897704Y-140534650D01*
X111897702Y-140534650D01*
X111798353Y-140524500D01*
X111251654Y-140524500D01*
X111152295Y-140534650D01*
X110991303Y-140587997D01*
X110846955Y-140677032D01*
X110846949Y-140677037D01*
X110727037Y-140796949D01*
X110727032Y-140796955D01*
X110637997Y-140941302D01*
X110635424Y-140949068D01*
X110596465Y-141066641D01*
X110584651Y-141102293D01*
X110584650Y-141102297D01*
X110574500Y-141201646D01*
X110574500Y-141626680D01*
X110554498Y-141694801D01*
X110537595Y-141715775D01*
X107671775Y-144581595D01*
X107644406Y-144596539D01*
X107618178Y-144613396D01*
X107611879Y-144614301D01*
X107609463Y-144615621D01*
X107582680Y-144618500D01*
X107447633Y-144618500D01*
X107379512Y-144598498D01*
X107340392Y-144558646D01*
X107315576Y-144518413D01*
X107292712Y-144481344D01*
X107292709Y-144481341D01*
X107292706Y-144481337D01*
X107168662Y-144357293D01*
X107168656Y-144357288D01*
X107019334Y-144265185D01*
X106852803Y-144210002D01*
X106852791Y-144210000D01*
X106750017Y-144199500D01*
X106750009Y-144199500D01*
X106207500Y-144199500D01*
X106139379Y-144179498D01*
X106092886Y-144125842D01*
X106081500Y-144073500D01*
X106081500Y-143513181D01*
X106081500Y-143513180D01*
X106075216Y-143481588D01*
X106047625Y-143342877D01*
X106014983Y-143264074D01*
X105997923Y-143222886D01*
X105997911Y-143222859D01*
X105988702Y-143200626D01*
X105981175Y-143182453D01*
X105884706Y-143038077D01*
X105761923Y-142915294D01*
X102111924Y-139265294D01*
X101967547Y-139168825D01*
X101865068Y-139126377D01*
X101807127Y-139102377D01*
X101807124Y-139102376D01*
X101636824Y-139068500D01*
X101636821Y-139068500D01*
X101636820Y-139068500D01*
X100657500Y-139068500D01*
X100589379Y-139048498D01*
X100542886Y-138994842D01*
X100531500Y-138942500D01*
X100531500Y-132267318D01*
X100551502Y-132199197D01*
X100568400Y-132178228D01*
X102801547Y-129945080D01*
X102801557Y-129945073D01*
X105451186Y-127295444D01*
X108128224Y-124618404D01*
X108190536Y-124584379D01*
X108217319Y-124581500D01*
X109237090Y-124581500D01*
X109305211Y-124601502D01*
G37*
%TD.AperFunction*%
%TA.AperFunction,Conductor*%
G36*
X118224125Y-130003076D02*
G01*
X118283498Y-130022750D01*
X118352285Y-130045544D01*
X118352286Y-130045544D01*
X118352292Y-130045546D01*
X118451655Y-130055697D01*
X119048344Y-130055696D01*
X119048351Y-130055696D01*
X119077693Y-130052698D01*
X119147494Y-130065672D01*
X119199200Y-130114324D01*
X119216500Y-130178045D01*
X119216500Y-131693890D01*
X119196498Y-131762011D01*
X119179595Y-131782985D01*
X117486618Y-133475961D01*
X117467527Y-133491630D01*
X117424512Y-133520372D01*
X117424505Y-133520378D01*
X117328270Y-133616613D01*
X117328265Y-133616619D01*
X117252644Y-133729795D01*
X117200556Y-133855545D01*
X117200553Y-133855554D01*
X117189299Y-133912129D01*
X117156391Y-133975038D01*
X117094695Y-134010168D01*
X117023800Y-134006367D01*
X117012758Y-134001214D01*
X117012676Y-134001405D01*
X117005401Y-133998257D01*
X116997443Y-133995945D01*
X116973704Y-133989048D01*
X116847568Y-133952401D01*
X116813595Y-133949728D01*
X116810694Y-133949500D01*
X116379306Y-133949500D01*
X116376405Y-133949728D01*
X116342432Y-133952401D01*
X116342431Y-133952401D01*
X116184598Y-133998257D01*
X116043134Y-134081919D01*
X116037219Y-134086507D01*
X115971132Y-134112449D01*
X115901511Y-134098544D01*
X115882781Y-134086507D01*
X115876865Y-134081919D01*
X115735401Y-133998257D01*
X115727443Y-133995945D01*
X115703704Y-133989048D01*
X115577568Y-133952401D01*
X115543595Y-133949728D01*
X115540694Y-133949500D01*
X115109306Y-133949500D01*
X115106405Y-133949728D01*
X115072432Y-133952401D01*
X115072431Y-133952401D01*
X114912775Y-133998786D01*
X114841778Y-133998583D01*
X114782162Y-133960029D01*
X114752854Y-133895364D01*
X114763158Y-133825119D01*
X114788522Y-133788699D01*
X115149319Y-133427902D01*
X115211629Y-133393879D01*
X115238412Y-133391000D01*
X116168058Y-133391000D01*
X116301557Y-133364445D01*
X116427311Y-133312356D01*
X116540487Y-133236735D01*
X117904235Y-131872986D01*
X117979856Y-131759811D01*
X118031945Y-131634057D01*
X118038983Y-131598675D01*
X118058500Y-131500558D01*
X118058500Y-130122682D01*
X118078502Y-130054561D01*
X118132158Y-130008068D01*
X118202432Y-129997964D01*
X118224125Y-130003076D01*
G37*
%TD.AperFunction*%
%TA.AperFunction,Conductor*%
G36*
X121936709Y-129773666D02*
G01*
X121981772Y-129802627D01*
X122020247Y-129841102D01*
X122054273Y-129903414D01*
X122049208Y-129974229D01*
X122020247Y-130019292D01*
X121919532Y-130120006D01*
X121919528Y-130120011D01*
X121831521Y-130265593D01*
X121831520Y-130265594D01*
X121780913Y-130428003D01*
X121774500Y-130498583D01*
X121774500Y-131011810D01*
X121780913Y-131082390D01*
X121831520Y-131244799D01*
X121831520Y-131244800D01*
X121831522Y-131244803D01*
X121854469Y-131282762D01*
X121872594Y-131351405D01*
X121850729Y-131418951D01*
X121835737Y-131437041D01*
X121500681Y-131772096D01*
X121438371Y-131806120D01*
X121411588Y-131809000D01*
X120931938Y-131809000D01*
X120798442Y-131835555D01*
X120798440Y-131835556D01*
X120772716Y-131846211D01*
X120702127Y-131853799D01*
X120638640Y-131822018D01*
X120602413Y-131760960D01*
X120598500Y-131729801D01*
X120598500Y-130181696D01*
X120618502Y-130113575D01*
X120672158Y-130067082D01*
X120724495Y-130055696D01*
X121298344Y-130055696D01*
X121298345Y-130055696D01*
X121318216Y-130053666D01*
X121397708Y-130045546D01*
X121558697Y-129992200D01*
X121703044Y-129903165D01*
X121803583Y-129802625D01*
X121865893Y-129768602D01*
X121936709Y-129773666D01*
G37*
%TD.AperFunction*%
%TD*%
M02*
