%TF.GenerationSoftware,KiCad,Pcbnew,9.0.1+1*%
%TF.CreationDate,2025-08-31T09:06:52+00:00*%
%TF.ProjectId,rcbus-ymf262,72636275-732d-4796-9d66-3236322e6b69,@version@*%
%TF.SameCoordinates,Original*%
%TF.FileFunction,Copper,L1,Top*%
%TF.FilePolarity,Positive*%
%FSLAX46Y46*%
G04 Gerber Fmt 4.6, Leading zero omitted, Abs format (unit mm)*
G04 Created by KiCad (PCBNEW 9.0.1+1) date 2025-08-31 09:06:52*
%MOMM*%
%LPD*%
G01*
G04 APERTURE LIST*
G04 Aperture macros list*
%AMRoundRect*
0 Rectangle with rounded corners*
0 $1 Rounding radius*
0 $2 $3 $4 $5 $6 $7 $8 $9 X,Y pos of 4 corners*
0 Add a 4 corners polygon primitive as box body*
4,1,4,$2,$3,$4,$5,$6,$7,$8,$9,$2,$3,0*
0 Add four circle primitives for the rounded corners*
1,1,$1+$1,$2,$3*
1,1,$1+$1,$4,$5*
1,1,$1+$1,$6,$7*
1,1,$1+$1,$8,$9*
0 Add four rect primitives between the rounded corners*
20,1,$1+$1,$2,$3,$4,$5,0*
20,1,$1+$1,$4,$5,$6,$7,0*
20,1,$1+$1,$6,$7,$8,$9,0*
20,1,$1+$1,$8,$9,$2,$3,0*%
G04 Aperture macros list end*
%TA.AperFunction,SMDPad,CuDef*%
%ADD10RoundRect,0.237500X0.300000X0.237500X-0.300000X0.237500X-0.300000X-0.237500X0.300000X-0.237500X0*%
%TD*%
%TA.AperFunction,ComponentPad*%
%ADD11R,2.500000X1.800000*%
%TD*%
%TA.AperFunction,ComponentPad*%
%ADD12R,1.800000X2.500000*%
%TD*%
%TA.AperFunction,ComponentPad*%
%ADD13R,1.700000X1.700000*%
%TD*%
%TA.AperFunction,ComponentPad*%
%ADD14C,1.700000*%
%TD*%
%TA.AperFunction,ComponentPad*%
%ADD15O,1.700000X1.700000*%
%TD*%
%TA.AperFunction,SMDPad,CuDef*%
%ADD16RoundRect,0.150000X0.150000X-0.875000X0.150000X0.875000X-0.150000X0.875000X-0.150000X-0.875000X0*%
%TD*%
%TA.AperFunction,SMDPad,CuDef*%
%ADD17RoundRect,0.237500X-0.237500X0.300000X-0.237500X-0.300000X0.237500X-0.300000X0.237500X0.300000X0*%
%TD*%
%TA.AperFunction,SMDPad,CuDef*%
%ADD18RoundRect,0.137500X0.137500X-0.862500X0.137500X0.862500X-0.137500X0.862500X-0.137500X-0.862500X0*%
%TD*%
%TA.AperFunction,SMDPad,CuDef*%
%ADD19RoundRect,0.250000X-0.650000X-0.750000X0.650000X-0.750000X0.650000X0.750000X-0.650000X0.750000X0*%
%TD*%
%TA.AperFunction,SMDPad,CuDef*%
%ADD20RoundRect,0.237500X-0.287500X-0.237500X0.287500X-0.237500X0.287500X0.237500X-0.287500X0.237500X0*%
%TD*%
%TA.AperFunction,SMDPad,CuDef*%
%ADD21RoundRect,0.150000X0.150000X-0.650000X0.150000X0.650000X-0.150000X0.650000X-0.150000X-0.650000X0*%
%TD*%
%TA.AperFunction,SMDPad,CuDef*%
%ADD22RoundRect,0.237500X-0.300000X-0.237500X0.300000X-0.237500X0.300000X0.237500X-0.300000X0.237500X0*%
%TD*%
%TA.AperFunction,SMDPad,CuDef*%
%ADD23RoundRect,0.237500X-0.250000X-0.237500X0.250000X-0.237500X0.250000X0.237500X-0.250000X0.237500X0*%
%TD*%
%TA.AperFunction,SMDPad,CuDef*%
%ADD24RoundRect,0.237500X-0.237500X0.250000X-0.237500X-0.250000X0.237500X-0.250000X0.237500X0.250000X0*%
%TD*%
%TA.AperFunction,SMDPad,CuDef*%
%ADD25RoundRect,0.237500X0.237500X-0.300000X0.237500X0.300000X-0.237500X0.300000X-0.237500X-0.300000X0*%
%TD*%
%TA.AperFunction,SMDPad,CuDef*%
%ADD26RoundRect,0.237500X0.250000X0.237500X-0.250000X0.237500X-0.250000X-0.237500X0.250000X-0.237500X0*%
%TD*%
%TA.AperFunction,SMDPad,CuDef*%
%ADD27RoundRect,0.237500X0.237500X-0.250000X0.237500X0.250000X-0.237500X0.250000X-0.237500X-0.250000X0*%
%TD*%
%TA.AperFunction,SMDPad,CuDef*%
%ADD28RoundRect,0.150000X0.150000X-0.825000X0.150000X0.825000X-0.150000X0.825000X-0.150000X-0.825000X0*%
%TD*%
%TA.AperFunction,SMDPad,CuDef*%
%ADD29RoundRect,0.250000X-0.325000X-0.650000X0.325000X-0.650000X0.325000X0.650000X-0.325000X0.650000X0*%
%TD*%
%TA.AperFunction,SMDPad,CuDef*%
%ADD30RoundRect,0.237500X0.287500X0.237500X-0.287500X0.237500X-0.287500X-0.237500X0.287500X-0.237500X0*%
%TD*%
%TA.AperFunction,ViaPad*%
%ADD31C,0.685800*%
%TD*%
%TA.AperFunction,Conductor*%
%ADD32C,0.381000*%
%TD*%
G04 APERTURE END LIST*
D10*
%TO.P,C1,1*%
%TO.N,VCC*%
X112112500Y-156750000D03*
%TO.P,C1,2*%
%TO.N,GND*%
X110387500Y-156750000D03*
%TD*%
%TO.P,C7,1*%
%TO.N,+5VA*%
X112112500Y-143000000D03*
%TO.P,C7,2*%
%TO.N,GND*%
X110387500Y-143000000D03*
%TD*%
D11*
%TO.P,CON1,R*%
%TO.N,Net-(C18-Pad1)*%
X149069000Y-130095000D03*
%TO.P,CON1,RN*%
X149069000Y-127595000D03*
D12*
%TO.P,CON1,S*%
%TO.N,GND*%
X154069000Y-125095000D03*
D11*
%TO.P,CON1,T*%
%TO.N,Net-(C17-Pad1)*%
X149069000Y-120095000D03*
%TO.P,CON1,TN*%
X149069000Y-122595000D03*
%TD*%
D13*
%TO.P,JP1,1,Pin_1*%
%TO.N,Net-(JP1-Pin_1)*%
X65000000Y-156160000D03*
D14*
%TO.P,JP1,2,Pin_2*%
%TO.N,VCC*%
X62460000Y-156160000D03*
%TO.P,JP1,3,Pin_3*%
%TO.N,Net-(JP1-Pin_3)*%
X65000000Y-153620000D03*
%TO.P,JP1,4,Pin_4*%
%TO.N,VCC*%
X62460000Y-153620000D03*
%TO.P,JP1,5,Pin_5*%
%TO.N,Net-(JP1-Pin_5)*%
X65000000Y-151080000D03*
%TO.P,JP1,6,Pin_6*%
%TO.N,VCC*%
X62460000Y-151080000D03*
%TO.P,JP1,7,Pin_7*%
%TO.N,Net-(JP1-Pin_7)*%
X65000000Y-148540000D03*
%TO.P,JP1,8,Pin_8*%
%TO.N,VCC*%
X62460000Y-148540000D03*
%TO.P,JP1,9,Pin_9*%
%TO.N,Net-(JP1-Pin_9)*%
X65000000Y-146000000D03*
%TO.P,JP1,10,Pin_10*%
%TO.N,VCC*%
X62460000Y-146000000D03*
%TO.P,JP1,11,Pin_11*%
%TO.N,Net-(JP1-Pin_11)*%
X65000000Y-143460000D03*
%TO.P,JP1,12,Pin_12*%
%TO.N,VCC*%
X62460000Y-143460000D03*
%TD*%
D13*
%TO.P,P1,1,Pin_1*%
%TO.N,unconnected-(P1-Pin_1-Pad1)*%
X62000000Y-163000000D03*
D15*
%TO.P,P1,2,Pin_2*%
%TO.N,unconnected-(P1-Pin_2-Pad2)*%
X64540000Y-163000000D03*
%TO.P,P1,3,Pin_3*%
%TO.N,unconnected-(P1-Pin_3-Pad3)*%
X67080000Y-163000000D03*
%TO.P,P1,4,Pin_4*%
%TO.N,unconnected-(P1-Pin_4-Pad4)*%
X69620000Y-163000000D03*
%TO.P,P1,5,Pin_5*%
%TO.N,unconnected-(P1-Pin_5-Pad5)*%
X72160000Y-163000000D03*
%TO.P,P1,6,Pin_6*%
%TO.N,unconnected-(P1-Pin_6-Pad6)*%
X74700000Y-163000000D03*
%TO.P,P1,7,Pin_7*%
%TO.N,unconnected-(P1-Pin_7-Pad7)*%
X77240000Y-163000000D03*
%TO.P,P1,8,Pin_8*%
%TO.N,unconnected-(P1-Pin_8-Pad8)*%
X79780000Y-163000000D03*
%TO.P,P1,9,Pin_9*%
%TO.N,/A7*%
X82320000Y-163000000D03*
%TO.P,P1,10,Pin_10*%
%TO.N,/A6*%
X84860000Y-163000000D03*
%TO.P,P1,11,Pin_11*%
%TO.N,/A5*%
X87400000Y-163000000D03*
%TO.P,P1,12,Pin_12*%
%TO.N,/A4*%
X89940000Y-163000000D03*
%TO.P,P1,13,Pin_13*%
%TO.N,/A3*%
X92480000Y-163000000D03*
%TO.P,P1,14,Pin_14*%
%TO.N,/A2*%
X95020000Y-163000000D03*
%TO.P,P1,15,Pin_15*%
%TO.N,/A1*%
X97560000Y-163000000D03*
%TO.P,P1,16,Pin_16*%
%TO.N,/A0*%
X100100000Y-163000000D03*
%TO.P,P1,17,Pin_17*%
%TO.N,GND*%
X102640000Y-163000000D03*
%TO.P,P1,18,Pin_18*%
%TO.N,VCC*%
X105180000Y-163000000D03*
%TO.P,P1,19,Pin_19*%
%TO.N,unconnected-(P1-Pin_19-Pad19)*%
X107720000Y-163000000D03*
%TO.P,P1,20,Pin_20*%
%TO.N,/~{RESET}*%
X110260000Y-163000000D03*
%TO.P,P1,21,Pin_21*%
%TO.N,unconnected-(P1-Pin_21-Pad21)*%
X112800000Y-163000000D03*
%TO.P,P1,22,Pin_22*%
%TO.N,/~{INT}*%
X115340000Y-163000000D03*
%TO.P,P1,23,Pin_23*%
%TO.N,unconnected-(P1-Pin_23-Pad23)*%
X117880000Y-163000000D03*
%TO.P,P1,24,Pin_24*%
%TO.N,/~{WR}*%
X120420000Y-163000000D03*
%TO.P,P1,25,Pin_25*%
%TO.N,/~{RD}*%
X122960000Y-163000000D03*
%TO.P,P1,26,Pin_26*%
%TO.N,/~{IORQ}*%
X125500000Y-163000000D03*
%TO.P,P1,27,Pin_27*%
%TO.N,/D0*%
X128040000Y-163000000D03*
%TO.P,P1,28,Pin_28*%
%TO.N,/D1*%
X130580000Y-163000000D03*
%TO.P,P1,29,Pin_29*%
%TO.N,/D2*%
X133120000Y-163000000D03*
%TO.P,P1,30,Pin_30*%
%TO.N,/D3*%
X135660000Y-163000000D03*
%TO.P,P1,31,Pin_31*%
%TO.N,/D4*%
X138200000Y-163000000D03*
%TO.P,P1,32,Pin_32*%
%TO.N,/D5*%
X140740000Y-163000000D03*
%TO.P,P1,33,Pin_33*%
%TO.N,/D6*%
X143280000Y-163000000D03*
%TO.P,P1,34,Pin_34*%
%TO.N,/D7*%
X145820000Y-163000000D03*
%TO.P,P1,35,Pin_35*%
%TO.N,unconnected-(P1-Pin_35-Pad35)*%
X148360000Y-163000000D03*
%TO.P,P1,36,Pin_36*%
%TO.N,unconnected-(P1-Pin_36-Pad36)*%
X150900000Y-163000000D03*
%TO.P,P1,37,Pin_37*%
%TO.N,unconnected-(P1-Pin_37-Pad37)*%
X153440000Y-163000000D03*
%TO.P,P1,38,Pin_38*%
%TO.N,unconnected-(P1-Pin_38-Pad38)*%
X155980000Y-163000000D03*
%TO.P,P1,39,Pin_39*%
%TO.N,unconnected-(P1-Pin_39-Pad39)*%
X158520000Y-163000000D03*
%TD*%
D16*
%TO.P,U1,1,G*%
%TO.N,/~{IORQ}*%
X80880000Y-156500000D03*
%TO.P,U1,2,P0*%
%TO.N,/A7*%
X82150000Y-156500000D03*
%TO.P,U1,3,R0*%
%TO.N,Net-(JP1-Pin_11)*%
X83420000Y-156500000D03*
%TO.P,U1,4,P1*%
%TO.N,/A6*%
X84690000Y-156500000D03*
%TO.P,U1,5,R1*%
%TO.N,Net-(JP1-Pin_9)*%
X85960000Y-156500000D03*
%TO.P,U1,6,P2*%
%TO.N,/A5*%
X87230000Y-156500000D03*
%TO.P,U1,7,R2*%
%TO.N,Net-(JP1-Pin_7)*%
X88500000Y-156500000D03*
%TO.P,U1,8,P3*%
%TO.N,/A4*%
X89770000Y-156500000D03*
%TO.P,U1,9,R3*%
%TO.N,Net-(JP1-Pin_5)*%
X91040000Y-156500000D03*
%TO.P,U1,10,GND*%
%TO.N,GND*%
X92310000Y-156500000D03*
%TO.P,U1,11,P4*%
%TO.N,/A3*%
X92310000Y-147200000D03*
%TO.P,U1,12,R4*%
%TO.N,Net-(JP1-Pin_3)*%
X91040000Y-147200000D03*
%TO.P,U1,13,P5*%
%TO.N,/A2*%
X89770000Y-147200000D03*
%TO.P,U1,14,R5*%
%TO.N,Net-(JP1-Pin_1)*%
X88500000Y-147200000D03*
%TO.P,U1,15,P6*%
%TO.N,GND*%
X87230000Y-147200000D03*
%TO.P,U1,16,R6*%
X85960000Y-147200000D03*
%TO.P,U1,17,P7*%
X84690000Y-147200000D03*
%TO.P,U1,18,R7*%
X83420000Y-147200000D03*
%TO.P,U1,19,P=R*%
%TO.N,/~{CS}*%
X82150000Y-147200000D03*
%TO.P,U1,20,VCC*%
%TO.N,VCC*%
X80880000Y-147200000D03*
%TD*%
D17*
%TO.P,C11,1*%
%TO.N,Net-(U3-AOUT)*%
X126000000Y-127637500D03*
%TO.P,C11,2*%
%TO.N,GND*%
X126000000Y-129362500D03*
%TD*%
%TO.P,C8,1*%
%TO.N,Net-(U3-CV)*%
X116500000Y-130500000D03*
%TO.P,C8,2*%
%TO.N,GND*%
X116500000Y-132225000D03*
%TD*%
%TO.P,C12,1*%
%TO.N,+5VA*%
X119250000Y-130500000D03*
%TO.P,C12,2*%
%TO.N,GND*%
X119250000Y-132225000D03*
%TD*%
D18*
%TO.P,U2,1,VDD*%
%TO.N,VCC*%
X114515000Y-156650000D03*
%TO.P,U2,2,~{IRQ}*%
%TO.N,unconnected-(U2-~{IRQ}-Pad2)*%
X115785000Y-156650000D03*
%TO.P,U2,3,~{IC}*%
%TO.N,/~{RESET}*%
X117055000Y-156650000D03*
%TO.P,U2,4,A_{0}*%
%TO.N,/A0*%
X118325000Y-156650000D03*
%TO.P,U2,5,A_{1}*%
%TO.N,/A1*%
X119595000Y-156650000D03*
%TO.P,U2,6,~{WR}*%
%TO.N,/~{WR}*%
X120865000Y-156650000D03*
%TO.P,U2,7,~{RD}*%
%TO.N,/~{RD}*%
X122135000Y-156650000D03*
%TO.P,U2,8,~{CS}*%
%TO.N,/~{CS}*%
X123405000Y-156650000D03*
%TO.P,U2,9,TEST*%
%TO.N,unconnected-(U2-TEST-Pad9)*%
X124675000Y-156650000D03*
%TO.P,U2,10,D_{0}*%
%TO.N,/D0*%
X125945000Y-156650000D03*
%TO.P,U2,11,D_{1}*%
%TO.N,/D1*%
X127215000Y-156650000D03*
%TO.P,U2,12,GND*%
%TO.N,GND*%
X128485000Y-156650000D03*
%TO.P,U2,13,D_{2}*%
%TO.N,/D2*%
X128485000Y-147350000D03*
%TO.P,U2,14,D_{3}*%
%TO.N,/D3*%
X127215000Y-147350000D03*
%TO.P,U2,15,D_{4}*%
%TO.N,/D4*%
X125945000Y-147350000D03*
%TO.P,U2,16,D_{5}*%
%TO.N,/D5*%
X124675000Y-147350000D03*
%TO.P,U2,17,D_{6}*%
%TO.N,/D6*%
X123405000Y-147350000D03*
%TO.P,U2,18,D_{7}*%
%TO.N,/D7*%
X122135000Y-147350000D03*
%TO.P,U2,19,SMPBD*%
%TO.N,/SMPBD*%
X120865000Y-147350000D03*
%TO.P,U2,20,SMPAC*%
%TO.N,/SMPAC*%
X119595000Y-147350000D03*
%TO.P,U2,21,DOAB*%
%TO.N,/DOAB*%
X118325000Y-147350000D03*
%TO.P,U2,22,DOCD*%
%TO.N,unconnected-(U2-DOCD-Pad22)*%
X117055000Y-147350000D03*
%TO.P,U2,23,\u03A6SY*%
%TO.N,/DAC_CLK*%
X115785000Y-147350000D03*
%TO.P,U2,24,\u03A6M*%
%TO.N,/CLK*%
X114515000Y-147350000D03*
%TD*%
D10*
%TO.P,C6,1*%
%TO.N,VCC*%
X80862500Y-145000000D03*
%TO.P,C6,2*%
%TO.N,GND*%
X79137500Y-145000000D03*
%TD*%
D19*
%TO.P,Y1,1,EN*%
%TO.N,VCC*%
X100500000Y-148750000D03*
%TO.P,Y1,2,GND*%
%TO.N,GND*%
X105580000Y-148750000D03*
%TO.P,Y1,3,OUT*%
%TO.N,/CLK*%
X105580000Y-144750000D03*
%TO.P,Y1,4,Vdd*%
%TO.N,VCC*%
X100500000Y-144750000D03*
%TD*%
D20*
%TO.P,L2,1,1*%
%TO.N,+5VA*%
X149792400Y-147368100D03*
%TO.P,L2,2,2*%
%TO.N,Net-(C3-Pad1)*%
X151542400Y-147368100D03*
%TD*%
D21*
%TO.P,U3,1,VDD*%
%TO.N,+5VA*%
X114555000Y-143250000D03*
%TO.P,U3,2,GND*%
%TO.N,GND*%
X115825000Y-143250000D03*
%TO.P,U3,3,VDD*%
%TO.N,+5VA*%
X117095000Y-143250000D03*
%TO.P,U3,4,DIN*%
%TO.N,/DOAB*%
X118365000Y-143250000D03*
%TO.P,U3,5,CLK*%
%TO.N,/DAC_CLK*%
X119635000Y-143250000D03*
%TO.P,U3,6,FSEL*%
%TO.N,+5VA*%
X120905000Y-143250000D03*
%TO.P,U3,7,SMP2*%
%TO.N,/SMPBD*%
X122175000Y-143250000D03*
%TO.P,U3,8,SMP1*%
%TO.N,/SMPAC*%
X123445000Y-143250000D03*
%TO.P,U3,9,TST1*%
%TO.N,+5VA*%
X123445000Y-136750000D03*
%TO.P,U3,10,CH1*%
%TO.N,/AUDIO_CH1*%
X122175000Y-136750000D03*
%TO.P,U3,11,CH2*%
%TO.N,/AUDIO_CH2*%
X120905000Y-136750000D03*
%TO.P,U3,12,SWIN*%
%TO.N,Net-(U3-SWIN)*%
X119635000Y-136750000D03*
%TO.P,U3,13,AOUT*%
%TO.N,Net-(U3-AOUT)*%
X118365000Y-136750000D03*
%TO.P,U3,14,MP*%
%TO.N,Net-(U3-MP)*%
X117095000Y-136750000D03*
%TO.P,U3,15,TST2*%
%TO.N,unconnected-(U3-TST2-Pad15)*%
X115825000Y-136750000D03*
%TO.P,U3,16,CV*%
%TO.N,Net-(U3-CV)*%
X114555000Y-136750000D03*
%TD*%
D22*
%TO.P,C2,1*%
%TO.N,VCC*%
X133304900Y-147368100D03*
%TO.P,C2,2*%
%TO.N,GND*%
X135029900Y-147368100D03*
%TD*%
D23*
%TO.P,R6,1*%
%TO.N,Net-(JP1-Pin_1)*%
X73400000Y-156020000D03*
%TO.P,R6,2*%
%TO.N,GND*%
X75225000Y-156020000D03*
%TD*%
D17*
%TO.P,C13,1*%
%TO.N,/L*%
X125000000Y-117637500D03*
%TO.P,C13,2*%
%TO.N,Net-(U4C--)*%
X125000000Y-119362500D03*
%TD*%
D24*
%TO.P,R10,1*%
%TO.N,Net-(C15-Pad2)*%
X137000000Y-120337500D03*
%TO.P,R10,2*%
%TO.N,Net-(C17-Pad1)*%
X137000000Y-122162500D03*
%TD*%
D25*
%TO.P,C9,1*%
%TO.N,/AUDIO_CH2*%
X120500000Y-119362500D03*
%TO.P,C9,2*%
%TO.N,GND*%
X120500000Y-117637500D03*
%TD*%
D23*
%TO.P,R5,1*%
%TO.N,Net-(JP1-Pin_3)*%
X73400000Y-153510000D03*
%TO.P,R5,2*%
%TO.N,GND*%
X75225000Y-153510000D03*
%TD*%
D26*
%TO.P,R9,1*%
%TO.N,Net-(U4D--)*%
X115750000Y-117500000D03*
%TO.P,R9,2*%
%TO.N,/R*%
X113925000Y-117500000D03*
%TD*%
D25*
%TO.P,C17,1*%
%TO.N,Net-(C17-Pad1)*%
X142250000Y-121862500D03*
%TO.P,C17,2*%
%TO.N,GND*%
X142250000Y-120137500D03*
%TD*%
D27*
%TO.P,R7,1*%
%TO.N,Net-(U3-SWIN)*%
X122250000Y-132325000D03*
%TO.P,R7,2*%
%TO.N,Net-(U4B--)*%
X122250000Y-130500000D03*
%TD*%
%TO.P,R8,1*%
%TO.N,Net-(U4C--)*%
X122750000Y-119412500D03*
%TO.P,R8,2*%
%TO.N,/L*%
X122750000Y-117587500D03*
%TD*%
D23*
%TO.P,R3,1*%
%TO.N,Net-(JP1-Pin_7)*%
X73400000Y-148490000D03*
%TO.P,R3,2*%
%TO.N,GND*%
X75225000Y-148490000D03*
%TD*%
%TO.P,R1,1*%
%TO.N,Net-(JP1-Pin_11)*%
X73225000Y-143470000D03*
%TO.P,R1,2*%
%TO.N,GND*%
X75050000Y-143470000D03*
%TD*%
D25*
%TO.P,C10,1*%
%TO.N,/AUDIO_CH1*%
X117750000Y-119362500D03*
%TO.P,C10,2*%
%TO.N,GND*%
X117750000Y-117637500D03*
%TD*%
D23*
%TO.P,R2,1*%
%TO.N,Net-(JP1-Pin_9)*%
X73225000Y-146060000D03*
%TO.P,R2,2*%
%TO.N,GND*%
X75050000Y-146060000D03*
%TD*%
D28*
%TO.P,U4,1*%
%TO.N,Net-(U3-MP)*%
X115327500Y-127975000D03*
%TO.P,U4,2,-*%
X116597500Y-127975000D03*
%TO.P,U4,3,+*%
%TO.N,Net-(U3-CV)*%
X117867500Y-127975000D03*
%TO.P,U4,4,V+*%
%TO.N,+5VA*%
X119137500Y-127975000D03*
%TO.P,U4,5,+*%
%TO.N,Net-(U3-AOUT)*%
X120407500Y-127975000D03*
%TO.P,U4,6,-*%
%TO.N,Net-(U4B--)*%
X121677500Y-127975000D03*
%TO.P,U4,7*%
X122947500Y-127975000D03*
%TO.P,U4,8*%
%TO.N,/L*%
X122947500Y-123025000D03*
%TO.P,U4,9,-*%
%TO.N,Net-(U4C--)*%
X121677500Y-123025000D03*
%TO.P,U4,10,+*%
%TO.N,/AUDIO_CH2*%
X120407500Y-123025000D03*
%TO.P,U4,11,V-*%
%TO.N,GND*%
X119137500Y-123025000D03*
%TO.P,U4,12,+*%
%TO.N,/AUDIO_CH1*%
X117867500Y-123025000D03*
%TO.P,U4,13,-*%
%TO.N,Net-(U4D--)*%
X116597500Y-123025000D03*
%TO.P,U4,14*%
%TO.N,/R*%
X115327500Y-123025000D03*
%TD*%
D25*
%TO.P,C16,1*%
%TO.N,/R*%
X131964600Y-117750000D03*
%TO.P,C16,2*%
%TO.N,Net-(C16-Pad2)*%
X131964600Y-116025000D03*
%TD*%
D29*
%TO.P,C4,1*%
%TO.N,Net-(C3-Pad1)*%
X143692400Y-147368100D03*
%TO.P,C4,2*%
%TO.N,GND*%
X146642400Y-147368100D03*
%TD*%
D23*
%TO.P,R4,1*%
%TO.N,Net-(JP1-Pin_5)*%
X73400000Y-151000000D03*
%TO.P,R4,2*%
%TO.N,GND*%
X75225000Y-151000000D03*
%TD*%
D29*
%TO.P,C5,1*%
%TO.N,+5VA*%
X154192400Y-146868100D03*
%TO.P,C5,2*%
%TO.N,GND*%
X157142400Y-146868100D03*
%TD*%
D25*
%TO.P,C18,1*%
%TO.N,Net-(C18-Pad1)*%
X142239600Y-117750000D03*
%TO.P,C18,2*%
%TO.N,GND*%
X142239600Y-116025000D03*
%TD*%
%TO.P,C15,1*%
%TO.N,/L*%
X132000000Y-121862500D03*
%TO.P,C15,2*%
%TO.N,Net-(C15-Pad2)*%
X132000000Y-120137500D03*
%TD*%
D24*
%TO.P,R11,1*%
%TO.N,Net-(C16-Pad2)*%
X137014600Y-115975000D03*
%TO.P,R11,2*%
%TO.N,Net-(C18-Pad1)*%
X137014600Y-117800000D03*
%TD*%
D22*
%TO.P,C19,1*%
%TO.N,VCC*%
X100387500Y-142250000D03*
%TO.P,C19,2*%
%TO.N,GND*%
X102112500Y-142250000D03*
%TD*%
%TO.P,C3,1*%
%TO.N,Net-(C3-Pad1)*%
X138804900Y-147368100D03*
%TO.P,C3,2*%
%TO.N,GND*%
X140529900Y-147368100D03*
%TD*%
D30*
%TO.P,L1,1,1*%
%TO.N,Net-(C3-Pad1)*%
X137667400Y-142368100D03*
%TO.P,L1,2,2*%
%TO.N,VCC*%
X135917400Y-142368100D03*
%TD*%
D10*
%TO.P,C14,1*%
%TO.N,Net-(U4D--)*%
X115612500Y-119500000D03*
%TO.P,C14,2*%
%TO.N,/R*%
X113887500Y-119500000D03*
%TD*%
D31*
%TO.N,VCC*%
X92212600Y-154250000D03*
X100500000Y-154250000D03*
%TO.N,GND*%
X76700000Y-153500000D03*
X76143018Y-144056982D03*
X61000000Y-135000000D03*
X81000000Y-130000000D03*
X71000000Y-135000000D03*
X86000000Y-115000000D03*
X86000000Y-140000000D03*
X91000000Y-140000000D03*
X96000000Y-135000000D03*
X91000000Y-125000000D03*
X101000000Y-135000000D03*
X81000000Y-125000000D03*
X86000000Y-130000000D03*
X61000000Y-140000000D03*
X76000000Y-115000000D03*
X76000000Y-130000000D03*
X106000000Y-140000000D03*
X81000000Y-115000000D03*
X61000000Y-155000000D03*
X71000000Y-140000000D03*
X81000000Y-140000000D03*
X128485000Y-158500000D03*
X76700000Y-156000000D03*
X86000000Y-125000000D03*
X91000000Y-135000000D03*
X66000000Y-125000000D03*
X101000000Y-120000000D03*
X126000000Y-131000000D03*
X76700000Y-148500000D03*
X101000000Y-140000000D03*
X115800000Y-141400000D03*
X61000000Y-130000000D03*
X119000000Y-120750000D03*
X101000000Y-130000000D03*
X76000000Y-120000000D03*
X83731069Y-145881900D03*
X91000000Y-120000000D03*
X76000000Y-140000000D03*
X106000000Y-115000000D03*
X119250000Y-133750000D03*
X61000000Y-150000000D03*
X96000000Y-120000000D03*
X96000000Y-130000000D03*
X115000000Y-132250000D03*
X66000000Y-140000000D03*
X96000000Y-115000000D03*
X61000000Y-160000000D03*
X101000000Y-115000000D03*
X106000000Y-135000000D03*
X86000000Y-120000000D03*
X61000000Y-145000000D03*
X143702100Y-115987500D03*
X71000000Y-120000000D03*
X92955615Y-158503700D03*
X106000000Y-120000000D03*
X106000000Y-130000000D03*
X76000000Y-125000000D03*
X91000000Y-115000000D03*
X76700000Y-146000000D03*
X81000000Y-120000000D03*
X96000000Y-125000000D03*
X76700000Y-151000000D03*
X71000000Y-130000000D03*
X91000000Y-130000000D03*
X106000000Y-125000000D03*
X143800000Y-120100000D03*
X86000000Y-135000000D03*
X81000000Y-135000000D03*
X76000000Y-135000000D03*
X71000000Y-125000000D03*
X96000000Y-140000000D03*
X101000000Y-125000000D03*
X66000000Y-135000000D03*
%TO.N,/~{IORQ}*%
X123800000Y-158500000D03*
X85000000Y-154450000D03*
%TO.N,/DAC_CLK*%
X119537412Y-145143729D03*
X116700000Y-145400000D03*
%TO.N,Net-(C3-Pad1)*%
X138817400Y-145468100D03*
X151293900Y-146295300D03*
X144160700Y-145870000D03*
%TO.N,/AUDIO_CH2*%
X124500000Y-128000000D03*
X120500000Y-124500000D03*
%TO.N,+5VA*%
X148595900Y-146504300D03*
%TO.N,Net-(JP1-Pin_1)*%
X88500001Y-150474799D03*
X81368224Y-153118224D03*
%TO.N,Net-(JP1-Pin_9)*%
X85895910Y-151240000D03*
X85983804Y-153449800D03*
%TO.N,Net-(JP1-Pin_11)*%
X72956600Y-144814800D03*
X82937400Y-159600000D03*
%TO.N,Net-(JP1-Pin_3)*%
X78805238Y-153471756D03*
X90500000Y-149817600D03*
%TO.N,Net-(JP1-Pin_5)*%
X80874257Y-151454431D03*
X79176756Y-151880846D03*
%TD*%
D32*
%TO.N,VCC*%
X114515000Y-156650000D02*
X112212500Y-156650000D01*
X80880000Y-145017500D02*
X80862500Y-145000000D01*
X89914144Y-154250000D02*
X92212600Y-154250000D01*
X100500000Y-152000000D02*
X100500000Y-154250000D01*
X100500000Y-149470000D02*
X100620000Y-149350000D01*
X63755500Y-142164500D02*
X75639501Y-142164500D01*
X110750000Y-159000000D02*
X112000000Y-157750000D01*
X133317400Y-147355600D02*
X133304900Y-147368100D01*
X135917400Y-142368100D02*
X135500000Y-142800000D01*
X80880000Y-147200000D02*
X80880000Y-148381974D01*
X86683310Y-150714048D02*
X86683310Y-151019166D01*
X62460000Y-143460000D02*
X62460000Y-156160000D01*
X112000000Y-156750000D02*
X112112500Y-156750000D01*
X62460000Y-143460000D02*
X63755500Y-142164500D01*
X80880000Y-147200000D02*
X80880000Y-145017500D01*
X100500000Y-152000000D02*
X100500000Y-149470000D01*
X107000000Y-159000000D02*
X110750000Y-159000000D01*
X86158741Y-150189479D02*
X86683310Y-150714048D01*
X105180000Y-160820000D02*
X107000000Y-159000000D01*
X80880000Y-148381974D02*
X82687505Y-150189479D01*
X79147876Y-147238600D02*
X80832800Y-147238600D01*
X78000000Y-144524999D02*
X78000000Y-146090724D01*
X100620000Y-144150000D02*
X100620000Y-149350000D01*
X75639501Y-142164500D02*
X78000000Y-144524999D01*
X82687505Y-150189479D02*
X86158741Y-150189479D01*
X78000000Y-146090724D02*
X79147876Y-147238600D01*
X133317400Y-144982600D02*
X133317400Y-147355600D01*
X105180000Y-163000000D02*
X105180000Y-160820000D01*
X112212500Y-156650000D02*
X112112500Y-156750000D01*
X100500000Y-142362500D02*
X100387500Y-142250000D01*
X135500000Y-142800000D02*
X133317400Y-144982600D01*
X86683310Y-151019166D02*
X89914144Y-154250000D01*
X112000000Y-157750000D02*
X112000000Y-156750000D01*
X100500000Y-144750000D02*
X100500000Y-142362500D01*
%TO.N,GND*%
X115825000Y-141425000D02*
X115800000Y-141400000D01*
X86000000Y-149000000D02*
X87230000Y-149000000D01*
X75225000Y-148490000D02*
X76690000Y-148490000D01*
X144311600Y-144826500D02*
X144182500Y-144955600D01*
X135559200Y-147651200D02*
X135029900Y-147368100D01*
X146076600Y-146492700D02*
X146159900Y-146492700D01*
X76690000Y-153510000D02*
X76700000Y-153500000D01*
X75050000Y-143470000D02*
X75556036Y-143470000D01*
X85960000Y-147200000D02*
X85960000Y-148960000D01*
X154931500Y-145469200D02*
X154918000Y-145469200D01*
X148217100Y-145589900D02*
X147368700Y-146438300D01*
X153988900Y-145395600D02*
X154754100Y-145395600D01*
X75225000Y-156020000D02*
X76680000Y-156020000D01*
X153988900Y-145395600D02*
X153951900Y-145358600D01*
X152728000Y-145358600D02*
X151988300Y-144618900D01*
X136333400Y-148415500D02*
X139613600Y-148415500D01*
X119250000Y-132225000D02*
X119250000Y-133750000D01*
X116500000Y-132225000D02*
X115025000Y-132225000D01*
X103169700Y-163000000D02*
X102640000Y-163000000D01*
X75225000Y-153510000D02*
X76690000Y-153510000D01*
X76640000Y-146060000D02*
X76700000Y-146000000D01*
X135569100Y-147651200D02*
X135559200Y-147651200D01*
X156576000Y-146170100D02*
X155632400Y-146170100D01*
X83417900Y-147794174D02*
X83417900Y-149000000D01*
X147368700Y-146438300D02*
X147043500Y-146438300D01*
X83731069Y-146888931D02*
X83731069Y-145881900D01*
X84700000Y-149000000D02*
X86000000Y-149000000D01*
X147015400Y-146466400D02*
X147015400Y-146476700D01*
X115825000Y-143250000D02*
X115825000Y-141425000D01*
X144182500Y-144955600D02*
X143781900Y-144955600D01*
X126000000Y-129362500D02*
X126000000Y-131000000D01*
X155632400Y-146170100D02*
X154931500Y-145469200D01*
X141024400Y-147000700D02*
X141024300Y-147000700D01*
X119137500Y-123025000D02*
X119137500Y-120887500D01*
X147015400Y-146476700D02*
X146642400Y-147368100D01*
X75050000Y-146060000D02*
X76640000Y-146060000D01*
X83731069Y-145731500D02*
X83731069Y-145881900D01*
X144440700Y-144955600D02*
X144539500Y-144955600D01*
X83417900Y-149000000D02*
X84700000Y-149000000D01*
X146159900Y-146492700D02*
X146180700Y-146513500D01*
X136333400Y-148415500D02*
X135569100Y-147651200D01*
X154802100Y-145405200D02*
X154763700Y-145405200D01*
X75556036Y-143470000D02*
X76143018Y-144056982D01*
X140184300Y-147844800D02*
X140157600Y-147871500D01*
X154811700Y-145414800D02*
X154802100Y-145405200D01*
X84690000Y-148990000D02*
X84700000Y-149000000D01*
X140184300Y-147834900D02*
X140184300Y-147844800D01*
X154877300Y-145442000D02*
X154850100Y-145414800D01*
X119137500Y-120887500D02*
X119000000Y-120750000D01*
X140157600Y-147871500D02*
X139613600Y-148415500D01*
X144311600Y-144826500D02*
X144440700Y-144955600D01*
X92310000Y-156500000D02*
X92310000Y-157858085D01*
X154918000Y-145469200D02*
X154890800Y-145442000D01*
X143762500Y-120137500D02*
X143800000Y-120100000D01*
X75225000Y-151000000D02*
X76700000Y-151000000D01*
X128485000Y-156650000D02*
X128485000Y-158500000D01*
X154850100Y-145414800D02*
X154811700Y-145414800D01*
X154890800Y-145442000D02*
X154877300Y-145442000D01*
X92310000Y-157858085D02*
X92955615Y-158503700D01*
X142250000Y-120137500D02*
X143762500Y-120137500D01*
X149628500Y-145589900D02*
X148217100Y-145589900D01*
X87230000Y-149000000D02*
X87230000Y-147664200D01*
X140529900Y-147368100D02*
X140184300Y-147834900D01*
X76690000Y-148490000D02*
X76700000Y-148500000D01*
X115025000Y-132225000D02*
X115000000Y-132250000D01*
X144539500Y-144955600D02*
X146076600Y-146492700D01*
X141743700Y-146993800D02*
X141031300Y-146993800D01*
X76680000Y-156020000D02*
X76700000Y-156000000D01*
X84690000Y-147200000D02*
X84690000Y-148990000D01*
X142239600Y-116025000D02*
X143664600Y-116025000D01*
X151988300Y-144618900D02*
X150599500Y-144618900D01*
X141031300Y-146993800D02*
X141024400Y-147000700D01*
X147043500Y-146438300D02*
X147015400Y-146466400D01*
X153951900Y-145358600D02*
X152728000Y-145358600D01*
X143781900Y-144955600D02*
X141743700Y-146993800D01*
X143664600Y-116025000D02*
X143702100Y-115987500D01*
X85960000Y-148960000D02*
X86000000Y-149000000D01*
X141024300Y-147000700D02*
X140529900Y-147368100D01*
X154763700Y-145405200D02*
X154754100Y-145395600D01*
X83424720Y-145731500D02*
X83731069Y-145731500D01*
X150599500Y-144618900D02*
X149628500Y-145589900D01*
X146180700Y-146513500D02*
X146642400Y-147368100D01*
X83420000Y-147200000D02*
X83731069Y-146888931D01*
X157142400Y-146868100D02*
X156576000Y-146170100D01*
%TO.N,/CLK*%
X105880000Y-144150000D02*
X106980000Y-145250000D01*
X114515000Y-145765000D02*
X114515000Y-147350000D01*
X114000000Y-145250000D02*
X114515000Y-145765000D01*
X106980000Y-145250000D02*
X114000000Y-145250000D01*
%TO.N,/D0*%
X125945000Y-156650000D02*
X125945000Y-157650500D01*
X125945000Y-157650500D02*
X125945000Y-160905000D01*
X125945000Y-160905000D02*
X128040000Y-163000000D01*
%TO.N,/D1*%
X128267400Y-160687400D02*
X130580000Y-163000000D01*
X128173848Y-160687400D02*
X128267400Y-160687400D01*
X127200000Y-159713552D02*
X128173848Y-160687400D01*
X127200000Y-156665000D02*
X127200000Y-159713552D01*
%TO.N,/D2*%
X128485000Y-149235000D02*
X133120000Y-153870000D01*
X128485000Y-147350000D02*
X128485000Y-149235000D01*
X133120000Y-153870000D02*
X133120000Y-163000000D01*
%TO.N,/D3*%
X127215000Y-147350000D02*
X127215000Y-146035000D01*
X135660000Y-155160000D02*
X135660000Y-163000000D01*
X127215000Y-146035000D02*
X127750000Y-145500000D01*
X129499000Y-145999000D02*
X129499000Y-148999000D01*
X129499000Y-148999000D02*
X135660000Y-155160000D01*
X129000000Y-145500000D02*
X129499000Y-145999000D01*
X127750000Y-145500000D02*
X129000000Y-145500000D01*
%TO.N,/D4*%
X138200000Y-156467268D02*
X130135000Y-148402268D01*
X130135000Y-148402268D02*
X130135000Y-145486974D01*
X125945000Y-146147104D02*
X125945000Y-147350000D01*
X138200000Y-163000000D02*
X138200000Y-156467268D01*
X129513026Y-144865000D02*
X127227104Y-144865000D01*
X127227104Y-144865000D02*
X125945000Y-146147104D01*
X130135000Y-145486974D02*
X129513026Y-144865000D01*
%TO.N,/D5*%
X130770000Y-145223948D02*
X129776052Y-144230000D01*
X124675000Y-146519078D02*
X124675000Y-147350000D01*
X130770000Y-148139242D02*
X130770000Y-145223948D01*
X140740000Y-158109242D02*
X130770000Y-148139242D01*
X129776052Y-144230000D02*
X126964078Y-144230000D01*
X126964078Y-144230000D02*
X124675000Y-146519078D01*
X140740000Y-163000000D02*
X140740000Y-158109242D01*
%TO.N,/D6*%
X130039492Y-143594000D02*
X126700638Y-143594000D01*
X143280000Y-159751216D02*
X131406000Y-147877216D01*
X131406000Y-147877216D02*
X131406000Y-144960508D01*
X123405000Y-146791702D02*
X123405000Y-147350000D01*
X126700638Y-143594000D02*
X124390138Y-145904500D01*
X124292202Y-145904500D02*
X123405000Y-146791702D01*
X131406000Y-144960508D02*
X130039492Y-143594000D01*
X143280000Y-163000000D02*
X143280000Y-159751216D01*
X124390138Y-145904500D02*
X124292202Y-145904500D01*
%TO.N,/D7*%
X122135000Y-146350001D02*
X122135000Y-147350000D01*
X130302518Y-142959000D02*
X126437612Y-142959000D01*
X124024934Y-145269500D02*
X123390934Y-145903500D01*
X145820000Y-163000000D02*
X145820000Y-161391776D01*
X126437612Y-142959000D02*
X124127112Y-145269500D01*
X124127112Y-145269500D02*
X124024934Y-145269500D01*
X123390934Y-145903500D02*
X122581501Y-145903500D01*
X132041000Y-144697482D02*
X130302518Y-142959000D01*
X122581501Y-145903500D02*
X122135000Y-146350001D01*
X145820000Y-161391776D02*
X132041000Y-147612776D01*
X132041000Y-147612776D02*
X132041000Y-144697482D01*
%TO.N,/A1*%
X119595000Y-155345000D02*
X118615000Y-154365000D01*
X105945000Y-154615000D02*
X97560000Y-163000000D01*
X107236974Y-154365000D02*
X106986974Y-154615000D01*
X106986974Y-154615000D02*
X105945000Y-154615000D01*
X118615000Y-154365000D02*
X107236974Y-154365000D01*
X119595000Y-156650000D02*
X119595000Y-155345000D01*
%TO.N,/A4*%
X89770000Y-159070000D02*
X89940000Y-159240000D01*
X89940000Y-159240000D02*
X89940000Y-163000000D01*
X89770000Y-156560000D02*
X89770000Y-159070000D01*
X89800000Y-156530000D02*
X89770000Y-156560000D01*
%TO.N,/A3*%
X94000000Y-161480000D02*
X92480000Y-163000000D01*
X94000000Y-153307629D02*
X94000000Y-161480000D01*
X92300000Y-147210000D02*
X92300000Y-151607629D01*
X92300000Y-151607629D02*
X94000000Y-153307629D01*
%TO.N,/A2*%
X93055500Y-151465103D02*
X95000000Y-153409603D01*
X95000000Y-153409603D02*
X95000000Y-162980000D01*
X90215501Y-145729500D02*
X92710820Y-145729500D01*
X92710820Y-145729500D02*
X93055500Y-146074180D01*
X89770000Y-146175001D02*
X90215501Y-145729500D01*
X95000000Y-162980000D02*
X95020000Y-163000000D01*
X93055500Y-146074180D02*
X93055500Y-151465103D01*
X89770000Y-147200000D02*
X89770000Y-146175001D01*
%TO.N,/A5*%
X87200000Y-156530000D02*
X87200000Y-159200000D01*
X87400000Y-159400000D02*
X87400000Y-163000000D01*
X87200000Y-159200000D02*
X87400000Y-159400000D01*
%TO.N,/A6*%
X84700000Y-156510000D02*
X84700000Y-159300000D01*
X84860000Y-159460000D02*
X84860000Y-163000000D01*
X84700000Y-159300000D02*
X84860000Y-159460000D01*
%TO.N,/A7*%
X82150000Y-162830000D02*
X82320000Y-163000000D01*
X82150000Y-156500000D02*
X82150000Y-162830000D01*
%TO.N,/A0*%
X101521500Y-161578500D02*
X101521500Y-160978500D01*
X100100000Y-163000000D02*
X101521500Y-161578500D01*
X118325000Y-155575000D02*
X118325000Y-156650000D01*
X101521500Y-160978500D02*
X107295500Y-155204500D01*
X107295500Y-155204500D02*
X117954500Y-155204500D01*
X117954500Y-155204500D02*
X118325000Y-155575000D01*
%TO.N,/~{CS}*%
X106973948Y-153730000D02*
X118878026Y-153730000D01*
X106723948Y-153980000D02*
X106973948Y-153730000D01*
X100826152Y-155037400D02*
X101883552Y-153980000D01*
X82150000Y-145598586D02*
X82654086Y-145094500D01*
X101883552Y-153980000D02*
X106723948Y-153980000D01*
X122883200Y-155083200D02*
X123405000Y-155605000D01*
X123405000Y-155605000D02*
X123405000Y-156650000D01*
X82150000Y-147200000D02*
X82150000Y-145598586D01*
X92973846Y-145094500D02*
X93690500Y-145811154D01*
X99287400Y-155037400D02*
X100826152Y-155037400D01*
X93690500Y-149440500D02*
X99287400Y-155037400D01*
X93690500Y-145811154D02*
X93690500Y-149440500D01*
X82654086Y-145094500D02*
X92973846Y-145094500D01*
X120231226Y-155083200D02*
X122883200Y-155083200D01*
X118878026Y-153730000D02*
X120231226Y-155083200D01*
%TO.N,/~{RESET}*%
X115400000Y-159200000D02*
X117055000Y-157545000D01*
X117055000Y-156760000D02*
X117000000Y-156705000D01*
X110260000Y-162825300D02*
X113885300Y-159200000D01*
X113885300Y-159200000D02*
X115400000Y-159200000D01*
X117055000Y-157545000D02*
X117055000Y-156760000D01*
%TO.N,/~{WR}*%
X120865000Y-159335000D02*
X120420000Y-159780000D01*
X120420000Y-159780000D02*
X120420000Y-163000000D01*
X120865000Y-156650000D02*
X120865000Y-159335000D01*
%TO.N,/~{IORQ}*%
X80880000Y-155333552D02*
X81763552Y-154450000D01*
X81763552Y-154450000D02*
X85000000Y-154450000D01*
X125500000Y-163000000D02*
X123800000Y-161300000D01*
X123800000Y-161300000D02*
X123800000Y-158500000D01*
X80880000Y-156500000D02*
X80880000Y-155333552D01*
%TO.N,/~{RD}*%
X122135000Y-157650500D02*
X122135000Y-162175000D01*
X122135000Y-162175000D02*
X122960000Y-163000000D01*
X122135000Y-156650000D02*
X122135000Y-157650500D01*
%TO.N,/DAC_CLK*%
X119635000Y-145046141D02*
X119537412Y-145143729D01*
X115785000Y-147350000D02*
X115785000Y-146315000D01*
X115785000Y-146315000D02*
X116700000Y-145400000D01*
X119635000Y-143250000D02*
X119635000Y-145046141D01*
%TO.N,/R*%
X115327500Y-123025000D02*
X115327500Y-120940000D01*
X113925000Y-119462500D02*
X113887500Y-119500000D01*
X113925000Y-117500000D02*
X113925000Y-119462500D01*
X115675000Y-115750000D02*
X129964600Y-115750000D01*
X129964600Y-115750000D02*
X131964600Y-117750000D01*
X113925000Y-117500000D02*
X115675000Y-115750000D01*
X115327500Y-120940000D02*
X113887500Y-119500000D01*
%TO.N,/L*%
X126500000Y-119750000D02*
X126500000Y-118000000D01*
X124950000Y-117587500D02*
X125000000Y-117637500D01*
X126137500Y-117637500D02*
X125000000Y-117637500D01*
X125750000Y-120500000D02*
X126500000Y-119750000D01*
X126500000Y-118000000D02*
X126137500Y-117637500D01*
X128612500Y-121862500D02*
X132000000Y-121862500D01*
X122947500Y-123025000D02*
X123000000Y-122972500D01*
X122750000Y-117587500D02*
X124950000Y-117587500D01*
X126500000Y-119750000D02*
X128612500Y-121862500D01*
X123500000Y-120500000D02*
X125750000Y-120500000D01*
X123000000Y-122972500D02*
X123000000Y-121000000D01*
X123000000Y-121000000D02*
X123500000Y-120500000D01*
%TO.N,/SMPBD*%
X123997879Y-144497879D02*
X123898529Y-144497879D01*
X122175000Y-143250000D02*
X122175000Y-142450001D01*
X120865000Y-146720561D02*
X120865000Y-147350000D01*
X122175000Y-142450001D02*
X122620501Y-142004500D01*
X124190500Y-142349180D02*
X124190500Y-144305258D01*
X122620501Y-142004500D02*
X123845820Y-142004500D01*
X123898529Y-144497879D02*
X123127908Y-145268500D01*
X123127908Y-145268500D02*
X122317061Y-145268500D01*
X123845820Y-142004500D02*
X124190500Y-142349180D01*
X122317061Y-145268500D02*
X120865000Y-146720561D01*
X124190500Y-144305258D02*
X123997879Y-144497879D01*
%TO.N,/DOAB*%
X118365000Y-143250000D02*
X118325000Y-143290000D01*
X118325000Y-143290000D02*
X118325000Y-147350000D01*
%TO.N,/SMPAC*%
X121443827Y-145013625D02*
X120781069Y-145013625D01*
X119595000Y-146199694D02*
X119595000Y-147350000D01*
X123445000Y-144049999D02*
X122879999Y-144615000D01*
X122879999Y-144615000D02*
X121842452Y-144615000D01*
X120781069Y-145013625D02*
X119595000Y-146199694D01*
X123445000Y-143250000D02*
X123445000Y-144049999D01*
X121842452Y-144615000D02*
X121443827Y-145013625D01*
%TO.N,Net-(C3-Pad1)*%
X138817400Y-146985700D02*
X138817400Y-145468100D01*
X138914400Y-147082700D02*
X138817400Y-146985700D01*
X144065400Y-146476700D02*
X143692400Y-147368100D01*
X137667400Y-144318100D02*
X138817400Y-145468100D01*
X144160700Y-145870000D02*
X144065400Y-145965300D01*
X151542400Y-147368100D02*
X151209300Y-146901200D01*
X137667400Y-142368100D02*
X137667400Y-144318100D01*
X144065400Y-145965300D02*
X144065400Y-146476700D01*
X151209300Y-146901200D02*
X151209300Y-146379900D01*
X151209300Y-146379900D02*
X151293900Y-146295300D01*
%TO.N,Net-(U3-CV)*%
X117867500Y-130500000D02*
X117867500Y-127975000D01*
X116500000Y-130500000D02*
X117867500Y-130500000D01*
X117867500Y-132637501D02*
X117867500Y-130500000D01*
X114555000Y-136750000D02*
X114555000Y-135950001D01*
X114555000Y-135950001D02*
X117867500Y-132637501D01*
%TO.N,Net-(U3-AOUT)*%
X120407500Y-127975000D02*
X120407500Y-127423680D01*
X120500000Y-131311578D02*
X120750000Y-131561578D01*
X121276680Y-126554500D02*
X124917000Y-126554500D01*
X120407500Y-127975000D02*
X120500000Y-128067500D01*
X118365000Y-135748552D02*
X118365000Y-136750000D01*
X120750000Y-131561578D02*
X120750000Y-133363552D01*
X120407500Y-127423680D02*
X121276680Y-126554500D01*
X120500000Y-128067500D02*
X120500000Y-131311578D01*
X124917000Y-126554500D02*
X126000000Y-127637500D01*
X120750000Y-133363552D02*
X118365000Y-135748552D01*
%TO.N,Net-(U4C--)*%
X121677500Y-120485000D02*
X122750000Y-119412500D01*
X122750000Y-119412500D02*
X124950000Y-119412500D01*
X124950000Y-119412500D02*
X125000000Y-119362500D01*
X121677500Y-123025000D02*
X121677500Y-120485000D01*
%TO.N,Net-(U4D--)*%
X115695100Y-119417400D02*
X115612500Y-119500000D01*
X115750000Y-117500000D02*
X115695100Y-117785400D01*
X116597500Y-123025000D02*
X116597500Y-120485000D01*
X115695100Y-117785400D02*
X115695100Y-119417400D01*
X116597500Y-120485000D02*
X115612500Y-119500000D01*
%TO.N,Net-(C15-Pad2)*%
X132078000Y-120059500D02*
X136722000Y-120059500D01*
X136722000Y-120059500D02*
X137000000Y-120337500D01*
X132000000Y-120137500D02*
X132078000Y-120059500D01*
%TO.N,/AUDIO_CH2*%
X124500000Y-132778680D02*
X124500000Y-128000000D01*
X120407500Y-123025000D02*
X120407500Y-119455000D01*
X120905000Y-136750000D02*
X120905000Y-136373680D01*
X120500000Y-123117500D02*
X120407500Y-123025000D01*
X120407500Y-119455000D02*
X120500000Y-119362500D01*
X120905000Y-136373680D02*
X124500000Y-132778680D01*
X120500000Y-124500000D02*
X120500000Y-123117500D01*
%TO.N,+5VA*%
X116600000Y-144612600D02*
X117095000Y-144117600D01*
X117600000Y-141400000D02*
X120605000Y-141400000D01*
X115117601Y-144612600D02*
X116600000Y-144612600D01*
X149310400Y-147000700D02*
X149092300Y-147000700D01*
X112312500Y-143200000D02*
X114505000Y-143200000D01*
X149792400Y-147368100D02*
X149310400Y-147000700D01*
X150209800Y-146936100D02*
X149792400Y-147368100D01*
X149092300Y-147000700D02*
X148595900Y-146504300D01*
X154192400Y-146868100D02*
X153662800Y-146081400D01*
X119137500Y-130387500D02*
X119250000Y-130500000D01*
X117095000Y-144117600D02*
X117095000Y-143250000D01*
X128250000Y-131945000D02*
X123445000Y-136750000D01*
X114555000Y-144049999D02*
X115117601Y-144612600D01*
X120905000Y-141700000D02*
X120905000Y-143250000D01*
X153655500Y-146074100D02*
X152365900Y-146074100D01*
X120905000Y-140295000D02*
X120905000Y-143250000D01*
X120605000Y-141400000D02*
X120905000Y-141700000D01*
X112112500Y-143000000D02*
X112312500Y-143200000D01*
X151672700Y-145380900D02*
X150915100Y-145380900D01*
X150216700Y-146929200D02*
X150209800Y-146936100D01*
X121113552Y-125000000D02*
X126750000Y-125000000D01*
X123445000Y-136750000D02*
X123445000Y-137755000D01*
X119137500Y-127975000D02*
X119137500Y-130387500D01*
X152365900Y-146074100D02*
X151672700Y-145380900D01*
X114555000Y-143250000D02*
X114555000Y-144049999D01*
X117095000Y-143250000D02*
X117095000Y-141905000D01*
X117095000Y-141905000D02*
X117600000Y-141400000D01*
X119137500Y-127975000D02*
X119137500Y-126976052D01*
X119137500Y-126976052D02*
X121113552Y-125000000D01*
X114505000Y-143200000D02*
X114555000Y-143250000D01*
X150216700Y-146079300D02*
X150216700Y-146929200D01*
X150216700Y-146079300D02*
X150915100Y-145380900D01*
X123445000Y-137755000D02*
X120905000Y-140295000D01*
X126750000Y-125000000D02*
X128250000Y-126500000D01*
X153662800Y-146081400D02*
X153655500Y-146074100D01*
X128250000Y-126500000D02*
X128250000Y-131945000D01*
%TO.N,Net-(C16-Pad2)*%
X132440500Y-116000000D02*
X136538700Y-116000000D01*
X132250000Y-116000000D02*
X132440500Y-116000000D01*
X136538700Y-116000000D02*
X136729200Y-116000000D01*
%TO.N,Net-(C17-Pad1)*%
X142037500Y-121862500D02*
X142000000Y-121825000D01*
X137337500Y-121825000D02*
X137000000Y-122162500D01*
X142250000Y-121862500D02*
X142037500Y-121862500D01*
X145695000Y-122595000D02*
X149069000Y-122595000D01*
X149069000Y-122595000D02*
X149069000Y-120095000D01*
X142000000Y-121825000D02*
X137337500Y-121825000D01*
X144962500Y-121862500D02*
X145695000Y-122595000D01*
X142250000Y-121862500D02*
X144962500Y-121862500D01*
%TO.N,Net-(U4B--)*%
X122947500Y-129802500D02*
X122947500Y-127975000D01*
X121677500Y-127975000D02*
X121677500Y-129927500D01*
X121677500Y-129927500D02*
X122250000Y-130500000D01*
X122250000Y-130500000D02*
X122947500Y-129802500D01*
%TO.N,Net-(U3-SWIN)*%
X119635000Y-136750000D02*
X119635000Y-135777500D01*
X119635000Y-135777500D02*
X122250000Y-133162500D01*
X122250000Y-133162500D02*
X122250000Y-132325000D01*
%TO.N,Net-(U3-MP)*%
X114000000Y-133500000D02*
X113000000Y-134500000D01*
X115327500Y-127975000D02*
X115327500Y-128922500D01*
X113000000Y-137000000D02*
X113995500Y-137995500D01*
X115628100Y-127975000D02*
X116296900Y-127975000D01*
X117095000Y-137126320D02*
X117095000Y-136750000D01*
X113000000Y-134500000D02*
X113000000Y-137000000D01*
X116225820Y-137995500D02*
X117095000Y-137126320D01*
X115437600Y-127975000D02*
X115628100Y-127975000D01*
X113995500Y-137995500D02*
X116225820Y-137995500D01*
X116296900Y-127975000D02*
X116487400Y-127975000D01*
X114000000Y-130250000D02*
X114000000Y-133500000D01*
X115327500Y-128922500D02*
X114000000Y-130250000D01*
%TO.N,Net-(C18-Pad1)*%
X137490500Y-117775000D02*
X141763700Y-117775000D01*
X151750000Y-117500000D02*
X151750000Y-124914000D01*
X141763700Y-117775000D02*
X141954200Y-117775000D01*
X151750000Y-124914000D02*
X149069000Y-127595000D01*
X142239600Y-117750000D02*
X142489600Y-117500000D01*
X149069000Y-130095000D02*
X149069000Y-127595000D01*
X137300000Y-117775000D02*
X137490500Y-117775000D01*
X142489600Y-117500000D02*
X151750000Y-117500000D01*
%TO.N,Net-(JP1-Pin_1)*%
X74275352Y-154624648D02*
X79861800Y-154624648D01*
X72911600Y-156067000D02*
X65850000Y-156067000D01*
X73400000Y-156020000D02*
X73400000Y-155500000D01*
X88500000Y-147200000D02*
X88500001Y-150474799D01*
X73400000Y-155500000D02*
X74275352Y-154624648D01*
X65850000Y-156067000D02*
X65659500Y-156067000D01*
X73102100Y-156067000D02*
X72911600Y-156067000D01*
X79861800Y-154624648D02*
X81368224Y-153118224D01*
X73400000Y-156020000D02*
X73102100Y-156067000D01*
%TO.N,Net-(JP1-Pin_9)*%
X71765010Y-146060000D02*
X71718010Y-146013000D01*
X82640200Y-151040200D02*
X85696110Y-151040200D01*
X85960000Y-153473604D02*
X85983804Y-153449800D01*
X71718010Y-146013000D02*
X73274510Y-147569500D01*
X65013000Y-146013000D02*
X71718010Y-146013000D01*
X73225000Y-146060000D02*
X71765010Y-146060000D01*
X78580750Y-147569500D02*
X78884850Y-147873600D01*
X73274510Y-147569500D02*
X78580750Y-147569500D01*
X85960000Y-156500000D02*
X85960000Y-153473604D01*
X78884850Y-147873600D02*
X79473600Y-147873600D01*
X79473600Y-147873600D02*
X82640200Y-151040200D01*
X85696110Y-151040200D02*
X85895910Y-151240000D01*
%TO.N,Net-(JP1-Pin_7)*%
X72911600Y-148537000D02*
X72832700Y-148537000D01*
X72832700Y-148537000D02*
X72829700Y-148540000D01*
X83837600Y-152662400D02*
X83712600Y-152787400D01*
X79118462Y-150709000D02*
X77522552Y-150709000D01*
X76224052Y-149410500D02*
X73710500Y-149410500D01*
X86787400Y-152964712D02*
X86485088Y-152662400D01*
X73102100Y-148537000D02*
X72911600Y-148537000D01*
X81694376Y-152330824D02*
X80214234Y-152330824D01*
X73400000Y-149100000D02*
X73400000Y-148490000D01*
X73400000Y-148490000D02*
X73102100Y-148537000D01*
X77522552Y-150709000D02*
X76224052Y-149410500D01*
X88500000Y-155100000D02*
X86787400Y-153387400D01*
X80135000Y-152251590D02*
X80135000Y-151725538D01*
X83712600Y-152787400D02*
X82150952Y-152787400D01*
X88500000Y-155898680D02*
X88500000Y-155100000D01*
X73710500Y-149410500D02*
X73400000Y-149100000D01*
X80214234Y-152330824D02*
X80135000Y-152251590D01*
X86485088Y-152662400D02*
X83837600Y-152662400D01*
X72829700Y-148540000D02*
X65000000Y-148540000D01*
X86787400Y-153387400D02*
X86787400Y-152964712D01*
X80135000Y-151725538D02*
X79118462Y-150709000D01*
X82150952Y-152787400D02*
X81694376Y-152330824D01*
%TO.N,Net-(JP1-Pin_11)*%
X72929400Y-143936800D02*
X73225000Y-143470000D01*
X72927100Y-143460000D02*
X72736600Y-143460000D01*
X83420000Y-156500000D02*
X83420000Y-159117400D01*
X72736600Y-143460000D02*
X65000000Y-143460000D01*
X72956600Y-144814800D02*
X72929400Y-144787600D01*
X72929400Y-144787600D02*
X72929400Y-143936800D01*
X83420000Y-159117400D02*
X82937400Y-159600000D01*
%TO.N,Net-(JP1-Pin_3)*%
X91040000Y-147200000D02*
X91040000Y-149277600D01*
X91040000Y-149277600D02*
X90500000Y-149817600D01*
X65063000Y-153557000D02*
X65000000Y-153620000D01*
X73400000Y-153510000D02*
X73779900Y-153078000D01*
X73779900Y-153078000D02*
X74302400Y-152555500D01*
X77888982Y-152555500D02*
X78805238Y-153471756D01*
X73400000Y-153510000D02*
X73102100Y-153557000D01*
X73102100Y-153557000D02*
X65063000Y-153557000D01*
X74302400Y-152555500D02*
X77888982Y-152555500D01*
%TO.N,Net-(JP1-Pin_5)*%
X80919826Y-151500000D02*
X80874257Y-151454431D01*
X87422400Y-152873222D02*
X87422400Y-152660822D01*
X79137102Y-151920500D02*
X79176756Y-151880846D01*
X73400000Y-151000000D02*
X74320500Y-151920500D01*
X87422400Y-152660822D02*
X86788978Y-152027400D01*
X86788978Y-152027400D02*
X85569758Y-152027400D01*
X85369958Y-151827600D02*
X82089178Y-151827600D01*
X90594499Y-155029500D02*
X89578678Y-155029500D01*
X91040000Y-156500000D02*
X91040000Y-155475001D01*
X81761578Y-151500000D02*
X80919826Y-151500000D01*
X73400000Y-151000000D02*
X73102100Y-151047000D01*
X65033000Y-151047000D02*
X65000000Y-151080000D01*
X85569758Y-152027400D02*
X85369958Y-151827600D01*
X74320500Y-151920500D02*
X79137102Y-151920500D01*
X89578678Y-155029500D02*
X87422400Y-152873222D01*
X91040000Y-155475001D02*
X90594499Y-155029500D01*
X82089178Y-151827600D02*
X81761578Y-151500000D01*
X73102100Y-151047000D02*
X65033000Y-151047000D01*
%TO.N,/AUDIO_CH1*%
X116519346Y-138600000D02*
X115984346Y-139135000D01*
X114940800Y-126427900D02*
X116172100Y-126427900D01*
X113250000Y-128907200D02*
X114091800Y-128065400D01*
X114858700Y-126455700D02*
X114866900Y-126455700D01*
X114883200Y-126439400D02*
X114906200Y-126439400D01*
X117867500Y-124732500D02*
X117867500Y-123025000D01*
X117867500Y-123025000D02*
X117867500Y-119480000D01*
X114100800Y-127983300D02*
X114582000Y-127502100D01*
X114582000Y-126724300D02*
X114834300Y-126472000D01*
X116172100Y-126427900D02*
X117867500Y-124732500D01*
X114866900Y-126455700D02*
X114883200Y-126439400D01*
X112365000Y-137263026D02*
X112365000Y-134236974D01*
X114582000Y-127502100D02*
X114582000Y-126724300D01*
X114834300Y-126472000D02*
X114842400Y-126472000D01*
X114935100Y-126433600D02*
X114940800Y-126427900D01*
X114236974Y-139135000D02*
X112365000Y-137263026D01*
X112365000Y-134236974D02*
X113250000Y-133351974D01*
X114091800Y-128028800D02*
X114100800Y-128019800D01*
X114100800Y-128019800D02*
X114100800Y-127983300D01*
X122175000Y-137825000D02*
X121400000Y-138600000D01*
X122175000Y-136750000D02*
X122175000Y-137825000D01*
X114842400Y-126472000D02*
X114858700Y-126455700D01*
X114091800Y-128065400D02*
X114091800Y-128028800D01*
X113250000Y-133351974D02*
X113250000Y-128907200D01*
X117867500Y-119480000D02*
X117750000Y-119362500D01*
X115984346Y-139135000D02*
X114236974Y-139135000D01*
X121400000Y-138600000D02*
X116519346Y-138600000D01*
X114912000Y-126433600D02*
X114935100Y-126433600D01*
X114906200Y-126439400D02*
X114912000Y-126433600D01*
%TD*%
%TA.AperFunction,Conductor*%
%TO.N,GND*%
G36*
X155002611Y-114575608D02*
G01*
X155442760Y-114593812D01*
X155453109Y-114594669D01*
X155887674Y-114648838D01*
X155897938Y-114650551D01*
X156326544Y-114740420D01*
X156336612Y-114742969D01*
X156756351Y-114867931D01*
X156766183Y-114871307D01*
X157089139Y-114997325D01*
X157174138Y-115030492D01*
X157183675Y-115034675D01*
X157577094Y-115227006D01*
X157586252Y-115231962D01*
X157962439Y-115456120D01*
X157971158Y-115461816D01*
X158327560Y-115716282D01*
X158335767Y-115722669D01*
X158669954Y-116005712D01*
X158677602Y-116012754D01*
X158987245Y-116322397D01*
X158994288Y-116330046D01*
X159277327Y-116664229D01*
X159283717Y-116672439D01*
X159538183Y-117028841D01*
X159543879Y-117037560D01*
X159768037Y-117413747D01*
X159772993Y-117422905D01*
X159965324Y-117816324D01*
X159969507Y-117825861D01*
X160128689Y-118233807D01*
X160132071Y-118243657D01*
X160257026Y-118663373D01*
X160259582Y-118673468D01*
X160349447Y-119102057D01*
X160351161Y-119112329D01*
X160405328Y-119546876D01*
X160406188Y-119557254D01*
X160424392Y-119997388D01*
X160424500Y-120002595D01*
X160424500Y-121337500D01*
X160404498Y-121405621D01*
X160350842Y-121452114D01*
X160298500Y-121463500D01*
X159536531Y-121463500D01*
X159512000Y-121463500D01*
X159416102Y-121463500D01*
X159226667Y-121493503D01*
X159226664Y-121493503D01*
X159226663Y-121493504D01*
X159044259Y-121552771D01*
X158873363Y-121639847D01*
X158718197Y-121752582D01*
X158718194Y-121752584D01*
X158582584Y-121888194D01*
X158582582Y-121888197D01*
X158469847Y-122043363D01*
X158382771Y-122214259D01*
X158349423Y-122316893D01*
X158323503Y-122396667D01*
X158293500Y-122586102D01*
X158293500Y-122666982D01*
X158293500Y-127483469D01*
X158293500Y-127508000D01*
X158293500Y-127603898D01*
X158323503Y-127793333D01*
X158382772Y-127975742D01*
X158469845Y-128146633D01*
X158582580Y-128301800D01*
X158582582Y-128301802D01*
X158582584Y-128301805D01*
X158718194Y-128437415D01*
X158718197Y-128437417D01*
X158718200Y-128437420D01*
X158873367Y-128550155D01*
X159044258Y-128637228D01*
X159226667Y-128696497D01*
X159416102Y-128726500D01*
X159496982Y-128726500D01*
X160298500Y-128726500D01*
X160366621Y-128746502D01*
X160413114Y-128800158D01*
X160424500Y-128852500D01*
X160424500Y-164298500D01*
X160404498Y-164366621D01*
X160350842Y-164413114D01*
X160298500Y-164424500D01*
X159223820Y-164424500D01*
X159155699Y-164404498D01*
X159109206Y-164350842D01*
X159099102Y-164280568D01*
X159128596Y-164215988D01*
X159166615Y-164186234D01*
X159227816Y-164155051D01*
X159399792Y-164030104D01*
X159550104Y-163879792D01*
X159675051Y-163707816D01*
X159771557Y-163518412D01*
X159837246Y-163316243D01*
X159870500Y-163106287D01*
X159870500Y-162893713D01*
X159837246Y-162683757D01*
X159771557Y-162481588D01*
X159675051Y-162292184D01*
X159550104Y-162120208D01*
X159550101Y-162120205D01*
X159550099Y-162120202D01*
X159399797Y-161969900D01*
X159399794Y-161969898D01*
X159399792Y-161969896D01*
X159262939Y-161870467D01*
X159227819Y-161844951D01*
X159227818Y-161844950D01*
X159227816Y-161844949D01*
X159038412Y-161748443D01*
X158836243Y-161682754D01*
X158626287Y-161649500D01*
X158413713Y-161649500D01*
X158203757Y-161682754D01*
X158203754Y-161682754D01*
X158203753Y-161682755D01*
X158001588Y-161748443D01*
X158001586Y-161748444D01*
X157812180Y-161844951D01*
X157640205Y-161969898D01*
X157640202Y-161969900D01*
X157489900Y-162120202D01*
X157489898Y-162120205D01*
X157364949Y-162292183D01*
X157362265Y-162297451D01*
X157313516Y-162349065D01*
X157244600Y-162366129D01*
X157177399Y-162343226D01*
X157137735Y-162297451D01*
X157135197Y-162292471D01*
X157135051Y-162292184D01*
X157010104Y-162120208D01*
X157010101Y-162120205D01*
X157010099Y-162120202D01*
X156859797Y-161969900D01*
X156859794Y-161969898D01*
X156859792Y-161969896D01*
X156722939Y-161870467D01*
X156687819Y-161844951D01*
X156687818Y-161844950D01*
X156687816Y-161844949D01*
X156498412Y-161748443D01*
X156296243Y-161682754D01*
X156086287Y-161649500D01*
X155873713Y-161649500D01*
X155663757Y-161682754D01*
X155663754Y-161682754D01*
X155663753Y-161682755D01*
X155461588Y-161748443D01*
X155461586Y-161748444D01*
X155272180Y-161844951D01*
X155100205Y-161969898D01*
X155100202Y-161969900D01*
X154949900Y-162120202D01*
X154949898Y-162120205D01*
X154824949Y-162292183D01*
X154822265Y-162297451D01*
X154773516Y-162349065D01*
X154704600Y-162366129D01*
X154637399Y-162343226D01*
X154597735Y-162297451D01*
X154595197Y-162292471D01*
X154595051Y-162292184D01*
X154470104Y-162120208D01*
X154470101Y-162120205D01*
X154470099Y-162120202D01*
X154319797Y-161969900D01*
X154319794Y-161969898D01*
X154319792Y-161969896D01*
X154182939Y-161870467D01*
X154147819Y-161844951D01*
X154147818Y-161844950D01*
X154147816Y-161844949D01*
X153958412Y-161748443D01*
X153756243Y-161682754D01*
X153546287Y-161649500D01*
X153333713Y-161649500D01*
X153123757Y-161682754D01*
X153123754Y-161682754D01*
X153123753Y-161682755D01*
X152921588Y-161748443D01*
X152921586Y-161748444D01*
X152732180Y-161844951D01*
X152560205Y-161969898D01*
X152560202Y-161969900D01*
X152409900Y-162120202D01*
X152409898Y-162120205D01*
X152284949Y-162292183D01*
X152282265Y-162297451D01*
X152233516Y-162349065D01*
X152164600Y-162366129D01*
X152097399Y-162343226D01*
X152057735Y-162297451D01*
X152055197Y-162292471D01*
X152055051Y-162292184D01*
X151930104Y-162120208D01*
X151930101Y-162120205D01*
X151930099Y-162120202D01*
X151779797Y-161969900D01*
X151779794Y-161969898D01*
X151779792Y-161969896D01*
X151642939Y-161870467D01*
X151607819Y-161844951D01*
X151607818Y-161844950D01*
X151607816Y-161844949D01*
X151418412Y-161748443D01*
X151216243Y-161682754D01*
X151006287Y-161649500D01*
X150793713Y-161649500D01*
X150583757Y-161682754D01*
X150583754Y-161682754D01*
X150583753Y-161682755D01*
X150381588Y-161748443D01*
X150381586Y-161748444D01*
X150192180Y-161844951D01*
X150020205Y-161969898D01*
X150020202Y-161969900D01*
X149869900Y-162120202D01*
X149869898Y-162120205D01*
X149744949Y-162292183D01*
X149742265Y-162297451D01*
X149693516Y-162349065D01*
X149624600Y-162366129D01*
X149557399Y-162343226D01*
X149517735Y-162297451D01*
X149515197Y-162292471D01*
X149515051Y-162292184D01*
X149390104Y-162120208D01*
X149390101Y-162120205D01*
X149390099Y-162120202D01*
X149239797Y-161969900D01*
X149239794Y-161969898D01*
X149239792Y-161969896D01*
X149102939Y-161870467D01*
X149067819Y-161844951D01*
X149067818Y-161844950D01*
X149067816Y-161844949D01*
X148878412Y-161748443D01*
X148676243Y-161682754D01*
X148466287Y-161649500D01*
X148253713Y-161649500D01*
X148043757Y-161682754D01*
X148043754Y-161682754D01*
X148043753Y-161682755D01*
X147841588Y-161748443D01*
X147841586Y-161748444D01*
X147652180Y-161844951D01*
X147480205Y-161969898D01*
X147480202Y-161969900D01*
X147329900Y-162120202D01*
X147329898Y-162120205D01*
X147204949Y-162292183D01*
X147202265Y-162297451D01*
X147153516Y-162349065D01*
X147084600Y-162366129D01*
X147017399Y-162343226D01*
X146977735Y-162297451D01*
X146975197Y-162292471D01*
X146975051Y-162292184D01*
X146850104Y-162120208D01*
X146850101Y-162120205D01*
X146850099Y-162120202D01*
X146699797Y-161969900D01*
X146699794Y-161969898D01*
X146699792Y-161969896D01*
X146562939Y-161870467D01*
X146519585Y-161814245D01*
X146511000Y-161768531D01*
X146511000Y-161323717D01*
X146510999Y-161323714D01*
X146507915Y-161308209D01*
X146484445Y-161190219D01*
X146432356Y-161064465D01*
X146356734Y-160951289D01*
X146260487Y-160855042D01*
X133886256Y-148480811D01*
X133875630Y-148461353D01*
X133861019Y-148444672D01*
X133858949Y-148430803D01*
X133852230Y-148418499D01*
X133853811Y-148396382D01*
X133850539Y-148374453D01*
X133856294Y-148361669D01*
X133857295Y-148347684D01*
X133870583Y-148329933D01*
X133879686Y-148309715D01*
X133893650Y-148299118D01*
X133899842Y-148290848D01*
X133906663Y-148286085D01*
X133916123Y-148279933D01*
X133918916Y-148279008D01*
X134065750Y-148188440D01*
X134082340Y-148171849D01*
X134093409Y-148164652D01*
X134115275Y-148158103D01*
X134135309Y-148147164D01*
X134148628Y-148148116D01*
X134161422Y-148144285D01*
X134183358Y-148150598D01*
X134206125Y-148152226D01*
X134220006Y-148161146D01*
X134229649Y-148163922D01*
X134236506Y-148171750D01*
X134251195Y-148181190D01*
X134264366Y-148194362D01*
X134412692Y-148285851D01*
X134578123Y-148340668D01*
X134578126Y-148340669D01*
X134680215Y-148351099D01*
X134680215Y-148351100D01*
X134775900Y-148351100D01*
X135283900Y-148351100D01*
X135379585Y-148351100D01*
X135379584Y-148351099D01*
X135481673Y-148340669D01*
X135481676Y-148340668D01*
X135647107Y-148285851D01*
X135795433Y-148194362D01*
X135795439Y-148194357D01*
X135918657Y-148071139D01*
X135918662Y-148071133D01*
X136010151Y-147922807D01*
X136064968Y-147757376D01*
X136064969Y-147757373D01*
X136075399Y-147655284D01*
X136075400Y-147655284D01*
X136075400Y-147622100D01*
X135283900Y-147622100D01*
X135283900Y-148351100D01*
X134775900Y-148351100D01*
X134775900Y-147114100D01*
X135283900Y-147114100D01*
X136075400Y-147114100D01*
X136075400Y-147080915D01*
X136064969Y-146978826D01*
X136064968Y-146978823D01*
X136010151Y-146813392D01*
X135918662Y-146665066D01*
X135918657Y-146665060D01*
X135795439Y-146541842D01*
X135795433Y-146541837D01*
X135647107Y-146450348D01*
X135481676Y-146395531D01*
X135481673Y-146395530D01*
X135379584Y-146385100D01*
X135283900Y-146385100D01*
X135283900Y-147114100D01*
X134775900Y-147114100D01*
X134775900Y-146385100D01*
X134680215Y-146385100D01*
X134578126Y-146395530D01*
X134578123Y-146395531D01*
X134412692Y-146450348D01*
X134264366Y-146541837D01*
X134264360Y-146541842D01*
X134251192Y-146555011D01*
X134247291Y-146557141D01*
X134244898Y-146560890D01*
X134216401Y-146574008D01*
X134188880Y-146589037D01*
X134184445Y-146588719D01*
X134180407Y-146590579D01*
X134149349Y-146586209D01*
X134118065Y-146583972D01*
X134113263Y-146581132D01*
X134110102Y-146580688D01*
X134095972Y-146570908D01*
X134079874Y-146561390D01*
X134076314Y-146558324D01*
X134065750Y-146547760D01*
X134059750Y-146544059D01*
X134052177Y-146537537D01*
X134038101Y-146515780D01*
X134020772Y-146496512D01*
X134018139Y-146484925D01*
X134013612Y-146477928D01*
X134013572Y-146464826D01*
X134008400Y-146442063D01*
X134008400Y-145321010D01*
X134028402Y-145252889D01*
X134045300Y-145231920D01*
X135896716Y-143380503D01*
X135959028Y-143346478D01*
X135985811Y-143343599D01*
X136254077Y-143343599D01*
X136355153Y-143333274D01*
X136386776Y-143322795D01*
X136518916Y-143279008D01*
X136665750Y-143188440D01*
X136681514Y-143172676D01*
X136703305Y-143150886D01*
X136709465Y-143147521D01*
X136713480Y-143141758D01*
X136740226Y-143130724D01*
X136765617Y-143116860D01*
X136772622Y-143117361D01*
X136779112Y-143114684D01*
X136807570Y-143119860D01*
X136836432Y-143121925D01*
X136843725Y-143126437D01*
X136848962Y-143127390D01*
X136871064Y-143143353D01*
X136878391Y-143147886D01*
X136879975Y-143149365D01*
X136919050Y-143188440D01*
X136927221Y-143193479D01*
X136936391Y-143202042D01*
X136948333Y-143222236D01*
X136964024Y-143239680D01*
X136967378Y-143254438D01*
X136972531Y-143263152D01*
X136972085Y-143275150D01*
X136976400Y-143294137D01*
X136976400Y-144386160D01*
X136996556Y-144487489D01*
X136996555Y-144487489D01*
X137002612Y-144517934D01*
X137002955Y-144519657D01*
X137055044Y-144645411D01*
X137130665Y-144758587D01*
X137545709Y-145173631D01*
X137959574Y-145587495D01*
X137993599Y-145649808D01*
X137994058Y-145652008D01*
X138006411Y-145714111D01*
X138006412Y-145714115D01*
X138006413Y-145714116D01*
X138069986Y-145867597D01*
X138069987Y-145867599D01*
X138069988Y-145867600D01*
X138105166Y-145920247D01*
X138126380Y-145987997D01*
X138126400Y-145990247D01*
X138126400Y-146426642D01*
X138106398Y-146494763D01*
X138066550Y-146533881D01*
X138044051Y-146547759D01*
X138044043Y-146547765D01*
X137922065Y-146669743D01*
X137922060Y-146669749D01*
X137831490Y-146816587D01*
X137777227Y-146980340D01*
X137777225Y-146980352D01*
X137766900Y-147081414D01*
X137766900Y-147654777D01*
X137777225Y-147755853D01*
X137831490Y-147919612D01*
X137831491Y-147919614D01*
X137831492Y-147919616D01*
X137872908Y-147986762D01*
X137922060Y-148066450D01*
X137922065Y-148066456D01*
X138044043Y-148188434D01*
X138044049Y-148188439D01*
X138044050Y-148188440D01*
X138190884Y-148279008D01*
X138190886Y-148279008D01*
X138190887Y-148279009D01*
X138354640Y-148333272D01*
X138354641Y-148333272D01*
X138354647Y-148333274D01*
X138455723Y-148343600D01*
X139154076Y-148343599D01*
X139154077Y-148343599D01*
X139255153Y-148333274D01*
X139300103Y-148318379D01*
X139418916Y-148279008D01*
X139565750Y-148188440D01*
X139573000Y-148181189D01*
X139635309Y-148147164D01*
X139706125Y-148152226D01*
X139751195Y-148181190D01*
X139764366Y-148194362D01*
X139912692Y-148285851D01*
X140078123Y-148340668D01*
X140078126Y-148340669D01*
X140180215Y-148351099D01*
X140180215Y-148351100D01*
X140275900Y-148351100D01*
X140783900Y-148351100D01*
X140879585Y-148351100D01*
X140879584Y-148351099D01*
X140981673Y-148340669D01*
X140981676Y-148340668D01*
X141147107Y-148285851D01*
X141295433Y-148194362D01*
X141295439Y-148194357D01*
X141418657Y-148071139D01*
X141418662Y-148071133D01*
X141510151Y-147922807D01*
X141564968Y-147757376D01*
X141564969Y-147757373D01*
X141575399Y-147655284D01*
X141575400Y-147655284D01*
X141575400Y-147622100D01*
X140783900Y-147622100D01*
X140783900Y-148351100D01*
X140275900Y-148351100D01*
X140275900Y-147114100D01*
X140783900Y-147114100D01*
X141575400Y-147114100D01*
X141575400Y-147080915D01*
X141564969Y-146978826D01*
X141564968Y-146978823D01*
X141510151Y-146813392D01*
X141459349Y-146731030D01*
X141420522Y-146668082D01*
X142616900Y-146668082D01*
X142616900Y-148068109D01*
X142627400Y-148170897D01*
X142682585Y-148337434D01*
X142774688Y-148486756D01*
X142774693Y-148486762D01*
X142898737Y-148610806D01*
X142898743Y-148610811D01*
X142898744Y-148610812D01*
X142938211Y-148635155D01*
X143048065Y-148702914D01*
X143214596Y-148758097D01*
X143214597Y-148758097D01*
X143214603Y-148758099D01*
X143317391Y-148768600D01*
X144067408Y-148768599D01*
X144067409Y-148768599D01*
X144170197Y-148758099D01*
X144336734Y-148702914D01*
X144342272Y-148699498D01*
X144486056Y-148610812D01*
X144610112Y-148486756D01*
X144702214Y-148337434D01*
X144757399Y-148170897D01*
X144767848Y-148068616D01*
X145559400Y-148068616D01*
X145570005Y-148172418D01*
X145570006Y-148172421D01*
X145625742Y-148340625D01*
X145718765Y-148491439D01*
X145718770Y-148491445D01*
X145844054Y-148616729D01*
X145844060Y-148616734D01*
X145994874Y-148709757D01*
X146163078Y-148765493D01*
X146163081Y-148765494D01*
X146266883Y-148776099D01*
X146266883Y-148776100D01*
X146388400Y-148776100D01*
X146896400Y-148776100D01*
X147017917Y-148776100D01*
X147017916Y-148776099D01*
X147121718Y-148765494D01*
X147121721Y-148765493D01*
X147289925Y-148709757D01*
X147440739Y-148616734D01*
X147440745Y-148616729D01*
X147566029Y-148491445D01*
X147566034Y-148491439D01*
X147659057Y-148340625D01*
X147714793Y-148172421D01*
X147714794Y-148172418D01*
X147725399Y-148068616D01*
X147725400Y-148068616D01*
X147725400Y-147622100D01*
X146896400Y-147622100D01*
X146896400Y-148776100D01*
X146388400Y-148776100D01*
X146388400Y-147622100D01*
X145559400Y-147622100D01*
X145559400Y-148068616D01*
X144767848Y-148068616D01*
X144767899Y-148068117D01*
X144767900Y-148068117D01*
X144767900Y-147569909D01*
X144767899Y-146670886D01*
X144767899Y-146668092D01*
X144767847Y-146667583D01*
X145559400Y-146667583D01*
X145559400Y-147114100D01*
X146388400Y-147114100D01*
X146388400Y-145960100D01*
X146896400Y-145960100D01*
X146896400Y-147114100D01*
X147725401Y-147114100D01*
X147732316Y-147107184D01*
X147745402Y-147062618D01*
X147799058Y-147016125D01*
X147869332Y-147006021D01*
X147933912Y-147035515D01*
X147940495Y-147041644D01*
X148058258Y-147159407D01*
X148058264Y-147159412D01*
X148196400Y-147251712D01*
X148349889Y-147315289D01*
X148411989Y-147327640D01*
X148474897Y-147360545D01*
X148476503Y-147362124D01*
X148651814Y-147537435D01*
X148651817Y-147537437D01*
X148697721Y-147568109D01*
X148713148Y-147578417D01*
X148758676Y-147632894D01*
X148768494Y-147670377D01*
X148777225Y-147755853D01*
X148831490Y-147919612D01*
X148831491Y-147919614D01*
X148831492Y-147919616D01*
X148872908Y-147986762D01*
X148922060Y-148066450D01*
X148922065Y-148066456D01*
X149044043Y-148188434D01*
X149044049Y-148188439D01*
X149044050Y-148188440D01*
X149190884Y-148279008D01*
X149190886Y-148279008D01*
X149190887Y-148279009D01*
X149354640Y-148333272D01*
X149354641Y-148333272D01*
X149354647Y-148333274D01*
X149455723Y-148343600D01*
X150129076Y-148343599D01*
X150129077Y-148343599D01*
X150230153Y-148333274D01*
X150275103Y-148318379D01*
X150393916Y-148279008D01*
X150540750Y-148188440D01*
X150558299Y-148170891D01*
X150578305Y-148150886D01*
X150640617Y-148116860D01*
X150711432Y-148121925D01*
X150756495Y-148150886D01*
X150794043Y-148188434D01*
X150794049Y-148188439D01*
X150794050Y-148188440D01*
X150940884Y-148279008D01*
X150940886Y-148279008D01*
X150940887Y-148279009D01*
X151104640Y-148333272D01*
X151104641Y-148333272D01*
X151104647Y-148333274D01*
X151205723Y-148343600D01*
X151879076Y-148343599D01*
X151879077Y-148343599D01*
X151980153Y-148333274D01*
X152025103Y-148318379D01*
X152143916Y-148279008D01*
X152290750Y-148188440D01*
X152412740Y-148066450D01*
X152503308Y-147919616D01*
X152557574Y-147755853D01*
X152567900Y-147654777D01*
X152567899Y-147081424D01*
X152566936Y-147072000D01*
X152561229Y-147016125D01*
X152557574Y-146980347D01*
X152541132Y-146930731D01*
X152538693Y-146859778D01*
X152575001Y-146798768D01*
X152638530Y-146767072D01*
X152660738Y-146765100D01*
X152990900Y-146765100D01*
X153059021Y-146785102D01*
X153105514Y-146838758D01*
X153116900Y-146891100D01*
X153116900Y-147568109D01*
X153127400Y-147670897D01*
X153182585Y-147837434D01*
X153274688Y-147986756D01*
X153274693Y-147986762D01*
X153398737Y-148110806D01*
X153398743Y-148110811D01*
X153398744Y-148110812D01*
X153447191Y-148140694D01*
X153548065Y-148202914D01*
X153714596Y-148258097D01*
X153714597Y-148258097D01*
X153714603Y-148258099D01*
X153817391Y-148268600D01*
X154567408Y-148268599D01*
X154567409Y-148268599D01*
X154670197Y-148258099D01*
X154836734Y-148202914D01*
X154860210Y-148188434D01*
X154986056Y-148110812D01*
X155110112Y-147986756D01*
X155202214Y-147837434D01*
X155257399Y-147670897D01*
X155267848Y-147568616D01*
X156059400Y-147568616D01*
X156070005Y-147672418D01*
X156070006Y-147672421D01*
X156125742Y-147840625D01*
X156218765Y-147991439D01*
X156218770Y-147991445D01*
X156344054Y-148116729D01*
X156344060Y-148116734D01*
X156494874Y-148209757D01*
X156663078Y-148265493D01*
X156663081Y-148265494D01*
X156766883Y-148276099D01*
X156766883Y-148276100D01*
X156888400Y-148276100D01*
X157396400Y-148276100D01*
X157517917Y-148276100D01*
X157517916Y-148276099D01*
X157621718Y-148265494D01*
X157621721Y-148265493D01*
X157789925Y-148209757D01*
X157940739Y-148116734D01*
X157940745Y-148116729D01*
X158066029Y-147991445D01*
X158066034Y-147991439D01*
X158159057Y-147840625D01*
X158214793Y-147672421D01*
X158214794Y-147672418D01*
X158225399Y-147568616D01*
X158225400Y-147568616D01*
X158225400Y-147122100D01*
X157396400Y-147122100D01*
X157396400Y-148276100D01*
X156888400Y-148276100D01*
X156888400Y-147122100D01*
X156059400Y-147122100D01*
X156059400Y-147568616D01*
X155267848Y-147568616D01*
X155267900Y-147568109D01*
X155267899Y-146859778D01*
X155267899Y-146168090D01*
X155267847Y-146167583D01*
X156059400Y-146167583D01*
X156059400Y-146614100D01*
X156888400Y-146614100D01*
X157396400Y-146614100D01*
X158225400Y-146614100D01*
X158225400Y-146167583D01*
X158214794Y-146063781D01*
X158214793Y-146063778D01*
X158159057Y-145895574D01*
X158066034Y-145744760D01*
X158066029Y-145744754D01*
X157940745Y-145619470D01*
X157940739Y-145619465D01*
X157789925Y-145526442D01*
X157621721Y-145470706D01*
X157621718Y-145470705D01*
X157517916Y-145460100D01*
X157396400Y-145460100D01*
X157396400Y-146614100D01*
X156888400Y-146614100D01*
X156888400Y-145460100D01*
X156766883Y-145460100D01*
X156663081Y-145470705D01*
X156663078Y-145470706D01*
X156494874Y-145526442D01*
X156344060Y-145619465D01*
X156344054Y-145619470D01*
X156218770Y-145744754D01*
X156218765Y-145744760D01*
X156125742Y-145895574D01*
X156070006Y-146063778D01*
X156070005Y-146063781D01*
X156059400Y-146167583D01*
X155267847Y-146167583D01*
X155257399Y-146065302D01*
X155202214Y-145898765D01*
X155131503Y-145784125D01*
X155110112Y-145749444D01*
X155110111Y-145749443D01*
X155110106Y-145749437D01*
X154986062Y-145625393D01*
X154986056Y-145625388D01*
X154836734Y-145533285D01*
X154670203Y-145478102D01*
X154670191Y-145478100D01*
X154567417Y-145467600D01*
X154567409Y-145467600D01*
X154022013Y-145467600D01*
X153973795Y-145458009D01*
X153857060Y-145409656D01*
X153857058Y-145409655D01*
X153857057Y-145409655D01*
X153808730Y-145400042D01*
X153808729Y-145400041D01*
X153723561Y-145383100D01*
X153723558Y-145383100D01*
X152704312Y-145383100D01*
X152636191Y-145363098D01*
X152615217Y-145346195D01*
X152113191Y-144844169D01*
X152113190Y-144844168D01*
X152113187Y-144844165D01*
X152000011Y-144768544D01*
X151874257Y-144716455D01*
X151874255Y-144716454D01*
X151874251Y-144716453D01*
X151858517Y-144713323D01*
X151858517Y-144713324D01*
X151740761Y-144689900D01*
X151740758Y-144689900D01*
X150847042Y-144689900D01*
X150847038Y-144689900D01*
X150729283Y-144713324D01*
X150729282Y-144713323D01*
X150713548Y-144716453D01*
X150713540Y-144716456D01*
X150639875Y-144746969D01*
X150587821Y-144768531D01*
X150587787Y-144768545D01*
X150474618Y-144844162D01*
X150474616Y-144844163D01*
X149679967Y-145638810D01*
X149679966Y-145638811D01*
X149604344Y-145751988D01*
X149552256Y-145877739D01*
X149552255Y-145877740D01*
X149528863Y-145995337D01*
X149495954Y-146058246D01*
X149434259Y-146093377D01*
X149363364Y-146089576D01*
X149305779Y-146048050D01*
X149300519Y-146040756D01*
X149251012Y-145966664D01*
X149251007Y-145966658D01*
X149133541Y-145849192D01*
X149133535Y-145849187D01*
X149040365Y-145786933D01*
X148995400Y-145756888D01*
X148841911Y-145693311D01*
X148678970Y-145660900D01*
X148678968Y-145660900D01*
X148512832Y-145660900D01*
X148512829Y-145660900D01*
X148349888Y-145693311D01*
X148349883Y-145693313D01*
X148196400Y-145756888D01*
X148058264Y-145849187D01*
X148058258Y-145849192D01*
X147940792Y-145966658D01*
X147940787Y-145966664D01*
X147848487Y-146104800D01*
X147848485Y-146104804D01*
X147794622Y-146234840D01*
X147750074Y-146290121D01*
X147682710Y-146312541D01*
X147613919Y-146294982D01*
X147570972Y-146252766D01*
X147566034Y-146244760D01*
X147566029Y-146244754D01*
X147440745Y-146119470D01*
X147440739Y-146119465D01*
X147289925Y-146026442D01*
X147121721Y-145970706D01*
X147121718Y-145970705D01*
X147017916Y-145960100D01*
X146896400Y-145960100D01*
X146388400Y-145960100D01*
X146266883Y-145960100D01*
X146163081Y-145970705D01*
X146163078Y-145970706D01*
X145994874Y-146026442D01*
X145844060Y-146119465D01*
X145844054Y-146119470D01*
X145718770Y-146244754D01*
X145718765Y-146244760D01*
X145625742Y-146395574D01*
X145570006Y-146563778D01*
X145570005Y-146563781D01*
X145559400Y-146667583D01*
X144767847Y-146667583D01*
X144757399Y-146565303D01*
X144757385Y-146565263D01*
X144757020Y-146561588D01*
X144757032Y-146561523D01*
X144756400Y-146549108D01*
X144756400Y-146519238D01*
X144776402Y-146451117D01*
X144793303Y-146430144D01*
X144815812Y-146407636D01*
X144908112Y-146269500D01*
X144971689Y-146116011D01*
X145004100Y-145953068D01*
X145004100Y-145786932D01*
X144971689Y-145623989D01*
X144908112Y-145470500D01*
X144815812Y-145332364D01*
X144815807Y-145332358D01*
X144698341Y-145214892D01*
X144698335Y-145214887D01*
X144636591Y-145173631D01*
X144560200Y-145122588D01*
X144406711Y-145059011D01*
X144243770Y-145026600D01*
X144243768Y-145026600D01*
X144077632Y-145026600D01*
X144077629Y-145026600D01*
X143914688Y-145059011D01*
X143914683Y-145059013D01*
X143761200Y-145122588D01*
X143623064Y-145214887D01*
X143623058Y-145214892D01*
X143505592Y-145332358D01*
X143505587Y-145332364D01*
X143413288Y-145470500D01*
X143349713Y-145623983D01*
X143349711Y-145623988D01*
X143317300Y-145786929D01*
X143317300Y-145854234D01*
X143297298Y-145922355D01*
X143243642Y-145968848D01*
X143217689Y-145977440D01*
X143214601Y-145978101D01*
X143048065Y-146033285D01*
X142898743Y-146125388D01*
X142898737Y-146125393D01*
X142774693Y-146249437D01*
X142774688Y-146249443D01*
X142682585Y-146398765D01*
X142627402Y-146565296D01*
X142627400Y-146565308D01*
X142616900Y-146668082D01*
X141420522Y-146668082D01*
X141418662Y-146665066D01*
X141418657Y-146665060D01*
X141295439Y-146541842D01*
X141295433Y-146541837D01*
X141147107Y-146450348D01*
X140981676Y-146395531D01*
X140981673Y-146395530D01*
X140879584Y-146385100D01*
X140783900Y-146385100D01*
X140783900Y-147114100D01*
X140275900Y-147114100D01*
X140275900Y-146385100D01*
X140180215Y-146385100D01*
X140078126Y-146395530D01*
X140078123Y-146395531D01*
X139912692Y-146450348D01*
X139764366Y-146541837D01*
X139764360Y-146541842D01*
X139751192Y-146555011D01*
X139747291Y-146557141D01*
X139744898Y-146560890D01*
X139716401Y-146574008D01*
X139688880Y-146589037D01*
X139684445Y-146588719D01*
X139680407Y-146590579D01*
X139649349Y-146586209D01*
X139618065Y-146583972D01*
X139613263Y-146581132D01*
X139610102Y-146580688D01*
X139595972Y-146570908D01*
X139579874Y-146561390D01*
X139576314Y-146558324D01*
X139565750Y-146547760D01*
X139559750Y-146544059D01*
X139552177Y-146537537D01*
X139538101Y-146515780D01*
X139520772Y-146496512D01*
X139518139Y-146484925D01*
X139513612Y-146477928D01*
X139513572Y-146464826D01*
X139508400Y-146442063D01*
X139508400Y-145990247D01*
X139528402Y-145922126D01*
X139529575Y-145920334D01*
X139564812Y-145867600D01*
X139628389Y-145714111D01*
X139660800Y-145551168D01*
X139660800Y-145385032D01*
X139628389Y-145222089D01*
X139564812Y-145068600D01*
X139472512Y-144930464D01*
X139472507Y-144930458D01*
X139355041Y-144812992D01*
X139355035Y-144812987D01*
X139297158Y-144774315D01*
X139216900Y-144720688D01*
X139085891Y-144666422D01*
X139063416Y-144657113D01*
X139063415Y-144657112D01*
X139063411Y-144657111D01*
X139006315Y-144645754D01*
X139001308Y-144644758D01*
X138938399Y-144611850D01*
X138936795Y-144610274D01*
X138395304Y-144068782D01*
X138361279Y-144006470D01*
X138358400Y-143979687D01*
X138358400Y-143294137D01*
X138378402Y-143226016D01*
X138410889Y-143194125D01*
X138409993Y-143192992D01*
X138415745Y-143188442D01*
X138415750Y-143188440D01*
X138537740Y-143066450D01*
X138628308Y-142919616D01*
X138682574Y-142755853D01*
X138692900Y-142654777D01*
X138692899Y-142081424D01*
X138692835Y-142080802D01*
X138682574Y-141980346D01*
X138628309Y-141816587D01*
X138628308Y-141816586D01*
X138628308Y-141816584D01*
X138537740Y-141669750D01*
X138537739Y-141669749D01*
X138537734Y-141669743D01*
X138415756Y-141547765D01*
X138415750Y-141547760D01*
X138414453Y-141546960D01*
X138268916Y-141457192D01*
X138268914Y-141457191D01*
X138268912Y-141457190D01*
X138105159Y-141402927D01*
X138105147Y-141402925D01*
X138004085Y-141392600D01*
X137330722Y-141392600D01*
X137229646Y-141402925D01*
X137065887Y-141457190D01*
X136919049Y-141547760D01*
X136919043Y-141547765D01*
X136881495Y-141585314D01*
X136819183Y-141619340D01*
X136748368Y-141614275D01*
X136703305Y-141585314D01*
X136665756Y-141547765D01*
X136665750Y-141547760D01*
X136664453Y-141546960D01*
X136518916Y-141457192D01*
X136518914Y-141457191D01*
X136518912Y-141457190D01*
X136355159Y-141402927D01*
X136355147Y-141402925D01*
X136254085Y-141392600D01*
X135580722Y-141392600D01*
X135479646Y-141402925D01*
X135315887Y-141457190D01*
X135169049Y-141547760D01*
X135169043Y-141547765D01*
X135047065Y-141669743D01*
X135047060Y-141669749D01*
X134956490Y-141816587D01*
X134902227Y-141980340D01*
X134902225Y-141980352D01*
X134891900Y-142081414D01*
X134891900Y-142378687D01*
X134871898Y-142446808D01*
X134854995Y-142467782D01*
X132874344Y-144448432D01*
X132849090Y-144462222D01*
X132825516Y-144478730D01*
X132818337Y-144479014D01*
X132812032Y-144482458D01*
X132783324Y-144480404D01*
X132754575Y-144481546D01*
X132748383Y-144477905D01*
X132741216Y-144477393D01*
X132718175Y-144460144D01*
X132693373Y-144445562D01*
X132688396Y-144437851D01*
X132684381Y-144434846D01*
X132672802Y-144416185D01*
X132670663Y-144411955D01*
X132653356Y-144370171D01*
X132641919Y-144353055D01*
X132577735Y-144256996D01*
X132577732Y-144256993D01*
X132577728Y-144256988D01*
X130743012Y-142422271D01*
X130743006Y-142422266D01*
X130743000Y-142422262D01*
X130629829Y-142346644D01*
X130612828Y-142339602D01*
X130504078Y-142294556D01*
X130504075Y-142294555D01*
X130472418Y-142288258D01*
X130472416Y-142288257D01*
X130370579Y-142268000D01*
X130370576Y-142268000D01*
X126369554Y-142268000D01*
X126369550Y-142268000D01*
X126267712Y-142288257D01*
X126267712Y-142288258D01*
X126236054Y-142294555D01*
X126236052Y-142294556D01*
X126236048Y-142294557D01*
X126110299Y-142346644D01*
X125997129Y-142422262D01*
X125997122Y-142422267D01*
X125096595Y-143322795D01*
X125034283Y-143356821D01*
X124963468Y-143351756D01*
X124906632Y-143309209D01*
X124881821Y-143242689D01*
X124881500Y-143233700D01*
X124881500Y-142281121D01*
X124881499Y-142281118D01*
X124867043Y-142208443D01*
X124854945Y-142147623D01*
X124802856Y-142021869D01*
X124770241Y-141973057D01*
X124727235Y-141908693D01*
X124727234Y-141908692D01*
X124727231Y-141908688D01*
X124286314Y-141467771D01*
X124286308Y-141467766D01*
X124286305Y-141467764D01*
X124173131Y-141392144D01*
X124047380Y-141340056D01*
X124047379Y-141340055D01*
X124020186Y-141334646D01*
X124006591Y-141331942D01*
X124006590Y-141331941D01*
X123913881Y-141313500D01*
X123913878Y-141313500D01*
X122552443Y-141313500D01*
X122552439Y-141313500D01*
X122459730Y-141331941D01*
X122459730Y-141331942D01*
X122449533Y-141333970D01*
X122418941Y-141340055D01*
X122418940Y-141340056D01*
X122293189Y-141392144D01*
X122180016Y-141467764D01*
X122180014Y-141467765D01*
X121811095Y-141836684D01*
X121748783Y-141870709D01*
X121677967Y-141865644D01*
X121621132Y-141823097D01*
X121596321Y-141756577D01*
X121596000Y-141747588D01*
X121596000Y-140633412D01*
X121616002Y-140565291D01*
X121632905Y-140544317D01*
X122742290Y-139434932D01*
X123981735Y-138195487D01*
X124057356Y-138082312D01*
X124109445Y-137956558D01*
X124109445Y-137956553D01*
X124109447Y-137956551D01*
X124116476Y-137921208D01*
X124116475Y-137921208D01*
X124117098Y-137918081D01*
X124136000Y-137823058D01*
X124136000Y-137788368D01*
X124137339Y-137779258D01*
X124146388Y-137759604D01*
X124153547Y-137733439D01*
X124171242Y-137703520D01*
X124196744Y-137660398D01*
X124242598Y-137502569D01*
X124245500Y-137465694D01*
X124245500Y-136978912D01*
X124265502Y-136910791D01*
X124282405Y-136889817D01*
X128786728Y-132385494D01*
X128786735Y-132385487D01*
X128862356Y-132272311D01*
X128914445Y-132146557D01*
X128914445Y-132146553D01*
X128914447Y-132146550D01*
X128920874Y-132114238D01*
X128920874Y-132114236D01*
X128934714Y-132044658D01*
X128941000Y-132013058D01*
X128941000Y-126431942D01*
X128914445Y-126298443D01*
X128862356Y-126172689D01*
X128823150Y-126114013D01*
X128786735Y-126059513D01*
X128786734Y-126059512D01*
X128786731Y-126059508D01*
X127190494Y-124463271D01*
X127190488Y-124463266D01*
X127181692Y-124457389D01*
X127077311Y-124387644D01*
X126989936Y-124351452D01*
X126951560Y-124335556D01*
X126951557Y-124335555D01*
X126818061Y-124309000D01*
X126818058Y-124309000D01*
X123802693Y-124309000D01*
X123734572Y-124288998D01*
X123688079Y-124235342D01*
X123677975Y-124165068D01*
X123694239Y-124118861D01*
X123699244Y-124110398D01*
X123745098Y-123952569D01*
X123748000Y-123915694D01*
X123748000Y-122134306D01*
X123745098Y-122097431D01*
X123699244Y-121939602D01*
X123699243Y-121939600D01*
X123697032Y-121931990D01*
X123698670Y-121931514D01*
X123691000Y-121894458D01*
X123691000Y-121338411D01*
X123699783Y-121308495D01*
X123706412Y-121278026D01*
X123710226Y-121272930D01*
X123711002Y-121270290D01*
X123727905Y-121249316D01*
X123749316Y-121227905D01*
X123811628Y-121193879D01*
X123838411Y-121191000D01*
X125818058Y-121191000D01*
X125951557Y-121164445D01*
X126077311Y-121112356D01*
X126099760Y-121097356D01*
X126190487Y-121036735D01*
X126410906Y-120816315D01*
X126473216Y-120782292D01*
X126544032Y-120787356D01*
X126589095Y-120816317D01*
X128172008Y-122399231D01*
X128172012Y-122399234D01*
X128265464Y-122461676D01*
X128265466Y-122461678D01*
X128285185Y-122474854D01*
X128285187Y-122474855D01*
X128285189Y-122474856D01*
X128410943Y-122526945D01*
X128544442Y-122553500D01*
X131066253Y-122553500D01*
X131134374Y-122573502D01*
X131173493Y-122613352D01*
X131179658Y-122623347D01*
X131179665Y-122623356D01*
X131301643Y-122745334D01*
X131301649Y-122745339D01*
X131301650Y-122745340D01*
X131448484Y-122835908D01*
X131448486Y-122835908D01*
X131448487Y-122835909D01*
X131612240Y-122890172D01*
X131612241Y-122890172D01*
X131612247Y-122890174D01*
X131713323Y-122900500D01*
X132286676Y-122900499D01*
X132286677Y-122900499D01*
X132387753Y-122890174D01*
X132438524Y-122873350D01*
X132551516Y-122835908D01*
X132698350Y-122745340D01*
X132820340Y-122623350D01*
X132910908Y-122476516D01*
X132965174Y-122312753D01*
X132975500Y-122211677D01*
X132975499Y-121513324D01*
X132973474Y-121493504D01*
X132965174Y-121412246D01*
X132910909Y-121248487D01*
X132910908Y-121248486D01*
X132910908Y-121248484D01*
X132820340Y-121101650D01*
X132807785Y-121089095D01*
X132773760Y-121026787D01*
X132778823Y-120955971D01*
X132793079Y-120928576D01*
X132799619Y-120919070D01*
X132820340Y-120898350D01*
X132876270Y-120807672D01*
X132878057Y-120805076D01*
X132903257Y-120784592D01*
X132927403Y-120762875D01*
X132930974Y-120762063D01*
X132933149Y-120760296D01*
X132944175Y-120759063D01*
X132981858Y-120750500D01*
X135948065Y-120750500D01*
X136016186Y-120770502D01*
X136062679Y-120824158D01*
X136067669Y-120836867D01*
X136089090Y-120901512D01*
X136089091Y-120901514D01*
X136089092Y-120901516D01*
X136156575Y-121010923D01*
X136179660Y-121048350D01*
X136179665Y-121048356D01*
X136292214Y-121160905D01*
X136326240Y-121223217D01*
X136321175Y-121294032D01*
X136292214Y-121339095D01*
X136179665Y-121451643D01*
X136179660Y-121451649D01*
X136089090Y-121598487D01*
X136034827Y-121762240D01*
X136034825Y-121762252D01*
X136024500Y-121863314D01*
X136024501Y-122461676D01*
X136034825Y-122562753D01*
X136089090Y-122726512D01*
X136089091Y-122726514D01*
X136089092Y-122726516D01*
X136100703Y-122745340D01*
X136179660Y-122873350D01*
X136179665Y-122873356D01*
X136301643Y-122995334D01*
X136301649Y-122995339D01*
X136301650Y-122995340D01*
X136448484Y-123085908D01*
X136448486Y-123085908D01*
X136448487Y-123085909D01*
X136612240Y-123140172D01*
X136612241Y-123140172D01*
X136612247Y-123140174D01*
X136713323Y-123150500D01*
X137286676Y-123150499D01*
X137286677Y-123150499D01*
X137387753Y-123140174D01*
X137413229Y-123131732D01*
X137551516Y-123085908D01*
X137698350Y-122995340D01*
X137820340Y-122873350D01*
X137910908Y-122726516D01*
X137952048Y-122602363D01*
X137992460Y-122543996D01*
X138058017Y-122516740D01*
X138071651Y-122516000D01*
X141293123Y-122516000D01*
X141361244Y-122536002D01*
X141400362Y-122575851D01*
X141416718Y-122602367D01*
X141429660Y-122623350D01*
X141429665Y-122623356D01*
X141551643Y-122745334D01*
X141551649Y-122745339D01*
X141551650Y-122745340D01*
X141698484Y-122835908D01*
X141698486Y-122835908D01*
X141698487Y-122835909D01*
X141862240Y-122890172D01*
X141862241Y-122890172D01*
X141862247Y-122890174D01*
X141963323Y-122900500D01*
X142536676Y-122900499D01*
X142536677Y-122900499D01*
X142637753Y-122890174D01*
X142688524Y-122873350D01*
X142801516Y-122835908D01*
X142948350Y-122745340D01*
X143070340Y-122623350D01*
X143076507Y-122613352D01*
X143129293Y-122565874D01*
X143183747Y-122553500D01*
X144624088Y-122553500D01*
X144692209Y-122573502D01*
X144713183Y-122590405D01*
X145254513Y-123131735D01*
X145367688Y-123207356D01*
X145493442Y-123259445D01*
X145501000Y-123260948D01*
X145512441Y-123263224D01*
X145512444Y-123263224D01*
X145626942Y-123286000D01*
X147192501Y-123286000D01*
X147260622Y-123306002D01*
X147307115Y-123359658D01*
X147318501Y-123412000D01*
X147318501Y-123542864D01*
X147318502Y-123542885D01*
X147324908Y-123602480D01*
X147324908Y-123602481D01*
X147375201Y-123737326D01*
X147375203Y-123737329D01*
X147375204Y-123737331D01*
X147388736Y-123755407D01*
X147461453Y-123852546D01*
X147519061Y-123895671D01*
X147576669Y-123938796D01*
X147576671Y-123938796D01*
X147576673Y-123938798D01*
X147613596Y-123952569D01*
X147711514Y-123989090D01*
X147711517Y-123989091D01*
X147771127Y-123995500D01*
X150366872Y-123995499D01*
X150426483Y-123989091D01*
X150561331Y-123938796D01*
X150676546Y-123852546D01*
X150762796Y-123737331D01*
X150763328Y-123735906D01*
X150814944Y-123597514D01*
X150857490Y-123540678D01*
X150924010Y-123515866D01*
X150993384Y-123530957D01*
X151043587Y-123581158D01*
X151059000Y-123641545D01*
X151059000Y-124575588D01*
X151038998Y-124643709D01*
X151022095Y-124664683D01*
X149989871Y-125696906D01*
X149927559Y-125730932D01*
X149856743Y-125725867D01*
X149799908Y-125683320D01*
X149775097Y-125616800D01*
X149790188Y-125547426D01*
X149796012Y-125537808D01*
X149822703Y-125497863D01*
X149886816Y-125343082D01*
X149919500Y-125178767D01*
X149919500Y-125011233D01*
X149886816Y-124846918D01*
X149822703Y-124692137D01*
X149729626Y-124552838D01*
X149729621Y-124552832D01*
X149611167Y-124434378D01*
X149611161Y-124434373D01*
X149487061Y-124351452D01*
X149471863Y-124341297D01*
X149317082Y-124277184D01*
X149224963Y-124258860D01*
X149167846Y-124247499D01*
X149167844Y-124247499D01*
X149152767Y-124244500D01*
X148985233Y-124244500D01*
X148970156Y-124247499D01*
X148970152Y-124247499D01*
X148872157Y-124266991D01*
X148820918Y-124277184D01*
X148820916Y-124277184D01*
X148820915Y-124277185D01*
X148744108Y-124309000D01*
X148666985Y-124340946D01*
X148666135Y-124341298D01*
X148526838Y-124434373D01*
X148526832Y-124434378D01*
X148408378Y-124552832D01*
X148408373Y-124552838D01*
X148315298Y-124692135D01*
X148251185Y-124846914D01*
X148218500Y-125011230D01*
X148218500Y-125178769D01*
X148251185Y-125343085D01*
X148269964Y-125388420D01*
X148315297Y-125497863D01*
X148341988Y-125537808D01*
X148408373Y-125637161D01*
X148408378Y-125637167D01*
X148526832Y-125755621D01*
X148526838Y-125755626D01*
X148666137Y-125848703D01*
X148820918Y-125912816D01*
X148985233Y-125945500D01*
X149152767Y-125945500D01*
X149317082Y-125912816D01*
X149471863Y-125848703D01*
X149511809Y-125822011D01*
X149579560Y-125800796D01*
X149648028Y-125819578D01*
X149695471Y-125872395D01*
X149706829Y-125942477D01*
X149678494Y-126007574D01*
X149670906Y-126015871D01*
X149529182Y-126157595D01*
X149466870Y-126191621D01*
X149440087Y-126194500D01*
X147771135Y-126194500D01*
X147771114Y-126194502D01*
X147711519Y-126200908D01*
X147711518Y-126200908D01*
X147576673Y-126251201D01*
X147576670Y-126251203D01*
X147461453Y-126337453D01*
X147375203Y-126452670D01*
X147375201Y-126452673D01*
X147324909Y-126587515D01*
X147318500Y-126647121D01*
X147318500Y-128542864D01*
X147318502Y-128542885D01*
X147324908Y-128602480D01*
X147324908Y-128602481D01*
X147375203Y-128737330D01*
X147399278Y-128769491D01*
X147424089Y-128836011D01*
X147408998Y-128905385D01*
X147399278Y-128920509D01*
X147375203Y-128952669D01*
X147324909Y-129087515D01*
X147318500Y-129147121D01*
X147318500Y-131042864D01*
X147318502Y-131042885D01*
X147324908Y-131102480D01*
X147324908Y-131102481D01*
X147375201Y-131237326D01*
X147375203Y-131237329D01*
X147375204Y-131237331D01*
X147392815Y-131260856D01*
X147461453Y-131352546D01*
X147507565Y-131387065D01*
X147576669Y-131438796D01*
X147576671Y-131438796D01*
X147576673Y-131438798D01*
X147630967Y-131459048D01*
X147711514Y-131489090D01*
X147711517Y-131489091D01*
X147771127Y-131495500D01*
X150366872Y-131495499D01*
X150426483Y-131489091D01*
X150541233Y-131446292D01*
X150561326Y-131438798D01*
X150561326Y-131438797D01*
X150561331Y-131438796D01*
X150676546Y-131352546D01*
X150762796Y-131237331D01*
X150813091Y-131102483D01*
X150819500Y-131042873D01*
X150819499Y-130011230D01*
X153218500Y-130011230D01*
X153218500Y-130011233D01*
X153218500Y-130178767D01*
X153251118Y-130342751D01*
X153251185Y-130343085D01*
X153269964Y-130388420D01*
X153315297Y-130497863D01*
X153361835Y-130567512D01*
X153408373Y-130637161D01*
X153408378Y-130637167D01*
X153526832Y-130755621D01*
X153526838Y-130755626D01*
X153666137Y-130848703D01*
X153820918Y-130912816D01*
X153985233Y-130945500D01*
X153985234Y-130945500D01*
X154152766Y-130945500D01*
X154152767Y-130945500D01*
X154317082Y-130912816D01*
X154471863Y-130848703D01*
X154611162Y-130755626D01*
X154729626Y-130637162D01*
X154822703Y-130497863D01*
X154886816Y-130343082D01*
X154919500Y-130178767D01*
X154919500Y-130011233D01*
X154919499Y-130011230D01*
X155718500Y-130011230D01*
X155718500Y-130011233D01*
X155718500Y-130178767D01*
X155751118Y-130342751D01*
X155751185Y-130343085D01*
X155769964Y-130388420D01*
X155815297Y-130497863D01*
X155861835Y-130567512D01*
X155908373Y-130637161D01*
X155908378Y-130637167D01*
X156026832Y-130755621D01*
X156026838Y-130755626D01*
X156166137Y-130848703D01*
X156320918Y-130912816D01*
X156485233Y-130945500D01*
X156485234Y-130945500D01*
X156652766Y-130945500D01*
X156652767Y-130945500D01*
X156817082Y-130912816D01*
X156971863Y-130848703D01*
X157111162Y-130755626D01*
X157229626Y-130637162D01*
X157322703Y-130497863D01*
X157386816Y-130343082D01*
X157419500Y-130178767D01*
X157419500Y-130011233D01*
X157386816Y-129846918D01*
X157322703Y-129692137D01*
X157229626Y-129552838D01*
X157229621Y-129552832D01*
X157111167Y-129434378D01*
X157111161Y-129434373D01*
X157020636Y-129373886D01*
X156971863Y-129341297D01*
X156850306Y-129290946D01*
X156817085Y-129277185D01*
X156817083Y-129277184D01*
X156817082Y-129277184D01*
X156734368Y-129260731D01*
X156652769Y-129244500D01*
X156652767Y-129244500D01*
X156485233Y-129244500D01*
X156485230Y-129244500D01*
X156362830Y-129268847D01*
X156320918Y-129277184D01*
X156320917Y-129277184D01*
X156320914Y-129277185D01*
X156166135Y-129341298D01*
X156026838Y-129434373D01*
X156026832Y-129434378D01*
X155908378Y-129552832D01*
X155908373Y-129552838D01*
X155815298Y-129692135D01*
X155751185Y-129846914D01*
X155751184Y-129846917D01*
X155751184Y-129846918D01*
X155746482Y-129870558D01*
X155718500Y-130011230D01*
X154919499Y-130011230D01*
X154886816Y-129846918D01*
X154822703Y-129692137D01*
X154729626Y-129552838D01*
X154729621Y-129552832D01*
X154611167Y-129434378D01*
X154611161Y-129434373D01*
X154520636Y-129373886D01*
X154471863Y-129341297D01*
X154350306Y-129290946D01*
X154317085Y-129277185D01*
X154317083Y-129277184D01*
X154317082Y-129277184D01*
X154234368Y-129260731D01*
X154152769Y-129244500D01*
X154152767Y-129244500D01*
X153985233Y-129244500D01*
X153985230Y-129244500D01*
X153862830Y-129268847D01*
X153820918Y-129277184D01*
X153820917Y-129277184D01*
X153820914Y-129277185D01*
X153666135Y-129341298D01*
X153526838Y-129434373D01*
X153526832Y-129434378D01*
X153408378Y-129552832D01*
X153408373Y-129552838D01*
X153315298Y-129692135D01*
X153251185Y-129846914D01*
X153251184Y-129846917D01*
X153251184Y-129846918D01*
X153246482Y-129870558D01*
X153218500Y-130011230D01*
X150819499Y-130011230D01*
X150819499Y-129147128D01*
X150813091Y-129087517D01*
X150762796Y-128952669D01*
X150738721Y-128920509D01*
X150713909Y-128853992D01*
X150728999Y-128784618D01*
X150738716Y-128769497D01*
X150762796Y-128737331D01*
X150813091Y-128602483D01*
X150819500Y-128542873D01*
X150819499Y-126873910D01*
X150839501Y-126805790D01*
X150856399Y-126784821D01*
X152286735Y-125354486D01*
X152362356Y-125241311D01*
X152414445Y-125115557D01*
X152434048Y-125017006D01*
X152441000Y-124982058D01*
X152441000Y-124925191D01*
X152461002Y-124857070D01*
X152514658Y-124810577D01*
X152584932Y-124800473D01*
X152649512Y-124829967D01*
X152656095Y-124836096D01*
X152660999Y-124841000D01*
X153669000Y-124841000D01*
X153669000Y-125349000D01*
X152661000Y-125349000D01*
X152661000Y-126393597D01*
X152667505Y-126454093D01*
X152718555Y-126590964D01*
X152718555Y-126590965D01*
X152806095Y-126707904D01*
X152923034Y-126795444D01*
X153059906Y-126846494D01*
X153120402Y-126852999D01*
X153120415Y-126853000D01*
X153815000Y-126853000D01*
X153815000Y-125756686D01*
X153823394Y-125765080D01*
X153914606Y-125817741D01*
X154016339Y-125845000D01*
X154121661Y-125845000D01*
X154223394Y-125817741D01*
X154314606Y-125765080D01*
X154323000Y-125756686D01*
X154323000Y-126853000D01*
X155017585Y-126853000D01*
X155017597Y-126852999D01*
X155078093Y-126846494D01*
X155214964Y-126795444D01*
X155214965Y-126795444D01*
X155331904Y-126707904D01*
X155419444Y-126590965D01*
X155419444Y-126590964D01*
X155470494Y-126454093D01*
X155476999Y-126393597D01*
X155477000Y-126393585D01*
X155477000Y-125349000D01*
X154469000Y-125349000D01*
X154469000Y-124841000D01*
X155477000Y-124841000D01*
X155477000Y-123796414D01*
X155476999Y-123796402D01*
X155470494Y-123735906D01*
X155419444Y-123599035D01*
X155419444Y-123599034D01*
X155331904Y-123482095D01*
X155214965Y-123394555D01*
X155078093Y-123343505D01*
X155017597Y-123337000D01*
X154323000Y-123337000D01*
X154323000Y-124433314D01*
X154314606Y-124424920D01*
X154223394Y-124372259D01*
X154121661Y-124345000D01*
X154016339Y-124345000D01*
X153914606Y-124372259D01*
X153823394Y-124424920D01*
X153815000Y-124433314D01*
X153815000Y-123337000D01*
X153120402Y-123337000D01*
X153059906Y-123343505D01*
X152923035Y-123394555D01*
X152923034Y-123394555D01*
X152806095Y-123482095D01*
X152718556Y-123599033D01*
X152685056Y-123688852D01*
X152642509Y-123745687D01*
X152575989Y-123770498D01*
X152506615Y-123755407D01*
X152456412Y-123705204D01*
X152441000Y-123644819D01*
X152441000Y-120011230D01*
X153218500Y-120011230D01*
X153218500Y-120011233D01*
X153218500Y-120178767D01*
X153251184Y-120343082D01*
X153315297Y-120497863D01*
X153361835Y-120567512D01*
X153408373Y-120637161D01*
X153408378Y-120637167D01*
X153526832Y-120755621D01*
X153526838Y-120755626D01*
X153666137Y-120848703D01*
X153820918Y-120912816D01*
X153985233Y-120945500D01*
X153985234Y-120945500D01*
X154152766Y-120945500D01*
X154152767Y-120945500D01*
X154317082Y-120912816D01*
X154471863Y-120848703D01*
X154611162Y-120755626D01*
X154729626Y-120637162D01*
X154822703Y-120497863D01*
X154886816Y-120343082D01*
X154919500Y-120178767D01*
X154919500Y-120011233D01*
X154919499Y-120011230D01*
X155718500Y-120011230D01*
X155718500Y-120011233D01*
X155718500Y-120178767D01*
X155751184Y-120343082D01*
X155815297Y-120497863D01*
X155861835Y-120567512D01*
X155908373Y-120637161D01*
X155908378Y-120637167D01*
X156026832Y-120755621D01*
X156026838Y-120755626D01*
X156166137Y-120848703D01*
X156320918Y-120912816D01*
X156485233Y-120945500D01*
X156485234Y-120945500D01*
X156652766Y-120945500D01*
X156652767Y-120945500D01*
X156817082Y-120912816D01*
X156971863Y-120848703D01*
X157111162Y-120755626D01*
X157229626Y-120637162D01*
X157322703Y-120497863D01*
X157386816Y-120343082D01*
X157419500Y-120178767D01*
X157419500Y-120011233D01*
X157386816Y-119846918D01*
X157322703Y-119692137D01*
X157229626Y-119552838D01*
X157229621Y-119552832D01*
X157111167Y-119434378D01*
X157111161Y-119434373D01*
X157012575Y-119368500D01*
X156971863Y-119341297D01*
X156862420Y-119295964D01*
X156817085Y-119277185D01*
X156817083Y-119277184D01*
X156817082Y-119277184D01*
X156734368Y-119260731D01*
X156652769Y-119244500D01*
X156652767Y-119244500D01*
X156485233Y-119244500D01*
X156485230Y-119244500D01*
X156362830Y-119268847D01*
X156320918Y-119277184D01*
X156320917Y-119277184D01*
X156320914Y-119277185D01*
X156198189Y-119328020D01*
X156189560Y-119331595D01*
X156166135Y-119341298D01*
X156026838Y-119434373D01*
X156026832Y-119434378D01*
X155908378Y-119552832D01*
X155908373Y-119552838D01*
X155815298Y-119692135D01*
X155751185Y-119846914D01*
X155718500Y-120011230D01*
X154919499Y-120011230D01*
X154886816Y-119846918D01*
X154822703Y-119692137D01*
X154729626Y-119552838D01*
X154729621Y-119552832D01*
X154611167Y-119434378D01*
X154611161Y-119434373D01*
X154512575Y-119368500D01*
X154471863Y-119341297D01*
X154362420Y-119295964D01*
X154317085Y-119277185D01*
X154317083Y-119277184D01*
X154317082Y-119277184D01*
X154234368Y-119260731D01*
X154152769Y-119244500D01*
X154152767Y-119244500D01*
X153985233Y-119244500D01*
X153985230Y-119244500D01*
X153862830Y-119268847D01*
X153820918Y-119277184D01*
X153820917Y-119277184D01*
X153820914Y-119277185D01*
X153698189Y-119328020D01*
X153689560Y-119331595D01*
X153666135Y-119341298D01*
X153526838Y-119434373D01*
X153526832Y-119434378D01*
X153408378Y-119552832D01*
X153408373Y-119552838D01*
X153315298Y-119692135D01*
X153251185Y-119846914D01*
X153218500Y-120011230D01*
X152441000Y-120011230D01*
X152441000Y-117431941D01*
X152440999Y-117431938D01*
X152438271Y-117418223D01*
X152414445Y-117298443D01*
X152362356Y-117172689D01*
X152286734Y-117059513D01*
X152286729Y-117059507D01*
X152190492Y-116963270D01*
X152190486Y-116963265D01*
X152135460Y-116926498D01*
X152077311Y-116887644D01*
X151970661Y-116843468D01*
X151951560Y-116835556D01*
X151951557Y-116835555D01*
X151818061Y-116809000D01*
X151818058Y-116809000D01*
X143276572Y-116809000D01*
X143208451Y-116788998D01*
X143161958Y-116735342D01*
X143151854Y-116665068D01*
X143156967Y-116643367D01*
X143212168Y-116476777D01*
X143212169Y-116476773D01*
X143222599Y-116374684D01*
X143222600Y-116374684D01*
X143222600Y-116279000D01*
X141256600Y-116279000D01*
X141256600Y-116374684D01*
X141267030Y-116476773D01*
X141267031Y-116476776D01*
X141321848Y-116642207D01*
X141413337Y-116790533D01*
X141426509Y-116803704D01*
X141460536Y-116866015D01*
X141455473Y-116936831D01*
X141439639Y-116966466D01*
X141433693Y-116974716D01*
X141419260Y-116989150D01*
X141395301Y-117027992D01*
X141392656Y-117031664D01*
X141368058Y-117050784D01*
X141344888Y-117071625D01*
X141339744Y-117072793D01*
X141336603Y-117075236D01*
X141324028Y-117076365D01*
X141290433Y-117084000D01*
X137881980Y-117084000D01*
X137813859Y-117063998D01*
X137792885Y-117047095D01*
X137722385Y-116976595D01*
X137688359Y-116914283D01*
X137693424Y-116843468D01*
X137722383Y-116798406D01*
X137834940Y-116685850D01*
X137925508Y-116539016D01*
X137979774Y-116375253D01*
X137990100Y-116274177D01*
X137990099Y-115675824D01*
X137990047Y-115675315D01*
X141256600Y-115675315D01*
X141256600Y-115771000D01*
X141985600Y-115771000D01*
X142493600Y-115771000D01*
X143222600Y-115771000D01*
X143222600Y-115675315D01*
X143212169Y-115573226D01*
X143212168Y-115573223D01*
X143157351Y-115407792D01*
X143065862Y-115259466D01*
X143065857Y-115259460D01*
X142942639Y-115136242D01*
X142942633Y-115136237D01*
X142794307Y-115044748D01*
X142628876Y-114989931D01*
X142628873Y-114989930D01*
X142526784Y-114979500D01*
X142493600Y-114979500D01*
X142493600Y-115771000D01*
X141985600Y-115771000D01*
X141985600Y-114979500D01*
X141952415Y-114979500D01*
X141850326Y-114989930D01*
X141850323Y-114989931D01*
X141684892Y-115044748D01*
X141536566Y-115136237D01*
X141536560Y-115136242D01*
X141413342Y-115259460D01*
X141413337Y-115259466D01*
X141321848Y-115407792D01*
X141267031Y-115573223D01*
X141267030Y-115573226D01*
X141256600Y-115675315D01*
X137990047Y-115675315D01*
X137979774Y-115574747D01*
X137941349Y-115458790D01*
X137925509Y-115410987D01*
X137925508Y-115410986D01*
X137925508Y-115410984D01*
X137834940Y-115264150D01*
X137834939Y-115264149D01*
X137834934Y-115264143D01*
X137712956Y-115142165D01*
X137712950Y-115142160D01*
X137621180Y-115085556D01*
X137566116Y-115051592D01*
X137566114Y-115051591D01*
X137566112Y-115051590D01*
X137402359Y-114997327D01*
X137402347Y-114997325D01*
X137301285Y-114987000D01*
X136727922Y-114987000D01*
X136626846Y-114997325D01*
X136463087Y-115051590D01*
X136316249Y-115142160D01*
X136316243Y-115142165D01*
X136189070Y-115269339D01*
X136187409Y-115267678D01*
X136138696Y-115302177D01*
X136097796Y-115309000D01*
X132881404Y-115309000D01*
X132813283Y-115288998D01*
X132790829Y-115268639D01*
X132790130Y-115269339D01*
X132662956Y-115142165D01*
X132662950Y-115142160D01*
X132571180Y-115085556D01*
X132516116Y-115051592D01*
X132516114Y-115051591D01*
X132516112Y-115051590D01*
X132352359Y-114997327D01*
X132352347Y-114997325D01*
X132251285Y-114987000D01*
X131677922Y-114987000D01*
X131576846Y-114997325D01*
X131413087Y-115051590D01*
X131266249Y-115142160D01*
X131266243Y-115142165D01*
X131144265Y-115264143D01*
X131144260Y-115264149D01*
X131053691Y-115410986D01*
X131005723Y-115555741D01*
X130965309Y-115614112D01*
X130899752Y-115641367D01*
X130829867Y-115628853D01*
X130797026Y-115605204D01*
X130405087Y-115213265D01*
X130291911Y-115137644D01*
X130277428Y-115131645D01*
X130166160Y-115085556D01*
X130166157Y-115085555D01*
X130032661Y-115059000D01*
X130032658Y-115059000D01*
X115606942Y-115059000D01*
X115606938Y-115059000D01*
X115473442Y-115085555D01*
X115473439Y-115085556D01*
X115347688Y-115137644D01*
X115234518Y-115213262D01*
X115234516Y-115213263D01*
X113960180Y-116487596D01*
X113897868Y-116521621D01*
X113871086Y-116524500D01*
X113625822Y-116524500D01*
X113524746Y-116534825D01*
X113360987Y-116589090D01*
X113214149Y-116679660D01*
X113214143Y-116679665D01*
X113092165Y-116801643D01*
X113092160Y-116801649D01*
X113001590Y-116948487D01*
X112947327Y-117112240D01*
X112947325Y-117112252D01*
X112937000Y-117213314D01*
X112937000Y-117786677D01*
X112947325Y-117887753D01*
X113001590Y-118051512D01*
X113001591Y-118051514D01*
X113001592Y-118051516D01*
X113088083Y-118191740D01*
X113092160Y-118198350D01*
X113092165Y-118198356D01*
X113197095Y-118303286D01*
X113212039Y-118330654D01*
X113228896Y-118356883D01*
X113229801Y-118363181D01*
X113231121Y-118365598D01*
X113234000Y-118392381D01*
X113234000Y-118543122D01*
X113213998Y-118611243D01*
X113174148Y-118650362D01*
X113126652Y-118679658D01*
X113126643Y-118679665D01*
X113004665Y-118801643D01*
X113004660Y-118801649D01*
X112914090Y-118948487D01*
X112859827Y-119112240D01*
X112859825Y-119112252D01*
X112849500Y-119213314D01*
X112849500Y-119786677D01*
X112859825Y-119887753D01*
X112914090Y-120051512D01*
X112914091Y-120051514D01*
X112914092Y-120051516D01*
X113004660Y-120198350D01*
X113004665Y-120198356D01*
X113126643Y-120320334D01*
X113126649Y-120320339D01*
X113126650Y-120320340D01*
X113273484Y-120410908D01*
X113273486Y-120410908D01*
X113273487Y-120410909D01*
X113437240Y-120465172D01*
X113437241Y-120465172D01*
X113437247Y-120465174D01*
X113538323Y-120475500D01*
X113833586Y-120475499D01*
X113901706Y-120495501D01*
X113922681Y-120512403D01*
X114599595Y-121189316D01*
X114633620Y-121251629D01*
X114636500Y-121278412D01*
X114636500Y-121802418D01*
X114618954Y-121866556D01*
X114575756Y-121939599D01*
X114529901Y-122097431D01*
X114529901Y-122097432D01*
X114527000Y-122134306D01*
X114527000Y-123915693D01*
X114529901Y-123952567D01*
X114529901Y-123952568D01*
X114575757Y-124110401D01*
X114659417Y-124251863D01*
X114659423Y-124251870D01*
X114775629Y-124368076D01*
X114775636Y-124368082D01*
X114917098Y-124451742D01*
X114917099Y-124451742D01*
X114917102Y-124451744D01*
X115074931Y-124497598D01*
X115111806Y-124500500D01*
X115111807Y-124500500D01*
X115543193Y-124500500D01*
X115543194Y-124500500D01*
X115580069Y-124497598D01*
X115737898Y-124451744D01*
X115879365Y-124368081D01*
X115879372Y-124368073D01*
X115885275Y-124363496D01*
X115951361Y-124337550D01*
X116020984Y-124351452D01*
X116039725Y-124363496D01*
X116045630Y-124368076D01*
X116045635Y-124368081D01*
X116045637Y-124368082D01*
X116045640Y-124368084D01*
X116187098Y-124451742D01*
X116187099Y-124451742D01*
X116187102Y-124451744D01*
X116344931Y-124497598D01*
X116381806Y-124500500D01*
X116381807Y-124500500D01*
X116813185Y-124500500D01*
X116813194Y-124500500D01*
X116813202Y-124500499D01*
X116813236Y-124500498D01*
X116813244Y-124500500D01*
X116815668Y-124500500D01*
X116815668Y-124501109D01*
X116882090Y-124517809D01*
X116930655Y-124569596D01*
X116943512Y-124639419D01*
X116916579Y-124705109D01*
X116907281Y-124715496D01*
X115922783Y-125699995D01*
X115860471Y-125734020D01*
X115833688Y-125736900D01*
X114872741Y-125736900D01*
X114850298Y-125741364D01*
X114850297Y-125741363D01*
X114844428Y-125742532D01*
X114844087Y-125742600D01*
X114843942Y-125742600D01*
X114729439Y-125765376D01*
X114710442Y-125769155D01*
X114710118Y-125769288D01*
X114703789Y-125770549D01*
X114703783Y-125770548D01*
X114703757Y-125770555D01*
X114681649Y-125774952D01*
X114681647Y-125774953D01*
X114555885Y-125827045D01*
X114537036Y-125839640D01*
X114536839Y-125839772D01*
X114531607Y-125843253D01*
X114531389Y-125843344D01*
X114511246Y-125856801D01*
X114510922Y-125857018D01*
X114510916Y-125857019D01*
X114393811Y-125935266D01*
X114393805Y-125935271D01*
X114045268Y-126283808D01*
X114045265Y-126283812D01*
X113986782Y-126371341D01*
X113986780Y-126371344D01*
X113969644Y-126396988D01*
X113917556Y-126522739D01*
X113917555Y-126522742D01*
X113891000Y-126656238D01*
X113891000Y-127163688D01*
X113870998Y-127231809D01*
X113854095Y-127252783D01*
X113564069Y-127542808D01*
X113564064Y-127542814D01*
X113498794Y-127640498D01*
X113488445Y-127655986D01*
X113488444Y-127655987D01*
X113472899Y-127693516D01*
X113445586Y-127734391D01*
X112713271Y-128466705D01*
X112713266Y-128466712D01*
X112653248Y-128556533D01*
X112653249Y-128556534D01*
X112637644Y-128579888D01*
X112585556Y-128705639D01*
X112585555Y-128705642D01*
X112559000Y-128839138D01*
X112559000Y-133013561D01*
X112538998Y-133081682D01*
X112522095Y-133102656D01*
X111828271Y-133796479D01*
X111828266Y-133796485D01*
X111752644Y-133909662D01*
X111700556Y-134035413D01*
X111700555Y-134035416D01*
X111674000Y-134168912D01*
X111674000Y-134168916D01*
X111674000Y-137331084D01*
X111684356Y-137383144D01*
X111700555Y-137464583D01*
X111752644Y-137590337D01*
X111799457Y-137660399D01*
X111828266Y-137703514D01*
X111828271Y-137703520D01*
X113796479Y-139671728D01*
X113796485Y-139671733D01*
X113796487Y-139671735D01*
X113909663Y-139747356D01*
X114035417Y-139799445D01*
X114168916Y-139826000D01*
X116052404Y-139826000D01*
X116185903Y-139799445D01*
X116311657Y-139747356D01*
X116424833Y-139671735D01*
X116768664Y-139327903D01*
X116830975Y-139293880D01*
X116857758Y-139291000D01*
X120627588Y-139291000D01*
X120695709Y-139311002D01*
X120742202Y-139364658D01*
X120752306Y-139434932D01*
X120722812Y-139499512D01*
X120716696Y-139506081D01*
X120551050Y-139671728D01*
X120368267Y-139854510D01*
X120368266Y-139854511D01*
X120292644Y-139967688D01*
X120240556Y-140093439D01*
X120240555Y-140093442D01*
X120214000Y-140226938D01*
X120214000Y-140583000D01*
X120193998Y-140651121D01*
X120140342Y-140697614D01*
X120088000Y-140709000D01*
X117531938Y-140709000D01*
X117398795Y-140735485D01*
X117398794Y-140735485D01*
X117398443Y-140735554D01*
X117398441Y-140735555D01*
X117272689Y-140787644D01*
X117159515Y-140863264D01*
X117159513Y-140863265D01*
X116558267Y-141464510D01*
X116558266Y-141464511D01*
X116491782Y-141564013D01*
X116491781Y-141564012D01*
X116482646Y-141577684D01*
X116482644Y-141577688D01*
X116430556Y-141703439D01*
X116430555Y-141703442D01*
X116404000Y-141836938D01*
X116404000Y-141871613D01*
X116383998Y-141939734D01*
X116330342Y-141986227D01*
X116260068Y-141996331D01*
X116242846Y-141992610D01*
X116079000Y-141945007D01*
X116079000Y-143124000D01*
X116058998Y-143192121D01*
X116005342Y-143238614D01*
X115953000Y-143250000D01*
X115697000Y-143250000D01*
X115628879Y-143229998D01*
X115582386Y-143176342D01*
X115571000Y-143124000D01*
X115571000Y-141945007D01*
X115411598Y-141991318D01*
X115268499Y-142075946D01*
X115262240Y-142080802D01*
X115260330Y-142078340D01*
X115210704Y-142105407D01*
X115139891Y-142100308D01*
X115113800Y-142085763D01*
X115113688Y-142085954D01*
X114965401Y-141998257D01*
X114945964Y-141992610D01*
X114941212Y-141991229D01*
X114807568Y-141952401D01*
X114773595Y-141949728D01*
X114770694Y-141949500D01*
X114339306Y-141949500D01*
X114336405Y-141949728D01*
X114302432Y-141952401D01*
X114302431Y-141952401D01*
X114144598Y-141998257D01*
X114003136Y-142081917D01*
X114003129Y-142081923D01*
X113886923Y-142198129D01*
X113886917Y-142198136D01*
X113803257Y-142339598D01*
X113780435Y-142418153D01*
X113742222Y-142477988D01*
X113677726Y-142507666D01*
X113659438Y-142509000D01*
X113193557Y-142509000D01*
X113125436Y-142488998D01*
X113086316Y-142449146D01*
X113075048Y-142430878D01*
X112995340Y-142301650D01*
X112995337Y-142301647D01*
X112995334Y-142301643D01*
X112873356Y-142179665D01*
X112873350Y-142179660D01*
X112821403Y-142147619D01*
X112726516Y-142089092D01*
X112726514Y-142089091D01*
X112726512Y-142089090D01*
X112562759Y-142034827D01*
X112562747Y-142034825D01*
X112461685Y-142024500D01*
X111763322Y-142024500D01*
X111662246Y-142034825D01*
X111498487Y-142089090D01*
X111351649Y-142179660D01*
X111344394Y-142186915D01*
X111282080Y-142220938D01*
X111211265Y-142215870D01*
X111166204Y-142186909D01*
X111153033Y-142173737D01*
X111004707Y-142082248D01*
X110839276Y-142027431D01*
X110839273Y-142027430D01*
X110737184Y-142017000D01*
X110641500Y-142017000D01*
X110641500Y-143983000D01*
X110737185Y-143983000D01*
X110737184Y-143982999D01*
X110839273Y-143972569D01*
X110839276Y-143972568D01*
X111004707Y-143917751D01*
X111153032Y-143826262D01*
X111166202Y-143813092D01*
X111228512Y-143779064D01*
X111299328Y-143784125D01*
X111344397Y-143813088D01*
X111351643Y-143820334D01*
X111351649Y-143820339D01*
X111351650Y-143820340D01*
X111498484Y-143910908D01*
X111498486Y-143910908D01*
X111498487Y-143910909D01*
X111662240Y-143965172D01*
X111662241Y-143965172D01*
X111662247Y-143965174D01*
X111763323Y-143975500D01*
X112461676Y-143975499D01*
X112461677Y-143975499D01*
X112562753Y-143965174D01*
X112564310Y-143964658D01*
X112726516Y-143910908D01*
X112728379Y-143909759D01*
X112729912Y-143909323D01*
X112733166Y-143907807D01*
X112733410Y-143908331D01*
X112794525Y-143891000D01*
X113632148Y-143891000D01*
X113700269Y-143911002D01*
X113746762Y-143964658D01*
X113754995Y-143996458D01*
X113756244Y-143996230D01*
X113757401Y-144002568D01*
X113803257Y-144160401D01*
X113886917Y-144301863D01*
X113886918Y-144301863D01*
X113886919Y-144301865D01*
X113910977Y-144325923D01*
X113915311Y-144332340D01*
X113919196Y-144334980D01*
X113935924Y-144362857D01*
X113937803Y-144365639D01*
X113938040Y-144366196D01*
X113942644Y-144377310D01*
X113943003Y-144377848D01*
X113945463Y-144383622D01*
X113948984Y-144413567D01*
X113955137Y-144443080D01*
X113953085Y-144448436D01*
X113953756Y-144454133D01*
X113940528Y-144481229D01*
X113929749Y-144509382D01*
X113925128Y-144512778D01*
X113922612Y-144517934D01*
X113896835Y-144533578D01*
X113872546Y-144551434D01*
X113865319Y-144552705D01*
X113861919Y-144554769D01*
X113854652Y-144554582D01*
X113829541Y-144559000D01*
X107318412Y-144559000D01*
X107250291Y-144538998D01*
X107229316Y-144522095D01*
X107017403Y-144310181D01*
X106983378Y-144247869D01*
X106980499Y-144221086D01*
X106980499Y-143949990D01*
X106969999Y-143847202D01*
X106914814Y-143680665D01*
X106830307Y-143543658D01*
X106822712Y-143531344D01*
X106822711Y-143531343D01*
X106822706Y-143531337D01*
X106698662Y-143407293D01*
X106698656Y-143407288D01*
X106549334Y-143315185D01*
X106464833Y-143287184D01*
X109342000Y-143287184D01*
X109352430Y-143389273D01*
X109352431Y-143389276D01*
X109407248Y-143554707D01*
X109498737Y-143703033D01*
X109498742Y-143703039D01*
X109621960Y-143826257D01*
X109621966Y-143826262D01*
X109770292Y-143917751D01*
X109935723Y-143972568D01*
X109935726Y-143972569D01*
X110037815Y-143982999D01*
X110037815Y-143983000D01*
X110133500Y-143983000D01*
X110133500Y-143254000D01*
X109342000Y-143254000D01*
X109342000Y-143287184D01*
X106464833Y-143287184D01*
X106382803Y-143260002D01*
X106382791Y-143260000D01*
X106280017Y-143249500D01*
X104879990Y-143249500D01*
X104777202Y-143260000D01*
X104610665Y-143315185D01*
X104461343Y-143407288D01*
X104461337Y-143407293D01*
X104337293Y-143531337D01*
X104337288Y-143531343D01*
X104245185Y-143680665D01*
X104190002Y-143847196D01*
X104190000Y-143847208D01*
X104179500Y-143949982D01*
X104179500Y-145550009D01*
X104190000Y-145652797D01*
X104245185Y-145819334D01*
X104337288Y-145968656D01*
X104337293Y-145968662D01*
X104461337Y-146092706D01*
X104461343Y-146092711D01*
X104461344Y-146092712D01*
X104483353Y-146106287D01*
X104610665Y-146184814D01*
X104777196Y-146239997D01*
X104777197Y-146239997D01*
X104777203Y-146239999D01*
X104879991Y-146250500D01*
X106280008Y-146250499D01*
X106280009Y-146250499D01*
X106382797Y-146239999D01*
X106549334Y-146184814D01*
X106577270Y-146167583D01*
X106698656Y-146092712D01*
X106813751Y-145977616D01*
X106876061Y-145943593D01*
X106905752Y-145941872D01*
X106905752Y-145941000D01*
X106911942Y-145941000D01*
X106911943Y-145941000D01*
X107048057Y-145941000D01*
X113661588Y-145941000D01*
X113691503Y-145949783D01*
X113721973Y-145956412D01*
X113727068Y-145960226D01*
X113729709Y-145961002D01*
X113750683Y-145977905D01*
X113787095Y-146014317D01*
X113821121Y-146076629D01*
X113824000Y-146103412D01*
X113824000Y-146135611D01*
X113806454Y-146199749D01*
X113787319Y-146232103D01*
X113742347Y-146386896D01*
X113742345Y-146386908D01*
X113739500Y-146423055D01*
X113739500Y-148276933D01*
X113742345Y-148313096D01*
X113770596Y-148410335D01*
X113787319Y-148467894D01*
X113869374Y-148606643D01*
X113869377Y-148606646D01*
X113869378Y-148606648D01*
X113983351Y-148720621D01*
X113983353Y-148720622D01*
X113983357Y-148720626D01*
X114122106Y-148802681D01*
X114276902Y-148847654D01*
X114313065Y-148850500D01*
X114716934Y-148850499D01*
X114753098Y-148847654D01*
X114907894Y-148802681D01*
X115046643Y-148720626D01*
X115060904Y-148706364D01*
X115123214Y-148672339D01*
X115194030Y-148677402D01*
X115239095Y-148706364D01*
X115253357Y-148720626D01*
X115392106Y-148802681D01*
X115546902Y-148847654D01*
X115583065Y-148850500D01*
X115986934Y-148850499D01*
X116023098Y-148847654D01*
X116177894Y-148802681D01*
X116316643Y-148720626D01*
X116330904Y-148706364D01*
X116393214Y-148672339D01*
X116464030Y-148677402D01*
X116509095Y-148706364D01*
X116523357Y-148720626D01*
X116662106Y-148802681D01*
X116816902Y-148847654D01*
X116853065Y-148850500D01*
X117256934Y-148850499D01*
X117293098Y-148847654D01*
X117447894Y-148802681D01*
X117586643Y-148720626D01*
X117600904Y-148706364D01*
X117663214Y-148672339D01*
X117734030Y-148677402D01*
X117779095Y-148706364D01*
X117793357Y-148720626D01*
X117932106Y-148802681D01*
X118086902Y-148847654D01*
X118123065Y-148850500D01*
X118526934Y-148850499D01*
X118563098Y-148847654D01*
X118717894Y-148802681D01*
X118856643Y-148720626D01*
X118870904Y-148706364D01*
X118933214Y-148672339D01*
X119004030Y-148677402D01*
X119049095Y-148706364D01*
X119063357Y-148720626D01*
X119202106Y-148802681D01*
X119356902Y-148847654D01*
X119393065Y-148850500D01*
X119796934Y-148850499D01*
X119833098Y-148847654D01*
X119987894Y-148802681D01*
X120126643Y-148720626D01*
X120140904Y-148706364D01*
X120203214Y-148672339D01*
X120274030Y-148677402D01*
X120319095Y-148706364D01*
X120333357Y-148720626D01*
X120472106Y-148802681D01*
X120626902Y-148847654D01*
X120663065Y-148850500D01*
X121066934Y-148850499D01*
X121103098Y-148847654D01*
X121257894Y-148802681D01*
X121396643Y-148720626D01*
X121410904Y-148706364D01*
X121473214Y-148672339D01*
X121544030Y-148677402D01*
X121589095Y-148706364D01*
X121603357Y-148720626D01*
X121742106Y-148802681D01*
X121896902Y-148847654D01*
X121933065Y-148850500D01*
X122336934Y-148850499D01*
X122373098Y-148847654D01*
X122527894Y-148802681D01*
X122666643Y-148720626D01*
X122680904Y-148706364D01*
X122743214Y-148672339D01*
X122814030Y-148677402D01*
X122859095Y-148706364D01*
X122873357Y-148720626D01*
X123012106Y-148802681D01*
X123166902Y-148847654D01*
X123203065Y-148850500D01*
X123606934Y-148850499D01*
X123643098Y-148847654D01*
X123797894Y-148802681D01*
X123936643Y-148720626D01*
X123950904Y-148706364D01*
X124013214Y-148672339D01*
X124084030Y-148677402D01*
X124129095Y-148706364D01*
X124143357Y-148720626D01*
X124282106Y-148802681D01*
X124436902Y-148847654D01*
X124473065Y-148850500D01*
X124876934Y-148850499D01*
X124913098Y-148847654D01*
X125067894Y-148802681D01*
X125206643Y-148720626D01*
X125220904Y-148706364D01*
X125283214Y-148672339D01*
X125354030Y-148677402D01*
X125399095Y-148706364D01*
X125413357Y-148720626D01*
X125552106Y-148802681D01*
X125706902Y-148847654D01*
X125743065Y-148850500D01*
X126146934Y-148850499D01*
X126183098Y-148847654D01*
X126337894Y-148802681D01*
X126476643Y-148720626D01*
X126490904Y-148706364D01*
X126553214Y-148672339D01*
X126624030Y-148677402D01*
X126669095Y-148706364D01*
X126683357Y-148720626D01*
X126822106Y-148802681D01*
X126976902Y-148847654D01*
X127013065Y-148850500D01*
X127416934Y-148850499D01*
X127453098Y-148847654D01*
X127607894Y-148802681D01*
X127607898Y-148802678D01*
X127615172Y-148799532D01*
X127616210Y-148801932D01*
X127672677Y-148787607D01*
X127740008Y-148810124D01*
X127784478Y-148865468D01*
X127794000Y-148913520D01*
X127794000Y-149303058D01*
X127801834Y-149342442D01*
X127820555Y-149436557D01*
X127872644Y-149562311D01*
X127947227Y-149673934D01*
X127948266Y-149675488D01*
X127948271Y-149675494D01*
X132392095Y-154119316D01*
X132426120Y-154181628D01*
X132429000Y-154208411D01*
X132429000Y-161768531D01*
X132408998Y-161836652D01*
X132377061Y-161870467D01*
X132240205Y-161969898D01*
X132240202Y-161969900D01*
X132089900Y-162120202D01*
X132089898Y-162120205D01*
X131964949Y-162292183D01*
X131962265Y-162297451D01*
X131913516Y-162349065D01*
X131844600Y-162366129D01*
X131777399Y-162343226D01*
X131737735Y-162297451D01*
X131735197Y-162292471D01*
X131735051Y-162292184D01*
X131610104Y-162120208D01*
X131610101Y-162120205D01*
X131610099Y-162120202D01*
X131459797Y-161969900D01*
X131459794Y-161969898D01*
X131459792Y-161969896D01*
X131322939Y-161870467D01*
X131287819Y-161844951D01*
X131287818Y-161844950D01*
X131287816Y-161844949D01*
X131098412Y-161748443D01*
X130896243Y-161682754D01*
X130686287Y-161649500D01*
X130473713Y-161649500D01*
X130306635Y-161675962D01*
X130236226Y-161666863D01*
X130197831Y-161640609D01*
X128707894Y-160150671D01*
X128707888Y-160150666D01*
X128688388Y-160137636D01*
X128594711Y-160075044D01*
X128522269Y-160045037D01*
X128481394Y-160017724D01*
X127927905Y-159464235D01*
X127893879Y-159401923D01*
X127891000Y-159375140D01*
X127891000Y-158213362D01*
X127911002Y-158145241D01*
X127964658Y-158098748D01*
X128034932Y-158088644D01*
X128081141Y-158104910D01*
X128089104Y-158109619D01*
X128230999Y-158150843D01*
X128231000Y-158150843D01*
X128739000Y-158150843D01*
X128880896Y-158109619D01*
X129021274Y-158026600D01*
X129021281Y-158026594D01*
X129136594Y-157911281D01*
X129136600Y-157911274D01*
X129219617Y-157770900D01*
X129265118Y-157614286D01*
X129265120Y-157614274D01*
X129267999Y-157577695D01*
X129268000Y-157577693D01*
X129268000Y-156904000D01*
X128739000Y-156904000D01*
X128739000Y-158150843D01*
X128231000Y-158150843D01*
X128231000Y-156396000D01*
X128739000Y-156396000D01*
X129268000Y-156396000D01*
X129268000Y-155722306D01*
X129267999Y-155722304D01*
X129265120Y-155685725D01*
X129265118Y-155685713D01*
X129219617Y-155529099D01*
X129136600Y-155388725D01*
X129136594Y-155388718D01*
X129021281Y-155273405D01*
X129021274Y-155273399D01*
X128880899Y-155190382D01*
X128739000Y-155149156D01*
X128739000Y-156396000D01*
X128231000Y-156396000D01*
X128231000Y-155149156D01*
X128089100Y-155190382D01*
X127948725Y-155273399D01*
X127948718Y-155273405D01*
X127933792Y-155288332D01*
X127871480Y-155322358D01*
X127800665Y-155317293D01*
X127755602Y-155288332D01*
X127746648Y-155279378D01*
X127746646Y-155279377D01*
X127746643Y-155279374D01*
X127607894Y-155197319D01*
X127552943Y-155181354D01*
X127453103Y-155152347D01*
X127453099Y-155152346D01*
X127453098Y-155152346D01*
X127453096Y-155152345D01*
X127453091Y-155152345D01*
X127416943Y-155149500D01*
X127013066Y-155149500D01*
X126976903Y-155152345D01*
X126822105Y-155197319D01*
X126778453Y-155223135D01*
X126683357Y-155279374D01*
X126683355Y-155279375D01*
X126683353Y-155279377D01*
X126683351Y-155279378D01*
X126669095Y-155293635D01*
X126606783Y-155327661D01*
X126535968Y-155322596D01*
X126490905Y-155293635D01*
X126476648Y-155279378D01*
X126476646Y-155279377D01*
X126476643Y-155279374D01*
X126337894Y-155197319D01*
X126282943Y-155181354D01*
X126183103Y-155152347D01*
X126183099Y-155152346D01*
X126183098Y-155152346D01*
X126183096Y-155152345D01*
X126183091Y-155152345D01*
X126146943Y-155149500D01*
X125743066Y-155149500D01*
X125706903Y-155152345D01*
X125552105Y-155197319D01*
X125508453Y-155223135D01*
X125413357Y-155279374D01*
X125413355Y-155279375D01*
X125413353Y-155279377D01*
X125413351Y-155279378D01*
X125399095Y-155293635D01*
X125336783Y-155327661D01*
X125265968Y-155322596D01*
X125220905Y-155293635D01*
X125206648Y-155279378D01*
X125206646Y-155279377D01*
X125206643Y-155279374D01*
X125067894Y-155197319D01*
X125012943Y-155181354D01*
X124913103Y-155152347D01*
X124913099Y-155152346D01*
X124913098Y-155152346D01*
X124913096Y-155152345D01*
X124913091Y-155152345D01*
X124876943Y-155149500D01*
X124473066Y-155149500D01*
X124436903Y-155152345D01*
X124282103Y-155197319D01*
X124156498Y-155271601D01*
X124087682Y-155289060D01*
X124020351Y-155266543D01*
X123987591Y-155233143D01*
X123986198Y-155231058D01*
X123980904Y-155223135D01*
X123941735Y-155164514D01*
X123941730Y-155164509D01*
X123941728Y-155164506D01*
X123323691Y-154546469D01*
X123323690Y-154546468D01*
X123323687Y-154546465D01*
X123210511Y-154470844D01*
X123144055Y-154443317D01*
X123084760Y-154418756D01*
X123084757Y-154418755D01*
X123024329Y-154406735D01*
X122951261Y-154392200D01*
X122951258Y-154392200D01*
X120569637Y-154392200D01*
X120501516Y-154372198D01*
X120480546Y-154355299D01*
X119318513Y-153193265D01*
X119205337Y-153117644D01*
X119079586Y-153065556D01*
X119079585Y-153065555D01*
X119061263Y-153061911D01*
X119052104Y-153060089D01*
X119052103Y-153060088D01*
X118946087Y-153039000D01*
X118946084Y-153039000D01*
X106905890Y-153039000D01*
X106905886Y-153039000D01*
X106799870Y-153060088D01*
X106799870Y-153060089D01*
X106772390Y-153065555D01*
X106772388Y-153065556D01*
X106772384Y-153065557D01*
X106646635Y-153117644D01*
X106533465Y-153193262D01*
X106533458Y-153193267D01*
X106474631Y-153252095D01*
X106412319Y-153286121D01*
X106385536Y-153289000D01*
X101815490Y-153289000D01*
X101700992Y-153311775D01*
X101700991Y-153311776D01*
X101688326Y-153314295D01*
X101681993Y-153315555D01*
X101556239Y-153367644D01*
X101443069Y-153443262D01*
X101443062Y-153443267D01*
X101406095Y-153480235D01*
X101343783Y-153514261D01*
X101272968Y-153509196D01*
X101216132Y-153466649D01*
X101191321Y-153400129D01*
X101191000Y-153391140D01*
X101191000Y-150365204D01*
X101211002Y-150297083D01*
X101264658Y-150250590D01*
X101296190Y-150242030D01*
X101296064Y-150241441D01*
X101302793Y-150239999D01*
X101302797Y-150239999D01*
X101469334Y-150184814D01*
X101618656Y-150092712D01*
X101742712Y-149968656D01*
X101834814Y-149819334D01*
X101889999Y-149652797D01*
X101900448Y-149550516D01*
X104172000Y-149550516D01*
X104182605Y-149654318D01*
X104182606Y-149654321D01*
X104238342Y-149822525D01*
X104331365Y-149973339D01*
X104331370Y-149973345D01*
X104456654Y-150098629D01*
X104456660Y-150098634D01*
X104607474Y-150191657D01*
X104775678Y-150247393D01*
X104775681Y-150247394D01*
X104879483Y-150257999D01*
X104879483Y-150258000D01*
X105326000Y-150258000D01*
X105834000Y-150258000D01*
X106280517Y-150258000D01*
X106280516Y-150257999D01*
X106384318Y-150247394D01*
X106384321Y-150247393D01*
X106552525Y-150191657D01*
X106703339Y-150098634D01*
X106703345Y-150098629D01*
X106828629Y-149973345D01*
X106828634Y-149973339D01*
X106921657Y-149822525D01*
X106977393Y-149654321D01*
X106977394Y-149654318D01*
X106987999Y-149550516D01*
X106988000Y-149550516D01*
X106988000Y-149004000D01*
X105834000Y-149004000D01*
X105834000Y-150258000D01*
X105326000Y-150258000D01*
X105326000Y-149004000D01*
X104172000Y-149004000D01*
X104172000Y-149550516D01*
X101900448Y-149550516D01*
X101900499Y-149550017D01*
X101900500Y-149550017D01*
X101900500Y-148951809D01*
X101900499Y-147949990D01*
X101900447Y-147949483D01*
X104172000Y-147949483D01*
X104172000Y-148496000D01*
X105326000Y-148496000D01*
X105834000Y-148496000D01*
X106988000Y-148496000D01*
X106988000Y-147949483D01*
X106977394Y-147845681D01*
X106977393Y-147845678D01*
X106921657Y-147677474D01*
X106828634Y-147526660D01*
X106828629Y-147526654D01*
X106703345Y-147401370D01*
X106703339Y-147401365D01*
X106552525Y-147308342D01*
X106384321Y-147252606D01*
X106384318Y-147252605D01*
X106280516Y-147242000D01*
X105834000Y-147242000D01*
X105834000Y-148496000D01*
X105326000Y-148496000D01*
X105326000Y-147242000D01*
X104879483Y-147242000D01*
X104775681Y-147252605D01*
X104775678Y-147252606D01*
X104607474Y-147308342D01*
X104456660Y-147401365D01*
X104456654Y-147401370D01*
X104331370Y-147526654D01*
X104331365Y-147526660D01*
X104238342Y-147677474D01*
X104182606Y-147845678D01*
X104182605Y-147845681D01*
X104172000Y-147949483D01*
X101900447Y-147949483D01*
X101889999Y-147847202D01*
X101834814Y-147680665D01*
X101765701Y-147568616D01*
X101742712Y-147531344D01*
X101742711Y-147531343D01*
X101742706Y-147531337D01*
X101618662Y-147407293D01*
X101618653Y-147407286D01*
X101469334Y-147315186D01*
X101469331Y-147315184D01*
X101397367Y-147291338D01*
X101338995Y-147250924D01*
X101311740Y-147185368D01*
X101311000Y-147171734D01*
X101311000Y-146328265D01*
X101331002Y-146260144D01*
X101384658Y-146213651D01*
X101397354Y-146208665D01*
X101469334Y-146184814D01*
X101618656Y-146092712D01*
X101742712Y-145968656D01*
X101834814Y-145819334D01*
X101889999Y-145652797D01*
X101900500Y-145550009D01*
X101900499Y-143949992D01*
X101896506Y-143910907D01*
X101889999Y-143847202D01*
X101834814Y-143680665D01*
X101750307Y-143543658D01*
X101742712Y-143531344D01*
X101742711Y-143531343D01*
X101742706Y-143531337D01*
X101658571Y-143447202D01*
X101624545Y-143384890D01*
X101629610Y-143314075D01*
X101672157Y-143257239D01*
X101738677Y-143232428D01*
X101760488Y-143232761D01*
X101762824Y-143233000D01*
X101858500Y-143233000D01*
X102366500Y-143233000D01*
X102462185Y-143233000D01*
X102462184Y-143232999D01*
X102564273Y-143222569D01*
X102564276Y-143222568D01*
X102729707Y-143167751D01*
X102878033Y-143076262D01*
X102878039Y-143076257D01*
X103001257Y-142953039D01*
X103001262Y-142953033D01*
X103092751Y-142804707D01*
X103123201Y-142712815D01*
X109342000Y-142712815D01*
X109342000Y-142746000D01*
X110133500Y-142746000D01*
X110133500Y-142017000D01*
X110037815Y-142017000D01*
X109935726Y-142027430D01*
X109935723Y-142027431D01*
X109770292Y-142082248D01*
X109621966Y-142173737D01*
X109621960Y-142173742D01*
X109498742Y-142296960D01*
X109498737Y-142296966D01*
X109407248Y-142445292D01*
X109352431Y-142610723D01*
X109352430Y-142610726D01*
X109342000Y-142712815D01*
X103123201Y-142712815D01*
X103137394Y-142669983D01*
X103147568Y-142639277D01*
X103147569Y-142639273D01*
X103157999Y-142537184D01*
X103158000Y-142537184D01*
X103158000Y-142504000D01*
X102366500Y-142504000D01*
X102366500Y-143233000D01*
X101858500Y-143233000D01*
X101858500Y-141996000D01*
X102366500Y-141996000D01*
X103158000Y-141996000D01*
X103158000Y-141962815D01*
X103147569Y-141860726D01*
X103147568Y-141860723D01*
X103092751Y-141695292D01*
X103001262Y-141546966D01*
X103001257Y-141546960D01*
X102878039Y-141423742D01*
X102878033Y-141423737D01*
X102729707Y-141332248D01*
X102564276Y-141277431D01*
X102564273Y-141277430D01*
X102462184Y-141267000D01*
X102366500Y-141267000D01*
X102366500Y-141996000D01*
X101858500Y-141996000D01*
X101858500Y-141267000D01*
X101762815Y-141267000D01*
X101660726Y-141277430D01*
X101660723Y-141277431D01*
X101495292Y-141332248D01*
X101346966Y-141423737D01*
X101346960Y-141423742D01*
X101333792Y-141436911D01*
X101271480Y-141470937D01*
X101200665Y-141465872D01*
X101155602Y-141436911D01*
X101148356Y-141429665D01*
X101148350Y-141429660D01*
X101105007Y-141402926D01*
X101001516Y-141339092D01*
X101001514Y-141339091D01*
X101001512Y-141339090D01*
X100837759Y-141284827D01*
X100837747Y-141284825D01*
X100736685Y-141274500D01*
X100038322Y-141274500D01*
X99937246Y-141284825D01*
X99773487Y-141339090D01*
X99626649Y-141429660D01*
X99626643Y-141429665D01*
X99504665Y-141551643D01*
X99504660Y-141551649D01*
X99414090Y-141698487D01*
X99359827Y-141862240D01*
X99359825Y-141862252D01*
X99349500Y-141963314D01*
X99349500Y-142536677D01*
X99359825Y-142637753D01*
X99414090Y-142801512D01*
X99414091Y-142801514D01*
X99414092Y-142801516D01*
X99486934Y-142919612D01*
X99504660Y-142948350D01*
X99504665Y-142948356D01*
X99626643Y-143070334D01*
X99626647Y-143070337D01*
X99626650Y-143070340D01*
X99626652Y-143070341D01*
X99632405Y-143074890D01*
X99630522Y-143077270D01*
X99668826Y-143119843D01*
X99680239Y-143189916D01*
X99651957Y-143255036D01*
X99594843Y-143293919D01*
X99530664Y-143315186D01*
X99381343Y-143407288D01*
X99381337Y-143407293D01*
X99257293Y-143531337D01*
X99257288Y-143531343D01*
X99165185Y-143680665D01*
X99110002Y-143847196D01*
X99110000Y-143847208D01*
X99099500Y-143949982D01*
X99099500Y-145550009D01*
X99110000Y-145652797D01*
X99165185Y-145819334D01*
X99257288Y-145968656D01*
X99257293Y-145968662D01*
X99381337Y-146092706D01*
X99381343Y-146092711D01*
X99381344Y-146092712D01*
X99403353Y-146106287D01*
X99530665Y-146184814D01*
X99697196Y-146239997D01*
X99697197Y-146239997D01*
X99697203Y-146239999D01*
X99799991Y-146250500D01*
X99802983Y-146250499D01*
X99871104Y-146270490D01*
X99917605Y-146324138D01*
X99929000Y-146376499D01*
X99929000Y-147123500D01*
X99908998Y-147191621D01*
X99855342Y-147238114D01*
X99803020Y-147249500D01*
X99799995Y-147249500D01*
X99697202Y-147260000D01*
X99530665Y-147315185D01*
X99381343Y-147407288D01*
X99381337Y-147407293D01*
X99257293Y-147531337D01*
X99257288Y-147531343D01*
X99165185Y-147680665D01*
X99110002Y-147847196D01*
X99110000Y-147847208D01*
X99099500Y-147949982D01*
X99099500Y-149550009D01*
X99110000Y-149652797D01*
X99165185Y-149819334D01*
X99257288Y-149968656D01*
X99257293Y-149968662D01*
X99381337Y-150092706D01*
X99381343Y-150092711D01*
X99381344Y-150092712D01*
X99395592Y-150101500D01*
X99530665Y-150184814D01*
X99697196Y-150239997D01*
X99697198Y-150239997D01*
X99697203Y-150239999D01*
X99697207Y-150239999D01*
X99703928Y-150241438D01*
X99703586Y-150243032D01*
X99761534Y-150266672D01*
X99802337Y-150324772D01*
X99809000Y-150365203D01*
X99809000Y-153727851D01*
X99788998Y-153795972D01*
X99787766Y-153797852D01*
X99752587Y-153850501D01*
X99689013Y-154003983D01*
X99689011Y-154003988D01*
X99659045Y-154154637D01*
X99626137Y-154217546D01*
X99564442Y-154252678D01*
X99493547Y-154248878D01*
X99446371Y-154219150D01*
X96974005Y-151746784D01*
X94418405Y-149191183D01*
X94384379Y-149128871D01*
X94381500Y-149102088D01*
X94381500Y-145743095D01*
X94381499Y-145743092D01*
X94380932Y-145740241D01*
X94354945Y-145609597D01*
X94302856Y-145483843D01*
X94294301Y-145471040D01*
X94293940Y-145470500D01*
X94278594Y-145447532D01*
X94227235Y-145370668D01*
X93414333Y-144557765D01*
X93301157Y-144482144D01*
X93253061Y-144462222D01*
X93175406Y-144430056D01*
X93175405Y-144430055D01*
X93154352Y-144425867D01*
X93143827Y-144423774D01*
X93143826Y-144423773D01*
X93041907Y-144403500D01*
X93041904Y-144403500D01*
X82586028Y-144403500D01*
X82586024Y-144403500D01*
X82484110Y-144423773D01*
X82453705Y-144429821D01*
X82453700Y-144429821D01*
X82452529Y-144430054D01*
X82326776Y-144482143D01*
X82213598Y-144557764D01*
X82101404Y-144669958D01*
X82039091Y-144703983D01*
X81968276Y-144698917D01*
X81911440Y-144656370D01*
X81894092Y-144618195D01*
X81892338Y-144618777D01*
X81835909Y-144448487D01*
X81835908Y-144448486D01*
X81835908Y-144448484D01*
X81745340Y-144301650D01*
X81745339Y-144301649D01*
X81745334Y-144301643D01*
X81623356Y-144179665D01*
X81623350Y-144179660D01*
X81609313Y-144171002D01*
X81476516Y-144089092D01*
X81476514Y-144089091D01*
X81476512Y-144089090D01*
X81312759Y-144034827D01*
X81312747Y-144034825D01*
X81211685Y-144024500D01*
X80513322Y-144024500D01*
X80412246Y-144034825D01*
X80248487Y-144089090D01*
X80101649Y-144179660D01*
X80094394Y-144186915D01*
X80032080Y-144220938D01*
X79961265Y-144215870D01*
X79916204Y-144186909D01*
X79903033Y-144173737D01*
X79754707Y-144082248D01*
X79589276Y-144027431D01*
X79589273Y-144027430D01*
X79487184Y-144017000D01*
X79391500Y-144017000D01*
X79391500Y-145983000D01*
X79487185Y-145983000D01*
X79487184Y-145982999D01*
X79589273Y-145972569D01*
X79589276Y-145972568D01*
X79754707Y-145917751D01*
X79903032Y-145826262D01*
X79916202Y-145813092D01*
X79916309Y-145813033D01*
X79916369Y-145812925D01*
X79947483Y-145796008D01*
X79978512Y-145779064D01*
X79978634Y-145779072D01*
X79978743Y-145779014D01*
X80013980Y-145781598D01*
X80049328Y-145784125D01*
X80049468Y-145784202D01*
X80049550Y-145784208D01*
X80049947Y-145784464D01*
X80080995Y-145801453D01*
X80088108Y-145806798D01*
X80101650Y-145820340D01*
X80126648Y-145835758D01*
X80131273Y-145839234D01*
X80149176Y-145863241D01*
X80169204Y-145885507D01*
X80170159Y-145891377D01*
X80173716Y-145896147D01*
X80175797Y-145926024D01*
X80180608Y-145955582D01*
X80178323Y-145962270D01*
X80178651Y-145966972D01*
X80173523Y-145976322D01*
X80164034Y-146004102D01*
X80128256Y-146064599D01*
X80082401Y-146222431D01*
X80082401Y-146222432D01*
X80079500Y-146259305D01*
X80079500Y-146421600D01*
X80059498Y-146489721D01*
X80005842Y-146536214D01*
X79953500Y-146547600D01*
X79486288Y-146547600D01*
X79418167Y-146527598D01*
X79397192Y-146510695D01*
X78920404Y-146033906D01*
X78886379Y-145971594D01*
X78883500Y-145944811D01*
X78883500Y-144017000D01*
X78787815Y-144017000D01*
X78685722Y-144027430D01*
X78604712Y-144054274D01*
X78533758Y-144056713D01*
X78475986Y-144023764D01*
X76079995Y-141627771D01*
X76079989Y-141627766D01*
X76079986Y-141627764D01*
X75966812Y-141552144D01*
X75954297Y-141546960D01*
X75841061Y-141500056D01*
X75841053Y-141500053D01*
X75832954Y-141498442D01*
X75832954Y-141498443D01*
X75707562Y-141473500D01*
X75707559Y-141473500D01*
X63687442Y-141473500D01*
X63687438Y-141473500D01*
X63562047Y-141498443D01*
X63562046Y-141498442D01*
X63553947Y-141500053D01*
X63553939Y-141500056D01*
X63428188Y-141552144D01*
X63315015Y-141627764D01*
X63315013Y-141627765D01*
X62842168Y-142100609D01*
X62779856Y-142134634D01*
X62733363Y-142135962D01*
X62637452Y-142120771D01*
X62566287Y-142109500D01*
X62353713Y-142109500D01*
X62143757Y-142142754D01*
X62143754Y-142142754D01*
X62143753Y-142142755D01*
X61941588Y-142208443D01*
X61941586Y-142208444D01*
X61752180Y-142304951D01*
X61580205Y-142429898D01*
X61580202Y-142429900D01*
X61429900Y-142580202D01*
X61429898Y-142580205D01*
X61304951Y-142752180D01*
X61208444Y-142941586D01*
X61208443Y-142941588D01*
X61143404Y-143141758D01*
X61142754Y-143143757D01*
X61109500Y-143353713D01*
X61109500Y-143566287D01*
X61142754Y-143776243D01*
X61208443Y-143978412D01*
X61304949Y-144167816D01*
X61429896Y-144339792D01*
X61429898Y-144339794D01*
X61429900Y-144339797D01*
X61580202Y-144490099D01*
X61580205Y-144490101D01*
X61580208Y-144490104D01*
X61717061Y-144589533D01*
X61720455Y-144593934D01*
X61725512Y-144596244D01*
X61741898Y-144621742D01*
X61760415Y-144645754D01*
X61761688Y-144652535D01*
X61763896Y-144655970D01*
X61769000Y-144691468D01*
X61769000Y-144768531D01*
X61748998Y-144836652D01*
X61717061Y-144870467D01*
X61580205Y-144969898D01*
X61580202Y-144969900D01*
X61429900Y-145120202D01*
X61429898Y-145120205D01*
X61304951Y-145292180D01*
X61208444Y-145481586D01*
X61208443Y-145481588D01*
X61150181Y-145660900D01*
X61142754Y-145683757D01*
X61109500Y-145893713D01*
X61109500Y-146106287D01*
X61142754Y-146316243D01*
X61208443Y-146518412D01*
X61304949Y-146707816D01*
X61429896Y-146879792D01*
X61429898Y-146879794D01*
X61429900Y-146879797D01*
X61580202Y-147030099D01*
X61580205Y-147030101D01*
X61580208Y-147030104D01*
X61717061Y-147129533D01*
X61720455Y-147133934D01*
X61725512Y-147136244D01*
X61741898Y-147161742D01*
X61760415Y-147185754D01*
X61761688Y-147192535D01*
X61763896Y-147195970D01*
X61769000Y-147231468D01*
X61769000Y-147308531D01*
X61748998Y-147376652D01*
X61717061Y-147410467D01*
X61580205Y-147509898D01*
X61580202Y-147509900D01*
X61429900Y-147660202D01*
X61429898Y-147660205D01*
X61304951Y-147832180D01*
X61208444Y-148021586D01*
X61208443Y-148021588D01*
X61152307Y-148194357D01*
X61142754Y-148223757D01*
X61109500Y-148433713D01*
X61109500Y-148646287D01*
X61142754Y-148856243D01*
X61208443Y-149058412D01*
X61304949Y-149247816D01*
X61429896Y-149419792D01*
X61429898Y-149419794D01*
X61429900Y-149419797D01*
X61580202Y-149570099D01*
X61580205Y-149570101D01*
X61580208Y-149570104D01*
X61717061Y-149669533D01*
X61720455Y-149673934D01*
X61725512Y-149676244D01*
X61741898Y-149701742D01*
X61760415Y-149725754D01*
X61761688Y-149732535D01*
X61763896Y-149735970D01*
X61769000Y-149771468D01*
X61769000Y-149848531D01*
X61748998Y-149916652D01*
X61717061Y-149950467D01*
X61580205Y-150049898D01*
X61580202Y-150049900D01*
X61429900Y-150200202D01*
X61429898Y-150200205D01*
X61304951Y-150372180D01*
X61208444Y-150561586D01*
X61208443Y-150561588D01*
X61148524Y-150746000D01*
X61142754Y-150763757D01*
X61109500Y-150973713D01*
X61109500Y-151186287D01*
X61142754Y-151396243D01*
X61208443Y-151598412D01*
X61304949Y-151787816D01*
X61429896Y-151959792D01*
X61429898Y-151959794D01*
X61429900Y-151959797D01*
X61580202Y-152110099D01*
X61580205Y-152110101D01*
X61580208Y-152110104D01*
X61717061Y-152209533D01*
X61720455Y-152213934D01*
X61725512Y-152216244D01*
X61741898Y-152241742D01*
X61760415Y-152265754D01*
X61761688Y-152272535D01*
X61763896Y-152275970D01*
X61769000Y-152311468D01*
X61769000Y-152388531D01*
X61748998Y-152456652D01*
X61717061Y-152490467D01*
X61580205Y-152589898D01*
X61580202Y-152589900D01*
X61429900Y-152740202D01*
X61429898Y-152740205D01*
X61304951Y-152912180D01*
X61208444Y-153101586D01*
X61208443Y-153101588D01*
X61154572Y-153267386D01*
X61142754Y-153303757D01*
X61109500Y-153513713D01*
X61109500Y-153726287D01*
X61142754Y-153936243D01*
X61208443Y-154138412D01*
X61304946Y-154327810D01*
X61304951Y-154327819D01*
X61335840Y-154370334D01*
X61429896Y-154499792D01*
X61429898Y-154499794D01*
X61429900Y-154499797D01*
X61580202Y-154650099D01*
X61580205Y-154650101D01*
X61580208Y-154650104D01*
X61717061Y-154749533D01*
X61720455Y-154753934D01*
X61725512Y-154756244D01*
X61741898Y-154781742D01*
X61760415Y-154805754D01*
X61761688Y-154812535D01*
X61763896Y-154815970D01*
X61769000Y-154851468D01*
X61769000Y-154928531D01*
X61748998Y-154996652D01*
X61717061Y-155030467D01*
X61580205Y-155129898D01*
X61580202Y-155129900D01*
X61429900Y-155280202D01*
X61429898Y-155280205D01*
X61304951Y-155452180D01*
X61208444Y-155641586D01*
X61208443Y-155641588D01*
X61155524Y-155804456D01*
X61142754Y-155843757D01*
X61109500Y-156053713D01*
X61109500Y-156266287D01*
X61142754Y-156476243D01*
X61208443Y-156678412D01*
X61304949Y-156867816D01*
X61429896Y-157039792D01*
X61429898Y-157039794D01*
X61429900Y-157039797D01*
X61580202Y-157190099D01*
X61580205Y-157190101D01*
X61580208Y-157190104D01*
X61752184Y-157315051D01*
X61941588Y-157411557D01*
X62143757Y-157477246D01*
X62353713Y-157510500D01*
X62353716Y-157510500D01*
X62566284Y-157510500D01*
X62566287Y-157510500D01*
X62776243Y-157477246D01*
X62978412Y-157411557D01*
X63167816Y-157315051D01*
X63339792Y-157190104D01*
X63451127Y-157078768D01*
X63513437Y-157044745D01*
X63584253Y-157049809D01*
X63641089Y-157092356D01*
X63658277Y-157123833D01*
X63706202Y-157252328D01*
X63706203Y-157252329D01*
X63792453Y-157367546D01*
X63828274Y-157394361D01*
X63907669Y-157453796D01*
X63907671Y-157453796D01*
X63907673Y-157453798D01*
X63960587Y-157473533D01*
X64042514Y-157504090D01*
X64042517Y-157504091D01*
X64102127Y-157510500D01*
X65897872Y-157510499D01*
X65957483Y-157504091D01*
X66092331Y-157453796D01*
X66207546Y-157367546D01*
X66293796Y-157252331D01*
X66344091Y-157117483D01*
X66350500Y-157057873D01*
X66350500Y-156884000D01*
X66370502Y-156815879D01*
X66424158Y-156769386D01*
X66476500Y-156758000D01*
X72554620Y-156758000D01*
X72622741Y-156778002D01*
X72643710Y-156794900D01*
X72689150Y-156840340D01*
X72835984Y-156930908D01*
X72835986Y-156930908D01*
X72835987Y-156930909D01*
X72999740Y-156985172D01*
X72999741Y-156985172D01*
X72999747Y-156985174D01*
X73100823Y-156995500D01*
X73699176Y-156995499D01*
X73699177Y-156995499D01*
X73800253Y-156985174D01*
X73800259Y-156985172D01*
X73964016Y-156930908D01*
X74110850Y-156840340D01*
X74156285Y-156794905D01*
X74218102Y-156733089D01*
X74280414Y-156699063D01*
X74351229Y-156704128D01*
X74396292Y-156733089D01*
X74509460Y-156846257D01*
X74509466Y-156846262D01*
X74657792Y-156937751D01*
X74823223Y-156992568D01*
X74823226Y-156992569D01*
X74925315Y-157002999D01*
X74925315Y-157003000D01*
X74971000Y-157003000D01*
X75479000Y-157003000D01*
X75524685Y-157003000D01*
X75524684Y-157002999D01*
X75626773Y-156992569D01*
X75626776Y-156992568D01*
X75792207Y-156937751D01*
X75940533Y-156846262D01*
X75940539Y-156846257D01*
X76063757Y-156723039D01*
X76063762Y-156723033D01*
X76155251Y-156574707D01*
X76210068Y-156409276D01*
X76210069Y-156409273D01*
X76220499Y-156307184D01*
X76220500Y-156307184D01*
X76220500Y-156274000D01*
X75479000Y-156274000D01*
X75479000Y-157003000D01*
X74971000Y-157003000D01*
X74971000Y-156146000D01*
X74991002Y-156077879D01*
X75044658Y-156031386D01*
X75097000Y-156020000D01*
X75225000Y-156020000D01*
X75225000Y-155892000D01*
X75245002Y-155823879D01*
X75298658Y-155777386D01*
X75351000Y-155766000D01*
X76220500Y-155766000D01*
X76220500Y-155732815D01*
X76210069Y-155630726D01*
X76210068Y-155630723D01*
X76160549Y-155481281D01*
X76158109Y-155410326D01*
X76194417Y-155349316D01*
X76257946Y-155317621D01*
X76280154Y-155315648D01*
X79929858Y-155315648D01*
X79952063Y-155311231D01*
X80022777Y-155317557D01*
X80078845Y-155361109D01*
X80102467Y-155428061D01*
X80097645Y-155469961D01*
X80082402Y-155522427D01*
X80082401Y-155522432D01*
X80079500Y-155559306D01*
X80079500Y-157440693D01*
X80082401Y-157477567D01*
X80082401Y-157477568D01*
X80128257Y-157635401D01*
X80211917Y-157776863D01*
X80211923Y-157776870D01*
X80328129Y-157893076D01*
X80328136Y-157893082D01*
X80469598Y-157976742D01*
X80469599Y-157976742D01*
X80469602Y-157976744D01*
X80627431Y-158022598D01*
X80664306Y-158025500D01*
X80664307Y-158025500D01*
X81095693Y-158025500D01*
X81095694Y-158025500D01*
X81132569Y-158022598D01*
X81290398Y-157976744D01*
X81290401Y-157976741D01*
X81297846Y-157974579D01*
X81368843Y-157974782D01*
X81428459Y-158013335D01*
X81457768Y-158078000D01*
X81459000Y-158095576D01*
X81459000Y-161898913D01*
X81438998Y-161967034D01*
X81422095Y-161988008D01*
X81289900Y-162120202D01*
X81289898Y-162120205D01*
X81164949Y-162292183D01*
X81162265Y-162297451D01*
X81113516Y-162349065D01*
X81044600Y-162366129D01*
X80977399Y-162343226D01*
X80937735Y-162297451D01*
X80935197Y-162292471D01*
X80935051Y-162292184D01*
X80810104Y-162120208D01*
X80810101Y-162120205D01*
X80810099Y-162120202D01*
X80659797Y-161969900D01*
X80659794Y-161969898D01*
X80659792Y-161969896D01*
X80522939Y-161870467D01*
X80487819Y-161844951D01*
X80487818Y-161844950D01*
X80487816Y-161844949D01*
X80298412Y-161748443D01*
X80096243Y-161682754D01*
X79886287Y-161649500D01*
X79673713Y-161649500D01*
X79463757Y-161682754D01*
X79463754Y-161682754D01*
X79463753Y-161682755D01*
X79261588Y-161748443D01*
X79261586Y-161748444D01*
X79072180Y-161844951D01*
X78900205Y-161969898D01*
X78900202Y-161969900D01*
X78749900Y-162120202D01*
X78749898Y-162120205D01*
X78624949Y-162292183D01*
X78622265Y-162297451D01*
X78573516Y-162349065D01*
X78504600Y-162366129D01*
X78437399Y-162343226D01*
X78397735Y-162297451D01*
X78395197Y-162292471D01*
X78395051Y-162292184D01*
X78270104Y-162120208D01*
X78270101Y-162120205D01*
X78270099Y-162120202D01*
X78119797Y-161969900D01*
X78119794Y-161969898D01*
X78119792Y-161969896D01*
X77982939Y-161870467D01*
X77947819Y-161844951D01*
X77947818Y-161844950D01*
X77947816Y-161844949D01*
X77758412Y-161748443D01*
X77556243Y-161682754D01*
X77346287Y-161649500D01*
X77133713Y-161649500D01*
X76923757Y-161682754D01*
X76923754Y-161682754D01*
X76923753Y-161682755D01*
X76721588Y-161748443D01*
X76721586Y-161748444D01*
X76532180Y-161844951D01*
X76360205Y-161969898D01*
X76360202Y-161969900D01*
X76209900Y-162120202D01*
X76209898Y-162120205D01*
X76084949Y-162292183D01*
X76082265Y-162297451D01*
X76033516Y-162349065D01*
X75964600Y-162366129D01*
X75897399Y-162343226D01*
X75857735Y-162297451D01*
X75855197Y-162292471D01*
X75855051Y-162292184D01*
X75730104Y-162120208D01*
X75730101Y-162120205D01*
X75730099Y-162120202D01*
X75579797Y-161969900D01*
X75579794Y-161969898D01*
X75579792Y-161969896D01*
X75442939Y-161870467D01*
X75407819Y-161844951D01*
X75407818Y-161844950D01*
X75407816Y-161844949D01*
X75218412Y-161748443D01*
X75016243Y-161682754D01*
X74806287Y-161649500D01*
X74593713Y-161649500D01*
X74383757Y-161682754D01*
X74383754Y-161682754D01*
X74383753Y-161682755D01*
X74181588Y-161748443D01*
X74181586Y-161748444D01*
X73992180Y-161844951D01*
X73820205Y-161969898D01*
X73820202Y-161969900D01*
X73669900Y-162120202D01*
X73669898Y-162120205D01*
X73544949Y-162292183D01*
X73542265Y-162297451D01*
X73493516Y-162349065D01*
X73424600Y-162366129D01*
X73357399Y-162343226D01*
X73317735Y-162297451D01*
X73315197Y-162292471D01*
X73315051Y-162292184D01*
X73190104Y-162120208D01*
X73190101Y-162120205D01*
X73190099Y-162120202D01*
X73039797Y-161969900D01*
X73039794Y-161969898D01*
X73039792Y-161969896D01*
X72902939Y-161870467D01*
X72867819Y-161844951D01*
X72867818Y-161844950D01*
X72867816Y-161844949D01*
X72678412Y-161748443D01*
X72476243Y-161682754D01*
X72266287Y-161649500D01*
X72053713Y-161649500D01*
X71843757Y-161682754D01*
X71843754Y-161682754D01*
X71843753Y-161682755D01*
X71641588Y-161748443D01*
X71641586Y-161748444D01*
X71452180Y-161844951D01*
X71280205Y-161969898D01*
X71280202Y-161969900D01*
X71129900Y-162120202D01*
X71129898Y-162120205D01*
X71004949Y-162292183D01*
X71002265Y-162297451D01*
X70953516Y-162349065D01*
X70884600Y-162366129D01*
X70817399Y-162343226D01*
X70777735Y-162297451D01*
X70775197Y-162292471D01*
X70775051Y-162292184D01*
X70650104Y-162120208D01*
X70650101Y-162120205D01*
X70650099Y-162120202D01*
X70499797Y-161969900D01*
X70499794Y-161969898D01*
X70499792Y-161969896D01*
X70362939Y-161870467D01*
X70327819Y-161844951D01*
X70327818Y-161844950D01*
X70327816Y-161844949D01*
X70138412Y-161748443D01*
X69936243Y-161682754D01*
X69726287Y-161649500D01*
X69513713Y-161649500D01*
X69303757Y-161682754D01*
X69303754Y-161682754D01*
X69303753Y-161682755D01*
X69101588Y-161748443D01*
X69101586Y-161748444D01*
X68912180Y-161844951D01*
X68740205Y-161969898D01*
X68740202Y-161969900D01*
X68589900Y-162120202D01*
X68589898Y-162120205D01*
X68464949Y-162292183D01*
X68462265Y-162297451D01*
X68413516Y-162349065D01*
X68344600Y-162366129D01*
X68277399Y-162343226D01*
X68237735Y-162297451D01*
X68235197Y-162292471D01*
X68235051Y-162292184D01*
X68110104Y-162120208D01*
X68110101Y-162120205D01*
X68110099Y-162120202D01*
X67959797Y-161969900D01*
X67959794Y-161969898D01*
X67959792Y-161969896D01*
X67822939Y-161870467D01*
X67787819Y-161844951D01*
X67787818Y-161844950D01*
X67787816Y-161844949D01*
X67598412Y-161748443D01*
X67396243Y-161682754D01*
X67186287Y-161649500D01*
X66973713Y-161649500D01*
X66763757Y-161682754D01*
X66763754Y-161682754D01*
X66763753Y-161682755D01*
X66561588Y-161748443D01*
X66561586Y-161748444D01*
X66372180Y-161844951D01*
X66200205Y-161969898D01*
X66200202Y-161969900D01*
X66049900Y-162120202D01*
X66049898Y-162120205D01*
X65924949Y-162292183D01*
X65922265Y-162297451D01*
X65873516Y-162349065D01*
X65804600Y-162366129D01*
X65737399Y-162343226D01*
X65697735Y-162297451D01*
X65695197Y-162292471D01*
X65695051Y-162292184D01*
X65570104Y-162120208D01*
X65570101Y-162120205D01*
X65570099Y-162120202D01*
X65419797Y-161969900D01*
X65419794Y-161969898D01*
X65419792Y-161969896D01*
X65282939Y-161870467D01*
X65247819Y-161844951D01*
X65247818Y-161844950D01*
X65247816Y-161844949D01*
X65058412Y-161748443D01*
X64856243Y-161682754D01*
X64646287Y-161649500D01*
X64433713Y-161649500D01*
X64223757Y-161682754D01*
X64223754Y-161682754D01*
X64223753Y-161682755D01*
X64021588Y-161748443D01*
X64021586Y-161748444D01*
X63832180Y-161844951D01*
X63660207Y-161969896D01*
X63548873Y-162081230D01*
X63486561Y-162115255D01*
X63415745Y-162110189D01*
X63358909Y-162067643D01*
X63341722Y-162036165D01*
X63293798Y-161907673D01*
X63293796Y-161907670D01*
X63293796Y-161907669D01*
X63212981Y-161799714D01*
X63207546Y-161792453D01*
X63103020Y-161714206D01*
X63092331Y-161706204D01*
X63092329Y-161706203D01*
X63092326Y-161706201D01*
X62957483Y-161655909D01*
X62957486Y-161655909D01*
X62897873Y-161649500D01*
X61102135Y-161649500D01*
X61102114Y-161649502D01*
X61042519Y-161655908D01*
X61042518Y-161655908D01*
X60907673Y-161706201D01*
X60907670Y-161706203D01*
X60792450Y-161792456D01*
X60790595Y-161794312D01*
X60788291Y-161795569D01*
X60785239Y-161797855D01*
X60784910Y-161797416D01*
X60728283Y-161828338D01*
X60657468Y-161823273D01*
X60600632Y-161780726D01*
X60575821Y-161714206D01*
X60575500Y-161705217D01*
X60575500Y-131260709D01*
X63681500Y-131260709D01*
X63681500Y-131503290D01*
X63713160Y-131743782D01*
X63775944Y-131978095D01*
X63775945Y-131978097D01*
X63775946Y-131978100D01*
X63868776Y-132202212D01*
X63868777Y-132202213D01*
X63868782Y-132202224D01*
X63990061Y-132412285D01*
X63990063Y-132412288D01*
X63990064Y-132412289D01*
X64137735Y-132604738D01*
X64137739Y-132604742D01*
X64137744Y-132604748D01*
X64309251Y-132776255D01*
X64309256Y-132776259D01*
X64309262Y-132776265D01*
X64500890Y-132923306D01*
X64501714Y-132923938D01*
X64711775Y-133045217D01*
X64711779Y-133045218D01*
X64711788Y-133045224D01*
X64935900Y-133138054D01*
X65170211Y-133200838D01*
X65170215Y-133200838D01*
X65170217Y-133200839D01*
X65232202Y-133208999D01*
X65410712Y-133232500D01*
X65410719Y-133232500D01*
X65653281Y-133232500D01*
X65653288Y-133232500D01*
X65870637Y-133203885D01*
X65893782Y-133200839D01*
X65893782Y-133200838D01*
X65893789Y-133200838D01*
X66128100Y-133138054D01*
X66352212Y-133045224D01*
X66562289Y-132923936D01*
X66754738Y-132776265D01*
X66926265Y-132604738D01*
X67073936Y-132412289D01*
X67195224Y-132202212D01*
X67288054Y-131978100D01*
X67350838Y-131743789D01*
X67382500Y-131503288D01*
X67382500Y-131260712D01*
X67353822Y-131042878D01*
X67350839Y-131020217D01*
X67350838Y-131020215D01*
X67350838Y-131020211D01*
X67288054Y-130785900D01*
X67195224Y-130561788D01*
X67195218Y-130561779D01*
X67195217Y-130561775D01*
X67073938Y-130351714D01*
X67067317Y-130343085D01*
X66926265Y-130159262D01*
X66926259Y-130159256D01*
X66926255Y-130159251D01*
X66754748Y-129987744D01*
X66754742Y-129987739D01*
X66754738Y-129987735D01*
X66562289Y-129840064D01*
X66562288Y-129840063D01*
X66562285Y-129840061D01*
X66352224Y-129718782D01*
X66352216Y-129718778D01*
X66352212Y-129718776D01*
X66128100Y-129625946D01*
X66128097Y-129625945D01*
X66128095Y-129625944D01*
X65893782Y-129563160D01*
X65653290Y-129531500D01*
X65653288Y-129531500D01*
X65410712Y-129531500D01*
X65410709Y-129531500D01*
X65170217Y-129563160D01*
X64935904Y-129625944D01*
X64935900Y-129625946D01*
X64776101Y-129692137D01*
X64711786Y-129718777D01*
X64711775Y-129718782D01*
X64501714Y-129840061D01*
X64309262Y-129987735D01*
X64309251Y-129987744D01*
X64137744Y-130159251D01*
X64137735Y-130159262D01*
X63990061Y-130351714D01*
X63868782Y-130561775D01*
X63868777Y-130561786D01*
X63868776Y-130561788D01*
X63837556Y-130637161D01*
X63775946Y-130785900D01*
X63775944Y-130785904D01*
X63713160Y-131020217D01*
X63681500Y-131260709D01*
X60575500Y-131260709D01*
X60575500Y-129583463D01*
X60595502Y-129515342D01*
X60612405Y-129494368D01*
X75494369Y-114612405D01*
X75556681Y-114578379D01*
X75583464Y-114575500D01*
X154975469Y-114575500D01*
X154997404Y-114575500D01*
X155002611Y-114575608D01*
G37*
%TD.AperFunction*%
%TA.AperFunction,Conductor*%
G36*
X109434526Y-155915502D02*
G01*
X109481019Y-155969158D01*
X109491123Y-156039432D01*
X109473646Y-156087647D01*
X109407248Y-156195292D01*
X109352431Y-156360723D01*
X109352430Y-156360726D01*
X109342000Y-156462815D01*
X109342000Y-156496000D01*
X110261500Y-156496000D01*
X110329621Y-156516002D01*
X110376114Y-156569658D01*
X110387500Y-156622000D01*
X110387500Y-156750000D01*
X110515500Y-156750000D01*
X110583621Y-156770002D01*
X110630114Y-156823658D01*
X110641500Y-156876000D01*
X110641500Y-157733000D01*
X110735588Y-157733000D01*
X110803709Y-157753002D01*
X110850202Y-157806658D01*
X110860306Y-157876932D01*
X110830812Y-157941512D01*
X110824683Y-157948095D01*
X110500683Y-158272095D01*
X110438371Y-158306121D01*
X110411588Y-158309000D01*
X106931938Y-158309000D01*
X106798442Y-158335555D01*
X106798439Y-158335556D01*
X106672688Y-158387644D01*
X106559518Y-158463262D01*
X106559516Y-158463263D01*
X104643267Y-160379510D01*
X104643266Y-160379512D01*
X104582135Y-160471001D01*
X104567645Y-160492686D01*
X104567644Y-160492688D01*
X104515556Y-160618439D01*
X104515555Y-160618442D01*
X104489000Y-160751938D01*
X104489000Y-161768531D01*
X104468998Y-161836652D01*
X104437061Y-161870467D01*
X104300205Y-161969898D01*
X104300202Y-161969900D01*
X104149900Y-162120202D01*
X104149898Y-162120205D01*
X104024947Y-162292185D01*
X104022364Y-162296402D01*
X104020665Y-162295361D01*
X103977664Y-162340839D01*
X103908740Y-162357866D01*
X103841551Y-162334927D01*
X103804533Y-162292175D01*
X103804051Y-162292471D01*
X103802263Y-162289553D01*
X103801933Y-162289172D01*
X103801461Y-162288247D01*
X103675822Y-162115320D01*
X103524679Y-161964177D01*
X103351750Y-161838536D01*
X103161292Y-161741493D01*
X103161286Y-161741490D01*
X102958004Y-161675440D01*
X102894000Y-161665302D01*
X102894000Y-162569297D01*
X102832993Y-162534075D01*
X102705826Y-162500000D01*
X102574174Y-162500000D01*
X102447007Y-162534075D01*
X102386000Y-162569297D01*
X102386000Y-161665301D01*
X102358211Y-161669703D01*
X102339372Y-161667268D01*
X102320568Y-161669972D01*
X102304889Y-161662811D01*
X102287800Y-161660603D01*
X102273268Y-161648369D01*
X102255988Y-161640478D01*
X102246670Y-161625979D01*
X102233486Y-161614881D01*
X102227874Y-161596733D01*
X102217604Y-161580752D01*
X102212972Y-161548538D01*
X102212513Y-161547053D01*
X102212500Y-161545254D01*
X102212500Y-161316912D01*
X102232502Y-161248791D01*
X102249405Y-161227817D01*
X106440038Y-157037184D01*
X109342000Y-157037184D01*
X109352430Y-157139273D01*
X109352431Y-157139276D01*
X109407248Y-157304707D01*
X109498737Y-157453033D01*
X109498742Y-157453039D01*
X109621960Y-157576257D01*
X109621966Y-157576262D01*
X109770292Y-157667751D01*
X109935723Y-157722568D01*
X109935726Y-157722569D01*
X110037815Y-157732999D01*
X110037815Y-157733000D01*
X110133500Y-157733000D01*
X110133500Y-157004000D01*
X109342000Y-157004000D01*
X109342000Y-157037184D01*
X106440038Y-157037184D01*
X107544817Y-155932405D01*
X107607129Y-155898379D01*
X107633912Y-155895500D01*
X109366405Y-155895500D01*
X109434526Y-155915502D01*
G37*
%TD.AperFunction*%
%TA.AperFunction,Conductor*%
G36*
X92506121Y-156520002D02*
G01*
X92552614Y-156573658D01*
X92564000Y-156626000D01*
X92564000Y-158029991D01*
X92723399Y-157983681D01*
X92866502Y-157899051D01*
X92984050Y-157781503D01*
X92984051Y-157781501D01*
X93072717Y-157631577D01*
X93074634Y-157632711D01*
X93112770Y-157586877D01*
X93180477Y-157565514D01*
X93248984Y-157584148D01*
X93296542Y-157636862D01*
X93309000Y-157691489D01*
X93309000Y-161141588D01*
X93288998Y-161209709D01*
X93272099Y-161230678D01*
X93061790Y-161440988D01*
X92862168Y-161640610D01*
X92799856Y-161674635D01*
X92753365Y-161675962D01*
X92586287Y-161649500D01*
X92373713Y-161649500D01*
X92163757Y-161682754D01*
X92163754Y-161682754D01*
X92163753Y-161682755D01*
X91961588Y-161748443D01*
X91961586Y-161748444D01*
X91772180Y-161844951D01*
X91600205Y-161969898D01*
X91600202Y-161969900D01*
X91449900Y-162120202D01*
X91449898Y-162120205D01*
X91324949Y-162292183D01*
X91322265Y-162297451D01*
X91273516Y-162349065D01*
X91204600Y-162366129D01*
X91137399Y-162343226D01*
X91097735Y-162297451D01*
X91095197Y-162292471D01*
X91095051Y-162292184D01*
X90970104Y-162120208D01*
X90970101Y-162120205D01*
X90970099Y-162120202D01*
X90819797Y-161969900D01*
X90819794Y-161969898D01*
X90819792Y-161969896D01*
X90682939Y-161870467D01*
X90639585Y-161814245D01*
X90631000Y-161768531D01*
X90631000Y-159171941D01*
X90630999Y-159171938D01*
X90623192Y-159132689D01*
X90604445Y-159038443D01*
X90552356Y-158912689D01*
X90547720Y-158905750D01*
X90512198Y-158852587D01*
X90512196Y-158852585D01*
X90482233Y-158807740D01*
X90461020Y-158739987D01*
X90461000Y-158737741D01*
X90461000Y-158095576D01*
X90481002Y-158027455D01*
X90534658Y-157980962D01*
X90604932Y-157970858D01*
X90622154Y-157974579D01*
X90629598Y-157976741D01*
X90629602Y-157976744D01*
X90787431Y-158022598D01*
X90824306Y-158025500D01*
X90824307Y-158025500D01*
X91255693Y-158025500D01*
X91255694Y-158025500D01*
X91292569Y-158022598D01*
X91450398Y-157976744D01*
X91591865Y-157893081D01*
X91591865Y-157893080D01*
X91598689Y-157889045D01*
X91599361Y-157890182D01*
X91657824Y-157867220D01*
X91727448Y-157881112D01*
X91746511Y-157895127D01*
X91747235Y-157894194D01*
X91753497Y-157899051D01*
X91896600Y-157983681D01*
X92056000Y-158029991D01*
X92056000Y-156626000D01*
X92076002Y-156557879D01*
X92129658Y-156511386D01*
X92182000Y-156500000D01*
X92438000Y-156500000D01*
X92506121Y-156520002D01*
G37*
%TD.AperFunction*%
%TA.AperFunction,Conductor*%
G36*
X77618690Y-153266502D02*
G01*
X77639664Y-153283404D01*
X77947412Y-153591151D01*
X77954106Y-153603411D01*
X77964624Y-153612609D01*
X77979373Y-153645299D01*
X77980856Y-153650438D01*
X77994249Y-153717767D01*
X78014198Y-153765928D01*
X78016153Y-153772700D01*
X78016022Y-153801438D01*
X78019095Y-153830020D01*
X78015862Y-153836476D01*
X78015830Y-153843696D01*
X78000179Y-153867806D01*
X77987315Y-153893507D01*
X77981107Y-153897190D01*
X77977176Y-153903247D01*
X77950971Y-153915070D01*
X77926257Y-153929734D01*
X77919042Y-153929476D01*
X77912461Y-153932446D01*
X77895097Y-153933648D01*
X76346086Y-153933648D01*
X76277965Y-153913646D01*
X76231472Y-153859990D01*
X76221679Y-153800456D01*
X76220337Y-153800388D01*
X76220500Y-153797184D01*
X76220500Y-153764000D01*
X75351000Y-153764000D01*
X75282879Y-153743998D01*
X75236386Y-153690342D01*
X75225000Y-153638000D01*
X75225000Y-153382000D01*
X75245002Y-153313879D01*
X75298658Y-153267386D01*
X75351000Y-153256000D01*
X76243283Y-153256000D01*
X76255408Y-153249379D01*
X76282191Y-153246500D01*
X77550569Y-153246500D01*
X77618690Y-153266502D01*
G37*
%TD.AperFunction*%
%TA.AperFunction,Conductor*%
G36*
X76416853Y-150583189D02*
G01*
X76433542Y-150597212D01*
X76850735Y-151014405D01*
X76884761Y-151076717D01*
X76879696Y-151147532D01*
X76837149Y-151204368D01*
X76770629Y-151229179D01*
X76761640Y-151229500D01*
X75351000Y-151229500D01*
X75282879Y-151209498D01*
X75236386Y-151155842D01*
X75225000Y-151103500D01*
X75225000Y-150872000D01*
X75245002Y-150803879D01*
X75298658Y-150757386D01*
X75351000Y-150746000D01*
X76220500Y-150746000D01*
X76220500Y-150712816D01*
X76219100Y-150699115D01*
X76232074Y-150629314D01*
X76280726Y-150577608D01*
X76349609Y-150560413D01*
X76416853Y-150583189D01*
G37*
%TD.AperFunction*%
%TA.AperFunction,Conductor*%
G36*
X87172121Y-146966002D02*
G01*
X87218614Y-147019658D01*
X87230000Y-147072000D01*
X87230000Y-147200000D01*
X87358000Y-147200000D01*
X87426121Y-147220002D01*
X87472614Y-147273658D01*
X87484000Y-147326000D01*
X87484000Y-148729991D01*
X87647847Y-148682389D01*
X87718843Y-148682592D01*
X87778459Y-148721145D01*
X87807768Y-148785810D01*
X87809000Y-148803386D01*
X87809000Y-149952651D01*
X87788998Y-150020772D01*
X87787766Y-150022652D01*
X87752588Y-150075299D01*
X87689014Y-150228782D01*
X87689012Y-150228787D01*
X87656601Y-150391728D01*
X87656601Y-150557869D01*
X87661638Y-150583189D01*
X87681044Y-150680754D01*
X87689133Y-150721416D01*
X87686067Y-150755677D01*
X87683610Y-150790030D01*
X87682909Y-150790966D01*
X87682805Y-150792130D01*
X87661686Y-150819316D01*
X87641063Y-150846866D01*
X87639968Y-150847274D01*
X87639251Y-150848198D01*
X87606793Y-150859648D01*
X87574543Y-150871677D01*
X87573399Y-150871428D01*
X87572298Y-150871817D01*
X87538827Y-150863907D01*
X87505169Y-150856586D01*
X87503935Y-150855662D01*
X87503205Y-150855490D01*
X87476459Y-150835093D01*
X87411215Y-150769849D01*
X87377189Y-150707537D01*
X87374310Y-150680754D01*
X87374310Y-150645989D01*
X87374309Y-150645986D01*
X87347755Y-150512491D01*
X87295666Y-150386737D01*
X87238813Y-150301650D01*
X87220045Y-150273562D01*
X87220040Y-150273556D01*
X86599232Y-149652748D01*
X86599231Y-149652747D01*
X86599228Y-149652744D01*
X86486052Y-149577123D01*
X86421817Y-149550516D01*
X86360301Y-149525035D01*
X86360298Y-149525034D01*
X86226802Y-149498479D01*
X86226799Y-149498479D01*
X83025917Y-149498479D01*
X82957796Y-149478477D01*
X82936822Y-149461574D01*
X82394585Y-148919337D01*
X82360559Y-148857025D01*
X82365624Y-148786210D01*
X82408171Y-148729374D01*
X82448522Y-148709247D01*
X82560398Y-148676744D01*
X82701865Y-148593081D01*
X82701865Y-148593080D01*
X82708689Y-148589045D01*
X82709361Y-148590182D01*
X82767824Y-148567220D01*
X82837448Y-148581112D01*
X82856511Y-148595127D01*
X82857235Y-148594194D01*
X82863497Y-148599051D01*
X83006600Y-148683681D01*
X83166000Y-148729991D01*
X83674000Y-148729991D01*
X83833399Y-148683681D01*
X83976500Y-148599052D01*
X83977771Y-148598067D01*
X83978949Y-148597604D01*
X83983321Y-148595019D01*
X83983737Y-148595723D01*
X84043855Y-148572118D01*
X84113478Y-148586016D01*
X84132229Y-148598067D01*
X84133499Y-148599052D01*
X84276600Y-148683681D01*
X84436000Y-148729991D01*
X84944000Y-148729991D01*
X85103399Y-148683681D01*
X85246500Y-148599052D01*
X85247771Y-148598067D01*
X85248949Y-148597604D01*
X85253321Y-148595019D01*
X85253737Y-148595723D01*
X85313855Y-148572118D01*
X85383478Y-148586016D01*
X85402229Y-148598067D01*
X85403499Y-148599052D01*
X85546600Y-148683681D01*
X85706000Y-148729991D01*
X86214000Y-148729991D01*
X86373399Y-148683681D01*
X86516500Y-148599052D01*
X86517771Y-148598067D01*
X86518949Y-148597604D01*
X86523321Y-148595019D01*
X86523737Y-148595723D01*
X86583855Y-148572118D01*
X86653478Y-148586016D01*
X86672229Y-148598067D01*
X86673499Y-148599052D01*
X86816600Y-148683681D01*
X86976000Y-148729991D01*
X86976000Y-147454000D01*
X86214000Y-147454000D01*
X86214000Y-148729991D01*
X85706000Y-148729991D01*
X85706000Y-147454000D01*
X84944000Y-147454000D01*
X84944000Y-148729991D01*
X84436000Y-148729991D01*
X84436000Y-147454000D01*
X83674000Y-147454000D01*
X83674000Y-148729991D01*
X83166000Y-148729991D01*
X83166000Y-147326000D01*
X83186002Y-147257879D01*
X83239658Y-147211386D01*
X83292000Y-147200000D01*
X83420000Y-147200000D01*
X83420000Y-147072000D01*
X83440002Y-147003879D01*
X83493658Y-146957386D01*
X83546000Y-146946000D01*
X87104000Y-146946000D01*
X87172121Y-146966002D01*
G37*
%TD.AperFunction*%
%TA.AperFunction,Conductor*%
G36*
X78310459Y-148280502D02*
G01*
X78331428Y-148297400D01*
X78395697Y-148361669D01*
X78444363Y-148410335D01*
X78536567Y-148471943D01*
X78536566Y-148471943D01*
X78543933Y-148476865D01*
X78557539Y-148485956D01*
X78683293Y-148538045D01*
X78816792Y-148564600D01*
X79135188Y-148564600D01*
X79203309Y-148584602D01*
X79224283Y-148601505D01*
X80299022Y-149676244D01*
X81018715Y-150395936D01*
X81052740Y-150458248D01*
X81047676Y-150529063D01*
X81005129Y-150585899D01*
X80938609Y-150610710D01*
X80929620Y-150611031D01*
X80791186Y-150611031D01*
X80628245Y-150643442D01*
X80628240Y-150643444D01*
X80474756Y-150707019D01*
X80332310Y-150802199D01*
X80264557Y-150823414D01*
X80196090Y-150804631D01*
X80173213Y-150786529D01*
X79558953Y-150172269D01*
X79558952Y-150172268D01*
X79558949Y-150172265D01*
X79445773Y-150096644D01*
X79394242Y-150075299D01*
X79320022Y-150044556D01*
X79320020Y-150044555D01*
X79320019Y-150044555D01*
X79302147Y-150041000D01*
X79302145Y-150040999D01*
X79186523Y-150018000D01*
X79186520Y-150018000D01*
X77860964Y-150018000D01*
X77792843Y-149997998D01*
X77771869Y-149981095D01*
X76664546Y-148873771D01*
X76664540Y-148873766D01*
X76652121Y-148865468D01*
X76551363Y-148798144D01*
X76498142Y-148776099D01*
X76425614Y-148746057D01*
X76425613Y-148746056D01*
X76425609Y-148746055D01*
X76399517Y-148740865D01*
X76399513Y-148740864D01*
X76292113Y-148719500D01*
X76292110Y-148719500D01*
X75351000Y-148719500D01*
X75342174Y-148716908D01*
X75333068Y-148718218D01*
X75308642Y-148707062D01*
X75282879Y-148699498D01*
X75276854Y-148692544D01*
X75268488Y-148688724D01*
X75253973Y-148666138D01*
X75236386Y-148645842D01*
X75234061Y-148635155D01*
X75230104Y-148628998D01*
X75225000Y-148593500D01*
X75225000Y-148386500D01*
X75245002Y-148318379D01*
X75298658Y-148271886D01*
X75351000Y-148260500D01*
X78242338Y-148260500D01*
X78310459Y-148280502D01*
G37*
%TD.AperFunction*%
%TA.AperFunction,Conductor*%
G36*
X75246121Y-143490002D02*
G01*
X75292614Y-143543658D01*
X75304000Y-143596000D01*
X75304000Y-144453000D01*
X75349685Y-144453000D01*
X75349684Y-144452999D01*
X75451773Y-144442569D01*
X75451776Y-144442568D01*
X75617207Y-144387751D01*
X75765533Y-144296262D01*
X75765539Y-144296257D01*
X75888757Y-144173039D01*
X75888762Y-144173033D01*
X75980251Y-144024707D01*
X76035068Y-143859279D01*
X76037965Y-143830919D01*
X76064786Y-143765184D01*
X76122888Y-143724384D01*
X76193825Y-143721473D01*
X76252406Y-143754627D01*
X76344976Y-143847196D01*
X77272095Y-144774315D01*
X77306121Y-144836627D01*
X77309000Y-144863410D01*
X77309000Y-146158782D01*
X77328996Y-146259306D01*
X77335555Y-146292281D01*
X77387644Y-146418035D01*
X77454712Y-146518411D01*
X77463266Y-146531212D01*
X77463271Y-146531218D01*
X77595458Y-146663405D01*
X77629484Y-146725717D01*
X77624419Y-146796532D01*
X77581872Y-146853368D01*
X77515352Y-146878179D01*
X77506363Y-146878500D01*
X76043301Y-146878500D01*
X75975180Y-146858498D01*
X75928687Y-146804842D01*
X75918583Y-146734568D01*
X75936060Y-146686353D01*
X75980251Y-146614707D01*
X76035068Y-146449276D01*
X76035069Y-146449273D01*
X76045499Y-146347184D01*
X76045500Y-146347184D01*
X76045500Y-146314000D01*
X75176000Y-146314000D01*
X75107879Y-146293998D01*
X75061386Y-146240342D01*
X75050000Y-146188000D01*
X75050000Y-146060000D01*
X74922000Y-146060000D01*
X74853879Y-146039998D01*
X74807386Y-145986342D01*
X74796000Y-145934000D01*
X74796000Y-145806000D01*
X75304000Y-145806000D01*
X76045500Y-145806000D01*
X76045500Y-145772815D01*
X76035069Y-145670726D01*
X76035068Y-145670723D01*
X75980251Y-145505292D01*
X75888762Y-145356966D01*
X75888757Y-145356960D01*
X75765539Y-145233742D01*
X75765533Y-145233737D01*
X75617207Y-145142248D01*
X75451776Y-145087431D01*
X75451773Y-145087430D01*
X75349684Y-145077000D01*
X75304000Y-145077000D01*
X75304000Y-145806000D01*
X74796000Y-145806000D01*
X74796000Y-145077000D01*
X74750315Y-145077000D01*
X74648226Y-145087430D01*
X74648223Y-145087431D01*
X74482792Y-145142248D01*
X74334466Y-145233737D01*
X74334460Y-145233742D01*
X74221292Y-145346911D01*
X74158980Y-145380937D01*
X74088165Y-145375872D01*
X74043102Y-145346911D01*
X73935856Y-145239665D01*
X73935850Y-145239660D01*
X73828800Y-145173631D01*
X73781322Y-145120845D01*
X73769919Y-145050770D01*
X73771364Y-145041831D01*
X73800000Y-144897868D01*
X73800000Y-144731732D01*
X73767589Y-144568789D01*
X73751023Y-144528796D01*
X73743435Y-144458209D01*
X73775214Y-144394722D01*
X73801282Y-144373342D01*
X73935850Y-144290340D01*
X73978321Y-144247869D01*
X74043102Y-144183089D01*
X74105414Y-144149063D01*
X74176229Y-144154128D01*
X74221292Y-144183089D01*
X74334460Y-144296257D01*
X74334466Y-144296262D01*
X74482792Y-144387751D01*
X74648223Y-144442568D01*
X74648226Y-144442569D01*
X74750315Y-144452999D01*
X74750315Y-144453000D01*
X74796000Y-144453000D01*
X74796000Y-143596000D01*
X74816002Y-143527879D01*
X74869658Y-143481386D01*
X74922000Y-143470000D01*
X75178000Y-143470000D01*
X75246121Y-143490002D01*
G37*
%TD.AperFunction*%
%TA.AperFunction,Conductor*%
G36*
X115440099Y-129860182D02*
G01*
X115469128Y-129862259D01*
X115474608Y-129866361D01*
X115481346Y-129867568D01*
X115502668Y-129887367D01*
X115525964Y-129904806D01*
X115528356Y-129911219D01*
X115533372Y-129915877D01*
X115540606Y-129944062D01*
X115550775Y-129971326D01*
X115549736Y-129979637D01*
X115551022Y-129984645D01*
X115544701Y-130019947D01*
X115534826Y-130049745D01*
X115534825Y-130049752D01*
X115524500Y-130150814D01*
X115524500Y-130849177D01*
X115534825Y-130950253D01*
X115589090Y-131114012D01*
X115589091Y-131114014D01*
X115589092Y-131114016D01*
X115663263Y-131234266D01*
X115679660Y-131260850D01*
X115679665Y-131260856D01*
X115686911Y-131268102D01*
X115720937Y-131330414D01*
X115715872Y-131401229D01*
X115686911Y-131446292D01*
X115673742Y-131459460D01*
X115673737Y-131459466D01*
X115582248Y-131607792D01*
X115527431Y-131773223D01*
X115527430Y-131773226D01*
X115517000Y-131875315D01*
X115517000Y-131971000D01*
X116374000Y-131971000D01*
X116442121Y-131991002D01*
X116488614Y-132044658D01*
X116500000Y-132097000D01*
X116500000Y-132353000D01*
X116479998Y-132421121D01*
X116426342Y-132467614D01*
X116374000Y-132479000D01*
X115517000Y-132479000D01*
X115517000Y-132574684D01*
X115527430Y-132676773D01*
X115527431Y-132676776D01*
X115582248Y-132842207D01*
X115673737Y-132990533D01*
X115673742Y-132990539D01*
X115796960Y-133113757D01*
X115796966Y-133113762D01*
X115945293Y-133205251D01*
X116034728Y-133234887D01*
X116093100Y-133275301D01*
X116120356Y-133340857D01*
X116107843Y-133410743D01*
X116084191Y-133443587D01*
X114018271Y-135509506D01*
X114018266Y-135509513D01*
X113973878Y-135575942D01*
X113973879Y-135575943D01*
X113942642Y-135622692D01*
X113942640Y-135622696D01*
X113938285Y-135633209D01*
X113933586Y-135640240D01*
X113932475Y-135645354D01*
X113910986Y-135674066D01*
X113906105Y-135678948D01*
X113843796Y-135712980D01*
X113772980Y-135707922D01*
X113716140Y-135665381D01*
X113691322Y-135598864D01*
X113691000Y-135589862D01*
X113691000Y-134838411D01*
X113711002Y-134770290D01*
X113727905Y-134749316D01*
X114536735Y-133940486D01*
X114612356Y-133827311D01*
X114664445Y-133701557D01*
X114684052Y-133602987D01*
X114691000Y-133568058D01*
X114691000Y-130588411D01*
X114711002Y-130520290D01*
X114727905Y-130499316D01*
X115336001Y-129891220D01*
X115342007Y-129887939D01*
X115345905Y-129882311D01*
X115372774Y-129871139D01*
X115398313Y-129857194D01*
X115405141Y-129857682D01*
X115411461Y-129855055D01*
X115440099Y-129860182D01*
G37*
%TD.AperFunction*%
%TA.AperFunction,Conductor*%
G36*
X119446121Y-132245002D02*
G01*
X119492614Y-132298658D01*
X119504000Y-132351000D01*
X119504000Y-133270500D01*
X119537183Y-133270500D01*
X119550884Y-133269100D01*
X119620685Y-133282073D01*
X119672391Y-133330725D01*
X119689586Y-133399608D01*
X119666811Y-133466852D01*
X119652787Y-133483542D01*
X117828271Y-135308057D01*
X117828266Y-135308064D01*
X117757971Y-135413268D01*
X117752644Y-135421239D01*
X117752643Y-135421242D01*
X117733936Y-135466404D01*
X117689387Y-135521684D01*
X117622024Y-135544104D01*
X117553389Y-135526637D01*
X117505401Y-135498257D01*
X117347568Y-135452401D01*
X117313595Y-135449728D01*
X117310694Y-135449500D01*
X116879306Y-135449500D01*
X116876405Y-135449728D01*
X116842432Y-135452401D01*
X116842431Y-135452401D01*
X116684598Y-135498257D01*
X116543134Y-135581919D01*
X116537219Y-135586507D01*
X116517362Y-135594301D01*
X116499843Y-135606477D01*
X116484976Y-135607014D01*
X116471132Y-135612449D01*
X116450214Y-135608271D01*
X116428893Y-135609042D01*
X116411489Y-135600536D01*
X116401511Y-135598544D01*
X116395753Y-135595332D01*
X116382309Y-135587363D01*
X116376865Y-135581919D01*
X116235398Y-135498256D01*
X116228689Y-135496307D01*
X116215856Y-135488700D01*
X116196882Y-135468338D01*
X116175489Y-135450538D01*
X116173029Y-135442740D01*
X116167455Y-135436759D01*
X116162501Y-135409372D01*
X116154128Y-135382831D01*
X116156274Y-135374941D01*
X116154819Y-135366896D01*
X116165457Y-135341181D01*
X116172763Y-135314324D01*
X116180757Y-135304197D01*
X116181960Y-135301292D01*
X116184379Y-135299610D01*
X116191008Y-135291215D01*
X118368618Y-133113605D01*
X118430930Y-133079579D01*
X118501745Y-133084644D01*
X118540791Y-133109738D01*
X118541209Y-133109210D01*
X118546591Y-133113466D01*
X118546808Y-133113605D01*
X118546960Y-133113757D01*
X118546966Y-133113762D01*
X118695292Y-133205251D01*
X118860723Y-133260068D01*
X118860726Y-133260069D01*
X118962815Y-133270499D01*
X118962815Y-133270500D01*
X118996000Y-133270500D01*
X118996000Y-132351000D01*
X119016002Y-132282879D01*
X119069658Y-132236386D01*
X119122000Y-132225000D01*
X119378000Y-132225000D01*
X119446121Y-132245002D01*
G37*
%TD.AperFunction*%
%TA.AperFunction,Conductor*%
G36*
X126479709Y-125711002D02*
G01*
X126500683Y-125727905D01*
X127522095Y-126749317D01*
X127556121Y-126811629D01*
X127559000Y-126838412D01*
X127559000Y-131606587D01*
X127538998Y-131674708D01*
X127522095Y-131695682D01*
X123801501Y-135416275D01*
X123739189Y-135450301D01*
X123702520Y-135452792D01*
X123697570Y-135452402D01*
X123697569Y-135452402D01*
X123660694Y-135449500D01*
X123229306Y-135449500D01*
X123226405Y-135449728D01*
X123192432Y-135452401D01*
X123192431Y-135452401D01*
X123115482Y-135474758D01*
X123044486Y-135474555D01*
X122984869Y-135436001D01*
X122955561Y-135371337D01*
X122965865Y-135301092D01*
X122991234Y-135264666D01*
X123506584Y-134749316D01*
X125036735Y-133219166D01*
X125112356Y-133105991D01*
X125164445Y-132980237D01*
X125191000Y-132846737D01*
X125191000Y-132710623D01*
X125191000Y-130411660D01*
X125211002Y-130343539D01*
X125264658Y-130297046D01*
X125334932Y-130286942D01*
X125383147Y-130304419D01*
X125445292Y-130342751D01*
X125610723Y-130397568D01*
X125610726Y-130397569D01*
X125712815Y-130407999D01*
X125712815Y-130408000D01*
X125746000Y-130408000D01*
X126254000Y-130408000D01*
X126287185Y-130408000D01*
X126287184Y-130407999D01*
X126389273Y-130397569D01*
X126389276Y-130397568D01*
X126554707Y-130342751D01*
X126703033Y-130251262D01*
X126703039Y-130251257D01*
X126826257Y-130128039D01*
X126826262Y-130128033D01*
X126917751Y-129979707D01*
X126972568Y-129814276D01*
X126972569Y-129814273D01*
X126982999Y-129712184D01*
X126983000Y-129712184D01*
X126983000Y-129616500D01*
X126254000Y-129616500D01*
X126254000Y-130408000D01*
X125746000Y-130408000D01*
X125746000Y-129488500D01*
X125766002Y-129420379D01*
X125819658Y-129373886D01*
X125872000Y-129362500D01*
X126000000Y-129362500D01*
X126000000Y-129234500D01*
X126020002Y-129166379D01*
X126073658Y-129119886D01*
X126126000Y-129108500D01*
X126983000Y-129108500D01*
X126983000Y-129012815D01*
X126972569Y-128910726D01*
X126972568Y-128910723D01*
X126917751Y-128745292D01*
X126826262Y-128596966D01*
X126813090Y-128583795D01*
X126779063Y-128521484D01*
X126784126Y-128450668D01*
X126813089Y-128405600D01*
X126820340Y-128398350D01*
X126910908Y-128251516D01*
X126965174Y-128087753D01*
X126975500Y-127986677D01*
X126975499Y-127288324D01*
X126971868Y-127252783D01*
X126965174Y-127187246D01*
X126910909Y-127023487D01*
X126910908Y-127023486D01*
X126910908Y-127023484D01*
X126820340Y-126876650D01*
X126820339Y-126876649D01*
X126820334Y-126876643D01*
X126698356Y-126754665D01*
X126698350Y-126754660D01*
X126628608Y-126711643D01*
X126551516Y-126664092D01*
X126551514Y-126664091D01*
X126551512Y-126664090D01*
X126387759Y-126609827D01*
X126387747Y-126609825D01*
X126286685Y-126599500D01*
X126286677Y-126599500D01*
X125991412Y-126599500D01*
X125923291Y-126579498D01*
X125902321Y-126562599D01*
X125357487Y-126017765D01*
X125244311Y-125942144D01*
X125223221Y-125933408D01*
X125167942Y-125888860D01*
X125145521Y-125821497D01*
X125163080Y-125752705D01*
X125215042Y-125704327D01*
X125271441Y-125691000D01*
X126411588Y-125691000D01*
X126479709Y-125711002D01*
G37*
%TD.AperFunction*%
%TA.AperFunction,Conductor*%
G36*
X119919718Y-116461002D02*
G01*
X119966211Y-116514658D01*
X119976315Y-116584932D01*
X119946821Y-116649512D01*
X119917744Y-116674241D01*
X119796966Y-116748737D01*
X119796960Y-116748742D01*
X119673742Y-116871960D01*
X119673737Y-116871966D01*
X119582248Y-117020292D01*
X119527431Y-117185723D01*
X119527430Y-117185726D01*
X119517000Y-117287815D01*
X119517000Y-117383500D01*
X121483000Y-117383500D01*
X121483000Y-117287815D01*
X121472569Y-117185726D01*
X121472568Y-117185723D01*
X121417751Y-117020292D01*
X121326262Y-116871966D01*
X121326257Y-116871960D01*
X121203039Y-116748742D01*
X121203033Y-116748737D01*
X121082256Y-116674241D01*
X121034778Y-116621455D01*
X121023375Y-116551380D01*
X121051668Y-116486264D01*
X121110673Y-116446782D01*
X121148403Y-116441000D01*
X122115884Y-116441000D01*
X122184005Y-116461002D01*
X122230498Y-116514658D01*
X122240602Y-116584932D01*
X122211108Y-116649512D01*
X122182034Y-116674238D01*
X122122431Y-116711002D01*
X122051649Y-116754660D01*
X122051643Y-116754665D01*
X121929665Y-116876643D01*
X121929660Y-116876649D01*
X121839090Y-117023487D01*
X121784827Y-117187240D01*
X121784825Y-117187252D01*
X121774500Y-117288314D01*
X121774500Y-117886677D01*
X121784825Y-117987753D01*
X121839090Y-118151512D01*
X121839091Y-118151514D01*
X121839092Y-118151516D01*
X121876088Y-118211496D01*
X121929660Y-118298350D01*
X121929665Y-118298356D01*
X122042214Y-118410905D01*
X122076240Y-118473217D01*
X122071175Y-118544032D01*
X122042214Y-118589095D01*
X121929665Y-118701643D01*
X121929660Y-118701649D01*
X121839090Y-118848487D01*
X121784827Y-119012240D01*
X121784825Y-119012252D01*
X121774500Y-119113314D01*
X121774500Y-119358587D01*
X121765716Y-119388502D01*
X121759088Y-119418972D01*
X121755273Y-119424067D01*
X121754498Y-119426708D01*
X121737595Y-119447682D01*
X121690594Y-119494683D01*
X121628282Y-119528709D01*
X121557467Y-119523644D01*
X121500631Y-119481097D01*
X121475820Y-119414577D01*
X121475499Y-119405588D01*
X121475499Y-119013322D01*
X121465174Y-118912246D01*
X121410909Y-118748487D01*
X121410908Y-118748486D01*
X121410908Y-118748484D01*
X121320340Y-118601650D01*
X121320339Y-118601649D01*
X121320334Y-118601643D01*
X121313088Y-118594397D01*
X121279062Y-118532085D01*
X121284127Y-118461270D01*
X121313092Y-118416202D01*
X121326262Y-118403032D01*
X121417751Y-118254707D01*
X121472568Y-118089276D01*
X121472569Y-118089273D01*
X121482999Y-117987184D01*
X121483000Y-117987184D01*
X121483000Y-117891500D01*
X119517000Y-117891500D01*
X119517000Y-117987184D01*
X119527430Y-118089273D01*
X119527431Y-118089276D01*
X119582248Y-118254707D01*
X119673737Y-118403033D01*
X119686909Y-118416204D01*
X119720936Y-118478515D01*
X119715873Y-118549331D01*
X119686915Y-118594394D01*
X119679660Y-118601649D01*
X119589090Y-118748487D01*
X119534827Y-118912240D01*
X119534825Y-118912252D01*
X119524500Y-119013314D01*
X119524500Y-119711677D01*
X119534825Y-119812753D01*
X119589090Y-119976512D01*
X119589091Y-119976514D01*
X119589092Y-119976516D01*
X119672740Y-120112131D01*
X119679660Y-120123350D01*
X119684213Y-120129108D01*
X119683206Y-120129903D01*
X119713618Y-120185585D01*
X119716500Y-120212380D01*
X119716500Y-121471613D01*
X119696498Y-121539734D01*
X119642842Y-121586227D01*
X119572568Y-121596331D01*
X119555346Y-121592610D01*
X119391500Y-121545007D01*
X119391500Y-124504991D01*
X119496071Y-124474610D01*
X119567068Y-124474813D01*
X119626684Y-124513366D01*
X119655993Y-124578031D01*
X119656588Y-124583009D01*
X119678295Y-124692137D01*
X119689011Y-124746011D01*
X119752588Y-124899500D01*
X119807752Y-124982058D01*
X119844887Y-125037635D01*
X119844892Y-125037641D01*
X119882695Y-125075444D01*
X119916721Y-125137756D01*
X119911656Y-125208571D01*
X119882695Y-125253634D01*
X118600768Y-126535560D01*
X118600763Y-126535567D01*
X118569494Y-126582364D01*
X118515017Y-126627892D01*
X118444573Y-126636739D01*
X118400590Y-126620815D01*
X118277901Y-126548257D01*
X118120068Y-126502401D01*
X118086095Y-126499728D01*
X118083194Y-126499500D01*
X117651806Y-126499500D01*
X117648905Y-126499728D01*
X117614932Y-126502401D01*
X117614931Y-126502401D01*
X117457098Y-126548257D01*
X117315634Y-126631919D01*
X117309719Y-126636507D01*
X117282798Y-126647074D01*
X117257181Y-126660501D01*
X117250176Y-126659879D01*
X117243632Y-126662449D01*
X117215271Y-126656784D01*
X117186462Y-126654230D01*
X117177783Y-126649297D01*
X117174011Y-126648544D01*
X117155283Y-126636509D01*
X117149366Y-126631920D01*
X117149365Y-126631919D01*
X117149362Y-126631917D01*
X117147380Y-126630380D01*
X117105808Y-126572827D01*
X117101951Y-126501936D01*
X117135500Y-126441720D01*
X118404235Y-125172986D01*
X118479856Y-125059811D01*
X118531945Y-124934057D01*
X118553178Y-124827311D01*
X118558500Y-124800558D01*
X118558500Y-124578386D01*
X118578502Y-124510265D01*
X118632158Y-124463772D01*
X118702432Y-124453668D01*
X118719653Y-124457389D01*
X118883500Y-124504991D01*
X118883500Y-121545007D01*
X118719654Y-121592610D01*
X118648657Y-121592407D01*
X118589041Y-121553854D01*
X118559732Y-121489189D01*
X118558500Y-121471613D01*
X118558500Y-120178278D01*
X118577258Y-120112133D01*
X118660908Y-119976516D01*
X118715174Y-119812753D01*
X118725500Y-119711677D01*
X118725499Y-119013324D01*
X118725389Y-119012252D01*
X118715174Y-118912246D01*
X118660909Y-118748487D01*
X118660908Y-118748486D01*
X118660908Y-118748484D01*
X118570340Y-118601650D01*
X118570339Y-118601649D01*
X118570334Y-118601643D01*
X118563088Y-118594397D01*
X118529062Y-118532085D01*
X118534127Y-118461270D01*
X118563092Y-118416202D01*
X118576262Y-118403032D01*
X118667751Y-118254707D01*
X118722568Y-118089276D01*
X118722569Y-118089273D01*
X118732999Y-117987184D01*
X118733000Y-117987184D01*
X118733000Y-117891500D01*
X117876000Y-117891500D01*
X117807879Y-117871498D01*
X117761386Y-117817842D01*
X117750000Y-117765500D01*
X117750000Y-117509500D01*
X117770002Y-117441379D01*
X117823658Y-117394886D01*
X117876000Y-117383500D01*
X118733000Y-117383500D01*
X118733000Y-117287815D01*
X118722569Y-117185726D01*
X118722568Y-117185723D01*
X118667751Y-117020292D01*
X118576262Y-116871966D01*
X118576257Y-116871960D01*
X118453039Y-116748742D01*
X118453033Y-116748737D01*
X118332256Y-116674241D01*
X118284778Y-116621455D01*
X118273375Y-116551380D01*
X118301668Y-116486264D01*
X118360673Y-116446782D01*
X118398403Y-116441000D01*
X119851597Y-116441000D01*
X119919718Y-116461002D01*
G37*
%TD.AperFunction*%
%TA.AperFunction,Conductor*%
G36*
X129694309Y-116461002D02*
G01*
X129715283Y-116477905D01*
X130952195Y-117714817D01*
X130986221Y-117777129D01*
X130989100Y-117803912D01*
X130989100Y-118099177D01*
X130999425Y-118200253D01*
X131053690Y-118364012D01*
X131053691Y-118364014D01*
X131053692Y-118364016D01*
X131113679Y-118461270D01*
X131144260Y-118510850D01*
X131144265Y-118510856D01*
X131266243Y-118632834D01*
X131266249Y-118632839D01*
X131266250Y-118632840D01*
X131413084Y-118723408D01*
X131413086Y-118723408D01*
X131413087Y-118723409D01*
X131576840Y-118777672D01*
X131576841Y-118777672D01*
X131576847Y-118777674D01*
X131677923Y-118788000D01*
X132251276Y-118787999D01*
X132251277Y-118787999D01*
X132352353Y-118777674D01*
X132352359Y-118777672D01*
X132516116Y-118723408D01*
X132662950Y-118632840D01*
X132784940Y-118510850D01*
X132875508Y-118364016D01*
X132929774Y-118200253D01*
X132940100Y-118099177D01*
X132940099Y-117400824D01*
X132939989Y-117399752D01*
X132929774Y-117299746D01*
X132875509Y-117135987D01*
X132875508Y-117135986D01*
X132875508Y-117135984D01*
X132784940Y-116989150D01*
X132772385Y-116976595D01*
X132738360Y-116914287D01*
X132743423Y-116843471D01*
X132760276Y-116812441D01*
X132765808Y-116804981D01*
X132784940Y-116785850D01*
X132809357Y-116746263D01*
X132812563Y-116741941D01*
X132836762Y-116723657D01*
X132859312Y-116703375D01*
X132865453Y-116701979D01*
X132869209Y-116699142D01*
X132882326Y-116698144D01*
X132913767Y-116691000D01*
X136147220Y-116691000D01*
X136215341Y-116711002D01*
X136236315Y-116727905D01*
X136306814Y-116798404D01*
X136340840Y-116860716D01*
X136335775Y-116931531D01*
X136306815Y-116976594D01*
X136194260Y-117089149D01*
X136103690Y-117235987D01*
X136049427Y-117399740D01*
X136049425Y-117399752D01*
X136039100Y-117500814D01*
X136039100Y-118099177D01*
X136049425Y-118200253D01*
X136103690Y-118364012D01*
X136103691Y-118364014D01*
X136103692Y-118364016D01*
X136163679Y-118461270D01*
X136194260Y-118510850D01*
X136194265Y-118510856D01*
X136316243Y-118632834D01*
X136316249Y-118632839D01*
X136316250Y-118632840D01*
X136463084Y-118723408D01*
X136463086Y-118723408D01*
X136463087Y-118723409D01*
X136626840Y-118777672D01*
X136626841Y-118777672D01*
X136626847Y-118777674D01*
X136727923Y-118788000D01*
X137301276Y-118787999D01*
X137301277Y-118787999D01*
X137402353Y-118777674D01*
X137402359Y-118777672D01*
X137566116Y-118723408D01*
X137712950Y-118632840D01*
X137766130Y-118579660D01*
X137840130Y-118505661D01*
X137841790Y-118507321D01*
X137890504Y-118472823D01*
X137931404Y-118466000D01*
X141322796Y-118466000D01*
X141390917Y-118486002D01*
X141413370Y-118506360D01*
X141414070Y-118505661D01*
X141541243Y-118632834D01*
X141541249Y-118632839D01*
X141541250Y-118632840D01*
X141688084Y-118723408D01*
X141688086Y-118723408D01*
X141688087Y-118723409D01*
X141851840Y-118777672D01*
X141851841Y-118777672D01*
X141851847Y-118777674D01*
X141952923Y-118788000D01*
X142526276Y-118787999D01*
X142526277Y-118787999D01*
X142627353Y-118777674D01*
X142627359Y-118777672D01*
X142791116Y-118723408D01*
X142937950Y-118632840D01*
X143059940Y-118510850D01*
X143150508Y-118364016D01*
X143172268Y-118298350D01*
X143179221Y-118277367D01*
X143219635Y-118218996D01*
X143285191Y-118191740D01*
X143298825Y-118191000D01*
X150933000Y-118191000D01*
X151001121Y-118211002D01*
X151047614Y-118264658D01*
X151059000Y-118317000D01*
X151059000Y-119048454D01*
X151038998Y-119116575D01*
X150985342Y-119163068D01*
X150915068Y-119173172D01*
X150850488Y-119143678D01*
X150814944Y-119092485D01*
X150762798Y-118952673D01*
X150762796Y-118952670D01*
X150762796Y-118952669D01*
X150719671Y-118895061D01*
X150676546Y-118837453D01*
X150596688Y-118777672D01*
X150561331Y-118751204D01*
X150561329Y-118751203D01*
X150561326Y-118751201D01*
X150426483Y-118700909D01*
X150426486Y-118700909D01*
X150366873Y-118694500D01*
X147771135Y-118694500D01*
X147771114Y-118694502D01*
X147711519Y-118700908D01*
X147711518Y-118700908D01*
X147576673Y-118751201D01*
X147576670Y-118751203D01*
X147461453Y-118837453D01*
X147375203Y-118952670D01*
X147375201Y-118952673D01*
X147324909Y-119087515D01*
X147318500Y-119147121D01*
X147318500Y-121042864D01*
X147318502Y-121042885D01*
X147324908Y-121102480D01*
X147324908Y-121102481D01*
X147375203Y-121237330D01*
X147399278Y-121269491D01*
X147424089Y-121336011D01*
X147408998Y-121405385D01*
X147399278Y-121420509D01*
X147375203Y-121452669D01*
X147324909Y-121587515D01*
X147318500Y-121647121D01*
X147318500Y-121778000D01*
X147298498Y-121846121D01*
X147244842Y-121892614D01*
X147192500Y-121904000D01*
X146033412Y-121904000D01*
X145965291Y-121883998D01*
X145944321Y-121867099D01*
X145402987Y-121325765D01*
X145289811Y-121250144D01*
X145258875Y-121237330D01*
X145164060Y-121198056D01*
X145164058Y-121198055D01*
X145164057Y-121198055D01*
X145146185Y-121194500D01*
X145146183Y-121194499D01*
X145030561Y-121171500D01*
X145030558Y-121171500D01*
X143183747Y-121171500D01*
X143180722Y-121170612D01*
X143177659Y-121171353D01*
X143146879Y-121160674D01*
X143115626Y-121151498D01*
X143112666Y-121148805D01*
X143110584Y-121148083D01*
X143103234Y-121140224D01*
X143084647Y-121123315D01*
X143080246Y-121117710D01*
X143070340Y-121101650D01*
X143057747Y-121089057D01*
X143053083Y-121083117D01*
X143042602Y-121056882D01*
X143029062Y-121032085D01*
X143029613Y-121024367D01*
X143026745Y-121017186D01*
X143032111Y-120989452D01*
X143034127Y-120961270D01*
X143039044Y-120953617D01*
X143040232Y-120947483D01*
X143048660Y-120938656D01*
X143063092Y-120916202D01*
X143076262Y-120903032D01*
X143167751Y-120754707D01*
X143222568Y-120589276D01*
X143222569Y-120589273D01*
X143232999Y-120487184D01*
X143233000Y-120487184D01*
X143233000Y-120391500D01*
X141267000Y-120391500D01*
X141267000Y-120487184D01*
X141277430Y-120589273D01*
X141277431Y-120589276D01*
X141332248Y-120754707D01*
X141423737Y-120903033D01*
X141436909Y-120916204D01*
X141441313Y-120924268D01*
X141448670Y-120929774D01*
X141458060Y-120954937D01*
X141470936Y-120978515D01*
X141470280Y-120987682D01*
X141473493Y-120996290D01*
X141467788Y-121022536D01*
X141465873Y-121049331D01*
X141459967Y-121058521D01*
X141458415Y-121065667D01*
X141436928Y-121094381D01*
X141434231Y-121097079D01*
X141371925Y-121131116D01*
X141345119Y-121134000D01*
X137993268Y-121134000D01*
X137925147Y-121113998D01*
X137878654Y-121060342D01*
X137868550Y-120990068D01*
X137886025Y-120941856D01*
X137910908Y-120901516D01*
X137965174Y-120737753D01*
X137975500Y-120636677D01*
X137975499Y-120038324D01*
X137972731Y-120011230D01*
X137965174Y-119937246D01*
X137927735Y-119824265D01*
X137915657Y-119787815D01*
X141267000Y-119787815D01*
X141267000Y-119883500D01*
X141996000Y-119883500D01*
X142504000Y-119883500D01*
X143233000Y-119883500D01*
X143233000Y-119787815D01*
X143222569Y-119685726D01*
X143222568Y-119685723D01*
X143167751Y-119520292D01*
X143076262Y-119371966D01*
X143076257Y-119371960D01*
X142953039Y-119248742D01*
X142953033Y-119248737D01*
X142804707Y-119157248D01*
X142639276Y-119102431D01*
X142639273Y-119102430D01*
X142537184Y-119092000D01*
X142504000Y-119092000D01*
X142504000Y-119883500D01*
X141996000Y-119883500D01*
X141996000Y-119092000D01*
X141962815Y-119092000D01*
X141860726Y-119102430D01*
X141860723Y-119102431D01*
X141695292Y-119157248D01*
X141546966Y-119248737D01*
X141546960Y-119248742D01*
X141423742Y-119371960D01*
X141423737Y-119371966D01*
X141332248Y-119520292D01*
X141277431Y-119685723D01*
X141277430Y-119685726D01*
X141267000Y-119787815D01*
X137915657Y-119787815D01*
X137910908Y-119773484D01*
X137820340Y-119626650D01*
X137820339Y-119626649D01*
X137820334Y-119626643D01*
X137698356Y-119504665D01*
X137698350Y-119504660D01*
X137660148Y-119481097D01*
X137551516Y-119414092D01*
X137551514Y-119414091D01*
X137551512Y-119414090D01*
X137387759Y-119359827D01*
X137387747Y-119359825D01*
X137286685Y-119349500D01*
X136713322Y-119349500D01*
X136612246Y-119359825D01*
X136605372Y-119362104D01*
X136565739Y-119368500D01*
X132864380Y-119368500D01*
X132796259Y-119348498D01*
X132775289Y-119331599D01*
X132698350Y-119254660D01*
X132551516Y-119164092D01*
X132551514Y-119164091D01*
X132551512Y-119164090D01*
X132387759Y-119109827D01*
X132387747Y-119109825D01*
X132286685Y-119099500D01*
X131713322Y-119099500D01*
X131612246Y-119109825D01*
X131448487Y-119164090D01*
X131301649Y-119254660D01*
X131301643Y-119254665D01*
X131179665Y-119376643D01*
X131179660Y-119376649D01*
X131089090Y-119523487D01*
X131034827Y-119687240D01*
X131034825Y-119687252D01*
X131024500Y-119788314D01*
X131024500Y-120486677D01*
X131034825Y-120587753D01*
X131089090Y-120751512D01*
X131089091Y-120751514D01*
X131089092Y-120751516D01*
X131173950Y-120889092D01*
X131179660Y-120898350D01*
X131179665Y-120898356D01*
X131192214Y-120910905D01*
X131193414Y-120913103D01*
X131195565Y-120914387D01*
X131210335Y-120944090D01*
X131226240Y-120973217D01*
X131226061Y-120975716D01*
X131227176Y-120977958D01*
X131223543Y-121010923D01*
X131221175Y-121044032D01*
X131219588Y-121046809D01*
X131219399Y-121048527D01*
X131214034Y-121056533D01*
X131201017Y-121079321D01*
X131196866Y-121084443D01*
X131179660Y-121101650D01*
X131169248Y-121118529D01*
X131164151Y-121124821D01*
X131141331Y-121140575D01*
X131120707Y-121159126D01*
X131111397Y-121161241D01*
X131105726Y-121165157D01*
X131092198Y-121165604D01*
X131066253Y-121171500D01*
X128950912Y-121171500D01*
X128882791Y-121151498D01*
X128861817Y-121134595D01*
X127227905Y-119500683D01*
X127193879Y-119438371D01*
X127191000Y-119411588D01*
X127191000Y-117931941D01*
X127190999Y-117931938D01*
X127181996Y-117886676D01*
X127164445Y-117798443D01*
X127160558Y-117789057D01*
X127112356Y-117672688D01*
X127036735Y-117559513D01*
X126577987Y-117100765D01*
X126464811Y-117025144D01*
X126377914Y-116989150D01*
X126339060Y-116973056D01*
X126339058Y-116973055D01*
X126339057Y-116973055D01*
X126289840Y-116963265D01*
X126289839Y-116963264D01*
X126205561Y-116946500D01*
X126205558Y-116946500D01*
X125933747Y-116946500D01*
X125865626Y-116926498D01*
X125826507Y-116886648D01*
X125820341Y-116876652D01*
X125820340Y-116876650D01*
X125820337Y-116876647D01*
X125820334Y-116876643D01*
X125698356Y-116754665D01*
X125698350Y-116754660D01*
X125677729Y-116741941D01*
X125567967Y-116674239D01*
X125520491Y-116621455D01*
X125509088Y-116551380D01*
X125537380Y-116486265D01*
X125596385Y-116446782D01*
X125634116Y-116441000D01*
X129626188Y-116441000D01*
X129694309Y-116461002D01*
G37*
%TD.AperFunction*%
%TD*%
M02*
