%TF.GenerationSoftware,KiCad,Pcbnew,9.0.1+1*%
%TF.CreationDate,2025-10-09T19:14:13+00:00*%
%TF.ProjectId,rcbus-opl3,72636275-732d-46f7-906c-332e6b696361,@version@*%
%TF.SameCoordinates,Original*%
%TF.FileFunction,Drillmap*%
%TF.FilePolarity,Positive*%
%FSLAX45Y45*%
G04 Gerber Fmt 4.5, Leading zero omitted, Abs format (unit mm)*
G04 Created by KiCad (PCBNEW 9.0.1+1) date 2025-10-09 19:14:13*
%MOMM*%
%LPD*%
G01*
G04 APERTURE LIST*
%ADD10C,0.150000*%
%ADD11C,0.200000*%
%ADD12C,0.120000*%
%ADD13C,0.320000*%
G04 APERTURE END LIST*
D10*
X15786900Y-12318200D02*
X15786900Y-12800800D01*
X16000000Y-12203900D02*
X16000000Y-12050000D01*
X15450000Y-11500000D02*
X7500000Y-11500000D01*
X15450000Y-11500000D02*
G75*
G02*
X16000000Y-12050000I0J-550000D01*
G01*
X16000000Y-12203900D02*
X15901200Y-12203900D01*
X16000000Y-12915100D02*
X15901200Y-12915100D01*
X6000000Y-13000000D02*
X7500000Y-11500000D01*
X6000000Y-13000000D02*
X6000000Y-16500000D01*
X15901200Y-12915100D02*
G75*
G02*
X15786900Y-12800800I0J114300D01*
G01*
X16000000Y-16500000D02*
X16000000Y-12915100D01*
X6000000Y-16500000D02*
X16000000Y-16500000D01*
X15786900Y-12318200D02*
G75*
G02*
X15901200Y-12203900I114300J0D01*
G01*
D11*
D12*
X14796900Y-12499500D02*
X14916900Y-12619500D01*
X14916900Y-12499500D02*
X14796900Y-12619500D01*
X15296900Y-11999500D02*
X15416900Y-12119500D01*
X15416900Y-11999500D02*
X15296900Y-12119500D01*
X15296900Y-12999500D02*
X15416900Y-13119500D01*
X15416900Y-12999500D02*
X15296900Y-13119500D01*
X15546900Y-11999500D02*
X15666900Y-12119500D01*
X15666900Y-11999500D02*
X15546900Y-12119500D01*
X15546900Y-12999500D02*
X15666900Y-13119500D01*
X15666900Y-12999500D02*
X15546900Y-13119500D01*
D13*
X6663200Y-13188200D02*
G75*
G02*
X6343200Y-13188200I-160000J0D01*
G01*
X6343200Y-13188200D02*
G75*
G02*
X6663200Y-13188200I160000J0D01*
G01*
D11*
X6253277Y-16818984D02*
X6253277Y-16618984D01*
X6253277Y-16618984D02*
X6300896Y-16618984D01*
X6300896Y-16618984D02*
X6329467Y-16628508D01*
X6329467Y-16628508D02*
X6348515Y-16647555D01*
X6348515Y-16647555D02*
X6358039Y-16666603D01*
X6358039Y-16666603D02*
X6367562Y-16704698D01*
X6367562Y-16704698D02*
X6367562Y-16733269D01*
X6367562Y-16733269D02*
X6358039Y-16771365D01*
X6358039Y-16771365D02*
X6348515Y-16790412D01*
X6348515Y-16790412D02*
X6329467Y-16809460D01*
X6329467Y-16809460D02*
X6300896Y-16818984D01*
X6300896Y-16818984D02*
X6253277Y-16818984D01*
X6453277Y-16818984D02*
X6453277Y-16685650D01*
X6453277Y-16723746D02*
X6462801Y-16704698D01*
X6462801Y-16704698D02*
X6472324Y-16695174D01*
X6472324Y-16695174D02*
X6491372Y-16685650D01*
X6491372Y-16685650D02*
X6510420Y-16685650D01*
X6577086Y-16818984D02*
X6577086Y-16685650D01*
X6577086Y-16618984D02*
X6567562Y-16628508D01*
X6567562Y-16628508D02*
X6577086Y-16638031D01*
X6577086Y-16638031D02*
X6586610Y-16628508D01*
X6586610Y-16628508D02*
X6577086Y-16618984D01*
X6577086Y-16618984D02*
X6577086Y-16638031D01*
X6700896Y-16818984D02*
X6681848Y-16809460D01*
X6681848Y-16809460D02*
X6672324Y-16790412D01*
X6672324Y-16790412D02*
X6672324Y-16618984D01*
X6805658Y-16818984D02*
X6786610Y-16809460D01*
X6786610Y-16809460D02*
X6777086Y-16790412D01*
X6777086Y-16790412D02*
X6777086Y-16618984D01*
X7034229Y-16818984D02*
X7034229Y-16618984D01*
X7034229Y-16618984D02*
X7100896Y-16761841D01*
X7100896Y-16761841D02*
X7167562Y-16618984D01*
X7167562Y-16618984D02*
X7167562Y-16818984D01*
X7348515Y-16818984D02*
X7348515Y-16714222D01*
X7348515Y-16714222D02*
X7338991Y-16695174D01*
X7338991Y-16695174D02*
X7319943Y-16685650D01*
X7319943Y-16685650D02*
X7281848Y-16685650D01*
X7281848Y-16685650D02*
X7262801Y-16695174D01*
X7348515Y-16809460D02*
X7329467Y-16818984D01*
X7329467Y-16818984D02*
X7281848Y-16818984D01*
X7281848Y-16818984D02*
X7262801Y-16809460D01*
X7262801Y-16809460D02*
X7253277Y-16790412D01*
X7253277Y-16790412D02*
X7253277Y-16771365D01*
X7253277Y-16771365D02*
X7262801Y-16752317D01*
X7262801Y-16752317D02*
X7281848Y-16742793D01*
X7281848Y-16742793D02*
X7329467Y-16742793D01*
X7329467Y-16742793D02*
X7348515Y-16733269D01*
X7443753Y-16685650D02*
X7443753Y-16885650D01*
X7443753Y-16695174D02*
X7462801Y-16685650D01*
X7462801Y-16685650D02*
X7500896Y-16685650D01*
X7500896Y-16685650D02*
X7519943Y-16695174D01*
X7519943Y-16695174D02*
X7529467Y-16704698D01*
X7529467Y-16704698D02*
X7538991Y-16723746D01*
X7538991Y-16723746D02*
X7538991Y-16780889D01*
X7538991Y-16780889D02*
X7529467Y-16799936D01*
X7529467Y-16799936D02*
X7519943Y-16809460D01*
X7519943Y-16809460D02*
X7500896Y-16818984D01*
X7500896Y-16818984D02*
X7462801Y-16818984D01*
X7462801Y-16818984D02*
X7443753Y-16809460D01*
X7624705Y-16799936D02*
X7634229Y-16809460D01*
X7634229Y-16809460D02*
X7624705Y-16818984D01*
X7624705Y-16818984D02*
X7615182Y-16809460D01*
X7615182Y-16809460D02*
X7624705Y-16799936D01*
X7624705Y-16799936D02*
X7624705Y-16818984D01*
X7624705Y-16695174D02*
X7634229Y-16704698D01*
X7634229Y-16704698D02*
X7624705Y-16714222D01*
X7624705Y-16714222D02*
X7615182Y-16704698D01*
X7615182Y-16704698D02*
X7624705Y-16695174D01*
X7624705Y-16695174D02*
X7624705Y-16714222D01*
D12*
X5872500Y-17087500D02*
X5992500Y-17207500D01*
X5992500Y-17087500D02*
X5872500Y-17207500D01*
D11*
X6358039Y-17238984D02*
X6243753Y-17238984D01*
X6300896Y-17238984D02*
X6300896Y-17038984D01*
X6300896Y-17038984D02*
X6281848Y-17067555D01*
X6281848Y-17067555D02*
X6262801Y-17086603D01*
X6262801Y-17086603D02*
X6243753Y-17096127D01*
X6443753Y-17219936D02*
X6453277Y-17229460D01*
X6453277Y-17229460D02*
X6443753Y-17238984D01*
X6443753Y-17238984D02*
X6434229Y-17229460D01*
X6434229Y-17229460D02*
X6443753Y-17219936D01*
X6443753Y-17219936D02*
X6443753Y-17238984D01*
X6529467Y-17058031D02*
X6538991Y-17048508D01*
X6538991Y-17048508D02*
X6558039Y-17038984D01*
X6558039Y-17038984D02*
X6605658Y-17038984D01*
X6605658Y-17038984D02*
X6624705Y-17048508D01*
X6624705Y-17048508D02*
X6634229Y-17058031D01*
X6634229Y-17058031D02*
X6643753Y-17077079D01*
X6643753Y-17077079D02*
X6643753Y-17096127D01*
X6643753Y-17096127D02*
X6634229Y-17124698D01*
X6634229Y-17124698D02*
X6519943Y-17238984D01*
X6519943Y-17238984D02*
X6643753Y-17238984D01*
X6767562Y-17038984D02*
X6786610Y-17038984D01*
X6786610Y-17038984D02*
X6805658Y-17048508D01*
X6805658Y-17048508D02*
X6815182Y-17058031D01*
X6815182Y-17058031D02*
X6824705Y-17077079D01*
X6824705Y-17077079D02*
X6834229Y-17115174D01*
X6834229Y-17115174D02*
X6834229Y-17162793D01*
X6834229Y-17162793D02*
X6824705Y-17200889D01*
X6824705Y-17200889D02*
X6815182Y-17219936D01*
X6815182Y-17219936D02*
X6805658Y-17229460D01*
X6805658Y-17229460D02*
X6786610Y-17238984D01*
X6786610Y-17238984D02*
X6767562Y-17238984D01*
X6767562Y-17238984D02*
X6748515Y-17229460D01*
X6748515Y-17229460D02*
X6738991Y-17219936D01*
X6738991Y-17219936D02*
X6729467Y-17200889D01*
X6729467Y-17200889D02*
X6719943Y-17162793D01*
X6719943Y-17162793D02*
X6719943Y-17115174D01*
X6719943Y-17115174D02*
X6729467Y-17077079D01*
X6729467Y-17077079D02*
X6738991Y-17058031D01*
X6738991Y-17058031D02*
X6748515Y-17048508D01*
X6748515Y-17048508D02*
X6767562Y-17038984D01*
X6958039Y-17038984D02*
X6977086Y-17038984D01*
X6977086Y-17038984D02*
X6996134Y-17048508D01*
X6996134Y-17048508D02*
X7005658Y-17058031D01*
X7005658Y-17058031D02*
X7015182Y-17077079D01*
X7015182Y-17077079D02*
X7024705Y-17115174D01*
X7024705Y-17115174D02*
X7024705Y-17162793D01*
X7024705Y-17162793D02*
X7015182Y-17200889D01*
X7015182Y-17200889D02*
X7005658Y-17219936D01*
X7005658Y-17219936D02*
X6996134Y-17229460D01*
X6996134Y-17229460D02*
X6977086Y-17238984D01*
X6977086Y-17238984D02*
X6958039Y-17238984D01*
X6958039Y-17238984D02*
X6938991Y-17229460D01*
X6938991Y-17229460D02*
X6929467Y-17219936D01*
X6929467Y-17219936D02*
X6919943Y-17200889D01*
X6919943Y-17200889D02*
X6910420Y-17162793D01*
X6910420Y-17162793D02*
X6910420Y-17115174D01*
X6910420Y-17115174D02*
X6919943Y-17077079D01*
X6919943Y-17077079D02*
X6929467Y-17058031D01*
X6929467Y-17058031D02*
X6938991Y-17048508D01*
X6938991Y-17048508D02*
X6958039Y-17038984D01*
X7110420Y-17238984D02*
X7110420Y-17105650D01*
X7110420Y-17124698D02*
X7119943Y-17115174D01*
X7119943Y-17115174D02*
X7138991Y-17105650D01*
X7138991Y-17105650D02*
X7167563Y-17105650D01*
X7167563Y-17105650D02*
X7186610Y-17115174D01*
X7186610Y-17115174D02*
X7196134Y-17134222D01*
X7196134Y-17134222D02*
X7196134Y-17238984D01*
X7196134Y-17134222D02*
X7205658Y-17115174D01*
X7205658Y-17115174D02*
X7224705Y-17105650D01*
X7224705Y-17105650D02*
X7253277Y-17105650D01*
X7253277Y-17105650D02*
X7272324Y-17115174D01*
X7272324Y-17115174D02*
X7281848Y-17134222D01*
X7281848Y-17134222D02*
X7281848Y-17238984D01*
X7377086Y-17238984D02*
X7377086Y-17105650D01*
X7377086Y-17124698D02*
X7386610Y-17115174D01*
X7386610Y-17115174D02*
X7405658Y-17105650D01*
X7405658Y-17105650D02*
X7434229Y-17105650D01*
X7434229Y-17105650D02*
X7453277Y-17115174D01*
X7453277Y-17115174D02*
X7462801Y-17134222D01*
X7462801Y-17134222D02*
X7462801Y-17238984D01*
X7462801Y-17134222D02*
X7472324Y-17115174D01*
X7472324Y-17115174D02*
X7491372Y-17105650D01*
X7491372Y-17105650D02*
X7519943Y-17105650D01*
X7519943Y-17105650D02*
X7538991Y-17115174D01*
X7538991Y-17115174D02*
X7548515Y-17134222D01*
X7548515Y-17134222D02*
X7548515Y-17238984D01*
X7938991Y-17029460D02*
X7767563Y-17286603D01*
X8196134Y-17038984D02*
X8215182Y-17038984D01*
X8215182Y-17038984D02*
X8234229Y-17048508D01*
X8234229Y-17048508D02*
X8243753Y-17058031D01*
X8243753Y-17058031D02*
X8253277Y-17077079D01*
X8253277Y-17077079D02*
X8262801Y-17115174D01*
X8262801Y-17115174D02*
X8262801Y-17162793D01*
X8262801Y-17162793D02*
X8253277Y-17200889D01*
X8253277Y-17200889D02*
X8243753Y-17219936D01*
X8243753Y-17219936D02*
X8234229Y-17229460D01*
X8234229Y-17229460D02*
X8215182Y-17238984D01*
X8215182Y-17238984D02*
X8196134Y-17238984D01*
X8196134Y-17238984D02*
X8177086Y-17229460D01*
X8177086Y-17229460D02*
X8167563Y-17219936D01*
X8167563Y-17219936D02*
X8158039Y-17200889D01*
X8158039Y-17200889D02*
X8148515Y-17162793D01*
X8148515Y-17162793D02*
X8148515Y-17115174D01*
X8148515Y-17115174D02*
X8158039Y-17077079D01*
X8158039Y-17077079D02*
X8167563Y-17058031D01*
X8167563Y-17058031D02*
X8177086Y-17048508D01*
X8177086Y-17048508D02*
X8196134Y-17038984D01*
X8348515Y-17219936D02*
X8358039Y-17229460D01*
X8358039Y-17229460D02*
X8348515Y-17238984D01*
X8348515Y-17238984D02*
X8338991Y-17229460D01*
X8338991Y-17229460D02*
X8348515Y-17219936D01*
X8348515Y-17219936D02*
X8348515Y-17238984D01*
X8481848Y-17038984D02*
X8500896Y-17038984D01*
X8500896Y-17038984D02*
X8519944Y-17048508D01*
X8519944Y-17048508D02*
X8529468Y-17058031D01*
X8529468Y-17058031D02*
X8538991Y-17077079D01*
X8538991Y-17077079D02*
X8548515Y-17115174D01*
X8548515Y-17115174D02*
X8548515Y-17162793D01*
X8548515Y-17162793D02*
X8538991Y-17200889D01*
X8538991Y-17200889D02*
X8529468Y-17219936D01*
X8529468Y-17219936D02*
X8519944Y-17229460D01*
X8519944Y-17229460D02*
X8500896Y-17238984D01*
X8500896Y-17238984D02*
X8481848Y-17238984D01*
X8481848Y-17238984D02*
X8462801Y-17229460D01*
X8462801Y-17229460D02*
X8453277Y-17219936D01*
X8453277Y-17219936D02*
X8443753Y-17200889D01*
X8443753Y-17200889D02*
X8434229Y-17162793D01*
X8434229Y-17162793D02*
X8434229Y-17115174D01*
X8434229Y-17115174D02*
X8443753Y-17077079D01*
X8443753Y-17077079D02*
X8453277Y-17058031D01*
X8453277Y-17058031D02*
X8462801Y-17048508D01*
X8462801Y-17048508D02*
X8481848Y-17038984D01*
X8719944Y-17105650D02*
X8719944Y-17238984D01*
X8672325Y-17029460D02*
X8624706Y-17172317D01*
X8624706Y-17172317D02*
X8748515Y-17172317D01*
X8805658Y-17038984D02*
X8938991Y-17038984D01*
X8938991Y-17038984D02*
X8853277Y-17238984D01*
X9005658Y-17058031D02*
X9015182Y-17048508D01*
X9015182Y-17048508D02*
X9034229Y-17038984D01*
X9034229Y-17038984D02*
X9081849Y-17038984D01*
X9081849Y-17038984D02*
X9100896Y-17048508D01*
X9100896Y-17048508D02*
X9110420Y-17058031D01*
X9110420Y-17058031D02*
X9119944Y-17077079D01*
X9119944Y-17077079D02*
X9119944Y-17096127D01*
X9119944Y-17096127D02*
X9110420Y-17124698D01*
X9110420Y-17124698D02*
X8996134Y-17238984D01*
X8996134Y-17238984D02*
X9119944Y-17238984D01*
X9196134Y-17038984D02*
X9196134Y-17077079D01*
X9272325Y-17038984D02*
X9272325Y-17077079D01*
X9567563Y-17315174D02*
X9558039Y-17305650D01*
X9558039Y-17305650D02*
X9538991Y-17277079D01*
X9538991Y-17277079D02*
X9529468Y-17258031D01*
X9529468Y-17258031D02*
X9519944Y-17229460D01*
X9519944Y-17229460D02*
X9510420Y-17181841D01*
X9510420Y-17181841D02*
X9510420Y-17143746D01*
X9510420Y-17143746D02*
X9519944Y-17096127D01*
X9519944Y-17096127D02*
X9529468Y-17067555D01*
X9529468Y-17067555D02*
X9538991Y-17048508D01*
X9538991Y-17048508D02*
X9558039Y-17019936D01*
X9558039Y-17019936D02*
X9567563Y-17010412D01*
X9738991Y-17038984D02*
X9643753Y-17038984D01*
X9643753Y-17038984D02*
X9634230Y-17134222D01*
X9634230Y-17134222D02*
X9643753Y-17124698D01*
X9643753Y-17124698D02*
X9662801Y-17115174D01*
X9662801Y-17115174D02*
X9710420Y-17115174D01*
X9710420Y-17115174D02*
X9729468Y-17124698D01*
X9729468Y-17124698D02*
X9738991Y-17134222D01*
X9738991Y-17134222D02*
X9748515Y-17153270D01*
X9748515Y-17153270D02*
X9748515Y-17200889D01*
X9748515Y-17200889D02*
X9738991Y-17219936D01*
X9738991Y-17219936D02*
X9729468Y-17229460D01*
X9729468Y-17229460D02*
X9710420Y-17238984D01*
X9710420Y-17238984D02*
X9662801Y-17238984D01*
X9662801Y-17238984D02*
X9643753Y-17229460D01*
X9643753Y-17229460D02*
X9634230Y-17219936D01*
X9986611Y-17238984D02*
X9986611Y-17038984D01*
X10072325Y-17238984D02*
X10072325Y-17134222D01*
X10072325Y-17134222D02*
X10062801Y-17115174D01*
X10062801Y-17115174D02*
X10043753Y-17105650D01*
X10043753Y-17105650D02*
X10015182Y-17105650D01*
X10015182Y-17105650D02*
X9996134Y-17115174D01*
X9996134Y-17115174D02*
X9986611Y-17124698D01*
X10196134Y-17238984D02*
X10177087Y-17229460D01*
X10177087Y-17229460D02*
X10167563Y-17219936D01*
X10167563Y-17219936D02*
X10158039Y-17200889D01*
X10158039Y-17200889D02*
X10158039Y-17143746D01*
X10158039Y-17143746D02*
X10167563Y-17124698D01*
X10167563Y-17124698D02*
X10177087Y-17115174D01*
X10177087Y-17115174D02*
X10196134Y-17105650D01*
X10196134Y-17105650D02*
X10224706Y-17105650D01*
X10224706Y-17105650D02*
X10243753Y-17115174D01*
X10243753Y-17115174D02*
X10253277Y-17124698D01*
X10253277Y-17124698D02*
X10262801Y-17143746D01*
X10262801Y-17143746D02*
X10262801Y-17200889D01*
X10262801Y-17200889D02*
X10253277Y-17219936D01*
X10253277Y-17219936D02*
X10243753Y-17229460D01*
X10243753Y-17229460D02*
X10224706Y-17238984D01*
X10224706Y-17238984D02*
X10196134Y-17238984D01*
X10377087Y-17238984D02*
X10358039Y-17229460D01*
X10358039Y-17229460D02*
X10348515Y-17210412D01*
X10348515Y-17210412D02*
X10348515Y-17038984D01*
X10529468Y-17229460D02*
X10510420Y-17238984D01*
X10510420Y-17238984D02*
X10472325Y-17238984D01*
X10472325Y-17238984D02*
X10453277Y-17229460D01*
X10453277Y-17229460D02*
X10443753Y-17210412D01*
X10443753Y-17210412D02*
X10443753Y-17134222D01*
X10443753Y-17134222D02*
X10453277Y-17115174D01*
X10453277Y-17115174D02*
X10472325Y-17105650D01*
X10472325Y-17105650D02*
X10510420Y-17105650D01*
X10510420Y-17105650D02*
X10529468Y-17115174D01*
X10529468Y-17115174D02*
X10538992Y-17134222D01*
X10538992Y-17134222D02*
X10538992Y-17153270D01*
X10538992Y-17153270D02*
X10443753Y-17172317D01*
X10615182Y-17229460D02*
X10634230Y-17238984D01*
X10634230Y-17238984D02*
X10672325Y-17238984D01*
X10672325Y-17238984D02*
X10691373Y-17229460D01*
X10691373Y-17229460D02*
X10700896Y-17210412D01*
X10700896Y-17210412D02*
X10700896Y-17200889D01*
X10700896Y-17200889D02*
X10691373Y-17181841D01*
X10691373Y-17181841D02*
X10672325Y-17172317D01*
X10672325Y-17172317D02*
X10643753Y-17172317D01*
X10643753Y-17172317D02*
X10624706Y-17162793D01*
X10624706Y-17162793D02*
X10615182Y-17143746D01*
X10615182Y-17143746D02*
X10615182Y-17134222D01*
X10615182Y-17134222D02*
X10624706Y-17115174D01*
X10624706Y-17115174D02*
X10643753Y-17105650D01*
X10643753Y-17105650D02*
X10672325Y-17105650D01*
X10672325Y-17105650D02*
X10691373Y-17115174D01*
X10767563Y-17315174D02*
X10777087Y-17305650D01*
X10777087Y-17305650D02*
X10796134Y-17277079D01*
X10796134Y-17277079D02*
X10805658Y-17258031D01*
X10805658Y-17258031D02*
X10815182Y-17229460D01*
X10815182Y-17229460D02*
X10824706Y-17181841D01*
X10824706Y-17181841D02*
X10824706Y-17143746D01*
X10824706Y-17143746D02*
X10815182Y-17096127D01*
X10815182Y-17096127D02*
X10805658Y-17067555D01*
X10805658Y-17067555D02*
X10796134Y-17048508D01*
X10796134Y-17048508D02*
X10777087Y-17019936D01*
X10777087Y-17019936D02*
X10767563Y-17010412D01*
X11129468Y-17315174D02*
X11119944Y-17305650D01*
X11119944Y-17305650D02*
X11100896Y-17277079D01*
X11100896Y-17277079D02*
X11091373Y-17258031D01*
X11091373Y-17258031D02*
X11081849Y-17229460D01*
X11081849Y-17229460D02*
X11072325Y-17181841D01*
X11072325Y-17181841D02*
X11072325Y-17143746D01*
X11072325Y-17143746D02*
X11081849Y-17096127D01*
X11081849Y-17096127D02*
X11091373Y-17067555D01*
X11091373Y-17067555D02*
X11100896Y-17048508D01*
X11100896Y-17048508D02*
X11119944Y-17019936D01*
X11119944Y-17019936D02*
X11129468Y-17010412D01*
X11205658Y-17105650D02*
X11205658Y-17238984D01*
X11205658Y-17124698D02*
X11215182Y-17115174D01*
X11215182Y-17115174D02*
X11234230Y-17105650D01*
X11234230Y-17105650D02*
X11262801Y-17105650D01*
X11262801Y-17105650D02*
X11281849Y-17115174D01*
X11281849Y-17115174D02*
X11291372Y-17134222D01*
X11291372Y-17134222D02*
X11291372Y-17238984D01*
X11415182Y-17238984D02*
X11396134Y-17229460D01*
X11396134Y-17229460D02*
X11386611Y-17219936D01*
X11386611Y-17219936D02*
X11377087Y-17200889D01*
X11377087Y-17200889D02*
X11377087Y-17143746D01*
X11377087Y-17143746D02*
X11386611Y-17124698D01*
X11386611Y-17124698D02*
X11396134Y-17115174D01*
X11396134Y-17115174D02*
X11415182Y-17105650D01*
X11415182Y-17105650D02*
X11443753Y-17105650D01*
X11443753Y-17105650D02*
X11462801Y-17115174D01*
X11462801Y-17115174D02*
X11472325Y-17124698D01*
X11472325Y-17124698D02*
X11481849Y-17143746D01*
X11481849Y-17143746D02*
X11481849Y-17200889D01*
X11481849Y-17200889D02*
X11472325Y-17219936D01*
X11472325Y-17219936D02*
X11462801Y-17229460D01*
X11462801Y-17229460D02*
X11443753Y-17238984D01*
X11443753Y-17238984D02*
X11415182Y-17238984D01*
X11538992Y-17105650D02*
X11615182Y-17105650D01*
X11567563Y-17038984D02*
X11567563Y-17210412D01*
X11567563Y-17210412D02*
X11577087Y-17229460D01*
X11577087Y-17229460D02*
X11596134Y-17238984D01*
X11596134Y-17238984D02*
X11615182Y-17238984D01*
X11834230Y-17105650D02*
X11834230Y-17305650D01*
X11834230Y-17115174D02*
X11853277Y-17105650D01*
X11853277Y-17105650D02*
X11891373Y-17105650D01*
X11891373Y-17105650D02*
X11910420Y-17115174D01*
X11910420Y-17115174D02*
X11919944Y-17124698D01*
X11919944Y-17124698D02*
X11929468Y-17143746D01*
X11929468Y-17143746D02*
X11929468Y-17200889D01*
X11929468Y-17200889D02*
X11919944Y-17219936D01*
X11919944Y-17219936D02*
X11910420Y-17229460D01*
X11910420Y-17229460D02*
X11891373Y-17238984D01*
X11891373Y-17238984D02*
X11853277Y-17238984D01*
X11853277Y-17238984D02*
X11834230Y-17229460D01*
X12043753Y-17238984D02*
X12024706Y-17229460D01*
X12024706Y-17229460D02*
X12015182Y-17210412D01*
X12015182Y-17210412D02*
X12015182Y-17038984D01*
X12205658Y-17238984D02*
X12205658Y-17134222D01*
X12205658Y-17134222D02*
X12196134Y-17115174D01*
X12196134Y-17115174D02*
X12177087Y-17105650D01*
X12177087Y-17105650D02*
X12138992Y-17105650D01*
X12138992Y-17105650D02*
X12119944Y-17115174D01*
X12205658Y-17229460D02*
X12186611Y-17238984D01*
X12186611Y-17238984D02*
X12138992Y-17238984D01*
X12138992Y-17238984D02*
X12119944Y-17229460D01*
X12119944Y-17229460D02*
X12110420Y-17210412D01*
X12110420Y-17210412D02*
X12110420Y-17191365D01*
X12110420Y-17191365D02*
X12119944Y-17172317D01*
X12119944Y-17172317D02*
X12138992Y-17162793D01*
X12138992Y-17162793D02*
X12186611Y-17162793D01*
X12186611Y-17162793D02*
X12205658Y-17153270D01*
X12272325Y-17105650D02*
X12348515Y-17105650D01*
X12300896Y-17038984D02*
X12300896Y-17210412D01*
X12300896Y-17210412D02*
X12310420Y-17229460D01*
X12310420Y-17229460D02*
X12329468Y-17238984D01*
X12329468Y-17238984D02*
X12348515Y-17238984D01*
X12491373Y-17229460D02*
X12472325Y-17238984D01*
X12472325Y-17238984D02*
X12434230Y-17238984D01*
X12434230Y-17238984D02*
X12415182Y-17229460D01*
X12415182Y-17229460D02*
X12405658Y-17210412D01*
X12405658Y-17210412D02*
X12405658Y-17134222D01*
X12405658Y-17134222D02*
X12415182Y-17115174D01*
X12415182Y-17115174D02*
X12434230Y-17105650D01*
X12434230Y-17105650D02*
X12472325Y-17105650D01*
X12472325Y-17105650D02*
X12491373Y-17115174D01*
X12491373Y-17115174D02*
X12500896Y-17134222D01*
X12500896Y-17134222D02*
X12500896Y-17153270D01*
X12500896Y-17153270D02*
X12405658Y-17172317D01*
X12672325Y-17238984D02*
X12672325Y-17038984D01*
X12672325Y-17229460D02*
X12653277Y-17238984D01*
X12653277Y-17238984D02*
X12615182Y-17238984D01*
X12615182Y-17238984D02*
X12596134Y-17229460D01*
X12596134Y-17229460D02*
X12586611Y-17219936D01*
X12586611Y-17219936D02*
X12577087Y-17200889D01*
X12577087Y-17200889D02*
X12577087Y-17143746D01*
X12577087Y-17143746D02*
X12586611Y-17124698D01*
X12586611Y-17124698D02*
X12596134Y-17115174D01*
X12596134Y-17115174D02*
X12615182Y-17105650D01*
X12615182Y-17105650D02*
X12653277Y-17105650D01*
X12653277Y-17105650D02*
X12672325Y-17115174D01*
X12748515Y-17315174D02*
X12758039Y-17305650D01*
X12758039Y-17305650D02*
X12777087Y-17277079D01*
X12777087Y-17277079D02*
X12786611Y-17258031D01*
X12786611Y-17258031D02*
X12796134Y-17229460D01*
X12796134Y-17229460D02*
X12805658Y-17181841D01*
X12805658Y-17181841D02*
X12805658Y-17143746D01*
X12805658Y-17143746D02*
X12796134Y-17096127D01*
X12796134Y-17096127D02*
X12786611Y-17067555D01*
X12786611Y-17067555D02*
X12777087Y-17048508D01*
X12777087Y-17048508D02*
X12758039Y-17019936D01*
X12758039Y-17019936D02*
X12748515Y-17010412D01*
X5992500Y-17411500D02*
G75*
G02*
X5792500Y-17411500I-100000J0D01*
G01*
X5792500Y-17411500D02*
G75*
G02*
X5992500Y-17411500I100000J0D01*
G01*
X6234229Y-17302984D02*
X6358039Y-17302984D01*
X6358039Y-17302984D02*
X6291372Y-17379174D01*
X6291372Y-17379174D02*
X6319943Y-17379174D01*
X6319943Y-17379174D02*
X6338991Y-17388698D01*
X6338991Y-17388698D02*
X6348515Y-17398222D01*
X6348515Y-17398222D02*
X6358039Y-17417270D01*
X6358039Y-17417270D02*
X6358039Y-17464889D01*
X6358039Y-17464889D02*
X6348515Y-17483936D01*
X6348515Y-17483936D02*
X6338991Y-17493460D01*
X6338991Y-17493460D02*
X6319943Y-17502984D01*
X6319943Y-17502984D02*
X6262801Y-17502984D01*
X6262801Y-17502984D02*
X6243753Y-17493460D01*
X6243753Y-17493460D02*
X6234229Y-17483936D01*
X6443753Y-17483936D02*
X6453277Y-17493460D01*
X6453277Y-17493460D02*
X6443753Y-17502984D01*
X6443753Y-17502984D02*
X6434229Y-17493460D01*
X6434229Y-17493460D02*
X6443753Y-17483936D01*
X6443753Y-17483936D02*
X6443753Y-17502984D01*
X6529467Y-17322031D02*
X6538991Y-17312508D01*
X6538991Y-17312508D02*
X6558039Y-17302984D01*
X6558039Y-17302984D02*
X6605658Y-17302984D01*
X6605658Y-17302984D02*
X6624705Y-17312508D01*
X6624705Y-17312508D02*
X6634229Y-17322031D01*
X6634229Y-17322031D02*
X6643753Y-17341079D01*
X6643753Y-17341079D02*
X6643753Y-17360127D01*
X6643753Y-17360127D02*
X6634229Y-17388698D01*
X6634229Y-17388698D02*
X6519943Y-17502984D01*
X6519943Y-17502984D02*
X6643753Y-17502984D01*
X6767562Y-17302984D02*
X6786610Y-17302984D01*
X6786610Y-17302984D02*
X6805658Y-17312508D01*
X6805658Y-17312508D02*
X6815182Y-17322031D01*
X6815182Y-17322031D02*
X6824705Y-17341079D01*
X6824705Y-17341079D02*
X6834229Y-17379174D01*
X6834229Y-17379174D02*
X6834229Y-17426793D01*
X6834229Y-17426793D02*
X6824705Y-17464889D01*
X6824705Y-17464889D02*
X6815182Y-17483936D01*
X6815182Y-17483936D02*
X6805658Y-17493460D01*
X6805658Y-17493460D02*
X6786610Y-17502984D01*
X6786610Y-17502984D02*
X6767562Y-17502984D01*
X6767562Y-17502984D02*
X6748515Y-17493460D01*
X6748515Y-17493460D02*
X6738991Y-17483936D01*
X6738991Y-17483936D02*
X6729467Y-17464889D01*
X6729467Y-17464889D02*
X6719943Y-17426793D01*
X6719943Y-17426793D02*
X6719943Y-17379174D01*
X6719943Y-17379174D02*
X6729467Y-17341079D01*
X6729467Y-17341079D02*
X6738991Y-17322031D01*
X6738991Y-17322031D02*
X6748515Y-17312508D01*
X6748515Y-17312508D02*
X6767562Y-17302984D01*
X6958039Y-17302984D02*
X6977086Y-17302984D01*
X6977086Y-17302984D02*
X6996134Y-17312508D01*
X6996134Y-17312508D02*
X7005658Y-17322031D01*
X7005658Y-17322031D02*
X7015182Y-17341079D01*
X7015182Y-17341079D02*
X7024705Y-17379174D01*
X7024705Y-17379174D02*
X7024705Y-17426793D01*
X7024705Y-17426793D02*
X7015182Y-17464889D01*
X7015182Y-17464889D02*
X7005658Y-17483936D01*
X7005658Y-17483936D02*
X6996134Y-17493460D01*
X6996134Y-17493460D02*
X6977086Y-17502984D01*
X6977086Y-17502984D02*
X6958039Y-17502984D01*
X6958039Y-17502984D02*
X6938991Y-17493460D01*
X6938991Y-17493460D02*
X6929467Y-17483936D01*
X6929467Y-17483936D02*
X6919943Y-17464889D01*
X6919943Y-17464889D02*
X6910420Y-17426793D01*
X6910420Y-17426793D02*
X6910420Y-17379174D01*
X6910420Y-17379174D02*
X6919943Y-17341079D01*
X6919943Y-17341079D02*
X6929467Y-17322031D01*
X6929467Y-17322031D02*
X6938991Y-17312508D01*
X6938991Y-17312508D02*
X6958039Y-17302984D01*
X7110420Y-17502984D02*
X7110420Y-17369650D01*
X7110420Y-17388698D02*
X7119943Y-17379174D01*
X7119943Y-17379174D02*
X7138991Y-17369650D01*
X7138991Y-17369650D02*
X7167563Y-17369650D01*
X7167563Y-17369650D02*
X7186610Y-17379174D01*
X7186610Y-17379174D02*
X7196134Y-17398222D01*
X7196134Y-17398222D02*
X7196134Y-17502984D01*
X7196134Y-17398222D02*
X7205658Y-17379174D01*
X7205658Y-17379174D02*
X7224705Y-17369650D01*
X7224705Y-17369650D02*
X7253277Y-17369650D01*
X7253277Y-17369650D02*
X7272324Y-17379174D01*
X7272324Y-17379174D02*
X7281848Y-17398222D01*
X7281848Y-17398222D02*
X7281848Y-17502984D01*
X7377086Y-17502984D02*
X7377086Y-17369650D01*
X7377086Y-17388698D02*
X7386610Y-17379174D01*
X7386610Y-17379174D02*
X7405658Y-17369650D01*
X7405658Y-17369650D02*
X7434229Y-17369650D01*
X7434229Y-17369650D02*
X7453277Y-17379174D01*
X7453277Y-17379174D02*
X7462801Y-17398222D01*
X7462801Y-17398222D02*
X7462801Y-17502984D01*
X7462801Y-17398222D02*
X7472324Y-17379174D01*
X7472324Y-17379174D02*
X7491372Y-17369650D01*
X7491372Y-17369650D02*
X7519943Y-17369650D01*
X7519943Y-17369650D02*
X7538991Y-17379174D01*
X7538991Y-17379174D02*
X7548515Y-17398222D01*
X7548515Y-17398222D02*
X7548515Y-17502984D01*
X7938991Y-17293460D02*
X7767563Y-17550603D01*
X8196134Y-17302984D02*
X8215182Y-17302984D01*
X8215182Y-17302984D02*
X8234229Y-17312508D01*
X8234229Y-17312508D02*
X8243753Y-17322031D01*
X8243753Y-17322031D02*
X8253277Y-17341079D01*
X8253277Y-17341079D02*
X8262801Y-17379174D01*
X8262801Y-17379174D02*
X8262801Y-17426793D01*
X8262801Y-17426793D02*
X8253277Y-17464889D01*
X8253277Y-17464889D02*
X8243753Y-17483936D01*
X8243753Y-17483936D02*
X8234229Y-17493460D01*
X8234229Y-17493460D02*
X8215182Y-17502984D01*
X8215182Y-17502984D02*
X8196134Y-17502984D01*
X8196134Y-17502984D02*
X8177086Y-17493460D01*
X8177086Y-17493460D02*
X8167563Y-17483936D01*
X8167563Y-17483936D02*
X8158039Y-17464889D01*
X8158039Y-17464889D02*
X8148515Y-17426793D01*
X8148515Y-17426793D02*
X8148515Y-17379174D01*
X8148515Y-17379174D02*
X8158039Y-17341079D01*
X8158039Y-17341079D02*
X8167563Y-17322031D01*
X8167563Y-17322031D02*
X8177086Y-17312508D01*
X8177086Y-17312508D02*
X8196134Y-17302984D01*
X8348515Y-17483936D02*
X8358039Y-17493460D01*
X8358039Y-17493460D02*
X8348515Y-17502984D01*
X8348515Y-17502984D02*
X8338991Y-17493460D01*
X8338991Y-17493460D02*
X8348515Y-17483936D01*
X8348515Y-17483936D02*
X8348515Y-17502984D01*
X8548515Y-17502984D02*
X8434229Y-17502984D01*
X8491372Y-17502984D02*
X8491372Y-17302984D01*
X8491372Y-17302984D02*
X8472325Y-17331555D01*
X8472325Y-17331555D02*
X8453277Y-17350603D01*
X8453277Y-17350603D02*
X8434229Y-17360127D01*
X8624706Y-17322031D02*
X8634229Y-17312508D01*
X8634229Y-17312508D02*
X8653277Y-17302984D01*
X8653277Y-17302984D02*
X8700896Y-17302984D01*
X8700896Y-17302984D02*
X8719944Y-17312508D01*
X8719944Y-17312508D02*
X8729468Y-17322031D01*
X8729468Y-17322031D02*
X8738991Y-17341079D01*
X8738991Y-17341079D02*
X8738991Y-17360127D01*
X8738991Y-17360127D02*
X8729468Y-17388698D01*
X8729468Y-17388698D02*
X8615182Y-17502984D01*
X8615182Y-17502984D02*
X8738991Y-17502984D01*
X8910420Y-17302984D02*
X8872325Y-17302984D01*
X8872325Y-17302984D02*
X8853277Y-17312508D01*
X8853277Y-17312508D02*
X8843753Y-17322031D01*
X8843753Y-17322031D02*
X8824706Y-17350603D01*
X8824706Y-17350603D02*
X8815182Y-17388698D01*
X8815182Y-17388698D02*
X8815182Y-17464889D01*
X8815182Y-17464889D02*
X8824706Y-17483936D01*
X8824706Y-17483936D02*
X8834229Y-17493460D01*
X8834229Y-17493460D02*
X8853277Y-17502984D01*
X8853277Y-17502984D02*
X8891372Y-17502984D01*
X8891372Y-17502984D02*
X8910420Y-17493460D01*
X8910420Y-17493460D02*
X8919944Y-17483936D01*
X8919944Y-17483936D02*
X8929468Y-17464889D01*
X8929468Y-17464889D02*
X8929468Y-17417270D01*
X8929468Y-17417270D02*
X8919944Y-17398222D01*
X8919944Y-17398222D02*
X8910420Y-17388698D01*
X8910420Y-17388698D02*
X8891372Y-17379174D01*
X8891372Y-17379174D02*
X8853277Y-17379174D01*
X8853277Y-17379174D02*
X8834229Y-17388698D01*
X8834229Y-17388698D02*
X8824706Y-17398222D01*
X8824706Y-17398222D02*
X8815182Y-17417270D01*
X9053277Y-17302984D02*
X9072325Y-17302984D01*
X9072325Y-17302984D02*
X9091372Y-17312508D01*
X9091372Y-17312508D02*
X9100896Y-17322031D01*
X9100896Y-17322031D02*
X9110420Y-17341079D01*
X9110420Y-17341079D02*
X9119944Y-17379174D01*
X9119944Y-17379174D02*
X9119944Y-17426793D01*
X9119944Y-17426793D02*
X9110420Y-17464889D01*
X9110420Y-17464889D02*
X9100896Y-17483936D01*
X9100896Y-17483936D02*
X9091372Y-17493460D01*
X9091372Y-17493460D02*
X9072325Y-17502984D01*
X9072325Y-17502984D02*
X9053277Y-17502984D01*
X9053277Y-17502984D02*
X9034229Y-17493460D01*
X9034229Y-17493460D02*
X9024706Y-17483936D01*
X9024706Y-17483936D02*
X9015182Y-17464889D01*
X9015182Y-17464889D02*
X9005658Y-17426793D01*
X9005658Y-17426793D02*
X9005658Y-17379174D01*
X9005658Y-17379174D02*
X9015182Y-17341079D01*
X9015182Y-17341079D02*
X9024706Y-17322031D01*
X9024706Y-17322031D02*
X9034229Y-17312508D01*
X9034229Y-17312508D02*
X9053277Y-17302984D01*
X9196134Y-17302984D02*
X9196134Y-17341079D01*
X9272325Y-17302984D02*
X9272325Y-17341079D01*
X9567563Y-17579174D02*
X9558039Y-17569650D01*
X9558039Y-17569650D02*
X9538991Y-17541079D01*
X9538991Y-17541079D02*
X9529468Y-17522031D01*
X9529468Y-17522031D02*
X9519944Y-17493460D01*
X9519944Y-17493460D02*
X9510420Y-17445841D01*
X9510420Y-17445841D02*
X9510420Y-17407746D01*
X9510420Y-17407746D02*
X9519944Y-17360127D01*
X9519944Y-17360127D02*
X9529468Y-17331555D01*
X9529468Y-17331555D02*
X9538991Y-17312508D01*
X9538991Y-17312508D02*
X9558039Y-17283936D01*
X9558039Y-17283936D02*
X9567563Y-17274412D01*
X9748515Y-17502984D02*
X9634230Y-17502984D01*
X9691372Y-17502984D02*
X9691372Y-17302984D01*
X9691372Y-17302984D02*
X9672325Y-17331555D01*
X9672325Y-17331555D02*
X9653277Y-17350603D01*
X9653277Y-17350603D02*
X9634230Y-17360127D01*
X9986611Y-17502984D02*
X9986611Y-17302984D01*
X10072325Y-17502984D02*
X10072325Y-17398222D01*
X10072325Y-17398222D02*
X10062801Y-17379174D01*
X10062801Y-17379174D02*
X10043753Y-17369650D01*
X10043753Y-17369650D02*
X10015182Y-17369650D01*
X10015182Y-17369650D02*
X9996134Y-17379174D01*
X9996134Y-17379174D02*
X9986611Y-17388698D01*
X10196134Y-17502984D02*
X10177087Y-17493460D01*
X10177087Y-17493460D02*
X10167563Y-17483936D01*
X10167563Y-17483936D02*
X10158039Y-17464889D01*
X10158039Y-17464889D02*
X10158039Y-17407746D01*
X10158039Y-17407746D02*
X10167563Y-17388698D01*
X10167563Y-17388698D02*
X10177087Y-17379174D01*
X10177087Y-17379174D02*
X10196134Y-17369650D01*
X10196134Y-17369650D02*
X10224706Y-17369650D01*
X10224706Y-17369650D02*
X10243753Y-17379174D01*
X10243753Y-17379174D02*
X10253277Y-17388698D01*
X10253277Y-17388698D02*
X10262801Y-17407746D01*
X10262801Y-17407746D02*
X10262801Y-17464889D01*
X10262801Y-17464889D02*
X10253277Y-17483936D01*
X10253277Y-17483936D02*
X10243753Y-17493460D01*
X10243753Y-17493460D02*
X10224706Y-17502984D01*
X10224706Y-17502984D02*
X10196134Y-17502984D01*
X10377087Y-17502984D02*
X10358039Y-17493460D01*
X10358039Y-17493460D02*
X10348515Y-17474412D01*
X10348515Y-17474412D02*
X10348515Y-17302984D01*
X10529468Y-17493460D02*
X10510420Y-17502984D01*
X10510420Y-17502984D02*
X10472325Y-17502984D01*
X10472325Y-17502984D02*
X10453277Y-17493460D01*
X10453277Y-17493460D02*
X10443753Y-17474412D01*
X10443753Y-17474412D02*
X10443753Y-17398222D01*
X10443753Y-17398222D02*
X10453277Y-17379174D01*
X10453277Y-17379174D02*
X10472325Y-17369650D01*
X10472325Y-17369650D02*
X10510420Y-17369650D01*
X10510420Y-17369650D02*
X10529468Y-17379174D01*
X10529468Y-17379174D02*
X10538992Y-17398222D01*
X10538992Y-17398222D02*
X10538992Y-17417270D01*
X10538992Y-17417270D02*
X10443753Y-17436317D01*
X10605658Y-17579174D02*
X10615182Y-17569650D01*
X10615182Y-17569650D02*
X10634230Y-17541079D01*
X10634230Y-17541079D02*
X10643753Y-17522031D01*
X10643753Y-17522031D02*
X10653277Y-17493460D01*
X10653277Y-17493460D02*
X10662801Y-17445841D01*
X10662801Y-17445841D02*
X10662801Y-17407746D01*
X10662801Y-17407746D02*
X10653277Y-17360127D01*
X10653277Y-17360127D02*
X10643753Y-17331555D01*
X10643753Y-17331555D02*
X10634230Y-17312508D01*
X10634230Y-17312508D02*
X10615182Y-17283936D01*
X10615182Y-17283936D02*
X10605658Y-17274412D01*
X10967563Y-17579174D02*
X10958039Y-17569650D01*
X10958039Y-17569650D02*
X10938992Y-17541079D01*
X10938992Y-17541079D02*
X10929468Y-17522031D01*
X10929468Y-17522031D02*
X10919944Y-17493460D01*
X10919944Y-17493460D02*
X10910420Y-17445841D01*
X10910420Y-17445841D02*
X10910420Y-17407746D01*
X10910420Y-17407746D02*
X10919944Y-17360127D01*
X10919944Y-17360127D02*
X10929468Y-17331555D01*
X10929468Y-17331555D02*
X10938992Y-17312508D01*
X10938992Y-17312508D02*
X10958039Y-17283936D01*
X10958039Y-17283936D02*
X10967563Y-17274412D01*
X11043753Y-17369650D02*
X11043753Y-17502984D01*
X11043753Y-17388698D02*
X11053277Y-17379174D01*
X11053277Y-17379174D02*
X11072325Y-17369650D01*
X11072325Y-17369650D02*
X11100896Y-17369650D01*
X11100896Y-17369650D02*
X11119944Y-17379174D01*
X11119944Y-17379174D02*
X11129468Y-17398222D01*
X11129468Y-17398222D02*
X11129468Y-17502984D01*
X11253277Y-17502984D02*
X11234230Y-17493460D01*
X11234230Y-17493460D02*
X11224706Y-17483936D01*
X11224706Y-17483936D02*
X11215182Y-17464889D01*
X11215182Y-17464889D02*
X11215182Y-17407746D01*
X11215182Y-17407746D02*
X11224706Y-17388698D01*
X11224706Y-17388698D02*
X11234230Y-17379174D01*
X11234230Y-17379174D02*
X11253277Y-17369650D01*
X11253277Y-17369650D02*
X11281849Y-17369650D01*
X11281849Y-17369650D02*
X11300896Y-17379174D01*
X11300896Y-17379174D02*
X11310420Y-17388698D01*
X11310420Y-17388698D02*
X11319944Y-17407746D01*
X11319944Y-17407746D02*
X11319944Y-17464889D01*
X11319944Y-17464889D02*
X11310420Y-17483936D01*
X11310420Y-17483936D02*
X11300896Y-17493460D01*
X11300896Y-17493460D02*
X11281849Y-17502984D01*
X11281849Y-17502984D02*
X11253277Y-17502984D01*
X11377087Y-17369650D02*
X11453277Y-17369650D01*
X11405658Y-17302984D02*
X11405658Y-17474412D01*
X11405658Y-17474412D02*
X11415182Y-17493460D01*
X11415182Y-17493460D02*
X11434230Y-17502984D01*
X11434230Y-17502984D02*
X11453277Y-17502984D01*
X11672325Y-17369650D02*
X11672325Y-17569650D01*
X11672325Y-17379174D02*
X11691372Y-17369650D01*
X11691372Y-17369650D02*
X11729468Y-17369650D01*
X11729468Y-17369650D02*
X11748515Y-17379174D01*
X11748515Y-17379174D02*
X11758039Y-17388698D01*
X11758039Y-17388698D02*
X11767563Y-17407746D01*
X11767563Y-17407746D02*
X11767563Y-17464889D01*
X11767563Y-17464889D02*
X11758039Y-17483936D01*
X11758039Y-17483936D02*
X11748515Y-17493460D01*
X11748515Y-17493460D02*
X11729468Y-17502984D01*
X11729468Y-17502984D02*
X11691372Y-17502984D01*
X11691372Y-17502984D02*
X11672325Y-17493460D01*
X11881849Y-17502984D02*
X11862801Y-17493460D01*
X11862801Y-17493460D02*
X11853277Y-17474412D01*
X11853277Y-17474412D02*
X11853277Y-17302984D01*
X12043753Y-17502984D02*
X12043753Y-17398222D01*
X12043753Y-17398222D02*
X12034230Y-17379174D01*
X12034230Y-17379174D02*
X12015182Y-17369650D01*
X12015182Y-17369650D02*
X11977087Y-17369650D01*
X11977087Y-17369650D02*
X11958039Y-17379174D01*
X12043753Y-17493460D02*
X12024706Y-17502984D01*
X12024706Y-17502984D02*
X11977087Y-17502984D01*
X11977087Y-17502984D02*
X11958039Y-17493460D01*
X11958039Y-17493460D02*
X11948515Y-17474412D01*
X11948515Y-17474412D02*
X11948515Y-17455365D01*
X11948515Y-17455365D02*
X11958039Y-17436317D01*
X11958039Y-17436317D02*
X11977087Y-17426793D01*
X11977087Y-17426793D02*
X12024706Y-17426793D01*
X12024706Y-17426793D02*
X12043753Y-17417270D01*
X12110420Y-17369650D02*
X12186611Y-17369650D01*
X12138992Y-17302984D02*
X12138992Y-17474412D01*
X12138992Y-17474412D02*
X12148515Y-17493460D01*
X12148515Y-17493460D02*
X12167563Y-17502984D01*
X12167563Y-17502984D02*
X12186611Y-17502984D01*
X12329468Y-17493460D02*
X12310420Y-17502984D01*
X12310420Y-17502984D02*
X12272325Y-17502984D01*
X12272325Y-17502984D02*
X12253277Y-17493460D01*
X12253277Y-17493460D02*
X12243753Y-17474412D01*
X12243753Y-17474412D02*
X12243753Y-17398222D01*
X12243753Y-17398222D02*
X12253277Y-17379174D01*
X12253277Y-17379174D02*
X12272325Y-17369650D01*
X12272325Y-17369650D02*
X12310420Y-17369650D01*
X12310420Y-17369650D02*
X12329468Y-17379174D01*
X12329468Y-17379174D02*
X12338992Y-17398222D01*
X12338992Y-17398222D02*
X12338992Y-17417270D01*
X12338992Y-17417270D02*
X12243753Y-17436317D01*
X12510420Y-17502984D02*
X12510420Y-17302984D01*
X12510420Y-17493460D02*
X12491373Y-17502984D01*
X12491373Y-17502984D02*
X12453277Y-17502984D01*
X12453277Y-17502984D02*
X12434230Y-17493460D01*
X12434230Y-17493460D02*
X12424706Y-17483936D01*
X12424706Y-17483936D02*
X12415182Y-17464889D01*
X12415182Y-17464889D02*
X12415182Y-17407746D01*
X12415182Y-17407746D02*
X12424706Y-17388698D01*
X12424706Y-17388698D02*
X12434230Y-17379174D01*
X12434230Y-17379174D02*
X12453277Y-17369650D01*
X12453277Y-17369650D02*
X12491373Y-17369650D01*
X12491373Y-17369650D02*
X12510420Y-17379174D01*
X12586611Y-17579174D02*
X12596134Y-17569650D01*
X12596134Y-17569650D02*
X12615182Y-17541079D01*
X12615182Y-17541079D02*
X12624706Y-17522031D01*
X12624706Y-17522031D02*
X12634230Y-17493460D01*
X12634230Y-17493460D02*
X12643753Y-17445841D01*
X12643753Y-17445841D02*
X12643753Y-17407746D01*
X12643753Y-17407746D02*
X12634230Y-17360127D01*
X12634230Y-17360127D02*
X12624706Y-17331555D01*
X12624706Y-17331555D02*
X12615182Y-17312508D01*
X12615182Y-17312508D02*
X12596134Y-17283936D01*
X12596134Y-17283936D02*
X12586611Y-17274412D01*
M02*
