%TF.GenerationSoftware,KiCad,Pcbnew,9.0.1+1*%
%TF.CreationDate,2025-10-01T20:53:04+00:00*%
%TF.ProjectId,rcbus-opl3,72636275-732d-46f7-906c-332e6b696361,@version@*%
%TF.SameCoordinates,Original*%
%TF.FileFunction,Soldermask,Bot*%
%TF.FilePolarity,Negative*%
%FSLAX46Y46*%
G04 Gerber Fmt 4.6, Leading zero omitted, Abs format (unit mm)*
G04 Created by KiCad (PCBNEW 9.0.1+1) date 2025-10-01 20:53:04*
%MOMM*%
%LPD*%
G01*
G04 APERTURE LIST*
%ADD10C,1.200000*%
%ADD11R,2.500000X1.800000*%
%ADD12R,1.800000X2.500000*%
%ADD13R,1.700000X1.700000*%
%ADD14C,1.700000*%
%ADD15C,3.200000*%
%ADD16O,1.700000X1.700000*%
G04 APERTURE END LIST*
D10*
%TO.C,CON1*%
X156569000Y-130095000D03*
X156569000Y-120095000D03*
X154069000Y-130095000D03*
X154069000Y-120095000D03*
X149069000Y-125095000D03*
D11*
X149069000Y-130095000D03*
X149069000Y-127595000D03*
D12*
X154069000Y-125095000D03*
D11*
X149069000Y-120095000D03*
X149069000Y-122595000D03*
%TD*%
D13*
%TO.C,JP1*%
X65000000Y-156160000D03*
D14*
X62460000Y-156160000D03*
X65000000Y-153620000D03*
X62460000Y-153620000D03*
X65000000Y-151080000D03*
X62460000Y-151080000D03*
X65000000Y-148540000D03*
X62460000Y-148540000D03*
X65000000Y-146000000D03*
X62460000Y-146000000D03*
X65000000Y-143460000D03*
X62460000Y-143460000D03*
%TD*%
D15*
%TO.C,H1*%
X65532000Y-131382000D03*
%TD*%
D13*
%TO.C,P1*%
X62000000Y-163000000D03*
D16*
X64540000Y-163000000D03*
X67080000Y-163000000D03*
X69620000Y-163000000D03*
X72160000Y-163000000D03*
X74700000Y-163000000D03*
X77240000Y-163000000D03*
X79780000Y-163000000D03*
X82320000Y-163000000D03*
X84860000Y-163000000D03*
X87400000Y-163000000D03*
X89940000Y-163000000D03*
X92480000Y-163000000D03*
X95020000Y-163000000D03*
X97560000Y-163000000D03*
X100100000Y-163000000D03*
X102640000Y-163000000D03*
X105180000Y-163000000D03*
X107720000Y-163000000D03*
X110260000Y-163000000D03*
X112800000Y-163000000D03*
X115340000Y-163000000D03*
X117880000Y-163000000D03*
X120420000Y-163000000D03*
X122960000Y-163000000D03*
X125500000Y-163000000D03*
X128040000Y-163000000D03*
X130580000Y-163000000D03*
X133120000Y-163000000D03*
X135660000Y-163000000D03*
X138200000Y-163000000D03*
X140740000Y-163000000D03*
X143280000Y-163000000D03*
X145820000Y-163000000D03*
X148360000Y-163000000D03*
X150900000Y-163000000D03*
X153440000Y-163000000D03*
X155980000Y-163000000D03*
X158520000Y-163000000D03*
%TD*%
M02*
