%TF.GenerationSoftware,KiCad,Pcbnew,9.0.1+1*%
%TF.CreationDate,2025-10-04T22:34:10+00:00*%
%TF.ProjectId,rcbus-opl3,72636275-732d-46f7-906c-332e6b696361,@version@*%
%TF.SameCoordinates,Original*%
%TF.FileFunction,AssemblyDrawing,Top*%
%FSLAX46Y46*%
G04 Gerber Fmt 4.6, Leading zero omitted, Abs format (unit mm)*
G04 Created by KiCad (PCBNEW 9.0.1+1) date 2025-10-04 22:34:10*
%MOMM*%
%LPD*%
G01*
G04 APERTURE LIST*
%ADD10C,0.150000*%
%ADD11C,0.060000*%
%ADD12C,0.100000*%
G04 APERTURE END LIST*
D10*
X79357143Y-143384819D02*
X79452381Y-143384819D01*
X79452381Y-143384819D02*
X79547619Y-143432438D01*
X79547619Y-143432438D02*
X79595238Y-143480057D01*
X79595238Y-143480057D02*
X79642857Y-143575295D01*
X79642857Y-143575295D02*
X79690476Y-143765771D01*
X79690476Y-143765771D02*
X79690476Y-144003866D01*
X79690476Y-144003866D02*
X79642857Y-144194342D01*
X79642857Y-144194342D02*
X79595238Y-144289580D01*
X79595238Y-144289580D02*
X79547619Y-144337200D01*
X79547619Y-144337200D02*
X79452381Y-144384819D01*
X79452381Y-144384819D02*
X79357143Y-144384819D01*
X79357143Y-144384819D02*
X79261905Y-144337200D01*
X79261905Y-144337200D02*
X79214286Y-144289580D01*
X79214286Y-144289580D02*
X79166667Y-144194342D01*
X79166667Y-144194342D02*
X79119048Y-144003866D01*
X79119048Y-144003866D02*
X79119048Y-143765771D01*
X79119048Y-143765771D02*
X79166667Y-143575295D01*
X79166667Y-143575295D02*
X79214286Y-143480057D01*
X79214286Y-143480057D02*
X79261905Y-143432438D01*
X79261905Y-143432438D02*
X79357143Y-143384819D01*
X80119048Y-144289580D02*
X80166667Y-144337200D01*
X80166667Y-144337200D02*
X80119048Y-144384819D01*
X80119048Y-144384819D02*
X80071429Y-144337200D01*
X80071429Y-144337200D02*
X80119048Y-144289580D01*
X80119048Y-144289580D02*
X80119048Y-144384819D01*
X81119047Y-144384819D02*
X80547619Y-144384819D01*
X80833333Y-144384819D02*
X80833333Y-143384819D01*
X80833333Y-143384819D02*
X80738095Y-143527676D01*
X80738095Y-143527676D02*
X80642857Y-143622914D01*
X80642857Y-143622914D02*
X80547619Y-143670533D01*
X81976190Y-143718152D02*
X81976190Y-144384819D01*
X81547619Y-143718152D02*
X81547619Y-144241961D01*
X81547619Y-144241961D02*
X81595238Y-144337200D01*
X81595238Y-144337200D02*
X81690476Y-144384819D01*
X81690476Y-144384819D02*
X81833333Y-144384819D01*
X81833333Y-144384819D02*
X81928571Y-144337200D01*
X81928571Y-144337200D02*
X81976190Y-144289580D01*
X82785714Y-143861009D02*
X82452381Y-143861009D01*
X82452381Y-144384819D02*
X82452381Y-143384819D01*
X82452381Y-143384819D02*
X82928571Y-143384819D01*
D11*
X80933333Y-142643832D02*
X80914285Y-142662880D01*
X80914285Y-142662880D02*
X80857143Y-142681927D01*
X80857143Y-142681927D02*
X80819047Y-142681927D01*
X80819047Y-142681927D02*
X80761904Y-142662880D01*
X80761904Y-142662880D02*
X80723809Y-142624784D01*
X80723809Y-142624784D02*
X80704762Y-142586689D01*
X80704762Y-142586689D02*
X80685714Y-142510499D01*
X80685714Y-142510499D02*
X80685714Y-142453356D01*
X80685714Y-142453356D02*
X80704762Y-142377165D01*
X80704762Y-142377165D02*
X80723809Y-142339070D01*
X80723809Y-142339070D02*
X80761904Y-142300975D01*
X80761904Y-142300975D02*
X80819047Y-142281927D01*
X80819047Y-142281927D02*
X80857143Y-142281927D01*
X80857143Y-142281927D02*
X80914285Y-142300975D01*
X80914285Y-142300975D02*
X80933333Y-142320022D01*
X81314285Y-142681927D02*
X81085714Y-142681927D01*
X81200000Y-142681927D02*
X81200000Y-142281927D01*
X81200000Y-142281927D02*
X81161904Y-142339070D01*
X81161904Y-142339070D02*
X81123809Y-142377165D01*
X81123809Y-142377165D02*
X81085714Y-142396213D01*
D10*
X109107143Y-139524819D02*
X109202381Y-139524819D01*
X109202381Y-139524819D02*
X109297619Y-139572438D01*
X109297619Y-139572438D02*
X109345238Y-139620057D01*
X109345238Y-139620057D02*
X109392857Y-139715295D01*
X109392857Y-139715295D02*
X109440476Y-139905771D01*
X109440476Y-139905771D02*
X109440476Y-140143866D01*
X109440476Y-140143866D02*
X109392857Y-140334342D01*
X109392857Y-140334342D02*
X109345238Y-140429580D01*
X109345238Y-140429580D02*
X109297619Y-140477200D01*
X109297619Y-140477200D02*
X109202381Y-140524819D01*
X109202381Y-140524819D02*
X109107143Y-140524819D01*
X109107143Y-140524819D02*
X109011905Y-140477200D01*
X109011905Y-140477200D02*
X108964286Y-140429580D01*
X108964286Y-140429580D02*
X108916667Y-140334342D01*
X108916667Y-140334342D02*
X108869048Y-140143866D01*
X108869048Y-140143866D02*
X108869048Y-139905771D01*
X108869048Y-139905771D02*
X108916667Y-139715295D01*
X108916667Y-139715295D02*
X108964286Y-139620057D01*
X108964286Y-139620057D02*
X109011905Y-139572438D01*
X109011905Y-139572438D02*
X109107143Y-139524819D01*
X109869048Y-140429580D02*
X109916667Y-140477200D01*
X109916667Y-140477200D02*
X109869048Y-140524819D01*
X109869048Y-140524819D02*
X109821429Y-140477200D01*
X109821429Y-140477200D02*
X109869048Y-140429580D01*
X109869048Y-140429580D02*
X109869048Y-140524819D01*
X110869047Y-140524819D02*
X110297619Y-140524819D01*
X110583333Y-140524819D02*
X110583333Y-139524819D01*
X110583333Y-139524819D02*
X110488095Y-139667676D01*
X110488095Y-139667676D02*
X110392857Y-139762914D01*
X110392857Y-139762914D02*
X110297619Y-139810533D01*
X111726190Y-139858152D02*
X111726190Y-140524819D01*
X111297619Y-139858152D02*
X111297619Y-140381961D01*
X111297619Y-140381961D02*
X111345238Y-140477200D01*
X111345238Y-140477200D02*
X111440476Y-140524819D01*
X111440476Y-140524819D02*
X111583333Y-140524819D01*
X111583333Y-140524819D02*
X111678571Y-140477200D01*
X111678571Y-140477200D02*
X111726190Y-140429580D01*
X112535714Y-140001009D02*
X112202381Y-140001009D01*
X112202381Y-140524819D02*
X112202381Y-139524819D01*
X112202381Y-139524819D02*
X112678571Y-139524819D01*
D11*
X110683333Y-141643832D02*
X110664285Y-141662880D01*
X110664285Y-141662880D02*
X110607143Y-141681927D01*
X110607143Y-141681927D02*
X110569047Y-141681927D01*
X110569047Y-141681927D02*
X110511904Y-141662880D01*
X110511904Y-141662880D02*
X110473809Y-141624784D01*
X110473809Y-141624784D02*
X110454762Y-141586689D01*
X110454762Y-141586689D02*
X110435714Y-141510499D01*
X110435714Y-141510499D02*
X110435714Y-141453356D01*
X110435714Y-141453356D02*
X110454762Y-141377165D01*
X110454762Y-141377165D02*
X110473809Y-141339070D01*
X110473809Y-141339070D02*
X110511904Y-141300975D01*
X110511904Y-141300975D02*
X110569047Y-141281927D01*
X110569047Y-141281927D02*
X110607143Y-141281927D01*
X110607143Y-141281927D02*
X110664285Y-141300975D01*
X110664285Y-141300975D02*
X110683333Y-141320022D01*
X110816666Y-141281927D02*
X111083333Y-141281927D01*
X111083333Y-141281927D02*
X110911904Y-141681927D01*
D10*
X148533286Y-117549819D02*
X149152333Y-117549819D01*
X149152333Y-117549819D02*
X148819000Y-117930771D01*
X148819000Y-117930771D02*
X148961857Y-117930771D01*
X148961857Y-117930771D02*
X149057095Y-117978390D01*
X149057095Y-117978390D02*
X149104714Y-118026009D01*
X149104714Y-118026009D02*
X149152333Y-118121247D01*
X149152333Y-118121247D02*
X149152333Y-118359342D01*
X149152333Y-118359342D02*
X149104714Y-118454580D01*
X149104714Y-118454580D02*
X149057095Y-118502200D01*
X149057095Y-118502200D02*
X148961857Y-118549819D01*
X148961857Y-118549819D02*
X148676143Y-118549819D01*
X148676143Y-118549819D02*
X148580905Y-118502200D01*
X148580905Y-118502200D02*
X148533286Y-118454580D01*
X149580905Y-118454580D02*
X149628524Y-118502200D01*
X149628524Y-118502200D02*
X149580905Y-118549819D01*
X149580905Y-118549819D02*
X149533286Y-118502200D01*
X149533286Y-118502200D02*
X149580905Y-118454580D01*
X149580905Y-118454580D02*
X149580905Y-118549819D01*
X150533285Y-117549819D02*
X150057095Y-117549819D01*
X150057095Y-117549819D02*
X150009476Y-118026009D01*
X150009476Y-118026009D02*
X150057095Y-117978390D01*
X150057095Y-117978390D02*
X150152333Y-117930771D01*
X150152333Y-117930771D02*
X150390428Y-117930771D01*
X150390428Y-117930771D02*
X150485666Y-117978390D01*
X150485666Y-117978390D02*
X150533285Y-118026009D01*
X150533285Y-118026009D02*
X150580904Y-118121247D01*
X150580904Y-118121247D02*
X150580904Y-118359342D01*
X150580904Y-118359342D02*
X150533285Y-118454580D01*
X150533285Y-118454580D02*
X150485666Y-118502200D01*
X150485666Y-118502200D02*
X150390428Y-118549819D01*
X150390428Y-118549819D02*
X150152333Y-118549819D01*
X150152333Y-118549819D02*
X150057095Y-118502200D01*
X150057095Y-118502200D02*
X150009476Y-118454580D01*
X151009476Y-118549819D02*
X151009476Y-117883152D01*
X151009476Y-117978390D02*
X151057095Y-117930771D01*
X151057095Y-117930771D02*
X151152333Y-117883152D01*
X151152333Y-117883152D02*
X151295190Y-117883152D01*
X151295190Y-117883152D02*
X151390428Y-117930771D01*
X151390428Y-117930771D02*
X151438047Y-118026009D01*
X151438047Y-118026009D02*
X151438047Y-118549819D01*
X151438047Y-118026009D02*
X151485666Y-117930771D01*
X151485666Y-117930771D02*
X151580904Y-117883152D01*
X151580904Y-117883152D02*
X151723761Y-117883152D01*
X151723761Y-117883152D02*
X151819000Y-117930771D01*
X151819000Y-117930771D02*
X151866619Y-118026009D01*
X151866619Y-118026009D02*
X151866619Y-118549819D01*
X152342809Y-118549819D02*
X152342809Y-117883152D01*
X152342809Y-117978390D02*
X152390428Y-117930771D01*
X152390428Y-117930771D02*
X152485666Y-117883152D01*
X152485666Y-117883152D02*
X152628523Y-117883152D01*
X152628523Y-117883152D02*
X152723761Y-117930771D01*
X152723761Y-117930771D02*
X152771380Y-118026009D01*
X152771380Y-118026009D02*
X152771380Y-118549819D01*
X152771380Y-118026009D02*
X152818999Y-117930771D01*
X152818999Y-117930771D02*
X152914237Y-117883152D01*
X152914237Y-117883152D02*
X153057094Y-117883152D01*
X153057094Y-117883152D02*
X153152333Y-117930771D01*
X153152333Y-117930771D02*
X153199952Y-118026009D01*
X153199952Y-118026009D02*
X153199952Y-118549819D01*
X154438047Y-117883152D02*
X154438047Y-118740295D01*
X154438047Y-118740295D02*
X154390428Y-118835533D01*
X154390428Y-118835533D02*
X154295190Y-118883152D01*
X154295190Y-118883152D02*
X154247571Y-118883152D01*
X154438047Y-117549819D02*
X154390428Y-117597438D01*
X154390428Y-117597438D02*
X154438047Y-117645057D01*
X154438047Y-117645057D02*
X154485666Y-117597438D01*
X154485666Y-117597438D02*
X154438047Y-117549819D01*
X154438047Y-117549819D02*
X154438047Y-117645057D01*
X155342808Y-118549819D02*
X155342808Y-118026009D01*
X155342808Y-118026009D02*
X155295189Y-117930771D01*
X155295189Y-117930771D02*
X155199951Y-117883152D01*
X155199951Y-117883152D02*
X155009475Y-117883152D01*
X155009475Y-117883152D02*
X154914237Y-117930771D01*
X155342808Y-118502200D02*
X155247570Y-118549819D01*
X155247570Y-118549819D02*
X155009475Y-118549819D01*
X155009475Y-118549819D02*
X154914237Y-118502200D01*
X154914237Y-118502200D02*
X154866618Y-118406961D01*
X154866618Y-118406961D02*
X154866618Y-118311723D01*
X154866618Y-118311723D02*
X154914237Y-118216485D01*
X154914237Y-118216485D02*
X155009475Y-118168866D01*
X155009475Y-118168866D02*
X155247570Y-118168866D01*
X155247570Y-118168866D02*
X155342808Y-118121247D01*
X156247570Y-118502200D02*
X156152332Y-118549819D01*
X156152332Y-118549819D02*
X155961856Y-118549819D01*
X155961856Y-118549819D02*
X155866618Y-118502200D01*
X155866618Y-118502200D02*
X155818999Y-118454580D01*
X155818999Y-118454580D02*
X155771380Y-118359342D01*
X155771380Y-118359342D02*
X155771380Y-118073628D01*
X155771380Y-118073628D02*
X155818999Y-117978390D01*
X155818999Y-117978390D02*
X155866618Y-117930771D01*
X155866618Y-117930771D02*
X155961856Y-117883152D01*
X155961856Y-117883152D02*
X156152332Y-117883152D01*
X156152332Y-117883152D02*
X156247570Y-117930771D01*
X156676142Y-118549819D02*
X156676142Y-117549819D01*
X156771380Y-118168866D02*
X157057094Y-118549819D01*
X157057094Y-117883152D02*
X156676142Y-118264104D01*
X155604714Y-125954580D02*
X155557095Y-126002200D01*
X155557095Y-126002200D02*
X155414238Y-126049819D01*
X155414238Y-126049819D02*
X155319000Y-126049819D01*
X155319000Y-126049819D02*
X155176143Y-126002200D01*
X155176143Y-126002200D02*
X155080905Y-125906961D01*
X155080905Y-125906961D02*
X155033286Y-125811723D01*
X155033286Y-125811723D02*
X154985667Y-125621247D01*
X154985667Y-125621247D02*
X154985667Y-125478390D01*
X154985667Y-125478390D02*
X155033286Y-125287914D01*
X155033286Y-125287914D02*
X155080905Y-125192676D01*
X155080905Y-125192676D02*
X155176143Y-125097438D01*
X155176143Y-125097438D02*
X155319000Y-125049819D01*
X155319000Y-125049819D02*
X155414238Y-125049819D01*
X155414238Y-125049819D02*
X155557095Y-125097438D01*
X155557095Y-125097438D02*
X155604714Y-125145057D01*
X156223762Y-125049819D02*
X156414238Y-125049819D01*
X156414238Y-125049819D02*
X156509476Y-125097438D01*
X156509476Y-125097438D02*
X156604714Y-125192676D01*
X156604714Y-125192676D02*
X156652333Y-125383152D01*
X156652333Y-125383152D02*
X156652333Y-125716485D01*
X156652333Y-125716485D02*
X156604714Y-125906961D01*
X156604714Y-125906961D02*
X156509476Y-126002200D01*
X156509476Y-126002200D02*
X156414238Y-126049819D01*
X156414238Y-126049819D02*
X156223762Y-126049819D01*
X156223762Y-126049819D02*
X156128524Y-126002200D01*
X156128524Y-126002200D02*
X156033286Y-125906961D01*
X156033286Y-125906961D02*
X155985667Y-125716485D01*
X155985667Y-125716485D02*
X155985667Y-125383152D01*
X155985667Y-125383152D02*
X156033286Y-125192676D01*
X156033286Y-125192676D02*
X156128524Y-125097438D01*
X156128524Y-125097438D02*
X156223762Y-125049819D01*
X157080905Y-126049819D02*
X157080905Y-125049819D01*
X157080905Y-125049819D02*
X157652333Y-126049819D01*
X157652333Y-126049819D02*
X157652333Y-125049819D01*
X158652333Y-126049819D02*
X158080905Y-126049819D01*
X158366619Y-126049819D02*
X158366619Y-125049819D01*
X158366619Y-125049819D02*
X158271381Y-125192676D01*
X158271381Y-125192676D02*
X158176143Y-125287914D01*
X158176143Y-125287914D02*
X158080905Y-125335533D01*
X57929999Y-139111009D02*
X58072856Y-139158628D01*
X58072856Y-139158628D02*
X58120475Y-139206247D01*
X58120475Y-139206247D02*
X58168094Y-139301485D01*
X58168094Y-139301485D02*
X58168094Y-139444342D01*
X58168094Y-139444342D02*
X58120475Y-139539580D01*
X58120475Y-139539580D02*
X58072856Y-139587200D01*
X58072856Y-139587200D02*
X57977618Y-139634819D01*
X57977618Y-139634819D02*
X57596666Y-139634819D01*
X57596666Y-139634819D02*
X57596666Y-138634819D01*
X57596666Y-138634819D02*
X57929999Y-138634819D01*
X57929999Y-138634819D02*
X58025237Y-138682438D01*
X58025237Y-138682438D02*
X58072856Y-138730057D01*
X58072856Y-138730057D02*
X58120475Y-138825295D01*
X58120475Y-138825295D02*
X58120475Y-138920533D01*
X58120475Y-138920533D02*
X58072856Y-139015771D01*
X58072856Y-139015771D02*
X58025237Y-139063390D01*
X58025237Y-139063390D02*
X57929999Y-139111009D01*
X57929999Y-139111009D02*
X57596666Y-139111009D01*
X58549047Y-139349104D02*
X59025237Y-139349104D01*
X58453809Y-139634819D02*
X58787142Y-138634819D01*
X58787142Y-138634819D02*
X59120475Y-139634819D01*
X59406190Y-139587200D02*
X59549047Y-139634819D01*
X59549047Y-139634819D02*
X59787142Y-139634819D01*
X59787142Y-139634819D02*
X59882380Y-139587200D01*
X59882380Y-139587200D02*
X59929999Y-139539580D01*
X59929999Y-139539580D02*
X59977618Y-139444342D01*
X59977618Y-139444342D02*
X59977618Y-139349104D01*
X59977618Y-139349104D02*
X59929999Y-139253866D01*
X59929999Y-139253866D02*
X59882380Y-139206247D01*
X59882380Y-139206247D02*
X59787142Y-139158628D01*
X59787142Y-139158628D02*
X59596666Y-139111009D01*
X59596666Y-139111009D02*
X59501428Y-139063390D01*
X59501428Y-139063390D02*
X59453809Y-139015771D01*
X59453809Y-139015771D02*
X59406190Y-138920533D01*
X59406190Y-138920533D02*
X59406190Y-138825295D01*
X59406190Y-138825295D02*
X59453809Y-138730057D01*
X59453809Y-138730057D02*
X59501428Y-138682438D01*
X59501428Y-138682438D02*
X59596666Y-138634819D01*
X59596666Y-138634819D02*
X59834761Y-138634819D01*
X59834761Y-138634819D02*
X59977618Y-138682438D01*
X60406190Y-139111009D02*
X60739523Y-139111009D01*
X60882380Y-139634819D02*
X60406190Y-139634819D01*
X60406190Y-139634819D02*
X60406190Y-138634819D01*
X60406190Y-138634819D02*
X60882380Y-138634819D01*
X62025238Y-139349104D02*
X62501428Y-139349104D01*
X61930000Y-139634819D02*
X62263333Y-138634819D01*
X62263333Y-138634819D02*
X62596666Y-139634819D01*
X62930000Y-139634819D02*
X62930000Y-138634819D01*
X62930000Y-138634819D02*
X63168095Y-138634819D01*
X63168095Y-138634819D02*
X63310952Y-138682438D01*
X63310952Y-138682438D02*
X63406190Y-138777676D01*
X63406190Y-138777676D02*
X63453809Y-138872914D01*
X63453809Y-138872914D02*
X63501428Y-139063390D01*
X63501428Y-139063390D02*
X63501428Y-139206247D01*
X63501428Y-139206247D02*
X63453809Y-139396723D01*
X63453809Y-139396723D02*
X63406190Y-139491961D01*
X63406190Y-139491961D02*
X63310952Y-139587200D01*
X63310952Y-139587200D02*
X63168095Y-139634819D01*
X63168095Y-139634819D02*
X62930000Y-139634819D01*
X63930000Y-139634819D02*
X63930000Y-138634819D01*
X63930000Y-138634819D02*
X64168095Y-138634819D01*
X64168095Y-138634819D02*
X64310952Y-138682438D01*
X64310952Y-138682438D02*
X64406190Y-138777676D01*
X64406190Y-138777676D02*
X64453809Y-138872914D01*
X64453809Y-138872914D02*
X64501428Y-139063390D01*
X64501428Y-139063390D02*
X64501428Y-139206247D01*
X64501428Y-139206247D02*
X64453809Y-139396723D01*
X64453809Y-139396723D02*
X64406190Y-139491961D01*
X64406190Y-139491961D02*
X64310952Y-139587200D01*
X64310952Y-139587200D02*
X64168095Y-139634819D01*
X64168095Y-139634819D02*
X63930000Y-139634819D01*
X65501428Y-139634819D02*
X65168095Y-139158628D01*
X64930000Y-139634819D02*
X64930000Y-138634819D01*
X64930000Y-138634819D02*
X65310952Y-138634819D01*
X65310952Y-138634819D02*
X65406190Y-138682438D01*
X65406190Y-138682438D02*
X65453809Y-138730057D01*
X65453809Y-138730057D02*
X65501428Y-138825295D01*
X65501428Y-138825295D02*
X65501428Y-138968152D01*
X65501428Y-138968152D02*
X65453809Y-139063390D01*
X65453809Y-139063390D02*
X65406190Y-139111009D01*
X65406190Y-139111009D02*
X65310952Y-139158628D01*
X65310952Y-139158628D02*
X64930000Y-139158628D01*
X65930000Y-139111009D02*
X66263333Y-139111009D01*
X66406190Y-139634819D02*
X65930000Y-139634819D01*
X65930000Y-139634819D02*
X65930000Y-138634819D01*
X65930000Y-138634819D02*
X66406190Y-138634819D01*
X66787143Y-139587200D02*
X66930000Y-139634819D01*
X66930000Y-139634819D02*
X67168095Y-139634819D01*
X67168095Y-139634819D02*
X67263333Y-139587200D01*
X67263333Y-139587200D02*
X67310952Y-139539580D01*
X67310952Y-139539580D02*
X67358571Y-139444342D01*
X67358571Y-139444342D02*
X67358571Y-139349104D01*
X67358571Y-139349104D02*
X67310952Y-139253866D01*
X67310952Y-139253866D02*
X67263333Y-139206247D01*
X67263333Y-139206247D02*
X67168095Y-139158628D01*
X67168095Y-139158628D02*
X66977619Y-139111009D01*
X66977619Y-139111009D02*
X66882381Y-139063390D01*
X66882381Y-139063390D02*
X66834762Y-139015771D01*
X66834762Y-139015771D02*
X66787143Y-138920533D01*
X66787143Y-138920533D02*
X66787143Y-138825295D01*
X66787143Y-138825295D02*
X66834762Y-138730057D01*
X66834762Y-138730057D02*
X66882381Y-138682438D01*
X66882381Y-138682438D02*
X66977619Y-138634819D01*
X66977619Y-138634819D02*
X67215714Y-138634819D01*
X67215714Y-138634819D02*
X67358571Y-138682438D01*
X67739524Y-139587200D02*
X67882381Y-139634819D01*
X67882381Y-139634819D02*
X68120476Y-139634819D01*
X68120476Y-139634819D02*
X68215714Y-139587200D01*
X68215714Y-139587200D02*
X68263333Y-139539580D01*
X68263333Y-139539580D02*
X68310952Y-139444342D01*
X68310952Y-139444342D02*
X68310952Y-139349104D01*
X68310952Y-139349104D02*
X68263333Y-139253866D01*
X68263333Y-139253866D02*
X68215714Y-139206247D01*
X68215714Y-139206247D02*
X68120476Y-139158628D01*
X68120476Y-139158628D02*
X67930000Y-139111009D01*
X67930000Y-139111009D02*
X67834762Y-139063390D01*
X67834762Y-139063390D02*
X67787143Y-139015771D01*
X67787143Y-139015771D02*
X67739524Y-138920533D01*
X67739524Y-138920533D02*
X67739524Y-138825295D01*
X67739524Y-138825295D02*
X67787143Y-138730057D01*
X67787143Y-138730057D02*
X67834762Y-138682438D01*
X67834762Y-138682438D02*
X67930000Y-138634819D01*
X67930000Y-138634819D02*
X68168095Y-138634819D01*
X68168095Y-138634819D02*
X68310952Y-138682438D01*
X63184819Y-148643333D02*
X63899104Y-148643333D01*
X63899104Y-148643333D02*
X64041961Y-148690952D01*
X64041961Y-148690952D02*
X64137200Y-148786190D01*
X64137200Y-148786190D02*
X64184819Y-148929047D01*
X64184819Y-148929047D02*
X64184819Y-149024285D01*
X64184819Y-148167142D02*
X63184819Y-148167142D01*
X63184819Y-148167142D02*
X63184819Y-147786190D01*
X63184819Y-147786190D02*
X63232438Y-147690952D01*
X63232438Y-147690952D02*
X63280057Y-147643333D01*
X63280057Y-147643333D02*
X63375295Y-147595714D01*
X63375295Y-147595714D02*
X63518152Y-147595714D01*
X63518152Y-147595714D02*
X63613390Y-147643333D01*
X63613390Y-147643333D02*
X63661009Y-147690952D01*
X63661009Y-147690952D02*
X63708628Y-147786190D01*
X63708628Y-147786190D02*
X63708628Y-148167142D01*
X64184819Y-146643333D02*
X64184819Y-147214761D01*
X64184819Y-146929047D02*
X63184819Y-146929047D01*
X63184819Y-146929047D02*
X63327676Y-147024285D01*
X63327676Y-147024285D02*
X63422914Y-147119523D01*
X63422914Y-147119523D02*
X63470533Y-147214761D01*
X60246285Y-136536819D02*
X60246285Y-135536819D01*
X60246285Y-135536819D02*
X60579618Y-136251104D01*
X60579618Y-136251104D02*
X60912951Y-135536819D01*
X60912951Y-135536819D02*
X60912951Y-136536819D01*
X61531999Y-136536819D02*
X61436761Y-136489200D01*
X61436761Y-136489200D02*
X61389142Y-136441580D01*
X61389142Y-136441580D02*
X61341523Y-136346342D01*
X61341523Y-136346342D02*
X61341523Y-136060628D01*
X61341523Y-136060628D02*
X61389142Y-135965390D01*
X61389142Y-135965390D02*
X61436761Y-135917771D01*
X61436761Y-135917771D02*
X61531999Y-135870152D01*
X61531999Y-135870152D02*
X61674856Y-135870152D01*
X61674856Y-135870152D02*
X61770094Y-135917771D01*
X61770094Y-135917771D02*
X61817713Y-135965390D01*
X61817713Y-135965390D02*
X61865332Y-136060628D01*
X61865332Y-136060628D02*
X61865332Y-136346342D01*
X61865332Y-136346342D02*
X61817713Y-136441580D01*
X61817713Y-136441580D02*
X61770094Y-136489200D01*
X61770094Y-136489200D02*
X61674856Y-136536819D01*
X61674856Y-136536819D02*
X61531999Y-136536819D01*
X62722475Y-135870152D02*
X62722475Y-136536819D01*
X62293904Y-135870152D02*
X62293904Y-136393961D01*
X62293904Y-136393961D02*
X62341523Y-136489200D01*
X62341523Y-136489200D02*
X62436761Y-136536819D01*
X62436761Y-136536819D02*
X62579618Y-136536819D01*
X62579618Y-136536819D02*
X62674856Y-136489200D01*
X62674856Y-136489200D02*
X62722475Y-136441580D01*
X63198666Y-135870152D02*
X63198666Y-136536819D01*
X63198666Y-135965390D02*
X63246285Y-135917771D01*
X63246285Y-135917771D02*
X63341523Y-135870152D01*
X63341523Y-135870152D02*
X63484380Y-135870152D01*
X63484380Y-135870152D02*
X63579618Y-135917771D01*
X63579618Y-135917771D02*
X63627237Y-136013009D01*
X63627237Y-136013009D02*
X63627237Y-136536819D01*
X63960571Y-135870152D02*
X64341523Y-135870152D01*
X64103428Y-135536819D02*
X64103428Y-136393961D01*
X64103428Y-136393961D02*
X64151047Y-136489200D01*
X64151047Y-136489200D02*
X64246285Y-136536819D01*
X64246285Y-136536819D02*
X64341523Y-136536819D01*
X64674857Y-136536819D02*
X64674857Y-135870152D01*
X64674857Y-135536819D02*
X64627238Y-135584438D01*
X64627238Y-135584438D02*
X64674857Y-135632057D01*
X64674857Y-135632057D02*
X64722476Y-135584438D01*
X64722476Y-135584438D02*
X64674857Y-135536819D01*
X64674857Y-135536819D02*
X64674857Y-135632057D01*
X65151047Y-135870152D02*
X65151047Y-136536819D01*
X65151047Y-135965390D02*
X65198666Y-135917771D01*
X65198666Y-135917771D02*
X65293904Y-135870152D01*
X65293904Y-135870152D02*
X65436761Y-135870152D01*
X65436761Y-135870152D02*
X65531999Y-135917771D01*
X65531999Y-135917771D02*
X65579618Y-136013009D01*
X65579618Y-136013009D02*
X65579618Y-136536819D01*
X66484380Y-135870152D02*
X66484380Y-136679676D01*
X66484380Y-136679676D02*
X66436761Y-136774914D01*
X66436761Y-136774914D02*
X66389142Y-136822533D01*
X66389142Y-136822533D02*
X66293904Y-136870152D01*
X66293904Y-136870152D02*
X66151047Y-136870152D01*
X66151047Y-136870152D02*
X66055809Y-136822533D01*
X66484380Y-136489200D02*
X66389142Y-136536819D01*
X66389142Y-136536819D02*
X66198666Y-136536819D01*
X66198666Y-136536819D02*
X66103428Y-136489200D01*
X66103428Y-136489200D02*
X66055809Y-136441580D01*
X66055809Y-136441580D02*
X66008190Y-136346342D01*
X66008190Y-136346342D02*
X66008190Y-136060628D01*
X66008190Y-136060628D02*
X66055809Y-135965390D01*
X66055809Y-135965390D02*
X66103428Y-135917771D01*
X66103428Y-135917771D02*
X66198666Y-135870152D01*
X66198666Y-135870152D02*
X66389142Y-135870152D01*
X66389142Y-135870152D02*
X66484380Y-135917771D01*
X66960571Y-136536819D02*
X66960571Y-135536819D01*
X66960571Y-136013009D02*
X67531999Y-136013009D01*
X67531999Y-136536819D02*
X67531999Y-135536819D01*
X68151047Y-136536819D02*
X68055809Y-136489200D01*
X68055809Y-136489200D02*
X68008190Y-136441580D01*
X68008190Y-136441580D02*
X67960571Y-136346342D01*
X67960571Y-136346342D02*
X67960571Y-136060628D01*
X67960571Y-136060628D02*
X68008190Y-135965390D01*
X68008190Y-135965390D02*
X68055809Y-135917771D01*
X68055809Y-135917771D02*
X68151047Y-135870152D01*
X68151047Y-135870152D02*
X68293904Y-135870152D01*
X68293904Y-135870152D02*
X68389142Y-135917771D01*
X68389142Y-135917771D02*
X68436761Y-135965390D01*
X68436761Y-135965390D02*
X68484380Y-136060628D01*
X68484380Y-136060628D02*
X68484380Y-136346342D01*
X68484380Y-136346342D02*
X68436761Y-136441580D01*
X68436761Y-136441580D02*
X68389142Y-136489200D01*
X68389142Y-136489200D02*
X68293904Y-136536819D01*
X68293904Y-136536819D02*
X68151047Y-136536819D01*
X69055809Y-136536819D02*
X68960571Y-136489200D01*
X68960571Y-136489200D02*
X68912952Y-136393961D01*
X68912952Y-136393961D02*
X68912952Y-135536819D01*
X69817714Y-136489200D02*
X69722476Y-136536819D01*
X69722476Y-136536819D02*
X69532000Y-136536819D01*
X69532000Y-136536819D02*
X69436762Y-136489200D01*
X69436762Y-136489200D02*
X69389143Y-136393961D01*
X69389143Y-136393961D02*
X69389143Y-136013009D01*
X69389143Y-136013009D02*
X69436762Y-135917771D01*
X69436762Y-135917771D02*
X69532000Y-135870152D01*
X69532000Y-135870152D02*
X69722476Y-135870152D01*
X69722476Y-135870152D02*
X69817714Y-135917771D01*
X69817714Y-135917771D02*
X69865333Y-136013009D01*
X69865333Y-136013009D02*
X69865333Y-136108247D01*
X69865333Y-136108247D02*
X69389143Y-136203485D01*
X64570095Y-132336819D02*
X64570095Y-131336819D01*
X64570095Y-131813009D02*
X65141523Y-131813009D01*
X65141523Y-132336819D02*
X65141523Y-131336819D01*
X66141523Y-132336819D02*
X65570095Y-132336819D01*
X65855809Y-132336819D02*
X65855809Y-131336819D01*
X65855809Y-131336819D02*
X65760571Y-131479676D01*
X65760571Y-131479676D02*
X65665333Y-131574914D01*
X65665333Y-131574914D02*
X65570095Y-131622533D01*
X61023809Y-166704819D02*
X60690476Y-166228628D01*
X60452381Y-166704819D02*
X60452381Y-165704819D01*
X60452381Y-165704819D02*
X60833333Y-165704819D01*
X60833333Y-165704819D02*
X60928571Y-165752438D01*
X60928571Y-165752438D02*
X60976190Y-165800057D01*
X60976190Y-165800057D02*
X61023809Y-165895295D01*
X61023809Y-165895295D02*
X61023809Y-166038152D01*
X61023809Y-166038152D02*
X60976190Y-166133390D01*
X60976190Y-166133390D02*
X60928571Y-166181009D01*
X60928571Y-166181009D02*
X60833333Y-166228628D01*
X60833333Y-166228628D02*
X60452381Y-166228628D01*
X62023809Y-166609580D02*
X61976190Y-166657200D01*
X61976190Y-166657200D02*
X61833333Y-166704819D01*
X61833333Y-166704819D02*
X61738095Y-166704819D01*
X61738095Y-166704819D02*
X61595238Y-166657200D01*
X61595238Y-166657200D02*
X61500000Y-166561961D01*
X61500000Y-166561961D02*
X61452381Y-166466723D01*
X61452381Y-166466723D02*
X61404762Y-166276247D01*
X61404762Y-166276247D02*
X61404762Y-166133390D01*
X61404762Y-166133390D02*
X61452381Y-165942914D01*
X61452381Y-165942914D02*
X61500000Y-165847676D01*
X61500000Y-165847676D02*
X61595238Y-165752438D01*
X61595238Y-165752438D02*
X61738095Y-165704819D01*
X61738095Y-165704819D02*
X61833333Y-165704819D01*
X61833333Y-165704819D02*
X61976190Y-165752438D01*
X61976190Y-165752438D02*
X62023809Y-165800057D01*
X62404762Y-165800057D02*
X62452381Y-165752438D01*
X62452381Y-165752438D02*
X62547619Y-165704819D01*
X62547619Y-165704819D02*
X62785714Y-165704819D01*
X62785714Y-165704819D02*
X62880952Y-165752438D01*
X62880952Y-165752438D02*
X62928571Y-165800057D01*
X62928571Y-165800057D02*
X62976190Y-165895295D01*
X62976190Y-165895295D02*
X62976190Y-165990533D01*
X62976190Y-165990533D02*
X62928571Y-166133390D01*
X62928571Y-166133390D02*
X62357143Y-166704819D01*
X62357143Y-166704819D02*
X62976190Y-166704819D01*
X63595238Y-165704819D02*
X63690476Y-165704819D01*
X63690476Y-165704819D02*
X63785714Y-165752438D01*
X63785714Y-165752438D02*
X63833333Y-165800057D01*
X63833333Y-165800057D02*
X63880952Y-165895295D01*
X63880952Y-165895295D02*
X63928571Y-166085771D01*
X63928571Y-166085771D02*
X63928571Y-166323866D01*
X63928571Y-166323866D02*
X63880952Y-166514342D01*
X63880952Y-166514342D02*
X63833333Y-166609580D01*
X63833333Y-166609580D02*
X63785714Y-166657200D01*
X63785714Y-166657200D02*
X63690476Y-166704819D01*
X63690476Y-166704819D02*
X63595238Y-166704819D01*
X63595238Y-166704819D02*
X63500000Y-166657200D01*
X63500000Y-166657200D02*
X63452381Y-166609580D01*
X63452381Y-166609580D02*
X63404762Y-166514342D01*
X63404762Y-166514342D02*
X63357143Y-166323866D01*
X63357143Y-166323866D02*
X63357143Y-166085771D01*
X63357143Y-166085771D02*
X63404762Y-165895295D01*
X63404762Y-165895295D02*
X63452381Y-165800057D01*
X63452381Y-165800057D02*
X63500000Y-165752438D01*
X63500000Y-165752438D02*
X63595238Y-165704819D01*
X64880952Y-166704819D02*
X64309524Y-166704819D01*
X64595238Y-166704819D02*
X64595238Y-165704819D01*
X64595238Y-165704819D02*
X64500000Y-165847676D01*
X64500000Y-165847676D02*
X64404762Y-165942914D01*
X64404762Y-165942914D02*
X64309524Y-165990533D01*
X65738095Y-166038152D02*
X65738095Y-166704819D01*
X65500000Y-165657200D02*
X65261905Y-166371485D01*
X65261905Y-166371485D02*
X65880952Y-166371485D01*
X67357143Y-166181009D02*
X67500000Y-166228628D01*
X67500000Y-166228628D02*
X67547619Y-166276247D01*
X67547619Y-166276247D02*
X67595238Y-166371485D01*
X67595238Y-166371485D02*
X67595238Y-166514342D01*
X67595238Y-166514342D02*
X67547619Y-166609580D01*
X67547619Y-166609580D02*
X67500000Y-166657200D01*
X67500000Y-166657200D02*
X67404762Y-166704819D01*
X67404762Y-166704819D02*
X67023810Y-166704819D01*
X67023810Y-166704819D02*
X67023810Y-165704819D01*
X67023810Y-165704819D02*
X67357143Y-165704819D01*
X67357143Y-165704819D02*
X67452381Y-165752438D01*
X67452381Y-165752438D02*
X67500000Y-165800057D01*
X67500000Y-165800057D02*
X67547619Y-165895295D01*
X67547619Y-165895295D02*
X67547619Y-165990533D01*
X67547619Y-165990533D02*
X67500000Y-166085771D01*
X67500000Y-166085771D02*
X67452381Y-166133390D01*
X67452381Y-166133390D02*
X67357143Y-166181009D01*
X67357143Y-166181009D02*
X67023810Y-166181009D01*
X68023810Y-165704819D02*
X68023810Y-166514342D01*
X68023810Y-166514342D02*
X68071429Y-166609580D01*
X68071429Y-166609580D02*
X68119048Y-166657200D01*
X68119048Y-166657200D02*
X68214286Y-166704819D01*
X68214286Y-166704819D02*
X68404762Y-166704819D01*
X68404762Y-166704819D02*
X68500000Y-166657200D01*
X68500000Y-166657200D02*
X68547619Y-166609580D01*
X68547619Y-166609580D02*
X68595238Y-166514342D01*
X68595238Y-166514342D02*
X68595238Y-165704819D01*
X69023810Y-166657200D02*
X69166667Y-166704819D01*
X69166667Y-166704819D02*
X69404762Y-166704819D01*
X69404762Y-166704819D02*
X69500000Y-166657200D01*
X69500000Y-166657200D02*
X69547619Y-166609580D01*
X69547619Y-166609580D02*
X69595238Y-166514342D01*
X69595238Y-166514342D02*
X69595238Y-166419104D01*
X69595238Y-166419104D02*
X69547619Y-166323866D01*
X69547619Y-166323866D02*
X69500000Y-166276247D01*
X69500000Y-166276247D02*
X69404762Y-166228628D01*
X69404762Y-166228628D02*
X69214286Y-166181009D01*
X69214286Y-166181009D02*
X69119048Y-166133390D01*
X69119048Y-166133390D02*
X69071429Y-166085771D01*
X69071429Y-166085771D02*
X69023810Y-165990533D01*
X69023810Y-165990533D02*
X69023810Y-165895295D01*
X69023810Y-165895295D02*
X69071429Y-165800057D01*
X69071429Y-165800057D02*
X69119048Y-165752438D01*
X69119048Y-165752438D02*
X69214286Y-165704819D01*
X69214286Y-165704819D02*
X69452381Y-165704819D01*
X69452381Y-165704819D02*
X69595238Y-165752438D01*
X109021905Y-163954819D02*
X109021905Y-162954819D01*
X109021905Y-162954819D02*
X109402857Y-162954819D01*
X109402857Y-162954819D02*
X109498095Y-163002438D01*
X109498095Y-163002438D02*
X109545714Y-163050057D01*
X109545714Y-163050057D02*
X109593333Y-163145295D01*
X109593333Y-163145295D02*
X109593333Y-163288152D01*
X109593333Y-163288152D02*
X109545714Y-163383390D01*
X109545714Y-163383390D02*
X109498095Y-163431009D01*
X109498095Y-163431009D02*
X109402857Y-163478628D01*
X109402857Y-163478628D02*
X109021905Y-163478628D01*
X110545714Y-163954819D02*
X109974286Y-163954819D01*
X110260000Y-163954819D02*
X110260000Y-162954819D01*
X110260000Y-162954819D02*
X110164762Y-163097676D01*
X110164762Y-163097676D02*
X110069524Y-163192914D01*
X110069524Y-163192914D02*
X109974286Y-163240533D01*
X92804819Y-153992856D02*
X92804819Y-153326190D01*
X92804819Y-153326190D02*
X93804819Y-153754761D01*
X93138152Y-152516666D02*
X93804819Y-152516666D01*
X92757200Y-152754761D02*
X93471485Y-152992856D01*
X93471485Y-152992856D02*
X93471485Y-152373809D01*
X93804819Y-151992856D02*
X92804819Y-151992856D01*
X93281009Y-151992856D02*
X93281009Y-151421428D01*
X93804819Y-151421428D02*
X92804819Y-151421428D01*
X93709580Y-150373809D02*
X93757200Y-150421428D01*
X93757200Y-150421428D02*
X93804819Y-150564285D01*
X93804819Y-150564285D02*
X93804819Y-150659523D01*
X93804819Y-150659523D02*
X93757200Y-150802380D01*
X93757200Y-150802380D02*
X93661961Y-150897618D01*
X93661961Y-150897618D02*
X93566723Y-150945237D01*
X93566723Y-150945237D02*
X93376247Y-150992856D01*
X93376247Y-150992856D02*
X93233390Y-150992856D01*
X93233390Y-150992856D02*
X93042914Y-150945237D01*
X93042914Y-150945237D02*
X92947676Y-150897618D01*
X92947676Y-150897618D02*
X92852438Y-150802380D01*
X92852438Y-150802380D02*
X92804819Y-150659523D01*
X92804819Y-150659523D02*
X92804819Y-150564285D01*
X92804819Y-150564285D02*
X92852438Y-150421428D01*
X92852438Y-150421428D02*
X92900057Y-150373809D01*
X92804819Y-150088094D02*
X92804819Y-149516666D01*
X93804819Y-149802380D02*
X92804819Y-149802380D01*
X92804819Y-148754761D02*
X92804819Y-148945237D01*
X92804819Y-148945237D02*
X92852438Y-149040475D01*
X92852438Y-149040475D02*
X92900057Y-149088094D01*
X92900057Y-149088094D02*
X93042914Y-149183332D01*
X93042914Y-149183332D02*
X93233390Y-149230951D01*
X93233390Y-149230951D02*
X93614342Y-149230951D01*
X93614342Y-149230951D02*
X93709580Y-149183332D01*
X93709580Y-149183332D02*
X93757200Y-149135713D01*
X93757200Y-149135713D02*
X93804819Y-149040475D01*
X93804819Y-149040475D02*
X93804819Y-148849999D01*
X93804819Y-148849999D02*
X93757200Y-148754761D01*
X93757200Y-148754761D02*
X93709580Y-148707142D01*
X93709580Y-148707142D02*
X93614342Y-148659523D01*
X93614342Y-148659523D02*
X93376247Y-148659523D01*
X93376247Y-148659523D02*
X93281009Y-148707142D01*
X93281009Y-148707142D02*
X93233390Y-148754761D01*
X93233390Y-148754761D02*
X93185771Y-148849999D01*
X93185771Y-148849999D02*
X93185771Y-149040475D01*
X93185771Y-149040475D02*
X93233390Y-149135713D01*
X93233390Y-149135713D02*
X93281009Y-149183332D01*
X93281009Y-149183332D02*
X93376247Y-149230951D01*
X93233390Y-148088094D02*
X93185771Y-148183332D01*
X93185771Y-148183332D02*
X93138152Y-148230951D01*
X93138152Y-148230951D02*
X93042914Y-148278570D01*
X93042914Y-148278570D02*
X92995295Y-148278570D01*
X92995295Y-148278570D02*
X92900057Y-148230951D01*
X92900057Y-148230951D02*
X92852438Y-148183332D01*
X92852438Y-148183332D02*
X92804819Y-148088094D01*
X92804819Y-148088094D02*
X92804819Y-147897618D01*
X92804819Y-147897618D02*
X92852438Y-147802380D01*
X92852438Y-147802380D02*
X92900057Y-147754761D01*
X92900057Y-147754761D02*
X92995295Y-147707142D01*
X92995295Y-147707142D02*
X93042914Y-147707142D01*
X93042914Y-147707142D02*
X93138152Y-147754761D01*
X93138152Y-147754761D02*
X93185771Y-147802380D01*
X93185771Y-147802380D02*
X93233390Y-147897618D01*
X93233390Y-147897618D02*
X93233390Y-148088094D01*
X93233390Y-148088094D02*
X93281009Y-148183332D01*
X93281009Y-148183332D02*
X93328628Y-148230951D01*
X93328628Y-148230951D02*
X93423866Y-148278570D01*
X93423866Y-148278570D02*
X93614342Y-148278570D01*
X93614342Y-148278570D02*
X93709580Y-148230951D01*
X93709580Y-148230951D02*
X93757200Y-148183332D01*
X93757200Y-148183332D02*
X93804819Y-148088094D01*
X93804819Y-148088094D02*
X93804819Y-147897618D01*
X93804819Y-147897618D02*
X93757200Y-147802380D01*
X93757200Y-147802380D02*
X93709580Y-147754761D01*
X93709580Y-147754761D02*
X93614342Y-147707142D01*
X93614342Y-147707142D02*
X93423866Y-147707142D01*
X93423866Y-147707142D02*
X93328628Y-147754761D01*
X93328628Y-147754761D02*
X93281009Y-147802380D01*
X93281009Y-147802380D02*
X93233390Y-147897618D01*
X93233390Y-147135713D02*
X93185771Y-147230951D01*
X93185771Y-147230951D02*
X93138152Y-147278570D01*
X93138152Y-147278570D02*
X93042914Y-147326189D01*
X93042914Y-147326189D02*
X92995295Y-147326189D01*
X92995295Y-147326189D02*
X92900057Y-147278570D01*
X92900057Y-147278570D02*
X92852438Y-147230951D01*
X92852438Y-147230951D02*
X92804819Y-147135713D01*
X92804819Y-147135713D02*
X92804819Y-146945237D01*
X92804819Y-146945237D02*
X92852438Y-146849999D01*
X92852438Y-146849999D02*
X92900057Y-146802380D01*
X92900057Y-146802380D02*
X92995295Y-146754761D01*
X92995295Y-146754761D02*
X93042914Y-146754761D01*
X93042914Y-146754761D02*
X93138152Y-146802380D01*
X93138152Y-146802380D02*
X93185771Y-146849999D01*
X93185771Y-146849999D02*
X93233390Y-146945237D01*
X93233390Y-146945237D02*
X93233390Y-147135713D01*
X93233390Y-147135713D02*
X93281009Y-147230951D01*
X93281009Y-147230951D02*
X93328628Y-147278570D01*
X93328628Y-147278570D02*
X93423866Y-147326189D01*
X93423866Y-147326189D02*
X93614342Y-147326189D01*
X93614342Y-147326189D02*
X93709580Y-147278570D01*
X93709580Y-147278570D02*
X93757200Y-147230951D01*
X93757200Y-147230951D02*
X93804819Y-147135713D01*
X93804819Y-147135713D02*
X93804819Y-146945237D01*
X93804819Y-146945237D02*
X93757200Y-146849999D01*
X93757200Y-146849999D02*
X93709580Y-146802380D01*
X93709580Y-146802380D02*
X93614342Y-146754761D01*
X93614342Y-146754761D02*
X93423866Y-146754761D01*
X93423866Y-146754761D02*
X93328628Y-146802380D01*
X93328628Y-146802380D02*
X93281009Y-146849999D01*
X93281009Y-146849999D02*
X93233390Y-146945237D01*
X85454819Y-151111904D02*
X86264342Y-151111904D01*
X86264342Y-151111904D02*
X86359580Y-151064285D01*
X86359580Y-151064285D02*
X86407200Y-151016666D01*
X86407200Y-151016666D02*
X86454819Y-150921428D01*
X86454819Y-150921428D02*
X86454819Y-150730952D01*
X86454819Y-150730952D02*
X86407200Y-150635714D01*
X86407200Y-150635714D02*
X86359580Y-150588095D01*
X86359580Y-150588095D02*
X86264342Y-150540476D01*
X86264342Y-150540476D02*
X85454819Y-150540476D01*
X86454819Y-149540476D02*
X86454819Y-150111904D01*
X86454819Y-149826190D02*
X85454819Y-149826190D01*
X85454819Y-149826190D02*
X85597676Y-149921428D01*
X85597676Y-149921428D02*
X85692914Y-150016666D01*
X85692914Y-150016666D02*
X85740533Y-150111904D01*
X119024819Y-130904006D02*
X119024819Y-131094482D01*
X119024819Y-131094482D02*
X119072438Y-131189720D01*
X119072438Y-131189720D02*
X119120057Y-131237339D01*
X119120057Y-131237339D02*
X119262914Y-131332577D01*
X119262914Y-131332577D02*
X119453390Y-131380196D01*
X119453390Y-131380196D02*
X119834342Y-131380196D01*
X119834342Y-131380196D02*
X119929580Y-131332577D01*
X119929580Y-131332577D02*
X119977200Y-131284958D01*
X119977200Y-131284958D02*
X120024819Y-131189720D01*
X120024819Y-131189720D02*
X120024819Y-130999244D01*
X120024819Y-130999244D02*
X119977200Y-130904006D01*
X119977200Y-130904006D02*
X119929580Y-130856387D01*
X119929580Y-130856387D02*
X119834342Y-130808768D01*
X119834342Y-130808768D02*
X119596247Y-130808768D01*
X119596247Y-130808768D02*
X119501009Y-130856387D01*
X119501009Y-130856387D02*
X119453390Y-130904006D01*
X119453390Y-130904006D02*
X119405771Y-130999244D01*
X119405771Y-130999244D02*
X119405771Y-131189720D01*
X119405771Y-131189720D02*
X119453390Y-131284958D01*
X119453390Y-131284958D02*
X119501009Y-131332577D01*
X119501009Y-131332577D02*
X119596247Y-131380196D01*
X119453390Y-130237339D02*
X119405771Y-130332577D01*
X119405771Y-130332577D02*
X119358152Y-130380196D01*
X119358152Y-130380196D02*
X119262914Y-130427815D01*
X119262914Y-130427815D02*
X119215295Y-130427815D01*
X119215295Y-130427815D02*
X119120057Y-130380196D01*
X119120057Y-130380196D02*
X119072438Y-130332577D01*
X119072438Y-130332577D02*
X119024819Y-130237339D01*
X119024819Y-130237339D02*
X119024819Y-130046863D01*
X119024819Y-130046863D02*
X119072438Y-129951625D01*
X119072438Y-129951625D02*
X119120057Y-129904006D01*
X119120057Y-129904006D02*
X119215295Y-129856387D01*
X119215295Y-129856387D02*
X119262914Y-129856387D01*
X119262914Y-129856387D02*
X119358152Y-129904006D01*
X119358152Y-129904006D02*
X119405771Y-129951625D01*
X119405771Y-129951625D02*
X119453390Y-130046863D01*
X119453390Y-130046863D02*
X119453390Y-130237339D01*
X119453390Y-130237339D02*
X119501009Y-130332577D01*
X119501009Y-130332577D02*
X119548628Y-130380196D01*
X119548628Y-130380196D02*
X119643866Y-130427815D01*
X119643866Y-130427815D02*
X119834342Y-130427815D01*
X119834342Y-130427815D02*
X119929580Y-130380196D01*
X119929580Y-130380196D02*
X119977200Y-130332577D01*
X119977200Y-130332577D02*
X120024819Y-130237339D01*
X120024819Y-130237339D02*
X120024819Y-130046863D01*
X120024819Y-130046863D02*
X119977200Y-129951625D01*
X119977200Y-129951625D02*
X119929580Y-129904006D01*
X119929580Y-129904006D02*
X119834342Y-129856387D01*
X119834342Y-129856387D02*
X119643866Y-129856387D01*
X119643866Y-129856387D02*
X119548628Y-129904006D01*
X119548628Y-129904006D02*
X119501009Y-129951625D01*
X119501009Y-129951625D02*
X119453390Y-130046863D01*
X119358152Y-129427815D02*
X120358152Y-129427815D01*
X119405771Y-129427815D02*
X119358152Y-129332577D01*
X119358152Y-129332577D02*
X119358152Y-129142101D01*
X119358152Y-129142101D02*
X119405771Y-129046863D01*
X119405771Y-129046863D02*
X119453390Y-128999244D01*
X119453390Y-128999244D02*
X119548628Y-128951625D01*
X119548628Y-128951625D02*
X119834342Y-128951625D01*
X119834342Y-128951625D02*
X119929580Y-128999244D01*
X119929580Y-128999244D02*
X119977200Y-129046863D01*
X119977200Y-129046863D02*
X120024819Y-129142101D01*
X120024819Y-129142101D02*
X120024819Y-129332577D01*
X120024819Y-129332577D02*
X119977200Y-129427815D01*
X119358152Y-128665910D02*
X119358152Y-128284958D01*
X120024819Y-128523053D02*
X119167676Y-128523053D01*
X119167676Y-128523053D02*
X119072438Y-128475434D01*
X119072438Y-128475434D02*
X119024819Y-128380196D01*
X119024819Y-128380196D02*
X119024819Y-128284958D01*
D11*
X121143832Y-130137339D02*
X121162880Y-130156387D01*
X121162880Y-130156387D02*
X121181927Y-130213529D01*
X121181927Y-130213529D02*
X121181927Y-130251625D01*
X121181927Y-130251625D02*
X121162880Y-130308768D01*
X121162880Y-130308768D02*
X121124784Y-130346863D01*
X121124784Y-130346863D02*
X121086689Y-130365910D01*
X121086689Y-130365910D02*
X121010499Y-130384958D01*
X121010499Y-130384958D02*
X120953356Y-130384958D01*
X120953356Y-130384958D02*
X120877165Y-130365910D01*
X120877165Y-130365910D02*
X120839070Y-130346863D01*
X120839070Y-130346863D02*
X120800975Y-130308768D01*
X120800975Y-130308768D02*
X120781927Y-130251625D01*
X120781927Y-130251625D02*
X120781927Y-130213529D01*
X120781927Y-130213529D02*
X120800975Y-130156387D01*
X120800975Y-130156387D02*
X120820022Y-130137339D01*
X121181927Y-129756387D02*
X121181927Y-129984958D01*
X121181927Y-129870672D02*
X120781927Y-129870672D01*
X120781927Y-129870672D02*
X120839070Y-129908768D01*
X120839070Y-129908768D02*
X120877165Y-129946863D01*
X120877165Y-129946863D02*
X120896213Y-129984958D01*
X121181927Y-129375435D02*
X121181927Y-129604006D01*
X121181927Y-129489720D02*
X120781927Y-129489720D01*
X120781927Y-129489720D02*
X120839070Y-129527816D01*
X120839070Y-129527816D02*
X120877165Y-129565911D01*
X120877165Y-129565911D02*
X120896213Y-129604006D01*
D10*
X103604819Y-133321428D02*
X103604819Y-133892856D01*
X103604819Y-133607142D02*
X102604819Y-133607142D01*
X102604819Y-133607142D02*
X102747676Y-133702380D01*
X102747676Y-133702380D02*
X102842914Y-133797618D01*
X102842914Y-133797618D02*
X102890533Y-133892856D01*
X102604819Y-132702380D02*
X102604819Y-132607142D01*
X102604819Y-132607142D02*
X102652438Y-132511904D01*
X102652438Y-132511904D02*
X102700057Y-132464285D01*
X102700057Y-132464285D02*
X102795295Y-132416666D01*
X102795295Y-132416666D02*
X102985771Y-132369047D01*
X102985771Y-132369047D02*
X103223866Y-132369047D01*
X103223866Y-132369047D02*
X103414342Y-132416666D01*
X103414342Y-132416666D02*
X103509580Y-132464285D01*
X103509580Y-132464285D02*
X103557200Y-132511904D01*
X103557200Y-132511904D02*
X103604819Y-132607142D01*
X103604819Y-132607142D02*
X103604819Y-132702380D01*
X103604819Y-132702380D02*
X103557200Y-132797618D01*
X103557200Y-132797618D02*
X103509580Y-132845237D01*
X103509580Y-132845237D02*
X103414342Y-132892856D01*
X103414342Y-132892856D02*
X103223866Y-132940475D01*
X103223866Y-132940475D02*
X102985771Y-132940475D01*
X102985771Y-132940475D02*
X102795295Y-132892856D01*
X102795295Y-132892856D02*
X102700057Y-132845237D01*
X102700057Y-132845237D02*
X102652438Y-132797618D01*
X102652438Y-132797618D02*
X102604819Y-132702380D01*
X102938152Y-131511904D02*
X103604819Y-131511904D01*
X102938152Y-131940475D02*
X103461961Y-131940475D01*
X103461961Y-131940475D02*
X103557200Y-131892856D01*
X103557200Y-131892856D02*
X103604819Y-131797618D01*
X103604819Y-131797618D02*
X103604819Y-131654761D01*
X103604819Y-131654761D02*
X103557200Y-131559523D01*
X103557200Y-131559523D02*
X103509580Y-131511904D01*
X103081009Y-130702380D02*
X103081009Y-131035713D01*
X103604819Y-131035713D02*
X102604819Y-131035713D01*
X102604819Y-131035713D02*
X102604819Y-130559523D01*
X107859580Y-132416666D02*
X107907200Y-132464285D01*
X107907200Y-132464285D02*
X107954819Y-132607142D01*
X107954819Y-132607142D02*
X107954819Y-132702380D01*
X107954819Y-132702380D02*
X107907200Y-132845237D01*
X107907200Y-132845237D02*
X107811961Y-132940475D01*
X107811961Y-132940475D02*
X107716723Y-132988094D01*
X107716723Y-132988094D02*
X107526247Y-133035713D01*
X107526247Y-133035713D02*
X107383390Y-133035713D01*
X107383390Y-133035713D02*
X107192914Y-132988094D01*
X107192914Y-132988094D02*
X107097676Y-132940475D01*
X107097676Y-132940475D02*
X107002438Y-132845237D01*
X107002438Y-132845237D02*
X106954819Y-132702380D01*
X106954819Y-132702380D02*
X106954819Y-132607142D01*
X106954819Y-132607142D02*
X107002438Y-132464285D01*
X107002438Y-132464285D02*
X107050057Y-132416666D01*
X107383390Y-131845237D02*
X107335771Y-131940475D01*
X107335771Y-131940475D02*
X107288152Y-131988094D01*
X107288152Y-131988094D02*
X107192914Y-132035713D01*
X107192914Y-132035713D02*
X107145295Y-132035713D01*
X107145295Y-132035713D02*
X107050057Y-131988094D01*
X107050057Y-131988094D02*
X107002438Y-131940475D01*
X107002438Y-131940475D02*
X106954819Y-131845237D01*
X106954819Y-131845237D02*
X106954819Y-131654761D01*
X106954819Y-131654761D02*
X107002438Y-131559523D01*
X107002438Y-131559523D02*
X107050057Y-131511904D01*
X107050057Y-131511904D02*
X107145295Y-131464285D01*
X107145295Y-131464285D02*
X107192914Y-131464285D01*
X107192914Y-131464285D02*
X107288152Y-131511904D01*
X107288152Y-131511904D02*
X107335771Y-131559523D01*
X107335771Y-131559523D02*
X107383390Y-131654761D01*
X107383390Y-131654761D02*
X107383390Y-131845237D01*
X107383390Y-131845237D02*
X107431009Y-131940475D01*
X107431009Y-131940475D02*
X107478628Y-131988094D01*
X107478628Y-131988094D02*
X107573866Y-132035713D01*
X107573866Y-132035713D02*
X107764342Y-132035713D01*
X107764342Y-132035713D02*
X107859580Y-131988094D01*
X107859580Y-131988094D02*
X107907200Y-131940475D01*
X107907200Y-131940475D02*
X107954819Y-131845237D01*
X107954819Y-131845237D02*
X107954819Y-131654761D01*
X107954819Y-131654761D02*
X107907200Y-131559523D01*
X107907200Y-131559523D02*
X107859580Y-131511904D01*
X107859580Y-131511904D02*
X107764342Y-131464285D01*
X107764342Y-131464285D02*
X107573866Y-131464285D01*
X107573866Y-131464285D02*
X107478628Y-131511904D01*
X107478628Y-131511904D02*
X107431009Y-131559523D01*
X107431009Y-131559523D02*
X107383390Y-131654761D01*
X116774819Y-131523053D02*
X116774819Y-131427815D01*
X116774819Y-131427815D02*
X116822438Y-131332577D01*
X116822438Y-131332577D02*
X116870057Y-131284958D01*
X116870057Y-131284958D02*
X116965295Y-131237339D01*
X116965295Y-131237339D02*
X117155771Y-131189720D01*
X117155771Y-131189720D02*
X117393866Y-131189720D01*
X117393866Y-131189720D02*
X117584342Y-131237339D01*
X117584342Y-131237339D02*
X117679580Y-131284958D01*
X117679580Y-131284958D02*
X117727200Y-131332577D01*
X117727200Y-131332577D02*
X117774819Y-131427815D01*
X117774819Y-131427815D02*
X117774819Y-131523053D01*
X117774819Y-131523053D02*
X117727200Y-131618291D01*
X117727200Y-131618291D02*
X117679580Y-131665910D01*
X117679580Y-131665910D02*
X117584342Y-131713529D01*
X117584342Y-131713529D02*
X117393866Y-131761148D01*
X117393866Y-131761148D02*
X117155771Y-131761148D01*
X117155771Y-131761148D02*
X116965295Y-131713529D01*
X116965295Y-131713529D02*
X116870057Y-131665910D01*
X116870057Y-131665910D02*
X116822438Y-131618291D01*
X116822438Y-131618291D02*
X116774819Y-131523053D01*
X117679580Y-130761148D02*
X117727200Y-130713529D01*
X117727200Y-130713529D02*
X117774819Y-130761148D01*
X117774819Y-130761148D02*
X117727200Y-130808767D01*
X117727200Y-130808767D02*
X117679580Y-130761148D01*
X117679580Y-130761148D02*
X117774819Y-130761148D01*
X117774819Y-129761149D02*
X117774819Y-130332577D01*
X117774819Y-130046863D02*
X116774819Y-130046863D01*
X116774819Y-130046863D02*
X116917676Y-130142101D01*
X116917676Y-130142101D02*
X117012914Y-130237339D01*
X117012914Y-130237339D02*
X117060533Y-130332577D01*
X117108152Y-128904006D02*
X117774819Y-128904006D01*
X117108152Y-129332577D02*
X117631961Y-129332577D01*
X117631961Y-129332577D02*
X117727200Y-129284958D01*
X117727200Y-129284958D02*
X117774819Y-129189720D01*
X117774819Y-129189720D02*
X117774819Y-129046863D01*
X117774819Y-129046863D02*
X117727200Y-128951625D01*
X117727200Y-128951625D02*
X117679580Y-128904006D01*
X117251009Y-128094482D02*
X117251009Y-128427815D01*
X117774819Y-128427815D02*
X116774819Y-128427815D01*
X116774819Y-128427815D02*
X116774819Y-127951625D01*
D11*
X118893832Y-130137339D02*
X118912880Y-130156387D01*
X118912880Y-130156387D02*
X118931927Y-130213529D01*
X118931927Y-130213529D02*
X118931927Y-130251625D01*
X118931927Y-130251625D02*
X118912880Y-130308768D01*
X118912880Y-130308768D02*
X118874784Y-130346863D01*
X118874784Y-130346863D02*
X118836689Y-130365910D01*
X118836689Y-130365910D02*
X118760499Y-130384958D01*
X118760499Y-130384958D02*
X118703356Y-130384958D01*
X118703356Y-130384958D02*
X118627165Y-130365910D01*
X118627165Y-130365910D02*
X118589070Y-130346863D01*
X118589070Y-130346863D02*
X118550975Y-130308768D01*
X118550975Y-130308768D02*
X118531927Y-130251625D01*
X118531927Y-130251625D02*
X118531927Y-130213529D01*
X118531927Y-130213529D02*
X118550975Y-130156387D01*
X118550975Y-130156387D02*
X118570022Y-130137339D01*
X118931927Y-129756387D02*
X118931927Y-129984958D01*
X118931927Y-129870672D02*
X118531927Y-129870672D01*
X118531927Y-129870672D02*
X118589070Y-129908768D01*
X118589070Y-129908768D02*
X118627165Y-129946863D01*
X118627165Y-129946863D02*
X118646213Y-129984958D01*
X118570022Y-129604006D02*
X118550975Y-129584958D01*
X118550975Y-129584958D02*
X118531927Y-129546863D01*
X118531927Y-129546863D02*
X118531927Y-129451625D01*
X118531927Y-129451625D02*
X118550975Y-129413530D01*
X118550975Y-129413530D02*
X118570022Y-129394482D01*
X118570022Y-129394482D02*
X118608118Y-129375435D01*
X118608118Y-129375435D02*
X118646213Y-129375435D01*
X118646213Y-129375435D02*
X118703356Y-129394482D01*
X118703356Y-129394482D02*
X118931927Y-129623054D01*
X118931927Y-129623054D02*
X118931927Y-129375435D01*
D10*
X143128628Y-152928571D02*
X143604819Y-152928571D01*
X142604819Y-153261904D02*
X143128628Y-152928571D01*
X143128628Y-152928571D02*
X142604819Y-152595238D01*
X143604819Y-152261904D02*
X142604819Y-152261904D01*
X142604819Y-152261904D02*
X143319104Y-151928571D01*
X143319104Y-151928571D02*
X142604819Y-151595238D01*
X142604819Y-151595238D02*
X143604819Y-151595238D01*
X143081009Y-150785714D02*
X143081009Y-151119047D01*
X143604819Y-151119047D02*
X142604819Y-151119047D01*
X142604819Y-151119047D02*
X142604819Y-150642857D01*
X142700057Y-150309523D02*
X142652438Y-150261904D01*
X142652438Y-150261904D02*
X142604819Y-150166666D01*
X142604819Y-150166666D02*
X142604819Y-149928571D01*
X142604819Y-149928571D02*
X142652438Y-149833333D01*
X142652438Y-149833333D02*
X142700057Y-149785714D01*
X142700057Y-149785714D02*
X142795295Y-149738095D01*
X142795295Y-149738095D02*
X142890533Y-149738095D01*
X142890533Y-149738095D02*
X143033390Y-149785714D01*
X143033390Y-149785714D02*
X143604819Y-150357142D01*
X143604819Y-150357142D02*
X143604819Y-149738095D01*
X142604819Y-148880952D02*
X142604819Y-149071428D01*
X142604819Y-149071428D02*
X142652438Y-149166666D01*
X142652438Y-149166666D02*
X142700057Y-149214285D01*
X142700057Y-149214285D02*
X142842914Y-149309523D01*
X142842914Y-149309523D02*
X143033390Y-149357142D01*
X143033390Y-149357142D02*
X143414342Y-149357142D01*
X143414342Y-149357142D02*
X143509580Y-149309523D01*
X143509580Y-149309523D02*
X143557200Y-149261904D01*
X143557200Y-149261904D02*
X143604819Y-149166666D01*
X143604819Y-149166666D02*
X143604819Y-148976190D01*
X143604819Y-148976190D02*
X143557200Y-148880952D01*
X143557200Y-148880952D02*
X143509580Y-148833333D01*
X143509580Y-148833333D02*
X143414342Y-148785714D01*
X143414342Y-148785714D02*
X143176247Y-148785714D01*
X143176247Y-148785714D02*
X143081009Y-148833333D01*
X143081009Y-148833333D02*
X143033390Y-148880952D01*
X143033390Y-148880952D02*
X142985771Y-148976190D01*
X142985771Y-148976190D02*
X142985771Y-149166666D01*
X142985771Y-149166666D02*
X143033390Y-149261904D01*
X143033390Y-149261904D02*
X143081009Y-149309523D01*
X143081009Y-149309523D02*
X143176247Y-149357142D01*
X142700057Y-148404761D02*
X142652438Y-148357142D01*
X142652438Y-148357142D02*
X142604819Y-148261904D01*
X142604819Y-148261904D02*
X142604819Y-148023809D01*
X142604819Y-148023809D02*
X142652438Y-147928571D01*
X142652438Y-147928571D02*
X142700057Y-147880952D01*
X142700057Y-147880952D02*
X142795295Y-147833333D01*
X142795295Y-147833333D02*
X142890533Y-147833333D01*
X142890533Y-147833333D02*
X143033390Y-147880952D01*
X143033390Y-147880952D02*
X143604819Y-148452380D01*
X143604819Y-148452380D02*
X143604819Y-147833333D01*
X133954819Y-151261904D02*
X134764342Y-151261904D01*
X134764342Y-151261904D02*
X134859580Y-151214285D01*
X134859580Y-151214285D02*
X134907200Y-151166666D01*
X134907200Y-151166666D02*
X134954819Y-151071428D01*
X134954819Y-151071428D02*
X134954819Y-150880952D01*
X134954819Y-150880952D02*
X134907200Y-150785714D01*
X134907200Y-150785714D02*
X134859580Y-150738095D01*
X134859580Y-150738095D02*
X134764342Y-150690476D01*
X134764342Y-150690476D02*
X133954819Y-150690476D01*
X134050057Y-150261904D02*
X134002438Y-150214285D01*
X134002438Y-150214285D02*
X133954819Y-150119047D01*
X133954819Y-150119047D02*
X133954819Y-149880952D01*
X133954819Y-149880952D02*
X134002438Y-149785714D01*
X134002438Y-149785714D02*
X134050057Y-149738095D01*
X134050057Y-149738095D02*
X134145295Y-149690476D01*
X134145295Y-149690476D02*
X134240533Y-149690476D01*
X134240533Y-149690476D02*
X134383390Y-149738095D01*
X134383390Y-149738095D02*
X134954819Y-150309523D01*
X134954819Y-150309523D02*
X134954819Y-149690476D01*
X125832143Y-154704819D02*
X125927381Y-154704819D01*
X125927381Y-154704819D02*
X126022619Y-154752438D01*
X126022619Y-154752438D02*
X126070238Y-154800057D01*
X126070238Y-154800057D02*
X126117857Y-154895295D01*
X126117857Y-154895295D02*
X126165476Y-155085771D01*
X126165476Y-155085771D02*
X126165476Y-155323866D01*
X126165476Y-155323866D02*
X126117857Y-155514342D01*
X126117857Y-155514342D02*
X126070238Y-155609580D01*
X126070238Y-155609580D02*
X126022619Y-155657200D01*
X126022619Y-155657200D02*
X125927381Y-155704819D01*
X125927381Y-155704819D02*
X125832143Y-155704819D01*
X125832143Y-155704819D02*
X125736905Y-155657200D01*
X125736905Y-155657200D02*
X125689286Y-155609580D01*
X125689286Y-155609580D02*
X125641667Y-155514342D01*
X125641667Y-155514342D02*
X125594048Y-155323866D01*
X125594048Y-155323866D02*
X125594048Y-155085771D01*
X125594048Y-155085771D02*
X125641667Y-154895295D01*
X125641667Y-154895295D02*
X125689286Y-154800057D01*
X125689286Y-154800057D02*
X125736905Y-154752438D01*
X125736905Y-154752438D02*
X125832143Y-154704819D01*
X126594048Y-155609580D02*
X126641667Y-155657200D01*
X126641667Y-155657200D02*
X126594048Y-155704819D01*
X126594048Y-155704819D02*
X126546429Y-155657200D01*
X126546429Y-155657200D02*
X126594048Y-155609580D01*
X126594048Y-155609580D02*
X126594048Y-155704819D01*
X127594047Y-155704819D02*
X127022619Y-155704819D01*
X127308333Y-155704819D02*
X127308333Y-154704819D01*
X127308333Y-154704819D02*
X127213095Y-154847676D01*
X127213095Y-154847676D02*
X127117857Y-154942914D01*
X127117857Y-154942914D02*
X127022619Y-154990533D01*
X128451190Y-155038152D02*
X128451190Y-155704819D01*
X128022619Y-155038152D02*
X128022619Y-155561961D01*
X128022619Y-155561961D02*
X128070238Y-155657200D01*
X128070238Y-155657200D02*
X128165476Y-155704819D01*
X128165476Y-155704819D02*
X128308333Y-155704819D01*
X128308333Y-155704819D02*
X128403571Y-155657200D01*
X128403571Y-155657200D02*
X128451190Y-155609580D01*
X129260714Y-155181009D02*
X128927381Y-155181009D01*
X128927381Y-155704819D02*
X128927381Y-154704819D01*
X128927381Y-154704819D02*
X129403571Y-154704819D01*
D11*
X123908333Y-155643832D02*
X123889285Y-155662880D01*
X123889285Y-155662880D02*
X123832143Y-155681927D01*
X123832143Y-155681927D02*
X123794047Y-155681927D01*
X123794047Y-155681927D02*
X123736904Y-155662880D01*
X123736904Y-155662880D02*
X123698809Y-155624784D01*
X123698809Y-155624784D02*
X123679762Y-155586689D01*
X123679762Y-155586689D02*
X123660714Y-155510499D01*
X123660714Y-155510499D02*
X123660714Y-155453356D01*
X123660714Y-155453356D02*
X123679762Y-155377165D01*
X123679762Y-155377165D02*
X123698809Y-155339070D01*
X123698809Y-155339070D02*
X123736904Y-155300975D01*
X123736904Y-155300975D02*
X123794047Y-155281927D01*
X123794047Y-155281927D02*
X123832143Y-155281927D01*
X123832143Y-155281927D02*
X123889285Y-155300975D01*
X123889285Y-155300975D02*
X123908333Y-155320022D01*
X124251190Y-155281927D02*
X124175000Y-155281927D01*
X124175000Y-155281927D02*
X124136904Y-155300975D01*
X124136904Y-155300975D02*
X124117857Y-155320022D01*
X124117857Y-155320022D02*
X124079762Y-155377165D01*
X124079762Y-155377165D02*
X124060714Y-155453356D01*
X124060714Y-155453356D02*
X124060714Y-155605737D01*
X124060714Y-155605737D02*
X124079762Y-155643832D01*
X124079762Y-155643832D02*
X124098809Y-155662880D01*
X124098809Y-155662880D02*
X124136904Y-155681927D01*
X124136904Y-155681927D02*
X124213095Y-155681927D01*
X124213095Y-155681927D02*
X124251190Y-155662880D01*
X124251190Y-155662880D02*
X124270238Y-155643832D01*
X124270238Y-155643832D02*
X124289285Y-155605737D01*
X124289285Y-155605737D02*
X124289285Y-155510499D01*
X124289285Y-155510499D02*
X124270238Y-155472403D01*
X124270238Y-155472403D02*
X124251190Y-155453356D01*
X124251190Y-155453356D02*
X124213095Y-155434308D01*
X124213095Y-155434308D02*
X124136904Y-155434308D01*
X124136904Y-155434308D02*
X124098809Y-155453356D01*
X124098809Y-155453356D02*
X124079762Y-155472403D01*
X124079762Y-155472403D02*
X124060714Y-155510499D01*
D10*
X115666666Y-154904819D02*
X115095238Y-154904819D01*
X115380952Y-154904819D02*
X115380952Y-153904819D01*
X115380952Y-153904819D02*
X115285714Y-154047676D01*
X115285714Y-154047676D02*
X115190476Y-154142914D01*
X115190476Y-154142914D02*
X115095238Y-154190533D01*
X116523809Y-154238152D02*
X116523809Y-154904819D01*
X116285714Y-153857200D02*
X116047619Y-154571485D01*
X116047619Y-154571485D02*
X116666666Y-154571485D01*
X117047619Y-154809580D02*
X117095238Y-154857200D01*
X117095238Y-154857200D02*
X117047619Y-154904819D01*
X117047619Y-154904819D02*
X117000000Y-154857200D01*
X117000000Y-154857200D02*
X117047619Y-154809580D01*
X117047619Y-154809580D02*
X117047619Y-154904819D01*
X117428571Y-153904819D02*
X118047618Y-153904819D01*
X118047618Y-153904819D02*
X117714285Y-154285771D01*
X117714285Y-154285771D02*
X117857142Y-154285771D01*
X117857142Y-154285771D02*
X117952380Y-154333390D01*
X117952380Y-154333390D02*
X117999999Y-154381009D01*
X117999999Y-154381009D02*
X118047618Y-154476247D01*
X118047618Y-154476247D02*
X118047618Y-154714342D01*
X118047618Y-154714342D02*
X117999999Y-154809580D01*
X117999999Y-154809580D02*
X117952380Y-154857200D01*
X117952380Y-154857200D02*
X117857142Y-154904819D01*
X117857142Y-154904819D02*
X117571428Y-154904819D01*
X117571428Y-154904819D02*
X117476190Y-154857200D01*
X117476190Y-154857200D02*
X117428571Y-154809580D01*
X118999999Y-154904819D02*
X118428571Y-154904819D01*
X118714285Y-154904819D02*
X118714285Y-153904819D01*
X118714285Y-153904819D02*
X118619047Y-154047676D01*
X118619047Y-154047676D02*
X118523809Y-154142914D01*
X118523809Y-154142914D02*
X118428571Y-154190533D01*
X119571428Y-154333390D02*
X119476190Y-154285771D01*
X119476190Y-154285771D02*
X119428571Y-154238152D01*
X119428571Y-154238152D02*
X119380952Y-154142914D01*
X119380952Y-154142914D02*
X119380952Y-154095295D01*
X119380952Y-154095295D02*
X119428571Y-154000057D01*
X119428571Y-154000057D02*
X119476190Y-153952438D01*
X119476190Y-153952438D02*
X119571428Y-153904819D01*
X119571428Y-153904819D02*
X119761904Y-153904819D01*
X119761904Y-153904819D02*
X119857142Y-153952438D01*
X119857142Y-153952438D02*
X119904761Y-154000057D01*
X119904761Y-154000057D02*
X119952380Y-154095295D01*
X119952380Y-154095295D02*
X119952380Y-154142914D01*
X119952380Y-154142914D02*
X119904761Y-154238152D01*
X119904761Y-154238152D02*
X119857142Y-154285771D01*
X119857142Y-154285771D02*
X119761904Y-154333390D01*
X119761904Y-154333390D02*
X119571428Y-154333390D01*
X119571428Y-154333390D02*
X119476190Y-154381009D01*
X119476190Y-154381009D02*
X119428571Y-154428628D01*
X119428571Y-154428628D02*
X119380952Y-154523866D01*
X119380952Y-154523866D02*
X119380952Y-154714342D01*
X119380952Y-154714342D02*
X119428571Y-154809580D01*
X119428571Y-154809580D02*
X119476190Y-154857200D01*
X119476190Y-154857200D02*
X119571428Y-154904819D01*
X119571428Y-154904819D02*
X119761904Y-154904819D01*
X119761904Y-154904819D02*
X119857142Y-154857200D01*
X119857142Y-154857200D02*
X119904761Y-154809580D01*
X119904761Y-154809580D02*
X119952380Y-154714342D01*
X119952380Y-154714342D02*
X119952380Y-154523866D01*
X119952380Y-154523866D02*
X119904761Y-154428628D01*
X119904761Y-154428628D02*
X119857142Y-154381009D01*
X119857142Y-154381009D02*
X119761904Y-154333390D01*
X120904761Y-154904819D02*
X120333333Y-154904819D01*
X120619047Y-154904819D02*
X120619047Y-153904819D01*
X120619047Y-153904819D02*
X120523809Y-154047676D01*
X120523809Y-154047676D02*
X120428571Y-154142914D01*
X120428571Y-154142914D02*
X120333333Y-154190533D01*
X121333333Y-154904819D02*
X121333333Y-153904819D01*
X121333333Y-153904819D02*
X121666666Y-154619104D01*
X121666666Y-154619104D02*
X121999999Y-153904819D01*
X121999999Y-153904819D02*
X121999999Y-154904819D01*
X122476190Y-154904819D02*
X122476190Y-153904819D01*
X122476190Y-154381009D02*
X123047618Y-154381009D01*
X123047618Y-154904819D02*
X123047618Y-153904819D01*
X123428571Y-154238152D02*
X123952380Y-154238152D01*
X123952380Y-154238152D02*
X123428571Y-154904819D01*
X123428571Y-154904819D02*
X123952380Y-154904819D01*
X119023809Y-150478628D02*
X119023809Y-150954819D01*
X118690476Y-149954819D02*
X119023809Y-150478628D01*
X119023809Y-150478628D02*
X119357142Y-149954819D01*
X120214285Y-150954819D02*
X119642857Y-150954819D01*
X119928571Y-150954819D02*
X119928571Y-149954819D01*
X119928571Y-149954819D02*
X119833333Y-150097676D01*
X119833333Y-150097676D02*
X119738095Y-150192914D01*
X119738095Y-150192914D02*
X119642857Y-150240533D01*
X124853628Y-140857142D02*
X125329819Y-140857142D01*
X124329819Y-141190475D02*
X124853628Y-140857142D01*
X124853628Y-140857142D02*
X124329819Y-140523809D01*
X125044104Y-140238094D02*
X125044104Y-139761904D01*
X125329819Y-140333332D02*
X124329819Y-139999999D01*
X124329819Y-139999999D02*
X125329819Y-139666666D01*
X125234580Y-138761904D02*
X125282200Y-138809523D01*
X125282200Y-138809523D02*
X125329819Y-138952380D01*
X125329819Y-138952380D02*
X125329819Y-139047618D01*
X125329819Y-139047618D02*
X125282200Y-139190475D01*
X125282200Y-139190475D02*
X125186961Y-139285713D01*
X125186961Y-139285713D02*
X125091723Y-139333332D01*
X125091723Y-139333332D02*
X124901247Y-139380951D01*
X124901247Y-139380951D02*
X124758390Y-139380951D01*
X124758390Y-139380951D02*
X124567914Y-139333332D01*
X124567914Y-139333332D02*
X124472676Y-139285713D01*
X124472676Y-139285713D02*
X124377438Y-139190475D01*
X124377438Y-139190475D02*
X124329819Y-139047618D01*
X124329819Y-139047618D02*
X124329819Y-138952380D01*
X124329819Y-138952380D02*
X124377438Y-138809523D01*
X124377438Y-138809523D02*
X124425057Y-138761904D01*
X124329819Y-137857142D02*
X124329819Y-138333332D01*
X124329819Y-138333332D02*
X124806009Y-138380951D01*
X124806009Y-138380951D02*
X124758390Y-138333332D01*
X124758390Y-138333332D02*
X124710771Y-138238094D01*
X124710771Y-138238094D02*
X124710771Y-137999999D01*
X124710771Y-137999999D02*
X124758390Y-137904761D01*
X124758390Y-137904761D02*
X124806009Y-137857142D01*
X124806009Y-137857142D02*
X124901247Y-137809523D01*
X124901247Y-137809523D02*
X125139342Y-137809523D01*
X125139342Y-137809523D02*
X125234580Y-137857142D01*
X125234580Y-137857142D02*
X125282200Y-137904761D01*
X125282200Y-137904761D02*
X125329819Y-137999999D01*
X125329819Y-137999999D02*
X125329819Y-138238094D01*
X125329819Y-138238094D02*
X125282200Y-138333332D01*
X125282200Y-138333332D02*
X125234580Y-138380951D01*
X125329819Y-136857142D02*
X125329819Y-137428570D01*
X125329819Y-137142856D02*
X124329819Y-137142856D01*
X124329819Y-137142856D02*
X124472676Y-137238094D01*
X124472676Y-137238094D02*
X124567914Y-137333332D01*
X124567914Y-137333332D02*
X124615533Y-137428570D01*
X124425057Y-136476189D02*
X124377438Y-136428570D01*
X124377438Y-136428570D02*
X124329819Y-136333332D01*
X124329819Y-136333332D02*
X124329819Y-136095237D01*
X124329819Y-136095237D02*
X124377438Y-135999999D01*
X124377438Y-135999999D02*
X124425057Y-135952380D01*
X124425057Y-135952380D02*
X124520295Y-135904761D01*
X124520295Y-135904761D02*
X124615533Y-135904761D01*
X124615533Y-135904761D02*
X124758390Y-135952380D01*
X124758390Y-135952380D02*
X125329819Y-136523808D01*
X125329819Y-136523808D02*
X125329819Y-135904761D01*
X117954819Y-139261904D02*
X118764342Y-139261904D01*
X118764342Y-139261904D02*
X118859580Y-139214285D01*
X118859580Y-139214285D02*
X118907200Y-139166666D01*
X118907200Y-139166666D02*
X118954819Y-139071428D01*
X118954819Y-139071428D02*
X118954819Y-138880952D01*
X118954819Y-138880952D02*
X118907200Y-138785714D01*
X118907200Y-138785714D02*
X118859580Y-138738095D01*
X118859580Y-138738095D02*
X118764342Y-138690476D01*
X118764342Y-138690476D02*
X117954819Y-138690476D01*
X117954819Y-138309523D02*
X117954819Y-137690476D01*
X117954819Y-137690476D02*
X118335771Y-138023809D01*
X118335771Y-138023809D02*
X118335771Y-137880952D01*
X118335771Y-137880952D02*
X118383390Y-137785714D01*
X118383390Y-137785714D02*
X118431009Y-137738095D01*
X118431009Y-137738095D02*
X118526247Y-137690476D01*
X118526247Y-137690476D02*
X118764342Y-137690476D01*
X118764342Y-137690476D02*
X118859580Y-137738095D01*
X118859580Y-137738095D02*
X118907200Y-137785714D01*
X118907200Y-137785714D02*
X118954819Y-137880952D01*
X118954819Y-137880952D02*
X118954819Y-138166666D01*
X118954819Y-138166666D02*
X118907200Y-138261904D01*
X118907200Y-138261904D02*
X118859580Y-138309523D01*
X72309523Y-155884819D02*
X71738095Y-155884819D01*
X72023809Y-155884819D02*
X72023809Y-154884819D01*
X72023809Y-154884819D02*
X71928571Y-155027676D01*
X71928571Y-155027676D02*
X71833333Y-155122914D01*
X71833333Y-155122914D02*
X71738095Y-155170533D01*
X72928571Y-154884819D02*
X73023809Y-154884819D01*
X73023809Y-154884819D02*
X73119047Y-154932438D01*
X73119047Y-154932438D02*
X73166666Y-154980057D01*
X73166666Y-154980057D02*
X73214285Y-155075295D01*
X73214285Y-155075295D02*
X73261904Y-155265771D01*
X73261904Y-155265771D02*
X73261904Y-155503866D01*
X73261904Y-155503866D02*
X73214285Y-155694342D01*
X73214285Y-155694342D02*
X73166666Y-155789580D01*
X73166666Y-155789580D02*
X73119047Y-155837200D01*
X73119047Y-155837200D02*
X73023809Y-155884819D01*
X73023809Y-155884819D02*
X72928571Y-155884819D01*
X72928571Y-155884819D02*
X72833333Y-155837200D01*
X72833333Y-155837200D02*
X72785714Y-155789580D01*
X72785714Y-155789580D02*
X72738095Y-155694342D01*
X72738095Y-155694342D02*
X72690476Y-155503866D01*
X72690476Y-155503866D02*
X72690476Y-155265771D01*
X72690476Y-155265771D02*
X72738095Y-155075295D01*
X72738095Y-155075295D02*
X72785714Y-154980057D01*
X72785714Y-154980057D02*
X72833333Y-154932438D01*
X72833333Y-154932438D02*
X72928571Y-154884819D01*
X73690476Y-155884819D02*
X73690476Y-154884819D01*
X74261904Y-155884819D02*
X73833333Y-155313390D01*
X74261904Y-154884819D02*
X73690476Y-155456247D01*
D11*
X72933333Y-154181927D02*
X72800000Y-153991451D01*
X72704762Y-154181927D02*
X72704762Y-153781927D01*
X72704762Y-153781927D02*
X72857143Y-153781927D01*
X72857143Y-153781927D02*
X72895238Y-153800975D01*
X72895238Y-153800975D02*
X72914285Y-153820022D01*
X72914285Y-153820022D02*
X72933333Y-153858118D01*
X72933333Y-153858118D02*
X72933333Y-153915260D01*
X72933333Y-153915260D02*
X72914285Y-153953356D01*
X72914285Y-153953356D02*
X72895238Y-153972403D01*
X72895238Y-153972403D02*
X72857143Y-153991451D01*
X72857143Y-153991451D02*
X72704762Y-153991451D01*
X73276190Y-153781927D02*
X73200000Y-153781927D01*
X73200000Y-153781927D02*
X73161904Y-153800975D01*
X73161904Y-153800975D02*
X73142857Y-153820022D01*
X73142857Y-153820022D02*
X73104762Y-153877165D01*
X73104762Y-153877165D02*
X73085714Y-153953356D01*
X73085714Y-153953356D02*
X73085714Y-154105737D01*
X73085714Y-154105737D02*
X73104762Y-154143832D01*
X73104762Y-154143832D02*
X73123809Y-154162880D01*
X73123809Y-154162880D02*
X73161904Y-154181927D01*
X73161904Y-154181927D02*
X73238095Y-154181927D01*
X73238095Y-154181927D02*
X73276190Y-154162880D01*
X73276190Y-154162880D02*
X73295238Y-154143832D01*
X73295238Y-154143832D02*
X73314285Y-154105737D01*
X73314285Y-154105737D02*
X73314285Y-154010499D01*
X73314285Y-154010499D02*
X73295238Y-153972403D01*
X73295238Y-153972403D02*
X73276190Y-153953356D01*
X73276190Y-153953356D02*
X73238095Y-153934308D01*
X73238095Y-153934308D02*
X73161904Y-153934308D01*
X73161904Y-153934308D02*
X73123809Y-153953356D01*
X73123809Y-153953356D02*
X73104762Y-153972403D01*
X73104762Y-153972403D02*
X73085714Y-154010499D01*
D10*
X121261905Y-119300057D02*
X121309524Y-119252438D01*
X121309524Y-119252438D02*
X121404762Y-119204819D01*
X121404762Y-119204819D02*
X121642857Y-119204819D01*
X121642857Y-119204819D02*
X121738095Y-119252438D01*
X121738095Y-119252438D02*
X121785714Y-119300057D01*
X121785714Y-119300057D02*
X121833333Y-119395295D01*
X121833333Y-119395295D02*
X121833333Y-119490533D01*
X121833333Y-119490533D02*
X121785714Y-119633390D01*
X121785714Y-119633390D02*
X121214286Y-120204819D01*
X121214286Y-120204819D02*
X121833333Y-120204819D01*
X122261905Y-120109580D02*
X122309524Y-120157200D01*
X122309524Y-120157200D02*
X122261905Y-120204819D01*
X122261905Y-120204819D02*
X122214286Y-120157200D01*
X122214286Y-120157200D02*
X122261905Y-120109580D01*
X122261905Y-120109580D02*
X122261905Y-120204819D01*
X122642857Y-119204819D02*
X123309523Y-119204819D01*
X123309523Y-119204819D02*
X122880952Y-120204819D01*
X123690476Y-119538152D02*
X123690476Y-120204819D01*
X123690476Y-119633390D02*
X123738095Y-119585771D01*
X123738095Y-119585771D02*
X123833333Y-119538152D01*
X123833333Y-119538152D02*
X123976190Y-119538152D01*
X123976190Y-119538152D02*
X124071428Y-119585771D01*
X124071428Y-119585771D02*
X124119047Y-119681009D01*
X124119047Y-119681009D02*
X124119047Y-120204819D01*
X124452381Y-119538152D02*
X124833333Y-119538152D01*
X124595238Y-120204819D02*
X124595238Y-119347676D01*
X124595238Y-119347676D02*
X124642857Y-119252438D01*
X124642857Y-119252438D02*
X124738095Y-119204819D01*
X124738095Y-119204819D02*
X124833333Y-119204819D01*
D11*
X120143832Y-118541666D02*
X120162880Y-118560714D01*
X120162880Y-118560714D02*
X120181927Y-118617856D01*
X120181927Y-118617856D02*
X120181927Y-118655952D01*
X120181927Y-118655952D02*
X120162880Y-118713095D01*
X120162880Y-118713095D02*
X120124784Y-118751190D01*
X120124784Y-118751190D02*
X120086689Y-118770237D01*
X120086689Y-118770237D02*
X120010499Y-118789285D01*
X120010499Y-118789285D02*
X119953356Y-118789285D01*
X119953356Y-118789285D02*
X119877165Y-118770237D01*
X119877165Y-118770237D02*
X119839070Y-118751190D01*
X119839070Y-118751190D02*
X119800975Y-118713095D01*
X119800975Y-118713095D02*
X119781927Y-118655952D01*
X119781927Y-118655952D02*
X119781927Y-118617856D01*
X119781927Y-118617856D02*
X119800975Y-118560714D01*
X119800975Y-118560714D02*
X119820022Y-118541666D01*
X120181927Y-118351190D02*
X120181927Y-118274999D01*
X120181927Y-118274999D02*
X120162880Y-118236904D01*
X120162880Y-118236904D02*
X120143832Y-118217856D01*
X120143832Y-118217856D02*
X120086689Y-118179761D01*
X120086689Y-118179761D02*
X120010499Y-118160714D01*
X120010499Y-118160714D02*
X119858118Y-118160714D01*
X119858118Y-118160714D02*
X119820022Y-118179761D01*
X119820022Y-118179761D02*
X119800975Y-118198809D01*
X119800975Y-118198809D02*
X119781927Y-118236904D01*
X119781927Y-118236904D02*
X119781927Y-118313095D01*
X119781927Y-118313095D02*
X119800975Y-118351190D01*
X119800975Y-118351190D02*
X119820022Y-118370237D01*
X119820022Y-118370237D02*
X119858118Y-118389285D01*
X119858118Y-118389285D02*
X119953356Y-118389285D01*
X119953356Y-118389285D02*
X119991451Y-118370237D01*
X119991451Y-118370237D02*
X120010499Y-118351190D01*
X120010499Y-118351190D02*
X120029546Y-118313095D01*
X120029546Y-118313095D02*
X120029546Y-118236904D01*
X120029546Y-118236904D02*
X120010499Y-118198809D01*
X120010499Y-118198809D02*
X119991451Y-118179761D01*
X119991451Y-118179761D02*
X119953356Y-118160714D01*
D10*
X72309523Y-153384819D02*
X71738095Y-153384819D01*
X72023809Y-153384819D02*
X72023809Y-152384819D01*
X72023809Y-152384819D02*
X71928571Y-152527676D01*
X71928571Y-152527676D02*
X71833333Y-152622914D01*
X71833333Y-152622914D02*
X71738095Y-152670533D01*
X72928571Y-152384819D02*
X73023809Y-152384819D01*
X73023809Y-152384819D02*
X73119047Y-152432438D01*
X73119047Y-152432438D02*
X73166666Y-152480057D01*
X73166666Y-152480057D02*
X73214285Y-152575295D01*
X73214285Y-152575295D02*
X73261904Y-152765771D01*
X73261904Y-152765771D02*
X73261904Y-153003866D01*
X73261904Y-153003866D02*
X73214285Y-153194342D01*
X73214285Y-153194342D02*
X73166666Y-153289580D01*
X73166666Y-153289580D02*
X73119047Y-153337200D01*
X73119047Y-153337200D02*
X73023809Y-153384819D01*
X73023809Y-153384819D02*
X72928571Y-153384819D01*
X72928571Y-153384819D02*
X72833333Y-153337200D01*
X72833333Y-153337200D02*
X72785714Y-153289580D01*
X72785714Y-153289580D02*
X72738095Y-153194342D01*
X72738095Y-153194342D02*
X72690476Y-153003866D01*
X72690476Y-153003866D02*
X72690476Y-152765771D01*
X72690476Y-152765771D02*
X72738095Y-152575295D01*
X72738095Y-152575295D02*
X72785714Y-152480057D01*
X72785714Y-152480057D02*
X72833333Y-152432438D01*
X72833333Y-152432438D02*
X72928571Y-152384819D01*
X73690476Y-153384819D02*
X73690476Y-152384819D01*
X74261904Y-153384819D02*
X73833333Y-152813390D01*
X74261904Y-152384819D02*
X73690476Y-152956247D01*
D11*
X72933333Y-151681927D02*
X72800000Y-151491451D01*
X72704762Y-151681927D02*
X72704762Y-151281927D01*
X72704762Y-151281927D02*
X72857143Y-151281927D01*
X72857143Y-151281927D02*
X72895238Y-151300975D01*
X72895238Y-151300975D02*
X72914285Y-151320022D01*
X72914285Y-151320022D02*
X72933333Y-151358118D01*
X72933333Y-151358118D02*
X72933333Y-151415260D01*
X72933333Y-151415260D02*
X72914285Y-151453356D01*
X72914285Y-151453356D02*
X72895238Y-151472403D01*
X72895238Y-151472403D02*
X72857143Y-151491451D01*
X72857143Y-151491451D02*
X72704762Y-151491451D01*
X73295238Y-151281927D02*
X73104762Y-151281927D01*
X73104762Y-151281927D02*
X73085714Y-151472403D01*
X73085714Y-151472403D02*
X73104762Y-151453356D01*
X73104762Y-151453356D02*
X73142857Y-151434308D01*
X73142857Y-151434308D02*
X73238095Y-151434308D01*
X73238095Y-151434308D02*
X73276190Y-151453356D01*
X73276190Y-151453356D02*
X73295238Y-151472403D01*
X73295238Y-151472403D02*
X73314285Y-151510499D01*
X73314285Y-151510499D02*
X73314285Y-151605737D01*
X73314285Y-151605737D02*
X73295238Y-151643832D01*
X73295238Y-151643832D02*
X73276190Y-151662880D01*
X73276190Y-151662880D02*
X73238095Y-151681927D01*
X73238095Y-151681927D02*
X73142857Y-151681927D01*
X73142857Y-151681927D02*
X73104762Y-151662880D01*
X73104762Y-151662880D02*
X73085714Y-151643832D01*
D10*
X139833333Y-124884819D02*
X139261905Y-124884819D01*
X139547619Y-124884819D02*
X139547619Y-123884819D01*
X139547619Y-123884819D02*
X139452381Y-124027676D01*
X139452381Y-124027676D02*
X139357143Y-124122914D01*
X139357143Y-124122914D02*
X139261905Y-124170533D01*
X140452381Y-123884819D02*
X140547619Y-123884819D01*
X140547619Y-123884819D02*
X140642857Y-123932438D01*
X140642857Y-123932438D02*
X140690476Y-123980057D01*
X140690476Y-123980057D02*
X140738095Y-124075295D01*
X140738095Y-124075295D02*
X140785714Y-124265771D01*
X140785714Y-124265771D02*
X140785714Y-124503866D01*
X140785714Y-124503866D02*
X140738095Y-124694342D01*
X140738095Y-124694342D02*
X140690476Y-124789580D01*
X140690476Y-124789580D02*
X140642857Y-124837200D01*
X140642857Y-124837200D02*
X140547619Y-124884819D01*
X140547619Y-124884819D02*
X140452381Y-124884819D01*
X140452381Y-124884819D02*
X140357143Y-124837200D01*
X140357143Y-124837200D02*
X140309524Y-124789580D01*
X140309524Y-124789580D02*
X140261905Y-124694342D01*
X140261905Y-124694342D02*
X140214286Y-124503866D01*
X140214286Y-124503866D02*
X140214286Y-124265771D01*
X140214286Y-124265771D02*
X140261905Y-124075295D01*
X140261905Y-124075295D02*
X140309524Y-123980057D01*
X140309524Y-123980057D02*
X140357143Y-123932438D01*
X140357143Y-123932438D02*
X140452381Y-123884819D01*
X141404762Y-123884819D02*
X141500000Y-123884819D01*
X141500000Y-123884819D02*
X141595238Y-123932438D01*
X141595238Y-123932438D02*
X141642857Y-123980057D01*
X141642857Y-123980057D02*
X141690476Y-124075295D01*
X141690476Y-124075295D02*
X141738095Y-124265771D01*
X141738095Y-124265771D02*
X141738095Y-124503866D01*
X141738095Y-124503866D02*
X141690476Y-124694342D01*
X141690476Y-124694342D02*
X141642857Y-124789580D01*
X141642857Y-124789580D02*
X141595238Y-124837200D01*
X141595238Y-124837200D02*
X141500000Y-124884819D01*
X141500000Y-124884819D02*
X141404762Y-124884819D01*
X141404762Y-124884819D02*
X141309524Y-124837200D01*
X141309524Y-124837200D02*
X141261905Y-124789580D01*
X141261905Y-124789580D02*
X141214286Y-124694342D01*
X141214286Y-124694342D02*
X141166667Y-124503866D01*
X141166667Y-124503866D02*
X141166667Y-124265771D01*
X141166667Y-124265771D02*
X141214286Y-124075295D01*
X141214286Y-124075295D02*
X141261905Y-123980057D01*
X141261905Y-123980057D02*
X141309524Y-123932438D01*
X141309524Y-123932438D02*
X141404762Y-123884819D01*
D11*
X140433333Y-123181927D02*
X140300000Y-122991451D01*
X140204762Y-123181927D02*
X140204762Y-122781927D01*
X140204762Y-122781927D02*
X140357143Y-122781927D01*
X140357143Y-122781927D02*
X140395238Y-122800975D01*
X140395238Y-122800975D02*
X140414285Y-122820022D01*
X140414285Y-122820022D02*
X140433333Y-122858118D01*
X140433333Y-122858118D02*
X140433333Y-122915260D01*
X140433333Y-122915260D02*
X140414285Y-122953356D01*
X140414285Y-122953356D02*
X140395238Y-122972403D01*
X140395238Y-122972403D02*
X140357143Y-122991451D01*
X140357143Y-122991451D02*
X140204762Y-122991451D01*
X140661904Y-122953356D02*
X140623809Y-122934308D01*
X140623809Y-122934308D02*
X140604762Y-122915260D01*
X140604762Y-122915260D02*
X140585714Y-122877165D01*
X140585714Y-122877165D02*
X140585714Y-122858118D01*
X140585714Y-122858118D02*
X140604762Y-122820022D01*
X140604762Y-122820022D02*
X140623809Y-122800975D01*
X140623809Y-122800975D02*
X140661904Y-122781927D01*
X140661904Y-122781927D02*
X140738095Y-122781927D01*
X140738095Y-122781927D02*
X140776190Y-122800975D01*
X140776190Y-122800975D02*
X140795238Y-122820022D01*
X140795238Y-122820022D02*
X140814285Y-122858118D01*
X140814285Y-122858118D02*
X140814285Y-122877165D01*
X140814285Y-122877165D02*
X140795238Y-122915260D01*
X140795238Y-122915260D02*
X140776190Y-122934308D01*
X140776190Y-122934308D02*
X140738095Y-122953356D01*
X140738095Y-122953356D02*
X140661904Y-122953356D01*
X140661904Y-122953356D02*
X140623809Y-122972403D01*
X140623809Y-122972403D02*
X140604762Y-122991451D01*
X140604762Y-122991451D02*
X140585714Y-123029546D01*
X140585714Y-123029546D02*
X140585714Y-123105737D01*
X140585714Y-123105737D02*
X140604762Y-123143832D01*
X140604762Y-123143832D02*
X140623809Y-123162880D01*
X140623809Y-123162880D02*
X140661904Y-123181927D01*
X140661904Y-123181927D02*
X140738095Y-123181927D01*
X140738095Y-123181927D02*
X140776190Y-123162880D01*
X140776190Y-123162880D02*
X140795238Y-123143832D01*
X140795238Y-123143832D02*
X140814285Y-123105737D01*
X140814285Y-123105737D02*
X140814285Y-123029546D01*
X140814285Y-123029546D02*
X140795238Y-122991451D01*
X140795238Y-122991451D02*
X140776190Y-122972403D01*
X140776190Y-122972403D02*
X140738095Y-122953356D01*
D10*
X123634819Y-130739720D02*
X123634819Y-130120673D01*
X123634819Y-130120673D02*
X124015771Y-130454006D01*
X124015771Y-130454006D02*
X124015771Y-130311149D01*
X124015771Y-130311149D02*
X124063390Y-130215911D01*
X124063390Y-130215911D02*
X124111009Y-130168292D01*
X124111009Y-130168292D02*
X124206247Y-130120673D01*
X124206247Y-130120673D02*
X124444342Y-130120673D01*
X124444342Y-130120673D02*
X124539580Y-130168292D01*
X124539580Y-130168292D02*
X124587200Y-130215911D01*
X124587200Y-130215911D02*
X124634819Y-130311149D01*
X124634819Y-130311149D02*
X124634819Y-130596863D01*
X124634819Y-130596863D02*
X124587200Y-130692101D01*
X124587200Y-130692101D02*
X124539580Y-130739720D01*
X123634819Y-129787339D02*
X123634819Y-129168292D01*
X123634819Y-129168292D02*
X124015771Y-129501625D01*
X124015771Y-129501625D02*
X124015771Y-129358768D01*
X124015771Y-129358768D02*
X124063390Y-129263530D01*
X124063390Y-129263530D02*
X124111009Y-129215911D01*
X124111009Y-129215911D02*
X124206247Y-129168292D01*
X124206247Y-129168292D02*
X124444342Y-129168292D01*
X124444342Y-129168292D02*
X124539580Y-129215911D01*
X124539580Y-129215911D02*
X124587200Y-129263530D01*
X124587200Y-129263530D02*
X124634819Y-129358768D01*
X124634819Y-129358768D02*
X124634819Y-129644482D01*
X124634819Y-129644482D02*
X124587200Y-129739720D01*
X124587200Y-129739720D02*
X124539580Y-129787339D01*
D11*
X122931927Y-129996863D02*
X122741451Y-130130196D01*
X122931927Y-130225434D02*
X122531927Y-130225434D01*
X122531927Y-130225434D02*
X122531927Y-130073053D01*
X122531927Y-130073053D02*
X122550975Y-130034958D01*
X122550975Y-130034958D02*
X122570022Y-130015911D01*
X122570022Y-130015911D02*
X122608118Y-129996863D01*
X122608118Y-129996863D02*
X122665260Y-129996863D01*
X122665260Y-129996863D02*
X122703356Y-130015911D01*
X122703356Y-130015911D02*
X122722403Y-130034958D01*
X122722403Y-130034958D02*
X122741451Y-130073053D01*
X122741451Y-130073053D02*
X122741451Y-130225434D01*
X122531927Y-129863530D02*
X122531927Y-129596863D01*
X122531927Y-129596863D02*
X122931927Y-129768292D01*
D10*
X139833333Y-134884819D02*
X139261905Y-134884819D01*
X139547619Y-134884819D02*
X139547619Y-133884819D01*
X139547619Y-133884819D02*
X139452381Y-134027676D01*
X139452381Y-134027676D02*
X139357143Y-134122914D01*
X139357143Y-134122914D02*
X139261905Y-134170533D01*
X140452381Y-133884819D02*
X140547619Y-133884819D01*
X140547619Y-133884819D02*
X140642857Y-133932438D01*
X140642857Y-133932438D02*
X140690476Y-133980057D01*
X140690476Y-133980057D02*
X140738095Y-134075295D01*
X140738095Y-134075295D02*
X140785714Y-134265771D01*
X140785714Y-134265771D02*
X140785714Y-134503866D01*
X140785714Y-134503866D02*
X140738095Y-134694342D01*
X140738095Y-134694342D02*
X140690476Y-134789580D01*
X140690476Y-134789580D02*
X140642857Y-134837200D01*
X140642857Y-134837200D02*
X140547619Y-134884819D01*
X140547619Y-134884819D02*
X140452381Y-134884819D01*
X140452381Y-134884819D02*
X140357143Y-134837200D01*
X140357143Y-134837200D02*
X140309524Y-134789580D01*
X140309524Y-134789580D02*
X140261905Y-134694342D01*
X140261905Y-134694342D02*
X140214286Y-134503866D01*
X140214286Y-134503866D02*
X140214286Y-134265771D01*
X140214286Y-134265771D02*
X140261905Y-134075295D01*
X140261905Y-134075295D02*
X140309524Y-133980057D01*
X140309524Y-133980057D02*
X140357143Y-133932438D01*
X140357143Y-133932438D02*
X140452381Y-133884819D01*
X141404762Y-133884819D02*
X141500000Y-133884819D01*
X141500000Y-133884819D02*
X141595238Y-133932438D01*
X141595238Y-133932438D02*
X141642857Y-133980057D01*
X141642857Y-133980057D02*
X141690476Y-134075295D01*
X141690476Y-134075295D02*
X141738095Y-134265771D01*
X141738095Y-134265771D02*
X141738095Y-134503866D01*
X141738095Y-134503866D02*
X141690476Y-134694342D01*
X141690476Y-134694342D02*
X141642857Y-134789580D01*
X141642857Y-134789580D02*
X141595238Y-134837200D01*
X141595238Y-134837200D02*
X141500000Y-134884819D01*
X141500000Y-134884819D02*
X141404762Y-134884819D01*
X141404762Y-134884819D02*
X141309524Y-134837200D01*
X141309524Y-134837200D02*
X141261905Y-134789580D01*
X141261905Y-134789580D02*
X141214286Y-134694342D01*
X141214286Y-134694342D02*
X141166667Y-134503866D01*
X141166667Y-134503866D02*
X141166667Y-134265771D01*
X141166667Y-134265771D02*
X141214286Y-134075295D01*
X141214286Y-134075295D02*
X141261905Y-133980057D01*
X141261905Y-133980057D02*
X141309524Y-133932438D01*
X141309524Y-133932438D02*
X141404762Y-133884819D01*
D11*
X140433333Y-133181927D02*
X140300000Y-132991451D01*
X140204762Y-133181927D02*
X140204762Y-132781927D01*
X140204762Y-132781927D02*
X140357143Y-132781927D01*
X140357143Y-132781927D02*
X140395238Y-132800975D01*
X140395238Y-132800975D02*
X140414285Y-132820022D01*
X140414285Y-132820022D02*
X140433333Y-132858118D01*
X140433333Y-132858118D02*
X140433333Y-132915260D01*
X140433333Y-132915260D02*
X140414285Y-132953356D01*
X140414285Y-132953356D02*
X140395238Y-132972403D01*
X140395238Y-132972403D02*
X140357143Y-132991451D01*
X140357143Y-132991451D02*
X140204762Y-132991451D01*
X140623809Y-133181927D02*
X140700000Y-133181927D01*
X140700000Y-133181927D02*
X140738095Y-133162880D01*
X140738095Y-133162880D02*
X140757143Y-133143832D01*
X140757143Y-133143832D02*
X140795238Y-133086689D01*
X140795238Y-133086689D02*
X140814285Y-133010499D01*
X140814285Y-133010499D02*
X140814285Y-132858118D01*
X140814285Y-132858118D02*
X140795238Y-132820022D01*
X140795238Y-132820022D02*
X140776190Y-132800975D01*
X140776190Y-132800975D02*
X140738095Y-132781927D01*
X140738095Y-132781927D02*
X140661904Y-132781927D01*
X140661904Y-132781927D02*
X140623809Y-132800975D01*
X140623809Y-132800975D02*
X140604762Y-132820022D01*
X140604762Y-132820022D02*
X140585714Y-132858118D01*
X140585714Y-132858118D02*
X140585714Y-132953356D01*
X140585714Y-132953356D02*
X140604762Y-132991451D01*
X140604762Y-132991451D02*
X140623809Y-133010499D01*
X140623809Y-133010499D02*
X140661904Y-133029546D01*
X140661904Y-133029546D02*
X140738095Y-133029546D01*
X140738095Y-133029546D02*
X140776190Y-133010499D01*
X140776190Y-133010499D02*
X140795238Y-132991451D01*
X140795238Y-132991451D02*
X140814285Y-132953356D01*
D10*
X72309523Y-148384819D02*
X71738095Y-148384819D01*
X72023809Y-148384819D02*
X72023809Y-147384819D01*
X72023809Y-147384819D02*
X71928571Y-147527676D01*
X71928571Y-147527676D02*
X71833333Y-147622914D01*
X71833333Y-147622914D02*
X71738095Y-147670533D01*
X72928571Y-147384819D02*
X73023809Y-147384819D01*
X73023809Y-147384819D02*
X73119047Y-147432438D01*
X73119047Y-147432438D02*
X73166666Y-147480057D01*
X73166666Y-147480057D02*
X73214285Y-147575295D01*
X73214285Y-147575295D02*
X73261904Y-147765771D01*
X73261904Y-147765771D02*
X73261904Y-148003866D01*
X73261904Y-148003866D02*
X73214285Y-148194342D01*
X73214285Y-148194342D02*
X73166666Y-148289580D01*
X73166666Y-148289580D02*
X73119047Y-148337200D01*
X73119047Y-148337200D02*
X73023809Y-148384819D01*
X73023809Y-148384819D02*
X72928571Y-148384819D01*
X72928571Y-148384819D02*
X72833333Y-148337200D01*
X72833333Y-148337200D02*
X72785714Y-148289580D01*
X72785714Y-148289580D02*
X72738095Y-148194342D01*
X72738095Y-148194342D02*
X72690476Y-148003866D01*
X72690476Y-148003866D02*
X72690476Y-147765771D01*
X72690476Y-147765771D02*
X72738095Y-147575295D01*
X72738095Y-147575295D02*
X72785714Y-147480057D01*
X72785714Y-147480057D02*
X72833333Y-147432438D01*
X72833333Y-147432438D02*
X72928571Y-147384819D01*
X73690476Y-148384819D02*
X73690476Y-147384819D01*
X74261904Y-148384819D02*
X73833333Y-147813390D01*
X74261904Y-147384819D02*
X73690476Y-147956247D01*
D11*
X72933333Y-146681927D02*
X72800000Y-146491451D01*
X72704762Y-146681927D02*
X72704762Y-146281927D01*
X72704762Y-146281927D02*
X72857143Y-146281927D01*
X72857143Y-146281927D02*
X72895238Y-146300975D01*
X72895238Y-146300975D02*
X72914285Y-146320022D01*
X72914285Y-146320022D02*
X72933333Y-146358118D01*
X72933333Y-146358118D02*
X72933333Y-146415260D01*
X72933333Y-146415260D02*
X72914285Y-146453356D01*
X72914285Y-146453356D02*
X72895238Y-146472403D01*
X72895238Y-146472403D02*
X72857143Y-146491451D01*
X72857143Y-146491451D02*
X72704762Y-146491451D01*
X73066666Y-146281927D02*
X73314285Y-146281927D01*
X73314285Y-146281927D02*
X73180952Y-146434308D01*
X73180952Y-146434308D02*
X73238095Y-146434308D01*
X73238095Y-146434308D02*
X73276190Y-146453356D01*
X73276190Y-146453356D02*
X73295238Y-146472403D01*
X73295238Y-146472403D02*
X73314285Y-146510499D01*
X73314285Y-146510499D02*
X73314285Y-146605737D01*
X73314285Y-146605737D02*
X73295238Y-146643832D01*
X73295238Y-146643832D02*
X73276190Y-146662880D01*
X73276190Y-146662880D02*
X73238095Y-146681927D01*
X73238095Y-146681927D02*
X73123809Y-146681927D01*
X73123809Y-146681927D02*
X73085714Y-146662880D01*
X73085714Y-146662880D02*
X73066666Y-146643832D01*
D10*
X72309523Y-143384819D02*
X71738095Y-143384819D01*
X72023809Y-143384819D02*
X72023809Y-142384819D01*
X72023809Y-142384819D02*
X71928571Y-142527676D01*
X71928571Y-142527676D02*
X71833333Y-142622914D01*
X71833333Y-142622914D02*
X71738095Y-142670533D01*
X72928571Y-142384819D02*
X73023809Y-142384819D01*
X73023809Y-142384819D02*
X73119047Y-142432438D01*
X73119047Y-142432438D02*
X73166666Y-142480057D01*
X73166666Y-142480057D02*
X73214285Y-142575295D01*
X73214285Y-142575295D02*
X73261904Y-142765771D01*
X73261904Y-142765771D02*
X73261904Y-143003866D01*
X73261904Y-143003866D02*
X73214285Y-143194342D01*
X73214285Y-143194342D02*
X73166666Y-143289580D01*
X73166666Y-143289580D02*
X73119047Y-143337200D01*
X73119047Y-143337200D02*
X73023809Y-143384819D01*
X73023809Y-143384819D02*
X72928571Y-143384819D01*
X72928571Y-143384819D02*
X72833333Y-143337200D01*
X72833333Y-143337200D02*
X72785714Y-143289580D01*
X72785714Y-143289580D02*
X72738095Y-143194342D01*
X72738095Y-143194342D02*
X72690476Y-143003866D01*
X72690476Y-143003866D02*
X72690476Y-142765771D01*
X72690476Y-142765771D02*
X72738095Y-142575295D01*
X72738095Y-142575295D02*
X72785714Y-142480057D01*
X72785714Y-142480057D02*
X72833333Y-142432438D01*
X72833333Y-142432438D02*
X72928571Y-142384819D01*
X73690476Y-143384819D02*
X73690476Y-142384819D01*
X74261904Y-143384819D02*
X73833333Y-142813390D01*
X74261904Y-142384819D02*
X73690476Y-142956247D01*
D11*
X72933333Y-141681927D02*
X72800000Y-141491451D01*
X72704762Y-141681927D02*
X72704762Y-141281927D01*
X72704762Y-141281927D02*
X72857143Y-141281927D01*
X72857143Y-141281927D02*
X72895238Y-141300975D01*
X72895238Y-141300975D02*
X72914285Y-141320022D01*
X72914285Y-141320022D02*
X72933333Y-141358118D01*
X72933333Y-141358118D02*
X72933333Y-141415260D01*
X72933333Y-141415260D02*
X72914285Y-141453356D01*
X72914285Y-141453356D02*
X72895238Y-141472403D01*
X72895238Y-141472403D02*
X72857143Y-141491451D01*
X72857143Y-141491451D02*
X72704762Y-141491451D01*
X73314285Y-141681927D02*
X73085714Y-141681927D01*
X73200000Y-141681927D02*
X73200000Y-141281927D01*
X73200000Y-141281927D02*
X73161904Y-141339070D01*
X73161904Y-141339070D02*
X73123809Y-141377165D01*
X73123809Y-141377165D02*
X73085714Y-141396213D01*
D10*
X112761905Y-119300057D02*
X112809524Y-119252438D01*
X112809524Y-119252438D02*
X112904762Y-119204819D01*
X112904762Y-119204819D02*
X113142857Y-119204819D01*
X113142857Y-119204819D02*
X113238095Y-119252438D01*
X113238095Y-119252438D02*
X113285714Y-119300057D01*
X113285714Y-119300057D02*
X113333333Y-119395295D01*
X113333333Y-119395295D02*
X113333333Y-119490533D01*
X113333333Y-119490533D02*
X113285714Y-119633390D01*
X113285714Y-119633390D02*
X112714286Y-120204819D01*
X112714286Y-120204819D02*
X113333333Y-120204819D01*
X113761905Y-120109580D02*
X113809524Y-120157200D01*
X113809524Y-120157200D02*
X113761905Y-120204819D01*
X113761905Y-120204819D02*
X113714286Y-120157200D01*
X113714286Y-120157200D02*
X113761905Y-120109580D01*
X113761905Y-120109580D02*
X113761905Y-120204819D01*
X114142857Y-119204819D02*
X114809523Y-119204819D01*
X114809523Y-119204819D02*
X114380952Y-120204819D01*
X115190476Y-119538152D02*
X115190476Y-120204819D01*
X115190476Y-119633390D02*
X115238095Y-119585771D01*
X115238095Y-119585771D02*
X115333333Y-119538152D01*
X115333333Y-119538152D02*
X115476190Y-119538152D01*
X115476190Y-119538152D02*
X115571428Y-119585771D01*
X115571428Y-119585771D02*
X115619047Y-119681009D01*
X115619047Y-119681009D02*
X115619047Y-120204819D01*
X115952381Y-119538152D02*
X116333333Y-119538152D01*
X116095238Y-120204819D02*
X116095238Y-119347676D01*
X116095238Y-119347676D02*
X116142857Y-119252438D01*
X116142857Y-119252438D02*
X116238095Y-119204819D01*
X116238095Y-119204819D02*
X116333333Y-119204819D01*
D11*
X117443832Y-118757142D02*
X117462880Y-118776190D01*
X117462880Y-118776190D02*
X117481927Y-118833332D01*
X117481927Y-118833332D02*
X117481927Y-118871428D01*
X117481927Y-118871428D02*
X117462880Y-118928571D01*
X117462880Y-118928571D02*
X117424784Y-118966666D01*
X117424784Y-118966666D02*
X117386689Y-118985713D01*
X117386689Y-118985713D02*
X117310499Y-119004761D01*
X117310499Y-119004761D02*
X117253356Y-119004761D01*
X117253356Y-119004761D02*
X117177165Y-118985713D01*
X117177165Y-118985713D02*
X117139070Y-118966666D01*
X117139070Y-118966666D02*
X117100975Y-118928571D01*
X117100975Y-118928571D02*
X117081927Y-118871428D01*
X117081927Y-118871428D02*
X117081927Y-118833332D01*
X117081927Y-118833332D02*
X117100975Y-118776190D01*
X117100975Y-118776190D02*
X117120022Y-118757142D01*
X117481927Y-118376190D02*
X117481927Y-118604761D01*
X117481927Y-118490475D02*
X117081927Y-118490475D01*
X117081927Y-118490475D02*
X117139070Y-118528571D01*
X117139070Y-118528571D02*
X117177165Y-118566666D01*
X117177165Y-118566666D02*
X117196213Y-118604761D01*
X117081927Y-118128571D02*
X117081927Y-118090476D01*
X117081927Y-118090476D02*
X117100975Y-118052380D01*
X117100975Y-118052380D02*
X117120022Y-118033333D01*
X117120022Y-118033333D02*
X117158118Y-118014285D01*
X117158118Y-118014285D02*
X117234308Y-117995238D01*
X117234308Y-117995238D02*
X117329546Y-117995238D01*
X117329546Y-117995238D02*
X117405737Y-118014285D01*
X117405737Y-118014285D02*
X117443832Y-118033333D01*
X117443832Y-118033333D02*
X117462880Y-118052380D01*
X117462880Y-118052380D02*
X117481927Y-118090476D01*
X117481927Y-118090476D02*
X117481927Y-118128571D01*
X117481927Y-118128571D02*
X117462880Y-118166666D01*
X117462880Y-118166666D02*
X117443832Y-118185714D01*
X117443832Y-118185714D02*
X117405737Y-118204761D01*
X117405737Y-118204761D02*
X117329546Y-118223809D01*
X117329546Y-118223809D02*
X117234308Y-118223809D01*
X117234308Y-118223809D02*
X117158118Y-118204761D01*
X117158118Y-118204761D02*
X117120022Y-118185714D01*
X117120022Y-118185714D02*
X117100975Y-118166666D01*
X117100975Y-118166666D02*
X117081927Y-118128571D01*
D10*
X72309523Y-145884819D02*
X71738095Y-145884819D01*
X72023809Y-145884819D02*
X72023809Y-144884819D01*
X72023809Y-144884819D02*
X71928571Y-145027676D01*
X71928571Y-145027676D02*
X71833333Y-145122914D01*
X71833333Y-145122914D02*
X71738095Y-145170533D01*
X72928571Y-144884819D02*
X73023809Y-144884819D01*
X73023809Y-144884819D02*
X73119047Y-144932438D01*
X73119047Y-144932438D02*
X73166666Y-144980057D01*
X73166666Y-144980057D02*
X73214285Y-145075295D01*
X73214285Y-145075295D02*
X73261904Y-145265771D01*
X73261904Y-145265771D02*
X73261904Y-145503866D01*
X73261904Y-145503866D02*
X73214285Y-145694342D01*
X73214285Y-145694342D02*
X73166666Y-145789580D01*
X73166666Y-145789580D02*
X73119047Y-145837200D01*
X73119047Y-145837200D02*
X73023809Y-145884819D01*
X73023809Y-145884819D02*
X72928571Y-145884819D01*
X72928571Y-145884819D02*
X72833333Y-145837200D01*
X72833333Y-145837200D02*
X72785714Y-145789580D01*
X72785714Y-145789580D02*
X72738095Y-145694342D01*
X72738095Y-145694342D02*
X72690476Y-145503866D01*
X72690476Y-145503866D02*
X72690476Y-145265771D01*
X72690476Y-145265771D02*
X72738095Y-145075295D01*
X72738095Y-145075295D02*
X72785714Y-144980057D01*
X72785714Y-144980057D02*
X72833333Y-144932438D01*
X72833333Y-144932438D02*
X72928571Y-144884819D01*
X73690476Y-145884819D02*
X73690476Y-144884819D01*
X74261904Y-145884819D02*
X73833333Y-145313390D01*
X74261904Y-144884819D02*
X73690476Y-145456247D01*
D11*
X72933333Y-144181927D02*
X72800000Y-143991451D01*
X72704762Y-144181927D02*
X72704762Y-143781927D01*
X72704762Y-143781927D02*
X72857143Y-143781927D01*
X72857143Y-143781927D02*
X72895238Y-143800975D01*
X72895238Y-143800975D02*
X72914285Y-143820022D01*
X72914285Y-143820022D02*
X72933333Y-143858118D01*
X72933333Y-143858118D02*
X72933333Y-143915260D01*
X72933333Y-143915260D02*
X72914285Y-143953356D01*
X72914285Y-143953356D02*
X72895238Y-143972403D01*
X72895238Y-143972403D02*
X72857143Y-143991451D01*
X72857143Y-143991451D02*
X72704762Y-143991451D01*
X73085714Y-143820022D02*
X73104762Y-143800975D01*
X73104762Y-143800975D02*
X73142857Y-143781927D01*
X73142857Y-143781927D02*
X73238095Y-143781927D01*
X73238095Y-143781927D02*
X73276190Y-143800975D01*
X73276190Y-143800975D02*
X73295238Y-143820022D01*
X73295238Y-143820022D02*
X73314285Y-143858118D01*
X73314285Y-143858118D02*
X73314285Y-143896213D01*
X73314285Y-143896213D02*
X73295238Y-143953356D01*
X73295238Y-143953356D02*
X73066666Y-144181927D01*
X73066666Y-144181927D02*
X73314285Y-144181927D01*
D10*
X123372319Y-126136744D02*
X123372319Y-125565316D01*
X124372319Y-125851030D02*
X123372319Y-125851030D01*
X124372319Y-124755792D02*
X124372319Y-125231982D01*
X124372319Y-125231982D02*
X123372319Y-125231982D01*
X123372319Y-124231982D02*
X123372319Y-124136744D01*
X123372319Y-124136744D02*
X123419938Y-124041506D01*
X123419938Y-124041506D02*
X123467557Y-123993887D01*
X123467557Y-123993887D02*
X123562795Y-123946268D01*
X123562795Y-123946268D02*
X123753271Y-123898649D01*
X123753271Y-123898649D02*
X123991366Y-123898649D01*
X123991366Y-123898649D02*
X124181842Y-123946268D01*
X124181842Y-123946268D02*
X124277080Y-123993887D01*
X124277080Y-123993887D02*
X124324700Y-124041506D01*
X124324700Y-124041506D02*
X124372319Y-124136744D01*
X124372319Y-124136744D02*
X124372319Y-124231982D01*
X124372319Y-124231982D02*
X124324700Y-124327220D01*
X124324700Y-124327220D02*
X124277080Y-124374839D01*
X124277080Y-124374839D02*
X124181842Y-124422458D01*
X124181842Y-124422458D02*
X123991366Y-124470077D01*
X123991366Y-124470077D02*
X123753271Y-124470077D01*
X123753271Y-124470077D02*
X123562795Y-124422458D01*
X123562795Y-124422458D02*
X123467557Y-124374839D01*
X123467557Y-124374839D02*
X123419938Y-124327220D01*
X123419938Y-124327220D02*
X123372319Y-124231982D01*
X123372319Y-123565315D02*
X123372319Y-122898649D01*
X123372319Y-122898649D02*
X124372319Y-123327220D01*
X123705652Y-122089125D02*
X124372319Y-122089125D01*
X123324700Y-122327220D02*
X124038985Y-122565315D01*
X124038985Y-122565315D02*
X124038985Y-121946268D01*
X118103066Y-124764363D02*
X118896400Y-124764363D01*
X118896400Y-124764363D02*
X118989733Y-124717697D01*
X118989733Y-124717697D02*
X119036400Y-124671030D01*
X119036400Y-124671030D02*
X119083066Y-124577697D01*
X119083066Y-124577697D02*
X119083066Y-124391030D01*
X119083066Y-124391030D02*
X119036400Y-124297697D01*
X119036400Y-124297697D02*
X118989733Y-124251030D01*
X118989733Y-124251030D02*
X118896400Y-124204363D01*
X118896400Y-124204363D02*
X118103066Y-124204363D01*
X118429733Y-123317696D02*
X119083066Y-123317696D01*
X118056400Y-123551030D02*
X118756400Y-123784363D01*
X118756400Y-123784363D02*
X118756400Y-123177696D01*
X132071428Y-137804819D02*
X131500000Y-137804819D01*
X131785714Y-137804819D02*
X131785714Y-136804819D01*
X131785714Y-136804819D02*
X131690476Y-136947676D01*
X131690476Y-136947676D02*
X131595238Y-137042914D01*
X131595238Y-137042914D02*
X131500000Y-137090533D01*
X132690476Y-136804819D02*
X132785714Y-136804819D01*
X132785714Y-136804819D02*
X132880952Y-136852438D01*
X132880952Y-136852438D02*
X132928571Y-136900057D01*
X132928571Y-136900057D02*
X132976190Y-136995295D01*
X132976190Y-136995295D02*
X133023809Y-137185771D01*
X133023809Y-137185771D02*
X133023809Y-137423866D01*
X133023809Y-137423866D02*
X132976190Y-137614342D01*
X132976190Y-137614342D02*
X132928571Y-137709580D01*
X132928571Y-137709580D02*
X132880952Y-137757200D01*
X132880952Y-137757200D02*
X132785714Y-137804819D01*
X132785714Y-137804819D02*
X132690476Y-137804819D01*
X132690476Y-137804819D02*
X132595238Y-137757200D01*
X132595238Y-137757200D02*
X132547619Y-137709580D01*
X132547619Y-137709580D02*
X132500000Y-137614342D01*
X132500000Y-137614342D02*
X132452381Y-137423866D01*
X132452381Y-137423866D02*
X132452381Y-137185771D01*
X132452381Y-137185771D02*
X132500000Y-136995295D01*
X132500000Y-136995295D02*
X132547619Y-136900057D01*
X132547619Y-136900057D02*
X132595238Y-136852438D01*
X132595238Y-136852438D02*
X132690476Y-136804819D01*
X133880952Y-137138152D02*
X133880952Y-137804819D01*
X133452381Y-137138152D02*
X133452381Y-137661961D01*
X133452381Y-137661961D02*
X133500000Y-137757200D01*
X133500000Y-137757200D02*
X133595238Y-137804819D01*
X133595238Y-137804819D02*
X133738095Y-137804819D01*
X133738095Y-137804819D02*
X133833333Y-137757200D01*
X133833333Y-137757200D02*
X133880952Y-137709580D01*
X134214286Y-137138152D02*
X134595238Y-137138152D01*
X134357143Y-137804819D02*
X134357143Y-136947676D01*
X134357143Y-136947676D02*
X134404762Y-136852438D01*
X134404762Y-136852438D02*
X134500000Y-136804819D01*
X134500000Y-136804819D02*
X134595238Y-136804819D01*
X132357142Y-133359580D02*
X132309523Y-133407200D01*
X132309523Y-133407200D02*
X132166666Y-133454819D01*
X132166666Y-133454819D02*
X132071428Y-133454819D01*
X132071428Y-133454819D02*
X131928571Y-133407200D01*
X131928571Y-133407200D02*
X131833333Y-133311961D01*
X131833333Y-133311961D02*
X131785714Y-133216723D01*
X131785714Y-133216723D02*
X131738095Y-133026247D01*
X131738095Y-133026247D02*
X131738095Y-132883390D01*
X131738095Y-132883390D02*
X131785714Y-132692914D01*
X131785714Y-132692914D02*
X131833333Y-132597676D01*
X131833333Y-132597676D02*
X131928571Y-132502438D01*
X131928571Y-132502438D02*
X132071428Y-132454819D01*
X132071428Y-132454819D02*
X132166666Y-132454819D01*
X132166666Y-132454819D02*
X132309523Y-132502438D01*
X132309523Y-132502438D02*
X132357142Y-132550057D01*
X133309523Y-133454819D02*
X132738095Y-133454819D01*
X133023809Y-133454819D02*
X133023809Y-132454819D01*
X133023809Y-132454819D02*
X132928571Y-132597676D01*
X132928571Y-132597676D02*
X132833333Y-132692914D01*
X132833333Y-132692914D02*
X132738095Y-132740533D01*
X134166666Y-132454819D02*
X133976190Y-132454819D01*
X133976190Y-132454819D02*
X133880952Y-132502438D01*
X133880952Y-132502438D02*
X133833333Y-132550057D01*
X133833333Y-132550057D02*
X133738095Y-132692914D01*
X133738095Y-132692914D02*
X133690476Y-132883390D01*
X133690476Y-132883390D02*
X133690476Y-133264342D01*
X133690476Y-133264342D02*
X133738095Y-133359580D01*
X133738095Y-133359580D02*
X133785714Y-133407200D01*
X133785714Y-133407200D02*
X133880952Y-133454819D01*
X133880952Y-133454819D02*
X134071428Y-133454819D01*
X134071428Y-133454819D02*
X134166666Y-133407200D01*
X134166666Y-133407200D02*
X134214285Y-133359580D01*
X134214285Y-133359580D02*
X134261904Y-133264342D01*
X134261904Y-133264342D02*
X134261904Y-133026247D01*
X134261904Y-133026247D02*
X134214285Y-132931009D01*
X134214285Y-132931009D02*
X134166666Y-132883390D01*
X134166666Y-132883390D02*
X134071428Y-132835771D01*
X134071428Y-132835771D02*
X133880952Y-132835771D01*
X133880952Y-132835771D02*
X133785714Y-132883390D01*
X133785714Y-132883390D02*
X133738095Y-132931009D01*
X133738095Y-132931009D02*
X133690476Y-133026247D01*
X72309523Y-150884819D02*
X71738095Y-150884819D01*
X72023809Y-150884819D02*
X72023809Y-149884819D01*
X72023809Y-149884819D02*
X71928571Y-150027676D01*
X71928571Y-150027676D02*
X71833333Y-150122914D01*
X71833333Y-150122914D02*
X71738095Y-150170533D01*
X72928571Y-149884819D02*
X73023809Y-149884819D01*
X73023809Y-149884819D02*
X73119047Y-149932438D01*
X73119047Y-149932438D02*
X73166666Y-149980057D01*
X73166666Y-149980057D02*
X73214285Y-150075295D01*
X73214285Y-150075295D02*
X73261904Y-150265771D01*
X73261904Y-150265771D02*
X73261904Y-150503866D01*
X73261904Y-150503866D02*
X73214285Y-150694342D01*
X73214285Y-150694342D02*
X73166666Y-150789580D01*
X73166666Y-150789580D02*
X73119047Y-150837200D01*
X73119047Y-150837200D02*
X73023809Y-150884819D01*
X73023809Y-150884819D02*
X72928571Y-150884819D01*
X72928571Y-150884819D02*
X72833333Y-150837200D01*
X72833333Y-150837200D02*
X72785714Y-150789580D01*
X72785714Y-150789580D02*
X72738095Y-150694342D01*
X72738095Y-150694342D02*
X72690476Y-150503866D01*
X72690476Y-150503866D02*
X72690476Y-150265771D01*
X72690476Y-150265771D02*
X72738095Y-150075295D01*
X72738095Y-150075295D02*
X72785714Y-149980057D01*
X72785714Y-149980057D02*
X72833333Y-149932438D01*
X72833333Y-149932438D02*
X72928571Y-149884819D01*
X73690476Y-150884819D02*
X73690476Y-149884819D01*
X74261904Y-150884819D02*
X73833333Y-150313390D01*
X74261904Y-149884819D02*
X73690476Y-150456247D01*
D11*
X72933333Y-149181927D02*
X72800000Y-148991451D01*
X72704762Y-149181927D02*
X72704762Y-148781927D01*
X72704762Y-148781927D02*
X72857143Y-148781927D01*
X72857143Y-148781927D02*
X72895238Y-148800975D01*
X72895238Y-148800975D02*
X72914285Y-148820022D01*
X72914285Y-148820022D02*
X72933333Y-148858118D01*
X72933333Y-148858118D02*
X72933333Y-148915260D01*
X72933333Y-148915260D02*
X72914285Y-148953356D01*
X72914285Y-148953356D02*
X72895238Y-148972403D01*
X72895238Y-148972403D02*
X72857143Y-148991451D01*
X72857143Y-148991451D02*
X72704762Y-148991451D01*
X73276190Y-148915260D02*
X73276190Y-149181927D01*
X73180952Y-148762880D02*
X73085714Y-149048594D01*
X73085714Y-149048594D02*
X73333333Y-149048594D01*
D10*
X100952380Y-152104819D02*
X100380952Y-152104819D01*
X100666666Y-152104819D02*
X100666666Y-151104819D01*
X100666666Y-151104819D02*
X100571428Y-151247676D01*
X100571428Y-151247676D02*
X100476190Y-151342914D01*
X100476190Y-151342914D02*
X100380952Y-151390533D01*
X101571428Y-151104819D02*
X101666666Y-151104819D01*
X101666666Y-151104819D02*
X101761904Y-151152438D01*
X101761904Y-151152438D02*
X101809523Y-151200057D01*
X101809523Y-151200057D02*
X101857142Y-151295295D01*
X101857142Y-151295295D02*
X101904761Y-151485771D01*
X101904761Y-151485771D02*
X101904761Y-151723866D01*
X101904761Y-151723866D02*
X101857142Y-151914342D01*
X101857142Y-151914342D02*
X101809523Y-152009580D01*
X101809523Y-152009580D02*
X101761904Y-152057200D01*
X101761904Y-152057200D02*
X101666666Y-152104819D01*
X101666666Y-152104819D02*
X101571428Y-152104819D01*
X101571428Y-152104819D02*
X101476190Y-152057200D01*
X101476190Y-152057200D02*
X101428571Y-152009580D01*
X101428571Y-152009580D02*
X101380952Y-151914342D01*
X101380952Y-151914342D02*
X101333333Y-151723866D01*
X101333333Y-151723866D02*
X101333333Y-151485771D01*
X101333333Y-151485771D02*
X101380952Y-151295295D01*
X101380952Y-151295295D02*
X101428571Y-151200057D01*
X101428571Y-151200057D02*
X101476190Y-151152438D01*
X101476190Y-151152438D02*
X101571428Y-151104819D01*
X102523809Y-151104819D02*
X102619047Y-151104819D01*
X102619047Y-151104819D02*
X102714285Y-151152438D01*
X102714285Y-151152438D02*
X102761904Y-151200057D01*
X102761904Y-151200057D02*
X102809523Y-151295295D01*
X102809523Y-151295295D02*
X102857142Y-151485771D01*
X102857142Y-151485771D02*
X102857142Y-151723866D01*
X102857142Y-151723866D02*
X102809523Y-151914342D01*
X102809523Y-151914342D02*
X102761904Y-152009580D01*
X102761904Y-152009580D02*
X102714285Y-152057200D01*
X102714285Y-152057200D02*
X102619047Y-152104819D01*
X102619047Y-152104819D02*
X102523809Y-152104819D01*
X102523809Y-152104819D02*
X102428571Y-152057200D01*
X102428571Y-152057200D02*
X102380952Y-152009580D01*
X102380952Y-152009580D02*
X102333333Y-151914342D01*
X102333333Y-151914342D02*
X102285714Y-151723866D01*
X102285714Y-151723866D02*
X102285714Y-151485771D01*
X102285714Y-151485771D02*
X102333333Y-151295295D01*
X102333333Y-151295295D02*
X102380952Y-151200057D01*
X102380952Y-151200057D02*
X102428571Y-151152438D01*
X102428571Y-151152438D02*
X102523809Y-151104819D01*
X103714285Y-151438152D02*
X103714285Y-152104819D01*
X103285714Y-151438152D02*
X103285714Y-151961961D01*
X103285714Y-151961961D02*
X103333333Y-152057200D01*
X103333333Y-152057200D02*
X103428571Y-152104819D01*
X103428571Y-152104819D02*
X103571428Y-152104819D01*
X103571428Y-152104819D02*
X103666666Y-152057200D01*
X103666666Y-152057200D02*
X103714285Y-152009580D01*
X104523809Y-151581009D02*
X104190476Y-151581009D01*
X104190476Y-152104819D02*
X104190476Y-151104819D01*
X104190476Y-151104819D02*
X104666666Y-151104819D01*
X102333333Y-156359580D02*
X102285714Y-156407200D01*
X102285714Y-156407200D02*
X102142857Y-156454819D01*
X102142857Y-156454819D02*
X102047619Y-156454819D01*
X102047619Y-156454819D02*
X101904762Y-156407200D01*
X101904762Y-156407200D02*
X101809524Y-156311961D01*
X101809524Y-156311961D02*
X101761905Y-156216723D01*
X101761905Y-156216723D02*
X101714286Y-156026247D01*
X101714286Y-156026247D02*
X101714286Y-155883390D01*
X101714286Y-155883390D02*
X101761905Y-155692914D01*
X101761905Y-155692914D02*
X101809524Y-155597676D01*
X101809524Y-155597676D02*
X101904762Y-155502438D01*
X101904762Y-155502438D02*
X102047619Y-155454819D01*
X102047619Y-155454819D02*
X102142857Y-155454819D01*
X102142857Y-155454819D02*
X102285714Y-155502438D01*
X102285714Y-155502438D02*
X102333333Y-155550057D01*
X103238095Y-155454819D02*
X102761905Y-155454819D01*
X102761905Y-155454819D02*
X102714286Y-155931009D01*
X102714286Y-155931009D02*
X102761905Y-155883390D01*
X102761905Y-155883390D02*
X102857143Y-155835771D01*
X102857143Y-155835771D02*
X103095238Y-155835771D01*
X103095238Y-155835771D02*
X103190476Y-155883390D01*
X103190476Y-155883390D02*
X103238095Y-155931009D01*
X103238095Y-155931009D02*
X103285714Y-156026247D01*
X103285714Y-156026247D02*
X103285714Y-156264342D01*
X103285714Y-156264342D02*
X103238095Y-156359580D01*
X103238095Y-156359580D02*
X103190476Y-156407200D01*
X103190476Y-156407200D02*
X103095238Y-156454819D01*
X103095238Y-156454819D02*
X102857143Y-156454819D01*
X102857143Y-156454819D02*
X102761905Y-156407200D01*
X102761905Y-156407200D02*
X102714286Y-156359580D01*
X101571428Y-141604819D02*
X101000000Y-141604819D01*
X101285714Y-141604819D02*
X101285714Y-140604819D01*
X101285714Y-140604819D02*
X101190476Y-140747676D01*
X101190476Y-140747676D02*
X101095238Y-140842914D01*
X101095238Y-140842914D02*
X101000000Y-140890533D01*
X102190476Y-140604819D02*
X102285714Y-140604819D01*
X102285714Y-140604819D02*
X102380952Y-140652438D01*
X102380952Y-140652438D02*
X102428571Y-140700057D01*
X102428571Y-140700057D02*
X102476190Y-140795295D01*
X102476190Y-140795295D02*
X102523809Y-140985771D01*
X102523809Y-140985771D02*
X102523809Y-141223866D01*
X102523809Y-141223866D02*
X102476190Y-141414342D01*
X102476190Y-141414342D02*
X102428571Y-141509580D01*
X102428571Y-141509580D02*
X102380952Y-141557200D01*
X102380952Y-141557200D02*
X102285714Y-141604819D01*
X102285714Y-141604819D02*
X102190476Y-141604819D01*
X102190476Y-141604819D02*
X102095238Y-141557200D01*
X102095238Y-141557200D02*
X102047619Y-141509580D01*
X102047619Y-141509580D02*
X102000000Y-141414342D01*
X102000000Y-141414342D02*
X101952381Y-141223866D01*
X101952381Y-141223866D02*
X101952381Y-140985771D01*
X101952381Y-140985771D02*
X102000000Y-140795295D01*
X102000000Y-140795295D02*
X102047619Y-140700057D01*
X102047619Y-140700057D02*
X102095238Y-140652438D01*
X102095238Y-140652438D02*
X102190476Y-140604819D01*
X103380952Y-140938152D02*
X103380952Y-141604819D01*
X102952381Y-140938152D02*
X102952381Y-141461961D01*
X102952381Y-141461961D02*
X103000000Y-141557200D01*
X103000000Y-141557200D02*
X103095238Y-141604819D01*
X103095238Y-141604819D02*
X103238095Y-141604819D01*
X103238095Y-141604819D02*
X103333333Y-141557200D01*
X103333333Y-141557200D02*
X103380952Y-141509580D01*
X103714286Y-140938152D02*
X104095238Y-140938152D01*
X103857143Y-141604819D02*
X103857143Y-140747676D01*
X103857143Y-140747676D02*
X103904762Y-140652438D01*
X103904762Y-140652438D02*
X104000000Y-140604819D01*
X104000000Y-140604819D02*
X104095238Y-140604819D01*
X102333333Y-145859580D02*
X102285714Y-145907200D01*
X102285714Y-145907200D02*
X102142857Y-145954819D01*
X102142857Y-145954819D02*
X102047619Y-145954819D01*
X102047619Y-145954819D02*
X101904762Y-145907200D01*
X101904762Y-145907200D02*
X101809524Y-145811961D01*
X101809524Y-145811961D02*
X101761905Y-145716723D01*
X101761905Y-145716723D02*
X101714286Y-145526247D01*
X101714286Y-145526247D02*
X101714286Y-145383390D01*
X101714286Y-145383390D02*
X101761905Y-145192914D01*
X101761905Y-145192914D02*
X101809524Y-145097676D01*
X101809524Y-145097676D02*
X101904762Y-145002438D01*
X101904762Y-145002438D02*
X102047619Y-144954819D01*
X102047619Y-144954819D02*
X102142857Y-144954819D01*
X102142857Y-144954819D02*
X102285714Y-145002438D01*
X102285714Y-145002438D02*
X102333333Y-145050057D01*
X102714286Y-145050057D02*
X102761905Y-145002438D01*
X102761905Y-145002438D02*
X102857143Y-144954819D01*
X102857143Y-144954819D02*
X103095238Y-144954819D01*
X103095238Y-144954819D02*
X103190476Y-145002438D01*
X103190476Y-145002438D02*
X103238095Y-145050057D01*
X103238095Y-145050057D02*
X103285714Y-145145295D01*
X103285714Y-145145295D02*
X103285714Y-145240533D01*
X103285714Y-145240533D02*
X103238095Y-145383390D01*
X103238095Y-145383390D02*
X102666667Y-145954819D01*
X102666667Y-145954819D02*
X103285714Y-145954819D01*
X132071428Y-127804819D02*
X131500000Y-127804819D01*
X131785714Y-127804819D02*
X131785714Y-126804819D01*
X131785714Y-126804819D02*
X131690476Y-126947676D01*
X131690476Y-126947676D02*
X131595238Y-127042914D01*
X131595238Y-127042914D02*
X131500000Y-127090533D01*
X132690476Y-126804819D02*
X132785714Y-126804819D01*
X132785714Y-126804819D02*
X132880952Y-126852438D01*
X132880952Y-126852438D02*
X132928571Y-126900057D01*
X132928571Y-126900057D02*
X132976190Y-126995295D01*
X132976190Y-126995295D02*
X133023809Y-127185771D01*
X133023809Y-127185771D02*
X133023809Y-127423866D01*
X133023809Y-127423866D02*
X132976190Y-127614342D01*
X132976190Y-127614342D02*
X132928571Y-127709580D01*
X132928571Y-127709580D02*
X132880952Y-127757200D01*
X132880952Y-127757200D02*
X132785714Y-127804819D01*
X132785714Y-127804819D02*
X132690476Y-127804819D01*
X132690476Y-127804819D02*
X132595238Y-127757200D01*
X132595238Y-127757200D02*
X132547619Y-127709580D01*
X132547619Y-127709580D02*
X132500000Y-127614342D01*
X132500000Y-127614342D02*
X132452381Y-127423866D01*
X132452381Y-127423866D02*
X132452381Y-127185771D01*
X132452381Y-127185771D02*
X132500000Y-126995295D01*
X132500000Y-126995295D02*
X132547619Y-126900057D01*
X132547619Y-126900057D02*
X132595238Y-126852438D01*
X132595238Y-126852438D02*
X132690476Y-126804819D01*
X133880952Y-127138152D02*
X133880952Y-127804819D01*
X133452381Y-127138152D02*
X133452381Y-127661961D01*
X133452381Y-127661961D02*
X133500000Y-127757200D01*
X133500000Y-127757200D02*
X133595238Y-127804819D01*
X133595238Y-127804819D02*
X133738095Y-127804819D01*
X133738095Y-127804819D02*
X133833333Y-127757200D01*
X133833333Y-127757200D02*
X133880952Y-127709580D01*
X134214286Y-127138152D02*
X134595238Y-127138152D01*
X134357143Y-127804819D02*
X134357143Y-126947676D01*
X134357143Y-126947676D02*
X134404762Y-126852438D01*
X134404762Y-126852438D02*
X134500000Y-126804819D01*
X134500000Y-126804819D02*
X134595238Y-126804819D01*
X132357142Y-123359580D02*
X132309523Y-123407200D01*
X132309523Y-123407200D02*
X132166666Y-123454819D01*
X132166666Y-123454819D02*
X132071428Y-123454819D01*
X132071428Y-123454819D02*
X131928571Y-123407200D01*
X131928571Y-123407200D02*
X131833333Y-123311961D01*
X131833333Y-123311961D02*
X131785714Y-123216723D01*
X131785714Y-123216723D02*
X131738095Y-123026247D01*
X131738095Y-123026247D02*
X131738095Y-122883390D01*
X131738095Y-122883390D02*
X131785714Y-122692914D01*
X131785714Y-122692914D02*
X131833333Y-122597676D01*
X131833333Y-122597676D02*
X131928571Y-122502438D01*
X131928571Y-122502438D02*
X132071428Y-122454819D01*
X132071428Y-122454819D02*
X132166666Y-122454819D01*
X132166666Y-122454819D02*
X132309523Y-122502438D01*
X132309523Y-122502438D02*
X132357142Y-122550057D01*
X133309523Y-123454819D02*
X132738095Y-123454819D01*
X133023809Y-123454819D02*
X133023809Y-122454819D01*
X133023809Y-122454819D02*
X132928571Y-122597676D01*
X132928571Y-122597676D02*
X132833333Y-122692914D01*
X132833333Y-122692914D02*
X132738095Y-122740533D01*
X134214285Y-122454819D02*
X133738095Y-122454819D01*
X133738095Y-122454819D02*
X133690476Y-122931009D01*
X133690476Y-122931009D02*
X133738095Y-122883390D01*
X133738095Y-122883390D02*
X133833333Y-122835771D01*
X133833333Y-122835771D02*
X134071428Y-122835771D01*
X134071428Y-122835771D02*
X134166666Y-122883390D01*
X134166666Y-122883390D02*
X134214285Y-122931009D01*
X134214285Y-122931009D02*
X134261904Y-123026247D01*
X134261904Y-123026247D02*
X134261904Y-123264342D01*
X134261904Y-123264342D02*
X134214285Y-123359580D01*
X134214285Y-123359580D02*
X134166666Y-123407200D01*
X134166666Y-123407200D02*
X134071428Y-123454819D01*
X134071428Y-123454819D02*
X133833333Y-123454819D01*
X133833333Y-123454819D02*
X133738095Y-123407200D01*
X133738095Y-123407200D02*
X133690476Y-123359580D01*
X110107143Y-152954819D02*
X110202381Y-152954819D01*
X110202381Y-152954819D02*
X110297619Y-153002438D01*
X110297619Y-153002438D02*
X110345238Y-153050057D01*
X110345238Y-153050057D02*
X110392857Y-153145295D01*
X110392857Y-153145295D02*
X110440476Y-153335771D01*
X110440476Y-153335771D02*
X110440476Y-153573866D01*
X110440476Y-153573866D02*
X110392857Y-153764342D01*
X110392857Y-153764342D02*
X110345238Y-153859580D01*
X110345238Y-153859580D02*
X110297619Y-153907200D01*
X110297619Y-153907200D02*
X110202381Y-153954819D01*
X110202381Y-153954819D02*
X110107143Y-153954819D01*
X110107143Y-153954819D02*
X110011905Y-153907200D01*
X110011905Y-153907200D02*
X109964286Y-153859580D01*
X109964286Y-153859580D02*
X109916667Y-153764342D01*
X109916667Y-153764342D02*
X109869048Y-153573866D01*
X109869048Y-153573866D02*
X109869048Y-153335771D01*
X109869048Y-153335771D02*
X109916667Y-153145295D01*
X109916667Y-153145295D02*
X109964286Y-153050057D01*
X109964286Y-153050057D02*
X110011905Y-153002438D01*
X110011905Y-153002438D02*
X110107143Y-152954819D01*
X110869048Y-153859580D02*
X110916667Y-153907200D01*
X110916667Y-153907200D02*
X110869048Y-153954819D01*
X110869048Y-153954819D02*
X110821429Y-153907200D01*
X110821429Y-153907200D02*
X110869048Y-153859580D01*
X110869048Y-153859580D02*
X110869048Y-153954819D01*
X111869047Y-153954819D02*
X111297619Y-153954819D01*
X111583333Y-153954819D02*
X111583333Y-152954819D01*
X111583333Y-152954819D02*
X111488095Y-153097676D01*
X111488095Y-153097676D02*
X111392857Y-153192914D01*
X111392857Y-153192914D02*
X111297619Y-153240533D01*
X112726190Y-153288152D02*
X112726190Y-153954819D01*
X112297619Y-153288152D02*
X112297619Y-153811961D01*
X112297619Y-153811961D02*
X112345238Y-153907200D01*
X112345238Y-153907200D02*
X112440476Y-153954819D01*
X112440476Y-153954819D02*
X112583333Y-153954819D01*
X112583333Y-153954819D02*
X112678571Y-153907200D01*
X112678571Y-153907200D02*
X112726190Y-153859580D01*
X113535714Y-153431009D02*
X113202381Y-153431009D01*
X113202381Y-153954819D02*
X113202381Y-152954819D01*
X113202381Y-152954819D02*
X113678571Y-152954819D01*
D11*
X114143832Y-152257142D02*
X114162880Y-152276190D01*
X114162880Y-152276190D02*
X114181927Y-152333332D01*
X114181927Y-152333332D02*
X114181927Y-152371428D01*
X114181927Y-152371428D02*
X114162880Y-152428571D01*
X114162880Y-152428571D02*
X114124784Y-152466666D01*
X114124784Y-152466666D02*
X114086689Y-152485713D01*
X114086689Y-152485713D02*
X114010499Y-152504761D01*
X114010499Y-152504761D02*
X113953356Y-152504761D01*
X113953356Y-152504761D02*
X113877165Y-152485713D01*
X113877165Y-152485713D02*
X113839070Y-152466666D01*
X113839070Y-152466666D02*
X113800975Y-152428571D01*
X113800975Y-152428571D02*
X113781927Y-152371428D01*
X113781927Y-152371428D02*
X113781927Y-152333332D01*
X113781927Y-152333332D02*
X113800975Y-152276190D01*
X113800975Y-152276190D02*
X113820022Y-152257142D01*
X114181927Y-151876190D02*
X114181927Y-152104761D01*
X114181927Y-151990475D02*
X113781927Y-151990475D01*
X113781927Y-151990475D02*
X113839070Y-152028571D01*
X113839070Y-152028571D02*
X113877165Y-152066666D01*
X113877165Y-152066666D02*
X113896213Y-152104761D01*
X114181927Y-151685714D02*
X114181927Y-151609523D01*
X114181927Y-151609523D02*
X114162880Y-151571428D01*
X114162880Y-151571428D02*
X114143832Y-151552380D01*
X114143832Y-151552380D02*
X114086689Y-151514285D01*
X114086689Y-151514285D02*
X114010499Y-151495238D01*
X114010499Y-151495238D02*
X113858118Y-151495238D01*
X113858118Y-151495238D02*
X113820022Y-151514285D01*
X113820022Y-151514285D02*
X113800975Y-151533333D01*
X113800975Y-151533333D02*
X113781927Y-151571428D01*
X113781927Y-151571428D02*
X113781927Y-151647619D01*
X113781927Y-151647619D02*
X113800975Y-151685714D01*
X113800975Y-151685714D02*
X113820022Y-151704761D01*
X113820022Y-151704761D02*
X113858118Y-151723809D01*
X113858118Y-151723809D02*
X113953356Y-151723809D01*
X113953356Y-151723809D02*
X113991451Y-151704761D01*
X113991451Y-151704761D02*
X114010499Y-151685714D01*
X114010499Y-151685714D02*
X114029546Y-151647619D01*
X114029546Y-151647619D02*
X114029546Y-151571428D01*
X114029546Y-151571428D02*
X114010499Y-151533333D01*
X114010499Y-151533333D02*
X113991451Y-151514285D01*
X113991451Y-151514285D02*
X113953356Y-151495238D01*
D10*
X139809523Y-128884819D02*
X139238095Y-128884819D01*
X139523809Y-128884819D02*
X139523809Y-127884819D01*
X139523809Y-127884819D02*
X139428571Y-128027676D01*
X139428571Y-128027676D02*
X139333333Y-128122914D01*
X139333333Y-128122914D02*
X139238095Y-128170533D01*
X140428571Y-127884819D02*
X140523809Y-127884819D01*
X140523809Y-127884819D02*
X140619047Y-127932438D01*
X140619047Y-127932438D02*
X140666666Y-127980057D01*
X140666666Y-127980057D02*
X140714285Y-128075295D01*
X140714285Y-128075295D02*
X140761904Y-128265771D01*
X140761904Y-128265771D02*
X140761904Y-128503866D01*
X140761904Y-128503866D02*
X140714285Y-128694342D01*
X140714285Y-128694342D02*
X140666666Y-128789580D01*
X140666666Y-128789580D02*
X140619047Y-128837200D01*
X140619047Y-128837200D02*
X140523809Y-128884819D01*
X140523809Y-128884819D02*
X140428571Y-128884819D01*
X140428571Y-128884819D02*
X140333333Y-128837200D01*
X140333333Y-128837200D02*
X140285714Y-128789580D01*
X140285714Y-128789580D02*
X140238095Y-128694342D01*
X140238095Y-128694342D02*
X140190476Y-128503866D01*
X140190476Y-128503866D02*
X140190476Y-128265771D01*
X140190476Y-128265771D02*
X140238095Y-128075295D01*
X140238095Y-128075295D02*
X140285714Y-127980057D01*
X140285714Y-127980057D02*
X140333333Y-127932438D01*
X140333333Y-127932438D02*
X140428571Y-127884819D01*
X141190476Y-128884819D02*
X141190476Y-127884819D01*
X141761904Y-128884819D02*
X141333333Y-128313390D01*
X141761904Y-127884819D02*
X141190476Y-128456247D01*
D11*
X140242857Y-127181927D02*
X140109524Y-126991451D01*
X140014286Y-127181927D02*
X140014286Y-126781927D01*
X140014286Y-126781927D02*
X140166667Y-126781927D01*
X140166667Y-126781927D02*
X140204762Y-126800975D01*
X140204762Y-126800975D02*
X140223809Y-126820022D01*
X140223809Y-126820022D02*
X140242857Y-126858118D01*
X140242857Y-126858118D02*
X140242857Y-126915260D01*
X140242857Y-126915260D02*
X140223809Y-126953356D01*
X140223809Y-126953356D02*
X140204762Y-126972403D01*
X140204762Y-126972403D02*
X140166667Y-126991451D01*
X140166667Y-126991451D02*
X140014286Y-126991451D01*
X140623809Y-127181927D02*
X140395238Y-127181927D01*
X140509524Y-127181927D02*
X140509524Y-126781927D01*
X140509524Y-126781927D02*
X140471428Y-126839070D01*
X140471428Y-126839070D02*
X140433333Y-126877165D01*
X140433333Y-126877165D02*
X140395238Y-126896213D01*
X140871428Y-126781927D02*
X140909523Y-126781927D01*
X140909523Y-126781927D02*
X140947619Y-126800975D01*
X140947619Y-126800975D02*
X140966666Y-126820022D01*
X140966666Y-126820022D02*
X140985714Y-126858118D01*
X140985714Y-126858118D02*
X141004761Y-126934308D01*
X141004761Y-126934308D02*
X141004761Y-127029546D01*
X141004761Y-127029546D02*
X140985714Y-127105737D01*
X140985714Y-127105737D02*
X140966666Y-127143832D01*
X140966666Y-127143832D02*
X140947619Y-127162880D01*
X140947619Y-127162880D02*
X140909523Y-127181927D01*
X140909523Y-127181927D02*
X140871428Y-127181927D01*
X140871428Y-127181927D02*
X140833333Y-127162880D01*
X140833333Y-127162880D02*
X140814285Y-127143832D01*
X140814285Y-127143832D02*
X140795238Y-127105737D01*
X140795238Y-127105737D02*
X140776190Y-127029546D01*
X140776190Y-127029546D02*
X140776190Y-126934308D01*
X140776190Y-126934308D02*
X140795238Y-126858118D01*
X140795238Y-126858118D02*
X140814285Y-126820022D01*
X140814285Y-126820022D02*
X140833333Y-126800975D01*
X140833333Y-126800975D02*
X140871428Y-126781927D01*
D10*
X139809523Y-138884819D02*
X139238095Y-138884819D01*
X139523809Y-138884819D02*
X139523809Y-137884819D01*
X139523809Y-137884819D02*
X139428571Y-138027676D01*
X139428571Y-138027676D02*
X139333333Y-138122914D01*
X139333333Y-138122914D02*
X139238095Y-138170533D01*
X140428571Y-137884819D02*
X140523809Y-137884819D01*
X140523809Y-137884819D02*
X140619047Y-137932438D01*
X140619047Y-137932438D02*
X140666666Y-137980057D01*
X140666666Y-137980057D02*
X140714285Y-138075295D01*
X140714285Y-138075295D02*
X140761904Y-138265771D01*
X140761904Y-138265771D02*
X140761904Y-138503866D01*
X140761904Y-138503866D02*
X140714285Y-138694342D01*
X140714285Y-138694342D02*
X140666666Y-138789580D01*
X140666666Y-138789580D02*
X140619047Y-138837200D01*
X140619047Y-138837200D02*
X140523809Y-138884819D01*
X140523809Y-138884819D02*
X140428571Y-138884819D01*
X140428571Y-138884819D02*
X140333333Y-138837200D01*
X140333333Y-138837200D02*
X140285714Y-138789580D01*
X140285714Y-138789580D02*
X140238095Y-138694342D01*
X140238095Y-138694342D02*
X140190476Y-138503866D01*
X140190476Y-138503866D02*
X140190476Y-138265771D01*
X140190476Y-138265771D02*
X140238095Y-138075295D01*
X140238095Y-138075295D02*
X140285714Y-137980057D01*
X140285714Y-137980057D02*
X140333333Y-137932438D01*
X140333333Y-137932438D02*
X140428571Y-137884819D01*
X141190476Y-138884819D02*
X141190476Y-137884819D01*
X141761904Y-138884819D02*
X141333333Y-138313390D01*
X141761904Y-137884819D02*
X141190476Y-138456247D01*
D11*
X140242857Y-137181927D02*
X140109524Y-136991451D01*
X140014286Y-137181927D02*
X140014286Y-136781927D01*
X140014286Y-136781927D02*
X140166667Y-136781927D01*
X140166667Y-136781927D02*
X140204762Y-136800975D01*
X140204762Y-136800975D02*
X140223809Y-136820022D01*
X140223809Y-136820022D02*
X140242857Y-136858118D01*
X140242857Y-136858118D02*
X140242857Y-136915260D01*
X140242857Y-136915260D02*
X140223809Y-136953356D01*
X140223809Y-136953356D02*
X140204762Y-136972403D01*
X140204762Y-136972403D02*
X140166667Y-136991451D01*
X140166667Y-136991451D02*
X140014286Y-136991451D01*
X140623809Y-137181927D02*
X140395238Y-137181927D01*
X140509524Y-137181927D02*
X140509524Y-136781927D01*
X140509524Y-136781927D02*
X140471428Y-136839070D01*
X140471428Y-136839070D02*
X140433333Y-136877165D01*
X140433333Y-136877165D02*
X140395238Y-136896213D01*
X141004761Y-137181927D02*
X140776190Y-137181927D01*
X140890476Y-137181927D02*
X140890476Y-136781927D01*
X140890476Y-136781927D02*
X140852380Y-136839070D01*
X140852380Y-136839070D02*
X140814285Y-136877165D01*
X140814285Y-136877165D02*
X140776190Y-136896213D01*
D12*
%TO.C,C1*%
X80200000Y-142100000D02*
X81800000Y-142100000D01*
X80200000Y-142900000D02*
X80200000Y-142100000D01*
X81800000Y-142100000D02*
X81800000Y-142900000D01*
X81800000Y-142900000D02*
X80200000Y-142900000D01*
%TO.C,C7*%
X109950000Y-141100000D02*
X111550000Y-141100000D01*
X109950000Y-141900000D02*
X109950000Y-141100000D01*
X111550000Y-141100000D02*
X111550000Y-141900000D01*
X111550000Y-141900000D02*
X109950000Y-141900000D01*
%TO.C,CON1*%
X145869000Y-131595000D02*
X145869000Y-119595000D01*
X158969000Y-131595000D02*
X145869000Y-131595000D01*
X159869000Y-119595000D02*
X145869000Y-119595000D01*
X159869000Y-130695000D02*
X158969000Y-131595000D01*
X159869000Y-130695000D02*
X159869000Y-119595000D01*
%TO.C,JP1*%
X61190000Y-140190000D02*
X66270000Y-140190000D01*
X61190000Y-155430000D02*
X61190000Y-140190000D01*
X65000000Y-155430000D02*
X61190000Y-155430000D01*
X66270000Y-140190000D02*
X66270000Y-154160000D01*
X66270000Y-154160000D02*
X65000000Y-155430000D01*
%TO.C,P1*%
X60230000Y-162230000D02*
X159290000Y-162230000D01*
X60230000Y-164135000D02*
X60230000Y-162230000D01*
X60865000Y-164770000D02*
X60230000Y-164135000D01*
X159290000Y-162230000D02*
X159290000Y-164770000D01*
X159290000Y-164770000D02*
X60865000Y-164770000D01*
%TO.C,U1*%
X92400000Y-154100000D02*
X80600000Y-154100000D01*
X79600000Y-153100000D01*
X79600000Y-146600000D01*
X92400000Y-146600000D01*
X92400000Y-154100000D01*
%TO.C,C11*%
X120600000Y-129080197D02*
X121400000Y-129080197D01*
X120600000Y-130680197D02*
X120600000Y-129080197D01*
X121400000Y-129080197D02*
X121400000Y-130680197D01*
X121400000Y-130680197D02*
X120600000Y-130680197D01*
%TO.C,C8*%
X104200000Y-129950000D02*
X104200000Y-135550000D01*
X105200000Y-128950000D02*
X104200000Y-129950000D01*
X108830000Y-129545162D02*
X108830000Y-130175162D01*
X109145000Y-129860162D02*
X108515000Y-129860162D01*
X109800000Y-128950000D02*
X105200000Y-128950000D01*
X109800000Y-128950000D02*
X110800000Y-129950000D01*
X110800000Y-129950000D02*
X110800000Y-135550000D01*
X110800000Y-135550000D02*
X104200000Y-135550000D01*
X110650000Y-132250000D02*
G75*
G02*
X104350000Y-132250000I-3150000J0D01*
G01*
X104350000Y-132250000D02*
G75*
G02*
X110650000Y-132250000I3150000J0D01*
G01*
%TO.C,C12*%
X118350000Y-129080197D02*
X119150000Y-129080197D01*
X118350000Y-130680197D02*
X118350000Y-129080197D01*
X119150000Y-129080197D02*
X119150000Y-130680197D01*
X119150000Y-130680197D02*
X118350000Y-130680197D01*
%TO.C,U2*%
X142200000Y-154250000D02*
X127800000Y-154250000D01*
X126800000Y-153250000D01*
X126800000Y-146750000D01*
X142200000Y-146750000D01*
X142200000Y-154250000D01*
%TO.C,C6*%
X123175000Y-155100000D02*
X124775000Y-155100000D01*
X123175000Y-155900000D02*
X123175000Y-155100000D01*
X124775000Y-155100000D02*
X124775000Y-155900000D01*
X124775000Y-155900000D02*
X123175000Y-155900000D01*
%TO.C,Y1*%
X123000000Y-153040000D02*
X117000000Y-153040000D01*
X116000000Y-152040000D01*
X116000000Y-147960000D01*
X123000000Y-147960000D01*
X123000000Y-153040000D01*
%TO.C,U3*%
X123650000Y-140775000D02*
X114350000Y-140775000D01*
X113350000Y-139775000D01*
X113350000Y-136225000D01*
X123650000Y-136225000D01*
X123650000Y-140775000D01*
%TO.C,R6*%
X72200000Y-153587500D02*
X73800000Y-153587500D01*
X72200000Y-154412500D02*
X72200000Y-153587500D01*
X73800000Y-153587500D02*
X73800000Y-154412500D01*
X73800000Y-154412500D02*
X72200000Y-154412500D01*
%TO.C,C9*%
X119600000Y-117675000D02*
X120400000Y-117675000D01*
X119600000Y-119275000D02*
X119600000Y-117675000D01*
X120400000Y-117675000D02*
X120400000Y-119275000D01*
X120400000Y-119275000D02*
X119600000Y-119275000D01*
%TO.C,R5*%
X72200000Y-151087500D02*
X73800000Y-151087500D01*
X72200000Y-151912500D02*
X72200000Y-151087500D01*
X73800000Y-151087500D02*
X73800000Y-151912500D01*
X73800000Y-151912500D02*
X72200000Y-151912500D01*
%TO.C,R8*%
X139700000Y-122587500D02*
X141300000Y-122587500D01*
X139700000Y-123412500D02*
X139700000Y-122587500D01*
X141300000Y-122587500D02*
X141300000Y-123412500D01*
X141300000Y-123412500D02*
X139700000Y-123412500D01*
%TO.C,R7*%
X122337500Y-129130197D02*
X123162500Y-129130197D01*
X122337500Y-130730197D02*
X122337500Y-129130197D01*
X123162500Y-129130197D02*
X123162500Y-130730197D01*
X123162500Y-130730197D02*
X122337500Y-130730197D01*
%TO.C,R9*%
X139700000Y-132587500D02*
X141300000Y-132587500D01*
X139700000Y-133412500D02*
X139700000Y-132587500D01*
X141300000Y-132587500D02*
X141300000Y-133412500D01*
X141300000Y-133412500D02*
X139700000Y-133412500D01*
%TO.C,R3*%
X72200000Y-146087500D02*
X73800000Y-146087500D01*
X72200000Y-146912500D02*
X72200000Y-146087500D01*
X73800000Y-146087500D02*
X73800000Y-146912500D01*
X73800000Y-146912500D02*
X72200000Y-146912500D01*
%TO.C,R1*%
X72200000Y-141087500D02*
X73800000Y-141087500D01*
X72200000Y-141912500D02*
X72200000Y-141087500D01*
X73800000Y-141087500D02*
X73800000Y-141912500D01*
X73800000Y-141912500D02*
X72200000Y-141912500D01*
%TO.C,C10*%
X116900000Y-117700000D02*
X117700000Y-117700000D01*
X116900000Y-119300000D02*
X116900000Y-117700000D01*
X117700000Y-117700000D02*
X117700000Y-119300000D01*
X117700000Y-119300000D02*
X116900000Y-119300000D01*
%TO.C,R2*%
X72200000Y-143587500D02*
X73800000Y-143587500D01*
X72200000Y-144412500D02*
X72200000Y-143587500D01*
X73800000Y-143587500D02*
X73800000Y-144412500D01*
X73800000Y-144412500D02*
X72200000Y-144412500D01*
%TO.C,U4*%
X122962500Y-125967697D02*
X115287500Y-125967697D01*
X114312500Y-124992697D01*
X114312500Y-122067697D01*
X122962500Y-122067697D01*
X122962500Y-125967697D01*
%TO.C,C16*%
X129700000Y-130700000D02*
X129700000Y-135300000D01*
X129700000Y-130700000D02*
X130700000Y-129700000D01*
X129700000Y-135300000D02*
X130700000Y-136300000D01*
X130295162Y-131670000D02*
X130925162Y-131670000D01*
X130610162Y-131355000D02*
X130610162Y-131985000D01*
X130700000Y-129700000D02*
X136300000Y-129700000D01*
X130700000Y-136300000D02*
X136300000Y-136300000D01*
X136300000Y-129700000D02*
X136300000Y-136300000D01*
X136150000Y-133000000D02*
G75*
G02*
X129850000Y-133000000I-3150000J0D01*
G01*
X129850000Y-133000000D02*
G75*
G02*
X136150000Y-133000000I3150000J0D01*
G01*
%TO.C,R4*%
X72200000Y-148587500D02*
X73800000Y-148587500D01*
X72200000Y-149412500D02*
X72200000Y-148587500D01*
X73800000Y-148587500D02*
X73800000Y-149412500D01*
X73800000Y-149412500D02*
X72200000Y-149412500D01*
%TO.C,C5*%
X99200000Y-159300000D02*
X99200000Y-152700000D01*
X104800000Y-152700000D02*
X99200000Y-152700000D01*
X104800000Y-159300000D02*
X99200000Y-159300000D01*
X104889838Y-157645000D02*
X104889838Y-157015000D01*
X105204838Y-157330000D02*
X104574838Y-157330000D01*
X105800000Y-153700000D02*
X104800000Y-152700000D01*
X105800000Y-158300000D02*
X104800000Y-159300000D01*
X105800000Y-158300000D02*
X105800000Y-153700000D01*
X105650000Y-156000000D02*
G75*
G02*
X99350000Y-156000000I-3150000J0D01*
G01*
X99350000Y-156000000D02*
G75*
G02*
X105650000Y-156000000I3150000J0D01*
G01*
%TO.C,C2*%
X99200000Y-148800000D02*
X99200000Y-142200000D01*
X104800000Y-142200000D02*
X99200000Y-142200000D01*
X104800000Y-148800000D02*
X99200000Y-148800000D01*
X104889838Y-147145000D02*
X104889838Y-146515000D01*
X105204838Y-146830000D02*
X104574838Y-146830000D01*
X105800000Y-143200000D02*
X104800000Y-142200000D01*
X105800000Y-147800000D02*
X104800000Y-148800000D01*
X105800000Y-147800000D02*
X105800000Y-143200000D01*
X105650000Y-145500000D02*
G75*
G02*
X99350000Y-145500000I-3150000J0D01*
G01*
X99350000Y-145500000D02*
G75*
G02*
X105650000Y-145500000I3150000J0D01*
G01*
%TO.C,C15*%
X129700000Y-120700000D02*
X129700000Y-125300000D01*
X129700000Y-120700000D02*
X130700000Y-119700000D01*
X129700000Y-125300000D02*
X130700000Y-126300000D01*
X130295162Y-121670000D02*
X130925162Y-121670000D01*
X130610162Y-121355000D02*
X130610162Y-121985000D01*
X130700000Y-119700000D02*
X136300000Y-119700000D01*
X130700000Y-126300000D02*
X136300000Y-126300000D01*
X136300000Y-119700000D02*
X136300000Y-126300000D01*
X136150000Y-123000000D02*
G75*
G02*
X129850000Y-123000000I-3150000J0D01*
G01*
X129850000Y-123000000D02*
G75*
G02*
X136150000Y-123000000I3150000J0D01*
G01*
%TO.C,C19*%
X113600000Y-151200000D02*
X114400000Y-151200000D01*
X113600000Y-152800000D02*
X113600000Y-151200000D01*
X114400000Y-151200000D02*
X114400000Y-152800000D01*
X114400000Y-152800000D02*
X113600000Y-152800000D01*
%TO.C,R10*%
X139700000Y-126587500D02*
X141300000Y-126587500D01*
X139700000Y-127412500D02*
X139700000Y-126587500D01*
X141300000Y-126587500D02*
X141300000Y-127412500D01*
X141300000Y-127412500D02*
X139700000Y-127412500D01*
%TO.C,R11*%
X139700000Y-136587500D02*
X141300000Y-136587500D01*
X139700000Y-137412500D02*
X139700000Y-136587500D01*
X141300000Y-136587500D02*
X141300000Y-137412500D01*
X141300000Y-137412500D02*
X139700000Y-137412500D01*
%TD*%
M02*
