%TF.GenerationSoftware,KiCad,Pcbnew,9.0.1+1*%
%TF.CreationDate,2025-10-09T21:11:35+00:00*%
%TF.ProjectId,rcbus-opl3,72636275-732d-46f7-906c-332e6b696361,@version@*%
%TF.SameCoordinates,Original*%
%TF.FileFunction,Copper,L1,Top*%
%TF.FilePolarity,Positive*%
%FSLAX46Y46*%
G04 Gerber Fmt 4.6, Leading zero omitted, Abs format (unit mm)*
G04 Created by KiCad (PCBNEW 9.0.1+1) date 2025-10-09 21:11:35*
%MOMM*%
%LPD*%
G01*
G04 APERTURE LIST*
G04 Aperture macros list*
%AMRoundRect*
0 Rectangle with rounded corners*
0 $1 Rounding radius*
0 $2 $3 $4 $5 $6 $7 $8 $9 X,Y pos of 4 corners*
0 Add a 4 corners polygon primitive as box body*
4,1,4,$2,$3,$4,$5,$6,$7,$8,$9,$2,$3,0*
0 Add four circle primitives for the rounded corners*
1,1,$1+$1,$2,$3*
1,1,$1+$1,$4,$5*
1,1,$1+$1,$6,$7*
1,1,$1+$1,$8,$9*
0 Add four rect primitives between the rounded corners*
20,1,$1+$1,$2,$3,$4,$5,0*
20,1,$1+$1,$4,$5,$6,$7,0*
20,1,$1+$1,$6,$7,$8,$9,0*
20,1,$1+$1,$8,$9,$2,$3,0*%
G04 Aperture macros list end*
%TA.AperFunction,SMDPad,CuDef*%
%ADD10RoundRect,0.225000X0.225000X0.250000X-0.225000X0.250000X-0.225000X-0.250000X0.225000X-0.250000X0*%
%TD*%
%TA.AperFunction,ComponentPad*%
%ADD11R,2.500000X1.800000*%
%TD*%
%TA.AperFunction,ComponentPad*%
%ADD12R,1.800000X2.500000*%
%TD*%
%TA.AperFunction,ComponentPad*%
%ADD13R,1.700000X1.700000*%
%TD*%
%TA.AperFunction,ComponentPad*%
%ADD14C,1.700000*%
%TD*%
%TA.AperFunction,ComponentPad*%
%ADD15O,1.700000X1.700000*%
%TD*%
%TA.AperFunction,SMDPad,CuDef*%
%ADD16RoundRect,0.150000X0.150000X-0.875000X0.150000X0.875000X-0.150000X0.875000X-0.150000X-0.875000X0*%
%TD*%
%TA.AperFunction,SMDPad,CuDef*%
%ADD17RoundRect,0.225000X-0.250000X0.225000X-0.250000X-0.225000X0.250000X-0.225000X0.250000X0.225000X0*%
%TD*%
%TA.AperFunction,SMDPad,CuDef*%
%ADD18RoundRect,0.250000X1.500000X0.550000X-1.500000X0.550000X-1.500000X-0.550000X1.500000X-0.550000X0*%
%TD*%
%TA.AperFunction,SMDPad,CuDef*%
%ADD19RoundRect,0.225000X0.250000X-0.225000X0.250000X0.225000X-0.250000X0.225000X-0.250000X-0.225000X0*%
%TD*%
%TA.AperFunction,SMDPad,CuDef*%
%ADD20RoundRect,0.137500X-0.862500X-0.137500X0.862500X-0.137500X0.862500X0.137500X-0.862500X0.137500X0*%
%TD*%
%TA.AperFunction,SMDPad,CuDef*%
%ADD21RoundRect,0.250000X0.750000X-0.650000X0.750000X0.650000X-0.750000X0.650000X-0.750000X-0.650000X0*%
%TD*%
%TA.AperFunction,SMDPad,CuDef*%
%ADD22RoundRect,0.150000X0.150000X-0.650000X0.150000X0.650000X-0.150000X0.650000X-0.150000X-0.650000X0*%
%TD*%
%TA.AperFunction,SMDPad,CuDef*%
%ADD23RoundRect,0.200000X-0.200000X-0.275000X0.200000X-0.275000X0.200000X0.275000X-0.200000X0.275000X0*%
%TD*%
%TA.AperFunction,SMDPad,CuDef*%
%ADD24RoundRect,0.225000X-0.225000X-0.250000X0.225000X-0.250000X0.225000X0.250000X-0.225000X0.250000X0*%
%TD*%
%TA.AperFunction,SMDPad,CuDef*%
%ADD25RoundRect,0.200000X0.275000X-0.200000X0.275000X0.200000X-0.275000X0.200000X-0.275000X-0.200000X0*%
%TD*%
%TA.AperFunction,SMDPad,CuDef*%
%ADD26RoundRect,0.150000X0.150000X-0.825000X0.150000X0.825000X-0.150000X0.825000X-0.150000X-0.825000X0*%
%TD*%
%TA.AperFunction,SMDPad,CuDef*%
%ADD27RoundRect,0.250000X-1.500000X-0.550000X1.500000X-0.550000X1.500000X0.550000X-1.500000X0.550000X0*%
%TD*%
%TA.AperFunction,ViaPad*%
%ADD28C,0.685800*%
%TD*%
%TA.AperFunction,Conductor*%
%ADD29C,0.762000*%
%TD*%
%TA.AperFunction,Conductor*%
%ADD30C,0.381000*%
%TD*%
G04 APERTURE END LIST*
D10*
%TO.P,C8,1*%
%TO.N,+5V*%
X80175000Y-142400000D03*
%TO.P,C8,2*%
%TO.N,GND*%
X78625000Y-142400000D03*
%TD*%
%TO.P,C12,1*%
%TO.N,+5V*%
X119100000Y-141700000D03*
%TO.P,C12,2*%
%TO.N,GND*%
X117550000Y-141700000D03*
%TD*%
D11*
%TO.P,CON1,R*%
%TO.N,Net-(CON1-PadR)*%
X148569000Y-130595000D03*
%TO.P,CON1,RN*%
X148569000Y-128095000D03*
D12*
%TO.P,CON1,S*%
%TO.N,GND*%
X153569000Y-125595000D03*
D11*
%TO.P,CON1,T*%
%TO.N,Net-(CON1-PadT)*%
X148569000Y-120595000D03*
%TO.P,CON1,TN*%
X148569000Y-123095000D03*
%TD*%
D13*
%TO.P,JP1,1,Pin_1*%
%TO.N,Net-(JP1-Pin_1)*%
X65000000Y-154160000D03*
D14*
%TO.P,JP1,2,Pin_2*%
%TO.N,+5V*%
X62460000Y-154160000D03*
%TO.P,JP1,3,Pin_3*%
%TO.N,Net-(JP1-Pin_3)*%
X65000000Y-151620000D03*
%TO.P,JP1,4,Pin_4*%
%TO.N,+5V*%
X62460000Y-151620000D03*
%TO.P,JP1,5,Pin_5*%
%TO.N,Net-(JP1-Pin_5)*%
X65000000Y-149080000D03*
%TO.P,JP1,6,Pin_6*%
%TO.N,+5V*%
X62460000Y-149080000D03*
%TO.P,JP1,7,Pin_7*%
%TO.N,Net-(JP1-Pin_7)*%
X65000000Y-146540000D03*
%TO.P,JP1,8,Pin_8*%
%TO.N,+5V*%
X62460000Y-146540000D03*
%TO.P,JP1,9,Pin_9*%
%TO.N,Net-(JP1-Pin_9)*%
X65000000Y-144000000D03*
%TO.P,JP1,10,Pin_10*%
%TO.N,+5V*%
X62460000Y-144000000D03*
%TO.P,JP1,11,Pin_11*%
%TO.N,Net-(JP1-Pin_11)*%
X65000000Y-141460000D03*
%TO.P,JP1,12,Pin_12*%
%TO.N,+5V*%
X62460000Y-141460000D03*
%TD*%
D13*
%TO.P,P1,1,Pin_1*%
%TO.N,unconnected-(P1-Pin_1-Pad1)*%
X61500000Y-163500000D03*
D15*
%TO.P,P1,2,Pin_2*%
%TO.N,unconnected-(P1-Pin_2-Pad2)*%
X64040000Y-163500000D03*
%TO.P,P1,3,Pin_3*%
%TO.N,unconnected-(P1-Pin_3-Pad3)*%
X66580000Y-163500000D03*
%TO.P,P1,4,Pin_4*%
%TO.N,unconnected-(P1-Pin_4-Pad4)*%
X69120000Y-163500000D03*
%TO.P,P1,5,Pin_5*%
%TO.N,unconnected-(P1-Pin_5-Pad5)*%
X71660000Y-163500000D03*
%TO.P,P1,6,Pin_6*%
%TO.N,unconnected-(P1-Pin_6-Pad6)*%
X74200000Y-163500000D03*
%TO.P,P1,7,Pin_7*%
%TO.N,unconnected-(P1-Pin_7-Pad7)*%
X76740000Y-163500000D03*
%TO.P,P1,8,Pin_8*%
%TO.N,unconnected-(P1-Pin_8-Pad8)*%
X79280000Y-163500000D03*
%TO.P,P1,9,Pin_9*%
%TO.N,/A7*%
X81820000Y-163500000D03*
%TO.P,P1,10,Pin_10*%
%TO.N,/A6*%
X84360000Y-163500000D03*
%TO.P,P1,11,Pin_11*%
%TO.N,/A5*%
X86900000Y-163500000D03*
%TO.P,P1,12,Pin_12*%
%TO.N,/A4*%
X89440000Y-163500000D03*
%TO.P,P1,13,Pin_13*%
%TO.N,/A3*%
X91980000Y-163500000D03*
%TO.P,P1,14,Pin_14*%
%TO.N,/A2*%
X94520000Y-163500000D03*
%TO.P,P1,15,Pin_15*%
%TO.N,/A1*%
X97060000Y-163500000D03*
%TO.P,P1,16,Pin_16*%
%TO.N,/A0*%
X99600000Y-163500000D03*
%TO.P,P1,17,Pin_17*%
%TO.N,GND*%
X102140000Y-163500000D03*
%TO.P,P1,18,Pin_18*%
%TO.N,+5V*%
X104680000Y-163500000D03*
%TO.P,P1,19,Pin_19*%
%TO.N,unconnected-(P1-Pin_19-Pad19)*%
X107220000Y-163500000D03*
%TO.P,P1,20,Pin_20*%
%TO.N,/~{RESET}*%
X109760000Y-163500000D03*
%TO.P,P1,21,Pin_21*%
%TO.N,unconnected-(P1-Pin_21-Pad21)*%
X112300000Y-163500000D03*
%TO.P,P1,22,Pin_22*%
%TO.N,/~{INT}*%
X114840000Y-163500000D03*
%TO.P,P1,23,Pin_23*%
%TO.N,unconnected-(P1-Pin_23-Pad23)*%
X117380000Y-163500000D03*
%TO.P,P1,24,Pin_24*%
%TO.N,/~{WR}*%
X119920000Y-163500000D03*
%TO.P,P1,25,Pin_25*%
%TO.N,/~{RD}*%
X122460000Y-163500000D03*
%TO.P,P1,26,Pin_26*%
%TO.N,/~{IORQ}*%
X125000000Y-163500000D03*
%TO.P,P1,27,Pin_27*%
%TO.N,/D0*%
X127540000Y-163500000D03*
%TO.P,P1,28,Pin_28*%
%TO.N,/D1*%
X130080000Y-163500000D03*
%TO.P,P1,29,Pin_29*%
%TO.N,/D2*%
X132620000Y-163500000D03*
%TO.P,P1,30,Pin_30*%
%TO.N,/D3*%
X135160000Y-163500000D03*
%TO.P,P1,31,Pin_31*%
%TO.N,/D4*%
X137700000Y-163500000D03*
%TO.P,P1,32,Pin_32*%
%TO.N,/D5*%
X140240000Y-163500000D03*
%TO.P,P1,33,Pin_33*%
%TO.N,/D6*%
X142780000Y-163500000D03*
%TO.P,P1,34,Pin_34*%
%TO.N,/D7*%
X145320000Y-163500000D03*
%TO.P,P1,35,Pin_35*%
%TO.N,unconnected-(P1-Pin_35-Pad35)*%
X147860000Y-163500000D03*
%TO.P,P1,36,Pin_36*%
%TO.N,unconnected-(P1-Pin_36-Pad36)*%
X150400000Y-163500000D03*
%TO.P,P1,37,Pin_37*%
%TO.N,unconnected-(P1-Pin_37-Pad37)*%
X152940000Y-163500000D03*
%TO.P,P1,38,Pin_38*%
%TO.N,unconnected-(P1-Pin_38-Pad38)*%
X155480000Y-163500000D03*
%TO.P,P1,39,Pin_39*%
%TO.N,unconnected-(P1-Pin_39-Pad39)*%
X158020000Y-163500000D03*
%TD*%
D16*
%TO.P,U3,1,G*%
%TO.N,/~{IORQ}*%
X80550000Y-155000000D03*
%TO.P,U3,2,P0*%
%TO.N,/A7*%
X81820000Y-155000000D03*
%TO.P,U3,3,R0*%
%TO.N,Net-(JP1-Pin_11)*%
X83090000Y-155000000D03*
%TO.P,U3,4,P1*%
%TO.N,/A6*%
X84360000Y-155000000D03*
%TO.P,U3,5,R1*%
%TO.N,Net-(JP1-Pin_9)*%
X85630000Y-155000000D03*
%TO.P,U3,6,P2*%
%TO.N,/A5*%
X86900000Y-155000000D03*
%TO.P,U3,7,R2*%
%TO.N,Net-(JP1-Pin_7)*%
X88170000Y-155000000D03*
%TO.P,U3,8,P3*%
%TO.N,/A4*%
X89440000Y-155000000D03*
%TO.P,U3,9,R3*%
%TO.N,Net-(JP1-Pin_5)*%
X90710000Y-155000000D03*
%TO.P,U3,10,GND*%
%TO.N,GND*%
X91980000Y-155000000D03*
%TO.P,U3,11,P4*%
%TO.N,/A3*%
X91980000Y-145700000D03*
%TO.P,U3,12,R4*%
%TO.N,Net-(JP1-Pin_3)*%
X90710000Y-145700000D03*
%TO.P,U3,13,P5*%
%TO.N,/A2*%
X89440000Y-145700000D03*
%TO.P,U3,14,R5*%
%TO.N,Net-(JP1-Pin_1)*%
X88170000Y-145700000D03*
%TO.P,U3,15,P6*%
%TO.N,GND*%
X86900000Y-145700000D03*
%TO.P,U3,16,R6*%
X85630000Y-145700000D03*
%TO.P,U3,17,P7*%
X84360000Y-145700000D03*
%TO.P,U3,18,R7*%
X83090000Y-145700000D03*
%TO.P,U3,19,P=R*%
%TO.N,/~{CS}*%
X81820000Y-145700000D03*
%TO.P,U3,20,VCC*%
%TO.N,+5V*%
X80550000Y-145700000D03*
%TD*%
D17*
%TO.P,C6,1*%
%TO.N,Net-(U1-AOUT)*%
X123900000Y-127925000D03*
%TO.P,C6,2*%
%TO.N,GND*%
X123900000Y-129475000D03*
%TD*%
D18*
%TO.P,C1,1*%
%TO.N,Net-(U1-CV)*%
X114200000Y-127800000D03*
%TO.P,C1,2*%
%TO.N,GND*%
X108800000Y-127800000D03*
%TD*%
D19*
%TO.P,C5,1*%
%TO.N,+5V*%
X117200000Y-122175000D03*
%TO.P,C5,2*%
%TO.N,GND*%
X117200000Y-120625000D03*
%TD*%
D20*
%TO.P,U4,1,VDD*%
%TO.N,+5V*%
X127350000Y-144015000D03*
%TO.P,U4,2,~{IRQ}*%
%TO.N,unconnected-(U4-~{IRQ}-Pad2)*%
X127350000Y-145285000D03*
%TO.P,U4,3,~{IC}*%
%TO.N,/~{RESET}*%
X127350000Y-146555000D03*
%TO.P,U4,4,A_{0}*%
%TO.N,/A0*%
X127350000Y-147825000D03*
%TO.P,U4,5,A_{1}*%
%TO.N,/A1*%
X127350000Y-149095000D03*
%TO.P,U4,6,~{WR}*%
%TO.N,/~{WR}*%
X127350000Y-150365000D03*
%TO.P,U4,7,~{RD}*%
%TO.N,/~{RD}*%
X127350000Y-151635000D03*
%TO.P,U4,8,~{CS}*%
%TO.N,/~{CS}*%
X127350000Y-152905000D03*
%TO.P,U4,9,TEST*%
%TO.N,unconnected-(U4-TEST-Pad9)*%
X127350000Y-154175000D03*
%TO.P,U4,10,D_{0}*%
%TO.N,/D0*%
X127350000Y-155445000D03*
%TO.P,U4,11,D_{1}*%
%TO.N,/D1*%
X127350000Y-156715000D03*
%TO.P,U4,12,GND*%
%TO.N,GND*%
X127350000Y-157985000D03*
%TO.P,U4,13,D_{2}*%
%TO.N,/D2*%
X136650000Y-157985000D03*
%TO.P,U4,14,D_{3}*%
%TO.N,/D3*%
X136650000Y-156715000D03*
%TO.P,U4,15,D_{4}*%
%TO.N,/D4*%
X136650000Y-155445000D03*
%TO.P,U4,16,D_{5}*%
%TO.N,/D5*%
X136650000Y-154175000D03*
%TO.P,U4,17,D_{6}*%
%TO.N,/D6*%
X136650000Y-152905000D03*
%TO.P,U4,18,D_{7}*%
%TO.N,/D7*%
X136650000Y-151635000D03*
%TO.P,U4,19,SMPBD*%
%TO.N,/SMPBD*%
X136650000Y-150365000D03*
%TO.P,U4,20,SMPAC*%
%TO.N,/SMPAC*%
X136650000Y-149095000D03*
%TO.P,U4,21,DOAB*%
%TO.N,/DOAB*%
X136650000Y-147825000D03*
%TO.P,U4,22,DOCD*%
%TO.N,unconnected-(U4-DOCD-Pad22)*%
X136650000Y-146555000D03*
%TO.P,U4,23,\u03A6SY*%
%TO.N,/DAC_CLK*%
X136650000Y-145285000D03*
%TO.P,U4,24,\u03A6M*%
%TO.N,/CLK*%
X136650000Y-144015000D03*
%TD*%
D10*
%TO.P,C11,1*%
%TO.N,+5V*%
X124275000Y-144000000D03*
%TO.P,C11,2*%
%TO.N,GND*%
X122725000Y-144000000D03*
%TD*%
D21*
%TO.P,Y1,1,EN*%
%TO.N,+5V*%
X146500000Y-149040000D03*
%TO.P,Y1,2,GND*%
%TO.N,GND*%
X146500000Y-143960000D03*
%TO.P,Y1,3,OUT*%
%TO.N,/CLK*%
X142500000Y-143960000D03*
%TO.P,Y1,4,Vdd*%
%TO.N,+5V*%
X142500000Y-149040000D03*
%TD*%
D22*
%TO.P,U2,1,VDD*%
%TO.N,+5V*%
X119150000Y-139000000D03*
%TO.P,U2,2,GND*%
%TO.N,GND*%
X120420000Y-139000000D03*
%TO.P,U2,3,VDD*%
%TO.N,+5V*%
X121690000Y-139000000D03*
%TO.P,U2,4,DIN*%
%TO.N,/DOAB*%
X122960000Y-139000000D03*
%TO.P,U2,5,CLK*%
%TO.N,/DAC_CLK*%
X124230000Y-139000000D03*
%TO.P,U2,6,FSEL*%
%TO.N,+5V*%
X125500000Y-139000000D03*
%TO.P,U2,7,SMP2*%
%TO.N,/SMPBD*%
X126770000Y-139000000D03*
%TO.P,U2,8,SMP1*%
%TO.N,/SMPAC*%
X128040000Y-139000000D03*
%TO.P,U2,9,TST1*%
%TO.N,+5V*%
X128040000Y-132500000D03*
%TO.P,U2,10,CH1*%
%TO.N,/AUDIO_CH1*%
X126770000Y-132500000D03*
%TO.P,U2,11,CH2*%
%TO.N,/AUDIO_CH2*%
X125500000Y-132500000D03*
%TO.P,U2,12,SWIN*%
%TO.N,Net-(U1-SWIN)*%
X124230000Y-132500000D03*
%TO.P,U2,13,AOUT*%
%TO.N,Net-(U1-AOUT)*%
X122960000Y-132500000D03*
%TO.P,U2,14,MP*%
%TO.N,Net-(U1-MP)*%
X121690000Y-132500000D03*
%TO.P,U2,15,TST2*%
%TO.N,unconnected-(U1-TST2-Pad15)*%
X120420000Y-132500000D03*
%TO.P,U2,16,CV*%
%TO.N,Net-(U1-CV)*%
X119150000Y-132500000D03*
%TD*%
D23*
%TO.P,R11,1*%
%TO.N,Net-(JP1-Pin_1)*%
X72175000Y-154000000D03*
%TO.P,R11,2*%
%TO.N,GND*%
X73825000Y-154000000D03*
%TD*%
D24*
%TO.P,C4,1*%
%TO.N,/AUDIO_CH1*%
X126325000Y-118000000D03*
%TO.P,C4,2*%
%TO.N,GND*%
X127875000Y-118000000D03*
%TD*%
D23*
%TO.P,R7,1*%
%TO.N,Net-(JP1-Pin_3)*%
X72175000Y-151500000D03*
%TO.P,R7,2*%
%TO.N,GND*%
X73825000Y-151500000D03*
%TD*%
%TO.P,R3,1*%
%TO.N,Net-(C7-Pad2)*%
X142575000Y-120595000D03*
%TO.P,R3,2*%
%TO.N,Net-(CON1-PadT)*%
X144225000Y-120595000D03*
%TD*%
D25*
%TO.P,R1,1*%
%TO.N,Net-(U1-SWIN)*%
X125900000Y-129525000D03*
%TO.P,R1,2*%
%TO.N,Net-(U2B--)*%
X125900000Y-127875000D03*
%TD*%
D23*
%TO.P,R4,1*%
%TO.N,Net-(C6-Pad2)*%
X142575000Y-130595000D03*
%TO.P,R4,2*%
%TO.N,Net-(CON1-PadR)*%
X144225000Y-130595000D03*
%TD*%
%TO.P,R10,1*%
%TO.N,Net-(JP1-Pin_7)*%
X72175000Y-146500000D03*
%TO.P,R10,2*%
%TO.N,GND*%
X73825000Y-146500000D03*
%TD*%
%TO.P,R9,1*%
%TO.N,Net-(JP1-Pin_11)*%
X72175000Y-141500000D03*
%TO.P,R9,2*%
%TO.N,GND*%
X73825000Y-141500000D03*
%TD*%
D24*
%TO.P,C3,1*%
%TO.N,/AUDIO_CH2*%
X122450000Y-118000000D03*
%TO.P,C3,2*%
%TO.N,GND*%
X124000000Y-118000000D03*
%TD*%
D23*
%TO.P,R8,1*%
%TO.N,Net-(JP1-Pin_9)*%
X72175000Y-144000000D03*
%TO.P,R8,2*%
%TO.N,GND*%
X73825000Y-144000000D03*
%TD*%
D26*
%TO.P,U1,1*%
%TO.N,Net-(U1-MP)*%
X119690000Y-125512022D03*
%TO.P,U1,2,-*%
X120960000Y-125512022D03*
%TO.P,U1,3,+*%
%TO.N,Net-(U1-CV)*%
X122230000Y-125512022D03*
%TO.P,U1,4,V+*%
%TO.N,+5V*%
X123500000Y-125512022D03*
%TO.P,U1,5,+*%
%TO.N,Net-(U1-AOUT)*%
X124770000Y-125512022D03*
%TO.P,U1,6,-*%
%TO.N,Net-(U2B--)*%
X126040000Y-125512022D03*
%TO.P,U1,7*%
X127310000Y-125512022D03*
%TO.P,U1,8*%
%TO.N,/R*%
X127310000Y-120562022D03*
%TO.P,U1,9,-*%
X126040000Y-120562022D03*
%TO.P,U1,10,+*%
%TO.N,/AUDIO_CH1*%
X124770000Y-120562022D03*
%TO.P,U1,11,V-*%
%TO.N,GND*%
X123500000Y-120562022D03*
%TO.P,U1,12,+*%
%TO.N,/AUDIO_CH2*%
X122230000Y-120562022D03*
%TO.P,U1,13,-*%
%TO.N,/L*%
X120960000Y-120562022D03*
%TO.P,U1,14*%
X119690000Y-120562022D03*
%TD*%
D27*
%TO.P,C2,1*%
%TO.N,/R*%
X133200000Y-130595000D03*
%TO.P,C2,2*%
%TO.N,Net-(C6-Pad2)*%
X138600000Y-130595000D03*
%TD*%
D23*
%TO.P,R6,1*%
%TO.N,Net-(JP1-Pin_5)*%
X72175000Y-149000000D03*
%TO.P,R6,2*%
%TO.N,GND*%
X73825000Y-149000000D03*
%TD*%
D18*
%TO.P,C9,1*%
%TO.N,+5V*%
X105200000Y-156000000D03*
%TO.P,C9,2*%
%TO.N,GND*%
X99800000Y-156000000D03*
%TD*%
%TO.P,C10,1*%
%TO.N,+5V*%
X105200000Y-145500000D03*
%TO.P,C10,2*%
%TO.N,GND*%
X99800000Y-145500000D03*
%TD*%
D27*
%TO.P,C7,1*%
%TO.N,/L*%
X133200000Y-120595000D03*
%TO.P,C7,2*%
%TO.N,Net-(C7-Pad2)*%
X138600000Y-120595000D03*
%TD*%
D24*
%TO.P,C13,1*%
%TO.N,+5V*%
X149589000Y-149026000D03*
%TO.P,C13,2*%
%TO.N,GND*%
X151139000Y-149026000D03*
%TD*%
D23*
%TO.P,R2,1*%
%TO.N,GND*%
X142575000Y-124595000D03*
%TO.P,R2,2*%
%TO.N,Net-(CON1-PadT)*%
X144225000Y-124595000D03*
%TD*%
%TO.P,R5,1*%
%TO.N,GND*%
X142575000Y-134790000D03*
%TO.P,R5,2*%
%TO.N,Net-(CON1-PadR)*%
X144225000Y-134790000D03*
%TD*%
D28*
%TO.N,+5V*%
X105384986Y-157100000D03*
%TO.N,GND*%
X113500000Y-147500000D03*
X154750000Y-137900000D03*
X74800000Y-151500000D03*
X147250000Y-137900000D03*
X129100000Y-157985000D03*
X120400000Y-137600000D03*
X109750000Y-137900000D03*
X102250000Y-152500000D03*
X94750000Y-137900000D03*
X74900000Y-154000000D03*
X83500000Y-130600000D03*
X128500000Y-159800000D03*
X121000000Y-147500000D03*
X85600000Y-144100000D03*
X74800000Y-144000000D03*
X68500000Y-130600000D03*
X109750000Y-152500000D03*
X117250000Y-137900000D03*
X117200000Y-119600000D03*
X113500000Y-130600000D03*
X139750000Y-137900000D03*
X72250000Y-123300000D03*
X123728912Y-130309638D03*
X97735952Y-145500000D03*
X143500000Y-116000000D03*
X102250000Y-137900000D03*
X68500000Y-159800000D03*
X139750000Y-123300000D03*
X61000000Y-130600000D03*
X87250000Y-137900000D03*
X151000000Y-145200000D03*
X130000000Y-147500000D03*
X76000000Y-116000000D03*
X77800000Y-142400000D03*
X76000000Y-159800000D03*
X79750000Y-137900000D03*
X158500000Y-145200000D03*
X97796157Y-156000000D03*
X98500000Y-141500000D03*
X136000000Y-130600000D03*
X154750000Y-123300000D03*
X132250000Y-152500000D03*
X98500000Y-116000000D03*
X116600000Y-141700000D03*
X98500000Y-152500000D03*
X136000000Y-116000000D03*
X61000000Y-159800000D03*
X102250000Y-123300000D03*
X123499999Y-121232925D03*
X158500000Y-159800000D03*
X107000000Y-147500000D03*
X151000000Y-130600000D03*
X116500000Y-124000000D03*
X139750000Y-147500000D03*
X83500000Y-141500000D03*
X158500000Y-130600000D03*
X64750000Y-137900000D03*
X113500000Y-116000000D03*
X74800000Y-146500000D03*
X91000000Y-116000000D03*
X76000000Y-130600000D03*
X74800000Y-141500000D03*
X83500000Y-116000000D03*
X110000000Y-124000000D03*
X151000000Y-159800000D03*
X79750000Y-123300000D03*
X132250000Y-137900000D03*
X141600000Y-134800000D03*
X106500000Y-141500000D03*
X106500000Y-127800000D03*
X151000000Y-116000000D03*
X121800000Y-144000000D03*
X91000000Y-130600000D03*
X92000000Y-156512600D03*
X87250000Y-123300000D03*
X74800000Y-149000000D03*
X128800000Y-118000000D03*
X106000000Y-116000000D03*
X98500000Y-130600000D03*
X141600000Y-124600000D03*
X144500000Y-145200000D03*
X154750000Y-152500000D03*
X72250000Y-137900000D03*
X94750000Y-123300000D03*
X147250000Y-152500000D03*
X91000000Y-141500000D03*
%TO.N,/A1*%
X101000000Y-161722400D03*
%TO.N,/~{CS}*%
X125700000Y-152900000D03*
X116400000Y-153000000D03*
%TO.N,/~{RESET}*%
X111979883Y-157612600D03*
%TO.N,/~{IORQ}*%
X87500000Y-152800000D03*
X95700000Y-157500000D03*
X115700000Y-158500000D03*
%TO.N,/DOAB*%
X125733318Y-137359891D03*
X123196600Y-137317721D03*
%TO.N,Net-(JP1-Pin_1)*%
X86500000Y-151500000D03*
X87550000Y-147450000D03*
%TO.N,Net-(JP1-Pin_9)*%
X85000000Y-147500000D03*
X85630000Y-153681000D03*
%TO.N,Net-(JP1-Pin_11)*%
X83100000Y-153681000D03*
X79200000Y-146400000D03*
%TO.N,Net-(JP1-Pin_3)*%
X88100000Y-151000000D03*
X90709999Y-147418096D03*
%TO.N,Net-(JP1-Pin_5)*%
X91300000Y-151200000D03*
X89131759Y-151631759D03*
%TD*%
D29*
%TO.N,+5V*%
X105200000Y-145500000D02*
X108000000Y-145500000D01*
X105200000Y-145500000D02*
X105200000Y-139500000D01*
X117200000Y-122175000D02*
X109125000Y-122175000D01*
X149589000Y-142089000D02*
X149589000Y-149026000D01*
D30*
X117200000Y-122175000D02*
X117253522Y-122228522D01*
D29*
X80175000Y-142400000D02*
X80175000Y-139525000D01*
X131700000Y-135200000D02*
X135900000Y-139400000D01*
D30*
X121690000Y-140210000D02*
X121690000Y-139000000D01*
D29*
X62460000Y-141460000D02*
X62460000Y-140540000D01*
D30*
X119150000Y-140500000D02*
X121100000Y-140500000D01*
D29*
X142500000Y-149040000D02*
X146500000Y-149040000D01*
D30*
X121375858Y-122228522D02*
X123500000Y-124352664D01*
D29*
X109125000Y-122175000D02*
X105200000Y-126100000D01*
X131650000Y-135200000D02*
X118100000Y-135200000D01*
D30*
X123500000Y-124352664D02*
X123500000Y-125512022D01*
X121100000Y-140500000D02*
X124799999Y-140500000D01*
D29*
X135900000Y-139400000D02*
X146900000Y-139400000D01*
D30*
X119150000Y-139000000D02*
X119150000Y-140500000D01*
X121100000Y-140500000D02*
X121400000Y-140500000D01*
D29*
X105000000Y-156715014D02*
X105000000Y-156200000D01*
D30*
X128040000Y-132500000D02*
X128040000Y-135160000D01*
D29*
X80200000Y-139500000D02*
X105200000Y-139500000D01*
D30*
X125500000Y-139799999D02*
X125500000Y-139000000D01*
X80225000Y-143471000D02*
X80550000Y-143796000D01*
D29*
X114800000Y-138500000D02*
X114800000Y-145500000D01*
X62460000Y-140540000D02*
X63500000Y-139500000D01*
X146900000Y-139400000D02*
X149589000Y-142089000D01*
D30*
X119150000Y-140500000D02*
X119150000Y-141650000D01*
X80225000Y-142500000D02*
X80225000Y-143471000D01*
D29*
X105200000Y-156000000D02*
X105200000Y-145500000D01*
X123800000Y-145500000D02*
X124275000Y-145025000D01*
X63500000Y-139500000D02*
X80200000Y-139500000D01*
X131650000Y-135200000D02*
X131700000Y-135200000D01*
X124275000Y-145025000D02*
X124275000Y-144000000D01*
X118100000Y-135200000D02*
X114800000Y-138500000D01*
X128000000Y-135200000D02*
X131650000Y-135200000D01*
D30*
X124799999Y-140500000D02*
X125500000Y-139799999D01*
D29*
X80175000Y-139525000D02*
X80200000Y-139500000D01*
X149589000Y-149026000D02*
X146514000Y-149026000D01*
D30*
X127350000Y-144015000D02*
X124290000Y-144015000D01*
X128040000Y-135160000D02*
X128000000Y-135200000D01*
X80550000Y-143796000D02*
X80550000Y-145700000D01*
D29*
X62460000Y-154540000D02*
X62460000Y-141840000D01*
D30*
X121400000Y-140500000D02*
X121690000Y-140210000D01*
D29*
X105384986Y-157100000D02*
X105000000Y-156715014D01*
X105200000Y-126100000D02*
X105200000Y-139500000D01*
X119100000Y-141700000D02*
X119100000Y-145400000D01*
X119100000Y-145400000D02*
X119000000Y-145500000D01*
X114800000Y-145500000D02*
X119000000Y-145500000D01*
X108000000Y-145500000D02*
X114800000Y-145500000D01*
D30*
X117253522Y-122228522D02*
X121375858Y-122228522D01*
D29*
X119000000Y-145500000D02*
X123800000Y-145500000D01*
D30*
%TO.N,GND*%
X73825000Y-151500000D02*
X74800000Y-151500000D01*
X108800000Y-127800000D02*
X106500000Y-127800000D01*
X73825000Y-149000000D02*
X74800000Y-149000000D01*
X123919275Y-129919275D02*
X123900000Y-129900000D01*
X127875000Y-118000000D02*
X128800000Y-118000000D01*
X124000000Y-119087023D02*
X124000000Y-118000000D01*
X120420000Y-137620000D02*
X120400000Y-137600000D01*
X74800000Y-144000000D02*
X73825000Y-144000000D01*
X123900000Y-129900000D02*
X123900000Y-129475000D01*
X123919275Y-130119275D02*
X123919275Y-129919275D01*
X141605000Y-124595000D02*
X141600000Y-124600000D01*
X85630000Y-144130000D02*
X85600000Y-144100000D01*
X73825000Y-154000000D02*
X74900000Y-154000000D01*
X91980000Y-156492600D02*
X92000000Y-156512600D01*
X123500000Y-119587023D02*
X124000000Y-119087023D01*
X117200000Y-120625000D02*
X117200000Y-119600000D01*
X123728912Y-130309638D02*
X123919275Y-130119275D01*
X117550000Y-141700000D02*
X116600000Y-141700000D01*
X142575000Y-124595000D02*
X141605000Y-124595000D01*
X123500000Y-120562022D02*
X123500000Y-119587023D01*
X120420000Y-139000000D02*
X120420000Y-137620000D01*
X73825000Y-141500000D02*
X74800000Y-141500000D01*
X83090000Y-145700000D02*
X86900000Y-145700000D01*
X85630000Y-145700000D02*
X85630000Y-144130000D01*
X73825000Y-146500000D02*
X74800000Y-146500000D01*
X97796157Y-156000000D02*
X99800000Y-156000000D01*
X91980000Y-155000000D02*
X91980000Y-156492600D01*
X99800000Y-145500000D02*
X97735952Y-145500000D01*
X142575000Y-134790000D02*
X141610000Y-134790000D01*
X129100000Y-157985000D02*
X127350000Y-157985000D01*
X78625000Y-142400000D02*
X77800000Y-142400000D01*
X141610000Y-134790000D02*
X141600000Y-134800000D01*
X122725000Y-144000000D02*
X121800000Y-144000000D01*
%TO.N,/CLK*%
X136650000Y-144015000D02*
X142445000Y-144015000D01*
%TO.N,/D0*%
X123900000Y-157000000D02*
X123900000Y-159860000D01*
X123900000Y-159860000D02*
X127540000Y-163500000D01*
X127350000Y-155445000D02*
X125455000Y-155445000D01*
X125455000Y-155445000D02*
X123900000Y-157000000D01*
%TO.N,/D1*%
X125500000Y-158900000D02*
X130080000Y-163480000D01*
X125500000Y-157565001D02*
X125500000Y-158900000D01*
X127350000Y-156715000D02*
X126350001Y-156715000D01*
X126350001Y-156715000D02*
X125500000Y-157565001D01*
%TO.N,/D2*%
X134715000Y-157985000D02*
X132620000Y-160080000D01*
X132620000Y-160080000D02*
X132620000Y-163500000D01*
X136650000Y-157985000D02*
X134715000Y-157985000D01*
%TO.N,/D3*%
X138400000Y-157400000D02*
X138400000Y-159000000D01*
X137715000Y-156715000D02*
X138400000Y-157400000D01*
X137400000Y-160000000D02*
X136800000Y-160000000D01*
X136800000Y-160000000D02*
X135160000Y-161640000D01*
X137208298Y-156715000D02*
X137715000Y-156715000D01*
X138400000Y-159000000D02*
X137400000Y-160000000D01*
X135160000Y-161640000D02*
X135160000Y-163500000D01*
%TO.N,/D4*%
X136650000Y-155445000D02*
X138045000Y-155445000D01*
X137700000Y-161550000D02*
X137700000Y-163500000D01*
X139300000Y-156700000D02*
X139300000Y-159950000D01*
X139300000Y-159950000D02*
X137700000Y-161550000D01*
X138045000Y-155445000D02*
X139300000Y-156700000D01*
%TO.N,/D5*%
X136650000Y-154175000D02*
X138275000Y-154175000D01*
X138275000Y-154175000D02*
X140240000Y-156140000D01*
X140240000Y-156140000D02*
X140240000Y-163500000D01*
%TO.N,/D6*%
X136650000Y-152905000D02*
X138505000Y-152905000D01*
X138505000Y-152905000D02*
X142780000Y-157180000D01*
X142780000Y-157180000D02*
X142780000Y-163500000D01*
%TO.N,/D7*%
X138735000Y-151635000D02*
X145320000Y-158220000D01*
X145320000Y-158220000D02*
X145320000Y-163500000D01*
X136650000Y-151635000D02*
X138735000Y-151635000D01*
%TO.N,/A1*%
X115877600Y-161722400D02*
X118500000Y-159100000D01*
X101000000Y-161722400D02*
X115877600Y-161722400D01*
X118500000Y-159100000D02*
X118500000Y-155600000D01*
X118500000Y-155600000D02*
X125005000Y-149095000D01*
X125005000Y-149095000D02*
X127350000Y-149095000D01*
%TO.N,/A4*%
X89440000Y-155000000D02*
X89440000Y-163500000D01*
%TO.N,/A3*%
X92600000Y-145700000D02*
X93100000Y-146200000D01*
X91980000Y-145700000D02*
X92600000Y-145700000D01*
X93100000Y-158500000D02*
X91980000Y-159620000D01*
X91980000Y-159620000D02*
X91980000Y-163500000D01*
X93100000Y-146200000D02*
X93100000Y-158500000D01*
%TO.N,/A2*%
X90215001Y-143900000D02*
X92437889Y-143900000D01*
X92437889Y-143900000D02*
X94500000Y-145962111D01*
X94500000Y-145962111D02*
X94500000Y-163480000D01*
X89440000Y-144675001D02*
X90215001Y-143900000D01*
X89440000Y-145700000D02*
X89440000Y-144675001D01*
%TO.N,/A5*%
X86900000Y-155000000D02*
X86900000Y-163500000D01*
%TO.N,/A6*%
X84360000Y-155000000D02*
X84360000Y-163500000D01*
%TO.N,/A7*%
X81820000Y-155000000D02*
X81820000Y-163500000D01*
%TO.N,/A0*%
X117200000Y-155300000D02*
X124675000Y-147825000D01*
X99600000Y-163500000D02*
X99600000Y-161598960D01*
X99600000Y-161598960D02*
X100698960Y-160500000D01*
X117200000Y-158513552D02*
X117200000Y-155300000D01*
X115213552Y-160500000D02*
X117200000Y-158513552D01*
X100698960Y-160500000D02*
X115213552Y-160500000D01*
X124675000Y-147825000D02*
X127350000Y-147825000D01*
%TO.N,/~{CS}*%
X95850000Y-155750000D02*
X98400000Y-158300000D01*
X125700000Y-152900000D02*
X127345000Y-152900000D01*
X114900000Y-153000000D02*
X116400000Y-153000000D01*
X81820000Y-145700000D02*
X81820000Y-144410001D01*
X95850000Y-145750000D02*
X95850000Y-155750000D01*
X81820000Y-144410001D02*
X83430001Y-142800000D01*
X83430001Y-142800000D02*
X92900000Y-142800000D01*
X109600000Y-158300000D02*
X114900000Y-153000000D01*
X98400000Y-158300000D02*
X109600000Y-158300000D01*
X92900000Y-142800000D02*
X95850000Y-145750000D01*
%TO.N,/~{RESET}*%
X127350000Y-146555000D02*
X124345000Y-146555000D01*
X124345000Y-146555000D02*
X113287400Y-157612600D01*
X113287400Y-157612600D02*
X111979883Y-157612600D01*
%TO.N,/~{WR}*%
X119920000Y-155580000D02*
X119920000Y-163500000D01*
X125135000Y-150365000D02*
X119920000Y-155580000D01*
X127350000Y-150365000D02*
X125135000Y-150365000D01*
%TO.N,/~{IORQ}*%
X97600000Y-159400000D02*
X114800000Y-159400000D01*
X81774340Y-152600000D02*
X87300000Y-152600000D01*
X95700000Y-157500000D02*
X97600000Y-159400000D01*
X114800000Y-159400000D02*
X115700000Y-158500000D01*
X80550000Y-155000000D02*
X80550000Y-153824340D01*
X80550000Y-153824340D02*
X81774340Y-152600000D01*
X87300000Y-152600000D02*
X87500000Y-152800000D01*
%TO.N,/~{RD}*%
X122460000Y-154633224D02*
X122460000Y-163500000D01*
X127350000Y-151635000D02*
X125458224Y-151635000D01*
X125458224Y-151635000D02*
X122460000Y-154633224D01*
%TO.N,/DAC_CLK*%
X124919025Y-136323700D02*
X124230000Y-137012725D01*
X136650000Y-145285000D02*
X135650001Y-145285000D01*
X130581000Y-140215999D02*
X130581000Y-137781000D01*
X135650001Y-145285000D02*
X130581000Y-140215999D01*
X130581000Y-137781000D02*
X129123700Y-136323700D01*
X129123700Y-136323700D02*
X124919025Y-136323700D01*
X124230000Y-137012725D02*
X124230000Y-139000000D01*
%TO.N,/R*%
X133200000Y-125503948D02*
X133200000Y-130400000D01*
X128258074Y-120562022D02*
X133200000Y-125503948D01*
X127310000Y-120562022D02*
X128258074Y-120562022D01*
X127310000Y-120562022D02*
X126040000Y-120562022D01*
%TO.N,/L*%
X120960000Y-120562022D02*
X120960000Y-119019325D01*
X121250000Y-116750000D02*
X129750000Y-116750000D01*
X119862500Y-119019325D02*
X120960000Y-119019325D01*
X119690000Y-120562022D02*
X119690000Y-119191825D01*
X131095000Y-120595000D02*
X133200000Y-120595000D01*
X130500000Y-117500000D02*
X130500000Y-120000000D01*
X119690000Y-119191825D02*
X119862500Y-119019325D01*
X120960000Y-119019325D02*
X120960000Y-117040000D01*
X129750000Y-116750000D02*
X130500000Y-117500000D01*
X120960000Y-117040000D02*
X121250000Y-116750000D01*
X130500000Y-120000000D02*
X131095000Y-120595000D01*
%TO.N,Net-(U1-CV)*%
X119150000Y-132500000D02*
X117700000Y-131050000D01*
X122230000Y-124330000D02*
X122230000Y-125512022D01*
X121400000Y-123500000D02*
X122230000Y-124330000D01*
X117700000Y-124500000D02*
X118700000Y-123500000D01*
X117700000Y-127800000D02*
X117700000Y-124500000D01*
X118700000Y-123500000D02*
X121400000Y-123500000D01*
X114200000Y-127800000D02*
X117700000Y-127800000D01*
X117700000Y-131050000D02*
X117700000Y-127800000D01*
%TO.N,/SMPBD*%
X126770000Y-139000000D02*
X126770000Y-140870000D01*
X126770000Y-140870000D02*
X129038000Y-143138000D01*
X129038000Y-143138000D02*
X129038000Y-143752999D01*
X129038000Y-143752999D02*
X135650001Y-150365000D01*
X135650001Y-150365000D02*
X136650000Y-150365000D01*
%TO.N,/DOAB*%
X122960000Y-139000000D02*
X122960000Y-137554321D01*
X136650000Y-147825000D02*
X135725000Y-147825000D01*
X130803500Y-141703500D02*
X129031500Y-139931500D01*
X130803500Y-142903500D02*
X130803500Y-141703500D01*
X128334216Y-137300000D02*
X125793209Y-137300000D01*
X135725000Y-147825000D02*
X130803500Y-142903500D01*
X122960000Y-137554321D02*
X123196600Y-137317721D01*
X129031500Y-139931500D02*
X129031500Y-137997284D01*
X129031500Y-137997284D02*
X128334216Y-137300000D01*
X125793209Y-137300000D02*
X125733318Y-137359891D01*
%TO.N,/SMPAC*%
X129919000Y-142464922D02*
X129919000Y-143363999D01*
X128040000Y-140585922D02*
X129919000Y-142464922D01*
X128040000Y-139000000D02*
X128040000Y-140585922D01*
X129919000Y-143363999D02*
X135650001Y-149095000D01*
X135650001Y-149095000D02*
X136650000Y-149095000D01*
%TO.N,Net-(U1-AOUT)*%
X122960000Y-131060000D02*
X122960000Y-132500000D01*
X122500000Y-130600000D02*
X122960000Y-131060000D01*
X124770000Y-126552961D02*
X123900000Y-127422961D01*
X122500000Y-128300000D02*
X122500000Y-130600000D01*
X123900000Y-127422961D02*
X123900000Y-127925000D01*
X122850000Y-127950000D02*
X122500000Y-128300000D01*
X124770000Y-125512022D02*
X124770000Y-126552961D01*
X123450000Y-127950000D02*
X122850000Y-127950000D01*
%TO.N,Net-(C6-Pad2)*%
X138600000Y-130595000D02*
X142575000Y-130595000D01*
%TO.N,Net-(C7-Pad2)*%
X138600000Y-120595000D02*
X142575000Y-120595000D01*
%TO.N,Net-(U2B--)*%
X126040000Y-125512022D02*
X126040000Y-127735000D01*
X126040000Y-125512022D02*
X127310000Y-125512022D01*
%TO.N,/AUDIO_CH2*%
X127199999Y-123200000D02*
X123898026Y-123200000D01*
X126100000Y-130800000D02*
X126422665Y-130800000D01*
X126422665Y-130800000D02*
X127104665Y-130118000D01*
X122230000Y-120562022D02*
X122230000Y-119170000D01*
X125500000Y-132100000D02*
X125500000Y-131400000D01*
X122230000Y-121531974D02*
X122230000Y-120562022D01*
X122450000Y-118950000D02*
X122450000Y-118000000D01*
X127732000Y-130118000D02*
X128800000Y-129050000D01*
X125500000Y-131400000D02*
X126100000Y-130800000D01*
X123898026Y-123200000D02*
X122230000Y-121531974D01*
X128800000Y-124800001D02*
X127199999Y-123200000D01*
X128800000Y-129050000D02*
X128800000Y-124800001D01*
X122230000Y-119170000D02*
X122450000Y-118950000D01*
X127104665Y-130118000D02*
X127732000Y-130118000D01*
%TO.N,Net-(U1-SWIN)*%
X124230000Y-131270000D02*
X125900000Y-129600000D01*
X124230000Y-132500000D02*
X124230000Y-131270000D01*
%TO.N,Net-(U1-MP)*%
X120960000Y-130360000D02*
X120960000Y-125512022D01*
X119690000Y-125512022D02*
X120960000Y-125512022D01*
X121700000Y-132490000D02*
X121700000Y-131100000D01*
X121700000Y-131100000D02*
X120960000Y-130360000D01*
X121690000Y-132500000D02*
X121700000Y-132490000D01*
%TO.N,Net-(JP1-Pin_1)*%
X87700000Y-147450000D02*
X88170000Y-146980000D01*
X72175000Y-154675000D02*
X72175000Y-154000000D01*
X75600000Y-155200000D02*
X72700000Y-155200000D01*
X72175000Y-154000000D02*
X65160000Y-154000000D01*
X88170000Y-146980000D02*
X88170000Y-145700000D01*
X86500000Y-151500000D02*
X79300000Y-151500000D01*
X79300000Y-151500000D02*
X75600000Y-155200000D01*
X72700000Y-155200000D02*
X72175000Y-154675000D01*
X87550000Y-147450000D02*
X87700000Y-147450000D01*
%TO.N,Net-(JP1-Pin_9)*%
X85000000Y-147500000D02*
X78493161Y-147500000D01*
X76193161Y-145200000D02*
X72400000Y-145200000D01*
X72400000Y-145200000D02*
X72175000Y-144975000D01*
X72175000Y-144975000D02*
X72175000Y-144000000D01*
X65000000Y-144000000D02*
X72175000Y-144000000D01*
X78493161Y-147500000D02*
X76193161Y-145200000D01*
X85630000Y-153617400D02*
X85630000Y-155000000D01*
%TO.N,Net-(JP1-Pin_7)*%
X88550000Y-148550000D02*
X90187400Y-150187400D01*
X72175000Y-147375000D02*
X72500000Y-147700000D01*
X90187400Y-152426152D02*
X89726152Y-152887400D01*
X76600000Y-147700000D02*
X77450000Y-148550000D01*
X90187400Y-150187400D02*
X90187400Y-152426152D01*
X88912600Y-152887400D02*
X88170000Y-153630000D01*
X65000000Y-146540000D02*
X72135000Y-146540000D01*
X88170000Y-153630000D02*
X88170000Y-155000000D01*
X72500000Y-147700000D02*
X76600000Y-147700000D01*
X77450000Y-148550000D02*
X88550000Y-148550000D01*
X72175000Y-146500000D02*
X72175000Y-147375000D01*
X89726152Y-152887400D02*
X88912600Y-152887400D01*
%TO.N,Net-(JP1-Pin_11)*%
X72600000Y-142700000D02*
X72175000Y-142275000D01*
X83090000Y-153691000D02*
X83090000Y-155000000D01*
X65000000Y-141460000D02*
X72135000Y-141460000D01*
X78800000Y-146400000D02*
X75100000Y-142700000D01*
X83100000Y-153681000D02*
X83090000Y-153691000D01*
X79200000Y-146400000D02*
X78800000Y-146400000D01*
X75100000Y-142700000D02*
X72600000Y-142700000D01*
X72175000Y-142275000D02*
X72175000Y-141500000D01*
%TO.N,Net-(JP1-Pin_3)*%
X75400000Y-152800000D02*
X72800000Y-152800000D01*
X87550000Y-150450000D02*
X77750000Y-150450000D01*
X77750000Y-150450000D02*
X75400000Y-152800000D01*
X72175000Y-151500000D02*
X65120000Y-151500000D01*
X90710000Y-145700000D02*
X90709999Y-147418096D01*
X88100000Y-151000000D02*
X87550000Y-150450000D01*
X72800000Y-152800000D02*
X72175000Y-152175000D01*
X72175000Y-152175000D02*
X72175000Y-151500000D01*
%TO.N,Net-(JP1-Pin_5)*%
X89131759Y-151631759D02*
X89163587Y-151599930D01*
X88050000Y-149450000D02*
X76350000Y-149450000D01*
X75600000Y-150200000D02*
X72600000Y-150200000D01*
X72600000Y-150200000D02*
X72175000Y-149775000D01*
X89163587Y-151599930D02*
X89163587Y-150563587D01*
X76350000Y-149450000D02*
X75600000Y-150200000D01*
X91300000Y-151200000D02*
X91300000Y-152678404D01*
X72175000Y-149000000D02*
X65080000Y-149000000D01*
X72175000Y-149775000D02*
X72175000Y-149000000D01*
X90700000Y-153278404D02*
X90700000Y-154990000D01*
X89163587Y-150563587D02*
X88050000Y-149450000D01*
X91300000Y-152678404D02*
X90700000Y-153278404D01*
%TO.N,/AUDIO_CH1*%
X130000000Y-124350000D02*
X127950000Y-122300000D01*
X126770000Y-131700001D02*
X127470001Y-131000000D01*
X130000000Y-129500000D02*
X130000000Y-124350000D01*
X127470001Y-131000000D02*
X128500000Y-131000000D01*
X125340000Y-122300000D02*
X124770000Y-121730000D01*
X124770000Y-120562022D02*
X124770000Y-119555000D01*
X126770000Y-132500000D02*
X126770000Y-131700001D01*
X124770000Y-121730000D02*
X124770000Y-120562022D01*
X127950000Y-122300000D02*
X125340000Y-122300000D01*
X128500000Y-131000000D02*
X130000000Y-129500000D01*
X124770000Y-119555000D02*
X126325000Y-118000000D01*
%TO.N,Net-(CON1-PadT)*%
X144225000Y-120595000D02*
X144225000Y-124595000D01*
X148569000Y-120595000D02*
X148569000Y-123095000D01*
X144225000Y-120595000D02*
X148569000Y-120595000D01*
%TO.N,Net-(CON1-PadR)*%
X144225000Y-130595000D02*
X148569000Y-130595000D01*
X144225000Y-130400000D02*
X144225000Y-134400000D01*
X148569000Y-128095000D02*
X148569000Y-130595000D01*
%TD*%
%TA.AperFunction,Conductor*%
%TO.N,GND*%
G36*
X154502611Y-115500608D02*
G01*
X154907663Y-115517361D01*
X154918012Y-115518218D01*
X155317722Y-115568042D01*
X155327986Y-115569755D01*
X155722213Y-115652415D01*
X155732276Y-115654962D01*
X156118344Y-115769901D01*
X156128187Y-115773281D01*
X156503427Y-115919700D01*
X156512964Y-115923883D01*
X156853371Y-116090298D01*
X156874811Y-116100779D01*
X156883969Y-116105735D01*
X157229991Y-116311919D01*
X157238702Y-116317610D01*
X157387309Y-116423713D01*
X157566512Y-116551662D01*
X157574730Y-116558058D01*
X157882102Y-116818388D01*
X157889763Y-116825442D01*
X158174557Y-117110236D01*
X158181611Y-117117897D01*
X158441941Y-117425269D01*
X158448337Y-117433487D01*
X158682384Y-117761289D01*
X158688080Y-117770008D01*
X158894264Y-118116030D01*
X158899220Y-118125188D01*
X159076116Y-118487035D01*
X159080299Y-118496572D01*
X159226718Y-118871812D01*
X159230100Y-118881661D01*
X159345032Y-119267707D01*
X159347588Y-119277803D01*
X159430243Y-119672009D01*
X159431957Y-119682281D01*
X159481779Y-120081973D01*
X159482639Y-120092351D01*
X159499392Y-120497388D01*
X159499500Y-120502595D01*
X159499500Y-121412500D01*
X159479498Y-121480621D01*
X159425842Y-121527114D01*
X159373500Y-121538500D01*
X158894449Y-121538500D01*
X158661758Y-121571956D01*
X158436187Y-121638190D01*
X158222340Y-121735850D01*
X158024571Y-121862949D01*
X157846901Y-122016901D01*
X157692949Y-122194571D01*
X157565850Y-122392340D01*
X157468190Y-122606187D01*
X157401956Y-122831758D01*
X157368500Y-123064449D01*
X157368500Y-128125550D01*
X157401956Y-128358241D01*
X157468190Y-128583812D01*
X157565850Y-128797659D01*
X157692949Y-128995428D01*
X157846901Y-129173098D01*
X158024571Y-129327050D01*
X158220037Y-129452669D01*
X158222342Y-129454150D01*
X158436189Y-129551810D01*
X158661757Y-129618043D01*
X158894455Y-129651500D01*
X158946108Y-129651500D01*
X159373500Y-129651500D01*
X159441621Y-129671502D01*
X159488114Y-129725158D01*
X159499500Y-129777500D01*
X159499500Y-162904123D01*
X159479498Y-162972244D01*
X159425842Y-163018737D01*
X159355568Y-163028841D01*
X159290988Y-162999347D01*
X159261233Y-162961326D01*
X159175051Y-162792184D01*
X159050104Y-162620208D01*
X159050101Y-162620205D01*
X159050099Y-162620202D01*
X158899797Y-162469900D01*
X158899794Y-162469898D01*
X158899792Y-162469896D01*
X158727816Y-162344949D01*
X158538412Y-162248443D01*
X158336243Y-162182754D01*
X158126287Y-162149500D01*
X157913713Y-162149500D01*
X157703757Y-162182754D01*
X157703754Y-162182754D01*
X157703753Y-162182755D01*
X157501588Y-162248443D01*
X157501586Y-162248444D01*
X157312180Y-162344951D01*
X157140205Y-162469898D01*
X157140202Y-162469900D01*
X156989900Y-162620202D01*
X156989898Y-162620205D01*
X156864949Y-162792183D01*
X156862265Y-162797451D01*
X156813516Y-162849065D01*
X156744600Y-162866129D01*
X156677399Y-162843226D01*
X156637735Y-162797451D01*
X156635050Y-162792183D01*
X156635048Y-162792180D01*
X156510104Y-162620208D01*
X156510101Y-162620205D01*
X156510099Y-162620202D01*
X156359797Y-162469900D01*
X156359794Y-162469898D01*
X156359792Y-162469896D01*
X156187816Y-162344949D01*
X155998412Y-162248443D01*
X155796243Y-162182754D01*
X155586287Y-162149500D01*
X155373713Y-162149500D01*
X155163757Y-162182754D01*
X155163754Y-162182754D01*
X155163753Y-162182755D01*
X154961588Y-162248443D01*
X154961586Y-162248444D01*
X154772180Y-162344951D01*
X154600205Y-162469898D01*
X154600202Y-162469900D01*
X154449900Y-162620202D01*
X154449898Y-162620205D01*
X154324949Y-162792183D01*
X154322265Y-162797451D01*
X154273516Y-162849065D01*
X154204600Y-162866129D01*
X154137399Y-162843226D01*
X154097735Y-162797451D01*
X154095050Y-162792183D01*
X154095048Y-162792180D01*
X153970104Y-162620208D01*
X153970101Y-162620205D01*
X153970099Y-162620202D01*
X153819797Y-162469900D01*
X153819794Y-162469898D01*
X153819792Y-162469896D01*
X153647816Y-162344949D01*
X153458412Y-162248443D01*
X153256243Y-162182754D01*
X153046287Y-162149500D01*
X152833713Y-162149500D01*
X152623757Y-162182754D01*
X152623754Y-162182754D01*
X152623753Y-162182755D01*
X152421588Y-162248443D01*
X152421586Y-162248444D01*
X152232180Y-162344951D01*
X152060205Y-162469898D01*
X152060202Y-162469900D01*
X151909900Y-162620202D01*
X151909898Y-162620205D01*
X151784949Y-162792183D01*
X151782265Y-162797451D01*
X151733516Y-162849065D01*
X151664600Y-162866129D01*
X151597399Y-162843226D01*
X151557735Y-162797451D01*
X151555050Y-162792183D01*
X151555048Y-162792180D01*
X151430104Y-162620208D01*
X151430101Y-162620205D01*
X151430099Y-162620202D01*
X151279797Y-162469900D01*
X151279794Y-162469898D01*
X151279792Y-162469896D01*
X151107816Y-162344949D01*
X150918412Y-162248443D01*
X150716243Y-162182754D01*
X150506287Y-162149500D01*
X150293713Y-162149500D01*
X150083757Y-162182754D01*
X150083754Y-162182754D01*
X150083753Y-162182755D01*
X149881588Y-162248443D01*
X149881586Y-162248444D01*
X149692180Y-162344951D01*
X149520205Y-162469898D01*
X149520202Y-162469900D01*
X149369900Y-162620202D01*
X149369898Y-162620205D01*
X149244949Y-162792183D01*
X149242265Y-162797451D01*
X149193516Y-162849065D01*
X149124600Y-162866129D01*
X149057399Y-162843226D01*
X149017735Y-162797451D01*
X149015050Y-162792183D01*
X149015048Y-162792180D01*
X148890104Y-162620208D01*
X148890101Y-162620205D01*
X148890099Y-162620202D01*
X148739797Y-162469900D01*
X148739794Y-162469898D01*
X148739792Y-162469896D01*
X148567816Y-162344949D01*
X148378412Y-162248443D01*
X148176243Y-162182754D01*
X147966287Y-162149500D01*
X147753713Y-162149500D01*
X147543757Y-162182754D01*
X147543754Y-162182754D01*
X147543753Y-162182755D01*
X147341588Y-162248443D01*
X147341586Y-162248444D01*
X147152180Y-162344951D01*
X146980205Y-162469898D01*
X146980202Y-162469900D01*
X146829900Y-162620202D01*
X146829898Y-162620205D01*
X146704949Y-162792183D01*
X146702265Y-162797451D01*
X146653516Y-162849065D01*
X146584600Y-162866129D01*
X146517399Y-162843226D01*
X146477735Y-162797451D01*
X146475050Y-162792183D01*
X146475048Y-162792180D01*
X146350104Y-162620208D01*
X146350101Y-162620205D01*
X146350099Y-162620202D01*
X146199797Y-162469900D01*
X146199794Y-162469898D01*
X146199792Y-162469896D01*
X146062939Y-162370467D01*
X146019585Y-162314245D01*
X146011000Y-162268531D01*
X146011000Y-158151941D01*
X146010999Y-158151938D01*
X145984445Y-158018443D01*
X145932356Y-157892689D01*
X145910189Y-157859514D01*
X145856735Y-157779513D01*
X145856734Y-157779512D01*
X145856731Y-157779508D01*
X139175494Y-151098271D01*
X139175488Y-151098266D01*
X139122449Y-151062827D01*
X139062311Y-151022644D01*
X138936557Y-150970555D01*
X138899908Y-150963265D01*
X138899907Y-150963264D01*
X138803061Y-150944000D01*
X138803058Y-150944000D01*
X138213520Y-150944000D01*
X138145399Y-150923998D01*
X138098906Y-150870342D01*
X138088802Y-150800068D01*
X138100879Y-150765755D01*
X138099532Y-150765172D01*
X138102679Y-150757897D01*
X138102678Y-150757897D01*
X138102681Y-150757894D01*
X138147654Y-150603098D01*
X138150500Y-150566935D01*
X138150499Y-150163066D01*
X138147654Y-150126902D01*
X138102681Y-149972106D01*
X138020626Y-149833357D01*
X138006364Y-149819095D01*
X137972339Y-149756786D01*
X137977402Y-149685970D01*
X138006364Y-149640904D01*
X138020626Y-149626643D01*
X138102681Y-149487894D01*
X138147654Y-149333098D01*
X138150500Y-149296935D01*
X138150499Y-148893066D01*
X138147654Y-148856902D01*
X138102681Y-148702106D01*
X138020626Y-148563357D01*
X138006364Y-148549095D01*
X137972339Y-148486786D01*
X137977402Y-148415970D01*
X138006364Y-148370904D01*
X138020626Y-148356643D01*
X138102681Y-148217894D01*
X138147654Y-148063098D01*
X138150500Y-148026935D01*
X138150499Y-147623066D01*
X138147654Y-147586902D01*
X138102681Y-147432106D01*
X138020626Y-147293357D01*
X138006364Y-147279095D01*
X137972339Y-147216786D01*
X137977402Y-147145970D01*
X138006364Y-147100904D01*
X138020626Y-147086643D01*
X138102681Y-146947894D01*
X138147654Y-146793098D01*
X138150500Y-146756935D01*
X138150499Y-146353066D01*
X138147654Y-146316902D01*
X138102681Y-146162106D01*
X138020626Y-146023357D01*
X138006364Y-146009095D01*
X137972339Y-145946786D01*
X137977402Y-145875970D01*
X138006364Y-145830904D01*
X138020626Y-145816643D01*
X138102681Y-145677894D01*
X138147654Y-145523098D01*
X138150500Y-145486935D01*
X138150499Y-145083066D01*
X138147654Y-145046902D01*
X138102681Y-144892106D01*
X138102679Y-144892102D01*
X138099532Y-144884828D01*
X138101932Y-144883789D01*
X138087607Y-144827323D01*
X138110124Y-144759992D01*
X138165468Y-144715522D01*
X138213520Y-144706000D01*
X140900195Y-144706000D01*
X140968316Y-144726002D01*
X141014809Y-144779658D01*
X141019799Y-144792367D01*
X141065185Y-144929334D01*
X141157288Y-145078656D01*
X141157293Y-145078662D01*
X141281337Y-145202706D01*
X141281343Y-145202711D01*
X141281344Y-145202712D01*
X141338563Y-145238004D01*
X141430665Y-145294814D01*
X141597196Y-145349997D01*
X141597197Y-145349997D01*
X141597203Y-145349999D01*
X141699991Y-145360500D01*
X143300008Y-145360499D01*
X143300009Y-145360499D01*
X143402797Y-145349999D01*
X143569334Y-145294814D01*
X143589903Y-145282127D01*
X143718656Y-145202712D01*
X143842712Y-145078656D01*
X143934814Y-144929334D01*
X143989999Y-144762797D01*
X144000448Y-144660516D01*
X144992000Y-144660516D01*
X145002605Y-144764318D01*
X145002606Y-144764321D01*
X145058342Y-144932525D01*
X145151365Y-145083339D01*
X145151370Y-145083345D01*
X145276654Y-145208629D01*
X145276660Y-145208634D01*
X145427474Y-145301657D01*
X145595678Y-145357393D01*
X145595681Y-145357394D01*
X145699483Y-145367999D01*
X145699483Y-145368000D01*
X146246000Y-145368000D01*
X146754000Y-145368000D01*
X147300517Y-145368000D01*
X147300516Y-145367999D01*
X147404318Y-145357394D01*
X147404321Y-145357393D01*
X147572525Y-145301657D01*
X147723339Y-145208634D01*
X147723345Y-145208629D01*
X147848629Y-145083345D01*
X147848634Y-145083339D01*
X147941657Y-144932525D01*
X147997393Y-144764321D01*
X147997394Y-144764318D01*
X148007999Y-144660516D01*
X148008000Y-144660516D01*
X148008000Y-144214000D01*
X146754000Y-144214000D01*
X146754000Y-145368000D01*
X146246000Y-145368000D01*
X146246000Y-144214000D01*
X144992000Y-144214000D01*
X144992000Y-144660516D01*
X144000448Y-144660516D01*
X144000499Y-144660017D01*
X144000500Y-144660017D01*
X144000500Y-144161809D01*
X144000499Y-143259990D01*
X144000447Y-143259483D01*
X144992000Y-143259483D01*
X144992000Y-143706000D01*
X146246000Y-143706000D01*
X146754000Y-143706000D01*
X148008000Y-143706000D01*
X148008000Y-143259483D01*
X147997394Y-143155681D01*
X147997393Y-143155678D01*
X147941657Y-142987474D01*
X147848634Y-142836660D01*
X147848629Y-142836654D01*
X147723345Y-142711370D01*
X147723339Y-142711365D01*
X147572525Y-142618342D01*
X147404321Y-142562606D01*
X147404318Y-142562605D01*
X147300516Y-142552000D01*
X146754000Y-142552000D01*
X146754000Y-143706000D01*
X146246000Y-143706000D01*
X146246000Y-142552000D01*
X145699483Y-142552000D01*
X145595681Y-142562605D01*
X145595678Y-142562606D01*
X145427474Y-142618342D01*
X145276660Y-142711365D01*
X145276654Y-142711370D01*
X145151370Y-142836654D01*
X145151365Y-142836660D01*
X145058342Y-142987474D01*
X145002606Y-143155678D01*
X145002605Y-143155681D01*
X144992000Y-143259483D01*
X144000447Y-143259483D01*
X143989999Y-143157202D01*
X143934814Y-142990665D01*
X143878004Y-142898563D01*
X143842712Y-142841344D01*
X143842711Y-142841343D01*
X143842706Y-142841337D01*
X143718662Y-142717293D01*
X143718656Y-142717288D01*
X143569334Y-142625185D01*
X143402803Y-142570002D01*
X143402791Y-142570000D01*
X143300017Y-142559500D01*
X141699990Y-142559500D01*
X141597202Y-142570000D01*
X141430665Y-142625185D01*
X141281343Y-142717288D01*
X141281337Y-142717293D01*
X141157293Y-142841337D01*
X141157288Y-142841343D01*
X141065185Y-142990665D01*
X141010002Y-143157196D01*
X141010000Y-143157208D01*
X141004524Y-143210807D01*
X140977702Y-143276542D01*
X140919598Y-143317340D01*
X140879177Y-143324000D01*
X137864389Y-143324000D01*
X137800251Y-143306454D01*
X137767896Y-143287319D01*
X137613103Y-143242347D01*
X137613099Y-143242346D01*
X137613098Y-143242346D01*
X137613096Y-143242345D01*
X137613091Y-143242345D01*
X137576943Y-143239500D01*
X135723066Y-143239500D01*
X135686903Y-143242345D01*
X135532105Y-143287319D01*
X135470081Y-143324000D01*
X135393357Y-143369374D01*
X135393355Y-143369375D01*
X135393353Y-143369377D01*
X135393351Y-143369378D01*
X135279378Y-143483351D01*
X135279372Y-143483358D01*
X135193421Y-143628695D01*
X135141528Y-143677148D01*
X135071678Y-143689853D01*
X135006047Y-143662778D01*
X134995873Y-143653651D01*
X133186220Y-141843998D01*
X131308905Y-139966682D01*
X131274879Y-139904370D01*
X131272000Y-139877587D01*
X131272000Y-137712941D01*
X131271999Y-137712938D01*
X131245445Y-137579444D01*
X131245444Y-137579441D01*
X131238939Y-137563735D01*
X131238938Y-137563732D01*
X131193356Y-137453688D01*
X131117735Y-137340513D01*
X130073817Y-136296595D01*
X130039791Y-136234283D01*
X130044856Y-136163468D01*
X130087403Y-136106632D01*
X130153923Y-136081821D01*
X130162912Y-136081500D01*
X131282680Y-136081500D01*
X131350801Y-136101502D01*
X131371775Y-136118405D01*
X135338068Y-140084699D01*
X135338074Y-140084704D01*
X135338076Y-140084706D01*
X135482453Y-140181175D01*
X135642876Y-140247624D01*
X135813179Y-140281500D01*
X135813180Y-140281500D01*
X146482680Y-140281500D01*
X146550801Y-140301502D01*
X146571775Y-140318405D01*
X148670595Y-142417224D01*
X148704620Y-142479536D01*
X148707500Y-142506319D01*
X148707500Y-148018500D01*
X148687498Y-148086621D01*
X148633842Y-148133114D01*
X148581500Y-148144500D01*
X148049514Y-148144500D01*
X147981393Y-148124498D01*
X147939424Y-148076444D01*
X147938667Y-148076912D01*
X147935866Y-148072371D01*
X147935314Y-148071739D01*
X147934815Y-148070670D01*
X147934814Y-148070666D01*
X147924075Y-148053256D01*
X147876594Y-147976276D01*
X147842712Y-147921344D01*
X147842711Y-147921343D01*
X147842706Y-147921337D01*
X147718662Y-147797293D01*
X147718656Y-147797288D01*
X147569334Y-147705185D01*
X147402803Y-147650002D01*
X147402791Y-147650000D01*
X147300017Y-147639500D01*
X145699990Y-147639500D01*
X145597202Y-147650000D01*
X145430665Y-147705185D01*
X145281343Y-147797288D01*
X145281337Y-147797293D01*
X145157293Y-147921337D01*
X145157288Y-147921343D01*
X145065187Y-148070663D01*
X145065186Y-148070665D01*
X145065186Y-148070666D01*
X145064831Y-148071739D01*
X145064702Y-148072128D01*
X145064094Y-148073005D01*
X145062087Y-148077311D01*
X145061351Y-148076967D01*
X145024291Y-148130501D01*
X144958736Y-148157760D01*
X144945096Y-148158500D01*
X144054904Y-148158500D01*
X143986783Y-148138498D01*
X143940290Y-148084842D01*
X143935298Y-148072128D01*
X143934814Y-148070666D01*
X143842712Y-147921344D01*
X143842711Y-147921343D01*
X143842706Y-147921337D01*
X143718662Y-147797293D01*
X143718656Y-147797288D01*
X143569334Y-147705185D01*
X143402803Y-147650002D01*
X143402791Y-147650000D01*
X143300017Y-147639500D01*
X141699990Y-147639500D01*
X141597202Y-147650000D01*
X141430665Y-147705185D01*
X141281343Y-147797288D01*
X141281337Y-147797293D01*
X141157293Y-147921337D01*
X141157288Y-147921343D01*
X141065185Y-148070665D01*
X141010002Y-148237196D01*
X141010000Y-148237208D01*
X140999500Y-148339982D01*
X140999500Y-149740009D01*
X141010000Y-149842797D01*
X141065185Y-150009334D01*
X141157288Y-150158656D01*
X141157293Y-150158662D01*
X141281337Y-150282706D01*
X141281343Y-150282711D01*
X141281344Y-150282712D01*
X141338563Y-150318004D01*
X141430665Y-150374814D01*
X141597196Y-150429997D01*
X141597197Y-150429997D01*
X141597203Y-150429999D01*
X141699991Y-150440500D01*
X143300008Y-150440499D01*
X143300009Y-150440499D01*
X143402797Y-150429999D01*
X143569334Y-150374814D01*
X143618309Y-150344606D01*
X143718656Y-150282712D01*
X143842712Y-150158656D01*
X143934814Y-150009334D01*
X143935298Y-150007870D01*
X143935905Y-150006994D01*
X143937913Y-150002689D01*
X143938648Y-150003032D01*
X143975709Y-149949499D01*
X144041264Y-149922240D01*
X144054904Y-149921500D01*
X144945096Y-149921500D01*
X145013217Y-149941502D01*
X145059710Y-149995158D01*
X145064699Y-150007864D01*
X145065186Y-150009334D01*
X145065187Y-150009336D01*
X145157288Y-150158656D01*
X145157293Y-150158662D01*
X145281337Y-150282706D01*
X145281343Y-150282711D01*
X145281344Y-150282712D01*
X145338563Y-150318004D01*
X145430665Y-150374814D01*
X145597196Y-150429997D01*
X145597197Y-150429997D01*
X145597203Y-150429999D01*
X145699991Y-150440500D01*
X147300008Y-150440499D01*
X147300009Y-150440499D01*
X147402797Y-150429999D01*
X147569334Y-150374814D01*
X147618309Y-150344606D01*
X147718656Y-150282712D01*
X147842712Y-150158656D01*
X147934814Y-150009334D01*
X147939940Y-149993864D01*
X147980355Y-149935494D01*
X148045912Y-149908240D01*
X148059544Y-149907500D01*
X148970117Y-149907500D01*
X149036262Y-149926258D01*
X149055303Y-149938003D01*
X149216292Y-149991349D01*
X149315655Y-150001500D01*
X149862344Y-150001499D01*
X149862345Y-150001499D01*
X149889314Y-149998744D01*
X149961708Y-149991349D01*
X150122697Y-149938003D01*
X150267044Y-149848968D01*
X150269597Y-149846414D01*
X150271781Y-149845221D01*
X150272802Y-149844415D01*
X150272939Y-149844589D01*
X150331905Y-149812387D01*
X150402721Y-149817447D01*
X150447791Y-149846411D01*
X150456265Y-149854885D01*
X150456271Y-149854890D01*
X150602115Y-149944847D01*
X150764758Y-149998742D01*
X150764770Y-149998744D01*
X150865147Y-150008999D01*
X150865147Y-150009000D01*
X150885000Y-150009000D01*
X151393000Y-150009000D01*
X151412853Y-150009000D01*
X151412852Y-150008999D01*
X151513229Y-149998744D01*
X151513241Y-149998742D01*
X151675884Y-149944847D01*
X151821728Y-149854890D01*
X151821734Y-149854885D01*
X151942885Y-149733734D01*
X151942890Y-149733728D01*
X152032847Y-149587884D01*
X152086742Y-149425241D01*
X152086744Y-149425229D01*
X152096999Y-149324852D01*
X152097000Y-149324852D01*
X152097000Y-149280000D01*
X151393000Y-149280000D01*
X151393000Y-150009000D01*
X150885000Y-150009000D01*
X150885000Y-148772000D01*
X151393000Y-148772000D01*
X152097000Y-148772000D01*
X152097000Y-148727147D01*
X152086744Y-148626770D01*
X152086742Y-148626758D01*
X152032847Y-148464115D01*
X151942890Y-148318271D01*
X151942885Y-148318265D01*
X151821734Y-148197114D01*
X151821728Y-148197109D01*
X151675884Y-148107152D01*
X151513241Y-148053257D01*
X151513229Y-148053255D01*
X151412852Y-148043000D01*
X151393000Y-148043000D01*
X151393000Y-148772000D01*
X150885000Y-148772000D01*
X150885000Y-148043000D01*
X150865147Y-148043000D01*
X150764770Y-148053255D01*
X150764767Y-148053256D01*
X150636133Y-148095881D01*
X150565178Y-148098321D01*
X150504168Y-148062013D01*
X150472473Y-147998484D01*
X150470500Y-147976276D01*
X150470500Y-142002183D01*
X150470500Y-142002180D01*
X150462759Y-141963266D01*
X150436624Y-141831876D01*
X150370175Y-141671453D01*
X150299905Y-141566287D01*
X150273706Y-141527077D01*
X150150923Y-141404294D01*
X147461924Y-138715294D01*
X147317547Y-138618825D01*
X147289274Y-138607114D01*
X147157127Y-138552377D01*
X147157124Y-138552376D01*
X146986824Y-138518500D01*
X146986821Y-138518500D01*
X146986820Y-138518500D01*
X136317320Y-138518500D01*
X136249199Y-138498498D01*
X136228225Y-138481595D01*
X132868852Y-135122221D01*
X141667001Y-135122221D01*
X141673481Y-135193553D01*
X141724633Y-135357706D01*
X141813578Y-135504840D01*
X141813586Y-135504850D01*
X141935149Y-135626413D01*
X141935159Y-135626421D01*
X142082293Y-135715366D01*
X142246446Y-135766518D01*
X142317781Y-135772999D01*
X142320999Y-135772999D01*
X142321000Y-135772998D01*
X142321000Y-135044000D01*
X141667001Y-135044000D01*
X141667001Y-135122221D01*
X132868852Y-135122221D01*
X132827535Y-135080904D01*
X132261931Y-134515300D01*
X132261925Y-134515295D01*
X132261919Y-134515291D01*
X132175843Y-134457777D01*
X141667000Y-134457777D01*
X141667000Y-134536000D01*
X142321000Y-134536000D01*
X142321000Y-133807000D01*
X142317768Y-133807001D01*
X142246446Y-133813481D01*
X142082293Y-133864633D01*
X141935159Y-133953578D01*
X141935149Y-133953586D01*
X141813586Y-134075149D01*
X141813578Y-134075159D01*
X141724633Y-134222293D01*
X141673481Y-134386446D01*
X141673481Y-134386447D01*
X141667000Y-134457777D01*
X132175843Y-134457777D01*
X132117547Y-134418825D01*
X132042660Y-134387806D01*
X131957127Y-134352377D01*
X131957124Y-134352376D01*
X131786824Y-134318500D01*
X131786821Y-134318500D01*
X131786820Y-134318500D01*
X131736820Y-134318500D01*
X128857000Y-134318500D01*
X128788879Y-134298498D01*
X128742386Y-134244842D01*
X128731000Y-134192500D01*
X128731000Y-133547579D01*
X128748547Y-133483439D01*
X128777589Y-133434333D01*
X128791744Y-133410398D01*
X128837598Y-133252569D01*
X128840500Y-133215694D01*
X128840500Y-131784306D01*
X128837598Y-131747431D01*
X128828814Y-131717196D01*
X128829015Y-131646202D01*
X128867568Y-131586585D01*
X128879794Y-131577287D01*
X128940487Y-131536735D01*
X130536735Y-129940487D01*
X130612356Y-129827311D01*
X130664445Y-129701557D01*
X130665849Y-129694500D01*
X130691000Y-129568058D01*
X130691000Y-124281942D01*
X130691000Y-124276359D01*
X130711002Y-124208238D01*
X130764658Y-124161745D01*
X130834932Y-124151641D01*
X130899512Y-124181135D01*
X130906095Y-124187264D01*
X132472095Y-125753264D01*
X132506121Y-125815576D01*
X132509000Y-125842359D01*
X132509000Y-129168500D01*
X132488998Y-129236621D01*
X132435342Y-129283114D01*
X132383000Y-129294500D01*
X131649990Y-129294500D01*
X131547202Y-129305000D01*
X131380665Y-129360185D01*
X131231343Y-129452288D01*
X131231337Y-129452293D01*
X131107293Y-129576337D01*
X131107288Y-129576343D01*
X131015185Y-129725665D01*
X130960002Y-129892196D01*
X130960000Y-129892208D01*
X130949500Y-129994982D01*
X130949500Y-131195009D01*
X130960000Y-131297797D01*
X131015185Y-131464334D01*
X131107288Y-131613656D01*
X131107293Y-131613662D01*
X131231337Y-131737706D01*
X131231343Y-131737711D01*
X131231344Y-131737712D01*
X131268633Y-131760712D01*
X131380665Y-131829814D01*
X131547196Y-131884997D01*
X131547197Y-131884997D01*
X131547203Y-131884999D01*
X131649991Y-131895500D01*
X134750008Y-131895499D01*
X134750009Y-131895499D01*
X134852797Y-131884999D01*
X135019334Y-131829814D01*
X135168656Y-131737712D01*
X135292712Y-131613656D01*
X135384814Y-131464334D01*
X135439999Y-131297797D01*
X135450500Y-131195009D01*
X135450499Y-129994992D01*
X135450498Y-129994982D01*
X136349500Y-129994982D01*
X136349500Y-131195009D01*
X136360000Y-131297797D01*
X136415185Y-131464334D01*
X136507288Y-131613656D01*
X136507293Y-131613662D01*
X136631337Y-131737706D01*
X136631343Y-131737711D01*
X136631344Y-131737712D01*
X136668633Y-131760712D01*
X136780665Y-131829814D01*
X136947196Y-131884997D01*
X136947197Y-131884997D01*
X136947203Y-131884999D01*
X137049991Y-131895500D01*
X140150008Y-131895499D01*
X140150009Y-131895499D01*
X140252797Y-131884999D01*
X140419334Y-131829814D01*
X140568656Y-131737712D01*
X140692712Y-131613656D01*
X140784814Y-131464334D01*
X140815289Y-131372364D01*
X140855702Y-131313996D01*
X140921259Y-131286740D01*
X140934893Y-131286000D01*
X141748152Y-131286000D01*
X141816273Y-131306002D01*
X141837247Y-131322905D01*
X141939809Y-131425467D01*
X141939813Y-131425470D01*
X141939815Y-131425472D01*
X142085394Y-131513478D01*
X142247804Y-131564086D01*
X142318384Y-131570500D01*
X142318387Y-131570500D01*
X142831613Y-131570500D01*
X142831616Y-131570500D01*
X142902196Y-131564086D01*
X143064606Y-131513478D01*
X143210185Y-131425472D01*
X143310906Y-131324750D01*
X143318978Y-131320343D01*
X143324491Y-131312979D01*
X143349649Y-131303595D01*
X143373216Y-131290727D01*
X143382391Y-131291383D01*
X143391011Y-131288168D01*
X143417250Y-131293875D01*
X143444032Y-131295791D01*
X143453230Y-131301702D01*
X143460385Y-131303259D01*
X143489095Y-131324752D01*
X143497095Y-131332752D01*
X143531121Y-131395064D01*
X143534000Y-131421847D01*
X143534000Y-133963152D01*
X143513998Y-134031273D01*
X143497095Y-134052247D01*
X143494398Y-134054944D01*
X143432086Y-134088970D01*
X143361271Y-134083905D01*
X143316208Y-134054944D01*
X143214850Y-133953586D01*
X143214840Y-133953578D01*
X143067706Y-133864633D01*
X142903552Y-133813481D01*
X142832223Y-133807000D01*
X142829000Y-133807000D01*
X142829000Y-135772999D01*
X142832222Y-135772999D01*
X142903553Y-135766518D01*
X143067706Y-135715366D01*
X143214840Y-135626421D01*
X143214850Y-135626413D01*
X143316208Y-135525056D01*
X143378520Y-135491030D01*
X143449335Y-135496095D01*
X143494398Y-135525056D01*
X143589809Y-135620467D01*
X143589814Y-135620471D01*
X143589815Y-135620472D01*
X143735394Y-135708478D01*
X143897804Y-135759086D01*
X143968384Y-135765500D01*
X143968387Y-135765500D01*
X144481613Y-135765500D01*
X144481616Y-135765500D01*
X144552196Y-135759086D01*
X144714606Y-135708478D01*
X144860185Y-135620472D01*
X144980472Y-135500185D01*
X145068478Y-135354606D01*
X145119086Y-135192196D01*
X145125500Y-135121616D01*
X145125500Y-134458384D01*
X145119086Y-134387804D01*
X145068478Y-134225394D01*
X144980472Y-134079815D01*
X144980471Y-134079814D01*
X144980467Y-134079809D01*
X144952905Y-134052247D01*
X144918879Y-133989935D01*
X144916000Y-133963152D01*
X144916000Y-131421847D01*
X144924787Y-131391920D01*
X144931416Y-131361456D01*
X144935226Y-131356365D01*
X144936002Y-131353726D01*
X144952904Y-131332752D01*
X144962757Y-131322900D01*
X145025071Y-131288878D01*
X145051848Y-131286000D01*
X146692501Y-131286000D01*
X146760622Y-131306002D01*
X146807115Y-131359658D01*
X146818501Y-131412000D01*
X146818501Y-131542864D01*
X146818502Y-131542885D01*
X146824908Y-131602480D01*
X146824908Y-131602481D01*
X146875201Y-131737326D01*
X146875203Y-131737329D01*
X146875204Y-131737331D01*
X146882765Y-131747431D01*
X146961453Y-131852546D01*
X147018832Y-131895499D01*
X147076669Y-131938796D01*
X147076671Y-131938796D01*
X147076673Y-131938798D01*
X147137030Y-131961309D01*
X147211514Y-131989090D01*
X147211517Y-131989091D01*
X147271127Y-131995500D01*
X149866872Y-131995499D01*
X149926483Y-131989091D01*
X150061331Y-131938796D01*
X150176546Y-131852546D01*
X150262796Y-131737331D01*
X150313091Y-131602483D01*
X150319500Y-131542873D01*
X150319499Y-130511230D01*
X152718500Y-130511230D01*
X152718500Y-130511233D01*
X152718500Y-130678767D01*
X152742711Y-130800487D01*
X152751185Y-130843085D01*
X152769964Y-130888420D01*
X152815297Y-130997863D01*
X152861835Y-131067512D01*
X152908373Y-131137161D01*
X152908378Y-131137167D01*
X153026832Y-131255621D01*
X153026838Y-131255626D01*
X153166137Y-131348703D01*
X153320918Y-131412816D01*
X153485233Y-131445500D01*
X153485234Y-131445500D01*
X153652766Y-131445500D01*
X153652767Y-131445500D01*
X153817082Y-131412816D01*
X153971863Y-131348703D01*
X154111162Y-131255626D01*
X154229626Y-131137162D01*
X154322703Y-130997863D01*
X154386816Y-130843082D01*
X154419500Y-130678767D01*
X154419500Y-130511233D01*
X154419499Y-130511230D01*
X155218500Y-130511230D01*
X155218500Y-130511233D01*
X155218500Y-130678767D01*
X155242711Y-130800487D01*
X155251185Y-130843085D01*
X155269964Y-130888420D01*
X155315297Y-130997863D01*
X155361835Y-131067512D01*
X155408373Y-131137161D01*
X155408378Y-131137167D01*
X155526832Y-131255621D01*
X155526838Y-131255626D01*
X155666137Y-131348703D01*
X155820918Y-131412816D01*
X155985233Y-131445500D01*
X155985234Y-131445500D01*
X156152766Y-131445500D01*
X156152767Y-131445500D01*
X156317082Y-131412816D01*
X156471863Y-131348703D01*
X156611162Y-131255626D01*
X156729626Y-131137162D01*
X156822703Y-130997863D01*
X156886816Y-130843082D01*
X156919500Y-130678767D01*
X156919500Y-130511233D01*
X156886816Y-130346918D01*
X156822703Y-130192137D01*
X156729626Y-130052838D01*
X156729621Y-130052832D01*
X156611167Y-129934378D01*
X156611161Y-129934373D01*
X156510472Y-129867095D01*
X156471863Y-129841297D01*
X156362420Y-129795964D01*
X156317085Y-129777185D01*
X156317083Y-129777184D01*
X156317082Y-129777184D01*
X156234368Y-129760731D01*
X156152769Y-129744500D01*
X156152767Y-129744500D01*
X155985233Y-129744500D01*
X155985230Y-129744500D01*
X155884524Y-129764532D01*
X155820918Y-129777184D01*
X155820917Y-129777184D01*
X155820914Y-129777185D01*
X155723266Y-129817633D01*
X155692585Y-129830342D01*
X155666135Y-129841298D01*
X155526838Y-129934373D01*
X155526832Y-129934378D01*
X155408378Y-130052832D01*
X155408373Y-130052838D01*
X155315298Y-130192135D01*
X155315297Y-130192137D01*
X155304263Y-130218776D01*
X155251185Y-130346914D01*
X155218500Y-130511230D01*
X154419499Y-130511230D01*
X154386816Y-130346918D01*
X154322703Y-130192137D01*
X154229626Y-130052838D01*
X154229621Y-130052832D01*
X154111167Y-129934378D01*
X154111161Y-129934373D01*
X154010472Y-129867095D01*
X153971863Y-129841297D01*
X153862420Y-129795964D01*
X153817085Y-129777185D01*
X153817083Y-129777184D01*
X153817082Y-129777184D01*
X153734368Y-129760731D01*
X153652769Y-129744500D01*
X153652767Y-129744500D01*
X153485233Y-129744500D01*
X153485230Y-129744500D01*
X153384524Y-129764532D01*
X153320918Y-129777184D01*
X153320917Y-129777184D01*
X153320914Y-129777185D01*
X153223266Y-129817633D01*
X153192585Y-129830342D01*
X153166135Y-129841298D01*
X153026838Y-129934373D01*
X153026832Y-129934378D01*
X152908378Y-130052832D01*
X152908373Y-130052838D01*
X152815298Y-130192135D01*
X152815297Y-130192137D01*
X152804263Y-130218776D01*
X152751185Y-130346914D01*
X152718500Y-130511230D01*
X150319499Y-130511230D01*
X150319499Y-129647128D01*
X150313091Y-129587517D01*
X150262796Y-129452669D01*
X150238721Y-129420509D01*
X150213909Y-129353992D01*
X150228999Y-129284618D01*
X150238716Y-129269497D01*
X150262796Y-129237331D01*
X150313091Y-129102483D01*
X150319500Y-129042873D01*
X150319499Y-127147128D01*
X150313091Y-127087517D01*
X150288891Y-127022633D01*
X150262798Y-126952673D01*
X150262796Y-126952670D01*
X150262796Y-126952669D01*
X150189759Y-126855104D01*
X150176546Y-126837453D01*
X150095328Y-126776654D01*
X150061331Y-126751204D01*
X150061329Y-126751203D01*
X150061326Y-126751201D01*
X149926483Y-126700909D01*
X149926486Y-126700909D01*
X149866878Y-126694500D01*
X147271135Y-126694500D01*
X147271114Y-126694502D01*
X147211519Y-126700908D01*
X147211518Y-126700908D01*
X147076673Y-126751201D01*
X147076670Y-126751203D01*
X146961453Y-126837453D01*
X146875203Y-126952670D01*
X146875201Y-126952673D01*
X146824909Y-127087515D01*
X146818500Y-127147121D01*
X146818500Y-129042864D01*
X146818502Y-129042885D01*
X146824908Y-129102480D01*
X146824908Y-129102481D01*
X146875203Y-129237330D01*
X146899278Y-129269491D01*
X146924089Y-129336011D01*
X146908998Y-129405385D01*
X146899278Y-129420509D01*
X146875203Y-129452669D01*
X146824909Y-129587515D01*
X146818500Y-129647121D01*
X146818500Y-129778000D01*
X146798498Y-129846121D01*
X146744842Y-129892614D01*
X146692500Y-129904000D01*
X145051848Y-129904000D01*
X144983727Y-129883998D01*
X144962753Y-129867095D01*
X144860190Y-129764532D01*
X144860185Y-129764528D01*
X144714606Y-129676522D01*
X144714603Y-129676521D01*
X144714602Y-129676520D01*
X144552193Y-129625913D01*
X144500855Y-129621248D01*
X144481616Y-129619500D01*
X143968384Y-129619500D01*
X143950747Y-129621102D01*
X143897806Y-129625913D01*
X143735397Y-129676520D01*
X143735396Y-129676521D01*
X143589814Y-129764528D01*
X143589809Y-129764532D01*
X143489095Y-129865247D01*
X143426783Y-129899273D01*
X143355968Y-129894208D01*
X143310905Y-129865247D01*
X143210190Y-129764532D01*
X143210185Y-129764528D01*
X143064606Y-129676522D01*
X143064603Y-129676521D01*
X143064602Y-129676520D01*
X142902193Y-129625913D01*
X142850855Y-129621248D01*
X142831616Y-129619500D01*
X142318384Y-129619500D01*
X142300747Y-129621102D01*
X142247806Y-129625913D01*
X142085397Y-129676520D01*
X142085396Y-129676521D01*
X141939814Y-129764528D01*
X141939809Y-129764532D01*
X141837247Y-129867095D01*
X141774935Y-129901121D01*
X141748152Y-129904000D01*
X140934893Y-129904000D01*
X140866772Y-129883998D01*
X140820279Y-129830342D01*
X140815293Y-129817647D01*
X140784814Y-129725666D01*
X140692712Y-129576344D01*
X140692711Y-129576343D01*
X140692706Y-129576337D01*
X140568662Y-129452293D01*
X140568656Y-129452288D01*
X140419334Y-129360185D01*
X140252803Y-129305002D01*
X140252791Y-129305000D01*
X140150017Y-129294500D01*
X137049990Y-129294500D01*
X136947202Y-129305000D01*
X136780665Y-129360185D01*
X136631343Y-129452288D01*
X136631337Y-129452293D01*
X136507293Y-129576337D01*
X136507288Y-129576343D01*
X136415185Y-129725665D01*
X136360002Y-129892196D01*
X136360000Y-129892208D01*
X136349500Y-129994982D01*
X135450498Y-129994982D01*
X135444931Y-129940488D01*
X135439999Y-129892202D01*
X135384814Y-129725665D01*
X135318432Y-129618043D01*
X135292712Y-129576344D01*
X135292711Y-129576343D01*
X135292706Y-129576337D01*
X135168662Y-129452293D01*
X135168656Y-129452288D01*
X135019334Y-129360185D01*
X134852803Y-129305002D01*
X134852791Y-129305000D01*
X134750017Y-129294500D01*
X134750009Y-129294500D01*
X134017000Y-129294500D01*
X133948879Y-129274498D01*
X133902386Y-129220842D01*
X133891000Y-129168500D01*
X133891000Y-125435889D01*
X133890999Y-125435886D01*
X133890109Y-125431413D01*
X133864445Y-125302391D01*
X133812356Y-125176637D01*
X133736734Y-125063461D01*
X133640487Y-124967214D01*
X133600494Y-124927221D01*
X141667001Y-124927221D01*
X141673481Y-124998553D01*
X141724633Y-125162706D01*
X141813578Y-125309840D01*
X141813586Y-125309850D01*
X141935149Y-125431413D01*
X141935159Y-125431421D01*
X142082293Y-125520366D01*
X142246446Y-125571518D01*
X142317781Y-125577999D01*
X142320999Y-125577999D01*
X142321000Y-125577998D01*
X142321000Y-124849000D01*
X141667001Y-124849000D01*
X141667001Y-124927221D01*
X133600494Y-124927221D01*
X132936050Y-124262777D01*
X141667000Y-124262777D01*
X141667000Y-124341000D01*
X142321000Y-124341000D01*
X142321000Y-123612000D01*
X142317768Y-123612001D01*
X142246446Y-123618481D01*
X142082293Y-123669633D01*
X141935159Y-123758578D01*
X141935149Y-123758586D01*
X141813586Y-123880149D01*
X141813578Y-123880159D01*
X141724633Y-124027293D01*
X141673481Y-124191446D01*
X141673481Y-124191447D01*
X141667000Y-124262777D01*
X132936050Y-124262777D01*
X132285273Y-123612000D01*
X128698568Y-120025293D01*
X128698562Y-120025288D01*
X128585385Y-119949666D01*
X128459634Y-119897578D01*
X128459631Y-119897577D01*
X128395473Y-119884815D01*
X128326135Y-119871022D01*
X128326132Y-119871022D01*
X128326000Y-119871022D01*
X128325933Y-119871002D01*
X128319977Y-119870416D01*
X128320088Y-119869286D01*
X128257879Y-119851020D01*
X128211386Y-119797364D01*
X128200000Y-119745022D01*
X128200000Y-119080043D01*
X128220002Y-119011922D01*
X128273658Y-118965429D01*
X128286368Y-118960438D01*
X128411887Y-118918845D01*
X128557728Y-118828890D01*
X128557734Y-118828885D01*
X128678885Y-118707734D01*
X128678890Y-118707728D01*
X128768847Y-118561884D01*
X128822742Y-118399241D01*
X128822744Y-118399229D01*
X128832999Y-118298852D01*
X128833000Y-118298852D01*
X128833000Y-118254000D01*
X128326000Y-118254000D01*
X128257879Y-118233998D01*
X128211386Y-118180342D01*
X128200000Y-118128000D01*
X128200000Y-117872000D01*
X128220002Y-117803879D01*
X128273658Y-117757386D01*
X128326000Y-117746000D01*
X128833000Y-117746000D01*
X128833000Y-117701147D01*
X128822744Y-117600770D01*
X128821303Y-117594036D01*
X128824222Y-117593410D01*
X128822264Y-117535618D01*
X128858602Y-117474626D01*
X128922147Y-117442962D01*
X128944293Y-117441000D01*
X129411588Y-117441000D01*
X129479709Y-117461002D01*
X129500683Y-117477905D01*
X129772095Y-117749317D01*
X129806121Y-117811629D01*
X129809000Y-117838412D01*
X129809000Y-120068060D01*
X129813832Y-120092351D01*
X129826197Y-120154513D01*
X129835555Y-120201557D01*
X129887644Y-120327311D01*
X129900743Y-120346914D01*
X129963266Y-120440488D01*
X129963271Y-120440494D01*
X130654505Y-121131728D01*
X130654508Y-121131730D01*
X130654513Y-121131735D01*
X130746600Y-121193265D01*
X130767689Y-121207356D01*
X130767690Y-121207356D01*
X130767691Y-121207357D01*
X130899162Y-121261814D01*
X130898410Y-121263628D01*
X130950188Y-121297547D01*
X130973850Y-121339591D01*
X131015185Y-121464334D01*
X131107288Y-121613656D01*
X131107293Y-121613662D01*
X131231337Y-121737706D01*
X131231343Y-121737711D01*
X131231344Y-121737712D01*
X131272772Y-121763265D01*
X131380665Y-121829814D01*
X131547196Y-121884997D01*
X131547197Y-121884997D01*
X131547203Y-121884999D01*
X131649991Y-121895500D01*
X134750008Y-121895499D01*
X134750009Y-121895499D01*
X134852797Y-121884999D01*
X135019334Y-121829814D01*
X135168656Y-121737712D01*
X135292712Y-121613656D01*
X135384814Y-121464334D01*
X135439999Y-121297797D01*
X135450500Y-121195009D01*
X135450499Y-119994992D01*
X135450498Y-119994982D01*
X136349500Y-119994982D01*
X136349500Y-121195009D01*
X136360000Y-121297797D01*
X136415185Y-121464334D01*
X136507288Y-121613656D01*
X136507293Y-121613662D01*
X136631337Y-121737706D01*
X136631343Y-121737711D01*
X136631344Y-121737712D01*
X136672772Y-121763265D01*
X136780665Y-121829814D01*
X136947196Y-121884997D01*
X136947197Y-121884997D01*
X136947203Y-121884999D01*
X137049991Y-121895500D01*
X140150008Y-121895499D01*
X140150009Y-121895499D01*
X140252797Y-121884999D01*
X140419334Y-121829814D01*
X140568656Y-121737712D01*
X140692712Y-121613656D01*
X140784814Y-121464334D01*
X140815289Y-121372364D01*
X140855702Y-121313996D01*
X140921259Y-121286740D01*
X140934893Y-121286000D01*
X141748152Y-121286000D01*
X141816273Y-121306002D01*
X141837247Y-121322905D01*
X141939809Y-121425467D01*
X141939813Y-121425470D01*
X141939815Y-121425472D01*
X142085394Y-121513478D01*
X142247804Y-121564086D01*
X142318384Y-121570500D01*
X142318387Y-121570500D01*
X142831613Y-121570500D01*
X142831616Y-121570500D01*
X142902196Y-121564086D01*
X143064606Y-121513478D01*
X143210185Y-121425472D01*
X143310906Y-121324750D01*
X143318978Y-121320343D01*
X143324491Y-121312979D01*
X143349649Y-121303595D01*
X143373216Y-121290727D01*
X143382391Y-121291383D01*
X143391011Y-121288168D01*
X143417250Y-121293875D01*
X143444032Y-121295791D01*
X143453230Y-121301702D01*
X143460385Y-121303259D01*
X143489095Y-121324752D01*
X143497095Y-121332752D01*
X143531121Y-121395064D01*
X143534000Y-121421847D01*
X143534000Y-123768152D01*
X143513998Y-123836273D01*
X143497095Y-123857247D01*
X143494398Y-123859944D01*
X143432086Y-123893970D01*
X143361271Y-123888905D01*
X143316208Y-123859944D01*
X143214850Y-123758586D01*
X143214840Y-123758578D01*
X143067706Y-123669633D01*
X142903552Y-123618481D01*
X142832223Y-123612000D01*
X142829000Y-123612000D01*
X142829000Y-125577999D01*
X142832222Y-125577999D01*
X142903553Y-125571518D01*
X143067706Y-125520366D01*
X143214840Y-125431421D01*
X143214850Y-125431413D01*
X143316208Y-125330056D01*
X143378520Y-125296030D01*
X143449335Y-125301095D01*
X143494398Y-125330056D01*
X143589809Y-125425467D01*
X143589814Y-125425471D01*
X143589815Y-125425472D01*
X143735394Y-125513478D01*
X143897804Y-125564086D01*
X143968384Y-125570500D01*
X143968387Y-125570500D01*
X144481613Y-125570500D01*
X144481616Y-125570500D01*
X144552196Y-125564086D01*
X144714606Y-125513478D01*
X144718325Y-125511230D01*
X147718500Y-125511230D01*
X147718500Y-125511233D01*
X147718500Y-125678767D01*
X147751184Y-125843082D01*
X147815297Y-125997863D01*
X147815298Y-125997864D01*
X147908373Y-126137161D01*
X147908378Y-126137167D01*
X148026832Y-126255621D01*
X148026838Y-126255626D01*
X148166137Y-126348703D01*
X148294357Y-126401814D01*
X148320915Y-126412815D01*
X148320916Y-126412815D01*
X148320918Y-126412816D01*
X148485233Y-126445500D01*
X148652767Y-126445500D01*
X148817082Y-126412816D01*
X148971863Y-126348703D01*
X149111162Y-126255626D01*
X149229626Y-126137162D01*
X149322703Y-125997863D01*
X149386816Y-125843082D01*
X149419500Y-125678767D01*
X149419500Y-125511233D01*
X149386816Y-125346918D01*
X149322703Y-125192137D01*
X149229626Y-125052838D01*
X149229621Y-125052832D01*
X149111167Y-124934378D01*
X149111161Y-124934373D01*
X148983391Y-124849000D01*
X148971863Y-124841297D01*
X148817082Y-124777184D01*
X148724963Y-124758860D01*
X148667846Y-124747499D01*
X148667844Y-124747499D01*
X148652767Y-124744500D01*
X148485233Y-124744500D01*
X148470156Y-124747499D01*
X148470152Y-124747499D01*
X148372157Y-124766991D01*
X148320918Y-124777184D01*
X148320916Y-124777184D01*
X148320915Y-124777185D01*
X148299101Y-124786221D01*
X148173105Y-124838411D01*
X148166135Y-124841298D01*
X148026838Y-124934373D01*
X148026832Y-124934378D01*
X147908378Y-125052832D01*
X147908373Y-125052838D01*
X147815298Y-125192135D01*
X147751185Y-125346914D01*
X147718500Y-125511230D01*
X144718325Y-125511230D01*
X144860185Y-125425472D01*
X144980472Y-125305185D01*
X145068478Y-125159606D01*
X145119086Y-124997196D01*
X145125500Y-124926616D01*
X145125500Y-124263384D01*
X145119086Y-124192804D01*
X145068478Y-124030394D01*
X144980472Y-123884815D01*
X144980471Y-123884814D01*
X144980467Y-123884809D01*
X144952905Y-123857247D01*
X144918879Y-123794935D01*
X144916000Y-123768152D01*
X144916000Y-121421847D01*
X144924787Y-121391920D01*
X144931416Y-121361456D01*
X144935226Y-121356365D01*
X144936002Y-121353726D01*
X144952904Y-121332752D01*
X144962757Y-121322900D01*
X145025071Y-121288878D01*
X145051848Y-121286000D01*
X146692501Y-121286000D01*
X146760622Y-121306002D01*
X146807115Y-121359658D01*
X146818501Y-121412000D01*
X146818501Y-121542864D01*
X146818502Y-121542885D01*
X146824908Y-121602480D01*
X146824908Y-121602481D01*
X146875203Y-121737330D01*
X146899278Y-121769491D01*
X146924089Y-121836011D01*
X146908998Y-121905385D01*
X146899278Y-121920509D01*
X146875203Y-121952669D01*
X146824909Y-122087515D01*
X146818500Y-122147121D01*
X146818500Y-124042864D01*
X146818502Y-124042885D01*
X146824908Y-124102480D01*
X146824908Y-124102481D01*
X146875201Y-124237326D01*
X146875203Y-124237329D01*
X146961453Y-124352546D01*
X147019061Y-124395671D01*
X147076669Y-124438796D01*
X147076671Y-124438796D01*
X147076673Y-124438798D01*
X147137030Y-124461309D01*
X147211514Y-124489090D01*
X147211517Y-124489091D01*
X147271127Y-124495500D01*
X149866872Y-124495499D01*
X149926483Y-124489091D01*
X150061331Y-124438796D01*
X150176546Y-124352546D01*
X150218575Y-124296402D01*
X152161000Y-124296402D01*
X152161000Y-125341000D01*
X153169000Y-125341000D01*
X153169000Y-125849000D01*
X152161000Y-125849000D01*
X152161000Y-126893597D01*
X152167505Y-126954093D01*
X152218555Y-127090964D01*
X152218555Y-127090965D01*
X152306095Y-127207904D01*
X152423034Y-127295444D01*
X152559906Y-127346494D01*
X152620402Y-127352999D01*
X152620415Y-127353000D01*
X153315000Y-127353000D01*
X153315000Y-126256686D01*
X153323394Y-126265080D01*
X153414606Y-126317741D01*
X153516339Y-126345000D01*
X153621661Y-126345000D01*
X153723394Y-126317741D01*
X153814606Y-126265080D01*
X153823000Y-126256686D01*
X153823000Y-127353000D01*
X154517585Y-127353000D01*
X154517597Y-127352999D01*
X154578093Y-127346494D01*
X154714964Y-127295444D01*
X154714965Y-127295444D01*
X154831904Y-127207904D01*
X154919444Y-127090965D01*
X154919444Y-127090964D01*
X154970494Y-126954093D01*
X154976999Y-126893597D01*
X154977000Y-126893585D01*
X154977000Y-125849000D01*
X153969000Y-125849000D01*
X153969000Y-125341000D01*
X154977000Y-125341000D01*
X154977000Y-124296414D01*
X154976999Y-124296402D01*
X154970494Y-124235906D01*
X154919444Y-124099035D01*
X154919444Y-124099034D01*
X154831904Y-123982095D01*
X154714965Y-123894555D01*
X154578093Y-123843505D01*
X154517597Y-123837000D01*
X153823000Y-123837000D01*
X153823000Y-124933314D01*
X153814606Y-124924920D01*
X153723394Y-124872259D01*
X153621661Y-124845000D01*
X153516339Y-124845000D01*
X153414606Y-124872259D01*
X153323394Y-124924920D01*
X153315000Y-124933314D01*
X153315000Y-123837000D01*
X152620402Y-123837000D01*
X152559906Y-123843505D01*
X152423035Y-123894555D01*
X152423034Y-123894555D01*
X152306095Y-123982095D01*
X152218555Y-124099034D01*
X152218555Y-124099035D01*
X152167505Y-124235906D01*
X152161000Y-124296402D01*
X150218575Y-124296402D01*
X150262796Y-124237331D01*
X150313091Y-124102483D01*
X150319500Y-124042873D01*
X150319499Y-122147128D01*
X150313091Y-122087517D01*
X150262796Y-121952669D01*
X150238721Y-121920509D01*
X150213909Y-121853992D01*
X150228999Y-121784618D01*
X150238716Y-121769497D01*
X150262796Y-121737331D01*
X150313091Y-121602483D01*
X150319500Y-121542873D01*
X150319499Y-120511230D01*
X152718500Y-120511230D01*
X152718500Y-120511233D01*
X152718500Y-120678767D01*
X152751184Y-120843082D01*
X152815297Y-120997863D01*
X152815298Y-120997864D01*
X152908373Y-121137161D01*
X152908378Y-121137167D01*
X153026832Y-121255621D01*
X153026838Y-121255626D01*
X153166137Y-121348703D01*
X153320918Y-121412816D01*
X153485233Y-121445500D01*
X153485234Y-121445500D01*
X153652766Y-121445500D01*
X153652767Y-121445500D01*
X153817082Y-121412816D01*
X153971863Y-121348703D01*
X154111162Y-121255626D01*
X154229626Y-121137162D01*
X154322703Y-120997863D01*
X154386816Y-120843082D01*
X154419500Y-120678767D01*
X154419500Y-120511233D01*
X154419499Y-120511230D01*
X155218500Y-120511230D01*
X155218500Y-120511233D01*
X155218500Y-120678767D01*
X155251184Y-120843082D01*
X155315297Y-120997863D01*
X155315298Y-120997864D01*
X155408373Y-121137161D01*
X155408378Y-121137167D01*
X155526832Y-121255621D01*
X155526838Y-121255626D01*
X155666137Y-121348703D01*
X155820918Y-121412816D01*
X155985233Y-121445500D01*
X155985234Y-121445500D01*
X156152766Y-121445500D01*
X156152767Y-121445500D01*
X156317082Y-121412816D01*
X156471863Y-121348703D01*
X156611162Y-121255626D01*
X156729626Y-121137162D01*
X156822703Y-120997863D01*
X156886816Y-120843082D01*
X156919500Y-120678767D01*
X156919500Y-120511233D01*
X156886816Y-120346918D01*
X156822703Y-120192137D01*
X156729626Y-120052838D01*
X156729621Y-120052832D01*
X156611167Y-119934378D01*
X156611161Y-119934373D01*
X156510472Y-119867095D01*
X156471863Y-119841297D01*
X156358097Y-119794173D01*
X156317085Y-119777185D01*
X156317083Y-119777184D01*
X156317082Y-119777184D01*
X156234368Y-119760731D01*
X156152769Y-119744500D01*
X156152767Y-119744500D01*
X155985233Y-119744500D01*
X155985230Y-119744500D01*
X155884524Y-119764532D01*
X155820918Y-119777184D01*
X155820917Y-119777184D01*
X155820914Y-119777185D01*
X155698189Y-119828020D01*
X155692585Y-119830342D01*
X155666135Y-119841298D01*
X155526838Y-119934373D01*
X155526832Y-119934378D01*
X155408378Y-120052832D01*
X155408373Y-120052838D01*
X155315298Y-120192135D01*
X155251185Y-120346914D01*
X155218500Y-120511230D01*
X154419499Y-120511230D01*
X154386816Y-120346918D01*
X154322703Y-120192137D01*
X154229626Y-120052838D01*
X154229621Y-120052832D01*
X154111167Y-119934378D01*
X154111161Y-119934373D01*
X154010472Y-119867095D01*
X153971863Y-119841297D01*
X153858097Y-119794173D01*
X153817085Y-119777185D01*
X153817083Y-119777184D01*
X153817082Y-119777184D01*
X153734368Y-119760731D01*
X153652769Y-119744500D01*
X153652767Y-119744500D01*
X153485233Y-119744500D01*
X153485230Y-119744500D01*
X153384524Y-119764532D01*
X153320918Y-119777184D01*
X153320917Y-119777184D01*
X153320914Y-119777185D01*
X153198189Y-119828020D01*
X153192585Y-119830342D01*
X153166135Y-119841298D01*
X153026838Y-119934373D01*
X153026832Y-119934378D01*
X152908378Y-120052832D01*
X152908373Y-120052838D01*
X152815298Y-120192135D01*
X152751185Y-120346914D01*
X152718500Y-120511230D01*
X150319499Y-120511230D01*
X150319499Y-119647128D01*
X150313091Y-119587517D01*
X150271730Y-119476621D01*
X150262798Y-119452673D01*
X150262796Y-119452670D01*
X150262796Y-119452669D01*
X150203838Y-119373911D01*
X150176546Y-119337453D01*
X150083376Y-119267707D01*
X150061331Y-119251204D01*
X150061329Y-119251203D01*
X150061326Y-119251201D01*
X149926483Y-119200909D01*
X149926486Y-119200909D01*
X149866873Y-119194500D01*
X147271135Y-119194500D01*
X147271114Y-119194502D01*
X147211519Y-119200908D01*
X147211518Y-119200908D01*
X147076673Y-119251201D01*
X147076670Y-119251203D01*
X146961453Y-119337453D01*
X146875203Y-119452670D01*
X146875201Y-119452673D01*
X146824909Y-119587515D01*
X146818500Y-119647121D01*
X146818500Y-119778000D01*
X146798498Y-119846121D01*
X146744842Y-119892614D01*
X146692500Y-119904000D01*
X145051848Y-119904000D01*
X144983727Y-119883998D01*
X144962753Y-119867095D01*
X144860190Y-119764532D01*
X144860185Y-119764528D01*
X144827918Y-119745022D01*
X144714606Y-119676522D01*
X144714603Y-119676521D01*
X144714602Y-119676520D01*
X144552193Y-119625913D01*
X144500855Y-119621248D01*
X144481616Y-119619500D01*
X143968384Y-119619500D01*
X143950747Y-119621102D01*
X143897806Y-119625913D01*
X143735397Y-119676520D01*
X143735396Y-119676521D01*
X143735394Y-119676521D01*
X143735394Y-119676522D01*
X143697988Y-119699134D01*
X143589814Y-119764528D01*
X143589809Y-119764532D01*
X143489095Y-119865247D01*
X143426783Y-119899273D01*
X143355968Y-119894208D01*
X143310905Y-119865247D01*
X143210190Y-119764532D01*
X143210185Y-119764528D01*
X143177918Y-119745022D01*
X143064606Y-119676522D01*
X143064603Y-119676521D01*
X143064602Y-119676520D01*
X142902193Y-119625913D01*
X142850855Y-119621248D01*
X142831616Y-119619500D01*
X142318384Y-119619500D01*
X142300747Y-119621102D01*
X142247806Y-119625913D01*
X142085397Y-119676520D01*
X142085396Y-119676521D01*
X142085394Y-119676521D01*
X142085394Y-119676522D01*
X142047988Y-119699134D01*
X141939814Y-119764528D01*
X141939809Y-119764532D01*
X141837247Y-119867095D01*
X141774935Y-119901121D01*
X141748152Y-119904000D01*
X140934893Y-119904000D01*
X140866772Y-119883998D01*
X140820279Y-119830342D01*
X140815293Y-119817647D01*
X140784814Y-119725666D01*
X140692712Y-119576344D01*
X140692711Y-119576343D01*
X140692706Y-119576337D01*
X140568662Y-119452293D01*
X140568656Y-119452288D01*
X140419334Y-119360185D01*
X140252803Y-119305002D01*
X140252791Y-119305000D01*
X140150017Y-119294500D01*
X137049990Y-119294500D01*
X136947202Y-119305000D01*
X136780665Y-119360185D01*
X136631343Y-119452288D01*
X136631337Y-119452293D01*
X136507293Y-119576337D01*
X136507288Y-119576343D01*
X136415185Y-119725665D01*
X136360002Y-119892196D01*
X136360000Y-119892208D01*
X136349500Y-119994982D01*
X135450498Y-119994982D01*
X135445113Y-119942271D01*
X135439999Y-119892202D01*
X135384814Y-119725665D01*
X135319331Y-119619500D01*
X135292712Y-119576344D01*
X135292711Y-119576343D01*
X135292706Y-119576337D01*
X135168662Y-119452293D01*
X135168656Y-119452288D01*
X135019334Y-119360185D01*
X134852803Y-119305002D01*
X134852791Y-119305000D01*
X134750017Y-119294500D01*
X131649990Y-119294500D01*
X131547202Y-119305000D01*
X131380662Y-119360186D01*
X131374009Y-119363289D01*
X131373127Y-119361397D01*
X131314661Y-119377392D01*
X131246923Y-119356129D01*
X131201434Y-119301619D01*
X131191000Y-119251414D01*
X131191000Y-117431941D01*
X131190999Y-117431938D01*
X131190463Y-117429244D01*
X131164445Y-117298443D01*
X131112356Y-117172689D01*
X131112354Y-117172686D01*
X131106369Y-117163728D01*
X131106369Y-117163727D01*
X131036740Y-117059518D01*
X131036731Y-117059508D01*
X130190494Y-116213271D01*
X130190488Y-116213266D01*
X130190485Y-116213264D01*
X130077311Y-116137644D01*
X130000276Y-116105735D01*
X129951560Y-116085556D01*
X129951557Y-116085555D01*
X129818061Y-116059000D01*
X129818058Y-116059000D01*
X121181942Y-116059000D01*
X121181938Y-116059000D01*
X121048442Y-116085555D01*
X121048439Y-116085556D01*
X120922688Y-116137644D01*
X120809515Y-116213264D01*
X120809513Y-116213265D01*
X120423264Y-116599513D01*
X120368189Y-116681942D01*
X120368188Y-116681943D01*
X120347644Y-116712689D01*
X120295556Y-116838439D01*
X120295555Y-116838442D01*
X120269000Y-116971938D01*
X120269000Y-118202325D01*
X120248998Y-118270446D01*
X120195342Y-118316939D01*
X120143000Y-118328325D01*
X119794438Y-118328325D01*
X119660942Y-118354880D01*
X119660939Y-118354881D01*
X119535188Y-118406969D01*
X119422015Y-118482589D01*
X119422007Y-118482595D01*
X119153263Y-118751339D01*
X119105405Y-118822967D01*
X119105404Y-118822967D01*
X119077646Y-118864509D01*
X119077644Y-118864513D01*
X119025556Y-118990264D01*
X119025555Y-118990267D01*
X118999000Y-119123763D01*
X118999000Y-119339440D01*
X118981454Y-119403578D01*
X118938256Y-119476621D01*
X118892401Y-119634453D01*
X118892401Y-119634454D01*
X118889500Y-119671328D01*
X118889500Y-121411522D01*
X118869498Y-121479643D01*
X118815842Y-121526136D01*
X118763500Y-121537522D01*
X118115724Y-121537522D01*
X118085808Y-121528738D01*
X118055339Y-121522110D01*
X118050243Y-121518295D01*
X118047603Y-121517520D01*
X118026629Y-121500617D01*
X118020410Y-121494398D01*
X117986384Y-121432086D01*
X117991449Y-121361271D01*
X118020416Y-121316201D01*
X118028891Y-121307727D01*
X118118847Y-121161884D01*
X118172742Y-120999241D01*
X118172744Y-120999229D01*
X118182999Y-120898852D01*
X118183000Y-120898852D01*
X118183000Y-120879000D01*
X116217000Y-120879000D01*
X116217000Y-120898852D01*
X116227255Y-120999229D01*
X116227256Y-120999232D01*
X116269881Y-121127867D01*
X116272321Y-121198822D01*
X116236013Y-121259832D01*
X116172484Y-121291527D01*
X116150276Y-121293500D01*
X109038178Y-121293500D01*
X108979435Y-121305184D01*
X108979436Y-121305185D01*
X108867875Y-121327376D01*
X108867872Y-121327377D01*
X108759257Y-121372367D01*
X108707453Y-121393825D01*
X108564130Y-121489591D01*
X108563428Y-121490059D01*
X108563074Y-121490296D01*
X108563068Y-121490301D01*
X104515298Y-125538071D01*
X104515293Y-125538077D01*
X104418825Y-125682452D01*
X104352375Y-125842877D01*
X104352374Y-125842880D01*
X104343298Y-125888514D01*
X104343298Y-125888516D01*
X104318500Y-126013181D01*
X104318500Y-138492500D01*
X104298498Y-138560621D01*
X104244842Y-138607114D01*
X104192500Y-138618500D01*
X63413175Y-138618500D01*
X63242875Y-138652376D01*
X63242872Y-138652377D01*
X63082452Y-138718825D01*
X62938074Y-138815295D01*
X62938068Y-138815300D01*
X61775300Y-139978068D01*
X61775295Y-139978074D01*
X61678825Y-140122452D01*
X61612377Y-140282872D01*
X61612376Y-140282873D01*
X61591313Y-140388761D01*
X61558404Y-140451670D01*
X61556830Y-140453273D01*
X61429896Y-140580207D01*
X61304951Y-140752180D01*
X61208444Y-140941586D01*
X61208443Y-140941588D01*
X61166212Y-141071562D01*
X61142754Y-141143757D01*
X61109500Y-141353713D01*
X61109500Y-141566287D01*
X61142754Y-141776243D01*
X61208443Y-141978412D01*
X61304949Y-142167816D01*
X61304951Y-142167819D01*
X61412382Y-142315686D01*
X61429896Y-142339792D01*
X61541596Y-142451492D01*
X61575620Y-142513802D01*
X61578500Y-142540586D01*
X61578500Y-142919413D01*
X61558498Y-142987534D01*
X61541595Y-143008508D01*
X61429900Y-143120202D01*
X61429898Y-143120205D01*
X61304951Y-143292180D01*
X61208444Y-143481586D01*
X61208443Y-143481588D01*
X61149571Y-143662778D01*
X61142754Y-143683757D01*
X61109500Y-143893713D01*
X61109500Y-144106287D01*
X61142754Y-144316243D01*
X61208443Y-144518412D01*
X61304024Y-144706000D01*
X61304951Y-144707819D01*
X61387266Y-144821116D01*
X61429896Y-144879792D01*
X61541596Y-144991492D01*
X61575620Y-145053802D01*
X61578500Y-145080586D01*
X61578500Y-145459413D01*
X61558498Y-145527534D01*
X61541595Y-145548508D01*
X61429900Y-145660202D01*
X61429898Y-145660205D01*
X61304951Y-145832180D01*
X61208444Y-146021586D01*
X61208443Y-146021588D01*
X61160215Y-146170019D01*
X61142754Y-146223757D01*
X61109500Y-146433713D01*
X61109500Y-146646287D01*
X61142754Y-146856243D01*
X61208443Y-147058412D01*
X61304949Y-147247816D01*
X61304951Y-147247819D01*
X61429896Y-147419792D01*
X61541596Y-147531492D01*
X61575620Y-147593802D01*
X61578500Y-147620586D01*
X61578500Y-147999413D01*
X61558498Y-148067534D01*
X61541595Y-148088508D01*
X61429900Y-148200202D01*
X61429898Y-148200205D01*
X61304951Y-148372180D01*
X61246556Y-148486786D01*
X61208443Y-148561588D01*
X61142754Y-148763757D01*
X61109500Y-148973713D01*
X61109500Y-149186287D01*
X61142754Y-149396243D01*
X61208443Y-149598412D01*
X61304949Y-149787816D01*
X61304951Y-149787819D01*
X61402075Y-149921500D01*
X61429896Y-149959792D01*
X61541596Y-150071492D01*
X61575620Y-150133802D01*
X61578500Y-150160586D01*
X61578500Y-150539413D01*
X61558498Y-150607534D01*
X61541595Y-150628508D01*
X61429900Y-150740202D01*
X61429898Y-150740205D01*
X61304951Y-150912180D01*
X61304949Y-150912184D01*
X61208443Y-151101588D01*
X61142754Y-151303757D01*
X61109500Y-151513713D01*
X61109500Y-151726287D01*
X61142754Y-151936243D01*
X61208443Y-152138412D01*
X61304949Y-152327816D01*
X61304951Y-152327819D01*
X61330770Y-152363356D01*
X61429896Y-152499792D01*
X61541596Y-152611492D01*
X61575620Y-152673802D01*
X61578500Y-152700586D01*
X61578500Y-153079413D01*
X61558498Y-153147534D01*
X61541595Y-153168508D01*
X61429900Y-153280202D01*
X61429898Y-153280205D01*
X61304951Y-153452180D01*
X61208444Y-153641586D01*
X61208443Y-153641588D01*
X61174059Y-153747412D01*
X61142754Y-153843757D01*
X61109500Y-154053713D01*
X61109500Y-154266287D01*
X61142754Y-154476243D01*
X61208443Y-154678412D01*
X61304949Y-154867816D01*
X61304951Y-154867819D01*
X61330885Y-154903514D01*
X61429896Y-155039792D01*
X61429898Y-155039794D01*
X61429900Y-155039797D01*
X61580202Y-155190099D01*
X61580205Y-155190101D01*
X61580208Y-155190104D01*
X61752184Y-155315051D01*
X61941588Y-155411557D01*
X62143757Y-155477246D01*
X62353713Y-155510500D01*
X62353716Y-155510500D01*
X62566284Y-155510500D01*
X62566287Y-155510500D01*
X62776243Y-155477246D01*
X62978412Y-155411557D01*
X63167816Y-155315051D01*
X63339792Y-155190104D01*
X63451127Y-155078768D01*
X63513437Y-155044745D01*
X63584253Y-155049809D01*
X63641089Y-155092356D01*
X63658277Y-155123833D01*
X63706202Y-155252328D01*
X63706203Y-155252329D01*
X63792453Y-155367546D01*
X63835795Y-155399991D01*
X63907669Y-155453796D01*
X63907671Y-155453796D01*
X63907673Y-155453798D01*
X63968030Y-155476309D01*
X64042514Y-155504090D01*
X64042517Y-155504091D01*
X64102127Y-155510500D01*
X65897872Y-155510499D01*
X65957483Y-155504091D01*
X66092331Y-155453796D01*
X66207546Y-155367546D01*
X66293796Y-155252331D01*
X66344091Y-155117483D01*
X66350500Y-155057873D01*
X66350500Y-154817000D01*
X66370502Y-154748879D01*
X66424158Y-154702386D01*
X66476500Y-154691000D01*
X71348152Y-154691000D01*
X71378067Y-154699783D01*
X71408537Y-154706412D01*
X71413632Y-154710226D01*
X71416273Y-154711002D01*
X71437247Y-154727905D01*
X71464818Y-154755476D01*
X71498844Y-154817788D01*
X71499300Y-154819981D01*
X71501386Y-154830464D01*
X71501388Y-154830472D01*
X71510555Y-154876557D01*
X71510556Y-154876559D01*
X71510556Y-154876560D01*
X71562644Y-155002311D01*
X71638266Y-155115488D01*
X71638271Y-155115494D01*
X72259508Y-155736731D01*
X72259512Y-155736734D01*
X72259513Y-155736735D01*
X72326595Y-155781557D01*
X72372689Y-155812356D01*
X72498443Y-155864445D01*
X72631942Y-155891000D01*
X75668058Y-155891000D01*
X75801557Y-155864445D01*
X75927311Y-155812356D01*
X75973405Y-155781557D01*
X76040487Y-155736735D01*
X79384905Y-152392317D01*
X79447217Y-152358291D01*
X79518032Y-152363356D01*
X79574868Y-152405903D01*
X79599679Y-152472423D01*
X79600000Y-152481412D01*
X79600000Y-154399999D01*
X79600000Y-154400000D01*
X79624956Y-154400288D01*
X79692839Y-154421074D01*
X79738710Y-154475262D01*
X79749500Y-154526279D01*
X79749500Y-155940693D01*
X79752401Y-155977567D01*
X79752401Y-155977568D01*
X79798257Y-156135401D01*
X79881917Y-156276863D01*
X79881923Y-156276870D01*
X79998129Y-156393076D01*
X79998136Y-156393082D01*
X80139598Y-156476742D01*
X80139599Y-156476742D01*
X80139602Y-156476744D01*
X80297431Y-156522598D01*
X80334306Y-156525500D01*
X80334307Y-156525500D01*
X80765693Y-156525500D01*
X80765694Y-156525500D01*
X80802569Y-156522598D01*
X80960398Y-156476744D01*
X80960401Y-156476741D01*
X80967846Y-156474579D01*
X81038843Y-156474782D01*
X81098459Y-156513335D01*
X81127768Y-156578000D01*
X81129000Y-156595576D01*
X81129000Y-162268531D01*
X81108998Y-162336652D01*
X81077061Y-162370467D01*
X80940205Y-162469898D01*
X80940202Y-162469900D01*
X80789900Y-162620202D01*
X80789898Y-162620205D01*
X80664949Y-162792183D01*
X80662265Y-162797451D01*
X80613516Y-162849065D01*
X80544600Y-162866129D01*
X80477399Y-162843226D01*
X80437735Y-162797451D01*
X80435050Y-162792183D01*
X80435048Y-162792180D01*
X80310104Y-162620208D01*
X80310101Y-162620205D01*
X80310099Y-162620202D01*
X80159797Y-162469900D01*
X80159794Y-162469898D01*
X80159792Y-162469896D01*
X79987816Y-162344949D01*
X79798412Y-162248443D01*
X79596243Y-162182754D01*
X79386287Y-162149500D01*
X79173713Y-162149500D01*
X78963757Y-162182754D01*
X78963754Y-162182754D01*
X78963753Y-162182755D01*
X78761588Y-162248443D01*
X78761586Y-162248444D01*
X78572180Y-162344951D01*
X78400205Y-162469898D01*
X78400202Y-162469900D01*
X78249900Y-162620202D01*
X78249898Y-162620205D01*
X78124949Y-162792183D01*
X78122265Y-162797451D01*
X78073516Y-162849065D01*
X78004600Y-162866129D01*
X77937399Y-162843226D01*
X77897735Y-162797451D01*
X77895050Y-162792183D01*
X77895048Y-162792180D01*
X77770104Y-162620208D01*
X77770101Y-162620205D01*
X77770099Y-162620202D01*
X77619797Y-162469900D01*
X77619794Y-162469898D01*
X77619792Y-162469896D01*
X77447816Y-162344949D01*
X77258412Y-162248443D01*
X77056243Y-162182754D01*
X76846287Y-162149500D01*
X76633713Y-162149500D01*
X76423757Y-162182754D01*
X76423754Y-162182754D01*
X76423753Y-162182755D01*
X76221588Y-162248443D01*
X76221586Y-162248444D01*
X76032180Y-162344951D01*
X75860205Y-162469898D01*
X75860202Y-162469900D01*
X75709900Y-162620202D01*
X75709898Y-162620205D01*
X75584949Y-162792183D01*
X75582265Y-162797451D01*
X75533516Y-162849065D01*
X75464600Y-162866129D01*
X75397399Y-162843226D01*
X75357735Y-162797451D01*
X75355050Y-162792183D01*
X75355048Y-162792180D01*
X75230104Y-162620208D01*
X75230101Y-162620205D01*
X75230099Y-162620202D01*
X75079797Y-162469900D01*
X75079794Y-162469898D01*
X75079792Y-162469896D01*
X74907816Y-162344949D01*
X74718412Y-162248443D01*
X74516243Y-162182754D01*
X74306287Y-162149500D01*
X74093713Y-162149500D01*
X73883757Y-162182754D01*
X73883754Y-162182754D01*
X73883753Y-162182755D01*
X73681588Y-162248443D01*
X73681586Y-162248444D01*
X73492180Y-162344951D01*
X73320205Y-162469898D01*
X73320202Y-162469900D01*
X73169900Y-162620202D01*
X73169898Y-162620205D01*
X73044949Y-162792183D01*
X73042265Y-162797451D01*
X72993516Y-162849065D01*
X72924600Y-162866129D01*
X72857399Y-162843226D01*
X72817735Y-162797451D01*
X72815050Y-162792183D01*
X72815048Y-162792180D01*
X72690104Y-162620208D01*
X72690101Y-162620205D01*
X72690099Y-162620202D01*
X72539797Y-162469900D01*
X72539794Y-162469898D01*
X72539792Y-162469896D01*
X72367816Y-162344949D01*
X72178412Y-162248443D01*
X71976243Y-162182754D01*
X71766287Y-162149500D01*
X71553713Y-162149500D01*
X71343757Y-162182754D01*
X71343754Y-162182754D01*
X71343753Y-162182755D01*
X71141588Y-162248443D01*
X71141586Y-162248444D01*
X70952180Y-162344951D01*
X70780205Y-162469898D01*
X70780202Y-162469900D01*
X70629900Y-162620202D01*
X70629898Y-162620205D01*
X70504949Y-162792183D01*
X70502265Y-162797451D01*
X70453516Y-162849065D01*
X70384600Y-162866129D01*
X70317399Y-162843226D01*
X70277735Y-162797451D01*
X70275050Y-162792183D01*
X70275048Y-162792180D01*
X70150104Y-162620208D01*
X70150101Y-162620205D01*
X70150099Y-162620202D01*
X69999797Y-162469900D01*
X69999794Y-162469898D01*
X69999792Y-162469896D01*
X69827816Y-162344949D01*
X69638412Y-162248443D01*
X69436243Y-162182754D01*
X69226287Y-162149500D01*
X69013713Y-162149500D01*
X68803757Y-162182754D01*
X68803754Y-162182754D01*
X68803753Y-162182755D01*
X68601588Y-162248443D01*
X68601586Y-162248444D01*
X68412180Y-162344951D01*
X68240205Y-162469898D01*
X68240202Y-162469900D01*
X68089900Y-162620202D01*
X68089898Y-162620205D01*
X67964949Y-162792183D01*
X67962265Y-162797451D01*
X67913516Y-162849065D01*
X67844600Y-162866129D01*
X67777399Y-162843226D01*
X67737735Y-162797451D01*
X67735050Y-162792183D01*
X67735048Y-162792180D01*
X67610104Y-162620208D01*
X67610101Y-162620205D01*
X67610099Y-162620202D01*
X67459797Y-162469900D01*
X67459794Y-162469898D01*
X67459792Y-162469896D01*
X67287816Y-162344949D01*
X67098412Y-162248443D01*
X66896243Y-162182754D01*
X66686287Y-162149500D01*
X66473713Y-162149500D01*
X66263757Y-162182754D01*
X66263754Y-162182754D01*
X66263753Y-162182755D01*
X66061588Y-162248443D01*
X66061586Y-162248444D01*
X65872180Y-162344951D01*
X65700205Y-162469898D01*
X65700202Y-162469900D01*
X65549900Y-162620202D01*
X65549898Y-162620205D01*
X65424949Y-162792183D01*
X65422265Y-162797451D01*
X65373516Y-162849065D01*
X65304600Y-162866129D01*
X65237399Y-162843226D01*
X65197735Y-162797451D01*
X65195050Y-162792183D01*
X65195048Y-162792180D01*
X65070104Y-162620208D01*
X65070101Y-162620205D01*
X65070099Y-162620202D01*
X64919797Y-162469900D01*
X64919794Y-162469898D01*
X64919792Y-162469896D01*
X64747816Y-162344949D01*
X64558412Y-162248443D01*
X64356243Y-162182754D01*
X64146287Y-162149500D01*
X63933713Y-162149500D01*
X63723757Y-162182754D01*
X63723754Y-162182754D01*
X63723753Y-162182755D01*
X63521588Y-162248443D01*
X63521586Y-162248444D01*
X63332180Y-162344951D01*
X63160207Y-162469896D01*
X63048873Y-162581230D01*
X62986561Y-162615255D01*
X62915745Y-162610189D01*
X62858909Y-162567643D01*
X62841722Y-162536165D01*
X62793798Y-162407673D01*
X62793796Y-162407670D01*
X62793796Y-162407669D01*
X62723859Y-162314245D01*
X62707546Y-162292453D01*
X62630591Y-162234845D01*
X62592331Y-162206204D01*
X62592329Y-162206203D01*
X62592326Y-162206201D01*
X62457483Y-162155909D01*
X62457486Y-162155909D01*
X62397878Y-162149500D01*
X60626500Y-162149500D01*
X60558379Y-162129498D01*
X60511886Y-162075842D01*
X60500500Y-162023500D01*
X60500500Y-131760709D01*
X63181500Y-131760709D01*
X63181500Y-132003290D01*
X63213160Y-132243782D01*
X63275944Y-132478095D01*
X63275945Y-132478097D01*
X63275946Y-132478100D01*
X63368776Y-132702212D01*
X63368777Y-132702213D01*
X63368782Y-132702224D01*
X63490061Y-132912285D01*
X63490063Y-132912288D01*
X63490064Y-132912289D01*
X63637735Y-133104738D01*
X63637739Y-133104742D01*
X63637744Y-133104748D01*
X63809251Y-133276255D01*
X63809256Y-133276259D01*
X63809262Y-133276265D01*
X63987910Y-133413346D01*
X64001714Y-133423938D01*
X64211775Y-133545217D01*
X64211779Y-133545218D01*
X64211788Y-133545224D01*
X64435900Y-133638054D01*
X64670211Y-133700838D01*
X64670215Y-133700838D01*
X64670217Y-133700839D01*
X64732202Y-133708999D01*
X64910712Y-133732500D01*
X64910719Y-133732500D01*
X65153281Y-133732500D01*
X65153288Y-133732500D01*
X65370637Y-133703885D01*
X65393782Y-133700839D01*
X65393782Y-133700838D01*
X65393789Y-133700838D01*
X65628100Y-133638054D01*
X65852212Y-133545224D01*
X66062289Y-133423936D01*
X66254738Y-133276265D01*
X66426265Y-133104738D01*
X66573936Y-132912289D01*
X66695224Y-132702212D01*
X66788054Y-132478100D01*
X66850838Y-132243789D01*
X66882500Y-132003288D01*
X66882500Y-131760712D01*
X66853822Y-131542878D01*
X66850839Y-131520217D01*
X66850838Y-131520215D01*
X66850838Y-131520211D01*
X66788054Y-131285900D01*
X66695224Y-131061788D01*
X66695218Y-131061779D01*
X66695217Y-131061775D01*
X66573938Y-130851714D01*
X66567317Y-130843085D01*
X66426265Y-130659262D01*
X66426259Y-130659256D01*
X66426255Y-130659251D01*
X66254748Y-130487744D01*
X66254742Y-130487739D01*
X66254738Y-130487735D01*
X66062289Y-130340064D01*
X66062288Y-130340063D01*
X66062285Y-130340061D01*
X65852224Y-130218782D01*
X65852216Y-130218778D01*
X65852212Y-130218776D01*
X65628100Y-130125946D01*
X65628097Y-130125945D01*
X65628095Y-130125944D01*
X65393782Y-130063160D01*
X65153290Y-130031500D01*
X65153288Y-130031500D01*
X64910712Y-130031500D01*
X64910709Y-130031500D01*
X64670217Y-130063160D01*
X64435904Y-130125944D01*
X64435900Y-130125946D01*
X64276101Y-130192137D01*
X64211786Y-130218777D01*
X64211775Y-130218782D01*
X64001714Y-130340061D01*
X63809262Y-130487735D01*
X63809251Y-130487744D01*
X63637744Y-130659251D01*
X63637735Y-130659262D01*
X63490061Y-130851714D01*
X63368782Y-131061775D01*
X63368777Y-131061786D01*
X63368776Y-131061788D01*
X63315598Y-131190172D01*
X63275946Y-131285900D01*
X63275944Y-131285904D01*
X63213160Y-131520217D01*
X63181500Y-131760709D01*
X60500500Y-131760709D01*
X60500500Y-130259504D01*
X60520502Y-130191383D01*
X60537405Y-130170409D01*
X70356667Y-120351147D01*
X116217000Y-120351147D01*
X116217000Y-120371000D01*
X116946000Y-120371000D01*
X117454000Y-120371000D01*
X118183000Y-120371000D01*
X118183000Y-120351147D01*
X118172744Y-120250770D01*
X118172742Y-120250758D01*
X118118847Y-120088115D01*
X118028890Y-119942271D01*
X118028885Y-119942265D01*
X117907734Y-119821114D01*
X117907728Y-119821109D01*
X117761884Y-119731152D01*
X117599241Y-119677257D01*
X117599229Y-119677255D01*
X117498852Y-119667000D01*
X117454000Y-119667000D01*
X117454000Y-120371000D01*
X116946000Y-120371000D01*
X116946000Y-119667000D01*
X116901147Y-119667000D01*
X116800770Y-119677255D01*
X116800758Y-119677257D01*
X116638115Y-119731152D01*
X116492271Y-119821109D01*
X116492265Y-119821114D01*
X116371114Y-119942265D01*
X116371109Y-119942271D01*
X116281152Y-120088115D01*
X116227257Y-120250758D01*
X116227255Y-120250770D01*
X116217000Y-120351147D01*
X70356667Y-120351147D01*
X75170409Y-115537405D01*
X75232721Y-115503379D01*
X75259504Y-115500500D01*
X154434108Y-115500500D01*
X154497404Y-115500500D01*
X154502611Y-115500608D01*
G37*
%TD.AperFunction*%
%TA.AperFunction,Conductor*%
G36*
X128929936Y-144622261D02*
G01*
X128933041Y-144625262D01*
X135209514Y-150901735D01*
X135247111Y-150926857D01*
X135248108Y-150927551D01*
X135269595Y-150954302D01*
X135291614Y-150980648D01*
X135291772Y-150981910D01*
X135292569Y-150982902D01*
X135296184Y-151017030D01*
X135300463Y-151051091D01*
X135299923Y-151052331D01*
X135300048Y-151053503D01*
X135295361Y-151062827D01*
X135281264Y-151095265D01*
X135283409Y-151096534D01*
X135197319Y-151242105D01*
X135152347Y-151396896D01*
X135152345Y-151396908D01*
X135149500Y-151433055D01*
X135149500Y-151836933D01*
X135152345Y-151873096D01*
X135170692Y-151936246D01*
X135197319Y-152027894D01*
X135279374Y-152166643D01*
X135279377Y-152166646D01*
X135279378Y-152166648D01*
X135293635Y-152180905D01*
X135327661Y-152243217D01*
X135322596Y-152314032D01*
X135293635Y-152359095D01*
X135279378Y-152373351D01*
X135279377Y-152373353D01*
X135279375Y-152373355D01*
X135279374Y-152373357D01*
X135260127Y-152405903D01*
X135197319Y-152512105D01*
X135152347Y-152666896D01*
X135152345Y-152666908D01*
X135149500Y-152703055D01*
X135149500Y-153106933D01*
X135152345Y-153143096D01*
X135186928Y-153262128D01*
X135197319Y-153297894D01*
X135279374Y-153436643D01*
X135279377Y-153436646D01*
X135279378Y-153436648D01*
X135293635Y-153450905D01*
X135327661Y-153513217D01*
X135322596Y-153584032D01*
X135293635Y-153629095D01*
X135279378Y-153643351D01*
X135279377Y-153643353D01*
X135279375Y-153643355D01*
X135279374Y-153643357D01*
X135249496Y-153693879D01*
X135197319Y-153782105D01*
X135152347Y-153936896D01*
X135152345Y-153936908D01*
X135149500Y-153973055D01*
X135149500Y-154376933D01*
X135152345Y-154413096D01*
X135197319Y-154567894D01*
X135279374Y-154706643D01*
X135279377Y-154706646D01*
X135279378Y-154706648D01*
X135293635Y-154720905D01*
X135327661Y-154783217D01*
X135322596Y-154854032D01*
X135293635Y-154899095D01*
X135279378Y-154913351D01*
X135279377Y-154913353D01*
X135279375Y-154913355D01*
X135279374Y-154913357D01*
X135265450Y-154936902D01*
X135197319Y-155052105D01*
X135152347Y-155206896D01*
X135152345Y-155206908D01*
X135149500Y-155243055D01*
X135149500Y-155646933D01*
X135152345Y-155683096D01*
X135152346Y-155683098D01*
X135197319Y-155837894D01*
X135279374Y-155976643D01*
X135279377Y-155976646D01*
X135279378Y-155976648D01*
X135293635Y-155990905D01*
X135327661Y-156053217D01*
X135322596Y-156124032D01*
X135293635Y-156169095D01*
X135279378Y-156183351D01*
X135279377Y-156183353D01*
X135279375Y-156183355D01*
X135279374Y-156183357D01*
X135237596Y-156254000D01*
X135197319Y-156322105D01*
X135152347Y-156476896D01*
X135152345Y-156476908D01*
X135149500Y-156513055D01*
X135149500Y-156916933D01*
X135152345Y-156953096D01*
X135197320Y-157107897D01*
X135200468Y-157115172D01*
X135198067Y-157116210D01*
X135212393Y-157172677D01*
X135189876Y-157240008D01*
X135134532Y-157284478D01*
X135086480Y-157294000D01*
X134646938Y-157294000D01*
X134532440Y-157316775D01*
X134532439Y-157316776D01*
X134519774Y-157319295D01*
X134513441Y-157320555D01*
X134387687Y-157372644D01*
X134274517Y-157448262D01*
X134274510Y-157448267D01*
X132083268Y-159639508D01*
X132083265Y-159639512D01*
X132024602Y-159727310D01*
X132024601Y-159727310D01*
X132007646Y-159752684D01*
X132007644Y-159752688D01*
X131955556Y-159878439D01*
X131955555Y-159878442D01*
X131929000Y-160011938D01*
X131929000Y-162268531D01*
X131908998Y-162336652D01*
X131877061Y-162370467D01*
X131740205Y-162469898D01*
X131740202Y-162469900D01*
X131589900Y-162620202D01*
X131589898Y-162620205D01*
X131464949Y-162792183D01*
X131462265Y-162797451D01*
X131413516Y-162849065D01*
X131344600Y-162866129D01*
X131277399Y-162843226D01*
X131237735Y-162797451D01*
X131235050Y-162792183D01*
X131235048Y-162792180D01*
X131110104Y-162620208D01*
X131110101Y-162620205D01*
X131110099Y-162620202D01*
X130959797Y-162469900D01*
X130959794Y-162469898D01*
X130959792Y-162469896D01*
X130787816Y-162344949D01*
X130598412Y-162248443D01*
X130396243Y-162182754D01*
X130186287Y-162149500D01*
X129973713Y-162149500D01*
X129823901Y-162173227D01*
X129753490Y-162164128D01*
X129715096Y-162137874D01*
X126560317Y-158983095D01*
X126526291Y-158920783D01*
X126531356Y-158849968D01*
X126573903Y-158793132D01*
X126640423Y-158768321D01*
X126649412Y-158768000D01*
X127096000Y-158768000D01*
X127604000Y-158768000D01*
X128277693Y-158768000D01*
X128277695Y-158767999D01*
X128314274Y-158765120D01*
X128314286Y-158765118D01*
X128470900Y-158719617D01*
X128611274Y-158636600D01*
X128611281Y-158636594D01*
X128726594Y-158521281D01*
X128726600Y-158521274D01*
X128809617Y-158380899D01*
X128850844Y-158239000D01*
X127604000Y-158239000D01*
X127604000Y-158768000D01*
X127096000Y-158768000D01*
X127096000Y-158111000D01*
X127116002Y-158042879D01*
X127169658Y-157996386D01*
X127222000Y-157985000D01*
X127350000Y-157985000D01*
X127350000Y-157857000D01*
X127370002Y-157788879D01*
X127423658Y-157742386D01*
X127476000Y-157731000D01*
X128850844Y-157731000D01*
X128809617Y-157589100D01*
X128726600Y-157448725D01*
X128726599Y-157448724D01*
X128711669Y-157433795D01*
X128677642Y-157371483D01*
X128682705Y-157300667D01*
X128711668Y-157255600D01*
X128720626Y-157246643D01*
X128802681Y-157107894D01*
X128847654Y-156953098D01*
X128850500Y-156916935D01*
X128850499Y-156513066D01*
X128847654Y-156476902D01*
X128802681Y-156322106D01*
X128720626Y-156183357D01*
X128706364Y-156169095D01*
X128672339Y-156106786D01*
X128677402Y-156035970D01*
X128706364Y-155990904D01*
X128720626Y-155976643D01*
X128802681Y-155837894D01*
X128847654Y-155683098D01*
X128850500Y-155646935D01*
X128850499Y-155243066D01*
X128847654Y-155206902D01*
X128802681Y-155052106D01*
X128720626Y-154913357D01*
X128706364Y-154899095D01*
X128672339Y-154836786D01*
X128677402Y-154765970D01*
X128706364Y-154720904D01*
X128720626Y-154706643D01*
X128802681Y-154567894D01*
X128847654Y-154413098D01*
X128850500Y-154376935D01*
X128850499Y-153973066D01*
X128847654Y-153936902D01*
X128802681Y-153782106D01*
X128720626Y-153643357D01*
X128706364Y-153629095D01*
X128672339Y-153566786D01*
X128677402Y-153495970D01*
X128706364Y-153450904D01*
X128720626Y-153436643D01*
X128802681Y-153297894D01*
X128847654Y-153143098D01*
X128850500Y-153106935D01*
X128850499Y-152703066D01*
X128847654Y-152666902D01*
X128802681Y-152512106D01*
X128720626Y-152373357D01*
X128706364Y-152359095D01*
X128672339Y-152296786D01*
X128677402Y-152225970D01*
X128706364Y-152180904D01*
X128720626Y-152166643D01*
X128802681Y-152027894D01*
X128847654Y-151873098D01*
X128850500Y-151836935D01*
X128850499Y-151433066D01*
X128847654Y-151396902D01*
X128802681Y-151242106D01*
X128720626Y-151103357D01*
X128706364Y-151089095D01*
X128672339Y-151026786D01*
X128677402Y-150955970D01*
X128706364Y-150910904D01*
X128720626Y-150896643D01*
X128802681Y-150757894D01*
X128847654Y-150603098D01*
X128850500Y-150566935D01*
X128850499Y-150163066D01*
X128847654Y-150126902D01*
X128802681Y-149972106D01*
X128720626Y-149833357D01*
X128706364Y-149819095D01*
X128672339Y-149756786D01*
X128677402Y-149685970D01*
X128706364Y-149640904D01*
X128720626Y-149626643D01*
X128802681Y-149487894D01*
X128847654Y-149333098D01*
X128850500Y-149296935D01*
X128850499Y-148893066D01*
X128847654Y-148856902D01*
X128802681Y-148702106D01*
X128720626Y-148563357D01*
X128706364Y-148549095D01*
X128672339Y-148486786D01*
X128677402Y-148415970D01*
X128706364Y-148370904D01*
X128720626Y-148356643D01*
X128802681Y-148217894D01*
X128847654Y-148063098D01*
X128850500Y-148026935D01*
X128850499Y-147623066D01*
X128847654Y-147586902D01*
X128802681Y-147432106D01*
X128720626Y-147293357D01*
X128706364Y-147279095D01*
X128672339Y-147216786D01*
X128677402Y-147145970D01*
X128706364Y-147100904D01*
X128720626Y-147086643D01*
X128802681Y-146947894D01*
X128847654Y-146793098D01*
X128850500Y-146756935D01*
X128850499Y-146353066D01*
X128847654Y-146316902D01*
X128802681Y-146162106D01*
X128720626Y-146023357D01*
X128706364Y-146009095D01*
X128672339Y-145946786D01*
X128677402Y-145875970D01*
X128706364Y-145830904D01*
X128720626Y-145816643D01*
X128802681Y-145677894D01*
X128847654Y-145523098D01*
X128850500Y-145486935D01*
X128850499Y-145083066D01*
X128847654Y-145046902D01*
X128802681Y-144892106D01*
X128798188Y-144884509D01*
X128735493Y-144778496D01*
X128718033Y-144709680D01*
X128740550Y-144642349D01*
X128795894Y-144597879D01*
X128866495Y-144590391D01*
X128929936Y-144622261D01*
G37*
%TD.AperFunction*%
%TA.AperFunction,Conductor*%
G36*
X104260621Y-140401502D02*
G01*
X104307114Y-140455158D01*
X104318500Y-140507500D01*
X104318500Y-144073500D01*
X104298498Y-144141621D01*
X104244842Y-144188114D01*
X104192500Y-144199500D01*
X103649990Y-144199500D01*
X103547202Y-144210000D01*
X103380665Y-144265185D01*
X103231343Y-144357288D01*
X103231337Y-144357293D01*
X103107293Y-144481337D01*
X103107288Y-144481343D01*
X103015185Y-144630665D01*
X102960002Y-144797196D01*
X102960000Y-144797208D01*
X102949500Y-144899982D01*
X102949500Y-146100009D01*
X102960000Y-146202797D01*
X103015185Y-146369334D01*
X103107288Y-146518656D01*
X103107293Y-146518662D01*
X103231337Y-146642706D01*
X103231343Y-146642711D01*
X103231344Y-146642712D01*
X103288563Y-146678004D01*
X103380665Y-146734814D01*
X103547196Y-146789997D01*
X103547197Y-146789997D01*
X103547203Y-146789999D01*
X103649991Y-146800500D01*
X104192500Y-146800499D01*
X104260621Y-146820501D01*
X104307114Y-146874156D01*
X104318500Y-146926499D01*
X104318500Y-154573500D01*
X104298498Y-154641621D01*
X104244842Y-154688114D01*
X104192500Y-154699500D01*
X103649990Y-154699500D01*
X103547202Y-154710000D01*
X103380665Y-154765185D01*
X103231343Y-154857288D01*
X103231337Y-154857293D01*
X103107293Y-154981337D01*
X103107288Y-154981343D01*
X103015185Y-155130665D01*
X102960002Y-155297196D01*
X102960000Y-155297208D01*
X102949500Y-155399982D01*
X102949500Y-156600009D01*
X102960000Y-156702797D01*
X103015185Y-156869334D01*
X103107288Y-157018656D01*
X103107293Y-157018662D01*
X103231337Y-157142706D01*
X103231343Y-157142711D01*
X103231344Y-157142712D01*
X103279925Y-157172677D01*
X103380665Y-157234814D01*
X103547196Y-157289997D01*
X103547197Y-157289997D01*
X103547203Y-157289999D01*
X103649991Y-157300500D01*
X104286664Y-157300499D01*
X104316579Y-157309282D01*
X104347049Y-157315911D01*
X104352144Y-157319725D01*
X104354785Y-157320501D01*
X104375759Y-157337404D01*
X104432260Y-157393905D01*
X104466286Y-157456217D01*
X104461221Y-157527032D01*
X104418674Y-157583868D01*
X104352154Y-157608679D01*
X104343165Y-157609000D01*
X98738411Y-157609000D01*
X98670290Y-157588998D01*
X98649316Y-157572095D01*
X98600316Y-157523095D01*
X98566290Y-157460783D01*
X98571355Y-157389968D01*
X98613902Y-157333132D01*
X98680422Y-157308321D01*
X98689411Y-157308000D01*
X99546000Y-157308000D01*
X100054000Y-157308000D01*
X101350517Y-157308000D01*
X101350516Y-157307999D01*
X101454318Y-157297394D01*
X101454321Y-157297393D01*
X101622525Y-157241657D01*
X101773339Y-157148634D01*
X101773345Y-157148629D01*
X101898629Y-157023345D01*
X101898634Y-157023339D01*
X101991657Y-156872525D01*
X102047393Y-156704321D01*
X102047394Y-156704318D01*
X102057999Y-156600516D01*
X102058000Y-156600516D01*
X102058000Y-156254000D01*
X100054000Y-156254000D01*
X100054000Y-157308000D01*
X99546000Y-157308000D01*
X99546000Y-156254000D01*
X97541999Y-156254000D01*
X97525705Y-156270294D01*
X97463392Y-156304319D01*
X97392576Y-156299253D01*
X97347515Y-156270293D01*
X96577905Y-155500683D01*
X96562960Y-155473314D01*
X96546104Y-155447086D01*
X96545198Y-155440787D01*
X96543879Y-155438371D01*
X96541000Y-155411588D01*
X96541000Y-155399483D01*
X97542000Y-155399483D01*
X97542000Y-155746000D01*
X99546000Y-155746000D01*
X100054000Y-155746000D01*
X102058000Y-155746000D01*
X102058000Y-155399483D01*
X102047394Y-155295681D01*
X102047393Y-155295678D01*
X101991657Y-155127474D01*
X101898634Y-154976660D01*
X101898629Y-154976654D01*
X101773345Y-154851370D01*
X101773339Y-154851365D01*
X101622525Y-154758342D01*
X101454321Y-154702606D01*
X101454318Y-154702605D01*
X101350516Y-154692000D01*
X100054000Y-154692000D01*
X100054000Y-155746000D01*
X99546000Y-155746000D01*
X99546000Y-154692000D01*
X98249483Y-154692000D01*
X98145681Y-154702605D01*
X98145678Y-154702606D01*
X97977474Y-154758342D01*
X97826660Y-154851365D01*
X97826654Y-154851370D01*
X97701370Y-154976654D01*
X97701365Y-154976660D01*
X97608342Y-155127474D01*
X97552606Y-155295678D01*
X97552605Y-155295681D01*
X97542000Y-155399483D01*
X96541000Y-155399483D01*
X96541000Y-146100516D01*
X97542000Y-146100516D01*
X97552605Y-146204318D01*
X97552606Y-146204321D01*
X97608342Y-146372525D01*
X97701365Y-146523339D01*
X97701370Y-146523345D01*
X97826654Y-146648629D01*
X97826660Y-146648634D01*
X97977474Y-146741657D01*
X98145678Y-146797393D01*
X98145681Y-146797394D01*
X98249483Y-146807999D01*
X98249483Y-146808000D01*
X99546000Y-146808000D01*
X100054000Y-146808000D01*
X101350517Y-146808000D01*
X101350516Y-146807999D01*
X101454318Y-146797394D01*
X101454321Y-146797393D01*
X101622525Y-146741657D01*
X101773339Y-146648634D01*
X101773345Y-146648629D01*
X101898629Y-146523345D01*
X101898634Y-146523339D01*
X101991657Y-146372525D01*
X102047393Y-146204321D01*
X102047394Y-146204318D01*
X102057999Y-146100516D01*
X102058000Y-146100516D01*
X102058000Y-145754000D01*
X100054000Y-145754000D01*
X100054000Y-146808000D01*
X99546000Y-146808000D01*
X99546000Y-145754000D01*
X97542000Y-145754000D01*
X97542000Y-146100516D01*
X96541000Y-146100516D01*
X96541000Y-145681941D01*
X96540999Y-145681938D01*
X96540195Y-145677894D01*
X96514445Y-145548443D01*
X96462356Y-145422689D01*
X96428947Y-145372689D01*
X96425813Y-145367999D01*
X96386737Y-145309516D01*
X96386731Y-145309508D01*
X95976706Y-144899483D01*
X97542000Y-144899483D01*
X97542000Y-145246000D01*
X99546000Y-145246000D01*
X100054000Y-145246000D01*
X102058000Y-145246000D01*
X102058000Y-144899483D01*
X102047394Y-144795681D01*
X102047393Y-144795678D01*
X101991657Y-144627474D01*
X101898634Y-144476660D01*
X101898629Y-144476654D01*
X101773345Y-144351370D01*
X101773339Y-144351365D01*
X101622525Y-144258342D01*
X101454321Y-144202606D01*
X101454318Y-144202605D01*
X101350516Y-144192000D01*
X100054000Y-144192000D01*
X100054000Y-145246000D01*
X99546000Y-145246000D01*
X99546000Y-144192000D01*
X98249483Y-144192000D01*
X98145681Y-144202605D01*
X98145678Y-144202606D01*
X97977474Y-144258342D01*
X97826660Y-144351365D01*
X97826654Y-144351370D01*
X97701370Y-144476654D01*
X97701365Y-144476660D01*
X97608342Y-144627474D01*
X97552606Y-144795678D01*
X97552605Y-144795681D01*
X97542000Y-144899483D01*
X95976706Y-144899483D01*
X93340494Y-142263271D01*
X93340488Y-142263266D01*
X93329618Y-142256003D01*
X93227311Y-142187644D01*
X93138845Y-142151000D01*
X93101560Y-142135556D01*
X93101557Y-142135555D01*
X93045704Y-142124445D01*
X92968061Y-142109000D01*
X92968058Y-142109000D01*
X83361943Y-142109000D01*
X83361939Y-142109000D01*
X83228443Y-142135555D01*
X83228440Y-142135556D01*
X83102689Y-142187644D01*
X82989512Y-142263266D01*
X82989506Y-142263271D01*
X81454777Y-143798001D01*
X81392465Y-143832027D01*
X81321650Y-143826962D01*
X81264814Y-143784415D01*
X81242103Y-143733487D01*
X81215113Y-143597799D01*
X81215113Y-143597798D01*
X81214445Y-143594443D01*
X81214445Y-143594442D01*
X81162356Y-143468688D01*
X81086735Y-143355513D01*
X80990501Y-143259279D01*
X80956475Y-143196967D01*
X80961540Y-143126152D01*
X80972355Y-143104037D01*
X80972966Y-143103045D01*
X80972968Y-143103044D01*
X81062003Y-142958697D01*
X81115349Y-142797708D01*
X81125500Y-142698345D01*
X81125499Y-142101656D01*
X81115349Y-142002292D01*
X81062894Y-141843991D01*
X81056500Y-141804365D01*
X81056500Y-140507500D01*
X81076502Y-140439379D01*
X81130158Y-140392886D01*
X81182500Y-140381500D01*
X104192500Y-140381500D01*
X104260621Y-140401502D01*
G37*
%TD.AperFunction*%
%TA.AperFunction,Conductor*%
G36*
X123305210Y-146401502D02*
G01*
X123351703Y-146455158D01*
X123361807Y-146525432D01*
X123332313Y-146590012D01*
X123326184Y-146596595D01*
X117326016Y-152596761D01*
X117263704Y-152630787D01*
X117192888Y-152625722D01*
X117136053Y-152583175D01*
X117132156Y-152577668D01*
X117055112Y-152462364D01*
X117055107Y-152462358D01*
X116937641Y-152344892D01*
X116937635Y-152344887D01*
X116883896Y-152308980D01*
X116799500Y-152252588D01*
X116646011Y-152189011D01*
X116605244Y-152180902D01*
X116483070Y-152156600D01*
X116483068Y-152156600D01*
X116316932Y-152156600D01*
X116316929Y-152156600D01*
X116153988Y-152189011D01*
X116153983Y-152189013D01*
X116000499Y-152252588D01*
X115947854Y-152287765D01*
X115880101Y-152308980D01*
X115877852Y-152309000D01*
X114831938Y-152309000D01*
X114698442Y-152335555D01*
X114698439Y-152335556D01*
X114572688Y-152387644D01*
X114459518Y-152463262D01*
X114459511Y-152463267D01*
X109350683Y-157572095D01*
X109288371Y-157606121D01*
X109261588Y-157609000D01*
X106316852Y-157609000D01*
X106284860Y-157599606D01*
X106252557Y-157591361D01*
X106250968Y-157589655D01*
X106248731Y-157588998D01*
X106226895Y-157563798D01*
X106204179Y-157539399D01*
X106203765Y-157537104D01*
X106202238Y-157535342D01*
X106197491Y-157502333D01*
X106191574Y-157469530D01*
X106192342Y-157466518D01*
X106192134Y-157465068D01*
X106200444Y-157434781D01*
X106223848Y-157378280D01*
X106268396Y-157322999D01*
X106335760Y-157300579D01*
X106340256Y-157300499D01*
X106750009Y-157300499D01*
X106852797Y-157289999D01*
X107019334Y-157234814D01*
X107168656Y-157142712D01*
X107292712Y-157018656D01*
X107384814Y-156869334D01*
X107439999Y-156702797D01*
X107450500Y-156600009D01*
X107450499Y-155399992D01*
X107439999Y-155297203D01*
X107425130Y-155252329D01*
X107384814Y-155130665D01*
X107292711Y-154981343D01*
X107292706Y-154981337D01*
X107168662Y-154857293D01*
X107168656Y-154857288D01*
X107019334Y-154765185D01*
X106852803Y-154710002D01*
X106852791Y-154710000D01*
X106750017Y-154699500D01*
X106750009Y-154699500D01*
X106207500Y-154699500D01*
X106139379Y-154679498D01*
X106092886Y-154625842D01*
X106081500Y-154573500D01*
X106081500Y-146926499D01*
X106101502Y-146858378D01*
X106155158Y-146811885D01*
X106207500Y-146800499D01*
X106750009Y-146800499D01*
X106852797Y-146789999D01*
X107019334Y-146734814D01*
X107168656Y-146642712D01*
X107292712Y-146518656D01*
X107340392Y-146441354D01*
X107393177Y-146393875D01*
X107447633Y-146381500D01*
X107913180Y-146381500D01*
X114713180Y-146381500D01*
X118913179Y-146381500D01*
X118913180Y-146381500D01*
X123237089Y-146381500D01*
X123305210Y-146401502D01*
G37*
%TD.AperFunction*%
%TA.AperFunction,Conductor*%
G36*
X118026707Y-122983233D02*
G01*
X118072199Y-123037740D01*
X118081000Y-123108189D01*
X118050317Y-123172212D01*
X118045731Y-123177047D01*
X117163269Y-124059508D01*
X117163264Y-124059515D01*
X117093154Y-124164439D01*
X117093155Y-124164440D01*
X117087646Y-124172685D01*
X117087644Y-124172687D01*
X117087644Y-124172689D01*
X117079875Y-124191446D01*
X117035555Y-124298442D01*
X117009000Y-124431938D01*
X117009000Y-126983000D01*
X116988998Y-127051121D01*
X116935342Y-127097614D01*
X116883000Y-127109000D01*
X116534893Y-127109000D01*
X116466772Y-127088998D01*
X116420279Y-127035342D01*
X116415293Y-127022647D01*
X116384814Y-126930666D01*
X116292712Y-126781344D01*
X116292711Y-126781343D01*
X116292706Y-126781337D01*
X116168662Y-126657293D01*
X116168656Y-126657288D01*
X116019334Y-126565185D01*
X115852803Y-126510002D01*
X115852791Y-126510000D01*
X115750017Y-126499500D01*
X112649990Y-126499500D01*
X112547202Y-126510000D01*
X112380665Y-126565185D01*
X112231343Y-126657288D01*
X112231337Y-126657293D01*
X112107293Y-126781337D01*
X112107288Y-126781343D01*
X112015185Y-126930665D01*
X111960002Y-127097196D01*
X111960000Y-127097208D01*
X111949500Y-127199982D01*
X111949500Y-128400009D01*
X111960000Y-128502797D01*
X112015185Y-128669334D01*
X112107288Y-128818656D01*
X112107293Y-128818662D01*
X112231337Y-128942706D01*
X112231343Y-128942711D01*
X112231344Y-128942712D01*
X112288563Y-128978004D01*
X112380665Y-129034814D01*
X112547196Y-129089997D01*
X112547197Y-129089997D01*
X112547203Y-129089999D01*
X112649991Y-129100500D01*
X115750008Y-129100499D01*
X115750009Y-129100499D01*
X115852797Y-129089999D01*
X116019334Y-129034814D01*
X116168656Y-128942712D01*
X116292712Y-128818656D01*
X116384814Y-128669334D01*
X116415289Y-128577364D01*
X116455702Y-128518996D01*
X116521259Y-128491740D01*
X116534893Y-128491000D01*
X116883000Y-128491000D01*
X116951121Y-128511002D01*
X116997614Y-128564658D01*
X117009000Y-128617000D01*
X117009000Y-131118063D01*
X117012714Y-131136734D01*
X117012715Y-131136734D01*
X117035555Y-131251557D01*
X117087644Y-131377311D01*
X117163265Y-131490487D01*
X118312596Y-132639817D01*
X118346620Y-132702128D01*
X118349500Y-132728911D01*
X118349500Y-133215693D01*
X118352401Y-133252567D01*
X118352401Y-133252568D01*
X118394997Y-133399180D01*
X118400000Y-133434333D01*
X118400000Y-134192500D01*
X118379998Y-134260621D01*
X118326342Y-134307114D01*
X118274000Y-134318500D01*
X118013176Y-134318500D01*
X117842875Y-134352375D01*
X117842870Y-134352377D01*
X117729439Y-134399362D01*
X117682454Y-134418824D01*
X117682453Y-134418824D01*
X117538081Y-134515291D01*
X117538074Y-134515296D01*
X114115297Y-137938071D01*
X114115294Y-137938075D01*
X114056887Y-138025490D01*
X114056886Y-138025491D01*
X114018825Y-138082453D01*
X113952377Y-138242872D01*
X113952376Y-138242875D01*
X113918500Y-138413176D01*
X113918500Y-144492500D01*
X113898498Y-144560621D01*
X113844842Y-144607114D01*
X113792500Y-144618500D01*
X107447633Y-144618500D01*
X107379512Y-144598498D01*
X107340392Y-144558646D01*
X107335715Y-144551064D01*
X107292712Y-144481344D01*
X107292709Y-144481341D01*
X107292706Y-144481337D01*
X107168662Y-144357293D01*
X107168656Y-144357288D01*
X107019334Y-144265185D01*
X106852803Y-144210002D01*
X106852791Y-144210000D01*
X106750017Y-144199500D01*
X106750009Y-144199500D01*
X106207500Y-144199500D01*
X106139379Y-144179498D01*
X106092886Y-144125842D01*
X106081500Y-144073500D01*
X106081500Y-128400516D01*
X106542000Y-128400516D01*
X106552605Y-128504318D01*
X106552606Y-128504321D01*
X106608342Y-128672525D01*
X106701365Y-128823339D01*
X106701370Y-128823345D01*
X106826654Y-128948629D01*
X106826660Y-128948634D01*
X106977474Y-129041657D01*
X107145678Y-129097393D01*
X107145681Y-129097394D01*
X107249483Y-129107999D01*
X107249483Y-129108000D01*
X108546000Y-129108000D01*
X109054000Y-129108000D01*
X110350517Y-129108000D01*
X110350516Y-129107999D01*
X110454318Y-129097394D01*
X110454321Y-129097393D01*
X110622525Y-129041657D01*
X110773339Y-128948634D01*
X110773345Y-128948629D01*
X110898629Y-128823345D01*
X110898634Y-128823339D01*
X110991657Y-128672525D01*
X111047393Y-128504321D01*
X111047394Y-128504318D01*
X111057999Y-128400516D01*
X111058000Y-128400516D01*
X111058000Y-128054000D01*
X109054000Y-128054000D01*
X109054000Y-129108000D01*
X108546000Y-129108000D01*
X108546000Y-128054000D01*
X106542000Y-128054000D01*
X106542000Y-128400516D01*
X106081500Y-128400516D01*
X106081500Y-127199483D01*
X106542000Y-127199483D01*
X106542000Y-127546000D01*
X108546000Y-127546000D01*
X109054000Y-127546000D01*
X111058000Y-127546000D01*
X111058000Y-127199483D01*
X111047394Y-127095681D01*
X111047393Y-127095678D01*
X110991657Y-126927474D01*
X110898634Y-126776660D01*
X110898629Y-126776654D01*
X110773345Y-126651370D01*
X110773339Y-126651365D01*
X110622525Y-126558342D01*
X110454321Y-126502606D01*
X110454318Y-126502605D01*
X110350516Y-126492000D01*
X109054000Y-126492000D01*
X109054000Y-127546000D01*
X108546000Y-127546000D01*
X108546000Y-126492000D01*
X107249483Y-126492000D01*
X107145681Y-126502605D01*
X107145678Y-126502606D01*
X106977474Y-126558342D01*
X106826660Y-126651365D01*
X106826654Y-126651370D01*
X106701370Y-126776654D01*
X106701365Y-126776660D01*
X106608342Y-126927474D01*
X106552606Y-127095678D01*
X106552605Y-127095681D01*
X106542000Y-127199483D01*
X106081500Y-127199483D01*
X106081500Y-126517319D01*
X106101502Y-126449198D01*
X106118405Y-126428224D01*
X109453224Y-123093405D01*
X109515536Y-123059379D01*
X109542319Y-123056500D01*
X116604365Y-123056500D01*
X116643991Y-123062894D01*
X116802292Y-123115349D01*
X116901655Y-123125500D01*
X117498344Y-123125499D01*
X117498345Y-123125499D01*
X117518216Y-123123469D01*
X117597708Y-123115349D01*
X117758697Y-123062003D01*
X117890490Y-122980711D01*
X117958968Y-122961974D01*
X118026707Y-122983233D01*
G37*
%TD.AperFunction*%
%TA.AperFunction,Conductor*%
G36*
X123947934Y-136101502D02*
G01*
X123994427Y-136155158D01*
X124004531Y-136225432D01*
X123975037Y-136290012D01*
X123968921Y-136296581D01*
X123847304Y-136418198D01*
X123725701Y-136539801D01*
X123663389Y-136573826D01*
X123592573Y-136568760D01*
X123588388Y-136567114D01*
X123442617Y-136506734D01*
X123442611Y-136506732D01*
X123279670Y-136474321D01*
X123279668Y-136474321D01*
X123113532Y-136474321D01*
X123113529Y-136474321D01*
X122950588Y-136506732D01*
X122950583Y-136506734D01*
X122797100Y-136570309D01*
X122658964Y-136662608D01*
X122658958Y-136662613D01*
X122541492Y-136780079D01*
X122541487Y-136780085D01*
X122449188Y-136918221D01*
X122385612Y-137071706D01*
X122385611Y-137071707D01*
X122362559Y-137187595D01*
X122350110Y-137222393D01*
X122347647Y-137227002D01*
X122295556Y-137352760D01*
X122295555Y-137352763D01*
X122269000Y-137486259D01*
X122269000Y-137629423D01*
X122248998Y-137697544D01*
X122195342Y-137744037D01*
X122125068Y-137754141D01*
X122107847Y-137750420D01*
X121942568Y-137702401D01*
X121908595Y-137699728D01*
X121905694Y-137699500D01*
X121474306Y-137699500D01*
X121471405Y-137699728D01*
X121437432Y-137702401D01*
X121437431Y-137702401D01*
X121279598Y-137748257D01*
X121131312Y-137835954D01*
X121130642Y-137834822D01*
X121072142Y-137857782D01*
X121002522Y-137843872D01*
X120983487Y-137829874D01*
X120982765Y-137830806D01*
X120976501Y-137825948D01*
X120833401Y-137741318D01*
X120674000Y-137695007D01*
X120674000Y-138874000D01*
X120653998Y-138942121D01*
X120600342Y-138988614D01*
X120548000Y-139000000D01*
X120292000Y-139000000D01*
X120223879Y-138979998D01*
X120177386Y-138926342D01*
X120166000Y-138874000D01*
X120166000Y-137695007D01*
X120006598Y-137741318D01*
X119863499Y-137825946D01*
X119857240Y-137830802D01*
X119855330Y-137828340D01*
X119805704Y-137855407D01*
X119734891Y-137850308D01*
X119708800Y-137835763D01*
X119708688Y-137835954D01*
X119560401Y-137748257D01*
X119402568Y-137702401D01*
X119368595Y-137699728D01*
X119365694Y-137699500D01*
X118934306Y-137699500D01*
X118931405Y-137699728D01*
X118897432Y-137702401D01*
X118897431Y-137702401D01*
X118739598Y-137748257D01*
X118598136Y-137831917D01*
X118598129Y-137831923D01*
X118481923Y-137948129D01*
X118481917Y-137948136D01*
X118398257Y-138089598D01*
X118352401Y-138247431D01*
X118352401Y-138247432D01*
X118349500Y-138284306D01*
X118349500Y-139715693D01*
X118352401Y-139752567D01*
X118352401Y-139752568D01*
X118398256Y-139910399D01*
X118422439Y-139951289D01*
X118438276Y-139978068D01*
X118441453Y-139983439D01*
X118459000Y-140047579D01*
X118459000Y-140787796D01*
X118450216Y-140817711D01*
X118443588Y-140848181D01*
X118439773Y-140853276D01*
X118438998Y-140855917D01*
X118422095Y-140876891D01*
X118419398Y-140879588D01*
X118357086Y-140913614D01*
X118286271Y-140908549D01*
X118241208Y-140879588D01*
X118232734Y-140871114D01*
X118232728Y-140871109D01*
X118086884Y-140781152D01*
X117924241Y-140727257D01*
X117924229Y-140727255D01*
X117823852Y-140717000D01*
X117804000Y-140717000D01*
X117804000Y-142683000D01*
X117823853Y-142683000D01*
X117823852Y-142682999D01*
X117924229Y-142672744D01*
X117924238Y-142672742D01*
X118052866Y-142630119D01*
X118123821Y-142627678D01*
X118184831Y-142663986D01*
X118216527Y-142727514D01*
X118218500Y-142749723D01*
X118218500Y-144492500D01*
X118198498Y-144560621D01*
X118144842Y-144607114D01*
X118092500Y-144618500D01*
X115807500Y-144618500D01*
X115739379Y-144598498D01*
X115692886Y-144544842D01*
X115681500Y-144492500D01*
X115681500Y-141998852D01*
X116592000Y-141998852D01*
X116602255Y-142099229D01*
X116602257Y-142099241D01*
X116656152Y-142261884D01*
X116746109Y-142407728D01*
X116746114Y-142407734D01*
X116867265Y-142528885D01*
X116867271Y-142528890D01*
X117013115Y-142618847D01*
X117175758Y-142672742D01*
X117175770Y-142672744D01*
X117276147Y-142682999D01*
X117276147Y-142683000D01*
X117296000Y-142683000D01*
X117296000Y-141954000D01*
X116592000Y-141954000D01*
X116592000Y-141998852D01*
X115681500Y-141998852D01*
X115681500Y-141401147D01*
X116592000Y-141401147D01*
X116592000Y-141446000D01*
X117296000Y-141446000D01*
X117296000Y-140717000D01*
X117276147Y-140717000D01*
X117175770Y-140727255D01*
X117175758Y-140727257D01*
X117013115Y-140781152D01*
X116867271Y-140871109D01*
X116867265Y-140871114D01*
X116746114Y-140992265D01*
X116746109Y-140992271D01*
X116656152Y-141138115D01*
X116602257Y-141300758D01*
X116602255Y-141300770D01*
X116592000Y-141401147D01*
X115681500Y-141401147D01*
X115681500Y-138917319D01*
X115701502Y-138849198D01*
X115718405Y-138828224D01*
X118428224Y-136118405D01*
X118490536Y-136084379D01*
X118517319Y-136081500D01*
X123879813Y-136081500D01*
X123947934Y-136101502D01*
G37*
%TD.AperFunction*%
%TA.AperFunction,Conductor*%
G36*
X125997032Y-140384355D02*
G01*
X126053868Y-140426902D01*
X126078679Y-140493422D01*
X126079000Y-140502411D01*
X126079000Y-140938058D01*
X126095203Y-141019513D01*
X126105555Y-141071557D01*
X126157644Y-141197311D01*
X126227789Y-141302292D01*
X126233266Y-141310488D01*
X126233271Y-141310494D01*
X127947183Y-143024405D01*
X127981208Y-143086717D01*
X127976144Y-143157532D01*
X127933597Y-143214368D01*
X127867077Y-143239179D01*
X127858088Y-143239500D01*
X126423066Y-143239500D01*
X126386903Y-143242345D01*
X126232103Y-143287319D01*
X126199749Y-143306454D01*
X126135611Y-143324000D01*
X125152203Y-143324000D01*
X125084082Y-143303998D01*
X125063108Y-143287095D01*
X124953050Y-143177037D01*
X124953044Y-143177032D01*
X124808697Y-143087997D01*
X124788040Y-143081152D01*
X124647708Y-143034651D01*
X124647704Y-143034650D01*
X124647702Y-143034650D01*
X124548353Y-143024500D01*
X124001654Y-143024500D01*
X123902295Y-143034650D01*
X123741303Y-143087997D01*
X123596955Y-143177032D01*
X123594393Y-143179594D01*
X123592206Y-143180787D01*
X123591198Y-143181585D01*
X123591061Y-143181412D01*
X123532078Y-143213615D01*
X123461263Y-143208546D01*
X123416208Y-143179588D01*
X123407734Y-143171114D01*
X123407728Y-143171109D01*
X123261884Y-143081152D01*
X123099241Y-143027257D01*
X123099229Y-143027255D01*
X122998852Y-143017000D01*
X122979000Y-143017000D01*
X122979000Y-143874000D01*
X122958998Y-143942121D01*
X122905342Y-143988614D01*
X122853000Y-144000000D01*
X122725000Y-144000000D01*
X122725000Y-144128000D01*
X122704998Y-144196121D01*
X122651342Y-144242614D01*
X122599000Y-144254000D01*
X121767000Y-144254000D01*
X121767000Y-144298852D01*
X121777255Y-144399229D01*
X121777257Y-144399238D01*
X121795028Y-144452866D01*
X121797469Y-144523821D01*
X121761161Y-144584832D01*
X121697633Y-144616527D01*
X121675424Y-144618500D01*
X120107500Y-144618500D01*
X120039379Y-144598498D01*
X119992886Y-144544842D01*
X119981500Y-144492500D01*
X119981500Y-143701147D01*
X121767000Y-143701147D01*
X121767000Y-143746000D01*
X122471000Y-143746000D01*
X122471000Y-143017000D01*
X122451147Y-143017000D01*
X122350770Y-143027255D01*
X122350758Y-143027257D01*
X122188115Y-143081152D01*
X122042271Y-143171109D01*
X122042265Y-143171114D01*
X121921114Y-143292265D01*
X121921109Y-143292271D01*
X121831152Y-143438115D01*
X121777257Y-143600758D01*
X121777255Y-143600770D01*
X121767000Y-143701147D01*
X119981500Y-143701147D01*
X119981500Y-142295636D01*
X119987894Y-142256007D01*
X120040349Y-142097708D01*
X120050500Y-141998345D01*
X120050499Y-141401656D01*
X120043159Y-141329803D01*
X120056135Y-141260004D01*
X120104788Y-141208299D01*
X120168507Y-141191000D01*
X124868057Y-141191000D01*
X125001556Y-141164445D01*
X125127310Y-141112356D01*
X125159056Y-141091144D01*
X125240486Y-141036735D01*
X125863904Y-140413315D01*
X125926217Y-140379291D01*
X125997032Y-140384355D01*
G37*
%TD.AperFunction*%
%TD*%
M02*
