%TF.GenerationSoftware,KiCad,Pcbnew,9.0.1+1*%
%TF.CreationDate,2025-09-29T21:03:37+00:00*%
%TF.ProjectId,rcbus-opl3,72636275-732d-46f7-906c-332e6b696361,@version@*%
%TF.SameCoordinates,Original*%
%TF.FileFunction,Copper,L1,Top*%
%TF.FilePolarity,Positive*%
%FSLAX46Y46*%
G04 Gerber Fmt 4.6, Leading zero omitted, Abs format (unit mm)*
G04 Created by KiCad (PCBNEW 9.0.1+1) date 2025-09-29 21:03:37*
%MOMM*%
%LPD*%
G01*
G04 APERTURE LIST*
G04 Aperture macros list*
%AMRoundRect*
0 Rectangle with rounded corners*
0 $1 Rounding radius*
0 $2 $3 $4 $5 $6 $7 $8 $9 X,Y pos of 4 corners*
0 Add a 4 corners polygon primitive as box body*
4,1,4,$2,$3,$4,$5,$6,$7,$8,$9,$2,$3,0*
0 Add four circle primitives for the rounded corners*
1,1,$1+$1,$2,$3*
1,1,$1+$1,$4,$5*
1,1,$1+$1,$6,$7*
1,1,$1+$1,$8,$9*
0 Add four rect primitives between the rounded corners*
20,1,$1+$1,$2,$3,$4,$5,0*
20,1,$1+$1,$4,$5,$6,$7,0*
20,1,$1+$1,$6,$7,$8,$9,0*
20,1,$1+$1,$8,$9,$2,$3,0*%
G04 Aperture macros list end*
%TA.AperFunction,SMDPad,CuDef*%
%ADD10RoundRect,0.225000X0.225000X0.250000X-0.225000X0.250000X-0.225000X-0.250000X0.225000X-0.250000X0*%
%TD*%
%TA.AperFunction,ComponentPad*%
%ADD11R,2.500000X1.800000*%
%TD*%
%TA.AperFunction,ComponentPad*%
%ADD12R,1.800000X2.500000*%
%TD*%
%TA.AperFunction,ComponentPad*%
%ADD13R,1.700000X1.700000*%
%TD*%
%TA.AperFunction,ComponentPad*%
%ADD14C,1.700000*%
%TD*%
%TA.AperFunction,ComponentPad*%
%ADD15O,1.700000X1.700000*%
%TD*%
%TA.AperFunction,SMDPad,CuDef*%
%ADD16RoundRect,0.150000X0.150000X-0.875000X0.150000X0.875000X-0.150000X0.875000X-0.150000X-0.875000X0*%
%TD*%
%TA.AperFunction,SMDPad,CuDef*%
%ADD17RoundRect,0.225000X-0.250000X0.225000X-0.250000X-0.225000X0.250000X-0.225000X0.250000X0.225000X0*%
%TD*%
%TA.AperFunction,SMDPad,CuDef*%
%ADD18RoundRect,0.137500X0.137500X-0.862500X0.137500X0.862500X-0.137500X0.862500X-0.137500X-0.862500X0*%
%TD*%
%TA.AperFunction,SMDPad,CuDef*%
%ADD19RoundRect,0.250000X-0.650000X-0.750000X0.650000X-0.750000X0.650000X0.750000X-0.650000X0.750000X0*%
%TD*%
%TA.AperFunction,SMDPad,CuDef*%
%ADD20RoundRect,0.218750X0.256250X-0.218750X0.256250X0.218750X-0.256250X0.218750X-0.256250X-0.218750X0*%
%TD*%
%TA.AperFunction,SMDPad,CuDef*%
%ADD21RoundRect,0.150000X0.150000X-0.650000X0.150000X0.650000X-0.150000X0.650000X-0.150000X-0.650000X0*%
%TD*%
%TA.AperFunction,SMDPad,CuDef*%
%ADD22RoundRect,0.225000X0.250000X-0.225000X0.250000X0.225000X-0.250000X0.225000X-0.250000X-0.225000X0*%
%TD*%
%TA.AperFunction,SMDPad,CuDef*%
%ADD23RoundRect,0.200000X-0.200000X-0.275000X0.200000X-0.275000X0.200000X0.275000X-0.200000X0.275000X0*%
%TD*%
%TA.AperFunction,SMDPad,CuDef*%
%ADD24RoundRect,0.200000X0.275000X-0.200000X0.275000X0.200000X-0.275000X0.200000X-0.275000X-0.200000X0*%
%TD*%
%TA.AperFunction,SMDPad,CuDef*%
%ADD25RoundRect,0.150000X0.150000X-0.825000X0.150000X0.825000X-0.150000X0.825000X-0.150000X-0.825000X0*%
%TD*%
%TA.AperFunction,SMDPad,CuDef*%
%ADD26RoundRect,0.250000X-1.250000X-0.550000X1.250000X-0.550000X1.250000X0.550000X-1.250000X0.550000X0*%
%TD*%
%TA.AperFunction,SMDPad,CuDef*%
%ADD27RoundRect,0.250000X-0.650000X0.325000X-0.650000X-0.325000X0.650000X-0.325000X0.650000X0.325000X0*%
%TD*%
%TA.AperFunction,SMDPad,CuDef*%
%ADD28RoundRect,0.250000X0.650000X-0.325000X0.650000X0.325000X-0.650000X0.325000X-0.650000X-0.325000X0*%
%TD*%
%TA.AperFunction,SMDPad,CuDef*%
%ADD29RoundRect,0.218750X-0.256250X0.218750X-0.256250X-0.218750X0.256250X-0.218750X0.256250X0.218750X0*%
%TD*%
%TA.AperFunction,ViaPad*%
%ADD30C,0.685800*%
%TD*%
%TA.AperFunction,Conductor*%
%ADD31C,0.762000*%
%TD*%
%TA.AperFunction,Conductor*%
%ADD32C,0.381000*%
%TD*%
G04 APERTURE END LIST*
D10*
%TO.P,C1,1*%
%TO.N,VCC*%
X112025000Y-156750000D03*
%TO.P,C1,2*%
%TO.N,GND*%
X110475000Y-156750000D03*
%TD*%
%TO.P,C7,1*%
%TO.N,+5VA*%
X112025000Y-141000000D03*
%TO.P,C7,2*%
%TO.N,GND*%
X110475000Y-141000000D03*
%TD*%
D11*
%TO.P,CON1,R*%
%TO.N,Net-(CON1-PadR)*%
X149069000Y-130095000D03*
%TO.P,CON1,RN*%
X149069000Y-127595000D03*
D12*
%TO.P,CON1,S*%
%TO.N,GND*%
X154069000Y-125095000D03*
D11*
%TO.P,CON1,T*%
%TO.N,Net-(CON1-PadT)*%
X149069000Y-120095000D03*
%TO.P,CON1,TN*%
X149069000Y-122595000D03*
%TD*%
D13*
%TO.P,JP1,1,Pin_1*%
%TO.N,Net-(JP1-Pin_1)*%
X65000000Y-156160000D03*
D14*
%TO.P,JP1,2,Pin_2*%
%TO.N,VCC*%
X62460000Y-156160000D03*
%TO.P,JP1,3,Pin_3*%
%TO.N,Net-(JP1-Pin_3)*%
X65000000Y-153620000D03*
%TO.P,JP1,4,Pin_4*%
%TO.N,VCC*%
X62460000Y-153620000D03*
%TO.P,JP1,5,Pin_5*%
%TO.N,Net-(JP1-Pin_5)*%
X65000000Y-151080000D03*
%TO.P,JP1,6,Pin_6*%
%TO.N,VCC*%
X62460000Y-151080000D03*
%TO.P,JP1,7,Pin_7*%
%TO.N,Net-(JP1-Pin_7)*%
X65000000Y-148540000D03*
%TO.P,JP1,8,Pin_8*%
%TO.N,VCC*%
X62460000Y-148540000D03*
%TO.P,JP1,9,Pin_9*%
%TO.N,Net-(JP1-Pin_9)*%
X65000000Y-146000000D03*
%TO.P,JP1,10,Pin_10*%
%TO.N,VCC*%
X62460000Y-146000000D03*
%TO.P,JP1,11,Pin_11*%
%TO.N,Net-(JP1-Pin_11)*%
X65000000Y-143460000D03*
%TO.P,JP1,12,Pin_12*%
%TO.N,VCC*%
X62460000Y-143460000D03*
%TD*%
D13*
%TO.P,P1,1,Pin_1*%
%TO.N,unconnected-(P1-Pin_1-Pad1)*%
X62000000Y-163000000D03*
D15*
%TO.P,P1,2,Pin_2*%
%TO.N,unconnected-(P1-Pin_2-Pad2)*%
X64540000Y-163000000D03*
%TO.P,P1,3,Pin_3*%
%TO.N,unconnected-(P1-Pin_3-Pad3)*%
X67080000Y-163000000D03*
%TO.P,P1,4,Pin_4*%
%TO.N,unconnected-(P1-Pin_4-Pad4)*%
X69620000Y-163000000D03*
%TO.P,P1,5,Pin_5*%
%TO.N,unconnected-(P1-Pin_5-Pad5)*%
X72160000Y-163000000D03*
%TO.P,P1,6,Pin_6*%
%TO.N,unconnected-(P1-Pin_6-Pad6)*%
X74700000Y-163000000D03*
%TO.P,P1,7,Pin_7*%
%TO.N,unconnected-(P1-Pin_7-Pad7)*%
X77240000Y-163000000D03*
%TO.P,P1,8,Pin_8*%
%TO.N,unconnected-(P1-Pin_8-Pad8)*%
X79780000Y-163000000D03*
%TO.P,P1,9,Pin_9*%
%TO.N,/A7*%
X82320000Y-163000000D03*
%TO.P,P1,10,Pin_10*%
%TO.N,/A6*%
X84860000Y-163000000D03*
%TO.P,P1,11,Pin_11*%
%TO.N,/A5*%
X87400000Y-163000000D03*
%TO.P,P1,12,Pin_12*%
%TO.N,/A4*%
X89940000Y-163000000D03*
%TO.P,P1,13,Pin_13*%
%TO.N,/A3*%
X92480000Y-163000000D03*
%TO.P,P1,14,Pin_14*%
%TO.N,/A2*%
X95020000Y-163000000D03*
%TO.P,P1,15,Pin_15*%
%TO.N,/A1*%
X97560000Y-163000000D03*
%TO.P,P1,16,Pin_16*%
%TO.N,/A0*%
X100100000Y-163000000D03*
%TO.P,P1,17,Pin_17*%
%TO.N,GND*%
X102640000Y-163000000D03*
%TO.P,P1,18,Pin_18*%
%TO.N,VCC*%
X105180000Y-163000000D03*
%TO.P,P1,19,Pin_19*%
%TO.N,unconnected-(P1-Pin_19-Pad19)*%
X107720000Y-163000000D03*
%TO.P,P1,20,Pin_20*%
%TO.N,/~{RESET}*%
X110260000Y-163000000D03*
%TO.P,P1,21,Pin_21*%
%TO.N,unconnected-(P1-Pin_21-Pad21)*%
X112800000Y-163000000D03*
%TO.P,P1,22,Pin_22*%
%TO.N,/~{INT}*%
X115340000Y-163000000D03*
%TO.P,P1,23,Pin_23*%
%TO.N,unconnected-(P1-Pin_23-Pad23)*%
X117880000Y-163000000D03*
%TO.P,P1,24,Pin_24*%
%TO.N,/~{WR}*%
X120420000Y-163000000D03*
%TO.P,P1,25,Pin_25*%
%TO.N,/~{RD}*%
X122960000Y-163000000D03*
%TO.P,P1,26,Pin_26*%
%TO.N,/~{IORQ}*%
X125500000Y-163000000D03*
%TO.P,P1,27,Pin_27*%
%TO.N,/D0*%
X128040000Y-163000000D03*
%TO.P,P1,28,Pin_28*%
%TO.N,/D1*%
X130580000Y-163000000D03*
%TO.P,P1,29,Pin_29*%
%TO.N,/D2*%
X133120000Y-163000000D03*
%TO.P,P1,30,Pin_30*%
%TO.N,/D3*%
X135660000Y-163000000D03*
%TO.P,P1,31,Pin_31*%
%TO.N,/D4*%
X138200000Y-163000000D03*
%TO.P,P1,32,Pin_32*%
%TO.N,/D5*%
X140740000Y-163000000D03*
%TO.P,P1,33,Pin_33*%
%TO.N,/D6*%
X143280000Y-163000000D03*
%TO.P,P1,34,Pin_34*%
%TO.N,/D7*%
X145820000Y-163000000D03*
%TO.P,P1,35,Pin_35*%
%TO.N,unconnected-(P1-Pin_35-Pad35)*%
X148360000Y-163000000D03*
%TO.P,P1,36,Pin_36*%
%TO.N,unconnected-(P1-Pin_36-Pad36)*%
X150900000Y-163000000D03*
%TO.P,P1,37,Pin_37*%
%TO.N,unconnected-(P1-Pin_37-Pad37)*%
X153440000Y-163000000D03*
%TO.P,P1,38,Pin_38*%
%TO.N,unconnected-(P1-Pin_38-Pad38)*%
X155980000Y-163000000D03*
%TO.P,P1,39,Pin_39*%
%TO.N,unconnected-(P1-Pin_39-Pad39)*%
X158520000Y-163000000D03*
%TD*%
D16*
%TO.P,U1,1,G*%
%TO.N,/~{IORQ}*%
X80880000Y-156500000D03*
%TO.P,U1,2,P0*%
%TO.N,/A7*%
X82150000Y-156500000D03*
%TO.P,U1,3,R0*%
%TO.N,Net-(JP1-Pin_11)*%
X83420000Y-156500000D03*
%TO.P,U1,4,P1*%
%TO.N,/A6*%
X84690000Y-156500000D03*
%TO.P,U1,5,R1*%
%TO.N,Net-(JP1-Pin_9)*%
X85960000Y-156500000D03*
%TO.P,U1,6,P2*%
%TO.N,/A5*%
X87230000Y-156500000D03*
%TO.P,U1,7,R2*%
%TO.N,Net-(JP1-Pin_7)*%
X88500000Y-156500000D03*
%TO.P,U1,8,P3*%
%TO.N,/A4*%
X89770000Y-156500000D03*
%TO.P,U1,9,R3*%
%TO.N,Net-(JP1-Pin_5)*%
X91040000Y-156500000D03*
%TO.P,U1,10,GND*%
%TO.N,GND*%
X92310000Y-156500000D03*
%TO.P,U1,11,P4*%
%TO.N,/A3*%
X92310000Y-147200000D03*
%TO.P,U1,12,R4*%
%TO.N,Net-(JP1-Pin_3)*%
X91040000Y-147200000D03*
%TO.P,U1,13,P5*%
%TO.N,/A2*%
X89770000Y-147200000D03*
%TO.P,U1,14,R5*%
%TO.N,Net-(JP1-Pin_1)*%
X88500000Y-147200000D03*
%TO.P,U1,15,P6*%
%TO.N,GND*%
X87230000Y-147200000D03*
%TO.P,U1,16,R6*%
X85960000Y-147200000D03*
%TO.P,U1,17,P7*%
X84690000Y-147200000D03*
%TO.P,U1,18,R7*%
X83420000Y-147200000D03*
%TO.P,U1,19,P=R*%
%TO.N,/~{CS}*%
X82150000Y-147200000D03*
%TO.P,U1,20,VCC*%
%TO.N,VCC*%
X80880000Y-147200000D03*
%TD*%
D17*
%TO.P,C11,1*%
%TO.N,Net-(U3-AOUT)*%
X121500000Y-128605197D03*
%TO.P,C11,2*%
%TO.N,GND*%
X121500000Y-130155197D03*
%TD*%
%TO.P,C8,1*%
%TO.N,Net-(U3-CV)*%
X116500000Y-128605197D03*
%TO.P,C8,2*%
%TO.N,GND*%
X116500000Y-130155197D03*
%TD*%
%TO.P,C12,1*%
%TO.N,+5VA*%
X119250000Y-128605197D03*
%TO.P,C12,2*%
%TO.N,GND*%
X119250000Y-130155197D03*
%TD*%
D18*
%TO.P,U2,1,VDD*%
%TO.N,VCC*%
X114515000Y-156650000D03*
%TO.P,U2,2,~{IRQ}*%
%TO.N,unconnected-(U2-~{IRQ}-Pad2)*%
X115785000Y-156650000D03*
%TO.P,U2,3,~{IC}*%
%TO.N,/~{RESET}*%
X117055000Y-156650000D03*
%TO.P,U2,4,A_{0}*%
%TO.N,/A0*%
X118325000Y-156650000D03*
%TO.P,U2,5,A_{1}*%
%TO.N,/A1*%
X119595000Y-156650000D03*
%TO.P,U2,6,~{WR}*%
%TO.N,/~{WR}*%
X120865000Y-156650000D03*
%TO.P,U2,7,~{RD}*%
%TO.N,/~{RD}*%
X122135000Y-156650000D03*
%TO.P,U2,8,~{CS}*%
%TO.N,/~{CS}*%
X123405000Y-156650000D03*
%TO.P,U2,9,TEST*%
%TO.N,unconnected-(U2-TEST-Pad9)*%
X124675000Y-156650000D03*
%TO.P,U2,10,D_{0}*%
%TO.N,/D0*%
X125945000Y-156650000D03*
%TO.P,U2,11,D_{1}*%
%TO.N,/D1*%
X127215000Y-156650000D03*
%TO.P,U2,12,GND*%
%TO.N,GND*%
X128485000Y-156650000D03*
%TO.P,U2,13,D_{2}*%
%TO.N,/D2*%
X128485000Y-147350000D03*
%TO.P,U2,14,D_{3}*%
%TO.N,/D3*%
X127215000Y-147350000D03*
%TO.P,U2,15,D_{4}*%
%TO.N,/D4*%
X125945000Y-147350000D03*
%TO.P,U2,16,D_{5}*%
%TO.N,/D5*%
X124675000Y-147350000D03*
%TO.P,U2,17,D_{6}*%
%TO.N,/D6*%
X123405000Y-147350000D03*
%TO.P,U2,18,D_{7}*%
%TO.N,/D7*%
X122135000Y-147350000D03*
%TO.P,U2,19,SMPBD*%
%TO.N,/SMPBD*%
X120865000Y-147350000D03*
%TO.P,U2,20,SMPAC*%
%TO.N,/SMPAC*%
X119595000Y-147350000D03*
%TO.P,U2,21,DOAB*%
%TO.N,/DOAB*%
X118325000Y-147350000D03*
%TO.P,U2,22,DOCD*%
%TO.N,unconnected-(U2-DOCD-Pad22)*%
X117055000Y-147350000D03*
%TO.P,U2,23,\u03A6SY*%
%TO.N,/DAC_CLK*%
X115785000Y-147350000D03*
%TO.P,U2,24,\u03A6M*%
%TO.N,/CLK*%
X114515000Y-147350000D03*
%TD*%
D10*
%TO.P,C6,1*%
%TO.N,VCC*%
X80775000Y-145000000D03*
%TO.P,C6,2*%
%TO.N,GND*%
X79225000Y-145000000D03*
%TD*%
D19*
%TO.P,Y1,1,EN*%
%TO.N,VCC*%
X104710000Y-150750000D03*
%TO.P,Y1,2,GND*%
%TO.N,GND*%
X109790000Y-150750000D03*
%TO.P,Y1,3,OUT*%
%TO.N,/CLK*%
X109790000Y-146750000D03*
%TO.P,Y1,4,Vdd*%
%TO.N,VCC*%
X104710000Y-146750000D03*
%TD*%
D20*
%TO.P,L2,1,1*%
%TO.N,+5VA*%
X93000000Y-137912500D03*
%TO.P,L2,2,2*%
%TO.N,Net-(C3-Pad1)*%
X93000000Y-136337500D03*
%TD*%
D21*
%TO.P,U3,1,VDD*%
%TO.N,+5VA*%
X114555000Y-141250000D03*
%TO.P,U3,2,GND*%
%TO.N,GND*%
X115825000Y-141250000D03*
%TO.P,U3,3,VDD*%
%TO.N,+5VA*%
X117095000Y-141250000D03*
%TO.P,U3,4,DIN*%
%TO.N,/DOAB*%
X118365000Y-141250000D03*
%TO.P,U3,5,CLK*%
%TO.N,/DAC_CLK*%
X119635000Y-141250000D03*
%TO.P,U3,6,FSEL*%
%TO.N,+5VA*%
X120905000Y-141250000D03*
%TO.P,U3,7,SMP2*%
%TO.N,/SMPBD*%
X122175000Y-141250000D03*
%TO.P,U3,8,SMP1*%
%TO.N,/SMPAC*%
X123445000Y-141250000D03*
%TO.P,U3,9,TST1*%
%TO.N,+5VA*%
X123445000Y-134750000D03*
%TO.P,U3,10,CH1*%
%TO.N,/AUDIO_CH1*%
X122175000Y-134750000D03*
%TO.P,U3,11,CH2*%
%TO.N,/AUDIO_CH2*%
X120905000Y-134750000D03*
%TO.P,U3,12,SWIN*%
%TO.N,Net-(U3-SWIN)*%
X119635000Y-134750000D03*
%TO.P,U3,13,AOUT*%
%TO.N,Net-(U3-AOUT)*%
X118365000Y-134750000D03*
%TO.P,U3,14,MP*%
%TO.N,Net-(U3-MP)*%
X117095000Y-134750000D03*
%TO.P,U3,15,TST2*%
%TO.N,unconnected-(U3-TST2-Pad15)*%
X115825000Y-134750000D03*
%TO.P,U3,16,CV*%
%TO.N,Net-(U3-CV)*%
X114555000Y-134750000D03*
%TD*%
D22*
%TO.P,C2,1*%
%TO.N,VCC*%
X82000000Y-137887500D03*
%TO.P,C2,2*%
%TO.N,GND*%
X82000000Y-136337500D03*
%TD*%
D23*
%TO.P,R6,1*%
%TO.N,Net-(JP1-Pin_1)*%
X73337500Y-156000000D03*
%TO.P,R6,2*%
%TO.N,GND*%
X74987500Y-156000000D03*
%TD*%
D22*
%TO.P,C9,1*%
%TO.N,/AUDIO_CH1*%
X120500000Y-118750000D03*
%TO.P,C9,2*%
%TO.N,GND*%
X120500000Y-117200000D03*
%TD*%
D23*
%TO.P,R5,1*%
%TO.N,Net-(JP1-Pin_3)*%
X73337500Y-153500000D03*
%TO.P,R5,2*%
%TO.N,GND*%
X74987500Y-153500000D03*
%TD*%
%TO.P,R8,1*%
%TO.N,Net-(C15-Pad2)*%
X140100000Y-120000000D03*
%TO.P,R8,2*%
%TO.N,Net-(CON1-PadT)*%
X141750000Y-120000000D03*
%TD*%
D24*
%TO.P,R7,1*%
%TO.N,Net-(U3-SWIN)*%
X123250000Y-130255197D03*
%TO.P,R7,2*%
%TO.N,Net-(U4B--)*%
X123250000Y-128605197D03*
%TD*%
D23*
%TO.P,R9,1*%
%TO.N,Net-(C16-Pad2)*%
X139850000Y-130250000D03*
%TO.P,R9,2*%
%TO.N,Net-(CON1-PadR)*%
X141500000Y-130250000D03*
%TD*%
%TO.P,R3,1*%
%TO.N,Net-(JP1-Pin_7)*%
X73337500Y-148500000D03*
%TO.P,R3,2*%
%TO.N,GND*%
X74987500Y-148500000D03*
%TD*%
%TO.P,R1,1*%
%TO.N,Net-(JP1-Pin_11)*%
X73337500Y-143500000D03*
%TO.P,R1,2*%
%TO.N,GND*%
X74987500Y-143500000D03*
%TD*%
D22*
%TO.P,C10,1*%
%TO.N,/AUDIO_CH2*%
X117800000Y-118775000D03*
%TO.P,C10,2*%
%TO.N,GND*%
X117800000Y-117225000D03*
%TD*%
D23*
%TO.P,R2,1*%
%TO.N,Net-(JP1-Pin_9)*%
X73337500Y-146000000D03*
%TO.P,R2,2*%
%TO.N,GND*%
X74987500Y-146000000D03*
%TD*%
D25*
%TO.P,U4,1*%
%TO.N,Net-(U3-MP)*%
X115327500Y-125992697D03*
%TO.P,U4,2,-*%
X116597500Y-125992697D03*
%TO.P,U4,3,+*%
%TO.N,Net-(U3-CV)*%
X117867500Y-125992697D03*
%TO.P,U4,4,V+*%
%TO.N,+5VA*%
X119137500Y-125992697D03*
%TO.P,U4,5,+*%
%TO.N,Net-(U3-AOUT)*%
X120407500Y-125992697D03*
%TO.P,U4,6,-*%
%TO.N,Net-(U4B--)*%
X121677500Y-125992697D03*
%TO.P,U4,7*%
X122947500Y-125992697D03*
%TO.P,U4,8*%
%TO.N,/R*%
X122947500Y-121042697D03*
%TO.P,U4,9,-*%
X121677500Y-121042697D03*
%TO.P,U4,10,+*%
%TO.N,/AUDIO_CH1*%
X120407500Y-121042697D03*
%TO.P,U4,11,V-*%
%TO.N,GND*%
X119137500Y-121042697D03*
%TO.P,U4,12,+*%
%TO.N,/AUDIO_CH2*%
X117867500Y-121042697D03*
%TO.P,U4,13,-*%
%TO.N,/L*%
X116597500Y-121042697D03*
%TO.P,U4,14*%
X115327500Y-121042697D03*
%TD*%
D26*
%TO.P,C16,1*%
%TO.N,/R*%
X131550000Y-130250000D03*
%TO.P,C16,2*%
%TO.N,Net-(C16-Pad2)*%
X135950000Y-130250000D03*
%TD*%
D27*
%TO.P,C4,1*%
%TO.N,Net-(C3-Pad1)*%
X90000000Y-135725000D03*
%TO.P,C4,2*%
%TO.N,GND*%
X90000000Y-138675000D03*
%TD*%
D23*
%TO.P,R4,1*%
%TO.N,Net-(JP1-Pin_5)*%
X73337500Y-151000000D03*
%TO.P,R4,2*%
%TO.N,GND*%
X74987500Y-151000000D03*
%TD*%
D28*
%TO.P,C5,1*%
%TO.N,+5VA*%
X96200000Y-138675000D03*
%TO.P,C5,2*%
%TO.N,GND*%
X96200000Y-135725000D03*
%TD*%
D26*
%TO.P,C15,1*%
%TO.N,/L*%
X131300000Y-120000000D03*
%TO.P,C15,2*%
%TO.N,Net-(C15-Pad2)*%
X135700000Y-120000000D03*
%TD*%
D22*
%TO.P,C19,1*%
%TO.N,VCC*%
X101750000Y-150775000D03*
%TO.P,C19,2*%
%TO.N,GND*%
X101750000Y-149225000D03*
%TD*%
D23*
%TO.P,R10,1*%
%TO.N,GND*%
X140100000Y-125250000D03*
%TO.P,R10,2*%
%TO.N,Net-(CON1-PadT)*%
X141750000Y-125250000D03*
%TD*%
%TO.P,R11,1*%
%TO.N,GND*%
X139925000Y-135250000D03*
%TO.P,R11,2*%
%TO.N,Net-(CON1-PadR)*%
X141575000Y-135250000D03*
%TD*%
D17*
%TO.P,C3,1*%
%TO.N,Net-(C3-Pad1)*%
X87000000Y-136337500D03*
%TO.P,C3,2*%
%TO.N,GND*%
X87000000Y-137887500D03*
%TD*%
D29*
%TO.P,L1,1,1*%
%TO.N,Net-(C3-Pad1)*%
X84500000Y-136337500D03*
%TO.P,L1,2,2*%
%TO.N,VCC*%
X84500000Y-137912500D03*
%TD*%
D30*
%TO.N,VCC*%
X92212600Y-154250000D03*
X100722512Y-154075500D03*
%TO.N,GND*%
X76000000Y-153510000D03*
X76000000Y-143500000D03*
X144500000Y-157250000D03*
X121276187Y-131110261D03*
X109500000Y-141000000D03*
X87000000Y-139750000D03*
X139000000Y-125250000D03*
X97750000Y-157750000D03*
X142000000Y-157250000D03*
X82000000Y-134750000D03*
X96250000Y-134250000D03*
X61000000Y-155000000D03*
X117800000Y-116258122D03*
X128485000Y-158500000D03*
X76000000Y-156000000D03*
X101750000Y-148000000D03*
X76000000Y-148490000D03*
X116000000Y-160750000D03*
X115825000Y-139750000D03*
X119137499Y-122655196D03*
X109500000Y-156750000D03*
X83424718Y-145731499D03*
X78000000Y-145000000D03*
X119250001Y-131256115D03*
X61000000Y-150000000D03*
X120500000Y-116258122D03*
X138750000Y-135250000D03*
X115500000Y-130242697D03*
X61000000Y-160000000D03*
X61000000Y-145000000D03*
X132750000Y-151500000D03*
X92310001Y-158000000D03*
X90000000Y-140250000D03*
X76000000Y-146060000D03*
X76000000Y-151000000D03*
%TO.N,/~{IORQ}*%
X123800000Y-158500000D03*
X84770729Y-154688895D03*
%TO.N,/DAC_CLK*%
X117000000Y-144200000D03*
X119600000Y-142600000D03*
%TO.N,Net-(JP1-Pin_1)*%
X89856434Y-150522100D03*
X81368224Y-153118224D03*
%TO.N,Net-(JP1-Pin_9)*%
X85933864Y-152726900D03*
X85921125Y-154936700D03*
%TO.N,Net-(JP1-Pin_11)*%
X73225001Y-144546399D03*
X83420000Y-158250000D03*
%TO.N,Net-(JP1-Pin_3)*%
X78805238Y-153471756D03*
X90500000Y-149817600D03*
%TO.N,Net-(JP1-Pin_5)*%
X80874257Y-151454431D03*
X79176756Y-151880846D03*
%TD*%
D31*
%TO.N,VCC*%
X97795527Y-151004474D02*
X97000000Y-150208947D01*
X100770526Y-151004474D02*
X97795527Y-151004474D01*
X80862500Y-145000000D02*
X80862500Y-147182500D01*
X105180000Y-163000000D02*
X105180000Y-161820000D01*
X62460000Y-142790000D02*
X63750000Y-141500000D01*
X80862500Y-147182500D02*
X80880000Y-147200000D01*
X93750000Y-142000000D02*
X83200000Y-142000000D01*
X62460000Y-143460000D02*
X62460000Y-142790000D01*
X100770526Y-151004474D02*
X100770526Y-154027486D01*
X112112500Y-158387500D02*
X112112500Y-156750000D01*
X84404001Y-151749000D02*
X89711600Y-151749000D01*
X105180000Y-161820000D02*
X107250000Y-159750000D01*
X77837500Y-141500000D02*
X80862500Y-144525000D01*
X97000000Y-150208947D02*
X97000000Y-145250000D01*
X80862500Y-144525000D02*
X80862500Y-145000000D01*
X82000000Y-140800000D02*
X82000000Y-137862500D01*
X80880000Y-147200000D02*
X80880000Y-148224999D01*
X100770526Y-151004474D02*
X101000000Y-150775000D01*
X80880000Y-148224999D02*
X84404001Y-151749000D01*
X100770526Y-154027486D02*
X100722512Y-154075500D01*
X110750000Y-159750000D02*
X112112500Y-158387500D01*
X112112500Y-156750000D02*
X114415000Y-156750000D01*
X62460000Y-156160000D02*
X62460000Y-143460000D01*
X104710000Y-146750000D02*
X104710000Y-150750000D01*
X89711600Y-151749000D02*
X92212600Y-154250000D01*
X82000000Y-137975000D02*
X84475000Y-137975000D01*
X107250000Y-159750000D02*
X110750000Y-159750000D01*
X63750000Y-141500000D02*
X77837500Y-141500000D01*
X97000000Y-145250000D02*
X93750000Y-142000000D01*
X83200000Y-142000000D02*
X82000000Y-140800000D01*
X101000000Y-150775000D02*
X104685000Y-150775000D01*
D32*
%TO.N,GND*%
X90000000Y-138675000D02*
X90000000Y-140250000D01*
X86000000Y-149000000D02*
X87230000Y-149000000D01*
X110387500Y-141000000D02*
X109500000Y-141000000D01*
X92310000Y-156500000D02*
X92310001Y-158000000D01*
X85960000Y-147200000D02*
X85960000Y-148960000D01*
X83424720Y-145731500D02*
X83424718Y-145731499D01*
X87000000Y-137975000D02*
X87000000Y-139750000D01*
X83417900Y-147794174D02*
X83417900Y-149000000D01*
X84700000Y-149000000D02*
X86000000Y-149000000D01*
X117800000Y-117225000D02*
X117800000Y-116258122D01*
X119250000Y-130242697D02*
X119250001Y-131256115D01*
X83420000Y-147200000D02*
X83420000Y-145736217D01*
X83417900Y-149000000D02*
X84700000Y-149000000D01*
X140100000Y-125250000D02*
X139000000Y-125250000D01*
X120500000Y-116742697D02*
X120500000Y-116258122D01*
X84690000Y-148990000D02*
X84700000Y-149000000D01*
X75245000Y-156000000D02*
X76000000Y-156000000D01*
X76000000Y-148490000D02*
X75225000Y-148490000D01*
X119137500Y-121042697D02*
X119137499Y-122655196D01*
X75050000Y-146060000D02*
X76000000Y-146060000D01*
X76000000Y-151000000D02*
X75225000Y-151000000D01*
X110387500Y-156750000D02*
X109500000Y-156750000D01*
X96200000Y-134300000D02*
X96250000Y-134250000D01*
X128485000Y-156650000D02*
X128485000Y-158500000D01*
X139925000Y-135250000D02*
X138750000Y-135250000D01*
X116500000Y-130242697D02*
X115500000Y-130242697D01*
X121500000Y-130242697D02*
X121500000Y-130982762D01*
X115825000Y-141250000D02*
X115825000Y-139750000D01*
X121372501Y-131110261D02*
X121276187Y-131110261D01*
X87230000Y-149000000D02*
X87230000Y-147664200D01*
X75225000Y-156020000D02*
X75245000Y-156000000D01*
X84690000Y-147200000D02*
X84690000Y-148990000D01*
X121500000Y-130982762D02*
X121372501Y-131110261D01*
X101750000Y-149137500D02*
X101750000Y-148000000D01*
X83420000Y-145736217D02*
X83424718Y-145731499D01*
X96200000Y-135725000D02*
X96200000Y-134300000D01*
X75225000Y-153510000D02*
X76000000Y-153510000D01*
X82000000Y-136250000D02*
X82000000Y-134750000D01*
X75080000Y-143500000D02*
X76000000Y-143500000D01*
X85960000Y-148960000D02*
X86000000Y-149000000D01*
%TO.N,/CLK*%
X112000000Y-146750000D02*
X109790000Y-146750000D01*
X114515000Y-147350000D02*
X112600000Y-147350000D01*
X112600000Y-147350000D02*
X112000000Y-146750000D01*
%TO.N,/D0*%
X125945000Y-159545000D02*
X128040000Y-161640000D01*
X128040000Y-161640000D02*
X128040000Y-163000000D01*
X125945000Y-156650000D02*
X125945000Y-159545000D01*
%TO.N,/D1*%
X129687400Y-160687400D02*
X130580000Y-161580000D01*
X127200000Y-156665000D02*
X127200000Y-159600000D01*
X130580000Y-161580000D02*
X130580000Y-163000000D01*
X127200000Y-159600000D02*
X128287400Y-160687400D01*
X128287400Y-160687400D02*
X129687400Y-160687400D01*
%TO.N,/D2*%
X128485000Y-147350000D02*
X128485000Y-149235000D01*
X128485000Y-149235000D02*
X133120000Y-153870000D01*
X133120000Y-153870000D02*
X133120000Y-163000000D01*
%TO.N,/D3*%
X127215000Y-147350000D02*
X127215000Y-146035000D01*
X135660000Y-152379648D02*
X135660000Y-163000000D01*
X127215000Y-146035000D02*
X127750000Y-145500000D01*
X128780352Y-145500000D02*
X135660000Y-152379648D01*
X127750000Y-145500000D02*
X128780352Y-145500000D01*
%TO.N,/D4*%
X130179335Y-144865000D02*
X127227104Y-144865000D01*
X127227104Y-144865000D02*
X125945000Y-146147104D01*
X125945000Y-146147104D02*
X125945000Y-147350000D01*
X138200000Y-152885665D02*
X130179335Y-144865000D01*
X138200000Y-163000000D02*
X138200000Y-152885665D01*
%TO.N,/D5*%
X132230000Y-144230000D02*
X126467039Y-144230000D01*
X124675000Y-146022039D02*
X124675000Y-147350000D01*
X140740000Y-163000000D02*
X140740000Y-152740000D01*
X140740000Y-152740000D02*
X132230000Y-144230000D01*
X126467039Y-144230000D02*
X124675000Y-146022039D01*
%TO.N,/D6*%
X143280000Y-163000000D02*
X143280000Y-152280000D01*
X143280000Y-152280000D02*
X134200000Y-143200000D01*
X123405000Y-145795000D02*
X123405000Y-146791702D01*
X134200000Y-143200000D02*
X126000000Y-143200000D01*
X126000000Y-143200000D02*
X123405000Y-145795000D01*
%TO.N,/D7*%
X136000000Y-142000000D02*
X125842696Y-142000000D01*
X145820000Y-151820000D02*
X136000000Y-142000000D01*
X122135000Y-145707696D02*
X122135000Y-147350000D01*
X125842696Y-142000000D02*
X122135000Y-145707696D01*
X145820000Y-163000000D02*
X145820000Y-151820000D01*
%TO.N,/A1*%
X118250000Y-154000000D02*
X115398026Y-154000000D01*
X119595000Y-156650000D02*
X119595000Y-155345000D01*
X113869176Y-154569500D02*
X113386243Y-155052433D01*
X113386243Y-155052433D02*
X105507567Y-155052433D01*
X105507567Y-155052433D02*
X97560000Y-163000000D01*
X114828526Y-154569500D02*
X113869176Y-154569500D01*
X115398026Y-154000000D02*
X114828526Y-154569500D01*
X119595000Y-155345000D02*
X118250000Y-154000000D01*
%TO.N,/A4*%
X89770000Y-159070000D02*
X89940000Y-159240000D01*
X89940000Y-159240000D02*
X89940000Y-163000000D01*
X89770000Y-156560000D02*
X89770000Y-159070000D01*
%TO.N,/A3*%
X94000000Y-159200000D02*
X92480000Y-160720000D01*
X92300000Y-151607629D02*
X94000000Y-153307629D01*
X94000000Y-153307629D02*
X94000000Y-159200000D01*
X92300000Y-147210000D02*
X92300000Y-151607629D01*
X92480000Y-160720000D02*
X92480000Y-163000000D01*
%TO.N,/A2*%
X93055500Y-151465103D02*
X95000000Y-153409603D01*
X95000000Y-153409603D02*
X95000000Y-162980000D01*
X90215501Y-145729500D02*
X92710820Y-145729500D01*
X92710820Y-145729500D02*
X93055500Y-146074180D01*
X89770000Y-146175001D02*
X90215501Y-145729500D01*
X93055500Y-146074180D02*
X93055500Y-151465103D01*
X89770000Y-147200000D02*
X89770000Y-146175001D01*
%TO.N,/A5*%
X87200000Y-156530000D02*
X87200000Y-159200000D01*
X87400000Y-159400000D02*
X87400000Y-163000000D01*
X87200000Y-159200000D02*
X87400000Y-159400000D01*
%TO.N,/A6*%
X84700000Y-156510000D02*
X84700000Y-159300000D01*
X84860000Y-159460000D02*
X84860000Y-163000000D01*
X84700000Y-159300000D02*
X84860000Y-159460000D01*
%TO.N,/A7*%
X82150000Y-156500000D02*
X82150000Y-162830000D01*
%TO.N,/A0*%
X113794500Y-155687433D02*
X113794500Y-155542202D01*
X115091552Y-155204500D02*
X117954500Y-155204500D01*
X113794500Y-155542202D02*
X114132202Y-155204500D01*
X118325000Y-155575000D02*
X118325000Y-156650000D01*
X117954500Y-155204500D02*
X118325000Y-155575000D01*
X105812567Y-155687433D02*
X113794500Y-155687433D01*
X114132202Y-155204500D02*
X114897798Y-155204500D01*
X114897798Y-155204500D02*
X114994675Y-155301377D01*
X100100000Y-163000000D02*
X100100000Y-161400000D01*
X114994675Y-155301377D02*
X115091552Y-155204500D01*
X100100000Y-161400000D02*
X105812567Y-155687433D01*
%TO.N,/~{CS}*%
X93500000Y-143500000D02*
X95250000Y-145250000D01*
X99151000Y-154901000D02*
X101064445Y-154901000D01*
X120550000Y-152750000D02*
X123405000Y-155605000D01*
X82150000Y-147200000D02*
X82150000Y-145598586D01*
X123405000Y-155605000D02*
X123405000Y-156650000D01*
X82150000Y-145598586D02*
X84248586Y-143500000D01*
X103215445Y-152750000D02*
X120550000Y-152750000D01*
X95250000Y-145250000D02*
X95250000Y-151000000D01*
X84248586Y-143500000D02*
X93500000Y-143500000D01*
X95250000Y-151000000D02*
X99151000Y-154901000D01*
X101064445Y-154901000D02*
X103215445Y-152750000D01*
%TO.N,/~{RESET}*%
X110260000Y-162825300D02*
X110260000Y-161740000D01*
X117055000Y-158545000D02*
X117055000Y-156760000D01*
X110260000Y-161740000D02*
X112800000Y-159200000D01*
X112800000Y-159200000D02*
X116400000Y-159200000D01*
X116400000Y-159200000D02*
X117055000Y-158545000D01*
%TO.N,/~{WR}*%
X120865000Y-159335000D02*
X120420000Y-159780000D01*
X120420000Y-159780000D02*
X120420000Y-163000000D01*
X120865000Y-156650000D02*
X120865000Y-159335000D01*
%TO.N,/~{IORQ}*%
X125500000Y-161500000D02*
X123800000Y-159800000D01*
X125500000Y-163000000D02*
X125500000Y-161500000D01*
X123800000Y-159800000D02*
X123800000Y-158500000D01*
X80880000Y-155333552D02*
X81524657Y-154688895D01*
X81524657Y-154688895D02*
X84770729Y-154688895D01*
X80880000Y-156500000D02*
X80880000Y-155333552D01*
%TO.N,/~{RD}*%
X122960000Y-161560000D02*
X122960000Y-163000000D01*
X122135000Y-156650000D02*
X122135000Y-160735000D01*
X122135000Y-160735000D02*
X122960000Y-161560000D01*
%TO.N,/DAC_CLK*%
X115785000Y-147350000D02*
X115785000Y-145415000D01*
X115785000Y-145415000D02*
X117000000Y-144200000D01*
X119600000Y-142600000D02*
X119600000Y-141285000D01*
%TO.N,/R*%
X126792697Y-121042697D02*
X128750000Y-123000000D01*
X129750000Y-130250000D02*
X131550000Y-130250000D01*
X128750000Y-123000000D02*
X128750000Y-129250000D01*
X128750000Y-129250000D02*
X129750000Y-130250000D01*
X121677500Y-121042697D02*
X122947500Y-121042697D01*
X122947500Y-121042697D02*
X126792697Y-121042697D01*
%TO.N,/L*%
X115327500Y-121042697D02*
X115327500Y-117267697D01*
X116200000Y-115200000D02*
X124450000Y-115200000D01*
X115327500Y-118345197D02*
X116597500Y-119615197D01*
X129250000Y-120000000D02*
X124450000Y-115200000D01*
X116200000Y-115200000D02*
X115327500Y-116072500D01*
X115327500Y-116072500D02*
X115327500Y-117267697D01*
X131300000Y-120000000D02*
X129250000Y-120000000D01*
X115327500Y-117267697D02*
X115327500Y-118345197D01*
X116597500Y-119615197D02*
X116597500Y-121042697D01*
%TO.N,/SMPBD*%
X120865000Y-147350000D02*
X120865000Y-145536414D01*
X124000000Y-138800000D02*
X122800000Y-138800000D01*
X120865000Y-145536414D02*
X125000000Y-141401414D01*
X122175000Y-139425000D02*
X122175000Y-141250000D01*
X125000000Y-139800000D02*
X124000000Y-138800000D01*
X125000000Y-141401414D02*
X125000000Y-139800000D01*
X122800000Y-138800000D02*
X122175000Y-139425000D01*
%TO.N,/DOAB*%
X118365000Y-141250000D02*
X118365000Y-147310000D01*
%TO.N,/SMPAC*%
X123445000Y-142058388D02*
X123445000Y-141250000D01*
X119595000Y-147350000D02*
X119595000Y-145908388D01*
X119595000Y-145908388D02*
X123445000Y-142058388D01*
%TO.N,Net-(C3-Pad1)*%
X92250000Y-136250000D02*
X91725000Y-135725000D01*
X91725000Y-135725000D02*
X90000000Y-135725000D01*
X87000000Y-136250000D02*
X87750000Y-136250000D01*
X93000000Y-136250000D02*
X92250000Y-136250000D01*
X84500000Y-136250000D02*
X87000000Y-136250000D01*
X88275000Y-135725000D02*
X90000000Y-135725000D01*
X87750000Y-136250000D02*
X88275000Y-135725000D01*
%TO.N,Net-(U3-CV)*%
X115400000Y-132200000D02*
X116600000Y-132200000D01*
X114555000Y-133045000D02*
X115400000Y-132200000D01*
X117867500Y-128517697D02*
X117867500Y-125992697D01*
X117867500Y-130932500D02*
X117867500Y-128517697D01*
X116500000Y-128517697D02*
X117867500Y-128517697D01*
X114555000Y-133967698D02*
X114555000Y-133045000D01*
X116600000Y-132200000D02*
X117867500Y-130932500D01*
X114555000Y-134750000D02*
X114555000Y-133950001D01*
%TO.N,Net-(U3-AOUT)*%
X121131180Y-127267697D02*
X120407500Y-127267697D01*
X120407500Y-125992697D02*
X120407500Y-127267697D01*
X121500000Y-128605197D02*
X121500000Y-127636517D01*
X118365000Y-133557106D02*
X118365000Y-134750000D01*
X121500000Y-127636517D02*
X121131180Y-127267697D01*
X120407500Y-127267697D02*
X120407500Y-131532303D01*
X120407500Y-131532303D02*
X118365000Y-133574803D01*
%TO.N,Net-(C15-Pad2)*%
X140100000Y-120000000D02*
X135700000Y-120000000D01*
%TO.N,/AUDIO_CH2*%
X122793820Y-124017697D02*
X119000000Y-124017697D01*
X125000000Y-130349110D02*
X125000000Y-126223877D01*
X119000000Y-124017697D02*
X117867500Y-122885197D01*
X117867500Y-121042697D02*
X117867500Y-118842500D01*
X120905000Y-134216085D02*
X120905000Y-134095000D01*
X122365000Y-132635000D02*
X122714110Y-132635000D01*
X117867500Y-122885197D02*
X117867500Y-121042697D01*
X120905000Y-134095000D02*
X122365000Y-132635000D01*
X125000000Y-126223877D02*
X122793820Y-124017697D01*
X122714110Y-132635000D02*
X125000000Y-130349110D01*
%TO.N,+5VA*%
X116600000Y-142612600D02*
X117095000Y-142117600D01*
X117600000Y-139400000D02*
X120605000Y-139400000D01*
X115117601Y-142612600D02*
X116600000Y-142612600D01*
X103512500Y-138487500D02*
X103512500Y-132530197D01*
X112312500Y-141200000D02*
X114505000Y-141200000D01*
X117713820Y-124017697D02*
X119137500Y-125441377D01*
X93000000Y-138000000D02*
X94000000Y-138000000D01*
X117095000Y-142117600D02*
X117095000Y-141250000D01*
X96200000Y-138675000D02*
X110875000Y-138675000D01*
X114555000Y-142049999D02*
X115117601Y-142612600D01*
X120905000Y-139700000D02*
X120905000Y-141250000D01*
X120905000Y-138295000D02*
X120905000Y-141250000D01*
X120605000Y-139400000D02*
X120905000Y-139700000D01*
X94000000Y-138000000D02*
X94675000Y-138675000D01*
X123445000Y-134750000D02*
X123445000Y-135755000D01*
X112025000Y-139825000D02*
X112025000Y-141000000D01*
X112025000Y-124017697D02*
X117713820Y-124017697D01*
X119137500Y-125992697D02*
X119137500Y-128405197D01*
X110875000Y-138675000D02*
X112025000Y-139825000D01*
X114555000Y-141250000D02*
X114555000Y-142049999D01*
X94675000Y-138675000D02*
X96200000Y-138675000D01*
X103512500Y-132530197D02*
X112025000Y-124017697D01*
X117095000Y-141250000D02*
X117095000Y-139905000D01*
X117095000Y-139905000D02*
X117600000Y-139400000D01*
X123445000Y-135755000D02*
X120905000Y-138295000D01*
%TO.N,Net-(C16-Pad2)*%
X136200000Y-130250000D02*
X139850000Y-130250000D01*
%TO.N,Net-(U4B--)*%
X121677500Y-125992697D02*
X122947500Y-125992697D01*
X122947500Y-128215197D02*
X123250000Y-128517697D01*
X122947500Y-125992697D02*
X122947500Y-128215197D01*
%TO.N,Net-(U3-SWIN)*%
X119635000Y-133865000D02*
X121500000Y-132000000D01*
X119635000Y-134750000D02*
X119635000Y-133865000D01*
X122250000Y-132000000D02*
X123250000Y-131000000D01*
X123250000Y-131000000D02*
X123250000Y-130255197D01*
X121500000Y-132000000D02*
X122250000Y-132000000D01*
%TO.N,Net-(U3-MP)*%
X112500000Y-130017697D02*
X112500000Y-135267697D01*
X117095000Y-135705834D02*
X117095000Y-134750000D01*
X115628100Y-125992697D02*
X116296900Y-125992697D01*
X113750000Y-136500000D02*
X116300834Y-136500000D01*
X115327500Y-127190197D02*
X112500000Y-130017697D01*
X115327500Y-125992697D02*
X115327500Y-127190197D01*
X112500000Y-135250000D02*
X113750000Y-136500000D01*
X115437600Y-125992697D02*
X115628100Y-125992697D01*
X116296900Y-125992697D02*
X116487400Y-125992697D01*
X116300834Y-136500000D02*
X117095000Y-135705834D01*
%TO.N,Net-(JP1-Pin_1)*%
X71090000Y-156160000D02*
X72500000Y-154750000D01*
X65000000Y-156160000D02*
X71090000Y-156160000D01*
X72500000Y-154750000D02*
X79736448Y-154750000D01*
X88500000Y-147200000D02*
X88500000Y-149165666D01*
X88500000Y-149165666D02*
X89856434Y-150522100D01*
X79736448Y-154750000D02*
X81368224Y-153118224D01*
%TO.N,Net-(JP1-Pin_9)*%
X85960000Y-154975575D02*
X85921125Y-154936700D01*
X72487000Y-147500000D02*
X78832566Y-147500000D01*
X65013000Y-146013000D02*
X71000000Y-146013000D01*
X78832566Y-147500000D02*
X83907066Y-152574500D01*
X83907066Y-152574500D02*
X85781464Y-152574500D01*
X85781464Y-152574500D02*
X85933864Y-152726900D01*
X85960000Y-156500000D02*
X85960000Y-154975575D01*
X71000000Y-146013000D02*
X72487000Y-147500000D01*
X71000000Y-146013000D02*
X73178000Y-146013000D01*
%TO.N,Net-(JP1-Pin_7)*%
X79118462Y-150709000D02*
X77522552Y-150709000D01*
X86750620Y-154149300D02*
X85344686Y-154149300D01*
X76563552Y-149750000D02*
X74050000Y-149750000D01*
X83208052Y-153844500D02*
X81694376Y-152330824D01*
X77522552Y-150709000D02*
X76563552Y-149750000D01*
X73400000Y-149100000D02*
X73400000Y-148490000D01*
X72829700Y-148540000D02*
X65000000Y-148540000D01*
X80135000Y-151885000D02*
X80135000Y-151725538D01*
X80580824Y-152330824D02*
X80135000Y-151885000D01*
X80135000Y-151725538D02*
X79118462Y-150709000D01*
X72832700Y-148537000D02*
X72829700Y-148540000D01*
X88500000Y-155898680D02*
X86750620Y-154149300D01*
X85344686Y-154149300D02*
X85039886Y-153844500D01*
X81694376Y-152330824D02*
X80580824Y-152330824D01*
X74050000Y-149750000D02*
X73400000Y-149100000D01*
X73102100Y-148537000D02*
X72832700Y-148537000D01*
X85039886Y-153844500D02*
X83208052Y-153844500D01*
%TO.N,Net-(JP1-Pin_11)*%
X83420000Y-156500000D02*
X83420000Y-158250000D01*
X73225000Y-143470000D02*
X73225001Y-144546399D01*
X65000000Y-143460000D02*
X72927100Y-143460000D01*
%TO.N,Net-(JP1-Pin_3)*%
X74302400Y-152555500D02*
X73779900Y-153078000D01*
X91040000Y-147200000D02*
X91040000Y-149277600D01*
X73358668Y-153557000D02*
X65063000Y-153557000D01*
X91040000Y-149277600D02*
X90500000Y-149817600D01*
X78805238Y-153471756D02*
X77888982Y-152555500D01*
X73779900Y-153078000D02*
X73400000Y-153510000D01*
X77888982Y-152555500D02*
X74302400Y-152555500D01*
%TO.N,Net-(JP1-Pin_5)*%
X89079299Y-153514300D02*
X85607712Y-153514300D01*
X91040000Y-156500000D02*
X91040000Y-155475001D01*
X85607712Y-153514300D02*
X85302912Y-153209500D01*
X79137102Y-151920500D02*
X79176756Y-151880846D01*
X73400000Y-151000000D02*
X74320500Y-151920500D01*
X81716009Y-151454431D02*
X80874257Y-151454431D01*
X91040000Y-155475001D02*
X89079299Y-153514300D01*
X85302912Y-153209500D02*
X83471078Y-153209500D01*
X83471078Y-153209500D02*
X81716009Y-151454431D01*
X74320500Y-151920500D02*
X79137102Y-151920500D01*
X73102100Y-151047000D02*
X65033000Y-151047000D01*
%TO.N,/AUDIO_CH1*%
X123499293Y-132750707D02*
X124749293Y-132750707D01*
X122175000Y-134075000D02*
X123499293Y-132750707D01*
X124000000Y-123017697D02*
X121000000Y-123017697D01*
X120407500Y-122425197D02*
X120407500Y-121042697D01*
X121000000Y-123017697D02*
X120407500Y-122425197D01*
X126750000Y-130767697D02*
X126750000Y-125767697D01*
X124749293Y-132768404D02*
X126750000Y-130767697D01*
X120407500Y-121042697D02*
X120407500Y-118385197D01*
X122175000Y-134750000D02*
X122175000Y-134075000D01*
X126750000Y-125767697D02*
X124000000Y-123017697D01*
%TO.N,Net-(CON1-PadT)*%
X141750000Y-120000000D02*
X141750000Y-125250000D01*
X149069000Y-120095000D02*
X141845000Y-120095000D01*
%TO.N,Net-(CON1-PadR)*%
X141500000Y-130250000D02*
X149164000Y-130250000D01*
X141500000Y-130250000D02*
X141500000Y-135175000D01*
%TD*%
%TA.AperFunction,Conductor*%
%TO.N,GND*%
G36*
X111016621Y-156398435D02*
G01*
X111063114Y-156452091D01*
X111074500Y-156504433D01*
X111074500Y-157048345D01*
X111084650Y-157147704D01*
X111084650Y-157147706D01*
X111084651Y-157147708D01*
X111119319Y-157252331D01*
X111137998Y-157308699D01*
X111212240Y-157429063D01*
X111231000Y-157495210D01*
X111231000Y-157970180D01*
X111210998Y-158038301D01*
X111194095Y-158059275D01*
X110421775Y-158831595D01*
X110359463Y-158865621D01*
X110332680Y-158868500D01*
X107163175Y-158868500D01*
X106992875Y-158902376D01*
X106992872Y-158902377D01*
X106832452Y-158968825D01*
X106688074Y-159065295D01*
X106688068Y-159065300D01*
X104495300Y-161258068D01*
X104495295Y-161258074D01*
X104398825Y-161402452D01*
X104342497Y-161538442D01*
X104332376Y-161562876D01*
X104319411Y-161628057D01*
X104304063Y-161705217D01*
X104298500Y-161733181D01*
X104298500Y-161919413D01*
X104278498Y-161987534D01*
X104261595Y-162008508D01*
X104149900Y-162120202D01*
X104149898Y-162120205D01*
X104024951Y-162292180D01*
X104024949Y-162292184D01*
X103928443Y-162481588D01*
X103862754Y-162683757D01*
X103829500Y-162893713D01*
X103829500Y-163106287D01*
X103862754Y-163316243D01*
X103928443Y-163518412D01*
X104024949Y-163707816D01*
X104149896Y-163879792D01*
X104149898Y-163879794D01*
X104149900Y-163879797D01*
X104300202Y-164030099D01*
X104300205Y-164030101D01*
X104300208Y-164030104D01*
X104472184Y-164155051D01*
X104533383Y-164186233D01*
X104584998Y-164234981D01*
X104602064Y-164303896D01*
X104579163Y-164371098D01*
X104523566Y-164415250D01*
X104476180Y-164424500D01*
X100803820Y-164424500D01*
X100735699Y-164404498D01*
X100689206Y-164350842D01*
X100679102Y-164280568D01*
X100708596Y-164215988D01*
X100746615Y-164186234D01*
X100807816Y-164155051D01*
X100979792Y-164030104D01*
X101130104Y-163879792D01*
X101255051Y-163707816D01*
X101351557Y-163518412D01*
X101417246Y-163316243D01*
X101450500Y-163106287D01*
X101450500Y-162893713D01*
X101417246Y-162683757D01*
X101351557Y-162481588D01*
X101255051Y-162292184D01*
X101130104Y-162120208D01*
X101130101Y-162120205D01*
X101130099Y-162120202D01*
X100979797Y-161969900D01*
X100979794Y-161969898D01*
X100979793Y-161969897D01*
X100979792Y-161969896D01*
X100842939Y-161870467D01*
X100839543Y-161866063D01*
X100834488Y-161863755D01*
X100818101Y-161838257D01*
X100799585Y-161814245D01*
X100798311Y-161807463D01*
X100796104Y-161804029D01*
X100791000Y-161768531D01*
X100791000Y-161738411D01*
X100811002Y-161670290D01*
X100827905Y-161649316D01*
X106061883Y-156415338D01*
X106124195Y-156381312D01*
X106150978Y-156378433D01*
X110948500Y-156378433D01*
X111016621Y-156398435D01*
G37*
%TD.AperFunction*%
%TA.AperFunction,Conductor*%
G36*
X155002611Y-114575608D02*
G01*
X155442760Y-114593812D01*
X155453109Y-114594669D01*
X155887674Y-114648838D01*
X155897938Y-114650551D01*
X156326544Y-114740420D01*
X156336612Y-114742969D01*
X156756351Y-114867931D01*
X156766183Y-114871307D01*
X156923625Y-114932741D01*
X157174138Y-115030492D01*
X157183675Y-115034675D01*
X157577094Y-115227006D01*
X157586252Y-115231962D01*
X157962439Y-115456120D01*
X157971158Y-115461816D01*
X158327560Y-115716282D01*
X158335767Y-115722669D01*
X158669954Y-116005712D01*
X158677602Y-116012754D01*
X158987245Y-116322397D01*
X158994288Y-116330046D01*
X159277327Y-116664229D01*
X159283717Y-116672439D01*
X159538183Y-117028841D01*
X159543879Y-117037560D01*
X159768037Y-117413747D01*
X159772993Y-117422905D01*
X159965324Y-117816324D01*
X159969507Y-117825861D01*
X160128689Y-118233807D01*
X160132071Y-118243657D01*
X160257026Y-118663373D01*
X160259582Y-118673468D01*
X160349447Y-119102057D01*
X160351161Y-119112329D01*
X160405328Y-119546876D01*
X160406188Y-119557254D01*
X160424392Y-119997388D01*
X160424500Y-120002595D01*
X160424500Y-121337500D01*
X160404498Y-121405621D01*
X160350842Y-121452114D01*
X160298500Y-121463500D01*
X159536531Y-121463500D01*
X159512000Y-121463500D01*
X159416102Y-121463500D01*
X159226667Y-121493503D01*
X159226664Y-121493503D01*
X159226663Y-121493504D01*
X159044259Y-121552771D01*
X158873363Y-121639847D01*
X158718197Y-121752582D01*
X158718194Y-121752584D01*
X158582584Y-121888194D01*
X158582582Y-121888197D01*
X158469847Y-122043363D01*
X158382771Y-122214259D01*
X158327040Y-122385781D01*
X158323503Y-122396667D01*
X158293500Y-122586102D01*
X158293500Y-122666982D01*
X158293500Y-127483469D01*
X158293500Y-127508000D01*
X158293500Y-127603898D01*
X158323503Y-127793333D01*
X158323504Y-127793336D01*
X158382296Y-127974279D01*
X158382772Y-127975742D01*
X158469845Y-128146633D01*
X158582580Y-128301800D01*
X158582582Y-128301802D01*
X158582584Y-128301805D01*
X158718194Y-128437415D01*
X158718197Y-128437417D01*
X158718200Y-128437420D01*
X158873367Y-128550155D01*
X159044258Y-128637228D01*
X159226667Y-128696497D01*
X159416102Y-128726500D01*
X159496982Y-128726500D01*
X160298500Y-128726500D01*
X160366621Y-128746502D01*
X160413114Y-128800158D01*
X160424500Y-128852500D01*
X160424500Y-164298500D01*
X160404498Y-164366621D01*
X160350842Y-164413114D01*
X160298500Y-164424500D01*
X159223820Y-164424500D01*
X159155699Y-164404498D01*
X159109206Y-164350842D01*
X159099102Y-164280568D01*
X159128596Y-164215988D01*
X159166615Y-164186234D01*
X159227816Y-164155051D01*
X159399792Y-164030104D01*
X159550104Y-163879792D01*
X159675051Y-163707816D01*
X159771557Y-163518412D01*
X159837246Y-163316243D01*
X159870500Y-163106287D01*
X159870500Y-162893713D01*
X159837246Y-162683757D01*
X159771557Y-162481588D01*
X159675051Y-162292184D01*
X159550104Y-162120208D01*
X159550101Y-162120205D01*
X159550099Y-162120202D01*
X159399797Y-161969900D01*
X159399794Y-161969898D01*
X159399793Y-161969897D01*
X159399792Y-161969896D01*
X159262939Y-161870467D01*
X159227819Y-161844951D01*
X159227818Y-161844950D01*
X159227816Y-161844949D01*
X159038412Y-161748443D01*
X158836243Y-161682754D01*
X158626287Y-161649500D01*
X158413713Y-161649500D01*
X158203757Y-161682754D01*
X158203754Y-161682754D01*
X158203753Y-161682755D01*
X158001588Y-161748443D01*
X158001586Y-161748444D01*
X157812180Y-161844951D01*
X157640205Y-161969898D01*
X157640202Y-161969900D01*
X157489900Y-162120202D01*
X157489898Y-162120205D01*
X157364949Y-162292183D01*
X157362265Y-162297451D01*
X157313516Y-162349065D01*
X157244600Y-162366129D01*
X157177399Y-162343226D01*
X157137735Y-162297451D01*
X157135050Y-162292183D01*
X157037176Y-162157470D01*
X157010104Y-162120208D01*
X157010101Y-162120205D01*
X157010099Y-162120202D01*
X156859797Y-161969900D01*
X156859794Y-161969898D01*
X156859793Y-161969897D01*
X156859792Y-161969896D01*
X156722939Y-161870467D01*
X156687819Y-161844951D01*
X156687818Y-161844950D01*
X156687816Y-161844949D01*
X156498412Y-161748443D01*
X156296243Y-161682754D01*
X156086287Y-161649500D01*
X155873713Y-161649500D01*
X155663757Y-161682754D01*
X155663754Y-161682754D01*
X155663753Y-161682755D01*
X155461588Y-161748443D01*
X155461586Y-161748444D01*
X155272180Y-161844951D01*
X155100205Y-161969898D01*
X155100202Y-161969900D01*
X154949900Y-162120202D01*
X154949898Y-162120205D01*
X154824949Y-162292183D01*
X154822265Y-162297451D01*
X154773516Y-162349065D01*
X154704600Y-162366129D01*
X154637399Y-162343226D01*
X154597735Y-162297451D01*
X154595050Y-162292183D01*
X154497176Y-162157470D01*
X154470104Y-162120208D01*
X154470101Y-162120205D01*
X154470099Y-162120202D01*
X154319797Y-161969900D01*
X154319794Y-161969898D01*
X154319793Y-161969897D01*
X154319792Y-161969896D01*
X154182939Y-161870467D01*
X154147819Y-161844951D01*
X154147818Y-161844950D01*
X154147816Y-161844949D01*
X153958412Y-161748443D01*
X153756243Y-161682754D01*
X153546287Y-161649500D01*
X153333713Y-161649500D01*
X153123757Y-161682754D01*
X153123754Y-161682754D01*
X153123753Y-161682755D01*
X152921588Y-161748443D01*
X152921586Y-161748444D01*
X152732180Y-161844951D01*
X152560205Y-161969898D01*
X152560202Y-161969900D01*
X152409900Y-162120202D01*
X152409898Y-162120205D01*
X152284949Y-162292183D01*
X152282265Y-162297451D01*
X152233516Y-162349065D01*
X152164600Y-162366129D01*
X152097399Y-162343226D01*
X152057735Y-162297451D01*
X152055050Y-162292183D01*
X151957176Y-162157470D01*
X151930104Y-162120208D01*
X151930101Y-162120205D01*
X151930099Y-162120202D01*
X151779797Y-161969900D01*
X151779794Y-161969898D01*
X151779793Y-161969897D01*
X151779792Y-161969896D01*
X151642939Y-161870467D01*
X151607819Y-161844951D01*
X151607818Y-161844950D01*
X151607816Y-161844949D01*
X151418412Y-161748443D01*
X151216243Y-161682754D01*
X151006287Y-161649500D01*
X150793713Y-161649500D01*
X150583757Y-161682754D01*
X150583754Y-161682754D01*
X150583753Y-161682755D01*
X150381588Y-161748443D01*
X150381586Y-161748444D01*
X150192180Y-161844951D01*
X150020205Y-161969898D01*
X150020202Y-161969900D01*
X149869900Y-162120202D01*
X149869898Y-162120205D01*
X149744949Y-162292183D01*
X149742265Y-162297451D01*
X149693516Y-162349065D01*
X149624600Y-162366129D01*
X149557399Y-162343226D01*
X149517735Y-162297451D01*
X149515050Y-162292183D01*
X149417176Y-162157470D01*
X149390104Y-162120208D01*
X149390101Y-162120205D01*
X149390099Y-162120202D01*
X149239797Y-161969900D01*
X149239794Y-161969898D01*
X149239793Y-161969897D01*
X149239792Y-161969896D01*
X149102939Y-161870467D01*
X149067819Y-161844951D01*
X149067818Y-161844950D01*
X149067816Y-161844949D01*
X148878412Y-161748443D01*
X148676243Y-161682754D01*
X148466287Y-161649500D01*
X148253713Y-161649500D01*
X148043757Y-161682754D01*
X148043754Y-161682754D01*
X148043753Y-161682755D01*
X147841588Y-161748443D01*
X147841586Y-161748444D01*
X147652180Y-161844951D01*
X147480205Y-161969898D01*
X147480202Y-161969900D01*
X147329900Y-162120202D01*
X147329898Y-162120205D01*
X147204949Y-162292183D01*
X147202265Y-162297451D01*
X147153516Y-162349065D01*
X147084600Y-162366129D01*
X147017399Y-162343226D01*
X146977735Y-162297451D01*
X146975050Y-162292183D01*
X146877176Y-162157470D01*
X146850104Y-162120208D01*
X146850101Y-162120205D01*
X146850099Y-162120202D01*
X146699797Y-161969900D01*
X146699794Y-161969898D01*
X146699793Y-161969897D01*
X146699792Y-161969896D01*
X146562939Y-161870467D01*
X146519585Y-161814245D01*
X146511000Y-161768531D01*
X146511000Y-151751941D01*
X146510999Y-151751938D01*
X146509674Y-151745278D01*
X146484445Y-151618443D01*
X146432356Y-151492689D01*
X146432354Y-151492686D01*
X146423886Y-151480012D01*
X146423885Y-151480011D01*
X146356734Y-151379512D01*
X146356731Y-151379508D01*
X136440494Y-141463271D01*
X136440488Y-141463266D01*
X136327311Y-141387644D01*
X136265217Y-141361924D01*
X136201557Y-141335555D01*
X136160112Y-141327311D01*
X136160111Y-141327310D01*
X136068061Y-141309000D01*
X136068058Y-141309000D01*
X125817000Y-141309000D01*
X125748879Y-141288998D01*
X125702386Y-141235342D01*
X125691000Y-141183000D01*
X125691000Y-139731941D01*
X125690999Y-139731938D01*
X125685330Y-139703439D01*
X125664445Y-139598443D01*
X125612356Y-139472689D01*
X125542583Y-139368266D01*
X125536735Y-139359514D01*
X125536730Y-139359508D01*
X124440494Y-138263271D01*
X124440488Y-138263266D01*
X124440482Y-138263262D01*
X124327311Y-138187644D01*
X124306863Y-138179174D01*
X124201560Y-138135556D01*
X124201557Y-138135555D01*
X124068061Y-138109000D01*
X124068058Y-138109000D01*
X122731942Y-138109000D01*
X122731938Y-138109000D01*
X122617440Y-138131775D01*
X122617439Y-138131776D01*
X122604774Y-138134295D01*
X122598441Y-138135555D01*
X122472687Y-138187644D01*
X122359517Y-138263262D01*
X122359510Y-138263267D01*
X121811095Y-138811683D01*
X121791348Y-138822465D01*
X121774342Y-138837202D01*
X121760794Y-138839149D01*
X121748783Y-138845709D01*
X121726339Y-138844103D01*
X121704068Y-138847306D01*
X121691618Y-138841620D01*
X121677968Y-138840644D01*
X121659954Y-138827159D01*
X121639488Y-138817812D01*
X121632089Y-138806299D01*
X121621132Y-138798097D01*
X121613268Y-138777013D01*
X121601104Y-138758086D01*
X121597901Y-138735815D01*
X121596321Y-138731577D01*
X121596000Y-138722588D01*
X121596000Y-138633412D01*
X121616002Y-138565291D01*
X121632905Y-138544317D01*
X122789578Y-137387644D01*
X123981735Y-136195487D01*
X124057356Y-136082312D01*
X124109445Y-135956558D01*
X124113223Y-135937560D01*
X124136000Y-135823058D01*
X124136000Y-135787990D01*
X124137452Y-135778508D01*
X124146521Y-135759119D01*
X124153547Y-135733439D01*
X124168484Y-135708183D01*
X124196744Y-135660398D01*
X124242598Y-135502569D01*
X124245500Y-135465694D01*
X124245500Y-134034306D01*
X124242598Y-133997431D01*
X124196744Y-133839602D01*
X124113081Y-133698135D01*
X124113076Y-133698129D01*
X124071749Y-133656802D01*
X124037723Y-133594490D01*
X124042788Y-133523675D01*
X124085335Y-133466839D01*
X124151855Y-133442028D01*
X124160844Y-133441707D01*
X124579857Y-133441707D01*
X124604439Y-133444128D01*
X124681236Y-133459404D01*
X124817349Y-133459404D01*
X124817350Y-133459404D01*
X124950850Y-133432849D01*
X125076604Y-133380760D01*
X125189780Y-133305139D01*
X127286735Y-131208183D01*
X127362356Y-131095008D01*
X127414445Y-130969254D01*
X127425671Y-130912816D01*
X127441000Y-130835755D01*
X127441000Y-125699639D01*
X127414445Y-125566140D01*
X127362356Y-125440386D01*
X127286735Y-125327210D01*
X127286733Y-125327208D01*
X127286728Y-125327202D01*
X124440494Y-122480968D01*
X124440488Y-122480963D01*
X124327311Y-122405341D01*
X124201562Y-122353254D01*
X124201561Y-122353253D01*
X124201557Y-122353252D01*
X124177476Y-122348462D01*
X124177472Y-122348461D01*
X124068061Y-122326697D01*
X124068058Y-122326697D01*
X123802693Y-122326697D01*
X123734572Y-122306695D01*
X123688079Y-122253039D01*
X123677975Y-122182765D01*
X123694239Y-122136558D01*
X123699244Y-122128095D01*
X123745098Y-121970266D01*
X123748000Y-121933391D01*
X123748000Y-121859697D01*
X123768002Y-121791576D01*
X123821658Y-121745083D01*
X123874000Y-121733697D01*
X126454285Y-121733697D01*
X126522406Y-121753699D01*
X126543380Y-121770602D01*
X128022095Y-123249317D01*
X128056121Y-123311629D01*
X128059000Y-123338412D01*
X128059000Y-129318058D01*
X128061678Y-129331522D01*
X128063623Y-129341298D01*
X128085555Y-129451557D01*
X128085556Y-129451560D01*
X128125170Y-129547196D01*
X128137644Y-129577311D01*
X128213265Y-129690487D01*
X129309514Y-130786735D01*
X129402256Y-130848703D01*
X129422689Y-130862356D01*
X129493855Y-130891834D01*
X129549135Y-130936381D01*
X129565240Y-130968609D01*
X129615185Y-131119334D01*
X129707288Y-131268656D01*
X129707293Y-131268662D01*
X129831337Y-131392706D01*
X129831343Y-131392711D01*
X129831344Y-131392712D01*
X129888563Y-131428004D01*
X129980665Y-131484814D01*
X130147196Y-131539997D01*
X130147197Y-131539997D01*
X130147203Y-131539999D01*
X130249991Y-131550500D01*
X132850008Y-131550499D01*
X132850009Y-131550499D01*
X132952797Y-131539999D01*
X133119334Y-131484814D01*
X133139955Y-131472095D01*
X133268656Y-131392712D01*
X133392712Y-131268656D01*
X133484814Y-131119334D01*
X133539999Y-130952797D01*
X133550500Y-130850009D01*
X133550499Y-129649992D01*
X133550498Y-129649982D01*
X133949500Y-129649982D01*
X133949500Y-130850009D01*
X133960000Y-130952797D01*
X134015185Y-131119334D01*
X134107288Y-131268656D01*
X134107293Y-131268662D01*
X134231337Y-131392706D01*
X134231343Y-131392711D01*
X134231344Y-131392712D01*
X134288563Y-131428004D01*
X134380665Y-131484814D01*
X134547196Y-131539997D01*
X134547197Y-131539997D01*
X134547203Y-131539999D01*
X134649991Y-131550500D01*
X137250008Y-131550499D01*
X137250009Y-131550499D01*
X137352797Y-131539999D01*
X137519334Y-131484814D01*
X137539955Y-131472095D01*
X137668656Y-131392712D01*
X137792712Y-131268656D01*
X137884814Y-131119334D01*
X137915289Y-131027364D01*
X137955702Y-130968996D01*
X138021259Y-130941740D01*
X138034893Y-130941000D01*
X139023152Y-130941000D01*
X139091273Y-130961002D01*
X139112247Y-130977905D01*
X139214809Y-131080467D01*
X139214813Y-131080470D01*
X139214815Y-131080472D01*
X139360394Y-131168478D01*
X139522804Y-131219086D01*
X139593384Y-131225500D01*
X139593387Y-131225500D01*
X140106613Y-131225500D01*
X140106616Y-131225500D01*
X140177196Y-131219086D01*
X140339606Y-131168478D01*
X140485185Y-131080472D01*
X140585906Y-130979750D01*
X140593978Y-130975343D01*
X140599491Y-130967979D01*
X140624649Y-130958595D01*
X140648216Y-130945727D01*
X140657391Y-130946383D01*
X140666011Y-130943168D01*
X140692250Y-130948875D01*
X140719032Y-130950791D01*
X140728230Y-130956702D01*
X140735385Y-130958259D01*
X140764095Y-130979752D01*
X140772095Y-130987752D01*
X140806121Y-131050064D01*
X140809000Y-131076847D01*
X140809000Y-134522105D01*
X140790829Y-134587287D01*
X140746874Y-134660000D01*
X140731520Y-134685398D01*
X140680913Y-134847806D01*
X140674500Y-134918386D01*
X140674500Y-135581613D01*
X140680913Y-135652193D01*
X140731520Y-135814602D01*
X140731521Y-135814603D01*
X140731522Y-135814606D01*
X140794075Y-135918081D01*
X140819528Y-135960185D01*
X140819532Y-135960190D01*
X140939809Y-136080467D01*
X140939814Y-136080471D01*
X140939815Y-136080472D01*
X141085394Y-136168478D01*
X141247804Y-136219086D01*
X141318384Y-136225500D01*
X141318387Y-136225500D01*
X141831613Y-136225500D01*
X141831616Y-136225500D01*
X141902196Y-136219086D01*
X142064606Y-136168478D01*
X142210185Y-136080472D01*
X142330472Y-135960185D01*
X142418478Y-135814606D01*
X142469086Y-135652196D01*
X142475500Y-135581616D01*
X142475500Y-134918384D01*
X142469086Y-134847804D01*
X142418478Y-134685394D01*
X142330472Y-134539815D01*
X142330471Y-134539814D01*
X142330467Y-134539809D01*
X142227905Y-134437247D01*
X142193879Y-134374935D01*
X142191000Y-134348152D01*
X142191000Y-131076847D01*
X142199787Y-131046920D01*
X142206416Y-131016456D01*
X142210226Y-131011365D01*
X142211002Y-131008726D01*
X142227904Y-130987752D01*
X142237757Y-130977900D01*
X142300071Y-130943878D01*
X142326848Y-130941000D01*
X147194369Y-130941000D01*
X147262490Y-130961002D01*
X147308983Y-131014658D01*
X147319647Y-131053534D01*
X147324908Y-131102480D01*
X147324908Y-131102481D01*
X147375201Y-131237326D01*
X147375203Y-131237329D01*
X147375204Y-131237331D01*
X147398654Y-131268656D01*
X147461453Y-131352546D01*
X147488754Y-131372983D01*
X147576669Y-131438796D01*
X147576671Y-131438796D01*
X147576673Y-131438798D01*
X147637030Y-131461309D01*
X147711514Y-131489090D01*
X147711517Y-131489091D01*
X147771127Y-131495500D01*
X150366872Y-131495499D01*
X150426483Y-131489091D01*
X150561331Y-131438796D01*
X150676546Y-131352546D01*
X150762796Y-131237331D01*
X150813091Y-131102483D01*
X150819500Y-131042873D01*
X150819499Y-130011230D01*
X153218500Y-130011230D01*
X153218500Y-130178769D01*
X153251185Y-130343085D01*
X153269964Y-130388420D01*
X153315297Y-130497863D01*
X153361835Y-130567512D01*
X153408373Y-130637161D01*
X153408378Y-130637167D01*
X153526832Y-130755621D01*
X153526838Y-130755626D01*
X153666137Y-130848703D01*
X153820918Y-130912816D01*
X153985233Y-130945500D01*
X153985234Y-130945500D01*
X154152766Y-130945500D01*
X154152767Y-130945500D01*
X154317082Y-130912816D01*
X154471863Y-130848703D01*
X154611162Y-130755626D01*
X154729626Y-130637162D01*
X154822703Y-130497863D01*
X154886816Y-130343082D01*
X154919500Y-130178767D01*
X154919500Y-130011233D01*
X154919499Y-130011230D01*
X155718500Y-130011230D01*
X155718500Y-130178769D01*
X155751185Y-130343085D01*
X155769964Y-130388420D01*
X155815297Y-130497863D01*
X155861835Y-130567512D01*
X155908373Y-130637161D01*
X155908378Y-130637167D01*
X156026832Y-130755621D01*
X156026838Y-130755626D01*
X156166137Y-130848703D01*
X156320918Y-130912816D01*
X156485233Y-130945500D01*
X156485234Y-130945500D01*
X156652766Y-130945500D01*
X156652767Y-130945500D01*
X156817082Y-130912816D01*
X156971863Y-130848703D01*
X157111162Y-130755626D01*
X157229626Y-130637162D01*
X157322703Y-130497863D01*
X157386816Y-130343082D01*
X157419500Y-130178767D01*
X157419500Y-130011233D01*
X157386816Y-129846918D01*
X157322703Y-129692137D01*
X157229626Y-129552838D01*
X157229621Y-129552832D01*
X157111167Y-129434378D01*
X157111161Y-129434373D01*
X156971864Y-129341298D01*
X156971865Y-129341298D01*
X156971863Y-129341297D01*
X156862420Y-129295964D01*
X156817085Y-129277185D01*
X156817083Y-129277184D01*
X156817082Y-129277184D01*
X156734368Y-129260731D01*
X156652769Y-129244500D01*
X156652767Y-129244500D01*
X156485233Y-129244500D01*
X156485230Y-129244500D01*
X156364063Y-129268602D01*
X156320918Y-129277184D01*
X156320917Y-129277184D01*
X156320914Y-129277185D01*
X156166135Y-129341298D01*
X156026838Y-129434373D01*
X156026832Y-129434378D01*
X155908378Y-129552832D01*
X155908373Y-129552838D01*
X155815298Y-129692135D01*
X155751185Y-129846914D01*
X155718500Y-130011230D01*
X154919499Y-130011230D01*
X154886816Y-129846918D01*
X154822703Y-129692137D01*
X154729626Y-129552838D01*
X154729621Y-129552832D01*
X154611167Y-129434378D01*
X154611161Y-129434373D01*
X154471864Y-129341298D01*
X154471865Y-129341298D01*
X154471863Y-129341297D01*
X154362420Y-129295964D01*
X154317085Y-129277185D01*
X154317083Y-129277184D01*
X154317082Y-129277184D01*
X154234368Y-129260731D01*
X154152769Y-129244500D01*
X154152767Y-129244500D01*
X153985233Y-129244500D01*
X153985230Y-129244500D01*
X153864063Y-129268602D01*
X153820918Y-129277184D01*
X153820917Y-129277184D01*
X153820914Y-129277185D01*
X153666135Y-129341298D01*
X153526838Y-129434373D01*
X153526832Y-129434378D01*
X153408378Y-129552832D01*
X153408373Y-129552838D01*
X153315298Y-129692135D01*
X153251185Y-129846914D01*
X153218500Y-130011230D01*
X150819499Y-130011230D01*
X150819499Y-129147128D01*
X150813091Y-129087517D01*
X150762796Y-128952669D01*
X150760424Y-128949501D01*
X150754665Y-128941808D01*
X150738721Y-128920509D01*
X150713909Y-128853992D01*
X150728999Y-128784618D01*
X150738716Y-128769497D01*
X150762796Y-128737331D01*
X150813091Y-128602483D01*
X150819500Y-128542873D01*
X150819499Y-126647128D01*
X150813091Y-126587517D01*
X150770451Y-126473193D01*
X150762798Y-126452673D01*
X150762796Y-126452670D01*
X150762796Y-126452669D01*
X150719671Y-126395061D01*
X150676546Y-126337453D01*
X150599591Y-126279845D01*
X150561331Y-126251204D01*
X150561329Y-126251203D01*
X150561326Y-126251201D01*
X150426483Y-126200909D01*
X150426486Y-126200909D01*
X150366878Y-126194500D01*
X147771135Y-126194500D01*
X147771114Y-126194502D01*
X147711519Y-126200908D01*
X147711518Y-126200908D01*
X147576673Y-126251201D01*
X147576670Y-126251203D01*
X147461453Y-126337453D01*
X147375203Y-126452670D01*
X147375201Y-126452673D01*
X147324909Y-126587515D01*
X147318500Y-126647121D01*
X147318500Y-128542864D01*
X147318502Y-128542885D01*
X147324908Y-128602480D01*
X147324908Y-128602481D01*
X147375203Y-128737330D01*
X147399278Y-128769491D01*
X147424089Y-128836011D01*
X147408998Y-128905385D01*
X147399278Y-128920509D01*
X147375203Y-128952669D01*
X147324909Y-129087515D01*
X147318500Y-129147121D01*
X147318500Y-129433000D01*
X147298498Y-129501121D01*
X147244842Y-129547614D01*
X147192500Y-129559000D01*
X142326848Y-129559000D01*
X142258727Y-129538998D01*
X142237753Y-129522095D01*
X142135190Y-129419532D01*
X142135185Y-129419528D01*
X142108107Y-129403159D01*
X141989606Y-129331522D01*
X141989603Y-129331521D01*
X141989602Y-129331520D01*
X141827193Y-129280913D01*
X141775855Y-129276248D01*
X141756616Y-129274500D01*
X141243384Y-129274500D01*
X141225747Y-129276102D01*
X141172806Y-129280913D01*
X141010397Y-129331520D01*
X141010396Y-129331521D01*
X140864814Y-129419528D01*
X140864809Y-129419532D01*
X140764095Y-129520247D01*
X140701783Y-129554273D01*
X140630968Y-129549208D01*
X140585905Y-129520247D01*
X140485190Y-129419532D01*
X140485185Y-129419528D01*
X140458107Y-129403159D01*
X140339606Y-129331522D01*
X140339603Y-129331521D01*
X140339602Y-129331520D01*
X140177193Y-129280913D01*
X140125855Y-129276248D01*
X140106616Y-129274500D01*
X139593384Y-129274500D01*
X139575747Y-129276102D01*
X139522806Y-129280913D01*
X139360397Y-129331520D01*
X139360396Y-129331521D01*
X139214814Y-129419528D01*
X139214809Y-129419532D01*
X139112247Y-129522095D01*
X139049935Y-129556121D01*
X139023152Y-129559000D01*
X138034893Y-129559000D01*
X137966772Y-129538998D01*
X137920279Y-129485342D01*
X137915293Y-129472647D01*
X137884814Y-129380666D01*
X137792712Y-129231344D01*
X137792711Y-129231343D01*
X137792706Y-129231337D01*
X137668662Y-129107293D01*
X137668656Y-129107288D01*
X137519334Y-129015185D01*
X137352803Y-128960002D01*
X137352791Y-128960000D01*
X137250017Y-128949500D01*
X134649990Y-128949500D01*
X134547202Y-128960000D01*
X134380665Y-129015185D01*
X134231343Y-129107288D01*
X134231337Y-129107293D01*
X134107293Y-129231337D01*
X134107288Y-129231343D01*
X134015185Y-129380665D01*
X133960002Y-129547196D01*
X133960000Y-129547208D01*
X133949500Y-129649982D01*
X133550498Y-129649982D01*
X133548042Y-129625944D01*
X133539999Y-129547202D01*
X133484814Y-129380665D01*
X133415693Y-129268602D01*
X133392712Y-129231344D01*
X133392711Y-129231343D01*
X133392706Y-129231337D01*
X133268662Y-129107293D01*
X133268656Y-129107288D01*
X133119334Y-129015185D01*
X132952803Y-128960002D01*
X132952791Y-128960000D01*
X132850017Y-128949500D01*
X130249990Y-128949500D01*
X130147202Y-128960000D01*
X129980665Y-129015185D01*
X129831343Y-129107288D01*
X129831341Y-129107289D01*
X129797020Y-129141611D01*
X129788946Y-129146019D01*
X129783435Y-129153382D01*
X129758278Y-129162764D01*
X129734708Y-129175635D01*
X129725532Y-129174978D01*
X129716914Y-129178193D01*
X129690676Y-129172485D01*
X129663892Y-129170569D01*
X129654693Y-129164657D01*
X129647540Y-129163101D01*
X129618830Y-129141609D01*
X129572024Y-129094803D01*
X129477904Y-129000682D01*
X129443879Y-128938370D01*
X129441000Y-128911587D01*
X129441000Y-122931941D01*
X129440999Y-122931940D01*
X129414445Y-122798443D01*
X129395419Y-122752508D01*
X129362356Y-122672688D01*
X129286735Y-122559513D01*
X128279993Y-121552771D01*
X127233191Y-120505968D01*
X127233185Y-120505963D01*
X127221062Y-120497863D01*
X127120008Y-120430341D01*
X126994257Y-120378253D01*
X126994254Y-120378252D01*
X126860758Y-120351697D01*
X126860755Y-120351697D01*
X123874000Y-120351697D01*
X123805879Y-120331695D01*
X123759386Y-120278039D01*
X123748000Y-120225697D01*
X123748000Y-120152003D01*
X123745098Y-120115129D01*
X123745098Y-120115128D01*
X123699244Y-119957299D01*
X123646489Y-119868094D01*
X123615582Y-119815833D01*
X123615576Y-119815826D01*
X123499370Y-119699620D01*
X123499363Y-119699614D01*
X123357901Y-119615954D01*
X123345847Y-119612452D01*
X123333712Y-119608926D01*
X123200068Y-119570098D01*
X123166095Y-119567425D01*
X123163194Y-119567197D01*
X122731806Y-119567197D01*
X122728905Y-119567425D01*
X122694932Y-119570098D01*
X122694931Y-119570098D01*
X122537098Y-119615954D01*
X122395634Y-119699616D01*
X122389719Y-119704204D01*
X122323632Y-119730146D01*
X122254011Y-119716241D01*
X122235281Y-119704204D01*
X122229365Y-119699616D01*
X122087901Y-119615954D01*
X122075847Y-119612452D01*
X122063712Y-119608926D01*
X121930068Y-119570098D01*
X121896095Y-119567425D01*
X121893194Y-119567197D01*
X121462896Y-119567197D01*
X121394775Y-119547195D01*
X121348282Y-119493539D01*
X121338178Y-119423265D01*
X121355655Y-119375050D01*
X121373499Y-119346121D01*
X121412003Y-119283697D01*
X121465349Y-119122708D01*
X121475500Y-119023345D01*
X121475499Y-118476656D01*
X121465349Y-118377292D01*
X121412003Y-118216303D01*
X121322968Y-118071956D01*
X121322967Y-118071955D01*
X121322962Y-118071949D01*
X121203050Y-117952037D01*
X121203044Y-117952032D01*
X121058697Y-117862997D01*
X121041981Y-117857458D01*
X120897708Y-117809651D01*
X120897704Y-117809650D01*
X120897702Y-117809650D01*
X120801596Y-117799831D01*
X120744398Y-117779247D01*
X120734812Y-117772841D01*
X120609060Y-117720753D01*
X120609057Y-117720752D01*
X120475561Y-117694197D01*
X120475558Y-117694197D01*
X120339442Y-117694197D01*
X120339438Y-117694197D01*
X120205942Y-117720752D01*
X120205939Y-117720753D01*
X120080188Y-117772841D01*
X119962422Y-117851530D01*
X119945676Y-117860957D01*
X119941299Y-117862997D01*
X119796961Y-117952028D01*
X119796949Y-117952037D01*
X119677037Y-118071949D01*
X119677032Y-118071955D01*
X119587997Y-118216302D01*
X119534651Y-118377293D01*
X119534650Y-118377297D01*
X119524500Y-118476646D01*
X119524500Y-119023345D01*
X119534650Y-119122704D01*
X119534650Y-119122706D01*
X119534651Y-119122708D01*
X119587997Y-119283697D01*
X119626501Y-119346121D01*
X119659728Y-119399991D01*
X119677032Y-119428044D01*
X119679591Y-119430603D01*
X119680786Y-119432792D01*
X119681585Y-119433802D01*
X119681412Y-119433938D01*
X119713619Y-119492911D01*
X119716500Y-119519702D01*
X119716500Y-119820115D01*
X119698954Y-119884253D01*
X119655756Y-119957296D01*
X119609901Y-120115128D01*
X119609901Y-120115129D01*
X119607000Y-120152003D01*
X119607000Y-121933390D01*
X119609901Y-121970264D01*
X119609901Y-121970265D01*
X119655756Y-122128096D01*
X119698953Y-122201136D01*
X119716500Y-122265276D01*
X119716500Y-122493257D01*
X119720884Y-122515295D01*
X119729356Y-122557886D01*
X119743055Y-122626754D01*
X119743056Y-122626756D01*
X119743056Y-122626757D01*
X119759718Y-122666982D01*
X119795144Y-122752508D01*
X119870765Y-122865684D01*
X119870768Y-122865687D01*
X119870769Y-122865688D01*
X120116683Y-123111602D01*
X120150709Y-123173914D01*
X120145644Y-123244729D01*
X120103097Y-123301565D01*
X120036577Y-123326376D01*
X120027588Y-123326697D01*
X119338412Y-123326697D01*
X119270291Y-123306695D01*
X119249316Y-123289792D01*
X118595404Y-122635879D01*
X118561379Y-122573567D01*
X118558500Y-122546784D01*
X118558500Y-122265276D01*
X118576047Y-122201136D01*
X118619243Y-122128096D01*
X118619244Y-122128095D01*
X118665098Y-121970266D01*
X118668000Y-121933391D01*
X118668000Y-120152003D01*
X118665098Y-120115128D01*
X118619244Y-119957299D01*
X118619243Y-119957298D01*
X118619243Y-119957296D01*
X118576046Y-119884253D01*
X118571625Y-119868094D01*
X118563604Y-119855613D01*
X118558500Y-119820115D01*
X118558500Y-119569702D01*
X118578502Y-119501581D01*
X118595401Y-119480610D01*
X118622968Y-119453044D01*
X118712003Y-119308697D01*
X118765349Y-119147708D01*
X118775500Y-119048345D01*
X118775499Y-118501656D01*
X118765349Y-118402292D01*
X118712003Y-118241303D01*
X118622968Y-118096956D01*
X118622967Y-118096955D01*
X118622962Y-118096949D01*
X118503050Y-117977037D01*
X118503044Y-117977032D01*
X118358697Y-117887997D01*
X118197708Y-117834651D01*
X118197704Y-117834650D01*
X118197702Y-117834650D01*
X118098353Y-117824500D01*
X117501654Y-117824500D01*
X117402295Y-117834650D01*
X117241303Y-117887997D01*
X117096955Y-117977032D01*
X117096949Y-117977037D01*
X116977037Y-118096949D01*
X116977032Y-118096955D01*
X116887997Y-118241302D01*
X116887997Y-118241303D01*
X116842934Y-118377297D01*
X116834651Y-118402293D01*
X116834650Y-118402297D01*
X116824500Y-118501646D01*
X116824500Y-118560785D01*
X116804498Y-118628906D01*
X116750842Y-118675399D01*
X116680568Y-118685503D01*
X116615988Y-118656009D01*
X116609405Y-118649880D01*
X116055405Y-118095880D01*
X116021379Y-118033568D01*
X116018500Y-118006785D01*
X116018500Y-116410912D01*
X116038502Y-116342791D01*
X116055405Y-116321817D01*
X116449317Y-115927905D01*
X116511629Y-115893879D01*
X116538412Y-115891000D01*
X124111588Y-115891000D01*
X124179709Y-115911002D01*
X124200683Y-115927905D01*
X128809508Y-120536731D01*
X128809512Y-120536734D01*
X128809513Y-120536735D01*
X128904209Y-120600008D01*
X128922689Y-120612356D01*
X129048443Y-120664445D01*
X129181942Y-120691000D01*
X129181943Y-120691000D01*
X129215107Y-120691000D01*
X129283228Y-120711002D01*
X129329721Y-120764658D01*
X129334706Y-120777352D01*
X129365186Y-120869334D01*
X129392005Y-120912814D01*
X129457288Y-121018656D01*
X129457293Y-121018662D01*
X129581337Y-121142706D01*
X129581343Y-121142711D01*
X129581344Y-121142712D01*
X129638563Y-121178004D01*
X129730665Y-121234814D01*
X129897196Y-121289997D01*
X129897197Y-121289997D01*
X129897203Y-121289999D01*
X129999991Y-121300500D01*
X132600008Y-121300499D01*
X132600009Y-121300499D01*
X132702797Y-121289999D01*
X132869334Y-121234814D01*
X133018656Y-121142712D01*
X133142712Y-121018656D01*
X133234814Y-120869334D01*
X133289999Y-120702797D01*
X133300500Y-120600009D01*
X133300500Y-120002595D01*
X133300499Y-119399990D01*
X133300498Y-119399982D01*
X133699500Y-119399982D01*
X133699501Y-120600008D01*
X133710000Y-120702797D01*
X133765185Y-120869334D01*
X133857288Y-121018656D01*
X133857293Y-121018662D01*
X133981337Y-121142706D01*
X133981343Y-121142711D01*
X133981344Y-121142712D01*
X134038563Y-121178004D01*
X134130665Y-121234814D01*
X134297196Y-121289997D01*
X134297197Y-121289997D01*
X134297203Y-121289999D01*
X134399991Y-121300500D01*
X137000008Y-121300499D01*
X137000009Y-121300499D01*
X137102797Y-121289999D01*
X137269334Y-121234814D01*
X137418656Y-121142712D01*
X137542712Y-121018656D01*
X137634814Y-120869334D01*
X137665289Y-120777364D01*
X137705702Y-120718996D01*
X137771259Y-120691740D01*
X137784893Y-120691000D01*
X139273152Y-120691000D01*
X139341273Y-120711002D01*
X139362247Y-120727905D01*
X139464809Y-120830467D01*
X139464813Y-120830470D01*
X139464815Y-120830472D01*
X139610394Y-120918478D01*
X139772804Y-120969086D01*
X139843384Y-120975500D01*
X139843387Y-120975500D01*
X140356613Y-120975500D01*
X140356616Y-120975500D01*
X140427196Y-120969086D01*
X140589606Y-120918478D01*
X140735185Y-120830472D01*
X140835906Y-120729750D01*
X140843978Y-120725343D01*
X140849491Y-120717979D01*
X140874649Y-120708595D01*
X140898216Y-120695727D01*
X140907391Y-120696383D01*
X140916011Y-120693168D01*
X140942250Y-120698875D01*
X140969032Y-120700791D01*
X140978230Y-120706702D01*
X140985385Y-120708259D01*
X141014095Y-120729752D01*
X141022095Y-120737752D01*
X141056121Y-120800064D01*
X141059000Y-120826847D01*
X141059000Y-124423152D01*
X141038998Y-124491273D01*
X141022095Y-124512247D01*
X140994532Y-124539809D01*
X140994528Y-124539814D01*
X140906521Y-124685396D01*
X140906520Y-124685397D01*
X140855913Y-124847806D01*
X140849500Y-124918386D01*
X140849500Y-125581613D01*
X140855913Y-125652193D01*
X140906520Y-125814602D01*
X140906521Y-125814603D01*
X140906522Y-125814606D01*
X140968634Y-125917351D01*
X140994528Y-125960185D01*
X140994532Y-125960190D01*
X141114809Y-126080467D01*
X141114814Y-126080471D01*
X141114815Y-126080472D01*
X141260394Y-126168478D01*
X141422804Y-126219086D01*
X141493384Y-126225500D01*
X141493387Y-126225500D01*
X142006613Y-126225500D01*
X142006616Y-126225500D01*
X142077196Y-126219086D01*
X142239606Y-126168478D01*
X142385185Y-126080472D01*
X142505472Y-125960185D01*
X142593478Y-125814606D01*
X142644086Y-125652196D01*
X142650500Y-125581616D01*
X142650500Y-125011230D01*
X148218500Y-125011230D01*
X148218500Y-125011233D01*
X148218500Y-125178767D01*
X148251184Y-125343082D01*
X148315297Y-125497863D01*
X148315298Y-125497864D01*
X148408373Y-125637161D01*
X148408378Y-125637167D01*
X148526832Y-125755621D01*
X148526838Y-125755626D01*
X148666137Y-125848703D01*
X148794357Y-125901814D01*
X148820915Y-125912815D01*
X148820916Y-125912815D01*
X148820918Y-125912816D01*
X148985233Y-125945500D01*
X149152767Y-125945500D01*
X149317082Y-125912816D01*
X149471863Y-125848703D01*
X149611162Y-125755626D01*
X149729626Y-125637162D01*
X149822703Y-125497863D01*
X149886816Y-125343082D01*
X149919500Y-125178767D01*
X149919500Y-125011233D01*
X149886816Y-124846918D01*
X149822703Y-124692137D01*
X149729626Y-124552838D01*
X149729621Y-124552832D01*
X149611167Y-124434378D01*
X149611161Y-124434373D01*
X149471864Y-124341298D01*
X149471865Y-124341298D01*
X149471863Y-124341297D01*
X149317082Y-124277184D01*
X149224963Y-124258860D01*
X149167846Y-124247499D01*
X149167844Y-124247499D01*
X149152767Y-124244500D01*
X148985233Y-124244500D01*
X148970156Y-124247499D01*
X148970152Y-124247499D01*
X148872157Y-124266991D01*
X148820918Y-124277184D01*
X148820916Y-124277184D01*
X148820915Y-124277185D01*
X148666135Y-124341298D01*
X148526838Y-124434373D01*
X148526832Y-124434378D01*
X148408378Y-124552832D01*
X148408373Y-124552838D01*
X148315298Y-124692135D01*
X148251185Y-124846914D01*
X148251184Y-124846917D01*
X148251184Y-124846918D01*
X148250048Y-124852629D01*
X148218500Y-125011230D01*
X142650500Y-125011230D01*
X142650500Y-124918384D01*
X142644086Y-124847804D01*
X142593478Y-124685394D01*
X142505472Y-124539815D01*
X142505471Y-124539814D01*
X142505467Y-124539809D01*
X142477905Y-124512247D01*
X142443879Y-124449935D01*
X142441000Y-124423152D01*
X142441000Y-120912000D01*
X142461002Y-120843879D01*
X142514658Y-120797386D01*
X142567000Y-120786000D01*
X147192501Y-120786000D01*
X147260622Y-120806002D01*
X147307115Y-120859658D01*
X147318501Y-120912000D01*
X147318501Y-121042864D01*
X147318502Y-121042885D01*
X147324908Y-121102480D01*
X147324908Y-121102481D01*
X147375203Y-121237330D01*
X147399278Y-121269491D01*
X147424089Y-121336011D01*
X147408998Y-121405385D01*
X147399278Y-121420509D01*
X147375203Y-121452669D01*
X147324909Y-121587515D01*
X147318500Y-121647121D01*
X147318500Y-123542864D01*
X147318502Y-123542885D01*
X147324908Y-123602480D01*
X147324908Y-123602481D01*
X147375201Y-123737326D01*
X147375203Y-123737329D01*
X147461453Y-123852546D01*
X147519061Y-123895671D01*
X147576669Y-123938796D01*
X147576671Y-123938796D01*
X147576673Y-123938798D01*
X147637030Y-123961309D01*
X147711514Y-123989090D01*
X147711517Y-123989091D01*
X147771127Y-123995500D01*
X150366872Y-123995499D01*
X150426483Y-123989091D01*
X150561331Y-123938796D01*
X150676546Y-123852546D01*
X150762796Y-123737331D01*
X150813091Y-123602483D01*
X150819500Y-123542873D01*
X150819499Y-121647128D01*
X150813091Y-121587517D01*
X150762796Y-121452669D01*
X150738721Y-121420509D01*
X150713909Y-121353992D01*
X150728999Y-121284618D01*
X150738716Y-121269497D01*
X150762796Y-121237331D01*
X150813091Y-121102483D01*
X150819500Y-121042873D01*
X150819499Y-120011230D01*
X153218500Y-120011230D01*
X153218500Y-120011233D01*
X153218500Y-120178767D01*
X153251184Y-120343082D01*
X153315297Y-120497863D01*
X153320713Y-120505968D01*
X153408373Y-120637161D01*
X153408378Y-120637167D01*
X153526832Y-120755621D01*
X153526838Y-120755626D01*
X153666137Y-120848703D01*
X153820918Y-120912816D01*
X153985233Y-120945500D01*
X153985234Y-120945500D01*
X154152766Y-120945500D01*
X154152767Y-120945500D01*
X154317082Y-120912816D01*
X154471863Y-120848703D01*
X154611162Y-120755626D01*
X154729626Y-120637162D01*
X154822703Y-120497863D01*
X154886816Y-120343082D01*
X154919500Y-120178767D01*
X154919500Y-120011233D01*
X154919499Y-120011230D01*
X155718500Y-120011230D01*
X155718500Y-120011233D01*
X155718500Y-120178767D01*
X155751184Y-120343082D01*
X155815297Y-120497863D01*
X155820713Y-120505968D01*
X155908373Y-120637161D01*
X155908378Y-120637167D01*
X156026832Y-120755621D01*
X156026838Y-120755626D01*
X156166137Y-120848703D01*
X156320918Y-120912816D01*
X156485233Y-120945500D01*
X156485234Y-120945500D01*
X156652766Y-120945500D01*
X156652767Y-120945500D01*
X156817082Y-120912816D01*
X156971863Y-120848703D01*
X157111162Y-120755626D01*
X157229626Y-120637162D01*
X157322703Y-120497863D01*
X157386816Y-120343082D01*
X157419500Y-120178767D01*
X157419500Y-120011233D01*
X157386816Y-119846918D01*
X157322703Y-119692137D01*
X157229626Y-119552838D01*
X157229621Y-119552832D01*
X157111167Y-119434378D01*
X157111161Y-119434373D01*
X157022378Y-119375050D01*
X156971863Y-119341297D01*
X156832806Y-119283697D01*
X156817085Y-119277185D01*
X156817083Y-119277184D01*
X156817082Y-119277184D01*
X156734368Y-119260731D01*
X156652769Y-119244500D01*
X156652767Y-119244500D01*
X156485233Y-119244500D01*
X156485230Y-119244500D01*
X156362830Y-119268847D01*
X156320918Y-119277184D01*
X156320917Y-119277184D01*
X156320914Y-119277185D01*
X156166135Y-119341298D01*
X156026838Y-119434373D01*
X156026832Y-119434378D01*
X155908378Y-119552832D01*
X155908373Y-119552838D01*
X155815298Y-119692135D01*
X155815297Y-119692137D01*
X155810299Y-119704204D01*
X155751185Y-119846914D01*
X155751184Y-119846917D01*
X155751184Y-119846918D01*
X155746972Y-119868094D01*
X155718500Y-120011230D01*
X154919499Y-120011230D01*
X154886816Y-119846918D01*
X154822703Y-119692137D01*
X154729626Y-119552838D01*
X154729621Y-119552832D01*
X154611167Y-119434378D01*
X154611161Y-119434373D01*
X154522378Y-119375050D01*
X154471863Y-119341297D01*
X154332806Y-119283697D01*
X154317085Y-119277185D01*
X154317083Y-119277184D01*
X154317082Y-119277184D01*
X154234368Y-119260731D01*
X154152769Y-119244500D01*
X154152767Y-119244500D01*
X153985233Y-119244500D01*
X153985230Y-119244500D01*
X153862830Y-119268847D01*
X153820918Y-119277184D01*
X153820917Y-119277184D01*
X153820914Y-119277185D01*
X153666135Y-119341298D01*
X153526838Y-119434373D01*
X153526832Y-119434378D01*
X153408378Y-119552832D01*
X153408373Y-119552838D01*
X153315298Y-119692135D01*
X153315297Y-119692137D01*
X153310299Y-119704204D01*
X153251185Y-119846914D01*
X153251184Y-119846917D01*
X153251184Y-119846918D01*
X153246972Y-119868094D01*
X153218500Y-120011230D01*
X150819499Y-120011230D01*
X150819499Y-119147128D01*
X150813091Y-119087517D01*
X150788841Y-119022499D01*
X150762798Y-118952673D01*
X150762796Y-118952670D01*
X150762796Y-118952669D01*
X150719671Y-118895061D01*
X150676546Y-118837453D01*
X150599591Y-118779845D01*
X150561331Y-118751204D01*
X150561329Y-118751203D01*
X150561326Y-118751201D01*
X150426483Y-118700909D01*
X150426486Y-118700909D01*
X150366873Y-118694500D01*
X147771135Y-118694500D01*
X147771114Y-118694502D01*
X147711519Y-118700908D01*
X147711518Y-118700908D01*
X147576673Y-118751201D01*
X147576670Y-118751203D01*
X147461453Y-118837453D01*
X147375203Y-118952670D01*
X147375201Y-118952673D01*
X147324909Y-119087515D01*
X147318500Y-119147121D01*
X147318500Y-119278000D01*
X147298498Y-119346121D01*
X147244842Y-119392614D01*
X147192500Y-119404000D01*
X142645564Y-119404000D01*
X142577443Y-119383998D01*
X142537736Y-119343186D01*
X142536594Y-119341297D01*
X142505472Y-119289815D01*
X142505470Y-119289813D01*
X142505469Y-119289811D01*
X142385190Y-119169532D01*
X142385185Y-119169528D01*
X142349087Y-119147706D01*
X142239606Y-119081522D01*
X142239603Y-119081521D01*
X142239602Y-119081520D01*
X142077193Y-119030913D01*
X142025855Y-119026248D01*
X142006616Y-119024500D01*
X141493384Y-119024500D01*
X141475747Y-119026102D01*
X141422806Y-119030913D01*
X141260397Y-119081520D01*
X141260396Y-119081521D01*
X141260394Y-119081521D01*
X141260394Y-119081522D01*
X141250474Y-119087519D01*
X141114814Y-119169528D01*
X141114809Y-119169532D01*
X141014095Y-119270247D01*
X140951783Y-119304273D01*
X140880968Y-119299208D01*
X140835905Y-119270247D01*
X140735190Y-119169532D01*
X140735185Y-119169528D01*
X140699087Y-119147706D01*
X140589606Y-119081522D01*
X140589603Y-119081521D01*
X140589602Y-119081520D01*
X140427193Y-119030913D01*
X140375855Y-119026248D01*
X140356616Y-119024500D01*
X139843384Y-119024500D01*
X139825747Y-119026102D01*
X139772806Y-119030913D01*
X139610397Y-119081520D01*
X139610396Y-119081521D01*
X139610394Y-119081521D01*
X139610394Y-119081522D01*
X139600474Y-119087519D01*
X139464814Y-119169528D01*
X139464809Y-119169532D01*
X139362247Y-119272095D01*
X139299935Y-119306121D01*
X139273152Y-119309000D01*
X137784893Y-119309000D01*
X137716772Y-119288998D01*
X137670279Y-119235342D01*
X137665293Y-119222647D01*
X137634814Y-119130666D01*
X137542712Y-118981344D01*
X137542711Y-118981343D01*
X137542706Y-118981337D01*
X137418662Y-118857293D01*
X137418656Y-118857288D01*
X137269334Y-118765185D01*
X137102803Y-118710002D01*
X137102791Y-118710000D01*
X137000017Y-118699500D01*
X134399990Y-118699500D01*
X134297202Y-118710000D01*
X134130665Y-118765185D01*
X133981343Y-118857288D01*
X133981337Y-118857293D01*
X133857293Y-118981337D01*
X133857288Y-118981343D01*
X133765185Y-119130665D01*
X133710002Y-119297196D01*
X133710000Y-119297208D01*
X133699500Y-119399982D01*
X133300498Y-119399982D01*
X133289999Y-119297202D01*
X133234814Y-119130665D01*
X133168096Y-119022499D01*
X133142712Y-118981344D01*
X133142711Y-118981343D01*
X133142706Y-118981337D01*
X133018662Y-118857293D01*
X133018656Y-118857288D01*
X132869334Y-118765185D01*
X132702803Y-118710002D01*
X132702791Y-118710000D01*
X132600017Y-118699500D01*
X129999990Y-118699500D01*
X129897202Y-118710000D01*
X129730665Y-118765185D01*
X129581343Y-118857288D01*
X129581337Y-118857293D01*
X129457293Y-118981337D01*
X129457284Y-118981348D01*
X129446054Y-118999555D01*
X129393267Y-119047031D01*
X129323192Y-119058432D01*
X129258077Y-119030137D01*
X129249721Y-119022499D01*
X125017818Y-114790595D01*
X124983792Y-114728283D01*
X124988857Y-114657467D01*
X125031404Y-114600632D01*
X125097924Y-114575821D01*
X125106913Y-114575500D01*
X154975469Y-114575500D01*
X154997404Y-114575500D01*
X155002611Y-114575608D01*
G37*
%TD.AperFunction*%
%TA.AperFunction,Conductor*%
G36*
X115611208Y-114595502D02*
G01*
X115657701Y-114649158D01*
X115667805Y-114719432D01*
X115638311Y-114784012D01*
X115632182Y-114790595D01*
X114790768Y-115632008D01*
X114790765Y-115632012D01*
X114751793Y-115690339D01*
X114734460Y-115716282D01*
X114732439Y-115719306D01*
X114732437Y-115719309D01*
X114715144Y-115745188D01*
X114663056Y-115870939D01*
X114663055Y-115870942D01*
X114636500Y-116004438D01*
X114636500Y-119820115D01*
X114618954Y-119884253D01*
X114575756Y-119957296D01*
X114529901Y-120115128D01*
X114529901Y-120115129D01*
X114527000Y-120152003D01*
X114527000Y-121933390D01*
X114529901Y-121970264D01*
X114529901Y-121970265D01*
X114575757Y-122128098D01*
X114659417Y-122269560D01*
X114659423Y-122269567D01*
X114775629Y-122385773D01*
X114775636Y-122385779D01*
X114917098Y-122469439D01*
X114917099Y-122469439D01*
X114917102Y-122469441D01*
X115074931Y-122515295D01*
X115111806Y-122518197D01*
X115111807Y-122518197D01*
X115543193Y-122518197D01*
X115543194Y-122518197D01*
X115580069Y-122515295D01*
X115737898Y-122469441D01*
X115879365Y-122385778D01*
X115879372Y-122385770D01*
X115885275Y-122381193D01*
X115951361Y-122355247D01*
X116020984Y-122369149D01*
X116039725Y-122381193D01*
X116045630Y-122385773D01*
X116045635Y-122385778D01*
X116045637Y-122385779D01*
X116045640Y-122385781D01*
X116187098Y-122469439D01*
X116187099Y-122469439D01*
X116187102Y-122469441D01*
X116344931Y-122515295D01*
X116381806Y-122518197D01*
X116381807Y-122518197D01*
X116813193Y-122518197D01*
X116813194Y-122518197D01*
X116850069Y-122515295D01*
X117007898Y-122469441D01*
X117007901Y-122469438D01*
X117015346Y-122467276D01*
X117086343Y-122467479D01*
X117145959Y-122506032D01*
X117175268Y-122570697D01*
X117176500Y-122588273D01*
X117176500Y-122953256D01*
X117203055Y-123086754D01*
X117203056Y-123086757D01*
X117230279Y-123152479D01*
X117237868Y-123223069D01*
X117206089Y-123286556D01*
X117145031Y-123322783D01*
X117113870Y-123326697D01*
X111956938Y-123326697D01*
X111864888Y-123345007D01*
X111864888Y-123345008D01*
X111823443Y-123353252D01*
X111823441Y-123353252D01*
X111823440Y-123353253D01*
X111823439Y-123353253D01*
X111697688Y-123405341D01*
X111584518Y-123480959D01*
X111584511Y-123480964D01*
X102975768Y-132089705D01*
X102975762Y-132089713D01*
X102939051Y-132144657D01*
X102939050Y-132144659D01*
X102900144Y-132202885D01*
X102848056Y-132328636D01*
X102848055Y-132328639D01*
X102821500Y-132462135D01*
X102821500Y-137858000D01*
X102801498Y-137926121D01*
X102747842Y-137972614D01*
X102695500Y-137984000D01*
X97576353Y-137984000D01*
X97508232Y-137963998D01*
X97469112Y-137924146D01*
X97442712Y-137881344D01*
X97442708Y-137881339D01*
X97318662Y-137757293D01*
X97318656Y-137757288D01*
X97169334Y-137665185D01*
X97002803Y-137610002D01*
X97002791Y-137610000D01*
X96900017Y-137599500D01*
X95499990Y-137599500D01*
X95397202Y-137610000D01*
X95230665Y-137665185D01*
X95081343Y-137757288D01*
X94997021Y-137841610D01*
X94934709Y-137875635D01*
X94863893Y-137870569D01*
X94818832Y-137841610D01*
X94440487Y-137463265D01*
X94327311Y-137387644D01*
X94245612Y-137353803D01*
X94201560Y-137335556D01*
X94201557Y-137335555D01*
X94068061Y-137309000D01*
X94068058Y-137309000D01*
X93934321Y-137309000D01*
X93866200Y-137288998D01*
X93840070Y-137266622D01*
X93832815Y-137258445D01*
X93824281Y-137244609D01*
X93791104Y-137211432D01*
X93788611Y-137208622D01*
X93775026Y-137179775D01*
X93759742Y-137151785D01*
X93760019Y-137147907D01*
X93758363Y-137144391D01*
X93762531Y-137112770D01*
X93764806Y-137080969D01*
X93767219Y-137077212D01*
X93767643Y-137074004D01*
X93774457Y-137065950D01*
X93793766Y-137035905D01*
X93824281Y-137005391D01*
X93912549Y-136862287D01*
X93965436Y-136702685D01*
X93975499Y-136604182D01*
X93975500Y-136604182D01*
X93975500Y-136070817D01*
X93969030Y-136007497D01*
X93965436Y-135972315D01*
X93960211Y-135956548D01*
X93912550Y-135812716D01*
X93912549Y-135812715D01*
X93912549Y-135812713D01*
X93824281Y-135669609D01*
X93824280Y-135669608D01*
X93824275Y-135669602D01*
X93705397Y-135550724D01*
X93705391Y-135550719D01*
X93627326Y-135502568D01*
X93562287Y-135462451D01*
X93562285Y-135462450D01*
X93562283Y-135462449D01*
X93402691Y-135409565D01*
X93402679Y-135409563D01*
X93304182Y-135399500D01*
X93304174Y-135399500D01*
X92695826Y-135399500D01*
X92695817Y-135399500D01*
X92597320Y-135409563D01*
X92597313Y-135409564D01*
X92512957Y-135437517D01*
X92442002Y-135439957D01*
X92384230Y-135407007D01*
X92165494Y-135188271D01*
X92165488Y-135188266D01*
X92165485Y-135188264D01*
X92052311Y-135112644D01*
X92052309Y-135112643D01*
X91926560Y-135060556D01*
X91926557Y-135060555D01*
X91793061Y-135034000D01*
X91793058Y-135034000D01*
X91376353Y-135034000D01*
X91308232Y-135013998D01*
X91269112Y-134974146D01*
X91242712Y-134931344D01*
X91242708Y-134931339D01*
X91118662Y-134807293D01*
X91118656Y-134807288D01*
X90969334Y-134715185D01*
X90802803Y-134660002D01*
X90802791Y-134660000D01*
X90700017Y-134649500D01*
X89299990Y-134649500D01*
X89197202Y-134660000D01*
X89030665Y-134715185D01*
X88881343Y-134807288D01*
X88881337Y-134807293D01*
X88757291Y-134931339D01*
X88757287Y-134931344D01*
X88740416Y-134958697D01*
X88730887Y-134974146D01*
X88678104Y-135021624D01*
X88623647Y-135034000D01*
X88206938Y-135034000D01*
X88073442Y-135060555D01*
X88073439Y-135060556D01*
X87947690Y-135112643D01*
X87834513Y-135188264D01*
X87623853Y-135398923D01*
X87561541Y-135432948D01*
X87495126Y-135429432D01*
X87397708Y-135397151D01*
X87397702Y-135397150D01*
X87298353Y-135387000D01*
X86701654Y-135387000D01*
X86602295Y-135397150D01*
X86602292Y-135397151D01*
X86441303Y-135450497D01*
X86356884Y-135502568D01*
X86295807Y-135540241D01*
X86229660Y-135559000D01*
X85254550Y-135559000D01*
X85188404Y-135540241D01*
X85062287Y-135462451D01*
X85062285Y-135462450D01*
X85062283Y-135462449D01*
X84902691Y-135409565D01*
X84902679Y-135409563D01*
X84804182Y-135399500D01*
X84804174Y-135399500D01*
X84195826Y-135399500D01*
X84195817Y-135399500D01*
X84097320Y-135409563D01*
X84097308Y-135409565D01*
X83937716Y-135462449D01*
X83794608Y-135550719D01*
X83794602Y-135550724D01*
X83675724Y-135669602D01*
X83675719Y-135669608D01*
X83587449Y-135812716D01*
X83534565Y-135972308D01*
X83534563Y-135972320D01*
X83524500Y-136070817D01*
X83524500Y-136604182D01*
X83534563Y-136702679D01*
X83534565Y-136702691D01*
X83587449Y-136862283D01*
X83587450Y-136862285D01*
X83587451Y-136862287D01*
X83611548Y-136901355D01*
X83630285Y-136969832D01*
X83609026Y-137037571D01*
X83554519Y-137083063D01*
X83504307Y-137093500D01*
X82745211Y-137093500D01*
X82679064Y-137074741D01*
X82617442Y-137036732D01*
X82558697Y-137000497D01*
X82397708Y-136947151D01*
X82397704Y-136947150D01*
X82397702Y-136947150D01*
X82298353Y-136937000D01*
X81701654Y-136937000D01*
X81602295Y-136947150D01*
X81441303Y-137000497D01*
X81296955Y-137089532D01*
X81296949Y-137089537D01*
X81177037Y-137209449D01*
X81177032Y-137209455D01*
X81087997Y-137353802D01*
X81034651Y-137514793D01*
X81034650Y-137514797D01*
X81024500Y-137614146D01*
X81024500Y-138160845D01*
X81034650Y-138260204D01*
X81034650Y-138260206D01*
X81034651Y-138260208D01*
X81087997Y-138421197D01*
X81099740Y-138440235D01*
X81118500Y-138506383D01*
X81118500Y-140886824D01*
X81152376Y-141057124D01*
X81152377Y-141057127D01*
X81191830Y-141152376D01*
X81218825Y-141217547D01*
X81315294Y-141361924D01*
X82515294Y-142561923D01*
X82638077Y-142684706D01*
X82739065Y-142752184D01*
X82782453Y-142781175D01*
X82942876Y-142847624D01*
X83113179Y-142881500D01*
X83113180Y-142881500D01*
X83585675Y-142881500D01*
X83653796Y-142901502D01*
X83700289Y-142955158D01*
X83710393Y-143025432D01*
X83680899Y-143090012D01*
X83674770Y-143096595D01*
X81959095Y-144812269D01*
X81896783Y-144846295D01*
X81825967Y-144841230D01*
X81769132Y-144798683D01*
X81744321Y-144732163D01*
X81744000Y-144723174D01*
X81744000Y-144438182D01*
X81744000Y-144438180D01*
X81741281Y-144424513D01*
X81710124Y-144267876D01*
X81643675Y-144107453D01*
X81547206Y-143963076D01*
X81547204Y-143963074D01*
X81547199Y-143963068D01*
X78399431Y-140815300D01*
X78399425Y-140815295D01*
X78390773Y-140809514D01*
X78255047Y-140718825D01*
X78213573Y-140701646D01*
X78094627Y-140652377D01*
X78094624Y-140652376D01*
X77924324Y-140618500D01*
X77924321Y-140618500D01*
X77924320Y-140618500D01*
X63663180Y-140618500D01*
X63663176Y-140618500D01*
X63492875Y-140652376D01*
X63492872Y-140652377D01*
X63332453Y-140718825D01*
X63196728Y-140809513D01*
X63188076Y-140815295D01*
X63188072Y-140815298D01*
X63188068Y-140815301D01*
X61775298Y-142228070D01*
X61775296Y-142228072D01*
X61709772Y-142326136D01*
X61679069Y-142358069D01*
X61580201Y-142429901D01*
X61429900Y-142580202D01*
X61429898Y-142580205D01*
X61304951Y-142752180D01*
X61304949Y-142752184D01*
X61208443Y-142941588D01*
X61142754Y-143143757D01*
X61109500Y-143353713D01*
X61109500Y-143566287D01*
X61142754Y-143776243D01*
X61208443Y-143978412D01*
X61304949Y-144167816D01*
X61304951Y-144167819D01*
X61402135Y-144301582D01*
X61429896Y-144339792D01*
X61541596Y-144451492D01*
X61575620Y-144513802D01*
X61578500Y-144540586D01*
X61578500Y-144919413D01*
X61558498Y-144987534D01*
X61541595Y-145008508D01*
X61429900Y-145120202D01*
X61429898Y-145120205D01*
X61304951Y-145292180D01*
X61208444Y-145481586D01*
X61208443Y-145481588D01*
X61143759Y-145680665D01*
X61142754Y-145683757D01*
X61109500Y-145893713D01*
X61109500Y-146106287D01*
X61142754Y-146316243D01*
X61208443Y-146518412D01*
X61304949Y-146707816D01*
X61429896Y-146879792D01*
X61541596Y-146991492D01*
X61575620Y-147053802D01*
X61578500Y-147080586D01*
X61578500Y-147459413D01*
X61558498Y-147527534D01*
X61541595Y-147548508D01*
X61429900Y-147660202D01*
X61429898Y-147660205D01*
X61304951Y-147832180D01*
X61208444Y-148021586D01*
X61208443Y-148021588D01*
X61145951Y-148213919D01*
X61142754Y-148223757D01*
X61109500Y-148433713D01*
X61109500Y-148646287D01*
X61142754Y-148856243D01*
X61208443Y-149058412D01*
X61304949Y-149247816D01*
X61304951Y-149247819D01*
X61363148Y-149327921D01*
X61429896Y-149419792D01*
X61541596Y-149531492D01*
X61575620Y-149593802D01*
X61578500Y-149620586D01*
X61578500Y-149999413D01*
X61558498Y-150067534D01*
X61541595Y-150088508D01*
X61429900Y-150200202D01*
X61429898Y-150200205D01*
X61304951Y-150372180D01*
X61208444Y-150561586D01*
X61208443Y-150561588D01*
X61157977Y-150716907D01*
X61142754Y-150763757D01*
X61109500Y-150973713D01*
X61109500Y-151186287D01*
X61142754Y-151396243D01*
X61208443Y-151598412D01*
X61303845Y-151785649D01*
X61304951Y-151787819D01*
X61351652Y-151852098D01*
X61429896Y-151959792D01*
X61541596Y-152071492D01*
X61575620Y-152133802D01*
X61578500Y-152160586D01*
X61578500Y-152539413D01*
X61558498Y-152607534D01*
X61541595Y-152628508D01*
X61429900Y-152740202D01*
X61429898Y-152740205D01*
X61304951Y-152912180D01*
X61208444Y-153101586D01*
X61208443Y-153101588D01*
X61160423Y-153249379D01*
X61142754Y-153303757D01*
X61109500Y-153513713D01*
X61109500Y-153726287D01*
X61142754Y-153936243D01*
X61208443Y-154138412D01*
X61303274Y-154324528D01*
X61304951Y-154327819D01*
X61311491Y-154336821D01*
X61429896Y-154499792D01*
X61541596Y-154611492D01*
X61575620Y-154673802D01*
X61578500Y-154700586D01*
X61578500Y-155079413D01*
X61558498Y-155147534D01*
X61541595Y-155168508D01*
X61429900Y-155280202D01*
X61429898Y-155280205D01*
X61304951Y-155452180D01*
X61208444Y-155641586D01*
X61208443Y-155641588D01*
X61160149Y-155790222D01*
X61142754Y-155843757D01*
X61109500Y-156053713D01*
X61109500Y-156266287D01*
X61142754Y-156476243D01*
X61208443Y-156678412D01*
X61304949Y-156867816D01*
X61429896Y-157039792D01*
X61429898Y-157039794D01*
X61429900Y-157039797D01*
X61580202Y-157190099D01*
X61580205Y-157190101D01*
X61580208Y-157190104D01*
X61752184Y-157315051D01*
X61941588Y-157411557D01*
X62143757Y-157477246D01*
X62353713Y-157510500D01*
X62353716Y-157510500D01*
X62566284Y-157510500D01*
X62566287Y-157510500D01*
X62776243Y-157477246D01*
X62978412Y-157411557D01*
X63167816Y-157315051D01*
X63339792Y-157190104D01*
X63451127Y-157078768D01*
X63513437Y-157044745D01*
X63584253Y-157049809D01*
X63641089Y-157092356D01*
X63658277Y-157123833D01*
X63706202Y-157252328D01*
X63706203Y-157252329D01*
X63792453Y-157367546D01*
X63850061Y-157410671D01*
X63907669Y-157453796D01*
X63907671Y-157453796D01*
X63907673Y-157453798D01*
X63968030Y-157476309D01*
X64042514Y-157504090D01*
X64042517Y-157504091D01*
X64102127Y-157510500D01*
X65897872Y-157510499D01*
X65957483Y-157504091D01*
X66071646Y-157461510D01*
X66092326Y-157453798D01*
X66092326Y-157453797D01*
X66092331Y-157453796D01*
X66207546Y-157367546D01*
X66293796Y-157252331D01*
X66344091Y-157117483D01*
X66350500Y-157057873D01*
X66350500Y-156977000D01*
X66370502Y-156908879D01*
X66424158Y-156862386D01*
X66476500Y-156851000D01*
X71158058Y-156851000D01*
X71291557Y-156824445D01*
X71417311Y-156772356D01*
X71530487Y-156696735D01*
X72221906Y-156005315D01*
X72284217Y-155971292D01*
X72355032Y-155976356D01*
X72411868Y-156018903D01*
X72436679Y-156085423D01*
X72437000Y-156094412D01*
X72437000Y-156331613D01*
X72443413Y-156402193D01*
X72494020Y-156564602D01*
X72494021Y-156564603D01*
X72494022Y-156564606D01*
X72562821Y-156678413D01*
X72582028Y-156710185D01*
X72582032Y-156710190D01*
X72702309Y-156830467D01*
X72702314Y-156830471D01*
X72702315Y-156830472D01*
X72847894Y-156918478D01*
X73010304Y-156969086D01*
X73080884Y-156975500D01*
X73080887Y-156975500D01*
X73594113Y-156975500D01*
X73594116Y-156975500D01*
X73664696Y-156969086D01*
X73827106Y-156918478D01*
X73972685Y-156830472D01*
X74092972Y-156710185D01*
X74180978Y-156564606D01*
X74231586Y-156402196D01*
X74238000Y-156331616D01*
X74238000Y-155668384D01*
X74231586Y-155597804D01*
X74231585Y-155597802D01*
X74230349Y-155591588D01*
X74236674Y-155520873D01*
X74280225Y-155464804D01*
X74347176Y-155441181D01*
X74353927Y-155441000D01*
X79804506Y-155441000D01*
X79930080Y-155416021D01*
X80000791Y-155422349D01*
X80056859Y-155465902D01*
X80080479Y-155532854D01*
X80080272Y-155549476D01*
X80079500Y-155559292D01*
X80079500Y-157440693D01*
X80082401Y-157477567D01*
X80082401Y-157477568D01*
X80128257Y-157635401D01*
X80211917Y-157776863D01*
X80211923Y-157776870D01*
X80328129Y-157893076D01*
X80328136Y-157893082D01*
X80469598Y-157976742D01*
X80469599Y-157976742D01*
X80469602Y-157976744D01*
X80627431Y-158022598D01*
X80664306Y-158025500D01*
X80664307Y-158025500D01*
X81095693Y-158025500D01*
X81095694Y-158025500D01*
X81132569Y-158022598D01*
X81290398Y-157976744D01*
X81290401Y-157976741D01*
X81297846Y-157974579D01*
X81368843Y-157974782D01*
X81428459Y-158013335D01*
X81457768Y-158078000D01*
X81459000Y-158095576D01*
X81459000Y-161898913D01*
X81438998Y-161967034D01*
X81422095Y-161988008D01*
X81289900Y-162120202D01*
X81289898Y-162120205D01*
X81164949Y-162292183D01*
X81162265Y-162297451D01*
X81113516Y-162349065D01*
X81044600Y-162366129D01*
X80977399Y-162343226D01*
X80937735Y-162297451D01*
X80935050Y-162292183D01*
X80837176Y-162157470D01*
X80810104Y-162120208D01*
X80810101Y-162120205D01*
X80810099Y-162120202D01*
X80659797Y-161969900D01*
X80659794Y-161969898D01*
X80659793Y-161969897D01*
X80659792Y-161969896D01*
X80522939Y-161870467D01*
X80487819Y-161844951D01*
X80487818Y-161844950D01*
X80487816Y-161844949D01*
X80298412Y-161748443D01*
X80096243Y-161682754D01*
X79886287Y-161649500D01*
X79673713Y-161649500D01*
X79463757Y-161682754D01*
X79463754Y-161682754D01*
X79463753Y-161682755D01*
X79261588Y-161748443D01*
X79261586Y-161748444D01*
X79072180Y-161844951D01*
X78900205Y-161969898D01*
X78900202Y-161969900D01*
X78749900Y-162120202D01*
X78749898Y-162120205D01*
X78624949Y-162292183D01*
X78622265Y-162297451D01*
X78573516Y-162349065D01*
X78504600Y-162366129D01*
X78437399Y-162343226D01*
X78397735Y-162297451D01*
X78395050Y-162292183D01*
X78297176Y-162157470D01*
X78270104Y-162120208D01*
X78270101Y-162120205D01*
X78270099Y-162120202D01*
X78119797Y-161969900D01*
X78119794Y-161969898D01*
X78119793Y-161969897D01*
X78119792Y-161969896D01*
X77982939Y-161870467D01*
X77947819Y-161844951D01*
X77947818Y-161844950D01*
X77947816Y-161844949D01*
X77758412Y-161748443D01*
X77556243Y-161682754D01*
X77346287Y-161649500D01*
X77133713Y-161649500D01*
X76923757Y-161682754D01*
X76923754Y-161682754D01*
X76923753Y-161682755D01*
X76721588Y-161748443D01*
X76721586Y-161748444D01*
X76532180Y-161844951D01*
X76360205Y-161969898D01*
X76360202Y-161969900D01*
X76209900Y-162120202D01*
X76209898Y-162120205D01*
X76084949Y-162292183D01*
X76082265Y-162297451D01*
X76033516Y-162349065D01*
X75964600Y-162366129D01*
X75897399Y-162343226D01*
X75857735Y-162297451D01*
X75855050Y-162292183D01*
X75757176Y-162157470D01*
X75730104Y-162120208D01*
X75730101Y-162120205D01*
X75730099Y-162120202D01*
X75579797Y-161969900D01*
X75579794Y-161969898D01*
X75579793Y-161969897D01*
X75579792Y-161969896D01*
X75442939Y-161870467D01*
X75407819Y-161844951D01*
X75407818Y-161844950D01*
X75407816Y-161844949D01*
X75218412Y-161748443D01*
X75016243Y-161682754D01*
X74806287Y-161649500D01*
X74593713Y-161649500D01*
X74383757Y-161682754D01*
X74383754Y-161682754D01*
X74383753Y-161682755D01*
X74181588Y-161748443D01*
X74181586Y-161748444D01*
X73992180Y-161844951D01*
X73820205Y-161969898D01*
X73820202Y-161969900D01*
X73669900Y-162120202D01*
X73669898Y-162120205D01*
X73544949Y-162292183D01*
X73542265Y-162297451D01*
X73493516Y-162349065D01*
X73424600Y-162366129D01*
X73357399Y-162343226D01*
X73317735Y-162297451D01*
X73315050Y-162292183D01*
X73217176Y-162157470D01*
X73190104Y-162120208D01*
X73190101Y-162120205D01*
X73190099Y-162120202D01*
X73039797Y-161969900D01*
X73039794Y-161969898D01*
X73039793Y-161969897D01*
X73039792Y-161969896D01*
X72902939Y-161870467D01*
X72867819Y-161844951D01*
X72867818Y-161844950D01*
X72867816Y-161844949D01*
X72678412Y-161748443D01*
X72476243Y-161682754D01*
X72266287Y-161649500D01*
X72053713Y-161649500D01*
X71843757Y-161682754D01*
X71843754Y-161682754D01*
X71843753Y-161682755D01*
X71641588Y-161748443D01*
X71641586Y-161748444D01*
X71452180Y-161844951D01*
X71280205Y-161969898D01*
X71280202Y-161969900D01*
X71129900Y-162120202D01*
X71129898Y-162120205D01*
X71004949Y-162292183D01*
X71002265Y-162297451D01*
X70953516Y-162349065D01*
X70884600Y-162366129D01*
X70817399Y-162343226D01*
X70777735Y-162297451D01*
X70775050Y-162292183D01*
X70677176Y-162157470D01*
X70650104Y-162120208D01*
X70650101Y-162120205D01*
X70650099Y-162120202D01*
X70499797Y-161969900D01*
X70499794Y-161969898D01*
X70499793Y-161969897D01*
X70499792Y-161969896D01*
X70362939Y-161870467D01*
X70327819Y-161844951D01*
X70327818Y-161844950D01*
X70327816Y-161844949D01*
X70138412Y-161748443D01*
X69936243Y-161682754D01*
X69726287Y-161649500D01*
X69513713Y-161649500D01*
X69303757Y-161682754D01*
X69303754Y-161682754D01*
X69303753Y-161682755D01*
X69101588Y-161748443D01*
X69101586Y-161748444D01*
X68912180Y-161844951D01*
X68740205Y-161969898D01*
X68740202Y-161969900D01*
X68589900Y-162120202D01*
X68589898Y-162120205D01*
X68464949Y-162292183D01*
X68462265Y-162297451D01*
X68413516Y-162349065D01*
X68344600Y-162366129D01*
X68277399Y-162343226D01*
X68237735Y-162297451D01*
X68235050Y-162292183D01*
X68137176Y-162157470D01*
X68110104Y-162120208D01*
X68110101Y-162120205D01*
X68110099Y-162120202D01*
X67959797Y-161969900D01*
X67959794Y-161969898D01*
X67959793Y-161969897D01*
X67959792Y-161969896D01*
X67822939Y-161870467D01*
X67787819Y-161844951D01*
X67787818Y-161844950D01*
X67787816Y-161844949D01*
X67598412Y-161748443D01*
X67396243Y-161682754D01*
X67186287Y-161649500D01*
X66973713Y-161649500D01*
X66763757Y-161682754D01*
X66763754Y-161682754D01*
X66763753Y-161682755D01*
X66561588Y-161748443D01*
X66561586Y-161748444D01*
X66372180Y-161844951D01*
X66200205Y-161969898D01*
X66200202Y-161969900D01*
X66049900Y-162120202D01*
X66049898Y-162120205D01*
X65924949Y-162292183D01*
X65922265Y-162297451D01*
X65873516Y-162349065D01*
X65804600Y-162366129D01*
X65737399Y-162343226D01*
X65697735Y-162297451D01*
X65695050Y-162292183D01*
X65597176Y-162157470D01*
X65570104Y-162120208D01*
X65570101Y-162120205D01*
X65570099Y-162120202D01*
X65419797Y-161969900D01*
X65419794Y-161969898D01*
X65419793Y-161969897D01*
X65419792Y-161969896D01*
X65282939Y-161870467D01*
X65247819Y-161844951D01*
X65247818Y-161844950D01*
X65247816Y-161844949D01*
X65058412Y-161748443D01*
X64856243Y-161682754D01*
X64646287Y-161649500D01*
X64433713Y-161649500D01*
X64223757Y-161682754D01*
X64223754Y-161682754D01*
X64223753Y-161682755D01*
X64021588Y-161748443D01*
X64021586Y-161748444D01*
X63832180Y-161844951D01*
X63660207Y-161969896D01*
X63548873Y-162081230D01*
X63486561Y-162115255D01*
X63415745Y-162110189D01*
X63358909Y-162067643D01*
X63341722Y-162036165D01*
X63293798Y-161907673D01*
X63293796Y-161907670D01*
X63293796Y-161907669D01*
X63216802Y-161804818D01*
X63207546Y-161792453D01*
X63130591Y-161734845D01*
X63092331Y-161706204D01*
X63092329Y-161706203D01*
X63092326Y-161706201D01*
X62957483Y-161655909D01*
X62957486Y-161655909D01*
X62897873Y-161649500D01*
X61102135Y-161649500D01*
X61102114Y-161649502D01*
X61042519Y-161655908D01*
X61042518Y-161655908D01*
X60907673Y-161706201D01*
X60907670Y-161706203D01*
X60792450Y-161792456D01*
X60790595Y-161794312D01*
X60788291Y-161795569D01*
X60785239Y-161797855D01*
X60784910Y-161797416D01*
X60728283Y-161828338D01*
X60657468Y-161823273D01*
X60600632Y-161780726D01*
X60575821Y-161714206D01*
X60575500Y-161705217D01*
X60575500Y-131260709D01*
X63681500Y-131260709D01*
X63681500Y-131503290D01*
X63713160Y-131743782D01*
X63775944Y-131978095D01*
X63775945Y-131978097D01*
X63775946Y-131978100D01*
X63868776Y-132202212D01*
X63868777Y-132202213D01*
X63868782Y-132202224D01*
X63990061Y-132412285D01*
X63990063Y-132412288D01*
X63990064Y-132412289D01*
X64137735Y-132604738D01*
X64137739Y-132604742D01*
X64137744Y-132604748D01*
X64309251Y-132776255D01*
X64309256Y-132776259D01*
X64309262Y-132776265D01*
X64458787Y-132890999D01*
X64501714Y-132923938D01*
X64711775Y-133045217D01*
X64711779Y-133045218D01*
X64711788Y-133045224D01*
X64935900Y-133138054D01*
X65170211Y-133200838D01*
X65170215Y-133200838D01*
X65170217Y-133200839D01*
X65232202Y-133208999D01*
X65410712Y-133232500D01*
X65410719Y-133232500D01*
X65653281Y-133232500D01*
X65653288Y-133232500D01*
X65870637Y-133203885D01*
X65893782Y-133200839D01*
X65893782Y-133200838D01*
X65893789Y-133200838D01*
X66128100Y-133138054D01*
X66352212Y-133045224D01*
X66562289Y-132923936D01*
X66754738Y-132776265D01*
X66926265Y-132604738D01*
X67073936Y-132412289D01*
X67195224Y-132202212D01*
X67288054Y-131978100D01*
X67350838Y-131743789D01*
X67382500Y-131503288D01*
X67382500Y-131260712D01*
X67354354Y-131046920D01*
X67350839Y-131020217D01*
X67350838Y-131020215D01*
X67350838Y-131020211D01*
X67288054Y-130785900D01*
X67195224Y-130561788D01*
X67195218Y-130561779D01*
X67195217Y-130561775D01*
X67073938Y-130351714D01*
X67067317Y-130343085D01*
X66926265Y-130159262D01*
X66926259Y-130159256D01*
X66926255Y-130159251D01*
X66754748Y-129987744D01*
X66754742Y-129987739D01*
X66754738Y-129987735D01*
X66562289Y-129840064D01*
X66562288Y-129840063D01*
X66562285Y-129840061D01*
X66352224Y-129718782D01*
X66352216Y-129718778D01*
X66352212Y-129718776D01*
X66128100Y-129625946D01*
X66128097Y-129625945D01*
X66128095Y-129625944D01*
X65893782Y-129563160D01*
X65653290Y-129531500D01*
X65653288Y-129531500D01*
X65410712Y-129531500D01*
X65410709Y-129531500D01*
X65170217Y-129563160D01*
X64935904Y-129625944D01*
X64935900Y-129625946D01*
X64776101Y-129692137D01*
X64711786Y-129718777D01*
X64711775Y-129718782D01*
X64501714Y-129840061D01*
X64309262Y-129987735D01*
X64309251Y-129987744D01*
X64137744Y-130159251D01*
X64137735Y-130159262D01*
X63990061Y-130351714D01*
X63868782Y-130561775D01*
X63868777Y-130561786D01*
X63868776Y-130561788D01*
X63860241Y-130582393D01*
X63775946Y-130785900D01*
X63775944Y-130785904D01*
X63713160Y-131020217D01*
X63681500Y-131260709D01*
X60575500Y-131260709D01*
X60575500Y-129583463D01*
X60595502Y-129515342D01*
X60612405Y-129494368D01*
X75494369Y-114612405D01*
X75556681Y-114578379D01*
X75583464Y-114575500D01*
X115543087Y-114575500D01*
X115611208Y-114595502D01*
G37*
%TD.AperFunction*%
%TA.AperFunction,Conductor*%
G36*
X93224919Y-154416918D02*
G01*
X93282505Y-154458444D01*
X93308499Y-154524511D01*
X93309000Y-154535741D01*
X93309000Y-158861587D01*
X93288998Y-158929708D01*
X93272095Y-158950682D01*
X91943268Y-160279508D01*
X91943265Y-160279512D01*
X91867940Y-160392247D01*
X91867875Y-160392344D01*
X91867645Y-160392686D01*
X91867641Y-160392694D01*
X91815556Y-160518439D01*
X91815555Y-160518442D01*
X91789000Y-160651938D01*
X91789000Y-161768531D01*
X91768998Y-161836652D01*
X91737061Y-161870467D01*
X91600205Y-161969898D01*
X91600202Y-161969900D01*
X91449900Y-162120202D01*
X91449898Y-162120205D01*
X91324949Y-162292183D01*
X91322265Y-162297451D01*
X91273516Y-162349065D01*
X91204600Y-162366129D01*
X91137399Y-162343226D01*
X91097735Y-162297451D01*
X91095050Y-162292183D01*
X90997176Y-162157470D01*
X90970104Y-162120208D01*
X90970101Y-162120205D01*
X90970099Y-162120202D01*
X90819797Y-161969900D01*
X90819794Y-161969898D01*
X90819793Y-161969897D01*
X90819792Y-161969896D01*
X90682939Y-161870467D01*
X90639585Y-161814245D01*
X90631000Y-161768531D01*
X90631000Y-159171941D01*
X90630999Y-159171938D01*
X90623192Y-159132689D01*
X90604445Y-159038443D01*
X90552356Y-158912689D01*
X90552354Y-158912687D01*
X90552354Y-158912685D01*
X90540213Y-158894515D01*
X90482235Y-158807745D01*
X90461020Y-158739992D01*
X90461000Y-158737743D01*
X90461000Y-158095576D01*
X90481002Y-158027455D01*
X90534658Y-157980962D01*
X90604932Y-157970858D01*
X90622154Y-157974579D01*
X90629598Y-157976741D01*
X90629602Y-157976744D01*
X90787431Y-158022598D01*
X90824306Y-158025500D01*
X90824307Y-158025500D01*
X91255693Y-158025500D01*
X91255694Y-158025500D01*
X91292569Y-158022598D01*
X91450398Y-157976744D01*
X91591865Y-157893081D01*
X91708081Y-157776865D01*
X91791744Y-157635398D01*
X91837598Y-157477569D01*
X91840500Y-157440694D01*
X91840500Y-155559306D01*
X91837598Y-155522431D01*
X91791744Y-155364602D01*
X91721754Y-155246255D01*
X91704295Y-155177442D01*
X91726811Y-155110110D01*
X91782156Y-155065641D01*
X91852756Y-155058152D01*
X91878425Y-155065708D01*
X91955476Y-155097624D01*
X92125779Y-155131500D01*
X92299421Y-155131500D01*
X92469724Y-155097624D01*
X92630146Y-155031175D01*
X92774524Y-154934706D01*
X92897306Y-154811924D01*
X92993775Y-154667546D01*
X93060224Y-154507124D01*
X93060226Y-154507113D01*
X93062019Y-154501205D01*
X93064270Y-154501887D01*
X93092329Y-154448249D01*
X93154024Y-154413118D01*
X93224919Y-154416918D01*
G37*
%TD.AperFunction*%
%TA.AperFunction,Conductor*%
G36*
X93229709Y-144211002D02*
G01*
X93250683Y-144227905D01*
X94522095Y-145499316D01*
X94556120Y-145561628D01*
X94559000Y-145588411D01*
X94559000Y-151068058D01*
X94577711Y-151162122D01*
X94585555Y-151201557D01*
X94637644Y-151327311D01*
X94683704Y-151396246D01*
X94713266Y-151440488D01*
X94713271Y-151440494D01*
X98710508Y-155437731D01*
X98710512Y-155437734D01*
X98710513Y-155437735D01*
X98782562Y-155485876D01*
X98823689Y-155513356D01*
X98949443Y-155565445D01*
X99082942Y-155592000D01*
X101132503Y-155592000D01*
X101266002Y-155565445D01*
X101391756Y-155513356D01*
X101432883Y-155485876D01*
X101504932Y-155437735D01*
X103464762Y-153477905D01*
X103527074Y-153443880D01*
X103553857Y-153441000D01*
X114675614Y-153441000D01*
X114743735Y-153461002D01*
X114790228Y-153514658D01*
X114800332Y-153584932D01*
X114770838Y-153649512D01*
X114764715Y-153656089D01*
X114661624Y-153759180D01*
X114579208Y-153841596D01*
X114516896Y-153875621D01*
X114490113Y-153878500D01*
X113801114Y-153878500D01*
X113690523Y-153900498D01*
X113690523Y-153900499D01*
X113667618Y-153905055D01*
X113667616Y-153905056D01*
X113667612Y-153905057D01*
X113541863Y-153957144D01*
X113428693Y-154032762D01*
X113428686Y-154032767D01*
X113136926Y-154324528D01*
X113074614Y-154358554D01*
X113047831Y-154361433D01*
X105439505Y-154361433D01*
X105406781Y-154367942D01*
X105406782Y-154367943D01*
X105306009Y-154387988D01*
X105306006Y-154387989D01*
X105180255Y-154440077D01*
X105067078Y-154515699D01*
X105067072Y-154515704D01*
X97942168Y-161640608D01*
X97879856Y-161674634D01*
X97833363Y-161675962D01*
X97737452Y-161660771D01*
X97666287Y-161649500D01*
X97453713Y-161649500D01*
X97243757Y-161682754D01*
X97243754Y-161682754D01*
X97243753Y-161682755D01*
X97041588Y-161748443D01*
X97041586Y-161748444D01*
X96852180Y-161844951D01*
X96680205Y-161969898D01*
X96680202Y-161969900D01*
X96529900Y-162120202D01*
X96529898Y-162120205D01*
X96404949Y-162292183D01*
X96402265Y-162297451D01*
X96353516Y-162349065D01*
X96284600Y-162366129D01*
X96217399Y-162343226D01*
X96177735Y-162297451D01*
X96175050Y-162292183D01*
X96077176Y-162157470D01*
X96050104Y-162120208D01*
X96050101Y-162120205D01*
X96050099Y-162120202D01*
X95899797Y-161969900D01*
X95899794Y-161969898D01*
X95899793Y-161969897D01*
X95899792Y-161969896D01*
X95782938Y-161884997D01*
X95742939Y-161855936D01*
X95699585Y-161799714D01*
X95691000Y-161754000D01*
X95691000Y-153341544D01*
X95690999Y-153341541D01*
X95683483Y-153303757D01*
X95664445Y-153208046D01*
X95612356Y-153082292D01*
X95536735Y-152969116D01*
X95536733Y-152969114D01*
X95536728Y-152969108D01*
X93783405Y-151215785D01*
X93749379Y-151153473D01*
X93746500Y-151126690D01*
X93746500Y-146006121D01*
X93746499Y-146006118D01*
X93744800Y-145997576D01*
X93719945Y-145872623D01*
X93667856Y-145746869D01*
X93641677Y-145707689D01*
X93638573Y-145703044D01*
X93625686Y-145683757D01*
X93592235Y-145633693D01*
X93592230Y-145633688D01*
X93592228Y-145633685D01*
X93151314Y-145192771D01*
X93151308Y-145192766D01*
X93151305Y-145192764D01*
X93038131Y-145117144D01*
X93002630Y-145102439D01*
X92912380Y-145065056D01*
X92912379Y-145065055D01*
X92893803Y-145061360D01*
X92884516Y-145059513D01*
X92884515Y-145059512D01*
X92778881Y-145038500D01*
X92778878Y-145038500D01*
X90147443Y-145038500D01*
X90147439Y-145038500D01*
X90041805Y-145059512D01*
X90041805Y-145059513D01*
X90034839Y-145060898D01*
X90013941Y-145065055D01*
X90013940Y-145065056D01*
X89888189Y-145117144D01*
X89775016Y-145192764D01*
X89775014Y-145192765D01*
X89233265Y-145734513D01*
X89213464Y-145764148D01*
X89158986Y-145809675D01*
X89088543Y-145818522D01*
X89044560Y-145802599D01*
X88950325Y-145746869D01*
X88910398Y-145723256D01*
X88752568Y-145677401D01*
X88718595Y-145674728D01*
X88715694Y-145674500D01*
X88284306Y-145674500D01*
X88281405Y-145674728D01*
X88247432Y-145677401D01*
X88247431Y-145677401D01*
X88089598Y-145723257D01*
X87948136Y-145806917D01*
X87948129Y-145806923D01*
X87831923Y-145923129D01*
X87831917Y-145923136D01*
X87748257Y-146064598D01*
X87702401Y-146222431D01*
X87702401Y-146222432D01*
X87699500Y-146259306D01*
X87699500Y-148140693D01*
X87702401Y-148177567D01*
X87702401Y-148177568D01*
X87748256Y-148335399D01*
X87791453Y-148408439D01*
X87809000Y-148472579D01*
X87809000Y-149233727D01*
X87822493Y-149301557D01*
X87835555Y-149367223D01*
X87835556Y-149367226D01*
X87857332Y-149419797D01*
X87887644Y-149492977D01*
X87955012Y-149593802D01*
X87963266Y-149606154D01*
X87963271Y-149606160D01*
X88998608Y-150641496D01*
X89007814Y-150658355D01*
X89021155Y-150672179D01*
X89031739Y-150702172D01*
X89032633Y-150703808D01*
X89033090Y-150705998D01*
X89035260Y-150716910D01*
X89028939Y-150787622D01*
X88985390Y-150843693D01*
X88918440Y-150867319D01*
X88911684Y-150867500D01*
X84821321Y-150867500D01*
X84753200Y-150847498D01*
X84732226Y-150830595D01*
X82686262Y-148784631D01*
X82652236Y-148722319D01*
X82657301Y-148651504D01*
X82698138Y-148595970D01*
X82701851Y-148593088D01*
X82701865Y-148593081D01*
X82818081Y-148476865D01*
X82901744Y-148335398D01*
X82947598Y-148177569D01*
X82950500Y-148140694D01*
X82950500Y-146259306D01*
X82947598Y-146222431D01*
X82901744Y-146064602D01*
X82862104Y-145997575D01*
X82844646Y-145928760D01*
X82867163Y-145861428D01*
X82881458Y-145844348D01*
X84497902Y-144227905D01*
X84560214Y-144193879D01*
X84586997Y-144191000D01*
X93161588Y-144191000D01*
X93229709Y-144211002D01*
G37*
%TD.AperFunction*%
%TA.AperFunction,Conductor*%
G36*
X118977246Y-157975487D02*
G01*
X119004030Y-157977402D01*
X119013232Y-157983316D01*
X119020388Y-157984873D01*
X119049094Y-158006363D01*
X119063357Y-158020626D01*
X119202106Y-158102681D01*
X119356902Y-158147654D01*
X119393065Y-158150500D01*
X119796934Y-158150499D01*
X119833098Y-158147654D01*
X119987894Y-158102681D01*
X119987898Y-158102678D01*
X119995172Y-158099532D01*
X119996210Y-158101932D01*
X120052677Y-158087607D01*
X120120008Y-158110124D01*
X120164478Y-158165468D01*
X120174000Y-158213520D01*
X120174000Y-158996587D01*
X120153998Y-159064708D01*
X120137095Y-159085682D01*
X119883268Y-159339508D01*
X119883265Y-159339511D01*
X119849253Y-159390415D01*
X119841810Y-159401557D01*
X119840808Y-159403056D01*
X119840807Y-159403057D01*
X119807644Y-159452688D01*
X119755556Y-159578439D01*
X119755555Y-159578442D01*
X119729000Y-159711938D01*
X119729000Y-161768531D01*
X119708998Y-161836652D01*
X119677061Y-161870467D01*
X119540205Y-161969898D01*
X119540202Y-161969900D01*
X119389900Y-162120202D01*
X119389898Y-162120205D01*
X119264949Y-162292183D01*
X119262265Y-162297451D01*
X119213516Y-162349065D01*
X119144600Y-162366129D01*
X119077399Y-162343226D01*
X119037735Y-162297451D01*
X119035050Y-162292183D01*
X118937176Y-162157470D01*
X118910104Y-162120208D01*
X118910101Y-162120205D01*
X118910099Y-162120202D01*
X118759797Y-161969900D01*
X118759794Y-161969898D01*
X118759793Y-161969897D01*
X118759792Y-161969896D01*
X118622939Y-161870467D01*
X118587819Y-161844951D01*
X118587818Y-161844950D01*
X118587816Y-161844949D01*
X118398412Y-161748443D01*
X118196243Y-161682754D01*
X117986287Y-161649500D01*
X117773713Y-161649500D01*
X117563757Y-161682754D01*
X117563754Y-161682754D01*
X117563753Y-161682755D01*
X117361588Y-161748443D01*
X117361586Y-161748444D01*
X117172180Y-161844951D01*
X117000205Y-161969898D01*
X117000202Y-161969900D01*
X116849900Y-162120202D01*
X116849898Y-162120205D01*
X116724949Y-162292183D01*
X116722265Y-162297451D01*
X116673516Y-162349065D01*
X116604600Y-162366129D01*
X116537399Y-162343226D01*
X116497735Y-162297451D01*
X116495050Y-162292183D01*
X116397176Y-162157470D01*
X116370104Y-162120208D01*
X116370101Y-162120205D01*
X116370099Y-162120202D01*
X116219797Y-161969900D01*
X116219794Y-161969898D01*
X116219793Y-161969897D01*
X116219792Y-161969896D01*
X116082939Y-161870467D01*
X116047819Y-161844951D01*
X116047818Y-161844950D01*
X116047816Y-161844949D01*
X115858412Y-161748443D01*
X115656243Y-161682754D01*
X115446287Y-161649500D01*
X115233713Y-161649500D01*
X115023757Y-161682754D01*
X115023754Y-161682754D01*
X115023753Y-161682755D01*
X114821588Y-161748443D01*
X114821586Y-161748444D01*
X114632180Y-161844951D01*
X114460205Y-161969898D01*
X114460202Y-161969900D01*
X114309900Y-162120202D01*
X114309898Y-162120205D01*
X114184949Y-162292183D01*
X114182265Y-162297451D01*
X114133516Y-162349065D01*
X114064600Y-162366129D01*
X113997399Y-162343226D01*
X113957735Y-162297451D01*
X113955050Y-162292183D01*
X113857176Y-162157470D01*
X113830104Y-162120208D01*
X113830101Y-162120205D01*
X113830099Y-162120202D01*
X113679797Y-161969900D01*
X113679794Y-161969898D01*
X113679793Y-161969897D01*
X113679792Y-161969896D01*
X113542939Y-161870467D01*
X113507819Y-161844951D01*
X113507818Y-161844950D01*
X113507816Y-161844949D01*
X113318412Y-161748443D01*
X113116243Y-161682754D01*
X112906287Y-161649500D01*
X112693713Y-161649500D01*
X112483757Y-161682754D01*
X112483754Y-161682754D01*
X112483753Y-161682755D01*
X112281588Y-161748443D01*
X112281586Y-161748444D01*
X112092180Y-161844951D01*
X111920205Y-161969898D01*
X111920202Y-161969900D01*
X111769900Y-162120202D01*
X111769898Y-162120205D01*
X111644949Y-162292183D01*
X111642265Y-162297451D01*
X111593516Y-162349065D01*
X111524600Y-162366129D01*
X111457399Y-162343226D01*
X111417735Y-162297451D01*
X111415050Y-162292183D01*
X111317176Y-162157470D01*
X111290104Y-162120208D01*
X111290101Y-162120205D01*
X111290099Y-162120202D01*
X111162654Y-161992757D01*
X111128628Y-161930445D01*
X111133693Y-161859630D01*
X111162654Y-161814567D01*
X112088265Y-160888957D01*
X113049317Y-159927905D01*
X113111629Y-159893879D01*
X113138412Y-159891000D01*
X116468058Y-159891000D01*
X116601557Y-159864445D01*
X116727311Y-159812356D01*
X116743473Y-159801557D01*
X116840487Y-159736735D01*
X117591735Y-158985486D01*
X117667356Y-158872311D01*
X117719445Y-158746557D01*
X117742727Y-158629513D01*
X117746000Y-158613058D01*
X117746000Y-158213520D01*
X117766002Y-158145399D01*
X117819658Y-158098906D01*
X117889932Y-158088802D01*
X117924244Y-158100879D01*
X117924828Y-158099532D01*
X117932102Y-158102679D01*
X117932103Y-158102679D01*
X117932106Y-158102681D01*
X118086902Y-158147654D01*
X118123065Y-158150500D01*
X118526934Y-158150499D01*
X118563098Y-158147654D01*
X118717894Y-158102681D01*
X118856643Y-158020626D01*
X118870904Y-158006364D01*
X118878979Y-158001955D01*
X118884494Y-157994589D01*
X118909648Y-157985207D01*
X118933214Y-157972339D01*
X118942392Y-157972995D01*
X118951014Y-157969780D01*
X118977246Y-157975487D01*
G37*
%TD.AperFunction*%
%TA.AperFunction,Conductor*%
G36*
X88691768Y-136436002D02*
G01*
X88730887Y-136475853D01*
X88746615Y-136501353D01*
X88757287Y-136518655D01*
X88757291Y-136518660D01*
X88881337Y-136642706D01*
X88881343Y-136642711D01*
X88881344Y-136642712D01*
X88938563Y-136678004D01*
X89030665Y-136734814D01*
X89197196Y-136789997D01*
X89197197Y-136789997D01*
X89197203Y-136789999D01*
X89299991Y-136800500D01*
X90700008Y-136800499D01*
X90700009Y-136800499D01*
X90802797Y-136789999D01*
X90969334Y-136734814D01*
X91118656Y-136642712D01*
X91242712Y-136518656D01*
X91269112Y-136475853D01*
X91276821Y-136468919D01*
X91281129Y-136459488D01*
X91302767Y-136445581D01*
X91321896Y-136428376D01*
X91333721Y-136425688D01*
X91340855Y-136421104D01*
X91376353Y-136416000D01*
X91386588Y-136416000D01*
X91454709Y-136436002D01*
X91475678Y-136452900D01*
X91809513Y-136786735D01*
X91922586Y-136862287D01*
X91922689Y-136862356D01*
X92048443Y-136914445D01*
X92086333Y-136921981D01*
X92096419Y-136925864D01*
X92116377Y-136941132D01*
X92138645Y-136952780D01*
X92149946Y-136966813D01*
X92152807Y-136969002D01*
X92153700Y-136971474D01*
X92158395Y-136977305D01*
X92175717Y-137005389D01*
X92175724Y-137005397D01*
X92206232Y-137035905D01*
X92240258Y-137098217D01*
X92235193Y-137169032D01*
X92206232Y-137214095D01*
X92175724Y-137244602D01*
X92175719Y-137244608D01*
X92087449Y-137387716D01*
X92034565Y-137547308D01*
X92034563Y-137547320D01*
X92024500Y-137645817D01*
X92024500Y-138179182D01*
X92034563Y-138277679D01*
X92034565Y-138277691D01*
X92087449Y-138437283D01*
X92175719Y-138580391D01*
X92175724Y-138580397D01*
X92294602Y-138699275D01*
X92294608Y-138699280D01*
X92294609Y-138699281D01*
X92437713Y-138787549D01*
X92437715Y-138787549D01*
X92437716Y-138787550D01*
X92597308Y-138840434D01*
X92597309Y-138840434D01*
X92597315Y-138840436D01*
X92695817Y-138850499D01*
X92695817Y-138850500D01*
X92695826Y-138850500D01*
X93304183Y-138850500D01*
X93304182Y-138850499D01*
X93402685Y-138840436D01*
X93562287Y-138787549D01*
X93630907Y-138745222D01*
X93699383Y-138726486D01*
X93767122Y-138747744D01*
X93786142Y-138763364D01*
X94234513Y-139211735D01*
X94347689Y-139287356D01*
X94473443Y-139339445D01*
X94606942Y-139366000D01*
X94823647Y-139366000D01*
X94891768Y-139386002D01*
X94930887Y-139425853D01*
X94946615Y-139451353D01*
X94957287Y-139468655D01*
X94957291Y-139468660D01*
X95081337Y-139592706D01*
X95081343Y-139592711D01*
X95081344Y-139592712D01*
X95131161Y-139623439D01*
X95230665Y-139684814D01*
X95397196Y-139739997D01*
X95397197Y-139739997D01*
X95397203Y-139739999D01*
X95499991Y-139750500D01*
X96900008Y-139750499D01*
X96900009Y-139750499D01*
X97002797Y-139739999D01*
X97169334Y-139684814D01*
X97186352Y-139674317D01*
X97318656Y-139592712D01*
X97442712Y-139468656D01*
X97469112Y-139425853D01*
X97521896Y-139378376D01*
X97576353Y-139366000D01*
X110536587Y-139366000D01*
X110604708Y-139386002D01*
X110625682Y-139402904D01*
X111284287Y-140061508D01*
X111318312Y-140123821D01*
X111313248Y-140194636D01*
X111284288Y-140239699D01*
X111227032Y-140296955D01*
X111137997Y-140441302D01*
X111084651Y-140602293D01*
X111084650Y-140602297D01*
X111074500Y-140701646D01*
X111074500Y-141298345D01*
X111084650Y-141397704D01*
X111084650Y-141397706D01*
X111084651Y-141397708D01*
X111137997Y-141558697D01*
X111227032Y-141703044D01*
X111227037Y-141703050D01*
X111346949Y-141822962D01*
X111346955Y-141822967D01*
X111346956Y-141822968D01*
X111491303Y-141912003D01*
X111652292Y-141965349D01*
X111751655Y-141975500D01*
X112298344Y-141975499D01*
X112298345Y-141975499D01*
X112318216Y-141973469D01*
X112397708Y-141965349D01*
X112558697Y-141912003D01*
X112562333Y-141909759D01*
X112565329Y-141908910D01*
X112565347Y-141908902D01*
X112565348Y-141908904D01*
X112628481Y-141891000D01*
X113632148Y-141891000D01*
X113700269Y-141911002D01*
X113746762Y-141964658D01*
X113754995Y-141996458D01*
X113756244Y-141996230D01*
X113757401Y-142002568D01*
X113803257Y-142160401D01*
X113886917Y-142301863D01*
X113886918Y-142301863D01*
X113886919Y-142301865D01*
X113910977Y-142325923D01*
X113938290Y-142366800D01*
X113942641Y-142377304D01*
X113942643Y-142377308D01*
X113942644Y-142377310D01*
X114018265Y-142490486D01*
X114018268Y-142490489D01*
X114018269Y-142490490D01*
X114677107Y-143149328D01*
X114677109Y-143149329D01*
X114677115Y-143149335D01*
X114705624Y-143168384D01*
X114790290Y-143224956D01*
X114916044Y-143277045D01*
X115049543Y-143303600D01*
X116408111Y-143303600D01*
X116476232Y-143323602D01*
X116522725Y-143377258D01*
X116532829Y-143447532D01*
X116503335Y-143512112D01*
X116478114Y-143534363D01*
X116468466Y-143540810D01*
X116462362Y-143544889D01*
X116462358Y-143544892D01*
X116344892Y-143662358D01*
X116344887Y-143662364D01*
X116252588Y-143800500D01*
X116189013Y-143953983D01*
X116189009Y-143953995D01*
X116176657Y-144016090D01*
X116143749Y-144078999D01*
X116142175Y-144080601D01*
X115248264Y-144974513D01*
X115173245Y-145086790D01*
X115173226Y-145086818D01*
X115172644Y-145087688D01*
X115172643Y-145087688D01*
X115120556Y-145213439D01*
X115120555Y-145213442D01*
X115094000Y-145346938D01*
X115094000Y-145786479D01*
X115073998Y-145854600D01*
X115020342Y-145901093D01*
X114950068Y-145911197D01*
X114915753Y-145899124D01*
X114915172Y-145900468D01*
X114907897Y-145897320D01*
X114895492Y-145893716D01*
X114842280Y-145878256D01*
X114753103Y-145852347D01*
X114753099Y-145852346D01*
X114753098Y-145852346D01*
X114753096Y-145852345D01*
X114753091Y-145852345D01*
X114716943Y-145849500D01*
X114313066Y-145849500D01*
X114276903Y-145852345D01*
X114122105Y-145897319D01*
X114058639Y-145934853D01*
X113983357Y-145979374D01*
X113983355Y-145979375D01*
X113983353Y-145979377D01*
X113983351Y-145979378D01*
X113869378Y-146093351D01*
X113869377Y-146093353D01*
X113869375Y-146093355D01*
X113869374Y-146093357D01*
X113843183Y-146137644D01*
X113787319Y-146232105D01*
X113742347Y-146386896D01*
X113742345Y-146386908D01*
X113739500Y-146423055D01*
X113739500Y-146533000D01*
X113719498Y-146601121D01*
X113665842Y-146647614D01*
X113613500Y-146659000D01*
X112938412Y-146659000D01*
X112870291Y-146638998D01*
X112849321Y-146622099D01*
X112440487Y-146213265D01*
X112327311Y-146137644D01*
X112201562Y-146085557D01*
X112201561Y-146085556D01*
X112201557Y-146085555D01*
X112170840Y-146079445D01*
X112170836Y-146079444D01*
X112068061Y-146059000D01*
X112068058Y-146059000D01*
X111315419Y-146059000D01*
X111247298Y-146038998D01*
X111200805Y-145985342D01*
X111190071Y-145945804D01*
X111188952Y-145934853D01*
X111180755Y-145854600D01*
X111179999Y-145847202D01*
X111124814Y-145680665D01*
X111051391Y-145561628D01*
X111032712Y-145531344D01*
X111032711Y-145531343D01*
X111032706Y-145531337D01*
X110908662Y-145407293D01*
X110908656Y-145407288D01*
X110759334Y-145315185D01*
X110592803Y-145260002D01*
X110592791Y-145260000D01*
X110490017Y-145249500D01*
X109089990Y-145249500D01*
X108987202Y-145260000D01*
X108820665Y-145315185D01*
X108671343Y-145407288D01*
X108671337Y-145407293D01*
X108547293Y-145531337D01*
X108547288Y-145531343D01*
X108455185Y-145680665D01*
X108400002Y-145847196D01*
X108400000Y-145847208D01*
X108389500Y-145949982D01*
X108389500Y-147550009D01*
X108400000Y-147652797D01*
X108455185Y-147819334D01*
X108547288Y-147968656D01*
X108547293Y-147968662D01*
X108671337Y-148092706D01*
X108671343Y-148092711D01*
X108671344Y-148092712D01*
X108728563Y-148128004D01*
X108820665Y-148184814D01*
X108987196Y-148239997D01*
X108987197Y-148239997D01*
X108987203Y-148239999D01*
X109089991Y-148250500D01*
X110490008Y-148250499D01*
X110490009Y-148250499D01*
X110592797Y-148239999D01*
X110759334Y-148184814D01*
X110830864Y-148140694D01*
X110908656Y-148092712D01*
X111032712Y-147968656D01*
X111124814Y-147819334D01*
X111179999Y-147652797D01*
X111190072Y-147554192D01*
X111216895Y-147488459D01*
X111274998Y-147447660D01*
X111315420Y-147441000D01*
X111661588Y-147441000D01*
X111729709Y-147461002D01*
X111750678Y-147477900D01*
X111961490Y-147688712D01*
X112159513Y-147886735D01*
X112259085Y-147953266D01*
X112259084Y-147953266D01*
X112272686Y-147962354D01*
X112272689Y-147962356D01*
X112398443Y-148014445D01*
X112531942Y-148041000D01*
X113613501Y-148041000D01*
X113681622Y-148061002D01*
X113728115Y-148114658D01*
X113739501Y-148167000D01*
X113739501Y-148276934D01*
X113742345Y-148313096D01*
X113770045Y-148408439D01*
X113787319Y-148467894D01*
X113869374Y-148606643D01*
X113869377Y-148606646D01*
X113869378Y-148606648D01*
X113983351Y-148720621D01*
X113983353Y-148720622D01*
X113983357Y-148720626D01*
X114122106Y-148802681D01*
X114276902Y-148847654D01*
X114313065Y-148850500D01*
X114716934Y-148850499D01*
X114753098Y-148847654D01*
X114907894Y-148802681D01*
X115046643Y-148720626D01*
X115060904Y-148706364D01*
X115123214Y-148672339D01*
X115194030Y-148677402D01*
X115239095Y-148706364D01*
X115253357Y-148720626D01*
X115392106Y-148802681D01*
X115546902Y-148847654D01*
X115583065Y-148850500D01*
X115986934Y-148850499D01*
X116023098Y-148847654D01*
X116177894Y-148802681D01*
X116316643Y-148720626D01*
X116330904Y-148706364D01*
X116393214Y-148672339D01*
X116464030Y-148677402D01*
X116509095Y-148706364D01*
X116523357Y-148720626D01*
X116662106Y-148802681D01*
X116816902Y-148847654D01*
X116853065Y-148850500D01*
X117256934Y-148850499D01*
X117293098Y-148847654D01*
X117447894Y-148802681D01*
X117586643Y-148720626D01*
X117600904Y-148706364D01*
X117663214Y-148672339D01*
X117734030Y-148677402D01*
X117779095Y-148706364D01*
X117793357Y-148720626D01*
X117932106Y-148802681D01*
X118086902Y-148847654D01*
X118123065Y-148850500D01*
X118526934Y-148850499D01*
X118563098Y-148847654D01*
X118717894Y-148802681D01*
X118856643Y-148720626D01*
X118870904Y-148706364D01*
X118933214Y-148672339D01*
X119004030Y-148677402D01*
X119049095Y-148706364D01*
X119063357Y-148720626D01*
X119202106Y-148802681D01*
X119356902Y-148847654D01*
X119393065Y-148850500D01*
X119796934Y-148850499D01*
X119833098Y-148847654D01*
X119987894Y-148802681D01*
X120126643Y-148720626D01*
X120140904Y-148706364D01*
X120203214Y-148672339D01*
X120274030Y-148677402D01*
X120319095Y-148706364D01*
X120333357Y-148720626D01*
X120472106Y-148802681D01*
X120626902Y-148847654D01*
X120663065Y-148850500D01*
X121066934Y-148850499D01*
X121103098Y-148847654D01*
X121257894Y-148802681D01*
X121396643Y-148720626D01*
X121410904Y-148706364D01*
X121473214Y-148672339D01*
X121544030Y-148677402D01*
X121589095Y-148706364D01*
X121603357Y-148720626D01*
X121742106Y-148802681D01*
X121896902Y-148847654D01*
X121933065Y-148850500D01*
X122336934Y-148850499D01*
X122373098Y-148847654D01*
X122527894Y-148802681D01*
X122666643Y-148720626D01*
X122680904Y-148706364D01*
X122743214Y-148672339D01*
X122814030Y-148677402D01*
X122859095Y-148706364D01*
X122873357Y-148720626D01*
X123012106Y-148802681D01*
X123166902Y-148847654D01*
X123203065Y-148850500D01*
X123606934Y-148850499D01*
X123643098Y-148847654D01*
X123797894Y-148802681D01*
X123936643Y-148720626D01*
X123950904Y-148706364D01*
X124013214Y-148672339D01*
X124084030Y-148677402D01*
X124129095Y-148706364D01*
X124143357Y-148720626D01*
X124282106Y-148802681D01*
X124436902Y-148847654D01*
X124473065Y-148850500D01*
X124876934Y-148850499D01*
X124913098Y-148847654D01*
X125067894Y-148802681D01*
X125206643Y-148720626D01*
X125220904Y-148706364D01*
X125283214Y-148672339D01*
X125354030Y-148677402D01*
X125399095Y-148706364D01*
X125413357Y-148720626D01*
X125552106Y-148802681D01*
X125706902Y-148847654D01*
X125743065Y-148850500D01*
X126146934Y-148850499D01*
X126183098Y-148847654D01*
X126337894Y-148802681D01*
X126476643Y-148720626D01*
X126490904Y-148706364D01*
X126553214Y-148672339D01*
X126624030Y-148677402D01*
X126669095Y-148706364D01*
X126683357Y-148720626D01*
X126822106Y-148802681D01*
X126976902Y-148847654D01*
X127013065Y-148850500D01*
X127416934Y-148850499D01*
X127453098Y-148847654D01*
X127607894Y-148802681D01*
X127607898Y-148802678D01*
X127615172Y-148799532D01*
X127616210Y-148801932D01*
X127672677Y-148787607D01*
X127740008Y-148810124D01*
X127784478Y-148865468D01*
X127794000Y-148913520D01*
X127794000Y-149303058D01*
X127808731Y-149377113D01*
X127820555Y-149436557D01*
X127820557Y-149436562D01*
X127872644Y-149562311D01*
X127948266Y-149675488D01*
X127948271Y-149675494D01*
X132392095Y-154119316D01*
X132426120Y-154181628D01*
X132429000Y-154208411D01*
X132429000Y-161768531D01*
X132408998Y-161836652D01*
X132377061Y-161870467D01*
X132240205Y-161969898D01*
X132240202Y-161969900D01*
X132089900Y-162120202D01*
X132089898Y-162120205D01*
X131964949Y-162292183D01*
X131962265Y-162297451D01*
X131913516Y-162349065D01*
X131844600Y-162366129D01*
X131777399Y-162343226D01*
X131737735Y-162297451D01*
X131735050Y-162292183D01*
X131637176Y-162157470D01*
X131610104Y-162120208D01*
X131610101Y-162120205D01*
X131610099Y-162120202D01*
X131459797Y-161969900D01*
X131459794Y-161969898D01*
X131459793Y-161969897D01*
X131459792Y-161969896D01*
X131322939Y-161870467D01*
X131279585Y-161814245D01*
X131271000Y-161768531D01*
X131271000Y-161511941D01*
X131270999Y-161511938D01*
X131244445Y-161378443D01*
X131192356Y-161252689D01*
X131116735Y-161139513D01*
X131116733Y-161139511D01*
X131116728Y-161139505D01*
X130127894Y-160150671D01*
X130127888Y-160150666D01*
X130034843Y-160088496D01*
X130014711Y-160075044D01*
X129993413Y-160066222D01*
X129888960Y-160022956D01*
X129888957Y-160022955D01*
X129809370Y-160007124D01*
X129809370Y-160007123D01*
X129755458Y-159996400D01*
X128625812Y-159996400D01*
X128557691Y-159976398D01*
X128536716Y-159959495D01*
X127927904Y-159350682D01*
X127893879Y-159288370D01*
X127891000Y-159261587D01*
X127891000Y-157889752D01*
X127908546Y-157825613D01*
X127942681Y-157767894D01*
X127987654Y-157613098D01*
X127990500Y-157576935D01*
X127990499Y-155723066D01*
X127987654Y-155686902D01*
X127942681Y-155532106D01*
X127860626Y-155393357D01*
X127860622Y-155393353D01*
X127860621Y-155393351D01*
X127746648Y-155279378D01*
X127746646Y-155279377D01*
X127746643Y-155279374D01*
X127607894Y-155197319D01*
X127552943Y-155181354D01*
X127453103Y-155152347D01*
X127453099Y-155152346D01*
X127453098Y-155152346D01*
X127453096Y-155152345D01*
X127453091Y-155152345D01*
X127416943Y-155149500D01*
X127013066Y-155149500D01*
X126976903Y-155152345D01*
X126822105Y-155197319D01*
X126764258Y-155231530D01*
X126683357Y-155279374D01*
X126683355Y-155279375D01*
X126683353Y-155279377D01*
X126683351Y-155279378D01*
X126669095Y-155293635D01*
X126606783Y-155327661D01*
X126535968Y-155322596D01*
X126490905Y-155293635D01*
X126476648Y-155279378D01*
X126476646Y-155279377D01*
X126476643Y-155279374D01*
X126337894Y-155197319D01*
X126282943Y-155181354D01*
X126183103Y-155152347D01*
X126183099Y-155152346D01*
X126183098Y-155152346D01*
X126183096Y-155152345D01*
X126183091Y-155152345D01*
X126146943Y-155149500D01*
X125743066Y-155149500D01*
X125706903Y-155152345D01*
X125552105Y-155197319D01*
X125494258Y-155231530D01*
X125413357Y-155279374D01*
X125413355Y-155279375D01*
X125413353Y-155279377D01*
X125413351Y-155279378D01*
X125399095Y-155293635D01*
X125336783Y-155327661D01*
X125265968Y-155322596D01*
X125220905Y-155293635D01*
X125206648Y-155279378D01*
X125206646Y-155279377D01*
X125206643Y-155279374D01*
X125067894Y-155197319D01*
X125012943Y-155181354D01*
X124913103Y-155152347D01*
X124913099Y-155152346D01*
X124913098Y-155152346D01*
X124913096Y-155152345D01*
X124913091Y-155152345D01*
X124876943Y-155149500D01*
X124473066Y-155149500D01*
X124436903Y-155152345D01*
X124282103Y-155197319D01*
X124156498Y-155271601D01*
X124087682Y-155289060D01*
X124020351Y-155266543D01*
X123987595Y-155233149D01*
X123980904Y-155223135D01*
X123941735Y-155164514D01*
X123941730Y-155164509D01*
X123941728Y-155164506D01*
X120990494Y-152213271D01*
X120990488Y-152213266D01*
X120990482Y-152213262D01*
X120877311Y-152137644D01*
X120810824Y-152110104D01*
X120751560Y-152085556D01*
X120751557Y-152085555D01*
X120698464Y-152074994D01*
X120618061Y-152059000D01*
X120618058Y-152059000D01*
X106122745Y-152059000D01*
X106054624Y-152038998D01*
X106008131Y-151985342D01*
X105998027Y-151915068D01*
X106015505Y-151866853D01*
X106040094Y-151826985D01*
X106044812Y-151819337D01*
X106044813Y-151819337D01*
X106099997Y-151652803D01*
X106099996Y-151652803D01*
X106099999Y-151652797D01*
X106110500Y-151550009D01*
X106110499Y-149949992D01*
X106109171Y-149936995D01*
X106099999Y-149847202D01*
X106044814Y-149680665D01*
X105952711Y-149531343D01*
X105952706Y-149531337D01*
X105828662Y-149407293D01*
X105828653Y-149407286D01*
X105679335Y-149315186D01*
X105679326Y-149315182D01*
X105677864Y-149314698D01*
X105676990Y-149314093D01*
X105672680Y-149312083D01*
X105673023Y-149311346D01*
X105619493Y-149274283D01*
X105592239Y-149208726D01*
X105591500Y-149195095D01*
X105591500Y-148304904D01*
X105611502Y-148236783D01*
X105665158Y-148190290D01*
X105677864Y-148185300D01*
X105679334Y-148184814D01*
X105828656Y-148092712D01*
X105952712Y-147968656D01*
X106044814Y-147819334D01*
X106099999Y-147652797D01*
X106110500Y-147550009D01*
X106110499Y-145949992D01*
X106107920Y-145924749D01*
X106099999Y-145847202D01*
X106044814Y-145680665D01*
X105971391Y-145561628D01*
X105952712Y-145531344D01*
X105952711Y-145531343D01*
X105952706Y-145531337D01*
X105828662Y-145407293D01*
X105828656Y-145407288D01*
X105679334Y-145315185D01*
X105512803Y-145260002D01*
X105512791Y-145260000D01*
X105410017Y-145249500D01*
X104009990Y-145249500D01*
X103907202Y-145260000D01*
X103740665Y-145315185D01*
X103591343Y-145407288D01*
X103591337Y-145407293D01*
X103467293Y-145531337D01*
X103467288Y-145531343D01*
X103375185Y-145680665D01*
X103320002Y-145847196D01*
X103320000Y-145847208D01*
X103309500Y-145949982D01*
X103309500Y-147550009D01*
X103320000Y-147652797D01*
X103375185Y-147819334D01*
X103467288Y-147968656D01*
X103467293Y-147968662D01*
X103591337Y-148092706D01*
X103591343Y-148092711D01*
X103591344Y-148092712D01*
X103740666Y-148184814D01*
X103742129Y-148185298D01*
X103743005Y-148185905D01*
X103747311Y-148187913D01*
X103746967Y-148188648D01*
X103800501Y-148225709D01*
X103827760Y-148291264D01*
X103828500Y-148304904D01*
X103828500Y-149195095D01*
X103808498Y-149263216D01*
X103754842Y-149309709D01*
X103742136Y-149314698D01*
X103740673Y-149315182D01*
X103740664Y-149315186D01*
X103591346Y-149407286D01*
X103591337Y-149407293D01*
X103467293Y-149531337D01*
X103467288Y-149531343D01*
X103378376Y-149675494D01*
X103375186Y-149680666D01*
X103333277Y-149807136D01*
X103292866Y-149865504D01*
X103227309Y-149892760D01*
X103213675Y-149893500D01*
X102345635Y-149893500D01*
X102306008Y-149887105D01*
X102147708Y-149834651D01*
X102147703Y-149834650D01*
X102147702Y-149834650D01*
X102048353Y-149824500D01*
X101451654Y-149824500D01*
X101352297Y-149834650D01*
X101352294Y-149834650D01*
X101352292Y-149834651D01*
X101193991Y-149887105D01*
X101154365Y-149893500D01*
X100913175Y-149893500D01*
X100742875Y-149927376D01*
X100742872Y-149927377D01*
X100582453Y-149993825D01*
X100453113Y-150080246D01*
X100453080Y-150080269D01*
X100451206Y-150081522D01*
X100438076Y-150090295D01*
X100435160Y-150093210D01*
X100426969Y-150099126D01*
X100402638Y-150107727D01*
X100379989Y-150120095D01*
X100362262Y-150122000D01*
X100360032Y-150122789D01*
X100358432Y-150122412D01*
X100353206Y-150122974D01*
X98212847Y-150122974D01*
X98144726Y-150102972D01*
X98123752Y-150086069D01*
X97918405Y-149880722D01*
X97884379Y-149818410D01*
X97881500Y-149791627D01*
X97881500Y-145163180D01*
X97880490Y-145158106D01*
X97880487Y-145158091D01*
X97876112Y-145136095D01*
X97847624Y-144992876D01*
X97781175Y-144832453D01*
X97684706Y-144688076D01*
X97684704Y-144688074D01*
X97684699Y-144688068D01*
X94311931Y-141315300D01*
X94311925Y-141315295D01*
X94286557Y-141298345D01*
X94167547Y-141218825D01*
X94164462Y-141217547D01*
X94007127Y-141152377D01*
X94007124Y-141152376D01*
X93836824Y-141118500D01*
X93836821Y-141118500D01*
X93836820Y-141118500D01*
X83617320Y-141118500D01*
X83549199Y-141098498D01*
X83528224Y-141081595D01*
X82918404Y-140471774D01*
X82884379Y-140409462D01*
X82881500Y-140382679D01*
X82881500Y-138982500D01*
X82901502Y-138914379D01*
X82955158Y-138867886D01*
X83007500Y-138856500D01*
X84561819Y-138856500D01*
X84561820Y-138856500D01*
X84579813Y-138852921D01*
X84604395Y-138850500D01*
X84804183Y-138850500D01*
X84804182Y-138850499D01*
X84902685Y-138840436D01*
X85062287Y-138787549D01*
X85205391Y-138699281D01*
X85324281Y-138580391D01*
X85412549Y-138437287D01*
X85465436Y-138277685D01*
X85475499Y-138179182D01*
X85475500Y-138179182D01*
X85475500Y-137645817D01*
X85469030Y-137582497D01*
X85465436Y-137547315D01*
X85454659Y-137514793D01*
X85412550Y-137387716D01*
X85412549Y-137387715D01*
X85412549Y-137387713D01*
X85324281Y-137244609D01*
X85293766Y-137214094D01*
X85291181Y-137209360D01*
X85286678Y-137206391D01*
X85274346Y-137178529D01*
X85259742Y-137151785D01*
X85260126Y-137146403D01*
X85257943Y-137141470D01*
X85262632Y-137111358D01*
X85264806Y-137080969D01*
X85268260Y-137075222D01*
X85268869Y-137071319D01*
X85280884Y-137054228D01*
X85288611Y-137041378D01*
X85291104Y-137038567D01*
X85324281Y-137005391D01*
X85332815Y-136991554D01*
X85340070Y-136983378D01*
X85361271Y-136970100D01*
X85379869Y-136953374D01*
X85392600Y-136950480D01*
X85400241Y-136945696D01*
X85412998Y-136945845D01*
X85434321Y-136941000D01*
X86060729Y-136941000D01*
X86128850Y-136961002D01*
X86167969Y-137000852D01*
X86177031Y-137015544D01*
X86296949Y-137135462D01*
X86296955Y-137135467D01*
X86296956Y-137135468D01*
X86441303Y-137224503D01*
X86602292Y-137277849D01*
X86701655Y-137288000D01*
X87298344Y-137287999D01*
X87298345Y-137287999D01*
X87318216Y-137285969D01*
X87397708Y-137277849D01*
X87558697Y-137224503D01*
X87703044Y-137135468D01*
X87822968Y-137015544D01*
X87847246Y-136976181D01*
X87900030Y-136928706D01*
X87908667Y-136924956D01*
X87919007Y-136920919D01*
X87951557Y-136914445D01*
X88077311Y-136862356D01*
X88077414Y-136862287D01*
X88190487Y-136786735D01*
X88524318Y-136452903D01*
X88551684Y-136437960D01*
X88577914Y-136421104D01*
X88584215Y-136420197D01*
X88586629Y-136418880D01*
X88613412Y-136416000D01*
X88623647Y-136416000D01*
X88691768Y-136436002D01*
G37*
%TD.AperFunction*%
%TA.AperFunction,Conductor*%
G36*
X129469011Y-147166334D02*
G01*
X129475594Y-147172464D01*
X134932095Y-152628964D01*
X134966121Y-152691276D01*
X134969000Y-152718059D01*
X134969000Y-161768531D01*
X134948998Y-161836652D01*
X134917061Y-161870467D01*
X134780205Y-161969898D01*
X134780202Y-161969900D01*
X134629900Y-162120202D01*
X134629898Y-162120205D01*
X134504949Y-162292183D01*
X134502265Y-162297451D01*
X134453516Y-162349065D01*
X134384600Y-162366129D01*
X134317399Y-162343226D01*
X134277735Y-162297451D01*
X134275050Y-162292183D01*
X134177176Y-162157470D01*
X134150104Y-162120208D01*
X134150101Y-162120205D01*
X134150099Y-162120202D01*
X133999797Y-161969900D01*
X133999794Y-161969898D01*
X133999793Y-161969897D01*
X133999792Y-161969896D01*
X133862939Y-161870467D01*
X133819585Y-161814245D01*
X133811000Y-161768531D01*
X133811000Y-153801941D01*
X133810999Y-153801938D01*
X133807479Y-153784243D01*
X133784445Y-153668443D01*
X133732356Y-153542689D01*
X133719179Y-153522968D01*
X133694246Y-153485652D01*
X133694246Y-153485653D01*
X133656735Y-153429514D01*
X133656730Y-153429508D01*
X129212905Y-148985683D01*
X129178879Y-148923371D01*
X129176000Y-148896588D01*
X129176000Y-148564387D01*
X129193546Y-148500249D01*
X129212681Y-148467894D01*
X129257654Y-148313098D01*
X129260500Y-148276935D01*
X129260499Y-147261558D01*
X129280501Y-147193438D01*
X129334157Y-147146945D01*
X129404431Y-147136841D01*
X129469011Y-147166334D01*
G37*
%TD.AperFunction*%
%TA.AperFunction,Conductor*%
G36*
X133929709Y-143911002D02*
G01*
X133950683Y-143927905D01*
X142552095Y-152529317D01*
X142586121Y-152591629D01*
X142589000Y-152618412D01*
X142589000Y-161768531D01*
X142568998Y-161836652D01*
X142537061Y-161870467D01*
X142400205Y-161969898D01*
X142400202Y-161969900D01*
X142249900Y-162120202D01*
X142249898Y-162120205D01*
X142124949Y-162292183D01*
X142122265Y-162297451D01*
X142073516Y-162349065D01*
X142004600Y-162366129D01*
X141937399Y-162343226D01*
X141897735Y-162297451D01*
X141895050Y-162292183D01*
X141797176Y-162157470D01*
X141770104Y-162120208D01*
X141770101Y-162120205D01*
X141770099Y-162120202D01*
X141619797Y-161969900D01*
X141619794Y-161969898D01*
X141619793Y-161969897D01*
X141619792Y-161969896D01*
X141482939Y-161870467D01*
X141439585Y-161814245D01*
X141431000Y-161768531D01*
X141431000Y-152671946D01*
X141431000Y-152671942D01*
X141408223Y-152557439D01*
X141408223Y-152557436D01*
X141404445Y-152538444D01*
X141404445Y-152538442D01*
X141352356Y-152412688D01*
X141276735Y-152299513D01*
X133083317Y-144106095D01*
X133049291Y-144043783D01*
X133054356Y-143972968D01*
X133096903Y-143916132D01*
X133163423Y-143891321D01*
X133172412Y-143891000D01*
X133861588Y-143891000D01*
X133929709Y-143911002D01*
G37*
%TD.AperFunction*%
%TA.AperFunction,Conductor*%
G36*
X135729709Y-142711002D02*
G01*
X135750683Y-142727905D01*
X145092095Y-152069317D01*
X145126121Y-152131629D01*
X145129000Y-152158412D01*
X145129000Y-161768531D01*
X145108998Y-161836652D01*
X145077061Y-161870467D01*
X144940205Y-161969898D01*
X144940202Y-161969900D01*
X144789900Y-162120202D01*
X144789898Y-162120205D01*
X144664949Y-162292183D01*
X144662265Y-162297451D01*
X144613516Y-162349065D01*
X144544600Y-162366129D01*
X144477399Y-162343226D01*
X144437735Y-162297451D01*
X144435050Y-162292183D01*
X144337176Y-162157470D01*
X144310104Y-162120208D01*
X144310101Y-162120205D01*
X144310099Y-162120202D01*
X144159797Y-161969900D01*
X144159794Y-161969898D01*
X144159793Y-161969897D01*
X144159792Y-161969896D01*
X144022939Y-161870467D01*
X143979585Y-161814245D01*
X143971000Y-161768531D01*
X143971000Y-152211941D01*
X143970999Y-152211938D01*
X143969055Y-152202165D01*
X143944445Y-152078443D01*
X143892356Y-151952689D01*
X143883317Y-151939161D01*
X143882603Y-151938093D01*
X143867219Y-151915068D01*
X143816735Y-151839513D01*
X143816730Y-151839508D01*
X143816728Y-151839505D01*
X134883317Y-142906095D01*
X134849291Y-142843783D01*
X134854356Y-142772968D01*
X134896903Y-142716132D01*
X134963423Y-142691321D01*
X134972412Y-142691000D01*
X135661588Y-142691000D01*
X135729709Y-142711002D01*
G37*
%TD.AperFunction*%
%TA.AperFunction,Conductor*%
G36*
X77618690Y-153266502D02*
G01*
X77639664Y-153283404D01*
X77947412Y-153591151D01*
X77981437Y-153653464D01*
X77981896Y-153655664D01*
X77994249Y-153717767D01*
X77994250Y-153717771D01*
X77994251Y-153717772D01*
X78057824Y-153871252D01*
X78059081Y-153873603D01*
X78059366Y-153874975D01*
X78060195Y-153876975D01*
X78059815Y-153877132D01*
X78073553Y-153943109D01*
X78048150Y-154009405D01*
X77990937Y-154051444D01*
X77947959Y-154059000D01*
X74353927Y-154059000D01*
X74285806Y-154038998D01*
X74239313Y-153985342D01*
X74229209Y-153915068D01*
X74230349Y-153908412D01*
X74231587Y-153902189D01*
X74238000Y-153831613D01*
X74238000Y-153650973D01*
X74245690Y-153624781D01*
X74249772Y-153597795D01*
X74256753Y-153587103D01*
X74258002Y-153582852D01*
X74269375Y-153567774D01*
X74281522Y-153553961D01*
X74286998Y-153548122D01*
X74551718Y-153283402D01*
X74614028Y-153249379D01*
X74640811Y-153246500D01*
X77550569Y-153246500D01*
X77618690Y-153266502D01*
G37*
%TD.AperFunction*%
%TA.AperFunction,Conductor*%
G36*
X76293260Y-150461002D02*
G01*
X76314234Y-150477904D01*
X76666925Y-150830595D01*
X76850735Y-151014404D01*
X76884760Y-151076717D01*
X76879696Y-151147532D01*
X76837149Y-151204368D01*
X76770629Y-151229179D01*
X76761640Y-151229500D01*
X74658912Y-151229500D01*
X74590791Y-151209498D01*
X74569816Y-151192595D01*
X74274904Y-150897682D01*
X74261169Y-150872528D01*
X74244688Y-150849091D01*
X74243091Y-150839421D01*
X74240879Y-150835370D01*
X74238109Y-150813836D01*
X74238000Y-150811221D01*
X74238000Y-150668384D01*
X74231586Y-150597804D01*
X74228717Y-150588599D01*
X74228036Y-150572249D01*
X74234346Y-150546893D01*
X74236674Y-150520873D01*
X74242778Y-150513013D01*
X74245183Y-150503354D01*
X74264199Y-150485435D01*
X74280225Y-150464804D01*
X74289610Y-150461492D01*
X74296855Y-150454666D01*
X74322539Y-150449873D01*
X74347176Y-150441181D01*
X74353927Y-150441000D01*
X76225139Y-150441000D01*
X76293260Y-150461002D01*
G37*
%TD.AperFunction*%
%TA.AperFunction,Conductor*%
G36*
X78562275Y-148211002D02*
G01*
X78583249Y-148227905D01*
X80770624Y-150415280D01*
X80804650Y-150477592D01*
X80799585Y-150548407D01*
X80757038Y-150605243D01*
X80706111Y-150627953D01*
X80675204Y-150634101D01*
X80628245Y-150643442D01*
X80628240Y-150643444D01*
X80474756Y-150707019D01*
X80332310Y-150802199D01*
X80264557Y-150823414D01*
X80196090Y-150804631D01*
X80173213Y-150786529D01*
X79558953Y-150172269D01*
X79558952Y-150172268D01*
X79558949Y-150172265D01*
X79445773Y-150096644D01*
X79409263Y-150081521D01*
X79320022Y-150044556D01*
X79320019Y-150044555D01*
X79251442Y-150030914D01*
X79186523Y-150018000D01*
X79186520Y-150018000D01*
X77860964Y-150018000D01*
X77792843Y-149997998D01*
X77771868Y-149981095D01*
X77396933Y-149606160D01*
X77004039Y-149213265D01*
X76890863Y-149137644D01*
X76765112Y-149085556D01*
X76765109Y-149085555D01*
X76631613Y-149059000D01*
X76631610Y-149059000D01*
X74388412Y-149059000D01*
X74358494Y-149050215D01*
X74328025Y-149043587D01*
X74322930Y-149039772D01*
X74320291Y-149038998D01*
X74299315Y-149022094D01*
X74268967Y-148991745D01*
X74234943Y-148929432D01*
X74232581Y-148891249D01*
X74236284Y-148850499D01*
X74238000Y-148831616D01*
X74238000Y-148317000D01*
X74258002Y-148248879D01*
X74311658Y-148202386D01*
X74364000Y-148191000D01*
X78494154Y-148191000D01*
X78562275Y-148211002D01*
G37*
%TD.AperFunction*%
%TA.AperFunction,Conductor*%
G36*
X77488301Y-142401502D02*
G01*
X77509275Y-142418405D01*
X79787595Y-144696725D01*
X79821621Y-144759037D01*
X79824500Y-144785820D01*
X79824500Y-145298345D01*
X79834650Y-145397704D01*
X79834650Y-145397706D01*
X79834651Y-145397708D01*
X79887103Y-145556000D01*
X79887998Y-145558699D01*
X79962240Y-145679063D01*
X79981000Y-145745210D01*
X79981000Y-147269321D01*
X79996079Y-147345126D01*
X79998500Y-147369707D01*
X79998500Y-147384521D01*
X79978498Y-147452642D01*
X79924842Y-147499135D01*
X79854568Y-147509239D01*
X79789988Y-147479745D01*
X79783405Y-147473616D01*
X79273060Y-146963271D01*
X79273054Y-146963266D01*
X79264228Y-146957369D01*
X79159877Y-146887644D01*
X79034123Y-146835555D01*
X79008569Y-146830472D01*
X79008565Y-146830471D01*
X78900627Y-146809000D01*
X78900624Y-146809000D01*
X74256640Y-146809000D01*
X74188519Y-146788998D01*
X74142026Y-146735342D01*
X74131922Y-146665068D01*
X74148811Y-146617816D01*
X74180978Y-146564606D01*
X74231586Y-146402196D01*
X74238000Y-146331616D01*
X74238000Y-145668384D01*
X74231586Y-145597804D01*
X74180978Y-145435394D01*
X74092972Y-145289815D01*
X74092971Y-145289814D01*
X74092967Y-145289809D01*
X73972685Y-145169527D01*
X73966686Y-145164827D01*
X73968733Y-145162213D01*
X73930894Y-145120829D01*
X73918920Y-145050850D01*
X73939304Y-144995449D01*
X73972413Y-144945899D01*
X74035990Y-144792410D01*
X74068401Y-144629467D01*
X74068401Y-144463331D01*
X74043617Y-144338731D01*
X74049945Y-144268018D01*
X74078101Y-144225055D01*
X74092972Y-144210185D01*
X74180978Y-144064606D01*
X74231586Y-143902196D01*
X74238000Y-143831616D01*
X74238000Y-143168384D01*
X74231586Y-143097804D01*
X74182908Y-142941588D01*
X74180979Y-142935397D01*
X74180978Y-142935396D01*
X74180978Y-142935394D01*
X74092972Y-142789815D01*
X74092971Y-142789814D01*
X74092967Y-142789809D01*
X73972690Y-142669532D01*
X73972685Y-142669528D01*
X73914568Y-142634395D01*
X73883026Y-142615327D01*
X73835079Y-142562969D01*
X73823049Y-142492999D01*
X73850758Y-142427633D01*
X73909408Y-142387624D01*
X73948212Y-142381500D01*
X77420180Y-142381500D01*
X77488301Y-142401502D01*
G37*
%TD.AperFunction*%
%TA.AperFunction,Conductor*%
G36*
X114540428Y-124728699D02*
G01*
X114586921Y-124782355D01*
X114597025Y-124852629D01*
X114580761Y-124898836D01*
X114575756Y-124907298D01*
X114529901Y-125065128D01*
X114529901Y-125065129D01*
X114527000Y-125102003D01*
X114527000Y-126883390D01*
X114529902Y-126920269D01*
X114531057Y-126926591D01*
X114529419Y-126926890D01*
X114529240Y-126989682D01*
X114497541Y-127042933D01*
X111963268Y-129577205D01*
X111963265Y-129577209D01*
X111914636Y-129649990D01*
X111914635Y-129649991D01*
X111887644Y-129690385D01*
X111835556Y-129816136D01*
X111835555Y-129816139D01*
X111809000Y-129949635D01*
X111809000Y-135335758D01*
X111835555Y-135469254D01*
X111835556Y-135469257D01*
X111854797Y-135515708D01*
X111887644Y-135595008D01*
X111963266Y-135708184D01*
X112059513Y-135804431D01*
X112102527Y-135833172D01*
X112121620Y-135848842D01*
X113309514Y-137036735D01*
X113394469Y-137093500D01*
X113422689Y-137112356D01*
X113548443Y-137164445D01*
X113681942Y-137191000D01*
X116368892Y-137191000D01*
X116502391Y-137164445D01*
X116628145Y-137112356D01*
X116656365Y-137093500D01*
X116741321Y-137036735D01*
X117631735Y-136146321D01*
X117707356Y-136033145D01*
X117710886Y-136024623D01*
X117755433Y-135969342D01*
X117822796Y-135946920D01*
X117891434Y-135964386D01*
X117904840Y-135972315D01*
X117954598Y-136001742D01*
X117954602Y-136001744D01*
X118112431Y-136047598D01*
X118149306Y-136050500D01*
X118149307Y-136050500D01*
X118580693Y-136050500D01*
X118580694Y-136050500D01*
X118617569Y-136047598D01*
X118775398Y-136001744D01*
X118916865Y-135918081D01*
X118916872Y-135918073D01*
X118922775Y-135913496D01*
X118988861Y-135887550D01*
X119058484Y-135901452D01*
X119077225Y-135913496D01*
X119083131Y-135918077D01*
X119083135Y-135918081D01*
X119083139Y-135918083D01*
X119083140Y-135918084D01*
X119224598Y-136001742D01*
X119224599Y-136001742D01*
X119224602Y-136001744D01*
X119382431Y-136047598D01*
X119419306Y-136050500D01*
X119419307Y-136050500D01*
X119850693Y-136050500D01*
X119850694Y-136050500D01*
X119887569Y-136047598D01*
X120045398Y-136001744D01*
X120186865Y-135918081D01*
X120186872Y-135918073D01*
X120192775Y-135913496D01*
X120258861Y-135887550D01*
X120328484Y-135901452D01*
X120347225Y-135913496D01*
X120353131Y-135918077D01*
X120353135Y-135918081D01*
X120353139Y-135918083D01*
X120353140Y-135918084D01*
X120494598Y-136001742D01*
X120494599Y-136001742D01*
X120494602Y-136001744D01*
X120652431Y-136047598D01*
X120689306Y-136050500D01*
X120689307Y-136050500D01*
X121120693Y-136050500D01*
X121120694Y-136050500D01*
X121157569Y-136047598D01*
X121315398Y-136001744D01*
X121456865Y-135918081D01*
X121456872Y-135918073D01*
X121462775Y-135913496D01*
X121528861Y-135887550D01*
X121598484Y-135901452D01*
X121617225Y-135913496D01*
X121623131Y-135918077D01*
X121623135Y-135918081D01*
X121623139Y-135918083D01*
X121623140Y-135918084D01*
X121764598Y-136001742D01*
X121764599Y-136001742D01*
X121764602Y-136001744D01*
X121913686Y-136045057D01*
X121973522Y-136083270D01*
X122003199Y-136147766D01*
X121993296Y-136218069D01*
X121967628Y-136255149D01*
X120368271Y-137854505D01*
X120368266Y-137854511D01*
X120292644Y-137967688D01*
X120240556Y-138093439D01*
X120240555Y-138093442D01*
X120214000Y-138226938D01*
X120214000Y-138583000D01*
X120193998Y-138651121D01*
X120140342Y-138697614D01*
X120088000Y-138709000D01*
X117531938Y-138709000D01*
X117406260Y-138734000D01*
X117406259Y-138733999D01*
X117398450Y-138735553D01*
X117398445Y-138735554D01*
X117272688Y-138787644D01*
X117159515Y-138863264D01*
X117159507Y-138863270D01*
X116558269Y-139464508D01*
X116558264Y-139464514D01*
X116482644Y-139577688D01*
X116430556Y-139703439D01*
X116430555Y-139703442D01*
X116404000Y-139836938D01*
X116404000Y-140202418D01*
X116386454Y-140266556D01*
X116343256Y-140339599D01*
X116297401Y-140497431D01*
X116297401Y-140497432D01*
X116294500Y-140534306D01*
X116294500Y-141795600D01*
X116274498Y-141863721D01*
X116220842Y-141910214D01*
X116168500Y-141921600D01*
X115481500Y-141921600D01*
X115413379Y-141901598D01*
X115366886Y-141847942D01*
X115355500Y-141795600D01*
X115355500Y-140534306D01*
X115352598Y-140497432D01*
X115352598Y-140497431D01*
X115319259Y-140382679D01*
X115306744Y-140339602D01*
X115306742Y-140339598D01*
X115223082Y-140198136D01*
X115223076Y-140198129D01*
X115106870Y-140081923D01*
X115106863Y-140081917D01*
X114965401Y-139998257D01*
X114807568Y-139952401D01*
X114773595Y-139949728D01*
X114770694Y-139949500D01*
X114339306Y-139949500D01*
X114336405Y-139949728D01*
X114302432Y-139952401D01*
X114302431Y-139952401D01*
X114144598Y-139998257D01*
X114003136Y-140081917D01*
X114003129Y-140081923D01*
X113886923Y-140198129D01*
X113886917Y-140198136D01*
X113803257Y-140339598D01*
X113780435Y-140418153D01*
X113742222Y-140477988D01*
X113677726Y-140507666D01*
X113659438Y-140509000D01*
X113023841Y-140509000D01*
X112955720Y-140488998D01*
X112918235Y-140446080D01*
X112915855Y-140447549D01*
X112912003Y-140441305D01*
X112912003Y-140441303D01*
X112822968Y-140296956D01*
X112822967Y-140296955D01*
X112822962Y-140296949D01*
X112752905Y-140226892D01*
X112718879Y-140164580D01*
X112716000Y-140137797D01*
X112716000Y-139756941D01*
X112715999Y-139756938D01*
X112689445Y-139623443D01*
X112649872Y-139527905D01*
X112637358Y-139497693D01*
X112637355Y-139497688D01*
X112632889Y-139491002D01*
X112561738Y-139384518D01*
X112561736Y-139384516D01*
X112561735Y-139384514D01*
X111315487Y-138138265D01*
X111202311Y-138062644D01*
X111076560Y-138010556D01*
X111076557Y-138010555D01*
X110943061Y-137984000D01*
X110943058Y-137984000D01*
X104329500Y-137984000D01*
X104261379Y-137963998D01*
X104214886Y-137910342D01*
X104203500Y-137858000D01*
X104203500Y-132868608D01*
X104223502Y-132800487D01*
X104240405Y-132779513D01*
X112274316Y-124745602D01*
X112336628Y-124711576D01*
X112363411Y-124708697D01*
X114472307Y-124708697D01*
X114540428Y-124728699D01*
G37*
%TD.AperFunction*%
%TA.AperFunction,Conductor*%
G36*
X115448315Y-128150768D02*
G01*
X115505151Y-128193315D01*
X115529962Y-128259835D01*
X115529631Y-128281630D01*
X115524500Y-128331852D01*
X115524500Y-128878542D01*
X115534650Y-128977901D01*
X115534650Y-128977903D01*
X115534651Y-128977905D01*
X115587997Y-129138894D01*
X115671126Y-129273666D01*
X115677032Y-129283241D01*
X115677037Y-129283247D01*
X115796949Y-129403159D01*
X115796955Y-129403164D01*
X115796956Y-129403165D01*
X115941303Y-129492200D01*
X116102292Y-129545546D01*
X116201655Y-129555697D01*
X116798344Y-129555696D01*
X116798345Y-129555696D01*
X116812538Y-129554246D01*
X116897708Y-129545546D01*
X117010870Y-129508047D01*
X117081822Y-129505608D01*
X117142832Y-129541916D01*
X117174527Y-129605445D01*
X117176500Y-129627653D01*
X117176500Y-130594088D01*
X117156498Y-130662209D01*
X117139595Y-130683183D01*
X116350683Y-131472095D01*
X116288371Y-131506121D01*
X116261588Y-131509000D01*
X115331938Y-131509000D01*
X115217440Y-131531775D01*
X115217439Y-131531776D01*
X115204774Y-131534295D01*
X115198441Y-131535555D01*
X115072687Y-131587644D01*
X114959517Y-131663262D01*
X114959515Y-131663263D01*
X114018264Y-132604513D01*
X113952421Y-132703057D01*
X113952419Y-132703059D01*
X113942645Y-132717685D01*
X113890556Y-132843439D01*
X113890555Y-132843442D01*
X113864000Y-132976938D01*
X113864000Y-133702418D01*
X113846454Y-133766556D01*
X113803256Y-133839599D01*
X113757401Y-133997431D01*
X113757401Y-133997432D01*
X113754500Y-134034306D01*
X113754500Y-135223088D01*
X113734498Y-135291209D01*
X113680842Y-135337702D01*
X113610568Y-135347806D01*
X113545988Y-135318312D01*
X113539405Y-135312183D01*
X113227905Y-135000683D01*
X113193879Y-134938371D01*
X113191000Y-134911588D01*
X113191000Y-130356108D01*
X113211002Y-130287987D01*
X113227905Y-130267013D01*
X114264213Y-129230705D01*
X115315190Y-128179727D01*
X115377500Y-128145704D01*
X115448315Y-128150768D01*
G37*
%TD.AperFunction*%
%TA.AperFunction,Conductor*%
G36*
X118724125Y-129503076D02*
G01*
X118783498Y-129522750D01*
X118852285Y-129545544D01*
X118852286Y-129545544D01*
X118852292Y-129545546D01*
X118951655Y-129555697D01*
X119548344Y-129555696D01*
X119548351Y-129555696D01*
X119577693Y-129552698D01*
X119647494Y-129565672D01*
X119699200Y-129614324D01*
X119716500Y-129678045D01*
X119716500Y-131193890D01*
X119696498Y-131262011D01*
X119679595Y-131282985D01*
X117986618Y-132975961D01*
X117967527Y-132991630D01*
X117924512Y-133020372D01*
X117924505Y-133020378D01*
X117828270Y-133116613D01*
X117828265Y-133116619D01*
X117752644Y-133229795D01*
X117700556Y-133355545D01*
X117700553Y-133355554D01*
X117689299Y-133412129D01*
X117656391Y-133475038D01*
X117594695Y-133510168D01*
X117523800Y-133506367D01*
X117512758Y-133501214D01*
X117512676Y-133501405D01*
X117505401Y-133498257D01*
X117347568Y-133452401D01*
X117313595Y-133449728D01*
X117310694Y-133449500D01*
X116879306Y-133449500D01*
X116876405Y-133449728D01*
X116842432Y-133452401D01*
X116842431Y-133452401D01*
X116684598Y-133498257D01*
X116543134Y-133581919D01*
X116537219Y-133586507D01*
X116471132Y-133612449D01*
X116401511Y-133598544D01*
X116382781Y-133586507D01*
X116376865Y-133581919D01*
X116235401Y-133498257D01*
X116077568Y-133452401D01*
X116043595Y-133449728D01*
X116040694Y-133449500D01*
X115609306Y-133449500D01*
X115606405Y-133449728D01*
X115572432Y-133452401D01*
X115572431Y-133452401D01*
X115412775Y-133498786D01*
X115341778Y-133498583D01*
X115282162Y-133460029D01*
X115252854Y-133395364D01*
X115263158Y-133325119D01*
X115288522Y-133288699D01*
X115649319Y-132927902D01*
X115711629Y-132893879D01*
X115738412Y-132891000D01*
X116668058Y-132891000D01*
X116801557Y-132864445D01*
X116927311Y-132812356D01*
X117040487Y-132736735D01*
X118404235Y-131372986D01*
X118479856Y-131259811D01*
X118531945Y-131134057D01*
X118550083Y-131042872D01*
X118558500Y-131000558D01*
X118558500Y-129622682D01*
X118578502Y-129554561D01*
X118632158Y-129508068D01*
X118702432Y-129497964D01*
X118724125Y-129503076D01*
G37*
%TD.AperFunction*%
%TA.AperFunction,Conductor*%
G36*
X122436709Y-129273666D02*
G01*
X122481772Y-129302627D01*
X122520247Y-129341102D01*
X122554273Y-129403414D01*
X122549208Y-129474229D01*
X122520247Y-129519292D01*
X122419532Y-129620006D01*
X122419528Y-129620011D01*
X122331521Y-129765593D01*
X122331520Y-129765594D01*
X122280913Y-129928003D01*
X122274500Y-129998583D01*
X122274500Y-130511808D01*
X122280913Y-130582390D01*
X122331520Y-130744799D01*
X122331520Y-130744800D01*
X122331522Y-130744803D01*
X122354469Y-130782762D01*
X122372594Y-130851405D01*
X122350729Y-130918951D01*
X122335737Y-130937041D01*
X122000681Y-131272096D01*
X121938371Y-131306120D01*
X121911588Y-131309000D01*
X121431938Y-131309000D01*
X121298442Y-131335555D01*
X121298440Y-131335556D01*
X121272716Y-131346211D01*
X121202127Y-131353799D01*
X121138640Y-131322018D01*
X121102413Y-131260960D01*
X121098500Y-131229801D01*
X121098500Y-129681696D01*
X121118502Y-129613575D01*
X121172158Y-129567082D01*
X121224495Y-129555696D01*
X121798344Y-129555696D01*
X121798345Y-129555696D01*
X121818216Y-129553666D01*
X121897708Y-129545546D01*
X122058697Y-129492200D01*
X122203044Y-129403165D01*
X122303583Y-129302625D01*
X122365893Y-129268602D01*
X122436709Y-129273666D01*
G37*
%TD.AperFunction*%
%TD*%
M02*
