%TF.GenerationSoftware,KiCad,Pcbnew,9.0.1+1*%
%TF.CreationDate,2025-10-01T20:53:04+00:00*%
%TF.ProjectId,rcbus-opl3,72636275-732d-46f7-906c-332e6b696361,@version@*%
%TF.SameCoordinates,Original*%
%TF.FileFunction,Copper,L2,Bot*%
%TF.FilePolarity,Positive*%
%FSLAX46Y46*%
G04 Gerber Fmt 4.6, Leading zero omitted, Abs format (unit mm)*
G04 Created by KiCad (PCBNEW 9.0.1+1) date 2025-10-01 20:53:04*
%MOMM*%
%LPD*%
G01*
G04 APERTURE LIST*
%TA.AperFunction,ComponentPad*%
%ADD10R,2.500000X1.800000*%
%TD*%
%TA.AperFunction,ComponentPad*%
%ADD11R,1.800000X2.500000*%
%TD*%
%TA.AperFunction,ComponentPad*%
%ADD12R,1.700000X1.700000*%
%TD*%
%TA.AperFunction,ComponentPad*%
%ADD13C,1.700000*%
%TD*%
%TA.AperFunction,ComponentPad*%
%ADD14O,1.700000X1.700000*%
%TD*%
%TA.AperFunction,ViaPad*%
%ADD15C,0.685800*%
%TD*%
%TA.AperFunction,Conductor*%
%ADD16C,0.762000*%
%TD*%
%TA.AperFunction,Conductor*%
%ADD17C,0.381000*%
%TD*%
G04 APERTURE END LIST*
D10*
%TO.P,CON1,R*%
%TO.N,Net-(CON1-PadR)*%
X149069000Y-130095000D03*
%TO.P,CON1,RN*%
X149069000Y-127595000D03*
D11*
%TO.P,CON1,S*%
%TO.N,GND*%
X154069000Y-125095000D03*
D10*
%TO.P,CON1,T*%
%TO.N,Net-(CON1-PadT)*%
X149069000Y-120095000D03*
%TO.P,CON1,TN*%
X149069000Y-122595000D03*
%TD*%
D12*
%TO.P,JP1,1,Pin_1*%
%TO.N,Net-(JP1-Pin_1)*%
X65000000Y-156160000D03*
D13*
%TO.P,JP1,2,Pin_2*%
%TO.N,VCC*%
X62460000Y-156160000D03*
%TO.P,JP1,3,Pin_3*%
%TO.N,Net-(JP1-Pin_3)*%
X65000000Y-153620000D03*
%TO.P,JP1,4,Pin_4*%
%TO.N,VCC*%
X62460000Y-153620000D03*
%TO.P,JP1,5,Pin_5*%
%TO.N,Net-(JP1-Pin_5)*%
X65000000Y-151080000D03*
%TO.P,JP1,6,Pin_6*%
%TO.N,VCC*%
X62460000Y-151080000D03*
%TO.P,JP1,7,Pin_7*%
%TO.N,Net-(JP1-Pin_7)*%
X65000000Y-148540000D03*
%TO.P,JP1,8,Pin_8*%
%TO.N,VCC*%
X62460000Y-148540000D03*
%TO.P,JP1,9,Pin_9*%
%TO.N,Net-(JP1-Pin_9)*%
X65000000Y-146000000D03*
%TO.P,JP1,10,Pin_10*%
%TO.N,VCC*%
X62460000Y-146000000D03*
%TO.P,JP1,11,Pin_11*%
%TO.N,Net-(JP1-Pin_11)*%
X65000000Y-143460000D03*
%TO.P,JP1,12,Pin_12*%
%TO.N,VCC*%
X62460000Y-143460000D03*
%TD*%
D12*
%TO.P,P1,1,Pin_1*%
%TO.N,unconnected-(P1-Pin_1-Pad1)*%
X62000000Y-163000000D03*
D14*
%TO.P,P1,2,Pin_2*%
%TO.N,unconnected-(P1-Pin_2-Pad2)*%
X64540000Y-163000000D03*
%TO.P,P1,3,Pin_3*%
%TO.N,unconnected-(P1-Pin_3-Pad3)*%
X67080000Y-163000000D03*
%TO.P,P1,4,Pin_4*%
%TO.N,unconnected-(P1-Pin_4-Pad4)*%
X69620000Y-163000000D03*
%TO.P,P1,5,Pin_5*%
%TO.N,unconnected-(P1-Pin_5-Pad5)*%
X72160000Y-163000000D03*
%TO.P,P1,6,Pin_6*%
%TO.N,unconnected-(P1-Pin_6-Pad6)*%
X74700000Y-163000000D03*
%TO.P,P1,7,Pin_7*%
%TO.N,unconnected-(P1-Pin_7-Pad7)*%
X77240000Y-163000000D03*
%TO.P,P1,8,Pin_8*%
%TO.N,unconnected-(P1-Pin_8-Pad8)*%
X79780000Y-163000000D03*
%TO.P,P1,9,Pin_9*%
%TO.N,/A7*%
X82320000Y-163000000D03*
%TO.P,P1,10,Pin_10*%
%TO.N,/A6*%
X84860000Y-163000000D03*
%TO.P,P1,11,Pin_11*%
%TO.N,/A5*%
X87400000Y-163000000D03*
%TO.P,P1,12,Pin_12*%
%TO.N,/A4*%
X89940000Y-163000000D03*
%TO.P,P1,13,Pin_13*%
%TO.N,/A3*%
X92480000Y-163000000D03*
%TO.P,P1,14,Pin_14*%
%TO.N,/A2*%
X95020000Y-163000000D03*
%TO.P,P1,15,Pin_15*%
%TO.N,/A1*%
X97560000Y-163000000D03*
%TO.P,P1,16,Pin_16*%
%TO.N,/A0*%
X100100000Y-163000000D03*
%TO.P,P1,17,Pin_17*%
%TO.N,GND*%
X102640000Y-163000000D03*
%TO.P,P1,18,Pin_18*%
%TO.N,VCC*%
X105180000Y-163000000D03*
%TO.P,P1,19,Pin_19*%
%TO.N,unconnected-(P1-Pin_19-Pad19)*%
X107720000Y-163000000D03*
%TO.P,P1,20,Pin_20*%
%TO.N,/~{RESET}*%
X110260000Y-163000000D03*
%TO.P,P1,21,Pin_21*%
%TO.N,unconnected-(P1-Pin_21-Pad21)*%
X112800000Y-163000000D03*
%TO.P,P1,22,Pin_22*%
%TO.N,/~{INT}*%
X115340000Y-163000000D03*
%TO.P,P1,23,Pin_23*%
%TO.N,unconnected-(P1-Pin_23-Pad23)*%
X117880000Y-163000000D03*
%TO.P,P1,24,Pin_24*%
%TO.N,/~{WR}*%
X120420000Y-163000000D03*
%TO.P,P1,25,Pin_25*%
%TO.N,/~{RD}*%
X122960000Y-163000000D03*
%TO.P,P1,26,Pin_26*%
%TO.N,/~{IORQ}*%
X125500000Y-163000000D03*
%TO.P,P1,27,Pin_27*%
%TO.N,/D0*%
X128040000Y-163000000D03*
%TO.P,P1,28,Pin_28*%
%TO.N,/D1*%
X130580000Y-163000000D03*
%TO.P,P1,29,Pin_29*%
%TO.N,/D2*%
X133120000Y-163000000D03*
%TO.P,P1,30,Pin_30*%
%TO.N,/D3*%
X135660000Y-163000000D03*
%TO.P,P1,31,Pin_31*%
%TO.N,/D4*%
X138200000Y-163000000D03*
%TO.P,P1,32,Pin_32*%
%TO.N,/D5*%
X140740000Y-163000000D03*
%TO.P,P1,33,Pin_33*%
%TO.N,/D6*%
X143280000Y-163000000D03*
%TO.P,P1,34,Pin_34*%
%TO.N,/D7*%
X145820000Y-163000000D03*
%TO.P,P1,35,Pin_35*%
%TO.N,unconnected-(P1-Pin_35-Pad35)*%
X148360000Y-163000000D03*
%TO.P,P1,36,Pin_36*%
%TO.N,unconnected-(P1-Pin_36-Pad36)*%
X150900000Y-163000000D03*
%TO.P,P1,37,Pin_37*%
%TO.N,unconnected-(P1-Pin_37-Pad37)*%
X153440000Y-163000000D03*
%TO.P,P1,38,Pin_38*%
%TO.N,unconnected-(P1-Pin_38-Pad38)*%
X155980000Y-163000000D03*
%TO.P,P1,39,Pin_39*%
%TO.N,unconnected-(P1-Pin_39-Pad39)*%
X158520000Y-163000000D03*
%TD*%
D15*
%TO.N,VCC*%
X92212600Y-154250000D03*
X100722512Y-154075500D03*
%TO.N,GND*%
X76000000Y-153510000D03*
X76000000Y-143500000D03*
X144500000Y-157250000D03*
X121276187Y-131110261D03*
X109500000Y-141000000D03*
X87000000Y-139750000D03*
X139000000Y-125250000D03*
X97750000Y-157750000D03*
X142000000Y-157250000D03*
X82000000Y-134750000D03*
X96250000Y-134250000D03*
X61000000Y-155000000D03*
X117800000Y-116258122D03*
X128485000Y-158500000D03*
X76000000Y-156000000D03*
X101750000Y-148000000D03*
X76000000Y-148490000D03*
X116000000Y-160750000D03*
X115825000Y-139750000D03*
X119137499Y-122655196D03*
X109500000Y-156750000D03*
X83424718Y-145731499D03*
X78000000Y-145000000D03*
X119250001Y-131256115D03*
X61000000Y-150000000D03*
X120500000Y-116258122D03*
X138750000Y-135250000D03*
X115500000Y-130242697D03*
X61000000Y-160000000D03*
X61000000Y-145000000D03*
X132750000Y-151500000D03*
X92310001Y-158000000D03*
X90000000Y-140250000D03*
X76000000Y-146060000D03*
X76000000Y-151000000D03*
%TO.N,/~{IORQ}*%
X123800000Y-158500000D03*
X84770729Y-154688895D03*
%TO.N,/DAC_CLK*%
X117000000Y-144200000D03*
X119600000Y-142600000D03*
%TO.N,Net-(JP1-Pin_1)*%
X89856434Y-150522100D03*
X81368224Y-153118224D03*
%TO.N,Net-(JP1-Pin_9)*%
X85933864Y-152726900D03*
X85921125Y-154936700D03*
%TO.N,Net-(JP1-Pin_11)*%
X73225001Y-144546399D03*
X83420000Y-158250000D03*
%TO.N,Net-(JP1-Pin_3)*%
X78805238Y-153471756D03*
X90500000Y-149817600D03*
%TO.N,Net-(JP1-Pin_5)*%
X80874257Y-151454431D03*
X79176756Y-151880846D03*
%TD*%
D16*
%TO.N,VCC*%
X100596026Y-154250000D02*
X100722512Y-154123514D01*
X100722512Y-158542512D02*
X100722512Y-154075500D01*
X105180000Y-163000000D02*
X100722512Y-158542512D01*
X92212600Y-154250000D02*
X100596026Y-154250000D01*
X100722512Y-154123514D02*
X100722512Y-154075500D01*
D17*
%TO.N,/~{IORQ}*%
X86247277Y-155724100D02*
X85594973Y-155724100D01*
X123800000Y-158500000D02*
X118550000Y-153250000D01*
X85594973Y-155724100D02*
X84770729Y-154899856D01*
X84770729Y-154899856D02*
X84770729Y-154688895D01*
X88721377Y-153250000D02*
X86247277Y-155724100D01*
X118550000Y-153250000D02*
X88721377Y-153250000D01*
%TO.N,/DAC_CLK*%
X118000000Y-144200000D02*
X119600000Y-142600000D01*
X117000000Y-144200000D02*
X118000000Y-144200000D01*
%TO.N,Net-(JP1-Pin_1)*%
X83964348Y-150522100D02*
X89856434Y-150522100D01*
X81368224Y-153118224D02*
X83964348Y-150522100D01*
%TO.N,Net-(JP1-Pin_9)*%
X85921125Y-152739639D02*
X85921125Y-154936700D01*
X85933864Y-152726900D02*
X85921125Y-152739639D01*
%TO.N,Net-(JP1-Pin_11)*%
X73225001Y-154838553D02*
X76636448Y-158250000D01*
X73225001Y-144546399D02*
X73225001Y-154838553D01*
X76636448Y-158250000D02*
X83420000Y-158250000D01*
%TO.N,Net-(JP1-Pin_3)*%
X79946170Y-152330824D02*
X78805238Y-153471756D01*
X90500000Y-149817600D02*
X90417100Y-149734700D01*
X81257598Y-152330824D02*
X79946170Y-152330824D01*
X90417100Y-149734700D02*
X83853722Y-149734700D01*
X83853722Y-149734700D02*
X81257598Y-152330824D01*
%TO.N,Net-(JP1-Pin_5)*%
X79176756Y-151880846D02*
X79603171Y-151454431D01*
X79603171Y-151454431D02*
X80874257Y-151454431D01*
%TD*%
%TA.AperFunction,Conductor*%
%TO.N,GND*%
G36*
X155002611Y-114575608D02*
G01*
X155442760Y-114593812D01*
X155453109Y-114594669D01*
X155887674Y-114648838D01*
X155897938Y-114650551D01*
X156326544Y-114740420D01*
X156336612Y-114742969D01*
X156756351Y-114867931D01*
X156766183Y-114871307D01*
X156923625Y-114932741D01*
X157174138Y-115030492D01*
X157183675Y-115034675D01*
X157577094Y-115227006D01*
X157586252Y-115231962D01*
X157962439Y-115456120D01*
X157971158Y-115461816D01*
X158327560Y-115716282D01*
X158335767Y-115722669D01*
X158669954Y-116005712D01*
X158677602Y-116012754D01*
X158987245Y-116322397D01*
X158994288Y-116330046D01*
X159277327Y-116664229D01*
X159283717Y-116672439D01*
X159538183Y-117028841D01*
X159543879Y-117037560D01*
X159768037Y-117413747D01*
X159772993Y-117422905D01*
X159965324Y-117816324D01*
X159969507Y-117825861D01*
X160128689Y-118233807D01*
X160132071Y-118243657D01*
X160257026Y-118663373D01*
X160259582Y-118673468D01*
X160349447Y-119102057D01*
X160351161Y-119112329D01*
X160405328Y-119546876D01*
X160406188Y-119557254D01*
X160424392Y-119997388D01*
X160424500Y-120002595D01*
X160424500Y-121337500D01*
X160404498Y-121405621D01*
X160350842Y-121452114D01*
X160298500Y-121463500D01*
X159536531Y-121463500D01*
X159512000Y-121463500D01*
X159416102Y-121463500D01*
X159226667Y-121493503D01*
X159226664Y-121493503D01*
X159226663Y-121493504D01*
X159044259Y-121552771D01*
X158873363Y-121639847D01*
X158718197Y-121752582D01*
X158718194Y-121752584D01*
X158582584Y-121888194D01*
X158582582Y-121888197D01*
X158469847Y-122043363D01*
X158382771Y-122214259D01*
X158349423Y-122316893D01*
X158323503Y-122396667D01*
X158293500Y-122586102D01*
X158293500Y-122666982D01*
X158293500Y-127483469D01*
X158293500Y-127508000D01*
X158293500Y-127603898D01*
X158323503Y-127793333D01*
X158382772Y-127975742D01*
X158469845Y-128146633D01*
X158582580Y-128301800D01*
X158582582Y-128301802D01*
X158582584Y-128301805D01*
X158718194Y-128437415D01*
X158718197Y-128437417D01*
X158718200Y-128437420D01*
X158873367Y-128550155D01*
X159044258Y-128637228D01*
X159226667Y-128696497D01*
X159416102Y-128726500D01*
X159496982Y-128726500D01*
X160298500Y-128726500D01*
X160366621Y-128746502D01*
X160413114Y-128800158D01*
X160424500Y-128852500D01*
X160424500Y-164298500D01*
X160404498Y-164366621D01*
X160350842Y-164413114D01*
X160298500Y-164424500D01*
X159223820Y-164424500D01*
X159155699Y-164404498D01*
X159109206Y-164350842D01*
X159099102Y-164280568D01*
X159128596Y-164215988D01*
X159166615Y-164186234D01*
X159227816Y-164155051D01*
X159399792Y-164030104D01*
X159550104Y-163879792D01*
X159675051Y-163707816D01*
X159771557Y-163518412D01*
X159837246Y-163316243D01*
X159870500Y-163106287D01*
X159870500Y-162893713D01*
X159837246Y-162683757D01*
X159771557Y-162481588D01*
X159675051Y-162292184D01*
X159550104Y-162120208D01*
X159550101Y-162120205D01*
X159550099Y-162120202D01*
X159399797Y-161969900D01*
X159399794Y-161969898D01*
X159399792Y-161969896D01*
X159227816Y-161844949D01*
X159038412Y-161748443D01*
X158836243Y-161682754D01*
X158626287Y-161649500D01*
X158413713Y-161649500D01*
X158203757Y-161682754D01*
X158203754Y-161682754D01*
X158203753Y-161682755D01*
X158001588Y-161748443D01*
X158001586Y-161748444D01*
X157812180Y-161844951D01*
X157640205Y-161969898D01*
X157640202Y-161969900D01*
X157489900Y-162120202D01*
X157489898Y-162120205D01*
X157364949Y-162292183D01*
X157362265Y-162297451D01*
X157313516Y-162349065D01*
X157244600Y-162366129D01*
X157177399Y-162343226D01*
X157137735Y-162297451D01*
X157135050Y-162292183D01*
X157135048Y-162292180D01*
X157010104Y-162120208D01*
X157010101Y-162120205D01*
X157010099Y-162120202D01*
X156859797Y-161969900D01*
X156859794Y-161969898D01*
X156859792Y-161969896D01*
X156687816Y-161844949D01*
X156498412Y-161748443D01*
X156296243Y-161682754D01*
X156086287Y-161649500D01*
X155873713Y-161649500D01*
X155663757Y-161682754D01*
X155663754Y-161682754D01*
X155663753Y-161682755D01*
X155461588Y-161748443D01*
X155461586Y-161748444D01*
X155272180Y-161844951D01*
X155100205Y-161969898D01*
X155100202Y-161969900D01*
X154949900Y-162120202D01*
X154949898Y-162120205D01*
X154824949Y-162292183D01*
X154822265Y-162297451D01*
X154773516Y-162349065D01*
X154704600Y-162366129D01*
X154637399Y-162343226D01*
X154597735Y-162297451D01*
X154595050Y-162292183D01*
X154595048Y-162292180D01*
X154470104Y-162120208D01*
X154470101Y-162120205D01*
X154470099Y-162120202D01*
X154319797Y-161969900D01*
X154319794Y-161969898D01*
X154319792Y-161969896D01*
X154147816Y-161844949D01*
X153958412Y-161748443D01*
X153756243Y-161682754D01*
X153546287Y-161649500D01*
X153333713Y-161649500D01*
X153123757Y-161682754D01*
X153123754Y-161682754D01*
X153123753Y-161682755D01*
X152921588Y-161748443D01*
X152921586Y-161748444D01*
X152732180Y-161844951D01*
X152560205Y-161969898D01*
X152560202Y-161969900D01*
X152409900Y-162120202D01*
X152409898Y-162120205D01*
X152284949Y-162292183D01*
X152282265Y-162297451D01*
X152233516Y-162349065D01*
X152164600Y-162366129D01*
X152097399Y-162343226D01*
X152057735Y-162297451D01*
X152055050Y-162292183D01*
X152055048Y-162292180D01*
X151930104Y-162120208D01*
X151930101Y-162120205D01*
X151930099Y-162120202D01*
X151779797Y-161969900D01*
X151779794Y-161969898D01*
X151779792Y-161969896D01*
X151607816Y-161844949D01*
X151418412Y-161748443D01*
X151216243Y-161682754D01*
X151006287Y-161649500D01*
X150793713Y-161649500D01*
X150583757Y-161682754D01*
X150583754Y-161682754D01*
X150583753Y-161682755D01*
X150381588Y-161748443D01*
X150381586Y-161748444D01*
X150192180Y-161844951D01*
X150020205Y-161969898D01*
X150020202Y-161969900D01*
X149869900Y-162120202D01*
X149869898Y-162120205D01*
X149744949Y-162292183D01*
X149742265Y-162297451D01*
X149693516Y-162349065D01*
X149624600Y-162366129D01*
X149557399Y-162343226D01*
X149517735Y-162297451D01*
X149515050Y-162292183D01*
X149515048Y-162292180D01*
X149390104Y-162120208D01*
X149390101Y-162120205D01*
X149390099Y-162120202D01*
X149239797Y-161969900D01*
X149239794Y-161969898D01*
X149239792Y-161969896D01*
X149067816Y-161844949D01*
X148878412Y-161748443D01*
X148676243Y-161682754D01*
X148466287Y-161649500D01*
X148253713Y-161649500D01*
X148043757Y-161682754D01*
X148043754Y-161682754D01*
X148043753Y-161682755D01*
X147841588Y-161748443D01*
X147841586Y-161748444D01*
X147652180Y-161844951D01*
X147480205Y-161969898D01*
X147480202Y-161969900D01*
X147329900Y-162120202D01*
X147329898Y-162120205D01*
X147204949Y-162292183D01*
X147202265Y-162297451D01*
X147153516Y-162349065D01*
X147084600Y-162366129D01*
X147017399Y-162343226D01*
X146977735Y-162297451D01*
X146975050Y-162292183D01*
X146975048Y-162292180D01*
X146850104Y-162120208D01*
X146850101Y-162120205D01*
X146850099Y-162120202D01*
X146699797Y-161969900D01*
X146699794Y-161969898D01*
X146699792Y-161969896D01*
X146527816Y-161844949D01*
X146338412Y-161748443D01*
X146136243Y-161682754D01*
X145926287Y-161649500D01*
X145713713Y-161649500D01*
X145503757Y-161682754D01*
X145503754Y-161682754D01*
X145503753Y-161682755D01*
X145301588Y-161748443D01*
X145301586Y-161748444D01*
X145112180Y-161844951D01*
X144940205Y-161969898D01*
X144940202Y-161969900D01*
X144789900Y-162120202D01*
X144789898Y-162120205D01*
X144664949Y-162292183D01*
X144662265Y-162297451D01*
X144613516Y-162349065D01*
X144544600Y-162366129D01*
X144477399Y-162343226D01*
X144437735Y-162297451D01*
X144435050Y-162292183D01*
X144435048Y-162292180D01*
X144310104Y-162120208D01*
X144310101Y-162120205D01*
X144310099Y-162120202D01*
X144159797Y-161969900D01*
X144159794Y-161969898D01*
X144159792Y-161969896D01*
X143987816Y-161844949D01*
X143798412Y-161748443D01*
X143596243Y-161682754D01*
X143386287Y-161649500D01*
X143173713Y-161649500D01*
X142963757Y-161682754D01*
X142963754Y-161682754D01*
X142963753Y-161682755D01*
X142761588Y-161748443D01*
X142761586Y-161748444D01*
X142572180Y-161844951D01*
X142400205Y-161969898D01*
X142400202Y-161969900D01*
X142249900Y-162120202D01*
X142249898Y-162120205D01*
X142124949Y-162292183D01*
X142122265Y-162297451D01*
X142073516Y-162349065D01*
X142004600Y-162366129D01*
X141937399Y-162343226D01*
X141897735Y-162297451D01*
X141895050Y-162292183D01*
X141895048Y-162292180D01*
X141770104Y-162120208D01*
X141770101Y-162120205D01*
X141770099Y-162120202D01*
X141619797Y-161969900D01*
X141619794Y-161969898D01*
X141619792Y-161969896D01*
X141447816Y-161844949D01*
X141258412Y-161748443D01*
X141056243Y-161682754D01*
X140846287Y-161649500D01*
X140633713Y-161649500D01*
X140423757Y-161682754D01*
X140423754Y-161682754D01*
X140423753Y-161682755D01*
X140221588Y-161748443D01*
X140221586Y-161748444D01*
X140032180Y-161844951D01*
X139860205Y-161969898D01*
X139860202Y-161969900D01*
X139709900Y-162120202D01*
X139709898Y-162120205D01*
X139584949Y-162292183D01*
X139582265Y-162297451D01*
X139533516Y-162349065D01*
X139464600Y-162366129D01*
X139397399Y-162343226D01*
X139357735Y-162297451D01*
X139355050Y-162292183D01*
X139355048Y-162292180D01*
X139230104Y-162120208D01*
X139230101Y-162120205D01*
X139230099Y-162120202D01*
X139079797Y-161969900D01*
X139079794Y-161969898D01*
X139079792Y-161969896D01*
X138907816Y-161844949D01*
X138718412Y-161748443D01*
X138516243Y-161682754D01*
X138306287Y-161649500D01*
X138093713Y-161649500D01*
X137883757Y-161682754D01*
X137883754Y-161682754D01*
X137883753Y-161682755D01*
X137681588Y-161748443D01*
X137681586Y-161748444D01*
X137492180Y-161844951D01*
X137320205Y-161969898D01*
X137320202Y-161969900D01*
X137169900Y-162120202D01*
X137169898Y-162120205D01*
X137044949Y-162292183D01*
X137042265Y-162297451D01*
X136993516Y-162349065D01*
X136924600Y-162366129D01*
X136857399Y-162343226D01*
X136817735Y-162297451D01*
X136815050Y-162292183D01*
X136815048Y-162292180D01*
X136690104Y-162120208D01*
X136690101Y-162120205D01*
X136690099Y-162120202D01*
X136539797Y-161969900D01*
X136539794Y-161969898D01*
X136539792Y-161969896D01*
X136367816Y-161844949D01*
X136178412Y-161748443D01*
X135976243Y-161682754D01*
X135766287Y-161649500D01*
X135553713Y-161649500D01*
X135343757Y-161682754D01*
X135343754Y-161682754D01*
X135343753Y-161682755D01*
X135141588Y-161748443D01*
X135141586Y-161748444D01*
X134952180Y-161844951D01*
X134780205Y-161969898D01*
X134780202Y-161969900D01*
X134629900Y-162120202D01*
X134629898Y-162120205D01*
X134504949Y-162292183D01*
X134502265Y-162297451D01*
X134453516Y-162349065D01*
X134384600Y-162366129D01*
X134317399Y-162343226D01*
X134277735Y-162297451D01*
X134275050Y-162292183D01*
X134275048Y-162292180D01*
X134150104Y-162120208D01*
X134150101Y-162120205D01*
X134150099Y-162120202D01*
X133999797Y-161969900D01*
X133999794Y-161969898D01*
X133999792Y-161969896D01*
X133827816Y-161844949D01*
X133638412Y-161748443D01*
X133436243Y-161682754D01*
X133226287Y-161649500D01*
X133013713Y-161649500D01*
X132803757Y-161682754D01*
X132803754Y-161682754D01*
X132803753Y-161682755D01*
X132601588Y-161748443D01*
X132601586Y-161748444D01*
X132412180Y-161844951D01*
X132240205Y-161969898D01*
X132240202Y-161969900D01*
X132089900Y-162120202D01*
X132089898Y-162120205D01*
X131964949Y-162292183D01*
X131962265Y-162297451D01*
X131913516Y-162349065D01*
X131844600Y-162366129D01*
X131777399Y-162343226D01*
X131737735Y-162297451D01*
X131735050Y-162292183D01*
X131735048Y-162292180D01*
X131610104Y-162120208D01*
X131610101Y-162120205D01*
X131610099Y-162120202D01*
X131459797Y-161969900D01*
X131459794Y-161969898D01*
X131459792Y-161969896D01*
X131287816Y-161844949D01*
X131098412Y-161748443D01*
X130896243Y-161682754D01*
X130686287Y-161649500D01*
X130473713Y-161649500D01*
X130263757Y-161682754D01*
X130263754Y-161682754D01*
X130263753Y-161682755D01*
X130061588Y-161748443D01*
X130061586Y-161748444D01*
X129872180Y-161844951D01*
X129700205Y-161969898D01*
X129700202Y-161969900D01*
X129549900Y-162120202D01*
X129549898Y-162120205D01*
X129424949Y-162292183D01*
X129422265Y-162297451D01*
X129373516Y-162349065D01*
X129304600Y-162366129D01*
X129237399Y-162343226D01*
X129197735Y-162297451D01*
X129195050Y-162292183D01*
X129195048Y-162292180D01*
X129070104Y-162120208D01*
X129070101Y-162120205D01*
X129070099Y-162120202D01*
X128919797Y-161969900D01*
X128919794Y-161969898D01*
X128919792Y-161969896D01*
X128747816Y-161844949D01*
X128558412Y-161748443D01*
X128356243Y-161682754D01*
X128146287Y-161649500D01*
X127933713Y-161649500D01*
X127723757Y-161682754D01*
X127723754Y-161682754D01*
X127723753Y-161682755D01*
X127521588Y-161748443D01*
X127521586Y-161748444D01*
X127332180Y-161844951D01*
X127160205Y-161969898D01*
X127160202Y-161969900D01*
X127009900Y-162120202D01*
X127009898Y-162120205D01*
X126884949Y-162292183D01*
X126882265Y-162297451D01*
X126833516Y-162349065D01*
X126764600Y-162366129D01*
X126697399Y-162343226D01*
X126657735Y-162297451D01*
X126655050Y-162292183D01*
X126655048Y-162292180D01*
X126530104Y-162120208D01*
X126530101Y-162120205D01*
X126530099Y-162120202D01*
X126379797Y-161969900D01*
X126379794Y-161969898D01*
X126379792Y-161969896D01*
X126207816Y-161844949D01*
X126018412Y-161748443D01*
X125816243Y-161682754D01*
X125606287Y-161649500D01*
X125393713Y-161649500D01*
X125183757Y-161682754D01*
X125183754Y-161682754D01*
X125183753Y-161682755D01*
X124981588Y-161748443D01*
X124981586Y-161748444D01*
X124792180Y-161844951D01*
X124620205Y-161969898D01*
X124620202Y-161969900D01*
X124469900Y-162120202D01*
X124469898Y-162120205D01*
X124344949Y-162292183D01*
X124342265Y-162297451D01*
X124293516Y-162349065D01*
X124224600Y-162366129D01*
X124157399Y-162343226D01*
X124117735Y-162297451D01*
X124115050Y-162292183D01*
X124115048Y-162292180D01*
X123990104Y-162120208D01*
X123990101Y-162120205D01*
X123990099Y-162120202D01*
X123839797Y-161969900D01*
X123839794Y-161969898D01*
X123839792Y-161969896D01*
X123667816Y-161844949D01*
X123478412Y-161748443D01*
X123276243Y-161682754D01*
X123066287Y-161649500D01*
X122853713Y-161649500D01*
X122643757Y-161682754D01*
X122643754Y-161682754D01*
X122643753Y-161682755D01*
X122441588Y-161748443D01*
X122441586Y-161748444D01*
X122252180Y-161844951D01*
X122080205Y-161969898D01*
X122080202Y-161969900D01*
X121929900Y-162120202D01*
X121929898Y-162120205D01*
X121804949Y-162292183D01*
X121802265Y-162297451D01*
X121753516Y-162349065D01*
X121684600Y-162366129D01*
X121617399Y-162343226D01*
X121577735Y-162297451D01*
X121575050Y-162292183D01*
X121575048Y-162292180D01*
X121450104Y-162120208D01*
X121450101Y-162120205D01*
X121450099Y-162120202D01*
X121299797Y-161969900D01*
X121299794Y-161969898D01*
X121299792Y-161969896D01*
X121127816Y-161844949D01*
X120938412Y-161748443D01*
X120736243Y-161682754D01*
X120526287Y-161649500D01*
X120313713Y-161649500D01*
X120103757Y-161682754D01*
X120103754Y-161682754D01*
X120103753Y-161682755D01*
X119901588Y-161748443D01*
X119901586Y-161748444D01*
X119712180Y-161844951D01*
X119540205Y-161969898D01*
X119540202Y-161969900D01*
X119389900Y-162120202D01*
X119389898Y-162120205D01*
X119264949Y-162292183D01*
X119262265Y-162297451D01*
X119213516Y-162349065D01*
X119144600Y-162366129D01*
X119077399Y-162343226D01*
X119037735Y-162297451D01*
X119035050Y-162292183D01*
X119035048Y-162292180D01*
X118910104Y-162120208D01*
X118910101Y-162120205D01*
X118910099Y-162120202D01*
X118759797Y-161969900D01*
X118759794Y-161969898D01*
X118759792Y-161969896D01*
X118587816Y-161844949D01*
X118398412Y-161748443D01*
X118196243Y-161682754D01*
X117986287Y-161649500D01*
X117773713Y-161649500D01*
X117563757Y-161682754D01*
X117563754Y-161682754D01*
X117563753Y-161682755D01*
X117361588Y-161748443D01*
X117361586Y-161748444D01*
X117172180Y-161844951D01*
X117000205Y-161969898D01*
X117000202Y-161969900D01*
X116849900Y-162120202D01*
X116849898Y-162120205D01*
X116724949Y-162292183D01*
X116722265Y-162297451D01*
X116673516Y-162349065D01*
X116604600Y-162366129D01*
X116537399Y-162343226D01*
X116497735Y-162297451D01*
X116495050Y-162292183D01*
X116495048Y-162292180D01*
X116370104Y-162120208D01*
X116370101Y-162120205D01*
X116370099Y-162120202D01*
X116219797Y-161969900D01*
X116219794Y-161969898D01*
X116219792Y-161969896D01*
X116047816Y-161844949D01*
X115858412Y-161748443D01*
X115656243Y-161682754D01*
X115446287Y-161649500D01*
X115233713Y-161649500D01*
X115023757Y-161682754D01*
X115023754Y-161682754D01*
X115023753Y-161682755D01*
X114821588Y-161748443D01*
X114821586Y-161748444D01*
X114632180Y-161844951D01*
X114460205Y-161969898D01*
X114460202Y-161969900D01*
X114309900Y-162120202D01*
X114309898Y-162120205D01*
X114184949Y-162292183D01*
X114182265Y-162297451D01*
X114133516Y-162349065D01*
X114064600Y-162366129D01*
X113997399Y-162343226D01*
X113957735Y-162297451D01*
X113955050Y-162292183D01*
X113955048Y-162292180D01*
X113830104Y-162120208D01*
X113830101Y-162120205D01*
X113830099Y-162120202D01*
X113679797Y-161969900D01*
X113679794Y-161969898D01*
X113679792Y-161969896D01*
X113507816Y-161844949D01*
X113318412Y-161748443D01*
X113116243Y-161682754D01*
X112906287Y-161649500D01*
X112693713Y-161649500D01*
X112483757Y-161682754D01*
X112483754Y-161682754D01*
X112483753Y-161682755D01*
X112281588Y-161748443D01*
X112281586Y-161748444D01*
X112092180Y-161844951D01*
X111920205Y-161969898D01*
X111920202Y-161969900D01*
X111769900Y-162120202D01*
X111769898Y-162120205D01*
X111644949Y-162292183D01*
X111642265Y-162297451D01*
X111593516Y-162349065D01*
X111524600Y-162366129D01*
X111457399Y-162343226D01*
X111417735Y-162297451D01*
X111415050Y-162292183D01*
X111415048Y-162292180D01*
X111290104Y-162120208D01*
X111290101Y-162120205D01*
X111290099Y-162120202D01*
X111139797Y-161969900D01*
X111139794Y-161969898D01*
X111139792Y-161969896D01*
X110967816Y-161844949D01*
X110778412Y-161748443D01*
X110576243Y-161682754D01*
X110366287Y-161649500D01*
X110153713Y-161649500D01*
X109943757Y-161682754D01*
X109943754Y-161682754D01*
X109943753Y-161682755D01*
X109741588Y-161748443D01*
X109741586Y-161748444D01*
X109552180Y-161844951D01*
X109380205Y-161969898D01*
X109380202Y-161969900D01*
X109229900Y-162120202D01*
X109229898Y-162120205D01*
X109104949Y-162292183D01*
X109102265Y-162297451D01*
X109053516Y-162349065D01*
X108984600Y-162366129D01*
X108917399Y-162343226D01*
X108877735Y-162297451D01*
X108875050Y-162292183D01*
X108875048Y-162292180D01*
X108750104Y-162120208D01*
X108750101Y-162120205D01*
X108750099Y-162120202D01*
X108599797Y-161969900D01*
X108599794Y-161969898D01*
X108599792Y-161969896D01*
X108427816Y-161844949D01*
X108238412Y-161748443D01*
X108036243Y-161682754D01*
X107826287Y-161649500D01*
X107613713Y-161649500D01*
X107403757Y-161682754D01*
X107403754Y-161682754D01*
X107403753Y-161682755D01*
X107201588Y-161748443D01*
X107201586Y-161748444D01*
X107012180Y-161844951D01*
X106840205Y-161969898D01*
X106840202Y-161969900D01*
X106689900Y-162120202D01*
X106689898Y-162120205D01*
X106564949Y-162292183D01*
X106562265Y-162297451D01*
X106513516Y-162349065D01*
X106444600Y-162366129D01*
X106377399Y-162343226D01*
X106337735Y-162297451D01*
X106335050Y-162292183D01*
X106335048Y-162292180D01*
X106210104Y-162120208D01*
X106210101Y-162120205D01*
X106210099Y-162120202D01*
X106059797Y-161969900D01*
X106059794Y-161969898D01*
X106059792Y-161969896D01*
X105887816Y-161844949D01*
X105698412Y-161748443D01*
X105496243Y-161682754D01*
X105286287Y-161649500D01*
X105286284Y-161649500D01*
X105128320Y-161649500D01*
X105060199Y-161629498D01*
X105039225Y-161612595D01*
X101640917Y-158214287D01*
X101606891Y-158151975D01*
X101604012Y-158125192D01*
X101604012Y-154067000D01*
X101624014Y-153998879D01*
X101677670Y-153952386D01*
X101730012Y-153941000D01*
X118211588Y-153941000D01*
X118279709Y-153961002D01*
X118300683Y-153977905D01*
X122942174Y-158619396D01*
X122976200Y-158681708D01*
X122976657Y-158683907D01*
X122989011Y-158746011D01*
X123052588Y-158899500D01*
X123114260Y-158991799D01*
X123144887Y-159037635D01*
X123144892Y-159037641D01*
X123262358Y-159155107D01*
X123262364Y-159155112D01*
X123400500Y-159247412D01*
X123553989Y-159310989D01*
X123716932Y-159343400D01*
X123716933Y-159343400D01*
X123883067Y-159343400D01*
X123883068Y-159343400D01*
X124046011Y-159310989D01*
X124199500Y-159247412D01*
X124337636Y-159155112D01*
X124455112Y-159037636D01*
X124547412Y-158899500D01*
X124610989Y-158746011D01*
X124643400Y-158583068D01*
X124643400Y-158416932D01*
X124610989Y-158253989D01*
X124547412Y-158100500D01*
X124455112Y-157962364D01*
X124455107Y-157962358D01*
X124337641Y-157844892D01*
X124337635Y-157844887D01*
X124291799Y-157814260D01*
X124199500Y-157752588D01*
X124046011Y-157689011D01*
X123983907Y-157676657D01*
X123920999Y-157643750D01*
X123919396Y-157642174D01*
X118990494Y-152713271D01*
X118990488Y-152713266D01*
X118990482Y-152713262D01*
X118877311Y-152637644D01*
X118751560Y-152585556D01*
X118751557Y-152585555D01*
X118618061Y-152559000D01*
X118618058Y-152559000D01*
X88653319Y-152559000D01*
X88653315Y-152559000D01*
X88519819Y-152585555D01*
X88519816Y-152585556D01*
X88394065Y-152637644D01*
X88280895Y-152713262D01*
X88280888Y-152713267D01*
X86827220Y-154166935D01*
X86764908Y-154200961D01*
X86694092Y-154195896D01*
X86637257Y-154153349D01*
X86612446Y-154086829D01*
X86612125Y-154077840D01*
X86612125Y-153268112D01*
X86632127Y-153199991D01*
X86633298Y-153198202D01*
X86681276Y-153126400D01*
X86744853Y-152972911D01*
X86777264Y-152809968D01*
X86777264Y-152643832D01*
X86744853Y-152480889D01*
X86681276Y-152327400D01*
X86588976Y-152189264D01*
X86588971Y-152189258D01*
X86471505Y-152071792D01*
X86471499Y-152071787D01*
X86425663Y-152041160D01*
X86333364Y-151979488D01*
X86179875Y-151915911D01*
X86016934Y-151883500D01*
X86016932Y-151883500D01*
X85850796Y-151883500D01*
X85850793Y-151883500D01*
X85687852Y-151915911D01*
X85687847Y-151915913D01*
X85534364Y-151979488D01*
X85396228Y-152071787D01*
X85396222Y-152071792D01*
X85278756Y-152189258D01*
X85278751Y-152189264D01*
X85186452Y-152327400D01*
X85122877Y-152480883D01*
X85122875Y-152480888D01*
X85090464Y-152643829D01*
X85090464Y-152809970D01*
X85110796Y-152912184D01*
X85122875Y-152972911D01*
X85186452Y-153126400D01*
X85207800Y-153158349D01*
X85208890Y-153159980D01*
X85230105Y-153227733D01*
X85230125Y-153229983D01*
X85230125Y-153777720D01*
X85210123Y-153845841D01*
X85156467Y-153892334D01*
X85086193Y-153902438D01*
X85055908Y-153894129D01*
X85016749Y-153877909D01*
X85016740Y-153877906D01*
X84853799Y-153845495D01*
X84853797Y-153845495D01*
X84687661Y-153845495D01*
X84687658Y-153845495D01*
X84524717Y-153877906D01*
X84524712Y-153877908D01*
X84371229Y-153941483D01*
X84233093Y-154033782D01*
X84233087Y-154033787D01*
X84115621Y-154151253D01*
X84115616Y-154151259D01*
X84023317Y-154289395D01*
X83959742Y-154442878D01*
X83959740Y-154442883D01*
X83927329Y-154605824D01*
X83927329Y-154771965D01*
X83936541Y-154818277D01*
X83959740Y-154934906D01*
X84023317Y-155088395D01*
X84084989Y-155180694D01*
X84115616Y-155226530D01*
X84115621Y-155226536D01*
X84233088Y-155344003D01*
X84233093Y-155344007D01*
X84236532Y-155346305D01*
X84255623Y-155361972D01*
X85154486Y-156260835D01*
X85267662Y-156336456D01*
X85393416Y-156388545D01*
X85526915Y-156415100D01*
X86315335Y-156415100D01*
X86448834Y-156388545D01*
X86574588Y-156336456D01*
X86687764Y-156260835D01*
X88970693Y-153977904D01*
X89033005Y-153943880D01*
X89059788Y-153941000D01*
X91221763Y-153941000D01*
X91289884Y-153961002D01*
X91336377Y-154014658D01*
X91346481Y-154084932D01*
X91345342Y-154091582D01*
X91331100Y-154163176D01*
X91331100Y-154336823D01*
X91363518Y-154499792D01*
X91364976Y-154507124D01*
X91431425Y-154667547D01*
X91527894Y-154811923D01*
X91650677Y-154934706D01*
X91795053Y-155031175D01*
X91955476Y-155097624D01*
X92125780Y-155131500D01*
X99715012Y-155131500D01*
X99783133Y-155151502D01*
X99829626Y-155205158D01*
X99841012Y-155257500D01*
X99841012Y-158629336D01*
X99864221Y-158746011D01*
X99874888Y-158799636D01*
X99941337Y-158960059D01*
X100030431Y-159093399D01*
X100037807Y-159104437D01*
X100037812Y-159104443D01*
X103792595Y-162859225D01*
X103826621Y-162921537D01*
X103829500Y-162948320D01*
X103829500Y-163106287D01*
X103862754Y-163316243D01*
X103928443Y-163518412D01*
X104024949Y-163707816D01*
X104149896Y-163879792D01*
X104149898Y-163879794D01*
X104149900Y-163879797D01*
X104300202Y-164030099D01*
X104300205Y-164030101D01*
X104300208Y-164030104D01*
X104472184Y-164155051D01*
X104533383Y-164186233D01*
X104584998Y-164234981D01*
X104602064Y-164303896D01*
X104579163Y-164371098D01*
X104523566Y-164415250D01*
X104476180Y-164424500D01*
X100803820Y-164424500D01*
X100735699Y-164404498D01*
X100689206Y-164350842D01*
X100679102Y-164280568D01*
X100708596Y-164215988D01*
X100746615Y-164186234D01*
X100807816Y-164155051D01*
X100979792Y-164030104D01*
X101130104Y-163879792D01*
X101255051Y-163707816D01*
X101351557Y-163518412D01*
X101417246Y-163316243D01*
X101450500Y-163106287D01*
X101450500Y-162893713D01*
X101417246Y-162683757D01*
X101351557Y-162481588D01*
X101255051Y-162292184D01*
X101130104Y-162120208D01*
X101130101Y-162120205D01*
X101130099Y-162120202D01*
X100979797Y-161969900D01*
X100979794Y-161969898D01*
X100979792Y-161969896D01*
X100807816Y-161844949D01*
X100618412Y-161748443D01*
X100416243Y-161682754D01*
X100206287Y-161649500D01*
X99993713Y-161649500D01*
X99783757Y-161682754D01*
X99783754Y-161682754D01*
X99783753Y-161682755D01*
X99581588Y-161748443D01*
X99581586Y-161748444D01*
X99392180Y-161844951D01*
X99220205Y-161969898D01*
X99220202Y-161969900D01*
X99069900Y-162120202D01*
X99069898Y-162120205D01*
X98944949Y-162292183D01*
X98942265Y-162297451D01*
X98893516Y-162349065D01*
X98824600Y-162366129D01*
X98757399Y-162343226D01*
X98717735Y-162297451D01*
X98715050Y-162292183D01*
X98715048Y-162292180D01*
X98590104Y-162120208D01*
X98590101Y-162120205D01*
X98590099Y-162120202D01*
X98439797Y-161969900D01*
X98439794Y-161969898D01*
X98439792Y-161969896D01*
X98267816Y-161844949D01*
X98078412Y-161748443D01*
X97876243Y-161682754D01*
X97666287Y-161649500D01*
X97453713Y-161649500D01*
X97243757Y-161682754D01*
X97243754Y-161682754D01*
X97243753Y-161682755D01*
X97041588Y-161748443D01*
X97041586Y-161748444D01*
X96852180Y-161844951D01*
X96680205Y-161969898D01*
X96680202Y-161969900D01*
X96529900Y-162120202D01*
X96529898Y-162120205D01*
X96404949Y-162292183D01*
X96402265Y-162297451D01*
X96353516Y-162349065D01*
X96284600Y-162366129D01*
X96217399Y-162343226D01*
X96177735Y-162297451D01*
X96175050Y-162292183D01*
X96175048Y-162292180D01*
X96050104Y-162120208D01*
X96050101Y-162120205D01*
X96050099Y-162120202D01*
X95899797Y-161969900D01*
X95899794Y-161969898D01*
X95899792Y-161969896D01*
X95727816Y-161844949D01*
X95538412Y-161748443D01*
X95336243Y-161682754D01*
X95126287Y-161649500D01*
X94913713Y-161649500D01*
X94703757Y-161682754D01*
X94703754Y-161682754D01*
X94703753Y-161682755D01*
X94501588Y-161748443D01*
X94501586Y-161748444D01*
X94312180Y-161844951D01*
X94140205Y-161969898D01*
X94140202Y-161969900D01*
X93989900Y-162120202D01*
X93989898Y-162120205D01*
X93864949Y-162292183D01*
X93862265Y-162297451D01*
X93813516Y-162349065D01*
X93744600Y-162366129D01*
X93677399Y-162343226D01*
X93637735Y-162297451D01*
X93635050Y-162292183D01*
X93635048Y-162292180D01*
X93510104Y-162120208D01*
X93510101Y-162120205D01*
X93510099Y-162120202D01*
X93359797Y-161969900D01*
X93359794Y-161969898D01*
X93359792Y-161969896D01*
X93187816Y-161844949D01*
X92998412Y-161748443D01*
X92796243Y-161682754D01*
X92586287Y-161649500D01*
X92373713Y-161649500D01*
X92163757Y-161682754D01*
X92163754Y-161682754D01*
X92163753Y-161682755D01*
X91961588Y-161748443D01*
X91961586Y-161748444D01*
X91772180Y-161844951D01*
X91600205Y-161969898D01*
X91600202Y-161969900D01*
X91449900Y-162120202D01*
X91449898Y-162120205D01*
X91324949Y-162292183D01*
X91322265Y-162297451D01*
X91273516Y-162349065D01*
X91204600Y-162366129D01*
X91137399Y-162343226D01*
X91097735Y-162297451D01*
X91095050Y-162292183D01*
X91095048Y-162292180D01*
X90970104Y-162120208D01*
X90970101Y-162120205D01*
X90970099Y-162120202D01*
X90819797Y-161969900D01*
X90819794Y-161969898D01*
X90819792Y-161969896D01*
X90647816Y-161844949D01*
X90458412Y-161748443D01*
X90256243Y-161682754D01*
X90046287Y-161649500D01*
X89833713Y-161649500D01*
X89623757Y-161682754D01*
X89623754Y-161682754D01*
X89623753Y-161682755D01*
X89421588Y-161748443D01*
X89421586Y-161748444D01*
X89232180Y-161844951D01*
X89060205Y-161969898D01*
X89060202Y-161969900D01*
X88909900Y-162120202D01*
X88909898Y-162120205D01*
X88784949Y-162292183D01*
X88782265Y-162297451D01*
X88733516Y-162349065D01*
X88664600Y-162366129D01*
X88597399Y-162343226D01*
X88557735Y-162297451D01*
X88555050Y-162292183D01*
X88555048Y-162292180D01*
X88430104Y-162120208D01*
X88430101Y-162120205D01*
X88430099Y-162120202D01*
X88279797Y-161969900D01*
X88279794Y-161969898D01*
X88279792Y-161969896D01*
X88107816Y-161844949D01*
X87918412Y-161748443D01*
X87716243Y-161682754D01*
X87506287Y-161649500D01*
X87293713Y-161649500D01*
X87083757Y-161682754D01*
X87083754Y-161682754D01*
X87083753Y-161682755D01*
X86881588Y-161748443D01*
X86881586Y-161748444D01*
X86692180Y-161844951D01*
X86520205Y-161969898D01*
X86520202Y-161969900D01*
X86369900Y-162120202D01*
X86369898Y-162120205D01*
X86244949Y-162292183D01*
X86242265Y-162297451D01*
X86193516Y-162349065D01*
X86124600Y-162366129D01*
X86057399Y-162343226D01*
X86017735Y-162297451D01*
X86015050Y-162292183D01*
X86015048Y-162292180D01*
X85890104Y-162120208D01*
X85890101Y-162120205D01*
X85890099Y-162120202D01*
X85739797Y-161969900D01*
X85739794Y-161969898D01*
X85739792Y-161969896D01*
X85567816Y-161844949D01*
X85378412Y-161748443D01*
X85176243Y-161682754D01*
X84966287Y-161649500D01*
X84753713Y-161649500D01*
X84543757Y-161682754D01*
X84543754Y-161682754D01*
X84543753Y-161682755D01*
X84341588Y-161748443D01*
X84341586Y-161748444D01*
X84152180Y-161844951D01*
X83980205Y-161969898D01*
X83980202Y-161969900D01*
X83829900Y-162120202D01*
X83829898Y-162120205D01*
X83704949Y-162292183D01*
X83702265Y-162297451D01*
X83653516Y-162349065D01*
X83584600Y-162366129D01*
X83517399Y-162343226D01*
X83477735Y-162297451D01*
X83475050Y-162292183D01*
X83475048Y-162292180D01*
X83350104Y-162120208D01*
X83350101Y-162120205D01*
X83350099Y-162120202D01*
X83199797Y-161969900D01*
X83199794Y-161969898D01*
X83199792Y-161969896D01*
X83027816Y-161844949D01*
X82838412Y-161748443D01*
X82636243Y-161682754D01*
X82426287Y-161649500D01*
X82213713Y-161649500D01*
X82003757Y-161682754D01*
X82003754Y-161682754D01*
X82003753Y-161682755D01*
X81801588Y-161748443D01*
X81801586Y-161748444D01*
X81612180Y-161844951D01*
X81440205Y-161969898D01*
X81440202Y-161969900D01*
X81289900Y-162120202D01*
X81289898Y-162120205D01*
X81164949Y-162292183D01*
X81162265Y-162297451D01*
X81113516Y-162349065D01*
X81044600Y-162366129D01*
X80977399Y-162343226D01*
X80937735Y-162297451D01*
X80935050Y-162292183D01*
X80935048Y-162292180D01*
X80810104Y-162120208D01*
X80810101Y-162120205D01*
X80810099Y-162120202D01*
X80659797Y-161969900D01*
X80659794Y-161969898D01*
X80659792Y-161969896D01*
X80487816Y-161844949D01*
X80298412Y-161748443D01*
X80096243Y-161682754D01*
X79886287Y-161649500D01*
X79673713Y-161649500D01*
X79463757Y-161682754D01*
X79463754Y-161682754D01*
X79463753Y-161682755D01*
X79261588Y-161748443D01*
X79261586Y-161748444D01*
X79072180Y-161844951D01*
X78900205Y-161969898D01*
X78900202Y-161969900D01*
X78749900Y-162120202D01*
X78749898Y-162120205D01*
X78624949Y-162292183D01*
X78622265Y-162297451D01*
X78573516Y-162349065D01*
X78504600Y-162366129D01*
X78437399Y-162343226D01*
X78397735Y-162297451D01*
X78395050Y-162292183D01*
X78395048Y-162292180D01*
X78270104Y-162120208D01*
X78270101Y-162120205D01*
X78270099Y-162120202D01*
X78119797Y-161969900D01*
X78119794Y-161969898D01*
X78119792Y-161969896D01*
X77947816Y-161844949D01*
X77758412Y-161748443D01*
X77556243Y-161682754D01*
X77346287Y-161649500D01*
X77133713Y-161649500D01*
X76923757Y-161682754D01*
X76923754Y-161682754D01*
X76923753Y-161682755D01*
X76721588Y-161748443D01*
X76721586Y-161748444D01*
X76532180Y-161844951D01*
X76360205Y-161969898D01*
X76360202Y-161969900D01*
X76209900Y-162120202D01*
X76209898Y-162120205D01*
X76084949Y-162292183D01*
X76082265Y-162297451D01*
X76033516Y-162349065D01*
X75964600Y-162366129D01*
X75897399Y-162343226D01*
X75857735Y-162297451D01*
X75855050Y-162292183D01*
X75855048Y-162292180D01*
X75730104Y-162120208D01*
X75730101Y-162120205D01*
X75730099Y-162120202D01*
X75579797Y-161969900D01*
X75579794Y-161969898D01*
X75579792Y-161969896D01*
X75407816Y-161844949D01*
X75218412Y-161748443D01*
X75016243Y-161682754D01*
X74806287Y-161649500D01*
X74593713Y-161649500D01*
X74383757Y-161682754D01*
X74383754Y-161682754D01*
X74383753Y-161682755D01*
X74181588Y-161748443D01*
X74181586Y-161748444D01*
X73992180Y-161844951D01*
X73820205Y-161969898D01*
X73820202Y-161969900D01*
X73669900Y-162120202D01*
X73669898Y-162120205D01*
X73544949Y-162292183D01*
X73542265Y-162297451D01*
X73493516Y-162349065D01*
X73424600Y-162366129D01*
X73357399Y-162343226D01*
X73317735Y-162297451D01*
X73315050Y-162292183D01*
X73315048Y-162292180D01*
X73190104Y-162120208D01*
X73190101Y-162120205D01*
X73190099Y-162120202D01*
X73039797Y-161969900D01*
X73039794Y-161969898D01*
X73039792Y-161969896D01*
X72867816Y-161844949D01*
X72678412Y-161748443D01*
X72476243Y-161682754D01*
X72266287Y-161649500D01*
X72053713Y-161649500D01*
X71843757Y-161682754D01*
X71843754Y-161682754D01*
X71843753Y-161682755D01*
X71641588Y-161748443D01*
X71641586Y-161748444D01*
X71452180Y-161844951D01*
X71280205Y-161969898D01*
X71280202Y-161969900D01*
X71129900Y-162120202D01*
X71129898Y-162120205D01*
X71004949Y-162292183D01*
X71002265Y-162297451D01*
X70953516Y-162349065D01*
X70884600Y-162366129D01*
X70817399Y-162343226D01*
X70777735Y-162297451D01*
X70775050Y-162292183D01*
X70775048Y-162292180D01*
X70650104Y-162120208D01*
X70650101Y-162120205D01*
X70650099Y-162120202D01*
X70499797Y-161969900D01*
X70499794Y-161969898D01*
X70499792Y-161969896D01*
X70327816Y-161844949D01*
X70138412Y-161748443D01*
X69936243Y-161682754D01*
X69726287Y-161649500D01*
X69513713Y-161649500D01*
X69303757Y-161682754D01*
X69303754Y-161682754D01*
X69303753Y-161682755D01*
X69101588Y-161748443D01*
X69101586Y-161748444D01*
X68912180Y-161844951D01*
X68740205Y-161969898D01*
X68740202Y-161969900D01*
X68589900Y-162120202D01*
X68589898Y-162120205D01*
X68464949Y-162292183D01*
X68462265Y-162297451D01*
X68413516Y-162349065D01*
X68344600Y-162366129D01*
X68277399Y-162343226D01*
X68237735Y-162297451D01*
X68235050Y-162292183D01*
X68235048Y-162292180D01*
X68110104Y-162120208D01*
X68110101Y-162120205D01*
X68110099Y-162120202D01*
X67959797Y-161969900D01*
X67959794Y-161969898D01*
X67959792Y-161969896D01*
X67787816Y-161844949D01*
X67598412Y-161748443D01*
X67396243Y-161682754D01*
X67186287Y-161649500D01*
X66973713Y-161649500D01*
X66763757Y-161682754D01*
X66763754Y-161682754D01*
X66763753Y-161682755D01*
X66561588Y-161748443D01*
X66561586Y-161748444D01*
X66372180Y-161844951D01*
X66200205Y-161969898D01*
X66200202Y-161969900D01*
X66049900Y-162120202D01*
X66049898Y-162120205D01*
X65924949Y-162292183D01*
X65922265Y-162297451D01*
X65873516Y-162349065D01*
X65804600Y-162366129D01*
X65737399Y-162343226D01*
X65697735Y-162297451D01*
X65695050Y-162292183D01*
X65695048Y-162292180D01*
X65570104Y-162120208D01*
X65570101Y-162120205D01*
X65570099Y-162120202D01*
X65419797Y-161969900D01*
X65419794Y-161969898D01*
X65419792Y-161969896D01*
X65247816Y-161844949D01*
X65058412Y-161748443D01*
X64856243Y-161682754D01*
X64646287Y-161649500D01*
X64433713Y-161649500D01*
X64223757Y-161682754D01*
X64223754Y-161682754D01*
X64223753Y-161682755D01*
X64021588Y-161748443D01*
X64021586Y-161748444D01*
X63832180Y-161844951D01*
X63660207Y-161969896D01*
X63548873Y-162081230D01*
X63486561Y-162115255D01*
X63415745Y-162110189D01*
X63358909Y-162067643D01*
X63341722Y-162036165D01*
X63293798Y-161907673D01*
X63293796Y-161907670D01*
X63293796Y-161907669D01*
X63230617Y-161823273D01*
X63207546Y-161792453D01*
X63103020Y-161714206D01*
X63092331Y-161706204D01*
X63092329Y-161706203D01*
X63092326Y-161706201D01*
X62957483Y-161655909D01*
X62957486Y-161655909D01*
X62897873Y-161649500D01*
X61102135Y-161649500D01*
X61102114Y-161649502D01*
X61042519Y-161655908D01*
X61042518Y-161655908D01*
X60907673Y-161706201D01*
X60907670Y-161706203D01*
X60792450Y-161792456D01*
X60790595Y-161794312D01*
X60788291Y-161795569D01*
X60785239Y-161797855D01*
X60784910Y-161797416D01*
X60728283Y-161828338D01*
X60657468Y-161823273D01*
X60600632Y-161780726D01*
X60575821Y-161714206D01*
X60575500Y-161705217D01*
X60575500Y-143353713D01*
X61109500Y-143353713D01*
X61109500Y-143566287D01*
X61142754Y-143776243D01*
X61208443Y-143978412D01*
X61304949Y-144167816D01*
X61429896Y-144339792D01*
X61429898Y-144339794D01*
X61429900Y-144339797D01*
X61580202Y-144490099D01*
X61580205Y-144490101D01*
X61580208Y-144490104D01*
X61752184Y-144615051D01*
X61755317Y-144616647D01*
X61757451Y-144617735D01*
X61809065Y-144666484D01*
X61826129Y-144735400D01*
X61803226Y-144802601D01*
X61757451Y-144842265D01*
X61752183Y-144844949D01*
X61580205Y-144969898D01*
X61580202Y-144969900D01*
X61429900Y-145120202D01*
X61429898Y-145120205D01*
X61304951Y-145292180D01*
X61304949Y-145292184D01*
X61208443Y-145481588D01*
X61142754Y-145683757D01*
X61109500Y-145893713D01*
X61109500Y-146106287D01*
X61142754Y-146316243D01*
X61208443Y-146518412D01*
X61304949Y-146707816D01*
X61429896Y-146879792D01*
X61429898Y-146879794D01*
X61429900Y-146879797D01*
X61580202Y-147030099D01*
X61580205Y-147030101D01*
X61580208Y-147030104D01*
X61752184Y-147155051D01*
X61755317Y-147156647D01*
X61757451Y-147157735D01*
X61809065Y-147206484D01*
X61826129Y-147275400D01*
X61803226Y-147342601D01*
X61757451Y-147382265D01*
X61752183Y-147384949D01*
X61580205Y-147509898D01*
X61580202Y-147509900D01*
X61429900Y-147660202D01*
X61429898Y-147660205D01*
X61304951Y-147832180D01*
X61304949Y-147832184D01*
X61208443Y-148021588D01*
X61142754Y-148223757D01*
X61109500Y-148433713D01*
X61109500Y-148646287D01*
X61142754Y-148856243D01*
X61208443Y-149058412D01*
X61304949Y-149247816D01*
X61429896Y-149419792D01*
X61429898Y-149419794D01*
X61429900Y-149419797D01*
X61580202Y-149570099D01*
X61580205Y-149570101D01*
X61580208Y-149570104D01*
X61752184Y-149695051D01*
X61755317Y-149696647D01*
X61757451Y-149697735D01*
X61809065Y-149746484D01*
X61826129Y-149815400D01*
X61803226Y-149882601D01*
X61757451Y-149922265D01*
X61752183Y-149924949D01*
X61580205Y-150049898D01*
X61580202Y-150049900D01*
X61429900Y-150200202D01*
X61429898Y-150200205D01*
X61304951Y-150372180D01*
X61208444Y-150561586D01*
X61208443Y-150561588D01*
X61149760Y-150742196D01*
X61142754Y-150763757D01*
X61109500Y-150973713D01*
X61109500Y-151186287D01*
X61142754Y-151396243D01*
X61208443Y-151598412D01*
X61304949Y-151787816D01*
X61304951Y-151787819D01*
X61312187Y-151797778D01*
X61429896Y-151959792D01*
X61429898Y-151959794D01*
X61429900Y-151959797D01*
X61580202Y-152110099D01*
X61580205Y-152110101D01*
X61580208Y-152110104D01*
X61752184Y-152235051D01*
X61755317Y-152236647D01*
X61757451Y-152237735D01*
X61809065Y-152286484D01*
X61826129Y-152355400D01*
X61803226Y-152422601D01*
X61757451Y-152462265D01*
X61752183Y-152464949D01*
X61580205Y-152589898D01*
X61580202Y-152589900D01*
X61429900Y-152740202D01*
X61429898Y-152740205D01*
X61304951Y-152912180D01*
X61208444Y-153101586D01*
X61208443Y-153101588D01*
X61166755Y-153229891D01*
X61142754Y-153303757D01*
X61109500Y-153513713D01*
X61109500Y-153726287D01*
X61142754Y-153936243D01*
X61208443Y-154138412D01*
X61304949Y-154327816D01*
X61429896Y-154499792D01*
X61429898Y-154499794D01*
X61429900Y-154499797D01*
X61580202Y-154650099D01*
X61580205Y-154650101D01*
X61580208Y-154650104D01*
X61752184Y-154775051D01*
X61753517Y-154775730D01*
X61757451Y-154777735D01*
X61809065Y-154826484D01*
X61826129Y-154895400D01*
X61803226Y-154962601D01*
X61757451Y-155002265D01*
X61752183Y-155004949D01*
X61580205Y-155129898D01*
X61580202Y-155129900D01*
X61429900Y-155280202D01*
X61429898Y-155280205D01*
X61304951Y-155452180D01*
X61304949Y-155452184D01*
X61208443Y-155641588D01*
X61142754Y-155843757D01*
X61109500Y-156053713D01*
X61109500Y-156266287D01*
X61142754Y-156476243D01*
X61208443Y-156678412D01*
X61304949Y-156867816D01*
X61429896Y-157039792D01*
X61429898Y-157039794D01*
X61429900Y-157039797D01*
X61580202Y-157190099D01*
X61580205Y-157190101D01*
X61580208Y-157190104D01*
X61752184Y-157315051D01*
X61941588Y-157411557D01*
X62143757Y-157477246D01*
X62353713Y-157510500D01*
X62353716Y-157510500D01*
X62566284Y-157510500D01*
X62566287Y-157510500D01*
X62776243Y-157477246D01*
X62978412Y-157411557D01*
X63167816Y-157315051D01*
X63339792Y-157190104D01*
X63451127Y-157078768D01*
X63513437Y-157044745D01*
X63584253Y-157049809D01*
X63641089Y-157092356D01*
X63658277Y-157123833D01*
X63706202Y-157252328D01*
X63706203Y-157252329D01*
X63792453Y-157367546D01*
X63844623Y-157406600D01*
X63907669Y-157453796D01*
X63907671Y-157453796D01*
X63907673Y-157453798D01*
X63968030Y-157476309D01*
X64042514Y-157504090D01*
X64042517Y-157504091D01*
X64102127Y-157510500D01*
X65897872Y-157510499D01*
X65957483Y-157504091D01*
X66092331Y-157453796D01*
X66207546Y-157367546D01*
X66293796Y-157252331D01*
X66344091Y-157117483D01*
X66350500Y-157057873D01*
X66350499Y-155262128D01*
X66344091Y-155202517D01*
X66317005Y-155129896D01*
X66293798Y-155067673D01*
X66293796Y-155067670D01*
X66293796Y-155067669D01*
X66241202Y-154997412D01*
X66207546Y-154952453D01*
X66116913Y-154884606D01*
X66092331Y-154866204D01*
X66092329Y-154866203D01*
X66092328Y-154866202D01*
X65963833Y-154818277D01*
X65906997Y-154775730D01*
X65882186Y-154709210D01*
X65897277Y-154639836D01*
X65918767Y-154611128D01*
X66030104Y-154499792D01*
X66155051Y-154327816D01*
X66251557Y-154138412D01*
X66317246Y-153936243D01*
X66350500Y-153726287D01*
X66350500Y-153513713D01*
X66317246Y-153303757D01*
X66251557Y-153101588D01*
X66155051Y-152912184D01*
X66030104Y-152740208D01*
X66030101Y-152740205D01*
X66030099Y-152740202D01*
X65879797Y-152589900D01*
X65879794Y-152589898D01*
X65879792Y-152589896D01*
X65729754Y-152480888D01*
X65707819Y-152464951D01*
X65707818Y-152464950D01*
X65707816Y-152464949D01*
X65702551Y-152462266D01*
X65650937Y-152413520D01*
X65633870Y-152344606D01*
X65656770Y-152277404D01*
X65702551Y-152237733D01*
X65707816Y-152235051D01*
X65879792Y-152110104D01*
X66030104Y-151959792D01*
X66155051Y-151787816D01*
X66251557Y-151598412D01*
X66317246Y-151396243D01*
X66350500Y-151186287D01*
X66350500Y-150973713D01*
X66317246Y-150763757D01*
X66251557Y-150561588D01*
X66155051Y-150372184D01*
X66030104Y-150200208D01*
X66030101Y-150200205D01*
X66030099Y-150200202D01*
X65879797Y-150049900D01*
X65879794Y-150049898D01*
X65879792Y-150049896D01*
X65707816Y-149924949D01*
X65702551Y-149922266D01*
X65650937Y-149873520D01*
X65633870Y-149804606D01*
X65656770Y-149737404D01*
X65702551Y-149697733D01*
X65707816Y-149695051D01*
X65879792Y-149570104D01*
X66030104Y-149419792D01*
X66155051Y-149247816D01*
X66251557Y-149058412D01*
X66317246Y-148856243D01*
X66350500Y-148646287D01*
X66350500Y-148433713D01*
X66317246Y-148223757D01*
X66251557Y-148021588D01*
X66155051Y-147832184D01*
X66030104Y-147660208D01*
X66030101Y-147660205D01*
X66030099Y-147660202D01*
X65879797Y-147509900D01*
X65879794Y-147509898D01*
X65879792Y-147509896D01*
X65707816Y-147384949D01*
X65702551Y-147382266D01*
X65650937Y-147333520D01*
X65633870Y-147264606D01*
X65656770Y-147197404D01*
X65702551Y-147157733D01*
X65707816Y-147155051D01*
X65879792Y-147030104D01*
X66030104Y-146879792D01*
X66155051Y-146707816D01*
X66251557Y-146518412D01*
X66317246Y-146316243D01*
X66350500Y-146106287D01*
X66350500Y-145893713D01*
X66317246Y-145683757D01*
X66251557Y-145481588D01*
X66155051Y-145292184D01*
X66030104Y-145120208D01*
X66030101Y-145120205D01*
X66030099Y-145120202D01*
X65879797Y-144969900D01*
X65879794Y-144969898D01*
X65879792Y-144969896D01*
X65721804Y-144855112D01*
X65707819Y-144844951D01*
X65707818Y-144844950D01*
X65707816Y-144844949D01*
X65702551Y-144842266D01*
X65650937Y-144793520D01*
X65633870Y-144724606D01*
X65656770Y-144657404D01*
X65702551Y-144617733D01*
X65707816Y-144615051D01*
X65879792Y-144490104D01*
X65906568Y-144463328D01*
X72381601Y-144463328D01*
X72381601Y-144629469D01*
X72414012Y-144792410D01*
X72414014Y-144792415D01*
X72477587Y-144945896D01*
X72477588Y-144945898D01*
X72477589Y-144945899D01*
X72512767Y-144998546D01*
X72533981Y-145066296D01*
X72534001Y-145068546D01*
X72534001Y-154906611D01*
X72552063Y-154997412D01*
X72560556Y-155040110D01*
X72612645Y-155165864D01*
X72637135Y-155202517D01*
X72688267Y-155279041D01*
X72688272Y-155279047D01*
X75371585Y-157962358D01*
X76195962Y-158786735D01*
X76275450Y-158839847D01*
X76309137Y-158862356D01*
X76434891Y-158914445D01*
X76568390Y-158941000D01*
X76568391Y-158941000D01*
X76704505Y-158941000D01*
X82897852Y-158941000D01*
X82965973Y-158961002D01*
X82967854Y-158962235D01*
X83020500Y-158997412D01*
X83173989Y-159060989D01*
X83336932Y-159093400D01*
X83336933Y-159093400D01*
X83503067Y-159093400D01*
X83503068Y-159093400D01*
X83666011Y-159060989D01*
X83819500Y-158997412D01*
X83957636Y-158905112D01*
X84075112Y-158787636D01*
X84167412Y-158649500D01*
X84230989Y-158496011D01*
X84263400Y-158333068D01*
X84263400Y-158166932D01*
X84230989Y-158003989D01*
X84167412Y-157850500D01*
X84075112Y-157712364D01*
X84075107Y-157712358D01*
X83957641Y-157594892D01*
X83957635Y-157594887D01*
X83873991Y-157538998D01*
X83819500Y-157502588D01*
X83666011Y-157439011D01*
X83503070Y-157406600D01*
X83503068Y-157406600D01*
X83336932Y-157406600D01*
X83336929Y-157406600D01*
X83173988Y-157439011D01*
X83173983Y-157439013D01*
X83020499Y-157502588D01*
X82967854Y-157537765D01*
X82900101Y-157558980D01*
X82897852Y-157559000D01*
X76974859Y-157559000D01*
X76906738Y-157538998D01*
X76885764Y-157522095D01*
X73952906Y-154589236D01*
X73918880Y-154526924D01*
X73916001Y-154500141D01*
X73916001Y-153388685D01*
X77961838Y-153388685D01*
X77961838Y-153554826D01*
X77974440Y-153618179D01*
X77994249Y-153717767D01*
X78057826Y-153871256D01*
X78106352Y-153943880D01*
X78150125Y-154009391D01*
X78150130Y-154009397D01*
X78267596Y-154126863D01*
X78267602Y-154126868D01*
X78405738Y-154219168D01*
X78559227Y-154282745D01*
X78722170Y-154315156D01*
X78722171Y-154315156D01*
X78888305Y-154315156D01*
X78888306Y-154315156D01*
X79051249Y-154282745D01*
X79204738Y-154219168D01*
X79342874Y-154126868D01*
X79460350Y-154009392D01*
X79552650Y-153871256D01*
X79616227Y-153717767D01*
X79628579Y-153655665D01*
X79661483Y-153592759D01*
X79663005Y-153591208D01*
X80195487Y-153058728D01*
X80222861Y-153043780D01*
X80249084Y-153026928D01*
X80255382Y-153026022D01*
X80257799Y-153024703D01*
X80284582Y-153021824D01*
X80398824Y-153021824D01*
X80466945Y-153041826D01*
X80513438Y-153095482D01*
X80524824Y-153147824D01*
X80524824Y-153201294D01*
X80545205Y-153303757D01*
X80557235Y-153364235D01*
X80620812Y-153517724D01*
X80645602Y-153554824D01*
X80713111Y-153655859D01*
X80713116Y-153655865D01*
X80830582Y-153773331D01*
X80830588Y-153773336D01*
X80968724Y-153865636D01*
X81122213Y-153929213D01*
X81285156Y-153961624D01*
X81285157Y-153961624D01*
X81451291Y-153961624D01*
X81451292Y-153961624D01*
X81614235Y-153929213D01*
X81767724Y-153865636D01*
X81905860Y-153773336D01*
X82023336Y-153655860D01*
X82115636Y-153517724D01*
X82179213Y-153364235D01*
X82191565Y-153302132D01*
X82224469Y-153239227D01*
X82225991Y-153237677D01*
X84213664Y-151250005D01*
X84275976Y-151215979D01*
X84302759Y-151213100D01*
X89334286Y-151213100D01*
X89402407Y-151233102D01*
X89404288Y-151234335D01*
X89456934Y-151269512D01*
X89610423Y-151333089D01*
X89773366Y-151365500D01*
X89773367Y-151365500D01*
X89939501Y-151365500D01*
X89939502Y-151365500D01*
X90102445Y-151333089D01*
X90255934Y-151269512D01*
X90394070Y-151177212D01*
X90511546Y-151059736D01*
X90603846Y-150921600D01*
X90667423Y-150768111D01*
X90677472Y-150717589D01*
X90710378Y-150654682D01*
X90752829Y-150625764D01*
X90899500Y-150565012D01*
X91037636Y-150472712D01*
X91155112Y-150355236D01*
X91247412Y-150217100D01*
X91310989Y-150063611D01*
X91343400Y-149900668D01*
X91343400Y-149734532D01*
X91310989Y-149571589D01*
X91247412Y-149418100D01*
X91155112Y-149279964D01*
X91155107Y-149279958D01*
X91037641Y-149162492D01*
X91037635Y-149162487D01*
X90991799Y-149131860D01*
X90899500Y-149070188D01*
X90746011Y-149006611D01*
X90721070Y-149001650D01*
X90583070Y-148974200D01*
X90583068Y-148974200D01*
X90416932Y-148974200D01*
X90416929Y-148974200D01*
X90253988Y-149006611D01*
X90253983Y-149006613D01*
X90187603Y-149034109D01*
X90139385Y-149043700D01*
X83785660Y-149043700D01*
X83711703Y-149058412D01*
X83652164Y-149070255D01*
X83652161Y-149070256D01*
X83526410Y-149122344D01*
X83413240Y-149197962D01*
X83413238Y-149197963D01*
X81700981Y-150910217D01*
X81638669Y-150944242D01*
X81567853Y-150939177D01*
X81522791Y-150910216D01*
X81411898Y-150799323D01*
X81411892Y-150799318D01*
X81358153Y-150763411D01*
X81273757Y-150707019D01*
X81120268Y-150643442D01*
X81098525Y-150639117D01*
X80957327Y-150611031D01*
X80957325Y-150611031D01*
X80791189Y-150611031D01*
X80791186Y-150611031D01*
X80628245Y-150643442D01*
X80628240Y-150643444D01*
X80474756Y-150707019D01*
X80422111Y-150742196D01*
X80354358Y-150763411D01*
X80352109Y-150763431D01*
X79535109Y-150763431D01*
X79401613Y-150789986D01*
X79401610Y-150789987D01*
X79275860Y-150842075D01*
X79164034Y-150916795D01*
X79162684Y-150917697D01*
X79162682Y-150917698D01*
X79057358Y-151023021D01*
X78995045Y-151057046D01*
X78992870Y-151057498D01*
X78975736Y-151060907D01*
X78930742Y-151069857D01*
X78930741Y-151069858D01*
X78777256Y-151133434D01*
X78639120Y-151225733D01*
X78639114Y-151225738D01*
X78521648Y-151343204D01*
X78521643Y-151343210D01*
X78429344Y-151481346D01*
X78365769Y-151634829D01*
X78365767Y-151634834D01*
X78333356Y-151797775D01*
X78333356Y-151963916D01*
X78354813Y-152071787D01*
X78365767Y-152126857D01*
X78429344Y-152280346D01*
X78521644Y-152418482D01*
X78570633Y-152467471D01*
X78604657Y-152529781D01*
X78599593Y-152600596D01*
X78557047Y-152657432D01*
X78529756Y-152672974D01*
X78456864Y-152703166D01*
X78432481Y-152713267D01*
X78405736Y-152724345D01*
X78267602Y-152816643D01*
X78267596Y-152816648D01*
X78150130Y-152934114D01*
X78150125Y-152934120D01*
X78057826Y-153072256D01*
X77994251Y-153225739D01*
X77994249Y-153225744D01*
X77961838Y-153388685D01*
X73916001Y-153388685D01*
X73916001Y-145068546D01*
X73936003Y-145000425D01*
X73937176Y-144998633D01*
X73972413Y-144945899D01*
X74035990Y-144792410D01*
X74068401Y-144629467D01*
X74068401Y-144463331D01*
X74035990Y-144300388D01*
X73972413Y-144146899D01*
X73952388Y-144116929D01*
X116156600Y-144116929D01*
X116156600Y-144116932D01*
X116156600Y-144283068D01*
X116189011Y-144446011D01*
X116252588Y-144599500D01*
X116297346Y-144666484D01*
X116344887Y-144737635D01*
X116344892Y-144737641D01*
X116462358Y-144855107D01*
X116462364Y-144855112D01*
X116600500Y-144947412D01*
X116753989Y-145010989D01*
X116916932Y-145043400D01*
X116916933Y-145043400D01*
X117083067Y-145043400D01*
X117083068Y-145043400D01*
X117246011Y-145010989D01*
X117399500Y-144947412D01*
X117452146Y-144912235D01*
X117519899Y-144891020D01*
X117522148Y-144891000D01*
X118068058Y-144891000D01*
X118201557Y-144864445D01*
X118327311Y-144812356D01*
X118330089Y-144810500D01*
X118440487Y-144736735D01*
X119719398Y-143457822D01*
X119781707Y-143423800D01*
X119783837Y-143423355D01*
X119846011Y-143410989D01*
X119999500Y-143347412D01*
X120137636Y-143255112D01*
X120255112Y-143137636D01*
X120347412Y-142999500D01*
X120410989Y-142846011D01*
X120443400Y-142683068D01*
X120443400Y-142516932D01*
X120410989Y-142353989D01*
X120347412Y-142200500D01*
X120255112Y-142062364D01*
X120255107Y-142062358D01*
X120137641Y-141944892D01*
X120137635Y-141944887D01*
X120091799Y-141914260D01*
X119999500Y-141852588D01*
X119846011Y-141789011D01*
X119683070Y-141756600D01*
X119683068Y-141756600D01*
X119516932Y-141756600D01*
X119516929Y-141756600D01*
X119353988Y-141789011D01*
X119353983Y-141789013D01*
X119200500Y-141852588D01*
X119062364Y-141944887D01*
X119062358Y-141944892D01*
X118944892Y-142062358D01*
X118944887Y-142062364D01*
X118852588Y-142200500D01*
X118789012Y-142353985D01*
X118789009Y-142353995D01*
X118776656Y-142416092D01*
X118743747Y-142479001D01*
X118742174Y-142480603D01*
X117750681Y-143472096D01*
X117723315Y-143487039D01*
X117697086Y-143503896D01*
X117690784Y-143504802D01*
X117688371Y-143506120D01*
X117661588Y-143509000D01*
X117522148Y-143509000D01*
X117454027Y-143488998D01*
X117452146Y-143487765D01*
X117399500Y-143452588D01*
X117246016Y-143389013D01*
X117246011Y-143389011D01*
X117083070Y-143356600D01*
X117083068Y-143356600D01*
X116916932Y-143356600D01*
X116916929Y-143356600D01*
X116753988Y-143389011D01*
X116753983Y-143389013D01*
X116600500Y-143452588D01*
X116462364Y-143544887D01*
X116462358Y-143544892D01*
X116344892Y-143662358D01*
X116344887Y-143662364D01*
X116252588Y-143800500D01*
X116189013Y-143953983D01*
X116189011Y-143953988D01*
X116156600Y-144116929D01*
X73952388Y-144116929D01*
X73880113Y-144008763D01*
X73880108Y-144008757D01*
X73762642Y-143891291D01*
X73762636Y-143891286D01*
X73716800Y-143860659D01*
X73624501Y-143798987D01*
X73471012Y-143735410D01*
X73308071Y-143702999D01*
X73308069Y-143702999D01*
X73141933Y-143702999D01*
X73141930Y-143702999D01*
X72978989Y-143735410D01*
X72978984Y-143735412D01*
X72825501Y-143798987D01*
X72687365Y-143891286D01*
X72687359Y-143891291D01*
X72569893Y-144008757D01*
X72569888Y-144008763D01*
X72477589Y-144146899D01*
X72414014Y-144300382D01*
X72414012Y-144300387D01*
X72381601Y-144463328D01*
X65906568Y-144463328D01*
X65923885Y-144446011D01*
X66001851Y-144368046D01*
X66030099Y-144339797D01*
X66030104Y-144339792D01*
X66155051Y-144167816D01*
X66251557Y-143978412D01*
X66317246Y-143776243D01*
X66350500Y-143566287D01*
X66350500Y-143353713D01*
X66317246Y-143143757D01*
X66251557Y-142941588D01*
X66155051Y-142752184D01*
X66030104Y-142580208D01*
X66030101Y-142580205D01*
X66030099Y-142580202D01*
X65879797Y-142429900D01*
X65879794Y-142429898D01*
X65879792Y-142429896D01*
X65707816Y-142304949D01*
X65518412Y-142208443D01*
X65316243Y-142142754D01*
X65106287Y-142109500D01*
X64893713Y-142109500D01*
X64683757Y-142142754D01*
X64683754Y-142142754D01*
X64683753Y-142142755D01*
X64481588Y-142208443D01*
X64481586Y-142208444D01*
X64292180Y-142304951D01*
X64120205Y-142429898D01*
X64120202Y-142429900D01*
X63969900Y-142580202D01*
X63969898Y-142580205D01*
X63844949Y-142752183D01*
X63842265Y-142757451D01*
X63793516Y-142809065D01*
X63724600Y-142826129D01*
X63657399Y-142803226D01*
X63617735Y-142757451D01*
X63615050Y-142752183D01*
X63564837Y-142683070D01*
X63490104Y-142580208D01*
X63490101Y-142580205D01*
X63490099Y-142580202D01*
X63339797Y-142429900D01*
X63339794Y-142429898D01*
X63339792Y-142429896D01*
X63167816Y-142304949D01*
X62978412Y-142208443D01*
X62776243Y-142142754D01*
X62566287Y-142109500D01*
X62353713Y-142109500D01*
X62143757Y-142142754D01*
X62143754Y-142142754D01*
X62143753Y-142142755D01*
X61941588Y-142208443D01*
X61941586Y-142208444D01*
X61752180Y-142304951D01*
X61580205Y-142429898D01*
X61580202Y-142429900D01*
X61429900Y-142580202D01*
X61429898Y-142580205D01*
X61304951Y-142752180D01*
X61304949Y-142752184D01*
X61208443Y-142941588D01*
X61142754Y-143143757D01*
X61109500Y-143353713D01*
X60575500Y-143353713D01*
X60575500Y-131260709D01*
X63681500Y-131260709D01*
X63681500Y-131503290D01*
X63713160Y-131743782D01*
X63775944Y-131978095D01*
X63775945Y-131978097D01*
X63775946Y-131978100D01*
X63868776Y-132202212D01*
X63868777Y-132202213D01*
X63868782Y-132202224D01*
X63990061Y-132412285D01*
X63990063Y-132412288D01*
X63990064Y-132412289D01*
X64137735Y-132604738D01*
X64137739Y-132604742D01*
X64137744Y-132604748D01*
X64309251Y-132776255D01*
X64309256Y-132776259D01*
X64309262Y-132776265D01*
X64501711Y-132923936D01*
X64501714Y-132923938D01*
X64711775Y-133045217D01*
X64711779Y-133045218D01*
X64711788Y-133045224D01*
X64935900Y-133138054D01*
X65170211Y-133200838D01*
X65170215Y-133200838D01*
X65170217Y-133200839D01*
X65232202Y-133208999D01*
X65410712Y-133232500D01*
X65410719Y-133232500D01*
X65653281Y-133232500D01*
X65653288Y-133232500D01*
X65870637Y-133203885D01*
X65893782Y-133200839D01*
X65893782Y-133200838D01*
X65893789Y-133200838D01*
X66128100Y-133138054D01*
X66352212Y-133045224D01*
X66562289Y-132923936D01*
X66754738Y-132776265D01*
X66926265Y-132604738D01*
X67073936Y-132412289D01*
X67195224Y-132202212D01*
X67288054Y-131978100D01*
X67350838Y-131743789D01*
X67382500Y-131503288D01*
X67382500Y-131260712D01*
X67353822Y-131042878D01*
X67350839Y-131020217D01*
X67350838Y-131020215D01*
X67350838Y-131020211D01*
X67288054Y-130785900D01*
X67195224Y-130561788D01*
X67195218Y-130561779D01*
X67195217Y-130561775D01*
X67073938Y-130351714D01*
X67067317Y-130343085D01*
X66926265Y-130159262D01*
X66926259Y-130159256D01*
X66926255Y-130159251D01*
X66754748Y-129987744D01*
X66754742Y-129987739D01*
X66754738Y-129987735D01*
X66562289Y-129840064D01*
X66562288Y-129840063D01*
X66562285Y-129840061D01*
X66352224Y-129718782D01*
X66352216Y-129718778D01*
X66352212Y-129718776D01*
X66128100Y-129625946D01*
X66128097Y-129625945D01*
X66128095Y-129625944D01*
X65893782Y-129563160D01*
X65653290Y-129531500D01*
X65653288Y-129531500D01*
X65410712Y-129531500D01*
X65410709Y-129531500D01*
X65170217Y-129563160D01*
X64935904Y-129625944D01*
X64935900Y-129625946D01*
X64776101Y-129692137D01*
X64711786Y-129718777D01*
X64711775Y-129718782D01*
X64501714Y-129840061D01*
X64309262Y-129987735D01*
X64309251Y-129987744D01*
X64137744Y-130159251D01*
X64137735Y-130159262D01*
X63990061Y-130351714D01*
X63868782Y-130561775D01*
X63868777Y-130561786D01*
X63775946Y-130785900D01*
X63775944Y-130785904D01*
X63713160Y-131020217D01*
X63681500Y-131260709D01*
X60575500Y-131260709D01*
X60575500Y-129583463D01*
X60595502Y-129515342D01*
X60612405Y-129494368D01*
X63459652Y-126647121D01*
X147318500Y-126647121D01*
X147318500Y-128542864D01*
X147318502Y-128542885D01*
X147324908Y-128602480D01*
X147324908Y-128602481D01*
X147375203Y-128737330D01*
X147399278Y-128769491D01*
X147424089Y-128836011D01*
X147408998Y-128905385D01*
X147399278Y-128920509D01*
X147375203Y-128952669D01*
X147324909Y-129087515D01*
X147318500Y-129147121D01*
X147318500Y-131042864D01*
X147318502Y-131042885D01*
X147324908Y-131102480D01*
X147324908Y-131102481D01*
X147375201Y-131237326D01*
X147375203Y-131237329D01*
X147461453Y-131352546D01*
X147519061Y-131395671D01*
X147576669Y-131438796D01*
X147576671Y-131438796D01*
X147576673Y-131438798D01*
X147637030Y-131461309D01*
X147711514Y-131489090D01*
X147711517Y-131489091D01*
X147771127Y-131495500D01*
X150366872Y-131495499D01*
X150426483Y-131489091D01*
X150561331Y-131438796D01*
X150676546Y-131352546D01*
X150762796Y-131237331D01*
X150813091Y-131102483D01*
X150819500Y-131042873D01*
X150819499Y-130011230D01*
X153218500Y-130011230D01*
X153218500Y-130178769D01*
X153251185Y-130343085D01*
X153269964Y-130388420D01*
X153315297Y-130497863D01*
X153361835Y-130567512D01*
X153408373Y-130637161D01*
X153408378Y-130637167D01*
X153526832Y-130755621D01*
X153526838Y-130755626D01*
X153666137Y-130848703D01*
X153820918Y-130912816D01*
X153985233Y-130945500D01*
X153985234Y-130945500D01*
X154152766Y-130945500D01*
X154152767Y-130945500D01*
X154317082Y-130912816D01*
X154471863Y-130848703D01*
X154611162Y-130755626D01*
X154729626Y-130637162D01*
X154822703Y-130497863D01*
X154886816Y-130343082D01*
X154919500Y-130178767D01*
X154919500Y-130011233D01*
X154919499Y-130011230D01*
X155718500Y-130011230D01*
X155718500Y-130178769D01*
X155751185Y-130343085D01*
X155769964Y-130388420D01*
X155815297Y-130497863D01*
X155861835Y-130567512D01*
X155908373Y-130637161D01*
X155908378Y-130637167D01*
X156026832Y-130755621D01*
X156026838Y-130755626D01*
X156166137Y-130848703D01*
X156320918Y-130912816D01*
X156485233Y-130945500D01*
X156485234Y-130945500D01*
X156652766Y-130945500D01*
X156652767Y-130945500D01*
X156817082Y-130912816D01*
X156971863Y-130848703D01*
X157111162Y-130755626D01*
X157229626Y-130637162D01*
X157322703Y-130497863D01*
X157386816Y-130343082D01*
X157419500Y-130178767D01*
X157419500Y-130011233D01*
X157386816Y-129846918D01*
X157322703Y-129692137D01*
X157229626Y-129552838D01*
X157229621Y-129552832D01*
X157111167Y-129434378D01*
X157111161Y-129434373D01*
X156971864Y-129341298D01*
X156971865Y-129341298D01*
X156971863Y-129341297D01*
X156862420Y-129295964D01*
X156817085Y-129277185D01*
X156817083Y-129277184D01*
X156817082Y-129277184D01*
X156734368Y-129260731D01*
X156652769Y-129244500D01*
X156652767Y-129244500D01*
X156485233Y-129244500D01*
X156485230Y-129244500D01*
X156362830Y-129268847D01*
X156320918Y-129277184D01*
X156320917Y-129277184D01*
X156320914Y-129277185D01*
X156166135Y-129341298D01*
X156026838Y-129434373D01*
X156026832Y-129434378D01*
X155908378Y-129552832D01*
X155908373Y-129552838D01*
X155815298Y-129692135D01*
X155751185Y-129846914D01*
X155718500Y-130011230D01*
X154919499Y-130011230D01*
X154886816Y-129846918D01*
X154822703Y-129692137D01*
X154729626Y-129552838D01*
X154729621Y-129552832D01*
X154611167Y-129434378D01*
X154611161Y-129434373D01*
X154471864Y-129341298D01*
X154471865Y-129341298D01*
X154471863Y-129341297D01*
X154362420Y-129295964D01*
X154317085Y-129277185D01*
X154317083Y-129277184D01*
X154317082Y-129277184D01*
X154234368Y-129260731D01*
X154152769Y-129244500D01*
X154152767Y-129244500D01*
X153985233Y-129244500D01*
X153985230Y-129244500D01*
X153862830Y-129268847D01*
X153820918Y-129277184D01*
X153820917Y-129277184D01*
X153820914Y-129277185D01*
X153666135Y-129341298D01*
X153526838Y-129434373D01*
X153526832Y-129434378D01*
X153408378Y-129552832D01*
X153408373Y-129552838D01*
X153315298Y-129692135D01*
X153251185Y-129846914D01*
X153218500Y-130011230D01*
X150819499Y-130011230D01*
X150819499Y-129147128D01*
X150813091Y-129087517D01*
X150762796Y-128952669D01*
X150738721Y-128920509D01*
X150713909Y-128853992D01*
X150728999Y-128784618D01*
X150738716Y-128769497D01*
X150762796Y-128737331D01*
X150813091Y-128602483D01*
X150819500Y-128542873D01*
X150819499Y-126647128D01*
X150813091Y-126587517D01*
X150791800Y-126530435D01*
X150762798Y-126452673D01*
X150762796Y-126452670D01*
X150762796Y-126452669D01*
X150719671Y-126395061D01*
X150676546Y-126337453D01*
X150599591Y-126279845D01*
X150561331Y-126251204D01*
X150561329Y-126251203D01*
X150561326Y-126251201D01*
X150426483Y-126200909D01*
X150426486Y-126200909D01*
X150366878Y-126194500D01*
X147771135Y-126194500D01*
X147771114Y-126194502D01*
X147711519Y-126200908D01*
X147711518Y-126200908D01*
X147576673Y-126251201D01*
X147576670Y-126251203D01*
X147461453Y-126337453D01*
X147375203Y-126452670D01*
X147375201Y-126452673D01*
X147324909Y-126587515D01*
X147318500Y-126647121D01*
X63459652Y-126647121D01*
X65095543Y-125011230D01*
X148218500Y-125011230D01*
X148218500Y-125011233D01*
X148218500Y-125178767D01*
X148251184Y-125343082D01*
X148315297Y-125497863D01*
X148315298Y-125497864D01*
X148408373Y-125637161D01*
X148408378Y-125637167D01*
X148526832Y-125755621D01*
X148526838Y-125755626D01*
X148666137Y-125848703D01*
X148794357Y-125901814D01*
X148820915Y-125912815D01*
X148820916Y-125912815D01*
X148820918Y-125912816D01*
X148985233Y-125945500D01*
X149152767Y-125945500D01*
X149317082Y-125912816D01*
X149471863Y-125848703D01*
X149611162Y-125755626D01*
X149729626Y-125637162D01*
X149822703Y-125497863D01*
X149886816Y-125343082D01*
X149919500Y-125178767D01*
X149919500Y-125011233D01*
X149886816Y-124846918D01*
X149822703Y-124692137D01*
X149729626Y-124552838D01*
X149729621Y-124552832D01*
X149611167Y-124434378D01*
X149611161Y-124434373D01*
X149471864Y-124341298D01*
X149471865Y-124341298D01*
X149471863Y-124341297D01*
X149317082Y-124277184D01*
X149224963Y-124258860D01*
X149167846Y-124247499D01*
X149167844Y-124247499D01*
X149152767Y-124244500D01*
X148985233Y-124244500D01*
X148970156Y-124247499D01*
X148970152Y-124247499D01*
X148872157Y-124266991D01*
X148820918Y-124277184D01*
X148820916Y-124277184D01*
X148820915Y-124277185D01*
X148666135Y-124341298D01*
X148526838Y-124434373D01*
X148526832Y-124434378D01*
X148408378Y-124552832D01*
X148408373Y-124552838D01*
X148315298Y-124692135D01*
X148251185Y-124846914D01*
X148218500Y-125011230D01*
X65095543Y-125011230D01*
X70959653Y-119147121D01*
X147318500Y-119147121D01*
X147318500Y-121042864D01*
X147318502Y-121042885D01*
X147324908Y-121102480D01*
X147324908Y-121102481D01*
X147375203Y-121237330D01*
X147399278Y-121269491D01*
X147424089Y-121336011D01*
X147408998Y-121405385D01*
X147399278Y-121420509D01*
X147375203Y-121452669D01*
X147324909Y-121587515D01*
X147318500Y-121647121D01*
X147318500Y-123542864D01*
X147318502Y-123542885D01*
X147324908Y-123602480D01*
X147324908Y-123602481D01*
X147375201Y-123737326D01*
X147375203Y-123737329D01*
X147461453Y-123852546D01*
X147519061Y-123895671D01*
X147576669Y-123938796D01*
X147576671Y-123938796D01*
X147576673Y-123938798D01*
X147637030Y-123961309D01*
X147711514Y-123989090D01*
X147711517Y-123989091D01*
X147771127Y-123995500D01*
X150366872Y-123995499D01*
X150426483Y-123989091D01*
X150561331Y-123938796D01*
X150676546Y-123852546D01*
X150762796Y-123737331D01*
X150813091Y-123602483D01*
X150819500Y-123542873D01*
X150819499Y-121647128D01*
X150813091Y-121587517D01*
X150762796Y-121452669D01*
X150738721Y-121420509D01*
X150713909Y-121353992D01*
X150728999Y-121284618D01*
X150738716Y-121269497D01*
X150762796Y-121237331D01*
X150813091Y-121102483D01*
X150819500Y-121042873D01*
X150819499Y-120011230D01*
X153218500Y-120011230D01*
X153218500Y-120011233D01*
X153218500Y-120178767D01*
X153251184Y-120343082D01*
X153315297Y-120497863D01*
X153315298Y-120497864D01*
X153408373Y-120637161D01*
X153408378Y-120637167D01*
X153526832Y-120755621D01*
X153526838Y-120755626D01*
X153666137Y-120848703D01*
X153820918Y-120912816D01*
X153985233Y-120945500D01*
X153985234Y-120945500D01*
X154152766Y-120945500D01*
X154152767Y-120945500D01*
X154317082Y-120912816D01*
X154471863Y-120848703D01*
X154611162Y-120755626D01*
X154729626Y-120637162D01*
X154822703Y-120497863D01*
X154886816Y-120343082D01*
X154919500Y-120178767D01*
X154919500Y-120011233D01*
X154919499Y-120011230D01*
X155718500Y-120011230D01*
X155718500Y-120011233D01*
X155718500Y-120178767D01*
X155751184Y-120343082D01*
X155815297Y-120497863D01*
X155815298Y-120497864D01*
X155908373Y-120637161D01*
X155908378Y-120637167D01*
X156026832Y-120755621D01*
X156026838Y-120755626D01*
X156166137Y-120848703D01*
X156320918Y-120912816D01*
X156485233Y-120945500D01*
X156485234Y-120945500D01*
X156652766Y-120945500D01*
X156652767Y-120945500D01*
X156817082Y-120912816D01*
X156971863Y-120848703D01*
X157111162Y-120755626D01*
X157229626Y-120637162D01*
X157322703Y-120497863D01*
X157386816Y-120343082D01*
X157419500Y-120178767D01*
X157419500Y-120011233D01*
X157386816Y-119846918D01*
X157322703Y-119692137D01*
X157229626Y-119552838D01*
X157229621Y-119552832D01*
X157111167Y-119434378D01*
X157111161Y-119434373D01*
X156971864Y-119341298D01*
X156971865Y-119341298D01*
X156971863Y-119341297D01*
X156862420Y-119295964D01*
X156817085Y-119277185D01*
X156817083Y-119277184D01*
X156817082Y-119277184D01*
X156734368Y-119260731D01*
X156652769Y-119244500D01*
X156652767Y-119244500D01*
X156485233Y-119244500D01*
X156485230Y-119244500D01*
X156362830Y-119268847D01*
X156320918Y-119277184D01*
X156320917Y-119277184D01*
X156320914Y-119277185D01*
X156166135Y-119341298D01*
X156026838Y-119434373D01*
X156026832Y-119434378D01*
X155908378Y-119552832D01*
X155908373Y-119552838D01*
X155815298Y-119692135D01*
X155751185Y-119846914D01*
X155718500Y-120011230D01*
X154919499Y-120011230D01*
X154886816Y-119846918D01*
X154822703Y-119692137D01*
X154729626Y-119552838D01*
X154729621Y-119552832D01*
X154611167Y-119434378D01*
X154611161Y-119434373D01*
X154471864Y-119341298D01*
X154471865Y-119341298D01*
X154471863Y-119341297D01*
X154362420Y-119295964D01*
X154317085Y-119277185D01*
X154317083Y-119277184D01*
X154317082Y-119277184D01*
X154234368Y-119260731D01*
X154152769Y-119244500D01*
X154152767Y-119244500D01*
X153985233Y-119244500D01*
X153985230Y-119244500D01*
X153862830Y-119268847D01*
X153820918Y-119277184D01*
X153820917Y-119277184D01*
X153820914Y-119277185D01*
X153666135Y-119341298D01*
X153526838Y-119434373D01*
X153526832Y-119434378D01*
X153408378Y-119552832D01*
X153408373Y-119552838D01*
X153315298Y-119692135D01*
X153251185Y-119846914D01*
X153218500Y-120011230D01*
X150819499Y-120011230D01*
X150819499Y-119147128D01*
X150813091Y-119087517D01*
X150791800Y-119030435D01*
X150762798Y-118952673D01*
X150762796Y-118952670D01*
X150762796Y-118952669D01*
X150719671Y-118895061D01*
X150676546Y-118837453D01*
X150599591Y-118779845D01*
X150561331Y-118751204D01*
X150561329Y-118751203D01*
X150561326Y-118751201D01*
X150426483Y-118700909D01*
X150426486Y-118700909D01*
X150366873Y-118694500D01*
X147771135Y-118694500D01*
X147771114Y-118694502D01*
X147711519Y-118700908D01*
X147711518Y-118700908D01*
X147576673Y-118751201D01*
X147576670Y-118751203D01*
X147461453Y-118837453D01*
X147375203Y-118952670D01*
X147375201Y-118952673D01*
X147324909Y-119087515D01*
X147318500Y-119147121D01*
X70959653Y-119147121D01*
X71052117Y-119054657D01*
X75494369Y-114612405D01*
X75556681Y-114578379D01*
X75583464Y-114575500D01*
X154975469Y-114575500D01*
X154997404Y-114575500D01*
X155002611Y-114575608D01*
G37*
%TD.AperFunction*%
%TD*%
M02*
