%TF.GenerationSoftware,KiCad,Pcbnew,9.0.1+1*%
%TF.CreationDate,2025-09-02T22:49:04+00:00*%
%TF.ProjectId,rcbus-ymf262,72636275-732d-4796-9d66-3236322e6b69,@version@*%
%TF.SameCoordinates,Original*%
%TF.FileFunction,Drillmap*%
%TF.FilePolarity,Positive*%
%FSLAX45Y45*%
G04 Gerber Fmt 4.5, Leading zero omitted, Abs format (unit mm)*
G04 Created by KiCad (PCBNEW 9.0.1+1) date 2025-09-02 22:49:04*
%MOMM*%
%LPD*%
G01*
G04 APERTURE LIST*
%ADD10C,0.150000*%
%ADD11C,0.200000*%
%ADD12C,0.100000*%
G04 APERTURE END LIST*
D10*
X15836900Y-12268200D02*
X15836900Y-12750800D01*
X16050000Y-12153900D02*
X16050000Y-12000000D01*
X15500000Y-11450000D02*
X7550000Y-11450000D01*
X15500000Y-11450000D02*
G75*
G02*
X16050000Y-12000000I0J-550000D01*
G01*
X16050000Y-12153900D02*
X15951200Y-12153900D01*
X16050000Y-12865100D02*
X15951200Y-12865100D01*
X6050000Y-12950000D02*
X7550000Y-11450000D01*
X6050000Y-12950000D02*
X6050000Y-16450000D01*
X15951200Y-12865100D02*
G75*
G02*
X15836900Y-12750800I0J114300D01*
G01*
X16050000Y-16450000D02*
X16050000Y-12865100D01*
X6050000Y-16450000D02*
X16050000Y-16450000D01*
X15836900Y-12268200D02*
G75*
G02*
X15951200Y-12153900I114300J0D01*
G01*
D11*
D12*
X6083490Y-12983490D02*
X6116510Y-13016510D01*
X6116510Y-12983490D02*
X6083490Y-13016510D01*
X6083490Y-13483490D02*
X6116510Y-13516510D01*
X6116510Y-13483490D02*
X6083490Y-13516510D01*
X6083490Y-13983490D02*
X6116510Y-14016510D01*
X6116510Y-13983490D02*
X6083490Y-14016510D01*
X6083490Y-14483490D02*
X6116510Y-14516510D01*
X6116510Y-14483490D02*
X6083490Y-14516510D01*
X6083490Y-14983490D02*
X6116510Y-15016510D01*
X6116510Y-14983490D02*
X6083490Y-15016510D01*
X6083490Y-15483490D02*
X6116510Y-15516510D01*
X6116510Y-15483490D02*
X6083490Y-15516510D01*
X6083490Y-15983490D02*
X6116510Y-16016510D01*
X6116510Y-15983490D02*
X6083490Y-16016510D01*
X6583490Y-12483490D02*
X6616510Y-12516510D01*
X6616510Y-12483490D02*
X6583490Y-12516510D01*
X6583490Y-13483490D02*
X6616510Y-13516510D01*
X6616510Y-13483490D02*
X6583490Y-13516510D01*
X6583490Y-13983490D02*
X6616510Y-14016510D01*
X6616510Y-13983490D02*
X6583490Y-14016510D01*
X7083490Y-11983490D02*
X7116510Y-12016510D01*
X7116510Y-11983490D02*
X7083490Y-12016510D01*
X7083490Y-12483490D02*
X7116510Y-12516510D01*
X7116510Y-12483490D02*
X7083490Y-12516510D01*
X7083490Y-12983490D02*
X7116510Y-13016510D01*
X7116510Y-12983490D02*
X7083490Y-13016510D01*
X7083490Y-13483490D02*
X7116510Y-13516510D01*
X7116510Y-13483490D02*
X7083490Y-13516510D01*
X7083490Y-13983490D02*
X7116510Y-14016510D01*
X7116510Y-13983490D02*
X7083490Y-14016510D01*
X7279150Y-14464970D02*
X7312170Y-14497990D01*
X7312170Y-14464970D02*
X7279150Y-14497990D01*
X7583490Y-11483490D02*
X7616510Y-11516510D01*
X7616510Y-11483490D02*
X7583490Y-11516510D01*
X7583490Y-11983490D02*
X7616510Y-12016510D01*
X7616510Y-11983490D02*
X7583490Y-12016510D01*
X7583490Y-12483490D02*
X7616510Y-12516510D01*
X7616510Y-12483490D02*
X7583490Y-12516510D01*
X7583490Y-12983490D02*
X7616510Y-13016510D01*
X7616510Y-12983490D02*
X7583490Y-13016510D01*
X7583490Y-13483490D02*
X7616510Y-13516510D01*
X7616510Y-13483490D02*
X7583490Y-13516510D01*
X7583490Y-13983490D02*
X7616510Y-14016510D01*
X7616510Y-13983490D02*
X7583490Y-14016510D01*
X7597792Y-14389188D02*
X7630812Y-14422208D01*
X7630812Y-14389188D02*
X7597792Y-14422208D01*
X7653490Y-14583490D02*
X7686510Y-14616510D01*
X7686510Y-14583490D02*
X7653490Y-14616510D01*
X7653490Y-14833490D02*
X7686510Y-14866510D01*
X7686510Y-14833490D02*
X7653490Y-14866510D01*
X7653490Y-15083490D02*
X7686510Y-15116510D01*
X7686510Y-15083490D02*
X7653490Y-15116510D01*
X7653490Y-15333490D02*
X7686510Y-15366510D01*
X7686510Y-15333490D02*
X7653490Y-15366510D01*
X7653490Y-15583490D02*
X7686510Y-15616510D01*
X7686510Y-15583490D02*
X7653490Y-15616510D01*
X7864014Y-15330666D02*
X7897034Y-15363686D01*
X7897034Y-15330666D02*
X7864014Y-15363686D01*
X7901166Y-15171575D02*
X7934186Y-15204595D01*
X7934186Y-15171575D02*
X7901166Y-15204595D01*
X8070916Y-15128933D02*
X8103936Y-15161953D01*
X8103936Y-15128933D02*
X8070916Y-15161953D01*
X8083490Y-11483490D02*
X8116510Y-11516510D01*
X8116510Y-11483490D02*
X8083490Y-11516510D01*
X8083490Y-11983490D02*
X8116510Y-12016510D01*
X8116510Y-11983490D02*
X8083490Y-12016510D01*
X8083490Y-12483490D02*
X8116510Y-12516510D01*
X8116510Y-12483490D02*
X8083490Y-12516510D01*
X8083490Y-12983490D02*
X8116510Y-13016510D01*
X8116510Y-12983490D02*
X8083490Y-13016510D01*
X8120312Y-15295312D02*
X8153332Y-15328332D01*
X8153332Y-15295312D02*
X8120312Y-15328332D01*
X8277230Y-15943490D02*
X8310250Y-15976510D01*
X8310250Y-15943490D02*
X8277230Y-15976510D01*
X8356597Y-14571680D02*
X8389617Y-14604700D01*
X8389617Y-14571680D02*
X8356597Y-14604700D01*
X8483490Y-15428490D02*
X8516510Y-15461510D01*
X8516510Y-15428490D02*
X8483490Y-15461510D01*
X8573081Y-15107490D02*
X8606101Y-15140510D01*
X8606101Y-15107490D02*
X8573081Y-15140510D01*
X8581870Y-15328470D02*
X8614890Y-15361490D01*
X8614890Y-15328470D02*
X8581870Y-15361490D01*
X8583490Y-11483490D02*
X8616510Y-11516510D01*
X8616510Y-11483490D02*
X8583490Y-11516510D01*
X8583490Y-11983490D02*
X8616510Y-12016510D01*
X8616510Y-11983490D02*
X8583490Y-12016510D01*
X8583490Y-12483490D02*
X8616510Y-12516510D01*
X8616510Y-12483490D02*
X8583490Y-12516510D01*
X8583490Y-12983490D02*
X8616510Y-13016510D01*
X8616510Y-12983490D02*
X8583490Y-13016510D01*
X8598490Y-13493490D02*
X8631510Y-13526510D01*
X8631510Y-13493490D02*
X8598490Y-13526510D01*
X8833490Y-15030970D02*
X8866510Y-15063990D01*
X8866510Y-15030970D02*
X8833490Y-15063990D01*
X9033490Y-14965250D02*
X9066510Y-14998270D01*
X9066510Y-14965250D02*
X9033490Y-14998270D01*
X9083490Y-11483490D02*
X9116510Y-11516510D01*
X9116510Y-11483490D02*
X9083490Y-11516510D01*
X9083490Y-11983490D02*
X9116510Y-12016510D01*
X9116510Y-11983490D02*
X9083490Y-12016510D01*
X9083490Y-12483490D02*
X9116510Y-12516510D01*
X9116510Y-12483490D02*
X9083490Y-12516510D01*
X9083490Y-12983490D02*
X9116510Y-13016510D01*
X9116510Y-12983490D02*
X9083490Y-13016510D01*
X9132820Y-13533680D02*
X9165840Y-13566700D01*
X9165840Y-13533680D02*
X9132820Y-13566700D01*
X9204750Y-15408490D02*
X9237770Y-15441510D01*
X9237770Y-15408490D02*
X9204750Y-15441510D01*
X9214490Y-15827490D02*
X9247510Y-15860510D01*
X9247510Y-15827490D02*
X9214490Y-15860510D01*
X9576340Y-13597110D02*
X9609360Y-13630130D01*
X9609360Y-13597110D02*
X9576340Y-13630130D01*
X9583490Y-11483490D02*
X9616510Y-11516510D01*
X9616510Y-11483490D02*
X9583490Y-11516510D01*
X9583490Y-11983490D02*
X9616510Y-12016510D01*
X9616510Y-11983490D02*
X9583490Y-12016510D01*
X9583490Y-12483490D02*
X9616510Y-12516510D01*
X9616510Y-12483490D02*
X9583490Y-12516510D01*
X9583490Y-12983490D02*
X9616510Y-13016510D01*
X9616510Y-12983490D02*
X9583490Y-13016510D01*
X9758490Y-15758490D02*
X9791510Y-15791510D01*
X9791510Y-15758490D02*
X9758490Y-15791510D01*
X9846140Y-13576210D02*
X9879160Y-13609230D01*
X9879160Y-13576210D02*
X9846140Y-13609230D01*
X10033490Y-15408490D02*
X10066510Y-15441510D01*
X10066510Y-15408490D02*
X10033490Y-15441510D01*
X10083490Y-11483490D02*
X10116510Y-11516510D01*
X10116510Y-11483490D02*
X10083490Y-11516510D01*
X10083490Y-11983490D02*
X10116510Y-12016510D01*
X10116510Y-11983490D02*
X10083490Y-12016510D01*
X10083490Y-12483490D02*
X10116510Y-12516510D01*
X10116510Y-12483490D02*
X10083490Y-12516510D01*
X10083490Y-12983490D02*
X10116510Y-13016510D01*
X10116510Y-12983490D02*
X10083490Y-13016510D01*
X10583490Y-11483490D02*
X10616510Y-11516510D01*
X10616510Y-11483490D02*
X10583490Y-11516510D01*
X10583490Y-11983490D02*
X10616510Y-12016510D01*
X10616510Y-11983490D02*
X10583490Y-12016510D01*
X10583490Y-12483490D02*
X10616510Y-12516510D01*
X10616510Y-12483490D02*
X10583490Y-12516510D01*
X10583490Y-12983490D02*
X10616510Y-13016510D01*
X10616510Y-12983490D02*
X10583490Y-13016510D01*
X11483490Y-13208490D02*
X11516510Y-13241510D01*
X11516510Y-13208490D02*
X11483490Y-13241510D01*
X11563490Y-14123490D02*
X11596510Y-14156510D01*
X11596510Y-14123490D02*
X11563490Y-14156510D01*
X11653490Y-14523490D02*
X11686510Y-14556510D01*
X11686510Y-14523490D02*
X11653490Y-14556510D01*
X11883490Y-12058490D02*
X11916510Y-12091510D01*
X11916510Y-12058490D02*
X11883490Y-12091510D01*
X11908490Y-13358490D02*
X11941510Y-13391510D01*
X11941510Y-13358490D02*
X11908490Y-13391510D01*
X11937231Y-14497863D02*
X11970251Y-14530883D01*
X11970251Y-14497863D02*
X11937231Y-14530883D01*
X12033490Y-12433490D02*
X12066510Y-12466510D01*
X12066510Y-12433490D02*
X12033490Y-12466510D01*
X12363490Y-15833490D02*
X12396510Y-15866510D01*
X12396510Y-15833490D02*
X12363490Y-15866510D01*
X12433490Y-12783490D02*
X12466510Y-12816510D01*
X12466510Y-12783490D02*
X12433490Y-12816510D01*
X12583490Y-13083490D02*
X12616510Y-13116510D01*
X12616510Y-13083490D02*
X12583490Y-13116510D01*
X12831990Y-15833490D02*
X12865010Y-15866510D01*
X12865010Y-15833490D02*
X12831990Y-15866510D01*
X14353700Y-11582240D02*
X14386720Y-11615260D01*
X14386720Y-11582240D02*
X14353700Y-11615260D01*
X14363490Y-11993490D02*
X14396510Y-12026510D01*
X14396510Y-11993490D02*
X14363490Y-12026510D01*
X14946900Y-12009500D02*
G75*
G02*
X14866900Y-12009500I-40000J0D01*
G01*
X14866900Y-12009500D02*
G75*
G02*
X14946900Y-12009500I40000J0D01*
G01*
X14941900Y-11969500D02*
X14871900Y-11969500D01*
X14871900Y-12049500D02*
G75*
G02*
X14871900Y-11969500I0J40000D01*
G01*
X14871900Y-12049500D02*
X14941900Y-12049500D01*
X14941900Y-12049500D02*
G75*
G03*
X14941900Y-11969500I0J40000D01*
G01*
X14946900Y-12259500D02*
G75*
G02*
X14866900Y-12259500I-40000J0D01*
G01*
X14866900Y-12259500D02*
G75*
G02*
X14946900Y-12259500I40000J0D01*
G01*
X14941900Y-12219500D02*
X14871900Y-12219500D01*
X14871900Y-12299500D02*
G75*
G02*
X14871900Y-12219500I0J40000D01*
G01*
X14871900Y-12299500D02*
X14941900Y-12299500D01*
X14941900Y-12299500D02*
G75*
G03*
X14941900Y-12219500I0J40000D01*
G01*
X14946900Y-12759500D02*
G75*
G02*
X14866900Y-12759500I-40000J0D01*
G01*
X14866900Y-12759500D02*
G75*
G02*
X14946900Y-12759500I40000J0D01*
G01*
X14941900Y-12719500D02*
X14871900Y-12719500D01*
X14871900Y-12799500D02*
G75*
G02*
X14871900Y-12719500I0J40000D01*
G01*
X14871900Y-12799500D02*
X14941900Y-12799500D01*
X14941900Y-12799500D02*
G75*
G03*
X14941900Y-12719500I0J40000D01*
G01*
X14946900Y-13009500D02*
G75*
G02*
X14866900Y-13009500I-40000J0D01*
G01*
X14866900Y-13009500D02*
G75*
G02*
X14946900Y-13009500I40000J0D01*
G01*
X14941900Y-12969500D02*
X14871900Y-12969500D01*
X14871900Y-13049500D02*
G75*
G02*
X14871900Y-12969500I0J40000D01*
G01*
X14871900Y-13049500D02*
X14941900Y-13049500D01*
X14941900Y-13049500D02*
G75*
G03*
X14941900Y-12969500I0J40000D01*
G01*
X15446900Y-12509500D02*
G75*
G02*
X15366900Y-12509500I-40000J0D01*
G01*
X15366900Y-12509500D02*
G75*
G02*
X15446900Y-12509500I40000J0D01*
G01*
X15446900Y-12544500D02*
X15446900Y-12474500D01*
X15366900Y-12474500D02*
G75*
G02*
X15446900Y-12474500I40000J0D01*
G01*
X15366900Y-12474500D02*
X15366900Y-12544500D01*
X15366900Y-12544500D02*
G75*
G03*
X15446900Y-12544500I40000J0D01*
G01*
X6200000Y-16250000D02*
X6200000Y-16350000D01*
X6150000Y-16300000D02*
X6250000Y-16300000D01*
X6246000Y-14296000D02*
X6246000Y-14396000D01*
X6196000Y-14346000D02*
X6296000Y-14346000D01*
X6246000Y-14550000D02*
X6246000Y-14650000D01*
X6196000Y-14600000D02*
X6296000Y-14600000D01*
X6246000Y-14804000D02*
X6246000Y-14904000D01*
X6196000Y-14854000D02*
X6296000Y-14854000D01*
X6246000Y-15058000D02*
X6246000Y-15158000D01*
X6196000Y-15108000D02*
X6296000Y-15108000D01*
X6246000Y-15312000D02*
X6246000Y-15412000D01*
X6196000Y-15362000D02*
X6296000Y-15362000D01*
X6246000Y-15566000D02*
X6246000Y-15666000D01*
X6196000Y-15616000D02*
X6296000Y-15616000D01*
X6454000Y-16250000D02*
X6454000Y-16350000D01*
X6404000Y-16300000D02*
X6504000Y-16300000D01*
X6500000Y-14296000D02*
X6500000Y-14396000D01*
X6450000Y-14346000D02*
X6550000Y-14346000D01*
X6500000Y-14550000D02*
X6500000Y-14650000D01*
X6450000Y-14600000D02*
X6550000Y-14600000D01*
X6500000Y-14804000D02*
X6500000Y-14904000D01*
X6450000Y-14854000D02*
X6550000Y-14854000D01*
X6500000Y-15058000D02*
X6500000Y-15158000D01*
X6450000Y-15108000D02*
X6550000Y-15108000D01*
X6500000Y-15312000D02*
X6500000Y-15412000D01*
X6450000Y-15362000D02*
X6550000Y-15362000D01*
X6500000Y-15566000D02*
X6500000Y-15666000D01*
X6450000Y-15616000D02*
X6550000Y-15616000D01*
X6708000Y-16250000D02*
X6708000Y-16350000D01*
X6658000Y-16300000D02*
X6758000Y-16300000D01*
X6962000Y-16250000D02*
X6962000Y-16350000D01*
X6912000Y-16300000D02*
X7012000Y-16300000D01*
X7216000Y-16250000D02*
X7216000Y-16350000D01*
X7166000Y-16300000D02*
X7266000Y-16300000D01*
X7470000Y-16250000D02*
X7470000Y-16350000D01*
X7420000Y-16300000D02*
X7520000Y-16300000D01*
X7724000Y-16250000D02*
X7724000Y-16350000D01*
X7674000Y-16300000D02*
X7774000Y-16300000D01*
X7978000Y-16250000D02*
X7978000Y-16350000D01*
X7928000Y-16300000D02*
X8028000Y-16300000D01*
X8232000Y-16250000D02*
X8232000Y-16350000D01*
X8182000Y-16300000D02*
X8282000Y-16300000D01*
X8486000Y-16250000D02*
X8486000Y-16350000D01*
X8436000Y-16300000D02*
X8536000Y-16300000D01*
X8740000Y-16250000D02*
X8740000Y-16350000D01*
X8690000Y-16300000D02*
X8790000Y-16300000D01*
X8994000Y-16250000D02*
X8994000Y-16350000D01*
X8944000Y-16300000D02*
X9044000Y-16300000D01*
X9248000Y-16250000D02*
X9248000Y-16350000D01*
X9198000Y-16300000D02*
X9298000Y-16300000D01*
X9502000Y-16250000D02*
X9502000Y-16350000D01*
X9452000Y-16300000D02*
X9552000Y-16300000D01*
X9756000Y-16250000D02*
X9756000Y-16350000D01*
X9706000Y-16300000D02*
X9806000Y-16300000D01*
X10010000Y-16250000D02*
X10010000Y-16350000D01*
X9960000Y-16300000D02*
X10060000Y-16300000D01*
X10264000Y-16250000D02*
X10264000Y-16350000D01*
X10214000Y-16300000D02*
X10314000Y-16300000D01*
X10518000Y-16250000D02*
X10518000Y-16350000D01*
X10468000Y-16300000D02*
X10568000Y-16300000D01*
X10772000Y-16250000D02*
X10772000Y-16350000D01*
X10722000Y-16300000D02*
X10822000Y-16300000D01*
X11026000Y-16250000D02*
X11026000Y-16350000D01*
X10976000Y-16300000D02*
X11076000Y-16300000D01*
X11280000Y-16250000D02*
X11280000Y-16350000D01*
X11230000Y-16300000D02*
X11330000Y-16300000D01*
X11534000Y-16250000D02*
X11534000Y-16350000D01*
X11484000Y-16300000D02*
X11584000Y-16300000D01*
X11788000Y-16250000D02*
X11788000Y-16350000D01*
X11738000Y-16300000D02*
X11838000Y-16300000D01*
X12042000Y-16250000D02*
X12042000Y-16350000D01*
X11992000Y-16300000D02*
X12092000Y-16300000D01*
X12296000Y-16250000D02*
X12296000Y-16350000D01*
X12246000Y-16300000D02*
X12346000Y-16300000D01*
X12550000Y-16250000D02*
X12550000Y-16350000D01*
X12500000Y-16300000D02*
X12600000Y-16300000D01*
X12804000Y-16250000D02*
X12804000Y-16350000D01*
X12754000Y-16300000D02*
X12854000Y-16300000D01*
X13058000Y-16250000D02*
X13058000Y-16350000D01*
X13008000Y-16300000D02*
X13108000Y-16300000D01*
X13312000Y-16250000D02*
X13312000Y-16350000D01*
X13262000Y-16300000D02*
X13362000Y-16300000D01*
X13566000Y-16250000D02*
X13566000Y-16350000D01*
X13516000Y-16300000D02*
X13616000Y-16300000D01*
X13820000Y-16250000D02*
X13820000Y-16350000D01*
X13770000Y-16300000D02*
X13870000Y-16300000D01*
X14074000Y-16250000D02*
X14074000Y-16350000D01*
X14024000Y-16300000D02*
X14124000Y-16300000D01*
X14328000Y-16250000D02*
X14328000Y-16350000D01*
X14278000Y-16300000D02*
X14378000Y-16300000D01*
X14582000Y-16250000D02*
X14582000Y-16350000D01*
X14532000Y-16300000D02*
X14632000Y-16300000D01*
X14836000Y-16250000D02*
X14836000Y-16350000D01*
X14786000Y-16300000D02*
X14886000Y-16300000D01*
X15090000Y-16250000D02*
X15090000Y-16350000D01*
X15040000Y-16300000D02*
X15140000Y-16300000D01*
X15344000Y-16250000D02*
X15344000Y-16350000D01*
X15294000Y-16300000D02*
X15394000Y-16300000D01*
X15598000Y-16250000D02*
X15598000Y-16350000D01*
X15548000Y-16300000D02*
X15648000Y-16300000D01*
X15852000Y-16250000D02*
X15852000Y-16350000D01*
X15802000Y-16300000D02*
X15902000Y-16300000D01*
D11*
X6303277Y-16768984D02*
X6303277Y-16568984D01*
X6303277Y-16568984D02*
X6350896Y-16568984D01*
X6350896Y-16568984D02*
X6379467Y-16578508D01*
X6379467Y-16578508D02*
X6398515Y-16597555D01*
X6398515Y-16597555D02*
X6408039Y-16616603D01*
X6408039Y-16616603D02*
X6417562Y-16654698D01*
X6417562Y-16654698D02*
X6417562Y-16683269D01*
X6417562Y-16683269D02*
X6408039Y-16721365D01*
X6408039Y-16721365D02*
X6398515Y-16740412D01*
X6398515Y-16740412D02*
X6379467Y-16759460D01*
X6379467Y-16759460D02*
X6350896Y-16768984D01*
X6350896Y-16768984D02*
X6303277Y-16768984D01*
X6503277Y-16768984D02*
X6503277Y-16635650D01*
X6503277Y-16673746D02*
X6512801Y-16654698D01*
X6512801Y-16654698D02*
X6522324Y-16645174D01*
X6522324Y-16645174D02*
X6541372Y-16635650D01*
X6541372Y-16635650D02*
X6560420Y-16635650D01*
X6627086Y-16768984D02*
X6627086Y-16635650D01*
X6627086Y-16568984D02*
X6617562Y-16578508D01*
X6617562Y-16578508D02*
X6627086Y-16588031D01*
X6627086Y-16588031D02*
X6636610Y-16578508D01*
X6636610Y-16578508D02*
X6627086Y-16568984D01*
X6627086Y-16568984D02*
X6627086Y-16588031D01*
X6750896Y-16768984D02*
X6731848Y-16759460D01*
X6731848Y-16759460D02*
X6722324Y-16740412D01*
X6722324Y-16740412D02*
X6722324Y-16568984D01*
X6855658Y-16768984D02*
X6836610Y-16759460D01*
X6836610Y-16759460D02*
X6827086Y-16740412D01*
X6827086Y-16740412D02*
X6827086Y-16568984D01*
X7084229Y-16768984D02*
X7084229Y-16568984D01*
X7084229Y-16568984D02*
X7150896Y-16711841D01*
X7150896Y-16711841D02*
X7217562Y-16568984D01*
X7217562Y-16568984D02*
X7217562Y-16768984D01*
X7398515Y-16768984D02*
X7398515Y-16664222D01*
X7398515Y-16664222D02*
X7388991Y-16645174D01*
X7388991Y-16645174D02*
X7369943Y-16635650D01*
X7369943Y-16635650D02*
X7331848Y-16635650D01*
X7331848Y-16635650D02*
X7312801Y-16645174D01*
X7398515Y-16759460D02*
X7379467Y-16768984D01*
X7379467Y-16768984D02*
X7331848Y-16768984D01*
X7331848Y-16768984D02*
X7312801Y-16759460D01*
X7312801Y-16759460D02*
X7303277Y-16740412D01*
X7303277Y-16740412D02*
X7303277Y-16721365D01*
X7303277Y-16721365D02*
X7312801Y-16702317D01*
X7312801Y-16702317D02*
X7331848Y-16692793D01*
X7331848Y-16692793D02*
X7379467Y-16692793D01*
X7379467Y-16692793D02*
X7398515Y-16683269D01*
X7493753Y-16635650D02*
X7493753Y-16835650D01*
X7493753Y-16645174D02*
X7512801Y-16635650D01*
X7512801Y-16635650D02*
X7550896Y-16635650D01*
X7550896Y-16635650D02*
X7569943Y-16645174D01*
X7569943Y-16645174D02*
X7579467Y-16654698D01*
X7579467Y-16654698D02*
X7588991Y-16673746D01*
X7588991Y-16673746D02*
X7588991Y-16730888D01*
X7588991Y-16730888D02*
X7579467Y-16749936D01*
X7579467Y-16749936D02*
X7569943Y-16759460D01*
X7569943Y-16759460D02*
X7550896Y-16768984D01*
X7550896Y-16768984D02*
X7512801Y-16768984D01*
X7512801Y-16768984D02*
X7493753Y-16759460D01*
X7674705Y-16749936D02*
X7684229Y-16759460D01*
X7684229Y-16759460D02*
X7674705Y-16768984D01*
X7674705Y-16768984D02*
X7665182Y-16759460D01*
X7665182Y-16759460D02*
X7674705Y-16749936D01*
X7674705Y-16749936D02*
X7674705Y-16768984D01*
X7674705Y-16645174D02*
X7684229Y-16654698D01*
X7684229Y-16654698D02*
X7674705Y-16664222D01*
X7674705Y-16664222D02*
X7665182Y-16654698D01*
X7665182Y-16654698D02*
X7674705Y-16645174D01*
X7674705Y-16645174D02*
X7674705Y-16664222D01*
D12*
X6009480Y-17080990D02*
X6042500Y-17114010D01*
X6042500Y-17080990D02*
X6009480Y-17114010D01*
D11*
X6341372Y-16988984D02*
X6360420Y-16988984D01*
X6360420Y-16988984D02*
X6379467Y-16998508D01*
X6379467Y-16998508D02*
X6388991Y-17008031D01*
X6388991Y-17008031D02*
X6398515Y-17027079D01*
X6398515Y-17027079D02*
X6408039Y-17065174D01*
X6408039Y-17065174D02*
X6408039Y-17112793D01*
X6408039Y-17112793D02*
X6398515Y-17150889D01*
X6398515Y-17150889D02*
X6388991Y-17169936D01*
X6388991Y-17169936D02*
X6379467Y-17179460D01*
X6379467Y-17179460D02*
X6360420Y-17188984D01*
X6360420Y-17188984D02*
X6341372Y-17188984D01*
X6341372Y-17188984D02*
X6322324Y-17179460D01*
X6322324Y-17179460D02*
X6312801Y-17169936D01*
X6312801Y-17169936D02*
X6303277Y-17150889D01*
X6303277Y-17150889D02*
X6293753Y-17112793D01*
X6293753Y-17112793D02*
X6293753Y-17065174D01*
X6293753Y-17065174D02*
X6303277Y-17027079D01*
X6303277Y-17027079D02*
X6312801Y-17008031D01*
X6312801Y-17008031D02*
X6322324Y-16998508D01*
X6322324Y-16998508D02*
X6341372Y-16988984D01*
X6493753Y-17169936D02*
X6503277Y-17179460D01*
X6503277Y-17179460D02*
X6493753Y-17188984D01*
X6493753Y-17188984D02*
X6484229Y-17179460D01*
X6484229Y-17179460D02*
X6493753Y-17169936D01*
X6493753Y-17169936D02*
X6493753Y-17188984D01*
X6569943Y-16988984D02*
X6693753Y-16988984D01*
X6693753Y-16988984D02*
X6627086Y-17065174D01*
X6627086Y-17065174D02*
X6655658Y-17065174D01*
X6655658Y-17065174D02*
X6674705Y-17074698D01*
X6674705Y-17074698D02*
X6684229Y-17084222D01*
X6684229Y-17084222D02*
X6693753Y-17103270D01*
X6693753Y-17103270D02*
X6693753Y-17150889D01*
X6693753Y-17150889D02*
X6684229Y-17169936D01*
X6684229Y-17169936D02*
X6674705Y-17179460D01*
X6674705Y-17179460D02*
X6655658Y-17188984D01*
X6655658Y-17188984D02*
X6598515Y-17188984D01*
X6598515Y-17188984D02*
X6579467Y-17179460D01*
X6579467Y-17179460D02*
X6569943Y-17169936D01*
X6760420Y-16988984D02*
X6884229Y-16988984D01*
X6884229Y-16988984D02*
X6817562Y-17065174D01*
X6817562Y-17065174D02*
X6846134Y-17065174D01*
X6846134Y-17065174D02*
X6865182Y-17074698D01*
X6865182Y-17074698D02*
X6874705Y-17084222D01*
X6874705Y-17084222D02*
X6884229Y-17103270D01*
X6884229Y-17103270D02*
X6884229Y-17150889D01*
X6884229Y-17150889D02*
X6874705Y-17169936D01*
X6874705Y-17169936D02*
X6865182Y-17179460D01*
X6865182Y-17179460D02*
X6846134Y-17188984D01*
X6846134Y-17188984D02*
X6788991Y-17188984D01*
X6788991Y-17188984D02*
X6769943Y-17179460D01*
X6769943Y-17179460D02*
X6760420Y-17169936D01*
X7008039Y-16988984D02*
X7027086Y-16988984D01*
X7027086Y-16988984D02*
X7046134Y-16998508D01*
X7046134Y-16998508D02*
X7055658Y-17008031D01*
X7055658Y-17008031D02*
X7065182Y-17027079D01*
X7065182Y-17027079D02*
X7074705Y-17065174D01*
X7074705Y-17065174D02*
X7074705Y-17112793D01*
X7074705Y-17112793D02*
X7065182Y-17150889D01*
X7065182Y-17150889D02*
X7055658Y-17169936D01*
X7055658Y-17169936D02*
X7046134Y-17179460D01*
X7046134Y-17179460D02*
X7027086Y-17188984D01*
X7027086Y-17188984D02*
X7008039Y-17188984D01*
X7008039Y-17188984D02*
X6988991Y-17179460D01*
X6988991Y-17179460D02*
X6979467Y-17169936D01*
X6979467Y-17169936D02*
X6969943Y-17150889D01*
X6969943Y-17150889D02*
X6960420Y-17112793D01*
X6960420Y-17112793D02*
X6960420Y-17065174D01*
X6960420Y-17065174D02*
X6969943Y-17027079D01*
X6969943Y-17027079D02*
X6979467Y-17008031D01*
X6979467Y-17008031D02*
X6988991Y-16998508D01*
X6988991Y-16998508D02*
X7008039Y-16988984D01*
X7160420Y-17188984D02*
X7160420Y-17055650D01*
X7160420Y-17074698D02*
X7169943Y-17065174D01*
X7169943Y-17065174D02*
X7188991Y-17055650D01*
X7188991Y-17055650D02*
X7217563Y-17055650D01*
X7217563Y-17055650D02*
X7236610Y-17065174D01*
X7236610Y-17065174D02*
X7246134Y-17084222D01*
X7246134Y-17084222D02*
X7246134Y-17188984D01*
X7246134Y-17084222D02*
X7255658Y-17065174D01*
X7255658Y-17065174D02*
X7274705Y-17055650D01*
X7274705Y-17055650D02*
X7303277Y-17055650D01*
X7303277Y-17055650D02*
X7322324Y-17065174D01*
X7322324Y-17065174D02*
X7331848Y-17084222D01*
X7331848Y-17084222D02*
X7331848Y-17188984D01*
X7427086Y-17188984D02*
X7427086Y-17055650D01*
X7427086Y-17074698D02*
X7436610Y-17065174D01*
X7436610Y-17065174D02*
X7455658Y-17055650D01*
X7455658Y-17055650D02*
X7484229Y-17055650D01*
X7484229Y-17055650D02*
X7503277Y-17065174D01*
X7503277Y-17065174D02*
X7512801Y-17084222D01*
X7512801Y-17084222D02*
X7512801Y-17188984D01*
X7512801Y-17084222D02*
X7522324Y-17065174D01*
X7522324Y-17065174D02*
X7541372Y-17055650D01*
X7541372Y-17055650D02*
X7569943Y-17055650D01*
X7569943Y-17055650D02*
X7588991Y-17065174D01*
X7588991Y-17065174D02*
X7598515Y-17084222D01*
X7598515Y-17084222D02*
X7598515Y-17188984D01*
X7988991Y-16979460D02*
X7817563Y-17236603D01*
X8246134Y-16988984D02*
X8265182Y-16988984D01*
X8265182Y-16988984D02*
X8284229Y-16998508D01*
X8284229Y-16998508D02*
X8293753Y-17008031D01*
X8293753Y-17008031D02*
X8303277Y-17027079D01*
X8303277Y-17027079D02*
X8312801Y-17065174D01*
X8312801Y-17065174D02*
X8312801Y-17112793D01*
X8312801Y-17112793D02*
X8303277Y-17150889D01*
X8303277Y-17150889D02*
X8293753Y-17169936D01*
X8293753Y-17169936D02*
X8284229Y-17179460D01*
X8284229Y-17179460D02*
X8265182Y-17188984D01*
X8265182Y-17188984D02*
X8246134Y-17188984D01*
X8246134Y-17188984D02*
X8227086Y-17179460D01*
X8227086Y-17179460D02*
X8217563Y-17169936D01*
X8217563Y-17169936D02*
X8208039Y-17150889D01*
X8208039Y-17150889D02*
X8198515Y-17112793D01*
X8198515Y-17112793D02*
X8198515Y-17065174D01*
X8198515Y-17065174D02*
X8208039Y-17027079D01*
X8208039Y-17027079D02*
X8217563Y-17008031D01*
X8217563Y-17008031D02*
X8227086Y-16998508D01*
X8227086Y-16998508D02*
X8246134Y-16988984D01*
X8398515Y-17169936D02*
X8408039Y-17179460D01*
X8408039Y-17179460D02*
X8398515Y-17188984D01*
X8398515Y-17188984D02*
X8388991Y-17179460D01*
X8388991Y-17179460D02*
X8398515Y-17169936D01*
X8398515Y-17169936D02*
X8398515Y-17188984D01*
X8531848Y-16988984D02*
X8550896Y-16988984D01*
X8550896Y-16988984D02*
X8569944Y-16998508D01*
X8569944Y-16998508D02*
X8579468Y-17008031D01*
X8579468Y-17008031D02*
X8588991Y-17027079D01*
X8588991Y-17027079D02*
X8598515Y-17065174D01*
X8598515Y-17065174D02*
X8598515Y-17112793D01*
X8598515Y-17112793D02*
X8588991Y-17150889D01*
X8588991Y-17150889D02*
X8579468Y-17169936D01*
X8579468Y-17169936D02*
X8569944Y-17179460D01*
X8569944Y-17179460D02*
X8550896Y-17188984D01*
X8550896Y-17188984D02*
X8531848Y-17188984D01*
X8531848Y-17188984D02*
X8512801Y-17179460D01*
X8512801Y-17179460D02*
X8503277Y-17169936D01*
X8503277Y-17169936D02*
X8493753Y-17150889D01*
X8493753Y-17150889D02*
X8484229Y-17112793D01*
X8484229Y-17112793D02*
X8484229Y-17065174D01*
X8484229Y-17065174D02*
X8493753Y-17027079D01*
X8493753Y-17027079D02*
X8503277Y-17008031D01*
X8503277Y-17008031D02*
X8512801Y-16998508D01*
X8512801Y-16998508D02*
X8531848Y-16988984D01*
X8788991Y-17188984D02*
X8674706Y-17188984D01*
X8731848Y-17188984D02*
X8731848Y-16988984D01*
X8731848Y-16988984D02*
X8712801Y-17017555D01*
X8712801Y-17017555D02*
X8693753Y-17036603D01*
X8693753Y-17036603D02*
X8674706Y-17046127D01*
X8855658Y-16988984D02*
X8979468Y-16988984D01*
X8979468Y-16988984D02*
X8912801Y-17065174D01*
X8912801Y-17065174D02*
X8941372Y-17065174D01*
X8941372Y-17065174D02*
X8960420Y-17074698D01*
X8960420Y-17074698D02*
X8969944Y-17084222D01*
X8969944Y-17084222D02*
X8979468Y-17103270D01*
X8979468Y-17103270D02*
X8979468Y-17150889D01*
X8979468Y-17150889D02*
X8969944Y-17169936D01*
X8969944Y-17169936D02*
X8960420Y-17179460D01*
X8960420Y-17179460D02*
X8941372Y-17188984D01*
X8941372Y-17188984D02*
X8884229Y-17188984D01*
X8884229Y-17188984D02*
X8865182Y-17179460D01*
X8865182Y-17179460D02*
X8855658Y-17169936D01*
X9103277Y-16988984D02*
X9122325Y-16988984D01*
X9122325Y-16988984D02*
X9141372Y-16998508D01*
X9141372Y-16998508D02*
X9150896Y-17008031D01*
X9150896Y-17008031D02*
X9160420Y-17027079D01*
X9160420Y-17027079D02*
X9169944Y-17065174D01*
X9169944Y-17065174D02*
X9169944Y-17112793D01*
X9169944Y-17112793D02*
X9160420Y-17150889D01*
X9160420Y-17150889D02*
X9150896Y-17169936D01*
X9150896Y-17169936D02*
X9141372Y-17179460D01*
X9141372Y-17179460D02*
X9122325Y-17188984D01*
X9122325Y-17188984D02*
X9103277Y-17188984D01*
X9103277Y-17188984D02*
X9084229Y-17179460D01*
X9084229Y-17179460D02*
X9074706Y-17169936D01*
X9074706Y-17169936D02*
X9065182Y-17150889D01*
X9065182Y-17150889D02*
X9055658Y-17112793D01*
X9055658Y-17112793D02*
X9055658Y-17065174D01*
X9055658Y-17065174D02*
X9065182Y-17027079D01*
X9065182Y-17027079D02*
X9074706Y-17008031D01*
X9074706Y-17008031D02*
X9084229Y-16998508D01*
X9084229Y-16998508D02*
X9103277Y-16988984D01*
X9246134Y-16988984D02*
X9246134Y-17027079D01*
X9322325Y-16988984D02*
X9322325Y-17027079D01*
X9617563Y-17265174D02*
X9608039Y-17255650D01*
X9608039Y-17255650D02*
X9588991Y-17227079D01*
X9588991Y-17227079D02*
X9579468Y-17208031D01*
X9579468Y-17208031D02*
X9569944Y-17179460D01*
X9569944Y-17179460D02*
X9560420Y-17131841D01*
X9560420Y-17131841D02*
X9560420Y-17093746D01*
X9560420Y-17093746D02*
X9569944Y-17046127D01*
X9569944Y-17046127D02*
X9579468Y-17017555D01*
X9579468Y-17017555D02*
X9588991Y-16998508D01*
X9588991Y-16998508D02*
X9608039Y-16969936D01*
X9608039Y-16969936D02*
X9617563Y-16960412D01*
X9722325Y-17074698D02*
X9703277Y-17065174D01*
X9703277Y-17065174D02*
X9693753Y-17055650D01*
X9693753Y-17055650D02*
X9684230Y-17036603D01*
X9684230Y-17036603D02*
X9684230Y-17027079D01*
X9684230Y-17027079D02*
X9693753Y-17008031D01*
X9693753Y-17008031D02*
X9703277Y-16998508D01*
X9703277Y-16998508D02*
X9722325Y-16988984D01*
X9722325Y-16988984D02*
X9760420Y-16988984D01*
X9760420Y-16988984D02*
X9779468Y-16998508D01*
X9779468Y-16998508D02*
X9788991Y-17008031D01*
X9788991Y-17008031D02*
X9798515Y-17027079D01*
X9798515Y-17027079D02*
X9798515Y-17036603D01*
X9798515Y-17036603D02*
X9788991Y-17055650D01*
X9788991Y-17055650D02*
X9779468Y-17065174D01*
X9779468Y-17065174D02*
X9760420Y-17074698D01*
X9760420Y-17074698D02*
X9722325Y-17074698D01*
X9722325Y-17074698D02*
X9703277Y-17084222D01*
X9703277Y-17084222D02*
X9693753Y-17093746D01*
X9693753Y-17093746D02*
X9684230Y-17112793D01*
X9684230Y-17112793D02*
X9684230Y-17150889D01*
X9684230Y-17150889D02*
X9693753Y-17169936D01*
X9693753Y-17169936D02*
X9703277Y-17179460D01*
X9703277Y-17179460D02*
X9722325Y-17188984D01*
X9722325Y-17188984D02*
X9760420Y-17188984D01*
X9760420Y-17188984D02*
X9779468Y-17179460D01*
X9779468Y-17179460D02*
X9788991Y-17169936D01*
X9788991Y-17169936D02*
X9798515Y-17150889D01*
X9798515Y-17150889D02*
X9798515Y-17112793D01*
X9798515Y-17112793D02*
X9788991Y-17093746D01*
X9788991Y-17093746D02*
X9779468Y-17084222D01*
X9779468Y-17084222D02*
X9760420Y-17074698D01*
X9969944Y-17055650D02*
X9969944Y-17188984D01*
X9922325Y-16979460D02*
X9874706Y-17122317D01*
X9874706Y-17122317D02*
X9998515Y-17122317D01*
X10227087Y-17188984D02*
X10227087Y-16988984D01*
X10312801Y-17188984D02*
X10312801Y-17084222D01*
X10312801Y-17084222D02*
X10303277Y-17065174D01*
X10303277Y-17065174D02*
X10284230Y-17055650D01*
X10284230Y-17055650D02*
X10255658Y-17055650D01*
X10255658Y-17055650D02*
X10236611Y-17065174D01*
X10236611Y-17065174D02*
X10227087Y-17074698D01*
X10436611Y-17188984D02*
X10417563Y-17179460D01*
X10417563Y-17179460D02*
X10408039Y-17169936D01*
X10408039Y-17169936D02*
X10398515Y-17150889D01*
X10398515Y-17150889D02*
X10398515Y-17093746D01*
X10398515Y-17093746D02*
X10408039Y-17074698D01*
X10408039Y-17074698D02*
X10417563Y-17065174D01*
X10417563Y-17065174D02*
X10436611Y-17055650D01*
X10436611Y-17055650D02*
X10465182Y-17055650D01*
X10465182Y-17055650D02*
X10484230Y-17065174D01*
X10484230Y-17065174D02*
X10493753Y-17074698D01*
X10493753Y-17074698D02*
X10503277Y-17093746D01*
X10503277Y-17093746D02*
X10503277Y-17150889D01*
X10503277Y-17150889D02*
X10493753Y-17169936D01*
X10493753Y-17169936D02*
X10484230Y-17179460D01*
X10484230Y-17179460D02*
X10465182Y-17188984D01*
X10465182Y-17188984D02*
X10436611Y-17188984D01*
X10617563Y-17188984D02*
X10598515Y-17179460D01*
X10598515Y-17179460D02*
X10588992Y-17160412D01*
X10588992Y-17160412D02*
X10588992Y-16988984D01*
X10769944Y-17179460D02*
X10750896Y-17188984D01*
X10750896Y-17188984D02*
X10712801Y-17188984D01*
X10712801Y-17188984D02*
X10693753Y-17179460D01*
X10693753Y-17179460D02*
X10684230Y-17160412D01*
X10684230Y-17160412D02*
X10684230Y-17084222D01*
X10684230Y-17084222D02*
X10693753Y-17065174D01*
X10693753Y-17065174D02*
X10712801Y-17055650D01*
X10712801Y-17055650D02*
X10750896Y-17055650D01*
X10750896Y-17055650D02*
X10769944Y-17065174D01*
X10769944Y-17065174D02*
X10779468Y-17084222D01*
X10779468Y-17084222D02*
X10779468Y-17103270D01*
X10779468Y-17103270D02*
X10684230Y-17122317D01*
X10855658Y-17179460D02*
X10874706Y-17188984D01*
X10874706Y-17188984D02*
X10912801Y-17188984D01*
X10912801Y-17188984D02*
X10931849Y-17179460D01*
X10931849Y-17179460D02*
X10941373Y-17160412D01*
X10941373Y-17160412D02*
X10941373Y-17150889D01*
X10941373Y-17150889D02*
X10931849Y-17131841D01*
X10931849Y-17131841D02*
X10912801Y-17122317D01*
X10912801Y-17122317D02*
X10884230Y-17122317D01*
X10884230Y-17122317D02*
X10865182Y-17112793D01*
X10865182Y-17112793D02*
X10855658Y-17093746D01*
X10855658Y-17093746D02*
X10855658Y-17084222D01*
X10855658Y-17084222D02*
X10865182Y-17065174D01*
X10865182Y-17065174D02*
X10884230Y-17055650D01*
X10884230Y-17055650D02*
X10912801Y-17055650D01*
X10912801Y-17055650D02*
X10931849Y-17065174D01*
X11008039Y-17265174D02*
X11017563Y-17255650D01*
X11017563Y-17255650D02*
X11036611Y-17227079D01*
X11036611Y-17227079D02*
X11046134Y-17208031D01*
X11046134Y-17208031D02*
X11055658Y-17179460D01*
X11055658Y-17179460D02*
X11065182Y-17131841D01*
X11065182Y-17131841D02*
X11065182Y-17093746D01*
X11065182Y-17093746D02*
X11055658Y-17046127D01*
X11055658Y-17046127D02*
X11046134Y-17017555D01*
X11046134Y-17017555D02*
X11036611Y-16998508D01*
X11036611Y-16998508D02*
X11017563Y-16969936D01*
X11017563Y-16969936D02*
X11008039Y-16960412D01*
D12*
X6042500Y-17361500D02*
G75*
G02*
X5962500Y-17361500I-40000J0D01*
G01*
X5962500Y-17361500D02*
G75*
G02*
X6042500Y-17361500I40000J0D01*
G01*
D11*
X6341372Y-17252984D02*
X6360420Y-17252984D01*
X6360420Y-17252984D02*
X6379467Y-17262508D01*
X6379467Y-17262508D02*
X6388991Y-17272031D01*
X6388991Y-17272031D02*
X6398515Y-17291079D01*
X6398515Y-17291079D02*
X6408039Y-17329174D01*
X6408039Y-17329174D02*
X6408039Y-17376793D01*
X6408039Y-17376793D02*
X6398515Y-17414889D01*
X6398515Y-17414889D02*
X6388991Y-17433936D01*
X6388991Y-17433936D02*
X6379467Y-17443460D01*
X6379467Y-17443460D02*
X6360420Y-17452984D01*
X6360420Y-17452984D02*
X6341372Y-17452984D01*
X6341372Y-17452984D02*
X6322324Y-17443460D01*
X6322324Y-17443460D02*
X6312801Y-17433936D01*
X6312801Y-17433936D02*
X6303277Y-17414889D01*
X6303277Y-17414889D02*
X6293753Y-17376793D01*
X6293753Y-17376793D02*
X6293753Y-17329174D01*
X6293753Y-17329174D02*
X6303277Y-17291079D01*
X6303277Y-17291079D02*
X6312801Y-17272031D01*
X6312801Y-17272031D02*
X6322324Y-17262508D01*
X6322324Y-17262508D02*
X6341372Y-17252984D01*
X6493753Y-17433936D02*
X6503277Y-17443460D01*
X6503277Y-17443460D02*
X6493753Y-17452984D01*
X6493753Y-17452984D02*
X6484229Y-17443460D01*
X6484229Y-17443460D02*
X6493753Y-17433936D01*
X6493753Y-17433936D02*
X6493753Y-17452984D01*
X6617562Y-17338698D02*
X6598515Y-17329174D01*
X6598515Y-17329174D02*
X6588991Y-17319650D01*
X6588991Y-17319650D02*
X6579467Y-17300603D01*
X6579467Y-17300603D02*
X6579467Y-17291079D01*
X6579467Y-17291079D02*
X6588991Y-17272031D01*
X6588991Y-17272031D02*
X6598515Y-17262508D01*
X6598515Y-17262508D02*
X6617562Y-17252984D01*
X6617562Y-17252984D02*
X6655658Y-17252984D01*
X6655658Y-17252984D02*
X6674705Y-17262508D01*
X6674705Y-17262508D02*
X6684229Y-17272031D01*
X6684229Y-17272031D02*
X6693753Y-17291079D01*
X6693753Y-17291079D02*
X6693753Y-17300603D01*
X6693753Y-17300603D02*
X6684229Y-17319650D01*
X6684229Y-17319650D02*
X6674705Y-17329174D01*
X6674705Y-17329174D02*
X6655658Y-17338698D01*
X6655658Y-17338698D02*
X6617562Y-17338698D01*
X6617562Y-17338698D02*
X6598515Y-17348222D01*
X6598515Y-17348222D02*
X6588991Y-17357746D01*
X6588991Y-17357746D02*
X6579467Y-17376793D01*
X6579467Y-17376793D02*
X6579467Y-17414889D01*
X6579467Y-17414889D02*
X6588991Y-17433936D01*
X6588991Y-17433936D02*
X6598515Y-17443460D01*
X6598515Y-17443460D02*
X6617562Y-17452984D01*
X6617562Y-17452984D02*
X6655658Y-17452984D01*
X6655658Y-17452984D02*
X6674705Y-17443460D01*
X6674705Y-17443460D02*
X6684229Y-17433936D01*
X6684229Y-17433936D02*
X6693753Y-17414889D01*
X6693753Y-17414889D02*
X6693753Y-17376793D01*
X6693753Y-17376793D02*
X6684229Y-17357746D01*
X6684229Y-17357746D02*
X6674705Y-17348222D01*
X6674705Y-17348222D02*
X6655658Y-17338698D01*
X6817562Y-17252984D02*
X6836610Y-17252984D01*
X6836610Y-17252984D02*
X6855658Y-17262508D01*
X6855658Y-17262508D02*
X6865182Y-17272031D01*
X6865182Y-17272031D02*
X6874705Y-17291079D01*
X6874705Y-17291079D02*
X6884229Y-17329174D01*
X6884229Y-17329174D02*
X6884229Y-17376793D01*
X6884229Y-17376793D02*
X6874705Y-17414889D01*
X6874705Y-17414889D02*
X6865182Y-17433936D01*
X6865182Y-17433936D02*
X6855658Y-17443460D01*
X6855658Y-17443460D02*
X6836610Y-17452984D01*
X6836610Y-17452984D02*
X6817562Y-17452984D01*
X6817562Y-17452984D02*
X6798515Y-17443460D01*
X6798515Y-17443460D02*
X6788991Y-17433936D01*
X6788991Y-17433936D02*
X6779467Y-17414889D01*
X6779467Y-17414889D02*
X6769943Y-17376793D01*
X6769943Y-17376793D02*
X6769943Y-17329174D01*
X6769943Y-17329174D02*
X6779467Y-17291079D01*
X6779467Y-17291079D02*
X6788991Y-17272031D01*
X6788991Y-17272031D02*
X6798515Y-17262508D01*
X6798515Y-17262508D02*
X6817562Y-17252984D01*
X7008039Y-17252984D02*
X7027086Y-17252984D01*
X7027086Y-17252984D02*
X7046134Y-17262508D01*
X7046134Y-17262508D02*
X7055658Y-17272031D01*
X7055658Y-17272031D02*
X7065182Y-17291079D01*
X7065182Y-17291079D02*
X7074705Y-17329174D01*
X7074705Y-17329174D02*
X7074705Y-17376793D01*
X7074705Y-17376793D02*
X7065182Y-17414889D01*
X7065182Y-17414889D02*
X7055658Y-17433936D01*
X7055658Y-17433936D02*
X7046134Y-17443460D01*
X7046134Y-17443460D02*
X7027086Y-17452984D01*
X7027086Y-17452984D02*
X7008039Y-17452984D01*
X7008039Y-17452984D02*
X6988991Y-17443460D01*
X6988991Y-17443460D02*
X6979467Y-17433936D01*
X6979467Y-17433936D02*
X6969943Y-17414889D01*
X6969943Y-17414889D02*
X6960420Y-17376793D01*
X6960420Y-17376793D02*
X6960420Y-17329174D01*
X6960420Y-17329174D02*
X6969943Y-17291079D01*
X6969943Y-17291079D02*
X6979467Y-17272031D01*
X6979467Y-17272031D02*
X6988991Y-17262508D01*
X6988991Y-17262508D02*
X7008039Y-17252984D01*
X7160420Y-17452984D02*
X7160420Y-17319650D01*
X7160420Y-17338698D02*
X7169943Y-17329174D01*
X7169943Y-17329174D02*
X7188991Y-17319650D01*
X7188991Y-17319650D02*
X7217563Y-17319650D01*
X7217563Y-17319650D02*
X7236610Y-17329174D01*
X7236610Y-17329174D02*
X7246134Y-17348222D01*
X7246134Y-17348222D02*
X7246134Y-17452984D01*
X7246134Y-17348222D02*
X7255658Y-17329174D01*
X7255658Y-17329174D02*
X7274705Y-17319650D01*
X7274705Y-17319650D02*
X7303277Y-17319650D01*
X7303277Y-17319650D02*
X7322324Y-17329174D01*
X7322324Y-17329174D02*
X7331848Y-17348222D01*
X7331848Y-17348222D02*
X7331848Y-17452984D01*
X7427086Y-17452984D02*
X7427086Y-17319650D01*
X7427086Y-17338698D02*
X7436610Y-17329174D01*
X7436610Y-17329174D02*
X7455658Y-17319650D01*
X7455658Y-17319650D02*
X7484229Y-17319650D01*
X7484229Y-17319650D02*
X7503277Y-17329174D01*
X7503277Y-17329174D02*
X7512801Y-17348222D01*
X7512801Y-17348222D02*
X7512801Y-17452984D01*
X7512801Y-17348222D02*
X7522324Y-17329174D01*
X7522324Y-17329174D02*
X7541372Y-17319650D01*
X7541372Y-17319650D02*
X7569943Y-17319650D01*
X7569943Y-17319650D02*
X7588991Y-17329174D01*
X7588991Y-17329174D02*
X7598515Y-17348222D01*
X7598515Y-17348222D02*
X7598515Y-17452984D01*
X7988991Y-17243460D02*
X7817563Y-17500603D01*
X8246134Y-17252984D02*
X8265182Y-17252984D01*
X8265182Y-17252984D02*
X8284229Y-17262508D01*
X8284229Y-17262508D02*
X8293753Y-17272031D01*
X8293753Y-17272031D02*
X8303277Y-17291079D01*
X8303277Y-17291079D02*
X8312801Y-17329174D01*
X8312801Y-17329174D02*
X8312801Y-17376793D01*
X8312801Y-17376793D02*
X8303277Y-17414889D01*
X8303277Y-17414889D02*
X8293753Y-17433936D01*
X8293753Y-17433936D02*
X8284229Y-17443460D01*
X8284229Y-17443460D02*
X8265182Y-17452984D01*
X8265182Y-17452984D02*
X8246134Y-17452984D01*
X8246134Y-17452984D02*
X8227086Y-17443460D01*
X8227086Y-17443460D02*
X8217563Y-17433936D01*
X8217563Y-17433936D02*
X8208039Y-17414889D01*
X8208039Y-17414889D02*
X8198515Y-17376793D01*
X8198515Y-17376793D02*
X8198515Y-17329174D01*
X8198515Y-17329174D02*
X8208039Y-17291079D01*
X8208039Y-17291079D02*
X8217563Y-17272031D01*
X8217563Y-17272031D02*
X8227086Y-17262508D01*
X8227086Y-17262508D02*
X8246134Y-17252984D01*
X8398515Y-17433936D02*
X8408039Y-17443460D01*
X8408039Y-17443460D02*
X8398515Y-17452984D01*
X8398515Y-17452984D02*
X8388991Y-17443460D01*
X8388991Y-17443460D02*
X8398515Y-17433936D01*
X8398515Y-17433936D02*
X8398515Y-17452984D01*
X8531848Y-17252984D02*
X8550896Y-17252984D01*
X8550896Y-17252984D02*
X8569944Y-17262508D01*
X8569944Y-17262508D02*
X8579468Y-17272031D01*
X8579468Y-17272031D02*
X8588991Y-17291079D01*
X8588991Y-17291079D02*
X8598515Y-17329174D01*
X8598515Y-17329174D02*
X8598515Y-17376793D01*
X8598515Y-17376793D02*
X8588991Y-17414889D01*
X8588991Y-17414889D02*
X8579468Y-17433936D01*
X8579468Y-17433936D02*
X8569944Y-17443460D01*
X8569944Y-17443460D02*
X8550896Y-17452984D01*
X8550896Y-17452984D02*
X8531848Y-17452984D01*
X8531848Y-17452984D02*
X8512801Y-17443460D01*
X8512801Y-17443460D02*
X8503277Y-17433936D01*
X8503277Y-17433936D02*
X8493753Y-17414889D01*
X8493753Y-17414889D02*
X8484229Y-17376793D01*
X8484229Y-17376793D02*
X8484229Y-17329174D01*
X8484229Y-17329174D02*
X8493753Y-17291079D01*
X8493753Y-17291079D02*
X8503277Y-17272031D01*
X8503277Y-17272031D02*
X8512801Y-17262508D01*
X8512801Y-17262508D02*
X8531848Y-17252984D01*
X8665182Y-17252984D02*
X8788991Y-17252984D01*
X8788991Y-17252984D02*
X8722325Y-17329174D01*
X8722325Y-17329174D02*
X8750896Y-17329174D01*
X8750896Y-17329174D02*
X8769944Y-17338698D01*
X8769944Y-17338698D02*
X8779468Y-17348222D01*
X8779468Y-17348222D02*
X8788991Y-17367270D01*
X8788991Y-17367270D02*
X8788991Y-17414889D01*
X8788991Y-17414889D02*
X8779468Y-17433936D01*
X8779468Y-17433936D02*
X8769944Y-17443460D01*
X8769944Y-17443460D02*
X8750896Y-17452984D01*
X8750896Y-17452984D02*
X8693753Y-17452984D01*
X8693753Y-17452984D02*
X8674706Y-17443460D01*
X8674706Y-17443460D02*
X8665182Y-17433936D01*
X8979468Y-17452984D02*
X8865182Y-17452984D01*
X8922325Y-17452984D02*
X8922325Y-17252984D01*
X8922325Y-17252984D02*
X8903277Y-17281555D01*
X8903277Y-17281555D02*
X8884229Y-17300603D01*
X8884229Y-17300603D02*
X8865182Y-17310127D01*
X9160420Y-17252984D02*
X9065182Y-17252984D01*
X9065182Y-17252984D02*
X9055658Y-17348222D01*
X9055658Y-17348222D02*
X9065182Y-17338698D01*
X9065182Y-17338698D02*
X9084229Y-17329174D01*
X9084229Y-17329174D02*
X9131849Y-17329174D01*
X9131849Y-17329174D02*
X9150896Y-17338698D01*
X9150896Y-17338698D02*
X9160420Y-17348222D01*
X9160420Y-17348222D02*
X9169944Y-17367270D01*
X9169944Y-17367270D02*
X9169944Y-17414889D01*
X9169944Y-17414889D02*
X9160420Y-17433936D01*
X9160420Y-17433936D02*
X9150896Y-17443460D01*
X9150896Y-17443460D02*
X9131849Y-17452984D01*
X9131849Y-17452984D02*
X9084229Y-17452984D01*
X9084229Y-17452984D02*
X9065182Y-17443460D01*
X9065182Y-17443460D02*
X9055658Y-17433936D01*
X9246134Y-17252984D02*
X9246134Y-17291079D01*
X9322325Y-17252984D02*
X9322325Y-17291079D01*
X9617563Y-17529174D02*
X9608039Y-17519650D01*
X9608039Y-17519650D02*
X9588991Y-17491079D01*
X9588991Y-17491079D02*
X9579468Y-17472031D01*
X9579468Y-17472031D02*
X9569944Y-17443460D01*
X9569944Y-17443460D02*
X9560420Y-17395841D01*
X9560420Y-17395841D02*
X9560420Y-17357746D01*
X9560420Y-17357746D02*
X9569944Y-17310127D01*
X9569944Y-17310127D02*
X9579468Y-17281555D01*
X9579468Y-17281555D02*
X9588991Y-17262508D01*
X9588991Y-17262508D02*
X9608039Y-17233936D01*
X9608039Y-17233936D02*
X9617563Y-17224412D01*
X9731849Y-17252984D02*
X9750896Y-17252984D01*
X9750896Y-17252984D02*
X9769944Y-17262508D01*
X9769944Y-17262508D02*
X9779468Y-17272031D01*
X9779468Y-17272031D02*
X9788991Y-17291079D01*
X9788991Y-17291079D02*
X9798515Y-17329174D01*
X9798515Y-17329174D02*
X9798515Y-17376793D01*
X9798515Y-17376793D02*
X9788991Y-17414889D01*
X9788991Y-17414889D02*
X9779468Y-17433936D01*
X9779468Y-17433936D02*
X9769944Y-17443460D01*
X9769944Y-17443460D02*
X9750896Y-17452984D01*
X9750896Y-17452984D02*
X9731849Y-17452984D01*
X9731849Y-17452984D02*
X9712801Y-17443460D01*
X9712801Y-17443460D02*
X9703277Y-17433936D01*
X9703277Y-17433936D02*
X9693753Y-17414889D01*
X9693753Y-17414889D02*
X9684230Y-17376793D01*
X9684230Y-17376793D02*
X9684230Y-17329174D01*
X9684230Y-17329174D02*
X9693753Y-17291079D01*
X9693753Y-17291079D02*
X9703277Y-17272031D01*
X9703277Y-17272031D02*
X9712801Y-17262508D01*
X9712801Y-17262508D02*
X9731849Y-17252984D01*
X10036611Y-17452984D02*
X10036611Y-17252984D01*
X10122325Y-17452984D02*
X10122325Y-17348222D01*
X10122325Y-17348222D02*
X10112801Y-17329174D01*
X10112801Y-17329174D02*
X10093753Y-17319650D01*
X10093753Y-17319650D02*
X10065182Y-17319650D01*
X10065182Y-17319650D02*
X10046134Y-17329174D01*
X10046134Y-17329174D02*
X10036611Y-17338698D01*
X10246134Y-17452984D02*
X10227087Y-17443460D01*
X10227087Y-17443460D02*
X10217563Y-17433936D01*
X10217563Y-17433936D02*
X10208039Y-17414889D01*
X10208039Y-17414889D02*
X10208039Y-17357746D01*
X10208039Y-17357746D02*
X10217563Y-17338698D01*
X10217563Y-17338698D02*
X10227087Y-17329174D01*
X10227087Y-17329174D02*
X10246134Y-17319650D01*
X10246134Y-17319650D02*
X10274706Y-17319650D01*
X10274706Y-17319650D02*
X10293753Y-17329174D01*
X10293753Y-17329174D02*
X10303277Y-17338698D01*
X10303277Y-17338698D02*
X10312801Y-17357746D01*
X10312801Y-17357746D02*
X10312801Y-17414889D01*
X10312801Y-17414889D02*
X10303277Y-17433936D01*
X10303277Y-17433936D02*
X10293753Y-17443460D01*
X10293753Y-17443460D02*
X10274706Y-17452984D01*
X10274706Y-17452984D02*
X10246134Y-17452984D01*
X10427087Y-17452984D02*
X10408039Y-17443460D01*
X10408039Y-17443460D02*
X10398515Y-17424412D01*
X10398515Y-17424412D02*
X10398515Y-17252984D01*
X10579468Y-17443460D02*
X10560420Y-17452984D01*
X10560420Y-17452984D02*
X10522325Y-17452984D01*
X10522325Y-17452984D02*
X10503277Y-17443460D01*
X10503277Y-17443460D02*
X10493753Y-17424412D01*
X10493753Y-17424412D02*
X10493753Y-17348222D01*
X10493753Y-17348222D02*
X10503277Y-17329174D01*
X10503277Y-17329174D02*
X10522325Y-17319650D01*
X10522325Y-17319650D02*
X10560420Y-17319650D01*
X10560420Y-17319650D02*
X10579468Y-17329174D01*
X10579468Y-17329174D02*
X10588992Y-17348222D01*
X10588992Y-17348222D02*
X10588992Y-17367270D01*
X10588992Y-17367270D02*
X10493753Y-17386317D01*
X10665182Y-17443460D02*
X10684230Y-17452984D01*
X10684230Y-17452984D02*
X10722325Y-17452984D01*
X10722325Y-17452984D02*
X10741373Y-17443460D01*
X10741373Y-17443460D02*
X10750896Y-17424412D01*
X10750896Y-17424412D02*
X10750896Y-17414889D01*
X10750896Y-17414889D02*
X10741373Y-17395841D01*
X10741373Y-17395841D02*
X10722325Y-17386317D01*
X10722325Y-17386317D02*
X10693753Y-17386317D01*
X10693753Y-17386317D02*
X10674706Y-17376793D01*
X10674706Y-17376793D02*
X10665182Y-17357746D01*
X10665182Y-17357746D02*
X10665182Y-17348222D01*
X10665182Y-17348222D02*
X10674706Y-17329174D01*
X10674706Y-17329174D02*
X10693753Y-17319650D01*
X10693753Y-17319650D02*
X10722325Y-17319650D01*
X10722325Y-17319650D02*
X10741373Y-17329174D01*
X10988992Y-17376793D02*
X11141373Y-17376793D01*
X11065182Y-17452984D02*
X11065182Y-17300603D01*
X11484230Y-17252984D02*
X11388992Y-17252984D01*
X11388992Y-17252984D02*
X11379468Y-17348222D01*
X11379468Y-17348222D02*
X11388992Y-17338698D01*
X11388992Y-17338698D02*
X11408039Y-17329174D01*
X11408039Y-17329174D02*
X11455658Y-17329174D01*
X11455658Y-17329174D02*
X11474706Y-17338698D01*
X11474706Y-17338698D02*
X11484230Y-17348222D01*
X11484230Y-17348222D02*
X11493753Y-17367270D01*
X11493753Y-17367270D02*
X11493753Y-17414889D01*
X11493753Y-17414889D02*
X11484230Y-17433936D01*
X11484230Y-17433936D02*
X11474706Y-17443460D01*
X11474706Y-17443460D02*
X11455658Y-17452984D01*
X11455658Y-17452984D02*
X11408039Y-17452984D01*
X11408039Y-17452984D02*
X11388992Y-17443460D01*
X11388992Y-17443460D02*
X11379468Y-17433936D01*
X11722325Y-17443460D02*
X11741373Y-17452984D01*
X11741373Y-17452984D02*
X11779468Y-17452984D01*
X11779468Y-17452984D02*
X11798515Y-17443460D01*
X11798515Y-17443460D02*
X11808039Y-17424412D01*
X11808039Y-17424412D02*
X11808039Y-17414889D01*
X11808039Y-17414889D02*
X11798515Y-17395841D01*
X11798515Y-17395841D02*
X11779468Y-17386317D01*
X11779468Y-17386317D02*
X11750896Y-17386317D01*
X11750896Y-17386317D02*
X11731849Y-17376793D01*
X11731849Y-17376793D02*
X11722325Y-17357746D01*
X11722325Y-17357746D02*
X11722325Y-17348222D01*
X11722325Y-17348222D02*
X11731849Y-17329174D01*
X11731849Y-17329174D02*
X11750896Y-17319650D01*
X11750896Y-17319650D02*
X11779468Y-17319650D01*
X11779468Y-17319650D02*
X11798515Y-17329174D01*
X11922325Y-17452984D02*
X11903277Y-17443460D01*
X11903277Y-17443460D02*
X11893754Y-17424412D01*
X11893754Y-17424412D02*
X11893754Y-17252984D01*
X12027087Y-17452984D02*
X12008039Y-17443460D01*
X12008039Y-17443460D02*
X11998515Y-17433936D01*
X11998515Y-17433936D02*
X11988992Y-17414889D01*
X11988992Y-17414889D02*
X11988992Y-17357746D01*
X11988992Y-17357746D02*
X11998515Y-17338698D01*
X11998515Y-17338698D02*
X12008039Y-17329174D01*
X12008039Y-17329174D02*
X12027087Y-17319650D01*
X12027087Y-17319650D02*
X12055658Y-17319650D01*
X12055658Y-17319650D02*
X12074706Y-17329174D01*
X12074706Y-17329174D02*
X12084230Y-17338698D01*
X12084230Y-17338698D02*
X12093754Y-17357746D01*
X12093754Y-17357746D02*
X12093754Y-17414889D01*
X12093754Y-17414889D02*
X12084230Y-17433936D01*
X12084230Y-17433936D02*
X12074706Y-17443460D01*
X12074706Y-17443460D02*
X12055658Y-17452984D01*
X12055658Y-17452984D02*
X12027087Y-17452984D01*
X12150896Y-17319650D02*
X12227087Y-17319650D01*
X12179468Y-17252984D02*
X12179468Y-17424412D01*
X12179468Y-17424412D02*
X12188992Y-17443460D01*
X12188992Y-17443460D02*
X12208039Y-17452984D01*
X12208039Y-17452984D02*
X12227087Y-17452984D01*
X12284230Y-17443460D02*
X12303277Y-17452984D01*
X12303277Y-17452984D02*
X12341373Y-17452984D01*
X12341373Y-17452984D02*
X12360420Y-17443460D01*
X12360420Y-17443460D02*
X12369944Y-17424412D01*
X12369944Y-17424412D02*
X12369944Y-17414889D01*
X12369944Y-17414889D02*
X12360420Y-17395841D01*
X12360420Y-17395841D02*
X12341373Y-17386317D01*
X12341373Y-17386317D02*
X12312801Y-17386317D01*
X12312801Y-17386317D02*
X12293754Y-17376793D01*
X12293754Y-17376793D02*
X12284230Y-17357746D01*
X12284230Y-17357746D02*
X12284230Y-17348222D01*
X12284230Y-17348222D02*
X12293754Y-17329174D01*
X12293754Y-17329174D02*
X12312801Y-17319650D01*
X12312801Y-17319650D02*
X12341373Y-17319650D01*
X12341373Y-17319650D02*
X12360420Y-17329174D01*
X12436611Y-17529174D02*
X12446135Y-17519650D01*
X12446135Y-17519650D02*
X12465182Y-17491079D01*
X12465182Y-17491079D02*
X12474706Y-17472031D01*
X12474706Y-17472031D02*
X12484230Y-17443460D01*
X12484230Y-17443460D02*
X12493754Y-17395841D01*
X12493754Y-17395841D02*
X12493754Y-17357746D01*
X12493754Y-17357746D02*
X12484230Y-17310127D01*
X12484230Y-17310127D02*
X12474706Y-17281555D01*
X12474706Y-17281555D02*
X12465182Y-17262508D01*
X12465182Y-17262508D02*
X12446135Y-17233936D01*
X12446135Y-17233936D02*
X12436611Y-17224412D01*
D12*
X5992500Y-17575500D02*
X5992500Y-17675500D01*
X5942500Y-17625500D02*
X6042500Y-17625500D01*
D11*
X6408039Y-17716984D02*
X6293753Y-17716984D01*
X6350896Y-17716984D02*
X6350896Y-17516984D01*
X6350896Y-17516984D02*
X6331848Y-17545555D01*
X6331848Y-17545555D02*
X6312801Y-17564603D01*
X6312801Y-17564603D02*
X6293753Y-17574127D01*
X6493753Y-17697936D02*
X6503277Y-17707460D01*
X6503277Y-17707460D02*
X6493753Y-17716984D01*
X6493753Y-17716984D02*
X6484229Y-17707460D01*
X6484229Y-17707460D02*
X6493753Y-17697936D01*
X6493753Y-17697936D02*
X6493753Y-17716984D01*
X6627086Y-17516984D02*
X6646134Y-17516984D01*
X6646134Y-17516984D02*
X6665182Y-17526508D01*
X6665182Y-17526508D02*
X6674705Y-17536031D01*
X6674705Y-17536031D02*
X6684229Y-17555079D01*
X6684229Y-17555079D02*
X6693753Y-17593174D01*
X6693753Y-17593174D02*
X6693753Y-17640793D01*
X6693753Y-17640793D02*
X6684229Y-17678889D01*
X6684229Y-17678889D02*
X6674705Y-17697936D01*
X6674705Y-17697936D02*
X6665182Y-17707460D01*
X6665182Y-17707460D02*
X6646134Y-17716984D01*
X6646134Y-17716984D02*
X6627086Y-17716984D01*
X6627086Y-17716984D02*
X6608039Y-17707460D01*
X6608039Y-17707460D02*
X6598515Y-17697936D01*
X6598515Y-17697936D02*
X6588991Y-17678889D01*
X6588991Y-17678889D02*
X6579467Y-17640793D01*
X6579467Y-17640793D02*
X6579467Y-17593174D01*
X6579467Y-17593174D02*
X6588991Y-17555079D01*
X6588991Y-17555079D02*
X6598515Y-17536031D01*
X6598515Y-17536031D02*
X6608039Y-17526508D01*
X6608039Y-17526508D02*
X6627086Y-17516984D01*
X6817562Y-17516984D02*
X6836610Y-17516984D01*
X6836610Y-17516984D02*
X6855658Y-17526508D01*
X6855658Y-17526508D02*
X6865182Y-17536031D01*
X6865182Y-17536031D02*
X6874705Y-17555079D01*
X6874705Y-17555079D02*
X6884229Y-17593174D01*
X6884229Y-17593174D02*
X6884229Y-17640793D01*
X6884229Y-17640793D02*
X6874705Y-17678889D01*
X6874705Y-17678889D02*
X6865182Y-17697936D01*
X6865182Y-17697936D02*
X6855658Y-17707460D01*
X6855658Y-17707460D02*
X6836610Y-17716984D01*
X6836610Y-17716984D02*
X6817562Y-17716984D01*
X6817562Y-17716984D02*
X6798515Y-17707460D01*
X6798515Y-17707460D02*
X6788991Y-17697936D01*
X6788991Y-17697936D02*
X6779467Y-17678889D01*
X6779467Y-17678889D02*
X6769943Y-17640793D01*
X6769943Y-17640793D02*
X6769943Y-17593174D01*
X6769943Y-17593174D02*
X6779467Y-17555079D01*
X6779467Y-17555079D02*
X6788991Y-17536031D01*
X6788991Y-17536031D02*
X6798515Y-17526508D01*
X6798515Y-17526508D02*
X6817562Y-17516984D01*
X7008039Y-17516984D02*
X7027086Y-17516984D01*
X7027086Y-17516984D02*
X7046134Y-17526508D01*
X7046134Y-17526508D02*
X7055658Y-17536031D01*
X7055658Y-17536031D02*
X7065182Y-17555079D01*
X7065182Y-17555079D02*
X7074705Y-17593174D01*
X7074705Y-17593174D02*
X7074705Y-17640793D01*
X7074705Y-17640793D02*
X7065182Y-17678889D01*
X7065182Y-17678889D02*
X7055658Y-17697936D01*
X7055658Y-17697936D02*
X7046134Y-17707460D01*
X7046134Y-17707460D02*
X7027086Y-17716984D01*
X7027086Y-17716984D02*
X7008039Y-17716984D01*
X7008039Y-17716984D02*
X6988991Y-17707460D01*
X6988991Y-17707460D02*
X6979467Y-17697936D01*
X6979467Y-17697936D02*
X6969943Y-17678889D01*
X6969943Y-17678889D02*
X6960420Y-17640793D01*
X6960420Y-17640793D02*
X6960420Y-17593174D01*
X6960420Y-17593174D02*
X6969943Y-17555079D01*
X6969943Y-17555079D02*
X6979467Y-17536031D01*
X6979467Y-17536031D02*
X6988991Y-17526508D01*
X6988991Y-17526508D02*
X7008039Y-17516984D01*
X7160420Y-17716984D02*
X7160420Y-17583650D01*
X7160420Y-17602698D02*
X7169943Y-17593174D01*
X7169943Y-17593174D02*
X7188991Y-17583650D01*
X7188991Y-17583650D02*
X7217563Y-17583650D01*
X7217563Y-17583650D02*
X7236610Y-17593174D01*
X7236610Y-17593174D02*
X7246134Y-17612222D01*
X7246134Y-17612222D02*
X7246134Y-17716984D01*
X7246134Y-17612222D02*
X7255658Y-17593174D01*
X7255658Y-17593174D02*
X7274705Y-17583650D01*
X7274705Y-17583650D02*
X7303277Y-17583650D01*
X7303277Y-17583650D02*
X7322324Y-17593174D01*
X7322324Y-17593174D02*
X7331848Y-17612222D01*
X7331848Y-17612222D02*
X7331848Y-17716984D01*
X7427086Y-17716984D02*
X7427086Y-17583650D01*
X7427086Y-17602698D02*
X7436610Y-17593174D01*
X7436610Y-17593174D02*
X7455658Y-17583650D01*
X7455658Y-17583650D02*
X7484229Y-17583650D01*
X7484229Y-17583650D02*
X7503277Y-17593174D01*
X7503277Y-17593174D02*
X7512801Y-17612222D01*
X7512801Y-17612222D02*
X7512801Y-17716984D01*
X7512801Y-17612222D02*
X7522324Y-17593174D01*
X7522324Y-17593174D02*
X7541372Y-17583650D01*
X7541372Y-17583650D02*
X7569943Y-17583650D01*
X7569943Y-17583650D02*
X7588991Y-17593174D01*
X7588991Y-17593174D02*
X7598515Y-17612222D01*
X7598515Y-17612222D02*
X7598515Y-17716984D01*
X7988991Y-17507460D02*
X7817563Y-17764603D01*
X8246134Y-17516984D02*
X8265182Y-17516984D01*
X8265182Y-17516984D02*
X8284229Y-17526508D01*
X8284229Y-17526508D02*
X8293753Y-17536031D01*
X8293753Y-17536031D02*
X8303277Y-17555079D01*
X8303277Y-17555079D02*
X8312801Y-17593174D01*
X8312801Y-17593174D02*
X8312801Y-17640793D01*
X8312801Y-17640793D02*
X8303277Y-17678889D01*
X8303277Y-17678889D02*
X8293753Y-17697936D01*
X8293753Y-17697936D02*
X8284229Y-17707460D01*
X8284229Y-17707460D02*
X8265182Y-17716984D01*
X8265182Y-17716984D02*
X8246134Y-17716984D01*
X8246134Y-17716984D02*
X8227086Y-17707460D01*
X8227086Y-17707460D02*
X8217563Y-17697936D01*
X8217563Y-17697936D02*
X8208039Y-17678889D01*
X8208039Y-17678889D02*
X8198515Y-17640793D01*
X8198515Y-17640793D02*
X8198515Y-17593174D01*
X8198515Y-17593174D02*
X8208039Y-17555079D01*
X8208039Y-17555079D02*
X8217563Y-17536031D01*
X8217563Y-17536031D02*
X8227086Y-17526508D01*
X8227086Y-17526508D02*
X8246134Y-17516984D01*
X8398515Y-17697936D02*
X8408039Y-17707460D01*
X8408039Y-17707460D02*
X8398515Y-17716984D01*
X8398515Y-17716984D02*
X8388991Y-17707460D01*
X8388991Y-17707460D02*
X8398515Y-17697936D01*
X8398515Y-17697936D02*
X8398515Y-17716984D01*
X8531848Y-17516984D02*
X8550896Y-17516984D01*
X8550896Y-17516984D02*
X8569944Y-17526508D01*
X8569944Y-17526508D02*
X8579468Y-17536031D01*
X8579468Y-17536031D02*
X8588991Y-17555079D01*
X8588991Y-17555079D02*
X8598515Y-17593174D01*
X8598515Y-17593174D02*
X8598515Y-17640793D01*
X8598515Y-17640793D02*
X8588991Y-17678889D01*
X8588991Y-17678889D02*
X8579468Y-17697936D01*
X8579468Y-17697936D02*
X8569944Y-17707460D01*
X8569944Y-17707460D02*
X8550896Y-17716984D01*
X8550896Y-17716984D02*
X8531848Y-17716984D01*
X8531848Y-17716984D02*
X8512801Y-17707460D01*
X8512801Y-17707460D02*
X8503277Y-17697936D01*
X8503277Y-17697936D02*
X8493753Y-17678889D01*
X8493753Y-17678889D02*
X8484229Y-17640793D01*
X8484229Y-17640793D02*
X8484229Y-17593174D01*
X8484229Y-17593174D02*
X8493753Y-17555079D01*
X8493753Y-17555079D02*
X8503277Y-17536031D01*
X8503277Y-17536031D02*
X8512801Y-17526508D01*
X8512801Y-17526508D02*
X8531848Y-17516984D01*
X8665182Y-17516984D02*
X8788991Y-17516984D01*
X8788991Y-17516984D02*
X8722325Y-17593174D01*
X8722325Y-17593174D02*
X8750896Y-17593174D01*
X8750896Y-17593174D02*
X8769944Y-17602698D01*
X8769944Y-17602698D02*
X8779468Y-17612222D01*
X8779468Y-17612222D02*
X8788991Y-17631270D01*
X8788991Y-17631270D02*
X8788991Y-17678889D01*
X8788991Y-17678889D02*
X8779468Y-17697936D01*
X8779468Y-17697936D02*
X8769944Y-17707460D01*
X8769944Y-17707460D02*
X8750896Y-17716984D01*
X8750896Y-17716984D02*
X8693753Y-17716984D01*
X8693753Y-17716984D02*
X8674706Y-17707460D01*
X8674706Y-17707460D02*
X8665182Y-17697936D01*
X8884229Y-17716984D02*
X8922325Y-17716984D01*
X8922325Y-17716984D02*
X8941372Y-17707460D01*
X8941372Y-17707460D02*
X8950896Y-17697936D01*
X8950896Y-17697936D02*
X8969944Y-17669365D01*
X8969944Y-17669365D02*
X8979468Y-17631270D01*
X8979468Y-17631270D02*
X8979468Y-17555079D01*
X8979468Y-17555079D02*
X8969944Y-17536031D01*
X8969944Y-17536031D02*
X8960420Y-17526508D01*
X8960420Y-17526508D02*
X8941372Y-17516984D01*
X8941372Y-17516984D02*
X8903277Y-17516984D01*
X8903277Y-17516984D02*
X8884229Y-17526508D01*
X8884229Y-17526508D02*
X8874706Y-17536031D01*
X8874706Y-17536031D02*
X8865182Y-17555079D01*
X8865182Y-17555079D02*
X8865182Y-17602698D01*
X8865182Y-17602698D02*
X8874706Y-17621746D01*
X8874706Y-17621746D02*
X8884229Y-17631270D01*
X8884229Y-17631270D02*
X8903277Y-17640793D01*
X8903277Y-17640793D02*
X8941372Y-17640793D01*
X8941372Y-17640793D02*
X8960420Y-17631270D01*
X8960420Y-17631270D02*
X8969944Y-17621746D01*
X8969944Y-17621746D02*
X8979468Y-17602698D01*
X9150896Y-17583650D02*
X9150896Y-17716984D01*
X9103277Y-17507460D02*
X9055658Y-17650317D01*
X9055658Y-17650317D02*
X9179468Y-17650317D01*
X9246134Y-17516984D02*
X9246134Y-17555079D01*
X9322325Y-17516984D02*
X9322325Y-17555079D01*
X9617563Y-17793174D02*
X9608039Y-17783650D01*
X9608039Y-17783650D02*
X9588991Y-17755079D01*
X9588991Y-17755079D02*
X9579468Y-17736031D01*
X9579468Y-17736031D02*
X9569944Y-17707460D01*
X9569944Y-17707460D02*
X9560420Y-17659841D01*
X9560420Y-17659841D02*
X9560420Y-17621746D01*
X9560420Y-17621746D02*
X9569944Y-17574127D01*
X9569944Y-17574127D02*
X9579468Y-17545555D01*
X9579468Y-17545555D02*
X9588991Y-17526508D01*
X9588991Y-17526508D02*
X9608039Y-17497936D01*
X9608039Y-17497936D02*
X9617563Y-17488412D01*
X9788991Y-17516984D02*
X9693753Y-17516984D01*
X9693753Y-17516984D02*
X9684230Y-17612222D01*
X9684230Y-17612222D02*
X9693753Y-17602698D01*
X9693753Y-17602698D02*
X9712801Y-17593174D01*
X9712801Y-17593174D02*
X9760420Y-17593174D01*
X9760420Y-17593174D02*
X9779468Y-17602698D01*
X9779468Y-17602698D02*
X9788991Y-17612222D01*
X9788991Y-17612222D02*
X9798515Y-17631270D01*
X9798515Y-17631270D02*
X9798515Y-17678889D01*
X9798515Y-17678889D02*
X9788991Y-17697936D01*
X9788991Y-17697936D02*
X9779468Y-17707460D01*
X9779468Y-17707460D02*
X9760420Y-17716984D01*
X9760420Y-17716984D02*
X9712801Y-17716984D01*
X9712801Y-17716984D02*
X9693753Y-17707460D01*
X9693753Y-17707460D02*
X9684230Y-17697936D01*
X9988991Y-17716984D02*
X9874706Y-17716984D01*
X9931849Y-17716984D02*
X9931849Y-17516984D01*
X9931849Y-17516984D02*
X9912801Y-17545555D01*
X9912801Y-17545555D02*
X9893753Y-17564603D01*
X9893753Y-17564603D02*
X9874706Y-17574127D01*
X10227087Y-17716984D02*
X10227087Y-17516984D01*
X10312801Y-17716984D02*
X10312801Y-17612222D01*
X10312801Y-17612222D02*
X10303277Y-17593174D01*
X10303277Y-17593174D02*
X10284230Y-17583650D01*
X10284230Y-17583650D02*
X10255658Y-17583650D01*
X10255658Y-17583650D02*
X10236611Y-17593174D01*
X10236611Y-17593174D02*
X10227087Y-17602698D01*
X10436611Y-17716984D02*
X10417563Y-17707460D01*
X10417563Y-17707460D02*
X10408039Y-17697936D01*
X10408039Y-17697936D02*
X10398515Y-17678889D01*
X10398515Y-17678889D02*
X10398515Y-17621746D01*
X10398515Y-17621746D02*
X10408039Y-17602698D01*
X10408039Y-17602698D02*
X10417563Y-17593174D01*
X10417563Y-17593174D02*
X10436611Y-17583650D01*
X10436611Y-17583650D02*
X10465182Y-17583650D01*
X10465182Y-17583650D02*
X10484230Y-17593174D01*
X10484230Y-17593174D02*
X10493753Y-17602698D01*
X10493753Y-17602698D02*
X10503277Y-17621746D01*
X10503277Y-17621746D02*
X10503277Y-17678889D01*
X10503277Y-17678889D02*
X10493753Y-17697936D01*
X10493753Y-17697936D02*
X10484230Y-17707460D01*
X10484230Y-17707460D02*
X10465182Y-17716984D01*
X10465182Y-17716984D02*
X10436611Y-17716984D01*
X10617563Y-17716984D02*
X10598515Y-17707460D01*
X10598515Y-17707460D02*
X10588992Y-17688412D01*
X10588992Y-17688412D02*
X10588992Y-17516984D01*
X10769944Y-17707460D02*
X10750896Y-17716984D01*
X10750896Y-17716984D02*
X10712801Y-17716984D01*
X10712801Y-17716984D02*
X10693753Y-17707460D01*
X10693753Y-17707460D02*
X10684230Y-17688412D01*
X10684230Y-17688412D02*
X10684230Y-17612222D01*
X10684230Y-17612222D02*
X10693753Y-17593174D01*
X10693753Y-17593174D02*
X10712801Y-17583650D01*
X10712801Y-17583650D02*
X10750896Y-17583650D01*
X10750896Y-17583650D02*
X10769944Y-17593174D01*
X10769944Y-17593174D02*
X10779468Y-17612222D01*
X10779468Y-17612222D02*
X10779468Y-17631270D01*
X10779468Y-17631270D02*
X10684230Y-17650317D01*
X10855658Y-17707460D02*
X10874706Y-17716984D01*
X10874706Y-17716984D02*
X10912801Y-17716984D01*
X10912801Y-17716984D02*
X10931849Y-17707460D01*
X10931849Y-17707460D02*
X10941373Y-17688412D01*
X10941373Y-17688412D02*
X10941373Y-17678889D01*
X10941373Y-17678889D02*
X10931849Y-17659841D01*
X10931849Y-17659841D02*
X10912801Y-17650317D01*
X10912801Y-17650317D02*
X10884230Y-17650317D01*
X10884230Y-17650317D02*
X10865182Y-17640793D01*
X10865182Y-17640793D02*
X10855658Y-17621746D01*
X10855658Y-17621746D02*
X10855658Y-17612222D01*
X10855658Y-17612222D02*
X10865182Y-17593174D01*
X10865182Y-17593174D02*
X10884230Y-17583650D01*
X10884230Y-17583650D02*
X10912801Y-17583650D01*
X10912801Y-17583650D02*
X10931849Y-17593174D01*
X11008039Y-17793174D02*
X11017563Y-17783650D01*
X11017563Y-17783650D02*
X11036611Y-17755079D01*
X11036611Y-17755079D02*
X11046134Y-17736031D01*
X11046134Y-17736031D02*
X11055658Y-17707460D01*
X11055658Y-17707460D02*
X11065182Y-17659841D01*
X11065182Y-17659841D02*
X11065182Y-17621746D01*
X11065182Y-17621746D02*
X11055658Y-17574127D01*
X11055658Y-17574127D02*
X11046134Y-17545555D01*
X11046134Y-17545555D02*
X11036611Y-17526508D01*
X11036611Y-17526508D02*
X11017563Y-17497936D01*
X11017563Y-17497936D02*
X11008039Y-17488412D01*
M02*
