%TF.GenerationSoftware,KiCad,Pcbnew,9.0.1+1*%
%TF.CreationDate,2025-10-05T23:07:08+00:00*%
%TF.ProjectId,rcbus-opl3,72636275-732d-46f7-906c-332e6b696361,@version@*%
%TF.SameCoordinates,Original*%
%TF.FileFunction,Other,User*%
%FSLAX46Y46*%
G04 Gerber Fmt 4.6, Leading zero omitted, Abs format (unit mm)*
G04 Created by KiCad (PCBNEW 9.0.1+1) date 2025-10-05 23:07:08*
%MOMM*%
%LPD*%
G01*
G04 APERTURE LIST*
%ADD10C,0.050000*%
G04 APERTURE END LIST*
D10*
%TO.C,C1*%
X79520000Y-141770000D02*
X82480000Y-141770000D01*
X79520000Y-143230000D02*
X79520000Y-141770000D01*
X82480000Y-141770000D02*
X82480000Y-143230000D01*
X82480000Y-143230000D02*
X79520000Y-143230000D01*
%TO.C,C7*%
X116845000Y-140970000D02*
X119805000Y-140970000D01*
X116845000Y-142430000D02*
X116845000Y-140970000D01*
X119805000Y-140970000D02*
X119805000Y-142430000D01*
X119805000Y-142430000D02*
X116845000Y-142430000D01*
%TO.C,CON1*%
X145319000Y-131845000D02*
X145319000Y-119345000D01*
X160319000Y-119345000D02*
X145319000Y-119345000D01*
X160319000Y-131845000D02*
X145319000Y-131845000D01*
X160319000Y-131845000D02*
X160319000Y-119345000D01*
%TO.C,JP1*%
X60680000Y-139690000D02*
X60680000Y-155930000D01*
X60680000Y-155930000D02*
X66770000Y-155930000D01*
X66770000Y-139690000D02*
X60680000Y-139690000D01*
X66770000Y-155930000D02*
X66770000Y-139690000D01*
%TO.C,H1*%
X68482000Y-131882000D02*
G75*
G02*
X61582000Y-131882000I-3450000J0D01*
G01*
X61582000Y-131882000D02*
G75*
G02*
X68482000Y-131882000I3450000J0D01*
G01*
%TO.C,P1*%
X59700000Y-161700000D02*
X59700000Y-165300000D01*
X59700000Y-165300000D02*
X159800000Y-165300000D01*
X159800000Y-161700000D02*
X59700000Y-161700000D01*
X159800000Y-165300000D02*
X159800000Y-161700000D01*
%TO.C,U1*%
X79350000Y-146350000D02*
X79730000Y-146350000D01*
X79350000Y-154350000D02*
X79350000Y-146350000D01*
X79730000Y-144420000D02*
X92270000Y-144420000D01*
X79730000Y-146350000D02*
X79730000Y-144420000D01*
X79730000Y-154350000D02*
X79350000Y-154350000D01*
X79730000Y-156280000D02*
X79730000Y-154350000D01*
X92270000Y-144420000D02*
X92270000Y-146350000D01*
X92270000Y-146350000D02*
X92650000Y-146350000D01*
X92270000Y-154350000D02*
X92270000Y-156280000D01*
X92270000Y-156280000D02*
X79730000Y-156280000D01*
X92650000Y-146350000D02*
X92650000Y-154350000D01*
X92650000Y-154350000D02*
X92270000Y-154350000D01*
%TO.C,C11*%
X124070000Y-127245000D02*
X125530000Y-127245000D01*
X124070000Y-130205000D02*
X124070000Y-127245000D01*
X125530000Y-127245000D02*
X125530000Y-130205000D01*
X125530000Y-130205000D02*
X124070000Y-130205000D01*
%TO.C,C8*%
X106800000Y-126750000D02*
X107950000Y-126750000D01*
X106800000Y-128850000D02*
X106800000Y-126750000D01*
X107950000Y-126750000D02*
X107950000Y-124250000D01*
X107950000Y-128850000D02*
X106800000Y-128850000D01*
X107950000Y-131350000D02*
X107950000Y-128850000D01*
X113900000Y-124250000D02*
X107950000Y-124250000D01*
X113900000Y-131350000D02*
X107950000Y-131350000D01*
X115050000Y-125400000D02*
X113900000Y-124250000D01*
X115050000Y-126750000D02*
X115050000Y-125400000D01*
X115050000Y-128850000D02*
X116200000Y-128850000D01*
X115050000Y-130200000D02*
X113900000Y-131350000D01*
X115050000Y-130200000D02*
X115050000Y-128850000D01*
X116200000Y-126750000D02*
X115050000Y-126750000D01*
X116200000Y-128850000D02*
X116200000Y-126750000D01*
%TO.C,C12*%
X122070000Y-127245000D02*
X123530000Y-127245000D01*
X122070000Y-130205000D02*
X122070000Y-127245000D01*
X123530000Y-127245000D02*
X123530000Y-130205000D01*
X123530000Y-130205000D02*
X122070000Y-130205000D01*
%TO.C,U2*%
X126100000Y-143490000D02*
X128000000Y-143490000D01*
X126100000Y-158510000D02*
X126100000Y-143490000D01*
X128000000Y-143050000D02*
X136000000Y-143050000D01*
X128000000Y-143490000D02*
X128000000Y-143050000D01*
X128000000Y-158510000D02*
X126100000Y-158510000D01*
X128000000Y-158950000D02*
X128000000Y-158510000D01*
X136000000Y-143050000D02*
X136000000Y-143490000D01*
X136000000Y-143490000D02*
X137900000Y-143490000D01*
X136000000Y-158510000D02*
X136000000Y-158950000D01*
X136000000Y-158950000D02*
X128000000Y-158950000D01*
X137900000Y-143490000D02*
X137900000Y-158510000D01*
X137900000Y-158510000D02*
X136000000Y-158510000D01*
%TO.C,C6*%
X122020000Y-143270000D02*
X124980000Y-143270000D01*
X122020000Y-144730000D02*
X122020000Y-143270000D01*
X124980000Y-143270000D02*
X124980000Y-144730000D01*
X124980000Y-144730000D02*
X122020000Y-144730000D01*
%TO.C,Y1*%
X141250000Y-150500000D02*
X147750000Y-150500000D01*
X147750000Y-142500000D01*
X141250000Y-142500000D01*
X141250000Y-150500000D01*
%TO.C,U3*%
X118195000Y-133220000D02*
X118595000Y-133220000D01*
X118195000Y-138280000D02*
X118195000Y-133220000D01*
X118595000Y-131450000D02*
X128595000Y-131450000D01*
X118595000Y-133220000D02*
X118595000Y-131450000D01*
X118595000Y-138280000D02*
X118195000Y-138280000D01*
X118595000Y-140050000D02*
X118595000Y-138280000D01*
X128595000Y-131450000D02*
X128595000Y-133220000D01*
X128595000Y-133220000D02*
X128995000Y-133220000D01*
X128595000Y-138280000D02*
X128595000Y-140050000D01*
X128595000Y-140050000D02*
X118595000Y-140050000D01*
X128995000Y-133220000D02*
X128995000Y-138280000D01*
X128995000Y-138280000D02*
X128595000Y-138280000D01*
%TO.C,R6*%
X71520000Y-153270000D02*
X74480000Y-153270000D01*
X71520000Y-154730000D02*
X71520000Y-153270000D01*
X74480000Y-153270000D02*
X74480000Y-154730000D01*
X74480000Y-154730000D02*
X71520000Y-154730000D01*
%TO.C,C9*%
X125620000Y-117270000D02*
X128580000Y-117270000D01*
X125620000Y-118730000D02*
X125620000Y-117270000D01*
X128580000Y-117270000D02*
X128580000Y-118730000D01*
X128580000Y-118730000D02*
X125620000Y-118730000D01*
%TO.C,R5*%
X71520000Y-150770000D02*
X74480000Y-150770000D01*
X71520000Y-152230000D02*
X71520000Y-150770000D01*
X74480000Y-150770000D02*
X74480000Y-152230000D01*
X74480000Y-152230000D02*
X71520000Y-152230000D01*
%TO.C,R8*%
X141920000Y-119670000D02*
X144880000Y-119670000D01*
X141920000Y-121130000D02*
X141920000Y-119670000D01*
X144880000Y-119670000D02*
X144880000Y-121130000D01*
X144880000Y-121130000D02*
X141920000Y-121130000D01*
%TO.C,R7*%
X126020000Y-127245000D02*
X127480000Y-127245000D01*
X126020000Y-130205000D02*
X126020000Y-127245000D01*
X127480000Y-127245000D02*
X127480000Y-130205000D01*
X127480000Y-130205000D02*
X126020000Y-130205000D01*
%TO.C,R9*%
X141920000Y-129670000D02*
X144880000Y-129670000D01*
X141920000Y-131130000D02*
X141920000Y-129670000D01*
X144880000Y-129670000D02*
X144880000Y-131130000D01*
X144880000Y-131130000D02*
X141920000Y-131130000D01*
%TO.C,R3*%
X71520000Y-145770000D02*
X74480000Y-145770000D01*
X71520000Y-147230000D02*
X71520000Y-145770000D01*
X74480000Y-145770000D02*
X74480000Y-147230000D01*
X74480000Y-147230000D02*
X71520000Y-147230000D01*
%TO.C,R1*%
X71520000Y-140770000D02*
X74480000Y-140770000D01*
X71520000Y-142230000D02*
X71520000Y-140770000D01*
X74480000Y-140770000D02*
X74480000Y-142230000D01*
X74480000Y-142230000D02*
X71520000Y-142230000D01*
%TO.C,C10*%
X121745000Y-117270000D02*
X124705000Y-117270000D01*
X121745000Y-118730000D02*
X121745000Y-117270000D01*
X124705000Y-117270000D02*
X124705000Y-118730000D01*
X124705000Y-118730000D02*
X121745000Y-118730000D01*
%TO.C,R2*%
X71520000Y-143270000D02*
X74480000Y-143270000D01*
X71520000Y-144730000D02*
X71520000Y-143270000D01*
X74480000Y-143270000D02*
X74480000Y-144730000D01*
X74480000Y-144730000D02*
X71520000Y-144730000D01*
%TO.C,U4*%
X118920000Y-120837022D02*
X119140000Y-120837022D01*
X118920000Y-125237022D02*
X118920000Y-120837022D01*
X119140000Y-119337022D02*
X127860000Y-119337022D01*
X119140000Y-120837022D02*
X119140000Y-119337022D01*
X119140000Y-125237022D02*
X118920000Y-125237022D01*
X119140000Y-126737022D02*
X119140000Y-125237022D01*
X127860000Y-119337022D02*
X127860000Y-120837022D01*
X127860000Y-120837022D02*
X128080000Y-120837022D01*
X127860000Y-125237022D02*
X127860000Y-126737022D01*
X127860000Y-126737022D02*
X119140000Y-126737022D01*
X128080000Y-120837022D02*
X128080000Y-125237022D01*
X128080000Y-125237022D02*
X127860000Y-125237022D01*
%TO.C,C16*%
X131200000Y-129350000D02*
X131200000Y-131450000D01*
X131200000Y-131450000D02*
X132350000Y-131450000D01*
X132350000Y-128000000D02*
X132350000Y-129350000D01*
X132350000Y-128000000D02*
X133500000Y-126850000D01*
X132350000Y-129350000D02*
X131200000Y-129350000D01*
X132350000Y-131450000D02*
X132350000Y-132800000D01*
X132350000Y-132800000D02*
X133500000Y-133950000D01*
X133500000Y-126850000D02*
X139450000Y-126850000D01*
X133500000Y-133950000D02*
X139450000Y-133950000D01*
X139450000Y-126850000D02*
X139450000Y-129350000D01*
X139450000Y-129350000D02*
X140600000Y-129350000D01*
X139450000Y-131450000D02*
X139450000Y-133950000D01*
X140600000Y-129350000D02*
X140600000Y-131450000D01*
X140600000Y-131450000D02*
X139450000Y-131450000D01*
%TO.C,R4*%
X71520000Y-148270000D02*
X74480000Y-148270000D01*
X71520000Y-149730000D02*
X71520000Y-148270000D01*
X74480000Y-148270000D02*
X74480000Y-149730000D01*
X74480000Y-149730000D02*
X71520000Y-149730000D01*
%TO.C,C5*%
X97800000Y-154950000D02*
X98950000Y-154950000D01*
X97800000Y-157050000D02*
X97800000Y-154950000D01*
X98950000Y-154950000D02*
X98950000Y-152450000D01*
X98950000Y-157050000D02*
X97800000Y-157050000D01*
X98950000Y-159550000D02*
X98950000Y-157050000D01*
X104900000Y-152450000D02*
X98950000Y-152450000D01*
X104900000Y-159550000D02*
X98950000Y-159550000D01*
X106050000Y-153600000D02*
X104900000Y-152450000D01*
X106050000Y-154950000D02*
X106050000Y-153600000D01*
X106050000Y-157050000D02*
X107200000Y-157050000D01*
X106050000Y-158400000D02*
X104900000Y-159550000D01*
X106050000Y-158400000D02*
X106050000Y-157050000D01*
X107200000Y-154950000D02*
X106050000Y-154950000D01*
X107200000Y-157050000D02*
X107200000Y-154950000D01*
%TO.C,C2*%
X97800000Y-144450000D02*
X98950000Y-144450000D01*
X97800000Y-146550000D02*
X97800000Y-144450000D01*
X98950000Y-144450000D02*
X98950000Y-141950000D01*
X98950000Y-146550000D02*
X97800000Y-146550000D01*
X98950000Y-149050000D02*
X98950000Y-146550000D01*
X104900000Y-141950000D02*
X98950000Y-141950000D01*
X104900000Y-149050000D02*
X98950000Y-149050000D01*
X106050000Y-143100000D02*
X104900000Y-141950000D01*
X106050000Y-144450000D02*
X106050000Y-143100000D01*
X106050000Y-146550000D02*
X107200000Y-146550000D01*
X106050000Y-147900000D02*
X104900000Y-149050000D01*
X106050000Y-147900000D02*
X106050000Y-146550000D01*
X107200000Y-144450000D02*
X106050000Y-144450000D01*
X107200000Y-146550000D02*
X107200000Y-144450000D01*
%TO.C,C15*%
X131200000Y-119350000D02*
X131200000Y-121450000D01*
X131200000Y-121450000D02*
X132350000Y-121450000D01*
X132350000Y-118000000D02*
X132350000Y-119350000D01*
X132350000Y-118000000D02*
X133500000Y-116850000D01*
X132350000Y-119350000D02*
X131200000Y-119350000D01*
X132350000Y-121450000D02*
X132350000Y-122800000D01*
X132350000Y-122800000D02*
X133500000Y-123950000D01*
X133500000Y-116850000D02*
X139450000Y-116850000D01*
X133500000Y-123950000D02*
X139450000Y-123950000D01*
X139450000Y-116850000D02*
X139450000Y-119350000D01*
X139450000Y-119350000D02*
X140600000Y-119350000D01*
X139450000Y-121450000D02*
X139450000Y-123950000D01*
X140600000Y-119350000D02*
X140600000Y-121450000D01*
X140600000Y-121450000D02*
X139450000Y-121450000D01*
%TO.C,C19*%
X148884000Y-148296000D02*
X151844000Y-148296000D01*
X148884000Y-149756000D02*
X148884000Y-148296000D01*
X151844000Y-148296000D02*
X151844000Y-149756000D01*
X151844000Y-149756000D02*
X148884000Y-149756000D01*
%TO.C,R10*%
X141920000Y-123670000D02*
X144880000Y-123670000D01*
X141920000Y-125130000D02*
X141920000Y-123670000D01*
X144880000Y-123670000D02*
X144880000Y-125130000D01*
X144880000Y-125130000D02*
X141920000Y-125130000D01*
%TO.C,R11*%
X141920000Y-133670000D02*
X144880000Y-133670000D01*
X141920000Y-135130000D02*
X141920000Y-133670000D01*
X144880000Y-133670000D02*
X144880000Y-135130000D01*
X144880000Y-135130000D02*
X141920000Y-135130000D01*
%TD*%
M02*
