%TF.GenerationSoftware,KiCad,Pcbnew,9.0.1+1*%
%TF.CreationDate,2025-10-01T23:06:09+00:00*%
%TF.ProjectId,rcbus-opl3,72636275-732d-46f7-906c-332e6b696361,@version@*%
%TF.SameCoordinates,Original*%
%TF.FileFunction,Soldermask,Top*%
%TF.FilePolarity,Negative*%
%FSLAX46Y46*%
G04 Gerber Fmt 4.6, Leading zero omitted, Abs format (unit mm)*
G04 Created by KiCad (PCBNEW 9.0.1+1) date 2025-10-01 23:06:09*
%MOMM*%
%LPD*%
G01*
G04 APERTURE LIST*
G04 Aperture macros list*
%AMRoundRect*
0 Rectangle with rounded corners*
0 $1 Rounding radius*
0 $2 $3 $4 $5 $6 $7 $8 $9 X,Y pos of 4 corners*
0 Add a 4 corners polygon primitive as box body*
4,1,4,$2,$3,$4,$5,$6,$7,$8,$9,$2,$3,0*
0 Add four circle primitives for the rounded corners*
1,1,$1+$1,$2,$3*
1,1,$1+$1,$4,$5*
1,1,$1+$1,$6,$7*
1,1,$1+$1,$8,$9*
0 Add four rect primitives between the rounded corners*
20,1,$1+$1,$2,$3,$4,$5,0*
20,1,$1+$1,$4,$5,$6,$7,0*
20,1,$1+$1,$6,$7,$8,$9,0*
20,1,$1+$1,$8,$9,$2,$3,0*%
G04 Aperture macros list end*
%ADD10RoundRect,0.225000X0.225000X0.250000X-0.225000X0.250000X-0.225000X-0.250000X0.225000X-0.250000X0*%
%ADD11C,1.200000*%
%ADD12R,2.500000X1.800000*%
%ADD13R,1.800000X2.500000*%
%ADD14R,1.700000X1.700000*%
%ADD15C,1.700000*%
%ADD16C,3.200000*%
%ADD17O,1.700000X1.700000*%
%ADD18RoundRect,0.150000X0.150000X-0.875000X0.150000X0.875000X-0.150000X0.875000X-0.150000X-0.875000X0*%
%ADD19RoundRect,0.225000X-0.250000X0.225000X-0.250000X-0.225000X0.250000X-0.225000X0.250000X0.225000X0*%
%ADD20RoundRect,0.250000X-0.550000X1.500000X-0.550000X-1.500000X0.550000X-1.500000X0.550000X1.500000X0*%
%ADD21RoundRect,0.137500X0.137500X-0.862500X0.137500X0.862500X-0.137500X0.862500X-0.137500X-0.862500X0*%
%ADD22RoundRect,0.250000X-0.650000X-0.750000X0.650000X-0.750000X0.650000X0.750000X-0.650000X0.750000X0*%
%ADD23RoundRect,0.150000X0.150000X-0.650000X0.150000X0.650000X-0.150000X0.650000X-0.150000X-0.650000X0*%
%ADD24RoundRect,0.200000X-0.200000X-0.275000X0.200000X-0.275000X0.200000X0.275000X-0.200000X0.275000X0*%
%ADD25RoundRect,0.225000X0.250000X-0.225000X0.250000X0.225000X-0.250000X0.225000X-0.250000X-0.225000X0*%
%ADD26RoundRect,0.200000X0.275000X-0.200000X0.275000X0.200000X-0.275000X0.200000X-0.275000X-0.200000X0*%
%ADD27RoundRect,0.150000X0.150000X-0.825000X0.150000X0.825000X-0.150000X0.825000X-0.150000X-0.825000X0*%
%ADD28RoundRect,0.250000X-1.500000X-0.550000X1.500000X-0.550000X1.500000X0.550000X-1.500000X0.550000X0*%
G04 APERTURE END LIST*
D10*
%TO.C,C1*%
X112025000Y-156750000D03*
X110475000Y-156750000D03*
%TD*%
%TO.C,C7*%
X112025000Y-141000000D03*
X110475000Y-141000000D03*
%TD*%
D11*
%TO.C,CON1*%
X156569000Y-130095000D03*
X156569000Y-120095000D03*
X154069000Y-130095000D03*
X154069000Y-120095000D03*
X149069000Y-125095000D03*
D12*
X149069000Y-130095000D03*
X149069000Y-127595000D03*
D13*
X154069000Y-125095000D03*
D12*
X149069000Y-120095000D03*
X149069000Y-122595000D03*
%TD*%
D14*
%TO.C,JP1*%
X65000000Y-156160000D03*
D15*
X62460000Y-156160000D03*
X65000000Y-153620000D03*
X62460000Y-153620000D03*
X65000000Y-151080000D03*
X62460000Y-151080000D03*
X65000000Y-148540000D03*
X62460000Y-148540000D03*
X65000000Y-146000000D03*
X62460000Y-146000000D03*
X65000000Y-143460000D03*
X62460000Y-143460000D03*
%TD*%
D16*
%TO.C,H1*%
X65532000Y-131382000D03*
%TD*%
D14*
%TO.C,P1*%
X62000000Y-163000000D03*
D17*
X64540000Y-163000000D03*
X67080000Y-163000000D03*
X69620000Y-163000000D03*
X72160000Y-163000000D03*
X74700000Y-163000000D03*
X77240000Y-163000000D03*
X79780000Y-163000000D03*
X82320000Y-163000000D03*
X84860000Y-163000000D03*
X87400000Y-163000000D03*
X89940000Y-163000000D03*
X92480000Y-163000000D03*
X95020000Y-163000000D03*
X97560000Y-163000000D03*
X100100000Y-163000000D03*
X102640000Y-163000000D03*
X105180000Y-163000000D03*
X107720000Y-163000000D03*
X110260000Y-163000000D03*
X112800000Y-163000000D03*
X115340000Y-163000000D03*
X117880000Y-163000000D03*
X120420000Y-163000000D03*
X122960000Y-163000000D03*
X125500000Y-163000000D03*
X128040000Y-163000000D03*
X130580000Y-163000000D03*
X133120000Y-163000000D03*
X135660000Y-163000000D03*
X138200000Y-163000000D03*
X140740000Y-163000000D03*
X143280000Y-163000000D03*
X145820000Y-163000000D03*
X148360000Y-163000000D03*
X150900000Y-163000000D03*
X153440000Y-163000000D03*
X155980000Y-163000000D03*
X158520000Y-163000000D03*
%TD*%
D18*
%TO.C,U1*%
X80880000Y-156500000D03*
X82150000Y-156500000D03*
X83420000Y-156500000D03*
X84690000Y-156500000D03*
X85960000Y-156500000D03*
X87230000Y-156500000D03*
X88500000Y-156500000D03*
X89770000Y-156500000D03*
X91040000Y-156500000D03*
X92310000Y-156500000D03*
X92310000Y-147200000D03*
X91040000Y-147200000D03*
X89770000Y-147200000D03*
X88500000Y-147200000D03*
X87230000Y-147200000D03*
X85960000Y-147200000D03*
X84690000Y-147200000D03*
X83420000Y-147200000D03*
X82150000Y-147200000D03*
X80880000Y-147200000D03*
%TD*%
D19*
%TO.C,C11*%
X121500000Y-128605197D03*
X121500000Y-130155197D03*
%TD*%
D20*
%TO.C,C8*%
X108250000Y-129050000D03*
X108250000Y-134450000D03*
%TD*%
D19*
%TO.C,C12*%
X119250000Y-128605197D03*
X119250000Y-130155197D03*
%TD*%
D21*
%TO.C,U2*%
X114515000Y-156650000D03*
X115785000Y-156650000D03*
X117055000Y-156650000D03*
X118325000Y-156650000D03*
X119595000Y-156650000D03*
X120865000Y-156650000D03*
X122135000Y-156650000D03*
X123405000Y-156650000D03*
X124675000Y-156650000D03*
X125945000Y-156650000D03*
X127215000Y-156650000D03*
X128485000Y-156650000D03*
X128485000Y-147350000D03*
X127215000Y-147350000D03*
X125945000Y-147350000D03*
X124675000Y-147350000D03*
X123405000Y-147350000D03*
X122135000Y-147350000D03*
X120865000Y-147350000D03*
X119595000Y-147350000D03*
X118325000Y-147350000D03*
X117055000Y-147350000D03*
X115785000Y-147350000D03*
X114515000Y-147350000D03*
%TD*%
D10*
%TO.C,C6*%
X80775000Y-145000000D03*
X79225000Y-145000000D03*
%TD*%
D22*
%TO.C,Y1*%
X104710000Y-150750000D03*
X109790000Y-150750000D03*
X109790000Y-146750000D03*
X104710000Y-146750000D03*
%TD*%
D23*
%TO.C,U3*%
X114555000Y-141250000D03*
X115825000Y-141250000D03*
X117095000Y-141250000D03*
X118365000Y-141250000D03*
X119635000Y-141250000D03*
X120905000Y-141250000D03*
X122175000Y-141250000D03*
X123445000Y-141250000D03*
X123445000Y-134750000D03*
X122175000Y-134750000D03*
X120905000Y-134750000D03*
X119635000Y-134750000D03*
X118365000Y-134750000D03*
X117095000Y-134750000D03*
X115825000Y-134750000D03*
X114555000Y-134750000D03*
%TD*%
D24*
%TO.C,R6*%
X73337500Y-156000000D03*
X74987500Y-156000000D03*
%TD*%
D25*
%TO.C,C9*%
X120500000Y-118750000D03*
X120500000Y-117200000D03*
%TD*%
D24*
%TO.C,R5*%
X73337500Y-153500000D03*
X74987500Y-153500000D03*
%TD*%
%TO.C,R8*%
X140100000Y-120000000D03*
X141750000Y-120000000D03*
%TD*%
D26*
%TO.C,R7*%
X123250000Y-130255197D03*
X123250000Y-128605197D03*
%TD*%
D24*
%TO.C,R9*%
X139850000Y-130250000D03*
X141500000Y-130250000D03*
%TD*%
%TO.C,R3*%
X73337500Y-148500000D03*
X74987500Y-148500000D03*
%TD*%
%TO.C,R1*%
X73337500Y-143500000D03*
X74987500Y-143500000D03*
%TD*%
D25*
%TO.C,C10*%
X117800000Y-118775000D03*
X117800000Y-117225000D03*
%TD*%
D24*
%TO.C,R2*%
X73337500Y-146000000D03*
X74987500Y-146000000D03*
%TD*%
D27*
%TO.C,U4*%
X115327500Y-125992697D03*
X116597500Y-125992697D03*
X117867500Y-125992697D03*
X119137500Y-125992697D03*
X120407500Y-125992697D03*
X121677500Y-125992697D03*
X122947500Y-125992697D03*
X122947500Y-121042697D03*
X121677500Y-121042697D03*
X120407500Y-121042697D03*
X119137500Y-121042697D03*
X117867500Y-121042697D03*
X116597500Y-121042697D03*
X115327500Y-121042697D03*
%TD*%
D28*
%TO.C,C16*%
X131050000Y-130250000D03*
X136450000Y-130250000D03*
%TD*%
D24*
%TO.C,R4*%
X73337500Y-151000000D03*
X74987500Y-151000000D03*
%TD*%
D20*
%TO.C,C5*%
X98500000Y-152750000D03*
X98500000Y-158150000D03*
%TD*%
D28*
%TO.C,C15*%
X130800000Y-120000000D03*
X136200000Y-120000000D03*
%TD*%
D25*
%TO.C,C19*%
X101750000Y-150775000D03*
X101750000Y-149225000D03*
%TD*%
D24*
%TO.C,R10*%
X140100000Y-125250000D03*
X141750000Y-125250000D03*
%TD*%
%TO.C,R11*%
X139925000Y-135250000D03*
X141575000Y-135250000D03*
%TD*%
M02*
