%TF.GenerationSoftware,KiCad,Pcbnew,9.0.1+1*%
%TF.CreationDate,2025-09-29T21:03:37+00:00*%
%TF.ProjectId,rcbus-opl3,72636275-732d-46f7-906c-332e6b696361,@version@*%
%TF.SameCoordinates,Original*%
%TF.FileFunction,Legend,Bot*%
%TF.FilePolarity,Positive*%
%FSLAX46Y46*%
G04 Gerber Fmt 4.6, Leading zero omitted, Abs format (unit mm)*
G04 Created by KiCad (PCBNEW 9.0.1+1) date 2025-09-29 21:03:37*
%MOMM*%
%LPD*%
G01*
G04 APERTURE LIST*
%ADD10C,0.300000*%
G04 APERTURE END LIST*
D10*
G36*
X160732230Y-160872500D02*
G01*
X160732230Y-159271762D01*
X160420729Y-159271762D01*
X160420729Y-159859960D01*
X160354268Y-159813743D01*
X160262460Y-159768003D01*
X160162847Y-159736567D01*
X160062333Y-159726237D01*
X159978063Y-159732558D01*
X159911186Y-159749896D01*
X159858268Y-159776612D01*
X159812585Y-159814391D01*
X159776215Y-159860894D01*
X159748634Y-159917388D01*
X159723803Y-160012014D01*
X159714928Y-160126215D01*
X159714928Y-160872500D01*
X160026338Y-160872500D01*
X160026338Y-160166149D01*
X160031899Y-160115791D01*
X160047221Y-160077031D01*
X160071910Y-160045639D01*
X160103916Y-160023542D01*
X160141749Y-160010461D01*
X160186714Y-160005865D01*
X160272535Y-160017039D01*
X160350296Y-160046806D01*
X160420729Y-160089030D01*
X160420729Y-160872500D01*
X160732230Y-160872500D01*
G37*
G36*
X159053732Y-160872500D02*
G01*
X159140149Y-160867719D01*
X159209532Y-160854639D01*
X159264850Y-160834764D01*
X159313562Y-160804208D01*
X159352125Y-160762843D01*
X159381445Y-160709009D01*
X159399684Y-160649082D01*
X159411170Y-160571295D01*
X159413960Y-160471605D01*
X159403610Y-159994050D01*
X159579648Y-159994050D01*
X159579648Y-159794564D01*
X159392436Y-159745105D01*
X159351129Y-159429116D01*
X159105573Y-159429116D01*
X159105573Y-159745105D01*
X158839501Y-159745105D01*
X158839501Y-159994050D01*
X159105573Y-159994050D01*
X159105573Y-160470048D01*
X159096872Y-160544970D01*
X159085956Y-160572278D01*
X159072234Y-160592139D01*
X159035689Y-160617968D01*
X158992733Y-160628226D01*
X158850675Y-160642331D01*
X158850675Y-160872500D01*
X159053732Y-160872500D01*
G37*
G36*
X158237473Y-160872500D02*
G01*
X158323890Y-160867719D01*
X158393273Y-160854639D01*
X158448590Y-160834764D01*
X158497302Y-160804208D01*
X158535865Y-160762843D01*
X158565186Y-160709009D01*
X158583424Y-160649082D01*
X158594911Y-160571295D01*
X158597700Y-160471605D01*
X158587351Y-159994050D01*
X158763389Y-159994050D01*
X158763389Y-159794564D01*
X158576177Y-159745105D01*
X158534869Y-159429116D01*
X158289313Y-159429116D01*
X158289313Y-159745105D01*
X158023241Y-159745105D01*
X158023241Y-159994050D01*
X158289313Y-159994050D01*
X158289313Y-160470048D01*
X158280612Y-160544970D01*
X158269696Y-160572278D01*
X158255974Y-160592139D01*
X158219429Y-160617968D01*
X158176473Y-160628226D01*
X158034415Y-160642331D01*
X158034415Y-160872500D01*
X158237473Y-160872500D01*
G37*
G36*
X157289343Y-159732406D02*
G01*
X157347208Y-159745655D01*
X157401936Y-159766207D01*
X157451530Y-159791816D01*
X157539640Y-159852541D01*
X157590199Y-159745105D01*
X157851142Y-159745105D01*
X157851142Y-161370205D01*
X157539640Y-161370205D01*
X157539640Y-160814248D01*
X157469068Y-160845131D01*
X157389248Y-160868836D01*
X157306804Y-160883399D01*
X157226857Y-160888162D01*
X157126816Y-160879556D01*
X157048281Y-160855946D01*
X156986705Y-160819285D01*
X156935732Y-160768346D01*
X156894546Y-160703114D01*
X156863332Y-160620807D01*
X156836657Y-160484329D01*
X156826787Y-160309672D01*
X157138197Y-160309672D01*
X157145899Y-160431226D01*
X157164941Y-160508425D01*
X157197593Y-160569576D01*
X157235100Y-160604779D01*
X157280243Y-160624949D01*
X157328248Y-160631615D01*
X157384749Y-160627840D01*
X157441455Y-160616411D01*
X157495300Y-160598338D01*
X157539640Y-160576386D01*
X157539640Y-160041219D01*
X157447042Y-159998812D01*
X157390420Y-159983639D01*
X157326691Y-159978387D01*
X157274558Y-159985948D01*
X157229605Y-160008155D01*
X157193571Y-160045987D01*
X157162835Y-160110828D01*
X157145183Y-160190631D01*
X157138197Y-160309672D01*
X156826787Y-160309672D01*
X156832842Y-160178244D01*
X156849777Y-160066773D01*
X156880156Y-159964595D01*
X156921584Y-159883316D01*
X156977592Y-159816343D01*
X157046606Y-159767820D01*
X157127552Y-159738357D01*
X157226857Y-159727886D01*
X157289343Y-159732406D01*
G37*
G36*
X156212577Y-160885139D02*
G01*
X156326700Y-160881750D01*
X156448791Y-160872500D01*
X156561448Y-160856746D01*
X156648643Y-160834123D01*
X156648643Y-160651582D01*
X156149563Y-160651582D01*
X156077389Y-160644071D01*
X156051898Y-160633107D01*
X156034982Y-160616686D01*
X156024984Y-160594114D01*
X156021152Y-160560449D01*
X156021152Y-160524087D01*
X156028294Y-160486216D01*
X156048629Y-160458874D01*
X156082806Y-160442453D01*
X156149013Y-160435427D01*
X156325692Y-160435427D01*
X156419326Y-160427910D01*
X156500082Y-160406484D01*
X156548531Y-160382744D01*
X156589158Y-160350911D01*
X156622905Y-160310405D01*
X156646906Y-160263447D01*
X156662475Y-160204055D01*
X156668151Y-160129146D01*
X156668151Y-160063750D01*
X156663133Y-159993113D01*
X156649020Y-159933596D01*
X156626752Y-159883316D01*
X156594171Y-159840026D01*
X156548244Y-159803106D01*
X156486160Y-159772491D01*
X156418742Y-159752910D01*
X156330010Y-159739623D01*
X156215142Y-159734664D01*
X156066398Y-159741899D01*
X155917563Y-159760676D01*
X155806371Y-159786138D01*
X155806371Y-159968679D01*
X156278157Y-159968679D01*
X156335098Y-159974419D01*
X156371213Y-159988920D01*
X156394067Y-160015776D01*
X156402812Y-160063750D01*
X156402812Y-160098463D01*
X156398669Y-160131608D01*
X156387883Y-160153235D01*
X156369691Y-160168473D01*
X156341812Y-160178697D01*
X156265700Y-160185383D01*
X156084533Y-160185383D01*
X155997009Y-160191330D01*
X155928418Y-160207508D01*
X155875046Y-160232105D01*
X155833940Y-160264335D01*
X155791668Y-160321424D01*
X155765219Y-160392836D01*
X155755721Y-160482688D01*
X155755721Y-160583530D01*
X155762293Y-160657398D01*
X155780459Y-160716223D01*
X155808936Y-160763140D01*
X155848266Y-160801803D01*
X155899090Y-160833235D01*
X155963725Y-160857204D01*
X156071227Y-160877522D01*
X156212577Y-160885139D01*
G37*
G36*
X155526194Y-160875614D02*
G01*
X155551085Y-160870600D01*
X155564750Y-160857263D01*
X155569791Y-160833482D01*
X155569791Y-160618792D01*
X155564602Y-160593009D01*
X155550799Y-160578857D01*
X155526194Y-160573638D01*
X155346492Y-160573638D01*
X155320798Y-160578939D01*
X155306550Y-160593167D01*
X155301246Y-160618792D01*
X155301246Y-160833482D01*
X155304774Y-160854213D01*
X155313978Y-160866271D01*
X155346492Y-160875614D01*
X155526194Y-160875614D01*
G37*
G36*
X155526194Y-160043234D02*
G01*
X155551085Y-160038220D01*
X155564750Y-160024884D01*
X155569791Y-160001102D01*
X155569791Y-159786413D01*
X155564602Y-159760629D01*
X155550799Y-159746477D01*
X155526194Y-159741258D01*
X155346492Y-159741258D01*
X155320798Y-159746560D01*
X155306550Y-159760787D01*
X155301246Y-159786413D01*
X155301246Y-160001102D01*
X155304774Y-160021834D01*
X155313978Y-160033892D01*
X155346492Y-160043234D01*
X155526194Y-160043234D01*
G37*
G36*
X155201870Y-161023716D02*
G01*
X154611749Y-159255459D01*
X154295485Y-159255459D01*
X154885606Y-161023716D01*
X155201870Y-161023716D01*
G37*
G36*
X154526294Y-161023716D02*
G01*
X153936173Y-159255459D01*
X153619909Y-159255459D01*
X154210030Y-161023716D01*
X154526294Y-161023716D01*
G37*
G36*
X153554422Y-160872500D02*
G01*
X153554422Y-159745105D01*
X153297692Y-159745105D01*
X153242920Y-159859960D01*
X153165979Y-159809238D01*
X153081628Y-159765713D01*
X153022075Y-159744636D01*
X152950946Y-159731089D01*
X152866115Y-159726237D01*
X152796920Y-159731620D01*
X152738909Y-159746764D01*
X152690077Y-159770751D01*
X152627569Y-159821833D01*
X152582640Y-159884598D01*
X152471723Y-159812241D01*
X152405711Y-159778799D01*
X152333971Y-159750967D01*
X152259947Y-159732297D01*
X152188432Y-159726237D01*
X152098997Y-159732725D01*
X152028846Y-159750408D01*
X151974109Y-159777437D01*
X151927137Y-159815996D01*
X151890461Y-159863702D01*
X151863467Y-159921967D01*
X151839804Y-160020132D01*
X151831227Y-160141603D01*
X151831227Y-160872500D01*
X152142637Y-160872500D01*
X152142637Y-160169172D01*
X152148031Y-160117465D01*
X152162695Y-160078588D01*
X152186695Y-160047035D01*
X152218199Y-160024366D01*
X152256077Y-160010756D01*
X152303654Y-160005865D01*
X152366135Y-160012119D01*
X152431057Y-160031510D01*
X152492851Y-160060380D01*
X152546095Y-160094067D01*
X152539409Y-160134184D01*
X152537120Y-160175400D01*
X152537120Y-160872500D01*
X152848529Y-160872500D01*
X152848529Y-160169172D01*
X152853923Y-160117465D01*
X152868588Y-160078588D01*
X152892539Y-160047014D01*
X152923817Y-160024366D01*
X152961446Y-160010762D01*
X153008905Y-160005865D01*
X153095001Y-160016215D01*
X153172212Y-160045249D01*
X153242920Y-160089030D01*
X153242920Y-160872500D01*
X153554422Y-160872500D01*
G37*
G36*
X151267225Y-159735600D02*
G01*
X151380691Y-159748860D01*
X151485165Y-159769718D01*
X151570651Y-159793557D01*
X151570651Y-159972984D01*
X151233595Y-159972984D01*
X151135214Y-159977785D01*
X151076608Y-159989287D01*
X151031542Y-160011159D01*
X151006358Y-160039845D01*
X150992932Y-160077073D01*
X150987948Y-160127315D01*
X150987948Y-160203702D01*
X151275636Y-160203702D01*
X151373108Y-160209961D01*
X151450128Y-160227027D01*
X151510562Y-160252977D01*
X151557553Y-160286866D01*
X151607735Y-160347250D01*
X151637629Y-160416736D01*
X151647953Y-160498258D01*
X151647953Y-160600199D01*
X151638315Y-160685357D01*
X151611255Y-160753726D01*
X151567445Y-160809118D01*
X151509702Y-160850721D01*
X151441356Y-160876190D01*
X151359442Y-160885139D01*
X151290514Y-160881479D01*
X151226085Y-160870759D01*
X151164590Y-160854021D01*
X151111138Y-160833940D01*
X151024035Y-160790159D01*
X150972561Y-160753431D01*
X150922003Y-160872500D01*
X150676447Y-160872500D01*
X150676447Y-160613938D01*
X150987948Y-160613938D01*
X151008281Y-160622181D01*
X151048307Y-160636561D01*
X151100056Y-160651673D01*
X151154644Y-160664221D01*
X151202821Y-160668893D01*
X151269957Y-160657260D01*
X151297329Y-160642250D01*
X151318500Y-160619159D01*
X151331687Y-160589161D01*
X151336544Y-160548267D01*
X151336544Y-160502838D01*
X151326463Y-160447039D01*
X151297892Y-160406484D01*
X151251879Y-160379689D01*
X151176168Y-160364077D01*
X150987948Y-160350980D01*
X150987948Y-160613938D01*
X150676447Y-160613938D01*
X150676447Y-160105882D01*
X150683124Y-160010208D01*
X150701196Y-159936151D01*
X150728562Y-159879286D01*
X150768144Y-159830552D01*
X150818134Y-159792201D01*
X150880237Y-159763698D01*
X150985523Y-159738995D01*
X151120389Y-159730267D01*
X151267225Y-159735600D01*
G37*
G36*
X150406986Y-159579142D02*
G01*
X150431886Y-159574135D01*
X150445547Y-159560823D01*
X150450583Y-159537102D01*
X150450583Y-159331663D01*
X150445394Y-159305880D01*
X150431591Y-159291728D01*
X150406986Y-159286509D01*
X150167292Y-159286509D01*
X150149198Y-159289892D01*
X150137250Y-159299240D01*
X150127359Y-159331663D01*
X150127359Y-159537102D01*
X150132145Y-159561171D01*
X150144817Y-159574316D01*
X150167292Y-159579142D01*
X150406986Y-159579142D01*
G37*
G36*
X150444722Y-160872500D02*
G01*
X150444722Y-159745105D01*
X150133220Y-159745105D01*
X150133220Y-160872500D01*
X150444722Y-160872500D01*
G37*
G36*
X149215569Y-159780459D02*
G01*
X149350300Y-159743640D01*
X149426765Y-159731828D01*
X149504264Y-159727886D01*
X149610489Y-159735667D01*
X149693623Y-159756863D01*
X149758338Y-159789252D01*
X149812653Y-159836093D01*
X149856470Y-159898797D01*
X149889771Y-159980677D01*
X149909966Y-160068350D01*
X149923517Y-160179985D01*
X149928514Y-160320205D01*
X149922644Y-160456339D01*
X149906742Y-160564147D01*
X149882994Y-160648468D01*
X149845943Y-160726701D01*
X149800731Y-160785836D01*
X149747347Y-160829085D01*
X149685018Y-160859371D01*
X149611790Y-160878404D01*
X149525330Y-160885139D01*
X149468121Y-160881107D01*
X149411116Y-160868927D01*
X149355710Y-160849878D01*
X149303314Y-160825330D01*
X149254847Y-160795930D01*
X149215569Y-160765063D01*
X149165011Y-160872500D01*
X148904160Y-160872500D01*
X148904160Y-160004491D01*
X149215569Y-160004491D01*
X149215569Y-160571806D01*
X149301390Y-160614213D01*
X149354406Y-160629331D01*
X149416245Y-160634637D01*
X149484054Y-160627256D01*
X149533207Y-160607435D01*
X149570129Y-160571301D01*
X149597504Y-160508425D01*
X149611381Y-160429176D01*
X149617013Y-160304818D01*
X149610943Y-160172647D01*
X149596130Y-160090312D01*
X149577932Y-160043588D01*
X149555013Y-160010761D01*
X149527620Y-159988829D01*
X149475298Y-159968899D01*
X149402965Y-159961443D01*
X149351858Y-159964998D01*
X149304046Y-159975457D01*
X149215569Y-160004491D01*
X148904160Y-160004491D01*
X148904160Y-159270205D01*
X149215569Y-159270205D01*
X149215569Y-159780459D01*
G37*
G36*
X148339241Y-159735600D02*
G01*
X148452707Y-159748860D01*
X148557182Y-159769718D01*
X148642667Y-159793557D01*
X148642667Y-159972984D01*
X148305612Y-159972984D01*
X148207231Y-159977785D01*
X148148625Y-159989287D01*
X148103559Y-160011159D01*
X148078375Y-160039845D01*
X148064949Y-160077073D01*
X148059965Y-160127315D01*
X148059965Y-160203702D01*
X148347652Y-160203702D01*
X148445125Y-160209961D01*
X148522145Y-160227027D01*
X148582579Y-160252977D01*
X148629570Y-160286866D01*
X148679751Y-160347250D01*
X148709646Y-160416736D01*
X148719970Y-160498258D01*
X148719970Y-160600199D01*
X148710332Y-160685357D01*
X148683272Y-160753726D01*
X148639462Y-160809118D01*
X148581718Y-160850721D01*
X148513373Y-160876190D01*
X148431458Y-160885139D01*
X148362531Y-160881479D01*
X148298102Y-160870759D01*
X148236607Y-160854021D01*
X148183155Y-160833940D01*
X148096052Y-160790159D01*
X148044578Y-160753431D01*
X147994019Y-160872500D01*
X147748464Y-160872500D01*
X147748464Y-160613938D01*
X148059965Y-160613938D01*
X148080298Y-160622181D01*
X148120323Y-160636561D01*
X148172072Y-160651673D01*
X148226661Y-160664221D01*
X148274838Y-160668893D01*
X148341974Y-160657260D01*
X148369346Y-160642250D01*
X148390517Y-160619159D01*
X148403704Y-160589161D01*
X148408561Y-160548267D01*
X148408561Y-160502838D01*
X148398480Y-160447039D01*
X148369909Y-160406484D01*
X148323896Y-160379689D01*
X148248185Y-160364077D01*
X148059965Y-160350980D01*
X148059965Y-160613938D01*
X147748464Y-160613938D01*
X147748464Y-160105882D01*
X147755141Y-160010208D01*
X147773213Y-159936151D01*
X147800579Y-159879286D01*
X147840161Y-159830552D01*
X147890151Y-159792201D01*
X147952254Y-159763698D01*
X148057540Y-159738995D01*
X148192406Y-159730267D01*
X148339241Y-159735600D01*
G37*
G36*
X147231799Y-160872500D02*
G01*
X147609795Y-159745105D01*
X147289135Y-159745105D01*
X147046418Y-160584629D01*
X146795184Y-159745105D01*
X146477638Y-159745105D01*
X146873219Y-160872500D01*
X147231799Y-160872500D01*
G37*
G36*
X146042870Y-159735600D02*
G01*
X146156336Y-159748860D01*
X146260810Y-159769718D01*
X146346296Y-159793557D01*
X146346296Y-159972984D01*
X146009241Y-159972984D01*
X145910859Y-159977785D01*
X145852254Y-159989287D01*
X145807188Y-160011159D01*
X145782003Y-160039845D01*
X145768577Y-160077073D01*
X145763594Y-160127315D01*
X145763594Y-160203702D01*
X146051281Y-160203702D01*
X146148754Y-160209961D01*
X146225774Y-160227027D01*
X146286207Y-160252977D01*
X146333199Y-160286866D01*
X146383380Y-160347250D01*
X146413274Y-160416736D01*
X146423599Y-160498258D01*
X146423599Y-160600199D01*
X146413961Y-160685357D01*
X146386901Y-160753726D01*
X146343090Y-160809118D01*
X146285347Y-160850721D01*
X146217002Y-160876190D01*
X146135087Y-160885139D01*
X146066159Y-160881479D01*
X146001730Y-160870759D01*
X145940236Y-160854021D01*
X145886784Y-160833940D01*
X145799681Y-160790159D01*
X145748206Y-160753431D01*
X145697648Y-160872500D01*
X145452092Y-160872500D01*
X145452092Y-160613938D01*
X145763594Y-160613938D01*
X145783927Y-160622181D01*
X145823952Y-160636561D01*
X145875701Y-160651673D01*
X145930289Y-160664221D01*
X145978466Y-160668893D01*
X146045603Y-160657260D01*
X146072975Y-160642250D01*
X146094146Y-160619159D01*
X146107333Y-160589161D01*
X146112189Y-160548267D01*
X146112189Y-160502838D01*
X146102109Y-160447039D01*
X146073538Y-160406484D01*
X146027524Y-160379689D01*
X145951813Y-160364077D01*
X145763594Y-160350980D01*
X145763594Y-160613938D01*
X145452092Y-160613938D01*
X145452092Y-160105882D01*
X145458770Y-160010208D01*
X145476842Y-159936151D01*
X145504208Y-159879286D01*
X145543790Y-159830552D01*
X145593780Y-159792201D01*
X145655883Y-159763698D01*
X145761169Y-159738995D01*
X145896034Y-159730267D01*
X146042870Y-159735600D01*
G37*
G36*
X144866551Y-160877079D02*
G01*
X144945342Y-160872278D01*
X145010539Y-160858934D01*
X145064387Y-160838244D01*
X145112389Y-160807594D01*
X145151216Y-160767903D01*
X145181716Y-160718077D01*
X145202140Y-160662534D01*
X145215504Y-160593548D01*
X145220367Y-160508333D01*
X145220367Y-159270205D01*
X144908866Y-159270205D01*
X144908866Y-160462355D01*
X144905157Y-160522455D01*
X144895768Y-160562830D01*
X144878838Y-160595540D01*
X144856567Y-160616686D01*
X144828228Y-160630646D01*
X144791996Y-160639950D01*
X144705259Y-160651582D01*
X144705259Y-160877079D01*
X144866551Y-160877079D01*
G37*
G36*
X144223630Y-159734429D02*
G01*
X144320416Y-159752061D01*
X144394765Y-159778353D01*
X144459493Y-159819621D01*
X144511012Y-159877393D01*
X144550287Y-159954665D01*
X144574354Y-160040195D01*
X144590927Y-160156070D01*
X144597181Y-160309672D01*
X144590627Y-160459229D01*
X144573174Y-160573172D01*
X144547631Y-160658360D01*
X144506609Y-160734943D01*
X144453219Y-160792425D01*
X144386339Y-160833573D01*
X144310084Y-160859722D01*
X144212292Y-160877151D01*
X144088210Y-160883582D01*
X143958824Y-160879278D01*
X143856484Y-160867645D01*
X143676050Y-160834123D01*
X143676050Y-160651582D01*
X144005686Y-160651582D01*
X144113595Y-160645136D01*
X144180167Y-160629417D01*
X144230985Y-160599293D01*
X144261867Y-160555869D01*
X144278937Y-160499800D01*
X144288703Y-160419124D01*
X144003671Y-160419124D01*
X143896624Y-160411674D01*
X143810689Y-160391188D01*
X143759552Y-160367803D01*
X143717883Y-160336547D01*
X143684385Y-160297033D01*
X143660723Y-160250810D01*
X143645321Y-160191911D01*
X143639805Y-160118705D01*
X143914278Y-160118705D01*
X143922674Y-160176182D01*
X143943679Y-160208098D01*
X143978417Y-160226074D01*
X144035911Y-160233194D01*
X144291817Y-160233194D01*
X144286495Y-160128482D01*
X144273315Y-160061094D01*
X144247758Y-160007736D01*
X144212499Y-159976098D01*
X144165748Y-159958839D01*
X144099201Y-159952284D01*
X144036037Y-159956680D01*
X143991948Y-159968038D01*
X143956662Y-159989192D01*
X143932871Y-160020336D01*
X143919448Y-160060489D01*
X143914278Y-160118705D01*
X143639805Y-160118705D01*
X143639688Y-160117148D01*
X143645600Y-160015146D01*
X143661407Y-159937481D01*
X143684843Y-159879194D01*
X143720607Y-159828991D01*
X143768422Y-159789901D01*
X143830473Y-159761225D01*
X143939703Y-159737276D01*
X144099201Y-159727886D01*
X144223630Y-159734429D01*
G37*
G36*
X143399537Y-160875614D02*
G01*
X143424427Y-160870600D01*
X143438093Y-160857263D01*
X143443134Y-160833482D01*
X143443134Y-160618792D01*
X143437944Y-160593009D01*
X143424142Y-160578857D01*
X143399537Y-160573638D01*
X143219835Y-160573638D01*
X143194140Y-160578939D01*
X143179892Y-160593167D01*
X143174589Y-160618792D01*
X143174589Y-160833482D01*
X143178117Y-160854213D01*
X143187320Y-160866271D01*
X143219835Y-160875614D01*
X143399537Y-160875614D01*
G37*
G36*
X142594331Y-159734886D02*
G01*
X142698315Y-159753806D01*
X142761547Y-159775957D01*
X142814745Y-159806080D01*
X142859333Y-159844115D01*
X142895624Y-159890201D01*
X142926140Y-159948385D01*
X142950374Y-160020977D01*
X142971296Y-160140931D01*
X142979317Y-160306192D01*
X142971607Y-160463260D01*
X142951198Y-160581057D01*
X142927538Y-160652828D01*
X142897289Y-160711454D01*
X142860890Y-160758927D01*
X142816230Y-160798560D01*
X142763003Y-160830465D01*
X142699872Y-160854639D01*
X142595568Y-160875761D01*
X142461644Y-160883582D01*
X142324783Y-160876131D01*
X142220027Y-160856196D01*
X142156667Y-160832994D01*
X142103664Y-160802075D01*
X142059559Y-160763506D01*
X142023693Y-160717005D01*
X141993819Y-160658729D01*
X141970441Y-160586461D01*
X141950406Y-160467415D01*
X141942781Y-160306192D01*
X141942858Y-160304635D01*
X142254190Y-160304635D01*
X142257658Y-160409952D01*
X142266464Y-160482047D01*
X142283062Y-160543443D01*
X142303558Y-160581515D01*
X142332008Y-160608702D01*
X142367397Y-160624471D01*
X142408513Y-160631880D01*
X142461644Y-160634637D01*
X142514591Y-160631879D01*
X142555525Y-160624471D01*
X142590682Y-160608720D01*
X142619089Y-160581515D01*
X142639477Y-160543449D01*
X142655909Y-160482047D01*
X142664452Y-160409949D01*
X142667816Y-160304635D01*
X142664437Y-160199050D01*
X142655909Y-160127773D01*
X142639497Y-160067313D01*
X142619089Y-160029678D01*
X142590703Y-160002694D01*
X142555525Y-159986997D01*
X142514591Y-159979589D01*
X142461644Y-159976830D01*
X142408513Y-159979588D01*
X142367397Y-159986997D01*
X142331986Y-160002712D01*
X142303558Y-160029678D01*
X142283042Y-160067319D01*
X142266464Y-160127773D01*
X142257673Y-160199047D01*
X142254190Y-160304635D01*
X141942858Y-160304635D01*
X141950840Y-160143685D01*
X141971998Y-160024091D01*
X141996330Y-159951431D01*
X142026696Y-159893251D01*
X142062582Y-159847229D01*
X142106640Y-159809111D01*
X142159668Y-159778457D01*
X142223141Y-159755363D01*
X142327546Y-159735318D01*
X142461644Y-159727886D01*
X142594331Y-159734886D01*
G37*
G36*
X141738441Y-160872500D02*
G01*
X141738441Y-159745105D01*
X141497465Y-159745105D01*
X141426940Y-159917296D01*
X141362028Y-159845274D01*
X141289553Y-159784764D01*
X141235913Y-159754396D01*
X141175558Y-159735863D01*
X141106829Y-159729443D01*
X141061034Y-159731824D01*
X141014963Y-159740525D01*
X141014963Y-160059629D01*
X141081825Y-160052759D01*
X141146763Y-160050103D01*
X141206250Y-160053624D01*
X141257313Y-160063567D01*
X141304869Y-160080257D01*
X141348172Y-160103226D01*
X141388072Y-160132634D01*
X141426940Y-160170454D01*
X141426940Y-160872500D01*
X141738441Y-160872500D01*
G37*
G36*
X140500829Y-159749054D02*
G01*
X140587281Y-159762967D01*
X140657758Y-159784214D01*
X140722790Y-159816626D01*
X140773931Y-159857145D01*
X140813188Y-159906031D01*
X140840828Y-159962577D01*
X140858387Y-160030605D01*
X140864662Y-160112660D01*
X140860381Y-160175907D01*
X140847626Y-160236949D01*
X140825020Y-160294714D01*
X140790931Y-160348690D01*
X140745586Y-160395358D01*
X140684686Y-160435702D01*
X140740599Y-160453863D01*
X140785538Y-160479681D01*
X140821340Y-160513005D01*
X140848118Y-160553594D01*
X140864459Y-160600446D01*
X140870158Y-160655245D01*
X140860238Y-160720141D01*
X140830683Y-160777546D01*
X140778933Y-160829818D01*
X140754102Y-160843819D01*
X140816839Y-160878642D01*
X140875928Y-160934323D01*
X140904708Y-160979132D01*
X140922174Y-161029968D01*
X140928226Y-161088471D01*
X140928226Y-161122360D01*
X140922579Y-161178905D01*
X140906351Y-161227709D01*
X140879775Y-161270371D01*
X140823586Y-161322921D01*
X140747517Y-161362329D01*
X140660365Y-161385432D01*
X140558656Y-161393561D01*
X140220136Y-161393561D01*
X140108628Y-161386409D01*
X140020101Y-161366867D01*
X139950267Y-161337086D01*
X139895629Y-161298123D01*
X139850413Y-161247091D01*
X139817842Y-161187524D01*
X139797547Y-161117730D01*
X139790391Y-161035348D01*
X139790391Y-161019686D01*
X140085405Y-161019686D01*
X140085405Y-161052201D01*
X140090870Y-161090791D01*
X140106298Y-161120897D01*
X140132025Y-161144617D01*
X140183839Y-161167007D01*
X140256956Y-161175391D01*
X140471095Y-161175391D01*
X140543903Y-161166636D01*
X140591629Y-161143884D01*
X140614437Y-161120141D01*
X140628344Y-161090069D01*
X140633303Y-161051652D01*
X140633303Y-161027105D01*
X140628041Y-160987924D01*
X140613245Y-160957313D01*
X140589571Y-160932974D01*
X140557283Y-160914815D01*
X140519770Y-160904199D01*
X140475034Y-160900435D01*
X140248529Y-160900435D01*
X140194030Y-160904404D01*
X140155564Y-160914723D01*
X140123916Y-160932573D01*
X140102716Y-160955298D01*
X140089951Y-160983695D01*
X140085405Y-161019686D01*
X139790391Y-161019686D01*
X139790391Y-161005673D01*
X139796436Y-160925169D01*
X139813105Y-160860515D01*
X139838934Y-160808661D01*
X139875559Y-160763933D01*
X139921545Y-160728019D01*
X139978335Y-160700491D01*
X140074613Y-160675913D01*
X140197879Y-160666878D01*
X140510388Y-160666878D01*
X140546092Y-160663423D01*
X140577616Y-160653414D01*
X140600122Y-160634469D01*
X140607932Y-160603039D01*
X140598805Y-160566033D01*
X140572304Y-160542772D01*
X140533615Y-160530245D01*
X140480987Y-160525553D01*
X140280952Y-160525553D01*
X140182669Y-160519746D01*
X140104924Y-160503945D01*
X140043915Y-160480032D01*
X139988767Y-160445097D01*
X139946168Y-160404135D01*
X139914497Y-160356750D01*
X139884408Y-160275175D01*
X139874013Y-160181262D01*
X139876370Y-160138306D01*
X140154740Y-160138306D01*
X140158287Y-160182466D01*
X140168204Y-160218906D01*
X140186860Y-160249419D01*
X140216839Y-160272761D01*
X140256083Y-160286571D01*
X140315849Y-160291995D01*
X140435283Y-160291995D01*
X140483463Y-160287189D01*
X140519702Y-160274150D01*
X140546841Y-160253893D01*
X140566224Y-160226012D01*
X140579087Y-160186868D01*
X140583936Y-160132718D01*
X140578665Y-160076938D01*
X140564904Y-160038344D01*
X140544368Y-160012276D01*
X140498019Y-159987198D01*
X140425666Y-159977563D01*
X140308521Y-159977563D01*
X140260574Y-159981708D01*
X140223891Y-159992950D01*
X140193955Y-160013158D01*
X140172142Y-160043875D01*
X140159553Y-160082865D01*
X140154740Y-160138306D01*
X139876370Y-160138306D01*
X139877549Y-160116829D01*
X139886836Y-160069521D01*
X139901806Y-160027546D01*
X139918710Y-159995881D01*
X139957544Y-159946789D01*
X139784804Y-159915739D01*
X139784804Y-159744006D01*
X140395441Y-159744006D01*
X140500829Y-159749054D01*
G37*
G36*
X139714920Y-161023716D02*
G01*
X139124798Y-159255459D01*
X138808534Y-159255459D01*
X139398656Y-161023716D01*
X139714920Y-161023716D01*
G37*
G36*
X138181249Y-159732406D02*
G01*
X138239113Y-159745655D01*
X138293841Y-159766207D01*
X138343435Y-159791816D01*
X138431546Y-159852541D01*
X138482104Y-159745105D01*
X138743047Y-159745105D01*
X138743047Y-161370205D01*
X138431546Y-161370205D01*
X138431546Y-160814248D01*
X138360973Y-160845131D01*
X138281153Y-160868836D01*
X138198709Y-160883399D01*
X138118762Y-160888162D01*
X138018721Y-160879556D01*
X137940186Y-160855946D01*
X137878610Y-160819285D01*
X137827637Y-160768346D01*
X137786451Y-160703114D01*
X137755237Y-160620807D01*
X137728562Y-160484329D01*
X137718692Y-160309672D01*
X138030102Y-160309672D01*
X138037804Y-160431226D01*
X138056846Y-160508425D01*
X138089499Y-160569576D01*
X138127005Y-160604779D01*
X138172149Y-160624949D01*
X138220153Y-160631615D01*
X138276654Y-160627840D01*
X138333360Y-160616411D01*
X138387205Y-160598338D01*
X138431546Y-160576386D01*
X138431546Y-160041219D01*
X138338947Y-159998812D01*
X138282325Y-159983639D01*
X138218596Y-159978387D01*
X138166463Y-159985948D01*
X138121510Y-160008155D01*
X138085476Y-160045987D01*
X138054740Y-160110828D01*
X138037088Y-160190631D01*
X138030102Y-160309672D01*
X137718692Y-160309672D01*
X137724747Y-160178244D01*
X137741682Y-160066773D01*
X137772061Y-159964595D01*
X137813489Y-159883316D01*
X137869497Y-159816343D01*
X137938511Y-159767820D01*
X138019457Y-159738357D01*
X138118762Y-159727886D01*
X138181249Y-159732406D01*
G37*
G36*
X137514994Y-160872500D02*
G01*
X137514994Y-159745105D01*
X137274018Y-159745105D01*
X137203493Y-159917296D01*
X137138581Y-159845274D01*
X137066106Y-159784764D01*
X137012465Y-159754396D01*
X136952110Y-159735863D01*
X136883382Y-159729443D01*
X136837586Y-159731824D01*
X136791516Y-159740525D01*
X136791516Y-160059629D01*
X136858377Y-160052759D01*
X136923315Y-160050103D01*
X136982803Y-160053624D01*
X137033866Y-160063567D01*
X137081422Y-160080257D01*
X137124724Y-160103226D01*
X137164624Y-160132634D01*
X137203493Y-160170454D01*
X137203493Y-160872500D01*
X137514994Y-160872500D01*
G37*
G36*
X136275280Y-159734886D02*
G01*
X136379264Y-159753806D01*
X136442496Y-159775957D01*
X136495694Y-159806080D01*
X136540282Y-159844115D01*
X136576574Y-159890201D01*
X136607089Y-159948385D01*
X136631323Y-160020977D01*
X136652245Y-160140931D01*
X136660266Y-160306192D01*
X136652556Y-160463260D01*
X136632147Y-160581057D01*
X136608487Y-160652828D01*
X136578238Y-160711454D01*
X136541839Y-160758927D01*
X136497179Y-160798560D01*
X136443952Y-160830465D01*
X136380822Y-160854639D01*
X136276517Y-160875761D01*
X136142593Y-160883582D01*
X136005732Y-160876131D01*
X135900976Y-160856196D01*
X135837617Y-160832994D01*
X135784613Y-160802075D01*
X135740508Y-160763506D01*
X135704642Y-160717005D01*
X135674768Y-160658729D01*
X135651390Y-160586461D01*
X135631355Y-160467415D01*
X135623730Y-160306192D01*
X135623807Y-160304635D01*
X135935139Y-160304635D01*
X135938607Y-160409952D01*
X135947413Y-160482047D01*
X135964011Y-160543443D01*
X135984507Y-160581515D01*
X136012957Y-160608702D01*
X136048346Y-160624471D01*
X136089462Y-160631880D01*
X136142593Y-160634637D01*
X136195540Y-160631879D01*
X136236474Y-160624471D01*
X136271631Y-160608720D01*
X136300038Y-160581515D01*
X136320426Y-160543449D01*
X136336858Y-160482047D01*
X136345401Y-160409949D01*
X136348765Y-160304635D01*
X136345386Y-160199050D01*
X136336858Y-160127773D01*
X136320446Y-160067313D01*
X136300038Y-160029678D01*
X136271652Y-160002694D01*
X136236474Y-159986997D01*
X136195540Y-159979589D01*
X136142593Y-159976830D01*
X136089462Y-159979588D01*
X136048346Y-159986997D01*
X136012935Y-160002712D01*
X135984507Y-160029678D01*
X135963991Y-160067319D01*
X135947413Y-160127773D01*
X135938622Y-160199047D01*
X135935139Y-160304635D01*
X135623807Y-160304635D01*
X135631790Y-160143685D01*
X135652947Y-160024091D01*
X135677279Y-159951431D01*
X135707645Y-159893251D01*
X135743531Y-159847229D01*
X135787589Y-159809111D01*
X135840617Y-159778457D01*
X135904090Y-159755363D01*
X136008495Y-159735318D01*
X136142593Y-159727886D01*
X136275280Y-159734886D01*
G37*
G36*
X135383120Y-159579142D02*
G01*
X135408080Y-159574131D01*
X135421766Y-159560815D01*
X135426809Y-159537102D01*
X135426809Y-159331663D01*
X135421613Y-159305889D01*
X135407786Y-159291732D01*
X135383120Y-159286509D01*
X135143518Y-159286509D01*
X135125424Y-159289892D01*
X135113476Y-159299240D01*
X135103584Y-159331663D01*
X135103584Y-159537102D01*
X135108370Y-159561171D01*
X135121042Y-159574316D01*
X135143518Y-159579142D01*
X135383120Y-159579142D01*
G37*
G36*
X135419390Y-161370205D02*
G01*
X135419390Y-159745105D01*
X135107889Y-159745105D01*
X135107889Y-160863432D01*
X135112858Y-160996116D01*
X135128039Y-161133717D01*
X135152904Y-161266566D01*
X135183085Y-161370205D01*
X135419390Y-161370205D01*
G37*
G36*
X134529631Y-159734429D02*
G01*
X134626418Y-159752061D01*
X134700767Y-159778353D01*
X134765494Y-159819621D01*
X134817013Y-159877393D01*
X134856288Y-159954665D01*
X134880356Y-160040195D01*
X134896928Y-160156070D01*
X134903183Y-160309672D01*
X134896629Y-160459229D01*
X134879175Y-160573172D01*
X134853632Y-160658360D01*
X134812610Y-160734943D01*
X134759220Y-160792425D01*
X134692340Y-160833573D01*
X134616086Y-160859722D01*
X134518293Y-160877151D01*
X134394211Y-160883582D01*
X134264825Y-160879278D01*
X134162486Y-160867645D01*
X133982051Y-160834123D01*
X133982051Y-160651582D01*
X134311688Y-160651582D01*
X134419596Y-160645136D01*
X134486169Y-160629417D01*
X134536986Y-160599293D01*
X134567868Y-160555869D01*
X134584939Y-160499800D01*
X134594704Y-160419124D01*
X134309673Y-160419124D01*
X134202625Y-160411674D01*
X134116690Y-160391188D01*
X134065553Y-160367803D01*
X134023884Y-160336547D01*
X133990386Y-160297033D01*
X133966724Y-160250810D01*
X133951322Y-160191911D01*
X133945807Y-160118705D01*
X134220280Y-160118705D01*
X134228675Y-160176182D01*
X134249681Y-160208098D01*
X134284418Y-160226074D01*
X134341913Y-160233194D01*
X134597818Y-160233194D01*
X134592497Y-160128482D01*
X134579317Y-160061094D01*
X134553760Y-160007736D01*
X134518500Y-159976098D01*
X134471749Y-159958839D01*
X134405202Y-159952284D01*
X134342039Y-159956680D01*
X134297949Y-159968038D01*
X134262664Y-159989192D01*
X134238873Y-160020336D01*
X134225449Y-160060489D01*
X134220280Y-160118705D01*
X133945807Y-160118705D01*
X133945690Y-160117148D01*
X133951601Y-160015146D01*
X133967408Y-159937481D01*
X133990844Y-159879194D01*
X134026608Y-159828991D01*
X134074423Y-159789901D01*
X134136474Y-159761225D01*
X134245704Y-159737276D01*
X134405202Y-159727886D01*
X134529631Y-159734429D01*
G37*
G36*
X133303270Y-160885139D02*
G01*
X133403328Y-160878137D01*
X133492772Y-160857937D01*
X133573933Y-160821421D01*
X133643165Y-160766712D01*
X133680772Y-160721003D01*
X133713660Y-160663424D01*
X133741442Y-160591864D01*
X133766687Y-160473621D01*
X133776246Y-160313886D01*
X133767353Y-160148753D01*
X133744006Y-160027572D01*
X133717846Y-159953948D01*
X133686480Y-159894998D01*
X133650400Y-159848420D01*
X133606545Y-159809209D01*
X133556320Y-159778399D01*
X133498817Y-159755730D01*
X133404999Y-159735599D01*
X133294111Y-159728435D01*
X133193556Y-159731393D01*
X133098381Y-159740068D01*
X133003452Y-159755441D01*
X132901368Y-159779452D01*
X132901368Y-159958970D01*
X133197299Y-159958970D01*
X133288826Y-159966904D01*
X133353096Y-159987638D01*
X133387623Y-160011112D01*
X133415946Y-160045253D01*
X133438275Y-160092418D01*
X133457086Y-160176991D01*
X133464745Y-160311504D01*
X133457015Y-160444615D01*
X133438184Y-160526652D01*
X133415817Y-160571632D01*
X133387423Y-160603613D01*
X133352638Y-160624929D01*
X133288122Y-160643001D01*
X133194277Y-160650025D01*
X132886073Y-160650025D01*
X132886073Y-160826429D01*
X133006973Y-160856288D01*
X133153427Y-160877629D01*
X133303270Y-160885139D01*
G37*
G36*
X132284228Y-160872500D02*
G01*
X132370645Y-160867719D01*
X132440028Y-160854639D01*
X132495345Y-160834764D01*
X132544057Y-160804208D01*
X132582620Y-160762843D01*
X132611941Y-160709009D01*
X132630179Y-160649082D01*
X132641666Y-160571295D01*
X132644456Y-160471605D01*
X132634106Y-159994050D01*
X132810144Y-159994050D01*
X132810144Y-159794564D01*
X132622932Y-159745105D01*
X132581624Y-159429116D01*
X132336068Y-159429116D01*
X132336068Y-159745105D01*
X132069996Y-159745105D01*
X132069996Y-159994050D01*
X132336068Y-159994050D01*
X132336068Y-160470048D01*
X132327367Y-160544970D01*
X132316452Y-160572278D01*
X132302729Y-160592139D01*
X132266184Y-160617968D01*
X132223228Y-160628226D01*
X132081170Y-160642331D01*
X132081170Y-160872500D01*
X132284228Y-160872500D01*
G37*
G36*
X131487386Y-160885139D02*
G01*
X131601508Y-160881750D01*
X131723599Y-160872500D01*
X131836256Y-160856746D01*
X131923451Y-160834123D01*
X131923451Y-160651582D01*
X131424371Y-160651582D01*
X131352197Y-160644071D01*
X131326706Y-160633107D01*
X131309790Y-160616686D01*
X131299792Y-160594114D01*
X131295960Y-160560449D01*
X131295960Y-160524087D01*
X131303102Y-160486216D01*
X131323438Y-160458874D01*
X131357614Y-160442453D01*
X131423821Y-160435427D01*
X131600501Y-160435427D01*
X131694135Y-160427910D01*
X131774890Y-160406484D01*
X131823339Y-160382744D01*
X131863966Y-160350911D01*
X131897714Y-160310405D01*
X131921714Y-160263447D01*
X131937283Y-160204055D01*
X131942960Y-160129146D01*
X131942960Y-160063750D01*
X131937941Y-159993113D01*
X131923828Y-159933596D01*
X131901560Y-159883316D01*
X131868979Y-159840026D01*
X131823053Y-159803106D01*
X131760968Y-159772491D01*
X131693550Y-159752910D01*
X131604818Y-159739623D01*
X131489950Y-159734664D01*
X131341206Y-159741899D01*
X131192371Y-159760676D01*
X131081179Y-159786138D01*
X131081179Y-159968679D01*
X131552965Y-159968679D01*
X131609906Y-159974419D01*
X131646021Y-159988920D01*
X131668875Y-160015776D01*
X131677620Y-160063750D01*
X131677620Y-160098463D01*
X131673478Y-160131608D01*
X131662691Y-160153235D01*
X131644499Y-160168473D01*
X131616621Y-160178697D01*
X131540508Y-160185383D01*
X131359341Y-160185383D01*
X131271818Y-160191330D01*
X131203226Y-160207508D01*
X131149855Y-160232105D01*
X131108748Y-160264335D01*
X131066476Y-160321424D01*
X131040027Y-160392836D01*
X131030529Y-160482688D01*
X131030529Y-160583530D01*
X131037101Y-160657398D01*
X131055267Y-160716223D01*
X131083744Y-160763140D01*
X131123074Y-160801803D01*
X131173898Y-160833235D01*
X131238533Y-160857204D01*
X131346036Y-160877522D01*
X131487386Y-160885139D01*
G37*
G36*
X130966141Y-161023716D02*
G01*
X130376020Y-159255459D01*
X130059756Y-159255459D01*
X130649877Y-161023716D01*
X130966141Y-161023716D01*
G37*
G36*
X129994268Y-160872500D02*
G01*
X129994268Y-159745105D01*
X129753292Y-159745105D01*
X129682767Y-159917296D01*
X129617855Y-159845274D01*
X129545380Y-159784764D01*
X129491739Y-159754396D01*
X129431385Y-159735863D01*
X129362656Y-159729443D01*
X129316860Y-159731824D01*
X129270790Y-159740525D01*
X129270790Y-160059629D01*
X129337652Y-160052759D01*
X129402590Y-160050103D01*
X129462077Y-160053624D01*
X129513140Y-160063567D01*
X129560696Y-160080257D01*
X129603998Y-160103226D01*
X129643899Y-160132634D01*
X129682767Y-160170454D01*
X129682767Y-160872500D01*
X129994268Y-160872500D01*
G37*
G36*
X128666564Y-160885139D02*
G01*
X128766622Y-160878137D01*
X128856066Y-160857937D01*
X128937227Y-160821421D01*
X129006458Y-160766712D01*
X129044066Y-160721003D01*
X129076954Y-160663424D01*
X129104736Y-160591864D01*
X129129980Y-160473621D01*
X129139540Y-160313886D01*
X129130646Y-160148753D01*
X129107300Y-160027572D01*
X129081140Y-159953948D01*
X129049774Y-159894998D01*
X129013694Y-159848420D01*
X128969838Y-159809209D01*
X128919614Y-159778399D01*
X128862111Y-159755730D01*
X128768293Y-159735599D01*
X128657405Y-159728435D01*
X128556850Y-159731393D01*
X128461675Y-159740068D01*
X128366746Y-159755441D01*
X128264662Y-159779452D01*
X128264662Y-159958970D01*
X128560593Y-159958970D01*
X128652119Y-159966904D01*
X128716389Y-159987638D01*
X128750917Y-160011112D01*
X128779240Y-160045253D01*
X128801569Y-160092418D01*
X128820380Y-160176991D01*
X128828039Y-160311504D01*
X128820309Y-160444615D01*
X128801478Y-160526652D01*
X128779110Y-160571632D01*
X128750716Y-160603613D01*
X128715931Y-160624929D01*
X128651416Y-160643001D01*
X128557570Y-160650025D01*
X128249367Y-160650025D01*
X128249367Y-160826429D01*
X128370267Y-160856288D01*
X128516721Y-160877629D01*
X128666564Y-160885139D01*
G37*
G36*
X128077450Y-160872500D02*
G01*
X127816507Y-160872500D01*
X127765949Y-160765063D01*
X127676281Y-160824414D01*
X127626989Y-160848822D01*
X127570585Y-160868469D01*
X127509827Y-160880757D01*
X127437870Y-160885139D01*
X127351640Y-160877650D01*
X127280140Y-160856605D01*
X127220524Y-160823132D01*
X127170286Y-160776648D01*
X127128120Y-160715070D01*
X127094220Y-160635370D01*
X127072524Y-160550467D01*
X127058269Y-160446517D01*
X127053096Y-160320205D01*
X127053656Y-160304818D01*
X127364505Y-160304818D01*
X127371587Y-160424116D01*
X127389326Y-160502472D01*
X127420182Y-160565654D01*
X127456463Y-160602672D01*
X127501627Y-160624226D01*
X127554557Y-160631615D01*
X127620701Y-160627027D01*
X127674816Y-160614304D01*
X127765949Y-160576386D01*
X127765949Y-160041219D01*
X127670694Y-159997896D01*
X127615056Y-159983350D01*
X127554557Y-159978387D01*
X127505779Y-159983817D01*
X127460859Y-159999911D01*
X127423592Y-160030796D01*
X127390975Y-160090312D01*
X127372356Y-160168962D01*
X127364505Y-160304818D01*
X127053656Y-160304818D01*
X127058251Y-160178504D01*
X127072200Y-160066280D01*
X127092938Y-159978662D01*
X127126540Y-159896543D01*
X127169145Y-159834279D01*
X127220524Y-159788336D01*
X127281811Y-159756103D01*
X127358136Y-159735386D01*
X127453165Y-159727886D01*
X127530124Y-159735005D01*
X127614640Y-159757561D01*
X127696714Y-159789601D01*
X127765949Y-159823324D01*
X127765949Y-159270205D01*
X128077450Y-159270205D01*
X128077450Y-160872500D01*
G37*
G36*
X126529469Y-160885139D02*
G01*
X126604795Y-160878964D01*
X126668135Y-160861541D01*
X126721682Y-160833798D01*
X126767057Y-160795655D01*
X126812861Y-160730991D01*
X126841896Y-160648554D01*
X126852420Y-160543230D01*
X126852420Y-159745105D01*
X126541010Y-159745105D01*
X126541010Y-160449532D01*
X126534974Y-160511214D01*
X126519519Y-160551720D01*
X126496771Y-160577301D01*
X126447174Y-160601212D01*
X126377154Y-160610091D01*
X126319081Y-160604707D01*
X126256894Y-160587834D01*
X126197502Y-160561539D01*
X126146527Y-160528667D01*
X126146527Y-159745105D01*
X125835118Y-159745105D01*
X125835118Y-160872500D01*
X126091756Y-160872500D01*
X126146527Y-160757644D01*
X126226815Y-160803706D01*
X126321466Y-160846213D01*
X126422202Y-160875323D01*
X126529469Y-160885139D01*
G37*
G36*
X125190316Y-160885139D02*
G01*
X125304439Y-160881750D01*
X125426530Y-160872500D01*
X125539187Y-160856746D01*
X125626382Y-160834123D01*
X125626382Y-160651582D01*
X125127302Y-160651582D01*
X125055128Y-160644071D01*
X125029637Y-160633107D01*
X125012721Y-160616686D01*
X125002723Y-160594114D01*
X124998891Y-160560449D01*
X124998891Y-160524087D01*
X125006033Y-160486216D01*
X125026368Y-160458874D01*
X125060545Y-160442453D01*
X125126752Y-160435427D01*
X125303431Y-160435427D01*
X125397066Y-160427910D01*
X125477821Y-160406484D01*
X125526270Y-160382744D01*
X125566897Y-160350911D01*
X125600644Y-160310405D01*
X125624645Y-160263447D01*
X125640214Y-160204055D01*
X125645890Y-160129146D01*
X125645890Y-160063750D01*
X125640872Y-159993113D01*
X125626759Y-159933596D01*
X125604491Y-159883316D01*
X125571910Y-159840026D01*
X125525983Y-159803106D01*
X125463899Y-159772491D01*
X125396481Y-159752910D01*
X125307749Y-159739623D01*
X125192881Y-159734664D01*
X125044137Y-159741899D01*
X124895302Y-159760676D01*
X124784110Y-159786138D01*
X124784110Y-159968679D01*
X125255896Y-159968679D01*
X125312837Y-159974419D01*
X125348952Y-159988920D01*
X125371806Y-160015776D01*
X125380551Y-160063750D01*
X125380551Y-160098463D01*
X125376408Y-160131608D01*
X125365622Y-160153235D01*
X125347430Y-160168473D01*
X125319551Y-160178697D01*
X125243439Y-160185383D01*
X125062272Y-160185383D01*
X124974748Y-160191330D01*
X124906157Y-160207508D01*
X124852785Y-160232105D01*
X124811679Y-160264335D01*
X124769407Y-160321424D01*
X124742958Y-160392836D01*
X124733460Y-160482688D01*
X124733460Y-160583530D01*
X124740032Y-160657398D01*
X124758198Y-160716223D01*
X124786675Y-160763140D01*
X124826005Y-160801803D01*
X124876829Y-160833235D01*
X124941464Y-160857204D01*
X125048966Y-160877522D01*
X125190316Y-160885139D01*
G37*
G36*
X124614209Y-160388532D02*
G01*
X124614209Y-160138489D01*
X123971789Y-160138489D01*
X123971789Y-160388532D01*
X124614209Y-160388532D01*
G37*
G36*
X123455462Y-159734886D02*
G01*
X123559446Y-159753806D01*
X123622677Y-159775957D01*
X123675876Y-159806080D01*
X123720463Y-159844115D01*
X123756755Y-159890201D01*
X123787271Y-159948385D01*
X123811505Y-160020977D01*
X123832427Y-160140931D01*
X123840447Y-160306192D01*
X123832737Y-160463260D01*
X123812329Y-160581057D01*
X123788668Y-160652828D01*
X123758420Y-160711454D01*
X123722020Y-160758927D01*
X123677361Y-160798560D01*
X123624134Y-160830465D01*
X123561003Y-160854639D01*
X123456699Y-160875761D01*
X123322775Y-160883582D01*
X123185914Y-160876131D01*
X123081157Y-160856196D01*
X123017798Y-160832994D01*
X122964795Y-160802075D01*
X122920690Y-160763506D01*
X122884823Y-160717005D01*
X122854949Y-160658729D01*
X122831572Y-160586461D01*
X122811536Y-160467415D01*
X122803911Y-160306192D01*
X122803988Y-160304635D01*
X123115321Y-160304635D01*
X123118788Y-160409952D01*
X123127594Y-160482047D01*
X123144193Y-160543443D01*
X123164688Y-160581515D01*
X123193138Y-160608702D01*
X123228527Y-160624471D01*
X123269643Y-160631880D01*
X123322775Y-160634637D01*
X123375722Y-160631879D01*
X123416655Y-160624471D01*
X123451812Y-160608720D01*
X123480220Y-160581515D01*
X123500608Y-160543449D01*
X123517039Y-160482047D01*
X123525582Y-160409949D01*
X123528946Y-160304635D01*
X123525568Y-160199050D01*
X123517039Y-160127773D01*
X123500628Y-160067313D01*
X123480220Y-160029678D01*
X123451834Y-160002694D01*
X123416655Y-159986997D01*
X123375722Y-159979589D01*
X123322775Y-159976830D01*
X123269643Y-159979588D01*
X123228527Y-159986997D01*
X123193117Y-160002712D01*
X123164688Y-160029678D01*
X123144173Y-160067319D01*
X123127594Y-160127773D01*
X123118803Y-160199047D01*
X123115321Y-160304635D01*
X122803988Y-160304635D01*
X122811971Y-160143685D01*
X122833129Y-160024091D01*
X122857460Y-159951431D01*
X122887827Y-159893251D01*
X122923712Y-159847229D01*
X122967770Y-159809111D01*
X123020799Y-159778457D01*
X123084271Y-159755363D01*
X123188676Y-159735318D01*
X123322775Y-159727886D01*
X123455462Y-159734886D01*
G37*
G36*
X122037773Y-159732406D02*
G01*
X122095637Y-159745655D01*
X122150366Y-159766207D01*
X122199960Y-159791816D01*
X122288070Y-159852541D01*
X122338629Y-159745105D01*
X122599572Y-159745105D01*
X122599572Y-161370205D01*
X122288070Y-161370205D01*
X122288070Y-160814248D01*
X122217498Y-160845131D01*
X122137678Y-160868836D01*
X122055234Y-160883399D01*
X121975287Y-160888162D01*
X121875245Y-160879556D01*
X121796711Y-160855946D01*
X121735135Y-160819285D01*
X121684162Y-160768346D01*
X121642976Y-160703114D01*
X121611762Y-160620807D01*
X121585087Y-160484329D01*
X121575217Y-160309672D01*
X121886627Y-160309672D01*
X121894329Y-160431226D01*
X121913371Y-160508425D01*
X121946023Y-160569576D01*
X121983530Y-160604779D01*
X122028673Y-160624949D01*
X122076678Y-160631615D01*
X122133179Y-160627840D01*
X122189885Y-160616411D01*
X122243730Y-160598338D01*
X122288070Y-160576386D01*
X122288070Y-160041219D01*
X122195472Y-159998812D01*
X122138850Y-159983639D01*
X122075121Y-159978387D01*
X122022988Y-159985948D01*
X121978035Y-160008155D01*
X121942001Y-160045987D01*
X121911265Y-160110828D01*
X121893613Y-160190631D01*
X121886627Y-160309672D01*
X121575217Y-160309672D01*
X121581272Y-160178244D01*
X121598206Y-160066773D01*
X121628586Y-159964595D01*
X121670014Y-159883316D01*
X121726022Y-159816343D01*
X121795036Y-159767820D01*
X121875982Y-159738357D01*
X121975287Y-159727886D01*
X122037773Y-159732406D01*
G37*
G36*
X121017702Y-160877079D02*
G01*
X121096494Y-160872278D01*
X121161691Y-160858934D01*
X121215539Y-160838244D01*
X121263541Y-160807594D01*
X121302367Y-160767903D01*
X121332867Y-160718077D01*
X121353292Y-160662534D01*
X121366656Y-160593548D01*
X121371519Y-160508333D01*
X121371519Y-159270205D01*
X121060017Y-159270205D01*
X121060017Y-160462355D01*
X121056309Y-160522455D01*
X121046920Y-160562830D01*
X121029990Y-160595540D01*
X121007719Y-160616686D01*
X120979380Y-160630646D01*
X120943147Y-160639950D01*
X120856410Y-160651582D01*
X120856410Y-160877079D01*
X121017702Y-160877079D01*
G37*
G36*
X120159769Y-160885139D02*
G01*
X120325331Y-160882159D01*
X120479330Y-160873507D01*
X120627793Y-160858943D01*
X120754561Y-160840259D01*
X120754561Y-160591681D01*
X120277555Y-160591681D01*
X120196025Y-160588174D01*
X120136962Y-160579042D01*
X120087183Y-160560730D01*
X120055263Y-160534803D01*
X120036082Y-160498618D01*
X120028885Y-160445319D01*
X120028885Y-160380564D01*
X120036210Y-160328899D01*
X120056271Y-160291721D01*
X120087733Y-160263553D01*
X120129544Y-160243544D01*
X120177126Y-160231811D01*
X120232950Y-160226233D01*
X120615709Y-160210021D01*
X120615709Y-159971793D01*
X120246689Y-159951460D01*
X120157257Y-159938738D01*
X120099135Y-159916472D01*
X120070908Y-159892852D01*
X120053658Y-159860276D01*
X120047386Y-159815630D01*
X120047386Y-159762874D01*
X120054092Y-159710808D01*
X120072704Y-159671096D01*
X120102982Y-159640691D01*
X120142426Y-159620521D01*
X120201838Y-159606306D01*
X120288271Y-159600758D01*
X120721130Y-159600758D01*
X120721130Y-159352179D01*
X120460004Y-159318199D01*
X120317082Y-159307441D01*
X120163524Y-159305834D01*
X120073556Y-159312033D01*
X119997276Y-159327548D01*
X119932623Y-159351263D01*
X119873748Y-159385596D01*
X119826124Y-159428322D01*
X119788458Y-159480040D01*
X119761802Y-159538597D01*
X119744970Y-159607582D01*
X119738999Y-159689143D01*
X119738999Y-159804914D01*
X119742824Y-159863388D01*
X119753562Y-159912717D01*
X119771362Y-159957638D01*
X119794687Y-159995423D01*
X119823715Y-160027971D01*
X119856969Y-160054408D01*
X119893914Y-160075299D01*
X119933997Y-160090861D01*
X119891421Y-160106818D01*
X119850832Y-160131436D01*
X119814305Y-160163014D01*
X119781772Y-160201595D01*
X119755168Y-160245926D01*
X119733962Y-160299323D01*
X119720867Y-160357332D01*
X119716285Y-160423612D01*
X119716285Y-160503662D01*
X119724394Y-160595338D01*
X119747194Y-160671302D01*
X119783504Y-160734611D01*
X119833704Y-160787411D01*
X119894385Y-160828209D01*
X119967274Y-160858674D01*
X120054757Y-160878163D01*
X120159769Y-160885139D01*
G37*
G36*
X119586867Y-161023716D02*
G01*
X118996745Y-159255459D01*
X118680481Y-159255459D01*
X119270603Y-161023716D01*
X119586867Y-161023716D01*
G37*
M02*
