%TF.GenerationSoftware,KiCad,Pcbnew,9.0.1+1*%
%TF.CreationDate,2025-08-26T22:51:47+00:00*%
%TF.ProjectId,rcbus-ymf262,72636275-732d-4796-9d66-3236322e6b69,@version@*%
%TF.SameCoordinates,Original*%
%TF.FileFunction,Legend,Bot*%
%TF.FilePolarity,Positive*%
%FSLAX46Y46*%
G04 Gerber Fmt 4.6, Leading zero omitted, Abs format (unit mm)*
G04 Created by KiCad (PCBNEW 9.0.1+1) date 2025-08-26 22:51:47*
%MOMM*%
%LPD*%
G01*
G04 APERTURE LIST*
%ADD10C,0.187500*%
G04 APERTURE END LIST*
D10*
G36*
X150666832Y-159454699D02*
G01*
X150755884Y-159484825D01*
X150834701Y-159534482D01*
X150905037Y-159605564D01*
X150959441Y-159688874D01*
X150999649Y-159786226D01*
X151025080Y-159900191D01*
X151034088Y-160033935D01*
X151025094Y-160167076D01*
X150999686Y-160280686D01*
X150959481Y-160377885D01*
X150905037Y-160461208D01*
X150834701Y-160532290D01*
X150755884Y-160581947D01*
X150666832Y-160612073D01*
X150564776Y-160622500D01*
X150481286Y-160616586D01*
X150409175Y-160599773D01*
X150346606Y-160572949D01*
X150290272Y-160534979D01*
X150240524Y-160485540D01*
X150196946Y-160423197D01*
X150196946Y-160513598D01*
X150203717Y-160611149D01*
X150222356Y-160689547D01*
X150251078Y-160752350D01*
X150289178Y-160802384D01*
X150337945Y-160842221D01*
X150398612Y-160871942D01*
X150473773Y-160891082D01*
X150566791Y-160898005D01*
X150650049Y-160892621D01*
X150731746Y-160876482D01*
X150811995Y-160849658D01*
X150895694Y-160810078D01*
X150895694Y-160991795D01*
X150811465Y-161020338D01*
X150724602Y-161040430D01*
X150634905Y-161052209D01*
X150537115Y-161056275D01*
X150402618Y-161045956D01*
X150294542Y-161017469D01*
X150207796Y-160973243D01*
X150138511Y-160913851D01*
X150085171Y-160839838D01*
X150044578Y-160745961D01*
X150018044Y-160627733D01*
X150008360Y-160479617D01*
X150008360Y-160033935D01*
X150196946Y-160033935D01*
X150203100Y-160137549D01*
X150220180Y-160223086D01*
X150246599Y-160293506D01*
X150281485Y-160351298D01*
X150327919Y-160400628D01*
X150381809Y-160435398D01*
X150444625Y-160456749D01*
X150518705Y-160464230D01*
X150592196Y-160456770D01*
X150654658Y-160435453D01*
X150708389Y-160400688D01*
X150754827Y-160351298D01*
X150789713Y-160293506D01*
X150816132Y-160223086D01*
X150833212Y-160137549D01*
X150839366Y-160033935D01*
X150833198Y-159929704D01*
X150816096Y-159843832D01*
X150789674Y-159773299D01*
X150754827Y-159715565D01*
X150708383Y-159666130D01*
X150654650Y-159631338D01*
X150592190Y-159610006D01*
X150518705Y-159602541D01*
X150444631Y-159610027D01*
X150381817Y-159631393D01*
X150327925Y-159666191D01*
X150281485Y-159715565D01*
X150246638Y-159773299D01*
X150220216Y-159843832D01*
X150203114Y-159929704D01*
X150196946Y-160033935D01*
X150008360Y-160033935D01*
X150008360Y-159473581D01*
X150196946Y-159473581D01*
X150196946Y-159643574D01*
X150240524Y-159581231D01*
X150290272Y-159531792D01*
X150346606Y-159493823D01*
X150409175Y-159466998D01*
X150481286Y-159450186D01*
X150564776Y-159444272D01*
X150666832Y-159454699D01*
G37*
G36*
X149620014Y-159473581D02*
G01*
X149431428Y-159473581D01*
X149431428Y-160622500D01*
X149620014Y-160622500D01*
X149620014Y-159473581D01*
G37*
G36*
X149620014Y-159028082D02*
G01*
X149431428Y-159028082D01*
X149431428Y-159268417D01*
X149620014Y-159268417D01*
X149620014Y-159028082D01*
G37*
G36*
X148850283Y-159145319D02*
G01*
X148850283Y-159473581D01*
X148461936Y-159473581D01*
X148461936Y-159620127D01*
X148850283Y-159620127D01*
X148850283Y-160243679D01*
X148844421Y-160338150D01*
X148830360Y-160393984D01*
X148811906Y-160424205D01*
X148782918Y-160444052D01*
X148733837Y-160458423D01*
X148655560Y-160464230D01*
X148461936Y-160464230D01*
X148461936Y-160622500D01*
X148655560Y-160622500D01*
X148768708Y-160615906D01*
X148852595Y-160598471D01*
X148913561Y-160572952D01*
X148956803Y-160540892D01*
X148989494Y-160498163D01*
X149015422Y-160437984D01*
X149033103Y-160355248D01*
X149039784Y-160243679D01*
X149039784Y-159620127D01*
X149178179Y-159620127D01*
X149178179Y-159473581D01*
X149039784Y-159473581D01*
X149039784Y-159145319D01*
X148850283Y-159145319D01*
G37*
G36*
X147260628Y-159927140D02*
G01*
X147260628Y-160622500D01*
X147449214Y-160622500D01*
X147449214Y-159933368D01*
X147457537Y-159826124D01*
X147479676Y-159746975D01*
X147512778Y-159689370D01*
X147560495Y-159645459D01*
X147622477Y-159618233D01*
X147703288Y-159608403D01*
X147778347Y-159614997D01*
X147842192Y-159633736D01*
X147896936Y-159663887D01*
X147944081Y-159705856D01*
X147981324Y-159756711D01*
X148008724Y-159816668D01*
X148026043Y-159887479D01*
X148032191Y-159971379D01*
X148032191Y-160622500D01*
X148221785Y-160622500D01*
X148221785Y-159028082D01*
X148032191Y-159028082D01*
X148032191Y-159649436D01*
X147982985Y-159584816D01*
X147929981Y-159533967D01*
X147872914Y-159495288D01*
X147809928Y-159467393D01*
X147739844Y-159450220D01*
X147661247Y-159444272D01*
X147563595Y-159452805D01*
X147483282Y-159476708D01*
X147416918Y-159514617D01*
X147362111Y-159566821D01*
X147320458Y-159629904D01*
X147288767Y-159708635D01*
X147268125Y-159806363D01*
X147260628Y-159927140D01*
G37*
G36*
X146903423Y-160169490D02*
G01*
X146903423Y-159473581D01*
X146714928Y-159473581D01*
X146714928Y-160162346D01*
X146706631Y-160269343D01*
X146684534Y-160348526D01*
X146651456Y-160406345D01*
X146603652Y-160450472D01*
X146541607Y-160477811D01*
X146460763Y-160487677D01*
X146385692Y-160481106D01*
X146321754Y-160462422D01*
X146266857Y-160432352D01*
X146219512Y-160390499D01*
X146182008Y-160339651D01*
X146154442Y-160279752D01*
X146137031Y-160209060D01*
X146130852Y-160125343D01*
X146130852Y-159473581D01*
X145942266Y-159473581D01*
X145942266Y-160622500D01*
X146130852Y-160622500D01*
X146130852Y-160446645D01*
X146180759Y-160512002D01*
X146233802Y-160562981D01*
X146290221Y-160601342D01*
X146352473Y-160628892D01*
X146422172Y-160645902D01*
X146500788Y-160651809D01*
X146598404Y-160643278D01*
X146678926Y-160619350D01*
X146745683Y-160581355D01*
X146801024Y-160528985D01*
X146843145Y-160465607D01*
X146875113Y-160386853D01*
X146895890Y-160289464D01*
X146903423Y-160169490D01*
G37*
G36*
X145560515Y-160622500D02*
G01*
X145370921Y-160622500D01*
X145370921Y-160452506D01*
X145326691Y-160515540D01*
X145276776Y-160565119D01*
X145220803Y-160602807D01*
X145158570Y-160629340D01*
X145086935Y-160645964D01*
X145004099Y-160651809D01*
X144903475Y-160641188D01*
X144814953Y-160610356D01*
X144735841Y-160559206D01*
X144664479Y-160485479D01*
X144609300Y-160399662D01*
X144568576Y-160299920D01*
X144542868Y-160183740D01*
X144533779Y-160048040D01*
X144729509Y-160048040D01*
X144735693Y-160153601D01*
X144752919Y-160241482D01*
X144779657Y-160314496D01*
X144815055Y-160375020D01*
X144862327Y-160427307D01*
X144916245Y-160463727D01*
X144978122Y-160485848D01*
X145050169Y-160493539D01*
X145122265Y-160485847D01*
X145184172Y-160463722D01*
X145238103Y-160427302D01*
X145285375Y-160375020D01*
X145320773Y-160314496D01*
X145347511Y-160241482D01*
X145364737Y-160153601D01*
X145370921Y-160048040D01*
X145364736Y-159942476D01*
X145347508Y-159854613D01*
X145320770Y-159781632D01*
X145285375Y-159721152D01*
X145238097Y-159668825D01*
X145184164Y-159632378D01*
X145122259Y-159610239D01*
X145050169Y-159602541D01*
X144978128Y-159610237D01*
X144916253Y-159632373D01*
X144862333Y-159668819D01*
X144815055Y-159721152D01*
X144779660Y-159781632D01*
X144752922Y-159854613D01*
X144735694Y-159942476D01*
X144729509Y-160048040D01*
X144533779Y-160048040D01*
X144542868Y-159912340D01*
X144568576Y-159796161D01*
X144609300Y-159696419D01*
X144664479Y-159610601D01*
X144735841Y-159536875D01*
X144814953Y-159485725D01*
X144903475Y-159454893D01*
X145004099Y-159444272D01*
X145086930Y-159450127D01*
X145158565Y-159466781D01*
X145220803Y-159493365D01*
X145276772Y-159531000D01*
X145326687Y-159580547D01*
X145370921Y-159643574D01*
X145370921Y-159028082D01*
X145560515Y-159028082D01*
X145560515Y-160622500D01*
G37*
G36*
X144194617Y-160364579D02*
G01*
X143978370Y-160364579D01*
X143978370Y-160622500D01*
X144194617Y-160622500D01*
X144194617Y-160364579D01*
G37*
G36*
X142728610Y-159514614D02*
G01*
X142728610Y-159690469D01*
X142809574Y-159651635D01*
X142888986Y-159624523D01*
X142969957Y-159608015D01*
X143051377Y-159602541D01*
X143141580Y-159610527D01*
X143217427Y-159633120D01*
X143281664Y-159669323D01*
X143336226Y-159719595D01*
X143378576Y-159780353D01*
X143410165Y-159853592D01*
X143430376Y-159941795D01*
X143437617Y-160048040D01*
X143430376Y-160154285D01*
X143410165Y-160242488D01*
X143378576Y-160315728D01*
X143336226Y-160376486D01*
X143281664Y-160426758D01*
X143217427Y-160462961D01*
X143141580Y-160485553D01*
X143051377Y-160493539D01*
X142969957Y-160488066D01*
X142888986Y-160471557D01*
X142809574Y-160444445D01*
X142728610Y-160405612D01*
X142728610Y-160581467D01*
X142808890Y-160612241D01*
X142892009Y-160634223D01*
X142978142Y-160647303D01*
X143071894Y-160651809D01*
X143175516Y-160644689D01*
X143266814Y-160624285D01*
X143347673Y-160591491D01*
X143419629Y-160546460D01*
X143483779Y-160488593D01*
X143548700Y-160402938D01*
X143596128Y-160302933D01*
X143625927Y-160185824D01*
X143636461Y-160048040D01*
X143625750Y-159908050D01*
X143595556Y-159790045D01*
X143547673Y-159690172D01*
X143482313Y-159605472D01*
X143417817Y-159548734D01*
X143344738Y-159504306D01*
X143261851Y-159471758D01*
X143167488Y-159451402D01*
X143059620Y-159444272D01*
X142973278Y-159448696D01*
X142889536Y-159461857D01*
X142807826Y-159483820D01*
X142728610Y-159514614D01*
G37*
G36*
X142077715Y-159455121D02*
G01*
X142180439Y-159485914D01*
X142268132Y-159535447D01*
X142343287Y-159604465D01*
X142401967Y-159687746D01*
X142445516Y-159787198D01*
X142473248Y-159905981D01*
X142483146Y-160048040D01*
X142473270Y-160189528D01*
X142445570Y-160308091D01*
X142402024Y-160407602D01*
X142343287Y-160491158D01*
X142268103Y-160560394D01*
X142180399Y-160610064D01*
X142077685Y-160640935D01*
X141956406Y-160651809D01*
X141835727Y-160640960D01*
X141733280Y-160610129D01*
X141645574Y-160560462D01*
X141570167Y-160491158D01*
X141511179Y-160407566D01*
X141467465Y-160308043D01*
X141439668Y-160189492D01*
X141429757Y-160048040D01*
X141629609Y-160048040D01*
X141635918Y-160152223D01*
X141653558Y-160239560D01*
X141681077Y-160312714D01*
X141717720Y-160373921D01*
X141766271Y-160426764D01*
X141821233Y-160463527D01*
X141883895Y-160485811D01*
X141956406Y-160493539D01*
X142030076Y-160485790D01*
X142093347Y-160463516D01*
X142148450Y-160426906D01*
X142196741Y-160374471D01*
X142233090Y-160313535D01*
X142260443Y-160240423D01*
X142278010Y-160152836D01*
X142284302Y-160048040D01*
X142277973Y-159943276D01*
X142260303Y-159855719D01*
X142232782Y-159782627D01*
X142196191Y-159721701D01*
X142147674Y-159669149D01*
X142092561Y-159632516D01*
X142029532Y-159610268D01*
X141956406Y-159602541D01*
X141883930Y-159610297D01*
X141821280Y-159632667D01*
X141766305Y-159669593D01*
X141717720Y-159722709D01*
X141681027Y-159784153D01*
X141653511Y-159857336D01*
X141635900Y-159944434D01*
X141629609Y-160048040D01*
X141429757Y-160048040D01*
X141439689Y-159906017D01*
X141467520Y-159787247D01*
X141511236Y-159687781D01*
X141570167Y-159604465D01*
X141645545Y-159535380D01*
X141733240Y-159485850D01*
X141835697Y-159455095D01*
X141956406Y-159444272D01*
X142077715Y-159455121D01*
G37*
G36*
X140223869Y-159691568D02*
G01*
X140171453Y-159611636D01*
X140115140Y-159550205D01*
X140054792Y-159504631D01*
X139986888Y-159471666D01*
X139910323Y-159451341D01*
X139823250Y-159444272D01*
X139735753Y-159452717D01*
X139662202Y-159476687D01*
X139599782Y-159515409D01*
X139546645Y-159569843D01*
X139506512Y-159634219D01*
X139476096Y-159713167D01*
X139456396Y-159809633D01*
X139449284Y-159927140D01*
X139449284Y-160622500D01*
X139638786Y-160622500D01*
X139638786Y-159933368D01*
X139646564Y-159824263D01*
X139667053Y-159744944D01*
X139697221Y-159688362D01*
X139741609Y-159644859D01*
X139799549Y-159618063D01*
X139875457Y-159608403D01*
X139947242Y-159614940D01*
X140008531Y-159633571D01*
X140061347Y-159663688D01*
X140107091Y-159705856D01*
X140152764Y-159775373D01*
X140181667Y-159862301D01*
X140192087Y-159971379D01*
X140192087Y-160622500D01*
X140381681Y-160622500D01*
X140381681Y-159933368D01*
X140389487Y-159823556D01*
X140410000Y-159744160D01*
X140440116Y-159687904D01*
X140484524Y-159644788D01*
X140543090Y-159618077D01*
X140620459Y-159608403D01*
X140691080Y-159614929D01*
X140751677Y-159633577D01*
X140804200Y-159663822D01*
X140849986Y-159706314D01*
X140895721Y-159776152D01*
X140924596Y-159862978D01*
X140934982Y-159971379D01*
X140934982Y-160622500D01*
X141124576Y-160622500D01*
X141124576Y-159473581D01*
X140934982Y-159473581D01*
X140934982Y-159649436D01*
X140887505Y-159583587D01*
X140836024Y-159532491D01*
X140780285Y-159494281D01*
X140718307Y-159467132D01*
X140647499Y-159450203D01*
X140566145Y-159444272D01*
X140484854Y-159451716D01*
X140414712Y-159473031D01*
X140353562Y-159507653D01*
X140301387Y-159554869D01*
X140258173Y-159615393D01*
X140223869Y-159691568D01*
G37*
G36*
X138737988Y-159092562D02*
G01*
X138563873Y-159092562D01*
X139096658Y-160815940D01*
X139270864Y-160815940D01*
X138737988Y-159092562D01*
G37*
G36*
X137989231Y-159451480D02*
G01*
X138080093Y-159472154D01*
X138160668Y-159505425D01*
X138232481Y-159551197D01*
X138296610Y-159610143D01*
X138361153Y-159696907D01*
X138408435Y-159798492D01*
X138438205Y-159917739D01*
X138448743Y-160058299D01*
X138441657Y-160168131D01*
X138421401Y-160264591D01*
X138388994Y-160349641D01*
X138344770Y-160424910D01*
X138288367Y-160491616D01*
X138221624Y-160547896D01*
X138146194Y-160592062D01*
X138060837Y-160624454D01*
X137963902Y-160644716D01*
X137853401Y-160651809D01*
X137744456Y-160646166D01*
X137637246Y-160629277D01*
X137532058Y-160601753D01*
X137429151Y-160563881D01*
X137429151Y-160388026D01*
X137530851Y-160434541D01*
X137631567Y-160467161D01*
X137734787Y-160486895D01*
X137842135Y-160493539D01*
X137935427Y-160486325D01*
X138013592Y-160466037D01*
X138079323Y-160433925D01*
X138134677Y-160390133D01*
X138179400Y-160335582D01*
X138214246Y-160268874D01*
X138238874Y-160187692D01*
X138252005Y-160089073D01*
X137385096Y-160089073D01*
X137385096Y-159997482D01*
X137389141Y-159942527D01*
X137573682Y-159942527D01*
X138245869Y-159943535D01*
X138226143Y-159839447D01*
X138189462Y-159757040D01*
X138136784Y-159691934D01*
X138068710Y-159643376D01*
X137985873Y-159613251D01*
X137884176Y-159602541D01*
X137795324Y-159613340D01*
X137721869Y-159644150D01*
X137660235Y-159695048D01*
X137614261Y-159761231D01*
X137585032Y-159842391D01*
X137573682Y-159942527D01*
X137389141Y-159942527D01*
X137394478Y-159870011D01*
X137420929Y-159762245D01*
X137462822Y-159670821D01*
X137519826Y-159593107D01*
X137591915Y-159528932D01*
X137675358Y-159482889D01*
X137772396Y-159454314D01*
X137886191Y-159444272D01*
X137989231Y-159451480D01*
G37*
G36*
X137075701Y-159028082D02*
G01*
X136887115Y-159028082D01*
X136887115Y-160622500D01*
X137075701Y-160622500D01*
X137075701Y-159028082D01*
G37*
G36*
X136114911Y-159451480D02*
G01*
X136205773Y-159472154D01*
X136286349Y-159505425D01*
X136358162Y-159551197D01*
X136422291Y-159610143D01*
X136486833Y-159696907D01*
X136534115Y-159798492D01*
X136563885Y-159917739D01*
X136574423Y-160058299D01*
X136567337Y-160168131D01*
X136547082Y-160264591D01*
X136514675Y-160349641D01*
X136470451Y-160424910D01*
X136414047Y-160491616D01*
X136347305Y-160547896D01*
X136271874Y-160592062D01*
X136186517Y-160624454D01*
X136089583Y-160644716D01*
X135979081Y-160651809D01*
X135870136Y-160646166D01*
X135762926Y-160629277D01*
X135657739Y-160601753D01*
X135554832Y-160563881D01*
X135554832Y-160388026D01*
X135656532Y-160434541D01*
X135757248Y-160467161D01*
X135860467Y-160486895D01*
X135967816Y-160493539D01*
X136061108Y-160486325D01*
X136139272Y-160466037D01*
X136205003Y-160433925D01*
X136260358Y-160390133D01*
X136305080Y-160335582D01*
X136339927Y-160268874D01*
X136364555Y-160187692D01*
X136377686Y-160089073D01*
X135510776Y-160089073D01*
X135510776Y-159997482D01*
X135514821Y-159942527D01*
X135699362Y-159942527D01*
X136371549Y-159943535D01*
X136351823Y-159839447D01*
X136315142Y-159757040D01*
X136262464Y-159691934D01*
X136194390Y-159643376D01*
X136111554Y-159613251D01*
X136009856Y-159602541D01*
X135921005Y-159613340D01*
X135847550Y-159644150D01*
X135785916Y-159695048D01*
X135739941Y-159761231D01*
X135710712Y-159842391D01*
X135699362Y-159942527D01*
X135514821Y-159942527D01*
X135520158Y-159870011D01*
X135546609Y-159762245D01*
X135588503Y-159670821D01*
X135645507Y-159593107D01*
X135717596Y-159528932D01*
X135801038Y-159482889D01*
X135898076Y-159454314D01*
X136011871Y-159444272D01*
X136114911Y-159451480D01*
G37*
G36*
X134375505Y-159514614D02*
G01*
X134375505Y-159690469D01*
X134456468Y-159651635D01*
X134535881Y-159624523D01*
X134616851Y-159608015D01*
X134698272Y-159602541D01*
X134788475Y-159610527D01*
X134864322Y-159633120D01*
X134928559Y-159669323D01*
X134983120Y-159719595D01*
X135025471Y-159780353D01*
X135057060Y-159853592D01*
X135077271Y-159941795D01*
X135084511Y-160048040D01*
X135077271Y-160154285D01*
X135057060Y-160242488D01*
X135025471Y-160315728D01*
X134983120Y-160376486D01*
X134928559Y-160426758D01*
X134864322Y-160462961D01*
X134788475Y-160485553D01*
X134698272Y-160493539D01*
X134616851Y-160488066D01*
X134535881Y-160471557D01*
X134456468Y-160444445D01*
X134375505Y-160405612D01*
X134375505Y-160581467D01*
X134455784Y-160612241D01*
X134538903Y-160634223D01*
X134625037Y-160647303D01*
X134718788Y-160651809D01*
X134822411Y-160644689D01*
X134913708Y-160624285D01*
X134994568Y-160591491D01*
X135066523Y-160546460D01*
X135130673Y-160488593D01*
X135195595Y-160402938D01*
X135243023Y-160302933D01*
X135272822Y-160185824D01*
X135283356Y-160048040D01*
X135272644Y-159908050D01*
X135242451Y-159790045D01*
X135194568Y-159690172D01*
X135129208Y-159605472D01*
X135064711Y-159548734D01*
X134991632Y-159504306D01*
X134908745Y-159471758D01*
X134814383Y-159451402D01*
X134706515Y-159444272D01*
X134620173Y-159448696D01*
X134536431Y-159461857D01*
X134454721Y-159483820D01*
X134375505Y-159514614D01*
G37*
G36*
X133861588Y-159145319D02*
G01*
X133861588Y-159473581D01*
X133473241Y-159473581D01*
X133473241Y-159620127D01*
X133861588Y-159620127D01*
X133861588Y-160243679D01*
X133855726Y-160338150D01*
X133841665Y-160393984D01*
X133823211Y-160424205D01*
X133794223Y-160444052D01*
X133745142Y-160458423D01*
X133666865Y-160464230D01*
X133473241Y-160464230D01*
X133473241Y-160622500D01*
X133666865Y-160622500D01*
X133780013Y-160615906D01*
X133863900Y-160598471D01*
X133924866Y-160572952D01*
X133968108Y-160540892D01*
X134000799Y-160498163D01*
X134026727Y-160437984D01*
X134044408Y-160355248D01*
X134051089Y-160243679D01*
X134051089Y-159620127D01*
X134189484Y-159620127D01*
X134189484Y-159473581D01*
X134051089Y-159473581D01*
X134051089Y-159145319D01*
X133861588Y-159145319D01*
G37*
G36*
X132560903Y-159649436D02*
G01*
X132630054Y-159622875D01*
X132712578Y-159614265D01*
X132791128Y-159621363D01*
X132856640Y-159641389D01*
X132911660Y-159673431D01*
X132957950Y-159717946D01*
X132993293Y-159771366D01*
X133019992Y-159837016D01*
X133037260Y-159917414D01*
X133043496Y-160015617D01*
X133043496Y-160622500D01*
X133233090Y-160622500D01*
X133233090Y-159473581D01*
X133043496Y-159473581D01*
X133043496Y-159649436D01*
X132998906Y-159584791D01*
X132947502Y-159533767D01*
X132888799Y-159494830D01*
X132823384Y-159467584D01*
X132746912Y-159450367D01*
X132657257Y-159444272D01*
X132614209Y-159447203D01*
X132561910Y-159455996D01*
X132560903Y-159649436D01*
G37*
G36*
X132362791Y-159473581D02*
G01*
X132174205Y-159473581D01*
X132174205Y-160622500D01*
X132362791Y-160622500D01*
X132362791Y-159473581D01*
G37*
G36*
X132362791Y-159028082D02*
G01*
X132174205Y-159028082D01*
X132174205Y-159268417D01*
X132362791Y-159268417D01*
X132362791Y-159028082D01*
G37*
G36*
X130852180Y-159473581D02*
G01*
X130852180Y-160622500D01*
X131041773Y-160622500D01*
X131041773Y-159620127D01*
X131559171Y-159620127D01*
X131559171Y-160622500D01*
X131748765Y-160622500D01*
X131748765Y-159620127D01*
X131929108Y-159620127D01*
X131929108Y-159473581D01*
X131748765Y-159473581D01*
X131748765Y-159393897D01*
X131742199Y-159299337D01*
X131724203Y-159224064D01*
X131696595Y-159164412D01*
X131660105Y-159117475D01*
X131613435Y-159080540D01*
X131554508Y-159052720D01*
X131480560Y-159034655D01*
X131388079Y-159028082D01*
X131198486Y-159028082D01*
X131198486Y-159186352D01*
X131378828Y-159186352D01*
X131445502Y-159191931D01*
X131490466Y-159206251D01*
X131519787Y-159227018D01*
X131539755Y-159256951D01*
X131553700Y-159303474D01*
X131559171Y-159373106D01*
X131559171Y-159473581D01*
X130852180Y-159473581D01*
G37*
G36*
X131041773Y-159028082D02*
G01*
X130852180Y-159028082D01*
X130852180Y-159268417D01*
X131041773Y-159268417D01*
X131041773Y-159028082D01*
G37*
G36*
X130080159Y-159451480D02*
G01*
X130171021Y-159472154D01*
X130251596Y-159505425D01*
X130323409Y-159551197D01*
X130387538Y-159610143D01*
X130452081Y-159696907D01*
X130499363Y-159798492D01*
X130529133Y-159917739D01*
X130539671Y-160058299D01*
X130532585Y-160168131D01*
X130512329Y-160264591D01*
X130479922Y-160349641D01*
X130435699Y-160424910D01*
X130379295Y-160491616D01*
X130312552Y-160547896D01*
X130237122Y-160592062D01*
X130151765Y-160624454D01*
X130054830Y-160644716D01*
X129944329Y-160651809D01*
X129835384Y-160646166D01*
X129728174Y-160629277D01*
X129622986Y-160601753D01*
X129520079Y-160563881D01*
X129520079Y-160388026D01*
X129621779Y-160434541D01*
X129722496Y-160467161D01*
X129825715Y-160486895D01*
X129933063Y-160493539D01*
X130026355Y-160486325D01*
X130104520Y-160466037D01*
X130170251Y-160433925D01*
X130225605Y-160390133D01*
X130270328Y-160335582D01*
X130305174Y-160268874D01*
X130329803Y-160187692D01*
X130342933Y-160089073D01*
X129476024Y-160089073D01*
X129476024Y-159997482D01*
X129480069Y-159942527D01*
X129664610Y-159942527D01*
X130336797Y-159943535D01*
X130317071Y-159839447D01*
X130280390Y-159757040D01*
X130227712Y-159691934D01*
X130159638Y-159643376D01*
X130076801Y-159613251D01*
X129975104Y-159602541D01*
X129886252Y-159613340D01*
X129812797Y-159644150D01*
X129751164Y-159695048D01*
X129705189Y-159761231D01*
X129675960Y-159842391D01*
X129664610Y-159942527D01*
X129480069Y-159942527D01*
X129485406Y-159870011D01*
X129511857Y-159762245D01*
X129553750Y-159670821D01*
X129610754Y-159593107D01*
X129682843Y-159528932D01*
X129766286Y-159482889D01*
X129863324Y-159454314D01*
X129977119Y-159444272D01*
X130080159Y-159451480D01*
G37*
G36*
X128411461Y-159643574D02*
G01*
X128455695Y-159580547D01*
X128505610Y-159531000D01*
X128561579Y-159493365D01*
X128623827Y-159466812D01*
X128695776Y-159450143D01*
X128779291Y-159444272D01*
X128879381Y-159454871D01*
X128967590Y-159485669D01*
X129046582Y-159536813D01*
X129117995Y-159610601D01*
X129173132Y-159696413D01*
X129213828Y-159796153D01*
X129239520Y-159912335D01*
X129248603Y-160048040D01*
X129239520Y-160183746D01*
X129213828Y-160299928D01*
X129173132Y-160399667D01*
X129117995Y-160485479D01*
X129046582Y-160559268D01*
X128967590Y-160610412D01*
X128879381Y-160641209D01*
X128779291Y-160651809D01*
X128695771Y-160645948D01*
X128623822Y-160629309D01*
X128561579Y-160602807D01*
X128505606Y-160565119D01*
X128455691Y-160515540D01*
X128411461Y-160452506D01*
X128411461Y-160622500D01*
X128222875Y-160622500D01*
X128222875Y-160048040D01*
X128411461Y-160048040D01*
X128417681Y-160153565D01*
X128435008Y-160241434D01*
X128461914Y-160314461D01*
X128497557Y-160375020D01*
X128545045Y-160427315D01*
X128599131Y-160463737D01*
X128661125Y-160485853D01*
X128733220Y-160493539D01*
X128805267Y-160485848D01*
X128867145Y-160463727D01*
X128921062Y-160427307D01*
X128968335Y-160375020D01*
X129003733Y-160314496D01*
X129030471Y-160241482D01*
X129047697Y-160153601D01*
X129053881Y-160048040D01*
X129047695Y-159942476D01*
X129030468Y-159854613D01*
X129003730Y-159781632D01*
X128968335Y-159721152D01*
X128921056Y-159668819D01*
X128867137Y-159632373D01*
X128805261Y-159610237D01*
X128733220Y-159602541D01*
X128661131Y-159610232D01*
X128599139Y-159632363D01*
X128545051Y-159668812D01*
X128497557Y-159721152D01*
X128461918Y-159781667D01*
X128435011Y-159854660D01*
X128417682Y-159942512D01*
X128411461Y-160048040D01*
X128222875Y-160048040D01*
X128222875Y-159028082D01*
X128411461Y-159028082D01*
X128411461Y-159643574D01*
G37*
G36*
X127499397Y-159092562D02*
G01*
X127325283Y-159092562D01*
X127858068Y-160815940D01*
X128032274Y-160815940D01*
X127499397Y-159092562D01*
G37*
G36*
X126463136Y-159649436D02*
G01*
X126532287Y-159622875D01*
X126614811Y-159614265D01*
X126693361Y-159621363D01*
X126758873Y-159641389D01*
X126813893Y-159673431D01*
X126860183Y-159717946D01*
X126895527Y-159771366D01*
X126922225Y-159837016D01*
X126939493Y-159917414D01*
X126945729Y-160015617D01*
X126945729Y-160622500D01*
X127135323Y-160622500D01*
X127135323Y-159473581D01*
X126945729Y-159473581D01*
X126945729Y-159649436D01*
X126901139Y-159584791D01*
X126849736Y-159533767D01*
X126791032Y-159494830D01*
X126725617Y-159467584D01*
X126649145Y-159450367D01*
X126559490Y-159444272D01*
X126516442Y-159447203D01*
X126464143Y-159455996D01*
X126463136Y-159649436D01*
G37*
G36*
X125486042Y-159514614D02*
G01*
X125486042Y-159690469D01*
X125567006Y-159651635D01*
X125646418Y-159624523D01*
X125727388Y-159608015D01*
X125808809Y-159602541D01*
X125899012Y-159610527D01*
X125974859Y-159633120D01*
X126039096Y-159669323D01*
X126093657Y-159719595D01*
X126136008Y-159780353D01*
X126167597Y-159853592D01*
X126187808Y-159941795D01*
X126195049Y-160048040D01*
X126187808Y-160154285D01*
X126167597Y-160242488D01*
X126136008Y-160315728D01*
X126093657Y-160376486D01*
X126039096Y-160426758D01*
X125974859Y-160462961D01*
X125899012Y-160485553D01*
X125808809Y-160493539D01*
X125727388Y-160488066D01*
X125646418Y-160471557D01*
X125567006Y-160444445D01*
X125486042Y-160405612D01*
X125486042Y-160581467D01*
X125566322Y-160612241D01*
X125649441Y-160634223D01*
X125735574Y-160647303D01*
X125829326Y-160651809D01*
X125932948Y-160644689D01*
X126024246Y-160624285D01*
X126105105Y-160591491D01*
X126177061Y-160546460D01*
X126241211Y-160488593D01*
X126306132Y-160402938D01*
X126353560Y-160302933D01*
X126383359Y-160185824D01*
X126393893Y-160048040D01*
X126383182Y-159908050D01*
X126352988Y-159790045D01*
X126305105Y-159690172D01*
X126239745Y-159605472D01*
X126175249Y-159548734D01*
X126102170Y-159504306D01*
X126019283Y-159471758D01*
X125924920Y-159451402D01*
X125817052Y-159444272D01*
X125730710Y-159448696D01*
X125646968Y-159461857D01*
X125565258Y-159483820D01*
X125486042Y-159514614D01*
G37*
G36*
X125165748Y-160622500D02*
G01*
X124976155Y-160622500D01*
X124976155Y-160452506D01*
X124931925Y-160515540D01*
X124882010Y-160565119D01*
X124826037Y-160602807D01*
X124763804Y-160629340D01*
X124692169Y-160645964D01*
X124609333Y-160651809D01*
X124508708Y-160641188D01*
X124420187Y-160610356D01*
X124341075Y-160559206D01*
X124269713Y-160485479D01*
X124214534Y-160399662D01*
X124173810Y-160299920D01*
X124148102Y-160183740D01*
X124139013Y-160048040D01*
X124334743Y-160048040D01*
X124340927Y-160153601D01*
X124358153Y-160241482D01*
X124384890Y-160314496D01*
X124420289Y-160375020D01*
X124467561Y-160427307D01*
X124521478Y-160463727D01*
X124583356Y-160485848D01*
X124655403Y-160493539D01*
X124727499Y-160485847D01*
X124789406Y-160463722D01*
X124843337Y-160427302D01*
X124890609Y-160375020D01*
X124926007Y-160314496D01*
X124952745Y-160241482D01*
X124969971Y-160153601D01*
X124976155Y-160048040D01*
X124969969Y-159942476D01*
X124952742Y-159854613D01*
X124926004Y-159781632D01*
X124890609Y-159721152D01*
X124843331Y-159668825D01*
X124789398Y-159632378D01*
X124727493Y-159610239D01*
X124655403Y-159602541D01*
X124583362Y-159610237D01*
X124521486Y-159632373D01*
X124467567Y-159668819D01*
X124420289Y-159721152D01*
X124384894Y-159781632D01*
X124358156Y-159854613D01*
X124340928Y-159942476D01*
X124334743Y-160048040D01*
X124139013Y-160048040D01*
X124148102Y-159912340D01*
X124173810Y-159796161D01*
X124214534Y-159696419D01*
X124269713Y-159610601D01*
X124341075Y-159536875D01*
X124420187Y-159485725D01*
X124508708Y-159454893D01*
X124609333Y-159444272D01*
X124692164Y-159450127D01*
X124763798Y-159466781D01*
X124826037Y-159493365D01*
X124882006Y-159531000D01*
X124931921Y-159580547D01*
X124976155Y-159643574D01*
X124976155Y-159028082D01*
X125165748Y-159028082D01*
X125165748Y-160622500D01*
G37*
G36*
X123845921Y-160169490D02*
G01*
X123845921Y-159473581D01*
X123657427Y-159473581D01*
X123657427Y-160162346D01*
X123649129Y-160269343D01*
X123627033Y-160348526D01*
X123593954Y-160406345D01*
X123546150Y-160450472D01*
X123484106Y-160477811D01*
X123403261Y-160487677D01*
X123328191Y-160481106D01*
X123264252Y-160462422D01*
X123209355Y-160432352D01*
X123162011Y-160390499D01*
X123124506Y-160339651D01*
X123096940Y-160279752D01*
X123079529Y-160209060D01*
X123073350Y-160125343D01*
X123073350Y-159473581D01*
X122884764Y-159473581D01*
X122884764Y-160622500D01*
X123073350Y-160622500D01*
X123073350Y-160446645D01*
X123123258Y-160512002D01*
X123176300Y-160562981D01*
X123232719Y-160601342D01*
X123294972Y-160628892D01*
X123364671Y-160645902D01*
X123443287Y-160651809D01*
X123540902Y-160643278D01*
X123621425Y-160619350D01*
X123688181Y-160581355D01*
X123743522Y-160528985D01*
X123785644Y-160465607D01*
X123817611Y-160386853D01*
X123838388Y-160289464D01*
X123845921Y-160169490D01*
G37*
G36*
X121764239Y-159508752D02*
G01*
X121764239Y-159684607D01*
X121845885Y-159648647D01*
X121930294Y-159623058D01*
X122017402Y-159607723D01*
X122108530Y-159602541D01*
X122201814Y-159608302D01*
X122270114Y-159623461D01*
X122319098Y-159645589D01*
X122358146Y-159679086D01*
X122381178Y-159721099D01*
X122389257Y-159774458D01*
X122383496Y-159815602D01*
X122366954Y-159849271D01*
X122339065Y-159877315D01*
X122275025Y-159909592D01*
X122137198Y-159948481D01*
X122072626Y-159962769D01*
X121940480Y-159999431D01*
X121848556Y-160040631D01*
X121787320Y-160084677D01*
X121741422Y-160142173D01*
X121712962Y-160213943D01*
X121702782Y-160304221D01*
X121710975Y-160381504D01*
X121734583Y-160448218D01*
X121773493Y-160506657D01*
X121829361Y-160558203D01*
X121894067Y-160597036D01*
X121971874Y-160626277D01*
X122065270Y-160645071D01*
X122177223Y-160651809D01*
X122270125Y-160647163D01*
X122369290Y-160632758D01*
X122469970Y-160609465D01*
X122579858Y-160575605D01*
X122579858Y-160382165D01*
X122474599Y-160431511D01*
X122373961Y-160465696D01*
X122272310Y-160486674D01*
X122173102Y-160493539D01*
X122084974Y-160487569D01*
X122018163Y-160471575D01*
X121968121Y-160447652D01*
X121927862Y-160412366D01*
X121904474Y-160370034D01*
X121896405Y-160318234D01*
X121902567Y-160269182D01*
X121919862Y-160230502D01*
X121948154Y-160199715D01*
X121986261Y-160177130D01*
X122056969Y-160150637D01*
X122175117Y-160120306D01*
X122240696Y-160105010D01*
X122355260Y-160072958D01*
X122437217Y-160034705D01*
X122493854Y-159991803D01*
X122536103Y-159936441D01*
X122562336Y-159867890D01*
X122571706Y-159782335D01*
X122564013Y-159703472D01*
X122542152Y-159637065D01*
X122506777Y-159580583D01*
X122456943Y-159532383D01*
X122398157Y-159496070D01*
X122326114Y-159468539D01*
X122238144Y-159450709D01*
X122131062Y-159444272D01*
X122028258Y-159448415D01*
X121934324Y-159460392D01*
X121844574Y-159480859D01*
X121764239Y-159508752D01*
G37*
G36*
X121497892Y-159960113D02*
G01*
X120945598Y-159960113D01*
X120945598Y-160130106D01*
X121497892Y-160130106D01*
X121497892Y-159960113D01*
G37*
G36*
X120205543Y-160726089D02*
G01*
X120265949Y-160861813D01*
X120317500Y-160946114D01*
X120361339Y-160993718D01*
X120415144Y-161027361D01*
X120481658Y-161048631D01*
X120564213Y-161056275D01*
X120714880Y-161056275D01*
X120714880Y-160898005D01*
X120604147Y-160898005D01*
X120532465Y-160888108D01*
X120483247Y-160861552D01*
X120443766Y-160810549D01*
X120387992Y-160689361D01*
X120354195Y-160603265D01*
X120818378Y-159473581D01*
X120618527Y-159473581D01*
X120259856Y-160372181D01*
X119901277Y-159473581D01*
X119701425Y-159473581D01*
X120205543Y-160726089D01*
G37*
G36*
X118546828Y-159691568D02*
G01*
X118494412Y-159611636D01*
X118438099Y-159550205D01*
X118377751Y-159504631D01*
X118309847Y-159471666D01*
X118233282Y-159451341D01*
X118146209Y-159444272D01*
X118058712Y-159452717D01*
X117985161Y-159476687D01*
X117922741Y-159515409D01*
X117869604Y-159569843D01*
X117829471Y-159634219D01*
X117799055Y-159713167D01*
X117779355Y-159809633D01*
X117772243Y-159927140D01*
X117772243Y-160622500D01*
X117961745Y-160622500D01*
X117961745Y-159933368D01*
X117969523Y-159824263D01*
X117990012Y-159744944D01*
X118020180Y-159688362D01*
X118064568Y-159644859D01*
X118122507Y-159618063D01*
X118198416Y-159608403D01*
X118270201Y-159614940D01*
X118331490Y-159633571D01*
X118384305Y-159663688D01*
X118430050Y-159705856D01*
X118475722Y-159775373D01*
X118504626Y-159862301D01*
X118515046Y-159971379D01*
X118515046Y-160622500D01*
X118704640Y-160622500D01*
X118704640Y-159933368D01*
X118712446Y-159823556D01*
X118732959Y-159744160D01*
X118763075Y-159687904D01*
X118807483Y-159644788D01*
X118866049Y-159618077D01*
X118943418Y-159608403D01*
X119014039Y-159614929D01*
X119074636Y-159633577D01*
X119127159Y-159663822D01*
X119172945Y-159706314D01*
X119218680Y-159776152D01*
X119247555Y-159862978D01*
X119257941Y-159971379D01*
X119257941Y-160622500D01*
X119447535Y-160622500D01*
X119447535Y-159473581D01*
X119257941Y-159473581D01*
X119257941Y-159649436D01*
X119210464Y-159583587D01*
X119158983Y-159532491D01*
X119103244Y-159494281D01*
X119041265Y-159467132D01*
X118970458Y-159450203D01*
X118889104Y-159444272D01*
X118807813Y-159451716D01*
X118737671Y-159473031D01*
X118676521Y-159507653D01*
X118624346Y-159554869D01*
X118581132Y-159615393D01*
X118546828Y-159691568D01*
G37*
G36*
X116815024Y-159028082D02*
G01*
X116815024Y-159186352D01*
X116995367Y-159186352D01*
X117062041Y-159191931D01*
X117107004Y-159206251D01*
X117136326Y-159227018D01*
X117156294Y-159256951D01*
X117170239Y-159303474D01*
X117175710Y-159373106D01*
X117175710Y-159473581D01*
X116865308Y-159473581D01*
X116865308Y-159620127D01*
X117175710Y-159620127D01*
X117175710Y-160622500D01*
X117365303Y-160622500D01*
X117365303Y-159620127D01*
X117545646Y-159620127D01*
X117545646Y-159473581D01*
X117365303Y-159473581D01*
X117365303Y-159394446D01*
X117358620Y-159297441D01*
X117340408Y-159221206D01*
X117312654Y-159161680D01*
X117276185Y-159115643D01*
X117229459Y-159079898D01*
X117169052Y-159052607D01*
X117091705Y-159034668D01*
X116993352Y-159028082D01*
X116815024Y-159028082D01*
G37*
G36*
X116452507Y-160446645D02*
G01*
X115730128Y-160446645D01*
X115730128Y-160622500D01*
X116701543Y-160622500D01*
X116701543Y-160446645D01*
X116380333Y-160119665D01*
X116124702Y-159855150D01*
X116035404Y-159745523D01*
X115985850Y-159666380D01*
X115955876Y-159588314D01*
X115946375Y-159514431D01*
X115956200Y-159437038D01*
X115984527Y-159371825D01*
X116031921Y-159315861D01*
X116092962Y-159274094D01*
X116166149Y-159248252D01*
X116254762Y-159239108D01*
X116352884Y-159247153D01*
X116460292Y-159272539D01*
X116568800Y-159313168D01*
X116691285Y-159373930D01*
X116691285Y-159162904D01*
X116567488Y-159118684D01*
X116457728Y-159088441D01*
X116350958Y-159069207D01*
X116258883Y-159063253D01*
X116140048Y-159071546D01*
X116039116Y-159094944D01*
X115953149Y-159131956D01*
X115879788Y-159182138D01*
X115818036Y-159246419D01*
X115774409Y-159319465D01*
X115747683Y-159403036D01*
X115738371Y-159499776D01*
X115747268Y-159591914D01*
X115773726Y-159678654D01*
X115819547Y-159764483D01*
X115902319Y-159877956D01*
X116065260Y-160049597D01*
X116452507Y-160446645D01*
G37*
G36*
X114853502Y-159072354D02*
G01*
X114954830Y-159098620D01*
X115045592Y-159141346D01*
X115127483Y-159200989D01*
X115201556Y-159279133D01*
X115260912Y-159366781D01*
X115308338Y-159466598D01*
X115343595Y-159580310D01*
X115365838Y-159710006D01*
X115373656Y-159858080D01*
X115366842Y-160019578D01*
X115347816Y-160156190D01*
X115318394Y-160271246D01*
X115279947Y-160367744D01*
X115233338Y-160448293D01*
X115171894Y-160521833D01*
X115102011Y-160577898D01*
X115022645Y-160618175D01*
X114931966Y-160643099D01*
X114827498Y-160651809D01*
X114713434Y-160642181D01*
X114615421Y-160614735D01*
X114530538Y-160570529D01*
X114456646Y-160509110D01*
X114396870Y-160433791D01*
X114353636Y-160347097D01*
X114326706Y-160246841D01*
X114317244Y-160130106D01*
X114525248Y-160130106D01*
X114535266Y-160237565D01*
X114563024Y-160323186D01*
X114606764Y-160391598D01*
X114650722Y-160433353D01*
X114701196Y-160463015D01*
X114759483Y-160481285D01*
X114827498Y-160487677D01*
X114895562Y-160481285D01*
X114953896Y-160463014D01*
X115004415Y-160433351D01*
X115048416Y-160391598D01*
X115092103Y-160323193D01*
X115119831Y-160237572D01*
X115129840Y-160130106D01*
X115119798Y-160021959D01*
X115092042Y-159936238D01*
X115048416Y-159868155D01*
X115004444Y-159826623D01*
X114953935Y-159797097D01*
X114895591Y-159778902D01*
X114827498Y-159772534D01*
X114759454Y-159778902D01*
X114701157Y-159797096D01*
X114650693Y-159826622D01*
X114606764Y-159868155D01*
X114563085Y-159936245D01*
X114535300Y-160021966D01*
X114525248Y-160130106D01*
X114317244Y-160130106D01*
X114326492Y-160010170D01*
X114352615Y-159908630D01*
X114394145Y-159822271D01*
X114450967Y-159748629D01*
X114522038Y-159688514D01*
X114604772Y-159645069D01*
X114701458Y-159617960D01*
X114815225Y-159608403D01*
X114887124Y-159613837D01*
X114953754Y-159629786D01*
X115016084Y-159656122D01*
X115073139Y-159692323D01*
X115123497Y-159737696D01*
X115167667Y-159793051D01*
X115152225Y-159650688D01*
X115125205Y-159537015D01*
X115088757Y-159447132D01*
X115044203Y-159376861D01*
X114985296Y-159317527D01*
X114915174Y-159275007D01*
X114831577Y-159248499D01*
X114731144Y-159239108D01*
X114653328Y-159243570D01*
X114573883Y-159257151D01*
X114495275Y-159279111D01*
X114416621Y-159309450D01*
X114416621Y-159121871D01*
X114502313Y-159095890D01*
X114582126Y-159077908D01*
X114661491Y-159066885D01*
X114739388Y-159063253D01*
X114853502Y-159072354D01*
G37*
G36*
X113782444Y-160446645D02*
G01*
X113060065Y-160446645D01*
X113060065Y-160622500D01*
X114031480Y-160622500D01*
X114031480Y-160446645D01*
X113710270Y-160119665D01*
X113454640Y-159855150D01*
X113365341Y-159745523D01*
X113315788Y-159666380D01*
X113285813Y-159588314D01*
X113276312Y-159514431D01*
X113286138Y-159437038D01*
X113314464Y-159371825D01*
X113361858Y-159315861D01*
X113422899Y-159274094D01*
X113496086Y-159248252D01*
X113584699Y-159239108D01*
X113682821Y-159247153D01*
X113790229Y-159272539D01*
X113898737Y-159313168D01*
X114021222Y-159373930D01*
X114021222Y-159162904D01*
X113897426Y-159118684D01*
X113787665Y-159088441D01*
X113680895Y-159069207D01*
X113588821Y-159063253D01*
X113469985Y-159071546D01*
X113369053Y-159094944D01*
X113283086Y-159131956D01*
X113209725Y-159182138D01*
X113147973Y-159246419D01*
X113104346Y-159319465D01*
X113077620Y-159403036D01*
X113068309Y-159499776D01*
X113077206Y-159591914D01*
X113103663Y-159678654D01*
X113149484Y-159764483D01*
X113232257Y-159877956D01*
X113395197Y-160049597D01*
X113782444Y-160446645D01*
G37*
M02*
