%TF.GenerationSoftware,KiCad,Pcbnew,9.0.1+1*%
%TF.CreationDate,2025-09-29T21:03:37+00:00*%
%TF.ProjectId,rcbus-opl3,72636275-732d-46f7-906c-332e6b696361,@version@*%
%TF.SameCoordinates,Original*%
%TF.FileFunction,Other,User*%
%FSLAX46Y46*%
G04 Gerber Fmt 4.6, Leading zero omitted, Abs format (unit mm)*
G04 Created by KiCad (PCBNEW 9.0.1+1) date 2025-09-29 21:03:37*
%MOMM*%
%LPD*%
G01*
G04 APERTURE LIST*
%ADD10C,0.050000*%
G04 APERTURE END LIST*
D10*
%TO.C,C1*%
X109770000Y-156020000D02*
X112730000Y-156020000D01*
X109770000Y-157480000D02*
X109770000Y-156020000D01*
X112730000Y-156020000D02*
X112730000Y-157480000D01*
X112730000Y-157480000D02*
X109770000Y-157480000D01*
%TO.C,C7*%
X109770000Y-140270000D02*
X112730000Y-140270000D01*
X109770000Y-141730000D02*
X109770000Y-140270000D01*
X112730000Y-140270000D02*
X112730000Y-141730000D01*
X112730000Y-141730000D02*
X109770000Y-141730000D01*
%TO.C,CON1*%
X145819000Y-131345000D02*
X145819000Y-118845000D01*
X160819000Y-118845000D02*
X145819000Y-118845000D01*
X160819000Y-131345000D02*
X145819000Y-131345000D01*
X160819000Y-131345000D02*
X160819000Y-118845000D01*
%TO.C,JP1*%
X60680000Y-141690000D02*
X60680000Y-157930000D01*
X60680000Y-157930000D02*
X66770000Y-157930000D01*
X66770000Y-141690000D02*
X60680000Y-141690000D01*
X66770000Y-157930000D02*
X66770000Y-141690000D01*
%TO.C,H1*%
X68982000Y-131382000D02*
G75*
G02*
X62082000Y-131382000I-3450000J0D01*
G01*
X62082000Y-131382000D02*
G75*
G02*
X68982000Y-131382000I3450000J0D01*
G01*
%TO.C,P1*%
X60200000Y-161200000D02*
X60200000Y-164800000D01*
X60200000Y-164800000D02*
X160300000Y-164800000D01*
X160300000Y-161200000D02*
X60200000Y-161200000D01*
X160300000Y-164800000D02*
X160300000Y-161200000D01*
%TO.C,U1*%
X79945000Y-147850000D02*
X80325000Y-147850000D01*
X79945000Y-155850000D02*
X79945000Y-147850000D01*
X80325000Y-145920000D02*
X92865000Y-145920000D01*
X80325000Y-147850000D02*
X80325000Y-145920000D01*
X80325000Y-155850000D02*
X79945000Y-155850000D01*
X80325000Y-157780000D02*
X80325000Y-155850000D01*
X92865000Y-145920000D02*
X92865000Y-147850000D01*
X92865000Y-147850000D02*
X93245000Y-147850000D01*
X92865000Y-155850000D02*
X92865000Y-157780000D01*
X92865000Y-157780000D02*
X80325000Y-157780000D01*
X93245000Y-147850000D02*
X93245000Y-155850000D01*
X93245000Y-155850000D02*
X92865000Y-155850000D01*
%TO.C,C11*%
X120770000Y-127900197D02*
X122230000Y-127900197D01*
X120770000Y-130860197D02*
X120770000Y-127900197D01*
X122230000Y-127900197D02*
X122230000Y-130860197D01*
X122230000Y-130860197D02*
X120770000Y-130860197D01*
%TO.C,C8*%
X115770000Y-127900197D02*
X117230000Y-127900197D01*
X115770000Y-130860197D02*
X115770000Y-127900197D01*
X117230000Y-127900197D02*
X117230000Y-130860197D01*
X117230000Y-130860197D02*
X115770000Y-130860197D01*
%TO.C,C12*%
X118520000Y-127900197D02*
X119980000Y-127900197D01*
X118520000Y-130860197D02*
X118520000Y-127900197D01*
X119980000Y-127900197D02*
X119980000Y-130860197D01*
X119980000Y-130860197D02*
X118520000Y-130860197D01*
%TO.C,U2*%
X113550000Y-148000000D02*
X113990000Y-148000000D01*
X113550000Y-156000000D02*
X113550000Y-148000000D01*
X113990000Y-146100000D02*
X129010000Y-146100000D01*
X113990000Y-148000000D02*
X113990000Y-146100000D01*
X113990000Y-156000000D02*
X113550000Y-156000000D01*
X113990000Y-157900000D02*
X113990000Y-156000000D01*
X129010000Y-146100000D02*
X129010000Y-148000000D01*
X129010000Y-148000000D02*
X129450000Y-148000000D01*
X129010000Y-156000000D02*
X129010000Y-157900000D01*
X129010000Y-157900000D02*
X113990000Y-157900000D01*
X129450000Y-148000000D02*
X129450000Y-156000000D01*
X129450000Y-156000000D02*
X129010000Y-156000000D01*
%TO.C,C6*%
X78520000Y-144270000D02*
X81480000Y-144270000D01*
X78520000Y-145730000D02*
X78520000Y-144270000D01*
X81480000Y-144270000D02*
X81480000Y-145730000D01*
X81480000Y-145730000D02*
X78520000Y-145730000D01*
%TO.C,Y1*%
X103250000Y-145500000D02*
X111250000Y-145500000D01*
X111250000Y-152000000D01*
X103250000Y-152000000D01*
X103250000Y-145500000D01*
%TO.C,L2*%
X92270000Y-135645000D02*
X93730000Y-135645000D01*
X92270000Y-138605000D02*
X92270000Y-135645000D01*
X93730000Y-135645000D02*
X93730000Y-138605000D01*
X93730000Y-138605000D02*
X92270000Y-138605000D01*
%TO.C,U3*%
X113600000Y-135470000D02*
X114000000Y-135470000D01*
X113600000Y-140530000D02*
X113600000Y-135470000D01*
X114000000Y-133700000D02*
X124000000Y-133700000D01*
X114000000Y-135470000D02*
X114000000Y-133700000D01*
X114000000Y-140530000D02*
X113600000Y-140530000D01*
X114000000Y-142300000D02*
X114000000Y-140530000D01*
X124000000Y-133700000D02*
X124000000Y-135470000D01*
X124000000Y-135470000D02*
X124400000Y-135470000D01*
X124000000Y-140530000D02*
X124000000Y-142300000D01*
X124000000Y-142300000D02*
X114000000Y-142300000D01*
X124400000Y-135470000D02*
X124400000Y-140530000D01*
X124400000Y-140530000D02*
X124000000Y-140530000D01*
%TO.C,C2*%
X81270000Y-135632500D02*
X82730000Y-135632500D01*
X81270000Y-138592500D02*
X81270000Y-135632500D01*
X82730000Y-135632500D02*
X82730000Y-138592500D01*
X82730000Y-138592500D02*
X81270000Y-138592500D01*
%TO.C,R6*%
X72682500Y-155270000D02*
X75642500Y-155270000D01*
X72682500Y-156730000D02*
X72682500Y-155270000D01*
X75642500Y-155270000D02*
X75642500Y-156730000D01*
X75642500Y-156730000D02*
X72682500Y-156730000D01*
%TO.C,C9*%
X119770000Y-116495000D02*
X121230000Y-116495000D01*
X119770000Y-119455000D02*
X119770000Y-116495000D01*
X121230000Y-116495000D02*
X121230000Y-119455000D01*
X121230000Y-119455000D02*
X119770000Y-119455000D01*
%TO.C,R5*%
X72682500Y-152770000D02*
X75642500Y-152770000D01*
X72682500Y-154230000D02*
X72682500Y-152770000D01*
X75642500Y-152770000D02*
X75642500Y-154230000D01*
X75642500Y-154230000D02*
X72682500Y-154230000D01*
%TO.C,R8*%
X139445000Y-119270000D02*
X142405000Y-119270000D01*
X139445000Y-120730000D02*
X139445000Y-119270000D01*
X142405000Y-119270000D02*
X142405000Y-120730000D01*
X142405000Y-120730000D02*
X139445000Y-120730000D01*
%TO.C,R7*%
X122520000Y-127950197D02*
X123980000Y-127950197D01*
X122520000Y-130910197D02*
X122520000Y-127950197D01*
X123980000Y-127950197D02*
X123980000Y-130910197D01*
X123980000Y-130910197D02*
X122520000Y-130910197D01*
%TO.C,R9*%
X139195000Y-129520000D02*
X142155000Y-129520000D01*
X139195000Y-130980000D02*
X139195000Y-129520000D01*
X142155000Y-129520000D02*
X142155000Y-130980000D01*
X142155000Y-130980000D02*
X139195000Y-130980000D01*
%TO.C,R3*%
X72682500Y-147770000D02*
X75642500Y-147770000D01*
X72682500Y-149230000D02*
X72682500Y-147770000D01*
X75642500Y-147770000D02*
X75642500Y-149230000D01*
X75642500Y-149230000D02*
X72682500Y-149230000D01*
%TO.C,R1*%
X72682500Y-142770000D02*
X75642500Y-142770000D01*
X72682500Y-144230000D02*
X72682500Y-142770000D01*
X75642500Y-142770000D02*
X75642500Y-144230000D01*
X75642500Y-144230000D02*
X72682500Y-144230000D01*
%TO.C,C10*%
X117070000Y-116520000D02*
X118530000Y-116520000D01*
X117070000Y-119480000D02*
X117070000Y-116520000D01*
X118530000Y-116520000D02*
X118530000Y-119480000D01*
X118530000Y-119480000D02*
X117070000Y-119480000D01*
%TO.C,R2*%
X72682500Y-145270000D02*
X75642500Y-145270000D01*
X72682500Y-146730000D02*
X72682500Y-145270000D01*
X75642500Y-145270000D02*
X75642500Y-146730000D01*
X75642500Y-146730000D02*
X72682500Y-146730000D01*
%TO.C,U4*%
X114557500Y-121317697D02*
X114777500Y-121317697D01*
X114557500Y-125717697D02*
X114557500Y-121317697D01*
X114777500Y-119817697D02*
X123497500Y-119817697D01*
X114777500Y-121317697D02*
X114777500Y-119817697D01*
X114777500Y-125717697D02*
X114557500Y-125717697D01*
X114777500Y-127217697D02*
X114777500Y-125717697D01*
X123497500Y-119817697D02*
X123497500Y-121317697D01*
X123497500Y-121317697D02*
X123717500Y-121317697D01*
X123497500Y-125717697D02*
X123497500Y-127217697D01*
X123497500Y-127217697D02*
X114777500Y-127217697D01*
X123717500Y-121317697D02*
X123717500Y-125717697D01*
X123717500Y-125717697D02*
X123497500Y-125717697D01*
%TO.C,C16*%
X129800000Y-129200000D02*
X129800000Y-131300000D01*
X129800000Y-131300000D02*
X130850000Y-131300000D01*
X130850000Y-128500000D02*
X130850000Y-129200000D01*
X130850000Y-128500000D02*
X132000000Y-127350000D01*
X130850000Y-129200000D02*
X129800000Y-129200000D01*
X130850000Y-131300000D02*
X130850000Y-132000000D01*
X130850000Y-132000000D02*
X132000000Y-133150000D01*
X132000000Y-127350000D02*
X136650000Y-127350000D01*
X132000000Y-133150000D02*
X136650000Y-133150000D01*
X136650000Y-127350000D02*
X136650000Y-129200000D01*
X136650000Y-129200000D02*
X137700000Y-129200000D01*
X136650000Y-131300000D02*
X136650000Y-133150000D01*
X137700000Y-129200000D02*
X137700000Y-131300000D01*
X137700000Y-131300000D02*
X136650000Y-131300000D01*
%TO.C,C4*%
X88850000Y-134900000D02*
X91150000Y-134900000D01*
X88850000Y-139500000D02*
X88850000Y-134900000D01*
X91150000Y-134900000D02*
X91150000Y-139500000D01*
X91150000Y-139500000D02*
X88850000Y-139500000D01*
%TO.C,R4*%
X72682500Y-150270000D02*
X75642500Y-150270000D01*
X72682500Y-151730000D02*
X72682500Y-150270000D01*
X75642500Y-150270000D02*
X75642500Y-151730000D01*
X75642500Y-151730000D02*
X72682500Y-151730000D01*
%TO.C,C5*%
X95050000Y-134900000D02*
X97350000Y-134900000D01*
X95050000Y-139500000D02*
X95050000Y-134900000D01*
X97350000Y-134900000D02*
X97350000Y-139500000D01*
X97350000Y-139500000D02*
X95050000Y-139500000D01*
%TO.C,C15*%
X129550000Y-118950000D02*
X129550000Y-121050000D01*
X129550000Y-121050000D02*
X130600000Y-121050000D01*
X130600000Y-118250000D02*
X130600000Y-118950000D01*
X130600000Y-118250000D02*
X131750000Y-117100000D01*
X130600000Y-118950000D02*
X129550000Y-118950000D01*
X130600000Y-121050000D02*
X130600000Y-121750000D01*
X130600000Y-121750000D02*
X131750000Y-122900000D01*
X131750000Y-117100000D02*
X136400000Y-117100000D01*
X131750000Y-122900000D02*
X136400000Y-122900000D01*
X136400000Y-117100000D02*
X136400000Y-118950000D01*
X136400000Y-118950000D02*
X137450000Y-118950000D01*
X136400000Y-121050000D02*
X136400000Y-122900000D01*
X137450000Y-118950000D02*
X137450000Y-121050000D01*
X137450000Y-121050000D02*
X136400000Y-121050000D01*
%TO.C,C19*%
X101020000Y-148520000D02*
X102480000Y-148520000D01*
X101020000Y-151480000D02*
X101020000Y-148520000D01*
X102480000Y-148520000D02*
X102480000Y-151480000D01*
X102480000Y-151480000D02*
X101020000Y-151480000D01*
%TO.C,R10*%
X139445000Y-124520000D02*
X142405000Y-124520000D01*
X139445000Y-125980000D02*
X139445000Y-124520000D01*
X142405000Y-124520000D02*
X142405000Y-125980000D01*
X142405000Y-125980000D02*
X139445000Y-125980000D01*
%TO.C,R11*%
X139270000Y-134520000D02*
X142230000Y-134520000D01*
X139270000Y-135980000D02*
X139270000Y-134520000D01*
X142230000Y-134520000D02*
X142230000Y-135980000D01*
X142230000Y-135980000D02*
X139270000Y-135980000D01*
%TO.C,C3*%
X86270000Y-135632500D02*
X87730000Y-135632500D01*
X86270000Y-138592500D02*
X86270000Y-135632500D01*
X87730000Y-135632500D02*
X87730000Y-138592500D01*
X87730000Y-138592500D02*
X86270000Y-138592500D01*
%TO.C,L1*%
X83770000Y-135645000D02*
X85230000Y-135645000D01*
X83770000Y-138605000D02*
X83770000Y-135645000D01*
X85230000Y-135645000D02*
X85230000Y-138605000D01*
X85230000Y-138605000D02*
X83770000Y-138605000D01*
%TD*%
M02*
