%TF.GenerationSoftware,KiCad,Pcbnew,9.0.1+1*%
%TF.CreationDate,2025-10-04T22:34:10+00:00*%
%TF.ProjectId,rcbus-opl3,72636275-732d-46f7-906c-332e6b696361,@version@*%
%TF.SameCoordinates,Original*%
%TF.FileFunction,Copper,L2,Bot*%
%TF.FilePolarity,Positive*%
%FSLAX46Y46*%
G04 Gerber Fmt 4.6, Leading zero omitted, Abs format (unit mm)*
G04 Created by KiCad (PCBNEW 9.0.1+1) date 2025-10-04 22:34:10*
%MOMM*%
%LPD*%
G01*
G04 APERTURE LIST*
%TA.AperFunction,ComponentPad*%
%ADD10R,2.500000X1.800000*%
%TD*%
%TA.AperFunction,ComponentPad*%
%ADD11R,1.800000X2.500000*%
%TD*%
%TA.AperFunction,ComponentPad*%
%ADD12R,1.700000X1.700000*%
%TD*%
%TA.AperFunction,ComponentPad*%
%ADD13C,1.700000*%
%TD*%
%TA.AperFunction,ComponentPad*%
%ADD14O,1.700000X1.700000*%
%TD*%
%TA.AperFunction,ViaPad*%
%ADD15C,0.685800*%
%TD*%
%TA.AperFunction,Conductor*%
%ADD16C,0.762000*%
%TD*%
%TA.AperFunction,Conductor*%
%ADD17C,0.381000*%
%TD*%
G04 APERTURE END LIST*
D10*
%TO.P,CON1,R*%
%TO.N,Net-(CON1-PadR)*%
X148569000Y-130595000D03*
%TO.P,CON1,RN*%
X148569000Y-128095000D03*
D11*
%TO.P,CON1,S*%
%TO.N,GND*%
X153569000Y-125595000D03*
D10*
%TO.P,CON1,T*%
%TO.N,Net-(CON1-PadT)*%
X148569000Y-120595000D03*
%TO.P,CON1,TN*%
X148569000Y-123095000D03*
%TD*%
D12*
%TO.P,JP1,1,Pin_1*%
%TO.N,Net-(JP1-Pin_1)*%
X65000000Y-154160000D03*
D13*
%TO.P,JP1,2,Pin_2*%
%TO.N,+5V*%
X62460000Y-154160000D03*
%TO.P,JP1,3,Pin_3*%
%TO.N,Net-(JP1-Pin_3)*%
X65000000Y-151620000D03*
%TO.P,JP1,4,Pin_4*%
%TO.N,+5V*%
X62460000Y-151620000D03*
%TO.P,JP1,5,Pin_5*%
%TO.N,Net-(JP1-Pin_5)*%
X65000000Y-149080000D03*
%TO.P,JP1,6,Pin_6*%
%TO.N,+5V*%
X62460000Y-149080000D03*
%TO.P,JP1,7,Pin_7*%
%TO.N,Net-(JP1-Pin_7)*%
X65000000Y-146540000D03*
%TO.P,JP1,8,Pin_8*%
%TO.N,+5V*%
X62460000Y-146540000D03*
%TO.P,JP1,9,Pin_9*%
%TO.N,Net-(JP1-Pin_9)*%
X65000000Y-144000000D03*
%TO.P,JP1,10,Pin_10*%
%TO.N,+5V*%
X62460000Y-144000000D03*
%TO.P,JP1,11,Pin_11*%
%TO.N,Net-(JP1-Pin_11)*%
X65000000Y-141460000D03*
%TO.P,JP1,12,Pin_12*%
%TO.N,+5V*%
X62460000Y-141460000D03*
%TD*%
D12*
%TO.P,P1,1,Pin_1*%
%TO.N,unconnected-(P1-Pin_1-Pad1)*%
X61500000Y-163500000D03*
D14*
%TO.P,P1,2,Pin_2*%
%TO.N,unconnected-(P1-Pin_2-Pad2)*%
X64040000Y-163500000D03*
%TO.P,P1,3,Pin_3*%
%TO.N,unconnected-(P1-Pin_3-Pad3)*%
X66580000Y-163500000D03*
%TO.P,P1,4,Pin_4*%
%TO.N,unconnected-(P1-Pin_4-Pad4)*%
X69120000Y-163500000D03*
%TO.P,P1,5,Pin_5*%
%TO.N,unconnected-(P1-Pin_5-Pad5)*%
X71660000Y-163500000D03*
%TO.P,P1,6,Pin_6*%
%TO.N,unconnected-(P1-Pin_6-Pad6)*%
X74200000Y-163500000D03*
%TO.P,P1,7,Pin_7*%
%TO.N,unconnected-(P1-Pin_7-Pad7)*%
X76740000Y-163500000D03*
%TO.P,P1,8,Pin_8*%
%TO.N,unconnected-(P1-Pin_8-Pad8)*%
X79280000Y-163500000D03*
%TO.P,P1,9,Pin_9*%
%TO.N,/A7*%
X81820000Y-163500000D03*
%TO.P,P1,10,Pin_10*%
%TO.N,/A6*%
X84360000Y-163500000D03*
%TO.P,P1,11,Pin_11*%
%TO.N,/A5*%
X86900000Y-163500000D03*
%TO.P,P1,12,Pin_12*%
%TO.N,/A4*%
X89440000Y-163500000D03*
%TO.P,P1,13,Pin_13*%
%TO.N,/A3*%
X91980000Y-163500000D03*
%TO.P,P1,14,Pin_14*%
%TO.N,/A2*%
X94520000Y-163500000D03*
%TO.P,P1,15,Pin_15*%
%TO.N,/A1*%
X97060000Y-163500000D03*
%TO.P,P1,16,Pin_16*%
%TO.N,/A0*%
X99600000Y-163500000D03*
%TO.P,P1,17,Pin_17*%
%TO.N,GND*%
X102140000Y-163500000D03*
%TO.P,P1,18,Pin_18*%
%TO.N,+5V*%
X104680000Y-163500000D03*
%TO.P,P1,19,Pin_19*%
%TO.N,unconnected-(P1-Pin_19-Pad19)*%
X107220000Y-163500000D03*
%TO.P,P1,20,Pin_20*%
%TO.N,/~{RESET}*%
X109760000Y-163500000D03*
%TO.P,P1,21,Pin_21*%
%TO.N,unconnected-(P1-Pin_21-Pad21)*%
X112300000Y-163500000D03*
%TO.P,P1,22,Pin_22*%
%TO.N,/~{INT}*%
X114840000Y-163500000D03*
%TO.P,P1,23,Pin_23*%
%TO.N,unconnected-(P1-Pin_23-Pad23)*%
X117380000Y-163500000D03*
%TO.P,P1,24,Pin_24*%
%TO.N,/~{WR}*%
X119920000Y-163500000D03*
%TO.P,P1,25,Pin_25*%
%TO.N,/~{RD}*%
X122460000Y-163500000D03*
%TO.P,P1,26,Pin_26*%
%TO.N,/~{IORQ}*%
X125000000Y-163500000D03*
%TO.P,P1,27,Pin_27*%
%TO.N,/D0*%
X127540000Y-163500000D03*
%TO.P,P1,28,Pin_28*%
%TO.N,/D1*%
X130080000Y-163500000D03*
%TO.P,P1,29,Pin_29*%
%TO.N,/D2*%
X132620000Y-163500000D03*
%TO.P,P1,30,Pin_30*%
%TO.N,/D3*%
X135160000Y-163500000D03*
%TO.P,P1,31,Pin_31*%
%TO.N,/D4*%
X137700000Y-163500000D03*
%TO.P,P1,32,Pin_32*%
%TO.N,/D5*%
X140240000Y-163500000D03*
%TO.P,P1,33,Pin_33*%
%TO.N,/D6*%
X142780000Y-163500000D03*
%TO.P,P1,34,Pin_34*%
%TO.N,/D7*%
X145320000Y-163500000D03*
%TO.P,P1,35,Pin_35*%
%TO.N,unconnected-(P1-Pin_35-Pad35)*%
X147860000Y-163500000D03*
%TO.P,P1,36,Pin_36*%
%TO.N,unconnected-(P1-Pin_36-Pad36)*%
X150400000Y-163500000D03*
%TO.P,P1,37,Pin_37*%
%TO.N,unconnected-(P1-Pin_37-Pad37)*%
X152940000Y-163500000D03*
%TO.P,P1,38,Pin_38*%
%TO.N,unconnected-(P1-Pin_38-Pad38)*%
X155480000Y-163500000D03*
%TO.P,P1,39,Pin_39*%
%TO.N,unconnected-(P1-Pin_39-Pad39)*%
X158020000Y-163500000D03*
%TD*%
D15*
%TO.N,+5V*%
X105000000Y-157500000D03*
%TO.N,GND*%
X74900000Y-151500000D03*
X117251002Y-116787400D03*
X107600000Y-120400000D03*
X120000000Y-116787400D03*
X120776187Y-131610261D03*
X109000000Y-141500000D03*
X74900000Y-154000000D03*
X74900000Y-144000000D03*
X97500000Y-145500000D03*
X138575000Y-127000000D03*
X82800000Y-147400000D03*
X97500000Y-156000000D03*
X107500000Y-137500000D03*
X82555018Y-142231673D03*
X114000000Y-149850000D03*
X115325000Y-140250000D03*
X118637499Y-122213600D03*
X118750001Y-131756115D03*
X74900000Y-146500000D03*
X74900000Y-141500000D03*
X138575000Y-137000000D03*
X141500000Y-153500000D03*
X91715001Y-156500000D03*
X74900000Y-149000000D03*
X121900000Y-155500000D03*
%TO.N,/A1*%
X129404661Y-157433982D03*
X132500000Y-157000000D03*
%TO.N,/~{CS}*%
X95800000Y-142800000D03*
X110600000Y-145200000D03*
%TO.N,/~{RESET}*%
X126000000Y-159074800D03*
X130054999Y-156755536D03*
%TO.N,/~{IORQ}*%
X92503401Y-157400000D03*
X119490082Y-157990082D03*
X95800000Y-158450000D03*
%TO.N,/DAC_CLK*%
X119200000Y-143100000D03*
X120284465Y-144404499D03*
%TO.N,Net-(JP1-Pin_9)*%
X81746881Y-149172600D03*
X85430824Y-153500000D03*
%TO.N,Net-(JP1-Pin_7)*%
X83772712Y-149151382D03*
X87873631Y-153500000D03*
%TO.N,Net-(JP1-Pin_11)*%
X80994854Y-148281174D03*
X82800000Y-153500000D03*
%TO.N,Net-(JP1-Pin_3)*%
X77900000Y-151500000D03*
X81178592Y-152558250D03*
%TO.N,Net-(JP1-Pin_5)*%
X87900000Y-150442600D03*
X90453700Y-153046300D03*
%TD*%
D16*
%TO.N,+5V*%
X104680000Y-163500000D02*
X104680000Y-157820000D01*
X104680000Y-157820000D02*
X105000000Y-157500000D01*
D17*
%TO.N,/A1*%
X132500000Y-157000000D02*
X131724900Y-157775100D01*
X131724900Y-157775100D02*
X129745779Y-157775100D01*
X129745779Y-157775100D02*
X129404661Y-157433982D01*
%TO.N,/~{CS}*%
X108200000Y-142800000D02*
X110600000Y-145200000D01*
X95800000Y-142800000D02*
X108200000Y-142800000D01*
%TO.N,/~{RESET}*%
X129937263Y-156637800D02*
X130054999Y-156755536D01*
X126000000Y-159000000D02*
X128362200Y-156637800D01*
X128362200Y-156637800D02*
X129937263Y-156637800D01*
X126000000Y-159074800D02*
X126000000Y-159000000D01*
%TO.N,/~{IORQ}*%
X121750000Y-160250000D02*
X119490082Y-157990082D01*
X93553401Y-158450000D02*
X95800000Y-158450000D01*
X92503401Y-157400000D02*
X93553401Y-158450000D01*
X125000000Y-163500000D02*
X121750000Y-160250000D01*
%TO.N,/DAC_CLK*%
X119200000Y-143100000D02*
X119200000Y-143691171D01*
X119913328Y-144404499D02*
X120284465Y-144404499D01*
X119200000Y-143691171D02*
X119913328Y-144404499D01*
%TO.N,Net-(JP1-Pin_9)*%
X85430824Y-153386797D02*
X81746881Y-149702854D01*
X85430824Y-153500000D02*
X85430824Y-153386797D01*
X81746881Y-149702854D02*
X81746881Y-149172600D01*
%TO.N,Net-(JP1-Pin_7)*%
X83772712Y-149325449D02*
X87873631Y-153426368D01*
X83772712Y-149151382D02*
X83772712Y-149325449D01*
X87873631Y-153426368D02*
X87873631Y-153500000D01*
%TO.N,Net-(JP1-Pin_11)*%
X80835866Y-151101073D02*
X82800000Y-153065207D01*
X80994854Y-148281174D02*
X80835866Y-148440162D01*
X82800000Y-153065207D02*
X82800000Y-153500000D01*
X80835866Y-148440162D02*
X80835866Y-151101073D01*
%TO.N,Net-(JP1-Pin_3)*%
X77900000Y-151500000D02*
X80121669Y-151500000D01*
X80121669Y-151500000D02*
X81178592Y-152556923D01*
X81178592Y-152556923D02*
X81178592Y-152558250D01*
%TO.N,Net-(JP1-Pin_5)*%
X90453700Y-153046300D02*
X87900000Y-150492600D01*
X87900000Y-150492600D02*
X87900000Y-150442600D01*
%TD*%
%TA.AperFunction,Conductor*%
%TO.N,GND*%
G36*
X154502611Y-115500608D02*
G01*
X154907663Y-115517361D01*
X154918012Y-115518218D01*
X155317722Y-115568042D01*
X155327986Y-115569755D01*
X155722213Y-115652415D01*
X155732276Y-115654962D01*
X156118344Y-115769901D01*
X156128187Y-115773281D01*
X156503427Y-115919700D01*
X156512964Y-115923883D01*
X156853371Y-116090298D01*
X156874811Y-116100779D01*
X156883969Y-116105735D01*
X157229991Y-116311919D01*
X157238702Y-116317610D01*
X157387309Y-116423713D01*
X157566512Y-116551662D01*
X157574730Y-116558058D01*
X157882102Y-116818388D01*
X157889763Y-116825442D01*
X158174557Y-117110236D01*
X158181611Y-117117897D01*
X158441941Y-117425269D01*
X158448337Y-117433487D01*
X158682384Y-117761289D01*
X158688080Y-117770008D01*
X158894264Y-118116030D01*
X158899220Y-118125188D01*
X159076116Y-118487035D01*
X159080299Y-118496572D01*
X159226718Y-118871812D01*
X159230100Y-118881661D01*
X159345032Y-119267707D01*
X159347588Y-119277803D01*
X159430243Y-119672009D01*
X159431957Y-119682281D01*
X159481779Y-120081973D01*
X159482639Y-120092351D01*
X159499392Y-120497388D01*
X159499500Y-120502595D01*
X159499500Y-121412500D01*
X159479498Y-121480621D01*
X159425842Y-121527114D01*
X159373500Y-121538500D01*
X158894449Y-121538500D01*
X158661758Y-121571956D01*
X158436187Y-121638190D01*
X158222340Y-121735850D01*
X158024571Y-121862949D01*
X157846901Y-122016901D01*
X157692949Y-122194571D01*
X157565850Y-122392340D01*
X157468190Y-122606187D01*
X157401956Y-122831758D01*
X157368500Y-123064449D01*
X157368500Y-128125550D01*
X157401956Y-128358241D01*
X157468190Y-128583812D01*
X157565850Y-128797659D01*
X157692949Y-128995428D01*
X157846901Y-129173098D01*
X158024571Y-129327050D01*
X158220037Y-129452669D01*
X158222342Y-129454150D01*
X158436189Y-129551810D01*
X158661757Y-129618043D01*
X158894455Y-129651500D01*
X158946108Y-129651500D01*
X159373500Y-129651500D01*
X159441621Y-129671502D01*
X159488114Y-129725158D01*
X159499500Y-129777500D01*
X159499500Y-162904123D01*
X159479498Y-162972244D01*
X159425842Y-163018737D01*
X159355568Y-163028841D01*
X159290988Y-162999347D01*
X159261233Y-162961326D01*
X159175051Y-162792184D01*
X159050104Y-162620208D01*
X159050101Y-162620205D01*
X159050099Y-162620202D01*
X158899797Y-162469900D01*
X158899794Y-162469898D01*
X158899792Y-162469896D01*
X158727816Y-162344949D01*
X158538412Y-162248443D01*
X158336243Y-162182754D01*
X158126287Y-162149500D01*
X157913713Y-162149500D01*
X157703757Y-162182754D01*
X157703754Y-162182754D01*
X157703753Y-162182755D01*
X157501588Y-162248443D01*
X157501586Y-162248444D01*
X157312180Y-162344951D01*
X157140205Y-162469898D01*
X157140202Y-162469900D01*
X156989900Y-162620202D01*
X156989898Y-162620205D01*
X156864949Y-162792183D01*
X156862265Y-162797451D01*
X156813516Y-162849065D01*
X156744600Y-162866129D01*
X156677399Y-162843226D01*
X156637735Y-162797451D01*
X156635050Y-162792183D01*
X156635048Y-162792180D01*
X156510104Y-162620208D01*
X156510101Y-162620205D01*
X156510099Y-162620202D01*
X156359797Y-162469900D01*
X156359794Y-162469898D01*
X156359792Y-162469896D01*
X156187816Y-162344949D01*
X155998412Y-162248443D01*
X155796243Y-162182754D01*
X155586287Y-162149500D01*
X155373713Y-162149500D01*
X155163757Y-162182754D01*
X155163754Y-162182754D01*
X155163753Y-162182755D01*
X154961588Y-162248443D01*
X154961586Y-162248444D01*
X154772180Y-162344951D01*
X154600205Y-162469898D01*
X154600202Y-162469900D01*
X154449900Y-162620202D01*
X154449898Y-162620205D01*
X154324949Y-162792183D01*
X154322265Y-162797451D01*
X154273516Y-162849065D01*
X154204600Y-162866129D01*
X154137399Y-162843226D01*
X154097735Y-162797451D01*
X154095050Y-162792183D01*
X154095048Y-162792180D01*
X153970104Y-162620208D01*
X153970101Y-162620205D01*
X153970099Y-162620202D01*
X153819797Y-162469900D01*
X153819794Y-162469898D01*
X153819792Y-162469896D01*
X153647816Y-162344949D01*
X153458412Y-162248443D01*
X153256243Y-162182754D01*
X153046287Y-162149500D01*
X152833713Y-162149500D01*
X152623757Y-162182754D01*
X152623754Y-162182754D01*
X152623753Y-162182755D01*
X152421588Y-162248443D01*
X152421586Y-162248444D01*
X152232180Y-162344951D01*
X152060205Y-162469898D01*
X152060202Y-162469900D01*
X151909900Y-162620202D01*
X151909898Y-162620205D01*
X151784949Y-162792183D01*
X151782265Y-162797451D01*
X151733516Y-162849065D01*
X151664600Y-162866129D01*
X151597399Y-162843226D01*
X151557735Y-162797451D01*
X151555050Y-162792183D01*
X151555048Y-162792180D01*
X151430104Y-162620208D01*
X151430101Y-162620205D01*
X151430099Y-162620202D01*
X151279797Y-162469900D01*
X151279794Y-162469898D01*
X151279792Y-162469896D01*
X151107816Y-162344949D01*
X150918412Y-162248443D01*
X150716243Y-162182754D01*
X150506287Y-162149500D01*
X150293713Y-162149500D01*
X150083757Y-162182754D01*
X150083754Y-162182754D01*
X150083753Y-162182755D01*
X149881588Y-162248443D01*
X149881586Y-162248444D01*
X149692180Y-162344951D01*
X149520205Y-162469898D01*
X149520202Y-162469900D01*
X149369900Y-162620202D01*
X149369898Y-162620205D01*
X149244949Y-162792183D01*
X149242265Y-162797451D01*
X149193516Y-162849065D01*
X149124600Y-162866129D01*
X149057399Y-162843226D01*
X149017735Y-162797451D01*
X149015050Y-162792183D01*
X149015048Y-162792180D01*
X148890104Y-162620208D01*
X148890101Y-162620205D01*
X148890099Y-162620202D01*
X148739797Y-162469900D01*
X148739794Y-162469898D01*
X148739792Y-162469896D01*
X148567816Y-162344949D01*
X148378412Y-162248443D01*
X148176243Y-162182754D01*
X147966287Y-162149500D01*
X147753713Y-162149500D01*
X147543757Y-162182754D01*
X147543754Y-162182754D01*
X147543753Y-162182755D01*
X147341588Y-162248443D01*
X147341586Y-162248444D01*
X147152180Y-162344951D01*
X146980205Y-162469898D01*
X146980202Y-162469900D01*
X146829900Y-162620202D01*
X146829898Y-162620205D01*
X146704949Y-162792183D01*
X146702265Y-162797451D01*
X146653516Y-162849065D01*
X146584600Y-162866129D01*
X146517399Y-162843226D01*
X146477735Y-162797451D01*
X146475050Y-162792183D01*
X146475048Y-162792180D01*
X146350104Y-162620208D01*
X146350101Y-162620205D01*
X146350099Y-162620202D01*
X146199797Y-162469900D01*
X146199794Y-162469898D01*
X146199792Y-162469896D01*
X146027816Y-162344949D01*
X145838412Y-162248443D01*
X145636243Y-162182754D01*
X145426287Y-162149500D01*
X145213713Y-162149500D01*
X145003757Y-162182754D01*
X145003754Y-162182754D01*
X145003753Y-162182755D01*
X144801588Y-162248443D01*
X144801586Y-162248444D01*
X144612180Y-162344951D01*
X144440205Y-162469898D01*
X144440202Y-162469900D01*
X144289900Y-162620202D01*
X144289898Y-162620205D01*
X144164949Y-162792183D01*
X144162265Y-162797451D01*
X144113516Y-162849065D01*
X144044600Y-162866129D01*
X143977399Y-162843226D01*
X143937735Y-162797451D01*
X143935050Y-162792183D01*
X143935048Y-162792180D01*
X143810104Y-162620208D01*
X143810101Y-162620205D01*
X143810099Y-162620202D01*
X143659797Y-162469900D01*
X143659794Y-162469898D01*
X143659792Y-162469896D01*
X143487816Y-162344949D01*
X143298412Y-162248443D01*
X143096243Y-162182754D01*
X142886287Y-162149500D01*
X142673713Y-162149500D01*
X142463757Y-162182754D01*
X142463754Y-162182754D01*
X142463753Y-162182755D01*
X142261588Y-162248443D01*
X142261586Y-162248444D01*
X142072180Y-162344951D01*
X141900205Y-162469898D01*
X141900202Y-162469900D01*
X141749900Y-162620202D01*
X141749898Y-162620205D01*
X141624949Y-162792183D01*
X141622265Y-162797451D01*
X141573516Y-162849065D01*
X141504600Y-162866129D01*
X141437399Y-162843226D01*
X141397735Y-162797451D01*
X141395050Y-162792183D01*
X141395048Y-162792180D01*
X141270104Y-162620208D01*
X141270101Y-162620205D01*
X141270099Y-162620202D01*
X141119797Y-162469900D01*
X141119794Y-162469898D01*
X141119792Y-162469896D01*
X140947816Y-162344949D01*
X140758412Y-162248443D01*
X140556243Y-162182754D01*
X140346287Y-162149500D01*
X140133713Y-162149500D01*
X139923757Y-162182754D01*
X139923754Y-162182754D01*
X139923753Y-162182755D01*
X139721588Y-162248443D01*
X139721586Y-162248444D01*
X139532180Y-162344951D01*
X139360205Y-162469898D01*
X139360202Y-162469900D01*
X139209900Y-162620202D01*
X139209898Y-162620205D01*
X139084949Y-162792183D01*
X139082265Y-162797451D01*
X139033516Y-162849065D01*
X138964600Y-162866129D01*
X138897399Y-162843226D01*
X138857735Y-162797451D01*
X138855050Y-162792183D01*
X138855048Y-162792180D01*
X138730104Y-162620208D01*
X138730101Y-162620205D01*
X138730099Y-162620202D01*
X138579797Y-162469900D01*
X138579794Y-162469898D01*
X138579792Y-162469896D01*
X138407816Y-162344949D01*
X138218412Y-162248443D01*
X138016243Y-162182754D01*
X137806287Y-162149500D01*
X137593713Y-162149500D01*
X137383757Y-162182754D01*
X137383754Y-162182754D01*
X137383753Y-162182755D01*
X137181588Y-162248443D01*
X137181586Y-162248444D01*
X136992180Y-162344951D01*
X136820205Y-162469898D01*
X136820202Y-162469900D01*
X136669900Y-162620202D01*
X136669898Y-162620205D01*
X136544949Y-162792183D01*
X136542265Y-162797451D01*
X136493516Y-162849065D01*
X136424600Y-162866129D01*
X136357399Y-162843226D01*
X136317735Y-162797451D01*
X136315050Y-162792183D01*
X136315048Y-162792180D01*
X136190104Y-162620208D01*
X136190101Y-162620205D01*
X136190099Y-162620202D01*
X136039797Y-162469900D01*
X136039794Y-162469898D01*
X136039792Y-162469896D01*
X135867816Y-162344949D01*
X135678412Y-162248443D01*
X135476243Y-162182754D01*
X135266287Y-162149500D01*
X135053713Y-162149500D01*
X134843757Y-162182754D01*
X134843754Y-162182754D01*
X134843753Y-162182755D01*
X134641588Y-162248443D01*
X134641586Y-162248444D01*
X134452180Y-162344951D01*
X134280205Y-162469898D01*
X134280202Y-162469900D01*
X134129900Y-162620202D01*
X134129898Y-162620205D01*
X134004949Y-162792183D01*
X134002265Y-162797451D01*
X133953516Y-162849065D01*
X133884600Y-162866129D01*
X133817399Y-162843226D01*
X133777735Y-162797451D01*
X133775050Y-162792183D01*
X133775048Y-162792180D01*
X133650104Y-162620208D01*
X133650101Y-162620205D01*
X133650099Y-162620202D01*
X133499797Y-162469900D01*
X133499794Y-162469898D01*
X133499792Y-162469896D01*
X133327816Y-162344949D01*
X133138412Y-162248443D01*
X132936243Y-162182754D01*
X132726287Y-162149500D01*
X132513713Y-162149500D01*
X132303757Y-162182754D01*
X132303754Y-162182754D01*
X132303753Y-162182755D01*
X132101588Y-162248443D01*
X132101586Y-162248444D01*
X131912180Y-162344951D01*
X131740205Y-162469898D01*
X131740202Y-162469900D01*
X131589900Y-162620202D01*
X131589898Y-162620205D01*
X131464949Y-162792183D01*
X131462265Y-162797451D01*
X131413516Y-162849065D01*
X131344600Y-162866129D01*
X131277399Y-162843226D01*
X131237735Y-162797451D01*
X131235050Y-162792183D01*
X131235048Y-162792180D01*
X131110104Y-162620208D01*
X131110101Y-162620205D01*
X131110099Y-162620202D01*
X130959797Y-162469900D01*
X130959794Y-162469898D01*
X130959792Y-162469896D01*
X130787816Y-162344949D01*
X130598412Y-162248443D01*
X130396243Y-162182754D01*
X130186287Y-162149500D01*
X129973713Y-162149500D01*
X129763757Y-162182754D01*
X129763754Y-162182754D01*
X129763753Y-162182755D01*
X129561588Y-162248443D01*
X129561586Y-162248444D01*
X129372180Y-162344951D01*
X129200205Y-162469898D01*
X129200202Y-162469900D01*
X129049900Y-162620202D01*
X129049898Y-162620205D01*
X128924949Y-162792183D01*
X128922265Y-162797451D01*
X128873516Y-162849065D01*
X128804600Y-162866129D01*
X128737399Y-162843226D01*
X128697735Y-162797451D01*
X128695050Y-162792183D01*
X128695048Y-162792180D01*
X128570104Y-162620208D01*
X128570101Y-162620205D01*
X128570099Y-162620202D01*
X128419797Y-162469900D01*
X128419794Y-162469898D01*
X128419792Y-162469896D01*
X128247816Y-162344949D01*
X128058412Y-162248443D01*
X127856243Y-162182754D01*
X127646287Y-162149500D01*
X127433713Y-162149500D01*
X127223757Y-162182754D01*
X127223754Y-162182754D01*
X127223753Y-162182755D01*
X127021588Y-162248443D01*
X127021586Y-162248444D01*
X126832180Y-162344951D01*
X126660205Y-162469898D01*
X126660202Y-162469900D01*
X126509900Y-162620202D01*
X126509898Y-162620205D01*
X126384949Y-162792183D01*
X126382265Y-162797451D01*
X126333516Y-162849065D01*
X126264600Y-162866129D01*
X126197399Y-162843226D01*
X126157735Y-162797451D01*
X126155050Y-162792183D01*
X126155048Y-162792180D01*
X126030104Y-162620208D01*
X126030101Y-162620205D01*
X126030099Y-162620202D01*
X125879797Y-162469900D01*
X125879794Y-162469898D01*
X125879792Y-162469896D01*
X125707816Y-162344949D01*
X125518412Y-162248443D01*
X125316243Y-162182754D01*
X125106287Y-162149500D01*
X124893713Y-162149500D01*
X124726635Y-162175962D01*
X124656226Y-162166863D01*
X124617831Y-162140609D01*
X122186098Y-159708875D01*
X122186075Y-159708854D01*
X121468950Y-158991729D01*
X125156600Y-158991729D01*
X125156600Y-159157870D01*
X125177112Y-159260989D01*
X125189011Y-159320811D01*
X125252588Y-159474300D01*
X125314260Y-159566599D01*
X125344887Y-159612435D01*
X125344892Y-159612441D01*
X125462358Y-159729907D01*
X125462364Y-159729912D01*
X125600500Y-159822212D01*
X125753989Y-159885789D01*
X125916932Y-159918200D01*
X125916933Y-159918200D01*
X126083067Y-159918200D01*
X126083068Y-159918200D01*
X126246011Y-159885789D01*
X126399500Y-159822212D01*
X126537636Y-159729912D01*
X126655112Y-159612436D01*
X126747412Y-159474300D01*
X126810989Y-159320811D01*
X126841914Y-159165335D01*
X126874821Y-159102427D01*
X126876339Y-159100882D01*
X128377805Y-157599416D01*
X128440115Y-157565392D01*
X128510930Y-157570457D01*
X128567766Y-157613004D01*
X128590476Y-157663928D01*
X128593671Y-157679988D01*
X128593672Y-157679993D01*
X128657249Y-157833482D01*
X128706380Y-157907011D01*
X128749548Y-157971617D01*
X128749553Y-157971623D01*
X128867019Y-158089089D01*
X128867025Y-158089094D01*
X129005161Y-158181394D01*
X129158650Y-158244971D01*
X129220751Y-158257323D01*
X129271560Y-158279946D01*
X129278840Y-158285382D01*
X129305293Y-158311835D01*
X129387752Y-158366932D01*
X129418468Y-158387456D01*
X129544222Y-158439545D01*
X129677721Y-158466100D01*
X131792958Y-158466100D01*
X131926457Y-158439545D01*
X132052211Y-158387456D01*
X132060482Y-158381929D01*
X132060491Y-158381926D01*
X132060490Y-158381924D01*
X132142108Y-158327389D01*
X132165387Y-158311835D01*
X132619397Y-157857822D01*
X132681708Y-157823799D01*
X132683783Y-157823366D01*
X132746011Y-157810989D01*
X132899500Y-157747412D01*
X133037636Y-157655112D01*
X133155112Y-157537636D01*
X133247412Y-157399500D01*
X133310989Y-157246011D01*
X133343400Y-157083068D01*
X133343400Y-156916932D01*
X133310989Y-156753989D01*
X133247412Y-156600500D01*
X133155112Y-156462364D01*
X133155107Y-156462358D01*
X133037641Y-156344892D01*
X133037635Y-156344887D01*
X132991799Y-156314260D01*
X132899500Y-156252588D01*
X132746011Y-156189011D01*
X132583070Y-156156600D01*
X132583068Y-156156600D01*
X132416932Y-156156600D01*
X132416929Y-156156600D01*
X132253988Y-156189011D01*
X132253983Y-156189013D01*
X132100500Y-156252588D01*
X131962364Y-156344887D01*
X131962358Y-156344892D01*
X131844892Y-156462358D01*
X131844887Y-156462364D01*
X131752588Y-156600500D01*
X131692781Y-156744888D01*
X131689011Y-156753989D01*
X131679711Y-156800738D01*
X131676658Y-156816091D01*
X131667751Y-156833116D01*
X131663667Y-156851893D01*
X131644616Y-156877341D01*
X131643749Y-156879000D01*
X131642175Y-156880603D01*
X131475581Y-157047196D01*
X131413272Y-157081220D01*
X131386488Y-157084100D01*
X131003098Y-157084100D01*
X130934977Y-157064098D01*
X130888484Y-157010442D01*
X130878380Y-156940168D01*
X130879514Y-156933541D01*
X130898399Y-156838604D01*
X130898399Y-156672468D01*
X130865988Y-156509525D01*
X130802411Y-156356036D01*
X130710111Y-156217900D01*
X130710106Y-156217894D01*
X130592640Y-156100428D01*
X130592634Y-156100423D01*
X130546798Y-156069796D01*
X130454499Y-156008124D01*
X130301010Y-155944547D01*
X130300165Y-155944379D01*
X130138069Y-155912136D01*
X130138067Y-155912136D01*
X129971931Y-155912136D01*
X129971928Y-155912136D01*
X129881828Y-155930058D01*
X129809830Y-155944379D01*
X129785253Y-155946800D01*
X128294138Y-155946800D01*
X128160642Y-155973355D01*
X128160639Y-155973356D01*
X128034888Y-156025444D01*
X127921711Y-156101066D01*
X127921705Y-156101071D01*
X125780209Y-158242567D01*
X125739333Y-158269881D01*
X125600498Y-158327389D01*
X125462364Y-158419687D01*
X125462358Y-158419692D01*
X125344892Y-158537158D01*
X125344887Y-158537164D01*
X125252588Y-158675300D01*
X125189013Y-158828783D01*
X125189011Y-158828788D01*
X125156600Y-158991729D01*
X121468950Y-158991729D01*
X120347906Y-157870685D01*
X120313880Y-157808373D01*
X120313447Y-157806295D01*
X120301071Y-157744071D01*
X120237494Y-157590582D01*
X120145194Y-157452446D01*
X120145189Y-157452440D01*
X120027723Y-157334974D01*
X120027717Y-157334969D01*
X119946351Y-157280602D01*
X119889582Y-157242670D01*
X119736093Y-157179093D01*
X119573152Y-157146682D01*
X119573150Y-157146682D01*
X119407014Y-157146682D01*
X119407011Y-157146682D01*
X119244070Y-157179093D01*
X119244065Y-157179095D01*
X119090582Y-157242670D01*
X118952446Y-157334969D01*
X118952440Y-157334974D01*
X118834974Y-157452440D01*
X118834969Y-157452446D01*
X118742670Y-157590582D01*
X118679095Y-157744065D01*
X118679093Y-157744070D01*
X118646682Y-157907011D01*
X118646682Y-158073152D01*
X118668213Y-158181394D01*
X118679093Y-158236093D01*
X118742670Y-158389582D01*
X118793797Y-158466099D01*
X118834969Y-158527717D01*
X118834974Y-158527723D01*
X118952440Y-158645189D01*
X118952446Y-158645194D01*
X119090582Y-158737494D01*
X119244071Y-158801071D01*
X119306171Y-158813422D01*
X119369079Y-158846327D01*
X119370685Y-158847906D01*
X121208854Y-160686075D01*
X121208875Y-160686098D01*
X122457183Y-161934405D01*
X122491208Y-161996717D01*
X122486144Y-162067532D01*
X122443597Y-162124368D01*
X122377077Y-162149179D01*
X122368088Y-162149500D01*
X122353713Y-162149500D01*
X122143757Y-162182754D01*
X122143754Y-162182754D01*
X122143753Y-162182755D01*
X121941588Y-162248443D01*
X121941586Y-162248444D01*
X121752180Y-162344951D01*
X121580205Y-162469898D01*
X121580202Y-162469900D01*
X121429900Y-162620202D01*
X121429898Y-162620205D01*
X121304949Y-162792183D01*
X121302265Y-162797451D01*
X121253516Y-162849065D01*
X121184600Y-162866129D01*
X121117399Y-162843226D01*
X121077735Y-162797451D01*
X121075050Y-162792183D01*
X121075048Y-162792180D01*
X120950104Y-162620208D01*
X120950101Y-162620205D01*
X120950099Y-162620202D01*
X120799797Y-162469900D01*
X120799794Y-162469898D01*
X120799792Y-162469896D01*
X120627816Y-162344949D01*
X120438412Y-162248443D01*
X120236243Y-162182754D01*
X120026287Y-162149500D01*
X119813713Y-162149500D01*
X119603757Y-162182754D01*
X119603754Y-162182754D01*
X119603753Y-162182755D01*
X119401588Y-162248443D01*
X119401586Y-162248444D01*
X119212180Y-162344951D01*
X119040205Y-162469898D01*
X119040202Y-162469900D01*
X118889900Y-162620202D01*
X118889898Y-162620205D01*
X118764949Y-162792183D01*
X118762265Y-162797451D01*
X118713516Y-162849065D01*
X118644600Y-162866129D01*
X118577399Y-162843226D01*
X118537735Y-162797451D01*
X118535050Y-162792183D01*
X118535048Y-162792180D01*
X118410104Y-162620208D01*
X118410101Y-162620205D01*
X118410099Y-162620202D01*
X118259797Y-162469900D01*
X118259794Y-162469898D01*
X118259792Y-162469896D01*
X118087816Y-162344949D01*
X117898412Y-162248443D01*
X117696243Y-162182754D01*
X117486287Y-162149500D01*
X117273713Y-162149500D01*
X117063757Y-162182754D01*
X117063754Y-162182754D01*
X117063753Y-162182755D01*
X116861588Y-162248443D01*
X116861586Y-162248444D01*
X116672180Y-162344951D01*
X116500205Y-162469898D01*
X116500202Y-162469900D01*
X116349900Y-162620202D01*
X116349898Y-162620205D01*
X116224949Y-162792183D01*
X116222265Y-162797451D01*
X116173516Y-162849065D01*
X116104600Y-162866129D01*
X116037399Y-162843226D01*
X115997735Y-162797451D01*
X115995050Y-162792183D01*
X115995048Y-162792180D01*
X115870104Y-162620208D01*
X115870101Y-162620205D01*
X115870099Y-162620202D01*
X115719797Y-162469900D01*
X115719794Y-162469898D01*
X115719792Y-162469896D01*
X115547816Y-162344949D01*
X115358412Y-162248443D01*
X115156243Y-162182754D01*
X114946287Y-162149500D01*
X114733713Y-162149500D01*
X114523757Y-162182754D01*
X114523754Y-162182754D01*
X114523753Y-162182755D01*
X114321588Y-162248443D01*
X114321586Y-162248444D01*
X114132180Y-162344951D01*
X113960205Y-162469898D01*
X113960202Y-162469900D01*
X113809900Y-162620202D01*
X113809898Y-162620205D01*
X113684949Y-162792183D01*
X113682265Y-162797451D01*
X113633516Y-162849065D01*
X113564600Y-162866129D01*
X113497399Y-162843226D01*
X113457735Y-162797451D01*
X113455050Y-162792183D01*
X113455048Y-162792180D01*
X113330104Y-162620208D01*
X113330101Y-162620205D01*
X113330099Y-162620202D01*
X113179797Y-162469900D01*
X113179794Y-162469898D01*
X113179792Y-162469896D01*
X113007816Y-162344949D01*
X112818412Y-162248443D01*
X112616243Y-162182754D01*
X112406287Y-162149500D01*
X112193713Y-162149500D01*
X111983757Y-162182754D01*
X111983754Y-162182754D01*
X111983753Y-162182755D01*
X111781588Y-162248443D01*
X111781586Y-162248444D01*
X111592180Y-162344951D01*
X111420205Y-162469898D01*
X111420202Y-162469900D01*
X111269900Y-162620202D01*
X111269898Y-162620205D01*
X111144949Y-162792183D01*
X111142265Y-162797451D01*
X111093516Y-162849065D01*
X111024600Y-162866129D01*
X110957399Y-162843226D01*
X110917735Y-162797451D01*
X110915050Y-162792183D01*
X110915048Y-162792180D01*
X110790104Y-162620208D01*
X110790101Y-162620205D01*
X110790099Y-162620202D01*
X110639797Y-162469900D01*
X110639794Y-162469898D01*
X110639792Y-162469896D01*
X110467816Y-162344949D01*
X110278412Y-162248443D01*
X110076243Y-162182754D01*
X109866287Y-162149500D01*
X109653713Y-162149500D01*
X109443757Y-162182754D01*
X109443754Y-162182754D01*
X109443753Y-162182755D01*
X109241588Y-162248443D01*
X109241586Y-162248444D01*
X109052180Y-162344951D01*
X108880205Y-162469898D01*
X108880202Y-162469900D01*
X108729900Y-162620202D01*
X108729898Y-162620205D01*
X108604949Y-162792183D01*
X108602265Y-162797451D01*
X108553516Y-162849065D01*
X108484600Y-162866129D01*
X108417399Y-162843226D01*
X108377735Y-162797451D01*
X108375050Y-162792183D01*
X108375048Y-162792180D01*
X108250104Y-162620208D01*
X108250101Y-162620205D01*
X108250099Y-162620202D01*
X108099797Y-162469900D01*
X108099794Y-162469898D01*
X108099792Y-162469896D01*
X107927816Y-162344949D01*
X107738412Y-162248443D01*
X107536243Y-162182754D01*
X107326287Y-162149500D01*
X107113713Y-162149500D01*
X106903757Y-162182754D01*
X106903754Y-162182754D01*
X106903753Y-162182755D01*
X106701588Y-162248443D01*
X106701586Y-162248444D01*
X106512180Y-162344951D01*
X106340205Y-162469898D01*
X106340202Y-162469900D01*
X106189900Y-162620202D01*
X106189898Y-162620205D01*
X106064949Y-162792183D01*
X106062265Y-162797451D01*
X106013516Y-162849065D01*
X105944600Y-162866129D01*
X105877399Y-162843226D01*
X105837735Y-162797451D01*
X105835050Y-162792183D01*
X105835048Y-162792180D01*
X105710104Y-162620208D01*
X105710101Y-162620205D01*
X105710099Y-162620202D01*
X105598405Y-162508508D01*
X105564379Y-162446196D01*
X105561500Y-162419413D01*
X105561500Y-158237319D01*
X105581502Y-158169198D01*
X105598400Y-158148228D01*
X105684705Y-158061924D01*
X105781175Y-157917547D01*
X105847624Y-157757124D01*
X105881500Y-157586821D01*
X105881500Y-157413180D01*
X105847624Y-157242876D01*
X105781175Y-157082454D01*
X105684705Y-156938077D01*
X105684700Y-156938071D01*
X105561928Y-156815299D01*
X105561922Y-156815294D01*
X105470172Y-156753989D01*
X105417546Y-156718825D01*
X105257636Y-156652588D01*
X105257127Y-156652377D01*
X105257124Y-156652376D01*
X105086823Y-156618500D01*
X105086820Y-156618500D01*
X104913179Y-156618500D01*
X104913175Y-156618500D01*
X104742875Y-156652376D01*
X104742872Y-156652377D01*
X104582453Y-156718825D01*
X104438080Y-156815292D01*
X104438078Y-156815293D01*
X103995293Y-157258077D01*
X103898825Y-157402452D01*
X103842829Y-157537641D01*
X103832376Y-157562876D01*
X103815839Y-157646016D01*
X103802062Y-157715277D01*
X103802061Y-157715282D01*
X103798500Y-157733180D01*
X103798500Y-162419413D01*
X103778498Y-162487534D01*
X103761595Y-162508508D01*
X103649900Y-162620202D01*
X103649898Y-162620205D01*
X103524951Y-162792180D01*
X103428444Y-162981586D01*
X103428443Y-162981588D01*
X103416373Y-163018737D01*
X103362754Y-163183757D01*
X103329500Y-163393713D01*
X103329500Y-163606287D01*
X103362754Y-163816243D01*
X103428443Y-164018412D01*
X103467913Y-164095876D01*
X103524951Y-164207819D01*
X103591517Y-164299439D01*
X103615375Y-164366307D01*
X103599295Y-164435458D01*
X103548381Y-164484938D01*
X103489581Y-164499500D01*
X100790419Y-164499500D01*
X100722298Y-164479498D01*
X100675805Y-164425842D01*
X100665701Y-164355568D01*
X100688483Y-164299439D01*
X100755051Y-164207816D01*
X100851557Y-164018412D01*
X100917246Y-163816243D01*
X100950500Y-163606287D01*
X100950500Y-163393713D01*
X100917246Y-163183757D01*
X100851557Y-162981588D01*
X100755051Y-162792184D01*
X100630104Y-162620208D01*
X100630101Y-162620205D01*
X100630099Y-162620202D01*
X100479797Y-162469900D01*
X100479794Y-162469898D01*
X100479792Y-162469896D01*
X100307816Y-162344949D01*
X100118412Y-162248443D01*
X99916243Y-162182754D01*
X99706287Y-162149500D01*
X99493713Y-162149500D01*
X99283757Y-162182754D01*
X99283754Y-162182754D01*
X99283753Y-162182755D01*
X99081588Y-162248443D01*
X99081586Y-162248444D01*
X98892180Y-162344951D01*
X98720205Y-162469898D01*
X98720202Y-162469900D01*
X98569900Y-162620202D01*
X98569898Y-162620205D01*
X98444949Y-162792183D01*
X98442265Y-162797451D01*
X98393516Y-162849065D01*
X98324600Y-162866129D01*
X98257399Y-162843226D01*
X98217735Y-162797451D01*
X98215050Y-162792183D01*
X98215048Y-162792180D01*
X98090104Y-162620208D01*
X98090101Y-162620205D01*
X98090099Y-162620202D01*
X97939797Y-162469900D01*
X97939794Y-162469898D01*
X97939792Y-162469896D01*
X97767816Y-162344949D01*
X97578412Y-162248443D01*
X97376243Y-162182754D01*
X97166287Y-162149500D01*
X96953713Y-162149500D01*
X96743757Y-162182754D01*
X96743754Y-162182754D01*
X96743753Y-162182755D01*
X96541588Y-162248443D01*
X96541586Y-162248444D01*
X96352180Y-162344951D01*
X96180205Y-162469898D01*
X96180202Y-162469900D01*
X96029900Y-162620202D01*
X96029898Y-162620205D01*
X95904949Y-162792183D01*
X95902265Y-162797451D01*
X95853516Y-162849065D01*
X95784600Y-162866129D01*
X95717399Y-162843226D01*
X95677735Y-162797451D01*
X95675050Y-162792183D01*
X95675048Y-162792180D01*
X95550104Y-162620208D01*
X95550101Y-162620205D01*
X95550099Y-162620202D01*
X95399797Y-162469900D01*
X95399794Y-162469898D01*
X95399792Y-162469896D01*
X95227816Y-162344949D01*
X95038412Y-162248443D01*
X94836243Y-162182754D01*
X94626287Y-162149500D01*
X94413713Y-162149500D01*
X94203757Y-162182754D01*
X94203754Y-162182754D01*
X94203753Y-162182755D01*
X94001588Y-162248443D01*
X94001586Y-162248444D01*
X93812180Y-162344951D01*
X93640205Y-162469898D01*
X93640202Y-162469900D01*
X93489900Y-162620202D01*
X93489898Y-162620205D01*
X93364949Y-162792183D01*
X93362265Y-162797451D01*
X93313516Y-162849065D01*
X93244600Y-162866129D01*
X93177399Y-162843226D01*
X93137735Y-162797451D01*
X93135050Y-162792183D01*
X93135048Y-162792180D01*
X93010104Y-162620208D01*
X93010101Y-162620205D01*
X93010099Y-162620202D01*
X92859797Y-162469900D01*
X92859794Y-162469898D01*
X92859792Y-162469896D01*
X92687816Y-162344949D01*
X92498412Y-162248443D01*
X92296243Y-162182754D01*
X92086287Y-162149500D01*
X91873713Y-162149500D01*
X91663757Y-162182754D01*
X91663754Y-162182754D01*
X91663753Y-162182755D01*
X91461588Y-162248443D01*
X91461586Y-162248444D01*
X91272180Y-162344951D01*
X91100205Y-162469898D01*
X91100202Y-162469900D01*
X90949900Y-162620202D01*
X90949898Y-162620205D01*
X90824949Y-162792183D01*
X90822265Y-162797451D01*
X90773516Y-162849065D01*
X90704600Y-162866129D01*
X90637399Y-162843226D01*
X90597735Y-162797451D01*
X90595050Y-162792183D01*
X90595048Y-162792180D01*
X90470104Y-162620208D01*
X90470101Y-162620205D01*
X90470099Y-162620202D01*
X90319797Y-162469900D01*
X90319794Y-162469898D01*
X90319792Y-162469896D01*
X90147816Y-162344949D01*
X89958412Y-162248443D01*
X89756243Y-162182754D01*
X89546287Y-162149500D01*
X89333713Y-162149500D01*
X89123757Y-162182754D01*
X89123754Y-162182754D01*
X89123753Y-162182755D01*
X88921588Y-162248443D01*
X88921586Y-162248444D01*
X88732180Y-162344951D01*
X88560205Y-162469898D01*
X88560202Y-162469900D01*
X88409900Y-162620202D01*
X88409898Y-162620205D01*
X88284949Y-162792183D01*
X88282265Y-162797451D01*
X88233516Y-162849065D01*
X88164600Y-162866129D01*
X88097399Y-162843226D01*
X88057735Y-162797451D01*
X88055050Y-162792183D01*
X88055048Y-162792180D01*
X87930104Y-162620208D01*
X87930101Y-162620205D01*
X87930099Y-162620202D01*
X87779797Y-162469900D01*
X87779794Y-162469898D01*
X87779792Y-162469896D01*
X87607816Y-162344949D01*
X87418412Y-162248443D01*
X87216243Y-162182754D01*
X87006287Y-162149500D01*
X86793713Y-162149500D01*
X86583757Y-162182754D01*
X86583754Y-162182754D01*
X86583753Y-162182755D01*
X86381588Y-162248443D01*
X86381586Y-162248444D01*
X86192180Y-162344951D01*
X86020205Y-162469898D01*
X86020202Y-162469900D01*
X85869900Y-162620202D01*
X85869898Y-162620205D01*
X85744949Y-162792183D01*
X85742265Y-162797451D01*
X85693516Y-162849065D01*
X85624600Y-162866129D01*
X85557399Y-162843226D01*
X85517735Y-162797451D01*
X85515050Y-162792183D01*
X85515048Y-162792180D01*
X85390104Y-162620208D01*
X85390101Y-162620205D01*
X85390099Y-162620202D01*
X85239797Y-162469900D01*
X85239794Y-162469898D01*
X85239792Y-162469896D01*
X85067816Y-162344949D01*
X84878412Y-162248443D01*
X84676243Y-162182754D01*
X84466287Y-162149500D01*
X84253713Y-162149500D01*
X84043757Y-162182754D01*
X84043754Y-162182754D01*
X84043753Y-162182755D01*
X83841588Y-162248443D01*
X83841586Y-162248444D01*
X83652180Y-162344951D01*
X83480205Y-162469898D01*
X83480202Y-162469900D01*
X83329900Y-162620202D01*
X83329898Y-162620205D01*
X83204949Y-162792183D01*
X83202265Y-162797451D01*
X83153516Y-162849065D01*
X83084600Y-162866129D01*
X83017399Y-162843226D01*
X82977735Y-162797451D01*
X82975050Y-162792183D01*
X82975048Y-162792180D01*
X82850104Y-162620208D01*
X82850101Y-162620205D01*
X82850099Y-162620202D01*
X82699797Y-162469900D01*
X82699794Y-162469898D01*
X82699792Y-162469896D01*
X82527816Y-162344949D01*
X82338412Y-162248443D01*
X82136243Y-162182754D01*
X81926287Y-162149500D01*
X81713713Y-162149500D01*
X81503757Y-162182754D01*
X81503754Y-162182754D01*
X81503753Y-162182755D01*
X81301588Y-162248443D01*
X81301586Y-162248444D01*
X81112180Y-162344951D01*
X80940205Y-162469898D01*
X80940202Y-162469900D01*
X80789900Y-162620202D01*
X80789898Y-162620205D01*
X80664949Y-162792183D01*
X80662265Y-162797451D01*
X80613516Y-162849065D01*
X80544600Y-162866129D01*
X80477399Y-162843226D01*
X80437735Y-162797451D01*
X80435050Y-162792183D01*
X80435048Y-162792180D01*
X80310104Y-162620208D01*
X80310101Y-162620205D01*
X80310099Y-162620202D01*
X80159797Y-162469900D01*
X80159794Y-162469898D01*
X80159792Y-162469896D01*
X79987816Y-162344949D01*
X79798412Y-162248443D01*
X79596243Y-162182754D01*
X79386287Y-162149500D01*
X79173713Y-162149500D01*
X78963757Y-162182754D01*
X78963754Y-162182754D01*
X78963753Y-162182755D01*
X78761588Y-162248443D01*
X78761586Y-162248444D01*
X78572180Y-162344951D01*
X78400205Y-162469898D01*
X78400202Y-162469900D01*
X78249900Y-162620202D01*
X78249898Y-162620205D01*
X78124949Y-162792183D01*
X78122265Y-162797451D01*
X78073516Y-162849065D01*
X78004600Y-162866129D01*
X77937399Y-162843226D01*
X77897735Y-162797451D01*
X77895050Y-162792183D01*
X77895048Y-162792180D01*
X77770104Y-162620208D01*
X77770101Y-162620205D01*
X77770099Y-162620202D01*
X77619797Y-162469900D01*
X77619794Y-162469898D01*
X77619792Y-162469896D01*
X77447816Y-162344949D01*
X77258412Y-162248443D01*
X77056243Y-162182754D01*
X76846287Y-162149500D01*
X76633713Y-162149500D01*
X76423757Y-162182754D01*
X76423754Y-162182754D01*
X76423753Y-162182755D01*
X76221588Y-162248443D01*
X76221586Y-162248444D01*
X76032180Y-162344951D01*
X75860205Y-162469898D01*
X75860202Y-162469900D01*
X75709900Y-162620202D01*
X75709898Y-162620205D01*
X75584949Y-162792183D01*
X75582265Y-162797451D01*
X75533516Y-162849065D01*
X75464600Y-162866129D01*
X75397399Y-162843226D01*
X75357735Y-162797451D01*
X75355050Y-162792183D01*
X75355048Y-162792180D01*
X75230104Y-162620208D01*
X75230101Y-162620205D01*
X75230099Y-162620202D01*
X75079797Y-162469900D01*
X75079794Y-162469898D01*
X75079792Y-162469896D01*
X74907816Y-162344949D01*
X74718412Y-162248443D01*
X74516243Y-162182754D01*
X74306287Y-162149500D01*
X74093713Y-162149500D01*
X73883757Y-162182754D01*
X73883754Y-162182754D01*
X73883753Y-162182755D01*
X73681588Y-162248443D01*
X73681586Y-162248444D01*
X73492180Y-162344951D01*
X73320205Y-162469898D01*
X73320202Y-162469900D01*
X73169900Y-162620202D01*
X73169898Y-162620205D01*
X73044949Y-162792183D01*
X73042265Y-162797451D01*
X72993516Y-162849065D01*
X72924600Y-162866129D01*
X72857399Y-162843226D01*
X72817735Y-162797451D01*
X72815050Y-162792183D01*
X72815048Y-162792180D01*
X72690104Y-162620208D01*
X72690101Y-162620205D01*
X72690099Y-162620202D01*
X72539797Y-162469900D01*
X72539794Y-162469898D01*
X72539792Y-162469896D01*
X72367816Y-162344949D01*
X72178412Y-162248443D01*
X71976243Y-162182754D01*
X71766287Y-162149500D01*
X71553713Y-162149500D01*
X71343757Y-162182754D01*
X71343754Y-162182754D01*
X71343753Y-162182755D01*
X71141588Y-162248443D01*
X71141586Y-162248444D01*
X70952180Y-162344951D01*
X70780205Y-162469898D01*
X70780202Y-162469900D01*
X70629900Y-162620202D01*
X70629898Y-162620205D01*
X70504949Y-162792183D01*
X70502265Y-162797451D01*
X70453516Y-162849065D01*
X70384600Y-162866129D01*
X70317399Y-162843226D01*
X70277735Y-162797451D01*
X70275050Y-162792183D01*
X70275048Y-162792180D01*
X70150104Y-162620208D01*
X70150101Y-162620205D01*
X70150099Y-162620202D01*
X69999797Y-162469900D01*
X69999794Y-162469898D01*
X69999792Y-162469896D01*
X69827816Y-162344949D01*
X69638412Y-162248443D01*
X69436243Y-162182754D01*
X69226287Y-162149500D01*
X69013713Y-162149500D01*
X68803757Y-162182754D01*
X68803754Y-162182754D01*
X68803753Y-162182755D01*
X68601588Y-162248443D01*
X68601586Y-162248444D01*
X68412180Y-162344951D01*
X68240205Y-162469898D01*
X68240202Y-162469900D01*
X68089900Y-162620202D01*
X68089898Y-162620205D01*
X67964949Y-162792183D01*
X67962265Y-162797451D01*
X67913516Y-162849065D01*
X67844600Y-162866129D01*
X67777399Y-162843226D01*
X67737735Y-162797451D01*
X67735050Y-162792183D01*
X67735048Y-162792180D01*
X67610104Y-162620208D01*
X67610101Y-162620205D01*
X67610099Y-162620202D01*
X67459797Y-162469900D01*
X67459794Y-162469898D01*
X67459792Y-162469896D01*
X67287816Y-162344949D01*
X67098412Y-162248443D01*
X66896243Y-162182754D01*
X66686287Y-162149500D01*
X66473713Y-162149500D01*
X66263757Y-162182754D01*
X66263754Y-162182754D01*
X66263753Y-162182755D01*
X66061588Y-162248443D01*
X66061586Y-162248444D01*
X65872180Y-162344951D01*
X65700205Y-162469898D01*
X65700202Y-162469900D01*
X65549900Y-162620202D01*
X65549898Y-162620205D01*
X65424949Y-162792183D01*
X65422265Y-162797451D01*
X65373516Y-162849065D01*
X65304600Y-162866129D01*
X65237399Y-162843226D01*
X65197735Y-162797451D01*
X65195050Y-162792183D01*
X65195048Y-162792180D01*
X65070104Y-162620208D01*
X65070101Y-162620205D01*
X65070099Y-162620202D01*
X64919797Y-162469900D01*
X64919794Y-162469898D01*
X64919792Y-162469896D01*
X64747816Y-162344949D01*
X64558412Y-162248443D01*
X64356243Y-162182754D01*
X64146287Y-162149500D01*
X63933713Y-162149500D01*
X63723757Y-162182754D01*
X63723754Y-162182754D01*
X63723753Y-162182755D01*
X63521588Y-162248443D01*
X63521586Y-162248444D01*
X63332180Y-162344951D01*
X63160207Y-162469896D01*
X63048873Y-162581230D01*
X62986561Y-162615255D01*
X62915745Y-162610189D01*
X62858909Y-162567643D01*
X62841722Y-162536165D01*
X62793798Y-162407673D01*
X62793796Y-162407670D01*
X62793796Y-162407669D01*
X62746844Y-162344949D01*
X62707546Y-162292453D01*
X62630591Y-162234845D01*
X62592331Y-162206204D01*
X62592329Y-162206203D01*
X62592326Y-162206201D01*
X62457483Y-162155909D01*
X62457486Y-162155909D01*
X62397878Y-162149500D01*
X60626500Y-162149500D01*
X60558379Y-162129498D01*
X60511886Y-162075842D01*
X60500500Y-162023500D01*
X60500500Y-157316929D01*
X91660001Y-157316929D01*
X91660001Y-157483070D01*
X91691020Y-157639011D01*
X91692412Y-157646011D01*
X91755989Y-157799500D01*
X91785495Y-157843658D01*
X91848288Y-157937635D01*
X91848293Y-157937641D01*
X91965759Y-158055107D01*
X91965765Y-158055112D01*
X92103901Y-158147412D01*
X92257390Y-158210989D01*
X92319489Y-158223340D01*
X92382397Y-158256245D01*
X92383946Y-158257767D01*
X93112914Y-158986735D01*
X93192403Y-159039847D01*
X93226090Y-159062356D01*
X93351844Y-159114445D01*
X93485343Y-159141000D01*
X95277852Y-159141000D01*
X95345973Y-159161002D01*
X95347854Y-159162235D01*
X95400500Y-159197412D01*
X95553989Y-159260989D01*
X95716932Y-159293400D01*
X95716933Y-159293400D01*
X95883067Y-159293400D01*
X95883068Y-159293400D01*
X96046011Y-159260989D01*
X96199500Y-159197412D01*
X96337636Y-159105112D01*
X96455112Y-158987636D01*
X96547412Y-158849500D01*
X96610989Y-158696011D01*
X96643400Y-158533068D01*
X96643400Y-158366932D01*
X96610989Y-158203989D01*
X96547412Y-158050500D01*
X96455112Y-157912364D01*
X96455107Y-157912358D01*
X96337641Y-157794892D01*
X96337635Y-157794887D01*
X96281118Y-157757124D01*
X96199500Y-157702588D01*
X96046011Y-157639011D01*
X95883070Y-157606600D01*
X95883068Y-157606600D01*
X95716932Y-157606600D01*
X95716929Y-157606600D01*
X95553988Y-157639011D01*
X95553983Y-157639013D01*
X95400499Y-157702588D01*
X95347854Y-157737765D01*
X95280101Y-157758980D01*
X95277852Y-157759000D01*
X93891813Y-157759000D01*
X93823692Y-157738998D01*
X93802718Y-157722095D01*
X93361225Y-157280602D01*
X93327199Y-157218290D01*
X93326764Y-157216204D01*
X93314390Y-157153989D01*
X93250813Y-157000500D01*
X93158513Y-156862364D01*
X93158508Y-156862358D01*
X93041042Y-156744892D01*
X93041036Y-156744887D01*
X92995200Y-156714260D01*
X92902901Y-156652588D01*
X92749412Y-156589011D01*
X92586471Y-156556600D01*
X92586469Y-156556600D01*
X92420333Y-156556600D01*
X92420330Y-156556600D01*
X92257389Y-156589011D01*
X92257384Y-156589013D01*
X92103901Y-156652588D01*
X91965765Y-156744887D01*
X91965759Y-156744892D01*
X91848293Y-156862358D01*
X91848288Y-156862364D01*
X91755989Y-157000500D01*
X91692414Y-157153983D01*
X91692412Y-157153988D01*
X91660001Y-157316929D01*
X60500500Y-157316929D01*
X60500500Y-141353713D01*
X61109500Y-141353713D01*
X61109500Y-141566287D01*
X61142754Y-141776243D01*
X61208443Y-141978412D01*
X61304949Y-142167816D01*
X61429896Y-142339792D01*
X61429898Y-142339794D01*
X61429900Y-142339797D01*
X61580202Y-142490099D01*
X61580205Y-142490101D01*
X61580208Y-142490104D01*
X61752184Y-142615051D01*
X61755317Y-142616647D01*
X61757451Y-142617735D01*
X61809065Y-142666484D01*
X61826129Y-142735400D01*
X61803226Y-142802601D01*
X61757451Y-142842265D01*
X61752183Y-142844949D01*
X61580205Y-142969898D01*
X61580202Y-142969900D01*
X61429900Y-143120202D01*
X61429898Y-143120205D01*
X61304951Y-143292180D01*
X61208444Y-143481586D01*
X61208443Y-143481588D01*
X61151420Y-143657087D01*
X61142754Y-143683757D01*
X61109500Y-143893713D01*
X61109500Y-144106287D01*
X61142754Y-144316243D01*
X61208443Y-144518412D01*
X61304949Y-144707816D01*
X61429896Y-144879792D01*
X61429898Y-144879794D01*
X61429900Y-144879797D01*
X61580202Y-145030099D01*
X61580205Y-145030101D01*
X61580208Y-145030104D01*
X61752184Y-145155051D01*
X61755317Y-145156647D01*
X61757451Y-145157735D01*
X61809065Y-145206484D01*
X61826129Y-145275400D01*
X61803226Y-145342601D01*
X61757451Y-145382265D01*
X61752183Y-145384949D01*
X61580205Y-145509898D01*
X61580202Y-145509900D01*
X61429900Y-145660202D01*
X61429898Y-145660205D01*
X61304951Y-145832180D01*
X61304949Y-145832184D01*
X61208443Y-146021588D01*
X61142754Y-146223757D01*
X61109500Y-146433713D01*
X61109500Y-146646287D01*
X61142754Y-146856243D01*
X61208443Y-147058412D01*
X61304949Y-147247816D01*
X61429896Y-147419792D01*
X61429898Y-147419794D01*
X61429900Y-147419797D01*
X61580202Y-147570099D01*
X61580205Y-147570101D01*
X61580208Y-147570104D01*
X61752184Y-147695051D01*
X61755317Y-147696647D01*
X61757451Y-147697735D01*
X61809065Y-147746484D01*
X61826129Y-147815400D01*
X61803226Y-147882601D01*
X61757451Y-147922265D01*
X61752183Y-147924949D01*
X61580205Y-148049898D01*
X61580202Y-148049900D01*
X61429900Y-148200202D01*
X61429898Y-148200205D01*
X61304951Y-148372180D01*
X61208444Y-148561586D01*
X61208443Y-148561588D01*
X61184602Y-148634964D01*
X61142754Y-148763757D01*
X61109500Y-148973713D01*
X61109500Y-149186287D01*
X61142754Y-149396243D01*
X61208443Y-149598412D01*
X61304949Y-149787816D01*
X61429896Y-149959792D01*
X61429898Y-149959794D01*
X61429900Y-149959797D01*
X61580202Y-150110099D01*
X61580205Y-150110101D01*
X61580208Y-150110104D01*
X61752184Y-150235051D01*
X61755317Y-150236647D01*
X61757451Y-150237735D01*
X61809065Y-150286484D01*
X61826129Y-150355400D01*
X61803226Y-150422601D01*
X61757451Y-150462265D01*
X61752183Y-150464949D01*
X61580205Y-150589898D01*
X61580202Y-150589900D01*
X61429900Y-150740202D01*
X61429898Y-150740205D01*
X61304951Y-150912180D01*
X61208444Y-151101586D01*
X61208443Y-151101588D01*
X61147871Y-151288010D01*
X61142754Y-151303757D01*
X61109500Y-151513713D01*
X61109500Y-151726287D01*
X61142754Y-151936243D01*
X61208443Y-152138412D01*
X61304949Y-152327816D01*
X61429896Y-152499792D01*
X61429898Y-152499794D01*
X61429900Y-152499797D01*
X61580202Y-152650099D01*
X61580205Y-152650101D01*
X61580208Y-152650104D01*
X61752184Y-152775051D01*
X61753517Y-152775730D01*
X61757451Y-152777735D01*
X61809065Y-152826484D01*
X61826129Y-152895400D01*
X61803226Y-152962601D01*
X61757451Y-153002265D01*
X61752183Y-153004949D01*
X61580205Y-153129898D01*
X61580202Y-153129900D01*
X61429900Y-153280202D01*
X61429898Y-153280205D01*
X61304951Y-153452180D01*
X61208444Y-153641586D01*
X61208443Y-153641588D01*
X61159015Y-153793712D01*
X61142754Y-153843757D01*
X61109500Y-154053713D01*
X61109500Y-154266287D01*
X61142754Y-154476243D01*
X61208443Y-154678412D01*
X61304949Y-154867816D01*
X61429896Y-155039792D01*
X61429898Y-155039794D01*
X61429900Y-155039797D01*
X61580202Y-155190099D01*
X61580205Y-155190101D01*
X61580208Y-155190104D01*
X61752184Y-155315051D01*
X61941588Y-155411557D01*
X62143757Y-155477246D01*
X62353713Y-155510500D01*
X62353716Y-155510500D01*
X62566284Y-155510500D01*
X62566287Y-155510500D01*
X62776243Y-155477246D01*
X62978412Y-155411557D01*
X63167816Y-155315051D01*
X63339792Y-155190104D01*
X63451127Y-155078768D01*
X63513437Y-155044745D01*
X63584253Y-155049809D01*
X63641089Y-155092356D01*
X63658277Y-155123833D01*
X63706202Y-155252328D01*
X63706203Y-155252329D01*
X63792453Y-155367546D01*
X63850061Y-155410671D01*
X63907669Y-155453796D01*
X63907671Y-155453796D01*
X63907673Y-155453798D01*
X63968030Y-155476309D01*
X64042514Y-155504090D01*
X64042517Y-155504091D01*
X64102127Y-155510500D01*
X65897872Y-155510499D01*
X65957483Y-155504091D01*
X66092331Y-155453796D01*
X66207546Y-155367546D01*
X66293796Y-155252331D01*
X66344091Y-155117483D01*
X66350500Y-155057873D01*
X66350499Y-153262128D01*
X66344091Y-153202517D01*
X66316808Y-153129368D01*
X66293798Y-153067673D01*
X66293796Y-153067670D01*
X66293796Y-153067669D01*
X66229602Y-152981917D01*
X66207546Y-152952453D01*
X66116913Y-152884606D01*
X66092331Y-152866204D01*
X66092329Y-152866203D01*
X66092328Y-152866202D01*
X65963833Y-152818277D01*
X65906997Y-152775730D01*
X65882186Y-152709210D01*
X65897277Y-152639836D01*
X65918767Y-152611128D01*
X66030104Y-152499792D01*
X66155051Y-152327816D01*
X66251557Y-152138412D01*
X66317246Y-151936243D01*
X66350500Y-151726287D01*
X66350500Y-151513713D01*
X66335171Y-151416929D01*
X77056600Y-151416929D01*
X77056600Y-151416932D01*
X77056600Y-151583068D01*
X77089011Y-151746011D01*
X77152588Y-151899500D01*
X77177139Y-151936243D01*
X77244887Y-152037635D01*
X77244892Y-152037641D01*
X77362358Y-152155107D01*
X77362364Y-152155112D01*
X77500500Y-152247412D01*
X77653989Y-152310989D01*
X77816932Y-152343400D01*
X77816933Y-152343400D01*
X77983067Y-152343400D01*
X77983068Y-152343400D01*
X78146011Y-152310989D01*
X78299500Y-152247412D01*
X78352146Y-152212235D01*
X78419899Y-152191020D01*
X78422148Y-152191000D01*
X79783256Y-152191000D01*
X79851377Y-152211002D01*
X79872351Y-152227904D01*
X80320436Y-152675988D01*
X80354461Y-152738301D01*
X80354920Y-152740501D01*
X80357610Y-152754024D01*
X80367603Y-152804261D01*
X80431180Y-152957750D01*
X80489435Y-153044934D01*
X80523479Y-153095885D01*
X80523484Y-153095891D01*
X80640950Y-153213357D01*
X80640956Y-153213362D01*
X80779092Y-153305662D01*
X80932581Y-153369239D01*
X81095524Y-153401650D01*
X81095525Y-153401650D01*
X81261659Y-153401650D01*
X81261660Y-153401650D01*
X81424603Y-153369239D01*
X81578092Y-153305662D01*
X81716228Y-153213362D01*
X81754485Y-153175105D01*
X81762558Y-153170696D01*
X81768072Y-153163331D01*
X81793231Y-153153947D01*
X81816796Y-153141079D01*
X81825971Y-153141735D01*
X81834592Y-153138520D01*
X81860831Y-153144227D01*
X81887612Y-153146143D01*
X81896810Y-153152054D01*
X81903966Y-153153611D01*
X81932676Y-153175104D01*
X81945129Y-153187557D01*
X81979155Y-153249869D01*
X81979613Y-153301233D01*
X81956600Y-153416926D01*
X81956600Y-153583070D01*
X81958375Y-153591994D01*
X81989011Y-153746011D01*
X82052588Y-153899500D01*
X82114260Y-153991799D01*
X82144887Y-154037635D01*
X82144892Y-154037641D01*
X82262358Y-154155107D01*
X82262364Y-154155112D01*
X82400500Y-154247412D01*
X82553989Y-154310989D01*
X82716932Y-154343400D01*
X82716933Y-154343400D01*
X82883067Y-154343400D01*
X82883068Y-154343400D01*
X83046011Y-154310989D01*
X83199500Y-154247412D01*
X83337636Y-154155112D01*
X83455112Y-154037636D01*
X83547412Y-153899500D01*
X83610989Y-153746011D01*
X83643400Y-153583068D01*
X83643400Y-153416932D01*
X83610989Y-153253989D01*
X83547412Y-153100500D01*
X83510283Y-153044933D01*
X83491471Y-152999515D01*
X83482990Y-152956884D01*
X83464445Y-152863650D01*
X83412356Y-152737896D01*
X83353695Y-152650104D01*
X83336735Y-152624721D01*
X83336469Y-152624455D01*
X83332885Y-152619118D01*
X83323944Y-152590800D01*
X83312333Y-152563463D01*
X83313381Y-152557338D01*
X83311511Y-152551415D01*
X83319300Y-152522757D01*
X83324311Y-152493484D01*
X83328503Y-152488899D01*
X83330133Y-152482904D01*
X83352182Y-152463004D01*
X83372221Y-152441090D01*
X83378225Y-152439499D01*
X83382838Y-152435337D01*
X83412144Y-152430517D01*
X83440852Y-152422915D01*
X83446764Y-152424824D01*
X83452894Y-152423816D01*
X83480150Y-152435604D01*
X83508414Y-152444730D01*
X83516241Y-152451212D01*
X83518057Y-152451998D01*
X83520623Y-152454842D01*
X83526580Y-152459775D01*
X84550519Y-153483714D01*
X84584545Y-153546026D01*
X84587424Y-153572809D01*
X84587424Y-153583070D01*
X84589199Y-153591994D01*
X84619835Y-153746011D01*
X84683412Y-153899500D01*
X84745084Y-153991799D01*
X84775711Y-154037635D01*
X84775716Y-154037641D01*
X84893182Y-154155107D01*
X84893188Y-154155112D01*
X85031324Y-154247412D01*
X85184813Y-154310989D01*
X85347756Y-154343400D01*
X85347757Y-154343400D01*
X85513891Y-154343400D01*
X85513892Y-154343400D01*
X85676835Y-154310989D01*
X85830324Y-154247412D01*
X85968460Y-154155112D01*
X86085936Y-154037636D01*
X86178236Y-153899500D01*
X86241813Y-153746011D01*
X86274224Y-153583068D01*
X86274224Y-153416932D01*
X86241813Y-153253989D01*
X86178236Y-153100500D01*
X86099001Y-152981917D01*
X86077786Y-152914164D01*
X86096569Y-152845697D01*
X86149386Y-152798254D01*
X86219469Y-152786897D01*
X86284566Y-152815233D01*
X86292861Y-152822820D01*
X86997522Y-153527481D01*
X87031548Y-153589793D01*
X87032006Y-153591994D01*
X87041871Y-153641588D01*
X87062642Y-153746011D01*
X87126219Y-153899500D01*
X87187891Y-153991799D01*
X87218518Y-154037635D01*
X87218523Y-154037641D01*
X87335989Y-154155107D01*
X87335995Y-154155112D01*
X87474131Y-154247412D01*
X87627620Y-154310989D01*
X87790563Y-154343400D01*
X87790564Y-154343400D01*
X87956698Y-154343400D01*
X87956699Y-154343400D01*
X88119642Y-154310989D01*
X88273131Y-154247412D01*
X88411267Y-154155112D01*
X88528743Y-154037636D01*
X88621043Y-153899500D01*
X88684620Y-153746011D01*
X88717031Y-153583068D01*
X88717031Y-153416932D01*
X88684620Y-153253989D01*
X88621043Y-153100500D01*
X88528743Y-152962364D01*
X88528738Y-152962358D01*
X88411272Y-152844892D01*
X88411266Y-152844887D01*
X88350379Y-152804204D01*
X88273131Y-152752588D01*
X88195717Y-152720522D01*
X88132303Y-152694255D01*
X88091426Y-152666941D01*
X85784014Y-150359529D01*
X87056600Y-150359529D01*
X87056600Y-150525670D01*
X87089011Y-150688611D01*
X87089013Y-150688616D01*
X87098322Y-150711091D01*
X87152588Y-150842100D01*
X87154454Y-150844892D01*
X87244887Y-150980235D01*
X87244892Y-150980241D01*
X87362358Y-151097707D01*
X87362364Y-151097712D01*
X87500500Y-151190012D01*
X87653989Y-151253589D01*
X87653992Y-151253589D01*
X87659913Y-151255386D01*
X87659544Y-151256600D01*
X87716573Y-151286423D01*
X87718188Y-151288010D01*
X89595874Y-153165696D01*
X89629900Y-153228008D01*
X89630357Y-153230207D01*
X89642711Y-153292311D01*
X89706288Y-153445800D01*
X89756281Y-153520619D01*
X89798587Y-153583935D01*
X89798592Y-153583941D01*
X89916058Y-153701407D01*
X89916064Y-153701412D01*
X90054200Y-153793712D01*
X90207689Y-153857289D01*
X90370632Y-153889700D01*
X90370633Y-153889700D01*
X90536767Y-153889700D01*
X90536768Y-153889700D01*
X90699711Y-153857289D01*
X90853200Y-153793712D01*
X90991336Y-153701412D01*
X91108812Y-153583936D01*
X91201112Y-153445800D01*
X91264689Y-153292311D01*
X91297100Y-153129368D01*
X91297100Y-152963232D01*
X91264689Y-152800289D01*
X91201112Y-152646800D01*
X91108812Y-152508664D01*
X91108807Y-152508658D01*
X90991341Y-152391192D01*
X90991335Y-152391187D01*
X90945499Y-152360560D01*
X90853200Y-152298888D01*
X90699711Y-152235311D01*
X90637607Y-152222957D01*
X90574699Y-152190050D01*
X90573096Y-152188474D01*
X88770239Y-150385617D01*
X88736213Y-150323305D01*
X88735755Y-150321102D01*
X88728869Y-150286484D01*
X88710989Y-150196589D01*
X88647412Y-150043100D01*
X88555112Y-149904964D01*
X88555107Y-149904958D01*
X88437641Y-149787492D01*
X88437635Y-149787487D01*
X88391799Y-149756860D01*
X88299500Y-149695188D01*
X88146011Y-149631611D01*
X87983070Y-149599200D01*
X87983068Y-149599200D01*
X87816932Y-149599200D01*
X87816929Y-149599200D01*
X87653988Y-149631611D01*
X87653983Y-149631613D01*
X87500500Y-149695188D01*
X87362364Y-149787487D01*
X87362358Y-149787492D01*
X87244892Y-149904958D01*
X87244887Y-149904964D01*
X87152588Y-150043100D01*
X87089013Y-150196583D01*
X87089011Y-150196588D01*
X87056600Y-150359529D01*
X85784014Y-150359529D01*
X84653017Y-149228532D01*
X84618991Y-149166220D01*
X84616112Y-149139437D01*
X84616112Y-149068315D01*
X84616111Y-149068311D01*
X84583701Y-148905371D01*
X84520124Y-148751882D01*
X84427824Y-148613746D01*
X84427819Y-148613740D01*
X84310353Y-148496274D01*
X84310347Y-148496269D01*
X84209769Y-148429065D01*
X84172212Y-148403970D01*
X84018723Y-148340393D01*
X83970752Y-148330851D01*
X83855782Y-148307982D01*
X83855780Y-148307982D01*
X83689644Y-148307982D01*
X83689641Y-148307982D01*
X83526700Y-148340393D01*
X83526695Y-148340395D01*
X83373212Y-148403970D01*
X83235076Y-148496269D01*
X83235070Y-148496274D01*
X83117604Y-148613740D01*
X83117599Y-148613746D01*
X83025300Y-148751882D01*
X82961725Y-148905365D01*
X82961723Y-148905370D01*
X82929312Y-149068311D01*
X82929312Y-149068314D01*
X82929312Y-149234450D01*
X82961723Y-149397393D01*
X83025300Y-149550882D01*
X83079242Y-149631611D01*
X83117599Y-149689017D01*
X83117604Y-149689023D01*
X83235070Y-149806489D01*
X83235076Y-149806494D01*
X83349705Y-149883087D01*
X83368798Y-149898757D01*
X86108003Y-152637962D01*
X86117168Y-152654746D01*
X86130467Y-152668487D01*
X86133829Y-152685257D01*
X86142029Y-152700274D01*
X86140664Y-152719351D01*
X86144423Y-152738098D01*
X86138184Y-152754024D01*
X86136964Y-152771089D01*
X86125503Y-152786398D01*
X86118529Y-152804204D01*
X86104668Y-152814230D01*
X86094417Y-152827925D01*
X86076499Y-152834607D01*
X86061006Y-152845816D01*
X86043926Y-152846757D01*
X86027897Y-152852736D01*
X86009208Y-152848670D01*
X85990117Y-152849723D01*
X85966111Y-152839295D01*
X85958523Y-152837645D01*
X85956724Y-152836643D01*
X85952721Y-152834371D01*
X85830324Y-152752588D01*
X85749857Y-152719257D01*
X85743081Y-152715412D01*
X85736207Y-152708309D01*
X85716170Y-152694921D01*
X82582837Y-149561588D01*
X82548811Y-149499276D01*
X82553876Y-149428461D01*
X82555525Y-149424271D01*
X82557870Y-149418611D01*
X82590281Y-149255668D01*
X82590281Y-149089532D01*
X82557870Y-148926589D01*
X82494293Y-148773100D01*
X82401993Y-148634964D01*
X82401988Y-148634958D01*
X82284522Y-148517492D01*
X82284516Y-148517487D01*
X82177721Y-148446129D01*
X82146381Y-148425188D01*
X82018408Y-148372180D01*
X81992895Y-148361612D01*
X81992886Y-148361609D01*
X81939670Y-148351023D01*
X81876761Y-148318115D01*
X81841631Y-148256419D01*
X81838254Y-148227445D01*
X81838254Y-148198107D01*
X81838253Y-148198103D01*
X81808774Y-148049900D01*
X81805843Y-148035163D01*
X81742266Y-147881674D01*
X81649966Y-147743538D01*
X81649961Y-147743532D01*
X81532495Y-147626066D01*
X81532489Y-147626061D01*
X81448743Y-147570104D01*
X81394354Y-147533762D01*
X81240865Y-147470185D01*
X81077924Y-147437774D01*
X81077922Y-147437774D01*
X80911786Y-147437774D01*
X80911783Y-147437774D01*
X80748842Y-147470185D01*
X80748837Y-147470187D01*
X80595354Y-147533762D01*
X80457218Y-147626061D01*
X80457212Y-147626066D01*
X80339746Y-147743532D01*
X80339741Y-147743538D01*
X80247442Y-147881674D01*
X80183867Y-148035157D01*
X80183865Y-148035162D01*
X80151454Y-148198103D01*
X80151454Y-148326573D01*
X80149033Y-148351155D01*
X80144866Y-148372101D01*
X80144866Y-150683000D01*
X80124864Y-150751121D01*
X80071208Y-150797614D01*
X80018866Y-150809000D01*
X78422148Y-150809000D01*
X78354027Y-150788998D01*
X78352146Y-150787765D01*
X78299500Y-150752588D01*
X78146016Y-150689013D01*
X78146011Y-150689011D01*
X77983070Y-150656600D01*
X77983068Y-150656600D01*
X77816932Y-150656600D01*
X77816929Y-150656600D01*
X77653988Y-150689011D01*
X77653983Y-150689013D01*
X77500500Y-150752588D01*
X77362364Y-150844887D01*
X77362358Y-150844892D01*
X77244892Y-150962358D01*
X77244887Y-150962364D01*
X77152588Y-151100500D01*
X77089013Y-151253983D01*
X77089011Y-151253988D01*
X77056600Y-151416929D01*
X66335171Y-151416929D01*
X66317246Y-151303757D01*
X66251557Y-151101588D01*
X66155051Y-150912184D01*
X66030104Y-150740208D01*
X66030101Y-150740205D01*
X66030099Y-150740202D01*
X65879797Y-150589900D01*
X65879794Y-150589898D01*
X65879792Y-150589896D01*
X65707816Y-150464949D01*
X65702551Y-150462266D01*
X65650937Y-150413520D01*
X65633870Y-150344606D01*
X65656770Y-150277404D01*
X65702551Y-150237733D01*
X65707816Y-150235051D01*
X65879792Y-150110104D01*
X66030104Y-149959792D01*
X66155051Y-149787816D01*
X66251557Y-149598412D01*
X66317246Y-149396243D01*
X66350500Y-149186287D01*
X66350500Y-148973713D01*
X66317246Y-148763757D01*
X66251557Y-148561588D01*
X66155051Y-148372184D01*
X66030104Y-148200208D01*
X66030101Y-148200205D01*
X66030099Y-148200202D01*
X65879797Y-148049900D01*
X65879794Y-148049898D01*
X65879792Y-148049896D01*
X65707816Y-147924949D01*
X65702551Y-147922266D01*
X65650937Y-147873520D01*
X65633870Y-147804606D01*
X65656770Y-147737404D01*
X65702551Y-147697733D01*
X65707816Y-147695051D01*
X65879792Y-147570104D01*
X66030104Y-147419792D01*
X66155051Y-147247816D01*
X66251557Y-147058412D01*
X66317246Y-146856243D01*
X66350500Y-146646287D01*
X66350500Y-146433713D01*
X66317246Y-146223757D01*
X66251557Y-146021588D01*
X66155051Y-145832184D01*
X66030104Y-145660208D01*
X66030101Y-145660205D01*
X66030099Y-145660202D01*
X65879797Y-145509900D01*
X65879794Y-145509898D01*
X65879792Y-145509896D01*
X65707816Y-145384949D01*
X65702551Y-145382266D01*
X65650937Y-145333520D01*
X65633870Y-145264606D01*
X65656770Y-145197404D01*
X65702551Y-145157733D01*
X65707816Y-145155051D01*
X65879792Y-145030104D01*
X66030104Y-144879792D01*
X66155051Y-144707816D01*
X66251557Y-144518412D01*
X66317246Y-144316243D01*
X66350500Y-144106287D01*
X66350500Y-143893713D01*
X66317246Y-143683757D01*
X66251557Y-143481588D01*
X66155051Y-143292184D01*
X66030104Y-143120208D01*
X66030101Y-143120205D01*
X66030099Y-143120202D01*
X65879797Y-142969900D01*
X65879794Y-142969898D01*
X65879792Y-142969896D01*
X65707816Y-142844949D01*
X65702551Y-142842266D01*
X65697323Y-142837329D01*
X65690447Y-142835226D01*
X65671852Y-142813273D01*
X65650937Y-142793520D01*
X65649208Y-142786539D01*
X65644560Y-142781052D01*
X65640785Y-142752530D01*
X65633870Y-142724606D01*
X65636189Y-142717799D01*
X65636074Y-142716929D01*
X94956600Y-142716929D01*
X94956600Y-142716932D01*
X94956600Y-142883068D01*
X94989011Y-143046011D01*
X95052588Y-143199500D01*
X95114260Y-143291799D01*
X95144887Y-143337635D01*
X95144892Y-143337641D01*
X95262358Y-143455107D01*
X95262364Y-143455112D01*
X95400500Y-143547412D01*
X95553989Y-143610989D01*
X95716932Y-143643400D01*
X95716933Y-143643400D01*
X95883067Y-143643400D01*
X95883068Y-143643400D01*
X96046011Y-143610989D01*
X96199500Y-143547412D01*
X96252146Y-143512235D01*
X96319899Y-143491020D01*
X96322148Y-143491000D01*
X107861588Y-143491000D01*
X107929709Y-143511002D01*
X107950683Y-143527905D01*
X109742173Y-145319395D01*
X109776199Y-145381707D01*
X109776656Y-145383906D01*
X109789009Y-145446005D01*
X109789011Y-145446011D01*
X109852588Y-145599500D01*
X109893148Y-145660202D01*
X109944887Y-145737635D01*
X109944892Y-145737641D01*
X110062358Y-145855107D01*
X110062364Y-145855112D01*
X110200500Y-145947412D01*
X110353989Y-146010989D01*
X110516932Y-146043400D01*
X110516933Y-146043400D01*
X110683067Y-146043400D01*
X110683068Y-146043400D01*
X110846011Y-146010989D01*
X110999500Y-145947412D01*
X111137636Y-145855112D01*
X111255112Y-145737636D01*
X111347412Y-145599500D01*
X111410989Y-145446011D01*
X111443400Y-145283068D01*
X111443400Y-145116932D01*
X111410989Y-144953989D01*
X111347412Y-144800500D01*
X111255112Y-144662364D01*
X111255107Y-144662358D01*
X111137641Y-144544892D01*
X111137635Y-144544887D01*
X111051852Y-144487569D01*
X110999500Y-144452588D01*
X110902710Y-144412496D01*
X110846014Y-144389012D01*
X110846005Y-144389009D01*
X110783906Y-144376656D01*
X110720997Y-144343748D01*
X110719395Y-144342173D01*
X109477060Y-143099837D01*
X109394152Y-143016929D01*
X118356600Y-143016929D01*
X118356600Y-143183070D01*
X118389011Y-143346011D01*
X118389013Y-143346016D01*
X118452586Y-143499497D01*
X118452587Y-143499499D01*
X118452588Y-143499500D01*
X118487766Y-143552147D01*
X118508980Y-143619897D01*
X118509000Y-143622147D01*
X118509000Y-143759229D01*
X118534513Y-143887493D01*
X118534516Y-143887502D01*
X118535554Y-143892727D01*
X118587644Y-144018482D01*
X118663266Y-144131659D01*
X118663271Y-144131665D01*
X119472836Y-144941230D01*
X119472840Y-144941233D01*
X119472841Y-144941234D01*
X119561540Y-145000500D01*
X119586017Y-145016855D01*
X119711771Y-145068944D01*
X119756997Y-145077939D01*
X119802415Y-145096752D01*
X119884965Y-145151911D01*
X120038454Y-145215488D01*
X120201397Y-145247899D01*
X120201398Y-145247899D01*
X120367532Y-145247899D01*
X120367533Y-145247899D01*
X120530476Y-145215488D01*
X120683965Y-145151911D01*
X120822101Y-145059611D01*
X120939577Y-144942135D01*
X121031877Y-144803999D01*
X121095454Y-144650510D01*
X121127865Y-144487567D01*
X121127865Y-144321431D01*
X121095454Y-144158488D01*
X121031877Y-144004999D01*
X120939577Y-143866863D01*
X120939572Y-143866857D01*
X120822106Y-143749391D01*
X120822100Y-143749386D01*
X120723873Y-143683753D01*
X120683965Y-143657087D01*
X120530476Y-143593510D01*
X120367535Y-143561099D01*
X120367533Y-143561099D01*
X120201397Y-143561099D01*
X120201395Y-143561099D01*
X120201387Y-143561100D01*
X120138791Y-143573550D01*
X120130758Y-143572831D01*
X120123201Y-143575650D01*
X120095900Y-143569711D01*
X120068077Y-143567221D01*
X120059941Y-143561889D01*
X120053827Y-143560559D01*
X120025117Y-143539066D01*
X120018114Y-143532063D01*
X119984088Y-143469751D01*
X119989153Y-143398936D01*
X119990801Y-143394748D01*
X120010987Y-143346016D01*
X120010987Y-143346015D01*
X120010989Y-143346011D01*
X120043400Y-143183068D01*
X120043400Y-143016932D01*
X120010989Y-142853989D01*
X119947412Y-142700500D01*
X119855112Y-142562364D01*
X119855107Y-142562358D01*
X119737641Y-142444892D01*
X119737635Y-142444887D01*
X119671205Y-142400500D01*
X119599500Y-142352588D01*
X119446011Y-142289011D01*
X119283070Y-142256600D01*
X119283068Y-142256600D01*
X119116932Y-142256600D01*
X119116929Y-142256600D01*
X118953988Y-142289011D01*
X118953983Y-142289013D01*
X118800500Y-142352588D01*
X118662364Y-142444887D01*
X118662358Y-142444892D01*
X118544892Y-142562358D01*
X118544887Y-142562364D01*
X118452588Y-142700500D01*
X118389013Y-142853983D01*
X118389011Y-142853988D01*
X118356600Y-143016929D01*
X109394152Y-143016929D01*
X108640494Y-142263271D01*
X108640488Y-142263266D01*
X108639138Y-142262364D01*
X108527311Y-142187644D01*
X108424089Y-142144888D01*
X108401560Y-142135556D01*
X108401557Y-142135555D01*
X108268061Y-142109000D01*
X108268058Y-142109000D01*
X96322148Y-142109000D01*
X96254027Y-142088998D01*
X96252146Y-142087765D01*
X96199500Y-142052588D01*
X96046016Y-141989013D01*
X96046011Y-141989011D01*
X95883070Y-141956600D01*
X95883068Y-141956600D01*
X95716932Y-141956600D01*
X95716929Y-141956600D01*
X95553988Y-141989011D01*
X95553983Y-141989013D01*
X95400500Y-142052588D01*
X95262364Y-142144887D01*
X95262358Y-142144892D01*
X95144892Y-142262358D01*
X95144887Y-142262364D01*
X95052588Y-142400500D01*
X94989013Y-142553983D01*
X94989011Y-142553988D01*
X94956600Y-142716929D01*
X65636074Y-142716929D01*
X65635246Y-142710669D01*
X65647491Y-142684633D01*
X65656770Y-142657404D01*
X65663132Y-142651375D01*
X65665462Y-142646424D01*
X65681258Y-142634204D01*
X65692828Y-142623244D01*
X65697565Y-142620274D01*
X65707816Y-142615051D01*
X65879792Y-142490104D01*
X66030104Y-142339792D01*
X66155051Y-142167816D01*
X66251557Y-141978412D01*
X66317246Y-141776243D01*
X66350500Y-141566287D01*
X66350500Y-141353713D01*
X66317246Y-141143757D01*
X66251557Y-140941588D01*
X66155051Y-140752184D01*
X66030104Y-140580208D01*
X66030101Y-140580205D01*
X66030099Y-140580202D01*
X65879797Y-140429900D01*
X65879794Y-140429898D01*
X65879792Y-140429896D01*
X65707816Y-140304949D01*
X65518412Y-140208443D01*
X65316243Y-140142754D01*
X65106287Y-140109500D01*
X64893713Y-140109500D01*
X64683757Y-140142754D01*
X64683754Y-140142754D01*
X64683753Y-140142755D01*
X64481588Y-140208443D01*
X64481586Y-140208444D01*
X64292180Y-140304951D01*
X64120205Y-140429898D01*
X64120202Y-140429900D01*
X63969900Y-140580202D01*
X63969898Y-140580205D01*
X63844949Y-140752183D01*
X63842265Y-140757451D01*
X63793516Y-140809065D01*
X63724600Y-140826129D01*
X63657399Y-140803226D01*
X63617735Y-140757451D01*
X63615050Y-140752183D01*
X63615048Y-140752180D01*
X63490104Y-140580208D01*
X63490101Y-140580205D01*
X63490099Y-140580202D01*
X63339797Y-140429900D01*
X63339794Y-140429898D01*
X63339792Y-140429896D01*
X63167816Y-140304949D01*
X62978412Y-140208443D01*
X62776243Y-140142754D01*
X62566287Y-140109500D01*
X62353713Y-140109500D01*
X62143757Y-140142754D01*
X62143754Y-140142754D01*
X62143753Y-140142755D01*
X61941588Y-140208443D01*
X61941586Y-140208444D01*
X61752180Y-140304951D01*
X61580205Y-140429898D01*
X61580202Y-140429900D01*
X61429900Y-140580202D01*
X61429898Y-140580205D01*
X61304951Y-140752180D01*
X61304949Y-140752184D01*
X61208443Y-140941588D01*
X61142754Y-141143757D01*
X61109500Y-141353713D01*
X60500500Y-141353713D01*
X60500500Y-131760709D01*
X63181500Y-131760709D01*
X63181500Y-132003290D01*
X63213160Y-132243782D01*
X63275944Y-132478095D01*
X63275945Y-132478097D01*
X63275946Y-132478100D01*
X63368776Y-132702212D01*
X63368777Y-132702213D01*
X63368782Y-132702224D01*
X63490061Y-132912285D01*
X63490063Y-132912288D01*
X63490064Y-132912289D01*
X63637735Y-133104738D01*
X63637739Y-133104742D01*
X63637744Y-133104748D01*
X63809251Y-133276255D01*
X63809256Y-133276259D01*
X63809262Y-133276265D01*
X64001711Y-133423936D01*
X64001714Y-133423938D01*
X64211775Y-133545217D01*
X64211779Y-133545218D01*
X64211788Y-133545224D01*
X64435900Y-133638054D01*
X64670211Y-133700838D01*
X64670215Y-133700838D01*
X64670217Y-133700839D01*
X64732202Y-133708999D01*
X64910712Y-133732500D01*
X64910719Y-133732500D01*
X65153281Y-133732500D01*
X65153288Y-133732500D01*
X65370637Y-133703885D01*
X65393782Y-133700839D01*
X65393782Y-133700838D01*
X65393789Y-133700838D01*
X65628100Y-133638054D01*
X65852212Y-133545224D01*
X66062289Y-133423936D01*
X66254738Y-133276265D01*
X66426265Y-133104738D01*
X66573936Y-132912289D01*
X66695224Y-132702212D01*
X66788054Y-132478100D01*
X66850838Y-132243789D01*
X66882500Y-132003288D01*
X66882500Y-131760712D01*
X66853822Y-131542878D01*
X66850839Y-131520217D01*
X66850838Y-131520215D01*
X66850838Y-131520211D01*
X66788054Y-131285900D01*
X66695224Y-131061788D01*
X66695218Y-131061779D01*
X66695217Y-131061775D01*
X66573938Y-130851714D01*
X66567317Y-130843085D01*
X66426265Y-130659262D01*
X66426259Y-130659256D01*
X66426255Y-130659251D01*
X66254748Y-130487744D01*
X66254742Y-130487739D01*
X66254738Y-130487735D01*
X66062289Y-130340064D01*
X66062288Y-130340063D01*
X66062285Y-130340061D01*
X65852224Y-130218782D01*
X65852216Y-130218778D01*
X65852212Y-130218776D01*
X65628100Y-130125946D01*
X65628097Y-130125945D01*
X65628095Y-130125944D01*
X65393782Y-130063160D01*
X65153290Y-130031500D01*
X65153288Y-130031500D01*
X64910712Y-130031500D01*
X64910709Y-130031500D01*
X64670217Y-130063160D01*
X64435904Y-130125944D01*
X64435900Y-130125946D01*
X64276101Y-130192137D01*
X64211786Y-130218777D01*
X64211775Y-130218782D01*
X64001714Y-130340061D01*
X63809262Y-130487735D01*
X63809251Y-130487744D01*
X63637744Y-130659251D01*
X63637735Y-130659262D01*
X63490061Y-130851714D01*
X63368782Y-131061775D01*
X63368777Y-131061786D01*
X63275946Y-131285900D01*
X63275944Y-131285904D01*
X63213160Y-131520217D01*
X63181500Y-131760709D01*
X60500500Y-131760709D01*
X60500500Y-130259504D01*
X60520502Y-130191383D01*
X60537405Y-130170409D01*
X63560693Y-127147121D01*
X146818500Y-127147121D01*
X146818500Y-129042864D01*
X146818502Y-129042885D01*
X146824908Y-129102480D01*
X146824908Y-129102481D01*
X146875203Y-129237330D01*
X146899278Y-129269491D01*
X146924089Y-129336011D01*
X146908998Y-129405385D01*
X146899278Y-129420509D01*
X146875203Y-129452669D01*
X146824909Y-129587515D01*
X146818500Y-129647121D01*
X146818500Y-131542864D01*
X146818502Y-131542885D01*
X146824908Y-131602480D01*
X146824908Y-131602481D01*
X146875201Y-131737326D01*
X146875203Y-131737329D01*
X146961453Y-131852546D01*
X147019061Y-131895671D01*
X147076669Y-131938796D01*
X147076671Y-131938796D01*
X147076673Y-131938798D01*
X147137030Y-131961309D01*
X147211514Y-131989090D01*
X147211517Y-131989091D01*
X147271127Y-131995500D01*
X149866872Y-131995499D01*
X149926483Y-131989091D01*
X150061331Y-131938796D01*
X150176546Y-131852546D01*
X150262796Y-131737331D01*
X150313091Y-131602483D01*
X150319500Y-131542873D01*
X150319499Y-130511230D01*
X152718500Y-130511230D01*
X152718500Y-130678769D01*
X152751185Y-130843085D01*
X152769964Y-130888420D01*
X152815297Y-130997863D01*
X152861835Y-131067512D01*
X152908373Y-131137161D01*
X152908378Y-131137167D01*
X153026832Y-131255621D01*
X153026838Y-131255626D01*
X153166137Y-131348703D01*
X153320918Y-131412816D01*
X153485233Y-131445500D01*
X153485234Y-131445500D01*
X153652766Y-131445500D01*
X153652767Y-131445500D01*
X153817082Y-131412816D01*
X153971863Y-131348703D01*
X154111162Y-131255626D01*
X154229626Y-131137162D01*
X154322703Y-130997863D01*
X154386816Y-130843082D01*
X154419500Y-130678767D01*
X154419500Y-130511233D01*
X154419499Y-130511230D01*
X155218500Y-130511230D01*
X155218500Y-130678769D01*
X155251185Y-130843085D01*
X155269964Y-130888420D01*
X155315297Y-130997863D01*
X155361835Y-131067512D01*
X155408373Y-131137161D01*
X155408378Y-131137167D01*
X155526832Y-131255621D01*
X155526838Y-131255626D01*
X155666137Y-131348703D01*
X155820918Y-131412816D01*
X155985233Y-131445500D01*
X155985234Y-131445500D01*
X156152766Y-131445500D01*
X156152767Y-131445500D01*
X156317082Y-131412816D01*
X156471863Y-131348703D01*
X156611162Y-131255626D01*
X156729626Y-131137162D01*
X156822703Y-130997863D01*
X156886816Y-130843082D01*
X156919500Y-130678767D01*
X156919500Y-130511233D01*
X156886816Y-130346918D01*
X156822703Y-130192137D01*
X156729626Y-130052838D01*
X156729621Y-130052832D01*
X156611167Y-129934378D01*
X156611161Y-129934373D01*
X156471864Y-129841298D01*
X156471865Y-129841298D01*
X156471863Y-129841297D01*
X156317845Y-129777500D01*
X156317085Y-129777185D01*
X156317083Y-129777184D01*
X156317082Y-129777184D01*
X156234368Y-129760731D01*
X156152769Y-129744500D01*
X156152767Y-129744500D01*
X155985233Y-129744500D01*
X155985230Y-129744500D01*
X155862830Y-129768847D01*
X155820918Y-129777184D01*
X155820917Y-129777184D01*
X155820914Y-129777185D01*
X155666135Y-129841298D01*
X155526838Y-129934373D01*
X155526832Y-129934378D01*
X155408378Y-130052832D01*
X155408373Y-130052838D01*
X155315298Y-130192135D01*
X155315297Y-130192137D01*
X155304263Y-130218776D01*
X155251185Y-130346914D01*
X155218500Y-130511230D01*
X154419499Y-130511230D01*
X154386816Y-130346918D01*
X154322703Y-130192137D01*
X154229626Y-130052838D01*
X154229621Y-130052832D01*
X154111167Y-129934378D01*
X154111161Y-129934373D01*
X153971864Y-129841298D01*
X153971865Y-129841298D01*
X153971863Y-129841297D01*
X153817845Y-129777500D01*
X153817085Y-129777185D01*
X153817083Y-129777184D01*
X153817082Y-129777184D01*
X153734368Y-129760731D01*
X153652769Y-129744500D01*
X153652767Y-129744500D01*
X153485233Y-129744500D01*
X153485230Y-129744500D01*
X153362830Y-129768847D01*
X153320918Y-129777184D01*
X153320917Y-129777184D01*
X153320914Y-129777185D01*
X153166135Y-129841298D01*
X153026838Y-129934373D01*
X153026832Y-129934378D01*
X152908378Y-130052832D01*
X152908373Y-130052838D01*
X152815298Y-130192135D01*
X152815297Y-130192137D01*
X152804263Y-130218776D01*
X152751185Y-130346914D01*
X152718500Y-130511230D01*
X150319499Y-130511230D01*
X150319499Y-129647128D01*
X150313091Y-129587517D01*
X150262796Y-129452669D01*
X150238721Y-129420509D01*
X150213909Y-129353992D01*
X150228999Y-129284618D01*
X150238716Y-129269497D01*
X150262796Y-129237331D01*
X150313091Y-129102483D01*
X150319500Y-129042873D01*
X150319499Y-127147128D01*
X150313091Y-127087517D01*
X150291800Y-127030435D01*
X150262798Y-126952673D01*
X150262796Y-126952670D01*
X150262796Y-126952669D01*
X150218566Y-126893585D01*
X150176546Y-126837453D01*
X150099591Y-126779845D01*
X150061331Y-126751204D01*
X150061329Y-126751203D01*
X150061326Y-126751201D01*
X149926483Y-126700909D01*
X149926486Y-126700909D01*
X149866878Y-126694500D01*
X147271135Y-126694500D01*
X147271114Y-126694502D01*
X147211519Y-126700908D01*
X147211518Y-126700908D01*
X147076673Y-126751201D01*
X147076670Y-126751203D01*
X146961453Y-126837453D01*
X146875203Y-126952670D01*
X146875201Y-126952673D01*
X146824909Y-127087515D01*
X146818500Y-127147121D01*
X63560693Y-127147121D01*
X65196584Y-125511230D01*
X147718500Y-125511230D01*
X147718500Y-125511233D01*
X147718500Y-125678767D01*
X147751184Y-125843082D01*
X147815297Y-125997863D01*
X147815298Y-125997864D01*
X147908373Y-126137161D01*
X147908378Y-126137167D01*
X148026832Y-126255621D01*
X148026838Y-126255626D01*
X148166137Y-126348703D01*
X148294357Y-126401814D01*
X148320915Y-126412815D01*
X148320916Y-126412815D01*
X148320918Y-126412816D01*
X148485233Y-126445500D01*
X148652767Y-126445500D01*
X148817082Y-126412816D01*
X148971863Y-126348703D01*
X149111162Y-126255626D01*
X149229626Y-126137162D01*
X149322703Y-125997863D01*
X149386816Y-125843082D01*
X149419500Y-125678767D01*
X149419500Y-125511233D01*
X149386816Y-125346918D01*
X149322703Y-125192137D01*
X149229626Y-125052838D01*
X149229621Y-125052832D01*
X149111167Y-124934378D01*
X149111161Y-124934373D01*
X149018201Y-124872259D01*
X148971863Y-124841297D01*
X148817082Y-124777184D01*
X148724963Y-124758860D01*
X148667846Y-124747499D01*
X148667844Y-124747499D01*
X148652767Y-124744500D01*
X148485233Y-124744500D01*
X148470156Y-124747499D01*
X148470152Y-124747499D01*
X148372157Y-124766991D01*
X148320918Y-124777184D01*
X148320916Y-124777184D01*
X148320915Y-124777185D01*
X148166135Y-124841298D01*
X148026838Y-124934373D01*
X148026832Y-124934378D01*
X147908378Y-125052832D01*
X147908373Y-125052838D01*
X147815298Y-125192135D01*
X147751185Y-125346914D01*
X147718500Y-125511230D01*
X65196584Y-125511230D01*
X71060693Y-119647121D01*
X146818500Y-119647121D01*
X146818500Y-121542864D01*
X146818502Y-121542885D01*
X146824908Y-121602480D01*
X146824908Y-121602481D01*
X146875203Y-121737330D01*
X146899278Y-121769491D01*
X146924089Y-121836011D01*
X146908998Y-121905385D01*
X146899278Y-121920509D01*
X146875203Y-121952669D01*
X146824909Y-122087515D01*
X146818500Y-122147121D01*
X146818500Y-124042864D01*
X146818502Y-124042885D01*
X146824908Y-124102480D01*
X146824908Y-124102481D01*
X146875201Y-124237326D01*
X146875203Y-124237329D01*
X146961453Y-124352546D01*
X147019061Y-124395671D01*
X147076669Y-124438796D01*
X147076671Y-124438796D01*
X147076673Y-124438798D01*
X147137030Y-124461309D01*
X147211514Y-124489090D01*
X147211517Y-124489091D01*
X147271127Y-124495500D01*
X149866872Y-124495499D01*
X149926483Y-124489091D01*
X150061331Y-124438796D01*
X150176546Y-124352546D01*
X150218575Y-124296402D01*
X152161000Y-124296402D01*
X152161000Y-125341000D01*
X153169000Y-125341000D01*
X153169000Y-125849000D01*
X152161000Y-125849000D01*
X152161000Y-126893597D01*
X152167505Y-126954093D01*
X152218555Y-127090964D01*
X152218555Y-127090965D01*
X152306095Y-127207904D01*
X152423034Y-127295444D01*
X152559906Y-127346494D01*
X152620402Y-127352999D01*
X152620415Y-127353000D01*
X153315000Y-127353000D01*
X153315000Y-126256686D01*
X153323394Y-126265080D01*
X153414606Y-126317741D01*
X153516339Y-126345000D01*
X153621661Y-126345000D01*
X153723394Y-126317741D01*
X153814606Y-126265080D01*
X153823000Y-126256686D01*
X153823000Y-127353000D01*
X154517585Y-127353000D01*
X154517597Y-127352999D01*
X154578093Y-127346494D01*
X154714964Y-127295444D01*
X154714965Y-127295444D01*
X154831904Y-127207904D01*
X154919444Y-127090965D01*
X154919444Y-127090964D01*
X154970494Y-126954093D01*
X154976999Y-126893597D01*
X154977000Y-126893585D01*
X154977000Y-125849000D01*
X153969000Y-125849000D01*
X153969000Y-125341000D01*
X154977000Y-125341000D01*
X154977000Y-124296414D01*
X154976999Y-124296402D01*
X154970494Y-124235906D01*
X154919444Y-124099035D01*
X154919444Y-124099034D01*
X154831904Y-123982095D01*
X154714965Y-123894555D01*
X154578093Y-123843505D01*
X154517597Y-123837000D01*
X153823000Y-123837000D01*
X153823000Y-124933314D01*
X153814606Y-124924920D01*
X153723394Y-124872259D01*
X153621661Y-124845000D01*
X153516339Y-124845000D01*
X153414606Y-124872259D01*
X153323394Y-124924920D01*
X153315000Y-124933314D01*
X153315000Y-123837000D01*
X152620402Y-123837000D01*
X152559906Y-123843505D01*
X152423035Y-123894555D01*
X152423034Y-123894555D01*
X152306095Y-123982095D01*
X152218555Y-124099034D01*
X152218555Y-124099035D01*
X152167505Y-124235906D01*
X152161000Y-124296402D01*
X150218575Y-124296402D01*
X150262796Y-124237331D01*
X150313091Y-124102483D01*
X150319500Y-124042873D01*
X150319499Y-122147128D01*
X150313091Y-122087517D01*
X150262796Y-121952669D01*
X150238721Y-121920509D01*
X150213909Y-121853992D01*
X150228999Y-121784618D01*
X150238716Y-121769497D01*
X150262796Y-121737331D01*
X150313091Y-121602483D01*
X150319500Y-121542873D01*
X150319499Y-120511230D01*
X152718500Y-120511230D01*
X152718500Y-120511233D01*
X152718500Y-120678767D01*
X152751184Y-120843082D01*
X152815297Y-120997863D01*
X152815298Y-120997864D01*
X152908373Y-121137161D01*
X152908378Y-121137167D01*
X153026832Y-121255621D01*
X153026838Y-121255626D01*
X153166137Y-121348703D01*
X153320918Y-121412816D01*
X153485233Y-121445500D01*
X153485234Y-121445500D01*
X153652766Y-121445500D01*
X153652767Y-121445500D01*
X153817082Y-121412816D01*
X153971863Y-121348703D01*
X154111162Y-121255626D01*
X154229626Y-121137162D01*
X154322703Y-120997863D01*
X154386816Y-120843082D01*
X154419500Y-120678767D01*
X154419500Y-120511233D01*
X154419499Y-120511230D01*
X155218500Y-120511230D01*
X155218500Y-120511233D01*
X155218500Y-120678767D01*
X155251184Y-120843082D01*
X155315297Y-120997863D01*
X155315298Y-120997864D01*
X155408373Y-121137161D01*
X155408378Y-121137167D01*
X155526832Y-121255621D01*
X155526838Y-121255626D01*
X155666137Y-121348703D01*
X155820918Y-121412816D01*
X155985233Y-121445500D01*
X155985234Y-121445500D01*
X156152766Y-121445500D01*
X156152767Y-121445500D01*
X156317082Y-121412816D01*
X156471863Y-121348703D01*
X156611162Y-121255626D01*
X156729626Y-121137162D01*
X156822703Y-120997863D01*
X156886816Y-120843082D01*
X156919500Y-120678767D01*
X156919500Y-120511233D01*
X156886816Y-120346918D01*
X156822703Y-120192137D01*
X156729626Y-120052838D01*
X156729621Y-120052832D01*
X156611167Y-119934378D01*
X156611161Y-119934373D01*
X156471864Y-119841298D01*
X156471865Y-119841298D01*
X156471863Y-119841297D01*
X156358097Y-119794173D01*
X156317085Y-119777185D01*
X156317083Y-119777184D01*
X156317082Y-119777184D01*
X156234368Y-119760731D01*
X156152769Y-119744500D01*
X156152767Y-119744500D01*
X155985233Y-119744500D01*
X155985230Y-119744500D01*
X155862830Y-119768847D01*
X155820918Y-119777184D01*
X155820917Y-119777184D01*
X155820914Y-119777185D01*
X155666135Y-119841298D01*
X155526838Y-119934373D01*
X155526832Y-119934378D01*
X155408378Y-120052832D01*
X155408373Y-120052838D01*
X155315298Y-120192135D01*
X155251185Y-120346914D01*
X155218500Y-120511230D01*
X154419499Y-120511230D01*
X154386816Y-120346918D01*
X154322703Y-120192137D01*
X154229626Y-120052838D01*
X154229621Y-120052832D01*
X154111167Y-119934378D01*
X154111161Y-119934373D01*
X153971864Y-119841298D01*
X153971865Y-119841298D01*
X153971863Y-119841297D01*
X153858097Y-119794173D01*
X153817085Y-119777185D01*
X153817083Y-119777184D01*
X153817082Y-119777184D01*
X153734368Y-119760731D01*
X153652769Y-119744500D01*
X153652767Y-119744500D01*
X153485233Y-119744500D01*
X153485230Y-119744500D01*
X153362830Y-119768847D01*
X153320918Y-119777184D01*
X153320917Y-119777184D01*
X153320914Y-119777185D01*
X153166135Y-119841298D01*
X153026838Y-119934373D01*
X153026832Y-119934378D01*
X152908378Y-120052832D01*
X152908373Y-120052838D01*
X152815298Y-120192135D01*
X152751185Y-120346914D01*
X152718500Y-120511230D01*
X150319499Y-120511230D01*
X150319499Y-119647128D01*
X150313091Y-119587517D01*
X150291800Y-119530435D01*
X150262798Y-119452673D01*
X150262796Y-119452670D01*
X150262796Y-119452669D01*
X150219671Y-119395061D01*
X150176546Y-119337453D01*
X150083376Y-119267707D01*
X150061331Y-119251204D01*
X150061329Y-119251203D01*
X150061326Y-119251201D01*
X149926483Y-119200909D01*
X149926486Y-119200909D01*
X149866873Y-119194500D01*
X147271135Y-119194500D01*
X147271114Y-119194502D01*
X147211519Y-119200908D01*
X147211518Y-119200908D01*
X147076673Y-119251201D01*
X147076670Y-119251203D01*
X146961453Y-119337453D01*
X146875203Y-119452670D01*
X146875201Y-119452673D01*
X146824909Y-119587515D01*
X146818500Y-119647121D01*
X71060693Y-119647121D01*
X75170409Y-115537405D01*
X75232721Y-115503379D01*
X75259504Y-115500500D01*
X154434108Y-115500500D01*
X154497404Y-115500500D01*
X154502611Y-115500608D01*
G37*
%TD.AperFunction*%
%TD*%
M02*
