%TF.GenerationSoftware,KiCad,Pcbnew,9.0.1+1*%
%TF.CreationDate,2025-10-09T21:41:31+00:00*%
%TF.ProjectId,rcbus-opl3,72636275-732d-46f7-906c-332e6b696361,@version@*%
%TF.SameCoordinates,Original*%
%TF.FileFunction,Soldermask,Bot*%
%TF.FilePolarity,Negative*%
%FSLAX46Y46*%
G04 Gerber Fmt 4.6, Leading zero omitted, Abs format (unit mm)*
G04 Created by KiCad (PCBNEW 9.0.1+1) date 2025-10-09 21:41:31*
%MOMM*%
%LPD*%
G01*
G04 APERTURE LIST*
%ADD10C,1.200000*%
%ADD11R,2.500000X1.800000*%
%ADD12R,1.800000X2.500000*%
%ADD13R,1.700000X1.700000*%
%ADD14C,1.700000*%
%ADD15C,3.200000*%
%ADD16O,1.700000X1.700000*%
G04 APERTURE END LIST*
D10*
%TO.C,CON1*%
X156069000Y-130595000D03*
X156069000Y-120595000D03*
X153569000Y-130595000D03*
X153569000Y-120595000D03*
X148569000Y-125595000D03*
D11*
X148569000Y-130595000D03*
X148569000Y-128095000D03*
D12*
X153569000Y-125595000D03*
D11*
X148569000Y-120595000D03*
X148569000Y-123095000D03*
%TD*%
D13*
%TO.C,JP1*%
X65000000Y-154160000D03*
D14*
X62460000Y-154160000D03*
X65000000Y-151620000D03*
X62460000Y-151620000D03*
X65000000Y-149080000D03*
X62460000Y-149080000D03*
X65000000Y-146540000D03*
X62460000Y-146540000D03*
X65000000Y-144000000D03*
X62460000Y-144000000D03*
X65000000Y-141460000D03*
X62460000Y-141460000D03*
%TD*%
D15*
%TO.C,H1*%
X65032000Y-131882000D03*
%TD*%
D13*
%TO.C,P1*%
X61500000Y-163500000D03*
D16*
X64040000Y-163500000D03*
X66580000Y-163500000D03*
X69120000Y-163500000D03*
X71660000Y-163500000D03*
X74200000Y-163500000D03*
X76740000Y-163500000D03*
X79280000Y-163500000D03*
X81820000Y-163500000D03*
X84360000Y-163500000D03*
X86900000Y-163500000D03*
X89440000Y-163500000D03*
X91980000Y-163500000D03*
X94520000Y-163500000D03*
X97060000Y-163500000D03*
X99600000Y-163500000D03*
X102140000Y-163500000D03*
X104680000Y-163500000D03*
X107220000Y-163500000D03*
X109760000Y-163500000D03*
X112300000Y-163500000D03*
X114840000Y-163500000D03*
X117380000Y-163500000D03*
X119920000Y-163500000D03*
X122460000Y-163500000D03*
X125000000Y-163500000D03*
X127540000Y-163500000D03*
X130080000Y-163500000D03*
X132620000Y-163500000D03*
X135160000Y-163500000D03*
X137700000Y-163500000D03*
X140240000Y-163500000D03*
X142780000Y-163500000D03*
X145320000Y-163500000D03*
X147860000Y-163500000D03*
X150400000Y-163500000D03*
X152940000Y-163500000D03*
X155480000Y-163500000D03*
X158020000Y-163500000D03*
%TD*%
M02*
