%TF.GenerationSoftware,KiCad,Pcbnew,9.0.1+1*%
%TF.CreationDate,2025-08-28T22:24:37+00:00*%
%TF.ProjectId,rcbus-ymf262,72636275-732d-4796-9d66-3236322e6b69,@version@*%
%TF.SameCoordinates,Original*%
%TF.FileFunction,Plated,1,2,PTH,Mixed*%
%TF.FilePolarity,Positive*%
%FSLAX46Y46*%
G04 Gerber Fmt 4.6, Leading zero omitted, Abs format (unit mm)*
G04 Created by KiCad (PCBNEW 9.0.1+1) date 2025-08-28 22:24:37*
%MOMM*%
%LPD*%
G01*
G04 APERTURE LIST*
%TA.AperFunction,ViaDrill*%
%ADD10C,0.330200*%
%TD*%
G04 aperture for slot hole*
%TA.AperFunction,ComponentDrill*%
%ADD11C,0.800000*%
%TD*%
%TA.AperFunction,ComponentDrill*%
%ADD12C,1.000000*%
%TD*%
G04 APERTURE END LIST*
D10*
X61000000Y-130000000D03*
X61000000Y-135000000D03*
X61000000Y-140000000D03*
X61000000Y-145000000D03*
X61000000Y-150000000D03*
X61000000Y-155000000D03*
X61000000Y-160000000D03*
X66000000Y-125000000D03*
X66000000Y-135000000D03*
X66000000Y-140000000D03*
X71000000Y-120000000D03*
X71000000Y-125000000D03*
X71000000Y-130000000D03*
X71000000Y-135000000D03*
X71000000Y-140000000D03*
X72956600Y-144814800D03*
X76000000Y-115000000D03*
X76000000Y-120000000D03*
X76000000Y-125000000D03*
X76000000Y-130000000D03*
X76000000Y-135000000D03*
X76000000Y-140000000D03*
X76143018Y-144056982D03*
X76700000Y-146000000D03*
X76700000Y-148500000D03*
X76700000Y-151000000D03*
X76700000Y-153500000D03*
X76700000Y-156000000D03*
X78805238Y-153471756D03*
X79176756Y-151880846D03*
X80874257Y-151454431D03*
X81000000Y-115000000D03*
X81000000Y-120000000D03*
X81000000Y-125000000D03*
X81000000Y-130000000D03*
X81000000Y-135000000D03*
X81000000Y-140000000D03*
X81368224Y-153118224D03*
X82937400Y-159600000D03*
X83731069Y-145881900D03*
X85000000Y-154450000D03*
X85895910Y-151240000D03*
X85983804Y-153449800D03*
X86000000Y-115000000D03*
X86000000Y-120000000D03*
X86000000Y-125000000D03*
X86000000Y-130000000D03*
X86000000Y-135000000D03*
X86000000Y-140000000D03*
X88500001Y-150474799D03*
X90500000Y-149817600D03*
X91000000Y-115000000D03*
X91000000Y-120000000D03*
X91000000Y-125000000D03*
X91000000Y-130000000D03*
X91000000Y-135000000D03*
X91000000Y-140000000D03*
X92212600Y-154250000D03*
X92955615Y-158503700D03*
X96000000Y-115000000D03*
X96000000Y-120000000D03*
X96000000Y-125000000D03*
X96000000Y-130000000D03*
X96000000Y-135000000D03*
X96000000Y-140000000D03*
X100500000Y-154250000D03*
X101000000Y-115000000D03*
X101000000Y-120000000D03*
X101000000Y-125000000D03*
X101000000Y-130000000D03*
X101000000Y-135000000D03*
X101000000Y-140000000D03*
X106000000Y-115000000D03*
X106000000Y-120000000D03*
X106000000Y-125000000D03*
X106000000Y-130000000D03*
X106000000Y-135000000D03*
X106000000Y-140000000D03*
X115000000Y-132250000D03*
X115800000Y-141400000D03*
X116700000Y-145400000D03*
X119000000Y-120750000D03*
X119250000Y-133750000D03*
X119537412Y-145143729D03*
X120500000Y-124500000D03*
X123800000Y-158500000D03*
X124500000Y-128000000D03*
X126000000Y-131000000D03*
X128485000Y-158500000D03*
X138817400Y-145468100D03*
X143702100Y-115987500D03*
X143800000Y-120100000D03*
X144160700Y-145870000D03*
X148595900Y-146504300D03*
X151293900Y-146295300D03*
D11*
%TO.C,CON1*%
X148719000Y-120095000D02*
X149419000Y-120095000D01*
X148719000Y-122595000D02*
X149419000Y-122595000D01*
X148719000Y-127595000D02*
X149419000Y-127595000D01*
X148719000Y-130095000D02*
X149419000Y-130095000D01*
X154069000Y-124745000D02*
X154069000Y-125445000D01*
D12*
%TO.C,P1*%
X62000000Y-163000000D03*
%TO.C,JP1*%
X62460000Y-143460000D03*
X62460000Y-146000000D03*
X62460000Y-148540000D03*
X62460000Y-151080000D03*
X62460000Y-153620000D03*
X62460000Y-156160000D03*
%TO.C,P1*%
X64540000Y-163000000D03*
%TO.C,JP1*%
X65000000Y-143460000D03*
X65000000Y-146000000D03*
X65000000Y-148540000D03*
X65000000Y-151080000D03*
X65000000Y-153620000D03*
X65000000Y-156160000D03*
%TO.C,P1*%
X67080000Y-163000000D03*
X69620000Y-163000000D03*
X72160000Y-163000000D03*
X74700000Y-163000000D03*
X77240000Y-163000000D03*
X79780000Y-163000000D03*
X82320000Y-163000000D03*
X84860000Y-163000000D03*
X87400000Y-163000000D03*
X89940000Y-163000000D03*
X92480000Y-163000000D03*
X95020000Y-163000000D03*
X97560000Y-163000000D03*
X100100000Y-163000000D03*
X102640000Y-163000000D03*
X105180000Y-163000000D03*
X107720000Y-163000000D03*
X110260000Y-163000000D03*
X112800000Y-163000000D03*
X115340000Y-163000000D03*
X117880000Y-163000000D03*
X120420000Y-163000000D03*
X122960000Y-163000000D03*
X125500000Y-163000000D03*
X128040000Y-163000000D03*
X130580000Y-163000000D03*
X133120000Y-163000000D03*
X135660000Y-163000000D03*
X138200000Y-163000000D03*
X140740000Y-163000000D03*
X143280000Y-163000000D03*
X145820000Y-163000000D03*
X148360000Y-163000000D03*
X150900000Y-163000000D03*
X153440000Y-163000000D03*
X155980000Y-163000000D03*
X158520000Y-163000000D03*
M02*
