%TF.GenerationSoftware,KiCad,Pcbnew,9.0.1+1*%
%TF.CreationDate,2025-10-08T18:49:05+00:00*%
%TF.ProjectId,rcbus-opl3,72636275-732d-46f7-906c-332e6b696361,@version@*%
%TF.SameCoordinates,Original*%
%TF.FileFunction,Paste,Top*%
%TF.FilePolarity,Positive*%
%FSLAX46Y46*%
G04 Gerber Fmt 4.6, Leading zero omitted, Abs format (unit mm)*
G04 Created by KiCad (PCBNEW 9.0.1+1) date 2025-10-08 18:49:05*
%MOMM*%
%LPD*%
G01*
G04 APERTURE LIST*
G04 Aperture macros list*
%AMRoundRect*
0 Rectangle with rounded corners*
0 $1 Rounding radius*
0 $2 $3 $4 $5 $6 $7 $8 $9 X,Y pos of 4 corners*
0 Add a 4 corners polygon primitive as box body*
4,1,4,$2,$3,$4,$5,$6,$7,$8,$9,$2,$3,0*
0 Add four circle primitives for the rounded corners*
1,1,$1+$1,$2,$3*
1,1,$1+$1,$4,$5*
1,1,$1+$1,$6,$7*
1,1,$1+$1,$8,$9*
0 Add four rect primitives between the rounded corners*
20,1,$1+$1,$2,$3,$4,$5,0*
20,1,$1+$1,$4,$5,$6,$7,0*
20,1,$1+$1,$6,$7,$8,$9,0*
20,1,$1+$1,$8,$9,$2,$3,0*%
G04 Aperture macros list end*
%ADD10RoundRect,0.225000X0.225000X0.250000X-0.225000X0.250000X-0.225000X-0.250000X0.225000X-0.250000X0*%
%ADD11RoundRect,0.150000X0.150000X-0.875000X0.150000X0.875000X-0.150000X0.875000X-0.150000X-0.875000X0*%
%ADD12RoundRect,0.225000X-0.250000X0.225000X-0.250000X-0.225000X0.250000X-0.225000X0.250000X0.225000X0*%
%ADD13RoundRect,0.250000X1.500000X0.550000X-1.500000X0.550000X-1.500000X-0.550000X1.500000X-0.550000X0*%
%ADD14RoundRect,0.225000X0.250000X-0.225000X0.250000X0.225000X-0.250000X0.225000X-0.250000X-0.225000X0*%
%ADD15RoundRect,0.137500X-0.862500X-0.137500X0.862500X-0.137500X0.862500X0.137500X-0.862500X0.137500X0*%
%ADD16RoundRect,0.250000X0.750000X-0.650000X0.750000X0.650000X-0.750000X0.650000X-0.750000X-0.650000X0*%
%ADD17RoundRect,0.150000X0.150000X-0.650000X0.150000X0.650000X-0.150000X0.650000X-0.150000X-0.650000X0*%
%ADD18RoundRect,0.200000X-0.200000X-0.275000X0.200000X-0.275000X0.200000X0.275000X-0.200000X0.275000X0*%
%ADD19RoundRect,0.225000X-0.225000X-0.250000X0.225000X-0.250000X0.225000X0.250000X-0.225000X0.250000X0*%
%ADD20RoundRect,0.200000X0.275000X-0.200000X0.275000X0.200000X-0.275000X0.200000X-0.275000X-0.200000X0*%
%ADD21RoundRect,0.150000X0.150000X-0.825000X0.150000X0.825000X-0.150000X0.825000X-0.150000X-0.825000X0*%
%ADD22RoundRect,0.250000X-1.500000X-0.550000X1.500000X-0.550000X1.500000X0.550000X-1.500000X0.550000X0*%
G04 APERTURE END LIST*
D10*
%TO.C,C1*%
X80175000Y-142400000D03*
X78625000Y-142400000D03*
%TD*%
%TO.C,C7*%
X119100000Y-141700000D03*
X117550000Y-141700000D03*
%TD*%
D11*
%TO.C,U1*%
X80550000Y-155000000D03*
X81820000Y-155000000D03*
X83090000Y-155000000D03*
X84360000Y-155000000D03*
X85630000Y-155000000D03*
X86900000Y-155000000D03*
X88170000Y-155000000D03*
X89440000Y-155000000D03*
X90710000Y-155000000D03*
X91980000Y-155000000D03*
X91980000Y-145700000D03*
X90710000Y-145700000D03*
X89440000Y-145700000D03*
X88170000Y-145700000D03*
X86900000Y-145700000D03*
X85630000Y-145700000D03*
X84360000Y-145700000D03*
X83090000Y-145700000D03*
X81820000Y-145700000D03*
X80550000Y-145700000D03*
%TD*%
D12*
%TO.C,C11*%
X123900000Y-127925000D03*
X123900000Y-129475000D03*
%TD*%
D13*
%TO.C,C8*%
X114200000Y-127800000D03*
X108800000Y-127800000D03*
%TD*%
D14*
%TO.C,C12*%
X117200000Y-122175000D03*
X117200000Y-120625000D03*
%TD*%
D15*
%TO.C,U2*%
X127350000Y-144015000D03*
X127350000Y-145285000D03*
X127350000Y-146555000D03*
X127350000Y-147825000D03*
X127350000Y-149095000D03*
X127350000Y-150365000D03*
X127350000Y-151635000D03*
X127350000Y-152905000D03*
X127350000Y-154175000D03*
X127350000Y-155445000D03*
X127350000Y-156715000D03*
X127350000Y-157985000D03*
X136650000Y-157985000D03*
X136650000Y-156715000D03*
X136650000Y-155445000D03*
X136650000Y-154175000D03*
X136650000Y-152905000D03*
X136650000Y-151635000D03*
X136650000Y-150365000D03*
X136650000Y-149095000D03*
X136650000Y-147825000D03*
X136650000Y-146555000D03*
X136650000Y-145285000D03*
X136650000Y-144015000D03*
%TD*%
D10*
%TO.C,C6*%
X124275000Y-144000000D03*
X122725000Y-144000000D03*
%TD*%
D16*
%TO.C,Y1*%
X146500000Y-149040000D03*
X146500000Y-143960000D03*
X142500000Y-143960000D03*
X142500000Y-149040000D03*
%TD*%
D17*
%TO.C,U3*%
X119150000Y-139000000D03*
X120420000Y-139000000D03*
X121690000Y-139000000D03*
X122960000Y-139000000D03*
X124230000Y-139000000D03*
X125500000Y-139000000D03*
X126770000Y-139000000D03*
X128040000Y-139000000D03*
X128040000Y-132500000D03*
X126770000Y-132500000D03*
X125500000Y-132500000D03*
X124230000Y-132500000D03*
X122960000Y-132500000D03*
X121690000Y-132500000D03*
X120420000Y-132500000D03*
X119150000Y-132500000D03*
%TD*%
D18*
%TO.C,R6*%
X72175000Y-154000000D03*
X73825000Y-154000000D03*
%TD*%
D19*
%TO.C,C9*%
X126325000Y-118000000D03*
X127875000Y-118000000D03*
%TD*%
D18*
%TO.C,R5*%
X72175000Y-151500000D03*
X73825000Y-151500000D03*
%TD*%
%TO.C,R8*%
X142575000Y-120595000D03*
X144225000Y-120595000D03*
%TD*%
D20*
%TO.C,R7*%
X125900000Y-129525000D03*
X125900000Y-127875000D03*
%TD*%
D18*
%TO.C,R9*%
X142575000Y-130595000D03*
X144225000Y-130595000D03*
%TD*%
%TO.C,R3*%
X72175000Y-146500000D03*
X73825000Y-146500000D03*
%TD*%
%TO.C,R1*%
X72175000Y-141500000D03*
X73825000Y-141500000D03*
%TD*%
D19*
%TO.C,C10*%
X122450000Y-118000000D03*
X124000000Y-118000000D03*
%TD*%
D18*
%TO.C,R2*%
X72175000Y-144000000D03*
X73825000Y-144000000D03*
%TD*%
D21*
%TO.C,U4*%
X119690000Y-125512022D03*
X120960000Y-125512022D03*
X122230000Y-125512022D03*
X123500000Y-125512022D03*
X124770000Y-125512022D03*
X126040000Y-125512022D03*
X127310000Y-125512022D03*
X127310000Y-120562022D03*
X126040000Y-120562022D03*
X124770000Y-120562022D03*
X123500000Y-120562022D03*
X122230000Y-120562022D03*
X120960000Y-120562022D03*
X119690000Y-120562022D03*
%TD*%
D22*
%TO.C,C16*%
X133200000Y-130595000D03*
X138600000Y-130595000D03*
%TD*%
D18*
%TO.C,R4*%
X72175000Y-149000000D03*
X73825000Y-149000000D03*
%TD*%
D13*
%TO.C,C5*%
X105200000Y-156000000D03*
X99800000Y-156000000D03*
%TD*%
%TO.C,C2*%
X105200000Y-145500000D03*
X99800000Y-145500000D03*
%TD*%
D22*
%TO.C,C15*%
X133200000Y-120595000D03*
X138600000Y-120595000D03*
%TD*%
D19*
%TO.C,C19*%
X149589000Y-149026000D03*
X151139000Y-149026000D03*
%TD*%
D18*
%TO.C,R10*%
X142575000Y-124595000D03*
X144225000Y-124595000D03*
%TD*%
%TO.C,R11*%
X142575000Y-134790000D03*
X144225000Y-134790000D03*
%TD*%
M02*
