%TF.GenerationSoftware,KiCad,Pcbnew,9.0.1+1*%
%TF.CreationDate,2025-10-09T19:14:13+00:00*%
%TF.ProjectId,rcbus-opl3,72636275-732d-46f7-906c-332e6b696361,@version@*%
%TF.SameCoordinates,Original*%
%TF.FileFunction,Copper,L2,Bot*%
%TF.FilePolarity,Positive*%
%FSLAX46Y46*%
G04 Gerber Fmt 4.6, Leading zero omitted, Abs format (unit mm)*
G04 Created by KiCad (PCBNEW 9.0.1+1) date 2025-10-09 19:14:13*
%MOMM*%
%LPD*%
G01*
G04 APERTURE LIST*
%TA.AperFunction,ComponentPad*%
%ADD10R,2.500000X1.800000*%
%TD*%
%TA.AperFunction,ComponentPad*%
%ADD11R,1.800000X2.500000*%
%TD*%
%TA.AperFunction,ComponentPad*%
%ADD12R,1.700000X1.700000*%
%TD*%
%TA.AperFunction,ComponentPad*%
%ADD13C,1.700000*%
%TD*%
%TA.AperFunction,ComponentPad*%
%ADD14O,1.700000X1.700000*%
%TD*%
%TA.AperFunction,ViaPad*%
%ADD15C,0.685800*%
%TD*%
%TA.AperFunction,Conductor*%
%ADD16C,0.762000*%
%TD*%
%TA.AperFunction,Conductor*%
%ADD17C,0.381000*%
%TD*%
G04 APERTURE END LIST*
D10*
%TO.P,CON1,R*%
%TO.N,Net-(CON1-PadR)*%
X148569000Y-130595000D03*
%TO.P,CON1,RN*%
X148569000Y-128095000D03*
D11*
%TO.P,CON1,S*%
%TO.N,GND*%
X153569000Y-125595000D03*
D10*
%TO.P,CON1,T*%
%TO.N,Net-(CON1-PadT)*%
X148569000Y-120595000D03*
%TO.P,CON1,TN*%
X148569000Y-123095000D03*
%TD*%
D12*
%TO.P,JP1,1,Pin_1*%
%TO.N,Net-(JP1-Pin_1)*%
X65000000Y-154160000D03*
D13*
%TO.P,JP1,2,Pin_2*%
%TO.N,+5V*%
X62460000Y-154160000D03*
%TO.P,JP1,3,Pin_3*%
%TO.N,Net-(JP1-Pin_3)*%
X65000000Y-151620000D03*
%TO.P,JP1,4,Pin_4*%
%TO.N,+5V*%
X62460000Y-151620000D03*
%TO.P,JP1,5,Pin_5*%
%TO.N,Net-(JP1-Pin_5)*%
X65000000Y-149080000D03*
%TO.P,JP1,6,Pin_6*%
%TO.N,+5V*%
X62460000Y-149080000D03*
%TO.P,JP1,7,Pin_7*%
%TO.N,Net-(JP1-Pin_7)*%
X65000000Y-146540000D03*
%TO.P,JP1,8,Pin_8*%
%TO.N,+5V*%
X62460000Y-146540000D03*
%TO.P,JP1,9,Pin_9*%
%TO.N,Net-(JP1-Pin_9)*%
X65000000Y-144000000D03*
%TO.P,JP1,10,Pin_10*%
%TO.N,+5V*%
X62460000Y-144000000D03*
%TO.P,JP1,11,Pin_11*%
%TO.N,Net-(JP1-Pin_11)*%
X65000000Y-141460000D03*
%TO.P,JP1,12,Pin_12*%
%TO.N,+5V*%
X62460000Y-141460000D03*
%TD*%
D12*
%TO.P,P1,1,Pin_1*%
%TO.N,unconnected-(P1-Pin_1-Pad1)*%
X61500000Y-163500000D03*
D14*
%TO.P,P1,2,Pin_2*%
%TO.N,unconnected-(P1-Pin_2-Pad2)*%
X64040000Y-163500000D03*
%TO.P,P1,3,Pin_3*%
%TO.N,unconnected-(P1-Pin_3-Pad3)*%
X66580000Y-163500000D03*
%TO.P,P1,4,Pin_4*%
%TO.N,unconnected-(P1-Pin_4-Pad4)*%
X69120000Y-163500000D03*
%TO.P,P1,5,Pin_5*%
%TO.N,unconnected-(P1-Pin_5-Pad5)*%
X71660000Y-163500000D03*
%TO.P,P1,6,Pin_6*%
%TO.N,unconnected-(P1-Pin_6-Pad6)*%
X74200000Y-163500000D03*
%TO.P,P1,7,Pin_7*%
%TO.N,unconnected-(P1-Pin_7-Pad7)*%
X76740000Y-163500000D03*
%TO.P,P1,8,Pin_8*%
%TO.N,unconnected-(P1-Pin_8-Pad8)*%
X79280000Y-163500000D03*
%TO.P,P1,9,Pin_9*%
%TO.N,/A7*%
X81820000Y-163500000D03*
%TO.P,P1,10,Pin_10*%
%TO.N,/A6*%
X84360000Y-163500000D03*
%TO.P,P1,11,Pin_11*%
%TO.N,/A5*%
X86900000Y-163500000D03*
%TO.P,P1,12,Pin_12*%
%TO.N,/A4*%
X89440000Y-163500000D03*
%TO.P,P1,13,Pin_13*%
%TO.N,/A3*%
X91980000Y-163500000D03*
%TO.P,P1,14,Pin_14*%
%TO.N,/A2*%
X94520000Y-163500000D03*
%TO.P,P1,15,Pin_15*%
%TO.N,/A1*%
X97060000Y-163500000D03*
%TO.P,P1,16,Pin_16*%
%TO.N,/A0*%
X99600000Y-163500000D03*
%TO.P,P1,17,Pin_17*%
%TO.N,GND*%
X102140000Y-163500000D03*
%TO.P,P1,18,Pin_18*%
%TO.N,+5V*%
X104680000Y-163500000D03*
%TO.P,P1,19,Pin_19*%
%TO.N,unconnected-(P1-Pin_19-Pad19)*%
X107220000Y-163500000D03*
%TO.P,P1,20,Pin_20*%
%TO.N,/~{RESET}*%
X109760000Y-163500000D03*
%TO.P,P1,21,Pin_21*%
%TO.N,unconnected-(P1-Pin_21-Pad21)*%
X112300000Y-163500000D03*
%TO.P,P1,22,Pin_22*%
%TO.N,/~{INT}*%
X114840000Y-163500000D03*
%TO.P,P1,23,Pin_23*%
%TO.N,unconnected-(P1-Pin_23-Pad23)*%
X117380000Y-163500000D03*
%TO.P,P1,24,Pin_24*%
%TO.N,/~{WR}*%
X119920000Y-163500000D03*
%TO.P,P1,25,Pin_25*%
%TO.N,/~{RD}*%
X122460000Y-163500000D03*
%TO.P,P1,26,Pin_26*%
%TO.N,/~{IORQ}*%
X125000000Y-163500000D03*
%TO.P,P1,27,Pin_27*%
%TO.N,/D0*%
X127540000Y-163500000D03*
%TO.P,P1,28,Pin_28*%
%TO.N,/D1*%
X130080000Y-163500000D03*
%TO.P,P1,29,Pin_29*%
%TO.N,/D2*%
X132620000Y-163500000D03*
%TO.P,P1,30,Pin_30*%
%TO.N,/D3*%
X135160000Y-163500000D03*
%TO.P,P1,31,Pin_31*%
%TO.N,/D4*%
X137700000Y-163500000D03*
%TO.P,P1,32,Pin_32*%
%TO.N,/D5*%
X140240000Y-163500000D03*
%TO.P,P1,33,Pin_33*%
%TO.N,/D6*%
X142780000Y-163500000D03*
%TO.P,P1,34,Pin_34*%
%TO.N,/D7*%
X145320000Y-163500000D03*
%TO.P,P1,35,Pin_35*%
%TO.N,unconnected-(P1-Pin_35-Pad35)*%
X147860000Y-163500000D03*
%TO.P,P1,36,Pin_36*%
%TO.N,unconnected-(P1-Pin_36-Pad36)*%
X150400000Y-163500000D03*
%TO.P,P1,37,Pin_37*%
%TO.N,unconnected-(P1-Pin_37-Pad37)*%
X152940000Y-163500000D03*
%TO.P,P1,38,Pin_38*%
%TO.N,unconnected-(P1-Pin_38-Pad38)*%
X155480000Y-163500000D03*
%TO.P,P1,39,Pin_39*%
%TO.N,unconnected-(P1-Pin_39-Pad39)*%
X158020000Y-163500000D03*
%TD*%
D15*
%TO.N,+5V*%
X105384986Y-157100000D03*
%TO.N,GND*%
X113500000Y-147500000D03*
X154750000Y-137900000D03*
X74800000Y-151500000D03*
X147250000Y-137900000D03*
X129100000Y-157985000D03*
X120400000Y-137600000D03*
X109750000Y-137900000D03*
X102250000Y-152500000D03*
X94750000Y-137900000D03*
X74900000Y-154000000D03*
X83500000Y-130600000D03*
X128500000Y-159800000D03*
X121000000Y-147500000D03*
X85600000Y-144100000D03*
X74800000Y-144000000D03*
X68500000Y-130600000D03*
X109750000Y-152500000D03*
X117250000Y-137900000D03*
X117200000Y-119600000D03*
X113500000Y-130600000D03*
X139750000Y-137900000D03*
X72250000Y-123300000D03*
X123728912Y-130309638D03*
X97735952Y-145500000D03*
X143500000Y-116000000D03*
X102250000Y-137900000D03*
X68500000Y-159800000D03*
X139750000Y-123300000D03*
X61000000Y-130600000D03*
X87250000Y-137900000D03*
X151000000Y-145200000D03*
X130000000Y-147500000D03*
X76000000Y-116000000D03*
X77800000Y-142400000D03*
X76000000Y-159800000D03*
X79750000Y-137900000D03*
X158500000Y-145200000D03*
X97796157Y-156000000D03*
X98500000Y-141500000D03*
X136000000Y-130600000D03*
X154750000Y-123300000D03*
X132250000Y-152500000D03*
X98500000Y-116000000D03*
X116600000Y-141700000D03*
X98500000Y-152500000D03*
X136000000Y-116000000D03*
X61000000Y-159800000D03*
X102250000Y-123300000D03*
X123499999Y-121232925D03*
X158500000Y-159800000D03*
X107000000Y-147500000D03*
X151000000Y-130600000D03*
X116500000Y-124000000D03*
X139750000Y-147500000D03*
X83500000Y-141500000D03*
X158500000Y-130600000D03*
X64750000Y-137900000D03*
X113500000Y-116000000D03*
X74800000Y-146500000D03*
X91000000Y-116000000D03*
X76000000Y-130600000D03*
X74800000Y-141500000D03*
X83500000Y-116000000D03*
X110000000Y-124000000D03*
X151000000Y-159800000D03*
X79750000Y-123300000D03*
X132250000Y-137900000D03*
X141600000Y-134800000D03*
X106500000Y-141500000D03*
X106500000Y-127800000D03*
X151000000Y-116000000D03*
X121800000Y-144000000D03*
X91000000Y-130600000D03*
X92000000Y-156512600D03*
X87250000Y-123300000D03*
X74800000Y-149000000D03*
X128800000Y-118000000D03*
X106000000Y-116000000D03*
X98500000Y-130600000D03*
X141600000Y-124600000D03*
X144500000Y-145200000D03*
X154750000Y-152500000D03*
X72250000Y-137900000D03*
X94750000Y-123300000D03*
X147250000Y-152500000D03*
X91000000Y-141500000D03*
%TO.N,/A1*%
X101000000Y-161722400D03*
%TO.N,/~{CS}*%
X125700000Y-152900000D03*
X116400000Y-153000000D03*
%TO.N,/~{RESET}*%
X111979883Y-157612600D03*
%TO.N,/~{IORQ}*%
X87500000Y-152800000D03*
X95700000Y-157500000D03*
X115700000Y-158500000D03*
%TO.N,/DOAB*%
X125733318Y-137359891D03*
X123196600Y-137317721D03*
%TO.N,Net-(JP1-Pin_1)*%
X86500000Y-151500000D03*
X87550000Y-147450000D03*
%TO.N,Net-(JP1-Pin_9)*%
X85000000Y-147500000D03*
X85630000Y-153681000D03*
%TO.N,Net-(JP1-Pin_11)*%
X83100000Y-153681000D03*
X79200000Y-146400000D03*
%TO.N,Net-(JP1-Pin_3)*%
X88100000Y-151000000D03*
X90709999Y-147418096D03*
%TO.N,Net-(JP1-Pin_5)*%
X91300000Y-151200000D03*
X89131759Y-151631759D03*
%TD*%
D16*
%TO.N,+5V*%
X105384986Y-157100000D02*
X106410486Y-158125500D01*
X106410486Y-161769514D02*
X104680000Y-163500000D01*
X106410486Y-158125500D02*
X106410486Y-161769514D01*
D17*
%TO.N,/A1*%
X101000000Y-161722400D02*
X98837600Y-161722400D01*
X98837600Y-161722400D02*
X97060000Y-163500000D01*
%TO.N,/~{CS}*%
X116400000Y-153000000D02*
X125600000Y-153000000D01*
X125600000Y-153000000D02*
X125700000Y-152900000D01*
%TO.N,/~{RESET}*%
X111979883Y-161280117D02*
X111979883Y-157612600D01*
X109760000Y-163500000D02*
X111979883Y-161280117D01*
%TO.N,/~{IORQ}*%
X95700000Y-157500000D02*
X91000000Y-152800000D01*
X115700000Y-158500000D02*
X120000000Y-158500000D01*
X91000000Y-152800000D02*
X87500000Y-152800000D01*
X120000000Y-158500000D02*
X125000000Y-163500000D01*
%TO.N,/DOAB*%
X125673427Y-137300000D02*
X123214321Y-137300000D01*
X123214321Y-137300000D02*
X123196600Y-137317721D01*
X125733318Y-137359891D02*
X125673427Y-137300000D01*
%TO.N,Net-(JP1-Pin_1)*%
X87000000Y-151000000D02*
X86500000Y-151500000D01*
X87000000Y-148600000D02*
X87000000Y-151000000D01*
X87550000Y-147450000D02*
X87550000Y-148050000D01*
X87550000Y-148050000D02*
X87000000Y-148600000D01*
%TO.N,Net-(JP1-Pin_9)*%
X85100000Y-147500000D02*
X85400000Y-147800000D01*
X85400000Y-153387400D02*
X85630000Y-153617400D01*
X85400000Y-147800000D02*
X85400000Y-153387400D01*
X85000000Y-147500000D02*
X85100000Y-147500000D01*
%TO.N,Net-(JP1-Pin_11)*%
X79200000Y-146400000D02*
X80858619Y-148058619D01*
X83090000Y-153671000D02*
X83100000Y-153681000D01*
X80858619Y-148058619D02*
X81600000Y-148058619D01*
X83090000Y-149548619D02*
X83090000Y-153671000D01*
X81600000Y-148058619D02*
X83090000Y-149548619D01*
%TO.N,Net-(JP1-Pin_3)*%
X90709999Y-147418096D02*
X90709999Y-148390001D01*
X90709999Y-148390001D02*
X88100000Y-151000000D01*
%TO.N,Net-(JP1-Pin_5)*%
X91200000Y-151200000D02*
X91300000Y-151200000D01*
X89363518Y-151400000D02*
X91000000Y-151400000D01*
X89131759Y-151631759D02*
X89363518Y-151400000D01*
X91000000Y-151400000D02*
X91200000Y-151200000D01*
%TD*%
%TA.AperFunction,Conductor*%
%TO.N,GND*%
G36*
X154502611Y-115500608D02*
G01*
X154907663Y-115517361D01*
X154918012Y-115518218D01*
X155317722Y-115568042D01*
X155327986Y-115569755D01*
X155722213Y-115652415D01*
X155732276Y-115654962D01*
X156118344Y-115769901D01*
X156128187Y-115773281D01*
X156503427Y-115919700D01*
X156512964Y-115923883D01*
X156853371Y-116090298D01*
X156874811Y-116100779D01*
X156883969Y-116105735D01*
X157229991Y-116311919D01*
X157238702Y-116317610D01*
X157387309Y-116423713D01*
X157566512Y-116551662D01*
X157574730Y-116558058D01*
X157882102Y-116818388D01*
X157889763Y-116825442D01*
X158174557Y-117110236D01*
X158181611Y-117117897D01*
X158441941Y-117425269D01*
X158448337Y-117433487D01*
X158682384Y-117761289D01*
X158688080Y-117770008D01*
X158894264Y-118116030D01*
X158899220Y-118125188D01*
X159076116Y-118487035D01*
X159080299Y-118496572D01*
X159226718Y-118871812D01*
X159230100Y-118881661D01*
X159345032Y-119267707D01*
X159347588Y-119277803D01*
X159430243Y-119672009D01*
X159431957Y-119682281D01*
X159481779Y-120081973D01*
X159482639Y-120092351D01*
X159499392Y-120497388D01*
X159499500Y-120502595D01*
X159499500Y-121412500D01*
X159479498Y-121480621D01*
X159425842Y-121527114D01*
X159373500Y-121538500D01*
X158894449Y-121538500D01*
X158661758Y-121571956D01*
X158436187Y-121638190D01*
X158222340Y-121735850D01*
X158024571Y-121862949D01*
X157846901Y-122016901D01*
X157692949Y-122194571D01*
X157565850Y-122392340D01*
X157468190Y-122606187D01*
X157401956Y-122831758D01*
X157368500Y-123064449D01*
X157368500Y-128125550D01*
X157401956Y-128358241D01*
X157468190Y-128583812D01*
X157565850Y-128797659D01*
X157692949Y-128995428D01*
X157846901Y-129173098D01*
X158024571Y-129327050D01*
X158220037Y-129452669D01*
X158222342Y-129454150D01*
X158436189Y-129551810D01*
X158661757Y-129618043D01*
X158894455Y-129651500D01*
X158946108Y-129651500D01*
X159373500Y-129651500D01*
X159441621Y-129671502D01*
X159488114Y-129725158D01*
X159499500Y-129777500D01*
X159499500Y-162904123D01*
X159479498Y-162972244D01*
X159425842Y-163018737D01*
X159355568Y-163028841D01*
X159290988Y-162999347D01*
X159261233Y-162961326D01*
X159175051Y-162792184D01*
X159050104Y-162620208D01*
X159050101Y-162620205D01*
X159050099Y-162620202D01*
X158899797Y-162469900D01*
X158899794Y-162469898D01*
X158899792Y-162469896D01*
X158727816Y-162344949D01*
X158538412Y-162248443D01*
X158336243Y-162182754D01*
X158126287Y-162149500D01*
X157913713Y-162149500D01*
X157703757Y-162182754D01*
X157703754Y-162182754D01*
X157703753Y-162182755D01*
X157501588Y-162248443D01*
X157501586Y-162248444D01*
X157312180Y-162344951D01*
X157140205Y-162469898D01*
X157140202Y-162469900D01*
X156989900Y-162620202D01*
X156989898Y-162620205D01*
X156864949Y-162792183D01*
X156862265Y-162797451D01*
X156813516Y-162849065D01*
X156744600Y-162866129D01*
X156677399Y-162843226D01*
X156637735Y-162797451D01*
X156635050Y-162792183D01*
X156604665Y-162750361D01*
X156510104Y-162620208D01*
X156510101Y-162620205D01*
X156510099Y-162620202D01*
X156359797Y-162469900D01*
X156359794Y-162469898D01*
X156359792Y-162469896D01*
X156187816Y-162344949D01*
X155998412Y-162248443D01*
X155796243Y-162182754D01*
X155586287Y-162149500D01*
X155373713Y-162149500D01*
X155163757Y-162182754D01*
X155163754Y-162182754D01*
X155163753Y-162182755D01*
X154961588Y-162248443D01*
X154961586Y-162248444D01*
X154772180Y-162344951D01*
X154600205Y-162469898D01*
X154600202Y-162469900D01*
X154449900Y-162620202D01*
X154449898Y-162620205D01*
X154324949Y-162792183D01*
X154322265Y-162797451D01*
X154273516Y-162849065D01*
X154204600Y-162866129D01*
X154137399Y-162843226D01*
X154097735Y-162797451D01*
X154095050Y-162792183D01*
X154064665Y-162750361D01*
X153970104Y-162620208D01*
X153970101Y-162620205D01*
X153970099Y-162620202D01*
X153819797Y-162469900D01*
X153819794Y-162469898D01*
X153819792Y-162469896D01*
X153647816Y-162344949D01*
X153458412Y-162248443D01*
X153256243Y-162182754D01*
X153046287Y-162149500D01*
X152833713Y-162149500D01*
X152623757Y-162182754D01*
X152623754Y-162182754D01*
X152623753Y-162182755D01*
X152421588Y-162248443D01*
X152421586Y-162248444D01*
X152232180Y-162344951D01*
X152060205Y-162469898D01*
X152060202Y-162469900D01*
X151909900Y-162620202D01*
X151909898Y-162620205D01*
X151784949Y-162792183D01*
X151782265Y-162797451D01*
X151733516Y-162849065D01*
X151664600Y-162866129D01*
X151597399Y-162843226D01*
X151557735Y-162797451D01*
X151555050Y-162792183D01*
X151524665Y-162750361D01*
X151430104Y-162620208D01*
X151430101Y-162620205D01*
X151430099Y-162620202D01*
X151279797Y-162469900D01*
X151279794Y-162469898D01*
X151279792Y-162469896D01*
X151107816Y-162344949D01*
X150918412Y-162248443D01*
X150716243Y-162182754D01*
X150506287Y-162149500D01*
X150293713Y-162149500D01*
X150083757Y-162182754D01*
X150083754Y-162182754D01*
X150083753Y-162182755D01*
X149881588Y-162248443D01*
X149881586Y-162248444D01*
X149692180Y-162344951D01*
X149520205Y-162469898D01*
X149520202Y-162469900D01*
X149369900Y-162620202D01*
X149369898Y-162620205D01*
X149244949Y-162792183D01*
X149242265Y-162797451D01*
X149193516Y-162849065D01*
X149124600Y-162866129D01*
X149057399Y-162843226D01*
X149017735Y-162797451D01*
X149015050Y-162792183D01*
X148984665Y-162750361D01*
X148890104Y-162620208D01*
X148890101Y-162620205D01*
X148890099Y-162620202D01*
X148739797Y-162469900D01*
X148739794Y-162469898D01*
X148739792Y-162469896D01*
X148567816Y-162344949D01*
X148378412Y-162248443D01*
X148176243Y-162182754D01*
X147966287Y-162149500D01*
X147753713Y-162149500D01*
X147543757Y-162182754D01*
X147543754Y-162182754D01*
X147543753Y-162182755D01*
X147341588Y-162248443D01*
X147341586Y-162248444D01*
X147152180Y-162344951D01*
X146980205Y-162469898D01*
X146980202Y-162469900D01*
X146829900Y-162620202D01*
X146829898Y-162620205D01*
X146704949Y-162792183D01*
X146702265Y-162797451D01*
X146653516Y-162849065D01*
X146584600Y-162866129D01*
X146517399Y-162843226D01*
X146477735Y-162797451D01*
X146475050Y-162792183D01*
X146444665Y-162750361D01*
X146350104Y-162620208D01*
X146350101Y-162620205D01*
X146350099Y-162620202D01*
X146199797Y-162469900D01*
X146199794Y-162469898D01*
X146199792Y-162469896D01*
X146027816Y-162344949D01*
X145838412Y-162248443D01*
X145636243Y-162182754D01*
X145426287Y-162149500D01*
X145213713Y-162149500D01*
X145003757Y-162182754D01*
X145003754Y-162182754D01*
X145003753Y-162182755D01*
X144801588Y-162248443D01*
X144801586Y-162248444D01*
X144612180Y-162344951D01*
X144440205Y-162469898D01*
X144440202Y-162469900D01*
X144289900Y-162620202D01*
X144289898Y-162620205D01*
X144164949Y-162792183D01*
X144162265Y-162797451D01*
X144113516Y-162849065D01*
X144044600Y-162866129D01*
X143977399Y-162843226D01*
X143937735Y-162797451D01*
X143935050Y-162792183D01*
X143904665Y-162750361D01*
X143810104Y-162620208D01*
X143810101Y-162620205D01*
X143810099Y-162620202D01*
X143659797Y-162469900D01*
X143659794Y-162469898D01*
X143659792Y-162469896D01*
X143487816Y-162344949D01*
X143298412Y-162248443D01*
X143096243Y-162182754D01*
X142886287Y-162149500D01*
X142673713Y-162149500D01*
X142463757Y-162182754D01*
X142463754Y-162182754D01*
X142463753Y-162182755D01*
X142261588Y-162248443D01*
X142261586Y-162248444D01*
X142072180Y-162344951D01*
X141900205Y-162469898D01*
X141900202Y-162469900D01*
X141749900Y-162620202D01*
X141749898Y-162620205D01*
X141624949Y-162792183D01*
X141622265Y-162797451D01*
X141573516Y-162849065D01*
X141504600Y-162866129D01*
X141437399Y-162843226D01*
X141397735Y-162797451D01*
X141395050Y-162792183D01*
X141364665Y-162750361D01*
X141270104Y-162620208D01*
X141270101Y-162620205D01*
X141270099Y-162620202D01*
X141119797Y-162469900D01*
X141119794Y-162469898D01*
X141119792Y-162469896D01*
X140947816Y-162344949D01*
X140758412Y-162248443D01*
X140556243Y-162182754D01*
X140346287Y-162149500D01*
X140133713Y-162149500D01*
X139923757Y-162182754D01*
X139923754Y-162182754D01*
X139923753Y-162182755D01*
X139721588Y-162248443D01*
X139721586Y-162248444D01*
X139532180Y-162344951D01*
X139360205Y-162469898D01*
X139360202Y-162469900D01*
X139209900Y-162620202D01*
X139209898Y-162620205D01*
X139084949Y-162792183D01*
X139082265Y-162797451D01*
X139033516Y-162849065D01*
X138964600Y-162866129D01*
X138897399Y-162843226D01*
X138857735Y-162797451D01*
X138855050Y-162792183D01*
X138824665Y-162750361D01*
X138730104Y-162620208D01*
X138730101Y-162620205D01*
X138730099Y-162620202D01*
X138579797Y-162469900D01*
X138579794Y-162469898D01*
X138579792Y-162469896D01*
X138407816Y-162344949D01*
X138218412Y-162248443D01*
X138016243Y-162182754D01*
X137806287Y-162149500D01*
X137593713Y-162149500D01*
X137383757Y-162182754D01*
X137383754Y-162182754D01*
X137383753Y-162182755D01*
X137181588Y-162248443D01*
X137181586Y-162248444D01*
X136992180Y-162344951D01*
X136820205Y-162469898D01*
X136820202Y-162469900D01*
X136669900Y-162620202D01*
X136669898Y-162620205D01*
X136544949Y-162792183D01*
X136542265Y-162797451D01*
X136493516Y-162849065D01*
X136424600Y-162866129D01*
X136357399Y-162843226D01*
X136317735Y-162797451D01*
X136315050Y-162792183D01*
X136284665Y-162750361D01*
X136190104Y-162620208D01*
X136190101Y-162620205D01*
X136190099Y-162620202D01*
X136039797Y-162469900D01*
X136039794Y-162469898D01*
X136039792Y-162469896D01*
X135867816Y-162344949D01*
X135678412Y-162248443D01*
X135476243Y-162182754D01*
X135266287Y-162149500D01*
X135053713Y-162149500D01*
X134843757Y-162182754D01*
X134843754Y-162182754D01*
X134843753Y-162182755D01*
X134641588Y-162248443D01*
X134641586Y-162248444D01*
X134452180Y-162344951D01*
X134280205Y-162469898D01*
X134280202Y-162469900D01*
X134129900Y-162620202D01*
X134129898Y-162620205D01*
X134004949Y-162792183D01*
X134002265Y-162797451D01*
X133953516Y-162849065D01*
X133884600Y-162866129D01*
X133817399Y-162843226D01*
X133777735Y-162797451D01*
X133775050Y-162792183D01*
X133744665Y-162750361D01*
X133650104Y-162620208D01*
X133650101Y-162620205D01*
X133650099Y-162620202D01*
X133499797Y-162469900D01*
X133499794Y-162469898D01*
X133499792Y-162469896D01*
X133327816Y-162344949D01*
X133138412Y-162248443D01*
X132936243Y-162182754D01*
X132726287Y-162149500D01*
X132513713Y-162149500D01*
X132303757Y-162182754D01*
X132303754Y-162182754D01*
X132303753Y-162182755D01*
X132101588Y-162248443D01*
X132101586Y-162248444D01*
X131912180Y-162344951D01*
X131740205Y-162469898D01*
X131740202Y-162469900D01*
X131589900Y-162620202D01*
X131589898Y-162620205D01*
X131464949Y-162792183D01*
X131462265Y-162797451D01*
X131413516Y-162849065D01*
X131344600Y-162866129D01*
X131277399Y-162843226D01*
X131237735Y-162797451D01*
X131235050Y-162792183D01*
X131204665Y-162750361D01*
X131110104Y-162620208D01*
X131110101Y-162620205D01*
X131110099Y-162620202D01*
X130959797Y-162469900D01*
X130959794Y-162469898D01*
X130959792Y-162469896D01*
X130787816Y-162344949D01*
X130598412Y-162248443D01*
X130396243Y-162182754D01*
X130186287Y-162149500D01*
X129973713Y-162149500D01*
X129763757Y-162182754D01*
X129763754Y-162182754D01*
X129763753Y-162182755D01*
X129561588Y-162248443D01*
X129561586Y-162248444D01*
X129372180Y-162344951D01*
X129200205Y-162469898D01*
X129200202Y-162469900D01*
X129049900Y-162620202D01*
X129049898Y-162620205D01*
X128924949Y-162792183D01*
X128922265Y-162797451D01*
X128873516Y-162849065D01*
X128804600Y-162866129D01*
X128737399Y-162843226D01*
X128697735Y-162797451D01*
X128695050Y-162792183D01*
X128664665Y-162750361D01*
X128570104Y-162620208D01*
X128570101Y-162620205D01*
X128570099Y-162620202D01*
X128419797Y-162469900D01*
X128419794Y-162469898D01*
X128419792Y-162469896D01*
X128247816Y-162344949D01*
X128058412Y-162248443D01*
X127856243Y-162182754D01*
X127646287Y-162149500D01*
X127433713Y-162149500D01*
X127223757Y-162182754D01*
X127223754Y-162182754D01*
X127223753Y-162182755D01*
X127021588Y-162248443D01*
X127021586Y-162248444D01*
X126832180Y-162344951D01*
X126660205Y-162469898D01*
X126660202Y-162469900D01*
X126509900Y-162620202D01*
X126509898Y-162620205D01*
X126384949Y-162792183D01*
X126382265Y-162797451D01*
X126333516Y-162849065D01*
X126264600Y-162866129D01*
X126197399Y-162843226D01*
X126157735Y-162797451D01*
X126155050Y-162792183D01*
X126124665Y-162750361D01*
X126030104Y-162620208D01*
X126030101Y-162620205D01*
X126030099Y-162620202D01*
X125879797Y-162469900D01*
X125879794Y-162469898D01*
X125879792Y-162469896D01*
X125707816Y-162344949D01*
X125518412Y-162248443D01*
X125316243Y-162182754D01*
X125106287Y-162149500D01*
X124893713Y-162149500D01*
X124726634Y-162175962D01*
X124656225Y-162166863D01*
X124617830Y-162140609D01*
X120440494Y-157963271D01*
X120440488Y-157963266D01*
X120439138Y-157962364D01*
X120327311Y-157887644D01*
X120280792Y-157868375D01*
X120201560Y-157835556D01*
X120201557Y-157835555D01*
X120068061Y-157809000D01*
X120068058Y-157809000D01*
X116222148Y-157809000D01*
X116154027Y-157788998D01*
X116152146Y-157787765D01*
X116099500Y-157752588D01*
X115946016Y-157689013D01*
X115946011Y-157689011D01*
X115783070Y-157656600D01*
X115783068Y-157656600D01*
X115616932Y-157656600D01*
X115616929Y-157656600D01*
X115453988Y-157689011D01*
X115453983Y-157689013D01*
X115300500Y-157752588D01*
X115162364Y-157844887D01*
X115162358Y-157844892D01*
X115044892Y-157962358D01*
X115044887Y-157962364D01*
X114952588Y-158100500D01*
X114889013Y-158253983D01*
X114889011Y-158253988D01*
X114856600Y-158416929D01*
X114856600Y-158416932D01*
X114856600Y-158583068D01*
X114889011Y-158746011D01*
X114952588Y-158899500D01*
X115014260Y-158991799D01*
X115044887Y-159037635D01*
X115044892Y-159037641D01*
X115162358Y-159155107D01*
X115162364Y-159155112D01*
X115300500Y-159247412D01*
X115453989Y-159310989D01*
X115616932Y-159343400D01*
X115616933Y-159343400D01*
X115783067Y-159343400D01*
X115783068Y-159343400D01*
X115946011Y-159310989D01*
X116099500Y-159247412D01*
X116152146Y-159212235D01*
X116219899Y-159191020D01*
X116222148Y-159191000D01*
X119661588Y-159191000D01*
X119729709Y-159211002D01*
X119750683Y-159227905D01*
X122457184Y-161934405D01*
X122491210Y-161996717D01*
X122486145Y-162067532D01*
X122443598Y-162124368D01*
X122377078Y-162149179D01*
X122368089Y-162149500D01*
X122353713Y-162149500D01*
X122143757Y-162182754D01*
X122143754Y-162182754D01*
X122143753Y-162182755D01*
X121941588Y-162248443D01*
X121941586Y-162248444D01*
X121752180Y-162344951D01*
X121580205Y-162469898D01*
X121580202Y-162469900D01*
X121429900Y-162620202D01*
X121429898Y-162620205D01*
X121304949Y-162792183D01*
X121302265Y-162797451D01*
X121253516Y-162849065D01*
X121184600Y-162866129D01*
X121117399Y-162843226D01*
X121077735Y-162797451D01*
X121075050Y-162792183D01*
X121044665Y-162750361D01*
X120950104Y-162620208D01*
X120950101Y-162620205D01*
X120950099Y-162620202D01*
X120799797Y-162469900D01*
X120799794Y-162469898D01*
X120799792Y-162469896D01*
X120627816Y-162344949D01*
X120438412Y-162248443D01*
X120236243Y-162182754D01*
X120026287Y-162149500D01*
X119813713Y-162149500D01*
X119603757Y-162182754D01*
X119603754Y-162182754D01*
X119603753Y-162182755D01*
X119401588Y-162248443D01*
X119401586Y-162248444D01*
X119212180Y-162344951D01*
X119040205Y-162469898D01*
X119040202Y-162469900D01*
X118889900Y-162620202D01*
X118889898Y-162620205D01*
X118764949Y-162792183D01*
X118762265Y-162797451D01*
X118713516Y-162849065D01*
X118644600Y-162866129D01*
X118577399Y-162843226D01*
X118537735Y-162797451D01*
X118535050Y-162792183D01*
X118504665Y-162750361D01*
X118410104Y-162620208D01*
X118410101Y-162620205D01*
X118410099Y-162620202D01*
X118259797Y-162469900D01*
X118259794Y-162469898D01*
X118259792Y-162469896D01*
X118087816Y-162344949D01*
X117898412Y-162248443D01*
X117696243Y-162182754D01*
X117486287Y-162149500D01*
X117273713Y-162149500D01*
X117063757Y-162182754D01*
X117063754Y-162182754D01*
X117063753Y-162182755D01*
X116861588Y-162248443D01*
X116861586Y-162248444D01*
X116672180Y-162344951D01*
X116500205Y-162469898D01*
X116500202Y-162469900D01*
X116349900Y-162620202D01*
X116349898Y-162620205D01*
X116224949Y-162792183D01*
X116222265Y-162797451D01*
X116173516Y-162849065D01*
X116104600Y-162866129D01*
X116037399Y-162843226D01*
X115997735Y-162797451D01*
X115995050Y-162792183D01*
X115964665Y-162750361D01*
X115870104Y-162620208D01*
X115870101Y-162620205D01*
X115870099Y-162620202D01*
X115719797Y-162469900D01*
X115719794Y-162469898D01*
X115719792Y-162469896D01*
X115547816Y-162344949D01*
X115358412Y-162248443D01*
X115156243Y-162182754D01*
X114946287Y-162149500D01*
X114733713Y-162149500D01*
X114523757Y-162182754D01*
X114523754Y-162182754D01*
X114523753Y-162182755D01*
X114321588Y-162248443D01*
X114321586Y-162248444D01*
X114132180Y-162344951D01*
X113960205Y-162469898D01*
X113960202Y-162469900D01*
X113809900Y-162620202D01*
X113809898Y-162620205D01*
X113684949Y-162792183D01*
X113682265Y-162797451D01*
X113633516Y-162849065D01*
X113564600Y-162866129D01*
X113497399Y-162843226D01*
X113457735Y-162797451D01*
X113455050Y-162792183D01*
X113424665Y-162750361D01*
X113330104Y-162620208D01*
X113330101Y-162620205D01*
X113330099Y-162620202D01*
X113179797Y-162469900D01*
X113179794Y-162469898D01*
X113179792Y-162469896D01*
X113007816Y-162344949D01*
X112818412Y-162248443D01*
X112616243Y-162182754D01*
X112406287Y-162149500D01*
X112391912Y-162149500D01*
X112323791Y-162129498D01*
X112277298Y-162075842D01*
X112267194Y-162005568D01*
X112296688Y-161940988D01*
X112302817Y-161934405D01*
X112516613Y-161720608D01*
X112516613Y-161720607D01*
X112516618Y-161720603D01*
X112592239Y-161607428D01*
X112644328Y-161481674D01*
X112670883Y-161348174D01*
X112670883Y-161212060D01*
X112670883Y-158134747D01*
X112690885Y-158066626D01*
X112692058Y-158064834D01*
X112727295Y-158012100D01*
X112790872Y-157858611D01*
X112823283Y-157695668D01*
X112823283Y-157529532D01*
X112790872Y-157366589D01*
X112727295Y-157213100D01*
X112634995Y-157074964D01*
X112634990Y-157074958D01*
X112517524Y-156957492D01*
X112517518Y-156957487D01*
X112471682Y-156926860D01*
X112379383Y-156865188D01*
X112225894Y-156801611D01*
X112062953Y-156769200D01*
X112062951Y-156769200D01*
X111896815Y-156769200D01*
X111896812Y-156769200D01*
X111733871Y-156801611D01*
X111733866Y-156801613D01*
X111580383Y-156865188D01*
X111442247Y-156957487D01*
X111442241Y-156957492D01*
X111324775Y-157074958D01*
X111324770Y-157074964D01*
X111232471Y-157213100D01*
X111168896Y-157366583D01*
X111168894Y-157366588D01*
X111136483Y-157529529D01*
X111136483Y-157695670D01*
X111168894Y-157858611D01*
X111168896Y-157858616D01*
X111232469Y-158012097D01*
X111232470Y-158012099D01*
X111232471Y-158012100D01*
X111267649Y-158064747D01*
X111288863Y-158132497D01*
X111288883Y-158134747D01*
X111288883Y-160941705D01*
X111268881Y-161009826D01*
X111251978Y-161030800D01*
X110142168Y-162140609D01*
X110079856Y-162174635D01*
X110033365Y-162175962D01*
X109866287Y-162149500D01*
X109653713Y-162149500D01*
X109443757Y-162182754D01*
X109443754Y-162182754D01*
X109443753Y-162182755D01*
X109241588Y-162248443D01*
X109241586Y-162248444D01*
X109052180Y-162344951D01*
X108880205Y-162469898D01*
X108880202Y-162469900D01*
X108729900Y-162620202D01*
X108729898Y-162620205D01*
X108604949Y-162792183D01*
X108602265Y-162797451D01*
X108553516Y-162849065D01*
X108484600Y-162866129D01*
X108417399Y-162843226D01*
X108377735Y-162797451D01*
X108375050Y-162792183D01*
X108344665Y-162750361D01*
X108250104Y-162620208D01*
X108250101Y-162620205D01*
X108250099Y-162620202D01*
X108099797Y-162469900D01*
X108099794Y-162469898D01*
X108099792Y-162469896D01*
X107927816Y-162344949D01*
X107738412Y-162248443D01*
X107536243Y-162182754D01*
X107365932Y-162155779D01*
X107301781Y-162125367D01*
X107264254Y-162065099D01*
X107262066Y-162006753D01*
X107291986Y-161856335D01*
X107291986Y-161682693D01*
X107291986Y-158038680D01*
X107291778Y-158037636D01*
X107258110Y-157868376D01*
X107191661Y-157707953D01*
X107095192Y-157563576D01*
X107095190Y-157563574D01*
X107095185Y-157563568D01*
X105946917Y-156415300D01*
X105946911Y-156415295D01*
X105802533Y-156318825D01*
X105642113Y-156252377D01*
X105642110Y-156252376D01*
X105471810Y-156218500D01*
X105471807Y-156218500D01*
X105298165Y-156218500D01*
X105298161Y-156218500D01*
X105127861Y-156252376D01*
X105127858Y-156252377D01*
X104967438Y-156318825D01*
X104823060Y-156415295D01*
X104823054Y-156415300D01*
X104700286Y-156538068D01*
X104700281Y-156538074D01*
X104603811Y-156682452D01*
X104537363Y-156842872D01*
X104537362Y-156842875D01*
X104503486Y-157013175D01*
X104503486Y-157186824D01*
X104537362Y-157357124D01*
X104537363Y-157357127D01*
X104603811Y-157517547D01*
X104700280Y-157661924D01*
X105492082Y-158453726D01*
X105526106Y-158516037D01*
X105528986Y-158542820D01*
X105528986Y-161352194D01*
X105508984Y-161420315D01*
X105492081Y-161441289D01*
X104820775Y-162112595D01*
X104758463Y-162146621D01*
X104731680Y-162149500D01*
X104573713Y-162149500D01*
X104363757Y-162182754D01*
X104363754Y-162182754D01*
X104363753Y-162182755D01*
X104161588Y-162248443D01*
X104161586Y-162248444D01*
X103972180Y-162344951D01*
X103800205Y-162469898D01*
X103800202Y-162469900D01*
X103649900Y-162620202D01*
X103649898Y-162620205D01*
X103524951Y-162792180D01*
X103428444Y-162981586D01*
X103428443Y-162981588D01*
X103416373Y-163018737D01*
X103362754Y-163183757D01*
X103329500Y-163393713D01*
X103329500Y-163606287D01*
X103362754Y-163816243D01*
X103428443Y-164018412D01*
X103467913Y-164095876D01*
X103524951Y-164207819D01*
X103591517Y-164299439D01*
X103615375Y-164366307D01*
X103599295Y-164435458D01*
X103548381Y-164484938D01*
X103489581Y-164499500D01*
X100790419Y-164499500D01*
X100722298Y-164479498D01*
X100675805Y-164425842D01*
X100665701Y-164355568D01*
X100688483Y-164299439D01*
X100755051Y-164207816D01*
X100851557Y-164018412D01*
X100917246Y-163816243D01*
X100950500Y-163606287D01*
X100950500Y-163393713D01*
X100917246Y-163183757D01*
X100851557Y-162981588D01*
X100755051Y-162792184D01*
X100724664Y-162750360D01*
X100700806Y-162683493D01*
X100716887Y-162614342D01*
X100767801Y-162564861D01*
X100837383Y-162550762D01*
X100851165Y-162552718D01*
X100916932Y-162565800D01*
X100916933Y-162565800D01*
X101083067Y-162565800D01*
X101083068Y-162565800D01*
X101246011Y-162533389D01*
X101399500Y-162469812D01*
X101537636Y-162377512D01*
X101655112Y-162260036D01*
X101747412Y-162121900D01*
X101810989Y-161968411D01*
X101843400Y-161805468D01*
X101843400Y-161639332D01*
X101810989Y-161476389D01*
X101747412Y-161322900D01*
X101655112Y-161184764D01*
X101655107Y-161184758D01*
X101537641Y-161067292D01*
X101537635Y-161067287D01*
X101483028Y-161030800D01*
X101399500Y-160974988D01*
X101246011Y-160911411D01*
X101083070Y-160879000D01*
X101083068Y-160879000D01*
X100916932Y-160879000D01*
X100916929Y-160879000D01*
X100753988Y-160911411D01*
X100753983Y-160911413D01*
X100600499Y-160974988D01*
X100547854Y-161010165D01*
X100480101Y-161031380D01*
X100477852Y-161031400D01*
X98769538Y-161031400D01*
X98636042Y-161057955D01*
X98636039Y-161057956D01*
X98510288Y-161110044D01*
X98397111Y-161185666D01*
X97442168Y-162140609D01*
X97379856Y-162174634D01*
X97333363Y-162175962D01*
X97237452Y-162160771D01*
X97166287Y-162149500D01*
X96953713Y-162149500D01*
X96743757Y-162182754D01*
X96743754Y-162182754D01*
X96743753Y-162182755D01*
X96541588Y-162248443D01*
X96541586Y-162248444D01*
X96352180Y-162344951D01*
X96180205Y-162469898D01*
X96180202Y-162469900D01*
X96029900Y-162620202D01*
X96029898Y-162620205D01*
X95904949Y-162792183D01*
X95902265Y-162797451D01*
X95853516Y-162849065D01*
X95784600Y-162866129D01*
X95717399Y-162843226D01*
X95677735Y-162797451D01*
X95675050Y-162792183D01*
X95644665Y-162750361D01*
X95550104Y-162620208D01*
X95550101Y-162620205D01*
X95550099Y-162620202D01*
X95399797Y-162469900D01*
X95399794Y-162469898D01*
X95399792Y-162469896D01*
X95227816Y-162344949D01*
X95038412Y-162248443D01*
X94836243Y-162182754D01*
X94626287Y-162149500D01*
X94413713Y-162149500D01*
X94203757Y-162182754D01*
X94203754Y-162182754D01*
X94203753Y-162182755D01*
X94001588Y-162248443D01*
X94001586Y-162248444D01*
X93812180Y-162344951D01*
X93640205Y-162469898D01*
X93640202Y-162469900D01*
X93489900Y-162620202D01*
X93489898Y-162620205D01*
X93364949Y-162792183D01*
X93362265Y-162797451D01*
X93313516Y-162849065D01*
X93244600Y-162866129D01*
X93177399Y-162843226D01*
X93137735Y-162797451D01*
X93135050Y-162792183D01*
X93104665Y-162750361D01*
X93010104Y-162620208D01*
X93010101Y-162620205D01*
X93010099Y-162620202D01*
X92859797Y-162469900D01*
X92859794Y-162469898D01*
X92859792Y-162469896D01*
X92687816Y-162344949D01*
X92498412Y-162248443D01*
X92296243Y-162182754D01*
X92086287Y-162149500D01*
X91873713Y-162149500D01*
X91663757Y-162182754D01*
X91663754Y-162182754D01*
X91663753Y-162182755D01*
X91461588Y-162248443D01*
X91461586Y-162248444D01*
X91272180Y-162344951D01*
X91100205Y-162469898D01*
X91100202Y-162469900D01*
X90949900Y-162620202D01*
X90949898Y-162620205D01*
X90824949Y-162792183D01*
X90822265Y-162797451D01*
X90773516Y-162849065D01*
X90704600Y-162866129D01*
X90637399Y-162843226D01*
X90597735Y-162797451D01*
X90595050Y-162792183D01*
X90564665Y-162750361D01*
X90470104Y-162620208D01*
X90470101Y-162620205D01*
X90470099Y-162620202D01*
X90319797Y-162469900D01*
X90319794Y-162469898D01*
X90319792Y-162469896D01*
X90147816Y-162344949D01*
X89958412Y-162248443D01*
X89756243Y-162182754D01*
X89546287Y-162149500D01*
X89333713Y-162149500D01*
X89123757Y-162182754D01*
X89123754Y-162182754D01*
X89123753Y-162182755D01*
X88921588Y-162248443D01*
X88921586Y-162248444D01*
X88732180Y-162344951D01*
X88560205Y-162469898D01*
X88560202Y-162469900D01*
X88409900Y-162620202D01*
X88409898Y-162620205D01*
X88284949Y-162792183D01*
X88282265Y-162797451D01*
X88233516Y-162849065D01*
X88164600Y-162866129D01*
X88097399Y-162843226D01*
X88057735Y-162797451D01*
X88055050Y-162792183D01*
X88024665Y-162750361D01*
X87930104Y-162620208D01*
X87930101Y-162620205D01*
X87930099Y-162620202D01*
X87779797Y-162469900D01*
X87779794Y-162469898D01*
X87779792Y-162469896D01*
X87607816Y-162344949D01*
X87418412Y-162248443D01*
X87216243Y-162182754D01*
X87006287Y-162149500D01*
X86793713Y-162149500D01*
X86583757Y-162182754D01*
X86583754Y-162182754D01*
X86583753Y-162182755D01*
X86381588Y-162248443D01*
X86381586Y-162248444D01*
X86192180Y-162344951D01*
X86020205Y-162469898D01*
X86020202Y-162469900D01*
X85869900Y-162620202D01*
X85869898Y-162620205D01*
X85744949Y-162792183D01*
X85742265Y-162797451D01*
X85693516Y-162849065D01*
X85624600Y-162866129D01*
X85557399Y-162843226D01*
X85517735Y-162797451D01*
X85515050Y-162792183D01*
X85484665Y-162750361D01*
X85390104Y-162620208D01*
X85390101Y-162620205D01*
X85390099Y-162620202D01*
X85239797Y-162469900D01*
X85239794Y-162469898D01*
X85239792Y-162469896D01*
X85067816Y-162344949D01*
X84878412Y-162248443D01*
X84676243Y-162182754D01*
X84466287Y-162149500D01*
X84253713Y-162149500D01*
X84043757Y-162182754D01*
X84043754Y-162182754D01*
X84043753Y-162182755D01*
X83841588Y-162248443D01*
X83841586Y-162248444D01*
X83652180Y-162344951D01*
X83480205Y-162469898D01*
X83480202Y-162469900D01*
X83329900Y-162620202D01*
X83329898Y-162620205D01*
X83204949Y-162792183D01*
X83202265Y-162797451D01*
X83153516Y-162849065D01*
X83084600Y-162866129D01*
X83017399Y-162843226D01*
X82977735Y-162797451D01*
X82975050Y-162792183D01*
X82944665Y-162750361D01*
X82850104Y-162620208D01*
X82850101Y-162620205D01*
X82850099Y-162620202D01*
X82699797Y-162469900D01*
X82699794Y-162469898D01*
X82699792Y-162469896D01*
X82527816Y-162344949D01*
X82338412Y-162248443D01*
X82136243Y-162182754D01*
X81926287Y-162149500D01*
X81713713Y-162149500D01*
X81503757Y-162182754D01*
X81503754Y-162182754D01*
X81503753Y-162182755D01*
X81301588Y-162248443D01*
X81301586Y-162248444D01*
X81112180Y-162344951D01*
X80940205Y-162469898D01*
X80940202Y-162469900D01*
X80789900Y-162620202D01*
X80789898Y-162620205D01*
X80664949Y-162792183D01*
X80662265Y-162797451D01*
X80613516Y-162849065D01*
X80544600Y-162866129D01*
X80477399Y-162843226D01*
X80437735Y-162797451D01*
X80435050Y-162792183D01*
X80404665Y-162750361D01*
X80310104Y-162620208D01*
X80310101Y-162620205D01*
X80310099Y-162620202D01*
X80159797Y-162469900D01*
X80159794Y-162469898D01*
X80159792Y-162469896D01*
X79987816Y-162344949D01*
X79798412Y-162248443D01*
X79596243Y-162182754D01*
X79386287Y-162149500D01*
X79173713Y-162149500D01*
X78963757Y-162182754D01*
X78963754Y-162182754D01*
X78963753Y-162182755D01*
X78761588Y-162248443D01*
X78761586Y-162248444D01*
X78572180Y-162344951D01*
X78400205Y-162469898D01*
X78400202Y-162469900D01*
X78249900Y-162620202D01*
X78249898Y-162620205D01*
X78124949Y-162792183D01*
X78122265Y-162797451D01*
X78073516Y-162849065D01*
X78004600Y-162866129D01*
X77937399Y-162843226D01*
X77897735Y-162797451D01*
X77895050Y-162792183D01*
X77864665Y-162750361D01*
X77770104Y-162620208D01*
X77770101Y-162620205D01*
X77770099Y-162620202D01*
X77619797Y-162469900D01*
X77619794Y-162469898D01*
X77619792Y-162469896D01*
X77447816Y-162344949D01*
X77258412Y-162248443D01*
X77056243Y-162182754D01*
X76846287Y-162149500D01*
X76633713Y-162149500D01*
X76423757Y-162182754D01*
X76423754Y-162182754D01*
X76423753Y-162182755D01*
X76221588Y-162248443D01*
X76221586Y-162248444D01*
X76032180Y-162344951D01*
X75860205Y-162469898D01*
X75860202Y-162469900D01*
X75709900Y-162620202D01*
X75709898Y-162620205D01*
X75584949Y-162792183D01*
X75582265Y-162797451D01*
X75533516Y-162849065D01*
X75464600Y-162866129D01*
X75397399Y-162843226D01*
X75357735Y-162797451D01*
X75355050Y-162792183D01*
X75324665Y-162750361D01*
X75230104Y-162620208D01*
X75230101Y-162620205D01*
X75230099Y-162620202D01*
X75079797Y-162469900D01*
X75079794Y-162469898D01*
X75079792Y-162469896D01*
X74907816Y-162344949D01*
X74718412Y-162248443D01*
X74516243Y-162182754D01*
X74306287Y-162149500D01*
X74093713Y-162149500D01*
X73883757Y-162182754D01*
X73883754Y-162182754D01*
X73883753Y-162182755D01*
X73681588Y-162248443D01*
X73681586Y-162248444D01*
X73492180Y-162344951D01*
X73320205Y-162469898D01*
X73320202Y-162469900D01*
X73169900Y-162620202D01*
X73169898Y-162620205D01*
X73044949Y-162792183D01*
X73042265Y-162797451D01*
X72993516Y-162849065D01*
X72924600Y-162866129D01*
X72857399Y-162843226D01*
X72817735Y-162797451D01*
X72815050Y-162792183D01*
X72784665Y-162750361D01*
X72690104Y-162620208D01*
X72690101Y-162620205D01*
X72690099Y-162620202D01*
X72539797Y-162469900D01*
X72539794Y-162469898D01*
X72539792Y-162469896D01*
X72367816Y-162344949D01*
X72178412Y-162248443D01*
X71976243Y-162182754D01*
X71766287Y-162149500D01*
X71553713Y-162149500D01*
X71343757Y-162182754D01*
X71343754Y-162182754D01*
X71343753Y-162182755D01*
X71141588Y-162248443D01*
X71141586Y-162248444D01*
X70952180Y-162344951D01*
X70780205Y-162469898D01*
X70780202Y-162469900D01*
X70629900Y-162620202D01*
X70629898Y-162620205D01*
X70504949Y-162792183D01*
X70502265Y-162797451D01*
X70453516Y-162849065D01*
X70384600Y-162866129D01*
X70317399Y-162843226D01*
X70277735Y-162797451D01*
X70275050Y-162792183D01*
X70244665Y-162750361D01*
X70150104Y-162620208D01*
X70150101Y-162620205D01*
X70150099Y-162620202D01*
X69999797Y-162469900D01*
X69999794Y-162469898D01*
X69999792Y-162469896D01*
X69827816Y-162344949D01*
X69638412Y-162248443D01*
X69436243Y-162182754D01*
X69226287Y-162149500D01*
X69013713Y-162149500D01*
X68803757Y-162182754D01*
X68803754Y-162182754D01*
X68803753Y-162182755D01*
X68601588Y-162248443D01*
X68601586Y-162248444D01*
X68412180Y-162344951D01*
X68240205Y-162469898D01*
X68240202Y-162469900D01*
X68089900Y-162620202D01*
X68089898Y-162620205D01*
X67964949Y-162792183D01*
X67962265Y-162797451D01*
X67913516Y-162849065D01*
X67844600Y-162866129D01*
X67777399Y-162843226D01*
X67737735Y-162797451D01*
X67735050Y-162792183D01*
X67704665Y-162750361D01*
X67610104Y-162620208D01*
X67610101Y-162620205D01*
X67610099Y-162620202D01*
X67459797Y-162469900D01*
X67459794Y-162469898D01*
X67459792Y-162469896D01*
X67287816Y-162344949D01*
X67098412Y-162248443D01*
X66896243Y-162182754D01*
X66686287Y-162149500D01*
X66473713Y-162149500D01*
X66263757Y-162182754D01*
X66263754Y-162182754D01*
X66263753Y-162182755D01*
X66061588Y-162248443D01*
X66061586Y-162248444D01*
X65872180Y-162344951D01*
X65700205Y-162469898D01*
X65700202Y-162469900D01*
X65549900Y-162620202D01*
X65549898Y-162620205D01*
X65424949Y-162792183D01*
X65422265Y-162797451D01*
X65373516Y-162849065D01*
X65304600Y-162866129D01*
X65237399Y-162843226D01*
X65197735Y-162797451D01*
X65195050Y-162792183D01*
X65164665Y-162750361D01*
X65070104Y-162620208D01*
X65070101Y-162620205D01*
X65070099Y-162620202D01*
X64919797Y-162469900D01*
X64919794Y-162469898D01*
X64919792Y-162469896D01*
X64747816Y-162344949D01*
X64558412Y-162248443D01*
X64356243Y-162182754D01*
X64146287Y-162149500D01*
X63933713Y-162149500D01*
X63723757Y-162182754D01*
X63723754Y-162182754D01*
X63723753Y-162182755D01*
X63521588Y-162248443D01*
X63521586Y-162248444D01*
X63332180Y-162344951D01*
X63160207Y-162469896D01*
X63048873Y-162581230D01*
X62986561Y-162615255D01*
X62915745Y-162610189D01*
X62858909Y-162567643D01*
X62841722Y-162536165D01*
X62793798Y-162407673D01*
X62793796Y-162407670D01*
X62793796Y-162407669D01*
X62746844Y-162344949D01*
X62707546Y-162292453D01*
X62630591Y-162234845D01*
X62592331Y-162206204D01*
X62592329Y-162206203D01*
X62592326Y-162206201D01*
X62457483Y-162155909D01*
X62457486Y-162155909D01*
X62397878Y-162149500D01*
X60626500Y-162149500D01*
X60558379Y-162129498D01*
X60511886Y-162075842D01*
X60500500Y-162023500D01*
X60500500Y-141353713D01*
X61109500Y-141353713D01*
X61109500Y-141566287D01*
X61142754Y-141776243D01*
X61208443Y-141978412D01*
X61304949Y-142167816D01*
X61429896Y-142339792D01*
X61429898Y-142339794D01*
X61429900Y-142339797D01*
X61580202Y-142490099D01*
X61580205Y-142490101D01*
X61580208Y-142490104D01*
X61752184Y-142615051D01*
X61755317Y-142616647D01*
X61757451Y-142617735D01*
X61809065Y-142666484D01*
X61826129Y-142735400D01*
X61803226Y-142802601D01*
X61757451Y-142842265D01*
X61752183Y-142844949D01*
X61580205Y-142969898D01*
X61580202Y-142969900D01*
X61429900Y-143120202D01*
X61429898Y-143120205D01*
X61304951Y-143292180D01*
X61304949Y-143292184D01*
X61208443Y-143481588D01*
X61142754Y-143683757D01*
X61109500Y-143893713D01*
X61109500Y-144106287D01*
X61142754Y-144316243D01*
X61208443Y-144518412D01*
X61304949Y-144707816D01*
X61429896Y-144879792D01*
X61429898Y-144879794D01*
X61429900Y-144879797D01*
X61580202Y-145030099D01*
X61580205Y-145030101D01*
X61580208Y-145030104D01*
X61752184Y-145155051D01*
X61755317Y-145156647D01*
X61757451Y-145157735D01*
X61809065Y-145206484D01*
X61826129Y-145275400D01*
X61803226Y-145342601D01*
X61757451Y-145382265D01*
X61752183Y-145384949D01*
X61580205Y-145509898D01*
X61580202Y-145509900D01*
X61429900Y-145660202D01*
X61429898Y-145660205D01*
X61304951Y-145832180D01*
X61304949Y-145832184D01*
X61208443Y-146021588D01*
X61142754Y-146223757D01*
X61109500Y-146433713D01*
X61109500Y-146646287D01*
X61142754Y-146856243D01*
X61208443Y-147058412D01*
X61304949Y-147247816D01*
X61304951Y-147247819D01*
X61309433Y-147253988D01*
X61429896Y-147419792D01*
X61429898Y-147419794D01*
X61429900Y-147419797D01*
X61580202Y-147570099D01*
X61580205Y-147570101D01*
X61580208Y-147570104D01*
X61752184Y-147695051D01*
X61754068Y-147696011D01*
X61757451Y-147697735D01*
X61809065Y-147746484D01*
X61826129Y-147815400D01*
X61803226Y-147882601D01*
X61757451Y-147922265D01*
X61752183Y-147924949D01*
X61580205Y-148049898D01*
X61580202Y-148049900D01*
X61429900Y-148200202D01*
X61429898Y-148200205D01*
X61304951Y-148372180D01*
X61208444Y-148561586D01*
X61208443Y-148561588D01*
X61147348Y-148749619D01*
X61142754Y-148763757D01*
X61109500Y-148973713D01*
X61109500Y-149186287D01*
X61142754Y-149396243D01*
X61208443Y-149598412D01*
X61304949Y-149787816D01*
X61304951Y-149787819D01*
X61335840Y-149830334D01*
X61429896Y-149959792D01*
X61429898Y-149959794D01*
X61429900Y-149959797D01*
X61580202Y-150110099D01*
X61580205Y-150110101D01*
X61580208Y-150110104D01*
X61752184Y-150235051D01*
X61755317Y-150236647D01*
X61757451Y-150237735D01*
X61809065Y-150286484D01*
X61826129Y-150355400D01*
X61803226Y-150422601D01*
X61757451Y-150462265D01*
X61752183Y-150464949D01*
X61580205Y-150589898D01*
X61580202Y-150589900D01*
X61429900Y-150740202D01*
X61429898Y-150740205D01*
X61304951Y-150912180D01*
X61208444Y-151101586D01*
X61208443Y-151101588D01*
X61149476Y-151283070D01*
X61142754Y-151303757D01*
X61109500Y-151513713D01*
X61109500Y-151726287D01*
X61142754Y-151936243D01*
X61208443Y-152138412D01*
X61304949Y-152327816D01*
X61429896Y-152499792D01*
X61429898Y-152499794D01*
X61429900Y-152499797D01*
X61580202Y-152650099D01*
X61580205Y-152650101D01*
X61580208Y-152650104D01*
X61752184Y-152775051D01*
X61753517Y-152775730D01*
X61757451Y-152777735D01*
X61809065Y-152826484D01*
X61826129Y-152895400D01*
X61803226Y-152962601D01*
X61757451Y-153002265D01*
X61752183Y-153004949D01*
X61580205Y-153129898D01*
X61580202Y-153129900D01*
X61429900Y-153280202D01*
X61429898Y-153280205D01*
X61304951Y-153452180D01*
X61208444Y-153641586D01*
X61208443Y-153641588D01*
X61168647Y-153764068D01*
X61142754Y-153843757D01*
X61109500Y-154053713D01*
X61109500Y-154266287D01*
X61142754Y-154476243D01*
X61208443Y-154678412D01*
X61304949Y-154867816D01*
X61429896Y-155039792D01*
X61429898Y-155039794D01*
X61429900Y-155039797D01*
X61580202Y-155190099D01*
X61580205Y-155190101D01*
X61580208Y-155190104D01*
X61752184Y-155315051D01*
X61941588Y-155411557D01*
X62143757Y-155477246D01*
X62353713Y-155510500D01*
X62353716Y-155510500D01*
X62566284Y-155510500D01*
X62566287Y-155510500D01*
X62776243Y-155477246D01*
X62978412Y-155411557D01*
X63167816Y-155315051D01*
X63339792Y-155190104D01*
X63451127Y-155078768D01*
X63513437Y-155044745D01*
X63584253Y-155049809D01*
X63641089Y-155092356D01*
X63658277Y-155123833D01*
X63706202Y-155252328D01*
X63706203Y-155252329D01*
X63792453Y-155367546D01*
X63850061Y-155410671D01*
X63907669Y-155453796D01*
X63907671Y-155453796D01*
X63907673Y-155453798D01*
X63968030Y-155476309D01*
X64042514Y-155504090D01*
X64042517Y-155504091D01*
X64102127Y-155510500D01*
X65897872Y-155510499D01*
X65957483Y-155504091D01*
X66092331Y-155453796D01*
X66207546Y-155367546D01*
X66293796Y-155252331D01*
X66344091Y-155117483D01*
X66350500Y-155057873D01*
X66350499Y-153262128D01*
X66344091Y-153202517D01*
X66317005Y-153129896D01*
X66293798Y-153067673D01*
X66293796Y-153067670D01*
X66293796Y-153067669D01*
X66243017Y-152999837D01*
X66207546Y-152952453D01*
X66114858Y-152883068D01*
X66092331Y-152866204D01*
X66092329Y-152866203D01*
X66092328Y-152866202D01*
X65963833Y-152818277D01*
X65906997Y-152775730D01*
X65882186Y-152709210D01*
X65897277Y-152639836D01*
X65918767Y-152611128D01*
X66030104Y-152499792D01*
X66155051Y-152327816D01*
X66251557Y-152138412D01*
X66317246Y-151936243D01*
X66350500Y-151726287D01*
X66350500Y-151513713D01*
X66317246Y-151303757D01*
X66251557Y-151101588D01*
X66155051Y-150912184D01*
X66030104Y-150740208D01*
X66030101Y-150740205D01*
X66030099Y-150740202D01*
X65879797Y-150589900D01*
X65879794Y-150589898D01*
X65879792Y-150589896D01*
X65707816Y-150464949D01*
X65702551Y-150462266D01*
X65650937Y-150413520D01*
X65633870Y-150344606D01*
X65656770Y-150277404D01*
X65702551Y-150237733D01*
X65707816Y-150235051D01*
X65879792Y-150110104D01*
X66030104Y-149959792D01*
X66155051Y-149787816D01*
X66251557Y-149598412D01*
X66317246Y-149396243D01*
X66350500Y-149186287D01*
X66350500Y-148973713D01*
X66317246Y-148763757D01*
X66251557Y-148561588D01*
X66155051Y-148372184D01*
X66030104Y-148200208D01*
X66030101Y-148200205D01*
X66030099Y-148200202D01*
X65879797Y-148049900D01*
X65879794Y-148049898D01*
X65879792Y-148049896D01*
X65707816Y-147924949D01*
X65702551Y-147922266D01*
X65650937Y-147873520D01*
X65633870Y-147804606D01*
X65656770Y-147737404D01*
X65702551Y-147697733D01*
X65707816Y-147695051D01*
X65879792Y-147570104D01*
X66030104Y-147419792D01*
X66155051Y-147247816D01*
X66251557Y-147058412D01*
X66317246Y-146856243D01*
X66350500Y-146646287D01*
X66350500Y-146433713D01*
X66332003Y-146316929D01*
X78356600Y-146316929D01*
X78356600Y-146316932D01*
X78356600Y-146483068D01*
X78389011Y-146646011D01*
X78452588Y-146799500D01*
X78482918Y-146844892D01*
X78544887Y-146937635D01*
X78544892Y-146937641D01*
X78662358Y-147055107D01*
X78662364Y-147055112D01*
X78800500Y-147147412D01*
X78953989Y-147210989D01*
X79016088Y-147223340D01*
X79078996Y-147256245D01*
X79080602Y-147257824D01*
X80418132Y-148595354D01*
X80531307Y-148670975D01*
X80657061Y-148723064D01*
X80664619Y-148724567D01*
X80676060Y-148726843D01*
X80676063Y-148726843D01*
X80790561Y-148749619D01*
X81261588Y-148749619D01*
X81329709Y-148769621D01*
X81350683Y-148786524D01*
X82362095Y-149797936D01*
X82396121Y-149860248D01*
X82399000Y-149887031D01*
X82399000Y-153173818D01*
X82378998Y-153241939D01*
X82377776Y-153243802D01*
X82371630Y-153253002D01*
X82352588Y-153281499D01*
X82289013Y-153434983D01*
X82289011Y-153434988D01*
X82256600Y-153597929D01*
X82256600Y-153597932D01*
X82256600Y-153764068D01*
X82289011Y-153927011D01*
X82352588Y-154080500D01*
X82414260Y-154172799D01*
X82444887Y-154218635D01*
X82444892Y-154218641D01*
X82562358Y-154336107D01*
X82562364Y-154336112D01*
X82700500Y-154428412D01*
X82853989Y-154491989D01*
X83016932Y-154524400D01*
X83016933Y-154524400D01*
X83183067Y-154524400D01*
X83183068Y-154524400D01*
X83346011Y-154491989D01*
X83499500Y-154428412D01*
X83637636Y-154336112D01*
X83755112Y-154218636D01*
X83847412Y-154080500D01*
X83910989Y-153927011D01*
X83943400Y-153764068D01*
X83943400Y-153597932D01*
X83910989Y-153434989D01*
X83847412Y-153281500D01*
X83802234Y-153213886D01*
X83781020Y-153146133D01*
X83781000Y-153143885D01*
X83781000Y-149480560D01*
X83780999Y-149480557D01*
X83764228Y-149396246D01*
X83754445Y-149347062D01*
X83702356Y-149221308D01*
X83626735Y-149108132D01*
X83626733Y-149108130D01*
X83626728Y-149108124D01*
X82040494Y-147521890D01*
X82040490Y-147521887D01*
X82040487Y-147521884D01*
X81927311Y-147446263D01*
X81856492Y-147416929D01*
X84156600Y-147416929D01*
X84156600Y-147583070D01*
X84179065Y-147696011D01*
X84189011Y-147746011D01*
X84252588Y-147899500D01*
X84314260Y-147991799D01*
X84344887Y-148037635D01*
X84344892Y-148037641D01*
X84462358Y-148155107D01*
X84462364Y-148155112D01*
X84600498Y-148247411D01*
X84600499Y-148247411D01*
X84600500Y-148247412D01*
X84631218Y-148260135D01*
X84686498Y-148304682D01*
X84708920Y-148372045D01*
X84709000Y-148376544D01*
X84709000Y-153455461D01*
X84720294Y-153512235D01*
X84725821Y-153540022D01*
X84735555Y-153588957D01*
X84735556Y-153588959D01*
X84735558Y-153588968D01*
X84777008Y-153689034D01*
X84786600Y-153737253D01*
X84786600Y-153764068D01*
X84819011Y-153927011D01*
X84882588Y-154080500D01*
X84944260Y-154172799D01*
X84974887Y-154218635D01*
X84974892Y-154218641D01*
X85092358Y-154336107D01*
X85092364Y-154336112D01*
X85230500Y-154428412D01*
X85383989Y-154491989D01*
X85546932Y-154524400D01*
X85546933Y-154524400D01*
X85713067Y-154524400D01*
X85713068Y-154524400D01*
X85876011Y-154491989D01*
X86029500Y-154428412D01*
X86167636Y-154336112D01*
X86285112Y-154218636D01*
X86377412Y-154080500D01*
X86440989Y-153927011D01*
X86473400Y-153764068D01*
X86473400Y-153597932D01*
X86440989Y-153434989D01*
X86377412Y-153281500D01*
X86285112Y-153143364D01*
X86285107Y-153143358D01*
X86167641Y-153025892D01*
X86167633Y-153025886D01*
X86146995Y-153012095D01*
X86101469Y-152957617D01*
X86091000Y-152907332D01*
X86091000Y-152431438D01*
X86111002Y-152363317D01*
X86164658Y-152316824D01*
X86234932Y-152306720D01*
X86253571Y-152310862D01*
X86253981Y-152310986D01*
X86253989Y-152310989D01*
X86416932Y-152343400D01*
X86416933Y-152343400D01*
X86587667Y-152343400D01*
X86655788Y-152363402D01*
X86702281Y-152417058D01*
X86712385Y-152487332D01*
X86704076Y-152517618D01*
X86689013Y-152553982D01*
X86689011Y-152553988D01*
X86656600Y-152716929D01*
X86656600Y-152883070D01*
X86680309Y-153002265D01*
X86689011Y-153046011D01*
X86752588Y-153199500D01*
X86780471Y-153241229D01*
X86844887Y-153337635D01*
X86844892Y-153337641D01*
X86962358Y-153455107D01*
X86962364Y-153455112D01*
X87100500Y-153547412D01*
X87253989Y-153610989D01*
X87416932Y-153643400D01*
X87416933Y-153643400D01*
X87583067Y-153643400D01*
X87583068Y-153643400D01*
X87746011Y-153610989D01*
X87899500Y-153547412D01*
X87952146Y-153512235D01*
X88019899Y-153491020D01*
X88022148Y-153491000D01*
X90661588Y-153491000D01*
X90729709Y-153511002D01*
X90750683Y-153527905D01*
X94842173Y-157619395D01*
X94876199Y-157681707D01*
X94876656Y-157683906D01*
X94889009Y-157746005D01*
X94889011Y-157746011D01*
X94952588Y-157899500D01*
X94995199Y-157963271D01*
X95044887Y-158037635D01*
X95044892Y-158037641D01*
X95162358Y-158155107D01*
X95162364Y-158155112D01*
X95300500Y-158247412D01*
X95453989Y-158310989D01*
X95616932Y-158343400D01*
X95616933Y-158343400D01*
X95783067Y-158343400D01*
X95783068Y-158343400D01*
X95946011Y-158310989D01*
X96099500Y-158247412D01*
X96237636Y-158155112D01*
X96355112Y-158037636D01*
X96447412Y-157899500D01*
X96510989Y-157746011D01*
X96543400Y-157583068D01*
X96543400Y-157416932D01*
X96510989Y-157253989D01*
X96447412Y-157100500D01*
X96355112Y-156962364D01*
X96355107Y-156962358D01*
X96237641Y-156844892D01*
X96237635Y-156844887D01*
X96124361Y-156769200D01*
X96099500Y-156752588D01*
X96002710Y-156712496D01*
X95946014Y-156689012D01*
X95946005Y-156689009D01*
X95883906Y-156676656D01*
X95820997Y-156643748D01*
X95819395Y-156642173D01*
X92177060Y-152999837D01*
X92094152Y-152916929D01*
X115556600Y-152916929D01*
X115556600Y-153083070D01*
X115565915Y-153129898D01*
X115589011Y-153246011D01*
X115652588Y-153399500D01*
X115687788Y-153452180D01*
X115744887Y-153537635D01*
X115744892Y-153537641D01*
X115862358Y-153655107D01*
X115862364Y-153655112D01*
X116000500Y-153747412D01*
X116153989Y-153810989D01*
X116316932Y-153843400D01*
X116316933Y-153843400D01*
X116483067Y-153843400D01*
X116483068Y-153843400D01*
X116646011Y-153810989D01*
X116799500Y-153747412D01*
X116852146Y-153712235D01*
X116919899Y-153691020D01*
X116922148Y-153691000D01*
X125380668Y-153691000D01*
X125428885Y-153700590D01*
X125453989Y-153710989D01*
X125616932Y-153743400D01*
X125616933Y-153743400D01*
X125783067Y-153743400D01*
X125783068Y-153743400D01*
X125946011Y-153710989D01*
X126099500Y-153647412D01*
X126237636Y-153555112D01*
X126355112Y-153437636D01*
X126447412Y-153299500D01*
X126510989Y-153146011D01*
X126543400Y-152983068D01*
X126543400Y-152816932D01*
X126510989Y-152653989D01*
X126447412Y-152500500D01*
X126355112Y-152362364D01*
X126355107Y-152362358D01*
X126237641Y-152244892D01*
X126237635Y-152244887D01*
X126191799Y-152214260D01*
X126099500Y-152152588D01*
X125946011Y-152089011D01*
X125783070Y-152056600D01*
X125783068Y-152056600D01*
X125616932Y-152056600D01*
X125616929Y-152056600D01*
X125453988Y-152089011D01*
X125453983Y-152089013D01*
X125300500Y-152152588D01*
X125162364Y-152244887D01*
X125162358Y-152244892D01*
X125135156Y-152272095D01*
X125072844Y-152306121D01*
X125046061Y-152309000D01*
X116922148Y-152309000D01*
X116854027Y-152288998D01*
X116852146Y-152287765D01*
X116799500Y-152252588D01*
X116646016Y-152189013D01*
X116646011Y-152189011D01*
X116483070Y-152156600D01*
X116483068Y-152156600D01*
X116316932Y-152156600D01*
X116316929Y-152156600D01*
X116153988Y-152189011D01*
X116153983Y-152189013D01*
X116000500Y-152252588D01*
X115862364Y-152344887D01*
X115862358Y-152344892D01*
X115744892Y-152462358D01*
X115744887Y-152462364D01*
X115652588Y-152600500D01*
X115589013Y-152753983D01*
X115589011Y-152753988D01*
X115556600Y-152916929D01*
X92094152Y-152916929D01*
X91440494Y-152263271D01*
X91440485Y-152263263D01*
X91426672Y-152254034D01*
X91381145Y-152199557D01*
X91372298Y-152129114D01*
X91402940Y-152065070D01*
X91463342Y-152027759D01*
X91472077Y-152025695D01*
X91546011Y-152010989D01*
X91699500Y-151947412D01*
X91837636Y-151855112D01*
X91955112Y-151737636D01*
X92047412Y-151599500D01*
X92110989Y-151446011D01*
X92143400Y-151283068D01*
X92143400Y-151116932D01*
X92110989Y-150953989D01*
X92047412Y-150800500D01*
X91955112Y-150662364D01*
X91955107Y-150662358D01*
X91837641Y-150544892D01*
X91837635Y-150544887D01*
X91717999Y-150464949D01*
X91699500Y-150452588D01*
X91546011Y-150389011D01*
X91383070Y-150356600D01*
X91383068Y-150356600D01*
X91216932Y-150356600D01*
X91216929Y-150356600D01*
X91053988Y-150389011D01*
X91053983Y-150389013D01*
X90900500Y-150452588D01*
X90762364Y-150544887D01*
X90644888Y-150662364D01*
X90644421Y-150662934D01*
X90644101Y-150663151D01*
X90640512Y-150666741D01*
X90639831Y-150666060D01*
X90585743Y-150702903D01*
X90547022Y-150709000D01*
X89672412Y-150709000D01*
X89604291Y-150688998D01*
X89557798Y-150635342D01*
X89547694Y-150565068D01*
X89577188Y-150500488D01*
X89583317Y-150493905D01*
X91246727Y-148830495D01*
X91246734Y-148830488D01*
X91322355Y-148717312D01*
X91374444Y-148591558D01*
X91386302Y-148531943D01*
X91400999Y-148458059D01*
X91400999Y-147940243D01*
X91421001Y-147872122D01*
X91422174Y-147870330D01*
X91457411Y-147817596D01*
X91520988Y-147664107D01*
X91553399Y-147501164D01*
X91553399Y-147335028D01*
X91520988Y-147172085D01*
X91457411Y-147018596D01*
X91365111Y-146880460D01*
X91365106Y-146880454D01*
X91247640Y-146762988D01*
X91247634Y-146762983D01*
X91157246Y-146702588D01*
X91109499Y-146670684D01*
X90956010Y-146607107D01*
X90953461Y-146606600D01*
X90793069Y-146574696D01*
X90793067Y-146574696D01*
X90626931Y-146574696D01*
X90626928Y-146574696D01*
X90463987Y-146607107D01*
X90463982Y-146607109D01*
X90310499Y-146670684D01*
X90172363Y-146762983D01*
X90172357Y-146762988D01*
X90054891Y-146880454D01*
X90054886Y-146880460D01*
X89962587Y-147018596D01*
X89899012Y-147172079D01*
X89899010Y-147172084D01*
X89866599Y-147335025D01*
X89866599Y-147501166D01*
X89899010Y-147664107D01*
X89899012Y-147664112D01*
X89962585Y-147817593D01*
X89962586Y-147817595D01*
X89962587Y-147817596D01*
X89997765Y-147870243D01*
X90003507Y-147888581D01*
X90013895Y-147904745D01*
X90018417Y-147936200D01*
X90018979Y-147937993D01*
X90018999Y-147940243D01*
X90018999Y-148051588D01*
X89998997Y-148119709D01*
X89982094Y-148140683D01*
X87980602Y-150142174D01*
X87918290Y-150176200D01*
X87916090Y-150176658D01*
X87891623Y-150181524D01*
X87853989Y-150189011D01*
X87853987Y-150189011D01*
X87853971Y-150189015D01*
X87853553Y-150189142D01*
X87853323Y-150189144D01*
X87847920Y-150190219D01*
X87847715Y-150189193D01*
X87782559Y-150189763D01*
X87722500Y-150151902D01*
X87692444Y-150087581D01*
X87691000Y-150068561D01*
X87691000Y-148938412D01*
X87711002Y-148870291D01*
X87727905Y-148849317D01*
X87906248Y-148670974D01*
X88086735Y-148490487D01*
X88162356Y-148377312D01*
X88214445Y-148251558D01*
X88225215Y-148197412D01*
X88241000Y-148118058D01*
X88241000Y-147972147D01*
X88261002Y-147904026D01*
X88262175Y-147902234D01*
X88297412Y-147849500D01*
X88360989Y-147696011D01*
X88393400Y-147533068D01*
X88393400Y-147366932D01*
X88360989Y-147203989D01*
X88297412Y-147050500D01*
X88205112Y-146912364D01*
X88205107Y-146912358D01*
X88087641Y-146794892D01*
X88087635Y-146794887D01*
X88024330Y-146752588D01*
X87949500Y-146702588D01*
X87796011Y-146639011D01*
X87633070Y-146606600D01*
X87633068Y-146606600D01*
X87466932Y-146606600D01*
X87466929Y-146606600D01*
X87303988Y-146639011D01*
X87303983Y-146639013D01*
X87150500Y-146702588D01*
X87012364Y-146794887D01*
X87012358Y-146794892D01*
X86894892Y-146912358D01*
X86894887Y-146912364D01*
X86802588Y-147050500D01*
X86739013Y-147203983D01*
X86739011Y-147203988D01*
X86706600Y-147366929D01*
X86706600Y-147533070D01*
X86739011Y-147696011D01*
X86739014Y-147696021D01*
X86761784Y-147750993D01*
X86769373Y-147821583D01*
X86737593Y-147885070D01*
X86734471Y-147888305D01*
X86463264Y-148159513D01*
X86407297Y-148243275D01*
X86407295Y-148243278D01*
X86401764Y-148251557D01*
X86387644Y-148272689D01*
X86335555Y-148398443D01*
X86335295Y-148399747D01*
X86331463Y-148408076D01*
X86309668Y-148433082D01*
X86288860Y-148458904D01*
X86286470Y-148459699D01*
X86284816Y-148461598D01*
X86252974Y-148470848D01*
X86221497Y-148481325D01*
X86219055Y-148480701D01*
X86216638Y-148481404D01*
X86184852Y-148471971D01*
X86152706Y-148463767D01*
X86150989Y-148461923D01*
X86148575Y-148461207D01*
X86126922Y-148436073D01*
X86104327Y-148411804D01*
X86103689Y-148409104D01*
X86102236Y-148407418D01*
X86100680Y-148396371D01*
X86091000Y-148355405D01*
X86091000Y-147731941D01*
X86090999Y-147731938D01*
X86064445Y-147598443D01*
X86012356Y-147472689D01*
X85988940Y-147437644D01*
X85936735Y-147359513D01*
X85936730Y-147359508D01*
X85936728Y-147359505D01*
X85814412Y-147237189D01*
X85787098Y-147196312D01*
X85777063Y-147172085D01*
X85747412Y-147100500D01*
X85655112Y-146962364D01*
X85655107Y-146962358D01*
X85537641Y-146844892D01*
X85537635Y-146844887D01*
X85462806Y-146794888D01*
X85399500Y-146752588D01*
X85246011Y-146689011D01*
X85083070Y-146656600D01*
X85083068Y-146656600D01*
X84916932Y-146656600D01*
X84916929Y-146656600D01*
X84753988Y-146689011D01*
X84753983Y-146689013D01*
X84600500Y-146752588D01*
X84462364Y-146844887D01*
X84462358Y-146844892D01*
X84344892Y-146962358D01*
X84344887Y-146962364D01*
X84252588Y-147100500D01*
X84189013Y-147253983D01*
X84189011Y-147253988D01*
X84156600Y-147416929D01*
X81856492Y-147416929D01*
X81801557Y-147394174D01*
X81758227Y-147385555D01*
X81758226Y-147385554D01*
X81668061Y-147367619D01*
X81668058Y-147367619D01*
X81197031Y-147367619D01*
X81128910Y-147347617D01*
X81107936Y-147330714D01*
X80057824Y-146280602D01*
X80023798Y-146218290D01*
X80023363Y-146216204D01*
X80010989Y-146153989D01*
X79947412Y-146000500D01*
X79855112Y-145862364D01*
X79855107Y-145862358D01*
X79737641Y-145744892D01*
X79737635Y-145744887D01*
X79691799Y-145714260D01*
X79599500Y-145652588D01*
X79446011Y-145589011D01*
X79283070Y-145556600D01*
X79283068Y-145556600D01*
X79116932Y-145556600D01*
X79116929Y-145556600D01*
X78953988Y-145589011D01*
X78953983Y-145589013D01*
X78800500Y-145652588D01*
X78662364Y-145744887D01*
X78662358Y-145744892D01*
X78544892Y-145862358D01*
X78544887Y-145862364D01*
X78452588Y-146000500D01*
X78389013Y-146153983D01*
X78389011Y-146153988D01*
X78356600Y-146316929D01*
X66332003Y-146316929D01*
X66317246Y-146223757D01*
X66251557Y-146021588D01*
X66155051Y-145832184D01*
X66030104Y-145660208D01*
X66030101Y-145660205D01*
X66030099Y-145660202D01*
X65879797Y-145509900D01*
X65879794Y-145509898D01*
X65879792Y-145509896D01*
X65707816Y-145384949D01*
X65702551Y-145382266D01*
X65650937Y-145333520D01*
X65633870Y-145264606D01*
X65656770Y-145197404D01*
X65702551Y-145157733D01*
X65707816Y-145155051D01*
X65879792Y-145030104D01*
X66030104Y-144879792D01*
X66155051Y-144707816D01*
X66251557Y-144518412D01*
X66317246Y-144316243D01*
X66350500Y-144106287D01*
X66350500Y-143893713D01*
X66317246Y-143683757D01*
X66251557Y-143481588D01*
X66155051Y-143292184D01*
X66030104Y-143120208D01*
X66030101Y-143120205D01*
X66030099Y-143120202D01*
X65879797Y-142969900D01*
X65879794Y-142969898D01*
X65879792Y-142969896D01*
X65707816Y-142844949D01*
X65702551Y-142842266D01*
X65650937Y-142793520D01*
X65633870Y-142724606D01*
X65656770Y-142657404D01*
X65702551Y-142617733D01*
X65707816Y-142615051D01*
X65879792Y-142490104D01*
X66030104Y-142339792D01*
X66155051Y-142167816D01*
X66251557Y-141978412D01*
X66317246Y-141776243D01*
X66350500Y-141566287D01*
X66350500Y-141353713D01*
X66317246Y-141143757D01*
X66251557Y-140941588D01*
X66155051Y-140752184D01*
X66030104Y-140580208D01*
X66030101Y-140580205D01*
X66030099Y-140580202D01*
X65879797Y-140429900D01*
X65879794Y-140429898D01*
X65879792Y-140429896D01*
X65707816Y-140304949D01*
X65518412Y-140208443D01*
X65316243Y-140142754D01*
X65106287Y-140109500D01*
X64893713Y-140109500D01*
X64683757Y-140142754D01*
X64683754Y-140142754D01*
X64683753Y-140142755D01*
X64481588Y-140208443D01*
X64481586Y-140208444D01*
X64292180Y-140304951D01*
X64120205Y-140429898D01*
X64120202Y-140429900D01*
X63969900Y-140580202D01*
X63969898Y-140580205D01*
X63844949Y-140752183D01*
X63842265Y-140757451D01*
X63793516Y-140809065D01*
X63724600Y-140826129D01*
X63657399Y-140803226D01*
X63617735Y-140757451D01*
X63615050Y-140752183D01*
X63615048Y-140752180D01*
X63490104Y-140580208D01*
X63490101Y-140580205D01*
X63490099Y-140580202D01*
X63339797Y-140429900D01*
X63339794Y-140429898D01*
X63339792Y-140429896D01*
X63167816Y-140304949D01*
X62978412Y-140208443D01*
X62776243Y-140142754D01*
X62566287Y-140109500D01*
X62353713Y-140109500D01*
X62143757Y-140142754D01*
X62143754Y-140142754D01*
X62143753Y-140142755D01*
X61941588Y-140208443D01*
X61941586Y-140208444D01*
X61752180Y-140304951D01*
X61580205Y-140429898D01*
X61580202Y-140429900D01*
X61429900Y-140580202D01*
X61429898Y-140580205D01*
X61304951Y-140752180D01*
X61304949Y-140752184D01*
X61208443Y-140941588D01*
X61142754Y-141143757D01*
X61109500Y-141353713D01*
X60500500Y-141353713D01*
X60500500Y-137234650D01*
X122353200Y-137234650D01*
X122353200Y-137400791D01*
X122361588Y-137442959D01*
X122385611Y-137563732D01*
X122449188Y-137717221D01*
X122510860Y-137809520D01*
X122541487Y-137855356D01*
X122541492Y-137855362D01*
X122658958Y-137972828D01*
X122658964Y-137972833D01*
X122797100Y-138065133D01*
X122950589Y-138128710D01*
X123113532Y-138161121D01*
X123113533Y-138161121D01*
X123279667Y-138161121D01*
X123279668Y-138161121D01*
X123442611Y-138128710D01*
X123596100Y-138065133D01*
X123675267Y-138012235D01*
X123743020Y-137991020D01*
X123745269Y-137991000D01*
X125121537Y-137991000D01*
X125189658Y-138011002D01*
X125191539Y-138012235D01*
X125195682Y-138015003D01*
X125333818Y-138107303D01*
X125487307Y-138170880D01*
X125650250Y-138203291D01*
X125650251Y-138203291D01*
X125816385Y-138203291D01*
X125816386Y-138203291D01*
X125979329Y-138170880D01*
X126132818Y-138107303D01*
X126270954Y-138015003D01*
X126388430Y-137897527D01*
X126480730Y-137759391D01*
X126544307Y-137605902D01*
X126576718Y-137442959D01*
X126576718Y-137276823D01*
X126544307Y-137113880D01*
X126480730Y-136960391D01*
X126388430Y-136822255D01*
X126388425Y-136822249D01*
X126270959Y-136704783D01*
X126270953Y-136704778D01*
X126207841Y-136662608D01*
X126132818Y-136612479D01*
X125979329Y-136548902D01*
X125816388Y-136516491D01*
X125816386Y-136516491D01*
X125650250Y-136516491D01*
X125650247Y-136516491D01*
X125487306Y-136548902D01*
X125487301Y-136548904D01*
X125365372Y-136599409D01*
X125317154Y-136609000D01*
X123692227Y-136609000D01*
X123624106Y-136588998D01*
X123622226Y-136587766D01*
X123596100Y-136570309D01*
X123466171Y-136516491D01*
X123442616Y-136506734D01*
X123442611Y-136506732D01*
X123279670Y-136474321D01*
X123279668Y-136474321D01*
X123113532Y-136474321D01*
X123113529Y-136474321D01*
X122950588Y-136506732D01*
X122950583Y-136506734D01*
X122797100Y-136570309D01*
X122658964Y-136662608D01*
X122658958Y-136662613D01*
X122541492Y-136780079D01*
X122541487Y-136780085D01*
X122449188Y-136918221D01*
X122385613Y-137071704D01*
X122385611Y-137071709D01*
X122353200Y-137234650D01*
X60500500Y-137234650D01*
X60500500Y-131760709D01*
X63181500Y-131760709D01*
X63181500Y-132003290D01*
X63213160Y-132243782D01*
X63275944Y-132478095D01*
X63275945Y-132478097D01*
X63275946Y-132478100D01*
X63368776Y-132702212D01*
X63368777Y-132702213D01*
X63368782Y-132702224D01*
X63490061Y-132912285D01*
X63490063Y-132912288D01*
X63490064Y-132912289D01*
X63637735Y-133104738D01*
X63637739Y-133104742D01*
X63637744Y-133104748D01*
X63809251Y-133276255D01*
X63809256Y-133276259D01*
X63809262Y-133276265D01*
X64001711Y-133423936D01*
X64001714Y-133423938D01*
X64211775Y-133545217D01*
X64211779Y-133545218D01*
X64211788Y-133545224D01*
X64435900Y-133638054D01*
X64670211Y-133700838D01*
X64670215Y-133700838D01*
X64670217Y-133700839D01*
X64732202Y-133708999D01*
X64910712Y-133732500D01*
X64910719Y-133732500D01*
X65153281Y-133732500D01*
X65153288Y-133732500D01*
X65370637Y-133703885D01*
X65393782Y-133700839D01*
X65393782Y-133700838D01*
X65393789Y-133700838D01*
X65628100Y-133638054D01*
X65852212Y-133545224D01*
X66062289Y-133423936D01*
X66254738Y-133276265D01*
X66426265Y-133104738D01*
X66573936Y-132912289D01*
X66695224Y-132702212D01*
X66788054Y-132478100D01*
X66850838Y-132243789D01*
X66882500Y-132003288D01*
X66882500Y-131760712D01*
X66853822Y-131542878D01*
X66850839Y-131520217D01*
X66850838Y-131520215D01*
X66850838Y-131520211D01*
X66788054Y-131285900D01*
X66695224Y-131061788D01*
X66695218Y-131061779D01*
X66695217Y-131061775D01*
X66573938Y-130851714D01*
X66567317Y-130843085D01*
X66426265Y-130659262D01*
X66426259Y-130659256D01*
X66426255Y-130659251D01*
X66254748Y-130487744D01*
X66254742Y-130487739D01*
X66254738Y-130487735D01*
X66062289Y-130340064D01*
X66062288Y-130340063D01*
X66062285Y-130340061D01*
X65852224Y-130218782D01*
X65852216Y-130218778D01*
X65852212Y-130218776D01*
X65628100Y-130125946D01*
X65628097Y-130125945D01*
X65628095Y-130125944D01*
X65393782Y-130063160D01*
X65153290Y-130031500D01*
X65153288Y-130031500D01*
X64910712Y-130031500D01*
X64910709Y-130031500D01*
X64670217Y-130063160D01*
X64435904Y-130125944D01*
X64435900Y-130125946D01*
X64276101Y-130192137D01*
X64211786Y-130218777D01*
X64211775Y-130218782D01*
X64001714Y-130340061D01*
X63809262Y-130487735D01*
X63809251Y-130487744D01*
X63637744Y-130659251D01*
X63637735Y-130659262D01*
X63490061Y-130851714D01*
X63368782Y-131061775D01*
X63368777Y-131061786D01*
X63275946Y-131285900D01*
X63275944Y-131285904D01*
X63213160Y-131520217D01*
X63181500Y-131760709D01*
X60500500Y-131760709D01*
X60500500Y-130259504D01*
X60520502Y-130191383D01*
X60537405Y-130170409D01*
X63560693Y-127147121D01*
X146818500Y-127147121D01*
X146818500Y-129042864D01*
X146818502Y-129042885D01*
X146824908Y-129102480D01*
X146824908Y-129102481D01*
X146875203Y-129237330D01*
X146899278Y-129269491D01*
X146924089Y-129336011D01*
X146908998Y-129405385D01*
X146899278Y-129420509D01*
X146875203Y-129452669D01*
X146824909Y-129587515D01*
X146818500Y-129647121D01*
X146818500Y-131542864D01*
X146818502Y-131542885D01*
X146824908Y-131602480D01*
X146824908Y-131602481D01*
X146875201Y-131737326D01*
X146875203Y-131737329D01*
X146961453Y-131852546D01*
X147019061Y-131895671D01*
X147076669Y-131938796D01*
X147076671Y-131938796D01*
X147076673Y-131938798D01*
X147137030Y-131961309D01*
X147211514Y-131989090D01*
X147211517Y-131989091D01*
X147271127Y-131995500D01*
X149866872Y-131995499D01*
X149926483Y-131989091D01*
X150061331Y-131938796D01*
X150176546Y-131852546D01*
X150262796Y-131737331D01*
X150313091Y-131602483D01*
X150319500Y-131542873D01*
X150319499Y-130511230D01*
X152718500Y-130511230D01*
X152718500Y-130678769D01*
X152751185Y-130843085D01*
X152769964Y-130888420D01*
X152815297Y-130997863D01*
X152861835Y-131067512D01*
X152908373Y-131137161D01*
X152908378Y-131137167D01*
X153026832Y-131255621D01*
X153026838Y-131255626D01*
X153166137Y-131348703D01*
X153320918Y-131412816D01*
X153485233Y-131445500D01*
X153485234Y-131445500D01*
X153652766Y-131445500D01*
X153652767Y-131445500D01*
X153817082Y-131412816D01*
X153971863Y-131348703D01*
X154111162Y-131255626D01*
X154229626Y-131137162D01*
X154322703Y-130997863D01*
X154386816Y-130843082D01*
X154419500Y-130678767D01*
X154419500Y-130511233D01*
X154419499Y-130511230D01*
X155218500Y-130511230D01*
X155218500Y-130678769D01*
X155251185Y-130843085D01*
X155269964Y-130888420D01*
X155315297Y-130997863D01*
X155361835Y-131067512D01*
X155408373Y-131137161D01*
X155408378Y-131137167D01*
X155526832Y-131255621D01*
X155526838Y-131255626D01*
X155666137Y-131348703D01*
X155820918Y-131412816D01*
X155985233Y-131445500D01*
X155985234Y-131445500D01*
X156152766Y-131445500D01*
X156152767Y-131445500D01*
X156317082Y-131412816D01*
X156471863Y-131348703D01*
X156611162Y-131255626D01*
X156729626Y-131137162D01*
X156822703Y-130997863D01*
X156886816Y-130843082D01*
X156919500Y-130678767D01*
X156919500Y-130511233D01*
X156886816Y-130346918D01*
X156822703Y-130192137D01*
X156729626Y-130052838D01*
X156729621Y-130052832D01*
X156611167Y-129934378D01*
X156611161Y-129934373D01*
X156471864Y-129841298D01*
X156471865Y-129841298D01*
X156471863Y-129841297D01*
X156317845Y-129777500D01*
X156317085Y-129777185D01*
X156317083Y-129777184D01*
X156317082Y-129777184D01*
X156234368Y-129760731D01*
X156152769Y-129744500D01*
X156152767Y-129744500D01*
X155985233Y-129744500D01*
X155985230Y-129744500D01*
X155862830Y-129768847D01*
X155820918Y-129777184D01*
X155820917Y-129777184D01*
X155820914Y-129777185D01*
X155666135Y-129841298D01*
X155526838Y-129934373D01*
X155526832Y-129934378D01*
X155408378Y-130052832D01*
X155408373Y-130052838D01*
X155315298Y-130192135D01*
X155315297Y-130192137D01*
X155304263Y-130218776D01*
X155251185Y-130346914D01*
X155218500Y-130511230D01*
X154419499Y-130511230D01*
X154386816Y-130346918D01*
X154322703Y-130192137D01*
X154229626Y-130052838D01*
X154229621Y-130052832D01*
X154111167Y-129934378D01*
X154111161Y-129934373D01*
X153971864Y-129841298D01*
X153971865Y-129841298D01*
X153971863Y-129841297D01*
X153817845Y-129777500D01*
X153817085Y-129777185D01*
X153817083Y-129777184D01*
X153817082Y-129777184D01*
X153734368Y-129760731D01*
X153652769Y-129744500D01*
X153652767Y-129744500D01*
X153485233Y-129744500D01*
X153485230Y-129744500D01*
X153362830Y-129768847D01*
X153320918Y-129777184D01*
X153320917Y-129777184D01*
X153320914Y-129777185D01*
X153166135Y-129841298D01*
X153026838Y-129934373D01*
X153026832Y-129934378D01*
X152908378Y-130052832D01*
X152908373Y-130052838D01*
X152815298Y-130192135D01*
X152815297Y-130192137D01*
X152804263Y-130218776D01*
X152751185Y-130346914D01*
X152718500Y-130511230D01*
X150319499Y-130511230D01*
X150319499Y-129647128D01*
X150313091Y-129587517D01*
X150262796Y-129452669D01*
X150238721Y-129420509D01*
X150213909Y-129353992D01*
X150228999Y-129284618D01*
X150238716Y-129269497D01*
X150262796Y-129237331D01*
X150313091Y-129102483D01*
X150319500Y-129042873D01*
X150319499Y-127147128D01*
X150313091Y-127087517D01*
X150291800Y-127030435D01*
X150262798Y-126952673D01*
X150262796Y-126952670D01*
X150262796Y-126952669D01*
X150218566Y-126893585D01*
X150176546Y-126837453D01*
X150099591Y-126779845D01*
X150061331Y-126751204D01*
X150061329Y-126751203D01*
X150061326Y-126751201D01*
X149926483Y-126700909D01*
X149926486Y-126700909D01*
X149866878Y-126694500D01*
X147271135Y-126694500D01*
X147271114Y-126694502D01*
X147211519Y-126700908D01*
X147211518Y-126700908D01*
X147076673Y-126751201D01*
X147076670Y-126751203D01*
X146961453Y-126837453D01*
X146875203Y-126952670D01*
X146875201Y-126952673D01*
X146824909Y-127087515D01*
X146818500Y-127147121D01*
X63560693Y-127147121D01*
X65196584Y-125511230D01*
X147718500Y-125511230D01*
X147718500Y-125511233D01*
X147718500Y-125678767D01*
X147751184Y-125843082D01*
X147815297Y-125997863D01*
X147815298Y-125997864D01*
X147908373Y-126137161D01*
X147908378Y-126137167D01*
X148026832Y-126255621D01*
X148026838Y-126255626D01*
X148166137Y-126348703D01*
X148294357Y-126401814D01*
X148320915Y-126412815D01*
X148320916Y-126412815D01*
X148320918Y-126412816D01*
X148485233Y-126445500D01*
X148652767Y-126445500D01*
X148817082Y-126412816D01*
X148971863Y-126348703D01*
X149111162Y-126255626D01*
X149229626Y-126137162D01*
X149322703Y-125997863D01*
X149386816Y-125843082D01*
X149419500Y-125678767D01*
X149419500Y-125511233D01*
X149386816Y-125346918D01*
X149322703Y-125192137D01*
X149229626Y-125052838D01*
X149229621Y-125052832D01*
X149111167Y-124934378D01*
X149111161Y-124934373D01*
X149018201Y-124872259D01*
X148971863Y-124841297D01*
X148817082Y-124777184D01*
X148724963Y-124758860D01*
X148667846Y-124747499D01*
X148667844Y-124747499D01*
X148652767Y-124744500D01*
X148485233Y-124744500D01*
X148470156Y-124747499D01*
X148470152Y-124747499D01*
X148372157Y-124766991D01*
X148320918Y-124777184D01*
X148320916Y-124777184D01*
X148320915Y-124777185D01*
X148166135Y-124841298D01*
X148026838Y-124934373D01*
X148026832Y-124934378D01*
X147908378Y-125052832D01*
X147908373Y-125052838D01*
X147815298Y-125192135D01*
X147751185Y-125346914D01*
X147718500Y-125511230D01*
X65196584Y-125511230D01*
X71060693Y-119647121D01*
X146818500Y-119647121D01*
X146818500Y-121542864D01*
X146818502Y-121542885D01*
X146824908Y-121602480D01*
X146824908Y-121602481D01*
X146875203Y-121737330D01*
X146899278Y-121769491D01*
X146924089Y-121836011D01*
X146908998Y-121905385D01*
X146899278Y-121920509D01*
X146875203Y-121952669D01*
X146824909Y-122087515D01*
X146818500Y-122147121D01*
X146818500Y-124042864D01*
X146818502Y-124042885D01*
X146824908Y-124102480D01*
X146824908Y-124102481D01*
X146875201Y-124237326D01*
X146875203Y-124237329D01*
X146961453Y-124352546D01*
X147019061Y-124395671D01*
X147076669Y-124438796D01*
X147076671Y-124438796D01*
X147076673Y-124438798D01*
X147137030Y-124461309D01*
X147211514Y-124489090D01*
X147211517Y-124489091D01*
X147271127Y-124495500D01*
X149866872Y-124495499D01*
X149926483Y-124489091D01*
X150061331Y-124438796D01*
X150176546Y-124352546D01*
X150218575Y-124296402D01*
X152161000Y-124296402D01*
X152161000Y-125341000D01*
X153169000Y-125341000D01*
X153169000Y-125849000D01*
X152161000Y-125849000D01*
X152161000Y-126893597D01*
X152167505Y-126954093D01*
X152218555Y-127090964D01*
X152218555Y-127090965D01*
X152306095Y-127207904D01*
X152423034Y-127295444D01*
X152559906Y-127346494D01*
X152620402Y-127352999D01*
X152620415Y-127353000D01*
X153315000Y-127353000D01*
X153315000Y-126256686D01*
X153323394Y-126265080D01*
X153414606Y-126317741D01*
X153516339Y-126345000D01*
X153621661Y-126345000D01*
X153723394Y-126317741D01*
X153814606Y-126265080D01*
X153823000Y-126256686D01*
X153823000Y-127353000D01*
X154517585Y-127353000D01*
X154517597Y-127352999D01*
X154578093Y-127346494D01*
X154714964Y-127295444D01*
X154714965Y-127295444D01*
X154831904Y-127207904D01*
X154919444Y-127090965D01*
X154919444Y-127090964D01*
X154970494Y-126954093D01*
X154976999Y-126893597D01*
X154977000Y-126893585D01*
X154977000Y-125849000D01*
X153969000Y-125849000D01*
X153969000Y-125341000D01*
X154977000Y-125341000D01*
X154977000Y-124296414D01*
X154976999Y-124296402D01*
X154970494Y-124235906D01*
X154919444Y-124099035D01*
X154919444Y-124099034D01*
X154831904Y-123982095D01*
X154714965Y-123894555D01*
X154578093Y-123843505D01*
X154517597Y-123837000D01*
X153823000Y-123837000D01*
X153823000Y-124933314D01*
X153814606Y-124924920D01*
X153723394Y-124872259D01*
X153621661Y-124845000D01*
X153516339Y-124845000D01*
X153414606Y-124872259D01*
X153323394Y-124924920D01*
X153315000Y-124933314D01*
X153315000Y-123837000D01*
X152620402Y-123837000D01*
X152559906Y-123843505D01*
X152423035Y-123894555D01*
X152423034Y-123894555D01*
X152306095Y-123982095D01*
X152218555Y-124099034D01*
X152218555Y-124099035D01*
X152167505Y-124235906D01*
X152161000Y-124296402D01*
X150218575Y-124296402D01*
X150262796Y-124237331D01*
X150313091Y-124102483D01*
X150319500Y-124042873D01*
X150319499Y-122147128D01*
X150313091Y-122087517D01*
X150262796Y-121952669D01*
X150238721Y-121920509D01*
X150213909Y-121853992D01*
X150228999Y-121784618D01*
X150238716Y-121769497D01*
X150262796Y-121737331D01*
X150313091Y-121602483D01*
X150319500Y-121542873D01*
X150319499Y-120511230D01*
X152718500Y-120511230D01*
X152718500Y-120511233D01*
X152718500Y-120678767D01*
X152751184Y-120843082D01*
X152815297Y-120997863D01*
X152815298Y-120997864D01*
X152908373Y-121137161D01*
X152908378Y-121137167D01*
X153026832Y-121255621D01*
X153026838Y-121255626D01*
X153166137Y-121348703D01*
X153320918Y-121412816D01*
X153485233Y-121445500D01*
X153485234Y-121445500D01*
X153652766Y-121445500D01*
X153652767Y-121445500D01*
X153817082Y-121412816D01*
X153971863Y-121348703D01*
X154111162Y-121255626D01*
X154229626Y-121137162D01*
X154322703Y-120997863D01*
X154386816Y-120843082D01*
X154419500Y-120678767D01*
X154419500Y-120511233D01*
X154419499Y-120511230D01*
X155218500Y-120511230D01*
X155218500Y-120511233D01*
X155218500Y-120678767D01*
X155251184Y-120843082D01*
X155315297Y-120997863D01*
X155315298Y-120997864D01*
X155408373Y-121137161D01*
X155408378Y-121137167D01*
X155526832Y-121255621D01*
X155526838Y-121255626D01*
X155666137Y-121348703D01*
X155820918Y-121412816D01*
X155985233Y-121445500D01*
X155985234Y-121445500D01*
X156152766Y-121445500D01*
X156152767Y-121445500D01*
X156317082Y-121412816D01*
X156471863Y-121348703D01*
X156611162Y-121255626D01*
X156729626Y-121137162D01*
X156822703Y-120997863D01*
X156886816Y-120843082D01*
X156919500Y-120678767D01*
X156919500Y-120511233D01*
X156886816Y-120346918D01*
X156822703Y-120192137D01*
X156729626Y-120052838D01*
X156729621Y-120052832D01*
X156611167Y-119934378D01*
X156611161Y-119934373D01*
X156471864Y-119841298D01*
X156471865Y-119841298D01*
X156471863Y-119841297D01*
X156358097Y-119794173D01*
X156317085Y-119777185D01*
X156317083Y-119777184D01*
X156317082Y-119777184D01*
X156234368Y-119760731D01*
X156152769Y-119744500D01*
X156152767Y-119744500D01*
X155985233Y-119744500D01*
X155985230Y-119744500D01*
X155862830Y-119768847D01*
X155820918Y-119777184D01*
X155820917Y-119777184D01*
X155820914Y-119777185D01*
X155666135Y-119841298D01*
X155526838Y-119934373D01*
X155526832Y-119934378D01*
X155408378Y-120052832D01*
X155408373Y-120052838D01*
X155315298Y-120192135D01*
X155251185Y-120346914D01*
X155218500Y-120511230D01*
X154419499Y-120511230D01*
X154386816Y-120346918D01*
X154322703Y-120192137D01*
X154229626Y-120052838D01*
X154229621Y-120052832D01*
X154111167Y-119934378D01*
X154111161Y-119934373D01*
X153971864Y-119841298D01*
X153971865Y-119841298D01*
X153971863Y-119841297D01*
X153858097Y-119794173D01*
X153817085Y-119777185D01*
X153817083Y-119777184D01*
X153817082Y-119777184D01*
X153734368Y-119760731D01*
X153652769Y-119744500D01*
X153652767Y-119744500D01*
X153485233Y-119744500D01*
X153485230Y-119744500D01*
X153362830Y-119768847D01*
X153320918Y-119777184D01*
X153320917Y-119777184D01*
X153320914Y-119777185D01*
X153166135Y-119841298D01*
X153026838Y-119934373D01*
X153026832Y-119934378D01*
X152908378Y-120052832D01*
X152908373Y-120052838D01*
X152815298Y-120192135D01*
X152751185Y-120346914D01*
X152718500Y-120511230D01*
X150319499Y-120511230D01*
X150319499Y-119647128D01*
X150313091Y-119587517D01*
X150291800Y-119530435D01*
X150262798Y-119452673D01*
X150262796Y-119452670D01*
X150262796Y-119452669D01*
X150219671Y-119395061D01*
X150176546Y-119337453D01*
X150083376Y-119267707D01*
X150061331Y-119251204D01*
X150061329Y-119251203D01*
X150061326Y-119251201D01*
X149926483Y-119200909D01*
X149926486Y-119200909D01*
X149866873Y-119194500D01*
X147271135Y-119194500D01*
X147271114Y-119194502D01*
X147211519Y-119200908D01*
X147211518Y-119200908D01*
X147076673Y-119251201D01*
X147076670Y-119251203D01*
X146961453Y-119337453D01*
X146875203Y-119452670D01*
X146875201Y-119452673D01*
X146824909Y-119587515D01*
X146818500Y-119647121D01*
X71060693Y-119647121D01*
X75170409Y-115537405D01*
X75232721Y-115503379D01*
X75259504Y-115500500D01*
X154434108Y-115500500D01*
X154497404Y-115500500D01*
X154502611Y-115500608D01*
G37*
%TD.AperFunction*%
%TD*%
M02*
