%TF.GenerationSoftware,KiCad,Pcbnew,9.0.1+1*%
%TF.CreationDate,2025-09-02T21:23:51+00:00*%
%TF.ProjectId,rcbus-ymf262,72636275-732d-4796-9d66-3236322e6b69,@version@*%
%TF.SameCoordinates,Original*%
%TF.FileFunction,Copper,L1,Top*%
%TF.FilePolarity,Positive*%
%FSLAX46Y46*%
G04 Gerber Fmt 4.6, Leading zero omitted, Abs format (unit mm)*
G04 Created by KiCad (PCBNEW 9.0.1+1) date 2025-09-02 21:23:51*
%MOMM*%
%LPD*%
G01*
G04 APERTURE LIST*
G04 Aperture macros list*
%AMRoundRect*
0 Rectangle with rounded corners*
0 $1 Rounding radius*
0 $2 $3 $4 $5 $6 $7 $8 $9 X,Y pos of 4 corners*
0 Add a 4 corners polygon primitive as box body*
4,1,4,$2,$3,$4,$5,$6,$7,$8,$9,$2,$3,0*
0 Add four circle primitives for the rounded corners*
1,1,$1+$1,$2,$3*
1,1,$1+$1,$4,$5*
1,1,$1+$1,$6,$7*
1,1,$1+$1,$8,$9*
0 Add four rect primitives between the rounded corners*
20,1,$1+$1,$2,$3,$4,$5,0*
20,1,$1+$1,$4,$5,$6,$7,0*
20,1,$1+$1,$6,$7,$8,$9,0*
20,1,$1+$1,$8,$9,$2,$3,0*%
G04 Aperture macros list end*
%TA.AperFunction,SMDPad,CuDef*%
%ADD10RoundRect,0.237500X0.300000X0.237500X-0.300000X0.237500X-0.300000X-0.237500X0.300000X-0.237500X0*%
%TD*%
%TA.AperFunction,ComponentPad*%
%ADD11R,2.500000X1.800000*%
%TD*%
%TA.AperFunction,ComponentPad*%
%ADD12R,1.800000X2.500000*%
%TD*%
%TA.AperFunction,ComponentPad*%
%ADD13R,1.700000X1.700000*%
%TD*%
%TA.AperFunction,ComponentPad*%
%ADD14C,1.700000*%
%TD*%
%TA.AperFunction,ComponentPad*%
%ADD15O,1.700000X1.700000*%
%TD*%
%TA.AperFunction,SMDPad,CuDef*%
%ADD16RoundRect,0.150000X0.150000X-0.875000X0.150000X0.875000X-0.150000X0.875000X-0.150000X-0.875000X0*%
%TD*%
%TA.AperFunction,SMDPad,CuDef*%
%ADD17RoundRect,0.237500X-0.237500X0.300000X-0.237500X-0.300000X0.237500X-0.300000X0.237500X0.300000X0*%
%TD*%
%TA.AperFunction,SMDPad,CuDef*%
%ADD18RoundRect,0.137500X0.137500X-0.862500X0.137500X0.862500X-0.137500X0.862500X-0.137500X-0.862500X0*%
%TD*%
%TA.AperFunction,SMDPad,CuDef*%
%ADD19RoundRect,0.250000X-0.650000X-0.750000X0.650000X-0.750000X0.650000X0.750000X-0.650000X0.750000X0*%
%TD*%
%TA.AperFunction,SMDPad,CuDef*%
%ADD20RoundRect,0.237500X-0.287500X-0.237500X0.287500X-0.237500X0.287500X0.237500X-0.287500X0.237500X0*%
%TD*%
%TA.AperFunction,SMDPad,CuDef*%
%ADD21RoundRect,0.150000X0.150000X-0.650000X0.150000X0.650000X-0.150000X0.650000X-0.150000X-0.650000X0*%
%TD*%
%TA.AperFunction,SMDPad,CuDef*%
%ADD22RoundRect,0.237500X-0.300000X-0.237500X0.300000X-0.237500X0.300000X0.237500X-0.300000X0.237500X0*%
%TD*%
%TA.AperFunction,SMDPad,CuDef*%
%ADD23RoundRect,0.237500X-0.250000X-0.237500X0.250000X-0.237500X0.250000X0.237500X-0.250000X0.237500X0*%
%TD*%
%TA.AperFunction,SMDPad,CuDef*%
%ADD24RoundRect,0.237500X-0.237500X0.250000X-0.237500X-0.250000X0.237500X-0.250000X0.237500X0.250000X0*%
%TD*%
%TA.AperFunction,SMDPad,CuDef*%
%ADD25RoundRect,0.237500X0.237500X-0.300000X0.237500X0.300000X-0.237500X0.300000X-0.237500X-0.300000X0*%
%TD*%
%TA.AperFunction,SMDPad,CuDef*%
%ADD26RoundRect,0.237500X0.250000X0.237500X-0.250000X0.237500X-0.250000X-0.237500X0.250000X-0.237500X0*%
%TD*%
%TA.AperFunction,SMDPad,CuDef*%
%ADD27RoundRect,0.237500X0.237500X-0.250000X0.237500X0.250000X-0.237500X0.250000X-0.237500X-0.250000X0*%
%TD*%
%TA.AperFunction,SMDPad,CuDef*%
%ADD28RoundRect,0.150000X0.150000X-0.825000X0.150000X0.825000X-0.150000X0.825000X-0.150000X-0.825000X0*%
%TD*%
%TA.AperFunction,SMDPad,CuDef*%
%ADD29RoundRect,0.250000X-0.325000X-0.650000X0.325000X-0.650000X0.325000X0.650000X-0.325000X0.650000X0*%
%TD*%
%TA.AperFunction,SMDPad,CuDef*%
%ADD30RoundRect,0.237500X0.287500X0.237500X-0.287500X0.237500X-0.287500X-0.237500X0.287500X-0.237500X0*%
%TD*%
%TA.AperFunction,ViaPad*%
%ADD31C,0.685800*%
%TD*%
%TA.AperFunction,Conductor*%
%ADD32C,0.381000*%
%TD*%
%TA.AperFunction,Conductor*%
%ADD33C,0.762000*%
%TD*%
G04 APERTURE END LIST*
D10*
%TO.P,C1,1*%
%TO.N,VCC*%
X112112500Y-156750000D03*
%TO.P,C1,2*%
%TO.N,GND*%
X110387500Y-156750000D03*
%TD*%
%TO.P,C7,1*%
%TO.N,+5VA*%
X112112500Y-143000000D03*
%TO.P,C7,2*%
%TO.N,GND*%
X110387500Y-143000000D03*
%TD*%
D11*
%TO.P,CON1,R*%
%TO.N,Net-(C18-Pad1)*%
X149069000Y-130095000D03*
%TO.P,CON1,RN*%
X149069000Y-127595000D03*
D12*
%TO.P,CON1,S*%
%TO.N,GND*%
X154069000Y-125095000D03*
D11*
%TO.P,CON1,T*%
%TO.N,Net-(C17-Pad1)*%
X149069000Y-120095000D03*
%TO.P,CON1,TN*%
X149069000Y-122595000D03*
%TD*%
D13*
%TO.P,JP1,1,Pin_1*%
%TO.N,Net-(JP1-Pin_1)*%
X65000000Y-156160000D03*
D14*
%TO.P,JP1,2,Pin_2*%
%TO.N,VCC*%
X62460000Y-156160000D03*
%TO.P,JP1,3,Pin_3*%
%TO.N,Net-(JP1-Pin_3)*%
X65000000Y-153620000D03*
%TO.P,JP1,4,Pin_4*%
%TO.N,VCC*%
X62460000Y-153620000D03*
%TO.P,JP1,5,Pin_5*%
%TO.N,Net-(JP1-Pin_5)*%
X65000000Y-151080000D03*
%TO.P,JP1,6,Pin_6*%
%TO.N,VCC*%
X62460000Y-151080000D03*
%TO.P,JP1,7,Pin_7*%
%TO.N,Net-(JP1-Pin_7)*%
X65000000Y-148540000D03*
%TO.P,JP1,8,Pin_8*%
%TO.N,VCC*%
X62460000Y-148540000D03*
%TO.P,JP1,9,Pin_9*%
%TO.N,Net-(JP1-Pin_9)*%
X65000000Y-146000000D03*
%TO.P,JP1,10,Pin_10*%
%TO.N,VCC*%
X62460000Y-146000000D03*
%TO.P,JP1,11,Pin_11*%
%TO.N,Net-(JP1-Pin_11)*%
X65000000Y-143460000D03*
%TO.P,JP1,12,Pin_12*%
%TO.N,VCC*%
X62460000Y-143460000D03*
%TD*%
D13*
%TO.P,P1,1,Pin_1*%
%TO.N,unconnected-(P1-Pin_1-Pad1)*%
X62000000Y-163000000D03*
D15*
%TO.P,P1,2,Pin_2*%
%TO.N,unconnected-(P1-Pin_2-Pad2)*%
X64540000Y-163000000D03*
%TO.P,P1,3,Pin_3*%
%TO.N,unconnected-(P1-Pin_3-Pad3)*%
X67080000Y-163000000D03*
%TO.P,P1,4,Pin_4*%
%TO.N,unconnected-(P1-Pin_4-Pad4)*%
X69620000Y-163000000D03*
%TO.P,P1,5,Pin_5*%
%TO.N,unconnected-(P1-Pin_5-Pad5)*%
X72160000Y-163000000D03*
%TO.P,P1,6,Pin_6*%
%TO.N,unconnected-(P1-Pin_6-Pad6)*%
X74700000Y-163000000D03*
%TO.P,P1,7,Pin_7*%
%TO.N,unconnected-(P1-Pin_7-Pad7)*%
X77240000Y-163000000D03*
%TO.P,P1,8,Pin_8*%
%TO.N,unconnected-(P1-Pin_8-Pad8)*%
X79780000Y-163000000D03*
%TO.P,P1,9,Pin_9*%
%TO.N,/A7*%
X82320000Y-163000000D03*
%TO.P,P1,10,Pin_10*%
%TO.N,/A6*%
X84860000Y-163000000D03*
%TO.P,P1,11,Pin_11*%
%TO.N,/A5*%
X87400000Y-163000000D03*
%TO.P,P1,12,Pin_12*%
%TO.N,/A4*%
X89940000Y-163000000D03*
%TO.P,P1,13,Pin_13*%
%TO.N,/A3*%
X92480000Y-163000000D03*
%TO.P,P1,14,Pin_14*%
%TO.N,/A2*%
X95020000Y-163000000D03*
%TO.P,P1,15,Pin_15*%
%TO.N,/A1*%
X97560000Y-163000000D03*
%TO.P,P1,16,Pin_16*%
%TO.N,/A0*%
X100100000Y-163000000D03*
%TO.P,P1,17,Pin_17*%
%TO.N,GND*%
X102640000Y-163000000D03*
%TO.P,P1,18,Pin_18*%
%TO.N,VCC*%
X105180000Y-163000000D03*
%TO.P,P1,19,Pin_19*%
%TO.N,unconnected-(P1-Pin_19-Pad19)*%
X107720000Y-163000000D03*
%TO.P,P1,20,Pin_20*%
%TO.N,/~{RESET}*%
X110260000Y-163000000D03*
%TO.P,P1,21,Pin_21*%
%TO.N,unconnected-(P1-Pin_21-Pad21)*%
X112800000Y-163000000D03*
%TO.P,P1,22,Pin_22*%
%TO.N,/~{INT}*%
X115340000Y-163000000D03*
%TO.P,P1,23,Pin_23*%
%TO.N,unconnected-(P1-Pin_23-Pad23)*%
X117880000Y-163000000D03*
%TO.P,P1,24,Pin_24*%
%TO.N,/~{WR}*%
X120420000Y-163000000D03*
%TO.P,P1,25,Pin_25*%
%TO.N,/~{RD}*%
X122960000Y-163000000D03*
%TO.P,P1,26,Pin_26*%
%TO.N,/~{IORQ}*%
X125500000Y-163000000D03*
%TO.P,P1,27,Pin_27*%
%TO.N,/D0*%
X128040000Y-163000000D03*
%TO.P,P1,28,Pin_28*%
%TO.N,/D1*%
X130580000Y-163000000D03*
%TO.P,P1,29,Pin_29*%
%TO.N,/D2*%
X133120000Y-163000000D03*
%TO.P,P1,30,Pin_30*%
%TO.N,/D3*%
X135660000Y-163000000D03*
%TO.P,P1,31,Pin_31*%
%TO.N,/D4*%
X138200000Y-163000000D03*
%TO.P,P1,32,Pin_32*%
%TO.N,/D5*%
X140740000Y-163000000D03*
%TO.P,P1,33,Pin_33*%
%TO.N,/D6*%
X143280000Y-163000000D03*
%TO.P,P1,34,Pin_34*%
%TO.N,/D7*%
X145820000Y-163000000D03*
%TO.P,P1,35,Pin_35*%
%TO.N,unconnected-(P1-Pin_35-Pad35)*%
X148360000Y-163000000D03*
%TO.P,P1,36,Pin_36*%
%TO.N,unconnected-(P1-Pin_36-Pad36)*%
X150900000Y-163000000D03*
%TO.P,P1,37,Pin_37*%
%TO.N,unconnected-(P1-Pin_37-Pad37)*%
X153440000Y-163000000D03*
%TO.P,P1,38,Pin_38*%
%TO.N,unconnected-(P1-Pin_38-Pad38)*%
X155980000Y-163000000D03*
%TO.P,P1,39,Pin_39*%
%TO.N,unconnected-(P1-Pin_39-Pad39)*%
X158520000Y-163000000D03*
%TD*%
D16*
%TO.P,U1,1,G*%
%TO.N,/~{IORQ}*%
X80880000Y-156500000D03*
%TO.P,U1,2,P0*%
%TO.N,/A7*%
X82150000Y-156500000D03*
%TO.P,U1,3,R0*%
%TO.N,Net-(JP1-Pin_11)*%
X83420000Y-156500000D03*
%TO.P,U1,4,P1*%
%TO.N,/A6*%
X84690000Y-156500000D03*
%TO.P,U1,5,R1*%
%TO.N,Net-(JP1-Pin_9)*%
X85960000Y-156500000D03*
%TO.P,U1,6,P2*%
%TO.N,/A5*%
X87230000Y-156500000D03*
%TO.P,U1,7,R2*%
%TO.N,Net-(JP1-Pin_7)*%
X88500000Y-156500000D03*
%TO.P,U1,8,P3*%
%TO.N,/A4*%
X89770000Y-156500000D03*
%TO.P,U1,9,R3*%
%TO.N,Net-(JP1-Pin_5)*%
X91040000Y-156500000D03*
%TO.P,U1,10,GND*%
%TO.N,GND*%
X92310000Y-156500000D03*
%TO.P,U1,11,P4*%
%TO.N,/A3*%
X92310000Y-147200000D03*
%TO.P,U1,12,R4*%
%TO.N,Net-(JP1-Pin_3)*%
X91040000Y-147200000D03*
%TO.P,U1,13,P5*%
%TO.N,/A2*%
X89770000Y-147200000D03*
%TO.P,U1,14,R5*%
%TO.N,Net-(JP1-Pin_1)*%
X88500000Y-147200000D03*
%TO.P,U1,15,P6*%
%TO.N,GND*%
X87230000Y-147200000D03*
%TO.P,U1,16,R6*%
X85960000Y-147200000D03*
%TO.P,U1,17,P7*%
X84690000Y-147200000D03*
%TO.P,U1,18,R7*%
X83420000Y-147200000D03*
%TO.P,U1,19,P=R*%
%TO.N,/~{CS}*%
X82150000Y-147200000D03*
%TO.P,U1,20,VCC*%
%TO.N,VCC*%
X80880000Y-147200000D03*
%TD*%
D17*
%TO.P,C11,1*%
%TO.N,Net-(U3-AOUT)*%
X126000000Y-127637500D03*
%TO.P,C11,2*%
%TO.N,GND*%
X126000000Y-129362500D03*
%TD*%
%TO.P,C8,1*%
%TO.N,Net-(U3-CV)*%
X116500000Y-130500000D03*
%TO.P,C8,2*%
%TO.N,GND*%
X116500000Y-132225000D03*
%TD*%
%TO.P,C12,1*%
%TO.N,+5VA*%
X119250000Y-130500000D03*
%TO.P,C12,2*%
%TO.N,GND*%
X119250000Y-132225000D03*
%TD*%
D18*
%TO.P,U2,1,VDD*%
%TO.N,VCC*%
X114515000Y-156650000D03*
%TO.P,U2,2,~{IRQ}*%
%TO.N,unconnected-(U2-~{IRQ}-Pad2)*%
X115785000Y-156650000D03*
%TO.P,U2,3,~{IC}*%
%TO.N,/~{RESET}*%
X117055000Y-156650000D03*
%TO.P,U2,4,A_{0}*%
%TO.N,/A0*%
X118325000Y-156650000D03*
%TO.P,U2,5,A_{1}*%
%TO.N,/A1*%
X119595000Y-156650000D03*
%TO.P,U2,6,~{WR}*%
%TO.N,/~{WR}*%
X120865000Y-156650000D03*
%TO.P,U2,7,~{RD}*%
%TO.N,/~{RD}*%
X122135000Y-156650000D03*
%TO.P,U2,8,~{CS}*%
%TO.N,/~{CS}*%
X123405000Y-156650000D03*
%TO.P,U2,9,TEST*%
%TO.N,unconnected-(U2-TEST-Pad9)*%
X124675000Y-156650000D03*
%TO.P,U2,10,D_{0}*%
%TO.N,/D0*%
X125945000Y-156650000D03*
%TO.P,U2,11,D_{1}*%
%TO.N,/D1*%
X127215000Y-156650000D03*
%TO.P,U2,12,GND*%
%TO.N,GND*%
X128485000Y-156650000D03*
%TO.P,U2,13,D_{2}*%
%TO.N,/D2*%
X128485000Y-147350000D03*
%TO.P,U2,14,D_{3}*%
%TO.N,/D3*%
X127215000Y-147350000D03*
%TO.P,U2,15,D_{4}*%
%TO.N,/D4*%
X125945000Y-147350000D03*
%TO.P,U2,16,D_{5}*%
%TO.N,/D5*%
X124675000Y-147350000D03*
%TO.P,U2,17,D_{6}*%
%TO.N,/D6*%
X123405000Y-147350000D03*
%TO.P,U2,18,D_{7}*%
%TO.N,/D7*%
X122135000Y-147350000D03*
%TO.P,U2,19,SMPBD*%
%TO.N,/SMPBD*%
X120865000Y-147350000D03*
%TO.P,U2,20,SMPAC*%
%TO.N,/SMPAC*%
X119595000Y-147350000D03*
%TO.P,U2,21,DOAB*%
%TO.N,/DOAB*%
X118325000Y-147350000D03*
%TO.P,U2,22,DOCD*%
%TO.N,unconnected-(U2-DOCD-Pad22)*%
X117055000Y-147350000D03*
%TO.P,U2,23,\u03A6SY*%
%TO.N,/DAC_CLK*%
X115785000Y-147350000D03*
%TO.P,U2,24,\u03A6M*%
%TO.N,/CLK*%
X114515000Y-147350000D03*
%TD*%
D10*
%TO.P,C6,1*%
%TO.N,VCC*%
X80862500Y-145000000D03*
%TO.P,C6,2*%
%TO.N,GND*%
X79137500Y-145000000D03*
%TD*%
D19*
%TO.P,Y1,1,EN*%
%TO.N,VCC*%
X100500000Y-148750000D03*
%TO.P,Y1,2,GND*%
%TO.N,GND*%
X105580000Y-148750000D03*
%TO.P,Y1,3,OUT*%
%TO.N,/CLK*%
X105580000Y-144750000D03*
%TO.P,Y1,4,Vdd*%
%TO.N,VCC*%
X100500000Y-144750000D03*
%TD*%
D20*
%TO.P,L2,1,1*%
%TO.N,+5VA*%
X97125000Y-137000000D03*
%TO.P,L2,2,2*%
%TO.N,Net-(C3-Pad1)*%
X98875000Y-137000000D03*
%TD*%
D21*
%TO.P,U3,1,VDD*%
%TO.N,+5VA*%
X114555000Y-143250000D03*
%TO.P,U3,2,GND*%
%TO.N,GND*%
X115825000Y-143250000D03*
%TO.P,U3,3,VDD*%
%TO.N,+5VA*%
X117095000Y-143250000D03*
%TO.P,U3,4,DIN*%
%TO.N,/DOAB*%
X118365000Y-143250000D03*
%TO.P,U3,5,CLK*%
%TO.N,/DAC_CLK*%
X119635000Y-143250000D03*
%TO.P,U3,6,FSEL*%
%TO.N,+5VA*%
X120905000Y-143250000D03*
%TO.P,U3,7,SMP2*%
%TO.N,/SMPBD*%
X122175000Y-143250000D03*
%TO.P,U3,8,SMP1*%
%TO.N,/SMPAC*%
X123445000Y-143250000D03*
%TO.P,U3,9,TST1*%
%TO.N,+5VA*%
X123445000Y-136750000D03*
%TO.P,U3,10,CH1*%
%TO.N,/AUDIO_CH1*%
X122175000Y-136750000D03*
%TO.P,U3,11,CH2*%
%TO.N,/AUDIO_CH2*%
X120905000Y-136750000D03*
%TO.P,U3,12,SWIN*%
%TO.N,Net-(U3-SWIN)*%
X119635000Y-136750000D03*
%TO.P,U3,13,AOUT*%
%TO.N,Net-(U3-AOUT)*%
X118365000Y-136750000D03*
%TO.P,U3,14,MP*%
%TO.N,Net-(U3-MP)*%
X117095000Y-136750000D03*
%TO.P,U3,15,TST2*%
%TO.N,unconnected-(U3-TST2-Pad15)*%
X115825000Y-136750000D03*
%TO.P,U3,16,CV*%
%TO.N,Net-(U3-CV)*%
X114555000Y-136750000D03*
%TD*%
D22*
%TO.P,C2,1*%
%TO.N,VCC*%
X80637500Y-137000000D03*
%TO.P,C2,2*%
%TO.N,GND*%
X82362500Y-137000000D03*
%TD*%
D23*
%TO.P,R6,1*%
%TO.N,Net-(JP1-Pin_1)*%
X73400000Y-156020000D03*
%TO.P,R6,2*%
%TO.N,GND*%
X75225000Y-156020000D03*
%TD*%
D17*
%TO.P,C13,1*%
%TO.N,/L*%
X125000000Y-117637500D03*
%TO.P,C13,2*%
%TO.N,Net-(U4C--)*%
X125000000Y-119362500D03*
%TD*%
D24*
%TO.P,R10,1*%
%TO.N,Net-(C15-Pad2)*%
X137000000Y-120337500D03*
%TO.P,R10,2*%
%TO.N,Net-(C17-Pad1)*%
X137000000Y-122162500D03*
%TD*%
D25*
%TO.P,C9,1*%
%TO.N,/AUDIO_CH2*%
X120500000Y-119362500D03*
%TO.P,C9,2*%
%TO.N,GND*%
X120500000Y-117637500D03*
%TD*%
D23*
%TO.P,R5,1*%
%TO.N,Net-(JP1-Pin_3)*%
X73400000Y-153510000D03*
%TO.P,R5,2*%
%TO.N,GND*%
X75225000Y-153510000D03*
%TD*%
D26*
%TO.P,R9,1*%
%TO.N,Net-(U4D--)*%
X115750000Y-117500000D03*
%TO.P,R9,2*%
%TO.N,/R*%
X113925000Y-117500000D03*
%TD*%
D25*
%TO.P,C17,1*%
%TO.N,Net-(C17-Pad1)*%
X142250000Y-121862500D03*
%TO.P,C17,2*%
%TO.N,GND*%
X142250000Y-120137500D03*
%TD*%
D27*
%TO.P,R7,1*%
%TO.N,Net-(U3-SWIN)*%
X122250000Y-132325000D03*
%TO.P,R7,2*%
%TO.N,Net-(U4B--)*%
X122250000Y-130500000D03*
%TD*%
%TO.P,R8,1*%
%TO.N,Net-(U4C--)*%
X122750000Y-119412500D03*
%TO.P,R8,2*%
%TO.N,/L*%
X122750000Y-117587500D03*
%TD*%
D23*
%TO.P,R3,1*%
%TO.N,Net-(JP1-Pin_7)*%
X73400000Y-148490000D03*
%TO.P,R3,2*%
%TO.N,GND*%
X75225000Y-148490000D03*
%TD*%
%TO.P,R1,1*%
%TO.N,Net-(JP1-Pin_11)*%
X73225000Y-143470000D03*
%TO.P,R1,2*%
%TO.N,GND*%
X75050000Y-143470000D03*
%TD*%
D25*
%TO.P,C10,1*%
%TO.N,/AUDIO_CH1*%
X117750000Y-119362500D03*
%TO.P,C10,2*%
%TO.N,GND*%
X117750000Y-117637500D03*
%TD*%
D23*
%TO.P,R2,1*%
%TO.N,Net-(JP1-Pin_9)*%
X73225000Y-146060000D03*
%TO.P,R2,2*%
%TO.N,GND*%
X75050000Y-146060000D03*
%TD*%
D28*
%TO.P,U4,1*%
%TO.N,Net-(U3-MP)*%
X115327500Y-127975000D03*
%TO.P,U4,2,-*%
X116597500Y-127975000D03*
%TO.P,U4,3,+*%
%TO.N,Net-(U3-CV)*%
X117867500Y-127975000D03*
%TO.P,U4,4,V+*%
%TO.N,+5VA*%
X119137500Y-127975000D03*
%TO.P,U4,5,+*%
%TO.N,Net-(U3-AOUT)*%
X120407500Y-127975000D03*
%TO.P,U4,6,-*%
%TO.N,Net-(U4B--)*%
X121677500Y-127975000D03*
%TO.P,U4,7*%
X122947500Y-127975000D03*
%TO.P,U4,8*%
%TO.N,/L*%
X122947500Y-123025000D03*
%TO.P,U4,9,-*%
%TO.N,Net-(U4C--)*%
X121677500Y-123025000D03*
%TO.P,U4,10,+*%
%TO.N,/AUDIO_CH2*%
X120407500Y-123025000D03*
%TO.P,U4,11,V-*%
%TO.N,GND*%
X119137500Y-123025000D03*
%TO.P,U4,12,+*%
%TO.N,/AUDIO_CH1*%
X117867500Y-123025000D03*
%TO.P,U4,13,-*%
%TO.N,Net-(U4D--)*%
X116597500Y-123025000D03*
%TO.P,U4,14*%
%TO.N,/R*%
X115327500Y-123025000D03*
%TD*%
D25*
%TO.P,C16,1*%
%TO.N,/R*%
X131964600Y-117750000D03*
%TO.P,C16,2*%
%TO.N,Net-(C16-Pad2)*%
X131964600Y-116025000D03*
%TD*%
D29*
%TO.P,C4,1*%
%TO.N,Net-(C3-Pad1)*%
X91025000Y-137000000D03*
%TO.P,C4,2*%
%TO.N,GND*%
X93975000Y-137000000D03*
%TD*%
D23*
%TO.P,R4,1*%
%TO.N,Net-(JP1-Pin_5)*%
X73400000Y-151000000D03*
%TO.P,R4,2*%
%TO.N,GND*%
X75225000Y-151000000D03*
%TD*%
D29*
%TO.P,C5,1*%
%TO.N,+5VA*%
X101525000Y-136500000D03*
%TO.P,C5,2*%
%TO.N,GND*%
X104475000Y-136500000D03*
%TD*%
D25*
%TO.P,C18,1*%
%TO.N,Net-(C18-Pad1)*%
X142239600Y-117750000D03*
%TO.P,C18,2*%
%TO.N,GND*%
X142239600Y-116025000D03*
%TD*%
%TO.P,C15,1*%
%TO.N,/L*%
X132000000Y-121862500D03*
%TO.P,C15,2*%
%TO.N,Net-(C15-Pad2)*%
X132000000Y-120137500D03*
%TD*%
D24*
%TO.P,R11,1*%
%TO.N,Net-(C16-Pad2)*%
X137014600Y-115975000D03*
%TO.P,R11,2*%
%TO.N,Net-(C18-Pad1)*%
X137014600Y-117800000D03*
%TD*%
D22*
%TO.P,C19,1*%
%TO.N,VCC*%
X100387500Y-142250000D03*
%TO.P,C19,2*%
%TO.N,GND*%
X102112500Y-142250000D03*
%TD*%
%TO.P,C3,1*%
%TO.N,Net-(C3-Pad1)*%
X86137500Y-137000000D03*
%TO.P,C3,2*%
%TO.N,GND*%
X87862500Y-137000000D03*
%TD*%
D30*
%TO.P,L1,1,1*%
%TO.N,Net-(C3-Pad1)*%
X85000000Y-132000000D03*
%TO.P,L1,2,2*%
%TO.N,VCC*%
X83250000Y-132000000D03*
%TD*%
D10*
%TO.P,C14,1*%
%TO.N,Net-(U4D--)*%
X115612500Y-119500000D03*
%TO.P,C14,2*%
%TO.N,/R*%
X113887500Y-119500000D03*
%TD*%
D31*
%TO.N,VCC*%
X92212600Y-154250000D03*
X100500000Y-154250000D03*
%TO.N,GND*%
X76700000Y-153500000D03*
X76143018Y-144056982D03*
X61000000Y-135000000D03*
X81000000Y-130000000D03*
X71000000Y-135000000D03*
X86000000Y-115000000D03*
X91000000Y-125000000D03*
X81000000Y-125000000D03*
X86000000Y-130000000D03*
X61000000Y-140000000D03*
X76000000Y-115000000D03*
X76000000Y-130000000D03*
X81000000Y-115000000D03*
X97750000Y-157750000D03*
X61000000Y-155000000D03*
X71000000Y-140000000D03*
X128485000Y-158500000D03*
X76700000Y-156000000D03*
X86000000Y-125000000D03*
X66000000Y-125000000D03*
X101000000Y-120000000D03*
X126000000Y-131000000D03*
X76700000Y-148500000D03*
X115800000Y-141400000D03*
X61000000Y-130000000D03*
X119000000Y-120750000D03*
X101000000Y-130000000D03*
X76000000Y-120000000D03*
X83731069Y-145881900D03*
X91000000Y-120000000D03*
X76000000Y-140000000D03*
X106000000Y-115000000D03*
X119250000Y-133750000D03*
X61000000Y-150000000D03*
X96000000Y-120000000D03*
X96000000Y-130000000D03*
X115000000Y-132250000D03*
X66000000Y-140000000D03*
X96000000Y-115000000D03*
X61000000Y-160000000D03*
X101000000Y-115000000D03*
X86000000Y-120000000D03*
X61000000Y-145000000D03*
X143702100Y-115987500D03*
X71000000Y-120000000D03*
X92310001Y-158439999D03*
X106000000Y-120000000D03*
X106000000Y-130000000D03*
X76000000Y-125000000D03*
X91000000Y-115000000D03*
X76700000Y-146000000D03*
X81000000Y-120000000D03*
X96000000Y-125000000D03*
X76700000Y-151000000D03*
X71000000Y-130000000D03*
X91000000Y-130000000D03*
X106000000Y-125000000D03*
X143800000Y-120100000D03*
X76000000Y-135000000D03*
X71000000Y-125000000D03*
X101000000Y-125000000D03*
X66000000Y-135000000D03*
%TO.N,/~{IORQ}*%
X123800000Y-158500000D03*
X85000000Y-154450000D03*
%TO.N,/DAC_CLK*%
X119537412Y-145143729D03*
X116700000Y-145400000D03*
%TO.N,Net-(C3-Pad1)*%
X86150000Y-135100000D03*
X98626500Y-135927200D03*
X91493300Y-135501900D03*
%TO.N,/AUDIO_CH2*%
X124500000Y-128000000D03*
X120500000Y-124500000D03*
%TO.N,+5VA*%
X95928500Y-136136200D03*
%TO.N,Net-(JP1-Pin_1)*%
X88500001Y-150474799D03*
X81368224Y-153118224D03*
%TO.N,Net-(JP1-Pin_9)*%
X85895910Y-151240000D03*
X85983804Y-153449800D03*
%TO.N,Net-(JP1-Pin_11)*%
X72956600Y-144814800D03*
X82937400Y-159600000D03*
%TO.N,Net-(JP1-Pin_3)*%
X78805238Y-153471756D03*
X90500000Y-149817600D03*
%TO.N,Net-(JP1-Pin_5)*%
X80874257Y-151454431D03*
X79176756Y-151880846D03*
%TD*%
D32*
%TO.N,VCC*%
X114515000Y-156650000D02*
X112212500Y-156650000D01*
X80880000Y-145017500D02*
X80862500Y-145000000D01*
X89914144Y-154250000D02*
X92212600Y-154250000D01*
X100500000Y-152000000D02*
X100500000Y-154250000D01*
X100500000Y-149470000D02*
X100620000Y-149350000D01*
X63755500Y-142164500D02*
X75639501Y-142164500D01*
X110750000Y-159000000D02*
X112000000Y-157750000D01*
X80650000Y-136987500D02*
X80637500Y-137000000D01*
X83250000Y-132000000D02*
X82832600Y-132431900D01*
X80880000Y-147200000D02*
X80880000Y-148381974D01*
D33*
X83000000Y-142000000D02*
X80637500Y-139637500D01*
D32*
X86683310Y-150714048D02*
X86683310Y-151019166D01*
X62460000Y-143460000D02*
X62460000Y-156160000D01*
X112000000Y-156750000D02*
X112112500Y-156750000D01*
X62460000Y-143460000D02*
X63755500Y-142164500D01*
X80880000Y-147200000D02*
X80880000Y-145017500D01*
X100500000Y-152000000D02*
X100500000Y-149470000D01*
D33*
X80637500Y-139637500D02*
X80637500Y-137000000D01*
D32*
X107000000Y-159000000D02*
X110750000Y-159000000D01*
X86158741Y-150189479D02*
X86683310Y-150714048D01*
X105180000Y-160820000D02*
X107000000Y-159000000D01*
X80880000Y-148381974D02*
X82687505Y-150189479D01*
X79147876Y-147238600D02*
X80832800Y-147238600D01*
X78000000Y-144524999D02*
X78000000Y-146090724D01*
X100620000Y-144150000D02*
X100620000Y-149350000D01*
X75639501Y-142164500D02*
X78000000Y-144524999D01*
X82687505Y-150189479D02*
X86158741Y-150189479D01*
X78000000Y-146090724D02*
X79147876Y-147238600D01*
X80650000Y-134614500D02*
X80650000Y-136987500D01*
D33*
X93750000Y-142000000D02*
X83000000Y-142000000D01*
D32*
X105180000Y-163000000D02*
X105180000Y-160820000D01*
X112212500Y-156650000D02*
X112112500Y-156750000D01*
D33*
X100500000Y-148750000D02*
X93750000Y-142000000D01*
D32*
X100500000Y-142362500D02*
X100387500Y-142250000D01*
X82832600Y-132431900D02*
X80650000Y-134614500D01*
X86683310Y-151019166D02*
X89914144Y-154250000D01*
X112000000Y-157750000D02*
X112000000Y-156750000D01*
X100500000Y-144750000D02*
X100500000Y-142362500D01*
%TO.N,GND*%
X115825000Y-141425000D02*
X115800000Y-141400000D01*
X86000000Y-149000000D02*
X87230000Y-149000000D01*
X75225000Y-148490000D02*
X76690000Y-148490000D01*
X91644200Y-134458400D02*
X91515100Y-134587500D01*
X82891800Y-137283100D02*
X82362500Y-137000000D01*
X93409200Y-136124600D02*
X93492500Y-136124600D01*
X76690000Y-153510000D02*
X76700000Y-153500000D01*
X75050000Y-143470000D02*
X75556036Y-143470000D01*
X85960000Y-147200000D02*
X85960000Y-148960000D01*
X102264100Y-135101100D02*
X102250600Y-135101100D01*
X95549700Y-135221800D02*
X94701300Y-136070200D01*
X101321500Y-135027500D02*
X102086700Y-135027500D01*
X75225000Y-156020000D02*
X76680000Y-156020000D01*
X101321500Y-135027500D02*
X101284500Y-134990500D01*
X100060600Y-134990500D02*
X99320900Y-134250800D01*
X83666000Y-138047400D02*
X86946200Y-138047400D01*
X119250000Y-132225000D02*
X119250000Y-133750000D01*
X116500000Y-132225000D02*
X115025000Y-132225000D01*
X103169700Y-163000000D02*
X102640000Y-163000000D01*
X75225000Y-153510000D02*
X76690000Y-153510000D01*
X76640000Y-146060000D02*
X76700000Y-146000000D01*
X82901700Y-137283100D02*
X82891800Y-137283100D01*
X103908600Y-135802000D02*
X102965000Y-135802000D01*
X83417900Y-147794174D02*
X83417900Y-149000000D01*
X94701300Y-136070200D02*
X94376100Y-136070200D01*
X83731069Y-146888931D02*
X83731069Y-145881900D01*
X84700000Y-149000000D02*
X86000000Y-149000000D01*
X94348000Y-136098300D02*
X94348000Y-136108600D01*
X115825000Y-143250000D02*
X115825000Y-141425000D01*
X91515100Y-134587500D02*
X91114500Y-134587500D01*
X126000000Y-129362500D02*
X126000000Y-131000000D01*
X102965000Y-135802000D02*
X102264100Y-135101100D01*
X88357000Y-136632600D02*
X88356900Y-136632600D01*
X119137500Y-123025000D02*
X119137500Y-120887500D01*
X94348000Y-136108600D02*
X93975000Y-137000000D01*
X75050000Y-146060000D02*
X76640000Y-146060000D01*
X83731069Y-145731500D02*
X83731069Y-145881900D01*
X91773300Y-134587500D02*
X91872100Y-134587500D01*
X83417900Y-149000000D02*
X84700000Y-149000000D01*
X92310000Y-156500000D02*
X92310001Y-158439999D01*
X93492500Y-136124600D02*
X93513300Y-136145400D01*
X83666000Y-138047400D02*
X82901700Y-137283100D01*
X102134700Y-135037100D02*
X102096300Y-135037100D01*
X75556036Y-143470000D02*
X76143018Y-144056982D01*
X87516900Y-137476700D02*
X87490200Y-137503400D01*
X102144300Y-135046700D02*
X102134700Y-135037100D01*
X84690000Y-148990000D02*
X84700000Y-149000000D01*
X87516900Y-137466800D02*
X87516900Y-137476700D01*
X102209900Y-135073900D02*
X102182700Y-135046700D01*
X119137500Y-120887500D02*
X119000000Y-120750000D01*
X87490200Y-137503400D02*
X86946200Y-138047400D01*
X91644200Y-134458400D02*
X91773300Y-134587500D01*
X102250600Y-135101100D02*
X102223400Y-135073900D01*
X143762500Y-120137500D02*
X143800000Y-120100000D01*
X75225000Y-151000000D02*
X76700000Y-151000000D01*
X128485000Y-156650000D02*
X128485000Y-158500000D01*
X102182700Y-135046700D02*
X102144300Y-135046700D01*
X102223400Y-135073900D02*
X102209900Y-135073900D01*
X142250000Y-120137500D02*
X143762500Y-120137500D01*
X96961100Y-135221800D02*
X95549700Y-135221800D01*
X87230000Y-149000000D02*
X87230000Y-147664200D01*
X87862500Y-137000000D02*
X87516900Y-137466800D01*
X76690000Y-148490000D02*
X76700000Y-148500000D01*
X115025000Y-132225000D02*
X115000000Y-132250000D01*
X91872100Y-134587500D02*
X93409200Y-136124600D01*
X89076300Y-136625700D02*
X88363900Y-136625700D01*
X76680000Y-156020000D02*
X76700000Y-156000000D01*
X84690000Y-147200000D02*
X84690000Y-148990000D01*
X142239600Y-116025000D02*
X143664600Y-116025000D01*
X99320900Y-134250800D02*
X97932100Y-134250800D01*
X88363900Y-136625700D02*
X88357000Y-136632600D01*
X94376100Y-136070200D02*
X94348000Y-136098300D01*
X101284500Y-134990500D02*
X100060600Y-134990500D01*
X91114500Y-134587500D02*
X89076300Y-136625700D01*
X143664600Y-116025000D02*
X143702100Y-115987500D01*
X85960000Y-148960000D02*
X86000000Y-149000000D01*
X88356900Y-136632600D02*
X87862500Y-137000000D01*
X102096300Y-135037100D02*
X102086700Y-135027500D01*
X83424720Y-145731500D02*
X83731069Y-145731500D01*
X97932100Y-134250800D02*
X96961100Y-135221800D01*
X93513300Y-136145400D02*
X93975000Y-137000000D01*
X83420000Y-147200000D02*
X83731069Y-146888931D01*
X104475000Y-136500000D02*
X103908600Y-135802000D01*
%TO.N,/CLK*%
X105880000Y-144150000D02*
X106980000Y-145250000D01*
X114515000Y-145765000D02*
X114515000Y-147350000D01*
X114000000Y-145250000D02*
X114515000Y-145765000D01*
X106980000Y-145250000D02*
X114000000Y-145250000D01*
%TO.N,/D0*%
X125945000Y-156650000D02*
X125945000Y-157650500D01*
X125945000Y-157650500D02*
X125945000Y-160905000D01*
X125945000Y-160905000D02*
X128040000Y-163000000D01*
%TO.N,/D1*%
X128267400Y-160687400D02*
X130580000Y-163000000D01*
X128173848Y-160687400D02*
X128267400Y-160687400D01*
X127200000Y-159713552D02*
X128173848Y-160687400D01*
X127200000Y-156665000D02*
X127200000Y-159713552D01*
%TO.N,/D2*%
X128485000Y-147350000D02*
X128485000Y-149235000D01*
X128485000Y-149235000D02*
X133120000Y-153870000D01*
X133120000Y-153870000D02*
X133120000Y-163000000D01*
%TO.N,/D3*%
X127215000Y-147350000D02*
X127215000Y-146035000D01*
X135660000Y-152379648D02*
X135660000Y-163000000D01*
X127215000Y-146035000D02*
X127750000Y-145500000D01*
X128780352Y-145500000D02*
X135660000Y-152379648D01*
X127750000Y-145500000D02*
X128780352Y-145500000D01*
%TO.N,/D4*%
X130179335Y-144865000D02*
X127227104Y-144865000D01*
X127227104Y-144865000D02*
X125945000Y-146147104D01*
X125945000Y-146147104D02*
X125945000Y-147350000D01*
X138200000Y-152885665D02*
X130179335Y-144865000D01*
X138200000Y-163000000D02*
X138200000Y-152885665D01*
%TO.N,/D5*%
X132230000Y-144230000D02*
X126964078Y-144230000D01*
X140740000Y-152740000D02*
X132230000Y-144230000D01*
X126964078Y-144230000D02*
X124675000Y-146519078D01*
X124675000Y-146519078D02*
X124675000Y-147350000D01*
X140740000Y-163000000D02*
X140740000Y-152740000D01*
%TO.N,/D6*%
X134594000Y-143594000D02*
X126700638Y-143594000D01*
X124292202Y-145904500D02*
X123405000Y-146791702D01*
X126700638Y-143594000D02*
X124390138Y-145904500D01*
X123405000Y-146791702D02*
X123405000Y-147350000D01*
X124390138Y-145904500D02*
X124292202Y-145904500D01*
X143280000Y-163000000D02*
X143280000Y-152280000D01*
X143280000Y-152280000D02*
X134594000Y-143594000D01*
%TO.N,/D7*%
X124024934Y-145269500D02*
X123390934Y-145903500D01*
X127396612Y-142000000D02*
X124127112Y-145269500D01*
X122581501Y-145903500D02*
X122135000Y-146350001D01*
X122135000Y-146350001D02*
X122135000Y-147350000D01*
X136000000Y-142000000D02*
X127396612Y-142000000D01*
X145820000Y-163000000D02*
X145820000Y-151820000D01*
X145820000Y-151820000D02*
X136000000Y-142000000D01*
X123390934Y-145903500D02*
X122581501Y-145903500D01*
X124127112Y-145269500D02*
X124024934Y-145269500D01*
%TO.N,/A1*%
X119595000Y-155345000D02*
X118615000Y-154365000D01*
X105945000Y-154615000D02*
X97560000Y-163000000D01*
X107236974Y-154365000D02*
X106986974Y-154615000D01*
X106986974Y-154615000D02*
X105945000Y-154615000D01*
X118615000Y-154365000D02*
X107236974Y-154365000D01*
X119595000Y-156650000D02*
X119595000Y-155345000D01*
%TO.N,/A4*%
X89770000Y-159070000D02*
X89940000Y-159240000D01*
X89940000Y-159240000D02*
X89940000Y-163000000D01*
X89770000Y-156560000D02*
X89770000Y-159070000D01*
X89800000Y-156530000D02*
X89770000Y-156560000D01*
%TO.N,/A3*%
X94000000Y-161480000D02*
X92480000Y-163000000D01*
X94000000Y-153307629D02*
X94000000Y-161480000D01*
X92300000Y-147210000D02*
X92300000Y-151607629D01*
X92300000Y-151607629D02*
X94000000Y-153307629D01*
%TO.N,/A2*%
X93055500Y-151465103D02*
X95000000Y-153409603D01*
X95000000Y-153409603D02*
X95000000Y-162980000D01*
X90215501Y-145729500D02*
X92710820Y-145729500D01*
X92710820Y-145729500D02*
X93055500Y-146074180D01*
X89770000Y-146175001D02*
X90215501Y-145729500D01*
X95000000Y-162980000D02*
X95020000Y-163000000D01*
X93055500Y-146074180D02*
X93055500Y-151465103D01*
X89770000Y-147200000D02*
X89770000Y-146175001D01*
%TO.N,/A5*%
X87200000Y-156530000D02*
X87200000Y-159200000D01*
X87400000Y-159400000D02*
X87400000Y-163000000D01*
X87200000Y-159200000D02*
X87400000Y-159400000D01*
%TO.N,/A6*%
X84700000Y-156510000D02*
X84700000Y-159300000D01*
X84860000Y-159460000D02*
X84860000Y-163000000D01*
X84700000Y-159300000D02*
X84860000Y-159460000D01*
%TO.N,/A7*%
X82150000Y-162830000D02*
X82320000Y-163000000D01*
X82150000Y-156500000D02*
X82150000Y-162830000D01*
%TO.N,/A0*%
X101521500Y-161578500D02*
X101521500Y-160978500D01*
X100100000Y-163000000D02*
X101521500Y-161578500D01*
X118325000Y-155575000D02*
X118325000Y-156650000D01*
X101521500Y-160978500D02*
X107295500Y-155204500D01*
X107295500Y-155204500D02*
X117954500Y-155204500D01*
X117954500Y-155204500D02*
X118325000Y-155575000D01*
%TO.N,/~{CS}*%
X106973948Y-153730000D02*
X118878026Y-153730000D01*
X106723948Y-153980000D02*
X106973948Y-153730000D01*
X100826152Y-155037400D02*
X101883552Y-153980000D01*
X82150000Y-145598586D02*
X82654086Y-145094500D01*
X101883552Y-153980000D02*
X106723948Y-153980000D01*
X122883200Y-155083200D02*
X123405000Y-155605000D01*
X123405000Y-155605000D02*
X123405000Y-156650000D01*
X82150000Y-147200000D02*
X82150000Y-145598586D01*
X92973846Y-145094500D02*
X93690500Y-145811154D01*
X99287400Y-155037400D02*
X100826152Y-155037400D01*
X93690500Y-149440500D02*
X99287400Y-155037400D01*
X93690500Y-145811154D02*
X93690500Y-149440500D01*
X82654086Y-145094500D02*
X92973846Y-145094500D01*
X120231226Y-155083200D02*
X122883200Y-155083200D01*
X118878026Y-153730000D02*
X120231226Y-155083200D01*
%TO.N,/~{RESET}*%
X115400000Y-159200000D02*
X117055000Y-157545000D01*
X117055000Y-156760000D02*
X117000000Y-156705000D01*
X110260000Y-162825300D02*
X113885300Y-159200000D01*
X113885300Y-159200000D02*
X115400000Y-159200000D01*
X117055000Y-157545000D02*
X117055000Y-156760000D01*
%TO.N,/~{WR}*%
X120865000Y-159335000D02*
X120420000Y-159780000D01*
X120420000Y-159780000D02*
X120420000Y-163000000D01*
X120865000Y-156650000D02*
X120865000Y-159335000D01*
%TO.N,/~{IORQ}*%
X80880000Y-155333552D02*
X81763552Y-154450000D01*
X81763552Y-154450000D02*
X85000000Y-154450000D01*
X125500000Y-163000000D02*
X123800000Y-161300000D01*
X123800000Y-161300000D02*
X123800000Y-158500000D01*
X80880000Y-156500000D02*
X80880000Y-155333552D01*
%TO.N,/~{RD}*%
X122135000Y-157650500D02*
X122135000Y-162175000D01*
X122135000Y-162175000D02*
X122960000Y-163000000D01*
X122135000Y-156650000D02*
X122135000Y-157650500D01*
%TO.N,/DAC_CLK*%
X119635000Y-145046141D02*
X119537412Y-145143729D01*
X115785000Y-147350000D02*
X115785000Y-146315000D01*
X115785000Y-146315000D02*
X116700000Y-145400000D01*
X119635000Y-143250000D02*
X119635000Y-145046141D01*
%TO.N,/R*%
X115327500Y-123025000D02*
X115327500Y-120940000D01*
X113925000Y-119462500D02*
X113887500Y-119500000D01*
X113925000Y-117500000D02*
X113925000Y-119462500D01*
X115675000Y-115750000D02*
X129964600Y-115750000D01*
X129964600Y-115750000D02*
X131964600Y-117750000D01*
X113925000Y-117500000D02*
X115675000Y-115750000D01*
X115327500Y-120940000D02*
X113887500Y-119500000D01*
%TO.N,/L*%
X126500000Y-119750000D02*
X126500000Y-118000000D01*
X124950000Y-117587500D02*
X125000000Y-117637500D01*
X126137500Y-117637500D02*
X125000000Y-117637500D01*
X125750000Y-120500000D02*
X126500000Y-119750000D01*
X126500000Y-118000000D02*
X126137500Y-117637500D01*
X128612500Y-121862500D02*
X132000000Y-121862500D01*
X122947500Y-123025000D02*
X123000000Y-122972500D01*
X122750000Y-117587500D02*
X124950000Y-117587500D01*
X126500000Y-119750000D02*
X128612500Y-121862500D01*
X123500000Y-120500000D02*
X125750000Y-120500000D01*
X123000000Y-122972500D02*
X123000000Y-121000000D01*
X123000000Y-121000000D02*
X123500000Y-120500000D01*
%TO.N,/SMPBD*%
X123997879Y-144497879D02*
X123898529Y-144497879D01*
X122175000Y-143250000D02*
X122175000Y-142450001D01*
X120865000Y-146720561D02*
X120865000Y-147350000D01*
X122175000Y-142450001D02*
X122620501Y-142004500D01*
X124190500Y-142349180D02*
X124190500Y-144305258D01*
X122620501Y-142004500D02*
X123845820Y-142004500D01*
X123898529Y-144497879D02*
X123127908Y-145268500D01*
X123127908Y-145268500D02*
X122317061Y-145268500D01*
X123845820Y-142004500D02*
X124190500Y-142349180D01*
X122317061Y-145268500D02*
X120865000Y-146720561D01*
X124190500Y-144305258D02*
X123997879Y-144497879D01*
%TO.N,/DOAB*%
X118365000Y-143250000D02*
X118325000Y-143290000D01*
X118325000Y-143290000D02*
X118325000Y-147350000D01*
%TO.N,/SMPAC*%
X121443827Y-145013625D02*
X120781069Y-145013625D01*
X119595000Y-146199694D02*
X119595000Y-147350000D01*
X123445000Y-144049999D02*
X122879999Y-144615000D01*
X122879999Y-144615000D02*
X121842452Y-144615000D01*
X120781069Y-145013625D02*
X119595000Y-146199694D01*
X123445000Y-143250000D02*
X123445000Y-144049999D01*
X121842452Y-144615000D02*
X121443827Y-145013625D01*
%TO.N,Net-(C3-Pad1)*%
X86150000Y-136617600D02*
X86150000Y-135100000D01*
X86247000Y-136714600D02*
X86150000Y-136617600D01*
X91398000Y-136108600D02*
X91025000Y-137000000D01*
X85000000Y-133950000D02*
X86150000Y-135100000D01*
X91493300Y-135501900D02*
X91398000Y-135597200D01*
X98875000Y-137000000D02*
X98541900Y-136533100D01*
X85000000Y-132000000D02*
X85000000Y-133950000D01*
X91398000Y-135597200D02*
X91398000Y-136108600D01*
X98541900Y-136533100D02*
X98541900Y-136011800D01*
X98541900Y-136011800D02*
X98626500Y-135927200D01*
%TO.N,Net-(U3-CV)*%
X117867500Y-130500000D02*
X117867500Y-127975000D01*
X116500000Y-130500000D02*
X117867500Y-130500000D01*
X117867500Y-132637501D02*
X117867500Y-130500000D01*
X114555000Y-136750000D02*
X114555000Y-135950001D01*
X114555000Y-135950001D02*
X117867500Y-132637501D01*
%TO.N,Net-(U3-AOUT)*%
X120407500Y-127975000D02*
X120407500Y-127423680D01*
X120500000Y-131311578D02*
X120750000Y-131561578D01*
X121276680Y-126554500D02*
X124917000Y-126554500D01*
X120407500Y-127975000D02*
X120500000Y-128067500D01*
X118365000Y-135748552D02*
X118365000Y-136750000D01*
X120750000Y-131561578D02*
X120750000Y-133363552D01*
X120407500Y-127423680D02*
X121276680Y-126554500D01*
X120500000Y-128067500D02*
X120500000Y-131311578D01*
X124917000Y-126554500D02*
X126000000Y-127637500D01*
X120750000Y-133363552D02*
X118365000Y-135748552D01*
%TO.N,Net-(U4C--)*%
X121677500Y-120485000D02*
X122750000Y-119412500D01*
X122750000Y-119412500D02*
X124950000Y-119412500D01*
X124950000Y-119412500D02*
X125000000Y-119362500D01*
X121677500Y-123025000D02*
X121677500Y-120485000D01*
%TO.N,Net-(U4D--)*%
X115695100Y-119417400D02*
X115612500Y-119500000D01*
X115750000Y-117500000D02*
X115695100Y-117785400D01*
X116597500Y-123025000D02*
X116597500Y-120485000D01*
X115695100Y-117785400D02*
X115695100Y-119417400D01*
X116597500Y-120485000D02*
X115612500Y-119500000D01*
%TO.N,Net-(C15-Pad2)*%
X132078000Y-120059500D02*
X136722000Y-120059500D01*
X136722000Y-120059500D02*
X137000000Y-120337500D01*
X132000000Y-120137500D02*
X132078000Y-120059500D01*
%TO.N,/AUDIO_CH2*%
X124500000Y-132778680D02*
X124500000Y-128000000D01*
X120407500Y-123025000D02*
X120407500Y-119455000D01*
X120905000Y-136750000D02*
X120905000Y-136373680D01*
X120500000Y-123117500D02*
X120407500Y-123025000D01*
X120407500Y-119455000D02*
X120500000Y-119362500D01*
X120905000Y-136373680D02*
X124500000Y-132778680D01*
X120500000Y-124500000D02*
X120500000Y-123117500D01*
%TO.N,+5VA*%
X101525000Y-136500000D02*
X107104500Y-142079500D01*
X116600000Y-144612600D02*
X117095000Y-144117600D01*
X117600000Y-141400000D02*
X120605000Y-141400000D01*
X115117601Y-144612600D02*
X116600000Y-144612600D01*
X96643000Y-136632600D02*
X96424900Y-136632600D01*
X112312500Y-143200000D02*
X114505000Y-143200000D01*
X111192000Y-142079500D02*
X112112500Y-143000000D01*
X97125000Y-137000000D02*
X96643000Y-136632600D01*
X97542400Y-136568000D02*
X97125000Y-137000000D01*
X96424900Y-136632600D02*
X95928500Y-136136200D01*
X101525000Y-136500000D02*
X100995400Y-135713300D01*
X107104500Y-142079500D02*
X111192000Y-142079500D01*
X119137500Y-130387500D02*
X119250000Y-130500000D01*
X117095000Y-144117600D02*
X117095000Y-143250000D01*
X128250000Y-131945000D02*
X123445000Y-136750000D01*
X114555000Y-144049999D02*
X115117601Y-144612600D01*
X120905000Y-141700000D02*
X120905000Y-143250000D01*
X100988100Y-135706000D02*
X99698500Y-135706000D01*
X120905000Y-140295000D02*
X120905000Y-143250000D01*
X120605000Y-141400000D02*
X120905000Y-141700000D01*
X112112500Y-143000000D02*
X112312500Y-143200000D01*
X99005300Y-135012800D02*
X98247700Y-135012800D01*
X97549300Y-136561100D02*
X97542400Y-136568000D01*
X121113552Y-125000000D02*
X126750000Y-125000000D01*
X123445000Y-136750000D02*
X123445000Y-137755000D01*
X119137500Y-127975000D02*
X119137500Y-130387500D01*
X99698500Y-135706000D02*
X99005300Y-135012800D01*
X114555000Y-143250000D02*
X114555000Y-144049999D01*
X117095000Y-143250000D02*
X117095000Y-141905000D01*
X117095000Y-141905000D02*
X117600000Y-141400000D01*
X119137500Y-127975000D02*
X119137500Y-126976052D01*
X119137500Y-126976052D02*
X121113552Y-125000000D01*
X114505000Y-143200000D02*
X114555000Y-143250000D01*
X97549300Y-135711200D02*
X97549300Y-136561100D01*
X97549300Y-135711200D02*
X98247700Y-135012800D01*
X123445000Y-137755000D02*
X120905000Y-140295000D01*
X126750000Y-125000000D02*
X128250000Y-126500000D01*
X100995400Y-135713300D02*
X100988100Y-135706000D01*
X128250000Y-126500000D02*
X128250000Y-131945000D01*
%TO.N,Net-(C16-Pad2)*%
X132440500Y-116000000D02*
X136538700Y-116000000D01*
X132250000Y-116000000D02*
X132440500Y-116000000D01*
X136538700Y-116000000D02*
X136729200Y-116000000D01*
%TO.N,Net-(C17-Pad1)*%
X142037500Y-121862500D02*
X142000000Y-121825000D01*
X137337500Y-121825000D02*
X137000000Y-122162500D01*
X142250000Y-121862500D02*
X142037500Y-121862500D01*
X145695000Y-122595000D02*
X149069000Y-122595000D01*
X149069000Y-122595000D02*
X149069000Y-120095000D01*
X142000000Y-121825000D02*
X137337500Y-121825000D01*
X144962500Y-121862500D02*
X145695000Y-122595000D01*
X142250000Y-121862500D02*
X144962500Y-121862500D01*
%TO.N,Net-(U4B--)*%
X122947500Y-129802500D02*
X122947500Y-127975000D01*
X121677500Y-127975000D02*
X121677500Y-129927500D01*
X121677500Y-129927500D02*
X122250000Y-130500000D01*
X122250000Y-130500000D02*
X122947500Y-129802500D01*
%TO.N,Net-(U3-SWIN)*%
X119635000Y-136750000D02*
X119635000Y-135777500D01*
X119635000Y-135777500D02*
X122250000Y-133162500D01*
X122250000Y-133162500D02*
X122250000Y-132325000D01*
%TO.N,Net-(U3-MP)*%
X114000000Y-133500000D02*
X113000000Y-134500000D01*
X115327500Y-127975000D02*
X115327500Y-128922500D01*
X113000000Y-137000000D02*
X113995500Y-137995500D01*
X115628100Y-127975000D02*
X116296900Y-127975000D01*
X117095000Y-137126320D02*
X117095000Y-136750000D01*
X113000000Y-134500000D02*
X113000000Y-137000000D01*
X116225820Y-137995500D02*
X117095000Y-137126320D01*
X115437600Y-127975000D02*
X115628100Y-127975000D01*
X113995500Y-137995500D02*
X116225820Y-137995500D01*
X116296900Y-127975000D02*
X116487400Y-127975000D01*
X114000000Y-130250000D02*
X114000000Y-133500000D01*
X115327500Y-128922500D02*
X114000000Y-130250000D01*
%TO.N,Net-(C18-Pad1)*%
X137490500Y-117775000D02*
X141763700Y-117775000D01*
X151750000Y-117500000D02*
X151750000Y-124914000D01*
X141763700Y-117775000D02*
X141954200Y-117775000D01*
X151750000Y-124914000D02*
X149069000Y-127595000D01*
X142239600Y-117750000D02*
X142489600Y-117500000D01*
X149069000Y-130095000D02*
X149069000Y-127595000D01*
X137300000Y-117775000D02*
X137490500Y-117775000D01*
X142489600Y-117500000D02*
X151750000Y-117500000D01*
%TO.N,Net-(JP1-Pin_1)*%
X74275352Y-154624648D02*
X79861800Y-154624648D01*
X72911600Y-156067000D02*
X65850000Y-156067000D01*
X73400000Y-156020000D02*
X73400000Y-155500000D01*
X88500000Y-147200000D02*
X88500001Y-150474799D01*
X73400000Y-155500000D02*
X74275352Y-154624648D01*
X65850000Y-156067000D02*
X65659500Y-156067000D01*
X73102100Y-156067000D02*
X72911600Y-156067000D01*
X79861800Y-154624648D02*
X81368224Y-153118224D01*
X73400000Y-156020000D02*
X73102100Y-156067000D01*
%TO.N,Net-(JP1-Pin_9)*%
X71765010Y-146060000D02*
X71718010Y-146013000D01*
X78884850Y-147873600D02*
X79473600Y-147873600D01*
X85696110Y-151040200D02*
X85895910Y-151240000D01*
X73178000Y-146013000D02*
X73225000Y-146060000D01*
X72319500Y-147569500D02*
X78580750Y-147569500D01*
X85960000Y-153473604D02*
X85983804Y-153449800D01*
X65013000Y-146013000D02*
X71718010Y-146013000D01*
X71718010Y-146013000D02*
X73178000Y-146013000D01*
X71718010Y-146013000D02*
X71718010Y-146968010D01*
X85960000Y-156500000D02*
X85960000Y-153473604D01*
X71718010Y-146968010D02*
X72319500Y-147569500D01*
X78580750Y-147569500D02*
X78884850Y-147873600D01*
X82640200Y-151040200D02*
X85696110Y-151040200D01*
X79473600Y-147873600D02*
X82640200Y-151040200D01*
%TO.N,Net-(JP1-Pin_7)*%
X72911600Y-148537000D02*
X72832700Y-148537000D01*
X72832700Y-148537000D02*
X72829700Y-148540000D01*
X83837600Y-152662400D02*
X83712600Y-152787400D01*
X79118462Y-150709000D02*
X77522552Y-150709000D01*
X76224052Y-149410500D02*
X73710500Y-149410500D01*
X86787400Y-152964712D02*
X86485088Y-152662400D01*
X73102100Y-148537000D02*
X72911600Y-148537000D01*
X81694376Y-152330824D02*
X80214234Y-152330824D01*
X73400000Y-149100000D02*
X73400000Y-148490000D01*
X73400000Y-148490000D02*
X73102100Y-148537000D01*
X77522552Y-150709000D02*
X76224052Y-149410500D01*
X88500000Y-155100000D02*
X86787400Y-153387400D01*
X80135000Y-152251590D02*
X80135000Y-151725538D01*
X83712600Y-152787400D02*
X82150952Y-152787400D01*
X88500000Y-155898680D02*
X88500000Y-155100000D01*
X73710500Y-149410500D02*
X73400000Y-149100000D01*
X80214234Y-152330824D02*
X80135000Y-152251590D01*
X86485088Y-152662400D02*
X83837600Y-152662400D01*
X72829700Y-148540000D02*
X65000000Y-148540000D01*
X86787400Y-153387400D02*
X86787400Y-152964712D01*
X80135000Y-151725538D02*
X79118462Y-150709000D01*
X82150952Y-152787400D02*
X81694376Y-152330824D01*
%TO.N,Net-(JP1-Pin_11)*%
X72929400Y-143936800D02*
X73225000Y-143470000D01*
X72927100Y-143460000D02*
X72736600Y-143460000D01*
X83420000Y-156500000D02*
X83420000Y-159117400D01*
X72736600Y-143460000D02*
X65000000Y-143460000D01*
X72956600Y-144814800D02*
X72929400Y-144787600D01*
X72929400Y-144787600D02*
X72929400Y-143936800D01*
X83420000Y-159117400D02*
X82937400Y-159600000D01*
%TO.N,Net-(JP1-Pin_3)*%
X91040000Y-147200000D02*
X91040000Y-149277600D01*
X91040000Y-149277600D02*
X90500000Y-149817600D01*
X65063000Y-153557000D02*
X65000000Y-153620000D01*
X73400000Y-153510000D02*
X73779900Y-153078000D01*
X73779900Y-153078000D02*
X74302400Y-152555500D01*
X77888982Y-152555500D02*
X78805238Y-153471756D01*
X73400000Y-153510000D02*
X73102100Y-153557000D01*
X73102100Y-153557000D02*
X65063000Y-153557000D01*
X74302400Y-152555500D02*
X77888982Y-152555500D01*
%TO.N,Net-(JP1-Pin_5)*%
X80919826Y-151500000D02*
X80874257Y-151454431D01*
X87422400Y-152873222D02*
X87422400Y-152660822D01*
X79137102Y-151920500D02*
X79176756Y-151880846D01*
X73400000Y-151000000D02*
X74320500Y-151920500D01*
X87422400Y-152660822D02*
X86788978Y-152027400D01*
X86788978Y-152027400D02*
X85569758Y-152027400D01*
X85369958Y-151827600D02*
X82089178Y-151827600D01*
X90594499Y-155029500D02*
X89578678Y-155029500D01*
X91040000Y-156500000D02*
X91040000Y-155475001D01*
X81761578Y-151500000D02*
X80919826Y-151500000D01*
X73400000Y-151000000D02*
X73102100Y-151047000D01*
X65033000Y-151047000D02*
X65000000Y-151080000D01*
X85569758Y-152027400D02*
X85369958Y-151827600D01*
X74320500Y-151920500D02*
X79137102Y-151920500D01*
X89578678Y-155029500D02*
X87422400Y-152873222D01*
X91040000Y-155475001D02*
X90594499Y-155029500D01*
X82089178Y-151827600D02*
X81761578Y-151500000D01*
X73102100Y-151047000D02*
X65033000Y-151047000D01*
%TO.N,/AUDIO_CH1*%
X116519346Y-138600000D02*
X115984346Y-139135000D01*
X114940800Y-126427900D02*
X116172100Y-126427900D01*
X113250000Y-128907200D02*
X114091800Y-128065400D01*
X114858700Y-126455700D02*
X114866900Y-126455700D01*
X114883200Y-126439400D02*
X114906200Y-126439400D01*
X117867500Y-124732500D02*
X117867500Y-123025000D01*
X117867500Y-123025000D02*
X117867500Y-119480000D01*
X114100800Y-127983300D02*
X114582000Y-127502100D01*
X114582000Y-126724300D02*
X114834300Y-126472000D01*
X116172100Y-126427900D02*
X117867500Y-124732500D01*
X114866900Y-126455700D02*
X114883200Y-126439400D01*
X112365000Y-137263026D02*
X112365000Y-134236974D01*
X114582000Y-127502100D02*
X114582000Y-126724300D01*
X114834300Y-126472000D02*
X114842400Y-126472000D01*
X114935100Y-126433600D02*
X114940800Y-126427900D01*
X114236974Y-139135000D02*
X112365000Y-137263026D01*
X112365000Y-134236974D02*
X113250000Y-133351974D01*
X114091800Y-128028800D02*
X114100800Y-128019800D01*
X114100800Y-128019800D02*
X114100800Y-127983300D01*
X122175000Y-137825000D02*
X121400000Y-138600000D01*
X122175000Y-136750000D02*
X122175000Y-137825000D01*
X114842400Y-126472000D02*
X114858700Y-126455700D01*
X114091800Y-128065400D02*
X114091800Y-128028800D01*
X113250000Y-133351974D02*
X113250000Y-128907200D01*
X117867500Y-119480000D02*
X117750000Y-119362500D01*
X115984346Y-139135000D02*
X114236974Y-139135000D01*
X121400000Y-138600000D02*
X116519346Y-138600000D01*
X114912000Y-126433600D02*
X114935100Y-126433600D01*
X114906200Y-126439400D02*
X114912000Y-126433600D01*
%TD*%
%TA.AperFunction,Conductor*%
%TO.N,GND*%
G36*
X111107915Y-155897760D02*
G01*
X111115835Y-155896472D01*
X111141492Y-155907619D01*
X111168337Y-155915502D01*
X111173591Y-155921566D01*
X111180951Y-155924764D01*
X111196508Y-155948013D01*
X111214830Y-155969158D01*
X111215972Y-155977100D01*
X111220434Y-155983769D01*
X111220952Y-156011737D01*
X111224934Y-156039432D01*
X111221633Y-156048536D01*
X111221749Y-156054754D01*
X111207457Y-156087646D01*
X111139092Y-156198483D01*
X111139091Y-156198486D01*
X111084827Y-156362240D01*
X111084825Y-156362252D01*
X111074500Y-156463314D01*
X111074500Y-157036677D01*
X111084825Y-157137753D01*
X111139090Y-157301512D01*
X111139091Y-157301514D01*
X111139092Y-157301516D01*
X111213512Y-157422170D01*
X111232249Y-157490649D01*
X111210990Y-157558387D01*
X111195367Y-157577411D01*
X110500681Y-158272096D01*
X110438371Y-158306120D01*
X110411588Y-158309000D01*
X106931938Y-158309000D01*
X106798442Y-158335555D01*
X106798439Y-158335556D01*
X106672688Y-158387644D01*
X106559518Y-158463262D01*
X106559516Y-158463263D01*
X104643267Y-160379510D01*
X104643266Y-160379512D01*
X104582135Y-160471001D01*
X104567645Y-160492686D01*
X104567644Y-160492688D01*
X104515556Y-160618439D01*
X104515555Y-160618442D01*
X104489000Y-160751938D01*
X104489000Y-161768531D01*
X104468998Y-161836652D01*
X104437061Y-161870467D01*
X104300205Y-161969898D01*
X104300202Y-161969900D01*
X104149900Y-162120202D01*
X104149898Y-162120205D01*
X104024951Y-162292180D01*
X103928444Y-162481586D01*
X103928443Y-162481588D01*
X103871700Y-162656225D01*
X103862754Y-162683757D01*
X103829500Y-162893713D01*
X103829500Y-163106287D01*
X103862754Y-163316243D01*
X103928443Y-163518412D01*
X104024949Y-163707816D01*
X104149896Y-163879792D01*
X104149898Y-163879794D01*
X104149900Y-163879797D01*
X104300202Y-164030099D01*
X104300205Y-164030101D01*
X104300208Y-164030104D01*
X104472184Y-164155051D01*
X104533383Y-164186233D01*
X104584998Y-164234981D01*
X104602064Y-164303896D01*
X104579163Y-164371098D01*
X104523566Y-164415250D01*
X104476180Y-164424500D01*
X100803820Y-164424500D01*
X100735699Y-164404498D01*
X100689206Y-164350842D01*
X100679102Y-164280568D01*
X100708596Y-164215988D01*
X100746615Y-164186234D01*
X100807816Y-164155051D01*
X100979792Y-164030104D01*
X101130104Y-163879792D01*
X101255051Y-163707816D01*
X101351557Y-163518412D01*
X101417246Y-163316243D01*
X101450500Y-163106287D01*
X101450500Y-162893713D01*
X101424037Y-162726634D01*
X101433137Y-162656225D01*
X101459391Y-162617829D01*
X101733994Y-162343226D01*
X102058235Y-162018986D01*
X102133856Y-161905811D01*
X102185945Y-161780057D01*
X102212500Y-161646558D01*
X102212500Y-161316912D01*
X102232502Y-161248791D01*
X102249405Y-161227817D01*
X107544817Y-155932405D01*
X107607129Y-155898379D01*
X107633912Y-155895500D01*
X111100216Y-155895500D01*
X111107915Y-155897760D01*
G37*
%TD.AperFunction*%
%TA.AperFunction,Conductor*%
G36*
X155002611Y-114575608D02*
G01*
X155442760Y-114593812D01*
X155453109Y-114594669D01*
X155887674Y-114648838D01*
X155897938Y-114650551D01*
X156326544Y-114740420D01*
X156336612Y-114742969D01*
X156756351Y-114867931D01*
X156766183Y-114871307D01*
X156923625Y-114932741D01*
X157174138Y-115030492D01*
X157183675Y-115034675D01*
X157577094Y-115227006D01*
X157586252Y-115231962D01*
X157962439Y-115456120D01*
X157971158Y-115461816D01*
X158327560Y-115716282D01*
X158335767Y-115722669D01*
X158669954Y-116005712D01*
X158677602Y-116012754D01*
X158987245Y-116322397D01*
X158994288Y-116330046D01*
X159277327Y-116664229D01*
X159283717Y-116672439D01*
X159538183Y-117028841D01*
X159543879Y-117037560D01*
X159768037Y-117413747D01*
X159772993Y-117422905D01*
X159965324Y-117816324D01*
X159969507Y-117825861D01*
X160128689Y-118233807D01*
X160132071Y-118243657D01*
X160257026Y-118663373D01*
X160259582Y-118673468D01*
X160349447Y-119102057D01*
X160351161Y-119112329D01*
X160405328Y-119546876D01*
X160406188Y-119557254D01*
X160424392Y-119997388D01*
X160424500Y-120002595D01*
X160424500Y-121337500D01*
X160404498Y-121405621D01*
X160350842Y-121452114D01*
X160298500Y-121463500D01*
X159536531Y-121463500D01*
X159512000Y-121463500D01*
X159416102Y-121463500D01*
X159226667Y-121493503D01*
X159226664Y-121493503D01*
X159226663Y-121493504D01*
X159044259Y-121552771D01*
X158873363Y-121639847D01*
X158718197Y-121752582D01*
X158718194Y-121752584D01*
X158582584Y-121888194D01*
X158582582Y-121888197D01*
X158469847Y-122043363D01*
X158382771Y-122214259D01*
X158349423Y-122316893D01*
X158323503Y-122396667D01*
X158293500Y-122586102D01*
X158293500Y-122666982D01*
X158293500Y-127483469D01*
X158293500Y-127508000D01*
X158293500Y-127603898D01*
X158323503Y-127793333D01*
X158382772Y-127975742D01*
X158469845Y-128146633D01*
X158582580Y-128301800D01*
X158582582Y-128301802D01*
X158582584Y-128301805D01*
X158718194Y-128437415D01*
X158718197Y-128437417D01*
X158718200Y-128437420D01*
X158873367Y-128550155D01*
X159044258Y-128637228D01*
X159226667Y-128696497D01*
X159416102Y-128726500D01*
X159496982Y-128726500D01*
X160298500Y-128726500D01*
X160366621Y-128746502D01*
X160413114Y-128800158D01*
X160424500Y-128852500D01*
X160424500Y-164298500D01*
X160404498Y-164366621D01*
X160350842Y-164413114D01*
X160298500Y-164424500D01*
X159223820Y-164424500D01*
X159155699Y-164404498D01*
X159109206Y-164350842D01*
X159099102Y-164280568D01*
X159128596Y-164215988D01*
X159166615Y-164186234D01*
X159227816Y-164155051D01*
X159399792Y-164030104D01*
X159550104Y-163879792D01*
X159675051Y-163707816D01*
X159771557Y-163518412D01*
X159837246Y-163316243D01*
X159870500Y-163106287D01*
X159870500Y-162893713D01*
X159837246Y-162683757D01*
X159771557Y-162481588D01*
X159675051Y-162292184D01*
X159550104Y-162120208D01*
X159550101Y-162120205D01*
X159550099Y-162120202D01*
X159399797Y-161969900D01*
X159399794Y-161969898D01*
X159399792Y-161969896D01*
X159262939Y-161870467D01*
X159227819Y-161844951D01*
X159227818Y-161844950D01*
X159227816Y-161844949D01*
X159038412Y-161748443D01*
X158836243Y-161682754D01*
X158626287Y-161649500D01*
X158413713Y-161649500D01*
X158203757Y-161682754D01*
X158203754Y-161682754D01*
X158203753Y-161682755D01*
X158001588Y-161748443D01*
X158001586Y-161748444D01*
X157812180Y-161844951D01*
X157640205Y-161969898D01*
X157640202Y-161969900D01*
X157489900Y-162120202D01*
X157489898Y-162120205D01*
X157364949Y-162292183D01*
X157362265Y-162297451D01*
X157313516Y-162349065D01*
X157244600Y-162366129D01*
X157177399Y-162343226D01*
X157137735Y-162297451D01*
X157135050Y-162292183D01*
X157135048Y-162292180D01*
X157010104Y-162120208D01*
X157010101Y-162120205D01*
X157010099Y-162120202D01*
X156859797Y-161969900D01*
X156859794Y-161969898D01*
X156859792Y-161969896D01*
X156722939Y-161870467D01*
X156687819Y-161844951D01*
X156687818Y-161844950D01*
X156687816Y-161844949D01*
X156498412Y-161748443D01*
X156296243Y-161682754D01*
X156086287Y-161649500D01*
X155873713Y-161649500D01*
X155663757Y-161682754D01*
X155663754Y-161682754D01*
X155663753Y-161682755D01*
X155461588Y-161748443D01*
X155461586Y-161748444D01*
X155272180Y-161844951D01*
X155100205Y-161969898D01*
X155100202Y-161969900D01*
X154949900Y-162120202D01*
X154949898Y-162120205D01*
X154824949Y-162292183D01*
X154822265Y-162297451D01*
X154773516Y-162349065D01*
X154704600Y-162366129D01*
X154637399Y-162343226D01*
X154597735Y-162297451D01*
X154595050Y-162292183D01*
X154595048Y-162292180D01*
X154470104Y-162120208D01*
X154470101Y-162120205D01*
X154470099Y-162120202D01*
X154319797Y-161969900D01*
X154319794Y-161969898D01*
X154319792Y-161969896D01*
X154182939Y-161870467D01*
X154147819Y-161844951D01*
X154147818Y-161844950D01*
X154147816Y-161844949D01*
X153958412Y-161748443D01*
X153756243Y-161682754D01*
X153546287Y-161649500D01*
X153333713Y-161649500D01*
X153123757Y-161682754D01*
X153123754Y-161682754D01*
X153123753Y-161682755D01*
X152921588Y-161748443D01*
X152921586Y-161748444D01*
X152732180Y-161844951D01*
X152560205Y-161969898D01*
X152560202Y-161969900D01*
X152409900Y-162120202D01*
X152409898Y-162120205D01*
X152284949Y-162292183D01*
X152282265Y-162297451D01*
X152233516Y-162349065D01*
X152164600Y-162366129D01*
X152097399Y-162343226D01*
X152057735Y-162297451D01*
X152055050Y-162292183D01*
X152055048Y-162292180D01*
X151930104Y-162120208D01*
X151930101Y-162120205D01*
X151930099Y-162120202D01*
X151779797Y-161969900D01*
X151779794Y-161969898D01*
X151779792Y-161969896D01*
X151642939Y-161870467D01*
X151607819Y-161844951D01*
X151607818Y-161844950D01*
X151607816Y-161844949D01*
X151418412Y-161748443D01*
X151216243Y-161682754D01*
X151006287Y-161649500D01*
X150793713Y-161649500D01*
X150583757Y-161682754D01*
X150583754Y-161682754D01*
X150583753Y-161682755D01*
X150381588Y-161748443D01*
X150381586Y-161748444D01*
X150192180Y-161844951D01*
X150020205Y-161969898D01*
X150020202Y-161969900D01*
X149869900Y-162120202D01*
X149869898Y-162120205D01*
X149744949Y-162292183D01*
X149742265Y-162297451D01*
X149693516Y-162349065D01*
X149624600Y-162366129D01*
X149557399Y-162343226D01*
X149517735Y-162297451D01*
X149515050Y-162292183D01*
X149515048Y-162292180D01*
X149390104Y-162120208D01*
X149390101Y-162120205D01*
X149390099Y-162120202D01*
X149239797Y-161969900D01*
X149239794Y-161969898D01*
X149239792Y-161969896D01*
X149102939Y-161870467D01*
X149067819Y-161844951D01*
X149067818Y-161844950D01*
X149067816Y-161844949D01*
X148878412Y-161748443D01*
X148676243Y-161682754D01*
X148466287Y-161649500D01*
X148253713Y-161649500D01*
X148043757Y-161682754D01*
X148043754Y-161682754D01*
X148043753Y-161682755D01*
X147841588Y-161748443D01*
X147841586Y-161748444D01*
X147652180Y-161844951D01*
X147480205Y-161969898D01*
X147480202Y-161969900D01*
X147329900Y-162120202D01*
X147329898Y-162120205D01*
X147204949Y-162292183D01*
X147202265Y-162297451D01*
X147153516Y-162349065D01*
X147084600Y-162366129D01*
X147017399Y-162343226D01*
X146977735Y-162297451D01*
X146975050Y-162292183D01*
X146975048Y-162292180D01*
X146850104Y-162120208D01*
X146850101Y-162120205D01*
X146850099Y-162120202D01*
X146699797Y-161969900D01*
X146699794Y-161969898D01*
X146699792Y-161969896D01*
X146562939Y-161870467D01*
X146519585Y-161814245D01*
X146511000Y-161768531D01*
X146511000Y-151751941D01*
X146510999Y-151751938D01*
X146509934Y-151746585D01*
X146484445Y-151618443D01*
X146432356Y-151492689D01*
X146424777Y-151481346D01*
X146424777Y-151481345D01*
X146394497Y-151436028D01*
X146356735Y-151379513D01*
X146356730Y-151379508D01*
X146356728Y-151379505D01*
X136440494Y-141463271D01*
X136440488Y-141463266D01*
X136390200Y-141429665D01*
X136327311Y-141387644D01*
X136201560Y-141335556D01*
X136201557Y-141335555D01*
X136068061Y-141309000D01*
X136068058Y-141309000D01*
X127328554Y-141309000D01*
X127328550Y-141309000D01*
X127195054Y-141335555D01*
X127195051Y-141335556D01*
X127069300Y-141387644D01*
X126956123Y-141463266D01*
X126956117Y-141463271D01*
X125096595Y-143322794D01*
X125034283Y-143356820D01*
X124963468Y-143351755D01*
X124906632Y-143309208D01*
X124881821Y-143242688D01*
X124881500Y-143233699D01*
X124881500Y-142281121D01*
X124881499Y-142281118D01*
X124854945Y-142147623D01*
X124802856Y-142021869D01*
X124770241Y-141973057D01*
X124727235Y-141908693D01*
X124727234Y-141908692D01*
X124727231Y-141908688D01*
X124286314Y-141467771D01*
X124286308Y-141467766D01*
X124286305Y-141467764D01*
X124173131Y-141392144D01*
X124162267Y-141387644D01*
X124047380Y-141340056D01*
X124047379Y-141340055D01*
X124020186Y-141334646D01*
X124006591Y-141331942D01*
X124006590Y-141331941D01*
X123913881Y-141313500D01*
X123913878Y-141313500D01*
X122552443Y-141313500D01*
X122552439Y-141313500D01*
X122459730Y-141331941D01*
X122459730Y-141331942D01*
X122449533Y-141333970D01*
X122418941Y-141340055D01*
X122418940Y-141340056D01*
X122293189Y-141392144D01*
X122180016Y-141467764D01*
X122180014Y-141467765D01*
X121811095Y-141836684D01*
X121748783Y-141870709D01*
X121677967Y-141865644D01*
X121621132Y-141823097D01*
X121596321Y-141756577D01*
X121596000Y-141747588D01*
X121596000Y-140633412D01*
X121616002Y-140565291D01*
X121632905Y-140544317D01*
X122742290Y-139434932D01*
X123981735Y-138195487D01*
X124057356Y-138082312D01*
X124109445Y-137956558D01*
X124118525Y-137910908D01*
X124136000Y-137823058D01*
X124136000Y-137788536D01*
X124137291Y-137779588D01*
X124146329Y-137759821D01*
X124153547Y-137733439D01*
X124171242Y-137703520D01*
X124196744Y-137660398D01*
X124242598Y-137502569D01*
X124245500Y-137465694D01*
X124245500Y-136978912D01*
X124265502Y-136910791D01*
X124282405Y-136889817D01*
X128786728Y-132385494D01*
X128786735Y-132385487D01*
X128862356Y-132272311D01*
X128914445Y-132146557D01*
X128922793Y-132104588D01*
X128941000Y-132013058D01*
X128941000Y-126431942D01*
X128914445Y-126298443D01*
X128862356Y-126172689D01*
X128823150Y-126114013D01*
X128786735Y-126059513D01*
X128786734Y-126059512D01*
X128786731Y-126059508D01*
X127190494Y-124463271D01*
X127190488Y-124463266D01*
X127147246Y-124434373D01*
X127077311Y-124387644D01*
X126965422Y-124341298D01*
X126951560Y-124335556D01*
X126951557Y-124335555D01*
X126818061Y-124309000D01*
X126818058Y-124309000D01*
X123802693Y-124309000D01*
X123734572Y-124288998D01*
X123688079Y-124235342D01*
X123677975Y-124165068D01*
X123694239Y-124118861D01*
X123699244Y-124110398D01*
X123745098Y-123952569D01*
X123748000Y-123915694D01*
X123748000Y-122134306D01*
X123745098Y-122097431D01*
X123699244Y-121939602D01*
X123699243Y-121939600D01*
X123697032Y-121931990D01*
X123698670Y-121931514D01*
X123691000Y-121894458D01*
X123691000Y-121338411D01*
X123699783Y-121308495D01*
X123706412Y-121278026D01*
X123710226Y-121272930D01*
X123711002Y-121270290D01*
X123727905Y-121249316D01*
X123749316Y-121227905D01*
X123811628Y-121193879D01*
X123838411Y-121191000D01*
X125818058Y-121191000D01*
X125951557Y-121164445D01*
X126077311Y-121112356D01*
X126099760Y-121097356D01*
X126190487Y-121036735D01*
X126410906Y-120816315D01*
X126473216Y-120782292D01*
X126544032Y-120787356D01*
X126589095Y-120816317D01*
X128172008Y-122399231D01*
X128172012Y-122399234D01*
X128265464Y-122461676D01*
X128265466Y-122461678D01*
X128285185Y-122474854D01*
X128285187Y-122474855D01*
X128285189Y-122474856D01*
X128410943Y-122526945D01*
X128544442Y-122553500D01*
X131066253Y-122553500D01*
X131134374Y-122573502D01*
X131173493Y-122613352D01*
X131179658Y-122623347D01*
X131179665Y-122623356D01*
X131301643Y-122745334D01*
X131301649Y-122745339D01*
X131301650Y-122745340D01*
X131448484Y-122835908D01*
X131448486Y-122835908D01*
X131448487Y-122835909D01*
X131612240Y-122890172D01*
X131612241Y-122890172D01*
X131612247Y-122890174D01*
X131713323Y-122900500D01*
X132286676Y-122900499D01*
X132286677Y-122900499D01*
X132387753Y-122890174D01*
X132438524Y-122873350D01*
X132551516Y-122835908D01*
X132698350Y-122745340D01*
X132820340Y-122623350D01*
X132910908Y-122476516D01*
X132965174Y-122312753D01*
X132975500Y-122211677D01*
X132975499Y-121513324D01*
X132973474Y-121493504D01*
X132965174Y-121412246D01*
X132910909Y-121248487D01*
X132910908Y-121248486D01*
X132910908Y-121248484D01*
X132820340Y-121101650D01*
X132807785Y-121089095D01*
X132773760Y-121026787D01*
X132778823Y-120955971D01*
X132793079Y-120928576D01*
X132799619Y-120919070D01*
X132820340Y-120898350D01*
X132876270Y-120807672D01*
X132878057Y-120805076D01*
X132903257Y-120784592D01*
X132927403Y-120762875D01*
X132930974Y-120762063D01*
X132933149Y-120760296D01*
X132944175Y-120759063D01*
X132981858Y-120750500D01*
X135948065Y-120750500D01*
X136016186Y-120770502D01*
X136062679Y-120824158D01*
X136067669Y-120836867D01*
X136089090Y-120901512D01*
X136089091Y-120901514D01*
X136089092Y-120901516D01*
X136156575Y-121010923D01*
X136179660Y-121048350D01*
X136179665Y-121048356D01*
X136292214Y-121160905D01*
X136326240Y-121223217D01*
X136321175Y-121294032D01*
X136292214Y-121339095D01*
X136179665Y-121451643D01*
X136179660Y-121451649D01*
X136089090Y-121598487D01*
X136034827Y-121762240D01*
X136034825Y-121762252D01*
X136024500Y-121863314D01*
X136024501Y-122461676D01*
X136034825Y-122562753D01*
X136089090Y-122726512D01*
X136089091Y-122726514D01*
X136089092Y-122726516D01*
X136100703Y-122745340D01*
X136179660Y-122873350D01*
X136179665Y-122873356D01*
X136301643Y-122995334D01*
X136301649Y-122995339D01*
X136301650Y-122995340D01*
X136448484Y-123085908D01*
X136448486Y-123085908D01*
X136448487Y-123085909D01*
X136612240Y-123140172D01*
X136612241Y-123140172D01*
X136612247Y-123140174D01*
X136713323Y-123150500D01*
X137286676Y-123150499D01*
X137286677Y-123150499D01*
X137387753Y-123140174D01*
X137413229Y-123131732D01*
X137551516Y-123085908D01*
X137698350Y-122995340D01*
X137820340Y-122873350D01*
X137910908Y-122726516D01*
X137952048Y-122602363D01*
X137992460Y-122543996D01*
X138058017Y-122516740D01*
X138071651Y-122516000D01*
X141293123Y-122516000D01*
X141361244Y-122536002D01*
X141400362Y-122575851D01*
X141416718Y-122602367D01*
X141429660Y-122623350D01*
X141429665Y-122623356D01*
X141551643Y-122745334D01*
X141551649Y-122745339D01*
X141551650Y-122745340D01*
X141698484Y-122835908D01*
X141698486Y-122835908D01*
X141698487Y-122835909D01*
X141862240Y-122890172D01*
X141862241Y-122890172D01*
X141862247Y-122890174D01*
X141963323Y-122900500D01*
X142536676Y-122900499D01*
X142536677Y-122900499D01*
X142637753Y-122890174D01*
X142688524Y-122873350D01*
X142801516Y-122835908D01*
X142948350Y-122745340D01*
X143070340Y-122623350D01*
X143076507Y-122613352D01*
X143129293Y-122565874D01*
X143183747Y-122553500D01*
X144624088Y-122553500D01*
X144692209Y-122573502D01*
X144713183Y-122590405D01*
X145254513Y-123131735D01*
X145367688Y-123207356D01*
X145493442Y-123259445D01*
X145501000Y-123260948D01*
X145512441Y-123263224D01*
X145512444Y-123263224D01*
X145626942Y-123286000D01*
X147192501Y-123286000D01*
X147260622Y-123306002D01*
X147307115Y-123359658D01*
X147318501Y-123412000D01*
X147318501Y-123542864D01*
X147318502Y-123542885D01*
X147324908Y-123602480D01*
X147324908Y-123602481D01*
X147375201Y-123737326D01*
X147375203Y-123737329D01*
X147461453Y-123852546D01*
X147519061Y-123895671D01*
X147576669Y-123938796D01*
X147576671Y-123938796D01*
X147576673Y-123938798D01*
X147613596Y-123952569D01*
X147711514Y-123989090D01*
X147711517Y-123989091D01*
X147771127Y-123995500D01*
X150366872Y-123995499D01*
X150426483Y-123989091D01*
X150561331Y-123938796D01*
X150676546Y-123852546D01*
X150762796Y-123737331D01*
X150813091Y-123602483D01*
X150813091Y-123602481D01*
X150814944Y-123597514D01*
X150857490Y-123540678D01*
X150924010Y-123515866D01*
X150993384Y-123530957D01*
X151043587Y-123581158D01*
X151059000Y-123641545D01*
X151059000Y-124575588D01*
X151038998Y-124643709D01*
X151022095Y-124664683D01*
X149989871Y-125696906D01*
X149927559Y-125730932D01*
X149856743Y-125725867D01*
X149799908Y-125683320D01*
X149775097Y-125616800D01*
X149790188Y-125547426D01*
X149796012Y-125537808D01*
X149822703Y-125497863D01*
X149886816Y-125343082D01*
X149919500Y-125178767D01*
X149919500Y-125011233D01*
X149886816Y-124846918D01*
X149822703Y-124692137D01*
X149729626Y-124552838D01*
X149729621Y-124552832D01*
X149611167Y-124434378D01*
X149611161Y-124434373D01*
X149471864Y-124341298D01*
X149471865Y-124341298D01*
X149471863Y-124341297D01*
X149317082Y-124277184D01*
X149224963Y-124258860D01*
X149167846Y-124247499D01*
X149167844Y-124247499D01*
X149152767Y-124244500D01*
X148985233Y-124244500D01*
X148970156Y-124247499D01*
X148970152Y-124247499D01*
X148872157Y-124266991D01*
X148820918Y-124277184D01*
X148820916Y-124277184D01*
X148820915Y-124277185D01*
X148744108Y-124309000D01*
X148666985Y-124340946D01*
X148666135Y-124341298D01*
X148526838Y-124434373D01*
X148526832Y-124434378D01*
X148408378Y-124552832D01*
X148408373Y-124552838D01*
X148315298Y-124692135D01*
X148251185Y-124846914D01*
X148218500Y-125011230D01*
X148218500Y-125178769D01*
X148251185Y-125343085D01*
X148269964Y-125388420D01*
X148315297Y-125497863D01*
X148341988Y-125537808D01*
X148408373Y-125637161D01*
X148408378Y-125637167D01*
X148526832Y-125755621D01*
X148526838Y-125755626D01*
X148666137Y-125848703D01*
X148820918Y-125912816D01*
X148985233Y-125945500D01*
X149152767Y-125945500D01*
X149317082Y-125912816D01*
X149471863Y-125848703D01*
X149511809Y-125822011D01*
X149579560Y-125800796D01*
X149648028Y-125819578D01*
X149695471Y-125872395D01*
X149706829Y-125942477D01*
X149678494Y-126007574D01*
X149670906Y-126015871D01*
X149529182Y-126157595D01*
X149466870Y-126191621D01*
X149440087Y-126194500D01*
X147771135Y-126194500D01*
X147771114Y-126194502D01*
X147711519Y-126200908D01*
X147711518Y-126200908D01*
X147576673Y-126251201D01*
X147576670Y-126251203D01*
X147461453Y-126337453D01*
X147375203Y-126452670D01*
X147375201Y-126452673D01*
X147324909Y-126587515D01*
X147318500Y-126647121D01*
X147318500Y-128542864D01*
X147318502Y-128542885D01*
X147324908Y-128602480D01*
X147324908Y-128602481D01*
X147375203Y-128737330D01*
X147399278Y-128769491D01*
X147424089Y-128836011D01*
X147408998Y-128905385D01*
X147399278Y-128920509D01*
X147375203Y-128952669D01*
X147324909Y-129087515D01*
X147318500Y-129147121D01*
X147318500Y-131042864D01*
X147318502Y-131042885D01*
X147324908Y-131102480D01*
X147324908Y-131102481D01*
X147375201Y-131237326D01*
X147375203Y-131237329D01*
X147375204Y-131237331D01*
X147392815Y-131260856D01*
X147461453Y-131352546D01*
X147507565Y-131387065D01*
X147576669Y-131438796D01*
X147576671Y-131438796D01*
X147576673Y-131438798D01*
X147630967Y-131459048D01*
X147711514Y-131489090D01*
X147711517Y-131489091D01*
X147771127Y-131495500D01*
X150366872Y-131495499D01*
X150426483Y-131489091D01*
X150540646Y-131446510D01*
X150561326Y-131438798D01*
X150561326Y-131438797D01*
X150561331Y-131438796D01*
X150676546Y-131352546D01*
X150762796Y-131237331D01*
X150813091Y-131102483D01*
X150819500Y-131042873D01*
X150819499Y-130011230D01*
X153218500Y-130011230D01*
X153218500Y-130178769D01*
X153251185Y-130343085D01*
X153269964Y-130388420D01*
X153315297Y-130497863D01*
X153361835Y-130567512D01*
X153408373Y-130637161D01*
X153408378Y-130637167D01*
X153526832Y-130755621D01*
X153526838Y-130755626D01*
X153666137Y-130848703D01*
X153820918Y-130912816D01*
X153985233Y-130945500D01*
X153985234Y-130945500D01*
X154152766Y-130945500D01*
X154152767Y-130945500D01*
X154317082Y-130912816D01*
X154471863Y-130848703D01*
X154611162Y-130755626D01*
X154729626Y-130637162D01*
X154822703Y-130497863D01*
X154886816Y-130343082D01*
X154919500Y-130178767D01*
X154919500Y-130011233D01*
X154919499Y-130011230D01*
X155718500Y-130011230D01*
X155718500Y-130178769D01*
X155751185Y-130343085D01*
X155769964Y-130388420D01*
X155815297Y-130497863D01*
X155861835Y-130567512D01*
X155908373Y-130637161D01*
X155908378Y-130637167D01*
X156026832Y-130755621D01*
X156026838Y-130755626D01*
X156166137Y-130848703D01*
X156320918Y-130912816D01*
X156485233Y-130945500D01*
X156485234Y-130945500D01*
X156652766Y-130945500D01*
X156652767Y-130945500D01*
X156817082Y-130912816D01*
X156971863Y-130848703D01*
X157111162Y-130755626D01*
X157229626Y-130637162D01*
X157322703Y-130497863D01*
X157386816Y-130343082D01*
X157419500Y-130178767D01*
X157419500Y-130011233D01*
X157386816Y-129846918D01*
X157322703Y-129692137D01*
X157229626Y-129552838D01*
X157229621Y-129552832D01*
X157111167Y-129434378D01*
X157111161Y-129434373D01*
X157041512Y-129387835D01*
X156971863Y-129341297D01*
X156850306Y-129290946D01*
X156817085Y-129277185D01*
X156817083Y-129277184D01*
X156817082Y-129277184D01*
X156734368Y-129260731D01*
X156652769Y-129244500D01*
X156652767Y-129244500D01*
X156485233Y-129244500D01*
X156485230Y-129244500D01*
X156362830Y-129268847D01*
X156320918Y-129277184D01*
X156320917Y-129277184D01*
X156320914Y-129277185D01*
X156166135Y-129341298D01*
X156026838Y-129434373D01*
X156026832Y-129434378D01*
X155908378Y-129552832D01*
X155908373Y-129552838D01*
X155815298Y-129692135D01*
X155751185Y-129846914D01*
X155718500Y-130011230D01*
X154919499Y-130011230D01*
X154886816Y-129846918D01*
X154822703Y-129692137D01*
X154729626Y-129552838D01*
X154729621Y-129552832D01*
X154611167Y-129434378D01*
X154611161Y-129434373D01*
X154541512Y-129387835D01*
X154471863Y-129341297D01*
X154350306Y-129290946D01*
X154317085Y-129277185D01*
X154317083Y-129277184D01*
X154317082Y-129277184D01*
X154234368Y-129260731D01*
X154152769Y-129244500D01*
X154152767Y-129244500D01*
X153985233Y-129244500D01*
X153985230Y-129244500D01*
X153862830Y-129268847D01*
X153820918Y-129277184D01*
X153820917Y-129277184D01*
X153820914Y-129277185D01*
X153666135Y-129341298D01*
X153526838Y-129434373D01*
X153526832Y-129434378D01*
X153408378Y-129552832D01*
X153408373Y-129552838D01*
X153315298Y-129692135D01*
X153251185Y-129846914D01*
X153218500Y-130011230D01*
X150819499Y-130011230D01*
X150819499Y-129147128D01*
X150813091Y-129087517D01*
X150762796Y-128952669D01*
X150738721Y-128920509D01*
X150713909Y-128853992D01*
X150728999Y-128784618D01*
X150738716Y-128769497D01*
X150762796Y-128737331D01*
X150813091Y-128602483D01*
X150819500Y-128542873D01*
X150819499Y-126873910D01*
X150839501Y-126805790D01*
X150856399Y-126784821D01*
X152286735Y-125354486D01*
X152362356Y-125241311D01*
X152414445Y-125115557D01*
X152434048Y-125017006D01*
X152441000Y-124982058D01*
X152441000Y-120011230D01*
X153218500Y-120011230D01*
X153218500Y-120011233D01*
X153218500Y-120178767D01*
X153251184Y-120343082D01*
X153315297Y-120497863D01*
X153361835Y-120567512D01*
X153408373Y-120637161D01*
X153408378Y-120637167D01*
X153526832Y-120755621D01*
X153526838Y-120755626D01*
X153666137Y-120848703D01*
X153820918Y-120912816D01*
X153985233Y-120945500D01*
X153985234Y-120945500D01*
X154152766Y-120945500D01*
X154152767Y-120945500D01*
X154317082Y-120912816D01*
X154471863Y-120848703D01*
X154611162Y-120755626D01*
X154729626Y-120637162D01*
X154822703Y-120497863D01*
X154886816Y-120343082D01*
X154919500Y-120178767D01*
X154919500Y-120011233D01*
X154919499Y-120011230D01*
X155718500Y-120011230D01*
X155718500Y-120011233D01*
X155718500Y-120178767D01*
X155751184Y-120343082D01*
X155815297Y-120497863D01*
X155861835Y-120567512D01*
X155908373Y-120637161D01*
X155908378Y-120637167D01*
X156026832Y-120755621D01*
X156026838Y-120755626D01*
X156166137Y-120848703D01*
X156320918Y-120912816D01*
X156485233Y-120945500D01*
X156485234Y-120945500D01*
X156652766Y-120945500D01*
X156652767Y-120945500D01*
X156817082Y-120912816D01*
X156971863Y-120848703D01*
X157111162Y-120755626D01*
X157229626Y-120637162D01*
X157322703Y-120497863D01*
X157386816Y-120343082D01*
X157419500Y-120178767D01*
X157419500Y-120011233D01*
X157386816Y-119846918D01*
X157322703Y-119692137D01*
X157229626Y-119552838D01*
X157229621Y-119552832D01*
X157111167Y-119434378D01*
X157111161Y-119434373D01*
X157012575Y-119368500D01*
X156971863Y-119341297D01*
X156862420Y-119295964D01*
X156817085Y-119277185D01*
X156817083Y-119277184D01*
X156817082Y-119277184D01*
X156734368Y-119260731D01*
X156652769Y-119244500D01*
X156652767Y-119244500D01*
X156485233Y-119244500D01*
X156485230Y-119244500D01*
X156362830Y-119268847D01*
X156320918Y-119277184D01*
X156320917Y-119277184D01*
X156320914Y-119277185D01*
X156198189Y-119328020D01*
X156189560Y-119331595D01*
X156166135Y-119341298D01*
X156026838Y-119434373D01*
X156026832Y-119434378D01*
X155908378Y-119552832D01*
X155908373Y-119552838D01*
X155815298Y-119692135D01*
X155751185Y-119846914D01*
X155718500Y-120011230D01*
X154919499Y-120011230D01*
X154886816Y-119846918D01*
X154822703Y-119692137D01*
X154729626Y-119552838D01*
X154729621Y-119552832D01*
X154611167Y-119434378D01*
X154611161Y-119434373D01*
X154512575Y-119368500D01*
X154471863Y-119341297D01*
X154362420Y-119295964D01*
X154317085Y-119277185D01*
X154317083Y-119277184D01*
X154317082Y-119277184D01*
X154234368Y-119260731D01*
X154152769Y-119244500D01*
X154152767Y-119244500D01*
X153985233Y-119244500D01*
X153985230Y-119244500D01*
X153862830Y-119268847D01*
X153820918Y-119277184D01*
X153820917Y-119277184D01*
X153820914Y-119277185D01*
X153698189Y-119328020D01*
X153689560Y-119331595D01*
X153666135Y-119341298D01*
X153526838Y-119434373D01*
X153526832Y-119434378D01*
X153408378Y-119552832D01*
X153408373Y-119552838D01*
X153315298Y-119692135D01*
X153251185Y-119846914D01*
X153218500Y-120011230D01*
X152441000Y-120011230D01*
X152441000Y-117431942D01*
X152414445Y-117298443D01*
X152362356Y-117172689D01*
X152286734Y-117059513D01*
X152286729Y-117059507D01*
X152190492Y-116963270D01*
X152190486Y-116963265D01*
X152135460Y-116926498D01*
X152077311Y-116887644D01*
X151970661Y-116843468D01*
X151951560Y-116835556D01*
X151951557Y-116835555D01*
X151818061Y-116809000D01*
X151818058Y-116809000D01*
X142879391Y-116809000D01*
X142813245Y-116790241D01*
X142791116Y-116776592D01*
X142791113Y-116776591D01*
X142627359Y-116722327D01*
X142627347Y-116722325D01*
X142526285Y-116712000D01*
X141952922Y-116712000D01*
X141851846Y-116722325D01*
X141688087Y-116776590D01*
X141541249Y-116867160D01*
X141541243Y-116867165D01*
X141419265Y-116989143D01*
X141419260Y-116989149D01*
X141397674Y-117024147D01*
X141344888Y-117071625D01*
X141290433Y-117084000D01*
X137881980Y-117084000D01*
X137852064Y-117075216D01*
X137821595Y-117068588D01*
X137816499Y-117064773D01*
X137813859Y-117063998D01*
X137792885Y-117047095D01*
X137722385Y-116976595D01*
X137688359Y-116914283D01*
X137693424Y-116843468D01*
X137722383Y-116798406D01*
X137834940Y-116685850D01*
X137925508Y-116539016D01*
X137979774Y-116375253D01*
X137990100Y-116274177D01*
X137990099Y-115675824D01*
X137979774Y-115574747D01*
X137941349Y-115458790D01*
X137925509Y-115410987D01*
X137925508Y-115410986D01*
X137925508Y-115410984D01*
X137834940Y-115264150D01*
X137834939Y-115264149D01*
X137834934Y-115264143D01*
X137712956Y-115142165D01*
X137712950Y-115142160D01*
X137621180Y-115085556D01*
X137566116Y-115051592D01*
X137566114Y-115051591D01*
X137566112Y-115051590D01*
X137402359Y-114997327D01*
X137402347Y-114997325D01*
X137301285Y-114987000D01*
X136727922Y-114987000D01*
X136626846Y-114997325D01*
X136463087Y-115051590D01*
X136316249Y-115142160D01*
X136316243Y-115142165D01*
X136189070Y-115269339D01*
X136187409Y-115267678D01*
X136138696Y-115302177D01*
X136097796Y-115309000D01*
X132881404Y-115309000D01*
X132813283Y-115288998D01*
X132790829Y-115268639D01*
X132790130Y-115269339D01*
X132662956Y-115142165D01*
X132662950Y-115142160D01*
X132571180Y-115085556D01*
X132516116Y-115051592D01*
X132516114Y-115051591D01*
X132516112Y-115051590D01*
X132352359Y-114997327D01*
X132352347Y-114997325D01*
X132251285Y-114987000D01*
X131677922Y-114987000D01*
X131576846Y-114997325D01*
X131413087Y-115051590D01*
X131266249Y-115142160D01*
X131266243Y-115142165D01*
X131144265Y-115264143D01*
X131144260Y-115264149D01*
X131053691Y-115410986D01*
X131005723Y-115555741D01*
X130965309Y-115614112D01*
X130899752Y-115641367D01*
X130829867Y-115628853D01*
X130797026Y-115605204D01*
X130405087Y-115213265D01*
X130291911Y-115137644D01*
X130277428Y-115131645D01*
X130166160Y-115085556D01*
X130166157Y-115085555D01*
X130032661Y-115059000D01*
X130032658Y-115059000D01*
X115606942Y-115059000D01*
X115606938Y-115059000D01*
X115473442Y-115085555D01*
X115473439Y-115085556D01*
X115347688Y-115137644D01*
X115234518Y-115213262D01*
X115234516Y-115213263D01*
X113960180Y-116487596D01*
X113897868Y-116521621D01*
X113871086Y-116524500D01*
X113625822Y-116524500D01*
X113524746Y-116534825D01*
X113360987Y-116589090D01*
X113214149Y-116679660D01*
X113214143Y-116679665D01*
X113092165Y-116801643D01*
X113092160Y-116801649D01*
X113001590Y-116948487D01*
X112947327Y-117112240D01*
X112947325Y-117112252D01*
X112937000Y-117213314D01*
X112937000Y-117786677D01*
X112947325Y-117887753D01*
X113001590Y-118051512D01*
X113001591Y-118051514D01*
X113001592Y-118051516D01*
X113088083Y-118191740D01*
X113092160Y-118198350D01*
X113092165Y-118198356D01*
X113197095Y-118303286D01*
X113212039Y-118330654D01*
X113228896Y-118356883D01*
X113229801Y-118363181D01*
X113231121Y-118365598D01*
X113234000Y-118392381D01*
X113234000Y-118543122D01*
X113213998Y-118611243D01*
X113174148Y-118650362D01*
X113126652Y-118679658D01*
X113126643Y-118679665D01*
X113004665Y-118801643D01*
X113004660Y-118801649D01*
X112914090Y-118948487D01*
X112859827Y-119112240D01*
X112859825Y-119112252D01*
X112849500Y-119213314D01*
X112849500Y-119786677D01*
X112859825Y-119887753D01*
X112914090Y-120051512D01*
X112914091Y-120051514D01*
X112914092Y-120051516D01*
X113004660Y-120198350D01*
X113004665Y-120198356D01*
X113126643Y-120320334D01*
X113126649Y-120320339D01*
X113126650Y-120320340D01*
X113273484Y-120410908D01*
X113273486Y-120410908D01*
X113273487Y-120410909D01*
X113437240Y-120465172D01*
X113437241Y-120465172D01*
X113437247Y-120465174D01*
X113538323Y-120475500D01*
X113833586Y-120475499D01*
X113901706Y-120495501D01*
X113922681Y-120512403D01*
X114599595Y-121189316D01*
X114633620Y-121251629D01*
X114636500Y-121278412D01*
X114636500Y-121802418D01*
X114618954Y-121866556D01*
X114575756Y-121939599D01*
X114529901Y-122097431D01*
X114529901Y-122097432D01*
X114527000Y-122134306D01*
X114527000Y-123915693D01*
X114529901Y-123952567D01*
X114529901Y-123952568D01*
X114575757Y-124110401D01*
X114659417Y-124251863D01*
X114659423Y-124251870D01*
X114775629Y-124368076D01*
X114775636Y-124368082D01*
X114917098Y-124451742D01*
X114917099Y-124451742D01*
X114917102Y-124451744D01*
X115074931Y-124497598D01*
X115111806Y-124500500D01*
X115111807Y-124500500D01*
X115543193Y-124500500D01*
X115543194Y-124500500D01*
X115580069Y-124497598D01*
X115737898Y-124451744D01*
X115879365Y-124368081D01*
X115879372Y-124368073D01*
X115885275Y-124363496D01*
X115951361Y-124337550D01*
X116020984Y-124351452D01*
X116039725Y-124363496D01*
X116045630Y-124368076D01*
X116045635Y-124368081D01*
X116045637Y-124368082D01*
X116045640Y-124368084D01*
X116187098Y-124451742D01*
X116187099Y-124451742D01*
X116187102Y-124451744D01*
X116344931Y-124497598D01*
X116381806Y-124500500D01*
X116381807Y-124500500D01*
X116813185Y-124500500D01*
X116813194Y-124500500D01*
X116813202Y-124500499D01*
X116813236Y-124500498D01*
X116813244Y-124500500D01*
X116815668Y-124500500D01*
X116815668Y-124501109D01*
X116882090Y-124517809D01*
X116930655Y-124569596D01*
X116943512Y-124639419D01*
X116916579Y-124705109D01*
X116907281Y-124715496D01*
X115922783Y-125699995D01*
X115860471Y-125734020D01*
X115833688Y-125736900D01*
X114872741Y-125736900D01*
X114850298Y-125741364D01*
X114850297Y-125741363D01*
X114844428Y-125742532D01*
X114844087Y-125742600D01*
X114843942Y-125742600D01*
X114729439Y-125765376D01*
X114710442Y-125769155D01*
X114710118Y-125769288D01*
X114703789Y-125770549D01*
X114703783Y-125770548D01*
X114703757Y-125770555D01*
X114681649Y-125774952D01*
X114681647Y-125774953D01*
X114555885Y-125827045D01*
X114537036Y-125839640D01*
X114536839Y-125839772D01*
X114531607Y-125843253D01*
X114531389Y-125843344D01*
X114511246Y-125856801D01*
X114510922Y-125857018D01*
X114510916Y-125857019D01*
X114393811Y-125935266D01*
X114393805Y-125935271D01*
X114045268Y-126283808D01*
X114045265Y-126283812D01*
X113986782Y-126371341D01*
X113986780Y-126371344D01*
X113969644Y-126396988D01*
X113917556Y-126522739D01*
X113917555Y-126522742D01*
X113891000Y-126656238D01*
X113891000Y-127163688D01*
X113870998Y-127231809D01*
X113854095Y-127252783D01*
X113564069Y-127542808D01*
X113564064Y-127542814D01*
X113498794Y-127640498D01*
X113488445Y-127655986D01*
X113488444Y-127655987D01*
X113472899Y-127693516D01*
X113445586Y-127734391D01*
X112713271Y-128466705D01*
X112713266Y-128466712D01*
X112653248Y-128556533D01*
X112653249Y-128556534D01*
X112637644Y-128579888D01*
X112585556Y-128705639D01*
X112585555Y-128705642D01*
X112559000Y-128839138D01*
X112559000Y-133013561D01*
X112538998Y-133081682D01*
X112522095Y-133102656D01*
X111828271Y-133796479D01*
X111828266Y-133796485D01*
X111752644Y-133909662D01*
X111700556Y-134035413D01*
X111700555Y-134035416D01*
X111674000Y-134168912D01*
X111674000Y-137331089D01*
X111695375Y-137438547D01*
X111700553Y-137464575D01*
X111700555Y-137464583D01*
X111752644Y-137590337D01*
X111824819Y-137698356D01*
X111828266Y-137703514D01*
X111828271Y-137703520D01*
X113796479Y-139671728D01*
X113796485Y-139671733D01*
X113796487Y-139671735D01*
X113909663Y-139747356D01*
X114035417Y-139799445D01*
X114168916Y-139826000D01*
X116052404Y-139826000D01*
X116185903Y-139799445D01*
X116311657Y-139747356D01*
X116424833Y-139671735D01*
X116768664Y-139327903D01*
X116830975Y-139293880D01*
X116857758Y-139291000D01*
X120627588Y-139291000D01*
X120695709Y-139311002D01*
X120742202Y-139364658D01*
X120752306Y-139434932D01*
X120722812Y-139499512D01*
X120716696Y-139506081D01*
X120551050Y-139671728D01*
X120368267Y-139854510D01*
X120368266Y-139854511D01*
X120292644Y-139967688D01*
X120240556Y-140093439D01*
X120240555Y-140093442D01*
X120214000Y-140226938D01*
X120214000Y-140583000D01*
X120193998Y-140651121D01*
X120140342Y-140697614D01*
X120088000Y-140709000D01*
X117531938Y-140709000D01*
X117398795Y-140735485D01*
X117398794Y-140735485D01*
X117398443Y-140735554D01*
X117398441Y-140735555D01*
X117272689Y-140787644D01*
X117159515Y-140863264D01*
X117159513Y-140863265D01*
X116558264Y-141464513D01*
X116494790Y-141559511D01*
X116494789Y-141559512D01*
X116482645Y-141577686D01*
X116430556Y-141703439D01*
X116430555Y-141703442D01*
X116404000Y-141836938D01*
X116404000Y-142202418D01*
X116386454Y-142266556D01*
X116343256Y-142339599D01*
X116297401Y-142497431D01*
X116297401Y-142497432D01*
X116294500Y-142534306D01*
X116294500Y-143795600D01*
X116274498Y-143863721D01*
X116220842Y-143910214D01*
X116168500Y-143921600D01*
X115481500Y-143921600D01*
X115413379Y-143901598D01*
X115366886Y-143847942D01*
X115355500Y-143795600D01*
X115355500Y-142534306D01*
X115352598Y-142497432D01*
X115352598Y-142497431D01*
X115332978Y-142429900D01*
X115306744Y-142339602D01*
X115286252Y-142304951D01*
X115223082Y-142198136D01*
X115223076Y-142198129D01*
X115106870Y-142081923D01*
X115106863Y-142081917D01*
X114965401Y-141998257D01*
X114807568Y-141952401D01*
X114773595Y-141949728D01*
X114770694Y-141949500D01*
X114339306Y-141949500D01*
X114336405Y-141949728D01*
X114302432Y-141952401D01*
X114302431Y-141952401D01*
X114144598Y-141998257D01*
X114003136Y-142081917D01*
X114003129Y-142081923D01*
X113886923Y-142198129D01*
X113886917Y-142198136D01*
X113803257Y-142339598D01*
X113780435Y-142418153D01*
X113742222Y-142477988D01*
X113677726Y-142507666D01*
X113659438Y-142509000D01*
X113193557Y-142509000D01*
X113125436Y-142488998D01*
X113086316Y-142449146D01*
X113067199Y-142418153D01*
X112995340Y-142301650D01*
X112995337Y-142301647D01*
X112995334Y-142301643D01*
X112873356Y-142179665D01*
X112873350Y-142179660D01*
X112821403Y-142147619D01*
X112726516Y-142089092D01*
X112726514Y-142089091D01*
X112726512Y-142089090D01*
X112562759Y-142034827D01*
X112562747Y-142034825D01*
X112461685Y-142024500D01*
X112461677Y-142024500D01*
X112166412Y-142024500D01*
X112098291Y-142004498D01*
X112077321Y-141987599D01*
X111632487Y-141542765D01*
X111519311Y-141467144D01*
X111428817Y-141429660D01*
X111393560Y-141415056D01*
X111393557Y-141415055D01*
X111260061Y-141388500D01*
X111260058Y-141388500D01*
X107442911Y-141388500D01*
X107374790Y-141368498D01*
X107353816Y-141351595D01*
X102637404Y-136635182D01*
X102603378Y-136572870D01*
X102600499Y-136546087D01*
X102600499Y-135799990D01*
X102589999Y-135697202D01*
X102534814Y-135530665D01*
X102476892Y-135436759D01*
X102442712Y-135381344D01*
X102442711Y-135381343D01*
X102442706Y-135381337D01*
X102318662Y-135257293D01*
X102318656Y-135257288D01*
X102169334Y-135165185D01*
X102002803Y-135110002D01*
X102002791Y-135110000D01*
X101900017Y-135099500D01*
X101900009Y-135099500D01*
X101354613Y-135099500D01*
X101306395Y-135089909D01*
X101189660Y-135041556D01*
X101189657Y-135041555D01*
X101056161Y-135015000D01*
X101056158Y-135015000D01*
X100036912Y-135015000D01*
X99968791Y-134994998D01*
X99947817Y-134978095D01*
X99445791Y-134476069D01*
X99445790Y-134476068D01*
X99445787Y-134476065D01*
X99332611Y-134400444D01*
X99206860Y-134348356D01*
X99206857Y-134348355D01*
X99073361Y-134321800D01*
X99073358Y-134321800D01*
X98179642Y-134321800D01*
X98179638Y-134321800D01*
X98046142Y-134348355D01*
X98046139Y-134348356D01*
X97920388Y-134400444D01*
X97807218Y-134476062D01*
X97807216Y-134476063D01*
X97012567Y-135270710D01*
X97012566Y-135270711D01*
X96936944Y-135383888D01*
X96884856Y-135509639D01*
X96884855Y-135509640D01*
X96861463Y-135627237D01*
X96828554Y-135690146D01*
X96766859Y-135725277D01*
X96695964Y-135721476D01*
X96638379Y-135679950D01*
X96633119Y-135672656D01*
X96583612Y-135598564D01*
X96583607Y-135598558D01*
X96466141Y-135481092D01*
X96466135Y-135481087D01*
X96372965Y-135418833D01*
X96328000Y-135388788D01*
X96174511Y-135325211D01*
X96119793Y-135314327D01*
X96011570Y-135292800D01*
X96011568Y-135292800D01*
X95845432Y-135292800D01*
X95845429Y-135292800D01*
X95682488Y-135325211D01*
X95682483Y-135325213D01*
X95529000Y-135388788D01*
X95390864Y-135481087D01*
X95390858Y-135481092D01*
X95273392Y-135598558D01*
X95273387Y-135598564D01*
X95181088Y-135736700D01*
X95117513Y-135890183D01*
X95117511Y-135890188D01*
X95085100Y-136053129D01*
X95085100Y-136219270D01*
X95101487Y-136301652D01*
X95117511Y-136382211D01*
X95181088Y-136535700D01*
X95222901Y-136598277D01*
X95273387Y-136673835D01*
X95273392Y-136673841D01*
X95390858Y-136791307D01*
X95390864Y-136791312D01*
X95529000Y-136883612D01*
X95682489Y-136947189D01*
X95744589Y-136959540D01*
X95807497Y-136992445D01*
X95809103Y-136994024D01*
X95984414Y-137169335D01*
X95984417Y-137169337D01*
X96030321Y-137200009D01*
X96045748Y-137210317D01*
X96091276Y-137264794D01*
X96101094Y-137302277D01*
X96109825Y-137387753D01*
X96164090Y-137551512D01*
X96164091Y-137551514D01*
X96164092Y-137551516D01*
X96205508Y-137618662D01*
X96254660Y-137698350D01*
X96254665Y-137698356D01*
X96376643Y-137820334D01*
X96376649Y-137820339D01*
X96376650Y-137820340D01*
X96523484Y-137910908D01*
X96523486Y-137910908D01*
X96523487Y-137910909D01*
X96687240Y-137965172D01*
X96687241Y-137965172D01*
X96687247Y-137965174D01*
X96788323Y-137975500D01*
X97461676Y-137975499D01*
X97461677Y-137975499D01*
X97562753Y-137965174D01*
X97588769Y-137956553D01*
X97726516Y-137910908D01*
X97873350Y-137820340D01*
X97890899Y-137802791D01*
X97910905Y-137782786D01*
X97973217Y-137748760D01*
X98044032Y-137753825D01*
X98089095Y-137782786D01*
X98126643Y-137820334D01*
X98126649Y-137820339D01*
X98126650Y-137820340D01*
X98273484Y-137910908D01*
X98273486Y-137910908D01*
X98273487Y-137910909D01*
X98437240Y-137965172D01*
X98437241Y-137965172D01*
X98437247Y-137965174D01*
X98538323Y-137975500D01*
X99211676Y-137975499D01*
X99211677Y-137975499D01*
X99312753Y-137965174D01*
X99338769Y-137956553D01*
X99476516Y-137910908D01*
X99623350Y-137820340D01*
X99745340Y-137698350D01*
X99835908Y-137551516D01*
X99890174Y-137387753D01*
X99900500Y-137286677D01*
X99900499Y-136713324D01*
X99890174Y-136612247D01*
X99873732Y-136562631D01*
X99871293Y-136491678D01*
X99907601Y-136430668D01*
X99971130Y-136398972D01*
X99993338Y-136397000D01*
X100323500Y-136397000D01*
X100391621Y-136417002D01*
X100438114Y-136470658D01*
X100449500Y-136523000D01*
X100449500Y-137200009D01*
X100460000Y-137302797D01*
X100515185Y-137469334D01*
X100607288Y-137618656D01*
X100607293Y-137618662D01*
X100731337Y-137742706D01*
X100731343Y-137742711D01*
X100731344Y-137742712D01*
X100764415Y-137763110D01*
X100880665Y-137834814D01*
X101047196Y-137889997D01*
X101047197Y-137889997D01*
X101047203Y-137889999D01*
X101149991Y-137900500D01*
X101896087Y-137900499D01*
X101964208Y-137920501D01*
X101985182Y-137937404D01*
X106664014Y-142616235D01*
X106742900Y-142668945D01*
X106777189Y-142691856D01*
X106902943Y-142743945D01*
X107036442Y-142770500D01*
X107036443Y-142770500D01*
X107172557Y-142770500D01*
X110853587Y-142770500D01*
X110883502Y-142779283D01*
X110913972Y-142785912D01*
X110919068Y-142789726D01*
X110921708Y-142790502D01*
X110942682Y-142807404D01*
X111037595Y-142902316D01*
X111071620Y-142964628D01*
X111074500Y-142991412D01*
X111074500Y-143286677D01*
X111084825Y-143387753D01*
X111139090Y-143551512D01*
X111139091Y-143551514D01*
X111139092Y-143551516D01*
X111148203Y-143566287D01*
X111229660Y-143698350D01*
X111229665Y-143698356D01*
X111351643Y-143820334D01*
X111351649Y-143820339D01*
X111351650Y-143820340D01*
X111498484Y-143910908D01*
X111498486Y-143910908D01*
X111498487Y-143910909D01*
X111662240Y-143965172D01*
X111662241Y-143965172D01*
X111662247Y-143965174D01*
X111763323Y-143975500D01*
X112461676Y-143975499D01*
X112461677Y-143975499D01*
X112562753Y-143965174D01*
X112564310Y-143964658D01*
X112726516Y-143910908D01*
X112728379Y-143909759D01*
X112729912Y-143909323D01*
X112733166Y-143907807D01*
X112733410Y-143908331D01*
X112794525Y-143891000D01*
X113632148Y-143891000D01*
X113700269Y-143911002D01*
X113746762Y-143964658D01*
X113754995Y-143996458D01*
X113756244Y-143996230D01*
X113757401Y-144002568D01*
X113803257Y-144160401D01*
X113886917Y-144301863D01*
X113886918Y-144301863D01*
X113886919Y-144301865D01*
X113910977Y-144325923D01*
X113915311Y-144332340D01*
X113919196Y-144334980D01*
X113935924Y-144362857D01*
X113937803Y-144365639D01*
X113938040Y-144366196D01*
X113942644Y-144377310D01*
X113943003Y-144377848D01*
X113945463Y-144383622D01*
X113948984Y-144413567D01*
X113955137Y-144443080D01*
X113953085Y-144448436D01*
X113953756Y-144454133D01*
X113940528Y-144481229D01*
X113929749Y-144509382D01*
X113925128Y-144512778D01*
X113922612Y-144517934D01*
X113896835Y-144533578D01*
X113872546Y-144551434D01*
X113865319Y-144552705D01*
X113861919Y-144554769D01*
X113854652Y-144554582D01*
X113829541Y-144559000D01*
X107318412Y-144559000D01*
X107250291Y-144538998D01*
X107229316Y-144522095D01*
X107017403Y-144310181D01*
X106983378Y-144247869D01*
X106980499Y-144221086D01*
X106980499Y-143949990D01*
X106969999Y-143847202D01*
X106914814Y-143680665D01*
X106835154Y-143551516D01*
X106822712Y-143531344D01*
X106822711Y-143531343D01*
X106822706Y-143531337D01*
X106698662Y-143407293D01*
X106698656Y-143407288D01*
X106549334Y-143315185D01*
X106382803Y-143260002D01*
X106382791Y-143260000D01*
X106280017Y-143249500D01*
X104879990Y-143249500D01*
X104777202Y-143260000D01*
X104610665Y-143315185D01*
X104461343Y-143407288D01*
X104461337Y-143407293D01*
X104337293Y-143531337D01*
X104337288Y-143531343D01*
X104245185Y-143680665D01*
X104190002Y-143847196D01*
X104190000Y-143847208D01*
X104179500Y-143949982D01*
X104179500Y-145550009D01*
X104190000Y-145652797D01*
X104245185Y-145819334D01*
X104337288Y-145968656D01*
X104337293Y-145968662D01*
X104461337Y-146092706D01*
X104461343Y-146092711D01*
X104461344Y-146092712D01*
X104483353Y-146106287D01*
X104610665Y-146184814D01*
X104777196Y-146239997D01*
X104777197Y-146239997D01*
X104777203Y-146239999D01*
X104879991Y-146250500D01*
X106280008Y-146250499D01*
X106280009Y-146250499D01*
X106382797Y-146239999D01*
X106549334Y-146184814D01*
X106554365Y-146181711D01*
X106698656Y-146092712D01*
X106813751Y-145977616D01*
X106876061Y-145943593D01*
X106905752Y-145941872D01*
X106905752Y-145941000D01*
X106911942Y-145941000D01*
X106911943Y-145941000D01*
X107048057Y-145941000D01*
X113661588Y-145941000D01*
X113691503Y-145949783D01*
X113721973Y-145956412D01*
X113727068Y-145960226D01*
X113729709Y-145961002D01*
X113750683Y-145977905D01*
X113787095Y-146014317D01*
X113821121Y-146076629D01*
X113824000Y-146103412D01*
X113824000Y-146135611D01*
X113806454Y-146199749D01*
X113787319Y-146232103D01*
X113742347Y-146386896D01*
X113742345Y-146386908D01*
X113739500Y-146423055D01*
X113739500Y-148276933D01*
X113742345Y-148313096D01*
X113763672Y-148386501D01*
X113787319Y-148467894D01*
X113869374Y-148606643D01*
X113869377Y-148606646D01*
X113869378Y-148606648D01*
X113983351Y-148720621D01*
X113983353Y-148720622D01*
X113983357Y-148720626D01*
X114122106Y-148802681D01*
X114276902Y-148847654D01*
X114313065Y-148850500D01*
X114716934Y-148850499D01*
X114753098Y-148847654D01*
X114907894Y-148802681D01*
X115046643Y-148720626D01*
X115060904Y-148706364D01*
X115123214Y-148672339D01*
X115194030Y-148677402D01*
X115239095Y-148706364D01*
X115253357Y-148720626D01*
X115392106Y-148802681D01*
X115546902Y-148847654D01*
X115583065Y-148850500D01*
X115986934Y-148850499D01*
X116023098Y-148847654D01*
X116177894Y-148802681D01*
X116316643Y-148720626D01*
X116330904Y-148706364D01*
X116393214Y-148672339D01*
X116464030Y-148677402D01*
X116509095Y-148706364D01*
X116523357Y-148720626D01*
X116662106Y-148802681D01*
X116816902Y-148847654D01*
X116853065Y-148850500D01*
X117256934Y-148850499D01*
X117293098Y-148847654D01*
X117447894Y-148802681D01*
X117586643Y-148720626D01*
X117600904Y-148706364D01*
X117663214Y-148672339D01*
X117734030Y-148677402D01*
X117779095Y-148706364D01*
X117793357Y-148720626D01*
X117932106Y-148802681D01*
X118086902Y-148847654D01*
X118123065Y-148850500D01*
X118526934Y-148850499D01*
X118563098Y-148847654D01*
X118717894Y-148802681D01*
X118856643Y-148720626D01*
X118870904Y-148706364D01*
X118933214Y-148672339D01*
X119004030Y-148677402D01*
X119049095Y-148706364D01*
X119063357Y-148720626D01*
X119202106Y-148802681D01*
X119356902Y-148847654D01*
X119393065Y-148850500D01*
X119796934Y-148850499D01*
X119833098Y-148847654D01*
X119987894Y-148802681D01*
X120126643Y-148720626D01*
X120140904Y-148706364D01*
X120203214Y-148672339D01*
X120274030Y-148677402D01*
X120319095Y-148706364D01*
X120333357Y-148720626D01*
X120472106Y-148802681D01*
X120626902Y-148847654D01*
X120663065Y-148850500D01*
X121066934Y-148850499D01*
X121103098Y-148847654D01*
X121257894Y-148802681D01*
X121396643Y-148720626D01*
X121410904Y-148706364D01*
X121473214Y-148672339D01*
X121544030Y-148677402D01*
X121589095Y-148706364D01*
X121603357Y-148720626D01*
X121742106Y-148802681D01*
X121896902Y-148847654D01*
X121933065Y-148850500D01*
X122336934Y-148850499D01*
X122373098Y-148847654D01*
X122527894Y-148802681D01*
X122666643Y-148720626D01*
X122680904Y-148706364D01*
X122743214Y-148672339D01*
X122814030Y-148677402D01*
X122859095Y-148706364D01*
X122873357Y-148720626D01*
X123012106Y-148802681D01*
X123166902Y-148847654D01*
X123203065Y-148850500D01*
X123606934Y-148850499D01*
X123643098Y-148847654D01*
X123797894Y-148802681D01*
X123936643Y-148720626D01*
X123950904Y-148706364D01*
X124013214Y-148672339D01*
X124084030Y-148677402D01*
X124129095Y-148706364D01*
X124143357Y-148720626D01*
X124282106Y-148802681D01*
X124436902Y-148847654D01*
X124473065Y-148850500D01*
X124876934Y-148850499D01*
X124913098Y-148847654D01*
X125067894Y-148802681D01*
X125206643Y-148720626D01*
X125220904Y-148706364D01*
X125283214Y-148672339D01*
X125354030Y-148677402D01*
X125399095Y-148706364D01*
X125413357Y-148720626D01*
X125552106Y-148802681D01*
X125706902Y-148847654D01*
X125743065Y-148850500D01*
X126146934Y-148850499D01*
X126183098Y-148847654D01*
X126337894Y-148802681D01*
X126476643Y-148720626D01*
X126490904Y-148706364D01*
X126553214Y-148672339D01*
X126624030Y-148677402D01*
X126669095Y-148706364D01*
X126683357Y-148720626D01*
X126822106Y-148802681D01*
X126976902Y-148847654D01*
X127013065Y-148850500D01*
X127416934Y-148850499D01*
X127453098Y-148847654D01*
X127607894Y-148802681D01*
X127607898Y-148802678D01*
X127615172Y-148799532D01*
X127616210Y-148801932D01*
X127672677Y-148787607D01*
X127740008Y-148810124D01*
X127784478Y-148865468D01*
X127794000Y-148913520D01*
X127794000Y-149303059D01*
X127799822Y-149332328D01*
X127820555Y-149436557D01*
X127872644Y-149562311D01*
X127947227Y-149673934D01*
X127948266Y-149675488D01*
X127948271Y-149675494D01*
X132392095Y-154119316D01*
X132426120Y-154181628D01*
X132429000Y-154208411D01*
X132429000Y-161768531D01*
X132408998Y-161836652D01*
X132377061Y-161870467D01*
X132240205Y-161969898D01*
X132240202Y-161969900D01*
X132089900Y-162120202D01*
X132089898Y-162120205D01*
X131964949Y-162292183D01*
X131962265Y-162297451D01*
X131913516Y-162349065D01*
X131844600Y-162366129D01*
X131777399Y-162343226D01*
X131737735Y-162297451D01*
X131735050Y-162292183D01*
X131735048Y-162292180D01*
X131610104Y-162120208D01*
X131610101Y-162120205D01*
X131610099Y-162120202D01*
X131459797Y-161969900D01*
X131459794Y-161969898D01*
X131459792Y-161969896D01*
X131322939Y-161870467D01*
X131287819Y-161844951D01*
X131287818Y-161844950D01*
X131287816Y-161844949D01*
X131098412Y-161748443D01*
X130896243Y-161682754D01*
X130686287Y-161649500D01*
X130473713Y-161649500D01*
X130306635Y-161675962D01*
X130236226Y-161666863D01*
X130197831Y-161640609D01*
X128707894Y-160150671D01*
X128707888Y-160150666D01*
X128688388Y-160137636D01*
X128594711Y-160075044D01*
X128522269Y-160045037D01*
X128481394Y-160017724D01*
X127927905Y-159464235D01*
X127893879Y-159401923D01*
X127891000Y-159375140D01*
X127891000Y-157889752D01*
X127908546Y-157825613D01*
X127913017Y-157818053D01*
X127942681Y-157767894D01*
X127987654Y-157613098D01*
X127990500Y-157576935D01*
X127990499Y-155723066D01*
X127987654Y-155686902D01*
X127942681Y-155532106D01*
X127860626Y-155393357D01*
X127860622Y-155393353D01*
X127860621Y-155393351D01*
X127746648Y-155279378D01*
X127746646Y-155279377D01*
X127746643Y-155279374D01*
X127607894Y-155197319D01*
X127552943Y-155181354D01*
X127453103Y-155152347D01*
X127453099Y-155152346D01*
X127453098Y-155152346D01*
X127453096Y-155152345D01*
X127453091Y-155152345D01*
X127416943Y-155149500D01*
X127013066Y-155149500D01*
X126976903Y-155152345D01*
X126822105Y-155197319D01*
X126778463Y-155223129D01*
X126683357Y-155279374D01*
X126683355Y-155279375D01*
X126683353Y-155279377D01*
X126683351Y-155279378D01*
X126669095Y-155293635D01*
X126606783Y-155327661D01*
X126535968Y-155322596D01*
X126490905Y-155293635D01*
X126476648Y-155279378D01*
X126476646Y-155279377D01*
X126476643Y-155279374D01*
X126337894Y-155197319D01*
X126282943Y-155181354D01*
X126183103Y-155152347D01*
X126183099Y-155152346D01*
X126183098Y-155152346D01*
X126183096Y-155152345D01*
X126183091Y-155152345D01*
X126146943Y-155149500D01*
X125743066Y-155149500D01*
X125706903Y-155152345D01*
X125552105Y-155197319D01*
X125508463Y-155223129D01*
X125413357Y-155279374D01*
X125413355Y-155279375D01*
X125413353Y-155279377D01*
X125413351Y-155279378D01*
X125399095Y-155293635D01*
X125336783Y-155327661D01*
X125265968Y-155322596D01*
X125220905Y-155293635D01*
X125206648Y-155279378D01*
X125206646Y-155279377D01*
X125206643Y-155279374D01*
X125067894Y-155197319D01*
X125012943Y-155181354D01*
X124913103Y-155152347D01*
X124913099Y-155152346D01*
X124913098Y-155152346D01*
X124913096Y-155152345D01*
X124913091Y-155152345D01*
X124876943Y-155149500D01*
X124473066Y-155149500D01*
X124436903Y-155152345D01*
X124282103Y-155197319D01*
X124156498Y-155271601D01*
X124087682Y-155289060D01*
X124020351Y-155266543D01*
X123987591Y-155233143D01*
X123986198Y-155231058D01*
X123973099Y-155211454D01*
X123941735Y-155164514D01*
X123941730Y-155164509D01*
X123941728Y-155164506D01*
X123323691Y-154546469D01*
X123323690Y-154546468D01*
X123323687Y-154546465D01*
X123210511Y-154470844D01*
X123144055Y-154443317D01*
X123084760Y-154418756D01*
X123084757Y-154418755D01*
X123024329Y-154406735D01*
X122951261Y-154392200D01*
X122951258Y-154392200D01*
X120569637Y-154392200D01*
X120501516Y-154372198D01*
X120480546Y-154355299D01*
X119318513Y-153193265D01*
X119205337Y-153117644D01*
X119079586Y-153065556D01*
X119079585Y-153065555D01*
X119061263Y-153061911D01*
X119052104Y-153060089D01*
X119052103Y-153060088D01*
X118946087Y-153039000D01*
X118946084Y-153039000D01*
X106905890Y-153039000D01*
X106905886Y-153039000D01*
X106799870Y-153060088D01*
X106799870Y-153060089D01*
X106772390Y-153065555D01*
X106772388Y-153065556D01*
X106772384Y-153065557D01*
X106646635Y-153117644D01*
X106533465Y-153193262D01*
X106533458Y-153193267D01*
X106474631Y-153252095D01*
X106412319Y-153286121D01*
X106385536Y-153289000D01*
X101815490Y-153289000D01*
X101700992Y-153311775D01*
X101700991Y-153311776D01*
X101688326Y-153314295D01*
X101681993Y-153315555D01*
X101556239Y-153367644D01*
X101443069Y-153443262D01*
X101443062Y-153443267D01*
X101406095Y-153480235D01*
X101343783Y-153514261D01*
X101272968Y-153509196D01*
X101216132Y-153466649D01*
X101191321Y-153400129D01*
X101191000Y-153391140D01*
X101191000Y-150365204D01*
X101211002Y-150297083D01*
X101264658Y-150250590D01*
X101296190Y-150242030D01*
X101296064Y-150241441D01*
X101302793Y-150239999D01*
X101302797Y-150239999D01*
X101469334Y-150184814D01*
X101618656Y-150092712D01*
X101742712Y-149968656D01*
X101834814Y-149819334D01*
X101889999Y-149652797D01*
X101900500Y-149550009D01*
X101900499Y-147949992D01*
X101896018Y-147906129D01*
X101889999Y-147847202D01*
X101834814Y-147680665D01*
X101742711Y-147531343D01*
X101742706Y-147531337D01*
X101618662Y-147407293D01*
X101618653Y-147407286D01*
X101469334Y-147315186D01*
X101469331Y-147315184D01*
X101397367Y-147291338D01*
X101338995Y-147250924D01*
X101311740Y-147185368D01*
X101311000Y-147171734D01*
X101311000Y-146328265D01*
X101331002Y-146260144D01*
X101384658Y-146213651D01*
X101397354Y-146208665D01*
X101469334Y-146184814D01*
X101618656Y-146092712D01*
X101742712Y-145968656D01*
X101834814Y-145819334D01*
X101889999Y-145652797D01*
X101900500Y-145550009D01*
X101900499Y-143949992D01*
X101896506Y-143910907D01*
X101889999Y-143847202D01*
X101834814Y-143680665D01*
X101755154Y-143551516D01*
X101742712Y-143531344D01*
X101742711Y-143531343D01*
X101742706Y-143531337D01*
X101618662Y-143407293D01*
X101618656Y-143407288D01*
X101469334Y-143315185D01*
X101302803Y-143260002D01*
X101299936Y-143259389D01*
X101299068Y-143259514D01*
X101297787Y-143258929D01*
X101296072Y-143258562D01*
X101296153Y-143258182D01*
X101269025Y-143245793D01*
X101238448Y-143233313D01*
X101236914Y-143231128D01*
X101234488Y-143230020D01*
X101216634Y-143202240D01*
X101197656Y-143175205D01*
X101197103Y-143171848D01*
X101196104Y-143170294D01*
X101191000Y-143134796D01*
X101191000Y-143079880D01*
X101211002Y-143011759D01*
X101227900Y-142990789D01*
X101270340Y-142948350D01*
X101360908Y-142801516D01*
X101415174Y-142637753D01*
X101425500Y-142536677D01*
X101425499Y-141963324D01*
X101424383Y-141952402D01*
X101415174Y-141862246D01*
X101360909Y-141698487D01*
X101360908Y-141698486D01*
X101360908Y-141698484D01*
X101270340Y-141551650D01*
X101270339Y-141551649D01*
X101270334Y-141551643D01*
X101148356Y-141429665D01*
X101148350Y-141429660D01*
X101124673Y-141415056D01*
X101001516Y-141339092D01*
X101001514Y-141339091D01*
X101001512Y-141339090D01*
X100837759Y-141284827D01*
X100837747Y-141284825D01*
X100736685Y-141274500D01*
X100038322Y-141274500D01*
X99937246Y-141284825D01*
X99773487Y-141339090D01*
X99626649Y-141429660D01*
X99626643Y-141429665D01*
X99504665Y-141551643D01*
X99504660Y-141551649D01*
X99414090Y-141698487D01*
X99359827Y-141862240D01*
X99359825Y-141862252D01*
X99349500Y-141963314D01*
X99349500Y-142536677D01*
X99359825Y-142637753D01*
X99414090Y-142801512D01*
X99414091Y-142801514D01*
X99414092Y-142801516D01*
X99493067Y-142929555D01*
X99504660Y-142948350D01*
X99504665Y-142948356D01*
X99626643Y-143070334D01*
X99626647Y-143070337D01*
X99626650Y-143070340D01*
X99626652Y-143070341D01*
X99632405Y-143074890D01*
X99630522Y-143077270D01*
X99668826Y-143119843D01*
X99680239Y-143189916D01*
X99651957Y-143255036D01*
X99594843Y-143293919D01*
X99530664Y-143315186D01*
X99381343Y-143407288D01*
X99381337Y-143407293D01*
X99257293Y-143531337D01*
X99257288Y-143531343D01*
X99165185Y-143680665D01*
X99110002Y-143847196D01*
X99110000Y-143847208D01*
X99099500Y-143949982D01*
X99099500Y-145550009D01*
X99110000Y-145652797D01*
X99165186Y-145819337D01*
X99168289Y-145825991D01*
X99165310Y-145827379D01*
X99180125Y-145881867D01*
X99158757Y-145949571D01*
X99104176Y-145994975D01*
X99033713Y-146003662D01*
X98969739Y-145972876D01*
X98965056Y-145968426D01*
X94311931Y-141315300D01*
X94311925Y-141315295D01*
X94266326Y-141284827D01*
X94167547Y-141218825D01*
X94007127Y-141152377D01*
X94007124Y-141152376D01*
X93836824Y-141118500D01*
X93836821Y-141118500D01*
X93836820Y-141118500D01*
X83417319Y-141118500D01*
X83349198Y-141098498D01*
X83328224Y-141081595D01*
X81555905Y-139309275D01*
X81521879Y-139246963D01*
X81519000Y-139220180D01*
X81519000Y-137736255D01*
X81537758Y-137670110D01*
X81610908Y-137551516D01*
X81665174Y-137387753D01*
X81675500Y-137286677D01*
X81675499Y-136713324D01*
X81665174Y-136612247D01*
X81639808Y-136535699D01*
X81610909Y-136448487D01*
X81610908Y-136448486D01*
X81610908Y-136448484D01*
X81520340Y-136301650D01*
X81520339Y-136301649D01*
X81520334Y-136301643D01*
X81398356Y-136179665D01*
X81392595Y-136175110D01*
X81393893Y-136173468D01*
X81353372Y-136128412D01*
X81341000Y-136073963D01*
X81341000Y-134952910D01*
X81361002Y-134884789D01*
X81377900Y-134863820D01*
X83229316Y-133012403D01*
X83291628Y-132978378D01*
X83318411Y-132975499D01*
X83586677Y-132975499D01*
X83687753Y-132965174D01*
X83688842Y-132964813D01*
X83851516Y-132910908D01*
X83998350Y-132820340D01*
X84009516Y-132809174D01*
X84035905Y-132782786D01*
X84042065Y-132779421D01*
X84046080Y-132773658D01*
X84072826Y-132762624D01*
X84098217Y-132748760D01*
X84105222Y-132749261D01*
X84111712Y-132746584D01*
X84140170Y-132751760D01*
X84169032Y-132753825D01*
X84176325Y-132758337D01*
X84181562Y-132759290D01*
X84203664Y-132775253D01*
X84210991Y-132779786D01*
X84212575Y-132781265D01*
X84251650Y-132820340D01*
X84259821Y-132825379D01*
X84268991Y-132833942D01*
X84280933Y-132854136D01*
X84296624Y-132871580D01*
X84299978Y-132886338D01*
X84305131Y-132895052D01*
X84304685Y-132907050D01*
X84309000Y-132926037D01*
X84309000Y-134018059D01*
X84335555Y-134151557D01*
X84335556Y-134151560D01*
X84387644Y-134277311D01*
X84463266Y-134390488D01*
X84463267Y-134390489D01*
X85292174Y-135219395D01*
X85326199Y-135281708D01*
X85326658Y-135283908D01*
X85339011Y-135346011D01*
X85339012Y-135346015D01*
X85339013Y-135346016D01*
X85402586Y-135499497D01*
X85402587Y-135499499D01*
X85402588Y-135499500D01*
X85437766Y-135552147D01*
X85458980Y-135619897D01*
X85459000Y-135622147D01*
X85459000Y-136058542D01*
X85438998Y-136126663D01*
X85399150Y-136165781D01*
X85376651Y-136179659D01*
X85376643Y-136179665D01*
X85254665Y-136301643D01*
X85254660Y-136301649D01*
X85164090Y-136448487D01*
X85109827Y-136612240D01*
X85109825Y-136612252D01*
X85099500Y-136713314D01*
X85099500Y-137286677D01*
X85109825Y-137387753D01*
X85164090Y-137551512D01*
X85164091Y-137551514D01*
X85164092Y-137551516D01*
X85205508Y-137618662D01*
X85254660Y-137698350D01*
X85254665Y-137698356D01*
X85376643Y-137820334D01*
X85376649Y-137820339D01*
X85376650Y-137820340D01*
X85523484Y-137910908D01*
X85523486Y-137910908D01*
X85523487Y-137910909D01*
X85687240Y-137965172D01*
X85687241Y-137965172D01*
X85687247Y-137965174D01*
X85788323Y-137975500D01*
X86486676Y-137975499D01*
X86486677Y-137975499D01*
X86587753Y-137965174D01*
X86613769Y-137956553D01*
X86751516Y-137910908D01*
X86898350Y-137820340D01*
X87020340Y-137698350D01*
X87110908Y-137551516D01*
X87165174Y-137387753D01*
X87175500Y-137286677D01*
X87175499Y-136713324D01*
X87165174Y-136612247D01*
X87139808Y-136535699D01*
X87110909Y-136448487D01*
X87110908Y-136448486D01*
X87110908Y-136448484D01*
X87020340Y-136301650D01*
X87020337Y-136301647D01*
X87020334Y-136301643D01*
X87018673Y-136299982D01*
X89949500Y-136299982D01*
X89949500Y-137700009D01*
X89960000Y-137802797D01*
X90015185Y-137969334D01*
X90107288Y-138118656D01*
X90107293Y-138118662D01*
X90231337Y-138242706D01*
X90231343Y-138242711D01*
X90231344Y-138242712D01*
X90288563Y-138278004D01*
X90380665Y-138334814D01*
X90547196Y-138389997D01*
X90547197Y-138389997D01*
X90547203Y-138389999D01*
X90649991Y-138400500D01*
X91400008Y-138400499D01*
X91400009Y-138400499D01*
X91502797Y-138389999D01*
X91669334Y-138334814D01*
X91818656Y-138242712D01*
X91942712Y-138118656D01*
X92034814Y-137969334D01*
X92089999Y-137802797D01*
X92100500Y-137700009D01*
X92100499Y-136299992D01*
X92089999Y-136197203D01*
X92089998Y-136197200D01*
X92089652Y-136193813D01*
X92089000Y-136181008D01*
X92089000Y-136151138D01*
X92109002Y-136083017D01*
X92125903Y-136062044D01*
X92148412Y-136039536D01*
X92240712Y-135901400D01*
X92304289Y-135747911D01*
X92336700Y-135584968D01*
X92336700Y-135418832D01*
X92304289Y-135255889D01*
X92240712Y-135102400D01*
X92148412Y-134964264D01*
X92148407Y-134964258D01*
X92030941Y-134846792D01*
X92030935Y-134846787D01*
X91985099Y-134816160D01*
X91892800Y-134754488D01*
X91739311Y-134690911D01*
X91576370Y-134658500D01*
X91576368Y-134658500D01*
X91410232Y-134658500D01*
X91410229Y-134658500D01*
X91247288Y-134690911D01*
X91247283Y-134690913D01*
X91093800Y-134754488D01*
X90955664Y-134846787D01*
X90955658Y-134846792D01*
X90838192Y-134964258D01*
X90838187Y-134964264D01*
X90745888Y-135102400D01*
X90682313Y-135255883D01*
X90682311Y-135255888D01*
X90649900Y-135418829D01*
X90649900Y-135486134D01*
X90629898Y-135554255D01*
X90576242Y-135600748D01*
X90550289Y-135609340D01*
X90547201Y-135610001D01*
X90380665Y-135665185D01*
X90231343Y-135757288D01*
X90231337Y-135757293D01*
X90107293Y-135881337D01*
X90107288Y-135881343D01*
X90015185Y-136030665D01*
X89960002Y-136197196D01*
X89960000Y-136197208D01*
X89949500Y-136299982D01*
X87018673Y-136299982D01*
X86898356Y-136179665D01*
X86892595Y-136175110D01*
X86893893Y-136173468D01*
X86853372Y-136128412D01*
X86841000Y-136073963D01*
X86841000Y-135622147D01*
X86861002Y-135554026D01*
X86862175Y-135552234D01*
X86897412Y-135499500D01*
X86960989Y-135346011D01*
X86993400Y-135183068D01*
X86993400Y-135016932D01*
X86960989Y-134853989D01*
X86897412Y-134700500D01*
X86805112Y-134562364D01*
X86805107Y-134562358D01*
X86687641Y-134444892D01*
X86687635Y-134444887D01*
X86621121Y-134400444D01*
X86549500Y-134352588D01*
X86396011Y-134289011D01*
X86342167Y-134278300D01*
X86333908Y-134276658D01*
X86270999Y-134243750D01*
X86269395Y-134242174D01*
X85727904Y-133700682D01*
X85693879Y-133638370D01*
X85691000Y-133611587D01*
X85691000Y-132926037D01*
X85711002Y-132857916D01*
X85743489Y-132826025D01*
X85742593Y-132824892D01*
X85748345Y-132820342D01*
X85748350Y-132820340D01*
X85870340Y-132698350D01*
X85960908Y-132551516D01*
X86015174Y-132387753D01*
X86025500Y-132286677D01*
X86025499Y-131713324D01*
X86021554Y-131674708D01*
X86015174Y-131612246D01*
X85960909Y-131448487D01*
X85960908Y-131448486D01*
X85960908Y-131448484D01*
X85870340Y-131301650D01*
X85870339Y-131301649D01*
X85870334Y-131301643D01*
X85748356Y-131179665D01*
X85748350Y-131179660D01*
X85601516Y-131089092D01*
X85601514Y-131089091D01*
X85601512Y-131089090D01*
X85437759Y-131034827D01*
X85437747Y-131034825D01*
X85336685Y-131024500D01*
X84663322Y-131024500D01*
X84562246Y-131034825D01*
X84398487Y-131089090D01*
X84251649Y-131179660D01*
X84251643Y-131179665D01*
X84214095Y-131217214D01*
X84151783Y-131251240D01*
X84080968Y-131246175D01*
X84035905Y-131217214D01*
X83998356Y-131179665D01*
X83998350Y-131179660D01*
X83851516Y-131089092D01*
X83851514Y-131089091D01*
X83851512Y-131089090D01*
X83687759Y-131034827D01*
X83687747Y-131034825D01*
X83586685Y-131024500D01*
X82913322Y-131024500D01*
X82812246Y-131034825D01*
X82648487Y-131089090D01*
X82501649Y-131179660D01*
X82501643Y-131179665D01*
X82379665Y-131301643D01*
X82379660Y-131301649D01*
X82289090Y-131448487D01*
X82234827Y-131612240D01*
X82234825Y-131612252D01*
X82224500Y-131713314D01*
X82224500Y-132010587D01*
X82204498Y-132078708D01*
X82187595Y-132099682D01*
X80113268Y-134174008D01*
X80113265Y-134174012D01*
X80058084Y-134256599D01*
X80058083Y-134256600D01*
X80037644Y-134287189D01*
X79985556Y-134412939D01*
X79985555Y-134412942D01*
X79959000Y-134546438D01*
X79959000Y-136058542D01*
X79938998Y-136126663D01*
X79899150Y-136165781D01*
X79876651Y-136179659D01*
X79876643Y-136179665D01*
X79754665Y-136301643D01*
X79754660Y-136301649D01*
X79664090Y-136448487D01*
X79609827Y-136612240D01*
X79609825Y-136612252D01*
X79599500Y-136713314D01*
X79599500Y-137286677D01*
X79609825Y-137387753D01*
X79664090Y-137551512D01*
X79664091Y-137551514D01*
X79664092Y-137551516D01*
X79737241Y-137670110D01*
X79756000Y-137736255D01*
X79756000Y-139724324D01*
X79781897Y-139854510D01*
X79789876Y-139894624D01*
X79856325Y-140055047D01*
X79952794Y-140199424D01*
X82315294Y-142561923D01*
X82438077Y-142684706D01*
X82582453Y-142781175D01*
X82617168Y-142795554D01*
X82617169Y-142795555D01*
X82661613Y-142813964D01*
X82742876Y-142847625D01*
X82913180Y-142881500D01*
X93332680Y-142881500D01*
X93400801Y-142901502D01*
X93421775Y-142918405D01*
X99062595Y-148559224D01*
X99096621Y-148621536D01*
X99099500Y-148648319D01*
X99099500Y-149550009D01*
X99110000Y-149652797D01*
X99165185Y-149819334D01*
X99257288Y-149968656D01*
X99257293Y-149968662D01*
X99381337Y-150092706D01*
X99381343Y-150092711D01*
X99381344Y-150092712D01*
X99428020Y-150121502D01*
X99530665Y-150184814D01*
X99697196Y-150239997D01*
X99697198Y-150239997D01*
X99697203Y-150239999D01*
X99697207Y-150239999D01*
X99703928Y-150241438D01*
X99703586Y-150243032D01*
X99761534Y-150266672D01*
X99802337Y-150324772D01*
X99809000Y-150365203D01*
X99809000Y-153727851D01*
X99788998Y-153795972D01*
X99787766Y-153797852D01*
X99752587Y-153850501D01*
X99689013Y-154003983D01*
X99689011Y-154003988D01*
X99659045Y-154154637D01*
X99626137Y-154217546D01*
X99564442Y-154252678D01*
X99493547Y-154248878D01*
X99446371Y-154219150D01*
X96974005Y-151746784D01*
X94418405Y-149191183D01*
X94384379Y-149128871D01*
X94381500Y-149102088D01*
X94381500Y-145743095D01*
X94381499Y-145743092D01*
X94381397Y-145742580D01*
X94354945Y-145609597D01*
X94302856Y-145483843D01*
X94293645Y-145470058D01*
X94227235Y-145370668D01*
X93414333Y-144557765D01*
X93301157Y-144482144D01*
X93240302Y-144456937D01*
X93175406Y-144430056D01*
X93175405Y-144430055D01*
X93156829Y-144426360D01*
X93147542Y-144424513D01*
X93147541Y-144424512D01*
X93041907Y-144403500D01*
X93041904Y-144403500D01*
X82586028Y-144403500D01*
X82586024Y-144403500D01*
X82480740Y-144424443D01*
X82453705Y-144429821D01*
X82453700Y-144429821D01*
X82452529Y-144430054D01*
X82326776Y-144482143D01*
X82213598Y-144557764D01*
X82101404Y-144669958D01*
X82039091Y-144703983D01*
X81968276Y-144698917D01*
X81911440Y-144656370D01*
X81894092Y-144618195D01*
X81892338Y-144618777D01*
X81835909Y-144448487D01*
X81835908Y-144448486D01*
X81835908Y-144448484D01*
X81745340Y-144301650D01*
X81745339Y-144301649D01*
X81745334Y-144301643D01*
X81623356Y-144179665D01*
X81623350Y-144179660D01*
X81605023Y-144168356D01*
X81476516Y-144089092D01*
X81476514Y-144089091D01*
X81476512Y-144089090D01*
X81312759Y-144034827D01*
X81312747Y-144034825D01*
X81211685Y-144024500D01*
X80513322Y-144024500D01*
X80412246Y-144034825D01*
X80248487Y-144089090D01*
X80101649Y-144179660D01*
X80101643Y-144179665D01*
X79979665Y-144301643D01*
X79979660Y-144301649D01*
X79889090Y-144448487D01*
X79834827Y-144612240D01*
X79834825Y-144612252D01*
X79824500Y-144713314D01*
X79824500Y-145286677D01*
X79834825Y-145387753D01*
X79889090Y-145551512D01*
X79889091Y-145551514D01*
X79889092Y-145551516D01*
X79970659Y-145683757D01*
X79979660Y-145698350D01*
X79979665Y-145698356D01*
X80101645Y-145820336D01*
X80101650Y-145820340D01*
X80121725Y-145832722D01*
X80169204Y-145885507D01*
X80180608Y-145955582D01*
X80164034Y-146004102D01*
X80128256Y-146064599D01*
X80082401Y-146222431D01*
X80082401Y-146222432D01*
X80079500Y-146259306D01*
X80079500Y-146421600D01*
X80059498Y-146489721D01*
X80005842Y-146536214D01*
X79953500Y-146547600D01*
X79486288Y-146547600D01*
X79418167Y-146527598D01*
X79397192Y-146510695D01*
X78727904Y-145841406D01*
X78693879Y-145779094D01*
X78691000Y-145752311D01*
X78691000Y-144456940D01*
X78690999Y-144456937D01*
X78685652Y-144430055D01*
X78664445Y-144323442D01*
X78612356Y-144197688D01*
X78586965Y-144159688D01*
X78536735Y-144084513D01*
X78536730Y-144084508D01*
X78536728Y-144084505D01*
X76079995Y-141627771D01*
X76079989Y-141627766D01*
X76079986Y-141627764D01*
X75966812Y-141552144D01*
X75944174Y-141542767D01*
X75841061Y-141500056D01*
X75841053Y-141500053D01*
X75832954Y-141498442D01*
X75832954Y-141498443D01*
X75707562Y-141473500D01*
X75707559Y-141473500D01*
X63687442Y-141473500D01*
X63687438Y-141473500D01*
X63562047Y-141498443D01*
X63562046Y-141498442D01*
X63553947Y-141500053D01*
X63553939Y-141500056D01*
X63428188Y-141552144D01*
X63315015Y-141627764D01*
X63315013Y-141627765D01*
X62842168Y-142100609D01*
X62779856Y-142134634D01*
X62733363Y-142135962D01*
X62637452Y-142120771D01*
X62566287Y-142109500D01*
X62353713Y-142109500D01*
X62143757Y-142142754D01*
X62143754Y-142142754D01*
X62143753Y-142142755D01*
X61941588Y-142208443D01*
X61941586Y-142208444D01*
X61752180Y-142304951D01*
X61580205Y-142429898D01*
X61580202Y-142429900D01*
X61429900Y-142580202D01*
X61429898Y-142580205D01*
X61304951Y-142752180D01*
X61208444Y-142941586D01*
X61208443Y-142941588D01*
X61145666Y-143134796D01*
X61142754Y-143143757D01*
X61109500Y-143353713D01*
X61109500Y-143566287D01*
X61142754Y-143776243D01*
X61208443Y-143978412D01*
X61304949Y-144167816D01*
X61429896Y-144339792D01*
X61429898Y-144339794D01*
X61429900Y-144339797D01*
X61580202Y-144490099D01*
X61580205Y-144490101D01*
X61580208Y-144490104D01*
X61717061Y-144589533D01*
X61720455Y-144593934D01*
X61725512Y-144596244D01*
X61741898Y-144621742D01*
X61760415Y-144645754D01*
X61761688Y-144652535D01*
X61763896Y-144655970D01*
X61769000Y-144691468D01*
X61769000Y-144768531D01*
X61748998Y-144836652D01*
X61717061Y-144870467D01*
X61580205Y-144969898D01*
X61580202Y-144969900D01*
X61429900Y-145120202D01*
X61429898Y-145120205D01*
X61304951Y-145292180D01*
X61208444Y-145481586D01*
X61208443Y-145481588D01*
X61152812Y-145652803D01*
X61142754Y-145683757D01*
X61109500Y-145893713D01*
X61109500Y-146106287D01*
X61142754Y-146316243D01*
X61208443Y-146518412D01*
X61303005Y-146704000D01*
X61304951Y-146707819D01*
X61316709Y-146724002D01*
X61429896Y-146879792D01*
X61429898Y-146879794D01*
X61429900Y-146879797D01*
X61580202Y-147030099D01*
X61580205Y-147030101D01*
X61580208Y-147030104D01*
X61717061Y-147129533D01*
X61720455Y-147133934D01*
X61725512Y-147136244D01*
X61741898Y-147161742D01*
X61760415Y-147185754D01*
X61761688Y-147192535D01*
X61763896Y-147195970D01*
X61769000Y-147231468D01*
X61769000Y-147308531D01*
X61748998Y-147376652D01*
X61717061Y-147410467D01*
X61580205Y-147509898D01*
X61580202Y-147509900D01*
X61429900Y-147660202D01*
X61429898Y-147660205D01*
X61304951Y-147832180D01*
X61304949Y-147832184D01*
X61208443Y-148021588D01*
X61142754Y-148223757D01*
X61109500Y-148433713D01*
X61109500Y-148646287D01*
X61142754Y-148856243D01*
X61208443Y-149058412D01*
X61304949Y-149247816D01*
X61429896Y-149419792D01*
X61429898Y-149419794D01*
X61429900Y-149419797D01*
X61580202Y-149570099D01*
X61580205Y-149570101D01*
X61580208Y-149570104D01*
X61717061Y-149669533D01*
X61720455Y-149673934D01*
X61725512Y-149676244D01*
X61741898Y-149701742D01*
X61760415Y-149725754D01*
X61761688Y-149732535D01*
X61763896Y-149735970D01*
X61769000Y-149771468D01*
X61769000Y-149848531D01*
X61748998Y-149916652D01*
X61717061Y-149950467D01*
X61580205Y-150049898D01*
X61580202Y-150049900D01*
X61429900Y-150200202D01*
X61429898Y-150200205D01*
X61304951Y-150372180D01*
X61208444Y-150561586D01*
X61208443Y-150561588D01*
X61175396Y-150663297D01*
X61142754Y-150763757D01*
X61109500Y-150973713D01*
X61109500Y-151186287D01*
X61142754Y-151396243D01*
X61208443Y-151598412D01*
X61304949Y-151787816D01*
X61429896Y-151959792D01*
X61429898Y-151959794D01*
X61429900Y-151959797D01*
X61580202Y-152110099D01*
X61580205Y-152110101D01*
X61580208Y-152110104D01*
X61717061Y-152209533D01*
X61720455Y-152213934D01*
X61725512Y-152216244D01*
X61741898Y-152241742D01*
X61760415Y-152265754D01*
X61761688Y-152272535D01*
X61763896Y-152275970D01*
X61769000Y-152311468D01*
X61769000Y-152388531D01*
X61748998Y-152456652D01*
X61717061Y-152490467D01*
X61580205Y-152589898D01*
X61580202Y-152589900D01*
X61429900Y-152740202D01*
X61429898Y-152740205D01*
X61304951Y-152912180D01*
X61208444Y-153101586D01*
X61208443Y-153101588D01*
X61160423Y-153249379D01*
X61142754Y-153303757D01*
X61109500Y-153513713D01*
X61109500Y-153726287D01*
X61142754Y-153936243D01*
X61208443Y-154138412D01*
X61304946Y-154327810D01*
X61304951Y-154327819D01*
X61335840Y-154370334D01*
X61429896Y-154499792D01*
X61429898Y-154499794D01*
X61429900Y-154499797D01*
X61580202Y-154650099D01*
X61580205Y-154650101D01*
X61580208Y-154650104D01*
X61717061Y-154749533D01*
X61720455Y-154753934D01*
X61725512Y-154756244D01*
X61741898Y-154781742D01*
X61760415Y-154805754D01*
X61761688Y-154812535D01*
X61763896Y-154815970D01*
X61769000Y-154851468D01*
X61769000Y-154928531D01*
X61748998Y-154996652D01*
X61717061Y-155030467D01*
X61580205Y-155129898D01*
X61580202Y-155129900D01*
X61429900Y-155280202D01*
X61429898Y-155280205D01*
X61304951Y-155452180D01*
X61208444Y-155641586D01*
X61208443Y-155641588D01*
X61188865Y-155701844D01*
X61142754Y-155843757D01*
X61109500Y-156053713D01*
X61109500Y-156266287D01*
X61142754Y-156476243D01*
X61208443Y-156678412D01*
X61304949Y-156867816D01*
X61429896Y-157039792D01*
X61429898Y-157039794D01*
X61429900Y-157039797D01*
X61580202Y-157190099D01*
X61580205Y-157190101D01*
X61580208Y-157190104D01*
X61752184Y-157315051D01*
X61941588Y-157411557D01*
X62143757Y-157477246D01*
X62353713Y-157510500D01*
X62353716Y-157510500D01*
X62566284Y-157510500D01*
X62566287Y-157510500D01*
X62776243Y-157477246D01*
X62978412Y-157411557D01*
X63167816Y-157315051D01*
X63339792Y-157190104D01*
X63451127Y-157078768D01*
X63513437Y-157044745D01*
X63584253Y-157049809D01*
X63641089Y-157092356D01*
X63658277Y-157123833D01*
X63706202Y-157252328D01*
X63706203Y-157252329D01*
X63792453Y-157367546D01*
X63828274Y-157394361D01*
X63907669Y-157453796D01*
X63907671Y-157453796D01*
X63907673Y-157453798D01*
X63968030Y-157476309D01*
X64042514Y-157504090D01*
X64042517Y-157504091D01*
X64102127Y-157510500D01*
X65897872Y-157510499D01*
X65957483Y-157504091D01*
X66092331Y-157453796D01*
X66207546Y-157367546D01*
X66293796Y-157252331D01*
X66344091Y-157117483D01*
X66350500Y-157057873D01*
X66350500Y-156884000D01*
X66370502Y-156815879D01*
X66424158Y-156769386D01*
X66476500Y-156758000D01*
X72554620Y-156758000D01*
X72622741Y-156778002D01*
X72643710Y-156794900D01*
X72689150Y-156840340D01*
X72835984Y-156930908D01*
X72835986Y-156930908D01*
X72835987Y-156930909D01*
X72999740Y-156985172D01*
X72999741Y-156985172D01*
X72999747Y-156985174D01*
X73100823Y-156995500D01*
X73699176Y-156995499D01*
X73699177Y-156995499D01*
X73800253Y-156985174D01*
X73800259Y-156985172D01*
X73964016Y-156930908D01*
X74110850Y-156840340D01*
X74232840Y-156718350D01*
X74323408Y-156571516D01*
X74377674Y-156407753D01*
X74388000Y-156306677D01*
X74387999Y-155733324D01*
X74384783Y-155701845D01*
X74382836Y-155682785D01*
X74377674Y-155632247D01*
X74369091Y-155606348D01*
X74368547Y-155590533D01*
X74363016Y-155575703D01*
X74367350Y-155555777D01*
X74366649Y-155535397D01*
X74374951Y-155520839D01*
X74378108Y-155506329D01*
X74399596Y-155477623D01*
X74524669Y-155352552D01*
X74586982Y-155318527D01*
X74613764Y-155315648D01*
X79929858Y-155315648D01*
X79952063Y-155311231D01*
X80022777Y-155317557D01*
X80078845Y-155361109D01*
X80102467Y-155428061D01*
X80097645Y-155469961D01*
X80082402Y-155522427D01*
X80082401Y-155522432D01*
X80079500Y-155559306D01*
X80079500Y-157440693D01*
X80082401Y-157477567D01*
X80082401Y-157477568D01*
X80128257Y-157635401D01*
X80211917Y-157776863D01*
X80211923Y-157776870D01*
X80328129Y-157893076D01*
X80328136Y-157893082D01*
X80469598Y-157976742D01*
X80469599Y-157976742D01*
X80469602Y-157976744D01*
X80627431Y-158022598D01*
X80664306Y-158025500D01*
X80664307Y-158025500D01*
X81095693Y-158025500D01*
X81095694Y-158025500D01*
X81132569Y-158022598D01*
X81290398Y-157976744D01*
X81290401Y-157976741D01*
X81297846Y-157974579D01*
X81368843Y-157974782D01*
X81428459Y-158013335D01*
X81457768Y-158078000D01*
X81459000Y-158095576D01*
X81459000Y-161898913D01*
X81438998Y-161967034D01*
X81422095Y-161988008D01*
X81289900Y-162120202D01*
X81289898Y-162120205D01*
X81164949Y-162292183D01*
X81162265Y-162297451D01*
X81113516Y-162349065D01*
X81044600Y-162366129D01*
X80977399Y-162343226D01*
X80937735Y-162297451D01*
X80935050Y-162292183D01*
X80935048Y-162292180D01*
X80810104Y-162120208D01*
X80810101Y-162120205D01*
X80810099Y-162120202D01*
X80659797Y-161969900D01*
X80659794Y-161969898D01*
X80659792Y-161969896D01*
X80522939Y-161870467D01*
X80487819Y-161844951D01*
X80487818Y-161844950D01*
X80487816Y-161844949D01*
X80298412Y-161748443D01*
X80096243Y-161682754D01*
X79886287Y-161649500D01*
X79673713Y-161649500D01*
X79463757Y-161682754D01*
X79463754Y-161682754D01*
X79463753Y-161682755D01*
X79261588Y-161748443D01*
X79261586Y-161748444D01*
X79072180Y-161844951D01*
X78900205Y-161969898D01*
X78900202Y-161969900D01*
X78749900Y-162120202D01*
X78749898Y-162120205D01*
X78624949Y-162292183D01*
X78622265Y-162297451D01*
X78573516Y-162349065D01*
X78504600Y-162366129D01*
X78437399Y-162343226D01*
X78397735Y-162297451D01*
X78395050Y-162292183D01*
X78395048Y-162292180D01*
X78270104Y-162120208D01*
X78270101Y-162120205D01*
X78270099Y-162120202D01*
X78119797Y-161969900D01*
X78119794Y-161969898D01*
X78119792Y-161969896D01*
X77982939Y-161870467D01*
X77947819Y-161844951D01*
X77947818Y-161844950D01*
X77947816Y-161844949D01*
X77758412Y-161748443D01*
X77556243Y-161682754D01*
X77346287Y-161649500D01*
X77133713Y-161649500D01*
X76923757Y-161682754D01*
X76923754Y-161682754D01*
X76923753Y-161682755D01*
X76721588Y-161748443D01*
X76721586Y-161748444D01*
X76532180Y-161844951D01*
X76360205Y-161969898D01*
X76360202Y-161969900D01*
X76209900Y-162120202D01*
X76209898Y-162120205D01*
X76084949Y-162292183D01*
X76082265Y-162297451D01*
X76033516Y-162349065D01*
X75964600Y-162366129D01*
X75897399Y-162343226D01*
X75857735Y-162297451D01*
X75855050Y-162292183D01*
X75855048Y-162292180D01*
X75730104Y-162120208D01*
X75730101Y-162120205D01*
X75730099Y-162120202D01*
X75579797Y-161969900D01*
X75579794Y-161969898D01*
X75579792Y-161969896D01*
X75442939Y-161870467D01*
X75407819Y-161844951D01*
X75407818Y-161844950D01*
X75407816Y-161844949D01*
X75218412Y-161748443D01*
X75016243Y-161682754D01*
X74806287Y-161649500D01*
X74593713Y-161649500D01*
X74383757Y-161682754D01*
X74383754Y-161682754D01*
X74383753Y-161682755D01*
X74181588Y-161748443D01*
X74181586Y-161748444D01*
X73992180Y-161844951D01*
X73820205Y-161969898D01*
X73820202Y-161969900D01*
X73669900Y-162120202D01*
X73669898Y-162120205D01*
X73544949Y-162292183D01*
X73542265Y-162297451D01*
X73493516Y-162349065D01*
X73424600Y-162366129D01*
X73357399Y-162343226D01*
X73317735Y-162297451D01*
X73315050Y-162292183D01*
X73315048Y-162292180D01*
X73190104Y-162120208D01*
X73190101Y-162120205D01*
X73190099Y-162120202D01*
X73039797Y-161969900D01*
X73039794Y-161969898D01*
X73039792Y-161969896D01*
X72902939Y-161870467D01*
X72867819Y-161844951D01*
X72867818Y-161844950D01*
X72867816Y-161844949D01*
X72678412Y-161748443D01*
X72476243Y-161682754D01*
X72266287Y-161649500D01*
X72053713Y-161649500D01*
X71843757Y-161682754D01*
X71843754Y-161682754D01*
X71843753Y-161682755D01*
X71641588Y-161748443D01*
X71641586Y-161748444D01*
X71452180Y-161844951D01*
X71280205Y-161969898D01*
X71280202Y-161969900D01*
X71129900Y-162120202D01*
X71129898Y-162120205D01*
X71004949Y-162292183D01*
X71002265Y-162297451D01*
X70953516Y-162349065D01*
X70884600Y-162366129D01*
X70817399Y-162343226D01*
X70777735Y-162297451D01*
X70775050Y-162292183D01*
X70775048Y-162292180D01*
X70650104Y-162120208D01*
X70650101Y-162120205D01*
X70650099Y-162120202D01*
X70499797Y-161969900D01*
X70499794Y-161969898D01*
X70499792Y-161969896D01*
X70362939Y-161870467D01*
X70327819Y-161844951D01*
X70327818Y-161844950D01*
X70327816Y-161844949D01*
X70138412Y-161748443D01*
X69936243Y-161682754D01*
X69726287Y-161649500D01*
X69513713Y-161649500D01*
X69303757Y-161682754D01*
X69303754Y-161682754D01*
X69303753Y-161682755D01*
X69101588Y-161748443D01*
X69101586Y-161748444D01*
X68912180Y-161844951D01*
X68740205Y-161969898D01*
X68740202Y-161969900D01*
X68589900Y-162120202D01*
X68589898Y-162120205D01*
X68464949Y-162292183D01*
X68462265Y-162297451D01*
X68413516Y-162349065D01*
X68344600Y-162366129D01*
X68277399Y-162343226D01*
X68237735Y-162297451D01*
X68235050Y-162292183D01*
X68235048Y-162292180D01*
X68110104Y-162120208D01*
X68110101Y-162120205D01*
X68110099Y-162120202D01*
X67959797Y-161969900D01*
X67959794Y-161969898D01*
X67959792Y-161969896D01*
X67822939Y-161870467D01*
X67787819Y-161844951D01*
X67787818Y-161844950D01*
X67787816Y-161844949D01*
X67598412Y-161748443D01*
X67396243Y-161682754D01*
X67186287Y-161649500D01*
X66973713Y-161649500D01*
X66763757Y-161682754D01*
X66763754Y-161682754D01*
X66763753Y-161682755D01*
X66561588Y-161748443D01*
X66561586Y-161748444D01*
X66372180Y-161844951D01*
X66200205Y-161969898D01*
X66200202Y-161969900D01*
X66049900Y-162120202D01*
X66049898Y-162120205D01*
X65924949Y-162292183D01*
X65922265Y-162297451D01*
X65873516Y-162349065D01*
X65804600Y-162366129D01*
X65737399Y-162343226D01*
X65697735Y-162297451D01*
X65695050Y-162292183D01*
X65695048Y-162292180D01*
X65570104Y-162120208D01*
X65570101Y-162120205D01*
X65570099Y-162120202D01*
X65419797Y-161969900D01*
X65419794Y-161969898D01*
X65419792Y-161969896D01*
X65282939Y-161870467D01*
X65247819Y-161844951D01*
X65247818Y-161844950D01*
X65247816Y-161844949D01*
X65058412Y-161748443D01*
X64856243Y-161682754D01*
X64646287Y-161649500D01*
X64433713Y-161649500D01*
X64223757Y-161682754D01*
X64223754Y-161682754D01*
X64223753Y-161682755D01*
X64021588Y-161748443D01*
X64021586Y-161748444D01*
X63832180Y-161844951D01*
X63660207Y-161969896D01*
X63548873Y-162081230D01*
X63486561Y-162115255D01*
X63415745Y-162110189D01*
X63358909Y-162067643D01*
X63341722Y-162036165D01*
X63293798Y-161907673D01*
X63293796Y-161907670D01*
X63293796Y-161907669D01*
X63212981Y-161799714D01*
X63207546Y-161792453D01*
X63103020Y-161714206D01*
X63092331Y-161706204D01*
X63092329Y-161706203D01*
X63092326Y-161706201D01*
X62957483Y-161655909D01*
X62957486Y-161655909D01*
X62897873Y-161649500D01*
X61102135Y-161649500D01*
X61102114Y-161649502D01*
X61042519Y-161655908D01*
X61042518Y-161655908D01*
X60907673Y-161706201D01*
X60907670Y-161706203D01*
X60792450Y-161792456D01*
X60790595Y-161794312D01*
X60788291Y-161795569D01*
X60785239Y-161797855D01*
X60784910Y-161797416D01*
X60728283Y-161828338D01*
X60657468Y-161823273D01*
X60600632Y-161780726D01*
X60575821Y-161714206D01*
X60575500Y-161705217D01*
X60575500Y-131260709D01*
X63681500Y-131260709D01*
X63681500Y-131503290D01*
X63713160Y-131743782D01*
X63775944Y-131978095D01*
X63775945Y-131978097D01*
X63775946Y-131978100D01*
X63868776Y-132202212D01*
X63868777Y-132202213D01*
X63868782Y-132202224D01*
X63990061Y-132412285D01*
X63990063Y-132412288D01*
X63990064Y-132412289D01*
X64137735Y-132604738D01*
X64137739Y-132604742D01*
X64137744Y-132604748D01*
X64309251Y-132776255D01*
X64309256Y-132776259D01*
X64309262Y-132776265D01*
X64500890Y-132923306D01*
X64501714Y-132923938D01*
X64711775Y-133045217D01*
X64711779Y-133045218D01*
X64711788Y-133045224D01*
X64935900Y-133138054D01*
X65170211Y-133200838D01*
X65170215Y-133200838D01*
X65170217Y-133200839D01*
X65232202Y-133208999D01*
X65410712Y-133232500D01*
X65410719Y-133232500D01*
X65653281Y-133232500D01*
X65653288Y-133232500D01*
X65870637Y-133203885D01*
X65893782Y-133200839D01*
X65893782Y-133200838D01*
X65893789Y-133200838D01*
X66128100Y-133138054D01*
X66352212Y-133045224D01*
X66562289Y-132923936D01*
X66754738Y-132776265D01*
X66926265Y-132604738D01*
X67073936Y-132412289D01*
X67195224Y-132202212D01*
X67288054Y-131978100D01*
X67350838Y-131743789D01*
X67382500Y-131503288D01*
X67382500Y-131260712D01*
X67353822Y-131042878D01*
X67350839Y-131020217D01*
X67350838Y-131020215D01*
X67350838Y-131020211D01*
X67288054Y-130785900D01*
X67195224Y-130561788D01*
X67195218Y-130561779D01*
X67195217Y-130561775D01*
X67073938Y-130351714D01*
X67067317Y-130343085D01*
X66926265Y-130159262D01*
X66926259Y-130159256D01*
X66926255Y-130159251D01*
X66754748Y-129987744D01*
X66754742Y-129987739D01*
X66754738Y-129987735D01*
X66562289Y-129840064D01*
X66562288Y-129840063D01*
X66562285Y-129840061D01*
X66352224Y-129718782D01*
X66352216Y-129718778D01*
X66352212Y-129718776D01*
X66128100Y-129625946D01*
X66128097Y-129625945D01*
X66128095Y-129625944D01*
X65893782Y-129563160D01*
X65653290Y-129531500D01*
X65653288Y-129531500D01*
X65410712Y-129531500D01*
X65410709Y-129531500D01*
X65170217Y-129563160D01*
X64935904Y-129625944D01*
X64935900Y-129625946D01*
X64776101Y-129692137D01*
X64711786Y-129718777D01*
X64711775Y-129718782D01*
X64501714Y-129840061D01*
X64309262Y-129987735D01*
X64309251Y-129987744D01*
X64137744Y-130159251D01*
X64137735Y-130159262D01*
X63990061Y-130351714D01*
X63868782Y-130561775D01*
X63868777Y-130561786D01*
X63868776Y-130561788D01*
X63837556Y-130637161D01*
X63775946Y-130785900D01*
X63775944Y-130785904D01*
X63713160Y-131020217D01*
X63681500Y-131260709D01*
X60575500Y-131260709D01*
X60575500Y-129583463D01*
X60595502Y-129515342D01*
X60612405Y-129494368D01*
X75494369Y-114612405D01*
X75556681Y-114578379D01*
X75583464Y-114575500D01*
X154975469Y-114575500D01*
X154997404Y-114575500D01*
X155002611Y-114575608D01*
G37*
%TD.AperFunction*%
%TA.AperFunction,Conductor*%
G36*
X89352154Y-148674579D02*
G01*
X89359598Y-148676741D01*
X89359602Y-148676744D01*
X89517431Y-148722598D01*
X89554306Y-148725500D01*
X89554307Y-148725500D01*
X89985693Y-148725500D01*
X89985694Y-148725500D01*
X90022569Y-148722598D01*
X90180398Y-148676744D01*
X90180401Y-148676741D01*
X90187846Y-148674579D01*
X90258843Y-148674782D01*
X90318459Y-148713335D01*
X90347768Y-148778000D01*
X90349000Y-148795576D01*
X90349000Y-148884341D01*
X90328998Y-148952462D01*
X90275342Y-148998955D01*
X90259580Y-149004914D01*
X90253994Y-149006608D01*
X90100500Y-149070188D01*
X89962364Y-149162487D01*
X89962358Y-149162492D01*
X89844892Y-149279958D01*
X89844887Y-149279964D01*
X89752588Y-149418100D01*
X89689013Y-149571583D01*
X89689011Y-149571588D01*
X89656600Y-149734529D01*
X89656600Y-149900670D01*
X89680169Y-150019157D01*
X89689011Y-150063611D01*
X89752588Y-150217100D01*
X89785711Y-150266672D01*
X89844887Y-150355235D01*
X89844892Y-150355241D01*
X89962358Y-150472707D01*
X89962364Y-150472712D01*
X90100500Y-150565012D01*
X90253989Y-150628589D01*
X90416932Y-150661000D01*
X90416933Y-150661000D01*
X90583067Y-150661000D01*
X90583068Y-150661000D01*
X90746011Y-150628589D01*
X90899500Y-150565012D01*
X91037636Y-150472712D01*
X91155112Y-150355236D01*
X91247412Y-150217100D01*
X91310989Y-150063611D01*
X91323340Y-150001510D01*
X91332246Y-149984483D01*
X91336332Y-149965705D01*
X91355372Y-149940270D01*
X91356245Y-149938603D01*
X91357762Y-149937058D01*
X91393906Y-149900914D01*
X91456218Y-149866891D01*
X91527034Y-149871957D01*
X91583869Y-149914504D01*
X91608679Y-149981025D01*
X91609000Y-149990012D01*
X91609000Y-151675687D01*
X91625176Y-151757006D01*
X91635555Y-151809186D01*
X91635557Y-151809191D01*
X91687644Y-151934940D01*
X91763266Y-152048117D01*
X91763271Y-152048123D01*
X93272095Y-153556946D01*
X93306120Y-153619258D01*
X93309000Y-153646041D01*
X93309000Y-161141588D01*
X93288998Y-161209709D01*
X93272099Y-161230678D01*
X93061790Y-161440988D01*
X92862168Y-161640610D01*
X92799856Y-161674635D01*
X92753365Y-161675962D01*
X92586287Y-161649500D01*
X92373713Y-161649500D01*
X92163757Y-161682754D01*
X92163754Y-161682754D01*
X92163753Y-161682755D01*
X91961588Y-161748443D01*
X91961586Y-161748444D01*
X91772180Y-161844951D01*
X91600205Y-161969898D01*
X91600202Y-161969900D01*
X91449900Y-162120202D01*
X91449898Y-162120205D01*
X91324949Y-162292183D01*
X91322265Y-162297451D01*
X91273516Y-162349065D01*
X91204600Y-162366129D01*
X91137399Y-162343226D01*
X91097735Y-162297451D01*
X91095050Y-162292183D01*
X91095048Y-162292180D01*
X90970104Y-162120208D01*
X90970101Y-162120205D01*
X90970099Y-162120202D01*
X90819797Y-161969900D01*
X90819794Y-161969898D01*
X90819792Y-161969896D01*
X90682939Y-161870467D01*
X90639585Y-161814245D01*
X90631000Y-161768531D01*
X90631000Y-159171941D01*
X90630999Y-159171938D01*
X90623192Y-159132689D01*
X90604445Y-159038443D01*
X90552356Y-158912689D01*
X90547720Y-158905750D01*
X90512198Y-158852587D01*
X90512196Y-158852585D01*
X90482233Y-158807740D01*
X90461020Y-158739987D01*
X90461000Y-158737741D01*
X90461000Y-158095576D01*
X90481002Y-158027455D01*
X90534658Y-157980962D01*
X90604932Y-157970858D01*
X90622154Y-157974579D01*
X90629598Y-157976741D01*
X90629602Y-157976744D01*
X90787431Y-158022598D01*
X90824306Y-158025500D01*
X90824307Y-158025500D01*
X91255693Y-158025500D01*
X91255694Y-158025500D01*
X91292569Y-158022598D01*
X91450398Y-157976744D01*
X91591865Y-157893081D01*
X91708081Y-157776865D01*
X91791744Y-157635398D01*
X91837598Y-157477569D01*
X91840500Y-157440694D01*
X91840500Y-155559306D01*
X91837598Y-155522431D01*
X91791744Y-155364602D01*
X91791742Y-155364598D01*
X91708082Y-155223136D01*
X91708076Y-155223129D01*
X91696401Y-155211454D01*
X91662375Y-155149142D01*
X91667440Y-155078327D01*
X91709987Y-155021491D01*
X91776507Y-154996680D01*
X91833711Y-155005949D01*
X91966589Y-155060989D01*
X92129532Y-155093400D01*
X92129533Y-155093400D01*
X92295667Y-155093400D01*
X92295668Y-155093400D01*
X92458611Y-155060989D01*
X92612100Y-154997412D01*
X92750236Y-154905112D01*
X92867712Y-154787636D01*
X92960012Y-154649500D01*
X93023589Y-154496011D01*
X93056000Y-154333068D01*
X93056000Y-154166932D01*
X93023589Y-154003989D01*
X92960012Y-153850500D01*
X92867712Y-153712364D01*
X92867707Y-153712358D01*
X92750241Y-153594892D01*
X92750235Y-153594887D01*
X92690276Y-153554824D01*
X92612100Y-153502588D01*
X92458611Y-153439011D01*
X92398519Y-153427058D01*
X92295670Y-153406600D01*
X92295668Y-153406600D01*
X92129532Y-153406600D01*
X92129529Y-153406600D01*
X91966588Y-153439011D01*
X91966583Y-153439013D01*
X91813099Y-153502588D01*
X91760454Y-153537765D01*
X91692701Y-153558980D01*
X91690452Y-153559000D01*
X90252556Y-153559000D01*
X90184435Y-153538998D01*
X90163461Y-153522095D01*
X88139706Y-151498340D01*
X88105680Y-151436028D01*
X88110745Y-151365213D01*
X88153292Y-151308377D01*
X88219812Y-151283566D01*
X88253383Y-151285666D01*
X88253984Y-151285785D01*
X88253990Y-151285788D01*
X88416933Y-151318199D01*
X88416934Y-151318199D01*
X88583068Y-151318199D01*
X88583069Y-151318199D01*
X88746012Y-151285788D01*
X88899501Y-151222211D01*
X89037637Y-151129911D01*
X89155113Y-151012435D01*
X89247413Y-150874299D01*
X89310990Y-150720810D01*
X89343401Y-150557867D01*
X89343401Y-150391731D01*
X89310990Y-150228788D01*
X89247413Y-150075299D01*
X89212235Y-150022652D01*
X89191020Y-149954899D01*
X89191000Y-149952650D01*
X89191000Y-148795576D01*
X89211002Y-148727455D01*
X89264658Y-148680962D01*
X89334932Y-148670858D01*
X89352154Y-148674579D01*
G37*
%TD.AperFunction*%
%TA.AperFunction,Conductor*%
G36*
X93955012Y-150682687D02*
G01*
X93961595Y-150688816D01*
X98750666Y-155477887D01*
X98846913Y-155574134D01*
X98960089Y-155649756D01*
X99085843Y-155701845D01*
X99219342Y-155728400D01*
X100894210Y-155728400D01*
X101027709Y-155701845D01*
X101153463Y-155649756D01*
X101165679Y-155641593D01*
X101165688Y-155641590D01*
X101165687Y-155641588D01*
X101242097Y-155590533D01*
X101266639Y-155574135D01*
X102132870Y-154707903D01*
X102195181Y-154673880D01*
X102221964Y-154671000D01*
X104607589Y-154671000D01*
X104675710Y-154691002D01*
X104722203Y-154744658D01*
X104732307Y-154814932D01*
X104702813Y-154879512D01*
X104696684Y-154886095D01*
X97942168Y-161640609D01*
X97879856Y-161674635D01*
X97833365Y-161675962D01*
X97666287Y-161649500D01*
X97453713Y-161649500D01*
X97243757Y-161682754D01*
X97243754Y-161682754D01*
X97243753Y-161682755D01*
X97041588Y-161748443D01*
X97041586Y-161748444D01*
X96852180Y-161844951D01*
X96680205Y-161969898D01*
X96680202Y-161969900D01*
X96529900Y-162120202D01*
X96529898Y-162120205D01*
X96404949Y-162292183D01*
X96402265Y-162297451D01*
X96353516Y-162349065D01*
X96284600Y-162366129D01*
X96217399Y-162343226D01*
X96177735Y-162297451D01*
X96175050Y-162292183D01*
X96175048Y-162292180D01*
X96050104Y-162120208D01*
X96050101Y-162120205D01*
X96050099Y-162120202D01*
X95899797Y-161969900D01*
X95899794Y-161969898D01*
X95899792Y-161969896D01*
X95766526Y-161873073D01*
X95742939Y-161855936D01*
X95699585Y-161799714D01*
X95691000Y-161754000D01*
X95691000Y-153341544D01*
X95690999Y-153341541D01*
X95683483Y-153303757D01*
X95664445Y-153208046D01*
X95612356Y-153082292D01*
X95609764Y-153078412D01*
X95601174Y-153065556D01*
X95583430Y-153039000D01*
X95536735Y-152969116D01*
X95536730Y-152969111D01*
X95536728Y-152969108D01*
X93783405Y-151215785D01*
X93749379Y-151153473D01*
X93746500Y-151126690D01*
X93746500Y-150777911D01*
X93766502Y-150709790D01*
X93820158Y-150663297D01*
X93890432Y-150653193D01*
X93955012Y-150682687D01*
G37*
%TD.AperFunction*%
%TA.AperFunction,Conductor*%
G36*
X129469011Y-147166334D02*
G01*
X129475594Y-147172464D01*
X134932095Y-152628964D01*
X134966121Y-152691276D01*
X134969000Y-152718059D01*
X134969000Y-161768531D01*
X134948998Y-161836652D01*
X134917061Y-161870467D01*
X134780205Y-161969898D01*
X134780202Y-161969900D01*
X134629900Y-162120202D01*
X134629898Y-162120205D01*
X134504949Y-162292183D01*
X134502265Y-162297451D01*
X134453516Y-162349065D01*
X134384600Y-162366129D01*
X134317399Y-162343226D01*
X134277735Y-162297451D01*
X134275050Y-162292183D01*
X134275048Y-162292180D01*
X134150104Y-162120208D01*
X134150101Y-162120205D01*
X134150099Y-162120202D01*
X133999797Y-161969900D01*
X133999794Y-161969898D01*
X133999792Y-161969896D01*
X133862939Y-161870467D01*
X133819585Y-161814245D01*
X133811000Y-161768531D01*
X133811000Y-153801941D01*
X133810999Y-153801938D01*
X133810900Y-153801438D01*
X133784445Y-153668443D01*
X133732356Y-153542689D01*
X133692613Y-153483210D01*
X133656735Y-153429514D01*
X133656733Y-153429512D01*
X133656731Y-153429509D01*
X129212905Y-148985683D01*
X129178879Y-148923371D01*
X129176000Y-148896588D01*
X129176000Y-148564387D01*
X129193546Y-148500249D01*
X129212681Y-148467894D01*
X129257654Y-148313098D01*
X129260500Y-148276935D01*
X129260499Y-147261558D01*
X129280501Y-147193438D01*
X129334157Y-147146945D01*
X129404431Y-147136841D01*
X129469011Y-147166334D01*
G37*
%TD.AperFunction*%
%TA.AperFunction,Conductor*%
G36*
X135729709Y-142711002D02*
G01*
X135750683Y-142727905D01*
X145092095Y-152069317D01*
X145126121Y-152131629D01*
X145129000Y-152158412D01*
X145129000Y-161768531D01*
X145108998Y-161836652D01*
X145077061Y-161870467D01*
X144940205Y-161969898D01*
X144940202Y-161969900D01*
X144789900Y-162120202D01*
X144789898Y-162120205D01*
X144664949Y-162292183D01*
X144662265Y-162297451D01*
X144613516Y-162349065D01*
X144544600Y-162366129D01*
X144477399Y-162343226D01*
X144437735Y-162297451D01*
X144435050Y-162292183D01*
X144435048Y-162292180D01*
X144310104Y-162120208D01*
X144310101Y-162120205D01*
X144310099Y-162120202D01*
X144159797Y-161969900D01*
X144159794Y-161969898D01*
X144159792Y-161969896D01*
X144022939Y-161870467D01*
X143979585Y-161814245D01*
X143971000Y-161768531D01*
X143971000Y-152211941D01*
X143970999Y-152211938D01*
X143969055Y-152202166D01*
X143944445Y-152078443D01*
X143892356Y-151952689D01*
X143883317Y-151939161D01*
X143878493Y-151931942D01*
X143864439Y-151910908D01*
X143816735Y-151839513D01*
X143816730Y-151839508D01*
X143816728Y-151839505D01*
X135034494Y-143057271D01*
X135034488Y-143057266D01*
X134990224Y-143027690D01*
X134921311Y-142981644D01*
X134840932Y-142948350D01*
X134804862Y-142933409D01*
X134749581Y-142888860D01*
X134727160Y-142821497D01*
X134744718Y-142752706D01*
X134796681Y-142704327D01*
X134853080Y-142691000D01*
X135661588Y-142691000D01*
X135729709Y-142711002D01*
G37*
%TD.AperFunction*%
%TA.AperFunction,Conductor*%
G36*
X77618690Y-153266502D02*
G01*
X77639664Y-153283404D01*
X77947412Y-153591151D01*
X77954106Y-153603411D01*
X77964624Y-153612609D01*
X77979373Y-153645299D01*
X77980856Y-153650438D01*
X77994249Y-153717767D01*
X78014198Y-153765928D01*
X78016153Y-153772700D01*
X78016022Y-153801438D01*
X78019095Y-153830020D01*
X78015862Y-153836476D01*
X78015830Y-153843696D01*
X78000179Y-153867806D01*
X77987315Y-153893507D01*
X77981107Y-153897190D01*
X77977176Y-153903247D01*
X77950971Y-153915070D01*
X77926257Y-153929734D01*
X77919042Y-153929476D01*
X77912461Y-153932446D01*
X77895097Y-153933648D01*
X74513535Y-153933648D01*
X74445414Y-153913646D01*
X74398921Y-153859990D01*
X74389037Y-153799949D01*
X74387837Y-153799888D01*
X74387999Y-153796684D01*
X74388000Y-153796677D01*
X74387999Y-153499310D01*
X74396783Y-153469392D01*
X74403412Y-153438925D01*
X74407226Y-153433829D01*
X74408001Y-153431191D01*
X74424895Y-153410225D01*
X74551718Y-153283402D01*
X74614028Y-153249379D01*
X74640811Y-153246500D01*
X77550569Y-153246500D01*
X77618690Y-153266502D01*
G37*
%TD.AperFunction*%
%TA.AperFunction,Conductor*%
G36*
X75953761Y-150121502D02*
G01*
X75974735Y-150138405D01*
X76850735Y-151014405D01*
X76884761Y-151076717D01*
X76879696Y-151147532D01*
X76837149Y-151204368D01*
X76770629Y-151229179D01*
X76761640Y-151229500D01*
X74658911Y-151229500D01*
X74590790Y-151209498D01*
X74569816Y-151192595D01*
X74424904Y-151047683D01*
X74390878Y-150985371D01*
X74387999Y-150958588D01*
X74387999Y-150713322D01*
X74377674Y-150612246D01*
X74323409Y-150448487D01*
X74323408Y-150448486D01*
X74323408Y-150448484D01*
X74232840Y-150301650D01*
X74232838Y-150301648D01*
X74228987Y-150295404D01*
X74231293Y-150293981D01*
X74209441Y-150239797D01*
X74222699Y-150170050D01*
X74271560Y-150118542D01*
X74334839Y-150101500D01*
X75885640Y-150101500D01*
X75953761Y-150121502D01*
G37*
%TD.AperFunction*%
%TA.AperFunction,Conductor*%
G36*
X87698976Y-145787426D02*
G01*
X87705705Y-145786203D01*
X87732606Y-145797301D01*
X87760536Y-145805502D01*
X87765015Y-145810671D01*
X87771336Y-145813279D01*
X87787966Y-145837158D01*
X87807029Y-145859158D01*
X87808002Y-145865928D01*
X87811910Y-145871539D01*
X87812989Y-145900616D01*
X87817133Y-145929432D01*
X87814353Y-145937328D01*
X87814545Y-145942487D01*
X87800868Y-145975639D01*
X87748257Y-146064598D01*
X87702401Y-146222431D01*
X87702401Y-146222432D01*
X87699500Y-146259306D01*
X87699500Y-148140693D01*
X87702401Y-148177567D01*
X87702401Y-148177568D01*
X87748256Y-148335398D01*
X87791454Y-148408442D01*
X87809000Y-148472581D01*
X87809000Y-149952651D01*
X87788998Y-150020772D01*
X87787766Y-150022652D01*
X87752588Y-150075299D01*
X87689014Y-150228782D01*
X87689012Y-150228787D01*
X87656601Y-150391728D01*
X87656601Y-150557869D01*
X87667418Y-150612247D01*
X87681044Y-150680754D01*
X87689133Y-150721416D01*
X87686067Y-150755677D01*
X87683610Y-150790030D01*
X87682909Y-150790966D01*
X87682805Y-150792130D01*
X87661686Y-150819316D01*
X87641063Y-150846866D01*
X87639968Y-150847274D01*
X87639251Y-150848198D01*
X87606793Y-150859648D01*
X87574543Y-150871677D01*
X87573399Y-150871428D01*
X87572298Y-150871817D01*
X87538827Y-150863907D01*
X87505169Y-150856586D01*
X87503935Y-150855662D01*
X87503205Y-150855490D01*
X87476459Y-150835093D01*
X87411215Y-150769849D01*
X87377189Y-150707537D01*
X87374310Y-150680754D01*
X87374310Y-150645989D01*
X87374309Y-150645986D01*
X87347755Y-150512491D01*
X87295666Y-150386737D01*
X87238813Y-150301650D01*
X87220045Y-150273562D01*
X87220040Y-150273556D01*
X86599232Y-149652748D01*
X86599231Y-149652747D01*
X86599228Y-149652744D01*
X86486052Y-149577123D01*
X86450293Y-149562311D01*
X86360301Y-149525035D01*
X86360298Y-149525034D01*
X86226802Y-149498479D01*
X86226799Y-149498479D01*
X83025917Y-149498479D01*
X82957796Y-149478477D01*
X82936822Y-149461574D01*
X82394585Y-148919337D01*
X82360559Y-148857025D01*
X82365624Y-148786210D01*
X82408171Y-148729374D01*
X82448522Y-148709247D01*
X82560398Y-148676744D01*
X82701865Y-148593081D01*
X82818081Y-148476865D01*
X82901744Y-148335398D01*
X82947598Y-148177569D01*
X82950500Y-148140694D01*
X82950500Y-146259306D01*
X82947598Y-146222431D01*
X82901744Y-146064602D01*
X82862105Y-145997577D01*
X82844646Y-145928761D01*
X82867162Y-145861430D01*
X82881460Y-145844347D01*
X82903405Y-145822403D01*
X82965718Y-145788379D01*
X82992498Y-145785500D01*
X87692415Y-145785500D01*
X87698976Y-145787426D01*
G37*
%TD.AperFunction*%
%TA.AperFunction,Conductor*%
G36*
X78310459Y-148280502D02*
G01*
X78331428Y-148297400D01*
X78420529Y-148386501D01*
X78444363Y-148410335D01*
X78536567Y-148471943D01*
X78536566Y-148471943D01*
X78557536Y-148485954D01*
X78557539Y-148485956D01*
X78683293Y-148538045D01*
X78816792Y-148564600D01*
X79135188Y-148564600D01*
X79203309Y-148584602D01*
X79224283Y-148601505D01*
X80299022Y-149676244D01*
X81018715Y-150395936D01*
X81052740Y-150458248D01*
X81047676Y-150529063D01*
X81005129Y-150585899D01*
X80938609Y-150610710D01*
X80929620Y-150611031D01*
X80791186Y-150611031D01*
X80628245Y-150643442D01*
X80628240Y-150643444D01*
X80474756Y-150707019D01*
X80332310Y-150802199D01*
X80264557Y-150823414D01*
X80196090Y-150804631D01*
X80173213Y-150786529D01*
X79558953Y-150172269D01*
X79558952Y-150172268D01*
X79558949Y-150172265D01*
X79445773Y-150096644D01*
X79394242Y-150075299D01*
X79320022Y-150044556D01*
X79320020Y-150044555D01*
X79320019Y-150044555D01*
X79302147Y-150041000D01*
X79302145Y-150040999D01*
X79186523Y-150018000D01*
X79186520Y-150018000D01*
X77860964Y-150018000D01*
X77792843Y-149997998D01*
X77771869Y-149981095D01*
X76664546Y-148873771D01*
X76664540Y-148873766D01*
X76652121Y-148865468D01*
X76551363Y-148798144D01*
X76425609Y-148746055D01*
X76399517Y-148740865D01*
X76399513Y-148740864D01*
X76292113Y-148719500D01*
X76292110Y-148719500D01*
X74514000Y-148719500D01*
X74505174Y-148716908D01*
X74496069Y-148718218D01*
X74471642Y-148707062D01*
X74445879Y-148699498D01*
X74439855Y-148692546D01*
X74431488Y-148688725D01*
X74416970Y-148666135D01*
X74399386Y-148645842D01*
X74397061Y-148635157D01*
X74393104Y-148628999D01*
X74388000Y-148593501D01*
X74387999Y-148386501D01*
X74408001Y-148318380D01*
X74461656Y-148271887D01*
X74513999Y-148260500D01*
X78242338Y-148260500D01*
X78310459Y-148280502D01*
G37*
%TD.AperFunction*%
%TA.AperFunction,Conductor*%
G36*
X75369210Y-142875502D02*
G01*
X75390184Y-142892405D01*
X77272095Y-144774315D01*
X77306120Y-144836627D01*
X77309000Y-144863410D01*
X77309000Y-146158782D01*
X77319385Y-146210989D01*
X77335555Y-146292281D01*
X77387644Y-146418035D01*
X77454712Y-146518411D01*
X77463266Y-146531212D01*
X77463271Y-146531218D01*
X77595458Y-146663405D01*
X77629484Y-146725717D01*
X77624419Y-146796532D01*
X77581872Y-146853368D01*
X77515352Y-146878179D01*
X77506363Y-146878500D01*
X74209489Y-146878500D01*
X74141368Y-146858498D01*
X74094875Y-146804842D01*
X74084771Y-146734568D01*
X74102248Y-146686354D01*
X74124093Y-146650937D01*
X74148408Y-146611516D01*
X74202674Y-146447753D01*
X74213000Y-146346677D01*
X74212999Y-145773324D01*
X74205340Y-145698350D01*
X74202674Y-145672246D01*
X74148409Y-145508487D01*
X74148408Y-145508486D01*
X74148408Y-145508484D01*
X74057840Y-145361650D01*
X74057839Y-145361649D01*
X74057834Y-145361643D01*
X73935856Y-145239665D01*
X73935850Y-145239660D01*
X73828800Y-145173631D01*
X73781322Y-145120845D01*
X73769919Y-145050770D01*
X73771364Y-145041831D01*
X73800000Y-144897868D01*
X73800000Y-144731732D01*
X73767589Y-144568789D01*
X73751023Y-144528796D01*
X73743435Y-144458209D01*
X73775214Y-144394722D01*
X73801282Y-144373342D01*
X73935850Y-144290340D01*
X74057840Y-144168350D01*
X74148408Y-144021516D01*
X74202674Y-143857753D01*
X74213000Y-143756677D01*
X74212999Y-143183324D01*
X74211911Y-143172676D01*
X74202674Y-143082246D01*
X74182423Y-143021133D01*
X74179982Y-142950178D01*
X74216290Y-142889168D01*
X74279819Y-142857473D01*
X74302027Y-142855500D01*
X75301089Y-142855500D01*
X75369210Y-142875502D01*
G37*
%TD.AperFunction*%
%TA.AperFunction,Conductor*%
G36*
X115469128Y-129862259D02*
G01*
X115525964Y-129904806D01*
X115550775Y-129971326D01*
X115544701Y-130019947D01*
X115534826Y-130049745D01*
X115534825Y-130049752D01*
X115524500Y-130150814D01*
X115524500Y-130849177D01*
X115534825Y-130950253D01*
X115589090Y-131114012D01*
X115589091Y-131114014D01*
X115589092Y-131114016D01*
X115652745Y-131217214D01*
X115679660Y-131260850D01*
X115679665Y-131260856D01*
X115801643Y-131382834D01*
X115801649Y-131382839D01*
X115801650Y-131382840D01*
X115948484Y-131473408D01*
X115948486Y-131473408D01*
X115948487Y-131473409D01*
X116112240Y-131527672D01*
X116112241Y-131527672D01*
X116112247Y-131527674D01*
X116213323Y-131538000D01*
X116786676Y-131537999D01*
X116786677Y-131537999D01*
X116887753Y-131527674D01*
X117010867Y-131486878D01*
X117081821Y-131484437D01*
X117142832Y-131520745D01*
X117174527Y-131584274D01*
X117176500Y-131606482D01*
X117176500Y-132299088D01*
X117156498Y-132367209D01*
X117139595Y-132388183D01*
X114018271Y-135509506D01*
X114018266Y-135509513D01*
X114018265Y-135509514D01*
X113996120Y-135542657D01*
X113949839Y-135611921D01*
X113942645Y-135622686D01*
X113938287Y-135633207D01*
X113933587Y-135640240D01*
X113932476Y-135645353D01*
X113910987Y-135674065D01*
X113906105Y-135678948D01*
X113843796Y-135712980D01*
X113772980Y-135707922D01*
X113716140Y-135665381D01*
X113691322Y-135598864D01*
X113691000Y-135589862D01*
X113691000Y-134838411D01*
X113711002Y-134770290D01*
X113727905Y-134749316D01*
X114128866Y-134348355D01*
X114536735Y-133940486D01*
X114612356Y-133827311D01*
X114664445Y-133701557D01*
X114684052Y-133602987D01*
X114691000Y-133568058D01*
X114691000Y-130588411D01*
X114711002Y-130520290D01*
X114727905Y-130499316D01*
X115336001Y-129891220D01*
X115398313Y-129857194D01*
X115469128Y-129862259D01*
G37*
%TD.AperFunction*%
%TA.AperFunction,Conductor*%
G36*
X118724127Y-131481905D02*
G01*
X118862247Y-131527674D01*
X118963323Y-131538000D01*
X119536676Y-131537999D01*
X119536677Y-131537999D01*
X119637753Y-131527674D01*
X119705768Y-131505136D01*
X119776722Y-131502695D01*
X119837733Y-131539003D01*
X119861809Y-131576521D01*
X119887641Y-131638883D01*
X119887643Y-131638888D01*
X119887644Y-131638889D01*
X119963265Y-131752065D01*
X120022096Y-131810896D01*
X120056120Y-131873206D01*
X120059000Y-131899990D01*
X120059000Y-133025139D01*
X120038998Y-133093260D01*
X120022095Y-133114234D01*
X117828268Y-135308060D01*
X117828265Y-135308063D01*
X117783579Y-135374943D01*
X117774783Y-135388108D01*
X117752644Y-135421241D01*
X117731758Y-135471663D01*
X117729112Y-135476709D01*
X117708229Y-135498302D01*
X117689387Y-135521684D01*
X117683829Y-135523533D01*
X117679757Y-135527745D01*
X117650519Y-135534619D01*
X117622024Y-135544104D01*
X117616339Y-135542657D01*
X117610646Y-135543996D01*
X117582635Y-135534080D01*
X117553389Y-135526637D01*
X117505401Y-135498257D01*
X117347568Y-135452401D01*
X117313595Y-135449728D01*
X117310694Y-135449500D01*
X116879306Y-135449500D01*
X116876405Y-135449728D01*
X116842432Y-135452401D01*
X116842431Y-135452401D01*
X116684598Y-135498257D01*
X116543134Y-135581919D01*
X116537219Y-135586507D01*
X116517362Y-135594301D01*
X116499843Y-135606477D01*
X116484976Y-135607014D01*
X116471132Y-135612449D01*
X116450214Y-135608271D01*
X116428893Y-135609042D01*
X116411489Y-135600536D01*
X116401511Y-135598544D01*
X116395753Y-135595332D01*
X116382309Y-135587363D01*
X116376865Y-135581919D01*
X116235398Y-135498256D01*
X116228687Y-135496306D01*
X116215855Y-135488700D01*
X116196881Y-135468338D01*
X116175490Y-135450541D01*
X116173029Y-135442741D01*
X116167454Y-135436759D01*
X116162501Y-135409375D01*
X116154127Y-135382835D01*
X116156273Y-135374943D01*
X116154818Y-135366896D01*
X116165455Y-135341183D01*
X116172760Y-135314327D01*
X116180756Y-135304198D01*
X116181959Y-135301292D01*
X116184378Y-135299610D01*
X116191003Y-135291219D01*
X118404235Y-133077988D01*
X118479856Y-132964813D01*
X118531945Y-132839059D01*
X118544435Y-132776265D01*
X118558500Y-132705559D01*
X118558500Y-131601511D01*
X118578502Y-131533390D01*
X118632158Y-131486897D01*
X118702432Y-131476793D01*
X118724127Y-131481905D01*
G37*
%TD.AperFunction*%
%TA.AperFunction,Conductor*%
G36*
X126479709Y-125711002D02*
G01*
X126500683Y-125727905D01*
X127522095Y-126749317D01*
X127556121Y-126811629D01*
X127559000Y-126838412D01*
X127559000Y-131606587D01*
X127538998Y-131674708D01*
X127522095Y-131695682D01*
X123801501Y-135416275D01*
X123739189Y-135450301D01*
X123702520Y-135452792D01*
X123697570Y-135452402D01*
X123697569Y-135452402D01*
X123660694Y-135449500D01*
X123229306Y-135449500D01*
X123226405Y-135449728D01*
X123192432Y-135452401D01*
X123192431Y-135452401D01*
X123115482Y-135474758D01*
X123044486Y-135474555D01*
X122984869Y-135436001D01*
X122955561Y-135371337D01*
X122965865Y-135301092D01*
X122991234Y-135264666D01*
X123855456Y-134400444D01*
X125036735Y-133219166D01*
X125112356Y-133105991D01*
X125164445Y-132980237D01*
X125178120Y-132911487D01*
X125191000Y-132846738D01*
X125191000Y-128677848D01*
X125211002Y-128609727D01*
X125264658Y-128563234D01*
X125334932Y-128553130D01*
X125383143Y-128570605D01*
X125448484Y-128610908D01*
X125448486Y-128610908D01*
X125448487Y-128610909D01*
X125612240Y-128665172D01*
X125612241Y-128665172D01*
X125612247Y-128665174D01*
X125713323Y-128675500D01*
X126286676Y-128675499D01*
X126286677Y-128675499D01*
X126387753Y-128665174D01*
X126387759Y-128665172D01*
X126551516Y-128610908D01*
X126698350Y-128520340D01*
X126820340Y-128398350D01*
X126910908Y-128251516D01*
X126965174Y-128087753D01*
X126975500Y-127986677D01*
X126975499Y-127288324D01*
X126971868Y-127252783D01*
X126965174Y-127187246D01*
X126910909Y-127023487D01*
X126910908Y-127023486D01*
X126910908Y-127023484D01*
X126820340Y-126876650D01*
X126820339Y-126876649D01*
X126820334Y-126876643D01*
X126698356Y-126754665D01*
X126698350Y-126754660D01*
X126628608Y-126711643D01*
X126551516Y-126664092D01*
X126551514Y-126664091D01*
X126551512Y-126664090D01*
X126387759Y-126609827D01*
X126387747Y-126609825D01*
X126286685Y-126599500D01*
X126286677Y-126599500D01*
X125991412Y-126599500D01*
X125923291Y-126579498D01*
X125902321Y-126562599D01*
X125357487Y-126017765D01*
X125244311Y-125942144D01*
X125223221Y-125933408D01*
X125167942Y-125888860D01*
X125145521Y-125821497D01*
X125163080Y-125752705D01*
X125215042Y-125704327D01*
X125271441Y-125691000D01*
X126411588Y-125691000D01*
X126479709Y-125711002D01*
G37*
%TD.AperFunction*%
%TA.AperFunction,Conductor*%
G36*
X122184005Y-116461002D02*
G01*
X122230498Y-116514658D01*
X122240602Y-116584932D01*
X122211108Y-116649512D01*
X122182034Y-116674238D01*
X122122431Y-116711002D01*
X122051649Y-116754660D01*
X122051643Y-116754665D01*
X121929665Y-116876643D01*
X121929660Y-116876649D01*
X121839090Y-117023487D01*
X121784827Y-117187240D01*
X121784825Y-117187252D01*
X121774500Y-117288314D01*
X121774500Y-117886677D01*
X121784825Y-117987753D01*
X121839090Y-118151512D01*
X121839091Y-118151514D01*
X121839092Y-118151516D01*
X121880714Y-118218996D01*
X121929660Y-118298350D01*
X121929665Y-118298356D01*
X122042214Y-118410905D01*
X122076240Y-118473217D01*
X122071175Y-118544032D01*
X122042214Y-118589095D01*
X121929665Y-118701643D01*
X121929660Y-118701649D01*
X121839090Y-118848487D01*
X121784827Y-119012240D01*
X121784825Y-119012252D01*
X121774500Y-119113314D01*
X121774500Y-119358587D01*
X121765716Y-119388502D01*
X121759088Y-119418972D01*
X121755273Y-119424067D01*
X121754498Y-119426708D01*
X121737595Y-119447682D01*
X121690594Y-119494683D01*
X121628282Y-119528709D01*
X121557467Y-119523644D01*
X121500631Y-119481097D01*
X121475820Y-119414577D01*
X121475499Y-119405588D01*
X121475499Y-119013322D01*
X121465174Y-118912246D01*
X121410909Y-118748487D01*
X121410908Y-118748486D01*
X121410908Y-118748484D01*
X121320340Y-118601650D01*
X121320339Y-118601649D01*
X121320334Y-118601643D01*
X121198356Y-118479665D01*
X121198350Y-118479660D01*
X121159939Y-118455968D01*
X121051516Y-118389092D01*
X121051514Y-118389091D01*
X121051512Y-118389090D01*
X120887759Y-118334827D01*
X120887747Y-118334825D01*
X120786685Y-118324500D01*
X120213322Y-118324500D01*
X120112246Y-118334825D01*
X119948487Y-118389090D01*
X119801649Y-118479660D01*
X119801643Y-118479665D01*
X119679665Y-118601643D01*
X119679660Y-118601649D01*
X119589090Y-118748487D01*
X119534827Y-118912240D01*
X119534825Y-118912252D01*
X119524500Y-119013314D01*
X119524500Y-119711677D01*
X119534825Y-119812753D01*
X119589090Y-119976512D01*
X119589091Y-119976514D01*
X119589092Y-119976516D01*
X119672740Y-120112131D01*
X119679660Y-120123350D01*
X119684213Y-120129108D01*
X119683206Y-120129903D01*
X119713618Y-120185585D01*
X119716500Y-120212380D01*
X119716500Y-121802418D01*
X119698954Y-121866556D01*
X119655756Y-121939599D01*
X119609901Y-122097431D01*
X119609901Y-122097432D01*
X119607000Y-122134306D01*
X119607000Y-123915693D01*
X119609901Y-123952567D01*
X119609901Y-123952568D01*
X119655756Y-124110399D01*
X119678322Y-124148557D01*
X119695780Y-124217373D01*
X119690443Y-124249264D01*
X119689011Y-124253984D01*
X119656600Y-124416926D01*
X119656600Y-124583070D01*
X119678295Y-124692137D01*
X119689011Y-124746011D01*
X119752588Y-124899500D01*
X119807752Y-124982058D01*
X119844887Y-125037635D01*
X119844892Y-125037641D01*
X119882695Y-125075444D01*
X119916721Y-125137756D01*
X119911656Y-125208571D01*
X119882695Y-125253634D01*
X118600768Y-126535560D01*
X118600763Y-126535567D01*
X118569494Y-126582364D01*
X118515017Y-126627892D01*
X118444573Y-126636739D01*
X118400590Y-126620815D01*
X118277901Y-126548257D01*
X118120068Y-126502401D01*
X118086095Y-126499728D01*
X118083194Y-126499500D01*
X117651806Y-126499500D01*
X117648905Y-126499728D01*
X117614932Y-126502401D01*
X117614931Y-126502401D01*
X117457098Y-126548257D01*
X117315634Y-126631919D01*
X117309719Y-126636507D01*
X117282798Y-126647074D01*
X117257181Y-126660501D01*
X117250176Y-126659879D01*
X117243632Y-126662449D01*
X117215271Y-126656784D01*
X117186462Y-126654230D01*
X117177783Y-126649297D01*
X117174011Y-126648544D01*
X117155283Y-126636509D01*
X117149366Y-126631920D01*
X117149365Y-126631919D01*
X117149362Y-126631917D01*
X117147380Y-126630380D01*
X117105808Y-126572827D01*
X117101951Y-126501936D01*
X117135500Y-126441720D01*
X118404235Y-125172986D01*
X118479856Y-125059811D01*
X118531945Y-124934057D01*
X118553178Y-124827311D01*
X118558500Y-124800558D01*
X118558500Y-124247579D01*
X118576047Y-124183439D01*
X118596677Y-124148557D01*
X118619244Y-124110398D01*
X118665098Y-123952569D01*
X118668000Y-123915694D01*
X118668000Y-122134306D01*
X118665098Y-122097431D01*
X118619244Y-121939602D01*
X118619243Y-121939601D01*
X118619243Y-121939599D01*
X118576046Y-121866556D01*
X118558500Y-121802418D01*
X118558500Y-120178278D01*
X118577258Y-120112133D01*
X118660908Y-119976516D01*
X118715174Y-119812753D01*
X118725500Y-119711677D01*
X118725499Y-119013324D01*
X118725389Y-119012252D01*
X118715174Y-118912246D01*
X118660909Y-118748487D01*
X118660908Y-118748486D01*
X118660908Y-118748484D01*
X118570340Y-118601650D01*
X118570339Y-118601649D01*
X118570334Y-118601643D01*
X118448356Y-118479665D01*
X118448350Y-118479660D01*
X118409939Y-118455968D01*
X118301516Y-118389092D01*
X118301514Y-118389091D01*
X118301512Y-118389090D01*
X118137759Y-118334827D01*
X118137747Y-118334825D01*
X118036685Y-118324500D01*
X117463322Y-118324500D01*
X117362246Y-118334825D01*
X117198487Y-118389090D01*
X117051649Y-118479660D01*
X117051643Y-118479665D01*
X116929665Y-118601643D01*
X116929660Y-118601649D01*
X116867595Y-118702273D01*
X116860001Y-118714586D01*
X116839091Y-118748486D01*
X116792489Y-118889119D01*
X116752075Y-118947490D01*
X116686518Y-118974745D01*
X116616633Y-118962231D01*
X116565645Y-118915633D01*
X116495340Y-118801650D01*
X116495339Y-118801649D01*
X116495334Y-118801643D01*
X116423005Y-118729314D01*
X116408060Y-118701945D01*
X116391204Y-118675717D01*
X116390298Y-118669418D01*
X116388979Y-118667002D01*
X116386100Y-118640219D01*
X116386100Y-118436769D01*
X116406102Y-118368648D01*
X116445954Y-118329528D01*
X116447623Y-118328498D01*
X116460850Y-118320340D01*
X116582840Y-118198350D01*
X116673408Y-118051516D01*
X116727674Y-117887753D01*
X116738000Y-117786677D01*
X116737999Y-117213324D01*
X116727674Y-117112247D01*
X116723869Y-117100765D01*
X116673409Y-116948487D01*
X116673408Y-116948486D01*
X116673408Y-116948484D01*
X116582840Y-116801650D01*
X116582839Y-116801649D01*
X116582834Y-116801643D01*
X116460856Y-116679665D01*
X116460848Y-116679658D01*
X116452063Y-116674240D01*
X116404586Y-116621454D01*
X116393183Y-116551379D01*
X116421476Y-116486264D01*
X116480482Y-116446781D01*
X116518211Y-116441000D01*
X122115884Y-116441000D01*
X122184005Y-116461002D01*
G37*
%TD.AperFunction*%
%TA.AperFunction,Conductor*%
G36*
X129694309Y-116461002D02*
G01*
X129715283Y-116477905D01*
X130952195Y-117714817D01*
X130986221Y-117777129D01*
X130989100Y-117803912D01*
X130989100Y-118099177D01*
X130999425Y-118200253D01*
X131053690Y-118364012D01*
X131053691Y-118364014D01*
X131053692Y-118364016D01*
X131116596Y-118466000D01*
X131144260Y-118510850D01*
X131144265Y-118510856D01*
X131266243Y-118632834D01*
X131266249Y-118632839D01*
X131266250Y-118632840D01*
X131413084Y-118723408D01*
X131413086Y-118723408D01*
X131413087Y-118723409D01*
X131576840Y-118777672D01*
X131576841Y-118777672D01*
X131576847Y-118777674D01*
X131677923Y-118788000D01*
X132251276Y-118787999D01*
X132251277Y-118787999D01*
X132352353Y-118777674D01*
X132352359Y-118777672D01*
X132516116Y-118723408D01*
X132662950Y-118632840D01*
X132784940Y-118510850D01*
X132875508Y-118364016D01*
X132929774Y-118200253D01*
X132940100Y-118099177D01*
X132940099Y-117400824D01*
X132939989Y-117399752D01*
X132929774Y-117299746D01*
X132875509Y-117135987D01*
X132875508Y-117135986D01*
X132875508Y-117135984D01*
X132784940Y-116989150D01*
X132772385Y-116976595D01*
X132738360Y-116914287D01*
X132743423Y-116843471D01*
X132760276Y-116812441D01*
X132765808Y-116804981D01*
X132784940Y-116785850D01*
X132809357Y-116746263D01*
X132812563Y-116741941D01*
X132836762Y-116723657D01*
X132859312Y-116703375D01*
X132865453Y-116701979D01*
X132869209Y-116699142D01*
X132882326Y-116698144D01*
X132913767Y-116691000D01*
X136147220Y-116691000D01*
X136215341Y-116711002D01*
X136236315Y-116727905D01*
X136306814Y-116798404D01*
X136340840Y-116860716D01*
X136335775Y-116931531D01*
X136306815Y-116976594D01*
X136194260Y-117089149D01*
X136103690Y-117235987D01*
X136049427Y-117399740D01*
X136049425Y-117399752D01*
X136039100Y-117500814D01*
X136039100Y-118099177D01*
X136049425Y-118200253D01*
X136103690Y-118364012D01*
X136103691Y-118364014D01*
X136103692Y-118364016D01*
X136166596Y-118466000D01*
X136194260Y-118510850D01*
X136194265Y-118510856D01*
X136316243Y-118632834D01*
X136316249Y-118632839D01*
X136316250Y-118632840D01*
X136463084Y-118723408D01*
X136463086Y-118723408D01*
X136463087Y-118723409D01*
X136626840Y-118777672D01*
X136626841Y-118777672D01*
X136626847Y-118777674D01*
X136727923Y-118788000D01*
X137301276Y-118787999D01*
X137301277Y-118787999D01*
X137402353Y-118777674D01*
X137402359Y-118777672D01*
X137566116Y-118723408D01*
X137712950Y-118632840D01*
X137766130Y-118579660D01*
X137840130Y-118505661D01*
X137841790Y-118507321D01*
X137890504Y-118472823D01*
X137931404Y-118466000D01*
X141322796Y-118466000D01*
X141390917Y-118486002D01*
X141413370Y-118506360D01*
X141414070Y-118505661D01*
X141541243Y-118632834D01*
X141541249Y-118632839D01*
X141541250Y-118632840D01*
X141688084Y-118723408D01*
X141688086Y-118723408D01*
X141688087Y-118723409D01*
X141851840Y-118777672D01*
X141851841Y-118777672D01*
X141851847Y-118777674D01*
X141952923Y-118788000D01*
X142526276Y-118787999D01*
X142526277Y-118787999D01*
X142627353Y-118777674D01*
X142627359Y-118777672D01*
X142791116Y-118723408D01*
X142937950Y-118632840D01*
X143059940Y-118510850D01*
X143150508Y-118364016D01*
X143172268Y-118298350D01*
X143179221Y-118277367D01*
X143219635Y-118218996D01*
X143285191Y-118191740D01*
X143298825Y-118191000D01*
X150933000Y-118191000D01*
X151001121Y-118211002D01*
X151047614Y-118264658D01*
X151059000Y-118317000D01*
X151059000Y-119048454D01*
X151038998Y-119116575D01*
X150985342Y-119163068D01*
X150915068Y-119173172D01*
X150850488Y-119143678D01*
X150814944Y-119092485D01*
X150762798Y-118952673D01*
X150762796Y-118952670D01*
X150762796Y-118952669D01*
X150719671Y-118895061D01*
X150676546Y-118837453D01*
X150596688Y-118777672D01*
X150561331Y-118751204D01*
X150561329Y-118751203D01*
X150561326Y-118751201D01*
X150426483Y-118700909D01*
X150426486Y-118700909D01*
X150366873Y-118694500D01*
X147771135Y-118694500D01*
X147771114Y-118694502D01*
X147711519Y-118700908D01*
X147711518Y-118700908D01*
X147576673Y-118751201D01*
X147576670Y-118751203D01*
X147461453Y-118837453D01*
X147375203Y-118952670D01*
X147375201Y-118952673D01*
X147324909Y-119087515D01*
X147318500Y-119147121D01*
X147318500Y-121042864D01*
X147318502Y-121042885D01*
X147324908Y-121102480D01*
X147324908Y-121102481D01*
X147375203Y-121237330D01*
X147399278Y-121269491D01*
X147424089Y-121336011D01*
X147408998Y-121405385D01*
X147399278Y-121420509D01*
X147375203Y-121452669D01*
X147324909Y-121587515D01*
X147318500Y-121647121D01*
X147318500Y-121778000D01*
X147298498Y-121846121D01*
X147244842Y-121892614D01*
X147192500Y-121904000D01*
X146033412Y-121904000D01*
X145965291Y-121883998D01*
X145944321Y-121867099D01*
X145402987Y-121325765D01*
X145289811Y-121250144D01*
X145258875Y-121237330D01*
X145164060Y-121198056D01*
X145164058Y-121198055D01*
X145164057Y-121198055D01*
X145146185Y-121194500D01*
X145146183Y-121194499D01*
X145030561Y-121171500D01*
X145030558Y-121171500D01*
X143183747Y-121171500D01*
X143115626Y-121151498D01*
X143076507Y-121111648D01*
X143070854Y-121102483D01*
X143070340Y-121101650D01*
X143070337Y-121101647D01*
X143070334Y-121101643D01*
X142948356Y-120979665D01*
X142948350Y-120979660D01*
X142887055Y-120941853D01*
X142801516Y-120889092D01*
X142801514Y-120889091D01*
X142801512Y-120889090D01*
X142637759Y-120834827D01*
X142637747Y-120834825D01*
X142536685Y-120824500D01*
X141963322Y-120824500D01*
X141862246Y-120834825D01*
X141698487Y-120889090D01*
X141551649Y-120979660D01*
X141551643Y-120979665D01*
X141434214Y-121097095D01*
X141371902Y-121131121D01*
X141345119Y-121134000D01*
X137993268Y-121134000D01*
X137925147Y-121113998D01*
X137878654Y-121060342D01*
X137868550Y-120990068D01*
X137886025Y-120941856D01*
X137910908Y-120901516D01*
X137965174Y-120737753D01*
X137975500Y-120636677D01*
X137975499Y-120038324D01*
X137972731Y-120011230D01*
X137965174Y-119937246D01*
X137910909Y-119773487D01*
X137910908Y-119773486D01*
X137910908Y-119773484D01*
X137820340Y-119626650D01*
X137820339Y-119626649D01*
X137820334Y-119626643D01*
X137698356Y-119504665D01*
X137698350Y-119504660D01*
X137660148Y-119481097D01*
X137551516Y-119414092D01*
X137551514Y-119414091D01*
X137551512Y-119414090D01*
X137387759Y-119359827D01*
X137387747Y-119359825D01*
X137286685Y-119349500D01*
X136713322Y-119349500D01*
X136612246Y-119359825D01*
X136605372Y-119362104D01*
X136565739Y-119368500D01*
X132864380Y-119368500D01*
X132796259Y-119348498D01*
X132775289Y-119331599D01*
X132698350Y-119254660D01*
X132551516Y-119164092D01*
X132551514Y-119164091D01*
X132551512Y-119164090D01*
X132387759Y-119109827D01*
X132387747Y-119109825D01*
X132286685Y-119099500D01*
X131713322Y-119099500D01*
X131612246Y-119109825D01*
X131448487Y-119164090D01*
X131301649Y-119254660D01*
X131301643Y-119254665D01*
X131179665Y-119376643D01*
X131179660Y-119376649D01*
X131089090Y-119523487D01*
X131034827Y-119687240D01*
X131034825Y-119687252D01*
X131024500Y-119788314D01*
X131024500Y-120486677D01*
X131034825Y-120587753D01*
X131089090Y-120751512D01*
X131089091Y-120751514D01*
X131089092Y-120751516D01*
X131173948Y-120889090D01*
X131179660Y-120898350D01*
X131179665Y-120898356D01*
X131192214Y-120910905D01*
X131193414Y-120913103D01*
X131195565Y-120914387D01*
X131210335Y-120944090D01*
X131226240Y-120973217D01*
X131226061Y-120975716D01*
X131227176Y-120977958D01*
X131223543Y-121010923D01*
X131221175Y-121044032D01*
X131219588Y-121046809D01*
X131219399Y-121048527D01*
X131214034Y-121056533D01*
X131201017Y-121079321D01*
X131196866Y-121084443D01*
X131179660Y-121101650D01*
X131169248Y-121118529D01*
X131164151Y-121124821D01*
X131141331Y-121140575D01*
X131120707Y-121159126D01*
X131111397Y-121161241D01*
X131105726Y-121165157D01*
X131092198Y-121165604D01*
X131066253Y-121171500D01*
X128950912Y-121171500D01*
X128882791Y-121151498D01*
X128861817Y-121134595D01*
X127227905Y-119500683D01*
X127193879Y-119438371D01*
X127191000Y-119411588D01*
X127191000Y-117931941D01*
X127190999Y-117931938D01*
X127181996Y-117886676D01*
X127164445Y-117798443D01*
X127160558Y-117789057D01*
X127112356Y-117672688D01*
X127036735Y-117559513D01*
X126577987Y-117100765D01*
X126464811Y-117025144D01*
X126377914Y-116989150D01*
X126339060Y-116973056D01*
X126339058Y-116973055D01*
X126339057Y-116973055D01*
X126289840Y-116963265D01*
X126289839Y-116963264D01*
X126205561Y-116946500D01*
X126205558Y-116946500D01*
X125933747Y-116946500D01*
X125865626Y-116926498D01*
X125826507Y-116886648D01*
X125820341Y-116876652D01*
X125820340Y-116876650D01*
X125820337Y-116876647D01*
X125820334Y-116876643D01*
X125698356Y-116754665D01*
X125698350Y-116754660D01*
X125648086Y-116723657D01*
X125567967Y-116674239D01*
X125520491Y-116621455D01*
X125509088Y-116551380D01*
X125537380Y-116486265D01*
X125596385Y-116446782D01*
X125634116Y-116441000D01*
X129626188Y-116441000D01*
X129694309Y-116461002D01*
G37*
%TD.AperFunction*%
%TD*%
M02*
