%TF.GenerationSoftware,KiCad,Pcbnew,9.0.1+1*%
%TF.CreationDate,2025-08-26T22:51:47+00:00*%
%TF.ProjectId,rcbus-ymf262,72636275-732d-4796-9d66-3236322e6b69,@version@*%
%TF.SameCoordinates,Original*%
%TF.FileFunction,Copper,L2,Bot*%
%TF.FilePolarity,Positive*%
%FSLAX46Y46*%
G04 Gerber Fmt 4.6, Leading zero omitted, Abs format (unit mm)*
G04 Created by KiCad (PCBNEW 9.0.1+1) date 2025-08-26 22:51:47*
%MOMM*%
%LPD*%
G01*
G04 APERTURE LIST*
%TA.AperFunction,ComponentPad*%
%ADD10R,2.500000X1.800000*%
%TD*%
%TA.AperFunction,ComponentPad*%
%ADD11R,1.800000X2.500000*%
%TD*%
%TA.AperFunction,ComponentPad*%
%ADD12R,1.700000X1.700000*%
%TD*%
%TA.AperFunction,ComponentPad*%
%ADD13C,1.700000*%
%TD*%
%TA.AperFunction,ComponentPad*%
%ADD14O,1.700000X1.700000*%
%TD*%
%TA.AperFunction,ViaPad*%
%ADD15C,0.685800*%
%TD*%
%TA.AperFunction,Conductor*%
%ADD16C,0.381000*%
%TD*%
G04 APERTURE END LIST*
D10*
%TO.P,CON1,R*%
%TO.N,Net-(C18-Pad1)*%
X149069000Y-130095000D03*
%TO.P,CON1,RN*%
X149069000Y-127595000D03*
D11*
%TO.P,CON1,S*%
%TO.N,GND*%
X154069000Y-125095000D03*
D10*
%TO.P,CON1,T*%
%TO.N,Net-(C17-Pad1)*%
X149069000Y-120095000D03*
%TO.P,CON1,TN*%
X149069000Y-122595000D03*
%TD*%
D12*
%TO.P,JP1,1,Pin_1*%
%TO.N,Net-(JP1-Pin_1)*%
X65000000Y-156160000D03*
D13*
%TO.P,JP1,2,Pin_2*%
%TO.N,VCC*%
X62460000Y-156160000D03*
%TO.P,JP1,3,Pin_3*%
%TO.N,Net-(JP1-Pin_3)*%
X65000000Y-153620000D03*
%TO.P,JP1,4,Pin_4*%
%TO.N,VCC*%
X62460000Y-153620000D03*
%TO.P,JP1,5,Pin_5*%
%TO.N,Net-(JP1-Pin_5)*%
X65000000Y-151080000D03*
%TO.P,JP1,6,Pin_6*%
%TO.N,VCC*%
X62460000Y-151080000D03*
%TO.P,JP1,7,Pin_7*%
%TO.N,Net-(JP1-Pin_7)*%
X65000000Y-148540000D03*
%TO.P,JP1,8,Pin_8*%
%TO.N,VCC*%
X62460000Y-148540000D03*
%TO.P,JP1,9,Pin_9*%
%TO.N,Net-(JP1-Pin_9)*%
X65000000Y-146000000D03*
%TO.P,JP1,10,Pin_10*%
%TO.N,VCC*%
X62460000Y-146000000D03*
%TO.P,JP1,11,Pin_11*%
%TO.N,Net-(JP1-Pin_11)*%
X65000000Y-143460000D03*
%TO.P,JP1,12,Pin_12*%
%TO.N,VCC*%
X62460000Y-143460000D03*
%TD*%
D12*
%TO.P,P1,1,Pin_1*%
%TO.N,unconnected-(P1-Pin_1-Pad1)*%
X62000000Y-163000000D03*
D14*
%TO.P,P1,2,Pin_2*%
%TO.N,unconnected-(P1-Pin_2-Pad2)*%
X64540000Y-163000000D03*
%TO.P,P1,3,Pin_3*%
%TO.N,unconnected-(P1-Pin_3-Pad3)*%
X67080000Y-163000000D03*
%TO.P,P1,4,Pin_4*%
%TO.N,unconnected-(P1-Pin_4-Pad4)*%
X69620000Y-163000000D03*
%TO.P,P1,5,Pin_5*%
%TO.N,unconnected-(P1-Pin_5-Pad5)*%
X72160000Y-163000000D03*
%TO.P,P1,6,Pin_6*%
%TO.N,unconnected-(P1-Pin_6-Pad6)*%
X74700000Y-163000000D03*
%TO.P,P1,7,Pin_7*%
%TO.N,unconnected-(P1-Pin_7-Pad7)*%
X77240000Y-163000000D03*
%TO.P,P1,8,Pin_8*%
%TO.N,unconnected-(P1-Pin_8-Pad8)*%
X79780000Y-163000000D03*
%TO.P,P1,9,Pin_9*%
%TO.N,/A7*%
X82320000Y-163000000D03*
%TO.P,P1,10,Pin_10*%
%TO.N,/A6*%
X84860000Y-163000000D03*
%TO.P,P1,11,Pin_11*%
%TO.N,/A5*%
X87400000Y-163000000D03*
%TO.P,P1,12,Pin_12*%
%TO.N,/A4*%
X89940000Y-163000000D03*
%TO.P,P1,13,Pin_13*%
%TO.N,/A3*%
X92480000Y-163000000D03*
%TO.P,P1,14,Pin_14*%
%TO.N,/A2*%
X95020000Y-163000000D03*
%TO.P,P1,15,Pin_15*%
%TO.N,/A1*%
X97560000Y-163000000D03*
%TO.P,P1,16,Pin_16*%
%TO.N,/A0*%
X100100000Y-163000000D03*
%TO.P,P1,17,Pin_17*%
%TO.N,GND*%
X102640000Y-163000000D03*
%TO.P,P1,18,Pin_18*%
%TO.N,VCC*%
X105180000Y-163000000D03*
%TO.P,P1,19,Pin_19*%
%TO.N,unconnected-(P1-Pin_19-Pad19)*%
X107720000Y-163000000D03*
%TO.P,P1,20,Pin_20*%
%TO.N,/~{RESET}*%
X110260000Y-163000000D03*
%TO.P,P1,21,Pin_21*%
%TO.N,unconnected-(P1-Pin_21-Pad21)*%
X112800000Y-163000000D03*
%TO.P,P1,22,Pin_22*%
%TO.N,/~{INT}*%
X115340000Y-163000000D03*
%TO.P,P1,23,Pin_23*%
%TO.N,unconnected-(P1-Pin_23-Pad23)*%
X117880000Y-163000000D03*
%TO.P,P1,24,Pin_24*%
%TO.N,/~{WR}*%
X120420000Y-163000000D03*
%TO.P,P1,25,Pin_25*%
%TO.N,/~{RD}*%
X122960000Y-163000000D03*
%TO.P,P1,26,Pin_26*%
%TO.N,/~{IORQ}*%
X125500000Y-163000000D03*
%TO.P,P1,27,Pin_27*%
%TO.N,/D0*%
X128040000Y-163000000D03*
%TO.P,P1,28,Pin_28*%
%TO.N,/D1*%
X130580000Y-163000000D03*
%TO.P,P1,29,Pin_29*%
%TO.N,/D2*%
X133120000Y-163000000D03*
%TO.P,P1,30,Pin_30*%
%TO.N,/D3*%
X135660000Y-163000000D03*
%TO.P,P1,31,Pin_31*%
%TO.N,/D4*%
X138200000Y-163000000D03*
%TO.P,P1,32,Pin_32*%
%TO.N,/D5*%
X140740000Y-163000000D03*
%TO.P,P1,33,Pin_33*%
%TO.N,/D6*%
X143280000Y-163000000D03*
%TO.P,P1,34,Pin_34*%
%TO.N,/D7*%
X145820000Y-163000000D03*
%TO.P,P1,35,Pin_35*%
%TO.N,unconnected-(P1-Pin_35-Pad35)*%
X148360000Y-163000000D03*
%TO.P,P1,36,Pin_36*%
%TO.N,unconnected-(P1-Pin_36-Pad36)*%
X150900000Y-163000000D03*
%TO.P,P1,37,Pin_37*%
%TO.N,unconnected-(P1-Pin_37-Pad37)*%
X153440000Y-163000000D03*
%TO.P,P1,38,Pin_38*%
%TO.N,unconnected-(P1-Pin_38-Pad38)*%
X155980000Y-163000000D03*
%TO.P,P1,39,Pin_39*%
%TO.N,unconnected-(P1-Pin_39-Pad39)*%
X158520000Y-163000000D03*
%TD*%
D15*
%TO.N,VCC*%
X92212600Y-154250000D03*
X100500000Y-154250000D03*
%TO.N,GND*%
X86000000Y-115000000D03*
X76000000Y-115000000D03*
X81000000Y-115000000D03*
X128485000Y-158500000D03*
X107000000Y-115000000D03*
X126000000Y-131000000D03*
X115800000Y-141400000D03*
X119000000Y-120750000D03*
X83731069Y-145881900D03*
X119250000Y-133750000D03*
X115000000Y-132250000D03*
X96000000Y-115000000D03*
X101000000Y-115000000D03*
X143702100Y-115987500D03*
X92955615Y-158503700D03*
X91000000Y-115000000D03*
X143800000Y-120100000D03*
%TO.N,/~{IORQ}*%
X123800000Y-158500000D03*
X85000000Y-154450000D03*
%TO.N,/DAC_CLK*%
X119537412Y-145143729D03*
X116700000Y-145400000D03*
%TO.N,Net-(C3-Pad1)*%
X138817400Y-145468100D03*
X151293900Y-146295300D03*
X144160700Y-145870000D03*
%TO.N,/AUDIO_CH2*%
X124500000Y-128000000D03*
X120500000Y-124500000D03*
%TO.N,+5VA*%
X148595900Y-146504300D03*
%TO.N,Net-(JP1-Pin_1)*%
X76700000Y-156000000D03*
X88500001Y-150474799D03*
X81368224Y-153118224D03*
%TO.N,Net-(JP1-Pin_9)*%
X85895910Y-151240000D03*
X76700000Y-146000000D03*
X85983804Y-153449800D03*
%TO.N,Net-(JP1-Pin_7)*%
X76700000Y-148500000D03*
%TO.N,Net-(JP1-Pin_11)*%
X76280724Y-143919276D03*
X72956600Y-144814800D03*
X82937400Y-159600000D03*
%TO.N,Net-(JP1-Pin_3)*%
X76700000Y-153500000D03*
X78805238Y-153471756D03*
X90500000Y-149817600D03*
%TO.N,Net-(JP1-Pin_5)*%
X80874257Y-151454431D03*
X76700000Y-151000000D03*
X79176756Y-151880846D03*
%TD*%
D16*
%TO.N,VCC*%
X100500000Y-154250000D02*
X100500000Y-158320000D01*
X92212600Y-154250000D02*
X100500000Y-154250000D01*
X105180000Y-163000000D02*
X100590000Y-158410000D01*
X100500000Y-158320000D02*
X100590000Y-158410000D01*
%TO.N,GND*%
X102640000Y-163000000D02*
X98143700Y-158503700D01*
X98143700Y-158503700D02*
X92955615Y-158503700D01*
%TO.N,/~{IORQ}*%
X118550000Y-153250000D02*
X97613552Y-153250000D01*
X97576152Y-153287400D02*
X96923848Y-153287400D01*
X96923848Y-153287400D02*
X96886448Y-153250000D01*
X87297156Y-153250000D02*
X86097156Y-154450000D01*
X96886448Y-153250000D02*
X87297156Y-153250000D01*
X97613552Y-153250000D02*
X97576152Y-153287400D01*
X123800000Y-158500000D02*
X118550000Y-153250000D01*
X86097156Y-154450000D02*
X85000000Y-154450000D01*
%TO.N,/DAC_CLK*%
X119481141Y-145200000D02*
X119537412Y-145143729D01*
X118227800Y-145400000D02*
X118427800Y-145200000D01*
X116700000Y-145400000D02*
X118227800Y-145400000D01*
X118427800Y-145200000D02*
X119481141Y-145200000D01*
%TO.N,Net-(C3-Pad1)*%
X148974700Y-145589900D02*
X148217100Y-145589900D01*
X151293900Y-146295300D02*
X149680100Y-146295300D01*
X147937000Y-145870000D02*
X144160700Y-145870000D01*
X144160700Y-145870000D02*
X143758800Y-145468100D01*
X149680100Y-146295300D02*
X148974700Y-145589900D01*
X143758800Y-145468100D02*
X138817400Y-145468100D01*
X148217100Y-145589900D02*
X147937000Y-145870000D01*
%TO.N,/AUDIO_CH2*%
X124500000Y-128000000D02*
X121000000Y-124500000D01*
X121000000Y-124500000D02*
X120500000Y-124500000D01*
%TO.N,+5VA*%
X148595900Y-146504300D02*
X148315800Y-146784400D01*
%TO.N,Net-(JP1-Pin_1)*%
X84033848Y-150452600D02*
X81368224Y-153118224D01*
X88500001Y-150474799D02*
X86444061Y-150474799D01*
X86421862Y-150452600D02*
X84033848Y-150452600D01*
X86444061Y-150474799D02*
X86421862Y-150452600D01*
%TO.N,Net-(JP1-Pin_9)*%
X85983804Y-151327894D02*
X85983804Y-153449800D01*
X85895910Y-151240000D02*
X85983804Y-151327894D01*
%TO.N,Net-(JP1-Pin_11)*%
X72956600Y-154570152D02*
X77986448Y-159600000D01*
X77986448Y-159600000D02*
X82937400Y-159600000D01*
X72956600Y-144814800D02*
X72956600Y-154570152D01*
%TO.N,Net-(JP1-Pin_3)*%
X90500000Y-149817600D02*
X88956354Y-149817600D01*
X83770822Y-149817600D02*
X81257598Y-152330824D01*
X81257598Y-152330824D02*
X79946170Y-152330824D01*
X88173849Y-149687399D02*
X88043648Y-149817600D01*
X88826153Y-149687399D02*
X88173849Y-149687399D01*
X79946170Y-152330824D02*
X78805238Y-153471756D01*
X88956354Y-149817600D02*
X88826153Y-149687399D01*
X88043648Y-149817600D02*
X83770822Y-149817600D01*
%TO.N,Net-(JP1-Pin_5)*%
X79176756Y-151880846D02*
X79603171Y-151454431D01*
X79603171Y-151454431D02*
X80874257Y-151454431D01*
%TD*%
%TA.AperFunction,Conductor*%
%TO.N,GND*%
G36*
X155002611Y-114575608D02*
G01*
X155442760Y-114593812D01*
X155453109Y-114594669D01*
X155887674Y-114648838D01*
X155897938Y-114650551D01*
X156326544Y-114740420D01*
X156336612Y-114742969D01*
X156756351Y-114867931D01*
X156766183Y-114871307D01*
X156923625Y-114932741D01*
X157174138Y-115030492D01*
X157183675Y-115034675D01*
X157577094Y-115227006D01*
X157586252Y-115231962D01*
X157962439Y-115456120D01*
X157971158Y-115461816D01*
X158327560Y-115716282D01*
X158335767Y-115722669D01*
X158669954Y-116005712D01*
X158677602Y-116012754D01*
X158987245Y-116322397D01*
X158994288Y-116330046D01*
X159277327Y-116664229D01*
X159283717Y-116672439D01*
X159538183Y-117028841D01*
X159543879Y-117037560D01*
X159768037Y-117413747D01*
X159772993Y-117422905D01*
X159965324Y-117816324D01*
X159969507Y-117825861D01*
X160128689Y-118233807D01*
X160132071Y-118243657D01*
X160257026Y-118663373D01*
X160259582Y-118673468D01*
X160349447Y-119102057D01*
X160351161Y-119112329D01*
X160405328Y-119546876D01*
X160406188Y-119557254D01*
X160424392Y-119997388D01*
X160424500Y-120002595D01*
X160424500Y-121337500D01*
X160404498Y-121405621D01*
X160350842Y-121452114D01*
X160298500Y-121463500D01*
X159536531Y-121463500D01*
X159512000Y-121463500D01*
X159416102Y-121463500D01*
X159226667Y-121493503D01*
X159226664Y-121493503D01*
X159226663Y-121493504D01*
X159044259Y-121552771D01*
X158873363Y-121639847D01*
X158718197Y-121752582D01*
X158718194Y-121752584D01*
X158582584Y-121888194D01*
X158582582Y-121888197D01*
X158469847Y-122043363D01*
X158382771Y-122214259D01*
X158349423Y-122316893D01*
X158323503Y-122396667D01*
X158293500Y-122586102D01*
X158293500Y-122666982D01*
X158293500Y-127483469D01*
X158293500Y-127508000D01*
X158293500Y-127603898D01*
X158323503Y-127793333D01*
X158323504Y-127793336D01*
X158363663Y-127916933D01*
X158382772Y-127975742D01*
X158469845Y-128146633D01*
X158582580Y-128301800D01*
X158582582Y-128301802D01*
X158582584Y-128301805D01*
X158718194Y-128437415D01*
X158718197Y-128437417D01*
X158718200Y-128437420D01*
X158873367Y-128550155D01*
X159044258Y-128637228D01*
X159226667Y-128696497D01*
X159416102Y-128726500D01*
X159496982Y-128726500D01*
X160298500Y-128726500D01*
X160366621Y-128746502D01*
X160413114Y-128800158D01*
X160424500Y-128852500D01*
X160424500Y-164298500D01*
X160404498Y-164366621D01*
X160350842Y-164413114D01*
X160298500Y-164424500D01*
X159223820Y-164424500D01*
X159155699Y-164404498D01*
X159109206Y-164350842D01*
X159099102Y-164280568D01*
X159128596Y-164215988D01*
X159166615Y-164186234D01*
X159227816Y-164155051D01*
X159399792Y-164030104D01*
X159550104Y-163879792D01*
X159675051Y-163707816D01*
X159771557Y-163518412D01*
X159837246Y-163316243D01*
X159870500Y-163106287D01*
X159870500Y-162893713D01*
X159837246Y-162683757D01*
X159771557Y-162481588D01*
X159675051Y-162292184D01*
X159550104Y-162120208D01*
X159550101Y-162120205D01*
X159550099Y-162120202D01*
X159399797Y-161969900D01*
X159399794Y-161969898D01*
X159399792Y-161969896D01*
X159227816Y-161844949D01*
X159038412Y-161748443D01*
X158836243Y-161682754D01*
X158626287Y-161649500D01*
X158413713Y-161649500D01*
X158203757Y-161682754D01*
X158203754Y-161682754D01*
X158203753Y-161682755D01*
X158001588Y-161748443D01*
X158001586Y-161748444D01*
X157812180Y-161844951D01*
X157640205Y-161969898D01*
X157640202Y-161969900D01*
X157489900Y-162120202D01*
X157489898Y-162120205D01*
X157364949Y-162292183D01*
X157362265Y-162297451D01*
X157313516Y-162349065D01*
X157244600Y-162366129D01*
X157177399Y-162343226D01*
X157137735Y-162297451D01*
X157135197Y-162292471D01*
X157135051Y-162292184D01*
X157010104Y-162120208D01*
X157010101Y-162120205D01*
X157010099Y-162120202D01*
X156859797Y-161969900D01*
X156859794Y-161969898D01*
X156859792Y-161969896D01*
X156687816Y-161844949D01*
X156498412Y-161748443D01*
X156296243Y-161682754D01*
X156086287Y-161649500D01*
X155873713Y-161649500D01*
X155663757Y-161682754D01*
X155663754Y-161682754D01*
X155663753Y-161682755D01*
X155461588Y-161748443D01*
X155461586Y-161748444D01*
X155272180Y-161844951D01*
X155100205Y-161969898D01*
X155100202Y-161969900D01*
X154949900Y-162120202D01*
X154949898Y-162120205D01*
X154824949Y-162292183D01*
X154822265Y-162297451D01*
X154773516Y-162349065D01*
X154704600Y-162366129D01*
X154637399Y-162343226D01*
X154597735Y-162297451D01*
X154595197Y-162292471D01*
X154595051Y-162292184D01*
X154470104Y-162120208D01*
X154470101Y-162120205D01*
X154470099Y-162120202D01*
X154319797Y-161969900D01*
X154319794Y-161969898D01*
X154319792Y-161969896D01*
X154147816Y-161844949D01*
X153958412Y-161748443D01*
X153756243Y-161682754D01*
X153546287Y-161649500D01*
X153333713Y-161649500D01*
X153123757Y-161682754D01*
X153123754Y-161682754D01*
X153123753Y-161682755D01*
X152921588Y-161748443D01*
X152921586Y-161748444D01*
X152732180Y-161844951D01*
X152560205Y-161969898D01*
X152560202Y-161969900D01*
X152409900Y-162120202D01*
X152409898Y-162120205D01*
X152284949Y-162292183D01*
X152282265Y-162297451D01*
X152233516Y-162349065D01*
X152164600Y-162366129D01*
X152097399Y-162343226D01*
X152057735Y-162297451D01*
X152055197Y-162292471D01*
X152055051Y-162292184D01*
X151930104Y-162120208D01*
X151930101Y-162120205D01*
X151930099Y-162120202D01*
X151779797Y-161969900D01*
X151779794Y-161969898D01*
X151779792Y-161969896D01*
X151607816Y-161844949D01*
X151418412Y-161748443D01*
X151216243Y-161682754D01*
X151006287Y-161649500D01*
X150793713Y-161649500D01*
X150583757Y-161682754D01*
X150583754Y-161682754D01*
X150583753Y-161682755D01*
X150381588Y-161748443D01*
X150381586Y-161748444D01*
X150192180Y-161844951D01*
X150020205Y-161969898D01*
X150020202Y-161969900D01*
X149869900Y-162120202D01*
X149869898Y-162120205D01*
X149744949Y-162292183D01*
X149742265Y-162297451D01*
X149693516Y-162349065D01*
X149624600Y-162366129D01*
X149557399Y-162343226D01*
X149517735Y-162297451D01*
X149515197Y-162292471D01*
X149515051Y-162292184D01*
X149390104Y-162120208D01*
X149390101Y-162120205D01*
X149390099Y-162120202D01*
X149239797Y-161969900D01*
X149239794Y-161969898D01*
X149239792Y-161969896D01*
X149067816Y-161844949D01*
X148878412Y-161748443D01*
X148676243Y-161682754D01*
X148466287Y-161649500D01*
X148253713Y-161649500D01*
X148043757Y-161682754D01*
X148043754Y-161682754D01*
X148043753Y-161682755D01*
X147841588Y-161748443D01*
X147841586Y-161748444D01*
X147652180Y-161844951D01*
X147480205Y-161969898D01*
X147480202Y-161969900D01*
X147329900Y-162120202D01*
X147329898Y-162120205D01*
X147204949Y-162292183D01*
X147202265Y-162297451D01*
X147153516Y-162349065D01*
X147084600Y-162366129D01*
X147017399Y-162343226D01*
X146977735Y-162297451D01*
X146975197Y-162292471D01*
X146975051Y-162292184D01*
X146850104Y-162120208D01*
X146850101Y-162120205D01*
X146850099Y-162120202D01*
X146699797Y-161969900D01*
X146699794Y-161969898D01*
X146699792Y-161969896D01*
X146527816Y-161844949D01*
X146338412Y-161748443D01*
X146136243Y-161682754D01*
X145926287Y-161649500D01*
X145713713Y-161649500D01*
X145503757Y-161682754D01*
X145503754Y-161682754D01*
X145503753Y-161682755D01*
X145301588Y-161748443D01*
X145301586Y-161748444D01*
X145112180Y-161844951D01*
X144940205Y-161969898D01*
X144940202Y-161969900D01*
X144789900Y-162120202D01*
X144789898Y-162120205D01*
X144664949Y-162292183D01*
X144662265Y-162297451D01*
X144613516Y-162349065D01*
X144544600Y-162366129D01*
X144477399Y-162343226D01*
X144437735Y-162297451D01*
X144435197Y-162292471D01*
X144435051Y-162292184D01*
X144310104Y-162120208D01*
X144310101Y-162120205D01*
X144310099Y-162120202D01*
X144159797Y-161969900D01*
X144159794Y-161969898D01*
X144159792Y-161969896D01*
X143987816Y-161844949D01*
X143798412Y-161748443D01*
X143596243Y-161682754D01*
X143386287Y-161649500D01*
X143173713Y-161649500D01*
X142963757Y-161682754D01*
X142963754Y-161682754D01*
X142963753Y-161682755D01*
X142761588Y-161748443D01*
X142761586Y-161748444D01*
X142572180Y-161844951D01*
X142400205Y-161969898D01*
X142400202Y-161969900D01*
X142249900Y-162120202D01*
X142249898Y-162120205D01*
X142124949Y-162292183D01*
X142122265Y-162297451D01*
X142073516Y-162349065D01*
X142004600Y-162366129D01*
X141937399Y-162343226D01*
X141897735Y-162297451D01*
X141895197Y-162292471D01*
X141895051Y-162292184D01*
X141770104Y-162120208D01*
X141770101Y-162120205D01*
X141770099Y-162120202D01*
X141619797Y-161969900D01*
X141619794Y-161969898D01*
X141619792Y-161969896D01*
X141447816Y-161844949D01*
X141258412Y-161748443D01*
X141056243Y-161682754D01*
X140846287Y-161649500D01*
X140633713Y-161649500D01*
X140423757Y-161682754D01*
X140423754Y-161682754D01*
X140423753Y-161682755D01*
X140221588Y-161748443D01*
X140221586Y-161748444D01*
X140032180Y-161844951D01*
X139860205Y-161969898D01*
X139860202Y-161969900D01*
X139709900Y-162120202D01*
X139709898Y-162120205D01*
X139584949Y-162292183D01*
X139582265Y-162297451D01*
X139533516Y-162349065D01*
X139464600Y-162366129D01*
X139397399Y-162343226D01*
X139357735Y-162297451D01*
X139355197Y-162292471D01*
X139355051Y-162292184D01*
X139230104Y-162120208D01*
X139230101Y-162120205D01*
X139230099Y-162120202D01*
X139079797Y-161969900D01*
X139079794Y-161969898D01*
X139079792Y-161969896D01*
X138907816Y-161844949D01*
X138718412Y-161748443D01*
X138516243Y-161682754D01*
X138306287Y-161649500D01*
X138093713Y-161649500D01*
X137883757Y-161682754D01*
X137883754Y-161682754D01*
X137883753Y-161682755D01*
X137681588Y-161748443D01*
X137681586Y-161748444D01*
X137492180Y-161844951D01*
X137320205Y-161969898D01*
X137320202Y-161969900D01*
X137169900Y-162120202D01*
X137169898Y-162120205D01*
X137044949Y-162292183D01*
X137042265Y-162297451D01*
X136993516Y-162349065D01*
X136924600Y-162366129D01*
X136857399Y-162343226D01*
X136817735Y-162297451D01*
X136815197Y-162292471D01*
X136815051Y-162292184D01*
X136690104Y-162120208D01*
X136690101Y-162120205D01*
X136690099Y-162120202D01*
X136539797Y-161969900D01*
X136539794Y-161969898D01*
X136539792Y-161969896D01*
X136367816Y-161844949D01*
X136178412Y-161748443D01*
X135976243Y-161682754D01*
X135766287Y-161649500D01*
X135553713Y-161649500D01*
X135343757Y-161682754D01*
X135343754Y-161682754D01*
X135343753Y-161682755D01*
X135141588Y-161748443D01*
X135141586Y-161748444D01*
X134952180Y-161844951D01*
X134780205Y-161969898D01*
X134780202Y-161969900D01*
X134629900Y-162120202D01*
X134629898Y-162120205D01*
X134504949Y-162292183D01*
X134502265Y-162297451D01*
X134453516Y-162349065D01*
X134384600Y-162366129D01*
X134317399Y-162343226D01*
X134277735Y-162297451D01*
X134275197Y-162292471D01*
X134275051Y-162292184D01*
X134150104Y-162120208D01*
X134150101Y-162120205D01*
X134150099Y-162120202D01*
X133999797Y-161969900D01*
X133999794Y-161969898D01*
X133999792Y-161969896D01*
X133827816Y-161844949D01*
X133638412Y-161748443D01*
X133436243Y-161682754D01*
X133226287Y-161649500D01*
X133013713Y-161649500D01*
X132803757Y-161682754D01*
X132803754Y-161682754D01*
X132803753Y-161682755D01*
X132601588Y-161748443D01*
X132601586Y-161748444D01*
X132412180Y-161844951D01*
X132240205Y-161969898D01*
X132240202Y-161969900D01*
X132089900Y-162120202D01*
X132089898Y-162120205D01*
X131964949Y-162292183D01*
X131962265Y-162297451D01*
X131913516Y-162349065D01*
X131844600Y-162366129D01*
X131777399Y-162343226D01*
X131737735Y-162297451D01*
X131735197Y-162292471D01*
X131735051Y-162292184D01*
X131610104Y-162120208D01*
X131610101Y-162120205D01*
X131610099Y-162120202D01*
X131459797Y-161969900D01*
X131459794Y-161969898D01*
X131459792Y-161969896D01*
X131287816Y-161844949D01*
X131098412Y-161748443D01*
X130896243Y-161682754D01*
X130686287Y-161649500D01*
X130473713Y-161649500D01*
X130263757Y-161682754D01*
X130263754Y-161682754D01*
X130263753Y-161682755D01*
X130061588Y-161748443D01*
X130061586Y-161748444D01*
X129872180Y-161844951D01*
X129700205Y-161969898D01*
X129700202Y-161969900D01*
X129549900Y-162120202D01*
X129549898Y-162120205D01*
X129424949Y-162292183D01*
X129422265Y-162297451D01*
X129373516Y-162349065D01*
X129304600Y-162366129D01*
X129237399Y-162343226D01*
X129197735Y-162297451D01*
X129195197Y-162292471D01*
X129195051Y-162292184D01*
X129070104Y-162120208D01*
X129070101Y-162120205D01*
X129070099Y-162120202D01*
X128919797Y-161969900D01*
X128919794Y-161969898D01*
X128919792Y-161969896D01*
X128747816Y-161844949D01*
X128558412Y-161748443D01*
X128356243Y-161682754D01*
X128146287Y-161649500D01*
X127933713Y-161649500D01*
X127723757Y-161682754D01*
X127723754Y-161682754D01*
X127723753Y-161682755D01*
X127521588Y-161748443D01*
X127521586Y-161748444D01*
X127332180Y-161844951D01*
X127160205Y-161969898D01*
X127160202Y-161969900D01*
X127009900Y-162120202D01*
X127009898Y-162120205D01*
X126884949Y-162292183D01*
X126882265Y-162297451D01*
X126833516Y-162349065D01*
X126764600Y-162366129D01*
X126697399Y-162343226D01*
X126657735Y-162297451D01*
X126655197Y-162292471D01*
X126655051Y-162292184D01*
X126530104Y-162120208D01*
X126530101Y-162120205D01*
X126530099Y-162120202D01*
X126379797Y-161969900D01*
X126379794Y-161969898D01*
X126379792Y-161969896D01*
X126207816Y-161844949D01*
X126018412Y-161748443D01*
X125816243Y-161682754D01*
X125606287Y-161649500D01*
X125393713Y-161649500D01*
X125183757Y-161682754D01*
X125183754Y-161682754D01*
X125183753Y-161682755D01*
X124981588Y-161748443D01*
X124981586Y-161748444D01*
X124792180Y-161844951D01*
X124620205Y-161969898D01*
X124620202Y-161969900D01*
X124469900Y-162120202D01*
X124469898Y-162120205D01*
X124344949Y-162292183D01*
X124342265Y-162297451D01*
X124293516Y-162349065D01*
X124224600Y-162366129D01*
X124157399Y-162343226D01*
X124117735Y-162297451D01*
X124115197Y-162292471D01*
X124115051Y-162292184D01*
X123990104Y-162120208D01*
X123990101Y-162120205D01*
X123990099Y-162120202D01*
X123839797Y-161969900D01*
X123839794Y-161969898D01*
X123839792Y-161969896D01*
X123667816Y-161844949D01*
X123478412Y-161748443D01*
X123276243Y-161682754D01*
X123066287Y-161649500D01*
X122853713Y-161649500D01*
X122643757Y-161682754D01*
X122643754Y-161682754D01*
X122643753Y-161682755D01*
X122441588Y-161748443D01*
X122441586Y-161748444D01*
X122252180Y-161844951D01*
X122080205Y-161969898D01*
X122080202Y-161969900D01*
X121929900Y-162120202D01*
X121929898Y-162120205D01*
X121804949Y-162292183D01*
X121802265Y-162297451D01*
X121753516Y-162349065D01*
X121684600Y-162366129D01*
X121617399Y-162343226D01*
X121577735Y-162297451D01*
X121575197Y-162292471D01*
X121575051Y-162292184D01*
X121450104Y-162120208D01*
X121450101Y-162120205D01*
X121450099Y-162120202D01*
X121299797Y-161969900D01*
X121299794Y-161969898D01*
X121299792Y-161969896D01*
X121127816Y-161844949D01*
X120938412Y-161748443D01*
X120736243Y-161682754D01*
X120526287Y-161649500D01*
X120313713Y-161649500D01*
X120103757Y-161682754D01*
X120103754Y-161682754D01*
X120103753Y-161682755D01*
X119901588Y-161748443D01*
X119901586Y-161748444D01*
X119712180Y-161844951D01*
X119540205Y-161969898D01*
X119540202Y-161969900D01*
X119389900Y-162120202D01*
X119389898Y-162120205D01*
X119264949Y-162292183D01*
X119262265Y-162297451D01*
X119213516Y-162349065D01*
X119144600Y-162366129D01*
X119077399Y-162343226D01*
X119037735Y-162297451D01*
X119035197Y-162292471D01*
X119035051Y-162292184D01*
X118910104Y-162120208D01*
X118910101Y-162120205D01*
X118910099Y-162120202D01*
X118759797Y-161969900D01*
X118759794Y-161969898D01*
X118759792Y-161969896D01*
X118587816Y-161844949D01*
X118398412Y-161748443D01*
X118196243Y-161682754D01*
X117986287Y-161649500D01*
X117773713Y-161649500D01*
X117563757Y-161682754D01*
X117563754Y-161682754D01*
X117563753Y-161682755D01*
X117361588Y-161748443D01*
X117361586Y-161748444D01*
X117172180Y-161844951D01*
X117000205Y-161969898D01*
X117000202Y-161969900D01*
X116849900Y-162120202D01*
X116849898Y-162120205D01*
X116724949Y-162292183D01*
X116722265Y-162297451D01*
X116673516Y-162349065D01*
X116604600Y-162366129D01*
X116537399Y-162343226D01*
X116497735Y-162297451D01*
X116495197Y-162292471D01*
X116495051Y-162292184D01*
X116370104Y-162120208D01*
X116370101Y-162120205D01*
X116370099Y-162120202D01*
X116219797Y-161969900D01*
X116219794Y-161969898D01*
X116219792Y-161969896D01*
X116047816Y-161844949D01*
X115858412Y-161748443D01*
X115656243Y-161682754D01*
X115446287Y-161649500D01*
X115233713Y-161649500D01*
X115023757Y-161682754D01*
X115023754Y-161682754D01*
X115023753Y-161682755D01*
X114821588Y-161748443D01*
X114821586Y-161748444D01*
X114632180Y-161844951D01*
X114460205Y-161969898D01*
X114460202Y-161969900D01*
X114309900Y-162120202D01*
X114309898Y-162120205D01*
X114184949Y-162292183D01*
X114182265Y-162297451D01*
X114133516Y-162349065D01*
X114064600Y-162366129D01*
X113997399Y-162343226D01*
X113957735Y-162297451D01*
X113955197Y-162292471D01*
X113955051Y-162292184D01*
X113830104Y-162120208D01*
X113830101Y-162120205D01*
X113830099Y-162120202D01*
X113679797Y-161969900D01*
X113679794Y-161969898D01*
X113679792Y-161969896D01*
X113507816Y-161844949D01*
X113318412Y-161748443D01*
X113116243Y-161682754D01*
X112906287Y-161649500D01*
X112693713Y-161649500D01*
X112483757Y-161682754D01*
X112483754Y-161682754D01*
X112483753Y-161682755D01*
X112281588Y-161748443D01*
X112281586Y-161748444D01*
X112092180Y-161844951D01*
X111920205Y-161969898D01*
X111920202Y-161969900D01*
X111769900Y-162120202D01*
X111769898Y-162120205D01*
X111644949Y-162292183D01*
X111642265Y-162297451D01*
X111593516Y-162349065D01*
X111524600Y-162366129D01*
X111457399Y-162343226D01*
X111417735Y-162297451D01*
X111415197Y-162292471D01*
X111415051Y-162292184D01*
X111290104Y-162120208D01*
X111290101Y-162120205D01*
X111290099Y-162120202D01*
X111139797Y-161969900D01*
X111139794Y-161969898D01*
X111139792Y-161969896D01*
X110967816Y-161844949D01*
X110778412Y-161748443D01*
X110576243Y-161682754D01*
X110366287Y-161649500D01*
X110153713Y-161649500D01*
X109943757Y-161682754D01*
X109943754Y-161682754D01*
X109943753Y-161682755D01*
X109741588Y-161748443D01*
X109741586Y-161748444D01*
X109552180Y-161844951D01*
X109380205Y-161969898D01*
X109380202Y-161969900D01*
X109229900Y-162120202D01*
X109229898Y-162120205D01*
X109104949Y-162292183D01*
X109102265Y-162297451D01*
X109053516Y-162349065D01*
X108984600Y-162366129D01*
X108917399Y-162343226D01*
X108877735Y-162297451D01*
X108875197Y-162292471D01*
X108875051Y-162292184D01*
X108750104Y-162120208D01*
X108750101Y-162120205D01*
X108750099Y-162120202D01*
X108599797Y-161969900D01*
X108599794Y-161969898D01*
X108599792Y-161969896D01*
X108427816Y-161844949D01*
X108238412Y-161748443D01*
X108036243Y-161682754D01*
X107826287Y-161649500D01*
X107613713Y-161649500D01*
X107403757Y-161682754D01*
X107403754Y-161682754D01*
X107403753Y-161682755D01*
X107201588Y-161748443D01*
X107201586Y-161748444D01*
X107012180Y-161844951D01*
X106840205Y-161969898D01*
X106840202Y-161969900D01*
X106689900Y-162120202D01*
X106689898Y-162120205D01*
X106564949Y-162292183D01*
X106562265Y-162297451D01*
X106513516Y-162349065D01*
X106444600Y-162366129D01*
X106377399Y-162343226D01*
X106337735Y-162297451D01*
X106335197Y-162292471D01*
X106335051Y-162292184D01*
X106210104Y-162120208D01*
X106210101Y-162120205D01*
X106210099Y-162120202D01*
X106059797Y-161969900D01*
X106059794Y-161969898D01*
X106059792Y-161969896D01*
X105887816Y-161844949D01*
X105698412Y-161748443D01*
X105496243Y-161682754D01*
X105286287Y-161649500D01*
X105073713Y-161649500D01*
X104906635Y-161675962D01*
X104836226Y-161666863D01*
X104797831Y-161640609D01*
X101227905Y-158070683D01*
X101193879Y-158008371D01*
X101191000Y-157981588D01*
X101191000Y-154772147D01*
X101211002Y-154704026D01*
X101212175Y-154702234D01*
X101247412Y-154649500D01*
X101310989Y-154496011D01*
X101343400Y-154333068D01*
X101343400Y-154166932D01*
X101328412Y-154091581D01*
X101334740Y-154020868D01*
X101378294Y-153964800D01*
X101445247Y-153941181D01*
X101451991Y-153941000D01*
X118211588Y-153941000D01*
X118279709Y-153961002D01*
X118300683Y-153977905D01*
X122942174Y-158619396D01*
X122976200Y-158681708D01*
X122976657Y-158683907D01*
X122989011Y-158746011D01*
X123052588Y-158899500D01*
X123082918Y-158944892D01*
X123144887Y-159037635D01*
X123144892Y-159037641D01*
X123262358Y-159155107D01*
X123262364Y-159155112D01*
X123400500Y-159247412D01*
X123553989Y-159310989D01*
X123716932Y-159343400D01*
X123716933Y-159343400D01*
X123883067Y-159343400D01*
X123883068Y-159343400D01*
X124046011Y-159310989D01*
X124199500Y-159247412D01*
X124337636Y-159155112D01*
X124455112Y-159037636D01*
X124547412Y-158899500D01*
X124610989Y-158746011D01*
X124643400Y-158583068D01*
X124643400Y-158416932D01*
X124610989Y-158253989D01*
X124547412Y-158100500D01*
X124455112Y-157962364D01*
X124455107Y-157962358D01*
X124337641Y-157844892D01*
X124337635Y-157844887D01*
X124291799Y-157814260D01*
X124199500Y-157752588D01*
X124046011Y-157689011D01*
X123983907Y-157676657D01*
X123920999Y-157643750D01*
X123919396Y-157642174D01*
X118990494Y-152713271D01*
X118990488Y-152713266D01*
X118979989Y-152706251D01*
X118877311Y-152637644D01*
X118877309Y-152637643D01*
X118751560Y-152585556D01*
X118751557Y-152585555D01*
X118618061Y-152559000D01*
X118618058Y-152559000D01*
X97545494Y-152559000D01*
X97545490Y-152559000D01*
X97411993Y-152585555D01*
X97411983Y-152585558D01*
X97408970Y-152586807D01*
X97400659Y-152588460D01*
X97396247Y-152591296D01*
X97360749Y-152596400D01*
X97139251Y-152596400D01*
X97091030Y-152586807D01*
X97088016Y-152585558D01*
X97088006Y-152585555D01*
X96954509Y-152559000D01*
X96954506Y-152559000D01*
X87229098Y-152559000D01*
X87229094Y-152559000D01*
X87095598Y-152585555D01*
X87095595Y-152585556D01*
X86969846Y-152637643D01*
X86870805Y-152703820D01*
X86803052Y-152725034D01*
X86734585Y-152706251D01*
X86687143Y-152653433D01*
X86674804Y-152599054D01*
X86674804Y-151588558D01*
X86684394Y-151540341D01*
X86706899Y-151486011D01*
X86739310Y-151323068D01*
X86739310Y-151291799D01*
X86759312Y-151223678D01*
X86812968Y-151177185D01*
X86865310Y-151165799D01*
X87977853Y-151165799D01*
X88045974Y-151185801D01*
X88047855Y-151187034D01*
X88100501Y-151222211D01*
X88253990Y-151285788D01*
X88416933Y-151318199D01*
X88416934Y-151318199D01*
X88583068Y-151318199D01*
X88583069Y-151318199D01*
X88746012Y-151285788D01*
X88899501Y-151222211D01*
X89037637Y-151129911D01*
X89155113Y-151012435D01*
X89247413Y-150874299D01*
X89310990Y-150720810D01*
X89333028Y-150610018D01*
X89365936Y-150547108D01*
X89427631Y-150511977D01*
X89456607Y-150508600D01*
X89977852Y-150508600D01*
X90045973Y-150528602D01*
X90047854Y-150529835D01*
X90100500Y-150565012D01*
X90253989Y-150628589D01*
X90416932Y-150661000D01*
X90416933Y-150661000D01*
X90583067Y-150661000D01*
X90583068Y-150661000D01*
X90746011Y-150628589D01*
X90899500Y-150565012D01*
X91037636Y-150472712D01*
X91155112Y-150355236D01*
X91247412Y-150217100D01*
X91310989Y-150063611D01*
X91343400Y-149900668D01*
X91343400Y-149734532D01*
X91310989Y-149571589D01*
X91247412Y-149418100D01*
X91155112Y-149279964D01*
X91155107Y-149279958D01*
X91037641Y-149162492D01*
X91037635Y-149162487D01*
X90953991Y-149106598D01*
X90899500Y-149070188D01*
X90746011Y-149006611D01*
X90721070Y-149001650D01*
X90583070Y-148974200D01*
X90583068Y-148974200D01*
X90416932Y-148974200D01*
X90416929Y-148974200D01*
X90253988Y-149006611D01*
X90253983Y-149006613D01*
X90100499Y-149070188D01*
X90047854Y-149105365D01*
X89980101Y-149126580D01*
X89977852Y-149126600D01*
X89268846Y-149126600D01*
X89200725Y-149106598D01*
X89198844Y-149105365D01*
X89153464Y-149075043D01*
X89063168Y-149037641D01*
X89027713Y-149022955D01*
X89027712Y-149022954D01*
X89007775Y-149018988D01*
X88997808Y-149017006D01*
X88997807Y-149017005D01*
X88894214Y-148996399D01*
X88894211Y-148996399D01*
X88105791Y-148996399D01*
X88105787Y-148996399D01*
X88002194Y-149017005D01*
X88002194Y-149017006D01*
X87994718Y-149018493D01*
X87972289Y-149022954D01*
X87972288Y-149022955D01*
X87846538Y-149075043D01*
X87801158Y-149105365D01*
X87733405Y-149126580D01*
X87731156Y-149126600D01*
X83702760Y-149126600D01*
X83588262Y-149149375D01*
X83588261Y-149149376D01*
X83575596Y-149151895D01*
X83569263Y-149153155D01*
X83443509Y-149205244D01*
X83330339Y-149280862D01*
X83330332Y-149280867D01*
X81700982Y-150910217D01*
X81638670Y-150944243D01*
X81567854Y-150939178D01*
X81522792Y-150910217D01*
X81411898Y-150799323D01*
X81411892Y-150799318D01*
X81344052Y-150753989D01*
X81273757Y-150707019D01*
X81120268Y-150643442D01*
X80957327Y-150611031D01*
X80957325Y-150611031D01*
X80791189Y-150611031D01*
X80791186Y-150611031D01*
X80628245Y-150643442D01*
X80628240Y-150643444D01*
X80474756Y-150707019D01*
X80422111Y-150742196D01*
X80354358Y-150763411D01*
X80352109Y-150763431D01*
X79535109Y-150763431D01*
X79401613Y-150789986D01*
X79401610Y-150789987D01*
X79275860Y-150842075D01*
X79163829Y-150916932D01*
X79162684Y-150917697D01*
X79162682Y-150917698D01*
X79057358Y-151023021D01*
X78995045Y-151057046D01*
X78992870Y-151057498D01*
X78975736Y-151060907D01*
X78930742Y-151069857D01*
X78930741Y-151069858D01*
X78777256Y-151133434D01*
X78639120Y-151225733D01*
X78639114Y-151225738D01*
X78521648Y-151343204D01*
X78521643Y-151343210D01*
X78429344Y-151481346D01*
X78365769Y-151634829D01*
X78365767Y-151634834D01*
X78333356Y-151797775D01*
X78333356Y-151797778D01*
X78333356Y-151963914D01*
X78365767Y-152126857D01*
X78429344Y-152280346D01*
X78521644Y-152418482D01*
X78570633Y-152467471D01*
X78604657Y-152529781D01*
X78599593Y-152600596D01*
X78557047Y-152657432D01*
X78529756Y-152672974D01*
X78491035Y-152689013D01*
X78455288Y-152703820D01*
X78405736Y-152724345D01*
X78267602Y-152816643D01*
X78267596Y-152816648D01*
X78150130Y-152934114D01*
X78150125Y-152934120D01*
X78057826Y-153072256D01*
X77994251Y-153225739D01*
X77994249Y-153225744D01*
X77961838Y-153388685D01*
X77961838Y-153554826D01*
X77978584Y-153639013D01*
X77994249Y-153717767D01*
X78057826Y-153871256D01*
X78085290Y-153912358D01*
X78150125Y-154009391D01*
X78150130Y-154009397D01*
X78267596Y-154126863D01*
X78267602Y-154126868D01*
X78405738Y-154219168D01*
X78559227Y-154282745D01*
X78722170Y-154315156D01*
X78722171Y-154315156D01*
X78888305Y-154315156D01*
X78888306Y-154315156D01*
X79051249Y-154282745D01*
X79204738Y-154219168D01*
X79342874Y-154126868D01*
X79460350Y-154009392D01*
X79552650Y-153871256D01*
X79616227Y-153717767D01*
X79628579Y-153655665D01*
X79661483Y-153592759D01*
X79663005Y-153591208D01*
X80195487Y-153058728D01*
X80222861Y-153043780D01*
X80249084Y-153026928D01*
X80255382Y-153026022D01*
X80257799Y-153024703D01*
X80284582Y-153021824D01*
X80398824Y-153021824D01*
X80466945Y-153041826D01*
X80513438Y-153095482D01*
X80524824Y-153147824D01*
X80524824Y-153201294D01*
X80545205Y-153303757D01*
X80557235Y-153364235D01*
X80620812Y-153517724D01*
X80680197Y-153606600D01*
X80713111Y-153655859D01*
X80713116Y-153655865D01*
X80830582Y-153773331D01*
X80830588Y-153773336D01*
X80968724Y-153865636D01*
X81122213Y-153929213D01*
X81285156Y-153961624D01*
X81285157Y-153961624D01*
X81451291Y-153961624D01*
X81451292Y-153961624D01*
X81614235Y-153929213D01*
X81767724Y-153865636D01*
X81905860Y-153773336D01*
X82023336Y-153655860D01*
X82115636Y-153517724D01*
X82179213Y-153364235D01*
X82191565Y-153302132D01*
X82224469Y-153239227D01*
X82225991Y-153237677D01*
X84283164Y-151180505D01*
X84345476Y-151146479D01*
X84372259Y-151143600D01*
X84926510Y-151143600D01*
X84994631Y-151163602D01*
X85041124Y-151217258D01*
X85052510Y-151269600D01*
X85052510Y-151323068D01*
X85084921Y-151486011D01*
X85148498Y-151639500D01*
X85240798Y-151777636D01*
X85255898Y-151792736D01*
X85289924Y-151855046D01*
X85292804Y-151881832D01*
X85292804Y-152927651D01*
X85272802Y-152995772D01*
X85271570Y-152997652D01*
X85236391Y-153050301D01*
X85172817Y-153203783D01*
X85172815Y-153203788D01*
X85140404Y-153366729D01*
X85140404Y-153480600D01*
X85120402Y-153548721D01*
X85066746Y-153595214D01*
X85014404Y-153606600D01*
X84916929Y-153606600D01*
X84753988Y-153639011D01*
X84753983Y-153639013D01*
X84600500Y-153702588D01*
X84462364Y-153794887D01*
X84462358Y-153794892D01*
X84344892Y-153912358D01*
X84344887Y-153912364D01*
X84252588Y-154050500D01*
X84189013Y-154203983D01*
X84189011Y-154203988D01*
X84156600Y-154366929D01*
X84156600Y-154533070D01*
X84177514Y-154638211D01*
X84189011Y-154696011D01*
X84252588Y-154849500D01*
X84283258Y-154895400D01*
X84344887Y-154987635D01*
X84344892Y-154987641D01*
X84462358Y-155105107D01*
X84462364Y-155105112D01*
X84600500Y-155197412D01*
X84753989Y-155260989D01*
X84916932Y-155293400D01*
X84916933Y-155293400D01*
X85083067Y-155293400D01*
X85083068Y-155293400D01*
X85246011Y-155260989D01*
X85399500Y-155197412D01*
X85452146Y-155162235D01*
X85519899Y-155141020D01*
X85522148Y-155141000D01*
X86165214Y-155141000D01*
X86298713Y-155114445D01*
X86424467Y-155062356D01*
X86458154Y-155039847D01*
X86537643Y-154986735D01*
X87546473Y-153977905D01*
X87608785Y-153943880D01*
X87635568Y-153941000D01*
X91260609Y-153941000D01*
X91328730Y-153961002D01*
X91375223Y-154014658D01*
X91385327Y-154084932D01*
X91384188Y-154091582D01*
X91369200Y-154166929D01*
X91369200Y-154166932D01*
X91369200Y-154333068D01*
X91401611Y-154496011D01*
X91465188Y-154649500D01*
X91505085Y-154709210D01*
X91557487Y-154787635D01*
X91557492Y-154787641D01*
X91674958Y-154905107D01*
X91674964Y-154905112D01*
X91813100Y-154997412D01*
X91966589Y-155060989D01*
X92129532Y-155093400D01*
X92129533Y-155093400D01*
X92295667Y-155093400D01*
X92295668Y-155093400D01*
X92458611Y-155060989D01*
X92612100Y-154997412D01*
X92664746Y-154962235D01*
X92732499Y-154941020D01*
X92734748Y-154941000D01*
X99683000Y-154941000D01*
X99751121Y-154961002D01*
X99797614Y-155014658D01*
X99809000Y-155067000D01*
X99809000Y-158388058D01*
X99818227Y-158434444D01*
X99835555Y-158521557D01*
X99835556Y-158521560D01*
X99876081Y-158619396D01*
X99887644Y-158647311D01*
X99963265Y-158760487D01*
X100053264Y-158850486D01*
X102857095Y-161654317D01*
X102891121Y-161716629D01*
X102894000Y-161743412D01*
X102894000Y-162569297D01*
X102832993Y-162534075D01*
X102705826Y-162500000D01*
X102574174Y-162500000D01*
X102447007Y-162534075D01*
X102386000Y-162569297D01*
X102386000Y-161665302D01*
X102321995Y-161675440D01*
X102118713Y-161741490D01*
X102118707Y-161741493D01*
X101928249Y-161838536D01*
X101755320Y-161964177D01*
X101604177Y-162115320D01*
X101478534Y-162288252D01*
X101478057Y-162289189D01*
X101477781Y-162289481D01*
X101475949Y-162292471D01*
X101475320Y-162292086D01*
X101429308Y-162340804D01*
X101360393Y-162357869D01*
X101293192Y-162334967D01*
X101259033Y-162295545D01*
X101257636Y-162296402D01*
X101255052Y-162292185D01*
X101223814Y-162249190D01*
X101130104Y-162120208D01*
X101130101Y-162120205D01*
X101130099Y-162120202D01*
X100979797Y-161969900D01*
X100979794Y-161969898D01*
X100979792Y-161969896D01*
X100807816Y-161844949D01*
X100618412Y-161748443D01*
X100416243Y-161682754D01*
X100206287Y-161649500D01*
X99993713Y-161649500D01*
X99783757Y-161682754D01*
X99783754Y-161682754D01*
X99783753Y-161682755D01*
X99581588Y-161748443D01*
X99581586Y-161748444D01*
X99392180Y-161844951D01*
X99220205Y-161969898D01*
X99220202Y-161969900D01*
X99069900Y-162120202D01*
X99069898Y-162120205D01*
X98944949Y-162292183D01*
X98942265Y-162297451D01*
X98893516Y-162349065D01*
X98824600Y-162366129D01*
X98757399Y-162343226D01*
X98717735Y-162297451D01*
X98715197Y-162292471D01*
X98715051Y-162292184D01*
X98590104Y-162120208D01*
X98590101Y-162120205D01*
X98590099Y-162120202D01*
X98439797Y-161969900D01*
X98439794Y-161969898D01*
X98439792Y-161969896D01*
X98267816Y-161844949D01*
X98078412Y-161748443D01*
X97876243Y-161682754D01*
X97666287Y-161649500D01*
X97453713Y-161649500D01*
X97243757Y-161682754D01*
X97243754Y-161682754D01*
X97243753Y-161682755D01*
X97041588Y-161748443D01*
X97041586Y-161748444D01*
X96852180Y-161844951D01*
X96680205Y-161969898D01*
X96680202Y-161969900D01*
X96529900Y-162120202D01*
X96529898Y-162120205D01*
X96404949Y-162292183D01*
X96402265Y-162297451D01*
X96353516Y-162349065D01*
X96284600Y-162366129D01*
X96217399Y-162343226D01*
X96177735Y-162297451D01*
X96175197Y-162292471D01*
X96175051Y-162292184D01*
X96050104Y-162120208D01*
X96050101Y-162120205D01*
X96050099Y-162120202D01*
X95899797Y-161969900D01*
X95899794Y-161969898D01*
X95899792Y-161969896D01*
X95727816Y-161844949D01*
X95538412Y-161748443D01*
X95336243Y-161682754D01*
X95126287Y-161649500D01*
X94913713Y-161649500D01*
X94703757Y-161682754D01*
X94703754Y-161682754D01*
X94703753Y-161682755D01*
X94501588Y-161748443D01*
X94501586Y-161748444D01*
X94312180Y-161844951D01*
X94140205Y-161969898D01*
X94140202Y-161969900D01*
X93989900Y-162120202D01*
X93989898Y-162120205D01*
X93864949Y-162292183D01*
X93862265Y-162297451D01*
X93813516Y-162349065D01*
X93744600Y-162366129D01*
X93677399Y-162343226D01*
X93637735Y-162297451D01*
X93635197Y-162292471D01*
X93635051Y-162292184D01*
X93510104Y-162120208D01*
X93510101Y-162120205D01*
X93510099Y-162120202D01*
X93359797Y-161969900D01*
X93359794Y-161969898D01*
X93359792Y-161969896D01*
X93187816Y-161844949D01*
X92998412Y-161748443D01*
X92796243Y-161682754D01*
X92586287Y-161649500D01*
X92373713Y-161649500D01*
X92163757Y-161682754D01*
X92163754Y-161682754D01*
X92163753Y-161682755D01*
X91961588Y-161748443D01*
X91961586Y-161748444D01*
X91772180Y-161844951D01*
X91600205Y-161969898D01*
X91600202Y-161969900D01*
X91449900Y-162120202D01*
X91449898Y-162120205D01*
X91324949Y-162292183D01*
X91322265Y-162297451D01*
X91273516Y-162349065D01*
X91204600Y-162366129D01*
X91137399Y-162343226D01*
X91097735Y-162297451D01*
X91095197Y-162292471D01*
X91095051Y-162292184D01*
X90970104Y-162120208D01*
X90970101Y-162120205D01*
X90970099Y-162120202D01*
X90819797Y-161969900D01*
X90819794Y-161969898D01*
X90819792Y-161969896D01*
X90647816Y-161844949D01*
X90458412Y-161748443D01*
X90256243Y-161682754D01*
X90046287Y-161649500D01*
X89833713Y-161649500D01*
X89623757Y-161682754D01*
X89623754Y-161682754D01*
X89623753Y-161682755D01*
X89421588Y-161748443D01*
X89421586Y-161748444D01*
X89232180Y-161844951D01*
X89060205Y-161969898D01*
X89060202Y-161969900D01*
X88909900Y-162120202D01*
X88909898Y-162120205D01*
X88784949Y-162292183D01*
X88782265Y-162297451D01*
X88733516Y-162349065D01*
X88664600Y-162366129D01*
X88597399Y-162343226D01*
X88557735Y-162297451D01*
X88555197Y-162292471D01*
X88555051Y-162292184D01*
X88430104Y-162120208D01*
X88430101Y-162120205D01*
X88430099Y-162120202D01*
X88279797Y-161969900D01*
X88279794Y-161969898D01*
X88279792Y-161969896D01*
X88107816Y-161844949D01*
X87918412Y-161748443D01*
X87716243Y-161682754D01*
X87506287Y-161649500D01*
X87293713Y-161649500D01*
X87083757Y-161682754D01*
X87083754Y-161682754D01*
X87083753Y-161682755D01*
X86881588Y-161748443D01*
X86881586Y-161748444D01*
X86692180Y-161844951D01*
X86520205Y-161969898D01*
X86520202Y-161969900D01*
X86369900Y-162120202D01*
X86369898Y-162120205D01*
X86244949Y-162292183D01*
X86242265Y-162297451D01*
X86193516Y-162349065D01*
X86124600Y-162366129D01*
X86057399Y-162343226D01*
X86017735Y-162297451D01*
X86015197Y-162292471D01*
X86015051Y-162292184D01*
X85890104Y-162120208D01*
X85890101Y-162120205D01*
X85890099Y-162120202D01*
X85739797Y-161969900D01*
X85739794Y-161969898D01*
X85739792Y-161969896D01*
X85567816Y-161844949D01*
X85378412Y-161748443D01*
X85176243Y-161682754D01*
X84966287Y-161649500D01*
X84753713Y-161649500D01*
X84543757Y-161682754D01*
X84543754Y-161682754D01*
X84543753Y-161682755D01*
X84341588Y-161748443D01*
X84341586Y-161748444D01*
X84152180Y-161844951D01*
X83980205Y-161969898D01*
X83980202Y-161969900D01*
X83829900Y-162120202D01*
X83829898Y-162120205D01*
X83704949Y-162292183D01*
X83702265Y-162297451D01*
X83653516Y-162349065D01*
X83584600Y-162366129D01*
X83517399Y-162343226D01*
X83477735Y-162297451D01*
X83475197Y-162292471D01*
X83475051Y-162292184D01*
X83350104Y-162120208D01*
X83350101Y-162120205D01*
X83350099Y-162120202D01*
X83199797Y-161969900D01*
X83199794Y-161969898D01*
X83199792Y-161969896D01*
X83027816Y-161844949D01*
X82838412Y-161748443D01*
X82636243Y-161682754D01*
X82426287Y-161649500D01*
X82213713Y-161649500D01*
X82003757Y-161682754D01*
X82003754Y-161682754D01*
X82003753Y-161682755D01*
X81801588Y-161748443D01*
X81801586Y-161748444D01*
X81612180Y-161844951D01*
X81440205Y-161969898D01*
X81440202Y-161969900D01*
X81289900Y-162120202D01*
X81289898Y-162120205D01*
X81164949Y-162292183D01*
X81162265Y-162297451D01*
X81113516Y-162349065D01*
X81044600Y-162366129D01*
X80977399Y-162343226D01*
X80937735Y-162297451D01*
X80935197Y-162292471D01*
X80935051Y-162292184D01*
X80810104Y-162120208D01*
X80810101Y-162120205D01*
X80810099Y-162120202D01*
X80659797Y-161969900D01*
X80659794Y-161969898D01*
X80659792Y-161969896D01*
X80487816Y-161844949D01*
X80298412Y-161748443D01*
X80096243Y-161682754D01*
X79886287Y-161649500D01*
X79673713Y-161649500D01*
X79463757Y-161682754D01*
X79463754Y-161682754D01*
X79463753Y-161682755D01*
X79261588Y-161748443D01*
X79261586Y-161748444D01*
X79072180Y-161844951D01*
X78900205Y-161969898D01*
X78900202Y-161969900D01*
X78749900Y-162120202D01*
X78749898Y-162120205D01*
X78624949Y-162292183D01*
X78622265Y-162297451D01*
X78573516Y-162349065D01*
X78504600Y-162366129D01*
X78437399Y-162343226D01*
X78397735Y-162297451D01*
X78395197Y-162292471D01*
X78395051Y-162292184D01*
X78270104Y-162120208D01*
X78270101Y-162120205D01*
X78270099Y-162120202D01*
X78119797Y-161969900D01*
X78119794Y-161969898D01*
X78119792Y-161969896D01*
X77947816Y-161844949D01*
X77758412Y-161748443D01*
X77556243Y-161682754D01*
X77346287Y-161649500D01*
X77133713Y-161649500D01*
X76923757Y-161682754D01*
X76923754Y-161682754D01*
X76923753Y-161682755D01*
X76721588Y-161748443D01*
X76721586Y-161748444D01*
X76532180Y-161844951D01*
X76360205Y-161969898D01*
X76360202Y-161969900D01*
X76209900Y-162120202D01*
X76209898Y-162120205D01*
X76084949Y-162292183D01*
X76082265Y-162297451D01*
X76033516Y-162349065D01*
X75964600Y-162366129D01*
X75897399Y-162343226D01*
X75857735Y-162297451D01*
X75855197Y-162292471D01*
X75855051Y-162292184D01*
X75730104Y-162120208D01*
X75730101Y-162120205D01*
X75730099Y-162120202D01*
X75579797Y-161969900D01*
X75579794Y-161969898D01*
X75579792Y-161969896D01*
X75407816Y-161844949D01*
X75218412Y-161748443D01*
X75016243Y-161682754D01*
X74806287Y-161649500D01*
X74593713Y-161649500D01*
X74383757Y-161682754D01*
X74383754Y-161682754D01*
X74383753Y-161682755D01*
X74181588Y-161748443D01*
X74181586Y-161748444D01*
X73992180Y-161844951D01*
X73820205Y-161969898D01*
X73820202Y-161969900D01*
X73669900Y-162120202D01*
X73669898Y-162120205D01*
X73544949Y-162292183D01*
X73542265Y-162297451D01*
X73493516Y-162349065D01*
X73424600Y-162366129D01*
X73357399Y-162343226D01*
X73317735Y-162297451D01*
X73315197Y-162292471D01*
X73315051Y-162292184D01*
X73190104Y-162120208D01*
X73190101Y-162120205D01*
X73190099Y-162120202D01*
X73039797Y-161969900D01*
X73039794Y-161969898D01*
X73039792Y-161969896D01*
X72867816Y-161844949D01*
X72678412Y-161748443D01*
X72476243Y-161682754D01*
X72266287Y-161649500D01*
X72053713Y-161649500D01*
X71843757Y-161682754D01*
X71843754Y-161682754D01*
X71843753Y-161682755D01*
X71641588Y-161748443D01*
X71641586Y-161748444D01*
X71452180Y-161844951D01*
X71280205Y-161969898D01*
X71280202Y-161969900D01*
X71129900Y-162120202D01*
X71129898Y-162120205D01*
X71004949Y-162292183D01*
X71002265Y-162297451D01*
X70953516Y-162349065D01*
X70884600Y-162366129D01*
X70817399Y-162343226D01*
X70777735Y-162297451D01*
X70775197Y-162292471D01*
X70775051Y-162292184D01*
X70650104Y-162120208D01*
X70650101Y-162120205D01*
X70650099Y-162120202D01*
X70499797Y-161969900D01*
X70499794Y-161969898D01*
X70499792Y-161969896D01*
X70327816Y-161844949D01*
X70138412Y-161748443D01*
X69936243Y-161682754D01*
X69726287Y-161649500D01*
X69513713Y-161649500D01*
X69303757Y-161682754D01*
X69303754Y-161682754D01*
X69303753Y-161682755D01*
X69101588Y-161748443D01*
X69101586Y-161748444D01*
X68912180Y-161844951D01*
X68740205Y-161969898D01*
X68740202Y-161969900D01*
X68589900Y-162120202D01*
X68589898Y-162120205D01*
X68464949Y-162292183D01*
X68462265Y-162297451D01*
X68413516Y-162349065D01*
X68344600Y-162366129D01*
X68277399Y-162343226D01*
X68237735Y-162297451D01*
X68235197Y-162292471D01*
X68235051Y-162292184D01*
X68110104Y-162120208D01*
X68110101Y-162120205D01*
X68110099Y-162120202D01*
X67959797Y-161969900D01*
X67959794Y-161969898D01*
X67959792Y-161969896D01*
X67787816Y-161844949D01*
X67598412Y-161748443D01*
X67396243Y-161682754D01*
X67186287Y-161649500D01*
X66973713Y-161649500D01*
X66763757Y-161682754D01*
X66763754Y-161682754D01*
X66763753Y-161682755D01*
X66561588Y-161748443D01*
X66561586Y-161748444D01*
X66372180Y-161844951D01*
X66200205Y-161969898D01*
X66200202Y-161969900D01*
X66049900Y-162120202D01*
X66049898Y-162120205D01*
X65924949Y-162292183D01*
X65922265Y-162297451D01*
X65873516Y-162349065D01*
X65804600Y-162366129D01*
X65737399Y-162343226D01*
X65697735Y-162297451D01*
X65695197Y-162292471D01*
X65695051Y-162292184D01*
X65570104Y-162120208D01*
X65570101Y-162120205D01*
X65570099Y-162120202D01*
X65419797Y-161969900D01*
X65419794Y-161969898D01*
X65419792Y-161969896D01*
X65247816Y-161844949D01*
X65058412Y-161748443D01*
X64856243Y-161682754D01*
X64646287Y-161649500D01*
X64433713Y-161649500D01*
X64223757Y-161682754D01*
X64223754Y-161682754D01*
X64223753Y-161682755D01*
X64021588Y-161748443D01*
X64021586Y-161748444D01*
X63832180Y-161844951D01*
X63660207Y-161969896D01*
X63548873Y-162081230D01*
X63486561Y-162115255D01*
X63415745Y-162110189D01*
X63358909Y-162067643D01*
X63341722Y-162036165D01*
X63293798Y-161907673D01*
X63293796Y-161907670D01*
X63293796Y-161907669D01*
X63230617Y-161823273D01*
X63207546Y-161792453D01*
X63103020Y-161714206D01*
X63092331Y-161706204D01*
X63092329Y-161706203D01*
X63092326Y-161706201D01*
X62957483Y-161655909D01*
X62957486Y-161655909D01*
X62897873Y-161649500D01*
X61102135Y-161649500D01*
X61102114Y-161649502D01*
X61042519Y-161655908D01*
X61042518Y-161655908D01*
X60907673Y-161706201D01*
X60907670Y-161706203D01*
X60792450Y-161792456D01*
X60790595Y-161794312D01*
X60788291Y-161795569D01*
X60785239Y-161797855D01*
X60784910Y-161797416D01*
X60728283Y-161828338D01*
X60657468Y-161823273D01*
X60600632Y-161780726D01*
X60575821Y-161714206D01*
X60575500Y-161705217D01*
X60575500Y-143353713D01*
X61109500Y-143353713D01*
X61109500Y-143566287D01*
X61142754Y-143776243D01*
X61208443Y-143978412D01*
X61304949Y-144167816D01*
X61429896Y-144339792D01*
X61429898Y-144339794D01*
X61429900Y-144339797D01*
X61580202Y-144490099D01*
X61580205Y-144490101D01*
X61580208Y-144490104D01*
X61752184Y-144615051D01*
X61755317Y-144616647D01*
X61757451Y-144617735D01*
X61809065Y-144666484D01*
X61826129Y-144735400D01*
X61803226Y-144802601D01*
X61757451Y-144842265D01*
X61752183Y-144844949D01*
X61580205Y-144969898D01*
X61580202Y-144969900D01*
X61429900Y-145120202D01*
X61429898Y-145120205D01*
X61304951Y-145292180D01*
X61208444Y-145481586D01*
X61208443Y-145481588D01*
X61143530Y-145681370D01*
X61142754Y-145683757D01*
X61109500Y-145893713D01*
X61109500Y-146106287D01*
X61142754Y-146316243D01*
X61208443Y-146518412D01*
X61304949Y-146707816D01*
X61429896Y-146879792D01*
X61429898Y-146879794D01*
X61429900Y-146879797D01*
X61580202Y-147030099D01*
X61580205Y-147030101D01*
X61580208Y-147030104D01*
X61752184Y-147155051D01*
X61755317Y-147156647D01*
X61757451Y-147157735D01*
X61809065Y-147206484D01*
X61826129Y-147275400D01*
X61803226Y-147342601D01*
X61757451Y-147382265D01*
X61752183Y-147384949D01*
X61580205Y-147509898D01*
X61580202Y-147509900D01*
X61429900Y-147660202D01*
X61429898Y-147660205D01*
X61304951Y-147832180D01*
X61298476Y-147844888D01*
X61208443Y-148021588D01*
X61142754Y-148223757D01*
X61109500Y-148433713D01*
X61109500Y-148646287D01*
X61142754Y-148856243D01*
X61208443Y-149058412D01*
X61304949Y-149247816D01*
X61429896Y-149419792D01*
X61429898Y-149419794D01*
X61429900Y-149419797D01*
X61580202Y-149570099D01*
X61580205Y-149570101D01*
X61580208Y-149570104D01*
X61752184Y-149695051D01*
X61755317Y-149696647D01*
X61757451Y-149697735D01*
X61809065Y-149746484D01*
X61826129Y-149815400D01*
X61803226Y-149882601D01*
X61757451Y-149922265D01*
X61752183Y-149924949D01*
X61580205Y-150049898D01*
X61580202Y-150049900D01*
X61429900Y-150200202D01*
X61429898Y-150200205D01*
X61304951Y-150372180D01*
X61208444Y-150561586D01*
X61208443Y-150561588D01*
X61145930Y-150753983D01*
X61142754Y-150763757D01*
X61109500Y-150973713D01*
X61109500Y-151186287D01*
X61142754Y-151396243D01*
X61208443Y-151598412D01*
X61304949Y-151787816D01*
X61304951Y-151787819D01*
X61312187Y-151797778D01*
X61429896Y-151959792D01*
X61429898Y-151959794D01*
X61429900Y-151959797D01*
X61580202Y-152110099D01*
X61580205Y-152110101D01*
X61580208Y-152110104D01*
X61752184Y-152235051D01*
X61755317Y-152236647D01*
X61757451Y-152237735D01*
X61809065Y-152286484D01*
X61826129Y-152355400D01*
X61803226Y-152422601D01*
X61757451Y-152462265D01*
X61752183Y-152464949D01*
X61580205Y-152589898D01*
X61580202Y-152589900D01*
X61429900Y-152740202D01*
X61429898Y-152740205D01*
X61304951Y-152912180D01*
X61208444Y-153101586D01*
X61208443Y-153101588D01*
X61158925Y-153253989D01*
X61142754Y-153303757D01*
X61109500Y-153513713D01*
X61109500Y-153726287D01*
X61142754Y-153936243D01*
X61208443Y-154138412D01*
X61304949Y-154327816D01*
X61429896Y-154499792D01*
X61429898Y-154499794D01*
X61429900Y-154499797D01*
X61580202Y-154650099D01*
X61580205Y-154650101D01*
X61580208Y-154650104D01*
X61752184Y-154775051D01*
X61753517Y-154775730D01*
X61757451Y-154777735D01*
X61809065Y-154826484D01*
X61826129Y-154895400D01*
X61803226Y-154962601D01*
X61757451Y-155002265D01*
X61752183Y-155004949D01*
X61580205Y-155129898D01*
X61580202Y-155129900D01*
X61429900Y-155280202D01*
X61429898Y-155280205D01*
X61304951Y-155452180D01*
X61208444Y-155641586D01*
X61208443Y-155641588D01*
X61171922Y-155753989D01*
X61142754Y-155843757D01*
X61109500Y-156053713D01*
X61109500Y-156266287D01*
X61142754Y-156476243D01*
X61208443Y-156678412D01*
X61304949Y-156867816D01*
X61304951Y-156867819D01*
X61335840Y-156910334D01*
X61429896Y-157039792D01*
X61429898Y-157039794D01*
X61429900Y-157039797D01*
X61580202Y-157190099D01*
X61580205Y-157190101D01*
X61580208Y-157190104D01*
X61752184Y-157315051D01*
X61941588Y-157411557D01*
X62143757Y-157477246D01*
X62353713Y-157510500D01*
X62353716Y-157510500D01*
X62566284Y-157510500D01*
X62566287Y-157510500D01*
X62776243Y-157477246D01*
X62978412Y-157411557D01*
X63167816Y-157315051D01*
X63339792Y-157190104D01*
X63451127Y-157078768D01*
X63513437Y-157044745D01*
X63584253Y-157049809D01*
X63641089Y-157092356D01*
X63658277Y-157123833D01*
X63706202Y-157252328D01*
X63706203Y-157252329D01*
X63792453Y-157367546D01*
X63850061Y-157410671D01*
X63907669Y-157453796D01*
X63907671Y-157453796D01*
X63907673Y-157453798D01*
X63968030Y-157476309D01*
X64042514Y-157504090D01*
X64042517Y-157504091D01*
X64102127Y-157510500D01*
X65897872Y-157510499D01*
X65957483Y-157504091D01*
X66092331Y-157453796D01*
X66207546Y-157367546D01*
X66293796Y-157252331D01*
X66344091Y-157117483D01*
X66350500Y-157057873D01*
X66350499Y-155262128D01*
X66344091Y-155202517D01*
X66317005Y-155129896D01*
X66293798Y-155067673D01*
X66293796Y-155067670D01*
X66293796Y-155067669D01*
X66233887Y-154987641D01*
X66207546Y-154952453D01*
X66116913Y-154884606D01*
X66092331Y-154866204D01*
X66092329Y-154866203D01*
X66092328Y-154866202D01*
X65963833Y-154818277D01*
X65906997Y-154775730D01*
X65882186Y-154709210D01*
X65897277Y-154639836D01*
X65918767Y-154611128D01*
X66030104Y-154499792D01*
X66155051Y-154327816D01*
X66251557Y-154138412D01*
X66317246Y-153936243D01*
X66350500Y-153726287D01*
X66350500Y-153513713D01*
X66317246Y-153303757D01*
X66251557Y-153101588D01*
X66155051Y-152912184D01*
X66030104Y-152740208D01*
X66030101Y-152740205D01*
X66030099Y-152740202D01*
X65879797Y-152589900D01*
X65879794Y-152589898D01*
X65879792Y-152589896D01*
X65707816Y-152464949D01*
X65702551Y-152462266D01*
X65650937Y-152413520D01*
X65633870Y-152344606D01*
X65656770Y-152277404D01*
X65702551Y-152237733D01*
X65707816Y-152235051D01*
X65879792Y-152110104D01*
X66030104Y-151959792D01*
X66155051Y-151787816D01*
X66251557Y-151598412D01*
X66317246Y-151396243D01*
X66350500Y-151186287D01*
X66350500Y-150973713D01*
X66317246Y-150763757D01*
X66251557Y-150561588D01*
X66155051Y-150372184D01*
X66030104Y-150200208D01*
X66030101Y-150200205D01*
X66030099Y-150200202D01*
X65879797Y-150049900D01*
X65879794Y-150049898D01*
X65879792Y-150049896D01*
X65707816Y-149924949D01*
X65702551Y-149922266D01*
X65650937Y-149873520D01*
X65633870Y-149804606D01*
X65656770Y-149737404D01*
X65702551Y-149697733D01*
X65707816Y-149695051D01*
X65879792Y-149570104D01*
X66030104Y-149419792D01*
X66155051Y-149247816D01*
X66251557Y-149058412D01*
X66317246Y-148856243D01*
X66350500Y-148646287D01*
X66350500Y-148433713D01*
X66317246Y-148223757D01*
X66251557Y-148021588D01*
X66155051Y-147832184D01*
X66030104Y-147660208D01*
X66030101Y-147660205D01*
X66030099Y-147660202D01*
X65879797Y-147509900D01*
X65879794Y-147509898D01*
X65879792Y-147509896D01*
X65707816Y-147384949D01*
X65702551Y-147382266D01*
X65650937Y-147333520D01*
X65633870Y-147264606D01*
X65656770Y-147197404D01*
X65702551Y-147157733D01*
X65707816Y-147155051D01*
X65879792Y-147030104D01*
X66030104Y-146879792D01*
X66155051Y-146707816D01*
X66251557Y-146518412D01*
X66317246Y-146316243D01*
X66350500Y-146106287D01*
X66350500Y-145893713D01*
X66317246Y-145683757D01*
X66251557Y-145481588D01*
X66155051Y-145292184D01*
X66030104Y-145120208D01*
X66030101Y-145120205D01*
X66030099Y-145120202D01*
X65879797Y-144969900D01*
X65879794Y-144969898D01*
X65879792Y-144969896D01*
X65707816Y-144844949D01*
X65702551Y-144842266D01*
X65693249Y-144833480D01*
X65681392Y-144828668D01*
X65667926Y-144809565D01*
X65650937Y-144793520D01*
X65647861Y-144781099D01*
X65640488Y-144770640D01*
X65639487Y-144747288D01*
X65635634Y-144731729D01*
X72113200Y-144731729D01*
X72113200Y-144897870D01*
X72119863Y-144931365D01*
X72145581Y-145060662D01*
X72145611Y-145060810D01*
X72145613Y-145060816D01*
X72209186Y-145214297D01*
X72209187Y-145214299D01*
X72209188Y-145214300D01*
X72244366Y-145266947D01*
X72265580Y-145334697D01*
X72265600Y-145336947D01*
X72265600Y-154638211D01*
X72292155Y-154771709D01*
X72292156Y-154771712D01*
X72324377Y-154849499D01*
X72344244Y-154897463D01*
X72416064Y-155004951D01*
X72419866Y-155010640D01*
X72419871Y-155010646D01*
X77545956Y-160136731D01*
X77545960Y-160136734D01*
X77545961Y-160136735D01*
X77625450Y-160189847D01*
X77659137Y-160212356D01*
X77784891Y-160264445D01*
X77918390Y-160291000D01*
X82415252Y-160291000D01*
X82483373Y-160311002D01*
X82485254Y-160312235D01*
X82537900Y-160347412D01*
X82691389Y-160410989D01*
X82854332Y-160443400D01*
X82854333Y-160443400D01*
X83020467Y-160443400D01*
X83020468Y-160443400D01*
X83183411Y-160410989D01*
X83336900Y-160347412D01*
X83475036Y-160255112D01*
X83592512Y-160137636D01*
X83684812Y-159999500D01*
X83748389Y-159846011D01*
X83780800Y-159683068D01*
X83780800Y-159516932D01*
X83748389Y-159353989D01*
X83684812Y-159200500D01*
X83592512Y-159062364D01*
X83592507Y-159062358D01*
X83475041Y-158944892D01*
X83475035Y-158944887D01*
X83391391Y-158888998D01*
X83336900Y-158852588D01*
X83183411Y-158789011D01*
X83020470Y-158756600D01*
X83020468Y-158756600D01*
X82854332Y-158756600D01*
X82854329Y-158756600D01*
X82691388Y-158789011D01*
X82691383Y-158789013D01*
X82537899Y-158852588D01*
X82485254Y-158887765D01*
X82417501Y-158908980D01*
X82415252Y-158909000D01*
X78324860Y-158909000D01*
X78256739Y-158888998D01*
X78235765Y-158872095D01*
X76399007Y-157035337D01*
X76364981Y-156973025D01*
X76370046Y-156902210D01*
X76412593Y-156845374D01*
X76479113Y-156820563D01*
X76512676Y-156822662D01*
X76616932Y-156843400D01*
X76616933Y-156843400D01*
X76783067Y-156843400D01*
X76783068Y-156843400D01*
X76946011Y-156810989D01*
X77099500Y-156747412D01*
X77237636Y-156655112D01*
X77355112Y-156537636D01*
X77447412Y-156399500D01*
X77510989Y-156246011D01*
X77543400Y-156083068D01*
X77543400Y-155916932D01*
X77510989Y-155753989D01*
X77447412Y-155600500D01*
X77355112Y-155462364D01*
X77355107Y-155462358D01*
X77237641Y-155344892D01*
X77237635Y-155344887D01*
X77160579Y-155293400D01*
X77099500Y-155252588D01*
X76946011Y-155189011D01*
X76783070Y-155156600D01*
X76783068Y-155156600D01*
X76616932Y-155156600D01*
X76616929Y-155156600D01*
X76453988Y-155189011D01*
X76453983Y-155189013D01*
X76300500Y-155252588D01*
X76162364Y-155344887D01*
X76162358Y-155344892D01*
X76044892Y-155462358D01*
X76044887Y-155462364D01*
X75952588Y-155600500D01*
X75889013Y-155753983D01*
X75889011Y-155753988D01*
X75856600Y-155916929D01*
X75856600Y-156083070D01*
X75877336Y-156187315D01*
X75871008Y-156258029D01*
X75827454Y-156314097D01*
X75760501Y-156337716D01*
X75691408Y-156321389D01*
X75664662Y-156300992D01*
X73684505Y-154320835D01*
X73650479Y-154258523D01*
X73647600Y-154231740D01*
X73647600Y-153416929D01*
X75856600Y-153416929D01*
X75856600Y-153583070D01*
X75867728Y-153639013D01*
X75889011Y-153746011D01*
X75952588Y-153899500D01*
X75994098Y-153961624D01*
X76044887Y-154037635D01*
X76044892Y-154037641D01*
X76162358Y-154155107D01*
X76162364Y-154155112D01*
X76300500Y-154247412D01*
X76453989Y-154310989D01*
X76616932Y-154343400D01*
X76616933Y-154343400D01*
X76783067Y-154343400D01*
X76783068Y-154343400D01*
X76946011Y-154310989D01*
X77099500Y-154247412D01*
X77237636Y-154155112D01*
X77355112Y-154037636D01*
X77447412Y-153899500D01*
X77510989Y-153746011D01*
X77543400Y-153583068D01*
X77543400Y-153416932D01*
X77510989Y-153253989D01*
X77447412Y-153100500D01*
X77355112Y-152962364D01*
X77355107Y-152962358D01*
X77237641Y-152844892D01*
X77237635Y-152844887D01*
X77191799Y-152814260D01*
X77099500Y-152752588D01*
X76946011Y-152689011D01*
X76783070Y-152656600D01*
X76783068Y-152656600D01*
X76616932Y-152656600D01*
X76616929Y-152656600D01*
X76453988Y-152689011D01*
X76453983Y-152689013D01*
X76300500Y-152752588D01*
X76162364Y-152844887D01*
X76162358Y-152844892D01*
X76044892Y-152962358D01*
X76044887Y-152962364D01*
X75952588Y-153100500D01*
X75889013Y-153253983D01*
X75889011Y-153253988D01*
X75856600Y-153416929D01*
X73647600Y-153416929D01*
X73647600Y-150916929D01*
X75856600Y-150916929D01*
X75856600Y-151083070D01*
X75884978Y-151225734D01*
X75889011Y-151246011D01*
X75952588Y-151399500D01*
X76007276Y-151481346D01*
X76044887Y-151537635D01*
X76044892Y-151537641D01*
X76162358Y-151655107D01*
X76162364Y-151655112D01*
X76300500Y-151747412D01*
X76453989Y-151810989D01*
X76616932Y-151843400D01*
X76616933Y-151843400D01*
X76783067Y-151843400D01*
X76783068Y-151843400D01*
X76946011Y-151810989D01*
X77099500Y-151747412D01*
X77237636Y-151655112D01*
X77355112Y-151537636D01*
X77447412Y-151399500D01*
X77510989Y-151246011D01*
X77543400Y-151083068D01*
X77543400Y-150916932D01*
X77510989Y-150753989D01*
X77447412Y-150600500D01*
X77355112Y-150462364D01*
X77355107Y-150462358D01*
X77237641Y-150344892D01*
X77237635Y-150344887D01*
X77191799Y-150314260D01*
X77099500Y-150252588D01*
X76946011Y-150189011D01*
X76783070Y-150156600D01*
X76783068Y-150156600D01*
X76616932Y-150156600D01*
X76616929Y-150156600D01*
X76453988Y-150189011D01*
X76453983Y-150189013D01*
X76300500Y-150252588D01*
X76162364Y-150344887D01*
X76162358Y-150344892D01*
X76044892Y-150462358D01*
X76044887Y-150462364D01*
X75952588Y-150600500D01*
X75889013Y-150753983D01*
X75889011Y-150753988D01*
X75856600Y-150916929D01*
X73647600Y-150916929D01*
X73647600Y-148416929D01*
X75856600Y-148416929D01*
X75856600Y-148416932D01*
X75856600Y-148583068D01*
X75889011Y-148746011D01*
X75952588Y-148899500D01*
X76002501Y-148974200D01*
X76044887Y-149037635D01*
X76044892Y-149037641D01*
X76162358Y-149155107D01*
X76162364Y-149155112D01*
X76300500Y-149247412D01*
X76453989Y-149310989D01*
X76616932Y-149343400D01*
X76616933Y-149343400D01*
X76783067Y-149343400D01*
X76783068Y-149343400D01*
X76946011Y-149310989D01*
X77099500Y-149247412D01*
X77237636Y-149155112D01*
X77355112Y-149037636D01*
X77447412Y-148899500D01*
X77510989Y-148746011D01*
X77543400Y-148583068D01*
X77543400Y-148416932D01*
X77510989Y-148253989D01*
X77447412Y-148100500D01*
X77355112Y-147962364D01*
X77355107Y-147962358D01*
X77237641Y-147844892D01*
X77237635Y-147844887D01*
X77191799Y-147814260D01*
X77099500Y-147752588D01*
X76946011Y-147689011D01*
X76783070Y-147656600D01*
X76783068Y-147656600D01*
X76616932Y-147656600D01*
X76616929Y-147656600D01*
X76453988Y-147689011D01*
X76453983Y-147689013D01*
X76300500Y-147752588D01*
X76162364Y-147844887D01*
X76162358Y-147844892D01*
X76044892Y-147962358D01*
X76044887Y-147962364D01*
X75952588Y-148100500D01*
X75889013Y-148253983D01*
X75889011Y-148253988D01*
X75856600Y-148416929D01*
X73647600Y-148416929D01*
X73647600Y-145916929D01*
X75856600Y-145916929D01*
X75856600Y-146083070D01*
X75882045Y-146210989D01*
X75889011Y-146246011D01*
X75952588Y-146399500D01*
X75958028Y-146407641D01*
X76044887Y-146537635D01*
X76044892Y-146537641D01*
X76162358Y-146655107D01*
X76162364Y-146655112D01*
X76300500Y-146747412D01*
X76453989Y-146810989D01*
X76616932Y-146843400D01*
X76616933Y-146843400D01*
X76783067Y-146843400D01*
X76783068Y-146843400D01*
X76946011Y-146810989D01*
X77099500Y-146747412D01*
X77237636Y-146655112D01*
X77355112Y-146537636D01*
X77447412Y-146399500D01*
X77510989Y-146246011D01*
X77543400Y-146083068D01*
X77543400Y-145916932D01*
X77510989Y-145753989D01*
X77447412Y-145600500D01*
X77355112Y-145462364D01*
X77355107Y-145462358D01*
X77237641Y-145344892D01*
X77237635Y-145344887D01*
X77195793Y-145316929D01*
X115856600Y-145316929D01*
X115856600Y-145483070D01*
X115869493Y-145547888D01*
X115889011Y-145646011D01*
X115952588Y-145799500D01*
X115998091Y-145867599D01*
X116044887Y-145937635D01*
X116044892Y-145937641D01*
X116162358Y-146055107D01*
X116162364Y-146055112D01*
X116300500Y-146147412D01*
X116453989Y-146210989D01*
X116616932Y-146243400D01*
X116616933Y-146243400D01*
X116783067Y-146243400D01*
X116783068Y-146243400D01*
X116946011Y-146210989D01*
X117099500Y-146147412D01*
X117152146Y-146112235D01*
X117219899Y-146091020D01*
X117222148Y-146091000D01*
X118295858Y-146091000D01*
X118429357Y-146064445D01*
X118555111Y-146012356D01*
X118565019Y-146005736D01*
X118668287Y-145936735D01*
X118668294Y-145936728D01*
X118677118Y-145927905D01*
X118739430Y-145893879D01*
X118766213Y-145891000D01*
X119112508Y-145891000D01*
X119160726Y-145900591D01*
X119291401Y-145954718D01*
X119454344Y-145987129D01*
X119454345Y-145987129D01*
X119620479Y-145987129D01*
X119620480Y-145987129D01*
X119783423Y-145954718D01*
X119936912Y-145891141D01*
X120075048Y-145798841D01*
X120192524Y-145681365D01*
X120284824Y-145543229D01*
X120348401Y-145389740D01*
X120349338Y-145385029D01*
X137974000Y-145385029D01*
X137974000Y-145551170D01*
X137984568Y-145604300D01*
X138006411Y-145714111D01*
X138069988Y-145867600D01*
X138149855Y-145987129D01*
X138162286Y-146005733D01*
X138162292Y-146005741D01*
X138279758Y-146123207D01*
X138279764Y-146123212D01*
X138417900Y-146215512D01*
X138571389Y-146279089D01*
X138734332Y-146311500D01*
X138734333Y-146311500D01*
X138900467Y-146311500D01*
X138900468Y-146311500D01*
X139063411Y-146279089D01*
X139216900Y-146215512D01*
X139269546Y-146180335D01*
X139337299Y-146159120D01*
X139339548Y-146159100D01*
X143283368Y-146159100D01*
X143351489Y-146179102D01*
X143397982Y-146232758D01*
X143399773Y-146236872D01*
X143413288Y-146269500D01*
X143413289Y-146269501D01*
X143505587Y-146407635D01*
X143505592Y-146407641D01*
X143623058Y-146525107D01*
X143623064Y-146525112D01*
X143761200Y-146617412D01*
X143914689Y-146680989D01*
X144077632Y-146713400D01*
X144077633Y-146713400D01*
X144243767Y-146713400D01*
X144243768Y-146713400D01*
X144406711Y-146680989D01*
X144560200Y-146617412D01*
X144612846Y-146582235D01*
X144680599Y-146561020D01*
X144682848Y-146561000D01*
X147502168Y-146561000D01*
X147570289Y-146581002D01*
X147616782Y-146634658D01*
X147626886Y-146704932D01*
X147625747Y-146711583D01*
X147624800Y-146716342D01*
X147624800Y-146852459D01*
X147651355Y-146985957D01*
X147651356Y-146985960D01*
X147651497Y-146986300D01*
X147703444Y-147111711D01*
X147735316Y-147159412D01*
X147779066Y-147224888D01*
X147779071Y-147224894D01*
X147875305Y-147321128D01*
X147875311Y-147321133D01*
X147875313Y-147321135D01*
X147988489Y-147396756D01*
X148114243Y-147448845D01*
X148247743Y-147475400D01*
X148247744Y-147475400D01*
X148383856Y-147475400D01*
X148383857Y-147475400D01*
X148517357Y-147448845D01*
X148643111Y-147396756D01*
X148711611Y-147350984D01*
X148757031Y-147332171D01*
X148841911Y-147315289D01*
X148995400Y-147251712D01*
X149133536Y-147159412D01*
X149251012Y-147041936D01*
X149285900Y-146989721D01*
X149340375Y-146944196D01*
X149410818Y-146935347D01*
X149438878Y-146943315D01*
X149478543Y-146959745D01*
X149612042Y-146986300D01*
X150771752Y-146986300D01*
X150839873Y-147006302D01*
X150841754Y-147007535D01*
X150894400Y-147042712D01*
X151047889Y-147106289D01*
X151210832Y-147138700D01*
X151210833Y-147138700D01*
X151376967Y-147138700D01*
X151376968Y-147138700D01*
X151539911Y-147106289D01*
X151693400Y-147042712D01*
X151831536Y-146950412D01*
X151949012Y-146832936D01*
X152041312Y-146694800D01*
X152104889Y-146541311D01*
X152137300Y-146378368D01*
X152137300Y-146212232D01*
X152104889Y-146049289D01*
X152041312Y-145895800D01*
X151949012Y-145757664D01*
X151949007Y-145757658D01*
X151831541Y-145640192D01*
X151831535Y-145640187D01*
X151747891Y-145584298D01*
X151693400Y-145547888D01*
X151539911Y-145484311D01*
X151533662Y-145483068D01*
X151376970Y-145451900D01*
X151376968Y-145451900D01*
X151210832Y-145451900D01*
X151210829Y-145451900D01*
X151047888Y-145484311D01*
X151047883Y-145484313D01*
X150894399Y-145547888D01*
X150841754Y-145583065D01*
X150774001Y-145604280D01*
X150771752Y-145604300D01*
X150018512Y-145604300D01*
X149950391Y-145584298D01*
X149929421Y-145567399D01*
X149415187Y-145053165D01*
X149302011Y-144977544D01*
X149283547Y-144969896D01*
X149176260Y-144925456D01*
X149176257Y-144925455D01*
X149042761Y-144898900D01*
X149042758Y-144898900D01*
X148149042Y-144898900D01*
X148149038Y-144898900D01*
X148015542Y-144925455D01*
X148015539Y-144925456D01*
X147889788Y-144977544D01*
X147776611Y-145053166D01*
X147732147Y-145097630D01*
X147687681Y-145142096D01*
X147625372Y-145176120D01*
X147598588Y-145179000D01*
X144682848Y-145179000D01*
X144614727Y-145158998D01*
X144612846Y-145157765D01*
X144560200Y-145122588D01*
X144406716Y-145059013D01*
X144406715Y-145059012D01*
X144406711Y-145059011D01*
X144344607Y-145046657D01*
X144281699Y-145013750D01*
X144280152Y-145012230D01*
X144199287Y-144931365D01*
X144086111Y-144855744D01*
X143960360Y-144803656D01*
X143960357Y-144803655D01*
X143826861Y-144777100D01*
X143826858Y-144777100D01*
X139339548Y-144777100D01*
X139271427Y-144757098D01*
X139269546Y-144755865D01*
X139216900Y-144720688D01*
X139063416Y-144657113D01*
X139063411Y-144657111D01*
X138900470Y-144624700D01*
X138900468Y-144624700D01*
X138734332Y-144624700D01*
X138734329Y-144624700D01*
X138571388Y-144657111D01*
X138571383Y-144657113D01*
X138417900Y-144720688D01*
X138279764Y-144812987D01*
X138279758Y-144812992D01*
X138162292Y-144930458D01*
X138162287Y-144930464D01*
X138069988Y-145068600D01*
X138006413Y-145222083D01*
X138006411Y-145222088D01*
X137974000Y-145385029D01*
X120349338Y-145385029D01*
X120380812Y-145226797D01*
X120380812Y-145060661D01*
X120348401Y-144897718D01*
X120284824Y-144744229D01*
X120192524Y-144606093D01*
X120192519Y-144606087D01*
X120075053Y-144488621D01*
X120075047Y-144488616D01*
X120027597Y-144456911D01*
X119936912Y-144396317D01*
X119783423Y-144332740D01*
X119620482Y-144300329D01*
X119620480Y-144300329D01*
X119454344Y-144300329D01*
X119454341Y-144300329D01*
X119291400Y-144332740D01*
X119291395Y-144332742D01*
X119137912Y-144396317D01*
X119001051Y-144487765D01*
X118933298Y-144508980D01*
X118931049Y-144509000D01*
X118359738Y-144509000D01*
X118247267Y-144531372D01*
X118247267Y-144531373D01*
X118242011Y-144532418D01*
X118226240Y-144535555D01*
X118226239Y-144535556D01*
X118100488Y-144587644D01*
X117987318Y-144663262D01*
X117987311Y-144663267D01*
X117978484Y-144672095D01*
X117916172Y-144706121D01*
X117889389Y-144709000D01*
X117222148Y-144709000D01*
X117154027Y-144688998D01*
X117152146Y-144687765D01*
X117099500Y-144652588D01*
X116946016Y-144589013D01*
X116946011Y-144589011D01*
X116783070Y-144556600D01*
X116783068Y-144556600D01*
X116616932Y-144556600D01*
X116616929Y-144556600D01*
X116453988Y-144589011D01*
X116453983Y-144589013D01*
X116300500Y-144652588D01*
X116162364Y-144744887D01*
X116162358Y-144744892D01*
X116044892Y-144862358D01*
X116044887Y-144862364D01*
X115952588Y-145000500D01*
X115889013Y-145153983D01*
X115889011Y-145153988D01*
X115856600Y-145316929D01*
X77195793Y-145316929D01*
X77158759Y-145292184D01*
X77099500Y-145252588D01*
X76946011Y-145189011D01*
X76895682Y-145179000D01*
X76783070Y-145156600D01*
X76783068Y-145156600D01*
X76616932Y-145156600D01*
X76616929Y-145156600D01*
X76453988Y-145189011D01*
X76453983Y-145189013D01*
X76300500Y-145252588D01*
X76162364Y-145344887D01*
X76162358Y-145344892D01*
X76044892Y-145462358D01*
X76044887Y-145462364D01*
X75952588Y-145600500D01*
X75889013Y-145753983D01*
X75889011Y-145753988D01*
X75856600Y-145916929D01*
X73647600Y-145916929D01*
X73647600Y-145336947D01*
X73667602Y-145268826D01*
X73668775Y-145267034D01*
X73704012Y-145214300D01*
X73767589Y-145060811D01*
X73800000Y-144897868D01*
X73800000Y-144731732D01*
X73767589Y-144568789D01*
X73704012Y-144415300D01*
X73611712Y-144277164D01*
X73611707Y-144277158D01*
X73494241Y-144159692D01*
X73494235Y-144159687D01*
X73421275Y-144110937D01*
X73356100Y-144067388D01*
X73202611Y-144003811D01*
X73195226Y-144002342D01*
X73039670Y-143971400D01*
X73039668Y-143971400D01*
X72873532Y-143971400D01*
X72873529Y-143971400D01*
X72710588Y-144003811D01*
X72710583Y-144003813D01*
X72557100Y-144067388D01*
X72418964Y-144159687D01*
X72418958Y-144159692D01*
X72301492Y-144277158D01*
X72301487Y-144277164D01*
X72209188Y-144415300D01*
X72145613Y-144568783D01*
X72145611Y-144568788D01*
X72113200Y-144731729D01*
X65635634Y-144731729D01*
X65633870Y-144724606D01*
X65637996Y-144712495D01*
X65637449Y-144699708D01*
X65649233Y-144679521D01*
X65656770Y-144657404D01*
X65667646Y-144647979D01*
X65673242Y-144638394D01*
X65702554Y-144617732D01*
X65707816Y-144615051D01*
X65879792Y-144490104D01*
X66030104Y-144339792D01*
X66155051Y-144167816D01*
X66251557Y-143978412D01*
X66297763Y-143836205D01*
X75437324Y-143836205D01*
X75437324Y-144002346D01*
X75469735Y-144165287D01*
X75469737Y-144165292D01*
X75470784Y-144167819D01*
X75533312Y-144318776D01*
X75542644Y-144332742D01*
X75625611Y-144456911D01*
X75625616Y-144456917D01*
X75743082Y-144574383D01*
X75743088Y-144574388D01*
X75881224Y-144666688D01*
X76034713Y-144730265D01*
X76197656Y-144762676D01*
X76197657Y-144762676D01*
X76363791Y-144762676D01*
X76363792Y-144762676D01*
X76526735Y-144730265D01*
X76680224Y-144666688D01*
X76818360Y-144574388D01*
X76935836Y-144456912D01*
X77028136Y-144318776D01*
X77091713Y-144165287D01*
X77124124Y-144002344D01*
X77124124Y-143836208D01*
X77091713Y-143673265D01*
X77028136Y-143519776D01*
X76935836Y-143381640D01*
X76935831Y-143381634D01*
X76818365Y-143264168D01*
X76818359Y-143264163D01*
X76772523Y-143233536D01*
X76680224Y-143171864D01*
X76526735Y-143108287D01*
X76363794Y-143075876D01*
X76363792Y-143075876D01*
X76197656Y-143075876D01*
X76197653Y-143075876D01*
X76034712Y-143108287D01*
X76034707Y-143108289D01*
X75881224Y-143171864D01*
X75743088Y-143264163D01*
X75743082Y-143264168D01*
X75625616Y-143381634D01*
X75625611Y-143381640D01*
X75533312Y-143519776D01*
X75469737Y-143673259D01*
X75469735Y-143673264D01*
X75437324Y-143836205D01*
X66297763Y-143836205D01*
X66312425Y-143791081D01*
X66312426Y-143791079D01*
X66317243Y-143776251D01*
X66317244Y-143776250D01*
X66317245Y-143776246D01*
X66317246Y-143776243D01*
X66350500Y-143566287D01*
X66350500Y-143353713D01*
X66317246Y-143143757D01*
X66251557Y-142941588D01*
X66155051Y-142752184D01*
X66030104Y-142580208D01*
X66030101Y-142580205D01*
X66030099Y-142580202D01*
X65879797Y-142429900D01*
X65879794Y-142429898D01*
X65879792Y-142429896D01*
X65707816Y-142304949D01*
X65518412Y-142208443D01*
X65316243Y-142142754D01*
X65106287Y-142109500D01*
X64893713Y-142109500D01*
X64683757Y-142142754D01*
X64683754Y-142142754D01*
X64683753Y-142142755D01*
X64481588Y-142208443D01*
X64481586Y-142208444D01*
X64292180Y-142304951D01*
X64120205Y-142429898D01*
X64120202Y-142429900D01*
X63969900Y-142580202D01*
X63969898Y-142580205D01*
X63844949Y-142752183D01*
X63842265Y-142757451D01*
X63793516Y-142809065D01*
X63724600Y-142826129D01*
X63657399Y-142803226D01*
X63617735Y-142757451D01*
X63615050Y-142752183D01*
X63615048Y-142752180D01*
X63490104Y-142580208D01*
X63490101Y-142580205D01*
X63490099Y-142580202D01*
X63339797Y-142429900D01*
X63339794Y-142429898D01*
X63339792Y-142429896D01*
X63167816Y-142304949D01*
X62978412Y-142208443D01*
X62776243Y-142142754D01*
X62566287Y-142109500D01*
X62353713Y-142109500D01*
X62143757Y-142142754D01*
X62143754Y-142142754D01*
X62143753Y-142142755D01*
X61941588Y-142208443D01*
X61941586Y-142208444D01*
X61752180Y-142304951D01*
X61580205Y-142429898D01*
X61580202Y-142429900D01*
X61429900Y-142580202D01*
X61429898Y-142580205D01*
X61304951Y-142752180D01*
X61304949Y-142752184D01*
X61208443Y-142941588D01*
X61142754Y-143143757D01*
X61109500Y-143353713D01*
X60575500Y-143353713D01*
X60575500Y-131260709D01*
X63681500Y-131260709D01*
X63681500Y-131503290D01*
X63713160Y-131743782D01*
X63775944Y-131978095D01*
X63775945Y-131978097D01*
X63775946Y-131978100D01*
X63868776Y-132202212D01*
X63868777Y-132202213D01*
X63868782Y-132202224D01*
X63990061Y-132412285D01*
X63990063Y-132412288D01*
X63990064Y-132412289D01*
X64137735Y-132604738D01*
X64137739Y-132604742D01*
X64137744Y-132604748D01*
X64309251Y-132776255D01*
X64309256Y-132776259D01*
X64309262Y-132776265D01*
X64501711Y-132923936D01*
X64501714Y-132923938D01*
X64711775Y-133045217D01*
X64711779Y-133045218D01*
X64711788Y-133045224D01*
X64935900Y-133138054D01*
X65170211Y-133200838D01*
X65170215Y-133200838D01*
X65170217Y-133200839D01*
X65232202Y-133208999D01*
X65410712Y-133232500D01*
X65410719Y-133232500D01*
X65653281Y-133232500D01*
X65653288Y-133232500D01*
X65870637Y-133203885D01*
X65893782Y-133200839D01*
X65893782Y-133200838D01*
X65893789Y-133200838D01*
X66128100Y-133138054D01*
X66352212Y-133045224D01*
X66562289Y-132923936D01*
X66754738Y-132776265D01*
X66926265Y-132604738D01*
X67073936Y-132412289D01*
X67195224Y-132202212D01*
X67288054Y-131978100D01*
X67350838Y-131743789D01*
X67382500Y-131503288D01*
X67382500Y-131260712D01*
X67353822Y-131042878D01*
X67350839Y-131020217D01*
X67350838Y-131020215D01*
X67350838Y-131020211D01*
X67288054Y-130785900D01*
X67195224Y-130561788D01*
X67195218Y-130561779D01*
X67195217Y-130561775D01*
X67073938Y-130351714D01*
X67067317Y-130343085D01*
X66926265Y-130159262D01*
X66926259Y-130159256D01*
X66926255Y-130159251D01*
X66754748Y-129987744D01*
X66754742Y-129987739D01*
X66754738Y-129987735D01*
X66562289Y-129840064D01*
X66562288Y-129840063D01*
X66562285Y-129840061D01*
X66352224Y-129718782D01*
X66352216Y-129718778D01*
X66352212Y-129718776D01*
X66128100Y-129625946D01*
X66128097Y-129625945D01*
X66128095Y-129625944D01*
X65893782Y-129563160D01*
X65653290Y-129531500D01*
X65653288Y-129531500D01*
X65410712Y-129531500D01*
X65410709Y-129531500D01*
X65170217Y-129563160D01*
X64935904Y-129625944D01*
X64935900Y-129625946D01*
X64776101Y-129692137D01*
X64711786Y-129718777D01*
X64711775Y-129718782D01*
X64501714Y-129840061D01*
X64309262Y-129987735D01*
X64309251Y-129987744D01*
X64137744Y-130159251D01*
X64137735Y-130159262D01*
X63990061Y-130351714D01*
X63868782Y-130561775D01*
X63868777Y-130561786D01*
X63775946Y-130785900D01*
X63775944Y-130785904D01*
X63713160Y-131020217D01*
X63681500Y-131260709D01*
X60575500Y-131260709D01*
X60575500Y-129583463D01*
X60595502Y-129515342D01*
X60612405Y-129494368D01*
X65689844Y-124416929D01*
X119656600Y-124416929D01*
X119656600Y-124583070D01*
X119678295Y-124692137D01*
X119689011Y-124746011D01*
X119752588Y-124899500D01*
X119814260Y-124991799D01*
X119844887Y-125037635D01*
X119844892Y-125037641D01*
X119962358Y-125155107D01*
X119962364Y-125155112D01*
X120100500Y-125247412D01*
X120253989Y-125310989D01*
X120416932Y-125343400D01*
X120416933Y-125343400D01*
X120583067Y-125343400D01*
X120583068Y-125343400D01*
X120746011Y-125310989D01*
X120746012Y-125310988D01*
X120752082Y-125309781D01*
X120752600Y-125312387D01*
X120812044Y-125311846D01*
X120866744Y-125343966D01*
X123642174Y-128119396D01*
X123676200Y-128181708D01*
X123676657Y-128183907D01*
X123689011Y-128246011D01*
X123752588Y-128399500D01*
X123814260Y-128491799D01*
X123844887Y-128537635D01*
X123844892Y-128537641D01*
X123962358Y-128655107D01*
X123962364Y-128655112D01*
X124100500Y-128747412D01*
X124253989Y-128810989D01*
X124416932Y-128843400D01*
X124416933Y-128843400D01*
X124583067Y-128843400D01*
X124583068Y-128843400D01*
X124746011Y-128810989D01*
X124899500Y-128747412D01*
X125037636Y-128655112D01*
X125155112Y-128537636D01*
X125247412Y-128399500D01*
X125310989Y-128246011D01*
X125343400Y-128083068D01*
X125343400Y-127916932D01*
X125310989Y-127753989D01*
X125247412Y-127600500D01*
X125155112Y-127462364D01*
X125155107Y-127462358D01*
X125037641Y-127344892D01*
X125037635Y-127344887D01*
X124991799Y-127314260D01*
X124899500Y-127252588D01*
X124746011Y-127189011D01*
X124683907Y-127176657D01*
X124620999Y-127143750D01*
X124619396Y-127142174D01*
X124124343Y-126647121D01*
X147318500Y-126647121D01*
X147318500Y-128542864D01*
X147318502Y-128542885D01*
X147324908Y-128602480D01*
X147324908Y-128602481D01*
X147375203Y-128737330D01*
X147399278Y-128769491D01*
X147424089Y-128836011D01*
X147408998Y-128905385D01*
X147399278Y-128920509D01*
X147375203Y-128952669D01*
X147324909Y-129087515D01*
X147318500Y-129147121D01*
X147318500Y-131042864D01*
X147318502Y-131042885D01*
X147324908Y-131102480D01*
X147324908Y-131102481D01*
X147375201Y-131237326D01*
X147375203Y-131237329D01*
X147461453Y-131352546D01*
X147519061Y-131395671D01*
X147576669Y-131438796D01*
X147576671Y-131438796D01*
X147576673Y-131438798D01*
X147637030Y-131461309D01*
X147711514Y-131489090D01*
X147711517Y-131489091D01*
X147771127Y-131495500D01*
X150366872Y-131495499D01*
X150426483Y-131489091D01*
X150561331Y-131438796D01*
X150676546Y-131352546D01*
X150762796Y-131237331D01*
X150813091Y-131102483D01*
X150819500Y-131042873D01*
X150819499Y-130011230D01*
X153218500Y-130011230D01*
X153218500Y-130178769D01*
X153251185Y-130343085D01*
X153269964Y-130388420D01*
X153315297Y-130497863D01*
X153361835Y-130567512D01*
X153408373Y-130637161D01*
X153408378Y-130637167D01*
X153526832Y-130755621D01*
X153526838Y-130755626D01*
X153666137Y-130848703D01*
X153820918Y-130912816D01*
X153985233Y-130945500D01*
X153985234Y-130945500D01*
X154152766Y-130945500D01*
X154152767Y-130945500D01*
X154317082Y-130912816D01*
X154471863Y-130848703D01*
X154611162Y-130755626D01*
X154729626Y-130637162D01*
X154822703Y-130497863D01*
X154886816Y-130343082D01*
X154919500Y-130178767D01*
X154919500Y-130011233D01*
X154919499Y-130011230D01*
X155718500Y-130011230D01*
X155718500Y-130178769D01*
X155751185Y-130343085D01*
X155769964Y-130388420D01*
X155815297Y-130497863D01*
X155861835Y-130567512D01*
X155908373Y-130637161D01*
X155908378Y-130637167D01*
X156026832Y-130755621D01*
X156026838Y-130755626D01*
X156166137Y-130848703D01*
X156320918Y-130912816D01*
X156485233Y-130945500D01*
X156485234Y-130945500D01*
X156652766Y-130945500D01*
X156652767Y-130945500D01*
X156817082Y-130912816D01*
X156971863Y-130848703D01*
X157111162Y-130755626D01*
X157229626Y-130637162D01*
X157322703Y-130497863D01*
X157386816Y-130343082D01*
X157419500Y-130178767D01*
X157419500Y-130011233D01*
X157386816Y-129846918D01*
X157322703Y-129692137D01*
X157229626Y-129552838D01*
X157229621Y-129552832D01*
X157111167Y-129434378D01*
X157111161Y-129434373D01*
X156971864Y-129341298D01*
X156971865Y-129341298D01*
X156971863Y-129341297D01*
X156862420Y-129295964D01*
X156817085Y-129277185D01*
X156817083Y-129277184D01*
X156817082Y-129277184D01*
X156734368Y-129260731D01*
X156652769Y-129244500D01*
X156652767Y-129244500D01*
X156485233Y-129244500D01*
X156485230Y-129244500D01*
X156362830Y-129268847D01*
X156320918Y-129277184D01*
X156320917Y-129277184D01*
X156320914Y-129277185D01*
X156166135Y-129341298D01*
X156026838Y-129434373D01*
X156026832Y-129434378D01*
X155908378Y-129552832D01*
X155908373Y-129552838D01*
X155815298Y-129692135D01*
X155751185Y-129846914D01*
X155718500Y-130011230D01*
X154919499Y-130011230D01*
X154886816Y-129846918D01*
X154822703Y-129692137D01*
X154729626Y-129552838D01*
X154729621Y-129552832D01*
X154611167Y-129434378D01*
X154611161Y-129434373D01*
X154471864Y-129341298D01*
X154471865Y-129341298D01*
X154471863Y-129341297D01*
X154362420Y-129295964D01*
X154317085Y-129277185D01*
X154317083Y-129277184D01*
X154317082Y-129277184D01*
X154234368Y-129260731D01*
X154152769Y-129244500D01*
X154152767Y-129244500D01*
X153985233Y-129244500D01*
X153985230Y-129244500D01*
X153862830Y-129268847D01*
X153820918Y-129277184D01*
X153820917Y-129277184D01*
X153820914Y-129277185D01*
X153666135Y-129341298D01*
X153526838Y-129434373D01*
X153526832Y-129434378D01*
X153408378Y-129552832D01*
X153408373Y-129552838D01*
X153315298Y-129692135D01*
X153251185Y-129846914D01*
X153218500Y-130011230D01*
X150819499Y-130011230D01*
X150819499Y-129147128D01*
X150813091Y-129087517D01*
X150762796Y-128952669D01*
X150738721Y-128920509D01*
X150713909Y-128853992D01*
X150728999Y-128784618D01*
X150738716Y-128769497D01*
X150762796Y-128737331D01*
X150813091Y-128602483D01*
X150819500Y-128542873D01*
X150819499Y-126647128D01*
X150813091Y-126587517D01*
X150791800Y-126530435D01*
X150762798Y-126452673D01*
X150762796Y-126452670D01*
X150762796Y-126452669D01*
X150718566Y-126393585D01*
X150676546Y-126337453D01*
X150599591Y-126279845D01*
X150561331Y-126251204D01*
X150561329Y-126251203D01*
X150561326Y-126251201D01*
X150426483Y-126200909D01*
X150426486Y-126200909D01*
X150366878Y-126194500D01*
X147771135Y-126194500D01*
X147771114Y-126194502D01*
X147711519Y-126200908D01*
X147711518Y-126200908D01*
X147576673Y-126251201D01*
X147576670Y-126251203D01*
X147461453Y-126337453D01*
X147375203Y-126452670D01*
X147375201Y-126452673D01*
X147324909Y-126587515D01*
X147318500Y-126647121D01*
X124124343Y-126647121D01*
X122488453Y-125011230D01*
X148218500Y-125011230D01*
X148218500Y-125011233D01*
X148218500Y-125178767D01*
X148245078Y-125312387D01*
X148251185Y-125343085D01*
X148251550Y-125343966D01*
X148315297Y-125497863D01*
X148315298Y-125497864D01*
X148408373Y-125637161D01*
X148408378Y-125637167D01*
X148526832Y-125755621D01*
X148526838Y-125755626D01*
X148666137Y-125848703D01*
X148794357Y-125901814D01*
X148820915Y-125912815D01*
X148820916Y-125912815D01*
X148820918Y-125912816D01*
X148985233Y-125945500D01*
X149152767Y-125945500D01*
X149317082Y-125912816D01*
X149471863Y-125848703D01*
X149611162Y-125755626D01*
X149729626Y-125637162D01*
X149822703Y-125497863D01*
X149886816Y-125343082D01*
X149919500Y-125178767D01*
X149919500Y-125011233D01*
X149886816Y-124846918D01*
X149822703Y-124692137D01*
X149729626Y-124552838D01*
X149729621Y-124552832D01*
X149611167Y-124434378D01*
X149611161Y-124434373D01*
X149518201Y-124372259D01*
X149471863Y-124341297D01*
X149317082Y-124277184D01*
X149224963Y-124258860D01*
X149167846Y-124247499D01*
X149167844Y-124247499D01*
X149152767Y-124244500D01*
X148985233Y-124244500D01*
X148970156Y-124247499D01*
X148970152Y-124247499D01*
X148872157Y-124266991D01*
X148820918Y-124277184D01*
X148820916Y-124277184D01*
X148820915Y-124277185D01*
X148666135Y-124341298D01*
X148526838Y-124434373D01*
X148526832Y-124434378D01*
X148408378Y-124552832D01*
X148408373Y-124552838D01*
X148315298Y-124692135D01*
X148251185Y-124846914D01*
X148218500Y-125011230D01*
X122488453Y-125011230D01*
X121440494Y-123963271D01*
X121440488Y-123963266D01*
X121439138Y-123962364D01*
X121327311Y-123887644D01*
X121224089Y-123844888D01*
X121201560Y-123835556D01*
X121201557Y-123835555D01*
X121068061Y-123809000D01*
X121068058Y-123809000D01*
X121022148Y-123809000D01*
X120954027Y-123788998D01*
X120952146Y-123787765D01*
X120899500Y-123752588D01*
X120746016Y-123689013D01*
X120746011Y-123689011D01*
X120583070Y-123656600D01*
X120583068Y-123656600D01*
X120416932Y-123656600D01*
X120416929Y-123656600D01*
X120253988Y-123689011D01*
X120253983Y-123689013D01*
X120100500Y-123752588D01*
X119962364Y-123844887D01*
X119962358Y-123844892D01*
X119844892Y-123962358D01*
X119844887Y-123962364D01*
X119752588Y-124100500D01*
X119689013Y-124253983D01*
X119689011Y-124253988D01*
X119656600Y-124416929D01*
X65689844Y-124416929D01*
X65785126Y-124321647D01*
X68063407Y-122043367D01*
X70959653Y-119147121D01*
X147318500Y-119147121D01*
X147318500Y-121042864D01*
X147318502Y-121042885D01*
X147324908Y-121102480D01*
X147324908Y-121102481D01*
X147375203Y-121237330D01*
X147399278Y-121269491D01*
X147424089Y-121336011D01*
X147408998Y-121405385D01*
X147399278Y-121420509D01*
X147375203Y-121452669D01*
X147324909Y-121587515D01*
X147318500Y-121647121D01*
X147318500Y-123542864D01*
X147318502Y-123542885D01*
X147324908Y-123602480D01*
X147324908Y-123602481D01*
X147375201Y-123737326D01*
X147375203Y-123737329D01*
X147375204Y-123737331D01*
X147403845Y-123775591D01*
X147461453Y-123852546D01*
X147508339Y-123887644D01*
X147576669Y-123938796D01*
X147576671Y-123938796D01*
X147576673Y-123938798D01*
X147637030Y-123961309D01*
X147711514Y-123989090D01*
X147711517Y-123989091D01*
X147771127Y-123995500D01*
X150366872Y-123995499D01*
X150426483Y-123989091D01*
X150561331Y-123938796D01*
X150676546Y-123852546D01*
X150718575Y-123796402D01*
X152661000Y-123796402D01*
X152661000Y-124841000D01*
X153669000Y-124841000D01*
X153669000Y-125349000D01*
X152661000Y-125349000D01*
X152661000Y-126393597D01*
X152667505Y-126454093D01*
X152718555Y-126590964D01*
X152718555Y-126590965D01*
X152806095Y-126707904D01*
X152923034Y-126795444D01*
X153059906Y-126846494D01*
X153120402Y-126852999D01*
X153120415Y-126853000D01*
X153815000Y-126853000D01*
X153815000Y-125756686D01*
X153823394Y-125765080D01*
X153914606Y-125817741D01*
X154016339Y-125845000D01*
X154121661Y-125845000D01*
X154223394Y-125817741D01*
X154314606Y-125765080D01*
X154323000Y-125756686D01*
X154323000Y-126853000D01*
X155017585Y-126853000D01*
X155017597Y-126852999D01*
X155078093Y-126846494D01*
X155214964Y-126795444D01*
X155214965Y-126795444D01*
X155331904Y-126707904D01*
X155419444Y-126590965D01*
X155419444Y-126590964D01*
X155470494Y-126454093D01*
X155476999Y-126393597D01*
X155477000Y-126393585D01*
X155477000Y-125349000D01*
X154469000Y-125349000D01*
X154469000Y-124841000D01*
X155477000Y-124841000D01*
X155477000Y-123796414D01*
X155476999Y-123796402D01*
X155470494Y-123735906D01*
X155419444Y-123599035D01*
X155419444Y-123599034D01*
X155331904Y-123482095D01*
X155214965Y-123394555D01*
X155078093Y-123343505D01*
X155017597Y-123337000D01*
X154323000Y-123337000D01*
X154323000Y-124433314D01*
X154314606Y-124424920D01*
X154223394Y-124372259D01*
X154121661Y-124345000D01*
X154016339Y-124345000D01*
X153914606Y-124372259D01*
X153823394Y-124424920D01*
X153815000Y-124433314D01*
X153815000Y-123337000D01*
X153120402Y-123337000D01*
X153059906Y-123343505D01*
X152923035Y-123394555D01*
X152923034Y-123394555D01*
X152806095Y-123482095D01*
X152718555Y-123599034D01*
X152718555Y-123599035D01*
X152667505Y-123735906D01*
X152661000Y-123796402D01*
X150718575Y-123796402D01*
X150762796Y-123737331D01*
X150813091Y-123602483D01*
X150819500Y-123542873D01*
X150819499Y-121647128D01*
X150813091Y-121587517D01*
X150762796Y-121452669D01*
X150738721Y-121420509D01*
X150713909Y-121353992D01*
X150728999Y-121284618D01*
X150738716Y-121269497D01*
X150762796Y-121237331D01*
X150813091Y-121102483D01*
X150819500Y-121042873D01*
X150819499Y-120011230D01*
X153218500Y-120011230D01*
X153218500Y-120011233D01*
X153218500Y-120178767D01*
X153251184Y-120343082D01*
X153315297Y-120497863D01*
X153315298Y-120497864D01*
X153408373Y-120637161D01*
X153408378Y-120637167D01*
X153526832Y-120755621D01*
X153526838Y-120755626D01*
X153666137Y-120848703D01*
X153820918Y-120912816D01*
X153985233Y-120945500D01*
X153985234Y-120945500D01*
X154152766Y-120945500D01*
X154152767Y-120945500D01*
X154317082Y-120912816D01*
X154471863Y-120848703D01*
X154611162Y-120755626D01*
X154729626Y-120637162D01*
X154822703Y-120497863D01*
X154886816Y-120343082D01*
X154919500Y-120178767D01*
X154919500Y-120011233D01*
X154919499Y-120011230D01*
X155718500Y-120011230D01*
X155718500Y-120011233D01*
X155718500Y-120178767D01*
X155751184Y-120343082D01*
X155815297Y-120497863D01*
X155815298Y-120497864D01*
X155908373Y-120637161D01*
X155908378Y-120637167D01*
X156026832Y-120755621D01*
X156026838Y-120755626D01*
X156166137Y-120848703D01*
X156320918Y-120912816D01*
X156485233Y-120945500D01*
X156485234Y-120945500D01*
X156652766Y-120945500D01*
X156652767Y-120945500D01*
X156817082Y-120912816D01*
X156971863Y-120848703D01*
X157111162Y-120755626D01*
X157229626Y-120637162D01*
X157322703Y-120497863D01*
X157386816Y-120343082D01*
X157419500Y-120178767D01*
X157419500Y-120011233D01*
X157386816Y-119846918D01*
X157322703Y-119692137D01*
X157229626Y-119552838D01*
X157229621Y-119552832D01*
X157111167Y-119434378D01*
X157111161Y-119434373D01*
X156971864Y-119341298D01*
X156971865Y-119341298D01*
X156971863Y-119341297D01*
X156862420Y-119295964D01*
X156817085Y-119277185D01*
X156817083Y-119277184D01*
X156817082Y-119277184D01*
X156734368Y-119260731D01*
X156652769Y-119244500D01*
X156652767Y-119244500D01*
X156485233Y-119244500D01*
X156485230Y-119244500D01*
X156362830Y-119268847D01*
X156320918Y-119277184D01*
X156320917Y-119277184D01*
X156320914Y-119277185D01*
X156166135Y-119341298D01*
X156026838Y-119434373D01*
X156026832Y-119434378D01*
X155908378Y-119552832D01*
X155908373Y-119552838D01*
X155815298Y-119692135D01*
X155751185Y-119846914D01*
X155718500Y-120011230D01*
X154919499Y-120011230D01*
X154886816Y-119846918D01*
X154822703Y-119692137D01*
X154729626Y-119552838D01*
X154729621Y-119552832D01*
X154611167Y-119434378D01*
X154611161Y-119434373D01*
X154471864Y-119341298D01*
X154471865Y-119341298D01*
X154471863Y-119341297D01*
X154362420Y-119295964D01*
X154317085Y-119277185D01*
X154317083Y-119277184D01*
X154317082Y-119277184D01*
X154234368Y-119260731D01*
X154152769Y-119244500D01*
X154152767Y-119244500D01*
X153985233Y-119244500D01*
X153985230Y-119244500D01*
X153862830Y-119268847D01*
X153820918Y-119277184D01*
X153820917Y-119277184D01*
X153820914Y-119277185D01*
X153666135Y-119341298D01*
X153526838Y-119434373D01*
X153526832Y-119434378D01*
X153408378Y-119552832D01*
X153408373Y-119552838D01*
X153315298Y-119692135D01*
X153251185Y-119846914D01*
X153218500Y-120011230D01*
X150819499Y-120011230D01*
X150819499Y-119147128D01*
X150813091Y-119087517D01*
X150791800Y-119030435D01*
X150762798Y-118952673D01*
X150762796Y-118952670D01*
X150762796Y-118952669D01*
X150719671Y-118895061D01*
X150676546Y-118837453D01*
X150599591Y-118779845D01*
X150561331Y-118751204D01*
X150561329Y-118751203D01*
X150561326Y-118751201D01*
X150426483Y-118700909D01*
X150426486Y-118700909D01*
X150366873Y-118694500D01*
X147771135Y-118694500D01*
X147771114Y-118694502D01*
X147711519Y-118700908D01*
X147711518Y-118700908D01*
X147576673Y-118751201D01*
X147576670Y-118751203D01*
X147461453Y-118837453D01*
X147375203Y-118952670D01*
X147375201Y-118952673D01*
X147324909Y-119087515D01*
X147318500Y-119147121D01*
X70959653Y-119147121D01*
X75494369Y-114612405D01*
X75556681Y-114578379D01*
X75583464Y-114575500D01*
X154975469Y-114575500D01*
X154997404Y-114575500D01*
X155002611Y-114575608D01*
G37*
%TD.AperFunction*%
%TD*%
M02*
