%TF.GenerationSoftware,KiCad,Pcbnew,9.0.1+1*%
%TF.CreationDate,2025-10-05T23:07:08+00:00*%
%TF.ProjectId,rcbus-opl3,72636275-732d-46f7-906c-332e6b696361,@version@*%
%TF.SameCoordinates,Original*%
%TF.FileFunction,AssemblyDrawing,Top*%
%FSLAX46Y46*%
G04 Gerber Fmt 4.6, Leading zero omitted, Abs format (unit mm)*
G04 Created by KiCad (PCBNEW 9.0.1+1) date 2025-10-05 23:07:08*
%MOMM*%
%LPD*%
G01*
G04 APERTURE LIST*
%ADD10C,0.150000*%
%ADD11C,0.060000*%
%ADD12C,0.100000*%
G04 APERTURE END LIST*
D10*
X79357143Y-143384819D02*
X79452381Y-143384819D01*
X79452381Y-143384819D02*
X79547619Y-143432438D01*
X79547619Y-143432438D02*
X79595238Y-143480057D01*
X79595238Y-143480057D02*
X79642857Y-143575295D01*
X79642857Y-143575295D02*
X79690476Y-143765771D01*
X79690476Y-143765771D02*
X79690476Y-144003866D01*
X79690476Y-144003866D02*
X79642857Y-144194342D01*
X79642857Y-144194342D02*
X79595238Y-144289580D01*
X79595238Y-144289580D02*
X79547619Y-144337200D01*
X79547619Y-144337200D02*
X79452381Y-144384819D01*
X79452381Y-144384819D02*
X79357143Y-144384819D01*
X79357143Y-144384819D02*
X79261905Y-144337200D01*
X79261905Y-144337200D02*
X79214286Y-144289580D01*
X79214286Y-144289580D02*
X79166667Y-144194342D01*
X79166667Y-144194342D02*
X79119048Y-144003866D01*
X79119048Y-144003866D02*
X79119048Y-143765771D01*
X79119048Y-143765771D02*
X79166667Y-143575295D01*
X79166667Y-143575295D02*
X79214286Y-143480057D01*
X79214286Y-143480057D02*
X79261905Y-143432438D01*
X79261905Y-143432438D02*
X79357143Y-143384819D01*
X80119048Y-144289580D02*
X80166667Y-144337200D01*
X80166667Y-144337200D02*
X80119048Y-144384819D01*
X80119048Y-144384819D02*
X80071429Y-144337200D01*
X80071429Y-144337200D02*
X80119048Y-144289580D01*
X80119048Y-144289580D02*
X80119048Y-144384819D01*
X81119047Y-144384819D02*
X80547619Y-144384819D01*
X80833333Y-144384819D02*
X80833333Y-143384819D01*
X80833333Y-143384819D02*
X80738095Y-143527676D01*
X80738095Y-143527676D02*
X80642857Y-143622914D01*
X80642857Y-143622914D02*
X80547619Y-143670533D01*
X81976190Y-143718152D02*
X81976190Y-144384819D01*
X81547619Y-143718152D02*
X81547619Y-144241961D01*
X81547619Y-144241961D02*
X81595238Y-144337200D01*
X81595238Y-144337200D02*
X81690476Y-144384819D01*
X81690476Y-144384819D02*
X81833333Y-144384819D01*
X81833333Y-144384819D02*
X81928571Y-144337200D01*
X81928571Y-144337200D02*
X81976190Y-144289580D01*
X82785714Y-143861009D02*
X82452381Y-143861009D01*
X82452381Y-144384819D02*
X82452381Y-143384819D01*
X82452381Y-143384819D02*
X82928571Y-143384819D01*
D11*
X80933333Y-142643832D02*
X80914285Y-142662880D01*
X80914285Y-142662880D02*
X80857143Y-142681927D01*
X80857143Y-142681927D02*
X80819047Y-142681927D01*
X80819047Y-142681927D02*
X80761904Y-142662880D01*
X80761904Y-142662880D02*
X80723809Y-142624784D01*
X80723809Y-142624784D02*
X80704762Y-142586689D01*
X80704762Y-142586689D02*
X80685714Y-142510499D01*
X80685714Y-142510499D02*
X80685714Y-142453356D01*
X80685714Y-142453356D02*
X80704762Y-142377165D01*
X80704762Y-142377165D02*
X80723809Y-142339070D01*
X80723809Y-142339070D02*
X80761904Y-142300975D01*
X80761904Y-142300975D02*
X80819047Y-142281927D01*
X80819047Y-142281927D02*
X80857143Y-142281927D01*
X80857143Y-142281927D02*
X80914285Y-142300975D01*
X80914285Y-142300975D02*
X80933333Y-142320022D01*
X81314285Y-142681927D02*
X81085714Y-142681927D01*
X81200000Y-142681927D02*
X81200000Y-142281927D01*
X81200000Y-142281927D02*
X81161904Y-142339070D01*
X81161904Y-142339070D02*
X81123809Y-142377165D01*
X81123809Y-142377165D02*
X81085714Y-142396213D01*
D10*
X116682143Y-139724819D02*
X116777381Y-139724819D01*
X116777381Y-139724819D02*
X116872619Y-139772438D01*
X116872619Y-139772438D02*
X116920238Y-139820057D01*
X116920238Y-139820057D02*
X116967857Y-139915295D01*
X116967857Y-139915295D02*
X117015476Y-140105771D01*
X117015476Y-140105771D02*
X117015476Y-140343866D01*
X117015476Y-140343866D02*
X116967857Y-140534342D01*
X116967857Y-140534342D02*
X116920238Y-140629580D01*
X116920238Y-140629580D02*
X116872619Y-140677200D01*
X116872619Y-140677200D02*
X116777381Y-140724819D01*
X116777381Y-140724819D02*
X116682143Y-140724819D01*
X116682143Y-140724819D02*
X116586905Y-140677200D01*
X116586905Y-140677200D02*
X116539286Y-140629580D01*
X116539286Y-140629580D02*
X116491667Y-140534342D01*
X116491667Y-140534342D02*
X116444048Y-140343866D01*
X116444048Y-140343866D02*
X116444048Y-140105771D01*
X116444048Y-140105771D02*
X116491667Y-139915295D01*
X116491667Y-139915295D02*
X116539286Y-139820057D01*
X116539286Y-139820057D02*
X116586905Y-139772438D01*
X116586905Y-139772438D02*
X116682143Y-139724819D01*
X117444048Y-140629580D02*
X117491667Y-140677200D01*
X117491667Y-140677200D02*
X117444048Y-140724819D01*
X117444048Y-140724819D02*
X117396429Y-140677200D01*
X117396429Y-140677200D02*
X117444048Y-140629580D01*
X117444048Y-140629580D02*
X117444048Y-140724819D01*
X118444047Y-140724819D02*
X117872619Y-140724819D01*
X118158333Y-140724819D02*
X118158333Y-139724819D01*
X118158333Y-139724819D02*
X118063095Y-139867676D01*
X118063095Y-139867676D02*
X117967857Y-139962914D01*
X117967857Y-139962914D02*
X117872619Y-140010533D01*
X119301190Y-140058152D02*
X119301190Y-140724819D01*
X118872619Y-140058152D02*
X118872619Y-140581961D01*
X118872619Y-140581961D02*
X118920238Y-140677200D01*
X118920238Y-140677200D02*
X119015476Y-140724819D01*
X119015476Y-140724819D02*
X119158333Y-140724819D01*
X119158333Y-140724819D02*
X119253571Y-140677200D01*
X119253571Y-140677200D02*
X119301190Y-140629580D01*
X120110714Y-140201009D02*
X119777381Y-140201009D01*
X119777381Y-140724819D02*
X119777381Y-139724819D01*
X119777381Y-139724819D02*
X120253571Y-139724819D01*
D11*
X118258333Y-141843832D02*
X118239285Y-141862880D01*
X118239285Y-141862880D02*
X118182143Y-141881927D01*
X118182143Y-141881927D02*
X118144047Y-141881927D01*
X118144047Y-141881927D02*
X118086904Y-141862880D01*
X118086904Y-141862880D02*
X118048809Y-141824784D01*
X118048809Y-141824784D02*
X118029762Y-141786689D01*
X118029762Y-141786689D02*
X118010714Y-141710499D01*
X118010714Y-141710499D02*
X118010714Y-141653356D01*
X118010714Y-141653356D02*
X118029762Y-141577165D01*
X118029762Y-141577165D02*
X118048809Y-141539070D01*
X118048809Y-141539070D02*
X118086904Y-141500975D01*
X118086904Y-141500975D02*
X118144047Y-141481927D01*
X118144047Y-141481927D02*
X118182143Y-141481927D01*
X118182143Y-141481927D02*
X118239285Y-141500975D01*
X118239285Y-141500975D02*
X118258333Y-141520022D01*
X118391666Y-141481927D02*
X118658333Y-141481927D01*
X118658333Y-141481927D02*
X118486904Y-141881927D01*
D10*
X148533286Y-117549819D02*
X149152333Y-117549819D01*
X149152333Y-117549819D02*
X148819000Y-117930771D01*
X148819000Y-117930771D02*
X148961857Y-117930771D01*
X148961857Y-117930771D02*
X149057095Y-117978390D01*
X149057095Y-117978390D02*
X149104714Y-118026009D01*
X149104714Y-118026009D02*
X149152333Y-118121247D01*
X149152333Y-118121247D02*
X149152333Y-118359342D01*
X149152333Y-118359342D02*
X149104714Y-118454580D01*
X149104714Y-118454580D02*
X149057095Y-118502200D01*
X149057095Y-118502200D02*
X148961857Y-118549819D01*
X148961857Y-118549819D02*
X148676143Y-118549819D01*
X148676143Y-118549819D02*
X148580905Y-118502200D01*
X148580905Y-118502200D02*
X148533286Y-118454580D01*
X149580905Y-118454580D02*
X149628524Y-118502200D01*
X149628524Y-118502200D02*
X149580905Y-118549819D01*
X149580905Y-118549819D02*
X149533286Y-118502200D01*
X149533286Y-118502200D02*
X149580905Y-118454580D01*
X149580905Y-118454580D02*
X149580905Y-118549819D01*
X150533285Y-117549819D02*
X150057095Y-117549819D01*
X150057095Y-117549819D02*
X150009476Y-118026009D01*
X150009476Y-118026009D02*
X150057095Y-117978390D01*
X150057095Y-117978390D02*
X150152333Y-117930771D01*
X150152333Y-117930771D02*
X150390428Y-117930771D01*
X150390428Y-117930771D02*
X150485666Y-117978390D01*
X150485666Y-117978390D02*
X150533285Y-118026009D01*
X150533285Y-118026009D02*
X150580904Y-118121247D01*
X150580904Y-118121247D02*
X150580904Y-118359342D01*
X150580904Y-118359342D02*
X150533285Y-118454580D01*
X150533285Y-118454580D02*
X150485666Y-118502200D01*
X150485666Y-118502200D02*
X150390428Y-118549819D01*
X150390428Y-118549819D02*
X150152333Y-118549819D01*
X150152333Y-118549819D02*
X150057095Y-118502200D01*
X150057095Y-118502200D02*
X150009476Y-118454580D01*
X151009476Y-118549819D02*
X151009476Y-117883152D01*
X151009476Y-117978390D02*
X151057095Y-117930771D01*
X151057095Y-117930771D02*
X151152333Y-117883152D01*
X151152333Y-117883152D02*
X151295190Y-117883152D01*
X151295190Y-117883152D02*
X151390428Y-117930771D01*
X151390428Y-117930771D02*
X151438047Y-118026009D01*
X151438047Y-118026009D02*
X151438047Y-118549819D01*
X151438047Y-118026009D02*
X151485666Y-117930771D01*
X151485666Y-117930771D02*
X151580904Y-117883152D01*
X151580904Y-117883152D02*
X151723761Y-117883152D01*
X151723761Y-117883152D02*
X151819000Y-117930771D01*
X151819000Y-117930771D02*
X151866619Y-118026009D01*
X151866619Y-118026009D02*
X151866619Y-118549819D01*
X152342809Y-118549819D02*
X152342809Y-117883152D01*
X152342809Y-117978390D02*
X152390428Y-117930771D01*
X152390428Y-117930771D02*
X152485666Y-117883152D01*
X152485666Y-117883152D02*
X152628523Y-117883152D01*
X152628523Y-117883152D02*
X152723761Y-117930771D01*
X152723761Y-117930771D02*
X152771380Y-118026009D01*
X152771380Y-118026009D02*
X152771380Y-118549819D01*
X152771380Y-118026009D02*
X152818999Y-117930771D01*
X152818999Y-117930771D02*
X152914237Y-117883152D01*
X152914237Y-117883152D02*
X153057094Y-117883152D01*
X153057094Y-117883152D02*
X153152333Y-117930771D01*
X153152333Y-117930771D02*
X153199952Y-118026009D01*
X153199952Y-118026009D02*
X153199952Y-118549819D01*
X154438047Y-117883152D02*
X154438047Y-118740295D01*
X154438047Y-118740295D02*
X154390428Y-118835533D01*
X154390428Y-118835533D02*
X154295190Y-118883152D01*
X154295190Y-118883152D02*
X154247571Y-118883152D01*
X154438047Y-117549819D02*
X154390428Y-117597438D01*
X154390428Y-117597438D02*
X154438047Y-117645057D01*
X154438047Y-117645057D02*
X154485666Y-117597438D01*
X154485666Y-117597438D02*
X154438047Y-117549819D01*
X154438047Y-117549819D02*
X154438047Y-117645057D01*
X155342808Y-118549819D02*
X155342808Y-118026009D01*
X155342808Y-118026009D02*
X155295189Y-117930771D01*
X155295189Y-117930771D02*
X155199951Y-117883152D01*
X155199951Y-117883152D02*
X155009475Y-117883152D01*
X155009475Y-117883152D02*
X154914237Y-117930771D01*
X155342808Y-118502200D02*
X155247570Y-118549819D01*
X155247570Y-118549819D02*
X155009475Y-118549819D01*
X155009475Y-118549819D02*
X154914237Y-118502200D01*
X154914237Y-118502200D02*
X154866618Y-118406961D01*
X154866618Y-118406961D02*
X154866618Y-118311723D01*
X154866618Y-118311723D02*
X154914237Y-118216485D01*
X154914237Y-118216485D02*
X155009475Y-118168866D01*
X155009475Y-118168866D02*
X155247570Y-118168866D01*
X155247570Y-118168866D02*
X155342808Y-118121247D01*
X156247570Y-118502200D02*
X156152332Y-118549819D01*
X156152332Y-118549819D02*
X155961856Y-118549819D01*
X155961856Y-118549819D02*
X155866618Y-118502200D01*
X155866618Y-118502200D02*
X155818999Y-118454580D01*
X155818999Y-118454580D02*
X155771380Y-118359342D01*
X155771380Y-118359342D02*
X155771380Y-118073628D01*
X155771380Y-118073628D02*
X155818999Y-117978390D01*
X155818999Y-117978390D02*
X155866618Y-117930771D01*
X155866618Y-117930771D02*
X155961856Y-117883152D01*
X155961856Y-117883152D02*
X156152332Y-117883152D01*
X156152332Y-117883152D02*
X156247570Y-117930771D01*
X156676142Y-118549819D02*
X156676142Y-117549819D01*
X156771380Y-118168866D02*
X157057094Y-118549819D01*
X157057094Y-117883152D02*
X156676142Y-118264104D01*
X155604714Y-125954580D02*
X155557095Y-126002200D01*
X155557095Y-126002200D02*
X155414238Y-126049819D01*
X155414238Y-126049819D02*
X155319000Y-126049819D01*
X155319000Y-126049819D02*
X155176143Y-126002200D01*
X155176143Y-126002200D02*
X155080905Y-125906961D01*
X155080905Y-125906961D02*
X155033286Y-125811723D01*
X155033286Y-125811723D02*
X154985667Y-125621247D01*
X154985667Y-125621247D02*
X154985667Y-125478390D01*
X154985667Y-125478390D02*
X155033286Y-125287914D01*
X155033286Y-125287914D02*
X155080905Y-125192676D01*
X155080905Y-125192676D02*
X155176143Y-125097438D01*
X155176143Y-125097438D02*
X155319000Y-125049819D01*
X155319000Y-125049819D02*
X155414238Y-125049819D01*
X155414238Y-125049819D02*
X155557095Y-125097438D01*
X155557095Y-125097438D02*
X155604714Y-125145057D01*
X156223762Y-125049819D02*
X156414238Y-125049819D01*
X156414238Y-125049819D02*
X156509476Y-125097438D01*
X156509476Y-125097438D02*
X156604714Y-125192676D01*
X156604714Y-125192676D02*
X156652333Y-125383152D01*
X156652333Y-125383152D02*
X156652333Y-125716485D01*
X156652333Y-125716485D02*
X156604714Y-125906961D01*
X156604714Y-125906961D02*
X156509476Y-126002200D01*
X156509476Y-126002200D02*
X156414238Y-126049819D01*
X156414238Y-126049819D02*
X156223762Y-126049819D01*
X156223762Y-126049819D02*
X156128524Y-126002200D01*
X156128524Y-126002200D02*
X156033286Y-125906961D01*
X156033286Y-125906961D02*
X155985667Y-125716485D01*
X155985667Y-125716485D02*
X155985667Y-125383152D01*
X155985667Y-125383152D02*
X156033286Y-125192676D01*
X156033286Y-125192676D02*
X156128524Y-125097438D01*
X156128524Y-125097438D02*
X156223762Y-125049819D01*
X157080905Y-126049819D02*
X157080905Y-125049819D01*
X157080905Y-125049819D02*
X157652333Y-126049819D01*
X157652333Y-126049819D02*
X157652333Y-125049819D01*
X158652333Y-126049819D02*
X158080905Y-126049819D01*
X158366619Y-126049819D02*
X158366619Y-125049819D01*
X158366619Y-125049819D02*
X158271381Y-125192676D01*
X158271381Y-125192676D02*
X158176143Y-125287914D01*
X158176143Y-125287914D02*
X158080905Y-125335533D01*
X57929999Y-139111009D02*
X58072856Y-139158628D01*
X58072856Y-139158628D02*
X58120475Y-139206247D01*
X58120475Y-139206247D02*
X58168094Y-139301485D01*
X58168094Y-139301485D02*
X58168094Y-139444342D01*
X58168094Y-139444342D02*
X58120475Y-139539580D01*
X58120475Y-139539580D02*
X58072856Y-139587200D01*
X58072856Y-139587200D02*
X57977618Y-139634819D01*
X57977618Y-139634819D02*
X57596666Y-139634819D01*
X57596666Y-139634819D02*
X57596666Y-138634819D01*
X57596666Y-138634819D02*
X57929999Y-138634819D01*
X57929999Y-138634819D02*
X58025237Y-138682438D01*
X58025237Y-138682438D02*
X58072856Y-138730057D01*
X58072856Y-138730057D02*
X58120475Y-138825295D01*
X58120475Y-138825295D02*
X58120475Y-138920533D01*
X58120475Y-138920533D02*
X58072856Y-139015771D01*
X58072856Y-139015771D02*
X58025237Y-139063390D01*
X58025237Y-139063390D02*
X57929999Y-139111009D01*
X57929999Y-139111009D02*
X57596666Y-139111009D01*
X58549047Y-139349104D02*
X59025237Y-139349104D01*
X58453809Y-139634819D02*
X58787142Y-138634819D01*
X58787142Y-138634819D02*
X59120475Y-139634819D01*
X59406190Y-139587200D02*
X59549047Y-139634819D01*
X59549047Y-139634819D02*
X59787142Y-139634819D01*
X59787142Y-139634819D02*
X59882380Y-139587200D01*
X59882380Y-139587200D02*
X59929999Y-139539580D01*
X59929999Y-139539580D02*
X59977618Y-139444342D01*
X59977618Y-139444342D02*
X59977618Y-139349104D01*
X59977618Y-139349104D02*
X59929999Y-139253866D01*
X59929999Y-139253866D02*
X59882380Y-139206247D01*
X59882380Y-139206247D02*
X59787142Y-139158628D01*
X59787142Y-139158628D02*
X59596666Y-139111009D01*
X59596666Y-139111009D02*
X59501428Y-139063390D01*
X59501428Y-139063390D02*
X59453809Y-139015771D01*
X59453809Y-139015771D02*
X59406190Y-138920533D01*
X59406190Y-138920533D02*
X59406190Y-138825295D01*
X59406190Y-138825295D02*
X59453809Y-138730057D01*
X59453809Y-138730057D02*
X59501428Y-138682438D01*
X59501428Y-138682438D02*
X59596666Y-138634819D01*
X59596666Y-138634819D02*
X59834761Y-138634819D01*
X59834761Y-138634819D02*
X59977618Y-138682438D01*
X60406190Y-139111009D02*
X60739523Y-139111009D01*
X60882380Y-139634819D02*
X60406190Y-139634819D01*
X60406190Y-139634819D02*
X60406190Y-138634819D01*
X60406190Y-138634819D02*
X60882380Y-138634819D01*
X62025238Y-139349104D02*
X62501428Y-139349104D01*
X61930000Y-139634819D02*
X62263333Y-138634819D01*
X62263333Y-138634819D02*
X62596666Y-139634819D01*
X62930000Y-139634819D02*
X62930000Y-138634819D01*
X62930000Y-138634819D02*
X63168095Y-138634819D01*
X63168095Y-138634819D02*
X63310952Y-138682438D01*
X63310952Y-138682438D02*
X63406190Y-138777676D01*
X63406190Y-138777676D02*
X63453809Y-138872914D01*
X63453809Y-138872914D02*
X63501428Y-139063390D01*
X63501428Y-139063390D02*
X63501428Y-139206247D01*
X63501428Y-139206247D02*
X63453809Y-139396723D01*
X63453809Y-139396723D02*
X63406190Y-139491961D01*
X63406190Y-139491961D02*
X63310952Y-139587200D01*
X63310952Y-139587200D02*
X63168095Y-139634819D01*
X63168095Y-139634819D02*
X62930000Y-139634819D01*
X63930000Y-139634819D02*
X63930000Y-138634819D01*
X63930000Y-138634819D02*
X64168095Y-138634819D01*
X64168095Y-138634819D02*
X64310952Y-138682438D01*
X64310952Y-138682438D02*
X64406190Y-138777676D01*
X64406190Y-138777676D02*
X64453809Y-138872914D01*
X64453809Y-138872914D02*
X64501428Y-139063390D01*
X64501428Y-139063390D02*
X64501428Y-139206247D01*
X64501428Y-139206247D02*
X64453809Y-139396723D01*
X64453809Y-139396723D02*
X64406190Y-139491961D01*
X64406190Y-139491961D02*
X64310952Y-139587200D01*
X64310952Y-139587200D02*
X64168095Y-139634819D01*
X64168095Y-139634819D02*
X63930000Y-139634819D01*
X65501428Y-139634819D02*
X65168095Y-139158628D01*
X64930000Y-139634819D02*
X64930000Y-138634819D01*
X64930000Y-138634819D02*
X65310952Y-138634819D01*
X65310952Y-138634819D02*
X65406190Y-138682438D01*
X65406190Y-138682438D02*
X65453809Y-138730057D01*
X65453809Y-138730057D02*
X65501428Y-138825295D01*
X65501428Y-138825295D02*
X65501428Y-138968152D01*
X65501428Y-138968152D02*
X65453809Y-139063390D01*
X65453809Y-139063390D02*
X65406190Y-139111009D01*
X65406190Y-139111009D02*
X65310952Y-139158628D01*
X65310952Y-139158628D02*
X64930000Y-139158628D01*
X65930000Y-139111009D02*
X66263333Y-139111009D01*
X66406190Y-139634819D02*
X65930000Y-139634819D01*
X65930000Y-139634819D02*
X65930000Y-138634819D01*
X65930000Y-138634819D02*
X66406190Y-138634819D01*
X66787143Y-139587200D02*
X66930000Y-139634819D01*
X66930000Y-139634819D02*
X67168095Y-139634819D01*
X67168095Y-139634819D02*
X67263333Y-139587200D01*
X67263333Y-139587200D02*
X67310952Y-139539580D01*
X67310952Y-139539580D02*
X67358571Y-139444342D01*
X67358571Y-139444342D02*
X67358571Y-139349104D01*
X67358571Y-139349104D02*
X67310952Y-139253866D01*
X67310952Y-139253866D02*
X67263333Y-139206247D01*
X67263333Y-139206247D02*
X67168095Y-139158628D01*
X67168095Y-139158628D02*
X66977619Y-139111009D01*
X66977619Y-139111009D02*
X66882381Y-139063390D01*
X66882381Y-139063390D02*
X66834762Y-139015771D01*
X66834762Y-139015771D02*
X66787143Y-138920533D01*
X66787143Y-138920533D02*
X66787143Y-138825295D01*
X66787143Y-138825295D02*
X66834762Y-138730057D01*
X66834762Y-138730057D02*
X66882381Y-138682438D01*
X66882381Y-138682438D02*
X66977619Y-138634819D01*
X66977619Y-138634819D02*
X67215714Y-138634819D01*
X67215714Y-138634819D02*
X67358571Y-138682438D01*
X67739524Y-139587200D02*
X67882381Y-139634819D01*
X67882381Y-139634819D02*
X68120476Y-139634819D01*
X68120476Y-139634819D02*
X68215714Y-139587200D01*
X68215714Y-139587200D02*
X68263333Y-139539580D01*
X68263333Y-139539580D02*
X68310952Y-139444342D01*
X68310952Y-139444342D02*
X68310952Y-139349104D01*
X68310952Y-139349104D02*
X68263333Y-139253866D01*
X68263333Y-139253866D02*
X68215714Y-139206247D01*
X68215714Y-139206247D02*
X68120476Y-139158628D01*
X68120476Y-139158628D02*
X67930000Y-139111009D01*
X67930000Y-139111009D02*
X67834762Y-139063390D01*
X67834762Y-139063390D02*
X67787143Y-139015771D01*
X67787143Y-139015771D02*
X67739524Y-138920533D01*
X67739524Y-138920533D02*
X67739524Y-138825295D01*
X67739524Y-138825295D02*
X67787143Y-138730057D01*
X67787143Y-138730057D02*
X67834762Y-138682438D01*
X67834762Y-138682438D02*
X67930000Y-138634819D01*
X67930000Y-138634819D02*
X68168095Y-138634819D01*
X68168095Y-138634819D02*
X68310952Y-138682438D01*
X63184819Y-148643333D02*
X63899104Y-148643333D01*
X63899104Y-148643333D02*
X64041961Y-148690952D01*
X64041961Y-148690952D02*
X64137200Y-148786190D01*
X64137200Y-148786190D02*
X64184819Y-148929047D01*
X64184819Y-148929047D02*
X64184819Y-149024285D01*
X64184819Y-148167142D02*
X63184819Y-148167142D01*
X63184819Y-148167142D02*
X63184819Y-147786190D01*
X63184819Y-147786190D02*
X63232438Y-147690952D01*
X63232438Y-147690952D02*
X63280057Y-147643333D01*
X63280057Y-147643333D02*
X63375295Y-147595714D01*
X63375295Y-147595714D02*
X63518152Y-147595714D01*
X63518152Y-147595714D02*
X63613390Y-147643333D01*
X63613390Y-147643333D02*
X63661009Y-147690952D01*
X63661009Y-147690952D02*
X63708628Y-147786190D01*
X63708628Y-147786190D02*
X63708628Y-148167142D01*
X64184819Y-146643333D02*
X64184819Y-147214761D01*
X64184819Y-146929047D02*
X63184819Y-146929047D01*
X63184819Y-146929047D02*
X63327676Y-147024285D01*
X63327676Y-147024285D02*
X63422914Y-147119523D01*
X63422914Y-147119523D02*
X63470533Y-147214761D01*
X60246285Y-136536819D02*
X60246285Y-135536819D01*
X60246285Y-135536819D02*
X60579618Y-136251104D01*
X60579618Y-136251104D02*
X60912951Y-135536819D01*
X60912951Y-135536819D02*
X60912951Y-136536819D01*
X61531999Y-136536819D02*
X61436761Y-136489200D01*
X61436761Y-136489200D02*
X61389142Y-136441580D01*
X61389142Y-136441580D02*
X61341523Y-136346342D01*
X61341523Y-136346342D02*
X61341523Y-136060628D01*
X61341523Y-136060628D02*
X61389142Y-135965390D01*
X61389142Y-135965390D02*
X61436761Y-135917771D01*
X61436761Y-135917771D02*
X61531999Y-135870152D01*
X61531999Y-135870152D02*
X61674856Y-135870152D01*
X61674856Y-135870152D02*
X61770094Y-135917771D01*
X61770094Y-135917771D02*
X61817713Y-135965390D01*
X61817713Y-135965390D02*
X61865332Y-136060628D01*
X61865332Y-136060628D02*
X61865332Y-136346342D01*
X61865332Y-136346342D02*
X61817713Y-136441580D01*
X61817713Y-136441580D02*
X61770094Y-136489200D01*
X61770094Y-136489200D02*
X61674856Y-136536819D01*
X61674856Y-136536819D02*
X61531999Y-136536819D01*
X62722475Y-135870152D02*
X62722475Y-136536819D01*
X62293904Y-135870152D02*
X62293904Y-136393961D01*
X62293904Y-136393961D02*
X62341523Y-136489200D01*
X62341523Y-136489200D02*
X62436761Y-136536819D01*
X62436761Y-136536819D02*
X62579618Y-136536819D01*
X62579618Y-136536819D02*
X62674856Y-136489200D01*
X62674856Y-136489200D02*
X62722475Y-136441580D01*
X63198666Y-135870152D02*
X63198666Y-136536819D01*
X63198666Y-135965390D02*
X63246285Y-135917771D01*
X63246285Y-135917771D02*
X63341523Y-135870152D01*
X63341523Y-135870152D02*
X63484380Y-135870152D01*
X63484380Y-135870152D02*
X63579618Y-135917771D01*
X63579618Y-135917771D02*
X63627237Y-136013009D01*
X63627237Y-136013009D02*
X63627237Y-136536819D01*
X63960571Y-135870152D02*
X64341523Y-135870152D01*
X64103428Y-135536819D02*
X64103428Y-136393961D01*
X64103428Y-136393961D02*
X64151047Y-136489200D01*
X64151047Y-136489200D02*
X64246285Y-136536819D01*
X64246285Y-136536819D02*
X64341523Y-136536819D01*
X64674857Y-136536819D02*
X64674857Y-135870152D01*
X64674857Y-135536819D02*
X64627238Y-135584438D01*
X64627238Y-135584438D02*
X64674857Y-135632057D01*
X64674857Y-135632057D02*
X64722476Y-135584438D01*
X64722476Y-135584438D02*
X64674857Y-135536819D01*
X64674857Y-135536819D02*
X64674857Y-135632057D01*
X65151047Y-135870152D02*
X65151047Y-136536819D01*
X65151047Y-135965390D02*
X65198666Y-135917771D01*
X65198666Y-135917771D02*
X65293904Y-135870152D01*
X65293904Y-135870152D02*
X65436761Y-135870152D01*
X65436761Y-135870152D02*
X65531999Y-135917771D01*
X65531999Y-135917771D02*
X65579618Y-136013009D01*
X65579618Y-136013009D02*
X65579618Y-136536819D01*
X66484380Y-135870152D02*
X66484380Y-136679676D01*
X66484380Y-136679676D02*
X66436761Y-136774914D01*
X66436761Y-136774914D02*
X66389142Y-136822533D01*
X66389142Y-136822533D02*
X66293904Y-136870152D01*
X66293904Y-136870152D02*
X66151047Y-136870152D01*
X66151047Y-136870152D02*
X66055809Y-136822533D01*
X66484380Y-136489200D02*
X66389142Y-136536819D01*
X66389142Y-136536819D02*
X66198666Y-136536819D01*
X66198666Y-136536819D02*
X66103428Y-136489200D01*
X66103428Y-136489200D02*
X66055809Y-136441580D01*
X66055809Y-136441580D02*
X66008190Y-136346342D01*
X66008190Y-136346342D02*
X66008190Y-136060628D01*
X66008190Y-136060628D02*
X66055809Y-135965390D01*
X66055809Y-135965390D02*
X66103428Y-135917771D01*
X66103428Y-135917771D02*
X66198666Y-135870152D01*
X66198666Y-135870152D02*
X66389142Y-135870152D01*
X66389142Y-135870152D02*
X66484380Y-135917771D01*
X66960571Y-136536819D02*
X66960571Y-135536819D01*
X66960571Y-136013009D02*
X67531999Y-136013009D01*
X67531999Y-136536819D02*
X67531999Y-135536819D01*
X68151047Y-136536819D02*
X68055809Y-136489200D01*
X68055809Y-136489200D02*
X68008190Y-136441580D01*
X68008190Y-136441580D02*
X67960571Y-136346342D01*
X67960571Y-136346342D02*
X67960571Y-136060628D01*
X67960571Y-136060628D02*
X68008190Y-135965390D01*
X68008190Y-135965390D02*
X68055809Y-135917771D01*
X68055809Y-135917771D02*
X68151047Y-135870152D01*
X68151047Y-135870152D02*
X68293904Y-135870152D01*
X68293904Y-135870152D02*
X68389142Y-135917771D01*
X68389142Y-135917771D02*
X68436761Y-135965390D01*
X68436761Y-135965390D02*
X68484380Y-136060628D01*
X68484380Y-136060628D02*
X68484380Y-136346342D01*
X68484380Y-136346342D02*
X68436761Y-136441580D01*
X68436761Y-136441580D02*
X68389142Y-136489200D01*
X68389142Y-136489200D02*
X68293904Y-136536819D01*
X68293904Y-136536819D02*
X68151047Y-136536819D01*
X69055809Y-136536819D02*
X68960571Y-136489200D01*
X68960571Y-136489200D02*
X68912952Y-136393961D01*
X68912952Y-136393961D02*
X68912952Y-135536819D01*
X69817714Y-136489200D02*
X69722476Y-136536819D01*
X69722476Y-136536819D02*
X69532000Y-136536819D01*
X69532000Y-136536819D02*
X69436762Y-136489200D01*
X69436762Y-136489200D02*
X69389143Y-136393961D01*
X69389143Y-136393961D02*
X69389143Y-136013009D01*
X69389143Y-136013009D02*
X69436762Y-135917771D01*
X69436762Y-135917771D02*
X69532000Y-135870152D01*
X69532000Y-135870152D02*
X69722476Y-135870152D01*
X69722476Y-135870152D02*
X69817714Y-135917771D01*
X69817714Y-135917771D02*
X69865333Y-136013009D01*
X69865333Y-136013009D02*
X69865333Y-136108247D01*
X69865333Y-136108247D02*
X69389143Y-136203485D01*
X64570095Y-132336819D02*
X64570095Y-131336819D01*
X64570095Y-131813009D02*
X65141523Y-131813009D01*
X65141523Y-132336819D02*
X65141523Y-131336819D01*
X66141523Y-132336819D02*
X65570095Y-132336819D01*
X65855809Y-132336819D02*
X65855809Y-131336819D01*
X65855809Y-131336819D02*
X65760571Y-131479676D01*
X65760571Y-131479676D02*
X65665333Y-131574914D01*
X65665333Y-131574914D02*
X65570095Y-131622533D01*
X61023809Y-166704819D02*
X60690476Y-166228628D01*
X60452381Y-166704819D02*
X60452381Y-165704819D01*
X60452381Y-165704819D02*
X60833333Y-165704819D01*
X60833333Y-165704819D02*
X60928571Y-165752438D01*
X60928571Y-165752438D02*
X60976190Y-165800057D01*
X60976190Y-165800057D02*
X61023809Y-165895295D01*
X61023809Y-165895295D02*
X61023809Y-166038152D01*
X61023809Y-166038152D02*
X60976190Y-166133390D01*
X60976190Y-166133390D02*
X60928571Y-166181009D01*
X60928571Y-166181009D02*
X60833333Y-166228628D01*
X60833333Y-166228628D02*
X60452381Y-166228628D01*
X62023809Y-166609580D02*
X61976190Y-166657200D01*
X61976190Y-166657200D02*
X61833333Y-166704819D01*
X61833333Y-166704819D02*
X61738095Y-166704819D01*
X61738095Y-166704819D02*
X61595238Y-166657200D01*
X61595238Y-166657200D02*
X61500000Y-166561961D01*
X61500000Y-166561961D02*
X61452381Y-166466723D01*
X61452381Y-166466723D02*
X61404762Y-166276247D01*
X61404762Y-166276247D02*
X61404762Y-166133390D01*
X61404762Y-166133390D02*
X61452381Y-165942914D01*
X61452381Y-165942914D02*
X61500000Y-165847676D01*
X61500000Y-165847676D02*
X61595238Y-165752438D01*
X61595238Y-165752438D02*
X61738095Y-165704819D01*
X61738095Y-165704819D02*
X61833333Y-165704819D01*
X61833333Y-165704819D02*
X61976190Y-165752438D01*
X61976190Y-165752438D02*
X62023809Y-165800057D01*
X62404762Y-165800057D02*
X62452381Y-165752438D01*
X62452381Y-165752438D02*
X62547619Y-165704819D01*
X62547619Y-165704819D02*
X62785714Y-165704819D01*
X62785714Y-165704819D02*
X62880952Y-165752438D01*
X62880952Y-165752438D02*
X62928571Y-165800057D01*
X62928571Y-165800057D02*
X62976190Y-165895295D01*
X62976190Y-165895295D02*
X62976190Y-165990533D01*
X62976190Y-165990533D02*
X62928571Y-166133390D01*
X62928571Y-166133390D02*
X62357143Y-166704819D01*
X62357143Y-166704819D02*
X62976190Y-166704819D01*
X63595238Y-165704819D02*
X63690476Y-165704819D01*
X63690476Y-165704819D02*
X63785714Y-165752438D01*
X63785714Y-165752438D02*
X63833333Y-165800057D01*
X63833333Y-165800057D02*
X63880952Y-165895295D01*
X63880952Y-165895295D02*
X63928571Y-166085771D01*
X63928571Y-166085771D02*
X63928571Y-166323866D01*
X63928571Y-166323866D02*
X63880952Y-166514342D01*
X63880952Y-166514342D02*
X63833333Y-166609580D01*
X63833333Y-166609580D02*
X63785714Y-166657200D01*
X63785714Y-166657200D02*
X63690476Y-166704819D01*
X63690476Y-166704819D02*
X63595238Y-166704819D01*
X63595238Y-166704819D02*
X63500000Y-166657200D01*
X63500000Y-166657200D02*
X63452381Y-166609580D01*
X63452381Y-166609580D02*
X63404762Y-166514342D01*
X63404762Y-166514342D02*
X63357143Y-166323866D01*
X63357143Y-166323866D02*
X63357143Y-166085771D01*
X63357143Y-166085771D02*
X63404762Y-165895295D01*
X63404762Y-165895295D02*
X63452381Y-165800057D01*
X63452381Y-165800057D02*
X63500000Y-165752438D01*
X63500000Y-165752438D02*
X63595238Y-165704819D01*
X64880952Y-166704819D02*
X64309524Y-166704819D01*
X64595238Y-166704819D02*
X64595238Y-165704819D01*
X64595238Y-165704819D02*
X64500000Y-165847676D01*
X64500000Y-165847676D02*
X64404762Y-165942914D01*
X64404762Y-165942914D02*
X64309524Y-165990533D01*
X65738095Y-166038152D02*
X65738095Y-166704819D01*
X65500000Y-165657200D02*
X65261905Y-166371485D01*
X65261905Y-166371485D02*
X65880952Y-166371485D01*
X67357143Y-166181009D02*
X67500000Y-166228628D01*
X67500000Y-166228628D02*
X67547619Y-166276247D01*
X67547619Y-166276247D02*
X67595238Y-166371485D01*
X67595238Y-166371485D02*
X67595238Y-166514342D01*
X67595238Y-166514342D02*
X67547619Y-166609580D01*
X67547619Y-166609580D02*
X67500000Y-166657200D01*
X67500000Y-166657200D02*
X67404762Y-166704819D01*
X67404762Y-166704819D02*
X67023810Y-166704819D01*
X67023810Y-166704819D02*
X67023810Y-165704819D01*
X67023810Y-165704819D02*
X67357143Y-165704819D01*
X67357143Y-165704819D02*
X67452381Y-165752438D01*
X67452381Y-165752438D02*
X67500000Y-165800057D01*
X67500000Y-165800057D02*
X67547619Y-165895295D01*
X67547619Y-165895295D02*
X67547619Y-165990533D01*
X67547619Y-165990533D02*
X67500000Y-166085771D01*
X67500000Y-166085771D02*
X67452381Y-166133390D01*
X67452381Y-166133390D02*
X67357143Y-166181009D01*
X67357143Y-166181009D02*
X67023810Y-166181009D01*
X68023810Y-165704819D02*
X68023810Y-166514342D01*
X68023810Y-166514342D02*
X68071429Y-166609580D01*
X68071429Y-166609580D02*
X68119048Y-166657200D01*
X68119048Y-166657200D02*
X68214286Y-166704819D01*
X68214286Y-166704819D02*
X68404762Y-166704819D01*
X68404762Y-166704819D02*
X68500000Y-166657200D01*
X68500000Y-166657200D02*
X68547619Y-166609580D01*
X68547619Y-166609580D02*
X68595238Y-166514342D01*
X68595238Y-166514342D02*
X68595238Y-165704819D01*
X69023810Y-166657200D02*
X69166667Y-166704819D01*
X69166667Y-166704819D02*
X69404762Y-166704819D01*
X69404762Y-166704819D02*
X69500000Y-166657200D01*
X69500000Y-166657200D02*
X69547619Y-166609580D01*
X69547619Y-166609580D02*
X69595238Y-166514342D01*
X69595238Y-166514342D02*
X69595238Y-166419104D01*
X69595238Y-166419104D02*
X69547619Y-166323866D01*
X69547619Y-166323866D02*
X69500000Y-166276247D01*
X69500000Y-166276247D02*
X69404762Y-166228628D01*
X69404762Y-166228628D02*
X69214286Y-166181009D01*
X69214286Y-166181009D02*
X69119048Y-166133390D01*
X69119048Y-166133390D02*
X69071429Y-166085771D01*
X69071429Y-166085771D02*
X69023810Y-165990533D01*
X69023810Y-165990533D02*
X69023810Y-165895295D01*
X69023810Y-165895295D02*
X69071429Y-165800057D01*
X69071429Y-165800057D02*
X69119048Y-165752438D01*
X69119048Y-165752438D02*
X69214286Y-165704819D01*
X69214286Y-165704819D02*
X69452381Y-165704819D01*
X69452381Y-165704819D02*
X69595238Y-165752438D01*
X109021905Y-163954819D02*
X109021905Y-162954819D01*
X109021905Y-162954819D02*
X109402857Y-162954819D01*
X109402857Y-162954819D02*
X109498095Y-163002438D01*
X109498095Y-163002438D02*
X109545714Y-163050057D01*
X109545714Y-163050057D02*
X109593333Y-163145295D01*
X109593333Y-163145295D02*
X109593333Y-163288152D01*
X109593333Y-163288152D02*
X109545714Y-163383390D01*
X109545714Y-163383390D02*
X109498095Y-163431009D01*
X109498095Y-163431009D02*
X109402857Y-163478628D01*
X109402857Y-163478628D02*
X109021905Y-163478628D01*
X110545714Y-163954819D02*
X109974286Y-163954819D01*
X110260000Y-163954819D02*
X110260000Y-162954819D01*
X110260000Y-162954819D02*
X110164762Y-163097676D01*
X110164762Y-163097676D02*
X110069524Y-163192914D01*
X110069524Y-163192914D02*
X109974286Y-163240533D01*
X92804819Y-153992856D02*
X92804819Y-153326190D01*
X92804819Y-153326190D02*
X93804819Y-153754761D01*
X93138152Y-152516666D02*
X93804819Y-152516666D01*
X92757200Y-152754761D02*
X93471485Y-152992856D01*
X93471485Y-152992856D02*
X93471485Y-152373809D01*
X93804819Y-151992856D02*
X92804819Y-151992856D01*
X93281009Y-151992856D02*
X93281009Y-151421428D01*
X93804819Y-151421428D02*
X92804819Y-151421428D01*
X93709580Y-150373809D02*
X93757200Y-150421428D01*
X93757200Y-150421428D02*
X93804819Y-150564285D01*
X93804819Y-150564285D02*
X93804819Y-150659523D01*
X93804819Y-150659523D02*
X93757200Y-150802380D01*
X93757200Y-150802380D02*
X93661961Y-150897618D01*
X93661961Y-150897618D02*
X93566723Y-150945237D01*
X93566723Y-150945237D02*
X93376247Y-150992856D01*
X93376247Y-150992856D02*
X93233390Y-150992856D01*
X93233390Y-150992856D02*
X93042914Y-150945237D01*
X93042914Y-150945237D02*
X92947676Y-150897618D01*
X92947676Y-150897618D02*
X92852438Y-150802380D01*
X92852438Y-150802380D02*
X92804819Y-150659523D01*
X92804819Y-150659523D02*
X92804819Y-150564285D01*
X92804819Y-150564285D02*
X92852438Y-150421428D01*
X92852438Y-150421428D02*
X92900057Y-150373809D01*
X92804819Y-150088094D02*
X92804819Y-149516666D01*
X93804819Y-149802380D02*
X92804819Y-149802380D01*
X92804819Y-148754761D02*
X92804819Y-148945237D01*
X92804819Y-148945237D02*
X92852438Y-149040475D01*
X92852438Y-149040475D02*
X92900057Y-149088094D01*
X92900057Y-149088094D02*
X93042914Y-149183332D01*
X93042914Y-149183332D02*
X93233390Y-149230951D01*
X93233390Y-149230951D02*
X93614342Y-149230951D01*
X93614342Y-149230951D02*
X93709580Y-149183332D01*
X93709580Y-149183332D02*
X93757200Y-149135713D01*
X93757200Y-149135713D02*
X93804819Y-149040475D01*
X93804819Y-149040475D02*
X93804819Y-148849999D01*
X93804819Y-148849999D02*
X93757200Y-148754761D01*
X93757200Y-148754761D02*
X93709580Y-148707142D01*
X93709580Y-148707142D02*
X93614342Y-148659523D01*
X93614342Y-148659523D02*
X93376247Y-148659523D01*
X93376247Y-148659523D02*
X93281009Y-148707142D01*
X93281009Y-148707142D02*
X93233390Y-148754761D01*
X93233390Y-148754761D02*
X93185771Y-148849999D01*
X93185771Y-148849999D02*
X93185771Y-149040475D01*
X93185771Y-149040475D02*
X93233390Y-149135713D01*
X93233390Y-149135713D02*
X93281009Y-149183332D01*
X93281009Y-149183332D02*
X93376247Y-149230951D01*
X93233390Y-148088094D02*
X93185771Y-148183332D01*
X93185771Y-148183332D02*
X93138152Y-148230951D01*
X93138152Y-148230951D02*
X93042914Y-148278570D01*
X93042914Y-148278570D02*
X92995295Y-148278570D01*
X92995295Y-148278570D02*
X92900057Y-148230951D01*
X92900057Y-148230951D02*
X92852438Y-148183332D01*
X92852438Y-148183332D02*
X92804819Y-148088094D01*
X92804819Y-148088094D02*
X92804819Y-147897618D01*
X92804819Y-147897618D02*
X92852438Y-147802380D01*
X92852438Y-147802380D02*
X92900057Y-147754761D01*
X92900057Y-147754761D02*
X92995295Y-147707142D01*
X92995295Y-147707142D02*
X93042914Y-147707142D01*
X93042914Y-147707142D02*
X93138152Y-147754761D01*
X93138152Y-147754761D02*
X93185771Y-147802380D01*
X93185771Y-147802380D02*
X93233390Y-147897618D01*
X93233390Y-147897618D02*
X93233390Y-148088094D01*
X93233390Y-148088094D02*
X93281009Y-148183332D01*
X93281009Y-148183332D02*
X93328628Y-148230951D01*
X93328628Y-148230951D02*
X93423866Y-148278570D01*
X93423866Y-148278570D02*
X93614342Y-148278570D01*
X93614342Y-148278570D02*
X93709580Y-148230951D01*
X93709580Y-148230951D02*
X93757200Y-148183332D01*
X93757200Y-148183332D02*
X93804819Y-148088094D01*
X93804819Y-148088094D02*
X93804819Y-147897618D01*
X93804819Y-147897618D02*
X93757200Y-147802380D01*
X93757200Y-147802380D02*
X93709580Y-147754761D01*
X93709580Y-147754761D02*
X93614342Y-147707142D01*
X93614342Y-147707142D02*
X93423866Y-147707142D01*
X93423866Y-147707142D02*
X93328628Y-147754761D01*
X93328628Y-147754761D02*
X93281009Y-147802380D01*
X93281009Y-147802380D02*
X93233390Y-147897618D01*
X93233390Y-147135713D02*
X93185771Y-147230951D01*
X93185771Y-147230951D02*
X93138152Y-147278570D01*
X93138152Y-147278570D02*
X93042914Y-147326189D01*
X93042914Y-147326189D02*
X92995295Y-147326189D01*
X92995295Y-147326189D02*
X92900057Y-147278570D01*
X92900057Y-147278570D02*
X92852438Y-147230951D01*
X92852438Y-147230951D02*
X92804819Y-147135713D01*
X92804819Y-147135713D02*
X92804819Y-146945237D01*
X92804819Y-146945237D02*
X92852438Y-146849999D01*
X92852438Y-146849999D02*
X92900057Y-146802380D01*
X92900057Y-146802380D02*
X92995295Y-146754761D01*
X92995295Y-146754761D02*
X93042914Y-146754761D01*
X93042914Y-146754761D02*
X93138152Y-146802380D01*
X93138152Y-146802380D02*
X93185771Y-146849999D01*
X93185771Y-146849999D02*
X93233390Y-146945237D01*
X93233390Y-146945237D02*
X93233390Y-147135713D01*
X93233390Y-147135713D02*
X93281009Y-147230951D01*
X93281009Y-147230951D02*
X93328628Y-147278570D01*
X93328628Y-147278570D02*
X93423866Y-147326189D01*
X93423866Y-147326189D02*
X93614342Y-147326189D01*
X93614342Y-147326189D02*
X93709580Y-147278570D01*
X93709580Y-147278570D02*
X93757200Y-147230951D01*
X93757200Y-147230951D02*
X93804819Y-147135713D01*
X93804819Y-147135713D02*
X93804819Y-146945237D01*
X93804819Y-146945237D02*
X93757200Y-146849999D01*
X93757200Y-146849999D02*
X93709580Y-146802380D01*
X93709580Y-146802380D02*
X93614342Y-146754761D01*
X93614342Y-146754761D02*
X93423866Y-146754761D01*
X93423866Y-146754761D02*
X93328628Y-146802380D01*
X93328628Y-146802380D02*
X93281009Y-146849999D01*
X93281009Y-146849999D02*
X93233390Y-146945237D01*
X85454819Y-151111904D02*
X86264342Y-151111904D01*
X86264342Y-151111904D02*
X86359580Y-151064285D01*
X86359580Y-151064285D02*
X86407200Y-151016666D01*
X86407200Y-151016666D02*
X86454819Y-150921428D01*
X86454819Y-150921428D02*
X86454819Y-150730952D01*
X86454819Y-150730952D02*
X86407200Y-150635714D01*
X86407200Y-150635714D02*
X86359580Y-150588095D01*
X86359580Y-150588095D02*
X86264342Y-150540476D01*
X86264342Y-150540476D02*
X85454819Y-150540476D01*
X86454819Y-149540476D02*
X86454819Y-150111904D01*
X86454819Y-149826190D02*
X85454819Y-149826190D01*
X85454819Y-149826190D02*
X85597676Y-149921428D01*
X85597676Y-149921428D02*
X85692914Y-150016666D01*
X85692914Y-150016666D02*
X85740533Y-150111904D01*
X122824819Y-129748809D02*
X122824819Y-129939285D01*
X122824819Y-129939285D02*
X122872438Y-130034523D01*
X122872438Y-130034523D02*
X122920057Y-130082142D01*
X122920057Y-130082142D02*
X123062914Y-130177380D01*
X123062914Y-130177380D02*
X123253390Y-130224999D01*
X123253390Y-130224999D02*
X123634342Y-130224999D01*
X123634342Y-130224999D02*
X123729580Y-130177380D01*
X123729580Y-130177380D02*
X123777200Y-130129761D01*
X123777200Y-130129761D02*
X123824819Y-130034523D01*
X123824819Y-130034523D02*
X123824819Y-129844047D01*
X123824819Y-129844047D02*
X123777200Y-129748809D01*
X123777200Y-129748809D02*
X123729580Y-129701190D01*
X123729580Y-129701190D02*
X123634342Y-129653571D01*
X123634342Y-129653571D02*
X123396247Y-129653571D01*
X123396247Y-129653571D02*
X123301009Y-129701190D01*
X123301009Y-129701190D02*
X123253390Y-129748809D01*
X123253390Y-129748809D02*
X123205771Y-129844047D01*
X123205771Y-129844047D02*
X123205771Y-130034523D01*
X123205771Y-130034523D02*
X123253390Y-130129761D01*
X123253390Y-130129761D02*
X123301009Y-130177380D01*
X123301009Y-130177380D02*
X123396247Y-130224999D01*
X123253390Y-129082142D02*
X123205771Y-129177380D01*
X123205771Y-129177380D02*
X123158152Y-129224999D01*
X123158152Y-129224999D02*
X123062914Y-129272618D01*
X123062914Y-129272618D02*
X123015295Y-129272618D01*
X123015295Y-129272618D02*
X122920057Y-129224999D01*
X122920057Y-129224999D02*
X122872438Y-129177380D01*
X122872438Y-129177380D02*
X122824819Y-129082142D01*
X122824819Y-129082142D02*
X122824819Y-128891666D01*
X122824819Y-128891666D02*
X122872438Y-128796428D01*
X122872438Y-128796428D02*
X122920057Y-128748809D01*
X122920057Y-128748809D02*
X123015295Y-128701190D01*
X123015295Y-128701190D02*
X123062914Y-128701190D01*
X123062914Y-128701190D02*
X123158152Y-128748809D01*
X123158152Y-128748809D02*
X123205771Y-128796428D01*
X123205771Y-128796428D02*
X123253390Y-128891666D01*
X123253390Y-128891666D02*
X123253390Y-129082142D01*
X123253390Y-129082142D02*
X123301009Y-129177380D01*
X123301009Y-129177380D02*
X123348628Y-129224999D01*
X123348628Y-129224999D02*
X123443866Y-129272618D01*
X123443866Y-129272618D02*
X123634342Y-129272618D01*
X123634342Y-129272618D02*
X123729580Y-129224999D01*
X123729580Y-129224999D02*
X123777200Y-129177380D01*
X123777200Y-129177380D02*
X123824819Y-129082142D01*
X123824819Y-129082142D02*
X123824819Y-128891666D01*
X123824819Y-128891666D02*
X123777200Y-128796428D01*
X123777200Y-128796428D02*
X123729580Y-128748809D01*
X123729580Y-128748809D02*
X123634342Y-128701190D01*
X123634342Y-128701190D02*
X123443866Y-128701190D01*
X123443866Y-128701190D02*
X123348628Y-128748809D01*
X123348628Y-128748809D02*
X123301009Y-128796428D01*
X123301009Y-128796428D02*
X123253390Y-128891666D01*
X123158152Y-128272618D02*
X124158152Y-128272618D01*
X123205771Y-128272618D02*
X123158152Y-128177380D01*
X123158152Y-128177380D02*
X123158152Y-127986904D01*
X123158152Y-127986904D02*
X123205771Y-127891666D01*
X123205771Y-127891666D02*
X123253390Y-127844047D01*
X123253390Y-127844047D02*
X123348628Y-127796428D01*
X123348628Y-127796428D02*
X123634342Y-127796428D01*
X123634342Y-127796428D02*
X123729580Y-127844047D01*
X123729580Y-127844047D02*
X123777200Y-127891666D01*
X123777200Y-127891666D02*
X123824819Y-127986904D01*
X123824819Y-127986904D02*
X123824819Y-128177380D01*
X123824819Y-128177380D02*
X123777200Y-128272618D01*
X123158152Y-127510713D02*
X123158152Y-127129761D01*
X123824819Y-127367856D02*
X122967676Y-127367856D01*
X122967676Y-127367856D02*
X122872438Y-127320237D01*
X122872438Y-127320237D02*
X122824819Y-127224999D01*
X122824819Y-127224999D02*
X122824819Y-127129761D01*
D11*
X124943832Y-128982142D02*
X124962880Y-129001190D01*
X124962880Y-129001190D02*
X124981927Y-129058332D01*
X124981927Y-129058332D02*
X124981927Y-129096428D01*
X124981927Y-129096428D02*
X124962880Y-129153571D01*
X124962880Y-129153571D02*
X124924784Y-129191666D01*
X124924784Y-129191666D02*
X124886689Y-129210713D01*
X124886689Y-129210713D02*
X124810499Y-129229761D01*
X124810499Y-129229761D02*
X124753356Y-129229761D01*
X124753356Y-129229761D02*
X124677165Y-129210713D01*
X124677165Y-129210713D02*
X124639070Y-129191666D01*
X124639070Y-129191666D02*
X124600975Y-129153571D01*
X124600975Y-129153571D02*
X124581927Y-129096428D01*
X124581927Y-129096428D02*
X124581927Y-129058332D01*
X124581927Y-129058332D02*
X124600975Y-129001190D01*
X124600975Y-129001190D02*
X124620022Y-128982142D01*
X124981927Y-128601190D02*
X124981927Y-128829761D01*
X124981927Y-128715475D02*
X124581927Y-128715475D01*
X124581927Y-128715475D02*
X124639070Y-128753571D01*
X124639070Y-128753571D02*
X124677165Y-128791666D01*
X124677165Y-128791666D02*
X124696213Y-128829761D01*
X124981927Y-128220238D02*
X124981927Y-128448809D01*
X124981927Y-128334523D02*
X124581927Y-128334523D01*
X124581927Y-128334523D02*
X124639070Y-128372619D01*
X124639070Y-128372619D02*
X124677165Y-128410714D01*
X124677165Y-128410714D02*
X124696213Y-128448809D01*
D10*
X110428571Y-123904819D02*
X109857143Y-123904819D01*
X110142857Y-123904819D02*
X110142857Y-122904819D01*
X110142857Y-122904819D02*
X110047619Y-123047676D01*
X110047619Y-123047676D02*
X109952381Y-123142914D01*
X109952381Y-123142914D02*
X109857143Y-123190533D01*
X111047619Y-122904819D02*
X111142857Y-122904819D01*
X111142857Y-122904819D02*
X111238095Y-122952438D01*
X111238095Y-122952438D02*
X111285714Y-123000057D01*
X111285714Y-123000057D02*
X111333333Y-123095295D01*
X111333333Y-123095295D02*
X111380952Y-123285771D01*
X111380952Y-123285771D02*
X111380952Y-123523866D01*
X111380952Y-123523866D02*
X111333333Y-123714342D01*
X111333333Y-123714342D02*
X111285714Y-123809580D01*
X111285714Y-123809580D02*
X111238095Y-123857200D01*
X111238095Y-123857200D02*
X111142857Y-123904819D01*
X111142857Y-123904819D02*
X111047619Y-123904819D01*
X111047619Y-123904819D02*
X110952381Y-123857200D01*
X110952381Y-123857200D02*
X110904762Y-123809580D01*
X110904762Y-123809580D02*
X110857143Y-123714342D01*
X110857143Y-123714342D02*
X110809524Y-123523866D01*
X110809524Y-123523866D02*
X110809524Y-123285771D01*
X110809524Y-123285771D02*
X110857143Y-123095295D01*
X110857143Y-123095295D02*
X110904762Y-123000057D01*
X110904762Y-123000057D02*
X110952381Y-122952438D01*
X110952381Y-122952438D02*
X111047619Y-122904819D01*
X112238095Y-123238152D02*
X112238095Y-123904819D01*
X111809524Y-123238152D02*
X111809524Y-123761961D01*
X111809524Y-123761961D02*
X111857143Y-123857200D01*
X111857143Y-123857200D02*
X111952381Y-123904819D01*
X111952381Y-123904819D02*
X112095238Y-123904819D01*
X112095238Y-123904819D02*
X112190476Y-123857200D01*
X112190476Y-123857200D02*
X112238095Y-123809580D01*
X113047619Y-123381009D02*
X112714286Y-123381009D01*
X112714286Y-123904819D02*
X112714286Y-122904819D01*
X112714286Y-122904819D02*
X113190476Y-122904819D01*
X111333333Y-128159580D02*
X111285714Y-128207200D01*
X111285714Y-128207200D02*
X111142857Y-128254819D01*
X111142857Y-128254819D02*
X111047619Y-128254819D01*
X111047619Y-128254819D02*
X110904762Y-128207200D01*
X110904762Y-128207200D02*
X110809524Y-128111961D01*
X110809524Y-128111961D02*
X110761905Y-128016723D01*
X110761905Y-128016723D02*
X110714286Y-127826247D01*
X110714286Y-127826247D02*
X110714286Y-127683390D01*
X110714286Y-127683390D02*
X110761905Y-127492914D01*
X110761905Y-127492914D02*
X110809524Y-127397676D01*
X110809524Y-127397676D02*
X110904762Y-127302438D01*
X110904762Y-127302438D02*
X111047619Y-127254819D01*
X111047619Y-127254819D02*
X111142857Y-127254819D01*
X111142857Y-127254819D02*
X111285714Y-127302438D01*
X111285714Y-127302438D02*
X111333333Y-127350057D01*
X111904762Y-127683390D02*
X111809524Y-127635771D01*
X111809524Y-127635771D02*
X111761905Y-127588152D01*
X111761905Y-127588152D02*
X111714286Y-127492914D01*
X111714286Y-127492914D02*
X111714286Y-127445295D01*
X111714286Y-127445295D02*
X111761905Y-127350057D01*
X111761905Y-127350057D02*
X111809524Y-127302438D01*
X111809524Y-127302438D02*
X111904762Y-127254819D01*
X111904762Y-127254819D02*
X112095238Y-127254819D01*
X112095238Y-127254819D02*
X112190476Y-127302438D01*
X112190476Y-127302438D02*
X112238095Y-127350057D01*
X112238095Y-127350057D02*
X112285714Y-127445295D01*
X112285714Y-127445295D02*
X112285714Y-127492914D01*
X112285714Y-127492914D02*
X112238095Y-127588152D01*
X112238095Y-127588152D02*
X112190476Y-127635771D01*
X112190476Y-127635771D02*
X112095238Y-127683390D01*
X112095238Y-127683390D02*
X111904762Y-127683390D01*
X111904762Y-127683390D02*
X111809524Y-127731009D01*
X111809524Y-127731009D02*
X111761905Y-127778628D01*
X111761905Y-127778628D02*
X111714286Y-127873866D01*
X111714286Y-127873866D02*
X111714286Y-128064342D01*
X111714286Y-128064342D02*
X111761905Y-128159580D01*
X111761905Y-128159580D02*
X111809524Y-128207200D01*
X111809524Y-128207200D02*
X111904762Y-128254819D01*
X111904762Y-128254819D02*
X112095238Y-128254819D01*
X112095238Y-128254819D02*
X112190476Y-128207200D01*
X112190476Y-128207200D02*
X112238095Y-128159580D01*
X112238095Y-128159580D02*
X112285714Y-128064342D01*
X112285714Y-128064342D02*
X112285714Y-127873866D01*
X112285714Y-127873866D02*
X112238095Y-127778628D01*
X112238095Y-127778628D02*
X112190476Y-127731009D01*
X112190476Y-127731009D02*
X112095238Y-127683390D01*
X120824819Y-130367856D02*
X120824819Y-130272618D01*
X120824819Y-130272618D02*
X120872438Y-130177380D01*
X120872438Y-130177380D02*
X120920057Y-130129761D01*
X120920057Y-130129761D02*
X121015295Y-130082142D01*
X121015295Y-130082142D02*
X121205771Y-130034523D01*
X121205771Y-130034523D02*
X121443866Y-130034523D01*
X121443866Y-130034523D02*
X121634342Y-130082142D01*
X121634342Y-130082142D02*
X121729580Y-130129761D01*
X121729580Y-130129761D02*
X121777200Y-130177380D01*
X121777200Y-130177380D02*
X121824819Y-130272618D01*
X121824819Y-130272618D02*
X121824819Y-130367856D01*
X121824819Y-130367856D02*
X121777200Y-130463094D01*
X121777200Y-130463094D02*
X121729580Y-130510713D01*
X121729580Y-130510713D02*
X121634342Y-130558332D01*
X121634342Y-130558332D02*
X121443866Y-130605951D01*
X121443866Y-130605951D02*
X121205771Y-130605951D01*
X121205771Y-130605951D02*
X121015295Y-130558332D01*
X121015295Y-130558332D02*
X120920057Y-130510713D01*
X120920057Y-130510713D02*
X120872438Y-130463094D01*
X120872438Y-130463094D02*
X120824819Y-130367856D01*
X121729580Y-129605951D02*
X121777200Y-129558332D01*
X121777200Y-129558332D02*
X121824819Y-129605951D01*
X121824819Y-129605951D02*
X121777200Y-129653570D01*
X121777200Y-129653570D02*
X121729580Y-129605951D01*
X121729580Y-129605951D02*
X121824819Y-129605951D01*
X121824819Y-128605952D02*
X121824819Y-129177380D01*
X121824819Y-128891666D02*
X120824819Y-128891666D01*
X120824819Y-128891666D02*
X120967676Y-128986904D01*
X120967676Y-128986904D02*
X121062914Y-129082142D01*
X121062914Y-129082142D02*
X121110533Y-129177380D01*
X121158152Y-127748809D02*
X121824819Y-127748809D01*
X121158152Y-128177380D02*
X121681961Y-128177380D01*
X121681961Y-128177380D02*
X121777200Y-128129761D01*
X121777200Y-128129761D02*
X121824819Y-128034523D01*
X121824819Y-128034523D02*
X121824819Y-127891666D01*
X121824819Y-127891666D02*
X121777200Y-127796428D01*
X121777200Y-127796428D02*
X121729580Y-127748809D01*
X121301009Y-126939285D02*
X121301009Y-127272618D01*
X121824819Y-127272618D02*
X120824819Y-127272618D01*
X120824819Y-127272618D02*
X120824819Y-126796428D01*
D11*
X122943832Y-128982142D02*
X122962880Y-129001190D01*
X122962880Y-129001190D02*
X122981927Y-129058332D01*
X122981927Y-129058332D02*
X122981927Y-129096428D01*
X122981927Y-129096428D02*
X122962880Y-129153571D01*
X122962880Y-129153571D02*
X122924784Y-129191666D01*
X122924784Y-129191666D02*
X122886689Y-129210713D01*
X122886689Y-129210713D02*
X122810499Y-129229761D01*
X122810499Y-129229761D02*
X122753356Y-129229761D01*
X122753356Y-129229761D02*
X122677165Y-129210713D01*
X122677165Y-129210713D02*
X122639070Y-129191666D01*
X122639070Y-129191666D02*
X122600975Y-129153571D01*
X122600975Y-129153571D02*
X122581927Y-129096428D01*
X122581927Y-129096428D02*
X122581927Y-129058332D01*
X122581927Y-129058332D02*
X122600975Y-129001190D01*
X122600975Y-129001190D02*
X122620022Y-128982142D01*
X122981927Y-128601190D02*
X122981927Y-128829761D01*
X122981927Y-128715475D02*
X122581927Y-128715475D01*
X122581927Y-128715475D02*
X122639070Y-128753571D01*
X122639070Y-128753571D02*
X122677165Y-128791666D01*
X122677165Y-128791666D02*
X122696213Y-128829761D01*
X122620022Y-128448809D02*
X122600975Y-128429761D01*
X122600975Y-128429761D02*
X122581927Y-128391666D01*
X122581927Y-128391666D02*
X122581927Y-128296428D01*
X122581927Y-128296428D02*
X122600975Y-128258333D01*
X122600975Y-128258333D02*
X122620022Y-128239285D01*
X122620022Y-128239285D02*
X122658118Y-128220238D01*
X122658118Y-128220238D02*
X122696213Y-128220238D01*
X122696213Y-128220238D02*
X122753356Y-128239285D01*
X122753356Y-128239285D02*
X122981927Y-128467857D01*
X122981927Y-128467857D02*
X122981927Y-128220238D01*
D10*
X129571428Y-159628628D02*
X129571428Y-160104819D01*
X129238095Y-159104819D02*
X129571428Y-159628628D01*
X129571428Y-159628628D02*
X129904761Y-159104819D01*
X130238095Y-160104819D02*
X130238095Y-159104819D01*
X130238095Y-159104819D02*
X130571428Y-159819104D01*
X130571428Y-159819104D02*
X130904761Y-159104819D01*
X130904761Y-159104819D02*
X130904761Y-160104819D01*
X131714285Y-159581009D02*
X131380952Y-159581009D01*
X131380952Y-160104819D02*
X131380952Y-159104819D01*
X131380952Y-159104819D02*
X131857142Y-159104819D01*
X132190476Y-159200057D02*
X132238095Y-159152438D01*
X132238095Y-159152438D02*
X132333333Y-159104819D01*
X132333333Y-159104819D02*
X132571428Y-159104819D01*
X132571428Y-159104819D02*
X132666666Y-159152438D01*
X132666666Y-159152438D02*
X132714285Y-159200057D01*
X132714285Y-159200057D02*
X132761904Y-159295295D01*
X132761904Y-159295295D02*
X132761904Y-159390533D01*
X132761904Y-159390533D02*
X132714285Y-159533390D01*
X132714285Y-159533390D02*
X132142857Y-160104819D01*
X132142857Y-160104819D02*
X132761904Y-160104819D01*
X133619047Y-159104819D02*
X133428571Y-159104819D01*
X133428571Y-159104819D02*
X133333333Y-159152438D01*
X133333333Y-159152438D02*
X133285714Y-159200057D01*
X133285714Y-159200057D02*
X133190476Y-159342914D01*
X133190476Y-159342914D02*
X133142857Y-159533390D01*
X133142857Y-159533390D02*
X133142857Y-159914342D01*
X133142857Y-159914342D02*
X133190476Y-160009580D01*
X133190476Y-160009580D02*
X133238095Y-160057200D01*
X133238095Y-160057200D02*
X133333333Y-160104819D01*
X133333333Y-160104819D02*
X133523809Y-160104819D01*
X133523809Y-160104819D02*
X133619047Y-160057200D01*
X133619047Y-160057200D02*
X133666666Y-160009580D01*
X133666666Y-160009580D02*
X133714285Y-159914342D01*
X133714285Y-159914342D02*
X133714285Y-159676247D01*
X133714285Y-159676247D02*
X133666666Y-159581009D01*
X133666666Y-159581009D02*
X133619047Y-159533390D01*
X133619047Y-159533390D02*
X133523809Y-159485771D01*
X133523809Y-159485771D02*
X133333333Y-159485771D01*
X133333333Y-159485771D02*
X133238095Y-159533390D01*
X133238095Y-159533390D02*
X133190476Y-159581009D01*
X133190476Y-159581009D02*
X133142857Y-159676247D01*
X134095238Y-159200057D02*
X134142857Y-159152438D01*
X134142857Y-159152438D02*
X134238095Y-159104819D01*
X134238095Y-159104819D02*
X134476190Y-159104819D01*
X134476190Y-159104819D02*
X134571428Y-159152438D01*
X134571428Y-159152438D02*
X134619047Y-159200057D01*
X134619047Y-159200057D02*
X134666666Y-159295295D01*
X134666666Y-159295295D02*
X134666666Y-159390533D01*
X134666666Y-159390533D02*
X134619047Y-159533390D01*
X134619047Y-159533390D02*
X134047619Y-160104819D01*
X134047619Y-160104819D02*
X134666666Y-160104819D01*
X131238095Y-150454819D02*
X131238095Y-151264342D01*
X131238095Y-151264342D02*
X131285714Y-151359580D01*
X131285714Y-151359580D02*
X131333333Y-151407200D01*
X131333333Y-151407200D02*
X131428571Y-151454819D01*
X131428571Y-151454819D02*
X131619047Y-151454819D01*
X131619047Y-151454819D02*
X131714285Y-151407200D01*
X131714285Y-151407200D02*
X131761904Y-151359580D01*
X131761904Y-151359580D02*
X131809523Y-151264342D01*
X131809523Y-151264342D02*
X131809523Y-150454819D01*
X132238095Y-150550057D02*
X132285714Y-150502438D01*
X132285714Y-150502438D02*
X132380952Y-150454819D01*
X132380952Y-150454819D02*
X132619047Y-150454819D01*
X132619047Y-150454819D02*
X132714285Y-150502438D01*
X132714285Y-150502438D02*
X132761904Y-150550057D01*
X132761904Y-150550057D02*
X132809523Y-150645295D01*
X132809523Y-150645295D02*
X132809523Y-150740533D01*
X132809523Y-150740533D02*
X132761904Y-150883390D01*
X132761904Y-150883390D02*
X132190476Y-151454819D01*
X132190476Y-151454819D02*
X132809523Y-151454819D01*
X125357143Y-143204819D02*
X125452381Y-143204819D01*
X125452381Y-143204819D02*
X125547619Y-143252438D01*
X125547619Y-143252438D02*
X125595238Y-143300057D01*
X125595238Y-143300057D02*
X125642857Y-143395295D01*
X125642857Y-143395295D02*
X125690476Y-143585771D01*
X125690476Y-143585771D02*
X125690476Y-143823866D01*
X125690476Y-143823866D02*
X125642857Y-144014342D01*
X125642857Y-144014342D02*
X125595238Y-144109580D01*
X125595238Y-144109580D02*
X125547619Y-144157200D01*
X125547619Y-144157200D02*
X125452381Y-144204819D01*
X125452381Y-144204819D02*
X125357143Y-144204819D01*
X125357143Y-144204819D02*
X125261905Y-144157200D01*
X125261905Y-144157200D02*
X125214286Y-144109580D01*
X125214286Y-144109580D02*
X125166667Y-144014342D01*
X125166667Y-144014342D02*
X125119048Y-143823866D01*
X125119048Y-143823866D02*
X125119048Y-143585771D01*
X125119048Y-143585771D02*
X125166667Y-143395295D01*
X125166667Y-143395295D02*
X125214286Y-143300057D01*
X125214286Y-143300057D02*
X125261905Y-143252438D01*
X125261905Y-143252438D02*
X125357143Y-143204819D01*
X126119048Y-144109580D02*
X126166667Y-144157200D01*
X126166667Y-144157200D02*
X126119048Y-144204819D01*
X126119048Y-144204819D02*
X126071429Y-144157200D01*
X126071429Y-144157200D02*
X126119048Y-144109580D01*
X126119048Y-144109580D02*
X126119048Y-144204819D01*
X127119047Y-144204819D02*
X126547619Y-144204819D01*
X126833333Y-144204819D02*
X126833333Y-143204819D01*
X126833333Y-143204819D02*
X126738095Y-143347676D01*
X126738095Y-143347676D02*
X126642857Y-143442914D01*
X126642857Y-143442914D02*
X126547619Y-143490533D01*
X127976190Y-143538152D02*
X127976190Y-144204819D01*
X127547619Y-143538152D02*
X127547619Y-144061961D01*
X127547619Y-144061961D02*
X127595238Y-144157200D01*
X127595238Y-144157200D02*
X127690476Y-144204819D01*
X127690476Y-144204819D02*
X127833333Y-144204819D01*
X127833333Y-144204819D02*
X127928571Y-144157200D01*
X127928571Y-144157200D02*
X127976190Y-144109580D01*
X128785714Y-143681009D02*
X128452381Y-143681009D01*
X128452381Y-144204819D02*
X128452381Y-143204819D01*
X128452381Y-143204819D02*
X128928571Y-143204819D01*
D11*
X123433333Y-144143832D02*
X123414285Y-144162880D01*
X123414285Y-144162880D02*
X123357143Y-144181927D01*
X123357143Y-144181927D02*
X123319047Y-144181927D01*
X123319047Y-144181927D02*
X123261904Y-144162880D01*
X123261904Y-144162880D02*
X123223809Y-144124784D01*
X123223809Y-144124784D02*
X123204762Y-144086689D01*
X123204762Y-144086689D02*
X123185714Y-144010499D01*
X123185714Y-144010499D02*
X123185714Y-143953356D01*
X123185714Y-143953356D02*
X123204762Y-143877165D01*
X123204762Y-143877165D02*
X123223809Y-143839070D01*
X123223809Y-143839070D02*
X123261904Y-143800975D01*
X123261904Y-143800975D02*
X123319047Y-143781927D01*
X123319047Y-143781927D02*
X123357143Y-143781927D01*
X123357143Y-143781927D02*
X123414285Y-143800975D01*
X123414285Y-143800975D02*
X123433333Y-143820022D01*
X123776190Y-143781927D02*
X123700000Y-143781927D01*
X123700000Y-143781927D02*
X123661904Y-143800975D01*
X123661904Y-143800975D02*
X123642857Y-143820022D01*
X123642857Y-143820022D02*
X123604762Y-143877165D01*
X123604762Y-143877165D02*
X123585714Y-143953356D01*
X123585714Y-143953356D02*
X123585714Y-144105737D01*
X123585714Y-144105737D02*
X123604762Y-144143832D01*
X123604762Y-144143832D02*
X123623809Y-144162880D01*
X123623809Y-144162880D02*
X123661904Y-144181927D01*
X123661904Y-144181927D02*
X123738095Y-144181927D01*
X123738095Y-144181927D02*
X123776190Y-144162880D01*
X123776190Y-144162880D02*
X123795238Y-144143832D01*
X123795238Y-144143832D02*
X123814285Y-144105737D01*
X123814285Y-144105737D02*
X123814285Y-144010499D01*
X123814285Y-144010499D02*
X123795238Y-143972403D01*
X123795238Y-143972403D02*
X123776190Y-143953356D01*
X123776190Y-143953356D02*
X123738095Y-143934308D01*
X123738095Y-143934308D02*
X123661904Y-143934308D01*
X123661904Y-143934308D02*
X123623809Y-143953356D01*
X123623809Y-143953356D02*
X123604762Y-143972403D01*
X123604762Y-143972403D02*
X123585714Y-144010499D01*
D10*
X148904819Y-150333333D02*
X148904819Y-150904761D01*
X148904819Y-150619047D02*
X147904819Y-150619047D01*
X147904819Y-150619047D02*
X148047676Y-150714285D01*
X148047676Y-150714285D02*
X148142914Y-150809523D01*
X148142914Y-150809523D02*
X148190533Y-150904761D01*
X148238152Y-149476190D02*
X148904819Y-149476190D01*
X147857200Y-149714285D02*
X148571485Y-149952380D01*
X148571485Y-149952380D02*
X148571485Y-149333333D01*
X148809580Y-148952380D02*
X148857200Y-148904761D01*
X148857200Y-148904761D02*
X148904819Y-148952380D01*
X148904819Y-148952380D02*
X148857200Y-148999999D01*
X148857200Y-148999999D02*
X148809580Y-148952380D01*
X148809580Y-148952380D02*
X148904819Y-148952380D01*
X147904819Y-148571428D02*
X147904819Y-147952381D01*
X147904819Y-147952381D02*
X148285771Y-148285714D01*
X148285771Y-148285714D02*
X148285771Y-148142857D01*
X148285771Y-148142857D02*
X148333390Y-148047619D01*
X148333390Y-148047619D02*
X148381009Y-148000000D01*
X148381009Y-148000000D02*
X148476247Y-147952381D01*
X148476247Y-147952381D02*
X148714342Y-147952381D01*
X148714342Y-147952381D02*
X148809580Y-148000000D01*
X148809580Y-148000000D02*
X148857200Y-148047619D01*
X148857200Y-148047619D02*
X148904819Y-148142857D01*
X148904819Y-148142857D02*
X148904819Y-148428571D01*
X148904819Y-148428571D02*
X148857200Y-148523809D01*
X148857200Y-148523809D02*
X148809580Y-148571428D01*
X148904819Y-147000000D02*
X148904819Y-147571428D01*
X148904819Y-147285714D02*
X147904819Y-147285714D01*
X147904819Y-147285714D02*
X148047676Y-147380952D01*
X148047676Y-147380952D02*
X148142914Y-147476190D01*
X148142914Y-147476190D02*
X148190533Y-147571428D01*
X148333390Y-146428571D02*
X148285771Y-146523809D01*
X148285771Y-146523809D02*
X148238152Y-146571428D01*
X148238152Y-146571428D02*
X148142914Y-146619047D01*
X148142914Y-146619047D02*
X148095295Y-146619047D01*
X148095295Y-146619047D02*
X148000057Y-146571428D01*
X148000057Y-146571428D02*
X147952438Y-146523809D01*
X147952438Y-146523809D02*
X147904819Y-146428571D01*
X147904819Y-146428571D02*
X147904819Y-146238095D01*
X147904819Y-146238095D02*
X147952438Y-146142857D01*
X147952438Y-146142857D02*
X148000057Y-146095238D01*
X148000057Y-146095238D02*
X148095295Y-146047619D01*
X148095295Y-146047619D02*
X148142914Y-146047619D01*
X148142914Y-146047619D02*
X148238152Y-146095238D01*
X148238152Y-146095238D02*
X148285771Y-146142857D01*
X148285771Y-146142857D02*
X148333390Y-146238095D01*
X148333390Y-146238095D02*
X148333390Y-146428571D01*
X148333390Y-146428571D02*
X148381009Y-146523809D01*
X148381009Y-146523809D02*
X148428628Y-146571428D01*
X148428628Y-146571428D02*
X148523866Y-146619047D01*
X148523866Y-146619047D02*
X148714342Y-146619047D01*
X148714342Y-146619047D02*
X148809580Y-146571428D01*
X148809580Y-146571428D02*
X148857200Y-146523809D01*
X148857200Y-146523809D02*
X148904819Y-146428571D01*
X148904819Y-146428571D02*
X148904819Y-146238095D01*
X148904819Y-146238095D02*
X148857200Y-146142857D01*
X148857200Y-146142857D02*
X148809580Y-146095238D01*
X148809580Y-146095238D02*
X148714342Y-146047619D01*
X148714342Y-146047619D02*
X148523866Y-146047619D01*
X148523866Y-146047619D02*
X148428628Y-146095238D01*
X148428628Y-146095238D02*
X148381009Y-146142857D01*
X148381009Y-146142857D02*
X148333390Y-146238095D01*
X148904819Y-145095238D02*
X148904819Y-145666666D01*
X148904819Y-145380952D02*
X147904819Y-145380952D01*
X147904819Y-145380952D02*
X148047676Y-145476190D01*
X148047676Y-145476190D02*
X148142914Y-145571428D01*
X148142914Y-145571428D02*
X148190533Y-145666666D01*
X148904819Y-144666666D02*
X147904819Y-144666666D01*
X147904819Y-144666666D02*
X148619104Y-144333333D01*
X148619104Y-144333333D02*
X147904819Y-144000000D01*
X147904819Y-144000000D02*
X148904819Y-144000000D01*
X148904819Y-143523809D02*
X147904819Y-143523809D01*
X148381009Y-143523809D02*
X148381009Y-142952381D01*
X148904819Y-142952381D02*
X147904819Y-142952381D01*
X148238152Y-142571428D02*
X148238152Y-142047619D01*
X148238152Y-142047619D02*
X148904819Y-142571428D01*
X148904819Y-142571428D02*
X148904819Y-142047619D01*
X144478628Y-146976190D02*
X144954819Y-146976190D01*
X143954819Y-147309523D02*
X144478628Y-146976190D01*
X144478628Y-146976190D02*
X143954819Y-146642857D01*
X144954819Y-145785714D02*
X144954819Y-146357142D01*
X144954819Y-146071428D02*
X143954819Y-146071428D01*
X143954819Y-146071428D02*
X144097676Y-146166666D01*
X144097676Y-146166666D02*
X144192914Y-146261904D01*
X144192914Y-146261904D02*
X144240533Y-146357142D01*
X129948628Y-138107142D02*
X130424819Y-138107142D01*
X129424819Y-138440475D02*
X129948628Y-138107142D01*
X129948628Y-138107142D02*
X129424819Y-137773809D01*
X130139104Y-137488094D02*
X130139104Y-137011904D01*
X130424819Y-137583332D02*
X129424819Y-137249999D01*
X129424819Y-137249999D02*
X130424819Y-136916666D01*
X130329580Y-136011904D02*
X130377200Y-136059523D01*
X130377200Y-136059523D02*
X130424819Y-136202380D01*
X130424819Y-136202380D02*
X130424819Y-136297618D01*
X130424819Y-136297618D02*
X130377200Y-136440475D01*
X130377200Y-136440475D02*
X130281961Y-136535713D01*
X130281961Y-136535713D02*
X130186723Y-136583332D01*
X130186723Y-136583332D02*
X129996247Y-136630951D01*
X129996247Y-136630951D02*
X129853390Y-136630951D01*
X129853390Y-136630951D02*
X129662914Y-136583332D01*
X129662914Y-136583332D02*
X129567676Y-136535713D01*
X129567676Y-136535713D02*
X129472438Y-136440475D01*
X129472438Y-136440475D02*
X129424819Y-136297618D01*
X129424819Y-136297618D02*
X129424819Y-136202380D01*
X129424819Y-136202380D02*
X129472438Y-136059523D01*
X129472438Y-136059523D02*
X129520057Y-136011904D01*
X129424819Y-135107142D02*
X129424819Y-135583332D01*
X129424819Y-135583332D02*
X129901009Y-135630951D01*
X129901009Y-135630951D02*
X129853390Y-135583332D01*
X129853390Y-135583332D02*
X129805771Y-135488094D01*
X129805771Y-135488094D02*
X129805771Y-135249999D01*
X129805771Y-135249999D02*
X129853390Y-135154761D01*
X129853390Y-135154761D02*
X129901009Y-135107142D01*
X129901009Y-135107142D02*
X129996247Y-135059523D01*
X129996247Y-135059523D02*
X130234342Y-135059523D01*
X130234342Y-135059523D02*
X130329580Y-135107142D01*
X130329580Y-135107142D02*
X130377200Y-135154761D01*
X130377200Y-135154761D02*
X130424819Y-135249999D01*
X130424819Y-135249999D02*
X130424819Y-135488094D01*
X130424819Y-135488094D02*
X130377200Y-135583332D01*
X130377200Y-135583332D02*
X130329580Y-135630951D01*
X130424819Y-134107142D02*
X130424819Y-134678570D01*
X130424819Y-134392856D02*
X129424819Y-134392856D01*
X129424819Y-134392856D02*
X129567676Y-134488094D01*
X129567676Y-134488094D02*
X129662914Y-134583332D01*
X129662914Y-134583332D02*
X129710533Y-134678570D01*
X129520057Y-133726189D02*
X129472438Y-133678570D01*
X129472438Y-133678570D02*
X129424819Y-133583332D01*
X129424819Y-133583332D02*
X129424819Y-133345237D01*
X129424819Y-133345237D02*
X129472438Y-133249999D01*
X129472438Y-133249999D02*
X129520057Y-133202380D01*
X129520057Y-133202380D02*
X129615295Y-133154761D01*
X129615295Y-133154761D02*
X129710533Y-133154761D01*
X129710533Y-133154761D02*
X129853390Y-133202380D01*
X129853390Y-133202380D02*
X130424819Y-133773808D01*
X130424819Y-133773808D02*
X130424819Y-133154761D01*
X123049819Y-136511904D02*
X123859342Y-136511904D01*
X123859342Y-136511904D02*
X123954580Y-136464285D01*
X123954580Y-136464285D02*
X124002200Y-136416666D01*
X124002200Y-136416666D02*
X124049819Y-136321428D01*
X124049819Y-136321428D02*
X124049819Y-136130952D01*
X124049819Y-136130952D02*
X124002200Y-136035714D01*
X124002200Y-136035714D02*
X123954580Y-135988095D01*
X123954580Y-135988095D02*
X123859342Y-135940476D01*
X123859342Y-135940476D02*
X123049819Y-135940476D01*
X123049819Y-135559523D02*
X123049819Y-134940476D01*
X123049819Y-134940476D02*
X123430771Y-135273809D01*
X123430771Y-135273809D02*
X123430771Y-135130952D01*
X123430771Y-135130952D02*
X123478390Y-135035714D01*
X123478390Y-135035714D02*
X123526009Y-134988095D01*
X123526009Y-134988095D02*
X123621247Y-134940476D01*
X123621247Y-134940476D02*
X123859342Y-134940476D01*
X123859342Y-134940476D02*
X123954580Y-134988095D01*
X123954580Y-134988095D02*
X124002200Y-135035714D01*
X124002200Y-135035714D02*
X124049819Y-135130952D01*
X124049819Y-135130952D02*
X124049819Y-135416666D01*
X124049819Y-135416666D02*
X124002200Y-135511904D01*
X124002200Y-135511904D02*
X123954580Y-135559523D01*
X72309523Y-155884819D02*
X71738095Y-155884819D01*
X72023809Y-155884819D02*
X72023809Y-154884819D01*
X72023809Y-154884819D02*
X71928571Y-155027676D01*
X71928571Y-155027676D02*
X71833333Y-155122914D01*
X71833333Y-155122914D02*
X71738095Y-155170533D01*
X72928571Y-154884819D02*
X73023809Y-154884819D01*
X73023809Y-154884819D02*
X73119047Y-154932438D01*
X73119047Y-154932438D02*
X73166666Y-154980057D01*
X73166666Y-154980057D02*
X73214285Y-155075295D01*
X73214285Y-155075295D02*
X73261904Y-155265771D01*
X73261904Y-155265771D02*
X73261904Y-155503866D01*
X73261904Y-155503866D02*
X73214285Y-155694342D01*
X73214285Y-155694342D02*
X73166666Y-155789580D01*
X73166666Y-155789580D02*
X73119047Y-155837200D01*
X73119047Y-155837200D02*
X73023809Y-155884819D01*
X73023809Y-155884819D02*
X72928571Y-155884819D01*
X72928571Y-155884819D02*
X72833333Y-155837200D01*
X72833333Y-155837200D02*
X72785714Y-155789580D01*
X72785714Y-155789580D02*
X72738095Y-155694342D01*
X72738095Y-155694342D02*
X72690476Y-155503866D01*
X72690476Y-155503866D02*
X72690476Y-155265771D01*
X72690476Y-155265771D02*
X72738095Y-155075295D01*
X72738095Y-155075295D02*
X72785714Y-154980057D01*
X72785714Y-154980057D02*
X72833333Y-154932438D01*
X72833333Y-154932438D02*
X72928571Y-154884819D01*
X73690476Y-155884819D02*
X73690476Y-154884819D01*
X74261904Y-155884819D02*
X73833333Y-155313390D01*
X74261904Y-154884819D02*
X73690476Y-155456247D01*
D11*
X72933333Y-154181927D02*
X72800000Y-153991451D01*
X72704762Y-154181927D02*
X72704762Y-153781927D01*
X72704762Y-153781927D02*
X72857143Y-153781927D01*
X72857143Y-153781927D02*
X72895238Y-153800975D01*
X72895238Y-153800975D02*
X72914285Y-153820022D01*
X72914285Y-153820022D02*
X72933333Y-153858118D01*
X72933333Y-153858118D02*
X72933333Y-153915260D01*
X72933333Y-153915260D02*
X72914285Y-153953356D01*
X72914285Y-153953356D02*
X72895238Y-153972403D01*
X72895238Y-153972403D02*
X72857143Y-153991451D01*
X72857143Y-153991451D02*
X72704762Y-153991451D01*
X73276190Y-153781927D02*
X73200000Y-153781927D01*
X73200000Y-153781927D02*
X73161904Y-153800975D01*
X73161904Y-153800975D02*
X73142857Y-153820022D01*
X73142857Y-153820022D02*
X73104762Y-153877165D01*
X73104762Y-153877165D02*
X73085714Y-153953356D01*
X73085714Y-153953356D02*
X73085714Y-154105737D01*
X73085714Y-154105737D02*
X73104762Y-154143832D01*
X73104762Y-154143832D02*
X73123809Y-154162880D01*
X73123809Y-154162880D02*
X73161904Y-154181927D01*
X73161904Y-154181927D02*
X73238095Y-154181927D01*
X73238095Y-154181927D02*
X73276190Y-154162880D01*
X73276190Y-154162880D02*
X73295238Y-154143832D01*
X73295238Y-154143832D02*
X73314285Y-154105737D01*
X73314285Y-154105737D02*
X73314285Y-154010499D01*
X73314285Y-154010499D02*
X73295238Y-153972403D01*
X73295238Y-153972403D02*
X73276190Y-153953356D01*
X73276190Y-153953356D02*
X73238095Y-153934308D01*
X73238095Y-153934308D02*
X73161904Y-153934308D01*
X73161904Y-153934308D02*
X73123809Y-153953356D01*
X73123809Y-153953356D02*
X73104762Y-153972403D01*
X73104762Y-153972403D02*
X73085714Y-154010499D01*
D10*
X125375057Y-122738094D02*
X125327438Y-122690475D01*
X125327438Y-122690475D02*
X125279819Y-122595237D01*
X125279819Y-122595237D02*
X125279819Y-122357142D01*
X125279819Y-122357142D02*
X125327438Y-122261904D01*
X125327438Y-122261904D02*
X125375057Y-122214285D01*
X125375057Y-122214285D02*
X125470295Y-122166666D01*
X125470295Y-122166666D02*
X125565533Y-122166666D01*
X125565533Y-122166666D02*
X125708390Y-122214285D01*
X125708390Y-122214285D02*
X126279819Y-122785713D01*
X126279819Y-122785713D02*
X126279819Y-122166666D01*
X126184580Y-121738094D02*
X126232200Y-121690475D01*
X126232200Y-121690475D02*
X126279819Y-121738094D01*
X126279819Y-121738094D02*
X126232200Y-121785713D01*
X126232200Y-121785713D02*
X126184580Y-121738094D01*
X126184580Y-121738094D02*
X126279819Y-121738094D01*
X125279819Y-121357142D02*
X125279819Y-120690476D01*
X125279819Y-120690476D02*
X126279819Y-121119047D01*
X125613152Y-120309523D02*
X126279819Y-120309523D01*
X125708390Y-120309523D02*
X125660771Y-120261904D01*
X125660771Y-120261904D02*
X125613152Y-120166666D01*
X125613152Y-120166666D02*
X125613152Y-120023809D01*
X125613152Y-120023809D02*
X125660771Y-119928571D01*
X125660771Y-119928571D02*
X125756009Y-119880952D01*
X125756009Y-119880952D02*
X126279819Y-119880952D01*
X125613152Y-119547618D02*
X125613152Y-119166666D01*
X126279819Y-119404761D02*
X125422676Y-119404761D01*
X125422676Y-119404761D02*
X125327438Y-119357142D01*
X125327438Y-119357142D02*
X125279819Y-119261904D01*
X125279819Y-119261904D02*
X125279819Y-119166666D01*
D11*
X127033333Y-118143832D02*
X127014285Y-118162880D01*
X127014285Y-118162880D02*
X126957143Y-118181927D01*
X126957143Y-118181927D02*
X126919047Y-118181927D01*
X126919047Y-118181927D02*
X126861904Y-118162880D01*
X126861904Y-118162880D02*
X126823809Y-118124784D01*
X126823809Y-118124784D02*
X126804762Y-118086689D01*
X126804762Y-118086689D02*
X126785714Y-118010499D01*
X126785714Y-118010499D02*
X126785714Y-117953356D01*
X126785714Y-117953356D02*
X126804762Y-117877165D01*
X126804762Y-117877165D02*
X126823809Y-117839070D01*
X126823809Y-117839070D02*
X126861904Y-117800975D01*
X126861904Y-117800975D02*
X126919047Y-117781927D01*
X126919047Y-117781927D02*
X126957143Y-117781927D01*
X126957143Y-117781927D02*
X127014285Y-117800975D01*
X127014285Y-117800975D02*
X127033333Y-117820022D01*
X127223809Y-118181927D02*
X127300000Y-118181927D01*
X127300000Y-118181927D02*
X127338095Y-118162880D01*
X127338095Y-118162880D02*
X127357143Y-118143832D01*
X127357143Y-118143832D02*
X127395238Y-118086689D01*
X127395238Y-118086689D02*
X127414285Y-118010499D01*
X127414285Y-118010499D02*
X127414285Y-117858118D01*
X127414285Y-117858118D02*
X127395238Y-117820022D01*
X127395238Y-117820022D02*
X127376190Y-117800975D01*
X127376190Y-117800975D02*
X127338095Y-117781927D01*
X127338095Y-117781927D02*
X127261904Y-117781927D01*
X127261904Y-117781927D02*
X127223809Y-117800975D01*
X127223809Y-117800975D02*
X127204762Y-117820022D01*
X127204762Y-117820022D02*
X127185714Y-117858118D01*
X127185714Y-117858118D02*
X127185714Y-117953356D01*
X127185714Y-117953356D02*
X127204762Y-117991451D01*
X127204762Y-117991451D02*
X127223809Y-118010499D01*
X127223809Y-118010499D02*
X127261904Y-118029546D01*
X127261904Y-118029546D02*
X127338095Y-118029546D01*
X127338095Y-118029546D02*
X127376190Y-118010499D01*
X127376190Y-118010499D02*
X127395238Y-117991451D01*
X127395238Y-117991451D02*
X127414285Y-117953356D01*
D10*
X72309523Y-153384819D02*
X71738095Y-153384819D01*
X72023809Y-153384819D02*
X72023809Y-152384819D01*
X72023809Y-152384819D02*
X71928571Y-152527676D01*
X71928571Y-152527676D02*
X71833333Y-152622914D01*
X71833333Y-152622914D02*
X71738095Y-152670533D01*
X72928571Y-152384819D02*
X73023809Y-152384819D01*
X73023809Y-152384819D02*
X73119047Y-152432438D01*
X73119047Y-152432438D02*
X73166666Y-152480057D01*
X73166666Y-152480057D02*
X73214285Y-152575295D01*
X73214285Y-152575295D02*
X73261904Y-152765771D01*
X73261904Y-152765771D02*
X73261904Y-153003866D01*
X73261904Y-153003866D02*
X73214285Y-153194342D01*
X73214285Y-153194342D02*
X73166666Y-153289580D01*
X73166666Y-153289580D02*
X73119047Y-153337200D01*
X73119047Y-153337200D02*
X73023809Y-153384819D01*
X73023809Y-153384819D02*
X72928571Y-153384819D01*
X72928571Y-153384819D02*
X72833333Y-153337200D01*
X72833333Y-153337200D02*
X72785714Y-153289580D01*
X72785714Y-153289580D02*
X72738095Y-153194342D01*
X72738095Y-153194342D02*
X72690476Y-153003866D01*
X72690476Y-153003866D02*
X72690476Y-152765771D01*
X72690476Y-152765771D02*
X72738095Y-152575295D01*
X72738095Y-152575295D02*
X72785714Y-152480057D01*
X72785714Y-152480057D02*
X72833333Y-152432438D01*
X72833333Y-152432438D02*
X72928571Y-152384819D01*
X73690476Y-153384819D02*
X73690476Y-152384819D01*
X74261904Y-153384819D02*
X73833333Y-152813390D01*
X74261904Y-152384819D02*
X73690476Y-152956247D01*
D11*
X72933333Y-151681927D02*
X72800000Y-151491451D01*
X72704762Y-151681927D02*
X72704762Y-151281927D01*
X72704762Y-151281927D02*
X72857143Y-151281927D01*
X72857143Y-151281927D02*
X72895238Y-151300975D01*
X72895238Y-151300975D02*
X72914285Y-151320022D01*
X72914285Y-151320022D02*
X72933333Y-151358118D01*
X72933333Y-151358118D02*
X72933333Y-151415260D01*
X72933333Y-151415260D02*
X72914285Y-151453356D01*
X72914285Y-151453356D02*
X72895238Y-151472403D01*
X72895238Y-151472403D02*
X72857143Y-151491451D01*
X72857143Y-151491451D02*
X72704762Y-151491451D01*
X73295238Y-151281927D02*
X73104762Y-151281927D01*
X73104762Y-151281927D02*
X73085714Y-151472403D01*
X73085714Y-151472403D02*
X73104762Y-151453356D01*
X73104762Y-151453356D02*
X73142857Y-151434308D01*
X73142857Y-151434308D02*
X73238095Y-151434308D01*
X73238095Y-151434308D02*
X73276190Y-151453356D01*
X73276190Y-151453356D02*
X73295238Y-151472403D01*
X73295238Y-151472403D02*
X73314285Y-151510499D01*
X73314285Y-151510499D02*
X73314285Y-151605737D01*
X73314285Y-151605737D02*
X73295238Y-151643832D01*
X73295238Y-151643832D02*
X73276190Y-151662880D01*
X73276190Y-151662880D02*
X73238095Y-151681927D01*
X73238095Y-151681927D02*
X73142857Y-151681927D01*
X73142857Y-151681927D02*
X73104762Y-151662880D01*
X73104762Y-151662880D02*
X73085714Y-151643832D01*
D10*
X142733333Y-122284819D02*
X142161905Y-122284819D01*
X142447619Y-122284819D02*
X142447619Y-121284819D01*
X142447619Y-121284819D02*
X142352381Y-121427676D01*
X142352381Y-121427676D02*
X142257143Y-121522914D01*
X142257143Y-121522914D02*
X142161905Y-121570533D01*
X143352381Y-121284819D02*
X143447619Y-121284819D01*
X143447619Y-121284819D02*
X143542857Y-121332438D01*
X143542857Y-121332438D02*
X143590476Y-121380057D01*
X143590476Y-121380057D02*
X143638095Y-121475295D01*
X143638095Y-121475295D02*
X143685714Y-121665771D01*
X143685714Y-121665771D02*
X143685714Y-121903866D01*
X143685714Y-121903866D02*
X143638095Y-122094342D01*
X143638095Y-122094342D02*
X143590476Y-122189580D01*
X143590476Y-122189580D02*
X143542857Y-122237200D01*
X143542857Y-122237200D02*
X143447619Y-122284819D01*
X143447619Y-122284819D02*
X143352381Y-122284819D01*
X143352381Y-122284819D02*
X143257143Y-122237200D01*
X143257143Y-122237200D02*
X143209524Y-122189580D01*
X143209524Y-122189580D02*
X143161905Y-122094342D01*
X143161905Y-122094342D02*
X143114286Y-121903866D01*
X143114286Y-121903866D02*
X143114286Y-121665771D01*
X143114286Y-121665771D02*
X143161905Y-121475295D01*
X143161905Y-121475295D02*
X143209524Y-121380057D01*
X143209524Y-121380057D02*
X143257143Y-121332438D01*
X143257143Y-121332438D02*
X143352381Y-121284819D01*
X144304762Y-121284819D02*
X144400000Y-121284819D01*
X144400000Y-121284819D02*
X144495238Y-121332438D01*
X144495238Y-121332438D02*
X144542857Y-121380057D01*
X144542857Y-121380057D02*
X144590476Y-121475295D01*
X144590476Y-121475295D02*
X144638095Y-121665771D01*
X144638095Y-121665771D02*
X144638095Y-121903866D01*
X144638095Y-121903866D02*
X144590476Y-122094342D01*
X144590476Y-122094342D02*
X144542857Y-122189580D01*
X144542857Y-122189580D02*
X144495238Y-122237200D01*
X144495238Y-122237200D02*
X144400000Y-122284819D01*
X144400000Y-122284819D02*
X144304762Y-122284819D01*
X144304762Y-122284819D02*
X144209524Y-122237200D01*
X144209524Y-122237200D02*
X144161905Y-122189580D01*
X144161905Y-122189580D02*
X144114286Y-122094342D01*
X144114286Y-122094342D02*
X144066667Y-121903866D01*
X144066667Y-121903866D02*
X144066667Y-121665771D01*
X144066667Y-121665771D02*
X144114286Y-121475295D01*
X144114286Y-121475295D02*
X144161905Y-121380057D01*
X144161905Y-121380057D02*
X144209524Y-121332438D01*
X144209524Y-121332438D02*
X144304762Y-121284819D01*
D11*
X143333333Y-120581927D02*
X143200000Y-120391451D01*
X143104762Y-120581927D02*
X143104762Y-120181927D01*
X143104762Y-120181927D02*
X143257143Y-120181927D01*
X143257143Y-120181927D02*
X143295238Y-120200975D01*
X143295238Y-120200975D02*
X143314285Y-120220022D01*
X143314285Y-120220022D02*
X143333333Y-120258118D01*
X143333333Y-120258118D02*
X143333333Y-120315260D01*
X143333333Y-120315260D02*
X143314285Y-120353356D01*
X143314285Y-120353356D02*
X143295238Y-120372403D01*
X143295238Y-120372403D02*
X143257143Y-120391451D01*
X143257143Y-120391451D02*
X143104762Y-120391451D01*
X143561904Y-120353356D02*
X143523809Y-120334308D01*
X143523809Y-120334308D02*
X143504762Y-120315260D01*
X143504762Y-120315260D02*
X143485714Y-120277165D01*
X143485714Y-120277165D02*
X143485714Y-120258118D01*
X143485714Y-120258118D02*
X143504762Y-120220022D01*
X143504762Y-120220022D02*
X143523809Y-120200975D01*
X143523809Y-120200975D02*
X143561904Y-120181927D01*
X143561904Y-120181927D02*
X143638095Y-120181927D01*
X143638095Y-120181927D02*
X143676190Y-120200975D01*
X143676190Y-120200975D02*
X143695238Y-120220022D01*
X143695238Y-120220022D02*
X143714285Y-120258118D01*
X143714285Y-120258118D02*
X143714285Y-120277165D01*
X143714285Y-120277165D02*
X143695238Y-120315260D01*
X143695238Y-120315260D02*
X143676190Y-120334308D01*
X143676190Y-120334308D02*
X143638095Y-120353356D01*
X143638095Y-120353356D02*
X143561904Y-120353356D01*
X143561904Y-120353356D02*
X143523809Y-120372403D01*
X143523809Y-120372403D02*
X143504762Y-120391451D01*
X143504762Y-120391451D02*
X143485714Y-120429546D01*
X143485714Y-120429546D02*
X143485714Y-120505737D01*
X143485714Y-120505737D02*
X143504762Y-120543832D01*
X143504762Y-120543832D02*
X143523809Y-120562880D01*
X143523809Y-120562880D02*
X143561904Y-120581927D01*
X143561904Y-120581927D02*
X143638095Y-120581927D01*
X143638095Y-120581927D02*
X143676190Y-120562880D01*
X143676190Y-120562880D02*
X143695238Y-120543832D01*
X143695238Y-120543832D02*
X143714285Y-120505737D01*
X143714285Y-120505737D02*
X143714285Y-120429546D01*
X143714285Y-120429546D02*
X143695238Y-120391451D01*
X143695238Y-120391451D02*
X143676190Y-120372403D01*
X143676190Y-120372403D02*
X143638095Y-120353356D01*
D10*
X127634819Y-129534523D02*
X127634819Y-128915476D01*
X127634819Y-128915476D02*
X128015771Y-129248809D01*
X128015771Y-129248809D02*
X128015771Y-129105952D01*
X128015771Y-129105952D02*
X128063390Y-129010714D01*
X128063390Y-129010714D02*
X128111009Y-128963095D01*
X128111009Y-128963095D02*
X128206247Y-128915476D01*
X128206247Y-128915476D02*
X128444342Y-128915476D01*
X128444342Y-128915476D02*
X128539580Y-128963095D01*
X128539580Y-128963095D02*
X128587200Y-129010714D01*
X128587200Y-129010714D02*
X128634819Y-129105952D01*
X128634819Y-129105952D02*
X128634819Y-129391666D01*
X128634819Y-129391666D02*
X128587200Y-129486904D01*
X128587200Y-129486904D02*
X128539580Y-129534523D01*
X127634819Y-128582142D02*
X127634819Y-127963095D01*
X127634819Y-127963095D02*
X128015771Y-128296428D01*
X128015771Y-128296428D02*
X128015771Y-128153571D01*
X128015771Y-128153571D02*
X128063390Y-128058333D01*
X128063390Y-128058333D02*
X128111009Y-128010714D01*
X128111009Y-128010714D02*
X128206247Y-127963095D01*
X128206247Y-127963095D02*
X128444342Y-127963095D01*
X128444342Y-127963095D02*
X128539580Y-128010714D01*
X128539580Y-128010714D02*
X128587200Y-128058333D01*
X128587200Y-128058333D02*
X128634819Y-128153571D01*
X128634819Y-128153571D02*
X128634819Y-128439285D01*
X128634819Y-128439285D02*
X128587200Y-128534523D01*
X128587200Y-128534523D02*
X128539580Y-128582142D01*
D11*
X126931927Y-128791666D02*
X126741451Y-128924999D01*
X126931927Y-129020237D02*
X126531927Y-129020237D01*
X126531927Y-129020237D02*
X126531927Y-128867856D01*
X126531927Y-128867856D02*
X126550975Y-128829761D01*
X126550975Y-128829761D02*
X126570022Y-128810714D01*
X126570022Y-128810714D02*
X126608118Y-128791666D01*
X126608118Y-128791666D02*
X126665260Y-128791666D01*
X126665260Y-128791666D02*
X126703356Y-128810714D01*
X126703356Y-128810714D02*
X126722403Y-128829761D01*
X126722403Y-128829761D02*
X126741451Y-128867856D01*
X126741451Y-128867856D02*
X126741451Y-129020237D01*
X126531927Y-128658333D02*
X126531927Y-128391666D01*
X126531927Y-128391666D02*
X126931927Y-128563095D01*
D10*
X142733333Y-132284819D02*
X142161905Y-132284819D01*
X142447619Y-132284819D02*
X142447619Y-131284819D01*
X142447619Y-131284819D02*
X142352381Y-131427676D01*
X142352381Y-131427676D02*
X142257143Y-131522914D01*
X142257143Y-131522914D02*
X142161905Y-131570533D01*
X143352381Y-131284819D02*
X143447619Y-131284819D01*
X143447619Y-131284819D02*
X143542857Y-131332438D01*
X143542857Y-131332438D02*
X143590476Y-131380057D01*
X143590476Y-131380057D02*
X143638095Y-131475295D01*
X143638095Y-131475295D02*
X143685714Y-131665771D01*
X143685714Y-131665771D02*
X143685714Y-131903866D01*
X143685714Y-131903866D02*
X143638095Y-132094342D01*
X143638095Y-132094342D02*
X143590476Y-132189580D01*
X143590476Y-132189580D02*
X143542857Y-132237200D01*
X143542857Y-132237200D02*
X143447619Y-132284819D01*
X143447619Y-132284819D02*
X143352381Y-132284819D01*
X143352381Y-132284819D02*
X143257143Y-132237200D01*
X143257143Y-132237200D02*
X143209524Y-132189580D01*
X143209524Y-132189580D02*
X143161905Y-132094342D01*
X143161905Y-132094342D02*
X143114286Y-131903866D01*
X143114286Y-131903866D02*
X143114286Y-131665771D01*
X143114286Y-131665771D02*
X143161905Y-131475295D01*
X143161905Y-131475295D02*
X143209524Y-131380057D01*
X143209524Y-131380057D02*
X143257143Y-131332438D01*
X143257143Y-131332438D02*
X143352381Y-131284819D01*
X144304762Y-131284819D02*
X144400000Y-131284819D01*
X144400000Y-131284819D02*
X144495238Y-131332438D01*
X144495238Y-131332438D02*
X144542857Y-131380057D01*
X144542857Y-131380057D02*
X144590476Y-131475295D01*
X144590476Y-131475295D02*
X144638095Y-131665771D01*
X144638095Y-131665771D02*
X144638095Y-131903866D01*
X144638095Y-131903866D02*
X144590476Y-132094342D01*
X144590476Y-132094342D02*
X144542857Y-132189580D01*
X144542857Y-132189580D02*
X144495238Y-132237200D01*
X144495238Y-132237200D02*
X144400000Y-132284819D01*
X144400000Y-132284819D02*
X144304762Y-132284819D01*
X144304762Y-132284819D02*
X144209524Y-132237200D01*
X144209524Y-132237200D02*
X144161905Y-132189580D01*
X144161905Y-132189580D02*
X144114286Y-132094342D01*
X144114286Y-132094342D02*
X144066667Y-131903866D01*
X144066667Y-131903866D02*
X144066667Y-131665771D01*
X144066667Y-131665771D02*
X144114286Y-131475295D01*
X144114286Y-131475295D02*
X144161905Y-131380057D01*
X144161905Y-131380057D02*
X144209524Y-131332438D01*
X144209524Y-131332438D02*
X144304762Y-131284819D01*
D11*
X143333333Y-130581927D02*
X143200000Y-130391451D01*
X143104762Y-130581927D02*
X143104762Y-130181927D01*
X143104762Y-130181927D02*
X143257143Y-130181927D01*
X143257143Y-130181927D02*
X143295238Y-130200975D01*
X143295238Y-130200975D02*
X143314285Y-130220022D01*
X143314285Y-130220022D02*
X143333333Y-130258118D01*
X143333333Y-130258118D02*
X143333333Y-130315260D01*
X143333333Y-130315260D02*
X143314285Y-130353356D01*
X143314285Y-130353356D02*
X143295238Y-130372403D01*
X143295238Y-130372403D02*
X143257143Y-130391451D01*
X143257143Y-130391451D02*
X143104762Y-130391451D01*
X143523809Y-130581927D02*
X143600000Y-130581927D01*
X143600000Y-130581927D02*
X143638095Y-130562880D01*
X143638095Y-130562880D02*
X143657143Y-130543832D01*
X143657143Y-130543832D02*
X143695238Y-130486689D01*
X143695238Y-130486689D02*
X143714285Y-130410499D01*
X143714285Y-130410499D02*
X143714285Y-130258118D01*
X143714285Y-130258118D02*
X143695238Y-130220022D01*
X143695238Y-130220022D02*
X143676190Y-130200975D01*
X143676190Y-130200975D02*
X143638095Y-130181927D01*
X143638095Y-130181927D02*
X143561904Y-130181927D01*
X143561904Y-130181927D02*
X143523809Y-130200975D01*
X143523809Y-130200975D02*
X143504762Y-130220022D01*
X143504762Y-130220022D02*
X143485714Y-130258118D01*
X143485714Y-130258118D02*
X143485714Y-130353356D01*
X143485714Y-130353356D02*
X143504762Y-130391451D01*
X143504762Y-130391451D02*
X143523809Y-130410499D01*
X143523809Y-130410499D02*
X143561904Y-130429546D01*
X143561904Y-130429546D02*
X143638095Y-130429546D01*
X143638095Y-130429546D02*
X143676190Y-130410499D01*
X143676190Y-130410499D02*
X143695238Y-130391451D01*
X143695238Y-130391451D02*
X143714285Y-130353356D01*
D10*
X72309523Y-148384819D02*
X71738095Y-148384819D01*
X72023809Y-148384819D02*
X72023809Y-147384819D01*
X72023809Y-147384819D02*
X71928571Y-147527676D01*
X71928571Y-147527676D02*
X71833333Y-147622914D01*
X71833333Y-147622914D02*
X71738095Y-147670533D01*
X72928571Y-147384819D02*
X73023809Y-147384819D01*
X73023809Y-147384819D02*
X73119047Y-147432438D01*
X73119047Y-147432438D02*
X73166666Y-147480057D01*
X73166666Y-147480057D02*
X73214285Y-147575295D01*
X73214285Y-147575295D02*
X73261904Y-147765771D01*
X73261904Y-147765771D02*
X73261904Y-148003866D01*
X73261904Y-148003866D02*
X73214285Y-148194342D01*
X73214285Y-148194342D02*
X73166666Y-148289580D01*
X73166666Y-148289580D02*
X73119047Y-148337200D01*
X73119047Y-148337200D02*
X73023809Y-148384819D01*
X73023809Y-148384819D02*
X72928571Y-148384819D01*
X72928571Y-148384819D02*
X72833333Y-148337200D01*
X72833333Y-148337200D02*
X72785714Y-148289580D01*
X72785714Y-148289580D02*
X72738095Y-148194342D01*
X72738095Y-148194342D02*
X72690476Y-148003866D01*
X72690476Y-148003866D02*
X72690476Y-147765771D01*
X72690476Y-147765771D02*
X72738095Y-147575295D01*
X72738095Y-147575295D02*
X72785714Y-147480057D01*
X72785714Y-147480057D02*
X72833333Y-147432438D01*
X72833333Y-147432438D02*
X72928571Y-147384819D01*
X73690476Y-148384819D02*
X73690476Y-147384819D01*
X74261904Y-148384819D02*
X73833333Y-147813390D01*
X74261904Y-147384819D02*
X73690476Y-147956247D01*
D11*
X72933333Y-146681927D02*
X72800000Y-146491451D01*
X72704762Y-146681927D02*
X72704762Y-146281927D01*
X72704762Y-146281927D02*
X72857143Y-146281927D01*
X72857143Y-146281927D02*
X72895238Y-146300975D01*
X72895238Y-146300975D02*
X72914285Y-146320022D01*
X72914285Y-146320022D02*
X72933333Y-146358118D01*
X72933333Y-146358118D02*
X72933333Y-146415260D01*
X72933333Y-146415260D02*
X72914285Y-146453356D01*
X72914285Y-146453356D02*
X72895238Y-146472403D01*
X72895238Y-146472403D02*
X72857143Y-146491451D01*
X72857143Y-146491451D02*
X72704762Y-146491451D01*
X73066666Y-146281927D02*
X73314285Y-146281927D01*
X73314285Y-146281927D02*
X73180952Y-146434308D01*
X73180952Y-146434308D02*
X73238095Y-146434308D01*
X73238095Y-146434308D02*
X73276190Y-146453356D01*
X73276190Y-146453356D02*
X73295238Y-146472403D01*
X73295238Y-146472403D02*
X73314285Y-146510499D01*
X73314285Y-146510499D02*
X73314285Y-146605737D01*
X73314285Y-146605737D02*
X73295238Y-146643832D01*
X73295238Y-146643832D02*
X73276190Y-146662880D01*
X73276190Y-146662880D02*
X73238095Y-146681927D01*
X73238095Y-146681927D02*
X73123809Y-146681927D01*
X73123809Y-146681927D02*
X73085714Y-146662880D01*
X73085714Y-146662880D02*
X73066666Y-146643832D01*
D10*
X72309523Y-143384819D02*
X71738095Y-143384819D01*
X72023809Y-143384819D02*
X72023809Y-142384819D01*
X72023809Y-142384819D02*
X71928571Y-142527676D01*
X71928571Y-142527676D02*
X71833333Y-142622914D01*
X71833333Y-142622914D02*
X71738095Y-142670533D01*
X72928571Y-142384819D02*
X73023809Y-142384819D01*
X73023809Y-142384819D02*
X73119047Y-142432438D01*
X73119047Y-142432438D02*
X73166666Y-142480057D01*
X73166666Y-142480057D02*
X73214285Y-142575295D01*
X73214285Y-142575295D02*
X73261904Y-142765771D01*
X73261904Y-142765771D02*
X73261904Y-143003866D01*
X73261904Y-143003866D02*
X73214285Y-143194342D01*
X73214285Y-143194342D02*
X73166666Y-143289580D01*
X73166666Y-143289580D02*
X73119047Y-143337200D01*
X73119047Y-143337200D02*
X73023809Y-143384819D01*
X73023809Y-143384819D02*
X72928571Y-143384819D01*
X72928571Y-143384819D02*
X72833333Y-143337200D01*
X72833333Y-143337200D02*
X72785714Y-143289580D01*
X72785714Y-143289580D02*
X72738095Y-143194342D01*
X72738095Y-143194342D02*
X72690476Y-143003866D01*
X72690476Y-143003866D02*
X72690476Y-142765771D01*
X72690476Y-142765771D02*
X72738095Y-142575295D01*
X72738095Y-142575295D02*
X72785714Y-142480057D01*
X72785714Y-142480057D02*
X72833333Y-142432438D01*
X72833333Y-142432438D02*
X72928571Y-142384819D01*
X73690476Y-143384819D02*
X73690476Y-142384819D01*
X74261904Y-143384819D02*
X73833333Y-142813390D01*
X74261904Y-142384819D02*
X73690476Y-142956247D01*
D11*
X72933333Y-141681927D02*
X72800000Y-141491451D01*
X72704762Y-141681927D02*
X72704762Y-141281927D01*
X72704762Y-141281927D02*
X72857143Y-141281927D01*
X72857143Y-141281927D02*
X72895238Y-141300975D01*
X72895238Y-141300975D02*
X72914285Y-141320022D01*
X72914285Y-141320022D02*
X72933333Y-141358118D01*
X72933333Y-141358118D02*
X72933333Y-141415260D01*
X72933333Y-141415260D02*
X72914285Y-141453356D01*
X72914285Y-141453356D02*
X72895238Y-141472403D01*
X72895238Y-141472403D02*
X72857143Y-141491451D01*
X72857143Y-141491451D02*
X72704762Y-141491451D01*
X73314285Y-141681927D02*
X73085714Y-141681927D01*
X73200000Y-141681927D02*
X73200000Y-141281927D01*
X73200000Y-141281927D02*
X73161904Y-141339070D01*
X73161904Y-141339070D02*
X73123809Y-141377165D01*
X73123809Y-141377165D02*
X73085714Y-141396213D01*
D10*
X121525057Y-116938094D02*
X121477438Y-116890475D01*
X121477438Y-116890475D02*
X121429819Y-116795237D01*
X121429819Y-116795237D02*
X121429819Y-116557142D01*
X121429819Y-116557142D02*
X121477438Y-116461904D01*
X121477438Y-116461904D02*
X121525057Y-116414285D01*
X121525057Y-116414285D02*
X121620295Y-116366666D01*
X121620295Y-116366666D02*
X121715533Y-116366666D01*
X121715533Y-116366666D02*
X121858390Y-116414285D01*
X121858390Y-116414285D02*
X122429819Y-116985713D01*
X122429819Y-116985713D02*
X122429819Y-116366666D01*
X122334580Y-115938094D02*
X122382200Y-115890475D01*
X122382200Y-115890475D02*
X122429819Y-115938094D01*
X122429819Y-115938094D02*
X122382200Y-115985713D01*
X122382200Y-115985713D02*
X122334580Y-115938094D01*
X122334580Y-115938094D02*
X122429819Y-115938094D01*
X121429819Y-115557142D02*
X121429819Y-114890476D01*
X121429819Y-114890476D02*
X122429819Y-115319047D01*
X121763152Y-114509523D02*
X122429819Y-114509523D01*
X121858390Y-114509523D02*
X121810771Y-114461904D01*
X121810771Y-114461904D02*
X121763152Y-114366666D01*
X121763152Y-114366666D02*
X121763152Y-114223809D01*
X121763152Y-114223809D02*
X121810771Y-114128571D01*
X121810771Y-114128571D02*
X121906009Y-114080952D01*
X121906009Y-114080952D02*
X122429819Y-114080952D01*
X121763152Y-113747618D02*
X121763152Y-113366666D01*
X122429819Y-113604761D02*
X121572676Y-113604761D01*
X121572676Y-113604761D02*
X121477438Y-113557142D01*
X121477438Y-113557142D02*
X121429819Y-113461904D01*
X121429819Y-113461904D02*
X121429819Y-113366666D01*
D11*
X122967857Y-118143832D02*
X122948809Y-118162880D01*
X122948809Y-118162880D02*
X122891667Y-118181927D01*
X122891667Y-118181927D02*
X122853571Y-118181927D01*
X122853571Y-118181927D02*
X122796428Y-118162880D01*
X122796428Y-118162880D02*
X122758333Y-118124784D01*
X122758333Y-118124784D02*
X122739286Y-118086689D01*
X122739286Y-118086689D02*
X122720238Y-118010499D01*
X122720238Y-118010499D02*
X122720238Y-117953356D01*
X122720238Y-117953356D02*
X122739286Y-117877165D01*
X122739286Y-117877165D02*
X122758333Y-117839070D01*
X122758333Y-117839070D02*
X122796428Y-117800975D01*
X122796428Y-117800975D02*
X122853571Y-117781927D01*
X122853571Y-117781927D02*
X122891667Y-117781927D01*
X122891667Y-117781927D02*
X122948809Y-117800975D01*
X122948809Y-117800975D02*
X122967857Y-117820022D01*
X123348809Y-118181927D02*
X123120238Y-118181927D01*
X123234524Y-118181927D02*
X123234524Y-117781927D01*
X123234524Y-117781927D02*
X123196428Y-117839070D01*
X123196428Y-117839070D02*
X123158333Y-117877165D01*
X123158333Y-117877165D02*
X123120238Y-117896213D01*
X123596428Y-117781927D02*
X123634523Y-117781927D01*
X123634523Y-117781927D02*
X123672619Y-117800975D01*
X123672619Y-117800975D02*
X123691666Y-117820022D01*
X123691666Y-117820022D02*
X123710714Y-117858118D01*
X123710714Y-117858118D02*
X123729761Y-117934308D01*
X123729761Y-117934308D02*
X123729761Y-118029546D01*
X123729761Y-118029546D02*
X123710714Y-118105737D01*
X123710714Y-118105737D02*
X123691666Y-118143832D01*
X123691666Y-118143832D02*
X123672619Y-118162880D01*
X123672619Y-118162880D02*
X123634523Y-118181927D01*
X123634523Y-118181927D02*
X123596428Y-118181927D01*
X123596428Y-118181927D02*
X123558333Y-118162880D01*
X123558333Y-118162880D02*
X123539285Y-118143832D01*
X123539285Y-118143832D02*
X123520238Y-118105737D01*
X123520238Y-118105737D02*
X123501190Y-118029546D01*
X123501190Y-118029546D02*
X123501190Y-117934308D01*
X123501190Y-117934308D02*
X123520238Y-117858118D01*
X123520238Y-117858118D02*
X123539285Y-117820022D01*
X123539285Y-117820022D02*
X123558333Y-117800975D01*
X123558333Y-117800975D02*
X123596428Y-117781927D01*
D10*
X72309523Y-145884819D02*
X71738095Y-145884819D01*
X72023809Y-145884819D02*
X72023809Y-144884819D01*
X72023809Y-144884819D02*
X71928571Y-145027676D01*
X71928571Y-145027676D02*
X71833333Y-145122914D01*
X71833333Y-145122914D02*
X71738095Y-145170533D01*
X72928571Y-144884819D02*
X73023809Y-144884819D01*
X73023809Y-144884819D02*
X73119047Y-144932438D01*
X73119047Y-144932438D02*
X73166666Y-144980057D01*
X73166666Y-144980057D02*
X73214285Y-145075295D01*
X73214285Y-145075295D02*
X73261904Y-145265771D01*
X73261904Y-145265771D02*
X73261904Y-145503866D01*
X73261904Y-145503866D02*
X73214285Y-145694342D01*
X73214285Y-145694342D02*
X73166666Y-145789580D01*
X73166666Y-145789580D02*
X73119047Y-145837200D01*
X73119047Y-145837200D02*
X73023809Y-145884819D01*
X73023809Y-145884819D02*
X72928571Y-145884819D01*
X72928571Y-145884819D02*
X72833333Y-145837200D01*
X72833333Y-145837200D02*
X72785714Y-145789580D01*
X72785714Y-145789580D02*
X72738095Y-145694342D01*
X72738095Y-145694342D02*
X72690476Y-145503866D01*
X72690476Y-145503866D02*
X72690476Y-145265771D01*
X72690476Y-145265771D02*
X72738095Y-145075295D01*
X72738095Y-145075295D02*
X72785714Y-144980057D01*
X72785714Y-144980057D02*
X72833333Y-144932438D01*
X72833333Y-144932438D02*
X72928571Y-144884819D01*
X73690476Y-145884819D02*
X73690476Y-144884819D01*
X74261904Y-145884819D02*
X73833333Y-145313390D01*
X74261904Y-144884819D02*
X73690476Y-145456247D01*
D11*
X72933333Y-144181927D02*
X72800000Y-143991451D01*
X72704762Y-144181927D02*
X72704762Y-143781927D01*
X72704762Y-143781927D02*
X72857143Y-143781927D01*
X72857143Y-143781927D02*
X72895238Y-143800975D01*
X72895238Y-143800975D02*
X72914285Y-143820022D01*
X72914285Y-143820022D02*
X72933333Y-143858118D01*
X72933333Y-143858118D02*
X72933333Y-143915260D01*
X72933333Y-143915260D02*
X72914285Y-143953356D01*
X72914285Y-143953356D02*
X72895238Y-143972403D01*
X72895238Y-143972403D02*
X72857143Y-143991451D01*
X72857143Y-143991451D02*
X72704762Y-143991451D01*
X73085714Y-143820022D02*
X73104762Y-143800975D01*
X73104762Y-143800975D02*
X73142857Y-143781927D01*
X73142857Y-143781927D02*
X73238095Y-143781927D01*
X73238095Y-143781927D02*
X73276190Y-143800975D01*
X73276190Y-143800975D02*
X73295238Y-143820022D01*
X73295238Y-143820022D02*
X73314285Y-143858118D01*
X73314285Y-143858118D02*
X73314285Y-143896213D01*
X73314285Y-143896213D02*
X73295238Y-143953356D01*
X73295238Y-143953356D02*
X73066666Y-144181927D01*
X73066666Y-144181927D02*
X73314285Y-144181927D01*
D10*
X128234819Y-125156069D02*
X128234819Y-124584641D01*
X129234819Y-124870355D02*
X128234819Y-124870355D01*
X129234819Y-123775117D02*
X129234819Y-124251307D01*
X129234819Y-124251307D02*
X128234819Y-124251307D01*
X128234819Y-123251307D02*
X128234819Y-123156069D01*
X128234819Y-123156069D02*
X128282438Y-123060831D01*
X128282438Y-123060831D02*
X128330057Y-123013212D01*
X128330057Y-123013212D02*
X128425295Y-122965593D01*
X128425295Y-122965593D02*
X128615771Y-122917974D01*
X128615771Y-122917974D02*
X128853866Y-122917974D01*
X128853866Y-122917974D02*
X129044342Y-122965593D01*
X129044342Y-122965593D02*
X129139580Y-123013212D01*
X129139580Y-123013212D02*
X129187200Y-123060831D01*
X129187200Y-123060831D02*
X129234819Y-123156069D01*
X129234819Y-123156069D02*
X129234819Y-123251307D01*
X129234819Y-123251307D02*
X129187200Y-123346545D01*
X129187200Y-123346545D02*
X129139580Y-123394164D01*
X129139580Y-123394164D02*
X129044342Y-123441783D01*
X129044342Y-123441783D02*
X128853866Y-123489402D01*
X128853866Y-123489402D02*
X128615771Y-123489402D01*
X128615771Y-123489402D02*
X128425295Y-123441783D01*
X128425295Y-123441783D02*
X128330057Y-123394164D01*
X128330057Y-123394164D02*
X128282438Y-123346545D01*
X128282438Y-123346545D02*
X128234819Y-123251307D01*
X128234819Y-122584640D02*
X128234819Y-121917974D01*
X128234819Y-121917974D02*
X129234819Y-122346545D01*
X128568152Y-121108450D02*
X129234819Y-121108450D01*
X128187200Y-121346545D02*
X128901485Y-121584640D01*
X128901485Y-121584640D02*
X128901485Y-120965593D01*
X122965566Y-123783688D02*
X123758900Y-123783688D01*
X123758900Y-123783688D02*
X123852233Y-123737022D01*
X123852233Y-123737022D02*
X123898900Y-123690355D01*
X123898900Y-123690355D02*
X123945566Y-123597022D01*
X123945566Y-123597022D02*
X123945566Y-123410355D01*
X123945566Y-123410355D02*
X123898900Y-123317022D01*
X123898900Y-123317022D02*
X123852233Y-123270355D01*
X123852233Y-123270355D02*
X123758900Y-123223688D01*
X123758900Y-123223688D02*
X122965566Y-123223688D01*
X123292233Y-122337021D02*
X123945566Y-122337021D01*
X122918900Y-122570355D02*
X123618900Y-122803688D01*
X123618900Y-122803688D02*
X123618900Y-122197021D01*
X134971428Y-135204819D02*
X134400000Y-135204819D01*
X134685714Y-135204819D02*
X134685714Y-134204819D01*
X134685714Y-134204819D02*
X134590476Y-134347676D01*
X134590476Y-134347676D02*
X134495238Y-134442914D01*
X134495238Y-134442914D02*
X134400000Y-134490533D01*
X135590476Y-134204819D02*
X135685714Y-134204819D01*
X135685714Y-134204819D02*
X135780952Y-134252438D01*
X135780952Y-134252438D02*
X135828571Y-134300057D01*
X135828571Y-134300057D02*
X135876190Y-134395295D01*
X135876190Y-134395295D02*
X135923809Y-134585771D01*
X135923809Y-134585771D02*
X135923809Y-134823866D01*
X135923809Y-134823866D02*
X135876190Y-135014342D01*
X135876190Y-135014342D02*
X135828571Y-135109580D01*
X135828571Y-135109580D02*
X135780952Y-135157200D01*
X135780952Y-135157200D02*
X135685714Y-135204819D01*
X135685714Y-135204819D02*
X135590476Y-135204819D01*
X135590476Y-135204819D02*
X135495238Y-135157200D01*
X135495238Y-135157200D02*
X135447619Y-135109580D01*
X135447619Y-135109580D02*
X135400000Y-135014342D01*
X135400000Y-135014342D02*
X135352381Y-134823866D01*
X135352381Y-134823866D02*
X135352381Y-134585771D01*
X135352381Y-134585771D02*
X135400000Y-134395295D01*
X135400000Y-134395295D02*
X135447619Y-134300057D01*
X135447619Y-134300057D02*
X135495238Y-134252438D01*
X135495238Y-134252438D02*
X135590476Y-134204819D01*
X136780952Y-134538152D02*
X136780952Y-135204819D01*
X136352381Y-134538152D02*
X136352381Y-135061961D01*
X136352381Y-135061961D02*
X136400000Y-135157200D01*
X136400000Y-135157200D02*
X136495238Y-135204819D01*
X136495238Y-135204819D02*
X136638095Y-135204819D01*
X136638095Y-135204819D02*
X136733333Y-135157200D01*
X136733333Y-135157200D02*
X136780952Y-135109580D01*
X137114286Y-134538152D02*
X137495238Y-134538152D01*
X137257143Y-135204819D02*
X137257143Y-134347676D01*
X137257143Y-134347676D02*
X137304762Y-134252438D01*
X137304762Y-134252438D02*
X137400000Y-134204819D01*
X137400000Y-134204819D02*
X137495238Y-134204819D01*
X135257142Y-130759580D02*
X135209523Y-130807200D01*
X135209523Y-130807200D02*
X135066666Y-130854819D01*
X135066666Y-130854819D02*
X134971428Y-130854819D01*
X134971428Y-130854819D02*
X134828571Y-130807200D01*
X134828571Y-130807200D02*
X134733333Y-130711961D01*
X134733333Y-130711961D02*
X134685714Y-130616723D01*
X134685714Y-130616723D02*
X134638095Y-130426247D01*
X134638095Y-130426247D02*
X134638095Y-130283390D01*
X134638095Y-130283390D02*
X134685714Y-130092914D01*
X134685714Y-130092914D02*
X134733333Y-129997676D01*
X134733333Y-129997676D02*
X134828571Y-129902438D01*
X134828571Y-129902438D02*
X134971428Y-129854819D01*
X134971428Y-129854819D02*
X135066666Y-129854819D01*
X135066666Y-129854819D02*
X135209523Y-129902438D01*
X135209523Y-129902438D02*
X135257142Y-129950057D01*
X136209523Y-130854819D02*
X135638095Y-130854819D01*
X135923809Y-130854819D02*
X135923809Y-129854819D01*
X135923809Y-129854819D02*
X135828571Y-129997676D01*
X135828571Y-129997676D02*
X135733333Y-130092914D01*
X135733333Y-130092914D02*
X135638095Y-130140533D01*
X137066666Y-129854819D02*
X136876190Y-129854819D01*
X136876190Y-129854819D02*
X136780952Y-129902438D01*
X136780952Y-129902438D02*
X136733333Y-129950057D01*
X136733333Y-129950057D02*
X136638095Y-130092914D01*
X136638095Y-130092914D02*
X136590476Y-130283390D01*
X136590476Y-130283390D02*
X136590476Y-130664342D01*
X136590476Y-130664342D02*
X136638095Y-130759580D01*
X136638095Y-130759580D02*
X136685714Y-130807200D01*
X136685714Y-130807200D02*
X136780952Y-130854819D01*
X136780952Y-130854819D02*
X136971428Y-130854819D01*
X136971428Y-130854819D02*
X137066666Y-130807200D01*
X137066666Y-130807200D02*
X137114285Y-130759580D01*
X137114285Y-130759580D02*
X137161904Y-130664342D01*
X137161904Y-130664342D02*
X137161904Y-130426247D01*
X137161904Y-130426247D02*
X137114285Y-130331009D01*
X137114285Y-130331009D02*
X137066666Y-130283390D01*
X137066666Y-130283390D02*
X136971428Y-130235771D01*
X136971428Y-130235771D02*
X136780952Y-130235771D01*
X136780952Y-130235771D02*
X136685714Y-130283390D01*
X136685714Y-130283390D02*
X136638095Y-130331009D01*
X136638095Y-130331009D02*
X136590476Y-130426247D01*
X72309523Y-150884819D02*
X71738095Y-150884819D01*
X72023809Y-150884819D02*
X72023809Y-149884819D01*
X72023809Y-149884819D02*
X71928571Y-150027676D01*
X71928571Y-150027676D02*
X71833333Y-150122914D01*
X71833333Y-150122914D02*
X71738095Y-150170533D01*
X72928571Y-149884819D02*
X73023809Y-149884819D01*
X73023809Y-149884819D02*
X73119047Y-149932438D01*
X73119047Y-149932438D02*
X73166666Y-149980057D01*
X73166666Y-149980057D02*
X73214285Y-150075295D01*
X73214285Y-150075295D02*
X73261904Y-150265771D01*
X73261904Y-150265771D02*
X73261904Y-150503866D01*
X73261904Y-150503866D02*
X73214285Y-150694342D01*
X73214285Y-150694342D02*
X73166666Y-150789580D01*
X73166666Y-150789580D02*
X73119047Y-150837200D01*
X73119047Y-150837200D02*
X73023809Y-150884819D01*
X73023809Y-150884819D02*
X72928571Y-150884819D01*
X72928571Y-150884819D02*
X72833333Y-150837200D01*
X72833333Y-150837200D02*
X72785714Y-150789580D01*
X72785714Y-150789580D02*
X72738095Y-150694342D01*
X72738095Y-150694342D02*
X72690476Y-150503866D01*
X72690476Y-150503866D02*
X72690476Y-150265771D01*
X72690476Y-150265771D02*
X72738095Y-150075295D01*
X72738095Y-150075295D02*
X72785714Y-149980057D01*
X72785714Y-149980057D02*
X72833333Y-149932438D01*
X72833333Y-149932438D02*
X72928571Y-149884819D01*
X73690476Y-150884819D02*
X73690476Y-149884819D01*
X74261904Y-150884819D02*
X73833333Y-150313390D01*
X74261904Y-149884819D02*
X73690476Y-150456247D01*
D11*
X72933333Y-149181927D02*
X72800000Y-148991451D01*
X72704762Y-149181927D02*
X72704762Y-148781927D01*
X72704762Y-148781927D02*
X72857143Y-148781927D01*
X72857143Y-148781927D02*
X72895238Y-148800975D01*
X72895238Y-148800975D02*
X72914285Y-148820022D01*
X72914285Y-148820022D02*
X72933333Y-148858118D01*
X72933333Y-148858118D02*
X72933333Y-148915260D01*
X72933333Y-148915260D02*
X72914285Y-148953356D01*
X72914285Y-148953356D02*
X72895238Y-148972403D01*
X72895238Y-148972403D02*
X72857143Y-148991451D01*
X72857143Y-148991451D02*
X72704762Y-148991451D01*
X73276190Y-148915260D02*
X73276190Y-149181927D01*
X73180952Y-148762880D02*
X73085714Y-149048594D01*
X73085714Y-149048594D02*
X73333333Y-149048594D01*
D10*
X100952380Y-152104819D02*
X100380952Y-152104819D01*
X100666666Y-152104819D02*
X100666666Y-151104819D01*
X100666666Y-151104819D02*
X100571428Y-151247676D01*
X100571428Y-151247676D02*
X100476190Y-151342914D01*
X100476190Y-151342914D02*
X100380952Y-151390533D01*
X101571428Y-151104819D02*
X101666666Y-151104819D01*
X101666666Y-151104819D02*
X101761904Y-151152438D01*
X101761904Y-151152438D02*
X101809523Y-151200057D01*
X101809523Y-151200057D02*
X101857142Y-151295295D01*
X101857142Y-151295295D02*
X101904761Y-151485771D01*
X101904761Y-151485771D02*
X101904761Y-151723866D01*
X101904761Y-151723866D02*
X101857142Y-151914342D01*
X101857142Y-151914342D02*
X101809523Y-152009580D01*
X101809523Y-152009580D02*
X101761904Y-152057200D01*
X101761904Y-152057200D02*
X101666666Y-152104819D01*
X101666666Y-152104819D02*
X101571428Y-152104819D01*
X101571428Y-152104819D02*
X101476190Y-152057200D01*
X101476190Y-152057200D02*
X101428571Y-152009580D01*
X101428571Y-152009580D02*
X101380952Y-151914342D01*
X101380952Y-151914342D02*
X101333333Y-151723866D01*
X101333333Y-151723866D02*
X101333333Y-151485771D01*
X101333333Y-151485771D02*
X101380952Y-151295295D01*
X101380952Y-151295295D02*
X101428571Y-151200057D01*
X101428571Y-151200057D02*
X101476190Y-151152438D01*
X101476190Y-151152438D02*
X101571428Y-151104819D01*
X102523809Y-151104819D02*
X102619047Y-151104819D01*
X102619047Y-151104819D02*
X102714285Y-151152438D01*
X102714285Y-151152438D02*
X102761904Y-151200057D01*
X102761904Y-151200057D02*
X102809523Y-151295295D01*
X102809523Y-151295295D02*
X102857142Y-151485771D01*
X102857142Y-151485771D02*
X102857142Y-151723866D01*
X102857142Y-151723866D02*
X102809523Y-151914342D01*
X102809523Y-151914342D02*
X102761904Y-152009580D01*
X102761904Y-152009580D02*
X102714285Y-152057200D01*
X102714285Y-152057200D02*
X102619047Y-152104819D01*
X102619047Y-152104819D02*
X102523809Y-152104819D01*
X102523809Y-152104819D02*
X102428571Y-152057200D01*
X102428571Y-152057200D02*
X102380952Y-152009580D01*
X102380952Y-152009580D02*
X102333333Y-151914342D01*
X102333333Y-151914342D02*
X102285714Y-151723866D01*
X102285714Y-151723866D02*
X102285714Y-151485771D01*
X102285714Y-151485771D02*
X102333333Y-151295295D01*
X102333333Y-151295295D02*
X102380952Y-151200057D01*
X102380952Y-151200057D02*
X102428571Y-151152438D01*
X102428571Y-151152438D02*
X102523809Y-151104819D01*
X103714285Y-151438152D02*
X103714285Y-152104819D01*
X103285714Y-151438152D02*
X103285714Y-151961961D01*
X103285714Y-151961961D02*
X103333333Y-152057200D01*
X103333333Y-152057200D02*
X103428571Y-152104819D01*
X103428571Y-152104819D02*
X103571428Y-152104819D01*
X103571428Y-152104819D02*
X103666666Y-152057200D01*
X103666666Y-152057200D02*
X103714285Y-152009580D01*
X104523809Y-151581009D02*
X104190476Y-151581009D01*
X104190476Y-152104819D02*
X104190476Y-151104819D01*
X104190476Y-151104819D02*
X104666666Y-151104819D01*
X102333333Y-156359580D02*
X102285714Y-156407200D01*
X102285714Y-156407200D02*
X102142857Y-156454819D01*
X102142857Y-156454819D02*
X102047619Y-156454819D01*
X102047619Y-156454819D02*
X101904762Y-156407200D01*
X101904762Y-156407200D02*
X101809524Y-156311961D01*
X101809524Y-156311961D02*
X101761905Y-156216723D01*
X101761905Y-156216723D02*
X101714286Y-156026247D01*
X101714286Y-156026247D02*
X101714286Y-155883390D01*
X101714286Y-155883390D02*
X101761905Y-155692914D01*
X101761905Y-155692914D02*
X101809524Y-155597676D01*
X101809524Y-155597676D02*
X101904762Y-155502438D01*
X101904762Y-155502438D02*
X102047619Y-155454819D01*
X102047619Y-155454819D02*
X102142857Y-155454819D01*
X102142857Y-155454819D02*
X102285714Y-155502438D01*
X102285714Y-155502438D02*
X102333333Y-155550057D01*
X103238095Y-155454819D02*
X102761905Y-155454819D01*
X102761905Y-155454819D02*
X102714286Y-155931009D01*
X102714286Y-155931009D02*
X102761905Y-155883390D01*
X102761905Y-155883390D02*
X102857143Y-155835771D01*
X102857143Y-155835771D02*
X103095238Y-155835771D01*
X103095238Y-155835771D02*
X103190476Y-155883390D01*
X103190476Y-155883390D02*
X103238095Y-155931009D01*
X103238095Y-155931009D02*
X103285714Y-156026247D01*
X103285714Y-156026247D02*
X103285714Y-156264342D01*
X103285714Y-156264342D02*
X103238095Y-156359580D01*
X103238095Y-156359580D02*
X103190476Y-156407200D01*
X103190476Y-156407200D02*
X103095238Y-156454819D01*
X103095238Y-156454819D02*
X102857143Y-156454819D01*
X102857143Y-156454819D02*
X102761905Y-156407200D01*
X102761905Y-156407200D02*
X102714286Y-156359580D01*
X101571428Y-141604819D02*
X101000000Y-141604819D01*
X101285714Y-141604819D02*
X101285714Y-140604819D01*
X101285714Y-140604819D02*
X101190476Y-140747676D01*
X101190476Y-140747676D02*
X101095238Y-140842914D01*
X101095238Y-140842914D02*
X101000000Y-140890533D01*
X102190476Y-140604819D02*
X102285714Y-140604819D01*
X102285714Y-140604819D02*
X102380952Y-140652438D01*
X102380952Y-140652438D02*
X102428571Y-140700057D01*
X102428571Y-140700057D02*
X102476190Y-140795295D01*
X102476190Y-140795295D02*
X102523809Y-140985771D01*
X102523809Y-140985771D02*
X102523809Y-141223866D01*
X102523809Y-141223866D02*
X102476190Y-141414342D01*
X102476190Y-141414342D02*
X102428571Y-141509580D01*
X102428571Y-141509580D02*
X102380952Y-141557200D01*
X102380952Y-141557200D02*
X102285714Y-141604819D01*
X102285714Y-141604819D02*
X102190476Y-141604819D01*
X102190476Y-141604819D02*
X102095238Y-141557200D01*
X102095238Y-141557200D02*
X102047619Y-141509580D01*
X102047619Y-141509580D02*
X102000000Y-141414342D01*
X102000000Y-141414342D02*
X101952381Y-141223866D01*
X101952381Y-141223866D02*
X101952381Y-140985771D01*
X101952381Y-140985771D02*
X102000000Y-140795295D01*
X102000000Y-140795295D02*
X102047619Y-140700057D01*
X102047619Y-140700057D02*
X102095238Y-140652438D01*
X102095238Y-140652438D02*
X102190476Y-140604819D01*
X103380952Y-140938152D02*
X103380952Y-141604819D01*
X102952381Y-140938152D02*
X102952381Y-141461961D01*
X102952381Y-141461961D02*
X103000000Y-141557200D01*
X103000000Y-141557200D02*
X103095238Y-141604819D01*
X103095238Y-141604819D02*
X103238095Y-141604819D01*
X103238095Y-141604819D02*
X103333333Y-141557200D01*
X103333333Y-141557200D02*
X103380952Y-141509580D01*
X103714286Y-140938152D02*
X104095238Y-140938152D01*
X103857143Y-141604819D02*
X103857143Y-140747676D01*
X103857143Y-140747676D02*
X103904762Y-140652438D01*
X103904762Y-140652438D02*
X104000000Y-140604819D01*
X104000000Y-140604819D02*
X104095238Y-140604819D01*
X102333333Y-145859580D02*
X102285714Y-145907200D01*
X102285714Y-145907200D02*
X102142857Y-145954819D01*
X102142857Y-145954819D02*
X102047619Y-145954819D01*
X102047619Y-145954819D02*
X101904762Y-145907200D01*
X101904762Y-145907200D02*
X101809524Y-145811961D01*
X101809524Y-145811961D02*
X101761905Y-145716723D01*
X101761905Y-145716723D02*
X101714286Y-145526247D01*
X101714286Y-145526247D02*
X101714286Y-145383390D01*
X101714286Y-145383390D02*
X101761905Y-145192914D01*
X101761905Y-145192914D02*
X101809524Y-145097676D01*
X101809524Y-145097676D02*
X101904762Y-145002438D01*
X101904762Y-145002438D02*
X102047619Y-144954819D01*
X102047619Y-144954819D02*
X102142857Y-144954819D01*
X102142857Y-144954819D02*
X102285714Y-145002438D01*
X102285714Y-145002438D02*
X102333333Y-145050057D01*
X102714286Y-145050057D02*
X102761905Y-145002438D01*
X102761905Y-145002438D02*
X102857143Y-144954819D01*
X102857143Y-144954819D02*
X103095238Y-144954819D01*
X103095238Y-144954819D02*
X103190476Y-145002438D01*
X103190476Y-145002438D02*
X103238095Y-145050057D01*
X103238095Y-145050057D02*
X103285714Y-145145295D01*
X103285714Y-145145295D02*
X103285714Y-145240533D01*
X103285714Y-145240533D02*
X103238095Y-145383390D01*
X103238095Y-145383390D02*
X102666667Y-145954819D01*
X102666667Y-145954819D02*
X103285714Y-145954819D01*
X134971428Y-125204819D02*
X134400000Y-125204819D01*
X134685714Y-125204819D02*
X134685714Y-124204819D01*
X134685714Y-124204819D02*
X134590476Y-124347676D01*
X134590476Y-124347676D02*
X134495238Y-124442914D01*
X134495238Y-124442914D02*
X134400000Y-124490533D01*
X135590476Y-124204819D02*
X135685714Y-124204819D01*
X135685714Y-124204819D02*
X135780952Y-124252438D01*
X135780952Y-124252438D02*
X135828571Y-124300057D01*
X135828571Y-124300057D02*
X135876190Y-124395295D01*
X135876190Y-124395295D02*
X135923809Y-124585771D01*
X135923809Y-124585771D02*
X135923809Y-124823866D01*
X135923809Y-124823866D02*
X135876190Y-125014342D01*
X135876190Y-125014342D02*
X135828571Y-125109580D01*
X135828571Y-125109580D02*
X135780952Y-125157200D01*
X135780952Y-125157200D02*
X135685714Y-125204819D01*
X135685714Y-125204819D02*
X135590476Y-125204819D01*
X135590476Y-125204819D02*
X135495238Y-125157200D01*
X135495238Y-125157200D02*
X135447619Y-125109580D01*
X135447619Y-125109580D02*
X135400000Y-125014342D01*
X135400000Y-125014342D02*
X135352381Y-124823866D01*
X135352381Y-124823866D02*
X135352381Y-124585771D01*
X135352381Y-124585771D02*
X135400000Y-124395295D01*
X135400000Y-124395295D02*
X135447619Y-124300057D01*
X135447619Y-124300057D02*
X135495238Y-124252438D01*
X135495238Y-124252438D02*
X135590476Y-124204819D01*
X136780952Y-124538152D02*
X136780952Y-125204819D01*
X136352381Y-124538152D02*
X136352381Y-125061961D01*
X136352381Y-125061961D02*
X136400000Y-125157200D01*
X136400000Y-125157200D02*
X136495238Y-125204819D01*
X136495238Y-125204819D02*
X136638095Y-125204819D01*
X136638095Y-125204819D02*
X136733333Y-125157200D01*
X136733333Y-125157200D02*
X136780952Y-125109580D01*
X137114286Y-124538152D02*
X137495238Y-124538152D01*
X137257143Y-125204819D02*
X137257143Y-124347676D01*
X137257143Y-124347676D02*
X137304762Y-124252438D01*
X137304762Y-124252438D02*
X137400000Y-124204819D01*
X137400000Y-124204819D02*
X137495238Y-124204819D01*
X135257142Y-120759580D02*
X135209523Y-120807200D01*
X135209523Y-120807200D02*
X135066666Y-120854819D01*
X135066666Y-120854819D02*
X134971428Y-120854819D01*
X134971428Y-120854819D02*
X134828571Y-120807200D01*
X134828571Y-120807200D02*
X134733333Y-120711961D01*
X134733333Y-120711961D02*
X134685714Y-120616723D01*
X134685714Y-120616723D02*
X134638095Y-120426247D01*
X134638095Y-120426247D02*
X134638095Y-120283390D01*
X134638095Y-120283390D02*
X134685714Y-120092914D01*
X134685714Y-120092914D02*
X134733333Y-119997676D01*
X134733333Y-119997676D02*
X134828571Y-119902438D01*
X134828571Y-119902438D02*
X134971428Y-119854819D01*
X134971428Y-119854819D02*
X135066666Y-119854819D01*
X135066666Y-119854819D02*
X135209523Y-119902438D01*
X135209523Y-119902438D02*
X135257142Y-119950057D01*
X136209523Y-120854819D02*
X135638095Y-120854819D01*
X135923809Y-120854819D02*
X135923809Y-119854819D01*
X135923809Y-119854819D02*
X135828571Y-119997676D01*
X135828571Y-119997676D02*
X135733333Y-120092914D01*
X135733333Y-120092914D02*
X135638095Y-120140533D01*
X137114285Y-119854819D02*
X136638095Y-119854819D01*
X136638095Y-119854819D02*
X136590476Y-120331009D01*
X136590476Y-120331009D02*
X136638095Y-120283390D01*
X136638095Y-120283390D02*
X136733333Y-120235771D01*
X136733333Y-120235771D02*
X136971428Y-120235771D01*
X136971428Y-120235771D02*
X137066666Y-120283390D01*
X137066666Y-120283390D02*
X137114285Y-120331009D01*
X137114285Y-120331009D02*
X137161904Y-120426247D01*
X137161904Y-120426247D02*
X137161904Y-120664342D01*
X137161904Y-120664342D02*
X137114285Y-120759580D01*
X137114285Y-120759580D02*
X137066666Y-120807200D01*
X137066666Y-120807200D02*
X136971428Y-120854819D01*
X136971428Y-120854819D02*
X136733333Y-120854819D01*
X136733333Y-120854819D02*
X136638095Y-120807200D01*
X136638095Y-120807200D02*
X136590476Y-120759580D01*
X148318819Y-148418856D02*
X148318819Y-148323618D01*
X148318819Y-148323618D02*
X148366438Y-148228380D01*
X148366438Y-148228380D02*
X148414057Y-148180761D01*
X148414057Y-148180761D02*
X148509295Y-148133142D01*
X148509295Y-148133142D02*
X148699771Y-148085523D01*
X148699771Y-148085523D02*
X148937866Y-148085523D01*
X148937866Y-148085523D02*
X149128342Y-148133142D01*
X149128342Y-148133142D02*
X149223580Y-148180761D01*
X149223580Y-148180761D02*
X149271200Y-148228380D01*
X149271200Y-148228380D02*
X149318819Y-148323618D01*
X149318819Y-148323618D02*
X149318819Y-148418856D01*
X149318819Y-148418856D02*
X149271200Y-148514094D01*
X149271200Y-148514094D02*
X149223580Y-148561713D01*
X149223580Y-148561713D02*
X149128342Y-148609332D01*
X149128342Y-148609332D02*
X148937866Y-148656951D01*
X148937866Y-148656951D02*
X148699771Y-148656951D01*
X148699771Y-148656951D02*
X148509295Y-148609332D01*
X148509295Y-148609332D02*
X148414057Y-148561713D01*
X148414057Y-148561713D02*
X148366438Y-148514094D01*
X148366438Y-148514094D02*
X148318819Y-148418856D01*
X149223580Y-147656951D02*
X149271200Y-147609332D01*
X149271200Y-147609332D02*
X149318819Y-147656951D01*
X149318819Y-147656951D02*
X149271200Y-147704570D01*
X149271200Y-147704570D02*
X149223580Y-147656951D01*
X149223580Y-147656951D02*
X149318819Y-147656951D01*
X149318819Y-146656952D02*
X149318819Y-147228380D01*
X149318819Y-146942666D02*
X148318819Y-146942666D01*
X148318819Y-146942666D02*
X148461676Y-147037904D01*
X148461676Y-147037904D02*
X148556914Y-147133142D01*
X148556914Y-147133142D02*
X148604533Y-147228380D01*
X148652152Y-145799809D02*
X149318819Y-145799809D01*
X148652152Y-146228380D02*
X149175961Y-146228380D01*
X149175961Y-146228380D02*
X149271200Y-146180761D01*
X149271200Y-146180761D02*
X149318819Y-146085523D01*
X149318819Y-146085523D02*
X149318819Y-145942666D01*
X149318819Y-145942666D02*
X149271200Y-145847428D01*
X149271200Y-145847428D02*
X149223580Y-145799809D01*
X148795009Y-144990285D02*
X148795009Y-145323618D01*
X149318819Y-145323618D02*
X148318819Y-145323618D01*
X148318819Y-145323618D02*
X148318819Y-144847428D01*
D11*
X150106857Y-149169832D02*
X150087809Y-149188880D01*
X150087809Y-149188880D02*
X150030667Y-149207927D01*
X150030667Y-149207927D02*
X149992571Y-149207927D01*
X149992571Y-149207927D02*
X149935428Y-149188880D01*
X149935428Y-149188880D02*
X149897333Y-149150784D01*
X149897333Y-149150784D02*
X149878286Y-149112689D01*
X149878286Y-149112689D02*
X149859238Y-149036499D01*
X149859238Y-149036499D02*
X149859238Y-148979356D01*
X149859238Y-148979356D02*
X149878286Y-148903165D01*
X149878286Y-148903165D02*
X149897333Y-148865070D01*
X149897333Y-148865070D02*
X149935428Y-148826975D01*
X149935428Y-148826975D02*
X149992571Y-148807927D01*
X149992571Y-148807927D02*
X150030667Y-148807927D01*
X150030667Y-148807927D02*
X150087809Y-148826975D01*
X150087809Y-148826975D02*
X150106857Y-148846022D01*
X150487809Y-149207927D02*
X150259238Y-149207927D01*
X150373524Y-149207927D02*
X150373524Y-148807927D01*
X150373524Y-148807927D02*
X150335428Y-148865070D01*
X150335428Y-148865070D02*
X150297333Y-148903165D01*
X150297333Y-148903165D02*
X150259238Y-148922213D01*
X150678285Y-149207927D02*
X150754476Y-149207927D01*
X150754476Y-149207927D02*
X150792571Y-149188880D01*
X150792571Y-149188880D02*
X150811619Y-149169832D01*
X150811619Y-149169832D02*
X150849714Y-149112689D01*
X150849714Y-149112689D02*
X150868761Y-149036499D01*
X150868761Y-149036499D02*
X150868761Y-148884118D01*
X150868761Y-148884118D02*
X150849714Y-148846022D01*
X150849714Y-148846022D02*
X150830666Y-148826975D01*
X150830666Y-148826975D02*
X150792571Y-148807927D01*
X150792571Y-148807927D02*
X150716380Y-148807927D01*
X150716380Y-148807927D02*
X150678285Y-148826975D01*
X150678285Y-148826975D02*
X150659238Y-148846022D01*
X150659238Y-148846022D02*
X150640190Y-148884118D01*
X150640190Y-148884118D02*
X150640190Y-148979356D01*
X150640190Y-148979356D02*
X150659238Y-149017451D01*
X150659238Y-149017451D02*
X150678285Y-149036499D01*
X150678285Y-149036499D02*
X150716380Y-149055546D01*
X150716380Y-149055546D02*
X150792571Y-149055546D01*
X150792571Y-149055546D02*
X150830666Y-149036499D01*
X150830666Y-149036499D02*
X150849714Y-149017451D01*
X150849714Y-149017451D02*
X150868761Y-148979356D01*
D10*
X142709523Y-126284819D02*
X142138095Y-126284819D01*
X142423809Y-126284819D02*
X142423809Y-125284819D01*
X142423809Y-125284819D02*
X142328571Y-125427676D01*
X142328571Y-125427676D02*
X142233333Y-125522914D01*
X142233333Y-125522914D02*
X142138095Y-125570533D01*
X143328571Y-125284819D02*
X143423809Y-125284819D01*
X143423809Y-125284819D02*
X143519047Y-125332438D01*
X143519047Y-125332438D02*
X143566666Y-125380057D01*
X143566666Y-125380057D02*
X143614285Y-125475295D01*
X143614285Y-125475295D02*
X143661904Y-125665771D01*
X143661904Y-125665771D02*
X143661904Y-125903866D01*
X143661904Y-125903866D02*
X143614285Y-126094342D01*
X143614285Y-126094342D02*
X143566666Y-126189580D01*
X143566666Y-126189580D02*
X143519047Y-126237200D01*
X143519047Y-126237200D02*
X143423809Y-126284819D01*
X143423809Y-126284819D02*
X143328571Y-126284819D01*
X143328571Y-126284819D02*
X143233333Y-126237200D01*
X143233333Y-126237200D02*
X143185714Y-126189580D01*
X143185714Y-126189580D02*
X143138095Y-126094342D01*
X143138095Y-126094342D02*
X143090476Y-125903866D01*
X143090476Y-125903866D02*
X143090476Y-125665771D01*
X143090476Y-125665771D02*
X143138095Y-125475295D01*
X143138095Y-125475295D02*
X143185714Y-125380057D01*
X143185714Y-125380057D02*
X143233333Y-125332438D01*
X143233333Y-125332438D02*
X143328571Y-125284819D01*
X144090476Y-126284819D02*
X144090476Y-125284819D01*
X144661904Y-126284819D02*
X144233333Y-125713390D01*
X144661904Y-125284819D02*
X144090476Y-125856247D01*
D11*
X143142857Y-124581927D02*
X143009524Y-124391451D01*
X142914286Y-124581927D02*
X142914286Y-124181927D01*
X142914286Y-124181927D02*
X143066667Y-124181927D01*
X143066667Y-124181927D02*
X143104762Y-124200975D01*
X143104762Y-124200975D02*
X143123809Y-124220022D01*
X143123809Y-124220022D02*
X143142857Y-124258118D01*
X143142857Y-124258118D02*
X143142857Y-124315260D01*
X143142857Y-124315260D02*
X143123809Y-124353356D01*
X143123809Y-124353356D02*
X143104762Y-124372403D01*
X143104762Y-124372403D02*
X143066667Y-124391451D01*
X143066667Y-124391451D02*
X142914286Y-124391451D01*
X143523809Y-124581927D02*
X143295238Y-124581927D01*
X143409524Y-124581927D02*
X143409524Y-124181927D01*
X143409524Y-124181927D02*
X143371428Y-124239070D01*
X143371428Y-124239070D02*
X143333333Y-124277165D01*
X143333333Y-124277165D02*
X143295238Y-124296213D01*
X143771428Y-124181927D02*
X143809523Y-124181927D01*
X143809523Y-124181927D02*
X143847619Y-124200975D01*
X143847619Y-124200975D02*
X143866666Y-124220022D01*
X143866666Y-124220022D02*
X143885714Y-124258118D01*
X143885714Y-124258118D02*
X143904761Y-124334308D01*
X143904761Y-124334308D02*
X143904761Y-124429546D01*
X143904761Y-124429546D02*
X143885714Y-124505737D01*
X143885714Y-124505737D02*
X143866666Y-124543832D01*
X143866666Y-124543832D02*
X143847619Y-124562880D01*
X143847619Y-124562880D02*
X143809523Y-124581927D01*
X143809523Y-124581927D02*
X143771428Y-124581927D01*
X143771428Y-124581927D02*
X143733333Y-124562880D01*
X143733333Y-124562880D02*
X143714285Y-124543832D01*
X143714285Y-124543832D02*
X143695238Y-124505737D01*
X143695238Y-124505737D02*
X143676190Y-124429546D01*
X143676190Y-124429546D02*
X143676190Y-124334308D01*
X143676190Y-124334308D02*
X143695238Y-124258118D01*
X143695238Y-124258118D02*
X143714285Y-124220022D01*
X143714285Y-124220022D02*
X143733333Y-124200975D01*
X143733333Y-124200975D02*
X143771428Y-124181927D01*
D10*
X142709523Y-136284819D02*
X142138095Y-136284819D01*
X142423809Y-136284819D02*
X142423809Y-135284819D01*
X142423809Y-135284819D02*
X142328571Y-135427676D01*
X142328571Y-135427676D02*
X142233333Y-135522914D01*
X142233333Y-135522914D02*
X142138095Y-135570533D01*
X143328571Y-135284819D02*
X143423809Y-135284819D01*
X143423809Y-135284819D02*
X143519047Y-135332438D01*
X143519047Y-135332438D02*
X143566666Y-135380057D01*
X143566666Y-135380057D02*
X143614285Y-135475295D01*
X143614285Y-135475295D02*
X143661904Y-135665771D01*
X143661904Y-135665771D02*
X143661904Y-135903866D01*
X143661904Y-135903866D02*
X143614285Y-136094342D01*
X143614285Y-136094342D02*
X143566666Y-136189580D01*
X143566666Y-136189580D02*
X143519047Y-136237200D01*
X143519047Y-136237200D02*
X143423809Y-136284819D01*
X143423809Y-136284819D02*
X143328571Y-136284819D01*
X143328571Y-136284819D02*
X143233333Y-136237200D01*
X143233333Y-136237200D02*
X143185714Y-136189580D01*
X143185714Y-136189580D02*
X143138095Y-136094342D01*
X143138095Y-136094342D02*
X143090476Y-135903866D01*
X143090476Y-135903866D02*
X143090476Y-135665771D01*
X143090476Y-135665771D02*
X143138095Y-135475295D01*
X143138095Y-135475295D02*
X143185714Y-135380057D01*
X143185714Y-135380057D02*
X143233333Y-135332438D01*
X143233333Y-135332438D02*
X143328571Y-135284819D01*
X144090476Y-136284819D02*
X144090476Y-135284819D01*
X144661904Y-136284819D02*
X144233333Y-135713390D01*
X144661904Y-135284819D02*
X144090476Y-135856247D01*
D11*
X143142857Y-134581927D02*
X143009524Y-134391451D01*
X142914286Y-134581927D02*
X142914286Y-134181927D01*
X142914286Y-134181927D02*
X143066667Y-134181927D01*
X143066667Y-134181927D02*
X143104762Y-134200975D01*
X143104762Y-134200975D02*
X143123809Y-134220022D01*
X143123809Y-134220022D02*
X143142857Y-134258118D01*
X143142857Y-134258118D02*
X143142857Y-134315260D01*
X143142857Y-134315260D02*
X143123809Y-134353356D01*
X143123809Y-134353356D02*
X143104762Y-134372403D01*
X143104762Y-134372403D02*
X143066667Y-134391451D01*
X143066667Y-134391451D02*
X142914286Y-134391451D01*
X143523809Y-134581927D02*
X143295238Y-134581927D01*
X143409524Y-134581927D02*
X143409524Y-134181927D01*
X143409524Y-134181927D02*
X143371428Y-134239070D01*
X143371428Y-134239070D02*
X143333333Y-134277165D01*
X143333333Y-134277165D02*
X143295238Y-134296213D01*
X143904761Y-134581927D02*
X143676190Y-134581927D01*
X143790476Y-134581927D02*
X143790476Y-134181927D01*
X143790476Y-134181927D02*
X143752380Y-134239070D01*
X143752380Y-134239070D02*
X143714285Y-134277165D01*
X143714285Y-134277165D02*
X143676190Y-134296213D01*
D12*
%TO.C,C1*%
X80200000Y-142100000D02*
X81800000Y-142100000D01*
X80200000Y-142900000D02*
X80200000Y-142100000D01*
X81800000Y-142100000D02*
X81800000Y-142900000D01*
X81800000Y-142900000D02*
X80200000Y-142900000D01*
%TO.C,C7*%
X117525000Y-141300000D02*
X119125000Y-141300000D01*
X117525000Y-142100000D02*
X117525000Y-141300000D01*
X119125000Y-141300000D02*
X119125000Y-142100000D01*
X119125000Y-142100000D02*
X117525000Y-142100000D01*
%TO.C,CON1*%
X145869000Y-131595000D02*
X145869000Y-119595000D01*
X158969000Y-131595000D02*
X145869000Y-131595000D01*
X159869000Y-119595000D02*
X145869000Y-119595000D01*
X159869000Y-130695000D02*
X158969000Y-131595000D01*
X159869000Y-130695000D02*
X159869000Y-119595000D01*
%TO.C,JP1*%
X61190000Y-140190000D02*
X66270000Y-140190000D01*
X61190000Y-155430000D02*
X61190000Y-140190000D01*
X65000000Y-155430000D02*
X61190000Y-155430000D01*
X66270000Y-140190000D02*
X66270000Y-154160000D01*
X66270000Y-154160000D02*
X65000000Y-155430000D01*
%TO.C,P1*%
X60230000Y-162230000D02*
X159290000Y-162230000D01*
X60230000Y-164135000D02*
X60230000Y-162230000D01*
X60865000Y-164770000D02*
X60230000Y-164135000D01*
X159290000Y-162230000D02*
X159290000Y-164770000D01*
X159290000Y-164770000D02*
X60865000Y-164770000D01*
%TO.C,U1*%
X92400000Y-154100000D02*
X80600000Y-154100000D01*
X79600000Y-153100000D01*
X79600000Y-146600000D01*
X92400000Y-146600000D01*
X92400000Y-154100000D01*
%TO.C,C11*%
X124400000Y-127925000D02*
X125200000Y-127925000D01*
X124400000Y-129525000D02*
X124400000Y-127925000D01*
X125200000Y-127925000D02*
X125200000Y-129525000D01*
X125200000Y-129525000D02*
X124400000Y-129525000D01*
%TO.C,C8*%
X108200000Y-131100000D02*
X108200000Y-124500000D01*
X113800000Y-124500000D02*
X108200000Y-124500000D01*
X113800000Y-131100000D02*
X108200000Y-131100000D01*
X113889838Y-129445000D02*
X113889838Y-128815000D01*
X114204838Y-129130000D02*
X113574838Y-129130000D01*
X114800000Y-125500000D02*
X113800000Y-124500000D01*
X114800000Y-130100000D02*
X113800000Y-131100000D01*
X114800000Y-130100000D02*
X114800000Y-125500000D01*
X114650000Y-127800000D02*
G75*
G02*
X108350000Y-127800000I-3150000J0D01*
G01*
X108350000Y-127800000D02*
G75*
G02*
X114650000Y-127800000I3150000J0D01*
G01*
%TO.C,C12*%
X122400000Y-127925000D02*
X123200000Y-127925000D01*
X122400000Y-129525000D02*
X122400000Y-127925000D01*
X123200000Y-127925000D02*
X123200000Y-129525000D01*
X123200000Y-129525000D02*
X122400000Y-129525000D01*
%TO.C,U2*%
X135750000Y-158700000D02*
X128250000Y-158700000D01*
X128250000Y-144300000D01*
X129250000Y-143300000D01*
X135750000Y-143300000D01*
X135750000Y-158700000D01*
%TO.C,C6*%
X122700000Y-143600000D02*
X124300000Y-143600000D01*
X122700000Y-144400000D02*
X122700000Y-143600000D01*
X124300000Y-143600000D02*
X124300000Y-144400000D01*
X124300000Y-144400000D02*
X122700000Y-144400000D01*
%TO.C,Y1*%
X147040000Y-149000000D02*
X146040000Y-150000000D01*
X141960000Y-150000000D01*
X141960000Y-143000000D01*
X147040000Y-143000000D01*
X147040000Y-149000000D01*
%TO.C,U3*%
X128745000Y-138025000D02*
X119445000Y-138025000D01*
X118445000Y-137025000D01*
X118445000Y-133475000D01*
X128745000Y-133475000D01*
X128745000Y-138025000D01*
%TO.C,R6*%
X72200000Y-153587500D02*
X73800000Y-153587500D01*
X72200000Y-154412500D02*
X72200000Y-153587500D01*
X73800000Y-153587500D02*
X73800000Y-154412500D01*
X73800000Y-154412500D02*
X72200000Y-154412500D01*
%TO.C,C9*%
X126300000Y-117600000D02*
X127900000Y-117600000D01*
X126300000Y-118400000D02*
X126300000Y-117600000D01*
X127900000Y-117600000D02*
X127900000Y-118400000D01*
X127900000Y-118400000D02*
X126300000Y-118400000D01*
%TO.C,R5*%
X72200000Y-151087500D02*
X73800000Y-151087500D01*
X72200000Y-151912500D02*
X72200000Y-151087500D01*
X73800000Y-151087500D02*
X73800000Y-151912500D01*
X73800000Y-151912500D02*
X72200000Y-151912500D01*
%TO.C,R8*%
X142600000Y-119987500D02*
X144200000Y-119987500D01*
X142600000Y-120812500D02*
X142600000Y-119987500D01*
X144200000Y-119987500D02*
X144200000Y-120812500D01*
X144200000Y-120812500D02*
X142600000Y-120812500D01*
%TO.C,R7*%
X126337500Y-127925000D02*
X127162500Y-127925000D01*
X126337500Y-129525000D02*
X126337500Y-127925000D01*
X127162500Y-127925000D02*
X127162500Y-129525000D01*
X127162500Y-129525000D02*
X126337500Y-129525000D01*
%TO.C,R9*%
X142600000Y-129987500D02*
X144200000Y-129987500D01*
X142600000Y-130812500D02*
X142600000Y-129987500D01*
X144200000Y-129987500D02*
X144200000Y-130812500D01*
X144200000Y-130812500D02*
X142600000Y-130812500D01*
%TO.C,R3*%
X72200000Y-146087500D02*
X73800000Y-146087500D01*
X72200000Y-146912500D02*
X72200000Y-146087500D01*
X73800000Y-146087500D02*
X73800000Y-146912500D01*
X73800000Y-146912500D02*
X72200000Y-146912500D01*
%TO.C,R1*%
X72200000Y-141087500D02*
X73800000Y-141087500D01*
X72200000Y-141912500D02*
X72200000Y-141087500D01*
X73800000Y-141087500D02*
X73800000Y-141912500D01*
X73800000Y-141912500D02*
X72200000Y-141912500D01*
%TO.C,C10*%
X122425000Y-117600000D02*
X124025000Y-117600000D01*
X122425000Y-118400000D02*
X122425000Y-117600000D01*
X124025000Y-117600000D02*
X124025000Y-118400000D01*
X124025000Y-118400000D02*
X122425000Y-118400000D01*
%TO.C,R2*%
X72200000Y-143587500D02*
X73800000Y-143587500D01*
X72200000Y-144412500D02*
X72200000Y-143587500D01*
X73800000Y-143587500D02*
X73800000Y-144412500D01*
X73800000Y-144412500D02*
X72200000Y-144412500D01*
%TO.C,U4*%
X127825000Y-124987022D02*
X120150000Y-124987022D01*
X119175000Y-124012022D01*
X119175000Y-121087022D01*
X127825000Y-121087022D01*
X127825000Y-124987022D01*
%TO.C,C16*%
X132600000Y-128100000D02*
X132600000Y-132700000D01*
X132600000Y-128100000D02*
X133600000Y-127100000D01*
X132600000Y-132700000D02*
X133600000Y-133700000D01*
X133195162Y-129070000D02*
X133825162Y-129070000D01*
X133510162Y-128755000D02*
X133510162Y-129385000D01*
X133600000Y-127100000D02*
X139200000Y-127100000D01*
X133600000Y-133700000D02*
X139200000Y-133700000D01*
X139200000Y-127100000D02*
X139200000Y-133700000D01*
X139050000Y-130400000D02*
G75*
G02*
X132750000Y-130400000I-3150000J0D01*
G01*
X132750000Y-130400000D02*
G75*
G02*
X139050000Y-130400000I3150000J0D01*
G01*
%TO.C,R4*%
X72200000Y-148587500D02*
X73800000Y-148587500D01*
X72200000Y-149412500D02*
X72200000Y-148587500D01*
X73800000Y-148587500D02*
X73800000Y-149412500D01*
X73800000Y-149412500D02*
X72200000Y-149412500D01*
%TO.C,C5*%
X99200000Y-159300000D02*
X99200000Y-152700000D01*
X104800000Y-152700000D02*
X99200000Y-152700000D01*
X104800000Y-159300000D02*
X99200000Y-159300000D01*
X104889838Y-157645000D02*
X104889838Y-157015000D01*
X105204838Y-157330000D02*
X104574838Y-157330000D01*
X105800000Y-153700000D02*
X104800000Y-152700000D01*
X105800000Y-158300000D02*
X104800000Y-159300000D01*
X105800000Y-158300000D02*
X105800000Y-153700000D01*
X105650000Y-156000000D02*
G75*
G02*
X99350000Y-156000000I-3150000J0D01*
G01*
X99350000Y-156000000D02*
G75*
G02*
X105650000Y-156000000I3150000J0D01*
G01*
%TO.C,C2*%
X99200000Y-148800000D02*
X99200000Y-142200000D01*
X104800000Y-142200000D02*
X99200000Y-142200000D01*
X104800000Y-148800000D02*
X99200000Y-148800000D01*
X104889838Y-147145000D02*
X104889838Y-146515000D01*
X105204838Y-146830000D02*
X104574838Y-146830000D01*
X105800000Y-143200000D02*
X104800000Y-142200000D01*
X105800000Y-147800000D02*
X104800000Y-148800000D01*
X105800000Y-147800000D02*
X105800000Y-143200000D01*
X105650000Y-145500000D02*
G75*
G02*
X99350000Y-145500000I-3150000J0D01*
G01*
X99350000Y-145500000D02*
G75*
G02*
X105650000Y-145500000I3150000J0D01*
G01*
%TO.C,C15*%
X132600000Y-118100000D02*
X132600000Y-122700000D01*
X132600000Y-118100000D02*
X133600000Y-117100000D01*
X132600000Y-122700000D02*
X133600000Y-123700000D01*
X133195162Y-119070000D02*
X133825162Y-119070000D01*
X133510162Y-118755000D02*
X133510162Y-119385000D01*
X133600000Y-117100000D02*
X139200000Y-117100000D01*
X133600000Y-123700000D02*
X139200000Y-123700000D01*
X139200000Y-117100000D02*
X139200000Y-123700000D01*
X139050000Y-120400000D02*
G75*
G02*
X132750000Y-120400000I-3150000J0D01*
G01*
X132750000Y-120400000D02*
G75*
G02*
X139050000Y-120400000I3150000J0D01*
G01*
%TO.C,C19*%
X149564000Y-148626000D02*
X151164000Y-148626000D01*
X149564000Y-149426000D02*
X149564000Y-148626000D01*
X151164000Y-148626000D02*
X151164000Y-149426000D01*
X151164000Y-149426000D02*
X149564000Y-149426000D01*
%TO.C,R10*%
X142600000Y-123987500D02*
X144200000Y-123987500D01*
X142600000Y-124812500D02*
X142600000Y-123987500D01*
X144200000Y-123987500D02*
X144200000Y-124812500D01*
X144200000Y-124812500D02*
X142600000Y-124812500D01*
%TO.C,R11*%
X142600000Y-133987500D02*
X144200000Y-133987500D01*
X142600000Y-134812500D02*
X142600000Y-133987500D01*
X144200000Y-133987500D02*
X144200000Y-134812500D01*
X144200000Y-134812500D02*
X142600000Y-134812500D01*
%TD*%
M02*
