%TF.GenerationSoftware,KiCad,Pcbnew,9.0.1+1*%
%TF.CreationDate,2025-08-28T08:19:00+00:00*%
%TF.ProjectId,rcbus-ymf262,72636275-732d-4796-9d66-3236322e6b69,@version@*%
%TF.SameCoordinates,Original*%
%TF.FileFunction,Paste,Top*%
%TF.FilePolarity,Positive*%
%FSLAX46Y46*%
G04 Gerber Fmt 4.6, Leading zero omitted, Abs format (unit mm)*
G04 Created by KiCad (PCBNEW 9.0.1+1) date 2025-08-28 08:19:00*
%MOMM*%
%LPD*%
G01*
G04 APERTURE LIST*
G04 Aperture macros list*
%AMRoundRect*
0 Rectangle with rounded corners*
0 $1 Rounding radius*
0 $2 $3 $4 $5 $6 $7 $8 $9 X,Y pos of 4 corners*
0 Add a 4 corners polygon primitive as box body*
4,1,4,$2,$3,$4,$5,$6,$7,$8,$9,$2,$3,0*
0 Add four circle primitives for the rounded corners*
1,1,$1+$1,$2,$3*
1,1,$1+$1,$4,$5*
1,1,$1+$1,$6,$7*
1,1,$1+$1,$8,$9*
0 Add four rect primitives between the rounded corners*
20,1,$1+$1,$2,$3,$4,$5,0*
20,1,$1+$1,$4,$5,$6,$7,0*
20,1,$1+$1,$6,$7,$8,$9,0*
20,1,$1+$1,$8,$9,$2,$3,0*%
G04 Aperture macros list end*
%ADD10RoundRect,0.237500X0.300000X0.237500X-0.300000X0.237500X-0.300000X-0.237500X0.300000X-0.237500X0*%
%ADD11RoundRect,0.150000X0.150000X-0.875000X0.150000X0.875000X-0.150000X0.875000X-0.150000X-0.875000X0*%
%ADD12RoundRect,0.237500X-0.237500X0.300000X-0.237500X-0.300000X0.237500X-0.300000X0.237500X0.300000X0*%
%ADD13RoundRect,0.137500X0.137500X-0.862500X0.137500X0.862500X-0.137500X0.862500X-0.137500X-0.862500X0*%
%ADD14RoundRect,0.250000X-0.650000X-0.750000X0.650000X-0.750000X0.650000X0.750000X-0.650000X0.750000X0*%
%ADD15RoundRect,0.237500X-0.287500X-0.237500X0.287500X-0.237500X0.287500X0.237500X-0.287500X0.237500X0*%
%ADD16RoundRect,0.150000X0.150000X-0.650000X0.150000X0.650000X-0.150000X0.650000X-0.150000X-0.650000X0*%
%ADD17RoundRect,0.237500X-0.300000X-0.237500X0.300000X-0.237500X0.300000X0.237500X-0.300000X0.237500X0*%
%ADD18RoundRect,0.237500X0.250000X0.237500X-0.250000X0.237500X-0.250000X-0.237500X0.250000X-0.237500X0*%
%ADD19RoundRect,0.237500X-0.237500X0.250000X-0.237500X-0.250000X0.237500X-0.250000X0.237500X0.250000X0*%
%ADD20RoundRect,0.237500X0.237500X-0.300000X0.237500X0.300000X-0.237500X0.300000X-0.237500X-0.300000X0*%
%ADD21RoundRect,0.237500X0.237500X-0.250000X0.237500X0.250000X-0.237500X0.250000X-0.237500X-0.250000X0*%
%ADD22RoundRect,0.150000X0.150000X-0.825000X0.150000X0.825000X-0.150000X0.825000X-0.150000X-0.825000X0*%
%ADD23RoundRect,0.250000X-0.325000X-0.650000X0.325000X-0.650000X0.325000X0.650000X-0.325000X0.650000X0*%
%ADD24RoundRect,0.237500X0.287500X0.237500X-0.287500X0.237500X-0.287500X-0.237500X0.287500X-0.237500X0*%
G04 APERTURE END LIST*
D10*
%TO.C,C1*%
X112112500Y-156750000D03*
X110387500Y-156750000D03*
%TD*%
%TO.C,C7*%
X112112500Y-143000000D03*
X110387500Y-143000000D03*
%TD*%
D11*
%TO.C,U1*%
X80880000Y-156500000D03*
X82150000Y-156500000D03*
X83420000Y-156500000D03*
X84690000Y-156500000D03*
X85960000Y-156500000D03*
X87230000Y-156500000D03*
X88500000Y-156500000D03*
X89770000Y-156500000D03*
X91040000Y-156500000D03*
X92310000Y-156500000D03*
X92310000Y-147200000D03*
X91040000Y-147200000D03*
X89770000Y-147200000D03*
X88500000Y-147200000D03*
X87230000Y-147200000D03*
X85960000Y-147200000D03*
X84690000Y-147200000D03*
X83420000Y-147200000D03*
X82150000Y-147200000D03*
X80880000Y-147200000D03*
%TD*%
D12*
%TO.C,C11*%
X126000000Y-127637500D03*
X126000000Y-129362500D03*
%TD*%
%TO.C,C8*%
X116500000Y-130500000D03*
X116500000Y-132225000D03*
%TD*%
%TO.C,C12*%
X119250000Y-130500000D03*
X119250000Y-132225000D03*
%TD*%
D13*
%TO.C,U2*%
X114515000Y-156650000D03*
X115785000Y-156650000D03*
X117055000Y-156650000D03*
X118325000Y-156650000D03*
X119595000Y-156650000D03*
X120865000Y-156650000D03*
X122135000Y-156650000D03*
X123405000Y-156650000D03*
X124675000Y-156650000D03*
X125945000Y-156650000D03*
X127215000Y-156650000D03*
X128485000Y-156650000D03*
X128485000Y-147350000D03*
X127215000Y-147350000D03*
X125945000Y-147350000D03*
X124675000Y-147350000D03*
X123405000Y-147350000D03*
X122135000Y-147350000D03*
X120865000Y-147350000D03*
X119595000Y-147350000D03*
X118325000Y-147350000D03*
X117055000Y-147350000D03*
X115785000Y-147350000D03*
X114515000Y-147350000D03*
%TD*%
D10*
%TO.C,C6*%
X80862500Y-145000000D03*
X79137500Y-145000000D03*
%TD*%
D14*
%TO.C,Y1*%
X100500000Y-148750000D03*
X105580000Y-148750000D03*
X105580000Y-144750000D03*
X100500000Y-144750000D03*
%TD*%
D15*
%TO.C,L2*%
X149792400Y-147368100D03*
X151542400Y-147368100D03*
%TD*%
D16*
%TO.C,U3*%
X114555000Y-143250000D03*
X115825000Y-143250000D03*
X117095000Y-143250000D03*
X118365000Y-143250000D03*
X119635000Y-143250000D03*
X120905000Y-143250000D03*
X122175000Y-143250000D03*
X123445000Y-143250000D03*
X123445000Y-136750000D03*
X122175000Y-136750000D03*
X120905000Y-136750000D03*
X119635000Y-136750000D03*
X118365000Y-136750000D03*
X117095000Y-136750000D03*
X115825000Y-136750000D03*
X114555000Y-136750000D03*
%TD*%
D17*
%TO.C,C2*%
X133304900Y-147368100D03*
X135029900Y-147368100D03*
%TD*%
D18*
%TO.C,R6*%
X75225000Y-156020000D03*
X73400000Y-156020000D03*
%TD*%
D12*
%TO.C,C13*%
X125000000Y-117637500D03*
X125000000Y-119362500D03*
%TD*%
D19*
%TO.C,R10*%
X137000000Y-120337500D03*
X137000000Y-122162500D03*
%TD*%
D20*
%TO.C,C9*%
X120500000Y-119362500D03*
X120500000Y-117637500D03*
%TD*%
D18*
%TO.C,R5*%
X75225000Y-153510000D03*
X73400000Y-153510000D03*
%TD*%
%TO.C,R9*%
X115750000Y-117500000D03*
X113925000Y-117500000D03*
%TD*%
D20*
%TO.C,C17*%
X142250000Y-121862500D03*
X142250000Y-120137500D03*
%TD*%
D21*
%TO.C,R7*%
X122250000Y-132325000D03*
X122250000Y-130500000D03*
%TD*%
%TO.C,R8*%
X122750000Y-119412500D03*
X122750000Y-117587500D03*
%TD*%
D18*
%TO.C,R3*%
X75225000Y-148490000D03*
X73400000Y-148490000D03*
%TD*%
%TO.C,R1*%
X75050000Y-143470000D03*
X73225000Y-143470000D03*
%TD*%
D20*
%TO.C,C10*%
X117750000Y-119362500D03*
X117750000Y-117637500D03*
%TD*%
D18*
%TO.C,R2*%
X75050000Y-146060000D03*
X73225000Y-146060000D03*
%TD*%
D22*
%TO.C,U4*%
X115327500Y-127975000D03*
X116597500Y-127975000D03*
X117867500Y-127975000D03*
X119137500Y-127975000D03*
X120407500Y-127975000D03*
X121677500Y-127975000D03*
X122947500Y-127975000D03*
X122947500Y-123025000D03*
X121677500Y-123025000D03*
X120407500Y-123025000D03*
X119137500Y-123025000D03*
X117867500Y-123025000D03*
X116597500Y-123025000D03*
X115327500Y-123025000D03*
%TD*%
D20*
%TO.C,C16*%
X131964600Y-117750000D03*
X131964600Y-116025000D03*
%TD*%
D23*
%TO.C,C4*%
X143692400Y-147368100D03*
X146642400Y-147368100D03*
%TD*%
D18*
%TO.C,R4*%
X75225000Y-151000000D03*
X73400000Y-151000000D03*
%TD*%
D23*
%TO.C,C5*%
X154192400Y-146868100D03*
X157142400Y-146868100D03*
%TD*%
D20*
%TO.C,C18*%
X142239600Y-117750000D03*
X142239600Y-116025000D03*
%TD*%
%TO.C,C15*%
X132000000Y-121862500D03*
X132000000Y-120137500D03*
%TD*%
D19*
%TO.C,R11*%
X137014600Y-115975000D03*
X137014600Y-117800000D03*
%TD*%
D17*
%TO.C,C19*%
X100387500Y-142250000D03*
X102112500Y-142250000D03*
%TD*%
%TO.C,C3*%
X138804900Y-147368100D03*
X140529900Y-147368100D03*
%TD*%
D24*
%TO.C,L1*%
X137667400Y-142368100D03*
X135917400Y-142368100D03*
%TD*%
D10*
%TO.C,C14*%
X115612500Y-119500000D03*
X113887500Y-119500000D03*
%TD*%
M02*
