%TF.GenerationSoftware,KiCad,Pcbnew,9.0.1+1*%
%TF.CreationDate,2025-10-04T22:34:10+00:00*%
%TF.ProjectId,rcbus-opl3,72636275-732d-46f7-906c-332e6b696361,@version@*%
%TF.SameCoordinates,Original*%
%TF.FileFunction,Paste,Top*%
%TF.FilePolarity,Positive*%
%FSLAX46Y46*%
G04 Gerber Fmt 4.6, Leading zero omitted, Abs format (unit mm)*
G04 Created by KiCad (PCBNEW 9.0.1+1) date 2025-10-04 22:34:10*
%MOMM*%
%LPD*%
G01*
G04 APERTURE LIST*
G04 Aperture macros list*
%AMRoundRect*
0 Rectangle with rounded corners*
0 $1 Rounding radius*
0 $2 $3 $4 $5 $6 $7 $8 $9 X,Y pos of 4 corners*
0 Add a 4 corners polygon primitive as box body*
4,1,4,$2,$3,$4,$5,$6,$7,$8,$9,$2,$3,0*
0 Add four circle primitives for the rounded corners*
1,1,$1+$1,$2,$3*
1,1,$1+$1,$4,$5*
1,1,$1+$1,$6,$7*
1,1,$1+$1,$8,$9*
0 Add four rect primitives between the rounded corners*
20,1,$1+$1,$2,$3,$4,$5,0*
20,1,$1+$1,$4,$5,$6,$7,0*
20,1,$1+$1,$6,$7,$8,$9,0*
20,1,$1+$1,$8,$9,$2,$3,0*%
G04 Aperture macros list end*
%ADD10RoundRect,0.225000X-0.225000X-0.250000X0.225000X-0.250000X0.225000X0.250000X-0.225000X0.250000X0*%
%ADD11RoundRect,0.225000X0.225000X0.250000X-0.225000X0.250000X-0.225000X-0.250000X0.225000X-0.250000X0*%
%ADD12RoundRect,0.150000X0.150000X-0.875000X0.150000X0.875000X-0.150000X0.875000X-0.150000X-0.875000X0*%
%ADD13RoundRect,0.225000X-0.250000X0.225000X-0.250000X-0.225000X0.250000X-0.225000X0.250000X0.225000X0*%
%ADD14RoundRect,0.250000X-0.550000X1.500000X-0.550000X-1.500000X0.550000X-1.500000X0.550000X1.500000X0*%
%ADD15RoundRect,0.137500X0.137500X-0.862500X0.137500X0.862500X-0.137500X0.862500X-0.137500X-0.862500X0*%
%ADD16RoundRect,0.250000X-0.650000X-0.750000X0.650000X-0.750000X0.650000X0.750000X-0.650000X0.750000X0*%
%ADD17RoundRect,0.150000X0.150000X-0.650000X0.150000X0.650000X-0.150000X0.650000X-0.150000X-0.650000X0*%
%ADD18RoundRect,0.200000X-0.200000X-0.275000X0.200000X-0.275000X0.200000X0.275000X-0.200000X0.275000X0*%
%ADD19RoundRect,0.225000X0.250000X-0.225000X0.250000X0.225000X-0.250000X0.225000X-0.250000X-0.225000X0*%
%ADD20RoundRect,0.200000X0.275000X-0.200000X0.275000X0.200000X-0.275000X0.200000X-0.275000X-0.200000X0*%
%ADD21RoundRect,0.150000X0.150000X-0.825000X0.150000X0.825000X-0.150000X0.825000X-0.150000X-0.825000X0*%
%ADD22RoundRect,0.250000X-1.500000X-0.550000X1.500000X-0.550000X1.500000X0.550000X-1.500000X0.550000X0*%
%ADD23RoundRect,0.250000X1.500000X0.550000X-1.500000X0.550000X-1.500000X-0.550000X1.500000X-0.550000X0*%
G04 APERTURE END LIST*
D10*
%TO.C,C1*%
X80225000Y-142500000D03*
X81775000Y-142500000D03*
%TD*%
D11*
%TO.C,C7*%
X111525000Y-141500000D03*
X109975000Y-141500000D03*
%TD*%
D12*
%TO.C,U1*%
X80285000Y-155000000D03*
X81555000Y-155000000D03*
X82825000Y-155000000D03*
X84095000Y-155000000D03*
X85365000Y-155000000D03*
X86635000Y-155000000D03*
X87905000Y-155000000D03*
X89175000Y-155000000D03*
X90445000Y-155000000D03*
X91715000Y-155000000D03*
X91715000Y-145700000D03*
X90445000Y-145700000D03*
X89175000Y-145700000D03*
X87905000Y-145700000D03*
X86635000Y-145700000D03*
X85365000Y-145700000D03*
X84095000Y-145700000D03*
X82825000Y-145700000D03*
X81555000Y-145700000D03*
X80285000Y-145700000D03*
%TD*%
D13*
%TO.C,C11*%
X121000000Y-129105197D03*
X121000000Y-130655197D03*
%TD*%
D14*
%TO.C,C8*%
X107500000Y-129550000D03*
X107500000Y-134950000D03*
%TD*%
D13*
%TO.C,C12*%
X118750000Y-129105197D03*
X118750000Y-130655197D03*
%TD*%
D15*
%TO.C,U2*%
X127515000Y-155150000D03*
X128785000Y-155150000D03*
X130055000Y-155150000D03*
X131325000Y-155150000D03*
X132595000Y-155150000D03*
X133865000Y-155150000D03*
X135135000Y-155150000D03*
X136405000Y-155150000D03*
X137675000Y-155150000D03*
X138945000Y-155150000D03*
X140215000Y-155150000D03*
X141485000Y-155150000D03*
X141485000Y-145850000D03*
X140215000Y-145850000D03*
X138945000Y-145850000D03*
X137675000Y-145850000D03*
X136405000Y-145850000D03*
X135135000Y-145850000D03*
X133865000Y-145850000D03*
X132595000Y-145850000D03*
X131325000Y-145850000D03*
X130055000Y-145850000D03*
X128785000Y-145850000D03*
X127515000Y-145850000D03*
%TD*%
D11*
%TO.C,C6*%
X124750000Y-155500000D03*
X123200000Y-155500000D03*
%TD*%
D16*
%TO.C,Y1*%
X116960000Y-152500000D03*
X122040000Y-152500000D03*
X122040000Y-148500000D03*
X116960000Y-148500000D03*
%TD*%
D17*
%TO.C,U3*%
X114055000Y-141750000D03*
X115325000Y-141750000D03*
X116595000Y-141750000D03*
X117865000Y-141750000D03*
X119135000Y-141750000D03*
X120405000Y-141750000D03*
X121675000Y-141750000D03*
X122945000Y-141750000D03*
X122945000Y-135250000D03*
X121675000Y-135250000D03*
X120405000Y-135250000D03*
X119135000Y-135250000D03*
X117865000Y-135250000D03*
X116595000Y-135250000D03*
X115325000Y-135250000D03*
X114055000Y-135250000D03*
%TD*%
D18*
%TO.C,R6*%
X72175000Y-154000000D03*
X73825000Y-154000000D03*
%TD*%
D19*
%TO.C,C9*%
X120000000Y-119250000D03*
X120000000Y-117700000D03*
%TD*%
D18*
%TO.C,R5*%
X72175000Y-151500000D03*
X73825000Y-151500000D03*
%TD*%
%TO.C,R8*%
X139675000Y-123000000D03*
X141325000Y-123000000D03*
%TD*%
D20*
%TO.C,R7*%
X122750000Y-130755197D03*
X122750000Y-129105197D03*
%TD*%
D18*
%TO.C,R9*%
X139675000Y-133000000D03*
X141325000Y-133000000D03*
%TD*%
%TO.C,R3*%
X72175000Y-146500000D03*
X73825000Y-146500000D03*
%TD*%
%TO.C,R1*%
X72175000Y-141500000D03*
X73825000Y-141500000D03*
%TD*%
D19*
%TO.C,C10*%
X117300000Y-119275000D03*
X117300000Y-117725000D03*
%TD*%
D18*
%TO.C,R2*%
X72175000Y-144000000D03*
X73825000Y-144000000D03*
%TD*%
D21*
%TO.C,U4*%
X114827500Y-126492697D03*
X116097500Y-126492697D03*
X117367500Y-126492697D03*
X118637500Y-126492697D03*
X119907500Y-126492697D03*
X121177500Y-126492697D03*
X122447500Y-126492697D03*
X122447500Y-121542697D03*
X121177500Y-121542697D03*
X119907500Y-121542697D03*
X118637500Y-121542697D03*
X117367500Y-121542697D03*
X116097500Y-121542697D03*
X114827500Y-121542697D03*
%TD*%
D22*
%TO.C,C16*%
X130300000Y-133000000D03*
X135700000Y-133000000D03*
%TD*%
D18*
%TO.C,R4*%
X72175000Y-149000000D03*
X73825000Y-149000000D03*
%TD*%
D23*
%TO.C,C5*%
X105200000Y-156000000D03*
X99800000Y-156000000D03*
%TD*%
%TO.C,C2*%
X105200000Y-145500000D03*
X99800000Y-145500000D03*
%TD*%
D22*
%TO.C,C15*%
X130300000Y-123000000D03*
X135700000Y-123000000D03*
%TD*%
D19*
%TO.C,C19*%
X114000000Y-152775000D03*
X114000000Y-151225000D03*
%TD*%
D18*
%TO.C,R10*%
X139675000Y-127000000D03*
X141325000Y-127000000D03*
%TD*%
%TO.C,R11*%
X139675000Y-137000000D03*
X141325000Y-137000000D03*
%TD*%
M02*
