<?xml version="1.0" standalone="no"?>
 <!DOCTYPE svg PUBLIC "-//W3C//DTD SVG 1.1//EN" 
 "http://www.w3.org/Graphics/SVG/1.1/DTD/svg11.dtd"> 
<svg
  xmlns:svg="http://www.w3.org/2000/svg"
  xmlns="http://www.w3.org/2000/svg"
  xmlns:xlink="http://www.w3.org/1999/xlink"
  version="1.1"
  width="297.0022mm" height="210.0072mm" viewBox="0.0000 0.0000 297.0022 210.0072">
<title>SVG Image created as rcbus-ymf262-Dwgs_User3.svg date 2025/09/01 23:04:56 </title>
  <desc>Image generated by PCBNEW </desc>
<g style="fill:#000000; fill-opacity:1.0000;stroke:#000000; stroke-opacity:1.0000;
stroke-linecap:round; stroke-linejoin:round;"
 transform="translate(0 0) scale(1 1)">
</g>
<g style="fill:none; 
stroke:#000000; stroke-width:0.6000; stroke-opacity:1; 
stroke-linecap:round; stroke-linejoin:round;">
<g transform="rotate(90.000000 256.9968 100.6451)">
<text x="256.9968" y="102.1451"
textLength="30.0571" font-size="4.0000" lengthAdjust="spacingAndGlyphs"
text-anchor="middle" opacity="0" stroke-opacity="0">50.0000 mm</text>
</g>
<g class="stroked-text"><desc>50.0000 mm</desc>
<path d="M258.6402 88.3593
L258.6402 86.9308
" />
<path d="M258.6402 86.9308
L257.2116 86.7879
" />
<path d="M257.2116 86.7879
L257.3544 86.9308
" />
<path d="M257.3544 86.9308
L257.4973 87.2165
" />
<path d="M257.4973 87.2165
L257.4973 87.9308
" />
<path d="M257.4973 87.9308
L257.3544 88.2165
" />
<path d="M257.3544 88.2165
L257.2116 88.3593
" />
<path d="M257.2116 88.3593
L256.9259 88.5022
" />
<path d="M256.9259 88.5022
L256.2116 88.5022
" />
<path d="M256.2116 88.5022
L255.9259 88.3593
" />
<path d="M255.9259 88.3593
L255.7830 88.2165
" />
<path d="M255.7830 88.2165
L255.6402 87.9308
" />
<path d="M255.6402 87.9308
L255.6402 87.2165
" />
<path d="M255.6402 87.2165
L255.7830 86.9308
" />
<path d="M255.7830 86.9308
L255.9259 86.7879
" />
<path d="M258.6402 90.3593
L258.6402 90.6451
" />
<path d="M258.6402 90.6451
L258.4973 90.9308
" />
<path d="M258.4973 90.9308
L258.3544 91.0736
" />
<path d="M258.3544 91.0736
L258.0687 91.2165
" />
<path d="M258.0687 91.2165
L257.4973 91.3593
" />
<path d="M257.4973 91.3593
L256.7830 91.3593
" />
<path d="M256.7830 91.3593
L256.2116 91.2165
" />
<path d="M256.2116 91.2165
L255.9259 91.0736
" />
<path d="M255.9259 91.0736
L255.7830 90.9308
" />
<path d="M255.7830 90.9308
L255.6402 90.6451
" />
<path d="M255.6402 90.6451
L255.6402 90.3593
" />
<path d="M255.6402 90.3593
L255.7830 90.0736
" />
<path d="M255.7830 90.0736
L255.9259 89.9308
" />
<path d="M255.9259 89.9308
L256.2116 89.7879
" />
<path d="M256.2116 89.7879
L256.7830 89.6451
" />
<path d="M256.7830 89.6451
L257.4973 89.6451
" />
<path d="M257.4973 89.6451
L258.0687 89.7879
" />
<path d="M258.0687 89.7879
L258.3544 89.9308
" />
<path d="M258.3544 89.9308
L258.4973 90.0736
" />
<path d="M258.4973 90.0736
L258.6402 90.3593
" />
<path d="M255.9259 92.6451
L255.7830 92.7879
" />
<path d="M255.7830 92.7879
L255.6402 92.6451
" />
<path d="M255.6402 92.6451
L255.7830 92.5022
" />
<path d="M255.7830 92.5022
L255.9259 92.6451
" />
<path d="M255.9259 92.6451
L255.6402 92.6451
" />
<path d="M258.6402 94.6451
L258.6402 94.9308
" />
<path d="M258.6402 94.9308
L258.4973 95.2165
" />
<path d="M258.4973 95.2165
L258.3544 95.3593
" />
<path d="M258.3544 95.3593
L258.0687 95.5022
" />
<path d="M258.0687 95.5022
L257.4973 95.6451
" />
<path d="M257.4973 95.6451
L256.7830 95.6451
" />
<path d="M256.7830 95.6451
L256.2116 95.5022
" />
<path d="M256.2116 95.5022
L255.9259 95.3593
" />
<path d="M255.9259 95.3593
L255.7830 95.2165
" />
<path d="M255.7830 95.2165
L255.6402 94.9308
" />
<path d="M255.6402 94.9308
L255.6402 94.6451
" />
<path d="M255.6402 94.6451
L255.7830 94.3593
" />
<path d="M255.7830 94.3593
L255.9259 94.2165
" />
<path d="M255.9259 94.2165
L256.2116 94.0736
" />
<path d="M256.2116 94.0736
L256.7830 93.9308
" />
<path d="M256.7830 93.9308
L257.4973 93.9308
" />
<path d="M257.4973 93.9308
L258.0687 94.0736
" />
<path d="M258.0687 94.0736
L258.3544 94.2165
" />
<path d="M258.3544 94.2165
L258.4973 94.3593
" />
<path d="M258.4973 94.3593
L258.6402 94.6451
" />
<path d="M258.6402 97.5022
L258.6402 97.7879
" />
<path d="M258.6402 97.7879
L258.4973 98.0736
" />
<path d="M258.4973 98.0736
L258.3544 98.2165
" />
<path d="M258.3544 98.2165
L258.0687 98.3593
" />
<path d="M258.0687 98.3593
L257.4973 98.5022
" />
<path d="M257.4973 98.5022
L256.7830 98.5022
" />
<path d="M256.7830 98.5022
L256.2116 98.3593
" />
<path d="M256.2116 98.3593
L255.9259 98.2165
" />
<path d="M255.9259 98.2165
L255.7830 98.0736
" />
<path d="M255.7830 98.0736
L255.6402 97.7879
" />
<path d="M255.6402 97.7879
L255.6402 97.5022
" />
<path d="M255.6402 97.5022
L255.7830 97.2165
" />
<path d="M255.7830 97.2165
L255.9259 97.0736
" />
<path d="M255.9259 97.0736
L256.2116 96.9308
" />
<path d="M256.2116 96.9308
L256.7830 96.7879
" />
<path d="M256.7830 96.7879
L257.4973 96.7879
" />
<path d="M257.4973 96.7879
L258.0687 96.9308
" />
<path d="M258.0687 96.9308
L258.3544 97.0736
" />
<path d="M258.3544 97.0736
L258.4973 97.2165
" />
<path d="M258.4973 97.2165
L258.6402 97.5022
" />
<path d="M258.6402 100.3593
L258.6402 100.6451
" />
<path d="M258.6402 100.6451
L258.4973 100.9308
" />
<path d="M258.4973 100.9308
L258.3544 101.0736
" />
<path d="M258.3544 101.0736
L258.0687 101.2165
" />
<path d="M258.0687 101.2165
L257.4973 101.3593
" />
<path d="M257.4973 101.3593
L256.7830 101.3593
" />
<path d="M256.7830 101.3593
L256.2116 101.2165
" />
<path d="M256.2116 101.2165
L255.9259 101.0736
" />
<path d="M255.9259 101.0736
L255.7830 100.9308
" />
<path d="M255.7830 100.9308
L255.6402 100.6451
" />
<path d="M255.6402 100.6451
L255.6402 100.3593
" />
<path d="M255.6402 100.3593
L255.7830 100.0736
" />
<path d="M255.7830 100.0736
L255.9259 99.9308
" />
<path d="M255.9259 99.9308
L256.2116 99.7879
" />
<path d="M256.2116 99.7879
L256.7830 99.6451
" />
<path d="M256.7830 99.6451
L257.4973 99.6451
" />
<path d="M257.4973 99.6451
L258.0687 99.7879
" />
<path d="M258.0687 99.7879
L258.3544 99.9308
" />
<path d="M258.3544 99.9308
L258.4973 100.0736
" />
<path d="M258.4973 100.0736
L258.6402 100.3593
" />
<path d="M258.6402 103.2165
L258.6402 103.5022
" />
<path d="M258.6402 103.5022
L258.4973 103.7879
" />
<path d="M258.4973 103.7879
L258.3544 103.9308
" />
<path d="M258.3544 103.9308
L258.0687 104.0736
" />
<path d="M258.0687 104.0736
L257.4973 104.2165
" />
<path d="M257.4973 104.2165
L256.7830 104.2165
" />
<path d="M256.7830 104.2165
L256.2116 104.0736
" />
<path d="M256.2116 104.0736
L255.9259 103.9308
" />
<path d="M255.9259 103.9308
L255.7830 103.7879
" />
<path d="M255.7830 103.7879
L255.6402 103.5022
" />
<path d="M255.6402 103.5022
L255.6402 103.2165
" />
<path d="M255.6402 103.2165
L255.7830 102.9308
" />
<path d="M255.7830 102.9308
L255.9259 102.7879
" />
<path d="M255.9259 102.7879
L256.2116 102.6451
" />
<path d="M256.2116 102.6451
L256.7830 102.5022
" />
<path d="M256.7830 102.5022
L257.4973 102.5022
" />
<path d="M257.4973 102.5022
L258.0687 102.6451
" />
<path d="M258.0687 102.6451
L258.3544 102.7879
" />
<path d="M258.3544 102.7879
L258.4973 102.9308
" />
<path d="M258.4973 102.9308
L258.6402 103.2165
" />
<path d="M255.6402 107.7879
L257.6402 107.7879
" />
<path d="M257.3544 107.7879
L257.4973 107.9308
" />
<path d="M257.4973 107.9308
L257.6402 108.2165
" />
<path d="M257.6402 108.2165
L257.6402 108.6451
" />
<path d="M257.6402 108.6451
L257.4973 108.9308
" />
<path d="M257.4973 108.9308
L257.2116 109.0736
" />
<path d="M257.2116 109.0736
L255.6402 109.0736
" />
<path d="M257.2116 109.0736
L257.4973 109.2165
" />
<path d="M257.4973 109.2165
L257.6402 109.5022
" />
<path d="M257.6402 109.5022
L257.6402 109.9308
" />
<path d="M257.6402 109.9308
L257.4973 110.2165
" />
<path d="M257.4973 110.2165
L257.2116 110.3593
" />
<path d="M257.2116 110.3593
L255.6402 110.3593
" />
<path d="M255.6402 111.7879
L257.6402 111.7879
" />
<path d="M257.3544 111.7879
L257.4973 111.9308
" />
<path d="M257.4973 111.9308
L257.6402 112.2165
" />
<path d="M257.6402 112.2165
L257.6402 112.6451
" />
<path d="M257.6402 112.6451
L257.4973 112.9308
" />
<path d="M257.4973 112.9308
L257.2116 113.0736
" />
<path d="M257.2116 113.0736
L255.6402 113.0736
" />
<path d="M257.2116 113.0736
L257.4973 113.2165
" />
<path d="M257.4973 113.2165
L257.6402 113.5022
" />
<path d="M257.6402 113.5022
L257.6402 113.9308
" />
<path d="M257.6402 113.9308
L257.4973 114.2165
" />
<path d="M257.4973 114.2165
L257.2116 114.3593
" />
<path d="M257.2116 114.3593
L255.6402 114.3593
" />
</g><path d="M233.0768 50.6451
L254.5697 50.6451
" />
<path d="M233.0768 150.6451
L254.5697 150.6451
" />
<path d="M253.3968 50.6451
L253.3968 150.6451
" />
<path d="M253.3968 50.6451
L252.2240 52.8981
" />
<path d="M253.3968 50.6451
L254.5697 52.8981
" />
<path d="M253.3968 150.6451
L254.5697 148.3920
" />
<path d="M253.3968 150.6451
L252.2240 148.3920
" />
<text x="38.5768" y="39.3373"
textLength="27.2000" font-size="4.0000" lengthAdjust="spacingAndGlyphs"
text-anchor="middle" opacity="0" stroke-opacity="0">5.5000 mm</text>
<g class="stroked-text"><desc>5.5000 mm</desc>
<path d="M27.7197 36.1940
L26.2911 36.1940
" />
<path d="M26.2911 36.1940
L26.1482 37.6225
" />
<path d="M26.1482 37.6225
L26.2911 37.4797
" />
<path d="M26.2911 37.4797
L26.5768 37.3368
" />
<path d="M26.5768 37.3368
L27.2911 37.3368
" />
<path d="M27.2911 37.3368
L27.5768 37.4797
" />
<path d="M27.5768 37.4797
L27.7197 37.6225
" />
<path d="M27.7197 37.6225
L27.8625 37.9082
" />
<path d="M27.8625 37.9082
L27.8625 38.6225
" />
<path d="M27.8625 38.6225
L27.7197 38.9082
" />
<path d="M27.7197 38.9082
L27.5768 39.0511
" />
<path d="M27.5768 39.0511
L27.2911 39.1940
" />
<path d="M27.2911 39.1940
L26.5768 39.1940
" />
<path d="M26.5768 39.1940
L26.2911 39.0511
" />
<path d="M26.2911 39.0511
L26.1482 38.9082
" />
<path d="M29.1482 38.9082
L29.2911 39.0511
" />
<path d="M29.2911 39.0511
L29.1482 39.1940
" />
<path d="M29.1482 39.1940
L29.0054 39.0511
" />
<path d="M29.0054 39.0511
L29.1482 38.9082
" />
<path d="M29.1482 38.9082
L29.1482 39.1940
" />
<path d="M32.0054 36.1940
L30.5768 36.1940
" />
<path d="M30.5768 36.1940
L30.4340 37.6225
" />
<path d="M30.4340 37.6225
L30.5768 37.4797
" />
<path d="M30.5768 37.4797
L30.8625 37.3368
" />
<path d="M30.8625 37.3368
L31.5768 37.3368
" />
<path d="M31.5768 37.3368
L31.8625 37.4797
" />
<path d="M31.8625 37.4797
L32.0054 37.6225
" />
<path d="M32.0054 37.6225
L32.1482 37.9082
" />
<path d="M32.1482 37.9082
L32.1482 38.6225
" />
<path d="M32.1482 38.6225
L32.0054 38.9082
" />
<path d="M32.0054 38.9082
L31.8625 39.0511
" />
<path d="M31.8625 39.0511
L31.5768 39.1940
" />
<path d="M31.5768 39.1940
L30.8625 39.1940
" />
<path d="M30.8625 39.1940
L30.5768 39.0511
" />
<path d="M30.5768 39.0511
L30.4340 38.9082
" />
<path d="M34.0054 36.1940
L34.2911 36.1940
" />
<path d="M34.2911 36.1940
L34.5768 36.3368
" />
<path d="M34.5768 36.3368
L34.7197 36.4797
" />
<path d="M34.7197 36.4797
L34.8625 36.7654
" />
<path d="M34.8625 36.7654
L35.0054 37.3368
" />
<path d="M35.0054 37.3368
L35.0054 38.0511
" />
<path d="M35.0054 38.0511
L34.8625 38.6225
" />
<path d="M34.8625 38.6225
L34.7197 38.9082
" />
<path d="M34.7197 38.9082
L34.5768 39.0511
" />
<path d="M34.5768 39.0511
L34.2911 39.1940
" />
<path d="M34.2911 39.1940
L34.0054 39.1940
" />
<path d="M34.0054 39.1940
L33.7197 39.0511
" />
<path d="M33.7197 39.0511
L33.5768 38.9082
" />
<path d="M33.5768 38.9082
L33.4340 38.6225
" />
<path d="M33.4340 38.6225
L33.2911 38.0511
" />
<path d="M33.2911 38.0511
L33.2911 37.3368
" />
<path d="M33.2911 37.3368
L33.4340 36.7654
" />
<path d="M33.4340 36.7654
L33.5768 36.4797
" />
<path d="M33.5768 36.4797
L33.7197 36.3368
" />
<path d="M33.7197 36.3368
L34.0054 36.1940
" />
<path d="M36.8625 36.1940
L37.1482 36.1940
" />
<path d="M37.1482 36.1940
L37.4340 36.3368
" />
<path d="M37.4340 36.3368
L37.5768 36.4797
" />
<path d="M37.5768 36.4797
L37.7197 36.7654
" />
<path d="M37.7197 36.7654
L37.8625 37.3368
" />
<path d="M37.8625 37.3368
L37.8625 38.0511
" />
<path d="M37.8625 38.0511
L37.7197 38.6225
" />
<path d="M37.7197 38.6225
L37.5768 38.9082
" />
<path d="M37.5768 38.9082
L37.4340 39.0511
" />
<path d="M37.4340 39.0511
L37.1482 39.1940
" />
<path d="M37.1482 39.1940
L36.8625 39.1940
" />
<path d="M36.8625 39.1940
L36.5768 39.0511
" />
<path d="M36.5768 39.0511
L36.4340 38.9082
" />
<path d="M36.4340 38.9082
L36.2911 38.6225
" />
<path d="M36.2911 38.6225
L36.1482 38.0511
" />
<path d="M36.1482 38.0511
L36.1482 37.3368
" />
<path d="M36.1482 37.3368
L36.2911 36.7654
" />
<path d="M36.2911 36.7654
L36.4340 36.4797
" />
<path d="M36.4340 36.4797
L36.5768 36.3368
" />
<path d="M36.5768 36.3368
L36.8625 36.1940
" />
<path d="M39.7197 36.1940
L40.0054 36.1940
" />
<path d="M40.0054 36.1940
L40.2911 36.3368
" />
<path d="M40.2911 36.3368
L40.4340 36.4797
" />
<path d="M40.4340 36.4797
L40.5768 36.7654
" />
<path d="M40.5768 36.7654
L40.7197 37.3368
" />
<path d="M40.7197 37.3368
L40.7197 38.0511
" />
<path d="M40.7197 38.0511
L40.5768 38.6225
" />
<path d="M40.5768 38.6225
L40.4340 38.9082
" />
<path d="M40.4340 38.9082
L40.2911 39.0511
" />
<path d="M40.2911 39.0511
L40.0054 39.1940
" />
<path d="M40.0054 39.1940
L39.7197 39.1940
" />
<path d="M39.7197 39.1940
L39.4340 39.0511
" />
<path d="M39.4340 39.0511
L39.2911 38.9082
" />
<path d="M39.2911 38.9082
L39.1482 38.6225
" />
<path d="M39.1482 38.6225
L39.0054 38.0511
" />
<path d="M39.0054 38.0511
L39.0054 37.3368
" />
<path d="M39.0054 37.3368
L39.1482 36.7654
" />
<path d="M39.1482 36.7654
L39.2911 36.4797
" />
<path d="M39.2911 36.4797
L39.4340 36.3368
" />
<path d="M39.4340 36.3368
L39.7197 36.1940
" />
<path d="M44.2911 39.1940
L44.2911 37.1940
" />
<path d="M44.2911 37.4797
L44.4340 37.3368
" />
<path d="M44.4340 37.3368
L44.7197 37.1940
" />
<path d="M44.7197 37.1940
L45.1482 37.1940
" />
<path d="M45.1482 37.1940
L45.4340 37.3368
" />
<path d="M45.4340 37.3368
L45.5768 37.6225
" />
<path d="M45.5768 37.6225
L45.5768 39.1940
" />
<path d="M45.5768 37.6225
L45.7197 37.3368
" />
<path d="M45.7197 37.3368
L46.0054 37.1940
" />
<path d="M46.0054 37.1940
L46.4340 37.1940
" />
<path d="M46.4340 37.1940
L46.7197 37.3368
" />
<path d="M46.7197 37.3368
L46.8625 37.6225
" />
<path d="M46.8625 37.6225
L46.8625 39.1940
" />
<path d="M48.2911 39.1940
L48.2911 37.1940
" />
<path d="M48.2911 37.4797
L48.4340 37.3368
" />
<path d="M48.4340 37.3368
L48.7197 37.1940
" />
<path d="M48.7197 37.1940
L49.1482 37.1940
" />
<path d="M49.1482 37.1940
L49.4340 37.3368
" />
<path d="M49.4340 37.3368
L49.5768 37.6225
" />
<path d="M49.5768 37.6225
L49.5768 39.1940
" />
<path d="M49.5768 37.6225
L49.7197 37.3368
" />
<path d="M49.7197 37.3368
L50.0054 37.1940
" />
<path d="M50.0054 37.1940
L50.4340 37.1940
" />
<path d="M50.4340 37.1940
L50.7197 37.3368
" />
<path d="M50.7197 37.3368
L50.8625 37.6225
" />
<path d="M50.8625 37.6225
L50.8625 39.1940
" />
</g><path d="M33.0768 50.4373
L33.0768 40.2645
" />
<path d="M44.0768 50.4373
L44.0768 40.2645
" />
<path d="M33.0768 41.4373
L44.0768 41.4373
" />
<path d="M33.0768 41.4373
L35.3298 42.6101
" />
<path d="M33.0768 41.4373
L35.3298 40.2645
" />
<path d="M44.0768 41.4373
L41.8238 40.2645
" />
<path d="M44.0768 41.4373
L41.8238 42.6101
" />
<text x="133.0768" y="171.4051"
textLength="32.9143" font-size="4.0000" lengthAdjust="spacingAndGlyphs"
text-anchor="middle" opacity="0" stroke-opacity="0">100.0000 mm</text>
<g class="stroked-text"><desc>100.0000 mm</desc>
<path d="M119.5054 171.2617
L117.7911 171.2617
" />
<path d="M118.6482 171.2617
L118.6482 168.2617
" />
<path d="M118.6482 168.2617
L118.3625 168.6903
" />
<path d="M118.3625 168.6903
L118.0768 168.9760
" />
<path d="M118.0768 168.9760
L117.7911 169.1189
" />
<path d="M121.3625 168.2617
L121.6482 168.2617
" />
<path d="M121.6482 168.2617
L121.9340 168.4046
" />
<path d="M121.9340 168.4046
L122.0768 168.5474
" />
<path d="M122.0768 168.5474
L122.2197 168.8331
" />
<path d="M122.2197 168.8331
L122.3625 169.4046
" />
<path d="M122.3625 169.4046
L122.3625 170.1189
" />
<path d="M122.3625 170.1189
L122.2197 170.6903
" />
<path d="M122.2197 170.6903
L122.0768 170.9760
" />
<path d="M122.0768 170.9760
L121.9340 171.1189
" />
<path d="M121.9340 171.1189
L121.6482 171.2617
" />
<path d="M121.6482 171.2617
L121.3625 171.2617
" />
<path d="M121.3625 171.2617
L121.0768 171.1189
" />
<path d="M121.0768 171.1189
L120.9340 170.9760
" />
<path d="M120.9340 170.9760
L120.7911 170.6903
" />
<path d="M120.7911 170.6903
L120.6482 170.1189
" />
<path d="M120.6482 170.1189
L120.6482 169.4046
" />
<path d="M120.6482 169.4046
L120.7911 168.8331
" />
<path d="M120.7911 168.8331
L120.9340 168.5474
" />
<path d="M120.9340 168.5474
L121.0768 168.4046
" />
<path d="M121.0768 168.4046
L121.3625 168.2617
" />
<path d="M124.2197 168.2617
L124.5054 168.2617
" />
<path d="M124.5054 168.2617
L124.7911 168.4046
" />
<path d="M124.7911 168.4046
L124.9340 168.5474
" />
<path d="M124.9340 168.5474
L125.0768 168.8331
" />
<path d="M125.0768 168.8331
L125.2197 169.4046
" />
<path d="M125.2197 169.4046
L125.2197 170.1189
" />
<path d="M125.2197 170.1189
L125.0768 170.6903
" />
<path d="M125.0768 170.6903
L124.9340 170.9760
" />
<path d="M124.9340 170.9760
L124.7911 171.1189
" />
<path d="M124.7911 171.1189
L124.5054 171.2617
" />
<path d="M124.5054 171.2617
L124.2197 171.2617
" />
<path d="M124.2197 171.2617
L123.9340 171.1189
" />
<path d="M123.9340 171.1189
L123.7911 170.9760
" />
<path d="M123.7911 170.9760
L123.6482 170.6903
" />
<path d="M123.6482 170.6903
L123.5054 170.1189
" />
<path d="M123.5054 170.1189
L123.5054 169.4046
" />
<path d="M123.5054 169.4046
L123.6482 168.8331
" />
<path d="M123.6482 168.8331
L123.7911 168.5474
" />
<path d="M123.7911 168.5474
L123.9340 168.4046
" />
<path d="M123.9340 168.4046
L124.2197 168.2617
" />
<path d="M126.5054 170.9760
L126.6482 171.1189
" />
<path d="M126.6482 171.1189
L126.5054 171.2617
" />
<path d="M126.5054 171.2617
L126.3625 171.1189
" />
<path d="M126.3625 171.1189
L126.5054 170.9760
" />
<path d="M126.5054 170.9760
L126.5054 171.2617
" />
<path d="M128.5054 168.2617
L128.7911 168.2617
" />
<path d="M128.7911 168.2617
L129.0768 168.4046
" />
<path d="M129.0768 168.4046
L129.2197 168.5474
" />
<path d="M129.2197 168.5474
L129.3625 168.8331
" />
<path d="M129.3625 168.8331
L129.5054 169.4046
" />
<path d="M129.5054 169.4046
L129.5054 170.1189
" />
<path d="M129.5054 170.1189
L129.3625 170.6903
" />
<path d="M129.3625 170.6903
L129.2197 170.9760
" />
<path d="M129.2197 170.9760
L129.0768 171.1189
" />
<path d="M129.0768 171.1189
L128.7911 171.2617
" />
<path d="M128.7911 171.2617
L128.5054 171.2617
" />
<path d="M128.5054 171.2617
L128.2197 171.1189
" />
<path d="M128.2197 171.1189
L128.0768 170.9760
" />
<path d="M128.0768 170.9760
L127.9340 170.6903
" />
<path d="M127.9340 170.6903
L127.7911 170.1189
" />
<path d="M127.7911 170.1189
L127.7911 169.4046
" />
<path d="M127.7911 169.4046
L127.9340 168.8331
" />
<path d="M127.9340 168.8331
L128.0768 168.5474
" />
<path d="M128.0768 168.5474
L128.2197 168.4046
" />
<path d="M128.2197 168.4046
L128.5054 168.2617
" />
<path d="M131.3625 168.2617
L131.6482 168.2617
" />
<path d="M131.6482 168.2617
L131.9340 168.4046
" />
<path d="M131.9340 168.4046
L132.0768 168.5474
" />
<path d="M132.0768 168.5474
L132.2197 168.8331
" />
<path d="M132.2197 168.8331
L132.3625 169.4046
" />
<path d="M132.3625 169.4046
L132.3625 170.1189
" />
<path d="M132.3625 170.1189
L132.2197 170.6903
" />
<path d="M132.2197 170.6903
L132.0768 170.9760
" />
<path d="M132.0768 170.9760
L131.9340 171.1189
" />
<path d="M131.9340 171.1189
L131.6482 171.2617
" />
<path d="M131.6482 171.2617
L131.3625 171.2617
" />
<path d="M131.3625 171.2617
L131.0768 171.1189
" />
<path d="M131.0768 171.1189
L130.9340 170.9760
" />
<path d="M130.9340 170.9760
L130.7911 170.6903
" />
<path d="M130.7911 170.6903
L130.6482 170.1189
" />
<path d="M130.6482 170.1189
L130.6482 169.4046
" />
<path d="M130.6482 169.4046
L130.7911 168.8331
" />
<path d="M130.7911 168.8331
L130.9340 168.5474
" />
<path d="M130.9340 168.5474
L131.0768 168.4046
" />
<path d="M131.0768 168.4046
L131.3625 168.2617
" />
<path d="M134.2197 168.2617
L134.5054 168.2617
" />
<path d="M134.5054 168.2617
L134.7911 168.4046
" />
<path d="M134.7911 168.4046
L134.9340 168.5474
" />
<path d="M134.9340 168.5474
L135.0768 168.8331
" />
<path d="M135.0768 168.8331
L135.2197 169.4046
" />
<path d="M135.2197 169.4046
L135.2197 170.1189
" />
<path d="M135.2197 170.1189
L135.0768 170.6903
" />
<path d="M135.0768 170.6903
L134.9340 170.9760
" />
<path d="M134.9340 170.9760
L134.7911 171.1189
" />
<path d="M134.7911 171.1189
L134.5054 171.2617
" />
<path d="M134.5054 171.2617
L134.2197 171.2617
" />
<path d="M134.2197 171.2617
L133.9340 171.1189
" />
<path d="M133.9340 171.1189
L133.7911 170.9760
" />
<path d="M133.7911 170.9760
L133.6482 170.6903
" />
<path d="M133.6482 170.6903
L133.5054 170.1189
" />
<path d="M133.5054 170.1189
L133.5054 169.4046
" />
<path d="M133.5054 169.4046
L133.6482 168.8331
" />
<path d="M133.6482 168.8331
L133.7911 168.5474
" />
<path d="M133.7911 168.5474
L133.9340 168.4046
" />
<path d="M133.9340 168.4046
L134.2197 168.2617
" />
<path d="M137.0768 168.2617
L137.3625 168.2617
" />
<path d="M137.3625 168.2617
L137.6482 168.4046
" />
<path d="M137.6482 168.4046
L137.7911 168.5474
" />
<path d="M137.7911 168.5474
L137.9340 168.8331
" />
<path d="M137.9340 168.8331
L138.0768 169.4046
" />
<path d="M138.0768 169.4046
L138.0768 170.1189
" />
<path d="M138.0768 170.1189
L137.9340 170.6903
" />
<path d="M137.9340 170.6903
L137.7911 170.9760
" />
<path d="M137.7911 170.9760
L137.6482 171.1189
" />
<path d="M137.6482 171.1189
L137.3625 171.2617
" />
<path d="M137.3625 171.2617
L137.0768 171.2617
" />
<path d="M137.0768 171.2617
L136.7911 171.1189
" />
<path d="M136.7911 171.1189
L136.6482 170.9760
" />
<path d="M136.6482 170.9760
L136.5054 170.6903
" />
<path d="M136.5054 170.6903
L136.3625 170.1189
" />
<path d="M136.3625 170.1189
L136.3625 169.4046
" />
<path d="M136.3625 169.4046
L136.5054 168.8331
" />
<path d="M136.5054 168.8331
L136.6482 168.5474
" />
<path d="M136.6482 168.5474
L136.7911 168.4046
" />
<path d="M136.7911 168.4046
L137.0768 168.2617
" />
<path d="M141.6482 171.2617
L141.6482 169.2617
" />
<path d="M141.6482 169.5474
L141.7911 169.4046
" />
<path d="M141.7911 169.4046
L142.0768 169.2617
" />
<path d="M142.0768 169.2617
L142.5054 169.2617
" />
<path d="M142.5054 169.2617
L142.7911 169.4046
" />
<path d="M142.7911 169.4046
L142.9340 169.6903
" />
<path d="M142.9340 169.6903
L142.9340 171.2617
" />
<path d="M142.9340 169.6903
L143.0768 169.4046
" />
<path d="M143.0768 169.4046
L143.3625 169.2617
" />
<path d="M143.3625 169.2617
L143.7911 169.2617
" />
<path d="M143.7911 169.2617
L144.0768 169.4046
" />
<path d="M144.0768 169.4046
L144.2197 169.6903
" />
<path d="M144.2197 169.6903
L144.2197 171.2617
" />
<path d="M145.6482 171.2617
L145.6482 169.2617
" />
<path d="M145.6482 169.5474
L145.7911 169.4046
" />
<path d="M145.7911 169.4046
L146.0768 169.2617
" />
<path d="M146.0768 169.2617
L146.5054 169.2617
" />
<path d="M146.5054 169.2617
L146.7911 169.4046
" />
<path d="M146.7911 169.4046
L146.9340 169.6903
" />
<path d="M146.9340 169.6903
L146.9340 171.2617
" />
<path d="M146.9340 169.6903
L147.0768 169.4046
" />
<path d="M147.0768 169.4046
L147.3625 169.2617
" />
<path d="M147.3625 169.2617
L147.7911 169.2617
" />
<path d="M147.7911 169.2617
L148.0768 169.4046
" />
<path d="M148.0768 169.4046
L148.2197 169.6903
" />
<path d="M148.2197 169.6903
L148.2197 171.2617
" />
</g><path d="M33.0768 150.6451
L33.0768 174.6779
" />
<path d="M233.0768 150.6451
L233.0768 174.6779
" />
<path d="M33.0768 173.5051
L233.0768 173.5051
" />
<path d="M33.0768 173.5051
L35.3298 174.6779
" />
<path d="M33.0768 173.5051
L35.3298 172.3322
" />
<path d="M233.0768 173.5051
L230.8238 172.3322
" />
<path d="M233.0768 173.5051
L230.8238 174.6779
" />
<g transform="rotate(90.000000 246.8368 115.6451)">
<text x="246.8368" y="117.1451"
textLength="30.0571" font-size="4.0000" lengthAdjust="spacingAndGlyphs"
text-anchor="middle" opacity="0" stroke-opacity="0">35.0000 mm</text>
</g>
<g class="stroked-text"><desc>35.0000 mm</desc>
<path d="M248.4802 101.6451
L248.4802 103.5022
" />
<path d="M248.4802 103.5022
L247.3373 102.5022
" />
<path d="M247.3373 102.5022
L247.3373 102.9308
" />
<path d="M247.3373 102.9308
L247.1944 103.2165
" />
<path d="M247.1944 103.2165
L247.0516 103.3593
" />
<path d="M247.0516 103.3593
L246.7659 103.5022
" />
<path d="M246.7659 103.5022
L246.0516 103.5022
" />
<path d="M246.0516 103.5022
L245.7659 103.3593
" />
<path d="M245.7659 103.3593
L245.6230 103.2165
" />
<path d="M245.6230 103.2165
L245.4802 102.9308
" />
<path d="M245.4802 102.9308
L245.4802 102.0736
" />
<path d="M245.4802 102.0736
L245.6230 101.7879
" />
<path d="M245.6230 101.7879
L245.7659 101.6451
" />
<path d="M248.4802 106.2165
L248.4802 104.7879
" />
<path d="M248.4802 104.7879
L247.0516 104.6451
" />
<path d="M247.0516 104.6451
L247.1944 104.7879
" />
<path d="M247.1944 104.7879
L247.3373 105.0736
" />
<path d="M247.3373 105.0736
L247.3373 105.7879
" />
<path d="M247.3373 105.7879
L247.1944 106.0736
" />
<path d="M247.1944 106.0736
L247.0516 106.2165
" />
<path d="M247.0516 106.2165
L246.7659 106.3593
" />
<path d="M246.7659 106.3593
L246.0516 106.3593
" />
<path d="M246.0516 106.3593
L245.7659 106.2165
" />
<path d="M245.7659 106.2165
L245.6230 106.0736
" />
<path d="M245.6230 106.0736
L245.4802 105.7879
" />
<path d="M245.4802 105.7879
L245.4802 105.0736
" />
<path d="M245.4802 105.0736
L245.6230 104.7879
" />
<path d="M245.6230 104.7879
L245.7659 104.6451
" />
<path d="M245.7659 107.6451
L245.6230 107.7879
" />
<path d="M245.6230 107.7879
L245.4802 107.6451
" />
<path d="M245.4802 107.6451
L245.6230 107.5022
" />
<path d="M245.6230 107.5022
L245.7659 107.6451
" />
<path d="M245.7659 107.6451
L245.4802 107.6451
" />
<path d="M248.4802 109.6451
L248.4802 109.9308
" />
<path d="M248.4802 109.9308
L248.3373 110.2165
" />
<path d="M248.3373 110.2165
L248.1944 110.3593
" />
<path d="M248.1944 110.3593
L247.9087 110.5022
" />
<path d="M247.9087 110.5022
L247.3373 110.6451
" />
<path d="M247.3373 110.6451
L246.6230 110.6451
" />
<path d="M246.6230 110.6451
L246.0516 110.5022
" />
<path d="M246.0516 110.5022
L245.7659 110.3593
" />
<path d="M245.7659 110.3593
L245.6230 110.2165
" />
<path d="M245.6230 110.2165
L245.4802 109.9308
" />
<path d="M245.4802 109.9308
L245.4802 109.6451
" />
<path d="M245.4802 109.6451
L245.6230 109.3593
" />
<path d="M245.6230 109.3593
L245.7659 109.2165
" />
<path d="M245.7659 109.2165
L246.0516 109.0736
" />
<path d="M246.0516 109.0736
L246.6230 108.9308
" />
<path d="M246.6230 108.9308
L247.3373 108.9308
" />
<path d="M247.3373 108.9308
L247.9087 109.0736
" />
<path d="M247.9087 109.0736
L248.1944 109.2165
" />
<path d="M248.1944 109.2165
L248.3373 109.3593
" />
<path d="M248.3373 109.3593
L248.4802 109.6451
" />
<path d="M248.4802 112.5022
L248.4802 112.7879
" />
<path d="M248.4802 112.7879
L248.3373 113.0736
" />
<path d="M248.3373 113.0736
L248.1944 113.2165
" />
<path d="M248.1944 113.2165
L247.9087 113.3593
" />
<path d="M247.9087 113.3593
L247.3373 113.5022
" />
<path d="M247.3373 113.5022
L246.6230 113.5022
" />
<path d="M246.6230 113.5022
L246.0516 113.3593
" />
<path d="M246.0516 113.3593
L245.7659 113.2165
" />
<path d="M245.7659 113.2165
L245.6230 113.0736
" />
<path d="M245.6230 113.0736
L245.4802 112.7879
" />
<path d="M245.4802 112.7879
L245.4802 112.5022
" />
<path d="M245.4802 112.5022
L245.6230 112.2165
" />
<path d="M245.6230 112.2165
L245.7659 112.0736
" />
<path d="M245.7659 112.0736
L246.0516 111.9308
" />
<path d="M246.0516 111.9308
L246.6230 111.7879
" />
<path d="M246.6230 111.7879
L247.3373 111.7879
" />
<path d="M247.3373 111.7879
L247.9087 111.9308
" />
<path d="M247.9087 111.9308
L248.1944 112.0736
" />
<path d="M248.1944 112.0736
L248.3373 112.2165
" />
<path d="M248.3373 112.2165
L248.4802 112.5022
" />
<path d="M248.4802 115.3593
L248.4802 115.6451
" />
<path d="M248.4802 115.6451
L248.3373 115.9308
" />
<path d="M248.3373 115.9308
L248.1944 116.0736
" />
<path d="M248.1944 116.0736
L247.9087 116.2165
" />
<path d="M247.9087 116.2165
L247.3373 116.3593
" />
<path d="M247.3373 116.3593
L246.6230 116.3593
" />
<path d="M246.6230 116.3593
L246.0516 116.2165
" />
<path d="M246.0516 116.2165
L245.7659 116.0736
" />
<path d="M245.7659 116.0736
L245.6230 115.9308
" />
<path d="M245.6230 115.9308
L245.4802 115.6451
" />
<path d="M245.4802 115.6451
L245.4802 115.3593
" />
<path d="M245.4802 115.3593
L245.6230 115.0736
" />
<path d="M245.6230 115.0736
L245.7659 114.9308
" />
<path d="M245.7659 114.9308
L246.0516 114.7879
" />
<path d="M246.0516 114.7879
L246.6230 114.6451
" />
<path d="M246.6230 114.6451
L247.3373 114.6451
" />
<path d="M247.3373 114.6451
L247.9087 114.7879
" />
<path d="M247.9087 114.7879
L248.1944 114.9308
" />
<path d="M248.1944 114.9308
L248.3373 115.0736
" />
<path d="M248.3373 115.0736
L248.4802 115.3593
" />
<path d="M248.4802 118.2165
L248.4802 118.5022
" />
<path d="M248.4802 118.5022
L248.3373 118.7879
" />
<path d="M248.3373 118.7879
L248.1944 118.9308
" />
<path d="M248.1944 118.9308
L247.9087 119.0736
" />
<path d="M247.9087 119.0736
L247.3373 119.2165
" />
<path d="M247.3373 119.2165
L246.6230 119.2165
" />
<path d="M246.6230 119.2165
L246.0516 119.0736
" />
<path d="M246.0516 119.0736
L245.7659 118.9308
" />
<path d="M245.7659 118.9308
L245.6230 118.7879
" />
<path d="M245.6230 118.7879
L245.4802 118.5022
" />
<path d="M245.4802 118.5022
L245.4802 118.2165
" />
<path d="M245.4802 118.2165
L245.6230 117.9308
" />
<path d="M245.6230 117.9308
L245.7659 117.7879
" />
<path d="M245.7659 117.7879
L246.0516 117.6451
" />
<path d="M246.0516 117.6451
L246.6230 117.5022
" />
<path d="M246.6230 117.5022
L247.3373 117.5022
" />
<path d="M247.3373 117.5022
L247.9087 117.6451
" />
<path d="M247.9087 117.6451
L248.1944 117.7879
" />
<path d="M248.1944 117.7879
L248.3373 117.9308
" />
<path d="M248.3373 117.9308
L248.4802 118.2165
" />
<path d="M245.4802 122.7879
L247.4802 122.7879
" />
<path d="M247.1944 122.7879
L247.3373 122.9308
" />
<path d="M247.3373 122.9308
L247.4802 123.2165
" />
<path d="M247.4802 123.2165
L247.4802 123.6451
" />
<path d="M247.4802 123.6451
L247.3373 123.9308
" />
<path d="M247.3373 123.9308
L247.0516 124.0736
" />
<path d="M247.0516 124.0736
L245.4802 124.0736
" />
<path d="M247.0516 124.0736
L247.3373 124.2165
" />
<path d="M247.3373 124.2165
L247.4802 124.5022
" />
<path d="M247.4802 124.5022
L247.4802 124.9308
" />
<path d="M247.4802 124.9308
L247.3373 125.2165
" />
<path d="M247.3373 125.2165
L247.0516 125.3593
" />
<path d="M247.0516 125.3593
L245.4802 125.3593
" />
<path d="M245.4802 126.7879
L247.4802 126.7879
" />
<path d="M247.1944 126.7879
L247.3373 126.9308
" />
<path d="M247.3373 126.9308
L247.4802 127.2165
" />
<path d="M247.4802 127.2165
L247.4802 127.6451
" />
<path d="M247.4802 127.6451
L247.3373 127.9308
" />
<path d="M247.3373 127.9308
L247.0516 128.0736
" />
<path d="M247.0516 128.0736
L245.4802 128.0736
" />
<path d="M247.0516 128.0736
L247.3373 128.2165
" />
<path d="M247.3373 128.2165
L247.4802 128.5022
" />
<path d="M247.4802 128.5022
L247.4802 128.9308
" />
<path d="M247.4802 128.9308
L247.3373 129.2165
" />
<path d="M247.3373 129.2165
L247.0516 129.3593
" />
<path d="M247.0516 129.3593
L245.4802 129.3593
" />
</g><path d="M233.0768 80.6451
L244.4097 80.6451
" />
<path d="M233.0768 150.6451
L244.4097 150.6451
" />
<path d="M243.2368 80.6451
L243.2368 150.6451
" />
<path d="M243.2368 80.6451
L242.0640 82.8981
" />
<path d="M243.2368 80.6451
L244.4097 82.8981
" />
<path d="M243.2368 150.6451
L244.4097 148.3920
" />
<path d="M243.2368 150.6451
L242.0640 148.3920
" />
</g> 
</svg>
