<?xml version="1.0" standalone="no"?>
 <!DOCTYPE svg PUBLIC "-//W3C//DTD SVG 1.1//EN" 
 "http://www.w3.org/Graphics/SVG/1.1/DTD/svg11.dtd"> 
<svg
  xmlns:svg="http://www.w3.org/2000/svg"
  xmlns="http://www.w3.org/2000/svg"
  xmlns:xlink="http://www.w3.org/1999/xlink"
  version="1.1"
  width="297.0022mm" height="210.0072mm" viewBox="0.0000 0.0000 297.0022 210.0072">
<title>SVG Image created as rcbus-ymf262-B_SilkS2.svg date 2025/09/01 23:04:56 </title>
  <desc>Image generated by PCBNEW </desc>
<g style="fill:#000000; fill-opacity:1.0000;stroke:#000000; stroke-opacity:1.0000;
stroke-linecap:round; stroke-linejoin:round;"
 transform="translate(0 0) scale(1 1)">
<path style="fill:#000000; fill-opacity:1.0000; stroke:none;fill-rule:evenodd;"
d="M 54.4945,140.6432
54.3216,140.6710
54.1806,140.7135
54.0506,140.7783
53.9483,140.8593
53.8698,140.9571
53.8145,141.0702
53.7794,141.2063
53.7668,141.3704
53.7754,141.4969
53.8009,141.6190
53.8461,141.7345
53.9143,141.8424
54.0050,141.9358
54.1268,142.0165
54.0149,142.0528
53.9251,142.1044
53.8535,142.1711
53.7999,142.2522
53.7672,142.3459
53.7558,142.4555
53.7757,142.5853
53.8348,142.7001
53.9383,142.8047
53.9879,142.8327
53.8625,142.9023
53.7443,143.0137
53.6867,143.1033
53.6518,143.2050
53.6397,143.3220
53.6397,143.3898
53.6510,143.5029
53.6834,143.6005
53.7366,143.6858
53.8490,143.7909
54.0011,143.8697
54.1754,143.9159
54.3788,143.9322
55.0559,143.9322
55.2789,143.9179
55.4559,143.8788
55.5956,143.8192
55.7049,143.7413
55.7953,143.6392
55.8605,143.5201
55.9011,143.3805
55.9154,143.2158
55.9154,143.1844
55.3253,143.1844
55.3253,143.2495
55.3144,143.3266
55.2835,143.3869
55.2321,143.4343
55.1285,143.4791
54.9822,143.4958
54.5540,143.4958
54.4083,143.4783
54.3129,143.4328
54.2673,143.3853
54.2395,143.3252
54.2295,143.2484
54.2295,143.1993
54.2401,143.1209
54.2697,143.0597
54.3170,143.0110
54.3816,142.9747
54.4566,142.9535
54.5461,142.9459
54.9991,142.9459
55.1081,142.9539
55.1850,142.9745
55.2483,143.0102
55.2907,143.0557
55.3162,143.1124
55.3253,143.1844
55.9154,143.1844
55.9154,143.1564
55.9033,142.9954
55.8699,142.8661
55.8183,142.7624
55.7450,142.6729
55.6531,142.6011
55.5395,142.5460
55.3469,142.4969
55.1004,142.4788
54.4754,142.4788
54.4040,142.4719
54.3409,142.4519
54.2959,142.4140
54.2803,142.3511
54.2985,142.2771
54.3515,142.2306
54.4289,142.2055
54.5342,142.1962
54.9342,142.1962
55.1308,142.1846
55.2863,142.1529
55.4083,142.1051
55.5186,142.0353
55.6038,141.9533
55.6672,141.8586
55.7273,141.6954
55.7481,141.5076
55.7434,141.4217
55.1867,141.4217
55.1796,141.5100
55.1597,141.5829
55.1224,141.6439
55.0625,141.6906
54.9840,141.7182
54.8644,141.7290
54.6256,141.7290
54.5292,141.7194
54.4567,141.6934
54.4025,141.6528
54.3637,141.5971
54.3380,141.5188
54.3283,141.4105
54.3388,141.2989
54.3663,141.2217
54.4074,141.1696
54.5001,141.1195
54.6448,141.1002
54.8791,141.1002
54.9750,141.1085
55.0484,141.1310
55.1082,141.1714
55.1519,141.2328
55.1770,141.3108
55.1867,141.4217
55.7434,141.4217
55.7410,141.3787
55.7225,141.2841
55.6925,141.2001
55.6587,141.1368
55.5811,141.0386
55.9265,140.9765
55.9265,140.6331
54.7053,140.6331
Z" /> 
<path style="fill:#000000; fill-opacity:1.0000; stroke:none;fill-rule:evenodd;"
d="M 56.3152,140.3033
56.2655,140.2933
56.2381,140.2667
56.2281,140.2193
56.2281,139.8084
56.2384,139.7568
56.2660,139.7285
56.3152,139.7181
56.7946,139.7181
56.8308,139.7248
56.8547,139.7435
56.8745,139.8084
56.8745,140.2193
56.8649,140.2674
56.8396,140.2937
56.7946,140.3033
Z" /> 
<path style="fill:#000000; fill-opacity:1.0000; stroke:none;fill-rule:evenodd;"
d="M 56.2398,142.8901
56.2398,140.6353
56.8628,140.6353
56.8628,142.8901
Z" /> 
<path style="fill:#000000; fill-opacity:1.0000; stroke:none;fill-rule:evenodd;"
d="M 58.1987,142.8901
58.0259,142.8805
57.8871,142.8543
57.7765,142.8146
57.6791,142.7535
57.6019,142.6707
57.5433,142.5631
57.5068,142.4432
57.4839,142.2876
57.4783,142.0883
57.4990,141.1332
57.1469,141.1332
57.1469,140.7342
57.5213,140.6353
57.6039,140.0033
58.0950,140.0033
58.0950,140.6353
58.6272,140.6353
58.6272,141.1332
58.0950,141.1332
58.0950,142.0852
58.1124,142.2350
58.1343,142.2896
58.1617,142.3293
58.2348,142.3810
58.3207,142.4015
58.6048,142.4297
58.6048,142.8901
Z" /> 
<path style="fill:#000000; fill-opacity:1.0000; stroke:none;fill-rule:evenodd;"
d="M 58.9714,142.8901
58.9714,139.6886
59.5944,139.6886
59.5944,140.8650
59.7273,140.7725
59.9109,140.6811
60.1102,140.6182
60.3112,140.5975
60.4797,140.6102
60.6135,140.6448
60.7193,140.6983
60.8107,140.7738
60.8834,140.8668
60.9386,140.9798
60.9882,141.1691
61.0060,141.3975
61.0060,142.8901
60.3832,142.8901
60.3832,141.4774
60.3721,141.3766
60.3414,141.2991
60.2920,141.2363
60.2280,141.1921
60.1524,141.1660
60.0624,141.1568
59.8908,141.1791
59.7353,141.2387
59.5944,141.3231
59.5944,142.8901
Z" /> 
<path style="fill:#000000; fill-opacity:1.0000; stroke:none;fill-rule:evenodd;"
d="M 62.1084,142.9153
61.9577,142.9030
61.8311,142.8681
61.7240,142.8127
61.6332,142.7364
61.5416,142.6070
61.4835,142.4422
61.4625,142.2315
61.4625,140.6353
62.0853,140.6353
62.0853,142.0441
62.0974,142.1675
62.1283,142.2485
62.1738,142.2997
62.2730,142.3475
62.4130,142.3652
62.5292,142.3545
62.6535,142.3207
62.7723,142.2681
62.8743,142.2024
62.8743,140.6353
63.4971,140.6353
63.4971,142.8901
62.9838,142.8901
62.8743,142.6603
62.7137,142.7525
62.5244,142.8375
62.3229,142.8957
Z" /> 
<path style="fill:#000000; fill-opacity:1.0000; stroke:none;fill-rule:evenodd;"
d="M 63.9657,142.8901
64.4876,142.8901
64.5887,142.6752
64.7680,142.7939
64.8666,142.8427
64.9794,142.8820
65.1009,142.9066
65.2448,142.9153
65.4173,142.9004
65.5603,142.8583
65.6795,142.7913
65.7800,142.6984
65.8643,142.5752
65.9321,142.4158
65.9755,142.2460
66.0040,142.0381
66.0144,141.7855
66.0133,141.7547
65.3916,141.7547
65.3774,141.9933
65.3419,142.1500
65.2802,142.2764
65.2076,142.3504
65.1173,142.3935
65.0115,142.4083
64.8792,142.3991
64.7709,142.3737
64.5887,142.2978
64.5887,141.2275
64.7792,141.1409
64.8905,141.1118
65.0115,141.1018
65.1090,141.1127
65.1989,141.1449
65.2734,141.2066
65.3386,141.3257
65.3759,141.4830
65.3916,141.7547
66.0133,141.7547
66.0041,141.5021
65.9762,141.2776
65.9347,141.1024
65.8675,140.9381
65.7823,140.8136
65.6795,140.7217
65.5569,140.6573
65.4043,140.6158
65.2142,140.6008
65.0603,140.6151
64.8913,140.6602
64.7271,140.7243
64.5887,140.7917
64.5887,139.6855
63.9657,139.6855
Z" /> 
<path style="fill:#000000; fill-opacity:1.0000; stroke:none;fill-rule:evenodd;"
d="M 66.4965,142.8963
66.4467,142.8863
66.4194,142.8596
66.4093,142.8120
66.4093,142.3826
66.4197,142.3311
66.4473,142.3028
66.4965,142.2923
66.8559,142.2923
66.9073,142.3029
66.9358,142.3314
66.9464,142.3826
66.9464,142.8120
66.9394,142.8535
66.9209,142.8776
66.8559,142.8963
Z" /> 
<path style="fill:#000000; fill-opacity:1.0000; stroke:none;fill-rule:evenodd;"
d="M 68.2829,142.9153
68.0828,142.9013
67.9039,142.8609
67.7416,142.7879
67.6031,142.6785
67.5279,142.5871
67.4621,142.4719
67.4066,142.3288
67.3561,142.0923
67.3370,141.7728
67.3547,141.4426
67.4014,141.2002
67.4538,141.0530
67.5165,140.9351
67.5886,140.8419
67.6764,140.7635
67.7768,140.7019
67.8918,140.6565
68.0794,140.6163
68.3012,140.6019
68.5023,140.6078
68.6927,140.6252
68.8825,140.6559
69.0867,140.7040
69.0867,141.0630
68.4948,141.0630
68.3118,141.0789
68.1833,141.1203
68.1142,141.1673
68.0576,141.2356
68.0129,141.3299
67.9753,141.4990
67.9600,141.7681
67.9754,142.0343
68.0131,142.1984
68.0578,142.2883
68.1146,142.3523
68.1842,142.3949
68.3132,142.4311
68.5009,142.4451
69.1173,142.4451
69.1173,142.7979
68.8755,142.8576
68.5826,142.9003
Z" /> 
<path style="fill:#000000; fill-opacity:1.0000; stroke:none;fill-rule:evenodd;"
d="M 70.1644,140.6148
69.9565,140.6527
69.8300,140.6970
69.7236,140.7572
69.6344,140.8333
69.5618,140.9255
69.5008,141.0418
69.4523,141.1870
69.4105,141.4269
69.3945,141.7574
69.4099,142.0716
69.4507,142.3072
69.4980,142.4507
69.5585,142.5680
69.6313,142.6629
69.7206,142.7422
69.8271,142.8060
69.9533,142.8543
70.1620,142.8966
70.4298,142.9122
70.7035,142.8973
70.9130,142.8575
71.0398,142.8110
71.1458,142.7492
71.2340,142.6721
71.3057,142.5791
71.3655,142.4625
71.4122,142.3180
71.4523,142.0799
71.4675,141.7574
71.4674,141.7543
70.8447,141.7543
70.8378,141.9650
70.8202,142.1092
70.7870,142.2319
70.7460,142.3081
70.6891,142.3625
70.6183,142.3940
70.5361,142.4088
70.4298,142.4143
70.3239,142.4088
70.2420,142.3940
70.1717,142.3625
70.1149,142.3081
70.0741,142.2320
70.0413,142.1092
70.0242,141.9650
70.0175,141.7543
70.0242,141.5432
70.0413,141.4006
70.0741,141.2797
70.1149,141.2044
70.1717,141.1504
70.2420,141.1191
70.3239,141.1042
70.4298,141.0987
70.5361,141.1042
70.6183,141.1191
70.6891,141.1505
70.7460,141.2044
70.7870,141.2797
70.8202,141.4006
70.8377,141.5432
70.8447,141.7543
71.4674,141.7543
71.4514,141.4324
71.4091,141.1932
71.3604,141.0479
71.2997,140.9316
71.2279,140.8395
71.1398,140.7633
71.0338,140.7020
70.9068,140.6558
70.6980,140.6157
70.4298,140.6008
Z" /> 
<path style="fill:#000000; fill-opacity:1.0000; stroke:none;fill-rule:evenodd;"
d="M 71.8762,142.8901
71.8762,140.6353
72.3897,140.6353
72.4992,140.8650
72.6531,140.7635
72.8218,140.6765
72.9409,140.6343
73.0832,140.6072
73.2528,140.5975
73.3912,140.6083
73.5072,140.6386
73.6049,140.6866
73.7299,140.7887
73.8198,140.9143
74.0416,140.7695
74.1736,140.7027
74.3171,140.6470
74.4652,140.6097
74.6082,140.5975
74.7871,140.6105
74.9274,140.6459
75.0368,140.6999
75.1308,140.7771
75.2041,140.8725
75.2581,140.9890
75.3054,141.1853
75.3226,141.4283
75.3226,142.8901
74.6998,142.8901
74.6998,141.4834
74.6890,141.3800
74.6597,141.3022
74.6117,141.2391
74.5487,141.1938
74.4729,141.1666
74.3777,141.1568
74.2528,141.1693
74.1229,141.2081
73.9993,141.2658
73.8929,141.3332
73.9062,141.4134
73.9108,141.4959
73.9108,142.8901
73.2880,142.8901
73.2880,141.4834
73.2772,141.3800
73.2479,141.3022
73.2000,141.2391
73.1374,141.1938
73.0622,141.1666
72.9672,141.1568
72.7950,141.1775
72.6406,141.2356
72.4992,141.3231
72.4992,142.8901
Z" /> 
<path style="fill:#000000; fill-opacity:1.0000; stroke:none;fill-rule:evenodd;"
d="M 75.6126,143.1925
76.7928,139.6560
77.4253,139.6560
76.2451,143.1925
Z" /> 
<path style="fill:#000000; fill-opacity:1.0000; stroke:none;fill-rule:evenodd;"
d="M 78.1107,140.6139
77.9171,140.6492
77.7684,140.7018
77.6390,140.7843
77.5359,140.8998
77.4574,141.0544
77.4093,141.2254
77.3761,141.4572
77.3636,141.7644
77.3767,142.0635
77.4116,142.2914
77.4627,142.4618
77.5448,142.6149
77.6515,142.7299
77.7853,142.8122
77.9378,142.8645
78.1334,142.8994
78.3816,142.9122
78.6403,142.9036
78.8450,142.8803
79.2059,142.8133
79.2059,142.4482
78.5466,142.4482
78.3308,142.4353
78.1976,142.4039
78.0960,142.3436
78.0342,142.2568
78.0001,142.1447
77.9806,141.9833
78.5506,141.9833
78.7647,141.9684
78.9366,141.9274
79.0389,141.8807
79.1222,141.8182
79.1892,141.7391
79.2365,141.6467
79.2673,141.5289
79.2784,141.3825
78.7294,141.3825
78.7126,141.4974
78.6706,141.5613
78.6011,141.5972
78.4862,141.6114
77.9743,141.6114
77.9850,141.4020
78.0113,141.2672
78.0625,141.1605
78.1330,141.0973
78.2265,141.0627
78.3596,141.0496
78.4859,141.0584
78.5741,141.0811
78.6446,141.1234
78.6922,141.1857
78.7191,141.2660
78.7294,141.3825
79.2784,141.3825
79.2786,141.3794
79.2668,141.1753
79.2352,141.0200
79.1883,140.9034
79.1168,140.8030
79.0211,140.7249
78.8970,140.6675
78.6786,140.6196
78.3596,140.6008
Z" /> 
<path style="fill:#000000; fill-opacity:1.0000; stroke:none;fill-rule:evenodd;"
d="M 80.3918,142.8992
80.2342,142.8896
80.1038,142.8629
79.9961,142.8215
79.9001,142.7602
79.8225,142.6809
79.7615,142.5812
79.7206,142.4701
79.6939,142.3322
79.6842,142.1617
79.6842,139.6855
80.3072,139.6855
80.3072,142.0698
80.3146,142.1900
80.3334,142.2707
80.3672,142.3361
80.4118,142.3784
80.4684,142.4064
80.5409,142.4250
80.7144,142.4482
80.7144,142.8992
Z" /> 
<path style="fill:#000000; fill-opacity:1.0000; stroke:none;fill-rule:evenodd;"
d="M 81.6776,140.6139
81.4841,140.6492
81.3354,140.7018
81.2059,140.7843
81.1029,140.8998
81.0243,141.0544
80.9762,141.2254
80.9430,141.4572
80.9305,141.7644
80.9436,142.0635
80.9785,142.2914
81.0296,142.4618
81.1117,142.6149
81.2185,142.7299
81.3522,142.8122
81.5047,142.8645
81.7003,142.8994
81.9485,142.9122
82.2073,142.9036
82.4119,142.8803
82.7728,142.8133
82.7728,142.4482
82.1135,142.4482
81.8977,142.4353
81.7646,142.4039
81.6629,142.3436
81.6012,142.2568
81.5670,142.1447
81.5475,141.9833
82.1176,141.9833
82.3316,141.9684
82.5035,141.9274
82.6058,141.8807
82.6891,141.8182
82.7561,141.7391
82.8034,141.6467
82.8343,141.5289
82.8453,141.3825
82.2963,141.3825
82.2796,141.4974
82.2375,141.5613
82.1681,141.5972
82.0531,141.6114
81.5413,141.6114
81.5519,141.4020
81.5783,141.2672
81.6294,141.1605
81.6999,141.0973
81.7934,141.0627
81.9265,141.0496
82.0528,141.0584
82.1410,141.0811
82.2116,141.1234
82.2592,141.1857
82.2860,141.2660
82.2963,141.3825
82.8453,141.3825
82.8455,141.3794
82.8337,141.1753
82.8021,141.0200
82.7552,140.9034
82.6837,140.8030
82.5881,140.7249
82.4640,140.6675
82.2455,140.6196
81.9265,140.6008
Z" /> 
<path style="fill:#000000; fill-opacity:1.0000; stroke:none;fill-rule:evenodd;"
d="M 84.1304,142.9153
83.9302,142.9013
83.7514,142.8609
83.5890,142.7879
83.4506,142.6785
83.3754,142.5871
83.3096,142.4719
83.2540,142.3288
83.2035,142.0923
83.1844,141.7728
83.2022,141.4426
83.2489,141.2002
83.3012,141.0530
83.3639,140.9351
83.4361,140.8419
83.5238,140.7635
83.6243,140.7019
83.7393,140.6565
83.9269,140.6163
84.1487,140.6019
84.3498,140.6078
84.5401,140.6252
84.7300,140.6559
84.9342,140.7040
84.9342,141.0630
84.3423,141.0630
84.1592,141.0789
84.0307,141.1203
83.9617,141.1673
83.9050,141.2356
83.8603,141.3299
83.8227,141.4990
83.8074,141.7681
83.8229,142.0343
83.8605,142.1984
83.9053,142.2883
83.9621,142.3523
84.0316,142.3949
84.1607,142.4311
84.3483,142.4451
84.9648,142.4451
84.9648,142.7979
84.7230,142.8576
84.4300,142.9003
Z" /> 
<path style="fill:#000000; fill-opacity:1.0000; stroke:none;fill-rule:evenodd;"
d="M 86.1684,142.8901
85.9956,142.8805
85.8568,142.8543
85.7462,142.8146
85.6488,142.7535
85.5717,142.6707
85.5130,142.5631
85.4765,142.4432
85.4536,142.2876
85.4480,142.0883
85.4687,141.1332
85.1166,141.1332
85.1166,140.7342
85.4910,140.6353
85.5737,140.0033
86.0648,140.0033
86.0648,140.6353
86.5969,140.6353
86.5969,141.1332
86.0648,141.1332
86.0648,142.0852
86.0822,142.2350
86.1040,142.2896
86.1314,142.3293
86.2045,142.3810
86.2904,142.4015
86.5746,142.4297
86.5746,142.8901
Z" /> 
<path style="fill:#000000; fill-opacity:1.0000; stroke:none;fill-rule:evenodd;"
d="M 86.9411,142.8901
86.9411,140.6353
87.4231,140.6353
87.5641,140.9796
87.6939,140.8356
87.8389,140.7146
87.9462,140.6539
88.0669,140.6168
88.2043,140.6039
88.2959,140.6087
88.3881,140.6261
88.3881,141.2643
88.2543,141.2506
88.1245,141.2453
88.0055,141.2523
87.9034,141.2722
87.8083,141.3056
87.7216,141.3515
87.6418,141.4103
87.5641,141.4860
87.5641,142.8901
Z" /> 
<path style="fill:#000000; fill-opacity:1.0000; stroke:none;fill-rule:evenodd;"
d="M 88.7927,140.3033
88.7429,140.2933
88.7156,140.2667
88.7055,140.2193
88.7055,139.8084
88.7159,139.7568
88.7435,139.7285
88.7927,139.7181
89.2721,139.7181
89.3083,139.7248
89.3322,139.7435
89.3520,139.8084
89.3520,140.2193
89.3424,140.2674
89.3170,140.2937
89.2721,140.3033
Z" /> 
<path style="fill:#000000; fill-opacity:1.0000; stroke:none;fill-rule:evenodd;"
d="M 88.7172,142.8901
88.7172,140.6353
89.3402,140.6353
89.3402,142.8901
Z" /> 
<path style="fill:#000000; fill-opacity:1.0000; stroke:none;fill-rule:evenodd;"
d="M 89.9436,142.8901
89.9436,141.1332
89.6244,141.1332
89.6244,140.7342
89.9436,140.6353
89.9436,140.3922
89.9534,140.2076
89.9795,140.0648
90.0184,139.9558
90.0779,139.8586
90.1535,139.7837
90.2468,139.7283
90.4117,139.6787
90.6313,139.6602
90.8027,139.6654
90.9550,139.6802
91.0964,139.7040
91.1942,139.7302
91.1942,140.1813
91.0294,140.1711
90.8475,140.1672
90.7487,140.1768
90.6802,140.2017
90.6277,140.2445
90.5925,140.3054
90.5737,140.3796
90.5666,140.4812
90.5666,140.6353
91.7755,140.6353
91.7755,141.1332
90.5666,141.1332
90.5666,142.8901
Z" /> 
<path style="fill:#000000; fill-opacity:1.0000; stroke:none;fill-rule:evenodd;"
d="M 91.4763,142.8901
91.4763,140.6353
92.0991,140.6353
92.0991,142.8901
Z" /> 
<path style="fill:#000000; fill-opacity:1.0000; stroke:none;fill-rule:evenodd;"
d="M 91.5518,140.3033
91.5019,140.2933
91.4745,140.2667
91.4644,140.2193
91.4644,139.8084
91.4748,139.7568
91.5025,139.7285
91.5518,139.7181
92.0310,139.7181
92.0674,139.7249
92.0913,139.7435
92.1111,139.8084
92.1111,140.2193
92.1015,140.2674
92.0761,140.2937
92.0310,140.3033
Z" /> 
<path style="fill:#000000; fill-opacity:1.0000; stroke:none;fill-rule:evenodd;"
d="M 93.2547,140.6139
93.0612,140.6492
92.9125,140.7018
92.7830,140.7843
92.6800,140.8998
92.6014,141.0544
92.5533,141.2254
92.5202,141.4572
92.5076,141.7644
92.5208,142.0635
92.5557,142.2914
92.6067,142.4618
92.6888,142.6149
92.7956,142.7299
92.9293,142.8122
93.0818,142.8645
93.2774,142.8994
93.5256,142.9122
93.7844,142.9036
93.9890,142.8803
94.3499,142.8133
94.3499,142.4482
93.6906,142.4482
93.4748,142.4353
93.3417,142.4039
93.2400,142.3436
93.1783,142.2568
93.1441,142.1447
93.1246,141.9833
93.6947,141.9833
93.9088,141.9684
94.0806,141.9274
94.1829,141.8807
94.2662,141.8182
94.3332,141.7391
94.3806,141.6467
94.4114,141.5289
94.4224,141.3825
93.8734,141.3825
93.8567,141.4974
93.8146,141.5613
93.7452,141.5972
93.6302,141.6114
93.1184,141.6114
93.1290,141.4020
93.1554,141.2672
93.2065,141.1605
93.2770,141.0973
93.3705,141.0627
93.5036,141.0496
93.6299,141.0584
93.7181,141.0811
93.7887,141.1234
93.8363,141.1857
93.8631,141.2660
93.8734,141.3825
94.4224,141.3825
94.4226,141.3794
94.4108,141.1753
94.3792,141.0200
94.3323,140.9034
94.2608,140.8030
94.1652,140.7249
94.0411,140.6675
93.8226,140.6196
93.5036,140.6008
Z" /> 
<path style="fill:#000000; fill-opacity:1.0000; stroke:none;fill-rule:evenodd;"
d="M 96.1874,140.7060
95.9179,140.6323
95.7650,140.6087
95.6100,140.6008
95.3976,140.6164
95.2313,140.6588
95.1019,140.7236
94.9932,140.8172
94.9056,140.9427
94.8390,141.1064
94.7986,141.2818
94.7715,141.5050
94.7615,141.7855
94.7733,142.0577
94.8051,142.2734
94.8526,142.4420
94.9267,142.5985
95.0171,142.7167
95.1239,142.8032
95.2485,142.8638
95.3950,142.9019
95.5679,142.9153
95.6823,142.9073
95.7963,142.8829
95.9071,142.8448
96.0119,142.7957
96.1089,142.7369
96.1874,142.6752
96.2885,142.8901
96.8102,142.8901
96.8102,141.1540
96.1874,141.1540
96.1874,142.2887
96.0158,142.3735
95.9097,142.4037
95.7861,142.4143
95.6504,142.3996
95.5521,142.3599
95.4783,142.2877
95.4235,142.1619
95.3958,142.0034
95.3845,141.7547
95.3967,141.4904
95.4263,141.3257
95.4627,141.2322
95.5085,141.1666
95.5633,141.1227
95.6679,141.0829
95.8126,141.0679
95.9148,141.0751
96.0105,141.0960
96.1874,141.1540
96.8102,141.1540
96.8102,139.6855
96.1874,139.6855
Z" /> 
<path style="fill:#000000; fill-opacity:1.0000; stroke:none;fill-rule:evenodd;"
d="M 97.1020,143.1925
98.2823,139.6560
98.9148,139.6560
97.7346,143.1925
Z" /> 
<path style="fill:#000000; fill-opacity:1.0000; stroke:none;fill-rule:evenodd;"
d="M 99.0458,142.8901
99.0458,140.6353
99.5277,140.6353
99.6688,140.9796
99.7986,140.8356
99.9436,140.7146
100.0508,140.6539
100.1715,140.6168
100.3090,140.6039
100.4006,140.6087
100.4927,140.6261
100.4927,141.2643
100.3590,141.2506
100.2291,141.2453
100.1102,141.2523
100.0080,141.2722
99.9129,141.3056
99.8263,141.3515
99.7465,141.4103
99.6688,141.4860
99.6688,142.8901
Z" /> 
<path style="fill:#000000; fill-opacity:1.0000; stroke:none;fill-rule:evenodd;"
d="M 101.7012,142.9153
101.5011,142.9013
101.3222,142.8609
101.1599,142.7879
101.0214,142.6785
100.9462,142.5871
100.8804,142.4719
100.8248,142.3288
100.7744,142.0923
100.7552,141.7728
100.7730,141.4426
100.8197,141.2002
100.8720,141.0530
100.9348,140.9351
101.0069,140.8419
101.0946,140.7635
101.1951,140.7019
101.3101,140.6565
101.4977,140.6163
101.7195,140.6019
101.9206,140.6078
102.1110,140.6252
102.3008,140.6559
102.5050,140.7040
102.5050,141.0630
101.9131,141.0630
101.7301,141.0789
101.6015,141.1203
101.5325,141.1673
101.4758,141.2356
101.4312,141.3299
101.3936,141.4990
101.3782,141.7681
101.3937,142.0343
101.4314,142.1984
101.4761,142.2883
101.5329,142.3523
101.6025,142.3949
101.7315,142.4311
101.9192,142.4451
102.5356,142.4451
102.5356,142.7979
102.2938,142.8576
102.0009,142.9003
Z" /> 
<path style="fill:#000000; fill-opacity:1.0000; stroke:none;fill-rule:evenodd;"
d="M 102.8794,142.8901
103.4013,142.8901
103.5024,142.6752
103.6818,142.7939
103.7803,142.8427
103.8931,142.8820
104.0147,142.9066
104.1586,142.9153
104.3310,142.9004
104.4740,142.8583
104.5933,142.7913
104.6937,142.6984
104.7781,142.5752
104.8459,142.4158
104.8893,142.2460
104.9178,142.0381
104.9281,141.7855
104.9270,141.7547
104.3053,141.7547
104.2911,141.9933
104.2557,142.1500
104.1940,142.2764
104.1214,142.3504
104.0311,142.3935
103.9252,142.4083
103.7929,142.3991
103.6847,142.3737
103.5024,142.2978
103.5024,141.2275
103.6929,141.1409
103.8042,141.1118
103.9252,141.1018
104.0228,141.1127
104.1126,141.1449
104.1871,141.2066
104.2524,141.3257
104.2896,141.4830
104.3053,141.7547
104.9270,141.7547
104.9178,141.5021
104.8899,141.2776
104.8484,141.1024
104.7812,140.9381
104.6960,140.8136
104.5933,140.7217
104.4707,140.6573
104.3180,140.6158
104.1280,140.6008
103.9741,140.6151
103.8050,140.6602
103.6409,140.7243
103.5024,140.7917
103.5024,139.6855
102.8794,139.6855
Z" /> 
<path style="fill:#000000; fill-opacity:1.0000; stroke:none;fill-rule:evenodd;"
d="M 105.9754,142.9153
105.8247,142.9030
105.6980,142.8681
105.5910,142.8127
105.5002,142.7364
105.4086,142.6070
105.3505,142.4422
105.3295,142.2315
105.3295,140.6353
105.9523,140.6353
105.9523,142.0441
105.9644,142.1675
105.9953,142.2485
106.0408,142.2997
106.1400,142.3475
106.2800,142.3652
106.3962,142.3545
106.5205,142.3207
106.6393,142.2681
106.7413,142.2024
106.7413,140.6353
107.3641,140.6353
107.3641,142.8901
106.8508,142.8901
106.7413,142.6603
106.5807,142.7525
106.3914,142.8375
106.1899,142.8957
Z" /> 
<path style="fill:#000000; fill-opacity:1.0000; stroke:none;fill-rule:evenodd;"
d="M 108.6537,142.9153
108.4254,142.9086
108.1813,142.8901
107.9559,142.8585
107.7816,142.8133
107.7816,142.4482
108.7797,142.4482
108.9241,142.4332
108.9750,142.4113
109.0089,142.3784
109.0289,142.3333
109.0365,142.2660
109.0365,142.1932
109.0222,142.1175
108.9816,142.0628
108.9132,142.0300
108.7808,142.0159
108.4275,142.0159
108.2402,142.0009
108.0787,141.9580
107.9818,141.9105
107.9005,141.8469
107.8330,141.7659
107.7850,141.6720
107.7539,141.5532
107.7425,141.4033
107.7425,141.2726
107.7526,141.1313
107.7808,141.0122
107.8253,140.9117
107.8905,140.8251
107.9823,140.7513
108.1065,140.6900
108.2414,140.6509
108.4188,140.6243
108.6486,140.6144
108.9460,140.6289
109.2437,140.6664
109.4661,140.7173
109.4661,141.0824
108.5225,141.0824
108.4086,141.0939
108.3364,141.1229
108.2907,141.1766
108.2732,141.2726
108.2732,141.3420
108.2815,141.4083
108.3031,141.4515
108.3395,141.4820
108.3952,141.5025
108.5474,141.5158
108.9098,141.5158
109.0848,141.5277
109.2220,141.5601
109.3287,141.6093
109.4110,141.6737
109.4955,141.7879
109.5484,141.9307
109.5674,142.1104
109.5674,142.3121
109.5543,142.4599
109.5179,142.5775
109.4610,142.6713
109.3823,142.7487
109.2807,142.8115
109.1514,142.8595
108.9364,142.9001
Z" /> 
<path style="fill:#000000; fill-opacity:1.0000; stroke:none;fill-rule:evenodd;"
d="M 109.8059,141.9221
109.8059,141.4220
111.0907,141.4220
111.0907,141.9221
Z" /> 
<path style="fill:#000000; fill-opacity:1.0000; stroke:none;fill-rule:evenodd;"
d="M 112.1252,143.8855
112.3708,142.8901
112.1895,142.8709
112.0389,142.8186
111.9090,142.7328
111.8028,142.6149
111.7218,142.4705
111.6582,142.2868
111.2340,140.6353
111.8806,140.6353
112.2351,142.1603
112.2613,142.2354
112.2900,142.2856
112.3609,142.3502
112.4307,142.3766
112.4811,142.3826
112.8861,140.6353
113.5194,140.6353
112.8469,143.4696
112.6425,143.8855
Z" /> 
<path style="fill:#000000; fill-opacity:1.0000; stroke:none;fill-rule:evenodd;"
d="M 113.8088,142.8901
113.8088,140.6353
114.3223,140.6353
114.4318,140.8650
114.5857,140.7635
114.7544,140.6765
114.8735,140.6343
115.0157,140.6072
115.1854,140.5975
115.3238,140.6083
115.4398,140.6386
115.5375,140.6866
115.6625,140.7887
115.7524,140.9143
115.9742,140.7695
116.1062,140.7027
116.2497,140.6470
116.3977,140.6097
116.5408,140.5975
116.7196,140.6105
116.8599,140.6459
116.9694,140.6999
117.0634,140.7771
117.1367,140.8725
117.1907,140.9890
117.2380,141.1853
117.2552,141.4283
117.2552,142.8901
116.6324,142.8901
116.6324,141.4834
116.6216,141.3800
116.5922,141.3022
116.5442,141.2391
116.4812,141.1938
116.4055,141.1666
116.3103,141.1568
116.1854,141.1693
116.0555,141.2081
115.9319,141.2658
115.8254,141.3332
115.8388,141.4134
115.8434,141.4959
115.8434,142.8901
115.2206,142.8901
115.2206,141.4834
115.2098,141.3800
115.1805,141.3022
115.1326,141.2391
115.0700,141.1938
114.9947,141.1666
114.8998,141.1568
114.7276,141.1775
114.5732,141.2356
114.4318,141.3231
114.4318,142.8901
Z" /> 
<path style="fill:#000000; fill-opacity:1.0000; stroke:none;fill-rule:evenodd;"
d="M 117.8767,142.8901
117.8767,141.1332
117.5574,141.1332
117.5574,140.7342
117.8767,140.6353
117.8767,140.4843
117.8864,140.2939
117.9129,140.1397
117.9531,140.0157
118.0149,139.9033
118.0945,139.8146
118.1936,139.7468
118.3066,139.7011
118.4485,139.6711
118.6258,139.6602
118.7695,139.6656
118.8941,139.6809
119.0934,139.7223
119.0934,140.1672
118.7498,140.1672
118.6599,140.1756
118.5996,140.1971
118.5535,140.2344
118.5224,140.2883
118.5061,140.3551
118.4997,140.4506
118.4997,140.6353
119.0742,140.6353
119.0742,141.1332
118.4997,141.1332
118.4997,142.8901
Z" /> 
<path style="fill:#000000; fill-opacity:1.0000; stroke:none;fill-rule:evenodd;"
d="M 119.3226,142.8901
119.3226,142.3922
120.3618,141.3592
120.4792,141.2376
120.5662,141.1330
120.6369,141.0264
120.6851,140.9256
120.7148,140.8201
120.7248,140.7058
120.7136,140.5982
120.6822,140.5118
120.6269,140.4418
120.5404,140.3887
120.4313,140.3585
120.2687,140.3466
119.3968,140.3466
119.3968,139.8556
119.8424,139.7882
120.0952,139.7650
120.3914,139.7567
120.6330,139.7698
120.8198,139.8048
120.9624,139.8569
121.0902,139.9355
121.1878,140.0318
121.2592,140.1473
121.3069,140.2768
121.3371,140.4277
121.3478,140.6038
121.3334,140.8082
121.2920,140.9872
121.2232,141.1551
121.1260,141.3169
121.0054,141.4708
120.8498,141.6362
120.1495,142.3286
121.4431,142.3286
121.4431,142.8901
Z" /> 
<path style="fill:#000000; fill-opacity:1.0000; stroke:none;fill-rule:evenodd;"
d="M 122.7928,139.7664
122.6288,139.7943
122.4817,139.8390
122.3447,139.9051
122.2220,139.9946
122.1123,140.1092
122.0230,140.2411
121.9455,140.4057
121.8815,140.6089
121.8401,140.8182
121.8129,141.0721
121.8030,141.3775
121.8198,141.8153
121.8633,142.1339
121.9136,142.3308
121.9734,142.4842
122.0408,142.6019
122.1271,142.7053
122.2238,142.7839
122.3323,142.8404
122.5149,142.8915
122.7338,142.9097
123.1844,142.9097
123.4016,142.8903
123.5839,142.8355
123.6918,142.7761
123.7815,142.6982
123.8552,142.6003
123.9071,142.4886
123.9407,142.3494
123.9529,142.1764
123.9529,141.8505
123.3310,141.8505
123.3310,142.0527
123.3216,142.1542
123.2967,142.2264
123.2548,142.2834
123.1993,142.3213
123.1315,142.3426
123.0432,142.3504
122.8567,142.3504
122.7509,142.3409
122.6647,142.3145
122.5916,142.2663
122.5297,142.1890
122.4856,142.0895
122.4511,141.9428
122.4329,141.7758
122.4259,141.5460
122.9531,141.5460
123.0787,141.5530
123.1681,141.5710
123.2416,141.6066
123.2912,141.6605
123.3197,141.7341
123.3310,141.8505
123.9529,141.8505
123.9529,141.7305
123.9325,141.5203
123.8758,141.3502
123.8139,141.2530
123.7289,141.1712
123.6169,141.1037
123.4927,141.0587
123.3321,141.0287
123.1269,141.0176
122.8637,141.0227
122.6325,141.0434
122.4259,141.0888
122.4451,140.8380
122.4966,140.6505
122.5739,140.5118
122.6549,140.4288
122.7559,140.3683
122.8811,140.3298
123.0368,140.3160
123.7680,140.3160
123.7680,139.8249
123.5956,139.7952
123.3911,139.7734
122.9763,139.7567
Z" /> 
<path style="fill:#000000; fill-opacity:1.0000; stroke:none;fill-rule:evenodd;"
d="M 124.3286,142.8901
124.3286,142.3922
125.3678,141.3592
125.4852,141.2376
125.5722,141.1330
125.6429,141.0264
125.6911,140.9256
125.7208,140.8201
125.7308,140.7058
125.7196,140.5982
125.6882,140.5118
125.6330,140.4418
125.5464,140.3887
125.4373,140.3585
125.2747,140.3466
124.4028,140.3466
124.4028,139.8556
124.8484,139.7882
125.1012,139.7650
125.3974,139.7567
125.6390,139.7698
125.8258,139.8048
125.9684,139.8569
126.0962,139.9355
126.1938,140.0318
126.2652,140.1473
126.3129,140.2768
126.3431,140.4277
126.3538,140.6038
126.3394,140.8082
126.2980,140.9872
126.2292,141.1551
126.1320,141.3169
126.0114,141.4708
125.8558,141.6362
125.1555,142.3286
126.4491,142.3286
126.4491,142.8901
Z" /> 
</g> 
</svg>
