<?xml version="1.0" standalone="no"?>
 <!DOCTYPE svg PUBLIC "-//W3C//DTD SVG 1.1//EN" 
 "http://www.w3.org/Graphics/SVG/1.1/DTD/svg11.dtd"> 
<svg
  xmlns:svg="http://www.w3.org/2000/svg"
  xmlns="http://www.w3.org/2000/svg"
  xmlns:xlink="http://www.w3.org/1999/xlink"
  version="1.1"
  width="297.0022mm" height="210.0072mm" viewBox="0.0000 0.0000 297.0022 210.0072">
<title>SVG Image created as rcbus-ymf262-B_Cu0.svg date 2025/09/01 23:04:54 </title>
  <desc>Image generated by PCBNEW </desc>
<g style="fill:#000000; fill-opacity:1.0000;stroke:#000000; stroke-opacity:1.0000;
stroke-linecap:round; stroke-linejoin:round;"
 transform="translate(0 0) scale(1 1)">
<path style="fill:#000000; fill-opacity:1.0000; stroke:none;fill-rule:evenodd;"
d="M 53.4388,80.0351
53.4388,83.6351
58.4388,83.6351
58.4388,80.0351
Z" /> 
<path style="fill:#000000; fill-opacity:1.0000; stroke:none;fill-rule:evenodd;"
d="M 53.4388,75.0351
53.4388,78.6351
58.4388,78.6351
58.4388,75.0351
Z" /> 
<path style="fill:#000000; fill-opacity:1.0000; stroke:none;fill-rule:evenodd;"
d="M 44.1388,69.3351
44.1388,74.3351
47.7388,74.3351
47.7388,69.3351
Z" /> 
<path style="fill:#000000; fill-opacity:1.0000; stroke:none;fill-rule:evenodd;"
d="M 53.4388,60.0351
53.4388,63.6351
58.4388,63.6351
58.4388,60.0351
Z" /> 
<path style="fill:#000000; fill-opacity:1.0000; stroke:none;fill-rule:evenodd;"
d="M 53.4388,65.0351
53.4388,68.6351
58.4388,68.6351
58.4388,65.0351
Z" /> 
<path style="fill:#000000; fill-opacity:1.0000; stroke:none;fill-rule:evenodd;"
d="M 222.3768,132.2651
222.3768,135.6651
225.7768,135.6651
225.7768,132.2651
Z" /> 
</g>
<g style="fill:#000000; fill-opacity:1.0000; stroke:none;">
<circle cx="229.1568" cy="133.9651" r="1.7000" /> 
</g>
<g style="fill:#000000; fill-opacity:1.0000; stroke:none;">
<circle cx="224.0768" cy="128.8851" r="1.7000" /> 
</g>
<g style="fill:#000000; fill-opacity:1.0000; stroke:none;">
<circle cx="229.1568" cy="128.8851" r="1.7000" /> 
</g>
<g style="fill:#000000; fill-opacity:1.0000; stroke:none;">
<circle cx="224.0768" cy="123.8051" r="1.7000" /> 
</g>
<g style="fill:#000000; fill-opacity:1.0000; stroke:none;">
<circle cx="229.1568" cy="123.8051" r="1.7000" /> 
</g>
<g style="fill:#000000; fill-opacity:1.0000; stroke:none;">
<circle cx="224.0768" cy="118.7251" r="1.7000" /> 
</g>
<g style="fill:#000000; fill-opacity:1.0000; stroke:none;">
<circle cx="229.1568" cy="118.7251" r="1.7000" /> 
</g>
<g style="fill:#000000; fill-opacity:1.0000; stroke:none;">
<circle cx="224.0768" cy="113.6451" r="1.7000" /> 
</g>
<g style="fill:#000000; fill-opacity:1.0000; stroke:none;">
<circle cx="229.1568" cy="113.6451" r="1.7000" /> 
</g>
<g style="fill:#000000; fill-opacity:1.0000; stroke:none;">
<circle cx="224.0768" cy="108.5651" r="1.7000" /> 
</g>
<g style="fill:#000000; fill-opacity:1.0000; stroke:none;">
<circle cx="229.1568" cy="108.5651" r="1.7000" /> 
<path style="fill:#000000; fill-opacity:1.0000; stroke:none;fill-rule:evenodd;"
d="M 228.3768,149.3451
231.7768,149.3451
231.7768,145.9451
228.3768,145.9451
Z" /> 
</g>
<g style="fill:#000000; fill-opacity:1.0000; stroke:none;">
<circle cx="224.9968" cy="147.6451" r="1.7000" /> 
<circle cx="219.9168" cy="147.6451" r="1.7000" /> 
<circle cx="214.8368" cy="147.6451" r="1.7000" /> 
<circle cx="209.7568" cy="147.6451" r="1.7000" /> 
<circle cx="204.6768" cy="147.6451" r="1.7000" /> 
<circle cx="199.5968" cy="147.6451" r="1.7000" /> 
<circle cx="194.5168" cy="147.6451" r="1.7000" /> 
<circle cx="189.4368" cy="147.6451" r="1.7000" /> 
<circle cx="184.3568" cy="147.6451" r="1.7000" /> 
<circle cx="179.2768" cy="147.6451" r="1.7000" /> 
<circle cx="174.1968" cy="147.6451" r="1.7000" /> 
<circle cx="169.1168" cy="147.6451" r="1.7000" /> 
<circle cx="164.0368" cy="147.6451" r="1.7000" /> 
<circle cx="158.9568" cy="147.6451" r="1.7000" /> 
<circle cx="153.8768" cy="147.6451" r="1.7000" /> 
<circle cx="148.7968" cy="147.6451" r="1.7000" /> 
<circle cx="143.7168" cy="147.6451" r="1.7000" /> 
<circle cx="138.6368" cy="147.6451" r="1.7000" /> 
<circle cx="133.5568" cy="147.6451" r="1.7000" /> 
<circle cx="128.4768" cy="147.6451" r="1.7000" /> 
<circle cx="123.3968" cy="147.6451" r="1.7000" /> 
<circle cx="118.3168" cy="147.6451" r="1.7000" /> 
<circle cx="113.2368" cy="147.6451" r="1.7000" /> 
<circle cx="108.1568" cy="147.6451" r="1.7000" /> 
<circle cx="103.0768" cy="147.6451" r="1.7000" /> 
<circle cx="97.9968" cy="147.6451" r="1.7000" /> 
<circle cx="92.9168" cy="147.6451" r="1.7000" /> 
<circle cx="87.8368" cy="147.6451" r="1.7000" /> 
<circle cx="82.7568" cy="147.6451" r="1.7000" /> 
<circle cx="77.6768" cy="147.6451" r="1.7000" /> 
<circle cx="72.5968" cy="147.6451" r="1.7000" /> 
<circle cx="67.5168" cy="147.6451" r="1.7000" /> 
<circle cx="62.4368" cy="147.6451" r="1.7000" /> 
<circle cx="57.3568" cy="147.6451" r="1.7000" /> 
<circle cx="52.2768" cy="147.6451" r="1.7000" /> 
<circle cx="47.1968" cy="147.6451" r="1.7000" /> 
<circle cx="42.1168" cy="147.6451" r="1.7000" /> 
<circle cx="37.0368" cy="147.6451" r="1.7000" /> 
<circle cx="169.6516" cy="130.1451" r="0.6858" /> 
</g>
<g style="fill:#000000; fill-opacity:1.0000; stroke:none;">
<circle cx="153.0768" cy="130.1451" r="0.6858" /> 
</g>
<g style="fill:#000000; fill-opacity:1.0000; stroke:none;">
<circle cx="200.6768" cy="128.6451" r="0.6858" /> 
</g>
<g style="fill:#000000; fill-opacity:1.0000; stroke:none;">
<circle cx="201.7908" cy="109.7590" r="0.6858" /> 
</g>
<g style="fill:#000000; fill-opacity:1.0000; stroke:none;">
<circle cx="232.0768" cy="91.6451" r="0.6858" /> 
</g>
<g style="fill:#000000; fill-opacity:1.0000; stroke:none;">
<circle cx="192.0768" cy="81.6451" r="0.6858" /> 
</g>
<g style="fill:#000000; fill-opacity:1.0000; stroke:none;">
<circle cx="212.0768" cy="91.6451" r="0.6858" /> 
</g>
<g style="fill:#000000; fill-opacity:1.0000; stroke:none;">
<circle cx="182.0768" cy="51.6451" r="0.6858" /> 
</g>
<g style="fill:#000000; fill-opacity:1.0000; stroke:none;">
<circle cx="172.0768" cy="71.6451" r="0.6858" /> 
</g>
<g style="fill:#000000; fill-opacity:1.0000; stroke:none;">
<circle cx="192.0768" cy="71.6451" r="0.6858" /> 
</g>
<g style="fill:#000000; fill-opacity:1.0000; stroke:none;">
<circle cx="182.0768" cy="81.6451" r="0.6858" /> 
</g>
<g style="fill:#000000; fill-opacity:1.0000; stroke:none;">
<circle cx="232.0768" cy="101.6451" r="0.6858" /> 
</g>
<g style="fill:#000000; fill-opacity:1.0000; stroke:none;">
<circle cx="202.0768" cy="51.6451" r="0.6858" /> 
</g>
<g style="fill:#000000; fill-opacity:1.0000; stroke:none;">
<circle cx="202.0768" cy="81.6451" r="0.6858" /> 
</g>
<g style="fill:#000000; fill-opacity:1.0000; stroke:none;">
<circle cx="192.0768" cy="51.6451" r="0.6858" /> 
</g>
<g style="fill:#000000; fill-opacity:1.0000; stroke:none;">
<circle cx="158.5768" cy="137.1451" r="0.6858" /> 
</g>
<g style="fill:#000000; fill-opacity:1.0000; stroke:none;">
<circle cx="232.0768" cy="131.6451" r="0.6858" /> 
</g>
<g style="fill:#000000; fill-opacity:1.0000; stroke:none;">
<circle cx="212.0768" cy="101.6451" r="0.6858" /> 
</g>
<g style="fill:#000000; fill-opacity:1.0000; stroke:none;">
<circle cx="97.1068" cy="138.6451" r="0.6858" /> 
</g>
<g style="fill:#000000; fill-opacity:1.0000; stroke:none;">
<circle cx="200.6768" cy="133.6451" r="0.6858" /> 
</g>
<g style="fill:#000000; fill-opacity:1.0000; stroke:none;">
<circle cx="182.0768" cy="71.6451" r="0.6858" /> 
</g>
<g style="fill:#000000; fill-opacity:1.0000; stroke:none;">
<circle cx="222.0768" cy="71.6451" r="0.6858" /> 
</g>
<g style="fill:#000000; fill-opacity:1.0000; stroke:none;">
<circle cx="152.0768" cy="61.6451" r="0.6858" /> 
</g>
<g style="fill:#000000; fill-opacity:1.0000; stroke:none;">
<circle cx="102.0768" cy="83.6451" r="0.6858" /> 
</g>
<g style="fill:#000000; fill-opacity:1.0000; stroke:none;">
<circle cx="200.6768" cy="118.6451" r="0.6858" /> 
</g>
<g style="fill:#000000; fill-opacity:1.0000; stroke:none;">
<circle cx="122.4768" cy="104.4451" r="0.6858" /> 
</g>
<g style="fill:#000000; fill-opacity:1.0000; stroke:none;">
<circle cx="232.0768" cy="81.6451" r="0.6858" /> 
</g>
<g style="fill:#000000; fill-opacity:1.0000; stroke:none;">
<circle cx="116.0768" cy="63.1451" r="0.6858" /> 
</g>
<g style="fill:#000000; fill-opacity:1.0000; stroke:none;">
<circle cx="152.0768" cy="81.6451" r="0.6858" /> 
</g>
<g style="fill:#000000; fill-opacity:1.0000; stroke:none;">
<circle cx="202.0768" cy="61.6451" r="0.6858" /> 
</g>
<g style="fill:#000000; fill-opacity:1.0000; stroke:none;">
<circle cx="186.6147" cy="113.4089" r="0.6858" /> 
</g>
<g style="fill:#000000; fill-opacity:1.0000; stroke:none;">
<circle cx="172.0768" cy="61.6451" r="0.6858" /> 
</g>
<g style="fill:#000000; fill-opacity:1.0000; stroke:none;">
<circle cx="202.0768" cy="101.6451" r="0.6858" /> 
</g>
<g style="fill:#000000; fill-opacity:1.0000; stroke:none;">
<circle cx="142.0768" cy="51.6451" r="0.6858" /> 
</g>
<g style="fill:#000000; fill-opacity:1.0000; stroke:none;">
<circle cx="115.5768" cy="89.1451" r="0.6858" /> 
</g>
<g style="fill:#000000; fill-opacity:1.0000; stroke:none;">
<circle cx="232.0768" cy="121.6451" r="0.6858" /> 
</g>
<g style="fill:#000000; fill-opacity:1.0000; stroke:none;">
<circle cx="162.0768" cy="61.6451" r="0.6858" /> 
</g>
<g style="fill:#000000; fill-opacity:1.0000; stroke:none;">
<circle cx="162.0768" cy="81.6451" r="0.6858" /> 
</g>
<g style="fill:#000000; fill-opacity:1.0000; stroke:none;">
<circle cx="124.0768" cy="86.1451" r="0.6858" /> 
</g>
<g style="fill:#000000; fill-opacity:1.0000; stroke:none;">
<circle cx="222.0768" cy="101.6451" r="0.6858" /> 
</g>
<g style="fill:#000000; fill-opacity:1.0000; stroke:none;">
<circle cx="162.0768" cy="51.6451" r="0.6858" /> 
</g>
<g style="fill:#000000; fill-opacity:1.0000; stroke:none;">
<circle cx="232.0768" cy="141.6451" r="0.6858" /> 
</g>
<g style="fill:#000000; fill-opacity:1.0000; stroke:none;">
<circle cx="152.0768" cy="51.6451" r="0.6858" /> 
</g>
<g style="fill:#000000; fill-opacity:1.0000; stroke:none;">
<circle cx="182.0768" cy="61.6451" r="0.6858" /> 
</g>
<g style="fill:#000000; fill-opacity:1.0000; stroke:none;">
<circle cx="232.0768" cy="111.6451" r="0.6858" /> 
</g>
<g style="fill:#000000; fill-opacity:1.0000; stroke:none;">
<circle cx="66.6726" cy="53.6201" r="0.6858" /> 
</g>
<g style="fill:#000000; fill-opacity:1.0000; stroke:none;">
<circle cx="212.0768" cy="61.6451" r="0.6858" /> 
</g>
<g style="fill:#000000; fill-opacity:1.0000; stroke:none;">
<circle cx="169.4568" cy="138.5251" r="0.6858" /> 
</g>
<g style="fill:#000000; fill-opacity:1.0000; stroke:none;">
<circle cx="142.0768" cy="61.6451" r="0.6858" /> 
</g>
<g style="fill:#000000; fill-opacity:1.0000; stroke:none;">
<circle cx="142.0768" cy="81.6451" r="0.6858" /> 
</g>
<g style="fill:#000000; fill-opacity:1.0000; stroke:none;">
<circle cx="202.0768" cy="71.6451" r="0.6858" /> 
</g>
<g style="fill:#000000; fill-opacity:1.0000; stroke:none;">
<circle cx="172.0768" cy="51.6451" r="0.6858" /> 
</g>
<g style="fill:#000000; fill-opacity:1.0000; stroke:none;">
<circle cx="200.6768" cy="113.6451" r="0.6858" /> 
</g>
<g style="fill:#000000; fill-opacity:1.0000; stroke:none;">
<circle cx="192.0768" cy="61.6451" r="0.6858" /> 
</g>
<g style="fill:#000000; fill-opacity:1.0000; stroke:none;">
<circle cx="162.0768" cy="71.6451" r="0.6858" /> 
</g>
<g style="fill:#000000; fill-opacity:1.0000; stroke:none;">
<circle cx="200.6768" cy="123.6451" r="0.6858" /> 
</g>
<g style="fill:#000000; fill-opacity:1.0000; stroke:none;">
<circle cx="212.0768" cy="81.6451" r="0.6858" /> 
</g>
<g style="fill:#000000; fill-opacity:1.0000; stroke:none;">
<circle cx="172.0768" cy="81.6451" r="0.6858" /> 
</g>
<g style="fill:#000000; fill-opacity:1.0000; stroke:none;">
<circle cx="142.0768" cy="71.6451" r="0.6858" /> 
</g>
<g style="fill:#000000; fill-opacity:1.0000; stroke:none;">
<circle cx="66.4768" cy="61.8451" r="0.6858" /> 
</g>
<g style="fill:#000000; fill-opacity:1.0000; stroke:none;">
<circle cx="202.0768" cy="91.6451" r="0.6858" /> 
</g>
<g style="fill:#000000; fill-opacity:1.0000; stroke:none;">
<circle cx="212.0768" cy="71.6451" r="0.6858" /> 
</g>
<g style="fill:#000000; fill-opacity:1.0000; stroke:none;">
<circle cx="152.0768" cy="71.6451" r="0.6858" /> 
</g>
<g style="fill:#000000; fill-opacity:1.0000; stroke:none;">
<circle cx="222.0768" cy="91.6451" r="0.6858" /> 
</g>
<g style="fill:#000000; fill-opacity:1.0000; stroke:none;">
<circle cx="106.4768" cy="138.6451" r="0.6858" /> 
</g>
<g style="fill:#000000; fill-opacity:1.0000; stroke:none;">
<circle cx="184.0768" cy="130.5451" r="0.6858" /> 
</g>
<g style="fill:#000000; fill-opacity:1.0000; stroke:none;">
<circle cx="115.0020" cy="111.9325" r="0.6858" /> 
</g>
<g style="fill:#000000; fill-opacity:1.0000; stroke:none;">
<circle cx="120.6768" cy="112.4451" r="0.6858" /> 
</g>
<g style="fill:#000000; fill-opacity:1.0000; stroke:none;">
<circle cx="181.7768" cy="91.8451" r="0.6858" /> 
</g>
<g style="fill:#000000; fill-opacity:1.0000; stroke:none;">
<circle cx="156.8238" cy="93.4995" r="0.6858" /> 
</g>
<g style="fill:#000000; fill-opacity:1.0000; stroke:none;">
<circle cx="171.0902" cy="92.6489" r="0.6858" /> 
</g>
<g style="fill:#000000; fill-opacity:1.0000; stroke:none;">
<circle cx="105.0768" cy="77.6451" r="0.6858" /> 
</g>
<g style="fill:#000000; fill-opacity:1.0000; stroke:none;">
<circle cx="113.0768" cy="70.6451" r="0.6858" /> 
</g>
<g style="fill:#000000; fill-opacity:1.0000; stroke:none;">
<circle cx="162.2198" cy="93.9175" r="0.6858" /> 
</g>
<g style="fill:#000000; fill-opacity:1.0000; stroke:none;">
<circle cx="177.0768" cy="122.5947" r="0.6858" /> 
</g>
<g style="fill:#000000; fill-opacity:1.0000; stroke:none;">
<circle cx="191.3404" cy="127.8815" r="0.6858" /> 
</g>
<g style="fill:#000000; fill-opacity:1.0000; stroke:none;">
<circle cx="182.2850" cy="124.1251" r="0.6858" /> 
</g>
<g style="fill:#000000; fill-opacity:1.0000; stroke:none;">
<circle cx="182.1092" cy="128.5447" r="0.6858" /> 
</g>
<g style="fill:#000000; fill-opacity:1.0000; stroke:none;">
<circle cx="208.1636" cy="111.2747" r="0.6858" /> 
</g>
<g style="fill:#000000; fill-opacity:1.0000; stroke:none;">
<circle cx="188.2020" cy="140.8451" r="0.6858" /> 
</g>
<g style="fill:#000000; fill-opacity:1.0000; stroke:none;">
<circle cx="196.4663" cy="128.5886" r="0.6858" /> 
</g>
<g style="fill:#000000; fill-opacity:1.0000; stroke:none;">
<circle cx="173.0768" cy="121.2803" r="0.6858" /> 
</g>
<g style="fill:#000000; fill-opacity:1.0000; stroke:none;">
<circle cx="192.3283" cy="124.5539" r="0.6858" /> 
</g>
<g style="fill:#000000; fill-opacity:1.0000; stroke:none;">
<circle cx="195.7233" cy="125.4067" r="0.6858" /> 
</g>
<g style="fill:none; 
stroke:#000000; stroke-width:0.7620; stroke-opacity:1; 
stroke-linecap:round; stroke-linejoin:round;">
<path d="M153.0768 130.1451
L153.0768 138.2851
" />
<path d="M169.6516 130.1451
L153.0768 130.1451
" />
<path d="M143.7168 147.6451
L152.8968 138.4651
" />
<path d="M153.0768 138.2851
L152.8968 138.4651
" />
<path d="M116.9768 128.1451
L158.8497 128.1451
" />
<path d="M158.9245 128.2199
L160.2291 128.2199
" />
<path d="M160.2291 128.2199
L160.3039 128.1451
" />
<path d="M179.4825 128.1451
L181.8825 130.5451
" />
<path d="M160.3039 128.1451
L179.4825 128.1451
" />
<path d="M158.8497 128.1451
L158.9245 128.2199
" />
<path d="M106.4768 138.6451
L116.9768 128.1451
" />
<path d="M181.8825 130.5451
L184.0768 130.5451
" />
<path d="M115.1145 112.0451
L115.0020 111.9325
" />
<path d="M117.6212 112.4451
L117.2212 112.0451
" />
<path d="M120.6768 112.4451
L117.6212 112.4451
" />
<path d="M117.2212 112.0451
L115.1145 112.0451
" />
<path d="M161.4622 92.0887
L162.9774 92.0887
" />
<path d="M156.8238 93.4995
L160.0514 93.4995
" />
<path d="M163.5376 92.6489
L171.0902 92.6489
" />
<path d="M171.0902 92.6489
L171.8940 91.8451
" />
<path d="M160.0514 93.4995
L161.4622 92.0887
" />
<path d="M171.8940 91.8451
L181.7768 91.8451
" />
<path d="M162.9774 92.0887
L163.5376 92.6489
" />
<path d="M105.0768 77.6451
L112.0768 70.6451
" />
<path d="M112.0768 70.6451
L113.0768 70.6451
" />
<path d="M162.2198 93.9175
L162.7800 94.4777
" />
<path d="M186.0091 122.5503
L191.3404 127.8815
" />
<path d="M177.0768 122.5947
L181.1887 122.5947
" />
<path d="M181.2331 122.5503
L186.0091 122.5503
" />
<path d="M181.1887 122.5947
L181.2331 122.5503
" />
<path d="M182.1092 124.3008
L182.1092 128.5447
" />
<path d="M182.2850 124.1251
L182.1092 124.3008
" />
<path d="M208.1636 130.7854
L198.1039 140.8451
" />
<path d="M198.1039 140.8451
L188.2020 140.8451
" />
<path d="M208.1636 111.2747
L208.1636 130.7854
" />
<path d="M173.0768 121.2803
L176.1641 121.2803
" />
<path d="M186.5352 121.2803
L191.5616 126.3067
" />
<path d="M191.5616 126.3067
L194.1845 126.3067
" />
<path d="M177.7291 121.0199
L177.9895 121.2803
" />
<path d="M176.4245 121.0199
L177.7291 121.0199
" />
<path d="M194.1845 126.3067
L196.4663 128.5886
" />
<path d="M176.1641 121.2803
L176.4245 121.0199
" />
<path d="M177.9895 121.2803
L186.5352 121.2803
" />
<path d="M195.7233 125.4067
L194.8705 124.5539
" />
<path d="M194.8705 124.5539
L192.3283 124.5539
" />
<path style="fill:#000000; fill-opacity:1.0000; stroke:none;fill-rule:evenodd;"
d="M 44.0716,50.7963
43.1913,50.8327
43.1706,50.8344
42.3015,50.9427
42.2809,50.9462
41.4237,51.1259
41.4036,51.1310
40.5641,51.3809
40.5444,51.3877
40.2296,51.5105
39.7285,51.7060
39.7095,51.7144
38.9226,52.0991
38.9043,52.1090
38.1519,52.5573
38.1345,52.5687
37.4217,53.0776
37.4053,53.0904
36.7369,53.6565
36.7216,53.6706
36.1023,54.2899
36.0882,54.3051
35.5222,54.9735
35.5094,54.9899
35.0005,55.7027
34.9891,55.7202
34.5407,56.4726
34.5308,56.4909
34.1462,57.2777
34.1378,57.2968
33.8194,58.1127
33.8127,58.1324
33.5628,58.9718
33.5577,58.9920
33.3779,59.8492
33.3745,59.8697
33.2662,60.7388
33.2644,60.7596
33.2280,61.6398
33.2278,61.6502
33.2278,64.3201
33.2678,64.4563
33.3751,64.5493
33.4798,64.5721
35.0038,64.5721
35.0528,64.5721
35.2446,64.5721
35.6235,64.6321
35.6235,64.6321
35.6235,64.6321
35.9883,64.7506
36.3301,64.9248
36.6404,65.1502
36.6404,65.1502
36.9116,65.4214
36.9117,65.4215
37.1371,65.7318
37.3113,66.0736
37.3780,66.2788
37.4298,66.4384
37.4898,66.8173
37.4898,66.9790
37.4898,76.6120
37.4898,76.6611
37.4898,76.8529
37.4298,77.2317
37.4298,77.2317
37.3495,77.4789
37.3113,77.5965
37.1371,77.9383
36.9117,78.2487
36.9117,78.2487
36.9116,78.2487
36.6404,78.5199
36.6404,78.5199
36.6404,78.5199
36.3301,78.7454
35.9883,78.9195
35.6235,79.0381
35.2446,79.0981
35.0829,79.0981
33.4798,79.0981
33.3436,79.1381
33.2506,79.2454
33.2278,79.3501
33.2278,150.2421
33.2678,150.3783
33.3751,150.4713
33.4798,150.4941
35.6292,150.4941
35.7654,150.4541
35.8584,150.3467
35.8786,150.2062
35.8196,150.0770
35.7436,150.0175
35.6212,149.9552
35.2772,149.7053
34.9766,149.4046
34.7267,149.0607
34.5337,148.6819
34.4023,148.2775
34.3358,147.8576
34.3358,147.4325
34.4023,147.0126
34.5337,146.6082
34.7267,146.2294
34.9766,145.8855
34.9766,145.8855
34.9766,145.8855
35.2772,145.5849
35.2772,145.5849
35.2772,145.5848
35.6212,145.3350
36.0000,145.1419
36.4043,145.0106
36.8242,144.9441
37.2494,144.9441
37.6693,145.0106
37.6693,145.0106
37.6693,145.0106
38.0736,145.1419
38.0736,145.1419
38.4525,145.3350
38.7964,145.5849
38.7964,145.5849
39.0970,145.8855
39.0970,145.8855
39.3469,146.2294
39.3523,146.2400
39.4498,146.3432
39.5876,146.3773
39.7220,146.3315
39.8013,146.2400
39.8067,146.2294
39.8067,146.2294
40.0566,145.8855
40.0566,145.8855
40.0566,145.8855
40.3572,145.5849
40.3572,145.5849
40.3572,145.5848
40.7012,145.3350
41.0800,145.1419
41.4843,145.0106
41.9042,144.9441
42.3294,144.9441
42.7493,145.0106
42.7493,145.0106
42.7493,145.0106
43.1536,145.1419
43.1536,145.1419
43.5325,145.3350
43.8764,145.5849
43.8764,145.5849
44.1770,145.8855
44.1770,145.8855
44.4269,146.2294
44.4323,146.2400
44.5298,146.3432
44.6676,146.3773
44.8020,146.3315
44.8813,146.2400
44.8867,146.2294
44.8867,146.2294
45.1366,145.8855
45.1366,145.8855
45.1366,145.8855
45.4372,145.5849
45.4372,145.5849
45.4372,145.5848
45.7812,145.3350
46.1600,145.1419
46.5643,145.0106
46.9842,144.9441
47.4094,144.9441
47.8293,145.0106
47.8293,145.0106
47.8293,145.0106
48.2336,145.1419
48.2336,145.1419
48.6125,145.3350
48.9564,145.5849
48.9564,145.5849
49.2570,145.8855
49.2570,145.8855
49.5069,146.2294
49.5123,146.2400
49.6098,146.3432
49.7476,146.3773
49.8820,146.3315
49.9613,146.2400
49.9667,146.2294
49.9667,146.2294
50.2166,145.8855
50.2166,145.8855
50.2166,145.8855
50.5172,145.5849
50.5172,145.5849
50.5172,145.5848
50.8612,145.3350
51.2400,145.1419
51.6443,145.0106
52.0642,144.9441
52.4894,144.9441
52.9093,145.0106
52.9093,145.0106
52.9093,145.0106
53.3136,145.1419
53.3136,145.1419
53.6925,145.3350
54.0364,145.5849
54.0364,145.5849
54.3370,145.8855
54.3370,145.8855
54.5869,146.2294
54.5923,146.2400
54.6898,146.3432
54.8276,146.3773
54.9620,146.3315
55.0413,146.2400
55.0467,146.2294
55.0467,146.2294
55.2966,145.8855
55.2966,145.8855
55.2966,145.8855
55.5972,145.5849
55.5972,145.5849
55.5972,145.5848
55.9412,145.3350
56.3200,145.1419
56.7243,145.0106
57.1442,144.9441
57.5694,144.9441
57.9893,145.0106
57.9893,145.0106
57.9893,145.0106
58.3936,145.1419
58.3936,145.1419
58.7725,145.3350
59.1164,145.5849
59.1164,145.5849
59.4170,145.8855
59.4170,145.8855
59.6669,146.2294
59.6723,146.2400
59.7698,146.3432
59.9076,146.3773
60.0420,146.3315
60.1213,146.2400
60.1267,146.2294
60.1267,146.2294
60.3766,145.8855
60.3766,145.8855
60.3766,145.8855
60.6772,145.5849
60.6772,145.5849
60.6772,145.5848
61.0212,145.3350
61.4000,145.1419
61.8043,145.0106
62.2242,144.9441
62.6494,144.9441
63.0693,145.0106
63.0693,145.0106
63.0693,145.0106
63.4736,145.1419
63.4736,145.1419
63.8525,145.3350
64.1964,145.5849
64.1964,145.5849
64.4970,145.8855
64.4970,145.8855
64.7469,146.2294
64.7523,146.2400
64.8498,146.3432
64.9876,146.3773
65.1220,146.3315
65.2013,146.2400
65.2067,146.2294
65.2067,146.2294
65.4566,145.8855
65.4566,145.8855
65.4566,145.8855
65.7572,145.5849
65.7572,145.5849
65.7572,145.5848
66.1012,145.3350
66.4800,145.1419
66.8843,145.0106
67.3042,144.9441
67.7294,144.9441
68.1493,145.0106
68.1493,145.0106
68.1493,145.0106
68.5536,145.1419
68.5536,145.1419
68.9325,145.3350
69.2764,145.5849
69.2764,145.5849
69.5770,145.8855
69.5770,145.8855
69.8269,146.2294
69.8323,146.2400
69.9298,146.3432
70.0676,146.3773
70.2020,146.3315
70.2813,146.2400
70.2867,146.2294
70.2867,146.2294
70.5366,145.8855
70.5366,145.8855
70.5366,145.8855
70.8372,145.5849
70.8372,145.5849
70.8372,145.5848
71.1812,145.3350
71.5600,145.1419
71.9643,145.0106
72.3842,144.9441
72.8094,144.9441
73.2293,145.0106
73.2293,145.0106
73.2293,145.0106
73.6336,145.1419
73.6336,145.1419
74.0125,145.3350
74.3564,145.5849
74.3564,145.5849
74.6570,145.8855
74.6570,145.8855
74.9069,146.2294
74.9123,146.2400
75.0098,146.3432
75.1476,146.3773
75.2820,146.3315
75.3613,146.2400
75.3667,146.2294
75.3667,146.2294
75.6166,145.8855
75.6166,145.8855
75.6166,145.8855
75.9172,145.5849
75.9172,145.5849
75.9172,145.5848
76.2612,145.3350
76.6400,145.1419
77.0443,145.0106
77.4642,144.9441
77.8894,144.9441
78.3093,145.0106
78.3093,145.0106
78.3093,145.0106
78.7136,145.1419
78.7136,145.1419
79.0925,145.3350
79.4364,145.5849
79.4364,145.5849
79.7370,145.8855
79.7370,145.8855
79.9869,146.2294
79.9923,146.2400
80.0898,146.3432
80.2276,146.3773
80.3620,146.3315
80.4413,146.2400
80.4467,146.2294
80.4467,146.2294
80.6966,145.8855
80.6966,145.8855
80.6966,145.8855
80.9972,145.5849
80.9972,145.5849
80.9972,145.5848
81.3412,145.3350
81.7200,145.1419
82.1243,145.0106
82.5442,144.9441
82.9694,144.9441
83.3893,145.0106
83.3893,145.0106
83.3893,145.0106
83.7936,145.1419
83.7936,145.1419
84.1725,145.3350
84.5164,145.5849
84.5164,145.5849
84.8170,145.8855
84.8170,145.8855
85.0669,146.2294
85.0723,146.2400
85.1698,146.3432
85.3076,146.3773
85.4420,146.3315
85.5213,146.2400
85.5267,146.2294
85.5267,146.2294
85.7766,145.8855
85.7766,145.8855
85.7766,145.8855
86.0772,145.5849
86.0772,145.5849
86.0772,145.5848
86.4212,145.3350
86.8000,145.1419
87.2043,145.0106
87.6242,144.9441
88.0494,144.9441
88.4693,145.0106
88.4693,145.0106
88.4693,145.0106
88.8736,145.1419
88.8736,145.1419
89.2525,145.3350
89.5964,145.5849
89.5964,145.5849
89.8970,145.8855
89.8970,145.8855
90.1469,146.2294
90.1523,146.2400
90.2498,146.3432
90.3876,146.3773
90.5220,146.3315
90.6013,146.2400
90.6067,146.2294
90.6067,146.2294
90.8566,145.8855
90.8566,145.8855
90.8566,145.8855
91.1572,145.5849
91.1572,145.5849
91.1572,145.5848
91.5012,145.3350
91.8800,145.1419
92.2843,145.0106
92.7042,144.9441
93.1294,144.9441
93.5493,145.0106
93.5493,145.0106
93.5493,145.0106
93.9536,145.1419
93.9536,145.1419
94.3325,145.3350
94.6764,145.5849
94.6764,145.5849
94.9770,145.8855
94.9770,145.8855
95.2269,146.2294
95.2323,146.2400
95.3298,146.3432
95.4676,146.3773
95.6020,146.3315
95.6813,146.2400
95.6867,146.2294
95.6867,146.2294
95.9366,145.8855
95.9366,145.8855
95.9366,145.8855
96.2372,145.5849
96.2372,145.5849
96.2372,145.5848
96.5812,145.3350
96.9600,145.1419
97.3643,145.0106
97.7842,144.9441
98.2094,144.9441
98.6293,145.0106
98.6293,145.0106
98.6293,145.0106
99.0336,145.1419
99.0336,145.1419
99.4125,145.3350
99.7564,145.5849
99.7564,145.5849
100.0570,145.8855
100.0570,145.8855
100.3069,146.2294
100.3123,146.2400
100.4098,146.3432
100.5476,146.3773
100.6820,146.3315
100.7613,146.2400
100.7667,146.2294
100.7667,146.2294
101.0166,145.8855
101.0166,145.8855
101.0166,145.8855
101.3172,145.5849
101.3172,145.5849
101.3172,145.5848
101.6612,145.3350
102.0400,145.1419
102.4443,145.0106
102.8642,144.9441
103.2894,144.9441
103.7093,145.0106
103.7093,145.0106
103.7093,145.0106
104.1136,145.1419
104.1136,145.1419
104.4925,145.3350
104.8364,145.5849
104.8364,145.5849
105.1370,145.8855
105.1370,145.8855
105.3869,146.2294
105.3923,146.2400
105.4898,146.3432
105.6276,146.3773
105.7620,146.3315
105.8413,146.2400
105.8467,146.2294
105.8467,146.2294
106.0966,145.8855
106.0966,145.8855
106.0966,145.8855
106.3972,145.5849
106.3972,145.5849
106.3972,145.5848
106.7412,145.3350
107.1200,145.1419
107.5243,145.0106
107.9442,144.9441
108.3694,144.9441
108.7893,145.0106
108.7893,145.0106
108.7893,145.0106
109.1936,145.1419
109.1936,145.1419
109.5725,145.3350
109.9164,145.5849
109.9164,145.5849
110.2170,145.8855
110.2170,145.8855
110.4669,146.2294
110.4723,146.2400
110.5698,146.3432
110.7076,146.3773
110.8420,146.3315
110.9213,146.2400
110.9267,146.2294
110.9267,146.2294
111.1766,145.8855
111.1766,145.8855
111.1766,145.8855
111.4772,145.5849
111.4772,145.5849
111.4772,145.5848
111.8212,145.3350
112.2000,145.1419
112.6043,145.0106
113.0242,144.9441
113.4494,144.9441
113.8693,145.0106
113.8693,145.0106
113.8693,145.0106
114.2736,145.1419
114.2736,145.1419
114.6525,145.3350
114.9964,145.5849
114.9964,145.5849
115.2970,145.8855
115.2970,145.8855
115.5469,146.2294
115.5523,146.2400
115.6498,146.3432
115.7876,146.3773
115.9220,146.3315
116.0013,146.2400
116.0067,146.2294
116.0067,146.2294
116.2566,145.8855
116.2566,145.8855
116.2566,145.8855
116.5572,145.5849
116.5572,145.5849
116.5572,145.5848
116.9012,145.3350
117.2800,145.1419
117.6843,145.0106
118.1042,144.9441
118.5294,144.9441
118.9493,145.0106
118.9493,145.0106
118.9493,145.0106
119.3536,145.1419
119.3536,145.1419
119.7325,145.3350
120.0764,145.5849
120.0764,145.5849
120.3770,145.8855
120.3770,145.8855
120.6269,146.2294
120.6323,146.2400
120.7298,146.3432
120.8676,146.3773
121.0020,146.3315
121.0813,146.2400
121.0867,146.2294
121.0867,146.2294
121.3366,145.8855
121.3366,145.8855
121.3366,145.8855
121.6372,145.5849
121.6372,145.5849
121.6372,145.5848
121.9812,145.3350
122.3600,145.1419
122.7643,145.0106
123.1842,144.9441
123.6094,144.9441
124.0293,145.0106
124.0293,145.0106
124.0293,145.0106
124.4336,145.1419
124.4336,145.1419
124.8125,145.3350
125.1564,145.5849
125.1564,145.5849
125.4570,145.8855
125.4570,145.8855
125.7069,146.2294
125.7123,146.2400
125.8098,146.3432
125.9476,146.3773
126.0820,146.3315
126.1613,146.2400
126.1667,146.2294
126.1667,146.2294
126.4166,145.8855
126.4166,145.8855
126.4166,145.8855
126.7172,145.5849
126.7172,145.5849
126.7172,145.5848
127.0612,145.3350
127.4400,145.1419
127.8443,145.0106
128.2642,144.9441
128.6894,144.9441
129.1093,145.0106
129.1093,145.0106
129.1093,145.0106
129.5136,145.1419
129.5136,145.1419
129.8925,145.3350
130.2364,145.5849
130.2364,145.5849
130.5370,145.8855
130.5370,145.8855
130.7869,146.2294
130.7923,146.2400
130.8898,146.3432
131.0276,146.3773
131.1620,146.3315
131.2413,146.2400
131.2467,146.2294
131.2467,146.2294
131.4966,145.8855
131.4966,145.8855
131.4966,145.8855
131.7972,145.5849
131.7972,145.5849
131.7972,145.5848
132.1412,145.3350
132.5200,145.1419
132.9243,145.0106
133.3442,144.9441
133.7694,144.9441
134.1893,145.0106
134.1893,145.0106
134.1893,145.0106
134.5936,145.1419
134.5936,145.1419
134.9725,145.3350
135.3164,145.5849
135.3164,145.5849
135.6170,145.8855
135.6170,145.8855
135.8669,146.2294
135.8723,146.2400
135.9698,146.3432
136.1076,146.3773
136.2420,146.3315
136.3213,146.2400
136.3267,146.2294
136.3267,146.2294
136.5766,145.8855
136.5766,145.8855
136.5766,145.8855
136.8772,145.5849
136.8772,145.5849
136.8772,145.5848
137.2212,145.3350
137.6000,145.1419
138.0043,145.0106
138.4242,144.9441
138.8494,144.9441
139.2693,145.0106
139.2693,145.0106
139.2693,145.0106
139.6736,145.1419
139.6736,145.1419
140.0525,145.3350
140.3964,145.5849
140.3964,145.5849
140.6970,145.8855
140.6970,145.8855
140.9469,146.2294
140.9523,146.2400
141.0498,146.3432
141.1876,146.3773
141.3220,146.3315
141.4013,146.2400
141.4067,146.2294
141.4067,146.2294
141.6566,145.8855
141.6566,145.8855
141.6566,145.8855
141.9572,145.5849
141.9572,145.5849
141.9572,145.5848
142.3012,145.3350
142.6800,145.1419
143.0843,145.0106
143.5042,144.9441
143.9294,144.9441
144.2635,144.9970
144.4044,144.9788
144.4812,144.9263
151.6210,137.7864
151.6891,137.6618
151.6948,137.6082
151.6948,131.1894
151.6548,131.0531
151.6525,131.0495
151.5820,130.9441
151.4548,130.6371
151.3900,130.3112
151.3900,129.9789
151.4200,129.8282
151.4073,129.6868
151.3202,129.5747
151.1863,129.5274
151.1728,129.5271
117.6536,129.5271
117.5174,129.5671
117.4754,129.6009
108.1925,138.8838
108.1244,139.0085
108.1235,139.0129
108.0988,139.1371
107.9716,139.4441
107.9110,139.5348
107.7870,139.7203
107.7870,139.7203
107.5521,139.9553
107.5521,139.9553
107.2758,140.1399
106.9688,140.2670
106.6430,140.3319
106.6429,140.3319
106.3107,140.3319
106.3107,140.3319
105.9848,140.2670
105.6778,140.1399
105.4015,139.9553
105.1666,139.7203
104.9820,139.4441
104.8548,139.1371
104.7900,138.8112
104.7900,138.4789
104.8548,138.1530
104.9820,137.8461
105.1666,137.5698
105.1666,137.5698
105.4015,137.3348
105.4015,137.3348
105.4932,137.2736
105.6778,137.1502
105.9848,137.0231
106.1090,136.9984
106.2348,136.9326
106.2380,136.9294
116.0958,127.0716
116.0958,127.0716
116.1168,127.0576
116.3222,126.9203
116.3222,126.9203
116.5737,126.8162
116.5737,126.8162
116.8407,126.7631
116.8407,126.7631
158.9858,126.7631
158.9858,126.7631
159.2528,126.8162
159.2528,126.8162
159.2589,126.8187
159.2755,126.8220
159.2843,126.8276
159.3553,126.8379
159.7983,126.8379
159.8948,126.8187
159.9008,126.8162
159.9008,126.8162
160.1678,126.7631
160.1678,126.7631
179.6186,126.7631
179.6186,126.7631
179.8856,126.8162
179.8856,126.8162
180.1371,126.9203
180.3352,127.0527
180.4707,127.0951
180.6076,127.0576
180.7025,126.9519
180.7272,126.8432
180.7272,124.8222
180.7080,124.7257
180.6630,124.6171
180.5982,124.2912
180.5982,124.2287
180.5582,124.0924
180.4509,123.9994
180.3462,123.9767
178.1211,123.9767
177.9849,124.0167
177.9811,124.0191
177.8758,124.0895
177.5688,124.2166
177.2429,124.2815
177.2429,124.2815
176.9107,124.2815
176.9107,124.2815
176.5848,124.2166
176.2778,124.0895
176.0015,123.9049
175.7666,123.6699
175.5820,123.3937
175.4548,123.0867
175.4108,122.8651
175.3449,122.7393
175.2216,122.6690
175.1636,122.6623
174.1211,122.6623
173.9849,122.7023
173.9811,122.7047
173.8758,122.7751
173.5688,122.9022
173.2430,122.9671
173.2429,122.9671
172.9107,122.9671
172.9107,122.9671
172.5848,122.9022
172.2778,122.7751
172.0015,122.5905
171.7666,122.3555
171.5820,122.0793
171.4548,121.7723
171.3900,121.4464
171.3900,121.1141
171.4548,120.7882
171.5820,120.4813
171.7666,120.2050
171.7666,120.2050
172.0015,119.9700
172.0015,119.9700
172.1688,119.8583
172.2778,119.7854
172.5848,119.6583
172.6347,119.6484
172.9107,119.5935
172.9107,119.5935
173.2430,119.5935
173.2430,119.5935
173.5688,119.6583
173.5688,119.6583
173.8758,119.7854
173.9811,119.8558
174.1166,119.8982
174.1211,119.8983
175.5391,119.8983
175.6754,119.8583
175.6791,119.8558
175.7699,119.7951
175.9285,119.7294
176.0214,119.6910
176.0214,119.6910
176.2884,119.6379
176.2884,119.6379
177.8652,119.6379
177.8652,119.6379
178.1322,119.6910
178.1322,119.6910
178.3837,119.7951
178.4745,119.8558
178.6100,119.8982
178.6145,119.8983
186.6713,119.8983
186.9003,119.9438
186.9003,119.9438
186.9256,119.9488
186.9383,119.9514
187.1898,120.0555
187.4161,120.2068
187.4162,120.2068
190.6749,123.4655
190.7995,123.5335
190.9411,123.5234
191.0312,123.4655
191.2530,123.2437
191.2530,123.2437
191.3605,123.1719
191.5293,123.0591
191.8363,122.9319
192.1622,122.8671
192.1622,122.8671
192.4944,122.8671
192.4944,122.8671
192.8203,122.9319
192.8203,122.9319
193.1273,123.0591
193.2326,123.1294
193.3681,123.1719
193.3726,123.1719
195.0066,123.1719
195.2736,123.2250
195.2736,123.2250
195.5251,123.3292
195.7487,123.4786
195.7514,123.4805
195.7515,123.4805
195.9621,123.6911
196.0867,123.7591
196.0911,123.7601
196.1253,123.7669
196.2153,123.7848
196.2153,123.7848
196.5223,123.9119
196.7986,124.0965
196.7986,124.0965
197.0335,124.3315
197.0335,124.3315
197.2181,124.6077
197.3453,124.9147
197.3453,124.9147
197.4101,125.2406
197.4101,125.2406
197.4101,125.5729
197.3453,125.8988
197.2181,126.2057
197.0335,126.4820
196.9355,126.5800
196.8675,126.7046
196.8776,126.8462
196.9627,126.9599
197.0173,126.9910
197.1631,127.0514
197.1662,127.0527
197.2653,127.0937
197.5416,127.2783
197.5416,127.2784
197.7766,127.5133
197.7766,127.5133
197.9612,127.7896
198.0883,128.0965
198.0883,128.0965
198.1531,128.4224
198.1531,128.7547
198.1196,128.9231
198.0883,129.0806
197.9612,129.3876
197.9062,129.4698
197.7766,129.6638
197.7766,129.6639
197.5416,129.8988
197.5416,129.8988
197.2653,130.0834
196.9584,130.2105
196.6325,130.2754
196.6325,130.2754
196.3002,130.2754
196.3002,130.2754
195.9743,130.2105
195.6673,130.0834
195.3911,129.8988
195.1561,129.6638
194.9715,129.3876
194.8444,129.0806
194.8197,128.9564
194.7538,128.8306
194.7508,128.8275
193.6858,127.7625
193.6311,127.7326
193.5786,127.6989
193.5661,127.6971
193.5612,127.6945
193.5077,127.6887
193.2792,127.6887
193.1429,127.7287
193.0499,127.8360
193.0272,127.9407
193.0272,128.0476
192.9864,128.2526
192.9623,128.3735
192.8352,128.6805
192.7164,128.8583
192.6506,128.9568
192.6506,128.9568
192.4157,129.1917
192.4156,129.1917
192.1394,129.3763
191.8324,129.5035
191.5065,129.5683
191.5065,129.5683
191.1742,129.5683
191.1742,129.5683
190.8483,129.5035
190.5414,129.3763
190.2651,129.1917
190.0301,128.9568
189.8455,128.6805
189.7184,128.3735
189.6937,128.2493
189.6279,128.1235
189.6248,128.1204
185.5105,124.0061
185.3859,123.9380
185.3323,123.9323
184.2238,123.9323
184.0876,123.9723
183.9946,124.0796
183.9718,124.1843
183.9718,124.2912
183.9070,124.6171
183.7798,124.9241
183.5952,125.2003
183.5650,125.2305
183.4970,125.3551
183.4912,125.4087
183.4912,127.5004
183.5312,127.6366
183.5337,127.6404
183.6040,127.7457
183.7312,128.0526
183.7312,128.0526
183.7960,128.3785
183.7960,128.6063
183.8360,128.7425
183.9433,128.8355
184.0480,128.8583
184.2430,128.8583
184.5688,128.9231
184.5688,128.9231
184.8758,129.0502
185.1521,129.2348
185.1521,129.2348
185.3870,129.4698
185.3870,129.4698
185.5716,129.7461
185.6988,130.0530
185.6988,130.0530
185.7636,130.3789
185.7636,130.7112
185.7218,130.9215
185.6988,131.0371
185.5716,131.3441
185.5103,131.4359
185.3870,131.6203
185.3870,131.6203
185.1521,131.8553
185.1521,131.8553
184.8758,132.0399
184.5688,132.1670
184.2430,132.2319
184.2429,132.2319
183.9107,132.2319
183.9107,132.2319
183.5848,132.1670
183.2778,132.0399
183.1725,131.9695
183.0370,131.9271
183.0325,131.9271
181.7464,131.9271
181.4794,131.8739
181.2279,131.7698
181.1605,131.7248
181.0015,131.6185
178.9839,129.6009
178.8592,129.5328
178.8057,129.5271
171.5556,129.5271
171.4194,129.5671
171.3264,129.6744
171.3062,129.8149
171.3084,129.8282
171.3384,129.9789
171.3384,129.9789
171.3384,130.3112
171.2736,130.6371
171.1464,130.9441
171.0666,131.0635
170.9618,131.2203
170.9618,131.2203
170.7269,131.4553
170.7269,131.4553
170.4506,131.6399
170.1436,131.7670
169.8178,131.8319
169.8177,131.8319
169.4855,131.8319
169.4855,131.8319
169.1596,131.7670
168.8526,131.6399
168.7473,131.5695
168.6118,131.5271
168.6073,131.5271
154.7108,131.5271
154.5746,131.5671
154.4816,131.6744
154.4588,131.7791
154.4588,138.4212
154.4404,138.5139
154.4057,138.6882
154.4057,138.6882
154.3247,138.8838
154.3015,138.9397
154.1503,139.1660
153.9703,139.3460
146.4356,146.8807
146.3675,147.0053
146.3649,147.0983
146.4178,147.4325
146.4178,147.8576
146.3513,148.2775
146.2199,148.6819
146.0269,149.0607
145.7770,149.4046
145.7770,149.4046
145.7770,149.4047
145.4764,149.7053
145.4764,149.7053
145.4764,149.7053
145.1324,149.9552
145.0101,150.0175
144.9068,150.1150
144.8727,150.2528
144.9185,150.3873
145.0297,150.4756
145.1245,150.4941
152.4692,150.4941
152.6054,150.4541
152.6984,150.3467
152.7186,150.2062
152.6596,150.0770
152.5836,150.0175
152.4612,149.9552
152.1172,149.7053
151.8166,149.4046
151.5667,149.0607
151.3737,148.6819
151.2423,148.2775
151.1758,147.8576
151.1758,147.4325
151.2423,147.0126
151.3737,146.6082
151.5667,146.2294
151.8166,145.8855
151.8166,145.8855
151.8166,145.8855
152.1172,145.5849
152.1172,145.5849
152.1172,145.5848
152.4612,145.3350
152.8400,145.1419
153.2443,145.0106
153.6642,144.9441
154.0894,144.9441
154.5093,145.0106
154.5093,145.0106
154.5093,145.0106
154.9136,145.1419
154.9136,145.1419
155.2925,145.3350
155.6364,145.5849
155.6364,145.5849
155.9370,145.8855
155.9370,145.8855
156.1869,146.2294
156.1923,146.2400
156.2898,146.3432
156.4276,146.3773
156.5620,146.3315
156.6413,146.2400
156.6467,146.2294
156.6467,146.2294
156.8966,145.8855
156.8966,145.8855
156.8966,145.8855
157.1972,145.5849
157.1972,145.5849
157.1972,145.5848
157.5412,145.3350
157.9200,145.1419
158.3243,145.0106
158.7442,144.9441
159.1694,144.9441
159.5893,145.0106
159.5893,145.0106
159.5893,145.0106
159.9936,145.1419
159.9936,145.1419
160.3725,145.3350
160.7164,145.5849
160.7164,145.5849
161.0170,145.8855
161.0170,145.8855
161.2669,146.2294
161.2723,146.2400
161.3698,146.3432
161.5076,146.3773
161.6420,146.3315
161.7213,146.2400
161.7267,146.2294
161.7267,146.2294
161.9766,145.8855
161.9766,145.8855
161.9766,145.8855
162.2772,145.5849
162.2772,145.5849
162.2772,145.5848
162.6212,145.3350
163.0000,145.1419
163.4043,145.0106
163.8242,144.9441
164.2494,144.9441
164.6693,145.0106
164.6693,145.0106
164.6693,145.0106
165.0736,145.1419
165.0736,145.1419
165.4525,145.3350
165.7964,145.5849
165.7964,145.5849
166.0970,145.8855
166.0970,145.8855
166.3469,146.2294
166.3523,146.2400
166.4498,146.3432
166.5876,146.3773
166.7220,146.3315
166.8013,146.2400
166.8067,146.2294
166.8067,146.2294
167.0566,145.8855
167.0566,145.8855
167.0566,145.8855
167.3572,145.5849
167.3572,145.5849
167.3572,145.5848
167.7012,145.3350
168.0800,145.1419
168.4843,145.0106
168.9042,144.9441
169.3294,144.9441
169.7493,145.0106
169.7493,145.0106
169.7493,145.0106
170.1536,145.1419
170.1536,145.1419
170.5325,145.3350
170.8764,145.5849
170.8764,145.5849
171.1770,145.8855
171.1770,145.8855
171.4269,146.2294
171.4323,146.2400
171.5298,146.3432
171.6676,146.3773
171.8020,146.3315
171.8813,146.2400
171.8867,146.2294
171.8867,146.2294
172.1366,145.8855
172.1366,145.8855
172.1366,145.8855
172.4372,145.5849
172.4372,145.5849
172.4372,145.5848
172.7812,145.3350
173.1600,145.1419
173.5643,145.0106
173.9842,144.9441
174.4094,144.9441
174.8293,145.0106
174.8293,145.0106
174.8293,145.0106
175.2336,145.1419
175.2336,145.1419
175.6125,145.3350
175.9564,145.5849
175.9564,145.5849
176.2570,145.8855
176.2570,145.8855
176.5069,146.2294
176.5123,146.2400
176.6098,146.3432
176.7476,146.3773
176.8820,146.3315
176.9613,146.2400
176.9667,146.2294
176.9667,146.2294
177.2166,145.8855
177.2166,145.8855
177.2166,145.8855
177.5172,145.5849
177.5172,145.5849
177.5172,145.5848
177.8612,145.3350
178.2400,145.1419
178.6443,145.0106
179.0642,144.9441
179.4894,144.9441
179.9093,145.0106
179.9093,145.0106
179.9093,145.0106
180.3136,145.1419
180.3136,145.1419
180.6925,145.3350
181.0364,145.5849
181.0364,145.5849
181.3370,145.8855
181.3370,145.8855
181.5869,146.2294
181.5923,146.2400
181.6898,146.3432
181.8276,146.3773
181.9620,146.3315
182.0413,146.2400
182.0467,146.2294
182.0467,146.2294
182.2966,145.8855
182.2966,145.8855
182.2966,145.8855
182.5972,145.5849
182.5972,145.5849
182.5972,145.5848
182.9412,145.3350
183.3200,145.1419
183.7243,145.0106
184.1442,144.9441
184.5694,144.9441
184.9893,145.0106
184.9893,145.0106
184.9893,145.0106
185.3936,145.1419
185.3936,145.1419
185.7725,145.3350
186.1164,145.5849
186.1164,145.5849
186.4170,145.8855
186.4170,145.8855
186.6669,146.2294
186.6723,146.2400
186.7698,146.3432
186.9076,146.3773
187.0420,146.3315
187.1213,146.2400
187.1267,146.2294
187.1267,146.2294
187.3766,145.8855
187.3766,145.8855
187.3766,145.8855
187.6772,145.5849
187.6772,145.5849
187.6772,145.5848
188.0212,145.3350
188.4000,145.1419
188.8043,145.0106
189.2242,144.9441
189.6494,144.9441
190.0693,145.0106
190.0693,145.0106
190.0693,145.0106
190.4736,145.1419
190.4736,145.1419
190.8525,145.3350
191.1964,145.5849
191.1964,145.5849
191.4970,145.8855
191.4970,145.8855
191.7469,146.2294
191.7523,146.2400
191.8498,146.3432
191.9876,146.3773
192.1220,146.3315
192.2013,146.2400
192.2067,146.2294
192.2067,146.2294
192.4566,145.8855
192.4566,145.8855
192.4566,145.8855
192.7572,145.5849
192.7572,145.5849
192.7572,145.5848
193.1012,145.3350
193.4800,145.1419
193.8843,145.0106
194.3042,144.9441
194.7294,144.9441
195.1493,145.0106
195.1493,145.0106
195.1493,145.0106
195.5536,145.1419
195.5536,145.1419
195.9325,145.3350
196.2764,145.5849
196.2764,145.5849
196.5770,145.8855
196.5770,145.8855
196.8269,146.2294
196.8323,146.2400
196.9298,146.3432
197.0676,146.3773
197.2020,146.3315
197.2813,146.2400
197.2867,146.2294
197.2867,146.2294
197.5366,145.8855
197.5366,145.8855
197.5366,145.8855
197.8372,145.5849
197.8372,145.5849
197.8372,145.5848
198.1812,145.3350
198.5600,145.1419
198.9643,145.0106
199.3842,144.9441
199.8094,144.9441
200.2293,145.0106
200.2293,145.0106
200.2293,145.0106
200.6336,145.1419
200.6336,145.1419
201.0125,145.3350
201.3564,145.5849
201.3564,145.5849
201.6570,145.8855
201.6570,145.8855
201.9069,146.2294
201.9123,146.2400
202.0098,146.3432
202.1476,146.3773
202.2820,146.3315
202.3613,146.2400
202.3667,146.2294
202.3667,146.2294
202.6166,145.8855
202.6166,145.8855
202.6166,145.8855
202.9172,145.5849
202.9172,145.5849
202.9172,145.5848
203.2612,145.3350
203.6400,145.1419
204.0443,145.0106
204.4642,144.9441
204.8894,144.9441
205.3093,145.0106
205.3093,145.0106
205.3093,145.0106
205.7136,145.1419
205.7136,145.1419
206.0925,145.3350
206.4364,145.5849
206.4364,145.5849
206.7370,145.8855
206.7370,145.8855
206.9869,146.2294
206.9923,146.2400
207.0898,146.3432
207.2276,146.3773
207.3620,146.3315
207.4413,146.2400
207.4467,146.2294
207.4467,146.2294
207.6966,145.8855
207.6966,145.8855
207.6966,145.8855
207.9972,145.5849
207.9972,145.5849
207.9972,145.5848
208.3412,145.3350
208.7200,145.1419
209.1243,145.0106
209.5442,144.9441
209.9694,144.9441
210.3893,145.0106
210.3893,145.0106
210.3893,145.0106
210.7936,145.1419
210.7936,145.1419
211.1725,145.3350
211.5164,145.5849
211.5164,145.5849
211.8170,145.8855
211.8170,145.8855
212.0669,146.2294
212.0723,146.2400
212.1698,146.3432
212.3076,146.3773
212.4420,146.3315
212.5213,146.2400
212.5267,146.2294
212.5267,146.2294
212.7766,145.8855
212.7766,145.8855
212.7766,145.8855
213.0772,145.5849
213.0772,145.5849
213.0772,145.5848
213.4212,145.3350
213.8000,145.1419
214.2043,145.0106
214.6242,144.9441
215.0494,144.9441
215.4693,145.0106
215.4693,145.0106
215.4693,145.0106
215.8736,145.1419
215.8736,145.1419
216.2525,145.3350
216.5964,145.5849
216.5964,145.5849
216.8970,145.8855
216.8970,145.8855
217.1469,146.2294
217.1523,146.2400
217.2498,146.3432
217.3876,146.3773
217.5220,146.3315
217.6013,146.2400
217.6067,146.2294
217.6067,146.2294
217.8566,145.8855
217.8566,145.8855
217.8566,145.8855
218.1572,145.5849
218.1572,145.5849
218.1572,145.5848
218.5012,145.3350
218.8800,145.1419
219.2843,145.0106
219.7042,144.9441
220.1294,144.9441
220.5493,145.0106
220.5493,145.0106
220.5493,145.0106
220.9536,145.1419
220.9536,145.1419
221.3325,145.3350
221.6764,145.5849
221.6764,145.5849
221.9770,145.8855
221.9770,145.8855
222.2269,146.2294
222.2323,146.2400
222.3298,146.3432
222.4676,146.3773
222.6020,146.3315
222.6813,146.2400
222.6867,146.2294
222.6867,146.2294
222.9366,145.8855
222.9366,145.8855
222.9366,145.8855
223.2372,145.5849
223.2372,145.5849
223.2372,145.5848
223.5812,145.3350
223.9600,145.1419
224.3643,145.0106
224.7842,144.9441
225.2094,144.9441
225.6293,145.0106
225.6293,145.0106
225.6293,145.0106
226.0336,145.1419
226.0336,145.1419
226.4125,145.3350
226.7564,145.5848
226.9791,145.8075
227.1037,145.8756
227.2453,145.8654
227.3590,145.7803
227.3934,145.7174
227.4892,145.4604
227.4892,145.4604
227.4892,145.4604
227.6156,145.2916
227.6617,145.2300
227.8708,145.0735
227.8922,145.0575
227.8922,145.0575
227.8922,145.0575
228.1618,144.9569
228.1618,144.9569
228.2811,144.9441
231.8725,144.9441
231.8726,144.9441
231.9918,144.9569
231.9918,144.9569
232.2615,145.0575
232.2615,145.0575
232.4919,145.2300
232.4956,145.2337
232.5002,145.2362
232.5063,145.2408
232.5070,145.2399
232.6202,145.3017
232.7619,145.2916
232.8756,145.2065
232.9252,145.0735
232.9258,145.0555
232.9258,108.3525
231.8578,108.3525
231.8578,108.7776
231.7913,109.1975
231.6599,109.6019
231.4669,109.9807
231.2170,110.3246
231.2170,110.3246
231.2170,110.3247
230.9164,110.6253
230.9164,110.6253
230.9164,110.6253
230.5724,110.8752
230.5662,110.8784
230.5619,110.8805
230.4587,110.9780
230.4246,111.1159
230.4704,111.2503
230.5619,111.3296
230.5725,111.3350
230.9164,111.5849
230.9164,111.5849
231.2170,111.8855
231.2170,111.8855
231.4669,112.2294
231.6599,112.6082
231.6599,112.6082
231.7898,113.0078
231.7913,113.0126
231.8578,113.4325
231.8578,113.8576
231.7913,114.2775
231.6599,114.6819
231.4669,115.0607
231.2170,115.4046
231.2170,115.4046
231.2170,115.4047
230.9164,115.7053
230.9164,115.7053
230.9164,115.7053
230.5724,115.9552
230.5662,115.9584
230.5619,115.9605
230.4587,116.0580
230.4246,116.1959
230.4704,116.3303
230.5619,116.4096
230.5725,116.4150
230.9164,116.6649
230.9164,116.6649
231.2170,116.9655
231.2170,116.9655
231.4669,117.3094
231.4669,117.3094
231.6599,117.6882
231.7913,118.0926
231.8578,118.5125
231.8578,118.9376
231.7913,119.3575
231.6599,119.7619
231.4669,120.1407
231.2170,120.4846
231.2170,120.4846
231.2170,120.4847
230.9164,120.7853
230.9164,120.7853
230.9164,120.7853
230.5724,121.0352
230.5662,121.0384
230.5619,121.0405
230.4587,121.1380
230.4246,121.2759
230.4704,121.4103
230.5619,121.4896
230.5725,121.4950
230.9164,121.7449
230.9164,121.7449
231.2170,122.0455
231.2170,122.0455
231.4669,122.3894
231.6599,122.7682
231.6599,122.7682
231.7773,123.1294
231.7913,123.1726
231.8578,123.5925
231.8578,124.0176
231.7913,124.4375
231.6599,124.8419
231.4669,125.2207
231.4669,125.2207
231.4524,125.2406
231.2170,125.5646
231.2170,125.5646
231.2170,125.5647
230.9164,125.8653
230.9164,125.8653
230.9164,125.8653
230.5724,126.1152
230.5662,126.1184
230.5619,126.1205
230.4587,126.2180
230.4246,126.3559
230.4704,126.4903
230.5619,126.5696
230.5725,126.5750
230.9164,126.8249
230.9164,126.8249
231.2170,127.1255
231.2170,127.1255
231.4669,127.4694
231.4669,127.4694
231.6599,127.8482
231.7913,128.2526
231.8578,128.6725
231.8578,129.0976
231.7913,129.5175
231.6599,129.9219
231.4669,130.3007
231.2170,130.6446
231.2170,130.6446
231.2170,130.6447
230.9164,130.9453
230.9164,130.9453
230.9164,130.9453
230.5724,131.1952
230.5698,131.1965
230.5619,131.2005
230.4587,131.2980
230.4246,131.4359
230.4704,131.5703
230.5619,131.6496
230.5725,131.6550
230.9164,131.9049
230.9164,131.9049
231.2170,132.2055
231.2170,132.2055
231.4669,132.5494
231.4669,132.5494
231.6599,132.9282
231.7913,133.3326
231.8578,133.7525
231.8578,134.1776
231.7913,134.5975
231.6599,135.0019
231.4669,135.3807
231.2170,135.7246
231.2170,135.7246
231.2170,135.7247
230.9164,136.0253
230.9164,136.0253
230.9164,136.0253
230.5724,136.2752
230.1936,136.4682
229.7893,136.5995
229.3694,136.6661
229.3694,136.6661
228.9442,136.6661
228.9442,136.6661
228.5243,136.5995
228.1200,136.4682
227.7412,136.2752
227.3972,136.0253
227.1746,135.8026
227.0499,135.7345
226.9083,135.7447
226.7946,135.8298
226.7603,135.8927
226.6644,136.1497
226.6644,136.1497
226.4919,136.3801
226.3767,136.4664
226.2615,136.5526
226.2615,136.5526
226.2615,136.5527
226.1408,136.5977
225.9918,136.6532
225.9918,136.6532
225.8726,136.6661
222.2811,136.6661
222.1618,136.6532
221.8922,136.5526
221.6617,136.3801
221.4892,136.1497
221.3886,135.8800
221.3758,135.7608
221.3758,132.1693
221.3886,132.0501
221.4428,131.9048
221.4892,131.7804
221.4892,131.7804
221.4892,131.7804
221.6090,131.6203
221.6617,131.5500
221.8430,131.4143
221.8922,131.3775
221.8922,131.3775
221.8922,131.3775
222.1491,131.2816
222.2628,131.1965
222.3124,131.0635
222.2823,130.9247
222.2393,130.8673
222.0166,130.6446
221.7667,130.3007
221.5737,129.9219
221.4423,129.5175
221.3758,129.0976
221.3758,128.6725
221.4423,128.2526
221.5737,127.8482
221.7667,127.4694
222.0166,127.1255
222.0166,127.1255
222.0166,127.1255
222.3172,126.8249
222.3172,126.8249
222.3172,126.8248
222.6612,126.5750
222.6717,126.5696
222.7749,126.4721
222.8091,126.3343
222.7633,126.1999
222.6717,126.1205
222.6612,126.1152
222.3172,125.8653
222.0166,125.5646
221.7667,125.2207
221.5737,124.8419
221.4423,124.4375
221.3758,124.0176
221.3758,123.5925
221.4423,123.1726
221.5737,122.7682
221.7667,122.3894
222.0166,122.0455
222.0166,122.0455
222.0166,122.0455
222.3172,121.7449
222.3172,121.7449
222.3172,121.7448
222.6612,121.4950
222.6717,121.4896
222.7749,121.3921
222.8091,121.2543
222.7633,121.1199
222.6717,121.0405
222.6612,121.0352
222.3172,120.7853
222.0166,120.4846
221.7667,120.1407
221.5737,119.7619
221.4423,119.3575
221.3758,118.9376
221.3758,118.5125
221.4423,118.0926
221.5737,117.6882
221.7667,117.3094
222.0166,116.9655
222.0166,116.9655
222.0166,116.9655
222.3172,116.6649
222.3172,116.6649
222.3172,116.6649
222.6612,116.4150
222.6717,116.4096
222.7749,116.3121
222.8091,116.1743
222.7633,116.0399
222.6717,115.9605
222.6612,115.9552
222.3172,115.7053
222.0166,115.4046
221.7667,115.0607
221.5737,114.6819
221.4423,114.2775
221.3758,113.8576
221.3758,113.4325
221.4423,113.0126
221.5737,112.6082
221.7667,112.2294
222.0166,111.8855
222.0166,111.8855
222.0166,111.8855
222.3172,111.5849
222.3172,111.5849
222.3172,111.5848
222.6612,111.3350
222.6717,111.3296
222.6903,111.3120
222.7140,111.3024
222.7410,111.2642
222.7749,111.2321
222.7811,111.2073
222.7958,111.1863
222.7978,111.1396
222.8055,111.1085
209.8504,111.1085
209.8504,111.4408
209.7856,111.7667
209.7856,111.7667
209.6584,112.0737
209.6584,112.0737
209.6584,112.0737
209.5881,112.1790
209.5457,112.3145
209.5456,112.3190
209.5456,130.9215
209.4925,131.1885
209.4925,131.1885
209.4281,131.3441
209.3883,131.4400
209.2447,131.6550
209.2371,131.6663
209.2371,131.6663
198.9849,141.9185
198.9849,141.9185
198.9849,141.9185
198.8259,142.0248
198.7585,142.0698
198.5070,142.1739
198.2400,142.2271
189.2463,142.2271
189.1101,142.2671
189.1063,142.2695
189.0010,142.3399
188.6940,142.4670
188.3682,142.5319
188.3681,142.5319
188.0359,142.5319
188.0359,142.5319
187.7100,142.4670
187.4030,142.3399
187.1267,142.1553
186.8918,141.9203
186.7072,141.6441
186.5800,141.3371
186.5152,141.0112
186.5152,140.6789
186.5800,140.3530
186.7072,140.0461
186.8918,139.7698
186.8918,139.7698
187.1267,139.5348
187.1267,139.5348
187.2940,139.4231
187.4030,139.3502
187.7100,139.2231
188.0359,139.1583
188.0359,139.1583
188.3682,139.1583
188.3682,139.1583
188.6940,139.2231
188.6941,139.2231
189.0010,139.3502
189.1063,139.4206
189.2418,139.4630
189.2463,139.4631
197.4271,139.4631
197.5633,139.4231
197.6053,139.3892
206.7078,130.2867
206.7759,130.1621
206.7816,130.1085
206.7816,112.3190
206.7708,112.2821
206.7707,112.2789
122.3636,112.2789
122.3636,112.6112
122.2988,112.9371
122.1716,113.2441
122.0494,113.4271
121.9870,113.5203
121.9870,113.5203
121.7521,113.7553
121.7521,113.7553
121.4758,113.9399
121.1688,114.0670
120.8430,114.1319
120.8429,114.1319
120.5107,114.1319
120.5107,114.1319
120.1848,114.0670
119.8778,113.9399
119.7725,113.8695
119.6370,113.8271
119.6325,113.8271
117.4851,113.8271
117.2181,113.7739
116.9666,113.6698
116.8911,113.6193
116.7402,113.5185
116.7402,113.5185
116.7226,113.5009
116.5980,113.4328
116.5444,113.4271
115.8518,113.4271
115.7554,113.4462
115.4940,113.5545
115.1681,113.6193
115.1681,113.6193
114.8359,113.6193
114.8359,113.6193
114.5100,113.5545
114.2030,113.4273
113.9267,113.2427
113.6918,113.0078
113.5072,112.7315
113.3800,112.4245
113.3152,112.0987
113.3152,111.7664
113.3800,111.4405
113.5072,111.1335
113.6918,110.8572
113.6918,110.8572
113.9267,110.6223
113.9267,110.6223
114.0184,110.5610
114.2030,110.4377
114.5100,110.3105
114.8359,110.2457
114.8359,110.2457
115.1681,110.2457
115.1681,110.2457
115.4940,110.3105
115.4940,110.3105
115.8010,110.4377
116.0747,110.6206
116.2102,110.6630
116.2147,110.6631
117.3573,110.6631
117.5823,110.7078
117.5823,110.7078
117.5928,110.7099
117.6243,110.7162
117.6243,110.7162
117.8758,110.8203
118.1022,110.9716
118.1022,110.9716
118.1198,110.9892
118.2445,111.0573
118.2980,111.0631
119.6325,111.0631
119.7688,111.0231
119.7725,111.0206
119.8778,110.9502
120.1848,110.8231
120.1848,110.8231
120.5107,110.7583
120.5107,110.7583
120.8430,110.7583
120.8430,110.7583
121.1688,110.8231
121.1688,110.8231
121.4758,110.9502
121.7521,111.1348
121.7521,111.1348
121.9870,111.3698
121.9870,111.3698
122.1716,111.6461
122.2988,111.9530
122.2988,111.9530
122.3636,112.2789
206.7707,112.2789
206.7701,112.2436
206.7427,112.1863
206.7416,112.1827
206.7391,112.1789
206.7041,112.1265
206.6855,112.0987
206.6688,112.0737
206.5416,111.7667
206.4768,111.4408
206.4768,111.1085
206.5416,110.7826
206.6688,110.4757
206.8534,110.1994
206.8534,110.1994
207.0883,109.9644
207.0883,109.9644
207.2343,109.8669
207.3646,109.7798
207.6716,109.6527
207.9975,109.5879
207.9975,109.5879
208.3298,109.5879
208.3298,109.5879
208.6556,109.6527
208.6556,109.6527
208.9626,109.7798
209.2389,109.9644
209.2389,109.9644
209.4738,110.1994
209.4738,110.1994
209.6584,110.4757
209.7856,110.7826
209.7856,110.7826
209.8504,111.1085
222.8055,111.1085
222.8091,111.0943
222.8008,111.0700
222.8019,111.0445
222.7783,111.0041
222.7633,110.9599
222.7415,110.9410
222.7303,110.9218
222.6717,110.8805
222.6612,110.8752
222.3172,110.6253
222.0166,110.3246
221.7667,109.9807
221.5737,109.6019
221.4423,109.1975
221.3758,108.7776
221.3758,108.3525
221.4423,107.9326
221.5737,107.5282
221.7667,107.1494
222.0166,106.8055
222.0166,106.8055
222.0166,106.8055
222.3172,106.5049
222.3172,106.5049
222.3172,106.5048
222.6612,106.2550
223.0400,106.0619
223.4443,105.9306
223.8642,105.8641
224.2894,105.8641
224.7093,105.9306
224.7093,105.9306
224.7093,105.9306
225.1136,106.0619
225.1136,106.0619
225.4925,106.2550
225.8364,106.5049
225.8364,106.5049
226.1370,106.8055
226.1370,106.8055
226.3869,107.1494
226.3923,107.1600
226.4898,107.2632
226.6276,107.2973
226.7620,107.2515
226.8413,107.1600
226.8467,107.1494
226.8467,107.1494
227.0966,106.8055
227.0966,106.8055
227.0966,106.8055
227.3972,106.5049
227.3972,106.5049
227.3972,106.5048
227.7412,106.2550
228.1200,106.0619
228.5243,105.9306
228.9442,105.8641
229.3694,105.8641
229.7893,105.9306
229.7893,105.9306
229.7893,105.9306
230.1936,106.0619
230.1936,106.0619
230.5725,106.2550
230.9164,106.5049
230.9164,106.5049
231.2170,106.8055
231.2170,106.8055
231.4669,107.1494
231.4669,107.1494
231.6599,107.5282
231.7913,107.9326
231.8578,108.3525
232.9258,108.3525
232.9258,91.6789
183.4636,91.6789
183.4636,92.0112
183.4425,92.1175
183.3988,92.3371
183.2716,92.6441
183.2340,92.7005
183.0870,92.9203
183.0870,92.9203
182.8521,93.1553
182.8521,93.1553
182.5758,93.3399
182.2688,93.4670
181.9430,93.5319
181.9429,93.5319
181.6107,93.5319
181.6107,93.5319
181.2848,93.4670
180.9778,93.3399
180.8725,93.2695
180.7370,93.2271
180.7325,93.2271
172.8449,93.2271
172.7086,93.2671
172.6157,93.3744
172.6121,93.3826
172.5850,93.4479
172.5850,93.4479
172.4004,93.7241
172.4004,93.7241
172.1655,93.9591
172.1655,93.9591
171.8892,94.1437
171.5822,94.2708
171.2564,94.3357
171.2563,94.3357
170.9241,94.3357
170.9241,94.3357
170.5982,94.2708
170.2912,94.1437
170.1859,94.0733
170.0504,94.0309
170.0459,94.0309
164.4073,94.0309
164.2710,94.0709
164.1781,94.1782
164.1578,94.3187
164.1601,94.3320
164.1620,94.3415
164.1620,94.6138
164.1089,94.8808
164.1089,94.8808
164.1086,94.8815
164.0047,95.1323
163.9410,95.2277
163.8535,95.3586
163.8535,95.3586
163.6610,95.5511
163.6610,95.5511
163.6610,95.5511
163.4346,95.7024
163.1831,95.8065
162.9161,95.8597
162.9161,95.8597
162.6439,95.8597
162.6439,95.8597
162.3769,95.8065
162.1254,95.7024
161.9884,95.6108
161.8976,95.5732
161.7278,95.5394
161.4208,95.4123
161.1445,95.2277
160.9096,94.9927
160.8398,94.8883
160.7309,94.7972
160.5900,94.7796
160.5339,94.7955
160.4545,94.8283
160.1875,94.8815
157.8681,94.8815
157.7319,94.9215
157.7281,94.9239
157.6228,94.9943
157.3158,95.1214
156.9900,95.1863
156.9899,95.1863
156.6577,95.1863
156.6577,95.1863
156.3318,95.1214
156.0248,94.9943
155.7485,94.8097
155.5136,94.5747
155.3290,94.2985
155.2018,93.9915
155.1370,93.6656
155.1370,93.3333
155.2018,93.0074
155.3290,92.7005
155.5136,92.4242
155.5136,92.4242
155.7485,92.1892
155.7485,92.1892
155.9158,92.0775
156.0248,92.0046
156.3318,91.8775
156.6577,91.8127
156.6577,91.8127
156.9900,91.8127
156.9900,91.8127
157.3158,91.8775
157.3158,91.8775
157.6228,92.0046
157.7281,92.0750
157.8636,92.1174
157.8681,92.1175
159.3746,92.1175
159.5108,92.0775
159.5528,92.0437
160.5812,91.0152
160.8076,90.8639
161.0591,90.7598
161.0591,90.7598
161.3261,90.7067
161.3261,90.7067
163.1135,90.7067
163.1135,90.7067
163.3805,90.7598
163.3805,90.7598
163.6320,90.8639
163.8584,91.0152
163.9473,91.1041
164.0363,91.1930
164.1609,91.2611
164.2144,91.2669
170.0459,91.2669
170.1822,91.2269
170.1859,91.2244
170.2912,91.1540
170.5982,91.0269
170.5982,91.0269
170.5982,91.0269
170.7224,91.0022
170.8482,90.9364
170.8513,90.9333
171.0130,90.7716
171.2394,90.6203
171.4458,90.5348
171.4909,90.5162
171.4909,90.5162
171.7579,90.4631
171.7579,90.4631
180.7325,90.4631
180.8688,90.4231
180.8725,90.4206
180.9778,90.3502
181.2848,90.2231
181.2848,90.2231
181.6107,90.1583
181.6107,90.1583
181.9430,90.1583
181.9430,90.1583
182.2688,90.2231
182.2688,90.2231
182.5758,90.3502
182.8521,90.5348
182.8521,90.5348
183.0870,90.7698
183.0870,90.7698
183.2716,91.0461
183.3988,91.3530
183.3988,91.3530
183.4636,91.6789
232.9258,91.6789
232.9258,84.1665
226.7138,84.1665
226.7138,84.6516
226.6505,85.1326
226.5249,85.6012
226.5249,85.6013
226.5249,85.6013
226.3393,86.0495
226.3393,86.0495
226.3393,86.0495
226.0967,86.4696
226.0967,86.4696
226.0967,86.4696
225.8013,86.8545
225.8013,86.8545
225.8013,86.8546
225.4583,87.1976
225.4583,87.1976
225.4583,87.1976
225.0734,87.4929
225.0734,87.4929
224.6533,87.7355
224.6533,87.7355
224.6532,87.7355
224.2050,87.9212
223.7364,88.0467
223.7364,88.0467
223.7364,88.0467
223.6124,88.0631
223.2554,88.1101
223.2554,88.1101
222.7703,88.1101
222.7702,88.1101
222.3355,88.0528
222.2893,88.0467
222.2893,88.0467
222.2892,88.0467
221.8206,87.9212
221.3724,87.7355
220.9522,87.4929
220.5673,87.1976
220.2243,86.8545
219.9289,86.4696
219.6864,86.0495
219.5007,85.6013
219.3751,85.1326
219.3118,84.6516
219.3118,84.1665
219.3692,83.7308
219.3751,83.6855
219.3751,83.6855
219.3751,83.6855
219.5007,83.2169
219.6864,82.7686
219.6864,82.7686
219.6864,82.7686
219.9289,82.3485
219.9422,82.3312
220.2243,81.9636
220.2243,81.9636
220.2243,81.9636
220.5673,81.6205
220.5673,81.6205
220.5673,81.6205
220.9522,81.3252
220.9522,81.3252
220.9522,81.3252
221.3724,81.0826
221.3724,81.0826
221.3724,81.0826
221.8206,80.8969
221.8206,80.8969
221.8206,80.8969
222.2893,80.7714
222.7702,80.7081
222.7702,80.7081
223.2554,80.7081
223.2554,80.7081
223.7364,80.7714
224.2050,80.8969
224.2050,80.8969
224.5246,81.0293
224.6532,81.0826
224.6533,81.0826
225.0734,81.3252
225.4583,81.6205
225.4583,81.6205
225.8013,81.9636
225.8013,81.9636
226.0967,82.3485
226.3393,82.7686
226.3393,82.7686
226.5249,83.2169
226.5249,83.2169
226.6505,83.6855
226.7138,84.1665
232.9258,84.1665
232.9258,80.8120
232.8858,80.6757
232.8520,80.6338
222.6971,70.4789
114.7636,70.4789
114.7636,70.8112
114.7202,71.0293
114.6988,71.1371
114.5716,71.4441
114.4483,71.6287
114.3870,71.7203
114.3870,71.7203
114.1521,71.9553
114.1521,71.9553
113.8758,72.1399
113.5688,72.2670
113.2430,72.3319
113.2429,72.3319
112.9107,72.3319
112.9107,72.3319
112.5848,72.2670
112.5848,72.2670
112.5727,72.2646
112.5716,72.2698
112.4527,72.2687
112.3433,72.3330
106.7925,77.8838
106.7244,78.0085
106.7235,78.0129
106.6988,78.1371
106.5716,78.4441
106.4483,78.6287
106.3870,78.7203
106.3870,78.7203
106.1521,78.9553
106.1521,78.9553
105.8758,79.1399
105.5688,79.2670
105.2430,79.3319
105.2429,79.3319
104.9107,79.3319
104.9107,79.3319
104.5848,79.2670
104.2778,79.1399
104.0015,78.9553
103.7666,78.7203
103.5820,78.4441
103.4548,78.1371
103.3900,77.8112
103.3900,77.4789
103.4548,77.1530
103.5820,76.8461
103.7666,76.5698
103.7666,76.5698
104.0015,76.3348
104.0015,76.3348
104.0932,76.2736
104.2778,76.1502
104.5848,76.0231
104.7090,75.9984
104.8348,75.9326
104.8380,75.9294
105.8281,74.9393
59.4398,74.9393
59.4398,78.7308
59.4398,78.7308
59.4270,78.8500
59.4270,78.8500
59.3264,79.1197
59.2783,79.1840
59.2286,79.3171
59.2588,79.4558
59.2783,79.4861
59.3264,79.5504
59.4270,79.8201
59.4398,79.9393
59.4398,83.7308
59.4398,83.7308
59.4270,83.8500
59.4270,83.8500
59.3264,84.1197
59.3264,84.1197
59.1539,84.3501
59.0387,84.4364
58.9235,84.5226
58.9235,84.5226
58.9235,84.5227
58.8028,84.5677
58.6538,84.6232
58.6538,84.6232
58.5346,84.6361
53.3431,84.6361
53.2238,84.6232
52.9542,84.5226
52.7237,84.3501
52.5512,84.1197
52.4506,83.8500
52.4378,83.7308
52.4378,81.6675
47.6398,81.6675
47.6398,82.0026
47.5744,82.3312
47.5369,82.4219
47.4462,82.6408
47.3531,82.7801
47.2601,82.9194
47.2601,82.9194
47.0232,83.1563
47.0231,83.1563
46.7445,83.3425
46.4350,83.4707
46.1063,83.5361
46.1063,83.5361
45.7713,83.5361
45.7713,83.5361
45.4427,83.4707
45.1331,83.3425
44.8545,83.1563
44.6176,82.9194
44.4314,82.6408
44.3032,82.3312
44.2378,82.0026
44.2378,81.6675
44.2378,81.6675
42.6398,81.6675
42.6398,82.0026
42.5744,82.3312
42.5369,82.4219
42.4462,82.6408
42.3531,82.7801
42.2601,82.9194
42.2601,82.9194
42.0232,83.1563
42.0231,83.1563
41.7445,83.3425
41.4350,83.4707
41.1063,83.5361
41.1063,83.5361
40.7713,83.5361
40.7713,83.5361
40.4427,83.4707
40.1331,83.3425
39.8545,83.1563
39.6176,82.9194
39.4314,82.6408
39.3032,82.3312
39.2378,82.0026
39.2378,81.6675
39.3032,81.3389
39.4314,81.0293
39.6176,80.7507
39.6176,80.7507
39.8545,80.5138
39.8545,80.5138
40.1331,80.3277
40.1331,80.3277
40.1331,80.3277
40.3520,80.2370
40.4426,80.1994
40.4427,80.1994
40.4427,80.1994
40.6081,80.1665
40.7713,80.1341
40.7713,80.1341
41.1063,80.1341
41.1064,80.1341
41.3512,80.1828
41.4350,80.1994
41.4350,80.1994
41.4350,80.1994
41.7445,80.3277
42.0231,80.5138
42.0232,80.5138
42.2601,80.7507
42.2601,80.7507
42.4462,81.0293
42.5744,81.3389
42.6398,81.6675
44.2378,81.6675
44.3032,81.3389
44.4314,81.0293
44.6176,80.7507
44.6176,80.7507
44.8545,80.5138
44.8545,80.5138
45.1331,80.3277
45.1331,80.3277
45.1331,80.3277
45.3520,80.2370
45.4426,80.1994
45.4427,80.1994
45.4427,80.1994
45.6081,80.1665
45.7713,80.1341
45.7713,80.1341
46.1063,80.1341
46.1064,80.1341
46.3512,80.1828
46.4350,80.1994
46.4350,80.1994
46.4350,80.1994
46.7445,80.3277
47.0231,80.5138
47.0232,80.5138
47.2601,80.7507
47.2601,80.7507
47.4462,81.0293
47.5744,81.3389
47.6398,81.6675
52.4378,81.6675
52.4378,79.9393
52.4506,79.8201
52.5512,79.5504
52.5994,79.4861
52.6490,79.3530
52.6188,79.2143
52.5994,79.1841
52.5512,79.1197
52.4506,78.8500
52.4378,78.7308
52.4378,74.9393
52.4506,74.8201
52.4932,74.7059
52.5512,74.5504
52.5512,74.5504
52.5512,74.5504
52.6375,74.4352
52.7237,74.3200
52.8776,74.2047
52.9542,74.1475
52.9542,74.1475
52.9542,74.1475
53.2238,74.0469
53.2238,74.0469
53.3431,74.0341
58.5345,74.0341
58.5346,74.0341
58.6538,74.0469
58.6538,74.0469
58.9235,74.1475
58.9235,74.1475
59.1539,74.3200
59.3264,74.5504
59.3264,74.5504
59.4270,74.8201
59.4398,74.9393
105.8281,74.9393
109.0999,71.6675
57.6398,71.6675
57.6398,71.6675
57.6398,72.0026
57.5867,72.2698
57.5744,72.3312
57.5737,72.3330
57.4462,72.6408
57.4462,72.6408
57.2601,72.9194
57.2601,72.9194
57.0232,73.1563
57.0231,73.1563
56.7445,73.3425
56.4881,73.4487
56.4350,73.4707
56.4350,73.4707
56.4350,73.4707
56.1063,73.5361
55.7713,73.5361
55.4427,73.4707
55.1331,73.3425
54.8545,73.1563
54.6176,72.9194
54.4314,72.6408
54.3032,72.3312
54.2378,72.0026
54.2378,71.6675
54.3032,71.3389
54.4314,71.0293
54.6176,70.7507
54.6176,70.7507
54.8545,70.5138
54.8545,70.5138
55.1331,70.3277
55.1331,70.3277
55.1331,70.3277
55.4427,70.1994
55.6269,70.1628
55.7411,70.1401
55.7411,70.1401
55.7713,70.1341
56.1063,70.1341
56.1365,70.1401
56.1365,70.1401
56.3325,70.1790
56.4350,70.1994
56.4350,70.1994
56.4350,70.1994
56.7445,70.3277
57.0231,70.5138
57.0232,70.5138
57.2601,70.7507
57.2601,70.7507
57.4462,71.0293
57.5744,71.3389
57.6398,71.6675
109.0999,71.6675
111.1958,69.5716
111.1958,69.5716
111.1985,69.5698
111.4222,69.4203
111.6286,69.3348
111.6737,69.3162
111.6737,69.3162
111.9407,69.2631
111.9407,69.2631
112.0325,69.2631
112.1688,69.2231
112.1725,69.2206
112.2778,69.1502
112.5848,69.0231
112.5848,69.0231
112.9107,68.9583
112.9107,68.9583
113.2430,68.9583
113.2430,68.9583
113.5688,69.0231
113.5688,69.0231
113.8758,69.1502
114.1521,69.3348
114.1521,69.3348
114.3870,69.5698
114.3870,69.5698
114.5716,69.8461
114.6988,70.1530
114.6988,70.1530
114.7636,70.4789
222.6971,70.4789
222.5066,70.2884
217.9500,65.7318
212.1575,59.9393
59.4398,59.9393
59.4398,63.7308
59.4398,63.7308
59.4270,63.8500
59.4270,63.8500
59.3264,64.1197
59.2783,64.1840
59.2286,64.3171
59.2588,64.4558
59.2783,64.4861
59.3264,64.5504
59.4270,64.8201
59.4398,64.9393
59.4398,68.7308
59.4398,68.7308
59.4270,68.8500
59.4270,68.8500
59.3264,69.1197
59.3264,69.1197
59.3264,69.1197
59.2691,69.1962
59.1539,69.3501
59.0601,69.4203
58.9235,69.5226
58.9235,69.5226
58.9235,69.5227
58.8028,69.5677
58.6538,69.6232
58.6538,69.6232
58.5346,69.6361
53.3431,69.6361
53.2238,69.6232
52.9542,69.5226
52.7237,69.3501
52.5512,69.1197
52.4506,68.8500
52.4378,68.7308
52.4378,64.9393
52.4506,64.8201
52.5512,64.5504
52.5994,64.4861
52.6490,64.3530
52.6188,64.2143
52.5994,64.1841
52.5512,64.1197
52.4506,63.8500
52.4378,63.7308
52.4378,61.6675
47.6398,61.6675
47.6398,61.6675
47.6398,62.0026
47.5744,62.3312
47.4462,62.6408
47.4462,62.6408
47.2601,62.9194
47.2601,62.9194
47.0232,63.1563
47.0231,63.1563
46.7445,63.3425
46.4350,63.4707
46.1063,63.5361
46.1063,63.5361
45.7713,63.5361
45.7713,63.5361
45.4427,63.4707
45.1331,63.3425
44.8545,63.1563
44.6176,62.9194
44.4314,62.6408
44.3032,62.3312
44.2378,62.0026
44.2378,61.6675
44.2378,61.6675
42.6398,61.6675
42.6398,61.6675
42.6398,62.0026
42.5744,62.3312
42.4462,62.6408
42.4462,62.6408
42.2601,62.9194
42.2601,62.9194
42.0232,63.1563
42.0231,63.1563
41.7445,63.3425
41.4350,63.4707
41.1063,63.5361
41.1063,63.5361
40.7713,63.5361
40.7713,63.5361
40.4427,63.4707
40.1331,63.3425
39.8545,63.1563
39.6176,62.9194
39.4314,62.6408
39.3032,62.3312
39.2378,62.0026
39.2378,61.6675
39.3032,61.3389
39.4314,61.0293
39.6176,60.7507
39.6176,60.7507
39.8545,60.5138
39.8545,60.5138
40.1331,60.3277
40.1331,60.3277
40.1331,60.3277
40.3520,60.2370
40.4426,60.1994
40.4427,60.1994
40.4427,60.1994
40.6081,60.1665
40.7713,60.1341
40.7713,60.1341
41.1063,60.1341
41.1064,60.1341
41.3512,60.1828
41.4350,60.1994
41.4350,60.1994
41.4350,60.1994
41.7445,60.3277
42.0231,60.5138
42.0232,60.5138
42.2601,60.7507
42.2601,60.7507
42.4462,61.0293
42.5744,61.3389
42.6398,61.6675
44.2378,61.6675
44.3032,61.3389
44.4314,61.0293
44.6176,60.7507
44.6176,60.7507
44.8545,60.5138
44.8545,60.5138
45.1331,60.3277
45.1331,60.3277
45.1331,60.3277
45.3520,60.2370
45.4426,60.1994
45.4427,60.1994
45.4427,60.1994
45.6081,60.1665
45.7713,60.1341
45.7713,60.1341
46.1063,60.1341
46.1064,60.1341
46.3512,60.1828
46.4350,60.1994
46.4350,60.1994
46.4350,60.1994
46.7445,60.3277
47.0231,60.5138
47.0232,60.5138
47.2601,60.7507
47.2601,60.7507
47.4462,61.0293
47.5744,61.3389
47.6398,61.6675
52.4378,61.6675
52.4378,59.9393
52.4506,59.8201
52.4932,59.7059
52.5512,59.5504
52.5512,59.5504
52.5512,59.5504
52.6375,59.4352
52.7237,59.3200
52.8776,59.2047
52.9542,59.1475
52.9542,59.1475
52.9542,59.1475
53.2238,59.0469
53.2238,59.0469
53.3431,59.0341
58.5345,59.0341
58.5346,59.0341
58.6538,59.0469
58.6538,59.0469
58.9235,59.1475
58.9235,59.1475
59.1539,59.3200
59.3264,59.5504
59.3264,59.5504
59.4270,59.8201
59.4398,59.9393
212.1575,59.9393
203.0881,50.8699
202.9635,50.8018
202.9099,50.7961
44.1259,50.7961
44.0820,50.7961
Z" /> 
</g>
<g style="fill:#FFFFFF; fill-opacity:1.0000; stroke:none;">
<circle cx="169.6516" cy="130.1451" r="0.3302" /> 
</g>
<g style="fill:#FFFFFF; fill-opacity:1.0000; stroke:none;">
<circle cx="153.0768" cy="130.1451" r="0.3302" /> 
</g>
<g style="fill:#FFFFFF; fill-opacity:1.0000; stroke:none;">
<circle cx="200.6768" cy="128.6451" r="0.3302" /> 
</g>
<g style="fill:#FFFFFF; fill-opacity:1.0000; stroke:none;">
<circle cx="201.7908" cy="109.7590" r="0.3302" /> 
</g>
<g style="fill:#FFFFFF; fill-opacity:1.0000; stroke:none;">
<circle cx="232.0768" cy="91.6451" r="0.3302" /> 
</g>
<g style="fill:#FFFFFF; fill-opacity:1.0000; stroke:none;">
<circle cx="192.0768" cy="81.6451" r="0.3302" /> 
</g>
<g style="fill:#FFFFFF; fill-opacity:1.0000; stroke:none;">
<circle cx="212.0768" cy="91.6451" r="0.3302" /> 
</g>
<g style="fill:#FFFFFF; fill-opacity:1.0000; stroke:none;">
<circle cx="182.0768" cy="51.6451" r="0.3302" /> 
</g>
<g style="fill:#FFFFFF; fill-opacity:1.0000; stroke:none;">
<circle cx="172.0768" cy="71.6451" r="0.3302" /> 
</g>
<g style="fill:#FFFFFF; fill-opacity:1.0000; stroke:none;">
<circle cx="192.0768" cy="71.6451" r="0.3302" /> 
</g>
<g style="fill:#FFFFFF; fill-opacity:1.0000; stroke:none;">
<circle cx="182.0768" cy="81.6451" r="0.3302" /> 
</g>
<g style="fill:#FFFFFF; fill-opacity:1.0000; stroke:none;">
<circle cx="232.0768" cy="101.6451" r="0.3302" /> 
</g>
<g style="fill:#FFFFFF; fill-opacity:1.0000; stroke:none;">
<circle cx="202.0768" cy="51.6451" r="0.3302" /> 
</g>
<g style="fill:#FFFFFF; fill-opacity:1.0000; stroke:none;">
<circle cx="202.0768" cy="81.6451" r="0.3302" /> 
</g>
<g style="fill:#FFFFFF; fill-opacity:1.0000; stroke:none;">
<circle cx="192.0768" cy="51.6451" r="0.3302" /> 
</g>
<g style="fill:#FFFFFF; fill-opacity:1.0000; stroke:none;">
<circle cx="158.5768" cy="137.1451" r="0.3302" /> 
</g>
<g style="fill:#FFFFFF; fill-opacity:1.0000; stroke:none;">
<circle cx="232.0768" cy="131.6451" r="0.3302" /> 
</g>
<g style="fill:#FFFFFF; fill-opacity:1.0000; stroke:none;">
<circle cx="212.0768" cy="101.6451" r="0.3302" /> 
</g>
<g style="fill:#FFFFFF; fill-opacity:1.0000; stroke:none;">
<circle cx="97.1068" cy="138.6451" r="0.3302" /> 
</g>
<g style="fill:#FFFFFF; fill-opacity:1.0000; stroke:none;">
<circle cx="200.6768" cy="133.6451" r="0.3302" /> 
</g>
<g style="fill:#FFFFFF; fill-opacity:1.0000; stroke:none;">
<circle cx="182.0768" cy="71.6451" r="0.3302" /> 
</g>
<g style="fill:#FFFFFF; fill-opacity:1.0000; stroke:none;">
<circle cx="222.0768" cy="71.6451" r="0.3302" /> 
</g>
<g style="fill:#FFFFFF; fill-opacity:1.0000; stroke:none;">
<circle cx="152.0768" cy="61.6451" r="0.3302" /> 
</g>
<g style="fill:#FFFFFF; fill-opacity:1.0000; stroke:none;">
<circle cx="102.0768" cy="83.6451" r="0.3302" /> 
</g>
<g style="fill:#FFFFFF; fill-opacity:1.0000; stroke:none;">
<circle cx="200.6768" cy="118.6451" r="0.3302" /> 
</g>
<g style="fill:#FFFFFF; fill-opacity:1.0000; stroke:none;">
<circle cx="122.4768" cy="104.4451" r="0.3302" /> 
</g>
<g style="fill:#FFFFFF; fill-opacity:1.0000; stroke:none;">
<circle cx="232.0768" cy="81.6451" r="0.3302" /> 
</g>
<g style="fill:#FFFFFF; fill-opacity:1.0000; stroke:none;">
<circle cx="116.0768" cy="63.1451" r="0.3302" /> 
</g>
<g style="fill:#FFFFFF; fill-opacity:1.0000; stroke:none;">
<circle cx="152.0768" cy="81.6451" r="0.3302" /> 
</g>
<g style="fill:#FFFFFF; fill-opacity:1.0000; stroke:none;">
<circle cx="202.0768" cy="61.6451" r="0.3302" /> 
</g>
<g style="fill:#FFFFFF; fill-opacity:1.0000; stroke:none;">
<circle cx="186.6147" cy="113.4089" r="0.3302" /> 
</g>
<g style="fill:#FFFFFF; fill-opacity:1.0000; stroke:none;">
<circle cx="172.0768" cy="61.6451" r="0.3302" /> 
</g>
<g style="fill:#FFFFFF; fill-opacity:1.0000; stroke:none;">
<circle cx="202.0768" cy="101.6451" r="0.3302" /> 
</g>
<g style="fill:#FFFFFF; fill-opacity:1.0000; stroke:none;">
<circle cx="142.0768" cy="51.6451" r="0.3302" /> 
</g>
<g style="fill:#FFFFFF; fill-opacity:1.0000; stroke:none;">
<circle cx="115.5768" cy="89.1451" r="0.3302" /> 
</g>
<g style="fill:#FFFFFF; fill-opacity:1.0000; stroke:none;">
<circle cx="232.0768" cy="121.6451" r="0.3302" /> 
</g>
<g style="fill:#FFFFFF; fill-opacity:1.0000; stroke:none;">
<circle cx="162.0768" cy="61.6451" r="0.3302" /> 
</g>
<g style="fill:#FFFFFF; fill-opacity:1.0000; stroke:none;">
<circle cx="162.0768" cy="81.6451" r="0.3302" /> 
</g>
<g style="fill:#FFFFFF; fill-opacity:1.0000; stroke:none;">
<circle cx="124.0768" cy="86.1451" r="0.3302" /> 
</g>
<g style="fill:#FFFFFF; fill-opacity:1.0000; stroke:none;">
<circle cx="222.0768" cy="101.6451" r="0.3302" /> 
</g>
<g style="fill:#FFFFFF; fill-opacity:1.0000; stroke:none;">
<circle cx="162.0768" cy="51.6451" r="0.3302" /> 
</g>
<g style="fill:#FFFFFF; fill-opacity:1.0000; stroke:none;">
<circle cx="232.0768" cy="141.6451" r="0.3302" /> 
</g>
<g style="fill:#FFFFFF; fill-opacity:1.0000; stroke:none;">
<circle cx="152.0768" cy="51.6451" r="0.3302" /> 
</g>
<g style="fill:#FFFFFF; fill-opacity:1.0000; stroke:none;">
<circle cx="182.0768" cy="61.6451" r="0.3302" /> 
</g>
<g style="fill:#FFFFFF; fill-opacity:1.0000; stroke:none;">
<circle cx="232.0768" cy="111.6451" r="0.3302" /> 
</g>
<g style="fill:#FFFFFF; fill-opacity:1.0000; stroke:none;">
<circle cx="66.6726" cy="53.6201" r="0.3302" /> 
</g>
<g style="fill:#FFFFFF; fill-opacity:1.0000; stroke:none;">
<circle cx="212.0768" cy="61.6451" r="0.3302" /> 
</g>
<g style="fill:#FFFFFF; fill-opacity:1.0000; stroke:none;">
<circle cx="169.4568" cy="138.5251" r="0.3302" /> 
</g>
<g style="fill:#FFFFFF; fill-opacity:1.0000; stroke:none;">
<circle cx="142.0768" cy="61.6451" r="0.3302" /> 
</g>
<g style="fill:#FFFFFF; fill-opacity:1.0000; stroke:none;">
<circle cx="142.0768" cy="81.6451" r="0.3302" /> 
</g>
<g style="fill:#FFFFFF; fill-opacity:1.0000; stroke:none;">
<circle cx="202.0768" cy="71.6451" r="0.3302" /> 
</g>
<g style="fill:#FFFFFF; fill-opacity:1.0000; stroke:none;">
<circle cx="172.0768" cy="51.6451" r="0.3302" /> 
</g>
<g style="fill:#FFFFFF; fill-opacity:1.0000; stroke:none;">
<circle cx="200.6768" cy="113.6451" r="0.3302" /> 
</g>
<g style="fill:#FFFFFF; fill-opacity:1.0000; stroke:none;">
<circle cx="192.0768" cy="61.6451" r="0.3302" /> 
</g>
<g style="fill:#FFFFFF; fill-opacity:1.0000; stroke:none;">
<circle cx="162.0768" cy="71.6451" r="0.3302" /> 
</g>
<g style="fill:#FFFFFF; fill-opacity:1.0000; stroke:none;">
<circle cx="200.6768" cy="123.6451" r="0.3302" /> 
</g>
<g style="fill:#FFFFFF; fill-opacity:1.0000; stroke:none;">
<circle cx="212.0768" cy="81.6451" r="0.3302" /> 
</g>
<g style="fill:#FFFFFF; fill-opacity:1.0000; stroke:none;">
<circle cx="172.0768" cy="81.6451" r="0.3302" /> 
</g>
<g style="fill:#FFFFFF; fill-opacity:1.0000; stroke:none;">
<circle cx="142.0768" cy="71.6451" r="0.3302" /> 
</g>
<g style="fill:#FFFFFF; fill-opacity:1.0000; stroke:none;">
<circle cx="66.4768" cy="61.8451" r="0.3302" /> 
</g>
<g style="fill:#FFFFFF; fill-opacity:1.0000; stroke:none;">
<circle cx="202.0768" cy="91.6451" r="0.3302" /> 
</g>
<g style="fill:#FFFFFF; fill-opacity:1.0000; stroke:none;">
<circle cx="212.0768" cy="71.6451" r="0.3302" /> 
</g>
<g style="fill:#FFFFFF; fill-opacity:1.0000; stroke:none;">
<circle cx="152.0768" cy="71.6451" r="0.3302" /> 
</g>
<g style="fill:#FFFFFF; fill-opacity:1.0000; stroke:none;">
<circle cx="222.0768" cy="91.6451" r="0.3302" /> 
</g>
<g style="fill:#FFFFFF; fill-opacity:1.0000; stroke:none;">
<circle cx="106.4768" cy="138.6451" r="0.3302" /> 
</g>
<g style="fill:#FFFFFF; fill-opacity:1.0000; stroke:none;">
<circle cx="184.0768" cy="130.5451" r="0.3302" /> 
</g>
<g style="fill:#FFFFFF; fill-opacity:1.0000; stroke:none;">
<circle cx="115.0020" cy="111.9325" r="0.3302" /> 
</g>
<g style="fill:#FFFFFF; fill-opacity:1.0000; stroke:none;">
<circle cx="120.6768" cy="112.4451" r="0.3302" /> 
</g>
<g style="fill:#FFFFFF; fill-opacity:1.0000; stroke:none;">
<circle cx="181.7768" cy="91.8451" r="0.3302" /> 
</g>
<g style="fill:#FFFFFF; fill-opacity:1.0000; stroke:none;">
<circle cx="156.8238" cy="93.4995" r="0.3302" /> 
</g>
<g style="fill:#FFFFFF; fill-opacity:1.0000; stroke:none;">
<circle cx="171.0902" cy="92.6489" r="0.3302" /> 
</g>
<g style="fill:#FFFFFF; fill-opacity:1.0000; stroke:none;">
<circle cx="105.0768" cy="77.6451" r="0.3302" /> 
</g>
<g style="fill:#FFFFFF; fill-opacity:1.0000; stroke:none;">
<circle cx="113.0768" cy="70.6451" r="0.3302" /> 
</g>
<g style="fill:#FFFFFF; fill-opacity:1.0000; stroke:none;">
<circle cx="162.2198" cy="93.9175" r="0.3302" /> 
</g>
<g style="fill:#FFFFFF; fill-opacity:1.0000; stroke:none;">
<circle cx="177.0768" cy="122.5947" r="0.3302" /> 
</g>
<g style="fill:#FFFFFF; fill-opacity:1.0000; stroke:none;">
<circle cx="191.3404" cy="127.8815" r="0.3302" /> 
</g>
<g style="fill:#FFFFFF; fill-opacity:1.0000; stroke:none;">
<circle cx="182.2850" cy="124.1251" r="0.3302" /> 
</g>
<g style="fill:#FFFFFF; fill-opacity:1.0000; stroke:none;">
<circle cx="182.1092" cy="128.5447" r="0.3302" /> 
</g>
<g style="fill:#FFFFFF; fill-opacity:1.0000; stroke:none;">
<circle cx="208.1636" cy="111.2747" r="0.3302" /> 
</g>
<g style="fill:#FFFFFF; fill-opacity:1.0000; stroke:none;">
<circle cx="188.2020" cy="140.8451" r="0.3302" /> 
</g>
<g style="fill:#FFFFFF; fill-opacity:1.0000; stroke:none;">
<circle cx="196.4663" cy="128.5886" r="0.3302" /> 
</g>
<g style="fill:#FFFFFF; fill-opacity:1.0000; stroke:none;">
<circle cx="173.0768" cy="121.2803" r="0.3302" /> 
</g>
<g style="fill:#FFFFFF; fill-opacity:1.0000; stroke:none;">
<circle cx="192.3283" cy="124.5539" r="0.3302" /> 
</g>
<g style="fill:#FFFFFF; fill-opacity:1.0000; stroke:none;">
<circle cx="195.7233" cy="125.4067" r="0.3302" /> 
</g>
<g style="fill:#FFFFFF; fill-opacity:1.0000; stroke:none;">
<circle cx="40.9388" cy="81.8351" r="1.2000" /> 
</g>
<g style="fill:#FFFFFF; fill-opacity:1.0000; stroke:none;">
<circle cx="40.9388" cy="61.8351" r="1.2000" /> 
</g>
<g style="fill:#FFFFFF; fill-opacity:1.0000; stroke:none;">
<circle cx="45.9388" cy="81.8351" r="1.2000" /> 
</g>
<g style="fill:#FFFFFF; fill-opacity:1.0000; stroke:none;">
<circle cx="45.9388" cy="61.8351" r="1.2000" /> 
</g>
<g style="fill:#FFFFFF; fill-opacity:1.0000; stroke:none;">
<circle cx="55.9388" cy="71.8351" r="1.2000" /> 
</g>
<g style="fill:none; 
stroke:#FFFFFF; stroke-width:1.6000; stroke-opacity:1; 
stroke-linecap:round; stroke-linejoin:round;">
<path d="M55.2388 81.8351
L56.6388 81.8351
" />
<path d="M55.2388 76.8351
L56.6388 76.8351
" />
<path d="M45.9388 72.5351
L45.9388 71.1351
" />
<path d="M55.2388 61.8351
L56.6388 61.8351
" />
<path d="M55.2388 66.8351
L56.6388 66.8351
" />
</g>
<g style="fill:#FFFFFF; fill-opacity:1.0000; stroke:none;">
<circle cx="224.0768" cy="133.9651" r="1.0000" /> 
</g>
<g style="fill:#FFFFFF; fill-opacity:1.0000; stroke:none;">
<circle cx="229.1568" cy="133.9651" r="1.0000" /> 
</g>
<g style="fill:#FFFFFF; fill-opacity:1.0000; stroke:none;">
<circle cx="224.0768" cy="128.8851" r="1.0000" /> 
</g>
<g style="fill:#FFFFFF; fill-opacity:1.0000; stroke:none;">
<circle cx="229.1568" cy="128.8851" r="1.0000" /> 
</g>
<g style="fill:#FFFFFF; fill-opacity:1.0000; stroke:none;">
<circle cx="224.0768" cy="123.8051" r="1.0000" /> 
</g>
<g style="fill:#FFFFFF; fill-opacity:1.0000; stroke:none;">
<circle cx="229.1568" cy="123.8051" r="1.0000" /> 
</g>
<g style="fill:#FFFFFF; fill-opacity:1.0000; stroke:none;">
<circle cx="224.0768" cy="118.7251" r="1.0000" /> 
</g>
<g style="fill:#FFFFFF; fill-opacity:1.0000; stroke:none;">
<circle cx="229.1568" cy="118.7251" r="1.0000" /> 
</g>
<g style="fill:#FFFFFF; fill-opacity:1.0000; stroke:none;">
<circle cx="224.0768" cy="113.6451" r="1.0000" /> 
</g>
<g style="fill:#FFFFFF; fill-opacity:1.0000; stroke:none;">
<circle cx="229.1568" cy="113.6451" r="1.0000" /> 
</g>
<g style="fill:#FFFFFF; fill-opacity:1.0000; stroke:none;">
<circle cx="224.0768" cy="108.5651" r="1.0000" /> 
</g>
<g style="fill:#FFFFFF; fill-opacity:1.0000; stroke:none;">
<circle cx="229.1568" cy="108.5651" r="1.0000" /> 
</g>
<g style="fill:#FFFFFF; fill-opacity:1.0000; stroke:none;">
<circle cx="223.0128" cy="84.4091" r="3.2000" /> 
</g>
<g style="fill:#FFFFFF; fill-opacity:1.0000; stroke:none;">
<circle cx="230.0768" cy="147.6451" r="1.0000" /> 
</g>
<g style="fill:#FFFFFF; fill-opacity:1.0000; stroke:none;">
<circle cx="224.9968" cy="147.6451" r="1.0000" /> 
</g>
<g style="fill:#FFFFFF; fill-opacity:1.0000; stroke:none;">
<circle cx="219.9168" cy="147.6451" r="1.0000" /> 
</g>
<g style="fill:#FFFFFF; fill-opacity:1.0000; stroke:none;">
<circle cx="214.8368" cy="147.6451" r="1.0000" /> 
</g>
<g style="fill:#FFFFFF; fill-opacity:1.0000; stroke:none;">
<circle cx="209.7568" cy="147.6451" r="1.0000" /> 
</g>
<g style="fill:#FFFFFF; fill-opacity:1.0000; stroke:none;">
<circle cx="204.6768" cy="147.6451" r="1.0000" /> 
</g>
<g style="fill:#FFFFFF; fill-opacity:1.0000; stroke:none;">
<circle cx="199.5968" cy="147.6451" r="1.0000" /> 
</g>
<g style="fill:#FFFFFF; fill-opacity:1.0000; stroke:none;">
<circle cx="194.5168" cy="147.6451" r="1.0000" /> 
</g>
<g style="fill:#FFFFFF; fill-opacity:1.0000; stroke:none;">
<circle cx="189.4368" cy="147.6451" r="1.0000" /> 
</g>
<g style="fill:#FFFFFF; fill-opacity:1.0000; stroke:none;">
<circle cx="184.3568" cy="147.6451" r="1.0000" /> 
</g>
<g style="fill:#FFFFFF; fill-opacity:1.0000; stroke:none;">
<circle cx="179.2768" cy="147.6451" r="1.0000" /> 
</g>
<g style="fill:#FFFFFF; fill-opacity:1.0000; stroke:none;">
<circle cx="174.1968" cy="147.6451" r="1.0000" /> 
</g>
<g style="fill:#FFFFFF; fill-opacity:1.0000; stroke:none;">
<circle cx="169.1168" cy="147.6451" r="1.0000" /> 
</g>
<g style="fill:#FFFFFF; fill-opacity:1.0000; stroke:none;">
<circle cx="164.0368" cy="147.6451" r="1.0000" /> 
</g>
<g style="fill:#FFFFFF; fill-opacity:1.0000; stroke:none;">
<circle cx="158.9568" cy="147.6451" r="1.0000" /> 
</g>
<g style="fill:#FFFFFF; fill-opacity:1.0000; stroke:none;">
<circle cx="153.8768" cy="147.6451" r="1.0000" /> 
</g>
<g style="fill:#FFFFFF; fill-opacity:1.0000; stroke:none;">
<circle cx="148.7968" cy="147.6451" r="1.0000" /> 
</g>
<g style="fill:#FFFFFF; fill-opacity:1.0000; stroke:none;">
<circle cx="143.7168" cy="147.6451" r="1.0000" /> 
</g>
<g style="fill:#FFFFFF; fill-opacity:1.0000; stroke:none;">
<circle cx="138.6368" cy="147.6451" r="1.0000" /> 
</g>
<g style="fill:#FFFFFF; fill-opacity:1.0000; stroke:none;">
<circle cx="133.5568" cy="147.6451" r="1.0000" /> 
</g>
<g style="fill:#FFFFFF; fill-opacity:1.0000; stroke:none;">
<circle cx="128.4768" cy="147.6451" r="1.0000" /> 
</g>
<g style="fill:#FFFFFF; fill-opacity:1.0000; stroke:none;">
<circle cx="123.3968" cy="147.6451" r="1.0000" /> 
</g>
<g style="fill:#FFFFFF; fill-opacity:1.0000; stroke:none;">
<circle cx="118.3168" cy="147.6451" r="1.0000" /> 
</g>
<g style="fill:#FFFFFF; fill-opacity:1.0000; stroke:none;">
<circle cx="113.2368" cy="147.6451" r="1.0000" /> 
</g>
<g style="fill:#FFFFFF; fill-opacity:1.0000; stroke:none;">
<circle cx="108.1568" cy="147.6451" r="1.0000" /> 
</g>
<g style="fill:#FFFFFF; fill-opacity:1.0000; stroke:none;">
<circle cx="103.0768" cy="147.6451" r="1.0000" /> 
</g>
<g style="fill:#FFFFFF; fill-opacity:1.0000; stroke:none;">
<circle cx="97.9968" cy="147.6451" r="1.0000" /> 
</g>
<g style="fill:#FFFFFF; fill-opacity:1.0000; stroke:none;">
<circle cx="92.9168" cy="147.6451" r="1.0000" /> 
</g>
<g style="fill:#FFFFFF; fill-opacity:1.0000; stroke:none;">
<circle cx="87.8368" cy="147.6451" r="1.0000" /> 
</g>
<g style="fill:#FFFFFF; fill-opacity:1.0000; stroke:none;">
<circle cx="82.7568" cy="147.6451" r="1.0000" /> 
</g>
<g style="fill:#FFFFFF; fill-opacity:1.0000; stroke:none;">
<circle cx="77.6768" cy="147.6451" r="1.0000" /> 
</g>
<g style="fill:#FFFFFF; fill-opacity:1.0000; stroke:none;">
<circle cx="72.5968" cy="147.6451" r="1.0000" /> 
</g>
<g style="fill:#FFFFFF; fill-opacity:1.0000; stroke:none;">
<circle cx="67.5168" cy="147.6451" r="1.0000" /> 
</g>
<g style="fill:#FFFFFF; fill-opacity:1.0000; stroke:none;">
<circle cx="62.4368" cy="147.6451" r="1.0000" /> 
</g>
<g style="fill:#FFFFFF; fill-opacity:1.0000; stroke:none;">
<circle cx="57.3568" cy="147.6451" r="1.0000" /> 
</g>
<g style="fill:#FFFFFF; fill-opacity:1.0000; stroke:none;">
<circle cx="52.2768" cy="147.6451" r="1.0000" /> 
</g>
<g style="fill:#FFFFFF; fill-opacity:1.0000; stroke:none;">
<circle cx="47.1968" cy="147.6451" r="1.0000" /> 
</g>
<g style="fill:#FFFFFF; fill-opacity:1.0000; stroke:none;">
<circle cx="42.1168" cy="147.6451" r="1.0000" /> 
</g>
<g style="fill:#FFFFFF; fill-opacity:1.0000; stroke:none;">
<circle cx="37.0368" cy="147.6451" r="1.0000" /> 
</g> 
</svg>
