<?xml version="1.0" standalone="no"?>
 <!DOCTYPE svg PUBLIC "-//W3C//DTD SVG 1.1//EN" 
 "http://www.w3.org/Graphics/SVG/1.1/DTD/svg11.dtd"> 
<svg
  xmlns:svg="http://www.w3.org/2000/svg"
  xmlns="http://www.w3.org/2000/svg"
  xmlns:xlink="http://www.w3.org/1999/xlink"
  version="1.1"
  width="297.0022mm" height="210.0072mm" viewBox="0.0000 0.0000 297.0022 210.0072">
<title>SVG Image created as rcbus-ymf262-Edge_Cuts4.svg date 2025/09/01 23:04:56 </title>
  <desc>Image generated by PCBNEW </desc>
<g style="fill:#000000; fill-opacity:1.0000;stroke:#000000; stroke-opacity:1.0000;
stroke-linecap:round; stroke-linejoin:round;"
 transform="translate(0 0) scale(1 1)">
</g>
<g style="fill:none; 
stroke:#000000; stroke-width:0.3000; stroke-opacity:1; 
stroke-linecap:round; stroke-linejoin:round;">
<path d="M37.3388 67.0091
L37.3388 76.6611
" />
<path d="M33.0768 64.7231
L33.0768 61.6451
" />
<path d="M44.0768 50.6451
L203.0768 50.6451
" />
<path d="M44.0768 50.6451 A11.0000 11.0000 0.0 0 0 33.0768 61.6451" />
<path d="M33.0768 64.7231
L35.0528 64.7231
" />
<path d="M33.0768 78.9471
L35.0528 78.9471
" />
<path d="M233.0768 80.6451
L203.0768 50.6451
" />
<path d="M233.0768 80.6451
L233.0768 150.6451
" />
<path d="M35.0528 78.9471 A2.2860 2.2860 0.0 0 0 37.3388 76.6611" />
<path d="M33.0768 150.6451
L33.0768 78.9471
" />
<path d="M233.0768 150.6451
L33.0768 150.6451
" />
<path d="M37.3388 67.0091 A2.2860 2.2860 0.0 0 0 35.0528 64.7231" />
</g> 
</svg>
