<?xml version="1.0" standalone="no"?>
 <!DOCTYPE svg PUBLIC "-//W3C//DTD SVG 1.1//EN" 
 "http://www.w3.org/Graphics/SVG/1.1/DTD/svg11.dtd"> 
<svg
  xmlns:svg="http://www.w3.org/2000/svg"
  xmlns="http://www.w3.org/2000/svg"
  xmlns:xlink="http://www.w3.org/1999/xlink"
  version="1.1"
  width="10.215000000000002cm" height="5.215cm" viewBox="58.925 113.925 102.15 52.15">
<title>SVG Image created as rcbus-opl3-B_Cu.svg date 2025/10/05 23:02:53 </title>
  <desc>Image generated by PCBNEW </desc>
<g style="fill:#000000; fill-opacity:1.000000;stroke:#000000; stroke-opacity:1.000000;
stroke-linecap:round; stroke-linejoin:round;"
 transform="translate(0 0) scale(1 1)">
<path style="fill:#000000; fill-opacity:1.000000; stroke:none;fill-rule:evenodd;"
d="M 149.819000,129.695000
149.819000,131.495000
147.319000,131.495000
147.319000,129.695000
Z" /> 
<path style="fill:#000000; fill-opacity:1.000000; stroke:none;fill-rule:evenodd;"
d="M 149.819000,127.195000
149.819000,128.995000
147.319000,128.995000
147.319000,127.195000
Z" /> 
<path style="fill:#000000; fill-opacity:1.000000; stroke:none;fill-rule:evenodd;"
d="M 154.469000,124.345000
154.469000,126.845000
152.669000,126.845000
152.669000,124.345000
Z" /> 
<path style="fill:#000000; fill-opacity:1.000000; stroke:none;fill-rule:evenodd;"
d="M 149.819000,119.695000
149.819000,121.495000
147.319000,121.495000
147.319000,119.695000
Z" /> 
<path style="fill:#000000; fill-opacity:1.000000; stroke:none;fill-rule:evenodd;"
d="M 149.819000,122.195000
149.819000,123.995000
147.319000,123.995000
147.319000,122.195000
Z" /> 
<path style="fill:#000000; fill-opacity:1.000000; stroke:none;fill-rule:evenodd;"
d="M 65.850000,153.310000
65.850000,155.010000
64.150000,155.010000
64.150000,153.310000
Z" /> 
</g>
<g style="fill:#000000; fill-opacity:1.000000; stroke:none;">
<circle cx="62.460000" cy="154.160000" r="0.850000" /> 
</g>
<g style="fill:#000000; fill-opacity:1.000000; stroke:none;">
<circle cx="65.000000" cy="151.620000" r="0.850000" /> 
</g>
<g style="fill:#000000; fill-opacity:1.000000; stroke:none;">
<circle cx="62.460000" cy="151.620000" r="0.850000" /> 
</g>
<g style="fill:#000000; fill-opacity:1.000000; stroke:none;">
<circle cx="65.000000" cy="149.080000" r="0.850000" /> 
</g>
<g style="fill:#000000; fill-opacity:1.000000; stroke:none;">
<circle cx="62.460000" cy="149.080000" r="0.850000" /> 
</g>
<g style="fill:#000000; fill-opacity:1.000000; stroke:none;">
<circle cx="65.000000" cy="146.540000" r="0.850000" /> 
</g>
<g style="fill:#000000; fill-opacity:1.000000; stroke:none;">
<circle cx="62.460000" cy="146.540000" r="0.850000" /> 
</g>
<g style="fill:#000000; fill-opacity:1.000000; stroke:none;">
<circle cx="65.000000" cy="144.000000" r="0.850000" /> 
</g>
<g style="fill:#000000; fill-opacity:1.000000; stroke:none;">
<circle cx="62.460000" cy="144.000000" r="0.850000" /> 
</g>
<g style="fill:#000000; fill-opacity:1.000000; stroke:none;">
<circle cx="65.000000" cy="141.460000" r="0.850000" /> 
</g>
<g style="fill:#000000; fill-opacity:1.000000; stroke:none;">
<circle cx="62.460000" cy="141.460000" r="0.850000" /> 
<path style="fill:#000000; fill-opacity:1.000000; stroke:none;fill-rule:evenodd;"
d="M 62.350000,164.350000
60.650000,164.350000
60.650000,162.650000
62.350000,162.650000
Z" /> 
</g>
<g style="fill:#000000; fill-opacity:1.000000; stroke:none;">
<circle cx="64.040000" cy="163.500000" r="0.850000" /> 
<circle cx="66.580000" cy="163.500000" r="0.850000" /> 
<circle cx="69.120000" cy="163.500000" r="0.850000" /> 
<circle cx="71.660000" cy="163.500000" r="0.850000" /> 
<circle cx="74.200000" cy="163.500000" r="0.850000" /> 
<circle cx="76.740000" cy="163.500000" r="0.850000" /> 
<circle cx="79.280000" cy="163.500000" r="0.850000" /> 
<circle cx="81.820000" cy="163.500000" r="0.850000" /> 
<circle cx="84.360000" cy="163.500000" r="0.850000" /> 
<circle cx="86.900000" cy="163.500000" r="0.850000" /> 
<circle cx="89.440000" cy="163.500000" r="0.850000" /> 
<circle cx="91.980000" cy="163.500000" r="0.850000" /> 
<circle cx="94.520000" cy="163.500000" r="0.850000" /> 
<circle cx="97.060000" cy="163.500000" r="0.850000" /> 
<circle cx="99.600000" cy="163.500000" r="0.850000" /> 
<circle cx="102.140000" cy="163.500000" r="0.850000" /> 
<circle cx="104.680000" cy="163.500000" r="0.850000" /> 
<circle cx="107.220000" cy="163.500000" r="0.850000" /> 
<circle cx="109.760000" cy="163.500000" r="0.850000" /> 
<circle cx="112.300000" cy="163.500000" r="0.850000" /> 
<circle cx="114.840000" cy="163.500000" r="0.850000" /> 
<circle cx="117.380000" cy="163.500000" r="0.850000" /> 
<circle cx="119.920000" cy="163.500000" r="0.850000" /> 
<circle cx="122.460000" cy="163.500000" r="0.850000" /> 
<circle cx="125.000000" cy="163.500000" r="0.850000" /> 
<circle cx="127.540000" cy="163.500000" r="0.850000" /> 
<circle cx="130.080000" cy="163.500000" r="0.850000" /> 
<circle cx="132.620000" cy="163.500000" r="0.850000" /> 
<circle cx="135.160000" cy="163.500000" r="0.850000" /> 
<circle cx="137.700000" cy="163.500000" r="0.850000" /> 
<circle cx="140.240000" cy="163.500000" r="0.850000" /> 
<circle cx="142.780000" cy="163.500000" r="0.850000" /> 
<circle cx="145.320000" cy="163.500000" r="0.850000" /> 
<circle cx="147.860000" cy="163.500000" r="0.850000" /> 
<circle cx="150.400000" cy="163.500000" r="0.850000" /> 
<circle cx="152.940000" cy="163.500000" r="0.850000" /> 
<circle cx="155.480000" cy="163.500000" r="0.850000" /> 
<circle cx="158.020000" cy="163.500000" r="0.850000" /> 
<circle cx="105.000000" cy="156.540500" r="0.342900" /> 
</g>
<g style="fill:#000000; fill-opacity:1.000000; stroke:none;">
<circle cx="74.900000" cy="151.500000" r="0.342900" /> 
</g>
<g style="fill:#000000; fill-opacity:1.000000; stroke:none;">
<circle cx="129.300000" cy="158.000000" r="0.342900" /> 
</g>
<g style="fill:#000000; fill-opacity:1.000000; stroke:none;">
<circle cx="120.400000" cy="137.600000" r="0.342900" /> 
</g>
<g style="fill:#000000; fill-opacity:1.000000; stroke:none;">
<circle cx="124.576187" cy="130.430064" r="0.342900" /> 
</g>
<g style="fill:#000000; fill-opacity:1.000000; stroke:none;">
<circle cx="74.900000" cy="154.000000" r="0.342900" /> 
</g>
<g style="fill:#000000; fill-opacity:1.000000; stroke:none;">
<circle cx="74.900000" cy="144.000000" r="0.342900" /> 
</g>
<g style="fill:#000000; fill-opacity:1.000000; stroke:none;">
<circle cx="97.500000" cy="145.500000" r="0.342900" /> 
</g>
<g style="fill:#000000; fill-opacity:1.000000; stroke:none;">
<circle cx="141.475000" cy="124.400000" r="0.342900" /> 
</g>
<g style="fill:#000000; fill-opacity:1.000000; stroke:none;">
<circle cx="82.800000" cy="147.400000" r="0.342900" /> 
</g>
<g style="fill:#000000; fill-opacity:1.000000; stroke:none;">
<circle cx="97.500000" cy="156.000000" r="0.342900" /> 
</g>
<g style="fill:#000000; fill-opacity:1.000000; stroke:none;">
<circle cx="116.200000" cy="141.700000" r="0.342900" /> 
</g>
<g style="fill:#000000; fill-opacity:1.000000; stroke:none;">
<circle cx="82.800000" cy="142.500000" r="0.342900" /> 
</g>
<g style="fill:#000000; fill-opacity:1.000000; stroke:none;">
<circle cx="123.499999" cy="121.232925" r="0.342900" /> 
</g>
<g style="fill:#000000; fill-opacity:1.000000; stroke:none;">
<circle cx="74.900000" cy="146.500000" r="0.342900" /> 
</g>
<g style="fill:#000000; fill-opacity:1.000000; stroke:none;">
<circle cx="74.900000" cy="141.500000" r="0.342900" /> 
</g>
<g style="fill:#000000; fill-opacity:1.000000; stroke:none;">
<circle cx="141.475000" cy="134.400000" r="0.342900" /> 
</g>
<g style="fill:#000000; fill-opacity:1.000000; stroke:none;">
<circle cx="106.400000" cy="127.800000" r="0.342900" /> 
</g>
<g style="fill:#000000; fill-opacity:1.000000; stroke:none;">
<circle cx="121.400000" cy="144.000000" r="0.342900" /> 
</g>
<g style="fill:#000000; fill-opacity:1.000000; stroke:none;">
<circle cx="91.715001" cy="156.500000" r="0.342900" /> 
</g>
<g style="fill:#000000; fill-opacity:1.000000; stroke:none;">
<circle cx="74.900000" cy="149.000000" r="0.342900" /> 
</g>
<g style="fill:#000000; fill-opacity:1.000000; stroke:none;">
<circle cx="122.800000" cy="130.500000" r="0.342900" /> 
</g>
<g style="fill:#000000; fill-opacity:1.000000; stroke:none;">
<circle cx="110.700000" cy="152.400000" r="0.342900" /> 
</g>
<g style="fill:#000000; fill-opacity:1.000000; stroke:none;">
<circle cx="101.700000" cy="161.452400" r="0.342900" /> 
</g>
<g style="fill:#000000; fill-opacity:1.000000; stroke:none;">
<circle cx="125.700000" cy="152.900000" r="0.342900" /> 
</g>
<g style="fill:#000000; fill-opacity:1.000000; stroke:none;">
<circle cx="117.400000" cy="153.000000" r="0.342900" /> 
</g>
<g style="fill:#000000; fill-opacity:1.000000; stroke:none;">
<circle cx="111.900000" cy="159.600000" r="0.342900" /> 
</g>
<g style="fill:#000000; fill-opacity:1.000000; stroke:none;">
<circle cx="92.503401" cy="157.400000" r="0.342900" /> 
</g>
<g style="fill:#000000; fill-opacity:1.000000; stroke:none;">
<circle cx="114.421249" cy="157.092303" r="0.342900" /> 
</g>
<g style="fill:#000000; fill-opacity:1.000000; stroke:none;">
<circle cx="95.750000" cy="158.400000" r="0.342900" /> 
</g>
<g style="fill:#000000; fill-opacity:1.000000; stroke:none;">
<circle cx="81.746881" cy="149.172600" r="0.342900" /> 
</g>
<g style="fill:#000000; fill-opacity:1.000000; stroke:none;">
<circle cx="85.430824" cy="153.500000" r="0.342900" /> 
</g>
<g style="fill:#000000; fill-opacity:1.000000; stroke:none;">
<circle cx="83.772712" cy="149.151382" r="0.342900" /> 
</g>
<g style="fill:#000000; fill-opacity:1.000000; stroke:none;">
<circle cx="87.873631" cy="153.500000" r="0.342900" /> 
</g>
<g style="fill:#000000; fill-opacity:1.000000; stroke:none;">
<circle cx="80.994854" cy="148.281174" r="0.342900" /> 
</g>
<g style="fill:#000000; fill-opacity:1.000000; stroke:none;">
<circle cx="82.800000" cy="153.500000" r="0.342900" /> 
</g>
<g style="fill:#000000; fill-opacity:1.000000; stroke:none;">
<circle cx="77.900000" cy="151.500000" r="0.342900" /> 
</g>
<g style="fill:#000000; fill-opacity:1.000000; stroke:none;">
<circle cx="81.178592" cy="152.558250" r="0.342900" /> 
</g>
<g style="fill:#000000; fill-opacity:1.000000; stroke:none;">
<circle cx="87.900000" cy="150.442600" r="0.342900" /> 
</g>
<g style="fill:#000000; fill-opacity:1.000000; stroke:none;">
<circle cx="90.453700" cy="153.046300" r="0.342900" /> 
</g>
<g style="fill:none; 
stroke:#000000; stroke-width:0.762000; stroke-opacity:1; 
stroke-linecap:round; stroke-linejoin:round;">
<path d="M104.680000 163.500000
L104.680000 156.860500
" />
<path d="M104.680000 156.860500
L105.000000 156.540500
" />
</g>
<g style="fill:none; 
stroke:#000000; stroke-width:0.381000; stroke-opacity:1; 
stroke-linecap:round; stroke-linejoin:round;">
<path d="M99.107600 161.452400
L97.060000 163.500000
" />
<path d="M101.700000 161.452400
L99.107600 161.452400
" />
<path d="M125.600000 153.000000
L125.700000 152.900000
" />
<path d="M117.400000 153.000000
L125.600000 153.000000
" />
<path d="M111.900000 159.600000
L111.900000 161.360000
" />
<path d="M111.900000 161.360000
L109.760000 163.500000
" />
<path d="M118.592303 157.092303
L114.421249 157.092303
" />
<path d="M125.000000 163.500000
L118.592303 157.092303
" />
<path d="M92.503401 157.400000
L93.503401 158.400000
" />
<path d="M93.503401 158.400000
L95.750000 158.400000
" />
<path d="M85.430824 153.386797
L81.746881 149.702854
" />
<path d="M85.430824 153.500000
L85.430824 153.386797
" />
<path d="M81.746881 149.702854
L81.746881 149.172600
" />
<path d="M83.772712 149.325449
L87.873631 153.426368
" />
<path d="M83.772712 149.151382
L83.772712 149.325449
" />
<path d="M87.873631 153.426368
L87.873631 153.500000
" />
<path d="M80.835866 151.101073
L82.800000 153.065207
" />
<path d="M80.994854 148.281174
L80.835866 148.440162
" />
<path d="M82.800000 153.065207
L82.800000 153.500000
" />
<path d="M80.835866 148.440162
L80.835866 151.101073
" />
<path d="M77.900000 151.500000
L80.121669 151.500000
" />
<path d="M80.121669 151.500000
L81.178592 152.556923
" />
<path d="M81.178592 152.556923
L81.178592 152.558250
" />
<path d="M90.453700 153.046300
L87.900000 150.492600
" />
<path d="M87.900000 150.492600
L87.900000 150.442600
" />
<path style="fill:#000000; fill-opacity:1.000000; stroke:none;fill-rule:evenodd;"
d="M 154.502611,115.500608
154.907663,115.517361
154.918012,115.518218
155.317722,115.568042
155.327986,115.569755
155.722213,115.652415
155.732276,115.654962
156.118344,115.769901
156.128187,115.773281
156.503427,115.919700
156.512964,115.923883
156.853371,116.090298
156.874811,116.100779
156.883969,116.105735
157.229991,116.311919
157.238702,116.317610
157.387309,116.423713
157.566512,116.551662
157.574730,116.558058
157.882102,116.818388
157.889763,116.825442
158.174557,117.110236
158.181611,117.117897
158.441941,117.425269
158.448337,117.433487
158.682384,117.761289
158.688080,117.770008
158.894264,118.116030
158.899220,118.125188
159.076116,118.487035
159.080299,118.496572
159.226718,118.871812
159.230100,118.881661
159.345032,119.267707
159.347588,119.277803
159.430243,119.672009
159.431957,119.682281
159.481779,120.081973
159.482639,120.092351
159.499392,120.497388
159.499500,120.502595
159.499500,121.412500
159.479498,121.480621
159.425842,121.527114
159.373500,121.538500
158.894449,121.538500
158.661758,121.571956
158.436187,121.638190
158.222340,121.735850
158.024571,121.862949
157.846901,122.016901
157.692949,122.194571
157.565850,122.392340
157.468190,122.606187
157.401956,122.831758
157.368500,123.064449
157.368500,128.125550
157.401956,128.358241
157.468190,128.583812
157.565850,128.797659
157.692949,128.995428
157.846901,129.173098
158.024571,129.327050
158.220037,129.452669
158.222342,129.454150
158.436189,129.551810
158.661757,129.618043
158.894455,129.651500
158.946108,129.651500
159.373500,129.651500
159.441621,129.671502
159.488114,129.725158
159.499500,129.777500
159.499500,162.904123
159.479498,162.972244
159.425842,163.018737
159.355568,163.028841
159.290988,162.999347
159.261233,162.961326
159.175051,162.792184
159.050104,162.620208
159.050101,162.620205
159.050099,162.620202
158.899797,162.469900
158.899794,162.469898
158.899792,162.469896
158.727816,162.344949
158.538412,162.248443
158.336243,162.182754
158.126287,162.149500
157.913713,162.149500
157.703757,162.182754
157.703754,162.182754
157.703753,162.182755
157.501588,162.248443
157.501586,162.248444
157.312180,162.344951
157.140205,162.469898
157.140202,162.469900
156.989900,162.620202
156.989898,162.620205
156.864949,162.792183
156.862265,162.797451
156.813516,162.849065
156.744600,162.866129
156.677399,162.843226
156.637735,162.797451
156.635050,162.792183
156.635048,162.792180
156.510104,162.620208
156.510101,162.620205
156.510099,162.620202
156.359797,162.469900
156.359794,162.469898
156.359792,162.469896
156.187816,162.344949
155.998412,162.248443
155.796243,162.182754
155.586287,162.149500
155.373713,162.149500
155.163757,162.182754
155.163754,162.182754
155.163753,162.182755
154.961588,162.248443
154.961586,162.248444
154.772180,162.344951
154.600205,162.469898
154.600202,162.469900
154.449900,162.620202
154.449898,162.620205
154.324949,162.792183
154.322265,162.797451
154.273516,162.849065
154.204600,162.866129
154.137399,162.843226
154.097735,162.797451
154.095050,162.792183
154.095048,162.792180
153.970104,162.620208
153.970101,162.620205
153.970099,162.620202
153.819797,162.469900
153.819794,162.469898
153.819792,162.469896
153.647816,162.344949
153.458412,162.248443
153.256243,162.182754
153.046287,162.149500
152.833713,162.149500
152.623757,162.182754
152.623754,162.182754
152.623753,162.182755
152.421588,162.248443
152.421586,162.248444
152.232180,162.344951
152.060205,162.469898
152.060202,162.469900
151.909900,162.620202
151.909898,162.620205
151.784949,162.792183
151.782265,162.797451
151.733516,162.849065
151.664600,162.866129
151.597399,162.843226
151.557735,162.797451
151.555050,162.792183
151.555048,162.792180
151.430104,162.620208
151.430101,162.620205
151.430099,162.620202
151.279797,162.469900
151.279794,162.469898
151.279792,162.469896
151.107816,162.344949
150.918412,162.248443
150.716243,162.182754
150.506287,162.149500
150.293713,162.149500
150.083757,162.182754
150.083754,162.182754
150.083753,162.182755
149.881588,162.248443
149.881586,162.248444
149.692180,162.344951
149.520205,162.469898
149.520202,162.469900
149.369900,162.620202
149.369898,162.620205
149.244949,162.792183
149.242265,162.797451
149.193516,162.849065
149.124600,162.866129
149.057399,162.843226
149.017735,162.797451
149.015050,162.792183
149.015048,162.792180
148.890104,162.620208
148.890101,162.620205
148.890099,162.620202
148.739797,162.469900
148.739794,162.469898
148.739792,162.469896
148.567816,162.344949
148.378412,162.248443
148.176243,162.182754
147.966287,162.149500
147.753713,162.149500
147.543757,162.182754
147.543754,162.182754
147.543753,162.182755
147.341588,162.248443
147.341586,162.248444
147.152180,162.344951
146.980205,162.469898
146.980202,162.469900
146.829900,162.620202
146.829898,162.620205
146.704949,162.792183
146.702265,162.797451
146.653516,162.849065
146.584600,162.866129
146.517399,162.843226
146.477735,162.797451
146.475050,162.792183
146.475048,162.792180
146.350104,162.620208
146.350101,162.620205
146.350099,162.620202
146.199797,162.469900
146.199794,162.469898
146.199792,162.469896
146.027816,162.344949
145.838412,162.248443
145.636243,162.182754
145.426287,162.149500
145.213713,162.149500
145.003757,162.182754
145.003754,162.182754
145.003753,162.182755
144.801588,162.248443
144.801586,162.248444
144.612180,162.344951
144.440205,162.469898
144.440202,162.469900
144.289900,162.620202
144.289898,162.620205
144.164949,162.792183
144.162265,162.797451
144.113516,162.849065
144.044600,162.866129
143.977399,162.843226
143.937735,162.797451
143.935050,162.792183
143.935048,162.792180
143.810104,162.620208
143.810101,162.620205
143.810099,162.620202
143.659797,162.469900
143.659794,162.469898
143.659792,162.469896
143.487816,162.344949
143.298412,162.248443
143.096243,162.182754
142.886287,162.149500
142.673713,162.149500
142.463757,162.182754
142.463754,162.182754
142.463753,162.182755
142.261588,162.248443
142.261586,162.248444
142.072180,162.344951
141.900205,162.469898
141.900202,162.469900
141.749900,162.620202
141.749898,162.620205
141.624949,162.792183
141.622265,162.797451
141.573516,162.849065
141.504600,162.866129
141.437399,162.843226
141.397735,162.797451
141.395050,162.792183
141.395048,162.792180
141.270104,162.620208
141.270101,162.620205
141.270099,162.620202
141.119797,162.469900
141.119794,162.469898
141.119792,162.469896
140.947816,162.344949
140.758412,162.248443
140.556243,162.182754
140.346287,162.149500
140.133713,162.149500
139.923757,162.182754
139.923754,162.182754
139.923753,162.182755
139.721588,162.248443
139.721586,162.248444
139.532180,162.344951
139.360205,162.469898
139.360202,162.469900
139.209900,162.620202
139.209898,162.620205
139.084949,162.792183
139.082265,162.797451
139.033516,162.849065
138.964600,162.866129
138.897399,162.843226
138.857735,162.797451
138.855050,162.792183
138.855048,162.792180
138.730104,162.620208
138.730101,162.620205
138.730099,162.620202
138.579797,162.469900
138.579794,162.469898
138.579792,162.469896
138.407816,162.344949
138.218412,162.248443
138.016243,162.182754
137.806287,162.149500
137.593713,162.149500
137.383757,162.182754
137.383754,162.182754
137.383753,162.182755
137.181588,162.248443
137.181586,162.248444
136.992180,162.344951
136.820205,162.469898
136.820202,162.469900
136.669900,162.620202
136.669898,162.620205
136.544949,162.792183
136.542265,162.797451
136.493516,162.849065
136.424600,162.866129
136.357399,162.843226
136.317735,162.797451
136.315050,162.792183
136.315048,162.792180
136.190104,162.620208
136.190101,162.620205
136.190099,162.620202
136.039797,162.469900
136.039794,162.469898
136.039792,162.469896
135.867816,162.344949
135.678412,162.248443
135.476243,162.182754
135.266287,162.149500
135.053713,162.149500
134.843757,162.182754
134.843754,162.182754
134.843753,162.182755
134.641588,162.248443
134.641586,162.248444
134.452180,162.344951
134.280205,162.469898
134.280202,162.469900
134.129900,162.620202
134.129898,162.620205
134.004949,162.792183
134.002265,162.797451
133.953516,162.849065
133.884600,162.866129
133.817399,162.843226
133.777735,162.797451
133.775050,162.792183
133.775048,162.792180
133.650104,162.620208
133.650101,162.620205
133.650099,162.620202
133.499797,162.469900
133.499794,162.469898
133.499792,162.469896
133.327816,162.344949
133.138412,162.248443
132.936243,162.182754
132.726287,162.149500
132.513713,162.149500
132.303757,162.182754
132.303754,162.182754
132.303753,162.182755
132.101588,162.248443
132.101586,162.248444
131.912180,162.344951
131.740205,162.469898
131.740202,162.469900
131.589900,162.620202
131.589898,162.620205
131.464949,162.792183
131.462265,162.797451
131.413516,162.849065
131.344600,162.866129
131.277399,162.843226
131.237735,162.797451
131.235050,162.792183
131.235048,162.792180
131.110104,162.620208
131.110101,162.620205
131.110099,162.620202
130.959797,162.469900
130.959794,162.469898
130.959792,162.469896
130.787816,162.344949
130.598412,162.248443
130.396243,162.182754
130.186287,162.149500
129.973713,162.149500
129.763757,162.182754
129.763754,162.182754
129.763753,162.182755
129.561588,162.248443
129.561586,162.248444
129.372180,162.344951
129.200205,162.469898
129.200202,162.469900
129.049900,162.620202
129.049898,162.620205
128.924949,162.792183
128.922265,162.797451
128.873516,162.849065
128.804600,162.866129
128.737399,162.843226
128.697735,162.797451
128.695050,162.792183
128.695048,162.792180
128.570104,162.620208
128.570101,162.620205
128.570099,162.620202
128.419797,162.469900
128.419794,162.469898
128.419792,162.469896
128.247816,162.344949
128.058412,162.248443
127.856243,162.182754
127.646287,162.149500
127.433713,162.149500
127.223757,162.182754
127.223754,162.182754
127.223753,162.182755
127.021588,162.248443
127.021586,162.248444
126.832180,162.344951
126.660205,162.469898
126.660202,162.469900
126.509900,162.620202
126.509898,162.620205
126.384949,162.792183
126.382265,162.797451
126.333516,162.849065
126.264600,162.866129
126.197399,162.843226
126.157735,162.797451
126.155050,162.792183
126.155048,162.792180
126.030104,162.620208
126.030101,162.620205
126.030099,162.620202
125.879797,162.469900
125.879794,162.469898
125.879792,162.469896
125.707816,162.344949
125.518412,162.248443
125.316243,162.182754
125.106287,162.149500
124.893713,162.149500
124.726635,162.175962
124.656226,162.166863
124.617831,162.140609
119.032797,156.555574
119.032791,156.555569
119.031441,156.554667
118.919614,156.479947
118.856200,156.453680
118.793863,156.427859
118.793860,156.427858
118.660364,156.401303
118.660361,156.401303
114.943397,156.401303
114.875276,156.381301
114.873395,156.380068
114.820749,156.344891
114.667265,156.281316
114.667260,156.281314
114.504319,156.248903
114.504317,156.248903
114.338181,156.248903
114.338178,156.248903
114.175237,156.281314
114.175232,156.281316
114.021749,156.344891
113.883613,156.437190
113.883607,156.437195
113.766141,156.554661
113.766136,156.554667
113.673837,156.692803
113.610262,156.846286
113.610260,156.846291
113.577849,157.009232
113.577849,157.175373
113.586386,157.218291
113.610260,157.338314
113.673837,157.491803
113.717133,157.556600
113.766136,157.629938
113.766141,157.629944
113.883607,157.747410
113.883613,157.747415
114.021749,157.839715
114.175238,157.903292
114.338181,157.935703
114.338182,157.935703
114.504316,157.935703
114.504317,157.935703
114.667260,157.903292
114.820749,157.839715
114.873395,157.804538
114.941148,157.783323
114.943397,157.783303
118.253891,157.783303
118.322012,157.803305
118.342986,157.820208
122.457183,161.934405
122.491209,161.996717
122.486144,162.067532
122.443597,162.124368
122.377077,162.149179
122.368088,162.149500
122.353713,162.149500
122.143757,162.182754
122.143754,162.182754
122.143753,162.182755
121.941588,162.248443
121.941586,162.248444
121.752180,162.344951
121.580205,162.469898
121.580202,162.469900
121.429900,162.620202
121.429898,162.620205
121.304949,162.792183
121.302265,162.797451
121.253516,162.849065
121.184600,162.866129
121.117399,162.843226
121.077735,162.797451
121.075050,162.792183
121.075048,162.792180
120.950104,162.620208
120.950101,162.620205
120.950099,162.620202
120.799797,162.469900
120.799794,162.469898
120.799792,162.469896
120.627816,162.344949
120.438412,162.248443
120.236243,162.182754
120.026287,162.149500
119.813713,162.149500
119.603757,162.182754
119.603754,162.182754
119.603753,162.182755
119.401588,162.248443
119.401586,162.248444
119.212180,162.344951
119.040205,162.469898
119.040202,162.469900
118.889900,162.620202
118.889898,162.620205
118.764949,162.792183
118.762265,162.797451
118.713516,162.849065
118.644600,162.866129
118.577399,162.843226
118.537735,162.797451
118.535050,162.792183
118.535048,162.792180
118.410104,162.620208
118.410101,162.620205
118.410099,162.620202
118.259797,162.469900
118.259794,162.469898
118.259792,162.469896
118.087816,162.344949
117.898412,162.248443
117.696243,162.182754
117.486287,162.149500
117.273713,162.149500
117.063757,162.182754
117.063754,162.182754
117.063753,162.182755
116.861588,162.248443
116.861586,162.248444
116.672180,162.344951
116.500205,162.469898
116.500202,162.469900
116.349900,162.620202
116.349898,162.620205
116.224949,162.792183
116.222265,162.797451
116.173516,162.849065
116.104600,162.866129
116.037399,162.843226
115.997735,162.797451
115.995050,162.792183
115.995048,162.792180
115.870104,162.620208
115.870101,162.620205
115.870099,162.620202
115.719797,162.469900
115.719794,162.469898
115.719792,162.469896
115.547816,162.344949
115.358412,162.248443
115.156243,162.182754
114.946287,162.149500
114.733713,162.149500
114.523757,162.182754
114.523754,162.182754
114.523753,162.182755
114.321588,162.248443
114.321586,162.248444
114.132180,162.344951
113.960205,162.469898
113.960202,162.469900
113.809900,162.620202
113.809898,162.620205
113.684949,162.792183
113.682265,162.797451
113.633516,162.849065
113.564600,162.866129
113.497399,162.843226
113.457735,162.797451
113.455050,162.792183
113.455048,162.792180
113.330104,162.620208
113.330101,162.620205
113.330099,162.620202
113.179797,162.469900
113.179794,162.469898
113.179792,162.469896
113.007816,162.344949
112.818412,162.248443
112.616243,162.182754
112.406287,162.149500
112.391912,162.149500
112.323791,162.129498
112.277298,162.075842
112.267194,162.005568
112.296688,161.940988
112.302817,161.934405
112.338478,161.898742
112.436735,161.800487
112.512356,161.687311
112.564445,161.561557
112.591000,161.428058
112.591000,160.122147
112.611002,160.054026
112.612175,160.052234
112.647412,159.999500
112.710989,159.846011
112.743400,159.683068
112.743400,159.516932
112.710989,159.353989
112.647412,159.200500
112.555112,159.062364
112.555107,159.062358
112.437641,158.944892
112.437635,158.944887
112.391799,158.914260
112.299500,158.852588
112.146011,158.789011
111.983070,158.756600
111.983068,158.756600
111.816932,158.756600
111.816929,158.756600
111.653988,158.789011
111.653983,158.789013
111.500500,158.852588
111.362364,158.944887
111.362358,158.944892
111.244892,159.062358
111.244887,159.062364
111.152588,159.200500
111.089013,159.353983
111.089011,159.353988
111.056600,159.516929
111.056600,159.683070
111.089011,159.846011
111.089013,159.846016
111.152586,159.999497
111.152587,159.999499
111.152588,159.999500
111.187766,160.052147
111.208980,160.119897
111.209000,160.122147
111.209000,161.021587
111.188998,161.089708
111.172095,161.110682
110.142168,162.140608
110.079856,162.174634
110.033363,162.175962
109.937452,162.160771
109.866287,162.149500
109.653713,162.149500
109.443757,162.182754
109.443754,162.182754
109.443753,162.182755
109.241588,162.248443
109.241586,162.248444
109.052180,162.344951
108.880205,162.469898
108.880202,162.469900
108.729900,162.620202
108.729898,162.620205
108.604949,162.792183
108.602265,162.797451
108.553516,162.849065
108.484600,162.866129
108.417399,162.843226
108.377735,162.797451
108.375050,162.792183
108.375048,162.792180
108.250104,162.620208
108.250101,162.620205
108.250099,162.620202
108.099797,162.469900
108.099794,162.469898
108.099792,162.469896
107.927816,162.344949
107.738412,162.248443
107.536243,162.182754
107.326287,162.149500
107.113713,162.149500
106.903757,162.182754
106.903754,162.182754
106.903753,162.182755
106.701588,162.248443
106.701586,162.248444
106.512180,162.344951
106.340205,162.469898
106.340202,162.469900
106.189900,162.620202
106.189898,162.620205
106.064949,162.792183
106.062265,162.797451
106.013516,162.849065
105.944600,162.866129
105.877399,162.843226
105.837735,162.797451
105.835050,162.792183
105.835048,162.792180
105.710104,162.620208
105.710101,162.620205
105.710099,162.620202
105.598405,162.508508
105.564379,162.446196
105.561500,162.419413
105.561500,157.277819
105.581502,157.209698
105.598400,157.188728
105.684705,157.102424
105.781175,156.958047
105.847624,156.797624
105.881500,156.627321
105.881500,156.453680
105.847624,156.283376
105.781175,156.122954
105.684705,155.978577
105.684700,155.978571
105.561928,155.855799
105.561922,155.855794
105.514015,155.823783
105.417546,155.759325
105.316385,155.717422
105.257127,155.692877
105.257124,155.692876
105.086823,155.659000
105.086820,155.659000
104.913179,155.659000
104.913175,155.659000
104.742875,155.692876
104.742872,155.692877
104.582453,155.759325
104.438080,155.855792
104.438078,155.855793
103.995293,156.298577
103.898825,156.442952
103.832378,156.603370
103.832376,156.603375
103.801227,156.759974
103.801226,156.759978
103.798500,156.773679
103.798500,162.419413
103.778498,162.487534
103.761595,162.508508
103.649900,162.620202
103.649898,162.620205
103.524951,162.792180
103.428444,162.981586
103.428443,162.981588
103.416373,163.018737
103.362754,163.183757
103.329500,163.393713
103.329500,163.606287
103.362754,163.816243
103.428443,164.018412
103.467913,164.095876
103.524951,164.207819
103.591517,164.299439
103.615375,164.366307
103.599295,164.435458
103.548381,164.484938
103.489581,164.499500
100.790419,164.499500
100.722298,164.479498
100.675805,164.425842
100.665701,164.355568
100.688483,164.299439
100.755051,164.207816
100.851557,164.018412
100.917246,163.816243
100.950500,163.606287
100.950500,163.393713
100.917246,163.183757
100.851557,162.981588
100.755051,162.792184
100.630104,162.620208
100.630101,162.620205
100.630099,162.620202
100.479797,162.469900
100.479794,162.469898
100.479792,162.469896
100.344135,162.371336
100.300781,162.315114
100.294706,162.244378
100.327837,162.181586
100.389657,162.146675
100.418196,162.143400
101.177852,162.143400
101.245973,162.163402
101.247854,162.164635
101.255054,162.169446
101.300500,162.199812
101.453989,162.263389
101.616932,162.295800
101.616933,162.295800
101.783067,162.295800
101.783068,162.295800
101.946011,162.263389
102.099500,162.199812
102.237636,162.107512
102.355112,161.990036
102.447412,161.851900
102.510989,161.698411
102.543400,161.535468
102.543400,161.369332
102.510989,161.206389
102.447412,161.052900
102.355112,160.914764
102.355107,160.914758
102.237641,160.797292
102.237635,160.797287
102.183896,160.761380
102.099500,160.704988
101.946011,160.641411
101.783070,160.609000
101.783068,160.609000
101.616932,160.609000
101.616929,160.609000
101.453988,160.641411
101.453983,160.641413
101.300499,160.704988
101.247854,160.740165
101.180101,160.761380
101.177852,160.761400
99.039538,160.761400
98.906042,160.787955
98.906039,160.787956
98.780288,160.840044
98.667118,160.915662
98.667116,160.915663
97.442168,162.140610
97.379856,162.174635
97.333365,162.175962
97.166287,162.149500
96.953713,162.149500
96.743757,162.182754
96.743754,162.182754
96.743753,162.182755
96.541588,162.248443
96.541586,162.248444
96.352180,162.344951
96.180205,162.469898
96.180202,162.469900
96.029900,162.620202
96.029898,162.620205
95.904949,162.792183
95.902265,162.797451
95.853516,162.849065
95.784600,162.866129
95.717399,162.843226
95.677735,162.797451
95.675050,162.792183
95.675048,162.792180
95.550104,162.620208
95.550101,162.620205
95.550099,162.620202
95.399797,162.469900
95.399794,162.469898
95.399792,162.469896
95.227816,162.344949
95.038412,162.248443
94.836243,162.182754
94.626287,162.149500
94.413713,162.149500
94.203757,162.182754
94.203754,162.182754
94.203753,162.182755
94.001588,162.248443
94.001586,162.248444
93.812180,162.344951
93.640205,162.469898
93.640202,162.469900
93.489900,162.620202
93.489898,162.620205
93.364949,162.792183
93.362265,162.797451
93.313516,162.849065
93.244600,162.866129
93.177399,162.843226
93.137735,162.797451
93.135050,162.792183
93.135048,162.792180
93.010104,162.620208
93.010101,162.620205
93.010099,162.620202
92.859797,162.469900
92.859794,162.469898
92.859792,162.469896
92.687816,162.344949
92.498412,162.248443
92.296243,162.182754
92.086287,162.149500
91.873713,162.149500
91.663757,162.182754
91.663754,162.182754
91.663753,162.182755
91.461588,162.248443
91.461586,162.248444
91.272180,162.344951
91.100205,162.469898
91.100202,162.469900
90.949900,162.620202
90.949898,162.620205
90.824949,162.792183
90.822265,162.797451
90.773516,162.849065
90.704600,162.866129
90.637399,162.843226
90.597735,162.797451
90.595050,162.792183
90.595048,162.792180
90.470104,162.620208
90.470101,162.620205
90.470099,162.620202
90.319797,162.469900
90.319794,162.469898
90.319792,162.469896
90.147816,162.344949
89.958412,162.248443
89.756243,162.182754
89.546287,162.149500
89.333713,162.149500
89.123757,162.182754
89.123754,162.182754
89.123753,162.182755
88.921588,162.248443
88.921586,162.248444
88.732180,162.344951
88.560205,162.469898
88.560202,162.469900
88.409900,162.620202
88.409898,162.620205
88.284949,162.792183
88.282265,162.797451
88.233516,162.849065
88.164600,162.866129
88.097399,162.843226
88.057735,162.797451
88.055050,162.792183
88.055048,162.792180
87.930104,162.620208
87.930101,162.620205
87.930099,162.620202
87.779797,162.469900
87.779794,162.469898
87.779792,162.469896
87.607816,162.344949
87.418412,162.248443
87.216243,162.182754
87.006287,162.149500
86.793713,162.149500
86.583757,162.182754
86.583754,162.182754
86.583753,162.182755
86.381588,162.248443
86.381586,162.248444
86.192180,162.344951
86.020205,162.469898
86.020202,162.469900
85.869900,162.620202
85.869898,162.620205
85.744949,162.792183
85.742265,162.797451
85.693516,162.849065
85.624600,162.866129
85.557399,162.843226
85.517735,162.797451
85.515050,162.792183
85.515048,162.792180
85.390104,162.620208
85.390101,162.620205
85.390099,162.620202
85.239797,162.469900
85.239794,162.469898
85.239792,162.469896
85.067816,162.344949
84.878412,162.248443
84.676243,162.182754
84.466287,162.149500
84.253713,162.149500
84.043757,162.182754
84.043754,162.182754
84.043753,162.182755
83.841588,162.248443
83.841586,162.248444
83.652180,162.344951
83.480205,162.469898
83.480202,162.469900
83.329900,162.620202
83.329898,162.620205
83.204949,162.792183
83.202265,162.797451
83.153516,162.849065
83.084600,162.866129
83.017399,162.843226
82.977735,162.797451
82.975050,162.792183
82.975048,162.792180
82.850104,162.620208
82.850101,162.620205
82.850099,162.620202
82.699797,162.469900
82.699794,162.469898
82.699792,162.469896
82.527816,162.344949
82.338412,162.248443
82.136243,162.182754
81.926287,162.149500
81.713713,162.149500
81.503757,162.182754
81.503754,162.182754
81.503753,162.182755
81.301588,162.248443
81.301586,162.248444
81.112180,162.344951
80.940205,162.469898
80.940202,162.469900
80.789900,162.620202
80.789898,162.620205
80.664949,162.792183
80.662265,162.797451
80.613516,162.849065
80.544600,162.866129
80.477399,162.843226
80.437735,162.797451
80.435050,162.792183
80.435048,162.792180
80.310104,162.620208
80.310101,162.620205
80.310099,162.620202
80.159797,162.469900
80.159794,162.469898
80.159792,162.469896
79.987816,162.344949
79.798412,162.248443
79.596243,162.182754
79.386287,162.149500
79.173713,162.149500
78.963757,162.182754
78.963754,162.182754
78.963753,162.182755
78.761588,162.248443
78.761586,162.248444
78.572180,162.344951
78.400205,162.469898
78.400202,162.469900
78.249900,162.620202
78.249898,162.620205
78.124949,162.792183
78.122265,162.797451
78.073516,162.849065
78.004600,162.866129
77.937399,162.843226
77.897735,162.797451
77.895050,162.792183
77.895048,162.792180
77.770104,162.620208
77.770101,162.620205
77.770099,162.620202
77.619797,162.469900
77.619794,162.469898
77.619792,162.469896
77.447816,162.344949
77.258412,162.248443
77.056243,162.182754
76.846287,162.149500
76.633713,162.149500
76.423757,162.182754
76.423754,162.182754
76.423753,162.182755
76.221588,162.248443
76.221586,162.248444
76.032180,162.344951
75.860205,162.469898
75.860202,162.469900
75.709900,162.620202
75.709898,162.620205
75.584949,162.792183
75.582265,162.797451
75.533516,162.849065
75.464600,162.866129
75.397399,162.843226
75.357735,162.797451
75.355050,162.792183
75.355048,162.792180
75.230104,162.620208
75.230101,162.620205
75.230099,162.620202
75.079797,162.469900
75.079794,162.469898
75.079792,162.469896
74.907816,162.344949
74.718412,162.248443
74.516243,162.182754
74.306287,162.149500
74.093713,162.149500
73.883757,162.182754
73.883754,162.182754
73.883753,162.182755
73.681588,162.248443
73.681586,162.248444
73.492180,162.344951
73.320205,162.469898
73.320202,162.469900
73.169900,162.620202
73.169898,162.620205
73.044949,162.792183
73.042265,162.797451
72.993516,162.849065
72.924600,162.866129
72.857399,162.843226
72.817735,162.797451
72.815050,162.792183
72.815048,162.792180
72.690104,162.620208
72.690101,162.620205
72.690099,162.620202
72.539797,162.469900
72.539794,162.469898
72.539792,162.469896
72.367816,162.344949
72.178412,162.248443
71.976243,162.182754
71.766287,162.149500
71.553713,162.149500
71.343757,162.182754
71.343754,162.182754
71.343753,162.182755
71.141588,162.248443
71.141586,162.248444
70.952180,162.344951
70.780205,162.469898
70.780202,162.469900
70.629900,162.620202
70.629898,162.620205
70.504949,162.792183
70.502265,162.797451
70.453516,162.849065
70.384600,162.866129
70.317399,162.843226
70.277735,162.797451
70.275050,162.792183
70.275048,162.792180
70.150104,162.620208
70.150101,162.620205
70.150099,162.620202
69.999797,162.469900
69.999794,162.469898
69.999792,162.469896
69.827816,162.344949
69.638412,162.248443
69.436243,162.182754
69.226287,162.149500
69.013713,162.149500
68.803757,162.182754
68.803754,162.182754
68.803753,162.182755
68.601588,162.248443
68.601586,162.248444
68.412180,162.344951
68.240205,162.469898
68.240202,162.469900
68.089900,162.620202
68.089898,162.620205
67.964949,162.792183
67.962265,162.797451
67.913516,162.849065
67.844600,162.866129
67.777399,162.843226
67.737735,162.797451
67.735050,162.792183
67.735048,162.792180
67.610104,162.620208
67.610101,162.620205
67.610099,162.620202
67.459797,162.469900
67.459794,162.469898
67.459792,162.469896
67.287816,162.344949
67.098412,162.248443
66.896243,162.182754
66.686287,162.149500
66.473713,162.149500
66.263757,162.182754
66.263754,162.182754
66.263753,162.182755
66.061588,162.248443
66.061586,162.248444
65.872180,162.344951
65.700205,162.469898
65.700202,162.469900
65.549900,162.620202
65.549898,162.620205
65.424949,162.792183
65.422265,162.797451
65.373516,162.849065
65.304600,162.866129
65.237399,162.843226
65.197735,162.797451
65.195050,162.792183
65.195048,162.792180
65.070104,162.620208
65.070101,162.620205
65.070099,162.620202
64.919797,162.469900
64.919794,162.469898
64.919792,162.469896
64.747816,162.344949
64.558412,162.248443
64.356243,162.182754
64.146287,162.149500
63.933713,162.149500
63.723757,162.182754
63.723754,162.182754
63.723753,162.182755
63.521588,162.248443
63.521586,162.248444
63.332180,162.344951
63.160207,162.469896
63.048873,162.581230
62.986561,162.615255
62.915745,162.610189
62.858909,162.567643
62.841722,162.536165
62.793798,162.407673
62.793796,162.407670
62.793796,162.407669
62.746844,162.344949
62.707546,162.292453
62.630591,162.234845
62.592331,162.206204
62.592329,162.206203
62.592326,162.206201
62.457483,162.155909
62.457486,162.155909
62.397878,162.149500
60.626500,162.149500
60.558379,162.129498
60.511886,162.075842
60.500500,162.023500
60.500500,157.316929
91.660001,157.316929
91.660001,157.483070
91.689215,157.629938
91.692412,157.646011
91.755989,157.799500
91.782860,157.839715
91.848288,157.937635
91.848293,157.937641
91.965759,158.055107
91.965765,158.055112
92.103901,158.147412
92.257390,158.210989
92.319490,158.223340
92.382398,158.256245
92.383947,158.257767
92.772191,158.646011
93.062915,158.936735
93.075117,158.944888
93.075118,158.944889
93.125603,158.978622
93.176090,159.012356
93.301844,159.064445
93.435343,159.091000
93.435344,159.091000
93.571458,159.091000
95.227852,159.091000
95.295973,159.111002
95.297854,159.112235
95.350500,159.147412
95.503989,159.210989
95.666932,159.243400
95.666933,159.243400
95.833067,159.243400
95.833068,159.243400
95.996011,159.210989
96.149500,159.147412
96.287636,159.055112
96.405112,158.937636
96.497412,158.799500
96.560989,158.646011
96.593400,158.483068
96.593400,158.316932
96.560989,158.153989
96.497412,158.000500
96.405112,157.862364
96.405107,157.862358
96.287641,157.744892
96.287635,157.744887
96.203991,157.688998
96.149500,157.652588
95.996011,157.589011
95.833070,157.556600
95.833068,157.556600
95.666932,157.556600
95.666929,157.556600
95.503988,157.589011
95.503983,157.589013
95.350499,157.652588
95.297854,157.687765
95.230101,157.708980
95.227852,157.709000
93.841812,157.709000
93.773691,157.688998
93.752717,157.672095
93.361225,157.280603
93.327199,157.218291
93.326766,157.216213
93.314390,157.153989
93.250813,157.000500
93.158513,156.862364
93.158508,156.862358
93.041042,156.744892
93.041036,156.744887
92.995200,156.714260
92.902901,156.652588
92.749412,156.589011
92.586471,156.556600
92.586469,156.556600
92.420333,156.556600
92.420330,156.556600
92.257389,156.589011
92.257384,156.589013
92.103901,156.652588
91.965765,156.744887
91.965759,156.744892
91.848293,156.862358
91.848288,156.862364
91.755989,157.000500
91.692414,157.153983
91.692412,157.153988
91.660001,157.316929
60.500500,157.316929
60.500500,141.353713
61.109500,141.353713
61.109500,141.566287
61.142754,141.776243
61.208443,141.978412
61.304949,142.167816
61.429896,142.339792
61.429898,142.339794
61.429900,142.339797
61.580202,142.490099
61.580205,142.490101
61.580208,142.490104
61.752184,142.615051
61.755317,142.616647
61.757451,142.617735
61.809065,142.666484
61.826129,142.735400
61.803226,142.802601
61.757451,142.842265
61.752183,142.844949
61.580205,142.969898
61.580202,142.969900
61.429900,143.120202
61.429898,143.120205
61.304951,143.292180
61.304949,143.292184
61.208443,143.481588
61.142754,143.683757
61.109500,143.893713
61.109500,144.106287
61.142754,144.316243
61.208443,144.518412
61.304949,144.707816
61.429896,144.879792
61.429898,144.879794
61.429900,144.879797
61.580202,145.030099
61.580205,145.030101
61.580208,145.030104
61.752184,145.155051
61.755317,145.156647
61.757451,145.157735
61.809065,145.206484
61.826129,145.275400
61.803226,145.342601
61.757451,145.382265
61.752183,145.384949
61.580205,145.509898
61.580202,145.509900
61.429900,145.660202
61.429898,145.660205
61.304951,145.832180
61.304949,145.832184
61.208443,146.021588
61.142754,146.223757
61.109500,146.433713
61.109500,146.646287
61.142754,146.856243
61.208443,147.058412
61.304949,147.247816
61.429896,147.419792
61.429898,147.419794
61.429900,147.419797
61.580202,147.570099
61.580205,147.570101
61.580208,147.570104
61.752184,147.695051
61.755317,147.696647
61.757451,147.697735
61.809065,147.746484
61.826129,147.815400
61.803226,147.882601
61.757451,147.922265
61.752183,147.924949
61.580205,148.049898
61.580202,148.049900
61.429900,148.200202
61.429898,148.200205
61.304951,148.372180
61.208444,148.561586
61.208443,148.561588
61.184602,148.634964
61.142754,148.763757
61.109500,148.973713
61.109500,149.186287
61.142754,149.396243
61.208443,149.598412
61.304949,149.787816
61.429896,149.959792
61.429898,149.959794
61.429900,149.959797
61.580202,150.110099
61.580205,150.110101
61.580208,150.110104
61.752184,150.235051
61.755317,150.236647
61.757451,150.237735
61.809065,150.286484
61.826129,150.355400
61.803226,150.422601
61.757451,150.462265
61.752183,150.464949
61.580205,150.589898
61.580202,150.589900
61.429900,150.740202
61.429898,150.740205
61.304951,150.912180
61.208444,151.101586
61.208443,151.101588
61.147871,151.288010
61.142754,151.303757
61.109500,151.513713
61.109500,151.726287
61.142754,151.936243
61.208443,152.138412
61.304949,152.327816
61.429896,152.499792
61.429898,152.499794
61.429900,152.499797
61.580202,152.650099
61.580205,152.650101
61.580208,152.650104
61.752184,152.775051
61.753517,152.775730
61.757451,152.777735
61.809065,152.826484
61.826129,152.895400
61.803226,152.962601
61.757451,153.002265
61.752183,153.004949
61.580205,153.129898
61.580202,153.129900
61.429900,153.280202
61.429898,153.280205
61.304951,153.452180
61.208444,153.641586
61.208443,153.641588
61.159015,153.793712
61.142754,153.843757
61.109500,154.053713
61.109500,154.266287
61.142754,154.476243
61.208443,154.678412
61.304949,154.867816
61.429896,155.039792
61.429898,155.039794
61.429900,155.039797
61.580202,155.190099
61.580205,155.190101
61.580208,155.190104
61.752184,155.315051
61.941588,155.411557
62.143757,155.477246
62.353713,155.510500
62.353716,155.510500
62.566284,155.510500
62.566287,155.510500
62.776243,155.477246
62.978412,155.411557
63.167816,155.315051
63.339792,155.190104
63.451127,155.078768
63.513437,155.044745
63.584253,155.049809
63.641089,155.092356
63.658277,155.123833
63.706202,155.252328
63.706203,155.252329
63.792453,155.367546
63.850061,155.410671
63.907669,155.453796
63.907671,155.453796
63.907673,155.453798
63.968030,155.476309
64.042514,155.504090
64.042517,155.504091
64.102127,155.510500
65.897872,155.510499
65.957483,155.504091
66.092331,155.453796
66.207546,155.367546
66.293796,155.252331
66.344091,155.117483
66.350500,155.057873
66.350499,153.262128
66.344091,153.202517
66.316808,153.129368
66.293798,153.067673
66.293796,153.067670
66.293796,153.067669
66.241005,152.997149
66.207546,152.952453
66.116913,152.884606
66.092331,152.866204
66.092329,152.866203
66.092328,152.866202
65.963833,152.818277
65.906997,152.775730
65.882186,152.709210
65.897277,152.639836
65.918767,152.611128
66.030104,152.499792
66.155051,152.327816
66.251557,152.138412
66.317246,151.936243
66.350500,151.726287
66.350500,151.513713
66.335171,151.416929
77.056600,151.416929
77.056600,151.416932
77.056600,151.583068
77.089011,151.746011
77.152588,151.899500
77.177139,151.936243
77.244887,152.037635
77.244892,152.037641
77.362358,152.155107
77.362364,152.155112
77.500500,152.247412
77.653989,152.310989
77.816932,152.343400
77.816933,152.343400
77.983067,152.343400
77.983068,152.343400
78.146011,152.310989
78.299500,152.247412
78.352146,152.212235
78.419899,152.191020
78.422148,152.191000
79.783256,152.191000
79.851377,152.211002
79.872351,152.227904
80.320436,152.675988
80.354461,152.738301
80.354920,152.740501
80.357602,152.753983
80.367603,152.804261
80.431180,152.957750
80.489435,153.044934
80.523479,153.095885
80.523484,153.095891
80.640950,153.213357
80.640956,153.213362
80.779092,153.305662
80.932581,153.369239
81.095524,153.401650
81.095525,153.401650
81.261659,153.401650
81.261660,153.401650
81.424603,153.369239
81.578092,153.305662
81.716228,153.213362
81.754485,153.175105
81.762558,153.170696
81.768072,153.163331
81.793231,153.153947
81.816796,153.141079
81.825971,153.141735
81.834592,153.138520
81.860831,153.144227
81.887612,153.146143
81.896810,153.152054
81.903966,153.153611
81.932676,153.175104
81.945129,153.187557
81.979155,153.249869
81.979613,153.301233
81.956600,153.416926
81.956600,153.583070
81.982045,153.710989
81.989011,153.746011
82.052588,153.899500
82.114260,153.991799
82.144887,154.037635
82.144892,154.037641
82.262358,154.155107
82.262364,154.155112
82.400500,154.247412
82.553989,154.310989
82.716932,154.343400
82.716933,154.343400
82.883067,154.343400
82.883068,154.343400
83.046011,154.310989
83.199500,154.247412
83.337636,154.155112
83.455112,154.037636
83.547412,153.899500
83.610989,153.746011
83.643400,153.583068
83.643400,153.416932
83.610989,153.253989
83.547412,153.100500
83.510283,153.044933
83.491471,152.999515
83.482990,152.956884
83.464445,152.863650
83.412356,152.737896
83.353695,152.650104
83.336735,152.624721
83.336469,152.624455
83.332885,152.619118
83.323944,152.590800
83.312333,152.563463
83.313381,152.557338
83.311511,152.551415
83.319300,152.522757
83.324311,152.493484
83.328503,152.488899
83.330133,152.482904
83.352182,152.463004
83.372221,152.441090
83.378225,152.439499
83.382838,152.435337
83.412144,152.430517
83.440852,152.422915
83.446764,152.424824
83.452894,152.423816
83.480150,152.435604
83.508414,152.444730
83.516241,152.451212
83.518057,152.451998
83.520623,152.454842
83.526580,152.459775
84.550519,153.483714
84.584545,153.546026
84.587424,153.572809
84.587424,153.583070
84.612869,153.710989
84.619835,153.746011
84.683412,153.899500
84.745084,153.991799
84.775711,154.037635
84.775716,154.037641
84.893182,154.155107
84.893188,154.155112
85.031324,154.247412
85.184813,154.310989
85.347756,154.343400
85.347757,154.343400
85.513891,154.343400
85.513892,154.343400
85.676835,154.310989
85.830324,154.247412
85.968460,154.155112
86.085936,154.037636
86.178236,153.899500
86.241813,153.746011
86.274224,153.583068
86.274224,153.416932
86.241813,153.253989
86.178236,153.100500
86.099001,152.981917
86.077786,152.914164
86.096569,152.845697
86.149386,152.798254
86.219469,152.786897
86.284566,152.815233
86.292861,152.822820
86.997522,153.527481
87.031548,153.589793
87.032006,153.591994
87.055676,153.710989
87.062642,153.746011
87.126219,153.899500
87.187891,153.991799
87.218518,154.037635
87.218523,154.037641
87.335989,154.155107
87.335995,154.155112
87.474131,154.247412
87.627620,154.310989
87.790563,154.343400
87.790564,154.343400
87.956698,154.343400
87.956699,154.343400
88.119642,154.310989
88.273131,154.247412
88.411267,154.155112
88.528743,154.037636
88.621043,153.899500
88.684620,153.746011
88.717031,153.583068
88.717031,153.416932
88.684620,153.253989
88.621043,153.100500
88.528743,152.962364
88.528738,152.962358
88.411272,152.844892
88.411266,152.844887
88.350379,152.804204
88.273131,152.752588
88.195717,152.720522
88.132303,152.694255
88.091426,152.666941
85.784014,150.359529
87.056600,150.359529
87.056600,150.525670
87.089011,150.688611
87.089013,150.688616
87.098322,150.711091
87.152588,150.842100
87.154454,150.844892
87.244887,150.980235
87.244892,150.980241
87.362358,151.097707
87.362364,151.097712
87.500500,151.190012
87.653989,151.253589
87.653992,151.253589
87.659913,151.255386
87.659544,151.256600
87.716573,151.286423
87.718188,151.288010
89.595874,153.165696
89.629900,153.228008
89.630357,153.230207
89.642711,153.292311
89.706288,153.445800
89.756281,153.520619
89.798587,153.583935
89.798592,153.583941
89.916058,153.701407
89.916064,153.701412
90.054200,153.793712
90.207689,153.857289
90.370632,153.889700
90.370633,153.889700
90.536767,153.889700
90.536768,153.889700
90.699711,153.857289
90.853200,153.793712
90.991336,153.701412
91.108812,153.583936
91.201112,153.445800
91.264689,153.292311
91.297100,153.129368
91.297100,152.963232
91.297099,152.963226
91.291549,152.935323
91.287890,152.916929
116.556600,152.916929
116.556600,153.083070
116.574030,153.170696
116.589011,153.246011
116.652588,153.399500
116.683524,153.445799
116.744887,153.537635
116.744892,153.537641
116.862358,153.655107
116.862364,153.655112
117.000500,153.747412
117.153989,153.810989
117.316932,153.843400
117.316933,153.843400
117.483067,153.843400
117.483068,153.843400
117.646011,153.810989
117.799500,153.747412
117.852146,153.712235
117.919899,153.691020
117.922148,153.691000
125.380668,153.691000
125.428885,153.700590
125.453989,153.710989
125.616932,153.743400
125.616933,153.743400
125.783067,153.743400
125.783068,153.743400
125.946011,153.710989
126.099500,153.647412
126.237636,153.555112
126.355112,153.437636
126.447412,153.299500
126.510989,153.146011
126.543400,152.983068
126.543400,152.816932
126.510989,152.653989
126.447412,152.500500
126.355112,152.362364
126.355107,152.362358
126.237641,152.244892
126.237635,152.244887
126.156987,152.191000
126.099500,152.152588
125.946011,152.089011
125.783070,152.056600
125.783068,152.056600
125.616932,152.056600
125.616929,152.056600
125.453988,152.089011
125.453983,152.089013
125.300500,152.152588
125.162364,152.244887
125.162358,152.244892
125.135156,152.272095
125.072844,152.306121
125.046061,152.309000
117.922148,152.309000
117.854027,152.288998
117.852146,152.287765
117.799500,152.252588
117.646016,152.189013
117.646011,152.189011
117.483070,152.156600
117.483068,152.156600
117.316932,152.156600
117.316929,152.156600
117.153988,152.189011
117.153983,152.189013
117.000500,152.252588
116.862364,152.344887
116.862358,152.344892
116.744892,152.462358
116.744887,152.462364
116.652588,152.600500
116.589013,152.753983
116.589011,152.753988
116.556600,152.916929
91.287890,152.916929
91.273932,152.846757
91.264689,152.800289
91.201112,152.646800
91.108812,152.508664
91.108807,152.508658
90.991341,152.391192
90.991335,152.391187
90.922049,152.344892
90.853200,152.298888
90.699711,152.235311
90.637607,152.222957
90.574699,152.190050
90.573096,152.188474
88.770239,150.385617
88.736213,150.323305
88.735755,150.321102
88.728869,150.286484
88.710989,150.196589
88.647412,150.043100
88.555112,149.904964
88.555107,149.904958
88.437641,149.787492
88.437635,149.787487
88.391799,149.756860
88.299500,149.695188
88.146011,149.631611
87.983070,149.599200
87.983068,149.599200
87.816932,149.599200
87.816929,149.599200
87.653988,149.631611
87.653983,149.631613
87.500500,149.695188
87.362364,149.787487
87.362358,149.787492
87.244892,149.904958
87.244887,149.904964
87.152588,150.043100
87.089013,150.196583
87.089011,150.196588
87.056600,150.359529
85.784014,150.359529
84.653017,149.228532
84.618991,149.166220
84.616112,149.139437
84.616112,149.068315
84.616111,149.068311
84.583701,148.905371
84.520124,148.751882
84.427824,148.613746
84.427819,148.613740
84.310353,148.496274
84.310347,148.496269
84.209769,148.429065
84.172212,148.403970
84.018723,148.340393
83.970752,148.330851
83.855782,148.307982
83.855780,148.307982
83.689644,148.307982
83.689641,148.307982
83.526700,148.340393
83.526695,148.340395
83.373212,148.403970
83.235076,148.496269
83.235070,148.496274
83.117604,148.613740
83.117599,148.613746
83.025300,148.751882
82.961725,148.905365
82.961723,148.905370
82.929312,149.068311
82.929312,149.068314
82.929312,149.234450
82.961723,149.397393
83.025300,149.550882
83.079242,149.631611
83.117599,149.689017
83.117604,149.689023
83.235070,149.806489
83.235076,149.806494
83.349705,149.883087
83.368798,149.898757
86.108003,152.637962
86.117168,152.654746
86.130467,152.668487
86.133829,152.685257
86.142029,152.700274
86.140664,152.719351
86.144423,152.738098
86.138184,152.754024
86.136964,152.771089
86.125503,152.786398
86.118529,152.804204
86.104668,152.814230
86.094417,152.827925
86.076499,152.834607
86.061006,152.845816
86.043926,152.846757
86.027897,152.852736
86.009208,152.848670
85.990117,152.849723
85.966111,152.839295
85.958523,152.837645
85.956724,152.836643
85.952721,152.834371
85.830324,152.752588
85.749857,152.719257
85.743081,152.715412
85.736207,152.708309
85.716170,152.694921
82.582837,149.561588
82.548811,149.499276
82.553876,149.428461
82.555525,149.424271
82.557870,149.418611
82.590281,149.255668
82.590281,149.089532
82.557870,148.926589
82.494293,148.773100
82.401993,148.634964
82.401988,148.634958
82.284522,148.517492
82.284516,148.517487
82.177721,148.446129
82.146381,148.425188
82.018408,148.372180
81.992895,148.361612
81.992886,148.361609
81.939670,148.351023
81.876761,148.318115
81.841631,148.256419
81.838254,148.227445
81.838254,148.198107
81.838253,148.198103
81.808774,148.049900
81.805843,148.035163
81.742266,147.881674
81.649966,147.743538
81.649961,147.743532
81.532495,147.626066
81.532489,147.626061
81.448743,147.570104
81.394354,147.533762
81.240865,147.470185
81.077924,147.437774
81.077922,147.437774
80.911786,147.437774
80.911783,147.437774
80.748842,147.470185
80.748837,147.470187
80.595354,147.533762
80.457218,147.626061
80.457212,147.626066
80.339746,147.743532
80.339741,147.743538
80.247442,147.881674
80.183867,148.035157
80.183865,148.035162
80.151454,148.198103
80.151454,148.326573
80.149033,148.351155
80.144866,148.372101
80.144866,150.683000
80.124864,150.751121
80.071208,150.797614
80.018866,150.809000
78.422148,150.809000
78.354027,150.788998
78.352146,150.787765
78.299500,150.752588
78.146016,150.689013
78.146011,150.689011
77.983070,150.656600
77.983068,150.656600
77.816932,150.656600
77.816929,150.656600
77.653988,150.689011
77.653983,150.689013
77.500500,150.752588
77.362364,150.844887
77.362358,150.844892
77.244892,150.962358
77.244887,150.962364
77.152588,151.100500
77.089013,151.253983
77.089011,151.253988
77.056600,151.416929
66.335171,151.416929
66.317246,151.303757
66.251557,151.101588
66.155051,150.912184
66.030104,150.740208
66.030101,150.740205
66.030099,150.740202
65.879797,150.589900
65.879794,150.589898
65.879792,150.589896
65.707816,150.464949
65.702551,150.462266
65.650937,150.413520
65.633870,150.344606
65.656770,150.277404
65.702551,150.237733
65.707816,150.235051
65.879792,150.110104
66.030104,149.959792
66.155051,149.787816
66.251557,149.598412
66.317246,149.396243
66.350500,149.186287
66.350500,148.973713
66.317246,148.763757
66.251557,148.561588
66.155051,148.372184
66.030104,148.200208
66.030101,148.200205
66.030099,148.200202
65.879797,148.049900
65.879794,148.049898
65.879792,148.049896
65.707816,147.924949
65.702551,147.922266
65.650937,147.873520
65.633870,147.804606
65.656770,147.737404
65.702551,147.697733
65.707816,147.695051
65.879792,147.570104
66.030104,147.419792
66.155051,147.247816
66.251557,147.058412
66.317246,146.856243
66.350500,146.646287
66.350500,146.433713
66.317246,146.223757
66.251557,146.021588
66.155051,145.832184
66.030104,145.660208
66.030101,145.660205
66.030099,145.660202
65.879797,145.509900
65.879794,145.509898
65.879792,145.509896
65.707816,145.384949
65.702551,145.382266
65.650937,145.333520
65.633870,145.264606
65.656770,145.197404
65.702551,145.157733
65.707816,145.155051
65.879792,145.030104
66.030104,144.879792
66.155051,144.707816
66.251557,144.518412
66.317246,144.316243
66.350500,144.106287
66.350500,143.893713
66.317246,143.683757
66.251557,143.481588
66.155051,143.292184
66.030104,143.120208
66.030101,143.120205
66.030099,143.120202
65.879797,142.969900
65.879794,142.969898
65.879792,142.969896
65.707816,142.844949
65.702551,142.842266
65.650937,142.793520
65.633870,142.724606
65.656770,142.657404
65.702551,142.617733
65.707816,142.615051
65.879792,142.490104
66.030104,142.339792
66.155051,142.167816
66.251557,141.978412
66.317246,141.776243
66.350500,141.566287
66.350500,141.353713
66.317246,141.143757
66.251557,140.941588
66.155051,140.752184
66.030104,140.580208
66.030101,140.580205
66.030099,140.580202
65.879797,140.429900
65.879794,140.429898
65.879792,140.429896
65.707816,140.304949
65.518412,140.208443
65.316243,140.142754
65.106287,140.109500
64.893713,140.109500
64.683757,140.142754
64.683754,140.142754
64.683753,140.142755
64.481588,140.208443
64.481586,140.208444
64.292180,140.304951
64.120205,140.429898
64.120202,140.429900
63.969900,140.580202
63.969898,140.580205
63.844949,140.752183
63.842265,140.757451
63.793516,140.809065
63.724600,140.826129
63.657399,140.803226
63.617735,140.757451
63.615050,140.752183
63.615048,140.752180
63.490104,140.580208
63.490101,140.580205
63.490099,140.580202
63.339797,140.429900
63.339794,140.429898
63.339792,140.429896
63.167816,140.304949
62.978412,140.208443
62.776243,140.142754
62.566287,140.109500
62.353713,140.109500
62.143757,140.142754
62.143754,140.142754
62.143753,140.142755
61.941588,140.208443
61.941586,140.208444
61.752180,140.304951
61.580205,140.429898
61.580202,140.429900
61.429900,140.580202
61.429898,140.580205
61.304951,140.752180
61.304949,140.752184
61.208443,140.941588
61.142754,141.143757
61.109500,141.353713
60.500500,141.353713
60.500500,131.760709
63.181500,131.760709
63.181500,132.003290
63.213160,132.243782
63.275944,132.478095
63.275945,132.478097
63.275946,132.478100
63.368776,132.702212
63.368777,132.702213
63.368782,132.702224
63.490061,132.912285
63.490063,132.912288
63.490064,132.912289
63.637735,133.104738
63.637739,133.104742
63.637744,133.104748
63.809251,133.276255
63.809256,133.276259
63.809262,133.276265
64.001711,133.423936
64.001714,133.423938
64.211775,133.545217
64.211779,133.545218
64.211788,133.545224
64.435900,133.638054
64.670211,133.700838
64.670215,133.700838
64.670217,133.700839
64.732202,133.708999
64.910712,133.732500
64.910719,133.732500
65.153281,133.732500
65.153288,133.732500
65.370637,133.703885
65.393782,133.700839
65.393782,133.700838
65.393789,133.700838
65.628100,133.638054
65.852212,133.545224
66.062289,133.423936
66.254738,133.276265
66.426265,133.104738
66.573936,132.912289
66.695224,132.702212
66.788054,132.478100
66.850838,132.243789
66.882500,132.003288
66.882500,131.760712
66.853822,131.542878
66.850839,131.520217
66.850838,131.520215
66.850838,131.520211
66.788054,131.285900
66.695224,131.061788
66.695218,131.061779
66.695217,131.061775
66.573938,130.851714
66.567317,130.843085
66.426265,130.659262
66.426259,130.659256
66.426255,130.659251
66.254748,130.487744
66.254742,130.487739
66.254738,130.487735
66.062289,130.340064
66.062288,130.340063
66.062285,130.340061
65.852224,130.218782
65.852216,130.218778
65.852212,130.218776
65.628100,130.125946
65.628097,130.125945
65.628095,130.125944
65.393782,130.063160
65.153290,130.031500
65.153288,130.031500
64.910712,130.031500
64.910709,130.031500
64.670217,130.063160
64.435904,130.125944
64.435900,130.125946
64.276101,130.192137
64.211786,130.218777
64.211775,130.218782
64.001714,130.340061
63.809262,130.487735
63.809251,130.487744
63.637744,130.659251
63.637735,130.659262
63.490061,130.851714
63.368782,131.061775
63.368777,131.061786
63.275946,131.285900
63.275944,131.285904
63.213160,131.520217
63.181500,131.760709
60.500500,131.760709
60.500500,130.259504
60.520502,130.191383
60.537405,130.170409
63.560693,127.147121
146.818500,127.147121
146.818500,129.042864
146.818502,129.042885
146.824908,129.102480
146.824908,129.102481
146.875203,129.237330
146.899278,129.269491
146.924089,129.336011
146.908998,129.405385
146.899278,129.420509
146.875203,129.452669
146.824909,129.587515
146.818500,129.647121
146.818500,131.542864
146.818502,131.542885
146.824908,131.602480
146.824908,131.602481
146.875201,131.737326
146.875203,131.737329
146.961453,131.852546
147.019061,131.895671
147.076669,131.938796
147.076671,131.938796
147.076673,131.938798
147.137030,131.961309
147.211514,131.989090
147.211517,131.989091
147.271127,131.995500
149.866872,131.995499
149.926483,131.989091
150.061331,131.938796
150.176546,131.852546
150.262796,131.737331
150.313091,131.602483
150.319500,131.542873
150.319499,130.511230
152.718500,130.511230
152.718500,130.678769
152.751185,130.843085
152.769964,130.888420
152.815297,130.997863
152.861835,131.067512
152.908373,131.137161
152.908378,131.137167
153.026832,131.255621
153.026838,131.255626
153.166137,131.348703
153.320918,131.412816
153.485233,131.445500
153.485234,131.445500
153.652766,131.445500
153.652767,131.445500
153.817082,131.412816
153.971863,131.348703
154.111162,131.255626
154.229626,131.137162
154.322703,130.997863
154.386816,130.843082
154.419500,130.678767
154.419500,130.511233
154.419499,130.511230
155.218500,130.511230
155.218500,130.678769
155.251185,130.843085
155.269964,130.888420
155.315297,130.997863
155.361835,131.067512
155.408373,131.137161
155.408378,131.137167
155.526832,131.255621
155.526838,131.255626
155.666137,131.348703
155.820918,131.412816
155.985233,131.445500
155.985234,131.445500
156.152766,131.445500
156.152767,131.445500
156.317082,131.412816
156.471863,131.348703
156.611162,131.255626
156.729626,131.137162
156.822703,130.997863
156.886816,130.843082
156.919500,130.678767
156.919500,130.511233
156.886816,130.346918
156.822703,130.192137
156.729626,130.052838
156.729621,130.052832
156.611167,129.934378
156.611161,129.934373
156.471864,129.841298
156.471865,129.841298
156.471863,129.841297
156.317845,129.777500
156.317085,129.777185
156.317083,129.777184
156.317082,129.777184
156.234368,129.760731
156.152769,129.744500
156.152767,129.744500
155.985233,129.744500
155.985230,129.744500
155.862830,129.768847
155.820918,129.777184
155.820917,129.777184
155.820914,129.777185
155.666135,129.841298
155.526838,129.934373
155.526832,129.934378
155.408378,130.052832
155.408373,130.052838
155.315298,130.192135
155.315297,130.192137
155.304263,130.218776
155.251185,130.346914
155.218500,130.511230
154.419499,130.511230
154.386816,130.346918
154.322703,130.192137
154.229626,130.052838
154.229621,130.052832
154.111167,129.934378
154.111161,129.934373
153.971864,129.841298
153.971865,129.841298
153.971863,129.841297
153.817845,129.777500
153.817085,129.777185
153.817083,129.777184
153.817082,129.777184
153.734368,129.760731
153.652769,129.744500
153.652767,129.744500
153.485233,129.744500
153.485230,129.744500
153.362830,129.768847
153.320918,129.777184
153.320917,129.777184
153.320914,129.777185
153.166135,129.841298
153.026838,129.934373
153.026832,129.934378
152.908378,130.052832
152.908373,130.052838
152.815298,130.192135
152.815297,130.192137
152.804263,130.218776
152.751185,130.346914
152.718500,130.511230
150.319499,130.511230
150.319499,129.647128
150.313091,129.587517
150.262796,129.452669
150.238721,129.420509
150.213909,129.353992
150.228999,129.284618
150.238716,129.269497
150.262796,129.237331
150.313091,129.102483
150.319500,129.042873
150.319499,127.147128
150.313091,127.087517
150.291800,127.030435
150.262798,126.952673
150.262796,126.952670
150.262796,126.952669
150.218566,126.893585
150.176546,126.837453
150.099591,126.779845
150.061331,126.751204
150.061329,126.751203
150.061326,126.751201
149.926483,126.700909
149.926486,126.700909
149.866878,126.694500
147.271135,126.694500
147.271114,126.694502
147.211519,126.700908
147.211518,126.700908
147.076673,126.751201
147.076670,126.751203
146.961453,126.837453
146.875203,126.952670
146.875201,126.952673
146.824909,127.087515
146.818500,127.147121
63.560693,127.147121
65.196584,125.511230
147.718500,125.511230
147.718500,125.511233
147.718500,125.678767
147.751184,125.843082
147.815297,125.997863
147.815298,125.997864
147.908373,126.137161
147.908378,126.137167
148.026832,126.255621
148.026838,126.255626
148.166137,126.348703
148.294357,126.401814
148.320915,126.412815
148.320916,126.412815
148.320918,126.412816
148.485233,126.445500
148.652767,126.445500
148.817082,126.412816
148.971863,126.348703
149.111162,126.255626
149.229626,126.137162
149.322703,125.997863
149.386816,125.843082
149.419500,125.678767
149.419500,125.511233
149.386816,125.346918
149.322703,125.192137
149.229626,125.052838
149.229621,125.052832
149.111167,124.934378
149.111161,124.934373
149.018201,124.872259
148.971863,124.841297
148.817082,124.777184
148.724963,124.758860
148.667846,124.747499
148.667844,124.747499
148.652767,124.744500
148.485233,124.744500
148.470156,124.747499
148.470152,124.747499
148.372157,124.766991
148.320918,124.777184
148.320916,124.777184
148.320915,124.777185
148.166135,124.841298
148.026838,124.934373
148.026832,124.934378
147.908378,125.052832
147.908373,125.052838
147.815298,125.192135
147.751185,125.346914
147.718500,125.511230
65.196584,125.511230
71.060693,119.647121
146.818500,119.647121
146.818500,121.542864
146.818502,121.542885
146.824908,121.602480
146.824908,121.602481
146.875203,121.737330
146.899278,121.769491
146.924089,121.836011
146.908998,121.905385
146.899278,121.920509
146.875203,121.952669
146.824909,122.087515
146.818500,122.147121
146.818500,124.042864
146.818502,124.042885
146.824908,124.102480
146.824908,124.102481
146.875201,124.237326
146.875203,124.237329
146.961453,124.352546
147.019061,124.395671
147.076669,124.438796
147.076671,124.438796
147.076673,124.438798
147.137030,124.461309
147.211514,124.489090
147.211517,124.489091
147.271127,124.495500
149.866872,124.495499
149.926483,124.489091
150.061331,124.438796
150.176546,124.352546
150.218575,124.296402
152.161000,124.296402
152.161000,125.341000
153.169000,125.341000
153.169000,125.849000
152.161000,125.849000
152.161000,126.893597
152.167505,126.954093
152.218555,127.090964
152.218555,127.090965
152.306095,127.207904
152.423034,127.295444
152.559906,127.346494
152.620402,127.352999
152.620415,127.353000
153.315000,127.353000
153.315000,126.256686
153.323394,126.265080
153.414606,126.317741
153.516339,126.345000
153.621661,126.345000
153.723394,126.317741
153.814606,126.265080
153.823000,126.256686
153.823000,127.353000
154.517585,127.353000
154.517597,127.352999
154.578093,127.346494
154.714964,127.295444
154.714965,127.295444
154.831904,127.207904
154.919444,127.090965
154.919444,127.090964
154.970494,126.954093
154.976999,126.893597
154.977000,126.893585
154.977000,125.849000
153.969000,125.849000
153.969000,125.341000
154.977000,125.341000
154.977000,124.296414
154.976999,124.296402
154.970494,124.235906
154.919444,124.099035
154.919444,124.099034
154.831904,123.982095
154.714965,123.894555
154.578093,123.843505
154.517597,123.837000
153.823000,123.837000
153.823000,124.933314
153.814606,124.924920
153.723394,124.872259
153.621661,124.845000
153.516339,124.845000
153.414606,124.872259
153.323394,124.924920
153.315000,124.933314
153.315000,123.837000
152.620402,123.837000
152.559906,123.843505
152.423035,123.894555
152.423034,123.894555
152.306095,123.982095
152.218555,124.099034
152.218555,124.099035
152.167505,124.235906
152.161000,124.296402
150.218575,124.296402
150.262796,124.237331
150.313091,124.102483
150.319500,124.042873
150.319499,122.147128
150.313091,122.087517
150.262796,121.952669
150.238721,121.920509
150.213909,121.853992
150.228999,121.784618
150.238716,121.769497
150.262796,121.737331
150.313091,121.602483
150.319500,121.542873
150.319499,120.511230
152.718500,120.511230
152.718500,120.511233
152.718500,120.678767
152.751184,120.843082
152.815297,120.997863
152.815298,120.997864
152.908373,121.137161
152.908378,121.137167
153.026832,121.255621
153.026838,121.255626
153.166137,121.348703
153.320918,121.412816
153.485233,121.445500
153.485234,121.445500
153.652766,121.445500
153.652767,121.445500
153.817082,121.412816
153.971863,121.348703
154.111162,121.255626
154.229626,121.137162
154.322703,120.997863
154.386816,120.843082
154.419500,120.678767
154.419500,120.511233
154.419499,120.511230
155.218500,120.511230
155.218500,120.511233
155.218500,120.678767
155.251184,120.843082
155.315297,120.997863
155.315298,120.997864
155.408373,121.137161
155.408378,121.137167
155.526832,121.255621
155.526838,121.255626
155.666137,121.348703
155.820918,121.412816
155.985233,121.445500
155.985234,121.445500
156.152766,121.445500
156.152767,121.445500
156.317082,121.412816
156.471863,121.348703
156.611162,121.255626
156.729626,121.137162
156.822703,120.997863
156.886816,120.843082
156.919500,120.678767
156.919500,120.511233
156.886816,120.346918
156.822703,120.192137
156.729626,120.052838
156.729621,120.052832
156.611167,119.934378
156.611161,119.934373
156.471864,119.841298
156.471865,119.841298
156.471863,119.841297
156.358097,119.794173
156.317085,119.777185
156.317083,119.777184
156.317082,119.777184
156.234368,119.760731
156.152769,119.744500
156.152767,119.744500
155.985233,119.744500
155.985230,119.744500
155.862830,119.768847
155.820918,119.777184
155.820917,119.777184
155.820914,119.777185
155.666135,119.841298
155.526838,119.934373
155.526832,119.934378
155.408378,120.052832
155.408373,120.052838
155.315298,120.192135
155.251185,120.346914
155.218500,120.511230
154.419499,120.511230
154.386816,120.346918
154.322703,120.192137
154.229626,120.052838
154.229621,120.052832
154.111167,119.934378
154.111161,119.934373
153.971864,119.841298
153.971865,119.841298
153.971863,119.841297
153.858097,119.794173
153.817085,119.777185
153.817083,119.777184
153.817082,119.777184
153.734368,119.760731
153.652769,119.744500
153.652767,119.744500
153.485233,119.744500
153.485230,119.744500
153.362830,119.768847
153.320918,119.777184
153.320917,119.777184
153.320914,119.777185
153.166135,119.841298
153.026838,119.934373
153.026832,119.934378
152.908378,120.052832
152.908373,120.052838
152.815298,120.192135
152.751185,120.346914
152.718500,120.511230
150.319499,120.511230
150.319499,119.647128
150.313091,119.587517
150.291800,119.530435
150.262798,119.452673
150.262796,119.452670
150.262796,119.452669
150.219671,119.395061
150.176546,119.337453
150.083376,119.267707
150.061331,119.251204
150.061329,119.251203
150.061326,119.251201
149.926483,119.200909
149.926486,119.200909
149.866873,119.194500
147.271135,119.194500
147.271114,119.194502
147.211519,119.200908
147.211518,119.200908
147.076673,119.251201
147.076670,119.251203
146.961453,119.337453
146.875203,119.452670
146.875201,119.452673
146.824909,119.587515
146.818500,119.647121
71.060693,119.647121
75.170409,115.537405
75.232721,115.503379
75.259504,115.500500
154.434108,115.500500
154.497404,115.500500
Z" /> 
</g> 
</svg>
