<?xml version="1.0" standalone="no"?>
 <!DOCTYPE svg PUBLIC "-//W3C//DTD SVG 1.1//EN" 
 "http://www.w3.org/Graphics/SVG/1.1/DTD/svg11.dtd"> 
<svg
  xmlns:svg="http://www.w3.org/2000/svg"
  xmlns="http://www.w3.org/2000/svg"
  xmlns:xlink="http://www.w3.org/1999/xlink"
  version="1.1"
  width="10.215000000000002cm" height="5.215cm" viewBox="58.925 113.925 102.15 52.15">
<title>SVG Image created as rcbus-opl3-B_Cu.svg date 2025/10/11 13:11:51 </title>
  <desc>Image generated by PCBNEW </desc>
<g style="fill:#000000; fill-opacity:1.000000;stroke:#000000; stroke-opacity:1.000000;
stroke-linecap:round; stroke-linejoin:round;"
 transform="translate(0 0) scale(1 1)">
<path style="fill:#000000; fill-opacity:1.000000; stroke:none;fill-rule:evenodd;"
d="M 149.819000,129.695000
149.819000,131.495000
147.319000,131.495000
147.319000,129.695000
Z" /> 
<path style="fill:#000000; fill-opacity:1.000000; stroke:none;fill-rule:evenodd;"
d="M 149.819000,127.195000
149.819000,128.995000
147.319000,128.995000
147.319000,127.195000
Z" /> 
<path style="fill:#000000; fill-opacity:1.000000; stroke:none;fill-rule:evenodd;"
d="M 154.469000,124.345000
154.469000,126.845000
152.669000,126.845000
152.669000,124.345000
Z" /> 
<path style="fill:#000000; fill-opacity:1.000000; stroke:none;fill-rule:evenodd;"
d="M 149.819000,119.695000
149.819000,121.495000
147.319000,121.495000
147.319000,119.695000
Z" /> 
<path style="fill:#000000; fill-opacity:1.000000; stroke:none;fill-rule:evenodd;"
d="M 149.819000,122.195000
149.819000,123.995000
147.319000,123.995000
147.319000,122.195000
Z" /> 
<path style="fill:#000000; fill-opacity:1.000000; stroke:none;fill-rule:evenodd;"
d="M 65.850000,153.310000
65.850000,155.010000
64.150000,155.010000
64.150000,153.310000
Z" /> 
</g>
<g style="fill:#000000; fill-opacity:1.000000; stroke:none;">
<circle cx="62.460000" cy="154.160000" r="0.850000" /> 
</g>
<g style="fill:#000000; fill-opacity:1.000000; stroke:none;">
<circle cx="65.000000" cy="151.620000" r="0.850000" /> 
</g>
<g style="fill:#000000; fill-opacity:1.000000; stroke:none;">
<circle cx="62.460000" cy="151.620000" r="0.850000" /> 
</g>
<g style="fill:#000000; fill-opacity:1.000000; stroke:none;">
<circle cx="65.000000" cy="149.080000" r="0.850000" /> 
</g>
<g style="fill:#000000; fill-opacity:1.000000; stroke:none;">
<circle cx="62.460000" cy="149.080000" r="0.850000" /> 
</g>
<g style="fill:#000000; fill-opacity:1.000000; stroke:none;">
<circle cx="65.000000" cy="146.540000" r="0.850000" /> 
</g>
<g style="fill:#000000; fill-opacity:1.000000; stroke:none;">
<circle cx="62.460000" cy="146.540000" r="0.850000" /> 
</g>
<g style="fill:#000000; fill-opacity:1.000000; stroke:none;">
<circle cx="65.000000" cy="144.000000" r="0.850000" /> 
</g>
<g style="fill:#000000; fill-opacity:1.000000; stroke:none;">
<circle cx="62.460000" cy="144.000000" r="0.850000" /> 
</g>
<g style="fill:#000000; fill-opacity:1.000000; stroke:none;">
<circle cx="65.000000" cy="141.460000" r="0.850000" /> 
</g>
<g style="fill:#000000; fill-opacity:1.000000; stroke:none;">
<circle cx="62.460000" cy="141.460000" r="0.850000" /> 
<path style="fill:#000000; fill-opacity:1.000000; stroke:none;fill-rule:evenodd;"
d="M 62.350000,164.350000
60.650000,164.350000
60.650000,162.650000
62.350000,162.650000
Z" /> 
</g>
<g style="fill:#000000; fill-opacity:1.000000; stroke:none;">
<circle cx="64.040000" cy="163.500000" r="0.850000" /> 
<circle cx="66.580000" cy="163.500000" r="0.850000" /> 
<circle cx="69.120000" cy="163.500000" r="0.850000" /> 
<circle cx="71.660000" cy="163.500000" r="0.850000" /> 
<circle cx="74.200000" cy="163.500000" r="0.850000" /> 
<circle cx="76.740000" cy="163.500000" r="0.850000" /> 
<circle cx="79.280000" cy="163.500000" r="0.850000" /> 
<circle cx="81.820000" cy="163.500000" r="0.850000" /> 
<circle cx="84.360000" cy="163.500000" r="0.850000" /> 
<circle cx="86.900000" cy="163.500000" r="0.850000" /> 
<circle cx="89.440000" cy="163.500000" r="0.850000" /> 
<circle cx="91.980000" cy="163.500000" r="0.850000" /> 
<circle cx="94.520000" cy="163.500000" r="0.850000" /> 
<circle cx="97.060000" cy="163.500000" r="0.850000" /> 
<circle cx="99.600000" cy="163.500000" r="0.850000" /> 
<circle cx="102.140000" cy="163.500000" r="0.850000" /> 
<circle cx="104.680000" cy="163.500000" r="0.850000" /> 
<circle cx="107.220000" cy="163.500000" r="0.850000" /> 
<circle cx="109.760000" cy="163.500000" r="0.850000" /> 
<circle cx="112.300000" cy="163.500000" r="0.850000" /> 
<circle cx="114.840000" cy="163.500000" r="0.850000" /> 
<circle cx="117.380000" cy="163.500000" r="0.850000" /> 
<circle cx="119.920000" cy="163.500000" r="0.850000" /> 
<circle cx="122.460000" cy="163.500000" r="0.850000" /> 
<circle cx="125.000000" cy="163.500000" r="0.850000" /> 
<circle cx="127.540000" cy="163.500000" r="0.850000" /> 
<circle cx="130.080000" cy="163.500000" r="0.850000" /> 
<circle cx="132.620000" cy="163.500000" r="0.850000" /> 
<circle cx="135.160000" cy="163.500000" r="0.850000" /> 
<circle cx="137.700000" cy="163.500000" r="0.850000" /> 
<circle cx="140.240000" cy="163.500000" r="0.850000" /> 
<circle cx="142.780000" cy="163.500000" r="0.850000" /> 
<circle cx="145.320000" cy="163.500000" r="0.850000" /> 
<circle cx="147.860000" cy="163.500000" r="0.850000" /> 
<circle cx="150.400000" cy="163.500000" r="0.850000" /> 
<circle cx="152.940000" cy="163.500000" r="0.850000" /> 
<circle cx="155.480000" cy="163.500000" r="0.850000" /> 
<circle cx="158.020000" cy="163.500000" r="0.850000" /> 
<circle cx="105.384986" cy="157.100000" r="0.342900" /> 
</g>
<g style="fill:#000000; fill-opacity:1.000000; stroke:none;">
<circle cx="113.500000" cy="147.500000" r="0.342900" /> 
</g>
<g style="fill:#000000; fill-opacity:1.000000; stroke:none;">
<circle cx="154.750000" cy="137.900000" r="0.342900" /> 
</g>
<g style="fill:#000000; fill-opacity:1.000000; stroke:none;">
<circle cx="74.800000" cy="151.500000" r="0.342900" /> 
</g>
<g style="fill:#000000; fill-opacity:1.000000; stroke:none;">
<circle cx="147.250000" cy="137.900000" r="0.342900" /> 
</g>
<g style="fill:#000000; fill-opacity:1.000000; stroke:none;">
<circle cx="129.100000" cy="157.985000" r="0.342900" /> 
</g>
<g style="fill:#000000; fill-opacity:1.000000; stroke:none;">
<circle cx="120.400000" cy="137.600000" r="0.342900" /> 
</g>
<g style="fill:#000000; fill-opacity:1.000000; stroke:none;">
<circle cx="109.750000" cy="137.900000" r="0.342900" /> 
</g>
<g style="fill:#000000; fill-opacity:1.000000; stroke:none;">
<circle cx="102.250000" cy="152.500000" r="0.342900" /> 
</g>
<g style="fill:#000000; fill-opacity:1.000000; stroke:none;">
<circle cx="94.750000" cy="137.900000" r="0.342900" /> 
</g>
<g style="fill:#000000; fill-opacity:1.000000; stroke:none;">
<circle cx="74.900000" cy="154.000000" r="0.342900" /> 
</g>
<g style="fill:#000000; fill-opacity:1.000000; stroke:none;">
<circle cx="83.500000" cy="130.600000" r="0.342900" /> 
</g>
<g style="fill:#000000; fill-opacity:1.000000; stroke:none;">
<circle cx="128.500000" cy="159.800000" r="0.342900" /> 
</g>
<g style="fill:#000000; fill-opacity:1.000000; stroke:none;">
<circle cx="121.000000" cy="147.500000" r="0.342900" /> 
</g>
<g style="fill:#000000; fill-opacity:1.000000; stroke:none;">
<circle cx="85.600000" cy="144.100000" r="0.342900" /> 
</g>
<g style="fill:#000000; fill-opacity:1.000000; stroke:none;">
<circle cx="74.800000" cy="144.000000" r="0.342900" /> 
</g>
<g style="fill:#000000; fill-opacity:1.000000; stroke:none;">
<circle cx="68.500000" cy="130.600000" r="0.342900" /> 
</g>
<g style="fill:#000000; fill-opacity:1.000000; stroke:none;">
<circle cx="109.750000" cy="152.500000" r="0.342900" /> 
</g>
<g style="fill:#000000; fill-opacity:1.000000; stroke:none;">
<circle cx="117.250000" cy="137.900000" r="0.342900" /> 
</g>
<g style="fill:#000000; fill-opacity:1.000000; stroke:none;">
<circle cx="117.200000" cy="119.600000" r="0.342900" /> 
</g>
<g style="fill:#000000; fill-opacity:1.000000; stroke:none;">
<circle cx="113.500000" cy="130.600000" r="0.342900" /> 
</g>
<g style="fill:#000000; fill-opacity:1.000000; stroke:none;">
<circle cx="139.750000" cy="137.900000" r="0.342900" /> 
</g>
<g style="fill:#000000; fill-opacity:1.000000; stroke:none;">
<circle cx="72.250000" cy="123.300000" r="0.342900" /> 
</g>
<g style="fill:#000000; fill-opacity:1.000000; stroke:none;">
<circle cx="123.728912" cy="130.309638" r="0.342900" /> 
</g>
<g style="fill:#000000; fill-opacity:1.000000; stroke:none;">
<circle cx="97.735952" cy="145.500000" r="0.342900" /> 
</g>
<g style="fill:#000000; fill-opacity:1.000000; stroke:none;">
<circle cx="143.500000" cy="116.000000" r="0.342900" /> 
</g>
<g style="fill:#000000; fill-opacity:1.000000; stroke:none;">
<circle cx="102.250000" cy="137.900000" r="0.342900" /> 
</g>
<g style="fill:#000000; fill-opacity:1.000000; stroke:none;">
<circle cx="68.500000" cy="159.800000" r="0.342900" /> 
</g>
<g style="fill:#000000; fill-opacity:1.000000; stroke:none;">
<circle cx="139.750000" cy="123.300000" r="0.342900" /> 
</g>
<g style="fill:#000000; fill-opacity:1.000000; stroke:none;">
<circle cx="61.000000" cy="130.600000" r="0.342900" /> 
</g>
<g style="fill:#000000; fill-opacity:1.000000; stroke:none;">
<circle cx="87.250000" cy="137.900000" r="0.342900" /> 
</g>
<g style="fill:#000000; fill-opacity:1.000000; stroke:none;">
<circle cx="151.000000" cy="145.200000" r="0.342900" /> 
</g>
<g style="fill:#000000; fill-opacity:1.000000; stroke:none;">
<circle cx="130.000000" cy="147.500000" r="0.342900" /> 
</g>
<g style="fill:#000000; fill-opacity:1.000000; stroke:none;">
<circle cx="76.000000" cy="116.000000" r="0.342900" /> 
</g>
<g style="fill:#000000; fill-opacity:1.000000; stroke:none;">
<circle cx="77.800000" cy="142.400000" r="0.342900" /> 
</g>
<g style="fill:#000000; fill-opacity:1.000000; stroke:none;">
<circle cx="76.000000" cy="159.800000" r="0.342900" /> 
</g>
<g style="fill:#000000; fill-opacity:1.000000; stroke:none;">
<circle cx="79.750000" cy="137.900000" r="0.342900" /> 
</g>
<g style="fill:#000000; fill-opacity:1.000000; stroke:none;">
<circle cx="158.500000" cy="145.200000" r="0.342900" /> 
</g>
<g style="fill:#000000; fill-opacity:1.000000; stroke:none;">
<circle cx="97.796157" cy="156.000000" r="0.342900" /> 
</g>
<g style="fill:#000000; fill-opacity:1.000000; stroke:none;">
<circle cx="98.500000" cy="141.500000" r="0.342900" /> 
</g>
<g style="fill:#000000; fill-opacity:1.000000; stroke:none;">
<circle cx="136.000000" cy="130.600000" r="0.342900" /> 
</g>
<g style="fill:#000000; fill-opacity:1.000000; stroke:none;">
<circle cx="154.750000" cy="123.300000" r="0.342900" /> 
</g>
<g style="fill:#000000; fill-opacity:1.000000; stroke:none;">
<circle cx="132.250000" cy="152.500000" r="0.342900" /> 
</g>
<g style="fill:#000000; fill-opacity:1.000000; stroke:none;">
<circle cx="98.500000" cy="116.000000" r="0.342900" /> 
</g>
<g style="fill:#000000; fill-opacity:1.000000; stroke:none;">
<circle cx="116.600000" cy="141.700000" r="0.342900" /> 
</g>
<g style="fill:#000000; fill-opacity:1.000000; stroke:none;">
<circle cx="98.500000" cy="152.500000" r="0.342900" /> 
</g>
<g style="fill:#000000; fill-opacity:1.000000; stroke:none;">
<circle cx="136.000000" cy="116.000000" r="0.342900" /> 
</g>
<g style="fill:#000000; fill-opacity:1.000000; stroke:none;">
<circle cx="61.000000" cy="159.800000" r="0.342900" /> 
</g>
<g style="fill:#000000; fill-opacity:1.000000; stroke:none;">
<circle cx="102.250000" cy="123.300000" r="0.342900" /> 
</g>
<g style="fill:#000000; fill-opacity:1.000000; stroke:none;">
<circle cx="123.499999" cy="121.232925" r="0.342900" /> 
</g>
<g style="fill:#000000; fill-opacity:1.000000; stroke:none;">
<circle cx="158.500000" cy="159.800000" r="0.342900" /> 
</g>
<g style="fill:#000000; fill-opacity:1.000000; stroke:none;">
<circle cx="107.000000" cy="147.500000" r="0.342900" /> 
</g>
<g style="fill:#000000; fill-opacity:1.000000; stroke:none;">
<circle cx="151.000000" cy="130.600000" r="0.342900" /> 
</g>
<g style="fill:#000000; fill-opacity:1.000000; stroke:none;">
<circle cx="116.500000" cy="124.000000" r="0.342900" /> 
</g>
<g style="fill:#000000; fill-opacity:1.000000; stroke:none;">
<circle cx="139.750000" cy="147.500000" r="0.342900" /> 
</g>
<g style="fill:#000000; fill-opacity:1.000000; stroke:none;">
<circle cx="83.500000" cy="141.500000" r="0.342900" /> 
</g>
<g style="fill:#000000; fill-opacity:1.000000; stroke:none;">
<circle cx="158.500000" cy="130.600000" r="0.342900" /> 
</g>
<g style="fill:#000000; fill-opacity:1.000000; stroke:none;">
<circle cx="64.750000" cy="137.900000" r="0.342900" /> 
</g>
<g style="fill:#000000; fill-opacity:1.000000; stroke:none;">
<circle cx="113.500000" cy="116.000000" r="0.342900" /> 
</g>
<g style="fill:#000000; fill-opacity:1.000000; stroke:none;">
<circle cx="74.800000" cy="146.500000" r="0.342900" /> 
</g>
<g style="fill:#000000; fill-opacity:1.000000; stroke:none;">
<circle cx="91.000000" cy="116.000000" r="0.342900" /> 
</g>
<g style="fill:#000000; fill-opacity:1.000000; stroke:none;">
<circle cx="76.000000" cy="130.600000" r="0.342900" /> 
</g>
<g style="fill:#000000; fill-opacity:1.000000; stroke:none;">
<circle cx="74.800000" cy="141.500000" r="0.342900" /> 
</g>
<g style="fill:#000000; fill-opacity:1.000000; stroke:none;">
<circle cx="83.500000" cy="116.000000" r="0.342900" /> 
</g>
<g style="fill:#000000; fill-opacity:1.000000; stroke:none;">
<circle cx="110.000000" cy="124.000000" r="0.342900" /> 
</g>
<g style="fill:#000000; fill-opacity:1.000000; stroke:none;">
<circle cx="151.000000" cy="159.800000" r="0.342900" /> 
</g>
<g style="fill:#000000; fill-opacity:1.000000; stroke:none;">
<circle cx="79.750000" cy="123.300000" r="0.342900" /> 
</g>
<g style="fill:#000000; fill-opacity:1.000000; stroke:none;">
<circle cx="132.250000" cy="137.900000" r="0.342900" /> 
</g>
<g style="fill:#000000; fill-opacity:1.000000; stroke:none;">
<circle cx="141.600000" cy="134.800000" r="0.342900" /> 
</g>
<g style="fill:#000000; fill-opacity:1.000000; stroke:none;">
<circle cx="106.500000" cy="141.500000" r="0.342900" /> 
</g>
<g style="fill:#000000; fill-opacity:1.000000; stroke:none;">
<circle cx="106.500000" cy="127.800000" r="0.342900" /> 
</g>
<g style="fill:#000000; fill-opacity:1.000000; stroke:none;">
<circle cx="151.000000" cy="116.000000" r="0.342900" /> 
</g>
<g style="fill:#000000; fill-opacity:1.000000; stroke:none;">
<circle cx="121.800000" cy="144.000000" r="0.342900" /> 
</g>
<g style="fill:#000000; fill-opacity:1.000000; stroke:none;">
<circle cx="91.000000" cy="130.600000" r="0.342900" /> 
</g>
<g style="fill:#000000; fill-opacity:1.000000; stroke:none;">
<circle cx="92.000000" cy="156.512600" r="0.342900" /> 
</g>
<g style="fill:#000000; fill-opacity:1.000000; stroke:none;">
<circle cx="87.250000" cy="123.300000" r="0.342900" /> 
</g>
<g style="fill:#000000; fill-opacity:1.000000; stroke:none;">
<circle cx="74.800000" cy="149.000000" r="0.342900" /> 
</g>
<g style="fill:#000000; fill-opacity:1.000000; stroke:none;">
<circle cx="128.800000" cy="118.000000" r="0.342900" /> 
</g>
<g style="fill:#000000; fill-opacity:1.000000; stroke:none;">
<circle cx="106.000000" cy="116.000000" r="0.342900" /> 
</g>
<g style="fill:#000000; fill-opacity:1.000000; stroke:none;">
<circle cx="98.500000" cy="130.600000" r="0.342900" /> 
</g>
<g style="fill:#000000; fill-opacity:1.000000; stroke:none;">
<circle cx="141.600000" cy="124.600000" r="0.342900" /> 
</g>
<g style="fill:#000000; fill-opacity:1.000000; stroke:none;">
<circle cx="144.500000" cy="145.200000" r="0.342900" /> 
</g>
<g style="fill:#000000; fill-opacity:1.000000; stroke:none;">
<circle cx="154.750000" cy="152.500000" r="0.342900" /> 
</g>
<g style="fill:#000000; fill-opacity:1.000000; stroke:none;">
<circle cx="72.250000" cy="137.900000" r="0.342900" /> 
</g>
<g style="fill:#000000; fill-opacity:1.000000; stroke:none;">
<circle cx="94.750000" cy="123.300000" r="0.342900" /> 
</g>
<g style="fill:#000000; fill-opacity:1.000000; stroke:none;">
<circle cx="147.250000" cy="152.500000" r="0.342900" /> 
</g>
<g style="fill:#000000; fill-opacity:1.000000; stroke:none;">
<circle cx="91.000000" cy="141.500000" r="0.342900" /> 
</g>
<g style="fill:#000000; fill-opacity:1.000000; stroke:none;">
<circle cx="101.000000" cy="161.722400" r="0.342900" /> 
</g>
<g style="fill:#000000; fill-opacity:1.000000; stroke:none;">
<circle cx="125.700000" cy="152.900000" r="0.342900" /> 
</g>
<g style="fill:#000000; fill-opacity:1.000000; stroke:none;">
<circle cx="116.400000" cy="153.000000" r="0.342900" /> 
</g>
<g style="fill:#000000; fill-opacity:1.000000; stroke:none;">
<circle cx="111.979883" cy="157.612600" r="0.342900" /> 
</g>
<g style="fill:#000000; fill-opacity:1.000000; stroke:none;">
<circle cx="87.500000" cy="152.800000" r="0.342900" /> 
</g>
<g style="fill:#000000; fill-opacity:1.000000; stroke:none;">
<circle cx="95.700000" cy="157.500000" r="0.342900" /> 
</g>
<g style="fill:#000000; fill-opacity:1.000000; stroke:none;">
<circle cx="115.700000" cy="158.500000" r="0.342900" /> 
</g>
<g style="fill:#000000; fill-opacity:1.000000; stroke:none;">
<circle cx="125.733318" cy="137.359891" r="0.342900" /> 
</g>
<g style="fill:#000000; fill-opacity:1.000000; stroke:none;">
<circle cx="123.196600" cy="137.317721" r="0.342900" /> 
</g>
<g style="fill:#000000; fill-opacity:1.000000; stroke:none;">
<circle cx="86.500000" cy="151.500000" r="0.342900" /> 
</g>
<g style="fill:#000000; fill-opacity:1.000000; stroke:none;">
<circle cx="87.550000" cy="147.450000" r="0.342900" /> 
</g>
<g style="fill:#000000; fill-opacity:1.000000; stroke:none;">
<circle cx="85.000000" cy="147.500000" r="0.342900" /> 
</g>
<g style="fill:#000000; fill-opacity:1.000000; stroke:none;">
<circle cx="85.630000" cy="153.681000" r="0.342900" /> 
</g>
<g style="fill:#000000; fill-opacity:1.000000; stroke:none;">
<circle cx="83.100000" cy="153.681000" r="0.342900" /> 
</g>
<g style="fill:#000000; fill-opacity:1.000000; stroke:none;">
<circle cx="79.200000" cy="146.400000" r="0.342900" /> 
</g>
<g style="fill:#000000; fill-opacity:1.000000; stroke:none;">
<circle cx="88.100000" cy="151.000000" r="0.342900" /> 
</g>
<g style="fill:#000000; fill-opacity:1.000000; stroke:none;">
<circle cx="90.709999" cy="147.418096" r="0.342900" /> 
</g>
<g style="fill:#000000; fill-opacity:1.000000; stroke:none;">
<circle cx="91.300000" cy="151.200000" r="0.342900" /> 
</g>
<g style="fill:#000000; fill-opacity:1.000000; stroke:none;">
<circle cx="89.131759" cy="151.631759" r="0.342900" /> 
</g>
<g style="fill:none; 
stroke:#000000; stroke-width:0.762000; stroke-opacity:1; 
stroke-linecap:round; stroke-linejoin:round;">
<path d="M105.384986 157.100000
L106.410486 158.125500
" />
<path d="M106.410486 161.769514
L104.680000 163.500000
" />
<path d="M106.410486 158.125500
L106.410486 161.769514
" />
</g>
<g style="fill:none; 
stroke:#000000; stroke-width:0.381000; stroke-opacity:1; 
stroke-linecap:round; stroke-linejoin:round;">
<path d="M101.000000 161.722400
L98.837600 161.722400
" />
<path d="M98.837600 161.722400
L97.060000 163.500000
" />
<path d="M116.400000 153.000000
L125.600000 153.000000
" />
<path d="M125.600000 153.000000
L125.700000 152.900000
" />
<path d="M111.979883 161.280117
L111.979883 157.612600
" />
<path d="M109.760000 163.500000
L111.979883 161.280117
" />
<path d="M95.700000 157.500000
L91.000000 152.800000
" />
<path d="M115.700000 158.500000
L120.000000 158.500000
" />
<path d="M91.000000 152.800000
L87.500000 152.800000
" />
<path d="M120.000000 158.500000
L125.000000 163.500000
" />
<path d="M125.673427 137.300000
L123.214321 137.300000
" />
<path d="M123.214321 137.300000
L123.196600 137.317721
" />
<path d="M125.733318 137.359891
L125.673427 137.300000
" />
<path d="M87.000000 151.000000
L86.500000 151.500000
" />
<path d="M87.000000 148.600000
L87.000000 151.000000
" />
<path d="M87.550000 147.450000
L87.550000 148.050000
" />
<path d="M87.550000 148.050000
L87.000000 148.600000
" />
<path d="M85.100000 147.500000
L85.400000 147.800000
" />
<path d="M85.400000 153.387400
L85.630000 153.617400
" />
<path d="M85.400000 147.800000
L85.400000 153.387400
" />
<path d="M85.000000 147.500000
L85.100000 147.500000
" />
<path d="M79.200000 146.400000
L80.858619 148.058619
" />
<path d="M83.090000 153.671000
L83.100000 153.681000
" />
<path d="M80.858619 148.058619
L81.600000 148.058619
" />
<path d="M83.090000 149.548619
L83.090000 153.671000
" />
<path d="M81.600000 148.058619
L83.090000 149.548619
" />
<path d="M90.709999 147.418096
L90.709999 148.390001
" />
<path d="M90.709999 148.390001
L88.100000 151.000000
" />
<path d="M91.200000 151.200000
L91.300000 151.200000
" />
<path d="M89.363518 151.400000
L91.000000 151.400000
" />
<path d="M89.131759 151.631759
L89.363518 151.400000
" />
<path d="M91.000000 151.400000
L91.200000 151.200000
" />
<path style="fill:#000000; fill-opacity:1.000000; stroke:none;fill-rule:evenodd;"
d="M 154.502611,115.500608
154.907663,115.517361
154.918012,115.518218
155.317722,115.568042
155.327986,115.569755
155.722213,115.652415
155.732276,115.654962
156.118344,115.769901
156.128187,115.773281
156.503427,115.919700
156.512964,115.923883
156.853371,116.090298
156.874811,116.100779
156.883969,116.105735
157.229991,116.311919
157.238702,116.317610
157.387309,116.423713
157.566512,116.551662
157.574730,116.558058
157.882102,116.818388
157.889763,116.825442
158.174557,117.110236
158.181611,117.117897
158.441941,117.425269
158.448337,117.433487
158.682384,117.761289
158.688080,117.770008
158.894264,118.116030
158.899220,118.125188
159.076116,118.487035
159.080299,118.496572
159.226718,118.871812
159.230100,118.881661
159.345032,119.267707
159.347588,119.277803
159.430243,119.672009
159.431957,119.682281
159.481779,120.081973
159.482639,120.092351
159.499392,120.497388
159.499500,120.502595
159.499500,121.412500
159.479498,121.480621
159.425842,121.527114
159.373500,121.538500
158.894449,121.538500
158.661758,121.571956
158.436187,121.638190
158.222340,121.735850
158.024571,121.862949
157.846901,122.016901
157.692949,122.194571
157.565850,122.392340
157.468190,122.606187
157.401956,122.831758
157.368500,123.064449
157.368500,128.125550
157.401956,128.358241
157.468190,128.583812
157.565850,128.797659
157.692949,128.995428
157.846901,129.173098
158.024571,129.327050
158.220037,129.452669
158.222342,129.454150
158.436189,129.551810
158.661757,129.618043
158.894455,129.651500
158.946108,129.651500
159.373500,129.651500
159.441621,129.671502
159.488114,129.725158
159.499500,129.777500
159.499500,162.904123
159.479498,162.972244
159.425842,163.018737
159.355568,163.028841
159.290988,162.999347
159.261233,162.961326
159.175051,162.792184
159.050104,162.620208
159.050101,162.620205
159.050099,162.620202
158.899797,162.469900
158.899794,162.469898
158.899792,162.469896
158.727816,162.344949
158.538412,162.248443
158.336243,162.182754
158.126287,162.149500
157.913713,162.149500
157.703757,162.182754
157.703754,162.182754
157.703753,162.182755
157.501588,162.248443
157.501586,162.248444
157.312180,162.344951
157.140205,162.469898
157.140202,162.469900
156.989900,162.620202
156.989898,162.620205
156.864949,162.792183
156.862265,162.797451
156.813516,162.849065
156.744600,162.866129
156.677399,162.843226
156.637735,162.797451
156.635050,162.792183
156.604665,162.750361
156.510104,162.620208
156.510101,162.620205
156.510099,162.620202
156.359797,162.469900
156.359794,162.469898
156.359792,162.469896
156.187816,162.344949
155.998412,162.248443
155.796243,162.182754
155.586287,162.149500
155.373713,162.149500
155.163757,162.182754
155.163754,162.182754
155.163753,162.182755
154.961588,162.248443
154.961586,162.248444
154.772180,162.344951
154.600205,162.469898
154.600202,162.469900
154.449900,162.620202
154.449898,162.620205
154.324949,162.792183
154.322265,162.797451
154.273516,162.849065
154.204600,162.866129
154.137399,162.843226
154.097735,162.797451
154.095050,162.792183
154.064665,162.750361
153.970104,162.620208
153.970101,162.620205
153.970099,162.620202
153.819797,162.469900
153.819794,162.469898
153.819792,162.469896
153.647816,162.344949
153.458412,162.248443
153.256243,162.182754
153.046287,162.149500
152.833713,162.149500
152.623757,162.182754
152.623754,162.182754
152.623753,162.182755
152.421588,162.248443
152.421586,162.248444
152.232180,162.344951
152.060205,162.469898
152.060202,162.469900
151.909900,162.620202
151.909898,162.620205
151.784949,162.792183
151.782265,162.797451
151.733516,162.849065
151.664600,162.866129
151.597399,162.843226
151.557735,162.797451
151.555050,162.792183
151.524665,162.750361
151.430104,162.620208
151.430101,162.620205
151.430099,162.620202
151.279797,162.469900
151.279794,162.469898
151.279792,162.469896
151.107816,162.344949
150.918412,162.248443
150.716243,162.182754
150.506287,162.149500
150.293713,162.149500
150.083757,162.182754
150.083754,162.182754
150.083753,162.182755
149.881588,162.248443
149.881586,162.248444
149.692180,162.344951
149.520205,162.469898
149.520202,162.469900
149.369900,162.620202
149.369898,162.620205
149.244949,162.792183
149.242265,162.797451
149.193516,162.849065
149.124600,162.866129
149.057399,162.843226
149.017735,162.797451
149.015050,162.792183
148.984665,162.750361
148.890104,162.620208
148.890101,162.620205
148.890099,162.620202
148.739797,162.469900
148.739794,162.469898
148.739792,162.469896
148.567816,162.344949
148.378412,162.248443
148.176243,162.182754
147.966287,162.149500
147.753713,162.149500
147.543757,162.182754
147.543754,162.182754
147.543753,162.182755
147.341588,162.248443
147.341586,162.248444
147.152180,162.344951
146.980205,162.469898
146.980202,162.469900
146.829900,162.620202
146.829898,162.620205
146.704949,162.792183
146.702265,162.797451
146.653516,162.849065
146.584600,162.866129
146.517399,162.843226
146.477735,162.797451
146.475050,162.792183
146.444665,162.750361
146.350104,162.620208
146.350101,162.620205
146.350099,162.620202
146.199797,162.469900
146.199794,162.469898
146.199792,162.469896
146.027816,162.344949
145.838412,162.248443
145.636243,162.182754
145.426287,162.149500
145.213713,162.149500
145.003757,162.182754
145.003754,162.182754
145.003753,162.182755
144.801588,162.248443
144.801586,162.248444
144.612180,162.344951
144.440205,162.469898
144.440202,162.469900
144.289900,162.620202
144.289898,162.620205
144.164949,162.792183
144.162265,162.797451
144.113516,162.849065
144.044600,162.866129
143.977399,162.843226
143.937735,162.797451
143.935050,162.792183
143.904665,162.750361
143.810104,162.620208
143.810101,162.620205
143.810099,162.620202
143.659797,162.469900
143.659794,162.469898
143.659792,162.469896
143.487816,162.344949
143.298412,162.248443
143.096243,162.182754
142.886287,162.149500
142.673713,162.149500
142.463757,162.182754
142.463754,162.182754
142.463753,162.182755
142.261588,162.248443
142.261586,162.248444
142.072180,162.344951
141.900205,162.469898
141.900202,162.469900
141.749900,162.620202
141.749898,162.620205
141.624949,162.792183
141.622265,162.797451
141.573516,162.849065
141.504600,162.866129
141.437399,162.843226
141.397735,162.797451
141.395050,162.792183
141.364665,162.750361
141.270104,162.620208
141.270101,162.620205
141.270099,162.620202
141.119797,162.469900
141.119794,162.469898
141.119792,162.469896
140.947816,162.344949
140.758412,162.248443
140.556243,162.182754
140.346287,162.149500
140.133713,162.149500
139.923757,162.182754
139.923754,162.182754
139.923753,162.182755
139.721588,162.248443
139.721586,162.248444
139.532180,162.344951
139.360205,162.469898
139.360202,162.469900
139.209900,162.620202
139.209898,162.620205
139.084949,162.792183
139.082265,162.797451
139.033516,162.849065
138.964600,162.866129
138.897399,162.843226
138.857735,162.797451
138.855050,162.792183
138.824665,162.750361
138.730104,162.620208
138.730101,162.620205
138.730099,162.620202
138.579797,162.469900
138.579794,162.469898
138.579792,162.469896
138.407816,162.344949
138.218412,162.248443
138.016243,162.182754
137.806287,162.149500
137.593713,162.149500
137.383757,162.182754
137.383754,162.182754
137.383753,162.182755
137.181588,162.248443
137.181586,162.248444
136.992180,162.344951
136.820205,162.469898
136.820202,162.469900
136.669900,162.620202
136.669898,162.620205
136.544949,162.792183
136.542265,162.797451
136.493516,162.849065
136.424600,162.866129
136.357399,162.843226
136.317735,162.797451
136.315050,162.792183
136.284665,162.750361
136.190104,162.620208
136.190101,162.620205
136.190099,162.620202
136.039797,162.469900
136.039794,162.469898
136.039792,162.469896
135.867816,162.344949
135.678412,162.248443
135.476243,162.182754
135.266287,162.149500
135.053713,162.149500
134.843757,162.182754
134.843754,162.182754
134.843753,162.182755
134.641588,162.248443
134.641586,162.248444
134.452180,162.344951
134.280205,162.469898
134.280202,162.469900
134.129900,162.620202
134.129898,162.620205
134.004949,162.792183
134.002265,162.797451
133.953516,162.849065
133.884600,162.866129
133.817399,162.843226
133.777735,162.797451
133.775050,162.792183
133.744665,162.750361
133.650104,162.620208
133.650101,162.620205
133.650099,162.620202
133.499797,162.469900
133.499794,162.469898
133.499792,162.469896
133.327816,162.344949
133.138412,162.248443
132.936243,162.182754
132.726287,162.149500
132.513713,162.149500
132.303757,162.182754
132.303754,162.182754
132.303753,162.182755
132.101588,162.248443
132.101586,162.248444
131.912180,162.344951
131.740205,162.469898
131.740202,162.469900
131.589900,162.620202
131.589898,162.620205
131.464949,162.792183
131.462265,162.797451
131.413516,162.849065
131.344600,162.866129
131.277399,162.843226
131.237735,162.797451
131.235050,162.792183
131.204665,162.750361
131.110104,162.620208
131.110101,162.620205
131.110099,162.620202
130.959797,162.469900
130.959794,162.469898
130.959792,162.469896
130.787816,162.344949
130.598412,162.248443
130.396243,162.182754
130.186287,162.149500
129.973713,162.149500
129.763757,162.182754
129.763754,162.182754
129.763753,162.182755
129.561588,162.248443
129.561586,162.248444
129.372180,162.344951
129.200205,162.469898
129.200202,162.469900
129.049900,162.620202
129.049898,162.620205
128.924949,162.792183
128.922265,162.797451
128.873516,162.849065
128.804600,162.866129
128.737399,162.843226
128.697735,162.797451
128.695050,162.792183
128.664665,162.750361
128.570104,162.620208
128.570101,162.620205
128.570099,162.620202
128.419797,162.469900
128.419794,162.469898
128.419792,162.469896
128.247816,162.344949
128.058412,162.248443
127.856243,162.182754
127.646287,162.149500
127.433713,162.149500
127.223757,162.182754
127.223754,162.182754
127.223753,162.182755
127.021588,162.248443
127.021586,162.248444
126.832180,162.344951
126.660205,162.469898
126.660202,162.469900
126.509900,162.620202
126.509898,162.620205
126.384949,162.792183
126.382265,162.797451
126.333516,162.849065
126.264600,162.866129
126.197399,162.843226
126.157735,162.797451
126.155050,162.792183
126.124665,162.750361
126.030104,162.620208
126.030101,162.620205
126.030099,162.620202
125.879797,162.469900
125.879794,162.469898
125.879792,162.469896
125.707816,162.344949
125.518412,162.248443
125.316243,162.182754
125.106287,162.149500
124.893713,162.149500
124.726634,162.175962
124.656225,162.166863
124.617830,162.140609
120.440494,157.963271
120.440488,157.963266
120.439138,157.962364
120.327311,157.887644
120.280792,157.868375
120.201560,157.835556
120.201557,157.835555
120.068061,157.809000
120.068058,157.809000
116.222148,157.809000
116.154027,157.788998
116.152146,157.787765
116.099500,157.752588
115.946016,157.689013
115.946011,157.689011
115.783070,157.656600
115.783068,157.656600
115.616932,157.656600
115.616929,157.656600
115.453988,157.689011
115.453983,157.689013
115.300500,157.752588
115.162364,157.844887
115.162358,157.844892
115.044892,157.962358
115.044887,157.962364
114.952588,158.100500
114.889013,158.253983
114.889011,158.253988
114.856600,158.416929
114.856600,158.416932
114.856600,158.583068
114.889011,158.746011
114.952588,158.899500
115.014260,158.991799
115.044887,159.037635
115.044892,159.037641
115.162358,159.155107
115.162364,159.155112
115.300500,159.247412
115.453989,159.310989
115.616932,159.343400
115.616933,159.343400
115.783067,159.343400
115.783068,159.343400
115.946011,159.310989
116.099500,159.247412
116.152146,159.212235
116.219899,159.191020
116.222148,159.191000
119.661588,159.191000
119.729709,159.211002
119.750683,159.227905
122.457184,161.934405
122.491210,161.996717
122.486145,162.067532
122.443598,162.124368
122.377078,162.149179
122.368089,162.149500
122.353713,162.149500
122.143757,162.182754
122.143754,162.182754
122.143753,162.182755
121.941588,162.248443
121.941586,162.248444
121.752180,162.344951
121.580205,162.469898
121.580202,162.469900
121.429900,162.620202
121.429898,162.620205
121.304949,162.792183
121.302265,162.797451
121.253516,162.849065
121.184600,162.866129
121.117399,162.843226
121.077735,162.797451
121.075050,162.792183
121.044665,162.750361
120.950104,162.620208
120.950101,162.620205
120.950099,162.620202
120.799797,162.469900
120.799794,162.469898
120.799792,162.469896
120.627816,162.344949
120.438412,162.248443
120.236243,162.182754
120.026287,162.149500
119.813713,162.149500
119.603757,162.182754
119.603754,162.182754
119.603753,162.182755
119.401588,162.248443
119.401586,162.248444
119.212180,162.344951
119.040205,162.469898
119.040202,162.469900
118.889900,162.620202
118.889898,162.620205
118.764949,162.792183
118.762265,162.797451
118.713516,162.849065
118.644600,162.866129
118.577399,162.843226
118.537735,162.797451
118.535050,162.792183
118.504665,162.750361
118.410104,162.620208
118.410101,162.620205
118.410099,162.620202
118.259797,162.469900
118.259794,162.469898
118.259792,162.469896
118.087816,162.344949
117.898412,162.248443
117.696243,162.182754
117.486287,162.149500
117.273713,162.149500
117.063757,162.182754
117.063754,162.182754
117.063753,162.182755
116.861588,162.248443
116.861586,162.248444
116.672180,162.344951
116.500205,162.469898
116.500202,162.469900
116.349900,162.620202
116.349898,162.620205
116.224949,162.792183
116.222265,162.797451
116.173516,162.849065
116.104600,162.866129
116.037399,162.843226
115.997735,162.797451
115.995050,162.792183
115.964665,162.750361
115.870104,162.620208
115.870101,162.620205
115.870099,162.620202
115.719797,162.469900
115.719794,162.469898
115.719792,162.469896
115.547816,162.344949
115.358412,162.248443
115.156243,162.182754
114.946287,162.149500
114.733713,162.149500
114.523757,162.182754
114.523754,162.182754
114.523753,162.182755
114.321588,162.248443
114.321586,162.248444
114.132180,162.344951
113.960205,162.469898
113.960202,162.469900
113.809900,162.620202
113.809898,162.620205
113.684949,162.792183
113.682265,162.797451
113.633516,162.849065
113.564600,162.866129
113.497399,162.843226
113.457735,162.797451
113.455050,162.792183
113.424665,162.750361
113.330104,162.620208
113.330101,162.620205
113.330099,162.620202
113.179797,162.469900
113.179794,162.469898
113.179792,162.469896
113.007816,162.344949
112.818412,162.248443
112.616243,162.182754
112.406287,162.149500
112.391912,162.149500
112.323791,162.129498
112.277298,162.075842
112.267194,162.005568
112.296688,161.940988
112.302817,161.934405
112.516613,161.720608
112.516613,161.720607
112.516618,161.720603
112.592239,161.607428
112.644328,161.481674
112.670883,161.348174
112.670883,161.212060
112.670883,158.134747
112.690885,158.066626
112.692058,158.064834
112.727295,158.012100
112.790872,157.858611
112.823283,157.695668
112.823283,157.529532
112.790872,157.366589
112.727295,157.213100
112.634995,157.074964
112.634990,157.074958
112.517524,156.957492
112.517518,156.957487
112.471682,156.926860
112.379383,156.865188
112.225894,156.801611
112.062953,156.769200
112.062951,156.769200
111.896815,156.769200
111.896812,156.769200
111.733871,156.801611
111.733866,156.801613
111.580383,156.865188
111.442247,156.957487
111.442241,156.957492
111.324775,157.074958
111.324770,157.074964
111.232471,157.213100
111.168896,157.366583
111.168894,157.366588
111.136483,157.529529
111.136483,157.695670
111.168894,157.858611
111.168896,157.858616
111.232469,158.012097
111.232470,158.012099
111.232471,158.012100
111.267649,158.064747
111.288863,158.132497
111.288883,158.134747
111.288883,160.941705
111.268881,161.009826
111.251978,161.030800
110.142168,162.140609
110.079856,162.174635
110.033365,162.175962
109.866287,162.149500
109.653713,162.149500
109.443757,162.182754
109.443754,162.182754
109.443753,162.182755
109.241588,162.248443
109.241586,162.248444
109.052180,162.344951
108.880205,162.469898
108.880202,162.469900
108.729900,162.620202
108.729898,162.620205
108.604949,162.792183
108.602265,162.797451
108.553516,162.849065
108.484600,162.866129
108.417399,162.843226
108.377735,162.797451
108.375050,162.792183
108.344665,162.750361
108.250104,162.620208
108.250101,162.620205
108.250099,162.620202
108.099797,162.469900
108.099794,162.469898
108.099792,162.469896
107.927816,162.344949
107.738412,162.248443
107.536243,162.182754
107.365932,162.155779
107.301781,162.125367
107.264254,162.065099
107.262066,162.006753
107.291986,161.856335
107.291986,161.682693
107.291986,158.038680
107.291778,158.037636
107.258110,157.868376
107.191661,157.707953
107.095192,157.563576
107.095190,157.563574
107.095185,157.563568
105.946917,156.415300
105.946911,156.415295
105.802533,156.318825
105.642113,156.252377
105.642110,156.252376
105.471810,156.218500
105.471807,156.218500
105.298165,156.218500
105.298161,156.218500
105.127861,156.252376
105.127858,156.252377
104.967438,156.318825
104.823060,156.415295
104.823054,156.415300
104.700286,156.538068
104.700281,156.538074
104.603811,156.682452
104.537363,156.842872
104.537362,156.842875
104.503486,157.013175
104.503486,157.186824
104.537362,157.357124
104.537363,157.357127
104.603811,157.517547
104.700280,157.661924
105.492082,158.453726
105.526106,158.516037
105.528986,158.542820
105.528986,161.352194
105.508984,161.420315
105.492081,161.441289
104.820775,162.112595
104.758463,162.146621
104.731680,162.149500
104.573713,162.149500
104.363757,162.182754
104.363754,162.182754
104.363753,162.182755
104.161588,162.248443
104.161586,162.248444
103.972180,162.344951
103.800205,162.469898
103.800202,162.469900
103.649900,162.620202
103.649898,162.620205
103.524951,162.792180
103.428444,162.981586
103.428443,162.981588
103.416373,163.018737
103.362754,163.183757
103.329500,163.393713
103.329500,163.606287
103.362754,163.816243
103.428443,164.018412
103.467913,164.095876
103.524951,164.207819
103.591517,164.299439
103.615375,164.366307
103.599295,164.435458
103.548381,164.484938
103.489581,164.499500
100.790419,164.499500
100.722298,164.479498
100.675805,164.425842
100.665701,164.355568
100.688483,164.299439
100.755051,164.207816
100.851557,164.018412
100.917246,163.816243
100.950500,163.606287
100.950500,163.393713
100.917246,163.183757
100.851557,162.981588
100.755051,162.792184
100.724664,162.750360
100.700806,162.683493
100.716887,162.614342
100.767801,162.564861
100.837383,162.550762
100.851165,162.552718
100.916932,162.565800
100.916933,162.565800
101.083067,162.565800
101.083068,162.565800
101.246011,162.533389
101.399500,162.469812
101.537636,162.377512
101.655112,162.260036
101.747412,162.121900
101.810989,161.968411
101.843400,161.805468
101.843400,161.639332
101.810989,161.476389
101.747412,161.322900
101.655112,161.184764
101.655107,161.184758
101.537641,161.067292
101.537635,161.067287
101.483028,161.030800
101.399500,160.974988
101.246011,160.911411
101.083070,160.879000
101.083068,160.879000
100.916932,160.879000
100.916929,160.879000
100.753988,160.911411
100.753983,160.911413
100.600499,160.974988
100.547854,161.010165
100.480101,161.031380
100.477852,161.031400
98.769538,161.031400
98.636042,161.057955
98.636039,161.057956
98.510288,161.110044
98.397111,161.185666
97.442168,162.140609
97.379856,162.174634
97.333363,162.175962
97.237452,162.160771
97.166287,162.149500
96.953713,162.149500
96.743757,162.182754
96.743754,162.182754
96.743753,162.182755
96.541588,162.248443
96.541586,162.248444
96.352180,162.344951
96.180205,162.469898
96.180202,162.469900
96.029900,162.620202
96.029898,162.620205
95.904949,162.792183
95.902265,162.797451
95.853516,162.849065
95.784600,162.866129
95.717399,162.843226
95.677735,162.797451
95.675050,162.792183
95.644665,162.750361
95.550104,162.620208
95.550101,162.620205
95.550099,162.620202
95.399797,162.469900
95.399794,162.469898
95.399792,162.469896
95.227816,162.344949
95.038412,162.248443
94.836243,162.182754
94.626287,162.149500
94.413713,162.149500
94.203757,162.182754
94.203754,162.182754
94.203753,162.182755
94.001588,162.248443
94.001586,162.248444
93.812180,162.344951
93.640205,162.469898
93.640202,162.469900
93.489900,162.620202
93.489898,162.620205
93.364949,162.792183
93.362265,162.797451
93.313516,162.849065
93.244600,162.866129
93.177399,162.843226
93.137735,162.797451
93.135050,162.792183
93.104665,162.750361
93.010104,162.620208
93.010101,162.620205
93.010099,162.620202
92.859797,162.469900
92.859794,162.469898
92.859792,162.469896
92.687816,162.344949
92.498412,162.248443
92.296243,162.182754
92.086287,162.149500
91.873713,162.149500
91.663757,162.182754
91.663754,162.182754
91.663753,162.182755
91.461588,162.248443
91.461586,162.248444
91.272180,162.344951
91.100205,162.469898
91.100202,162.469900
90.949900,162.620202
90.949898,162.620205
90.824949,162.792183
90.822265,162.797451
90.773516,162.849065
90.704600,162.866129
90.637399,162.843226
90.597735,162.797451
90.595050,162.792183
90.564665,162.750361
90.470104,162.620208
90.470101,162.620205
90.470099,162.620202
90.319797,162.469900
90.319794,162.469898
90.319792,162.469896
90.147816,162.344949
89.958412,162.248443
89.756243,162.182754
89.546287,162.149500
89.333713,162.149500
89.123757,162.182754
89.123754,162.182754
89.123753,162.182755
88.921588,162.248443
88.921586,162.248444
88.732180,162.344951
88.560205,162.469898
88.560202,162.469900
88.409900,162.620202
88.409898,162.620205
88.284949,162.792183
88.282265,162.797451
88.233516,162.849065
88.164600,162.866129
88.097399,162.843226
88.057735,162.797451
88.055050,162.792183
88.024665,162.750361
87.930104,162.620208
87.930101,162.620205
87.930099,162.620202
87.779797,162.469900
87.779794,162.469898
87.779792,162.469896
87.607816,162.344949
87.418412,162.248443
87.216243,162.182754
87.006287,162.149500
86.793713,162.149500
86.583757,162.182754
86.583754,162.182754
86.583753,162.182755
86.381588,162.248443
86.381586,162.248444
86.192180,162.344951
86.020205,162.469898
86.020202,162.469900
85.869900,162.620202
85.869898,162.620205
85.744949,162.792183
85.742265,162.797451
85.693516,162.849065
85.624600,162.866129
85.557399,162.843226
85.517735,162.797451
85.515050,162.792183
85.484665,162.750361
85.390104,162.620208
85.390101,162.620205
85.390099,162.620202
85.239797,162.469900
85.239794,162.469898
85.239792,162.469896
85.067816,162.344949
84.878412,162.248443
84.676243,162.182754
84.466287,162.149500
84.253713,162.149500
84.043757,162.182754
84.043754,162.182754
84.043753,162.182755
83.841588,162.248443
83.841586,162.248444
83.652180,162.344951
83.480205,162.469898
83.480202,162.469900
83.329900,162.620202
83.329898,162.620205
83.204949,162.792183
83.202265,162.797451
83.153516,162.849065
83.084600,162.866129
83.017399,162.843226
82.977735,162.797451
82.975050,162.792183
82.944665,162.750361
82.850104,162.620208
82.850101,162.620205
82.850099,162.620202
82.699797,162.469900
82.699794,162.469898
82.699792,162.469896
82.527816,162.344949
82.338412,162.248443
82.136243,162.182754
81.926287,162.149500
81.713713,162.149500
81.503757,162.182754
81.503754,162.182754
81.503753,162.182755
81.301588,162.248443
81.301586,162.248444
81.112180,162.344951
80.940205,162.469898
80.940202,162.469900
80.789900,162.620202
80.789898,162.620205
80.664949,162.792183
80.662265,162.797451
80.613516,162.849065
80.544600,162.866129
80.477399,162.843226
80.437735,162.797451
80.435050,162.792183
80.404665,162.750361
80.310104,162.620208
80.310101,162.620205
80.310099,162.620202
80.159797,162.469900
80.159794,162.469898
80.159792,162.469896
79.987816,162.344949
79.798412,162.248443
79.596243,162.182754
79.386287,162.149500
79.173713,162.149500
78.963757,162.182754
78.963754,162.182754
78.963753,162.182755
78.761588,162.248443
78.761586,162.248444
78.572180,162.344951
78.400205,162.469898
78.400202,162.469900
78.249900,162.620202
78.249898,162.620205
78.124949,162.792183
78.122265,162.797451
78.073516,162.849065
78.004600,162.866129
77.937399,162.843226
77.897735,162.797451
77.895050,162.792183
77.864665,162.750361
77.770104,162.620208
77.770101,162.620205
77.770099,162.620202
77.619797,162.469900
77.619794,162.469898
77.619792,162.469896
77.447816,162.344949
77.258412,162.248443
77.056243,162.182754
76.846287,162.149500
76.633713,162.149500
76.423757,162.182754
76.423754,162.182754
76.423753,162.182755
76.221588,162.248443
76.221586,162.248444
76.032180,162.344951
75.860205,162.469898
75.860202,162.469900
75.709900,162.620202
75.709898,162.620205
75.584949,162.792183
75.582265,162.797451
75.533516,162.849065
75.464600,162.866129
75.397399,162.843226
75.357735,162.797451
75.355050,162.792183
75.324665,162.750361
75.230104,162.620208
75.230101,162.620205
75.230099,162.620202
75.079797,162.469900
75.079794,162.469898
75.079792,162.469896
74.907816,162.344949
74.718412,162.248443
74.516243,162.182754
74.306287,162.149500
74.093713,162.149500
73.883757,162.182754
73.883754,162.182754
73.883753,162.182755
73.681588,162.248443
73.681586,162.248444
73.492180,162.344951
73.320205,162.469898
73.320202,162.469900
73.169900,162.620202
73.169898,162.620205
73.044949,162.792183
73.042265,162.797451
72.993516,162.849065
72.924600,162.866129
72.857399,162.843226
72.817735,162.797451
72.815050,162.792183
72.784665,162.750361
72.690104,162.620208
72.690101,162.620205
72.690099,162.620202
72.539797,162.469900
72.539794,162.469898
72.539792,162.469896
72.367816,162.344949
72.178412,162.248443
71.976243,162.182754
71.766287,162.149500
71.553713,162.149500
71.343757,162.182754
71.343754,162.182754
71.343753,162.182755
71.141588,162.248443
71.141586,162.248444
70.952180,162.344951
70.780205,162.469898
70.780202,162.469900
70.629900,162.620202
70.629898,162.620205
70.504949,162.792183
70.502265,162.797451
70.453516,162.849065
70.384600,162.866129
70.317399,162.843226
70.277735,162.797451
70.275050,162.792183
70.244665,162.750361
70.150104,162.620208
70.150101,162.620205
70.150099,162.620202
69.999797,162.469900
69.999794,162.469898
69.999792,162.469896
69.827816,162.344949
69.638412,162.248443
69.436243,162.182754
69.226287,162.149500
69.013713,162.149500
68.803757,162.182754
68.803754,162.182754
68.803753,162.182755
68.601588,162.248443
68.601586,162.248444
68.412180,162.344951
68.240205,162.469898
68.240202,162.469900
68.089900,162.620202
68.089898,162.620205
67.964949,162.792183
67.962265,162.797451
67.913516,162.849065
67.844600,162.866129
67.777399,162.843226
67.737735,162.797451
67.735050,162.792183
67.704665,162.750361
67.610104,162.620208
67.610101,162.620205
67.610099,162.620202
67.459797,162.469900
67.459794,162.469898
67.459792,162.469896
67.287816,162.344949
67.098412,162.248443
66.896243,162.182754
66.686287,162.149500
66.473713,162.149500
66.263757,162.182754
66.263754,162.182754
66.263753,162.182755
66.061588,162.248443
66.061586,162.248444
65.872180,162.344951
65.700205,162.469898
65.700202,162.469900
65.549900,162.620202
65.549898,162.620205
65.424949,162.792183
65.422265,162.797451
65.373516,162.849065
65.304600,162.866129
65.237399,162.843226
65.197735,162.797451
65.195050,162.792183
65.164665,162.750361
65.070104,162.620208
65.070101,162.620205
65.070099,162.620202
64.919797,162.469900
64.919794,162.469898
64.919792,162.469896
64.747816,162.344949
64.558412,162.248443
64.356243,162.182754
64.146287,162.149500
63.933713,162.149500
63.723757,162.182754
63.723754,162.182754
63.723753,162.182755
63.521588,162.248443
63.521586,162.248444
63.332180,162.344951
63.160207,162.469896
63.048873,162.581230
62.986561,162.615255
62.915745,162.610189
62.858909,162.567643
62.841722,162.536165
62.793798,162.407673
62.793796,162.407670
62.793796,162.407669
62.746844,162.344949
62.707546,162.292453
62.630591,162.234845
62.592331,162.206204
62.592329,162.206203
62.592326,162.206201
62.457483,162.155909
62.457486,162.155909
62.397878,162.149500
60.626500,162.149500
60.558379,162.129498
60.511886,162.075842
60.500500,162.023500
60.500500,141.353713
61.109500,141.353713
61.109500,141.566287
61.142754,141.776243
61.208443,141.978412
61.304949,142.167816
61.429896,142.339792
61.429898,142.339794
61.429900,142.339797
61.580202,142.490099
61.580205,142.490101
61.580208,142.490104
61.752184,142.615051
61.755317,142.616647
61.757451,142.617735
61.809065,142.666484
61.826129,142.735400
61.803226,142.802601
61.757451,142.842265
61.752183,142.844949
61.580205,142.969898
61.580202,142.969900
61.429900,143.120202
61.429898,143.120205
61.304951,143.292180
61.304949,143.292184
61.208443,143.481588
61.142754,143.683757
61.109500,143.893713
61.109500,144.106287
61.142754,144.316243
61.208443,144.518412
61.304949,144.707816
61.429896,144.879792
61.429898,144.879794
61.429900,144.879797
61.580202,145.030099
61.580205,145.030101
61.580208,145.030104
61.752184,145.155051
61.755317,145.156647
61.757451,145.157735
61.809065,145.206484
61.826129,145.275400
61.803226,145.342601
61.757451,145.382265
61.752183,145.384949
61.580205,145.509898
61.580202,145.509900
61.429900,145.660202
61.429898,145.660205
61.304951,145.832180
61.304949,145.832184
61.208443,146.021588
61.142754,146.223757
61.109500,146.433713
61.109500,146.646287
61.142754,146.856243
61.208443,147.058412
61.304949,147.247816
61.304951,147.247819
61.309433,147.253988
61.429896,147.419792
61.429898,147.419794
61.429900,147.419797
61.580202,147.570099
61.580205,147.570101
61.580208,147.570104
61.752184,147.695051
61.754068,147.696011
61.757451,147.697735
61.809065,147.746484
61.826129,147.815400
61.803226,147.882601
61.757451,147.922265
61.752183,147.924949
61.580205,148.049898
61.580202,148.049900
61.429900,148.200202
61.429898,148.200205
61.304951,148.372180
61.208444,148.561586
61.208443,148.561588
61.147348,148.749619
61.142754,148.763757
61.109500,148.973713
61.109500,149.186287
61.142754,149.396243
61.208443,149.598412
61.304949,149.787816
61.304951,149.787819
61.335840,149.830334
61.429896,149.959792
61.429898,149.959794
61.429900,149.959797
61.580202,150.110099
61.580205,150.110101
61.580208,150.110104
61.752184,150.235051
61.755317,150.236647
61.757451,150.237735
61.809065,150.286484
61.826129,150.355400
61.803226,150.422601
61.757451,150.462265
61.752183,150.464949
61.580205,150.589898
61.580202,150.589900
61.429900,150.740202
61.429898,150.740205
61.304951,150.912180
61.208444,151.101586
61.208443,151.101588
61.149476,151.283070
61.142754,151.303757
61.109500,151.513713
61.109500,151.726287
61.142754,151.936243
61.208443,152.138412
61.304949,152.327816
61.429896,152.499792
61.429898,152.499794
61.429900,152.499797
61.580202,152.650099
61.580205,152.650101
61.580208,152.650104
61.752184,152.775051
61.753517,152.775730
61.757451,152.777735
61.809065,152.826484
61.826129,152.895400
61.803226,152.962601
61.757451,153.002265
61.752183,153.004949
61.580205,153.129898
61.580202,153.129900
61.429900,153.280202
61.429898,153.280205
61.304951,153.452180
61.208444,153.641586
61.208443,153.641588
61.168647,153.764068
61.142754,153.843757
61.109500,154.053713
61.109500,154.266287
61.142754,154.476243
61.208443,154.678412
61.304949,154.867816
61.429896,155.039792
61.429898,155.039794
61.429900,155.039797
61.580202,155.190099
61.580205,155.190101
61.580208,155.190104
61.752184,155.315051
61.941588,155.411557
62.143757,155.477246
62.353713,155.510500
62.353716,155.510500
62.566284,155.510500
62.566287,155.510500
62.776243,155.477246
62.978412,155.411557
63.167816,155.315051
63.339792,155.190104
63.451127,155.078768
63.513437,155.044745
63.584253,155.049809
63.641089,155.092356
63.658277,155.123833
63.706202,155.252328
63.706203,155.252329
63.792453,155.367546
63.850061,155.410671
63.907669,155.453796
63.907671,155.453796
63.907673,155.453798
63.968030,155.476309
64.042514,155.504090
64.042517,155.504091
64.102127,155.510500
65.897872,155.510499
65.957483,155.504091
66.092331,155.453796
66.207546,155.367546
66.293796,155.252331
66.344091,155.117483
66.350500,155.057873
66.350499,153.262128
66.344091,153.202517
66.317005,153.129896
66.293798,153.067673
66.293796,153.067670
66.293796,153.067669
66.243017,152.999837
66.207546,152.952453
66.114858,152.883068
66.092331,152.866204
66.092329,152.866203
66.092328,152.866202
65.963833,152.818277
65.906997,152.775730
65.882186,152.709210
65.897277,152.639836
65.918767,152.611128
66.030104,152.499792
66.155051,152.327816
66.251557,152.138412
66.317246,151.936243
66.350500,151.726287
66.350500,151.513713
66.317246,151.303757
66.251557,151.101588
66.155051,150.912184
66.030104,150.740208
66.030101,150.740205
66.030099,150.740202
65.879797,150.589900
65.879794,150.589898
65.879792,150.589896
65.707816,150.464949
65.702551,150.462266
65.650937,150.413520
65.633870,150.344606
65.656770,150.277404
65.702551,150.237733
65.707816,150.235051
65.879792,150.110104
66.030104,149.959792
66.155051,149.787816
66.251557,149.598412
66.317246,149.396243
66.350500,149.186287
66.350500,148.973713
66.317246,148.763757
66.251557,148.561588
66.155051,148.372184
66.030104,148.200208
66.030101,148.200205
66.030099,148.200202
65.879797,148.049900
65.879794,148.049898
65.879792,148.049896
65.707816,147.924949
65.702551,147.922266
65.650937,147.873520
65.633870,147.804606
65.656770,147.737404
65.702551,147.697733
65.707816,147.695051
65.879792,147.570104
66.030104,147.419792
66.155051,147.247816
66.251557,147.058412
66.317246,146.856243
66.350500,146.646287
66.350500,146.433713
66.332003,146.316929
78.356600,146.316929
78.356600,146.316932
78.356600,146.483068
78.389011,146.646011
78.452588,146.799500
78.482918,146.844892
78.544887,146.937635
78.544892,146.937641
78.662358,147.055107
78.662364,147.055112
78.800500,147.147412
78.953989,147.210989
79.016088,147.223340
79.078996,147.256245
79.080602,147.257824
80.418132,148.595354
80.531307,148.670975
80.657061,148.723064
80.664619,148.724567
80.676060,148.726843
80.676063,148.726843
80.790561,148.749619
81.261588,148.749619
81.329709,148.769621
81.350683,148.786524
82.362095,149.797936
82.396121,149.860248
82.399000,149.887031
82.399000,153.173818
82.378998,153.241939
82.377776,153.243802
82.371630,153.253002
82.352588,153.281499
82.289013,153.434983
82.289011,153.434988
82.256600,153.597929
82.256600,153.597932
82.256600,153.764068
82.289011,153.927011
82.352588,154.080500
82.414260,154.172799
82.444887,154.218635
82.444892,154.218641
82.562358,154.336107
82.562364,154.336112
82.700500,154.428412
82.853989,154.491989
83.016932,154.524400
83.016933,154.524400
83.183067,154.524400
83.183068,154.524400
83.346011,154.491989
83.499500,154.428412
83.637636,154.336112
83.755112,154.218636
83.847412,154.080500
83.910989,153.927011
83.943400,153.764068
83.943400,153.597932
83.910989,153.434989
83.847412,153.281500
83.802234,153.213886
83.781020,153.146133
83.781000,153.143885
83.781000,149.480560
83.780999,149.480557
83.764228,149.396246
83.754445,149.347062
83.702356,149.221308
83.626735,149.108132
83.626733,149.108130
83.626728,149.108124
82.040494,147.521890
82.040490,147.521887
82.040487,147.521884
81.927311,147.446263
81.856492,147.416929
84.156600,147.416929
84.156600,147.583070
84.179065,147.696011
84.189011,147.746011
84.252588,147.899500
84.314260,147.991799
84.344887,148.037635
84.344892,148.037641
84.462358,148.155107
84.462364,148.155112
84.600498,148.247411
84.600499,148.247411
84.600500,148.247412
84.631218,148.260135
84.686498,148.304682
84.708920,148.372045
84.709000,148.376544
84.709000,153.455461
84.720294,153.512235
84.725821,153.540022
84.735555,153.588957
84.735556,153.588959
84.735558,153.588968
84.777008,153.689034
84.786600,153.737253
84.786600,153.764068
84.819011,153.927011
84.882588,154.080500
84.944260,154.172799
84.974887,154.218635
84.974892,154.218641
85.092358,154.336107
85.092364,154.336112
85.230500,154.428412
85.383989,154.491989
85.546932,154.524400
85.546933,154.524400
85.713067,154.524400
85.713068,154.524400
85.876011,154.491989
86.029500,154.428412
86.167636,154.336112
86.285112,154.218636
86.377412,154.080500
86.440989,153.927011
86.473400,153.764068
86.473400,153.597932
86.440989,153.434989
86.377412,153.281500
86.285112,153.143364
86.285107,153.143358
86.167641,153.025892
86.167633,153.025886
86.146995,153.012095
86.101469,152.957617
86.091000,152.907332
86.091000,152.431438
86.111002,152.363317
86.164658,152.316824
86.234932,152.306720
86.253571,152.310862
86.253981,152.310986
86.253989,152.310989
86.416932,152.343400
86.416933,152.343400
86.587667,152.343400
86.655788,152.363402
86.702281,152.417058
86.712385,152.487332
86.704076,152.517618
86.689013,152.553982
86.689011,152.553988
86.656600,152.716929
86.656600,152.883070
86.680309,153.002265
86.689011,153.046011
86.752588,153.199500
86.780471,153.241229
86.844887,153.337635
86.844892,153.337641
86.962358,153.455107
86.962364,153.455112
87.100500,153.547412
87.253989,153.610989
87.416932,153.643400
87.416933,153.643400
87.583067,153.643400
87.583068,153.643400
87.746011,153.610989
87.899500,153.547412
87.952146,153.512235
88.019899,153.491020
88.022148,153.491000
90.661588,153.491000
90.729709,153.511002
90.750683,153.527905
94.842173,157.619395
94.876199,157.681707
94.876656,157.683906
94.889009,157.746005
94.889011,157.746011
94.952588,157.899500
94.995199,157.963271
95.044887,158.037635
95.044892,158.037641
95.162358,158.155107
95.162364,158.155112
95.300500,158.247412
95.453989,158.310989
95.616932,158.343400
95.616933,158.343400
95.783067,158.343400
95.783068,158.343400
95.946011,158.310989
96.099500,158.247412
96.237636,158.155112
96.355112,158.037636
96.447412,157.899500
96.510989,157.746011
96.543400,157.583068
96.543400,157.416932
96.510989,157.253989
96.447412,157.100500
96.355112,156.962364
96.355107,156.962358
96.237641,156.844892
96.237635,156.844887
96.124361,156.769200
96.099500,156.752588
96.002710,156.712496
95.946014,156.689012
95.946005,156.689009
95.883906,156.676656
95.820997,156.643748
95.819395,156.642173
92.177060,152.999837
92.094152,152.916929
115.556600,152.916929
115.556600,153.083070
115.565915,153.129898
115.589011,153.246011
115.652588,153.399500
115.687788,153.452180
115.744887,153.537635
115.744892,153.537641
115.862358,153.655107
115.862364,153.655112
116.000500,153.747412
116.153989,153.810989
116.316932,153.843400
116.316933,153.843400
116.483067,153.843400
116.483068,153.843400
116.646011,153.810989
116.799500,153.747412
116.852146,153.712235
116.919899,153.691020
116.922148,153.691000
125.380668,153.691000
125.428885,153.700590
125.453989,153.710989
125.616932,153.743400
125.616933,153.743400
125.783067,153.743400
125.783068,153.743400
125.946011,153.710989
126.099500,153.647412
126.237636,153.555112
126.355112,153.437636
126.447412,153.299500
126.510989,153.146011
126.543400,152.983068
126.543400,152.816932
126.510989,152.653989
126.447412,152.500500
126.355112,152.362364
126.355107,152.362358
126.237641,152.244892
126.237635,152.244887
126.191799,152.214260
126.099500,152.152588
125.946011,152.089011
125.783070,152.056600
125.783068,152.056600
125.616932,152.056600
125.616929,152.056600
125.453988,152.089011
125.453983,152.089013
125.300500,152.152588
125.162364,152.244887
125.162358,152.244892
125.135156,152.272095
125.072844,152.306121
125.046061,152.309000
116.922148,152.309000
116.854027,152.288998
116.852146,152.287765
116.799500,152.252588
116.646016,152.189013
116.646011,152.189011
116.483070,152.156600
116.483068,152.156600
116.316932,152.156600
116.316929,152.156600
116.153988,152.189011
116.153983,152.189013
116.000500,152.252588
115.862364,152.344887
115.862358,152.344892
115.744892,152.462358
115.744887,152.462364
115.652588,152.600500
115.589013,152.753983
115.589011,152.753988
115.556600,152.916929
92.094152,152.916929
91.440494,152.263271
91.440485,152.263263
91.426672,152.254034
91.381145,152.199557
91.372298,152.129114
91.402940,152.065070
91.463342,152.027759
91.472077,152.025695
91.546011,152.010989
91.699500,151.947412
91.837636,151.855112
91.955112,151.737636
92.047412,151.599500
92.110989,151.446011
92.143400,151.283068
92.143400,151.116932
92.110989,150.953989
92.047412,150.800500
91.955112,150.662364
91.955107,150.662358
91.837641,150.544892
91.837635,150.544887
91.717999,150.464949
91.699500,150.452588
91.546011,150.389011
91.383070,150.356600
91.383068,150.356600
91.216932,150.356600
91.216929,150.356600
91.053988,150.389011
91.053983,150.389013
90.900500,150.452588
90.762364,150.544887
90.644888,150.662364
90.644421,150.662934
90.644101,150.663151
90.640512,150.666741
90.639831,150.666060
90.585743,150.702903
90.547022,150.709000
89.672412,150.709000
89.604291,150.688998
89.557798,150.635342
89.547694,150.565068
89.577188,150.500488
89.583317,150.493905
91.246727,148.830495
91.246734,148.830488
91.322355,148.717312
91.374444,148.591558
91.386302,148.531943
91.400999,148.458059
91.400999,147.940243
91.421001,147.872122
91.422174,147.870330
91.457411,147.817596
91.520988,147.664107
91.553399,147.501164
91.553399,147.335028
91.520988,147.172085
91.457411,147.018596
91.365111,146.880460
91.365106,146.880454
91.247640,146.762988
91.247634,146.762983
91.157246,146.702588
91.109499,146.670684
90.956010,146.607107
90.953461,146.606600
90.793069,146.574696
90.793067,146.574696
90.626931,146.574696
90.626928,146.574696
90.463987,146.607107
90.463982,146.607109
90.310499,146.670684
90.172363,146.762983
90.172357,146.762988
90.054891,146.880454
90.054886,146.880460
89.962587,147.018596
89.899012,147.172079
89.899010,147.172084
89.866599,147.335025
89.866599,147.501166
89.899010,147.664107
89.899012,147.664112
89.962585,147.817593
89.962586,147.817595
89.962587,147.817596
89.997765,147.870243
90.003507,147.888581
90.013895,147.904745
90.018417,147.936200
90.018979,147.937993
90.018999,147.940243
90.018999,148.051588
89.998997,148.119709
89.982094,148.140683
87.980602,150.142174
87.918290,150.176200
87.916090,150.176658
87.891623,150.181524
87.853989,150.189011
87.853987,150.189011
87.853971,150.189015
87.853553,150.189142
87.853323,150.189144
87.847920,150.190219
87.847715,150.189193
87.782559,150.189763
87.722500,150.151902
87.692444,150.087581
87.691000,150.068561
87.691000,148.938412
87.711002,148.870291
87.727905,148.849317
87.906248,148.670974
88.086735,148.490487
88.162356,148.377312
88.214445,148.251558
88.225215,148.197412
88.241000,148.118058
88.241000,147.972147
88.261002,147.904026
88.262175,147.902234
88.297412,147.849500
88.360989,147.696011
88.393400,147.533068
88.393400,147.366932
88.360989,147.203989
88.297412,147.050500
88.205112,146.912364
88.205107,146.912358
88.087641,146.794892
88.087635,146.794887
88.024330,146.752588
87.949500,146.702588
87.796011,146.639011
87.633070,146.606600
87.633068,146.606600
87.466932,146.606600
87.466929,146.606600
87.303988,146.639011
87.303983,146.639013
87.150500,146.702588
87.012364,146.794887
87.012358,146.794892
86.894892,146.912358
86.894887,146.912364
86.802588,147.050500
86.739013,147.203983
86.739011,147.203988
86.706600,147.366929
86.706600,147.533070
86.739011,147.696011
86.739014,147.696021
86.761784,147.750993
86.769373,147.821583
86.737593,147.885070
86.734471,147.888305
86.463264,148.159513
86.407297,148.243275
86.407295,148.243278
86.401764,148.251557
86.387644,148.272689
86.335555,148.398443
86.335295,148.399747
86.331463,148.408076
86.309668,148.433082
86.288860,148.458904
86.286470,148.459699
86.284816,148.461598
86.252974,148.470848
86.221497,148.481325
86.219055,148.480701
86.216638,148.481404
86.184852,148.471971
86.152706,148.463767
86.150989,148.461923
86.148575,148.461207
86.126922,148.436073
86.104327,148.411804
86.103689,148.409104
86.102236,148.407418
86.100680,148.396371
86.091000,148.355405
86.091000,147.731941
86.090999,147.731938
86.064445,147.598443
86.012356,147.472689
85.988940,147.437644
85.936735,147.359513
85.936730,147.359508
85.936728,147.359505
85.814412,147.237189
85.787098,147.196312
85.777063,147.172085
85.747412,147.100500
85.655112,146.962364
85.655107,146.962358
85.537641,146.844892
85.537635,146.844887
85.462806,146.794888
85.399500,146.752588
85.246011,146.689011
85.083070,146.656600
85.083068,146.656600
84.916932,146.656600
84.916929,146.656600
84.753988,146.689011
84.753983,146.689013
84.600500,146.752588
84.462364,146.844887
84.462358,146.844892
84.344892,146.962358
84.344887,146.962364
84.252588,147.100500
84.189013,147.253983
84.189011,147.253988
84.156600,147.416929
81.856492,147.416929
81.801557,147.394174
81.758227,147.385555
81.758226,147.385554
81.668061,147.367619
81.668058,147.367619
81.197031,147.367619
81.128910,147.347617
81.107936,147.330714
80.057824,146.280602
80.023798,146.218290
80.023363,146.216204
80.010989,146.153989
79.947412,146.000500
79.855112,145.862364
79.855107,145.862358
79.737641,145.744892
79.737635,145.744887
79.691799,145.714260
79.599500,145.652588
79.446011,145.589011
79.283070,145.556600
79.283068,145.556600
79.116932,145.556600
79.116929,145.556600
78.953988,145.589011
78.953983,145.589013
78.800500,145.652588
78.662364,145.744887
78.662358,145.744892
78.544892,145.862358
78.544887,145.862364
78.452588,146.000500
78.389013,146.153983
78.389011,146.153988
78.356600,146.316929
66.332003,146.316929
66.317246,146.223757
66.251557,146.021588
66.155051,145.832184
66.030104,145.660208
66.030101,145.660205
66.030099,145.660202
65.879797,145.509900
65.879794,145.509898
65.879792,145.509896
65.707816,145.384949
65.702551,145.382266
65.650937,145.333520
65.633870,145.264606
65.656770,145.197404
65.702551,145.157733
65.707816,145.155051
65.879792,145.030104
66.030104,144.879792
66.155051,144.707816
66.251557,144.518412
66.317246,144.316243
66.350500,144.106287
66.350500,143.893713
66.317246,143.683757
66.251557,143.481588
66.155051,143.292184
66.030104,143.120208
66.030101,143.120205
66.030099,143.120202
65.879797,142.969900
65.879794,142.969898
65.879792,142.969896
65.707816,142.844949
65.702551,142.842266
65.650937,142.793520
65.633870,142.724606
65.656770,142.657404
65.702551,142.617733
65.707816,142.615051
65.879792,142.490104
66.030104,142.339792
66.155051,142.167816
66.251557,141.978412
66.317246,141.776243
66.350500,141.566287
66.350500,141.353713
66.317246,141.143757
66.251557,140.941588
66.155051,140.752184
66.030104,140.580208
66.030101,140.580205
66.030099,140.580202
65.879797,140.429900
65.879794,140.429898
65.879792,140.429896
65.707816,140.304949
65.518412,140.208443
65.316243,140.142754
65.106287,140.109500
64.893713,140.109500
64.683757,140.142754
64.683754,140.142754
64.683753,140.142755
64.481588,140.208443
64.481586,140.208444
64.292180,140.304951
64.120205,140.429898
64.120202,140.429900
63.969900,140.580202
63.969898,140.580205
63.844949,140.752183
63.842265,140.757451
63.793516,140.809065
63.724600,140.826129
63.657399,140.803226
63.617735,140.757451
63.615050,140.752183
63.615048,140.752180
63.490104,140.580208
63.490101,140.580205
63.490099,140.580202
63.339797,140.429900
63.339794,140.429898
63.339792,140.429896
63.167816,140.304949
62.978412,140.208443
62.776243,140.142754
62.566287,140.109500
62.353713,140.109500
62.143757,140.142754
62.143754,140.142754
62.143753,140.142755
61.941588,140.208443
61.941586,140.208444
61.752180,140.304951
61.580205,140.429898
61.580202,140.429900
61.429900,140.580202
61.429898,140.580205
61.304951,140.752180
61.304949,140.752184
61.208443,140.941588
61.142754,141.143757
61.109500,141.353713
60.500500,141.353713
60.500500,137.234650
122.353200,137.234650
122.353200,137.400791
122.361588,137.442959
122.385611,137.563732
122.449188,137.717221
122.510860,137.809520
122.541487,137.855356
122.541492,137.855362
122.658958,137.972828
122.658964,137.972833
122.797100,138.065133
122.950589,138.128710
123.113532,138.161121
123.113533,138.161121
123.279667,138.161121
123.279668,138.161121
123.442611,138.128710
123.596100,138.065133
123.675267,138.012235
123.743020,137.991020
123.745269,137.991000
125.121537,137.991000
125.189658,138.011002
125.191539,138.012235
125.195682,138.015003
125.333818,138.107303
125.487307,138.170880
125.650250,138.203291
125.650251,138.203291
125.816385,138.203291
125.816386,138.203291
125.979329,138.170880
126.132818,138.107303
126.270954,138.015003
126.388430,137.897527
126.480730,137.759391
126.544307,137.605902
126.576718,137.442959
126.576718,137.276823
126.544307,137.113880
126.480730,136.960391
126.388430,136.822255
126.388425,136.822249
126.270959,136.704783
126.270953,136.704778
126.207841,136.662608
126.132818,136.612479
125.979329,136.548902
125.816388,136.516491
125.816386,136.516491
125.650250,136.516491
125.650247,136.516491
125.487306,136.548902
125.487301,136.548904
125.365372,136.599409
125.317154,136.609000
123.692227,136.609000
123.624106,136.588998
123.622226,136.587766
123.596100,136.570309
123.466171,136.516491
123.442616,136.506734
123.442611,136.506732
123.279670,136.474321
123.279668,136.474321
123.113532,136.474321
123.113529,136.474321
122.950588,136.506732
122.950583,136.506734
122.797100,136.570309
122.658964,136.662608
122.658958,136.662613
122.541492,136.780079
122.541487,136.780085
122.449188,136.918221
122.385613,137.071704
122.385611,137.071709
122.353200,137.234650
60.500500,137.234650
60.500500,131.760709
63.181500,131.760709
63.181500,132.003290
63.213160,132.243782
63.275944,132.478095
63.275945,132.478097
63.275946,132.478100
63.368776,132.702212
63.368777,132.702213
63.368782,132.702224
63.490061,132.912285
63.490063,132.912288
63.490064,132.912289
63.637735,133.104738
63.637739,133.104742
63.637744,133.104748
63.809251,133.276255
63.809256,133.276259
63.809262,133.276265
64.001711,133.423936
64.001714,133.423938
64.211775,133.545217
64.211779,133.545218
64.211788,133.545224
64.435900,133.638054
64.670211,133.700838
64.670215,133.700838
64.670217,133.700839
64.732202,133.708999
64.910712,133.732500
64.910719,133.732500
65.153281,133.732500
65.153288,133.732500
65.370637,133.703885
65.393782,133.700839
65.393782,133.700838
65.393789,133.700838
65.628100,133.638054
65.852212,133.545224
66.062289,133.423936
66.254738,133.276265
66.426265,133.104738
66.573936,132.912289
66.695224,132.702212
66.788054,132.478100
66.850838,132.243789
66.882500,132.003288
66.882500,131.760712
66.853822,131.542878
66.850839,131.520217
66.850838,131.520215
66.850838,131.520211
66.788054,131.285900
66.695224,131.061788
66.695218,131.061779
66.695217,131.061775
66.573938,130.851714
66.567317,130.843085
66.426265,130.659262
66.426259,130.659256
66.426255,130.659251
66.254748,130.487744
66.254742,130.487739
66.254738,130.487735
66.062289,130.340064
66.062288,130.340063
66.062285,130.340061
65.852224,130.218782
65.852216,130.218778
65.852212,130.218776
65.628100,130.125946
65.628097,130.125945
65.628095,130.125944
65.393782,130.063160
65.153290,130.031500
65.153288,130.031500
64.910712,130.031500
64.910709,130.031500
64.670217,130.063160
64.435904,130.125944
64.435900,130.125946
64.276101,130.192137
64.211786,130.218777
64.211775,130.218782
64.001714,130.340061
63.809262,130.487735
63.809251,130.487744
63.637744,130.659251
63.637735,130.659262
63.490061,130.851714
63.368782,131.061775
63.368777,131.061786
63.275946,131.285900
63.275944,131.285904
63.213160,131.520217
63.181500,131.760709
60.500500,131.760709
60.500500,130.259504
60.520502,130.191383
60.537405,130.170409
63.560693,127.147121
146.818500,127.147121
146.818500,129.042864
146.818502,129.042885
146.824908,129.102480
146.824908,129.102481
146.875203,129.237330
146.899278,129.269491
146.924089,129.336011
146.908998,129.405385
146.899278,129.420509
146.875203,129.452669
146.824909,129.587515
146.818500,129.647121
146.818500,131.542864
146.818502,131.542885
146.824908,131.602480
146.824908,131.602481
146.875201,131.737326
146.875203,131.737329
146.961453,131.852546
147.019061,131.895671
147.076669,131.938796
147.076671,131.938796
147.076673,131.938798
147.137030,131.961309
147.211514,131.989090
147.211517,131.989091
147.271127,131.995500
149.866872,131.995499
149.926483,131.989091
150.061331,131.938796
150.176546,131.852546
150.262796,131.737331
150.313091,131.602483
150.319500,131.542873
150.319499,130.511230
152.718500,130.511230
152.718500,130.678769
152.751185,130.843085
152.769964,130.888420
152.815297,130.997863
152.861835,131.067512
152.908373,131.137161
152.908378,131.137167
153.026832,131.255621
153.026838,131.255626
153.166137,131.348703
153.320918,131.412816
153.485233,131.445500
153.485234,131.445500
153.652766,131.445500
153.652767,131.445500
153.817082,131.412816
153.971863,131.348703
154.111162,131.255626
154.229626,131.137162
154.322703,130.997863
154.386816,130.843082
154.419500,130.678767
154.419500,130.511233
154.419499,130.511230
155.218500,130.511230
155.218500,130.678769
155.251185,130.843085
155.269964,130.888420
155.315297,130.997863
155.361835,131.067512
155.408373,131.137161
155.408378,131.137167
155.526832,131.255621
155.526838,131.255626
155.666137,131.348703
155.820918,131.412816
155.985233,131.445500
155.985234,131.445500
156.152766,131.445500
156.152767,131.445500
156.317082,131.412816
156.471863,131.348703
156.611162,131.255626
156.729626,131.137162
156.822703,130.997863
156.886816,130.843082
156.919500,130.678767
156.919500,130.511233
156.886816,130.346918
156.822703,130.192137
156.729626,130.052838
156.729621,130.052832
156.611167,129.934378
156.611161,129.934373
156.471864,129.841298
156.471865,129.841298
156.471863,129.841297
156.317845,129.777500
156.317085,129.777185
156.317083,129.777184
156.317082,129.777184
156.234368,129.760731
156.152769,129.744500
156.152767,129.744500
155.985233,129.744500
155.985230,129.744500
155.862830,129.768847
155.820918,129.777184
155.820917,129.777184
155.820914,129.777185
155.666135,129.841298
155.526838,129.934373
155.526832,129.934378
155.408378,130.052832
155.408373,130.052838
155.315298,130.192135
155.315297,130.192137
155.304263,130.218776
155.251185,130.346914
155.218500,130.511230
154.419499,130.511230
154.386816,130.346918
154.322703,130.192137
154.229626,130.052838
154.229621,130.052832
154.111167,129.934378
154.111161,129.934373
153.971864,129.841298
153.971865,129.841298
153.971863,129.841297
153.817845,129.777500
153.817085,129.777185
153.817083,129.777184
153.817082,129.777184
153.734368,129.760731
153.652769,129.744500
153.652767,129.744500
153.485233,129.744500
153.485230,129.744500
153.362830,129.768847
153.320918,129.777184
153.320917,129.777184
153.320914,129.777185
153.166135,129.841298
153.026838,129.934373
153.026832,129.934378
152.908378,130.052832
152.908373,130.052838
152.815298,130.192135
152.815297,130.192137
152.804263,130.218776
152.751185,130.346914
152.718500,130.511230
150.319499,130.511230
150.319499,129.647128
150.313091,129.587517
150.262796,129.452669
150.238721,129.420509
150.213909,129.353992
150.228999,129.284618
150.238716,129.269497
150.262796,129.237331
150.313091,129.102483
150.319500,129.042873
150.319499,127.147128
150.313091,127.087517
150.291800,127.030435
150.262798,126.952673
150.262796,126.952670
150.262796,126.952669
150.218566,126.893585
150.176546,126.837453
150.099591,126.779845
150.061331,126.751204
150.061329,126.751203
150.061326,126.751201
149.926483,126.700909
149.926486,126.700909
149.866878,126.694500
147.271135,126.694500
147.271114,126.694502
147.211519,126.700908
147.211518,126.700908
147.076673,126.751201
147.076670,126.751203
146.961453,126.837453
146.875203,126.952670
146.875201,126.952673
146.824909,127.087515
146.818500,127.147121
63.560693,127.147121
65.196584,125.511230
147.718500,125.511230
147.718500,125.511233
147.718500,125.678767
147.751184,125.843082
147.815297,125.997863
147.815298,125.997864
147.908373,126.137161
147.908378,126.137167
148.026832,126.255621
148.026838,126.255626
148.166137,126.348703
148.294357,126.401814
148.320915,126.412815
148.320916,126.412815
148.320918,126.412816
148.485233,126.445500
148.652767,126.445500
148.817082,126.412816
148.971863,126.348703
149.111162,126.255626
149.229626,126.137162
149.322703,125.997863
149.386816,125.843082
149.419500,125.678767
149.419500,125.511233
149.386816,125.346918
149.322703,125.192137
149.229626,125.052838
149.229621,125.052832
149.111167,124.934378
149.111161,124.934373
149.018201,124.872259
148.971863,124.841297
148.817082,124.777184
148.724963,124.758860
148.667846,124.747499
148.667844,124.747499
148.652767,124.744500
148.485233,124.744500
148.470156,124.747499
148.470152,124.747499
148.372157,124.766991
148.320918,124.777184
148.320916,124.777184
148.320915,124.777185
148.166135,124.841298
148.026838,124.934373
148.026832,124.934378
147.908378,125.052832
147.908373,125.052838
147.815298,125.192135
147.751185,125.346914
147.718500,125.511230
65.196584,125.511230
71.060693,119.647121
146.818500,119.647121
146.818500,121.542864
146.818502,121.542885
146.824908,121.602480
146.824908,121.602481
146.875203,121.737330
146.899278,121.769491
146.924089,121.836011
146.908998,121.905385
146.899278,121.920509
146.875203,121.952669
146.824909,122.087515
146.818500,122.147121
146.818500,124.042864
146.818502,124.042885
146.824908,124.102480
146.824908,124.102481
146.875201,124.237326
146.875203,124.237329
146.961453,124.352546
147.019061,124.395671
147.076669,124.438796
147.076671,124.438796
147.076673,124.438798
147.137030,124.461309
147.211514,124.489090
147.211517,124.489091
147.271127,124.495500
149.866872,124.495499
149.926483,124.489091
150.061331,124.438796
150.176546,124.352546
150.218575,124.296402
152.161000,124.296402
152.161000,125.341000
153.169000,125.341000
153.169000,125.849000
152.161000,125.849000
152.161000,126.893597
152.167505,126.954093
152.218555,127.090964
152.218555,127.090965
152.306095,127.207904
152.423034,127.295444
152.559906,127.346494
152.620402,127.352999
152.620415,127.353000
153.315000,127.353000
153.315000,126.256686
153.323394,126.265080
153.414606,126.317741
153.516339,126.345000
153.621661,126.345000
153.723394,126.317741
153.814606,126.265080
153.823000,126.256686
153.823000,127.353000
154.517585,127.353000
154.517597,127.352999
154.578093,127.346494
154.714964,127.295444
154.714965,127.295444
154.831904,127.207904
154.919444,127.090965
154.919444,127.090964
154.970494,126.954093
154.976999,126.893597
154.977000,126.893585
154.977000,125.849000
153.969000,125.849000
153.969000,125.341000
154.977000,125.341000
154.977000,124.296414
154.976999,124.296402
154.970494,124.235906
154.919444,124.099035
154.919444,124.099034
154.831904,123.982095
154.714965,123.894555
154.578093,123.843505
154.517597,123.837000
153.823000,123.837000
153.823000,124.933314
153.814606,124.924920
153.723394,124.872259
153.621661,124.845000
153.516339,124.845000
153.414606,124.872259
153.323394,124.924920
153.315000,124.933314
153.315000,123.837000
152.620402,123.837000
152.559906,123.843505
152.423035,123.894555
152.423034,123.894555
152.306095,123.982095
152.218555,124.099034
152.218555,124.099035
152.167505,124.235906
152.161000,124.296402
150.218575,124.296402
150.262796,124.237331
150.313091,124.102483
150.319500,124.042873
150.319499,122.147128
150.313091,122.087517
150.262796,121.952669
150.238721,121.920509
150.213909,121.853992
150.228999,121.784618
150.238716,121.769497
150.262796,121.737331
150.313091,121.602483
150.319500,121.542873
150.319499,120.511230
152.718500,120.511230
152.718500,120.511233
152.718500,120.678767
152.751184,120.843082
152.815297,120.997863
152.815298,120.997864
152.908373,121.137161
152.908378,121.137167
153.026832,121.255621
153.026838,121.255626
153.166137,121.348703
153.320918,121.412816
153.485233,121.445500
153.485234,121.445500
153.652766,121.445500
153.652767,121.445500
153.817082,121.412816
153.971863,121.348703
154.111162,121.255626
154.229626,121.137162
154.322703,120.997863
154.386816,120.843082
154.419500,120.678767
154.419500,120.511233
154.419499,120.511230
155.218500,120.511230
155.218500,120.511233
155.218500,120.678767
155.251184,120.843082
155.315297,120.997863
155.315298,120.997864
155.408373,121.137161
155.408378,121.137167
155.526832,121.255621
155.526838,121.255626
155.666137,121.348703
155.820918,121.412816
155.985233,121.445500
155.985234,121.445500
156.152766,121.445500
156.152767,121.445500
156.317082,121.412816
156.471863,121.348703
156.611162,121.255626
156.729626,121.137162
156.822703,120.997863
156.886816,120.843082
156.919500,120.678767
156.919500,120.511233
156.886816,120.346918
156.822703,120.192137
156.729626,120.052838
156.729621,120.052832
156.611167,119.934378
156.611161,119.934373
156.471864,119.841298
156.471865,119.841298
156.471863,119.841297
156.358097,119.794173
156.317085,119.777185
156.317083,119.777184
156.317082,119.777184
156.234368,119.760731
156.152769,119.744500
156.152767,119.744500
155.985233,119.744500
155.985230,119.744500
155.862830,119.768847
155.820918,119.777184
155.820917,119.777184
155.820914,119.777185
155.666135,119.841298
155.526838,119.934373
155.526832,119.934378
155.408378,120.052832
155.408373,120.052838
155.315298,120.192135
155.251185,120.346914
155.218500,120.511230
154.419499,120.511230
154.386816,120.346918
154.322703,120.192137
154.229626,120.052838
154.229621,120.052832
154.111167,119.934378
154.111161,119.934373
153.971864,119.841298
153.971865,119.841298
153.971863,119.841297
153.858097,119.794173
153.817085,119.777185
153.817083,119.777184
153.817082,119.777184
153.734368,119.760731
153.652769,119.744500
153.652767,119.744500
153.485233,119.744500
153.485230,119.744500
153.362830,119.768847
153.320918,119.777184
153.320917,119.777184
153.320914,119.777185
153.166135,119.841298
153.026838,119.934373
153.026832,119.934378
152.908378,120.052832
152.908373,120.052838
152.815298,120.192135
152.751185,120.346914
152.718500,120.511230
150.319499,120.511230
150.319499,119.647128
150.313091,119.587517
150.291800,119.530435
150.262798,119.452673
150.262796,119.452670
150.262796,119.452669
150.219671,119.395061
150.176546,119.337453
150.083376,119.267707
150.061331,119.251204
150.061329,119.251203
150.061326,119.251201
149.926483,119.200909
149.926486,119.200909
149.866873,119.194500
147.271135,119.194500
147.271114,119.194502
147.211519,119.200908
147.211518,119.200908
147.076673,119.251201
147.076670,119.251203
146.961453,119.337453
146.875203,119.452670
146.875201,119.452673
146.824909,119.587515
146.818500,119.647121
71.060693,119.647121
75.170409,115.537405
75.232721,115.503379
75.259504,115.500500
154.434108,115.500500
154.497404,115.500500
Z" /> 
</g> 
</svg>
