<?xml version="1.0" standalone="no"?>
 <!DOCTYPE svg PUBLIC "-//W3C//DTD SVG 1.1//EN" 
 "http://www.w3.org/Graphics/SVG/1.1/DTD/svg11.dtd"> 
<svg
  xmlns:svg="http://www.w3.org/2000/svg"
  xmlns="http://www.w3.org/2000/svg"
  xmlns:xlink="http://www.w3.org/1999/xlink"
  version="1.1"
  width="10.215000000000002cm" height="5.215cm" viewBox="59.425 113.425 102.15 52.15">
<title>SVG Image created as rcbus-opl3-B_Cu.svg date 2025/09/29 20:59:22 </title>
  <desc>Image generated by PCBNEW </desc>
<g style="fill:#000000; fill-opacity:1.000000;stroke:#000000; stroke-opacity:1.000000;
stroke-linecap:round; stroke-linejoin:round;"
 transform="translate(0 0) scale(1 1)">
<path style="fill:#000000; fill-opacity:1.000000; stroke:none;fill-rule:evenodd;"
d="M 150.319000,129.195000
150.319000,130.995000
147.819000,130.995000
147.819000,129.195000
Z" /> 
<path style="fill:#000000; fill-opacity:1.000000; stroke:none;fill-rule:evenodd;"
d="M 150.319000,126.695000
150.319000,128.495000
147.819000,128.495000
147.819000,126.695000
Z" /> 
<path style="fill:#000000; fill-opacity:1.000000; stroke:none;fill-rule:evenodd;"
d="M 154.969000,123.845000
154.969000,126.345000
153.169000,126.345000
153.169000,123.845000
Z" /> 
<path style="fill:#000000; fill-opacity:1.000000; stroke:none;fill-rule:evenodd;"
d="M 150.319000,119.195000
150.319000,120.995000
147.819000,120.995000
147.819000,119.195000
Z" /> 
<path style="fill:#000000; fill-opacity:1.000000; stroke:none;fill-rule:evenodd;"
d="M 150.319000,121.695000
150.319000,123.495000
147.819000,123.495000
147.819000,121.695000
Z" /> 
<path style="fill:#000000; fill-opacity:1.000000; stroke:none;fill-rule:evenodd;"
d="M 65.850000,155.310000
65.850000,157.010000
64.150000,157.010000
64.150000,155.310000
Z" /> 
</g>
<g style="fill:#000000; fill-opacity:1.000000; stroke:none;">
<circle cx="62.460000" cy="156.160000" r="0.850000" /> 
</g>
<g style="fill:#000000; fill-opacity:1.000000; stroke:none;">
<circle cx="65.000000" cy="153.620000" r="0.850000" /> 
</g>
<g style="fill:#000000; fill-opacity:1.000000; stroke:none;">
<circle cx="62.460000" cy="153.620000" r="0.850000" /> 
</g>
<g style="fill:#000000; fill-opacity:1.000000; stroke:none;">
<circle cx="65.000000" cy="151.080000" r="0.850000" /> 
</g>
<g style="fill:#000000; fill-opacity:1.000000; stroke:none;">
<circle cx="62.460000" cy="151.080000" r="0.850000" /> 
</g>
<g style="fill:#000000; fill-opacity:1.000000; stroke:none;">
<circle cx="65.000000" cy="148.540000" r="0.850000" /> 
</g>
<g style="fill:#000000; fill-opacity:1.000000; stroke:none;">
<circle cx="62.460000" cy="148.540000" r="0.850000" /> 
</g>
<g style="fill:#000000; fill-opacity:1.000000; stroke:none;">
<circle cx="65.000000" cy="146.000000" r="0.850000" /> 
</g>
<g style="fill:#000000; fill-opacity:1.000000; stroke:none;">
<circle cx="62.460000" cy="146.000000" r="0.850000" /> 
</g>
<g style="fill:#000000; fill-opacity:1.000000; stroke:none;">
<circle cx="65.000000" cy="143.460000" r="0.850000" /> 
</g>
<g style="fill:#000000; fill-opacity:1.000000; stroke:none;">
<circle cx="62.460000" cy="143.460000" r="0.850000" /> 
<path style="fill:#000000; fill-opacity:1.000000; stroke:none;fill-rule:evenodd;"
d="M 62.850000,163.850000
61.150000,163.850000
61.150000,162.150000
62.850000,162.150000
Z" /> 
</g>
<g style="fill:#000000; fill-opacity:1.000000; stroke:none;">
<circle cx="64.540000" cy="163.000000" r="0.850000" /> 
<circle cx="67.080000" cy="163.000000" r="0.850000" /> 
<circle cx="69.620000" cy="163.000000" r="0.850000" /> 
<circle cx="72.160000" cy="163.000000" r="0.850000" /> 
<circle cx="74.700000" cy="163.000000" r="0.850000" /> 
<circle cx="77.240000" cy="163.000000" r="0.850000" /> 
<circle cx="79.780000" cy="163.000000" r="0.850000" /> 
<circle cx="82.320000" cy="163.000000" r="0.850000" /> 
<circle cx="84.860000" cy="163.000000" r="0.850000" /> 
<circle cx="87.400000" cy="163.000000" r="0.850000" /> 
<circle cx="89.940000" cy="163.000000" r="0.850000" /> 
<circle cx="92.480000" cy="163.000000" r="0.850000" /> 
<circle cx="95.020000" cy="163.000000" r="0.850000" /> 
<circle cx="97.560000" cy="163.000000" r="0.850000" /> 
<circle cx="100.100000" cy="163.000000" r="0.850000" /> 
<circle cx="102.640000" cy="163.000000" r="0.850000" /> 
<circle cx="105.180000" cy="163.000000" r="0.850000" /> 
<circle cx="107.720000" cy="163.000000" r="0.850000" /> 
<circle cx="110.260000" cy="163.000000" r="0.850000" /> 
<circle cx="112.800000" cy="163.000000" r="0.850000" /> 
<circle cx="115.340000" cy="163.000000" r="0.850000" /> 
<circle cx="117.880000" cy="163.000000" r="0.850000" /> 
<circle cx="120.420000" cy="163.000000" r="0.850000" /> 
<circle cx="122.960000" cy="163.000000" r="0.850000" /> 
<circle cx="125.500000" cy="163.000000" r="0.850000" /> 
<circle cx="128.040000" cy="163.000000" r="0.850000" /> 
<circle cx="130.580000" cy="163.000000" r="0.850000" /> 
<circle cx="133.120000" cy="163.000000" r="0.850000" /> 
<circle cx="135.660000" cy="163.000000" r="0.850000" /> 
<circle cx="138.200000" cy="163.000000" r="0.850000" /> 
<circle cx="140.740000" cy="163.000000" r="0.850000" /> 
<circle cx="143.280000" cy="163.000000" r="0.850000" /> 
<circle cx="145.820000" cy="163.000000" r="0.850000" /> 
<circle cx="148.360000" cy="163.000000" r="0.850000" /> 
<circle cx="150.900000" cy="163.000000" r="0.850000" /> 
<circle cx="153.440000" cy="163.000000" r="0.850000" /> 
<circle cx="155.980000" cy="163.000000" r="0.850000" /> 
<circle cx="158.520000" cy="163.000000" r="0.850000" /> 
<circle cx="92.212600" cy="154.250000" r="0.342900" /> 
</g>
<g style="fill:#000000; fill-opacity:1.000000; stroke:none;">
<circle cx="100.722512" cy="154.075500" r="0.342900" /> 
</g>
<g style="fill:#000000; fill-opacity:1.000000; stroke:none;">
<circle cx="76.000000" cy="153.510000" r="0.342900" /> 
</g>
<g style="fill:#000000; fill-opacity:1.000000; stroke:none;">
<circle cx="76.000000" cy="143.500000" r="0.342900" /> 
</g>
<g style="fill:#000000; fill-opacity:1.000000; stroke:none;">
<circle cx="144.500000" cy="157.250000" r="0.342900" /> 
</g>
<g style="fill:#000000; fill-opacity:1.000000; stroke:none;">
<circle cx="121.276187" cy="131.110261" r="0.342900" /> 
</g>
<g style="fill:#000000; fill-opacity:1.000000; stroke:none;">
<circle cx="109.500000" cy="141.000000" r="0.342900" /> 
</g>
<g style="fill:#000000; fill-opacity:1.000000; stroke:none;">
<circle cx="87.000000" cy="139.750000" r="0.342900" /> 
</g>
<g style="fill:#000000; fill-opacity:1.000000; stroke:none;">
<circle cx="139.000000" cy="125.250000" r="0.342900" /> 
</g>
<g style="fill:#000000; fill-opacity:1.000000; stroke:none;">
<circle cx="97.750000" cy="157.750000" r="0.342900" /> 
</g>
<g style="fill:#000000; fill-opacity:1.000000; stroke:none;">
<circle cx="142.000000" cy="157.250000" r="0.342900" /> 
</g>
<g style="fill:#000000; fill-opacity:1.000000; stroke:none;">
<circle cx="82.000000" cy="134.750000" r="0.342900" /> 
</g>
<g style="fill:#000000; fill-opacity:1.000000; stroke:none;">
<circle cx="96.250000" cy="134.250000" r="0.342900" /> 
</g>
<g style="fill:#000000; fill-opacity:1.000000; stroke:none;">
<circle cx="61.000000" cy="155.000000" r="0.342900" /> 
</g>
<g style="fill:#000000; fill-opacity:1.000000; stroke:none;">
<circle cx="117.800000" cy="116.258122" r="0.342900" /> 
</g>
<g style="fill:#000000; fill-opacity:1.000000; stroke:none;">
<circle cx="128.485000" cy="158.500000" r="0.342900" /> 
</g>
<g style="fill:#000000; fill-opacity:1.000000; stroke:none;">
<circle cx="76.000000" cy="156.000000" r="0.342900" /> 
</g>
<g style="fill:#000000; fill-opacity:1.000000; stroke:none;">
<circle cx="101.750000" cy="148.000000" r="0.342900" /> 
</g>
<g style="fill:#000000; fill-opacity:1.000000; stroke:none;">
<circle cx="76.000000" cy="148.490000" r="0.342900" /> 
</g>
<g style="fill:#000000; fill-opacity:1.000000; stroke:none;">
<circle cx="116.000000" cy="160.750000" r="0.342900" /> 
</g>
<g style="fill:#000000; fill-opacity:1.000000; stroke:none;">
<circle cx="115.825000" cy="139.750000" r="0.342900" /> 
</g>
<g style="fill:#000000; fill-opacity:1.000000; stroke:none;">
<circle cx="119.137499" cy="122.655196" r="0.342900" /> 
</g>
<g style="fill:#000000; fill-opacity:1.000000; stroke:none;">
<circle cx="109.500000" cy="156.750000" r="0.342900" /> 
</g>
<g style="fill:#000000; fill-opacity:1.000000; stroke:none;">
<circle cx="83.424718" cy="145.731499" r="0.342900" /> 
</g>
<g style="fill:#000000; fill-opacity:1.000000; stroke:none;">
<circle cx="78.000000" cy="145.000000" r="0.342900" /> 
</g>
<g style="fill:#000000; fill-opacity:1.000000; stroke:none;">
<circle cx="119.250001" cy="131.256115" r="0.342900" /> 
</g>
<g style="fill:#000000; fill-opacity:1.000000; stroke:none;">
<circle cx="61.000000" cy="150.000000" r="0.342900" /> 
</g>
<g style="fill:#000000; fill-opacity:1.000000; stroke:none;">
<circle cx="120.500000" cy="116.258122" r="0.342900" /> 
</g>
<g style="fill:#000000; fill-opacity:1.000000; stroke:none;">
<circle cx="138.750000" cy="135.250000" r="0.342900" /> 
</g>
<g style="fill:#000000; fill-opacity:1.000000; stroke:none;">
<circle cx="115.500000" cy="130.242697" r="0.342900" /> 
</g>
<g style="fill:#000000; fill-opacity:1.000000; stroke:none;">
<circle cx="61.000000" cy="160.000000" r="0.342900" /> 
</g>
<g style="fill:#000000; fill-opacity:1.000000; stroke:none;">
<circle cx="61.000000" cy="145.000000" r="0.342900" /> 
</g>
<g style="fill:#000000; fill-opacity:1.000000; stroke:none;">
<circle cx="132.750000" cy="151.500000" r="0.342900" /> 
</g>
<g style="fill:#000000; fill-opacity:1.000000; stroke:none;">
<circle cx="92.310001" cy="158.000000" r="0.342900" /> 
</g>
<g style="fill:#000000; fill-opacity:1.000000; stroke:none;">
<circle cx="90.000000" cy="140.250000" r="0.342900" /> 
</g>
<g style="fill:#000000; fill-opacity:1.000000; stroke:none;">
<circle cx="76.000000" cy="146.060000" r="0.342900" /> 
</g>
<g style="fill:#000000; fill-opacity:1.000000; stroke:none;">
<circle cx="76.000000" cy="151.000000" r="0.342900" /> 
</g>
<g style="fill:#000000; fill-opacity:1.000000; stroke:none;">
<circle cx="123.800000" cy="158.500000" r="0.342900" /> 
</g>
<g style="fill:#000000; fill-opacity:1.000000; stroke:none;">
<circle cx="84.770729" cy="154.688895" r="0.342900" /> 
</g>
<g style="fill:#000000; fill-opacity:1.000000; stroke:none;">
<circle cx="117.000000" cy="144.200000" r="0.342900" /> 
</g>
<g style="fill:#000000; fill-opacity:1.000000; stroke:none;">
<circle cx="119.600000" cy="142.600000" r="0.342900" /> 
</g>
<g style="fill:#000000; fill-opacity:1.000000; stroke:none;">
<circle cx="89.856434" cy="150.522100" r="0.342900" /> 
</g>
<g style="fill:#000000; fill-opacity:1.000000; stroke:none;">
<circle cx="81.368224" cy="153.118224" r="0.342900" /> 
</g>
<g style="fill:#000000; fill-opacity:1.000000; stroke:none;">
<circle cx="85.933864" cy="152.726900" r="0.342900" /> 
</g>
<g style="fill:#000000; fill-opacity:1.000000; stroke:none;">
<circle cx="85.921125" cy="154.936700" r="0.342900" /> 
</g>
<g style="fill:#000000; fill-opacity:1.000000; stroke:none;">
<circle cx="73.225001" cy="144.546399" r="0.342900" /> 
</g>
<g style="fill:#000000; fill-opacity:1.000000; stroke:none;">
<circle cx="83.420000" cy="158.250000" r="0.342900" /> 
</g>
<g style="fill:#000000; fill-opacity:1.000000; stroke:none;">
<circle cx="78.805238" cy="153.471756" r="0.342900" /> 
</g>
<g style="fill:#000000; fill-opacity:1.000000; stroke:none;">
<circle cx="90.500000" cy="149.817600" r="0.342900" /> 
</g>
<g style="fill:#000000; fill-opacity:1.000000; stroke:none;">
<circle cx="80.874257" cy="151.454431" r="0.342900" /> 
</g>
<g style="fill:#000000; fill-opacity:1.000000; stroke:none;">
<circle cx="79.176756" cy="151.880846" r="0.342900" /> 
</g>
<g style="fill:none; 
stroke:#000000; stroke-width:0.762000; stroke-opacity:1; 
stroke-linecap:round; stroke-linejoin:round;">
<path d="M100.596026 154.250000
L100.722512 154.123514
" />
<path d="M100.722512 158.542512
L100.722512 154.075500
" />
<path d="M105.180000 163.000000
L100.722512 158.542512
" />
<path d="M92.212600 154.250000
L100.596026 154.250000
" />
<path d="M100.722512 154.123514
L100.722512 154.075500
" />
</g>
<g style="fill:none; 
stroke:#000000; stroke-width:0.381000; stroke-opacity:1; 
stroke-linecap:round; stroke-linejoin:round;">
<path d="M86.247277 155.724100
L85.594973 155.724100
" />
<path d="M123.800000 158.500000
L118.550000 153.250000
" />
<path d="M85.594973 155.724100
L84.770729 154.899856
" />
<path d="M84.770729 154.899856
L84.770729 154.688895
" />
<path d="M88.721377 153.250000
L86.247277 155.724100
" />
<path d="M118.550000 153.250000
L88.721377 153.250000
" />
<path d="M118.000000 144.200000
L119.600000 142.600000
" />
<path d="M117.000000 144.200000
L118.000000 144.200000
" />
<path d="M83.964348 150.522100
L89.856434 150.522100
" />
<path d="M81.368224 153.118224
L83.964348 150.522100
" />
<path d="M85.921125 152.739639
L85.921125 154.936700
" />
<path d="M85.933864 152.726900
L85.921125 152.739639
" />
<path d="M73.225001 154.838553
L76.636448 158.250000
" />
<path d="M73.225001 144.546399
L73.225001 154.838553
" />
<path d="M76.636448 158.250000
L83.420000 158.250000
" />
<path d="M79.946170 152.330824
L78.805238 153.471756
" />
<path d="M90.500000 149.817600
L90.417100 149.734700
" />
<path d="M81.257598 152.330824
L79.946170 152.330824
" />
<path d="M90.417100 149.734700
L83.853722 149.734700
" />
<path d="M83.853722 149.734700
L81.257598 152.330824
" />
<path d="M79.176756 151.880846
L79.603171 151.454431
" />
<path d="M79.603171 151.454431
L80.874257 151.454431
" />
<path style="fill:#000000; fill-opacity:1.000000; stroke:none;fill-rule:evenodd;"
d="M 155.002611,114.575608
155.442760,114.593812
155.453109,114.594669
155.887674,114.648838
155.897938,114.650551
156.326544,114.740420
156.336612,114.742969
156.756351,114.867931
156.766183,114.871307
156.923625,114.932741
157.174138,115.030492
157.183675,115.034675
157.577094,115.227006
157.586252,115.231962
157.962439,115.456120
157.971158,115.461816
158.327560,115.716282
158.335767,115.722669
158.669954,116.005712
158.677602,116.012754
158.987245,116.322397
158.994288,116.330046
159.277327,116.664229
159.283717,116.672439
159.538183,117.028841
159.543879,117.037560
159.768037,117.413747
159.772993,117.422905
159.965324,117.816324
159.969507,117.825861
160.128689,118.233807
160.132071,118.243657
160.257026,118.663373
160.259582,118.673468
160.349447,119.102057
160.351161,119.112329
160.405328,119.546876
160.406188,119.557254
160.424392,119.997388
160.424500,120.002595
160.424500,121.337500
160.404498,121.405621
160.350842,121.452114
160.298500,121.463500
159.536531,121.463500
159.512000,121.463500
159.416102,121.463500
159.226667,121.493503
159.226664,121.493503
159.226663,121.493504
159.044259,121.552771
158.873363,121.639847
158.718197,121.752582
158.718194,121.752584
158.582584,121.888194
158.582582,121.888197
158.469847,122.043363
158.382771,122.214259
158.349423,122.316893
158.323503,122.396667
158.293500,122.586102
158.293500,122.666982
158.293500,127.483469
158.293500,127.508000
158.293500,127.603898
158.323503,127.793333
158.382772,127.975742
158.469845,128.146633
158.582580,128.301800
158.582582,128.301802
158.582584,128.301805
158.718194,128.437415
158.718197,128.437417
158.718200,128.437420
158.873367,128.550155
159.044258,128.637228
159.226667,128.696497
159.416102,128.726500
159.496982,128.726500
160.298500,128.726500
160.366621,128.746502
160.413114,128.800158
160.424500,128.852500
160.424500,164.298500
160.404498,164.366621
160.350842,164.413114
160.298500,164.424500
159.223820,164.424500
159.155699,164.404498
159.109206,164.350842
159.099102,164.280568
159.128596,164.215988
159.166615,164.186234
159.227816,164.155051
159.399792,164.030104
159.550104,163.879792
159.675051,163.707816
159.771557,163.518412
159.837246,163.316243
159.870500,163.106287
159.870500,162.893713
159.837246,162.683757
159.771557,162.481588
159.675051,162.292184
159.550104,162.120208
159.550101,162.120205
159.550099,162.120202
159.399797,161.969900
159.399794,161.969898
159.399792,161.969896
159.227816,161.844949
159.038412,161.748443
158.836243,161.682754
158.626287,161.649500
158.413713,161.649500
158.203757,161.682754
158.203754,161.682754
158.203753,161.682755
158.001588,161.748443
158.001586,161.748444
157.812180,161.844951
157.640205,161.969898
157.640202,161.969900
157.489900,162.120202
157.489898,162.120205
157.364949,162.292183
157.362265,162.297451
157.313516,162.349065
157.244600,162.366129
157.177399,162.343226
157.137735,162.297451
157.135050,162.292183
157.135048,162.292180
157.010104,162.120208
157.010101,162.120205
157.010099,162.120202
156.859797,161.969900
156.859794,161.969898
156.859792,161.969896
156.687816,161.844949
156.498412,161.748443
156.296243,161.682754
156.086287,161.649500
155.873713,161.649500
155.663757,161.682754
155.663754,161.682754
155.663753,161.682755
155.461588,161.748443
155.461586,161.748444
155.272180,161.844951
155.100205,161.969898
155.100202,161.969900
154.949900,162.120202
154.949898,162.120205
154.824949,162.292183
154.822265,162.297451
154.773516,162.349065
154.704600,162.366129
154.637399,162.343226
154.597735,162.297451
154.595050,162.292183
154.595048,162.292180
154.470104,162.120208
154.470101,162.120205
154.470099,162.120202
154.319797,161.969900
154.319794,161.969898
154.319792,161.969896
154.147816,161.844949
153.958412,161.748443
153.756243,161.682754
153.546287,161.649500
153.333713,161.649500
153.123757,161.682754
153.123754,161.682754
153.123753,161.682755
152.921588,161.748443
152.921586,161.748444
152.732180,161.844951
152.560205,161.969898
152.560202,161.969900
152.409900,162.120202
152.409898,162.120205
152.284949,162.292183
152.282265,162.297451
152.233516,162.349065
152.164600,162.366129
152.097399,162.343226
152.057735,162.297451
152.055050,162.292183
152.055048,162.292180
151.930104,162.120208
151.930101,162.120205
151.930099,162.120202
151.779797,161.969900
151.779794,161.969898
151.779792,161.969896
151.607816,161.844949
151.418412,161.748443
151.216243,161.682754
151.006287,161.649500
150.793713,161.649500
150.583757,161.682754
150.583754,161.682754
150.583753,161.682755
150.381588,161.748443
150.381586,161.748444
150.192180,161.844951
150.020205,161.969898
150.020202,161.969900
149.869900,162.120202
149.869898,162.120205
149.744949,162.292183
149.742265,162.297451
149.693516,162.349065
149.624600,162.366129
149.557399,162.343226
149.517735,162.297451
149.515050,162.292183
149.515048,162.292180
149.390104,162.120208
149.390101,162.120205
149.390099,162.120202
149.239797,161.969900
149.239794,161.969898
149.239792,161.969896
149.067816,161.844949
148.878412,161.748443
148.676243,161.682754
148.466287,161.649500
148.253713,161.649500
148.043757,161.682754
148.043754,161.682754
148.043753,161.682755
147.841588,161.748443
147.841586,161.748444
147.652180,161.844951
147.480205,161.969898
147.480202,161.969900
147.329900,162.120202
147.329898,162.120205
147.204949,162.292183
147.202265,162.297451
147.153516,162.349065
147.084600,162.366129
147.017399,162.343226
146.977735,162.297451
146.975050,162.292183
146.975048,162.292180
146.850104,162.120208
146.850101,162.120205
146.850099,162.120202
146.699797,161.969900
146.699794,161.969898
146.699792,161.969896
146.527816,161.844949
146.338412,161.748443
146.136243,161.682754
145.926287,161.649500
145.713713,161.649500
145.503757,161.682754
145.503754,161.682754
145.503753,161.682755
145.301588,161.748443
145.301586,161.748444
145.112180,161.844951
144.940205,161.969898
144.940202,161.969900
144.789900,162.120202
144.789898,162.120205
144.664949,162.292183
144.662265,162.297451
144.613516,162.349065
144.544600,162.366129
144.477399,162.343226
144.437735,162.297451
144.435050,162.292183
144.435048,162.292180
144.310104,162.120208
144.310101,162.120205
144.310099,162.120202
144.159797,161.969900
144.159794,161.969898
144.159792,161.969896
143.987816,161.844949
143.798412,161.748443
143.596243,161.682754
143.386287,161.649500
143.173713,161.649500
142.963757,161.682754
142.963754,161.682754
142.963753,161.682755
142.761588,161.748443
142.761586,161.748444
142.572180,161.844951
142.400205,161.969898
142.400202,161.969900
142.249900,162.120202
142.249898,162.120205
142.124949,162.292183
142.122265,162.297451
142.073516,162.349065
142.004600,162.366129
141.937399,162.343226
141.897735,162.297451
141.895050,162.292183
141.895048,162.292180
141.770104,162.120208
141.770101,162.120205
141.770099,162.120202
141.619797,161.969900
141.619794,161.969898
141.619792,161.969896
141.447816,161.844949
141.258412,161.748443
141.056243,161.682754
140.846287,161.649500
140.633713,161.649500
140.423757,161.682754
140.423754,161.682754
140.423753,161.682755
140.221588,161.748443
140.221586,161.748444
140.032180,161.844951
139.860205,161.969898
139.860202,161.969900
139.709900,162.120202
139.709898,162.120205
139.584949,162.292183
139.582265,162.297451
139.533516,162.349065
139.464600,162.366129
139.397399,162.343226
139.357735,162.297451
139.355050,162.292183
139.355048,162.292180
139.230104,162.120208
139.230101,162.120205
139.230099,162.120202
139.079797,161.969900
139.079794,161.969898
139.079792,161.969896
138.907816,161.844949
138.718412,161.748443
138.516243,161.682754
138.306287,161.649500
138.093713,161.649500
137.883757,161.682754
137.883754,161.682754
137.883753,161.682755
137.681588,161.748443
137.681586,161.748444
137.492180,161.844951
137.320205,161.969898
137.320202,161.969900
137.169900,162.120202
137.169898,162.120205
137.044949,162.292183
137.042265,162.297451
136.993516,162.349065
136.924600,162.366129
136.857399,162.343226
136.817735,162.297451
136.815050,162.292183
136.815048,162.292180
136.690104,162.120208
136.690101,162.120205
136.690099,162.120202
136.539797,161.969900
136.539794,161.969898
136.539792,161.969896
136.367816,161.844949
136.178412,161.748443
135.976243,161.682754
135.766287,161.649500
135.553713,161.649500
135.343757,161.682754
135.343754,161.682754
135.343753,161.682755
135.141588,161.748443
135.141586,161.748444
134.952180,161.844951
134.780205,161.969898
134.780202,161.969900
134.629900,162.120202
134.629898,162.120205
134.504949,162.292183
134.502265,162.297451
134.453516,162.349065
134.384600,162.366129
134.317399,162.343226
134.277735,162.297451
134.275050,162.292183
134.275048,162.292180
134.150104,162.120208
134.150101,162.120205
134.150099,162.120202
133.999797,161.969900
133.999794,161.969898
133.999792,161.969896
133.827816,161.844949
133.638412,161.748443
133.436243,161.682754
133.226287,161.649500
133.013713,161.649500
132.803757,161.682754
132.803754,161.682754
132.803753,161.682755
132.601588,161.748443
132.601586,161.748444
132.412180,161.844951
132.240205,161.969898
132.240202,161.969900
132.089900,162.120202
132.089898,162.120205
131.964949,162.292183
131.962265,162.297451
131.913516,162.349065
131.844600,162.366129
131.777399,162.343226
131.737735,162.297451
131.735050,162.292183
131.735048,162.292180
131.610104,162.120208
131.610101,162.120205
131.610099,162.120202
131.459797,161.969900
131.459794,161.969898
131.459792,161.969896
131.287816,161.844949
131.098412,161.748443
130.896243,161.682754
130.686287,161.649500
130.473713,161.649500
130.263757,161.682754
130.263754,161.682754
130.263753,161.682755
130.061588,161.748443
130.061586,161.748444
129.872180,161.844951
129.700205,161.969898
129.700202,161.969900
129.549900,162.120202
129.549898,162.120205
129.424949,162.292183
129.422265,162.297451
129.373516,162.349065
129.304600,162.366129
129.237399,162.343226
129.197735,162.297451
129.195050,162.292183
129.195048,162.292180
129.070104,162.120208
129.070101,162.120205
129.070099,162.120202
128.919797,161.969900
128.919794,161.969898
128.919792,161.969896
128.747816,161.844949
128.558412,161.748443
128.356243,161.682754
128.146287,161.649500
127.933713,161.649500
127.723757,161.682754
127.723754,161.682754
127.723753,161.682755
127.521588,161.748443
127.521586,161.748444
127.332180,161.844951
127.160205,161.969898
127.160202,161.969900
127.009900,162.120202
127.009898,162.120205
126.884949,162.292183
126.882265,162.297451
126.833516,162.349065
126.764600,162.366129
126.697399,162.343226
126.657735,162.297451
126.655050,162.292183
126.655048,162.292180
126.530104,162.120208
126.530101,162.120205
126.530099,162.120202
126.379797,161.969900
126.379794,161.969898
126.379792,161.969896
126.207816,161.844949
126.018412,161.748443
125.816243,161.682754
125.606287,161.649500
125.393713,161.649500
125.183757,161.682754
125.183754,161.682754
125.183753,161.682755
124.981588,161.748443
124.981586,161.748444
124.792180,161.844951
124.620205,161.969898
124.620202,161.969900
124.469900,162.120202
124.469898,162.120205
124.344949,162.292183
124.342265,162.297451
124.293516,162.349065
124.224600,162.366129
124.157399,162.343226
124.117735,162.297451
124.115050,162.292183
124.115048,162.292180
123.990104,162.120208
123.990101,162.120205
123.990099,162.120202
123.839797,161.969900
123.839794,161.969898
123.839792,161.969896
123.667816,161.844949
123.478412,161.748443
123.276243,161.682754
123.066287,161.649500
122.853713,161.649500
122.643757,161.682754
122.643754,161.682754
122.643753,161.682755
122.441588,161.748443
122.441586,161.748444
122.252180,161.844951
122.080205,161.969898
122.080202,161.969900
121.929900,162.120202
121.929898,162.120205
121.804949,162.292183
121.802265,162.297451
121.753516,162.349065
121.684600,162.366129
121.617399,162.343226
121.577735,162.297451
121.575050,162.292183
121.575048,162.292180
121.450104,162.120208
121.450101,162.120205
121.450099,162.120202
121.299797,161.969900
121.299794,161.969898
121.299792,161.969896
121.127816,161.844949
120.938412,161.748443
120.736243,161.682754
120.526287,161.649500
120.313713,161.649500
120.103757,161.682754
120.103754,161.682754
120.103753,161.682755
119.901588,161.748443
119.901586,161.748444
119.712180,161.844951
119.540205,161.969898
119.540202,161.969900
119.389900,162.120202
119.389898,162.120205
119.264949,162.292183
119.262265,162.297451
119.213516,162.349065
119.144600,162.366129
119.077399,162.343226
119.037735,162.297451
119.035050,162.292183
119.035048,162.292180
118.910104,162.120208
118.910101,162.120205
118.910099,162.120202
118.759797,161.969900
118.759794,161.969898
118.759792,161.969896
118.587816,161.844949
118.398412,161.748443
118.196243,161.682754
117.986287,161.649500
117.773713,161.649500
117.563757,161.682754
117.563754,161.682754
117.563753,161.682755
117.361588,161.748443
117.361586,161.748444
117.172180,161.844951
117.000205,161.969898
117.000202,161.969900
116.849900,162.120202
116.849898,162.120205
116.724949,162.292183
116.722265,162.297451
116.673516,162.349065
116.604600,162.366129
116.537399,162.343226
116.497735,162.297451
116.495050,162.292183
116.495048,162.292180
116.370104,162.120208
116.370101,162.120205
116.370099,162.120202
116.219797,161.969900
116.219794,161.969898
116.219792,161.969896
116.047816,161.844949
115.858412,161.748443
115.656243,161.682754
115.446287,161.649500
115.233713,161.649500
115.023757,161.682754
115.023754,161.682754
115.023753,161.682755
114.821588,161.748443
114.821586,161.748444
114.632180,161.844951
114.460205,161.969898
114.460202,161.969900
114.309900,162.120202
114.309898,162.120205
114.184949,162.292183
114.182265,162.297451
114.133516,162.349065
114.064600,162.366129
113.997399,162.343226
113.957735,162.297451
113.955050,162.292183
113.955048,162.292180
113.830104,162.120208
113.830101,162.120205
113.830099,162.120202
113.679797,161.969900
113.679794,161.969898
113.679792,161.969896
113.507816,161.844949
113.318412,161.748443
113.116243,161.682754
112.906287,161.649500
112.693713,161.649500
112.483757,161.682754
112.483754,161.682754
112.483753,161.682755
112.281588,161.748443
112.281586,161.748444
112.092180,161.844951
111.920205,161.969898
111.920202,161.969900
111.769900,162.120202
111.769898,162.120205
111.644949,162.292183
111.642265,162.297451
111.593516,162.349065
111.524600,162.366129
111.457399,162.343226
111.417735,162.297451
111.415050,162.292183
111.415048,162.292180
111.290104,162.120208
111.290101,162.120205
111.290099,162.120202
111.139797,161.969900
111.139794,161.969898
111.139792,161.969896
110.967816,161.844949
110.778412,161.748443
110.576243,161.682754
110.366287,161.649500
110.153713,161.649500
109.943757,161.682754
109.943754,161.682754
109.943753,161.682755
109.741588,161.748443
109.741586,161.748444
109.552180,161.844951
109.380205,161.969898
109.380202,161.969900
109.229900,162.120202
109.229898,162.120205
109.104949,162.292183
109.102265,162.297451
109.053516,162.349065
108.984600,162.366129
108.917399,162.343226
108.877735,162.297451
108.875050,162.292183
108.875048,162.292180
108.750104,162.120208
108.750101,162.120205
108.750099,162.120202
108.599797,161.969900
108.599794,161.969898
108.599792,161.969896
108.427816,161.844949
108.238412,161.748443
108.036243,161.682754
107.826287,161.649500
107.613713,161.649500
107.403757,161.682754
107.403754,161.682754
107.403753,161.682755
107.201588,161.748443
107.201586,161.748444
107.012180,161.844951
106.840205,161.969898
106.840202,161.969900
106.689900,162.120202
106.689898,162.120205
106.564949,162.292183
106.562265,162.297451
106.513516,162.349065
106.444600,162.366129
106.377399,162.343226
106.337735,162.297451
106.335050,162.292183
106.335048,162.292180
106.210104,162.120208
106.210101,162.120205
106.210099,162.120202
106.059797,161.969900
106.059794,161.969898
106.059792,161.969896
105.887816,161.844949
105.698412,161.748443
105.496243,161.682754
105.286287,161.649500
105.286284,161.649500
105.128320,161.649500
105.060199,161.629498
105.039225,161.612595
101.640917,158.214287
101.606891,158.151975
101.604012,158.125192
101.604012,154.067000
101.624014,153.998879
101.677670,153.952386
101.730012,153.941000
118.211588,153.941000
118.279709,153.961002
118.300683,153.977905
122.942174,158.619396
122.976200,158.681708
122.976657,158.683907
122.989011,158.746011
123.052588,158.899500
123.114260,158.991799
123.144887,159.037635
123.144892,159.037641
123.262358,159.155107
123.262364,159.155112
123.400500,159.247412
123.553989,159.310989
123.716932,159.343400
123.716933,159.343400
123.883067,159.343400
123.883068,159.343400
124.046011,159.310989
124.199500,159.247412
124.337636,159.155112
124.455112,159.037636
124.547412,158.899500
124.610989,158.746011
124.643400,158.583068
124.643400,158.416932
124.610989,158.253989
124.547412,158.100500
124.455112,157.962364
124.455107,157.962358
124.337641,157.844892
124.337635,157.844887
124.291799,157.814260
124.199500,157.752588
124.046011,157.689011
123.983907,157.676657
123.920999,157.643750
123.919396,157.642174
118.990494,152.713271
118.990488,152.713266
118.990482,152.713262
118.877311,152.637644
118.751560,152.585556
118.751557,152.585555
118.618061,152.559000
118.618058,152.559000
88.653319,152.559000
88.653315,152.559000
88.519819,152.585555
88.519816,152.585556
88.394065,152.637644
88.280895,152.713262
88.280888,152.713267
86.827220,154.166935
86.764908,154.200961
86.694092,154.195896
86.637257,154.153349
86.612446,154.086829
86.612125,154.077840
86.612125,153.268112
86.632127,153.199991
86.633298,153.198202
86.681276,153.126400
86.744853,152.972911
86.777264,152.809968
86.777264,152.643832
86.744853,152.480889
86.681276,152.327400
86.588976,152.189264
86.588971,152.189258
86.471505,152.071792
86.471499,152.071787
86.425663,152.041160
86.333364,151.979488
86.179875,151.915911
86.016934,151.883500
86.016932,151.883500
85.850796,151.883500
85.850793,151.883500
85.687852,151.915911
85.687847,151.915913
85.534364,151.979488
85.396228,152.071787
85.396222,152.071792
85.278756,152.189258
85.278751,152.189264
85.186452,152.327400
85.122877,152.480883
85.122875,152.480888
85.090464,152.643829
85.090464,152.809970
85.110796,152.912184
85.122875,152.972911
85.186452,153.126400
85.207800,153.158349
85.208890,153.159980
85.230105,153.227733
85.230125,153.229983
85.230125,153.777720
85.210123,153.845841
85.156467,153.892334
85.086193,153.902438
85.055908,153.894129
85.016749,153.877909
85.016740,153.877906
84.853799,153.845495
84.853797,153.845495
84.687661,153.845495
84.687658,153.845495
84.524717,153.877906
84.524712,153.877908
84.371229,153.941483
84.233093,154.033782
84.233087,154.033787
84.115621,154.151253
84.115616,154.151259
84.023317,154.289395
83.959742,154.442878
83.959740,154.442883
83.927329,154.605824
83.927329,154.771965
83.936541,154.818277
83.959740,154.934906
84.023317,155.088395
84.084989,155.180694
84.115616,155.226530
84.115621,155.226536
84.233088,155.344003
84.233093,155.344007
84.236532,155.346305
84.255623,155.361972
85.154486,156.260835
85.267662,156.336456
85.393416,156.388545
85.526915,156.415100
86.315335,156.415100
86.448834,156.388545
86.574588,156.336456
86.687764,156.260835
88.970693,153.977904
89.033005,153.943880
89.059788,153.941000
91.221763,153.941000
91.289884,153.961002
91.336377,154.014658
91.346481,154.084932
91.345342,154.091582
91.331100,154.163176
91.331100,154.336823
91.363518,154.499792
91.364976,154.507124
91.431425,154.667547
91.527894,154.811923
91.650677,154.934706
91.795053,155.031175
91.955476,155.097624
92.125780,155.131500
99.715012,155.131500
99.783133,155.151502
99.829626,155.205158
99.841012,155.257500
99.841012,158.629336
99.864221,158.746011
99.874888,158.799636
99.941337,158.960059
100.030431,159.093399
100.037807,159.104437
100.037812,159.104443
103.792595,162.859225
103.826621,162.921537
103.829500,162.948320
103.829500,163.106287
103.862754,163.316243
103.928443,163.518412
104.024949,163.707816
104.149896,163.879792
104.149898,163.879794
104.149900,163.879797
104.300202,164.030099
104.300205,164.030101
104.300208,164.030104
104.472184,164.155051
104.533383,164.186233
104.584998,164.234981
104.602064,164.303896
104.579163,164.371098
104.523566,164.415250
104.476180,164.424500
100.803820,164.424500
100.735699,164.404498
100.689206,164.350842
100.679102,164.280568
100.708596,164.215988
100.746615,164.186234
100.807816,164.155051
100.979792,164.030104
101.130104,163.879792
101.255051,163.707816
101.351557,163.518412
101.417246,163.316243
101.450500,163.106287
101.450500,162.893713
101.417246,162.683757
101.351557,162.481588
101.255051,162.292184
101.130104,162.120208
101.130101,162.120205
101.130099,162.120202
100.979797,161.969900
100.979794,161.969898
100.979792,161.969896
100.807816,161.844949
100.618412,161.748443
100.416243,161.682754
100.206287,161.649500
99.993713,161.649500
99.783757,161.682754
99.783754,161.682754
99.783753,161.682755
99.581588,161.748443
99.581586,161.748444
99.392180,161.844951
99.220205,161.969898
99.220202,161.969900
99.069900,162.120202
99.069898,162.120205
98.944949,162.292183
98.942265,162.297451
98.893516,162.349065
98.824600,162.366129
98.757399,162.343226
98.717735,162.297451
98.715050,162.292183
98.715048,162.292180
98.590104,162.120208
98.590101,162.120205
98.590099,162.120202
98.439797,161.969900
98.439794,161.969898
98.439792,161.969896
98.267816,161.844949
98.078412,161.748443
97.876243,161.682754
97.666287,161.649500
97.453713,161.649500
97.243757,161.682754
97.243754,161.682754
97.243753,161.682755
97.041588,161.748443
97.041586,161.748444
96.852180,161.844951
96.680205,161.969898
96.680202,161.969900
96.529900,162.120202
96.529898,162.120205
96.404949,162.292183
96.402265,162.297451
96.353516,162.349065
96.284600,162.366129
96.217399,162.343226
96.177735,162.297451
96.175050,162.292183
96.175048,162.292180
96.050104,162.120208
96.050101,162.120205
96.050099,162.120202
95.899797,161.969900
95.899794,161.969898
95.899792,161.969896
95.727816,161.844949
95.538412,161.748443
95.336243,161.682754
95.126287,161.649500
94.913713,161.649500
94.703757,161.682754
94.703754,161.682754
94.703753,161.682755
94.501588,161.748443
94.501586,161.748444
94.312180,161.844951
94.140205,161.969898
94.140202,161.969900
93.989900,162.120202
93.989898,162.120205
93.864949,162.292183
93.862265,162.297451
93.813516,162.349065
93.744600,162.366129
93.677399,162.343226
93.637735,162.297451
93.635050,162.292183
93.635048,162.292180
93.510104,162.120208
93.510101,162.120205
93.510099,162.120202
93.359797,161.969900
93.359794,161.969898
93.359792,161.969896
93.187816,161.844949
92.998412,161.748443
92.796243,161.682754
92.586287,161.649500
92.373713,161.649500
92.163757,161.682754
92.163754,161.682754
92.163753,161.682755
91.961588,161.748443
91.961586,161.748444
91.772180,161.844951
91.600205,161.969898
91.600202,161.969900
91.449900,162.120202
91.449898,162.120205
91.324949,162.292183
91.322265,162.297451
91.273516,162.349065
91.204600,162.366129
91.137399,162.343226
91.097735,162.297451
91.095050,162.292183
91.095048,162.292180
90.970104,162.120208
90.970101,162.120205
90.970099,162.120202
90.819797,161.969900
90.819794,161.969898
90.819792,161.969896
90.647816,161.844949
90.458412,161.748443
90.256243,161.682754
90.046287,161.649500
89.833713,161.649500
89.623757,161.682754
89.623754,161.682754
89.623753,161.682755
89.421588,161.748443
89.421586,161.748444
89.232180,161.844951
89.060205,161.969898
89.060202,161.969900
88.909900,162.120202
88.909898,162.120205
88.784949,162.292183
88.782265,162.297451
88.733516,162.349065
88.664600,162.366129
88.597399,162.343226
88.557735,162.297451
88.555050,162.292183
88.555048,162.292180
88.430104,162.120208
88.430101,162.120205
88.430099,162.120202
88.279797,161.969900
88.279794,161.969898
88.279792,161.969896
88.107816,161.844949
87.918412,161.748443
87.716243,161.682754
87.506287,161.649500
87.293713,161.649500
87.083757,161.682754
87.083754,161.682754
87.083753,161.682755
86.881588,161.748443
86.881586,161.748444
86.692180,161.844951
86.520205,161.969898
86.520202,161.969900
86.369900,162.120202
86.369898,162.120205
86.244949,162.292183
86.242265,162.297451
86.193516,162.349065
86.124600,162.366129
86.057399,162.343226
86.017735,162.297451
86.015050,162.292183
86.015048,162.292180
85.890104,162.120208
85.890101,162.120205
85.890099,162.120202
85.739797,161.969900
85.739794,161.969898
85.739792,161.969896
85.567816,161.844949
85.378412,161.748443
85.176243,161.682754
84.966287,161.649500
84.753713,161.649500
84.543757,161.682754
84.543754,161.682754
84.543753,161.682755
84.341588,161.748443
84.341586,161.748444
84.152180,161.844951
83.980205,161.969898
83.980202,161.969900
83.829900,162.120202
83.829898,162.120205
83.704949,162.292183
83.702265,162.297451
83.653516,162.349065
83.584600,162.366129
83.517399,162.343226
83.477735,162.297451
83.475050,162.292183
83.475048,162.292180
83.350104,162.120208
83.350101,162.120205
83.350099,162.120202
83.199797,161.969900
83.199794,161.969898
83.199792,161.969896
83.027816,161.844949
82.838412,161.748443
82.636243,161.682754
82.426287,161.649500
82.213713,161.649500
82.003757,161.682754
82.003754,161.682754
82.003753,161.682755
81.801588,161.748443
81.801586,161.748444
81.612180,161.844951
81.440205,161.969898
81.440202,161.969900
81.289900,162.120202
81.289898,162.120205
81.164949,162.292183
81.162265,162.297451
81.113516,162.349065
81.044600,162.366129
80.977399,162.343226
80.937735,162.297451
80.935050,162.292183
80.935048,162.292180
80.810104,162.120208
80.810101,162.120205
80.810099,162.120202
80.659797,161.969900
80.659794,161.969898
80.659792,161.969896
80.487816,161.844949
80.298412,161.748443
80.096243,161.682754
79.886287,161.649500
79.673713,161.649500
79.463757,161.682754
79.463754,161.682754
79.463753,161.682755
79.261588,161.748443
79.261586,161.748444
79.072180,161.844951
78.900205,161.969898
78.900202,161.969900
78.749900,162.120202
78.749898,162.120205
78.624949,162.292183
78.622265,162.297451
78.573516,162.349065
78.504600,162.366129
78.437399,162.343226
78.397735,162.297451
78.395050,162.292183
78.395048,162.292180
78.270104,162.120208
78.270101,162.120205
78.270099,162.120202
78.119797,161.969900
78.119794,161.969898
78.119792,161.969896
77.947816,161.844949
77.758412,161.748443
77.556243,161.682754
77.346287,161.649500
77.133713,161.649500
76.923757,161.682754
76.923754,161.682754
76.923753,161.682755
76.721588,161.748443
76.721586,161.748444
76.532180,161.844951
76.360205,161.969898
76.360202,161.969900
76.209900,162.120202
76.209898,162.120205
76.084949,162.292183
76.082265,162.297451
76.033516,162.349065
75.964600,162.366129
75.897399,162.343226
75.857735,162.297451
75.855050,162.292183
75.855048,162.292180
75.730104,162.120208
75.730101,162.120205
75.730099,162.120202
75.579797,161.969900
75.579794,161.969898
75.579792,161.969896
75.407816,161.844949
75.218412,161.748443
75.016243,161.682754
74.806287,161.649500
74.593713,161.649500
74.383757,161.682754
74.383754,161.682754
74.383753,161.682755
74.181588,161.748443
74.181586,161.748444
73.992180,161.844951
73.820205,161.969898
73.820202,161.969900
73.669900,162.120202
73.669898,162.120205
73.544949,162.292183
73.542265,162.297451
73.493516,162.349065
73.424600,162.366129
73.357399,162.343226
73.317735,162.297451
73.315050,162.292183
73.315048,162.292180
73.190104,162.120208
73.190101,162.120205
73.190099,162.120202
73.039797,161.969900
73.039794,161.969898
73.039792,161.969896
72.867816,161.844949
72.678412,161.748443
72.476243,161.682754
72.266287,161.649500
72.053713,161.649500
71.843757,161.682754
71.843754,161.682754
71.843753,161.682755
71.641588,161.748443
71.641586,161.748444
71.452180,161.844951
71.280205,161.969898
71.280202,161.969900
71.129900,162.120202
71.129898,162.120205
71.004949,162.292183
71.002265,162.297451
70.953516,162.349065
70.884600,162.366129
70.817399,162.343226
70.777735,162.297451
70.775050,162.292183
70.775048,162.292180
70.650104,162.120208
70.650101,162.120205
70.650099,162.120202
70.499797,161.969900
70.499794,161.969898
70.499792,161.969896
70.327816,161.844949
70.138412,161.748443
69.936243,161.682754
69.726287,161.649500
69.513713,161.649500
69.303757,161.682754
69.303754,161.682754
69.303753,161.682755
69.101588,161.748443
69.101586,161.748444
68.912180,161.844951
68.740205,161.969898
68.740202,161.969900
68.589900,162.120202
68.589898,162.120205
68.464949,162.292183
68.462265,162.297451
68.413516,162.349065
68.344600,162.366129
68.277399,162.343226
68.237735,162.297451
68.235050,162.292183
68.235048,162.292180
68.110104,162.120208
68.110101,162.120205
68.110099,162.120202
67.959797,161.969900
67.959794,161.969898
67.959792,161.969896
67.787816,161.844949
67.598412,161.748443
67.396243,161.682754
67.186287,161.649500
66.973713,161.649500
66.763757,161.682754
66.763754,161.682754
66.763753,161.682755
66.561588,161.748443
66.561586,161.748444
66.372180,161.844951
66.200205,161.969898
66.200202,161.969900
66.049900,162.120202
66.049898,162.120205
65.924949,162.292183
65.922265,162.297451
65.873516,162.349065
65.804600,162.366129
65.737399,162.343226
65.697735,162.297451
65.695050,162.292183
65.695048,162.292180
65.570104,162.120208
65.570101,162.120205
65.570099,162.120202
65.419797,161.969900
65.419794,161.969898
65.419792,161.969896
65.247816,161.844949
65.058412,161.748443
64.856243,161.682754
64.646287,161.649500
64.433713,161.649500
64.223757,161.682754
64.223754,161.682754
64.223753,161.682755
64.021588,161.748443
64.021586,161.748444
63.832180,161.844951
63.660207,161.969896
63.548873,162.081230
63.486561,162.115255
63.415745,162.110189
63.358909,162.067643
63.341722,162.036165
63.293798,161.907673
63.293796,161.907670
63.293796,161.907669
63.230617,161.823273
63.207546,161.792453
63.103020,161.714206
63.092331,161.706204
63.092329,161.706203
63.092326,161.706201
62.957483,161.655909
62.957486,161.655909
62.897873,161.649500
61.102135,161.649500
61.102114,161.649502
61.042519,161.655908
61.042518,161.655908
60.907673,161.706201
60.907670,161.706203
60.792450,161.792456
60.790595,161.794312
60.788291,161.795569
60.785239,161.797855
60.784910,161.797416
60.728283,161.828338
60.657468,161.823273
60.600632,161.780726
60.575821,161.714206
60.575500,161.705217
60.575500,143.353713
61.109500,143.353713
61.109500,143.566287
61.142754,143.776243
61.208443,143.978412
61.304949,144.167816
61.429896,144.339792
61.429898,144.339794
61.429900,144.339797
61.580202,144.490099
61.580205,144.490101
61.580208,144.490104
61.752184,144.615051
61.755317,144.616647
61.757451,144.617735
61.809065,144.666484
61.826129,144.735400
61.803226,144.802601
61.757451,144.842265
61.752183,144.844949
61.580205,144.969898
61.580202,144.969900
61.429900,145.120202
61.429898,145.120205
61.304951,145.292180
61.304949,145.292184
61.208443,145.481588
61.142754,145.683757
61.109500,145.893713
61.109500,146.106287
61.142754,146.316243
61.208443,146.518412
61.304949,146.707816
61.429896,146.879792
61.429898,146.879794
61.429900,146.879797
61.580202,147.030099
61.580205,147.030101
61.580208,147.030104
61.752184,147.155051
61.755317,147.156647
61.757451,147.157735
61.809065,147.206484
61.826129,147.275400
61.803226,147.342601
61.757451,147.382265
61.752183,147.384949
61.580205,147.509898
61.580202,147.509900
61.429900,147.660202
61.429898,147.660205
61.304951,147.832180
61.304949,147.832184
61.208443,148.021588
61.142754,148.223757
61.109500,148.433713
61.109500,148.646287
61.142754,148.856243
61.208443,149.058412
61.304949,149.247816
61.429896,149.419792
61.429898,149.419794
61.429900,149.419797
61.580202,149.570099
61.580205,149.570101
61.580208,149.570104
61.752184,149.695051
61.755317,149.696647
61.757451,149.697735
61.809065,149.746484
61.826129,149.815400
61.803226,149.882601
61.757451,149.922265
61.752183,149.924949
61.580205,150.049898
61.580202,150.049900
61.429900,150.200202
61.429898,150.200205
61.304951,150.372180
61.208444,150.561586
61.208443,150.561588
61.149760,150.742196
61.142754,150.763757
61.109500,150.973713
61.109500,151.186287
61.142754,151.396243
61.208443,151.598412
61.304949,151.787816
61.304951,151.787819
61.312187,151.797778
61.429896,151.959792
61.429898,151.959794
61.429900,151.959797
61.580202,152.110099
61.580205,152.110101
61.580208,152.110104
61.752184,152.235051
61.755317,152.236647
61.757451,152.237735
61.809065,152.286484
61.826129,152.355400
61.803226,152.422601
61.757451,152.462265
61.752183,152.464949
61.580205,152.589898
61.580202,152.589900
61.429900,152.740202
61.429898,152.740205
61.304951,152.912180
61.208444,153.101586
61.208443,153.101588
61.166755,153.229891
61.142754,153.303757
61.109500,153.513713
61.109500,153.726287
61.142754,153.936243
61.208443,154.138412
61.304949,154.327816
61.429896,154.499792
61.429898,154.499794
61.429900,154.499797
61.580202,154.650099
61.580205,154.650101
61.580208,154.650104
61.752184,154.775051
61.753517,154.775730
61.757451,154.777735
61.809065,154.826484
61.826129,154.895400
61.803226,154.962601
61.757451,155.002265
61.752183,155.004949
61.580205,155.129898
61.580202,155.129900
61.429900,155.280202
61.429898,155.280205
61.304951,155.452180
61.304949,155.452184
61.208443,155.641588
61.142754,155.843757
61.109500,156.053713
61.109500,156.266287
61.142754,156.476243
61.208443,156.678412
61.304949,156.867816
61.429896,157.039792
61.429898,157.039794
61.429900,157.039797
61.580202,157.190099
61.580205,157.190101
61.580208,157.190104
61.752184,157.315051
61.941588,157.411557
62.143757,157.477246
62.353713,157.510500
62.353716,157.510500
62.566284,157.510500
62.566287,157.510500
62.776243,157.477246
62.978412,157.411557
63.167816,157.315051
63.339792,157.190104
63.451127,157.078768
63.513437,157.044745
63.584253,157.049809
63.641089,157.092356
63.658277,157.123833
63.706202,157.252328
63.706203,157.252329
63.792453,157.367546
63.844623,157.406600
63.907669,157.453796
63.907671,157.453796
63.907673,157.453798
63.968030,157.476309
64.042514,157.504090
64.042517,157.504091
64.102127,157.510500
65.897872,157.510499
65.957483,157.504091
66.092331,157.453796
66.207546,157.367546
66.293796,157.252331
66.344091,157.117483
66.350500,157.057873
66.350499,155.262128
66.344091,155.202517
66.317005,155.129896
66.293798,155.067673
66.293796,155.067670
66.293796,155.067669
66.241202,154.997412
66.207546,154.952453
66.116913,154.884606
66.092331,154.866204
66.092329,154.866203
66.092328,154.866202
65.963833,154.818277
65.906997,154.775730
65.882186,154.709210
65.897277,154.639836
65.918767,154.611128
66.030104,154.499792
66.155051,154.327816
66.251557,154.138412
66.317246,153.936243
66.350500,153.726287
66.350500,153.513713
66.317246,153.303757
66.251557,153.101588
66.155051,152.912184
66.030104,152.740208
66.030101,152.740205
66.030099,152.740202
65.879797,152.589900
65.879794,152.589898
65.879792,152.589896
65.729754,152.480888
65.707819,152.464951
65.707818,152.464950
65.707816,152.464949
65.702551,152.462266
65.650937,152.413520
65.633870,152.344606
65.656770,152.277404
65.702551,152.237733
65.707816,152.235051
65.879792,152.110104
66.030104,151.959792
66.155051,151.787816
66.251557,151.598412
66.317246,151.396243
66.350500,151.186287
66.350500,150.973713
66.317246,150.763757
66.251557,150.561588
66.155051,150.372184
66.030104,150.200208
66.030101,150.200205
66.030099,150.200202
65.879797,150.049900
65.879794,150.049898
65.879792,150.049896
65.707816,149.924949
65.702551,149.922266
65.650937,149.873520
65.633870,149.804606
65.656770,149.737404
65.702551,149.697733
65.707816,149.695051
65.879792,149.570104
66.030104,149.419792
66.155051,149.247816
66.251557,149.058412
66.317246,148.856243
66.350500,148.646287
66.350500,148.433713
66.317246,148.223757
66.251557,148.021588
66.155051,147.832184
66.030104,147.660208
66.030101,147.660205
66.030099,147.660202
65.879797,147.509900
65.879794,147.509898
65.879792,147.509896
65.707816,147.384949
65.702551,147.382266
65.650937,147.333520
65.633870,147.264606
65.656770,147.197404
65.702551,147.157733
65.707816,147.155051
65.879792,147.030104
66.030104,146.879792
66.155051,146.707816
66.251557,146.518412
66.317246,146.316243
66.350500,146.106287
66.350500,145.893713
66.317246,145.683757
66.251557,145.481588
66.155051,145.292184
66.030104,145.120208
66.030101,145.120205
66.030099,145.120202
65.879797,144.969900
65.879794,144.969898
65.879792,144.969896
65.721804,144.855112
65.707819,144.844951
65.707818,144.844950
65.707816,144.844949
65.702551,144.842266
65.650937,144.793520
65.633870,144.724606
65.656770,144.657404
65.702551,144.617733
65.707816,144.615051
65.879792,144.490104
65.906568,144.463328
72.381601,144.463328
72.381601,144.629469
72.414012,144.792410
72.414014,144.792415
72.477587,144.945896
72.477588,144.945898
72.477589,144.945899
72.512767,144.998546
72.533981,145.066296
72.534001,145.068546
72.534001,154.906611
72.552063,154.997412
72.560556,155.040110
72.612645,155.165864
72.637135,155.202517
72.688267,155.279041
72.688272,155.279047
75.371585,157.962358
76.195962,158.786735
76.275450,158.839847
76.309137,158.862356
76.434891,158.914445
76.568390,158.941000
76.568391,158.941000
76.704505,158.941000
82.897852,158.941000
82.965973,158.961002
82.967854,158.962235
83.020500,158.997412
83.173989,159.060989
83.336932,159.093400
83.336933,159.093400
83.503067,159.093400
83.503068,159.093400
83.666011,159.060989
83.819500,158.997412
83.957636,158.905112
84.075112,158.787636
84.167412,158.649500
84.230989,158.496011
84.263400,158.333068
84.263400,158.166932
84.230989,158.003989
84.167412,157.850500
84.075112,157.712364
84.075107,157.712358
83.957641,157.594892
83.957635,157.594887
83.873991,157.538998
83.819500,157.502588
83.666011,157.439011
83.503070,157.406600
83.503068,157.406600
83.336932,157.406600
83.336929,157.406600
83.173988,157.439011
83.173983,157.439013
83.020499,157.502588
82.967854,157.537765
82.900101,157.558980
82.897852,157.559000
76.974859,157.559000
76.906738,157.538998
76.885764,157.522095
73.952906,154.589236
73.918880,154.526924
73.916001,154.500141
73.916001,153.388685
77.961838,153.388685
77.961838,153.554826
77.974440,153.618179
77.994249,153.717767
78.057826,153.871256
78.106352,153.943880
78.150125,154.009391
78.150130,154.009397
78.267596,154.126863
78.267602,154.126868
78.405738,154.219168
78.559227,154.282745
78.722170,154.315156
78.722171,154.315156
78.888305,154.315156
78.888306,154.315156
79.051249,154.282745
79.204738,154.219168
79.342874,154.126868
79.460350,154.009392
79.552650,153.871256
79.616227,153.717767
79.628579,153.655665
79.661483,153.592759
79.663005,153.591208
80.195487,153.058728
80.222861,153.043780
80.249084,153.026928
80.255382,153.026022
80.257799,153.024703
80.284582,153.021824
80.398824,153.021824
80.466945,153.041826
80.513438,153.095482
80.524824,153.147824
80.524824,153.201294
80.545205,153.303757
80.557235,153.364235
80.620812,153.517724
80.645602,153.554824
80.713111,153.655859
80.713116,153.655865
80.830582,153.773331
80.830588,153.773336
80.968724,153.865636
81.122213,153.929213
81.285156,153.961624
81.285157,153.961624
81.451291,153.961624
81.451292,153.961624
81.614235,153.929213
81.767724,153.865636
81.905860,153.773336
82.023336,153.655860
82.115636,153.517724
82.179213,153.364235
82.191565,153.302132
82.224469,153.239227
82.225991,153.237677
84.213664,151.250005
84.275976,151.215979
84.302759,151.213100
89.334286,151.213100
89.402407,151.233102
89.404288,151.234335
89.456934,151.269512
89.610423,151.333089
89.773366,151.365500
89.773367,151.365500
89.939501,151.365500
89.939502,151.365500
90.102445,151.333089
90.255934,151.269512
90.394070,151.177212
90.511546,151.059736
90.603846,150.921600
90.667423,150.768111
90.677472,150.717589
90.710378,150.654682
90.752829,150.625764
90.899500,150.565012
91.037636,150.472712
91.155112,150.355236
91.247412,150.217100
91.310989,150.063611
91.343400,149.900668
91.343400,149.734532
91.310989,149.571589
91.247412,149.418100
91.155112,149.279964
91.155107,149.279958
91.037641,149.162492
91.037635,149.162487
90.991799,149.131860
90.899500,149.070188
90.746011,149.006611
90.721070,149.001650
90.583070,148.974200
90.583068,148.974200
90.416932,148.974200
90.416929,148.974200
90.253988,149.006611
90.253983,149.006613
90.187603,149.034109
90.139385,149.043700
83.785660,149.043700
83.711703,149.058412
83.652164,149.070255
83.652161,149.070256
83.526410,149.122344
83.413240,149.197962
83.413238,149.197963
81.700981,150.910217
81.638669,150.944242
81.567853,150.939177
81.522791,150.910216
81.411898,150.799323
81.411892,150.799318
81.358153,150.763411
81.273757,150.707019
81.120268,150.643442
81.098525,150.639117
80.957327,150.611031
80.957325,150.611031
80.791189,150.611031
80.791186,150.611031
80.628245,150.643442
80.628240,150.643444
80.474756,150.707019
80.422111,150.742196
80.354358,150.763411
80.352109,150.763431
79.535109,150.763431
79.401613,150.789986
79.401610,150.789987
79.275860,150.842075
79.164034,150.916795
79.162684,150.917697
79.162682,150.917698
79.057358,151.023021
78.995045,151.057046
78.992870,151.057498
78.975736,151.060907
78.930742,151.069857
78.930741,151.069858
78.777256,151.133434
78.639120,151.225733
78.639114,151.225738
78.521648,151.343204
78.521643,151.343210
78.429344,151.481346
78.365769,151.634829
78.365767,151.634834
78.333356,151.797775
78.333356,151.963916
78.354813,152.071787
78.365767,152.126857
78.429344,152.280346
78.521644,152.418482
78.570633,152.467471
78.604657,152.529781
78.599593,152.600596
78.557047,152.657432
78.529756,152.672974
78.456864,152.703166
78.432481,152.713267
78.405736,152.724345
78.267602,152.816643
78.267596,152.816648
78.150130,152.934114
78.150125,152.934120
78.057826,153.072256
77.994251,153.225739
77.994249,153.225744
77.961838,153.388685
73.916001,153.388685
73.916001,145.068546
73.936003,145.000425
73.937176,144.998633
73.972413,144.945899
74.035990,144.792410
74.068401,144.629467
74.068401,144.463331
74.035990,144.300388
73.972413,144.146899
73.952388,144.116929
116.156600,144.116929
116.156600,144.116932
116.156600,144.283068
116.189011,144.446011
116.252588,144.599500
116.297346,144.666484
116.344887,144.737635
116.344892,144.737641
116.462358,144.855107
116.462364,144.855112
116.600500,144.947412
116.753989,145.010989
116.916932,145.043400
116.916933,145.043400
117.083067,145.043400
117.083068,145.043400
117.246011,145.010989
117.399500,144.947412
117.452146,144.912235
117.519899,144.891020
117.522148,144.891000
118.068058,144.891000
118.201557,144.864445
118.327311,144.812356
118.330089,144.810500
118.440487,144.736735
119.719398,143.457822
119.781707,143.423800
119.783837,143.423355
119.846011,143.410989
119.999500,143.347412
120.137636,143.255112
120.255112,143.137636
120.347412,142.999500
120.410989,142.846011
120.443400,142.683068
120.443400,142.516932
120.410989,142.353989
120.347412,142.200500
120.255112,142.062364
120.255107,142.062358
120.137641,141.944892
120.137635,141.944887
120.091799,141.914260
119.999500,141.852588
119.846011,141.789011
119.683070,141.756600
119.683068,141.756600
119.516932,141.756600
119.516929,141.756600
119.353988,141.789011
119.353983,141.789013
119.200500,141.852588
119.062364,141.944887
119.062358,141.944892
118.944892,142.062358
118.944887,142.062364
118.852588,142.200500
118.789012,142.353985
118.789009,142.353995
118.776656,142.416092
118.743747,142.479001
118.742174,142.480603
117.750681,143.472096
117.723315,143.487039
117.697086,143.503896
117.690784,143.504802
117.688371,143.506120
117.661588,143.509000
117.522148,143.509000
117.454027,143.488998
117.452146,143.487765
117.399500,143.452588
117.246016,143.389013
117.246011,143.389011
117.083070,143.356600
117.083068,143.356600
116.916932,143.356600
116.916929,143.356600
116.753988,143.389011
116.753983,143.389013
116.600500,143.452588
116.462364,143.544887
116.462358,143.544892
116.344892,143.662358
116.344887,143.662364
116.252588,143.800500
116.189013,143.953983
116.189011,143.953988
116.156600,144.116929
73.952388,144.116929
73.880113,144.008763
73.880108,144.008757
73.762642,143.891291
73.762636,143.891286
73.716800,143.860659
73.624501,143.798987
73.471012,143.735410
73.308071,143.702999
73.308069,143.702999
73.141933,143.702999
73.141930,143.702999
72.978989,143.735410
72.978984,143.735412
72.825501,143.798987
72.687365,143.891286
72.687359,143.891291
72.569893,144.008757
72.569888,144.008763
72.477589,144.146899
72.414014,144.300382
72.414012,144.300387
72.381601,144.463328
65.906568,144.463328
65.923885,144.446011
66.001851,144.368046
66.030099,144.339797
66.030104,144.339792
66.155051,144.167816
66.251557,143.978412
66.317246,143.776243
66.350500,143.566287
66.350500,143.353713
66.317246,143.143757
66.251557,142.941588
66.155051,142.752184
66.030104,142.580208
66.030101,142.580205
66.030099,142.580202
65.879797,142.429900
65.879794,142.429898
65.879792,142.429896
65.707816,142.304949
65.518412,142.208443
65.316243,142.142754
65.106287,142.109500
64.893713,142.109500
64.683757,142.142754
64.683754,142.142754
64.683753,142.142755
64.481588,142.208443
64.481586,142.208444
64.292180,142.304951
64.120205,142.429898
64.120202,142.429900
63.969900,142.580202
63.969898,142.580205
63.844949,142.752183
63.842265,142.757451
63.793516,142.809065
63.724600,142.826129
63.657399,142.803226
63.617735,142.757451
63.615050,142.752183
63.564837,142.683070
63.490104,142.580208
63.490101,142.580205
63.490099,142.580202
63.339797,142.429900
63.339794,142.429898
63.339792,142.429896
63.167816,142.304949
62.978412,142.208443
62.776243,142.142754
62.566287,142.109500
62.353713,142.109500
62.143757,142.142754
62.143754,142.142754
62.143753,142.142755
61.941588,142.208443
61.941586,142.208444
61.752180,142.304951
61.580205,142.429898
61.580202,142.429900
61.429900,142.580202
61.429898,142.580205
61.304951,142.752180
61.304949,142.752184
61.208443,142.941588
61.142754,143.143757
61.109500,143.353713
60.575500,143.353713
60.575500,131.260709
63.681500,131.260709
63.681500,131.503290
63.713160,131.743782
63.775944,131.978095
63.775945,131.978097
63.775946,131.978100
63.868776,132.202212
63.868777,132.202213
63.868782,132.202224
63.990061,132.412285
63.990063,132.412288
63.990064,132.412289
64.137735,132.604738
64.137739,132.604742
64.137744,132.604748
64.309251,132.776255
64.309256,132.776259
64.309262,132.776265
64.501711,132.923936
64.501714,132.923938
64.711775,133.045217
64.711779,133.045218
64.711788,133.045224
64.935900,133.138054
65.170211,133.200838
65.170215,133.200838
65.170217,133.200839
65.232202,133.208999
65.410712,133.232500
65.410719,133.232500
65.653281,133.232500
65.653288,133.232500
65.870637,133.203885
65.893782,133.200839
65.893782,133.200838
65.893789,133.200838
66.128100,133.138054
66.352212,133.045224
66.562289,132.923936
66.754738,132.776265
66.926265,132.604738
67.073936,132.412289
67.195224,132.202212
67.288054,131.978100
67.350838,131.743789
67.382500,131.503288
67.382500,131.260712
67.353822,131.042878
67.350839,131.020217
67.350838,131.020215
67.350838,131.020211
67.288054,130.785900
67.195224,130.561788
67.195218,130.561779
67.195217,130.561775
67.073938,130.351714
67.067317,130.343085
66.926265,130.159262
66.926259,130.159256
66.926255,130.159251
66.754748,129.987744
66.754742,129.987739
66.754738,129.987735
66.562289,129.840064
66.562288,129.840063
66.562285,129.840061
66.352224,129.718782
66.352216,129.718778
66.352212,129.718776
66.128100,129.625946
66.128097,129.625945
66.128095,129.625944
65.893782,129.563160
65.653290,129.531500
65.653288,129.531500
65.410712,129.531500
65.410709,129.531500
65.170217,129.563160
64.935904,129.625944
64.935900,129.625946
64.776101,129.692137
64.711786,129.718777
64.711775,129.718782
64.501714,129.840061
64.309262,129.987735
64.309251,129.987744
64.137744,130.159251
64.137735,130.159262
63.990061,130.351714
63.868782,130.561775
63.868777,130.561786
63.775946,130.785900
63.775944,130.785904
63.713160,131.020217
63.681500,131.260709
60.575500,131.260709
60.575500,129.583463
60.595502,129.515342
60.612405,129.494368
63.459652,126.647121
147.318500,126.647121
147.318500,128.542864
147.318502,128.542885
147.324908,128.602480
147.324908,128.602481
147.375203,128.737330
147.399278,128.769491
147.424089,128.836011
147.408998,128.905385
147.399278,128.920509
147.375203,128.952669
147.324909,129.087515
147.318500,129.147121
147.318500,131.042864
147.318502,131.042885
147.324908,131.102480
147.324908,131.102481
147.375201,131.237326
147.375203,131.237329
147.461453,131.352546
147.519061,131.395671
147.576669,131.438796
147.576671,131.438796
147.576673,131.438798
147.637030,131.461309
147.711514,131.489090
147.711517,131.489091
147.771127,131.495500
150.366872,131.495499
150.426483,131.489091
150.561331,131.438796
150.676546,131.352546
150.762796,131.237331
150.813091,131.102483
150.819500,131.042873
150.819499,130.011230
153.218500,130.011230
153.218500,130.178769
153.251185,130.343085
153.269964,130.388420
153.315297,130.497863
153.361835,130.567512
153.408373,130.637161
153.408378,130.637167
153.526832,130.755621
153.526838,130.755626
153.666137,130.848703
153.820918,130.912816
153.985233,130.945500
153.985234,130.945500
154.152766,130.945500
154.152767,130.945500
154.317082,130.912816
154.471863,130.848703
154.611162,130.755626
154.729626,130.637162
154.822703,130.497863
154.886816,130.343082
154.919500,130.178767
154.919500,130.011233
154.919499,130.011230
155.718500,130.011230
155.718500,130.178769
155.751185,130.343085
155.769964,130.388420
155.815297,130.497863
155.861835,130.567512
155.908373,130.637161
155.908378,130.637167
156.026832,130.755621
156.026838,130.755626
156.166137,130.848703
156.320918,130.912816
156.485233,130.945500
156.485234,130.945500
156.652766,130.945500
156.652767,130.945500
156.817082,130.912816
156.971863,130.848703
157.111162,130.755626
157.229626,130.637162
157.322703,130.497863
157.386816,130.343082
157.419500,130.178767
157.419500,130.011233
157.386816,129.846918
157.322703,129.692137
157.229626,129.552838
157.229621,129.552832
157.111167,129.434378
157.111161,129.434373
156.971864,129.341298
156.971865,129.341298
156.971863,129.341297
156.862420,129.295964
156.817085,129.277185
156.817083,129.277184
156.817082,129.277184
156.734368,129.260731
156.652769,129.244500
156.652767,129.244500
156.485233,129.244500
156.485230,129.244500
156.362830,129.268847
156.320918,129.277184
156.320917,129.277184
156.320914,129.277185
156.166135,129.341298
156.026838,129.434373
156.026832,129.434378
155.908378,129.552832
155.908373,129.552838
155.815298,129.692135
155.751185,129.846914
155.718500,130.011230
154.919499,130.011230
154.886816,129.846918
154.822703,129.692137
154.729626,129.552838
154.729621,129.552832
154.611167,129.434378
154.611161,129.434373
154.471864,129.341298
154.471865,129.341298
154.471863,129.341297
154.362420,129.295964
154.317085,129.277185
154.317083,129.277184
154.317082,129.277184
154.234368,129.260731
154.152769,129.244500
154.152767,129.244500
153.985233,129.244500
153.985230,129.244500
153.862830,129.268847
153.820918,129.277184
153.820917,129.277184
153.820914,129.277185
153.666135,129.341298
153.526838,129.434373
153.526832,129.434378
153.408378,129.552832
153.408373,129.552838
153.315298,129.692135
153.251185,129.846914
153.218500,130.011230
150.819499,130.011230
150.819499,129.147128
150.813091,129.087517
150.762796,128.952669
150.738721,128.920509
150.713909,128.853992
150.728999,128.784618
150.738716,128.769497
150.762796,128.737331
150.813091,128.602483
150.819500,128.542873
150.819499,126.647128
150.813091,126.587517
150.791800,126.530435
150.762798,126.452673
150.762796,126.452670
150.762796,126.452669
150.719671,126.395061
150.676546,126.337453
150.599591,126.279845
150.561331,126.251204
150.561329,126.251203
150.561326,126.251201
150.426483,126.200909
150.426486,126.200909
150.366878,126.194500
147.771135,126.194500
147.771114,126.194502
147.711519,126.200908
147.711518,126.200908
147.576673,126.251201
147.576670,126.251203
147.461453,126.337453
147.375203,126.452670
147.375201,126.452673
147.324909,126.587515
147.318500,126.647121
63.459652,126.647121
65.095543,125.011230
148.218500,125.011230
148.218500,125.011233
148.218500,125.178767
148.251184,125.343082
148.315297,125.497863
148.315298,125.497864
148.408373,125.637161
148.408378,125.637167
148.526832,125.755621
148.526838,125.755626
148.666137,125.848703
148.794357,125.901814
148.820915,125.912815
148.820916,125.912815
148.820918,125.912816
148.985233,125.945500
149.152767,125.945500
149.317082,125.912816
149.471863,125.848703
149.611162,125.755626
149.729626,125.637162
149.822703,125.497863
149.886816,125.343082
149.919500,125.178767
149.919500,125.011233
149.886816,124.846918
149.822703,124.692137
149.729626,124.552838
149.729621,124.552832
149.611167,124.434378
149.611161,124.434373
149.471864,124.341298
149.471865,124.341298
149.471863,124.341297
149.317082,124.277184
149.224963,124.258860
149.167846,124.247499
149.167844,124.247499
149.152767,124.244500
148.985233,124.244500
148.970156,124.247499
148.970152,124.247499
148.872157,124.266991
148.820918,124.277184
148.820916,124.277184
148.820915,124.277185
148.666135,124.341298
148.526838,124.434373
148.526832,124.434378
148.408378,124.552832
148.408373,124.552838
148.315298,124.692135
148.251185,124.846914
148.218500,125.011230
65.095543,125.011230
70.959653,119.147121
147.318500,119.147121
147.318500,121.042864
147.318502,121.042885
147.324908,121.102480
147.324908,121.102481
147.375203,121.237330
147.399278,121.269491
147.424089,121.336011
147.408998,121.405385
147.399278,121.420509
147.375203,121.452669
147.324909,121.587515
147.318500,121.647121
147.318500,123.542864
147.318502,123.542885
147.324908,123.602480
147.324908,123.602481
147.375201,123.737326
147.375203,123.737329
147.461453,123.852546
147.519061,123.895671
147.576669,123.938796
147.576671,123.938796
147.576673,123.938798
147.637030,123.961309
147.711514,123.989090
147.711517,123.989091
147.771127,123.995500
150.366872,123.995499
150.426483,123.989091
150.561331,123.938796
150.676546,123.852546
150.762796,123.737331
150.813091,123.602483
150.819500,123.542873
150.819499,121.647128
150.813091,121.587517
150.762796,121.452669
150.738721,121.420509
150.713909,121.353992
150.728999,121.284618
150.738716,121.269497
150.762796,121.237331
150.813091,121.102483
150.819500,121.042873
150.819499,120.011230
153.218500,120.011230
153.218500,120.011233
153.218500,120.178767
153.251184,120.343082
153.315297,120.497863
153.315298,120.497864
153.408373,120.637161
153.408378,120.637167
153.526832,120.755621
153.526838,120.755626
153.666137,120.848703
153.820918,120.912816
153.985233,120.945500
153.985234,120.945500
154.152766,120.945500
154.152767,120.945500
154.317082,120.912816
154.471863,120.848703
154.611162,120.755626
154.729626,120.637162
154.822703,120.497863
154.886816,120.343082
154.919500,120.178767
154.919500,120.011233
154.919499,120.011230
155.718500,120.011230
155.718500,120.011233
155.718500,120.178767
155.751184,120.343082
155.815297,120.497863
155.815298,120.497864
155.908373,120.637161
155.908378,120.637167
156.026832,120.755621
156.026838,120.755626
156.166137,120.848703
156.320918,120.912816
156.485233,120.945500
156.485234,120.945500
156.652766,120.945500
156.652767,120.945500
156.817082,120.912816
156.971863,120.848703
157.111162,120.755626
157.229626,120.637162
157.322703,120.497863
157.386816,120.343082
157.419500,120.178767
157.419500,120.011233
157.386816,119.846918
157.322703,119.692137
157.229626,119.552838
157.229621,119.552832
157.111167,119.434378
157.111161,119.434373
156.971864,119.341298
156.971865,119.341298
156.971863,119.341297
156.862420,119.295964
156.817085,119.277185
156.817083,119.277184
156.817082,119.277184
156.734368,119.260731
156.652769,119.244500
156.652767,119.244500
156.485233,119.244500
156.485230,119.244500
156.362830,119.268847
156.320918,119.277184
156.320917,119.277184
156.320914,119.277185
156.166135,119.341298
156.026838,119.434373
156.026832,119.434378
155.908378,119.552832
155.908373,119.552838
155.815298,119.692135
155.751185,119.846914
155.718500,120.011230
154.919499,120.011230
154.886816,119.846918
154.822703,119.692137
154.729626,119.552838
154.729621,119.552832
154.611167,119.434378
154.611161,119.434373
154.471864,119.341298
154.471865,119.341298
154.471863,119.341297
154.362420,119.295964
154.317085,119.277185
154.317083,119.277184
154.317082,119.277184
154.234368,119.260731
154.152769,119.244500
154.152767,119.244500
153.985233,119.244500
153.985230,119.244500
153.862830,119.268847
153.820918,119.277184
153.820917,119.277184
153.820914,119.277185
153.666135,119.341298
153.526838,119.434373
153.526832,119.434378
153.408378,119.552832
153.408373,119.552838
153.315298,119.692135
153.251185,119.846914
153.218500,120.011230
150.819499,120.011230
150.819499,119.147128
150.813091,119.087517
150.791800,119.030435
150.762798,118.952673
150.762796,118.952670
150.762796,118.952669
150.719671,118.895061
150.676546,118.837453
150.599591,118.779845
150.561331,118.751204
150.561329,118.751203
150.561326,118.751201
150.426483,118.700909
150.426486,118.700909
150.366873,118.694500
147.771135,118.694500
147.771114,118.694502
147.711519,118.700908
147.711518,118.700908
147.576673,118.751201
147.576670,118.751203
147.461453,118.837453
147.375203,118.952670
147.375201,118.952673
147.324909,119.087515
147.318500,119.147121
70.959653,119.147121
71.052117,119.054657
75.494369,114.612405
75.556681,114.578379
75.583464,114.575500
154.975469,114.575500
154.997404,114.575500
Z" /> 
</g> 
</svg>
