<?xml version="1.0" standalone="no"?>
 <!DOCTYPE svg PUBLIC "-//W3C//DTD SVG 1.1//EN" 
 "http://www.w3.org/Graphics/SVG/1.1/DTD/svg11.dtd"> 
<svg
  xmlns:svg="http://www.w3.org/2000/svg"
  xmlns="http://www.w3.org/2000/svg"
  xmlns:xlink="http://www.w3.org/1999/xlink"
  version="1.1"
  width="10.215000000000002cm" height="5.215cm" viewBox="58.925 113.925 102.15 52.15">
<title>SVG Image created as rcbus-opl3-B_Mask.svg date 2025/10/09 21:07:21 </title>
  <desc>Image generated by PCBNEW </desc>
<g style="fill:#000000; fill-opacity:1.000000;stroke:#000000; stroke-opacity:1.000000;
stroke-linecap:round; stroke-linejoin:round;"
 transform="translate(0 0) scale(1 1)">
</g>
<g style="fill:#000000; fill-opacity:1.000000; stroke:none;">
<circle cx="156.069000" cy="130.595000" r="0.600000" /> 
</g>
<g style="fill:#000000; fill-opacity:1.000000; stroke:none;">
<circle cx="156.069000" cy="120.595000" r="0.600000" /> 
</g>
<g style="fill:#000000; fill-opacity:1.000000; stroke:none;">
<circle cx="153.569000" cy="130.595000" r="0.600000" /> 
</g>
<g style="fill:#000000; fill-opacity:1.000000; stroke:none;">
<circle cx="153.569000" cy="120.595000" r="0.600000" /> 
</g>
<g style="fill:#000000; fill-opacity:1.000000; stroke:none;">
<circle cx="148.569000" cy="125.595000" r="0.600000" /> 
<path style="fill:#000000; fill-opacity:1.000000; stroke:none;fill-rule:evenodd;"
d="M 149.819000,129.695000
149.819000,131.495000
147.319000,131.495000
147.319000,129.695000
Z" /> 
<path style="fill:#000000; fill-opacity:1.000000; stroke:none;fill-rule:evenodd;"
d="M 149.819000,127.195000
149.819000,128.995000
147.319000,128.995000
147.319000,127.195000
Z" /> 
<path style="fill:#000000; fill-opacity:1.000000; stroke:none;fill-rule:evenodd;"
d="M 154.469000,124.345000
154.469000,126.845000
152.669000,126.845000
152.669000,124.345000
Z" /> 
<path style="fill:#000000; fill-opacity:1.000000; stroke:none;fill-rule:evenodd;"
d="M 149.819000,119.695000
149.819000,121.495000
147.319000,121.495000
147.319000,119.695000
Z" /> 
<path style="fill:#000000; fill-opacity:1.000000; stroke:none;fill-rule:evenodd;"
d="M 149.819000,122.195000
149.819000,123.995000
147.319000,123.995000
147.319000,122.195000
Z" /> 
<path style="fill:#000000; fill-opacity:1.000000; stroke:none;fill-rule:evenodd;"
d="M 65.850000,153.310000
65.850000,155.010000
64.150000,155.010000
64.150000,153.310000
Z" /> 
</g>
<g style="fill:#000000; fill-opacity:1.000000; stroke:none;">
<circle cx="62.460000" cy="154.160000" r="0.850000" /> 
</g>
<g style="fill:#000000; fill-opacity:1.000000; stroke:none;">
<circle cx="65.000000" cy="151.620000" r="0.850000" /> 
</g>
<g style="fill:#000000; fill-opacity:1.000000; stroke:none;">
<circle cx="62.460000" cy="151.620000" r="0.850000" /> 
</g>
<g style="fill:#000000; fill-opacity:1.000000; stroke:none;">
<circle cx="65.000000" cy="149.080000" r="0.850000" /> 
</g>
<g style="fill:#000000; fill-opacity:1.000000; stroke:none;">
<circle cx="62.460000" cy="149.080000" r="0.850000" /> 
</g>
<g style="fill:#000000; fill-opacity:1.000000; stroke:none;">
<circle cx="65.000000" cy="146.540000" r="0.850000" /> 
</g>
<g style="fill:#000000; fill-opacity:1.000000; stroke:none;">
<circle cx="62.460000" cy="146.540000" r="0.850000" /> 
</g>
<g style="fill:#000000; fill-opacity:1.000000; stroke:none;">
<circle cx="65.000000" cy="144.000000" r="0.850000" /> 
</g>
<g style="fill:#000000; fill-opacity:1.000000; stroke:none;">
<circle cx="62.460000" cy="144.000000" r="0.850000" /> 
</g>
<g style="fill:#000000; fill-opacity:1.000000; stroke:none;">
<circle cx="65.000000" cy="141.460000" r="0.850000" /> 
</g>
<g style="fill:#000000; fill-opacity:1.000000; stroke:none;">
<circle cx="62.460000" cy="141.460000" r="0.850000" /> 
</g>
<g style="fill:#000000; fill-opacity:1.000000; stroke:none;">
<circle cx="65.032000" cy="131.882000" r="1.600000" /> 
<path style="fill:#000000; fill-opacity:1.000000; stroke:none;fill-rule:evenodd;"
d="M 62.350000,164.350000
60.650000,164.350000
60.650000,162.650000
62.350000,162.650000
Z" /> 
</g>
<g style="fill:#000000; fill-opacity:1.000000; stroke:none;">
<circle cx="64.040000" cy="163.500000" r="0.850000" /> 
<circle cx="66.580000" cy="163.500000" r="0.850000" /> 
<circle cx="69.120000" cy="163.500000" r="0.850000" /> 
<circle cx="71.660000" cy="163.500000" r="0.850000" /> 
<circle cx="74.200000" cy="163.500000" r="0.850000" /> 
<circle cx="76.740000" cy="163.500000" r="0.850000" /> 
<circle cx="79.280000" cy="163.500000" r="0.850000" /> 
<circle cx="81.820000" cy="163.500000" r="0.850000" /> 
<circle cx="84.360000" cy="163.500000" r="0.850000" /> 
<circle cx="86.900000" cy="163.500000" r="0.850000" /> 
<circle cx="89.440000" cy="163.500000" r="0.850000" /> 
<circle cx="91.980000" cy="163.500000" r="0.850000" /> 
<circle cx="94.520000" cy="163.500000" r="0.850000" /> 
<circle cx="97.060000" cy="163.500000" r="0.850000" /> 
<circle cx="99.600000" cy="163.500000" r="0.850000" /> 
<circle cx="102.140000" cy="163.500000" r="0.850000" /> 
<circle cx="104.680000" cy="163.500000" r="0.850000" /> 
<circle cx="107.220000" cy="163.500000" r="0.850000" /> 
<circle cx="109.760000" cy="163.500000" r="0.850000" /> 
<circle cx="112.300000" cy="163.500000" r="0.850000" /> 
<circle cx="114.840000" cy="163.500000" r="0.850000" /> 
<circle cx="117.380000" cy="163.500000" r="0.850000" /> 
<circle cx="119.920000" cy="163.500000" r="0.850000" /> 
<circle cx="122.460000" cy="163.500000" r="0.850000" /> 
<circle cx="125.000000" cy="163.500000" r="0.850000" /> 
<circle cx="127.540000" cy="163.500000" r="0.850000" /> 
<circle cx="130.080000" cy="163.500000" r="0.850000" /> 
<circle cx="132.620000" cy="163.500000" r="0.850000" /> 
<circle cx="135.160000" cy="163.500000" r="0.850000" /> 
<circle cx="137.700000" cy="163.500000" r="0.850000" /> 
<circle cx="140.240000" cy="163.500000" r="0.850000" /> 
<circle cx="142.780000" cy="163.500000" r="0.850000" /> 
<circle cx="145.320000" cy="163.500000" r="0.850000" /> 
<circle cx="147.860000" cy="163.500000" r="0.850000" /> 
<circle cx="150.400000" cy="163.500000" r="0.850000" /> 
<circle cx="152.940000" cy="163.500000" r="0.850000" /> 
<circle cx="155.480000" cy="163.500000" r="0.850000" /> 
<circle cx="158.020000" cy="163.500000" r="0.850000" /> 
</g> 
</svg>
