<?xml version="1.0" standalone="no"?>
 <!DOCTYPE svg PUBLIC "-//W3C//DTD SVG 1.1//EN" 
 "http://www.w3.org/Graphics/SVG/1.1/DTD/svg11.dtd"> 
<svg
  xmlns:svg="http://www.w3.org/2000/svg"
  xmlns="http://www.w3.org/2000/svg"
  xmlns:xlink="http://www.w3.org/1999/xlink"
  version="1.1"
  width="10.215000000000002cm" height="5.215cm" viewBox="58.925 113.925 102.15 52.15">
<title>SVG Image created as rcbus-opl3-B_SilkS.svg date 2025/10/08 18:44:51 </title>
  <desc>Image generated by PCBNEW </desc>
<g style="fill:#000000; fill-opacity:1.000000;stroke:#000000; stroke-opacity:1.000000;
stroke-linecap:round; stroke-linejoin:round;"
 transform="translate(0 0) scale(1 1)">
<path style="fill:#000000; fill-opacity:1.000000; stroke:none;fill-rule:evenodd;"
d="M 160.232230,161.372500
160.232230,159.771762
159.920729,159.771762
159.920729,160.359960
159.854268,160.313743
159.762460,160.268003
159.662847,160.236567
159.562333,160.226237
159.478063,160.232558
159.411186,160.249896
159.358268,160.276612
159.312585,160.314391
159.276215,160.360894
159.248634,160.417388
159.223803,160.512014
159.214928,160.626215
159.214928,161.372500
159.526338,161.372500
159.526338,160.666149
159.531899,160.615791
159.547221,160.577031
159.571910,160.545639
159.603916,160.523542
159.641749,160.510461
159.686714,160.505865
159.772535,160.517039
159.850296,160.546806
159.920729,160.589030
159.920729,161.372500
Z" /> 
<path style="fill:#000000; fill-opacity:1.000000; stroke:none;fill-rule:evenodd;"
d="M 158.553732,161.372500
158.640149,161.367719
158.709532,161.354639
158.764850,161.334764
158.813562,161.304208
158.852125,161.262843
158.881445,161.209009
158.899684,161.149082
158.911170,161.071295
158.913960,160.971605
158.903610,160.494050
159.079648,160.494050
159.079648,160.294564
158.892436,160.245105
158.851129,159.929116
158.605573,159.929116
158.605573,160.245105
158.339501,160.245105
158.339501,160.494050
158.605573,160.494050
158.605573,160.970048
158.596872,161.044970
158.585956,161.072278
158.572234,161.092139
158.535689,161.117968
158.492733,161.128226
158.350675,161.142331
158.350675,161.372500
Z" /> 
<path style="fill:#000000; fill-opacity:1.000000; stroke:none;fill-rule:evenodd;"
d="M 157.737473,161.372500
157.823890,161.367719
157.893273,161.354639
157.948590,161.334764
157.997302,161.304208
158.035865,161.262843
158.065186,161.209009
158.083424,161.149082
158.094911,161.071295
158.097700,160.971605
158.087351,160.494050
158.263389,160.494050
158.263389,160.294564
158.076177,160.245105
158.034869,159.929116
157.789313,159.929116
157.789313,160.245105
157.523241,160.245105
157.523241,160.494050
157.789313,160.494050
157.789313,160.970048
157.780612,161.044970
157.769696,161.072278
157.755974,161.092139
157.719429,161.117968
157.676473,161.128226
157.534415,161.142331
157.534415,161.372500
Z" /> 
<path style="fill:#000000; fill-opacity:1.000000; stroke:none;fill-rule:evenodd;"
d="M 156.789343,160.232406
156.847208,160.245655
156.901936,160.266207
156.951530,160.291816
157.039640,160.352541
157.090199,160.245105
157.351142,160.245105
157.351142,161.870205
157.039640,161.870205
157.039640,161.314248
156.969068,161.345131
156.889248,161.368836
156.806804,161.383399
156.726857,161.388162
156.626816,161.379556
156.548281,161.355946
156.486705,161.319285
156.435732,161.268346
156.394546,161.203114
156.363332,161.120807
156.336657,160.984329
156.326787,160.809672
156.638197,160.809672
156.645899,160.931226
156.664941,161.008425
156.697593,161.069576
156.735100,161.104779
156.780243,161.124949
156.828248,161.131615
156.884749,161.127840
156.941455,161.116411
156.995300,161.098338
157.039640,161.076386
157.039640,160.541219
156.947042,160.498812
156.890420,160.483639
156.826691,160.478387
156.774558,160.485948
156.729605,160.508155
156.693571,160.545987
156.662835,160.610828
156.645183,160.690631
156.638197,160.809672
156.326787,160.809672
156.332842,160.678244
156.349777,160.566773
156.380156,160.464595
156.421584,160.383316
156.477592,160.316343
156.546606,160.267820
156.627552,160.238357
156.726857,160.227886
Z" /> 
<path style="fill:#000000; fill-opacity:1.000000; stroke:none;fill-rule:evenodd;"
d="M 155.712577,161.385139
155.826700,161.381750
155.948791,161.372500
156.061448,161.356746
156.148643,161.334123
156.148643,161.151582
155.649563,161.151582
155.577389,161.144071
155.551898,161.133107
155.534982,161.116686
155.524984,161.094114
155.521152,161.060449
155.521152,161.024087
155.528294,160.986216
155.548629,160.958874
155.582806,160.942453
155.649013,160.935427
155.825692,160.935427
155.919326,160.927910
156.000082,160.906484
156.048531,160.882744
156.089158,160.850911
156.122905,160.810405
156.146906,160.763447
156.162475,160.704055
156.168151,160.629146
156.168151,160.563750
156.163133,160.493113
156.149020,160.433596
156.126752,160.383316
156.094171,160.340026
156.048244,160.303106
155.986160,160.272491
155.918742,160.252910
155.830010,160.239623
155.715142,160.234664
155.566398,160.241899
155.417563,160.260676
155.306371,160.286138
155.306371,160.468679
155.778157,160.468679
155.835098,160.474419
155.871213,160.488920
155.894067,160.515776
155.902812,160.563750
155.902812,160.598463
155.898669,160.631608
155.887883,160.653235
155.869691,160.668473
155.841812,160.678697
155.765700,160.685383
155.584533,160.685383
155.497009,160.691330
155.428418,160.707508
155.375046,160.732105
155.333940,160.764335
155.291668,160.821424
155.265219,160.892836
155.255721,160.982688
155.255721,161.083530
155.262293,161.157398
155.280459,161.216223
155.308936,161.263140
155.348266,161.301803
155.399090,161.333235
155.463725,161.357204
155.571227,161.377522
Z" /> 
<path style="fill:#000000; fill-opacity:1.000000; stroke:none;fill-rule:evenodd;"
d="M 155.026194,161.375614
155.051085,161.370600
155.064750,161.357263
155.069791,161.333482
155.069791,161.118792
155.064602,161.093009
155.050799,161.078857
155.026194,161.073638
154.846492,161.073638
154.820798,161.078939
154.806550,161.093167
154.801246,161.118792
154.801246,161.333482
154.804774,161.354213
154.813978,161.366271
154.846492,161.375614
Z" /> 
<path style="fill:#000000; fill-opacity:1.000000; stroke:none;fill-rule:evenodd;"
d="M 155.026194,160.543234
155.051085,160.538220
155.064750,160.524884
155.069791,160.501102
155.069791,160.286413
155.064602,160.260629
155.050799,160.246477
155.026194,160.241258
154.846492,160.241258
154.820798,160.246560
154.806550,160.260787
154.801246,160.286413
154.801246,160.501102
154.804774,160.521834
154.813978,160.533892
154.846492,160.543234
Z" /> 
<path style="fill:#000000; fill-opacity:1.000000; stroke:none;fill-rule:evenodd;"
d="M 154.701870,161.523716
154.111749,159.755459
153.795485,159.755459
154.385606,161.523716
Z" /> 
<path style="fill:#000000; fill-opacity:1.000000; stroke:none;fill-rule:evenodd;"
d="M 154.026294,161.523716
153.436173,159.755459
153.119909,159.755459
153.710030,161.523716
Z" /> 
<path style="fill:#000000; fill-opacity:1.000000; stroke:none;fill-rule:evenodd;"
d="M 153.054422,161.372500
153.054422,160.245105
152.797692,160.245105
152.742920,160.359960
152.665979,160.309238
152.581628,160.265713
152.522075,160.244636
152.450946,160.231089
152.366115,160.226237
152.296920,160.231620
152.238909,160.246764
152.190077,160.270751
152.127569,160.321833
152.082640,160.384598
151.971723,160.312241
151.905711,160.278799
151.833971,160.250967
151.759947,160.232297
151.688432,160.226237
151.598997,160.232725
151.528846,160.250408
151.474109,160.277437
151.427137,160.315996
151.390461,160.363702
151.363467,160.421967
151.339804,160.520132
151.331227,160.641603
151.331227,161.372500
151.642637,161.372500
151.642637,160.669172
151.648031,160.617465
151.662695,160.578588
151.686695,160.547035
151.718199,160.524366
151.756077,160.510756
151.803654,160.505865
151.866135,160.512119
151.931057,160.531510
151.992851,160.560380
152.046095,160.594067
152.039409,160.634184
152.037120,160.675400
152.037120,161.372500
152.348529,161.372500
152.348529,160.669172
152.353923,160.617465
152.368588,160.578588
152.392539,160.547014
152.423817,160.524366
152.461446,160.510762
152.508905,160.505865
152.595001,160.516215
152.672212,160.545249
152.742920,160.589030
152.742920,161.372500
Z" /> 
<path style="fill:#000000; fill-opacity:1.000000; stroke:none;fill-rule:evenodd;"
d="M 150.767225,160.235600
150.880691,160.248860
150.985165,160.269718
151.070651,160.293557
151.070651,160.472984
150.733595,160.472984
150.635214,160.477785
150.576608,160.489287
150.531542,160.511159
150.506358,160.539845
150.492932,160.577073
150.487948,160.627315
150.487948,160.703702
150.775636,160.703702
150.873108,160.709961
150.950128,160.727027
151.010562,160.752977
151.057553,160.786866
151.107735,160.847250
151.137629,160.916736
151.147953,160.998258
151.147953,161.100199
151.138315,161.185357
151.111255,161.253726
151.067445,161.309118
151.009702,161.350721
150.941356,161.376190
150.859442,161.385139
150.790514,161.381479
150.726085,161.370759
150.664590,161.354021
150.611138,161.333940
150.524035,161.290159
150.472561,161.253431
150.422003,161.372500
150.176447,161.372500
150.176447,161.113938
150.487948,161.113938
150.508281,161.122181
150.548307,161.136561
150.600056,161.151673
150.654644,161.164221
150.702821,161.168893
150.769957,161.157260
150.797329,161.142250
150.818500,161.119159
150.831687,161.089161
150.836544,161.048267
150.836544,161.002838
150.826463,160.947039
150.797892,160.906484
150.751879,160.879689
150.676168,160.864077
150.487948,160.850980
150.487948,161.113938
150.176447,161.113938
150.176447,160.605882
150.183124,160.510208
150.201196,160.436151
150.228562,160.379286
150.268144,160.330552
150.318134,160.292201
150.380237,160.263698
150.485523,160.238995
150.620389,160.230267
Z" /> 
<path style="fill:#000000; fill-opacity:1.000000; stroke:none;fill-rule:evenodd;"
d="M 149.906986,160.079142
149.931886,160.074135
149.945547,160.060823
149.950583,160.037102
149.950583,159.831663
149.945394,159.805880
149.931591,159.791728
149.906986,159.786509
149.667292,159.786509
149.649198,159.789892
149.637250,159.799240
149.627359,159.831663
149.627359,160.037102
149.632145,160.061171
149.644817,160.074316
149.667292,160.079142
Z" /> 
<path style="fill:#000000; fill-opacity:1.000000; stroke:none;fill-rule:evenodd;"
d="M 149.944722,161.372500
149.944722,160.245105
149.633220,160.245105
149.633220,161.372500
Z" /> 
<path style="fill:#000000; fill-opacity:1.000000; stroke:none;fill-rule:evenodd;"
d="M 148.715569,160.280459
148.850300,160.243640
148.926765,160.231828
149.004264,160.227886
149.110489,160.235667
149.193623,160.256863
149.258338,160.289252
149.312653,160.336093
149.356470,160.398797
149.389771,160.480677
149.409966,160.568350
149.423517,160.679985
149.428514,160.820205
149.422644,160.956339
149.406742,161.064147
149.382994,161.148468
149.345943,161.226701
149.300731,161.285836
149.247347,161.329085
149.185018,161.359371
149.111790,161.378404
149.025330,161.385139
148.968121,161.381107
148.911116,161.368927
148.855710,161.349878
148.803314,161.325330
148.754847,161.295930
148.715569,161.265063
148.665011,161.372500
148.404160,161.372500
148.404160,160.504491
148.715569,160.504491
148.715569,161.071806
148.801390,161.114213
148.854406,161.129331
148.916245,161.134637
148.984054,161.127256
149.033207,161.107435
149.070129,161.071301
149.097504,161.008425
149.111381,160.929176
149.117013,160.804818
149.110943,160.672647
149.096130,160.590312
149.077932,160.543588
149.055013,160.510761
149.027620,160.488829
148.975298,160.468899
148.902965,160.461443
148.851858,160.464998
148.804046,160.475457
148.715569,160.504491
148.404160,160.504491
148.404160,159.770205
148.715569,159.770205
Z" /> 
<path style="fill:#000000; fill-opacity:1.000000; stroke:none;fill-rule:evenodd;"
d="M 147.839241,160.235600
147.952707,160.248860
148.057182,160.269718
148.142667,160.293557
148.142667,160.472984
147.805612,160.472984
147.707231,160.477785
147.648625,160.489287
147.603559,160.511159
147.578375,160.539845
147.564949,160.577073
147.559965,160.627315
147.559965,160.703702
147.847652,160.703702
147.945125,160.709961
148.022145,160.727027
148.082579,160.752977
148.129570,160.786866
148.179751,160.847250
148.209646,160.916736
148.219970,160.998258
148.219970,161.100199
148.210332,161.185357
148.183272,161.253726
148.139462,161.309118
148.081718,161.350721
148.013373,161.376190
147.931458,161.385139
147.862531,161.381479
147.798102,161.370759
147.736607,161.354021
147.683155,161.333940
147.596052,161.290159
147.544578,161.253431
147.494019,161.372500
147.248464,161.372500
147.248464,161.113938
147.559965,161.113938
147.580298,161.122181
147.620323,161.136561
147.672072,161.151673
147.726661,161.164221
147.774838,161.168893
147.841974,161.157260
147.869346,161.142250
147.890517,161.119159
147.903704,161.089161
147.908561,161.048267
147.908561,161.002838
147.898480,160.947039
147.869909,160.906484
147.823896,160.879689
147.748185,160.864077
147.559965,160.850980
147.559965,161.113938
147.248464,161.113938
147.248464,160.605882
147.255141,160.510208
147.273213,160.436151
147.300579,160.379286
147.340161,160.330552
147.390151,160.292201
147.452254,160.263698
147.557540,160.238995
147.692406,160.230267
Z" /> 
<path style="fill:#000000; fill-opacity:1.000000; stroke:none;fill-rule:evenodd;"
d="M 146.731799,161.372500
147.109795,160.245105
146.789135,160.245105
146.546418,161.084629
146.295184,160.245105
145.977638,160.245105
146.373219,161.372500
Z" /> 
<path style="fill:#000000; fill-opacity:1.000000; stroke:none;fill-rule:evenodd;"
d="M 145.542870,160.235600
145.656336,160.248860
145.760810,160.269718
145.846296,160.293557
145.846296,160.472984
145.509241,160.472984
145.410859,160.477785
145.352254,160.489287
145.307188,160.511159
145.282003,160.539845
145.268577,160.577073
145.263594,160.627315
145.263594,160.703702
145.551281,160.703702
145.648754,160.709961
145.725774,160.727027
145.786207,160.752977
145.833199,160.786866
145.883380,160.847250
145.913274,160.916736
145.923599,160.998258
145.923599,161.100199
145.913961,161.185357
145.886901,161.253726
145.843090,161.309118
145.785347,161.350721
145.717002,161.376190
145.635087,161.385139
145.566159,161.381479
145.501730,161.370759
145.440236,161.354021
145.386784,161.333940
145.299681,161.290159
145.248206,161.253431
145.197648,161.372500
144.952092,161.372500
144.952092,161.113938
145.263594,161.113938
145.283927,161.122181
145.323952,161.136561
145.375701,161.151673
145.430289,161.164221
145.478466,161.168893
145.545603,161.157260
145.572975,161.142250
145.594146,161.119159
145.607333,161.089161
145.612189,161.048267
145.612189,161.002838
145.602109,160.947039
145.573538,160.906484
145.527524,160.879689
145.451813,160.864077
145.263594,160.850980
145.263594,161.113938
144.952092,161.113938
144.952092,160.605882
144.958770,160.510208
144.976842,160.436151
145.004208,160.379286
145.043790,160.330552
145.093780,160.292201
145.155883,160.263698
145.261169,160.238995
145.396034,160.230267
Z" /> 
<path style="fill:#000000; fill-opacity:1.000000; stroke:none;fill-rule:evenodd;"
d="M 144.366551,161.377079
144.445342,161.372278
144.510539,161.358934
144.564387,161.338244
144.612389,161.307594
144.651216,161.267903
144.681716,161.218077
144.702140,161.162534
144.715504,161.093548
144.720367,161.008333
144.720367,159.770205
144.408866,159.770205
144.408866,160.962355
144.405157,161.022455
144.395768,161.062830
144.378838,161.095540
144.356567,161.116686
144.328228,161.130646
144.291996,161.139950
144.205259,161.151582
144.205259,161.377079
Z" /> 
<path style="fill:#000000; fill-opacity:1.000000; stroke:none;fill-rule:evenodd;"
d="M 143.723630,160.234429
143.820416,160.252061
143.894765,160.278353
143.959493,160.319621
144.011012,160.377393
144.050287,160.454665
144.074354,160.540195
144.090927,160.656070
144.097181,160.809672
144.090627,160.959229
144.073174,161.073172
144.047631,161.158360
144.006609,161.234943
143.953219,161.292425
143.886339,161.333573
143.810084,161.359722
143.712292,161.377151
143.588210,161.383582
143.458824,161.379278
143.356484,161.367645
143.176050,161.334123
143.176050,161.151582
143.505686,161.151582
143.613595,161.145136
143.680167,161.129417
143.730985,161.099293
143.761867,161.055869
143.778937,160.999800
143.788703,160.919124
143.503671,160.919124
143.396624,160.911674
143.310689,160.891188
143.259552,160.867803
143.217883,160.836547
143.184385,160.797033
143.160723,160.750810
143.145321,160.691911
143.139805,160.618705
143.414278,160.618705
143.422674,160.676182
143.443679,160.708098
143.478417,160.726074
143.535911,160.733194
143.791817,160.733194
143.786495,160.628482
143.773315,160.561094
143.747758,160.507736
143.712499,160.476098
143.665748,160.458839
143.599201,160.452284
143.536037,160.456680
143.491948,160.468038
143.456662,160.489192
143.432871,160.520336
143.419448,160.560489
143.414278,160.618705
143.139805,160.618705
143.139688,160.617148
143.145600,160.515146
143.161407,160.437481
143.184843,160.379194
143.220607,160.328991
143.268422,160.289901
143.330473,160.261225
143.439703,160.237276
143.599201,160.227886
Z" /> 
<path style="fill:#000000; fill-opacity:1.000000; stroke:none;fill-rule:evenodd;"
d="M 142.899537,161.375614
142.924427,161.370600
142.938093,161.357263
142.943134,161.333482
142.943134,161.118792
142.937944,161.093009
142.924142,161.078857
142.899537,161.073638
142.719835,161.073638
142.694140,161.078939
142.679892,161.093167
142.674589,161.118792
142.674589,161.333482
142.678117,161.354213
142.687320,161.366271
142.719835,161.375614
Z" /> 
<path style="fill:#000000; fill-opacity:1.000000; stroke:none;fill-rule:evenodd;"
d="M 142.094331,160.234886
142.198315,160.253806
142.261547,160.275957
142.314745,160.306080
142.359333,160.344115
142.395624,160.390201
142.426140,160.448385
142.450374,160.520977
142.471296,160.640931
142.479317,160.806192
142.471607,160.963260
142.451198,161.081057
142.427538,161.152828
142.397289,161.211454
142.360890,161.258927
142.316230,161.298560
142.263003,161.330465
142.199872,161.354639
142.095568,161.375761
141.961644,161.383582
141.824783,161.376131
141.720027,161.356196
141.656667,161.332994
141.603664,161.302075
141.559559,161.263506
141.523693,161.217005
141.493819,161.158729
141.470441,161.086461
141.450406,160.967415
141.442781,160.806192
141.442858,160.804635
141.754190,160.804635
141.757658,160.909952
141.766464,160.982047
141.783062,161.043443
141.803558,161.081515
141.832008,161.108702
141.867397,161.124471
141.908513,161.131880
141.961644,161.134637
142.014591,161.131879
142.055525,161.124471
142.090682,161.108720
142.119089,161.081515
142.139477,161.043449
142.155909,160.982047
142.164452,160.909949
142.167816,160.804635
142.164437,160.699050
142.155909,160.627773
142.139497,160.567313
142.119089,160.529678
142.090703,160.502694
142.055525,160.486997
142.014591,160.479589
141.961644,160.476830
141.908513,160.479588
141.867397,160.486997
141.831986,160.502712
141.803558,160.529678
141.783042,160.567319
141.766464,160.627773
141.757673,160.699047
141.754190,160.804635
141.442858,160.804635
141.450840,160.643685
141.471998,160.524091
141.496330,160.451431
141.526696,160.393251
141.562582,160.347229
141.606640,160.309111
141.659668,160.278457
141.723141,160.255363
141.827546,160.235318
141.961644,160.227886
Z" /> 
<path style="fill:#000000; fill-opacity:1.000000; stroke:none;fill-rule:evenodd;"
d="M 141.238441,161.372500
141.238441,160.245105
140.997465,160.245105
140.926940,160.417296
140.862028,160.345274
140.789553,160.284764
140.735913,160.254396
140.675558,160.235863
140.606829,160.229443
140.561034,160.231824
140.514963,160.240525
140.514963,160.559629
140.581825,160.552759
140.646763,160.550103
140.706250,160.553624
140.757313,160.563567
140.804869,160.580257
140.848172,160.603226
140.888072,160.632634
140.926940,160.670454
140.926940,161.372500
Z" /> 
<path style="fill:#000000; fill-opacity:1.000000; stroke:none;fill-rule:evenodd;"
d="M 140.000829,160.249054
140.087281,160.262967
140.157758,160.284214
140.222790,160.316626
140.273931,160.357145
140.313188,160.406031
140.340828,160.462577
140.358387,160.530605
140.364662,160.612660
140.360381,160.675907
140.347626,160.736949
140.325020,160.794714
140.290931,160.848690
140.245586,160.895358
140.184686,160.935702
140.240599,160.953863
140.285538,160.979681
140.321340,161.013005
140.348118,161.053594
140.364459,161.100446
140.370158,161.155245
140.360238,161.220141
140.330683,161.277546
140.278933,161.329818
140.254102,161.343819
140.316839,161.378642
140.375928,161.434323
140.404708,161.479132
140.422174,161.529968
140.428226,161.588471
140.428226,161.622360
140.422579,161.678905
140.406351,161.727709
140.379775,161.770371
140.323586,161.822921
140.247517,161.862329
140.160365,161.885432
140.058656,161.893561
139.720136,161.893561
139.608628,161.886409
139.520101,161.866867
139.450267,161.837086
139.395629,161.798123
139.350413,161.747091
139.317842,161.687524
139.297547,161.617730
139.290391,161.535348
139.290391,161.519686
139.585405,161.519686
139.585405,161.552201
139.590870,161.590791
139.606298,161.620897
139.632025,161.644617
139.683839,161.667007
139.756956,161.675391
139.971095,161.675391
140.043903,161.666636
140.091629,161.643884
140.114437,161.620141
140.128344,161.590069
140.133303,161.551652
140.133303,161.527105
140.128041,161.487924
140.113245,161.457313
140.089571,161.432974
140.057283,161.414815
140.019770,161.404199
139.975034,161.400435
139.748529,161.400435
139.694030,161.404404
139.655564,161.414723
139.623916,161.432573
139.602716,161.455298
139.589951,161.483695
139.585405,161.519686
139.290391,161.519686
139.290391,161.505673
139.296436,161.425169
139.313105,161.360515
139.338934,161.308661
139.375559,161.263933
139.421545,161.228019
139.478335,161.200491
139.574613,161.175913
139.697879,161.166878
140.010388,161.166878
140.046092,161.163423
140.077616,161.153414
140.100122,161.134469
140.107932,161.103039
140.098805,161.066033
140.072304,161.042772
140.033615,161.030245
139.980987,161.025553
139.780952,161.025553
139.682669,161.019746
139.604924,161.003945
139.543915,160.980032
139.488767,160.945097
139.446168,160.904135
139.414497,160.856750
139.384408,160.775175
139.374013,160.681262
139.376370,160.638306
139.654740,160.638306
139.658287,160.682466
139.668204,160.718906
139.686860,160.749419
139.716839,160.772761
139.756083,160.786571
139.815849,160.791995
139.935283,160.791995
139.983463,160.787189
140.019702,160.774150
140.046841,160.753893
140.066224,160.726012
140.079087,160.686868
140.083936,160.632718
140.078665,160.576938
140.064904,160.538344
140.044368,160.512276
139.998019,160.487198
139.925666,160.477563
139.808521,160.477563
139.760574,160.481708
139.723891,160.492950
139.693955,160.513158
139.672142,160.543875
139.659553,160.582865
139.654740,160.638306
139.376370,160.638306
139.377549,160.616829
139.386836,160.569521
139.401806,160.527546
139.418710,160.495881
139.457544,160.446789
139.284804,160.415739
139.284804,160.244006
139.895441,160.244006
Z" /> 
<path style="fill:#000000; fill-opacity:1.000000; stroke:none;fill-rule:evenodd;"
d="M 139.214920,161.523716
138.624798,159.755459
138.308534,159.755459
138.898656,161.523716
Z" /> 
<path style="fill:#000000; fill-opacity:1.000000; stroke:none;fill-rule:evenodd;"
d="M 137.681249,160.232406
137.739113,160.245655
137.793841,160.266207
137.843435,160.291816
137.931546,160.352541
137.982104,160.245105
138.243047,160.245105
138.243047,161.870205
137.931546,161.870205
137.931546,161.314248
137.860973,161.345131
137.781153,161.368836
137.698709,161.383399
137.618762,161.388162
137.518721,161.379556
137.440186,161.355946
137.378610,161.319285
137.327637,161.268346
137.286451,161.203114
137.255237,161.120807
137.228562,160.984329
137.218692,160.809672
137.530102,160.809672
137.537804,160.931226
137.556846,161.008425
137.589499,161.069576
137.627005,161.104779
137.672149,161.124949
137.720153,161.131615
137.776654,161.127840
137.833360,161.116411
137.887205,161.098338
137.931546,161.076386
137.931546,160.541219
137.838947,160.498812
137.782325,160.483639
137.718596,160.478387
137.666463,160.485948
137.621510,160.508155
137.585476,160.545987
137.554740,160.610828
137.537088,160.690631
137.530102,160.809672
137.218692,160.809672
137.224747,160.678244
137.241682,160.566773
137.272061,160.464595
137.313489,160.383316
137.369497,160.316343
137.438511,160.267820
137.519457,160.238357
137.618762,160.227886
Z" /> 
<path style="fill:#000000; fill-opacity:1.000000; stroke:none;fill-rule:evenodd;"
d="M 137.014994,161.372500
137.014994,160.245105
136.774018,160.245105
136.703493,160.417296
136.638581,160.345274
136.566106,160.284764
136.512465,160.254396
136.452110,160.235863
136.383382,160.229443
136.337586,160.231824
136.291516,160.240525
136.291516,160.559629
136.358377,160.552759
136.423315,160.550103
136.482803,160.553624
136.533866,160.563567
136.581422,160.580257
136.624724,160.603226
136.664624,160.632634
136.703493,160.670454
136.703493,161.372500
Z" /> 
<path style="fill:#000000; fill-opacity:1.000000; stroke:none;fill-rule:evenodd;"
d="M 135.775280,160.234886
135.879264,160.253806
135.942496,160.275957
135.995694,160.306080
136.040282,160.344115
136.076574,160.390201
136.107089,160.448385
136.131323,160.520977
136.152245,160.640931
136.160266,160.806192
136.152556,160.963260
136.132147,161.081057
136.108487,161.152828
136.078238,161.211454
136.041839,161.258927
135.997179,161.298560
135.943952,161.330465
135.880822,161.354639
135.776517,161.375761
135.642593,161.383582
135.505732,161.376131
135.400976,161.356196
135.337617,161.332994
135.284613,161.302075
135.240508,161.263506
135.204642,161.217005
135.174768,161.158729
135.151390,161.086461
135.131355,160.967415
135.123730,160.806192
135.123807,160.804635
135.435139,160.804635
135.438607,160.909952
135.447413,160.982047
135.464011,161.043443
135.484507,161.081515
135.512957,161.108702
135.548346,161.124471
135.589462,161.131880
135.642593,161.134637
135.695540,161.131879
135.736474,161.124471
135.771631,161.108720
135.800038,161.081515
135.820426,161.043449
135.836858,160.982047
135.845401,160.909949
135.848765,160.804635
135.845386,160.699050
135.836858,160.627773
135.820446,160.567313
135.800038,160.529678
135.771652,160.502694
135.736474,160.486997
135.695540,160.479589
135.642593,160.476830
135.589462,160.479588
135.548346,160.486997
135.512935,160.502712
135.484507,160.529678
135.463991,160.567319
135.447413,160.627773
135.438622,160.699047
135.435139,160.804635
135.123807,160.804635
135.131790,160.643685
135.152947,160.524091
135.177279,160.451431
135.207645,160.393251
135.243531,160.347229
135.287589,160.309111
135.340617,160.278457
135.404090,160.255363
135.508495,160.235318
135.642593,160.227886
Z" /> 
<path style="fill:#000000; fill-opacity:1.000000; stroke:none;fill-rule:evenodd;"
d="M 134.883120,160.079142
134.908080,160.074131
134.921766,160.060815
134.926809,160.037102
134.926809,159.831663
134.921613,159.805889
134.907786,159.791732
134.883120,159.786509
134.643518,159.786509
134.625424,159.789892
134.613476,159.799240
134.603584,159.831663
134.603584,160.037102
134.608370,160.061171
134.621042,160.074316
134.643518,160.079142
Z" /> 
<path style="fill:#000000; fill-opacity:1.000000; stroke:none;fill-rule:evenodd;"
d="M 134.919390,161.870205
134.919390,160.245105
134.607889,160.245105
134.607889,161.363432
134.612858,161.496116
134.628039,161.633717
134.652904,161.766566
134.683085,161.870205
Z" /> 
<path style="fill:#000000; fill-opacity:1.000000; stroke:none;fill-rule:evenodd;"
d="M 134.029631,160.234429
134.126418,160.252061
134.200767,160.278353
134.265494,160.319621
134.317013,160.377393
134.356288,160.454665
134.380356,160.540195
134.396928,160.656070
134.403183,160.809672
134.396629,160.959229
134.379175,161.073172
134.353632,161.158360
134.312610,161.234943
134.259220,161.292425
134.192340,161.333573
134.116086,161.359722
134.018293,161.377151
133.894211,161.383582
133.764825,161.379278
133.662486,161.367645
133.482051,161.334123
133.482051,161.151582
133.811688,161.151582
133.919596,161.145136
133.986169,161.129417
134.036986,161.099293
134.067868,161.055869
134.084939,160.999800
134.094704,160.919124
133.809673,160.919124
133.702625,160.911674
133.616690,160.891188
133.565553,160.867803
133.523884,160.836547
133.490386,160.797033
133.466724,160.750810
133.451322,160.691911
133.445807,160.618705
133.720280,160.618705
133.728675,160.676182
133.749681,160.708098
133.784418,160.726074
133.841913,160.733194
134.097818,160.733194
134.092497,160.628482
134.079317,160.561094
134.053760,160.507736
134.018500,160.476098
133.971749,160.458839
133.905202,160.452284
133.842039,160.456680
133.797949,160.468038
133.762664,160.489192
133.738873,160.520336
133.725449,160.560489
133.720280,160.618705
133.445807,160.618705
133.445690,160.617148
133.451601,160.515146
133.467408,160.437481
133.490844,160.379194
133.526608,160.328991
133.574423,160.289901
133.636474,160.261225
133.745704,160.237276
133.905202,160.227886
Z" /> 
<path style="fill:#000000; fill-opacity:1.000000; stroke:none;fill-rule:evenodd;"
d="M 132.803270,161.385139
132.903328,161.378137
132.992772,161.357937
133.073933,161.321421
133.143165,161.266712
133.180772,161.221003
133.213660,161.163424
133.241442,161.091864
133.266687,160.973621
133.276246,160.813886
133.267353,160.648753
133.244006,160.527572
133.217846,160.453948
133.186480,160.394998
133.150400,160.348420
133.106545,160.309209
133.056320,160.278399
132.998817,160.255730
132.904999,160.235599
132.794111,160.228435
132.693556,160.231393
132.598381,160.240068
132.503452,160.255441
132.401368,160.279452
132.401368,160.458970
132.697299,160.458970
132.788826,160.466904
132.853096,160.487638
132.887623,160.511112
132.915946,160.545253
132.938275,160.592418
132.957086,160.676991
132.964745,160.811504
132.957015,160.944615
132.938184,161.026652
132.915817,161.071632
132.887423,161.103613
132.852638,161.124929
132.788122,161.143001
132.694277,161.150025
132.386073,161.150025
132.386073,161.326429
132.506973,161.356288
132.653427,161.377629
Z" /> 
<path style="fill:#000000; fill-opacity:1.000000; stroke:none;fill-rule:evenodd;"
d="M 131.784228,161.372500
131.870645,161.367719
131.940028,161.354639
131.995345,161.334764
132.044057,161.304208
132.082620,161.262843
132.111941,161.209009
132.130179,161.149082
132.141666,161.071295
132.144456,160.971605
132.134106,160.494050
132.310144,160.494050
132.310144,160.294564
132.122932,160.245105
132.081624,159.929116
131.836068,159.929116
131.836068,160.245105
131.569996,160.245105
131.569996,160.494050
131.836068,160.494050
131.836068,160.970048
131.827367,161.044970
131.816452,161.072278
131.802729,161.092139
131.766184,161.117968
131.723228,161.128226
131.581170,161.142331
131.581170,161.372500
Z" /> 
<path style="fill:#000000; fill-opacity:1.000000; stroke:none;fill-rule:evenodd;"
d="M 130.987386,161.385139
131.101508,161.381750
131.223599,161.372500
131.336256,161.356746
131.423451,161.334123
131.423451,161.151582
130.924371,161.151582
130.852197,161.144071
130.826706,161.133107
130.809790,161.116686
130.799792,161.094114
130.795960,161.060449
130.795960,161.024087
130.803102,160.986216
130.823438,160.958874
130.857614,160.942453
130.923821,160.935427
131.100501,160.935427
131.194135,160.927910
131.274890,160.906484
131.323339,160.882744
131.363966,160.850911
131.397714,160.810405
131.421714,160.763447
131.437283,160.704055
131.442960,160.629146
131.442960,160.563750
131.437941,160.493113
131.423828,160.433596
131.401560,160.383316
131.368979,160.340026
131.323053,160.303106
131.260968,160.272491
131.193550,160.252910
131.104818,160.239623
130.989950,160.234664
130.841206,160.241899
130.692371,160.260676
130.581179,160.286138
130.581179,160.468679
131.052965,160.468679
131.109906,160.474419
131.146021,160.488920
131.168875,160.515776
131.177620,160.563750
131.177620,160.598463
131.173478,160.631608
131.162691,160.653235
131.144499,160.668473
131.116621,160.678697
131.040508,160.685383
130.859341,160.685383
130.771818,160.691330
130.703226,160.707508
130.649855,160.732105
130.608748,160.764335
130.566476,160.821424
130.540027,160.892836
130.530529,160.982688
130.530529,161.083530
130.537101,161.157398
130.555267,161.216223
130.583744,161.263140
130.623074,161.301803
130.673898,161.333235
130.738533,161.357204
130.846036,161.377522
Z" /> 
<path style="fill:#000000; fill-opacity:1.000000; stroke:none;fill-rule:evenodd;"
d="M 130.466141,161.523716
129.876020,159.755459
129.559756,159.755459
130.149877,161.523716
Z" /> 
<path style="fill:#000000; fill-opacity:1.000000; stroke:none;fill-rule:evenodd;"
d="M 129.494268,161.372500
129.494268,160.245105
129.253292,160.245105
129.182767,160.417296
129.117855,160.345274
129.045380,160.284764
128.991739,160.254396
128.931385,160.235863
128.862656,160.229443
128.816860,160.231824
128.770790,160.240525
128.770790,160.559629
128.837652,160.552759
128.902590,160.550103
128.962077,160.553624
129.013140,160.563567
129.060696,160.580257
129.103998,160.603226
129.143899,160.632634
129.182767,160.670454
129.182767,161.372500
Z" /> 
<path style="fill:#000000; fill-opacity:1.000000; stroke:none;fill-rule:evenodd;"
d="M 128.166564,161.385139
128.266622,161.378137
128.356066,161.357937
128.437227,161.321421
128.506458,161.266712
128.544066,161.221003
128.576954,161.163424
128.604736,161.091864
128.629980,160.973621
128.639540,160.813886
128.630646,160.648753
128.607300,160.527572
128.581140,160.453948
128.549774,160.394998
128.513694,160.348420
128.469838,160.309209
128.419614,160.278399
128.362111,160.255730
128.268293,160.235599
128.157405,160.228435
128.056850,160.231393
127.961675,160.240068
127.866746,160.255441
127.764662,160.279452
127.764662,160.458970
128.060593,160.458970
128.152119,160.466904
128.216389,160.487638
128.250917,160.511112
128.279240,160.545253
128.301569,160.592418
128.320380,160.676991
128.328039,160.811504
128.320309,160.944615
128.301478,161.026652
128.279110,161.071632
128.250716,161.103613
128.215931,161.124929
128.151416,161.143001
128.057570,161.150025
127.749367,161.150025
127.749367,161.326429
127.870267,161.356288
128.016721,161.377629
Z" /> 
<path style="fill:#000000; fill-opacity:1.000000; stroke:none;fill-rule:evenodd;"
d="M 127.577450,161.372500
127.316507,161.372500
127.265949,161.265063
127.176281,161.324414
127.126989,161.348822
127.070585,161.368469
127.009827,161.380757
126.937870,161.385139
126.851640,161.377650
126.780140,161.356605
126.720524,161.323132
126.670286,161.276648
126.628120,161.215070
126.594220,161.135370
126.572524,161.050467
126.558269,160.946517
126.553096,160.820205
126.553656,160.804818
126.864505,160.804818
126.871587,160.924116
126.889326,161.002472
126.920182,161.065654
126.956463,161.102672
127.001627,161.124226
127.054557,161.131615
127.120701,161.127027
127.174816,161.114304
127.265949,161.076386
127.265949,160.541219
127.170694,160.497896
127.115056,160.483350
127.054557,160.478387
127.005779,160.483817
126.960859,160.499911
126.923592,160.530796
126.890975,160.590312
126.872356,160.668962
126.864505,160.804818
126.553656,160.804818
126.558251,160.678504
126.572200,160.566280
126.592938,160.478662
126.626540,160.396543
126.669145,160.334279
126.720524,160.288336
126.781811,160.256103
126.858136,160.235386
126.953165,160.227886
127.030124,160.235005
127.114640,160.257561
127.196714,160.289601
127.265949,160.323324
127.265949,159.770205
127.577450,159.770205
Z" /> 
<path style="fill:#000000; fill-opacity:1.000000; stroke:none;fill-rule:evenodd;"
d="M 126.029469,161.385139
126.104795,161.378964
126.168135,161.361541
126.221682,161.333798
126.267057,161.295655
126.312861,161.230991
126.341896,161.148554
126.352420,161.043230
126.352420,160.245105
126.041010,160.245105
126.041010,160.949532
126.034974,161.011214
126.019519,161.051720
125.996771,161.077301
125.947174,161.101212
125.877154,161.110091
125.819081,161.104707
125.756894,161.087834
125.697502,161.061539
125.646527,161.028667
125.646527,160.245105
125.335118,160.245105
125.335118,161.372500
125.591756,161.372500
125.646527,161.257644
125.726815,161.303706
125.821466,161.346213
125.922202,161.375323
Z" /> 
<path style="fill:#000000; fill-opacity:1.000000; stroke:none;fill-rule:evenodd;"
d="M 124.690316,161.385139
124.804439,161.381750
124.926530,161.372500
125.039187,161.356746
125.126382,161.334123
125.126382,161.151582
124.627302,161.151582
124.555128,161.144071
124.529637,161.133107
124.512721,161.116686
124.502723,161.094114
124.498891,161.060449
124.498891,161.024087
124.506033,160.986216
124.526368,160.958874
124.560545,160.942453
124.626752,160.935427
124.803431,160.935427
124.897066,160.927910
124.977821,160.906484
125.026270,160.882744
125.066897,160.850911
125.100644,160.810405
125.124645,160.763447
125.140214,160.704055
125.145890,160.629146
125.145890,160.563750
125.140872,160.493113
125.126759,160.433596
125.104491,160.383316
125.071910,160.340026
125.025983,160.303106
124.963899,160.272491
124.896481,160.252910
124.807749,160.239623
124.692881,160.234664
124.544137,160.241899
124.395302,160.260676
124.284110,160.286138
124.284110,160.468679
124.755896,160.468679
124.812837,160.474419
124.848952,160.488920
124.871806,160.515776
124.880551,160.563750
124.880551,160.598463
124.876408,160.631608
124.865622,160.653235
124.847430,160.668473
124.819551,160.678697
124.743439,160.685383
124.562272,160.685383
124.474748,160.691330
124.406157,160.707508
124.352785,160.732105
124.311679,160.764335
124.269407,160.821424
124.242958,160.892836
124.233460,160.982688
124.233460,161.083530
124.240032,161.157398
124.258198,161.216223
124.286675,161.263140
124.326005,161.301803
124.376829,161.333235
124.441464,161.357204
124.548966,161.377522
Z" /> 
<path style="fill:#000000; fill-opacity:1.000000; stroke:none;fill-rule:evenodd;"
d="M 124.114209,160.888532
124.114209,160.638489
123.471789,160.638489
123.471789,160.888532
Z" /> 
<path style="fill:#000000; fill-opacity:1.000000; stroke:none;fill-rule:evenodd;"
d="M 122.955462,160.234886
123.059446,160.253806
123.122677,160.275957
123.175876,160.306080
123.220463,160.344115
123.256755,160.390201
123.287271,160.448385
123.311505,160.520977
123.332427,160.640931
123.340447,160.806192
123.332737,160.963260
123.312329,161.081057
123.288668,161.152828
123.258420,161.211454
123.222020,161.258927
123.177361,161.298560
123.124134,161.330465
123.061003,161.354639
122.956699,161.375761
122.822775,161.383582
122.685914,161.376131
122.581157,161.356196
122.517798,161.332994
122.464795,161.302075
122.420690,161.263506
122.384823,161.217005
122.354949,161.158729
122.331572,161.086461
122.311536,160.967415
122.303911,160.806192
122.303988,160.804635
122.615321,160.804635
122.618788,160.909952
122.627594,160.982047
122.644193,161.043443
122.664688,161.081515
122.693138,161.108702
122.728527,161.124471
122.769643,161.131880
122.822775,161.134637
122.875722,161.131879
122.916655,161.124471
122.951812,161.108720
122.980220,161.081515
123.000608,161.043449
123.017039,160.982047
123.025582,160.909949
123.028946,160.804635
123.025568,160.699050
123.017039,160.627773
123.000628,160.567313
122.980220,160.529678
122.951834,160.502694
122.916655,160.486997
122.875722,160.479589
122.822775,160.476830
122.769643,160.479588
122.728527,160.486997
122.693117,160.502712
122.664688,160.529678
122.644173,160.567319
122.627594,160.627773
122.618803,160.699047
122.615321,160.804635
122.303988,160.804635
122.311971,160.643685
122.333129,160.524091
122.357460,160.451431
122.387827,160.393251
122.423712,160.347229
122.467770,160.309111
122.520799,160.278457
122.584271,160.255363
122.688676,160.235318
122.822775,160.227886
Z" /> 
<path style="fill:#000000; fill-opacity:1.000000; stroke:none;fill-rule:evenodd;"
d="M 121.537773,160.232406
121.595637,160.245655
121.650366,160.266207
121.699960,160.291816
121.788070,160.352541
121.838629,160.245105
122.099572,160.245105
122.099572,161.870205
121.788070,161.870205
121.788070,161.314248
121.717498,161.345131
121.637678,161.368836
121.555234,161.383399
121.475287,161.388162
121.375245,161.379556
121.296711,161.355946
121.235135,161.319285
121.184162,161.268346
121.142976,161.203114
121.111762,161.120807
121.085087,160.984329
121.075217,160.809672
121.386627,160.809672
121.394329,160.931226
121.413371,161.008425
121.446023,161.069576
121.483530,161.104779
121.528673,161.124949
121.576678,161.131615
121.633179,161.127840
121.689885,161.116411
121.743730,161.098338
121.788070,161.076386
121.788070,160.541219
121.695472,160.498812
121.638850,160.483639
121.575121,160.478387
121.522988,160.485948
121.478035,160.508155
121.442001,160.545987
121.411265,160.610828
121.393613,160.690631
121.386627,160.809672
121.075217,160.809672
121.081272,160.678244
121.098206,160.566773
121.128586,160.464595
121.170014,160.383316
121.226022,160.316343
121.295036,160.267820
121.375982,160.238357
121.475287,160.227886
Z" /> 
<path style="fill:#000000; fill-opacity:1.000000; stroke:none;fill-rule:evenodd;"
d="M 120.517702,161.377079
120.596494,161.372278
120.661691,161.358934
120.715539,161.338244
120.763541,161.307594
120.802367,161.267903
120.832867,161.218077
120.853292,161.162534
120.866656,161.093548
120.871519,161.008333
120.871519,159.770205
120.560017,159.770205
120.560017,160.962355
120.556309,161.022455
120.546920,161.062830
120.529990,161.095540
120.507719,161.116686
120.479380,161.130646
120.443147,161.139950
120.356410,161.151582
120.356410,161.377079
Z" /> 
<path style="fill:#000000; fill-opacity:1.000000; stroke:none;fill-rule:evenodd;"
d="M 119.659769,161.385139
119.825331,161.382159
119.979330,161.373507
120.127793,161.358943
120.254561,161.340259
120.254561,161.091681
119.777555,161.091681
119.696025,161.088174
119.636962,161.079042
119.587183,161.060730
119.555263,161.034803
119.536082,160.998618
119.528885,160.945319
119.528885,160.880564
119.536210,160.828899
119.556271,160.791721
119.587733,160.763553
119.629544,160.743544
119.677126,160.731811
119.732950,160.726233
120.115709,160.710021
120.115709,160.471793
119.746689,160.451460
119.657257,160.438738
119.599135,160.416472
119.570908,160.392852
119.553658,160.360276
119.547386,160.315630
119.547386,160.262874
119.554092,160.210808
119.572704,160.171096
119.602982,160.140691
119.642426,160.120521
119.701838,160.106306
119.788271,160.100758
120.221130,160.100758
120.221130,159.852179
119.960004,159.818199
119.817082,159.807441
119.663524,159.805834
119.573556,159.812033
119.497276,159.827548
119.432623,159.851263
119.373748,159.885596
119.326124,159.928322
119.288458,159.980040
119.261802,160.038597
119.244970,160.107582
119.238999,160.189143
119.238999,160.304914
119.242824,160.363388
119.253562,160.412717
119.271362,160.457638
119.294687,160.495423
119.323715,160.527971
119.356969,160.554408
119.393914,160.575299
119.433997,160.590861
119.391421,160.606818
119.350832,160.631436
119.314305,160.663014
119.281772,160.701595
119.255168,160.745926
119.233962,160.799323
119.220867,160.857332
119.216285,160.923612
119.216285,161.003662
119.224394,161.095338
119.247194,161.171302
119.283504,161.234611
119.333704,161.287411
119.394385,161.328209
119.467274,161.358674
119.554757,161.378163
Z" /> 
<path style="fill:#000000; fill-opacity:1.000000; stroke:none;fill-rule:evenodd;"
d="M 119.086867,161.523716
118.496745,159.755459
118.180481,159.755459
118.770603,161.523716
Z" /> 
<path style="fill:#000000; fill-opacity:1.000000; stroke:none;fill-rule:evenodd;"
d="M 87.842560,158.375139
87.973255,158.366819
88.081887,158.343632
88.147780,158.316817
88.206229,158.278662
88.258200,158.228410
88.299852,158.169023
88.336615,158.090339
88.367468,157.988075
88.386782,157.882735
88.399773,157.748636
88.404563,157.580495
88.399628,157.419611
88.386168,157.289659
88.366003,157.186012
88.334258,157.085383
88.296558,157.006781
88.253804,156.946410
88.200916,156.894986
88.141714,156.855680
88.075293,156.827708
87.966181,156.803023
87.838072,156.794277
87.734961,156.797235
87.641701,156.805726
87.476654,156.833203
87.352731,156.867001
87.352731,157.107885
87.455038,157.092223
87.600851,157.079125
87.773134,157.073905
87.857343,157.079111
87.922427,157.093139
87.977757,157.120859
88.021254,157.166045
88.051911,157.226930
88.075842,157.320285
88.088294,157.428580
88.093153,157.583517
88.088980,157.732646
88.078132,157.840430
88.056515,157.934384
88.027666,157.996502
87.985499,158.043324
87.929938,158.073621
87.863331,158.089500
87.772859,158.095512
87.513565,158.089100
87.352731,158.073713
87.352731,158.314689
87.482699,158.346746
87.644448,158.367537
Z" /> 
<path style="fill:#000000; fill-opacity:1.000000; stroke:none;fill-rule:evenodd;"
d="M 86.633558,158.375139
86.764253,158.366819
86.872885,158.343632
86.938778,158.316817
86.997227,158.278662
87.049198,158.228410
87.090850,158.169023
87.127613,158.090339
87.158466,157.988075
87.177780,157.882735
87.190771,157.748636
87.195561,157.580495
87.190626,157.419611
87.177166,157.289659
87.157001,157.186012
87.125256,157.085383
87.087556,157.006781
87.044802,156.946410
86.991914,156.894986
86.932712,156.855680
86.866291,156.827708
86.757179,156.803023
86.629070,156.794277
86.525959,156.797235
86.432699,156.805726
86.267652,156.833203
86.143729,156.867001
86.143729,157.107885
86.246036,157.092223
86.391849,157.079125
86.564132,157.073905
86.648341,157.079111
86.713425,157.093139
86.768755,157.120859
86.812252,157.166045
86.842909,157.226930
86.866840,157.320285
86.879292,157.428580
86.884151,157.583517
86.879978,157.732646
86.869130,157.840430
86.847513,157.934384
86.818663,157.996502
86.776497,158.043324
86.720936,158.073621
86.654329,158.089500
86.563857,158.095512
86.304563,158.089100
86.143729,158.073713
86.143729,158.314689
86.273697,158.346746
86.435446,158.367537
Z" /> 
<path style="fill:#000000; fill-opacity:1.000000; stroke:none;fill-rule:evenodd;"
d="M 85.385904,158.362500
84.747148,158.362500
84.647328,158.357420
84.563151,158.343228
84.492342,158.321192
84.427751,158.287350
84.375534,158.242559
84.334164,158.185912
84.305823,158.120979
84.287219,158.038432
84.280400,157.934128
84.284317,157.879265
84.576514,157.879265
84.582638,157.948584
84.598679,157.997418
84.625614,158.036346
84.660686,158.062447
84.703196,158.077475
84.756399,158.082872
85.074495,158.082872
85.074495,157.687931
84.756399,157.687931
84.705328,157.693915
84.662701,157.711012
84.626970,157.738723
84.599503,157.776591
84.582580,157.822152
84.576514,157.879265
84.284317,157.879265
84.286354,157.850732
84.302932,157.781995
84.329866,157.720128
84.363656,157.669796
84.404784,157.627569
84.449660,157.595791
84.498264,157.571754
84.546930,157.555307
84.484371,157.531205
84.431892,157.493300
84.389791,157.442889
84.357428,157.378537
84.337944,157.305357
84.335170,157.270001
84.627072,157.270001
84.638247,157.344194
84.667006,157.399786
84.695863,157.427481
84.730642,157.444016
84.773252,157.449795
85.074495,157.449795
85.074495,157.088010
84.777190,157.088010
84.718508,157.098044
84.669845,157.127577
84.647178,157.157284
84.632126,157.202683
84.627072,157.270001
84.335170,157.270001
84.330958,157.216329
84.338444,157.118894
84.359406,157.038006
84.392433,156.970678
84.437296,156.914628
84.493084,156.871172
84.565094,156.838073
84.657176,156.816351
84.774168,156.808382
85.385904,156.808382
Z" /> 
<path style="fill:#000000; fill-opacity:1.000000; stroke:none;fill-rule:evenodd;"
d="M 83.700903,158.362500
83.700903,157.891721
84.168201,156.808382
83.844885,156.808382
83.539062,157.574725
83.233148,156.808382
82.922196,156.808382
83.389402,157.891721
83.389402,158.362500
Z" /> 
<path style="fill:#000000; fill-opacity:1.000000; stroke:none;fill-rule:evenodd;"
d="M 82.924211,157.878532
82.924211,157.628489
82.281791,157.628489
82.281791,157.878532
Z" /> 
<path style="fill:#000000; fill-opacity:1.000000; stroke:none;fill-rule:evenodd;"
d="M 81.632869,158.375139
81.758165,158.371475
81.888683,158.360576
82.013246,158.344456
82.121232,158.323207
82.121232,158.077743
81.977618,158.087360
81.811563,158.093405
81.648256,158.095512
81.571514,158.091858
81.510778,158.081956
81.457851,158.062448
81.420835,158.034237
81.397528,157.994895
81.388962,157.938158
81.388962,157.881372
81.394039,157.836624
81.408084,157.802006
81.430544,157.775126
81.478120,157.748584
81.546773,157.738764
81.680038,157.738764
81.792780,157.731628
81.885025,157.711871
81.960294,157.681340
82.021490,157.640945
82.070161,157.588202
82.106984,157.518410
82.131176,157.427294
82.140100,157.309202
82.140100,157.232540
82.130743,157.120079
82.104901,157.030194
82.064595,156.958348
82.009949,156.901256
81.942946,156.857702
81.860788,156.824792
81.760385,156.803513
81.637998,156.795834
81.465990,156.804169
81.302500,156.824411
81.167769,156.849415
81.167769,157.094879
81.381726,157.081232
81.601178,157.075462
81.671743,157.079123
81.729314,157.089200
81.779122,157.109419
81.814311,157.140308
81.835787,157.183114
81.843986,157.247928
81.843986,157.289235
81.838033,157.342022
81.822040,157.380072
81.797092,157.407205
81.763915,157.425796
81.719660,157.438082
81.661170,157.442650
81.506839,157.442650
81.414883,157.449038
81.338775,157.466847
81.275755,157.494674
81.219334,157.533952
81.173953,157.581008
81.138552,157.636549
81.113564,157.697953
81.098171,157.765849
81.092848,157.841438
81.092848,157.930464
81.101684,158.050378
81.125398,158.141093
81.161083,158.208993
81.212019,158.266159
81.274438,158.309717
81.350310,158.340334
81.476862,158.365863
Z" /> 
<path style="fill:#000000; fill-opacity:1.000000; stroke:none;fill-rule:evenodd;"
d="M 80.964346,158.362500
80.644143,158.362500
80.547057,158.037351
80.017843,158.037351
79.918742,158.362500
79.595425,158.362500
79.785718,157.757724
80.092032,157.757724
80.474059,157.757724
80.282908,157.075370
80.092032,157.757724
79.785718,157.757724
80.084430,156.808382
80.475341,156.808382
Z" /> 
<path style="fill:#000000; fill-opacity:1.000000; stroke:none;fill-rule:evenodd;"
d="M 88.380474,160.882500
88.380474,159.281762
88.068973,159.281762
88.068973,159.869960
88.002512,159.823743
87.910704,159.778003
87.811091,159.746567
87.710577,159.736237
87.626307,159.742558
87.559430,159.759896
87.506512,159.786612
87.460829,159.824391
87.424459,159.870894
87.396878,159.927388
87.372047,160.022014
87.363172,160.136215
87.363172,160.882500
87.674582,160.882500
87.674582,160.176149
87.680143,160.125791
87.695465,160.087031
87.720154,160.055639
87.752160,160.033542
87.789993,160.020461
87.834958,160.015865
87.920779,160.027039
87.998540,160.056806
88.068973,160.099030
88.068973,160.882500
Z" /> 
<path style="fill:#000000; fill-opacity:1.000000; stroke:none;fill-rule:evenodd;"
d="M 86.701976,160.882500
86.788393,160.877719
86.857776,160.864639
86.913094,160.844764
86.961806,160.814208
87.000369,160.772843
87.029689,160.719009
87.047928,160.659082
87.059414,160.581295
87.062204,160.481605
87.051854,160.004050
87.227892,160.004050
87.227892,159.804564
87.040680,159.755105
86.999373,159.439116
86.753817,159.439116
86.753817,159.755105
86.487745,159.755105
86.487745,160.004050
86.753817,160.004050
86.753817,160.480048
86.745116,160.554970
86.734200,160.582278
86.720478,160.602139
86.683933,160.627968
86.640977,160.638226
86.498919,160.652331
86.498919,160.882500
Z" /> 
<path style="fill:#000000; fill-opacity:1.000000; stroke:none;fill-rule:evenodd;"
d="M 85.885717,160.882500
85.972134,160.877719
86.041517,160.864639
86.096834,160.844764
86.145546,160.814208
86.184109,160.772843
86.213430,160.719009
86.231668,160.659082
86.243155,160.581295
86.245944,160.481605
86.235595,160.004050
86.411633,160.004050
86.411633,159.804564
86.224421,159.755105
86.183113,159.439116
85.937557,159.439116
85.937557,159.755105
85.671485,159.755105
85.671485,160.004050
85.937557,160.004050
85.937557,160.480048
85.928856,160.554970
85.917940,160.582278
85.904218,160.602139
85.867673,160.627968
85.824717,160.638226
85.682659,160.652331
85.682659,160.882500
Z" /> 
<path style="fill:#000000; fill-opacity:1.000000; stroke:none;fill-rule:evenodd;"
d="M 84.937587,159.742406
84.995452,159.755655
85.050180,159.776207
85.099774,159.801816
85.187884,159.862541
85.238443,159.755105
85.499386,159.755105
85.499386,161.380205
85.187884,161.380205
85.187884,160.824248
85.117312,160.855131
85.037492,160.878836
84.955048,160.893399
84.875101,160.898162
84.775060,160.889556
84.696525,160.865946
84.634949,160.829285
84.583976,160.778346
84.542790,160.713114
84.511576,160.630807
84.484901,160.494329
84.475031,160.319672
84.786441,160.319672
84.794143,160.441226
84.813185,160.518425
84.845837,160.579576
84.883344,160.614779
84.928487,160.634949
84.976492,160.641615
85.032993,160.637840
85.089699,160.626411
85.143544,160.608338
85.187884,160.586386
85.187884,160.051219
85.095286,160.008812
85.038664,159.993639
84.974935,159.988387
84.922802,159.995948
84.877849,160.018155
84.841815,160.055987
84.811079,160.120828
84.793427,160.200631
84.786441,160.319672
84.475031,160.319672
84.481086,160.188244
84.498021,160.076773
84.528400,159.974595
84.569828,159.893316
84.625836,159.826343
84.694850,159.777820
84.775796,159.748357
84.875101,159.737886
Z" /> 
<path style="fill:#000000; fill-opacity:1.000000; stroke:none;fill-rule:evenodd;"
d="M 83.860821,160.895139
83.974944,160.891750
84.097035,160.882500
84.209692,160.866746
84.296887,160.844123
84.296887,160.661582
83.797807,160.661582
83.725633,160.654071
83.700142,160.643107
83.683226,160.626686
83.673228,160.604114
83.669396,160.570449
83.669396,160.534087
83.676538,160.496216
83.696873,160.468874
83.731050,160.452453
83.797257,160.445427
83.973936,160.445427
84.067570,160.437910
84.148326,160.416484
84.196775,160.392744
84.237402,160.360911
84.271149,160.320405
84.295150,160.273447
84.310719,160.214055
84.316395,160.139146
84.316395,160.073750
84.311377,160.003113
84.297264,159.943596
84.274996,159.893316
84.242415,159.850026
84.196488,159.813106
84.134404,159.782491
84.066986,159.762910
83.978254,159.749623
83.863386,159.744664
83.714642,159.751899
83.565807,159.770676
83.454615,159.796138
83.454615,159.978679
83.926401,159.978679
83.983342,159.984419
84.019457,159.998920
84.042311,160.025776
84.051056,160.073750
84.051056,160.108463
84.046913,160.141608
84.036127,160.163235
84.017935,160.178473
83.990056,160.188697
83.913944,160.195383
83.732777,160.195383
83.645253,160.201330
83.576662,160.217508
83.523290,160.242105
83.482184,160.274335
83.439912,160.331424
83.413463,160.402836
83.403965,160.492688
83.403965,160.593530
83.410537,160.667398
83.428703,160.726223
83.457180,160.773140
83.496510,160.811803
83.547334,160.843235
83.611969,160.867204
83.719471,160.887522
Z" /> 
<path style="fill:#000000; fill-opacity:1.000000; stroke:none;fill-rule:evenodd;"
d="M 83.174438,160.885614
83.199329,160.880600
83.212994,160.867263
83.218035,160.843482
83.218035,160.628792
83.212846,160.603009
83.199043,160.588857
83.174438,160.583638
82.994736,160.583638
82.969042,160.588939
82.954794,160.603167
82.949490,160.628792
82.949490,160.843482
82.953018,160.864213
82.962222,160.876271
82.994736,160.885614
Z" /> 
<path style="fill:#000000; fill-opacity:1.000000; stroke:none;fill-rule:evenodd;"
d="M 83.174438,160.053234
83.199329,160.048220
83.212994,160.034884
83.218035,160.011102
83.218035,159.796413
83.212846,159.770629
83.199043,159.756477
83.174438,159.751258
82.994736,159.751258
82.969042,159.756560
82.954794,159.770787
82.949490,159.796413
82.949490,160.011102
82.953018,160.031834
82.962222,160.043892
82.994736,160.053234
Z" /> 
<path style="fill:#000000; fill-opacity:1.000000; stroke:none;fill-rule:evenodd;"
d="M 82.850114,161.033716
82.259993,159.265459
81.943729,159.265459
82.533850,161.033716
Z" /> 
<path style="fill:#000000; fill-opacity:1.000000; stroke:none;fill-rule:evenodd;"
d="M 82.174538,161.033716
81.584417,159.265459
81.268153,159.265459
81.858274,161.033716
Z" /> 
<path style="fill:#000000; fill-opacity:1.000000; stroke:none;fill-rule:evenodd;"
d="M 80.826043,160.895139
80.926101,160.888137
81.015545,160.867937
81.096706,160.831421
81.165937,160.776712
81.203545,160.731003
81.236433,160.673424
81.264215,160.601864
81.289459,160.483621
81.299019,160.323886
81.290126,160.158753
81.266779,160.037572
81.240619,159.963948
81.209253,159.904998
81.173173,159.858420
81.129318,159.819209
81.079093,159.788399
81.021590,159.765730
80.927772,159.745599
80.816884,159.738435
80.716329,159.741393
80.621154,159.750068
80.526225,159.765441
80.424141,159.789452
80.424141,159.968970
80.720072,159.968970
80.811599,159.976904
80.875869,159.997638
80.910396,160.021112
80.938719,160.055253
80.961048,160.102418
80.979859,160.186991
80.987518,160.321504
80.979788,160.454615
80.960957,160.536652
80.938590,160.581632
80.910196,160.613613
80.875411,160.634929
80.810895,160.653001
80.717050,160.660025
80.408846,160.660025
80.408846,160.836429
80.529746,160.866288
80.676200,160.887629
Z" /> 
<path style="fill:#000000; fill-opacity:1.000000; stroke:none;fill-rule:evenodd;"
d="M 80.236929,160.882500
80.236929,159.755105
79.995953,159.755105
79.925428,159.927296
79.860516,159.855274
79.788041,159.794764
79.734401,159.764396
79.674046,159.745863
79.605317,159.739443
79.559522,159.741824
79.513451,159.750525
79.513451,160.069629
79.580313,160.062759
79.645251,160.060103
79.704739,160.063624
79.755801,160.073567
79.803357,160.090257
79.846660,160.113226
79.886560,160.142634
79.925428,160.180454
79.925428,160.882500
Z" /> 
<path style="fill:#000000; fill-opacity:1.000000; stroke:none;fill-rule:evenodd;"
d="M 79.008650,159.744429
79.105436,159.762061
79.179785,159.788353
79.244513,159.829621
79.296032,159.887393
79.335307,159.964665
79.359374,160.050195
79.375947,160.166070
79.382201,160.319672
79.375647,160.469229
79.358194,160.583172
79.332651,160.668360
79.291629,160.744943
79.238239,160.802425
79.171359,160.843573
79.095104,160.869722
78.997312,160.887151
78.873230,160.893582
78.743844,160.889278
78.641504,160.877645
78.461070,160.844123
78.461070,160.661582
78.790706,160.661582
78.898615,160.655136
78.965187,160.639417
79.016005,160.609293
79.046887,160.565869
79.063957,160.509800
79.073723,160.429124
78.788691,160.429124
78.681644,160.421674
78.595709,160.401188
78.544572,160.377803
78.502903,160.346547
78.469405,160.307033
78.445743,160.260810
78.430341,160.201911
78.424825,160.128705
78.699298,160.128705
78.707694,160.186182
78.728699,160.218098
78.763437,160.236074
78.820931,160.243194
79.076837,160.243194
79.071515,160.138482
79.058335,160.071094
79.032778,160.017736
78.997519,159.986098
78.950768,159.968839
78.884221,159.962284
78.821057,159.966680
78.776968,159.978038
78.741682,159.999192
78.717891,160.030336
78.704468,160.070489
78.699298,160.128705
78.424825,160.128705
78.424708,160.127148
78.430620,160.025146
78.446427,159.947481
78.469863,159.889194
78.505627,159.838991
78.553442,159.799901
78.615493,159.771225
78.724723,159.747276
78.884221,159.737886
Z" /> 
<path style="fill:#000000; fill-opacity:1.000000; stroke:none;fill-rule:evenodd;"
d="M 77.889649,159.745600
78.003115,159.758860
78.107589,159.779718
78.193075,159.803557
78.193075,159.982984
77.856019,159.982984
77.757638,159.987785
77.699032,159.999287
77.653966,160.021159
77.628782,160.049845
77.615356,160.087073
77.610372,160.137315
77.610372,160.213702
77.898060,160.213702
77.995532,160.219961
78.072552,160.237027
78.132986,160.262977
78.179977,160.296866
78.230159,160.357250
78.260053,160.426736
78.270377,160.508258
78.270377,160.610199
78.260739,160.695357
78.233679,160.763726
78.189869,160.819118
78.132126,160.860721
78.063780,160.886190
77.981866,160.895139
77.912938,160.891479
77.848509,160.880759
77.787014,160.864021
77.733562,160.843940
77.646459,160.800159
77.594985,160.763431
77.544427,160.882500
77.298871,160.882500
77.298871,160.623938
77.610372,160.623938
77.630705,160.632181
77.670731,160.646561
77.722480,160.661673
77.777068,160.674221
77.825245,160.678893
77.892381,160.667260
77.919753,160.652250
77.940924,160.629159
77.954111,160.599161
77.958968,160.558267
77.958968,160.512838
77.948887,160.457039
77.920316,160.416484
77.874303,160.389689
77.798592,160.374077
77.610372,160.360980
77.610372,160.623938
77.298871,160.623938
77.298871,160.115882
77.305548,160.020208
77.323620,159.946151
77.350986,159.889286
77.390568,159.840552
77.440558,159.802201
77.502661,159.773698
77.607947,159.748995
77.742813,159.740267
Z" /> 
<path style="fill:#000000; fill-opacity:1.000000; stroke:none;fill-rule:evenodd;"
d="M 76.637217,160.882500
76.723634,160.877719
76.793017,160.864639
76.848335,160.844764
76.897047,160.814208
76.935610,160.772843
76.964930,160.719009
76.983168,160.659082
76.994655,160.581295
76.997445,160.481605
76.987095,160.004050
77.163133,160.004050
77.163133,159.804564
76.975921,159.755105
76.934613,159.439116
76.689058,159.439116
76.689058,159.755105
76.422986,159.755105
76.422986,160.004050
76.689058,160.004050
76.689058,160.480048
76.680357,160.554970
76.669441,160.582278
76.655719,160.602139
76.619174,160.627968
76.576217,160.638226
76.434160,160.652331
76.434160,160.882500
Z" /> 
<path style="fill:#000000; fill-opacity:1.000000; stroke:none;fill-rule:evenodd;"
d="M 76.213150,159.589142
76.238050,159.584135
76.251711,159.570823
76.256748,159.547102
76.256748,159.341663
76.251558,159.315880
76.237756,159.301728
76.213150,159.296509
75.973457,159.296509
75.955363,159.299892
75.943415,159.309240
75.933523,159.341663
75.933523,159.547102
75.938309,159.571171
75.950981,159.584316
75.973457,159.589142
Z" /> 
<path style="fill:#000000; fill-opacity:1.000000; stroke:none;fill-rule:evenodd;"
d="M 76.250886,160.882500
76.250886,159.755105
75.939385,159.755105
75.939385,160.882500
Z" /> 
<path style="fill:#000000; fill-opacity:1.000000; stroke:none;fill-rule:evenodd;"
d="M 75.416400,160.882500
75.794396,159.755105
75.473736,159.755105
75.231019,160.594629
74.979785,159.755105
74.662239,159.755105
75.057821,160.882500
Z" /> 
<path style="fill:#000000; fill-opacity:1.000000; stroke:none;fill-rule:evenodd;"
d="M 74.219536,159.744429
74.316322,159.762061
74.390671,159.788353
74.455399,159.829621
74.506918,159.887393
74.546193,159.964665
74.570260,160.050195
74.586833,160.166070
74.593088,160.319672
74.586534,160.469229
74.569080,160.583172
74.543537,160.668360
74.502515,160.744943
74.449125,160.802425
74.382245,160.843573
74.305991,160.869722
74.208198,160.887151
74.084116,160.893582
73.954730,160.889278
73.852391,160.877645
73.671956,160.844123
73.671956,160.661582
74.001593,160.661582
74.109501,160.655136
74.176074,160.639417
74.226891,160.609293
74.257773,160.565869
74.274844,160.509800
74.284609,160.429124
73.999578,160.429124
73.892530,160.421674
73.806595,160.401188
73.755458,160.377803
73.713789,160.346547
73.680291,160.307033
73.656629,160.260810
73.641227,160.201911
73.635712,160.128705
73.910185,160.128705
73.918580,160.186182
73.939585,160.218098
73.974323,160.236074
74.031818,160.243194
74.287723,160.243194
74.282402,160.138482
74.269222,160.071094
74.243664,160.017736
74.208405,159.986098
74.161654,159.968839
74.095107,159.962284
74.031944,159.966680
73.987854,159.978038
73.952569,159.999192
73.928778,160.030336
73.915354,160.070489
73.910185,160.128705
73.635712,160.128705
73.635595,160.127148
73.641506,160.025146
73.657313,159.947481
73.680749,159.889194
73.716513,159.838991
73.764328,159.799901
73.826379,159.771225
73.935609,159.747276
74.095107,159.737886
Z" /> 
<path style="fill:#000000; fill-opacity:1.000000; stroke:none;fill-rule:evenodd;"
d="M 72.993175,160.895139
73.093233,160.888137
73.182677,160.867937
73.263838,160.831421
73.333069,160.776712
73.370677,160.731003
73.403565,160.673424
73.431347,160.601864
73.456591,160.483621
73.466151,160.323886
73.457257,160.158753
73.433911,160.037572
73.407751,159.963948
73.376385,159.904998
73.340305,159.858420
73.296449,159.819209
73.246225,159.788399
73.188722,159.765730
73.094904,159.745599
72.984016,159.738435
72.883461,159.741393
72.788286,159.750068
72.693357,159.765441
72.591273,159.789452
72.591273,159.968970
72.887204,159.968970
72.978730,159.976904
73.043000,159.997638
73.077528,160.021112
73.105851,160.055253
73.128180,160.102418
73.146991,160.186991
73.154650,160.321504
73.146920,160.454615
73.128089,160.536652
73.105721,160.581632
73.077328,160.613613
73.042543,160.634929
72.978027,160.653001
72.884182,160.660025
72.575978,160.660025
72.575978,160.836429
72.696878,160.866288
72.843332,160.887629
Z" /> 
<path style="fill:#000000; fill-opacity:1.000000; stroke:none;fill-rule:evenodd;"
d="M 72.052415,159.744886
72.156399,159.763806
72.219630,159.785957
72.272829,159.816080
72.317416,159.854115
72.353708,159.900201
72.384224,159.958385
72.408458,160.030977
72.429380,160.150931
72.437400,160.316192
72.429690,160.473260
72.409282,160.591057
72.385621,160.662828
72.355373,160.721454
72.318973,160.768927
72.274314,160.808560
72.221087,160.840465
72.157956,160.864639
72.053652,160.885761
71.919728,160.893582
71.782867,160.886131
71.678110,160.866196
71.614751,160.842994
71.561748,160.812075
71.517643,160.773506
71.481776,160.727005
71.451902,160.668729
71.428525,160.596461
71.408489,160.477415
71.400864,160.316192
71.400941,160.314635
71.712274,160.314635
71.715741,160.419952
71.724547,160.492047
71.741146,160.553443
71.761641,160.591515
71.790091,160.618702
71.825480,160.634471
71.866596,160.641880
71.919728,160.644637
71.972675,160.641879
72.013608,160.634471
72.048765,160.618720
72.077173,160.591515
72.097561,160.553449
72.113992,160.492047
72.122535,160.419949
72.125899,160.314635
72.122521,160.209050
72.113992,160.137773
72.097581,160.077313
72.077173,160.039678
72.048787,160.012694
72.013608,159.996997
71.972675,159.989589
71.919728,159.986830
71.866596,159.989588
71.825480,159.996997
71.790070,160.012712
71.761641,160.039678
71.741126,160.077319
71.724547,160.137773
71.715756,160.209047
71.712274,160.314635
71.400941,160.314635
71.408924,160.153685
71.430082,160.034091
71.454413,159.961431
71.484780,159.903251
71.520665,159.857229
71.564723,159.819111
71.617752,159.788457
71.681224,159.765363
71.785629,159.745318
71.919728,159.737886
Z" /> 
<path style="fill:#000000; fill-opacity:1.000000; stroke:none;fill-rule:evenodd;"
d="M 71.196525,160.882500
71.196525,159.755105
70.939795,159.755105
70.885023,159.869960
70.808082,159.819238
70.723731,159.775713
70.664178,159.754636
70.593049,159.741089
70.508218,159.736237
70.439023,159.741620
70.381012,159.756764
70.332180,159.780751
70.269672,159.831833
70.224743,159.894598
70.113827,159.822241
70.047814,159.788799
69.976074,159.760967
69.902050,159.742297
69.830535,159.736237
69.741100,159.742725
69.670949,159.760408
69.616212,159.787437
69.569240,159.825996
69.532564,159.873702
69.505570,159.931967
69.481907,160.030132
69.473330,160.151603
69.473330,160.882500
69.784740,160.882500
69.784740,160.179172
69.790134,160.127465
69.804798,160.088588
69.828798,160.057035
69.860302,160.034366
69.898180,160.020756
69.945757,160.015865
70.008238,160.022119
70.073160,160.041510
70.134954,160.070380
70.188198,160.104067
70.181512,160.144184
70.179223,160.185400
70.179223,160.882500
70.490632,160.882500
70.490632,160.179172
70.496026,160.127465
70.510691,160.088588
70.534642,160.057014
70.565920,160.034366
70.603549,160.020762
70.651008,160.015865
70.737104,160.026215
70.814315,160.055249
70.885023,160.099030
70.885023,160.882500
Z" /> 
<path style="fill:#000000; fill-opacity:1.000000; stroke:none;fill-rule:evenodd;"
d="M 69.241605,160.882500
69.241605,159.755105
68.984875,159.755105
68.930104,159.869960
68.853163,159.819238
68.768812,159.775713
68.709259,159.754636
68.638129,159.741089
68.553298,159.736237
68.484103,159.741620
68.426092,159.756764
68.377260,159.780751
68.314752,159.831833
68.269824,159.894598
68.158907,159.822241
68.092895,159.788799
68.021154,159.760967
67.947130,159.742297
67.875616,159.736237
67.786180,159.742725
67.716029,159.760408
67.661293,159.787437
67.614320,159.825996
67.577645,159.873702
67.550650,159.931967
67.526987,160.030132
67.518410,160.151603
67.518410,160.882500
67.829820,160.882500
67.829820,160.179172
67.835214,160.127465
67.849879,160.088588
67.873878,160.057035
67.905383,160.034366
67.943260,160.020756
67.990837,160.015865
68.053318,160.022119
68.118240,160.041510
68.180034,160.070380
68.233279,160.104067
68.226593,160.144184
68.224303,160.185400
68.224303,160.882500
68.535712,160.882500
68.535712,160.179172
68.541106,160.127465
68.555771,160.088588
68.579722,160.057014
68.611000,160.034366
68.648630,160.020762
68.696088,160.015865
68.782184,160.026215
68.859395,160.055249
68.930104,160.099030
68.930104,160.882500
Z" /> 
<path style="fill:#000000; fill-opacity:1.000000; stroke:none;fill-rule:evenodd;"
d="M 66.935039,159.744886
67.039023,159.763806
67.102254,159.785957
67.155453,159.816080
67.200040,159.854115
67.236332,159.900201
67.266848,159.958385
67.291081,160.030977
67.312003,160.150931
67.320024,160.316192
67.312314,160.473260
67.291906,160.591057
67.268245,160.662828
67.237997,160.721454
67.201597,160.768927
67.156937,160.808560
67.103711,160.840465
67.040580,160.864639
66.936276,160.885761
66.802351,160.893582
66.665490,160.886131
66.560734,160.866196
66.497375,160.842994
66.444372,160.812075
66.400267,160.773506
66.364400,160.727005
66.334526,160.668729
66.311149,160.596461
66.291113,160.477415
66.283488,160.316192
66.283565,160.314635
66.594898,160.314635
66.598365,160.419952
66.607171,160.492047
66.623769,160.553443
66.644265,160.591515
66.672715,160.618702
66.708104,160.634471
66.749220,160.641880
66.802351,160.644637
66.855299,160.641879
66.896232,160.634471
66.931389,160.618720
66.959797,160.591515
66.980185,160.553449
66.996616,160.492047
67.005159,160.419949
67.008523,160.314635
67.005145,160.209050
66.996616,160.137773
66.980204,160.077313
66.959797,160.039678
66.931411,160.012694
66.896232,159.996997
66.855299,159.989589
66.802351,159.986830
66.749220,159.989588
66.708104,159.996997
66.672694,160.012712
66.644265,160.039678
66.623749,160.077319
66.607171,160.137773
66.598380,160.209047
66.594898,160.314635
66.283565,160.314635
66.291548,160.153685
66.312706,160.034091
66.337037,159.961431
66.367404,159.903251
66.403289,159.857229
66.447347,159.819111
66.500375,159.788457
66.563848,159.765363
66.668253,159.745318
66.802351,159.737886
Z" /> 
<path style="fill:#000000; fill-opacity:1.000000; stroke:none;fill-rule:evenodd;"
d="M 66.079148,160.882500
66.079148,159.755105
65.822419,159.755105
65.767647,159.869960
65.698819,159.822436
65.608645,159.777270
65.511170,159.746400
65.412365,159.736237
65.322013,159.743156
65.252371,159.761904
65.199050,159.790459
65.153572,159.830676
65.118260,159.878968
65.092529,159.936547
65.069778,160.031470
65.061846,160.139330
65.061846,160.882500
65.373256,160.882500
65.373256,160.179172
65.378650,160.127465
65.393314,160.088588
65.417266,160.057014
65.448544,160.034366
65.486173,160.020762
65.533632,160.015865
65.619728,160.026215
65.696939,160.055249
65.767647,160.099030
65.767647,160.882500
Z" /> 
<path style="fill:#000000; fill-opacity:1.000000; stroke:none;fill-rule:evenodd;"
d="M 64.420068,160.895139
64.534190,160.891750
64.656281,160.882500
64.768938,160.866746
64.856133,160.844123
64.856133,160.661582
64.357053,160.661582
64.284879,160.654071
64.259389,160.643107
64.242473,160.626686
64.232474,160.604114
64.228642,160.570449
64.228642,160.534087
64.235785,160.496216
64.256120,160.468874
64.290297,160.452453
64.356504,160.445427
64.533183,160.445427
64.626817,160.437910
64.707572,160.416484
64.756021,160.392744
64.796648,160.360911
64.830396,160.320405
64.854396,160.273447
64.869965,160.214055
64.875642,160.139146
64.875642,160.073750
64.870623,160.003113
64.856510,159.943596
64.834243,159.893316
64.801661,159.850026
64.755735,159.813106
64.693650,159.782491
64.626233,159.762910
64.537500,159.749623
64.422632,159.744664
64.273888,159.751899
64.125053,159.770676
64.013861,159.796138
64.013861,159.978679
64.485647,159.978679
64.542589,159.984419
64.578704,159.998920
64.601557,160.025776
64.610302,160.073750
64.610302,160.108463
64.606160,160.141608
64.595373,160.163235
64.577182,160.178473
64.549303,160.188697
64.473191,160.195383
64.292023,160.195383
64.204500,160.201330
64.135909,160.217508
64.082537,160.242105
64.041430,160.274335
63.999158,160.331424
63.972709,160.402836
63.963212,160.492688
63.963212,160.593530
63.969783,160.667398
63.987949,160.726223
64.016426,160.773140
64.055756,160.811803
64.106581,160.843235
64.171215,160.867204
64.278718,160.887522
Z" /> 
<path style="fill:#000000; fill-opacity:1.000000; stroke:none;fill-rule:evenodd;"
d="M 63.733684,160.885614
63.758575,160.880600
63.772241,160.867263
63.777282,160.843482
63.777282,160.628792
63.772092,160.603009
63.758290,160.588857
63.733684,160.583638
63.553983,160.583638
63.528288,160.588939
63.514040,160.603167
63.508737,160.628792
63.508737,160.843482
63.512265,160.864213
63.521468,160.876271
63.553983,160.885614
Z" /> 
<path style="fill:#000000; fill-opacity:1.000000; stroke:none;fill-rule:evenodd;"
d="M 62.928479,159.744886
63.032463,159.763806
63.095694,159.785957
63.148893,159.816080
63.193480,159.854115
63.229772,159.900201
63.260288,159.958385
63.284522,160.030977
63.305444,160.150931
63.313465,160.316192
63.305754,160.473260
63.285346,160.591057
63.261686,160.662828
63.231437,160.721454
63.195037,160.768927
63.150378,160.808560
63.097151,160.840465
63.034020,160.864639
62.929716,160.885761
62.795792,160.893582
62.658931,160.886131
62.554175,160.866196
62.490815,160.842994
62.437812,160.812075
62.393707,160.773506
62.357840,160.727005
62.327966,160.668729
62.304589,160.596461
62.284554,160.477415
62.276928,160.316192
62.277005,160.314635
62.588338,160.314635
62.591806,160.419952
62.600611,160.492047
62.617210,160.553443
62.637706,160.591515
62.666155,160.618702
62.701545,160.634471
62.742660,160.641880
62.795792,160.644637
62.848739,160.641879
62.889673,160.634471
62.924830,160.618720
62.953237,160.591515
62.973625,160.553449
62.990056,160.492047
62.998599,160.419949
63.001963,160.314635
62.998585,160.209050
62.990056,160.137773
62.973645,160.077313
62.953237,160.039678
62.924851,160.012694
62.889673,159.996997
62.848739,159.989589
62.795792,159.986830
62.742660,159.989588
62.701545,159.996997
62.666134,160.012712
62.637706,160.039678
62.617190,160.077319
62.600611,160.137773
62.591821,160.209047
62.588338,160.314635
62.277005,160.314635
62.284988,160.153685
62.306146,160.034091
62.330477,159.961431
62.360844,159.903251
62.396730,159.857229
62.440788,159.819111
62.493816,159.788457
62.557289,159.765363
62.661693,159.745318
62.795792,159.737886
Z" /> 
<path style="fill:#000000; fill-opacity:1.000000; stroke:none;fill-rule:evenodd;"
d="M 62.072589,160.882500
62.072589,159.755105
61.831613,159.755105
61.761088,159.927296
61.696176,159.855274
61.623701,159.794764
61.570060,159.764396
61.509705,159.745863
61.440977,159.739443
61.395181,159.741824
61.349111,159.750525
61.349111,160.069629
61.415972,160.062759
61.480910,160.060103
61.540398,160.063624
61.591461,160.073567
61.639017,160.090257
61.682319,160.113226
61.722219,160.142634
61.761088,160.180454
61.761088,160.882500
Z" /> 
<path style="fill:#000000; fill-opacity:1.000000; stroke:none;fill-rule:evenodd;"
d="M 60.834977,159.759054
60.921429,159.772967
60.991906,159.794214
61.056938,159.826626
61.108079,159.867145
61.147336,159.916031
61.174976,159.972577
61.192535,160.040605
61.198810,160.122660
61.194528,160.185907
61.181774,160.246949
61.159167,160.304714
61.125079,160.358690
61.079734,160.405358
61.018834,160.445702
61.074746,160.463863
61.119685,160.489681
61.155487,160.523005
61.182266,160.563594
61.198607,160.610446
61.204305,160.665245
61.194385,160.730141
61.164830,160.787546
61.113081,160.839818
61.088249,160.853819
61.150987,160.888642
61.210076,160.944323
61.238856,160.989132
61.256322,161.039968
61.262374,161.098471
61.262374,161.132360
61.256727,161.188905
61.240499,161.237709
61.213922,161.280371
61.157734,161.332921
61.081665,161.372329
60.994513,161.395432
60.892804,161.403561
60.554284,161.403561
60.442775,161.396409
60.354249,161.376867
60.284415,161.347086
60.229776,161.308123
60.184561,161.257091
60.151990,161.197524
60.131694,161.127730
60.124538,161.045348
60.124538,161.029686
60.419553,161.029686
60.419553,161.062201
60.425018,161.100791
60.440445,161.130897
60.466173,161.154617
60.517987,161.177007
60.591103,161.185391
60.805243,161.185391
60.878051,161.176636
60.925777,161.153884
60.948584,161.130141
60.962492,161.100069
60.967451,161.061652
60.967451,161.037105
60.962188,160.997924
60.947392,160.967313
60.923719,160.942974
60.891430,160.924815
60.853918,160.914199
60.809182,160.910435
60.582677,160.910435
60.528178,160.914404
60.489712,160.924723
60.458064,160.942573
60.436864,160.965298
60.424098,160.993695
60.419553,161.029686
60.124538,161.029686
60.124538,161.015673
60.130583,160.935169
60.147253,160.870515
60.173082,160.818661
60.209707,160.773933
60.255692,160.738019
60.312483,160.710491
60.408760,160.685913
60.532027,160.676878
60.844536,160.676878
60.880240,160.673423
60.911764,160.663414
60.934269,160.644469
60.942080,160.613039
60.932953,160.576033
60.906451,160.552772
60.867763,160.540245
60.815135,160.535553
60.615100,160.535553
60.516817,160.529746
60.439072,160.513945
60.378062,160.490032
60.322915,160.455097
60.280315,160.414135
60.248644,160.366750
60.218555,160.285175
60.208161,160.191262
60.210518,160.148306
60.488888,160.148306
60.492434,160.192466
60.502351,160.228906
60.521007,160.259419
60.550986,160.282761
60.590231,160.296571
60.649996,160.301995
60.769431,160.301995
60.817611,160.297189
60.853850,160.284150
60.880989,160.263893
60.900372,160.236012
60.913234,160.196868
60.918083,160.142718
60.912813,160.086938
60.899052,160.048344
60.878516,160.022276
60.832167,159.997198
60.759814,159.987563
60.642669,159.987563
60.594722,159.991708
60.558039,160.002950
60.528103,160.023158
60.506290,160.053875
60.493701,160.092865
60.488888,160.148306
60.210518,160.148306
60.211697,160.126829
60.220984,160.079521
60.235954,160.037546
60.252857,160.005881
60.291692,159.956789
60.118951,159.925739
60.118951,159.754006
60.729589,159.754006
Z" /> 
<path style="fill:#000000; fill-opacity:1.000000; stroke:none;fill-rule:evenodd;"
d="M 97.950000,159.000000
97.050000,159.000000
97.050000,160.850000
97.950000,160.850000
Z" /> 
<path style="fill:#000000; fill-opacity:1.000000; 
stroke:#000000; stroke-width:0.400000; stroke-opacity:1; 
stroke-linecap:round; stroke-linejoin:round;fill-rule:evenodd;"
d="M 98.100000,158.200000
96.900000,158.200000
96.900000,159.200000
98.100000,159.200000
Z" /> 
<path style="fill:#000000; fill-opacity:1.000000; stroke:none;fill-rule:evenodd;"
d="M 98.300000,159.200000
96.700000,159.200000
96.700000,159.400000
98.300000,159.400000
Z" /> 
</g>
<g style="fill:none; 
stroke:#000000; stroke-width:0.400000; stroke-opacity:1; 
stroke-linecap:round; stroke-linejoin:round;">
<circle cx="97.499360" cy="159.000000" r="2.500000" /> 
</g>
<g style="fill:#000000; fill-opacity:1.000000; stroke:none;">
<circle cx="97.500000" cy="157.410000" r="0.400000" /> 
</g>
<g style="fill:none; 
stroke:#000000; stroke-width:0.400000; stroke-opacity:1; 
stroke-linecap:round; stroke-linejoin:round;">
<circle cx="91.499360" cy="159.000000" r="2.500000" /> 
<path style="fill:#000000; fill-opacity:1.000000; stroke:none;fill-rule:evenodd;"
d="M 91.559708,157.400003
91.621420,157.403506
91.681929,157.409344
91.741237,157.417518
91.799344,157.428027
91.856250,157.440871
91.911955,157.456051
91.966459,157.473566
92.019764,157.493417
92.071868,157.515603
92.122773,157.540124
92.172478,157.566981
92.220984,157.596173
92.268291,157.627700
92.314399,157.661563
92.359309,157.697761
92.402582,157.736088
92.443743,157.776339
92.482793,157.818512
92.519732,157.862608
92.554560,157.908627
92.587277,157.956569
92.617885,158.006435
92.646382,158.058223
92.672770,158.111934
92.697049,158.167568
92.719218,158.225125
92.739279,158.284605
92.757231,158.346008
92.773075,158.409334
92.786810,158.474583
92.798438,158.541755
93.031060,158.541663
92.443671,159.129051
91.856376,158.541663
92.073347,158.541663
92.062068,158.478233
92.054909,158.448052
92.046738,158.418896
92.037553,158.390762
92.027357,158.363652
92.016147,158.337565
92.003925,158.312501
91.990689,158.288460
91.976441,158.265443
91.961180,158.243449
91.944905,158.222477
91.927618,158.202530
91.909317,158.183605
91.890003,158.165703
91.869676,158.148824
91.848336,158.132969
91.825982,158.118136
91.802615,158.104327
91.778234,158.091541
91.752840,158.079777
91.726432,158.069037
91.699011,158.059319
91.670576,158.050625
91.610664,158.036305
91.546698,158.026076
91.478676,158.019939
91.406597,158.017894
91.366154,158.018855
91.326916,158.021739
91.288884,158.026546
91.252055,158.033276
91.216431,158.041928
91.182009,158.052502
91.148788,158.064999
91.116769,158.079418
91.085950,158.095758
91.056331,158.114020
91.027910,158.134204
91.000687,158.156309
90.974661,158.180336
90.949831,158.206284
90.926197,158.234153
90.903757,158.263943
90.882629,158.295588
90.862862,158.328986
90.844457,158.364140
90.827413,158.401048
90.811732,158.439711
90.797412,158.480130
90.784455,158.522306
90.772861,158.566238
90.762630,158.611926
90.753762,158.659373
90.746257,158.708577
90.740117,158.759539
90.735340,158.812259
90.731928,158.866739
90.729880,158.922978
90.729198,158.980977
90.729942,159.036482
90.732176,159.090586
90.735899,159.143289
90.741111,159.194590
90.747812,159.244489
90.756003,159.292984
90.765684,159.340075
90.776854,159.385761
90.789515,159.430042
90.803666,159.472918
90.819307,159.514386
90.836438,159.554447
90.855060,159.593100
90.875172,159.630344
90.896776,159.666179
90.919870,159.700604
90.944153,159.733271
90.969389,159.763832
90.995580,159.792287
91.022723,159.818637
91.050819,159.842880
91.079866,159.865016
91.109864,159.885045
91.140812,159.902967
91.172710,159.918782
91.205557,159.932489
91.239352,159.944088
91.274094,159.953578
91.309783,159.960961
91.346419,159.966234
91.384000,159.969398
91.422525,159.970453
91.460974,159.969926
91.498254,159.968344
91.534367,159.965708
91.569310,159.962019
91.603086,159.957274
91.635694,159.951476
91.667133,159.944623
91.697404,159.936716
91.726507,159.927755
91.754441,159.917739
91.781207,159.906669
91.806805,159.894545
91.831235,159.881366
91.854497,159.867134
91.876590,159.851847
91.897516,159.835505
91.917273,159.818110
91.935861,159.799660
91.953282,159.780156
91.969534,159.759597
91.984618,159.737985
91.998534,159.715318
92.011282,159.691597
92.022861,159.666821
92.033272,159.640991
92.042515,159.614107
92.050590,159.586169
92.057497,159.557176
92.063235,159.527129
92.067805,159.496028
92.071207,159.463873
92.073440,159.430663
92.819737,159.430663
92.809330,159.499123
92.796652,159.565598
92.781703,159.630087
92.764483,159.692591
92.744991,159.753110
92.723226,159.811645
92.699189,159.868195
92.672878,159.922762
92.644295,159.975344
92.613437,160.025943
92.580305,160.074559
92.544898,160.121192
92.507216,160.165842
92.467259,160.208510
92.425025,160.249196
92.380516,160.287900
92.334347,160.324433
92.287101,160.358608
92.238780,160.390424
92.189382,160.419881
92.138908,160.446980
92.087359,160.471722
92.034734,160.494105
91.981033,160.514132
91.926257,160.531801
91.870405,160.547114
91.813478,160.560070
91.755477,160.570670
91.696400,160.578913
91.636249,160.584801
91.575023,160.588334
91.512722,160.589512
91.428360,160.587743
91.345990,160.582437
91.265610,160.573594
91.187219,160.561215
91.110816,160.545301
91.036400,160.525851
90.963970,160.502867
90.893524,160.476349
90.825063,160.446298
90.758584,160.412713
90.694087,160.375597
90.631570,160.334948
90.571033,160.290769
90.512474,160.243058
90.455892,160.191818
90.401287,160.137047
90.349411,160.079613
90.300880,160.020379
90.255694,159.959346
90.213853,159.896512
90.175358,159.831880
90.140210,159.765447
90.108407,159.697214
90.079951,159.627181
90.054841,159.555347
90.033079,159.481713
90.014664,159.406278
89.999596,159.329043
89.987877,159.250007
89.979505,159.169169
89.974482,159.086531
89.972808,159.002091
89.974420,158.915119
89.979258,158.830129
89.987321,158.747122
89.998608,158.666097
90.013120,158.587054
90.030857,158.509995
90.051818,158.434918
90.076003,158.361825
90.103413,158.290716
90.134047,158.221591
90.167904,158.154450
90.204985,158.089294
90.245290,158.026123
90.288818,157.964937
90.335570,157.905736
90.385544,157.848521
90.438250,157.794087
90.493191,157.743161
90.550369,157.695744
90.609783,157.651835
90.671430,157.611436
90.735312,157.574548
90.801426,157.541170
90.869772,157.511303
90.940349,157.484947
91.013156,157.462105
91.088194,157.442774
91.165460,157.426958
91.244953,157.414655
91.326674,157.405866
91.410622,157.400593
91.496794,157.398835
Z" /> 
</g>
<g style="fill:none; 
stroke:#000000; stroke-width:0.400000; stroke-opacity:1; 
stroke-linecap:round; stroke-linejoin:round;">
<circle cx="103.500000" cy="159.000000" r="2.500000" /> 
<path style="fill:#000000; fill-opacity:1.000000; stroke:none;fill-rule:evenodd;"
d="M 104.514166,157.953499
104.566122,157.956833
104.616917,157.962388
104.666552,157.970165
104.715027,157.980163
104.762342,157.992382
104.808497,158.006822
104.853492,158.023482
104.897327,158.042362
104.940003,158.063461
104.981520,158.086780
105.021878,158.112319
105.061076,158.140076
105.099116,158.170051
105.135997,158.202245
105.171719,158.236656
105.205765,158.272974
105.237615,158.310848
105.267270,158.350278
105.294729,158.391264
105.319992,158.433808
105.343060,158.477909
105.363931,158.523568
105.382606,158.570785
105.399084,158.619562
105.413366,158.669898
105.425451,158.721794
105.435339,158.775250
105.443030,158.830268
105.448523,158.886846
105.451820,158.944986
105.452919,159.004689
105.451832,159.065811
105.448573,159.125235
105.443141,159.182958
105.435535,159.238982
105.425757,159.293307
105.413807,159.345931
105.399683,159.396856
105.383386,159.446080
105.364917,159.493604
105.344274,159.539427
105.321459,159.583550
105.296470,159.625972
105.269309,159.666693
105.239975,159.705712
105.208468,159.743031
105.174789,159.778648
105.139335,159.812364
105.102508,159.843900
105.064308,159.873257
105.024735,159.900436
104.983790,159.925436
104.941473,159.948260
104.897784,159.968907
104.852725,159.987378
104.806295,160.003673
104.758495,160.017794
104.709325,160.029741
104.658787,160.039514
104.606880,160.047114
104.553604,160.052542
104.498961,160.055799
104.442951,160.056884
104.407600,160.056329
104.372626,160.054666
104.338030,160.051893
104.303812,160.048010
104.269973,160.043018
104.236514,160.036915
104.203434,160.029701
104.170735,160.021377
104.138416,160.011941
104.106479,160.001394
104.074923,159.989735
104.043750,159.976963
104.012959,159.963079
103.982551,159.948083
103.952527,159.931973
103.922886,159.914750
103.893800,159.896577
103.865518,159.877577
103.838039,159.857751
103.811364,159.837098
103.785493,159.815618
103.760426,159.793310
103.736162,159.770174
103.712701,159.746210
103.690045,159.721418
103.668192,159.695797
103.647143,159.669347
103.626897,159.642067
103.607455,159.613958
103.588817,159.585018
103.570982,159.555248
103.553951,159.524648
103.971146,159.312982
103.986971,159.348124
104.004162,159.381001
104.022721,159.411612
104.042647,159.439958
104.063941,159.466039
104.086604,159.489853
104.110635,159.511400
104.136035,159.530681
104.162804,159.547694
104.190943,159.562440
104.220451,159.574918
104.251330,159.585129
104.283580,159.593070
104.317200,159.598744
104.352191,159.602148
104.388553,159.603282
104.416107,159.602644
104.442811,159.600728
104.468664,159.597535
104.493665,159.593065
104.517817,159.587318
104.541117,159.580294
104.563566,159.571994
104.585165,159.562418
104.595645,159.557151
104.605913,159.551565
104.615968,159.545660
104.625810,159.539436
104.635439,159.532893
104.644856,159.526032
104.654060,159.518851
104.663052,159.511351
104.680396,159.495395
104.696890,159.478164
104.712533,159.459657
104.727326,159.439876
104.741225,159.419033
104.754229,159.397345
104.766336,159.374810
104.777548,159.351427
104.787864,159.327197
104.797284,159.302118
104.805807,159.276192
104.813434,159.249415
104.820164,159.221790
104.825998,159.193314
104.830934,159.163988
104.834973,159.133811
104.838115,159.102782
104.840359,159.070902
104.841706,159.038169
104.842155,159.004583
104.841711,158.967743
104.840381,158.932073
104.838165,158.897573
104.835061,158.864243
104.831072,158.832083
104.826196,158.801093
104.820433,158.771273
104.813785,158.742623
104.806250,158.715142
104.797829,158.688832
104.788522,158.663691
104.778330,158.639720
104.767251,158.616919
104.755287,158.595287
104.742437,158.574825
104.728701,158.555532
104.714080,158.537410
104.698574,158.520456
104.682182,158.504672
104.664905,158.490058
104.646742,158.476612
104.627695,158.464337
104.607762,158.453230
104.586944,158.443293
104.565242,158.434525
104.542654,158.426926
104.519182,158.420497
104.494825,158.415236
104.469584,158.411145
104.443458,158.408222
104.416448,158.406469
104.388553,158.405884
104.377144,158.406121
104.365618,158.406831
104.353976,158.408015
104.342216,158.409671
104.330339,158.411800
104.318345,158.414401
104.306234,158.417474
104.294004,158.421018
104.281657,158.425034
104.269192,158.429521
104.256609,158.434478
104.243907,158.439906
104.231087,158.445804
104.218148,158.452172
104.205091,158.459009
104.191915,158.466315
104.178829,158.474231
104.166003,158.482859
104.153438,158.492197
104.141131,158.502245
104.129084,158.513003
104.117296,158.524470
104.105767,158.536644
104.094495,158.549526
104.083482,158.563116
104.072726,158.577411
104.062228,158.592412
104.051987,158.608118
104.042002,158.624529
104.032274,158.641644
104.022802,158.659461
104.013586,158.677982
103.559878,158.442079
103.595302,158.382755
103.633509,158.327258
103.674501,158.275590
103.718277,158.227750
103.764839,158.183738
103.814188,158.143556
103.866323,158.107202
103.921246,158.074678
103.978956,158.045984
104.039456,158.021120
104.102744,158.000087
104.168823,157.982884
104.237692,157.969513
104.309352,157.959973
104.383804,157.954264
104.461049,157.952388
Z" /> 
<path style="fill:#000000; fill-opacity:1.000000; stroke:none;fill-rule:evenodd;"
d="M 102.554749,157.953499
102.606688,157.956833
102.657469,157.962388
102.707091,157.970165
102.755554,157.980163
102.802858,157.992382
102.849003,158.006822
102.893988,158.023482
102.937813,158.042362
102.980479,158.063461
103.021985,158.086780
103.062331,158.112319
103.101516,158.140076
103.139541,158.170051
103.176406,158.202245
103.212110,158.236656
103.246192,158.272974
103.278071,158.310848
103.307749,158.350278
103.335225,158.391264
103.360501,158.433808
103.383577,158.477909
103.404452,158.523568
103.423128,158.570785
103.439605,158.619562
103.453884,158.669898
103.465965,158.721794
103.475848,158.775250
103.483534,158.830268
103.489024,158.886846
103.492317,158.944986
103.493415,159.004689
103.492341,159.065811
103.489118,159.125235
103.483746,159.182958
103.476223,159.238982
103.466551,159.293307
103.454727,159.345931
103.440751,159.396856
103.424623,159.446080
103.406342,159.493604
103.385907,159.539427
103.363318,159.583550
103.338574,159.625972
103.311674,159.666693
103.282619,159.705712
103.251406,159.743031
103.218036,159.778648
103.182946,159.812364
103.146415,159.843900
103.108442,159.873257
103.069026,159.900436
103.028169,159.925436
102.985868,159.948260
102.942125,159.968907
102.896938,159.987378
102.850308,160.003673
102.802233,160.017794
102.752715,160.029741
102.701752,160.039514
102.649344,160.047114
102.595491,160.052542
102.540192,160.055799
102.483447,160.056884
102.448846,160.056329
102.414575,160.054666
102.380633,160.051893
102.347022,160.048010
102.313740,160.043018
102.280788,160.036915
102.248166,160.029701
102.215874,160.021377
102.183912,160.011941
102.152280,160.001394
102.120978,159.989735
102.090006,159.976963
102.059363,159.963079
102.029050,159.948083
101.999068,159.931973
101.969415,159.914750
101.940342,159.896577
101.912018,159.877577
101.884445,159.857751
101.857624,159.837098
101.831554,159.815618
101.806238,159.793310
101.781676,159.770174
101.757868,159.746210
101.734815,159.721418
101.712518,159.695797
101.690978,159.669347
101.670196,159.642067
101.650172,159.613958
101.630908,159.585018
101.612403,159.555248
101.594659,159.524648
102.017992,159.312982
102.033781,159.348124
102.050942,159.381001
102.069477,159.411612
102.089384,159.439958
102.110662,159.466039
102.133312,159.489853
102.157332,159.511400
102.182722,159.530681
102.209481,159.547694
102.237609,159.562440
102.267105,159.574918
102.297968,159.585129
102.330198,159.593070
102.363794,159.598744
102.398756,159.602148
102.435082,159.603282
102.462672,159.602644
102.489405,159.600728
102.515280,159.597535
102.540298,159.593065
102.564460,159.587318
102.587767,159.580294
102.610217,159.571994
102.631813,159.562418
102.642290,159.557151
102.652554,159.551565
102.662604,159.545660
102.672441,159.539436
102.682065,159.532893
102.691475,159.526032
102.700671,159.518851
102.709655,159.511351
102.718425,159.503533
102.726983,159.495395
102.743458,159.478164
102.759082,159.459657
102.773855,159.439876
102.787755,159.419033
102.800762,159.397345
102.812875,159.374810
102.824094,159.351427
102.834418,159.327197
102.843846,159.302118
102.852379,159.276192
102.860016,159.249415
102.866756,159.221790
102.872599,159.193314
102.877544,159.163988
102.881591,159.133811
102.884740,159.102782
102.886989,159.070902
102.888339,159.038169
102.888789,159.004583
102.888346,158.967743
102.887016,158.932073
102.884799,158.897573
102.881696,158.864243
102.877706,158.832083
102.872830,158.801093
102.867067,158.771273
102.860418,158.742623
102.852882,158.715142
102.844461,158.688832
102.835153,158.663691
102.824959,158.639720
102.813879,158.616919
102.801913,158.595287
102.789061,158.574825
102.775323,158.555532
102.760699,158.537410
102.745189,158.520456
102.728794,158.504672
102.711513,158.490058
102.693347,158.476612
102.674295,158.464337
102.654357,158.453230
102.633534,158.443293
102.611826,158.434525
102.589232,158.426926
102.565753,158.420497
102.541389,158.415236
102.516140,158.411145
102.490006,158.408222
102.462986,158.406469
102.435082,158.405884
102.422997,158.406121
102.410833,158.406831
102.398591,158.408015
102.386271,158.409671
102.373874,158.411800
102.361399,158.414401
102.348848,158.417474
102.336220,158.421018
102.323517,158.425034
102.310739,158.429521
102.297886,158.434478
102.284959,158.439906
102.271958,158.445804
102.258884,158.452172
102.245736,158.459009
102.232517,158.466315
102.219429,158.474231
102.206597,158.482859
102.194021,158.492197
102.181702,158.502245
102.169640,158.513003
102.157837,158.524470
102.146291,158.536644
102.135005,158.549526
102.123977,158.563116
102.113209,158.577411
102.102702,158.592412
102.092455,158.608118
102.082469,158.624529
102.072744,158.641644
102.063282,158.659461
102.054082,158.677982
101.606513,158.442079
101.606512,158.442079
101.641172,158.382755
101.678673,158.327258
101.719015,158.275590
101.762198,158.227750
101.808220,158.183738
101.857081,158.143556
101.908780,158.107202
101.963316,158.074678
102.020688,158.045984
102.080897,158.021120
102.143940,158.000087
102.209817,157.982884
102.278527,157.969513
102.350070,157.959973
102.424445,157.954264
102.501650,157.952388
Z" /> 
</g> 
</svg>
