<?xml version="1.0" standalone="no"?>
 <!DOCTYPE svg PUBLIC "-//W3C//DTD SVG 1.1//EN" 
 "http://www.w3.org/Graphics/SVG/1.1/DTD/svg11.dtd"> 
<svg
  xmlns:svg="http://www.w3.org/2000/svg"
  xmlns="http://www.w3.org/2000/svg"
  xmlns:xlink="http://www.w3.org/1999/xlink"
  version="1.1"
  width="10.215000000000002cm" height="5.215cm" viewBox="59.425 113.425 102.15 52.15">
<title>SVG Image created as rcbus-opl3-B_SilkS.svg date 2025/09/29 20:59:22 </title>
  <desc>Image generated by PCBNEW </desc>
<g style="fill:#000000; fill-opacity:1.000000;stroke:#000000; stroke-opacity:1.000000;
stroke-linecap:round; stroke-linejoin:round;"
 transform="translate(0 0) scale(1 1)">
<path style="fill:#000000; fill-opacity:1.000000; stroke:none;fill-rule:evenodd;"
d="M 160.732230,160.872500
160.732230,159.271762
160.420729,159.271762
160.420729,159.859960
160.354268,159.813743
160.262460,159.768003
160.162847,159.736567
160.062333,159.726237
159.978063,159.732558
159.911186,159.749896
159.858268,159.776612
159.812585,159.814391
159.776215,159.860894
159.748634,159.917388
159.723803,160.012014
159.714928,160.126215
159.714928,160.872500
160.026338,160.872500
160.026338,160.166149
160.031899,160.115791
160.047221,160.077031
160.071910,160.045639
160.103916,160.023542
160.141749,160.010461
160.186714,160.005865
160.272535,160.017039
160.350296,160.046806
160.420729,160.089030
160.420729,160.872500
Z" /> 
<path style="fill:#000000; fill-opacity:1.000000; stroke:none;fill-rule:evenodd;"
d="M 159.053732,160.872500
159.140149,160.867719
159.209532,160.854639
159.264850,160.834764
159.313562,160.804208
159.352125,160.762843
159.381445,160.709009
159.399684,160.649082
159.411170,160.571295
159.413960,160.471605
159.403610,159.994050
159.579648,159.994050
159.579648,159.794564
159.392436,159.745105
159.351129,159.429116
159.105573,159.429116
159.105573,159.745105
158.839501,159.745105
158.839501,159.994050
159.105573,159.994050
159.105573,160.470048
159.096872,160.544970
159.085956,160.572278
159.072234,160.592139
159.035689,160.617968
158.992733,160.628226
158.850675,160.642331
158.850675,160.872500
Z" /> 
<path style="fill:#000000; fill-opacity:1.000000; stroke:none;fill-rule:evenodd;"
d="M 158.237473,160.872500
158.323890,160.867719
158.393273,160.854639
158.448590,160.834764
158.497302,160.804208
158.535865,160.762843
158.565186,160.709009
158.583424,160.649082
158.594911,160.571295
158.597700,160.471605
158.587351,159.994050
158.763389,159.994050
158.763389,159.794564
158.576177,159.745105
158.534869,159.429116
158.289313,159.429116
158.289313,159.745105
158.023241,159.745105
158.023241,159.994050
158.289313,159.994050
158.289313,160.470048
158.280612,160.544970
158.269696,160.572278
158.255974,160.592139
158.219429,160.617968
158.176473,160.628226
158.034415,160.642331
158.034415,160.872500
Z" /> 
<path style="fill:#000000; fill-opacity:1.000000; stroke:none;fill-rule:evenodd;"
d="M 157.289343,159.732406
157.347208,159.745655
157.401936,159.766207
157.451530,159.791816
157.539640,159.852541
157.590199,159.745105
157.851142,159.745105
157.851142,161.370205
157.539640,161.370205
157.539640,160.814248
157.469068,160.845131
157.389248,160.868836
157.306804,160.883399
157.226857,160.888162
157.126816,160.879556
157.048281,160.855946
156.986705,160.819285
156.935732,160.768346
156.894546,160.703114
156.863332,160.620807
156.836657,160.484329
156.826787,160.309672
157.138197,160.309672
157.145899,160.431226
157.164941,160.508425
157.197593,160.569576
157.235100,160.604779
157.280243,160.624949
157.328248,160.631615
157.384749,160.627840
157.441455,160.616411
157.495300,160.598338
157.539640,160.576386
157.539640,160.041219
157.447042,159.998812
157.390420,159.983639
157.326691,159.978387
157.274558,159.985948
157.229605,160.008155
157.193571,160.045987
157.162835,160.110828
157.145183,160.190631
157.138197,160.309672
156.826787,160.309672
156.832842,160.178244
156.849777,160.066773
156.880156,159.964595
156.921584,159.883316
156.977592,159.816343
157.046606,159.767820
157.127552,159.738357
157.226857,159.727886
Z" /> 
<path style="fill:#000000; fill-opacity:1.000000; stroke:none;fill-rule:evenodd;"
d="M 156.212577,160.885139
156.326700,160.881750
156.448791,160.872500
156.561448,160.856746
156.648643,160.834123
156.648643,160.651582
156.149563,160.651582
156.077389,160.644071
156.051898,160.633107
156.034982,160.616686
156.024984,160.594114
156.021152,160.560449
156.021152,160.524087
156.028294,160.486216
156.048629,160.458874
156.082806,160.442453
156.149013,160.435427
156.325692,160.435427
156.419326,160.427910
156.500082,160.406484
156.548531,160.382744
156.589158,160.350911
156.622905,160.310405
156.646906,160.263447
156.662475,160.204055
156.668151,160.129146
156.668151,160.063750
156.663133,159.993113
156.649020,159.933596
156.626752,159.883316
156.594171,159.840026
156.548244,159.803106
156.486160,159.772491
156.418742,159.752910
156.330010,159.739623
156.215142,159.734664
156.066398,159.741899
155.917563,159.760676
155.806371,159.786138
155.806371,159.968679
156.278157,159.968679
156.335098,159.974419
156.371213,159.988920
156.394067,160.015776
156.402812,160.063750
156.402812,160.098463
156.398669,160.131608
156.387883,160.153235
156.369691,160.168473
156.341812,160.178697
156.265700,160.185383
156.084533,160.185383
155.997009,160.191330
155.928418,160.207508
155.875046,160.232105
155.833940,160.264335
155.791668,160.321424
155.765219,160.392836
155.755721,160.482688
155.755721,160.583530
155.762293,160.657398
155.780459,160.716223
155.808936,160.763140
155.848266,160.801803
155.899090,160.833235
155.963725,160.857204
156.071227,160.877522
Z" /> 
<path style="fill:#000000; fill-opacity:1.000000; stroke:none;fill-rule:evenodd;"
d="M 155.526194,160.875614
155.551085,160.870600
155.564750,160.857263
155.569791,160.833482
155.569791,160.618792
155.564602,160.593009
155.550799,160.578857
155.526194,160.573638
155.346492,160.573638
155.320798,160.578939
155.306550,160.593167
155.301246,160.618792
155.301246,160.833482
155.304774,160.854213
155.313978,160.866271
155.346492,160.875614
Z" /> 
<path style="fill:#000000; fill-opacity:1.000000; stroke:none;fill-rule:evenodd;"
d="M 155.526194,160.043234
155.551085,160.038220
155.564750,160.024884
155.569791,160.001102
155.569791,159.786413
155.564602,159.760629
155.550799,159.746477
155.526194,159.741258
155.346492,159.741258
155.320798,159.746560
155.306550,159.760787
155.301246,159.786413
155.301246,160.001102
155.304774,160.021834
155.313978,160.033892
155.346492,160.043234
Z" /> 
<path style="fill:#000000; fill-opacity:1.000000; stroke:none;fill-rule:evenodd;"
d="M 155.201870,161.023716
154.611749,159.255459
154.295485,159.255459
154.885606,161.023716
Z" /> 
<path style="fill:#000000; fill-opacity:1.000000; stroke:none;fill-rule:evenodd;"
d="M 154.526294,161.023716
153.936173,159.255459
153.619909,159.255459
154.210030,161.023716
Z" /> 
<path style="fill:#000000; fill-opacity:1.000000; stroke:none;fill-rule:evenodd;"
d="M 153.554422,160.872500
153.554422,159.745105
153.297692,159.745105
153.242920,159.859960
153.165979,159.809238
153.081628,159.765713
153.022075,159.744636
152.950946,159.731089
152.866115,159.726237
152.796920,159.731620
152.738909,159.746764
152.690077,159.770751
152.627569,159.821833
152.582640,159.884598
152.471723,159.812241
152.405711,159.778799
152.333971,159.750967
152.259947,159.732297
152.188432,159.726237
152.098997,159.732725
152.028846,159.750408
151.974109,159.777437
151.927137,159.815996
151.890461,159.863702
151.863467,159.921967
151.839804,160.020132
151.831227,160.141603
151.831227,160.872500
152.142637,160.872500
152.142637,160.169172
152.148031,160.117465
152.162695,160.078588
152.186695,160.047035
152.218199,160.024366
152.256077,160.010756
152.303654,160.005865
152.366135,160.012119
152.431057,160.031510
152.492851,160.060380
152.546095,160.094067
152.539409,160.134184
152.537120,160.175400
152.537120,160.872500
152.848529,160.872500
152.848529,160.169172
152.853923,160.117465
152.868588,160.078588
152.892539,160.047014
152.923817,160.024366
152.961446,160.010762
153.008905,160.005865
153.095001,160.016215
153.172212,160.045249
153.242920,160.089030
153.242920,160.872500
Z" /> 
<path style="fill:#000000; fill-opacity:1.000000; stroke:none;fill-rule:evenodd;"
d="M 151.267225,159.735600
151.380691,159.748860
151.485165,159.769718
151.570651,159.793557
151.570651,159.972984
151.233595,159.972984
151.135214,159.977785
151.076608,159.989287
151.031542,160.011159
151.006358,160.039845
150.992932,160.077073
150.987948,160.127315
150.987948,160.203702
151.275636,160.203702
151.373108,160.209961
151.450128,160.227027
151.510562,160.252977
151.557553,160.286866
151.607735,160.347250
151.637629,160.416736
151.647953,160.498258
151.647953,160.600199
151.638315,160.685357
151.611255,160.753726
151.567445,160.809118
151.509702,160.850721
151.441356,160.876190
151.359442,160.885139
151.290514,160.881479
151.226085,160.870759
151.164590,160.854021
151.111138,160.833940
151.024035,160.790159
150.972561,160.753431
150.922003,160.872500
150.676447,160.872500
150.676447,160.613938
150.987948,160.613938
151.008281,160.622181
151.048307,160.636561
151.100056,160.651673
151.154644,160.664221
151.202821,160.668893
151.269957,160.657260
151.297329,160.642250
151.318500,160.619159
151.331687,160.589161
151.336544,160.548267
151.336544,160.502838
151.326463,160.447039
151.297892,160.406484
151.251879,160.379689
151.176168,160.364077
150.987948,160.350980
150.987948,160.613938
150.676447,160.613938
150.676447,160.105882
150.683124,160.010208
150.701196,159.936151
150.728562,159.879286
150.768144,159.830552
150.818134,159.792201
150.880237,159.763698
150.985523,159.738995
151.120389,159.730267
Z" /> 
<path style="fill:#000000; fill-opacity:1.000000; stroke:none;fill-rule:evenodd;"
d="M 150.406986,159.579142
150.431886,159.574135
150.445547,159.560823
150.450583,159.537102
150.450583,159.331663
150.445394,159.305880
150.431591,159.291728
150.406986,159.286509
150.167292,159.286509
150.149198,159.289892
150.137250,159.299240
150.127359,159.331663
150.127359,159.537102
150.132145,159.561171
150.144817,159.574316
150.167292,159.579142
Z" /> 
<path style="fill:#000000; fill-opacity:1.000000; stroke:none;fill-rule:evenodd;"
d="M 150.444722,160.872500
150.444722,159.745105
150.133220,159.745105
150.133220,160.872500
Z" /> 
<path style="fill:#000000; fill-opacity:1.000000; stroke:none;fill-rule:evenodd;"
d="M 149.215569,159.780459
149.350300,159.743640
149.426765,159.731828
149.504264,159.727886
149.610489,159.735667
149.693623,159.756863
149.758338,159.789252
149.812653,159.836093
149.856470,159.898797
149.889771,159.980677
149.909966,160.068350
149.923517,160.179985
149.928514,160.320205
149.922644,160.456339
149.906742,160.564147
149.882994,160.648468
149.845943,160.726701
149.800731,160.785836
149.747347,160.829085
149.685018,160.859371
149.611790,160.878404
149.525330,160.885139
149.468121,160.881107
149.411116,160.868927
149.355710,160.849878
149.303314,160.825330
149.254847,160.795930
149.215569,160.765063
149.165011,160.872500
148.904160,160.872500
148.904160,160.004491
149.215569,160.004491
149.215569,160.571806
149.301390,160.614213
149.354406,160.629331
149.416245,160.634637
149.484054,160.627256
149.533207,160.607435
149.570129,160.571301
149.597504,160.508425
149.611381,160.429176
149.617013,160.304818
149.610943,160.172647
149.596130,160.090312
149.577932,160.043588
149.555013,160.010761
149.527620,159.988829
149.475298,159.968899
149.402965,159.961443
149.351858,159.964998
149.304046,159.975457
149.215569,160.004491
148.904160,160.004491
148.904160,159.270205
149.215569,159.270205
Z" /> 
<path style="fill:#000000; fill-opacity:1.000000; stroke:none;fill-rule:evenodd;"
d="M 148.339241,159.735600
148.452707,159.748860
148.557182,159.769718
148.642667,159.793557
148.642667,159.972984
148.305612,159.972984
148.207231,159.977785
148.148625,159.989287
148.103559,160.011159
148.078375,160.039845
148.064949,160.077073
148.059965,160.127315
148.059965,160.203702
148.347652,160.203702
148.445125,160.209961
148.522145,160.227027
148.582579,160.252977
148.629570,160.286866
148.679751,160.347250
148.709646,160.416736
148.719970,160.498258
148.719970,160.600199
148.710332,160.685357
148.683272,160.753726
148.639462,160.809118
148.581718,160.850721
148.513373,160.876190
148.431458,160.885139
148.362531,160.881479
148.298102,160.870759
148.236607,160.854021
148.183155,160.833940
148.096052,160.790159
148.044578,160.753431
147.994019,160.872500
147.748464,160.872500
147.748464,160.613938
148.059965,160.613938
148.080298,160.622181
148.120323,160.636561
148.172072,160.651673
148.226661,160.664221
148.274838,160.668893
148.341974,160.657260
148.369346,160.642250
148.390517,160.619159
148.403704,160.589161
148.408561,160.548267
148.408561,160.502838
148.398480,160.447039
148.369909,160.406484
148.323896,160.379689
148.248185,160.364077
148.059965,160.350980
148.059965,160.613938
147.748464,160.613938
147.748464,160.105882
147.755141,160.010208
147.773213,159.936151
147.800579,159.879286
147.840161,159.830552
147.890151,159.792201
147.952254,159.763698
148.057540,159.738995
148.192406,159.730267
Z" /> 
<path style="fill:#000000; fill-opacity:1.000000; stroke:none;fill-rule:evenodd;"
d="M 147.231799,160.872500
147.609795,159.745105
147.289135,159.745105
147.046418,160.584629
146.795184,159.745105
146.477638,159.745105
146.873219,160.872500
Z" /> 
<path style="fill:#000000; fill-opacity:1.000000; stroke:none;fill-rule:evenodd;"
d="M 146.042870,159.735600
146.156336,159.748860
146.260810,159.769718
146.346296,159.793557
146.346296,159.972984
146.009241,159.972984
145.910859,159.977785
145.852254,159.989287
145.807188,160.011159
145.782003,160.039845
145.768577,160.077073
145.763594,160.127315
145.763594,160.203702
146.051281,160.203702
146.148754,160.209961
146.225774,160.227027
146.286207,160.252977
146.333199,160.286866
146.383380,160.347250
146.413274,160.416736
146.423599,160.498258
146.423599,160.600199
146.413961,160.685357
146.386901,160.753726
146.343090,160.809118
146.285347,160.850721
146.217002,160.876190
146.135087,160.885139
146.066159,160.881479
146.001730,160.870759
145.940236,160.854021
145.886784,160.833940
145.799681,160.790159
145.748206,160.753431
145.697648,160.872500
145.452092,160.872500
145.452092,160.613938
145.763594,160.613938
145.783927,160.622181
145.823952,160.636561
145.875701,160.651673
145.930289,160.664221
145.978466,160.668893
146.045603,160.657260
146.072975,160.642250
146.094146,160.619159
146.107333,160.589161
146.112189,160.548267
146.112189,160.502838
146.102109,160.447039
146.073538,160.406484
146.027524,160.379689
145.951813,160.364077
145.763594,160.350980
145.763594,160.613938
145.452092,160.613938
145.452092,160.105882
145.458770,160.010208
145.476842,159.936151
145.504208,159.879286
145.543790,159.830552
145.593780,159.792201
145.655883,159.763698
145.761169,159.738995
145.896034,159.730267
Z" /> 
<path style="fill:#000000; fill-opacity:1.000000; stroke:none;fill-rule:evenodd;"
d="M 144.866551,160.877079
144.945342,160.872278
145.010539,160.858934
145.064387,160.838244
145.112389,160.807594
145.151216,160.767903
145.181716,160.718077
145.202140,160.662534
145.215504,160.593548
145.220367,160.508333
145.220367,159.270205
144.908866,159.270205
144.908866,160.462355
144.905157,160.522455
144.895768,160.562830
144.878838,160.595540
144.856567,160.616686
144.828228,160.630646
144.791996,160.639950
144.705259,160.651582
144.705259,160.877079
Z" /> 
<path style="fill:#000000; fill-opacity:1.000000; stroke:none;fill-rule:evenodd;"
d="M 144.223630,159.734429
144.320416,159.752061
144.394765,159.778353
144.459493,159.819621
144.511012,159.877393
144.550287,159.954665
144.574354,160.040195
144.590927,160.156070
144.597181,160.309672
144.590627,160.459229
144.573174,160.573172
144.547631,160.658360
144.506609,160.734943
144.453219,160.792425
144.386339,160.833573
144.310084,160.859722
144.212292,160.877151
144.088210,160.883582
143.958824,160.879278
143.856484,160.867645
143.676050,160.834123
143.676050,160.651582
144.005686,160.651582
144.113595,160.645136
144.180167,160.629417
144.230985,160.599293
144.261867,160.555869
144.278937,160.499800
144.288703,160.419124
144.003671,160.419124
143.896624,160.411674
143.810689,160.391188
143.759552,160.367803
143.717883,160.336547
143.684385,160.297033
143.660723,160.250810
143.645321,160.191911
143.639805,160.118705
143.914278,160.118705
143.922674,160.176182
143.943679,160.208098
143.978417,160.226074
144.035911,160.233194
144.291817,160.233194
144.286495,160.128482
144.273315,160.061094
144.247758,160.007736
144.212499,159.976098
144.165748,159.958839
144.099201,159.952284
144.036037,159.956680
143.991948,159.968038
143.956662,159.989192
143.932871,160.020336
143.919448,160.060489
143.914278,160.118705
143.639805,160.118705
143.639688,160.117148
143.645600,160.015146
143.661407,159.937481
143.684843,159.879194
143.720607,159.828991
143.768422,159.789901
143.830473,159.761225
143.939703,159.737276
144.099201,159.727886
Z" /> 
<path style="fill:#000000; fill-opacity:1.000000; stroke:none;fill-rule:evenodd;"
d="M 143.399537,160.875614
143.424427,160.870600
143.438093,160.857263
143.443134,160.833482
143.443134,160.618792
143.437944,160.593009
143.424142,160.578857
143.399537,160.573638
143.219835,160.573638
143.194140,160.578939
143.179892,160.593167
143.174589,160.618792
143.174589,160.833482
143.178117,160.854213
143.187320,160.866271
143.219835,160.875614
Z" /> 
<path style="fill:#000000; fill-opacity:1.000000; stroke:none;fill-rule:evenodd;"
d="M 142.594331,159.734886
142.698315,159.753806
142.761547,159.775957
142.814745,159.806080
142.859333,159.844115
142.895624,159.890201
142.926140,159.948385
142.950374,160.020977
142.971296,160.140931
142.979317,160.306192
142.971607,160.463260
142.951198,160.581057
142.927538,160.652828
142.897289,160.711454
142.860890,160.758927
142.816230,160.798560
142.763003,160.830465
142.699872,160.854639
142.595568,160.875761
142.461644,160.883582
142.324783,160.876131
142.220027,160.856196
142.156667,160.832994
142.103664,160.802075
142.059559,160.763506
142.023693,160.717005
141.993819,160.658729
141.970441,160.586461
141.950406,160.467415
141.942781,160.306192
141.942858,160.304635
142.254190,160.304635
142.257658,160.409952
142.266464,160.482047
142.283062,160.543443
142.303558,160.581515
142.332008,160.608702
142.367397,160.624471
142.408513,160.631880
142.461644,160.634637
142.514591,160.631879
142.555525,160.624471
142.590682,160.608720
142.619089,160.581515
142.639477,160.543449
142.655909,160.482047
142.664452,160.409949
142.667816,160.304635
142.664437,160.199050
142.655909,160.127773
142.639497,160.067313
142.619089,160.029678
142.590703,160.002694
142.555525,159.986997
142.514591,159.979589
142.461644,159.976830
142.408513,159.979588
142.367397,159.986997
142.331986,160.002712
142.303558,160.029678
142.283042,160.067319
142.266464,160.127773
142.257673,160.199047
142.254190,160.304635
141.942858,160.304635
141.950840,160.143685
141.971998,160.024091
141.996330,159.951431
142.026696,159.893251
142.062582,159.847229
142.106640,159.809111
142.159668,159.778457
142.223141,159.755363
142.327546,159.735318
142.461644,159.727886
Z" /> 
<path style="fill:#000000; fill-opacity:1.000000; stroke:none;fill-rule:evenodd;"
d="M 141.738441,160.872500
141.738441,159.745105
141.497465,159.745105
141.426940,159.917296
141.362028,159.845274
141.289553,159.784764
141.235913,159.754396
141.175558,159.735863
141.106829,159.729443
141.061034,159.731824
141.014963,159.740525
141.014963,160.059629
141.081825,160.052759
141.146763,160.050103
141.206250,160.053624
141.257313,160.063567
141.304869,160.080257
141.348172,160.103226
141.388072,160.132634
141.426940,160.170454
141.426940,160.872500
Z" /> 
<path style="fill:#000000; fill-opacity:1.000000; stroke:none;fill-rule:evenodd;"
d="M 140.500829,159.749054
140.587281,159.762967
140.657758,159.784214
140.722790,159.816626
140.773931,159.857145
140.813188,159.906031
140.840828,159.962577
140.858387,160.030605
140.864662,160.112660
140.860381,160.175907
140.847626,160.236949
140.825020,160.294714
140.790931,160.348690
140.745586,160.395358
140.684686,160.435702
140.740599,160.453863
140.785538,160.479681
140.821340,160.513005
140.848118,160.553594
140.864459,160.600446
140.870158,160.655245
140.860238,160.720141
140.830683,160.777546
140.778933,160.829818
140.754102,160.843819
140.816839,160.878642
140.875928,160.934323
140.904708,160.979132
140.922174,161.029968
140.928226,161.088471
140.928226,161.122360
140.922579,161.178905
140.906351,161.227709
140.879775,161.270371
140.823586,161.322921
140.747517,161.362329
140.660365,161.385432
140.558656,161.393561
140.220136,161.393561
140.108628,161.386409
140.020101,161.366867
139.950267,161.337086
139.895629,161.298123
139.850413,161.247091
139.817842,161.187524
139.797547,161.117730
139.790391,161.035348
139.790391,161.019686
140.085405,161.019686
140.085405,161.052201
140.090870,161.090791
140.106298,161.120897
140.132025,161.144617
140.183839,161.167007
140.256956,161.175391
140.471095,161.175391
140.543903,161.166636
140.591629,161.143884
140.614437,161.120141
140.628344,161.090069
140.633303,161.051652
140.633303,161.027105
140.628041,160.987924
140.613245,160.957313
140.589571,160.932974
140.557283,160.914815
140.519770,160.904199
140.475034,160.900435
140.248529,160.900435
140.194030,160.904404
140.155564,160.914723
140.123916,160.932573
140.102716,160.955298
140.089951,160.983695
140.085405,161.019686
139.790391,161.019686
139.790391,161.005673
139.796436,160.925169
139.813105,160.860515
139.838934,160.808661
139.875559,160.763933
139.921545,160.728019
139.978335,160.700491
140.074613,160.675913
140.197879,160.666878
140.510388,160.666878
140.546092,160.663423
140.577616,160.653414
140.600122,160.634469
140.607932,160.603039
140.598805,160.566033
140.572304,160.542772
140.533615,160.530245
140.480987,160.525553
140.280952,160.525553
140.182669,160.519746
140.104924,160.503945
140.043915,160.480032
139.988767,160.445097
139.946168,160.404135
139.914497,160.356750
139.884408,160.275175
139.874013,160.181262
139.876370,160.138306
140.154740,160.138306
140.158287,160.182466
140.168204,160.218906
140.186860,160.249419
140.216839,160.272761
140.256083,160.286571
140.315849,160.291995
140.435283,160.291995
140.483463,160.287189
140.519702,160.274150
140.546841,160.253893
140.566224,160.226012
140.579087,160.186868
140.583936,160.132718
140.578665,160.076938
140.564904,160.038344
140.544368,160.012276
140.498019,159.987198
140.425666,159.977563
140.308521,159.977563
140.260574,159.981708
140.223891,159.992950
140.193955,160.013158
140.172142,160.043875
140.159553,160.082865
140.154740,160.138306
139.876370,160.138306
139.877549,160.116829
139.886836,160.069521
139.901806,160.027546
139.918710,159.995881
139.957544,159.946789
139.784804,159.915739
139.784804,159.744006
140.395441,159.744006
Z" /> 
<path style="fill:#000000; fill-opacity:1.000000; stroke:none;fill-rule:evenodd;"
d="M 139.714920,161.023716
139.124798,159.255459
138.808534,159.255459
139.398656,161.023716
Z" /> 
<path style="fill:#000000; fill-opacity:1.000000; stroke:none;fill-rule:evenodd;"
d="M 138.181249,159.732406
138.239113,159.745655
138.293841,159.766207
138.343435,159.791816
138.431546,159.852541
138.482104,159.745105
138.743047,159.745105
138.743047,161.370205
138.431546,161.370205
138.431546,160.814248
138.360973,160.845131
138.281153,160.868836
138.198709,160.883399
138.118762,160.888162
138.018721,160.879556
137.940186,160.855946
137.878610,160.819285
137.827637,160.768346
137.786451,160.703114
137.755237,160.620807
137.728562,160.484329
137.718692,160.309672
138.030102,160.309672
138.037804,160.431226
138.056846,160.508425
138.089499,160.569576
138.127005,160.604779
138.172149,160.624949
138.220153,160.631615
138.276654,160.627840
138.333360,160.616411
138.387205,160.598338
138.431546,160.576386
138.431546,160.041219
138.338947,159.998812
138.282325,159.983639
138.218596,159.978387
138.166463,159.985948
138.121510,160.008155
138.085476,160.045987
138.054740,160.110828
138.037088,160.190631
138.030102,160.309672
137.718692,160.309672
137.724747,160.178244
137.741682,160.066773
137.772061,159.964595
137.813489,159.883316
137.869497,159.816343
137.938511,159.767820
138.019457,159.738357
138.118762,159.727886
Z" /> 
<path style="fill:#000000; fill-opacity:1.000000; stroke:none;fill-rule:evenodd;"
d="M 137.514994,160.872500
137.514994,159.745105
137.274018,159.745105
137.203493,159.917296
137.138581,159.845274
137.066106,159.784764
137.012465,159.754396
136.952110,159.735863
136.883382,159.729443
136.837586,159.731824
136.791516,159.740525
136.791516,160.059629
136.858377,160.052759
136.923315,160.050103
136.982803,160.053624
137.033866,160.063567
137.081422,160.080257
137.124724,160.103226
137.164624,160.132634
137.203493,160.170454
137.203493,160.872500
Z" /> 
<path style="fill:#000000; fill-opacity:1.000000; stroke:none;fill-rule:evenodd;"
d="M 136.275280,159.734886
136.379264,159.753806
136.442496,159.775957
136.495694,159.806080
136.540282,159.844115
136.576574,159.890201
136.607089,159.948385
136.631323,160.020977
136.652245,160.140931
136.660266,160.306192
136.652556,160.463260
136.632147,160.581057
136.608487,160.652828
136.578238,160.711454
136.541839,160.758927
136.497179,160.798560
136.443952,160.830465
136.380822,160.854639
136.276517,160.875761
136.142593,160.883582
136.005732,160.876131
135.900976,160.856196
135.837617,160.832994
135.784613,160.802075
135.740508,160.763506
135.704642,160.717005
135.674768,160.658729
135.651390,160.586461
135.631355,160.467415
135.623730,160.306192
135.623807,160.304635
135.935139,160.304635
135.938607,160.409952
135.947413,160.482047
135.964011,160.543443
135.984507,160.581515
136.012957,160.608702
136.048346,160.624471
136.089462,160.631880
136.142593,160.634637
136.195540,160.631879
136.236474,160.624471
136.271631,160.608720
136.300038,160.581515
136.320426,160.543449
136.336858,160.482047
136.345401,160.409949
136.348765,160.304635
136.345386,160.199050
136.336858,160.127773
136.320446,160.067313
136.300038,160.029678
136.271652,160.002694
136.236474,159.986997
136.195540,159.979589
136.142593,159.976830
136.089462,159.979588
136.048346,159.986997
136.012935,160.002712
135.984507,160.029678
135.963991,160.067319
135.947413,160.127773
135.938622,160.199047
135.935139,160.304635
135.623807,160.304635
135.631790,160.143685
135.652947,160.024091
135.677279,159.951431
135.707645,159.893251
135.743531,159.847229
135.787589,159.809111
135.840617,159.778457
135.904090,159.755363
136.008495,159.735318
136.142593,159.727886
Z" /> 
<path style="fill:#000000; fill-opacity:1.000000; stroke:none;fill-rule:evenodd;"
d="M 135.383120,159.579142
135.408080,159.574131
135.421766,159.560815
135.426809,159.537102
135.426809,159.331663
135.421613,159.305889
135.407786,159.291732
135.383120,159.286509
135.143518,159.286509
135.125424,159.289892
135.113476,159.299240
135.103584,159.331663
135.103584,159.537102
135.108370,159.561171
135.121042,159.574316
135.143518,159.579142
Z" /> 
<path style="fill:#000000; fill-opacity:1.000000; stroke:none;fill-rule:evenodd;"
d="M 135.419390,161.370205
135.419390,159.745105
135.107889,159.745105
135.107889,160.863432
135.112858,160.996116
135.128039,161.133717
135.152904,161.266566
135.183085,161.370205
Z" /> 
<path style="fill:#000000; fill-opacity:1.000000; stroke:none;fill-rule:evenodd;"
d="M 134.529631,159.734429
134.626418,159.752061
134.700767,159.778353
134.765494,159.819621
134.817013,159.877393
134.856288,159.954665
134.880356,160.040195
134.896928,160.156070
134.903183,160.309672
134.896629,160.459229
134.879175,160.573172
134.853632,160.658360
134.812610,160.734943
134.759220,160.792425
134.692340,160.833573
134.616086,160.859722
134.518293,160.877151
134.394211,160.883582
134.264825,160.879278
134.162486,160.867645
133.982051,160.834123
133.982051,160.651582
134.311688,160.651582
134.419596,160.645136
134.486169,160.629417
134.536986,160.599293
134.567868,160.555869
134.584939,160.499800
134.594704,160.419124
134.309673,160.419124
134.202625,160.411674
134.116690,160.391188
134.065553,160.367803
134.023884,160.336547
133.990386,160.297033
133.966724,160.250810
133.951322,160.191911
133.945807,160.118705
134.220280,160.118705
134.228675,160.176182
134.249681,160.208098
134.284418,160.226074
134.341913,160.233194
134.597818,160.233194
134.592497,160.128482
134.579317,160.061094
134.553760,160.007736
134.518500,159.976098
134.471749,159.958839
134.405202,159.952284
134.342039,159.956680
134.297949,159.968038
134.262664,159.989192
134.238873,160.020336
134.225449,160.060489
134.220280,160.118705
133.945807,160.118705
133.945690,160.117148
133.951601,160.015146
133.967408,159.937481
133.990844,159.879194
134.026608,159.828991
134.074423,159.789901
134.136474,159.761225
134.245704,159.737276
134.405202,159.727886
Z" /> 
<path style="fill:#000000; fill-opacity:1.000000; stroke:none;fill-rule:evenodd;"
d="M 133.303270,160.885139
133.403328,160.878137
133.492772,160.857937
133.573933,160.821421
133.643165,160.766712
133.680772,160.721003
133.713660,160.663424
133.741442,160.591864
133.766687,160.473621
133.776246,160.313886
133.767353,160.148753
133.744006,160.027572
133.717846,159.953948
133.686480,159.894998
133.650400,159.848420
133.606545,159.809209
133.556320,159.778399
133.498817,159.755730
133.404999,159.735599
133.294111,159.728435
133.193556,159.731393
133.098381,159.740068
133.003452,159.755441
132.901368,159.779452
132.901368,159.958970
133.197299,159.958970
133.288826,159.966904
133.353096,159.987638
133.387623,160.011112
133.415946,160.045253
133.438275,160.092418
133.457086,160.176991
133.464745,160.311504
133.457015,160.444615
133.438184,160.526652
133.415817,160.571632
133.387423,160.603613
133.352638,160.624929
133.288122,160.643001
133.194277,160.650025
132.886073,160.650025
132.886073,160.826429
133.006973,160.856288
133.153427,160.877629
Z" /> 
<path style="fill:#000000; fill-opacity:1.000000; stroke:none;fill-rule:evenodd;"
d="M 132.284228,160.872500
132.370645,160.867719
132.440028,160.854639
132.495345,160.834764
132.544057,160.804208
132.582620,160.762843
132.611941,160.709009
132.630179,160.649082
132.641666,160.571295
132.644456,160.471605
132.634106,159.994050
132.810144,159.994050
132.810144,159.794564
132.622932,159.745105
132.581624,159.429116
132.336068,159.429116
132.336068,159.745105
132.069996,159.745105
132.069996,159.994050
132.336068,159.994050
132.336068,160.470048
132.327367,160.544970
132.316452,160.572278
132.302729,160.592139
132.266184,160.617968
132.223228,160.628226
132.081170,160.642331
132.081170,160.872500
Z" /> 
<path style="fill:#000000; fill-opacity:1.000000; stroke:none;fill-rule:evenodd;"
d="M 131.487386,160.885139
131.601508,160.881750
131.723599,160.872500
131.836256,160.856746
131.923451,160.834123
131.923451,160.651582
131.424371,160.651582
131.352197,160.644071
131.326706,160.633107
131.309790,160.616686
131.299792,160.594114
131.295960,160.560449
131.295960,160.524087
131.303102,160.486216
131.323438,160.458874
131.357614,160.442453
131.423821,160.435427
131.600501,160.435427
131.694135,160.427910
131.774890,160.406484
131.823339,160.382744
131.863966,160.350911
131.897714,160.310405
131.921714,160.263447
131.937283,160.204055
131.942960,160.129146
131.942960,160.063750
131.937941,159.993113
131.923828,159.933596
131.901560,159.883316
131.868979,159.840026
131.823053,159.803106
131.760968,159.772491
131.693550,159.752910
131.604818,159.739623
131.489950,159.734664
131.341206,159.741899
131.192371,159.760676
131.081179,159.786138
131.081179,159.968679
131.552965,159.968679
131.609906,159.974419
131.646021,159.988920
131.668875,160.015776
131.677620,160.063750
131.677620,160.098463
131.673478,160.131608
131.662691,160.153235
131.644499,160.168473
131.616621,160.178697
131.540508,160.185383
131.359341,160.185383
131.271818,160.191330
131.203226,160.207508
131.149855,160.232105
131.108748,160.264335
131.066476,160.321424
131.040027,160.392836
131.030529,160.482688
131.030529,160.583530
131.037101,160.657398
131.055267,160.716223
131.083744,160.763140
131.123074,160.801803
131.173898,160.833235
131.238533,160.857204
131.346036,160.877522
Z" /> 
<path style="fill:#000000; fill-opacity:1.000000; stroke:none;fill-rule:evenodd;"
d="M 130.966141,161.023716
130.376020,159.255459
130.059756,159.255459
130.649877,161.023716
Z" /> 
<path style="fill:#000000; fill-opacity:1.000000; stroke:none;fill-rule:evenodd;"
d="M 129.994268,160.872500
129.994268,159.745105
129.753292,159.745105
129.682767,159.917296
129.617855,159.845274
129.545380,159.784764
129.491739,159.754396
129.431385,159.735863
129.362656,159.729443
129.316860,159.731824
129.270790,159.740525
129.270790,160.059629
129.337652,160.052759
129.402590,160.050103
129.462077,160.053624
129.513140,160.063567
129.560696,160.080257
129.603998,160.103226
129.643899,160.132634
129.682767,160.170454
129.682767,160.872500
Z" /> 
<path style="fill:#000000; fill-opacity:1.000000; stroke:none;fill-rule:evenodd;"
d="M 128.666564,160.885139
128.766622,160.878137
128.856066,160.857937
128.937227,160.821421
129.006458,160.766712
129.044066,160.721003
129.076954,160.663424
129.104736,160.591864
129.129980,160.473621
129.139540,160.313886
129.130646,160.148753
129.107300,160.027572
129.081140,159.953948
129.049774,159.894998
129.013694,159.848420
128.969838,159.809209
128.919614,159.778399
128.862111,159.755730
128.768293,159.735599
128.657405,159.728435
128.556850,159.731393
128.461675,159.740068
128.366746,159.755441
128.264662,159.779452
128.264662,159.958970
128.560593,159.958970
128.652119,159.966904
128.716389,159.987638
128.750917,160.011112
128.779240,160.045253
128.801569,160.092418
128.820380,160.176991
128.828039,160.311504
128.820309,160.444615
128.801478,160.526652
128.779110,160.571632
128.750716,160.603613
128.715931,160.624929
128.651416,160.643001
128.557570,160.650025
128.249367,160.650025
128.249367,160.826429
128.370267,160.856288
128.516721,160.877629
Z" /> 
<path style="fill:#000000; fill-opacity:1.000000; stroke:none;fill-rule:evenodd;"
d="M 128.077450,160.872500
127.816507,160.872500
127.765949,160.765063
127.676281,160.824414
127.626989,160.848822
127.570585,160.868469
127.509827,160.880757
127.437870,160.885139
127.351640,160.877650
127.280140,160.856605
127.220524,160.823132
127.170286,160.776648
127.128120,160.715070
127.094220,160.635370
127.072524,160.550467
127.058269,160.446517
127.053096,160.320205
127.053656,160.304818
127.364505,160.304818
127.371587,160.424116
127.389326,160.502472
127.420182,160.565654
127.456463,160.602672
127.501627,160.624226
127.554557,160.631615
127.620701,160.627027
127.674816,160.614304
127.765949,160.576386
127.765949,160.041219
127.670694,159.997896
127.615056,159.983350
127.554557,159.978387
127.505779,159.983817
127.460859,159.999911
127.423592,160.030796
127.390975,160.090312
127.372356,160.168962
127.364505,160.304818
127.053656,160.304818
127.058251,160.178504
127.072200,160.066280
127.092938,159.978662
127.126540,159.896543
127.169145,159.834279
127.220524,159.788336
127.281811,159.756103
127.358136,159.735386
127.453165,159.727886
127.530124,159.735005
127.614640,159.757561
127.696714,159.789601
127.765949,159.823324
127.765949,159.270205
128.077450,159.270205
Z" /> 
<path style="fill:#000000; fill-opacity:1.000000; stroke:none;fill-rule:evenodd;"
d="M 126.529469,160.885139
126.604795,160.878964
126.668135,160.861541
126.721682,160.833798
126.767057,160.795655
126.812861,160.730991
126.841896,160.648554
126.852420,160.543230
126.852420,159.745105
126.541010,159.745105
126.541010,160.449532
126.534974,160.511214
126.519519,160.551720
126.496771,160.577301
126.447174,160.601212
126.377154,160.610091
126.319081,160.604707
126.256894,160.587834
126.197502,160.561539
126.146527,160.528667
126.146527,159.745105
125.835118,159.745105
125.835118,160.872500
126.091756,160.872500
126.146527,160.757644
126.226815,160.803706
126.321466,160.846213
126.422202,160.875323
Z" /> 
<path style="fill:#000000; fill-opacity:1.000000; stroke:none;fill-rule:evenodd;"
d="M 125.190316,160.885139
125.304439,160.881750
125.426530,160.872500
125.539187,160.856746
125.626382,160.834123
125.626382,160.651582
125.127302,160.651582
125.055128,160.644071
125.029637,160.633107
125.012721,160.616686
125.002723,160.594114
124.998891,160.560449
124.998891,160.524087
125.006033,160.486216
125.026368,160.458874
125.060545,160.442453
125.126752,160.435427
125.303431,160.435427
125.397066,160.427910
125.477821,160.406484
125.526270,160.382744
125.566897,160.350911
125.600644,160.310405
125.624645,160.263447
125.640214,160.204055
125.645890,160.129146
125.645890,160.063750
125.640872,159.993113
125.626759,159.933596
125.604491,159.883316
125.571910,159.840026
125.525983,159.803106
125.463899,159.772491
125.396481,159.752910
125.307749,159.739623
125.192881,159.734664
125.044137,159.741899
124.895302,159.760676
124.784110,159.786138
124.784110,159.968679
125.255896,159.968679
125.312837,159.974419
125.348952,159.988920
125.371806,160.015776
125.380551,160.063750
125.380551,160.098463
125.376408,160.131608
125.365622,160.153235
125.347430,160.168473
125.319551,160.178697
125.243439,160.185383
125.062272,160.185383
124.974748,160.191330
124.906157,160.207508
124.852785,160.232105
124.811679,160.264335
124.769407,160.321424
124.742958,160.392836
124.733460,160.482688
124.733460,160.583530
124.740032,160.657398
124.758198,160.716223
124.786675,160.763140
124.826005,160.801803
124.876829,160.833235
124.941464,160.857204
125.048966,160.877522
Z" /> 
<path style="fill:#000000; fill-opacity:1.000000; stroke:none;fill-rule:evenodd;"
d="M 124.614209,160.388532
124.614209,160.138489
123.971789,160.138489
123.971789,160.388532
Z" /> 
<path style="fill:#000000; fill-opacity:1.000000; stroke:none;fill-rule:evenodd;"
d="M 123.455462,159.734886
123.559446,159.753806
123.622677,159.775957
123.675876,159.806080
123.720463,159.844115
123.756755,159.890201
123.787271,159.948385
123.811505,160.020977
123.832427,160.140931
123.840447,160.306192
123.832737,160.463260
123.812329,160.581057
123.788668,160.652828
123.758420,160.711454
123.722020,160.758927
123.677361,160.798560
123.624134,160.830465
123.561003,160.854639
123.456699,160.875761
123.322775,160.883582
123.185914,160.876131
123.081157,160.856196
123.017798,160.832994
122.964795,160.802075
122.920690,160.763506
122.884823,160.717005
122.854949,160.658729
122.831572,160.586461
122.811536,160.467415
122.803911,160.306192
122.803988,160.304635
123.115321,160.304635
123.118788,160.409952
123.127594,160.482047
123.144193,160.543443
123.164688,160.581515
123.193138,160.608702
123.228527,160.624471
123.269643,160.631880
123.322775,160.634637
123.375722,160.631879
123.416655,160.624471
123.451812,160.608720
123.480220,160.581515
123.500608,160.543449
123.517039,160.482047
123.525582,160.409949
123.528946,160.304635
123.525568,160.199050
123.517039,160.127773
123.500628,160.067313
123.480220,160.029678
123.451834,160.002694
123.416655,159.986997
123.375722,159.979589
123.322775,159.976830
123.269643,159.979588
123.228527,159.986997
123.193117,160.002712
123.164688,160.029678
123.144173,160.067319
123.127594,160.127773
123.118803,160.199047
123.115321,160.304635
122.803988,160.304635
122.811971,160.143685
122.833129,160.024091
122.857460,159.951431
122.887827,159.893251
122.923712,159.847229
122.967770,159.809111
123.020799,159.778457
123.084271,159.755363
123.188676,159.735318
123.322775,159.727886
Z" /> 
<path style="fill:#000000; fill-opacity:1.000000; stroke:none;fill-rule:evenodd;"
d="M 122.037773,159.732406
122.095637,159.745655
122.150366,159.766207
122.199960,159.791816
122.288070,159.852541
122.338629,159.745105
122.599572,159.745105
122.599572,161.370205
122.288070,161.370205
122.288070,160.814248
122.217498,160.845131
122.137678,160.868836
122.055234,160.883399
121.975287,160.888162
121.875245,160.879556
121.796711,160.855946
121.735135,160.819285
121.684162,160.768346
121.642976,160.703114
121.611762,160.620807
121.585087,160.484329
121.575217,160.309672
121.886627,160.309672
121.894329,160.431226
121.913371,160.508425
121.946023,160.569576
121.983530,160.604779
122.028673,160.624949
122.076678,160.631615
122.133179,160.627840
122.189885,160.616411
122.243730,160.598338
122.288070,160.576386
122.288070,160.041219
122.195472,159.998812
122.138850,159.983639
122.075121,159.978387
122.022988,159.985948
121.978035,160.008155
121.942001,160.045987
121.911265,160.110828
121.893613,160.190631
121.886627,160.309672
121.575217,160.309672
121.581272,160.178244
121.598206,160.066773
121.628586,159.964595
121.670014,159.883316
121.726022,159.816343
121.795036,159.767820
121.875982,159.738357
121.975287,159.727886
Z" /> 
<path style="fill:#000000; fill-opacity:1.000000; stroke:none;fill-rule:evenodd;"
d="M 121.017702,160.877079
121.096494,160.872278
121.161691,160.858934
121.215539,160.838244
121.263541,160.807594
121.302367,160.767903
121.332867,160.718077
121.353292,160.662534
121.366656,160.593548
121.371519,160.508333
121.371519,159.270205
121.060017,159.270205
121.060017,160.462355
121.056309,160.522455
121.046920,160.562830
121.029990,160.595540
121.007719,160.616686
120.979380,160.630646
120.943147,160.639950
120.856410,160.651582
120.856410,160.877079
Z" /> 
<path style="fill:#000000; fill-opacity:1.000000; stroke:none;fill-rule:evenodd;"
d="M 120.159769,160.885139
120.325331,160.882159
120.479330,160.873507
120.627793,160.858943
120.754561,160.840259
120.754561,160.591681
120.277555,160.591681
120.196025,160.588174
120.136962,160.579042
120.087183,160.560730
120.055263,160.534803
120.036082,160.498618
120.028885,160.445319
120.028885,160.380564
120.036210,160.328899
120.056271,160.291721
120.087733,160.263553
120.129544,160.243544
120.177126,160.231811
120.232950,160.226233
120.615709,160.210021
120.615709,159.971793
120.246689,159.951460
120.157257,159.938738
120.099135,159.916472
120.070908,159.892852
120.053658,159.860276
120.047386,159.815630
120.047386,159.762874
120.054092,159.710808
120.072704,159.671096
120.102982,159.640691
120.142426,159.620521
120.201838,159.606306
120.288271,159.600758
120.721130,159.600758
120.721130,159.352179
120.460004,159.318199
120.317082,159.307441
120.163524,159.305834
120.073556,159.312033
119.997276,159.327548
119.932623,159.351263
119.873748,159.385596
119.826124,159.428322
119.788458,159.480040
119.761802,159.538597
119.744970,159.607582
119.738999,159.689143
119.738999,159.804914
119.742824,159.863388
119.753562,159.912717
119.771362,159.957638
119.794687,159.995423
119.823715,160.027971
119.856969,160.054408
119.893914,160.075299
119.933997,160.090861
119.891421,160.106818
119.850832,160.131436
119.814305,160.163014
119.781772,160.201595
119.755168,160.245926
119.733962,160.299323
119.720867,160.357332
119.716285,160.423612
119.716285,160.503662
119.724394,160.595338
119.747194,160.671302
119.783504,160.734611
119.833704,160.787411
119.894385,160.828209
119.967274,160.858674
120.054757,160.878163
Z" /> 
<path style="fill:#000000; fill-opacity:1.000000; stroke:none;fill-rule:evenodd;"
d="M 119.586867,161.023716
118.996745,159.255459
118.680481,159.255459
119.270603,161.023716
Z" /> 
</g> 
</svg>
