<?xml version="1.0" standalone="no"?>
 <!DOCTYPE svg PUBLIC "-//W3C//DTD SVG 1.1//EN" 
 "http://www.w3.org/Graphics/SVG/1.1/DTD/svg11.dtd"> 
<svg
  xmlns:svg="http://www.w3.org/2000/svg"
  xmlns="http://www.w3.org/2000/svg"
  xmlns:xlink="http://www.w3.org/1999/xlink"
  version="1.1"
  width="10.215000000000002cm" height="5.215cm" viewBox="58.925 113.925 102.15 52.15">
<title>SVG Image created as rcbus-opl3-B_SilkS.svg date 2025/10/11 13:11:51 </title>
  <desc>Image generated by PCBNEW </desc>
<g style="fill:#000000; fill-opacity:1.000000;stroke:#000000; stroke-opacity:1.000000;
stroke-linecap:round; stroke-linejoin:round;"
 transform="translate(0 0) scale(1 1)">
<path style="fill:#000000; fill-opacity:1.000000; stroke:none;fill-rule:evenodd;"
d="M 159.482230,161.622500
159.482230,160.021762
159.170729,160.021762
159.170729,160.609960
159.104268,160.563743
159.012460,160.518003
158.912847,160.486567
158.812333,160.476237
158.728063,160.482558
158.661186,160.499896
158.608268,160.526612
158.562585,160.564391
158.526215,160.610894
158.498634,160.667388
158.473803,160.762014
158.464928,160.876215
158.464928,161.622500
158.776338,161.622500
158.776338,160.916149
158.781899,160.865791
158.797221,160.827031
158.821910,160.795639
158.853916,160.773542
158.891749,160.760461
158.936714,160.755865
159.022535,160.767039
159.100296,160.796806
159.170729,160.839030
159.170729,161.622500
Z" /> 
<path style="fill:#000000; fill-opacity:1.000000; stroke:none;fill-rule:evenodd;"
d="M 157.803732,161.622500
157.890149,161.617719
157.959532,161.604639
158.014850,161.584764
158.063562,161.554208
158.102125,161.512843
158.131445,161.459009
158.149684,161.399082
158.161170,161.321295
158.163960,161.221605
158.153610,160.744050
158.329648,160.744050
158.329648,160.544564
158.142436,160.495105
158.101129,160.179116
157.855573,160.179116
157.855573,160.495105
157.589501,160.495105
157.589501,160.744050
157.855573,160.744050
157.855573,161.220048
157.846872,161.294970
157.835956,161.322278
157.822234,161.342139
157.785689,161.367968
157.742733,161.378226
157.600675,161.392331
157.600675,161.622500
Z" /> 
<path style="fill:#000000; fill-opacity:1.000000; stroke:none;fill-rule:evenodd;"
d="M 156.987473,161.622500
157.073890,161.617719
157.143273,161.604639
157.198590,161.584764
157.247302,161.554208
157.285865,161.512843
157.315186,161.459009
157.333424,161.399082
157.344911,161.321295
157.347700,161.221605
157.337351,160.744050
157.513389,160.744050
157.513389,160.544564
157.326177,160.495105
157.284869,160.179116
157.039313,160.179116
157.039313,160.495105
156.773241,160.495105
156.773241,160.744050
157.039313,160.744050
157.039313,161.220048
157.030612,161.294970
157.019696,161.322278
157.005974,161.342139
156.969429,161.367968
156.926473,161.378226
156.784415,161.392331
156.784415,161.622500
Z" /> 
<path style="fill:#000000; fill-opacity:1.000000; stroke:none;fill-rule:evenodd;"
d="M 156.039343,160.482406
156.097208,160.495655
156.151936,160.516207
156.201530,160.541816
156.289640,160.602541
156.340199,160.495105
156.601142,160.495105
156.601142,162.120205
156.289640,162.120205
156.289640,161.564248
156.219068,161.595131
156.139248,161.618836
156.056804,161.633399
155.976857,161.638162
155.876816,161.629556
155.798281,161.605946
155.736705,161.569285
155.685732,161.518346
155.644546,161.453114
155.613332,161.370807
155.586657,161.234329
155.576787,161.059672
155.888197,161.059672
155.895899,161.181226
155.914941,161.258425
155.947593,161.319576
155.985100,161.354779
156.030243,161.374949
156.078248,161.381615
156.134749,161.377840
156.191455,161.366411
156.245300,161.348338
156.289640,161.326386
156.289640,160.791219
156.197042,160.748812
156.140420,160.733639
156.076691,160.728387
156.024558,160.735948
155.979605,160.758155
155.943571,160.795987
155.912835,160.860828
155.895183,160.940631
155.888197,161.059672
155.576787,161.059672
155.582842,160.928244
155.599777,160.816773
155.630156,160.714595
155.671584,160.633316
155.727592,160.566343
155.796606,160.517820
155.877552,160.488357
155.976857,160.477886
Z" /> 
<path style="fill:#000000; fill-opacity:1.000000; stroke:none;fill-rule:evenodd;"
d="M 154.962577,161.635139
155.076700,161.631750
155.198791,161.622500
155.311448,161.606746
155.398643,161.584123
155.398643,161.401582
154.899563,161.401582
154.827389,161.394071
154.801898,161.383107
154.784982,161.366686
154.774984,161.344114
154.771152,161.310449
154.771152,161.274087
154.778294,161.236216
154.798629,161.208874
154.832806,161.192453
154.899013,161.185427
155.075692,161.185427
155.169326,161.177910
155.250082,161.156484
155.298531,161.132744
155.339158,161.100911
155.372905,161.060405
155.396906,161.013447
155.412475,160.954055
155.418151,160.879146
155.418151,160.813750
155.413133,160.743113
155.399020,160.683596
155.376752,160.633316
155.344171,160.590026
155.298244,160.553106
155.236160,160.522491
155.168742,160.502910
155.080010,160.489623
154.965142,160.484664
154.816398,160.491899
154.667563,160.510676
154.556371,160.536138
154.556371,160.718679
155.028157,160.718679
155.085098,160.724419
155.121213,160.738920
155.144067,160.765776
155.152812,160.813750
155.152812,160.848463
155.148669,160.881608
155.137883,160.903235
155.119691,160.918473
155.091812,160.928697
155.015700,160.935383
154.834533,160.935383
154.747009,160.941330
154.678418,160.957508
154.625046,160.982105
154.583940,161.014335
154.541668,161.071424
154.515219,161.142836
154.505721,161.232688
154.505721,161.333530
154.512293,161.407398
154.530459,161.466223
154.558936,161.513140
154.598266,161.551803
154.649090,161.583235
154.713725,161.607204
154.821227,161.627522
Z" /> 
<path style="fill:#000000; fill-opacity:1.000000; stroke:none;fill-rule:evenodd;"
d="M 154.276194,161.625614
154.301085,161.620600
154.314750,161.607263
154.319791,161.583482
154.319791,161.368792
154.314602,161.343009
154.300799,161.328857
154.276194,161.323638
154.096492,161.323638
154.070798,161.328939
154.056550,161.343167
154.051246,161.368792
154.051246,161.583482
154.054774,161.604213
154.063978,161.616271
154.096492,161.625614
Z" /> 
<path style="fill:#000000; fill-opacity:1.000000; stroke:none;fill-rule:evenodd;"
d="M 154.276194,160.793234
154.301085,160.788220
154.314750,160.774884
154.319791,160.751102
154.319791,160.536413
154.314602,160.510629
154.300799,160.496477
154.276194,160.491258
154.096492,160.491258
154.070798,160.496560
154.056550,160.510787
154.051246,160.536413
154.051246,160.751102
154.054774,160.771834
154.063978,160.783892
154.096492,160.793234
Z" /> 
<path style="fill:#000000; fill-opacity:1.000000; stroke:none;fill-rule:evenodd;"
d="M 153.951870,161.773716
153.361749,160.005459
153.045485,160.005459
153.635606,161.773716
Z" /> 
<path style="fill:#000000; fill-opacity:1.000000; stroke:none;fill-rule:evenodd;"
d="M 153.276294,161.773716
152.686173,160.005459
152.369909,160.005459
152.960030,161.773716
Z" /> 
<path style="fill:#000000; fill-opacity:1.000000; stroke:none;fill-rule:evenodd;"
d="M 152.304422,161.622500
152.304422,160.495105
152.047692,160.495105
151.992920,160.609960
151.915979,160.559238
151.831628,160.515713
151.772075,160.494636
151.700946,160.481089
151.616115,160.476237
151.546920,160.481620
151.488909,160.496764
151.440077,160.520751
151.377569,160.571833
151.332640,160.634598
151.221723,160.562241
151.155711,160.528799
151.083971,160.500967
151.009947,160.482297
150.938432,160.476237
150.848997,160.482725
150.778846,160.500408
150.724109,160.527437
150.677137,160.565996
150.640461,160.613702
150.613467,160.671967
150.589804,160.770132
150.581227,160.891603
150.581227,161.622500
150.892637,161.622500
150.892637,160.919172
150.898031,160.867465
150.912695,160.828588
150.936695,160.797035
150.968199,160.774366
151.006077,160.760756
151.053654,160.755865
151.116135,160.762119
151.181057,160.781510
151.242851,160.810380
151.296095,160.844067
151.289409,160.884184
151.287120,160.925400
151.287120,161.622500
151.598529,161.622500
151.598529,160.919172
151.603923,160.867465
151.618588,160.828588
151.642539,160.797014
151.673817,160.774366
151.711446,160.760762
151.758905,160.755865
151.845001,160.766215
151.922212,160.795249
151.992920,160.839030
151.992920,161.622500
Z" /> 
<path style="fill:#000000; fill-opacity:1.000000; stroke:none;fill-rule:evenodd;"
d="M 150.017225,160.485600
150.130691,160.498860
150.235165,160.519718
150.320651,160.543557
150.320651,160.722984
149.983595,160.722984
149.885214,160.727785
149.826608,160.739287
149.781542,160.761159
149.756358,160.789845
149.742932,160.827073
149.737948,160.877315
149.737948,160.953702
150.025636,160.953702
150.123108,160.959961
150.200128,160.977027
150.260562,161.002977
150.307553,161.036866
150.357735,161.097250
150.387629,161.166736
150.397953,161.248258
150.397953,161.350199
150.388315,161.435357
150.361255,161.503726
150.317445,161.559118
150.259702,161.600721
150.191356,161.626190
150.109442,161.635139
150.040514,161.631479
149.976085,161.620759
149.914590,161.604021
149.861138,161.583940
149.774035,161.540159
149.722561,161.503431
149.672003,161.622500
149.426447,161.622500
149.426447,161.363938
149.737948,161.363938
149.758281,161.372181
149.798307,161.386561
149.850056,161.401673
149.904644,161.414221
149.952821,161.418893
150.019957,161.407260
150.047329,161.392250
150.068500,161.369159
150.081687,161.339161
150.086544,161.298267
150.086544,161.252838
150.076463,161.197039
150.047892,161.156484
150.001879,161.129689
149.926168,161.114077
149.737948,161.100980
149.737948,161.363938
149.426447,161.363938
149.426447,160.855882
149.433124,160.760208
149.451196,160.686151
149.478562,160.629286
149.518144,160.580552
149.568134,160.542201
149.630237,160.513698
149.735523,160.488995
149.870389,160.480267
Z" /> 
<path style="fill:#000000; fill-opacity:1.000000; stroke:none;fill-rule:evenodd;"
d="M 149.156986,160.329142
149.181886,160.324135
149.195547,160.310823
149.200583,160.287102
149.200583,160.081663
149.195394,160.055880
149.181591,160.041728
149.156986,160.036509
148.917292,160.036509
148.899198,160.039892
148.887250,160.049240
148.877359,160.081663
148.877359,160.287102
148.882145,160.311171
148.894817,160.324316
148.917292,160.329142
Z" /> 
<path style="fill:#000000; fill-opacity:1.000000; stroke:none;fill-rule:evenodd;"
d="M 149.194722,161.622500
149.194722,160.495105
148.883220,160.495105
148.883220,161.622500
Z" /> 
<path style="fill:#000000; fill-opacity:1.000000; stroke:none;fill-rule:evenodd;"
d="M 147.965569,160.530459
148.100300,160.493640
148.176765,160.481828
148.254264,160.477886
148.360489,160.485667
148.443623,160.506863
148.508338,160.539252
148.562653,160.586093
148.606470,160.648797
148.639771,160.730677
148.659966,160.818350
148.673517,160.929985
148.678514,161.070205
148.672644,161.206339
148.656742,161.314147
148.632994,161.398468
148.595943,161.476701
148.550731,161.535836
148.497347,161.579085
148.435018,161.609371
148.361790,161.628404
148.275330,161.635139
148.218121,161.631107
148.161116,161.618927
148.105710,161.599878
148.053314,161.575330
148.004847,161.545930
147.965569,161.515063
147.915011,161.622500
147.654160,161.622500
147.654160,160.754491
147.965569,160.754491
147.965569,161.321806
148.051390,161.364213
148.104406,161.379331
148.166245,161.384637
148.234054,161.377256
148.283207,161.357435
148.320129,161.321301
148.347504,161.258425
148.361381,161.179176
148.367013,161.054818
148.360943,160.922647
148.346130,160.840312
148.327932,160.793588
148.305013,160.760761
148.277620,160.738829
148.225298,160.718899
148.152965,160.711443
148.101858,160.714998
148.054046,160.725457
147.965569,160.754491
147.654160,160.754491
147.654160,160.020205
147.965569,160.020205
Z" /> 
<path style="fill:#000000; fill-opacity:1.000000; stroke:none;fill-rule:evenodd;"
d="M 147.089241,160.485600
147.202707,160.498860
147.307182,160.519718
147.392667,160.543557
147.392667,160.722984
147.055612,160.722984
146.957231,160.727785
146.898625,160.739287
146.853559,160.761159
146.828375,160.789845
146.814949,160.827073
146.809965,160.877315
146.809965,160.953702
147.097652,160.953702
147.195125,160.959961
147.272145,160.977027
147.332579,161.002977
147.379570,161.036866
147.429751,161.097250
147.459646,161.166736
147.469970,161.248258
147.469970,161.350199
147.460332,161.435357
147.433272,161.503726
147.389462,161.559118
147.331718,161.600721
147.263373,161.626190
147.181458,161.635139
147.112531,161.631479
147.048102,161.620759
146.986607,161.604021
146.933155,161.583940
146.846052,161.540159
146.794578,161.503431
146.744019,161.622500
146.498464,161.622500
146.498464,161.363938
146.809965,161.363938
146.830298,161.372181
146.870323,161.386561
146.922072,161.401673
146.976661,161.414221
147.024838,161.418893
147.091974,161.407260
147.119346,161.392250
147.140517,161.369159
147.153704,161.339161
147.158561,161.298267
147.158561,161.252838
147.148480,161.197039
147.119909,161.156484
147.073896,161.129689
146.998185,161.114077
146.809965,161.100980
146.809965,161.363938
146.498464,161.363938
146.498464,160.855882
146.505141,160.760208
146.523213,160.686151
146.550579,160.629286
146.590161,160.580552
146.640151,160.542201
146.702254,160.513698
146.807540,160.488995
146.942406,160.480267
Z" /> 
<path style="fill:#000000; fill-opacity:1.000000; stroke:none;fill-rule:evenodd;"
d="M 145.981799,161.622500
146.359795,160.495105
146.039135,160.495105
145.796418,161.334629
145.545184,160.495105
145.227638,160.495105
145.623219,161.622500
Z" /> 
<path style="fill:#000000; fill-opacity:1.000000; stroke:none;fill-rule:evenodd;"
d="M 144.792870,160.485600
144.906336,160.498860
145.010810,160.519718
145.096296,160.543557
145.096296,160.722984
144.759241,160.722984
144.660859,160.727785
144.602254,160.739287
144.557188,160.761159
144.532003,160.789845
144.518577,160.827073
144.513594,160.877315
144.513594,160.953702
144.801281,160.953702
144.898754,160.959961
144.975774,160.977027
145.036207,161.002977
145.083199,161.036866
145.133380,161.097250
145.163274,161.166736
145.173599,161.248258
145.173599,161.350199
145.163961,161.435357
145.136901,161.503726
145.093090,161.559118
145.035347,161.600721
144.967002,161.626190
144.885087,161.635139
144.816159,161.631479
144.751730,161.620759
144.690236,161.604021
144.636784,161.583940
144.549681,161.540159
144.498206,161.503431
144.447648,161.622500
144.202092,161.622500
144.202092,161.363938
144.513594,161.363938
144.533927,161.372181
144.573952,161.386561
144.625701,161.401673
144.680289,161.414221
144.728466,161.418893
144.795603,161.407260
144.822975,161.392250
144.844146,161.369159
144.857333,161.339161
144.862189,161.298267
144.862189,161.252838
144.852109,161.197039
144.823538,161.156484
144.777524,161.129689
144.701813,161.114077
144.513594,161.100980
144.513594,161.363938
144.202092,161.363938
144.202092,160.855882
144.208770,160.760208
144.226842,160.686151
144.254208,160.629286
144.293790,160.580552
144.343780,160.542201
144.405883,160.513698
144.511169,160.488995
144.646034,160.480267
Z" /> 
<path style="fill:#000000; fill-opacity:1.000000; stroke:none;fill-rule:evenodd;"
d="M 143.616551,161.627079
143.695342,161.622278
143.760539,161.608934
143.814387,161.588244
143.862389,161.557594
143.901216,161.517903
143.931716,161.468077
143.952140,161.412534
143.965504,161.343548
143.970367,161.258333
143.970367,160.020205
143.658866,160.020205
143.658866,161.212355
143.655157,161.272455
143.645768,161.312830
143.628838,161.345540
143.606567,161.366686
143.578228,161.380646
143.541996,161.389950
143.455259,161.401582
143.455259,161.627079
Z" /> 
<path style="fill:#000000; fill-opacity:1.000000; stroke:none;fill-rule:evenodd;"
d="M 142.973630,160.484429
143.070416,160.502061
143.144765,160.528353
143.209493,160.569621
143.261012,160.627393
143.300287,160.704665
143.324354,160.790195
143.340927,160.906070
143.347181,161.059672
143.340627,161.209229
143.323174,161.323172
143.297631,161.408360
143.256609,161.484943
143.203219,161.542425
143.136339,161.583573
143.060084,161.609722
142.962292,161.627151
142.838210,161.633582
142.708824,161.629278
142.606484,161.617645
142.426050,161.584123
142.426050,161.401582
142.755686,161.401582
142.863595,161.395136
142.930167,161.379417
142.980985,161.349293
143.011867,161.305869
143.028937,161.249800
143.038703,161.169124
142.753671,161.169124
142.646624,161.161674
142.560689,161.141188
142.509552,161.117803
142.467883,161.086547
142.434385,161.047033
142.410723,161.000810
142.395321,160.941911
142.389805,160.868705
142.664278,160.868705
142.672674,160.926182
142.693679,160.958098
142.728417,160.976074
142.785911,160.983194
143.041817,160.983194
143.036495,160.878482
143.023315,160.811094
142.997758,160.757736
142.962499,160.726098
142.915748,160.708839
142.849201,160.702284
142.786037,160.706680
142.741948,160.718038
142.706662,160.739192
142.682871,160.770336
142.669448,160.810489
142.664278,160.868705
142.389805,160.868705
142.389688,160.867148
142.395600,160.765146
142.411407,160.687481
142.434843,160.629194
142.470607,160.578991
142.518422,160.539901
142.580473,160.511225
142.689703,160.487276
142.849201,160.477886
Z" /> 
<path style="fill:#000000; fill-opacity:1.000000; stroke:none;fill-rule:evenodd;"
d="M 142.149537,161.625614
142.174427,161.620600
142.188093,161.607263
142.193134,161.583482
142.193134,161.368792
142.187944,161.343009
142.174142,161.328857
142.149537,161.323638
141.969835,161.323638
141.944140,161.328939
141.929892,161.343167
141.924589,161.368792
141.924589,161.583482
141.928117,161.604213
141.937320,161.616271
141.969835,161.625614
Z" /> 
<path style="fill:#000000; fill-opacity:1.000000; stroke:none;fill-rule:evenodd;"
d="M 141.344331,160.484886
141.448315,160.503806
141.511547,160.525957
141.564745,160.556080
141.609333,160.594115
141.645624,160.640201
141.676140,160.698385
141.700374,160.770977
141.721296,160.890931
141.729317,161.056192
141.721607,161.213260
141.701198,161.331057
141.677538,161.402828
141.647289,161.461454
141.610890,161.508927
141.566230,161.548560
141.513003,161.580465
141.449872,161.604639
141.345568,161.625761
141.211644,161.633582
141.074783,161.626131
140.970027,161.606196
140.906667,161.582994
140.853664,161.552075
140.809559,161.513506
140.773693,161.467005
140.743819,161.408729
140.720441,161.336461
140.700406,161.217415
140.692781,161.056192
140.692858,161.054635
141.004190,161.054635
141.007658,161.159952
141.016464,161.232047
141.033062,161.293443
141.053558,161.331515
141.082008,161.358702
141.117397,161.374471
141.158513,161.381880
141.211644,161.384637
141.264591,161.381879
141.305525,161.374471
141.340682,161.358720
141.369089,161.331515
141.389477,161.293449
141.405909,161.232047
141.414452,161.159949
141.417816,161.054635
141.414437,160.949050
141.405909,160.877773
141.389497,160.817313
141.369089,160.779678
141.340703,160.752694
141.305525,160.736997
141.264591,160.729589
141.211644,160.726830
141.158513,160.729588
141.117397,160.736997
141.081986,160.752712
141.053558,160.779678
141.033042,160.817319
141.016464,160.877773
141.007673,160.949047
141.004190,161.054635
140.692858,161.054635
140.700840,160.893685
140.721998,160.774091
140.746330,160.701431
140.776696,160.643251
140.812582,160.597229
140.856640,160.559111
140.909668,160.528457
140.973141,160.505363
141.077546,160.485318
141.211644,160.477886
Z" /> 
<path style="fill:#000000; fill-opacity:1.000000; stroke:none;fill-rule:evenodd;"
d="M 140.488441,161.622500
140.488441,160.495105
140.247465,160.495105
140.176940,160.667296
140.112028,160.595274
140.039553,160.534764
139.985913,160.504396
139.925558,160.485863
139.856829,160.479443
139.811034,160.481824
139.764963,160.490525
139.764963,160.809629
139.831825,160.802759
139.896763,160.800103
139.956250,160.803624
140.007313,160.813567
140.054869,160.830257
140.098172,160.853226
140.138072,160.882634
140.176940,160.920454
140.176940,161.622500
Z" /> 
<path style="fill:#000000; fill-opacity:1.000000; stroke:none;fill-rule:evenodd;"
d="M 139.250829,160.499054
139.337281,160.512967
139.407758,160.534214
139.472790,160.566626
139.523931,160.607145
139.563188,160.656031
139.590828,160.712577
139.608387,160.780605
139.614662,160.862660
139.610381,160.925907
139.597626,160.986949
139.575020,161.044714
139.540931,161.098690
139.495586,161.145358
139.434686,161.185702
139.490599,161.203863
139.535538,161.229681
139.571340,161.263005
139.598118,161.303594
139.614459,161.350446
139.620158,161.405245
139.610238,161.470141
139.580683,161.527546
139.528933,161.579818
139.504102,161.593819
139.566839,161.628642
139.625928,161.684323
139.654708,161.729132
139.672174,161.779968
139.678226,161.838471
139.678226,161.872360
139.672579,161.928905
139.656351,161.977709
139.629775,162.020371
139.573586,162.072921
139.497517,162.112329
139.410365,162.135432
139.308656,162.143561
138.970136,162.143561
138.858628,162.136409
138.770101,162.116867
138.700267,162.087086
138.645629,162.048123
138.600413,161.997091
138.567842,161.937524
138.547547,161.867730
138.540391,161.785348
138.540391,161.769686
138.835405,161.769686
138.835405,161.802201
138.840870,161.840791
138.856298,161.870897
138.882025,161.894617
138.933839,161.917007
139.006956,161.925391
139.221095,161.925391
139.293903,161.916636
139.341629,161.893884
139.364437,161.870141
139.378344,161.840069
139.383303,161.801652
139.383303,161.777105
139.378041,161.737924
139.363245,161.707313
139.339571,161.682974
139.307283,161.664815
139.269770,161.654199
139.225034,161.650435
138.998529,161.650435
138.944030,161.654404
138.905564,161.664723
138.873916,161.682573
138.852716,161.705298
138.839951,161.733695
138.835405,161.769686
138.540391,161.769686
138.540391,161.755673
138.546436,161.675169
138.563105,161.610515
138.588934,161.558661
138.625559,161.513933
138.671545,161.478019
138.728335,161.450491
138.824613,161.425913
138.947879,161.416878
139.260388,161.416878
139.296092,161.413423
139.327616,161.403414
139.350122,161.384469
139.357932,161.353039
139.348805,161.316033
139.322304,161.292772
139.283615,161.280245
139.230987,161.275553
139.030952,161.275553
138.932669,161.269746
138.854924,161.253945
138.793915,161.230032
138.738767,161.195097
138.696168,161.154135
138.664497,161.106750
138.634408,161.025175
138.624013,160.931262
138.626370,160.888306
138.904740,160.888306
138.908287,160.932466
138.918204,160.968906
138.936860,160.999419
138.966839,161.022761
139.006083,161.036571
139.065849,161.041995
139.185283,161.041995
139.233463,161.037189
139.269702,161.024150
139.296841,161.003893
139.316224,160.976012
139.329087,160.936868
139.333936,160.882718
139.328665,160.826938
139.314904,160.788344
139.294368,160.762276
139.248019,160.737198
139.175666,160.727563
139.058521,160.727563
139.010574,160.731708
138.973891,160.742950
138.943955,160.763158
138.922142,160.793875
138.909553,160.832865
138.904740,160.888306
138.626370,160.888306
138.627549,160.866829
138.636836,160.819521
138.651806,160.777546
138.668710,160.745881
138.707544,160.696789
138.534804,160.665739
138.534804,160.494006
139.145441,160.494006
Z" /> 
<path style="fill:#000000; fill-opacity:1.000000; stroke:none;fill-rule:evenodd;"
d="M 138.464920,161.773716
137.874798,160.005459
137.558534,160.005459
138.148656,161.773716
Z" /> 
<path style="fill:#000000; fill-opacity:1.000000; stroke:none;fill-rule:evenodd;"
d="M 136.931249,160.482406
136.989113,160.495655
137.043841,160.516207
137.093435,160.541816
137.181546,160.602541
137.232104,160.495105
137.493047,160.495105
137.493047,162.120205
137.181546,162.120205
137.181546,161.564248
137.110973,161.595131
137.031153,161.618836
136.948709,161.633399
136.868762,161.638162
136.768721,161.629556
136.690186,161.605946
136.628610,161.569285
136.577637,161.518346
136.536451,161.453114
136.505237,161.370807
136.478562,161.234329
136.468692,161.059672
136.780102,161.059672
136.787804,161.181226
136.806846,161.258425
136.839499,161.319576
136.877005,161.354779
136.922149,161.374949
136.970153,161.381615
137.026654,161.377840
137.083360,161.366411
137.137205,161.348338
137.181546,161.326386
137.181546,160.791219
137.088947,160.748812
137.032325,160.733639
136.968596,160.728387
136.916463,160.735948
136.871510,160.758155
136.835476,160.795987
136.804740,160.860828
136.787088,160.940631
136.780102,161.059672
136.468692,161.059672
136.474747,160.928244
136.491682,160.816773
136.522061,160.714595
136.563489,160.633316
136.619497,160.566343
136.688511,160.517820
136.769457,160.488357
136.868762,160.477886
Z" /> 
<path style="fill:#000000; fill-opacity:1.000000; stroke:none;fill-rule:evenodd;"
d="M 136.264994,161.622500
136.264994,160.495105
136.024018,160.495105
135.953493,160.667296
135.888581,160.595274
135.816106,160.534764
135.762465,160.504396
135.702110,160.485863
135.633382,160.479443
135.587586,160.481824
135.541516,160.490525
135.541516,160.809629
135.608377,160.802759
135.673315,160.800103
135.732803,160.803624
135.783866,160.813567
135.831422,160.830257
135.874724,160.853226
135.914624,160.882634
135.953493,160.920454
135.953493,161.622500
Z" /> 
<path style="fill:#000000; fill-opacity:1.000000; stroke:none;fill-rule:evenodd;"
d="M 135.025280,160.484886
135.129264,160.503806
135.192496,160.525957
135.245694,160.556080
135.290282,160.594115
135.326574,160.640201
135.357089,160.698385
135.381323,160.770977
135.402245,160.890931
135.410266,161.056192
135.402556,161.213260
135.382147,161.331057
135.358487,161.402828
135.328238,161.461454
135.291839,161.508927
135.247179,161.548560
135.193952,161.580465
135.130822,161.604639
135.026517,161.625761
134.892593,161.633582
134.755732,161.626131
134.650976,161.606196
134.587617,161.582994
134.534613,161.552075
134.490508,161.513506
134.454642,161.467005
134.424768,161.408729
134.401390,161.336461
134.381355,161.217415
134.373730,161.056192
134.373807,161.054635
134.685139,161.054635
134.688607,161.159952
134.697413,161.232047
134.714011,161.293443
134.734507,161.331515
134.762957,161.358702
134.798346,161.374471
134.839462,161.381880
134.892593,161.384637
134.945540,161.381879
134.986474,161.374471
135.021631,161.358720
135.050038,161.331515
135.070426,161.293449
135.086858,161.232047
135.095401,161.159949
135.098765,161.054635
135.095386,160.949050
135.086858,160.877773
135.070446,160.817313
135.050038,160.779678
135.021652,160.752694
134.986474,160.736997
134.945540,160.729589
134.892593,160.726830
134.839462,160.729588
134.798346,160.736997
134.762935,160.752712
134.734507,160.779678
134.713991,160.817319
134.697413,160.877773
134.688622,160.949047
134.685139,161.054635
134.373807,161.054635
134.381790,160.893685
134.402947,160.774091
134.427279,160.701431
134.457645,160.643251
134.493531,160.597229
134.537589,160.559111
134.590617,160.528457
134.654090,160.505363
134.758495,160.485318
134.892593,160.477886
Z" /> 
<path style="fill:#000000; fill-opacity:1.000000; stroke:none;fill-rule:evenodd;"
d="M 134.133120,160.329142
134.158080,160.324131
134.171766,160.310815
134.176809,160.287102
134.176809,160.081663
134.171613,160.055889
134.157786,160.041732
134.133120,160.036509
133.893518,160.036509
133.875424,160.039892
133.863476,160.049240
133.853584,160.081663
133.853584,160.287102
133.858370,160.311171
133.871042,160.324316
133.893518,160.329142
Z" /> 
<path style="fill:#000000; fill-opacity:1.000000; stroke:none;fill-rule:evenodd;"
d="M 134.169390,162.120205
134.169390,160.495105
133.857889,160.495105
133.857889,161.613432
133.862858,161.746116
133.878039,161.883717
133.902904,162.016566
133.933085,162.120205
Z" /> 
<path style="fill:#000000; fill-opacity:1.000000; stroke:none;fill-rule:evenodd;"
d="M 133.279631,160.484429
133.376418,160.502061
133.450767,160.528353
133.515494,160.569621
133.567013,160.627393
133.606288,160.704665
133.630356,160.790195
133.646928,160.906070
133.653183,161.059672
133.646629,161.209229
133.629175,161.323172
133.603632,161.408360
133.562610,161.484943
133.509220,161.542425
133.442340,161.583573
133.366086,161.609722
133.268293,161.627151
133.144211,161.633582
133.014825,161.629278
132.912486,161.617645
132.732051,161.584123
132.732051,161.401582
133.061688,161.401582
133.169596,161.395136
133.236169,161.379417
133.286986,161.349293
133.317868,161.305869
133.334939,161.249800
133.344704,161.169124
133.059673,161.169124
132.952625,161.161674
132.866690,161.141188
132.815553,161.117803
132.773884,161.086547
132.740386,161.047033
132.716724,161.000810
132.701322,160.941911
132.695807,160.868705
132.970280,160.868705
132.978675,160.926182
132.999681,160.958098
133.034418,160.976074
133.091913,160.983194
133.347818,160.983194
133.342497,160.878482
133.329317,160.811094
133.303760,160.757736
133.268500,160.726098
133.221749,160.708839
133.155202,160.702284
133.092039,160.706680
133.047949,160.718038
133.012664,160.739192
132.988873,160.770336
132.975449,160.810489
132.970280,160.868705
132.695807,160.868705
132.695690,160.867148
132.701601,160.765146
132.717408,160.687481
132.740844,160.629194
132.776608,160.578991
132.824423,160.539901
132.886474,160.511225
132.995704,160.487276
133.155202,160.477886
Z" /> 
<path style="fill:#000000; fill-opacity:1.000000; stroke:none;fill-rule:evenodd;"
d="M 132.053270,161.635139
132.153328,161.628137
132.242772,161.607937
132.323933,161.571421
132.393165,161.516712
132.430772,161.471003
132.463660,161.413424
132.491442,161.341864
132.516687,161.223621
132.526246,161.063886
132.517353,160.898753
132.494006,160.777572
132.467846,160.703948
132.436480,160.644998
132.400400,160.598420
132.356545,160.559209
132.306320,160.528399
132.248817,160.505730
132.154999,160.485599
132.044111,160.478435
131.943556,160.481393
131.848381,160.490068
131.753452,160.505441
131.651368,160.529452
131.651368,160.708970
131.947299,160.708970
132.038826,160.716904
132.103096,160.737638
132.137623,160.761112
132.165946,160.795253
132.188275,160.842418
132.207086,160.926991
132.214745,161.061504
132.207015,161.194615
132.188184,161.276652
132.165817,161.321632
132.137423,161.353613
132.102638,161.374929
132.038122,161.393001
131.944277,161.400025
131.636073,161.400025
131.636073,161.576429
131.756973,161.606288
131.903427,161.627629
Z" /> 
<path style="fill:#000000; fill-opacity:1.000000; stroke:none;fill-rule:evenodd;"
d="M 131.034228,161.622500
131.120645,161.617719
131.190028,161.604639
131.245345,161.584764
131.294057,161.554208
131.332620,161.512843
131.361941,161.459009
131.380179,161.399082
131.391666,161.321295
131.394456,161.221605
131.384106,160.744050
131.560144,160.744050
131.560144,160.544564
131.372932,160.495105
131.331624,160.179116
131.086068,160.179116
131.086068,160.495105
130.819996,160.495105
130.819996,160.744050
131.086068,160.744050
131.086068,161.220048
131.077367,161.294970
131.066452,161.322278
131.052729,161.342139
131.016184,161.367968
130.973228,161.378226
130.831170,161.392331
130.831170,161.622500
Z" /> 
<path style="fill:#000000; fill-opacity:1.000000; stroke:none;fill-rule:evenodd;"
d="M 130.237386,161.635139
130.351508,161.631750
130.473599,161.622500
130.586256,161.606746
130.673451,161.584123
130.673451,161.401582
130.174371,161.401582
130.102197,161.394071
130.076706,161.383107
130.059790,161.366686
130.049792,161.344114
130.045960,161.310449
130.045960,161.274087
130.053102,161.236216
130.073438,161.208874
130.107614,161.192453
130.173821,161.185427
130.350501,161.185427
130.444135,161.177910
130.524890,161.156484
130.573339,161.132744
130.613966,161.100911
130.647714,161.060405
130.671714,161.013447
130.687283,160.954055
130.692960,160.879146
130.692960,160.813750
130.687941,160.743113
130.673828,160.683596
130.651560,160.633316
130.618979,160.590026
130.573053,160.553106
130.510968,160.522491
130.443550,160.502910
130.354818,160.489623
130.239950,160.484664
130.091206,160.491899
129.942371,160.510676
129.831179,160.536138
129.831179,160.718679
130.302965,160.718679
130.359906,160.724419
130.396021,160.738920
130.418875,160.765776
130.427620,160.813750
130.427620,160.848463
130.423478,160.881608
130.412691,160.903235
130.394499,160.918473
130.366621,160.928697
130.290508,160.935383
130.109341,160.935383
130.021818,160.941330
129.953226,160.957508
129.899855,160.982105
129.858748,161.014335
129.816476,161.071424
129.790027,161.142836
129.780529,161.232688
129.780529,161.333530
129.787101,161.407398
129.805267,161.466223
129.833744,161.513140
129.873074,161.551803
129.923898,161.583235
129.988533,161.607204
130.096036,161.627522
Z" /> 
<path style="fill:#000000; fill-opacity:1.000000; stroke:none;fill-rule:evenodd;"
d="M 129.716141,161.773716
129.126020,160.005459
128.809756,160.005459
129.399877,161.773716
Z" /> 
<path style="fill:#000000; fill-opacity:1.000000; stroke:none;fill-rule:evenodd;"
d="M 128.744268,161.622500
128.744268,160.495105
128.503292,160.495105
128.432767,160.667296
128.367855,160.595274
128.295380,160.534764
128.241739,160.504396
128.181385,160.485863
128.112656,160.479443
128.066860,160.481824
128.020790,160.490525
128.020790,160.809629
128.087652,160.802759
128.152590,160.800103
128.212077,160.803624
128.263140,160.813567
128.310696,160.830257
128.353998,160.853226
128.393899,160.882634
128.432767,160.920454
128.432767,161.622500
Z" /> 
<path style="fill:#000000; fill-opacity:1.000000; stroke:none;fill-rule:evenodd;"
d="M 127.416564,161.635139
127.516622,161.628137
127.606066,161.607937
127.687227,161.571421
127.756458,161.516712
127.794066,161.471003
127.826954,161.413424
127.854736,161.341864
127.879980,161.223621
127.889540,161.063886
127.880646,160.898753
127.857300,160.777572
127.831140,160.703948
127.799774,160.644998
127.763694,160.598420
127.719838,160.559209
127.669614,160.528399
127.612111,160.505730
127.518293,160.485599
127.407405,160.478435
127.306850,160.481393
127.211675,160.490068
127.116746,160.505441
127.014662,160.529452
127.014662,160.708970
127.310593,160.708970
127.402119,160.716904
127.466389,160.737638
127.500917,160.761112
127.529240,160.795253
127.551569,160.842418
127.570380,160.926991
127.578039,161.061504
127.570309,161.194615
127.551478,161.276652
127.529110,161.321632
127.500716,161.353613
127.465931,161.374929
127.401416,161.393001
127.307570,161.400025
126.999367,161.400025
126.999367,161.576429
127.120267,161.606288
127.266721,161.627629
Z" /> 
<path style="fill:#000000; fill-opacity:1.000000; stroke:none;fill-rule:evenodd;"
d="M 126.827450,161.622500
126.566507,161.622500
126.515949,161.515063
126.426281,161.574414
126.376989,161.598822
126.320585,161.618469
126.259827,161.630757
126.187870,161.635139
126.101640,161.627650
126.030140,161.606605
125.970524,161.573132
125.920286,161.526648
125.878120,161.465070
125.844220,161.385370
125.822524,161.300467
125.808269,161.196517
125.803096,161.070205
125.803656,161.054818
126.114505,161.054818
126.121587,161.174116
126.139326,161.252472
126.170182,161.315654
126.206463,161.352672
126.251627,161.374226
126.304557,161.381615
126.370701,161.377027
126.424816,161.364304
126.515949,161.326386
126.515949,160.791219
126.420694,160.747896
126.365056,160.733350
126.304557,160.728387
126.255779,160.733817
126.210859,160.749911
126.173592,160.780796
126.140975,160.840312
126.122356,160.918962
126.114505,161.054818
125.803656,161.054818
125.808251,160.928504
125.822200,160.816280
125.842938,160.728662
125.876540,160.646543
125.919145,160.584279
125.970524,160.538336
126.031811,160.506103
126.108136,160.485386
126.203165,160.477886
126.280124,160.485005
126.364640,160.507561
126.446714,160.539601
126.515949,160.573324
126.515949,160.020205
126.827450,160.020205
Z" /> 
<path style="fill:#000000; fill-opacity:1.000000; stroke:none;fill-rule:evenodd;"
d="M 125.279469,161.635139
125.354795,161.628964
125.418135,161.611541
125.471682,161.583798
125.517057,161.545655
125.562861,161.480991
125.591896,161.398554
125.602420,161.293230
125.602420,160.495105
125.291010,160.495105
125.291010,161.199532
125.284974,161.261214
125.269519,161.301720
125.246771,161.327301
125.197174,161.351212
125.127154,161.360091
125.069081,161.354707
125.006894,161.337834
124.947502,161.311539
124.896527,161.278667
124.896527,160.495105
124.585118,160.495105
124.585118,161.622500
124.841756,161.622500
124.896527,161.507644
124.976815,161.553706
125.071466,161.596213
125.172202,161.625323
Z" /> 
<path style="fill:#000000; fill-opacity:1.000000; stroke:none;fill-rule:evenodd;"
d="M 123.940316,161.635139
124.054439,161.631750
124.176530,161.622500
124.289187,161.606746
124.376382,161.584123
124.376382,161.401582
123.877302,161.401582
123.805128,161.394071
123.779637,161.383107
123.762721,161.366686
123.752723,161.344114
123.748891,161.310449
123.748891,161.274087
123.756033,161.236216
123.776368,161.208874
123.810545,161.192453
123.876752,161.185427
124.053431,161.185427
124.147066,161.177910
124.227821,161.156484
124.276270,161.132744
124.316897,161.100911
124.350644,161.060405
124.374645,161.013447
124.390214,160.954055
124.395890,160.879146
124.395890,160.813750
124.390872,160.743113
124.376759,160.683596
124.354491,160.633316
124.321910,160.590026
124.275983,160.553106
124.213899,160.522491
124.146481,160.502910
124.057749,160.489623
123.942881,160.484664
123.794137,160.491899
123.645302,160.510676
123.534110,160.536138
123.534110,160.718679
124.005896,160.718679
124.062837,160.724419
124.098952,160.738920
124.121806,160.765776
124.130551,160.813750
124.130551,160.848463
124.126408,160.881608
124.115622,160.903235
124.097430,160.918473
124.069551,160.928697
123.993439,160.935383
123.812272,160.935383
123.724748,160.941330
123.656157,160.957508
123.602785,160.982105
123.561679,161.014335
123.519407,161.071424
123.492958,161.142836
123.483460,161.232688
123.483460,161.333530
123.490032,161.407398
123.508198,161.466223
123.536675,161.513140
123.576005,161.551803
123.626829,161.583235
123.691464,161.607204
123.798966,161.627522
Z" /> 
<path style="fill:#000000; fill-opacity:1.000000; stroke:none;fill-rule:evenodd;"
d="M 123.364209,161.138532
123.364209,160.888489
122.721789,160.888489
122.721789,161.138532
Z" /> 
<path style="fill:#000000; fill-opacity:1.000000; stroke:none;fill-rule:evenodd;"
d="M 122.205462,160.484886
122.309446,160.503806
122.372677,160.525957
122.425876,160.556080
122.470463,160.594115
122.506755,160.640201
122.537271,160.698385
122.561505,160.770977
122.582427,160.890931
122.590447,161.056192
122.582737,161.213260
122.562329,161.331057
122.538668,161.402828
122.508420,161.461454
122.472020,161.508927
122.427361,161.548560
122.374134,161.580465
122.311003,161.604639
122.206699,161.625761
122.072775,161.633582
121.935914,161.626131
121.831157,161.606196
121.767798,161.582994
121.714795,161.552075
121.670690,161.513506
121.634823,161.467005
121.604949,161.408729
121.581572,161.336461
121.561536,161.217415
121.553911,161.056192
121.553988,161.054635
121.865321,161.054635
121.868788,161.159952
121.877594,161.232047
121.894193,161.293443
121.914688,161.331515
121.943138,161.358702
121.978527,161.374471
122.019643,161.381880
122.072775,161.384637
122.125722,161.381879
122.166655,161.374471
122.201812,161.358720
122.230220,161.331515
122.250608,161.293449
122.267039,161.232047
122.275582,161.159949
122.278946,161.054635
122.275568,160.949050
122.267039,160.877773
122.250628,160.817313
122.230220,160.779678
122.201834,160.752694
122.166655,160.736997
122.125722,160.729589
122.072775,160.726830
122.019643,160.729588
121.978527,160.736997
121.943117,160.752712
121.914688,160.779678
121.894173,160.817319
121.877594,160.877773
121.868803,160.949047
121.865321,161.054635
121.553988,161.054635
121.561971,160.893685
121.583129,160.774091
121.607460,160.701431
121.637827,160.643251
121.673712,160.597229
121.717770,160.559111
121.770799,160.528457
121.834271,160.505363
121.938676,160.485318
122.072775,160.477886
Z" /> 
<path style="fill:#000000; fill-opacity:1.000000; stroke:none;fill-rule:evenodd;"
d="M 120.787773,160.482406
120.845637,160.495655
120.900366,160.516207
120.949960,160.541816
121.038070,160.602541
121.088629,160.495105
121.349572,160.495105
121.349572,162.120205
121.038070,162.120205
121.038070,161.564248
120.967498,161.595131
120.887678,161.618836
120.805234,161.633399
120.725287,161.638162
120.625245,161.629556
120.546711,161.605946
120.485135,161.569285
120.434162,161.518346
120.392976,161.453114
120.361762,161.370807
120.335087,161.234329
120.325217,161.059672
120.636627,161.059672
120.644329,161.181226
120.663371,161.258425
120.696023,161.319576
120.733530,161.354779
120.778673,161.374949
120.826678,161.381615
120.883179,161.377840
120.939885,161.366411
120.993730,161.348338
121.038070,161.326386
121.038070,160.791219
120.945472,160.748812
120.888850,160.733639
120.825121,160.728387
120.772988,160.735948
120.728035,160.758155
120.692001,160.795987
120.661265,160.860828
120.643613,160.940631
120.636627,161.059672
120.325217,161.059672
120.331272,160.928244
120.348206,160.816773
120.378586,160.714595
120.420014,160.633316
120.476022,160.566343
120.545036,160.517820
120.625982,160.488357
120.725287,160.477886
Z" /> 
<path style="fill:#000000; fill-opacity:1.000000; stroke:none;fill-rule:evenodd;"
d="M 119.767702,161.627079
119.846494,161.622278
119.911691,161.608934
119.965539,161.588244
120.013541,161.557594
120.052367,161.517903
120.082867,161.468077
120.103292,161.412534
120.116656,161.343548
120.121519,161.258333
120.121519,160.020205
119.810017,160.020205
119.810017,161.212355
119.806309,161.272455
119.796920,161.312830
119.779990,161.345540
119.757719,161.366686
119.729380,161.380646
119.693147,161.389950
119.606410,161.401582
119.606410,161.627079
Z" /> 
<path style="fill:#000000; fill-opacity:1.000000; stroke:none;fill-rule:evenodd;"
d="M 118.909769,161.635139
119.075331,161.632159
119.229330,161.623507
119.377793,161.608943
119.504561,161.590259
119.504561,161.341681
119.027555,161.341681
118.946025,161.338174
118.886962,161.329042
118.837183,161.310730
118.805263,161.284803
118.786082,161.248618
118.778885,161.195319
118.778885,161.130564
118.786210,161.078899
118.806271,161.041721
118.837733,161.013553
118.879544,160.993544
118.927126,160.981811
118.982950,160.976233
119.365709,160.960021
119.365709,160.721793
118.996689,160.701460
118.907257,160.688738
118.849135,160.666472
118.820908,160.642852
118.803658,160.610276
118.797386,160.565630
118.797386,160.512874
118.804092,160.460808
118.822704,160.421096
118.852982,160.390691
118.892426,160.370521
118.951838,160.356306
119.038271,160.350758
119.471130,160.350758
119.471130,160.102179
119.210004,160.068199
119.067082,160.057441
118.913524,160.055834
118.823556,160.062033
118.747276,160.077548
118.682623,160.101263
118.623748,160.135596
118.576124,160.178322
118.538458,160.230040
118.511802,160.288597
118.494970,160.357582
118.488999,160.439143
118.488999,160.554914
118.492824,160.613388
118.503562,160.662717
118.521362,160.707638
118.544687,160.745423
118.573715,160.777971
118.606969,160.804408
118.643914,160.825299
118.683997,160.840861
118.641421,160.856818
118.600832,160.881436
118.564305,160.913014
118.531772,160.951595
118.505168,160.995926
118.483962,161.049323
118.470867,161.107332
118.466285,161.173612
118.466285,161.253662
118.474394,161.345338
118.497194,161.421302
118.533504,161.484611
118.583704,161.537411
118.644385,161.578209
118.717274,161.608674
118.804757,161.628163
Z" /> 
<path style="fill:#000000; fill-opacity:1.000000; stroke:none;fill-rule:evenodd;"
d="M 118.336867,161.773716
117.746745,160.005459
117.430481,160.005459
118.020603,161.773716
Z" /> 
<path style="fill:#000000; fill-opacity:1.000000; stroke:none;fill-rule:evenodd;"
d="M 88.343200,158.875139
88.473895,158.866819
88.582527,158.843632
88.648420,158.816817
88.706869,158.778662
88.758840,158.728410
88.800492,158.669023
88.837255,158.590339
88.868108,158.488075
88.887422,158.382735
88.900413,158.248636
88.905203,158.080495
88.900268,157.919611
88.886808,157.789659
88.866643,157.686012
88.834898,157.585383
88.797198,157.506781
88.754444,157.446410
88.701556,157.394986
88.642354,157.355680
88.575933,157.327708
88.466821,157.303023
88.338712,157.294277
88.235601,157.297235
88.142341,157.305726
87.977294,157.333203
87.853371,157.367001
87.853371,157.607885
87.955678,157.592223
88.101491,157.579125
88.273774,157.573905
88.357983,157.579111
88.423067,157.593139
88.478397,157.620859
88.521894,157.666045
88.552551,157.726930
88.576482,157.820285
88.588934,157.928580
88.593793,158.083517
88.589620,158.232646
88.578772,158.340430
88.557155,158.434384
88.528306,158.496502
88.486139,158.543324
88.430578,158.573621
88.363971,158.589500
88.273499,158.595512
88.014205,158.589100
87.853371,158.573713
87.853371,158.814689
87.983339,158.846746
88.145088,158.867537
Z" /> 
<path style="fill:#000000; fill-opacity:1.000000; stroke:none;fill-rule:evenodd;"
d="M 87.134198,158.875139
87.264893,158.866819
87.373525,158.843632
87.439418,158.816817
87.497867,158.778662
87.549838,158.728410
87.591490,158.669023
87.628253,158.590339
87.659106,158.488075
87.678420,158.382735
87.691411,158.248636
87.696201,158.080495
87.691266,157.919611
87.677806,157.789659
87.657641,157.686012
87.625896,157.585383
87.588196,157.506781
87.545442,157.446410
87.492554,157.394986
87.433352,157.355680
87.366931,157.327708
87.257819,157.303023
87.129710,157.294277
87.026599,157.297235
86.933339,157.305726
86.768292,157.333203
86.644369,157.367001
86.644369,157.607885
86.746676,157.592223
86.892489,157.579125
87.064772,157.573905
87.148981,157.579111
87.214065,157.593139
87.269395,157.620859
87.312892,157.666045
87.343549,157.726930
87.367480,157.820285
87.379932,157.928580
87.384791,158.083517
87.380618,158.232646
87.369770,158.340430
87.348153,158.434384
87.319303,158.496502
87.277137,158.543324
87.221576,158.573621
87.154969,158.589500
87.064497,158.595512
86.805203,158.589100
86.644369,158.573713
86.644369,158.814689
86.774337,158.846746
86.936086,158.867537
Z" /> 
<path style="fill:#000000; fill-opacity:1.000000; stroke:none;fill-rule:evenodd;"
d="M 85.886544,158.862500
85.247788,158.862500
85.147968,158.857420
85.063791,158.843228
84.992982,158.821192
84.928391,158.787350
84.876174,158.742559
84.834804,158.685912
84.806463,158.620979
84.787859,158.538432
84.781040,158.434128
84.784957,158.379265
85.077154,158.379265
85.083278,158.448584
85.099319,158.497418
85.126254,158.536346
85.161326,158.562447
85.203836,158.577475
85.257039,158.582872
85.575135,158.582872
85.575135,158.187931
85.257039,158.187931
85.205968,158.193915
85.163341,158.211012
85.127610,158.238723
85.100143,158.276591
85.083220,158.322152
85.077154,158.379265
84.784957,158.379265
84.786994,158.350732
84.803572,158.281995
84.830506,158.220128
84.864296,158.169796
84.905424,158.127569
84.950300,158.095791
84.998904,158.071754
85.047570,158.055307
84.985011,158.031205
84.932532,157.993300
84.890431,157.942889
84.858068,157.878537
84.838584,157.805357
84.835810,157.770001
85.127712,157.770001
85.138887,157.844194
85.167646,157.899786
85.196503,157.927481
85.231282,157.944016
85.273892,157.949795
85.575135,157.949795
85.575135,157.588010
85.277830,157.588010
85.219148,157.598044
85.170485,157.627577
85.147818,157.657284
85.132766,157.702683
85.127712,157.770001
84.835810,157.770001
84.831598,157.716329
84.839084,157.618894
84.860046,157.538006
84.893073,157.470678
84.937936,157.414628
84.993724,157.371172
85.065734,157.338073
85.157816,157.316351
85.274808,157.308382
85.886544,157.308382
Z" /> 
<path style="fill:#000000; fill-opacity:1.000000; stroke:none;fill-rule:evenodd;"
d="M 84.201543,158.862500
84.201543,158.391721
84.668841,157.308382
84.345525,157.308382
84.039702,158.074725
83.733788,157.308382
83.422836,157.308382
83.890042,158.391721
83.890042,158.862500
Z" /> 
<path style="fill:#000000; fill-opacity:1.000000; stroke:none;fill-rule:evenodd;"
d="M 83.424851,158.378532
83.424851,158.128489
82.782431,158.128489
82.782431,158.378532
Z" /> 
<path style="fill:#000000; fill-opacity:1.000000; stroke:none;fill-rule:evenodd;"
d="M 82.133509,158.875139
82.258805,158.871475
82.389323,158.860576
82.513886,158.844456
82.621872,158.823207
82.621872,158.577743
82.478258,158.587360
82.312203,158.593405
82.148896,158.595512
82.072154,158.591858
82.011418,158.581956
81.958491,158.562448
81.921475,158.534237
81.898168,158.494895
81.889602,158.438158
81.889602,158.381372
81.894679,158.336624
81.908724,158.302006
81.931184,158.275126
81.978760,158.248584
82.047413,158.238764
82.180678,158.238764
82.293420,158.231628
82.385665,158.211871
82.460934,158.181340
82.522130,158.140945
82.570801,158.088202
82.607624,158.018410
82.631816,157.927294
82.640740,157.809202
82.640740,157.732540
82.631383,157.620079
82.605541,157.530194
82.565235,157.458348
82.510589,157.401256
82.443586,157.357702
82.361428,157.324792
82.261025,157.303513
82.138638,157.295834
81.966630,157.304169
81.803140,157.324411
81.668409,157.349415
81.668409,157.594879
81.882366,157.581232
82.101818,157.575462
82.172383,157.579123
82.229954,157.589200
82.279762,157.609419
82.314951,157.640308
82.336427,157.683114
82.344626,157.747928
82.344626,157.789235
82.338673,157.842022
82.322680,157.880072
82.297732,157.907205
82.264555,157.925796
82.220300,157.938082
82.161810,157.942650
82.007479,157.942650
81.915523,157.949038
81.839415,157.966847
81.776395,157.994674
81.719974,158.033952
81.674593,158.081008
81.639192,158.136549
81.614204,158.197953
81.598811,158.265849
81.593488,158.341438
81.593488,158.430464
81.602324,158.550378
81.626038,158.641093
81.661723,158.708993
81.712659,158.766159
81.775078,158.809717
81.850950,158.840334
81.977502,158.865863
Z" /> 
<path style="fill:#000000; fill-opacity:1.000000; stroke:none;fill-rule:evenodd;"
d="M 81.464986,158.862500
81.144783,158.862500
81.047697,158.537351
80.518483,158.537351
80.419382,158.862500
80.096065,158.862500
80.286358,158.257724
80.592672,158.257724
80.974699,158.257724
80.783548,157.575370
80.592672,158.257724
80.286358,158.257724
80.585070,157.308382
80.975981,157.308382
Z" /> 
<path style="fill:#000000; fill-opacity:1.000000; stroke:none;fill-rule:evenodd;"
d="M 88.881114,161.382500
88.881114,159.781762
88.569613,159.781762
88.569613,160.369960
88.503152,160.323743
88.411344,160.278003
88.311731,160.246567
88.211217,160.236237
88.126947,160.242558
88.060070,160.259896
88.007152,160.286612
87.961469,160.324391
87.925099,160.370894
87.897518,160.427388
87.872687,160.522014
87.863812,160.636215
87.863812,161.382500
88.175222,161.382500
88.175222,160.676149
88.180783,160.625791
88.196105,160.587031
88.220794,160.555639
88.252800,160.533542
88.290633,160.520461
88.335598,160.515865
88.421419,160.527039
88.499180,160.556806
88.569613,160.599030
88.569613,161.382500
Z" /> 
<path style="fill:#000000; fill-opacity:1.000000; stroke:none;fill-rule:evenodd;"
d="M 87.202616,161.382500
87.289033,161.377719
87.358416,161.364639
87.413734,161.344764
87.462446,161.314208
87.501009,161.272843
87.530329,161.219009
87.548568,161.159082
87.560054,161.081295
87.562844,160.981605
87.552494,160.504050
87.728532,160.504050
87.728532,160.304564
87.541320,160.255105
87.500013,159.939116
87.254457,159.939116
87.254457,160.255105
86.988385,160.255105
86.988385,160.504050
87.254457,160.504050
87.254457,160.980048
87.245756,161.054970
87.234840,161.082278
87.221118,161.102139
87.184573,161.127968
87.141617,161.138226
86.999559,161.152331
86.999559,161.382500
Z" /> 
<path style="fill:#000000; fill-opacity:1.000000; stroke:none;fill-rule:evenodd;"
d="M 86.386357,161.382500
86.472774,161.377719
86.542157,161.364639
86.597474,161.344764
86.646186,161.314208
86.684749,161.272843
86.714070,161.219009
86.732308,161.159082
86.743795,161.081295
86.746584,160.981605
86.736235,160.504050
86.912273,160.504050
86.912273,160.304564
86.725061,160.255105
86.683753,159.939116
86.438197,159.939116
86.438197,160.255105
86.172125,160.255105
86.172125,160.504050
86.438197,160.504050
86.438197,160.980048
86.429496,161.054970
86.418580,161.082278
86.404858,161.102139
86.368313,161.127968
86.325357,161.138226
86.183299,161.152331
86.183299,161.382500
Z" /> 
<path style="fill:#000000; fill-opacity:1.000000; stroke:none;fill-rule:evenodd;"
d="M 85.438227,160.242406
85.496092,160.255655
85.550820,160.276207
85.600414,160.301816
85.688524,160.362541
85.739083,160.255105
86.000026,160.255105
86.000026,161.880205
85.688524,161.880205
85.688524,161.324248
85.617952,161.355131
85.538132,161.378836
85.455688,161.393399
85.375741,161.398162
85.275700,161.389556
85.197165,161.365946
85.135589,161.329285
85.084616,161.278346
85.043430,161.213114
85.012216,161.130807
84.985541,160.994329
84.975671,160.819672
85.287081,160.819672
85.294783,160.941226
85.313825,161.018425
85.346477,161.079576
85.383984,161.114779
85.429127,161.134949
85.477132,161.141615
85.533633,161.137840
85.590339,161.126411
85.644184,161.108338
85.688524,161.086386
85.688524,160.551219
85.595926,160.508812
85.539304,160.493639
85.475575,160.488387
85.423442,160.495948
85.378489,160.518155
85.342455,160.555987
85.311719,160.620828
85.294067,160.700631
85.287081,160.819672
84.975671,160.819672
84.981726,160.688244
84.998661,160.576773
85.029040,160.474595
85.070468,160.393316
85.126476,160.326343
85.195490,160.277820
85.276436,160.248357
85.375741,160.237886
Z" /> 
<path style="fill:#000000; fill-opacity:1.000000; stroke:none;fill-rule:evenodd;"
d="M 84.361461,161.395139
84.475584,161.391750
84.597675,161.382500
84.710332,161.366746
84.797527,161.344123
84.797527,161.161582
84.298447,161.161582
84.226273,161.154071
84.200782,161.143107
84.183866,161.126686
84.173868,161.104114
84.170036,161.070449
84.170036,161.034087
84.177178,160.996216
84.197513,160.968874
84.231690,160.952453
84.297897,160.945427
84.474576,160.945427
84.568210,160.937910
84.648966,160.916484
84.697415,160.892744
84.738042,160.860911
84.771789,160.820405
84.795790,160.773447
84.811359,160.714055
84.817035,160.639146
84.817035,160.573750
84.812017,160.503113
84.797904,160.443596
84.775636,160.393316
84.743055,160.350026
84.697128,160.313106
84.635044,160.282491
84.567626,160.262910
84.478894,160.249623
84.364026,160.244664
84.215282,160.251899
84.066447,160.270676
83.955255,160.296138
83.955255,160.478679
84.427041,160.478679
84.483982,160.484419
84.520097,160.498920
84.542951,160.525776
84.551696,160.573750
84.551696,160.608463
84.547553,160.641608
84.536767,160.663235
84.518575,160.678473
84.490696,160.688697
84.414584,160.695383
84.233417,160.695383
84.145893,160.701330
84.077302,160.717508
84.023930,160.742105
83.982824,160.774335
83.940552,160.831424
83.914103,160.902836
83.904605,160.992688
83.904605,161.093530
83.911177,161.167398
83.929343,161.226223
83.957820,161.273140
83.997150,161.311803
84.047974,161.343235
84.112609,161.367204
84.220111,161.387522
Z" /> 
<path style="fill:#000000; fill-opacity:1.000000; stroke:none;fill-rule:evenodd;"
d="M 83.675078,161.385614
83.699969,161.380600
83.713634,161.367263
83.718675,161.343482
83.718675,161.128792
83.713486,161.103009
83.699683,161.088857
83.675078,161.083638
83.495376,161.083638
83.469682,161.088939
83.455434,161.103167
83.450130,161.128792
83.450130,161.343482
83.453658,161.364213
83.462862,161.376271
83.495376,161.385614
Z" /> 
<path style="fill:#000000; fill-opacity:1.000000; stroke:none;fill-rule:evenodd;"
d="M 83.675078,160.553234
83.699969,160.548220
83.713634,160.534884
83.718675,160.511102
83.718675,160.296413
83.713486,160.270629
83.699683,160.256477
83.675078,160.251258
83.495376,160.251258
83.469682,160.256560
83.455434,160.270787
83.450130,160.296413
83.450130,160.511102
83.453658,160.531834
83.462862,160.543892
83.495376,160.553234
Z" /> 
<path style="fill:#000000; fill-opacity:1.000000; stroke:none;fill-rule:evenodd;"
d="M 83.350754,161.533716
82.760633,159.765459
82.444369,159.765459
83.034490,161.533716
Z" /> 
<path style="fill:#000000; fill-opacity:1.000000; stroke:none;fill-rule:evenodd;"
d="M 82.675178,161.533716
82.085057,159.765459
81.768793,159.765459
82.358914,161.533716
Z" /> 
<path style="fill:#000000; fill-opacity:1.000000; stroke:none;fill-rule:evenodd;"
d="M 81.326683,161.395139
81.426741,161.388137
81.516185,161.367937
81.597346,161.331421
81.666577,161.276712
81.704185,161.231003
81.737073,161.173424
81.764855,161.101864
81.790099,160.983621
81.799659,160.823886
81.790766,160.658753
81.767419,160.537572
81.741259,160.463948
81.709893,160.404998
81.673813,160.358420
81.629958,160.319209
81.579733,160.288399
81.522230,160.265730
81.428412,160.245599
81.317524,160.238435
81.216969,160.241393
81.121794,160.250068
81.026865,160.265441
80.924781,160.289452
80.924781,160.468970
81.220712,160.468970
81.312239,160.476904
81.376509,160.497638
81.411036,160.521112
81.439359,160.555253
81.461688,160.602418
81.480499,160.686991
81.488158,160.821504
81.480428,160.954615
81.461597,161.036652
81.439230,161.081632
81.410836,161.113613
81.376051,161.134929
81.311535,161.153001
81.217690,161.160025
80.909486,161.160025
80.909486,161.336429
81.030386,161.366288
81.176840,161.387629
Z" /> 
<path style="fill:#000000; fill-opacity:1.000000; stroke:none;fill-rule:evenodd;"
d="M 80.737569,161.382500
80.737569,160.255105
80.496593,160.255105
80.426068,160.427296
80.361156,160.355274
80.288681,160.294764
80.235041,160.264396
80.174686,160.245863
80.105957,160.239443
80.060162,160.241824
80.014091,160.250525
80.014091,160.569629
80.080953,160.562759
80.145891,160.560103
80.205379,160.563624
80.256441,160.573567
80.303997,160.590257
80.347300,160.613226
80.387200,160.642634
80.426068,160.680454
80.426068,161.382500
Z" /> 
<path style="fill:#000000; fill-opacity:1.000000; stroke:none;fill-rule:evenodd;"
d="M 79.509290,160.244429
79.606076,160.262061
79.680425,160.288353
79.745153,160.329621
79.796672,160.387393
79.835947,160.464665
79.860014,160.550195
79.876587,160.666070
79.882841,160.819672
79.876287,160.969229
79.858834,161.083172
79.833291,161.168360
79.792269,161.244943
79.738879,161.302425
79.671999,161.343573
79.595744,161.369722
79.497952,161.387151
79.373870,161.393582
79.244484,161.389278
79.142144,161.377645
78.961710,161.344123
78.961710,161.161582
79.291346,161.161582
79.399255,161.155136
79.465827,161.139417
79.516645,161.109293
79.547527,161.065869
79.564597,161.009800
79.574363,160.929124
79.289331,160.929124
79.182284,160.921674
79.096349,160.901188
79.045212,160.877803
79.003543,160.846547
78.970045,160.807033
78.946383,160.760810
78.930981,160.701911
78.925465,160.628705
79.199938,160.628705
79.208334,160.686182
79.229339,160.718098
79.264077,160.736074
79.321571,160.743194
79.577477,160.743194
79.572155,160.638482
79.558975,160.571094
79.533418,160.517736
79.498159,160.486098
79.451408,160.468839
79.384861,160.462284
79.321697,160.466680
79.277608,160.478038
79.242322,160.499192
79.218531,160.530336
79.205108,160.570489
79.199938,160.628705
78.925465,160.628705
78.925348,160.627148
78.931260,160.525146
78.947067,160.447481
78.970503,160.389194
79.006267,160.338991
79.054082,160.299901
79.116133,160.271225
79.225363,160.247276
79.384861,160.237886
Z" /> 
<path style="fill:#000000; fill-opacity:1.000000; stroke:none;fill-rule:evenodd;"
d="M 78.390289,160.245600
78.503755,160.258860
78.608229,160.279718
78.693715,160.303557
78.693715,160.482984
78.356659,160.482984
78.258278,160.487785
78.199672,160.499287
78.154606,160.521159
78.129422,160.549845
78.115996,160.587073
78.111012,160.637315
78.111012,160.713702
78.398700,160.713702
78.496172,160.719961
78.573192,160.737027
78.633626,160.762977
78.680617,160.796866
78.730799,160.857250
78.760693,160.926736
78.771017,161.008258
78.771017,161.110199
78.761379,161.195357
78.734319,161.263726
78.690509,161.319118
78.632766,161.360721
78.564420,161.386190
78.482506,161.395139
78.413578,161.391479
78.349149,161.380759
78.287654,161.364021
78.234202,161.343940
78.147099,161.300159
78.095625,161.263431
78.045067,161.382500
77.799511,161.382500
77.799511,161.123938
78.111012,161.123938
78.131345,161.132181
78.171371,161.146561
78.223120,161.161673
78.277708,161.174221
78.325885,161.178893
78.393021,161.167260
78.420393,161.152250
78.441564,161.129159
78.454751,161.099161
78.459608,161.058267
78.459608,161.012838
78.449527,160.957039
78.420956,160.916484
78.374943,160.889689
78.299232,160.874077
78.111012,160.860980
78.111012,161.123938
77.799511,161.123938
77.799511,160.615882
77.806188,160.520208
77.824260,160.446151
77.851626,160.389286
77.891208,160.340552
77.941198,160.302201
78.003301,160.273698
78.108587,160.248995
78.243453,160.240267
Z" /> 
<path style="fill:#000000; fill-opacity:1.000000; stroke:none;fill-rule:evenodd;"
d="M 77.137857,161.382500
77.224274,161.377719
77.293657,161.364639
77.348975,161.344764
77.397687,161.314208
77.436250,161.272843
77.465570,161.219009
77.483808,161.159082
77.495295,161.081295
77.498085,160.981605
77.487735,160.504050
77.663773,160.504050
77.663773,160.304564
77.476561,160.255105
77.435253,159.939116
77.189698,159.939116
77.189698,160.255105
76.923626,160.255105
76.923626,160.504050
77.189698,160.504050
77.189698,160.980048
77.180997,161.054970
77.170081,161.082278
77.156359,161.102139
77.119814,161.127968
77.076857,161.138226
76.934800,161.152331
76.934800,161.382500
Z" /> 
<path style="fill:#000000; fill-opacity:1.000000; stroke:none;fill-rule:evenodd;"
d="M 76.713790,160.089142
76.738690,160.084135
76.752351,160.070823
76.757388,160.047102
76.757388,159.841663
76.752198,159.815880
76.738396,159.801728
76.713790,159.796509
76.474097,159.796509
76.456003,159.799892
76.444055,159.809240
76.434163,159.841663
76.434163,160.047102
76.438949,160.071171
76.451621,160.084316
76.474097,160.089142
Z" /> 
<path style="fill:#000000; fill-opacity:1.000000; stroke:none;fill-rule:evenodd;"
d="M 76.751526,161.382500
76.751526,160.255105
76.440025,160.255105
76.440025,161.382500
Z" /> 
<path style="fill:#000000; fill-opacity:1.000000; stroke:none;fill-rule:evenodd;"
d="M 75.917040,161.382500
76.295036,160.255105
75.974376,160.255105
75.731659,161.094629
75.480425,160.255105
75.162879,160.255105
75.558461,161.382500
Z" /> 
<path style="fill:#000000; fill-opacity:1.000000; stroke:none;fill-rule:evenodd;"
d="M 74.720176,160.244429
74.816962,160.262061
74.891311,160.288353
74.956039,160.329621
75.007558,160.387393
75.046833,160.464665
75.070900,160.550195
75.087473,160.666070
75.093728,160.819672
75.087174,160.969229
75.069720,161.083172
75.044177,161.168360
75.003155,161.244943
74.949765,161.302425
74.882885,161.343573
74.806631,161.369722
74.708838,161.387151
74.584756,161.393582
74.455370,161.389278
74.353031,161.377645
74.172596,161.344123
74.172596,161.161582
74.502233,161.161582
74.610141,161.155136
74.676714,161.139417
74.727531,161.109293
74.758413,161.065869
74.775484,161.009800
74.785249,160.929124
74.500218,160.929124
74.393170,160.921674
74.307235,160.901188
74.256098,160.877803
74.214429,160.846547
74.180931,160.807033
74.157269,160.760810
74.141867,160.701911
74.136352,160.628705
74.410825,160.628705
74.419220,160.686182
74.440225,160.718098
74.474963,160.736074
74.532458,160.743194
74.788363,160.743194
74.783042,160.638482
74.769862,160.571094
74.744304,160.517736
74.709045,160.486098
74.662294,160.468839
74.595747,160.462284
74.532584,160.466680
74.488494,160.478038
74.453209,160.499192
74.429418,160.530336
74.415994,160.570489
74.410825,160.628705
74.136352,160.628705
74.136235,160.627148
74.142146,160.525146
74.157953,160.447481
74.181389,160.389194
74.217153,160.338991
74.264968,160.299901
74.327019,160.271225
74.436249,160.247276
74.595747,160.237886
Z" /> 
<path style="fill:#000000; fill-opacity:1.000000; stroke:none;fill-rule:evenodd;"
d="M 73.493815,161.395139
73.593873,161.388137
73.683317,161.367937
73.764478,161.331421
73.833709,161.276712
73.871317,161.231003
73.904205,161.173424
73.931987,161.101864
73.957231,160.983621
73.966791,160.823886
73.957897,160.658753
73.934551,160.537572
73.908391,160.463948
73.877025,160.404998
73.840945,160.358420
73.797089,160.319209
73.746865,160.288399
73.689362,160.265730
73.595544,160.245599
73.484656,160.238435
73.384101,160.241393
73.288926,160.250068
73.193997,160.265441
73.091913,160.289452
73.091913,160.468970
73.387844,160.468970
73.479370,160.476904
73.543640,160.497638
73.578168,160.521112
73.606491,160.555253
73.628820,160.602418
73.647631,160.686991
73.655290,160.821504
73.647560,160.954615
73.628729,161.036652
73.606361,161.081632
73.577968,161.113613
73.543183,161.134929
73.478667,161.153001
73.384822,161.160025
73.076618,161.160025
73.076618,161.336429
73.197518,161.366288
73.343972,161.387629
Z" /> 
<path style="fill:#000000; fill-opacity:1.000000; stroke:none;fill-rule:evenodd;"
d="M 72.553055,160.244886
72.657039,160.263806
72.720270,160.285957
72.773469,160.316080
72.818056,160.354115
72.854348,160.400201
72.884864,160.458385
72.909098,160.530977
72.930020,160.650931
72.938040,160.816192
72.930330,160.973260
72.909922,161.091057
72.886261,161.162828
72.856013,161.221454
72.819613,161.268927
72.774954,161.308560
72.721727,161.340465
72.658596,161.364639
72.554292,161.385761
72.420368,161.393582
72.283507,161.386131
72.178750,161.366196
72.115391,161.342994
72.062388,161.312075
72.018283,161.273506
71.982416,161.227005
71.952542,161.168729
71.929165,161.096461
71.909129,160.977415
71.901504,160.816192
71.901581,160.814635
72.212914,160.814635
72.216381,160.919952
72.225187,160.992047
72.241786,161.053443
72.262281,161.091515
72.290731,161.118702
72.326120,161.134471
72.367236,161.141880
72.420368,161.144637
72.473315,161.141879
72.514248,161.134471
72.549405,161.118720
72.577813,161.091515
72.598201,161.053449
72.614632,160.992047
72.623175,160.919949
72.626539,160.814635
72.623161,160.709050
72.614632,160.637773
72.598221,160.577313
72.577813,160.539678
72.549427,160.512694
72.514248,160.496997
72.473315,160.489589
72.420368,160.486830
72.367236,160.489588
72.326120,160.496997
72.290710,160.512712
72.262281,160.539678
72.241766,160.577319
72.225187,160.637773
72.216396,160.709047
72.212914,160.814635
71.901581,160.814635
71.909564,160.653685
71.930722,160.534091
71.955053,160.461431
71.985420,160.403251
72.021305,160.357229
72.065363,160.319111
72.118392,160.288457
72.181864,160.265363
72.286269,160.245318
72.420368,160.237886
Z" /> 
<path style="fill:#000000; fill-opacity:1.000000; stroke:none;fill-rule:evenodd;"
d="M 71.697165,161.382500
71.697165,160.255105
71.440435,160.255105
71.385663,160.369960
71.308722,160.319238
71.224371,160.275713
71.164818,160.254636
71.093689,160.241089
71.008858,160.236237
70.939663,160.241620
70.881652,160.256764
70.832820,160.280751
70.770312,160.331833
70.725383,160.394598
70.614467,160.322241
70.548454,160.288799
70.476714,160.260967
70.402690,160.242297
70.331175,160.236237
70.241740,160.242725
70.171589,160.260408
70.116852,160.287437
70.069880,160.325996
70.033204,160.373702
70.006210,160.431967
69.982547,160.530132
69.973970,160.651603
69.973970,161.382500
70.285380,161.382500
70.285380,160.679172
70.290774,160.627465
70.305438,160.588588
70.329438,160.557035
70.360942,160.534366
70.398820,160.520756
70.446397,160.515865
70.508878,160.522119
70.573800,160.541510
70.635594,160.570380
70.688838,160.604067
70.682152,160.644184
70.679863,160.685400
70.679863,161.382500
70.991272,161.382500
70.991272,160.679172
70.996666,160.627465
71.011331,160.588588
71.035282,160.557014
71.066560,160.534366
71.104189,160.520762
71.151648,160.515865
71.237744,160.526215
71.314955,160.555249
71.385663,160.599030
71.385663,161.382500
Z" /> 
<path style="fill:#000000; fill-opacity:1.000000; stroke:none;fill-rule:evenodd;"
d="M 69.742245,161.382500
69.742245,160.255105
69.485515,160.255105
69.430744,160.369960
69.353803,160.319238
69.269452,160.275713
69.209899,160.254636
69.138769,160.241089
69.053938,160.236237
68.984743,160.241620
68.926732,160.256764
68.877900,160.280751
68.815392,160.331833
68.770464,160.394598
68.659547,160.322241
68.593535,160.288799
68.521794,160.260967
68.447770,160.242297
68.376256,160.236237
68.286820,160.242725
68.216669,160.260408
68.161933,160.287437
68.114960,160.325996
68.078285,160.373702
68.051290,160.431967
68.027627,160.530132
68.019050,160.651603
68.019050,161.382500
68.330460,161.382500
68.330460,160.679172
68.335854,160.627465
68.350519,160.588588
68.374518,160.557035
68.406023,160.534366
68.443900,160.520756
68.491477,160.515865
68.553958,160.522119
68.618880,160.541510
68.680674,160.570380
68.733919,160.604067
68.727233,160.644184
68.724943,160.685400
68.724943,161.382500
69.036352,161.382500
69.036352,160.679172
69.041746,160.627465
69.056411,160.588588
69.080362,160.557014
69.111640,160.534366
69.149270,160.520762
69.196728,160.515865
69.282824,160.526215
69.360035,160.555249
69.430744,160.599030
69.430744,161.382500
Z" /> 
<path style="fill:#000000; fill-opacity:1.000000; stroke:none;fill-rule:evenodd;"
d="M 67.435679,160.244886
67.539663,160.263806
67.602894,160.285957
67.656093,160.316080
67.700680,160.354115
67.736972,160.400201
67.767488,160.458385
67.791721,160.530977
67.812643,160.650931
67.820664,160.816192
67.812954,160.973260
67.792546,161.091057
67.768885,161.162828
67.738637,161.221454
67.702237,161.268927
67.657577,161.308560
67.604351,161.340465
67.541220,161.364639
67.436916,161.385761
67.302991,161.393582
67.166130,161.386131
67.061374,161.366196
66.998015,161.342994
66.945012,161.312075
66.900907,161.273506
66.865040,161.227005
66.835166,161.168729
66.811789,161.096461
66.791753,160.977415
66.784128,160.816192
66.784205,160.814635
67.095538,160.814635
67.099005,160.919952
67.107811,160.992047
67.124409,161.053443
67.144905,161.091515
67.173355,161.118702
67.208744,161.134471
67.249860,161.141880
67.302991,161.144637
67.355939,161.141879
67.396872,161.134471
67.432029,161.118720
67.460437,161.091515
67.480825,161.053449
67.497256,160.992047
67.505799,160.919949
67.509163,160.814635
67.505785,160.709050
67.497256,160.637773
67.480844,160.577313
67.460437,160.539678
67.432051,160.512694
67.396872,160.496997
67.355939,160.489589
67.302991,160.486830
67.249860,160.489588
67.208744,160.496997
67.173334,160.512712
67.144905,160.539678
67.124389,160.577319
67.107811,160.637773
67.099020,160.709047
67.095538,160.814635
66.784205,160.814635
66.792188,160.653685
66.813346,160.534091
66.837677,160.461431
66.868044,160.403251
66.903929,160.357229
66.947987,160.319111
67.001015,160.288457
67.064488,160.265363
67.168893,160.245318
67.302991,160.237886
Z" /> 
<path style="fill:#000000; fill-opacity:1.000000; stroke:none;fill-rule:evenodd;"
d="M 66.579788,161.382500
66.579788,160.255105
66.323059,160.255105
66.268287,160.369960
66.199459,160.322436
66.109285,160.277270
66.011810,160.246400
65.913005,160.236237
65.822653,160.243156
65.753011,160.261904
65.699690,160.290459
65.654212,160.330676
65.618900,160.378968
65.593169,160.436547
65.570418,160.531470
65.562486,160.639330
65.562486,161.382500
65.873896,161.382500
65.873896,160.679172
65.879290,160.627465
65.893954,160.588588
65.917906,160.557014
65.949184,160.534366
65.986813,160.520762
66.034272,160.515865
66.120368,160.526215
66.197579,160.555249
66.268287,160.599030
66.268287,161.382500
Z" /> 
<path style="fill:#000000; fill-opacity:1.000000; stroke:none;fill-rule:evenodd;"
d="M 64.920708,161.395139
65.034830,161.391750
65.156921,161.382500
65.269578,161.366746
65.356773,161.344123
65.356773,161.161582
64.857693,161.161582
64.785519,161.154071
64.760029,161.143107
64.743113,161.126686
64.733114,161.104114
64.729282,161.070449
64.729282,161.034087
64.736425,160.996216
64.756760,160.968874
64.790937,160.952453
64.857144,160.945427
65.033823,160.945427
65.127457,160.937910
65.208212,160.916484
65.256661,160.892744
65.297288,160.860911
65.331036,160.820405
65.355036,160.773447
65.370605,160.714055
65.376282,160.639146
65.376282,160.573750
65.371263,160.503113
65.357150,160.443596
65.334883,160.393316
65.302301,160.350026
65.256375,160.313106
65.194290,160.282491
65.126873,160.262910
65.038140,160.249623
64.923272,160.244664
64.774528,160.251899
64.625693,160.270676
64.514501,160.296138
64.514501,160.478679
64.986287,160.478679
65.043229,160.484419
65.079344,160.498920
65.102197,160.525776
65.110942,160.573750
65.110942,160.608463
65.106800,160.641608
65.096013,160.663235
65.077822,160.678473
65.049943,160.688697
64.973831,160.695383
64.792663,160.695383
64.705140,160.701330
64.636549,160.717508
64.583177,160.742105
64.542070,160.774335
64.499798,160.831424
64.473349,160.902836
64.463852,160.992688
64.463852,161.093530
64.470423,161.167398
64.488589,161.226223
64.517066,161.273140
64.556396,161.311803
64.607221,161.343235
64.671855,161.367204
64.779358,161.387522
Z" /> 
<path style="fill:#000000; fill-opacity:1.000000; stroke:none;fill-rule:evenodd;"
d="M 64.234324,161.385614
64.259215,161.380600
64.272881,161.367263
64.277922,161.343482
64.277922,161.128792
64.272732,161.103009
64.258930,161.088857
64.234324,161.083638
64.054623,161.083638
64.028928,161.088939
64.014680,161.103167
64.009377,161.128792
64.009377,161.343482
64.012905,161.364213
64.022108,161.376271
64.054623,161.385614
Z" /> 
<path style="fill:#000000; fill-opacity:1.000000; stroke:none;fill-rule:evenodd;"
d="M 63.429119,160.244886
63.533103,160.263806
63.596334,160.285957
63.649533,160.316080
63.694120,160.354115
63.730412,160.400201
63.760928,160.458385
63.785162,160.530977
63.806084,160.650931
63.814105,160.816192
63.806394,160.973260
63.785986,161.091057
63.762326,161.162828
63.732077,161.221454
63.695677,161.268927
63.651018,161.308560
63.597791,161.340465
63.534660,161.364639
63.430356,161.385761
63.296432,161.393582
63.159571,161.386131
63.054815,161.366196
62.991455,161.342994
62.938452,161.312075
62.894347,161.273506
62.858480,161.227005
62.828606,161.168729
62.805229,161.096461
62.785194,160.977415
62.777568,160.816192
62.777645,160.814635
63.088978,160.814635
63.092446,160.919952
63.101251,160.992047
63.117850,161.053443
63.138346,161.091515
63.166795,161.118702
63.202185,161.134471
63.243300,161.141880
63.296432,161.144637
63.349379,161.141879
63.390313,161.134471
63.425470,161.118720
63.453877,161.091515
63.474265,161.053449
63.490696,160.992047
63.499239,160.919949
63.502603,160.814635
63.499225,160.709050
63.490696,160.637773
63.474285,160.577313
63.453877,160.539678
63.425491,160.512694
63.390313,160.496997
63.349379,160.489589
63.296432,160.486830
63.243300,160.489588
63.202185,160.496997
63.166774,160.512712
63.138346,160.539678
63.117830,160.577319
63.101251,160.637773
63.092461,160.709047
63.088978,160.814635
62.777645,160.814635
62.785628,160.653685
62.806786,160.534091
62.831117,160.461431
62.861484,160.403251
62.897370,160.357229
62.941428,160.319111
62.994456,160.288457
63.057929,160.265363
63.162333,160.245318
63.296432,160.237886
Z" /> 
<path style="fill:#000000; fill-opacity:1.000000; stroke:none;fill-rule:evenodd;"
d="M 62.573229,161.382500
62.573229,160.255105
62.332253,160.255105
62.261728,160.427296
62.196816,160.355274
62.124341,160.294764
62.070700,160.264396
62.010345,160.245863
61.941617,160.239443
61.895821,160.241824
61.849751,160.250525
61.849751,160.569629
61.916612,160.562759
61.981550,160.560103
62.041038,160.563624
62.092101,160.573567
62.139657,160.590257
62.182959,160.613226
62.222859,160.642634
62.261728,160.680454
62.261728,161.382500
Z" /> 
<path style="fill:#000000; fill-opacity:1.000000; stroke:none;fill-rule:evenodd;"
d="M 61.335617,160.259054
61.422069,160.272967
61.492546,160.294214
61.557578,160.326626
61.608719,160.367145
61.647976,160.416031
61.675616,160.472577
61.693175,160.540605
61.699450,160.622660
61.695168,160.685907
61.682414,160.746949
61.659807,160.804714
61.625719,160.858690
61.580374,160.905358
61.519474,160.945702
61.575386,160.963863
61.620325,160.989681
61.656127,161.023005
61.682906,161.063594
61.699247,161.110446
61.704945,161.165245
61.695025,161.230141
61.665470,161.287546
61.613721,161.339818
61.588889,161.353819
61.651627,161.388642
61.710716,161.444323
61.739496,161.489132
61.756962,161.539968
61.763014,161.598471
61.763014,161.632360
61.757367,161.688905
61.741139,161.737709
61.714562,161.780371
61.658374,161.832921
61.582305,161.872329
61.495153,161.895432
61.393444,161.903561
61.054924,161.903561
60.943415,161.896409
60.854889,161.876867
60.785055,161.847086
60.730416,161.808123
60.685201,161.757091
60.652630,161.697524
60.632334,161.627730
60.625178,161.545348
60.625178,161.529686
60.920193,161.529686
60.920193,161.562201
60.925658,161.600791
60.941085,161.630897
60.966813,161.654617
61.018627,161.677007
61.091743,161.685391
61.305883,161.685391
61.378691,161.676636
61.426417,161.653884
61.449224,161.630141
61.463132,161.600069
61.468091,161.561652
61.468091,161.537105
61.462828,161.497924
61.448032,161.467313
61.424359,161.442974
61.392070,161.424815
61.354558,161.414199
61.309822,161.410435
61.083317,161.410435
61.028818,161.414404
60.990352,161.424723
60.958704,161.442573
60.937504,161.465298
60.924738,161.493695
60.920193,161.529686
60.625178,161.529686
60.625178,161.515673
60.631223,161.435169
60.647893,161.370515
60.673722,161.318661
60.710347,161.273933
60.756332,161.238019
60.813123,161.210491
60.909400,161.185913
61.032667,161.176878
61.345176,161.176878
61.380880,161.173423
61.412404,161.163414
61.434909,161.144469
61.442720,161.113039
61.433593,161.076033
61.407091,161.052772
61.368403,161.040245
61.315775,161.035553
61.115740,161.035553
61.017457,161.029746
60.939712,161.013945
60.878702,160.990032
60.823555,160.955097
60.780955,160.914135
60.749284,160.866750
60.719195,160.785175
60.708801,160.691262
60.711158,160.648306
60.989528,160.648306
60.993074,160.692466
61.002991,160.728906
61.021647,160.759419
61.051626,160.782761
61.090871,160.796571
61.150636,160.801995
61.270071,160.801995
61.318251,160.797189
61.354490,160.784150
61.381629,160.763893
61.401012,160.736012
61.413874,160.696868
61.418723,160.642718
61.413453,160.586938
61.399692,160.548344
61.379156,160.522276
61.332807,160.497198
61.260454,160.487563
61.143309,160.487563
61.095362,160.491708
61.058679,160.502950
61.028743,160.523158
61.006930,160.553875
60.994341,160.592865
60.989528,160.648306
60.711158,160.648306
60.712337,160.626829
60.721624,160.579521
60.736594,160.537546
60.753497,160.505881
60.792332,160.456789
60.619591,160.425739
60.619591,160.254006
61.230229,160.254006
Z" /> 
<path style="fill:#000000; fill-opacity:1.000000; stroke:none;fill-rule:evenodd;"
d="M 98.950000,159.000000
98.050000,159.000000
98.050000,160.850000
98.950000,160.850000
Z" /> 
<path style="fill:#000000; fill-opacity:1.000000; 
stroke:#000000; stroke-width:0.400000; stroke-opacity:1; 
stroke-linecap:round; stroke-linejoin:round;fill-rule:evenodd;"
d="M 99.100000,158.200000
97.900000,158.200000
97.900000,159.200000
99.100000,159.200000
Z" /> 
<path style="fill:#000000; fill-opacity:1.000000; stroke:none;fill-rule:evenodd;"
d="M 99.300000,159.200000
97.700000,159.200000
97.700000,159.400000
99.300000,159.400000
Z" /> 
</g>
<g style="fill:none; 
stroke:#000000; stroke-width:0.400000; stroke-opacity:1; 
stroke-linecap:round; stroke-linejoin:round;">
<circle cx="98.499360" cy="159.000000" r="2.500000" /> 
</g>
<g style="fill:#000000; fill-opacity:1.000000; stroke:none;">
<circle cx="98.500000" cy="157.410000" r="0.400000" /> 
</g>
<g style="fill:none; 
stroke:#000000; stroke-width:0.400000; stroke-opacity:1; 
stroke-linecap:round; stroke-linejoin:round;">
<circle cx="92.499360" cy="159.000000" r="2.500000" /> 
<path style="fill:#000000; fill-opacity:1.000000; stroke:none;fill-rule:evenodd;"
d="M 92.559708,157.400003
92.621420,157.403506
92.681929,157.409344
92.741237,157.417518
92.799344,157.428027
92.856250,157.440871
92.911955,157.456051
92.966459,157.473566
93.019764,157.493417
93.071868,157.515603
93.122773,157.540124
93.172478,157.566981
93.220984,157.596173
93.268291,157.627700
93.314399,157.661563
93.359309,157.697761
93.402582,157.736088
93.443743,157.776339
93.482793,157.818512
93.519732,157.862608
93.554560,157.908627
93.587277,157.956569
93.617885,158.006435
93.646382,158.058223
93.672770,158.111934
93.697049,158.167568
93.719218,158.225125
93.739279,158.284605
93.757231,158.346008
93.773075,158.409334
93.786810,158.474583
93.798438,158.541755
94.031060,158.541663
93.443671,159.129051
92.856376,158.541663
93.073347,158.541663
93.062068,158.478233
93.054909,158.448052
93.046738,158.418896
93.037553,158.390762
93.027357,158.363652
93.016147,158.337565
93.003925,158.312501
92.990689,158.288460
92.976441,158.265443
92.961180,158.243449
92.944905,158.222477
92.927618,158.202530
92.909317,158.183605
92.890003,158.165703
92.869676,158.148824
92.848336,158.132969
92.825982,158.118136
92.802615,158.104327
92.778234,158.091541
92.752840,158.079777
92.726432,158.069037
92.699011,158.059319
92.670576,158.050625
92.610664,158.036305
92.546698,158.026076
92.478676,158.019939
92.406597,158.017894
92.366154,158.018855
92.326916,158.021739
92.288884,158.026546
92.252055,158.033276
92.216431,158.041928
92.182009,158.052502
92.148788,158.064999
92.116769,158.079418
92.085950,158.095758
92.056331,158.114020
92.027910,158.134204
92.000687,158.156309
91.974661,158.180336
91.949831,158.206284
91.926197,158.234153
91.903757,158.263943
91.882629,158.295588
91.862862,158.328986
91.844457,158.364140
91.827413,158.401048
91.811732,158.439711
91.797412,158.480130
91.784455,158.522306
91.772861,158.566238
91.762630,158.611926
91.753762,158.659373
91.746257,158.708577
91.740117,158.759539
91.735340,158.812259
91.731928,158.866739
91.729880,158.922978
91.729198,158.980977
91.729942,159.036482
91.732176,159.090586
91.735899,159.143289
91.741111,159.194590
91.747812,159.244489
91.756003,159.292984
91.765684,159.340075
91.776854,159.385761
91.789515,159.430042
91.803666,159.472918
91.819307,159.514386
91.836438,159.554447
91.855060,159.593100
91.875172,159.630344
91.896776,159.666179
91.919870,159.700604
91.944153,159.733271
91.969389,159.763832
91.995580,159.792287
92.022723,159.818637
92.050819,159.842880
92.079866,159.865016
92.109864,159.885045
92.140812,159.902967
92.172710,159.918782
92.205557,159.932489
92.239352,159.944088
92.274094,159.953578
92.309783,159.960961
92.346419,159.966234
92.384000,159.969398
92.422525,159.970453
92.460974,159.969926
92.498254,159.968344
92.534367,159.965708
92.569310,159.962019
92.603086,159.957274
92.635694,159.951476
92.667133,159.944623
92.697404,159.936716
92.726507,159.927755
92.754441,159.917739
92.781207,159.906669
92.806805,159.894545
92.831235,159.881366
92.854497,159.867134
92.876590,159.851847
92.897516,159.835505
92.917273,159.818110
92.935861,159.799660
92.953282,159.780156
92.969534,159.759597
92.984618,159.737985
92.998534,159.715318
93.011282,159.691597
93.022861,159.666821
93.033272,159.640991
93.042515,159.614107
93.050590,159.586169
93.057497,159.557176
93.063235,159.527129
93.067805,159.496028
93.071207,159.463873
93.073440,159.430663
93.819737,159.430663
93.809330,159.499123
93.796652,159.565598
93.781703,159.630087
93.764483,159.692591
93.744991,159.753110
93.723226,159.811645
93.699189,159.868195
93.672878,159.922762
93.644295,159.975344
93.613437,160.025943
93.580305,160.074559
93.544898,160.121192
93.507216,160.165842
93.467259,160.208510
93.425025,160.249196
93.380516,160.287900
93.334347,160.324433
93.287101,160.358608
93.238780,160.390424
93.189382,160.419881
93.138908,160.446980
93.087359,160.471722
93.034734,160.494105
92.981033,160.514132
92.926257,160.531801
92.870405,160.547114
92.813478,160.560070
92.755477,160.570670
92.696400,160.578913
92.636249,160.584801
92.575023,160.588334
92.512722,160.589512
92.428360,160.587743
92.345990,160.582437
92.265610,160.573594
92.187219,160.561215
92.110816,160.545301
92.036400,160.525851
91.963970,160.502867
91.893524,160.476349
91.825063,160.446298
91.758584,160.412713
91.694087,160.375597
91.631570,160.334948
91.571033,160.290769
91.512474,160.243058
91.455892,160.191818
91.401287,160.137047
91.349411,160.079613
91.300880,160.020379
91.255694,159.959346
91.213853,159.896512
91.175358,159.831880
91.140210,159.765447
91.108407,159.697214
91.079951,159.627181
91.054841,159.555347
91.033079,159.481713
91.014664,159.406278
90.999596,159.329043
90.987877,159.250007
90.979505,159.169169
90.974482,159.086531
90.972808,159.002091
90.974420,158.915119
90.979258,158.830129
90.987321,158.747122
90.998608,158.666097
91.013120,158.587054
91.030857,158.509995
91.051818,158.434918
91.076003,158.361825
91.103413,158.290716
91.134047,158.221591
91.167904,158.154450
91.204985,158.089294
91.245290,158.026123
91.288818,157.964937
91.335570,157.905736
91.385544,157.848521
91.438250,157.794087
91.493191,157.743161
91.550369,157.695744
91.609783,157.651835
91.671430,157.611436
91.735312,157.574548
91.801426,157.541170
91.869772,157.511303
91.940349,157.484947
92.013156,157.462105
92.088194,157.442774
92.165460,157.426958
92.244953,157.414655
92.326674,157.405866
92.410622,157.400593
92.496794,157.398835
Z" /> 
</g>
<g style="fill:none; 
stroke:#000000; stroke-width:0.400000; stroke-opacity:1; 
stroke-linecap:round; stroke-linejoin:round;">
<circle cx="104.500000" cy="159.000000" r="2.500000" /> 
<path style="fill:#000000; fill-opacity:1.000000; stroke:none;fill-rule:evenodd;"
d="M 105.514166,157.953499
105.566122,157.956833
105.616917,157.962388
105.666552,157.970165
105.715027,157.980163
105.762342,157.992382
105.808497,158.006822
105.853492,158.023482
105.897327,158.042362
105.940003,158.063461
105.981520,158.086780
106.021878,158.112319
106.061076,158.140076
106.099116,158.170051
106.135997,158.202245
106.171719,158.236656
106.205765,158.272974
106.237615,158.310848
106.267270,158.350278
106.294729,158.391264
106.319992,158.433808
106.343060,158.477909
106.363931,158.523568
106.382606,158.570785
106.399084,158.619562
106.413366,158.669898
106.425451,158.721794
106.435339,158.775250
106.443030,158.830268
106.448523,158.886846
106.451820,158.944986
106.452919,159.004689
106.451832,159.065811
106.448573,159.125235
106.443141,159.182958
106.435535,159.238982
106.425757,159.293307
106.413807,159.345931
106.399683,159.396856
106.383386,159.446080
106.364917,159.493604
106.344274,159.539427
106.321459,159.583550
106.296470,159.625972
106.269309,159.666693
106.239975,159.705712
106.208468,159.743031
106.174789,159.778648
106.139335,159.812364
106.102508,159.843900
106.064308,159.873257
106.024735,159.900436
105.983790,159.925436
105.941473,159.948260
105.897784,159.968907
105.852725,159.987378
105.806295,160.003673
105.758495,160.017794
105.709325,160.029741
105.658787,160.039514
105.606880,160.047114
105.553604,160.052542
105.498961,160.055799
105.442951,160.056884
105.407600,160.056329
105.372626,160.054666
105.338030,160.051893
105.303812,160.048010
105.269973,160.043018
105.236514,160.036915
105.203434,160.029701
105.170735,160.021377
105.138416,160.011941
105.106479,160.001394
105.074923,159.989735
105.043750,159.976963
105.012959,159.963079
104.982551,159.948083
104.952527,159.931973
104.922886,159.914750
104.893800,159.896577
104.865518,159.877577
104.838039,159.857751
104.811364,159.837098
104.785493,159.815618
104.760426,159.793310
104.736162,159.770174
104.712701,159.746210
104.690045,159.721418
104.668192,159.695797
104.647143,159.669347
104.626897,159.642067
104.607455,159.613958
104.588817,159.585018
104.570982,159.555248
104.553951,159.524648
104.971146,159.312982
104.986971,159.348124
105.004162,159.381001
105.022721,159.411612
105.042647,159.439958
105.063941,159.466039
105.086604,159.489853
105.110635,159.511400
105.136035,159.530681
105.162804,159.547694
105.190943,159.562440
105.220451,159.574918
105.251330,159.585129
105.283580,159.593070
105.317200,159.598744
105.352191,159.602148
105.388553,159.603282
105.416107,159.602644
105.442811,159.600728
105.468664,159.597535
105.493665,159.593065
105.517817,159.587318
105.541117,159.580294
105.563566,159.571994
105.585165,159.562418
105.595645,159.557151
105.605913,159.551565
105.615968,159.545660
105.625810,159.539436
105.635439,159.532893
105.644856,159.526032
105.654060,159.518851
105.663052,159.511351
105.680396,159.495395
105.696890,159.478164
105.712533,159.459657
105.727326,159.439876
105.741225,159.419033
105.754229,159.397345
105.766336,159.374810
105.777548,159.351427
105.787864,159.327197
105.797284,159.302118
105.805807,159.276192
105.813434,159.249415
105.820164,159.221790
105.825998,159.193314
105.830934,159.163988
105.834973,159.133811
105.838115,159.102782
105.840359,159.070902
105.841706,159.038169
105.842155,159.004583
105.841711,158.967743
105.840381,158.932073
105.838165,158.897573
105.835061,158.864243
105.831072,158.832083
105.826196,158.801093
105.820433,158.771273
105.813785,158.742623
105.806250,158.715142
105.797829,158.688832
105.788522,158.663691
105.778330,158.639720
105.767251,158.616919
105.755287,158.595287
105.742437,158.574825
105.728701,158.555532
105.714080,158.537410
105.698574,158.520456
105.682182,158.504672
105.664905,158.490058
105.646742,158.476612
105.627695,158.464337
105.607762,158.453230
105.586944,158.443293
105.565242,158.434525
105.542654,158.426926
105.519182,158.420497
105.494825,158.415236
105.469584,158.411145
105.443458,158.408222
105.416448,158.406469
105.388553,158.405884
105.377144,158.406121
105.365618,158.406831
105.353976,158.408015
105.342216,158.409671
105.330339,158.411800
105.318345,158.414401
105.306234,158.417474
105.294004,158.421018
105.281657,158.425034
105.269192,158.429521
105.256609,158.434478
105.243907,158.439906
105.231087,158.445804
105.218148,158.452172
105.205091,158.459009
105.191915,158.466315
105.178829,158.474231
105.166003,158.482859
105.153438,158.492197
105.141131,158.502245
105.129084,158.513003
105.117296,158.524470
105.105767,158.536644
105.094495,158.549526
105.083482,158.563116
105.072726,158.577411
105.062228,158.592412
105.051987,158.608118
105.042002,158.624529
105.032274,158.641644
105.022802,158.659461
105.013586,158.677982
104.559878,158.442079
104.595302,158.382755
104.633509,158.327258
104.674501,158.275590
104.718277,158.227750
104.764839,158.183738
104.814188,158.143556
104.866323,158.107202
104.921246,158.074678
104.978956,158.045984
105.039456,158.021120
105.102744,158.000087
105.168823,157.982884
105.237692,157.969513
105.309352,157.959973
105.383804,157.954264
105.461049,157.952388
Z" /> 
<path style="fill:#000000; fill-opacity:1.000000; stroke:none;fill-rule:evenodd;"
d="M 103.554749,157.953499
103.606688,157.956833
103.657469,157.962388
103.707091,157.970165
103.755554,157.980163
103.802858,157.992382
103.849003,158.006822
103.893988,158.023482
103.937813,158.042362
103.980479,158.063461
104.021985,158.086780
104.062331,158.112319
104.101516,158.140076
104.139541,158.170051
104.176406,158.202245
104.212110,158.236656
104.246192,158.272974
104.278071,158.310848
104.307749,158.350278
104.335225,158.391264
104.360501,158.433808
104.383577,158.477909
104.404452,158.523568
104.423128,158.570785
104.439605,158.619562
104.453884,158.669898
104.465965,158.721794
104.475848,158.775250
104.483534,158.830268
104.489024,158.886846
104.492317,158.944986
104.493415,159.004689
104.492341,159.065811
104.489118,159.125235
104.483746,159.182958
104.476223,159.238982
104.466551,159.293307
104.454727,159.345931
104.440751,159.396856
104.424623,159.446080
104.406342,159.493604
104.385907,159.539427
104.363318,159.583550
104.338574,159.625972
104.311674,159.666693
104.282619,159.705712
104.251406,159.743031
104.218036,159.778648
104.182946,159.812364
104.146415,159.843900
104.108442,159.873257
104.069026,159.900436
104.028169,159.925436
103.985868,159.948260
103.942125,159.968907
103.896938,159.987378
103.850308,160.003673
103.802233,160.017794
103.752715,160.029741
103.701752,160.039514
103.649344,160.047114
103.595491,160.052542
103.540192,160.055799
103.483447,160.056884
103.448846,160.056329
103.414575,160.054666
103.380633,160.051893
103.347022,160.048010
103.313740,160.043018
103.280788,160.036915
103.248166,160.029701
103.215874,160.021377
103.183912,160.011941
103.152280,160.001394
103.120978,159.989735
103.090006,159.976963
103.059363,159.963079
103.029050,159.948083
102.999068,159.931973
102.969415,159.914750
102.940342,159.896577
102.912018,159.877577
102.884445,159.857751
102.857624,159.837098
102.831554,159.815618
102.806238,159.793310
102.781676,159.770174
102.757868,159.746210
102.734815,159.721418
102.712518,159.695797
102.690978,159.669347
102.670196,159.642067
102.650172,159.613958
102.630908,159.585018
102.612403,159.555248
102.594659,159.524648
103.017992,159.312982
103.033781,159.348124
103.050942,159.381001
103.069477,159.411612
103.089384,159.439958
103.110662,159.466039
103.133312,159.489853
103.157332,159.511400
103.182722,159.530681
103.209481,159.547694
103.237609,159.562440
103.267105,159.574918
103.297968,159.585129
103.330198,159.593070
103.363794,159.598744
103.398756,159.602148
103.435082,159.603282
103.462672,159.602644
103.489405,159.600728
103.515280,159.597535
103.540298,159.593065
103.564460,159.587318
103.587767,159.580294
103.610217,159.571994
103.631813,159.562418
103.642290,159.557151
103.652554,159.551565
103.662604,159.545660
103.672441,159.539436
103.682065,159.532893
103.691475,159.526032
103.700671,159.518851
103.709655,159.511351
103.718425,159.503533
103.726983,159.495395
103.743458,159.478164
103.759082,159.459657
103.773855,159.439876
103.787755,159.419033
103.800762,159.397345
103.812875,159.374810
103.824094,159.351427
103.834418,159.327197
103.843846,159.302118
103.852379,159.276192
103.860016,159.249415
103.866756,159.221790
103.872599,159.193314
103.877544,159.163988
103.881591,159.133811
103.884740,159.102782
103.886989,159.070902
103.888339,159.038169
103.888789,159.004583
103.888346,158.967743
103.887016,158.932073
103.884799,158.897573
103.881696,158.864243
103.877706,158.832083
103.872830,158.801093
103.867067,158.771273
103.860418,158.742623
103.852882,158.715142
103.844461,158.688832
103.835153,158.663691
103.824959,158.639720
103.813879,158.616919
103.801913,158.595287
103.789061,158.574825
103.775323,158.555532
103.760699,158.537410
103.745189,158.520456
103.728794,158.504672
103.711513,158.490058
103.693347,158.476612
103.674295,158.464337
103.654357,158.453230
103.633534,158.443293
103.611826,158.434525
103.589232,158.426926
103.565753,158.420497
103.541389,158.415236
103.516140,158.411145
103.490006,158.408222
103.462986,158.406469
103.435082,158.405884
103.422997,158.406121
103.410833,158.406831
103.398591,158.408015
103.386271,158.409671
103.373874,158.411800
103.361399,158.414401
103.348848,158.417474
103.336220,158.421018
103.323517,158.425034
103.310739,158.429521
103.297886,158.434478
103.284959,158.439906
103.271958,158.445804
103.258884,158.452172
103.245736,158.459009
103.232517,158.466315
103.219429,158.474231
103.206597,158.482859
103.194021,158.492197
103.181702,158.502245
103.169640,158.513003
103.157837,158.524470
103.146291,158.536644
103.135005,158.549526
103.123977,158.563116
103.113209,158.577411
103.102702,158.592412
103.092455,158.608118
103.082469,158.624529
103.072744,158.641644
103.063282,158.659461
103.054082,158.677982
102.606513,158.442079
102.606512,158.442079
102.641172,158.382755
102.678673,158.327258
102.719015,158.275590
102.762198,158.227750
102.808220,158.183738
102.857081,158.143556
102.908780,158.107202
102.963316,158.074678
103.020688,158.045984
103.080897,158.021120
103.143940,158.000087
103.209817,157.982884
103.278527,157.969513
103.350070,157.959973
103.424445,157.954264
103.501650,157.952388
Z" /> 
</g> 
</svg>
