<?xml version="1.0" standalone="no"?>
 <!DOCTYPE svg PUBLIC "-//W3C//DTD SVG 1.1//EN" 
 "http://www.w3.org/Graphics/SVG/1.1/DTD/svg11.dtd"> 
<svg
  xmlns:svg="http://www.w3.org/2000/svg"
  xmlns="http://www.w3.org/2000/svg"
  xmlns:xlink="http://www.w3.org/1999/xlink"
  version="1.1"
  width="10.215000000000002cm" height="5.215cm" viewBox="58.925 113.925 102.15 52.15">
<title>SVG Image created as rcbus-opl3-B_SilkS.svg date 2025/10/07 23:42:37 </title>
  <desc>Image generated by PCBNEW </desc>
<g style="fill:#000000; fill-opacity:1.000000;stroke:#000000; stroke-opacity:1.000000;
stroke-linecap:round; stroke-linejoin:round;"
 transform="translate(0 0) scale(1 1)">
<path style="fill:#000000; fill-opacity:1.000000; stroke:none;fill-rule:evenodd;"
d="M 160.232230,161.372500
160.232230,159.771762
159.920729,159.771762
159.920729,160.359960
159.854268,160.313743
159.762460,160.268003
159.662847,160.236567
159.562333,160.226237
159.478063,160.232558
159.411186,160.249896
159.358268,160.276612
159.312585,160.314391
159.276215,160.360894
159.248634,160.417388
159.223803,160.512014
159.214928,160.626215
159.214928,161.372500
159.526338,161.372500
159.526338,160.666149
159.531899,160.615791
159.547221,160.577031
159.571910,160.545639
159.603916,160.523542
159.641749,160.510461
159.686714,160.505865
159.772535,160.517039
159.850296,160.546806
159.920729,160.589030
159.920729,161.372500
Z" /> 
<path style="fill:#000000; fill-opacity:1.000000; stroke:none;fill-rule:evenodd;"
d="M 158.553732,161.372500
158.640149,161.367719
158.709532,161.354639
158.764850,161.334764
158.813562,161.304208
158.852125,161.262843
158.881445,161.209009
158.899684,161.149082
158.911170,161.071295
158.913960,160.971605
158.903610,160.494050
159.079648,160.494050
159.079648,160.294564
158.892436,160.245105
158.851129,159.929116
158.605573,159.929116
158.605573,160.245105
158.339501,160.245105
158.339501,160.494050
158.605573,160.494050
158.605573,160.970048
158.596872,161.044970
158.585956,161.072278
158.572234,161.092139
158.535689,161.117968
158.492733,161.128226
158.350675,161.142331
158.350675,161.372500
Z" /> 
<path style="fill:#000000; fill-opacity:1.000000; stroke:none;fill-rule:evenodd;"
d="M 157.737473,161.372500
157.823890,161.367719
157.893273,161.354639
157.948590,161.334764
157.997302,161.304208
158.035865,161.262843
158.065186,161.209009
158.083424,161.149082
158.094911,161.071295
158.097700,160.971605
158.087351,160.494050
158.263389,160.494050
158.263389,160.294564
158.076177,160.245105
158.034869,159.929116
157.789313,159.929116
157.789313,160.245105
157.523241,160.245105
157.523241,160.494050
157.789313,160.494050
157.789313,160.970048
157.780612,161.044970
157.769696,161.072278
157.755974,161.092139
157.719429,161.117968
157.676473,161.128226
157.534415,161.142331
157.534415,161.372500
Z" /> 
<path style="fill:#000000; fill-opacity:1.000000; stroke:none;fill-rule:evenodd;"
d="M 156.789343,160.232406
156.847208,160.245655
156.901936,160.266207
156.951530,160.291816
157.039640,160.352541
157.090199,160.245105
157.351142,160.245105
157.351142,161.870205
157.039640,161.870205
157.039640,161.314248
156.969068,161.345131
156.889248,161.368836
156.806804,161.383399
156.726857,161.388162
156.626816,161.379556
156.548281,161.355946
156.486705,161.319285
156.435732,161.268346
156.394546,161.203114
156.363332,161.120807
156.336657,160.984329
156.326787,160.809672
156.638197,160.809672
156.645899,160.931226
156.664941,161.008425
156.697593,161.069576
156.735100,161.104779
156.780243,161.124949
156.828248,161.131615
156.884749,161.127840
156.941455,161.116411
156.995300,161.098338
157.039640,161.076386
157.039640,160.541219
156.947042,160.498812
156.890420,160.483639
156.826691,160.478387
156.774558,160.485948
156.729605,160.508155
156.693571,160.545987
156.662835,160.610828
156.645183,160.690631
156.638197,160.809672
156.326787,160.809672
156.332842,160.678244
156.349777,160.566773
156.380156,160.464595
156.421584,160.383316
156.477592,160.316343
156.546606,160.267820
156.627552,160.238357
156.726857,160.227886
Z" /> 
<path style="fill:#000000; fill-opacity:1.000000; stroke:none;fill-rule:evenodd;"
d="M 155.712577,161.385139
155.826700,161.381750
155.948791,161.372500
156.061448,161.356746
156.148643,161.334123
156.148643,161.151582
155.649563,161.151582
155.577389,161.144071
155.551898,161.133107
155.534982,161.116686
155.524984,161.094114
155.521152,161.060449
155.521152,161.024087
155.528294,160.986216
155.548629,160.958874
155.582806,160.942453
155.649013,160.935427
155.825692,160.935427
155.919326,160.927910
156.000082,160.906484
156.048531,160.882744
156.089158,160.850911
156.122905,160.810405
156.146906,160.763447
156.162475,160.704055
156.168151,160.629146
156.168151,160.563750
156.163133,160.493113
156.149020,160.433596
156.126752,160.383316
156.094171,160.340026
156.048244,160.303106
155.986160,160.272491
155.918742,160.252910
155.830010,160.239623
155.715142,160.234664
155.566398,160.241899
155.417563,160.260676
155.306371,160.286138
155.306371,160.468679
155.778157,160.468679
155.835098,160.474419
155.871213,160.488920
155.894067,160.515776
155.902812,160.563750
155.902812,160.598463
155.898669,160.631608
155.887883,160.653235
155.869691,160.668473
155.841812,160.678697
155.765700,160.685383
155.584533,160.685383
155.497009,160.691330
155.428418,160.707508
155.375046,160.732105
155.333940,160.764335
155.291668,160.821424
155.265219,160.892836
155.255721,160.982688
155.255721,161.083530
155.262293,161.157398
155.280459,161.216223
155.308936,161.263140
155.348266,161.301803
155.399090,161.333235
155.463725,161.357204
155.571227,161.377522
Z" /> 
<path style="fill:#000000; fill-opacity:1.000000; stroke:none;fill-rule:evenodd;"
d="M 155.026194,161.375614
155.051085,161.370600
155.064750,161.357263
155.069791,161.333482
155.069791,161.118792
155.064602,161.093009
155.050799,161.078857
155.026194,161.073638
154.846492,161.073638
154.820798,161.078939
154.806550,161.093167
154.801246,161.118792
154.801246,161.333482
154.804774,161.354213
154.813978,161.366271
154.846492,161.375614
Z" /> 
<path style="fill:#000000; fill-opacity:1.000000; stroke:none;fill-rule:evenodd;"
d="M 155.026194,160.543234
155.051085,160.538220
155.064750,160.524884
155.069791,160.501102
155.069791,160.286413
155.064602,160.260629
155.050799,160.246477
155.026194,160.241258
154.846492,160.241258
154.820798,160.246560
154.806550,160.260787
154.801246,160.286413
154.801246,160.501102
154.804774,160.521834
154.813978,160.533892
154.846492,160.543234
Z" /> 
<path style="fill:#000000; fill-opacity:1.000000; stroke:none;fill-rule:evenodd;"
d="M 154.701870,161.523716
154.111749,159.755459
153.795485,159.755459
154.385606,161.523716
Z" /> 
<path style="fill:#000000; fill-opacity:1.000000; stroke:none;fill-rule:evenodd;"
d="M 154.026294,161.523716
153.436173,159.755459
153.119909,159.755459
153.710030,161.523716
Z" /> 
<path style="fill:#000000; fill-opacity:1.000000; stroke:none;fill-rule:evenodd;"
d="M 153.054422,161.372500
153.054422,160.245105
152.797692,160.245105
152.742920,160.359960
152.665979,160.309238
152.581628,160.265713
152.522075,160.244636
152.450946,160.231089
152.366115,160.226237
152.296920,160.231620
152.238909,160.246764
152.190077,160.270751
152.127569,160.321833
152.082640,160.384598
151.971723,160.312241
151.905711,160.278799
151.833971,160.250967
151.759947,160.232297
151.688432,160.226237
151.598997,160.232725
151.528846,160.250408
151.474109,160.277437
151.427137,160.315996
151.390461,160.363702
151.363467,160.421967
151.339804,160.520132
151.331227,160.641603
151.331227,161.372500
151.642637,161.372500
151.642637,160.669172
151.648031,160.617465
151.662695,160.578588
151.686695,160.547035
151.718199,160.524366
151.756077,160.510756
151.803654,160.505865
151.866135,160.512119
151.931057,160.531510
151.992851,160.560380
152.046095,160.594067
152.039409,160.634184
152.037120,160.675400
152.037120,161.372500
152.348529,161.372500
152.348529,160.669172
152.353923,160.617465
152.368588,160.578588
152.392539,160.547014
152.423817,160.524366
152.461446,160.510762
152.508905,160.505865
152.595001,160.516215
152.672212,160.545249
152.742920,160.589030
152.742920,161.372500
Z" /> 
<path style="fill:#000000; fill-opacity:1.000000; stroke:none;fill-rule:evenodd;"
d="M 150.767225,160.235600
150.880691,160.248860
150.985165,160.269718
151.070651,160.293557
151.070651,160.472984
150.733595,160.472984
150.635214,160.477785
150.576608,160.489287
150.531542,160.511159
150.506358,160.539845
150.492932,160.577073
150.487948,160.627315
150.487948,160.703702
150.775636,160.703702
150.873108,160.709961
150.950128,160.727027
151.010562,160.752977
151.057553,160.786866
151.107735,160.847250
151.137629,160.916736
151.147953,160.998258
151.147953,161.100199
151.138315,161.185357
151.111255,161.253726
151.067445,161.309118
151.009702,161.350721
150.941356,161.376190
150.859442,161.385139
150.790514,161.381479
150.726085,161.370759
150.664590,161.354021
150.611138,161.333940
150.524035,161.290159
150.472561,161.253431
150.422003,161.372500
150.176447,161.372500
150.176447,161.113938
150.487948,161.113938
150.508281,161.122181
150.548307,161.136561
150.600056,161.151673
150.654644,161.164221
150.702821,161.168893
150.769957,161.157260
150.797329,161.142250
150.818500,161.119159
150.831687,161.089161
150.836544,161.048267
150.836544,161.002838
150.826463,160.947039
150.797892,160.906484
150.751879,160.879689
150.676168,160.864077
150.487948,160.850980
150.487948,161.113938
150.176447,161.113938
150.176447,160.605882
150.183124,160.510208
150.201196,160.436151
150.228562,160.379286
150.268144,160.330552
150.318134,160.292201
150.380237,160.263698
150.485523,160.238995
150.620389,160.230267
Z" /> 
<path style="fill:#000000; fill-opacity:1.000000; stroke:none;fill-rule:evenodd;"
d="M 149.906986,160.079142
149.931886,160.074135
149.945547,160.060823
149.950583,160.037102
149.950583,159.831663
149.945394,159.805880
149.931591,159.791728
149.906986,159.786509
149.667292,159.786509
149.649198,159.789892
149.637250,159.799240
149.627359,159.831663
149.627359,160.037102
149.632145,160.061171
149.644817,160.074316
149.667292,160.079142
Z" /> 
<path style="fill:#000000; fill-opacity:1.000000; stroke:none;fill-rule:evenodd;"
d="M 149.944722,161.372500
149.944722,160.245105
149.633220,160.245105
149.633220,161.372500
Z" /> 
<path style="fill:#000000; fill-opacity:1.000000; stroke:none;fill-rule:evenodd;"
d="M 148.715569,160.280459
148.850300,160.243640
148.926765,160.231828
149.004264,160.227886
149.110489,160.235667
149.193623,160.256863
149.258338,160.289252
149.312653,160.336093
149.356470,160.398797
149.389771,160.480677
149.409966,160.568350
149.423517,160.679985
149.428514,160.820205
149.422644,160.956339
149.406742,161.064147
149.382994,161.148468
149.345943,161.226701
149.300731,161.285836
149.247347,161.329085
149.185018,161.359371
149.111790,161.378404
149.025330,161.385139
148.968121,161.381107
148.911116,161.368927
148.855710,161.349878
148.803314,161.325330
148.754847,161.295930
148.715569,161.265063
148.665011,161.372500
148.404160,161.372500
148.404160,160.504491
148.715569,160.504491
148.715569,161.071806
148.801390,161.114213
148.854406,161.129331
148.916245,161.134637
148.984054,161.127256
149.033207,161.107435
149.070129,161.071301
149.097504,161.008425
149.111381,160.929176
149.117013,160.804818
149.110943,160.672647
149.096130,160.590312
149.077932,160.543588
149.055013,160.510761
149.027620,160.488829
148.975298,160.468899
148.902965,160.461443
148.851858,160.464998
148.804046,160.475457
148.715569,160.504491
148.404160,160.504491
148.404160,159.770205
148.715569,159.770205
Z" /> 
<path style="fill:#000000; fill-opacity:1.000000; stroke:none;fill-rule:evenodd;"
d="M 147.839241,160.235600
147.952707,160.248860
148.057182,160.269718
148.142667,160.293557
148.142667,160.472984
147.805612,160.472984
147.707231,160.477785
147.648625,160.489287
147.603559,160.511159
147.578375,160.539845
147.564949,160.577073
147.559965,160.627315
147.559965,160.703702
147.847652,160.703702
147.945125,160.709961
148.022145,160.727027
148.082579,160.752977
148.129570,160.786866
148.179751,160.847250
148.209646,160.916736
148.219970,160.998258
148.219970,161.100199
148.210332,161.185357
148.183272,161.253726
148.139462,161.309118
148.081718,161.350721
148.013373,161.376190
147.931458,161.385139
147.862531,161.381479
147.798102,161.370759
147.736607,161.354021
147.683155,161.333940
147.596052,161.290159
147.544578,161.253431
147.494019,161.372500
147.248464,161.372500
147.248464,161.113938
147.559965,161.113938
147.580298,161.122181
147.620323,161.136561
147.672072,161.151673
147.726661,161.164221
147.774838,161.168893
147.841974,161.157260
147.869346,161.142250
147.890517,161.119159
147.903704,161.089161
147.908561,161.048267
147.908561,161.002838
147.898480,160.947039
147.869909,160.906484
147.823896,160.879689
147.748185,160.864077
147.559965,160.850980
147.559965,161.113938
147.248464,161.113938
147.248464,160.605882
147.255141,160.510208
147.273213,160.436151
147.300579,160.379286
147.340161,160.330552
147.390151,160.292201
147.452254,160.263698
147.557540,160.238995
147.692406,160.230267
Z" /> 
<path style="fill:#000000; fill-opacity:1.000000; stroke:none;fill-rule:evenodd;"
d="M 146.731799,161.372500
147.109795,160.245105
146.789135,160.245105
146.546418,161.084629
146.295184,160.245105
145.977638,160.245105
146.373219,161.372500
Z" /> 
<path style="fill:#000000; fill-opacity:1.000000; stroke:none;fill-rule:evenodd;"
d="M 145.542870,160.235600
145.656336,160.248860
145.760810,160.269718
145.846296,160.293557
145.846296,160.472984
145.509241,160.472984
145.410859,160.477785
145.352254,160.489287
145.307188,160.511159
145.282003,160.539845
145.268577,160.577073
145.263594,160.627315
145.263594,160.703702
145.551281,160.703702
145.648754,160.709961
145.725774,160.727027
145.786207,160.752977
145.833199,160.786866
145.883380,160.847250
145.913274,160.916736
145.923599,160.998258
145.923599,161.100199
145.913961,161.185357
145.886901,161.253726
145.843090,161.309118
145.785347,161.350721
145.717002,161.376190
145.635087,161.385139
145.566159,161.381479
145.501730,161.370759
145.440236,161.354021
145.386784,161.333940
145.299681,161.290159
145.248206,161.253431
145.197648,161.372500
144.952092,161.372500
144.952092,161.113938
145.263594,161.113938
145.283927,161.122181
145.323952,161.136561
145.375701,161.151673
145.430289,161.164221
145.478466,161.168893
145.545603,161.157260
145.572975,161.142250
145.594146,161.119159
145.607333,161.089161
145.612189,161.048267
145.612189,161.002838
145.602109,160.947039
145.573538,160.906484
145.527524,160.879689
145.451813,160.864077
145.263594,160.850980
145.263594,161.113938
144.952092,161.113938
144.952092,160.605882
144.958770,160.510208
144.976842,160.436151
145.004208,160.379286
145.043790,160.330552
145.093780,160.292201
145.155883,160.263698
145.261169,160.238995
145.396034,160.230267
Z" /> 
<path style="fill:#000000; fill-opacity:1.000000; stroke:none;fill-rule:evenodd;"
d="M 144.366551,161.377079
144.445342,161.372278
144.510539,161.358934
144.564387,161.338244
144.612389,161.307594
144.651216,161.267903
144.681716,161.218077
144.702140,161.162534
144.715504,161.093548
144.720367,161.008333
144.720367,159.770205
144.408866,159.770205
144.408866,160.962355
144.405157,161.022455
144.395768,161.062830
144.378838,161.095540
144.356567,161.116686
144.328228,161.130646
144.291996,161.139950
144.205259,161.151582
144.205259,161.377079
Z" /> 
<path style="fill:#000000; fill-opacity:1.000000; stroke:none;fill-rule:evenodd;"
d="M 143.723630,160.234429
143.820416,160.252061
143.894765,160.278353
143.959493,160.319621
144.011012,160.377393
144.050287,160.454665
144.074354,160.540195
144.090927,160.656070
144.097181,160.809672
144.090627,160.959229
144.073174,161.073172
144.047631,161.158360
144.006609,161.234943
143.953219,161.292425
143.886339,161.333573
143.810084,161.359722
143.712292,161.377151
143.588210,161.383582
143.458824,161.379278
143.356484,161.367645
143.176050,161.334123
143.176050,161.151582
143.505686,161.151582
143.613595,161.145136
143.680167,161.129417
143.730985,161.099293
143.761867,161.055869
143.778937,160.999800
143.788703,160.919124
143.503671,160.919124
143.396624,160.911674
143.310689,160.891188
143.259552,160.867803
143.217883,160.836547
143.184385,160.797033
143.160723,160.750810
143.145321,160.691911
143.139805,160.618705
143.414278,160.618705
143.422674,160.676182
143.443679,160.708098
143.478417,160.726074
143.535911,160.733194
143.791817,160.733194
143.786495,160.628482
143.773315,160.561094
143.747758,160.507736
143.712499,160.476098
143.665748,160.458839
143.599201,160.452284
143.536037,160.456680
143.491948,160.468038
143.456662,160.489192
143.432871,160.520336
143.419448,160.560489
143.414278,160.618705
143.139805,160.618705
143.139688,160.617148
143.145600,160.515146
143.161407,160.437481
143.184843,160.379194
143.220607,160.328991
143.268422,160.289901
143.330473,160.261225
143.439703,160.237276
143.599201,160.227886
Z" /> 
<path style="fill:#000000; fill-opacity:1.000000; stroke:none;fill-rule:evenodd;"
d="M 142.899537,161.375614
142.924427,161.370600
142.938093,161.357263
142.943134,161.333482
142.943134,161.118792
142.937944,161.093009
142.924142,161.078857
142.899537,161.073638
142.719835,161.073638
142.694140,161.078939
142.679892,161.093167
142.674589,161.118792
142.674589,161.333482
142.678117,161.354213
142.687320,161.366271
142.719835,161.375614
Z" /> 
<path style="fill:#000000; fill-opacity:1.000000; stroke:none;fill-rule:evenodd;"
d="M 142.094331,160.234886
142.198315,160.253806
142.261547,160.275957
142.314745,160.306080
142.359333,160.344115
142.395624,160.390201
142.426140,160.448385
142.450374,160.520977
142.471296,160.640931
142.479317,160.806192
142.471607,160.963260
142.451198,161.081057
142.427538,161.152828
142.397289,161.211454
142.360890,161.258927
142.316230,161.298560
142.263003,161.330465
142.199872,161.354639
142.095568,161.375761
141.961644,161.383582
141.824783,161.376131
141.720027,161.356196
141.656667,161.332994
141.603664,161.302075
141.559559,161.263506
141.523693,161.217005
141.493819,161.158729
141.470441,161.086461
141.450406,160.967415
141.442781,160.806192
141.442858,160.804635
141.754190,160.804635
141.757658,160.909952
141.766464,160.982047
141.783062,161.043443
141.803558,161.081515
141.832008,161.108702
141.867397,161.124471
141.908513,161.131880
141.961644,161.134637
142.014591,161.131879
142.055525,161.124471
142.090682,161.108720
142.119089,161.081515
142.139477,161.043449
142.155909,160.982047
142.164452,160.909949
142.167816,160.804635
142.164437,160.699050
142.155909,160.627773
142.139497,160.567313
142.119089,160.529678
142.090703,160.502694
142.055525,160.486997
142.014591,160.479589
141.961644,160.476830
141.908513,160.479588
141.867397,160.486997
141.831986,160.502712
141.803558,160.529678
141.783042,160.567319
141.766464,160.627773
141.757673,160.699047
141.754190,160.804635
141.442858,160.804635
141.450840,160.643685
141.471998,160.524091
141.496330,160.451431
141.526696,160.393251
141.562582,160.347229
141.606640,160.309111
141.659668,160.278457
141.723141,160.255363
141.827546,160.235318
141.961644,160.227886
Z" /> 
<path style="fill:#000000; fill-opacity:1.000000; stroke:none;fill-rule:evenodd;"
d="M 141.238441,161.372500
141.238441,160.245105
140.997465,160.245105
140.926940,160.417296
140.862028,160.345274
140.789553,160.284764
140.735913,160.254396
140.675558,160.235863
140.606829,160.229443
140.561034,160.231824
140.514963,160.240525
140.514963,160.559629
140.581825,160.552759
140.646763,160.550103
140.706250,160.553624
140.757313,160.563567
140.804869,160.580257
140.848172,160.603226
140.888072,160.632634
140.926940,160.670454
140.926940,161.372500
Z" /> 
<path style="fill:#000000; fill-opacity:1.000000; stroke:none;fill-rule:evenodd;"
d="M 140.000829,160.249054
140.087281,160.262967
140.157758,160.284214
140.222790,160.316626
140.273931,160.357145
140.313188,160.406031
140.340828,160.462577
140.358387,160.530605
140.364662,160.612660
140.360381,160.675907
140.347626,160.736949
140.325020,160.794714
140.290931,160.848690
140.245586,160.895358
140.184686,160.935702
140.240599,160.953863
140.285538,160.979681
140.321340,161.013005
140.348118,161.053594
140.364459,161.100446
140.370158,161.155245
140.360238,161.220141
140.330683,161.277546
140.278933,161.329818
140.254102,161.343819
140.316839,161.378642
140.375928,161.434323
140.404708,161.479132
140.422174,161.529968
140.428226,161.588471
140.428226,161.622360
140.422579,161.678905
140.406351,161.727709
140.379775,161.770371
140.323586,161.822921
140.247517,161.862329
140.160365,161.885432
140.058656,161.893561
139.720136,161.893561
139.608628,161.886409
139.520101,161.866867
139.450267,161.837086
139.395629,161.798123
139.350413,161.747091
139.317842,161.687524
139.297547,161.617730
139.290391,161.535348
139.290391,161.519686
139.585405,161.519686
139.585405,161.552201
139.590870,161.590791
139.606298,161.620897
139.632025,161.644617
139.683839,161.667007
139.756956,161.675391
139.971095,161.675391
140.043903,161.666636
140.091629,161.643884
140.114437,161.620141
140.128344,161.590069
140.133303,161.551652
140.133303,161.527105
140.128041,161.487924
140.113245,161.457313
140.089571,161.432974
140.057283,161.414815
140.019770,161.404199
139.975034,161.400435
139.748529,161.400435
139.694030,161.404404
139.655564,161.414723
139.623916,161.432573
139.602716,161.455298
139.589951,161.483695
139.585405,161.519686
139.290391,161.519686
139.290391,161.505673
139.296436,161.425169
139.313105,161.360515
139.338934,161.308661
139.375559,161.263933
139.421545,161.228019
139.478335,161.200491
139.574613,161.175913
139.697879,161.166878
140.010388,161.166878
140.046092,161.163423
140.077616,161.153414
140.100122,161.134469
140.107932,161.103039
140.098805,161.066033
140.072304,161.042772
140.033615,161.030245
139.980987,161.025553
139.780952,161.025553
139.682669,161.019746
139.604924,161.003945
139.543915,160.980032
139.488767,160.945097
139.446168,160.904135
139.414497,160.856750
139.384408,160.775175
139.374013,160.681262
139.376370,160.638306
139.654740,160.638306
139.658287,160.682466
139.668204,160.718906
139.686860,160.749419
139.716839,160.772761
139.756083,160.786571
139.815849,160.791995
139.935283,160.791995
139.983463,160.787189
140.019702,160.774150
140.046841,160.753893
140.066224,160.726012
140.079087,160.686868
140.083936,160.632718
140.078665,160.576938
140.064904,160.538344
140.044368,160.512276
139.998019,160.487198
139.925666,160.477563
139.808521,160.477563
139.760574,160.481708
139.723891,160.492950
139.693955,160.513158
139.672142,160.543875
139.659553,160.582865
139.654740,160.638306
139.376370,160.638306
139.377549,160.616829
139.386836,160.569521
139.401806,160.527546
139.418710,160.495881
139.457544,160.446789
139.284804,160.415739
139.284804,160.244006
139.895441,160.244006
Z" /> 
<path style="fill:#000000; fill-opacity:1.000000; stroke:none;fill-rule:evenodd;"
d="M 139.214920,161.523716
138.624798,159.755459
138.308534,159.755459
138.898656,161.523716
Z" /> 
<path style="fill:#000000; fill-opacity:1.000000; stroke:none;fill-rule:evenodd;"
d="M 137.681249,160.232406
137.739113,160.245655
137.793841,160.266207
137.843435,160.291816
137.931546,160.352541
137.982104,160.245105
138.243047,160.245105
138.243047,161.870205
137.931546,161.870205
137.931546,161.314248
137.860973,161.345131
137.781153,161.368836
137.698709,161.383399
137.618762,161.388162
137.518721,161.379556
137.440186,161.355946
137.378610,161.319285
137.327637,161.268346
137.286451,161.203114
137.255237,161.120807
137.228562,160.984329
137.218692,160.809672
137.530102,160.809672
137.537804,160.931226
137.556846,161.008425
137.589499,161.069576
137.627005,161.104779
137.672149,161.124949
137.720153,161.131615
137.776654,161.127840
137.833360,161.116411
137.887205,161.098338
137.931546,161.076386
137.931546,160.541219
137.838947,160.498812
137.782325,160.483639
137.718596,160.478387
137.666463,160.485948
137.621510,160.508155
137.585476,160.545987
137.554740,160.610828
137.537088,160.690631
137.530102,160.809672
137.218692,160.809672
137.224747,160.678244
137.241682,160.566773
137.272061,160.464595
137.313489,160.383316
137.369497,160.316343
137.438511,160.267820
137.519457,160.238357
137.618762,160.227886
Z" /> 
<path style="fill:#000000; fill-opacity:1.000000; stroke:none;fill-rule:evenodd;"
d="M 137.014994,161.372500
137.014994,160.245105
136.774018,160.245105
136.703493,160.417296
136.638581,160.345274
136.566106,160.284764
136.512465,160.254396
136.452110,160.235863
136.383382,160.229443
136.337586,160.231824
136.291516,160.240525
136.291516,160.559629
136.358377,160.552759
136.423315,160.550103
136.482803,160.553624
136.533866,160.563567
136.581422,160.580257
136.624724,160.603226
136.664624,160.632634
136.703493,160.670454
136.703493,161.372500
Z" /> 
<path style="fill:#000000; fill-opacity:1.000000; stroke:none;fill-rule:evenodd;"
d="M 135.775280,160.234886
135.879264,160.253806
135.942496,160.275957
135.995694,160.306080
136.040282,160.344115
136.076574,160.390201
136.107089,160.448385
136.131323,160.520977
136.152245,160.640931
136.160266,160.806192
136.152556,160.963260
136.132147,161.081057
136.108487,161.152828
136.078238,161.211454
136.041839,161.258927
135.997179,161.298560
135.943952,161.330465
135.880822,161.354639
135.776517,161.375761
135.642593,161.383582
135.505732,161.376131
135.400976,161.356196
135.337617,161.332994
135.284613,161.302075
135.240508,161.263506
135.204642,161.217005
135.174768,161.158729
135.151390,161.086461
135.131355,160.967415
135.123730,160.806192
135.123807,160.804635
135.435139,160.804635
135.438607,160.909952
135.447413,160.982047
135.464011,161.043443
135.484507,161.081515
135.512957,161.108702
135.548346,161.124471
135.589462,161.131880
135.642593,161.134637
135.695540,161.131879
135.736474,161.124471
135.771631,161.108720
135.800038,161.081515
135.820426,161.043449
135.836858,160.982047
135.845401,160.909949
135.848765,160.804635
135.845386,160.699050
135.836858,160.627773
135.820446,160.567313
135.800038,160.529678
135.771652,160.502694
135.736474,160.486997
135.695540,160.479589
135.642593,160.476830
135.589462,160.479588
135.548346,160.486997
135.512935,160.502712
135.484507,160.529678
135.463991,160.567319
135.447413,160.627773
135.438622,160.699047
135.435139,160.804635
135.123807,160.804635
135.131790,160.643685
135.152947,160.524091
135.177279,160.451431
135.207645,160.393251
135.243531,160.347229
135.287589,160.309111
135.340617,160.278457
135.404090,160.255363
135.508495,160.235318
135.642593,160.227886
Z" /> 
<path style="fill:#000000; fill-opacity:1.000000; stroke:none;fill-rule:evenodd;"
d="M 134.883120,160.079142
134.908080,160.074131
134.921766,160.060815
134.926809,160.037102
134.926809,159.831663
134.921613,159.805889
134.907786,159.791732
134.883120,159.786509
134.643518,159.786509
134.625424,159.789892
134.613476,159.799240
134.603584,159.831663
134.603584,160.037102
134.608370,160.061171
134.621042,160.074316
134.643518,160.079142
Z" /> 
<path style="fill:#000000; fill-opacity:1.000000; stroke:none;fill-rule:evenodd;"
d="M 134.919390,161.870205
134.919390,160.245105
134.607889,160.245105
134.607889,161.363432
134.612858,161.496116
134.628039,161.633717
134.652904,161.766566
134.683085,161.870205
Z" /> 
<path style="fill:#000000; fill-opacity:1.000000; stroke:none;fill-rule:evenodd;"
d="M 134.029631,160.234429
134.126418,160.252061
134.200767,160.278353
134.265494,160.319621
134.317013,160.377393
134.356288,160.454665
134.380356,160.540195
134.396928,160.656070
134.403183,160.809672
134.396629,160.959229
134.379175,161.073172
134.353632,161.158360
134.312610,161.234943
134.259220,161.292425
134.192340,161.333573
134.116086,161.359722
134.018293,161.377151
133.894211,161.383582
133.764825,161.379278
133.662486,161.367645
133.482051,161.334123
133.482051,161.151582
133.811688,161.151582
133.919596,161.145136
133.986169,161.129417
134.036986,161.099293
134.067868,161.055869
134.084939,160.999800
134.094704,160.919124
133.809673,160.919124
133.702625,160.911674
133.616690,160.891188
133.565553,160.867803
133.523884,160.836547
133.490386,160.797033
133.466724,160.750810
133.451322,160.691911
133.445807,160.618705
133.720280,160.618705
133.728675,160.676182
133.749681,160.708098
133.784418,160.726074
133.841913,160.733194
134.097818,160.733194
134.092497,160.628482
134.079317,160.561094
134.053760,160.507736
134.018500,160.476098
133.971749,160.458839
133.905202,160.452284
133.842039,160.456680
133.797949,160.468038
133.762664,160.489192
133.738873,160.520336
133.725449,160.560489
133.720280,160.618705
133.445807,160.618705
133.445690,160.617148
133.451601,160.515146
133.467408,160.437481
133.490844,160.379194
133.526608,160.328991
133.574423,160.289901
133.636474,160.261225
133.745704,160.237276
133.905202,160.227886
Z" /> 
<path style="fill:#000000; fill-opacity:1.000000; stroke:none;fill-rule:evenodd;"
d="M 132.803270,161.385139
132.903328,161.378137
132.992772,161.357937
133.073933,161.321421
133.143165,161.266712
133.180772,161.221003
133.213660,161.163424
133.241442,161.091864
133.266687,160.973621
133.276246,160.813886
133.267353,160.648753
133.244006,160.527572
133.217846,160.453948
133.186480,160.394998
133.150400,160.348420
133.106545,160.309209
133.056320,160.278399
132.998817,160.255730
132.904999,160.235599
132.794111,160.228435
132.693556,160.231393
132.598381,160.240068
132.503452,160.255441
132.401368,160.279452
132.401368,160.458970
132.697299,160.458970
132.788826,160.466904
132.853096,160.487638
132.887623,160.511112
132.915946,160.545253
132.938275,160.592418
132.957086,160.676991
132.964745,160.811504
132.957015,160.944615
132.938184,161.026652
132.915817,161.071632
132.887423,161.103613
132.852638,161.124929
132.788122,161.143001
132.694277,161.150025
132.386073,161.150025
132.386073,161.326429
132.506973,161.356288
132.653427,161.377629
Z" /> 
<path style="fill:#000000; fill-opacity:1.000000; stroke:none;fill-rule:evenodd;"
d="M 131.784228,161.372500
131.870645,161.367719
131.940028,161.354639
131.995345,161.334764
132.044057,161.304208
132.082620,161.262843
132.111941,161.209009
132.130179,161.149082
132.141666,161.071295
132.144456,160.971605
132.134106,160.494050
132.310144,160.494050
132.310144,160.294564
132.122932,160.245105
132.081624,159.929116
131.836068,159.929116
131.836068,160.245105
131.569996,160.245105
131.569996,160.494050
131.836068,160.494050
131.836068,160.970048
131.827367,161.044970
131.816452,161.072278
131.802729,161.092139
131.766184,161.117968
131.723228,161.128226
131.581170,161.142331
131.581170,161.372500
Z" /> 
<path style="fill:#000000; fill-opacity:1.000000; stroke:none;fill-rule:evenodd;"
d="M 130.987386,161.385139
131.101508,161.381750
131.223599,161.372500
131.336256,161.356746
131.423451,161.334123
131.423451,161.151582
130.924371,161.151582
130.852197,161.144071
130.826706,161.133107
130.809790,161.116686
130.799792,161.094114
130.795960,161.060449
130.795960,161.024087
130.803102,160.986216
130.823438,160.958874
130.857614,160.942453
130.923821,160.935427
131.100501,160.935427
131.194135,160.927910
131.274890,160.906484
131.323339,160.882744
131.363966,160.850911
131.397714,160.810405
131.421714,160.763447
131.437283,160.704055
131.442960,160.629146
131.442960,160.563750
131.437941,160.493113
131.423828,160.433596
131.401560,160.383316
131.368979,160.340026
131.323053,160.303106
131.260968,160.272491
131.193550,160.252910
131.104818,160.239623
130.989950,160.234664
130.841206,160.241899
130.692371,160.260676
130.581179,160.286138
130.581179,160.468679
131.052965,160.468679
131.109906,160.474419
131.146021,160.488920
131.168875,160.515776
131.177620,160.563750
131.177620,160.598463
131.173478,160.631608
131.162691,160.653235
131.144499,160.668473
131.116621,160.678697
131.040508,160.685383
130.859341,160.685383
130.771818,160.691330
130.703226,160.707508
130.649855,160.732105
130.608748,160.764335
130.566476,160.821424
130.540027,160.892836
130.530529,160.982688
130.530529,161.083530
130.537101,161.157398
130.555267,161.216223
130.583744,161.263140
130.623074,161.301803
130.673898,161.333235
130.738533,161.357204
130.846036,161.377522
Z" /> 
<path style="fill:#000000; fill-opacity:1.000000; stroke:none;fill-rule:evenodd;"
d="M 130.466141,161.523716
129.876020,159.755459
129.559756,159.755459
130.149877,161.523716
Z" /> 
<path style="fill:#000000; fill-opacity:1.000000; stroke:none;fill-rule:evenodd;"
d="M 129.494268,161.372500
129.494268,160.245105
129.253292,160.245105
129.182767,160.417296
129.117855,160.345274
129.045380,160.284764
128.991739,160.254396
128.931385,160.235863
128.862656,160.229443
128.816860,160.231824
128.770790,160.240525
128.770790,160.559629
128.837652,160.552759
128.902590,160.550103
128.962077,160.553624
129.013140,160.563567
129.060696,160.580257
129.103998,160.603226
129.143899,160.632634
129.182767,160.670454
129.182767,161.372500
Z" /> 
<path style="fill:#000000; fill-opacity:1.000000; stroke:none;fill-rule:evenodd;"
d="M 128.166564,161.385139
128.266622,161.378137
128.356066,161.357937
128.437227,161.321421
128.506458,161.266712
128.544066,161.221003
128.576954,161.163424
128.604736,161.091864
128.629980,160.973621
128.639540,160.813886
128.630646,160.648753
128.607300,160.527572
128.581140,160.453948
128.549774,160.394998
128.513694,160.348420
128.469838,160.309209
128.419614,160.278399
128.362111,160.255730
128.268293,160.235599
128.157405,160.228435
128.056850,160.231393
127.961675,160.240068
127.866746,160.255441
127.764662,160.279452
127.764662,160.458970
128.060593,160.458970
128.152119,160.466904
128.216389,160.487638
128.250917,160.511112
128.279240,160.545253
128.301569,160.592418
128.320380,160.676991
128.328039,160.811504
128.320309,160.944615
128.301478,161.026652
128.279110,161.071632
128.250716,161.103613
128.215931,161.124929
128.151416,161.143001
128.057570,161.150025
127.749367,161.150025
127.749367,161.326429
127.870267,161.356288
128.016721,161.377629
Z" /> 
<path style="fill:#000000; fill-opacity:1.000000; stroke:none;fill-rule:evenodd;"
d="M 127.577450,161.372500
127.316507,161.372500
127.265949,161.265063
127.176281,161.324414
127.126989,161.348822
127.070585,161.368469
127.009827,161.380757
126.937870,161.385139
126.851640,161.377650
126.780140,161.356605
126.720524,161.323132
126.670286,161.276648
126.628120,161.215070
126.594220,161.135370
126.572524,161.050467
126.558269,160.946517
126.553096,160.820205
126.553656,160.804818
126.864505,160.804818
126.871587,160.924116
126.889326,161.002472
126.920182,161.065654
126.956463,161.102672
127.001627,161.124226
127.054557,161.131615
127.120701,161.127027
127.174816,161.114304
127.265949,161.076386
127.265949,160.541219
127.170694,160.497896
127.115056,160.483350
127.054557,160.478387
127.005779,160.483817
126.960859,160.499911
126.923592,160.530796
126.890975,160.590312
126.872356,160.668962
126.864505,160.804818
126.553656,160.804818
126.558251,160.678504
126.572200,160.566280
126.592938,160.478662
126.626540,160.396543
126.669145,160.334279
126.720524,160.288336
126.781811,160.256103
126.858136,160.235386
126.953165,160.227886
127.030124,160.235005
127.114640,160.257561
127.196714,160.289601
127.265949,160.323324
127.265949,159.770205
127.577450,159.770205
Z" /> 
<path style="fill:#000000; fill-opacity:1.000000; stroke:none;fill-rule:evenodd;"
d="M 126.029469,161.385139
126.104795,161.378964
126.168135,161.361541
126.221682,161.333798
126.267057,161.295655
126.312861,161.230991
126.341896,161.148554
126.352420,161.043230
126.352420,160.245105
126.041010,160.245105
126.041010,160.949532
126.034974,161.011214
126.019519,161.051720
125.996771,161.077301
125.947174,161.101212
125.877154,161.110091
125.819081,161.104707
125.756894,161.087834
125.697502,161.061539
125.646527,161.028667
125.646527,160.245105
125.335118,160.245105
125.335118,161.372500
125.591756,161.372500
125.646527,161.257644
125.726815,161.303706
125.821466,161.346213
125.922202,161.375323
Z" /> 
<path style="fill:#000000; fill-opacity:1.000000; stroke:none;fill-rule:evenodd;"
d="M 124.690316,161.385139
124.804439,161.381750
124.926530,161.372500
125.039187,161.356746
125.126382,161.334123
125.126382,161.151582
124.627302,161.151582
124.555128,161.144071
124.529637,161.133107
124.512721,161.116686
124.502723,161.094114
124.498891,161.060449
124.498891,161.024087
124.506033,160.986216
124.526368,160.958874
124.560545,160.942453
124.626752,160.935427
124.803431,160.935427
124.897066,160.927910
124.977821,160.906484
125.026270,160.882744
125.066897,160.850911
125.100644,160.810405
125.124645,160.763447
125.140214,160.704055
125.145890,160.629146
125.145890,160.563750
125.140872,160.493113
125.126759,160.433596
125.104491,160.383316
125.071910,160.340026
125.025983,160.303106
124.963899,160.272491
124.896481,160.252910
124.807749,160.239623
124.692881,160.234664
124.544137,160.241899
124.395302,160.260676
124.284110,160.286138
124.284110,160.468679
124.755896,160.468679
124.812837,160.474419
124.848952,160.488920
124.871806,160.515776
124.880551,160.563750
124.880551,160.598463
124.876408,160.631608
124.865622,160.653235
124.847430,160.668473
124.819551,160.678697
124.743439,160.685383
124.562272,160.685383
124.474748,160.691330
124.406157,160.707508
124.352785,160.732105
124.311679,160.764335
124.269407,160.821424
124.242958,160.892836
124.233460,160.982688
124.233460,161.083530
124.240032,161.157398
124.258198,161.216223
124.286675,161.263140
124.326005,161.301803
124.376829,161.333235
124.441464,161.357204
124.548966,161.377522
Z" /> 
<path style="fill:#000000; fill-opacity:1.000000; stroke:none;fill-rule:evenodd;"
d="M 124.114209,160.888532
124.114209,160.638489
123.471789,160.638489
123.471789,160.888532
Z" /> 
<path style="fill:#000000; fill-opacity:1.000000; stroke:none;fill-rule:evenodd;"
d="M 122.955462,160.234886
123.059446,160.253806
123.122677,160.275957
123.175876,160.306080
123.220463,160.344115
123.256755,160.390201
123.287271,160.448385
123.311505,160.520977
123.332427,160.640931
123.340447,160.806192
123.332737,160.963260
123.312329,161.081057
123.288668,161.152828
123.258420,161.211454
123.222020,161.258927
123.177361,161.298560
123.124134,161.330465
123.061003,161.354639
122.956699,161.375761
122.822775,161.383582
122.685914,161.376131
122.581157,161.356196
122.517798,161.332994
122.464795,161.302075
122.420690,161.263506
122.384823,161.217005
122.354949,161.158729
122.331572,161.086461
122.311536,160.967415
122.303911,160.806192
122.303988,160.804635
122.615321,160.804635
122.618788,160.909952
122.627594,160.982047
122.644193,161.043443
122.664688,161.081515
122.693138,161.108702
122.728527,161.124471
122.769643,161.131880
122.822775,161.134637
122.875722,161.131879
122.916655,161.124471
122.951812,161.108720
122.980220,161.081515
123.000608,161.043449
123.017039,160.982047
123.025582,160.909949
123.028946,160.804635
123.025568,160.699050
123.017039,160.627773
123.000628,160.567313
122.980220,160.529678
122.951834,160.502694
122.916655,160.486997
122.875722,160.479589
122.822775,160.476830
122.769643,160.479588
122.728527,160.486997
122.693117,160.502712
122.664688,160.529678
122.644173,160.567319
122.627594,160.627773
122.618803,160.699047
122.615321,160.804635
122.303988,160.804635
122.311971,160.643685
122.333129,160.524091
122.357460,160.451431
122.387827,160.393251
122.423712,160.347229
122.467770,160.309111
122.520799,160.278457
122.584271,160.255363
122.688676,160.235318
122.822775,160.227886
Z" /> 
<path style="fill:#000000; fill-opacity:1.000000; stroke:none;fill-rule:evenodd;"
d="M 121.537773,160.232406
121.595637,160.245655
121.650366,160.266207
121.699960,160.291816
121.788070,160.352541
121.838629,160.245105
122.099572,160.245105
122.099572,161.870205
121.788070,161.870205
121.788070,161.314248
121.717498,161.345131
121.637678,161.368836
121.555234,161.383399
121.475287,161.388162
121.375245,161.379556
121.296711,161.355946
121.235135,161.319285
121.184162,161.268346
121.142976,161.203114
121.111762,161.120807
121.085087,160.984329
121.075217,160.809672
121.386627,160.809672
121.394329,160.931226
121.413371,161.008425
121.446023,161.069576
121.483530,161.104779
121.528673,161.124949
121.576678,161.131615
121.633179,161.127840
121.689885,161.116411
121.743730,161.098338
121.788070,161.076386
121.788070,160.541219
121.695472,160.498812
121.638850,160.483639
121.575121,160.478387
121.522988,160.485948
121.478035,160.508155
121.442001,160.545987
121.411265,160.610828
121.393613,160.690631
121.386627,160.809672
121.075217,160.809672
121.081272,160.678244
121.098206,160.566773
121.128586,160.464595
121.170014,160.383316
121.226022,160.316343
121.295036,160.267820
121.375982,160.238357
121.475287,160.227886
Z" /> 
<path style="fill:#000000; fill-opacity:1.000000; stroke:none;fill-rule:evenodd;"
d="M 120.517702,161.377079
120.596494,161.372278
120.661691,161.358934
120.715539,161.338244
120.763541,161.307594
120.802367,161.267903
120.832867,161.218077
120.853292,161.162534
120.866656,161.093548
120.871519,161.008333
120.871519,159.770205
120.560017,159.770205
120.560017,160.962355
120.556309,161.022455
120.546920,161.062830
120.529990,161.095540
120.507719,161.116686
120.479380,161.130646
120.443147,161.139950
120.356410,161.151582
120.356410,161.377079
Z" /> 
<path style="fill:#000000; fill-opacity:1.000000; stroke:none;fill-rule:evenodd;"
d="M 119.659769,161.385139
119.825331,161.382159
119.979330,161.373507
120.127793,161.358943
120.254561,161.340259
120.254561,161.091681
119.777555,161.091681
119.696025,161.088174
119.636962,161.079042
119.587183,161.060730
119.555263,161.034803
119.536082,160.998618
119.528885,160.945319
119.528885,160.880564
119.536210,160.828899
119.556271,160.791721
119.587733,160.763553
119.629544,160.743544
119.677126,160.731811
119.732950,160.726233
120.115709,160.710021
120.115709,160.471793
119.746689,160.451460
119.657257,160.438738
119.599135,160.416472
119.570908,160.392852
119.553658,160.360276
119.547386,160.315630
119.547386,160.262874
119.554092,160.210808
119.572704,160.171096
119.602982,160.140691
119.642426,160.120521
119.701838,160.106306
119.788271,160.100758
120.221130,160.100758
120.221130,159.852179
119.960004,159.818199
119.817082,159.807441
119.663524,159.805834
119.573556,159.812033
119.497276,159.827548
119.432623,159.851263
119.373748,159.885596
119.326124,159.928322
119.288458,159.980040
119.261802,160.038597
119.244970,160.107582
119.238999,160.189143
119.238999,160.304914
119.242824,160.363388
119.253562,160.412717
119.271362,160.457638
119.294687,160.495423
119.323715,160.527971
119.356969,160.554408
119.393914,160.575299
119.433997,160.590861
119.391421,160.606818
119.350832,160.631436
119.314305,160.663014
119.281772,160.701595
119.255168,160.745926
119.233962,160.799323
119.220867,160.857332
119.216285,160.923612
119.216285,161.003662
119.224394,161.095338
119.247194,161.171302
119.283504,161.234611
119.333704,161.287411
119.394385,161.328209
119.467274,161.358674
119.554757,161.378163
Z" /> 
<path style="fill:#000000; fill-opacity:1.000000; stroke:none;fill-rule:evenodd;"
d="M 119.086867,161.523716
118.496745,159.755459
118.180481,159.755459
118.770603,161.523716
Z" /> 
</g> 
</svg>
