<?xml version="1.0" standalone="no"?>
 <!DOCTYPE svg PUBLIC "-//W3C//DTD SVG 1.1//EN" 
 "http://www.w3.org/Graphics/SVG/1.1/DTD/svg11.dtd"> 
<svg
  xmlns:svg="http://www.w3.org/2000/svg"
  xmlns="http://www.w3.org/2000/svg"
  xmlns:xlink="http://www.w3.org/1999/xlink"
  version="1.1"
  width="10.215000000000002cm" height="5.215cm" viewBox="58.925 113.925 102.15 52.15">
<title>SVG Image created as rcbus-opl3-F_Mask.svg date 2025/10/04 22:29:56 </title>
  <desc>Image generated by PCBNEW </desc>
<g style="fill:#000000; fill-opacity:1.000000;stroke:#000000; stroke-opacity:1.000000;
stroke-linecap:round; stroke-linejoin:round;"
 transform="translate(0 0) scale(1 1)">
<path style="fill:#000000; fill-opacity:1.000000; stroke:none;fill-rule:evenodd;"
d="M 79.775000,142.250000
79.792127,142.163896
79.840901,142.090901
79.913896,142.042127
80.000000,142.025000
80.450000,142.025000
80.536104,142.042127
80.609099,142.090901
80.657873,142.163896
80.675000,142.250000
80.675000,142.750000
80.657873,142.836104
80.609099,142.909099
80.536104,142.957873
80.450000,142.975000
80.000000,142.975000
79.913896,142.957873
79.840901,142.909099
79.792127,142.836104
79.775000,142.750000
Z" /> 
<path style="fill:#000000; fill-opacity:1.000000; stroke:none;fill-rule:evenodd;"
d="M 81.325000,142.250000
81.342127,142.163896
81.390901,142.090901
81.463896,142.042127
81.550000,142.025000
82.000000,142.025000
82.086104,142.042127
82.159099,142.090901
82.207873,142.163896
82.225000,142.250000
82.225000,142.750000
82.207873,142.836104
82.159099,142.909099
82.086104,142.957873
82.000000,142.975000
81.550000,142.975000
81.463896,142.957873
81.390901,142.909099
81.342127,142.836104
81.325000,142.750000
Z" /> 
<path style="fill:#000000; fill-opacity:1.000000; stroke:none;fill-rule:evenodd;"
d="M 111.975000,141.750000
111.957873,141.836104
111.909099,141.909099
111.836104,141.957873
111.750000,141.975000
111.300000,141.975000
111.213896,141.957873
111.140901,141.909099
111.092127,141.836104
111.075000,141.750000
111.075000,141.250000
111.092127,141.163896
111.140901,141.090901
111.213896,141.042127
111.300000,141.025000
111.750000,141.025000
111.836104,141.042127
111.909099,141.090901
111.957873,141.163896
111.975000,141.250000
Z" /> 
<path style="fill:#000000; fill-opacity:1.000000; stroke:none;fill-rule:evenodd;"
d="M 110.425000,141.750000
110.407873,141.836104
110.359099,141.909099
110.286104,141.957873
110.200000,141.975000
109.750000,141.975000
109.663896,141.957873
109.590901,141.909099
109.542127,141.836104
109.525000,141.750000
109.525000,141.250000
109.542127,141.163896
109.590901,141.090901
109.663896,141.042127
109.750000,141.025000
110.200000,141.025000
110.286104,141.042127
110.359099,141.090901
110.407873,141.163896
110.425000,141.250000
Z" /> 
</g>
<g style="fill:#000000; fill-opacity:1.000000; stroke:none;">
<circle cx="156.069000" cy="130.595000" r="0.600000" /> 
</g>
<g style="fill:#000000; fill-opacity:1.000000; stroke:none;">
<circle cx="156.069000" cy="120.595000" r="0.600000" /> 
</g>
<g style="fill:#000000; fill-opacity:1.000000; stroke:none;">
<circle cx="153.569000" cy="130.595000" r="0.600000" /> 
</g>
<g style="fill:#000000; fill-opacity:1.000000; stroke:none;">
<circle cx="153.569000" cy="120.595000" r="0.600000" /> 
</g>
<g style="fill:#000000; fill-opacity:1.000000; stroke:none;">
<circle cx="148.569000" cy="125.595000" r="0.600000" /> 
<path style="fill:#000000; fill-opacity:1.000000; stroke:none;fill-rule:evenodd;"
d="M 149.819000,129.695000
149.819000,131.495000
147.319000,131.495000
147.319000,129.695000
Z" /> 
<path style="fill:#000000; fill-opacity:1.000000; stroke:none;fill-rule:evenodd;"
d="M 149.819000,127.195000
149.819000,128.995000
147.319000,128.995000
147.319000,127.195000
Z" /> 
<path style="fill:#000000; fill-opacity:1.000000; stroke:none;fill-rule:evenodd;"
d="M 154.469000,124.345000
154.469000,126.845000
152.669000,126.845000
152.669000,124.345000
Z" /> 
<path style="fill:#000000; fill-opacity:1.000000; stroke:none;fill-rule:evenodd;"
d="M 149.819000,119.695000
149.819000,121.495000
147.319000,121.495000
147.319000,119.695000
Z" /> 
<path style="fill:#000000; fill-opacity:1.000000; stroke:none;fill-rule:evenodd;"
d="M 149.819000,122.195000
149.819000,123.995000
147.319000,123.995000
147.319000,122.195000
Z" /> 
<path style="fill:#000000; fill-opacity:1.000000; stroke:none;fill-rule:evenodd;"
d="M 65.850000,153.310000
65.850000,155.010000
64.150000,155.010000
64.150000,153.310000
Z" /> 
</g>
<g style="fill:#000000; fill-opacity:1.000000; stroke:none;">
<circle cx="62.460000" cy="154.160000" r="0.850000" /> 
</g>
<g style="fill:#000000; fill-opacity:1.000000; stroke:none;">
<circle cx="65.000000" cy="151.620000" r="0.850000" /> 
</g>
<g style="fill:#000000; fill-opacity:1.000000; stroke:none;">
<circle cx="62.460000" cy="151.620000" r="0.850000" /> 
</g>
<g style="fill:#000000; fill-opacity:1.000000; stroke:none;">
<circle cx="65.000000" cy="149.080000" r="0.850000" /> 
</g>
<g style="fill:#000000; fill-opacity:1.000000; stroke:none;">
<circle cx="62.460000" cy="149.080000" r="0.850000" /> 
</g>
<g style="fill:#000000; fill-opacity:1.000000; stroke:none;">
<circle cx="65.000000" cy="146.540000" r="0.850000" /> 
</g>
<g style="fill:#000000; fill-opacity:1.000000; stroke:none;">
<circle cx="62.460000" cy="146.540000" r="0.850000" /> 
</g>
<g style="fill:#000000; fill-opacity:1.000000; stroke:none;">
<circle cx="65.000000" cy="144.000000" r="0.850000" /> 
</g>
<g style="fill:#000000; fill-opacity:1.000000; stroke:none;">
<circle cx="62.460000" cy="144.000000" r="0.850000" /> 
</g>
<g style="fill:#000000; fill-opacity:1.000000; stroke:none;">
<circle cx="65.000000" cy="141.460000" r="0.850000" /> 
</g>
<g style="fill:#000000; fill-opacity:1.000000; stroke:none;">
<circle cx="62.460000" cy="141.460000" r="0.850000" /> 
</g>
<g style="fill:#000000; fill-opacity:1.000000; stroke:none;">
<circle cx="65.032000" cy="131.882000" r="1.600000" /> 
<path style="fill:#000000; fill-opacity:1.000000; stroke:none;fill-rule:evenodd;"
d="M 62.350000,164.350000
60.650000,164.350000
60.650000,162.650000
62.350000,162.650000
Z" /> 
</g>
<g style="fill:#000000; fill-opacity:1.000000; stroke:none;">
<circle cx="64.040000" cy="163.500000" r="0.850000" /> 
<circle cx="66.580000" cy="163.500000" r="0.850000" /> 
<circle cx="69.120000" cy="163.500000" r="0.850000" /> 
<circle cx="71.660000" cy="163.500000" r="0.850000" /> 
<circle cx="74.200000" cy="163.500000" r="0.850000" /> 
<circle cx="76.740000" cy="163.500000" r="0.850000" /> 
<circle cx="79.280000" cy="163.500000" r="0.850000" /> 
<circle cx="81.820000" cy="163.500000" r="0.850000" /> 
<circle cx="84.360000" cy="163.500000" r="0.850000" /> 
<circle cx="86.900000" cy="163.500000" r="0.850000" /> 
<circle cx="89.440000" cy="163.500000" r="0.850000" /> 
<circle cx="91.980000" cy="163.500000" r="0.850000" /> 
<circle cx="94.520000" cy="163.500000" r="0.850000" /> 
<circle cx="97.060000" cy="163.500000" r="0.850000" /> 
<circle cx="99.600000" cy="163.500000" r="0.850000" /> 
<circle cx="102.140000" cy="163.500000" r="0.850000" /> 
<circle cx="104.680000" cy="163.500000" r="0.850000" /> 
<circle cx="107.220000" cy="163.500000" r="0.850000" /> 
<circle cx="109.760000" cy="163.500000" r="0.850000" /> 
<circle cx="112.300000" cy="163.500000" r="0.850000" /> 
<circle cx="114.840000" cy="163.500000" r="0.850000" /> 
<circle cx="117.380000" cy="163.500000" r="0.850000" /> 
<circle cx="119.920000" cy="163.500000" r="0.850000" /> 
<circle cx="122.460000" cy="163.500000" r="0.850000" /> 
<circle cx="125.000000" cy="163.500000" r="0.850000" /> 
<circle cx="127.540000" cy="163.500000" r="0.850000" /> 
<circle cx="130.080000" cy="163.500000" r="0.850000" /> 
<circle cx="132.620000" cy="163.500000" r="0.850000" /> 
<circle cx="135.160000" cy="163.500000" r="0.850000" /> 
<circle cx="137.700000" cy="163.500000" r="0.850000" /> 
<circle cx="140.240000" cy="163.500000" r="0.850000" /> 
<circle cx="142.780000" cy="163.500000" r="0.850000" /> 
<circle cx="145.320000" cy="163.500000" r="0.850000" /> 
<circle cx="147.860000" cy="163.500000" r="0.850000" /> 
<circle cx="150.400000" cy="163.500000" r="0.850000" /> 
<circle cx="152.940000" cy="163.500000" r="0.850000" /> 
<circle cx="155.480000" cy="163.500000" r="0.850000" /> 
<circle cx="158.020000" cy="163.500000" r="0.850000" /> 
<path style="fill:#000000; fill-opacity:1.000000; stroke:none;fill-rule:evenodd;"
d="M 80.135000,156.025000
80.077597,156.013582
80.028934,155.981066
79.996418,155.932403
79.985000,155.875000
79.985000,154.125000
79.996418,154.067597
80.028934,154.018934
80.077597,153.986418
80.135000,153.975000
80.435000,153.975000
80.492403,153.986418
80.541066,154.018934
80.573582,154.067597
80.585000,154.125000
80.585000,155.875000
80.573582,155.932403
80.541066,155.981066
80.492403,156.013582
80.435000,156.025000
Z" /> 
<path style="fill:#000000; fill-opacity:1.000000; stroke:none;fill-rule:evenodd;"
d="M 81.405000,156.025000
81.347597,156.013582
81.298934,155.981066
81.266418,155.932403
81.255000,155.875000
81.255000,154.125000
81.266418,154.067597
81.298934,154.018934
81.347597,153.986418
81.405000,153.975000
81.705000,153.975000
81.762403,153.986418
81.811066,154.018934
81.843582,154.067597
81.855000,154.125000
81.855000,155.875000
81.843582,155.932403
81.811066,155.981066
81.762403,156.013582
81.705000,156.025000
Z" /> 
<path style="fill:#000000; fill-opacity:1.000000; stroke:none;fill-rule:evenodd;"
d="M 82.675000,156.025000
82.617597,156.013582
82.568934,155.981066
82.536418,155.932403
82.525000,155.875000
82.525000,154.125000
82.536418,154.067597
82.568934,154.018934
82.617597,153.986418
82.675000,153.975000
82.975000,153.975000
83.032403,153.986418
83.081066,154.018934
83.113582,154.067597
83.125000,154.125000
83.125000,155.875000
83.113582,155.932403
83.081066,155.981066
83.032403,156.013582
82.975000,156.025000
Z" /> 
<path style="fill:#000000; fill-opacity:1.000000; stroke:none;fill-rule:evenodd;"
d="M 83.945000,156.025000
83.887597,156.013582
83.838934,155.981066
83.806418,155.932403
83.795000,155.875000
83.795000,154.125000
83.806418,154.067597
83.838934,154.018934
83.887597,153.986418
83.945000,153.975000
84.245000,153.975000
84.302403,153.986418
84.351066,154.018934
84.383582,154.067597
84.395000,154.125000
84.395000,155.875000
84.383582,155.932403
84.351066,155.981066
84.302403,156.013582
84.245000,156.025000
Z" /> 
<path style="fill:#000000; fill-opacity:1.000000; stroke:none;fill-rule:evenodd;"
d="M 85.215000,156.025000
85.157597,156.013582
85.108934,155.981066
85.076418,155.932403
85.065000,155.875000
85.065000,154.125000
85.076418,154.067597
85.108934,154.018934
85.157597,153.986418
85.215000,153.975000
85.515000,153.975000
85.572403,153.986418
85.621066,154.018934
85.653582,154.067597
85.665000,154.125000
85.665000,155.875000
85.653582,155.932403
85.621066,155.981066
85.572403,156.013582
85.515000,156.025000
Z" /> 
<path style="fill:#000000; fill-opacity:1.000000; stroke:none;fill-rule:evenodd;"
d="M 86.485000,156.025000
86.427597,156.013582
86.378934,155.981066
86.346418,155.932403
86.335000,155.875000
86.335000,154.125000
86.346418,154.067597
86.378934,154.018934
86.427597,153.986418
86.485000,153.975000
86.785000,153.975000
86.842403,153.986418
86.891066,154.018934
86.923582,154.067597
86.935000,154.125000
86.935000,155.875000
86.923582,155.932403
86.891066,155.981066
86.842403,156.013582
86.785000,156.025000
Z" /> 
<path style="fill:#000000; fill-opacity:1.000000; stroke:none;fill-rule:evenodd;"
d="M 87.755000,156.025000
87.697597,156.013582
87.648934,155.981066
87.616418,155.932403
87.605000,155.875000
87.605000,154.125000
87.616418,154.067597
87.648934,154.018934
87.697597,153.986418
87.755000,153.975000
88.055000,153.975000
88.112403,153.986418
88.161066,154.018934
88.193582,154.067597
88.205000,154.125000
88.205000,155.875000
88.193582,155.932403
88.161066,155.981066
88.112403,156.013582
88.055000,156.025000
Z" /> 
<path style="fill:#000000; fill-opacity:1.000000; stroke:none;fill-rule:evenodd;"
d="M 89.025000,156.025000
88.967597,156.013582
88.918934,155.981066
88.886418,155.932403
88.875000,155.875000
88.875000,154.125000
88.886418,154.067597
88.918934,154.018934
88.967597,153.986418
89.025000,153.975000
89.325000,153.975000
89.382403,153.986418
89.431066,154.018934
89.463582,154.067597
89.475000,154.125000
89.475000,155.875000
89.463582,155.932403
89.431066,155.981066
89.382403,156.013582
89.325000,156.025000
Z" /> 
<path style="fill:#000000; fill-opacity:1.000000; stroke:none;fill-rule:evenodd;"
d="M 90.295000,156.025000
90.237597,156.013582
90.188934,155.981066
90.156418,155.932403
90.145000,155.875000
90.145000,154.125000
90.156418,154.067597
90.188934,154.018934
90.237597,153.986418
90.295000,153.975000
90.595000,153.975000
90.652403,153.986418
90.701066,154.018934
90.733582,154.067597
90.745000,154.125000
90.745000,155.875000
90.733582,155.932403
90.701066,155.981066
90.652403,156.013582
90.595000,156.025000
Z" /> 
<path style="fill:#000000; fill-opacity:1.000000; stroke:none;fill-rule:evenodd;"
d="M 91.565000,156.025000
91.507597,156.013582
91.458934,155.981066
91.426418,155.932403
91.415000,155.875000
91.415000,154.125000
91.426418,154.067597
91.458934,154.018934
91.507597,153.986418
91.565000,153.975000
91.865000,153.975000
91.922403,153.986418
91.971066,154.018934
92.003582,154.067597
92.015000,154.125000
92.015000,155.875000
92.003582,155.932403
91.971066,155.981066
91.922403,156.013582
91.865000,156.025000
Z" /> 
<path style="fill:#000000; fill-opacity:1.000000; stroke:none;fill-rule:evenodd;"
d="M 91.565000,146.725000
91.507597,146.713582
91.458934,146.681066
91.426418,146.632403
91.415000,146.575000
91.415000,144.825000
91.426418,144.767597
91.458934,144.718934
91.507597,144.686418
91.565000,144.675000
91.865000,144.675000
91.922403,144.686418
91.971066,144.718934
92.003582,144.767597
92.015000,144.825000
92.015000,146.575000
92.003582,146.632403
91.971066,146.681066
91.922403,146.713582
91.865000,146.725000
Z" /> 
<path style="fill:#000000; fill-opacity:1.000000; stroke:none;fill-rule:evenodd;"
d="M 90.295000,146.725000
90.237597,146.713582
90.188934,146.681066
90.156418,146.632403
90.145000,146.575000
90.145000,144.825000
90.156418,144.767597
90.188934,144.718934
90.237597,144.686418
90.295000,144.675000
90.595000,144.675000
90.652403,144.686418
90.701066,144.718934
90.733582,144.767597
90.745000,144.825000
90.745000,146.575000
90.733582,146.632403
90.701066,146.681066
90.652403,146.713582
90.595000,146.725000
Z" /> 
<path style="fill:#000000; fill-opacity:1.000000; stroke:none;fill-rule:evenodd;"
d="M 89.025000,146.725000
88.967597,146.713582
88.918934,146.681066
88.886418,146.632403
88.875000,146.575000
88.875000,144.825000
88.886418,144.767597
88.918934,144.718934
88.967597,144.686418
89.025000,144.675000
89.325000,144.675000
89.382403,144.686418
89.431066,144.718934
89.463582,144.767597
89.475000,144.825000
89.475000,146.575000
89.463582,146.632403
89.431066,146.681066
89.382403,146.713582
89.325000,146.725000
Z" /> 
<path style="fill:#000000; fill-opacity:1.000000; stroke:none;fill-rule:evenodd;"
d="M 87.755000,146.725000
87.697597,146.713582
87.648934,146.681066
87.616418,146.632403
87.605000,146.575000
87.605000,144.825000
87.616418,144.767597
87.648934,144.718934
87.697597,144.686418
87.755000,144.675000
88.055000,144.675000
88.112403,144.686418
88.161066,144.718934
88.193582,144.767597
88.205000,144.825000
88.205000,146.575000
88.193582,146.632403
88.161066,146.681066
88.112403,146.713582
88.055000,146.725000
Z" /> 
<path style="fill:#000000; fill-opacity:1.000000; stroke:none;fill-rule:evenodd;"
d="M 86.485000,146.725000
86.427597,146.713582
86.378934,146.681066
86.346418,146.632403
86.335000,146.575000
86.335000,144.825000
86.346418,144.767597
86.378934,144.718934
86.427597,144.686418
86.485000,144.675000
86.785000,144.675000
86.842403,144.686418
86.891066,144.718934
86.923582,144.767597
86.935000,144.825000
86.935000,146.575000
86.923582,146.632403
86.891066,146.681066
86.842403,146.713582
86.785000,146.725000
Z" /> 
<path style="fill:#000000; fill-opacity:1.000000; stroke:none;fill-rule:evenodd;"
d="M 85.215000,146.725000
85.157597,146.713582
85.108934,146.681066
85.076418,146.632403
85.065000,146.575000
85.065000,144.825000
85.076418,144.767597
85.108934,144.718934
85.157597,144.686418
85.215000,144.675000
85.515000,144.675000
85.572403,144.686418
85.621066,144.718934
85.653582,144.767597
85.665000,144.825000
85.665000,146.575000
85.653582,146.632403
85.621066,146.681066
85.572403,146.713582
85.515000,146.725000
Z" /> 
<path style="fill:#000000; fill-opacity:1.000000; stroke:none;fill-rule:evenodd;"
d="M 83.945000,146.725000
83.887597,146.713582
83.838934,146.681066
83.806418,146.632403
83.795000,146.575000
83.795000,144.825000
83.806418,144.767597
83.838934,144.718934
83.887597,144.686418
83.945000,144.675000
84.245000,144.675000
84.302403,144.686418
84.351066,144.718934
84.383582,144.767597
84.395000,144.825000
84.395000,146.575000
84.383582,146.632403
84.351066,146.681066
84.302403,146.713582
84.245000,146.725000
Z" /> 
<path style="fill:#000000; fill-opacity:1.000000; stroke:none;fill-rule:evenodd;"
d="M 82.675000,146.725000
82.617597,146.713582
82.568934,146.681066
82.536418,146.632403
82.525000,146.575000
82.525000,144.825000
82.536418,144.767597
82.568934,144.718934
82.617597,144.686418
82.675000,144.675000
82.975000,144.675000
83.032403,144.686418
83.081066,144.718934
83.113582,144.767597
83.125000,144.825000
83.125000,146.575000
83.113582,146.632403
83.081066,146.681066
83.032403,146.713582
82.975000,146.725000
Z" /> 
<path style="fill:#000000; fill-opacity:1.000000; stroke:none;fill-rule:evenodd;"
d="M 81.405000,146.725000
81.347597,146.713582
81.298934,146.681066
81.266418,146.632403
81.255000,146.575000
81.255000,144.825000
81.266418,144.767597
81.298934,144.718934
81.347597,144.686418
81.405000,144.675000
81.705000,144.675000
81.762403,144.686418
81.811066,144.718934
81.843582,144.767597
81.855000,144.825000
81.855000,146.575000
81.843582,146.632403
81.811066,146.681066
81.762403,146.713582
81.705000,146.725000
Z" /> 
<path style="fill:#000000; fill-opacity:1.000000; stroke:none;fill-rule:evenodd;"
d="M 80.135000,146.725000
80.077597,146.713582
80.028934,146.681066
79.996418,146.632403
79.985000,146.575000
79.985000,144.825000
79.996418,144.767597
80.028934,144.718934
80.077597,144.686418
80.135000,144.675000
80.435000,144.675000
80.492403,144.686418
80.541066,144.718934
80.573582,144.767597
80.585000,144.825000
80.585000,146.575000
80.573582,146.632403
80.541066,146.681066
80.492403,146.713582
80.435000,146.725000
Z" /> 
<path style="fill:#000000; fill-opacity:1.000000; stroke:none;fill-rule:evenodd;"
d="M 121.250000,128.655197
121.336104,128.672324
121.409099,128.721098
121.457873,128.794093
121.475000,128.880197
121.475000,129.330197
121.457873,129.416301
121.409099,129.489296
121.336104,129.538070
121.250000,129.555197
120.750000,129.555197
120.663896,129.538070
120.590901,129.489296
120.542127,129.416301
120.525000,129.330197
120.525000,128.880197
120.542127,128.794093
120.590901,128.721098
120.663896,128.672324
120.750000,128.655197
Z" /> 
<path style="fill:#000000; fill-opacity:1.000000; stroke:none;fill-rule:evenodd;"
d="M 121.250000,130.205197
121.336104,130.222324
121.409099,130.271098
121.457873,130.344093
121.475000,130.430197
121.475000,130.880197
121.457873,130.966301
121.409099,131.039296
121.336104,131.088070
121.250000,131.105197
120.750000,131.105197
120.663896,131.088070
120.590901,131.039296
120.542127,130.966301
120.525000,130.880197
120.525000,130.430197
120.542127,130.344093
120.590901,130.271098
120.663896,130.222324
120.750000,130.205197
Z" /> 
<path style="fill:#000000; fill-opacity:1.000000; stroke:none;fill-rule:evenodd;"
d="M 108.050000,127.800000
108.145671,127.819030
108.226777,127.873223
108.280970,127.954329
108.300000,128.050000
108.300000,131.050000
108.280970,131.145671
108.226777,131.226777
108.145671,131.280970
108.050000,131.300000
106.950000,131.300000
106.854329,131.280970
106.773223,131.226777
106.719030,131.145671
106.700000,131.050000
106.700000,128.050000
106.719030,127.954329
106.773223,127.873223
106.854329,127.819030
106.950000,127.800000
Z" /> 
<path style="fill:#000000; fill-opacity:1.000000; stroke:none;fill-rule:evenodd;"
d="M 108.050000,133.200000
108.145671,133.219030
108.226777,133.273223
108.280970,133.354329
108.300000,133.450000
108.300000,136.450000
108.280970,136.545671
108.226777,136.626777
108.145671,136.680970
108.050000,136.700000
106.950000,136.700000
106.854329,136.680970
106.773223,136.626777
106.719030,136.545671
106.700000,136.450000
106.700000,133.450000
106.719030,133.354329
106.773223,133.273223
106.854329,133.219030
106.950000,133.200000
Z" /> 
<path style="fill:#000000; fill-opacity:1.000000; stroke:none;fill-rule:evenodd;"
d="M 119.000000,128.655197
119.086104,128.672324
119.159099,128.721098
119.207873,128.794093
119.225000,128.880197
119.225000,129.330197
119.207873,129.416301
119.159099,129.489296
119.086104,129.538070
119.000000,129.555197
118.500000,129.555197
118.413896,129.538070
118.340901,129.489296
118.292127,129.416301
118.275000,129.330197
118.275000,128.880197
118.292127,128.794093
118.340901,128.721098
118.413896,128.672324
118.500000,128.655197
Z" /> 
<path style="fill:#000000; fill-opacity:1.000000; stroke:none;fill-rule:evenodd;"
d="M 119.000000,130.205197
119.086104,130.222324
119.159099,130.271098
119.207873,130.344093
119.225000,130.430197
119.225000,130.880197
119.207873,130.966301
119.159099,131.039296
119.086104,131.088070
119.000000,131.105197
118.500000,131.105197
118.413896,131.088070
118.340901,131.039296
118.292127,130.966301
118.275000,130.880197
118.275000,130.430197
118.292127,130.344093
118.340901,130.271098
118.413896,130.222324
118.500000,130.205197
Z" /> 
<path style="fill:#000000; fill-opacity:1.000000; stroke:none;fill-rule:evenodd;"
d="M 127.377500,156.150000
127.324881,156.139533
127.280273,156.109727
127.250467,156.065119
127.240000,156.012500
127.240000,154.287500
127.250467,154.234881
127.280273,154.190273
127.324881,154.160467
127.377500,154.150000
127.652500,154.150000
127.705119,154.160467
127.749727,154.190273
127.779533,154.234881
127.790000,154.287500
127.790000,156.012500
127.779533,156.065119
127.749727,156.109727
127.705119,156.139533
127.652500,156.150000
Z" /> 
<path style="fill:#000000; fill-opacity:1.000000; stroke:none;fill-rule:evenodd;"
d="M 128.647500,156.150000
128.594881,156.139533
128.550273,156.109727
128.520467,156.065119
128.510000,156.012500
128.510000,154.287500
128.520467,154.234881
128.550273,154.190273
128.594881,154.160467
128.647500,154.150000
128.922500,154.150000
128.975119,154.160467
129.019727,154.190273
129.049533,154.234881
129.060000,154.287500
129.060000,156.012500
129.049533,156.065119
129.019727,156.109727
128.975119,156.139533
128.922500,156.150000
Z" /> 
<path style="fill:#000000; fill-opacity:1.000000; stroke:none;fill-rule:evenodd;"
d="M 129.917500,156.150000
129.864881,156.139533
129.820273,156.109727
129.790467,156.065119
129.780000,156.012500
129.780000,154.287500
129.790467,154.234881
129.820273,154.190273
129.864881,154.160467
129.917500,154.150000
130.192500,154.150000
130.245119,154.160467
130.289727,154.190273
130.319533,154.234881
130.330000,154.287500
130.330000,156.012500
130.319533,156.065119
130.289727,156.109727
130.245119,156.139533
130.192500,156.150000
Z" /> 
<path style="fill:#000000; fill-opacity:1.000000; stroke:none;fill-rule:evenodd;"
d="M 131.187500,156.150000
131.134881,156.139533
131.090273,156.109727
131.060467,156.065119
131.050000,156.012500
131.050000,154.287500
131.060467,154.234881
131.090273,154.190273
131.134881,154.160467
131.187500,154.150000
131.462500,154.150000
131.515119,154.160467
131.559727,154.190273
131.589533,154.234881
131.600000,154.287500
131.600000,156.012500
131.589533,156.065119
131.559727,156.109727
131.515119,156.139533
131.462500,156.150000
Z" /> 
<path style="fill:#000000; fill-opacity:1.000000; stroke:none;fill-rule:evenodd;"
d="M 132.457500,156.150000
132.404881,156.139533
132.360273,156.109727
132.330467,156.065119
132.320000,156.012500
132.320000,154.287500
132.330467,154.234881
132.360273,154.190273
132.404881,154.160467
132.457500,154.150000
132.732500,154.150000
132.785119,154.160467
132.829727,154.190273
132.859533,154.234881
132.870000,154.287500
132.870000,156.012500
132.859533,156.065119
132.829727,156.109727
132.785119,156.139533
132.732500,156.150000
Z" /> 
<path style="fill:#000000; fill-opacity:1.000000; stroke:none;fill-rule:evenodd;"
d="M 133.727500,156.150000
133.674881,156.139533
133.630273,156.109727
133.600467,156.065119
133.590000,156.012500
133.590000,154.287500
133.600467,154.234881
133.630273,154.190273
133.674881,154.160467
133.727500,154.150000
134.002500,154.150000
134.055119,154.160467
134.099727,154.190273
134.129533,154.234881
134.140000,154.287500
134.140000,156.012500
134.129533,156.065119
134.099727,156.109727
134.055119,156.139533
134.002500,156.150000
Z" /> 
<path style="fill:#000000; fill-opacity:1.000000; stroke:none;fill-rule:evenodd;"
d="M 134.997500,156.150000
134.944881,156.139533
134.900273,156.109727
134.870467,156.065119
134.860000,156.012500
134.860000,154.287500
134.870467,154.234881
134.900273,154.190273
134.944881,154.160467
134.997500,154.150000
135.272500,154.150000
135.325119,154.160467
135.369727,154.190273
135.399533,154.234881
135.410000,154.287500
135.410000,156.012500
135.399533,156.065119
135.369727,156.109727
135.325119,156.139533
135.272500,156.150000
Z" /> 
<path style="fill:#000000; fill-opacity:1.000000; stroke:none;fill-rule:evenodd;"
d="M 136.267500,156.150000
136.214881,156.139533
136.170273,156.109727
136.140467,156.065119
136.130000,156.012500
136.130000,154.287500
136.140467,154.234881
136.170273,154.190273
136.214881,154.160467
136.267500,154.150000
136.542500,154.150000
136.595119,154.160467
136.639727,154.190273
136.669533,154.234881
136.680000,154.287500
136.680000,156.012500
136.669533,156.065119
136.639727,156.109727
136.595119,156.139533
136.542500,156.150000
Z" /> 
<path style="fill:#000000; fill-opacity:1.000000; stroke:none;fill-rule:evenodd;"
d="M 137.537500,156.150000
137.484881,156.139533
137.440273,156.109727
137.410467,156.065119
137.400000,156.012500
137.400000,154.287500
137.410467,154.234881
137.440273,154.190273
137.484881,154.160467
137.537500,154.150000
137.812500,154.150000
137.865119,154.160467
137.909727,154.190273
137.939533,154.234881
137.950000,154.287500
137.950000,156.012500
137.939533,156.065119
137.909727,156.109727
137.865119,156.139533
137.812500,156.150000
Z" /> 
<path style="fill:#000000; fill-opacity:1.000000; stroke:none;fill-rule:evenodd;"
d="M 138.807500,156.150000
138.754881,156.139533
138.710273,156.109727
138.680467,156.065119
138.670000,156.012500
138.670000,154.287500
138.680467,154.234881
138.710273,154.190273
138.754881,154.160467
138.807500,154.150000
139.082500,154.150000
139.135119,154.160467
139.179727,154.190273
139.209533,154.234881
139.220000,154.287500
139.220000,156.012500
139.209533,156.065119
139.179727,156.109727
139.135119,156.139533
139.082500,156.150000
Z" /> 
<path style="fill:#000000; fill-opacity:1.000000; stroke:none;fill-rule:evenodd;"
d="M 140.077500,156.150000
140.024881,156.139533
139.980273,156.109727
139.950467,156.065119
139.940000,156.012500
139.940000,154.287500
139.950467,154.234881
139.980273,154.190273
140.024881,154.160467
140.077500,154.150000
140.352500,154.150000
140.405119,154.160467
140.449727,154.190273
140.479533,154.234881
140.490000,154.287500
140.490000,156.012500
140.479533,156.065119
140.449727,156.109727
140.405119,156.139533
140.352500,156.150000
Z" /> 
<path style="fill:#000000; fill-opacity:1.000000; stroke:none;fill-rule:evenodd;"
d="M 141.347500,156.150000
141.294881,156.139533
141.250273,156.109727
141.220467,156.065119
141.210000,156.012500
141.210000,154.287500
141.220467,154.234881
141.250273,154.190273
141.294881,154.160467
141.347500,154.150000
141.622500,154.150000
141.675119,154.160467
141.719727,154.190273
141.749533,154.234881
141.760000,154.287500
141.760000,156.012500
141.749533,156.065119
141.719727,156.109727
141.675119,156.139533
141.622500,156.150000
Z" /> 
<path style="fill:#000000; fill-opacity:1.000000; stroke:none;fill-rule:evenodd;"
d="M 141.347500,146.850000
141.294881,146.839533
141.250273,146.809727
141.220467,146.765119
141.210000,146.712500
141.210000,144.987500
141.220467,144.934881
141.250273,144.890273
141.294881,144.860467
141.347500,144.850000
141.622500,144.850000
141.675119,144.860467
141.719727,144.890273
141.749533,144.934881
141.760000,144.987500
141.760000,146.712500
141.749533,146.765119
141.719727,146.809727
141.675119,146.839533
141.622500,146.850000
Z" /> 
<path style="fill:#000000; fill-opacity:1.000000; stroke:none;fill-rule:evenodd;"
d="M 140.077500,146.850000
140.024881,146.839533
139.980273,146.809727
139.950467,146.765119
139.940000,146.712500
139.940000,144.987500
139.950467,144.934881
139.980273,144.890273
140.024881,144.860467
140.077500,144.850000
140.352500,144.850000
140.405119,144.860467
140.449727,144.890273
140.479533,144.934881
140.490000,144.987500
140.490000,146.712500
140.479533,146.765119
140.449727,146.809727
140.405119,146.839533
140.352500,146.850000
Z" /> 
<path style="fill:#000000; fill-opacity:1.000000; stroke:none;fill-rule:evenodd;"
d="M 138.807500,146.850000
138.754881,146.839533
138.710273,146.809727
138.680467,146.765119
138.670000,146.712500
138.670000,144.987500
138.680467,144.934881
138.710273,144.890273
138.754881,144.860467
138.807500,144.850000
139.082500,144.850000
139.135119,144.860467
139.179727,144.890273
139.209533,144.934881
139.220000,144.987500
139.220000,146.712500
139.209533,146.765119
139.179727,146.809727
139.135119,146.839533
139.082500,146.850000
Z" /> 
<path style="fill:#000000; fill-opacity:1.000000; stroke:none;fill-rule:evenodd;"
d="M 137.537500,146.850000
137.484881,146.839533
137.440273,146.809727
137.410467,146.765119
137.400000,146.712500
137.400000,144.987500
137.410467,144.934881
137.440273,144.890273
137.484881,144.860467
137.537500,144.850000
137.812500,144.850000
137.865119,144.860467
137.909727,144.890273
137.939533,144.934881
137.950000,144.987500
137.950000,146.712500
137.939533,146.765119
137.909727,146.809727
137.865119,146.839533
137.812500,146.850000
Z" /> 
<path style="fill:#000000; fill-opacity:1.000000; stroke:none;fill-rule:evenodd;"
d="M 136.267500,146.850000
136.214881,146.839533
136.170273,146.809727
136.140467,146.765119
136.130000,146.712500
136.130000,144.987500
136.140467,144.934881
136.170273,144.890273
136.214881,144.860467
136.267500,144.850000
136.542500,144.850000
136.595119,144.860467
136.639727,144.890273
136.669533,144.934881
136.680000,144.987500
136.680000,146.712500
136.669533,146.765119
136.639727,146.809727
136.595119,146.839533
136.542500,146.850000
Z" /> 
<path style="fill:#000000; fill-opacity:1.000000; stroke:none;fill-rule:evenodd;"
d="M 134.997500,146.850000
134.944881,146.839533
134.900273,146.809727
134.870467,146.765119
134.860000,146.712500
134.860000,144.987500
134.870467,144.934881
134.900273,144.890273
134.944881,144.860467
134.997500,144.850000
135.272500,144.850000
135.325119,144.860467
135.369727,144.890273
135.399533,144.934881
135.410000,144.987500
135.410000,146.712500
135.399533,146.765119
135.369727,146.809727
135.325119,146.839533
135.272500,146.850000
Z" /> 
<path style="fill:#000000; fill-opacity:1.000000; stroke:none;fill-rule:evenodd;"
d="M 133.727500,146.850000
133.674881,146.839533
133.630273,146.809727
133.600467,146.765119
133.590000,146.712500
133.590000,144.987500
133.600467,144.934881
133.630273,144.890273
133.674881,144.860467
133.727500,144.850000
134.002500,144.850000
134.055119,144.860467
134.099727,144.890273
134.129533,144.934881
134.140000,144.987500
134.140000,146.712500
134.129533,146.765119
134.099727,146.809727
134.055119,146.839533
134.002500,146.850000
Z" /> 
<path style="fill:#000000; fill-opacity:1.000000; stroke:none;fill-rule:evenodd;"
d="M 132.457500,146.850000
132.404881,146.839533
132.360273,146.809727
132.330467,146.765119
132.320000,146.712500
132.320000,144.987500
132.330467,144.934881
132.360273,144.890273
132.404881,144.860467
132.457500,144.850000
132.732500,144.850000
132.785119,144.860467
132.829727,144.890273
132.859533,144.934881
132.870000,144.987500
132.870000,146.712500
132.859533,146.765119
132.829727,146.809727
132.785119,146.839533
132.732500,146.850000
Z" /> 
<path style="fill:#000000; fill-opacity:1.000000; stroke:none;fill-rule:evenodd;"
d="M 131.187500,146.850000
131.134881,146.839533
131.090273,146.809727
131.060467,146.765119
131.050000,146.712500
131.050000,144.987500
131.060467,144.934881
131.090273,144.890273
131.134881,144.860467
131.187500,144.850000
131.462500,144.850000
131.515119,144.860467
131.559727,144.890273
131.589533,144.934881
131.600000,144.987500
131.600000,146.712500
131.589533,146.765119
131.559727,146.809727
131.515119,146.839533
131.462500,146.850000
Z" /> 
<path style="fill:#000000; fill-opacity:1.000000; stroke:none;fill-rule:evenodd;"
d="M 129.917500,146.850000
129.864881,146.839533
129.820273,146.809727
129.790467,146.765119
129.780000,146.712500
129.780000,144.987500
129.790467,144.934881
129.820273,144.890273
129.864881,144.860467
129.917500,144.850000
130.192500,144.850000
130.245119,144.860467
130.289727,144.890273
130.319533,144.934881
130.330000,144.987500
130.330000,146.712500
130.319533,146.765119
130.289727,146.809727
130.245119,146.839533
130.192500,146.850000
Z" /> 
<path style="fill:#000000; fill-opacity:1.000000; stroke:none;fill-rule:evenodd;"
d="M 128.647500,146.850000
128.594881,146.839533
128.550273,146.809727
128.520467,146.765119
128.510000,146.712500
128.510000,144.987500
128.520467,144.934881
128.550273,144.890273
128.594881,144.860467
128.647500,144.850000
128.922500,144.850000
128.975119,144.860467
129.019727,144.890273
129.049533,144.934881
129.060000,144.987500
129.060000,146.712500
129.049533,146.765119
129.019727,146.809727
128.975119,146.839533
128.922500,146.850000
Z" /> 
<path style="fill:#000000; fill-opacity:1.000000; stroke:none;fill-rule:evenodd;"
d="M 127.377500,146.850000
127.324881,146.839533
127.280273,146.809727
127.250467,146.765119
127.240000,146.712500
127.240000,144.987500
127.250467,144.934881
127.280273,144.890273
127.324881,144.860467
127.377500,144.850000
127.652500,144.850000
127.705119,144.860467
127.749727,144.890273
127.779533,144.934881
127.790000,144.987500
127.790000,146.712500
127.779533,146.765119
127.749727,146.809727
127.705119,146.839533
127.652500,146.850000
Z" /> 
<path style="fill:#000000; fill-opacity:1.000000; stroke:none;fill-rule:evenodd;"
d="M 125.200000,155.750000
125.182873,155.836104
125.134099,155.909099
125.061104,155.957873
124.975000,155.975000
124.525000,155.975000
124.438896,155.957873
124.365901,155.909099
124.317127,155.836104
124.300000,155.750000
124.300000,155.250000
124.317127,155.163896
124.365901,155.090901
124.438896,155.042127
124.525000,155.025000
124.975000,155.025000
125.061104,155.042127
125.134099,155.090901
125.182873,155.163896
125.200000,155.250000
Z" /> 
<path style="fill:#000000; fill-opacity:1.000000; stroke:none;fill-rule:evenodd;"
d="M 123.650000,155.750000
123.632873,155.836104
123.584099,155.909099
123.511104,155.957873
123.425000,155.975000
122.975000,155.975000
122.888896,155.957873
122.815901,155.909099
122.767127,155.836104
122.750000,155.750000
122.750000,155.250000
122.767127,155.163896
122.815901,155.090901
122.888896,155.042127
122.975000,155.025000
123.425000,155.025000
123.511104,155.042127
123.584099,155.090901
123.632873,155.163896
123.650000,155.250000
Z" /> 
<path style="fill:#000000; fill-opacity:1.000000; stroke:none;fill-rule:evenodd;"
d="M 116.060000,151.750000
116.079030,151.654329
116.133223,151.573223
116.214329,151.519030
116.310000,151.500000
117.610000,151.500000
117.705671,151.519030
117.786777,151.573223
117.840970,151.654329
117.860000,151.750000
117.860000,153.250000
117.840970,153.345671
117.786777,153.426777
117.705671,153.480970
117.610000,153.500000
116.310000,153.500000
116.214329,153.480970
116.133223,153.426777
116.079030,153.345671
116.060000,153.250000
Z" /> 
<path style="fill:#000000; fill-opacity:1.000000; stroke:none;fill-rule:evenodd;"
d="M 121.140000,151.750000
121.159030,151.654329
121.213223,151.573223
121.294329,151.519030
121.390000,151.500000
122.690000,151.500000
122.785671,151.519030
122.866777,151.573223
122.920970,151.654329
122.940000,151.750000
122.940000,153.250000
122.920970,153.345671
122.866777,153.426777
122.785671,153.480970
122.690000,153.500000
121.390000,153.500000
121.294329,153.480970
121.213223,153.426777
121.159030,153.345671
121.140000,153.250000
Z" /> 
<path style="fill:#000000; fill-opacity:1.000000; stroke:none;fill-rule:evenodd;"
d="M 121.140000,147.750000
121.159030,147.654329
121.213223,147.573223
121.294329,147.519030
121.390000,147.500000
122.690000,147.500000
122.785671,147.519030
122.866777,147.573223
122.920970,147.654329
122.940000,147.750000
122.940000,149.250000
122.920970,149.345671
122.866777,149.426777
122.785671,149.480970
122.690000,149.500000
121.390000,149.500000
121.294329,149.480970
121.213223,149.426777
121.159030,149.345671
121.140000,149.250000
Z" /> 
<path style="fill:#000000; fill-opacity:1.000000; stroke:none;fill-rule:evenodd;"
d="M 116.060000,147.750000
116.079030,147.654329
116.133223,147.573223
116.214329,147.519030
116.310000,147.500000
117.610000,147.500000
117.705671,147.519030
117.786777,147.573223
117.840970,147.654329
117.860000,147.750000
117.860000,149.250000
117.840970,149.345671
117.786777,149.426777
117.705671,149.480970
117.610000,149.500000
116.310000,149.500000
116.214329,149.480970
116.133223,149.426777
116.079030,149.345671
116.060000,149.250000
Z" /> 
<path style="fill:#000000; fill-opacity:1.000000; stroke:none;fill-rule:evenodd;"
d="M 113.905000,142.550000
113.847597,142.538582
113.798934,142.506066
113.766418,142.457403
113.755000,142.400000
113.755000,141.100000
113.766418,141.042597
113.798934,140.993934
113.847597,140.961418
113.905000,140.950000
114.205000,140.950000
114.262403,140.961418
114.311066,140.993934
114.343582,141.042597
114.355000,141.100000
114.355000,142.400000
114.343582,142.457403
114.311066,142.506066
114.262403,142.538582
114.205000,142.550000
Z" /> 
<path style="fill:#000000; fill-opacity:1.000000; stroke:none;fill-rule:evenodd;"
d="M 115.175000,142.550000
115.117597,142.538582
115.068934,142.506066
115.036418,142.457403
115.025000,142.400000
115.025000,141.100000
115.036418,141.042597
115.068934,140.993934
115.117597,140.961418
115.175000,140.950000
115.475000,140.950000
115.532403,140.961418
115.581066,140.993934
115.613582,141.042597
115.625000,141.100000
115.625000,142.400000
115.613582,142.457403
115.581066,142.506066
115.532403,142.538582
115.475000,142.550000
Z" /> 
<path style="fill:#000000; fill-opacity:1.000000; stroke:none;fill-rule:evenodd;"
d="M 116.445000,142.550000
116.387597,142.538582
116.338934,142.506066
116.306418,142.457403
116.295000,142.400000
116.295000,141.100000
116.306418,141.042597
116.338934,140.993934
116.387597,140.961418
116.445000,140.950000
116.745000,140.950000
116.802403,140.961418
116.851066,140.993934
116.883582,141.042597
116.895000,141.100000
116.895000,142.400000
116.883582,142.457403
116.851066,142.506066
116.802403,142.538582
116.745000,142.550000
Z" /> 
<path style="fill:#000000; fill-opacity:1.000000; stroke:none;fill-rule:evenodd;"
d="M 117.715000,142.550000
117.657597,142.538582
117.608934,142.506066
117.576418,142.457403
117.565000,142.400000
117.565000,141.100000
117.576418,141.042597
117.608934,140.993934
117.657597,140.961418
117.715000,140.950000
118.015000,140.950000
118.072403,140.961418
118.121066,140.993934
118.153582,141.042597
118.165000,141.100000
118.165000,142.400000
118.153582,142.457403
118.121066,142.506066
118.072403,142.538582
118.015000,142.550000
Z" /> 
<path style="fill:#000000; fill-opacity:1.000000; stroke:none;fill-rule:evenodd;"
d="M 118.985000,142.550000
118.927597,142.538582
118.878934,142.506066
118.846418,142.457403
118.835000,142.400000
118.835000,141.100000
118.846418,141.042597
118.878934,140.993934
118.927597,140.961418
118.985000,140.950000
119.285000,140.950000
119.342403,140.961418
119.391066,140.993934
119.423582,141.042597
119.435000,141.100000
119.435000,142.400000
119.423582,142.457403
119.391066,142.506066
119.342403,142.538582
119.285000,142.550000
Z" /> 
<path style="fill:#000000; fill-opacity:1.000000; stroke:none;fill-rule:evenodd;"
d="M 120.255000,142.550000
120.197597,142.538582
120.148934,142.506066
120.116418,142.457403
120.105000,142.400000
120.105000,141.100000
120.116418,141.042597
120.148934,140.993934
120.197597,140.961418
120.255000,140.950000
120.555000,140.950000
120.612403,140.961418
120.661066,140.993934
120.693582,141.042597
120.705000,141.100000
120.705000,142.400000
120.693582,142.457403
120.661066,142.506066
120.612403,142.538582
120.555000,142.550000
Z" /> 
<path style="fill:#000000; fill-opacity:1.000000; stroke:none;fill-rule:evenodd;"
d="M 121.525000,142.550000
121.467597,142.538582
121.418934,142.506066
121.386418,142.457403
121.375000,142.400000
121.375000,141.100000
121.386418,141.042597
121.418934,140.993934
121.467597,140.961418
121.525000,140.950000
121.825000,140.950000
121.882403,140.961418
121.931066,140.993934
121.963582,141.042597
121.975000,141.100000
121.975000,142.400000
121.963582,142.457403
121.931066,142.506066
121.882403,142.538582
121.825000,142.550000
Z" /> 
<path style="fill:#000000; fill-opacity:1.000000; stroke:none;fill-rule:evenodd;"
d="M 122.795000,142.550000
122.737597,142.538582
122.688934,142.506066
122.656418,142.457403
122.645000,142.400000
122.645000,141.100000
122.656418,141.042597
122.688934,140.993934
122.737597,140.961418
122.795000,140.950000
123.095000,140.950000
123.152403,140.961418
123.201066,140.993934
123.233582,141.042597
123.245000,141.100000
123.245000,142.400000
123.233582,142.457403
123.201066,142.506066
123.152403,142.538582
123.095000,142.550000
Z" /> 
<path style="fill:#000000; fill-opacity:1.000000; stroke:none;fill-rule:evenodd;"
d="M 122.795000,136.050000
122.737597,136.038582
122.688934,136.006066
122.656418,135.957403
122.645000,135.900000
122.645000,134.600000
122.656418,134.542597
122.688934,134.493934
122.737597,134.461418
122.795000,134.450000
123.095000,134.450000
123.152403,134.461418
123.201066,134.493934
123.233582,134.542597
123.245000,134.600000
123.245000,135.900000
123.233582,135.957403
123.201066,136.006066
123.152403,136.038582
123.095000,136.050000
Z" /> 
<path style="fill:#000000; fill-opacity:1.000000; stroke:none;fill-rule:evenodd;"
d="M 121.525000,136.050000
121.467597,136.038582
121.418934,136.006066
121.386418,135.957403
121.375000,135.900000
121.375000,134.600000
121.386418,134.542597
121.418934,134.493934
121.467597,134.461418
121.525000,134.450000
121.825000,134.450000
121.882403,134.461418
121.931066,134.493934
121.963582,134.542597
121.975000,134.600000
121.975000,135.900000
121.963582,135.957403
121.931066,136.006066
121.882403,136.038582
121.825000,136.050000
Z" /> 
<path style="fill:#000000; fill-opacity:1.000000; stroke:none;fill-rule:evenodd;"
d="M 120.255000,136.050000
120.197597,136.038582
120.148934,136.006066
120.116418,135.957403
120.105000,135.900000
120.105000,134.600000
120.116418,134.542597
120.148934,134.493934
120.197597,134.461418
120.255000,134.450000
120.555000,134.450000
120.612403,134.461418
120.661066,134.493934
120.693582,134.542597
120.705000,134.600000
120.705000,135.900000
120.693582,135.957403
120.661066,136.006066
120.612403,136.038582
120.555000,136.050000
Z" /> 
<path style="fill:#000000; fill-opacity:1.000000; stroke:none;fill-rule:evenodd;"
d="M 118.985000,136.050000
118.927597,136.038582
118.878934,136.006066
118.846418,135.957403
118.835000,135.900000
118.835000,134.600000
118.846418,134.542597
118.878934,134.493934
118.927597,134.461418
118.985000,134.450000
119.285000,134.450000
119.342403,134.461418
119.391066,134.493934
119.423582,134.542597
119.435000,134.600000
119.435000,135.900000
119.423582,135.957403
119.391066,136.006066
119.342403,136.038582
119.285000,136.050000
Z" /> 
<path style="fill:#000000; fill-opacity:1.000000; stroke:none;fill-rule:evenodd;"
d="M 117.715000,136.050000
117.657597,136.038582
117.608934,136.006066
117.576418,135.957403
117.565000,135.900000
117.565000,134.600000
117.576418,134.542597
117.608934,134.493934
117.657597,134.461418
117.715000,134.450000
118.015000,134.450000
118.072403,134.461418
118.121066,134.493934
118.153582,134.542597
118.165000,134.600000
118.165000,135.900000
118.153582,135.957403
118.121066,136.006066
118.072403,136.038582
118.015000,136.050000
Z" /> 
<path style="fill:#000000; fill-opacity:1.000000; stroke:none;fill-rule:evenodd;"
d="M 116.445000,136.050000
116.387597,136.038582
116.338934,136.006066
116.306418,135.957403
116.295000,135.900000
116.295000,134.600000
116.306418,134.542597
116.338934,134.493934
116.387597,134.461418
116.445000,134.450000
116.745000,134.450000
116.802403,134.461418
116.851066,134.493934
116.883582,134.542597
116.895000,134.600000
116.895000,135.900000
116.883582,135.957403
116.851066,136.006066
116.802403,136.038582
116.745000,136.050000
Z" /> 
<path style="fill:#000000; fill-opacity:1.000000; stroke:none;fill-rule:evenodd;"
d="M 115.175000,136.050000
115.117597,136.038582
115.068934,136.006066
115.036418,135.957403
115.025000,135.900000
115.025000,134.600000
115.036418,134.542597
115.068934,134.493934
115.117597,134.461418
115.175000,134.450000
115.475000,134.450000
115.532403,134.461418
115.581066,134.493934
115.613582,134.542597
115.625000,134.600000
115.625000,135.900000
115.613582,135.957403
115.581066,136.006066
115.532403,136.038582
115.475000,136.050000
Z" /> 
<path style="fill:#000000; fill-opacity:1.000000; stroke:none;fill-rule:evenodd;"
d="M 113.905000,136.050000
113.847597,136.038582
113.798934,136.006066
113.766418,135.957403
113.755000,135.900000
113.755000,134.600000
113.766418,134.542597
113.798934,134.493934
113.847597,134.461418
113.905000,134.450000
114.205000,134.450000
114.262403,134.461418
114.311066,134.493934
114.343582,134.542597
114.355000,134.600000
114.355000,135.900000
114.343582,135.957403
114.311066,136.006066
114.262403,136.038582
114.205000,136.050000
Z" /> 
<path style="fill:#000000; fill-opacity:1.000000; stroke:none;fill-rule:evenodd;"
d="M 71.775000,153.725000
71.790224,153.648463
71.833579,153.583579
71.898463,153.540224
71.975000,153.525000
72.375000,153.525000
72.451537,153.540224
72.516421,153.583579
72.559776,153.648463
72.575000,153.725000
72.575000,154.275000
72.559776,154.351537
72.516421,154.416421
72.451537,154.459776
72.375000,154.475000
71.975000,154.475000
71.898463,154.459776
71.833579,154.416421
71.790224,154.351537
71.775000,154.275000
Z" /> 
<path style="fill:#000000; fill-opacity:1.000000; stroke:none;fill-rule:evenodd;"
d="M 73.425000,153.725000
73.440224,153.648463
73.483579,153.583579
73.548463,153.540224
73.625000,153.525000
74.025000,153.525000
74.101537,153.540224
74.166421,153.583579
74.209776,153.648463
74.225000,153.725000
74.225000,154.275000
74.209776,154.351537
74.166421,154.416421
74.101537,154.459776
74.025000,154.475000
73.625000,154.475000
73.548463,154.459776
73.483579,154.416421
73.440224,154.351537
73.425000,154.275000
Z" /> 
<path style="fill:#000000; fill-opacity:1.000000; stroke:none;fill-rule:evenodd;"
d="M 119.750000,119.700000
119.663896,119.682873
119.590901,119.634099
119.542127,119.561104
119.525000,119.475000
119.525000,119.025000
119.542127,118.938896
119.590901,118.865901
119.663896,118.817127
119.750000,118.800000
120.250000,118.800000
120.336104,118.817127
120.409099,118.865901
120.457873,118.938896
120.475000,119.025000
120.475000,119.475000
120.457873,119.561104
120.409099,119.634099
120.336104,119.682873
120.250000,119.700000
Z" /> 
<path style="fill:#000000; fill-opacity:1.000000; stroke:none;fill-rule:evenodd;"
d="M 119.750000,118.150000
119.663896,118.132873
119.590901,118.084099
119.542127,118.011104
119.525000,117.925000
119.525000,117.475000
119.542127,117.388896
119.590901,117.315901
119.663896,117.267127
119.750000,117.250000
120.250000,117.250000
120.336104,117.267127
120.409099,117.315901
120.457873,117.388896
120.475000,117.475000
120.475000,117.925000
120.457873,118.011104
120.409099,118.084099
120.336104,118.132873
120.250000,118.150000
Z" /> 
<path style="fill:#000000; fill-opacity:1.000000; stroke:none;fill-rule:evenodd;"
d="M 71.775000,151.225000
71.790224,151.148463
71.833579,151.083579
71.898463,151.040224
71.975000,151.025000
72.375000,151.025000
72.451537,151.040224
72.516421,151.083579
72.559776,151.148463
72.575000,151.225000
72.575000,151.775000
72.559776,151.851537
72.516421,151.916421
72.451537,151.959776
72.375000,151.975000
71.975000,151.975000
71.898463,151.959776
71.833579,151.916421
71.790224,151.851537
71.775000,151.775000
Z" /> 
<path style="fill:#000000; fill-opacity:1.000000; stroke:none;fill-rule:evenodd;"
d="M 73.425000,151.225000
73.440224,151.148463
73.483579,151.083579
73.548463,151.040224
73.625000,151.025000
74.025000,151.025000
74.101537,151.040224
74.166421,151.083579
74.209776,151.148463
74.225000,151.225000
74.225000,151.775000
74.209776,151.851537
74.166421,151.916421
74.101537,151.959776
74.025000,151.975000
73.625000,151.975000
73.548463,151.959776
73.483579,151.916421
73.440224,151.851537
73.425000,151.775000
Z" /> 
<path style="fill:#000000; fill-opacity:1.000000; stroke:none;fill-rule:evenodd;"
d="M 139.275000,122.725000
139.290224,122.648463
139.333579,122.583579
139.398463,122.540224
139.475000,122.525000
139.875000,122.525000
139.951537,122.540224
140.016421,122.583579
140.059776,122.648463
140.075000,122.725000
140.075000,123.275000
140.059776,123.351537
140.016421,123.416421
139.951537,123.459776
139.875000,123.475000
139.475000,123.475000
139.398463,123.459776
139.333579,123.416421
139.290224,123.351537
139.275000,123.275000
Z" /> 
<path style="fill:#000000; fill-opacity:1.000000; stroke:none;fill-rule:evenodd;"
d="M 140.925000,122.725000
140.940224,122.648463
140.983579,122.583579
141.048463,122.540224
141.125000,122.525000
141.525000,122.525000
141.601537,122.540224
141.666421,122.583579
141.709776,122.648463
141.725000,122.725000
141.725000,123.275000
141.709776,123.351537
141.666421,123.416421
141.601537,123.459776
141.525000,123.475000
141.125000,123.475000
141.048463,123.459776
140.983579,123.416421
140.940224,123.351537
140.925000,123.275000
Z" /> 
<path style="fill:#000000; fill-opacity:1.000000; stroke:none;fill-rule:evenodd;"
d="M 122.475000,131.155197
122.398463,131.139973
122.333579,131.096618
122.290224,131.031734
122.275000,130.955197
122.275000,130.555197
122.290224,130.478660
122.333579,130.413776
122.398463,130.370421
122.475000,130.355197
123.025000,130.355197
123.101537,130.370421
123.166421,130.413776
123.209776,130.478660
123.225000,130.555197
123.225000,130.955197
123.209776,131.031734
123.166421,131.096618
123.101537,131.139973
123.025000,131.155197
Z" /> 
<path style="fill:#000000; fill-opacity:1.000000; stroke:none;fill-rule:evenodd;"
d="M 122.475000,129.505197
122.398463,129.489973
122.333579,129.446618
122.290224,129.381734
122.275000,129.305197
122.275000,128.905197
122.290224,128.828660
122.333579,128.763776
122.398463,128.720421
122.475000,128.705197
123.025000,128.705197
123.101537,128.720421
123.166421,128.763776
123.209776,128.828660
123.225000,128.905197
123.225000,129.305197
123.209776,129.381734
123.166421,129.446618
123.101537,129.489973
123.025000,129.505197
Z" /> 
<path style="fill:#000000; fill-opacity:1.000000; stroke:none;fill-rule:evenodd;"
d="M 139.275000,132.725000
139.290224,132.648463
139.333579,132.583579
139.398463,132.540224
139.475000,132.525000
139.875000,132.525000
139.951537,132.540224
140.016421,132.583579
140.059776,132.648463
140.075000,132.725000
140.075000,133.275000
140.059776,133.351537
140.016421,133.416421
139.951537,133.459776
139.875000,133.475000
139.475000,133.475000
139.398463,133.459776
139.333579,133.416421
139.290224,133.351537
139.275000,133.275000
Z" /> 
<path style="fill:#000000; fill-opacity:1.000000; stroke:none;fill-rule:evenodd;"
d="M 140.925000,132.725000
140.940224,132.648463
140.983579,132.583579
141.048463,132.540224
141.125000,132.525000
141.525000,132.525000
141.601537,132.540224
141.666421,132.583579
141.709776,132.648463
141.725000,132.725000
141.725000,133.275000
141.709776,133.351537
141.666421,133.416421
141.601537,133.459776
141.525000,133.475000
141.125000,133.475000
141.048463,133.459776
140.983579,133.416421
140.940224,133.351537
140.925000,133.275000
Z" /> 
<path style="fill:#000000; fill-opacity:1.000000; stroke:none;fill-rule:evenodd;"
d="M 71.775000,146.225000
71.790224,146.148463
71.833579,146.083579
71.898463,146.040224
71.975000,146.025000
72.375000,146.025000
72.451537,146.040224
72.516421,146.083579
72.559776,146.148463
72.575000,146.225000
72.575000,146.775000
72.559776,146.851537
72.516421,146.916421
72.451537,146.959776
72.375000,146.975000
71.975000,146.975000
71.898463,146.959776
71.833579,146.916421
71.790224,146.851537
71.775000,146.775000
Z" /> 
<path style="fill:#000000; fill-opacity:1.000000; stroke:none;fill-rule:evenodd;"
d="M 73.425000,146.225000
73.440224,146.148463
73.483579,146.083579
73.548463,146.040224
73.625000,146.025000
74.025000,146.025000
74.101537,146.040224
74.166421,146.083579
74.209776,146.148463
74.225000,146.225000
74.225000,146.775000
74.209776,146.851537
74.166421,146.916421
74.101537,146.959776
74.025000,146.975000
73.625000,146.975000
73.548463,146.959776
73.483579,146.916421
73.440224,146.851537
73.425000,146.775000
Z" /> 
<path style="fill:#000000; fill-opacity:1.000000; stroke:none;fill-rule:evenodd;"
d="M 71.775000,141.225000
71.790224,141.148463
71.833579,141.083579
71.898463,141.040224
71.975000,141.025000
72.375000,141.025000
72.451537,141.040224
72.516421,141.083579
72.559776,141.148463
72.575000,141.225000
72.575000,141.775000
72.559776,141.851537
72.516421,141.916421
72.451537,141.959776
72.375000,141.975000
71.975000,141.975000
71.898463,141.959776
71.833579,141.916421
71.790224,141.851537
71.775000,141.775000
Z" /> 
<path style="fill:#000000; fill-opacity:1.000000; stroke:none;fill-rule:evenodd;"
d="M 73.425000,141.225000
73.440224,141.148463
73.483579,141.083579
73.548463,141.040224
73.625000,141.025000
74.025000,141.025000
74.101537,141.040224
74.166421,141.083579
74.209776,141.148463
74.225000,141.225000
74.225000,141.775000
74.209776,141.851537
74.166421,141.916421
74.101537,141.959776
74.025000,141.975000
73.625000,141.975000
73.548463,141.959776
73.483579,141.916421
73.440224,141.851537
73.425000,141.775000
Z" /> 
<path style="fill:#000000; fill-opacity:1.000000; stroke:none;fill-rule:evenodd;"
d="M 117.050000,119.725000
116.963896,119.707873
116.890901,119.659099
116.842127,119.586104
116.825000,119.500000
116.825000,119.050000
116.842127,118.963896
116.890901,118.890901
116.963896,118.842127
117.050000,118.825000
117.550000,118.825000
117.636104,118.842127
117.709099,118.890901
117.757873,118.963896
117.775000,119.050000
117.775000,119.500000
117.757873,119.586104
117.709099,119.659099
117.636104,119.707873
117.550000,119.725000
Z" /> 
<path style="fill:#000000; fill-opacity:1.000000; stroke:none;fill-rule:evenodd;"
d="M 117.050000,118.175000
116.963896,118.157873
116.890901,118.109099
116.842127,118.036104
116.825000,117.950000
116.825000,117.500000
116.842127,117.413896
116.890901,117.340901
116.963896,117.292127
117.050000,117.275000
117.550000,117.275000
117.636104,117.292127
117.709099,117.340901
117.757873,117.413896
117.775000,117.500000
117.775000,117.950000
117.757873,118.036104
117.709099,118.109099
117.636104,118.157873
117.550000,118.175000
Z" /> 
<path style="fill:#000000; fill-opacity:1.000000; stroke:none;fill-rule:evenodd;"
d="M 71.775000,143.725000
71.790224,143.648463
71.833579,143.583579
71.898463,143.540224
71.975000,143.525000
72.375000,143.525000
72.451537,143.540224
72.516421,143.583579
72.559776,143.648463
72.575000,143.725000
72.575000,144.275000
72.559776,144.351537
72.516421,144.416421
72.451537,144.459776
72.375000,144.475000
71.975000,144.475000
71.898463,144.459776
71.833579,144.416421
71.790224,144.351537
71.775000,144.275000
Z" /> 
<path style="fill:#000000; fill-opacity:1.000000; stroke:none;fill-rule:evenodd;"
d="M 73.425000,143.725000
73.440224,143.648463
73.483579,143.583579
73.548463,143.540224
73.625000,143.525000
74.025000,143.525000
74.101537,143.540224
74.166421,143.583579
74.209776,143.648463
74.225000,143.725000
74.225000,144.275000
74.209776,144.351537
74.166421,144.416421
74.101537,144.459776
74.025000,144.475000
73.625000,144.475000
73.548463,144.459776
73.483579,144.416421
73.440224,144.351537
73.425000,144.275000
Z" /> 
<path style="fill:#000000; fill-opacity:1.000000; stroke:none;fill-rule:evenodd;"
d="M 114.677500,127.467697
114.620097,127.456279
114.571434,127.423763
114.538918,127.375100
114.527500,127.317697
114.527500,125.667697
114.538918,125.610294
114.571434,125.561631
114.620097,125.529115
114.677500,125.517697
114.977500,125.517697
115.034903,125.529115
115.083566,125.561631
115.116082,125.610294
115.127500,125.667697
115.127500,127.317697
115.116082,127.375100
115.083566,127.423763
115.034903,127.456279
114.977500,127.467697
Z" /> 
<path style="fill:#000000; fill-opacity:1.000000; stroke:none;fill-rule:evenodd;"
d="M 115.947500,127.467697
115.890097,127.456279
115.841434,127.423763
115.808918,127.375100
115.797500,127.317697
115.797500,125.667697
115.808918,125.610294
115.841434,125.561631
115.890097,125.529115
115.947500,125.517697
116.247500,125.517697
116.304903,125.529115
116.353566,125.561631
116.386082,125.610294
116.397500,125.667697
116.397500,127.317697
116.386082,127.375100
116.353566,127.423763
116.304903,127.456279
116.247500,127.467697
Z" /> 
<path style="fill:#000000; fill-opacity:1.000000; stroke:none;fill-rule:evenodd;"
d="M 117.217500,127.467697
117.160097,127.456279
117.111434,127.423763
117.078918,127.375100
117.067500,127.317697
117.067500,125.667697
117.078918,125.610294
117.111434,125.561631
117.160097,125.529115
117.217500,125.517697
117.517500,125.517697
117.574903,125.529115
117.623566,125.561631
117.656082,125.610294
117.667500,125.667697
117.667500,127.317697
117.656082,127.375100
117.623566,127.423763
117.574903,127.456279
117.517500,127.467697
Z" /> 
<path style="fill:#000000; fill-opacity:1.000000; stroke:none;fill-rule:evenodd;"
d="M 118.487500,127.467697
118.430097,127.456279
118.381434,127.423763
118.348918,127.375100
118.337500,127.317697
118.337500,125.667697
118.348918,125.610294
118.381434,125.561631
118.430097,125.529115
118.487500,125.517697
118.787500,125.517697
118.844903,125.529115
118.893566,125.561631
118.926082,125.610294
118.937500,125.667697
118.937500,127.317697
118.926082,127.375100
118.893566,127.423763
118.844903,127.456279
118.787500,127.467697
Z" /> 
<path style="fill:#000000; fill-opacity:1.000000; stroke:none;fill-rule:evenodd;"
d="M 119.757500,127.467697
119.700097,127.456279
119.651434,127.423763
119.618918,127.375100
119.607500,127.317697
119.607500,125.667697
119.618918,125.610294
119.651434,125.561631
119.700097,125.529115
119.757500,125.517697
120.057500,125.517697
120.114903,125.529115
120.163566,125.561631
120.196082,125.610294
120.207500,125.667697
120.207500,127.317697
120.196082,127.375100
120.163566,127.423763
120.114903,127.456279
120.057500,127.467697
Z" /> 
<path style="fill:#000000; fill-opacity:1.000000; stroke:none;fill-rule:evenodd;"
d="M 121.027500,127.467697
120.970097,127.456279
120.921434,127.423763
120.888918,127.375100
120.877500,127.317697
120.877500,125.667697
120.888918,125.610294
120.921434,125.561631
120.970097,125.529115
121.027500,125.517697
121.327500,125.517697
121.384903,125.529115
121.433566,125.561631
121.466082,125.610294
121.477500,125.667697
121.477500,127.317697
121.466082,127.375100
121.433566,127.423763
121.384903,127.456279
121.327500,127.467697
Z" /> 
<path style="fill:#000000; fill-opacity:1.000000; stroke:none;fill-rule:evenodd;"
d="M 122.297500,127.467697
122.240097,127.456279
122.191434,127.423763
122.158918,127.375100
122.147500,127.317697
122.147500,125.667697
122.158918,125.610294
122.191434,125.561631
122.240097,125.529115
122.297500,125.517697
122.597500,125.517697
122.654903,125.529115
122.703566,125.561631
122.736082,125.610294
122.747500,125.667697
122.747500,127.317697
122.736082,127.375100
122.703566,127.423763
122.654903,127.456279
122.597500,127.467697
Z" /> 
<path style="fill:#000000; fill-opacity:1.000000; stroke:none;fill-rule:evenodd;"
d="M 122.297500,122.517697
122.240097,122.506279
122.191434,122.473763
122.158918,122.425100
122.147500,122.367697
122.147500,120.717697
122.158918,120.660294
122.191434,120.611631
122.240097,120.579115
122.297500,120.567697
122.597500,120.567697
122.654903,120.579115
122.703566,120.611631
122.736082,120.660294
122.747500,120.717697
122.747500,122.367697
122.736082,122.425100
122.703566,122.473763
122.654903,122.506279
122.597500,122.517697
Z" /> 
<path style="fill:#000000; fill-opacity:1.000000; stroke:none;fill-rule:evenodd;"
d="M 121.027500,122.517697
120.970097,122.506279
120.921434,122.473763
120.888918,122.425100
120.877500,122.367697
120.877500,120.717697
120.888918,120.660294
120.921434,120.611631
120.970097,120.579115
121.027500,120.567697
121.327500,120.567697
121.384903,120.579115
121.433566,120.611631
121.466082,120.660294
121.477500,120.717697
121.477500,122.367697
121.466082,122.425100
121.433566,122.473763
121.384903,122.506279
121.327500,122.517697
Z" /> 
<path style="fill:#000000; fill-opacity:1.000000; stroke:none;fill-rule:evenodd;"
d="M 119.757500,122.517697
119.700097,122.506279
119.651434,122.473763
119.618918,122.425100
119.607500,122.367697
119.607500,120.717697
119.618918,120.660294
119.651434,120.611631
119.700097,120.579115
119.757500,120.567697
120.057500,120.567697
120.114903,120.579115
120.163566,120.611631
120.196082,120.660294
120.207500,120.717697
120.207500,122.367697
120.196082,122.425100
120.163566,122.473763
120.114903,122.506279
120.057500,122.517697
Z" /> 
<path style="fill:#000000; fill-opacity:1.000000; stroke:none;fill-rule:evenodd;"
d="M 118.487500,122.517697
118.430097,122.506279
118.381434,122.473763
118.348918,122.425100
118.337500,122.367697
118.337500,120.717697
118.348918,120.660294
118.381434,120.611631
118.430097,120.579115
118.487500,120.567697
118.787500,120.567697
118.844903,120.579115
118.893566,120.611631
118.926082,120.660294
118.937500,120.717697
118.937500,122.367697
118.926082,122.425100
118.893566,122.473763
118.844903,122.506279
118.787500,122.517697
Z" /> 
<path style="fill:#000000; fill-opacity:1.000000; stroke:none;fill-rule:evenodd;"
d="M 117.217500,122.517697
117.160097,122.506279
117.111434,122.473763
117.078918,122.425100
117.067500,122.367697
117.067500,120.717697
117.078918,120.660294
117.111434,120.611631
117.160097,120.579115
117.217500,120.567697
117.517500,120.567697
117.574903,120.579115
117.623566,120.611631
117.656082,120.660294
117.667500,120.717697
117.667500,122.367697
117.656082,122.425100
117.623566,122.473763
117.574903,122.506279
117.517500,122.517697
Z" /> 
<path style="fill:#000000; fill-opacity:1.000000; stroke:none;fill-rule:evenodd;"
d="M 115.947500,122.517697
115.890097,122.506279
115.841434,122.473763
115.808918,122.425100
115.797500,122.367697
115.797500,120.717697
115.808918,120.660294
115.841434,120.611631
115.890097,120.579115
115.947500,120.567697
116.247500,120.567697
116.304903,120.579115
116.353566,120.611631
116.386082,120.660294
116.397500,120.717697
116.397500,122.367697
116.386082,122.425100
116.353566,122.473763
116.304903,122.506279
116.247500,122.517697
Z" /> 
<path style="fill:#000000; fill-opacity:1.000000; stroke:none;fill-rule:evenodd;"
d="M 114.677500,122.517697
114.620097,122.506279
114.571434,122.473763
114.538918,122.425100
114.527500,122.367697
114.527500,120.717697
114.538918,120.660294
114.571434,120.611631
114.620097,120.579115
114.677500,120.567697
114.977500,120.567697
115.034903,120.579115
115.083566,120.611631
115.116082,120.660294
115.127500,120.717697
115.127500,122.367697
115.116082,122.425100
115.083566,122.473763
115.034903,122.506279
114.977500,122.517697
Z" /> 
<path style="fill:#000000; fill-opacity:1.000000; stroke:none;fill-rule:evenodd;"
d="M 128.550000,132.450000
128.569030,132.354329
128.623223,132.273223
128.704329,132.219030
128.800000,132.200000
131.800000,132.200000
131.895671,132.219030
131.976777,132.273223
132.030970,132.354329
132.050000,132.450000
132.050000,133.550000
132.030970,133.645671
131.976777,133.726777
131.895671,133.780970
131.800000,133.800000
128.800000,133.800000
128.704329,133.780970
128.623223,133.726777
128.569030,133.645671
128.550000,133.550000
Z" /> 
<path style="fill:#000000; fill-opacity:1.000000; stroke:none;fill-rule:evenodd;"
d="M 133.950000,132.450000
133.969030,132.354329
134.023223,132.273223
134.104329,132.219030
134.200000,132.200000
137.200000,132.200000
137.295671,132.219030
137.376777,132.273223
137.430970,132.354329
137.450000,132.450000
137.450000,133.550000
137.430970,133.645671
137.376777,133.726777
137.295671,133.780970
137.200000,133.800000
134.200000,133.800000
134.104329,133.780970
134.023223,133.726777
133.969030,133.645671
133.950000,133.550000
Z" /> 
<path style="fill:#000000; fill-opacity:1.000000; stroke:none;fill-rule:evenodd;"
d="M 71.775000,148.725000
71.790224,148.648463
71.833579,148.583579
71.898463,148.540224
71.975000,148.525000
72.375000,148.525000
72.451537,148.540224
72.516421,148.583579
72.559776,148.648463
72.575000,148.725000
72.575000,149.275000
72.559776,149.351537
72.516421,149.416421
72.451537,149.459776
72.375000,149.475000
71.975000,149.475000
71.898463,149.459776
71.833579,149.416421
71.790224,149.351537
71.775000,149.275000
Z" /> 
<path style="fill:#000000; fill-opacity:1.000000; stroke:none;fill-rule:evenodd;"
d="M 73.425000,148.725000
73.440224,148.648463
73.483579,148.583579
73.548463,148.540224
73.625000,148.525000
74.025000,148.525000
74.101537,148.540224
74.166421,148.583579
74.209776,148.648463
74.225000,148.725000
74.225000,149.275000
74.209776,149.351537
74.166421,149.416421
74.101537,149.459776
74.025000,149.475000
73.625000,149.475000
73.548463,149.459776
73.483579,149.416421
73.440224,149.351537
73.425000,149.275000
Z" /> 
<path style="fill:#000000; fill-opacity:1.000000; stroke:none;fill-rule:evenodd;"
d="M 106.950000,156.550000
106.930970,156.645671
106.876777,156.726777
106.795671,156.780970
106.700000,156.800000
103.700000,156.800000
103.604329,156.780970
103.523223,156.726777
103.469030,156.645671
103.450000,156.550000
103.450000,155.450000
103.469030,155.354329
103.523223,155.273223
103.604329,155.219030
103.700000,155.200000
106.700000,155.200000
106.795671,155.219030
106.876777,155.273223
106.930970,155.354329
106.950000,155.450000
Z" /> 
<path style="fill:#000000; fill-opacity:1.000000; stroke:none;fill-rule:evenodd;"
d="M 101.550000,156.550000
101.530970,156.645671
101.476777,156.726777
101.395671,156.780970
101.300000,156.800000
98.300000,156.800000
98.204329,156.780970
98.123223,156.726777
98.069030,156.645671
98.050000,156.550000
98.050000,155.450000
98.069030,155.354329
98.123223,155.273223
98.204329,155.219030
98.300000,155.200000
101.300000,155.200000
101.395671,155.219030
101.476777,155.273223
101.530970,155.354329
101.550000,155.450000
Z" /> 
<path style="fill:#000000; fill-opacity:1.000000; stroke:none;fill-rule:evenodd;"
d="M 106.950000,146.050000
106.930970,146.145671
106.876777,146.226777
106.795671,146.280970
106.700000,146.300000
103.700000,146.300000
103.604329,146.280970
103.523223,146.226777
103.469030,146.145671
103.450000,146.050000
103.450000,144.950000
103.469030,144.854329
103.523223,144.773223
103.604329,144.719030
103.700000,144.700000
106.700000,144.700000
106.795671,144.719030
106.876777,144.773223
106.930970,144.854329
106.950000,144.950000
Z" /> 
<path style="fill:#000000; fill-opacity:1.000000; stroke:none;fill-rule:evenodd;"
d="M 101.550000,146.050000
101.530970,146.145671
101.476777,146.226777
101.395671,146.280970
101.300000,146.300000
98.300000,146.300000
98.204329,146.280970
98.123223,146.226777
98.069030,146.145671
98.050000,146.050000
98.050000,144.950000
98.069030,144.854329
98.123223,144.773223
98.204329,144.719030
98.300000,144.700000
101.300000,144.700000
101.395671,144.719030
101.476777,144.773223
101.530970,144.854329
101.550000,144.950000
Z" /> 
<path style="fill:#000000; fill-opacity:1.000000; stroke:none;fill-rule:evenodd;"
d="M 128.550000,122.450000
128.569030,122.354329
128.623223,122.273223
128.704329,122.219030
128.800000,122.200000
131.800000,122.200000
131.895671,122.219030
131.976777,122.273223
132.030970,122.354329
132.050000,122.450000
132.050000,123.550000
132.030970,123.645671
131.976777,123.726777
131.895671,123.780970
131.800000,123.800000
128.800000,123.800000
128.704329,123.780970
128.623223,123.726777
128.569030,123.645671
128.550000,123.550000
Z" /> 
<path style="fill:#000000; fill-opacity:1.000000; stroke:none;fill-rule:evenodd;"
d="M 133.950000,122.450000
133.969030,122.354329
134.023223,122.273223
134.104329,122.219030
134.200000,122.200000
137.200000,122.200000
137.295671,122.219030
137.376777,122.273223
137.430970,122.354329
137.450000,122.450000
137.450000,123.550000
137.430970,123.645671
137.376777,123.726777
137.295671,123.780970
137.200000,123.800000
134.200000,123.800000
134.104329,123.780970
134.023223,123.726777
133.969030,123.645671
133.950000,123.550000
Z" /> 
<path style="fill:#000000; fill-opacity:1.000000; stroke:none;fill-rule:evenodd;"
d="M 113.750000,153.225000
113.663896,153.207873
113.590901,153.159099
113.542127,153.086104
113.525000,153.000000
113.525000,152.550000
113.542127,152.463896
113.590901,152.390901
113.663896,152.342127
113.750000,152.325000
114.250000,152.325000
114.336104,152.342127
114.409099,152.390901
114.457873,152.463896
114.475000,152.550000
114.475000,153.000000
114.457873,153.086104
114.409099,153.159099
114.336104,153.207873
114.250000,153.225000
Z" /> 
<path style="fill:#000000; fill-opacity:1.000000; stroke:none;fill-rule:evenodd;"
d="M 113.750000,151.675000
113.663896,151.657873
113.590901,151.609099
113.542127,151.536104
113.525000,151.450000
113.525000,151.000000
113.542127,150.913896
113.590901,150.840901
113.663896,150.792127
113.750000,150.775000
114.250000,150.775000
114.336104,150.792127
114.409099,150.840901
114.457873,150.913896
114.475000,151.000000
114.475000,151.450000
114.457873,151.536104
114.409099,151.609099
114.336104,151.657873
114.250000,151.675000
Z" /> 
<path style="fill:#000000; fill-opacity:1.000000; stroke:none;fill-rule:evenodd;"
d="M 139.275000,126.725000
139.290224,126.648463
139.333579,126.583579
139.398463,126.540224
139.475000,126.525000
139.875000,126.525000
139.951537,126.540224
140.016421,126.583579
140.059776,126.648463
140.075000,126.725000
140.075000,127.275000
140.059776,127.351537
140.016421,127.416421
139.951537,127.459776
139.875000,127.475000
139.475000,127.475000
139.398463,127.459776
139.333579,127.416421
139.290224,127.351537
139.275000,127.275000
Z" /> 
<path style="fill:#000000; fill-opacity:1.000000; stroke:none;fill-rule:evenodd;"
d="M 140.925000,126.725000
140.940224,126.648463
140.983579,126.583579
141.048463,126.540224
141.125000,126.525000
141.525000,126.525000
141.601537,126.540224
141.666421,126.583579
141.709776,126.648463
141.725000,126.725000
141.725000,127.275000
141.709776,127.351537
141.666421,127.416421
141.601537,127.459776
141.525000,127.475000
141.125000,127.475000
141.048463,127.459776
140.983579,127.416421
140.940224,127.351537
140.925000,127.275000
Z" /> 
<path style="fill:#000000; fill-opacity:1.000000; stroke:none;fill-rule:evenodd;"
d="M 139.275000,136.725000
139.290224,136.648463
139.333579,136.583579
139.398463,136.540224
139.475000,136.525000
139.875000,136.525000
139.951537,136.540224
140.016421,136.583579
140.059776,136.648463
140.075000,136.725000
140.075000,137.275000
140.059776,137.351537
140.016421,137.416421
139.951537,137.459776
139.875000,137.475000
139.475000,137.475000
139.398463,137.459776
139.333579,137.416421
139.290224,137.351537
139.275000,137.275000
Z" /> 
<path style="fill:#000000; fill-opacity:1.000000; stroke:none;fill-rule:evenodd;"
d="M 140.925000,136.725000
140.940224,136.648463
140.983579,136.583579
141.048463,136.540224
141.125000,136.525000
141.525000,136.525000
141.601537,136.540224
141.666421,136.583579
141.709776,136.648463
141.725000,136.725000
141.725000,137.275000
141.709776,137.351537
141.666421,137.416421
141.601537,137.459776
141.525000,137.475000
141.125000,137.475000
141.048463,137.459776
140.983579,137.416421
140.940224,137.351537
140.925000,137.275000
Z" /> 
</g> 
</svg>
