<?xml version="1.0" standalone="no"?>
 <!DOCTYPE svg PUBLIC "-//W3C//DTD SVG 1.1//EN" 
 "http://www.w3.org/Graphics/SVG/1.1/DTD/svg11.dtd"> 
<svg
  xmlns:svg="http://www.w3.org/2000/svg"
  xmlns="http://www.w3.org/2000/svg"
  xmlns:xlink="http://www.w3.org/1999/xlink"
  version="1.1"
  width="10.215000000000002cm" height="5.215cm" viewBox="58.925 113.925 102.15 52.15">
<title>SVG Image created as rcbus-opl3-F_Paste.svg date 2025/10/08 18:44:51 </title>
  <desc>Image generated by PCBNEW </desc>
<g style="fill:#000000; fill-opacity:1.000000;stroke:#000000; stroke-opacity:1.000000;
stroke-linecap:round; stroke-linejoin:round;"
 transform="translate(0 0) scale(1 1)">
<path style="fill:#000000; fill-opacity:1.000000; stroke:none;fill-rule:evenodd;"
d="M 80.625000,142.650000
80.607873,142.736104
80.559099,142.809099
80.486104,142.857873
80.400000,142.875000
79.950000,142.875000
79.863896,142.857873
79.790901,142.809099
79.742127,142.736104
79.725000,142.650000
79.725000,142.150000
79.742127,142.063896
79.790901,141.990901
79.863896,141.942127
79.950000,141.925000
80.400000,141.925000
80.486104,141.942127
80.559099,141.990901
80.607873,142.063896
80.625000,142.150000
Z" /> 
<path style="fill:#000000; fill-opacity:1.000000; stroke:none;fill-rule:evenodd;"
d="M 79.075000,142.650000
79.057873,142.736104
79.009099,142.809099
78.936104,142.857873
78.850000,142.875000
78.400000,142.875000
78.313896,142.857873
78.240901,142.809099
78.192127,142.736104
78.175000,142.650000
78.175000,142.150000
78.192127,142.063896
78.240901,141.990901
78.313896,141.942127
78.400000,141.925000
78.850000,141.925000
78.936104,141.942127
79.009099,141.990901
79.057873,142.063896
79.075000,142.150000
Z" /> 
<path style="fill:#000000; fill-opacity:1.000000; stroke:none;fill-rule:evenodd;"
d="M 119.550000,141.950000
119.532873,142.036104
119.484099,142.109099
119.411104,142.157873
119.325000,142.175000
118.875000,142.175000
118.788896,142.157873
118.715901,142.109099
118.667127,142.036104
118.650000,141.950000
118.650000,141.450000
118.667127,141.363896
118.715901,141.290901
118.788896,141.242127
118.875000,141.225000
119.325000,141.225000
119.411104,141.242127
119.484099,141.290901
119.532873,141.363896
119.550000,141.450000
Z" /> 
<path style="fill:#000000; fill-opacity:1.000000; stroke:none;fill-rule:evenodd;"
d="M 118.000000,141.950000
117.982873,142.036104
117.934099,142.109099
117.861104,142.157873
117.775000,142.175000
117.325000,142.175000
117.238896,142.157873
117.165901,142.109099
117.117127,142.036104
117.100000,141.950000
117.100000,141.450000
117.117127,141.363896
117.165901,141.290901
117.238896,141.242127
117.325000,141.225000
117.775000,141.225000
117.861104,141.242127
117.934099,141.290901
117.982873,141.363896
118.000000,141.450000
Z" /> 
<path style="fill:#000000; fill-opacity:1.000000; stroke:none;fill-rule:evenodd;"
d="M 80.400000,156.025000
80.342597,156.013582
80.293934,155.981066
80.261418,155.932403
80.250000,155.875000
80.250000,154.125000
80.261418,154.067597
80.293934,154.018934
80.342597,153.986418
80.400000,153.975000
80.700000,153.975000
80.757403,153.986418
80.806066,154.018934
80.838582,154.067597
80.850000,154.125000
80.850000,155.875000
80.838582,155.932403
80.806066,155.981066
80.757403,156.013582
80.700000,156.025000
Z" /> 
<path style="fill:#000000; fill-opacity:1.000000; stroke:none;fill-rule:evenodd;"
d="M 81.670000,156.025000
81.612597,156.013582
81.563934,155.981066
81.531418,155.932403
81.520000,155.875000
81.520000,154.125000
81.531418,154.067597
81.563934,154.018934
81.612597,153.986418
81.670000,153.975000
81.970000,153.975000
82.027403,153.986418
82.076066,154.018934
82.108582,154.067597
82.120000,154.125000
82.120000,155.875000
82.108582,155.932403
82.076066,155.981066
82.027403,156.013582
81.970000,156.025000
Z" /> 
<path style="fill:#000000; fill-opacity:1.000000; stroke:none;fill-rule:evenodd;"
d="M 82.940000,156.025000
82.882597,156.013582
82.833934,155.981066
82.801418,155.932403
82.790000,155.875000
82.790000,154.125000
82.801418,154.067597
82.833934,154.018934
82.882597,153.986418
82.940000,153.975000
83.240000,153.975000
83.297403,153.986418
83.346066,154.018934
83.378582,154.067597
83.390000,154.125000
83.390000,155.875000
83.378582,155.932403
83.346066,155.981066
83.297403,156.013582
83.240000,156.025000
Z" /> 
<path style="fill:#000000; fill-opacity:1.000000; stroke:none;fill-rule:evenodd;"
d="M 84.210000,156.025000
84.152597,156.013582
84.103934,155.981066
84.071418,155.932403
84.060000,155.875000
84.060000,154.125000
84.071418,154.067597
84.103934,154.018934
84.152597,153.986418
84.210000,153.975000
84.510000,153.975000
84.567403,153.986418
84.616066,154.018934
84.648582,154.067597
84.660000,154.125000
84.660000,155.875000
84.648582,155.932403
84.616066,155.981066
84.567403,156.013582
84.510000,156.025000
Z" /> 
<path style="fill:#000000; fill-opacity:1.000000; stroke:none;fill-rule:evenodd;"
d="M 85.480000,156.025000
85.422597,156.013582
85.373934,155.981066
85.341418,155.932403
85.330000,155.875000
85.330000,154.125000
85.341418,154.067597
85.373934,154.018934
85.422597,153.986418
85.480000,153.975000
85.780000,153.975000
85.837403,153.986418
85.886066,154.018934
85.918582,154.067597
85.930000,154.125000
85.930000,155.875000
85.918582,155.932403
85.886066,155.981066
85.837403,156.013582
85.780000,156.025000
Z" /> 
<path style="fill:#000000; fill-opacity:1.000000; stroke:none;fill-rule:evenodd;"
d="M 86.750000,156.025000
86.692597,156.013582
86.643934,155.981066
86.611418,155.932403
86.600000,155.875000
86.600000,154.125000
86.611418,154.067597
86.643934,154.018934
86.692597,153.986418
86.750000,153.975000
87.050000,153.975000
87.107403,153.986418
87.156066,154.018934
87.188582,154.067597
87.200000,154.125000
87.200000,155.875000
87.188582,155.932403
87.156066,155.981066
87.107403,156.013582
87.050000,156.025000
Z" /> 
<path style="fill:#000000; fill-opacity:1.000000; stroke:none;fill-rule:evenodd;"
d="M 88.020000,156.025000
87.962597,156.013582
87.913934,155.981066
87.881418,155.932403
87.870000,155.875000
87.870000,154.125000
87.881418,154.067597
87.913934,154.018934
87.962597,153.986418
88.020000,153.975000
88.320000,153.975000
88.377403,153.986418
88.426066,154.018934
88.458582,154.067597
88.470000,154.125000
88.470000,155.875000
88.458582,155.932403
88.426066,155.981066
88.377403,156.013582
88.320000,156.025000
Z" /> 
<path style="fill:#000000; fill-opacity:1.000000; stroke:none;fill-rule:evenodd;"
d="M 89.290000,156.025000
89.232597,156.013582
89.183934,155.981066
89.151418,155.932403
89.140000,155.875000
89.140000,154.125000
89.151418,154.067597
89.183934,154.018934
89.232597,153.986418
89.290000,153.975000
89.590000,153.975000
89.647403,153.986418
89.696066,154.018934
89.728582,154.067597
89.740000,154.125000
89.740000,155.875000
89.728582,155.932403
89.696066,155.981066
89.647403,156.013582
89.590000,156.025000
Z" /> 
<path style="fill:#000000; fill-opacity:1.000000; stroke:none;fill-rule:evenodd;"
d="M 90.560000,156.025000
90.502597,156.013582
90.453934,155.981066
90.421418,155.932403
90.410000,155.875000
90.410000,154.125000
90.421418,154.067597
90.453934,154.018934
90.502597,153.986418
90.560000,153.975000
90.860000,153.975000
90.917403,153.986418
90.966066,154.018934
90.998582,154.067597
91.010000,154.125000
91.010000,155.875000
90.998582,155.932403
90.966066,155.981066
90.917403,156.013582
90.860000,156.025000
Z" /> 
<path style="fill:#000000; fill-opacity:1.000000; stroke:none;fill-rule:evenodd;"
d="M 91.830000,156.025000
91.772597,156.013582
91.723934,155.981066
91.691418,155.932403
91.680000,155.875000
91.680000,154.125000
91.691418,154.067597
91.723934,154.018934
91.772597,153.986418
91.830000,153.975000
92.130000,153.975000
92.187403,153.986418
92.236066,154.018934
92.268582,154.067597
92.280000,154.125000
92.280000,155.875000
92.268582,155.932403
92.236066,155.981066
92.187403,156.013582
92.130000,156.025000
Z" /> 
<path style="fill:#000000; fill-opacity:1.000000; stroke:none;fill-rule:evenodd;"
d="M 91.830000,146.725000
91.772597,146.713582
91.723934,146.681066
91.691418,146.632403
91.680000,146.575000
91.680000,144.825000
91.691418,144.767597
91.723934,144.718934
91.772597,144.686418
91.830000,144.675000
92.130000,144.675000
92.187403,144.686418
92.236066,144.718934
92.268582,144.767597
92.280000,144.825000
92.280000,146.575000
92.268582,146.632403
92.236066,146.681066
92.187403,146.713582
92.130000,146.725000
Z" /> 
<path style="fill:#000000; fill-opacity:1.000000; stroke:none;fill-rule:evenodd;"
d="M 90.560000,146.725000
90.502597,146.713582
90.453934,146.681066
90.421418,146.632403
90.410000,146.575000
90.410000,144.825000
90.421418,144.767597
90.453934,144.718934
90.502597,144.686418
90.560000,144.675000
90.860000,144.675000
90.917403,144.686418
90.966066,144.718934
90.998582,144.767597
91.010000,144.825000
91.010000,146.575000
90.998582,146.632403
90.966066,146.681066
90.917403,146.713582
90.860000,146.725000
Z" /> 
<path style="fill:#000000; fill-opacity:1.000000; stroke:none;fill-rule:evenodd;"
d="M 89.290000,146.725000
89.232597,146.713582
89.183934,146.681066
89.151418,146.632403
89.140000,146.575000
89.140000,144.825000
89.151418,144.767597
89.183934,144.718934
89.232597,144.686418
89.290000,144.675000
89.590000,144.675000
89.647403,144.686418
89.696066,144.718934
89.728582,144.767597
89.740000,144.825000
89.740000,146.575000
89.728582,146.632403
89.696066,146.681066
89.647403,146.713582
89.590000,146.725000
Z" /> 
<path style="fill:#000000; fill-opacity:1.000000; stroke:none;fill-rule:evenodd;"
d="M 88.020000,146.725000
87.962597,146.713582
87.913934,146.681066
87.881418,146.632403
87.870000,146.575000
87.870000,144.825000
87.881418,144.767597
87.913934,144.718934
87.962597,144.686418
88.020000,144.675000
88.320000,144.675000
88.377403,144.686418
88.426066,144.718934
88.458582,144.767597
88.470000,144.825000
88.470000,146.575000
88.458582,146.632403
88.426066,146.681066
88.377403,146.713582
88.320000,146.725000
Z" /> 
<path style="fill:#000000; fill-opacity:1.000000; stroke:none;fill-rule:evenodd;"
d="M 86.750000,146.725000
86.692597,146.713582
86.643934,146.681066
86.611418,146.632403
86.600000,146.575000
86.600000,144.825000
86.611418,144.767597
86.643934,144.718934
86.692597,144.686418
86.750000,144.675000
87.050000,144.675000
87.107403,144.686418
87.156066,144.718934
87.188582,144.767597
87.200000,144.825000
87.200000,146.575000
87.188582,146.632403
87.156066,146.681066
87.107403,146.713582
87.050000,146.725000
Z" /> 
<path style="fill:#000000; fill-opacity:1.000000; stroke:none;fill-rule:evenodd;"
d="M 85.480000,146.725000
85.422597,146.713582
85.373934,146.681066
85.341418,146.632403
85.330000,146.575000
85.330000,144.825000
85.341418,144.767597
85.373934,144.718934
85.422597,144.686418
85.480000,144.675000
85.780000,144.675000
85.837403,144.686418
85.886066,144.718934
85.918582,144.767597
85.930000,144.825000
85.930000,146.575000
85.918582,146.632403
85.886066,146.681066
85.837403,146.713582
85.780000,146.725000
Z" /> 
<path style="fill:#000000; fill-opacity:1.000000; stroke:none;fill-rule:evenodd;"
d="M 84.210000,146.725000
84.152597,146.713582
84.103934,146.681066
84.071418,146.632403
84.060000,146.575000
84.060000,144.825000
84.071418,144.767597
84.103934,144.718934
84.152597,144.686418
84.210000,144.675000
84.510000,144.675000
84.567403,144.686418
84.616066,144.718934
84.648582,144.767597
84.660000,144.825000
84.660000,146.575000
84.648582,146.632403
84.616066,146.681066
84.567403,146.713582
84.510000,146.725000
Z" /> 
<path style="fill:#000000; fill-opacity:1.000000; stroke:none;fill-rule:evenodd;"
d="M 82.940000,146.725000
82.882597,146.713582
82.833934,146.681066
82.801418,146.632403
82.790000,146.575000
82.790000,144.825000
82.801418,144.767597
82.833934,144.718934
82.882597,144.686418
82.940000,144.675000
83.240000,144.675000
83.297403,144.686418
83.346066,144.718934
83.378582,144.767597
83.390000,144.825000
83.390000,146.575000
83.378582,146.632403
83.346066,146.681066
83.297403,146.713582
83.240000,146.725000
Z" /> 
<path style="fill:#000000; fill-opacity:1.000000; stroke:none;fill-rule:evenodd;"
d="M 81.670000,146.725000
81.612597,146.713582
81.563934,146.681066
81.531418,146.632403
81.520000,146.575000
81.520000,144.825000
81.531418,144.767597
81.563934,144.718934
81.612597,144.686418
81.670000,144.675000
81.970000,144.675000
82.027403,144.686418
82.076066,144.718934
82.108582,144.767597
82.120000,144.825000
82.120000,146.575000
82.108582,146.632403
82.076066,146.681066
82.027403,146.713582
81.970000,146.725000
Z" /> 
<path style="fill:#000000; fill-opacity:1.000000; stroke:none;fill-rule:evenodd;"
d="M 80.400000,146.725000
80.342597,146.713582
80.293934,146.681066
80.261418,146.632403
80.250000,146.575000
80.250000,144.825000
80.261418,144.767597
80.293934,144.718934
80.342597,144.686418
80.400000,144.675000
80.700000,144.675000
80.757403,144.686418
80.806066,144.718934
80.838582,144.767597
80.850000,144.825000
80.850000,146.575000
80.838582,146.632403
80.806066,146.681066
80.757403,146.713582
80.700000,146.725000
Z" /> 
<path style="fill:#000000; fill-opacity:1.000000; stroke:none;fill-rule:evenodd;"
d="M 124.150000,127.475000
124.236104,127.492127
124.309099,127.540901
124.357873,127.613896
124.375000,127.700000
124.375000,128.150000
124.357873,128.236104
124.309099,128.309099
124.236104,128.357873
124.150000,128.375000
123.650000,128.375000
123.563896,128.357873
123.490901,128.309099
123.442127,128.236104
123.425000,128.150000
123.425000,127.700000
123.442127,127.613896
123.490901,127.540901
123.563896,127.492127
123.650000,127.475000
Z" /> 
<path style="fill:#000000; fill-opacity:1.000000; stroke:none;fill-rule:evenodd;"
d="M 124.150000,129.025000
124.236104,129.042127
124.309099,129.090901
124.357873,129.163896
124.375000,129.250000
124.375000,129.700000
124.357873,129.786104
124.309099,129.859099
124.236104,129.907873
124.150000,129.925000
123.650000,129.925000
123.563896,129.907873
123.490901,129.859099
123.442127,129.786104
123.425000,129.700000
123.425000,129.250000
123.442127,129.163896
123.490901,129.090901
123.563896,129.042127
123.650000,129.025000
Z" /> 
<path style="fill:#000000; fill-opacity:1.000000; stroke:none;fill-rule:evenodd;"
d="M 115.950000,128.350000
115.930970,128.445671
115.876777,128.526777
115.795671,128.580970
115.700000,128.600000
112.700000,128.600000
112.604329,128.580970
112.523223,128.526777
112.469030,128.445671
112.450000,128.350000
112.450000,127.250000
112.469030,127.154329
112.523223,127.073223
112.604329,127.019030
112.700000,127.000000
115.700000,127.000000
115.795671,127.019030
115.876777,127.073223
115.930970,127.154329
115.950000,127.250000
Z" /> 
<path style="fill:#000000; fill-opacity:1.000000; stroke:none;fill-rule:evenodd;"
d="M 110.550000,128.350000
110.530970,128.445671
110.476777,128.526777
110.395671,128.580970
110.300000,128.600000
107.300000,128.600000
107.204329,128.580970
107.123223,128.526777
107.069030,128.445671
107.050000,128.350000
107.050000,127.250000
107.069030,127.154329
107.123223,127.073223
107.204329,127.019030
107.300000,127.000000
110.300000,127.000000
110.395671,127.019030
110.476777,127.073223
110.530970,127.154329
110.550000,127.250000
Z" /> 
<path style="fill:#000000; fill-opacity:1.000000; stroke:none;fill-rule:evenodd;"
d="M 116.950000,122.625000
116.863896,122.607873
116.790901,122.559099
116.742127,122.486104
116.725000,122.400000
116.725000,121.950000
116.742127,121.863896
116.790901,121.790901
116.863896,121.742127
116.950000,121.725000
117.450000,121.725000
117.536104,121.742127
117.609099,121.790901
117.657873,121.863896
117.675000,121.950000
117.675000,122.400000
117.657873,122.486104
117.609099,122.559099
117.536104,122.607873
117.450000,122.625000
Z" /> 
<path style="fill:#000000; fill-opacity:1.000000; stroke:none;fill-rule:evenodd;"
d="M 116.950000,121.075000
116.863896,121.057873
116.790901,121.009099
116.742127,120.936104
116.725000,120.850000
116.725000,120.400000
116.742127,120.313896
116.790901,120.240901
116.863896,120.192127
116.950000,120.175000
117.450000,120.175000
117.536104,120.192127
117.609099,120.240901
117.657873,120.313896
117.675000,120.400000
117.675000,120.850000
117.657873,120.936104
117.609099,121.009099
117.536104,121.057873
117.450000,121.075000
Z" /> 
<path style="fill:#000000; fill-opacity:1.000000; stroke:none;fill-rule:evenodd;"
d="M 126.350000,143.877500
126.360467,143.824881
126.390273,143.780273
126.434881,143.750467
126.487500,143.740000
128.212500,143.740000
128.265119,143.750467
128.309727,143.780273
128.339533,143.824881
128.350000,143.877500
128.350000,144.152500
128.339533,144.205119
128.309727,144.249727
128.265119,144.279533
128.212500,144.290000
126.487500,144.290000
126.434881,144.279533
126.390273,144.249727
126.360467,144.205119
126.350000,144.152500
Z" /> 
<path style="fill:#000000; fill-opacity:1.000000; stroke:none;fill-rule:evenodd;"
d="M 126.350000,145.147500
126.360467,145.094881
126.390273,145.050273
126.434881,145.020467
126.487500,145.010000
128.212500,145.010000
128.265119,145.020467
128.309727,145.050273
128.339533,145.094881
128.350000,145.147500
128.350000,145.422500
128.339533,145.475119
128.309727,145.519727
128.265119,145.549533
128.212500,145.560000
126.487500,145.560000
126.434881,145.549533
126.390273,145.519727
126.360467,145.475119
126.350000,145.422500
Z" /> 
<path style="fill:#000000; fill-opacity:1.000000; stroke:none;fill-rule:evenodd;"
d="M 126.350000,146.417500
126.360467,146.364881
126.390273,146.320273
126.434881,146.290467
126.487500,146.280000
128.212500,146.280000
128.265119,146.290467
128.309727,146.320273
128.339533,146.364881
128.350000,146.417500
128.350000,146.692500
128.339533,146.745119
128.309727,146.789727
128.265119,146.819533
128.212500,146.830000
126.487500,146.830000
126.434881,146.819533
126.390273,146.789727
126.360467,146.745119
126.350000,146.692500
Z" /> 
<path style="fill:#000000; fill-opacity:1.000000; stroke:none;fill-rule:evenodd;"
d="M 126.350000,147.687500
126.360467,147.634881
126.390273,147.590273
126.434881,147.560467
126.487500,147.550000
128.212500,147.550000
128.265119,147.560467
128.309727,147.590273
128.339533,147.634881
128.350000,147.687500
128.350000,147.962500
128.339533,148.015119
128.309727,148.059727
128.265119,148.089533
128.212500,148.100000
126.487500,148.100000
126.434881,148.089533
126.390273,148.059727
126.360467,148.015119
126.350000,147.962500
Z" /> 
<path style="fill:#000000; fill-opacity:1.000000; stroke:none;fill-rule:evenodd;"
d="M 126.350000,148.957500
126.360467,148.904881
126.390273,148.860273
126.434881,148.830467
126.487500,148.820000
128.212500,148.820000
128.265119,148.830467
128.309727,148.860273
128.339533,148.904881
128.350000,148.957500
128.350000,149.232500
128.339533,149.285119
128.309727,149.329727
128.265119,149.359533
128.212500,149.370000
126.487500,149.370000
126.434881,149.359533
126.390273,149.329727
126.360467,149.285119
126.350000,149.232500
Z" /> 
<path style="fill:#000000; fill-opacity:1.000000; stroke:none;fill-rule:evenodd;"
d="M 126.350000,150.227500
126.360467,150.174881
126.390273,150.130273
126.434881,150.100467
126.487500,150.090000
128.212500,150.090000
128.265119,150.100467
128.309727,150.130273
128.339533,150.174881
128.350000,150.227500
128.350000,150.502500
128.339533,150.555119
128.309727,150.599727
128.265119,150.629533
128.212500,150.640000
126.487500,150.640000
126.434881,150.629533
126.390273,150.599727
126.360467,150.555119
126.350000,150.502500
Z" /> 
<path style="fill:#000000; fill-opacity:1.000000; stroke:none;fill-rule:evenodd;"
d="M 126.350000,151.497500
126.360467,151.444881
126.390273,151.400273
126.434881,151.370467
126.487500,151.360000
128.212500,151.360000
128.265119,151.370467
128.309727,151.400273
128.339533,151.444881
128.350000,151.497500
128.350000,151.772500
128.339533,151.825119
128.309727,151.869727
128.265119,151.899533
128.212500,151.910000
126.487500,151.910000
126.434881,151.899533
126.390273,151.869727
126.360467,151.825119
126.350000,151.772500
Z" /> 
<path style="fill:#000000; fill-opacity:1.000000; stroke:none;fill-rule:evenodd;"
d="M 126.350000,152.767500
126.360467,152.714881
126.390273,152.670273
126.434881,152.640467
126.487500,152.630000
128.212500,152.630000
128.265119,152.640467
128.309727,152.670273
128.339533,152.714881
128.350000,152.767500
128.350000,153.042500
128.339533,153.095119
128.309727,153.139727
128.265119,153.169533
128.212500,153.180000
126.487500,153.180000
126.434881,153.169533
126.390273,153.139727
126.360467,153.095119
126.350000,153.042500
Z" /> 
<path style="fill:#000000; fill-opacity:1.000000; stroke:none;fill-rule:evenodd;"
d="M 126.350000,154.037500
126.360467,153.984881
126.390273,153.940273
126.434881,153.910467
126.487500,153.900000
128.212500,153.900000
128.265119,153.910467
128.309727,153.940273
128.339533,153.984881
128.350000,154.037500
128.350000,154.312500
128.339533,154.365119
128.309727,154.409727
128.265119,154.439533
128.212500,154.450000
126.487500,154.450000
126.434881,154.439533
126.390273,154.409727
126.360467,154.365119
126.350000,154.312500
Z" /> 
<path style="fill:#000000; fill-opacity:1.000000; stroke:none;fill-rule:evenodd;"
d="M 126.350000,155.307500
126.360467,155.254881
126.390273,155.210273
126.434881,155.180467
126.487500,155.170000
128.212500,155.170000
128.265119,155.180467
128.309727,155.210273
128.339533,155.254881
128.350000,155.307500
128.350000,155.582500
128.339533,155.635119
128.309727,155.679727
128.265119,155.709533
128.212500,155.720000
126.487500,155.720000
126.434881,155.709533
126.390273,155.679727
126.360467,155.635119
126.350000,155.582500
Z" /> 
<path style="fill:#000000; fill-opacity:1.000000; stroke:none;fill-rule:evenodd;"
d="M 126.350000,156.577500
126.360467,156.524881
126.390273,156.480273
126.434881,156.450467
126.487500,156.440000
128.212500,156.440000
128.265119,156.450467
128.309727,156.480273
128.339533,156.524881
128.350000,156.577500
128.350000,156.852500
128.339533,156.905119
128.309727,156.949727
128.265119,156.979533
128.212500,156.990000
126.487500,156.990000
126.434881,156.979533
126.390273,156.949727
126.360467,156.905119
126.350000,156.852500
Z" /> 
<path style="fill:#000000; fill-opacity:1.000000; stroke:none;fill-rule:evenodd;"
d="M 126.350000,157.847500
126.360467,157.794881
126.390273,157.750273
126.434881,157.720467
126.487500,157.710000
128.212500,157.710000
128.265119,157.720467
128.309727,157.750273
128.339533,157.794881
128.350000,157.847500
128.350000,158.122500
128.339533,158.175119
128.309727,158.219727
128.265119,158.249533
128.212500,158.260000
126.487500,158.260000
126.434881,158.249533
126.390273,158.219727
126.360467,158.175119
126.350000,158.122500
Z" /> 
<path style="fill:#000000; fill-opacity:1.000000; stroke:none;fill-rule:evenodd;"
d="M 135.650000,157.847500
135.660467,157.794881
135.690273,157.750273
135.734881,157.720467
135.787500,157.710000
137.512500,157.710000
137.565119,157.720467
137.609727,157.750273
137.639533,157.794881
137.650000,157.847500
137.650000,158.122500
137.639533,158.175119
137.609727,158.219727
137.565119,158.249533
137.512500,158.260000
135.787500,158.260000
135.734881,158.249533
135.690273,158.219727
135.660467,158.175119
135.650000,158.122500
Z" /> 
<path style="fill:#000000; fill-opacity:1.000000; stroke:none;fill-rule:evenodd;"
d="M 135.650000,156.577500
135.660467,156.524881
135.690273,156.480273
135.734881,156.450467
135.787500,156.440000
137.512500,156.440000
137.565119,156.450467
137.609727,156.480273
137.639533,156.524881
137.650000,156.577500
137.650000,156.852500
137.639533,156.905119
137.609727,156.949727
137.565119,156.979533
137.512500,156.990000
135.787500,156.990000
135.734881,156.979533
135.690273,156.949727
135.660467,156.905119
135.650000,156.852500
Z" /> 
<path style="fill:#000000; fill-opacity:1.000000; stroke:none;fill-rule:evenodd;"
d="M 135.650000,155.307500
135.660467,155.254881
135.690273,155.210273
135.734881,155.180467
135.787500,155.170000
137.512500,155.170000
137.565119,155.180467
137.609727,155.210273
137.639533,155.254881
137.650000,155.307500
137.650000,155.582500
137.639533,155.635119
137.609727,155.679727
137.565119,155.709533
137.512500,155.720000
135.787500,155.720000
135.734881,155.709533
135.690273,155.679727
135.660467,155.635119
135.650000,155.582500
Z" /> 
<path style="fill:#000000; fill-opacity:1.000000; stroke:none;fill-rule:evenodd;"
d="M 135.650000,154.037500
135.660467,153.984881
135.690273,153.940273
135.734881,153.910467
135.787500,153.900000
137.512500,153.900000
137.565119,153.910467
137.609727,153.940273
137.639533,153.984881
137.650000,154.037500
137.650000,154.312500
137.639533,154.365119
137.609727,154.409727
137.565119,154.439533
137.512500,154.450000
135.787500,154.450000
135.734881,154.439533
135.690273,154.409727
135.660467,154.365119
135.650000,154.312500
Z" /> 
<path style="fill:#000000; fill-opacity:1.000000; stroke:none;fill-rule:evenodd;"
d="M 135.650000,152.767500
135.660467,152.714881
135.690273,152.670273
135.734881,152.640467
135.787500,152.630000
137.512500,152.630000
137.565119,152.640467
137.609727,152.670273
137.639533,152.714881
137.650000,152.767500
137.650000,153.042500
137.639533,153.095119
137.609727,153.139727
137.565119,153.169533
137.512500,153.180000
135.787500,153.180000
135.734881,153.169533
135.690273,153.139727
135.660467,153.095119
135.650000,153.042500
Z" /> 
<path style="fill:#000000; fill-opacity:1.000000; stroke:none;fill-rule:evenodd;"
d="M 135.650000,151.497500
135.660467,151.444881
135.690273,151.400273
135.734881,151.370467
135.787500,151.360000
137.512500,151.360000
137.565119,151.370467
137.609727,151.400273
137.639533,151.444881
137.650000,151.497500
137.650000,151.772500
137.639533,151.825119
137.609727,151.869727
137.565119,151.899533
137.512500,151.910000
135.787500,151.910000
135.734881,151.899533
135.690273,151.869727
135.660467,151.825119
135.650000,151.772500
Z" /> 
<path style="fill:#000000; fill-opacity:1.000000; stroke:none;fill-rule:evenodd;"
d="M 135.650000,150.227500
135.660467,150.174881
135.690273,150.130273
135.734881,150.100467
135.787500,150.090000
137.512500,150.090000
137.565119,150.100467
137.609727,150.130273
137.639533,150.174881
137.650000,150.227500
137.650000,150.502500
137.639533,150.555119
137.609727,150.599727
137.565119,150.629533
137.512500,150.640000
135.787500,150.640000
135.734881,150.629533
135.690273,150.599727
135.660467,150.555119
135.650000,150.502500
Z" /> 
<path style="fill:#000000; fill-opacity:1.000000; stroke:none;fill-rule:evenodd;"
d="M 135.650000,148.957500
135.660467,148.904881
135.690273,148.860273
135.734881,148.830467
135.787500,148.820000
137.512500,148.820000
137.565119,148.830467
137.609727,148.860273
137.639533,148.904881
137.650000,148.957500
137.650000,149.232500
137.639533,149.285119
137.609727,149.329727
137.565119,149.359533
137.512500,149.370000
135.787500,149.370000
135.734881,149.359533
135.690273,149.329727
135.660467,149.285119
135.650000,149.232500
Z" /> 
<path style="fill:#000000; fill-opacity:1.000000; stroke:none;fill-rule:evenodd;"
d="M 135.650000,147.687500
135.660467,147.634881
135.690273,147.590273
135.734881,147.560467
135.787500,147.550000
137.512500,147.550000
137.565119,147.560467
137.609727,147.590273
137.639533,147.634881
137.650000,147.687500
137.650000,147.962500
137.639533,148.015119
137.609727,148.059727
137.565119,148.089533
137.512500,148.100000
135.787500,148.100000
135.734881,148.089533
135.690273,148.059727
135.660467,148.015119
135.650000,147.962500
Z" /> 
<path style="fill:#000000; fill-opacity:1.000000; stroke:none;fill-rule:evenodd;"
d="M 135.650000,146.417500
135.660467,146.364881
135.690273,146.320273
135.734881,146.290467
135.787500,146.280000
137.512500,146.280000
137.565119,146.290467
137.609727,146.320273
137.639533,146.364881
137.650000,146.417500
137.650000,146.692500
137.639533,146.745119
137.609727,146.789727
137.565119,146.819533
137.512500,146.830000
135.787500,146.830000
135.734881,146.819533
135.690273,146.789727
135.660467,146.745119
135.650000,146.692500
Z" /> 
<path style="fill:#000000; fill-opacity:1.000000; stroke:none;fill-rule:evenodd;"
d="M 135.650000,145.147500
135.660467,145.094881
135.690273,145.050273
135.734881,145.020467
135.787500,145.010000
137.512500,145.010000
137.565119,145.020467
137.609727,145.050273
137.639533,145.094881
137.650000,145.147500
137.650000,145.422500
137.639533,145.475119
137.609727,145.519727
137.565119,145.549533
137.512500,145.560000
135.787500,145.560000
135.734881,145.549533
135.690273,145.519727
135.660467,145.475119
135.650000,145.422500
Z" /> 
<path style="fill:#000000; fill-opacity:1.000000; stroke:none;fill-rule:evenodd;"
d="M 135.650000,143.877500
135.660467,143.824881
135.690273,143.780273
135.734881,143.750467
135.787500,143.740000
137.512500,143.740000
137.565119,143.750467
137.609727,143.780273
137.639533,143.824881
137.650000,143.877500
137.650000,144.152500
137.639533,144.205119
137.609727,144.249727
137.565119,144.279533
137.512500,144.290000
135.787500,144.290000
135.734881,144.279533
135.690273,144.249727
135.660467,144.205119
135.650000,144.152500
Z" /> 
<path style="fill:#000000; fill-opacity:1.000000; stroke:none;fill-rule:evenodd;"
d="M 124.725000,144.250000
124.707873,144.336104
124.659099,144.409099
124.586104,144.457873
124.500000,144.475000
124.050000,144.475000
123.963896,144.457873
123.890901,144.409099
123.842127,144.336104
123.825000,144.250000
123.825000,143.750000
123.842127,143.663896
123.890901,143.590901
123.963896,143.542127
124.050000,143.525000
124.500000,143.525000
124.586104,143.542127
124.659099,143.590901
124.707873,143.663896
124.725000,143.750000
Z" /> 
<path style="fill:#000000; fill-opacity:1.000000; stroke:none;fill-rule:evenodd;"
d="M 123.175000,144.250000
123.157873,144.336104
123.109099,144.409099
123.036104,144.457873
122.950000,144.475000
122.500000,144.475000
122.413896,144.457873
122.340901,144.409099
122.292127,144.336104
122.275000,144.250000
122.275000,143.750000
122.292127,143.663896
122.340901,143.590901
122.413896,143.542127
122.500000,143.525000
122.950000,143.525000
123.036104,143.542127
123.109099,143.590901
123.157873,143.663896
123.175000,143.750000
Z" /> 
<path style="fill:#000000; fill-opacity:1.000000; stroke:none;fill-rule:evenodd;"
d="M 145.750000,149.940000
145.654329,149.920970
145.573223,149.866777
145.519030,149.785671
145.500000,149.690000
145.500000,148.390000
145.519030,148.294329
145.573223,148.213223
145.654329,148.159030
145.750000,148.140000
147.250000,148.140000
147.345671,148.159030
147.426777,148.213223
147.480970,148.294329
147.500000,148.390000
147.500000,149.690000
147.480970,149.785671
147.426777,149.866777
147.345671,149.920970
147.250000,149.940000
Z" /> 
<path style="fill:#000000; fill-opacity:1.000000; stroke:none;fill-rule:evenodd;"
d="M 145.750000,144.860000
145.654329,144.840970
145.573223,144.786777
145.519030,144.705671
145.500000,144.610000
145.500000,143.310000
145.519030,143.214329
145.573223,143.133223
145.654329,143.079030
145.750000,143.060000
147.250000,143.060000
147.345671,143.079030
147.426777,143.133223
147.480970,143.214329
147.500000,143.310000
147.500000,144.610000
147.480970,144.705671
147.426777,144.786777
147.345671,144.840970
147.250000,144.860000
Z" /> 
<path style="fill:#000000; fill-opacity:1.000000; stroke:none;fill-rule:evenodd;"
d="M 141.750000,144.860000
141.654329,144.840970
141.573223,144.786777
141.519030,144.705671
141.500000,144.610000
141.500000,143.310000
141.519030,143.214329
141.573223,143.133223
141.654329,143.079030
141.750000,143.060000
143.250000,143.060000
143.345671,143.079030
143.426777,143.133223
143.480970,143.214329
143.500000,143.310000
143.500000,144.610000
143.480970,144.705671
143.426777,144.786777
143.345671,144.840970
143.250000,144.860000
Z" /> 
<path style="fill:#000000; fill-opacity:1.000000; stroke:none;fill-rule:evenodd;"
d="M 141.750000,149.940000
141.654329,149.920970
141.573223,149.866777
141.519030,149.785671
141.500000,149.690000
141.500000,148.390000
141.519030,148.294329
141.573223,148.213223
141.654329,148.159030
141.750000,148.140000
143.250000,148.140000
143.345671,148.159030
143.426777,148.213223
143.480970,148.294329
143.500000,148.390000
143.500000,149.690000
143.480970,149.785671
143.426777,149.866777
143.345671,149.920970
143.250000,149.940000
Z" /> 
<path style="fill:#000000; fill-opacity:1.000000; stroke:none;fill-rule:evenodd;"
d="M 119.000000,139.800000
118.942597,139.788582
118.893934,139.756066
118.861418,139.707403
118.850000,139.650000
118.850000,138.350000
118.861418,138.292597
118.893934,138.243934
118.942597,138.211418
119.000000,138.200000
119.300000,138.200000
119.357403,138.211418
119.406066,138.243934
119.438582,138.292597
119.450000,138.350000
119.450000,139.650000
119.438582,139.707403
119.406066,139.756066
119.357403,139.788582
119.300000,139.800000
Z" /> 
<path style="fill:#000000; fill-opacity:1.000000; stroke:none;fill-rule:evenodd;"
d="M 120.270000,139.800000
120.212597,139.788582
120.163934,139.756066
120.131418,139.707403
120.120000,139.650000
120.120000,138.350000
120.131418,138.292597
120.163934,138.243934
120.212597,138.211418
120.270000,138.200000
120.570000,138.200000
120.627403,138.211418
120.676066,138.243934
120.708582,138.292597
120.720000,138.350000
120.720000,139.650000
120.708582,139.707403
120.676066,139.756066
120.627403,139.788582
120.570000,139.800000
Z" /> 
<path style="fill:#000000; fill-opacity:1.000000; stroke:none;fill-rule:evenodd;"
d="M 121.540000,139.800000
121.482597,139.788582
121.433934,139.756066
121.401418,139.707403
121.390000,139.650000
121.390000,138.350000
121.401418,138.292597
121.433934,138.243934
121.482597,138.211418
121.540000,138.200000
121.840000,138.200000
121.897403,138.211418
121.946066,138.243934
121.978582,138.292597
121.990000,138.350000
121.990000,139.650000
121.978582,139.707403
121.946066,139.756066
121.897403,139.788582
121.840000,139.800000
Z" /> 
<path style="fill:#000000; fill-opacity:1.000000; stroke:none;fill-rule:evenodd;"
d="M 122.810000,139.800000
122.752597,139.788582
122.703934,139.756066
122.671418,139.707403
122.660000,139.650000
122.660000,138.350000
122.671418,138.292597
122.703934,138.243934
122.752597,138.211418
122.810000,138.200000
123.110000,138.200000
123.167403,138.211418
123.216066,138.243934
123.248582,138.292597
123.260000,138.350000
123.260000,139.650000
123.248582,139.707403
123.216066,139.756066
123.167403,139.788582
123.110000,139.800000
Z" /> 
<path style="fill:#000000; fill-opacity:1.000000; stroke:none;fill-rule:evenodd;"
d="M 124.080000,139.800000
124.022597,139.788582
123.973934,139.756066
123.941418,139.707403
123.930000,139.650000
123.930000,138.350000
123.941418,138.292597
123.973934,138.243934
124.022597,138.211418
124.080000,138.200000
124.380000,138.200000
124.437403,138.211418
124.486066,138.243934
124.518582,138.292597
124.530000,138.350000
124.530000,139.650000
124.518582,139.707403
124.486066,139.756066
124.437403,139.788582
124.380000,139.800000
Z" /> 
<path style="fill:#000000; fill-opacity:1.000000; stroke:none;fill-rule:evenodd;"
d="M 125.350000,139.800000
125.292597,139.788582
125.243934,139.756066
125.211418,139.707403
125.200000,139.650000
125.200000,138.350000
125.211418,138.292597
125.243934,138.243934
125.292597,138.211418
125.350000,138.200000
125.650000,138.200000
125.707403,138.211418
125.756066,138.243934
125.788582,138.292597
125.800000,138.350000
125.800000,139.650000
125.788582,139.707403
125.756066,139.756066
125.707403,139.788582
125.650000,139.800000
Z" /> 
<path style="fill:#000000; fill-opacity:1.000000; stroke:none;fill-rule:evenodd;"
d="M 126.620000,139.800000
126.562597,139.788582
126.513934,139.756066
126.481418,139.707403
126.470000,139.650000
126.470000,138.350000
126.481418,138.292597
126.513934,138.243934
126.562597,138.211418
126.620000,138.200000
126.920000,138.200000
126.977403,138.211418
127.026066,138.243934
127.058582,138.292597
127.070000,138.350000
127.070000,139.650000
127.058582,139.707403
127.026066,139.756066
126.977403,139.788582
126.920000,139.800000
Z" /> 
<path style="fill:#000000; fill-opacity:1.000000; stroke:none;fill-rule:evenodd;"
d="M 127.890000,139.800000
127.832597,139.788582
127.783934,139.756066
127.751418,139.707403
127.740000,139.650000
127.740000,138.350000
127.751418,138.292597
127.783934,138.243934
127.832597,138.211418
127.890000,138.200000
128.190000,138.200000
128.247403,138.211418
128.296066,138.243934
128.328582,138.292597
128.340000,138.350000
128.340000,139.650000
128.328582,139.707403
128.296066,139.756066
128.247403,139.788582
128.190000,139.800000
Z" /> 
<path style="fill:#000000; fill-opacity:1.000000; stroke:none;fill-rule:evenodd;"
d="M 127.890000,133.300000
127.832597,133.288582
127.783934,133.256066
127.751418,133.207403
127.740000,133.150000
127.740000,131.850000
127.751418,131.792597
127.783934,131.743934
127.832597,131.711418
127.890000,131.700000
128.190000,131.700000
128.247403,131.711418
128.296066,131.743934
128.328582,131.792597
128.340000,131.850000
128.340000,133.150000
128.328582,133.207403
128.296066,133.256066
128.247403,133.288582
128.190000,133.300000
Z" /> 
<path style="fill:#000000; fill-opacity:1.000000; stroke:none;fill-rule:evenodd;"
d="M 126.620000,133.300000
126.562597,133.288582
126.513934,133.256066
126.481418,133.207403
126.470000,133.150000
126.470000,131.850000
126.481418,131.792597
126.513934,131.743934
126.562597,131.711418
126.620000,131.700000
126.920000,131.700000
126.977403,131.711418
127.026066,131.743934
127.058582,131.792597
127.070000,131.850000
127.070000,133.150000
127.058582,133.207403
127.026066,133.256066
126.977403,133.288582
126.920000,133.300000
Z" /> 
<path style="fill:#000000; fill-opacity:1.000000; stroke:none;fill-rule:evenodd;"
d="M 125.350000,133.300000
125.292597,133.288582
125.243934,133.256066
125.211418,133.207403
125.200000,133.150000
125.200000,131.850000
125.211418,131.792597
125.243934,131.743934
125.292597,131.711418
125.350000,131.700000
125.650000,131.700000
125.707403,131.711418
125.756066,131.743934
125.788582,131.792597
125.800000,131.850000
125.800000,133.150000
125.788582,133.207403
125.756066,133.256066
125.707403,133.288582
125.650000,133.300000
Z" /> 
<path style="fill:#000000; fill-opacity:1.000000; stroke:none;fill-rule:evenodd;"
d="M 124.080000,133.300000
124.022597,133.288582
123.973934,133.256066
123.941418,133.207403
123.930000,133.150000
123.930000,131.850000
123.941418,131.792597
123.973934,131.743934
124.022597,131.711418
124.080000,131.700000
124.380000,131.700000
124.437403,131.711418
124.486066,131.743934
124.518582,131.792597
124.530000,131.850000
124.530000,133.150000
124.518582,133.207403
124.486066,133.256066
124.437403,133.288582
124.380000,133.300000
Z" /> 
<path style="fill:#000000; fill-opacity:1.000000; stroke:none;fill-rule:evenodd;"
d="M 122.810000,133.300000
122.752597,133.288582
122.703934,133.256066
122.671418,133.207403
122.660000,133.150000
122.660000,131.850000
122.671418,131.792597
122.703934,131.743934
122.752597,131.711418
122.810000,131.700000
123.110000,131.700000
123.167403,131.711418
123.216066,131.743934
123.248582,131.792597
123.260000,131.850000
123.260000,133.150000
123.248582,133.207403
123.216066,133.256066
123.167403,133.288582
123.110000,133.300000
Z" /> 
<path style="fill:#000000; fill-opacity:1.000000; stroke:none;fill-rule:evenodd;"
d="M 121.540000,133.300000
121.482597,133.288582
121.433934,133.256066
121.401418,133.207403
121.390000,133.150000
121.390000,131.850000
121.401418,131.792597
121.433934,131.743934
121.482597,131.711418
121.540000,131.700000
121.840000,131.700000
121.897403,131.711418
121.946066,131.743934
121.978582,131.792597
121.990000,131.850000
121.990000,133.150000
121.978582,133.207403
121.946066,133.256066
121.897403,133.288582
121.840000,133.300000
Z" /> 
<path style="fill:#000000; fill-opacity:1.000000; stroke:none;fill-rule:evenodd;"
d="M 120.270000,133.300000
120.212597,133.288582
120.163934,133.256066
120.131418,133.207403
120.120000,133.150000
120.120000,131.850000
120.131418,131.792597
120.163934,131.743934
120.212597,131.711418
120.270000,131.700000
120.570000,131.700000
120.627403,131.711418
120.676066,131.743934
120.708582,131.792597
120.720000,131.850000
120.720000,133.150000
120.708582,133.207403
120.676066,133.256066
120.627403,133.288582
120.570000,133.300000
Z" /> 
<path style="fill:#000000; fill-opacity:1.000000; stroke:none;fill-rule:evenodd;"
d="M 119.000000,133.300000
118.942597,133.288582
118.893934,133.256066
118.861418,133.207403
118.850000,133.150000
118.850000,131.850000
118.861418,131.792597
118.893934,131.743934
118.942597,131.711418
119.000000,131.700000
119.300000,131.700000
119.357403,131.711418
119.406066,131.743934
119.438582,131.792597
119.450000,131.850000
119.450000,133.150000
119.438582,133.207403
119.406066,133.256066
119.357403,133.288582
119.300000,133.300000
Z" /> 
<path style="fill:#000000; fill-opacity:1.000000; stroke:none;fill-rule:evenodd;"
d="M 71.775000,153.725000
71.790224,153.648463
71.833579,153.583579
71.898463,153.540224
71.975000,153.525000
72.375000,153.525000
72.451537,153.540224
72.516421,153.583579
72.559776,153.648463
72.575000,153.725000
72.575000,154.275000
72.559776,154.351537
72.516421,154.416421
72.451537,154.459776
72.375000,154.475000
71.975000,154.475000
71.898463,154.459776
71.833579,154.416421
71.790224,154.351537
71.775000,154.275000
Z" /> 
<path style="fill:#000000; fill-opacity:1.000000; stroke:none;fill-rule:evenodd;"
d="M 73.425000,153.725000
73.440224,153.648463
73.483579,153.583579
73.548463,153.540224
73.625000,153.525000
74.025000,153.525000
74.101537,153.540224
74.166421,153.583579
74.209776,153.648463
74.225000,153.725000
74.225000,154.275000
74.209776,154.351537
74.166421,154.416421
74.101537,154.459776
74.025000,154.475000
73.625000,154.475000
73.548463,154.459776
73.483579,154.416421
73.440224,154.351537
73.425000,154.275000
Z" /> 
<path style="fill:#000000; fill-opacity:1.000000; stroke:none;fill-rule:evenodd;"
d="M 125.875000,117.750000
125.892127,117.663896
125.940901,117.590901
126.013896,117.542127
126.100000,117.525000
126.550000,117.525000
126.636104,117.542127
126.709099,117.590901
126.757873,117.663896
126.775000,117.750000
126.775000,118.250000
126.757873,118.336104
126.709099,118.409099
126.636104,118.457873
126.550000,118.475000
126.100000,118.475000
126.013896,118.457873
125.940901,118.409099
125.892127,118.336104
125.875000,118.250000
Z" /> 
<path style="fill:#000000; fill-opacity:1.000000; stroke:none;fill-rule:evenodd;"
d="M 127.425000,117.750000
127.442127,117.663896
127.490901,117.590901
127.563896,117.542127
127.650000,117.525000
128.100000,117.525000
128.186104,117.542127
128.259099,117.590901
128.307873,117.663896
128.325000,117.750000
128.325000,118.250000
128.307873,118.336104
128.259099,118.409099
128.186104,118.457873
128.100000,118.475000
127.650000,118.475000
127.563896,118.457873
127.490901,118.409099
127.442127,118.336104
127.425000,118.250000
Z" /> 
<path style="fill:#000000; fill-opacity:1.000000; stroke:none;fill-rule:evenodd;"
d="M 71.775000,151.225000
71.790224,151.148463
71.833579,151.083579
71.898463,151.040224
71.975000,151.025000
72.375000,151.025000
72.451537,151.040224
72.516421,151.083579
72.559776,151.148463
72.575000,151.225000
72.575000,151.775000
72.559776,151.851537
72.516421,151.916421
72.451537,151.959776
72.375000,151.975000
71.975000,151.975000
71.898463,151.959776
71.833579,151.916421
71.790224,151.851537
71.775000,151.775000
Z" /> 
<path style="fill:#000000; fill-opacity:1.000000; stroke:none;fill-rule:evenodd;"
d="M 73.425000,151.225000
73.440224,151.148463
73.483579,151.083579
73.548463,151.040224
73.625000,151.025000
74.025000,151.025000
74.101537,151.040224
74.166421,151.083579
74.209776,151.148463
74.225000,151.225000
74.225000,151.775000
74.209776,151.851537
74.166421,151.916421
74.101537,151.959776
74.025000,151.975000
73.625000,151.975000
73.548463,151.959776
73.483579,151.916421
73.440224,151.851537
73.425000,151.775000
Z" /> 
<path style="fill:#000000; fill-opacity:1.000000; stroke:none;fill-rule:evenodd;"
d="M 142.175000,120.320000
142.190224,120.243463
142.233579,120.178579
142.298463,120.135224
142.375000,120.120000
142.775000,120.120000
142.851537,120.135224
142.916421,120.178579
142.959776,120.243463
142.975000,120.320000
142.975000,120.870000
142.959776,120.946537
142.916421,121.011421
142.851537,121.054776
142.775000,121.070000
142.375000,121.070000
142.298463,121.054776
142.233579,121.011421
142.190224,120.946537
142.175000,120.870000
Z" /> 
<path style="fill:#000000; fill-opacity:1.000000; stroke:none;fill-rule:evenodd;"
d="M 143.825000,120.320000
143.840224,120.243463
143.883579,120.178579
143.948463,120.135224
144.025000,120.120000
144.425000,120.120000
144.501537,120.135224
144.566421,120.178579
144.609776,120.243463
144.625000,120.320000
144.625000,120.870000
144.609776,120.946537
144.566421,121.011421
144.501537,121.054776
144.425000,121.070000
144.025000,121.070000
143.948463,121.054776
143.883579,121.011421
143.840224,120.946537
143.825000,120.870000
Z" /> 
<path style="fill:#000000; fill-opacity:1.000000; stroke:none;fill-rule:evenodd;"
d="M 125.625000,129.925000
125.548463,129.909776
125.483579,129.866421
125.440224,129.801537
125.425000,129.725000
125.425000,129.325000
125.440224,129.248463
125.483579,129.183579
125.548463,129.140224
125.625000,129.125000
126.175000,129.125000
126.251537,129.140224
126.316421,129.183579
126.359776,129.248463
126.375000,129.325000
126.375000,129.725000
126.359776,129.801537
126.316421,129.866421
126.251537,129.909776
126.175000,129.925000
Z" /> 
<path style="fill:#000000; fill-opacity:1.000000; stroke:none;fill-rule:evenodd;"
d="M 125.625000,128.275000
125.548463,128.259776
125.483579,128.216421
125.440224,128.151537
125.425000,128.075000
125.425000,127.675000
125.440224,127.598463
125.483579,127.533579
125.548463,127.490224
125.625000,127.475000
126.175000,127.475000
126.251537,127.490224
126.316421,127.533579
126.359776,127.598463
126.375000,127.675000
126.375000,128.075000
126.359776,128.151537
126.316421,128.216421
126.251537,128.259776
126.175000,128.275000
Z" /> 
<path style="fill:#000000; fill-opacity:1.000000; stroke:none;fill-rule:evenodd;"
d="M 142.175000,130.320000
142.190224,130.243463
142.233579,130.178579
142.298463,130.135224
142.375000,130.120000
142.775000,130.120000
142.851537,130.135224
142.916421,130.178579
142.959776,130.243463
142.975000,130.320000
142.975000,130.870000
142.959776,130.946537
142.916421,131.011421
142.851537,131.054776
142.775000,131.070000
142.375000,131.070000
142.298463,131.054776
142.233579,131.011421
142.190224,130.946537
142.175000,130.870000
Z" /> 
<path style="fill:#000000; fill-opacity:1.000000; stroke:none;fill-rule:evenodd;"
d="M 143.825000,130.320000
143.840224,130.243463
143.883579,130.178579
143.948463,130.135224
144.025000,130.120000
144.425000,130.120000
144.501537,130.135224
144.566421,130.178579
144.609776,130.243463
144.625000,130.320000
144.625000,130.870000
144.609776,130.946537
144.566421,131.011421
144.501537,131.054776
144.425000,131.070000
144.025000,131.070000
143.948463,131.054776
143.883579,131.011421
143.840224,130.946537
143.825000,130.870000
Z" /> 
<path style="fill:#000000; fill-opacity:1.000000; stroke:none;fill-rule:evenodd;"
d="M 71.775000,146.225000
71.790224,146.148463
71.833579,146.083579
71.898463,146.040224
71.975000,146.025000
72.375000,146.025000
72.451537,146.040224
72.516421,146.083579
72.559776,146.148463
72.575000,146.225000
72.575000,146.775000
72.559776,146.851537
72.516421,146.916421
72.451537,146.959776
72.375000,146.975000
71.975000,146.975000
71.898463,146.959776
71.833579,146.916421
71.790224,146.851537
71.775000,146.775000
Z" /> 
<path style="fill:#000000; fill-opacity:1.000000; stroke:none;fill-rule:evenodd;"
d="M 73.425000,146.225000
73.440224,146.148463
73.483579,146.083579
73.548463,146.040224
73.625000,146.025000
74.025000,146.025000
74.101537,146.040224
74.166421,146.083579
74.209776,146.148463
74.225000,146.225000
74.225000,146.775000
74.209776,146.851537
74.166421,146.916421
74.101537,146.959776
74.025000,146.975000
73.625000,146.975000
73.548463,146.959776
73.483579,146.916421
73.440224,146.851537
73.425000,146.775000
Z" /> 
<path style="fill:#000000; fill-opacity:1.000000; stroke:none;fill-rule:evenodd;"
d="M 71.775000,141.225000
71.790224,141.148463
71.833579,141.083579
71.898463,141.040224
71.975000,141.025000
72.375000,141.025000
72.451537,141.040224
72.516421,141.083579
72.559776,141.148463
72.575000,141.225000
72.575000,141.775000
72.559776,141.851537
72.516421,141.916421
72.451537,141.959776
72.375000,141.975000
71.975000,141.975000
71.898463,141.959776
71.833579,141.916421
71.790224,141.851537
71.775000,141.775000
Z" /> 
<path style="fill:#000000; fill-opacity:1.000000; stroke:none;fill-rule:evenodd;"
d="M 73.425000,141.225000
73.440224,141.148463
73.483579,141.083579
73.548463,141.040224
73.625000,141.025000
74.025000,141.025000
74.101537,141.040224
74.166421,141.083579
74.209776,141.148463
74.225000,141.225000
74.225000,141.775000
74.209776,141.851537
74.166421,141.916421
74.101537,141.959776
74.025000,141.975000
73.625000,141.975000
73.548463,141.959776
73.483579,141.916421
73.440224,141.851537
73.425000,141.775000
Z" /> 
<path style="fill:#000000; fill-opacity:1.000000; stroke:none;fill-rule:evenodd;"
d="M 122.000000,117.750000
122.017127,117.663896
122.065901,117.590901
122.138896,117.542127
122.225000,117.525000
122.675000,117.525000
122.761104,117.542127
122.834099,117.590901
122.882873,117.663896
122.900000,117.750000
122.900000,118.250000
122.882873,118.336104
122.834099,118.409099
122.761104,118.457873
122.675000,118.475000
122.225000,118.475000
122.138896,118.457873
122.065901,118.409099
122.017127,118.336104
122.000000,118.250000
Z" /> 
<path style="fill:#000000; fill-opacity:1.000000; stroke:none;fill-rule:evenodd;"
d="M 123.550000,117.750000
123.567127,117.663896
123.615901,117.590901
123.688896,117.542127
123.775000,117.525000
124.225000,117.525000
124.311104,117.542127
124.384099,117.590901
124.432873,117.663896
124.450000,117.750000
124.450000,118.250000
124.432873,118.336104
124.384099,118.409099
124.311104,118.457873
124.225000,118.475000
123.775000,118.475000
123.688896,118.457873
123.615901,118.409099
123.567127,118.336104
123.550000,118.250000
Z" /> 
<path style="fill:#000000; fill-opacity:1.000000; stroke:none;fill-rule:evenodd;"
d="M 71.775000,143.725000
71.790224,143.648463
71.833579,143.583579
71.898463,143.540224
71.975000,143.525000
72.375000,143.525000
72.451537,143.540224
72.516421,143.583579
72.559776,143.648463
72.575000,143.725000
72.575000,144.275000
72.559776,144.351537
72.516421,144.416421
72.451537,144.459776
72.375000,144.475000
71.975000,144.475000
71.898463,144.459776
71.833579,144.416421
71.790224,144.351537
71.775000,144.275000
Z" /> 
<path style="fill:#000000; fill-opacity:1.000000; stroke:none;fill-rule:evenodd;"
d="M 73.425000,143.725000
73.440224,143.648463
73.483579,143.583579
73.548463,143.540224
73.625000,143.525000
74.025000,143.525000
74.101537,143.540224
74.166421,143.583579
74.209776,143.648463
74.225000,143.725000
74.225000,144.275000
74.209776,144.351537
74.166421,144.416421
74.101537,144.459776
74.025000,144.475000
73.625000,144.475000
73.548463,144.459776
73.483579,144.416421
73.440224,144.351537
73.425000,144.275000
Z" /> 
<path style="fill:#000000; fill-opacity:1.000000; stroke:none;fill-rule:evenodd;"
d="M 119.540000,126.487022
119.482597,126.475604
119.433934,126.443088
119.401418,126.394425
119.390000,126.337022
119.390000,124.687022
119.401418,124.629619
119.433934,124.580956
119.482597,124.548440
119.540000,124.537022
119.840000,124.537022
119.897403,124.548440
119.946066,124.580956
119.978582,124.629619
119.990000,124.687022
119.990000,126.337022
119.978582,126.394425
119.946066,126.443088
119.897403,126.475604
119.840000,126.487022
Z" /> 
<path style="fill:#000000; fill-opacity:1.000000; stroke:none;fill-rule:evenodd;"
d="M 120.810000,126.487022
120.752597,126.475604
120.703934,126.443088
120.671418,126.394425
120.660000,126.337022
120.660000,124.687022
120.671418,124.629619
120.703934,124.580956
120.752597,124.548440
120.810000,124.537022
121.110000,124.537022
121.167403,124.548440
121.216066,124.580956
121.248582,124.629619
121.260000,124.687022
121.260000,126.337022
121.248582,126.394425
121.216066,126.443088
121.167403,126.475604
121.110000,126.487022
Z" /> 
<path style="fill:#000000; fill-opacity:1.000000; stroke:none;fill-rule:evenodd;"
d="M 122.080000,126.487022
122.022597,126.475604
121.973934,126.443088
121.941418,126.394425
121.930000,126.337022
121.930000,124.687022
121.941418,124.629619
121.973934,124.580956
122.022597,124.548440
122.080000,124.537022
122.380000,124.537022
122.437403,124.548440
122.486066,124.580956
122.518582,124.629619
122.530000,124.687022
122.530000,126.337022
122.518582,126.394425
122.486066,126.443088
122.437403,126.475604
122.380000,126.487022
Z" /> 
<path style="fill:#000000; fill-opacity:1.000000; stroke:none;fill-rule:evenodd;"
d="M 123.350000,126.487022
123.292597,126.475604
123.243934,126.443088
123.211418,126.394425
123.200000,126.337022
123.200000,124.687022
123.211418,124.629619
123.243934,124.580956
123.292597,124.548440
123.350000,124.537022
123.650000,124.537022
123.707403,124.548440
123.756066,124.580956
123.788582,124.629619
123.800000,124.687022
123.800000,126.337022
123.788582,126.394425
123.756066,126.443088
123.707403,126.475604
123.650000,126.487022
Z" /> 
<path style="fill:#000000; fill-opacity:1.000000; stroke:none;fill-rule:evenodd;"
d="M 124.620000,126.487022
124.562597,126.475604
124.513934,126.443088
124.481418,126.394425
124.470000,126.337022
124.470000,124.687022
124.481418,124.629619
124.513934,124.580956
124.562597,124.548440
124.620000,124.537022
124.920000,124.537022
124.977403,124.548440
125.026066,124.580956
125.058582,124.629619
125.070000,124.687022
125.070000,126.337022
125.058582,126.394425
125.026066,126.443088
124.977403,126.475604
124.920000,126.487022
Z" /> 
<path style="fill:#000000; fill-opacity:1.000000; stroke:none;fill-rule:evenodd;"
d="M 125.890000,126.487022
125.832597,126.475604
125.783934,126.443088
125.751418,126.394425
125.740000,126.337022
125.740000,124.687022
125.751418,124.629619
125.783934,124.580956
125.832597,124.548440
125.890000,124.537022
126.190000,124.537022
126.247403,124.548440
126.296066,124.580956
126.328582,124.629619
126.340000,124.687022
126.340000,126.337022
126.328582,126.394425
126.296066,126.443088
126.247403,126.475604
126.190000,126.487022
Z" /> 
<path style="fill:#000000; fill-opacity:1.000000; stroke:none;fill-rule:evenodd;"
d="M 127.160000,126.487022
127.102597,126.475604
127.053934,126.443088
127.021418,126.394425
127.010000,126.337022
127.010000,124.687022
127.021418,124.629619
127.053934,124.580956
127.102597,124.548440
127.160000,124.537022
127.460000,124.537022
127.517403,124.548440
127.566066,124.580956
127.598582,124.629619
127.610000,124.687022
127.610000,126.337022
127.598582,126.394425
127.566066,126.443088
127.517403,126.475604
127.460000,126.487022
Z" /> 
<path style="fill:#000000; fill-opacity:1.000000; stroke:none;fill-rule:evenodd;"
d="M 127.160000,121.537022
127.102597,121.525604
127.053934,121.493088
127.021418,121.444425
127.010000,121.387022
127.010000,119.737022
127.021418,119.679619
127.053934,119.630956
127.102597,119.598440
127.160000,119.587022
127.460000,119.587022
127.517403,119.598440
127.566066,119.630956
127.598582,119.679619
127.610000,119.737022
127.610000,121.387022
127.598582,121.444425
127.566066,121.493088
127.517403,121.525604
127.460000,121.537022
Z" /> 
<path style="fill:#000000; fill-opacity:1.000000; stroke:none;fill-rule:evenodd;"
d="M 125.890000,121.537022
125.832597,121.525604
125.783934,121.493088
125.751418,121.444425
125.740000,121.387022
125.740000,119.737022
125.751418,119.679619
125.783934,119.630956
125.832597,119.598440
125.890000,119.587022
126.190000,119.587022
126.247403,119.598440
126.296066,119.630956
126.328582,119.679619
126.340000,119.737022
126.340000,121.387022
126.328582,121.444425
126.296066,121.493088
126.247403,121.525604
126.190000,121.537022
Z" /> 
<path style="fill:#000000; fill-opacity:1.000000; stroke:none;fill-rule:evenodd;"
d="M 124.620000,121.537022
124.562597,121.525604
124.513934,121.493088
124.481418,121.444425
124.470000,121.387022
124.470000,119.737022
124.481418,119.679619
124.513934,119.630956
124.562597,119.598440
124.620000,119.587022
124.920000,119.587022
124.977403,119.598440
125.026066,119.630956
125.058582,119.679619
125.070000,119.737022
125.070000,121.387022
125.058582,121.444425
125.026066,121.493088
124.977403,121.525604
124.920000,121.537022
Z" /> 
<path style="fill:#000000; fill-opacity:1.000000; stroke:none;fill-rule:evenodd;"
d="M 123.350000,121.537022
123.292597,121.525604
123.243934,121.493088
123.211418,121.444425
123.200000,121.387022
123.200000,119.737022
123.211418,119.679619
123.243934,119.630956
123.292597,119.598440
123.350000,119.587022
123.650000,119.587022
123.707403,119.598440
123.756066,119.630956
123.788582,119.679619
123.800000,119.737022
123.800000,121.387022
123.788582,121.444425
123.756066,121.493088
123.707403,121.525604
123.650000,121.537022
Z" /> 
<path style="fill:#000000; fill-opacity:1.000000; stroke:none;fill-rule:evenodd;"
d="M 122.080000,121.537022
122.022597,121.525604
121.973934,121.493088
121.941418,121.444425
121.930000,121.387022
121.930000,119.737022
121.941418,119.679619
121.973934,119.630956
122.022597,119.598440
122.080000,119.587022
122.380000,119.587022
122.437403,119.598440
122.486066,119.630956
122.518582,119.679619
122.530000,119.737022
122.530000,121.387022
122.518582,121.444425
122.486066,121.493088
122.437403,121.525604
122.380000,121.537022
Z" /> 
<path style="fill:#000000; fill-opacity:1.000000; stroke:none;fill-rule:evenodd;"
d="M 120.810000,121.537022
120.752597,121.525604
120.703934,121.493088
120.671418,121.444425
120.660000,121.387022
120.660000,119.737022
120.671418,119.679619
120.703934,119.630956
120.752597,119.598440
120.810000,119.587022
121.110000,119.587022
121.167403,119.598440
121.216066,119.630956
121.248582,119.679619
121.260000,119.737022
121.260000,121.387022
121.248582,121.444425
121.216066,121.493088
121.167403,121.525604
121.110000,121.537022
Z" /> 
<path style="fill:#000000; fill-opacity:1.000000; stroke:none;fill-rule:evenodd;"
d="M 119.540000,121.537022
119.482597,121.525604
119.433934,121.493088
119.401418,121.444425
119.390000,121.387022
119.390000,119.737022
119.401418,119.679619
119.433934,119.630956
119.482597,119.598440
119.540000,119.587022
119.840000,119.587022
119.897403,119.598440
119.946066,119.630956
119.978582,119.679619
119.990000,119.737022
119.990000,121.387022
119.978582,121.444425
119.946066,121.493088
119.897403,121.525604
119.840000,121.537022
Z" /> 
<path style="fill:#000000; fill-opacity:1.000000; stroke:none;fill-rule:evenodd;"
d="M 131.450000,130.045000
131.469030,129.949329
131.523223,129.868223
131.604329,129.814030
131.700000,129.795000
134.700000,129.795000
134.795671,129.814030
134.876777,129.868223
134.930970,129.949329
134.950000,130.045000
134.950000,131.145000
134.930970,131.240671
134.876777,131.321777
134.795671,131.375970
134.700000,131.395000
131.700000,131.395000
131.604329,131.375970
131.523223,131.321777
131.469030,131.240671
131.450000,131.145000
Z" /> 
<path style="fill:#000000; fill-opacity:1.000000; stroke:none;fill-rule:evenodd;"
d="M 136.850000,130.045000
136.869030,129.949329
136.923223,129.868223
137.004329,129.814030
137.100000,129.795000
140.100000,129.795000
140.195671,129.814030
140.276777,129.868223
140.330970,129.949329
140.350000,130.045000
140.350000,131.145000
140.330970,131.240671
140.276777,131.321777
140.195671,131.375970
140.100000,131.395000
137.100000,131.395000
137.004329,131.375970
136.923223,131.321777
136.869030,131.240671
136.850000,131.145000
Z" /> 
<path style="fill:#000000; fill-opacity:1.000000; stroke:none;fill-rule:evenodd;"
d="M 71.775000,148.725000
71.790224,148.648463
71.833579,148.583579
71.898463,148.540224
71.975000,148.525000
72.375000,148.525000
72.451537,148.540224
72.516421,148.583579
72.559776,148.648463
72.575000,148.725000
72.575000,149.275000
72.559776,149.351537
72.516421,149.416421
72.451537,149.459776
72.375000,149.475000
71.975000,149.475000
71.898463,149.459776
71.833579,149.416421
71.790224,149.351537
71.775000,149.275000
Z" /> 
<path style="fill:#000000; fill-opacity:1.000000; stroke:none;fill-rule:evenodd;"
d="M 73.425000,148.725000
73.440224,148.648463
73.483579,148.583579
73.548463,148.540224
73.625000,148.525000
74.025000,148.525000
74.101537,148.540224
74.166421,148.583579
74.209776,148.648463
74.225000,148.725000
74.225000,149.275000
74.209776,149.351537
74.166421,149.416421
74.101537,149.459776
74.025000,149.475000
73.625000,149.475000
73.548463,149.459776
73.483579,149.416421
73.440224,149.351537
73.425000,149.275000
Z" /> 
<path style="fill:#000000; fill-opacity:1.000000; stroke:none;fill-rule:evenodd;"
d="M 106.950000,156.550000
106.930970,156.645671
106.876777,156.726777
106.795671,156.780970
106.700000,156.800000
103.700000,156.800000
103.604329,156.780970
103.523223,156.726777
103.469030,156.645671
103.450000,156.550000
103.450000,155.450000
103.469030,155.354329
103.523223,155.273223
103.604329,155.219030
103.700000,155.200000
106.700000,155.200000
106.795671,155.219030
106.876777,155.273223
106.930970,155.354329
106.950000,155.450000
Z" /> 
<path style="fill:#000000; fill-opacity:1.000000; stroke:none;fill-rule:evenodd;"
d="M 101.550000,156.550000
101.530970,156.645671
101.476777,156.726777
101.395671,156.780970
101.300000,156.800000
98.300000,156.800000
98.204329,156.780970
98.123223,156.726777
98.069030,156.645671
98.050000,156.550000
98.050000,155.450000
98.069030,155.354329
98.123223,155.273223
98.204329,155.219030
98.300000,155.200000
101.300000,155.200000
101.395671,155.219030
101.476777,155.273223
101.530970,155.354329
101.550000,155.450000
Z" /> 
<path style="fill:#000000; fill-opacity:1.000000; stroke:none;fill-rule:evenodd;"
d="M 106.950000,146.050000
106.930970,146.145671
106.876777,146.226777
106.795671,146.280970
106.700000,146.300000
103.700000,146.300000
103.604329,146.280970
103.523223,146.226777
103.469030,146.145671
103.450000,146.050000
103.450000,144.950000
103.469030,144.854329
103.523223,144.773223
103.604329,144.719030
103.700000,144.700000
106.700000,144.700000
106.795671,144.719030
106.876777,144.773223
106.930970,144.854329
106.950000,144.950000
Z" /> 
<path style="fill:#000000; fill-opacity:1.000000; stroke:none;fill-rule:evenodd;"
d="M 101.550000,146.050000
101.530970,146.145671
101.476777,146.226777
101.395671,146.280970
101.300000,146.300000
98.300000,146.300000
98.204329,146.280970
98.123223,146.226777
98.069030,146.145671
98.050000,146.050000
98.050000,144.950000
98.069030,144.854329
98.123223,144.773223
98.204329,144.719030
98.300000,144.700000
101.300000,144.700000
101.395671,144.719030
101.476777,144.773223
101.530970,144.854329
101.550000,144.950000
Z" /> 
<path style="fill:#000000; fill-opacity:1.000000; stroke:none;fill-rule:evenodd;"
d="M 131.450000,120.045000
131.469030,119.949329
131.523223,119.868223
131.604329,119.814030
131.700000,119.795000
134.700000,119.795000
134.795671,119.814030
134.876777,119.868223
134.930970,119.949329
134.950000,120.045000
134.950000,121.145000
134.930970,121.240671
134.876777,121.321777
134.795671,121.375970
134.700000,121.395000
131.700000,121.395000
131.604329,121.375970
131.523223,121.321777
131.469030,121.240671
131.450000,121.145000
Z" /> 
<path style="fill:#000000; fill-opacity:1.000000; stroke:none;fill-rule:evenodd;"
d="M 136.850000,120.045000
136.869030,119.949329
136.923223,119.868223
137.004329,119.814030
137.100000,119.795000
140.100000,119.795000
140.195671,119.814030
140.276777,119.868223
140.330970,119.949329
140.350000,120.045000
140.350000,121.145000
140.330970,121.240671
140.276777,121.321777
140.195671,121.375970
140.100000,121.395000
137.100000,121.395000
137.004329,121.375970
136.923223,121.321777
136.869030,121.240671
136.850000,121.145000
Z" /> 
<path style="fill:#000000; fill-opacity:1.000000; stroke:none;fill-rule:evenodd;"
d="M 149.139000,148.776000
149.156127,148.689896
149.204901,148.616901
149.277896,148.568127
149.364000,148.551000
149.814000,148.551000
149.900104,148.568127
149.973099,148.616901
150.021873,148.689896
150.039000,148.776000
150.039000,149.276000
150.021873,149.362104
149.973099,149.435099
149.900104,149.483873
149.814000,149.501000
149.364000,149.501000
149.277896,149.483873
149.204901,149.435099
149.156127,149.362104
149.139000,149.276000
Z" /> 
<path style="fill:#000000; fill-opacity:1.000000; stroke:none;fill-rule:evenodd;"
d="M 150.689000,148.776000
150.706127,148.689896
150.754901,148.616901
150.827896,148.568127
150.914000,148.551000
151.364000,148.551000
151.450104,148.568127
151.523099,148.616901
151.571873,148.689896
151.589000,148.776000
151.589000,149.276000
151.571873,149.362104
151.523099,149.435099
151.450104,149.483873
151.364000,149.501000
150.914000,149.501000
150.827896,149.483873
150.754901,149.435099
150.706127,149.362104
150.689000,149.276000
Z" /> 
<path style="fill:#000000; fill-opacity:1.000000; stroke:none;fill-rule:evenodd;"
d="M 142.175000,124.320000
142.190224,124.243463
142.233579,124.178579
142.298463,124.135224
142.375000,124.120000
142.775000,124.120000
142.851537,124.135224
142.916421,124.178579
142.959776,124.243463
142.975000,124.320000
142.975000,124.870000
142.959776,124.946537
142.916421,125.011421
142.851537,125.054776
142.775000,125.070000
142.375000,125.070000
142.298463,125.054776
142.233579,125.011421
142.190224,124.946537
142.175000,124.870000
Z" /> 
<path style="fill:#000000; fill-opacity:1.000000; stroke:none;fill-rule:evenodd;"
d="M 143.825000,124.320000
143.840224,124.243463
143.883579,124.178579
143.948463,124.135224
144.025000,124.120000
144.425000,124.120000
144.501537,124.135224
144.566421,124.178579
144.609776,124.243463
144.625000,124.320000
144.625000,124.870000
144.609776,124.946537
144.566421,125.011421
144.501537,125.054776
144.425000,125.070000
144.025000,125.070000
143.948463,125.054776
143.883579,125.011421
143.840224,124.946537
143.825000,124.870000
Z" /> 
<path style="fill:#000000; fill-opacity:1.000000; stroke:none;fill-rule:evenodd;"
d="M 142.175000,134.515000
142.190224,134.438463
142.233579,134.373579
142.298463,134.330224
142.375000,134.315000
142.775000,134.315000
142.851537,134.330224
142.916421,134.373579
142.959776,134.438463
142.975000,134.515000
142.975000,135.065000
142.959776,135.141537
142.916421,135.206421
142.851537,135.249776
142.775000,135.265000
142.375000,135.265000
142.298463,135.249776
142.233579,135.206421
142.190224,135.141537
142.175000,135.065000
Z" /> 
<path style="fill:#000000; fill-opacity:1.000000; stroke:none;fill-rule:evenodd;"
d="M 143.825000,134.515000
143.840224,134.438463
143.883579,134.373579
143.948463,134.330224
144.025000,134.315000
144.425000,134.315000
144.501537,134.330224
144.566421,134.373579
144.609776,134.438463
144.625000,134.515000
144.625000,135.065000
144.609776,135.141537
144.566421,135.206421
144.501537,135.249776
144.425000,135.265000
144.025000,135.265000
143.948463,135.249776
143.883579,135.206421
143.840224,135.141537
143.825000,135.065000
Z" /> 
</g> 
</svg>
