<?xml version="1.0" standalone="no"?>
 <!DOCTYPE svg PUBLIC "-//W3C//DTD SVG 1.1//EN" 
 "http://www.w3.org/Graphics/SVG/1.1/DTD/svg11.dtd"> 
<svg
  xmlns:svg="http://www.w3.org/2000/svg"
  xmlns="http://www.w3.org/2000/svg"
  xmlns:xlink="http://www.w3.org/1999/xlink"
  version="1.1"
  width="10.215000000000002cm" height="5.215cm" viewBox="59.425 113.425 102.15 52.15">
<title>SVG Image created as rcbus-opl3-F_Paste.svg date 2025/10/01 20:48:51 </title>
  <desc>Image generated by PCBNEW </desc>
<g style="fill:#000000; fill-opacity:1.000000;stroke:#000000; stroke-opacity:1.000000;
stroke-linecap:round; stroke-linejoin:round;"
 transform="translate(0 0) scale(1 1)">
<path style="fill:#000000; fill-opacity:1.000000; stroke:none;fill-rule:evenodd;"
d="M 112.475000,157.000000
112.457873,157.086104
112.409099,157.159099
112.336104,157.207873
112.250000,157.225000
111.800000,157.225000
111.713896,157.207873
111.640901,157.159099
111.592127,157.086104
111.575000,157.000000
111.575000,156.500000
111.592127,156.413896
111.640901,156.340901
111.713896,156.292127
111.800000,156.275000
112.250000,156.275000
112.336104,156.292127
112.409099,156.340901
112.457873,156.413896
112.475000,156.500000
Z" /> 
<path style="fill:#000000; fill-opacity:1.000000; stroke:none;fill-rule:evenodd;"
d="M 110.925000,157.000000
110.907873,157.086104
110.859099,157.159099
110.786104,157.207873
110.700000,157.225000
110.250000,157.225000
110.163896,157.207873
110.090901,157.159099
110.042127,157.086104
110.025000,157.000000
110.025000,156.500000
110.042127,156.413896
110.090901,156.340901
110.163896,156.292127
110.250000,156.275000
110.700000,156.275000
110.786104,156.292127
110.859099,156.340901
110.907873,156.413896
110.925000,156.500000
Z" /> 
<path style="fill:#000000; fill-opacity:1.000000; stroke:none;fill-rule:evenodd;"
d="M 112.475000,141.250000
112.457873,141.336104
112.409099,141.409099
112.336104,141.457873
112.250000,141.475000
111.800000,141.475000
111.713896,141.457873
111.640901,141.409099
111.592127,141.336104
111.575000,141.250000
111.575000,140.750000
111.592127,140.663896
111.640901,140.590901
111.713896,140.542127
111.800000,140.525000
112.250000,140.525000
112.336104,140.542127
112.409099,140.590901
112.457873,140.663896
112.475000,140.750000
Z" /> 
<path style="fill:#000000; fill-opacity:1.000000; stroke:none;fill-rule:evenodd;"
d="M 110.925000,141.250000
110.907873,141.336104
110.859099,141.409099
110.786104,141.457873
110.700000,141.475000
110.250000,141.475000
110.163896,141.457873
110.090901,141.409099
110.042127,141.336104
110.025000,141.250000
110.025000,140.750000
110.042127,140.663896
110.090901,140.590901
110.163896,140.542127
110.250000,140.525000
110.700000,140.525000
110.786104,140.542127
110.859099,140.590901
110.907873,140.663896
110.925000,140.750000
Z" /> 
<path style="fill:#000000; fill-opacity:1.000000; stroke:none;fill-rule:evenodd;"
d="M 80.730000,157.525000
80.672597,157.513582
80.623934,157.481066
80.591418,157.432403
80.580000,157.375000
80.580000,155.625000
80.591418,155.567597
80.623934,155.518934
80.672597,155.486418
80.730000,155.475000
81.030000,155.475000
81.087403,155.486418
81.136066,155.518934
81.168582,155.567597
81.180000,155.625000
81.180000,157.375000
81.168582,157.432403
81.136066,157.481066
81.087403,157.513582
81.030000,157.525000
Z" /> 
<path style="fill:#000000; fill-opacity:1.000000; stroke:none;fill-rule:evenodd;"
d="M 82.000000,157.525000
81.942597,157.513582
81.893934,157.481066
81.861418,157.432403
81.850000,157.375000
81.850000,155.625000
81.861418,155.567597
81.893934,155.518934
81.942597,155.486418
82.000000,155.475000
82.300000,155.475000
82.357403,155.486418
82.406066,155.518934
82.438582,155.567597
82.450000,155.625000
82.450000,157.375000
82.438582,157.432403
82.406066,157.481066
82.357403,157.513582
82.300000,157.525000
Z" /> 
<path style="fill:#000000; fill-opacity:1.000000; stroke:none;fill-rule:evenodd;"
d="M 83.270000,157.525000
83.212597,157.513582
83.163934,157.481066
83.131418,157.432403
83.120000,157.375000
83.120000,155.625000
83.131418,155.567597
83.163934,155.518934
83.212597,155.486418
83.270000,155.475000
83.570000,155.475000
83.627403,155.486418
83.676066,155.518934
83.708582,155.567597
83.720000,155.625000
83.720000,157.375000
83.708582,157.432403
83.676066,157.481066
83.627403,157.513582
83.570000,157.525000
Z" /> 
<path style="fill:#000000; fill-opacity:1.000000; stroke:none;fill-rule:evenodd;"
d="M 84.540000,157.525000
84.482597,157.513582
84.433934,157.481066
84.401418,157.432403
84.390000,157.375000
84.390000,155.625000
84.401418,155.567597
84.433934,155.518934
84.482597,155.486418
84.540000,155.475000
84.840000,155.475000
84.897403,155.486418
84.946066,155.518934
84.978582,155.567597
84.990000,155.625000
84.990000,157.375000
84.978582,157.432403
84.946066,157.481066
84.897403,157.513582
84.840000,157.525000
Z" /> 
<path style="fill:#000000; fill-opacity:1.000000; stroke:none;fill-rule:evenodd;"
d="M 85.810000,157.525000
85.752597,157.513582
85.703934,157.481066
85.671418,157.432403
85.660000,157.375000
85.660000,155.625000
85.671418,155.567597
85.703934,155.518934
85.752597,155.486418
85.810000,155.475000
86.110000,155.475000
86.167403,155.486418
86.216066,155.518934
86.248582,155.567597
86.260000,155.625000
86.260000,157.375000
86.248582,157.432403
86.216066,157.481066
86.167403,157.513582
86.110000,157.525000
Z" /> 
<path style="fill:#000000; fill-opacity:1.000000; stroke:none;fill-rule:evenodd;"
d="M 87.080000,157.525000
87.022597,157.513582
86.973934,157.481066
86.941418,157.432403
86.930000,157.375000
86.930000,155.625000
86.941418,155.567597
86.973934,155.518934
87.022597,155.486418
87.080000,155.475000
87.380000,155.475000
87.437403,155.486418
87.486066,155.518934
87.518582,155.567597
87.530000,155.625000
87.530000,157.375000
87.518582,157.432403
87.486066,157.481066
87.437403,157.513582
87.380000,157.525000
Z" /> 
<path style="fill:#000000; fill-opacity:1.000000; stroke:none;fill-rule:evenodd;"
d="M 88.350000,157.525000
88.292597,157.513582
88.243934,157.481066
88.211418,157.432403
88.200000,157.375000
88.200000,155.625000
88.211418,155.567597
88.243934,155.518934
88.292597,155.486418
88.350000,155.475000
88.650000,155.475000
88.707403,155.486418
88.756066,155.518934
88.788582,155.567597
88.800000,155.625000
88.800000,157.375000
88.788582,157.432403
88.756066,157.481066
88.707403,157.513582
88.650000,157.525000
Z" /> 
<path style="fill:#000000; fill-opacity:1.000000; stroke:none;fill-rule:evenodd;"
d="M 89.620000,157.525000
89.562597,157.513582
89.513934,157.481066
89.481418,157.432403
89.470000,157.375000
89.470000,155.625000
89.481418,155.567597
89.513934,155.518934
89.562597,155.486418
89.620000,155.475000
89.920000,155.475000
89.977403,155.486418
90.026066,155.518934
90.058582,155.567597
90.070000,155.625000
90.070000,157.375000
90.058582,157.432403
90.026066,157.481066
89.977403,157.513582
89.920000,157.525000
Z" /> 
<path style="fill:#000000; fill-opacity:1.000000; stroke:none;fill-rule:evenodd;"
d="M 90.890000,157.525000
90.832597,157.513582
90.783934,157.481066
90.751418,157.432403
90.740000,157.375000
90.740000,155.625000
90.751418,155.567597
90.783934,155.518934
90.832597,155.486418
90.890000,155.475000
91.190000,155.475000
91.247403,155.486418
91.296066,155.518934
91.328582,155.567597
91.340000,155.625000
91.340000,157.375000
91.328582,157.432403
91.296066,157.481066
91.247403,157.513582
91.190000,157.525000
Z" /> 
<path style="fill:#000000; fill-opacity:1.000000; stroke:none;fill-rule:evenodd;"
d="M 92.160000,157.525000
92.102597,157.513582
92.053934,157.481066
92.021418,157.432403
92.010000,157.375000
92.010000,155.625000
92.021418,155.567597
92.053934,155.518934
92.102597,155.486418
92.160000,155.475000
92.460000,155.475000
92.517403,155.486418
92.566066,155.518934
92.598582,155.567597
92.610000,155.625000
92.610000,157.375000
92.598582,157.432403
92.566066,157.481066
92.517403,157.513582
92.460000,157.525000
Z" /> 
<path style="fill:#000000; fill-opacity:1.000000; stroke:none;fill-rule:evenodd;"
d="M 92.160000,148.225000
92.102597,148.213582
92.053934,148.181066
92.021418,148.132403
92.010000,148.075000
92.010000,146.325000
92.021418,146.267597
92.053934,146.218934
92.102597,146.186418
92.160000,146.175000
92.460000,146.175000
92.517403,146.186418
92.566066,146.218934
92.598582,146.267597
92.610000,146.325000
92.610000,148.075000
92.598582,148.132403
92.566066,148.181066
92.517403,148.213582
92.460000,148.225000
Z" /> 
<path style="fill:#000000; fill-opacity:1.000000; stroke:none;fill-rule:evenodd;"
d="M 90.890000,148.225000
90.832597,148.213582
90.783934,148.181066
90.751418,148.132403
90.740000,148.075000
90.740000,146.325000
90.751418,146.267597
90.783934,146.218934
90.832597,146.186418
90.890000,146.175000
91.190000,146.175000
91.247403,146.186418
91.296066,146.218934
91.328582,146.267597
91.340000,146.325000
91.340000,148.075000
91.328582,148.132403
91.296066,148.181066
91.247403,148.213582
91.190000,148.225000
Z" /> 
<path style="fill:#000000; fill-opacity:1.000000; stroke:none;fill-rule:evenodd;"
d="M 89.620000,148.225000
89.562597,148.213582
89.513934,148.181066
89.481418,148.132403
89.470000,148.075000
89.470000,146.325000
89.481418,146.267597
89.513934,146.218934
89.562597,146.186418
89.620000,146.175000
89.920000,146.175000
89.977403,146.186418
90.026066,146.218934
90.058582,146.267597
90.070000,146.325000
90.070000,148.075000
90.058582,148.132403
90.026066,148.181066
89.977403,148.213582
89.920000,148.225000
Z" /> 
<path style="fill:#000000; fill-opacity:1.000000; stroke:none;fill-rule:evenodd;"
d="M 88.350000,148.225000
88.292597,148.213582
88.243934,148.181066
88.211418,148.132403
88.200000,148.075000
88.200000,146.325000
88.211418,146.267597
88.243934,146.218934
88.292597,146.186418
88.350000,146.175000
88.650000,146.175000
88.707403,146.186418
88.756066,146.218934
88.788582,146.267597
88.800000,146.325000
88.800000,148.075000
88.788582,148.132403
88.756066,148.181066
88.707403,148.213582
88.650000,148.225000
Z" /> 
<path style="fill:#000000; fill-opacity:1.000000; stroke:none;fill-rule:evenodd;"
d="M 87.080000,148.225000
87.022597,148.213582
86.973934,148.181066
86.941418,148.132403
86.930000,148.075000
86.930000,146.325000
86.941418,146.267597
86.973934,146.218934
87.022597,146.186418
87.080000,146.175000
87.380000,146.175000
87.437403,146.186418
87.486066,146.218934
87.518582,146.267597
87.530000,146.325000
87.530000,148.075000
87.518582,148.132403
87.486066,148.181066
87.437403,148.213582
87.380000,148.225000
Z" /> 
<path style="fill:#000000; fill-opacity:1.000000; stroke:none;fill-rule:evenodd;"
d="M 85.810000,148.225000
85.752597,148.213582
85.703934,148.181066
85.671418,148.132403
85.660000,148.075000
85.660000,146.325000
85.671418,146.267597
85.703934,146.218934
85.752597,146.186418
85.810000,146.175000
86.110000,146.175000
86.167403,146.186418
86.216066,146.218934
86.248582,146.267597
86.260000,146.325000
86.260000,148.075000
86.248582,148.132403
86.216066,148.181066
86.167403,148.213582
86.110000,148.225000
Z" /> 
<path style="fill:#000000; fill-opacity:1.000000; stroke:none;fill-rule:evenodd;"
d="M 84.540000,148.225000
84.482597,148.213582
84.433934,148.181066
84.401418,148.132403
84.390000,148.075000
84.390000,146.325000
84.401418,146.267597
84.433934,146.218934
84.482597,146.186418
84.540000,146.175000
84.840000,146.175000
84.897403,146.186418
84.946066,146.218934
84.978582,146.267597
84.990000,146.325000
84.990000,148.075000
84.978582,148.132403
84.946066,148.181066
84.897403,148.213582
84.840000,148.225000
Z" /> 
<path style="fill:#000000; fill-opacity:1.000000; stroke:none;fill-rule:evenodd;"
d="M 83.270000,148.225000
83.212597,148.213582
83.163934,148.181066
83.131418,148.132403
83.120000,148.075000
83.120000,146.325000
83.131418,146.267597
83.163934,146.218934
83.212597,146.186418
83.270000,146.175000
83.570000,146.175000
83.627403,146.186418
83.676066,146.218934
83.708582,146.267597
83.720000,146.325000
83.720000,148.075000
83.708582,148.132403
83.676066,148.181066
83.627403,148.213582
83.570000,148.225000
Z" /> 
<path style="fill:#000000; fill-opacity:1.000000; stroke:none;fill-rule:evenodd;"
d="M 82.000000,148.225000
81.942597,148.213582
81.893934,148.181066
81.861418,148.132403
81.850000,148.075000
81.850000,146.325000
81.861418,146.267597
81.893934,146.218934
81.942597,146.186418
82.000000,146.175000
82.300000,146.175000
82.357403,146.186418
82.406066,146.218934
82.438582,146.267597
82.450000,146.325000
82.450000,148.075000
82.438582,148.132403
82.406066,148.181066
82.357403,148.213582
82.300000,148.225000
Z" /> 
<path style="fill:#000000; fill-opacity:1.000000; stroke:none;fill-rule:evenodd;"
d="M 80.730000,148.225000
80.672597,148.213582
80.623934,148.181066
80.591418,148.132403
80.580000,148.075000
80.580000,146.325000
80.591418,146.267597
80.623934,146.218934
80.672597,146.186418
80.730000,146.175000
81.030000,146.175000
81.087403,146.186418
81.136066,146.218934
81.168582,146.267597
81.180000,146.325000
81.180000,148.075000
81.168582,148.132403
81.136066,148.181066
81.087403,148.213582
81.030000,148.225000
Z" /> 
<path style="fill:#000000; fill-opacity:1.000000; stroke:none;fill-rule:evenodd;"
d="M 121.750000,128.155197
121.836104,128.172324
121.909099,128.221098
121.957873,128.294093
121.975000,128.380197
121.975000,128.830197
121.957873,128.916301
121.909099,128.989296
121.836104,129.038070
121.750000,129.055197
121.250000,129.055197
121.163896,129.038070
121.090901,128.989296
121.042127,128.916301
121.025000,128.830197
121.025000,128.380197
121.042127,128.294093
121.090901,128.221098
121.163896,128.172324
121.250000,128.155197
Z" /> 
<path style="fill:#000000; fill-opacity:1.000000; stroke:none;fill-rule:evenodd;"
d="M 121.750000,129.705197
121.836104,129.722324
121.909099,129.771098
121.957873,129.844093
121.975000,129.930197
121.975000,130.380197
121.957873,130.466301
121.909099,130.539296
121.836104,130.588070
121.750000,130.605197
121.250000,130.605197
121.163896,130.588070
121.090901,130.539296
121.042127,130.466301
121.025000,130.380197
121.025000,129.930197
121.042127,129.844093
121.090901,129.771098
121.163896,129.722324
121.250000,129.705197
Z" /> 
<path style="fill:#000000; fill-opacity:1.000000; stroke:none;fill-rule:evenodd;"
d="M 116.750000,128.155197
116.836104,128.172324
116.909099,128.221098
116.957873,128.294093
116.975000,128.380197
116.975000,128.830197
116.957873,128.916301
116.909099,128.989296
116.836104,129.038070
116.750000,129.055197
116.250000,129.055197
116.163896,129.038070
116.090901,128.989296
116.042127,128.916301
116.025000,128.830197
116.025000,128.380197
116.042127,128.294093
116.090901,128.221098
116.163896,128.172324
116.250000,128.155197
Z" /> 
<path style="fill:#000000; fill-opacity:1.000000; stroke:none;fill-rule:evenodd;"
d="M 116.750000,129.705197
116.836104,129.722324
116.909099,129.771098
116.957873,129.844093
116.975000,129.930197
116.975000,130.380197
116.957873,130.466301
116.909099,130.539296
116.836104,130.588070
116.750000,130.605197
116.250000,130.605197
116.163896,130.588070
116.090901,130.539296
116.042127,130.466301
116.025000,130.380197
116.025000,129.930197
116.042127,129.844093
116.090901,129.771098
116.163896,129.722324
116.250000,129.705197
Z" /> 
<path style="fill:#000000; fill-opacity:1.000000; stroke:none;fill-rule:evenodd;"
d="M 119.500000,128.155197
119.586104,128.172324
119.659099,128.221098
119.707873,128.294093
119.725000,128.380197
119.725000,128.830197
119.707873,128.916301
119.659099,128.989296
119.586104,129.038070
119.500000,129.055197
119.000000,129.055197
118.913896,129.038070
118.840901,128.989296
118.792127,128.916301
118.775000,128.830197
118.775000,128.380197
118.792127,128.294093
118.840901,128.221098
118.913896,128.172324
119.000000,128.155197
Z" /> 
<path style="fill:#000000; fill-opacity:1.000000; stroke:none;fill-rule:evenodd;"
d="M 119.500000,129.705197
119.586104,129.722324
119.659099,129.771098
119.707873,129.844093
119.725000,129.930197
119.725000,130.380197
119.707873,130.466301
119.659099,130.539296
119.586104,130.588070
119.500000,130.605197
119.000000,130.605197
118.913896,130.588070
118.840901,130.539296
118.792127,130.466301
118.775000,130.380197
118.775000,129.930197
118.792127,129.844093
118.840901,129.771098
118.913896,129.722324
119.000000,129.705197
Z" /> 
<path style="fill:#000000; fill-opacity:1.000000; stroke:none;fill-rule:evenodd;"
d="M 114.377500,157.650000
114.324881,157.639533
114.280273,157.609727
114.250467,157.565119
114.240000,157.512500
114.240000,155.787500
114.250467,155.734881
114.280273,155.690273
114.324881,155.660467
114.377500,155.650000
114.652500,155.650000
114.705119,155.660467
114.749727,155.690273
114.779533,155.734881
114.790000,155.787500
114.790000,157.512500
114.779533,157.565119
114.749727,157.609727
114.705119,157.639533
114.652500,157.650000
Z" /> 
<path style="fill:#000000; fill-opacity:1.000000; stroke:none;fill-rule:evenodd;"
d="M 115.647500,157.650000
115.594881,157.639533
115.550273,157.609727
115.520467,157.565119
115.510000,157.512500
115.510000,155.787500
115.520467,155.734881
115.550273,155.690273
115.594881,155.660467
115.647500,155.650000
115.922500,155.650000
115.975119,155.660467
116.019727,155.690273
116.049533,155.734881
116.060000,155.787500
116.060000,157.512500
116.049533,157.565119
116.019727,157.609727
115.975119,157.639533
115.922500,157.650000
Z" /> 
<path style="fill:#000000; fill-opacity:1.000000; stroke:none;fill-rule:evenodd;"
d="M 116.917500,157.650000
116.864881,157.639533
116.820273,157.609727
116.790467,157.565119
116.780000,157.512500
116.780000,155.787500
116.790467,155.734881
116.820273,155.690273
116.864881,155.660467
116.917500,155.650000
117.192500,155.650000
117.245119,155.660467
117.289727,155.690273
117.319533,155.734881
117.330000,155.787500
117.330000,157.512500
117.319533,157.565119
117.289727,157.609727
117.245119,157.639533
117.192500,157.650000
Z" /> 
<path style="fill:#000000; fill-opacity:1.000000; stroke:none;fill-rule:evenodd;"
d="M 118.187500,157.650000
118.134881,157.639533
118.090273,157.609727
118.060467,157.565119
118.050000,157.512500
118.050000,155.787500
118.060467,155.734881
118.090273,155.690273
118.134881,155.660467
118.187500,155.650000
118.462500,155.650000
118.515119,155.660467
118.559727,155.690273
118.589533,155.734881
118.600000,155.787500
118.600000,157.512500
118.589533,157.565119
118.559727,157.609727
118.515119,157.639533
118.462500,157.650000
Z" /> 
<path style="fill:#000000; fill-opacity:1.000000; stroke:none;fill-rule:evenodd;"
d="M 119.457500,157.650000
119.404881,157.639533
119.360273,157.609727
119.330467,157.565119
119.320000,157.512500
119.320000,155.787500
119.330467,155.734881
119.360273,155.690273
119.404881,155.660467
119.457500,155.650000
119.732500,155.650000
119.785119,155.660467
119.829727,155.690273
119.859533,155.734881
119.870000,155.787500
119.870000,157.512500
119.859533,157.565119
119.829727,157.609727
119.785119,157.639533
119.732500,157.650000
Z" /> 
<path style="fill:#000000; fill-opacity:1.000000; stroke:none;fill-rule:evenodd;"
d="M 120.727500,157.650000
120.674881,157.639533
120.630273,157.609727
120.600467,157.565119
120.590000,157.512500
120.590000,155.787500
120.600467,155.734881
120.630273,155.690273
120.674881,155.660467
120.727500,155.650000
121.002500,155.650000
121.055119,155.660467
121.099727,155.690273
121.129533,155.734881
121.140000,155.787500
121.140000,157.512500
121.129533,157.565119
121.099727,157.609727
121.055119,157.639533
121.002500,157.650000
Z" /> 
<path style="fill:#000000; fill-opacity:1.000000; stroke:none;fill-rule:evenodd;"
d="M 121.997500,157.650000
121.944881,157.639533
121.900273,157.609727
121.870467,157.565119
121.860000,157.512500
121.860000,155.787500
121.870467,155.734881
121.900273,155.690273
121.944881,155.660467
121.997500,155.650000
122.272500,155.650000
122.325119,155.660467
122.369727,155.690273
122.399533,155.734881
122.410000,155.787500
122.410000,157.512500
122.399533,157.565119
122.369727,157.609727
122.325119,157.639533
122.272500,157.650000
Z" /> 
<path style="fill:#000000; fill-opacity:1.000000; stroke:none;fill-rule:evenodd;"
d="M 123.267500,157.650000
123.214881,157.639533
123.170273,157.609727
123.140467,157.565119
123.130000,157.512500
123.130000,155.787500
123.140467,155.734881
123.170273,155.690273
123.214881,155.660467
123.267500,155.650000
123.542500,155.650000
123.595119,155.660467
123.639727,155.690273
123.669533,155.734881
123.680000,155.787500
123.680000,157.512500
123.669533,157.565119
123.639727,157.609727
123.595119,157.639533
123.542500,157.650000
Z" /> 
<path style="fill:#000000; fill-opacity:1.000000; stroke:none;fill-rule:evenodd;"
d="M 124.537500,157.650000
124.484881,157.639533
124.440273,157.609727
124.410467,157.565119
124.400000,157.512500
124.400000,155.787500
124.410467,155.734881
124.440273,155.690273
124.484881,155.660467
124.537500,155.650000
124.812500,155.650000
124.865119,155.660467
124.909727,155.690273
124.939533,155.734881
124.950000,155.787500
124.950000,157.512500
124.939533,157.565119
124.909727,157.609727
124.865119,157.639533
124.812500,157.650000
Z" /> 
<path style="fill:#000000; fill-opacity:1.000000; stroke:none;fill-rule:evenodd;"
d="M 125.807500,157.650000
125.754881,157.639533
125.710273,157.609727
125.680467,157.565119
125.670000,157.512500
125.670000,155.787500
125.680467,155.734881
125.710273,155.690273
125.754881,155.660467
125.807500,155.650000
126.082500,155.650000
126.135119,155.660467
126.179727,155.690273
126.209533,155.734881
126.220000,155.787500
126.220000,157.512500
126.209533,157.565119
126.179727,157.609727
126.135119,157.639533
126.082500,157.650000
Z" /> 
<path style="fill:#000000; fill-opacity:1.000000; stroke:none;fill-rule:evenodd;"
d="M 127.077500,157.650000
127.024881,157.639533
126.980273,157.609727
126.950467,157.565119
126.940000,157.512500
126.940000,155.787500
126.950467,155.734881
126.980273,155.690273
127.024881,155.660467
127.077500,155.650000
127.352500,155.650000
127.405119,155.660467
127.449727,155.690273
127.479533,155.734881
127.490000,155.787500
127.490000,157.512500
127.479533,157.565119
127.449727,157.609727
127.405119,157.639533
127.352500,157.650000
Z" /> 
<path style="fill:#000000; fill-opacity:1.000000; stroke:none;fill-rule:evenodd;"
d="M 128.347500,157.650000
128.294881,157.639533
128.250273,157.609727
128.220467,157.565119
128.210000,157.512500
128.210000,155.787500
128.220467,155.734881
128.250273,155.690273
128.294881,155.660467
128.347500,155.650000
128.622500,155.650000
128.675119,155.660467
128.719727,155.690273
128.749533,155.734881
128.760000,155.787500
128.760000,157.512500
128.749533,157.565119
128.719727,157.609727
128.675119,157.639533
128.622500,157.650000
Z" /> 
<path style="fill:#000000; fill-opacity:1.000000; stroke:none;fill-rule:evenodd;"
d="M 128.347500,148.350000
128.294881,148.339533
128.250273,148.309727
128.220467,148.265119
128.210000,148.212500
128.210000,146.487500
128.220467,146.434881
128.250273,146.390273
128.294881,146.360467
128.347500,146.350000
128.622500,146.350000
128.675119,146.360467
128.719727,146.390273
128.749533,146.434881
128.760000,146.487500
128.760000,148.212500
128.749533,148.265119
128.719727,148.309727
128.675119,148.339533
128.622500,148.350000
Z" /> 
<path style="fill:#000000; fill-opacity:1.000000; stroke:none;fill-rule:evenodd;"
d="M 127.077500,148.350000
127.024881,148.339533
126.980273,148.309727
126.950467,148.265119
126.940000,148.212500
126.940000,146.487500
126.950467,146.434881
126.980273,146.390273
127.024881,146.360467
127.077500,146.350000
127.352500,146.350000
127.405119,146.360467
127.449727,146.390273
127.479533,146.434881
127.490000,146.487500
127.490000,148.212500
127.479533,148.265119
127.449727,148.309727
127.405119,148.339533
127.352500,148.350000
Z" /> 
<path style="fill:#000000; fill-opacity:1.000000; stroke:none;fill-rule:evenodd;"
d="M 125.807500,148.350000
125.754881,148.339533
125.710273,148.309727
125.680467,148.265119
125.670000,148.212500
125.670000,146.487500
125.680467,146.434881
125.710273,146.390273
125.754881,146.360467
125.807500,146.350000
126.082500,146.350000
126.135119,146.360467
126.179727,146.390273
126.209533,146.434881
126.220000,146.487500
126.220000,148.212500
126.209533,148.265119
126.179727,148.309727
126.135119,148.339533
126.082500,148.350000
Z" /> 
<path style="fill:#000000; fill-opacity:1.000000; stroke:none;fill-rule:evenodd;"
d="M 124.537500,148.350000
124.484881,148.339533
124.440273,148.309727
124.410467,148.265119
124.400000,148.212500
124.400000,146.487500
124.410467,146.434881
124.440273,146.390273
124.484881,146.360467
124.537500,146.350000
124.812500,146.350000
124.865119,146.360467
124.909727,146.390273
124.939533,146.434881
124.950000,146.487500
124.950000,148.212500
124.939533,148.265119
124.909727,148.309727
124.865119,148.339533
124.812500,148.350000
Z" /> 
<path style="fill:#000000; fill-opacity:1.000000; stroke:none;fill-rule:evenodd;"
d="M 123.267500,148.350000
123.214881,148.339533
123.170273,148.309727
123.140467,148.265119
123.130000,148.212500
123.130000,146.487500
123.140467,146.434881
123.170273,146.390273
123.214881,146.360467
123.267500,146.350000
123.542500,146.350000
123.595119,146.360467
123.639727,146.390273
123.669533,146.434881
123.680000,146.487500
123.680000,148.212500
123.669533,148.265119
123.639727,148.309727
123.595119,148.339533
123.542500,148.350000
Z" /> 
<path style="fill:#000000; fill-opacity:1.000000; stroke:none;fill-rule:evenodd;"
d="M 121.997500,148.350000
121.944881,148.339533
121.900273,148.309727
121.870467,148.265119
121.860000,148.212500
121.860000,146.487500
121.870467,146.434881
121.900273,146.390273
121.944881,146.360467
121.997500,146.350000
122.272500,146.350000
122.325119,146.360467
122.369727,146.390273
122.399533,146.434881
122.410000,146.487500
122.410000,148.212500
122.399533,148.265119
122.369727,148.309727
122.325119,148.339533
122.272500,148.350000
Z" /> 
<path style="fill:#000000; fill-opacity:1.000000; stroke:none;fill-rule:evenodd;"
d="M 120.727500,148.350000
120.674881,148.339533
120.630273,148.309727
120.600467,148.265119
120.590000,148.212500
120.590000,146.487500
120.600467,146.434881
120.630273,146.390273
120.674881,146.360467
120.727500,146.350000
121.002500,146.350000
121.055119,146.360467
121.099727,146.390273
121.129533,146.434881
121.140000,146.487500
121.140000,148.212500
121.129533,148.265119
121.099727,148.309727
121.055119,148.339533
121.002500,148.350000
Z" /> 
<path style="fill:#000000; fill-opacity:1.000000; stroke:none;fill-rule:evenodd;"
d="M 119.457500,148.350000
119.404881,148.339533
119.360273,148.309727
119.330467,148.265119
119.320000,148.212500
119.320000,146.487500
119.330467,146.434881
119.360273,146.390273
119.404881,146.360467
119.457500,146.350000
119.732500,146.350000
119.785119,146.360467
119.829727,146.390273
119.859533,146.434881
119.870000,146.487500
119.870000,148.212500
119.859533,148.265119
119.829727,148.309727
119.785119,148.339533
119.732500,148.350000
Z" /> 
<path style="fill:#000000; fill-opacity:1.000000; stroke:none;fill-rule:evenodd;"
d="M 118.187500,148.350000
118.134881,148.339533
118.090273,148.309727
118.060467,148.265119
118.050000,148.212500
118.050000,146.487500
118.060467,146.434881
118.090273,146.390273
118.134881,146.360467
118.187500,146.350000
118.462500,146.350000
118.515119,146.360467
118.559727,146.390273
118.589533,146.434881
118.600000,146.487500
118.600000,148.212500
118.589533,148.265119
118.559727,148.309727
118.515119,148.339533
118.462500,148.350000
Z" /> 
<path style="fill:#000000; fill-opacity:1.000000; stroke:none;fill-rule:evenodd;"
d="M 116.917500,148.350000
116.864881,148.339533
116.820273,148.309727
116.790467,148.265119
116.780000,148.212500
116.780000,146.487500
116.790467,146.434881
116.820273,146.390273
116.864881,146.360467
116.917500,146.350000
117.192500,146.350000
117.245119,146.360467
117.289727,146.390273
117.319533,146.434881
117.330000,146.487500
117.330000,148.212500
117.319533,148.265119
117.289727,148.309727
117.245119,148.339533
117.192500,148.350000
Z" /> 
<path style="fill:#000000; fill-opacity:1.000000; stroke:none;fill-rule:evenodd;"
d="M 115.647500,148.350000
115.594881,148.339533
115.550273,148.309727
115.520467,148.265119
115.510000,148.212500
115.510000,146.487500
115.520467,146.434881
115.550273,146.390273
115.594881,146.360467
115.647500,146.350000
115.922500,146.350000
115.975119,146.360467
116.019727,146.390273
116.049533,146.434881
116.060000,146.487500
116.060000,148.212500
116.049533,148.265119
116.019727,148.309727
115.975119,148.339533
115.922500,148.350000
Z" /> 
<path style="fill:#000000; fill-opacity:1.000000; stroke:none;fill-rule:evenodd;"
d="M 114.377500,148.350000
114.324881,148.339533
114.280273,148.309727
114.250467,148.265119
114.240000,148.212500
114.240000,146.487500
114.250467,146.434881
114.280273,146.390273
114.324881,146.360467
114.377500,146.350000
114.652500,146.350000
114.705119,146.360467
114.749727,146.390273
114.779533,146.434881
114.790000,146.487500
114.790000,148.212500
114.779533,148.265119
114.749727,148.309727
114.705119,148.339533
114.652500,148.350000
Z" /> 
<path style="fill:#000000; fill-opacity:1.000000; stroke:none;fill-rule:evenodd;"
d="M 81.225000,145.250000
81.207873,145.336104
81.159099,145.409099
81.086104,145.457873
81.000000,145.475000
80.550000,145.475000
80.463896,145.457873
80.390901,145.409099
80.342127,145.336104
80.325000,145.250000
80.325000,144.750000
80.342127,144.663896
80.390901,144.590901
80.463896,144.542127
80.550000,144.525000
81.000000,144.525000
81.086104,144.542127
81.159099,144.590901
81.207873,144.663896
81.225000,144.750000
Z" /> 
<path style="fill:#000000; fill-opacity:1.000000; stroke:none;fill-rule:evenodd;"
d="M 79.675000,145.250000
79.657873,145.336104
79.609099,145.409099
79.536104,145.457873
79.450000,145.475000
79.000000,145.475000
78.913896,145.457873
78.840901,145.409099
78.792127,145.336104
78.775000,145.250000
78.775000,144.750000
78.792127,144.663896
78.840901,144.590901
78.913896,144.542127
79.000000,144.525000
79.450000,144.525000
79.536104,144.542127
79.609099,144.590901
79.657873,144.663896
79.675000,144.750000
Z" /> 
<path style="fill:#000000; fill-opacity:1.000000; stroke:none;fill-rule:evenodd;"
d="M 103.810000,150.000000
103.829030,149.904329
103.883223,149.823223
103.964329,149.769030
104.060000,149.750000
105.360000,149.750000
105.455671,149.769030
105.536777,149.823223
105.590970,149.904329
105.610000,150.000000
105.610000,151.500000
105.590970,151.595671
105.536777,151.676777
105.455671,151.730970
105.360000,151.750000
104.060000,151.750000
103.964329,151.730970
103.883223,151.676777
103.829030,151.595671
103.810000,151.500000
Z" /> 
<path style="fill:#000000; fill-opacity:1.000000; stroke:none;fill-rule:evenodd;"
d="M 108.890000,150.000000
108.909030,149.904329
108.963223,149.823223
109.044329,149.769030
109.140000,149.750000
110.440000,149.750000
110.535671,149.769030
110.616777,149.823223
110.670970,149.904329
110.690000,150.000000
110.690000,151.500000
110.670970,151.595671
110.616777,151.676777
110.535671,151.730970
110.440000,151.750000
109.140000,151.750000
109.044329,151.730970
108.963223,151.676777
108.909030,151.595671
108.890000,151.500000
Z" /> 
<path style="fill:#000000; fill-opacity:1.000000; stroke:none;fill-rule:evenodd;"
d="M 108.890000,146.000000
108.909030,145.904329
108.963223,145.823223
109.044329,145.769030
109.140000,145.750000
110.440000,145.750000
110.535671,145.769030
110.616777,145.823223
110.670970,145.904329
110.690000,146.000000
110.690000,147.500000
110.670970,147.595671
110.616777,147.676777
110.535671,147.730970
110.440000,147.750000
109.140000,147.750000
109.044329,147.730970
108.963223,147.676777
108.909030,147.595671
108.890000,147.500000
Z" /> 
<path style="fill:#000000; fill-opacity:1.000000; stroke:none;fill-rule:evenodd;"
d="M 103.810000,146.000000
103.829030,145.904329
103.883223,145.823223
103.964329,145.769030
104.060000,145.750000
105.360000,145.750000
105.455671,145.769030
105.536777,145.823223
105.590970,145.904329
105.610000,146.000000
105.610000,147.500000
105.590970,147.595671
105.536777,147.676777
105.455671,147.730970
105.360000,147.750000
104.060000,147.750000
103.964329,147.730970
103.883223,147.676777
103.829030,147.595671
103.810000,147.500000
Z" /> 
<path style="fill:#000000; fill-opacity:1.000000; stroke:none;fill-rule:evenodd;"
d="M 92.743750,138.350000
92.660038,138.333349
92.589070,138.285930
92.541651,138.214962
92.525000,138.131250
92.525000,137.693750
92.541651,137.610038
92.589070,137.539070
92.660038,137.491651
92.743750,137.475000
93.256250,137.475000
93.339962,137.491651
93.410930,137.539070
93.458349,137.610038
93.475000,137.693750
93.475000,138.131250
93.458349,138.214962
93.410930,138.285930
93.339962,138.333349
93.256250,138.350000
Z" /> 
<path style="fill:#000000; fill-opacity:1.000000; stroke:none;fill-rule:evenodd;"
d="M 92.743750,136.775000
92.660038,136.758349
92.589070,136.710930
92.541651,136.639962
92.525000,136.556250
92.525000,136.118750
92.541651,136.035038
92.589070,135.964070
92.660038,135.916651
92.743750,135.900000
93.256250,135.900000
93.339962,135.916651
93.410930,135.964070
93.458349,136.035038
93.475000,136.118750
93.475000,136.556250
93.458349,136.639962
93.410930,136.710930
93.339962,136.758349
93.256250,136.775000
Z" /> 
<path style="fill:#000000; fill-opacity:1.000000; stroke:none;fill-rule:evenodd;"
d="M 114.405000,142.050000
114.347597,142.038582
114.298934,142.006066
114.266418,141.957403
114.255000,141.900000
114.255000,140.600000
114.266418,140.542597
114.298934,140.493934
114.347597,140.461418
114.405000,140.450000
114.705000,140.450000
114.762403,140.461418
114.811066,140.493934
114.843582,140.542597
114.855000,140.600000
114.855000,141.900000
114.843582,141.957403
114.811066,142.006066
114.762403,142.038582
114.705000,142.050000
Z" /> 
<path style="fill:#000000; fill-opacity:1.000000; stroke:none;fill-rule:evenodd;"
d="M 115.675000,142.050000
115.617597,142.038582
115.568934,142.006066
115.536418,141.957403
115.525000,141.900000
115.525000,140.600000
115.536418,140.542597
115.568934,140.493934
115.617597,140.461418
115.675000,140.450000
115.975000,140.450000
116.032403,140.461418
116.081066,140.493934
116.113582,140.542597
116.125000,140.600000
116.125000,141.900000
116.113582,141.957403
116.081066,142.006066
116.032403,142.038582
115.975000,142.050000
Z" /> 
<path style="fill:#000000; fill-opacity:1.000000; stroke:none;fill-rule:evenodd;"
d="M 116.945000,142.050000
116.887597,142.038582
116.838934,142.006066
116.806418,141.957403
116.795000,141.900000
116.795000,140.600000
116.806418,140.542597
116.838934,140.493934
116.887597,140.461418
116.945000,140.450000
117.245000,140.450000
117.302403,140.461418
117.351066,140.493934
117.383582,140.542597
117.395000,140.600000
117.395000,141.900000
117.383582,141.957403
117.351066,142.006066
117.302403,142.038582
117.245000,142.050000
Z" /> 
<path style="fill:#000000; fill-opacity:1.000000; stroke:none;fill-rule:evenodd;"
d="M 118.215000,142.050000
118.157597,142.038582
118.108934,142.006066
118.076418,141.957403
118.065000,141.900000
118.065000,140.600000
118.076418,140.542597
118.108934,140.493934
118.157597,140.461418
118.215000,140.450000
118.515000,140.450000
118.572403,140.461418
118.621066,140.493934
118.653582,140.542597
118.665000,140.600000
118.665000,141.900000
118.653582,141.957403
118.621066,142.006066
118.572403,142.038582
118.515000,142.050000
Z" /> 
<path style="fill:#000000; fill-opacity:1.000000; stroke:none;fill-rule:evenodd;"
d="M 119.485000,142.050000
119.427597,142.038582
119.378934,142.006066
119.346418,141.957403
119.335000,141.900000
119.335000,140.600000
119.346418,140.542597
119.378934,140.493934
119.427597,140.461418
119.485000,140.450000
119.785000,140.450000
119.842403,140.461418
119.891066,140.493934
119.923582,140.542597
119.935000,140.600000
119.935000,141.900000
119.923582,141.957403
119.891066,142.006066
119.842403,142.038582
119.785000,142.050000
Z" /> 
<path style="fill:#000000; fill-opacity:1.000000; stroke:none;fill-rule:evenodd;"
d="M 120.755000,142.050000
120.697597,142.038582
120.648934,142.006066
120.616418,141.957403
120.605000,141.900000
120.605000,140.600000
120.616418,140.542597
120.648934,140.493934
120.697597,140.461418
120.755000,140.450000
121.055000,140.450000
121.112403,140.461418
121.161066,140.493934
121.193582,140.542597
121.205000,140.600000
121.205000,141.900000
121.193582,141.957403
121.161066,142.006066
121.112403,142.038582
121.055000,142.050000
Z" /> 
<path style="fill:#000000; fill-opacity:1.000000; stroke:none;fill-rule:evenodd;"
d="M 122.025000,142.050000
121.967597,142.038582
121.918934,142.006066
121.886418,141.957403
121.875000,141.900000
121.875000,140.600000
121.886418,140.542597
121.918934,140.493934
121.967597,140.461418
122.025000,140.450000
122.325000,140.450000
122.382403,140.461418
122.431066,140.493934
122.463582,140.542597
122.475000,140.600000
122.475000,141.900000
122.463582,141.957403
122.431066,142.006066
122.382403,142.038582
122.325000,142.050000
Z" /> 
<path style="fill:#000000; fill-opacity:1.000000; stroke:none;fill-rule:evenodd;"
d="M 123.295000,142.050000
123.237597,142.038582
123.188934,142.006066
123.156418,141.957403
123.145000,141.900000
123.145000,140.600000
123.156418,140.542597
123.188934,140.493934
123.237597,140.461418
123.295000,140.450000
123.595000,140.450000
123.652403,140.461418
123.701066,140.493934
123.733582,140.542597
123.745000,140.600000
123.745000,141.900000
123.733582,141.957403
123.701066,142.006066
123.652403,142.038582
123.595000,142.050000
Z" /> 
<path style="fill:#000000; fill-opacity:1.000000; stroke:none;fill-rule:evenodd;"
d="M 123.295000,135.550000
123.237597,135.538582
123.188934,135.506066
123.156418,135.457403
123.145000,135.400000
123.145000,134.100000
123.156418,134.042597
123.188934,133.993934
123.237597,133.961418
123.295000,133.950000
123.595000,133.950000
123.652403,133.961418
123.701066,133.993934
123.733582,134.042597
123.745000,134.100000
123.745000,135.400000
123.733582,135.457403
123.701066,135.506066
123.652403,135.538582
123.595000,135.550000
Z" /> 
<path style="fill:#000000; fill-opacity:1.000000; stroke:none;fill-rule:evenodd;"
d="M 122.025000,135.550000
121.967597,135.538582
121.918934,135.506066
121.886418,135.457403
121.875000,135.400000
121.875000,134.100000
121.886418,134.042597
121.918934,133.993934
121.967597,133.961418
122.025000,133.950000
122.325000,133.950000
122.382403,133.961418
122.431066,133.993934
122.463582,134.042597
122.475000,134.100000
122.475000,135.400000
122.463582,135.457403
122.431066,135.506066
122.382403,135.538582
122.325000,135.550000
Z" /> 
<path style="fill:#000000; fill-opacity:1.000000; stroke:none;fill-rule:evenodd;"
d="M 120.755000,135.550000
120.697597,135.538582
120.648934,135.506066
120.616418,135.457403
120.605000,135.400000
120.605000,134.100000
120.616418,134.042597
120.648934,133.993934
120.697597,133.961418
120.755000,133.950000
121.055000,133.950000
121.112403,133.961418
121.161066,133.993934
121.193582,134.042597
121.205000,134.100000
121.205000,135.400000
121.193582,135.457403
121.161066,135.506066
121.112403,135.538582
121.055000,135.550000
Z" /> 
<path style="fill:#000000; fill-opacity:1.000000; stroke:none;fill-rule:evenodd;"
d="M 119.485000,135.550000
119.427597,135.538582
119.378934,135.506066
119.346418,135.457403
119.335000,135.400000
119.335000,134.100000
119.346418,134.042597
119.378934,133.993934
119.427597,133.961418
119.485000,133.950000
119.785000,133.950000
119.842403,133.961418
119.891066,133.993934
119.923582,134.042597
119.935000,134.100000
119.935000,135.400000
119.923582,135.457403
119.891066,135.506066
119.842403,135.538582
119.785000,135.550000
Z" /> 
<path style="fill:#000000; fill-opacity:1.000000; stroke:none;fill-rule:evenodd;"
d="M 118.215000,135.550000
118.157597,135.538582
118.108934,135.506066
118.076418,135.457403
118.065000,135.400000
118.065000,134.100000
118.076418,134.042597
118.108934,133.993934
118.157597,133.961418
118.215000,133.950000
118.515000,133.950000
118.572403,133.961418
118.621066,133.993934
118.653582,134.042597
118.665000,134.100000
118.665000,135.400000
118.653582,135.457403
118.621066,135.506066
118.572403,135.538582
118.515000,135.550000
Z" /> 
<path style="fill:#000000; fill-opacity:1.000000; stroke:none;fill-rule:evenodd;"
d="M 116.945000,135.550000
116.887597,135.538582
116.838934,135.506066
116.806418,135.457403
116.795000,135.400000
116.795000,134.100000
116.806418,134.042597
116.838934,133.993934
116.887597,133.961418
116.945000,133.950000
117.245000,133.950000
117.302403,133.961418
117.351066,133.993934
117.383582,134.042597
117.395000,134.100000
117.395000,135.400000
117.383582,135.457403
117.351066,135.506066
117.302403,135.538582
117.245000,135.550000
Z" /> 
<path style="fill:#000000; fill-opacity:1.000000; stroke:none;fill-rule:evenodd;"
d="M 115.675000,135.550000
115.617597,135.538582
115.568934,135.506066
115.536418,135.457403
115.525000,135.400000
115.525000,134.100000
115.536418,134.042597
115.568934,133.993934
115.617597,133.961418
115.675000,133.950000
115.975000,133.950000
116.032403,133.961418
116.081066,133.993934
116.113582,134.042597
116.125000,134.100000
116.125000,135.400000
116.113582,135.457403
116.081066,135.506066
116.032403,135.538582
115.975000,135.550000
Z" /> 
<path style="fill:#000000; fill-opacity:1.000000; stroke:none;fill-rule:evenodd;"
d="M 114.405000,135.550000
114.347597,135.538582
114.298934,135.506066
114.266418,135.457403
114.255000,135.400000
114.255000,134.100000
114.266418,134.042597
114.298934,133.993934
114.347597,133.961418
114.405000,133.950000
114.705000,133.950000
114.762403,133.961418
114.811066,133.993934
114.843582,134.042597
114.855000,134.100000
114.855000,135.400000
114.843582,135.457403
114.811066,135.506066
114.762403,135.538582
114.705000,135.550000
Z" /> 
<path style="fill:#000000; fill-opacity:1.000000; stroke:none;fill-rule:evenodd;"
d="M 81.750000,138.337500
81.663896,138.320373
81.590901,138.271599
81.542127,138.198604
81.525000,138.112500
81.525000,137.662500
81.542127,137.576396
81.590901,137.503401
81.663896,137.454627
81.750000,137.437500
82.250000,137.437500
82.336104,137.454627
82.409099,137.503401
82.457873,137.576396
82.475000,137.662500
82.475000,138.112500
82.457873,138.198604
82.409099,138.271599
82.336104,138.320373
82.250000,138.337500
Z" /> 
<path style="fill:#000000; fill-opacity:1.000000; stroke:none;fill-rule:evenodd;"
d="M 81.750000,136.787500
81.663896,136.770373
81.590901,136.721599
81.542127,136.648604
81.525000,136.562500
81.525000,136.112500
81.542127,136.026396
81.590901,135.953401
81.663896,135.904627
81.750000,135.887500
82.250000,135.887500
82.336104,135.904627
82.409099,135.953401
82.457873,136.026396
82.475000,136.112500
82.475000,136.562500
82.457873,136.648604
82.409099,136.721599
82.336104,136.770373
82.250000,136.787500
Z" /> 
<path style="fill:#000000; fill-opacity:1.000000; stroke:none;fill-rule:evenodd;"
d="M 72.937500,155.725000
72.952724,155.648463
72.996079,155.583579
73.060963,155.540224
73.137500,155.525000
73.537500,155.525000
73.614037,155.540224
73.678921,155.583579
73.722276,155.648463
73.737500,155.725000
73.737500,156.275000
73.722276,156.351537
73.678921,156.416421
73.614037,156.459776
73.537500,156.475000
73.137500,156.475000
73.060963,156.459776
72.996079,156.416421
72.952724,156.351537
72.937500,156.275000
Z" /> 
<path style="fill:#000000; fill-opacity:1.000000; stroke:none;fill-rule:evenodd;"
d="M 74.587500,155.725000
74.602724,155.648463
74.646079,155.583579
74.710963,155.540224
74.787500,155.525000
75.187500,155.525000
75.264037,155.540224
75.328921,155.583579
75.372276,155.648463
75.387500,155.725000
75.387500,156.275000
75.372276,156.351537
75.328921,156.416421
75.264037,156.459776
75.187500,156.475000
74.787500,156.475000
74.710963,156.459776
74.646079,156.416421
74.602724,156.351537
74.587500,156.275000
Z" /> 
<path style="fill:#000000; fill-opacity:1.000000; stroke:none;fill-rule:evenodd;"
d="M 120.250000,119.200000
120.163896,119.182873
120.090901,119.134099
120.042127,119.061104
120.025000,118.975000
120.025000,118.525000
120.042127,118.438896
120.090901,118.365901
120.163896,118.317127
120.250000,118.300000
120.750000,118.300000
120.836104,118.317127
120.909099,118.365901
120.957873,118.438896
120.975000,118.525000
120.975000,118.975000
120.957873,119.061104
120.909099,119.134099
120.836104,119.182873
120.750000,119.200000
Z" /> 
<path style="fill:#000000; fill-opacity:1.000000; stroke:none;fill-rule:evenodd;"
d="M 120.250000,117.650000
120.163896,117.632873
120.090901,117.584099
120.042127,117.511104
120.025000,117.425000
120.025000,116.975000
120.042127,116.888896
120.090901,116.815901
120.163896,116.767127
120.250000,116.750000
120.750000,116.750000
120.836104,116.767127
120.909099,116.815901
120.957873,116.888896
120.975000,116.975000
120.975000,117.425000
120.957873,117.511104
120.909099,117.584099
120.836104,117.632873
120.750000,117.650000
Z" /> 
<path style="fill:#000000; fill-opacity:1.000000; stroke:none;fill-rule:evenodd;"
d="M 72.937500,153.225000
72.952724,153.148463
72.996079,153.083579
73.060963,153.040224
73.137500,153.025000
73.537500,153.025000
73.614037,153.040224
73.678921,153.083579
73.722276,153.148463
73.737500,153.225000
73.737500,153.775000
73.722276,153.851537
73.678921,153.916421
73.614037,153.959776
73.537500,153.975000
73.137500,153.975000
73.060963,153.959776
72.996079,153.916421
72.952724,153.851537
72.937500,153.775000
Z" /> 
<path style="fill:#000000; fill-opacity:1.000000; stroke:none;fill-rule:evenodd;"
d="M 74.587500,153.225000
74.602724,153.148463
74.646079,153.083579
74.710963,153.040224
74.787500,153.025000
75.187500,153.025000
75.264037,153.040224
75.328921,153.083579
75.372276,153.148463
75.387500,153.225000
75.387500,153.775000
75.372276,153.851537
75.328921,153.916421
75.264037,153.959776
75.187500,153.975000
74.787500,153.975000
74.710963,153.959776
74.646079,153.916421
74.602724,153.851537
74.587500,153.775000
Z" /> 
<path style="fill:#000000; fill-opacity:1.000000; stroke:none;fill-rule:evenodd;"
d="M 139.700000,119.725000
139.715224,119.648463
139.758579,119.583579
139.823463,119.540224
139.900000,119.525000
140.300000,119.525000
140.376537,119.540224
140.441421,119.583579
140.484776,119.648463
140.500000,119.725000
140.500000,120.275000
140.484776,120.351537
140.441421,120.416421
140.376537,120.459776
140.300000,120.475000
139.900000,120.475000
139.823463,120.459776
139.758579,120.416421
139.715224,120.351537
139.700000,120.275000
Z" /> 
<path style="fill:#000000; fill-opacity:1.000000; stroke:none;fill-rule:evenodd;"
d="M 141.350000,119.725000
141.365224,119.648463
141.408579,119.583579
141.473463,119.540224
141.550000,119.525000
141.950000,119.525000
142.026537,119.540224
142.091421,119.583579
142.134776,119.648463
142.150000,119.725000
142.150000,120.275000
142.134776,120.351537
142.091421,120.416421
142.026537,120.459776
141.950000,120.475000
141.550000,120.475000
141.473463,120.459776
141.408579,120.416421
141.365224,120.351537
141.350000,120.275000
Z" /> 
<path style="fill:#000000; fill-opacity:1.000000; stroke:none;fill-rule:evenodd;"
d="M 122.975000,130.655197
122.898463,130.639973
122.833579,130.596618
122.790224,130.531734
122.775000,130.455197
122.775000,130.055197
122.790224,129.978660
122.833579,129.913776
122.898463,129.870421
122.975000,129.855197
123.525000,129.855197
123.601537,129.870421
123.666421,129.913776
123.709776,129.978660
123.725000,130.055197
123.725000,130.455197
123.709776,130.531734
123.666421,130.596618
123.601537,130.639973
123.525000,130.655197
Z" /> 
<path style="fill:#000000; fill-opacity:1.000000; stroke:none;fill-rule:evenodd;"
d="M 122.975000,129.005197
122.898463,128.989973
122.833579,128.946618
122.790224,128.881734
122.775000,128.805197
122.775000,128.405197
122.790224,128.328660
122.833579,128.263776
122.898463,128.220421
122.975000,128.205197
123.525000,128.205197
123.601537,128.220421
123.666421,128.263776
123.709776,128.328660
123.725000,128.405197
123.725000,128.805197
123.709776,128.881734
123.666421,128.946618
123.601537,128.989973
123.525000,129.005197
Z" /> 
<path style="fill:#000000; fill-opacity:1.000000; stroke:none;fill-rule:evenodd;"
d="M 139.450000,129.975000
139.465224,129.898463
139.508579,129.833579
139.573463,129.790224
139.650000,129.775000
140.050000,129.775000
140.126537,129.790224
140.191421,129.833579
140.234776,129.898463
140.250000,129.975000
140.250000,130.525000
140.234776,130.601537
140.191421,130.666421
140.126537,130.709776
140.050000,130.725000
139.650000,130.725000
139.573463,130.709776
139.508579,130.666421
139.465224,130.601537
139.450000,130.525000
Z" /> 
<path style="fill:#000000; fill-opacity:1.000000; stroke:none;fill-rule:evenodd;"
d="M 141.100000,129.975000
141.115224,129.898463
141.158579,129.833579
141.223463,129.790224
141.300000,129.775000
141.700000,129.775000
141.776537,129.790224
141.841421,129.833579
141.884776,129.898463
141.900000,129.975000
141.900000,130.525000
141.884776,130.601537
141.841421,130.666421
141.776537,130.709776
141.700000,130.725000
141.300000,130.725000
141.223463,130.709776
141.158579,130.666421
141.115224,130.601537
141.100000,130.525000
Z" /> 
<path style="fill:#000000; fill-opacity:1.000000; stroke:none;fill-rule:evenodd;"
d="M 72.937500,148.225000
72.952724,148.148463
72.996079,148.083579
73.060963,148.040224
73.137500,148.025000
73.537500,148.025000
73.614037,148.040224
73.678921,148.083579
73.722276,148.148463
73.737500,148.225000
73.737500,148.775000
73.722276,148.851537
73.678921,148.916421
73.614037,148.959776
73.537500,148.975000
73.137500,148.975000
73.060963,148.959776
72.996079,148.916421
72.952724,148.851537
72.937500,148.775000
Z" /> 
<path style="fill:#000000; fill-opacity:1.000000; stroke:none;fill-rule:evenodd;"
d="M 74.587500,148.225000
74.602724,148.148463
74.646079,148.083579
74.710963,148.040224
74.787500,148.025000
75.187500,148.025000
75.264037,148.040224
75.328921,148.083579
75.372276,148.148463
75.387500,148.225000
75.387500,148.775000
75.372276,148.851537
75.328921,148.916421
75.264037,148.959776
75.187500,148.975000
74.787500,148.975000
74.710963,148.959776
74.646079,148.916421
74.602724,148.851537
74.587500,148.775000
Z" /> 
<path style="fill:#000000; fill-opacity:1.000000; stroke:none;fill-rule:evenodd;"
d="M 72.937500,143.225000
72.952724,143.148463
72.996079,143.083579
73.060963,143.040224
73.137500,143.025000
73.537500,143.025000
73.614037,143.040224
73.678921,143.083579
73.722276,143.148463
73.737500,143.225000
73.737500,143.775000
73.722276,143.851537
73.678921,143.916421
73.614037,143.959776
73.537500,143.975000
73.137500,143.975000
73.060963,143.959776
72.996079,143.916421
72.952724,143.851537
72.937500,143.775000
Z" /> 
<path style="fill:#000000; fill-opacity:1.000000; stroke:none;fill-rule:evenodd;"
d="M 74.587500,143.225000
74.602724,143.148463
74.646079,143.083579
74.710963,143.040224
74.787500,143.025000
75.187500,143.025000
75.264037,143.040224
75.328921,143.083579
75.372276,143.148463
75.387500,143.225000
75.387500,143.775000
75.372276,143.851537
75.328921,143.916421
75.264037,143.959776
75.187500,143.975000
74.787500,143.975000
74.710963,143.959776
74.646079,143.916421
74.602724,143.851537
74.587500,143.775000
Z" /> 
<path style="fill:#000000; fill-opacity:1.000000; stroke:none;fill-rule:evenodd;"
d="M 117.550000,119.225000
117.463896,119.207873
117.390901,119.159099
117.342127,119.086104
117.325000,119.000000
117.325000,118.550000
117.342127,118.463896
117.390901,118.390901
117.463896,118.342127
117.550000,118.325000
118.050000,118.325000
118.136104,118.342127
118.209099,118.390901
118.257873,118.463896
118.275000,118.550000
118.275000,119.000000
118.257873,119.086104
118.209099,119.159099
118.136104,119.207873
118.050000,119.225000
Z" /> 
<path style="fill:#000000; fill-opacity:1.000000; stroke:none;fill-rule:evenodd;"
d="M 117.550000,117.675000
117.463896,117.657873
117.390901,117.609099
117.342127,117.536104
117.325000,117.450000
117.325000,117.000000
117.342127,116.913896
117.390901,116.840901
117.463896,116.792127
117.550000,116.775000
118.050000,116.775000
118.136104,116.792127
118.209099,116.840901
118.257873,116.913896
118.275000,117.000000
118.275000,117.450000
118.257873,117.536104
118.209099,117.609099
118.136104,117.657873
118.050000,117.675000
Z" /> 
<path style="fill:#000000; fill-opacity:1.000000; stroke:none;fill-rule:evenodd;"
d="M 72.937500,145.725000
72.952724,145.648463
72.996079,145.583579
73.060963,145.540224
73.137500,145.525000
73.537500,145.525000
73.614037,145.540224
73.678921,145.583579
73.722276,145.648463
73.737500,145.725000
73.737500,146.275000
73.722276,146.351537
73.678921,146.416421
73.614037,146.459776
73.537500,146.475000
73.137500,146.475000
73.060963,146.459776
72.996079,146.416421
72.952724,146.351537
72.937500,146.275000
Z" /> 
<path style="fill:#000000; fill-opacity:1.000000; stroke:none;fill-rule:evenodd;"
d="M 74.587500,145.725000
74.602724,145.648463
74.646079,145.583579
74.710963,145.540224
74.787500,145.525000
75.187500,145.525000
75.264037,145.540224
75.328921,145.583579
75.372276,145.648463
75.387500,145.725000
75.387500,146.275000
75.372276,146.351537
75.328921,146.416421
75.264037,146.459776
75.187500,146.475000
74.787500,146.475000
74.710963,146.459776
74.646079,146.416421
74.602724,146.351537
74.587500,146.275000
Z" /> 
<path style="fill:#000000; fill-opacity:1.000000; stroke:none;fill-rule:evenodd;"
d="M 115.177500,126.967697
115.120097,126.956279
115.071434,126.923763
115.038918,126.875100
115.027500,126.817697
115.027500,125.167697
115.038918,125.110294
115.071434,125.061631
115.120097,125.029115
115.177500,125.017697
115.477500,125.017697
115.534903,125.029115
115.583566,125.061631
115.616082,125.110294
115.627500,125.167697
115.627500,126.817697
115.616082,126.875100
115.583566,126.923763
115.534903,126.956279
115.477500,126.967697
Z" /> 
<path style="fill:#000000; fill-opacity:1.000000; stroke:none;fill-rule:evenodd;"
d="M 116.447500,126.967697
116.390097,126.956279
116.341434,126.923763
116.308918,126.875100
116.297500,126.817697
116.297500,125.167697
116.308918,125.110294
116.341434,125.061631
116.390097,125.029115
116.447500,125.017697
116.747500,125.017697
116.804903,125.029115
116.853566,125.061631
116.886082,125.110294
116.897500,125.167697
116.897500,126.817697
116.886082,126.875100
116.853566,126.923763
116.804903,126.956279
116.747500,126.967697
Z" /> 
<path style="fill:#000000; fill-opacity:1.000000; stroke:none;fill-rule:evenodd;"
d="M 117.717500,126.967697
117.660097,126.956279
117.611434,126.923763
117.578918,126.875100
117.567500,126.817697
117.567500,125.167697
117.578918,125.110294
117.611434,125.061631
117.660097,125.029115
117.717500,125.017697
118.017500,125.017697
118.074903,125.029115
118.123566,125.061631
118.156082,125.110294
118.167500,125.167697
118.167500,126.817697
118.156082,126.875100
118.123566,126.923763
118.074903,126.956279
118.017500,126.967697
Z" /> 
<path style="fill:#000000; fill-opacity:1.000000; stroke:none;fill-rule:evenodd;"
d="M 118.987500,126.967697
118.930097,126.956279
118.881434,126.923763
118.848918,126.875100
118.837500,126.817697
118.837500,125.167697
118.848918,125.110294
118.881434,125.061631
118.930097,125.029115
118.987500,125.017697
119.287500,125.017697
119.344903,125.029115
119.393566,125.061631
119.426082,125.110294
119.437500,125.167697
119.437500,126.817697
119.426082,126.875100
119.393566,126.923763
119.344903,126.956279
119.287500,126.967697
Z" /> 
<path style="fill:#000000; fill-opacity:1.000000; stroke:none;fill-rule:evenodd;"
d="M 120.257500,126.967697
120.200097,126.956279
120.151434,126.923763
120.118918,126.875100
120.107500,126.817697
120.107500,125.167697
120.118918,125.110294
120.151434,125.061631
120.200097,125.029115
120.257500,125.017697
120.557500,125.017697
120.614903,125.029115
120.663566,125.061631
120.696082,125.110294
120.707500,125.167697
120.707500,126.817697
120.696082,126.875100
120.663566,126.923763
120.614903,126.956279
120.557500,126.967697
Z" /> 
<path style="fill:#000000; fill-opacity:1.000000; stroke:none;fill-rule:evenodd;"
d="M 121.527500,126.967697
121.470097,126.956279
121.421434,126.923763
121.388918,126.875100
121.377500,126.817697
121.377500,125.167697
121.388918,125.110294
121.421434,125.061631
121.470097,125.029115
121.527500,125.017697
121.827500,125.017697
121.884903,125.029115
121.933566,125.061631
121.966082,125.110294
121.977500,125.167697
121.977500,126.817697
121.966082,126.875100
121.933566,126.923763
121.884903,126.956279
121.827500,126.967697
Z" /> 
<path style="fill:#000000; fill-opacity:1.000000; stroke:none;fill-rule:evenodd;"
d="M 122.797500,126.967697
122.740097,126.956279
122.691434,126.923763
122.658918,126.875100
122.647500,126.817697
122.647500,125.167697
122.658918,125.110294
122.691434,125.061631
122.740097,125.029115
122.797500,125.017697
123.097500,125.017697
123.154903,125.029115
123.203566,125.061631
123.236082,125.110294
123.247500,125.167697
123.247500,126.817697
123.236082,126.875100
123.203566,126.923763
123.154903,126.956279
123.097500,126.967697
Z" /> 
<path style="fill:#000000; fill-opacity:1.000000; stroke:none;fill-rule:evenodd;"
d="M 122.797500,122.017697
122.740097,122.006279
122.691434,121.973763
122.658918,121.925100
122.647500,121.867697
122.647500,120.217697
122.658918,120.160294
122.691434,120.111631
122.740097,120.079115
122.797500,120.067697
123.097500,120.067697
123.154903,120.079115
123.203566,120.111631
123.236082,120.160294
123.247500,120.217697
123.247500,121.867697
123.236082,121.925100
123.203566,121.973763
123.154903,122.006279
123.097500,122.017697
Z" /> 
<path style="fill:#000000; fill-opacity:1.000000; stroke:none;fill-rule:evenodd;"
d="M 121.527500,122.017697
121.470097,122.006279
121.421434,121.973763
121.388918,121.925100
121.377500,121.867697
121.377500,120.217697
121.388918,120.160294
121.421434,120.111631
121.470097,120.079115
121.527500,120.067697
121.827500,120.067697
121.884903,120.079115
121.933566,120.111631
121.966082,120.160294
121.977500,120.217697
121.977500,121.867697
121.966082,121.925100
121.933566,121.973763
121.884903,122.006279
121.827500,122.017697
Z" /> 
<path style="fill:#000000; fill-opacity:1.000000; stroke:none;fill-rule:evenodd;"
d="M 120.257500,122.017697
120.200097,122.006279
120.151434,121.973763
120.118918,121.925100
120.107500,121.867697
120.107500,120.217697
120.118918,120.160294
120.151434,120.111631
120.200097,120.079115
120.257500,120.067697
120.557500,120.067697
120.614903,120.079115
120.663566,120.111631
120.696082,120.160294
120.707500,120.217697
120.707500,121.867697
120.696082,121.925100
120.663566,121.973763
120.614903,122.006279
120.557500,122.017697
Z" /> 
<path style="fill:#000000; fill-opacity:1.000000; stroke:none;fill-rule:evenodd;"
d="M 118.987500,122.017697
118.930097,122.006279
118.881434,121.973763
118.848918,121.925100
118.837500,121.867697
118.837500,120.217697
118.848918,120.160294
118.881434,120.111631
118.930097,120.079115
118.987500,120.067697
119.287500,120.067697
119.344903,120.079115
119.393566,120.111631
119.426082,120.160294
119.437500,120.217697
119.437500,121.867697
119.426082,121.925100
119.393566,121.973763
119.344903,122.006279
119.287500,122.017697
Z" /> 
<path style="fill:#000000; fill-opacity:1.000000; stroke:none;fill-rule:evenodd;"
d="M 117.717500,122.017697
117.660097,122.006279
117.611434,121.973763
117.578918,121.925100
117.567500,121.867697
117.567500,120.217697
117.578918,120.160294
117.611434,120.111631
117.660097,120.079115
117.717500,120.067697
118.017500,120.067697
118.074903,120.079115
118.123566,120.111631
118.156082,120.160294
118.167500,120.217697
118.167500,121.867697
118.156082,121.925100
118.123566,121.973763
118.074903,122.006279
118.017500,122.017697
Z" /> 
<path style="fill:#000000; fill-opacity:1.000000; stroke:none;fill-rule:evenodd;"
d="M 116.447500,122.017697
116.390097,122.006279
116.341434,121.973763
116.308918,121.925100
116.297500,121.867697
116.297500,120.217697
116.308918,120.160294
116.341434,120.111631
116.390097,120.079115
116.447500,120.067697
116.747500,120.067697
116.804903,120.079115
116.853566,120.111631
116.886082,120.160294
116.897500,120.217697
116.897500,121.867697
116.886082,121.925100
116.853566,121.973763
116.804903,122.006279
116.747500,122.017697
Z" /> 
<path style="fill:#000000; fill-opacity:1.000000; stroke:none;fill-rule:evenodd;"
d="M 115.177500,122.017697
115.120097,122.006279
115.071434,121.973763
115.038918,121.925100
115.027500,121.867697
115.027500,120.217697
115.038918,120.160294
115.071434,120.111631
115.120097,120.079115
115.177500,120.067697
115.477500,120.067697
115.534903,120.079115
115.583566,120.111631
115.616082,120.160294
115.627500,120.217697
115.627500,121.867697
115.616082,121.925100
115.583566,121.973763
115.534903,122.006279
115.477500,122.017697
Z" /> 
<path style="fill:#000000; fill-opacity:1.000000; stroke:none;fill-rule:evenodd;"
d="M 130.050000,129.700000
130.069030,129.604329
130.123223,129.523223
130.204329,129.469030
130.300000,129.450000
132.800000,129.450000
132.895671,129.469030
132.976777,129.523223
133.030970,129.604329
133.050000,129.700000
133.050000,130.800000
133.030970,130.895671
132.976777,130.976777
132.895671,131.030970
132.800000,131.050000
130.300000,131.050000
130.204329,131.030970
130.123223,130.976777
130.069030,130.895671
130.050000,130.800000
Z" /> 
<path style="fill:#000000; fill-opacity:1.000000; stroke:none;fill-rule:evenodd;"
d="M 134.450000,129.700000
134.469030,129.604329
134.523223,129.523223
134.604329,129.469030
134.700000,129.450000
137.200000,129.450000
137.295671,129.469030
137.376777,129.523223
137.430970,129.604329
137.450000,129.700000
137.450000,130.800000
137.430970,130.895671
137.376777,130.976777
137.295671,131.030970
137.200000,131.050000
134.700000,131.050000
134.604329,131.030970
134.523223,130.976777
134.469030,130.895671
134.450000,130.800000
Z" /> 
<path style="fill:#000000; fill-opacity:1.000000; stroke:none;fill-rule:evenodd;"
d="M 90.650000,135.150000
90.745671,135.169030
90.826777,135.223223
90.880970,135.304329
90.900000,135.400000
90.900000,136.050000
90.880970,136.145671
90.826777,136.226777
90.745671,136.280970
90.650000,136.300000
89.350000,136.300000
89.254329,136.280970
89.173223,136.226777
89.119030,136.145671
89.100000,136.050000
89.100000,135.400000
89.119030,135.304329
89.173223,135.223223
89.254329,135.169030
89.350000,135.150000
Z" /> 
<path style="fill:#000000; fill-opacity:1.000000; stroke:none;fill-rule:evenodd;"
d="M 90.650000,138.100000
90.745671,138.119030
90.826777,138.173223
90.880970,138.254329
90.900000,138.350000
90.900000,139.000000
90.880970,139.095671
90.826777,139.176777
90.745671,139.230970
90.650000,139.250000
89.350000,139.250000
89.254329,139.230970
89.173223,139.176777
89.119030,139.095671
89.100000,139.000000
89.100000,138.350000
89.119030,138.254329
89.173223,138.173223
89.254329,138.119030
89.350000,138.100000
Z" /> 
<path style="fill:#000000; fill-opacity:1.000000; stroke:none;fill-rule:evenodd;"
d="M 72.937500,150.725000
72.952724,150.648463
72.996079,150.583579
73.060963,150.540224
73.137500,150.525000
73.537500,150.525000
73.614037,150.540224
73.678921,150.583579
73.722276,150.648463
73.737500,150.725000
73.737500,151.275000
73.722276,151.351537
73.678921,151.416421
73.614037,151.459776
73.537500,151.475000
73.137500,151.475000
73.060963,151.459776
72.996079,151.416421
72.952724,151.351537
72.937500,151.275000
Z" /> 
<path style="fill:#000000; fill-opacity:1.000000; stroke:none;fill-rule:evenodd;"
d="M 74.587500,150.725000
74.602724,150.648463
74.646079,150.583579
74.710963,150.540224
74.787500,150.525000
75.187500,150.525000
75.264037,150.540224
75.328921,150.583579
75.372276,150.648463
75.387500,150.725000
75.387500,151.275000
75.372276,151.351537
75.328921,151.416421
75.264037,151.459776
75.187500,151.475000
74.787500,151.475000
74.710963,151.459776
74.646079,151.416421
74.602724,151.351537
74.587500,151.275000
Z" /> 
<path style="fill:#000000; fill-opacity:1.000000; stroke:none;fill-rule:evenodd;"
d="M 95.550000,139.250000
95.454329,139.230970
95.373223,139.176777
95.319030,139.095671
95.300000,139.000000
95.300000,138.350000
95.319030,138.254329
95.373223,138.173223
95.454329,138.119030
95.550000,138.100000
96.850000,138.100000
96.945671,138.119030
97.026777,138.173223
97.080970,138.254329
97.100000,138.350000
97.100000,139.000000
97.080970,139.095671
97.026777,139.176777
96.945671,139.230970
96.850000,139.250000
Z" /> 
<path style="fill:#000000; fill-opacity:1.000000; stroke:none;fill-rule:evenodd;"
d="M 95.550000,136.300000
95.454329,136.280970
95.373223,136.226777
95.319030,136.145671
95.300000,136.050000
95.300000,135.400000
95.319030,135.304329
95.373223,135.223223
95.454329,135.169030
95.550000,135.150000
96.850000,135.150000
96.945671,135.169030
97.026777,135.223223
97.080970,135.304329
97.100000,135.400000
97.100000,136.050000
97.080970,136.145671
97.026777,136.226777
96.945671,136.280970
96.850000,136.300000
Z" /> 
<path style="fill:#000000; fill-opacity:1.000000; stroke:none;fill-rule:evenodd;"
d="M 129.800000,119.450000
129.819030,119.354329
129.873223,119.273223
129.954329,119.219030
130.050000,119.200000
132.550000,119.200000
132.645671,119.219030
132.726777,119.273223
132.780970,119.354329
132.800000,119.450000
132.800000,120.550000
132.780970,120.645671
132.726777,120.726777
132.645671,120.780970
132.550000,120.800000
130.050000,120.800000
129.954329,120.780970
129.873223,120.726777
129.819030,120.645671
129.800000,120.550000
Z" /> 
<path style="fill:#000000; fill-opacity:1.000000; stroke:none;fill-rule:evenodd;"
d="M 134.200000,119.450000
134.219030,119.354329
134.273223,119.273223
134.354329,119.219030
134.450000,119.200000
136.950000,119.200000
137.045671,119.219030
137.126777,119.273223
137.180970,119.354329
137.200000,119.450000
137.200000,120.550000
137.180970,120.645671
137.126777,120.726777
137.045671,120.780970
136.950000,120.800000
134.450000,120.800000
134.354329,120.780970
134.273223,120.726777
134.219030,120.645671
134.200000,120.550000
Z" /> 
<path style="fill:#000000; fill-opacity:1.000000; stroke:none;fill-rule:evenodd;"
d="M 101.500000,151.225000
101.413896,151.207873
101.340901,151.159099
101.292127,151.086104
101.275000,151.000000
101.275000,150.550000
101.292127,150.463896
101.340901,150.390901
101.413896,150.342127
101.500000,150.325000
102.000000,150.325000
102.086104,150.342127
102.159099,150.390901
102.207873,150.463896
102.225000,150.550000
102.225000,151.000000
102.207873,151.086104
102.159099,151.159099
102.086104,151.207873
102.000000,151.225000
Z" /> 
<path style="fill:#000000; fill-opacity:1.000000; stroke:none;fill-rule:evenodd;"
d="M 101.500000,149.675000
101.413896,149.657873
101.340901,149.609099
101.292127,149.536104
101.275000,149.450000
101.275000,149.000000
101.292127,148.913896
101.340901,148.840901
101.413896,148.792127
101.500000,148.775000
102.000000,148.775000
102.086104,148.792127
102.159099,148.840901
102.207873,148.913896
102.225000,149.000000
102.225000,149.450000
102.207873,149.536104
102.159099,149.609099
102.086104,149.657873
102.000000,149.675000
Z" /> 
<path style="fill:#000000; fill-opacity:1.000000; stroke:none;fill-rule:evenodd;"
d="M 139.700000,124.975000
139.715224,124.898463
139.758579,124.833579
139.823463,124.790224
139.900000,124.775000
140.300000,124.775000
140.376537,124.790224
140.441421,124.833579
140.484776,124.898463
140.500000,124.975000
140.500000,125.525000
140.484776,125.601537
140.441421,125.666421
140.376537,125.709776
140.300000,125.725000
139.900000,125.725000
139.823463,125.709776
139.758579,125.666421
139.715224,125.601537
139.700000,125.525000
Z" /> 
<path style="fill:#000000; fill-opacity:1.000000; stroke:none;fill-rule:evenodd;"
d="M 141.350000,124.975000
141.365224,124.898463
141.408579,124.833579
141.473463,124.790224
141.550000,124.775000
141.950000,124.775000
142.026537,124.790224
142.091421,124.833579
142.134776,124.898463
142.150000,124.975000
142.150000,125.525000
142.134776,125.601537
142.091421,125.666421
142.026537,125.709776
141.950000,125.725000
141.550000,125.725000
141.473463,125.709776
141.408579,125.666421
141.365224,125.601537
141.350000,125.525000
Z" /> 
<path style="fill:#000000; fill-opacity:1.000000; stroke:none;fill-rule:evenodd;"
d="M 139.525000,134.975000
139.540224,134.898463
139.583579,134.833579
139.648463,134.790224
139.725000,134.775000
140.125000,134.775000
140.201537,134.790224
140.266421,134.833579
140.309776,134.898463
140.325000,134.975000
140.325000,135.525000
140.309776,135.601537
140.266421,135.666421
140.201537,135.709776
140.125000,135.725000
139.725000,135.725000
139.648463,135.709776
139.583579,135.666421
139.540224,135.601537
139.525000,135.525000
Z" /> 
<path style="fill:#000000; fill-opacity:1.000000; stroke:none;fill-rule:evenodd;"
d="M 141.175000,134.975000
141.190224,134.898463
141.233579,134.833579
141.298463,134.790224
141.375000,134.775000
141.775000,134.775000
141.851537,134.790224
141.916421,134.833579
141.959776,134.898463
141.975000,134.975000
141.975000,135.525000
141.959776,135.601537
141.916421,135.666421
141.851537,135.709776
141.775000,135.725000
141.375000,135.725000
141.298463,135.709776
141.233579,135.666421
141.190224,135.601537
141.175000,135.525000
Z" /> 
<path style="fill:#000000; fill-opacity:1.000000; stroke:none;fill-rule:evenodd;"
d="M 87.250000,135.887500
87.336104,135.904627
87.409099,135.953401
87.457873,136.026396
87.475000,136.112500
87.475000,136.562500
87.457873,136.648604
87.409099,136.721599
87.336104,136.770373
87.250000,136.787500
86.750000,136.787500
86.663896,136.770373
86.590901,136.721599
86.542127,136.648604
86.525000,136.562500
86.525000,136.112500
86.542127,136.026396
86.590901,135.953401
86.663896,135.904627
86.750000,135.887500
Z" /> 
<path style="fill:#000000; fill-opacity:1.000000; stroke:none;fill-rule:evenodd;"
d="M 87.250000,137.437500
87.336104,137.454627
87.409099,137.503401
87.457873,137.576396
87.475000,137.662500
87.475000,138.112500
87.457873,138.198604
87.409099,138.271599
87.336104,138.320373
87.250000,138.337500
86.750000,138.337500
86.663896,138.320373
86.590901,138.271599
86.542127,138.198604
86.525000,138.112500
86.525000,137.662500
86.542127,137.576396
86.590901,137.503401
86.663896,137.454627
86.750000,137.437500
Z" /> 
<path style="fill:#000000; fill-opacity:1.000000; stroke:none;fill-rule:evenodd;"
d="M 84.756250,135.900000
84.839962,135.916651
84.910930,135.964070
84.958349,136.035038
84.975000,136.118750
84.975000,136.556250
84.958349,136.639962
84.910930,136.710930
84.839962,136.758349
84.756250,136.775000
84.243750,136.775000
84.160038,136.758349
84.089070,136.710930
84.041651,136.639962
84.025000,136.556250
84.025000,136.118750
84.041651,136.035038
84.089070,135.964070
84.160038,135.916651
84.243750,135.900000
Z" /> 
<path style="fill:#000000; fill-opacity:1.000000; stroke:none;fill-rule:evenodd;"
d="M 84.756250,137.475000
84.839962,137.491651
84.910930,137.539070
84.958349,137.610038
84.975000,137.693750
84.975000,138.131250
84.958349,138.214962
84.910930,138.285930
84.839962,138.333349
84.756250,138.350000
84.243750,138.350000
84.160038,138.333349
84.089070,138.285930
84.041651,138.214962
84.025000,138.131250
84.025000,137.693750
84.041651,137.610038
84.089070,137.539070
84.160038,137.491651
84.243750,137.475000
Z" /> 
</g> 
</svg>
