<?xml version="1.0" standalone="no"?>
 <!DOCTYPE svg PUBLIC "-//W3C//DTD SVG 1.1//EN" 
 "http://www.w3.org/Graphics/SVG/1.1/DTD/svg11.dtd"> 
<svg
  xmlns:svg="http://www.w3.org/2000/svg"
  xmlns="http://www.w3.org/2000/svg"
  xmlns:xlink="http://www.w3.org/1999/xlink"
  version="1.1"
  width="297.0022mm" height="210.0072mm" viewBox="0.0000 0.0000 297.0022 210.0072">
<title>SVG Image created as rcbus-opl3-F_Paste2.svg date 2025/10/11 13:16:08 </title>
  <desc>Image generated by PCBNEW </desc>
<g style="fill:#000000; fill-opacity:1.0000;stroke:#000000; stroke-opacity:1.0000;
stroke-linecap:round; stroke-linejoin:round;"
 transform="translate(0 0) scale(1 1)">
<path style="fill:#000000; fill-opacity:1.0000; stroke:none;fill-rule:evenodd;"
d="M 80.6250,142.6500
80.6079,142.7361
80.5591,142.8091
80.4861,142.8579
80.4000,142.8750
79.9500,142.8750
79.8639,142.8579
79.7909,142.8091
79.7421,142.7361
79.7250,142.6500
79.7250,142.1500
79.7421,142.0639
79.7909,141.9909
79.8639,141.9421
79.9500,141.9250
80.4000,141.9250
80.4861,141.9421
80.5591,141.9909
80.6079,142.0639
80.6250,142.1500
Z" /> 
<path style="fill:#000000; fill-opacity:1.0000; stroke:none;fill-rule:evenodd;"
d="M 79.0750,142.6500
79.0579,142.7361
79.0091,142.8091
78.9361,142.8579
78.8500,142.8750
78.4000,142.8750
78.3139,142.8579
78.2409,142.8091
78.1921,142.7361
78.1750,142.6500
78.1750,142.1500
78.1921,142.0639
78.2409,141.9909
78.3139,141.9421
78.4000,141.9250
78.8500,141.9250
78.9361,141.9421
79.0091,141.9909
79.0579,142.0639
79.0750,142.1500
Z" /> 
<path style="fill:#000000; fill-opacity:1.0000; stroke:none;fill-rule:evenodd;"
d="M 119.5500,141.9500
119.5329,142.0361
119.4841,142.1091
119.4111,142.1579
119.3250,142.1750
118.8750,142.1750
118.7889,142.1579
118.7159,142.1091
118.6671,142.0361
118.6500,141.9500
118.6500,141.4500
118.6671,141.3639
118.7159,141.2909
118.7889,141.2421
118.8750,141.2250
119.3250,141.2250
119.4111,141.2421
119.4841,141.2909
119.5329,141.3639
119.5500,141.4500
Z" /> 
<path style="fill:#000000; fill-opacity:1.0000; stroke:none;fill-rule:evenodd;"
d="M 118.0000,141.9500
117.9829,142.0361
117.9341,142.1091
117.8611,142.1579
117.7750,142.1750
117.3250,142.1750
117.2389,142.1579
117.1659,142.1091
117.1171,142.0361
117.1000,141.9500
117.1000,141.4500
117.1171,141.3639
117.1659,141.2909
117.2389,141.2421
117.3250,141.2250
117.7750,141.2250
117.8611,141.2421
117.9341,141.2909
117.9829,141.3639
118.0000,141.4500
Z" /> 
<path style="fill:#000000; fill-opacity:1.0000; stroke:none;fill-rule:evenodd;"
d="M 80.4000,156.0250
80.3426,156.0136
80.2939,155.9811
80.2614,155.9324
80.2500,155.8750
80.2500,154.1250
80.2614,154.0676
80.2939,154.0189
80.3426,153.9864
80.4000,153.9750
80.7000,153.9750
80.7574,153.9864
80.8061,154.0189
80.8386,154.0676
80.8500,154.1250
80.8500,155.8750
80.8386,155.9324
80.8061,155.9811
80.7574,156.0136
80.7000,156.0250
Z" /> 
<path style="fill:#000000; fill-opacity:1.0000; stroke:none;fill-rule:evenodd;"
d="M 81.6700,156.0250
81.6126,156.0136
81.5639,155.9811
81.5314,155.9324
81.5200,155.8750
81.5200,154.1250
81.5314,154.0676
81.5639,154.0189
81.6126,153.9864
81.6700,153.9750
81.9700,153.9750
82.0274,153.9864
82.0761,154.0189
82.1086,154.0676
82.1200,154.1250
82.1200,155.8750
82.1086,155.9324
82.0761,155.9811
82.0274,156.0136
81.9700,156.0250
Z" /> 
<path style="fill:#000000; fill-opacity:1.0000; stroke:none;fill-rule:evenodd;"
d="M 82.9400,156.0250
82.8826,156.0136
82.8339,155.9811
82.8014,155.9324
82.7900,155.8750
82.7900,154.1250
82.8014,154.0676
82.8339,154.0189
82.8826,153.9864
82.9400,153.9750
83.2400,153.9750
83.2974,153.9864
83.3461,154.0189
83.3786,154.0676
83.3900,154.1250
83.3900,155.8750
83.3786,155.9324
83.3461,155.9811
83.2974,156.0136
83.2400,156.0250
Z" /> 
<path style="fill:#000000; fill-opacity:1.0000; stroke:none;fill-rule:evenodd;"
d="M 84.2100,156.0250
84.1526,156.0136
84.1039,155.9811
84.0714,155.9324
84.0600,155.8750
84.0600,154.1250
84.0714,154.0676
84.1039,154.0189
84.1526,153.9864
84.2100,153.9750
84.5100,153.9750
84.5674,153.9864
84.6161,154.0189
84.6486,154.0676
84.6600,154.1250
84.6600,155.8750
84.6486,155.9324
84.6161,155.9811
84.5674,156.0136
84.5100,156.0250
Z" /> 
<path style="fill:#000000; fill-opacity:1.0000; stroke:none;fill-rule:evenodd;"
d="M 85.4800,156.0250
85.4226,156.0136
85.3739,155.9811
85.3414,155.9324
85.3300,155.8750
85.3300,154.1250
85.3414,154.0676
85.3739,154.0189
85.4226,153.9864
85.4800,153.9750
85.7800,153.9750
85.8374,153.9864
85.8861,154.0189
85.9186,154.0676
85.9300,154.1250
85.9300,155.8750
85.9186,155.9324
85.8861,155.9811
85.8374,156.0136
85.7800,156.0250
Z" /> 
<path style="fill:#000000; fill-opacity:1.0000; stroke:none;fill-rule:evenodd;"
d="M 86.7500,156.0250
86.6926,156.0136
86.6439,155.9811
86.6114,155.9324
86.6000,155.8750
86.6000,154.1250
86.6114,154.0676
86.6439,154.0189
86.6926,153.9864
86.7500,153.9750
87.0500,153.9750
87.1074,153.9864
87.1561,154.0189
87.1886,154.0676
87.2000,154.1250
87.2000,155.8750
87.1886,155.9324
87.1561,155.9811
87.1074,156.0136
87.0500,156.0250
Z" /> 
<path style="fill:#000000; fill-opacity:1.0000; stroke:none;fill-rule:evenodd;"
d="M 88.0200,156.0250
87.9626,156.0136
87.9139,155.9811
87.8814,155.9324
87.8700,155.8750
87.8700,154.1250
87.8814,154.0676
87.9139,154.0189
87.9626,153.9864
88.0200,153.9750
88.3200,153.9750
88.3774,153.9864
88.4261,154.0189
88.4586,154.0676
88.4700,154.1250
88.4700,155.8750
88.4586,155.9324
88.4261,155.9811
88.3774,156.0136
88.3200,156.0250
Z" /> 
<path style="fill:#000000; fill-opacity:1.0000; stroke:none;fill-rule:evenodd;"
d="M 89.2900,156.0250
89.2326,156.0136
89.1839,155.9811
89.1514,155.9324
89.1400,155.8750
89.1400,154.1250
89.1514,154.0676
89.1839,154.0189
89.2326,153.9864
89.2900,153.9750
89.5900,153.9750
89.6474,153.9864
89.6961,154.0189
89.7286,154.0676
89.7400,154.1250
89.7400,155.8750
89.7286,155.9324
89.6961,155.9811
89.6474,156.0136
89.5900,156.0250
Z" /> 
<path style="fill:#000000; fill-opacity:1.0000; stroke:none;fill-rule:evenodd;"
d="M 90.5600,156.0250
90.5026,156.0136
90.4539,155.9811
90.4214,155.9324
90.4100,155.8750
90.4100,154.1250
90.4214,154.0676
90.4539,154.0189
90.5026,153.9864
90.5600,153.9750
90.8600,153.9750
90.9174,153.9864
90.9661,154.0189
90.9986,154.0676
91.0100,154.1250
91.0100,155.8750
90.9986,155.9324
90.9661,155.9811
90.9174,156.0136
90.8600,156.0250
Z" /> 
<path style="fill:#000000; fill-opacity:1.0000; stroke:none;fill-rule:evenodd;"
d="M 91.8300,156.0250
91.7726,156.0136
91.7239,155.9811
91.6914,155.9324
91.6800,155.8750
91.6800,154.1250
91.6914,154.0676
91.7239,154.0189
91.7726,153.9864
91.8300,153.9750
92.1300,153.9750
92.1874,153.9864
92.2361,154.0189
92.2686,154.0676
92.2800,154.1250
92.2800,155.8750
92.2686,155.9324
92.2361,155.9811
92.1874,156.0136
92.1300,156.0250
Z" /> 
<path style="fill:#000000; fill-opacity:1.0000; stroke:none;fill-rule:evenodd;"
d="M 91.8300,146.7250
91.7726,146.7136
91.7239,146.6811
91.6914,146.6324
91.6800,146.5750
91.6800,144.8250
91.6914,144.7676
91.7239,144.7189
91.7726,144.6864
91.8300,144.6750
92.1300,144.6750
92.1874,144.6864
92.2361,144.7189
92.2686,144.7676
92.2800,144.8250
92.2800,146.5750
92.2686,146.6324
92.2361,146.6811
92.1874,146.7136
92.1300,146.7250
Z" /> 
<path style="fill:#000000; fill-opacity:1.0000; stroke:none;fill-rule:evenodd;"
d="M 90.5600,146.7250
90.5026,146.7136
90.4539,146.6811
90.4214,146.6324
90.4100,146.5750
90.4100,144.8250
90.4214,144.7676
90.4539,144.7189
90.5026,144.6864
90.5600,144.6750
90.8600,144.6750
90.9174,144.6864
90.9661,144.7189
90.9986,144.7676
91.0100,144.8250
91.0100,146.5750
90.9986,146.6324
90.9661,146.6811
90.9174,146.7136
90.8600,146.7250
Z" /> 
<path style="fill:#000000; fill-opacity:1.0000; stroke:none;fill-rule:evenodd;"
d="M 89.2900,146.7250
89.2326,146.7136
89.1839,146.6811
89.1514,146.6324
89.1400,146.5750
89.1400,144.8250
89.1514,144.7676
89.1839,144.7189
89.2326,144.6864
89.2900,144.6750
89.5900,144.6750
89.6474,144.6864
89.6961,144.7189
89.7286,144.7676
89.7400,144.8250
89.7400,146.5750
89.7286,146.6324
89.6961,146.6811
89.6474,146.7136
89.5900,146.7250
Z" /> 
<path style="fill:#000000; fill-opacity:1.0000; stroke:none;fill-rule:evenodd;"
d="M 88.0200,146.7250
87.9626,146.7136
87.9139,146.6811
87.8814,146.6324
87.8700,146.5750
87.8700,144.8250
87.8814,144.7676
87.9139,144.7189
87.9626,144.6864
88.0200,144.6750
88.3200,144.6750
88.3774,144.6864
88.4261,144.7189
88.4586,144.7676
88.4700,144.8250
88.4700,146.5750
88.4586,146.6324
88.4261,146.6811
88.3774,146.7136
88.3200,146.7250
Z" /> 
<path style="fill:#000000; fill-opacity:1.0000; stroke:none;fill-rule:evenodd;"
d="M 86.7500,146.7250
86.6926,146.7136
86.6439,146.6811
86.6114,146.6324
86.6000,146.5750
86.6000,144.8250
86.6114,144.7676
86.6439,144.7189
86.6926,144.6864
86.7500,144.6750
87.0500,144.6750
87.1074,144.6864
87.1561,144.7189
87.1886,144.7676
87.2000,144.8250
87.2000,146.5750
87.1886,146.6324
87.1561,146.6811
87.1074,146.7136
87.0500,146.7250
Z" /> 
<path style="fill:#000000; fill-opacity:1.0000; stroke:none;fill-rule:evenodd;"
d="M 85.4800,146.7250
85.4226,146.7136
85.3739,146.6811
85.3414,146.6324
85.3300,146.5750
85.3300,144.8250
85.3414,144.7676
85.3739,144.7189
85.4226,144.6864
85.4800,144.6750
85.7800,144.6750
85.8374,144.6864
85.8861,144.7189
85.9186,144.7676
85.9300,144.8250
85.9300,146.5750
85.9186,146.6324
85.8861,146.6811
85.8374,146.7136
85.7800,146.7250
Z" /> 
<path style="fill:#000000; fill-opacity:1.0000; stroke:none;fill-rule:evenodd;"
d="M 84.2100,146.7250
84.1526,146.7136
84.1039,146.6811
84.0714,146.6324
84.0600,146.5750
84.0600,144.8250
84.0714,144.7676
84.1039,144.7189
84.1526,144.6864
84.2100,144.6750
84.5100,144.6750
84.5674,144.6864
84.6161,144.7189
84.6486,144.7676
84.6600,144.8250
84.6600,146.5750
84.6486,146.6324
84.6161,146.6811
84.5674,146.7136
84.5100,146.7250
Z" /> 
<path style="fill:#000000; fill-opacity:1.0000; stroke:none;fill-rule:evenodd;"
d="M 82.9400,146.7250
82.8826,146.7136
82.8339,146.6811
82.8014,146.6324
82.7900,146.5750
82.7900,144.8250
82.8014,144.7676
82.8339,144.7189
82.8826,144.6864
82.9400,144.6750
83.2400,144.6750
83.2974,144.6864
83.3461,144.7189
83.3786,144.7676
83.3900,144.8250
83.3900,146.5750
83.3786,146.6324
83.3461,146.6811
83.2974,146.7136
83.2400,146.7250
Z" /> 
<path style="fill:#000000; fill-opacity:1.0000; stroke:none;fill-rule:evenodd;"
d="M 81.6700,146.7250
81.6126,146.7136
81.5639,146.6811
81.5314,146.6324
81.5200,146.5750
81.5200,144.8250
81.5314,144.7676
81.5639,144.7189
81.6126,144.6864
81.6700,144.6750
81.9700,144.6750
82.0274,144.6864
82.0761,144.7189
82.1086,144.7676
82.1200,144.8250
82.1200,146.5750
82.1086,146.6324
82.0761,146.6811
82.0274,146.7136
81.9700,146.7250
Z" /> 
<path style="fill:#000000; fill-opacity:1.0000; stroke:none;fill-rule:evenodd;"
d="M 80.4000,146.7250
80.3426,146.7136
80.2939,146.6811
80.2614,146.6324
80.2500,146.5750
80.2500,144.8250
80.2614,144.7676
80.2939,144.7189
80.3426,144.6864
80.4000,144.6750
80.7000,144.6750
80.7574,144.6864
80.8061,144.7189
80.8386,144.7676
80.8500,144.8250
80.8500,146.5750
80.8386,146.6324
80.8061,146.6811
80.7574,146.7136
80.7000,146.7250
Z" /> 
<path style="fill:#000000; fill-opacity:1.0000; stroke:none;fill-rule:evenodd;"
d="M 124.1500,127.4750
124.2361,127.4921
124.3091,127.5409
124.3579,127.6139
124.3750,127.7000
124.3750,128.1500
124.3579,128.2361
124.3091,128.3091
124.2361,128.3579
124.1500,128.3750
123.6500,128.3750
123.5639,128.3579
123.4909,128.3091
123.4421,128.2361
123.4250,128.1500
123.4250,127.7000
123.4421,127.6139
123.4909,127.5409
123.5639,127.4921
123.6500,127.4750
Z" /> 
<path style="fill:#000000; fill-opacity:1.0000; stroke:none;fill-rule:evenodd;"
d="M 124.1500,129.0250
124.2361,129.0421
124.3091,129.0909
124.3579,129.1639
124.3750,129.2500
124.3750,129.7000
124.3579,129.7861
124.3091,129.8591
124.2361,129.9079
124.1500,129.9250
123.6500,129.9250
123.5639,129.9079
123.4909,129.8591
123.4421,129.7861
123.4250,129.7000
123.4250,129.2500
123.4421,129.1639
123.4909,129.0909
123.5639,129.0421
123.6500,129.0250
Z" /> 
<path style="fill:#000000; fill-opacity:1.0000; stroke:none;fill-rule:evenodd;"
d="M 115.9500,128.3500
115.9310,128.4457
115.8768,128.5268
115.7957,128.5810
115.7000,128.6000
112.7000,128.6000
112.6043,128.5810
112.5232,128.5268
112.4690,128.4457
112.4500,128.3500
112.4500,127.2500
112.4690,127.1543
112.5232,127.0732
112.6043,127.0190
112.7000,127.0000
115.7000,127.0000
115.7957,127.0190
115.8768,127.0732
115.9310,127.1543
115.9500,127.2500
Z" /> 
<path style="fill:#000000; fill-opacity:1.0000; stroke:none;fill-rule:evenodd;"
d="M 110.5500,128.3500
110.5310,128.4457
110.4768,128.5268
110.3957,128.5810
110.3000,128.6000
107.3000,128.6000
107.2043,128.5810
107.1232,128.5268
107.0690,128.4457
107.0500,128.3500
107.0500,127.2500
107.0690,127.1543
107.1232,127.0732
107.2043,127.0190
107.3000,127.0000
110.3000,127.0000
110.3957,127.0190
110.4768,127.0732
110.5310,127.1543
110.5500,127.2500
Z" /> 
<path style="fill:#000000; fill-opacity:1.0000; stroke:none;fill-rule:evenodd;"
d="M 116.9500,122.6250
116.8639,122.6079
116.7909,122.5591
116.7421,122.4861
116.7250,122.4000
116.7250,121.9500
116.7421,121.8639
116.7909,121.7909
116.8639,121.7421
116.9500,121.7250
117.4500,121.7250
117.5361,121.7421
117.6091,121.7909
117.6579,121.8639
117.6750,121.9500
117.6750,122.4000
117.6579,122.4861
117.6091,122.5591
117.5361,122.6079
117.4500,122.6250
Z" /> 
<path style="fill:#000000; fill-opacity:1.0000; stroke:none;fill-rule:evenodd;"
d="M 116.9500,121.0750
116.8639,121.0579
116.7909,121.0091
116.7421,120.9361
116.7250,120.8500
116.7250,120.4000
116.7421,120.3139
116.7909,120.2409
116.8639,120.1921
116.9500,120.1750
117.4500,120.1750
117.5361,120.1921
117.6091,120.2409
117.6579,120.3139
117.6750,120.4000
117.6750,120.8500
117.6579,120.9361
117.6091,121.0091
117.5361,121.0579
117.4500,121.0750
Z" /> 
<path style="fill:#000000; fill-opacity:1.0000; stroke:none;fill-rule:evenodd;"
d="M 126.3500,143.8775
126.3605,143.8249
126.3903,143.7803
126.4349,143.7505
126.4875,143.7400
128.2125,143.7400
128.2651,143.7505
128.3097,143.7803
128.3395,143.8249
128.3500,143.8775
128.3500,144.1525
128.3395,144.2051
128.3097,144.2497
128.2651,144.2795
128.2125,144.2900
126.4875,144.2900
126.4349,144.2795
126.3903,144.2497
126.3605,144.2051
126.3500,144.1525
Z" /> 
<path style="fill:#000000; fill-opacity:1.0000; stroke:none;fill-rule:evenodd;"
d="M 126.3500,145.1475
126.3605,145.0949
126.3903,145.0503
126.4349,145.0205
126.4875,145.0100
128.2125,145.0100
128.2651,145.0205
128.3097,145.0503
128.3395,145.0949
128.3500,145.1475
128.3500,145.4225
128.3395,145.4751
128.3097,145.5197
128.2651,145.5495
128.2125,145.5600
126.4875,145.5600
126.4349,145.5495
126.3903,145.5197
126.3605,145.4751
126.3500,145.4225
Z" /> 
<path style="fill:#000000; fill-opacity:1.0000; stroke:none;fill-rule:evenodd;"
d="M 126.3500,146.4175
126.3605,146.3649
126.3903,146.3203
126.4349,146.2905
126.4875,146.2800
128.2125,146.2800
128.2651,146.2905
128.3097,146.3203
128.3395,146.3649
128.3500,146.4175
128.3500,146.6925
128.3395,146.7451
128.3097,146.7897
128.2651,146.8195
128.2125,146.8300
126.4875,146.8300
126.4349,146.8195
126.3903,146.7897
126.3605,146.7451
126.3500,146.6925
Z" /> 
<path style="fill:#000000; fill-opacity:1.0000; stroke:none;fill-rule:evenodd;"
d="M 126.3500,147.6875
126.3605,147.6349
126.3903,147.5903
126.4349,147.5605
126.4875,147.5500
128.2125,147.5500
128.2651,147.5605
128.3097,147.5903
128.3395,147.6349
128.3500,147.6875
128.3500,147.9625
128.3395,148.0151
128.3097,148.0597
128.2651,148.0895
128.2125,148.1000
126.4875,148.1000
126.4349,148.0895
126.3903,148.0597
126.3605,148.0151
126.3500,147.9625
Z" /> 
<path style="fill:#000000; fill-opacity:1.0000; stroke:none;fill-rule:evenodd;"
d="M 126.3500,148.9575
126.3605,148.9049
126.3903,148.8603
126.4349,148.8305
126.4875,148.8200
128.2125,148.8200
128.2651,148.8305
128.3097,148.8603
128.3395,148.9049
128.3500,148.9575
128.3500,149.2325
128.3395,149.2851
128.3097,149.3297
128.2651,149.3595
128.2125,149.3700
126.4875,149.3700
126.4349,149.3595
126.3903,149.3297
126.3605,149.2851
126.3500,149.2325
Z" /> 
<path style="fill:#000000; fill-opacity:1.0000; stroke:none;fill-rule:evenodd;"
d="M 126.3500,150.2275
126.3605,150.1749
126.3903,150.1303
126.4349,150.1005
126.4875,150.0900
128.2125,150.0900
128.2651,150.1005
128.3097,150.1303
128.3395,150.1749
128.3500,150.2275
128.3500,150.5025
128.3395,150.5551
128.3097,150.5997
128.2651,150.6295
128.2125,150.6400
126.4875,150.6400
126.4349,150.6295
126.3903,150.5997
126.3605,150.5551
126.3500,150.5025
Z" /> 
<path style="fill:#000000; fill-opacity:1.0000; stroke:none;fill-rule:evenodd;"
d="M 126.3500,151.4975
126.3605,151.4449
126.3903,151.4003
126.4349,151.3705
126.4875,151.3600
128.2125,151.3600
128.2651,151.3705
128.3097,151.4003
128.3395,151.4449
128.3500,151.4975
128.3500,151.7725
128.3395,151.8251
128.3097,151.8697
128.2651,151.8995
128.2125,151.9100
126.4875,151.9100
126.4349,151.8995
126.3903,151.8697
126.3605,151.8251
126.3500,151.7725
Z" /> 
<path style="fill:#000000; fill-opacity:1.0000; stroke:none;fill-rule:evenodd;"
d="M 126.3500,152.7675
126.3605,152.7149
126.3903,152.6703
126.4349,152.6405
126.4875,152.6300
128.2125,152.6300
128.2651,152.6405
128.3097,152.6703
128.3395,152.7149
128.3500,152.7675
128.3500,153.0425
128.3395,153.0951
128.3097,153.1397
128.2651,153.1695
128.2125,153.1800
126.4875,153.1800
126.4349,153.1695
126.3903,153.1397
126.3605,153.0951
126.3500,153.0425
Z" /> 
<path style="fill:#000000; fill-opacity:1.0000; stroke:none;fill-rule:evenodd;"
d="M 126.3500,154.0375
126.3605,153.9849
126.3903,153.9403
126.4349,153.9105
126.4875,153.9000
128.2125,153.9000
128.2651,153.9105
128.3097,153.9403
128.3395,153.9849
128.3500,154.0375
128.3500,154.3125
128.3395,154.3651
128.3097,154.4097
128.2651,154.4395
128.2125,154.4500
126.4875,154.4500
126.4349,154.4395
126.3903,154.4097
126.3605,154.3651
126.3500,154.3125
Z" /> 
<path style="fill:#000000; fill-opacity:1.0000; stroke:none;fill-rule:evenodd;"
d="M 126.3500,155.3075
126.3605,155.2549
126.3903,155.2103
126.4349,155.1805
126.4875,155.1700
128.2125,155.1700
128.2651,155.1805
128.3097,155.2103
128.3395,155.2549
128.3500,155.3075
128.3500,155.5825
128.3395,155.6351
128.3097,155.6797
128.2651,155.7095
128.2125,155.7200
126.4875,155.7200
126.4349,155.7095
126.3903,155.6797
126.3605,155.6351
126.3500,155.5825
Z" /> 
<path style="fill:#000000; fill-opacity:1.0000; stroke:none;fill-rule:evenodd;"
d="M 126.3500,156.5775
126.3605,156.5249
126.3903,156.4803
126.4349,156.4505
126.4875,156.4400
128.2125,156.4400
128.2651,156.4505
128.3097,156.4803
128.3395,156.5249
128.3500,156.5775
128.3500,156.8525
128.3395,156.9051
128.3097,156.9497
128.2651,156.9795
128.2125,156.9900
126.4875,156.9900
126.4349,156.9795
126.3903,156.9497
126.3605,156.9051
126.3500,156.8525
Z" /> 
<path style="fill:#000000; fill-opacity:1.0000; stroke:none;fill-rule:evenodd;"
d="M 126.3500,157.8475
126.3605,157.7949
126.3903,157.7503
126.4349,157.7205
126.4875,157.7100
128.2125,157.7100
128.2651,157.7205
128.3097,157.7503
128.3395,157.7949
128.3500,157.8475
128.3500,158.1225
128.3395,158.1751
128.3097,158.2197
128.2651,158.2495
128.2125,158.2600
126.4875,158.2600
126.4349,158.2495
126.3903,158.2197
126.3605,158.1751
126.3500,158.1225
Z" /> 
<path style="fill:#000000; fill-opacity:1.0000; stroke:none;fill-rule:evenodd;"
d="M 135.6500,157.8475
135.6605,157.7949
135.6903,157.7503
135.7349,157.7205
135.7875,157.7100
137.5125,157.7100
137.5651,157.7205
137.6097,157.7503
137.6395,157.7949
137.6500,157.8475
137.6500,158.1225
137.6395,158.1751
137.6097,158.2197
137.5651,158.2495
137.5125,158.2600
135.7875,158.2600
135.7349,158.2495
135.6903,158.2197
135.6605,158.1751
135.6500,158.1225
Z" /> 
<path style="fill:#000000; fill-opacity:1.0000; stroke:none;fill-rule:evenodd;"
d="M 135.6500,156.5775
135.6605,156.5249
135.6903,156.4803
135.7349,156.4505
135.7875,156.4400
137.5125,156.4400
137.5651,156.4505
137.6097,156.4803
137.6395,156.5249
137.6500,156.5775
137.6500,156.8525
137.6395,156.9051
137.6097,156.9497
137.5651,156.9795
137.5125,156.9900
135.7875,156.9900
135.7349,156.9795
135.6903,156.9497
135.6605,156.9051
135.6500,156.8525
Z" /> 
<path style="fill:#000000; fill-opacity:1.0000; stroke:none;fill-rule:evenodd;"
d="M 135.6500,155.3075
135.6605,155.2549
135.6903,155.2103
135.7349,155.1805
135.7875,155.1700
137.5125,155.1700
137.5651,155.1805
137.6097,155.2103
137.6395,155.2549
137.6500,155.3075
137.6500,155.5825
137.6395,155.6351
137.6097,155.6797
137.5651,155.7095
137.5125,155.7200
135.7875,155.7200
135.7349,155.7095
135.6903,155.6797
135.6605,155.6351
135.6500,155.5825
Z" /> 
<path style="fill:#000000; fill-opacity:1.0000; stroke:none;fill-rule:evenodd;"
d="M 135.6500,154.0375
135.6605,153.9849
135.6903,153.9403
135.7349,153.9105
135.7875,153.9000
137.5125,153.9000
137.5651,153.9105
137.6097,153.9403
137.6395,153.9849
137.6500,154.0375
137.6500,154.3125
137.6395,154.3651
137.6097,154.4097
137.5651,154.4395
137.5125,154.4500
135.7875,154.4500
135.7349,154.4395
135.6903,154.4097
135.6605,154.3651
135.6500,154.3125
Z" /> 
<path style="fill:#000000; fill-opacity:1.0000; stroke:none;fill-rule:evenodd;"
d="M 135.6500,152.7675
135.6605,152.7149
135.6903,152.6703
135.7349,152.6405
135.7875,152.6300
137.5125,152.6300
137.5651,152.6405
137.6097,152.6703
137.6395,152.7149
137.6500,152.7675
137.6500,153.0425
137.6395,153.0951
137.6097,153.1397
137.5651,153.1695
137.5125,153.1800
135.7875,153.1800
135.7349,153.1695
135.6903,153.1397
135.6605,153.0951
135.6500,153.0425
Z" /> 
<path style="fill:#000000; fill-opacity:1.0000; stroke:none;fill-rule:evenodd;"
d="M 135.6500,151.4975
135.6605,151.4449
135.6903,151.4003
135.7349,151.3705
135.7875,151.3600
137.5125,151.3600
137.5651,151.3705
137.6097,151.4003
137.6395,151.4449
137.6500,151.4975
137.6500,151.7725
137.6395,151.8251
137.6097,151.8697
137.5651,151.8995
137.5125,151.9100
135.7875,151.9100
135.7349,151.8995
135.6903,151.8697
135.6605,151.8251
135.6500,151.7725
Z" /> 
<path style="fill:#000000; fill-opacity:1.0000; stroke:none;fill-rule:evenodd;"
d="M 135.6500,150.2275
135.6605,150.1749
135.6903,150.1303
135.7349,150.1005
135.7875,150.0900
137.5125,150.0900
137.5651,150.1005
137.6097,150.1303
137.6395,150.1749
137.6500,150.2275
137.6500,150.5025
137.6395,150.5551
137.6097,150.5997
137.5651,150.6295
137.5125,150.6400
135.7875,150.6400
135.7349,150.6295
135.6903,150.5997
135.6605,150.5551
135.6500,150.5025
Z" /> 
<path style="fill:#000000; fill-opacity:1.0000; stroke:none;fill-rule:evenodd;"
d="M 135.6500,148.9575
135.6605,148.9049
135.6903,148.8603
135.7349,148.8305
135.7875,148.8200
137.5125,148.8200
137.5651,148.8305
137.6097,148.8603
137.6395,148.9049
137.6500,148.9575
137.6500,149.2325
137.6395,149.2851
137.6097,149.3297
137.5651,149.3595
137.5125,149.3700
135.7875,149.3700
135.7349,149.3595
135.6903,149.3297
135.6605,149.2851
135.6500,149.2325
Z" /> 
<path style="fill:#000000; fill-opacity:1.0000; stroke:none;fill-rule:evenodd;"
d="M 135.6500,147.6875
135.6605,147.6349
135.6903,147.5903
135.7349,147.5605
135.7875,147.5500
137.5125,147.5500
137.5651,147.5605
137.6097,147.5903
137.6395,147.6349
137.6500,147.6875
137.6500,147.9625
137.6395,148.0151
137.6097,148.0597
137.5651,148.0895
137.5125,148.1000
135.7875,148.1000
135.7349,148.0895
135.6903,148.0597
135.6605,148.0151
135.6500,147.9625
Z" /> 
<path style="fill:#000000; fill-opacity:1.0000; stroke:none;fill-rule:evenodd;"
d="M 135.6500,146.4175
135.6605,146.3649
135.6903,146.3203
135.7349,146.2905
135.7875,146.2800
137.5125,146.2800
137.5651,146.2905
137.6097,146.3203
137.6395,146.3649
137.6500,146.4175
137.6500,146.6925
137.6395,146.7451
137.6097,146.7897
137.5651,146.8195
137.5125,146.8300
135.7875,146.8300
135.7349,146.8195
135.6903,146.7897
135.6605,146.7451
135.6500,146.6925
Z" /> 
<path style="fill:#000000; fill-opacity:1.0000; stroke:none;fill-rule:evenodd;"
d="M 135.6500,145.1475
135.6605,145.0949
135.6903,145.0503
135.7349,145.0205
135.7875,145.0100
137.5125,145.0100
137.5651,145.0205
137.6097,145.0503
137.6395,145.0949
137.6500,145.1475
137.6500,145.4225
137.6395,145.4751
137.6097,145.5197
137.5651,145.5495
137.5125,145.5600
135.7875,145.5600
135.7349,145.5495
135.6903,145.5197
135.6605,145.4751
135.6500,145.4225
Z" /> 
<path style="fill:#000000; fill-opacity:1.0000; stroke:none;fill-rule:evenodd;"
d="M 135.6500,143.8775
135.6605,143.8249
135.6903,143.7803
135.7349,143.7505
135.7875,143.7400
137.5125,143.7400
137.5651,143.7505
137.6097,143.7803
137.6395,143.8249
137.6500,143.8775
137.6500,144.1525
137.6395,144.2051
137.6097,144.2497
137.5651,144.2795
137.5125,144.2900
135.7875,144.2900
135.7349,144.2795
135.6903,144.2497
135.6605,144.2051
135.6500,144.1525
Z" /> 
<path style="fill:#000000; fill-opacity:1.0000; stroke:none;fill-rule:evenodd;"
d="M 124.7250,144.2500
124.7079,144.3361
124.6591,144.4091
124.5861,144.4579
124.5000,144.4750
124.0500,144.4750
123.9639,144.4579
123.8909,144.4091
123.8421,144.3361
123.8250,144.2500
123.8250,143.7500
123.8421,143.6639
123.8909,143.5909
123.9639,143.5421
124.0500,143.5250
124.5000,143.5250
124.5861,143.5421
124.6591,143.5909
124.7079,143.6639
124.7250,143.7500
Z" /> 
<path style="fill:#000000; fill-opacity:1.0000; stroke:none;fill-rule:evenodd;"
d="M 123.1750,144.2500
123.1579,144.3361
123.1091,144.4091
123.0361,144.4579
122.9500,144.4750
122.5000,144.4750
122.4139,144.4579
122.3409,144.4091
122.2921,144.3361
122.2750,144.2500
122.2750,143.7500
122.2921,143.6639
122.3409,143.5909
122.4139,143.5421
122.5000,143.5250
122.9500,143.5250
123.0361,143.5421
123.1091,143.5909
123.1579,143.6639
123.1750,143.7500
Z" /> 
<path style="fill:#000000; fill-opacity:1.0000; stroke:none;fill-rule:evenodd;"
d="M 145.7500,149.9400
145.6543,149.9210
145.5732,149.8668
145.5190,149.7857
145.5000,149.6900
145.5000,148.3900
145.5190,148.2943
145.5732,148.2132
145.6543,148.1590
145.7500,148.1400
147.2500,148.1400
147.3457,148.1590
147.4268,148.2132
147.4810,148.2943
147.5000,148.3900
147.5000,149.6900
147.4810,149.7857
147.4268,149.8668
147.3457,149.9210
147.2500,149.9400
Z" /> 
<path style="fill:#000000; fill-opacity:1.0000; stroke:none;fill-rule:evenodd;"
d="M 145.7500,144.8600
145.6543,144.8410
145.5732,144.7868
145.5190,144.7057
145.5000,144.6100
145.5000,143.3100
145.5190,143.2143
145.5732,143.1332
145.6543,143.0790
145.7500,143.0600
147.2500,143.0600
147.3457,143.0790
147.4268,143.1332
147.4810,143.2143
147.5000,143.3100
147.5000,144.6100
147.4810,144.7057
147.4268,144.7868
147.3457,144.8410
147.2500,144.8600
Z" /> 
<path style="fill:#000000; fill-opacity:1.0000; stroke:none;fill-rule:evenodd;"
d="M 141.7500,144.8600
141.6543,144.8410
141.5732,144.7868
141.5190,144.7057
141.5000,144.6100
141.5000,143.3100
141.5190,143.2143
141.5732,143.1332
141.6543,143.0790
141.7500,143.0600
143.2500,143.0600
143.3457,143.0790
143.4268,143.1332
143.4810,143.2143
143.5000,143.3100
143.5000,144.6100
143.4810,144.7057
143.4268,144.7868
143.3457,144.8410
143.2500,144.8600
Z" /> 
<path style="fill:#000000; fill-opacity:1.0000; stroke:none;fill-rule:evenodd;"
d="M 141.7500,149.9400
141.6543,149.9210
141.5732,149.8668
141.5190,149.7857
141.5000,149.6900
141.5000,148.3900
141.5190,148.2943
141.5732,148.2132
141.6543,148.1590
141.7500,148.1400
143.2500,148.1400
143.3457,148.1590
143.4268,148.2132
143.4810,148.2943
143.5000,148.3900
143.5000,149.6900
143.4810,149.7857
143.4268,149.8668
143.3457,149.9210
143.2500,149.9400
Z" /> 
<path style="fill:#000000; fill-opacity:1.0000; stroke:none;fill-rule:evenodd;"
d="M 119.0000,139.8000
118.9426,139.7886
118.8939,139.7561
118.8614,139.7074
118.8500,139.6500
118.8500,138.3500
118.8614,138.2926
118.8939,138.2439
118.9426,138.2114
119.0000,138.2000
119.3000,138.2000
119.3574,138.2114
119.4061,138.2439
119.4386,138.2926
119.4500,138.3500
119.4500,139.6500
119.4386,139.7074
119.4061,139.7561
119.3574,139.7886
119.3000,139.8000
Z" /> 
<path style="fill:#000000; fill-opacity:1.0000; stroke:none;fill-rule:evenodd;"
d="M 120.2700,139.8000
120.2126,139.7886
120.1639,139.7561
120.1314,139.7074
120.1200,139.6500
120.1200,138.3500
120.1314,138.2926
120.1639,138.2439
120.2126,138.2114
120.2700,138.2000
120.5700,138.2000
120.6274,138.2114
120.6761,138.2439
120.7086,138.2926
120.7200,138.3500
120.7200,139.6500
120.7086,139.7074
120.6761,139.7561
120.6274,139.7886
120.5700,139.8000
Z" /> 
<path style="fill:#000000; fill-opacity:1.0000; stroke:none;fill-rule:evenodd;"
d="M 121.5400,139.8000
121.4826,139.7886
121.4339,139.7561
121.4014,139.7074
121.3900,139.6500
121.3900,138.3500
121.4014,138.2926
121.4339,138.2439
121.4826,138.2114
121.5400,138.2000
121.8400,138.2000
121.8974,138.2114
121.9461,138.2439
121.9786,138.2926
121.9900,138.3500
121.9900,139.6500
121.9786,139.7074
121.9461,139.7561
121.8974,139.7886
121.8400,139.8000
Z" /> 
<path style="fill:#000000; fill-opacity:1.0000; stroke:none;fill-rule:evenodd;"
d="M 122.8100,139.8000
122.7526,139.7886
122.7039,139.7561
122.6714,139.7074
122.6600,139.6500
122.6600,138.3500
122.6714,138.2926
122.7039,138.2439
122.7526,138.2114
122.8100,138.2000
123.1100,138.2000
123.1674,138.2114
123.2161,138.2439
123.2486,138.2926
123.2600,138.3500
123.2600,139.6500
123.2486,139.7074
123.2161,139.7561
123.1674,139.7886
123.1100,139.8000
Z" /> 
<path style="fill:#000000; fill-opacity:1.0000; stroke:none;fill-rule:evenodd;"
d="M 124.0800,139.8000
124.0226,139.7886
123.9739,139.7561
123.9414,139.7074
123.9300,139.6500
123.9300,138.3500
123.9414,138.2926
123.9739,138.2439
124.0226,138.2114
124.0800,138.2000
124.3800,138.2000
124.4374,138.2114
124.4861,138.2439
124.5186,138.2926
124.5300,138.3500
124.5300,139.6500
124.5186,139.7074
124.4861,139.7561
124.4374,139.7886
124.3800,139.8000
Z" /> 
<path style="fill:#000000; fill-opacity:1.0000; stroke:none;fill-rule:evenodd;"
d="M 125.3500,139.8000
125.2926,139.7886
125.2439,139.7561
125.2114,139.7074
125.2000,139.6500
125.2000,138.3500
125.2114,138.2926
125.2439,138.2439
125.2926,138.2114
125.3500,138.2000
125.6500,138.2000
125.7074,138.2114
125.7561,138.2439
125.7886,138.2926
125.8000,138.3500
125.8000,139.6500
125.7886,139.7074
125.7561,139.7561
125.7074,139.7886
125.6500,139.8000
Z" /> 
<path style="fill:#000000; fill-opacity:1.0000; stroke:none;fill-rule:evenodd;"
d="M 126.6200,139.8000
126.5626,139.7886
126.5139,139.7561
126.4814,139.7074
126.4700,139.6500
126.4700,138.3500
126.4814,138.2926
126.5139,138.2439
126.5626,138.2114
126.6200,138.2000
126.9200,138.2000
126.9774,138.2114
127.0261,138.2439
127.0586,138.2926
127.0700,138.3500
127.0700,139.6500
127.0586,139.7074
127.0261,139.7561
126.9774,139.7886
126.9200,139.8000
Z" /> 
<path style="fill:#000000; fill-opacity:1.0000; stroke:none;fill-rule:evenodd;"
d="M 127.8900,139.8000
127.8326,139.7886
127.7839,139.7561
127.7514,139.7074
127.7400,139.6500
127.7400,138.3500
127.7514,138.2926
127.7839,138.2439
127.8326,138.2114
127.8900,138.2000
128.1900,138.2000
128.2474,138.2114
128.2961,138.2439
128.3286,138.2926
128.3400,138.3500
128.3400,139.6500
128.3286,139.7074
128.2961,139.7561
128.2474,139.7886
128.1900,139.8000
Z" /> 
<path style="fill:#000000; fill-opacity:1.0000; stroke:none;fill-rule:evenodd;"
d="M 127.8900,133.3000
127.8326,133.2886
127.7839,133.2561
127.7514,133.2074
127.7400,133.1500
127.7400,131.8500
127.7514,131.7926
127.7839,131.7439
127.8326,131.7114
127.8900,131.7000
128.1900,131.7000
128.2474,131.7114
128.2961,131.7439
128.3286,131.7926
128.3400,131.8500
128.3400,133.1500
128.3286,133.2074
128.2961,133.2561
128.2474,133.2886
128.1900,133.3000
Z" /> 
<path style="fill:#000000; fill-opacity:1.0000; stroke:none;fill-rule:evenodd;"
d="M 126.6200,133.3000
126.5626,133.2886
126.5139,133.2561
126.4814,133.2074
126.4700,133.1500
126.4700,131.8500
126.4814,131.7926
126.5139,131.7439
126.5626,131.7114
126.6200,131.7000
126.9200,131.7000
126.9774,131.7114
127.0261,131.7439
127.0586,131.7926
127.0700,131.8500
127.0700,133.1500
127.0586,133.2074
127.0261,133.2561
126.9774,133.2886
126.9200,133.3000
Z" /> 
<path style="fill:#000000; fill-opacity:1.0000; stroke:none;fill-rule:evenodd;"
d="M 125.3500,133.3000
125.2926,133.2886
125.2439,133.2561
125.2114,133.2074
125.2000,133.1500
125.2000,131.8500
125.2114,131.7926
125.2439,131.7439
125.2926,131.7114
125.3500,131.7000
125.6500,131.7000
125.7074,131.7114
125.7561,131.7439
125.7886,131.7926
125.8000,131.8500
125.8000,133.1500
125.7886,133.2074
125.7561,133.2561
125.7074,133.2886
125.6500,133.3000
Z" /> 
<path style="fill:#000000; fill-opacity:1.0000; stroke:none;fill-rule:evenodd;"
d="M 124.0800,133.3000
124.0226,133.2886
123.9739,133.2561
123.9414,133.2074
123.9300,133.1500
123.9300,131.8500
123.9414,131.7926
123.9739,131.7439
124.0226,131.7114
124.0800,131.7000
124.3800,131.7000
124.4374,131.7114
124.4861,131.7439
124.5186,131.7926
124.5300,131.8500
124.5300,133.1500
124.5186,133.2074
124.4861,133.2561
124.4374,133.2886
124.3800,133.3000
Z" /> 
<path style="fill:#000000; fill-opacity:1.0000; stroke:none;fill-rule:evenodd;"
d="M 122.8100,133.3000
122.7526,133.2886
122.7039,133.2561
122.6714,133.2074
122.6600,133.1500
122.6600,131.8500
122.6714,131.7926
122.7039,131.7439
122.7526,131.7114
122.8100,131.7000
123.1100,131.7000
123.1674,131.7114
123.2161,131.7439
123.2486,131.7926
123.2600,131.8500
123.2600,133.1500
123.2486,133.2074
123.2161,133.2561
123.1674,133.2886
123.1100,133.3000
Z" /> 
<path style="fill:#000000; fill-opacity:1.0000; stroke:none;fill-rule:evenodd;"
d="M 121.5400,133.3000
121.4826,133.2886
121.4339,133.2561
121.4014,133.2074
121.3900,133.1500
121.3900,131.8500
121.4014,131.7926
121.4339,131.7439
121.4826,131.7114
121.5400,131.7000
121.8400,131.7000
121.8974,131.7114
121.9461,131.7439
121.9786,131.7926
121.9900,131.8500
121.9900,133.1500
121.9786,133.2074
121.9461,133.2561
121.8974,133.2886
121.8400,133.3000
Z" /> 
<path style="fill:#000000; fill-opacity:1.0000; stroke:none;fill-rule:evenodd;"
d="M 120.2700,133.3000
120.2126,133.2886
120.1639,133.2561
120.1314,133.2074
120.1200,133.1500
120.1200,131.8500
120.1314,131.7926
120.1639,131.7439
120.2126,131.7114
120.2700,131.7000
120.5700,131.7000
120.6274,131.7114
120.6761,131.7439
120.7086,131.7926
120.7200,131.8500
120.7200,133.1500
120.7086,133.2074
120.6761,133.2561
120.6274,133.2886
120.5700,133.3000
Z" /> 
<path style="fill:#000000; fill-opacity:1.0000; stroke:none;fill-rule:evenodd;"
d="M 119.0000,133.3000
118.9426,133.2886
118.8939,133.2561
118.8614,133.2074
118.8500,133.1500
118.8500,131.8500
118.8614,131.7926
118.8939,131.7439
118.9426,131.7114
119.0000,131.7000
119.3000,131.7000
119.3574,131.7114
119.4061,131.7439
119.4386,131.7926
119.4500,131.8500
119.4500,133.1500
119.4386,133.2074
119.4061,133.2561
119.3574,133.2886
119.3000,133.3000
Z" /> 
<path style="fill:#000000; fill-opacity:1.0000; stroke:none;fill-rule:evenodd;"
d="M 71.7750,153.7250
71.7902,153.6485
71.8336,153.5836
71.8985,153.5402
71.9750,153.5250
72.3750,153.5250
72.4515,153.5402
72.5164,153.5836
72.5598,153.6485
72.5750,153.7250
72.5750,154.2750
72.5598,154.3515
72.5164,154.4164
72.4515,154.4598
72.3750,154.4750
71.9750,154.4750
71.8985,154.4598
71.8336,154.4164
71.7902,154.3515
71.7750,154.2750
Z" /> 
<path style="fill:#000000; fill-opacity:1.0000; stroke:none;fill-rule:evenodd;"
d="M 73.4250,153.7250
73.4402,153.6485
73.4836,153.5836
73.5485,153.5402
73.6250,153.5250
74.0250,153.5250
74.1015,153.5402
74.1664,153.5836
74.2098,153.6485
74.2250,153.7250
74.2250,154.2750
74.2098,154.3515
74.1664,154.4164
74.1015,154.4598
74.0250,154.4750
73.6250,154.4750
73.5485,154.4598
73.4836,154.4164
73.4402,154.3515
73.4250,154.2750
Z" /> 
<path style="fill:#000000; fill-opacity:1.0000; stroke:none;fill-rule:evenodd;"
d="M 125.8750,117.7500
125.8921,117.6639
125.9409,117.5909
126.0139,117.5421
126.1000,117.5250
126.5500,117.5250
126.6361,117.5421
126.7091,117.5909
126.7579,117.6639
126.7750,117.7500
126.7750,118.2500
126.7579,118.3361
126.7091,118.4091
126.6361,118.4579
126.5500,118.4750
126.1000,118.4750
126.0139,118.4579
125.9409,118.4091
125.8921,118.3361
125.8750,118.2500
Z" /> 
<path style="fill:#000000; fill-opacity:1.0000; stroke:none;fill-rule:evenodd;"
d="M 127.4250,117.7500
127.4421,117.6639
127.4909,117.5909
127.5639,117.5421
127.6500,117.5250
128.1000,117.5250
128.1861,117.5421
128.2591,117.5909
128.3079,117.6639
128.3250,117.7500
128.3250,118.2500
128.3079,118.3361
128.2591,118.4091
128.1861,118.4579
128.1000,118.4750
127.6500,118.4750
127.5639,118.4579
127.4909,118.4091
127.4421,118.3361
127.4250,118.2500
Z" /> 
<path style="fill:#000000; fill-opacity:1.0000; stroke:none;fill-rule:evenodd;"
d="M 71.7750,151.2250
71.7902,151.1485
71.8336,151.0836
71.8985,151.0402
71.9750,151.0250
72.3750,151.0250
72.4515,151.0402
72.5164,151.0836
72.5598,151.1485
72.5750,151.2250
72.5750,151.7750
72.5598,151.8515
72.5164,151.9164
72.4515,151.9598
72.3750,151.9750
71.9750,151.9750
71.8985,151.9598
71.8336,151.9164
71.7902,151.8515
71.7750,151.7750
Z" /> 
<path style="fill:#000000; fill-opacity:1.0000; stroke:none;fill-rule:evenodd;"
d="M 73.4250,151.2250
73.4402,151.1485
73.4836,151.0836
73.5485,151.0402
73.6250,151.0250
74.0250,151.0250
74.1015,151.0402
74.1664,151.0836
74.2098,151.1485
74.2250,151.2250
74.2250,151.7750
74.2098,151.8515
74.1664,151.9164
74.1015,151.9598
74.0250,151.9750
73.6250,151.9750
73.5485,151.9598
73.4836,151.9164
73.4402,151.8515
73.4250,151.7750
Z" /> 
<path style="fill:#000000; fill-opacity:1.0000; stroke:none;fill-rule:evenodd;"
d="M 142.1750,120.3200
142.1902,120.2435
142.2336,120.1786
142.2985,120.1352
142.3750,120.1200
142.7750,120.1200
142.8515,120.1352
142.9164,120.1786
142.9598,120.2435
142.9750,120.3200
142.9750,120.8700
142.9598,120.9465
142.9164,121.0114
142.8515,121.0548
142.7750,121.0700
142.3750,121.0700
142.2985,121.0548
142.2336,121.0114
142.1902,120.9465
142.1750,120.8700
Z" /> 
<path style="fill:#000000; fill-opacity:1.0000; stroke:none;fill-rule:evenodd;"
d="M 143.8250,120.3200
143.8402,120.2435
143.8836,120.1786
143.9485,120.1352
144.0250,120.1200
144.4250,120.1200
144.5015,120.1352
144.5664,120.1786
144.6098,120.2435
144.6250,120.3200
144.6250,120.8700
144.6098,120.9465
144.5664,121.0114
144.5015,121.0548
144.4250,121.0700
144.0250,121.0700
143.9485,121.0548
143.8836,121.0114
143.8402,120.9465
143.8250,120.8700
Z" /> 
<path style="fill:#000000; fill-opacity:1.0000; stroke:none;fill-rule:evenodd;"
d="M 125.6250,129.9250
125.5485,129.9098
125.4836,129.8664
125.4402,129.8015
125.4250,129.7250
125.4250,129.3250
125.4402,129.2485
125.4836,129.1836
125.5485,129.1402
125.6250,129.1250
126.1750,129.1250
126.2515,129.1402
126.3164,129.1836
126.3598,129.2485
126.3750,129.3250
126.3750,129.7250
126.3598,129.8015
126.3164,129.8664
126.2515,129.9098
126.1750,129.9250
Z" /> 
<path style="fill:#000000; fill-opacity:1.0000; stroke:none;fill-rule:evenodd;"
d="M 125.6250,128.2750
125.5485,128.2598
125.4836,128.2164
125.4402,128.1515
125.4250,128.0750
125.4250,127.6750
125.4402,127.5985
125.4836,127.5336
125.5485,127.4902
125.6250,127.4750
126.1750,127.4750
126.2515,127.4902
126.3164,127.5336
126.3598,127.5985
126.3750,127.6750
126.3750,128.0750
126.3598,128.1515
126.3164,128.2164
126.2515,128.2598
126.1750,128.2750
Z" /> 
<path style="fill:#000000; fill-opacity:1.0000; stroke:none;fill-rule:evenodd;"
d="M 142.1750,130.3200
142.1902,130.2435
142.2336,130.1786
142.2985,130.1352
142.3750,130.1200
142.7750,130.1200
142.8515,130.1352
142.9164,130.1786
142.9598,130.2435
142.9750,130.3200
142.9750,130.8700
142.9598,130.9465
142.9164,131.0114
142.8515,131.0548
142.7750,131.0700
142.3750,131.0700
142.2985,131.0548
142.2336,131.0114
142.1902,130.9465
142.1750,130.8700
Z" /> 
<path style="fill:#000000; fill-opacity:1.0000; stroke:none;fill-rule:evenodd;"
d="M 143.8250,130.3200
143.8402,130.2435
143.8836,130.1786
143.9485,130.1352
144.0250,130.1200
144.4250,130.1200
144.5015,130.1352
144.5664,130.1786
144.6098,130.2435
144.6250,130.3200
144.6250,130.8700
144.6098,130.9465
144.5664,131.0114
144.5015,131.0548
144.4250,131.0700
144.0250,131.0700
143.9485,131.0548
143.8836,131.0114
143.8402,130.9465
143.8250,130.8700
Z" /> 
<path style="fill:#000000; fill-opacity:1.0000; stroke:none;fill-rule:evenodd;"
d="M 71.7750,146.2250
71.7902,146.1485
71.8336,146.0836
71.8985,146.0402
71.9750,146.0250
72.3750,146.0250
72.4515,146.0402
72.5164,146.0836
72.5598,146.1485
72.5750,146.2250
72.5750,146.7750
72.5598,146.8515
72.5164,146.9164
72.4515,146.9598
72.3750,146.9750
71.9750,146.9750
71.8985,146.9598
71.8336,146.9164
71.7902,146.8515
71.7750,146.7750
Z" /> 
<path style="fill:#000000; fill-opacity:1.0000; stroke:none;fill-rule:evenodd;"
d="M 73.4250,146.2250
73.4402,146.1485
73.4836,146.0836
73.5485,146.0402
73.6250,146.0250
74.0250,146.0250
74.1015,146.0402
74.1664,146.0836
74.2098,146.1485
74.2250,146.2250
74.2250,146.7750
74.2098,146.8515
74.1664,146.9164
74.1015,146.9598
74.0250,146.9750
73.6250,146.9750
73.5485,146.9598
73.4836,146.9164
73.4402,146.8515
73.4250,146.7750
Z" /> 
<path style="fill:#000000; fill-opacity:1.0000; stroke:none;fill-rule:evenodd;"
d="M 71.7750,141.2250
71.7902,141.1485
71.8336,141.0836
71.8985,141.0402
71.9750,141.0250
72.3750,141.0250
72.4515,141.0402
72.5164,141.0836
72.5598,141.1485
72.5750,141.2250
72.5750,141.7750
72.5598,141.8515
72.5164,141.9164
72.4515,141.9598
72.3750,141.9750
71.9750,141.9750
71.8985,141.9598
71.8336,141.9164
71.7902,141.8515
71.7750,141.7750
Z" /> 
<path style="fill:#000000; fill-opacity:1.0000; stroke:none;fill-rule:evenodd;"
d="M 73.4250,141.2250
73.4402,141.1485
73.4836,141.0836
73.5485,141.0402
73.6250,141.0250
74.0250,141.0250
74.1015,141.0402
74.1664,141.0836
74.2098,141.1485
74.2250,141.2250
74.2250,141.7750
74.2098,141.8515
74.1664,141.9164
74.1015,141.9598
74.0250,141.9750
73.6250,141.9750
73.5485,141.9598
73.4836,141.9164
73.4402,141.8515
73.4250,141.7750
Z" /> 
<path style="fill:#000000; fill-opacity:1.0000; stroke:none;fill-rule:evenodd;"
d="M 122.0000,117.7500
122.0171,117.6639
122.0659,117.5909
122.1389,117.5421
122.2250,117.5250
122.6750,117.5250
122.7611,117.5421
122.8341,117.5909
122.8829,117.6639
122.9000,117.7500
122.9000,118.2500
122.8829,118.3361
122.8341,118.4091
122.7611,118.4579
122.6750,118.4750
122.2250,118.4750
122.1389,118.4579
122.0659,118.4091
122.0171,118.3361
122.0000,118.2500
Z" /> 
<path style="fill:#000000; fill-opacity:1.0000; stroke:none;fill-rule:evenodd;"
d="M 123.5500,117.7500
123.5671,117.6639
123.6159,117.5909
123.6889,117.5421
123.7750,117.5250
124.2250,117.5250
124.3111,117.5421
124.3841,117.5909
124.4329,117.6639
124.4500,117.7500
124.4500,118.2500
124.4329,118.3361
124.3841,118.4091
124.3111,118.4579
124.2250,118.4750
123.7750,118.4750
123.6889,118.4579
123.6159,118.4091
123.5671,118.3361
123.5500,118.2500
Z" /> 
<path style="fill:#000000; fill-opacity:1.0000; stroke:none;fill-rule:evenodd;"
d="M 71.7750,143.7250
71.7902,143.6485
71.8336,143.5836
71.8985,143.5402
71.9750,143.5250
72.3750,143.5250
72.4515,143.5402
72.5164,143.5836
72.5598,143.6485
72.5750,143.7250
72.5750,144.2750
72.5598,144.3515
72.5164,144.4164
72.4515,144.4598
72.3750,144.4750
71.9750,144.4750
71.8985,144.4598
71.8336,144.4164
71.7902,144.3515
71.7750,144.2750
Z" /> 
<path style="fill:#000000; fill-opacity:1.0000; stroke:none;fill-rule:evenodd;"
d="M 73.4250,143.7250
73.4402,143.6485
73.4836,143.5836
73.5485,143.5402
73.6250,143.5250
74.0250,143.5250
74.1015,143.5402
74.1664,143.5836
74.2098,143.6485
74.2250,143.7250
74.2250,144.2750
74.2098,144.3515
74.1664,144.4164
74.1015,144.4598
74.0250,144.4750
73.6250,144.4750
73.5485,144.4598
73.4836,144.4164
73.4402,144.3515
73.4250,144.2750
Z" /> 
<path style="fill:#000000; fill-opacity:1.0000; stroke:none;fill-rule:evenodd;"
d="M 119.5400,126.4870
119.4826,126.4756
119.4339,126.4431
119.4014,126.3944
119.3900,126.3370
119.3900,124.6870
119.4014,124.6296
119.4339,124.5810
119.4826,124.5484
119.5400,124.5370
119.8400,124.5370
119.8974,124.5484
119.9461,124.5810
119.9786,124.6296
119.9900,124.6870
119.9900,126.3370
119.9786,126.3944
119.9461,126.4431
119.8974,126.4756
119.8400,126.4870
Z" /> 
<path style="fill:#000000; fill-opacity:1.0000; stroke:none;fill-rule:evenodd;"
d="M 120.8100,126.4870
120.7526,126.4756
120.7039,126.4431
120.6714,126.3944
120.6600,126.3370
120.6600,124.6870
120.6714,124.6296
120.7039,124.5810
120.7526,124.5484
120.8100,124.5370
121.1100,124.5370
121.1674,124.5484
121.2161,124.5810
121.2486,124.6296
121.2600,124.6870
121.2600,126.3370
121.2486,126.3944
121.2161,126.4431
121.1674,126.4756
121.1100,126.4870
Z" /> 
<path style="fill:#000000; fill-opacity:1.0000; stroke:none;fill-rule:evenodd;"
d="M 122.0800,126.4870
122.0226,126.4756
121.9739,126.4431
121.9414,126.3944
121.9300,126.3370
121.9300,124.6870
121.9414,124.6296
121.9739,124.5810
122.0226,124.5484
122.0800,124.5370
122.3800,124.5370
122.4374,124.5484
122.4861,124.5810
122.5186,124.6296
122.5300,124.6870
122.5300,126.3370
122.5186,126.3944
122.4861,126.4431
122.4374,126.4756
122.3800,126.4870
Z" /> 
<path style="fill:#000000; fill-opacity:1.0000; stroke:none;fill-rule:evenodd;"
d="M 123.3500,126.4870
123.2926,126.4756
123.2439,126.4431
123.2114,126.3944
123.2000,126.3370
123.2000,124.6870
123.2114,124.6296
123.2439,124.5810
123.2926,124.5484
123.3500,124.5370
123.6500,124.5370
123.7074,124.5484
123.7561,124.5810
123.7886,124.6296
123.8000,124.6870
123.8000,126.3370
123.7886,126.3944
123.7561,126.4431
123.7074,126.4756
123.6500,126.4870
Z" /> 
<path style="fill:#000000; fill-opacity:1.0000; stroke:none;fill-rule:evenodd;"
d="M 124.6200,126.4870
124.5626,126.4756
124.5139,126.4431
124.4814,126.3944
124.4700,126.3370
124.4700,124.6870
124.4814,124.6296
124.5139,124.5810
124.5626,124.5484
124.6200,124.5370
124.9200,124.5370
124.9774,124.5484
125.0261,124.5810
125.0586,124.6296
125.0700,124.6870
125.0700,126.3370
125.0586,126.3944
125.0261,126.4431
124.9774,126.4756
124.9200,126.4870
Z" /> 
<path style="fill:#000000; fill-opacity:1.0000; stroke:none;fill-rule:evenodd;"
d="M 125.8900,126.4870
125.8326,126.4756
125.7839,126.4431
125.7514,126.3944
125.7400,126.3370
125.7400,124.6870
125.7514,124.6296
125.7839,124.5810
125.8326,124.5484
125.8900,124.5370
126.1900,124.5370
126.2474,124.5484
126.2961,124.5810
126.3286,124.6296
126.3400,124.6870
126.3400,126.3370
126.3286,126.3944
126.2961,126.4431
126.2474,126.4756
126.1900,126.4870
Z" /> 
<path style="fill:#000000; fill-opacity:1.0000; stroke:none;fill-rule:evenodd;"
d="M 127.1600,126.4870
127.1026,126.4756
127.0539,126.4431
127.0214,126.3944
127.0100,126.3370
127.0100,124.6870
127.0214,124.6296
127.0539,124.5810
127.1026,124.5484
127.1600,124.5370
127.4600,124.5370
127.5174,124.5484
127.5661,124.5810
127.5986,124.6296
127.6100,124.6870
127.6100,126.3370
127.5986,126.3944
127.5661,126.4431
127.5174,126.4756
127.4600,126.4870
Z" /> 
<path style="fill:#000000; fill-opacity:1.0000; stroke:none;fill-rule:evenodd;"
d="M 127.1600,121.5370
127.1026,121.5256
127.0539,121.4931
127.0214,121.4444
127.0100,121.3870
127.0100,119.7370
127.0214,119.6796
127.0539,119.6310
127.1026,119.5984
127.1600,119.5870
127.4600,119.5870
127.5174,119.5984
127.5661,119.6310
127.5986,119.6796
127.6100,119.7370
127.6100,121.3870
127.5986,121.4444
127.5661,121.4931
127.5174,121.5256
127.4600,121.5370
Z" /> 
<path style="fill:#000000; fill-opacity:1.0000; stroke:none;fill-rule:evenodd;"
d="M 125.8900,121.5370
125.8326,121.5256
125.7839,121.4931
125.7514,121.4444
125.7400,121.3870
125.7400,119.7370
125.7514,119.6796
125.7839,119.6310
125.8326,119.5984
125.8900,119.5870
126.1900,119.5870
126.2474,119.5984
126.2961,119.6310
126.3286,119.6796
126.3400,119.7370
126.3400,121.3870
126.3286,121.4444
126.2961,121.4931
126.2474,121.5256
126.1900,121.5370
Z" /> 
<path style="fill:#000000; fill-opacity:1.0000; stroke:none;fill-rule:evenodd;"
d="M 124.6200,121.5370
124.5626,121.5256
124.5139,121.4931
124.4814,121.4444
124.4700,121.3870
124.4700,119.7370
124.4814,119.6796
124.5139,119.6310
124.5626,119.5984
124.6200,119.5870
124.9200,119.5870
124.9774,119.5984
125.0261,119.6310
125.0586,119.6796
125.0700,119.7370
125.0700,121.3870
125.0586,121.4444
125.0261,121.4931
124.9774,121.5256
124.9200,121.5370
Z" /> 
<path style="fill:#000000; fill-opacity:1.0000; stroke:none;fill-rule:evenodd;"
d="M 123.3500,121.5370
123.2926,121.5256
123.2439,121.4931
123.2114,121.4444
123.2000,121.3870
123.2000,119.7370
123.2114,119.6796
123.2439,119.6310
123.2926,119.5984
123.3500,119.5870
123.6500,119.5870
123.7074,119.5984
123.7561,119.6310
123.7886,119.6796
123.8000,119.7370
123.8000,121.3870
123.7886,121.4444
123.7561,121.4931
123.7074,121.5256
123.6500,121.5370
Z" /> 
<path style="fill:#000000; fill-opacity:1.0000; stroke:none;fill-rule:evenodd;"
d="M 122.0800,121.5370
122.0226,121.5256
121.9739,121.4931
121.9414,121.4444
121.9300,121.3870
121.9300,119.7370
121.9414,119.6796
121.9739,119.6310
122.0226,119.5984
122.0800,119.5870
122.3800,119.5870
122.4374,119.5984
122.4861,119.6310
122.5186,119.6796
122.5300,119.7370
122.5300,121.3870
122.5186,121.4444
122.4861,121.4931
122.4374,121.5256
122.3800,121.5370
Z" /> 
<path style="fill:#000000; fill-opacity:1.0000; stroke:none;fill-rule:evenodd;"
d="M 120.8100,121.5370
120.7526,121.5256
120.7039,121.4931
120.6714,121.4444
120.6600,121.3870
120.6600,119.7370
120.6714,119.6796
120.7039,119.6310
120.7526,119.5984
120.8100,119.5870
121.1100,119.5870
121.1674,119.5984
121.2161,119.6310
121.2486,119.6796
121.2600,119.7370
121.2600,121.3870
121.2486,121.4444
121.2161,121.4931
121.1674,121.5256
121.1100,121.5370
Z" /> 
<path style="fill:#000000; fill-opacity:1.0000; stroke:none;fill-rule:evenodd;"
d="M 119.5400,121.5370
119.4826,121.5256
119.4339,121.4931
119.4014,121.4444
119.3900,121.3870
119.3900,119.7370
119.4014,119.6796
119.4339,119.6310
119.4826,119.5984
119.5400,119.5870
119.8400,119.5870
119.8974,119.5984
119.9461,119.6310
119.9786,119.6796
119.9900,119.7370
119.9900,121.3870
119.9786,121.4444
119.9461,121.4931
119.8974,121.5256
119.8400,121.5370
Z" /> 
<path style="fill:#000000; fill-opacity:1.0000; stroke:none;fill-rule:evenodd;"
d="M 131.4500,130.0450
131.4690,129.9493
131.5232,129.8682
131.6043,129.8140
131.7000,129.7950
134.7000,129.7950
134.7957,129.8140
134.8768,129.8682
134.9310,129.9493
134.9500,130.0450
134.9500,131.1450
134.9310,131.2407
134.8768,131.3218
134.7957,131.3760
134.7000,131.3950
131.7000,131.3950
131.6043,131.3760
131.5232,131.3218
131.4690,131.2407
131.4500,131.1450
Z" /> 
<path style="fill:#000000; fill-opacity:1.0000; stroke:none;fill-rule:evenodd;"
d="M 136.8500,130.0450
136.8690,129.9493
136.9232,129.8682
137.0043,129.8140
137.1000,129.7950
140.1000,129.7950
140.1957,129.8140
140.2768,129.8682
140.3310,129.9493
140.3500,130.0450
140.3500,131.1450
140.3310,131.2407
140.2768,131.3218
140.1957,131.3760
140.1000,131.3950
137.1000,131.3950
137.0043,131.3760
136.9232,131.3218
136.8690,131.2407
136.8500,131.1450
Z" /> 
<path style="fill:#000000; fill-opacity:1.0000; stroke:none;fill-rule:evenodd;"
d="M 71.7750,148.7250
71.7902,148.6485
71.8336,148.5836
71.8985,148.5402
71.9750,148.5250
72.3750,148.5250
72.4515,148.5402
72.5164,148.5836
72.5598,148.6485
72.5750,148.7250
72.5750,149.2750
72.5598,149.3515
72.5164,149.4164
72.4515,149.4598
72.3750,149.4750
71.9750,149.4750
71.8985,149.4598
71.8336,149.4164
71.7902,149.3515
71.7750,149.2750
Z" /> 
<path style="fill:#000000; fill-opacity:1.0000; stroke:none;fill-rule:evenodd;"
d="M 73.4250,148.7250
73.4402,148.6485
73.4836,148.5836
73.5485,148.5402
73.6250,148.5250
74.0250,148.5250
74.1015,148.5402
74.1664,148.5836
74.2098,148.6485
74.2250,148.7250
74.2250,149.2750
74.2098,149.3515
74.1664,149.4164
74.1015,149.4598
74.0250,149.4750
73.6250,149.4750
73.5485,149.4598
73.4836,149.4164
73.4402,149.3515
73.4250,149.2750
Z" /> 
<path style="fill:#000000; fill-opacity:1.0000; stroke:none;fill-rule:evenodd;"
d="M 106.9500,156.5500
106.9310,156.6457
106.8768,156.7268
106.7957,156.7810
106.7000,156.8000
103.7000,156.8000
103.6043,156.7810
103.5232,156.7268
103.4690,156.6457
103.4500,156.5500
103.4500,155.4500
103.4690,155.3543
103.5232,155.2732
103.6043,155.2190
103.7000,155.2000
106.7000,155.2000
106.7957,155.2190
106.8768,155.2732
106.9310,155.3543
106.9500,155.4500
Z" /> 
<path style="fill:#000000; fill-opacity:1.0000; stroke:none;fill-rule:evenodd;"
d="M 101.5500,156.5500
101.5310,156.6457
101.4768,156.7268
101.3957,156.7810
101.3000,156.8000
98.3000,156.8000
98.2043,156.7810
98.1232,156.7268
98.0690,156.6457
98.0500,156.5500
98.0500,155.4500
98.0690,155.3543
98.1232,155.2732
98.2043,155.2190
98.3000,155.2000
101.3000,155.2000
101.3957,155.2190
101.4768,155.2732
101.5310,155.3543
101.5500,155.4500
Z" /> 
<path style="fill:#000000; fill-opacity:1.0000; stroke:none;fill-rule:evenodd;"
d="M 106.9500,146.0500
106.9310,146.1457
106.8768,146.2268
106.7957,146.2810
106.7000,146.3000
103.7000,146.3000
103.6043,146.2810
103.5232,146.2268
103.4690,146.1457
103.4500,146.0500
103.4500,144.9500
103.4690,144.8543
103.5232,144.7732
103.6043,144.7190
103.7000,144.7000
106.7000,144.7000
106.7957,144.7190
106.8768,144.7732
106.9310,144.8543
106.9500,144.9500
Z" /> 
<path style="fill:#000000; fill-opacity:1.0000; stroke:none;fill-rule:evenodd;"
d="M 101.5500,146.0500
101.5310,146.1457
101.4768,146.2268
101.3957,146.2810
101.3000,146.3000
98.3000,146.3000
98.2043,146.2810
98.1232,146.2268
98.0690,146.1457
98.0500,146.0500
98.0500,144.9500
98.0690,144.8543
98.1232,144.7732
98.2043,144.7190
98.3000,144.7000
101.3000,144.7000
101.3957,144.7190
101.4768,144.7732
101.5310,144.8543
101.5500,144.9500
Z" /> 
<path style="fill:#000000; fill-opacity:1.0000; stroke:none;fill-rule:evenodd;"
d="M 131.4500,120.0450
131.4690,119.9493
131.5232,119.8682
131.6043,119.8140
131.7000,119.7950
134.7000,119.7950
134.7957,119.8140
134.8768,119.8682
134.9310,119.9493
134.9500,120.0450
134.9500,121.1450
134.9310,121.2407
134.8768,121.3218
134.7957,121.3760
134.7000,121.3950
131.7000,121.3950
131.6043,121.3760
131.5232,121.3218
131.4690,121.2407
131.4500,121.1450
Z" /> 
<path style="fill:#000000; fill-opacity:1.0000; stroke:none;fill-rule:evenodd;"
d="M 136.8500,120.0450
136.8690,119.9493
136.9232,119.8682
137.0043,119.8140
137.1000,119.7950
140.1000,119.7950
140.1957,119.8140
140.2768,119.8682
140.3310,119.9493
140.3500,120.0450
140.3500,121.1450
140.3310,121.2407
140.2768,121.3218
140.1957,121.3760
140.1000,121.3950
137.1000,121.3950
137.0043,121.3760
136.9232,121.3218
136.8690,121.2407
136.8500,121.1450
Z" /> 
<path style="fill:#000000; fill-opacity:1.0000; stroke:none;fill-rule:evenodd;"
d="M 149.1390,148.7760
149.1561,148.6899
149.2049,148.6169
149.2779,148.5681
149.3640,148.5510
149.8140,148.5510
149.9001,148.5681
149.9731,148.6169
150.0219,148.6899
150.0390,148.7760
150.0390,149.2760
150.0219,149.3621
149.9731,149.4351
149.9001,149.4839
149.8140,149.5010
149.3640,149.5010
149.2779,149.4839
149.2049,149.4351
149.1561,149.3621
149.1390,149.2760
Z" /> 
<path style="fill:#000000; fill-opacity:1.0000; stroke:none;fill-rule:evenodd;"
d="M 150.6890,148.7760
150.7061,148.6899
150.7549,148.6169
150.8279,148.5681
150.9140,148.5510
151.3640,148.5510
151.4501,148.5681
151.5231,148.6169
151.5719,148.6899
151.5890,148.7760
151.5890,149.2760
151.5719,149.3621
151.5231,149.4351
151.4501,149.4839
151.3640,149.5010
150.9140,149.5010
150.8279,149.4839
150.7549,149.4351
150.7061,149.3621
150.6890,149.2760
Z" /> 
<path style="fill:#000000; fill-opacity:1.0000; stroke:none;fill-rule:evenodd;"
d="M 142.1750,124.3200
142.1902,124.2435
142.2336,124.1786
142.2985,124.1352
142.3750,124.1200
142.7750,124.1200
142.8515,124.1352
142.9164,124.1786
142.9598,124.2435
142.9750,124.3200
142.9750,124.8700
142.9598,124.9465
142.9164,125.0114
142.8515,125.0548
142.7750,125.0700
142.3750,125.0700
142.2985,125.0548
142.2336,125.0114
142.1902,124.9465
142.1750,124.8700
Z" /> 
<path style="fill:#000000; fill-opacity:1.0000; stroke:none;fill-rule:evenodd;"
d="M 143.8250,124.3200
143.8402,124.2435
143.8836,124.1786
143.9485,124.1352
144.0250,124.1200
144.4250,124.1200
144.5015,124.1352
144.5664,124.1786
144.6098,124.2435
144.6250,124.3200
144.6250,124.8700
144.6098,124.9465
144.5664,125.0114
144.5015,125.0548
144.4250,125.0700
144.0250,125.0700
143.9485,125.0548
143.8836,125.0114
143.8402,124.9465
143.8250,124.8700
Z" /> 
<path style="fill:#000000; fill-opacity:1.0000; stroke:none;fill-rule:evenodd;"
d="M 142.1750,134.5150
142.1902,134.4385
142.2336,134.3736
142.2985,134.3302
142.3750,134.3150
142.7750,134.3150
142.8515,134.3302
142.9164,134.3736
142.9598,134.4385
142.9750,134.5150
142.9750,135.0650
142.9598,135.1415
142.9164,135.2064
142.8515,135.2498
142.7750,135.2650
142.3750,135.2650
142.2985,135.2498
142.2336,135.2064
142.1902,135.1415
142.1750,135.0650
Z" /> 
<path style="fill:#000000; fill-opacity:1.0000; stroke:none;fill-rule:evenodd;"
d="M 143.8250,134.5150
143.8402,134.4385
143.8836,134.3736
143.9485,134.3302
144.0250,134.3150
144.4250,134.3150
144.5015,134.3302
144.5664,134.3736
144.6098,134.4385
144.6250,134.5150
144.6250,135.0650
144.6098,135.1415
144.5664,135.2064
144.5015,135.2498
144.4250,135.2650
144.0250,135.2650
143.9485,135.2498
143.8836,135.2064
143.8402,135.1415
143.8250,135.0650
Z" /> 
</g> 
</svg>
