<?xml version="1.0" standalone="no"?>
 <!DOCTYPE svg PUBLIC "-//W3C//DTD SVG 1.1//EN" 
 "http://www.w3.org/Graphics/SVG/1.1/DTD/svg11.dtd"> 
<svg
  xmlns:svg="http://www.w3.org/2000/svg"
  xmlns="http://www.w3.org/2000/svg"
  xmlns:xlink="http://www.w3.org/1999/xlink"
  version="1.1"
  width="297.0022mm" height="210.0072mm" viewBox="0.0000 0.0000 297.0022 210.0072">
<title>SVG Image created as rcbus-opl3-Edge_Cuts4.svg date 2025/10/09 19:14:30 </title>
  <desc>Image generated by PCBNEW </desc>
<g style="fill:#000000; fill-opacity:1.0000;stroke:#000000; stroke-opacity:1.0000;
stroke-linecap:round; stroke-linejoin:round;"
 transform="translate(0 0) scale(1 1)">
</g>
<g style="fill:none; 
stroke:#000000; stroke-width:0.1500; stroke-opacity:1; 
stroke-linecap:round; stroke-linejoin:round;">
<path d="M157.8690 123.1820
L157.8690 128.0080
" />
<path d="M160.0000 122.0390
L160.0000 120.5000
" />
<path d="M154.5000 115.0000
L75.0000 115.0000
" />
<path d="M160.0000 120.5000 A5.5000 5.5000 0.0 0 0 154.5000 115.0000" />
<path d="M160.0000 122.0390
L159.0120 122.0390
" />
<path d="M160.0000 129.1510
L159.0120 129.1510
" />
<path d="M60.0000 130.0000
L75.0000 115.0000
" />
<path d="M60.0000 130.0000
L60.0000 165.0000
" />
<path d="M157.8690 128.0080 A1.1430 1.1430 0.0 0 0 159.0120 129.1510" />
<path d="M160.0000 165.0000
L160.0000 129.1510
" />
<path d="M60.0000 165.0000
L160.0000 165.0000
" />
<path d="M159.0120 122.0390 A1.1430 1.1430 0.0 0 0 157.8690 123.1820" />
</g> 
</svg>
