<?xml version="1.0" standalone="no"?>
 <!DOCTYPE svg PUBLIC "-//W3C//DTD SVG 1.1//EN" 
 "http://www.w3.org/Graphics/SVG/1.1/DTD/svg11.dtd"> 
<svg
  xmlns:svg="http://www.w3.org/2000/svg"
  xmlns="http://www.w3.org/2000/svg"
  xmlns:xlink="http://www.w3.org/1999/xlink"
  version="1.1"
  width="297.0022mm" height="210.0072mm" viewBox="0.0000 0.0000 297.0022 210.0072">
<title>SVG Image created as rcbus-ymf262-Edge_Cuts3.svg date 2025/08/28 22:25:42 </title>
  <desc>Image generated by PCBNEW </desc>
<g style="fill:#000000; fill-opacity:1.0000;stroke:#000000; stroke-opacity:1.0000;
stroke-linecap:round; stroke-linejoin:round;"
 transform="translate(0 0) scale(1 1)">
</g>
<g style="fill:none; 
stroke:#000000; stroke-width:0.1500; stroke-opacity:1; 
stroke-linecap:round; stroke-linejoin:round;">
<path d="M138.6332 122.6820
L138.6332 127.5080
" />
<path d="M136.5022 121.5390
L136.5022 120.0000
" />
<path d="M142.0022 114.5000
L221.5022 114.5000
" />
<path d="M142.0022 114.5000 A5.5000 5.5000 0.0 0 0 136.5022 120.0000" />
<path d="M136.5022 121.5390
L137.4902 121.5390
" />
<path d="M136.5022 128.6510
L137.4902 128.6510
" />
<path d="M236.5022 129.5000
L221.5022 114.5000
" />
<path d="M236.5022 129.5000
L236.5022 164.5000
" />
<path d="M137.4902 128.6510 A1.1430 1.1430 0.0 0 0 138.6332 127.5080" />
<path d="M136.5022 164.5000
L136.5022 128.6510
" />
<path d="M236.5022 164.5000
L136.5022 164.5000
" />
<path d="M138.6332 122.6820 A1.1430 1.1430 0.0 0 0 137.4902 121.5390" />
</g> 
</svg>
