<?xml version='1.0' encoding='ASCII' standalone='yes'?>
<svg xmlns="http://www.w3.org/2000/svg" version="1.1" width="297.0022mm" height="210.0072mm" viewBox="0.0000 0.0000 297.0022 210.0072">
            <title>Picture generated by PcbDraw </title>
            <desc>Picture generated by PcbDraw</desc>
        <defs><clipPath id="cut-off"><path d=" M 158.369 127.508 A 1.143 1.143 0 0 0 159.512 128.651 L 160.5 128.651 L 160.5 164.5 L 60.5 164.5 L 60.5 129.5 L 75.5 114.5 L 155.0 114.5 A 5.5 5.5 0 0 1 160.5 120.0 L 160.5 121.539 L 159.512 121.539 A 1.143 1.143 0 0 0 158.369 122.682 L 158.369 127.508 " style="fill-rule: evenodd;"/></clipPath><mask id="pads-mask-silkscreen"><rect x="41.025716" y="106.69212" width="123.524284" height="69.974302" fill="white"/><g style="fill:#000000; fill-opacity:1.0000; stroke:none;">
<circle cx="156.5690" cy="130.0950" r="0.6000"/> 
</g>
<g style="fill:#000000; fill-opacity:1.0000; stroke:none;">
<circle cx="156.5690" cy="120.0950" r="0.6000"/> 
</g>
<g style="fill:#000000; fill-opacity:1.0000; stroke:none;">
<circle cx="154.0690" cy="130.0950" r="0.6000"/> 
</g>
<g style="fill:#000000; fill-opacity:1.0000; stroke:none;">
<circle cx="154.0690" cy="120.0950" r="0.6000"/> 
</g>
<g style="fill:#000000; fill-opacity:1.0000; stroke:none;">
<circle cx="149.0690" cy="125.0950" r="0.6000"/> 
<path style="fill:#000000; fill-opacity:1.0000; stroke:none;fill-rule:evenodd;" d="M 150.3190,129.1950 150.3190,130.9950 147.8190,130.9950 147.8190,129.1950 Z"/> 
<path style="fill:#000000; fill-opacity:1.0000; stroke:none;fill-rule:evenodd;" d="M 150.3190,126.6950 150.3190,128.4950 147.8190,128.4950 147.8190,126.6950 Z"/> 
<path style="fill:#000000; fill-opacity:1.0000; stroke:none;fill-rule:evenodd;" d="M 154.9690,123.8450 154.9690,126.3450 153.1690,126.3450 153.1690,123.8450 Z"/> 
<path style="fill:#000000; fill-opacity:1.0000; stroke:none;fill-rule:evenodd;" d="M 150.3190,119.1950 150.3190,120.9950 147.8190,120.9950 147.8190,119.1950 Z"/> 
<path style="fill:#000000; fill-opacity:1.0000; stroke:none;fill-rule:evenodd;" d="M 150.3190,121.6950 150.3190,123.4950 147.8190,123.4950 147.8190,121.6950 Z"/> 
<path style="fill:#000000; fill-opacity:1.0000; stroke:none;fill-rule:evenodd;" d="M 65.8500,155.3100 65.8500,157.0100 64.1500,157.0100 64.1500,155.3100 Z"/> 
</g>
<g style="fill:#000000; fill-opacity:1.0000; stroke:none;">
<circle cx="62.4600" cy="156.1600" r="0.8500"/> 
</g>
<g style="fill:#000000; fill-opacity:1.0000; stroke:none;">
<circle cx="65.0000" cy="153.6200" r="0.8500"/> 
</g>
<g style="fill:#000000; fill-opacity:1.0000; stroke:none;">
<circle cx="62.4600" cy="153.6200" r="0.8500"/> 
</g>
<g style="fill:#000000; fill-opacity:1.0000; stroke:none;">
<circle cx="65.0000" cy="151.0800" r="0.8500"/> 
</g>
<g style="fill:#000000; fill-opacity:1.0000; stroke:none;">
<circle cx="62.4600" cy="151.0800" r="0.8500"/> 
</g>
<g style="fill:#000000; fill-opacity:1.0000; stroke:none;">
<circle cx="65.0000" cy="148.5400" r="0.8500"/> 
</g>
<g style="fill:#000000; fill-opacity:1.0000; stroke:none;">
<circle cx="62.4600" cy="148.5400" r="0.8500"/> 
</g>
<g style="fill:#000000; fill-opacity:1.0000; stroke:none;">
<circle cx="65.0000" cy="146.0000" r="0.8500"/> 
</g>
<g style="fill:#000000; fill-opacity:1.0000; stroke:none;">
<circle cx="62.4600" cy="146.0000" r="0.8500"/> 
</g>
<g style="fill:#000000; fill-opacity:1.0000; stroke:none;">
<circle cx="65.0000" cy="143.4600" r="0.8500"/> 
</g>
<g style="fill:#000000; fill-opacity:1.0000; stroke:none;">
<circle cx="62.4600" cy="143.4600" r="0.8500"/> 
<path style="fill:#000000; fill-opacity:1.0000; stroke:none;fill-rule:evenodd;" d="M 86.0800,139.4400 86.0800,137.8400 87.6800,137.8400 87.6800,139.4400 Z"/> 
</g>
<g style="fill:#000000; fill-opacity:1.0000; stroke:none;">
<circle cx="94.5000" cy="138.6400" r="0.8000"/> 
</g>
<g style="fill:#000000; fill-opacity:1.0000; stroke:none;">
<circle cx="102.1200" cy="138.6400" r="0.8000"/> 
</g>
<g style="fill:#000000; fill-opacity:1.0000; stroke:none;">
<circle cx="102.1200" cy="131.0200" r="0.8000"/> 
</g>
<g style="fill:#000000; fill-opacity:1.0000; stroke:none;">
<circle cx="94.5000" cy="131.0200" r="0.8000"/> 
</g>
<g style="fill:#000000; fill-opacity:1.0000; stroke:none;">
<circle cx="86.8800" cy="131.0200" r="0.8000"/> 
</g>
<g style="fill:#000000; fill-opacity:1.0000; stroke:none;">
<circle cx="65.5320" cy="131.3820" r="1.6000"/> 
<path style="fill:#000000; fill-opacity:1.0000; stroke:none;fill-rule:evenodd;" d="M 62.8500,163.8500 61.1500,163.8500 61.1500,162.1500 62.8500,162.1500 Z"/> 
</g>
<g style="fill:#000000; fill-opacity:1.0000; stroke:none;">
<circle cx="64.5400" cy="163.0000" r="0.8500"/> 
<circle cx="67.0800" cy="163.0000" r="0.8500"/> 
<circle cx="69.6200" cy="163.0000" r="0.8500"/> 
<circle cx="72.1600" cy="163.0000" r="0.8500"/> 
<circle cx="74.7000" cy="163.0000" r="0.8500"/> 
<circle cx="77.2400" cy="163.0000" r="0.8500"/> 
<circle cx="79.7800" cy="163.0000" r="0.8500"/> 
<circle cx="82.3200" cy="163.0000" r="0.8500"/> 
<circle cx="84.8600" cy="163.0000" r="0.8500"/> 
<circle cx="87.4000" cy="163.0000" r="0.8500"/> 
<circle cx="89.9400" cy="163.0000" r="0.8500"/> 
<circle cx="92.4800" cy="163.0000" r="0.8500"/> 
<circle cx="95.0200" cy="163.0000" r="0.8500"/> 
<circle cx="97.5600" cy="163.0000" r="0.8500"/> 
<circle cx="100.1000" cy="163.0000" r="0.8500"/> 
<circle cx="102.6400" cy="163.0000" r="0.8500"/> 
<circle cx="105.1800" cy="163.0000" r="0.8500"/> 
<circle cx="107.7200" cy="163.0000" r="0.8500"/> 
<circle cx="110.2600" cy="163.0000" r="0.8500"/> 
<circle cx="112.8000" cy="163.0000" r="0.8500"/> 
<circle cx="115.3400" cy="163.0000" r="0.8500"/> 
<circle cx="117.8800" cy="163.0000" r="0.8500"/> 
<circle cx="120.4200" cy="163.0000" r="0.8500"/> 
<circle cx="122.9600" cy="163.0000" r="0.8500"/> 
<circle cx="125.5000" cy="163.0000" r="0.8500"/> 
<circle cx="128.0400" cy="163.0000" r="0.8500"/> 
<circle cx="130.5800" cy="163.0000" r="0.8500"/> 
<circle cx="133.1200" cy="163.0000" r="0.8500"/> 
<circle cx="135.6600" cy="163.0000" r="0.8500"/> 
<circle cx="138.2000" cy="163.0000" r="0.8500"/> 
<circle cx="140.7400" cy="163.0000" r="0.8500"/> 
<circle cx="143.2800" cy="163.0000" r="0.8500"/> 
<circle cx="145.8200" cy="163.0000" r="0.8500"/> 
<circle cx="148.3600" cy="163.0000" r="0.8500"/> 
<circle cx="150.9000" cy="163.0000" r="0.8500"/> 
<circle cx="153.4400" cy="163.0000" r="0.8500"/> 
<circle cx="155.9800" cy="163.0000" r="0.8500"/> 
<circle cx="158.5200" cy="163.0000" r="0.8500"/> 
</g> 
</mask></defs><g transform="scale(-1,1) translate(-297.0022,0)" id="boardContainer"><g id="substrate" clip-path="url(#cut-off)" mask="url(#pads-mask-silkscreen)"><g id="substrate-board" style="fill:#143324; fill-opacity:0.25098039215686274; stroke:#143324; stroke-width:0;"><path d=" M 158.369 127.508 A 1.143 1.143 0 0 0 159.512 128.651 L 160.5 128.651 L 160.5 164.5 L 60.5 164.5 L 60.5 129.5 L 75.5 114.5 L 155.0 114.5 A 5.5 5.5 0 0 1 160.5 120.0 L 160.5 121.539 L 159.512 121.539 A 1.143 1.143 0 0 0 158.369 122.682 L 158.369 127.508 " style="fill-rule: evenodd;"/><g style="fill: none;stroke: #4ca06c;stroke-width: 0.1500;stroke-opacity: 1;stroke-linecap: round;stroke-linejoin: round">
<path d="M158.3690 122.6820 L158.3690 127.5080 "/>
<path d="M160.5000 121.5390 L160.5000 120.0000 "/>
<path d="M155.0000 114.5000 L75.5000 114.5000 "/>
<path d="M160.5000 120.0000 A5.5000 5.5000 0.0 0 0 155.0000 114.5000"/>
<path d="M160.5000 121.5390 L159.5120 121.5390 "/>
<path d="M160.5000 128.6510 L159.5120 128.6510 "/>
<path d="M60.5000 129.5000 L75.5000 114.5000 "/>
<path d="M60.5000 129.5000 L60.5000 164.5000 "/>
<path d="M158.3690 127.5080 A1.1430 1.1430 0.0 0 0 159.5120 128.6510"/>
<path d="M160.5000 164.5000 L160.5000 128.6510 "/>
<path d="M60.5000 164.5000 L160.5000 164.5000 "/>
<path d="M159.5120 121.5390 A1.1430 1.1430 0.0 0 0 158.3690 122.6820"/>
</g> 
</g></g></g></svg>
