%TF.GenerationSoftware,KiCad,Pcbnew,9.0.1+1*%
%TF.CreationDate,2025-09-01T23:04:51+00:00*%
%TF.ProjectId,rcbus-ymf262,72636275-732d-4796-9d66-3236322e6b69,@version@*%
%TF.SameCoordinates,Original*%
%TF.FileFunction,Legend,Top*%
%TF.FilePolarity,Positive*%
%FSLAX46Y46*%
G04 Gerber Fmt 4.6, Leading zero omitted, Abs format (unit mm)*
G04 Created by KiCad (PCBNEW 9.0.1+1) date 2025-09-01 23:04:51*
%MOMM*%
%LPD*%
G01*
G04 APERTURE LIST*
%ADD10C,0.150000*%
%ADD11C,0.300000*%
%ADD12C,0.340000*%
%ADD13C,0.120000*%
%ADD14C,0.100000*%
%ADD15C,0.000000*%
G04 APERTURE END LIST*
D10*
X107750000Y-114750000D02*
X107750000Y-139750000D01*
X124750000Y-139750000D02*
X160250000Y-139750000D01*
X107750000Y-139750000D02*
X113250000Y-139750000D01*
D11*
G36*
X151598106Y-116714998D02*
G01*
X151645918Y-116725457D01*
X151734395Y-116754491D01*
X151734395Y-117321806D01*
X151648574Y-117364213D01*
X151595558Y-117379331D01*
X151533719Y-117384637D01*
X151465910Y-117377256D01*
X151416757Y-117357435D01*
X151379835Y-117321301D01*
X151352460Y-117258425D01*
X151338583Y-117179176D01*
X151332951Y-117054818D01*
X151339021Y-116922647D01*
X151353834Y-116840312D01*
X151372032Y-116793588D01*
X151394951Y-116760761D01*
X151422344Y-116738829D01*
X151474666Y-116718899D01*
X151547000Y-116711443D01*
X151598106Y-116714998D01*
G37*
G36*
X153365457Y-116729588D02*
G01*
X153406573Y-116736997D01*
X153441984Y-116752712D01*
X153470412Y-116779678D01*
X153490928Y-116817319D01*
X153507506Y-116877773D01*
X153516297Y-116949047D01*
X153519780Y-117054635D01*
X153516312Y-117159952D01*
X153507506Y-117232047D01*
X153490908Y-117293443D01*
X153470412Y-117331515D01*
X153441962Y-117358702D01*
X153406573Y-117374471D01*
X153365457Y-117381880D01*
X153312326Y-117384637D01*
X153259378Y-117381879D01*
X153218445Y-117374471D01*
X153183288Y-117358720D01*
X153154881Y-117331515D01*
X153134493Y-117293449D01*
X153118061Y-117232047D01*
X153109518Y-117159949D01*
X153106154Y-117054635D01*
X153109533Y-116949050D01*
X153118061Y-116877773D01*
X153134473Y-116817313D01*
X153154881Y-116779678D01*
X153183267Y-116752694D01*
X153218445Y-116736997D01*
X153259378Y-116729589D01*
X153312326Y-116726830D01*
X153365457Y-116729588D01*
G37*
G36*
X155113748Y-116729588D02*
G01*
X155154863Y-116736997D01*
X155190274Y-116752712D01*
X155218702Y-116779678D01*
X155239218Y-116817319D01*
X155255797Y-116877773D01*
X155264587Y-116949047D01*
X155268070Y-117054635D01*
X155264602Y-117159952D01*
X155255797Y-117232047D01*
X155239198Y-117293443D01*
X155218702Y-117331515D01*
X155190252Y-117358702D01*
X155154863Y-117374471D01*
X155113748Y-117381880D01*
X155060616Y-117384637D01*
X155007669Y-117381879D01*
X154966735Y-117374471D01*
X154931578Y-117358720D01*
X154903171Y-117331515D01*
X154882783Y-117293449D01*
X154866351Y-117232047D01*
X154857808Y-117159949D01*
X154854445Y-117054635D01*
X154857823Y-116949050D01*
X154866351Y-116877773D01*
X154882763Y-116817313D01*
X154903171Y-116779678D01*
X154931557Y-116752694D01*
X154966735Y-116736997D01*
X155007669Y-116729589D01*
X155060616Y-116726830D01*
X155113748Y-116729588D01*
G37*
G36*
X149177355Y-117017724D02*
G01*
X148795329Y-117017724D01*
X148986480Y-116335370D01*
X149177355Y-117017724D01*
G37*
G36*
X157843216Y-117801806D02*
G01*
X148138375Y-117801806D01*
X148138375Y-117622500D01*
X148305042Y-117622500D01*
X148625244Y-117622500D01*
X148722331Y-117297351D01*
X149251544Y-117297351D01*
X149350646Y-117622500D01*
X149673962Y-117622500D01*
X149570357Y-117293230D01*
X149803197Y-117293230D01*
X149813721Y-117398554D01*
X149842756Y-117480991D01*
X149888560Y-117545655D01*
X149933935Y-117583798D01*
X149987482Y-117611541D01*
X150050822Y-117628964D01*
X150126147Y-117635139D01*
X150233415Y-117625323D01*
X150334151Y-117596213D01*
X150428802Y-117553706D01*
X150509090Y-117507644D01*
X150563861Y-117622500D01*
X150820499Y-117622500D01*
X150820499Y-117070205D01*
X151021450Y-117070205D01*
X151027320Y-117206339D01*
X151043222Y-117314147D01*
X151066971Y-117398468D01*
X151104021Y-117476701D01*
X151149234Y-117535836D01*
X151202617Y-117579085D01*
X151264947Y-117609371D01*
X151338174Y-117628404D01*
X151424634Y-117635139D01*
X151481844Y-117631107D01*
X151538848Y-117618927D01*
X151594254Y-117599878D01*
X151646651Y-117575330D01*
X151695117Y-117545930D01*
X151734395Y-117515063D01*
X151784953Y-117622500D01*
X152045804Y-117622500D01*
X152278446Y-117622500D01*
X152589947Y-117622500D01*
X152589947Y-117056192D01*
X152794653Y-117056192D01*
X152802363Y-117213260D01*
X152822772Y-117331057D01*
X152846432Y-117402828D01*
X152876680Y-117461454D01*
X152913080Y-117508927D01*
X152957740Y-117548560D01*
X153010967Y-117580465D01*
X153074097Y-117604639D01*
X153178402Y-117625761D01*
X153312326Y-117633582D01*
X153449187Y-117626131D01*
X153553943Y-117606196D01*
X153617302Y-117582994D01*
X153670306Y-117552075D01*
X153714411Y-117513506D01*
X153750277Y-117467005D01*
X153780151Y-117408729D01*
X153803529Y-117336461D01*
X153823564Y-117217415D01*
X153831189Y-117056192D01*
X154542943Y-117056192D01*
X154550654Y-117213260D01*
X154571062Y-117331057D01*
X154594722Y-117402828D01*
X154624971Y-117461454D01*
X154661371Y-117508927D01*
X154706030Y-117548560D01*
X154759257Y-117580465D01*
X154822388Y-117604639D01*
X154926692Y-117625761D01*
X155060616Y-117633582D01*
X155197477Y-117626131D01*
X155302233Y-117606196D01*
X155365593Y-117582994D01*
X155418596Y-117552075D01*
X155462701Y-117513506D01*
X155498568Y-117467005D01*
X155528442Y-117408729D01*
X155551819Y-117336461D01*
X155559095Y-117293230D01*
X155780797Y-117293230D01*
X155791320Y-117398554D01*
X155820355Y-117480991D01*
X155866160Y-117545655D01*
X155911535Y-117583798D01*
X155965081Y-117611541D01*
X156028421Y-117628964D01*
X156103747Y-117635139D01*
X156211014Y-117625323D01*
X156311750Y-117596213D01*
X156406401Y-117553706D01*
X156486689Y-117507644D01*
X156541460Y-117622500D01*
X156798099Y-117622500D01*
X156798099Y-116544564D01*
X156936401Y-116544564D01*
X156936401Y-116744050D01*
X157112439Y-116744050D01*
X157102089Y-117221605D01*
X157104879Y-117321295D01*
X157116366Y-117399082D01*
X157134604Y-117459009D01*
X157163924Y-117512843D01*
X157202488Y-117554208D01*
X157251200Y-117584764D01*
X157306517Y-117604639D01*
X157375900Y-117617719D01*
X157462317Y-117622500D01*
X157665374Y-117622500D01*
X157665374Y-117392331D01*
X157523317Y-117378226D01*
X157480360Y-117367968D01*
X157443816Y-117342139D01*
X157430093Y-117322278D01*
X157419178Y-117294970D01*
X157410477Y-117220048D01*
X157410477Y-116744050D01*
X157676549Y-116744050D01*
X157676549Y-116495105D01*
X157410477Y-116495105D01*
X157410477Y-116179116D01*
X157164921Y-116179116D01*
X157123613Y-116495105D01*
X156936401Y-116544564D01*
X156798099Y-116544564D01*
X156798099Y-116495105D01*
X156486689Y-116495105D01*
X156486689Y-117278667D01*
X156435714Y-117311539D01*
X156376322Y-117337834D01*
X156314136Y-117354707D01*
X156256063Y-117360091D01*
X156186043Y-117351212D01*
X156136445Y-117327301D01*
X156113697Y-117301720D01*
X156098242Y-117261214D01*
X156092206Y-117199532D01*
X156092206Y-116495105D01*
X155780797Y-116495105D01*
X155780797Y-117293230D01*
X155559095Y-117293230D01*
X155571854Y-117217415D01*
X155579479Y-117056192D01*
X155571420Y-116893685D01*
X155550262Y-116774091D01*
X155525930Y-116701431D01*
X155495564Y-116643251D01*
X155459678Y-116597229D01*
X155415620Y-116559111D01*
X155362592Y-116528457D01*
X155299119Y-116505363D01*
X155194715Y-116485318D01*
X155060616Y-116477886D01*
X154927929Y-116484886D01*
X154823945Y-116503806D01*
X154760714Y-116525957D01*
X154707515Y-116556080D01*
X154662928Y-116594115D01*
X154626636Y-116640201D01*
X154596120Y-116698385D01*
X154571886Y-116770977D01*
X154550964Y-116890931D01*
X154543019Y-117054635D01*
X154542943Y-117056192D01*
X153831189Y-117056192D01*
X153823129Y-116893685D01*
X153801972Y-116774091D01*
X153777640Y-116701431D01*
X153747274Y-116643251D01*
X153711388Y-116597229D01*
X153667330Y-116559111D01*
X153614302Y-116528457D01*
X153550829Y-116505363D01*
X153446424Y-116485318D01*
X153312326Y-116477886D01*
X153179639Y-116484886D01*
X153075654Y-116503806D01*
X153012423Y-116525957D01*
X152959225Y-116556080D01*
X152914637Y-116594115D01*
X152878345Y-116640201D01*
X152847830Y-116698385D01*
X152823596Y-116770977D01*
X152802674Y-116890931D01*
X152794729Y-117054635D01*
X152794653Y-117056192D01*
X152589947Y-117056192D01*
X152589947Y-116495105D01*
X152278446Y-116495105D01*
X152278446Y-117622500D01*
X152045804Y-117622500D01*
X152045804Y-116081663D01*
X152272584Y-116081663D01*
X152272584Y-116287102D01*
X152277621Y-116310823D01*
X152291282Y-116324135D01*
X152316181Y-116329142D01*
X152555875Y-116329142D01*
X152578351Y-116324316D01*
X152591023Y-116311171D01*
X152595809Y-116287102D01*
X152595809Y-116081663D01*
X152585917Y-116049240D01*
X152573969Y-116039892D01*
X152555875Y-116036509D01*
X152316181Y-116036509D01*
X152291576Y-116041728D01*
X152277774Y-116055880D01*
X152272584Y-116081663D01*
X152045804Y-116081663D01*
X152045804Y-116020205D01*
X151734395Y-116020205D01*
X151734395Y-116530459D01*
X151599664Y-116493640D01*
X151523199Y-116481828D01*
X151445700Y-116477886D01*
X151339475Y-116485667D01*
X151256341Y-116506863D01*
X151191626Y-116539252D01*
X151137312Y-116586093D01*
X151093495Y-116648797D01*
X151060193Y-116730677D01*
X151039999Y-116818350D01*
X151026448Y-116929985D01*
X151021998Y-117054818D01*
X151021450Y-117070205D01*
X150820499Y-117070205D01*
X150820499Y-116495105D01*
X150509090Y-116495105D01*
X150509090Y-117278667D01*
X150458114Y-117311539D01*
X150398722Y-117337834D01*
X150336536Y-117354707D01*
X150278463Y-117360091D01*
X150208443Y-117351212D01*
X150158845Y-117327301D01*
X150136097Y-117301720D01*
X150120643Y-117261214D01*
X150114607Y-117199532D01*
X150114607Y-116495105D01*
X149803197Y-116495105D01*
X149803197Y-117293230D01*
X149570357Y-117293230D01*
X149184957Y-116068382D01*
X148794047Y-116068382D01*
X148495335Y-117017724D01*
X148305042Y-117622500D01*
X148138375Y-117622500D01*
X148138375Y-115853538D01*
X157843216Y-115853538D01*
X157843216Y-117801806D01*
G37*
D12*
G36*
X139268736Y-158824064D02*
G01*
X139350790Y-158840547D01*
X139426324Y-158870924D01*
X139492023Y-158917667D01*
X139545109Y-158980942D01*
X139587461Y-159068975D01*
X139612328Y-159172449D01*
X139621808Y-159315172D01*
X139616077Y-159419299D01*
X139600742Y-159498995D01*
X139575353Y-159569784D01*
X139545146Y-159622552D01*
X139507692Y-159666521D01*
X139466652Y-159699855D01*
X139376985Y-159747940D01*
X139665954Y-160372500D01*
X139349874Y-160372500D01*
X139098731Y-159797124D01*
X139041487Y-159796575D01*
X138975541Y-159795659D01*
X138908222Y-159794835D01*
X138847405Y-159793644D01*
X138847405Y-160372500D01*
X138535995Y-160372500D01*
X138535995Y-159548180D01*
X138847405Y-159548180D01*
X139124743Y-159548180D01*
X139165037Y-159545437D01*
X139199847Y-159537647D01*
X139231309Y-159523156D01*
X139258741Y-159500644D01*
X139280331Y-159470805D01*
X139297117Y-159429661D01*
X139306734Y-159381915D01*
X139310398Y-159316729D01*
X139306646Y-159253332D01*
X139296842Y-159207461D01*
X139279784Y-159168324D01*
X139258191Y-159141149D01*
X139230939Y-159121082D01*
X139199298Y-159107810D01*
X139124743Y-159098010D01*
X138847405Y-159098010D01*
X138847405Y-159548180D01*
X138535995Y-159548180D01*
X138535995Y-158818382D01*
X139178507Y-158818382D01*
X139268736Y-158824064D01*
G37*
G36*
X140440303Y-159237276D02*
G01*
X140549533Y-159261225D01*
X140611584Y-159289901D01*
X140659399Y-159328991D01*
X140695163Y-159379194D01*
X140718599Y-159437481D01*
X140734406Y-159515146D01*
X140740318Y-159617148D01*
X140734685Y-159691911D01*
X140719283Y-159750810D01*
X140695621Y-159797033D01*
X140662123Y-159836547D01*
X140620454Y-159867803D01*
X140569317Y-159891188D01*
X140483382Y-159911674D01*
X140376335Y-159919124D01*
X140091303Y-159919124D01*
X140101069Y-159999800D01*
X140118140Y-160055869D01*
X140149022Y-160099293D01*
X140199839Y-160129417D01*
X140266411Y-160145136D01*
X140374320Y-160151582D01*
X140703956Y-160151582D01*
X140703956Y-160334123D01*
X140523522Y-160367645D01*
X140421182Y-160379278D01*
X140291796Y-160383582D01*
X140167714Y-160377151D01*
X140069922Y-160359722D01*
X139993667Y-160333573D01*
X139926787Y-160292425D01*
X139873397Y-160234943D01*
X139832375Y-160158360D01*
X139806832Y-160073172D01*
X139789379Y-159959229D01*
X139782825Y-159809672D01*
X139785939Y-159733194D01*
X140088189Y-159733194D01*
X140344095Y-159733194D01*
X140401589Y-159726074D01*
X140436327Y-159708098D01*
X140457332Y-159676182D01*
X140465728Y-159618705D01*
X140460558Y-159560489D01*
X140447135Y-159520336D01*
X140423344Y-159489192D01*
X140388058Y-159468038D01*
X140343969Y-159456680D01*
X140280805Y-159452284D01*
X140214258Y-159458839D01*
X140167507Y-159476098D01*
X140132248Y-159507736D01*
X140106691Y-159561094D01*
X140093511Y-159628482D01*
X140088189Y-159733194D01*
X139785939Y-159733194D01*
X139789079Y-159656070D01*
X139805652Y-159540195D01*
X139829719Y-159454665D01*
X139868995Y-159377393D01*
X139920513Y-159319621D01*
X139985241Y-159278353D01*
X140059590Y-159252061D01*
X140156376Y-159234429D01*
X140280805Y-159227886D01*
X140440303Y-159237276D01*
G37*
G36*
X141207524Y-160372500D02*
G01*
X140829527Y-159245105D01*
X141150188Y-159245105D01*
X141392904Y-160084629D01*
X141644138Y-159245105D01*
X141961685Y-159245105D01*
X141566103Y-160372500D01*
X141207524Y-160372500D01*
G37*
G36*
X142144042Y-160375614D02*
G01*
X142119152Y-160370600D01*
X142105486Y-160357263D01*
X142100445Y-160333482D01*
X142100445Y-160118792D01*
X142105635Y-160093009D01*
X142119437Y-160078857D01*
X142144042Y-160073638D01*
X142323744Y-160073638D01*
X142349439Y-160078939D01*
X142363687Y-160093167D01*
X142368990Y-160118792D01*
X142368990Y-160333482D01*
X142365462Y-160354213D01*
X142356259Y-160366271D01*
X142323744Y-160375614D01*
X142144042Y-160375614D01*
G37*
G36*
X142144042Y-159543234D02*
G01*
X142119152Y-159538220D01*
X142105486Y-159524884D01*
X142100445Y-159501102D01*
X142100445Y-159286413D01*
X142105635Y-159260629D01*
X142119437Y-159246477D01*
X142144042Y-159241258D01*
X142323744Y-159241258D01*
X142349439Y-159246560D01*
X142363687Y-159260787D01*
X142368990Y-159286413D01*
X142368990Y-159501102D01*
X142365462Y-159521834D01*
X142356259Y-159533892D01*
X142323744Y-159543234D01*
X142144042Y-159543234D01*
G37*
G36*
X143954989Y-158811898D02*
G01*
X144027118Y-158828884D01*
X144087513Y-158855568D01*
X144141154Y-158893533D01*
X144184722Y-158940685D01*
X144219038Y-158998084D01*
X144242608Y-159061414D01*
X144257591Y-159135650D01*
X144262910Y-159222757D01*
X144262910Y-159980123D01*
X144255532Y-160077281D01*
X144234937Y-160157411D01*
X144202611Y-160223609D01*
X144158863Y-160278252D01*
X144103985Y-160322045D01*
X144038583Y-160354183D01*
X143960555Y-160374512D01*
X143867145Y-160381750D01*
X143542730Y-160381750D01*
X143457154Y-160376255D01*
X143383777Y-160360716D01*
X143320713Y-160336138D01*
X143263974Y-160300589D01*
X143217828Y-160255737D01*
X143181220Y-160200675D01*
X143155821Y-160138976D01*
X143139693Y-160066176D01*
X143133959Y-159980123D01*
X143133959Y-159253531D01*
X143445368Y-159253531D01*
X143445368Y-159932496D01*
X143451048Y-159989466D01*
X143466282Y-160031155D01*
X143489698Y-160061365D01*
X143521671Y-160083109D01*
X143563022Y-160097037D01*
X143616460Y-160102123D01*
X143784255Y-160102123D01*
X143839666Y-160096735D01*
X143880590Y-160082252D01*
X143910559Y-160059991D01*
X143932265Y-160029321D01*
X143946313Y-159988391D01*
X143951500Y-159934053D01*
X143951500Y-159253531D01*
X143945927Y-159193504D01*
X143931360Y-159151791D01*
X143909643Y-159123472D01*
X143862192Y-159095550D01*
X143796528Y-159085462D01*
X143605744Y-159085462D01*
X143555612Y-159090694D01*
X143516790Y-159105101D01*
X143486676Y-159127868D01*
X143464741Y-159158617D01*
X143450585Y-159199475D01*
X143445368Y-159253531D01*
X143133959Y-159253531D01*
X143133959Y-159222757D01*
X143139932Y-159132875D01*
X143156679Y-159057370D01*
X143182960Y-158993871D01*
X143220722Y-158936983D01*
X143267759Y-158890559D01*
X143325018Y-158853645D01*
X143388652Y-158827716D01*
X143461197Y-158811512D01*
X143544287Y-158805834D01*
X143868702Y-158805834D01*
X143954989Y-158811898D01*
G37*
G36*
X144534203Y-160375614D02*
G01*
X144509312Y-160370600D01*
X144495647Y-160357263D01*
X144490605Y-160333482D01*
X144490605Y-160118792D01*
X144495795Y-160093009D01*
X144509598Y-160078857D01*
X144534203Y-160073638D01*
X144713905Y-160073638D01*
X144739599Y-160078939D01*
X144753847Y-160093167D01*
X144759151Y-160118792D01*
X144759151Y-160333482D01*
X144755623Y-160354213D01*
X144746419Y-160366271D01*
X144713905Y-160375614D01*
X144534203Y-160375614D01*
G37*
G36*
X145804396Y-158811898D02*
G01*
X145876525Y-158828884D01*
X145936920Y-158855568D01*
X145990561Y-158893533D01*
X146034129Y-158940685D01*
X146068445Y-158998084D01*
X146092015Y-159061414D01*
X146106998Y-159135650D01*
X146112317Y-159222757D01*
X146112317Y-159980123D01*
X146104939Y-160077281D01*
X146084344Y-160157411D01*
X146052018Y-160223609D01*
X146008269Y-160278252D01*
X145953392Y-160322045D01*
X145887990Y-160354183D01*
X145809962Y-160374512D01*
X145716552Y-160381750D01*
X145392136Y-160381750D01*
X145306561Y-160376255D01*
X145233184Y-160360716D01*
X145170120Y-160336138D01*
X145113381Y-160300589D01*
X145067235Y-160255737D01*
X145030626Y-160200675D01*
X145005228Y-160138976D01*
X144989099Y-160066176D01*
X144983365Y-159980123D01*
X144983365Y-159253531D01*
X145294775Y-159253531D01*
X145294775Y-159932496D01*
X145300455Y-159989466D01*
X145315688Y-160031155D01*
X145339105Y-160061365D01*
X145371077Y-160083109D01*
X145412429Y-160097037D01*
X145465867Y-160102123D01*
X145633662Y-160102123D01*
X145689073Y-160096735D01*
X145729997Y-160082252D01*
X145759966Y-160059991D01*
X145781672Y-160029321D01*
X145795720Y-159988391D01*
X145800907Y-159934053D01*
X145800907Y-159253531D01*
X145795333Y-159193504D01*
X145780766Y-159151791D01*
X145759050Y-159123472D01*
X145711599Y-159095550D01*
X145645935Y-159085462D01*
X145455151Y-159085462D01*
X145405019Y-159090694D01*
X145366196Y-159105101D01*
X145336083Y-159127868D01*
X145314148Y-159158617D01*
X145299992Y-159199475D01*
X145294775Y-159253531D01*
X144983365Y-159253531D01*
X144983365Y-159222757D01*
X144989338Y-159132875D01*
X145006086Y-159057370D01*
X145032367Y-158993871D01*
X145070129Y-158936983D01*
X145117166Y-158890559D01*
X145174424Y-158853645D01*
X145238059Y-158827716D01*
X145310604Y-158811512D01*
X145393693Y-158805834D01*
X145718109Y-158805834D01*
X145804396Y-158811898D01*
G37*
G36*
X146383610Y-160375614D02*
G01*
X146358719Y-160370600D01*
X146345054Y-160357263D01*
X146340012Y-160333482D01*
X146340012Y-160118792D01*
X146345202Y-160093009D01*
X146359005Y-160078857D01*
X146383610Y-160073638D01*
X146563311Y-160073638D01*
X146589006Y-160078939D01*
X146603254Y-160093167D01*
X146608557Y-160118792D01*
X146608557Y-160333482D01*
X146605029Y-160354213D01*
X146595826Y-160366271D01*
X146563311Y-160375614D01*
X146383610Y-160375614D01*
G37*
G36*
X146911999Y-160372500D02*
G01*
X146911999Y-159102498D01*
X146635943Y-159136936D01*
X146635943Y-158937451D01*
X146945796Y-158804644D01*
X147223500Y-158804644D01*
X147223500Y-160372500D01*
X146911999Y-160372500D01*
G37*
G36*
X148467948Y-160383032D02*
G01*
X148371928Y-160376442D01*
X148293199Y-160357418D01*
X148228620Y-160327528D01*
X148171359Y-160285248D01*
X148122968Y-160232450D01*
X148082899Y-160167885D01*
X148039460Y-160057616D01*
X148009443Y-159918941D01*
X147993915Y-159769524D01*
X147988377Y-159595532D01*
X147994766Y-159413649D01*
X148012465Y-159261683D01*
X148033738Y-159165245D01*
X148062640Y-159082911D01*
X148098469Y-159012830D01*
X148145106Y-158950510D01*
X148202795Y-158899004D01*
X148272859Y-158857583D01*
X148349852Y-158829377D01*
X148445000Y-158810964D01*
X148562012Y-158804277D01*
X148757559Y-158812612D01*
X148926544Y-158836517D01*
X149086279Y-158872421D01*
X149086279Y-159113306D01*
X148968401Y-159099475D01*
X148805094Y-159088393D01*
X148618798Y-159083905D01*
X148530485Y-159090103D01*
X148464833Y-159106584D01*
X148416748Y-159131074D01*
X148377884Y-159167427D01*
X148346778Y-159219185D01*
X148324058Y-159290534D01*
X148306700Y-159412979D01*
X148299786Y-159596632D01*
X148303482Y-159741511D01*
X148313067Y-159845576D01*
X148332212Y-159936622D01*
X148357672Y-159997892D01*
X148394617Y-160045302D01*
X148440470Y-160075103D01*
X148495685Y-160091292D01*
X148567782Y-160097268D01*
X148653246Y-160093524D01*
X148732554Y-160082614D01*
X148859133Y-160052572D01*
X148859133Y-159749955D01*
X148580238Y-159749955D01*
X148580238Y-159505498D01*
X148685018Y-159495057D01*
X148812605Y-159487730D01*
X148939275Y-159484524D01*
X149060725Y-159485898D01*
X149158361Y-159490478D01*
X149158361Y-160372500D01*
X148925079Y-160372500D01*
X148881756Y-160267353D01*
X148814705Y-160301259D01*
X148710756Y-160342549D01*
X148596203Y-160372359D01*
X148467948Y-160383032D01*
G37*
G36*
X149448247Y-159079142D02*
G01*
X149423347Y-159074135D01*
X149409686Y-159060823D01*
X149404649Y-159037102D01*
X149404649Y-158831663D01*
X149409839Y-158805880D01*
X149423642Y-158791728D01*
X149448247Y-158786509D01*
X149687941Y-158786509D01*
X149706035Y-158789892D01*
X149717983Y-158799240D01*
X149727874Y-158831663D01*
X149727874Y-159037102D01*
X149723088Y-159061171D01*
X149710416Y-159074316D01*
X149687941Y-159079142D01*
X149448247Y-159079142D01*
G37*
G36*
X149410511Y-160372500D02*
G01*
X149410511Y-159245105D01*
X149722013Y-159245105D01*
X149722013Y-160372500D01*
X149410511Y-160372500D01*
G37*
G36*
X150389986Y-160372500D02*
G01*
X150303569Y-160367719D01*
X150234186Y-160354639D01*
X150178869Y-160334764D01*
X150130157Y-160304208D01*
X150091594Y-160262843D01*
X150062273Y-160209009D01*
X150044035Y-160149082D01*
X150032548Y-160071295D01*
X150029758Y-159971605D01*
X150040108Y-159494050D01*
X149864070Y-159494050D01*
X149864070Y-159294564D01*
X150051282Y-159245105D01*
X150092590Y-158929116D01*
X150338146Y-158929116D01*
X150338146Y-159245105D01*
X150604218Y-159245105D01*
X150604218Y-159494050D01*
X150338146Y-159494050D01*
X150338146Y-159970048D01*
X150346847Y-160044970D01*
X150357763Y-160072278D01*
X150371485Y-160092139D01*
X150408030Y-160117968D01*
X150450986Y-160128226D01*
X150593044Y-160142331D01*
X150593044Y-160372500D01*
X150389986Y-160372500D01*
G37*
G36*
X150813686Y-160375614D02*
G01*
X150788796Y-160370600D01*
X150775130Y-160357263D01*
X150770089Y-160333482D01*
X150770089Y-160118792D01*
X150775279Y-160093009D01*
X150789081Y-160078857D01*
X150813686Y-160073638D01*
X150993388Y-160073638D01*
X151019083Y-160078939D01*
X151033331Y-160093167D01*
X151038634Y-160118792D01*
X151038634Y-160333482D01*
X151035106Y-160354213D01*
X151025903Y-160366271D01*
X150993388Y-160375614D01*
X150813686Y-160375614D01*
G37*
G36*
X150813686Y-159543234D02*
G01*
X150788796Y-159538220D01*
X150775130Y-159524884D01*
X150770089Y-159501102D01*
X150770089Y-159286413D01*
X150775279Y-159260629D01*
X150789081Y-159246477D01*
X150813686Y-159241258D01*
X150993388Y-159241258D01*
X151019083Y-159246560D01*
X151033331Y-159260787D01*
X151038634Y-159286413D01*
X151038634Y-159501102D01*
X151035106Y-159521834D01*
X151025903Y-159533892D01*
X150993388Y-159543234D01*
X150813686Y-159543234D01*
G37*
G36*
X151396755Y-160372500D02*
G01*
X151857183Y-159129883D01*
X151197087Y-159129883D01*
X151197087Y-158818382D01*
X152177203Y-158818382D01*
X152258444Y-158951189D01*
X151744252Y-160372500D01*
X151396755Y-160372500D01*
G37*
G36*
X152984578Y-160385139D02*
G01*
X152819016Y-160382159D01*
X152665017Y-160373507D01*
X152516554Y-160358943D01*
X152389786Y-160340259D01*
X152389786Y-160091681D01*
X152866792Y-160091681D01*
X152948322Y-160088174D01*
X153007384Y-160079042D01*
X153057163Y-160060730D01*
X153089083Y-160034803D01*
X153108265Y-159998618D01*
X153115462Y-159945319D01*
X153115462Y-159880564D01*
X153108137Y-159828899D01*
X153088076Y-159791721D01*
X153056614Y-159763553D01*
X153014803Y-159743544D01*
X152967221Y-159731811D01*
X152911397Y-159726233D01*
X152528638Y-159710021D01*
X152528638Y-159471793D01*
X152897658Y-159451460D01*
X152987090Y-159438738D01*
X153045211Y-159416472D01*
X153073438Y-159392852D01*
X153090689Y-159360276D01*
X153096960Y-159315630D01*
X153096960Y-159262874D01*
X153090255Y-159210808D01*
X153071642Y-159171096D01*
X153041364Y-159140691D01*
X153001920Y-159120521D01*
X152942509Y-159106306D01*
X152856076Y-159100758D01*
X152423216Y-159100758D01*
X152423216Y-158852179D01*
X152684342Y-158818199D01*
X152827265Y-158807441D01*
X152980823Y-158805834D01*
X153070790Y-158812033D01*
X153147071Y-158827548D01*
X153211724Y-158851263D01*
X153270598Y-158885596D01*
X153318223Y-158928322D01*
X153355888Y-158980040D01*
X153382544Y-159038597D01*
X153399377Y-159107582D01*
X153405347Y-159189143D01*
X153405347Y-159304914D01*
X153401522Y-159363388D01*
X153390784Y-159412717D01*
X153372984Y-159457638D01*
X153349660Y-159495423D01*
X153320631Y-159527971D01*
X153287378Y-159554408D01*
X153250433Y-159575299D01*
X153210350Y-159590861D01*
X153252926Y-159606818D01*
X153293515Y-159631436D01*
X153330042Y-159663014D01*
X153362574Y-159701595D01*
X153389178Y-159745926D01*
X153410385Y-159799323D01*
X153423479Y-159857332D01*
X153428062Y-159923612D01*
X153428062Y-160003662D01*
X153419952Y-160095338D01*
X153397153Y-160171302D01*
X153360842Y-160234611D01*
X153310642Y-160287411D01*
X153249962Y-160328209D01*
X153177073Y-160358674D01*
X153089589Y-160378163D01*
X152984578Y-160385139D01*
G37*
G36*
X153955718Y-159323324D02*
G01*
X154024953Y-159289601D01*
X154107026Y-159257561D01*
X154191543Y-159235005D01*
X154268502Y-159227886D01*
X154363531Y-159235386D01*
X154439856Y-159256103D01*
X154501143Y-159288336D01*
X154552522Y-159334279D01*
X154595127Y-159396543D01*
X154628729Y-159478662D01*
X154649467Y-159566280D01*
X154663416Y-159678504D01*
X154668571Y-159820205D01*
X154663398Y-159946517D01*
X154649143Y-160050467D01*
X154627447Y-160135370D01*
X154593547Y-160215070D01*
X154551381Y-160276648D01*
X154501143Y-160323132D01*
X154441527Y-160356605D01*
X154370027Y-160377650D01*
X154283797Y-160385139D01*
X154211840Y-160380757D01*
X154151082Y-160368469D01*
X154094678Y-160348822D01*
X154045386Y-160324414D01*
X153955718Y-160265063D01*
X153905160Y-160372500D01*
X153644217Y-160372500D01*
X153644217Y-159541219D01*
X153955718Y-159541219D01*
X153955718Y-160076386D01*
X154046851Y-160114304D01*
X154100966Y-160127027D01*
X154167110Y-160131615D01*
X154220040Y-160124226D01*
X154265204Y-160102672D01*
X154301485Y-160065654D01*
X154332340Y-160002472D01*
X154350080Y-159924116D01*
X154357162Y-159804818D01*
X154349311Y-159668962D01*
X154330692Y-159590312D01*
X154298075Y-159530796D01*
X154260808Y-159499911D01*
X154215888Y-159483817D01*
X154167110Y-159478387D01*
X154106611Y-159483350D01*
X154050973Y-159497896D01*
X153955718Y-159541219D01*
X153644217Y-159541219D01*
X153644217Y-158770205D01*
X153955718Y-158770205D01*
X153955718Y-159323324D01*
G37*
G36*
X155311907Y-160385139D02*
G01*
X155211849Y-160378137D01*
X155122405Y-160357937D01*
X155041244Y-160321421D01*
X154972013Y-160266712D01*
X154934405Y-160221003D01*
X154901517Y-160163424D01*
X154873735Y-160091864D01*
X154848491Y-159973621D01*
X154838931Y-159813886D01*
X154847824Y-159648753D01*
X154871171Y-159527572D01*
X154897331Y-159453948D01*
X154928697Y-159394998D01*
X154964777Y-159348420D01*
X155008632Y-159309209D01*
X155058857Y-159278399D01*
X155116360Y-159255730D01*
X155210178Y-159235599D01*
X155321066Y-159228435D01*
X155421621Y-159231393D01*
X155516796Y-159240068D01*
X155611725Y-159255441D01*
X155713809Y-159279452D01*
X155713809Y-159458970D01*
X155417878Y-159458970D01*
X155326351Y-159466904D01*
X155262081Y-159487638D01*
X155227554Y-159511112D01*
X155199231Y-159545253D01*
X155176902Y-159592418D01*
X155158091Y-159676991D01*
X155150432Y-159811504D01*
X155158162Y-159944615D01*
X155176993Y-160026652D01*
X155199360Y-160071632D01*
X155227754Y-160103613D01*
X155262539Y-160124929D01*
X155327055Y-160143001D01*
X155420900Y-160150025D01*
X155729104Y-160150025D01*
X155729104Y-160326429D01*
X155608204Y-160356288D01*
X155461750Y-160377629D01*
X155311907Y-160385139D01*
G37*
G36*
X156525160Y-159237276D02*
G01*
X156634390Y-159261225D01*
X156696441Y-159289901D01*
X156744256Y-159328991D01*
X156780020Y-159379194D01*
X156803456Y-159437481D01*
X156819263Y-159515146D01*
X156825175Y-159617148D01*
X156819542Y-159691911D01*
X156804140Y-159750810D01*
X156780478Y-159797033D01*
X156746980Y-159836547D01*
X156705311Y-159867803D01*
X156654174Y-159891188D01*
X156568239Y-159911674D01*
X156461192Y-159919124D01*
X156176160Y-159919124D01*
X156185926Y-159999800D01*
X156202996Y-160055869D01*
X156233878Y-160099293D01*
X156284696Y-160129417D01*
X156351268Y-160145136D01*
X156459177Y-160151582D01*
X156788813Y-160151582D01*
X156788813Y-160334123D01*
X156608379Y-160367645D01*
X156506039Y-160379278D01*
X156376653Y-160383582D01*
X156252571Y-160377151D01*
X156154779Y-160359722D01*
X156078524Y-160333573D01*
X156011644Y-160292425D01*
X155958254Y-160234943D01*
X155917232Y-160158360D01*
X155891689Y-160073172D01*
X155874236Y-159959229D01*
X155867682Y-159809672D01*
X155870796Y-159733194D01*
X156173046Y-159733194D01*
X156428952Y-159733194D01*
X156486446Y-159726074D01*
X156521184Y-159708098D01*
X156542189Y-159676182D01*
X156550585Y-159618705D01*
X156545415Y-159560489D01*
X156531992Y-159520336D01*
X156508201Y-159489192D01*
X156472915Y-159468038D01*
X156428826Y-159456680D01*
X156365662Y-159452284D01*
X156299115Y-159458839D01*
X156252364Y-159476098D01*
X156217105Y-159507736D01*
X156191548Y-159561094D01*
X156178368Y-159628482D01*
X156173046Y-159733194D01*
X155870796Y-159733194D01*
X155873936Y-159656070D01*
X155890509Y-159540195D01*
X155914576Y-159454665D01*
X155953851Y-159377393D01*
X156005370Y-159319621D01*
X156070098Y-159278353D01*
X156144447Y-159252061D01*
X156241233Y-159234429D01*
X156365662Y-159227886D01*
X156525160Y-159237276D01*
G37*
G36*
X157568161Y-160383948D02*
G01*
X157299433Y-160373415D01*
X157033269Y-160349877D01*
X157033269Y-160104321D01*
X157580892Y-160104321D01*
X157652246Y-160097246D01*
X157700236Y-160078950D01*
X157737369Y-160049128D01*
X157761235Y-160012363D01*
X157774802Y-159970390D01*
X157779279Y-159927550D01*
X157779279Y-159820663D01*
X157769232Y-159752135D01*
X157741818Y-159703793D01*
X157713851Y-159681534D01*
X157674071Y-159666901D01*
X157618353Y-159661386D01*
X157497178Y-159661386D01*
X157434100Y-159669247D01*
X157393039Y-159689688D01*
X157364797Y-159723863D01*
X157348160Y-159775601D01*
X157053236Y-159775601D01*
X157097383Y-158818382D01*
X158031246Y-158818382D01*
X158031246Y-159098010D01*
X157364646Y-159098010D01*
X157347427Y-159466847D01*
X157383811Y-159437985D01*
X157434896Y-159415281D01*
X157492781Y-159401878D01*
X157560284Y-159397146D01*
X157729453Y-159397146D01*
X157809454Y-159403066D01*
X157875775Y-159419613D01*
X157930862Y-159445598D01*
X157979800Y-159481936D01*
X158019446Y-159525500D01*
X158050571Y-159577031D01*
X158080352Y-159663902D01*
X158090688Y-159764243D01*
X158090688Y-159993221D01*
X158083374Y-160081701D01*
X158062893Y-160154762D01*
X158030513Y-160215329D01*
X157985400Y-160266997D01*
X157927409Y-160309509D01*
X157854292Y-160343007D01*
X157775801Y-160364734D01*
X157681323Y-160378860D01*
X157568161Y-160383948D01*
G37*
G36*
X159089983Y-158814618D02*
G01*
X159173386Y-158838166D01*
X159223422Y-158863853D01*
X159265818Y-158897951D01*
X159301431Y-158941114D01*
X159326910Y-158990740D01*
X159343359Y-159052918D01*
X159349333Y-159130708D01*
X159349333Y-159307662D01*
X159343196Y-159372691D01*
X159321581Y-159450361D01*
X159303114Y-159487146D01*
X159279266Y-159517863D01*
X159249056Y-159541037D01*
X159210939Y-159554683D01*
X159274689Y-159578731D01*
X159317825Y-159617331D01*
X159348030Y-159667170D01*
X159366918Y-159721195D01*
X159377123Y-159776702D01*
X159380291Y-159824877D01*
X159380291Y-160043504D01*
X159373608Y-160133700D01*
X159355662Y-160201987D01*
X159328633Y-160253156D01*
X159290340Y-160296660D01*
X159244586Y-160329998D01*
X159190239Y-160353815D01*
X159100522Y-160374502D01*
X158997623Y-160381750D01*
X158714057Y-160381750D01*
X158634164Y-160378000D01*
X158559085Y-160367004D01*
X158488433Y-160346265D01*
X158427652Y-160314980D01*
X158376708Y-160271073D01*
X158337160Y-160212124D01*
X158313107Y-160140879D01*
X158304096Y-160043504D01*
X158304096Y-159848232D01*
X158615505Y-159848232D01*
X158615505Y-159985344D01*
X158620621Y-160032370D01*
X158634173Y-160065333D01*
X158654981Y-160088018D01*
X158700056Y-160109282D01*
X158767821Y-160117418D01*
X158923892Y-160117418D01*
X158980520Y-160112581D01*
X159017027Y-160100388D01*
X159039480Y-160082980D01*
X159060875Y-160043470D01*
X159068881Y-159985344D01*
X159068881Y-159848232D01*
X159059431Y-159786828D01*
X159033985Y-159745742D01*
X159008393Y-159727318D01*
X158972533Y-159715149D01*
X158922976Y-159710571D01*
X158767272Y-159710571D01*
X158711859Y-159719089D01*
X158663133Y-159744918D01*
X158643883Y-159764211D01*
X158628603Y-159787965D01*
X158618928Y-159815226D01*
X158615505Y-159848232D01*
X158304096Y-159848232D01*
X158304096Y-159829914D01*
X158309494Y-159771063D01*
X158325253Y-159717898D01*
X158350872Y-159669717D01*
X158384787Y-159629238D01*
X158426824Y-159598605D01*
X158476378Y-159580695D01*
X158418732Y-159544702D01*
X158381765Y-159506598D01*
X158356825Y-159462065D01*
X158343113Y-159413358D01*
X158334962Y-159307662D01*
X158334962Y-159205629D01*
X158638769Y-159205629D01*
X158638769Y-159302807D01*
X158647655Y-159374854D01*
X158669269Y-159414365D01*
X158706332Y-159437413D01*
X158767272Y-159446331D01*
X158919954Y-159446331D01*
X158968362Y-159441068D01*
X158998814Y-159427738D01*
X159021123Y-159405778D01*
X159035450Y-159376355D01*
X159045617Y-159302807D01*
X159045617Y-159205629D01*
X159040781Y-159149621D01*
X159028839Y-159115270D01*
X159012095Y-159095537D01*
X158974943Y-159077281D01*
X158924442Y-159070624D01*
X158767821Y-159070624D01*
X158706973Y-159078221D01*
X158670002Y-159097460D01*
X158654323Y-159117940D01*
X158643213Y-159151981D01*
X158638769Y-159205629D01*
X158334962Y-159205629D01*
X158334962Y-159130708D01*
X158341192Y-159053085D01*
X158358390Y-158990908D01*
X158385154Y-158941114D01*
X158422259Y-158898065D01*
X158466402Y-158863935D01*
X158518510Y-158838166D01*
X158604202Y-158814498D01*
X158698761Y-158806384D01*
X158993593Y-158806384D01*
X159089983Y-158814618D01*
G37*
D11*
G36*
X61095804Y-161122500D02*
G01*
X61095804Y-160873555D01*
X61615400Y-160357073D01*
X61674136Y-160296273D01*
X61717616Y-160243958D01*
X61752977Y-160190667D01*
X61777058Y-160140277D01*
X61791891Y-160087512D01*
X61796933Y-160030368D01*
X61791310Y-159976573D01*
X61775593Y-159933373D01*
X61747990Y-159898395D01*
X61704701Y-159871823D01*
X61650184Y-159856704D01*
X61568872Y-159850758D01*
X61132898Y-159850758D01*
X61132898Y-159605293D01*
X61355739Y-159571588D01*
X61482100Y-159559987D01*
X61630238Y-159555834D01*
X61751026Y-159562349D01*
X61844433Y-159579864D01*
X61915727Y-159605935D01*
X61979608Y-159645226D01*
X62028424Y-159693357D01*
X62064105Y-159751106D01*
X62087958Y-159815892D01*
X62103080Y-159891345D01*
X62108435Y-159979351D01*
X62101196Y-160081583D01*
X62080499Y-160171051D01*
X62046092Y-160255026D01*
X61997518Y-160335915D01*
X61937236Y-160412883D01*
X61859398Y-160495559D01*
X61509246Y-160841773D01*
X62156062Y-160841773D01*
X62156062Y-161122500D01*
X61095804Y-161122500D01*
G37*
G36*
X63165037Y-159561898D02*
G01*
X63237166Y-159578884D01*
X63297561Y-159605568D01*
X63351202Y-159643533D01*
X63394770Y-159690685D01*
X63429086Y-159748084D01*
X63452656Y-159811414D01*
X63467639Y-159885650D01*
X63472958Y-159972757D01*
X63472958Y-160730123D01*
X63465580Y-160827281D01*
X63444985Y-160907411D01*
X63412660Y-160973609D01*
X63368911Y-161028252D01*
X63314033Y-161072045D01*
X63248631Y-161104183D01*
X63170603Y-161124512D01*
X63077193Y-161131750D01*
X62752778Y-161131750D01*
X62667203Y-161126255D01*
X62593825Y-161110716D01*
X62530761Y-161086138D01*
X62474022Y-161050589D01*
X62427877Y-161005737D01*
X62391268Y-160950675D01*
X62365869Y-160888976D01*
X62349741Y-160816176D01*
X62344007Y-160730123D01*
X62344007Y-160003531D01*
X62655416Y-160003531D01*
X62655416Y-160682496D01*
X62661097Y-160739466D01*
X62676330Y-160781155D01*
X62699747Y-160811365D01*
X62731719Y-160833109D01*
X62773070Y-160847037D01*
X62826509Y-160852123D01*
X62994303Y-160852123D01*
X63049714Y-160846735D01*
X63090638Y-160832252D01*
X63120607Y-160809991D01*
X63142314Y-160779321D01*
X63156362Y-160738391D01*
X63161549Y-160684053D01*
X63161549Y-160003531D01*
X63155975Y-159943504D01*
X63141408Y-159901791D01*
X63119692Y-159873472D01*
X63072240Y-159845550D01*
X63006577Y-159835462D01*
X62815792Y-159835462D01*
X62765660Y-159840694D01*
X62726838Y-159855101D01*
X62696724Y-159877868D01*
X62674789Y-159908617D01*
X62660633Y-159949475D01*
X62655416Y-160003531D01*
X62344007Y-160003531D01*
X62344007Y-159972757D01*
X62349980Y-159882875D01*
X62366727Y-159807370D01*
X62393008Y-159743871D01*
X62430770Y-159686983D01*
X62477807Y-159640559D01*
X62535066Y-159603645D01*
X62598701Y-159577716D01*
X62671245Y-159561512D01*
X62754335Y-159555834D01*
X63078750Y-159555834D01*
X63165037Y-159561898D01*
G37*
G36*
X63683801Y-161122500D02*
G01*
X63683801Y-160873555D01*
X64203397Y-160357073D01*
X64262133Y-160296273D01*
X64305613Y-160243958D01*
X64340974Y-160190667D01*
X64365055Y-160140277D01*
X64379889Y-160087512D01*
X64384931Y-160030368D01*
X64379307Y-159976573D01*
X64363590Y-159933373D01*
X64335987Y-159898395D01*
X64292698Y-159871823D01*
X64238181Y-159856704D01*
X64156869Y-159850758D01*
X63720895Y-159850758D01*
X63720895Y-159605293D01*
X63943736Y-159571588D01*
X64070097Y-159559987D01*
X64218235Y-159555834D01*
X64339024Y-159562349D01*
X64432430Y-159579864D01*
X64503724Y-159605935D01*
X64567605Y-159645226D01*
X64616421Y-159693357D01*
X64652102Y-159751106D01*
X64675955Y-159815892D01*
X64691077Y-159891345D01*
X64696432Y-159979351D01*
X64689193Y-160081583D01*
X64668497Y-160171051D01*
X64634090Y-160255026D01*
X64585515Y-160335915D01*
X64525234Y-160412883D01*
X64447396Y-160495559D01*
X64097243Y-160841773D01*
X64744059Y-160841773D01*
X64744059Y-161122500D01*
X63683801Y-161122500D01*
G37*
G36*
X65476605Y-161133948D02*
G01*
X65207876Y-161123415D01*
X64941713Y-161099877D01*
X64941713Y-160854321D01*
X65489336Y-160854321D01*
X65560690Y-160847246D01*
X65608679Y-160828950D01*
X65645813Y-160799128D01*
X65669678Y-160762363D01*
X65683246Y-160720390D01*
X65687722Y-160677550D01*
X65687722Y-160570663D01*
X65677675Y-160502135D01*
X65650261Y-160453793D01*
X65622294Y-160431534D01*
X65582514Y-160416901D01*
X65526796Y-160411386D01*
X65405621Y-160411386D01*
X65342543Y-160419247D01*
X65301482Y-160439688D01*
X65273241Y-160473863D01*
X65256603Y-160525601D01*
X64961680Y-160525601D01*
X65005826Y-159568382D01*
X65939689Y-159568382D01*
X65939689Y-159848010D01*
X65273089Y-159848010D01*
X65255870Y-160216847D01*
X65292254Y-160187985D01*
X65343340Y-160165281D01*
X65401224Y-160151878D01*
X65468728Y-160147146D01*
X65637896Y-160147146D01*
X65717897Y-160153066D01*
X65784219Y-160169613D01*
X65839305Y-160195598D01*
X65888243Y-160231936D01*
X65927890Y-160275500D01*
X65959015Y-160327031D01*
X65988795Y-160413902D01*
X65999132Y-160514243D01*
X65999132Y-160743221D01*
X65991817Y-160831701D01*
X65971337Y-160904762D01*
X65938956Y-160965329D01*
X65893843Y-161016997D01*
X65835853Y-161059509D01*
X65762735Y-161093007D01*
X65684244Y-161114734D01*
X65589766Y-161128860D01*
X65476605Y-161133948D01*
G37*
G36*
X67144203Y-161133399D02*
G01*
X67028157Y-161123415D01*
X66964819Y-161107809D01*
X66903502Y-161080368D01*
X66849948Y-161039228D01*
X66804858Y-160978335D01*
X66784443Y-160930749D01*
X66770922Y-160869256D01*
X66765932Y-160790482D01*
X66765932Y-159924305D01*
X66774572Y-159825712D01*
X66797897Y-159751198D01*
X66835664Y-159688062D01*
X66881520Y-159641838D01*
X66936088Y-159607662D01*
X66996558Y-159585143D01*
X67059912Y-159572503D01*
X67121122Y-159568382D01*
X67399101Y-159573420D01*
X67616263Y-159583037D01*
X67792393Y-159594852D01*
X67792393Y-159855703D01*
X67213263Y-159855703D01*
X67154050Y-159864166D01*
X67113062Y-159887028D01*
X67087074Y-159924819D01*
X67077342Y-159984206D01*
X67077342Y-160208146D01*
X67693017Y-160225182D01*
X67693017Y-160470646D01*
X67077342Y-160487682D01*
X67077342Y-160702921D01*
X67082313Y-160753541D01*
X67095110Y-160787276D01*
X67116158Y-160813036D01*
X67142829Y-160829408D01*
X67173632Y-160838446D01*
X67206577Y-160841498D01*
X67792393Y-160841498D01*
X67792393Y-161102349D01*
X67588237Y-161118927D01*
X67362373Y-161129186D01*
X67144203Y-161133399D01*
G37*
G36*
X68994617Y-161122500D02*
G01*
X68733766Y-161122500D01*
X68683208Y-161015063D01*
X68643930Y-161045930D01*
X68595464Y-161075330D01*
X68543067Y-161099878D01*
X68487661Y-161118927D01*
X68430656Y-161131107D01*
X68373447Y-161135139D01*
X68286987Y-161128404D01*
X68213760Y-161109371D01*
X68151430Y-161079085D01*
X68098047Y-161035836D01*
X68052834Y-160976701D01*
X68015784Y-160898468D01*
X67992035Y-160814147D01*
X67976133Y-160706339D01*
X67970263Y-160570205D01*
X67970811Y-160554818D01*
X68281764Y-160554818D01*
X68287396Y-160679176D01*
X68301273Y-160758425D01*
X68328648Y-160821301D01*
X68365570Y-160857435D01*
X68414723Y-160877256D01*
X68482532Y-160884637D01*
X68544371Y-160879331D01*
X68597387Y-160864213D01*
X68683208Y-160821806D01*
X68683208Y-160254491D01*
X68594731Y-160225457D01*
X68546919Y-160214998D01*
X68495812Y-160211443D01*
X68423479Y-160218899D01*
X68371157Y-160238829D01*
X68343764Y-160260761D01*
X68320845Y-160293588D01*
X68302647Y-160340312D01*
X68287834Y-160422647D01*
X68281764Y-160554818D01*
X67970811Y-160554818D01*
X67975261Y-160429985D01*
X67988812Y-160318350D01*
X68009006Y-160230677D01*
X68042308Y-160148797D01*
X68086125Y-160086093D01*
X68140439Y-160039252D01*
X68205154Y-160006863D01*
X68288288Y-159985667D01*
X68394513Y-159977886D01*
X68472012Y-159981828D01*
X68548477Y-159993640D01*
X68683208Y-160030459D01*
X68683208Y-159520205D01*
X68994617Y-159520205D01*
X68994617Y-161122500D01*
G37*
G36*
X70512037Y-159576351D02*
G01*
X70604118Y-159598073D01*
X70676128Y-159631172D01*
X70731917Y-159674628D01*
X70776779Y-159730678D01*
X70809807Y-159798006D01*
X70830769Y-159878894D01*
X70838254Y-159976329D01*
X70831268Y-160065357D01*
X70811784Y-160138537D01*
X70779421Y-160202889D01*
X70737321Y-160253300D01*
X70684841Y-160291205D01*
X70622282Y-160315307D01*
X70670948Y-160331754D01*
X70719552Y-160355791D01*
X70764428Y-160387569D01*
X70805556Y-160429796D01*
X70839346Y-160480128D01*
X70866281Y-160541995D01*
X70882859Y-160610732D01*
X70888812Y-160694128D01*
X70881994Y-160798432D01*
X70863389Y-160880979D01*
X70835048Y-160945912D01*
X70793679Y-161002559D01*
X70741462Y-161047350D01*
X70676871Y-161081192D01*
X70606061Y-161103228D01*
X70521885Y-161117420D01*
X70422064Y-161122500D01*
X69783308Y-161122500D01*
X69783308Y-160842872D01*
X70094718Y-160842872D01*
X70412814Y-160842872D01*
X70466017Y-160837475D01*
X70508526Y-160822447D01*
X70543598Y-160796346D01*
X70570533Y-160757418D01*
X70586575Y-160708584D01*
X70592698Y-160639265D01*
X70586632Y-160582152D01*
X70569709Y-160536591D01*
X70542243Y-160498723D01*
X70506511Y-160471012D01*
X70463884Y-160453915D01*
X70412814Y-160447931D01*
X70094718Y-160447931D01*
X70094718Y-160842872D01*
X69783308Y-160842872D01*
X69783308Y-160209795D01*
X70094718Y-160209795D01*
X70395961Y-160209795D01*
X70438570Y-160204016D01*
X70473349Y-160187481D01*
X70502206Y-160159786D01*
X70530965Y-160104194D01*
X70542140Y-160030001D01*
X70537087Y-159962683D01*
X70522035Y-159917284D01*
X70499367Y-159887577D01*
X70450704Y-159858044D01*
X70392022Y-159848010D01*
X70094718Y-159848010D01*
X70094718Y-160209795D01*
X69783308Y-160209795D01*
X69783308Y-159568382D01*
X70395045Y-159568382D01*
X70512037Y-159576351D01*
G37*
G36*
X71083993Y-161122500D02*
G01*
X71083993Y-159995105D01*
X71324969Y-159995105D01*
X71395494Y-160167296D01*
X71460406Y-160095274D01*
X71532881Y-160034764D01*
X71586521Y-160004396D01*
X71646876Y-159985863D01*
X71715605Y-159979443D01*
X71761400Y-159981824D01*
X71807471Y-159990525D01*
X71807471Y-160309629D01*
X71740609Y-160302759D01*
X71675671Y-160300103D01*
X71616184Y-160303624D01*
X71565121Y-160313567D01*
X71517565Y-160330257D01*
X71474262Y-160353226D01*
X71434362Y-160382634D01*
X71395494Y-160420454D01*
X71395494Y-161122500D01*
X71083993Y-161122500D01*
G37*
G36*
X72009795Y-159829142D02*
G01*
X71984896Y-159824135D01*
X71971235Y-159810823D01*
X71966198Y-159787102D01*
X71966198Y-159581663D01*
X71971388Y-159555880D01*
X71985190Y-159541728D01*
X72009795Y-159536509D01*
X72249489Y-159536509D01*
X72267583Y-159539892D01*
X72279531Y-159549240D01*
X72289423Y-159581663D01*
X72289423Y-159787102D01*
X72284637Y-159811171D01*
X72271965Y-159824316D01*
X72249489Y-159829142D01*
X72009795Y-159829142D01*
G37*
G36*
X71972060Y-161122500D02*
G01*
X71972060Y-159995105D01*
X72283561Y-159995105D01*
X72283561Y-161122500D01*
X71972060Y-161122500D01*
G37*
G36*
X72521606Y-161122500D02*
G01*
X72521606Y-159995105D01*
X72778336Y-159995105D01*
X72833107Y-160109960D01*
X72901936Y-160062436D01*
X72992110Y-160017270D01*
X73089584Y-159986400D01*
X73188389Y-159976237D01*
X73278742Y-159983156D01*
X73348384Y-160001904D01*
X73401705Y-160030459D01*
X73447183Y-160070676D01*
X73482495Y-160118968D01*
X73508225Y-160176547D01*
X73530977Y-160271470D01*
X73538908Y-160379330D01*
X73538908Y-161122500D01*
X73227499Y-161122500D01*
X73227499Y-160419172D01*
X73222105Y-160367465D01*
X73207440Y-160328588D01*
X73183489Y-160297014D01*
X73152211Y-160274366D01*
X73114581Y-160260762D01*
X73067123Y-160255865D01*
X72981027Y-160266215D01*
X72903816Y-160295249D01*
X72833107Y-160339030D01*
X72833107Y-161122500D01*
X72521606Y-161122500D01*
G37*
G36*
X74761191Y-161122500D02*
G01*
X74500340Y-161122500D01*
X74449781Y-161015063D01*
X74410504Y-161045930D01*
X74362037Y-161075330D01*
X74309641Y-161099878D01*
X74254234Y-161118927D01*
X74197230Y-161131107D01*
X74140020Y-161135139D01*
X74053561Y-161128404D01*
X73980333Y-161109371D01*
X73918004Y-161079085D01*
X73864620Y-161035836D01*
X73819408Y-160976701D01*
X73782357Y-160898468D01*
X73758609Y-160814147D01*
X73742707Y-160706339D01*
X73736837Y-160570205D01*
X73737385Y-160554818D01*
X74048338Y-160554818D01*
X74053970Y-160679176D01*
X74067847Y-160758425D01*
X74095221Y-160821301D01*
X74132144Y-160857435D01*
X74181297Y-160877256D01*
X74249105Y-160884637D01*
X74310944Y-160879331D01*
X74363961Y-160864213D01*
X74449781Y-160821806D01*
X74449781Y-160254491D01*
X74361304Y-160225457D01*
X74313493Y-160214998D01*
X74262386Y-160211443D01*
X74190053Y-160218899D01*
X74137731Y-160238829D01*
X74110338Y-160260761D01*
X74087419Y-160293588D01*
X74069221Y-160340312D01*
X74054408Y-160422647D01*
X74048338Y-160554818D01*
X73737385Y-160554818D01*
X73741834Y-160429985D01*
X73755385Y-160318350D01*
X73775580Y-160230677D01*
X73808881Y-160148797D01*
X73852698Y-160086093D01*
X73907013Y-160039252D01*
X73971728Y-160006863D01*
X74054862Y-159985667D01*
X74161086Y-159977886D01*
X74238586Y-159981828D01*
X74315051Y-159993640D01*
X74449781Y-160030459D01*
X74449781Y-159520205D01*
X74761191Y-159520205D01*
X74761191Y-161122500D01*
G37*
G36*
X75347649Y-161127079D02*
G01*
X75268857Y-161122278D01*
X75203660Y-161108934D01*
X75149812Y-161088244D01*
X75101810Y-161057594D01*
X75062983Y-161017903D01*
X75032484Y-160968077D01*
X75012059Y-160912534D01*
X74998695Y-160843548D01*
X74993832Y-160758333D01*
X74993832Y-159520205D01*
X75305334Y-159520205D01*
X75305334Y-160712355D01*
X75309042Y-160772455D01*
X75318431Y-160812830D01*
X75335361Y-160845540D01*
X75357632Y-160866686D01*
X75385971Y-160880646D01*
X75422204Y-160889950D01*
X75508941Y-160901582D01*
X75508941Y-161127079D01*
X75347649Y-161127079D01*
G37*
G36*
X76274497Y-159987276D02*
G01*
X76383727Y-160011225D01*
X76445778Y-160039901D01*
X76493593Y-160078991D01*
X76529357Y-160129194D01*
X76552792Y-160187481D01*
X76568599Y-160265146D01*
X76574511Y-160367148D01*
X76568878Y-160441911D01*
X76553476Y-160500810D01*
X76529815Y-160547033D01*
X76496316Y-160586547D01*
X76454648Y-160617803D01*
X76403510Y-160641188D01*
X76317575Y-160661674D01*
X76210528Y-160669124D01*
X75925497Y-160669124D01*
X75935262Y-160749800D01*
X75952333Y-160805869D01*
X75983215Y-160849293D01*
X76034032Y-160879417D01*
X76100605Y-160895136D01*
X76208513Y-160901582D01*
X76538149Y-160901582D01*
X76538149Y-161084123D01*
X76357715Y-161117645D01*
X76255376Y-161129278D01*
X76125990Y-161133582D01*
X76001907Y-161127151D01*
X75904115Y-161109722D01*
X75827861Y-161083573D01*
X75760981Y-161042425D01*
X75707590Y-160984943D01*
X75666569Y-160908360D01*
X75641026Y-160823172D01*
X75623572Y-160709229D01*
X75617018Y-160559672D01*
X75620132Y-160483194D01*
X75922383Y-160483194D01*
X76178288Y-160483194D01*
X76235783Y-160476074D01*
X76270520Y-160458098D01*
X76291526Y-160426182D01*
X76299921Y-160368705D01*
X76294751Y-160310489D01*
X76281328Y-160270336D01*
X76257537Y-160239192D01*
X76222252Y-160218038D01*
X76178162Y-160206680D01*
X76114999Y-160202284D01*
X76048451Y-160208839D01*
X76001700Y-160226098D01*
X75966441Y-160257736D01*
X75940884Y-160311094D01*
X75927704Y-160378482D01*
X75922383Y-160483194D01*
X75620132Y-160483194D01*
X75623273Y-160406070D01*
X75639845Y-160290195D01*
X75663913Y-160204665D01*
X75703188Y-160127393D01*
X75754707Y-160069621D01*
X75819434Y-160028353D01*
X75893783Y-160002061D01*
X75990570Y-159984429D01*
X76114999Y-159977886D01*
X76274497Y-159987276D01*
G37*
G36*
X77109311Y-161620205D02*
G01*
X77232135Y-161122500D01*
X77141471Y-161112898D01*
X77066172Y-161086779D01*
X77001208Y-161043886D01*
X76948111Y-160984930D01*
X76907609Y-160912714D01*
X76875846Y-160820890D01*
X76663721Y-159995105D01*
X76987037Y-159995105D01*
X77164266Y-160757601D01*
X77177386Y-160795158D01*
X77191743Y-160820249D01*
X77227189Y-160852581D01*
X77262085Y-160865770D01*
X77287273Y-160868792D01*
X77489781Y-159995105D01*
X77806411Y-159995105D01*
X77470180Y-161412294D01*
X77367964Y-161620205D01*
X77109311Y-161620205D01*
G37*
D10*
X67909523Y-151554819D02*
X67338095Y-151554819D01*
X67623809Y-151554819D02*
X67623809Y-150554819D01*
X67623809Y-150554819D02*
X67528571Y-150697676D01*
X67528571Y-150697676D02*
X67433333Y-150792914D01*
X67433333Y-150792914D02*
X67338095Y-150840533D01*
X68528571Y-150554819D02*
X68623809Y-150554819D01*
X68623809Y-150554819D02*
X68719047Y-150602438D01*
X68719047Y-150602438D02*
X68766666Y-150650057D01*
X68766666Y-150650057D02*
X68814285Y-150745295D01*
X68814285Y-150745295D02*
X68861904Y-150935771D01*
X68861904Y-150935771D02*
X68861904Y-151173866D01*
X68861904Y-151173866D02*
X68814285Y-151364342D01*
X68814285Y-151364342D02*
X68766666Y-151459580D01*
X68766666Y-151459580D02*
X68719047Y-151507200D01*
X68719047Y-151507200D02*
X68623809Y-151554819D01*
X68623809Y-151554819D02*
X68528571Y-151554819D01*
X68528571Y-151554819D02*
X68433333Y-151507200D01*
X68433333Y-151507200D02*
X68385714Y-151459580D01*
X68385714Y-151459580D02*
X68338095Y-151364342D01*
X68338095Y-151364342D02*
X68290476Y-151173866D01*
X68290476Y-151173866D02*
X68290476Y-150935771D01*
X68290476Y-150935771D02*
X68338095Y-150745295D01*
X68338095Y-150745295D02*
X68385714Y-150650057D01*
X68385714Y-150650057D02*
X68433333Y-150602438D01*
X68433333Y-150602438D02*
X68528571Y-150554819D01*
D11*
G36*
X62774938Y-139074998D02*
G01*
X62822749Y-139085457D01*
X62911226Y-139114491D01*
X62911226Y-139681806D01*
X62825405Y-139724213D01*
X62772389Y-139739331D01*
X62710550Y-139744637D01*
X62642742Y-139737256D01*
X62593588Y-139717435D01*
X62556666Y-139681301D01*
X62529291Y-139618425D01*
X62515415Y-139539176D01*
X62509783Y-139414818D01*
X62515853Y-139282647D01*
X62530665Y-139200312D01*
X62548863Y-139153588D01*
X62571783Y-139120761D01*
X62599175Y-139098829D01*
X62651498Y-139078899D01*
X62723831Y-139071443D01*
X62774938Y-139074998D01*
G37*
G36*
X63998594Y-139074998D02*
G01*
X64046406Y-139085457D01*
X64134883Y-139114491D01*
X64134883Y-139681806D01*
X64049062Y-139724213D01*
X63996046Y-139739331D01*
X63934207Y-139744637D01*
X63866399Y-139737256D01*
X63817245Y-139717435D01*
X63780323Y-139681301D01*
X63752948Y-139618425D01*
X63739071Y-139539176D01*
X63733439Y-139414818D01*
X63739509Y-139282647D01*
X63754322Y-139200312D01*
X63772520Y-139153588D01*
X63795439Y-139120761D01*
X63822832Y-139098829D01*
X63875154Y-139078899D01*
X63947488Y-139071443D01*
X63998594Y-139074998D01*
G37*
G36*
X66094806Y-139066680D02*
G01*
X66138895Y-139078038D01*
X66174181Y-139099192D01*
X66197972Y-139130336D01*
X66211395Y-139170489D01*
X66216565Y-139228705D01*
X66208169Y-139286182D01*
X66187164Y-139318098D01*
X66152426Y-139336074D01*
X66094932Y-139343194D01*
X65839026Y-139343194D01*
X65844348Y-139238482D01*
X65857528Y-139171094D01*
X65883085Y-139117736D01*
X65918344Y-139086098D01*
X65965095Y-139068839D01*
X66031642Y-139062284D01*
X66094806Y-139066680D01*
G37*
G36*
X61613014Y-139377724D02*
G01*
X61230988Y-139377724D01*
X61422139Y-138695370D01*
X61613014Y-139377724D01*
G37*
G36*
X64417808Y-137203938D02*
G01*
X64397475Y-137212181D01*
X64357449Y-137226561D01*
X64305700Y-137241673D01*
X64251112Y-137254221D01*
X64202935Y-137258893D01*
X64135799Y-137247260D01*
X64108427Y-137232250D01*
X64087256Y-137209159D01*
X64074068Y-137179161D01*
X64069212Y-137138267D01*
X64069212Y-137092838D01*
X64079293Y-137037039D01*
X64107864Y-136996484D01*
X64153877Y-136969689D01*
X64229588Y-136954077D01*
X64417808Y-136940980D01*
X64417808Y-137203938D01*
G37*
G36*
X66548365Y-136546680D02*
G01*
X66592454Y-136558038D01*
X66627740Y-136579192D01*
X66651531Y-136610336D01*
X66664954Y-136650489D01*
X66670124Y-136708705D01*
X66661728Y-136766182D01*
X66640723Y-136798098D01*
X66605985Y-136816074D01*
X66548491Y-136823194D01*
X66292585Y-136823194D01*
X66297907Y-136718482D01*
X66311087Y-136651094D01*
X66336644Y-136597736D01*
X66371903Y-136566098D01*
X66418654Y-136548839D01*
X66485201Y-136542284D01*
X66548365Y-136546680D01*
G37*
G36*
X63186145Y-136793915D02*
G01*
X63228772Y-136811012D01*
X63264504Y-136838723D01*
X63291970Y-136876591D01*
X63308893Y-136922152D01*
X63314960Y-136979265D01*
X63308836Y-137048584D01*
X63292795Y-137097418D01*
X63265860Y-137136346D01*
X63230787Y-137162447D01*
X63188278Y-137177475D01*
X63135075Y-137182872D01*
X62816979Y-137182872D01*
X62816979Y-136787931D01*
X63135075Y-136787931D01*
X63186145Y-136793915D01*
G37*
G36*
X63172966Y-136198044D02*
G01*
X63221628Y-136227577D01*
X63244296Y-136257284D01*
X63259348Y-136302683D01*
X63264401Y-136370001D01*
X63253226Y-136444194D01*
X63224468Y-136499786D01*
X63195610Y-136527481D01*
X63160832Y-136544016D01*
X63118222Y-136549795D01*
X62816979Y-136549795D01*
X62816979Y-136188010D01*
X63114284Y-136188010D01*
X63172966Y-136198044D01*
G37*
G36*
X68787497Y-140161806D02*
G01*
X60574034Y-140161806D01*
X60574034Y-139982500D01*
X60740701Y-139982500D01*
X61060903Y-139982500D01*
X61157990Y-139657351D01*
X61687203Y-139657351D01*
X61786305Y-139982500D01*
X62109621Y-139982500D01*
X61935841Y-139430205D01*
X62198281Y-139430205D01*
X62204151Y-139566339D01*
X62220054Y-139674147D01*
X62243802Y-139758468D01*
X62280853Y-139836701D01*
X62326065Y-139895836D01*
X62379448Y-139939085D01*
X62441778Y-139969371D01*
X62515006Y-139988404D01*
X62601465Y-139995139D01*
X62658675Y-139991107D01*
X62715679Y-139978927D01*
X62771086Y-139959878D01*
X62823482Y-139935330D01*
X62871948Y-139905930D01*
X62911226Y-139875063D01*
X62961784Y-139982500D01*
X63222636Y-139982500D01*
X63222636Y-139430205D01*
X63421938Y-139430205D01*
X63427808Y-139566339D01*
X63443710Y-139674147D01*
X63467459Y-139758468D01*
X63504509Y-139836701D01*
X63549722Y-139895836D01*
X63603105Y-139939085D01*
X63665435Y-139969371D01*
X63738662Y-139988404D01*
X63825122Y-139995139D01*
X63882332Y-139991107D01*
X63939336Y-139978927D01*
X63994742Y-139959878D01*
X64047139Y-139935330D01*
X64095605Y-139905930D01*
X64134883Y-139875063D01*
X64185441Y-139982500D01*
X64446293Y-139982500D01*
X64446293Y-138855105D01*
X64678934Y-138855105D01*
X64678934Y-139982500D01*
X64990435Y-139982500D01*
X64990435Y-139419672D01*
X65533662Y-139419672D01*
X65540216Y-139569229D01*
X65557669Y-139683172D01*
X65583212Y-139768360D01*
X65624234Y-139844943D01*
X65677624Y-139902425D01*
X65744504Y-139943573D01*
X65820759Y-139969722D01*
X65918551Y-139987151D01*
X66042633Y-139993582D01*
X66172019Y-139989278D01*
X66274359Y-139977645D01*
X66454793Y-139944123D01*
X66454793Y-139761582D01*
X66125157Y-139761582D01*
X66017249Y-139755136D01*
X65950676Y-139739417D01*
X65899859Y-139709293D01*
X65868977Y-139665869D01*
X65851906Y-139609800D01*
X65842140Y-139529124D01*
X66127172Y-139529124D01*
X66234219Y-139521674D01*
X66320154Y-139501188D01*
X66371291Y-139477803D01*
X66412960Y-139446547D01*
X66446458Y-139407033D01*
X66470120Y-139360810D01*
X66485522Y-139301911D01*
X66491155Y-139227148D01*
X66488060Y-139173750D01*
X66648875Y-139173750D01*
X66648875Y-139239146D01*
X66654551Y-139314055D01*
X66670120Y-139373447D01*
X66694121Y-139420405D01*
X66727868Y-139460911D01*
X66768495Y-139492744D01*
X66816944Y-139516484D01*
X66897699Y-139537910D01*
X66991334Y-139545427D01*
X67168013Y-139545427D01*
X67234220Y-139552453D01*
X67268397Y-139568874D01*
X67288732Y-139596216D01*
X67295874Y-139634087D01*
X67295874Y-139670449D01*
X67292042Y-139704114D01*
X67282044Y-139726686D01*
X67265128Y-139743107D01*
X67239637Y-139754071D01*
X67167463Y-139761582D01*
X66668383Y-139761582D01*
X66668383Y-139944123D01*
X66755578Y-139966746D01*
X66868235Y-139982500D01*
X66990326Y-139991750D01*
X67104448Y-139995139D01*
X67245798Y-139987522D01*
X67353301Y-139967204D01*
X67417936Y-139943235D01*
X67468760Y-139911803D01*
X67508090Y-139873140D01*
X67536567Y-139826223D01*
X67554733Y-139767398D01*
X67561305Y-139693530D01*
X67561305Y-139592688D01*
X67551807Y-139502836D01*
X67525358Y-139431424D01*
X67483086Y-139374335D01*
X67441979Y-139342105D01*
X67388608Y-139317508D01*
X67320017Y-139301330D01*
X67232493Y-139295383D01*
X67051326Y-139295383D01*
X66975213Y-139288697D01*
X66947335Y-139278473D01*
X66929143Y-139263235D01*
X66918357Y-139241608D01*
X66914214Y-139208463D01*
X66914214Y-139173750D01*
X67708400Y-139173750D01*
X67708400Y-139239146D01*
X67714077Y-139314055D01*
X67729645Y-139373447D01*
X67753646Y-139420405D01*
X67787394Y-139460911D01*
X67828021Y-139492744D01*
X67876470Y-139516484D01*
X67957225Y-139537910D01*
X68050859Y-139545427D01*
X68227538Y-139545427D01*
X68293745Y-139552453D01*
X68327922Y-139568874D01*
X68348257Y-139596216D01*
X68355399Y-139634087D01*
X68355399Y-139670449D01*
X68351568Y-139704114D01*
X68341569Y-139726686D01*
X68324653Y-139743107D01*
X68299162Y-139754071D01*
X68226989Y-139761582D01*
X67727909Y-139761582D01*
X67727909Y-139944123D01*
X67815104Y-139966746D01*
X67927761Y-139982500D01*
X68049851Y-139991750D01*
X68163974Y-139995139D01*
X68305324Y-139987522D01*
X68412827Y-139967204D01*
X68477461Y-139943235D01*
X68528286Y-139911803D01*
X68567616Y-139873140D01*
X68596093Y-139826223D01*
X68614259Y-139767398D01*
X68620830Y-139693530D01*
X68620830Y-139592688D01*
X68611333Y-139502836D01*
X68584883Y-139431424D01*
X68542611Y-139374335D01*
X68501505Y-139342105D01*
X68448133Y-139317508D01*
X68379542Y-139301330D01*
X68292018Y-139295383D01*
X68110851Y-139295383D01*
X68034739Y-139288697D01*
X68006860Y-139278473D01*
X67988669Y-139263235D01*
X67977882Y-139241608D01*
X67973739Y-139208463D01*
X67973739Y-139173750D01*
X67982484Y-139125776D01*
X68005338Y-139098920D01*
X68041453Y-139084419D01*
X68098395Y-139078679D01*
X68570180Y-139078679D01*
X68570180Y-138896138D01*
X68458989Y-138870676D01*
X68310153Y-138851899D01*
X68161409Y-138844664D01*
X68046541Y-138849623D01*
X67957809Y-138862910D01*
X67890391Y-138882491D01*
X67828307Y-138913106D01*
X67782380Y-138950026D01*
X67749799Y-138993316D01*
X67727531Y-139043596D01*
X67713418Y-139103113D01*
X67708400Y-139173750D01*
X66914214Y-139173750D01*
X66922959Y-139125776D01*
X66945813Y-139098920D01*
X66981928Y-139084419D01*
X67038869Y-139078679D01*
X67510655Y-139078679D01*
X67510655Y-138896138D01*
X67399463Y-138870676D01*
X67250628Y-138851899D01*
X67101884Y-138844664D01*
X66987016Y-138849623D01*
X66898284Y-138862910D01*
X66830866Y-138882491D01*
X66768782Y-138913106D01*
X66722855Y-138950026D01*
X66690274Y-138993316D01*
X66668006Y-139043596D01*
X66653893Y-139103113D01*
X66648875Y-139173750D01*
X66488060Y-139173750D01*
X66485243Y-139125146D01*
X66469436Y-139047481D01*
X66446000Y-138989194D01*
X66410236Y-138938991D01*
X66362421Y-138899901D01*
X66300371Y-138871225D01*
X66191141Y-138847276D01*
X66031642Y-138837886D01*
X65907213Y-138844429D01*
X65810427Y-138862061D01*
X65736078Y-138888353D01*
X65671350Y-138929621D01*
X65619832Y-138987393D01*
X65580556Y-139064665D01*
X65556489Y-139150195D01*
X65539916Y-139266070D01*
X65536776Y-139343194D01*
X65533662Y-139419672D01*
X64990435Y-139419672D01*
X64990435Y-139280454D01*
X65029303Y-139242634D01*
X65069203Y-139213226D01*
X65112506Y-139190257D01*
X65160062Y-139173567D01*
X65211125Y-139163624D01*
X65270612Y-139160103D01*
X65335550Y-139162759D01*
X65402412Y-139169629D01*
X65402412Y-138850525D01*
X65356341Y-138841824D01*
X65310546Y-138839443D01*
X65241817Y-138845863D01*
X65181462Y-138864396D01*
X65127822Y-138894764D01*
X65055347Y-138955274D01*
X64990435Y-139027296D01*
X64919910Y-138855105D01*
X64678934Y-138855105D01*
X64446293Y-138855105D01*
X64446293Y-138380205D01*
X64134883Y-138380205D01*
X64134883Y-138890459D01*
X64000152Y-138853640D01*
X63923687Y-138841828D01*
X63846188Y-138837886D01*
X63739963Y-138845667D01*
X63656829Y-138866863D01*
X63592114Y-138899252D01*
X63537800Y-138946093D01*
X63493983Y-139008797D01*
X63460681Y-139090677D01*
X63440487Y-139178350D01*
X63426936Y-139289985D01*
X63422486Y-139414818D01*
X63421938Y-139430205D01*
X63222636Y-139430205D01*
X63222636Y-138380205D01*
X62911226Y-138380205D01*
X62911226Y-138890459D01*
X62776496Y-138853640D01*
X62700031Y-138841828D01*
X62622531Y-138837886D01*
X62516307Y-138845667D01*
X62433173Y-138866863D01*
X62368458Y-138899252D01*
X62314143Y-138946093D01*
X62270326Y-139008797D01*
X62237024Y-139090677D01*
X62216830Y-139178350D01*
X62203279Y-139289985D01*
X62198829Y-139414818D01*
X62198281Y-139430205D01*
X61935841Y-139430205D01*
X61620616Y-138428382D01*
X61229706Y-138428382D01*
X60930994Y-139377724D01*
X60740701Y-139982500D01*
X60574034Y-139982500D01*
X60574034Y-136549795D01*
X62505569Y-136549795D01*
X62505569Y-137182872D01*
X62505569Y-137462500D01*
X63144326Y-137462500D01*
X63244146Y-137457420D01*
X63328322Y-137443228D01*
X63399132Y-137421192D01*
X63463723Y-137387350D01*
X63515940Y-137342559D01*
X63557310Y-137285912D01*
X63585651Y-137220979D01*
X63604255Y-137138432D01*
X63607535Y-137088258D01*
X63757802Y-137088258D01*
X63757802Y-137092838D01*
X63757802Y-137190199D01*
X63767441Y-137275357D01*
X63794501Y-137343726D01*
X63838311Y-137399118D01*
X63896054Y-137440721D01*
X63964400Y-137466190D01*
X64046314Y-137475139D01*
X64115242Y-137471479D01*
X64179671Y-137460759D01*
X64241166Y-137444021D01*
X64294618Y-137423940D01*
X64381721Y-137380159D01*
X64433195Y-137343431D01*
X64483753Y-137462500D01*
X64729309Y-137462500D01*
X64729309Y-136695882D01*
X64726369Y-136653750D01*
X64915972Y-136653750D01*
X64915972Y-136719146D01*
X64921648Y-136794055D01*
X64937217Y-136853447D01*
X64961218Y-136900405D01*
X64994965Y-136940911D01*
X65035592Y-136972744D01*
X65084041Y-136996484D01*
X65164796Y-137017910D01*
X65258431Y-137025427D01*
X65435110Y-137025427D01*
X65501317Y-137032453D01*
X65535494Y-137048874D01*
X65555829Y-137076216D01*
X65562971Y-137114087D01*
X65562971Y-137150449D01*
X65559139Y-137184114D01*
X65549141Y-137206686D01*
X65532225Y-137223107D01*
X65506734Y-137234071D01*
X65434560Y-137241582D01*
X64935480Y-137241582D01*
X64935480Y-137424123D01*
X65022675Y-137446746D01*
X65135332Y-137462500D01*
X65257423Y-137471750D01*
X65371546Y-137475139D01*
X65512895Y-137467522D01*
X65620398Y-137447204D01*
X65685033Y-137423235D01*
X65735857Y-137391803D01*
X65775187Y-137353140D01*
X65803664Y-137306223D01*
X65821830Y-137247398D01*
X65828402Y-137173530D01*
X65828402Y-137072688D01*
X65818904Y-136982836D01*
X65792455Y-136911424D01*
X65783753Y-136899672D01*
X65987221Y-136899672D01*
X65993775Y-137049229D01*
X66011228Y-137163172D01*
X66036771Y-137248360D01*
X66077793Y-137324943D01*
X66131183Y-137382425D01*
X66198063Y-137423573D01*
X66274318Y-137449722D01*
X66372110Y-137467151D01*
X66496192Y-137473582D01*
X66625578Y-137469278D01*
X66727918Y-137457645D01*
X66908352Y-137424123D01*
X66908352Y-137241582D01*
X66578716Y-137241582D01*
X66470808Y-137235136D01*
X66404235Y-137219417D01*
X66353418Y-137189293D01*
X66322536Y-137145869D01*
X66305465Y-137089800D01*
X66295699Y-137009124D01*
X66580731Y-137009124D01*
X66687778Y-137001674D01*
X66773713Y-136981188D01*
X66824850Y-136957803D01*
X66866519Y-136926547D01*
X66900017Y-136887033D01*
X66923679Y-136840810D01*
X66939081Y-136781911D01*
X66944714Y-136707148D01*
X66938802Y-136605146D01*
X66922995Y-136527481D01*
X66899559Y-136469194D01*
X66863795Y-136418991D01*
X66815980Y-136379901D01*
X66753929Y-136351225D01*
X66644699Y-136327276D01*
X66485201Y-136317886D01*
X66360772Y-136324429D01*
X66263986Y-136342061D01*
X66189637Y-136368353D01*
X66124909Y-136409621D01*
X66073391Y-136467393D01*
X66034115Y-136544665D01*
X66010048Y-136630195D01*
X65993475Y-136746070D01*
X65990335Y-136823194D01*
X65987221Y-136899672D01*
X65783753Y-136899672D01*
X65750183Y-136854335D01*
X65709077Y-136822105D01*
X65655705Y-136797508D01*
X65587114Y-136781330D01*
X65499590Y-136775383D01*
X65318423Y-136775383D01*
X65242311Y-136768697D01*
X65214432Y-136758473D01*
X65196240Y-136743235D01*
X65185454Y-136721608D01*
X65181311Y-136688463D01*
X65181311Y-136653750D01*
X65190056Y-136605776D01*
X65212910Y-136578920D01*
X65249025Y-136564419D01*
X65305966Y-136558679D01*
X65777752Y-136558679D01*
X65777752Y-136376138D01*
X65666560Y-136350676D01*
X65517725Y-136331899D01*
X65368981Y-136324664D01*
X65254113Y-136329623D01*
X65165381Y-136342910D01*
X65097963Y-136362491D01*
X65035879Y-136393106D01*
X64989952Y-136430026D01*
X64957371Y-136473316D01*
X64935103Y-136523596D01*
X64920990Y-136583113D01*
X64915972Y-136653750D01*
X64726369Y-136653750D01*
X64722632Y-136600208D01*
X64704560Y-136526151D01*
X64677194Y-136469286D01*
X64637612Y-136420552D01*
X64587622Y-136382201D01*
X64525519Y-136353698D01*
X64420232Y-136328995D01*
X64285367Y-136320267D01*
X64138531Y-136325600D01*
X64025065Y-136338860D01*
X63920591Y-136359718D01*
X63835105Y-136383557D01*
X63835105Y-136562984D01*
X64172160Y-136562984D01*
X64270542Y-136567785D01*
X64329148Y-136579287D01*
X64374214Y-136601159D01*
X64399398Y-136629845D01*
X64412824Y-136667073D01*
X64417808Y-136717315D01*
X64417808Y-136793702D01*
X64130120Y-136793702D01*
X64032648Y-136799961D01*
X63955627Y-136817027D01*
X63895194Y-136842977D01*
X63848203Y-136876866D01*
X63798021Y-136937250D01*
X63768127Y-137006736D01*
X63757802Y-137088258D01*
X63607535Y-137088258D01*
X63611074Y-137034128D01*
X63605120Y-136950732D01*
X63588542Y-136881995D01*
X63561607Y-136820128D01*
X63527817Y-136769796D01*
X63486689Y-136727569D01*
X63441813Y-136695791D01*
X63393210Y-136671754D01*
X63344544Y-136655307D01*
X63407102Y-136631205D01*
X63459582Y-136593300D01*
X63501683Y-136542889D01*
X63534046Y-136478537D01*
X63553530Y-136405357D01*
X63560515Y-136316329D01*
X63553030Y-136218894D01*
X63532068Y-136138006D01*
X63499041Y-136070678D01*
X63454178Y-136014628D01*
X63398390Y-135971172D01*
X63326380Y-135938073D01*
X63234298Y-135916351D01*
X63117306Y-135908382D01*
X62505569Y-135908382D01*
X62505569Y-136549795D01*
X60574034Y-136549795D01*
X60574034Y-135741715D01*
X68787497Y-135741715D01*
X68787497Y-140161806D01*
G37*
D10*
X67528571Y-143483390D02*
X67433333Y-143435771D01*
X67433333Y-143435771D02*
X67385714Y-143388152D01*
X67385714Y-143388152D02*
X67338095Y-143292914D01*
X67338095Y-143292914D02*
X67338095Y-143245295D01*
X67338095Y-143245295D02*
X67385714Y-143150057D01*
X67385714Y-143150057D02*
X67433333Y-143102438D01*
X67433333Y-143102438D02*
X67528571Y-143054819D01*
X67528571Y-143054819D02*
X67719047Y-143054819D01*
X67719047Y-143054819D02*
X67814285Y-143102438D01*
X67814285Y-143102438D02*
X67861904Y-143150057D01*
X67861904Y-143150057D02*
X67909523Y-143245295D01*
X67909523Y-143245295D02*
X67909523Y-143292914D01*
X67909523Y-143292914D02*
X67861904Y-143388152D01*
X67861904Y-143388152D02*
X67814285Y-143435771D01*
X67814285Y-143435771D02*
X67719047Y-143483390D01*
X67719047Y-143483390D02*
X67528571Y-143483390D01*
X67528571Y-143483390D02*
X67433333Y-143531009D01*
X67433333Y-143531009D02*
X67385714Y-143578628D01*
X67385714Y-143578628D02*
X67338095Y-143673866D01*
X67338095Y-143673866D02*
X67338095Y-143864342D01*
X67338095Y-143864342D02*
X67385714Y-143959580D01*
X67385714Y-143959580D02*
X67433333Y-144007200D01*
X67433333Y-144007200D02*
X67528571Y-144054819D01*
X67528571Y-144054819D02*
X67719047Y-144054819D01*
X67719047Y-144054819D02*
X67814285Y-144007200D01*
X67814285Y-144007200D02*
X67861904Y-143959580D01*
X67861904Y-143959580D02*
X67909523Y-143864342D01*
X67909523Y-143864342D02*
X67909523Y-143673866D01*
X67909523Y-143673866D02*
X67861904Y-143578628D01*
X67861904Y-143578628D02*
X67814285Y-143531009D01*
X67814285Y-143531009D02*
X67719047Y-143483390D01*
X68528571Y-143054819D02*
X68623809Y-143054819D01*
X68623809Y-143054819D02*
X68719047Y-143102438D01*
X68719047Y-143102438D02*
X68766666Y-143150057D01*
X68766666Y-143150057D02*
X68814285Y-143245295D01*
X68814285Y-143245295D02*
X68861904Y-143435771D01*
X68861904Y-143435771D02*
X68861904Y-143673866D01*
X68861904Y-143673866D02*
X68814285Y-143864342D01*
X68814285Y-143864342D02*
X68766666Y-143959580D01*
X68766666Y-143959580D02*
X68719047Y-144007200D01*
X68719047Y-144007200D02*
X68623809Y-144054819D01*
X68623809Y-144054819D02*
X68528571Y-144054819D01*
X68528571Y-144054819D02*
X68433333Y-144007200D01*
X68433333Y-144007200D02*
X68385714Y-143959580D01*
X68385714Y-143959580D02*
X68338095Y-143864342D01*
X68338095Y-143864342D02*
X68290476Y-143673866D01*
X68290476Y-143673866D02*
X68290476Y-143435771D01*
X68290476Y-143435771D02*
X68338095Y-143245295D01*
X68338095Y-143245295D02*
X68385714Y-143150057D01*
X68385714Y-143150057D02*
X68433333Y-143102438D01*
X68433333Y-143102438D02*
X68528571Y-143054819D01*
X67338095Y-148150057D02*
X67385714Y-148102438D01*
X67385714Y-148102438D02*
X67480952Y-148054819D01*
X67480952Y-148054819D02*
X67719047Y-148054819D01*
X67719047Y-148054819D02*
X67814285Y-148102438D01*
X67814285Y-148102438D02*
X67861904Y-148150057D01*
X67861904Y-148150057D02*
X67909523Y-148245295D01*
X67909523Y-148245295D02*
X67909523Y-148340533D01*
X67909523Y-148340533D02*
X67861904Y-148483390D01*
X67861904Y-148483390D02*
X67290476Y-149054819D01*
X67290476Y-149054819D02*
X67909523Y-149054819D01*
X68528571Y-148054819D02*
X68623809Y-148054819D01*
X68623809Y-148054819D02*
X68719047Y-148102438D01*
X68719047Y-148102438D02*
X68766666Y-148150057D01*
X68766666Y-148150057D02*
X68814285Y-148245295D01*
X68814285Y-148245295D02*
X68861904Y-148435771D01*
X68861904Y-148435771D02*
X68861904Y-148673866D01*
X68861904Y-148673866D02*
X68814285Y-148864342D01*
X68814285Y-148864342D02*
X68766666Y-148959580D01*
X68766666Y-148959580D02*
X68719047Y-149007200D01*
X68719047Y-149007200D02*
X68623809Y-149054819D01*
X68623809Y-149054819D02*
X68528571Y-149054819D01*
X68528571Y-149054819D02*
X68433333Y-149007200D01*
X68433333Y-149007200D02*
X68385714Y-148959580D01*
X68385714Y-148959580D02*
X68338095Y-148864342D01*
X68338095Y-148864342D02*
X68290476Y-148673866D01*
X68290476Y-148673866D02*
X68290476Y-148435771D01*
X68290476Y-148435771D02*
X68338095Y-148245295D01*
X68338095Y-148245295D02*
X68385714Y-148150057D01*
X68385714Y-148150057D02*
X68433333Y-148102438D01*
X68433333Y-148102438D02*
X68528571Y-148054819D01*
X67504762Y-153733390D02*
X67409524Y-153685771D01*
X67409524Y-153685771D02*
X67361905Y-153638152D01*
X67361905Y-153638152D02*
X67314286Y-153542914D01*
X67314286Y-153542914D02*
X67314286Y-153495295D01*
X67314286Y-153495295D02*
X67361905Y-153400057D01*
X67361905Y-153400057D02*
X67409524Y-153352438D01*
X67409524Y-153352438D02*
X67504762Y-153304819D01*
X67504762Y-153304819D02*
X67695238Y-153304819D01*
X67695238Y-153304819D02*
X67790476Y-153352438D01*
X67790476Y-153352438D02*
X67838095Y-153400057D01*
X67838095Y-153400057D02*
X67885714Y-153495295D01*
X67885714Y-153495295D02*
X67885714Y-153542914D01*
X67885714Y-153542914D02*
X67838095Y-153638152D01*
X67838095Y-153638152D02*
X67790476Y-153685771D01*
X67790476Y-153685771D02*
X67695238Y-153733390D01*
X67695238Y-153733390D02*
X67504762Y-153733390D01*
X67504762Y-153733390D02*
X67409524Y-153781009D01*
X67409524Y-153781009D02*
X67361905Y-153828628D01*
X67361905Y-153828628D02*
X67314286Y-153923866D01*
X67314286Y-153923866D02*
X67314286Y-154114342D01*
X67314286Y-154114342D02*
X67361905Y-154209580D01*
X67361905Y-154209580D02*
X67409524Y-154257200D01*
X67409524Y-154257200D02*
X67504762Y-154304819D01*
X67504762Y-154304819D02*
X67695238Y-154304819D01*
X67695238Y-154304819D02*
X67790476Y-154257200D01*
X67790476Y-154257200D02*
X67838095Y-154209580D01*
X67838095Y-154209580D02*
X67885714Y-154114342D01*
X67885714Y-154114342D02*
X67885714Y-153923866D01*
X67885714Y-153923866D02*
X67838095Y-153828628D01*
X67838095Y-153828628D02*
X67790476Y-153781009D01*
X67790476Y-153781009D02*
X67695238Y-153733390D01*
X67790476Y-156138152D02*
X67790476Y-156804819D01*
X67552381Y-155757200D02*
X67314286Y-156471485D01*
X67314286Y-156471485D02*
X67933333Y-156471485D01*
X67547619Y-140554819D02*
X67642857Y-140554819D01*
X67642857Y-140554819D02*
X67738095Y-140602438D01*
X67738095Y-140602438D02*
X67785714Y-140650057D01*
X67785714Y-140650057D02*
X67833333Y-140745295D01*
X67833333Y-140745295D02*
X67880952Y-140935771D01*
X67880952Y-140935771D02*
X67880952Y-141173866D01*
X67880952Y-141173866D02*
X67833333Y-141364342D01*
X67833333Y-141364342D02*
X67785714Y-141459580D01*
X67785714Y-141459580D02*
X67738095Y-141507200D01*
X67738095Y-141507200D02*
X67642857Y-141554819D01*
X67642857Y-141554819D02*
X67547619Y-141554819D01*
X67547619Y-141554819D02*
X67452381Y-141507200D01*
X67452381Y-141507200D02*
X67404762Y-141459580D01*
X67404762Y-141459580D02*
X67357143Y-141364342D01*
X67357143Y-141364342D02*
X67309524Y-141173866D01*
X67309524Y-141173866D02*
X67309524Y-140935771D01*
X67309524Y-140935771D02*
X67357143Y-140745295D01*
X67357143Y-140745295D02*
X67404762Y-140650057D01*
X67404762Y-140650057D02*
X67452381Y-140602438D01*
X67452381Y-140602438D02*
X67547619Y-140554819D01*
X68214286Y-141554819D02*
X68738095Y-140888152D01*
X68214286Y-140888152D02*
X68738095Y-141554819D01*
X67814285Y-145888152D02*
X67814285Y-146554819D01*
X67576190Y-145507200D02*
X67338095Y-146221485D01*
X67338095Y-146221485D02*
X67957142Y-146221485D01*
X68528571Y-145554819D02*
X68623809Y-145554819D01*
X68623809Y-145554819D02*
X68719047Y-145602438D01*
X68719047Y-145602438D02*
X68766666Y-145650057D01*
X68766666Y-145650057D02*
X68814285Y-145745295D01*
X68814285Y-145745295D02*
X68861904Y-145935771D01*
X68861904Y-145935771D02*
X68861904Y-146173866D01*
X68861904Y-146173866D02*
X68814285Y-146364342D01*
X68814285Y-146364342D02*
X68766666Y-146459580D01*
X68766666Y-146459580D02*
X68719047Y-146507200D01*
X68719047Y-146507200D02*
X68623809Y-146554819D01*
X68623809Y-146554819D02*
X68528571Y-146554819D01*
X68528571Y-146554819D02*
X68433333Y-146507200D01*
X68433333Y-146507200D02*
X68385714Y-146459580D01*
X68385714Y-146459580D02*
X68338095Y-146364342D01*
X68338095Y-146364342D02*
X68290476Y-146173866D01*
X68290476Y-146173866D02*
X68290476Y-145935771D01*
X68290476Y-145935771D02*
X68338095Y-145745295D01*
X68338095Y-145745295D02*
X68385714Y-145650057D01*
X68385714Y-145650057D02*
X68433333Y-145602438D01*
X68433333Y-145602438D02*
X68528571Y-145554819D01*
X111083333Y-158539580D02*
X111035714Y-158587200D01*
X111035714Y-158587200D02*
X110892857Y-158634819D01*
X110892857Y-158634819D02*
X110797619Y-158634819D01*
X110797619Y-158634819D02*
X110654762Y-158587200D01*
X110654762Y-158587200D02*
X110559524Y-158491961D01*
X110559524Y-158491961D02*
X110511905Y-158396723D01*
X110511905Y-158396723D02*
X110464286Y-158206247D01*
X110464286Y-158206247D02*
X110464286Y-158063390D01*
X110464286Y-158063390D02*
X110511905Y-157872914D01*
X110511905Y-157872914D02*
X110559524Y-157777676D01*
X110559524Y-157777676D02*
X110654762Y-157682438D01*
X110654762Y-157682438D02*
X110797619Y-157634819D01*
X110797619Y-157634819D02*
X110892857Y-157634819D01*
X110892857Y-157634819D02*
X111035714Y-157682438D01*
X111035714Y-157682438D02*
X111083333Y-157730057D01*
X112035714Y-158634819D02*
X111464286Y-158634819D01*
X111750000Y-158634819D02*
X111750000Y-157634819D01*
X111750000Y-157634819D02*
X111654762Y-157777676D01*
X111654762Y-157777676D02*
X111559524Y-157872914D01*
X111559524Y-157872914D02*
X111464286Y-157920533D01*
X111083333Y-144789580D02*
X111035714Y-144837200D01*
X111035714Y-144837200D02*
X110892857Y-144884819D01*
X110892857Y-144884819D02*
X110797619Y-144884819D01*
X110797619Y-144884819D02*
X110654762Y-144837200D01*
X110654762Y-144837200D02*
X110559524Y-144741961D01*
X110559524Y-144741961D02*
X110511905Y-144646723D01*
X110511905Y-144646723D02*
X110464286Y-144456247D01*
X110464286Y-144456247D02*
X110464286Y-144313390D01*
X110464286Y-144313390D02*
X110511905Y-144122914D01*
X110511905Y-144122914D02*
X110559524Y-144027676D01*
X110559524Y-144027676D02*
X110654762Y-143932438D01*
X110654762Y-143932438D02*
X110797619Y-143884819D01*
X110797619Y-143884819D02*
X110892857Y-143884819D01*
X110892857Y-143884819D02*
X111035714Y-143932438D01*
X111035714Y-143932438D02*
X111083333Y-143980057D01*
X111416667Y-143884819D02*
X112083333Y-143884819D01*
X112083333Y-143884819D02*
X111654762Y-144884819D01*
X146785714Y-133359580D02*
X146738095Y-133407200D01*
X146738095Y-133407200D02*
X146595238Y-133454819D01*
X146595238Y-133454819D02*
X146500000Y-133454819D01*
X146500000Y-133454819D02*
X146357143Y-133407200D01*
X146357143Y-133407200D02*
X146261905Y-133311961D01*
X146261905Y-133311961D02*
X146214286Y-133216723D01*
X146214286Y-133216723D02*
X146166667Y-133026247D01*
X146166667Y-133026247D02*
X146166667Y-132883390D01*
X146166667Y-132883390D02*
X146214286Y-132692914D01*
X146214286Y-132692914D02*
X146261905Y-132597676D01*
X146261905Y-132597676D02*
X146357143Y-132502438D01*
X146357143Y-132502438D02*
X146500000Y-132454819D01*
X146500000Y-132454819D02*
X146595238Y-132454819D01*
X146595238Y-132454819D02*
X146738095Y-132502438D01*
X146738095Y-132502438D02*
X146785714Y-132550057D01*
X147404762Y-132454819D02*
X147595238Y-132454819D01*
X147595238Y-132454819D02*
X147690476Y-132502438D01*
X147690476Y-132502438D02*
X147785714Y-132597676D01*
X147785714Y-132597676D02*
X147833333Y-132788152D01*
X147833333Y-132788152D02*
X147833333Y-133121485D01*
X147833333Y-133121485D02*
X147785714Y-133311961D01*
X147785714Y-133311961D02*
X147690476Y-133407200D01*
X147690476Y-133407200D02*
X147595238Y-133454819D01*
X147595238Y-133454819D02*
X147404762Y-133454819D01*
X147404762Y-133454819D02*
X147309524Y-133407200D01*
X147309524Y-133407200D02*
X147214286Y-133311961D01*
X147214286Y-133311961D02*
X147166667Y-133121485D01*
X147166667Y-133121485D02*
X147166667Y-132788152D01*
X147166667Y-132788152D02*
X147214286Y-132597676D01*
X147214286Y-132597676D02*
X147309524Y-132502438D01*
X147309524Y-132502438D02*
X147404762Y-132454819D01*
X148261905Y-133454819D02*
X148261905Y-132454819D01*
X148261905Y-132454819D02*
X148833333Y-133454819D01*
X148833333Y-133454819D02*
X148833333Y-132454819D01*
X149833333Y-133454819D02*
X149261905Y-133454819D01*
X149547619Y-133454819D02*
X149547619Y-132454819D01*
X149547619Y-132454819D02*
X149452381Y-132597676D01*
X149452381Y-132597676D02*
X149357143Y-132692914D01*
X149357143Y-132692914D02*
X149261905Y-132740533D01*
X62896666Y-157994819D02*
X62896666Y-158709104D01*
X62896666Y-158709104D02*
X62849047Y-158851961D01*
X62849047Y-158851961D02*
X62753809Y-158947200D01*
X62753809Y-158947200D02*
X62610952Y-158994819D01*
X62610952Y-158994819D02*
X62515714Y-158994819D01*
X63372857Y-158994819D02*
X63372857Y-157994819D01*
X63372857Y-157994819D02*
X63753809Y-157994819D01*
X63753809Y-157994819D02*
X63849047Y-158042438D01*
X63849047Y-158042438D02*
X63896666Y-158090057D01*
X63896666Y-158090057D02*
X63944285Y-158185295D01*
X63944285Y-158185295D02*
X63944285Y-158328152D01*
X63944285Y-158328152D02*
X63896666Y-158423390D01*
X63896666Y-158423390D02*
X63849047Y-158471009D01*
X63849047Y-158471009D02*
X63753809Y-158518628D01*
X63753809Y-158518628D02*
X63372857Y-158518628D01*
X64896666Y-158994819D02*
X64325238Y-158994819D01*
X64610952Y-158994819D02*
X64610952Y-157994819D01*
X64610952Y-157994819D02*
X64515714Y-158137676D01*
X64515714Y-158137676D02*
X64420476Y-158232914D01*
X64420476Y-158232914D02*
X64325238Y-158280533D01*
X78699819Y-152611904D02*
X79509342Y-152611904D01*
X79509342Y-152611904D02*
X79604580Y-152564285D01*
X79604580Y-152564285D02*
X79652200Y-152516666D01*
X79652200Y-152516666D02*
X79699819Y-152421428D01*
X79699819Y-152421428D02*
X79699819Y-152230952D01*
X79699819Y-152230952D02*
X79652200Y-152135714D01*
X79652200Y-152135714D02*
X79604580Y-152088095D01*
X79604580Y-152088095D02*
X79509342Y-152040476D01*
X79509342Y-152040476D02*
X78699819Y-152040476D01*
X79699819Y-151040476D02*
X79699819Y-151611904D01*
X79699819Y-151326190D02*
X78699819Y-151326190D01*
X78699819Y-151326190D02*
X78842676Y-151421428D01*
X78842676Y-151421428D02*
X78937914Y-151516666D01*
X78937914Y-151516666D02*
X78985533Y-151611904D01*
X127607142Y-128859580D02*
X127559523Y-128907200D01*
X127559523Y-128907200D02*
X127416666Y-128954819D01*
X127416666Y-128954819D02*
X127321428Y-128954819D01*
X127321428Y-128954819D02*
X127178571Y-128907200D01*
X127178571Y-128907200D02*
X127083333Y-128811961D01*
X127083333Y-128811961D02*
X127035714Y-128716723D01*
X127035714Y-128716723D02*
X126988095Y-128526247D01*
X126988095Y-128526247D02*
X126988095Y-128383390D01*
X126988095Y-128383390D02*
X127035714Y-128192914D01*
X127035714Y-128192914D02*
X127083333Y-128097676D01*
X127083333Y-128097676D02*
X127178571Y-128002438D01*
X127178571Y-128002438D02*
X127321428Y-127954819D01*
X127321428Y-127954819D02*
X127416666Y-127954819D01*
X127416666Y-127954819D02*
X127559523Y-128002438D01*
X127559523Y-128002438D02*
X127607142Y-128050057D01*
X128559523Y-128954819D02*
X127988095Y-128954819D01*
X128273809Y-128954819D02*
X128273809Y-127954819D01*
X128273809Y-127954819D02*
X128178571Y-128097676D01*
X128178571Y-128097676D02*
X128083333Y-128192914D01*
X128083333Y-128192914D02*
X127988095Y-128240533D01*
X129511904Y-128954819D02*
X128940476Y-128954819D01*
X129226190Y-128954819D02*
X129226190Y-127954819D01*
X129226190Y-127954819D02*
X129130952Y-128097676D01*
X129130952Y-128097676D02*
X129035714Y-128192914D01*
X129035714Y-128192914D02*
X128940476Y-128240533D01*
X116333333Y-134359580D02*
X116285714Y-134407200D01*
X116285714Y-134407200D02*
X116142857Y-134454819D01*
X116142857Y-134454819D02*
X116047619Y-134454819D01*
X116047619Y-134454819D02*
X115904762Y-134407200D01*
X115904762Y-134407200D02*
X115809524Y-134311961D01*
X115809524Y-134311961D02*
X115761905Y-134216723D01*
X115761905Y-134216723D02*
X115714286Y-134026247D01*
X115714286Y-134026247D02*
X115714286Y-133883390D01*
X115714286Y-133883390D02*
X115761905Y-133692914D01*
X115761905Y-133692914D02*
X115809524Y-133597676D01*
X115809524Y-133597676D02*
X115904762Y-133502438D01*
X115904762Y-133502438D02*
X116047619Y-133454819D01*
X116047619Y-133454819D02*
X116142857Y-133454819D01*
X116142857Y-133454819D02*
X116285714Y-133502438D01*
X116285714Y-133502438D02*
X116333333Y-133550057D01*
X116904762Y-133883390D02*
X116809524Y-133835771D01*
X116809524Y-133835771D02*
X116761905Y-133788152D01*
X116761905Y-133788152D02*
X116714286Y-133692914D01*
X116714286Y-133692914D02*
X116714286Y-133645295D01*
X116714286Y-133645295D02*
X116761905Y-133550057D01*
X116761905Y-133550057D02*
X116809524Y-133502438D01*
X116809524Y-133502438D02*
X116904762Y-133454819D01*
X116904762Y-133454819D02*
X117095238Y-133454819D01*
X117095238Y-133454819D02*
X117190476Y-133502438D01*
X117190476Y-133502438D02*
X117238095Y-133550057D01*
X117238095Y-133550057D02*
X117285714Y-133645295D01*
X117285714Y-133645295D02*
X117285714Y-133692914D01*
X117285714Y-133692914D02*
X117238095Y-133788152D01*
X117238095Y-133788152D02*
X117190476Y-133835771D01*
X117190476Y-133835771D02*
X117095238Y-133883390D01*
X117095238Y-133883390D02*
X116904762Y-133883390D01*
X116904762Y-133883390D02*
X116809524Y-133931009D01*
X116809524Y-133931009D02*
X116761905Y-133978628D01*
X116761905Y-133978628D02*
X116714286Y-134073866D01*
X116714286Y-134073866D02*
X116714286Y-134264342D01*
X116714286Y-134264342D02*
X116761905Y-134359580D01*
X116761905Y-134359580D02*
X116809524Y-134407200D01*
X116809524Y-134407200D02*
X116904762Y-134454819D01*
X116904762Y-134454819D02*
X117095238Y-134454819D01*
X117095238Y-134454819D02*
X117190476Y-134407200D01*
X117190476Y-134407200D02*
X117238095Y-134359580D01*
X117238095Y-134359580D02*
X117285714Y-134264342D01*
X117285714Y-134264342D02*
X117285714Y-134073866D01*
X117285714Y-134073866D02*
X117238095Y-133978628D01*
X117238095Y-133978628D02*
X117190476Y-133931009D01*
X117190476Y-133931009D02*
X117095238Y-133883390D01*
X118607142Y-135109580D02*
X118559523Y-135157200D01*
X118559523Y-135157200D02*
X118416666Y-135204819D01*
X118416666Y-135204819D02*
X118321428Y-135204819D01*
X118321428Y-135204819D02*
X118178571Y-135157200D01*
X118178571Y-135157200D02*
X118083333Y-135061961D01*
X118083333Y-135061961D02*
X118035714Y-134966723D01*
X118035714Y-134966723D02*
X117988095Y-134776247D01*
X117988095Y-134776247D02*
X117988095Y-134633390D01*
X117988095Y-134633390D02*
X118035714Y-134442914D01*
X118035714Y-134442914D02*
X118083333Y-134347676D01*
X118083333Y-134347676D02*
X118178571Y-134252438D01*
X118178571Y-134252438D02*
X118321428Y-134204819D01*
X118321428Y-134204819D02*
X118416666Y-134204819D01*
X118416666Y-134204819D02*
X118559523Y-134252438D01*
X118559523Y-134252438D02*
X118607142Y-134300057D01*
X119559523Y-135204819D02*
X118988095Y-135204819D01*
X119273809Y-135204819D02*
X119273809Y-134204819D01*
X119273809Y-134204819D02*
X119178571Y-134347676D01*
X119178571Y-134347676D02*
X119083333Y-134442914D01*
X119083333Y-134442914D02*
X118988095Y-134490533D01*
X119940476Y-134300057D02*
X119988095Y-134252438D01*
X119988095Y-134252438D02*
X120083333Y-134204819D01*
X120083333Y-134204819D02*
X120321428Y-134204819D01*
X120321428Y-134204819D02*
X120416666Y-134252438D01*
X120416666Y-134252438D02*
X120464285Y-134300057D01*
X120464285Y-134300057D02*
X120511904Y-134395295D01*
X120511904Y-134395295D02*
X120511904Y-134490533D01*
X120511904Y-134490533D02*
X120464285Y-134633390D01*
X120464285Y-134633390D02*
X119892857Y-135204819D01*
X119892857Y-135204819D02*
X120511904Y-135204819D01*
X111488095Y-151454819D02*
X111488095Y-152264342D01*
X111488095Y-152264342D02*
X111535714Y-152359580D01*
X111535714Y-152359580D02*
X111583333Y-152407200D01*
X111583333Y-152407200D02*
X111678571Y-152454819D01*
X111678571Y-152454819D02*
X111869047Y-152454819D01*
X111869047Y-152454819D02*
X111964285Y-152407200D01*
X111964285Y-152407200D02*
X112011904Y-152359580D01*
X112011904Y-152359580D02*
X112059523Y-152264342D01*
X112059523Y-152264342D02*
X112059523Y-151454819D01*
X112488095Y-151550057D02*
X112535714Y-151502438D01*
X112535714Y-151502438D02*
X112630952Y-151454819D01*
X112630952Y-151454819D02*
X112869047Y-151454819D01*
X112869047Y-151454819D02*
X112964285Y-151502438D01*
X112964285Y-151502438D02*
X113011904Y-151550057D01*
X113011904Y-151550057D02*
X113059523Y-151645295D01*
X113059523Y-151645295D02*
X113059523Y-151740533D01*
X113059523Y-151740533D02*
X113011904Y-151883390D01*
X113011904Y-151883390D02*
X112440476Y-152454819D01*
X112440476Y-152454819D02*
X113059523Y-152454819D01*
X79979600Y-143859580D02*
X79931981Y-143907200D01*
X79931981Y-143907200D02*
X79789124Y-143954819D01*
X79789124Y-143954819D02*
X79693886Y-143954819D01*
X79693886Y-143954819D02*
X79551029Y-143907200D01*
X79551029Y-143907200D02*
X79455791Y-143811961D01*
X79455791Y-143811961D02*
X79408172Y-143716723D01*
X79408172Y-143716723D02*
X79360553Y-143526247D01*
X79360553Y-143526247D02*
X79360553Y-143383390D01*
X79360553Y-143383390D02*
X79408172Y-143192914D01*
X79408172Y-143192914D02*
X79455791Y-143097676D01*
X79455791Y-143097676D02*
X79551029Y-143002438D01*
X79551029Y-143002438D02*
X79693886Y-142954819D01*
X79693886Y-142954819D02*
X79789124Y-142954819D01*
X79789124Y-142954819D02*
X79931981Y-143002438D01*
X79931981Y-143002438D02*
X79979600Y-143050057D01*
X80836743Y-142954819D02*
X80646267Y-142954819D01*
X80646267Y-142954819D02*
X80551029Y-143002438D01*
X80551029Y-143002438D02*
X80503410Y-143050057D01*
X80503410Y-143050057D02*
X80408172Y-143192914D01*
X80408172Y-143192914D02*
X80360553Y-143383390D01*
X80360553Y-143383390D02*
X80360553Y-143764342D01*
X80360553Y-143764342D02*
X80408172Y-143859580D01*
X80408172Y-143859580D02*
X80455791Y-143907200D01*
X80455791Y-143907200D02*
X80551029Y-143954819D01*
X80551029Y-143954819D02*
X80741505Y-143954819D01*
X80741505Y-143954819D02*
X80836743Y-143907200D01*
X80836743Y-143907200D02*
X80884362Y-143859580D01*
X80884362Y-143859580D02*
X80931981Y-143764342D01*
X80931981Y-143764342D02*
X80931981Y-143526247D01*
X80931981Y-143526247D02*
X80884362Y-143431009D01*
X80884362Y-143431009D02*
X80836743Y-143383390D01*
X80836743Y-143383390D02*
X80741505Y-143335771D01*
X80741505Y-143335771D02*
X80551029Y-143335771D01*
X80551029Y-143335771D02*
X80455791Y-143383390D01*
X80455791Y-143383390D02*
X80408172Y-143431009D01*
X80408172Y-143431009D02*
X80360553Y-143526247D01*
X97523809Y-146728628D02*
X97523809Y-147204819D01*
X97190476Y-146204819D02*
X97523809Y-146728628D01*
X97523809Y-146728628D02*
X97857142Y-146204819D01*
X98714285Y-147204819D02*
X98142857Y-147204819D01*
X98428571Y-147204819D02*
X98428571Y-146204819D01*
X98428571Y-146204819D02*
X98333333Y-146347676D01*
X98333333Y-146347676D02*
X98238095Y-146442914D01*
X98238095Y-146442914D02*
X98142857Y-146490533D01*
X97833333Y-136024819D02*
X97357143Y-136024819D01*
X97357143Y-136024819D02*
X97357143Y-135024819D01*
X98119048Y-135120057D02*
X98166667Y-135072438D01*
X98166667Y-135072438D02*
X98261905Y-135024819D01*
X98261905Y-135024819D02*
X98500000Y-135024819D01*
X98500000Y-135024819D02*
X98595238Y-135072438D01*
X98595238Y-135072438D02*
X98642857Y-135120057D01*
X98642857Y-135120057D02*
X98690476Y-135215295D01*
X98690476Y-135215295D02*
X98690476Y-135310533D01*
X98690476Y-135310533D02*
X98642857Y-135453390D01*
X98642857Y-135453390D02*
X98071429Y-136024819D01*
X98071429Y-136024819D02*
X98690476Y-136024819D01*
X112354819Y-141761904D02*
X113164342Y-141761904D01*
X113164342Y-141761904D02*
X113259580Y-141714285D01*
X113259580Y-141714285D02*
X113307200Y-141666666D01*
X113307200Y-141666666D02*
X113354819Y-141571428D01*
X113354819Y-141571428D02*
X113354819Y-141380952D01*
X113354819Y-141380952D02*
X113307200Y-141285714D01*
X113307200Y-141285714D02*
X113259580Y-141238095D01*
X113259580Y-141238095D02*
X113164342Y-141190476D01*
X113164342Y-141190476D02*
X112354819Y-141190476D01*
X112354819Y-140809523D02*
X112354819Y-140190476D01*
X112354819Y-140190476D02*
X112735771Y-140523809D01*
X112735771Y-140523809D02*
X112735771Y-140380952D01*
X112735771Y-140380952D02*
X112783390Y-140285714D01*
X112783390Y-140285714D02*
X112831009Y-140238095D01*
X112831009Y-140238095D02*
X112926247Y-140190476D01*
X112926247Y-140190476D02*
X113164342Y-140190476D01*
X113164342Y-140190476D02*
X113259580Y-140238095D01*
X113259580Y-140238095D02*
X113307200Y-140285714D01*
X113307200Y-140285714D02*
X113354819Y-140380952D01*
X113354819Y-140380952D02*
X113354819Y-140666666D01*
X113354819Y-140666666D02*
X113307200Y-140761904D01*
X113307200Y-140761904D02*
X113259580Y-140809523D01*
X81333333Y-135929580D02*
X81285714Y-135977200D01*
X81285714Y-135977200D02*
X81142857Y-136024819D01*
X81142857Y-136024819D02*
X81047619Y-136024819D01*
X81047619Y-136024819D02*
X80904762Y-135977200D01*
X80904762Y-135977200D02*
X80809524Y-135881961D01*
X80809524Y-135881961D02*
X80761905Y-135786723D01*
X80761905Y-135786723D02*
X80714286Y-135596247D01*
X80714286Y-135596247D02*
X80714286Y-135453390D01*
X80714286Y-135453390D02*
X80761905Y-135262914D01*
X80761905Y-135262914D02*
X80809524Y-135167676D01*
X80809524Y-135167676D02*
X80904762Y-135072438D01*
X80904762Y-135072438D02*
X81047619Y-135024819D01*
X81047619Y-135024819D02*
X81142857Y-135024819D01*
X81142857Y-135024819D02*
X81285714Y-135072438D01*
X81285714Y-135072438D02*
X81333333Y-135120057D01*
X81714286Y-135120057D02*
X81761905Y-135072438D01*
X81761905Y-135072438D02*
X81857143Y-135024819D01*
X81857143Y-135024819D02*
X82095238Y-135024819D01*
X82095238Y-135024819D02*
X82190476Y-135072438D01*
X82190476Y-135072438D02*
X82238095Y-135120057D01*
X82238095Y-135120057D02*
X82285714Y-135215295D01*
X82285714Y-135215295D02*
X82285714Y-135310533D01*
X82285714Y-135310533D02*
X82238095Y-135453390D01*
X82238095Y-135453390D02*
X81666667Y-136024819D01*
X81666667Y-136024819D02*
X82285714Y-136024819D01*
X76958333Y-156394819D02*
X76625000Y-155918628D01*
X76386905Y-156394819D02*
X76386905Y-155394819D01*
X76386905Y-155394819D02*
X76767857Y-155394819D01*
X76767857Y-155394819D02*
X76863095Y-155442438D01*
X76863095Y-155442438D02*
X76910714Y-155490057D01*
X76910714Y-155490057D02*
X76958333Y-155585295D01*
X76958333Y-155585295D02*
X76958333Y-155728152D01*
X76958333Y-155728152D02*
X76910714Y-155823390D01*
X76910714Y-155823390D02*
X76863095Y-155871009D01*
X76863095Y-155871009D02*
X76767857Y-155918628D01*
X76767857Y-155918628D02*
X76386905Y-155918628D01*
X77815476Y-155394819D02*
X77625000Y-155394819D01*
X77625000Y-155394819D02*
X77529762Y-155442438D01*
X77529762Y-155442438D02*
X77482143Y-155490057D01*
X77482143Y-155490057D02*
X77386905Y-155632914D01*
X77386905Y-155632914D02*
X77339286Y-155823390D01*
X77339286Y-155823390D02*
X77339286Y-156204342D01*
X77339286Y-156204342D02*
X77386905Y-156299580D01*
X77386905Y-156299580D02*
X77434524Y-156347200D01*
X77434524Y-156347200D02*
X77529762Y-156394819D01*
X77529762Y-156394819D02*
X77720238Y-156394819D01*
X77720238Y-156394819D02*
X77815476Y-156347200D01*
X77815476Y-156347200D02*
X77863095Y-156299580D01*
X77863095Y-156299580D02*
X77910714Y-156204342D01*
X77910714Y-156204342D02*
X77910714Y-155966247D01*
X77910714Y-155966247D02*
X77863095Y-155871009D01*
X77863095Y-155871009D02*
X77815476Y-155823390D01*
X77815476Y-155823390D02*
X77720238Y-155775771D01*
X77720238Y-155775771D02*
X77529762Y-155775771D01*
X77529762Y-155775771D02*
X77434524Y-155823390D01*
X77434524Y-155823390D02*
X77386905Y-155871009D01*
X77386905Y-155871009D02*
X77339286Y-155966247D01*
X127109580Y-119142857D02*
X127157200Y-119190476D01*
X127157200Y-119190476D02*
X127204819Y-119333333D01*
X127204819Y-119333333D02*
X127204819Y-119428571D01*
X127204819Y-119428571D02*
X127157200Y-119571428D01*
X127157200Y-119571428D02*
X127061961Y-119666666D01*
X127061961Y-119666666D02*
X126966723Y-119714285D01*
X126966723Y-119714285D02*
X126776247Y-119761904D01*
X126776247Y-119761904D02*
X126633390Y-119761904D01*
X126633390Y-119761904D02*
X126442914Y-119714285D01*
X126442914Y-119714285D02*
X126347676Y-119666666D01*
X126347676Y-119666666D02*
X126252438Y-119571428D01*
X126252438Y-119571428D02*
X126204819Y-119428571D01*
X126204819Y-119428571D02*
X126204819Y-119333333D01*
X126204819Y-119333333D02*
X126252438Y-119190476D01*
X126252438Y-119190476D02*
X126300057Y-119142857D01*
X127204819Y-118190476D02*
X127204819Y-118761904D01*
X127204819Y-118476190D02*
X126204819Y-118476190D01*
X126204819Y-118476190D02*
X126347676Y-118571428D01*
X126347676Y-118571428D02*
X126442914Y-118666666D01*
X126442914Y-118666666D02*
X126490533Y-118761904D01*
X126204819Y-117857142D02*
X126204819Y-117238095D01*
X126204819Y-117238095D02*
X126585771Y-117571428D01*
X126585771Y-117571428D02*
X126585771Y-117428571D01*
X126585771Y-117428571D02*
X126633390Y-117333333D01*
X126633390Y-117333333D02*
X126681009Y-117285714D01*
X126681009Y-117285714D02*
X126776247Y-117238095D01*
X126776247Y-117238095D02*
X127014342Y-117238095D01*
X127014342Y-117238095D02*
X127109580Y-117285714D01*
X127109580Y-117285714D02*
X127157200Y-117333333D01*
X127157200Y-117333333D02*
X127204819Y-117428571D01*
X127204819Y-117428571D02*
X127204819Y-117714285D01*
X127204819Y-117714285D02*
X127157200Y-117809523D01*
X127157200Y-117809523D02*
X127109580Y-117857142D01*
X134107142Y-121704819D02*
X133773809Y-121228628D01*
X133535714Y-121704819D02*
X133535714Y-120704819D01*
X133535714Y-120704819D02*
X133916666Y-120704819D01*
X133916666Y-120704819D02*
X134011904Y-120752438D01*
X134011904Y-120752438D02*
X134059523Y-120800057D01*
X134059523Y-120800057D02*
X134107142Y-120895295D01*
X134107142Y-120895295D02*
X134107142Y-121038152D01*
X134107142Y-121038152D02*
X134059523Y-121133390D01*
X134059523Y-121133390D02*
X134011904Y-121181009D01*
X134011904Y-121181009D02*
X133916666Y-121228628D01*
X133916666Y-121228628D02*
X133535714Y-121228628D01*
X135059523Y-121704819D02*
X134488095Y-121704819D01*
X134773809Y-121704819D02*
X134773809Y-120704819D01*
X134773809Y-120704819D02*
X134678571Y-120847676D01*
X134678571Y-120847676D02*
X134583333Y-120942914D01*
X134583333Y-120942914D02*
X134488095Y-120990533D01*
X135678571Y-120704819D02*
X135773809Y-120704819D01*
X135773809Y-120704819D02*
X135869047Y-120752438D01*
X135869047Y-120752438D02*
X135916666Y-120800057D01*
X135916666Y-120800057D02*
X135964285Y-120895295D01*
X135964285Y-120895295D02*
X136011904Y-121085771D01*
X136011904Y-121085771D02*
X136011904Y-121323866D01*
X136011904Y-121323866D02*
X135964285Y-121514342D01*
X135964285Y-121514342D02*
X135916666Y-121609580D01*
X135916666Y-121609580D02*
X135869047Y-121657200D01*
X135869047Y-121657200D02*
X135773809Y-121704819D01*
X135773809Y-121704819D02*
X135678571Y-121704819D01*
X135678571Y-121704819D02*
X135583333Y-121657200D01*
X135583333Y-121657200D02*
X135535714Y-121609580D01*
X135535714Y-121609580D02*
X135488095Y-121514342D01*
X135488095Y-121514342D02*
X135440476Y-121323866D01*
X135440476Y-121323866D02*
X135440476Y-121085771D01*
X135440476Y-121085771D02*
X135488095Y-120895295D01*
X135488095Y-120895295D02*
X135535714Y-120800057D01*
X135535714Y-120800057D02*
X135583333Y-120752438D01*
X135583333Y-120752438D02*
X135678571Y-120704819D01*
X120859580Y-115916666D02*
X120907200Y-115964285D01*
X120907200Y-115964285D02*
X120954819Y-116107142D01*
X120954819Y-116107142D02*
X120954819Y-116202380D01*
X120954819Y-116202380D02*
X120907200Y-116345237D01*
X120907200Y-116345237D02*
X120811961Y-116440475D01*
X120811961Y-116440475D02*
X120716723Y-116488094D01*
X120716723Y-116488094D02*
X120526247Y-116535713D01*
X120526247Y-116535713D02*
X120383390Y-116535713D01*
X120383390Y-116535713D02*
X120192914Y-116488094D01*
X120192914Y-116488094D02*
X120097676Y-116440475D01*
X120097676Y-116440475D02*
X120002438Y-116345237D01*
X120002438Y-116345237D02*
X119954819Y-116202380D01*
X119954819Y-116202380D02*
X119954819Y-116107142D01*
X119954819Y-116107142D02*
X120002438Y-115964285D01*
X120002438Y-115964285D02*
X120050057Y-115916666D01*
X120954819Y-115440475D02*
X120954819Y-115249999D01*
X120954819Y-115249999D02*
X120907200Y-115154761D01*
X120907200Y-115154761D02*
X120859580Y-115107142D01*
X120859580Y-115107142D02*
X120716723Y-115011904D01*
X120716723Y-115011904D02*
X120526247Y-114964285D01*
X120526247Y-114964285D02*
X120145295Y-114964285D01*
X120145295Y-114964285D02*
X120050057Y-115011904D01*
X120050057Y-115011904D02*
X120002438Y-115059523D01*
X120002438Y-115059523D02*
X119954819Y-115154761D01*
X119954819Y-115154761D02*
X119954819Y-115345237D01*
X119954819Y-115345237D02*
X120002438Y-115440475D01*
X120002438Y-115440475D02*
X120050057Y-115488094D01*
X120050057Y-115488094D02*
X120145295Y-115535713D01*
X120145295Y-115535713D02*
X120383390Y-115535713D01*
X120383390Y-115535713D02*
X120478628Y-115488094D01*
X120478628Y-115488094D02*
X120526247Y-115440475D01*
X120526247Y-115440475D02*
X120573866Y-115345237D01*
X120573866Y-115345237D02*
X120573866Y-115154761D01*
X120573866Y-115154761D02*
X120526247Y-115059523D01*
X120526247Y-115059523D02*
X120478628Y-115011904D01*
X120478628Y-115011904D02*
X120383390Y-114964285D01*
X76958333Y-153974819D02*
X76625000Y-153498628D01*
X76386905Y-153974819D02*
X76386905Y-152974819D01*
X76386905Y-152974819D02*
X76767857Y-152974819D01*
X76767857Y-152974819D02*
X76863095Y-153022438D01*
X76863095Y-153022438D02*
X76910714Y-153070057D01*
X76910714Y-153070057D02*
X76958333Y-153165295D01*
X76958333Y-153165295D02*
X76958333Y-153308152D01*
X76958333Y-153308152D02*
X76910714Y-153403390D01*
X76910714Y-153403390D02*
X76863095Y-153451009D01*
X76863095Y-153451009D02*
X76767857Y-153498628D01*
X76767857Y-153498628D02*
X76386905Y-153498628D01*
X77863095Y-152974819D02*
X77386905Y-152974819D01*
X77386905Y-152974819D02*
X77339286Y-153451009D01*
X77339286Y-153451009D02*
X77386905Y-153403390D01*
X77386905Y-153403390D02*
X77482143Y-153355771D01*
X77482143Y-153355771D02*
X77720238Y-153355771D01*
X77720238Y-153355771D02*
X77815476Y-153403390D01*
X77815476Y-153403390D02*
X77863095Y-153451009D01*
X77863095Y-153451009D02*
X77910714Y-153546247D01*
X77910714Y-153546247D02*
X77910714Y-153784342D01*
X77910714Y-153784342D02*
X77863095Y-153879580D01*
X77863095Y-153879580D02*
X77815476Y-153927200D01*
X77815476Y-153927200D02*
X77720238Y-153974819D01*
X77720238Y-153974819D02*
X77482143Y-153974819D01*
X77482143Y-153974819D02*
X77386905Y-153927200D01*
X77386905Y-153927200D02*
X77339286Y-153879580D01*
X111083333Y-117954819D02*
X110750000Y-117478628D01*
X110511905Y-117954819D02*
X110511905Y-116954819D01*
X110511905Y-116954819D02*
X110892857Y-116954819D01*
X110892857Y-116954819D02*
X110988095Y-117002438D01*
X110988095Y-117002438D02*
X111035714Y-117050057D01*
X111035714Y-117050057D02*
X111083333Y-117145295D01*
X111083333Y-117145295D02*
X111083333Y-117288152D01*
X111083333Y-117288152D02*
X111035714Y-117383390D01*
X111035714Y-117383390D02*
X110988095Y-117431009D01*
X110988095Y-117431009D02*
X110892857Y-117478628D01*
X110892857Y-117478628D02*
X110511905Y-117478628D01*
X111559524Y-117954819D02*
X111750000Y-117954819D01*
X111750000Y-117954819D02*
X111845238Y-117907200D01*
X111845238Y-117907200D02*
X111892857Y-117859580D01*
X111892857Y-117859580D02*
X111988095Y-117716723D01*
X111988095Y-117716723D02*
X112035714Y-117526247D01*
X112035714Y-117526247D02*
X112035714Y-117145295D01*
X112035714Y-117145295D02*
X111988095Y-117050057D01*
X111988095Y-117050057D02*
X111940476Y-117002438D01*
X111940476Y-117002438D02*
X111845238Y-116954819D01*
X111845238Y-116954819D02*
X111654762Y-116954819D01*
X111654762Y-116954819D02*
X111559524Y-117002438D01*
X111559524Y-117002438D02*
X111511905Y-117050057D01*
X111511905Y-117050057D02*
X111464286Y-117145295D01*
X111464286Y-117145295D02*
X111464286Y-117383390D01*
X111464286Y-117383390D02*
X111511905Y-117478628D01*
X111511905Y-117478628D02*
X111559524Y-117526247D01*
X111559524Y-117526247D02*
X111654762Y-117573866D01*
X111654762Y-117573866D02*
X111845238Y-117573866D01*
X111845238Y-117573866D02*
X111940476Y-117526247D01*
X111940476Y-117526247D02*
X111988095Y-117478628D01*
X111988095Y-117478628D02*
X112035714Y-117383390D01*
X139357142Y-121359580D02*
X139309523Y-121407200D01*
X139309523Y-121407200D02*
X139166666Y-121454819D01*
X139166666Y-121454819D02*
X139071428Y-121454819D01*
X139071428Y-121454819D02*
X138928571Y-121407200D01*
X138928571Y-121407200D02*
X138833333Y-121311961D01*
X138833333Y-121311961D02*
X138785714Y-121216723D01*
X138785714Y-121216723D02*
X138738095Y-121026247D01*
X138738095Y-121026247D02*
X138738095Y-120883390D01*
X138738095Y-120883390D02*
X138785714Y-120692914D01*
X138785714Y-120692914D02*
X138833333Y-120597676D01*
X138833333Y-120597676D02*
X138928571Y-120502438D01*
X138928571Y-120502438D02*
X139071428Y-120454819D01*
X139071428Y-120454819D02*
X139166666Y-120454819D01*
X139166666Y-120454819D02*
X139309523Y-120502438D01*
X139309523Y-120502438D02*
X139357142Y-120550057D01*
X140309523Y-121454819D02*
X139738095Y-121454819D01*
X140023809Y-121454819D02*
X140023809Y-120454819D01*
X140023809Y-120454819D02*
X139928571Y-120597676D01*
X139928571Y-120597676D02*
X139833333Y-120692914D01*
X139833333Y-120692914D02*
X139738095Y-120740533D01*
X140642857Y-120454819D02*
X141309523Y-120454819D01*
X141309523Y-120454819D02*
X140880952Y-121454819D01*
X122083333Y-134704819D02*
X121750000Y-134228628D01*
X121511905Y-134704819D02*
X121511905Y-133704819D01*
X121511905Y-133704819D02*
X121892857Y-133704819D01*
X121892857Y-133704819D02*
X121988095Y-133752438D01*
X121988095Y-133752438D02*
X122035714Y-133800057D01*
X122035714Y-133800057D02*
X122083333Y-133895295D01*
X122083333Y-133895295D02*
X122083333Y-134038152D01*
X122083333Y-134038152D02*
X122035714Y-134133390D01*
X122035714Y-134133390D02*
X121988095Y-134181009D01*
X121988095Y-134181009D02*
X121892857Y-134228628D01*
X121892857Y-134228628D02*
X121511905Y-134228628D01*
X122416667Y-133704819D02*
X123083333Y-133704819D01*
X123083333Y-133704819D02*
X122654762Y-134704819D01*
X123204819Y-115916666D02*
X122728628Y-116249999D01*
X123204819Y-116488094D02*
X122204819Y-116488094D01*
X122204819Y-116488094D02*
X122204819Y-116107142D01*
X122204819Y-116107142D02*
X122252438Y-116011904D01*
X122252438Y-116011904D02*
X122300057Y-115964285D01*
X122300057Y-115964285D02*
X122395295Y-115916666D01*
X122395295Y-115916666D02*
X122538152Y-115916666D01*
X122538152Y-115916666D02*
X122633390Y-115964285D01*
X122633390Y-115964285D02*
X122681009Y-116011904D01*
X122681009Y-116011904D02*
X122728628Y-116107142D01*
X122728628Y-116107142D02*
X122728628Y-116488094D01*
X122633390Y-115345237D02*
X122585771Y-115440475D01*
X122585771Y-115440475D02*
X122538152Y-115488094D01*
X122538152Y-115488094D02*
X122442914Y-115535713D01*
X122442914Y-115535713D02*
X122395295Y-115535713D01*
X122395295Y-115535713D02*
X122300057Y-115488094D01*
X122300057Y-115488094D02*
X122252438Y-115440475D01*
X122252438Y-115440475D02*
X122204819Y-115345237D01*
X122204819Y-115345237D02*
X122204819Y-115154761D01*
X122204819Y-115154761D02*
X122252438Y-115059523D01*
X122252438Y-115059523D02*
X122300057Y-115011904D01*
X122300057Y-115011904D02*
X122395295Y-114964285D01*
X122395295Y-114964285D02*
X122442914Y-114964285D01*
X122442914Y-114964285D02*
X122538152Y-115011904D01*
X122538152Y-115011904D02*
X122585771Y-115059523D01*
X122585771Y-115059523D02*
X122633390Y-115154761D01*
X122633390Y-115154761D02*
X122633390Y-115345237D01*
X122633390Y-115345237D02*
X122681009Y-115440475D01*
X122681009Y-115440475D02*
X122728628Y-115488094D01*
X122728628Y-115488094D02*
X122823866Y-115535713D01*
X122823866Y-115535713D02*
X123014342Y-115535713D01*
X123014342Y-115535713D02*
X123109580Y-115488094D01*
X123109580Y-115488094D02*
X123157200Y-115440475D01*
X123157200Y-115440475D02*
X123204819Y-115345237D01*
X123204819Y-115345237D02*
X123204819Y-115154761D01*
X123204819Y-115154761D02*
X123157200Y-115059523D01*
X123157200Y-115059523D02*
X123109580Y-115011904D01*
X123109580Y-115011904D02*
X123014342Y-114964285D01*
X123014342Y-114964285D02*
X122823866Y-114964285D01*
X122823866Y-114964285D02*
X122728628Y-115011904D01*
X122728628Y-115011904D02*
X122681009Y-115059523D01*
X122681009Y-115059523D02*
X122633390Y-115154761D01*
X76945833Y-148834819D02*
X76612500Y-148358628D01*
X76374405Y-148834819D02*
X76374405Y-147834819D01*
X76374405Y-147834819D02*
X76755357Y-147834819D01*
X76755357Y-147834819D02*
X76850595Y-147882438D01*
X76850595Y-147882438D02*
X76898214Y-147930057D01*
X76898214Y-147930057D02*
X76945833Y-148025295D01*
X76945833Y-148025295D02*
X76945833Y-148168152D01*
X76945833Y-148168152D02*
X76898214Y-148263390D01*
X76898214Y-148263390D02*
X76850595Y-148311009D01*
X76850595Y-148311009D02*
X76755357Y-148358628D01*
X76755357Y-148358628D02*
X76374405Y-148358628D01*
X77279167Y-147834819D02*
X77898214Y-147834819D01*
X77898214Y-147834819D02*
X77564881Y-148215771D01*
X77564881Y-148215771D02*
X77707738Y-148215771D01*
X77707738Y-148215771D02*
X77802976Y-148263390D01*
X77802976Y-148263390D02*
X77850595Y-148311009D01*
X77850595Y-148311009D02*
X77898214Y-148406247D01*
X77898214Y-148406247D02*
X77898214Y-148644342D01*
X77898214Y-148644342D02*
X77850595Y-148739580D01*
X77850595Y-148739580D02*
X77802976Y-148787200D01*
X77802976Y-148787200D02*
X77707738Y-148834819D01*
X77707738Y-148834819D02*
X77422024Y-148834819D01*
X77422024Y-148834819D02*
X77326786Y-148787200D01*
X77326786Y-148787200D02*
X77279167Y-148739580D01*
X76608333Y-143794819D02*
X76275000Y-143318628D01*
X76036905Y-143794819D02*
X76036905Y-142794819D01*
X76036905Y-142794819D02*
X76417857Y-142794819D01*
X76417857Y-142794819D02*
X76513095Y-142842438D01*
X76513095Y-142842438D02*
X76560714Y-142890057D01*
X76560714Y-142890057D02*
X76608333Y-142985295D01*
X76608333Y-142985295D02*
X76608333Y-143128152D01*
X76608333Y-143128152D02*
X76560714Y-143223390D01*
X76560714Y-143223390D02*
X76513095Y-143271009D01*
X76513095Y-143271009D02*
X76417857Y-143318628D01*
X76417857Y-143318628D02*
X76036905Y-143318628D01*
X77560714Y-143794819D02*
X76989286Y-143794819D01*
X77275000Y-143794819D02*
X77275000Y-142794819D01*
X77275000Y-142794819D02*
X77179762Y-142937676D01*
X77179762Y-142937676D02*
X77084524Y-143032914D01*
X77084524Y-143032914D02*
X76989286Y-143080533D01*
X117107142Y-116109580D02*
X117059523Y-116157200D01*
X117059523Y-116157200D02*
X116916666Y-116204819D01*
X116916666Y-116204819D02*
X116821428Y-116204819D01*
X116821428Y-116204819D02*
X116678571Y-116157200D01*
X116678571Y-116157200D02*
X116583333Y-116061961D01*
X116583333Y-116061961D02*
X116535714Y-115966723D01*
X116535714Y-115966723D02*
X116488095Y-115776247D01*
X116488095Y-115776247D02*
X116488095Y-115633390D01*
X116488095Y-115633390D02*
X116535714Y-115442914D01*
X116535714Y-115442914D02*
X116583333Y-115347676D01*
X116583333Y-115347676D02*
X116678571Y-115252438D01*
X116678571Y-115252438D02*
X116821428Y-115204819D01*
X116821428Y-115204819D02*
X116916666Y-115204819D01*
X116916666Y-115204819D02*
X117059523Y-115252438D01*
X117059523Y-115252438D02*
X117107142Y-115300057D01*
X118059523Y-116204819D02*
X117488095Y-116204819D01*
X117773809Y-116204819D02*
X117773809Y-115204819D01*
X117773809Y-115204819D02*
X117678571Y-115347676D01*
X117678571Y-115347676D02*
X117583333Y-115442914D01*
X117583333Y-115442914D02*
X117488095Y-115490533D01*
X118678571Y-115204819D02*
X118773809Y-115204819D01*
X118773809Y-115204819D02*
X118869047Y-115252438D01*
X118869047Y-115252438D02*
X118916666Y-115300057D01*
X118916666Y-115300057D02*
X118964285Y-115395295D01*
X118964285Y-115395295D02*
X119011904Y-115585771D01*
X119011904Y-115585771D02*
X119011904Y-115823866D01*
X119011904Y-115823866D02*
X118964285Y-116014342D01*
X118964285Y-116014342D02*
X118916666Y-116109580D01*
X118916666Y-116109580D02*
X118869047Y-116157200D01*
X118869047Y-116157200D02*
X118773809Y-116204819D01*
X118773809Y-116204819D02*
X118678571Y-116204819D01*
X118678571Y-116204819D02*
X118583333Y-116157200D01*
X118583333Y-116157200D02*
X118535714Y-116109580D01*
X118535714Y-116109580D02*
X118488095Y-116014342D01*
X118488095Y-116014342D02*
X118440476Y-115823866D01*
X118440476Y-115823866D02*
X118440476Y-115585771D01*
X118440476Y-115585771D02*
X118488095Y-115395295D01*
X118488095Y-115395295D02*
X118535714Y-115300057D01*
X118535714Y-115300057D02*
X118583333Y-115252438D01*
X118583333Y-115252438D02*
X118678571Y-115204819D01*
X76608333Y-146374819D02*
X76275000Y-145898628D01*
X76036905Y-146374819D02*
X76036905Y-145374819D01*
X76036905Y-145374819D02*
X76417857Y-145374819D01*
X76417857Y-145374819D02*
X76513095Y-145422438D01*
X76513095Y-145422438D02*
X76560714Y-145470057D01*
X76560714Y-145470057D02*
X76608333Y-145565295D01*
X76608333Y-145565295D02*
X76608333Y-145708152D01*
X76608333Y-145708152D02*
X76560714Y-145803390D01*
X76560714Y-145803390D02*
X76513095Y-145851009D01*
X76513095Y-145851009D02*
X76417857Y-145898628D01*
X76417857Y-145898628D02*
X76036905Y-145898628D01*
X76989286Y-145470057D02*
X77036905Y-145422438D01*
X77036905Y-145422438D02*
X77132143Y-145374819D01*
X77132143Y-145374819D02*
X77370238Y-145374819D01*
X77370238Y-145374819D02*
X77465476Y-145422438D01*
X77465476Y-145422438D02*
X77513095Y-145470057D01*
X77513095Y-145470057D02*
X77560714Y-145565295D01*
X77560714Y-145565295D02*
X77560714Y-145660533D01*
X77560714Y-145660533D02*
X77513095Y-145803390D01*
X77513095Y-145803390D02*
X76941667Y-146374819D01*
X76941667Y-146374819D02*
X77560714Y-146374819D01*
X112238095Y-124954819D02*
X112238095Y-125764342D01*
X112238095Y-125764342D02*
X112285714Y-125859580D01*
X112285714Y-125859580D02*
X112333333Y-125907200D01*
X112333333Y-125907200D02*
X112428571Y-125954819D01*
X112428571Y-125954819D02*
X112619047Y-125954819D01*
X112619047Y-125954819D02*
X112714285Y-125907200D01*
X112714285Y-125907200D02*
X112761904Y-125859580D01*
X112761904Y-125859580D02*
X112809523Y-125764342D01*
X112809523Y-125764342D02*
X112809523Y-124954819D01*
X113714285Y-125288152D02*
X113714285Y-125954819D01*
X113476190Y-124907200D02*
X113238095Y-125621485D01*
X113238095Y-125621485D02*
X113857142Y-125621485D01*
X128857142Y-117247080D02*
X128809523Y-117294700D01*
X128809523Y-117294700D02*
X128666666Y-117342319D01*
X128666666Y-117342319D02*
X128571428Y-117342319D01*
X128571428Y-117342319D02*
X128428571Y-117294700D01*
X128428571Y-117294700D02*
X128333333Y-117199461D01*
X128333333Y-117199461D02*
X128285714Y-117104223D01*
X128285714Y-117104223D02*
X128238095Y-116913747D01*
X128238095Y-116913747D02*
X128238095Y-116770890D01*
X128238095Y-116770890D02*
X128285714Y-116580414D01*
X128285714Y-116580414D02*
X128333333Y-116485176D01*
X128333333Y-116485176D02*
X128428571Y-116389938D01*
X128428571Y-116389938D02*
X128571428Y-116342319D01*
X128571428Y-116342319D02*
X128666666Y-116342319D01*
X128666666Y-116342319D02*
X128809523Y-116389938D01*
X128809523Y-116389938D02*
X128857142Y-116437557D01*
X129809523Y-117342319D02*
X129238095Y-117342319D01*
X129523809Y-117342319D02*
X129523809Y-116342319D01*
X129523809Y-116342319D02*
X129428571Y-116485176D01*
X129428571Y-116485176D02*
X129333333Y-116580414D01*
X129333333Y-116580414D02*
X129238095Y-116628033D01*
X130666666Y-116342319D02*
X130476190Y-116342319D01*
X130476190Y-116342319D02*
X130380952Y-116389938D01*
X130380952Y-116389938D02*
X130333333Y-116437557D01*
X130333333Y-116437557D02*
X130238095Y-116580414D01*
X130238095Y-116580414D02*
X130190476Y-116770890D01*
X130190476Y-116770890D02*
X130190476Y-117151842D01*
X130190476Y-117151842D02*
X130238095Y-117247080D01*
X130238095Y-117247080D02*
X130285714Y-117294700D01*
X130285714Y-117294700D02*
X130380952Y-117342319D01*
X130380952Y-117342319D02*
X130571428Y-117342319D01*
X130571428Y-117342319D02*
X130666666Y-117294700D01*
X130666666Y-117294700D02*
X130714285Y-117247080D01*
X130714285Y-117247080D02*
X130761904Y-117151842D01*
X130761904Y-117151842D02*
X130761904Y-116913747D01*
X130761904Y-116913747D02*
X130714285Y-116818509D01*
X130714285Y-116818509D02*
X130666666Y-116770890D01*
X130666666Y-116770890D02*
X130571428Y-116723271D01*
X130571428Y-116723271D02*
X130380952Y-116723271D01*
X130380952Y-116723271D02*
X130285714Y-116770890D01*
X130285714Y-116770890D02*
X130238095Y-116818509D01*
X130238095Y-116818509D02*
X130190476Y-116913747D01*
X92333333Y-135509580D02*
X92285714Y-135557200D01*
X92285714Y-135557200D02*
X92142857Y-135604819D01*
X92142857Y-135604819D02*
X92047619Y-135604819D01*
X92047619Y-135604819D02*
X91904762Y-135557200D01*
X91904762Y-135557200D02*
X91809524Y-135461961D01*
X91809524Y-135461961D02*
X91761905Y-135366723D01*
X91761905Y-135366723D02*
X91714286Y-135176247D01*
X91714286Y-135176247D02*
X91714286Y-135033390D01*
X91714286Y-135033390D02*
X91761905Y-134842914D01*
X91761905Y-134842914D02*
X91809524Y-134747676D01*
X91809524Y-134747676D02*
X91904762Y-134652438D01*
X91904762Y-134652438D02*
X92047619Y-134604819D01*
X92047619Y-134604819D02*
X92142857Y-134604819D01*
X92142857Y-134604819D02*
X92285714Y-134652438D01*
X92285714Y-134652438D02*
X92333333Y-134700057D01*
X93190476Y-134938152D02*
X93190476Y-135604819D01*
X92952381Y-134557200D02*
X92714286Y-135271485D01*
X92714286Y-135271485D02*
X93333333Y-135271485D01*
X76945833Y-151354819D02*
X76612500Y-150878628D01*
X76374405Y-151354819D02*
X76374405Y-150354819D01*
X76374405Y-150354819D02*
X76755357Y-150354819D01*
X76755357Y-150354819D02*
X76850595Y-150402438D01*
X76850595Y-150402438D02*
X76898214Y-150450057D01*
X76898214Y-150450057D02*
X76945833Y-150545295D01*
X76945833Y-150545295D02*
X76945833Y-150688152D01*
X76945833Y-150688152D02*
X76898214Y-150783390D01*
X76898214Y-150783390D02*
X76850595Y-150831009D01*
X76850595Y-150831009D02*
X76755357Y-150878628D01*
X76755357Y-150878628D02*
X76374405Y-150878628D01*
X77802976Y-150688152D02*
X77802976Y-151354819D01*
X77564881Y-150307200D02*
X77326786Y-151021485D01*
X77326786Y-151021485D02*
X77945833Y-151021485D01*
X102833333Y-135009580D02*
X102785714Y-135057200D01*
X102785714Y-135057200D02*
X102642857Y-135104819D01*
X102642857Y-135104819D02*
X102547619Y-135104819D01*
X102547619Y-135104819D02*
X102404762Y-135057200D01*
X102404762Y-135057200D02*
X102309524Y-134961961D01*
X102309524Y-134961961D02*
X102261905Y-134866723D01*
X102261905Y-134866723D02*
X102214286Y-134676247D01*
X102214286Y-134676247D02*
X102214286Y-134533390D01*
X102214286Y-134533390D02*
X102261905Y-134342914D01*
X102261905Y-134342914D02*
X102309524Y-134247676D01*
X102309524Y-134247676D02*
X102404762Y-134152438D01*
X102404762Y-134152438D02*
X102547619Y-134104819D01*
X102547619Y-134104819D02*
X102642857Y-134104819D01*
X102642857Y-134104819D02*
X102785714Y-134152438D01*
X102785714Y-134152438D02*
X102833333Y-134200057D01*
X103738095Y-134104819D02*
X103261905Y-134104819D01*
X103261905Y-134104819D02*
X103214286Y-134581009D01*
X103214286Y-134581009D02*
X103261905Y-134533390D01*
X103261905Y-134533390D02*
X103357143Y-134485771D01*
X103357143Y-134485771D02*
X103595238Y-134485771D01*
X103595238Y-134485771D02*
X103690476Y-134533390D01*
X103690476Y-134533390D02*
X103738095Y-134581009D01*
X103738095Y-134581009D02*
X103785714Y-134676247D01*
X103785714Y-134676247D02*
X103785714Y-134914342D01*
X103785714Y-134914342D02*
X103738095Y-135009580D01*
X103738095Y-135009580D02*
X103690476Y-135057200D01*
X103690476Y-135057200D02*
X103595238Y-135104819D01*
X103595238Y-135104819D02*
X103357143Y-135104819D01*
X103357143Y-135104819D02*
X103261905Y-135057200D01*
X103261905Y-135057200D02*
X103214286Y-135009580D01*
X139357142Y-117247080D02*
X139309523Y-117294700D01*
X139309523Y-117294700D02*
X139166666Y-117342319D01*
X139166666Y-117342319D02*
X139071428Y-117342319D01*
X139071428Y-117342319D02*
X138928571Y-117294700D01*
X138928571Y-117294700D02*
X138833333Y-117199461D01*
X138833333Y-117199461D02*
X138785714Y-117104223D01*
X138785714Y-117104223D02*
X138738095Y-116913747D01*
X138738095Y-116913747D02*
X138738095Y-116770890D01*
X138738095Y-116770890D02*
X138785714Y-116580414D01*
X138785714Y-116580414D02*
X138833333Y-116485176D01*
X138833333Y-116485176D02*
X138928571Y-116389938D01*
X138928571Y-116389938D02*
X139071428Y-116342319D01*
X139071428Y-116342319D02*
X139166666Y-116342319D01*
X139166666Y-116342319D02*
X139309523Y-116389938D01*
X139309523Y-116389938D02*
X139357142Y-116437557D01*
X140309523Y-117342319D02*
X139738095Y-117342319D01*
X140023809Y-117342319D02*
X140023809Y-116342319D01*
X140023809Y-116342319D02*
X139928571Y-116485176D01*
X139928571Y-116485176D02*
X139833333Y-116580414D01*
X139833333Y-116580414D02*
X139738095Y-116628033D01*
X140880952Y-116770890D02*
X140785714Y-116723271D01*
X140785714Y-116723271D02*
X140738095Y-116675652D01*
X140738095Y-116675652D02*
X140690476Y-116580414D01*
X140690476Y-116580414D02*
X140690476Y-116532795D01*
X140690476Y-116532795D02*
X140738095Y-116437557D01*
X140738095Y-116437557D02*
X140785714Y-116389938D01*
X140785714Y-116389938D02*
X140880952Y-116342319D01*
X140880952Y-116342319D02*
X141071428Y-116342319D01*
X141071428Y-116342319D02*
X141166666Y-116389938D01*
X141166666Y-116389938D02*
X141214285Y-116437557D01*
X141214285Y-116437557D02*
X141261904Y-116532795D01*
X141261904Y-116532795D02*
X141261904Y-116580414D01*
X141261904Y-116580414D02*
X141214285Y-116675652D01*
X141214285Y-116675652D02*
X141166666Y-116723271D01*
X141166666Y-116723271D02*
X141071428Y-116770890D01*
X141071428Y-116770890D02*
X140880952Y-116770890D01*
X140880952Y-116770890D02*
X140785714Y-116818509D01*
X140785714Y-116818509D02*
X140738095Y-116866128D01*
X140738095Y-116866128D02*
X140690476Y-116961366D01*
X140690476Y-116961366D02*
X140690476Y-117151842D01*
X140690476Y-117151842D02*
X140738095Y-117247080D01*
X140738095Y-117247080D02*
X140785714Y-117294700D01*
X140785714Y-117294700D02*
X140880952Y-117342319D01*
X140880952Y-117342319D02*
X141071428Y-117342319D01*
X141071428Y-117342319D02*
X141166666Y-117294700D01*
X141166666Y-117294700D02*
X141214285Y-117247080D01*
X141214285Y-117247080D02*
X141261904Y-117151842D01*
X141261904Y-117151842D02*
X141261904Y-116961366D01*
X141261904Y-116961366D02*
X141214285Y-116866128D01*
X141214285Y-116866128D02*
X141166666Y-116818509D01*
X141166666Y-116818509D02*
X141071428Y-116770890D01*
X128857142Y-121359580D02*
X128809523Y-121407200D01*
X128809523Y-121407200D02*
X128666666Y-121454819D01*
X128666666Y-121454819D02*
X128571428Y-121454819D01*
X128571428Y-121454819D02*
X128428571Y-121407200D01*
X128428571Y-121407200D02*
X128333333Y-121311961D01*
X128333333Y-121311961D02*
X128285714Y-121216723D01*
X128285714Y-121216723D02*
X128238095Y-121026247D01*
X128238095Y-121026247D02*
X128238095Y-120883390D01*
X128238095Y-120883390D02*
X128285714Y-120692914D01*
X128285714Y-120692914D02*
X128333333Y-120597676D01*
X128333333Y-120597676D02*
X128428571Y-120502438D01*
X128428571Y-120502438D02*
X128571428Y-120454819D01*
X128571428Y-120454819D02*
X128666666Y-120454819D01*
X128666666Y-120454819D02*
X128809523Y-120502438D01*
X128809523Y-120502438D02*
X128857142Y-120550057D01*
X129809523Y-121454819D02*
X129238095Y-121454819D01*
X129523809Y-121454819D02*
X129523809Y-120454819D01*
X129523809Y-120454819D02*
X129428571Y-120597676D01*
X129428571Y-120597676D02*
X129333333Y-120692914D01*
X129333333Y-120692914D02*
X129238095Y-120740533D01*
X130714285Y-120454819D02*
X130238095Y-120454819D01*
X130238095Y-120454819D02*
X130190476Y-120931009D01*
X130190476Y-120931009D02*
X130238095Y-120883390D01*
X130238095Y-120883390D02*
X130333333Y-120835771D01*
X130333333Y-120835771D02*
X130571428Y-120835771D01*
X130571428Y-120835771D02*
X130666666Y-120883390D01*
X130666666Y-120883390D02*
X130714285Y-120931009D01*
X130714285Y-120931009D02*
X130761904Y-121026247D01*
X130761904Y-121026247D02*
X130761904Y-121264342D01*
X130761904Y-121264342D02*
X130714285Y-121359580D01*
X130714285Y-121359580D02*
X130666666Y-121407200D01*
X130666666Y-121407200D02*
X130571428Y-121454819D01*
X130571428Y-121454819D02*
X130333333Y-121454819D01*
X130333333Y-121454819D02*
X130238095Y-121407200D01*
X130238095Y-121407200D02*
X130190476Y-121359580D01*
X134107142Y-117342319D02*
X133773809Y-116866128D01*
X133535714Y-117342319D02*
X133535714Y-116342319D01*
X133535714Y-116342319D02*
X133916666Y-116342319D01*
X133916666Y-116342319D02*
X134011904Y-116389938D01*
X134011904Y-116389938D02*
X134059523Y-116437557D01*
X134059523Y-116437557D02*
X134107142Y-116532795D01*
X134107142Y-116532795D02*
X134107142Y-116675652D01*
X134107142Y-116675652D02*
X134059523Y-116770890D01*
X134059523Y-116770890D02*
X134011904Y-116818509D01*
X134011904Y-116818509D02*
X133916666Y-116866128D01*
X133916666Y-116866128D02*
X133535714Y-116866128D01*
X135059523Y-117342319D02*
X134488095Y-117342319D01*
X134773809Y-117342319D02*
X134773809Y-116342319D01*
X134773809Y-116342319D02*
X134678571Y-116485176D01*
X134678571Y-116485176D02*
X134583333Y-116580414D01*
X134583333Y-116580414D02*
X134488095Y-116628033D01*
X136011904Y-117342319D02*
X135440476Y-117342319D01*
X135726190Y-117342319D02*
X135726190Y-116342319D01*
X135726190Y-116342319D02*
X135630952Y-116485176D01*
X135630952Y-116485176D02*
X135535714Y-116580414D01*
X135535714Y-116580414D02*
X135440476Y-116628033D01*
X100607142Y-141179580D02*
X100559523Y-141227200D01*
X100559523Y-141227200D02*
X100416666Y-141274819D01*
X100416666Y-141274819D02*
X100321428Y-141274819D01*
X100321428Y-141274819D02*
X100178571Y-141227200D01*
X100178571Y-141227200D02*
X100083333Y-141131961D01*
X100083333Y-141131961D02*
X100035714Y-141036723D01*
X100035714Y-141036723D02*
X99988095Y-140846247D01*
X99988095Y-140846247D02*
X99988095Y-140703390D01*
X99988095Y-140703390D02*
X100035714Y-140512914D01*
X100035714Y-140512914D02*
X100083333Y-140417676D01*
X100083333Y-140417676D02*
X100178571Y-140322438D01*
X100178571Y-140322438D02*
X100321428Y-140274819D01*
X100321428Y-140274819D02*
X100416666Y-140274819D01*
X100416666Y-140274819D02*
X100559523Y-140322438D01*
X100559523Y-140322438D02*
X100607142Y-140370057D01*
X101559523Y-141274819D02*
X100988095Y-141274819D01*
X101273809Y-141274819D02*
X101273809Y-140274819D01*
X101273809Y-140274819D02*
X101178571Y-140417676D01*
X101178571Y-140417676D02*
X101083333Y-140512914D01*
X101083333Y-140512914D02*
X100988095Y-140560533D01*
X102035714Y-141274819D02*
X102226190Y-141274819D01*
X102226190Y-141274819D02*
X102321428Y-141227200D01*
X102321428Y-141227200D02*
X102369047Y-141179580D01*
X102369047Y-141179580D02*
X102464285Y-141036723D01*
X102464285Y-141036723D02*
X102511904Y-140846247D01*
X102511904Y-140846247D02*
X102511904Y-140465295D01*
X102511904Y-140465295D02*
X102464285Y-140370057D01*
X102464285Y-140370057D02*
X102416666Y-140322438D01*
X102416666Y-140322438D02*
X102321428Y-140274819D01*
X102321428Y-140274819D02*
X102130952Y-140274819D01*
X102130952Y-140274819D02*
X102035714Y-140322438D01*
X102035714Y-140322438D02*
X101988095Y-140370057D01*
X101988095Y-140370057D02*
X101940476Y-140465295D01*
X101940476Y-140465295D02*
X101940476Y-140703390D01*
X101940476Y-140703390D02*
X101988095Y-140798628D01*
X101988095Y-140798628D02*
X102035714Y-140846247D01*
X102035714Y-140846247D02*
X102130952Y-140893866D01*
X102130952Y-140893866D02*
X102321428Y-140893866D01*
X102321428Y-140893866D02*
X102416666Y-140846247D01*
X102416666Y-140846247D02*
X102464285Y-140798628D01*
X102464285Y-140798628D02*
X102511904Y-140703390D01*
X86833333Y-135359580D02*
X86785714Y-135407200D01*
X86785714Y-135407200D02*
X86642857Y-135454819D01*
X86642857Y-135454819D02*
X86547619Y-135454819D01*
X86547619Y-135454819D02*
X86404762Y-135407200D01*
X86404762Y-135407200D02*
X86309524Y-135311961D01*
X86309524Y-135311961D02*
X86261905Y-135216723D01*
X86261905Y-135216723D02*
X86214286Y-135026247D01*
X86214286Y-135026247D02*
X86214286Y-134883390D01*
X86214286Y-134883390D02*
X86261905Y-134692914D01*
X86261905Y-134692914D02*
X86309524Y-134597676D01*
X86309524Y-134597676D02*
X86404762Y-134502438D01*
X86404762Y-134502438D02*
X86547619Y-134454819D01*
X86547619Y-134454819D02*
X86642857Y-134454819D01*
X86642857Y-134454819D02*
X86785714Y-134502438D01*
X86785714Y-134502438D02*
X86833333Y-134550057D01*
X87166667Y-134454819D02*
X87785714Y-134454819D01*
X87785714Y-134454819D02*
X87452381Y-134835771D01*
X87452381Y-134835771D02*
X87595238Y-134835771D01*
X87595238Y-134835771D02*
X87690476Y-134883390D01*
X87690476Y-134883390D02*
X87738095Y-134931009D01*
X87738095Y-134931009D02*
X87785714Y-135026247D01*
X87785714Y-135026247D02*
X87785714Y-135264342D01*
X87785714Y-135264342D02*
X87738095Y-135359580D01*
X87738095Y-135359580D02*
X87690476Y-135407200D01*
X87690476Y-135407200D02*
X87595238Y-135454819D01*
X87595238Y-135454819D02*
X87309524Y-135454819D01*
X87309524Y-135454819D02*
X87214286Y-135407200D01*
X87214286Y-135407200D02*
X87166667Y-135359580D01*
X83958333Y-133884819D02*
X83482143Y-133884819D01*
X83482143Y-133884819D02*
X83482143Y-132884819D01*
X84815476Y-133884819D02*
X84244048Y-133884819D01*
X84529762Y-133884819D02*
X84529762Y-132884819D01*
X84529762Y-132884819D02*
X84434524Y-133027676D01*
X84434524Y-133027676D02*
X84339286Y-133122914D01*
X84339286Y-133122914D02*
X84244048Y-133170533D01*
X110857142Y-120109580D02*
X110809523Y-120157200D01*
X110809523Y-120157200D02*
X110666666Y-120204819D01*
X110666666Y-120204819D02*
X110571428Y-120204819D01*
X110571428Y-120204819D02*
X110428571Y-120157200D01*
X110428571Y-120157200D02*
X110333333Y-120061961D01*
X110333333Y-120061961D02*
X110285714Y-119966723D01*
X110285714Y-119966723D02*
X110238095Y-119776247D01*
X110238095Y-119776247D02*
X110238095Y-119633390D01*
X110238095Y-119633390D02*
X110285714Y-119442914D01*
X110285714Y-119442914D02*
X110333333Y-119347676D01*
X110333333Y-119347676D02*
X110428571Y-119252438D01*
X110428571Y-119252438D02*
X110571428Y-119204819D01*
X110571428Y-119204819D02*
X110666666Y-119204819D01*
X110666666Y-119204819D02*
X110809523Y-119252438D01*
X110809523Y-119252438D02*
X110857142Y-119300057D01*
X111809523Y-120204819D02*
X111238095Y-120204819D01*
X111523809Y-120204819D02*
X111523809Y-119204819D01*
X111523809Y-119204819D02*
X111428571Y-119347676D01*
X111428571Y-119347676D02*
X111333333Y-119442914D01*
X111333333Y-119442914D02*
X111238095Y-119490533D01*
X112666666Y-119538152D02*
X112666666Y-120204819D01*
X112428571Y-119157200D02*
X112190476Y-119871485D01*
X112190476Y-119871485D02*
X112809523Y-119871485D01*
D13*
%TO.C,C1*%
X111396267Y-156240000D02*
X111103733Y-156240000D01*
X111396267Y-157260000D02*
X111103733Y-157260000D01*
%TO.C,C7*%
X111396267Y-142490000D02*
X111103733Y-142490000D01*
X111396267Y-143510000D02*
X111103733Y-143510000D01*
D14*
%TO.C,CON1*%
X146269000Y-118995000D02*
X146269000Y-120395000D01*
X146269000Y-131195000D02*
X146269000Y-129695000D01*
X146869000Y-118995000D02*
X146269000Y-118995000D01*
X146869000Y-131195000D02*
X146269000Y-131195000D01*
D13*
%TO.C,JP1*%
X61080000Y-157540000D02*
X61080000Y-142080000D01*
X63730000Y-154890000D02*
X63730000Y-157540000D01*
X63730000Y-157540000D02*
X61080000Y-157540000D01*
X66380000Y-142080000D02*
X61080000Y-142080000D01*
X66380000Y-154890000D02*
X63730000Y-154890000D01*
X66380000Y-154890000D02*
X66380000Y-142080000D01*
X66380000Y-156160000D02*
X66380000Y-157540000D01*
X66380000Y-157540000D02*
X65000000Y-157540000D01*
%TO.C,U1*%
X80085000Y-147990000D02*
X80320000Y-147990000D01*
X80085000Y-151850000D02*
X80085000Y-147990000D01*
X80085000Y-151850000D02*
X80085000Y-155710000D01*
X80085000Y-155710000D02*
X80320000Y-155710000D01*
X93105000Y-147990000D02*
X92870000Y-147990000D01*
X93105000Y-151850000D02*
X93105000Y-147990000D01*
X93105000Y-151850000D02*
X93105000Y-155710000D01*
X93105000Y-155710000D02*
X92870000Y-155710000D01*
X80320000Y-156562500D02*
X79850000Y-156902500D01*
X79850000Y-156222500D01*
X80320000Y-156562500D01*
G36*
X80320000Y-156562500D02*
G01*
X79850000Y-156902500D01*
X79850000Y-156222500D01*
X80320000Y-156562500D01*
G37*
%TO.C,C11*%
X125490000Y-128353733D02*
X125490000Y-128646267D01*
X126510000Y-128353733D02*
X126510000Y-128646267D01*
%TO.C,C8*%
X115990000Y-131216233D02*
X115990000Y-131508767D01*
X117010000Y-131216233D02*
X117010000Y-131508767D01*
%TO.C,C12*%
X118740000Y-131216233D02*
X118740000Y-131508767D01*
X119760000Y-131216233D02*
X119760000Y-131508767D01*
%TO.C,U2*%
X113690000Y-148140000D02*
X113980000Y-148140000D01*
X113690000Y-152000000D02*
X113690000Y-148140000D01*
X113690000Y-152000000D02*
X113690000Y-155860000D01*
X113690000Y-155860000D02*
X113980000Y-155860000D01*
X129310000Y-148140000D02*
X129020000Y-148140000D01*
X129310000Y-152000000D02*
X129310000Y-148140000D01*
X129310000Y-152000000D02*
X129310000Y-155860000D01*
X129310000Y-155860000D02*
X129020000Y-155860000D01*
X113980000Y-156700000D02*
X113510000Y-157040000D01*
X113510000Y-156360000D01*
X113980000Y-156700000D01*
G36*
X113980000Y-156700000D02*
G01*
X113510000Y-157040000D01*
X113510000Y-156360000D01*
X113980000Y-156700000D01*
G37*
%TO.C,C6*%
X80146267Y-144490000D02*
X79853733Y-144490000D01*
X80146267Y-145510000D02*
X79853733Y-145510000D01*
%TO.C,Y1*%
X99280000Y-143950000D02*
X99340000Y-143950000D01*
X99280000Y-149550000D02*
X99280000Y-143950000D01*
X99340000Y-149550000D02*
X99280000Y-149550000D01*
X99340000Y-150010000D02*
X99340000Y-149550000D01*
X101660000Y-143950000D02*
X104420000Y-143950000D01*
X101660000Y-149550000D02*
X101660000Y-150010000D01*
X104420000Y-149550000D02*
X101660000Y-149550000D01*
X106740000Y-143950000D02*
X106800000Y-143950000D01*
X106800000Y-143950000D02*
X106800000Y-149550000D01*
X106800000Y-149550000D02*
X106740000Y-149550000D01*
%TO.C,L2*%
X97828733Y-136490000D02*
X98171267Y-136490000D01*
X97828733Y-137510000D02*
X98171267Y-137510000D01*
%TO.C,U3*%
X113740000Y-137615000D02*
X113995000Y-137615000D01*
X113740000Y-140000000D02*
X113740000Y-137615000D01*
X113740000Y-140000000D02*
X113740000Y-142385000D01*
X113740000Y-142385000D02*
X113995000Y-142385000D01*
X124260000Y-137615000D02*
X124005000Y-137615000D01*
X124260000Y-140000000D02*
X124260000Y-137615000D01*
X124260000Y-140000000D02*
X124260000Y-142385000D01*
X124260000Y-142385000D02*
X124005000Y-142385000D01*
X113995000Y-143162500D02*
X113665000Y-143402500D01*
X113665000Y-142922500D01*
X113995000Y-143162500D01*
G36*
X113995000Y-143162500D02*
G01*
X113665000Y-143402500D01*
X113665000Y-142922500D01*
X113995000Y-143162500D01*
G37*
%TO.C,C2*%
X81353733Y-136490000D02*
X81646267Y-136490000D01*
X81353733Y-137510000D02*
X81646267Y-137510000D01*
D15*
%TO.C,G2*%
G36*
X101512637Y-122632728D02*
G01*
X101602881Y-122643579D01*
X101675264Y-122665597D01*
X101723208Y-122688503D01*
X101823084Y-122757819D01*
X101898971Y-122841442D01*
X101940095Y-122926194D01*
X101944409Y-122959068D01*
X101927424Y-123046992D01*
X101879703Y-123165420D01*
X101806092Y-123305469D01*
X101711440Y-123458254D01*
X101600595Y-123614891D01*
X101552925Y-123676489D01*
X101513466Y-123730293D01*
X101493728Y-123765315D01*
X101493207Y-123768144D01*
X101479164Y-123794707D01*
X101440374Y-123857400D01*
X101381845Y-123948394D01*
X101308587Y-124059861D01*
X101257919Y-124135890D01*
X101093661Y-124382474D01*
X100934181Y-124624489D01*
X100784552Y-124854098D01*
X100649849Y-125063469D01*
X100535148Y-125244765D01*
X100445886Y-125389550D01*
X100369747Y-125513237D01*
X100280016Y-125655539D01*
X100192765Y-125791052D01*
X100168884Y-125827481D01*
X100101046Y-125931618D01*
X100040418Y-126026887D01*
X99995639Y-126099610D01*
X99980354Y-126126030D01*
X99938204Y-126200753D01*
X99876938Y-126306169D01*
X99802842Y-126431787D01*
X99722205Y-126567118D01*
X99641311Y-126701672D01*
X99566449Y-126824958D01*
X99503905Y-126926488D01*
X99459966Y-126995770D01*
X99451440Y-127008568D01*
X99400057Y-127086735D01*
X99335847Y-127188163D01*
X99274982Y-127287165D01*
X99220792Y-127376738D01*
X99174770Y-127452535D01*
X99146031Y-127499546D01*
X99144304Y-127502335D01*
X99119684Y-127545430D01*
X99078547Y-127620806D01*
X99028937Y-127713685D01*
X99018646Y-127733175D01*
X98976016Y-127815423D01*
X98949256Y-127878391D01*
X98943309Y-127924918D01*
X98963122Y-127957841D01*
X99013637Y-127979999D01*
X99099800Y-127994231D01*
X99226554Y-128003374D01*
X99398844Y-128010266D01*
X99507673Y-128013890D01*
X99695668Y-128020522D01*
X99849903Y-128027381D01*
X99983897Y-128035707D01*
X100111170Y-128046737D01*
X100245242Y-128061710D01*
X100399632Y-128081863D01*
X100587860Y-128108435D01*
X100670428Y-128120379D01*
X100804839Y-128140135D01*
X100919067Y-128157728D01*
X101024726Y-128175269D01*
X101133431Y-128194870D01*
X101256797Y-128218641D01*
X101406440Y-128248694D01*
X101593973Y-128287140D01*
X101639184Y-128296463D01*
X101902577Y-128351771D01*
X102118118Y-128399532D01*
X102290257Y-128441264D01*
X102423446Y-128478483D01*
X102522135Y-128512708D01*
X102590776Y-128545455D01*
X102633818Y-128578242D01*
X102655713Y-128612586D01*
X102661023Y-128644802D01*
X102644120Y-128683739D01*
X102598384Y-128751138D01*
X102531275Y-128836722D01*
X102468599Y-128909822D01*
X102370181Y-129022484D01*
X102267240Y-129143711D01*
X102175912Y-129254376D01*
X102139799Y-129299574D01*
X102036565Y-129417385D01*
X101934889Y-129501273D01*
X101849760Y-129550807D01*
X101784208Y-129582644D01*
X101727865Y-129604225D01*
X101668196Y-129617415D01*
X101592666Y-129624083D01*
X101488741Y-129626094D01*
X101349145Y-129625364D01*
X101201153Y-129622121D01*
X101056015Y-129615632D01*
X100930580Y-129606842D01*
X100842946Y-129596900D01*
X100750648Y-129583100D01*
X100623819Y-129565304D01*
X100480614Y-129546015D01*
X100365203Y-129531031D01*
X100222027Y-129512295D01*
X100080541Y-129492905D01*
X99958901Y-129475397D01*
X99887460Y-129464346D01*
X99636075Y-129428806D01*
X99346459Y-129397445D01*
X99032655Y-129371090D01*
X98708706Y-129350569D01*
X98388656Y-129336712D01*
X98086549Y-129330345D01*
X97816427Y-129332296D01*
X97711075Y-129336015D01*
X97482049Y-129347972D01*
X97297415Y-129361333D01*
X97148483Y-129377484D01*
X97026565Y-129397812D01*
X96922970Y-129423703D01*
X96829009Y-129456543D01*
X96755589Y-129488445D01*
X96586320Y-129565180D01*
X96452226Y-129620226D01*
X96341941Y-129657415D01*
X96244096Y-129680582D01*
X96147322Y-129693557D01*
X96147168Y-129693571D01*
X96050918Y-129699307D01*
X95987728Y-129692353D01*
X95938372Y-129669166D01*
X95912904Y-129650404D01*
X95864609Y-129601230D01*
X95843608Y-129541470D01*
X95839916Y-129473923D01*
X95842806Y-129415710D01*
X95853873Y-129358190D01*
X95876706Y-129294221D01*
X95914898Y-129216661D01*
X95972039Y-129118366D01*
X96051721Y-128992196D01*
X96157535Y-128831007D01*
X96180812Y-128795951D01*
X96291328Y-128631387D01*
X96381560Y-128504503D01*
X96459935Y-128408333D01*
X96534880Y-128335909D01*
X96614824Y-128280265D01*
X96708193Y-128234433D01*
X96823416Y-128191447D01*
X96968919Y-128144340D01*
X96969091Y-128144286D01*
X97102946Y-128101353D01*
X97221770Y-128061818D01*
X97314756Y-128029380D01*
X97371098Y-128007738D01*
X97379317Y-128003862D01*
X97410566Y-127973134D01*
X97464148Y-127905758D01*
X97534008Y-127809940D01*
X97614092Y-127693886D01*
X97668400Y-127612040D01*
X97765086Y-127464870D01*
X97867356Y-127310575D01*
X97964912Y-127164603D01*
X98047457Y-127042406D01*
X98070583Y-127008568D01*
X98143400Y-126901475D01*
X98235682Y-126764246D01*
X98337865Y-126611187D01*
X98440384Y-126456602D01*
X98490367Y-126380795D01*
X98595503Y-126221334D01*
X98718268Y-126035725D01*
X98846758Y-125841929D01*
X98969070Y-125657910D01*
X99031504Y-125564214D01*
X99119812Y-125430968D01*
X99197007Y-125312816D01*
X99258567Y-125216819D01*
X99299967Y-125150041D01*
X99316683Y-125119543D01*
X99316823Y-125118776D01*
X99333074Y-125088351D01*
X99367832Y-125046224D01*
X99395493Y-125010276D01*
X99448024Y-124936247D01*
X99521132Y-124830412D01*
X99610522Y-124699043D01*
X99711901Y-124548413D01*
X99820973Y-124384794D01*
X99832303Y-124367711D01*
X99944145Y-124199098D01*
X100050467Y-124039003D01*
X100146545Y-123894524D01*
X100227655Y-123772757D01*
X100289075Y-123680801D01*
X100326080Y-123625752D01*
X100326892Y-123624556D01*
X100374949Y-123553096D01*
X100442420Y-123451842D01*
X100519607Y-123335384D01*
X100582733Y-123239707D01*
X100681154Y-123092159D01*
X100759276Y-122981138D01*
X100824568Y-122897928D01*
X100884500Y-122833816D01*
X100946542Y-122780089D01*
X101018164Y-122728032D01*
X101025866Y-122722769D01*
X101096089Y-122677346D01*
X101154223Y-122649895D01*
X101217954Y-122635873D01*
X101304966Y-122630738D01*
X101387042Y-122630003D01*
X101512637Y-122632728D01*
G37*
G36*
X89002190Y-122569786D02*
G01*
X89039566Y-122572660D01*
X89231093Y-122615537D01*
X89415018Y-122705789D01*
X89583861Y-122837706D01*
X89730146Y-123005580D01*
X89834952Y-123179881D01*
X89884418Y-123283447D01*
X89910796Y-123354285D01*
X89915716Y-123406638D01*
X89900810Y-123454753D01*
X89872242Y-123505470D01*
X89826008Y-123559925D01*
X89755329Y-123601224D01*
X89664781Y-123632980D01*
X89508305Y-123685023D01*
X89381691Y-123737577D01*
X89290995Y-123787499D01*
X89242277Y-123831642D01*
X89235954Y-123855562D01*
X89250750Y-123879345D01*
X89290748Y-123897969D01*
X89365132Y-123914205D01*
X89483084Y-123930825D01*
X89486736Y-123931278D01*
X89629584Y-123953294D01*
X89735961Y-123983452D01*
X89822476Y-124029711D01*
X89905742Y-124100029D01*
X89963490Y-124159708D01*
X90029520Y-124239418D01*
X90088964Y-124324508D01*
X90098973Y-124341170D01*
X90131283Y-124409494D01*
X90165154Y-124499979D01*
X90196212Y-124597844D01*
X90220082Y-124688309D01*
X90232390Y-124756594D01*
X90230622Y-124785951D01*
X90228083Y-124821103D01*
X90234161Y-124890877D01*
X90242958Y-124951619D01*
X90252682Y-125043234D01*
X90251413Y-125146215D01*
X90238131Y-125271109D01*
X90211816Y-125428459D01*
X90182661Y-125575339D01*
X90134077Y-125773572D01*
X90068747Y-125988224D01*
X89992270Y-126204047D01*
X89910243Y-126405791D01*
X89828264Y-126578206D01*
X89788081Y-126650261D01*
X89764183Y-126695058D01*
X89727115Y-126769558D01*
X89695819Y-126834680D01*
X89655914Y-126913727D01*
X89610087Y-126992024D01*
X89552291Y-127078236D01*
X89476476Y-127181029D01*
X89376596Y-127309068D01*
X89284221Y-127424441D01*
X89205343Y-127522879D01*
X89133537Y-127613539D01*
X89078941Y-127683569D01*
X89058620Y-127710395D01*
X88948855Y-127846592D01*
X88807810Y-128002557D01*
X88644242Y-128170173D01*
X88466906Y-128341319D01*
X88284560Y-128507876D01*
X88105960Y-128661726D01*
X87939863Y-128794749D01*
X87795026Y-128898825D01*
X87738499Y-128934420D01*
X87644492Y-128991166D01*
X87564955Y-129041034D01*
X87513607Y-129075368D01*
X87505955Y-129081177D01*
X87453107Y-129115824D01*
X87362115Y-129166816D01*
X87243372Y-129229004D01*
X87107269Y-129297241D01*
X86964201Y-129366378D01*
X86824559Y-129431267D01*
X86698736Y-129486761D01*
X86630093Y-129515035D01*
X86534108Y-129551587D01*
X86438878Y-129584208D01*
X86335038Y-129615440D01*
X86213224Y-129647824D01*
X86064071Y-129683900D01*
X85878216Y-129726211D01*
X85735843Y-129757700D01*
X85594381Y-129775115D01*
X85408708Y-129775870D01*
X85185003Y-129759989D01*
X85143782Y-129755652D01*
X84901258Y-129708750D01*
X84658506Y-129625214D01*
X84463045Y-129526941D01*
X84248813Y-129369161D01*
X84055234Y-129168387D01*
X83886018Y-128931927D01*
X83744874Y-128667093D01*
X83635511Y-128381196D01*
X83608099Y-128270000D01*
X84610651Y-128270000D01*
X84623988Y-128492336D01*
X84664141Y-128669999D01*
X84732196Y-128804745D01*
X84829240Y-128898331D01*
X84956358Y-128952515D01*
X85041148Y-128966308D01*
X85118291Y-128973545D01*
X85173334Y-128979382D01*
X85183594Y-128980730D01*
X85221595Y-128979278D01*
X85296244Y-128971559D01*
X85391701Y-128959224D01*
X85395924Y-128958630D01*
X85583375Y-128918382D01*
X85800527Y-128848649D01*
X86036697Y-128754397D01*
X86281205Y-128640595D01*
X86523367Y-128512210D01*
X86752503Y-128374209D01*
X86955626Y-128233297D01*
X87051769Y-128157474D01*
X87170627Y-128058475D01*
X87303242Y-127944313D01*
X87440658Y-127822996D01*
X87573918Y-127702537D01*
X87694063Y-127590946D01*
X87792139Y-127496235D01*
X87859187Y-127426413D01*
X87864215Y-127420676D01*
X87919371Y-127358715D01*
X87997295Y-127273498D01*
X88084101Y-127180161D01*
X88114719Y-127147626D01*
X88195295Y-127060297D01*
X88265701Y-126980361D01*
X88314957Y-126920428D01*
X88327049Y-126903723D01*
X88360649Y-126854645D01*
X88415914Y-126775946D01*
X88483406Y-126681021D01*
X88518056Y-126632676D01*
X88741550Y-126294210D01*
X88934428Y-125945527D01*
X89092095Y-125596343D01*
X89209957Y-125256374D01*
X89258215Y-125067485D01*
X89270311Y-124962656D01*
X89267775Y-124843769D01*
X89252680Y-124728730D01*
X89227095Y-124635444D01*
X89203181Y-124591606D01*
X89154578Y-124558143D01*
X89072661Y-124523541D01*
X88976662Y-124494175D01*
X88885813Y-124476425D01*
X88848197Y-124473898D01*
X88691674Y-124487935D01*
X88497410Y-124528507D01*
X88272296Y-124593415D01*
X88023225Y-124680460D01*
X87757087Y-124787442D01*
X87492685Y-124906504D01*
X87295059Y-125006997D01*
X87073134Y-125131334D01*
X86840099Y-125271229D01*
X86609144Y-125418399D01*
X86393460Y-125564557D01*
X86206238Y-125701418D01*
X86125809Y-125765094D01*
X85929186Y-125932770D01*
X85739012Y-126107057D01*
X85562856Y-126280267D01*
X85408288Y-126444715D01*
X85282875Y-126592714D01*
X85203903Y-126701297D01*
X85136401Y-126803527D01*
X85074953Y-126893739D01*
X85028193Y-126959398D01*
X85010579Y-126982027D01*
X84937166Y-127088235D01*
X84860147Y-127235174D01*
X84784416Y-127411174D01*
X84714864Y-127604569D01*
X84656385Y-127803689D01*
X84642373Y-127860089D01*
X84628456Y-127946398D01*
X84617665Y-128066214D01*
X84611513Y-128199985D01*
X84610651Y-128270000D01*
X83608099Y-128270000D01*
X83561641Y-128081546D01*
X83526973Y-127775454D01*
X83524764Y-127677967D01*
X83530641Y-127455116D01*
X83550725Y-127259573D01*
X83588696Y-127066614D01*
X83647382Y-126854317D01*
X83676767Y-126755073D01*
X83698873Y-126675080D01*
X83709943Y-126628111D01*
X83710553Y-126622745D01*
X83720996Y-126587724D01*
X83748313Y-126518561D01*
X83786487Y-126429005D01*
X83829498Y-126332808D01*
X83871331Y-126243721D01*
X83905965Y-126175492D01*
X83907597Y-126172518D01*
X83942252Y-126108846D01*
X83987501Y-126024638D01*
X84007715Y-125986729D01*
X84171525Y-125714668D01*
X84379144Y-125429262D01*
X84624952Y-125136530D01*
X84903332Y-124842486D01*
X85208666Y-124553147D01*
X85535335Y-124274529D01*
X85793840Y-124074079D01*
X85925388Y-123977336D01*
X86047556Y-123889283D01*
X86151924Y-123815851D01*
X86230070Y-123762971D01*
X86271583Y-123737565D01*
X86332725Y-123703102D01*
X86420463Y-123649915D01*
X86517210Y-123588701D01*
X86530232Y-123580256D01*
X86620673Y-123523072D01*
X86698641Y-123476752D01*
X86749819Y-123449733D01*
X86755833Y-123447297D01*
X86817740Y-123415326D01*
X86842423Y-123397448D01*
X86893033Y-123364560D01*
X86983038Y-123315290D01*
X87103033Y-123254142D01*
X87243611Y-123185616D01*
X87395366Y-123114214D01*
X87548891Y-123044440D01*
X87694781Y-122980793D01*
X87823629Y-122927777D01*
X87824451Y-122927453D01*
X88072832Y-122830110D01*
X88278026Y-122751200D01*
X88445949Y-122688993D01*
X88582520Y-122641764D01*
X88693655Y-122607782D01*
X88785272Y-122585322D01*
X88863288Y-122572654D01*
X88933622Y-122568051D01*
X89002190Y-122569786D01*
G37*
G36*
X94776100Y-122555451D02*
G01*
X95050972Y-122562060D01*
X95312402Y-122575296D01*
X95388714Y-122580741D01*
X95607929Y-122598564D01*
X95785584Y-122615903D01*
X95933145Y-122634742D01*
X96062076Y-122657063D01*
X96183843Y-122684850D01*
X96309911Y-122720088D01*
X96451086Y-122764545D01*
X96772076Y-122887817D01*
X97045628Y-123033436D01*
X97272962Y-123202534D01*
X97455297Y-123396242D01*
X97593853Y-123615691D01*
X97689851Y-123862013D01*
X97707793Y-123929780D01*
X97745306Y-124121917D01*
X97771385Y-124332362D01*
X97785522Y-124547291D01*
X97787207Y-124752884D01*
X97775934Y-124935319D01*
X97751192Y-125080774D01*
X97750262Y-125084326D01*
X97730615Y-125160858D01*
X97705032Y-125263659D01*
X97684789Y-125346752D01*
X97590107Y-125631215D01*
X97444852Y-125913421D01*
X97251532Y-126190451D01*
X97012653Y-126459384D01*
X96730721Y-126717300D01*
X96408244Y-126961280D01*
X96161831Y-127120931D01*
X96086274Y-127165972D01*
X96030834Y-127197319D01*
X96009074Y-127207628D01*
X95982772Y-127218491D01*
X95917619Y-127248304D01*
X95822551Y-127292903D01*
X95706504Y-127348123D01*
X95666802Y-127367161D01*
X95478634Y-127455853D01*
X95330482Y-127521480D01*
X95215835Y-127566535D01*
X95128182Y-127593510D01*
X95061013Y-127604897D01*
X95043677Y-127605648D01*
X94978873Y-127613752D01*
X94890787Y-127633505D01*
X94848301Y-127645465D01*
X94673562Y-127689075D01*
X94454308Y-127728575D01*
X94199001Y-127763187D01*
X93916105Y-127792133D01*
X93614082Y-127814633D01*
X93301395Y-127829909D01*
X92986507Y-127837182D01*
X92766292Y-127837061D01*
X92253901Y-127831348D01*
X92202885Y-127897701D01*
X92155791Y-127968677D01*
X92110479Y-128051237D01*
X92107729Y-128056948D01*
X92064893Y-128138653D01*
X92020399Y-128211758D01*
X92017348Y-128216196D01*
X91972425Y-128285236D01*
X91923834Y-128366158D01*
X91918539Y-128375444D01*
X91797607Y-128582408D01*
X91670607Y-128787698D01*
X91542945Y-128983411D01*
X91420025Y-129161646D01*
X91307253Y-129314502D01*
X91210035Y-129434076D01*
X91152476Y-129495343D01*
X90997668Y-129622819D01*
X90851048Y-129698491D01*
X90711166Y-129722757D01*
X90576568Y-129696014D01*
X90519175Y-129668490D01*
X90397587Y-129570964D01*
X90315004Y-129442305D01*
X90274347Y-129290313D01*
X90278540Y-129122790D01*
X90291463Y-129060684D01*
X90329661Y-128952003D01*
X90396853Y-128806937D01*
X90489993Y-128631421D01*
X90606033Y-128431391D01*
X90660092Y-128342747D01*
X90711836Y-128257899D01*
X90750594Y-128192182D01*
X90769639Y-128157071D01*
X90770532Y-128154398D01*
X90783220Y-128128954D01*
X90817370Y-128068304D01*
X90867109Y-127982749D01*
X90903219Y-127921683D01*
X90960163Y-127822568D01*
X91004882Y-127738274D01*
X91031333Y-127680543D01*
X91035925Y-127663751D01*
X91017113Y-127625187D01*
X90970620Y-127574331D01*
X90958385Y-127563598D01*
X90901457Y-127501353D01*
X90842005Y-127414722D01*
X90813658Y-127363551D01*
X90776068Y-127278862D01*
X90758380Y-127204819D01*
X90756405Y-127116841D01*
X90760600Y-127052314D01*
X90792529Y-126862216D01*
X90856892Y-126710761D01*
X90927171Y-126627633D01*
X92980125Y-126627633D01*
X92992020Y-126677666D01*
X93049770Y-126722581D01*
X93146166Y-126758715D01*
X93274000Y-126782410D01*
X93287857Y-126783915D01*
X93462447Y-126797222D01*
X93655909Y-126804410D01*
X93854810Y-126805658D01*
X94045716Y-126801147D01*
X94215195Y-126791059D01*
X94349812Y-126775574D01*
X94385046Y-126769155D01*
X94529033Y-126734465D01*
X94700403Y-126685934D01*
X94879998Y-126629608D01*
X95048660Y-126571534D01*
X95187232Y-126517758D01*
X95202925Y-126511011D01*
X95313556Y-126461160D01*
X95439008Y-126402196D01*
X95570081Y-126338740D01*
X95697570Y-126275412D01*
X95812276Y-126216836D01*
X95904995Y-126167630D01*
X95966525Y-126132418D01*
X95987356Y-126117067D01*
X96018078Y-126088373D01*
X96077720Y-126045250D01*
X96114195Y-126021565D01*
X96274033Y-125906757D01*
X96438596Y-125763215D01*
X96587901Y-125609190D01*
X96656814Y-125525923D01*
X96735938Y-125419610D01*
X96816570Y-125305331D01*
X96892595Y-125192480D01*
X96957897Y-125090453D01*
X97006359Y-125008647D01*
X97031867Y-124956455D01*
X97034273Y-124946048D01*
X97042762Y-124901622D01*
X97063368Y-124835162D01*
X97065085Y-124830367D01*
X97080443Y-124714581D01*
X97052179Y-124590658D01*
X96984921Y-124472594D01*
X96925601Y-124408416D01*
X96841853Y-124340982D01*
X96744034Y-124279858D01*
X96622969Y-124220606D01*
X96469483Y-124158786D01*
X96274399Y-124089959D01*
X96251305Y-124082204D01*
X96033021Y-124011786D01*
X95850999Y-123959990D01*
X95692702Y-123924552D01*
X95545592Y-123903206D01*
X95397131Y-123893688D01*
X95234782Y-123893732D01*
X95211360Y-123894340D01*
X95069030Y-123900143D01*
X94958587Y-123912432D01*
X94870522Y-123937268D01*
X94795326Y-123980712D01*
X94723492Y-124048823D01*
X94645512Y-124147664D01*
X94551877Y-124283295D01*
X94515369Y-124337991D01*
X94398253Y-124513495D01*
X94273890Y-124698922D01*
X94146982Y-124887345D01*
X94022230Y-125071836D01*
X93904338Y-125245467D01*
X93798005Y-125401311D01*
X93707935Y-125532440D01*
X93638828Y-125631926D01*
X93601563Y-125684398D01*
X93531558Y-125782906D01*
X93449622Y-125901449D01*
X93360973Y-126032105D01*
X93270829Y-126166954D01*
X93184410Y-126298074D01*
X93106935Y-126417544D01*
X93043621Y-126517443D01*
X92999688Y-126589851D01*
X92980355Y-126626845D01*
X92980125Y-126627633D01*
X90927171Y-126627633D01*
X90957260Y-126592043D01*
X91093070Y-126502235D01*
X91203494Y-126458532D01*
X91348007Y-126418313D01*
X91507619Y-126385587D01*
X91663340Y-126364359D01*
X91775087Y-126358343D01*
X91860842Y-126350142D01*
X91924104Y-126317186D01*
X91969478Y-126273771D01*
X92035021Y-126193877D01*
X92093542Y-126107324D01*
X92100838Y-126094617D01*
X92141382Y-126027619D01*
X92201603Y-125935353D01*
X92269924Y-125835457D01*
X92284890Y-125814211D01*
X92356891Y-125711168D01*
X92444895Y-125583107D01*
X92535690Y-125449330D01*
X92589564Y-125369026D01*
X92678388Y-125237446D01*
X92776227Y-125095038D01*
X92868388Y-124963088D01*
X92914465Y-124898326D01*
X92990844Y-124790403D01*
X93064934Y-124682882D01*
X93124670Y-124593371D01*
X93142197Y-124565987D01*
X93193677Y-124487140D01*
X93263683Y-124384215D01*
X93339395Y-124275976D01*
X93361163Y-124245471D01*
X93432265Y-124144033D01*
X93481065Y-124064456D01*
X93503927Y-124004986D01*
X93497210Y-123963869D01*
X93457277Y-123939352D01*
X93380490Y-123929680D01*
X93263210Y-123933101D01*
X93101799Y-123947860D01*
X92892619Y-123972204D01*
X92814210Y-123981829D01*
X92714525Y-123998627D01*
X92578697Y-124027595D01*
X92421232Y-124065027D01*
X92256641Y-124107214D01*
X92099430Y-124150449D01*
X91964108Y-124191026D01*
X91871995Y-124222600D01*
X91763738Y-124263782D01*
X91659849Y-124303038D01*
X91584208Y-124331350D01*
X91489998Y-124369929D01*
X91392239Y-124415148D01*
X91379571Y-124421513D01*
X91241481Y-124464654D01*
X91119876Y-124473876D01*
X91004341Y-124465300D01*
X90935585Y-124437878D01*
X90909870Y-124389065D01*
X90916897Y-124335808D01*
X90950312Y-124260023D01*
X91012863Y-124152071D01*
X91098701Y-124019712D01*
X91201978Y-123870702D01*
X91316847Y-123712801D01*
X91437458Y-123553765D01*
X91557965Y-123401352D01*
X91672519Y-123263321D01*
X91775271Y-123147430D01*
X91860375Y-123061436D01*
X91906475Y-123023068D01*
X92001653Y-122968769D01*
X92119963Y-122919386D01*
X92201009Y-122894556D01*
X92311517Y-122866531D01*
X92447834Y-122831306D01*
X92584510Y-122795471D01*
X92615151Y-122787349D01*
X92737461Y-122756532D01*
X92855719Y-122729609D01*
X92949903Y-122711049D01*
X92973458Y-122707358D01*
X93067720Y-122691491D01*
X93154325Y-122672452D01*
X93172517Y-122667481D01*
X93309184Y-122636790D01*
X93490484Y-122610454D01*
X93708120Y-122588796D01*
X93953796Y-122572143D01*
X94219216Y-122560818D01*
X94496083Y-122555146D01*
X94776100Y-122555451D01*
G37*
D13*
%TO.C,R6*%
X74057776Y-155497500D02*
X74567224Y-155497500D01*
X74057776Y-156542500D02*
X74567224Y-156542500D01*
%TO.C,C13*%
X124490000Y-118353733D02*
X124490000Y-118646267D01*
X125510000Y-118353733D02*
X125510000Y-118646267D01*
%TO.C,R10*%
X136477500Y-120995276D02*
X136477500Y-121504724D01*
X137522500Y-120995276D02*
X137522500Y-121504724D01*
%TO.C,C9*%
X119990000Y-118646267D02*
X119990000Y-118353733D01*
X121010000Y-118646267D02*
X121010000Y-118353733D01*
%TO.C,R5*%
X74057776Y-152987500D02*
X74567224Y-152987500D01*
X74057776Y-154032500D02*
X74567224Y-154032500D01*
%TO.C,R9*%
X115092224Y-116977500D02*
X114582776Y-116977500D01*
X115092224Y-118022500D02*
X114582776Y-118022500D01*
%TO.C,C17*%
X141740000Y-121146267D02*
X141740000Y-120853733D01*
X142760000Y-121146267D02*
X142760000Y-120853733D01*
%TO.C,R7*%
X121727500Y-131667224D02*
X121727500Y-131157776D01*
X122772500Y-131667224D02*
X122772500Y-131157776D01*
%TO.C,R8*%
X122227500Y-118754724D02*
X122227500Y-118245276D01*
X123272500Y-118754724D02*
X123272500Y-118245276D01*
%TO.C,R3*%
X74057776Y-147967500D02*
X74567224Y-147967500D01*
X74057776Y-149012500D02*
X74567224Y-149012500D01*
%TO.C,R1*%
X73882776Y-142947500D02*
X74392224Y-142947500D01*
X73882776Y-143992500D02*
X74392224Y-143992500D01*
%TO.C,C10*%
X117240000Y-118646267D02*
X117240000Y-118353733D01*
X118260000Y-118646267D02*
X118260000Y-118353733D01*
%TO.C,R2*%
X73882776Y-145537500D02*
X74392224Y-145537500D01*
X73882776Y-146582500D02*
X74392224Y-146582500D01*
%TO.C,U4*%
X114702500Y-125500000D02*
X114702500Y-123550000D01*
X114702500Y-125500000D02*
X114702500Y-127450000D01*
X123572500Y-125500000D02*
X123572500Y-123550000D01*
X123572500Y-125500000D02*
X123572500Y-127450000D01*
X114767500Y-128200000D02*
X114437500Y-128440000D01*
X114437500Y-127960000D01*
X114767500Y-128200000D01*
G36*
X114767500Y-128200000D02*
G01*
X114437500Y-128440000D01*
X114437500Y-127960000D01*
X114767500Y-128200000D01*
G37*
D15*
%TO.C,G1*%
G36*
X78079491Y-121386801D02*
G01*
X78128522Y-121426141D01*
X78164071Y-121481021D01*
X78172363Y-121530158D01*
X78154648Y-121566345D01*
X78106629Y-121581484D01*
X78077537Y-121583291D01*
X77705570Y-121596562D01*
X77317933Y-121614874D01*
X76909708Y-121638581D01*
X76475979Y-121668036D01*
X76011829Y-121703593D01*
X75512341Y-121745606D01*
X74972600Y-121794427D01*
X74461477Y-121843200D01*
X74237354Y-121864562D01*
X73997464Y-121886592D01*
X73755324Y-121908106D01*
X73524450Y-121927919D01*
X73318358Y-121944848D01*
X73172709Y-121956090D01*
X72961586Y-121972227D01*
X72795312Y-121986390D01*
X72668760Y-121999321D01*
X72576804Y-122011766D01*
X72514318Y-122024466D01*
X72476174Y-122038167D01*
X72457247Y-122053610D01*
X72453940Y-122060347D01*
X72472353Y-122077878D01*
X72538428Y-122092894D01*
X72639753Y-122104052D01*
X72716812Y-122108081D01*
X72839358Y-122111635D01*
X73002833Y-122114718D01*
X73202679Y-122117337D01*
X73434335Y-122119498D01*
X73693244Y-122121205D01*
X73974845Y-122122466D01*
X74274581Y-122123285D01*
X74587892Y-122123668D01*
X74910220Y-122123621D01*
X75237004Y-122123149D01*
X75563687Y-122122258D01*
X75885709Y-122120955D01*
X76198512Y-122119244D01*
X76497536Y-122117131D01*
X76778223Y-122114622D01*
X77036013Y-122111723D01*
X77266347Y-122108439D01*
X77464667Y-122104777D01*
X77626414Y-122100740D01*
X77714679Y-122097726D01*
X78465418Y-122067821D01*
X78510263Y-122122365D01*
X78540982Y-122175928D01*
X78547476Y-122216631D01*
X78538888Y-122229735D01*
X78514858Y-122240640D01*
X78469672Y-122250014D01*
X78397619Y-122258522D01*
X78292986Y-122266831D01*
X78150059Y-122275608D01*
X77963127Y-122285517D01*
X77952090Y-122286076D01*
X77735585Y-122297734D01*
X77489236Y-122312163D01*
X77233086Y-122328117D01*
X76987178Y-122344348D01*
X76776256Y-122359259D01*
X76606425Y-122371771D01*
X76450409Y-122383191D01*
X76316101Y-122392948D01*
X76211395Y-122400469D01*
X76144183Y-122405183D01*
X76125615Y-122406398D01*
X76067841Y-122410918D01*
X75980932Y-122418945D01*
X75900394Y-122427029D01*
X75819137Y-122435112D01*
X75700781Y-122446382D01*
X75558087Y-122459648D01*
X75403813Y-122473720D01*
X75312315Y-122481936D01*
X75132250Y-122498226D01*
X74932342Y-122516681D01*
X74733692Y-122535331D01*
X74557399Y-122552206D01*
X74511527Y-122556676D01*
X74359026Y-122571015D01*
X74173773Y-122587490D01*
X73972934Y-122604630D01*
X73773675Y-122620962D01*
X73635665Y-122631790D01*
X73408456Y-122649357D01*
X73226248Y-122664000D01*
X73084120Y-122676374D01*
X72977153Y-122687132D01*
X72900426Y-122696929D01*
X72849018Y-122706420D01*
X72818010Y-122716260D01*
X72802480Y-122727102D01*
X72797510Y-122739602D01*
X72797340Y-122743308D01*
X72818443Y-122764368D01*
X72856468Y-122778774D01*
X72897068Y-122782619D01*
X72983571Y-122785995D01*
X73111829Y-122788909D01*
X73277697Y-122791370D01*
X73477031Y-122793386D01*
X73705684Y-122794966D01*
X73959511Y-122796118D01*
X74234367Y-122796851D01*
X74526105Y-122797172D01*
X74830582Y-122797089D01*
X75143650Y-122796613D01*
X75461165Y-122795750D01*
X75778981Y-122794509D01*
X76092953Y-122792898D01*
X76398934Y-122790926D01*
X76692781Y-122788602D01*
X76970346Y-122785932D01*
X77227485Y-122782927D01*
X77460053Y-122779593D01*
X77663903Y-122775940D01*
X77834890Y-122771976D01*
X77946931Y-122768526D01*
X78180404Y-122760245D01*
X78368926Y-122753929D01*
X78517561Y-122749664D01*
X78631372Y-122747538D01*
X78715422Y-122747638D01*
X78774775Y-122750051D01*
X78814494Y-122754866D01*
X78839643Y-122762169D01*
X78855283Y-122772048D01*
X78866336Y-122784403D01*
X78900014Y-122849861D01*
X78887251Y-122897127D01*
X78828554Y-122925349D01*
X78778226Y-122932349D01*
X78728534Y-122935763D01*
X78635051Y-122942034D01*
X78503928Y-122950756D01*
X78341315Y-122961522D01*
X78153364Y-122973924D01*
X77946227Y-122987556D01*
X77726054Y-123002010D01*
X77677143Y-123005217D01*
X77450474Y-123020345D01*
X77231684Y-123035463D01*
X77027621Y-123050060D01*
X76845133Y-123063625D01*
X76691069Y-123075648D01*
X76572277Y-123085618D01*
X76495606Y-123093024D01*
X76488473Y-123093845D01*
X76359194Y-123107805D01*
X76211588Y-123121607D01*
X76077298Y-123132297D01*
X76075566Y-123132417D01*
X75875251Y-123147534D01*
X75642924Y-123167450D01*
X75373036Y-123192669D01*
X75060042Y-123223691D01*
X74999507Y-123229848D01*
X74842302Y-123245133D01*
X74676543Y-123259983D01*
X74521139Y-123272774D01*
X74395002Y-123281886D01*
X74386404Y-123282429D01*
X74230186Y-123292788D01*
X74062089Y-123305054D01*
X73889923Y-123318538D01*
X73721501Y-123332552D01*
X73564634Y-123346407D01*
X73427134Y-123359416D01*
X73316811Y-123370891D01*
X73241477Y-123380144D01*
X73209890Y-123386062D01*
X73174753Y-123409340D01*
X73186641Y-123431409D01*
X73242561Y-123449291D01*
X73279064Y-123454911D01*
X73340489Y-123459284D01*
X73447532Y-123463350D01*
X73595762Y-123467095D01*
X73780749Y-123470505D01*
X73998060Y-123473567D01*
X74243265Y-123476267D01*
X74511935Y-123478594D01*
X74799637Y-123480532D01*
X75101941Y-123482070D01*
X75414417Y-123483193D01*
X75732633Y-123483889D01*
X76052159Y-123484144D01*
X76368564Y-123483944D01*
X76677417Y-123483278D01*
X76974287Y-123482130D01*
X77254744Y-123480488D01*
X77514357Y-123478339D01*
X77748694Y-123475670D01*
X77953326Y-123472466D01*
X78098601Y-123469364D01*
X78363426Y-123462851D01*
X78582687Y-123457755D01*
X78760849Y-123454144D01*
X78902380Y-123452088D01*
X79011746Y-123451656D01*
X79093414Y-123452919D01*
X79151850Y-123455945D01*
X79191521Y-123460805D01*
X79216894Y-123467568D01*
X79232434Y-123476302D01*
X79242609Y-123487079D01*
X79242682Y-123487174D01*
X79274930Y-123552724D01*
X79267063Y-123603849D01*
X79222413Y-123630640D01*
X79177822Y-123635671D01*
X79093912Y-123641683D01*
X78981388Y-123648030D01*
X78850955Y-123654065D01*
X78803251Y-123655977D01*
X78435901Y-123671179D01*
X78086694Y-123687781D01*
X77762176Y-123705405D01*
X77468898Y-123723673D01*
X77213406Y-123742210D01*
X77026502Y-123758304D01*
X76858131Y-123773936D01*
X76674830Y-123790431D01*
X76497125Y-123805971D01*
X76345543Y-123818740D01*
X76325812Y-123820346D01*
X76177770Y-123832871D01*
X76001336Y-123848646D01*
X75817899Y-123865716D01*
X75648846Y-123882126D01*
X75637635Y-123883247D01*
X75334672Y-123912484D01*
X75011508Y-123941695D01*
X74684166Y-123969531D01*
X74368668Y-123994645D01*
X74081037Y-124015691D01*
X73986738Y-124022055D01*
X73816576Y-124035128D01*
X73693580Y-124049264D01*
X73614865Y-124065200D01*
X73577551Y-124083671D01*
X73578755Y-124105417D01*
X73598337Y-124121348D01*
X73632507Y-124127697D01*
X73710121Y-124133627D01*
X73824572Y-124138895D01*
X73969254Y-124143259D01*
X74137562Y-124146478D01*
X74322889Y-124148309D01*
X74336354Y-124148379D01*
X74548558Y-124149956D01*
X74771295Y-124152557D01*
X74991692Y-124155965D01*
X75196871Y-124159965D01*
X75373958Y-124164339D01*
X75474975Y-124167531D01*
X75912906Y-124183251D01*
X75996366Y-124341081D01*
X76036041Y-124423453D01*
X76061592Y-124491081D01*
X76067808Y-124530035D01*
X76067452Y-124531158D01*
X76061697Y-124540812D01*
X76049193Y-124549194D01*
X76025024Y-124556872D01*
X75984272Y-124564412D01*
X75922017Y-124572380D01*
X75833343Y-124581344D01*
X75713331Y-124591870D01*
X75557063Y-124604525D01*
X75359622Y-124619874D01*
X75174679Y-124634021D01*
X74898638Y-124655191D01*
X74668185Y-124673186D01*
X74478986Y-124688418D01*
X74326709Y-124701298D01*
X74207022Y-124712237D01*
X74115590Y-124721646D01*
X74048082Y-124729936D01*
X74000163Y-124737519D01*
X73967503Y-124744807D01*
X73950786Y-124750183D01*
X73906934Y-124769396D01*
X73906679Y-124784761D01*
X73935960Y-124803196D01*
X73959835Y-124808126D01*
X74014175Y-124812453D01*
X74100782Y-124816195D01*
X74221459Y-124819368D01*
X74378009Y-124821985D01*
X74572236Y-124824065D01*
X74805941Y-124825622D01*
X75080928Y-124826673D01*
X75399000Y-124827232D01*
X75761959Y-124827317D01*
X76171609Y-124826942D01*
X76563546Y-124826263D01*
X76928507Y-124825464D01*
X77286193Y-124824582D01*
X77632562Y-124823632D01*
X77963571Y-124822630D01*
X78275177Y-124821591D01*
X78563337Y-124820531D01*
X78824010Y-124819464D01*
X79053150Y-124818405D01*
X79246717Y-124817372D01*
X79400668Y-124816378D01*
X79510958Y-124815438D01*
X79553357Y-124814925D01*
X79965632Y-124808867D01*
X79989691Y-124877196D01*
X80002734Y-124930614D01*
X79999864Y-124959412D01*
X79976727Y-124968010D01*
X79922456Y-124976177D01*
X79833001Y-124984233D01*
X79704313Y-124992499D01*
X79532343Y-125001297D01*
X79391330Y-125007630D01*
X79185400Y-125016576D01*
X79012528Y-125024371D01*
X78863631Y-125031622D01*
X78729627Y-125038938D01*
X78601437Y-125046928D01*
X78469976Y-125056200D01*
X78326165Y-125067363D01*
X78160922Y-125081026D01*
X77965165Y-125097798D01*
X77729812Y-125118285D01*
X77695911Y-125121247D01*
X77570693Y-125132167D01*
X77412100Y-125145968D01*
X77236619Y-125161217D01*
X77060738Y-125176481D01*
X76976453Y-125183787D01*
X76806570Y-125198604D01*
X76604413Y-125216392D01*
X76387555Y-125235596D01*
X76173565Y-125254659D01*
X76000492Y-125270182D01*
X75567961Y-125308005D01*
X75157412Y-125341659D01*
X74779187Y-125370317D01*
X74547544Y-125386409D01*
X74408954Y-125399403D01*
X74319253Y-125416654D01*
X74278755Y-125438061D01*
X74287775Y-125463519D01*
X74295491Y-125469051D01*
X74325942Y-125473226D01*
X74402083Y-125477743D01*
X74519556Y-125482489D01*
X74674006Y-125487354D01*
X74861074Y-125492225D01*
X75076404Y-125496990D01*
X75315638Y-125501538D01*
X75574419Y-125505757D01*
X75848390Y-125509535D01*
X75897067Y-125510136D01*
X76504652Y-125516104D01*
X77072048Y-125518625D01*
X77609005Y-125517607D01*
X78125271Y-125512959D01*
X78630594Y-125504589D01*
X79134724Y-125492406D01*
X79647409Y-125476317D01*
X79704138Y-125474326D01*
X79867953Y-125469000D01*
X80015509Y-125465112D01*
X80139276Y-125462787D01*
X80231727Y-125462148D01*
X80285334Y-125463321D01*
X80295083Y-125464573D01*
X80326521Y-125493635D01*
X80353812Y-125544276D01*
X80367905Y-125595133D01*
X80362232Y-125623075D01*
X80332788Y-125629098D01*
X80260168Y-125636608D01*
X80151206Y-125645117D01*
X80012736Y-125654136D01*
X79851591Y-125663177D01*
X79691625Y-125670984D01*
X79503262Y-125680072D01*
X79319854Y-125689879D01*
X79150945Y-125699822D01*
X79006079Y-125709318D01*
X78894799Y-125717786D01*
X78840788Y-125722923D01*
X78711531Y-125736200D01*
X78563948Y-125749651D01*
X78429666Y-125760396D01*
X78427881Y-125760524D01*
X78339129Y-125767218D01*
X78211329Y-125777304D01*
X78055305Y-125789905D01*
X77881875Y-125804145D01*
X77701860Y-125819147D01*
X77639606Y-125824390D01*
X77452338Y-125840186D01*
X77260896Y-125856297D01*
X77077999Y-125871656D01*
X76916368Y-125885194D01*
X76788725Y-125895844D01*
X76763744Y-125897920D01*
X76621169Y-125910145D01*
X76449523Y-125925466D01*
X76269535Y-125942002D01*
X76101936Y-125957873D01*
X76088078Y-125959213D01*
X75922535Y-125974267D01*
X75728190Y-125990390D01*
X75526214Y-126005911D01*
X75337781Y-126019158D01*
X75287290Y-126022424D01*
X75090201Y-126035232D01*
X74937618Y-126046242D01*
X74824065Y-126056192D01*
X74744061Y-126065817D01*
X74692130Y-126075856D01*
X74662794Y-126087043D01*
X74650573Y-126100117D01*
X74649162Y-126108225D01*
X74649391Y-126115730D01*
X74651384Y-126122644D01*
X74657101Y-126128985D01*
X74668500Y-126134773D01*
X74687542Y-126140028D01*
X74716186Y-126144767D01*
X74756391Y-126149011D01*
X74810116Y-126152779D01*
X74879321Y-126156089D01*
X74965965Y-126158962D01*
X75072008Y-126161417D01*
X75199409Y-126163472D01*
X75350127Y-126165147D01*
X75526122Y-126166461D01*
X75729353Y-126167433D01*
X75961780Y-126168083D01*
X76225362Y-126168430D01*
X76522058Y-126168493D01*
X76853828Y-126168291D01*
X77222631Y-126167844D01*
X77630427Y-126167170D01*
X78079174Y-126166290D01*
X78570833Y-126165221D01*
X79107362Y-126163984D01*
X79690722Y-126162598D01*
X80091402Y-126161637D01*
X80691375Y-126160197D01*
X80715420Y-126228526D01*
X80728830Y-126281516D01*
X80726826Y-126309495D01*
X80698305Y-126315463D01*
X80630011Y-126322356D01*
X80532189Y-126329319D01*
X80415615Y-126335474D01*
X80006459Y-126354583D01*
X79644656Y-126373263D01*
X79327512Y-126391675D01*
X79052335Y-126409981D01*
X78816430Y-126428341D01*
X78715665Y-126437285D01*
X78542264Y-126453074D01*
X78340424Y-126470939D01*
X78131598Y-126489012D01*
X77937238Y-126505421D01*
X77877340Y-126510364D01*
X77580913Y-126534983D01*
X77329355Y-126556638D01*
X77117602Y-126575802D01*
X76940591Y-126592951D01*
X76793259Y-126608557D01*
X76670543Y-126623095D01*
X76663645Y-126623971D01*
X76583694Y-126632715D01*
X76463026Y-126644033D01*
X76310858Y-126657152D01*
X76136412Y-126671298D01*
X75948907Y-126685698D01*
X75787191Y-126697486D01*
X75606506Y-126710798D01*
X75440825Y-126723927D01*
X75297130Y-126736244D01*
X75182402Y-126747123D01*
X75103623Y-126755938D01*
X75067776Y-126762061D01*
X75067733Y-126762077D01*
X75028604Y-126789828D01*
X75037537Y-126818395D01*
X75068325Y-126832784D01*
X75108064Y-126837164D01*
X75193651Y-126841277D01*
X75320886Y-126845108D01*
X75485570Y-126848642D01*
X75683501Y-126851864D01*
X75910481Y-126854758D01*
X76162307Y-126857309D01*
X76434781Y-126859502D01*
X76723703Y-126861321D01*
X77024871Y-126862753D01*
X77334086Y-126863780D01*
X77647147Y-126864388D01*
X77959856Y-126864562D01*
X78268010Y-126864286D01*
X78567410Y-126863545D01*
X78853857Y-126862324D01*
X79123149Y-126860608D01*
X79371086Y-126858381D01*
X79593469Y-126855628D01*
X79786097Y-126852334D01*
X79879310Y-126850250D01*
X81017931Y-126822035D01*
X81062775Y-126876812D01*
X81093467Y-126930480D01*
X81099981Y-126971311D01*
X81092717Y-126982025D01*
X81072277Y-126991384D01*
X81034041Y-126999798D01*
X80973390Y-127007678D01*
X80885704Y-127015433D01*
X80766361Y-127023475D01*
X80610744Y-127032213D01*
X80414230Y-127042059D01*
X80179275Y-127053096D01*
X79497105Y-127090082D01*
X78771344Y-127140109D01*
X78006630Y-127202833D01*
X77376847Y-127261249D01*
X77080627Y-127289438D01*
X76816624Y-127313062D01*
X76567368Y-127333550D01*
X76315387Y-127352325D01*
X76043209Y-127370815D01*
X76000492Y-127373592D01*
X75790058Y-127388756D01*
X75626981Y-127404168D01*
X75508568Y-127420314D01*
X75432129Y-127437678D01*
X75394970Y-127456746D01*
X75394401Y-127478003D01*
X75398049Y-127482173D01*
X75421283Y-127489880D01*
X75476275Y-127496531D01*
X75565732Y-127502212D01*
X75692361Y-127507007D01*
X75858872Y-127511003D01*
X76067970Y-127514287D01*
X76322364Y-127516943D01*
X76546004Y-127518585D01*
X76778439Y-127520257D01*
X76995768Y-127522218D01*
X77192814Y-127524393D01*
X77364396Y-127526704D01*
X77505335Y-127529078D01*
X77610451Y-127531438D01*
X77674566Y-127533708D01*
X77692610Y-127535301D01*
X77719431Y-127561334D01*
X77758425Y-127617980D01*
X77802369Y-127692041D01*
X77844037Y-127770314D01*
X77876204Y-127839601D01*
X77891647Y-127886701D01*
X77890933Y-127897659D01*
X77860563Y-127911387D01*
X77794590Y-127925341D01*
X77708160Y-127936405D01*
X77587622Y-127948781D01*
X77452667Y-127964120D01*
X77364335Y-127975036D01*
X77289594Y-127983069D01*
X77174313Y-127993352D01*
X77027910Y-128005145D01*
X76859805Y-128017709D01*
X76679417Y-128030303D01*
X76563546Y-128037930D01*
X76325668Y-128054135D01*
X76134270Y-128069392D01*
X75985803Y-128084180D01*
X75876717Y-128098975D01*
X75803465Y-128114256D01*
X75762497Y-128130502D01*
X75750246Y-128147491D01*
X75756735Y-128159843D01*
X75778811Y-128170146D01*
X75820388Y-128178576D01*
X75885378Y-128185304D01*
X75977695Y-128190506D01*
X76101253Y-128194355D01*
X76259964Y-128197025D01*
X76457742Y-128198689D01*
X76698500Y-128199521D01*
X76926404Y-128199704D01*
X77150446Y-128200071D01*
X77361197Y-128201117D01*
X77552872Y-128202763D01*
X77719687Y-128204929D01*
X77855859Y-128207532D01*
X77955604Y-128210494D01*
X78013138Y-128213734D01*
X78022323Y-128214937D01*
X78070486Y-128232831D01*
X78112285Y-128271825D01*
X78157993Y-128342753D01*
X78177691Y-128378769D01*
X78221112Y-128467615D01*
X78238147Y-128524430D01*
X78231326Y-128558031D01*
X78229730Y-128560096D01*
X78189421Y-128578649D01*
X78104778Y-128594484D01*
X77981487Y-128606594D01*
X77958623Y-128608114D01*
X77821596Y-128617665D01*
X77660052Y-128630504D01*
X77480493Y-128645968D01*
X77289422Y-128663391D01*
X77093342Y-128682107D01*
X76898756Y-128701452D01*
X76712164Y-128720759D01*
X76540072Y-128739365D01*
X76388980Y-128756604D01*
X76265391Y-128771810D01*
X76175808Y-128784318D01*
X76126734Y-128793464D01*
X76119657Y-128796243D01*
X76113860Y-128826754D01*
X76126430Y-128838336D01*
X76157330Y-128842649D01*
X76232775Y-128847094D01*
X76347264Y-128851518D01*
X76495293Y-128855770D01*
X76671360Y-128859698D01*
X76869962Y-128863153D01*
X77085596Y-128865982D01*
X77160877Y-128866765D01*
X77387286Y-128869280D01*
X77603878Y-128872278D01*
X77804197Y-128875628D01*
X77981784Y-128879196D01*
X78130183Y-128882849D01*
X78242938Y-128886457D01*
X78313590Y-128889885D01*
X78323228Y-128890636D01*
X78481334Y-128904742D01*
X78570708Y-129044456D01*
X78616329Y-129115657D01*
X78646496Y-129169411D01*
X78656525Y-129208813D01*
X78641732Y-129236958D01*
X78597435Y-129256942D01*
X78518948Y-129271860D01*
X78401590Y-129284810D01*
X78240677Y-129298885D01*
X78177635Y-129304269D01*
X77987792Y-129320884D01*
X77778668Y-129339676D01*
X77569307Y-129358904D01*
X77378755Y-129376824D01*
X77276748Y-129386678D01*
X77122643Y-129401280D01*
X76971412Y-129414724D01*
X76836422Y-129425885D01*
X76731043Y-129433633D01*
X76693051Y-129435906D01*
X76585801Y-129446758D01*
X76512363Y-129465251D01*
X76477716Y-129489158D01*
X76486843Y-129516254D01*
X76496987Y-129523539D01*
X76528068Y-129528059D01*
X76604105Y-129532974D01*
X76720006Y-129538124D01*
X76870680Y-129543348D01*
X77051036Y-129548485D01*
X77255984Y-129553375D01*
X77480432Y-129557857D01*
X77697960Y-129561454D01*
X77936136Y-129565254D01*
X78159769Y-129569285D01*
X78363719Y-129573423D01*
X78542844Y-129577542D01*
X78692005Y-129581515D01*
X78806060Y-129585217D01*
X78879868Y-129588523D01*
X78907689Y-129591070D01*
X78947128Y-129620534D01*
X78996380Y-129680452D01*
X79045452Y-129755313D01*
X79084352Y-129829607D01*
X79103086Y-129887824D01*
X79103546Y-129895067D01*
X79099290Y-129920326D01*
X79080123Y-129937089D01*
X79036448Y-129948320D01*
X78958665Y-129956982D01*
X78884581Y-129962689D01*
X78750301Y-129973447D01*
X78603030Y-129986927D01*
X78473164Y-130000336D01*
X78465418Y-130001211D01*
X78378390Y-130010075D01*
X78252678Y-130021492D01*
X78099526Y-130034510D01*
X77930175Y-130048177D01*
X77755869Y-130061543D01*
X77727192Y-130063669D01*
X77473650Y-130083401D01*
X77261055Y-130102120D01*
X77091267Y-130119617D01*
X76966147Y-130135683D01*
X76887554Y-130150110D01*
X76858459Y-130161179D01*
X76847883Y-130177620D01*
X76854736Y-130191182D01*
X76882956Y-130202154D01*
X76936481Y-130210825D01*
X77019251Y-130217484D01*
X77135205Y-130222421D01*
X77288281Y-130225923D01*
X77482418Y-130228281D01*
X77721555Y-130229784D01*
X77797486Y-130230092D01*
X78022477Y-130231327D01*
X78244900Y-130233294D01*
X78456538Y-130235868D01*
X78649172Y-130238921D01*
X78814584Y-130242328D01*
X78944555Y-130245961D01*
X79015857Y-130248861D01*
X79316050Y-130264236D01*
X79371412Y-130419810D01*
X79396575Y-130501457D01*
X79408077Y-130562521D01*
X79403945Y-130589493D01*
X79367503Y-130599200D01*
X79290705Y-130611414D01*
X79183111Y-130625019D01*
X79054281Y-130638899D01*
X78913777Y-130651939D01*
X78778226Y-130662529D01*
X78685503Y-130669745D01*
X78557381Y-130680684D01*
X78408261Y-130694071D01*
X78252542Y-130708630D01*
X78190147Y-130714640D01*
X78022256Y-130730646D01*
X77841965Y-130747297D01*
X77668394Y-130762861D01*
X77520659Y-130775602D01*
X77489598Y-130778177D01*
X77338387Y-130791464D01*
X77230639Y-130803445D01*
X77159831Y-130815347D01*
X77119441Y-130828401D01*
X77102947Y-130843836D01*
X77101576Y-130851324D01*
X77106948Y-130865857D01*
X77126409Y-130877453D01*
X77164970Y-130886473D01*
X77227647Y-130893274D01*
X77319454Y-130898217D01*
X77445404Y-130901660D01*
X77610511Y-130903962D01*
X77819789Y-130905482D01*
X77860618Y-130905692D01*
X78075004Y-130907286D01*
X78304548Y-130909937D01*
X78534926Y-130913416D01*
X78751815Y-130917491D01*
X78940892Y-130921933D01*
X79028203Y-130924460D01*
X79515913Y-130939901D01*
X79545378Y-131002463D01*
X79567162Y-131069816D01*
X79581933Y-131152894D01*
X79583039Y-131164455D01*
X79585623Y-131228295D01*
X79570585Y-131259574D01*
X79524913Y-131274776D01*
X79491282Y-131280699D01*
X79418238Y-131290677D01*
X79315120Y-131301907D01*
X79201791Y-131312265D01*
X79178620Y-131314126D01*
X78975932Y-131330861D01*
X78724448Y-131353208D01*
X78425097Y-131381085D01*
X78190147Y-131403593D01*
X78061700Y-131415326D01*
X77904567Y-131428650D01*
X77739996Y-131441810D01*
X77608974Y-131451636D01*
X77430759Y-131467554D01*
X77301487Y-131486220D01*
X77220117Y-131507879D01*
X77185606Y-131532776D01*
X77187698Y-131550636D01*
X77214530Y-131555195D01*
X77286297Y-131560153D01*
X77397891Y-131565339D01*
X77544201Y-131570584D01*
X77720117Y-131575719D01*
X77920529Y-131580574D01*
X78140327Y-131584979D01*
X78308251Y-131587787D01*
X78543105Y-131591677D01*
X78765805Y-131595915D01*
X78970651Y-131600350D01*
X79151947Y-131604836D01*
X79303991Y-131609226D01*
X79421087Y-131613370D01*
X79497535Y-131617122D01*
X79522709Y-131619277D01*
X79629064Y-131633761D01*
X79629064Y-131780187D01*
X79622595Y-131878499D01*
X79596989Y-131938269D01*
X79542943Y-131968503D01*
X79451158Y-131978206D01*
X79424256Y-131978480D01*
X79370667Y-131980788D01*
X79275101Y-131987261D01*
X79145397Y-131997272D01*
X78989396Y-132010193D01*
X78814939Y-132025394D01*
X78640591Y-132041253D01*
X78433884Y-132060358D01*
X78218122Y-132080156D01*
X78006016Y-132099491D01*
X77810280Y-132117206D01*
X77643625Y-132132145D01*
X77559022Y-132139633D01*
X77374520Y-132157438D01*
X77237458Y-132174482D01*
X77145244Y-132191325D01*
X77095286Y-132208528D01*
X77084992Y-132226648D01*
X77098231Y-132239114D01*
X77110125Y-132243521D01*
X77133214Y-132247556D01*
X77171093Y-132251339D01*
X77227355Y-132254989D01*
X77305593Y-132258625D01*
X77409402Y-132262366D01*
X77542375Y-132266332D01*
X77708106Y-132270641D01*
X77910189Y-132275412D01*
X78152218Y-132280765D01*
X78437786Y-132286819D01*
X78703152Y-132292312D01*
X78903392Y-132296945D01*
X79087683Y-132302206D01*
X79250050Y-132307847D01*
X79384520Y-132313619D01*
X79485121Y-132319274D01*
X79545878Y-132324566D01*
X79561541Y-132327954D01*
X79567616Y-132360975D01*
X79560567Y-132424331D01*
X79551827Y-132464627D01*
X79523459Y-132547228D01*
X79485707Y-132593012D01*
X79459341Y-132606724D01*
X79414346Y-132616621D01*
X79329031Y-132629081D01*
X79212987Y-132642938D01*
X79075803Y-132657025D01*
X78960036Y-132667445D01*
X78813841Y-132680228D01*
X78682051Y-132692563D01*
X78574019Y-132703511D01*
X78499098Y-132712133D01*
X78469404Y-132716699D01*
X78425397Y-132722955D01*
X78342304Y-132731507D01*
X78230980Y-132741347D01*
X78102280Y-132751468D01*
X78065024Y-132754186D01*
X77798452Y-132773389D01*
X77577294Y-132789580D01*
X77397031Y-132803165D01*
X77253143Y-132814549D01*
X77141113Y-132824137D01*
X77056421Y-132832336D01*
X76994548Y-132839550D01*
X76950976Y-132846184D01*
X76921186Y-132852646D01*
X76902955Y-132858444D01*
X76861927Y-132878813D01*
X76865075Y-132895922D01*
X76876354Y-132902900D01*
X76912758Y-132909555D01*
X76993721Y-132916275D01*
X77113755Y-132922906D01*
X77267372Y-132929297D01*
X77449082Y-132935296D01*
X77653396Y-132940751D01*
X77874826Y-132945509D01*
X78107882Y-132949419D01*
X78347077Y-132952328D01*
X78586920Y-132954085D01*
X78740689Y-132954537D01*
X78906907Y-132955637D01*
X79057356Y-132958384D01*
X79184476Y-132962497D01*
X79280708Y-132967698D01*
X79338494Y-132973705D01*
X79350999Y-132977152D01*
X79368739Y-132997516D01*
X79368624Y-133033817D01*
X79349658Y-133098900D01*
X79339267Y-133128397D01*
X79308744Y-133204485D01*
X79280305Y-133260992D01*
X79266665Y-133279323D01*
X79231923Y-133289564D01*
X79151294Y-133302662D01*
X79028834Y-133318199D01*
X78868599Y-133335751D01*
X78674646Y-133354900D01*
X78451028Y-133375222D01*
X78201802Y-133396299D01*
X77939901Y-133417028D01*
X77529108Y-133449477D01*
X77126305Y-133483134D01*
X76750941Y-133516367D01*
X76694775Y-133521531D01*
X76601695Y-133534298D01*
X76524395Y-133552313D01*
X76482066Y-133570299D01*
X76471309Y-133583494D01*
X76483609Y-133592740D01*
X76525018Y-133598692D01*
X76601589Y-133602004D01*
X76719372Y-133603330D01*
X76788768Y-133603453D01*
X77144370Y-133603921D01*
X77479129Y-133605245D01*
X77789994Y-133607370D01*
X78073911Y-133610241D01*
X78327827Y-133613805D01*
X78548689Y-133618007D01*
X78733445Y-133622792D01*
X78879041Y-133628107D01*
X78982425Y-133633897D01*
X79040543Y-133640106D01*
X79052224Y-133643791D01*
X79056684Y-133677866D01*
X79029635Y-133742876D01*
X78990252Y-133810269D01*
X78960593Y-133858498D01*
X78935324Y-133895320D01*
X78907488Y-133922828D01*
X78870133Y-133943117D01*
X78816303Y-133958279D01*
X78739044Y-133970409D01*
X78631402Y-133981601D01*
X78486422Y-133993948D01*
X78340295Y-134005947D01*
X78207715Y-134017142D01*
X78084004Y-134027950D01*
X77982611Y-134037172D01*
X77916983Y-134043611D01*
X77914877Y-134043839D01*
X77853473Y-134049559D01*
X77754434Y-134057682D01*
X77630061Y-134067244D01*
X77492656Y-134077279D01*
X77451921Y-134080154D01*
X77292991Y-134091840D01*
X77116539Y-134105768D01*
X76929690Y-134121282D01*
X76739568Y-134137725D01*
X76553298Y-134154440D01*
X76378006Y-134170769D01*
X76220816Y-134186057D01*
X76088854Y-134199646D01*
X75989244Y-134210879D01*
X75929111Y-134219100D01*
X75916643Y-134221696D01*
X75887347Y-134233209D01*
X75883179Y-134243206D01*
X75906774Y-134251816D01*
X75960768Y-134259165D01*
X76047797Y-134265384D01*
X76170498Y-134270599D01*
X76331506Y-134274938D01*
X76533457Y-134278530D01*
X76778987Y-134281503D01*
X77070732Y-134283985D01*
X77219205Y-134284985D01*
X77532096Y-134287280D01*
X77797625Y-134289972D01*
X78018478Y-134293136D01*
X78197341Y-134296848D01*
X78336900Y-134301185D01*
X78439843Y-134306222D01*
X78508854Y-134312035D01*
X78546621Y-134318701D01*
X78555075Y-134322786D01*
X78567546Y-134353105D01*
X78546621Y-134396678D01*
X78525697Y-134423549D01*
X78440488Y-134516434D01*
X78359707Y-134575992D01*
X78265562Y-134611761D01*
X78140256Y-134633275D01*
X78132644Y-134634172D01*
X77953122Y-134654803D01*
X77788734Y-134673146D01*
X77633006Y-134689772D01*
X77479463Y-134705252D01*
X77321634Y-134720159D01*
X77153043Y-134735064D01*
X76967217Y-134750537D01*
X76757683Y-134767150D01*
X76517968Y-134785475D01*
X76241597Y-134806083D01*
X75922098Y-134829545D01*
X75904671Y-134830819D01*
X75724241Y-134844448D01*
X75559949Y-134857718D01*
X75418474Y-134870020D01*
X75306499Y-134880746D01*
X75230704Y-134889287D01*
X75197772Y-134895033D01*
X75197317Y-134895268D01*
X75181211Y-134909280D01*
X75184321Y-134921051D01*
X75210038Y-134930762D01*
X75261752Y-134938595D01*
X75342855Y-134944733D01*
X75456736Y-134949357D01*
X75606788Y-134952649D01*
X75796401Y-134954791D01*
X76028966Y-134955964D01*
X76307872Y-134956352D01*
X76336026Y-134956354D01*
X76663114Y-134956761D01*
X76943166Y-134958061D01*
X77179192Y-134960373D01*
X77374198Y-134963816D01*
X77531195Y-134968509D01*
X77653189Y-134974571D01*
X77743189Y-134982122D01*
X77804204Y-134991280D01*
X77839240Y-135002164D01*
X77851308Y-135014894D01*
X77851365Y-135016332D01*
X77830177Y-135046984D01*
X77772506Y-135097205D01*
X77685231Y-135161564D01*
X77575228Y-135234631D01*
X77573851Y-135235504D01*
X77527211Y-135251859D01*
X77437142Y-135271460D01*
X77310094Y-135293452D01*
X77152519Y-135316979D01*
X76970869Y-135341186D01*
X76771595Y-135365217D01*
X76561148Y-135388216D01*
X76345979Y-135409328D01*
X76132539Y-135427698D01*
X76113103Y-135429229D01*
X75700786Y-135460754D01*
X75325896Y-135487921D01*
X74976082Y-135511593D01*
X74638995Y-135532634D01*
X74612272Y-135534226D01*
X74466662Y-135543526D01*
X74338210Y-135552973D01*
X74235326Y-135561849D01*
X74166420Y-135569435D01*
X74140389Y-135574576D01*
X74127715Y-135588495D01*
X74140740Y-135600109D01*
X74182587Y-135609593D01*
X74256380Y-135617123D01*
X74365242Y-135622877D01*
X74512295Y-135627029D01*
X74700664Y-135629756D01*
X74933470Y-135631235D01*
X75151982Y-135631636D01*
X75515629Y-135632652D01*
X75832529Y-135635382D01*
X76102218Y-135639809D01*
X76324230Y-135645917D01*
X76498097Y-135653689D01*
X76623355Y-135663110D01*
X76699537Y-135674162D01*
X76726177Y-135686829D01*
X76726207Y-135687291D01*
X76703276Y-135711768D01*
X76639612Y-135746252D01*
X76542909Y-135788109D01*
X76420858Y-135834701D01*
X76281153Y-135883393D01*
X76131486Y-135931547D01*
X75979551Y-135976529D01*
X75833040Y-136015701D01*
X75699646Y-136046428D01*
X75650147Y-136056043D01*
X75204971Y-136113828D01*
X74766325Y-136124053D01*
X74437345Y-136100755D01*
X74305418Y-136081927D01*
X74144111Y-136052503D01*
X73969508Y-136016020D01*
X73797693Y-135976010D01*
X73644752Y-135936009D01*
X73535566Y-135902605D01*
X73174329Y-135755340D01*
X72831348Y-135568799D01*
X72513564Y-135347791D01*
X72227920Y-135097125D01*
X71988944Y-134831231D01*
X71928063Y-134754822D01*
X71879193Y-134694338D01*
X71850527Y-134659891D01*
X71847002Y-134656059D01*
X71787664Y-134584418D01*
X71717225Y-134475262D01*
X71641030Y-134338344D01*
X71564427Y-134183419D01*
X71492761Y-134020241D01*
X71476676Y-133980394D01*
X71347752Y-133587528D01*
X71265437Y-133178632D01*
X71230197Y-132757066D01*
X71242499Y-132326189D01*
X71244085Y-132307685D01*
X71258217Y-132157815D01*
X71272552Y-132037795D01*
X71290227Y-131928409D01*
X71314378Y-131810441D01*
X71348140Y-131664673D01*
X71350903Y-131653103D01*
X71399659Y-131479572D01*
X71466099Y-131285719D01*
X71543966Y-131087061D01*
X71627006Y-130899114D01*
X71708965Y-130737394D01*
X71745090Y-130675253D01*
X71786160Y-130606599D01*
X71813855Y-130556650D01*
X71821379Y-130539222D01*
X71834866Y-130514774D01*
X71870939Y-130459593D01*
X71923013Y-130383613D01*
X71949649Y-130345657D01*
X72244010Y-129968610D01*
X72572284Y-129620653D01*
X72928141Y-129307818D01*
X73305253Y-129036136D01*
X73360394Y-129001097D01*
X73600638Y-128862933D01*
X73858986Y-128735566D01*
X74121715Y-128624784D01*
X74375103Y-128536372D01*
X74605369Y-128476128D01*
X74682228Y-128456378D01*
X74734436Y-128435554D01*
X74749261Y-128421528D01*
X74746706Y-128409106D01*
X74737623Y-128386094D01*
X74719882Y-128348437D01*
X74691354Y-128292083D01*
X74649910Y-128212976D01*
X74593419Y-128107062D01*
X74519753Y-127970288D01*
X74426783Y-127798598D01*
X74312378Y-127587940D01*
X74284441Y-127536551D01*
X74209912Y-127400119D01*
X74143122Y-127279065D01*
X74087853Y-127180149D01*
X74047892Y-127110133D01*
X74027023Y-127075779D01*
X74025281Y-127073596D01*
X74007437Y-127046057D01*
X73975470Y-126987149D01*
X73943188Y-126923448D01*
X73898300Y-126834782D01*
X73840211Y-126723293D01*
X73779895Y-126609986D01*
X73766719Y-126585615D01*
X73623257Y-126321252D01*
X73499043Y-126092453D01*
X73395053Y-125901015D01*
X73312262Y-125748732D01*
X73251647Y-125637400D01*
X73222841Y-125584630D01*
X73128243Y-125411299D01*
X73029694Y-125230075D01*
X72933001Y-125051682D01*
X72843966Y-124886843D01*
X72768395Y-124746282D01*
X72720160Y-124655935D01*
X72671254Y-124564799D01*
X72630021Y-124489697D01*
X72602912Y-124442315D01*
X72597296Y-124433497D01*
X72578833Y-124402352D01*
X72542504Y-124336972D01*
X72493818Y-124247382D01*
X72446058Y-124158226D01*
X72383873Y-124042572D01*
X72322081Y-123929621D01*
X72269188Y-123834829D01*
X72242282Y-123788012D01*
X72203589Y-123720611D01*
X72177960Y-123672878D01*
X72171724Y-123658267D01*
X72159914Y-123632539D01*
X72125641Y-123566242D01*
X72070636Y-123462618D01*
X71996632Y-123324909D01*
X71905362Y-123156357D01*
X71803663Y-122969556D01*
X71636128Y-122661905D01*
X71491828Y-122395529D01*
X71369530Y-122168045D01*
X71268003Y-121977067D01*
X71186015Y-121820209D01*
X71122334Y-121695087D01*
X71075728Y-121599315D01*
X71044966Y-121530508D01*
X71028814Y-121486280D01*
X71026043Y-121464248D01*
X71026121Y-121464000D01*
X71037836Y-121458756D01*
X71070863Y-121454158D01*
X71127605Y-121450183D01*
X71210463Y-121446808D01*
X71321838Y-121444008D01*
X71464131Y-121441759D01*
X71639745Y-121440039D01*
X71851081Y-121438823D01*
X72100540Y-121438088D01*
X72390524Y-121437810D01*
X72723433Y-121437965D01*
X73101671Y-121438529D01*
X73512176Y-121439441D01*
X73929066Y-121440072D01*
X74342850Y-121439905D01*
X74750360Y-121438984D01*
X75148426Y-121437351D01*
X75533879Y-121435047D01*
X75903550Y-121432116D01*
X76254270Y-121428599D01*
X76582870Y-121424540D01*
X76886180Y-121419981D01*
X77161033Y-121414964D01*
X77404257Y-121409531D01*
X77612685Y-121403726D01*
X77783148Y-121397590D01*
X77912475Y-121391166D01*
X77997499Y-121384496D01*
X78031779Y-121378923D01*
X78079491Y-121386801D01*
G37*
D13*
%TO.C,C16*%
X131454600Y-117033767D02*
X131454600Y-116741233D01*
X132474600Y-117033767D02*
X132474600Y-116741233D01*
%TO.C,C4*%
X91788748Y-136090000D02*
X93211252Y-136090000D01*
X91788748Y-137910000D02*
X93211252Y-137910000D01*
%TO.C,R4*%
X74057776Y-150477500D02*
X74567224Y-150477500D01*
X74057776Y-151522500D02*
X74567224Y-151522500D01*
%TO.C,C5*%
X102288748Y-135590000D02*
X103711252Y-135590000D01*
X102288748Y-137410000D02*
X103711252Y-137410000D01*
%TO.C,C18*%
X141729600Y-117033767D02*
X141729600Y-116741233D01*
X142749600Y-117033767D02*
X142749600Y-116741233D01*
%TO.C,C15*%
X131490000Y-121146267D02*
X131490000Y-120853733D01*
X132510000Y-121146267D02*
X132510000Y-120853733D01*
%TO.C,R11*%
X136492100Y-116632776D02*
X136492100Y-117142224D01*
X137537100Y-116632776D02*
X137537100Y-117142224D01*
%TO.C,C19*%
X101103733Y-141740000D02*
X101396267Y-141740000D01*
X101103733Y-142760000D02*
X101396267Y-142760000D01*
%TO.C,C3*%
X86853733Y-136490000D02*
X87146267Y-136490000D01*
X86853733Y-137510000D02*
X87146267Y-137510000D01*
%TO.C,L1*%
X84296267Y-131490000D02*
X83953733Y-131490000D01*
X84296267Y-132510000D02*
X83953733Y-132510000D01*
%TO.C,C14*%
X114896267Y-118990000D02*
X114603733Y-118990000D01*
X114896267Y-120010000D02*
X114603733Y-120010000D01*
%TD*%
M02*
