%TF.GenerationSoftware,KiCad,Pcbnew,9.0.1+1*%
%TF.CreationDate,2025-09-01T23:04:51+00:00*%
%TF.ProjectId,rcbus-ymf262,72636275-732d-4796-9d66-3236322e6b69,@version@*%
%TF.SameCoordinates,Original*%
%TF.FileFunction,AssemblyDrawing,Top*%
%FSLAX46Y46*%
G04 Gerber Fmt 4.6, Leading zero omitted, Abs format (unit mm)*
G04 Created by KiCad (PCBNEW 9.0.1+1) date 2025-09-01 23:04:51*
%MOMM*%
%LPD*%
G01*
G04 APERTURE LIST*
%ADD10C,0.150000*%
%ADD11C,0.060000*%
%ADD12C,0.120000*%
%ADD13C,0.100000*%
G04 APERTURE END LIST*
D10*
X109607143Y-154774819D02*
X109702381Y-154774819D01*
X109702381Y-154774819D02*
X109797619Y-154822438D01*
X109797619Y-154822438D02*
X109845238Y-154870057D01*
X109845238Y-154870057D02*
X109892857Y-154965295D01*
X109892857Y-154965295D02*
X109940476Y-155155771D01*
X109940476Y-155155771D02*
X109940476Y-155393866D01*
X109940476Y-155393866D02*
X109892857Y-155584342D01*
X109892857Y-155584342D02*
X109845238Y-155679580D01*
X109845238Y-155679580D02*
X109797619Y-155727200D01*
X109797619Y-155727200D02*
X109702381Y-155774819D01*
X109702381Y-155774819D02*
X109607143Y-155774819D01*
X109607143Y-155774819D02*
X109511905Y-155727200D01*
X109511905Y-155727200D02*
X109464286Y-155679580D01*
X109464286Y-155679580D02*
X109416667Y-155584342D01*
X109416667Y-155584342D02*
X109369048Y-155393866D01*
X109369048Y-155393866D02*
X109369048Y-155155771D01*
X109369048Y-155155771D02*
X109416667Y-154965295D01*
X109416667Y-154965295D02*
X109464286Y-154870057D01*
X109464286Y-154870057D02*
X109511905Y-154822438D01*
X109511905Y-154822438D02*
X109607143Y-154774819D01*
X110369048Y-155679580D02*
X110416667Y-155727200D01*
X110416667Y-155727200D02*
X110369048Y-155774819D01*
X110369048Y-155774819D02*
X110321429Y-155727200D01*
X110321429Y-155727200D02*
X110369048Y-155679580D01*
X110369048Y-155679580D02*
X110369048Y-155774819D01*
X111369047Y-155774819D02*
X110797619Y-155774819D01*
X111083333Y-155774819D02*
X111083333Y-154774819D01*
X111083333Y-154774819D02*
X110988095Y-154917676D01*
X110988095Y-154917676D02*
X110892857Y-155012914D01*
X110892857Y-155012914D02*
X110797619Y-155060533D01*
X112226190Y-155108152D02*
X112226190Y-155774819D01*
X111797619Y-155108152D02*
X111797619Y-155631961D01*
X111797619Y-155631961D02*
X111845238Y-155727200D01*
X111845238Y-155727200D02*
X111940476Y-155774819D01*
X111940476Y-155774819D02*
X112083333Y-155774819D01*
X112083333Y-155774819D02*
X112178571Y-155727200D01*
X112178571Y-155727200D02*
X112226190Y-155679580D01*
X113035714Y-155251009D02*
X112702381Y-155251009D01*
X112702381Y-155774819D02*
X112702381Y-154774819D01*
X112702381Y-154774819D02*
X113178571Y-154774819D01*
D11*
X111183333Y-156893832D02*
X111164285Y-156912880D01*
X111164285Y-156912880D02*
X111107143Y-156931927D01*
X111107143Y-156931927D02*
X111069047Y-156931927D01*
X111069047Y-156931927D02*
X111011904Y-156912880D01*
X111011904Y-156912880D02*
X110973809Y-156874784D01*
X110973809Y-156874784D02*
X110954762Y-156836689D01*
X110954762Y-156836689D02*
X110935714Y-156760499D01*
X110935714Y-156760499D02*
X110935714Y-156703356D01*
X110935714Y-156703356D02*
X110954762Y-156627165D01*
X110954762Y-156627165D02*
X110973809Y-156589070D01*
X110973809Y-156589070D02*
X111011904Y-156550975D01*
X111011904Y-156550975D02*
X111069047Y-156531927D01*
X111069047Y-156531927D02*
X111107143Y-156531927D01*
X111107143Y-156531927D02*
X111164285Y-156550975D01*
X111164285Y-156550975D02*
X111183333Y-156570022D01*
X111564285Y-156931927D02*
X111335714Y-156931927D01*
X111450000Y-156931927D02*
X111450000Y-156531927D01*
X111450000Y-156531927D02*
X111411904Y-156589070D01*
X111411904Y-156589070D02*
X111373809Y-156627165D01*
X111373809Y-156627165D02*
X111335714Y-156646213D01*
D10*
X109257143Y-140454819D02*
X109352381Y-140454819D01*
X109352381Y-140454819D02*
X109447619Y-140502438D01*
X109447619Y-140502438D02*
X109495238Y-140550057D01*
X109495238Y-140550057D02*
X109542857Y-140645295D01*
X109542857Y-140645295D02*
X109590476Y-140835771D01*
X109590476Y-140835771D02*
X109590476Y-141073866D01*
X109590476Y-141073866D02*
X109542857Y-141264342D01*
X109542857Y-141264342D02*
X109495238Y-141359580D01*
X109495238Y-141359580D02*
X109447619Y-141407200D01*
X109447619Y-141407200D02*
X109352381Y-141454819D01*
X109352381Y-141454819D02*
X109257143Y-141454819D01*
X109257143Y-141454819D02*
X109161905Y-141407200D01*
X109161905Y-141407200D02*
X109114286Y-141359580D01*
X109114286Y-141359580D02*
X109066667Y-141264342D01*
X109066667Y-141264342D02*
X109019048Y-141073866D01*
X109019048Y-141073866D02*
X109019048Y-140835771D01*
X109019048Y-140835771D02*
X109066667Y-140645295D01*
X109066667Y-140645295D02*
X109114286Y-140550057D01*
X109114286Y-140550057D02*
X109161905Y-140502438D01*
X109161905Y-140502438D02*
X109257143Y-140454819D01*
X110019048Y-141359580D02*
X110066667Y-141407200D01*
X110066667Y-141407200D02*
X110019048Y-141454819D01*
X110019048Y-141454819D02*
X109971429Y-141407200D01*
X109971429Y-141407200D02*
X110019048Y-141359580D01*
X110019048Y-141359580D02*
X110019048Y-141454819D01*
X111019047Y-141454819D02*
X110447619Y-141454819D01*
X110733333Y-141454819D02*
X110733333Y-140454819D01*
X110733333Y-140454819D02*
X110638095Y-140597676D01*
X110638095Y-140597676D02*
X110542857Y-140692914D01*
X110542857Y-140692914D02*
X110447619Y-140740533D01*
X111876190Y-140788152D02*
X111876190Y-141454819D01*
X111447619Y-140788152D02*
X111447619Y-141311961D01*
X111447619Y-141311961D02*
X111495238Y-141407200D01*
X111495238Y-141407200D02*
X111590476Y-141454819D01*
X111590476Y-141454819D02*
X111733333Y-141454819D01*
X111733333Y-141454819D02*
X111828571Y-141407200D01*
X111828571Y-141407200D02*
X111876190Y-141359580D01*
X112685714Y-140931009D02*
X112352381Y-140931009D01*
X112352381Y-141454819D02*
X112352381Y-140454819D01*
X112352381Y-140454819D02*
X112828571Y-140454819D01*
D11*
X111183333Y-143143832D02*
X111164285Y-143162880D01*
X111164285Y-143162880D02*
X111107143Y-143181927D01*
X111107143Y-143181927D02*
X111069047Y-143181927D01*
X111069047Y-143181927D02*
X111011904Y-143162880D01*
X111011904Y-143162880D02*
X110973809Y-143124784D01*
X110973809Y-143124784D02*
X110954762Y-143086689D01*
X110954762Y-143086689D02*
X110935714Y-143010499D01*
X110935714Y-143010499D02*
X110935714Y-142953356D01*
X110935714Y-142953356D02*
X110954762Y-142877165D01*
X110954762Y-142877165D02*
X110973809Y-142839070D01*
X110973809Y-142839070D02*
X111011904Y-142800975D01*
X111011904Y-142800975D02*
X111069047Y-142781927D01*
X111069047Y-142781927D02*
X111107143Y-142781927D01*
X111107143Y-142781927D02*
X111164285Y-142800975D01*
X111164285Y-142800975D02*
X111183333Y-142820022D01*
X111316666Y-142781927D02*
X111583333Y-142781927D01*
X111583333Y-142781927D02*
X111411904Y-143181927D01*
D10*
X149128524Y-118002200D02*
X149271381Y-118049819D01*
X149271381Y-118049819D02*
X149509476Y-118049819D01*
X149509476Y-118049819D02*
X149604714Y-118002200D01*
X149604714Y-118002200D02*
X149652333Y-117954580D01*
X149652333Y-117954580D02*
X149699952Y-117859342D01*
X149699952Y-117859342D02*
X149699952Y-117764104D01*
X149699952Y-117764104D02*
X149652333Y-117668866D01*
X149652333Y-117668866D02*
X149604714Y-117621247D01*
X149604714Y-117621247D02*
X149509476Y-117573628D01*
X149509476Y-117573628D02*
X149319000Y-117526009D01*
X149319000Y-117526009D02*
X149223762Y-117478390D01*
X149223762Y-117478390D02*
X149176143Y-117430771D01*
X149176143Y-117430771D02*
X149128524Y-117335533D01*
X149128524Y-117335533D02*
X149128524Y-117240295D01*
X149128524Y-117240295D02*
X149176143Y-117145057D01*
X149176143Y-117145057D02*
X149223762Y-117097438D01*
X149223762Y-117097438D02*
X149319000Y-117049819D01*
X149319000Y-117049819D02*
X149557095Y-117049819D01*
X149557095Y-117049819D02*
X149699952Y-117097438D01*
X150414238Y-117049819D02*
X150414238Y-117764104D01*
X150414238Y-117764104D02*
X150366619Y-117906961D01*
X150366619Y-117906961D02*
X150271381Y-118002200D01*
X150271381Y-118002200D02*
X150128524Y-118049819D01*
X150128524Y-118049819D02*
X150033286Y-118049819D01*
X151414238Y-118049819D02*
X150842810Y-118049819D01*
X151128524Y-118049819D02*
X151128524Y-117049819D01*
X151128524Y-117049819D02*
X151033286Y-117192676D01*
X151033286Y-117192676D02*
X150938048Y-117287914D01*
X150938048Y-117287914D02*
X150842810Y-117335533D01*
X151842810Y-117668866D02*
X152604715Y-117668866D01*
X152985667Y-117049819D02*
X153604714Y-117049819D01*
X153604714Y-117049819D02*
X153271381Y-117430771D01*
X153271381Y-117430771D02*
X153414238Y-117430771D01*
X153414238Y-117430771D02*
X153509476Y-117478390D01*
X153509476Y-117478390D02*
X153557095Y-117526009D01*
X153557095Y-117526009D02*
X153604714Y-117621247D01*
X153604714Y-117621247D02*
X153604714Y-117859342D01*
X153604714Y-117859342D02*
X153557095Y-117954580D01*
X153557095Y-117954580D02*
X153509476Y-118002200D01*
X153509476Y-118002200D02*
X153414238Y-118049819D01*
X153414238Y-118049819D02*
X153128524Y-118049819D01*
X153128524Y-118049819D02*
X153033286Y-118002200D01*
X153033286Y-118002200D02*
X152985667Y-117954580D01*
X154509476Y-117049819D02*
X154033286Y-117049819D01*
X154033286Y-117049819D02*
X153985667Y-117526009D01*
X153985667Y-117526009D02*
X154033286Y-117478390D01*
X154033286Y-117478390D02*
X154128524Y-117430771D01*
X154128524Y-117430771D02*
X154366619Y-117430771D01*
X154366619Y-117430771D02*
X154461857Y-117478390D01*
X154461857Y-117478390D02*
X154509476Y-117526009D01*
X154509476Y-117526009D02*
X154557095Y-117621247D01*
X154557095Y-117621247D02*
X154557095Y-117859342D01*
X154557095Y-117859342D02*
X154509476Y-117954580D01*
X154509476Y-117954580D02*
X154461857Y-118002200D01*
X154461857Y-118002200D02*
X154366619Y-118049819D01*
X154366619Y-118049819D02*
X154128524Y-118049819D01*
X154128524Y-118049819D02*
X154033286Y-118002200D01*
X154033286Y-118002200D02*
X153985667Y-117954580D01*
X154938048Y-117145057D02*
X154985667Y-117097438D01*
X154985667Y-117097438D02*
X155080905Y-117049819D01*
X155080905Y-117049819D02*
X155319000Y-117049819D01*
X155319000Y-117049819D02*
X155414238Y-117097438D01*
X155414238Y-117097438D02*
X155461857Y-117145057D01*
X155461857Y-117145057D02*
X155509476Y-117240295D01*
X155509476Y-117240295D02*
X155509476Y-117335533D01*
X155509476Y-117335533D02*
X155461857Y-117478390D01*
X155461857Y-117478390D02*
X154890429Y-118049819D01*
X154890429Y-118049819D02*
X155509476Y-118049819D01*
X155842810Y-117049819D02*
X156461857Y-117049819D01*
X156461857Y-117049819D02*
X156128524Y-117430771D01*
X156128524Y-117430771D02*
X156271381Y-117430771D01*
X156271381Y-117430771D02*
X156366619Y-117478390D01*
X156366619Y-117478390D02*
X156414238Y-117526009D01*
X156414238Y-117526009D02*
X156461857Y-117621247D01*
X156461857Y-117621247D02*
X156461857Y-117859342D01*
X156461857Y-117859342D02*
X156414238Y-117954580D01*
X156414238Y-117954580D02*
X156366619Y-118002200D01*
X156366619Y-118002200D02*
X156271381Y-118049819D01*
X156271381Y-118049819D02*
X155985667Y-118049819D01*
X155985667Y-118049819D02*
X155890429Y-118002200D01*
X155890429Y-118002200D02*
X155842810Y-117954580D01*
X156890429Y-118049819D02*
X156890429Y-117049819D01*
X156890429Y-117049819D02*
X157461857Y-118049819D01*
X157461857Y-118049819D02*
X157461857Y-117049819D01*
X156104714Y-125454580D02*
X156057095Y-125502200D01*
X156057095Y-125502200D02*
X155914238Y-125549819D01*
X155914238Y-125549819D02*
X155819000Y-125549819D01*
X155819000Y-125549819D02*
X155676143Y-125502200D01*
X155676143Y-125502200D02*
X155580905Y-125406961D01*
X155580905Y-125406961D02*
X155533286Y-125311723D01*
X155533286Y-125311723D02*
X155485667Y-125121247D01*
X155485667Y-125121247D02*
X155485667Y-124978390D01*
X155485667Y-124978390D02*
X155533286Y-124787914D01*
X155533286Y-124787914D02*
X155580905Y-124692676D01*
X155580905Y-124692676D02*
X155676143Y-124597438D01*
X155676143Y-124597438D02*
X155819000Y-124549819D01*
X155819000Y-124549819D02*
X155914238Y-124549819D01*
X155914238Y-124549819D02*
X156057095Y-124597438D01*
X156057095Y-124597438D02*
X156104714Y-124645057D01*
X156723762Y-124549819D02*
X156914238Y-124549819D01*
X156914238Y-124549819D02*
X157009476Y-124597438D01*
X157009476Y-124597438D02*
X157104714Y-124692676D01*
X157104714Y-124692676D02*
X157152333Y-124883152D01*
X157152333Y-124883152D02*
X157152333Y-125216485D01*
X157152333Y-125216485D02*
X157104714Y-125406961D01*
X157104714Y-125406961D02*
X157009476Y-125502200D01*
X157009476Y-125502200D02*
X156914238Y-125549819D01*
X156914238Y-125549819D02*
X156723762Y-125549819D01*
X156723762Y-125549819D02*
X156628524Y-125502200D01*
X156628524Y-125502200D02*
X156533286Y-125406961D01*
X156533286Y-125406961D02*
X156485667Y-125216485D01*
X156485667Y-125216485D02*
X156485667Y-124883152D01*
X156485667Y-124883152D02*
X156533286Y-124692676D01*
X156533286Y-124692676D02*
X156628524Y-124597438D01*
X156628524Y-124597438D02*
X156723762Y-124549819D01*
X157580905Y-125549819D02*
X157580905Y-124549819D01*
X157580905Y-124549819D02*
X158152333Y-125549819D01*
X158152333Y-125549819D02*
X158152333Y-124549819D01*
X159152333Y-125549819D02*
X158580905Y-125549819D01*
X158866619Y-125549819D02*
X158866619Y-124549819D01*
X158866619Y-124549819D02*
X158771381Y-124692676D01*
X158771381Y-124692676D02*
X158676143Y-124787914D01*
X158676143Y-124787914D02*
X158580905Y-124835533D01*
X57929999Y-141111009D02*
X58072856Y-141158628D01*
X58072856Y-141158628D02*
X58120475Y-141206247D01*
X58120475Y-141206247D02*
X58168094Y-141301485D01*
X58168094Y-141301485D02*
X58168094Y-141444342D01*
X58168094Y-141444342D02*
X58120475Y-141539580D01*
X58120475Y-141539580D02*
X58072856Y-141587200D01*
X58072856Y-141587200D02*
X57977618Y-141634819D01*
X57977618Y-141634819D02*
X57596666Y-141634819D01*
X57596666Y-141634819D02*
X57596666Y-140634819D01*
X57596666Y-140634819D02*
X57929999Y-140634819D01*
X57929999Y-140634819D02*
X58025237Y-140682438D01*
X58025237Y-140682438D02*
X58072856Y-140730057D01*
X58072856Y-140730057D02*
X58120475Y-140825295D01*
X58120475Y-140825295D02*
X58120475Y-140920533D01*
X58120475Y-140920533D02*
X58072856Y-141015771D01*
X58072856Y-141015771D02*
X58025237Y-141063390D01*
X58025237Y-141063390D02*
X57929999Y-141111009D01*
X57929999Y-141111009D02*
X57596666Y-141111009D01*
X58549047Y-141349104D02*
X59025237Y-141349104D01*
X58453809Y-141634819D02*
X58787142Y-140634819D01*
X58787142Y-140634819D02*
X59120475Y-141634819D01*
X59406190Y-141587200D02*
X59549047Y-141634819D01*
X59549047Y-141634819D02*
X59787142Y-141634819D01*
X59787142Y-141634819D02*
X59882380Y-141587200D01*
X59882380Y-141587200D02*
X59929999Y-141539580D01*
X59929999Y-141539580D02*
X59977618Y-141444342D01*
X59977618Y-141444342D02*
X59977618Y-141349104D01*
X59977618Y-141349104D02*
X59929999Y-141253866D01*
X59929999Y-141253866D02*
X59882380Y-141206247D01*
X59882380Y-141206247D02*
X59787142Y-141158628D01*
X59787142Y-141158628D02*
X59596666Y-141111009D01*
X59596666Y-141111009D02*
X59501428Y-141063390D01*
X59501428Y-141063390D02*
X59453809Y-141015771D01*
X59453809Y-141015771D02*
X59406190Y-140920533D01*
X59406190Y-140920533D02*
X59406190Y-140825295D01*
X59406190Y-140825295D02*
X59453809Y-140730057D01*
X59453809Y-140730057D02*
X59501428Y-140682438D01*
X59501428Y-140682438D02*
X59596666Y-140634819D01*
X59596666Y-140634819D02*
X59834761Y-140634819D01*
X59834761Y-140634819D02*
X59977618Y-140682438D01*
X60406190Y-141111009D02*
X60739523Y-141111009D01*
X60882380Y-141634819D02*
X60406190Y-141634819D01*
X60406190Y-141634819D02*
X60406190Y-140634819D01*
X60406190Y-140634819D02*
X60882380Y-140634819D01*
X62025238Y-141349104D02*
X62501428Y-141349104D01*
X61930000Y-141634819D02*
X62263333Y-140634819D01*
X62263333Y-140634819D02*
X62596666Y-141634819D01*
X62930000Y-141634819D02*
X62930000Y-140634819D01*
X62930000Y-140634819D02*
X63168095Y-140634819D01*
X63168095Y-140634819D02*
X63310952Y-140682438D01*
X63310952Y-140682438D02*
X63406190Y-140777676D01*
X63406190Y-140777676D02*
X63453809Y-140872914D01*
X63453809Y-140872914D02*
X63501428Y-141063390D01*
X63501428Y-141063390D02*
X63501428Y-141206247D01*
X63501428Y-141206247D02*
X63453809Y-141396723D01*
X63453809Y-141396723D02*
X63406190Y-141491961D01*
X63406190Y-141491961D02*
X63310952Y-141587200D01*
X63310952Y-141587200D02*
X63168095Y-141634819D01*
X63168095Y-141634819D02*
X62930000Y-141634819D01*
X63930000Y-141634819D02*
X63930000Y-140634819D01*
X63930000Y-140634819D02*
X64168095Y-140634819D01*
X64168095Y-140634819D02*
X64310952Y-140682438D01*
X64310952Y-140682438D02*
X64406190Y-140777676D01*
X64406190Y-140777676D02*
X64453809Y-140872914D01*
X64453809Y-140872914D02*
X64501428Y-141063390D01*
X64501428Y-141063390D02*
X64501428Y-141206247D01*
X64501428Y-141206247D02*
X64453809Y-141396723D01*
X64453809Y-141396723D02*
X64406190Y-141491961D01*
X64406190Y-141491961D02*
X64310952Y-141587200D01*
X64310952Y-141587200D02*
X64168095Y-141634819D01*
X64168095Y-141634819D02*
X63930000Y-141634819D01*
X65501428Y-141634819D02*
X65168095Y-141158628D01*
X64930000Y-141634819D02*
X64930000Y-140634819D01*
X64930000Y-140634819D02*
X65310952Y-140634819D01*
X65310952Y-140634819D02*
X65406190Y-140682438D01*
X65406190Y-140682438D02*
X65453809Y-140730057D01*
X65453809Y-140730057D02*
X65501428Y-140825295D01*
X65501428Y-140825295D02*
X65501428Y-140968152D01*
X65501428Y-140968152D02*
X65453809Y-141063390D01*
X65453809Y-141063390D02*
X65406190Y-141111009D01*
X65406190Y-141111009D02*
X65310952Y-141158628D01*
X65310952Y-141158628D02*
X64930000Y-141158628D01*
X65930000Y-141111009D02*
X66263333Y-141111009D01*
X66406190Y-141634819D02*
X65930000Y-141634819D01*
X65930000Y-141634819D02*
X65930000Y-140634819D01*
X65930000Y-140634819D02*
X66406190Y-140634819D01*
X66787143Y-141587200D02*
X66930000Y-141634819D01*
X66930000Y-141634819D02*
X67168095Y-141634819D01*
X67168095Y-141634819D02*
X67263333Y-141587200D01*
X67263333Y-141587200D02*
X67310952Y-141539580D01*
X67310952Y-141539580D02*
X67358571Y-141444342D01*
X67358571Y-141444342D02*
X67358571Y-141349104D01*
X67358571Y-141349104D02*
X67310952Y-141253866D01*
X67310952Y-141253866D02*
X67263333Y-141206247D01*
X67263333Y-141206247D02*
X67168095Y-141158628D01*
X67168095Y-141158628D02*
X66977619Y-141111009D01*
X66977619Y-141111009D02*
X66882381Y-141063390D01*
X66882381Y-141063390D02*
X66834762Y-141015771D01*
X66834762Y-141015771D02*
X66787143Y-140920533D01*
X66787143Y-140920533D02*
X66787143Y-140825295D01*
X66787143Y-140825295D02*
X66834762Y-140730057D01*
X66834762Y-140730057D02*
X66882381Y-140682438D01*
X66882381Y-140682438D02*
X66977619Y-140634819D01*
X66977619Y-140634819D02*
X67215714Y-140634819D01*
X67215714Y-140634819D02*
X67358571Y-140682438D01*
X67739524Y-141587200D02*
X67882381Y-141634819D01*
X67882381Y-141634819D02*
X68120476Y-141634819D01*
X68120476Y-141634819D02*
X68215714Y-141587200D01*
X68215714Y-141587200D02*
X68263333Y-141539580D01*
X68263333Y-141539580D02*
X68310952Y-141444342D01*
X68310952Y-141444342D02*
X68310952Y-141349104D01*
X68310952Y-141349104D02*
X68263333Y-141253866D01*
X68263333Y-141253866D02*
X68215714Y-141206247D01*
X68215714Y-141206247D02*
X68120476Y-141158628D01*
X68120476Y-141158628D02*
X67930000Y-141111009D01*
X67930000Y-141111009D02*
X67834762Y-141063390D01*
X67834762Y-141063390D02*
X67787143Y-141015771D01*
X67787143Y-141015771D02*
X67739524Y-140920533D01*
X67739524Y-140920533D02*
X67739524Y-140825295D01*
X67739524Y-140825295D02*
X67787143Y-140730057D01*
X67787143Y-140730057D02*
X67834762Y-140682438D01*
X67834762Y-140682438D02*
X67930000Y-140634819D01*
X67930000Y-140634819D02*
X68168095Y-140634819D01*
X68168095Y-140634819D02*
X68310952Y-140682438D01*
X63184819Y-150643333D02*
X63899104Y-150643333D01*
X63899104Y-150643333D02*
X64041961Y-150690952D01*
X64041961Y-150690952D02*
X64137200Y-150786190D01*
X64137200Y-150786190D02*
X64184819Y-150929047D01*
X64184819Y-150929047D02*
X64184819Y-151024285D01*
X64184819Y-150167142D02*
X63184819Y-150167142D01*
X63184819Y-150167142D02*
X63184819Y-149786190D01*
X63184819Y-149786190D02*
X63232438Y-149690952D01*
X63232438Y-149690952D02*
X63280057Y-149643333D01*
X63280057Y-149643333D02*
X63375295Y-149595714D01*
X63375295Y-149595714D02*
X63518152Y-149595714D01*
X63518152Y-149595714D02*
X63613390Y-149643333D01*
X63613390Y-149643333D02*
X63661009Y-149690952D01*
X63661009Y-149690952D02*
X63708628Y-149786190D01*
X63708628Y-149786190D02*
X63708628Y-150167142D01*
X64184819Y-148643333D02*
X64184819Y-149214761D01*
X64184819Y-148929047D02*
X63184819Y-148929047D01*
X63184819Y-148929047D02*
X63327676Y-149024285D01*
X63327676Y-149024285D02*
X63422914Y-149119523D01*
X63422914Y-149119523D02*
X63470533Y-149214761D01*
X60746285Y-136036819D02*
X60746285Y-135036819D01*
X60746285Y-135036819D02*
X61079618Y-135751104D01*
X61079618Y-135751104D02*
X61412951Y-135036819D01*
X61412951Y-135036819D02*
X61412951Y-136036819D01*
X62031999Y-136036819D02*
X61936761Y-135989200D01*
X61936761Y-135989200D02*
X61889142Y-135941580D01*
X61889142Y-135941580D02*
X61841523Y-135846342D01*
X61841523Y-135846342D02*
X61841523Y-135560628D01*
X61841523Y-135560628D02*
X61889142Y-135465390D01*
X61889142Y-135465390D02*
X61936761Y-135417771D01*
X61936761Y-135417771D02*
X62031999Y-135370152D01*
X62031999Y-135370152D02*
X62174856Y-135370152D01*
X62174856Y-135370152D02*
X62270094Y-135417771D01*
X62270094Y-135417771D02*
X62317713Y-135465390D01*
X62317713Y-135465390D02*
X62365332Y-135560628D01*
X62365332Y-135560628D02*
X62365332Y-135846342D01*
X62365332Y-135846342D02*
X62317713Y-135941580D01*
X62317713Y-135941580D02*
X62270094Y-135989200D01*
X62270094Y-135989200D02*
X62174856Y-136036819D01*
X62174856Y-136036819D02*
X62031999Y-136036819D01*
X63222475Y-135370152D02*
X63222475Y-136036819D01*
X62793904Y-135370152D02*
X62793904Y-135893961D01*
X62793904Y-135893961D02*
X62841523Y-135989200D01*
X62841523Y-135989200D02*
X62936761Y-136036819D01*
X62936761Y-136036819D02*
X63079618Y-136036819D01*
X63079618Y-136036819D02*
X63174856Y-135989200D01*
X63174856Y-135989200D02*
X63222475Y-135941580D01*
X63698666Y-135370152D02*
X63698666Y-136036819D01*
X63698666Y-135465390D02*
X63746285Y-135417771D01*
X63746285Y-135417771D02*
X63841523Y-135370152D01*
X63841523Y-135370152D02*
X63984380Y-135370152D01*
X63984380Y-135370152D02*
X64079618Y-135417771D01*
X64079618Y-135417771D02*
X64127237Y-135513009D01*
X64127237Y-135513009D02*
X64127237Y-136036819D01*
X64460571Y-135370152D02*
X64841523Y-135370152D01*
X64603428Y-135036819D02*
X64603428Y-135893961D01*
X64603428Y-135893961D02*
X64651047Y-135989200D01*
X64651047Y-135989200D02*
X64746285Y-136036819D01*
X64746285Y-136036819D02*
X64841523Y-136036819D01*
X65174857Y-136036819D02*
X65174857Y-135370152D01*
X65174857Y-135036819D02*
X65127238Y-135084438D01*
X65127238Y-135084438D02*
X65174857Y-135132057D01*
X65174857Y-135132057D02*
X65222476Y-135084438D01*
X65222476Y-135084438D02*
X65174857Y-135036819D01*
X65174857Y-135036819D02*
X65174857Y-135132057D01*
X65651047Y-135370152D02*
X65651047Y-136036819D01*
X65651047Y-135465390D02*
X65698666Y-135417771D01*
X65698666Y-135417771D02*
X65793904Y-135370152D01*
X65793904Y-135370152D02*
X65936761Y-135370152D01*
X65936761Y-135370152D02*
X66031999Y-135417771D01*
X66031999Y-135417771D02*
X66079618Y-135513009D01*
X66079618Y-135513009D02*
X66079618Y-136036819D01*
X66984380Y-135370152D02*
X66984380Y-136179676D01*
X66984380Y-136179676D02*
X66936761Y-136274914D01*
X66936761Y-136274914D02*
X66889142Y-136322533D01*
X66889142Y-136322533D02*
X66793904Y-136370152D01*
X66793904Y-136370152D02*
X66651047Y-136370152D01*
X66651047Y-136370152D02*
X66555809Y-136322533D01*
X66984380Y-135989200D02*
X66889142Y-136036819D01*
X66889142Y-136036819D02*
X66698666Y-136036819D01*
X66698666Y-136036819D02*
X66603428Y-135989200D01*
X66603428Y-135989200D02*
X66555809Y-135941580D01*
X66555809Y-135941580D02*
X66508190Y-135846342D01*
X66508190Y-135846342D02*
X66508190Y-135560628D01*
X66508190Y-135560628D02*
X66555809Y-135465390D01*
X66555809Y-135465390D02*
X66603428Y-135417771D01*
X66603428Y-135417771D02*
X66698666Y-135370152D01*
X66698666Y-135370152D02*
X66889142Y-135370152D01*
X66889142Y-135370152D02*
X66984380Y-135417771D01*
X67460571Y-136036819D02*
X67460571Y-135036819D01*
X67460571Y-135513009D02*
X68031999Y-135513009D01*
X68031999Y-136036819D02*
X68031999Y-135036819D01*
X68651047Y-136036819D02*
X68555809Y-135989200D01*
X68555809Y-135989200D02*
X68508190Y-135941580D01*
X68508190Y-135941580D02*
X68460571Y-135846342D01*
X68460571Y-135846342D02*
X68460571Y-135560628D01*
X68460571Y-135560628D02*
X68508190Y-135465390D01*
X68508190Y-135465390D02*
X68555809Y-135417771D01*
X68555809Y-135417771D02*
X68651047Y-135370152D01*
X68651047Y-135370152D02*
X68793904Y-135370152D01*
X68793904Y-135370152D02*
X68889142Y-135417771D01*
X68889142Y-135417771D02*
X68936761Y-135465390D01*
X68936761Y-135465390D02*
X68984380Y-135560628D01*
X68984380Y-135560628D02*
X68984380Y-135846342D01*
X68984380Y-135846342D02*
X68936761Y-135941580D01*
X68936761Y-135941580D02*
X68889142Y-135989200D01*
X68889142Y-135989200D02*
X68793904Y-136036819D01*
X68793904Y-136036819D02*
X68651047Y-136036819D01*
X69555809Y-136036819D02*
X69460571Y-135989200D01*
X69460571Y-135989200D02*
X69412952Y-135893961D01*
X69412952Y-135893961D02*
X69412952Y-135036819D01*
X70317714Y-135989200D02*
X70222476Y-136036819D01*
X70222476Y-136036819D02*
X70032000Y-136036819D01*
X70032000Y-136036819D02*
X69936762Y-135989200D01*
X69936762Y-135989200D02*
X69889143Y-135893961D01*
X69889143Y-135893961D02*
X69889143Y-135513009D01*
X69889143Y-135513009D02*
X69936762Y-135417771D01*
X69936762Y-135417771D02*
X70032000Y-135370152D01*
X70032000Y-135370152D02*
X70222476Y-135370152D01*
X70222476Y-135370152D02*
X70317714Y-135417771D01*
X70317714Y-135417771D02*
X70365333Y-135513009D01*
X70365333Y-135513009D02*
X70365333Y-135608247D01*
X70365333Y-135608247D02*
X69889143Y-135703485D01*
X65070095Y-131836819D02*
X65070095Y-130836819D01*
X65070095Y-131313009D02*
X65641523Y-131313009D01*
X65641523Y-131836819D02*
X65641523Y-130836819D01*
X66641523Y-131836819D02*
X66070095Y-131836819D01*
X66355809Y-131836819D02*
X66355809Y-130836819D01*
X66355809Y-130836819D02*
X66260571Y-130979676D01*
X66260571Y-130979676D02*
X66165333Y-131074914D01*
X66165333Y-131074914D02*
X66070095Y-131122533D01*
X61523809Y-166204819D02*
X61190476Y-165728628D01*
X60952381Y-166204819D02*
X60952381Y-165204819D01*
X60952381Y-165204819D02*
X61333333Y-165204819D01*
X61333333Y-165204819D02*
X61428571Y-165252438D01*
X61428571Y-165252438D02*
X61476190Y-165300057D01*
X61476190Y-165300057D02*
X61523809Y-165395295D01*
X61523809Y-165395295D02*
X61523809Y-165538152D01*
X61523809Y-165538152D02*
X61476190Y-165633390D01*
X61476190Y-165633390D02*
X61428571Y-165681009D01*
X61428571Y-165681009D02*
X61333333Y-165728628D01*
X61333333Y-165728628D02*
X60952381Y-165728628D01*
X62523809Y-166109580D02*
X62476190Y-166157200D01*
X62476190Y-166157200D02*
X62333333Y-166204819D01*
X62333333Y-166204819D02*
X62238095Y-166204819D01*
X62238095Y-166204819D02*
X62095238Y-166157200D01*
X62095238Y-166157200D02*
X62000000Y-166061961D01*
X62000000Y-166061961D02*
X61952381Y-165966723D01*
X61952381Y-165966723D02*
X61904762Y-165776247D01*
X61904762Y-165776247D02*
X61904762Y-165633390D01*
X61904762Y-165633390D02*
X61952381Y-165442914D01*
X61952381Y-165442914D02*
X62000000Y-165347676D01*
X62000000Y-165347676D02*
X62095238Y-165252438D01*
X62095238Y-165252438D02*
X62238095Y-165204819D01*
X62238095Y-165204819D02*
X62333333Y-165204819D01*
X62333333Y-165204819D02*
X62476190Y-165252438D01*
X62476190Y-165252438D02*
X62523809Y-165300057D01*
X62904762Y-165300057D02*
X62952381Y-165252438D01*
X62952381Y-165252438D02*
X63047619Y-165204819D01*
X63047619Y-165204819D02*
X63285714Y-165204819D01*
X63285714Y-165204819D02*
X63380952Y-165252438D01*
X63380952Y-165252438D02*
X63428571Y-165300057D01*
X63428571Y-165300057D02*
X63476190Y-165395295D01*
X63476190Y-165395295D02*
X63476190Y-165490533D01*
X63476190Y-165490533D02*
X63428571Y-165633390D01*
X63428571Y-165633390D02*
X62857143Y-166204819D01*
X62857143Y-166204819D02*
X63476190Y-166204819D01*
X64095238Y-165204819D02*
X64190476Y-165204819D01*
X64190476Y-165204819D02*
X64285714Y-165252438D01*
X64285714Y-165252438D02*
X64333333Y-165300057D01*
X64333333Y-165300057D02*
X64380952Y-165395295D01*
X64380952Y-165395295D02*
X64428571Y-165585771D01*
X64428571Y-165585771D02*
X64428571Y-165823866D01*
X64428571Y-165823866D02*
X64380952Y-166014342D01*
X64380952Y-166014342D02*
X64333333Y-166109580D01*
X64333333Y-166109580D02*
X64285714Y-166157200D01*
X64285714Y-166157200D02*
X64190476Y-166204819D01*
X64190476Y-166204819D02*
X64095238Y-166204819D01*
X64095238Y-166204819D02*
X64000000Y-166157200D01*
X64000000Y-166157200D02*
X63952381Y-166109580D01*
X63952381Y-166109580D02*
X63904762Y-166014342D01*
X63904762Y-166014342D02*
X63857143Y-165823866D01*
X63857143Y-165823866D02*
X63857143Y-165585771D01*
X63857143Y-165585771D02*
X63904762Y-165395295D01*
X63904762Y-165395295D02*
X63952381Y-165300057D01*
X63952381Y-165300057D02*
X64000000Y-165252438D01*
X64000000Y-165252438D02*
X64095238Y-165204819D01*
X65380952Y-166204819D02*
X64809524Y-166204819D01*
X65095238Y-166204819D02*
X65095238Y-165204819D01*
X65095238Y-165204819D02*
X65000000Y-165347676D01*
X65000000Y-165347676D02*
X64904762Y-165442914D01*
X64904762Y-165442914D02*
X64809524Y-165490533D01*
X66238095Y-165538152D02*
X66238095Y-166204819D01*
X66000000Y-165157200D02*
X65761905Y-165871485D01*
X65761905Y-165871485D02*
X66380952Y-165871485D01*
X67857143Y-165681009D02*
X68000000Y-165728628D01*
X68000000Y-165728628D02*
X68047619Y-165776247D01*
X68047619Y-165776247D02*
X68095238Y-165871485D01*
X68095238Y-165871485D02*
X68095238Y-166014342D01*
X68095238Y-166014342D02*
X68047619Y-166109580D01*
X68047619Y-166109580D02*
X68000000Y-166157200D01*
X68000000Y-166157200D02*
X67904762Y-166204819D01*
X67904762Y-166204819D02*
X67523810Y-166204819D01*
X67523810Y-166204819D02*
X67523810Y-165204819D01*
X67523810Y-165204819D02*
X67857143Y-165204819D01*
X67857143Y-165204819D02*
X67952381Y-165252438D01*
X67952381Y-165252438D02*
X68000000Y-165300057D01*
X68000000Y-165300057D02*
X68047619Y-165395295D01*
X68047619Y-165395295D02*
X68047619Y-165490533D01*
X68047619Y-165490533D02*
X68000000Y-165585771D01*
X68000000Y-165585771D02*
X67952381Y-165633390D01*
X67952381Y-165633390D02*
X67857143Y-165681009D01*
X67857143Y-165681009D02*
X67523810Y-165681009D01*
X68523810Y-165204819D02*
X68523810Y-166014342D01*
X68523810Y-166014342D02*
X68571429Y-166109580D01*
X68571429Y-166109580D02*
X68619048Y-166157200D01*
X68619048Y-166157200D02*
X68714286Y-166204819D01*
X68714286Y-166204819D02*
X68904762Y-166204819D01*
X68904762Y-166204819D02*
X69000000Y-166157200D01*
X69000000Y-166157200D02*
X69047619Y-166109580D01*
X69047619Y-166109580D02*
X69095238Y-166014342D01*
X69095238Y-166014342D02*
X69095238Y-165204819D01*
X69523810Y-166157200D02*
X69666667Y-166204819D01*
X69666667Y-166204819D02*
X69904762Y-166204819D01*
X69904762Y-166204819D02*
X70000000Y-166157200D01*
X70000000Y-166157200D02*
X70047619Y-166109580D01*
X70047619Y-166109580D02*
X70095238Y-166014342D01*
X70095238Y-166014342D02*
X70095238Y-165919104D01*
X70095238Y-165919104D02*
X70047619Y-165823866D01*
X70047619Y-165823866D02*
X70000000Y-165776247D01*
X70000000Y-165776247D02*
X69904762Y-165728628D01*
X69904762Y-165728628D02*
X69714286Y-165681009D01*
X69714286Y-165681009D02*
X69619048Y-165633390D01*
X69619048Y-165633390D02*
X69571429Y-165585771D01*
X69571429Y-165585771D02*
X69523810Y-165490533D01*
X69523810Y-165490533D02*
X69523810Y-165395295D01*
X69523810Y-165395295D02*
X69571429Y-165300057D01*
X69571429Y-165300057D02*
X69619048Y-165252438D01*
X69619048Y-165252438D02*
X69714286Y-165204819D01*
X69714286Y-165204819D02*
X69952381Y-165204819D01*
X69952381Y-165204819D02*
X70095238Y-165252438D01*
X109521905Y-163454819D02*
X109521905Y-162454819D01*
X109521905Y-162454819D02*
X109902857Y-162454819D01*
X109902857Y-162454819D02*
X109998095Y-162502438D01*
X109998095Y-162502438D02*
X110045714Y-162550057D01*
X110045714Y-162550057D02*
X110093333Y-162645295D01*
X110093333Y-162645295D02*
X110093333Y-162788152D01*
X110093333Y-162788152D02*
X110045714Y-162883390D01*
X110045714Y-162883390D02*
X109998095Y-162931009D01*
X109998095Y-162931009D02*
X109902857Y-162978628D01*
X109902857Y-162978628D02*
X109521905Y-162978628D01*
X111045714Y-163454819D02*
X110474286Y-163454819D01*
X110760000Y-163454819D02*
X110760000Y-162454819D01*
X110760000Y-162454819D02*
X110664762Y-162597676D01*
X110664762Y-162597676D02*
X110569524Y-162692914D01*
X110569524Y-162692914D02*
X110474286Y-162740533D01*
X93399819Y-155492856D02*
X93399819Y-154826190D01*
X93399819Y-154826190D02*
X94399819Y-155254761D01*
X93733152Y-154016666D02*
X94399819Y-154016666D01*
X93352200Y-154254761D02*
X94066485Y-154492856D01*
X94066485Y-154492856D02*
X94066485Y-153873809D01*
X94399819Y-153492856D02*
X93399819Y-153492856D01*
X93876009Y-153492856D02*
X93876009Y-152921428D01*
X94399819Y-152921428D02*
X93399819Y-152921428D01*
X94304580Y-151873809D02*
X94352200Y-151921428D01*
X94352200Y-151921428D02*
X94399819Y-152064285D01*
X94399819Y-152064285D02*
X94399819Y-152159523D01*
X94399819Y-152159523D02*
X94352200Y-152302380D01*
X94352200Y-152302380D02*
X94256961Y-152397618D01*
X94256961Y-152397618D02*
X94161723Y-152445237D01*
X94161723Y-152445237D02*
X93971247Y-152492856D01*
X93971247Y-152492856D02*
X93828390Y-152492856D01*
X93828390Y-152492856D02*
X93637914Y-152445237D01*
X93637914Y-152445237D02*
X93542676Y-152397618D01*
X93542676Y-152397618D02*
X93447438Y-152302380D01*
X93447438Y-152302380D02*
X93399819Y-152159523D01*
X93399819Y-152159523D02*
X93399819Y-152064285D01*
X93399819Y-152064285D02*
X93447438Y-151921428D01*
X93447438Y-151921428D02*
X93495057Y-151873809D01*
X93399819Y-151588094D02*
X93399819Y-151016666D01*
X94399819Y-151302380D02*
X93399819Y-151302380D01*
X93399819Y-150254761D02*
X93399819Y-150445237D01*
X93399819Y-150445237D02*
X93447438Y-150540475D01*
X93447438Y-150540475D02*
X93495057Y-150588094D01*
X93495057Y-150588094D02*
X93637914Y-150683332D01*
X93637914Y-150683332D02*
X93828390Y-150730951D01*
X93828390Y-150730951D02*
X94209342Y-150730951D01*
X94209342Y-150730951D02*
X94304580Y-150683332D01*
X94304580Y-150683332D02*
X94352200Y-150635713D01*
X94352200Y-150635713D02*
X94399819Y-150540475D01*
X94399819Y-150540475D02*
X94399819Y-150349999D01*
X94399819Y-150349999D02*
X94352200Y-150254761D01*
X94352200Y-150254761D02*
X94304580Y-150207142D01*
X94304580Y-150207142D02*
X94209342Y-150159523D01*
X94209342Y-150159523D02*
X93971247Y-150159523D01*
X93971247Y-150159523D02*
X93876009Y-150207142D01*
X93876009Y-150207142D02*
X93828390Y-150254761D01*
X93828390Y-150254761D02*
X93780771Y-150349999D01*
X93780771Y-150349999D02*
X93780771Y-150540475D01*
X93780771Y-150540475D02*
X93828390Y-150635713D01*
X93828390Y-150635713D02*
X93876009Y-150683332D01*
X93876009Y-150683332D02*
X93971247Y-150730951D01*
X93828390Y-149588094D02*
X93780771Y-149683332D01*
X93780771Y-149683332D02*
X93733152Y-149730951D01*
X93733152Y-149730951D02*
X93637914Y-149778570D01*
X93637914Y-149778570D02*
X93590295Y-149778570D01*
X93590295Y-149778570D02*
X93495057Y-149730951D01*
X93495057Y-149730951D02*
X93447438Y-149683332D01*
X93447438Y-149683332D02*
X93399819Y-149588094D01*
X93399819Y-149588094D02*
X93399819Y-149397618D01*
X93399819Y-149397618D02*
X93447438Y-149302380D01*
X93447438Y-149302380D02*
X93495057Y-149254761D01*
X93495057Y-149254761D02*
X93590295Y-149207142D01*
X93590295Y-149207142D02*
X93637914Y-149207142D01*
X93637914Y-149207142D02*
X93733152Y-149254761D01*
X93733152Y-149254761D02*
X93780771Y-149302380D01*
X93780771Y-149302380D02*
X93828390Y-149397618D01*
X93828390Y-149397618D02*
X93828390Y-149588094D01*
X93828390Y-149588094D02*
X93876009Y-149683332D01*
X93876009Y-149683332D02*
X93923628Y-149730951D01*
X93923628Y-149730951D02*
X94018866Y-149778570D01*
X94018866Y-149778570D02*
X94209342Y-149778570D01*
X94209342Y-149778570D02*
X94304580Y-149730951D01*
X94304580Y-149730951D02*
X94352200Y-149683332D01*
X94352200Y-149683332D02*
X94399819Y-149588094D01*
X94399819Y-149588094D02*
X94399819Y-149397618D01*
X94399819Y-149397618D02*
X94352200Y-149302380D01*
X94352200Y-149302380D02*
X94304580Y-149254761D01*
X94304580Y-149254761D02*
X94209342Y-149207142D01*
X94209342Y-149207142D02*
X94018866Y-149207142D01*
X94018866Y-149207142D02*
X93923628Y-149254761D01*
X93923628Y-149254761D02*
X93876009Y-149302380D01*
X93876009Y-149302380D02*
X93828390Y-149397618D01*
X93828390Y-148635713D02*
X93780771Y-148730951D01*
X93780771Y-148730951D02*
X93733152Y-148778570D01*
X93733152Y-148778570D02*
X93637914Y-148826189D01*
X93637914Y-148826189D02*
X93590295Y-148826189D01*
X93590295Y-148826189D02*
X93495057Y-148778570D01*
X93495057Y-148778570D02*
X93447438Y-148730951D01*
X93447438Y-148730951D02*
X93399819Y-148635713D01*
X93399819Y-148635713D02*
X93399819Y-148445237D01*
X93399819Y-148445237D02*
X93447438Y-148349999D01*
X93447438Y-148349999D02*
X93495057Y-148302380D01*
X93495057Y-148302380D02*
X93590295Y-148254761D01*
X93590295Y-148254761D02*
X93637914Y-148254761D01*
X93637914Y-148254761D02*
X93733152Y-148302380D01*
X93733152Y-148302380D02*
X93780771Y-148349999D01*
X93780771Y-148349999D02*
X93828390Y-148445237D01*
X93828390Y-148445237D02*
X93828390Y-148635713D01*
X93828390Y-148635713D02*
X93876009Y-148730951D01*
X93876009Y-148730951D02*
X93923628Y-148778570D01*
X93923628Y-148778570D02*
X94018866Y-148826189D01*
X94018866Y-148826189D02*
X94209342Y-148826189D01*
X94209342Y-148826189D02*
X94304580Y-148778570D01*
X94304580Y-148778570D02*
X94352200Y-148730951D01*
X94352200Y-148730951D02*
X94399819Y-148635713D01*
X94399819Y-148635713D02*
X94399819Y-148445237D01*
X94399819Y-148445237D02*
X94352200Y-148349999D01*
X94352200Y-148349999D02*
X94304580Y-148302380D01*
X94304580Y-148302380D02*
X94209342Y-148254761D01*
X94209342Y-148254761D02*
X94018866Y-148254761D01*
X94018866Y-148254761D02*
X93923628Y-148302380D01*
X93923628Y-148302380D02*
X93876009Y-148349999D01*
X93876009Y-148349999D02*
X93828390Y-148445237D01*
X86049819Y-152611904D02*
X86859342Y-152611904D01*
X86859342Y-152611904D02*
X86954580Y-152564285D01*
X86954580Y-152564285D02*
X87002200Y-152516666D01*
X87002200Y-152516666D02*
X87049819Y-152421428D01*
X87049819Y-152421428D02*
X87049819Y-152230952D01*
X87049819Y-152230952D02*
X87002200Y-152135714D01*
X87002200Y-152135714D02*
X86954580Y-152088095D01*
X86954580Y-152088095D02*
X86859342Y-152040476D01*
X86859342Y-152040476D02*
X86049819Y-152040476D01*
X87049819Y-151040476D02*
X87049819Y-151611904D01*
X87049819Y-151326190D02*
X86049819Y-151326190D01*
X86049819Y-151326190D02*
X86192676Y-151421428D01*
X86192676Y-151421428D02*
X86287914Y-151516666D01*
X86287914Y-151516666D02*
X86335533Y-151611904D01*
X124024819Y-129523809D02*
X124024819Y-129714285D01*
X124024819Y-129714285D02*
X124072438Y-129809523D01*
X124072438Y-129809523D02*
X124120057Y-129857142D01*
X124120057Y-129857142D02*
X124262914Y-129952380D01*
X124262914Y-129952380D02*
X124453390Y-129999999D01*
X124453390Y-129999999D02*
X124834342Y-129999999D01*
X124834342Y-129999999D02*
X124929580Y-129952380D01*
X124929580Y-129952380D02*
X124977200Y-129904761D01*
X124977200Y-129904761D02*
X125024819Y-129809523D01*
X125024819Y-129809523D02*
X125024819Y-129619047D01*
X125024819Y-129619047D02*
X124977200Y-129523809D01*
X124977200Y-129523809D02*
X124929580Y-129476190D01*
X124929580Y-129476190D02*
X124834342Y-129428571D01*
X124834342Y-129428571D02*
X124596247Y-129428571D01*
X124596247Y-129428571D02*
X124501009Y-129476190D01*
X124501009Y-129476190D02*
X124453390Y-129523809D01*
X124453390Y-129523809D02*
X124405771Y-129619047D01*
X124405771Y-129619047D02*
X124405771Y-129809523D01*
X124405771Y-129809523D02*
X124453390Y-129904761D01*
X124453390Y-129904761D02*
X124501009Y-129952380D01*
X124501009Y-129952380D02*
X124596247Y-129999999D01*
X124453390Y-128857142D02*
X124405771Y-128952380D01*
X124405771Y-128952380D02*
X124358152Y-128999999D01*
X124358152Y-128999999D02*
X124262914Y-129047618D01*
X124262914Y-129047618D02*
X124215295Y-129047618D01*
X124215295Y-129047618D02*
X124120057Y-128999999D01*
X124120057Y-128999999D02*
X124072438Y-128952380D01*
X124072438Y-128952380D02*
X124024819Y-128857142D01*
X124024819Y-128857142D02*
X124024819Y-128666666D01*
X124024819Y-128666666D02*
X124072438Y-128571428D01*
X124072438Y-128571428D02*
X124120057Y-128523809D01*
X124120057Y-128523809D02*
X124215295Y-128476190D01*
X124215295Y-128476190D02*
X124262914Y-128476190D01*
X124262914Y-128476190D02*
X124358152Y-128523809D01*
X124358152Y-128523809D02*
X124405771Y-128571428D01*
X124405771Y-128571428D02*
X124453390Y-128666666D01*
X124453390Y-128666666D02*
X124453390Y-128857142D01*
X124453390Y-128857142D02*
X124501009Y-128952380D01*
X124501009Y-128952380D02*
X124548628Y-128999999D01*
X124548628Y-128999999D02*
X124643866Y-129047618D01*
X124643866Y-129047618D02*
X124834342Y-129047618D01*
X124834342Y-129047618D02*
X124929580Y-128999999D01*
X124929580Y-128999999D02*
X124977200Y-128952380D01*
X124977200Y-128952380D02*
X125024819Y-128857142D01*
X125024819Y-128857142D02*
X125024819Y-128666666D01*
X125024819Y-128666666D02*
X124977200Y-128571428D01*
X124977200Y-128571428D02*
X124929580Y-128523809D01*
X124929580Y-128523809D02*
X124834342Y-128476190D01*
X124834342Y-128476190D02*
X124643866Y-128476190D01*
X124643866Y-128476190D02*
X124548628Y-128523809D01*
X124548628Y-128523809D02*
X124501009Y-128571428D01*
X124501009Y-128571428D02*
X124453390Y-128666666D01*
X124358152Y-128047618D02*
X125358152Y-128047618D01*
X124405771Y-128047618D02*
X124358152Y-127952380D01*
X124358152Y-127952380D02*
X124358152Y-127761904D01*
X124358152Y-127761904D02*
X124405771Y-127666666D01*
X124405771Y-127666666D02*
X124453390Y-127619047D01*
X124453390Y-127619047D02*
X124548628Y-127571428D01*
X124548628Y-127571428D02*
X124834342Y-127571428D01*
X124834342Y-127571428D02*
X124929580Y-127619047D01*
X124929580Y-127619047D02*
X124977200Y-127666666D01*
X124977200Y-127666666D02*
X125024819Y-127761904D01*
X125024819Y-127761904D02*
X125024819Y-127952380D01*
X125024819Y-127952380D02*
X124977200Y-128047618D01*
X124358152Y-127285713D02*
X124358152Y-126904761D01*
X125024819Y-127142856D02*
X124167676Y-127142856D01*
X124167676Y-127142856D02*
X124072438Y-127095237D01*
X124072438Y-127095237D02*
X124024819Y-126999999D01*
X124024819Y-126999999D02*
X124024819Y-126904761D01*
D11*
X126143832Y-128757142D02*
X126162880Y-128776190D01*
X126162880Y-128776190D02*
X126181927Y-128833332D01*
X126181927Y-128833332D02*
X126181927Y-128871428D01*
X126181927Y-128871428D02*
X126162880Y-128928571D01*
X126162880Y-128928571D02*
X126124784Y-128966666D01*
X126124784Y-128966666D02*
X126086689Y-128985713D01*
X126086689Y-128985713D02*
X126010499Y-129004761D01*
X126010499Y-129004761D02*
X125953356Y-129004761D01*
X125953356Y-129004761D02*
X125877165Y-128985713D01*
X125877165Y-128985713D02*
X125839070Y-128966666D01*
X125839070Y-128966666D02*
X125800975Y-128928571D01*
X125800975Y-128928571D02*
X125781927Y-128871428D01*
X125781927Y-128871428D02*
X125781927Y-128833332D01*
X125781927Y-128833332D02*
X125800975Y-128776190D01*
X125800975Y-128776190D02*
X125820022Y-128757142D01*
X126181927Y-128376190D02*
X126181927Y-128604761D01*
X126181927Y-128490475D02*
X125781927Y-128490475D01*
X125781927Y-128490475D02*
X125839070Y-128528571D01*
X125839070Y-128528571D02*
X125877165Y-128566666D01*
X125877165Y-128566666D02*
X125896213Y-128604761D01*
X126181927Y-127995238D02*
X126181927Y-128223809D01*
X126181927Y-128109523D02*
X125781927Y-128109523D01*
X125781927Y-128109523D02*
X125839070Y-128147619D01*
X125839070Y-128147619D02*
X125877165Y-128185714D01*
X125877165Y-128185714D02*
X125896213Y-128223809D01*
D10*
X115524819Y-132433928D02*
X115524819Y-133005356D01*
X115524819Y-132719642D02*
X114524819Y-132719642D01*
X114524819Y-132719642D02*
X114667676Y-132814880D01*
X114667676Y-132814880D02*
X114762914Y-132910118D01*
X114762914Y-132910118D02*
X114810533Y-133005356D01*
X114524819Y-131814880D02*
X114524819Y-131719642D01*
X114524819Y-131719642D02*
X114572438Y-131624404D01*
X114572438Y-131624404D02*
X114620057Y-131576785D01*
X114620057Y-131576785D02*
X114715295Y-131529166D01*
X114715295Y-131529166D02*
X114905771Y-131481547D01*
X114905771Y-131481547D02*
X115143866Y-131481547D01*
X115143866Y-131481547D02*
X115334342Y-131529166D01*
X115334342Y-131529166D02*
X115429580Y-131576785D01*
X115429580Y-131576785D02*
X115477200Y-131624404D01*
X115477200Y-131624404D02*
X115524819Y-131719642D01*
X115524819Y-131719642D02*
X115524819Y-131814880D01*
X115524819Y-131814880D02*
X115477200Y-131910118D01*
X115477200Y-131910118D02*
X115429580Y-131957737D01*
X115429580Y-131957737D02*
X115334342Y-132005356D01*
X115334342Y-132005356D02*
X115143866Y-132052975D01*
X115143866Y-132052975D02*
X114905771Y-132052975D01*
X114905771Y-132052975D02*
X114715295Y-132005356D01*
X114715295Y-132005356D02*
X114620057Y-131957737D01*
X114620057Y-131957737D02*
X114572438Y-131910118D01*
X114572438Y-131910118D02*
X114524819Y-131814880D01*
X114858152Y-130624404D02*
X115524819Y-130624404D01*
X114858152Y-131052975D02*
X115381961Y-131052975D01*
X115381961Y-131052975D02*
X115477200Y-131005356D01*
X115477200Y-131005356D02*
X115524819Y-130910118D01*
X115524819Y-130910118D02*
X115524819Y-130767261D01*
X115524819Y-130767261D02*
X115477200Y-130672023D01*
X115477200Y-130672023D02*
X115429580Y-130624404D01*
X115001009Y-129814880D02*
X115001009Y-130148213D01*
X115524819Y-130148213D02*
X114524819Y-130148213D01*
X114524819Y-130148213D02*
X114524819Y-129672023D01*
D11*
X116643832Y-131429166D02*
X116662880Y-131448214D01*
X116662880Y-131448214D02*
X116681927Y-131505356D01*
X116681927Y-131505356D02*
X116681927Y-131543452D01*
X116681927Y-131543452D02*
X116662880Y-131600595D01*
X116662880Y-131600595D02*
X116624784Y-131638690D01*
X116624784Y-131638690D02*
X116586689Y-131657737D01*
X116586689Y-131657737D02*
X116510499Y-131676785D01*
X116510499Y-131676785D02*
X116453356Y-131676785D01*
X116453356Y-131676785D02*
X116377165Y-131657737D01*
X116377165Y-131657737D02*
X116339070Y-131638690D01*
X116339070Y-131638690D02*
X116300975Y-131600595D01*
X116300975Y-131600595D02*
X116281927Y-131543452D01*
X116281927Y-131543452D02*
X116281927Y-131505356D01*
X116281927Y-131505356D02*
X116300975Y-131448214D01*
X116300975Y-131448214D02*
X116320022Y-131429166D01*
X116453356Y-131200595D02*
X116434308Y-131238690D01*
X116434308Y-131238690D02*
X116415260Y-131257737D01*
X116415260Y-131257737D02*
X116377165Y-131276785D01*
X116377165Y-131276785D02*
X116358118Y-131276785D01*
X116358118Y-131276785D02*
X116320022Y-131257737D01*
X116320022Y-131257737D02*
X116300975Y-131238690D01*
X116300975Y-131238690D02*
X116281927Y-131200595D01*
X116281927Y-131200595D02*
X116281927Y-131124404D01*
X116281927Y-131124404D02*
X116300975Y-131086309D01*
X116300975Y-131086309D02*
X116320022Y-131067261D01*
X116320022Y-131067261D02*
X116358118Y-131048214D01*
X116358118Y-131048214D02*
X116377165Y-131048214D01*
X116377165Y-131048214D02*
X116415260Y-131067261D01*
X116415260Y-131067261D02*
X116434308Y-131086309D01*
X116434308Y-131086309D02*
X116453356Y-131124404D01*
X116453356Y-131124404D02*
X116453356Y-131200595D01*
X116453356Y-131200595D02*
X116472403Y-131238690D01*
X116472403Y-131238690D02*
X116491451Y-131257737D01*
X116491451Y-131257737D02*
X116529546Y-131276785D01*
X116529546Y-131276785D02*
X116605737Y-131276785D01*
X116605737Y-131276785D02*
X116643832Y-131257737D01*
X116643832Y-131257737D02*
X116662880Y-131238690D01*
X116662880Y-131238690D02*
X116681927Y-131200595D01*
X116681927Y-131200595D02*
X116681927Y-131124404D01*
X116681927Y-131124404D02*
X116662880Y-131086309D01*
X116662880Y-131086309D02*
X116643832Y-131067261D01*
X116643832Y-131067261D02*
X116605737Y-131048214D01*
X116605737Y-131048214D02*
X116529546Y-131048214D01*
X116529546Y-131048214D02*
X116491451Y-131067261D01*
X116491451Y-131067261D02*
X116472403Y-131086309D01*
X116472403Y-131086309D02*
X116453356Y-131124404D01*
D10*
X117274819Y-133005356D02*
X117274819Y-132910118D01*
X117274819Y-132910118D02*
X117322438Y-132814880D01*
X117322438Y-132814880D02*
X117370057Y-132767261D01*
X117370057Y-132767261D02*
X117465295Y-132719642D01*
X117465295Y-132719642D02*
X117655771Y-132672023D01*
X117655771Y-132672023D02*
X117893866Y-132672023D01*
X117893866Y-132672023D02*
X118084342Y-132719642D01*
X118084342Y-132719642D02*
X118179580Y-132767261D01*
X118179580Y-132767261D02*
X118227200Y-132814880D01*
X118227200Y-132814880D02*
X118274819Y-132910118D01*
X118274819Y-132910118D02*
X118274819Y-133005356D01*
X118274819Y-133005356D02*
X118227200Y-133100594D01*
X118227200Y-133100594D02*
X118179580Y-133148213D01*
X118179580Y-133148213D02*
X118084342Y-133195832D01*
X118084342Y-133195832D02*
X117893866Y-133243451D01*
X117893866Y-133243451D02*
X117655771Y-133243451D01*
X117655771Y-133243451D02*
X117465295Y-133195832D01*
X117465295Y-133195832D02*
X117370057Y-133148213D01*
X117370057Y-133148213D02*
X117322438Y-133100594D01*
X117322438Y-133100594D02*
X117274819Y-133005356D01*
X118179580Y-132243451D02*
X118227200Y-132195832D01*
X118227200Y-132195832D02*
X118274819Y-132243451D01*
X118274819Y-132243451D02*
X118227200Y-132291070D01*
X118227200Y-132291070D02*
X118179580Y-132243451D01*
X118179580Y-132243451D02*
X118274819Y-132243451D01*
X118274819Y-131243452D02*
X118274819Y-131814880D01*
X118274819Y-131529166D02*
X117274819Y-131529166D01*
X117274819Y-131529166D02*
X117417676Y-131624404D01*
X117417676Y-131624404D02*
X117512914Y-131719642D01*
X117512914Y-131719642D02*
X117560533Y-131814880D01*
X117608152Y-130386309D02*
X118274819Y-130386309D01*
X117608152Y-130814880D02*
X118131961Y-130814880D01*
X118131961Y-130814880D02*
X118227200Y-130767261D01*
X118227200Y-130767261D02*
X118274819Y-130672023D01*
X118274819Y-130672023D02*
X118274819Y-130529166D01*
X118274819Y-130529166D02*
X118227200Y-130433928D01*
X118227200Y-130433928D02*
X118179580Y-130386309D01*
X117751009Y-129576785D02*
X117751009Y-129910118D01*
X118274819Y-129910118D02*
X117274819Y-129910118D01*
X117274819Y-129910118D02*
X117274819Y-129433928D01*
D11*
X119393832Y-131619642D02*
X119412880Y-131638690D01*
X119412880Y-131638690D02*
X119431927Y-131695832D01*
X119431927Y-131695832D02*
X119431927Y-131733928D01*
X119431927Y-131733928D02*
X119412880Y-131791071D01*
X119412880Y-131791071D02*
X119374784Y-131829166D01*
X119374784Y-131829166D02*
X119336689Y-131848213D01*
X119336689Y-131848213D02*
X119260499Y-131867261D01*
X119260499Y-131867261D02*
X119203356Y-131867261D01*
X119203356Y-131867261D02*
X119127165Y-131848213D01*
X119127165Y-131848213D02*
X119089070Y-131829166D01*
X119089070Y-131829166D02*
X119050975Y-131791071D01*
X119050975Y-131791071D02*
X119031927Y-131733928D01*
X119031927Y-131733928D02*
X119031927Y-131695832D01*
X119031927Y-131695832D02*
X119050975Y-131638690D01*
X119050975Y-131638690D02*
X119070022Y-131619642D01*
X119431927Y-131238690D02*
X119431927Y-131467261D01*
X119431927Y-131352975D02*
X119031927Y-131352975D01*
X119031927Y-131352975D02*
X119089070Y-131391071D01*
X119089070Y-131391071D02*
X119127165Y-131429166D01*
X119127165Y-131429166D02*
X119146213Y-131467261D01*
X119070022Y-131086309D02*
X119050975Y-131067261D01*
X119050975Y-131067261D02*
X119031927Y-131029166D01*
X119031927Y-131029166D02*
X119031927Y-130933928D01*
X119031927Y-130933928D02*
X119050975Y-130895833D01*
X119050975Y-130895833D02*
X119070022Y-130876785D01*
X119070022Y-130876785D02*
X119108118Y-130857738D01*
X119108118Y-130857738D02*
X119146213Y-130857738D01*
X119146213Y-130857738D02*
X119203356Y-130876785D01*
X119203356Y-130876785D02*
X119431927Y-131105357D01*
X119431927Y-131105357D02*
X119431927Y-130857738D01*
D10*
X130128628Y-154428571D02*
X130604819Y-154428571D01*
X129604819Y-154761904D02*
X130128628Y-154428571D01*
X130128628Y-154428571D02*
X129604819Y-154095238D01*
X130604819Y-153761904D02*
X129604819Y-153761904D01*
X129604819Y-153761904D02*
X130319104Y-153428571D01*
X130319104Y-153428571D02*
X129604819Y-153095238D01*
X129604819Y-153095238D02*
X130604819Y-153095238D01*
X130081009Y-152285714D02*
X130081009Y-152619047D01*
X130604819Y-152619047D02*
X129604819Y-152619047D01*
X129604819Y-152619047D02*
X129604819Y-152142857D01*
X129700057Y-151809523D02*
X129652438Y-151761904D01*
X129652438Y-151761904D02*
X129604819Y-151666666D01*
X129604819Y-151666666D02*
X129604819Y-151428571D01*
X129604819Y-151428571D02*
X129652438Y-151333333D01*
X129652438Y-151333333D02*
X129700057Y-151285714D01*
X129700057Y-151285714D02*
X129795295Y-151238095D01*
X129795295Y-151238095D02*
X129890533Y-151238095D01*
X129890533Y-151238095D02*
X130033390Y-151285714D01*
X130033390Y-151285714D02*
X130604819Y-151857142D01*
X130604819Y-151857142D02*
X130604819Y-151238095D01*
X129604819Y-150380952D02*
X129604819Y-150571428D01*
X129604819Y-150571428D02*
X129652438Y-150666666D01*
X129652438Y-150666666D02*
X129700057Y-150714285D01*
X129700057Y-150714285D02*
X129842914Y-150809523D01*
X129842914Y-150809523D02*
X130033390Y-150857142D01*
X130033390Y-150857142D02*
X130414342Y-150857142D01*
X130414342Y-150857142D02*
X130509580Y-150809523D01*
X130509580Y-150809523D02*
X130557200Y-150761904D01*
X130557200Y-150761904D02*
X130604819Y-150666666D01*
X130604819Y-150666666D02*
X130604819Y-150476190D01*
X130604819Y-150476190D02*
X130557200Y-150380952D01*
X130557200Y-150380952D02*
X130509580Y-150333333D01*
X130509580Y-150333333D02*
X130414342Y-150285714D01*
X130414342Y-150285714D02*
X130176247Y-150285714D01*
X130176247Y-150285714D02*
X130081009Y-150333333D01*
X130081009Y-150333333D02*
X130033390Y-150380952D01*
X130033390Y-150380952D02*
X129985771Y-150476190D01*
X129985771Y-150476190D02*
X129985771Y-150666666D01*
X129985771Y-150666666D02*
X130033390Y-150761904D01*
X130033390Y-150761904D02*
X130081009Y-150809523D01*
X130081009Y-150809523D02*
X130176247Y-150857142D01*
X129700057Y-149904761D02*
X129652438Y-149857142D01*
X129652438Y-149857142D02*
X129604819Y-149761904D01*
X129604819Y-149761904D02*
X129604819Y-149523809D01*
X129604819Y-149523809D02*
X129652438Y-149428571D01*
X129652438Y-149428571D02*
X129700057Y-149380952D01*
X129700057Y-149380952D02*
X129795295Y-149333333D01*
X129795295Y-149333333D02*
X129890533Y-149333333D01*
X129890533Y-149333333D02*
X130033390Y-149380952D01*
X130033390Y-149380952D02*
X130604819Y-149952380D01*
X130604819Y-149952380D02*
X130604819Y-149333333D01*
X120954819Y-152761904D02*
X121764342Y-152761904D01*
X121764342Y-152761904D02*
X121859580Y-152714285D01*
X121859580Y-152714285D02*
X121907200Y-152666666D01*
X121907200Y-152666666D02*
X121954819Y-152571428D01*
X121954819Y-152571428D02*
X121954819Y-152380952D01*
X121954819Y-152380952D02*
X121907200Y-152285714D01*
X121907200Y-152285714D02*
X121859580Y-152238095D01*
X121859580Y-152238095D02*
X121764342Y-152190476D01*
X121764342Y-152190476D02*
X120954819Y-152190476D01*
X121050057Y-151761904D02*
X121002438Y-151714285D01*
X121002438Y-151714285D02*
X120954819Y-151619047D01*
X120954819Y-151619047D02*
X120954819Y-151380952D01*
X120954819Y-151380952D02*
X121002438Y-151285714D01*
X121002438Y-151285714D02*
X121050057Y-151238095D01*
X121050057Y-151238095D02*
X121145295Y-151190476D01*
X121145295Y-151190476D02*
X121240533Y-151190476D01*
X121240533Y-151190476D02*
X121383390Y-151238095D01*
X121383390Y-151238095D02*
X121954819Y-151809523D01*
X121954819Y-151809523D02*
X121954819Y-151190476D01*
X78357143Y-141454819D02*
X78452381Y-141454819D01*
X78452381Y-141454819D02*
X78547619Y-141502438D01*
X78547619Y-141502438D02*
X78595238Y-141550057D01*
X78595238Y-141550057D02*
X78642857Y-141645295D01*
X78642857Y-141645295D02*
X78690476Y-141835771D01*
X78690476Y-141835771D02*
X78690476Y-142073866D01*
X78690476Y-142073866D02*
X78642857Y-142264342D01*
X78642857Y-142264342D02*
X78595238Y-142359580D01*
X78595238Y-142359580D02*
X78547619Y-142407200D01*
X78547619Y-142407200D02*
X78452381Y-142454819D01*
X78452381Y-142454819D02*
X78357143Y-142454819D01*
X78357143Y-142454819D02*
X78261905Y-142407200D01*
X78261905Y-142407200D02*
X78214286Y-142359580D01*
X78214286Y-142359580D02*
X78166667Y-142264342D01*
X78166667Y-142264342D02*
X78119048Y-142073866D01*
X78119048Y-142073866D02*
X78119048Y-141835771D01*
X78119048Y-141835771D02*
X78166667Y-141645295D01*
X78166667Y-141645295D02*
X78214286Y-141550057D01*
X78214286Y-141550057D02*
X78261905Y-141502438D01*
X78261905Y-141502438D02*
X78357143Y-141454819D01*
X79119048Y-142359580D02*
X79166667Y-142407200D01*
X79166667Y-142407200D02*
X79119048Y-142454819D01*
X79119048Y-142454819D02*
X79071429Y-142407200D01*
X79071429Y-142407200D02*
X79119048Y-142359580D01*
X79119048Y-142359580D02*
X79119048Y-142454819D01*
X80119047Y-142454819D02*
X79547619Y-142454819D01*
X79833333Y-142454819D02*
X79833333Y-141454819D01*
X79833333Y-141454819D02*
X79738095Y-141597676D01*
X79738095Y-141597676D02*
X79642857Y-141692914D01*
X79642857Y-141692914D02*
X79547619Y-141740533D01*
X80976190Y-141788152D02*
X80976190Y-142454819D01*
X80547619Y-141788152D02*
X80547619Y-142311961D01*
X80547619Y-142311961D02*
X80595238Y-142407200D01*
X80595238Y-142407200D02*
X80690476Y-142454819D01*
X80690476Y-142454819D02*
X80833333Y-142454819D01*
X80833333Y-142454819D02*
X80928571Y-142407200D01*
X80928571Y-142407200D02*
X80976190Y-142359580D01*
X81785714Y-141931009D02*
X81452381Y-141931009D01*
X81452381Y-142454819D02*
X81452381Y-141454819D01*
X81452381Y-141454819D02*
X81928571Y-141454819D01*
D11*
X79933333Y-145143832D02*
X79914285Y-145162880D01*
X79914285Y-145162880D02*
X79857143Y-145181927D01*
X79857143Y-145181927D02*
X79819047Y-145181927D01*
X79819047Y-145181927D02*
X79761904Y-145162880D01*
X79761904Y-145162880D02*
X79723809Y-145124784D01*
X79723809Y-145124784D02*
X79704762Y-145086689D01*
X79704762Y-145086689D02*
X79685714Y-145010499D01*
X79685714Y-145010499D02*
X79685714Y-144953356D01*
X79685714Y-144953356D02*
X79704762Y-144877165D01*
X79704762Y-144877165D02*
X79723809Y-144839070D01*
X79723809Y-144839070D02*
X79761904Y-144800975D01*
X79761904Y-144800975D02*
X79819047Y-144781927D01*
X79819047Y-144781927D02*
X79857143Y-144781927D01*
X79857143Y-144781927D02*
X79914285Y-144800975D01*
X79914285Y-144800975D02*
X79933333Y-144820022D01*
X80276190Y-144781927D02*
X80200000Y-144781927D01*
X80200000Y-144781927D02*
X80161904Y-144800975D01*
X80161904Y-144800975D02*
X80142857Y-144820022D01*
X80142857Y-144820022D02*
X80104762Y-144877165D01*
X80104762Y-144877165D02*
X80085714Y-144953356D01*
X80085714Y-144953356D02*
X80085714Y-145105737D01*
X80085714Y-145105737D02*
X80104762Y-145143832D01*
X80104762Y-145143832D02*
X80123809Y-145162880D01*
X80123809Y-145162880D02*
X80161904Y-145181927D01*
X80161904Y-145181927D02*
X80238095Y-145181927D01*
X80238095Y-145181927D02*
X80276190Y-145162880D01*
X80276190Y-145162880D02*
X80295238Y-145143832D01*
X80295238Y-145143832D02*
X80314285Y-145105737D01*
X80314285Y-145105737D02*
X80314285Y-145010499D01*
X80314285Y-145010499D02*
X80295238Y-144972403D01*
X80295238Y-144972403D02*
X80276190Y-144953356D01*
X80276190Y-144953356D02*
X80238095Y-144934308D01*
X80238095Y-144934308D02*
X80161904Y-144934308D01*
X80161904Y-144934308D02*
X80123809Y-144953356D01*
X80123809Y-144953356D02*
X80104762Y-144972403D01*
X80104762Y-144972403D02*
X80085714Y-145010499D01*
D10*
X98801905Y-151107200D02*
X98944762Y-151154819D01*
X98944762Y-151154819D02*
X99182857Y-151154819D01*
X99182857Y-151154819D02*
X99278095Y-151107200D01*
X99278095Y-151107200D02*
X99325714Y-151059580D01*
X99325714Y-151059580D02*
X99373333Y-150964342D01*
X99373333Y-150964342D02*
X99373333Y-150869104D01*
X99373333Y-150869104D02*
X99325714Y-150773866D01*
X99325714Y-150773866D02*
X99278095Y-150726247D01*
X99278095Y-150726247D02*
X99182857Y-150678628D01*
X99182857Y-150678628D02*
X98992381Y-150631009D01*
X98992381Y-150631009D02*
X98897143Y-150583390D01*
X98897143Y-150583390D02*
X98849524Y-150535771D01*
X98849524Y-150535771D02*
X98801905Y-150440533D01*
X98801905Y-150440533D02*
X98801905Y-150345295D01*
X98801905Y-150345295D02*
X98849524Y-150250057D01*
X98849524Y-150250057D02*
X98897143Y-150202438D01*
X98897143Y-150202438D02*
X98992381Y-150154819D01*
X98992381Y-150154819D02*
X99230476Y-150154819D01*
X99230476Y-150154819D02*
X99373333Y-150202438D01*
X100325714Y-150202438D02*
X100230476Y-150154819D01*
X100230476Y-150154819D02*
X100087619Y-150154819D01*
X100087619Y-150154819D02*
X99944762Y-150202438D01*
X99944762Y-150202438D02*
X99849524Y-150297676D01*
X99849524Y-150297676D02*
X99801905Y-150392914D01*
X99801905Y-150392914D02*
X99754286Y-150583390D01*
X99754286Y-150583390D02*
X99754286Y-150726247D01*
X99754286Y-150726247D02*
X99801905Y-150916723D01*
X99801905Y-150916723D02*
X99849524Y-151011961D01*
X99849524Y-151011961D02*
X99944762Y-151107200D01*
X99944762Y-151107200D02*
X100087619Y-151154819D01*
X100087619Y-151154819D02*
X100182857Y-151154819D01*
X100182857Y-151154819D02*
X100325714Y-151107200D01*
X100325714Y-151107200D02*
X100373333Y-151059580D01*
X100373333Y-151059580D02*
X100373333Y-150726247D01*
X100373333Y-150726247D02*
X100182857Y-150726247D01*
X100801905Y-150773866D02*
X101563810Y-150773866D01*
X102182857Y-150583390D02*
X102087619Y-150535771D01*
X102087619Y-150535771D02*
X102040000Y-150488152D01*
X102040000Y-150488152D02*
X101992381Y-150392914D01*
X101992381Y-150392914D02*
X101992381Y-150345295D01*
X101992381Y-150345295D02*
X102040000Y-150250057D01*
X102040000Y-150250057D02*
X102087619Y-150202438D01*
X102087619Y-150202438D02*
X102182857Y-150154819D01*
X102182857Y-150154819D02*
X102373333Y-150154819D01*
X102373333Y-150154819D02*
X102468571Y-150202438D01*
X102468571Y-150202438D02*
X102516190Y-150250057D01*
X102516190Y-150250057D02*
X102563809Y-150345295D01*
X102563809Y-150345295D02*
X102563809Y-150392914D01*
X102563809Y-150392914D02*
X102516190Y-150488152D01*
X102516190Y-150488152D02*
X102468571Y-150535771D01*
X102468571Y-150535771D02*
X102373333Y-150583390D01*
X102373333Y-150583390D02*
X102182857Y-150583390D01*
X102182857Y-150583390D02*
X102087619Y-150631009D01*
X102087619Y-150631009D02*
X102040000Y-150678628D01*
X102040000Y-150678628D02*
X101992381Y-150773866D01*
X101992381Y-150773866D02*
X101992381Y-150964342D01*
X101992381Y-150964342D02*
X102040000Y-151059580D01*
X102040000Y-151059580D02*
X102087619Y-151107200D01*
X102087619Y-151107200D02*
X102182857Y-151154819D01*
X102182857Y-151154819D02*
X102373333Y-151154819D01*
X102373333Y-151154819D02*
X102468571Y-151107200D01*
X102468571Y-151107200D02*
X102516190Y-151059580D01*
X102516190Y-151059580D02*
X102563809Y-150964342D01*
X102563809Y-150964342D02*
X102563809Y-150773866D01*
X102563809Y-150773866D02*
X102516190Y-150678628D01*
X102516190Y-150678628D02*
X102468571Y-150631009D01*
X102468571Y-150631009D02*
X102373333Y-150583390D01*
X103182857Y-150154819D02*
X103278095Y-150154819D01*
X103278095Y-150154819D02*
X103373333Y-150202438D01*
X103373333Y-150202438D02*
X103420952Y-150250057D01*
X103420952Y-150250057D02*
X103468571Y-150345295D01*
X103468571Y-150345295D02*
X103516190Y-150535771D01*
X103516190Y-150535771D02*
X103516190Y-150773866D01*
X103516190Y-150773866D02*
X103468571Y-150964342D01*
X103468571Y-150964342D02*
X103420952Y-151059580D01*
X103420952Y-151059580D02*
X103373333Y-151107200D01*
X103373333Y-151107200D02*
X103278095Y-151154819D01*
X103278095Y-151154819D02*
X103182857Y-151154819D01*
X103182857Y-151154819D02*
X103087619Y-151107200D01*
X103087619Y-151107200D02*
X103040000Y-151059580D01*
X103040000Y-151059580D02*
X102992381Y-150964342D01*
X102992381Y-150964342D02*
X102944762Y-150773866D01*
X102944762Y-150773866D02*
X102944762Y-150535771D01*
X102944762Y-150535771D02*
X102992381Y-150345295D01*
X102992381Y-150345295D02*
X103040000Y-150250057D01*
X103040000Y-150250057D02*
X103087619Y-150202438D01*
X103087619Y-150202438D02*
X103182857Y-150154819D01*
X104135238Y-150154819D02*
X104230476Y-150154819D01*
X104230476Y-150154819D02*
X104325714Y-150202438D01*
X104325714Y-150202438D02*
X104373333Y-150250057D01*
X104373333Y-150250057D02*
X104420952Y-150345295D01*
X104420952Y-150345295D02*
X104468571Y-150535771D01*
X104468571Y-150535771D02*
X104468571Y-150773866D01*
X104468571Y-150773866D02*
X104420952Y-150964342D01*
X104420952Y-150964342D02*
X104373333Y-151059580D01*
X104373333Y-151059580D02*
X104325714Y-151107200D01*
X104325714Y-151107200D02*
X104230476Y-151154819D01*
X104230476Y-151154819D02*
X104135238Y-151154819D01*
X104135238Y-151154819D02*
X104040000Y-151107200D01*
X104040000Y-151107200D02*
X103992381Y-151059580D01*
X103992381Y-151059580D02*
X103944762Y-150964342D01*
X103944762Y-150964342D02*
X103897143Y-150773866D01*
X103897143Y-150773866D02*
X103897143Y-150535771D01*
X103897143Y-150535771D02*
X103944762Y-150345295D01*
X103944762Y-150345295D02*
X103992381Y-150250057D01*
X103992381Y-150250057D02*
X104040000Y-150202438D01*
X104040000Y-150202438D02*
X104135238Y-150154819D01*
X104849524Y-150250057D02*
X104897143Y-150202438D01*
X104897143Y-150202438D02*
X104992381Y-150154819D01*
X104992381Y-150154819D02*
X105230476Y-150154819D01*
X105230476Y-150154819D02*
X105325714Y-150202438D01*
X105325714Y-150202438D02*
X105373333Y-150250057D01*
X105373333Y-150250057D02*
X105420952Y-150345295D01*
X105420952Y-150345295D02*
X105420952Y-150440533D01*
X105420952Y-150440533D02*
X105373333Y-150583390D01*
X105373333Y-150583390D02*
X104801905Y-151154819D01*
X104801905Y-151154819D02*
X105420952Y-151154819D01*
X106420952Y-151059580D02*
X106373333Y-151107200D01*
X106373333Y-151107200D02*
X106230476Y-151154819D01*
X106230476Y-151154819D02*
X106135238Y-151154819D01*
X106135238Y-151154819D02*
X105992381Y-151107200D01*
X105992381Y-151107200D02*
X105897143Y-151011961D01*
X105897143Y-151011961D02*
X105849524Y-150916723D01*
X105849524Y-150916723D02*
X105801905Y-150726247D01*
X105801905Y-150726247D02*
X105801905Y-150583390D01*
X105801905Y-150583390D02*
X105849524Y-150392914D01*
X105849524Y-150392914D02*
X105897143Y-150297676D01*
X105897143Y-150297676D02*
X105992381Y-150202438D01*
X105992381Y-150202438D02*
X106135238Y-150154819D01*
X106135238Y-150154819D02*
X106230476Y-150154819D01*
X106230476Y-150154819D02*
X106373333Y-150202438D01*
X106373333Y-150202438D02*
X106420952Y-150250057D01*
X106801905Y-150869104D02*
X107278095Y-150869104D01*
X106706667Y-151154819D02*
X107040000Y-150154819D01*
X107040000Y-150154819D02*
X107373333Y-151154819D01*
X102563809Y-146728628D02*
X102563809Y-147204819D01*
X102230476Y-146204819D02*
X102563809Y-146728628D01*
X102563809Y-146728628D02*
X102897142Y-146204819D01*
X103754285Y-147204819D02*
X103182857Y-147204819D01*
X103468571Y-147204819D02*
X103468571Y-146204819D01*
X103468571Y-146204819D02*
X103373333Y-146347676D01*
X103373333Y-146347676D02*
X103278095Y-146442914D01*
X103278095Y-146442914D02*
X103182857Y-146490533D01*
X96214286Y-137884819D02*
X96833333Y-137884819D01*
X96833333Y-137884819D02*
X96500000Y-138265771D01*
X96500000Y-138265771D02*
X96642857Y-138265771D01*
X96642857Y-138265771D02*
X96738095Y-138313390D01*
X96738095Y-138313390D02*
X96785714Y-138361009D01*
X96785714Y-138361009D02*
X96833333Y-138456247D01*
X96833333Y-138456247D02*
X96833333Y-138694342D01*
X96833333Y-138694342D02*
X96785714Y-138789580D01*
X96785714Y-138789580D02*
X96738095Y-138837200D01*
X96738095Y-138837200D02*
X96642857Y-138884819D01*
X96642857Y-138884819D02*
X96357143Y-138884819D01*
X96357143Y-138884819D02*
X96261905Y-138837200D01*
X96261905Y-138837200D02*
X96214286Y-138789580D01*
X97166667Y-137884819D02*
X97785714Y-137884819D01*
X97785714Y-137884819D02*
X97452381Y-138265771D01*
X97452381Y-138265771D02*
X97595238Y-138265771D01*
X97595238Y-138265771D02*
X97690476Y-138313390D01*
X97690476Y-138313390D02*
X97738095Y-138361009D01*
X97738095Y-138361009D02*
X97785714Y-138456247D01*
X97785714Y-138456247D02*
X97785714Y-138694342D01*
X97785714Y-138694342D02*
X97738095Y-138789580D01*
X97738095Y-138789580D02*
X97690476Y-138837200D01*
X97690476Y-138837200D02*
X97595238Y-138884819D01*
X97595238Y-138884819D02*
X97309524Y-138884819D01*
X97309524Y-138884819D02*
X97214286Y-138837200D01*
X97214286Y-138837200D02*
X97166667Y-138789580D01*
X98642857Y-138218152D02*
X98642857Y-138884819D01*
X98214286Y-138218152D02*
X98214286Y-138741961D01*
X98214286Y-138741961D02*
X98261905Y-138837200D01*
X98261905Y-138837200D02*
X98357143Y-138884819D01*
X98357143Y-138884819D02*
X98500000Y-138884819D01*
X98500000Y-138884819D02*
X98595238Y-138837200D01*
X98595238Y-138837200D02*
X98642857Y-138789580D01*
X99119048Y-138884819D02*
X99119048Y-137884819D01*
X99119048Y-138361009D02*
X99690476Y-138361009D01*
X99690476Y-138884819D02*
X99690476Y-137884819D01*
D11*
X97933333Y-137181927D02*
X97742857Y-137181927D01*
X97742857Y-137181927D02*
X97742857Y-136781927D01*
X98047619Y-136820022D02*
X98066667Y-136800975D01*
X98066667Y-136800975D02*
X98104762Y-136781927D01*
X98104762Y-136781927D02*
X98200000Y-136781927D01*
X98200000Y-136781927D02*
X98238095Y-136800975D01*
X98238095Y-136800975D02*
X98257143Y-136820022D01*
X98257143Y-136820022D02*
X98276190Y-136858118D01*
X98276190Y-136858118D02*
X98276190Y-136896213D01*
X98276190Y-136896213D02*
X98257143Y-136953356D01*
X98257143Y-136953356D02*
X98028571Y-137181927D01*
X98028571Y-137181927D02*
X98276190Y-137181927D01*
D10*
X125353628Y-142357142D02*
X125829819Y-142357142D01*
X124829819Y-142690475D02*
X125353628Y-142357142D01*
X125353628Y-142357142D02*
X124829819Y-142023809D01*
X125544104Y-141738094D02*
X125544104Y-141261904D01*
X125829819Y-141833332D02*
X124829819Y-141499999D01*
X124829819Y-141499999D02*
X125829819Y-141166666D01*
X125734580Y-140261904D02*
X125782200Y-140309523D01*
X125782200Y-140309523D02*
X125829819Y-140452380D01*
X125829819Y-140452380D02*
X125829819Y-140547618D01*
X125829819Y-140547618D02*
X125782200Y-140690475D01*
X125782200Y-140690475D02*
X125686961Y-140785713D01*
X125686961Y-140785713D02*
X125591723Y-140833332D01*
X125591723Y-140833332D02*
X125401247Y-140880951D01*
X125401247Y-140880951D02*
X125258390Y-140880951D01*
X125258390Y-140880951D02*
X125067914Y-140833332D01*
X125067914Y-140833332D02*
X124972676Y-140785713D01*
X124972676Y-140785713D02*
X124877438Y-140690475D01*
X124877438Y-140690475D02*
X124829819Y-140547618D01*
X124829819Y-140547618D02*
X124829819Y-140452380D01*
X124829819Y-140452380D02*
X124877438Y-140309523D01*
X124877438Y-140309523D02*
X124925057Y-140261904D01*
X124829819Y-139357142D02*
X124829819Y-139833332D01*
X124829819Y-139833332D02*
X125306009Y-139880951D01*
X125306009Y-139880951D02*
X125258390Y-139833332D01*
X125258390Y-139833332D02*
X125210771Y-139738094D01*
X125210771Y-139738094D02*
X125210771Y-139499999D01*
X125210771Y-139499999D02*
X125258390Y-139404761D01*
X125258390Y-139404761D02*
X125306009Y-139357142D01*
X125306009Y-139357142D02*
X125401247Y-139309523D01*
X125401247Y-139309523D02*
X125639342Y-139309523D01*
X125639342Y-139309523D02*
X125734580Y-139357142D01*
X125734580Y-139357142D02*
X125782200Y-139404761D01*
X125782200Y-139404761D02*
X125829819Y-139499999D01*
X125829819Y-139499999D02*
X125829819Y-139738094D01*
X125829819Y-139738094D02*
X125782200Y-139833332D01*
X125782200Y-139833332D02*
X125734580Y-139880951D01*
X125829819Y-138357142D02*
X125829819Y-138928570D01*
X125829819Y-138642856D02*
X124829819Y-138642856D01*
X124829819Y-138642856D02*
X124972676Y-138738094D01*
X124972676Y-138738094D02*
X125067914Y-138833332D01*
X125067914Y-138833332D02*
X125115533Y-138928570D01*
X124925057Y-137976189D02*
X124877438Y-137928570D01*
X124877438Y-137928570D02*
X124829819Y-137833332D01*
X124829819Y-137833332D02*
X124829819Y-137595237D01*
X124829819Y-137595237D02*
X124877438Y-137499999D01*
X124877438Y-137499999D02*
X124925057Y-137452380D01*
X124925057Y-137452380D02*
X125020295Y-137404761D01*
X125020295Y-137404761D02*
X125115533Y-137404761D01*
X125115533Y-137404761D02*
X125258390Y-137452380D01*
X125258390Y-137452380D02*
X125829819Y-138023808D01*
X125829819Y-138023808D02*
X125829819Y-137404761D01*
X118454819Y-140761904D02*
X119264342Y-140761904D01*
X119264342Y-140761904D02*
X119359580Y-140714285D01*
X119359580Y-140714285D02*
X119407200Y-140666666D01*
X119407200Y-140666666D02*
X119454819Y-140571428D01*
X119454819Y-140571428D02*
X119454819Y-140380952D01*
X119454819Y-140380952D02*
X119407200Y-140285714D01*
X119407200Y-140285714D02*
X119359580Y-140238095D01*
X119359580Y-140238095D02*
X119264342Y-140190476D01*
X119264342Y-140190476D02*
X118454819Y-140190476D01*
X118454819Y-139809523D02*
X118454819Y-139190476D01*
X118454819Y-139190476D02*
X118835771Y-139523809D01*
X118835771Y-139523809D02*
X118835771Y-139380952D01*
X118835771Y-139380952D02*
X118883390Y-139285714D01*
X118883390Y-139285714D02*
X118931009Y-139238095D01*
X118931009Y-139238095D02*
X119026247Y-139190476D01*
X119026247Y-139190476D02*
X119264342Y-139190476D01*
X119264342Y-139190476D02*
X119359580Y-139238095D01*
X119359580Y-139238095D02*
X119407200Y-139285714D01*
X119407200Y-139285714D02*
X119454819Y-139380952D01*
X119454819Y-139380952D02*
X119454819Y-139666666D01*
X119454819Y-139666666D02*
X119407200Y-139761904D01*
X119407200Y-139761904D02*
X119359580Y-139809523D01*
X80428571Y-138884819D02*
X79857143Y-138884819D01*
X80142857Y-138884819D02*
X80142857Y-137884819D01*
X80142857Y-137884819D02*
X80047619Y-138027676D01*
X80047619Y-138027676D02*
X79952381Y-138122914D01*
X79952381Y-138122914D02*
X79857143Y-138170533D01*
X81047619Y-137884819D02*
X81142857Y-137884819D01*
X81142857Y-137884819D02*
X81238095Y-137932438D01*
X81238095Y-137932438D02*
X81285714Y-137980057D01*
X81285714Y-137980057D02*
X81333333Y-138075295D01*
X81333333Y-138075295D02*
X81380952Y-138265771D01*
X81380952Y-138265771D02*
X81380952Y-138503866D01*
X81380952Y-138503866D02*
X81333333Y-138694342D01*
X81333333Y-138694342D02*
X81285714Y-138789580D01*
X81285714Y-138789580D02*
X81238095Y-138837200D01*
X81238095Y-138837200D02*
X81142857Y-138884819D01*
X81142857Y-138884819D02*
X81047619Y-138884819D01*
X81047619Y-138884819D02*
X80952381Y-138837200D01*
X80952381Y-138837200D02*
X80904762Y-138789580D01*
X80904762Y-138789580D02*
X80857143Y-138694342D01*
X80857143Y-138694342D02*
X80809524Y-138503866D01*
X80809524Y-138503866D02*
X80809524Y-138265771D01*
X80809524Y-138265771D02*
X80857143Y-138075295D01*
X80857143Y-138075295D02*
X80904762Y-137980057D01*
X80904762Y-137980057D02*
X80952381Y-137932438D01*
X80952381Y-137932438D02*
X81047619Y-137884819D01*
X81809524Y-138218152D02*
X81809524Y-138884819D01*
X81809524Y-138313390D02*
X81857143Y-138265771D01*
X81857143Y-138265771D02*
X81952381Y-138218152D01*
X81952381Y-138218152D02*
X82095238Y-138218152D01*
X82095238Y-138218152D02*
X82190476Y-138265771D01*
X82190476Y-138265771D02*
X82238095Y-138361009D01*
X82238095Y-138361009D02*
X82238095Y-138884819D01*
X83047619Y-138361009D02*
X82714286Y-138361009D01*
X82714286Y-138884819D02*
X82714286Y-137884819D01*
X82714286Y-137884819D02*
X83190476Y-137884819D01*
D11*
X81433333Y-137143832D02*
X81414285Y-137162880D01*
X81414285Y-137162880D02*
X81357143Y-137181927D01*
X81357143Y-137181927D02*
X81319047Y-137181927D01*
X81319047Y-137181927D02*
X81261904Y-137162880D01*
X81261904Y-137162880D02*
X81223809Y-137124784D01*
X81223809Y-137124784D02*
X81204762Y-137086689D01*
X81204762Y-137086689D02*
X81185714Y-137010499D01*
X81185714Y-137010499D02*
X81185714Y-136953356D01*
X81185714Y-136953356D02*
X81204762Y-136877165D01*
X81204762Y-136877165D02*
X81223809Y-136839070D01*
X81223809Y-136839070D02*
X81261904Y-136800975D01*
X81261904Y-136800975D02*
X81319047Y-136781927D01*
X81319047Y-136781927D02*
X81357143Y-136781927D01*
X81357143Y-136781927D02*
X81414285Y-136800975D01*
X81414285Y-136800975D02*
X81433333Y-136820022D01*
X81585714Y-136820022D02*
X81604762Y-136800975D01*
X81604762Y-136800975D02*
X81642857Y-136781927D01*
X81642857Y-136781927D02*
X81738095Y-136781927D01*
X81738095Y-136781927D02*
X81776190Y-136800975D01*
X81776190Y-136800975D02*
X81795238Y-136820022D01*
X81795238Y-136820022D02*
X81814285Y-136858118D01*
X81814285Y-136858118D02*
X81814285Y-136896213D01*
X81814285Y-136896213D02*
X81795238Y-136953356D01*
X81795238Y-136953356D02*
X81566666Y-137181927D01*
X81566666Y-137181927D02*
X81814285Y-137181927D01*
D10*
X74422023Y-157804819D02*
X73850595Y-157804819D01*
X74136309Y-157804819D02*
X74136309Y-156804819D01*
X74136309Y-156804819D02*
X74041071Y-156947676D01*
X74041071Y-156947676D02*
X73945833Y-157042914D01*
X73945833Y-157042914D02*
X73850595Y-157090533D01*
X75041071Y-156804819D02*
X75136309Y-156804819D01*
X75136309Y-156804819D02*
X75231547Y-156852438D01*
X75231547Y-156852438D02*
X75279166Y-156900057D01*
X75279166Y-156900057D02*
X75326785Y-156995295D01*
X75326785Y-156995295D02*
X75374404Y-157185771D01*
X75374404Y-157185771D02*
X75374404Y-157423866D01*
X75374404Y-157423866D02*
X75326785Y-157614342D01*
X75326785Y-157614342D02*
X75279166Y-157709580D01*
X75279166Y-157709580D02*
X75231547Y-157757200D01*
X75231547Y-157757200D02*
X75136309Y-157804819D01*
X75136309Y-157804819D02*
X75041071Y-157804819D01*
X75041071Y-157804819D02*
X74945833Y-157757200D01*
X74945833Y-157757200D02*
X74898214Y-157709580D01*
X74898214Y-157709580D02*
X74850595Y-157614342D01*
X74850595Y-157614342D02*
X74802976Y-157423866D01*
X74802976Y-157423866D02*
X74802976Y-157185771D01*
X74802976Y-157185771D02*
X74850595Y-156995295D01*
X74850595Y-156995295D02*
X74898214Y-156900057D01*
X74898214Y-156900057D02*
X74945833Y-156852438D01*
X74945833Y-156852438D02*
X75041071Y-156804819D01*
X75802976Y-157804819D02*
X75802976Y-156804819D01*
X76374404Y-157804819D02*
X75945833Y-157233390D01*
X76374404Y-156804819D02*
X75802976Y-157376247D01*
D11*
X74245833Y-156201927D02*
X74112500Y-156011451D01*
X74017262Y-156201927D02*
X74017262Y-155801927D01*
X74017262Y-155801927D02*
X74169643Y-155801927D01*
X74169643Y-155801927D02*
X74207738Y-155820975D01*
X74207738Y-155820975D02*
X74226785Y-155840022D01*
X74226785Y-155840022D02*
X74245833Y-155878118D01*
X74245833Y-155878118D02*
X74245833Y-155935260D01*
X74245833Y-155935260D02*
X74226785Y-155973356D01*
X74226785Y-155973356D02*
X74207738Y-155992403D01*
X74207738Y-155992403D02*
X74169643Y-156011451D01*
X74169643Y-156011451D02*
X74017262Y-156011451D01*
X74588690Y-155801927D02*
X74512500Y-155801927D01*
X74512500Y-155801927D02*
X74474404Y-155820975D01*
X74474404Y-155820975D02*
X74455357Y-155840022D01*
X74455357Y-155840022D02*
X74417262Y-155897165D01*
X74417262Y-155897165D02*
X74398214Y-155973356D01*
X74398214Y-155973356D02*
X74398214Y-156125737D01*
X74398214Y-156125737D02*
X74417262Y-156163832D01*
X74417262Y-156163832D02*
X74436309Y-156182880D01*
X74436309Y-156182880D02*
X74474404Y-156201927D01*
X74474404Y-156201927D02*
X74550595Y-156201927D01*
X74550595Y-156201927D02*
X74588690Y-156182880D01*
X74588690Y-156182880D02*
X74607738Y-156163832D01*
X74607738Y-156163832D02*
X74626785Y-156125737D01*
X74626785Y-156125737D02*
X74626785Y-156030499D01*
X74626785Y-156030499D02*
X74607738Y-155992403D01*
X74607738Y-155992403D02*
X74588690Y-155973356D01*
X74588690Y-155973356D02*
X74550595Y-155954308D01*
X74550595Y-155954308D02*
X74474404Y-155954308D01*
X74474404Y-155954308D02*
X74436309Y-155973356D01*
X74436309Y-155973356D02*
X74417262Y-155992403D01*
X74417262Y-155992403D02*
X74398214Y-156030499D01*
D10*
X123338152Y-120217857D02*
X124004819Y-120217857D01*
X122957200Y-120455952D02*
X123671485Y-120694047D01*
X123671485Y-120694047D02*
X123671485Y-120075000D01*
X123004819Y-119789285D02*
X123004819Y-119122619D01*
X123004819Y-119122619D02*
X124004819Y-119551190D01*
X123004819Y-118551190D02*
X123004819Y-118455952D01*
X123004819Y-118455952D02*
X123052438Y-118360714D01*
X123052438Y-118360714D02*
X123100057Y-118313095D01*
X123100057Y-118313095D02*
X123195295Y-118265476D01*
X123195295Y-118265476D02*
X123385771Y-118217857D01*
X123385771Y-118217857D02*
X123623866Y-118217857D01*
X123623866Y-118217857D02*
X123814342Y-118265476D01*
X123814342Y-118265476D02*
X123909580Y-118313095D01*
X123909580Y-118313095D02*
X123957200Y-118360714D01*
X123957200Y-118360714D02*
X124004819Y-118455952D01*
X124004819Y-118455952D02*
X124004819Y-118551190D01*
X124004819Y-118551190D02*
X123957200Y-118646428D01*
X123957200Y-118646428D02*
X123909580Y-118694047D01*
X123909580Y-118694047D02*
X123814342Y-118741666D01*
X123814342Y-118741666D02*
X123623866Y-118789285D01*
X123623866Y-118789285D02*
X123385771Y-118789285D01*
X123385771Y-118789285D02*
X123195295Y-118741666D01*
X123195295Y-118741666D02*
X123100057Y-118694047D01*
X123100057Y-118694047D02*
X123052438Y-118646428D01*
X123052438Y-118646428D02*
X123004819Y-118551190D01*
X123338152Y-117789285D02*
X124338152Y-117789285D01*
X123385771Y-117789285D02*
X123338152Y-117694047D01*
X123338152Y-117694047D02*
X123338152Y-117503571D01*
X123338152Y-117503571D02*
X123385771Y-117408333D01*
X123385771Y-117408333D02*
X123433390Y-117360714D01*
X123433390Y-117360714D02*
X123528628Y-117313095D01*
X123528628Y-117313095D02*
X123814342Y-117313095D01*
X123814342Y-117313095D02*
X123909580Y-117360714D01*
X123909580Y-117360714D02*
X123957200Y-117408333D01*
X123957200Y-117408333D02*
X124004819Y-117503571D01*
X124004819Y-117503571D02*
X124004819Y-117694047D01*
X124004819Y-117694047D02*
X123957200Y-117789285D01*
X123481009Y-116551190D02*
X123481009Y-116884523D01*
X124004819Y-116884523D02*
X123004819Y-116884523D01*
X123004819Y-116884523D02*
X123004819Y-116408333D01*
D11*
X125143832Y-118757142D02*
X125162880Y-118776190D01*
X125162880Y-118776190D02*
X125181927Y-118833332D01*
X125181927Y-118833332D02*
X125181927Y-118871428D01*
X125181927Y-118871428D02*
X125162880Y-118928571D01*
X125162880Y-118928571D02*
X125124784Y-118966666D01*
X125124784Y-118966666D02*
X125086689Y-118985713D01*
X125086689Y-118985713D02*
X125010499Y-119004761D01*
X125010499Y-119004761D02*
X124953356Y-119004761D01*
X124953356Y-119004761D02*
X124877165Y-118985713D01*
X124877165Y-118985713D02*
X124839070Y-118966666D01*
X124839070Y-118966666D02*
X124800975Y-118928571D01*
X124800975Y-118928571D02*
X124781927Y-118871428D01*
X124781927Y-118871428D02*
X124781927Y-118833332D01*
X124781927Y-118833332D02*
X124800975Y-118776190D01*
X124800975Y-118776190D02*
X124820022Y-118757142D01*
X125181927Y-118376190D02*
X125181927Y-118604761D01*
X125181927Y-118490475D02*
X124781927Y-118490475D01*
X124781927Y-118490475D02*
X124839070Y-118528571D01*
X124839070Y-118528571D02*
X124877165Y-118566666D01*
X124877165Y-118566666D02*
X124896213Y-118604761D01*
X124781927Y-118242857D02*
X124781927Y-117995238D01*
X124781927Y-117995238D02*
X124934308Y-118128571D01*
X124934308Y-118128571D02*
X124934308Y-118071428D01*
X124934308Y-118071428D02*
X124953356Y-118033333D01*
X124953356Y-118033333D02*
X124972403Y-118014285D01*
X124972403Y-118014285D02*
X125010499Y-117995238D01*
X125010499Y-117995238D02*
X125105737Y-117995238D01*
X125105737Y-117995238D02*
X125143832Y-118014285D01*
X125143832Y-118014285D02*
X125162880Y-118033333D01*
X125162880Y-118033333D02*
X125181927Y-118071428D01*
X125181927Y-118071428D02*
X125181927Y-118185714D01*
X125181927Y-118185714D02*
X125162880Y-118223809D01*
X125162880Y-118223809D02*
X125143832Y-118242857D01*
D10*
X134785714Y-123204819D02*
X134214286Y-123204819D01*
X134500000Y-123204819D02*
X134500000Y-122204819D01*
X134500000Y-122204819D02*
X134404762Y-122347676D01*
X134404762Y-122347676D02*
X134309524Y-122442914D01*
X134309524Y-122442914D02*
X134214286Y-122490533D01*
X135214286Y-123204819D02*
X135214286Y-122204819D01*
X135785714Y-123204819D02*
X135357143Y-122633390D01*
X135785714Y-122204819D02*
X135214286Y-122776247D01*
D11*
X137181927Y-121507142D02*
X136991451Y-121640475D01*
X137181927Y-121735713D02*
X136781927Y-121735713D01*
X136781927Y-121735713D02*
X136781927Y-121583332D01*
X136781927Y-121583332D02*
X136800975Y-121545237D01*
X136800975Y-121545237D02*
X136820022Y-121526190D01*
X136820022Y-121526190D02*
X136858118Y-121507142D01*
X136858118Y-121507142D02*
X136915260Y-121507142D01*
X136915260Y-121507142D02*
X136953356Y-121526190D01*
X136953356Y-121526190D02*
X136972403Y-121545237D01*
X136972403Y-121545237D02*
X136991451Y-121583332D01*
X136991451Y-121583332D02*
X136991451Y-121735713D01*
X137181927Y-121126190D02*
X137181927Y-121354761D01*
X137181927Y-121240475D02*
X136781927Y-121240475D01*
X136781927Y-121240475D02*
X136839070Y-121278571D01*
X136839070Y-121278571D02*
X136877165Y-121316666D01*
X136877165Y-121316666D02*
X136896213Y-121354761D01*
X136781927Y-120878571D02*
X136781927Y-120840476D01*
X136781927Y-120840476D02*
X136800975Y-120802380D01*
X136800975Y-120802380D02*
X136820022Y-120783333D01*
X136820022Y-120783333D02*
X136858118Y-120764285D01*
X136858118Y-120764285D02*
X136934308Y-120745238D01*
X136934308Y-120745238D02*
X137029546Y-120745238D01*
X137029546Y-120745238D02*
X137105737Y-120764285D01*
X137105737Y-120764285D02*
X137143832Y-120783333D01*
X137143832Y-120783333D02*
X137162880Y-120802380D01*
X137162880Y-120802380D02*
X137181927Y-120840476D01*
X137181927Y-120840476D02*
X137181927Y-120878571D01*
X137181927Y-120878571D02*
X137162880Y-120916666D01*
X137162880Y-120916666D02*
X137143832Y-120935714D01*
X137143832Y-120935714D02*
X137105737Y-120954761D01*
X137105737Y-120954761D02*
X137029546Y-120973809D01*
X137029546Y-120973809D02*
X136934308Y-120973809D01*
X136934308Y-120973809D02*
X136858118Y-120954761D01*
X136858118Y-120954761D02*
X136820022Y-120935714D01*
X136820022Y-120935714D02*
X136800975Y-120916666D01*
X136800975Y-120916666D02*
X136781927Y-120878571D01*
D10*
X121990057Y-120025594D02*
X121942438Y-119977975D01*
X121942438Y-119977975D02*
X121894819Y-119882737D01*
X121894819Y-119882737D02*
X121894819Y-119644642D01*
X121894819Y-119644642D02*
X121942438Y-119549404D01*
X121942438Y-119549404D02*
X121990057Y-119501785D01*
X121990057Y-119501785D02*
X122085295Y-119454166D01*
X122085295Y-119454166D02*
X122180533Y-119454166D01*
X122180533Y-119454166D02*
X122323390Y-119501785D01*
X122323390Y-119501785D02*
X122894819Y-120073213D01*
X122894819Y-120073213D02*
X122894819Y-119454166D01*
X122799580Y-119025594D02*
X122847200Y-118977975D01*
X122847200Y-118977975D02*
X122894819Y-119025594D01*
X122894819Y-119025594D02*
X122847200Y-119073213D01*
X122847200Y-119073213D02*
X122799580Y-119025594D01*
X122799580Y-119025594D02*
X122894819Y-119025594D01*
X121894819Y-118644642D02*
X121894819Y-117977976D01*
X121894819Y-117977976D02*
X122894819Y-118406547D01*
X122228152Y-117597023D02*
X122894819Y-117597023D01*
X122323390Y-117597023D02*
X122275771Y-117549404D01*
X122275771Y-117549404D02*
X122228152Y-117454166D01*
X122228152Y-117454166D02*
X122228152Y-117311309D01*
X122228152Y-117311309D02*
X122275771Y-117216071D01*
X122275771Y-117216071D02*
X122371009Y-117168452D01*
X122371009Y-117168452D02*
X122894819Y-117168452D01*
X122228152Y-116835118D02*
X122228152Y-116454166D01*
X122894819Y-116692261D02*
X122037676Y-116692261D01*
X122037676Y-116692261D02*
X121942438Y-116644642D01*
X121942438Y-116644642D02*
X121894819Y-116549404D01*
X121894819Y-116549404D02*
X121894819Y-116454166D01*
D11*
X120643832Y-118566666D02*
X120662880Y-118585714D01*
X120662880Y-118585714D02*
X120681927Y-118642856D01*
X120681927Y-118642856D02*
X120681927Y-118680952D01*
X120681927Y-118680952D02*
X120662880Y-118738095D01*
X120662880Y-118738095D02*
X120624784Y-118776190D01*
X120624784Y-118776190D02*
X120586689Y-118795237D01*
X120586689Y-118795237D02*
X120510499Y-118814285D01*
X120510499Y-118814285D02*
X120453356Y-118814285D01*
X120453356Y-118814285D02*
X120377165Y-118795237D01*
X120377165Y-118795237D02*
X120339070Y-118776190D01*
X120339070Y-118776190D02*
X120300975Y-118738095D01*
X120300975Y-118738095D02*
X120281927Y-118680952D01*
X120281927Y-118680952D02*
X120281927Y-118642856D01*
X120281927Y-118642856D02*
X120300975Y-118585714D01*
X120300975Y-118585714D02*
X120320022Y-118566666D01*
X120681927Y-118376190D02*
X120681927Y-118299999D01*
X120681927Y-118299999D02*
X120662880Y-118261904D01*
X120662880Y-118261904D02*
X120643832Y-118242856D01*
X120643832Y-118242856D02*
X120586689Y-118204761D01*
X120586689Y-118204761D02*
X120510499Y-118185714D01*
X120510499Y-118185714D02*
X120358118Y-118185714D01*
X120358118Y-118185714D02*
X120320022Y-118204761D01*
X120320022Y-118204761D02*
X120300975Y-118223809D01*
X120300975Y-118223809D02*
X120281927Y-118261904D01*
X120281927Y-118261904D02*
X120281927Y-118338095D01*
X120281927Y-118338095D02*
X120300975Y-118376190D01*
X120300975Y-118376190D02*
X120320022Y-118395237D01*
X120320022Y-118395237D02*
X120358118Y-118414285D01*
X120358118Y-118414285D02*
X120453356Y-118414285D01*
X120453356Y-118414285D02*
X120491451Y-118395237D01*
X120491451Y-118395237D02*
X120510499Y-118376190D01*
X120510499Y-118376190D02*
X120529546Y-118338095D01*
X120529546Y-118338095D02*
X120529546Y-118261904D01*
X120529546Y-118261904D02*
X120510499Y-118223809D01*
X120510499Y-118223809D02*
X120491451Y-118204761D01*
X120491451Y-118204761D02*
X120453356Y-118185714D01*
D10*
X74422023Y-155294819D02*
X73850595Y-155294819D01*
X74136309Y-155294819D02*
X74136309Y-154294819D01*
X74136309Y-154294819D02*
X74041071Y-154437676D01*
X74041071Y-154437676D02*
X73945833Y-154532914D01*
X73945833Y-154532914D02*
X73850595Y-154580533D01*
X75041071Y-154294819D02*
X75136309Y-154294819D01*
X75136309Y-154294819D02*
X75231547Y-154342438D01*
X75231547Y-154342438D02*
X75279166Y-154390057D01*
X75279166Y-154390057D02*
X75326785Y-154485295D01*
X75326785Y-154485295D02*
X75374404Y-154675771D01*
X75374404Y-154675771D02*
X75374404Y-154913866D01*
X75374404Y-154913866D02*
X75326785Y-155104342D01*
X75326785Y-155104342D02*
X75279166Y-155199580D01*
X75279166Y-155199580D02*
X75231547Y-155247200D01*
X75231547Y-155247200D02*
X75136309Y-155294819D01*
X75136309Y-155294819D02*
X75041071Y-155294819D01*
X75041071Y-155294819D02*
X74945833Y-155247200D01*
X74945833Y-155247200D02*
X74898214Y-155199580D01*
X74898214Y-155199580D02*
X74850595Y-155104342D01*
X74850595Y-155104342D02*
X74802976Y-154913866D01*
X74802976Y-154913866D02*
X74802976Y-154675771D01*
X74802976Y-154675771D02*
X74850595Y-154485295D01*
X74850595Y-154485295D02*
X74898214Y-154390057D01*
X74898214Y-154390057D02*
X74945833Y-154342438D01*
X74945833Y-154342438D02*
X75041071Y-154294819D01*
X75802976Y-155294819D02*
X75802976Y-154294819D01*
X76374404Y-155294819D02*
X75945833Y-154723390D01*
X76374404Y-154294819D02*
X75802976Y-154866247D01*
D11*
X74245833Y-153691927D02*
X74112500Y-153501451D01*
X74017262Y-153691927D02*
X74017262Y-153291927D01*
X74017262Y-153291927D02*
X74169643Y-153291927D01*
X74169643Y-153291927D02*
X74207738Y-153310975D01*
X74207738Y-153310975D02*
X74226785Y-153330022D01*
X74226785Y-153330022D02*
X74245833Y-153368118D01*
X74245833Y-153368118D02*
X74245833Y-153425260D01*
X74245833Y-153425260D02*
X74226785Y-153463356D01*
X74226785Y-153463356D02*
X74207738Y-153482403D01*
X74207738Y-153482403D02*
X74169643Y-153501451D01*
X74169643Y-153501451D02*
X74017262Y-153501451D01*
X74607738Y-153291927D02*
X74417262Y-153291927D01*
X74417262Y-153291927D02*
X74398214Y-153482403D01*
X74398214Y-153482403D02*
X74417262Y-153463356D01*
X74417262Y-153463356D02*
X74455357Y-153444308D01*
X74455357Y-153444308D02*
X74550595Y-153444308D01*
X74550595Y-153444308D02*
X74588690Y-153463356D01*
X74588690Y-153463356D02*
X74607738Y-153482403D01*
X74607738Y-153482403D02*
X74626785Y-153520499D01*
X74626785Y-153520499D02*
X74626785Y-153615737D01*
X74626785Y-153615737D02*
X74607738Y-153653832D01*
X74607738Y-153653832D02*
X74588690Y-153672880D01*
X74588690Y-153672880D02*
X74550595Y-153691927D01*
X74550595Y-153691927D02*
X74455357Y-153691927D01*
X74455357Y-153691927D02*
X74417262Y-153672880D01*
X74417262Y-153672880D02*
X74398214Y-153653832D01*
D10*
X114029761Y-116014819D02*
X113458333Y-116014819D01*
X113744047Y-116014819D02*
X113744047Y-115014819D01*
X113744047Y-115014819D02*
X113648809Y-115157676D01*
X113648809Y-115157676D02*
X113553571Y-115252914D01*
X113553571Y-115252914D02*
X113458333Y-115300533D01*
X114934523Y-115014819D02*
X114458333Y-115014819D01*
X114458333Y-115014819D02*
X114410714Y-115491009D01*
X114410714Y-115491009D02*
X114458333Y-115443390D01*
X114458333Y-115443390D02*
X114553571Y-115395771D01*
X114553571Y-115395771D02*
X114791666Y-115395771D01*
X114791666Y-115395771D02*
X114886904Y-115443390D01*
X114886904Y-115443390D02*
X114934523Y-115491009D01*
X114934523Y-115491009D02*
X114982142Y-115586247D01*
X114982142Y-115586247D02*
X114982142Y-115824342D01*
X114982142Y-115824342D02*
X114934523Y-115919580D01*
X114934523Y-115919580D02*
X114886904Y-115967200D01*
X114886904Y-115967200D02*
X114791666Y-116014819D01*
X114791666Y-116014819D02*
X114553571Y-116014819D01*
X114553571Y-116014819D02*
X114458333Y-115967200D01*
X114458333Y-115967200D02*
X114410714Y-115919580D01*
X115410714Y-116014819D02*
X115410714Y-115014819D01*
X115505952Y-115633866D02*
X115791666Y-116014819D01*
X115791666Y-115348152D02*
X115410714Y-115729104D01*
D11*
X114770833Y-117681927D02*
X114637500Y-117491451D01*
X114542262Y-117681927D02*
X114542262Y-117281927D01*
X114542262Y-117281927D02*
X114694643Y-117281927D01*
X114694643Y-117281927D02*
X114732738Y-117300975D01*
X114732738Y-117300975D02*
X114751785Y-117320022D01*
X114751785Y-117320022D02*
X114770833Y-117358118D01*
X114770833Y-117358118D02*
X114770833Y-117415260D01*
X114770833Y-117415260D02*
X114751785Y-117453356D01*
X114751785Y-117453356D02*
X114732738Y-117472403D01*
X114732738Y-117472403D02*
X114694643Y-117491451D01*
X114694643Y-117491451D02*
X114542262Y-117491451D01*
X114961309Y-117681927D02*
X115037500Y-117681927D01*
X115037500Y-117681927D02*
X115075595Y-117662880D01*
X115075595Y-117662880D02*
X115094643Y-117643832D01*
X115094643Y-117643832D02*
X115132738Y-117586689D01*
X115132738Y-117586689D02*
X115151785Y-117510499D01*
X115151785Y-117510499D02*
X115151785Y-117358118D01*
X115151785Y-117358118D02*
X115132738Y-117320022D01*
X115132738Y-117320022D02*
X115113690Y-117300975D01*
X115113690Y-117300975D02*
X115075595Y-117281927D01*
X115075595Y-117281927D02*
X114999404Y-117281927D01*
X114999404Y-117281927D02*
X114961309Y-117300975D01*
X114961309Y-117300975D02*
X114942262Y-117320022D01*
X114942262Y-117320022D02*
X114923214Y-117358118D01*
X114923214Y-117358118D02*
X114923214Y-117453356D01*
X114923214Y-117453356D02*
X114942262Y-117491451D01*
X114942262Y-117491451D02*
X114961309Y-117510499D01*
X114961309Y-117510499D02*
X114999404Y-117529546D01*
X114999404Y-117529546D02*
X115075595Y-117529546D01*
X115075595Y-117529546D02*
X115113690Y-117510499D01*
X115113690Y-117510499D02*
X115132738Y-117491451D01*
X115132738Y-117491451D02*
X115151785Y-117453356D01*
D10*
X140321429Y-123204819D02*
X140940476Y-123204819D01*
X140940476Y-123204819D02*
X140607143Y-123585771D01*
X140607143Y-123585771D02*
X140750000Y-123585771D01*
X140750000Y-123585771D02*
X140845238Y-123633390D01*
X140845238Y-123633390D02*
X140892857Y-123681009D01*
X140892857Y-123681009D02*
X140940476Y-123776247D01*
X140940476Y-123776247D02*
X140940476Y-124014342D01*
X140940476Y-124014342D02*
X140892857Y-124109580D01*
X140892857Y-124109580D02*
X140845238Y-124157200D01*
X140845238Y-124157200D02*
X140750000Y-124204819D01*
X140750000Y-124204819D02*
X140464286Y-124204819D01*
X140464286Y-124204819D02*
X140369048Y-124157200D01*
X140369048Y-124157200D02*
X140321429Y-124109580D01*
X141369048Y-124109580D02*
X141416667Y-124157200D01*
X141416667Y-124157200D02*
X141369048Y-124204819D01*
X141369048Y-124204819D02*
X141321429Y-124157200D01*
X141321429Y-124157200D02*
X141369048Y-124109580D01*
X141369048Y-124109580D02*
X141369048Y-124204819D01*
X141892857Y-124204819D02*
X142083333Y-124204819D01*
X142083333Y-124204819D02*
X142178571Y-124157200D01*
X142178571Y-124157200D02*
X142226190Y-124109580D01*
X142226190Y-124109580D02*
X142321428Y-123966723D01*
X142321428Y-123966723D02*
X142369047Y-123776247D01*
X142369047Y-123776247D02*
X142369047Y-123395295D01*
X142369047Y-123395295D02*
X142321428Y-123300057D01*
X142321428Y-123300057D02*
X142273809Y-123252438D01*
X142273809Y-123252438D02*
X142178571Y-123204819D01*
X142178571Y-123204819D02*
X141988095Y-123204819D01*
X141988095Y-123204819D02*
X141892857Y-123252438D01*
X141892857Y-123252438D02*
X141845238Y-123300057D01*
X141845238Y-123300057D02*
X141797619Y-123395295D01*
X141797619Y-123395295D02*
X141797619Y-123633390D01*
X141797619Y-123633390D02*
X141845238Y-123728628D01*
X141845238Y-123728628D02*
X141892857Y-123776247D01*
X141892857Y-123776247D02*
X141988095Y-123823866D01*
X141988095Y-123823866D02*
X142178571Y-123823866D01*
X142178571Y-123823866D02*
X142273809Y-123776247D01*
X142273809Y-123776247D02*
X142321428Y-123728628D01*
X142321428Y-123728628D02*
X142369047Y-123633390D01*
X142797619Y-123538152D02*
X142797619Y-124204819D01*
X142797619Y-123633390D02*
X142845238Y-123585771D01*
X142845238Y-123585771D02*
X142940476Y-123538152D01*
X142940476Y-123538152D02*
X143083333Y-123538152D01*
X143083333Y-123538152D02*
X143178571Y-123585771D01*
X143178571Y-123585771D02*
X143226190Y-123681009D01*
X143226190Y-123681009D02*
X143226190Y-124204819D01*
X144035714Y-123681009D02*
X143702381Y-123681009D01*
X143702381Y-124204819D02*
X143702381Y-123204819D01*
X143702381Y-123204819D02*
X144178571Y-123204819D01*
D11*
X142393832Y-121257142D02*
X142412880Y-121276190D01*
X142412880Y-121276190D02*
X142431927Y-121333332D01*
X142431927Y-121333332D02*
X142431927Y-121371428D01*
X142431927Y-121371428D02*
X142412880Y-121428571D01*
X142412880Y-121428571D02*
X142374784Y-121466666D01*
X142374784Y-121466666D02*
X142336689Y-121485713D01*
X142336689Y-121485713D02*
X142260499Y-121504761D01*
X142260499Y-121504761D02*
X142203356Y-121504761D01*
X142203356Y-121504761D02*
X142127165Y-121485713D01*
X142127165Y-121485713D02*
X142089070Y-121466666D01*
X142089070Y-121466666D02*
X142050975Y-121428571D01*
X142050975Y-121428571D02*
X142031927Y-121371428D01*
X142031927Y-121371428D02*
X142031927Y-121333332D01*
X142031927Y-121333332D02*
X142050975Y-121276190D01*
X142050975Y-121276190D02*
X142070022Y-121257142D01*
X142431927Y-120876190D02*
X142431927Y-121104761D01*
X142431927Y-120990475D02*
X142031927Y-120990475D01*
X142031927Y-120990475D02*
X142089070Y-121028571D01*
X142089070Y-121028571D02*
X142127165Y-121066666D01*
X142127165Y-121066666D02*
X142146213Y-121104761D01*
X142031927Y-120742857D02*
X142031927Y-120476190D01*
X142031927Y-120476190D02*
X142431927Y-120647619D01*
D10*
X123134819Y-132222023D02*
X123134819Y-131602976D01*
X123134819Y-131602976D02*
X123515771Y-131936309D01*
X123515771Y-131936309D02*
X123515771Y-131793452D01*
X123515771Y-131793452D02*
X123563390Y-131698214D01*
X123563390Y-131698214D02*
X123611009Y-131650595D01*
X123611009Y-131650595D02*
X123706247Y-131602976D01*
X123706247Y-131602976D02*
X123944342Y-131602976D01*
X123944342Y-131602976D02*
X124039580Y-131650595D01*
X124039580Y-131650595D02*
X124087200Y-131698214D01*
X124087200Y-131698214D02*
X124134819Y-131793452D01*
X124134819Y-131793452D02*
X124134819Y-132079166D01*
X124134819Y-132079166D02*
X124087200Y-132174404D01*
X124087200Y-132174404D02*
X124039580Y-132222023D01*
X123134819Y-131269642D02*
X123134819Y-130650595D01*
X123134819Y-130650595D02*
X123515771Y-130983928D01*
X123515771Y-130983928D02*
X123515771Y-130841071D01*
X123515771Y-130841071D02*
X123563390Y-130745833D01*
X123563390Y-130745833D02*
X123611009Y-130698214D01*
X123611009Y-130698214D02*
X123706247Y-130650595D01*
X123706247Y-130650595D02*
X123944342Y-130650595D01*
X123944342Y-130650595D02*
X124039580Y-130698214D01*
X124039580Y-130698214D02*
X124087200Y-130745833D01*
X124087200Y-130745833D02*
X124134819Y-130841071D01*
X124134819Y-130841071D02*
X124134819Y-131126785D01*
X124134819Y-131126785D02*
X124087200Y-131222023D01*
X124087200Y-131222023D02*
X124039580Y-131269642D01*
D11*
X122431927Y-131479166D02*
X122241451Y-131612499D01*
X122431927Y-131707737D02*
X122031927Y-131707737D01*
X122031927Y-131707737D02*
X122031927Y-131555356D01*
X122031927Y-131555356D02*
X122050975Y-131517261D01*
X122050975Y-131517261D02*
X122070022Y-131498214D01*
X122070022Y-131498214D02*
X122108118Y-131479166D01*
X122108118Y-131479166D02*
X122165260Y-131479166D01*
X122165260Y-131479166D02*
X122203356Y-131498214D01*
X122203356Y-131498214D02*
X122222403Y-131517261D01*
X122222403Y-131517261D02*
X122241451Y-131555356D01*
X122241451Y-131555356D02*
X122241451Y-131707737D01*
X122031927Y-131345833D02*
X122031927Y-131079166D01*
X122031927Y-131079166D02*
X122431927Y-131250595D01*
D10*
X124654819Y-119020238D02*
X124654819Y-119591666D01*
X124654819Y-119305952D02*
X123654819Y-119305952D01*
X123654819Y-119305952D02*
X123797676Y-119401190D01*
X123797676Y-119401190D02*
X123892914Y-119496428D01*
X123892914Y-119496428D02*
X123940533Y-119591666D01*
X123654819Y-118115476D02*
X123654819Y-118591666D01*
X123654819Y-118591666D02*
X124131009Y-118639285D01*
X124131009Y-118639285D02*
X124083390Y-118591666D01*
X124083390Y-118591666D02*
X124035771Y-118496428D01*
X124035771Y-118496428D02*
X124035771Y-118258333D01*
X124035771Y-118258333D02*
X124083390Y-118163095D01*
X124083390Y-118163095D02*
X124131009Y-118115476D01*
X124131009Y-118115476D02*
X124226247Y-118067857D01*
X124226247Y-118067857D02*
X124464342Y-118067857D01*
X124464342Y-118067857D02*
X124559580Y-118115476D01*
X124559580Y-118115476D02*
X124607200Y-118163095D01*
X124607200Y-118163095D02*
X124654819Y-118258333D01*
X124654819Y-118258333D02*
X124654819Y-118496428D01*
X124654819Y-118496428D02*
X124607200Y-118591666D01*
X124607200Y-118591666D02*
X124559580Y-118639285D01*
X124654819Y-117639285D02*
X123654819Y-117639285D01*
X124273866Y-117544047D02*
X124654819Y-117258333D01*
X123988152Y-117258333D02*
X124369104Y-117639285D01*
D11*
X122931927Y-118566666D02*
X122741451Y-118699999D01*
X122931927Y-118795237D02*
X122531927Y-118795237D01*
X122531927Y-118795237D02*
X122531927Y-118642856D01*
X122531927Y-118642856D02*
X122550975Y-118604761D01*
X122550975Y-118604761D02*
X122570022Y-118585714D01*
X122570022Y-118585714D02*
X122608118Y-118566666D01*
X122608118Y-118566666D02*
X122665260Y-118566666D01*
X122665260Y-118566666D02*
X122703356Y-118585714D01*
X122703356Y-118585714D02*
X122722403Y-118604761D01*
X122722403Y-118604761D02*
X122741451Y-118642856D01*
X122741451Y-118642856D02*
X122741451Y-118795237D01*
X122703356Y-118338095D02*
X122684308Y-118376190D01*
X122684308Y-118376190D02*
X122665260Y-118395237D01*
X122665260Y-118395237D02*
X122627165Y-118414285D01*
X122627165Y-118414285D02*
X122608118Y-118414285D01*
X122608118Y-118414285D02*
X122570022Y-118395237D01*
X122570022Y-118395237D02*
X122550975Y-118376190D01*
X122550975Y-118376190D02*
X122531927Y-118338095D01*
X122531927Y-118338095D02*
X122531927Y-118261904D01*
X122531927Y-118261904D02*
X122550975Y-118223809D01*
X122550975Y-118223809D02*
X122570022Y-118204761D01*
X122570022Y-118204761D02*
X122608118Y-118185714D01*
X122608118Y-118185714D02*
X122627165Y-118185714D01*
X122627165Y-118185714D02*
X122665260Y-118204761D01*
X122665260Y-118204761D02*
X122684308Y-118223809D01*
X122684308Y-118223809D02*
X122703356Y-118261904D01*
X122703356Y-118261904D02*
X122703356Y-118338095D01*
X122703356Y-118338095D02*
X122722403Y-118376190D01*
X122722403Y-118376190D02*
X122741451Y-118395237D01*
X122741451Y-118395237D02*
X122779546Y-118414285D01*
X122779546Y-118414285D02*
X122855737Y-118414285D01*
X122855737Y-118414285D02*
X122893832Y-118395237D01*
X122893832Y-118395237D02*
X122912880Y-118376190D01*
X122912880Y-118376190D02*
X122931927Y-118338095D01*
X122931927Y-118338095D02*
X122931927Y-118261904D01*
X122931927Y-118261904D02*
X122912880Y-118223809D01*
X122912880Y-118223809D02*
X122893832Y-118204761D01*
X122893832Y-118204761D02*
X122855737Y-118185714D01*
X122855737Y-118185714D02*
X122779546Y-118185714D01*
X122779546Y-118185714D02*
X122741451Y-118204761D01*
X122741451Y-118204761D02*
X122722403Y-118223809D01*
X122722403Y-118223809D02*
X122703356Y-118261904D01*
D10*
X74422023Y-150274819D02*
X73850595Y-150274819D01*
X74136309Y-150274819D02*
X74136309Y-149274819D01*
X74136309Y-149274819D02*
X74041071Y-149417676D01*
X74041071Y-149417676D02*
X73945833Y-149512914D01*
X73945833Y-149512914D02*
X73850595Y-149560533D01*
X75041071Y-149274819D02*
X75136309Y-149274819D01*
X75136309Y-149274819D02*
X75231547Y-149322438D01*
X75231547Y-149322438D02*
X75279166Y-149370057D01*
X75279166Y-149370057D02*
X75326785Y-149465295D01*
X75326785Y-149465295D02*
X75374404Y-149655771D01*
X75374404Y-149655771D02*
X75374404Y-149893866D01*
X75374404Y-149893866D02*
X75326785Y-150084342D01*
X75326785Y-150084342D02*
X75279166Y-150179580D01*
X75279166Y-150179580D02*
X75231547Y-150227200D01*
X75231547Y-150227200D02*
X75136309Y-150274819D01*
X75136309Y-150274819D02*
X75041071Y-150274819D01*
X75041071Y-150274819D02*
X74945833Y-150227200D01*
X74945833Y-150227200D02*
X74898214Y-150179580D01*
X74898214Y-150179580D02*
X74850595Y-150084342D01*
X74850595Y-150084342D02*
X74802976Y-149893866D01*
X74802976Y-149893866D02*
X74802976Y-149655771D01*
X74802976Y-149655771D02*
X74850595Y-149465295D01*
X74850595Y-149465295D02*
X74898214Y-149370057D01*
X74898214Y-149370057D02*
X74945833Y-149322438D01*
X74945833Y-149322438D02*
X75041071Y-149274819D01*
X75802976Y-150274819D02*
X75802976Y-149274819D01*
X76374404Y-150274819D02*
X75945833Y-149703390D01*
X76374404Y-149274819D02*
X75802976Y-149846247D01*
D11*
X74245833Y-148671927D02*
X74112500Y-148481451D01*
X74017262Y-148671927D02*
X74017262Y-148271927D01*
X74017262Y-148271927D02*
X74169643Y-148271927D01*
X74169643Y-148271927D02*
X74207738Y-148290975D01*
X74207738Y-148290975D02*
X74226785Y-148310022D01*
X74226785Y-148310022D02*
X74245833Y-148348118D01*
X74245833Y-148348118D02*
X74245833Y-148405260D01*
X74245833Y-148405260D02*
X74226785Y-148443356D01*
X74226785Y-148443356D02*
X74207738Y-148462403D01*
X74207738Y-148462403D02*
X74169643Y-148481451D01*
X74169643Y-148481451D02*
X74017262Y-148481451D01*
X74379166Y-148271927D02*
X74626785Y-148271927D01*
X74626785Y-148271927D02*
X74493452Y-148424308D01*
X74493452Y-148424308D02*
X74550595Y-148424308D01*
X74550595Y-148424308D02*
X74588690Y-148443356D01*
X74588690Y-148443356D02*
X74607738Y-148462403D01*
X74607738Y-148462403D02*
X74626785Y-148500499D01*
X74626785Y-148500499D02*
X74626785Y-148595737D01*
X74626785Y-148595737D02*
X74607738Y-148633832D01*
X74607738Y-148633832D02*
X74588690Y-148652880D01*
X74588690Y-148652880D02*
X74550595Y-148671927D01*
X74550595Y-148671927D02*
X74436309Y-148671927D01*
X74436309Y-148671927D02*
X74398214Y-148652880D01*
X74398214Y-148652880D02*
X74379166Y-148633832D01*
D10*
X74247023Y-145254819D02*
X73675595Y-145254819D01*
X73961309Y-145254819D02*
X73961309Y-144254819D01*
X73961309Y-144254819D02*
X73866071Y-144397676D01*
X73866071Y-144397676D02*
X73770833Y-144492914D01*
X73770833Y-144492914D02*
X73675595Y-144540533D01*
X74866071Y-144254819D02*
X74961309Y-144254819D01*
X74961309Y-144254819D02*
X75056547Y-144302438D01*
X75056547Y-144302438D02*
X75104166Y-144350057D01*
X75104166Y-144350057D02*
X75151785Y-144445295D01*
X75151785Y-144445295D02*
X75199404Y-144635771D01*
X75199404Y-144635771D02*
X75199404Y-144873866D01*
X75199404Y-144873866D02*
X75151785Y-145064342D01*
X75151785Y-145064342D02*
X75104166Y-145159580D01*
X75104166Y-145159580D02*
X75056547Y-145207200D01*
X75056547Y-145207200D02*
X74961309Y-145254819D01*
X74961309Y-145254819D02*
X74866071Y-145254819D01*
X74866071Y-145254819D02*
X74770833Y-145207200D01*
X74770833Y-145207200D02*
X74723214Y-145159580D01*
X74723214Y-145159580D02*
X74675595Y-145064342D01*
X74675595Y-145064342D02*
X74627976Y-144873866D01*
X74627976Y-144873866D02*
X74627976Y-144635771D01*
X74627976Y-144635771D02*
X74675595Y-144445295D01*
X74675595Y-144445295D02*
X74723214Y-144350057D01*
X74723214Y-144350057D02*
X74770833Y-144302438D01*
X74770833Y-144302438D02*
X74866071Y-144254819D01*
X75627976Y-145254819D02*
X75627976Y-144254819D01*
X76199404Y-145254819D02*
X75770833Y-144683390D01*
X76199404Y-144254819D02*
X75627976Y-144826247D01*
D11*
X74070833Y-143651927D02*
X73937500Y-143461451D01*
X73842262Y-143651927D02*
X73842262Y-143251927D01*
X73842262Y-143251927D02*
X73994643Y-143251927D01*
X73994643Y-143251927D02*
X74032738Y-143270975D01*
X74032738Y-143270975D02*
X74051785Y-143290022D01*
X74051785Y-143290022D02*
X74070833Y-143328118D01*
X74070833Y-143328118D02*
X74070833Y-143385260D01*
X74070833Y-143385260D02*
X74051785Y-143423356D01*
X74051785Y-143423356D02*
X74032738Y-143442403D01*
X74032738Y-143442403D02*
X73994643Y-143461451D01*
X73994643Y-143461451D02*
X73842262Y-143461451D01*
X74451785Y-143651927D02*
X74223214Y-143651927D01*
X74337500Y-143651927D02*
X74337500Y-143251927D01*
X74337500Y-143251927D02*
X74299404Y-143309070D01*
X74299404Y-143309070D02*
X74261309Y-143347165D01*
X74261309Y-143347165D02*
X74223214Y-143366213D01*
D10*
X118800057Y-120238094D02*
X118752438Y-120190475D01*
X118752438Y-120190475D02*
X118704819Y-120095237D01*
X118704819Y-120095237D02*
X118704819Y-119857142D01*
X118704819Y-119857142D02*
X118752438Y-119761904D01*
X118752438Y-119761904D02*
X118800057Y-119714285D01*
X118800057Y-119714285D02*
X118895295Y-119666666D01*
X118895295Y-119666666D02*
X118990533Y-119666666D01*
X118990533Y-119666666D02*
X119133390Y-119714285D01*
X119133390Y-119714285D02*
X119704819Y-120285713D01*
X119704819Y-120285713D02*
X119704819Y-119666666D01*
X119609580Y-119238094D02*
X119657200Y-119190475D01*
X119657200Y-119190475D02*
X119704819Y-119238094D01*
X119704819Y-119238094D02*
X119657200Y-119285713D01*
X119657200Y-119285713D02*
X119609580Y-119238094D01*
X119609580Y-119238094D02*
X119704819Y-119238094D01*
X118704819Y-118857142D02*
X118704819Y-118190476D01*
X118704819Y-118190476D02*
X119704819Y-118619047D01*
X119038152Y-117809523D02*
X119704819Y-117809523D01*
X119133390Y-117809523D02*
X119085771Y-117761904D01*
X119085771Y-117761904D02*
X119038152Y-117666666D01*
X119038152Y-117666666D02*
X119038152Y-117523809D01*
X119038152Y-117523809D02*
X119085771Y-117428571D01*
X119085771Y-117428571D02*
X119181009Y-117380952D01*
X119181009Y-117380952D02*
X119704819Y-117380952D01*
X119038152Y-117047618D02*
X119038152Y-116666666D01*
X119704819Y-116904761D02*
X118847676Y-116904761D01*
X118847676Y-116904761D02*
X118752438Y-116857142D01*
X118752438Y-116857142D02*
X118704819Y-116761904D01*
X118704819Y-116761904D02*
X118704819Y-116666666D01*
D11*
X117893832Y-118757142D02*
X117912880Y-118776190D01*
X117912880Y-118776190D02*
X117931927Y-118833332D01*
X117931927Y-118833332D02*
X117931927Y-118871428D01*
X117931927Y-118871428D02*
X117912880Y-118928571D01*
X117912880Y-118928571D02*
X117874784Y-118966666D01*
X117874784Y-118966666D02*
X117836689Y-118985713D01*
X117836689Y-118985713D02*
X117760499Y-119004761D01*
X117760499Y-119004761D02*
X117703356Y-119004761D01*
X117703356Y-119004761D02*
X117627165Y-118985713D01*
X117627165Y-118985713D02*
X117589070Y-118966666D01*
X117589070Y-118966666D02*
X117550975Y-118928571D01*
X117550975Y-118928571D02*
X117531927Y-118871428D01*
X117531927Y-118871428D02*
X117531927Y-118833332D01*
X117531927Y-118833332D02*
X117550975Y-118776190D01*
X117550975Y-118776190D02*
X117570022Y-118757142D01*
X117931927Y-118376190D02*
X117931927Y-118604761D01*
X117931927Y-118490475D02*
X117531927Y-118490475D01*
X117531927Y-118490475D02*
X117589070Y-118528571D01*
X117589070Y-118528571D02*
X117627165Y-118566666D01*
X117627165Y-118566666D02*
X117646213Y-118604761D01*
X117531927Y-118128571D02*
X117531927Y-118090476D01*
X117531927Y-118090476D02*
X117550975Y-118052380D01*
X117550975Y-118052380D02*
X117570022Y-118033333D01*
X117570022Y-118033333D02*
X117608118Y-118014285D01*
X117608118Y-118014285D02*
X117684308Y-117995238D01*
X117684308Y-117995238D02*
X117779546Y-117995238D01*
X117779546Y-117995238D02*
X117855737Y-118014285D01*
X117855737Y-118014285D02*
X117893832Y-118033333D01*
X117893832Y-118033333D02*
X117912880Y-118052380D01*
X117912880Y-118052380D02*
X117931927Y-118090476D01*
X117931927Y-118090476D02*
X117931927Y-118128571D01*
X117931927Y-118128571D02*
X117912880Y-118166666D01*
X117912880Y-118166666D02*
X117893832Y-118185714D01*
X117893832Y-118185714D02*
X117855737Y-118204761D01*
X117855737Y-118204761D02*
X117779546Y-118223809D01*
X117779546Y-118223809D02*
X117684308Y-118223809D01*
X117684308Y-118223809D02*
X117608118Y-118204761D01*
X117608118Y-118204761D02*
X117570022Y-118185714D01*
X117570022Y-118185714D02*
X117550975Y-118166666D01*
X117550975Y-118166666D02*
X117531927Y-118128571D01*
D10*
X74247023Y-147844819D02*
X73675595Y-147844819D01*
X73961309Y-147844819D02*
X73961309Y-146844819D01*
X73961309Y-146844819D02*
X73866071Y-146987676D01*
X73866071Y-146987676D02*
X73770833Y-147082914D01*
X73770833Y-147082914D02*
X73675595Y-147130533D01*
X74866071Y-146844819D02*
X74961309Y-146844819D01*
X74961309Y-146844819D02*
X75056547Y-146892438D01*
X75056547Y-146892438D02*
X75104166Y-146940057D01*
X75104166Y-146940057D02*
X75151785Y-147035295D01*
X75151785Y-147035295D02*
X75199404Y-147225771D01*
X75199404Y-147225771D02*
X75199404Y-147463866D01*
X75199404Y-147463866D02*
X75151785Y-147654342D01*
X75151785Y-147654342D02*
X75104166Y-147749580D01*
X75104166Y-147749580D02*
X75056547Y-147797200D01*
X75056547Y-147797200D02*
X74961309Y-147844819D01*
X74961309Y-147844819D02*
X74866071Y-147844819D01*
X74866071Y-147844819D02*
X74770833Y-147797200D01*
X74770833Y-147797200D02*
X74723214Y-147749580D01*
X74723214Y-147749580D02*
X74675595Y-147654342D01*
X74675595Y-147654342D02*
X74627976Y-147463866D01*
X74627976Y-147463866D02*
X74627976Y-147225771D01*
X74627976Y-147225771D02*
X74675595Y-147035295D01*
X74675595Y-147035295D02*
X74723214Y-146940057D01*
X74723214Y-146940057D02*
X74770833Y-146892438D01*
X74770833Y-146892438D02*
X74866071Y-146844819D01*
X75627976Y-147844819D02*
X75627976Y-146844819D01*
X76199404Y-147844819D02*
X75770833Y-147273390D01*
X76199404Y-146844819D02*
X75627976Y-147416247D01*
D11*
X74070833Y-146241927D02*
X73937500Y-146051451D01*
X73842262Y-146241927D02*
X73842262Y-145841927D01*
X73842262Y-145841927D02*
X73994643Y-145841927D01*
X73994643Y-145841927D02*
X74032738Y-145860975D01*
X74032738Y-145860975D02*
X74051785Y-145880022D01*
X74051785Y-145880022D02*
X74070833Y-145918118D01*
X74070833Y-145918118D02*
X74070833Y-145975260D01*
X74070833Y-145975260D02*
X74051785Y-146013356D01*
X74051785Y-146013356D02*
X74032738Y-146032403D01*
X74032738Y-146032403D02*
X73994643Y-146051451D01*
X73994643Y-146051451D02*
X73842262Y-146051451D01*
X74223214Y-145880022D02*
X74242262Y-145860975D01*
X74242262Y-145860975D02*
X74280357Y-145841927D01*
X74280357Y-145841927D02*
X74375595Y-145841927D01*
X74375595Y-145841927D02*
X74413690Y-145860975D01*
X74413690Y-145860975D02*
X74432738Y-145880022D01*
X74432738Y-145880022D02*
X74451785Y-145918118D01*
X74451785Y-145918118D02*
X74451785Y-145956213D01*
X74451785Y-145956213D02*
X74432738Y-146013356D01*
X74432738Y-146013356D02*
X74204166Y-146241927D01*
X74204166Y-146241927D02*
X74451785Y-146241927D01*
D10*
X123872319Y-127619047D02*
X123872319Y-127047619D01*
X124872319Y-127333333D02*
X123872319Y-127333333D01*
X124872319Y-126238095D02*
X124872319Y-126714285D01*
X124872319Y-126714285D02*
X123872319Y-126714285D01*
X123872319Y-125714285D02*
X123872319Y-125619047D01*
X123872319Y-125619047D02*
X123919938Y-125523809D01*
X123919938Y-125523809D02*
X123967557Y-125476190D01*
X123967557Y-125476190D02*
X124062795Y-125428571D01*
X124062795Y-125428571D02*
X124253271Y-125380952D01*
X124253271Y-125380952D02*
X124491366Y-125380952D01*
X124491366Y-125380952D02*
X124681842Y-125428571D01*
X124681842Y-125428571D02*
X124777080Y-125476190D01*
X124777080Y-125476190D02*
X124824700Y-125523809D01*
X124824700Y-125523809D02*
X124872319Y-125619047D01*
X124872319Y-125619047D02*
X124872319Y-125714285D01*
X124872319Y-125714285D02*
X124824700Y-125809523D01*
X124824700Y-125809523D02*
X124777080Y-125857142D01*
X124777080Y-125857142D02*
X124681842Y-125904761D01*
X124681842Y-125904761D02*
X124491366Y-125952380D01*
X124491366Y-125952380D02*
X124253271Y-125952380D01*
X124253271Y-125952380D02*
X124062795Y-125904761D01*
X124062795Y-125904761D02*
X123967557Y-125857142D01*
X123967557Y-125857142D02*
X123919938Y-125809523D01*
X123919938Y-125809523D02*
X123872319Y-125714285D01*
X123872319Y-125047618D02*
X123872319Y-124380952D01*
X123872319Y-124380952D02*
X124872319Y-124809523D01*
X124205652Y-123571428D02*
X124872319Y-123571428D01*
X123824700Y-123809523D02*
X124538985Y-124047618D01*
X124538985Y-124047618D02*
X124538985Y-123428571D01*
X118603066Y-126246666D02*
X119396400Y-126246666D01*
X119396400Y-126246666D02*
X119489733Y-126200000D01*
X119489733Y-126200000D02*
X119536400Y-126153333D01*
X119536400Y-126153333D02*
X119583066Y-126060000D01*
X119583066Y-126060000D02*
X119583066Y-125873333D01*
X119583066Y-125873333D02*
X119536400Y-125780000D01*
X119536400Y-125780000D02*
X119489733Y-125733333D01*
X119489733Y-125733333D02*
X119396400Y-125686666D01*
X119396400Y-125686666D02*
X118603066Y-125686666D01*
X118929733Y-124799999D02*
X119583066Y-124799999D01*
X118556400Y-125033333D02*
X119256400Y-125266666D01*
X119256400Y-125266666D02*
X119256400Y-124659999D01*
X128571428Y-118704819D02*
X128000000Y-118704819D01*
X128285714Y-118704819D02*
X128285714Y-117704819D01*
X128285714Y-117704819D02*
X128190476Y-117847676D01*
X128190476Y-117847676D02*
X128095238Y-117942914D01*
X128095238Y-117942914D02*
X128000000Y-117990533D01*
X129190476Y-117704819D02*
X129285714Y-117704819D01*
X129285714Y-117704819D02*
X129380952Y-117752438D01*
X129380952Y-117752438D02*
X129428571Y-117800057D01*
X129428571Y-117800057D02*
X129476190Y-117895295D01*
X129476190Y-117895295D02*
X129523809Y-118085771D01*
X129523809Y-118085771D02*
X129523809Y-118323866D01*
X129523809Y-118323866D02*
X129476190Y-118514342D01*
X129476190Y-118514342D02*
X129428571Y-118609580D01*
X129428571Y-118609580D02*
X129380952Y-118657200D01*
X129380952Y-118657200D02*
X129285714Y-118704819D01*
X129285714Y-118704819D02*
X129190476Y-118704819D01*
X129190476Y-118704819D02*
X129095238Y-118657200D01*
X129095238Y-118657200D02*
X129047619Y-118609580D01*
X129047619Y-118609580D02*
X129000000Y-118514342D01*
X129000000Y-118514342D02*
X128952381Y-118323866D01*
X128952381Y-118323866D02*
X128952381Y-118085771D01*
X128952381Y-118085771D02*
X129000000Y-117895295D01*
X129000000Y-117895295D02*
X129047619Y-117800057D01*
X129047619Y-117800057D02*
X129095238Y-117752438D01*
X129095238Y-117752438D02*
X129190476Y-117704819D01*
X130380952Y-118038152D02*
X130380952Y-118704819D01*
X129952381Y-118038152D02*
X129952381Y-118561961D01*
X129952381Y-118561961D02*
X130000000Y-118657200D01*
X130000000Y-118657200D02*
X130095238Y-118704819D01*
X130095238Y-118704819D02*
X130238095Y-118704819D01*
X130238095Y-118704819D02*
X130333333Y-118657200D01*
X130333333Y-118657200D02*
X130380952Y-118609580D01*
X130714286Y-118038152D02*
X131095238Y-118038152D01*
X130857143Y-118704819D02*
X130857143Y-117847676D01*
X130857143Y-117847676D02*
X130904762Y-117752438D01*
X130904762Y-117752438D02*
X131000000Y-117704819D01*
X131000000Y-117704819D02*
X131095238Y-117704819D01*
D11*
X132108432Y-117144642D02*
X132127480Y-117163690D01*
X132127480Y-117163690D02*
X132146527Y-117220832D01*
X132146527Y-117220832D02*
X132146527Y-117258928D01*
X132146527Y-117258928D02*
X132127480Y-117316071D01*
X132127480Y-117316071D02*
X132089384Y-117354166D01*
X132089384Y-117354166D02*
X132051289Y-117373213D01*
X132051289Y-117373213D02*
X131975099Y-117392261D01*
X131975099Y-117392261D02*
X131917956Y-117392261D01*
X131917956Y-117392261D02*
X131841765Y-117373213D01*
X131841765Y-117373213D02*
X131803670Y-117354166D01*
X131803670Y-117354166D02*
X131765575Y-117316071D01*
X131765575Y-117316071D02*
X131746527Y-117258928D01*
X131746527Y-117258928D02*
X131746527Y-117220832D01*
X131746527Y-117220832D02*
X131765575Y-117163690D01*
X131765575Y-117163690D02*
X131784622Y-117144642D01*
X132146527Y-116763690D02*
X132146527Y-116992261D01*
X132146527Y-116877975D02*
X131746527Y-116877975D01*
X131746527Y-116877975D02*
X131803670Y-116916071D01*
X131803670Y-116916071D02*
X131841765Y-116954166D01*
X131841765Y-116954166D02*
X131860813Y-116992261D01*
X131746527Y-116420833D02*
X131746527Y-116497023D01*
X131746527Y-116497023D02*
X131765575Y-116535119D01*
X131765575Y-116535119D02*
X131784622Y-116554166D01*
X131784622Y-116554166D02*
X131841765Y-116592261D01*
X131841765Y-116592261D02*
X131917956Y-116611309D01*
X131917956Y-116611309D02*
X132070337Y-116611309D01*
X132070337Y-116611309D02*
X132108432Y-116592261D01*
X132108432Y-116592261D02*
X132127480Y-116573214D01*
X132127480Y-116573214D02*
X132146527Y-116535119D01*
X132146527Y-116535119D02*
X132146527Y-116458928D01*
X132146527Y-116458928D02*
X132127480Y-116420833D01*
X132127480Y-116420833D02*
X132108432Y-116401785D01*
X132108432Y-116401785D02*
X132070337Y-116382738D01*
X132070337Y-116382738D02*
X131975099Y-116382738D01*
X131975099Y-116382738D02*
X131937003Y-116401785D01*
X131937003Y-116401785D02*
X131917956Y-116420833D01*
X131917956Y-116420833D02*
X131898908Y-116458928D01*
X131898908Y-116458928D02*
X131898908Y-116535119D01*
X131898908Y-116535119D02*
X131917956Y-116573214D01*
X131917956Y-116573214D02*
X131937003Y-116592261D01*
X131937003Y-116592261D02*
X131975099Y-116611309D01*
D10*
X91428571Y-139304819D02*
X90857143Y-139304819D01*
X91142857Y-139304819D02*
X91142857Y-138304819D01*
X91142857Y-138304819D02*
X91047619Y-138447676D01*
X91047619Y-138447676D02*
X90952381Y-138542914D01*
X90952381Y-138542914D02*
X90857143Y-138590533D01*
X92047619Y-138304819D02*
X92142857Y-138304819D01*
X92142857Y-138304819D02*
X92238095Y-138352438D01*
X92238095Y-138352438D02*
X92285714Y-138400057D01*
X92285714Y-138400057D02*
X92333333Y-138495295D01*
X92333333Y-138495295D02*
X92380952Y-138685771D01*
X92380952Y-138685771D02*
X92380952Y-138923866D01*
X92380952Y-138923866D02*
X92333333Y-139114342D01*
X92333333Y-139114342D02*
X92285714Y-139209580D01*
X92285714Y-139209580D02*
X92238095Y-139257200D01*
X92238095Y-139257200D02*
X92142857Y-139304819D01*
X92142857Y-139304819D02*
X92047619Y-139304819D01*
X92047619Y-139304819D02*
X91952381Y-139257200D01*
X91952381Y-139257200D02*
X91904762Y-139209580D01*
X91904762Y-139209580D02*
X91857143Y-139114342D01*
X91857143Y-139114342D02*
X91809524Y-138923866D01*
X91809524Y-138923866D02*
X91809524Y-138685771D01*
X91809524Y-138685771D02*
X91857143Y-138495295D01*
X91857143Y-138495295D02*
X91904762Y-138400057D01*
X91904762Y-138400057D02*
X91952381Y-138352438D01*
X91952381Y-138352438D02*
X92047619Y-138304819D01*
X93238095Y-138638152D02*
X93238095Y-139304819D01*
X92809524Y-138638152D02*
X92809524Y-139161961D01*
X92809524Y-139161961D02*
X92857143Y-139257200D01*
X92857143Y-139257200D02*
X92952381Y-139304819D01*
X92952381Y-139304819D02*
X93095238Y-139304819D01*
X93095238Y-139304819D02*
X93190476Y-139257200D01*
X93190476Y-139257200D02*
X93238095Y-139209580D01*
X94047619Y-138781009D02*
X93714286Y-138781009D01*
X93714286Y-139304819D02*
X93714286Y-138304819D01*
X93714286Y-138304819D02*
X94190476Y-138304819D01*
D12*
X92366667Y-137287664D02*
X92328571Y-137325760D01*
X92328571Y-137325760D02*
X92214286Y-137363855D01*
X92214286Y-137363855D02*
X92138095Y-137363855D01*
X92138095Y-137363855D02*
X92023809Y-137325760D01*
X92023809Y-137325760D02*
X91947619Y-137249569D01*
X91947619Y-137249569D02*
X91909524Y-137173379D01*
X91909524Y-137173379D02*
X91871428Y-137020998D01*
X91871428Y-137020998D02*
X91871428Y-136906712D01*
X91871428Y-136906712D02*
X91909524Y-136754331D01*
X91909524Y-136754331D02*
X91947619Y-136678140D01*
X91947619Y-136678140D02*
X92023809Y-136601950D01*
X92023809Y-136601950D02*
X92138095Y-136563855D01*
X92138095Y-136563855D02*
X92214286Y-136563855D01*
X92214286Y-136563855D02*
X92328571Y-136601950D01*
X92328571Y-136601950D02*
X92366667Y-136640045D01*
X93052381Y-136830521D02*
X93052381Y-137363855D01*
X92861905Y-136525760D02*
X92671428Y-137097188D01*
X92671428Y-137097188D02*
X93166667Y-137097188D01*
D10*
X74422023Y-152784819D02*
X73850595Y-152784819D01*
X74136309Y-152784819D02*
X74136309Y-151784819D01*
X74136309Y-151784819D02*
X74041071Y-151927676D01*
X74041071Y-151927676D02*
X73945833Y-152022914D01*
X73945833Y-152022914D02*
X73850595Y-152070533D01*
X75041071Y-151784819D02*
X75136309Y-151784819D01*
X75136309Y-151784819D02*
X75231547Y-151832438D01*
X75231547Y-151832438D02*
X75279166Y-151880057D01*
X75279166Y-151880057D02*
X75326785Y-151975295D01*
X75326785Y-151975295D02*
X75374404Y-152165771D01*
X75374404Y-152165771D02*
X75374404Y-152403866D01*
X75374404Y-152403866D02*
X75326785Y-152594342D01*
X75326785Y-152594342D02*
X75279166Y-152689580D01*
X75279166Y-152689580D02*
X75231547Y-152737200D01*
X75231547Y-152737200D02*
X75136309Y-152784819D01*
X75136309Y-152784819D02*
X75041071Y-152784819D01*
X75041071Y-152784819D02*
X74945833Y-152737200D01*
X74945833Y-152737200D02*
X74898214Y-152689580D01*
X74898214Y-152689580D02*
X74850595Y-152594342D01*
X74850595Y-152594342D02*
X74802976Y-152403866D01*
X74802976Y-152403866D02*
X74802976Y-152165771D01*
X74802976Y-152165771D02*
X74850595Y-151975295D01*
X74850595Y-151975295D02*
X74898214Y-151880057D01*
X74898214Y-151880057D02*
X74945833Y-151832438D01*
X74945833Y-151832438D02*
X75041071Y-151784819D01*
X75802976Y-152784819D02*
X75802976Y-151784819D01*
X76374404Y-152784819D02*
X75945833Y-152213390D01*
X76374404Y-151784819D02*
X75802976Y-152356247D01*
D11*
X74245833Y-151181927D02*
X74112500Y-150991451D01*
X74017262Y-151181927D02*
X74017262Y-150781927D01*
X74017262Y-150781927D02*
X74169643Y-150781927D01*
X74169643Y-150781927D02*
X74207738Y-150800975D01*
X74207738Y-150800975D02*
X74226785Y-150820022D01*
X74226785Y-150820022D02*
X74245833Y-150858118D01*
X74245833Y-150858118D02*
X74245833Y-150915260D01*
X74245833Y-150915260D02*
X74226785Y-150953356D01*
X74226785Y-150953356D02*
X74207738Y-150972403D01*
X74207738Y-150972403D02*
X74169643Y-150991451D01*
X74169643Y-150991451D02*
X74017262Y-150991451D01*
X74588690Y-150915260D02*
X74588690Y-151181927D01*
X74493452Y-150762880D02*
X74398214Y-151048594D01*
X74398214Y-151048594D02*
X74645833Y-151048594D01*
D10*
X102141071Y-139314819D02*
X101569643Y-139314819D01*
X101855357Y-139314819D02*
X101855357Y-138314819D01*
X101855357Y-138314819D02*
X101760119Y-138457676D01*
X101760119Y-138457676D02*
X101664881Y-138552914D01*
X101664881Y-138552914D02*
X101569643Y-138600533D01*
X102760119Y-138314819D02*
X102855357Y-138314819D01*
X102855357Y-138314819D02*
X102950595Y-138362438D01*
X102950595Y-138362438D02*
X102998214Y-138410057D01*
X102998214Y-138410057D02*
X103045833Y-138505295D01*
X103045833Y-138505295D02*
X103093452Y-138695771D01*
X103093452Y-138695771D02*
X103093452Y-138933866D01*
X103093452Y-138933866D02*
X103045833Y-139124342D01*
X103045833Y-139124342D02*
X102998214Y-139219580D01*
X102998214Y-139219580D02*
X102950595Y-139267200D01*
X102950595Y-139267200D02*
X102855357Y-139314819D01*
X102855357Y-139314819D02*
X102760119Y-139314819D01*
X102760119Y-139314819D02*
X102664881Y-139267200D01*
X102664881Y-139267200D02*
X102617262Y-139219580D01*
X102617262Y-139219580D02*
X102569643Y-139124342D01*
X102569643Y-139124342D02*
X102522024Y-138933866D01*
X102522024Y-138933866D02*
X102522024Y-138695771D01*
X102522024Y-138695771D02*
X102569643Y-138505295D01*
X102569643Y-138505295D02*
X102617262Y-138410057D01*
X102617262Y-138410057D02*
X102664881Y-138362438D01*
X102664881Y-138362438D02*
X102760119Y-138314819D01*
X103950595Y-138648152D02*
X103950595Y-139314819D01*
X103522024Y-138648152D02*
X103522024Y-139171961D01*
X103522024Y-139171961D02*
X103569643Y-139267200D01*
X103569643Y-139267200D02*
X103664881Y-139314819D01*
X103664881Y-139314819D02*
X103807738Y-139314819D01*
X103807738Y-139314819D02*
X103902976Y-139267200D01*
X103902976Y-139267200D02*
X103950595Y-139219580D01*
X104760119Y-138791009D02*
X104426786Y-138791009D01*
X104426786Y-139314819D02*
X104426786Y-138314819D01*
X104426786Y-138314819D02*
X104902976Y-138314819D01*
D12*
X102866667Y-136787664D02*
X102828571Y-136825760D01*
X102828571Y-136825760D02*
X102714286Y-136863855D01*
X102714286Y-136863855D02*
X102638095Y-136863855D01*
X102638095Y-136863855D02*
X102523809Y-136825760D01*
X102523809Y-136825760D02*
X102447619Y-136749569D01*
X102447619Y-136749569D02*
X102409524Y-136673379D01*
X102409524Y-136673379D02*
X102371428Y-136520998D01*
X102371428Y-136520998D02*
X102371428Y-136406712D01*
X102371428Y-136406712D02*
X102409524Y-136254331D01*
X102409524Y-136254331D02*
X102447619Y-136178140D01*
X102447619Y-136178140D02*
X102523809Y-136101950D01*
X102523809Y-136101950D02*
X102638095Y-136063855D01*
X102638095Y-136063855D02*
X102714286Y-136063855D01*
X102714286Y-136063855D02*
X102828571Y-136101950D01*
X102828571Y-136101950D02*
X102866667Y-136140045D01*
X103590476Y-136063855D02*
X103209524Y-136063855D01*
X103209524Y-136063855D02*
X103171428Y-136444807D01*
X103171428Y-136444807D02*
X103209524Y-136406712D01*
X103209524Y-136406712D02*
X103285714Y-136368617D01*
X103285714Y-136368617D02*
X103476190Y-136368617D01*
X103476190Y-136368617D02*
X103552381Y-136406712D01*
X103552381Y-136406712D02*
X103590476Y-136444807D01*
X103590476Y-136444807D02*
X103628571Y-136520998D01*
X103628571Y-136520998D02*
X103628571Y-136711474D01*
X103628571Y-136711474D02*
X103590476Y-136787664D01*
X103590476Y-136787664D02*
X103552381Y-136825760D01*
X103552381Y-136825760D02*
X103476190Y-136863855D01*
X103476190Y-136863855D02*
X103285714Y-136863855D01*
X103285714Y-136863855D02*
X103209524Y-136825760D01*
X103209524Y-136825760D02*
X103171428Y-136787664D01*
D10*
X138071429Y-117704819D02*
X138690476Y-117704819D01*
X138690476Y-117704819D02*
X138357143Y-118085771D01*
X138357143Y-118085771D02*
X138500000Y-118085771D01*
X138500000Y-118085771D02*
X138595238Y-118133390D01*
X138595238Y-118133390D02*
X138642857Y-118181009D01*
X138642857Y-118181009D02*
X138690476Y-118276247D01*
X138690476Y-118276247D02*
X138690476Y-118514342D01*
X138690476Y-118514342D02*
X138642857Y-118609580D01*
X138642857Y-118609580D02*
X138595238Y-118657200D01*
X138595238Y-118657200D02*
X138500000Y-118704819D01*
X138500000Y-118704819D02*
X138214286Y-118704819D01*
X138214286Y-118704819D02*
X138119048Y-118657200D01*
X138119048Y-118657200D02*
X138071429Y-118609580D01*
X139119048Y-118609580D02*
X139166667Y-118657200D01*
X139166667Y-118657200D02*
X139119048Y-118704819D01*
X139119048Y-118704819D02*
X139071429Y-118657200D01*
X139071429Y-118657200D02*
X139119048Y-118609580D01*
X139119048Y-118609580D02*
X139119048Y-118704819D01*
X139642857Y-118704819D02*
X139833333Y-118704819D01*
X139833333Y-118704819D02*
X139928571Y-118657200D01*
X139928571Y-118657200D02*
X139976190Y-118609580D01*
X139976190Y-118609580D02*
X140071428Y-118466723D01*
X140071428Y-118466723D02*
X140119047Y-118276247D01*
X140119047Y-118276247D02*
X140119047Y-117895295D01*
X140119047Y-117895295D02*
X140071428Y-117800057D01*
X140071428Y-117800057D02*
X140023809Y-117752438D01*
X140023809Y-117752438D02*
X139928571Y-117704819D01*
X139928571Y-117704819D02*
X139738095Y-117704819D01*
X139738095Y-117704819D02*
X139642857Y-117752438D01*
X139642857Y-117752438D02*
X139595238Y-117800057D01*
X139595238Y-117800057D02*
X139547619Y-117895295D01*
X139547619Y-117895295D02*
X139547619Y-118133390D01*
X139547619Y-118133390D02*
X139595238Y-118228628D01*
X139595238Y-118228628D02*
X139642857Y-118276247D01*
X139642857Y-118276247D02*
X139738095Y-118323866D01*
X139738095Y-118323866D02*
X139928571Y-118323866D01*
X139928571Y-118323866D02*
X140023809Y-118276247D01*
X140023809Y-118276247D02*
X140071428Y-118228628D01*
X140071428Y-118228628D02*
X140119047Y-118133390D01*
X140547619Y-118038152D02*
X140547619Y-118704819D01*
X140547619Y-118133390D02*
X140595238Y-118085771D01*
X140595238Y-118085771D02*
X140690476Y-118038152D01*
X140690476Y-118038152D02*
X140833333Y-118038152D01*
X140833333Y-118038152D02*
X140928571Y-118085771D01*
X140928571Y-118085771D02*
X140976190Y-118181009D01*
X140976190Y-118181009D02*
X140976190Y-118704819D01*
X141785714Y-118181009D02*
X141452381Y-118181009D01*
X141452381Y-118704819D02*
X141452381Y-117704819D01*
X141452381Y-117704819D02*
X141928571Y-117704819D01*
D11*
X142383432Y-117144642D02*
X142402480Y-117163690D01*
X142402480Y-117163690D02*
X142421527Y-117220832D01*
X142421527Y-117220832D02*
X142421527Y-117258928D01*
X142421527Y-117258928D02*
X142402480Y-117316071D01*
X142402480Y-117316071D02*
X142364384Y-117354166D01*
X142364384Y-117354166D02*
X142326289Y-117373213D01*
X142326289Y-117373213D02*
X142250099Y-117392261D01*
X142250099Y-117392261D02*
X142192956Y-117392261D01*
X142192956Y-117392261D02*
X142116765Y-117373213D01*
X142116765Y-117373213D02*
X142078670Y-117354166D01*
X142078670Y-117354166D02*
X142040575Y-117316071D01*
X142040575Y-117316071D02*
X142021527Y-117258928D01*
X142021527Y-117258928D02*
X142021527Y-117220832D01*
X142021527Y-117220832D02*
X142040575Y-117163690D01*
X142040575Y-117163690D02*
X142059622Y-117144642D01*
X142421527Y-116763690D02*
X142421527Y-116992261D01*
X142421527Y-116877975D02*
X142021527Y-116877975D01*
X142021527Y-116877975D02*
X142078670Y-116916071D01*
X142078670Y-116916071D02*
X142116765Y-116954166D01*
X142116765Y-116954166D02*
X142135813Y-116992261D01*
X142192956Y-116535119D02*
X142173908Y-116573214D01*
X142173908Y-116573214D02*
X142154860Y-116592261D01*
X142154860Y-116592261D02*
X142116765Y-116611309D01*
X142116765Y-116611309D02*
X142097718Y-116611309D01*
X142097718Y-116611309D02*
X142059622Y-116592261D01*
X142059622Y-116592261D02*
X142040575Y-116573214D01*
X142040575Y-116573214D02*
X142021527Y-116535119D01*
X142021527Y-116535119D02*
X142021527Y-116458928D01*
X142021527Y-116458928D02*
X142040575Y-116420833D01*
X142040575Y-116420833D02*
X142059622Y-116401785D01*
X142059622Y-116401785D02*
X142097718Y-116382738D01*
X142097718Y-116382738D02*
X142116765Y-116382738D01*
X142116765Y-116382738D02*
X142154860Y-116401785D01*
X142154860Y-116401785D02*
X142173908Y-116420833D01*
X142173908Y-116420833D02*
X142192956Y-116458928D01*
X142192956Y-116458928D02*
X142192956Y-116535119D01*
X142192956Y-116535119D02*
X142212003Y-116573214D01*
X142212003Y-116573214D02*
X142231051Y-116592261D01*
X142231051Y-116592261D02*
X142269146Y-116611309D01*
X142269146Y-116611309D02*
X142345337Y-116611309D01*
X142345337Y-116611309D02*
X142383432Y-116592261D01*
X142383432Y-116592261D02*
X142402480Y-116573214D01*
X142402480Y-116573214D02*
X142421527Y-116535119D01*
X142421527Y-116535119D02*
X142421527Y-116458928D01*
X142421527Y-116458928D02*
X142402480Y-116420833D01*
X142402480Y-116420833D02*
X142383432Y-116401785D01*
X142383432Y-116401785D02*
X142345337Y-116382738D01*
X142345337Y-116382738D02*
X142269146Y-116382738D01*
X142269146Y-116382738D02*
X142231051Y-116401785D01*
X142231051Y-116401785D02*
X142212003Y-116420833D01*
X142212003Y-116420833D02*
X142192956Y-116458928D01*
D10*
X128321428Y-122704819D02*
X127750000Y-122704819D01*
X128035714Y-122704819D02*
X128035714Y-121704819D01*
X128035714Y-121704819D02*
X127940476Y-121847676D01*
X127940476Y-121847676D02*
X127845238Y-121942914D01*
X127845238Y-121942914D02*
X127750000Y-121990533D01*
X128940476Y-121704819D02*
X129035714Y-121704819D01*
X129035714Y-121704819D02*
X129130952Y-121752438D01*
X129130952Y-121752438D02*
X129178571Y-121800057D01*
X129178571Y-121800057D02*
X129226190Y-121895295D01*
X129226190Y-121895295D02*
X129273809Y-122085771D01*
X129273809Y-122085771D02*
X129273809Y-122323866D01*
X129273809Y-122323866D02*
X129226190Y-122514342D01*
X129226190Y-122514342D02*
X129178571Y-122609580D01*
X129178571Y-122609580D02*
X129130952Y-122657200D01*
X129130952Y-122657200D02*
X129035714Y-122704819D01*
X129035714Y-122704819D02*
X128940476Y-122704819D01*
X128940476Y-122704819D02*
X128845238Y-122657200D01*
X128845238Y-122657200D02*
X128797619Y-122609580D01*
X128797619Y-122609580D02*
X128750000Y-122514342D01*
X128750000Y-122514342D02*
X128702381Y-122323866D01*
X128702381Y-122323866D02*
X128702381Y-122085771D01*
X128702381Y-122085771D02*
X128750000Y-121895295D01*
X128750000Y-121895295D02*
X128797619Y-121800057D01*
X128797619Y-121800057D02*
X128845238Y-121752438D01*
X128845238Y-121752438D02*
X128940476Y-121704819D01*
X130130952Y-122038152D02*
X130130952Y-122704819D01*
X129702381Y-122038152D02*
X129702381Y-122561961D01*
X129702381Y-122561961D02*
X129750000Y-122657200D01*
X129750000Y-122657200D02*
X129845238Y-122704819D01*
X129845238Y-122704819D02*
X129988095Y-122704819D01*
X129988095Y-122704819D02*
X130083333Y-122657200D01*
X130083333Y-122657200D02*
X130130952Y-122609580D01*
X130464286Y-122038152D02*
X130845238Y-122038152D01*
X130607143Y-122704819D02*
X130607143Y-121847676D01*
X130607143Y-121847676D02*
X130654762Y-121752438D01*
X130654762Y-121752438D02*
X130750000Y-121704819D01*
X130750000Y-121704819D02*
X130845238Y-121704819D01*
D11*
X132143832Y-121257142D02*
X132162880Y-121276190D01*
X132162880Y-121276190D02*
X132181927Y-121333332D01*
X132181927Y-121333332D02*
X132181927Y-121371428D01*
X132181927Y-121371428D02*
X132162880Y-121428571D01*
X132162880Y-121428571D02*
X132124784Y-121466666D01*
X132124784Y-121466666D02*
X132086689Y-121485713D01*
X132086689Y-121485713D02*
X132010499Y-121504761D01*
X132010499Y-121504761D02*
X131953356Y-121504761D01*
X131953356Y-121504761D02*
X131877165Y-121485713D01*
X131877165Y-121485713D02*
X131839070Y-121466666D01*
X131839070Y-121466666D02*
X131800975Y-121428571D01*
X131800975Y-121428571D02*
X131781927Y-121371428D01*
X131781927Y-121371428D02*
X131781927Y-121333332D01*
X131781927Y-121333332D02*
X131800975Y-121276190D01*
X131800975Y-121276190D02*
X131820022Y-121257142D01*
X132181927Y-120876190D02*
X132181927Y-121104761D01*
X132181927Y-120990475D02*
X131781927Y-120990475D01*
X131781927Y-120990475D02*
X131839070Y-121028571D01*
X131839070Y-121028571D02*
X131877165Y-121066666D01*
X131877165Y-121066666D02*
X131896213Y-121104761D01*
X131781927Y-120514285D02*
X131781927Y-120704761D01*
X131781927Y-120704761D02*
X131972403Y-120723809D01*
X131972403Y-120723809D02*
X131953356Y-120704761D01*
X131953356Y-120704761D02*
X131934308Y-120666666D01*
X131934308Y-120666666D02*
X131934308Y-120571428D01*
X131934308Y-120571428D02*
X131953356Y-120533333D01*
X131953356Y-120533333D02*
X131972403Y-120514285D01*
X131972403Y-120514285D02*
X132010499Y-120495238D01*
X132010499Y-120495238D02*
X132105737Y-120495238D01*
X132105737Y-120495238D02*
X132143832Y-120514285D01*
X132143832Y-120514285D02*
X132162880Y-120533333D01*
X132162880Y-120533333D02*
X132181927Y-120571428D01*
X132181927Y-120571428D02*
X132181927Y-120666666D01*
X132181927Y-120666666D02*
X132162880Y-120704761D01*
X132162880Y-120704761D02*
X132143832Y-120723809D01*
D10*
X134785714Y-118704819D02*
X134214286Y-118704819D01*
X134500000Y-118704819D02*
X134500000Y-117704819D01*
X134500000Y-117704819D02*
X134404762Y-117847676D01*
X134404762Y-117847676D02*
X134309524Y-117942914D01*
X134309524Y-117942914D02*
X134214286Y-117990533D01*
X135214286Y-118704819D02*
X135214286Y-117704819D01*
X135785714Y-118704819D02*
X135357143Y-118133390D01*
X135785714Y-117704819D02*
X135214286Y-118276247D01*
D11*
X137196527Y-117144642D02*
X137006051Y-117277975D01*
X137196527Y-117373213D02*
X136796527Y-117373213D01*
X136796527Y-117373213D02*
X136796527Y-117220832D01*
X136796527Y-117220832D02*
X136815575Y-117182737D01*
X136815575Y-117182737D02*
X136834622Y-117163690D01*
X136834622Y-117163690D02*
X136872718Y-117144642D01*
X136872718Y-117144642D02*
X136929860Y-117144642D01*
X136929860Y-117144642D02*
X136967956Y-117163690D01*
X136967956Y-117163690D02*
X136987003Y-117182737D01*
X136987003Y-117182737D02*
X137006051Y-117220832D01*
X137006051Y-117220832D02*
X137006051Y-117373213D01*
X137196527Y-116763690D02*
X137196527Y-116992261D01*
X137196527Y-116877975D02*
X136796527Y-116877975D01*
X136796527Y-116877975D02*
X136853670Y-116916071D01*
X136853670Y-116916071D02*
X136891765Y-116954166D01*
X136891765Y-116954166D02*
X136910813Y-116992261D01*
X137196527Y-116382738D02*
X137196527Y-116611309D01*
X137196527Y-116497023D02*
X136796527Y-116497023D01*
X136796527Y-116497023D02*
X136853670Y-116535119D01*
X136853670Y-116535119D02*
X136891765Y-116573214D01*
X136891765Y-116573214D02*
X136910813Y-116611309D01*
D10*
X99607143Y-143134819D02*
X99702381Y-143134819D01*
X99702381Y-143134819D02*
X99797619Y-143182438D01*
X99797619Y-143182438D02*
X99845238Y-143230057D01*
X99845238Y-143230057D02*
X99892857Y-143325295D01*
X99892857Y-143325295D02*
X99940476Y-143515771D01*
X99940476Y-143515771D02*
X99940476Y-143753866D01*
X99940476Y-143753866D02*
X99892857Y-143944342D01*
X99892857Y-143944342D02*
X99845238Y-144039580D01*
X99845238Y-144039580D02*
X99797619Y-144087200D01*
X99797619Y-144087200D02*
X99702381Y-144134819D01*
X99702381Y-144134819D02*
X99607143Y-144134819D01*
X99607143Y-144134819D02*
X99511905Y-144087200D01*
X99511905Y-144087200D02*
X99464286Y-144039580D01*
X99464286Y-144039580D02*
X99416667Y-143944342D01*
X99416667Y-143944342D02*
X99369048Y-143753866D01*
X99369048Y-143753866D02*
X99369048Y-143515771D01*
X99369048Y-143515771D02*
X99416667Y-143325295D01*
X99416667Y-143325295D02*
X99464286Y-143230057D01*
X99464286Y-143230057D02*
X99511905Y-143182438D01*
X99511905Y-143182438D02*
X99607143Y-143134819D01*
X100369048Y-144039580D02*
X100416667Y-144087200D01*
X100416667Y-144087200D02*
X100369048Y-144134819D01*
X100369048Y-144134819D02*
X100321429Y-144087200D01*
X100321429Y-144087200D02*
X100369048Y-144039580D01*
X100369048Y-144039580D02*
X100369048Y-144134819D01*
X101369047Y-144134819D02*
X100797619Y-144134819D01*
X101083333Y-144134819D02*
X101083333Y-143134819D01*
X101083333Y-143134819D02*
X100988095Y-143277676D01*
X100988095Y-143277676D02*
X100892857Y-143372914D01*
X100892857Y-143372914D02*
X100797619Y-143420533D01*
X102226190Y-143468152D02*
X102226190Y-144134819D01*
X101797619Y-143468152D02*
X101797619Y-143991961D01*
X101797619Y-143991961D02*
X101845238Y-144087200D01*
X101845238Y-144087200D02*
X101940476Y-144134819D01*
X101940476Y-144134819D02*
X102083333Y-144134819D01*
X102083333Y-144134819D02*
X102178571Y-144087200D01*
X102178571Y-144087200D02*
X102226190Y-144039580D01*
X103035714Y-143611009D02*
X102702381Y-143611009D01*
X102702381Y-144134819D02*
X102702381Y-143134819D01*
X102702381Y-143134819D02*
X103178571Y-143134819D01*
D11*
X100992857Y-142393832D02*
X100973809Y-142412880D01*
X100973809Y-142412880D02*
X100916667Y-142431927D01*
X100916667Y-142431927D02*
X100878571Y-142431927D01*
X100878571Y-142431927D02*
X100821428Y-142412880D01*
X100821428Y-142412880D02*
X100783333Y-142374784D01*
X100783333Y-142374784D02*
X100764286Y-142336689D01*
X100764286Y-142336689D02*
X100745238Y-142260499D01*
X100745238Y-142260499D02*
X100745238Y-142203356D01*
X100745238Y-142203356D02*
X100764286Y-142127165D01*
X100764286Y-142127165D02*
X100783333Y-142089070D01*
X100783333Y-142089070D02*
X100821428Y-142050975D01*
X100821428Y-142050975D02*
X100878571Y-142031927D01*
X100878571Y-142031927D02*
X100916667Y-142031927D01*
X100916667Y-142031927D02*
X100973809Y-142050975D01*
X100973809Y-142050975D02*
X100992857Y-142070022D01*
X101373809Y-142431927D02*
X101145238Y-142431927D01*
X101259524Y-142431927D02*
X101259524Y-142031927D01*
X101259524Y-142031927D02*
X101221428Y-142089070D01*
X101221428Y-142089070D02*
X101183333Y-142127165D01*
X101183333Y-142127165D02*
X101145238Y-142146213D01*
X101564285Y-142431927D02*
X101640476Y-142431927D01*
X101640476Y-142431927D02*
X101678571Y-142412880D01*
X101678571Y-142412880D02*
X101697619Y-142393832D01*
X101697619Y-142393832D02*
X101735714Y-142336689D01*
X101735714Y-142336689D02*
X101754761Y-142260499D01*
X101754761Y-142260499D02*
X101754761Y-142108118D01*
X101754761Y-142108118D02*
X101735714Y-142070022D01*
X101735714Y-142070022D02*
X101716666Y-142050975D01*
X101716666Y-142050975D02*
X101678571Y-142031927D01*
X101678571Y-142031927D02*
X101602380Y-142031927D01*
X101602380Y-142031927D02*
X101564285Y-142050975D01*
X101564285Y-142050975D02*
X101545238Y-142070022D01*
X101545238Y-142070022D02*
X101526190Y-142108118D01*
X101526190Y-142108118D02*
X101526190Y-142203356D01*
X101526190Y-142203356D02*
X101545238Y-142241451D01*
X101545238Y-142241451D02*
X101564285Y-142260499D01*
X101564285Y-142260499D02*
X101602380Y-142279546D01*
X101602380Y-142279546D02*
X101678571Y-142279546D01*
X101678571Y-142279546D02*
X101716666Y-142260499D01*
X101716666Y-142260499D02*
X101735714Y-142241451D01*
X101735714Y-142241451D02*
X101754761Y-142203356D01*
D10*
X85527380Y-138904819D02*
X84955952Y-138904819D01*
X85241666Y-138904819D02*
X85241666Y-137904819D01*
X85241666Y-137904819D02*
X85146428Y-138047676D01*
X85146428Y-138047676D02*
X85051190Y-138142914D01*
X85051190Y-138142914D02*
X84955952Y-138190533D01*
X86146428Y-137904819D02*
X86241666Y-137904819D01*
X86241666Y-137904819D02*
X86336904Y-137952438D01*
X86336904Y-137952438D02*
X86384523Y-138000057D01*
X86384523Y-138000057D02*
X86432142Y-138095295D01*
X86432142Y-138095295D02*
X86479761Y-138285771D01*
X86479761Y-138285771D02*
X86479761Y-138523866D01*
X86479761Y-138523866D02*
X86432142Y-138714342D01*
X86432142Y-138714342D02*
X86384523Y-138809580D01*
X86384523Y-138809580D02*
X86336904Y-138857200D01*
X86336904Y-138857200D02*
X86241666Y-138904819D01*
X86241666Y-138904819D02*
X86146428Y-138904819D01*
X86146428Y-138904819D02*
X86051190Y-138857200D01*
X86051190Y-138857200D02*
X86003571Y-138809580D01*
X86003571Y-138809580D02*
X85955952Y-138714342D01*
X85955952Y-138714342D02*
X85908333Y-138523866D01*
X85908333Y-138523866D02*
X85908333Y-138285771D01*
X85908333Y-138285771D02*
X85955952Y-138095295D01*
X85955952Y-138095295D02*
X86003571Y-138000057D01*
X86003571Y-138000057D02*
X86051190Y-137952438D01*
X86051190Y-137952438D02*
X86146428Y-137904819D01*
X87098809Y-137904819D02*
X87194047Y-137904819D01*
X87194047Y-137904819D02*
X87289285Y-137952438D01*
X87289285Y-137952438D02*
X87336904Y-138000057D01*
X87336904Y-138000057D02*
X87384523Y-138095295D01*
X87384523Y-138095295D02*
X87432142Y-138285771D01*
X87432142Y-138285771D02*
X87432142Y-138523866D01*
X87432142Y-138523866D02*
X87384523Y-138714342D01*
X87384523Y-138714342D02*
X87336904Y-138809580D01*
X87336904Y-138809580D02*
X87289285Y-138857200D01*
X87289285Y-138857200D02*
X87194047Y-138904819D01*
X87194047Y-138904819D02*
X87098809Y-138904819D01*
X87098809Y-138904819D02*
X87003571Y-138857200D01*
X87003571Y-138857200D02*
X86955952Y-138809580D01*
X86955952Y-138809580D02*
X86908333Y-138714342D01*
X86908333Y-138714342D02*
X86860714Y-138523866D01*
X86860714Y-138523866D02*
X86860714Y-138285771D01*
X86860714Y-138285771D02*
X86908333Y-138095295D01*
X86908333Y-138095295D02*
X86955952Y-138000057D01*
X86955952Y-138000057D02*
X87003571Y-137952438D01*
X87003571Y-137952438D02*
X87098809Y-137904819D01*
X87860714Y-138238152D02*
X87860714Y-138904819D01*
X87860714Y-138333390D02*
X87908333Y-138285771D01*
X87908333Y-138285771D02*
X88003571Y-138238152D01*
X88003571Y-138238152D02*
X88146428Y-138238152D01*
X88146428Y-138238152D02*
X88241666Y-138285771D01*
X88241666Y-138285771D02*
X88289285Y-138381009D01*
X88289285Y-138381009D02*
X88289285Y-138904819D01*
X89098809Y-138381009D02*
X88765476Y-138381009D01*
X88765476Y-138904819D02*
X88765476Y-137904819D01*
X88765476Y-137904819D02*
X89241666Y-137904819D01*
D11*
X86933333Y-137143832D02*
X86914285Y-137162880D01*
X86914285Y-137162880D02*
X86857143Y-137181927D01*
X86857143Y-137181927D02*
X86819047Y-137181927D01*
X86819047Y-137181927D02*
X86761904Y-137162880D01*
X86761904Y-137162880D02*
X86723809Y-137124784D01*
X86723809Y-137124784D02*
X86704762Y-137086689D01*
X86704762Y-137086689D02*
X86685714Y-137010499D01*
X86685714Y-137010499D02*
X86685714Y-136953356D01*
X86685714Y-136953356D02*
X86704762Y-136877165D01*
X86704762Y-136877165D02*
X86723809Y-136839070D01*
X86723809Y-136839070D02*
X86761904Y-136800975D01*
X86761904Y-136800975D02*
X86819047Y-136781927D01*
X86819047Y-136781927D02*
X86857143Y-136781927D01*
X86857143Y-136781927D02*
X86914285Y-136800975D01*
X86914285Y-136800975D02*
X86933333Y-136820022D01*
X87066666Y-136781927D02*
X87314285Y-136781927D01*
X87314285Y-136781927D02*
X87180952Y-136934308D01*
X87180952Y-136934308D02*
X87238095Y-136934308D01*
X87238095Y-136934308D02*
X87276190Y-136953356D01*
X87276190Y-136953356D02*
X87295238Y-136972403D01*
X87295238Y-136972403D02*
X87314285Y-137010499D01*
X87314285Y-137010499D02*
X87314285Y-137105737D01*
X87314285Y-137105737D02*
X87295238Y-137143832D01*
X87295238Y-137143832D02*
X87276190Y-137162880D01*
X87276190Y-137162880D02*
X87238095Y-137181927D01*
X87238095Y-137181927D02*
X87123809Y-137181927D01*
X87123809Y-137181927D02*
X87085714Y-137162880D01*
X87085714Y-137162880D02*
X87066666Y-137143832D01*
D10*
X77863095Y-130501009D02*
X78005952Y-130548628D01*
X78005952Y-130548628D02*
X78053571Y-130596247D01*
X78053571Y-130596247D02*
X78101190Y-130691485D01*
X78101190Y-130691485D02*
X78101190Y-130834342D01*
X78101190Y-130834342D02*
X78053571Y-130929580D01*
X78053571Y-130929580D02*
X78005952Y-130977200D01*
X78005952Y-130977200D02*
X77910714Y-131024819D01*
X77910714Y-131024819D02*
X77529762Y-131024819D01*
X77529762Y-131024819D02*
X77529762Y-130024819D01*
X77529762Y-130024819D02*
X77863095Y-130024819D01*
X77863095Y-130024819D02*
X77958333Y-130072438D01*
X77958333Y-130072438D02*
X78005952Y-130120057D01*
X78005952Y-130120057D02*
X78053571Y-130215295D01*
X78053571Y-130215295D02*
X78053571Y-130310533D01*
X78053571Y-130310533D02*
X78005952Y-130405771D01*
X78005952Y-130405771D02*
X77958333Y-130453390D01*
X77958333Y-130453390D02*
X77863095Y-130501009D01*
X77863095Y-130501009D02*
X77529762Y-130501009D01*
X79005952Y-131024819D02*
X78529762Y-131024819D01*
X78529762Y-131024819D02*
X78529762Y-130024819D01*
X79339286Y-131024819D02*
X79339286Y-130024819D01*
X79339286Y-130024819D02*
X79672619Y-130739104D01*
X79672619Y-130739104D02*
X80005952Y-130024819D01*
X80005952Y-130024819D02*
X80005952Y-131024819D01*
X81005952Y-131024819D02*
X80434524Y-131024819D01*
X80720238Y-131024819D02*
X80720238Y-130024819D01*
X80720238Y-130024819D02*
X80625000Y-130167676D01*
X80625000Y-130167676D02*
X80529762Y-130262914D01*
X80529762Y-130262914D02*
X80434524Y-130310533D01*
X81577381Y-130453390D02*
X81482143Y-130405771D01*
X81482143Y-130405771D02*
X81434524Y-130358152D01*
X81434524Y-130358152D02*
X81386905Y-130262914D01*
X81386905Y-130262914D02*
X81386905Y-130215295D01*
X81386905Y-130215295D02*
X81434524Y-130120057D01*
X81434524Y-130120057D02*
X81482143Y-130072438D01*
X81482143Y-130072438D02*
X81577381Y-130024819D01*
X81577381Y-130024819D02*
X81767857Y-130024819D01*
X81767857Y-130024819D02*
X81863095Y-130072438D01*
X81863095Y-130072438D02*
X81910714Y-130120057D01*
X81910714Y-130120057D02*
X81958333Y-130215295D01*
X81958333Y-130215295D02*
X81958333Y-130262914D01*
X81958333Y-130262914D02*
X81910714Y-130358152D01*
X81910714Y-130358152D02*
X81863095Y-130405771D01*
X81863095Y-130405771D02*
X81767857Y-130453390D01*
X81767857Y-130453390D02*
X81577381Y-130453390D01*
X81577381Y-130453390D02*
X81482143Y-130501009D01*
X81482143Y-130501009D02*
X81434524Y-130548628D01*
X81434524Y-130548628D02*
X81386905Y-130643866D01*
X81386905Y-130643866D02*
X81386905Y-130834342D01*
X81386905Y-130834342D02*
X81434524Y-130929580D01*
X81434524Y-130929580D02*
X81482143Y-130977200D01*
X81482143Y-130977200D02*
X81577381Y-131024819D01*
X81577381Y-131024819D02*
X81767857Y-131024819D01*
X81767857Y-131024819D02*
X81863095Y-130977200D01*
X81863095Y-130977200D02*
X81910714Y-130929580D01*
X81910714Y-130929580D02*
X81958333Y-130834342D01*
X81958333Y-130834342D02*
X81958333Y-130643866D01*
X81958333Y-130643866D02*
X81910714Y-130548628D01*
X81910714Y-130548628D02*
X81863095Y-130501009D01*
X81863095Y-130501009D02*
X81767857Y-130453390D01*
X82386905Y-131024819D02*
X82386905Y-130024819D01*
X82386905Y-130024819D02*
X82767857Y-130024819D01*
X82767857Y-130024819D02*
X82863095Y-130072438D01*
X82863095Y-130072438D02*
X82910714Y-130120057D01*
X82910714Y-130120057D02*
X82958333Y-130215295D01*
X82958333Y-130215295D02*
X82958333Y-130358152D01*
X82958333Y-130358152D02*
X82910714Y-130453390D01*
X82910714Y-130453390D02*
X82863095Y-130501009D01*
X82863095Y-130501009D02*
X82767857Y-130548628D01*
X82767857Y-130548628D02*
X82386905Y-130548628D01*
X83910714Y-130072438D02*
X83815476Y-130024819D01*
X83815476Y-130024819D02*
X83672619Y-130024819D01*
X83672619Y-130024819D02*
X83529762Y-130072438D01*
X83529762Y-130072438D02*
X83434524Y-130167676D01*
X83434524Y-130167676D02*
X83386905Y-130262914D01*
X83386905Y-130262914D02*
X83339286Y-130453390D01*
X83339286Y-130453390D02*
X83339286Y-130596247D01*
X83339286Y-130596247D02*
X83386905Y-130786723D01*
X83386905Y-130786723D02*
X83434524Y-130881961D01*
X83434524Y-130881961D02*
X83529762Y-130977200D01*
X83529762Y-130977200D02*
X83672619Y-131024819D01*
X83672619Y-131024819D02*
X83767857Y-131024819D01*
X83767857Y-131024819D02*
X83910714Y-130977200D01*
X83910714Y-130977200D02*
X83958333Y-130929580D01*
X83958333Y-130929580D02*
X83958333Y-130596247D01*
X83958333Y-130596247D02*
X83767857Y-130596247D01*
X84339286Y-130120057D02*
X84386905Y-130072438D01*
X84386905Y-130072438D02*
X84482143Y-130024819D01*
X84482143Y-130024819D02*
X84720238Y-130024819D01*
X84720238Y-130024819D02*
X84815476Y-130072438D01*
X84815476Y-130072438D02*
X84863095Y-130120057D01*
X84863095Y-130120057D02*
X84910714Y-130215295D01*
X84910714Y-130215295D02*
X84910714Y-130310533D01*
X84910714Y-130310533D02*
X84863095Y-130453390D01*
X84863095Y-130453390D02*
X84291667Y-131024819D01*
X84291667Y-131024819D02*
X84910714Y-131024819D01*
X85291667Y-130120057D02*
X85339286Y-130072438D01*
X85339286Y-130072438D02*
X85434524Y-130024819D01*
X85434524Y-130024819D02*
X85672619Y-130024819D01*
X85672619Y-130024819D02*
X85767857Y-130072438D01*
X85767857Y-130072438D02*
X85815476Y-130120057D01*
X85815476Y-130120057D02*
X85863095Y-130215295D01*
X85863095Y-130215295D02*
X85863095Y-130310533D01*
X85863095Y-130310533D02*
X85815476Y-130453390D01*
X85815476Y-130453390D02*
X85244048Y-131024819D01*
X85244048Y-131024819D02*
X85863095Y-131024819D01*
X86815476Y-131024819D02*
X86244048Y-131024819D01*
X86529762Y-131024819D02*
X86529762Y-130024819D01*
X86529762Y-130024819D02*
X86434524Y-130167676D01*
X86434524Y-130167676D02*
X86339286Y-130262914D01*
X86339286Y-130262914D02*
X86244048Y-130310533D01*
X87196429Y-130977200D02*
X87339286Y-131024819D01*
X87339286Y-131024819D02*
X87577381Y-131024819D01*
X87577381Y-131024819D02*
X87672619Y-130977200D01*
X87672619Y-130977200D02*
X87720238Y-130929580D01*
X87720238Y-130929580D02*
X87767857Y-130834342D01*
X87767857Y-130834342D02*
X87767857Y-130739104D01*
X87767857Y-130739104D02*
X87720238Y-130643866D01*
X87720238Y-130643866D02*
X87672619Y-130596247D01*
X87672619Y-130596247D02*
X87577381Y-130548628D01*
X87577381Y-130548628D02*
X87386905Y-130501009D01*
X87386905Y-130501009D02*
X87291667Y-130453390D01*
X87291667Y-130453390D02*
X87244048Y-130405771D01*
X87244048Y-130405771D02*
X87196429Y-130310533D01*
X87196429Y-130310533D02*
X87196429Y-130215295D01*
X87196429Y-130215295D02*
X87244048Y-130120057D01*
X87244048Y-130120057D02*
X87291667Y-130072438D01*
X87291667Y-130072438D02*
X87386905Y-130024819D01*
X87386905Y-130024819D02*
X87625000Y-130024819D01*
X87625000Y-130024819D02*
X87767857Y-130072438D01*
X88196429Y-131024819D02*
X88196429Y-130024819D01*
X88196429Y-130024819D02*
X88767857Y-131024819D01*
X88767857Y-131024819D02*
X88767857Y-130024819D01*
X89767857Y-131024819D02*
X89196429Y-131024819D01*
X89482143Y-131024819D02*
X89482143Y-130024819D01*
X89482143Y-130024819D02*
X89386905Y-130167676D01*
X89386905Y-130167676D02*
X89291667Y-130262914D01*
X89291667Y-130262914D02*
X89196429Y-130310533D01*
X90196429Y-131024819D02*
X90196429Y-130024819D01*
X90196429Y-130024819D02*
X90434524Y-130024819D01*
X90434524Y-130024819D02*
X90577381Y-130072438D01*
X90577381Y-130072438D02*
X90672619Y-130167676D01*
X90672619Y-130167676D02*
X90720238Y-130262914D01*
X90720238Y-130262914D02*
X90767857Y-130453390D01*
X90767857Y-130453390D02*
X90767857Y-130596247D01*
X90767857Y-130596247D02*
X90720238Y-130786723D01*
X90720238Y-130786723D02*
X90672619Y-130881961D01*
X90672619Y-130881961D02*
X90577381Y-130977200D01*
X90577381Y-130977200D02*
X90434524Y-131024819D01*
X90434524Y-131024819D02*
X90196429Y-131024819D01*
D11*
X84058333Y-132181927D02*
X83867857Y-132181927D01*
X83867857Y-132181927D02*
X83867857Y-131781927D01*
X84401190Y-132181927D02*
X84172619Y-132181927D01*
X84286905Y-132181927D02*
X84286905Y-131781927D01*
X84286905Y-131781927D02*
X84248809Y-131839070D01*
X84248809Y-131839070D02*
X84210714Y-131877165D01*
X84210714Y-131877165D02*
X84172619Y-131896213D01*
D10*
X112894642Y-117348152D02*
X112894642Y-118014819D01*
X112656547Y-116967200D02*
X112418452Y-117681485D01*
X112418452Y-117681485D02*
X113037499Y-117681485D01*
X113323214Y-117014819D02*
X113989880Y-117014819D01*
X113989880Y-117014819D02*
X113561309Y-118014819D01*
X114561309Y-117014819D02*
X114656547Y-117014819D01*
X114656547Y-117014819D02*
X114751785Y-117062438D01*
X114751785Y-117062438D02*
X114799404Y-117110057D01*
X114799404Y-117110057D02*
X114847023Y-117205295D01*
X114847023Y-117205295D02*
X114894642Y-117395771D01*
X114894642Y-117395771D02*
X114894642Y-117633866D01*
X114894642Y-117633866D02*
X114847023Y-117824342D01*
X114847023Y-117824342D02*
X114799404Y-117919580D01*
X114799404Y-117919580D02*
X114751785Y-117967200D01*
X114751785Y-117967200D02*
X114656547Y-118014819D01*
X114656547Y-118014819D02*
X114561309Y-118014819D01*
X114561309Y-118014819D02*
X114466071Y-117967200D01*
X114466071Y-117967200D02*
X114418452Y-117919580D01*
X114418452Y-117919580D02*
X114370833Y-117824342D01*
X114370833Y-117824342D02*
X114323214Y-117633866D01*
X114323214Y-117633866D02*
X114323214Y-117395771D01*
X114323214Y-117395771D02*
X114370833Y-117205295D01*
X114370833Y-117205295D02*
X114418452Y-117110057D01*
X114418452Y-117110057D02*
X114466071Y-117062438D01*
X114466071Y-117062438D02*
X114561309Y-117014819D01*
X115323214Y-117348152D02*
X115323214Y-118348152D01*
X115323214Y-117395771D02*
X115418452Y-117348152D01*
X115418452Y-117348152D02*
X115608928Y-117348152D01*
X115608928Y-117348152D02*
X115704166Y-117395771D01*
X115704166Y-117395771D02*
X115751785Y-117443390D01*
X115751785Y-117443390D02*
X115799404Y-117538628D01*
X115799404Y-117538628D02*
X115799404Y-117824342D01*
X115799404Y-117824342D02*
X115751785Y-117919580D01*
X115751785Y-117919580D02*
X115704166Y-117967200D01*
X115704166Y-117967200D02*
X115608928Y-118014819D01*
X115608928Y-118014819D02*
X115418452Y-118014819D01*
X115418452Y-118014819D02*
X115323214Y-117967200D01*
X116561309Y-117491009D02*
X116227976Y-117491009D01*
X116227976Y-118014819D02*
X116227976Y-117014819D01*
X116227976Y-117014819D02*
X116704166Y-117014819D01*
D11*
X114492857Y-119643832D02*
X114473809Y-119662880D01*
X114473809Y-119662880D02*
X114416667Y-119681927D01*
X114416667Y-119681927D02*
X114378571Y-119681927D01*
X114378571Y-119681927D02*
X114321428Y-119662880D01*
X114321428Y-119662880D02*
X114283333Y-119624784D01*
X114283333Y-119624784D02*
X114264286Y-119586689D01*
X114264286Y-119586689D02*
X114245238Y-119510499D01*
X114245238Y-119510499D02*
X114245238Y-119453356D01*
X114245238Y-119453356D02*
X114264286Y-119377165D01*
X114264286Y-119377165D02*
X114283333Y-119339070D01*
X114283333Y-119339070D02*
X114321428Y-119300975D01*
X114321428Y-119300975D02*
X114378571Y-119281927D01*
X114378571Y-119281927D02*
X114416667Y-119281927D01*
X114416667Y-119281927D02*
X114473809Y-119300975D01*
X114473809Y-119300975D02*
X114492857Y-119320022D01*
X114873809Y-119681927D02*
X114645238Y-119681927D01*
X114759524Y-119681927D02*
X114759524Y-119281927D01*
X114759524Y-119281927D02*
X114721428Y-119339070D01*
X114721428Y-119339070D02*
X114683333Y-119377165D01*
X114683333Y-119377165D02*
X114645238Y-119396213D01*
X115216666Y-119415260D02*
X115216666Y-119681927D01*
X115121428Y-119262880D02*
X115026190Y-119548594D01*
X115026190Y-119548594D02*
X115273809Y-119548594D01*
D13*
%TO.C,C1*%
X110450000Y-156350000D02*
X112050000Y-156350000D01*
X110450000Y-157150000D02*
X110450000Y-156350000D01*
X112050000Y-156350000D02*
X112050000Y-157150000D01*
X112050000Y-157150000D02*
X110450000Y-157150000D01*
%TO.C,C7*%
X110450000Y-142600000D02*
X112050000Y-142600000D01*
X110450000Y-143400000D02*
X110450000Y-142600000D01*
X112050000Y-142600000D02*
X112050000Y-143400000D01*
X112050000Y-143400000D02*
X110450000Y-143400000D01*
%TO.C,CON1*%
X146369000Y-131095000D02*
X146369000Y-119095000D01*
X159469000Y-131095000D02*
X146369000Y-131095000D01*
X160369000Y-119095000D02*
X146369000Y-119095000D01*
X160369000Y-130195000D02*
X159469000Y-131095000D01*
X160369000Y-130195000D02*
X160369000Y-119095000D01*
%TO.C,JP1*%
X61190000Y-142190000D02*
X66270000Y-142190000D01*
X61190000Y-157430000D02*
X61190000Y-142190000D01*
X65000000Y-157430000D02*
X61190000Y-157430000D01*
X66270000Y-142190000D02*
X66270000Y-156160000D01*
X66270000Y-156160000D02*
X65000000Y-157430000D01*
%TO.C,P1*%
X60730000Y-161730000D02*
X159790000Y-161730000D01*
X60730000Y-163635000D02*
X60730000Y-161730000D01*
X61365000Y-164270000D02*
X60730000Y-163635000D01*
X159790000Y-161730000D02*
X159790000Y-164270000D01*
X159790000Y-164270000D02*
X61365000Y-164270000D01*
%TO.C,U1*%
X92995000Y-155600000D02*
X81195000Y-155600000D01*
X80195000Y-154600000D01*
X80195000Y-148100000D01*
X92995000Y-148100000D01*
X92995000Y-155600000D01*
%TO.C,C11*%
X125600000Y-127700000D02*
X126400000Y-127700000D01*
X125600000Y-129300000D02*
X125600000Y-127700000D01*
X126400000Y-127700000D02*
X126400000Y-129300000D01*
X126400000Y-129300000D02*
X125600000Y-129300000D01*
%TO.C,C8*%
X116100000Y-130562500D02*
X116900000Y-130562500D01*
X116100000Y-132162500D02*
X116100000Y-130562500D01*
X116900000Y-130562500D02*
X116900000Y-132162500D01*
X116900000Y-132162500D02*
X116100000Y-132162500D01*
%TO.C,C12*%
X118850000Y-130562500D02*
X119650000Y-130562500D01*
X118850000Y-132162500D02*
X118850000Y-130562500D01*
X119650000Y-130562500D02*
X119650000Y-132162500D01*
X119650000Y-132162500D02*
X118850000Y-132162500D01*
%TO.C,U2*%
X129200000Y-155750000D02*
X114800000Y-155750000D01*
X113800000Y-154750000D01*
X113800000Y-148250000D01*
X129200000Y-148250000D01*
X129200000Y-155750000D01*
%TO.C,C6*%
X79200000Y-144600000D02*
X80800000Y-144600000D01*
X79200000Y-145400000D02*
X79200000Y-144600000D01*
X80800000Y-144600000D02*
X80800000Y-145400000D01*
X80800000Y-145400000D02*
X79200000Y-145400000D01*
%TO.C,Y1*%
X106540000Y-149290000D02*
X100540000Y-149290000D01*
X99540000Y-148290000D01*
X99540000Y-144210000D01*
X106540000Y-144210000D01*
X106540000Y-149290000D01*
%TO.C,L2*%
X97200000Y-136600000D02*
X98800000Y-136600000D01*
X97200000Y-137400000D02*
X97200000Y-136600000D01*
X98800000Y-136600000D02*
X98800000Y-137400000D01*
X98800000Y-137400000D02*
X97200000Y-137400000D01*
%TO.C,U3*%
X124150000Y-142275000D02*
X114850000Y-142275000D01*
X113850000Y-141275000D01*
X113850000Y-137725000D01*
X124150000Y-137725000D01*
X124150000Y-142275000D01*
%TO.C,C2*%
X80700000Y-136600000D02*
X82300000Y-136600000D01*
X80700000Y-137400000D02*
X80700000Y-136600000D01*
X82300000Y-136600000D02*
X82300000Y-137400000D01*
X82300000Y-137400000D02*
X80700000Y-137400000D01*
%TO.C,R6*%
X73512500Y-155607500D02*
X75112500Y-155607500D01*
X73512500Y-156432500D02*
X73512500Y-155607500D01*
X75112500Y-155607500D02*
X75112500Y-156432500D01*
X75112500Y-156432500D02*
X73512500Y-156432500D01*
%TO.C,C13*%
X124600000Y-117700000D02*
X125400000Y-117700000D01*
X124600000Y-119300000D02*
X124600000Y-117700000D01*
X125400000Y-117700000D02*
X125400000Y-119300000D01*
X125400000Y-119300000D02*
X124600000Y-119300000D01*
%TO.C,R10*%
X136587500Y-120450000D02*
X137412500Y-120450000D01*
X136587500Y-122050000D02*
X136587500Y-120450000D01*
X137412500Y-120450000D02*
X137412500Y-122050000D01*
X137412500Y-122050000D02*
X136587500Y-122050000D01*
%TO.C,C9*%
X120100000Y-117700000D02*
X120900000Y-117700000D01*
X120100000Y-119300000D02*
X120100000Y-117700000D01*
X120900000Y-117700000D02*
X120900000Y-119300000D01*
X120900000Y-119300000D02*
X120100000Y-119300000D01*
%TO.C,R5*%
X73512500Y-153097500D02*
X75112500Y-153097500D01*
X73512500Y-153922500D02*
X73512500Y-153097500D01*
X75112500Y-153097500D02*
X75112500Y-153922500D01*
X75112500Y-153922500D02*
X73512500Y-153922500D01*
%TO.C,R9*%
X114037500Y-117087500D02*
X115637500Y-117087500D01*
X114037500Y-117912500D02*
X114037500Y-117087500D01*
X115637500Y-117087500D02*
X115637500Y-117912500D01*
X115637500Y-117912500D02*
X114037500Y-117912500D01*
%TO.C,C17*%
X141850000Y-120200000D02*
X142650000Y-120200000D01*
X141850000Y-121800000D02*
X141850000Y-120200000D01*
X142650000Y-120200000D02*
X142650000Y-121800000D01*
X142650000Y-121800000D02*
X141850000Y-121800000D01*
%TO.C,R7*%
X121837500Y-130612500D02*
X122662500Y-130612500D01*
X121837500Y-132212500D02*
X121837500Y-130612500D01*
X122662500Y-130612500D02*
X122662500Y-132212500D01*
X122662500Y-132212500D02*
X121837500Y-132212500D01*
%TO.C,R8*%
X122337500Y-117700000D02*
X123162500Y-117700000D01*
X122337500Y-119300000D02*
X122337500Y-117700000D01*
X123162500Y-117700000D02*
X123162500Y-119300000D01*
X123162500Y-119300000D02*
X122337500Y-119300000D01*
%TO.C,R3*%
X73512500Y-148077500D02*
X75112500Y-148077500D01*
X73512500Y-148902500D02*
X73512500Y-148077500D01*
X75112500Y-148077500D02*
X75112500Y-148902500D01*
X75112500Y-148902500D02*
X73512500Y-148902500D01*
%TO.C,R1*%
X73337500Y-143057500D02*
X74937500Y-143057500D01*
X73337500Y-143882500D02*
X73337500Y-143057500D01*
X74937500Y-143057500D02*
X74937500Y-143882500D01*
X74937500Y-143882500D02*
X73337500Y-143882500D01*
%TO.C,C10*%
X117350000Y-117700000D02*
X118150000Y-117700000D01*
X117350000Y-119300000D02*
X117350000Y-117700000D01*
X118150000Y-117700000D02*
X118150000Y-119300000D01*
X118150000Y-119300000D02*
X117350000Y-119300000D01*
%TO.C,R2*%
X73337500Y-145647500D02*
X74937500Y-145647500D01*
X73337500Y-146472500D02*
X73337500Y-145647500D01*
X74937500Y-145647500D02*
X74937500Y-146472500D01*
X74937500Y-146472500D02*
X73337500Y-146472500D01*
%TO.C,U4*%
X123462500Y-127450000D02*
X115787500Y-127450000D01*
X114812500Y-126475000D01*
X114812500Y-123550000D01*
X123462500Y-123550000D01*
X123462500Y-127450000D01*
%TO.C,C16*%
X131564600Y-116087500D02*
X132364600Y-116087500D01*
X131564600Y-117687500D02*
X131564600Y-116087500D01*
X132364600Y-116087500D02*
X132364600Y-117687500D01*
X132364600Y-117687500D02*
X131564600Y-117687500D01*
%TO.C,C4*%
X90900000Y-136200000D02*
X94100000Y-136200000D01*
X90900000Y-137800000D02*
X90900000Y-136200000D01*
X94100000Y-136200000D02*
X94100000Y-137800000D01*
X94100000Y-137800000D02*
X90900000Y-137800000D01*
%TO.C,R4*%
X73512500Y-150587500D02*
X75112500Y-150587500D01*
X73512500Y-151412500D02*
X73512500Y-150587500D01*
X75112500Y-150587500D02*
X75112500Y-151412500D01*
X75112500Y-151412500D02*
X73512500Y-151412500D01*
%TO.C,C5*%
X101400000Y-135700000D02*
X104600000Y-135700000D01*
X101400000Y-137300000D02*
X101400000Y-135700000D01*
X104600000Y-135700000D02*
X104600000Y-137300000D01*
X104600000Y-137300000D02*
X101400000Y-137300000D01*
%TO.C,C18*%
X141839600Y-116087500D02*
X142639600Y-116087500D01*
X141839600Y-117687500D02*
X141839600Y-116087500D01*
X142639600Y-116087500D02*
X142639600Y-117687500D01*
X142639600Y-117687500D02*
X141839600Y-117687500D01*
%TO.C,C15*%
X131600000Y-120200000D02*
X132400000Y-120200000D01*
X131600000Y-121800000D02*
X131600000Y-120200000D01*
X132400000Y-120200000D02*
X132400000Y-121800000D01*
X132400000Y-121800000D02*
X131600000Y-121800000D01*
%TO.C,R11*%
X136602100Y-116087500D02*
X137427100Y-116087500D01*
X136602100Y-117687500D02*
X136602100Y-116087500D01*
X137427100Y-116087500D02*
X137427100Y-117687500D01*
X137427100Y-117687500D02*
X136602100Y-117687500D01*
%TO.C,C19*%
X100450000Y-141850000D02*
X102050000Y-141850000D01*
X100450000Y-142650000D02*
X100450000Y-141850000D01*
X102050000Y-141850000D02*
X102050000Y-142650000D01*
X102050000Y-142650000D02*
X100450000Y-142650000D01*
%TO.C,C3*%
X86200000Y-136600000D02*
X87800000Y-136600000D01*
X86200000Y-137400000D02*
X86200000Y-136600000D01*
X87800000Y-136600000D02*
X87800000Y-137400000D01*
X87800000Y-137400000D02*
X86200000Y-137400000D01*
%TO.C,L1*%
X83325000Y-131600000D02*
X84925000Y-131600000D01*
X83325000Y-132400000D02*
X83325000Y-131600000D01*
X84925000Y-131600000D02*
X84925000Y-132400000D01*
X84925000Y-132400000D02*
X83325000Y-132400000D01*
%TO.C,C14*%
X113950000Y-119100000D02*
X115550000Y-119100000D01*
X113950000Y-119900000D02*
X113950000Y-119100000D01*
X115550000Y-119100000D02*
X115550000Y-119900000D01*
X115550000Y-119900000D02*
X113950000Y-119900000D01*
%TD*%
M02*
