%TF.GenerationSoftware,KiCad,Pcbnew,9.0.1+1*%
%TF.CreationDate,2025-09-01T23:04:51+00:00*%
%TF.ProjectId,rcbus-ymf262,72636275-732d-4796-9d66-3236322e6b69,@version@*%
%TF.SameCoordinates,Original*%
%TF.FileFunction,Legend,Bot*%
%TF.FilePolarity,Positive*%
%FSLAX46Y46*%
G04 Gerber Fmt 4.6, Leading zero omitted, Abs format (unit mm)*
G04 Created by KiCad (PCBNEW 9.0.1+1) date 2025-09-01 23:04:51*
%MOMM*%
%LPD*%
G01*
G04 APERTURE LIST*
%ADD10C,0.300000*%
G04 APERTURE END LIST*
D10*
G36*
X149791165Y-159499054D02*
G01*
X149877617Y-159512967D01*
X149948093Y-159534214D01*
X150013125Y-159566626D01*
X150064267Y-159607145D01*
X150103523Y-159656031D01*
X150131163Y-159712577D01*
X150148722Y-159780605D01*
X150154998Y-159862660D01*
X150150716Y-159925907D01*
X150137962Y-159986949D01*
X150115355Y-160044714D01*
X150081267Y-160098690D01*
X150035922Y-160145358D01*
X149975021Y-160185702D01*
X150030934Y-160203863D01*
X150075873Y-160229681D01*
X150111675Y-160263005D01*
X150138453Y-160303594D01*
X150154794Y-160350446D01*
X150160493Y-160405245D01*
X150150573Y-160470141D01*
X150121018Y-160527546D01*
X150069268Y-160579818D01*
X150044437Y-160593819D01*
X150107174Y-160628642D01*
X150166263Y-160684323D01*
X150195043Y-160729132D01*
X150212509Y-160779968D01*
X150218562Y-160838471D01*
X150218562Y-160872360D01*
X150212914Y-160928905D01*
X150196686Y-160977709D01*
X150170110Y-161020371D01*
X150113921Y-161072921D01*
X150037853Y-161112329D01*
X149950701Y-161135432D01*
X149848992Y-161143561D01*
X149510471Y-161143561D01*
X149398963Y-161136409D01*
X149310437Y-161116867D01*
X149240602Y-161087086D01*
X149185964Y-161048123D01*
X149140748Y-160997091D01*
X149108177Y-160937524D01*
X149087882Y-160867730D01*
X149080726Y-160785348D01*
X149080726Y-160769686D01*
X149375741Y-160769686D01*
X149375741Y-160802201D01*
X149381205Y-160840791D01*
X149396633Y-160870897D01*
X149422361Y-160894617D01*
X149474174Y-160917007D01*
X149547291Y-160925391D01*
X149761431Y-160925391D01*
X149834238Y-160916636D01*
X149881965Y-160893884D01*
X149904772Y-160870141D01*
X149918680Y-160840069D01*
X149923638Y-160801652D01*
X149923638Y-160777105D01*
X149918376Y-160737924D01*
X149903580Y-160707313D01*
X149879906Y-160682974D01*
X149847618Y-160664815D01*
X149810106Y-160654199D01*
X149765369Y-160650435D01*
X149538864Y-160650435D01*
X149484365Y-160654404D01*
X149445899Y-160664723D01*
X149414252Y-160682573D01*
X149393051Y-160705298D01*
X149380286Y-160733695D01*
X149375741Y-160769686D01*
X149080726Y-160769686D01*
X149080726Y-160755673D01*
X149086771Y-160675169D01*
X149103440Y-160610515D01*
X149129269Y-160558661D01*
X149165895Y-160513933D01*
X149211880Y-160478019D01*
X149268671Y-160450491D01*
X149364948Y-160425913D01*
X149488215Y-160416878D01*
X149800723Y-160416878D01*
X149836427Y-160413423D01*
X149867951Y-160403414D01*
X149890457Y-160384469D01*
X149898268Y-160353039D01*
X149889140Y-160316033D01*
X149862639Y-160292772D01*
X149823951Y-160280245D01*
X149771323Y-160275553D01*
X149571288Y-160275553D01*
X149473004Y-160269746D01*
X149395259Y-160253945D01*
X149334250Y-160230032D01*
X149279103Y-160195097D01*
X149236503Y-160154135D01*
X149204832Y-160106750D01*
X149174743Y-160025175D01*
X149164349Y-159931262D01*
X149166706Y-159888306D01*
X149445075Y-159888306D01*
X149448622Y-159932466D01*
X149458539Y-159968906D01*
X149477195Y-159999419D01*
X149507174Y-160022761D01*
X149546418Y-160036571D01*
X149606184Y-160041995D01*
X149725619Y-160041995D01*
X149773798Y-160037189D01*
X149810038Y-160024150D01*
X149837176Y-160003893D01*
X149856560Y-159976012D01*
X149869422Y-159936868D01*
X149874271Y-159882718D01*
X149869001Y-159826938D01*
X149855239Y-159788344D01*
X149834704Y-159762276D01*
X149788355Y-159737198D01*
X149716002Y-159727563D01*
X149598857Y-159727563D01*
X149550909Y-159731708D01*
X149514226Y-159742950D01*
X149484291Y-159763158D01*
X149462477Y-159793875D01*
X149449888Y-159832865D01*
X149445075Y-159888306D01*
X149166706Y-159888306D01*
X149167884Y-159866829D01*
X149177171Y-159819521D01*
X149192142Y-159777546D01*
X149209045Y-159745881D01*
X149247880Y-159696789D01*
X149075139Y-159665739D01*
X149075139Y-159494006D01*
X149685776Y-159494006D01*
X149791165Y-159499054D01*
G37*
G36*
X148880783Y-159329142D02*
G01*
X148905682Y-159324135D01*
X148919343Y-159310823D01*
X148924380Y-159287102D01*
X148924380Y-159081663D01*
X148919190Y-159055880D01*
X148905388Y-159041728D01*
X148880783Y-159036509D01*
X148641089Y-159036509D01*
X148622995Y-159039892D01*
X148611047Y-159049240D01*
X148601155Y-159081663D01*
X148601155Y-159287102D01*
X148605941Y-159311171D01*
X148618613Y-159324316D01*
X148641089Y-159329142D01*
X148880783Y-159329142D01*
G37*
G36*
X148918518Y-160622500D02*
G01*
X148918518Y-159495105D01*
X148607017Y-159495105D01*
X148607017Y-160622500D01*
X148918518Y-160622500D01*
G37*
G36*
X147939043Y-160622500D02*
G01*
X148025460Y-160617719D01*
X148094843Y-160604639D01*
X148150161Y-160584764D01*
X148198873Y-160554208D01*
X148237436Y-160512843D01*
X148266756Y-160459009D01*
X148284994Y-160399082D01*
X148296481Y-160321295D01*
X148299271Y-160221605D01*
X148288921Y-159744050D01*
X148464959Y-159744050D01*
X148464959Y-159544564D01*
X148277747Y-159495105D01*
X148236439Y-159179116D01*
X147990884Y-159179116D01*
X147990884Y-159495105D01*
X147724812Y-159495105D01*
X147724812Y-159744050D01*
X147990884Y-159744050D01*
X147990884Y-160220048D01*
X147982183Y-160294970D01*
X147971267Y-160322278D01*
X147957545Y-160342139D01*
X147921000Y-160367968D01*
X147878044Y-160378226D01*
X147735986Y-160392331D01*
X147735986Y-160622500D01*
X147939043Y-160622500D01*
G37*
G36*
X147552712Y-160622500D02*
G01*
X147552712Y-159021762D01*
X147241211Y-159021762D01*
X147241211Y-159609960D01*
X147174750Y-159563743D01*
X147082941Y-159518003D01*
X146983329Y-159486567D01*
X146882815Y-159476237D01*
X146798544Y-159482558D01*
X146731668Y-159499896D01*
X146678750Y-159526612D01*
X146633067Y-159564391D01*
X146596697Y-159610894D01*
X146569116Y-159667388D01*
X146544284Y-159762014D01*
X146535410Y-159876215D01*
X146535410Y-160622500D01*
X146846820Y-160622500D01*
X146846820Y-159916149D01*
X146852381Y-159865791D01*
X146867702Y-159827031D01*
X146892392Y-159795639D01*
X146924397Y-159773542D01*
X146962231Y-159760461D01*
X147007196Y-159755865D01*
X147093017Y-159767039D01*
X147170777Y-159796806D01*
X147241211Y-159839030D01*
X147241211Y-160622500D01*
X147552712Y-160622500D01*
G37*
G36*
X145984215Y-160635139D02*
G01*
X146059541Y-160628964D01*
X146122881Y-160611541D01*
X146176427Y-160583798D01*
X146221802Y-160545655D01*
X146267607Y-160480991D01*
X146296641Y-160398554D01*
X146307165Y-160293230D01*
X146307165Y-159495105D01*
X145995756Y-159495105D01*
X145995756Y-160199532D01*
X145989719Y-160261214D01*
X145974265Y-160301720D01*
X145951517Y-160327301D01*
X145901919Y-160351212D01*
X145831899Y-160360091D01*
X145773826Y-160354707D01*
X145711640Y-160337834D01*
X145652248Y-160311539D01*
X145601273Y-160278667D01*
X145601273Y-159495105D01*
X145289863Y-159495105D01*
X145289863Y-160622500D01*
X145546501Y-160622500D01*
X145601273Y-160507644D01*
X145681560Y-160553706D01*
X145776212Y-160596213D01*
X145876947Y-160625323D01*
X145984215Y-160635139D01*
G37*
G36*
X145055573Y-160622500D02*
G01*
X144794630Y-160622500D01*
X144744072Y-160515063D01*
X144654404Y-160574414D01*
X144605112Y-160598822D01*
X144548708Y-160618469D01*
X144487950Y-160630757D01*
X144415993Y-160635139D01*
X144329763Y-160627650D01*
X144258263Y-160606605D01*
X144198647Y-160573132D01*
X144148409Y-160526648D01*
X144106243Y-160465070D01*
X144072343Y-160385370D01*
X144050647Y-160300467D01*
X144036392Y-160196517D01*
X144031219Y-160070205D01*
X144031779Y-160054818D01*
X144342628Y-160054818D01*
X144349710Y-160174116D01*
X144367450Y-160252472D01*
X144398305Y-160315654D01*
X144434586Y-160352672D01*
X144479750Y-160374226D01*
X144532680Y-160381615D01*
X144598824Y-160377027D01*
X144652939Y-160364304D01*
X144744072Y-160326386D01*
X144744072Y-159791219D01*
X144648817Y-159747896D01*
X144593179Y-159733350D01*
X144532680Y-159728387D01*
X144483902Y-159733817D01*
X144438982Y-159749911D01*
X144401715Y-159780796D01*
X144369098Y-159840312D01*
X144350479Y-159918962D01*
X144342628Y-160054818D01*
X144031779Y-160054818D01*
X144036374Y-159928504D01*
X144050323Y-159816280D01*
X144071061Y-159728662D01*
X144104663Y-159646543D01*
X144147268Y-159584279D01*
X144198647Y-159538336D01*
X144259934Y-159506103D01*
X144336259Y-159485386D01*
X144431288Y-159477886D01*
X144508247Y-159485005D01*
X144592764Y-159507561D01*
X144674837Y-159539601D01*
X144744072Y-159573324D01*
X144744072Y-159020205D01*
X145055573Y-159020205D01*
X145055573Y-160622500D01*
G37*
G36*
X143790151Y-160625614D02*
G01*
X143815042Y-160620600D01*
X143828707Y-160607263D01*
X143833748Y-160583482D01*
X143833748Y-160368792D01*
X143828559Y-160343009D01*
X143814756Y-160328857D01*
X143790151Y-160323638D01*
X143610449Y-160323638D01*
X143584755Y-160328939D01*
X143570507Y-160343167D01*
X143565203Y-160368792D01*
X143565203Y-160583482D01*
X143568731Y-160604213D01*
X143577935Y-160616271D01*
X143610449Y-160625614D01*
X143790151Y-160625614D01*
G37*
G36*
X142896955Y-160635139D02*
G01*
X142997013Y-160628137D01*
X143086457Y-160607937D01*
X143167618Y-160571421D01*
X143236849Y-160516712D01*
X143274457Y-160471003D01*
X143307345Y-160413424D01*
X143335127Y-160341864D01*
X143360371Y-160223621D01*
X143369931Y-160063886D01*
X143361037Y-159898753D01*
X143337691Y-159777572D01*
X143311531Y-159703948D01*
X143280165Y-159644998D01*
X143244085Y-159598420D01*
X143200229Y-159559209D01*
X143150005Y-159528399D01*
X143092502Y-159505730D01*
X142998684Y-159485599D01*
X142887796Y-159478435D01*
X142787241Y-159481393D01*
X142692066Y-159490068D01*
X142597137Y-159505441D01*
X142495053Y-159529452D01*
X142495053Y-159708970D01*
X142790984Y-159708970D01*
X142882510Y-159716904D01*
X142946780Y-159737638D01*
X142981308Y-159761112D01*
X143009631Y-159795253D01*
X143031960Y-159842418D01*
X143050771Y-159926991D01*
X143058430Y-160061504D01*
X143050700Y-160194615D01*
X143031869Y-160276652D01*
X143009501Y-160321632D01*
X142981108Y-160353613D01*
X142946323Y-160374929D01*
X142881807Y-160393001D01*
X142787962Y-160400025D01*
X142479758Y-160400025D01*
X142479758Y-160576429D01*
X142600658Y-160606288D01*
X142747112Y-160627629D01*
X142896955Y-160635139D01*
G37*
G36*
X141956195Y-159484886D02*
G01*
X142060179Y-159503806D01*
X142123410Y-159525957D01*
X142176609Y-159556080D01*
X142221196Y-159594115D01*
X142257488Y-159640201D01*
X142288004Y-159698385D01*
X142312238Y-159770977D01*
X142333160Y-159890931D01*
X142341180Y-160056192D01*
X142333470Y-160213260D01*
X142313062Y-160331057D01*
X142289401Y-160402828D01*
X142259153Y-160461454D01*
X142222753Y-160508927D01*
X142178094Y-160548560D01*
X142124867Y-160580465D01*
X142061736Y-160604639D01*
X141957432Y-160625761D01*
X141823508Y-160633582D01*
X141686647Y-160626131D01*
X141581890Y-160606196D01*
X141518531Y-160582994D01*
X141465528Y-160552075D01*
X141421423Y-160513506D01*
X141385556Y-160467005D01*
X141355682Y-160408729D01*
X141332305Y-160336461D01*
X141312269Y-160217415D01*
X141304644Y-160056192D01*
X141304721Y-160054635D01*
X141616054Y-160054635D01*
X141619521Y-160159952D01*
X141628327Y-160232047D01*
X141644926Y-160293443D01*
X141665421Y-160331515D01*
X141693871Y-160358702D01*
X141729260Y-160374471D01*
X141770376Y-160381880D01*
X141823508Y-160384637D01*
X141876455Y-160381879D01*
X141917388Y-160374471D01*
X141952545Y-160358720D01*
X141980953Y-160331515D01*
X142001341Y-160293449D01*
X142017772Y-160232047D01*
X142026315Y-160159949D01*
X142029679Y-160054635D01*
X142026301Y-159949050D01*
X142017772Y-159877773D01*
X142001361Y-159817313D01*
X141980953Y-159779678D01*
X141952567Y-159752694D01*
X141917388Y-159736997D01*
X141876455Y-159729589D01*
X141823508Y-159726830D01*
X141770376Y-159729588D01*
X141729260Y-159736997D01*
X141693850Y-159752712D01*
X141665421Y-159779678D01*
X141644906Y-159817319D01*
X141628327Y-159877773D01*
X141619536Y-159949047D01*
X141616054Y-160054635D01*
X141304721Y-160054635D01*
X141312704Y-159893685D01*
X141333862Y-159774091D01*
X141358193Y-159701431D01*
X141388560Y-159643251D01*
X141424445Y-159597229D01*
X141468503Y-159559111D01*
X141521532Y-159528457D01*
X141585004Y-159505363D01*
X141689409Y-159485318D01*
X141823508Y-159477886D01*
X141956195Y-159484886D01*
G37*
G36*
X141100305Y-160622500D02*
G01*
X141100305Y-159495105D01*
X140843575Y-159495105D01*
X140788803Y-159609960D01*
X140711862Y-159559238D01*
X140627511Y-159515713D01*
X140567959Y-159494636D01*
X140496829Y-159481089D01*
X140411998Y-159476237D01*
X140342803Y-159481620D01*
X140284792Y-159496764D01*
X140235960Y-159520751D01*
X140173452Y-159571833D01*
X140128523Y-159634598D01*
X140017607Y-159562241D01*
X139951594Y-159528799D01*
X139879854Y-159500967D01*
X139805830Y-159482297D01*
X139734315Y-159476237D01*
X139644880Y-159482725D01*
X139574729Y-159500408D01*
X139519992Y-159527437D01*
X139473020Y-159565996D01*
X139436344Y-159613702D01*
X139409350Y-159671967D01*
X139385687Y-159770132D01*
X139377110Y-159891603D01*
X139377110Y-160622500D01*
X139688520Y-160622500D01*
X139688520Y-159919172D01*
X139693914Y-159867465D01*
X139708578Y-159828588D01*
X139732578Y-159797035D01*
X139764082Y-159774366D01*
X139801960Y-159760756D01*
X139849537Y-159755865D01*
X139912018Y-159762119D01*
X139976940Y-159781510D01*
X140038734Y-159810380D01*
X140091978Y-159844067D01*
X140085292Y-159884184D01*
X140083003Y-159925400D01*
X140083003Y-160622500D01*
X140394412Y-160622500D01*
X140394412Y-159919172D01*
X140399806Y-159867465D01*
X140414471Y-159828588D01*
X140438422Y-159797014D01*
X140469700Y-159774366D01*
X140507329Y-159760762D01*
X140554788Y-159755865D01*
X140640884Y-159766215D01*
X140718095Y-159795249D01*
X140788803Y-159839030D01*
X140788803Y-160622500D01*
X141100305Y-160622500D01*
G37*
G36*
X139232122Y-160773716D02*
G01*
X138642000Y-159005459D01*
X138325736Y-159005459D01*
X138915858Y-160773716D01*
X139232122Y-160773716D01*
G37*
G36*
X137983051Y-159484429D02*
G01*
X138079837Y-159502061D01*
X138154186Y-159528353D01*
X138218914Y-159569621D01*
X138270433Y-159627393D01*
X138309708Y-159704665D01*
X138333775Y-159790195D01*
X138350348Y-159906070D01*
X138356603Y-160059672D01*
X138350049Y-160209229D01*
X138332595Y-160323172D01*
X138307052Y-160408360D01*
X138266030Y-160484943D01*
X138212640Y-160542425D01*
X138145760Y-160583573D01*
X138069505Y-160609722D01*
X137971713Y-160627151D01*
X137847631Y-160633582D01*
X137718245Y-160629278D01*
X137615906Y-160617645D01*
X137435471Y-160584123D01*
X137435471Y-160401582D01*
X137765107Y-160401582D01*
X137873016Y-160395136D01*
X137939588Y-160379417D01*
X137990406Y-160349293D01*
X138021288Y-160305869D01*
X138038358Y-160249800D01*
X138048124Y-160169124D01*
X137763092Y-160169124D01*
X137656045Y-160161674D01*
X137570110Y-160141188D01*
X137518973Y-160117803D01*
X137477304Y-160086547D01*
X137443806Y-160047033D01*
X137420144Y-160000810D01*
X137404742Y-159941911D01*
X137399227Y-159868705D01*
X137673700Y-159868705D01*
X137682095Y-159926182D01*
X137703100Y-159958098D01*
X137737838Y-159976074D01*
X137795332Y-159983194D01*
X138051238Y-159983194D01*
X138045916Y-159878482D01*
X138032737Y-159811094D01*
X138007179Y-159757736D01*
X137971920Y-159726098D01*
X137925169Y-159708839D01*
X137858622Y-159702284D01*
X137795458Y-159706680D01*
X137751369Y-159718038D01*
X137716084Y-159739192D01*
X137692293Y-159770336D01*
X137678869Y-159810489D01*
X137673700Y-159868705D01*
X137399227Y-159868705D01*
X137399110Y-159867148D01*
X137405021Y-159765146D01*
X137420828Y-159687481D01*
X137444264Y-159629194D01*
X137480028Y-159578991D01*
X137527843Y-159539901D01*
X137589894Y-159511225D01*
X137699124Y-159487276D01*
X137858622Y-159477886D01*
X137983051Y-159484429D01*
G37*
G36*
X136842511Y-160627079D02*
G01*
X136921302Y-160622278D01*
X136986499Y-160608934D01*
X137040347Y-160588244D01*
X137088349Y-160557594D01*
X137127176Y-160517903D01*
X137157675Y-160468077D01*
X137178100Y-160412534D01*
X137191464Y-160343548D01*
X137196327Y-160258333D01*
X137196327Y-159020205D01*
X136884826Y-159020205D01*
X136884826Y-160212355D01*
X136881117Y-160272455D01*
X136871728Y-160312830D01*
X136854798Y-160345540D01*
X136832527Y-160366686D01*
X136804188Y-160380646D01*
X136767955Y-160389950D01*
X136681219Y-160401582D01*
X136681219Y-160627079D01*
X136842511Y-160627079D01*
G37*
G36*
X136199589Y-159484429D02*
G01*
X136296376Y-159502061D01*
X136370725Y-159528353D01*
X136435453Y-159569621D01*
X136486971Y-159627393D01*
X136526247Y-159704665D01*
X136550314Y-159790195D01*
X136566887Y-159906070D01*
X136573141Y-160059672D01*
X136566587Y-160209229D01*
X136549134Y-160323172D01*
X136523590Y-160408360D01*
X136482569Y-160484943D01*
X136429179Y-160542425D01*
X136362299Y-160583573D01*
X136286044Y-160609722D01*
X136188252Y-160627151D01*
X136064170Y-160633582D01*
X135934783Y-160629278D01*
X135832444Y-160617645D01*
X135652010Y-160584123D01*
X135652010Y-160401582D01*
X135981646Y-160401582D01*
X136089554Y-160395136D01*
X136156127Y-160379417D01*
X136206944Y-160349293D01*
X136237826Y-160305869D01*
X136254897Y-160249800D01*
X136264663Y-160169124D01*
X135979631Y-160169124D01*
X135872584Y-160161674D01*
X135786649Y-160141188D01*
X135735512Y-160117803D01*
X135693843Y-160086547D01*
X135660345Y-160047033D01*
X135636683Y-160000810D01*
X135621281Y-159941911D01*
X135615765Y-159868705D01*
X135890238Y-159868705D01*
X135898633Y-159926182D01*
X135919639Y-159958098D01*
X135954377Y-159976074D01*
X136011871Y-159983194D01*
X136267777Y-159983194D01*
X136262455Y-159878482D01*
X136249275Y-159811094D01*
X136223718Y-159757736D01*
X136188459Y-159726098D01*
X136141708Y-159708839D01*
X136075161Y-159702284D01*
X136011997Y-159706680D01*
X135967907Y-159718038D01*
X135932622Y-159739192D01*
X135908831Y-159770336D01*
X135895408Y-159810489D01*
X135890238Y-159868705D01*
X135615765Y-159868705D01*
X135615648Y-159867148D01*
X135621560Y-159765146D01*
X135637367Y-159687481D01*
X135660803Y-159629194D01*
X135696566Y-159578991D01*
X135744381Y-159539901D01*
X135806432Y-159511225D01*
X135915662Y-159487276D01*
X136075161Y-159477886D01*
X136199589Y-159484429D01*
G37*
G36*
X134973228Y-160635139D02*
G01*
X135073287Y-160628137D01*
X135162730Y-160607937D01*
X135243892Y-160571421D01*
X135313123Y-160516712D01*
X135350730Y-160471003D01*
X135383618Y-160413424D01*
X135411400Y-160341864D01*
X135436645Y-160223621D01*
X135446205Y-160063886D01*
X135437311Y-159898753D01*
X135413965Y-159777572D01*
X135387804Y-159703948D01*
X135356438Y-159644998D01*
X135320359Y-159598420D01*
X135276503Y-159559209D01*
X135226278Y-159528399D01*
X135168775Y-159505730D01*
X135074957Y-159485599D01*
X134964069Y-159478435D01*
X134863515Y-159481393D01*
X134768339Y-159490068D01*
X134673411Y-159505441D01*
X134571327Y-159529452D01*
X134571327Y-159708970D01*
X134867258Y-159708970D01*
X134958784Y-159716904D01*
X135023054Y-159737638D01*
X135057582Y-159761112D01*
X135085905Y-159795253D01*
X135108234Y-159842418D01*
X135127045Y-159926991D01*
X135134704Y-160061504D01*
X135126973Y-160194615D01*
X135108142Y-160276652D01*
X135085775Y-160321632D01*
X135057381Y-160353613D01*
X135022596Y-160374929D01*
X134958080Y-160393001D01*
X134864235Y-160400025D01*
X134556031Y-160400025D01*
X134556031Y-160576429D01*
X134676931Y-160606288D01*
X134823385Y-160627629D01*
X134973228Y-160635139D01*
G37*
G36*
X133954186Y-160622500D02*
G01*
X134040603Y-160617719D01*
X134109986Y-160604639D01*
X134165304Y-160584764D01*
X134214016Y-160554208D01*
X134252579Y-160512843D01*
X134281899Y-160459009D01*
X134300137Y-160399082D01*
X134311624Y-160321295D01*
X134314414Y-160221605D01*
X134304064Y-159744050D01*
X134480102Y-159744050D01*
X134480102Y-159544564D01*
X134292890Y-159495105D01*
X134251582Y-159179116D01*
X134006027Y-159179116D01*
X134006027Y-159495105D01*
X133739955Y-159495105D01*
X133739955Y-159744050D01*
X134006027Y-159744050D01*
X134006027Y-160220048D01*
X133997326Y-160294970D01*
X133986410Y-160322278D01*
X133972688Y-160342139D01*
X133936143Y-160367968D01*
X133893187Y-160378226D01*
X133751129Y-160392331D01*
X133751129Y-160622500D01*
X133954186Y-160622500D01*
G37*
G36*
X133567855Y-160622500D02*
G01*
X133567855Y-159495105D01*
X133326879Y-159495105D01*
X133256354Y-159667296D01*
X133191442Y-159595274D01*
X133118967Y-159534764D01*
X133065327Y-159504396D01*
X133004972Y-159485863D01*
X132936243Y-159479443D01*
X132890448Y-159481824D01*
X132844377Y-159490525D01*
X132844377Y-159809629D01*
X132911239Y-159802759D01*
X132976177Y-159800103D01*
X133035664Y-159803624D01*
X133086727Y-159813567D01*
X133134283Y-159830257D01*
X133177586Y-159853226D01*
X133217486Y-159882634D01*
X133256354Y-159920454D01*
X133256354Y-160622500D01*
X133567855Y-160622500D01*
G37*
G36*
X132642053Y-159329142D02*
G01*
X132666952Y-159324135D01*
X132680613Y-159310823D01*
X132685650Y-159287102D01*
X132685650Y-159081663D01*
X132680460Y-159055880D01*
X132666658Y-159041728D01*
X132642053Y-159036509D01*
X132402359Y-159036509D01*
X132384265Y-159039892D01*
X132372317Y-159049240D01*
X132362425Y-159081663D01*
X132362425Y-159287102D01*
X132367211Y-159311171D01*
X132379883Y-159324316D01*
X132402359Y-159329142D01*
X132642053Y-159329142D01*
G37*
G36*
X132679788Y-160622500D02*
G01*
X132679788Y-159495105D01*
X132368287Y-159495105D01*
X132368287Y-160622500D01*
X132679788Y-160622500D01*
G37*
G36*
X132066586Y-160622500D02*
G01*
X132066586Y-159744050D01*
X132226229Y-159744050D01*
X132226229Y-159544564D01*
X132066586Y-159495105D01*
X132066586Y-159373564D01*
X132061723Y-159281255D01*
X132048651Y-159209867D01*
X132029217Y-159155394D01*
X131999448Y-159106793D01*
X131961665Y-159069311D01*
X131915003Y-159041638D01*
X131832533Y-159016805D01*
X131722753Y-159007566D01*
X131637067Y-159010160D01*
X131560912Y-159017549D01*
X131490208Y-159029492D01*
X131441294Y-159042554D01*
X131441294Y-159268142D01*
X131523726Y-159263013D01*
X131614676Y-159261090D01*
X131664077Y-159265855D01*
X131698298Y-159278309D01*
X131724573Y-159299730D01*
X131742170Y-159330150D01*
X131751533Y-159367258D01*
X131755085Y-159418077D01*
X131755085Y-159495105D01*
X131150675Y-159495105D01*
X131150675Y-159744050D01*
X131755085Y-159744050D01*
X131755085Y-160622500D01*
X132066586Y-160622500D01*
G37*
G36*
X131300243Y-160622500D02*
G01*
X131300243Y-159495105D01*
X130988834Y-159495105D01*
X130988834Y-160622500D01*
X131300243Y-160622500D01*
G37*
G36*
X131262508Y-159329142D02*
G01*
X131287468Y-159324131D01*
X131301154Y-159310815D01*
X131306197Y-159287102D01*
X131306197Y-159081663D01*
X131301001Y-159055889D01*
X131287174Y-159041732D01*
X131262508Y-159036509D01*
X131022906Y-159036509D01*
X131004732Y-159039896D01*
X130992772Y-159049240D01*
X130982880Y-159081663D01*
X130982880Y-159287102D01*
X130987673Y-159311162D01*
X131000370Y-159324312D01*
X131022906Y-159329142D01*
X131262508Y-159329142D01*
G37*
G36*
X130411034Y-159484429D02*
G01*
X130507820Y-159502061D01*
X130582170Y-159528353D01*
X130646897Y-159569621D01*
X130698416Y-159627393D01*
X130737691Y-159704665D01*
X130761758Y-159790195D01*
X130778331Y-159906070D01*
X130784586Y-160059672D01*
X130778032Y-160209229D01*
X130760578Y-160323172D01*
X130735035Y-160408360D01*
X130694013Y-160484943D01*
X130640623Y-160542425D01*
X130573743Y-160583573D01*
X130497489Y-160609722D01*
X130399696Y-160627151D01*
X130275614Y-160633582D01*
X130146228Y-160629278D01*
X130043889Y-160617645D01*
X129863454Y-160584123D01*
X129863454Y-160401582D01*
X130193091Y-160401582D01*
X130300999Y-160395136D01*
X130367572Y-160379417D01*
X130418389Y-160349293D01*
X130449271Y-160305869D01*
X130466342Y-160249800D01*
X130476107Y-160169124D01*
X130191076Y-160169124D01*
X130084028Y-160161674D01*
X129998093Y-160141188D01*
X129946956Y-160117803D01*
X129905287Y-160086547D01*
X129871789Y-160047033D01*
X129848127Y-160000810D01*
X129832725Y-159941911D01*
X129827210Y-159868705D01*
X130101683Y-159868705D01*
X130110078Y-159926182D01*
X130131084Y-159958098D01*
X130165821Y-159976074D01*
X130223316Y-159983194D01*
X130479221Y-159983194D01*
X130473900Y-159878482D01*
X130460720Y-159811094D01*
X130435163Y-159757736D01*
X130399903Y-159726098D01*
X130353152Y-159708839D01*
X130286605Y-159702284D01*
X130223442Y-159706680D01*
X130179352Y-159718038D01*
X130144067Y-159739192D01*
X130120276Y-159770336D01*
X130106852Y-159810489D01*
X130101683Y-159868705D01*
X129827210Y-159868705D01*
X129827093Y-159867148D01*
X129833004Y-159765146D01*
X129848811Y-159687481D01*
X129872247Y-159629194D01*
X129908011Y-159578991D01*
X129955826Y-159539901D01*
X130017877Y-159511225D01*
X130127107Y-159487276D01*
X130286605Y-159477886D01*
X130411034Y-159484429D01*
G37*
G36*
X128944704Y-159530459D02*
G01*
X129079435Y-159493640D01*
X129155900Y-159481828D01*
X129233399Y-159477886D01*
X129339624Y-159485667D01*
X129422758Y-159506863D01*
X129487473Y-159539252D01*
X129541788Y-159586093D01*
X129585604Y-159648797D01*
X129618906Y-159730677D01*
X129639101Y-159818350D01*
X129652652Y-159929985D01*
X129657649Y-160070205D01*
X129651779Y-160206339D01*
X129635877Y-160314147D01*
X129612129Y-160398468D01*
X129575078Y-160476701D01*
X129529866Y-160535836D01*
X129476482Y-160579085D01*
X129414153Y-160609371D01*
X129340925Y-160628404D01*
X129254465Y-160635139D01*
X129197256Y-160631107D01*
X129140251Y-160618927D01*
X129084845Y-160599878D01*
X129032449Y-160575330D01*
X128983982Y-160545930D01*
X128944704Y-160515063D01*
X128894146Y-160622500D01*
X128633295Y-160622500D01*
X128633295Y-159754491D01*
X128944704Y-159754491D01*
X128944704Y-160321806D01*
X129030525Y-160364213D01*
X129083541Y-160379331D01*
X129145380Y-160384637D01*
X129213189Y-160377256D01*
X129262342Y-160357435D01*
X129299264Y-160321301D01*
X129326639Y-160258425D01*
X129340516Y-160179176D01*
X129346148Y-160054818D01*
X129340078Y-159922647D01*
X129325265Y-159840312D01*
X129307067Y-159793588D01*
X129284148Y-159760761D01*
X129256755Y-159738829D01*
X129204433Y-159718899D01*
X129132100Y-159711443D01*
X129080993Y-159714998D01*
X129033181Y-159725457D01*
X128944704Y-159754491D01*
X128633295Y-159754491D01*
X128633295Y-159020205D01*
X128944704Y-159020205D01*
X128944704Y-159530459D01*
G37*
G36*
X128487390Y-160773716D02*
G01*
X127897269Y-159005459D01*
X127581005Y-159005459D01*
X128171126Y-160773716D01*
X128487390Y-160773716D01*
G37*
G36*
X127515517Y-160622500D02*
G01*
X127515517Y-159495105D01*
X127274541Y-159495105D01*
X127204016Y-159667296D01*
X127139105Y-159595274D01*
X127066630Y-159534764D01*
X127012989Y-159504396D01*
X126952634Y-159485863D01*
X126883905Y-159479443D01*
X126838110Y-159481824D01*
X126792040Y-159490525D01*
X126792040Y-159809629D01*
X126858901Y-159802759D01*
X126923839Y-159800103D01*
X126983327Y-159803624D01*
X127034390Y-159813567D01*
X127081946Y-159830257D01*
X127125248Y-159853226D01*
X127165148Y-159882634D01*
X127204016Y-159920454D01*
X127204016Y-160622500D01*
X127515517Y-160622500D01*
G37*
G36*
X126187813Y-160635139D02*
G01*
X126287871Y-160628137D01*
X126377315Y-160607937D01*
X126458477Y-160571421D01*
X126527708Y-160516712D01*
X126565315Y-160471003D01*
X126598203Y-160413424D01*
X126625985Y-160341864D01*
X126651230Y-160223621D01*
X126660790Y-160063886D01*
X126651896Y-159898753D01*
X126628549Y-159777572D01*
X126602389Y-159703948D01*
X126571023Y-159644998D01*
X126534943Y-159598420D01*
X126491088Y-159559209D01*
X126440863Y-159528399D01*
X126383360Y-159505730D01*
X126289542Y-159485599D01*
X126178654Y-159478435D01*
X126078099Y-159481393D01*
X125982924Y-159490068D01*
X125887995Y-159505441D01*
X125785912Y-159529452D01*
X125785912Y-159708970D01*
X126081842Y-159708970D01*
X126173369Y-159716904D01*
X126237639Y-159737638D01*
X126272166Y-159761112D01*
X126300490Y-159795253D01*
X126322819Y-159842418D01*
X126341629Y-159926991D01*
X126349288Y-160061504D01*
X126341558Y-160194615D01*
X126322727Y-160276652D01*
X126300360Y-160321632D01*
X126271966Y-160353613D01*
X126237181Y-160374929D01*
X126172665Y-160393001D01*
X126078820Y-160400025D01*
X125770616Y-160400025D01*
X125770616Y-160576429D01*
X125891516Y-160606288D01*
X126037970Y-160627629D01*
X126187813Y-160635139D01*
G37*
G36*
X125598700Y-160622500D02*
G01*
X125337757Y-160622500D01*
X125287198Y-160515063D01*
X125197531Y-160574414D01*
X125148238Y-160598822D01*
X125091835Y-160618469D01*
X125031076Y-160630757D01*
X124959119Y-160635139D01*
X124872889Y-160627650D01*
X124801389Y-160606605D01*
X124741773Y-160573132D01*
X124691535Y-160526648D01*
X124649370Y-160465070D01*
X124615469Y-160385370D01*
X124593773Y-160300467D01*
X124579518Y-160196517D01*
X124574345Y-160070205D01*
X124574905Y-160054818D01*
X124885755Y-160054818D01*
X124892837Y-160174116D01*
X124910576Y-160252472D01*
X124941431Y-160315654D01*
X124977712Y-160352672D01*
X125022876Y-160374226D01*
X125075806Y-160381615D01*
X125141950Y-160377027D01*
X125196065Y-160364304D01*
X125287198Y-160326386D01*
X125287198Y-159791219D01*
X125191944Y-159747896D01*
X125136305Y-159733350D01*
X125075806Y-159728387D01*
X125027028Y-159733817D01*
X124982108Y-159749911D01*
X124944841Y-159780796D01*
X124912224Y-159840312D01*
X124893605Y-159918962D01*
X124885755Y-160054818D01*
X124574905Y-160054818D01*
X124579501Y-159928504D01*
X124593450Y-159816280D01*
X124614187Y-159728662D01*
X124647789Y-159646543D01*
X124690395Y-159584279D01*
X124741773Y-159538336D01*
X124803061Y-159506103D01*
X124879386Y-159485386D01*
X124974415Y-159477886D01*
X125051373Y-159485005D01*
X125135890Y-159507561D01*
X125217963Y-159539601D01*
X125287198Y-159573324D01*
X125287198Y-159020205D01*
X125598700Y-159020205D01*
X125598700Y-160622500D01*
G37*
G36*
X124050719Y-160635139D02*
G01*
X124126044Y-160628964D01*
X124189385Y-160611541D01*
X124242931Y-160583798D01*
X124288306Y-160545655D01*
X124334111Y-160480991D01*
X124363145Y-160398554D01*
X124373669Y-160293230D01*
X124373669Y-159495105D01*
X124062259Y-159495105D01*
X124062259Y-160199532D01*
X124056223Y-160261214D01*
X124040769Y-160301720D01*
X124018021Y-160327301D01*
X123968423Y-160351212D01*
X123898403Y-160360091D01*
X123840330Y-160354707D01*
X123778144Y-160337834D01*
X123718752Y-160311539D01*
X123667777Y-160278667D01*
X123667777Y-159495105D01*
X123356367Y-159495105D01*
X123356367Y-160622500D01*
X123613005Y-160622500D01*
X123667777Y-160507644D01*
X123748064Y-160553706D01*
X123842716Y-160596213D01*
X123943451Y-160625323D01*
X124050719Y-160635139D01*
G37*
G36*
X122711566Y-160635139D02*
G01*
X122825688Y-160631750D01*
X122947779Y-160622500D01*
X123060436Y-160606746D01*
X123147631Y-160584123D01*
X123147631Y-160401582D01*
X122648551Y-160401582D01*
X122576377Y-160394071D01*
X122550887Y-160383107D01*
X122533971Y-160366686D01*
X122523972Y-160344114D01*
X122520141Y-160310449D01*
X122520141Y-160274087D01*
X122527283Y-160236216D01*
X122547618Y-160208874D01*
X122581795Y-160192453D01*
X122648002Y-160185427D01*
X122824681Y-160185427D01*
X122918315Y-160177910D01*
X122999070Y-160156484D01*
X123047519Y-160132744D01*
X123088146Y-160100911D01*
X123121894Y-160060405D01*
X123145894Y-160013447D01*
X123161463Y-159954055D01*
X123167140Y-159879146D01*
X123167140Y-159813750D01*
X123162121Y-159743113D01*
X123148008Y-159683596D01*
X123125741Y-159633316D01*
X123093159Y-159590026D01*
X123047233Y-159553106D01*
X122985148Y-159522491D01*
X122917731Y-159502910D01*
X122828998Y-159489623D01*
X122714130Y-159484664D01*
X122565387Y-159491899D01*
X122416551Y-159510676D01*
X122305360Y-159536138D01*
X122305360Y-159718679D01*
X122777145Y-159718679D01*
X122834087Y-159724419D01*
X122870202Y-159738920D01*
X122893055Y-159765776D01*
X122901801Y-159813750D01*
X122901801Y-159848463D01*
X122897658Y-159881608D01*
X122886871Y-159903235D01*
X122868680Y-159918473D01*
X122840801Y-159928697D01*
X122764689Y-159935383D01*
X122583522Y-159935383D01*
X122495998Y-159941330D01*
X122427407Y-159957508D01*
X122374035Y-159982105D01*
X122332928Y-160014335D01*
X122290657Y-160071424D01*
X122264207Y-160142836D01*
X122254710Y-160232688D01*
X122254710Y-160333530D01*
X122261281Y-160407398D01*
X122279447Y-160466223D01*
X122307924Y-160513140D01*
X122347254Y-160551803D01*
X122398079Y-160583235D01*
X122462713Y-160607204D01*
X122570216Y-160627522D01*
X122711566Y-160635139D01*
G37*
G36*
X122135458Y-160138532D02*
G01*
X122135458Y-159888489D01*
X121493038Y-159888489D01*
X121493038Y-160138532D01*
X122135458Y-160138532D01*
G37*
G36*
X120975824Y-161120205D02*
G01*
X120853000Y-160622500D01*
X120943664Y-160612898D01*
X121018963Y-160586779D01*
X121083927Y-160543886D01*
X121137024Y-160484930D01*
X121177525Y-160412714D01*
X121209289Y-160320890D01*
X121421414Y-159495105D01*
X121098098Y-159495105D01*
X120920869Y-160257601D01*
X120907749Y-160295158D01*
X120893392Y-160320249D01*
X120857946Y-160352581D01*
X120823050Y-160365770D01*
X120797862Y-160368792D01*
X120595354Y-159495105D01*
X120278724Y-159495105D01*
X120614955Y-160912294D01*
X120717170Y-161120205D01*
X120975824Y-161120205D01*
G37*
G36*
X120134010Y-160622500D02*
G01*
X120134010Y-159495105D01*
X119877280Y-159495105D01*
X119822509Y-159609960D01*
X119745568Y-159559238D01*
X119661217Y-159515713D01*
X119601664Y-159494636D01*
X119530535Y-159481089D01*
X119445703Y-159476237D01*
X119376508Y-159481620D01*
X119318497Y-159496764D01*
X119269665Y-159520751D01*
X119207158Y-159571833D01*
X119162229Y-159634598D01*
X119051312Y-159562241D01*
X118985300Y-159528799D01*
X118913559Y-159500967D01*
X118839535Y-159482297D01*
X118768021Y-159476237D01*
X118678585Y-159482725D01*
X118608434Y-159500408D01*
X118553698Y-159527437D01*
X118506725Y-159565996D01*
X118470050Y-159613702D01*
X118443056Y-159671967D01*
X118419392Y-159770132D01*
X118410816Y-159891603D01*
X118410816Y-160622500D01*
X118722225Y-160622500D01*
X118722225Y-159919172D01*
X118727619Y-159867465D01*
X118742284Y-159828588D01*
X118766283Y-159797035D01*
X118797788Y-159774366D01*
X118835665Y-159760756D01*
X118883242Y-159755865D01*
X118945724Y-159762119D01*
X119010646Y-159781510D01*
X119072439Y-159810380D01*
X119125684Y-159844067D01*
X119118998Y-159884184D01*
X119116708Y-159925400D01*
X119116708Y-160622500D01*
X119428118Y-160622500D01*
X119428118Y-159919172D01*
X119433512Y-159867465D01*
X119448176Y-159828588D01*
X119472127Y-159797014D01*
X119503406Y-159774366D01*
X119541035Y-159760762D01*
X119588494Y-159755865D01*
X119674589Y-159766215D01*
X119751801Y-159795249D01*
X119822509Y-159839030D01*
X119822509Y-160622500D01*
X120134010Y-160622500D01*
G37*
G36*
X118100047Y-160622500D02*
G01*
X118100047Y-159744050D01*
X118259690Y-159744050D01*
X118259690Y-159544564D01*
X118100047Y-159495105D01*
X118100047Y-159419634D01*
X118095219Y-159324416D01*
X118081980Y-159247321D01*
X118061854Y-159185344D01*
X118030981Y-159129100D01*
X117991141Y-159084788D01*
X117941595Y-159050888D01*
X117885116Y-159028019D01*
X117814166Y-159013037D01*
X117725531Y-159007566D01*
X117653640Y-159010276D01*
X117591350Y-159017916D01*
X117491699Y-159038615D01*
X117491699Y-159261090D01*
X117663524Y-159261090D01*
X117708456Y-159265267D01*
X117738629Y-159276019D01*
X117761675Y-159294666D01*
X117777189Y-159321632D01*
X117785374Y-159355014D01*
X117788546Y-159402781D01*
X117788546Y-159495105D01*
X117501316Y-159495105D01*
X117501316Y-159744050D01*
X117788546Y-159744050D01*
X117788546Y-160622500D01*
X118100047Y-160622500D01*
G37*
G36*
X117377119Y-160622500D02*
G01*
X117377119Y-160373555D01*
X116857523Y-159857073D01*
X116798787Y-159796273D01*
X116755307Y-159743958D01*
X116719945Y-159690667D01*
X116695865Y-159640277D01*
X116681031Y-159587512D01*
X116675989Y-159530368D01*
X116681613Y-159476573D01*
X116697330Y-159433373D01*
X116724933Y-159398395D01*
X116768222Y-159371823D01*
X116822738Y-159356704D01*
X116904051Y-159350758D01*
X117340025Y-159350758D01*
X117340025Y-159105293D01*
X117117183Y-159071588D01*
X116990823Y-159059987D01*
X116842685Y-159055834D01*
X116721896Y-159062349D01*
X116628490Y-159079864D01*
X116557196Y-159105935D01*
X116493315Y-159145226D01*
X116444499Y-159193357D01*
X116408818Y-159251106D01*
X116384964Y-159315892D01*
X116369843Y-159391345D01*
X116364488Y-159479351D01*
X116371727Y-159581583D01*
X116392423Y-159671051D01*
X116426830Y-159755026D01*
X116475405Y-159835915D01*
X116535686Y-159912883D01*
X116613524Y-159995559D01*
X116963677Y-160341773D01*
X116316861Y-160341773D01*
X116316861Y-160622500D01*
X117377119Y-160622500D01*
G37*
G36*
X115642001Y-159060691D02*
G01*
X115724028Y-159074635D01*
X115797539Y-159096959D01*
X115866069Y-159130041D01*
X115927385Y-159174766D01*
X115982279Y-159232056D01*
X116026918Y-159298005D01*
X116065641Y-159380310D01*
X116097683Y-159481916D01*
X116118375Y-159586557D01*
X116131966Y-159713504D01*
X116136884Y-159866232D01*
X116128531Y-160085097D01*
X116106751Y-160244412D01*
X116081609Y-160342849D01*
X116051690Y-160419594D01*
X116017999Y-160478427D01*
X115974861Y-160530098D01*
X115926493Y-160569428D01*
X115872278Y-160597678D01*
X115780972Y-160623218D01*
X115671510Y-160632300D01*
X115446196Y-160632300D01*
X115337619Y-160622609D01*
X115246436Y-160595205D01*
X115192523Y-160565506D01*
X115147634Y-160526576D01*
X115110790Y-160477602D01*
X115084866Y-160421755D01*
X115068070Y-160352164D01*
X115061972Y-160265661D01*
X115061972Y-160102720D01*
X115372923Y-160102720D01*
X115372923Y-160203837D01*
X115377631Y-160254569D01*
X115390051Y-160290665D01*
X115410991Y-160319156D01*
X115438777Y-160338109D01*
X115472637Y-160348755D01*
X115516813Y-160352672D01*
X115610052Y-160352672D01*
X115662970Y-160347936D01*
X115706040Y-160334720D01*
X115742629Y-160310628D01*
X115773543Y-160271980D01*
X115795588Y-160222210D01*
X115812835Y-160148882D01*
X115821969Y-160065388D01*
X115825475Y-159950496D01*
X115561876Y-159950496D01*
X115499059Y-159953965D01*
X115454348Y-159962952D01*
X115417587Y-159980771D01*
X115392798Y-160007740D01*
X115378576Y-160044521D01*
X115372923Y-160102720D01*
X115061972Y-160102720D01*
X115061972Y-160042728D01*
X115072137Y-159937641D01*
X115100531Y-159852585D01*
X115131443Y-159803965D01*
X115173975Y-159763055D01*
X115229950Y-159729303D01*
X115292068Y-159706820D01*
X115372349Y-159691809D01*
X115474956Y-159686256D01*
X115606572Y-159688820D01*
X115722160Y-159699170D01*
X115825475Y-159721885D01*
X115815854Y-159596493D01*
X115790128Y-159502705D01*
X115751469Y-159433373D01*
X115710946Y-159391862D01*
X115660457Y-159361607D01*
X115597850Y-159342385D01*
X115520018Y-159335462D01*
X115154387Y-159335462D01*
X115154387Y-159089906D01*
X115240596Y-159075087D01*
X115342881Y-159064169D01*
X115550243Y-159055834D01*
X115642001Y-159060691D01*
G37*
G36*
X114874118Y-160622500D02*
G01*
X114874118Y-160373555D01*
X114354522Y-159857073D01*
X114295786Y-159796273D01*
X114252306Y-159743958D01*
X114216945Y-159690667D01*
X114192864Y-159640277D01*
X114178031Y-159587512D01*
X114172989Y-159530368D01*
X114178612Y-159476573D01*
X114194329Y-159433373D01*
X114221932Y-159398395D01*
X114265221Y-159371823D01*
X114319738Y-159356704D01*
X114401050Y-159350758D01*
X114837024Y-159350758D01*
X114837024Y-159105293D01*
X114614183Y-159071588D01*
X114487822Y-159059987D01*
X114339684Y-159055834D01*
X114218896Y-159062349D01*
X114125489Y-159079864D01*
X114054195Y-159105935D01*
X113990314Y-159145226D01*
X113941498Y-159193357D01*
X113905817Y-159251106D01*
X113881964Y-159315892D01*
X113866842Y-159391345D01*
X113861487Y-159479351D01*
X113868726Y-159581583D01*
X113889423Y-159671051D01*
X113923830Y-159755026D01*
X113972404Y-159835915D01*
X114032686Y-159912883D01*
X114110523Y-159995559D01*
X114460676Y-160341773D01*
X113813860Y-160341773D01*
X113813860Y-160622500D01*
X114874118Y-160622500D01*
G37*
M02*
