<?xml version="1.0" standalone="no"?>
 <!DOCTYPE svg PUBLIC "-//W3C//DTD SVG 1.1//EN" 
 "http://www.w3.org/Graphics/SVG/1.1/DTD/svg11.dtd"> 
<svg
  xmlns:svg="http://www.w3.org/2000/svg"
  xmlns="http://www.w3.org/2000/svg"
  xmlns:xlink="http://www.w3.org/1999/xlink"
  version="1.1"
  width="297.0022mm" height="210.0072mm" viewBox="0.0000 0.0000 297.0022 210.0072">
<title>SVG Image created as rcbus-ymf262-Edge_Cuts4.svg date 2025/09/01 23:04:54 </title>
  <desc>Image generated by PCBNEW </desc>
<g style="fill:#000000; fill-opacity:1.0000;stroke:#000000; stroke-opacity:1.0000;
stroke-linecap:round; stroke-linejoin:round;"
 transform="translate(0 0) scale(1 1)">
</g>
<g style="fill:none; 
stroke:#000000; stroke-width:0.3000; stroke-opacity:1; 
stroke-linecap:round; stroke-linejoin:round;">
<path d="M259.6634 67.0091
L259.6634 76.6611
" />
<path d="M263.9254 64.7231
L263.9254 61.6451
" />
<path d="M252.9254 50.6451
L93.9254 50.6451
" />
<path d="M263.9254 61.6451 A11.0000 11.0000 0.0 0 0 252.9254 50.6451" />
<path d="M263.9254 64.7231
L261.9494 64.7231
" />
<path d="M263.9254 78.9471
L261.9494 78.9471
" />
<path d="M63.9254 80.6451
L93.9254 50.6451
" />
<path d="M63.9254 80.6451
L63.9254 150.6451
" />
<path d="M259.6634 76.6611 A2.2860 2.2860 0.0 0 0 261.9494 78.9471" />
<path d="M263.9254 150.6451
L263.9254 78.9471
" />
<path d="M63.9254 150.6451
L263.9254 150.6451
" />
<path d="M261.9494 64.7231 A2.2860 2.2860 0.0 0 0 259.6634 67.0091" />
</g> 
</svg>
