<?xml version="1.0" standalone="no"?>
 <!DOCTYPE svg PUBLIC "-//W3C//DTD SVG 1.1//EN" 
 "http://www.w3.org/Graphics/SVG/1.1/DTD/svg11.dtd"> 
<svg
  xmlns:svg="http://www.w3.org/2000/svg"
  xmlns="http://www.w3.org/2000/svg"
  xmlns:xlink="http://www.w3.org/1999/xlink"
  version="1.1"
  width="297.0022mm" height="210.0072mm" viewBox="0.0000 0.0000 297.0022 210.0072">
<title>SVG Image created as rcbus-opl3-F_Courtyard0.svg date 2025/10/07 23:47:10 </title>
  <desc>Image generated by PCBNEW </desc>
<g style="fill:#000000; fill-opacity:1.0000;stroke:#000000; stroke-opacity:1.0000;
stroke-linecap:round; stroke-linejoin:round;"
 transform="translate(0 0) scale(1 1)">
</g>
<g style="fill:none; 
stroke:#000000; stroke-width:0.0500; stroke-opacity:1; 
stroke-linecap:round; stroke-linejoin:round;">
<path d="M77.9200 141.6700
L80.8800 141.6700
" />
<path d="M77.9200 143.1300
L77.9200 141.6700
" />
<path d="M80.8800 141.6700
L80.8800 143.1300
" />
<path d="M80.8800 143.1300
L77.9200 143.1300
" />
<path d="M116.8450 140.9700
L119.8050 140.9700
" />
<path d="M116.8450 142.4300
L116.8450 140.9700
" />
<path d="M119.8050 140.9700
L119.8050 142.4300
" />
<path d="M119.8050 142.4300
L116.8450 142.4300
" />
<path d="M145.3190 131.8450
L145.3190 119.3450
" />
<path d="M160.3190 119.3450
L145.3190 119.3450
" />
<path d="M160.3190 131.8450
L145.3190 131.8450
" />
<path d="M160.3190 131.8450
L160.3190 119.3450
" />
<path d="M60.6800 139.6900
L60.6800 155.9300
" />
<path d="M60.6800 155.9300
L66.7700 155.9300
" />
<path d="M66.7700 139.6900
L60.6800 139.6900
" />
<path d="M66.7700 155.9300
L66.7700 139.6900
" />
<circle cx="65.0320" cy="131.8820" r="3.4500" /> 
<path d="M59.7000 161.7000
L59.7000 165.3000
" />
<path d="M59.7000 165.3000
L159.8000 165.3000
" />
<path d="M159.8000 161.7000
L59.7000 161.7000
" />
<path d="M159.8000 165.3000
L159.8000 161.7000
" />
<path d="M79.6150 146.3500
L79.9950 146.3500
" />
<path d="M79.6150 154.3500
L79.6150 146.3500
" />
<path d="M79.9950 144.4200
L92.5350 144.4200
" />
<path d="M79.9950 146.3500
L79.9950 144.4200
" />
<path d="M79.9950 154.3500
L79.6150 154.3500
" />
<path d="M79.9950 156.2800
L79.9950 154.3500
" />
<path d="M92.5350 144.4200
L92.5350 146.3500
" />
<path d="M92.5350 146.3500
L92.9150 146.3500
" />
<path d="M92.5350 154.3500
L92.5350 156.2800
" />
<path d="M92.5350 156.2800
L79.9950 156.2800
" />
<path d="M92.9150 146.3500
L92.9150 154.3500
" />
<path d="M92.9150 154.3500
L92.5350 154.3500
" />
<path d="M123.1700 127.2200
L124.6300 127.2200
" />
<path d="M123.1700 130.1800
L123.1700 127.2200
" />
<path d="M124.6300 127.2200
L124.6300 130.1800
" />
<path d="M124.6300 130.1800
L123.1700 130.1800
" />
<path d="M106.8000 126.7500
L107.9500 126.7500
" />
<path d="M106.8000 128.8500
L106.8000 126.7500
" />
<path d="M107.9500 126.7500
L107.9500 124.2500
" />
<path d="M107.9500 128.8500
L106.8000 128.8500
" />
<path d="M107.9500 131.3500
L107.9500 128.8500
" />
<path d="M113.9000 124.2500
L107.9500 124.2500
" />
<path d="M113.9000 131.3500
L107.9500 131.3500
" />
<path d="M115.0500 125.4000
L113.9000 124.2500
" />
<path d="M115.0500 126.7500
L115.0500 125.4000
" />
<path d="M115.0500 128.8500
L116.2000 128.8500
" />
<path d="M115.0500 130.2000
L113.9000 131.3500
" />
<path d="M115.0500 130.2000
L115.0500 128.8500
" />
<path d="M116.2000 126.7500
L115.0500 126.7500
" />
<path d="M116.2000 128.8500
L116.2000 126.7500
" />
<path d="M116.4700 119.9200
L117.9300 119.9200
" />
<path d="M116.4700 122.8800
L116.4700 119.9200
" />
<path d="M117.9300 119.9200
L117.9300 122.8800
" />
<path d="M117.9300 122.8800
L116.4700 122.8800
" />
<path d="M126.1000 143.4900
L128.0000 143.4900
" />
<path d="M126.1000 158.5100
L126.1000 143.4900
" />
<path d="M128.0000 143.0500
L136.0000 143.0500
" />
<path d="M128.0000 143.4900
L128.0000 143.0500
" />
<path d="M128.0000 158.5100
L126.1000 158.5100
" />
<path d="M128.0000 158.9500
L128.0000 158.5100
" />
<path d="M136.0000 143.0500
L136.0000 143.4900
" />
<path d="M136.0000 143.4900
L137.9000 143.4900
" />
<path d="M136.0000 158.5100
L136.0000 158.9500
" />
<path d="M136.0000 158.9500
L128.0000 158.9500
" />
<path d="M137.9000 143.4900
L137.9000 158.5100
" />
<path d="M137.9000 158.5100
L136.0000 158.5100
" />
<path d="M122.0200 143.2700
L124.9800 143.2700
" />
<path d="M122.0200 144.7300
L122.0200 143.2700
" />
<path d="M124.9800 143.2700
L124.9800 144.7300
" />
<path d="M124.9800 144.7300
L122.0200 144.7300
" />
<path style="fill:none; 
stroke:#000000; stroke-width:0.0500; stroke-opacity:1; 
stroke-linecap:round; stroke-linejoin:round;fill:none"
d="M 141.2500,150.5000
147.7500,150.5000
147.7500,142.5000
141.2500,142.5000
Z" /> 
<path d="M118.1950 133.2200
L118.5950 133.2200
" />
<path d="M118.1950 138.2800
L118.1950 133.2200
" />
<path d="M118.5950 131.4500
L128.5950 131.4500
" />
<path d="M118.5950 133.2200
L118.5950 131.4500
" />
<path d="M118.5950 138.2800
L118.1950 138.2800
" />
<path d="M118.5950 140.0500
L118.5950 138.2800
" />
<path d="M128.5950 131.4500
L128.5950 133.2200
" />
<path d="M128.5950 133.2200
L128.9950 133.2200
" />
<path d="M128.5950 138.2800
L128.5950 140.0500
" />
<path d="M128.5950 140.0500
L118.5950 140.0500
" />
<path d="M128.9950 133.2200
L128.9950 138.2800
" />
<path d="M128.9950 138.2800
L128.5950 138.2800
" />
<path d="M71.5200 153.2700
L74.4800 153.2700
" />
<path d="M71.5200 154.7300
L71.5200 153.2700
" />
<path d="M74.4800 153.2700
L74.4800 154.7300
" />
<path d="M74.4800 154.7300
L71.5200 154.7300
" />
<path d="M125.6200 117.2700
L128.5800 117.2700
" />
<path d="M125.6200 118.7300
L125.6200 117.2700
" />
<path d="M128.5800 117.2700
L128.5800 118.7300
" />
<path d="M128.5800 118.7300
L125.6200 118.7300
" />
<path d="M71.5200 150.7700
L74.4800 150.7700
" />
<path d="M71.5200 152.2300
L71.5200 150.7700
" />
<path d="M74.4800 150.7700
L74.4800 152.2300
" />
<path d="M74.4800 152.2300
L71.5200 152.2300
" />
<path d="M141.9200 119.8650
L144.8800 119.8650
" />
<path d="M141.9200 121.3250
L141.9200 119.8650
" />
<path d="M144.8800 119.8650
L144.8800 121.3250
" />
<path d="M144.8800 121.3250
L141.9200 121.3250
" />
<path d="M125.1700 127.2200
L126.6300 127.2200
" />
<path d="M125.1700 130.1800
L125.1700 127.2200
" />
<path d="M126.6300 127.2200
L126.6300 130.1800
" />
<path d="M126.6300 130.1800
L125.1700 130.1800
" />
<path d="M141.9200 129.8650
L144.8800 129.8650
" />
<path d="M141.9200 131.3250
L141.9200 129.8650
" />
<path d="M144.8800 129.8650
L144.8800 131.3250
" />
<path d="M144.8800 131.3250
L141.9200 131.3250
" />
<path d="M71.5200 145.7700
L74.4800 145.7700
" />
<path d="M71.5200 147.2300
L71.5200 145.7700
" />
<path d="M74.4800 145.7700
L74.4800 147.2300
" />
<path d="M74.4800 147.2300
L71.5200 147.2300
" />
<path d="M71.5200 140.7700
L74.4800 140.7700
" />
<path d="M71.5200 142.2300
L71.5200 140.7700
" />
<path d="M74.4800 140.7700
L74.4800 142.2300
" />
<path d="M74.4800 142.2300
L71.5200 142.2300
" />
<path d="M121.7450 117.2700
L124.7050 117.2700
" />
<path d="M121.7450 118.7300
L121.7450 117.2700
" />
<path d="M124.7050 117.2700
L124.7050 118.7300
" />
<path d="M124.7050 118.7300
L121.7450 118.7300
" />
<path d="M71.5200 143.2700
L74.4800 143.2700
" />
<path d="M71.5200 144.7300
L71.5200 143.2700
" />
<path d="M74.4800 143.2700
L74.4800 144.7300
" />
<path d="M74.4800 144.7300
L71.5200 144.7300
" />
<path d="M118.9200 120.8370
L119.1400 120.8370
" />
<path d="M118.9200 125.2370
L118.9200 120.8370
" />
<path d="M119.1400 119.3370
L127.8600 119.3370
" />
<path d="M119.1400 120.8370
L119.1400 119.3370
" />
<path d="M119.1400 125.2370
L118.9200 125.2370
" />
<path d="M119.1400 126.7370
L119.1400 125.2370
" />
<path d="M127.8600 119.3370
L127.8600 120.8370
" />
<path d="M127.8600 120.8370
L128.0800 120.8370
" />
<path d="M127.8600 125.2370
L127.8600 126.7370
" />
<path d="M127.8600 126.7370
L119.1400 126.7370
" />
<path d="M128.0800 120.8370
L128.0800 125.2370
" />
<path d="M128.0800 125.2370
L127.8600 125.2370
" />
<path d="M131.2000 129.5450
L131.2000 131.6450
" />
<path d="M131.2000 131.6450
L132.3500 131.6450
" />
<path d="M132.3500 128.1950
L132.3500 129.5450
" />
<path d="M132.3500 128.1950
L133.5000 127.0450
" />
<path d="M132.3500 129.5450
L131.2000 129.5450
" />
<path d="M132.3500 131.6450
L132.3500 132.9950
" />
<path d="M132.3500 132.9950
L133.5000 134.1450
" />
<path d="M133.5000 127.0450
L139.4500 127.0450
" />
<path d="M133.5000 134.1450
L139.4500 134.1450
" />
<path d="M139.4500 127.0450
L139.4500 129.5450
" />
<path d="M139.4500 129.5450
L140.6000 129.5450
" />
<path d="M139.4500 131.6450
L139.4500 134.1450
" />
<path d="M140.6000 129.5450
L140.6000 131.6450
" />
<path d="M140.6000 131.6450
L139.4500 131.6450
" />
<path d="M71.5200 148.2700
L74.4800 148.2700
" />
<path d="M71.5200 149.7300
L71.5200 148.2700
" />
<path d="M74.4800 148.2700
L74.4800 149.7300
" />
<path d="M74.4800 149.7300
L71.5200 149.7300
" />
<path d="M97.8000 154.9500
L98.9500 154.9500
" />
<path d="M97.8000 157.0500
L97.8000 154.9500
" />
<path d="M98.9500 154.9500
L98.9500 152.4500
" />
<path d="M98.9500 157.0500
L97.8000 157.0500
" />
<path d="M98.9500 159.5500
L98.9500 157.0500
" />
<path d="M104.9000 152.4500
L98.9500 152.4500
" />
<path d="M104.9000 159.5500
L98.9500 159.5500
" />
<path d="M106.0500 153.6000
L104.9000 152.4500
" />
<path d="M106.0500 154.9500
L106.0500 153.6000
" />
<path d="M106.0500 157.0500
L107.2000 157.0500
" />
<path d="M106.0500 158.4000
L104.9000 159.5500
" />
<path d="M106.0500 158.4000
L106.0500 157.0500
" />
<path d="M107.2000 154.9500
L106.0500 154.9500
" />
<path d="M107.2000 157.0500
L107.2000 154.9500
" />
<path d="M97.8000 144.4500
L98.9500 144.4500
" />
<path d="M97.8000 146.5500
L97.8000 144.4500
" />
<path d="M98.9500 144.4500
L98.9500 141.9500
" />
<path d="M98.9500 146.5500
L97.8000 146.5500
" />
<path d="M98.9500 149.0500
L98.9500 146.5500
" />
<path d="M104.9000 141.9500
L98.9500 141.9500
" />
<path d="M104.9000 149.0500
L98.9500 149.0500
" />
<path d="M106.0500 143.1000
L104.9000 141.9500
" />
<path d="M106.0500 144.4500
L106.0500 143.1000
" />
<path d="M106.0500 146.5500
L107.2000 146.5500
" />
<path d="M106.0500 147.9000
L104.9000 149.0500
" />
<path d="M106.0500 147.9000
L106.0500 146.5500
" />
<path d="M107.2000 144.4500
L106.0500 144.4500
" />
<path d="M107.2000 146.5500
L107.2000 144.4500
" />
<path d="M131.2000 119.5450
L131.2000 121.6450
" />
<path d="M131.2000 121.6450
L132.3500 121.6450
" />
<path d="M132.3500 118.1950
L132.3500 119.5450
" />
<path d="M132.3500 118.1950
L133.5000 117.0450
" />
<path d="M132.3500 119.5450
L131.2000 119.5450
" />
<path d="M132.3500 121.6450
L132.3500 122.9950
" />
<path d="M132.3500 122.9950
L133.5000 124.1450
" />
<path d="M133.5000 117.0450
L139.4500 117.0450
" />
<path d="M133.5000 124.1450
L139.4500 124.1450
" />
<path d="M139.4500 117.0450
L139.4500 119.5450
" />
<path d="M139.4500 119.5450
L140.6000 119.5450
" />
<path d="M139.4500 121.6450
L139.4500 124.1450
" />
<path d="M140.6000 119.5450
L140.6000 121.6450
" />
<path d="M140.6000 121.6450
L139.4500 121.6450
" />
<path d="M148.8840 148.2960
L151.8440 148.2960
" />
<path d="M148.8840 149.7560
L148.8840 148.2960
" />
<path d="M151.8440 148.2960
L151.8440 149.7560
" />
<path d="M151.8440 149.7560
L148.8840 149.7560
" />
<path d="M141.9200 123.8650
L144.8800 123.8650
" />
<path d="M141.9200 125.3250
L141.9200 123.8650
" />
<path d="M144.8800 123.8650
L144.8800 125.3250
" />
<path d="M144.8800 125.3250
L141.9200 125.3250
" />
<path d="M141.9200 134.0600
L144.8800 134.0600
" />
<path d="M141.9200 135.5200
L141.9200 134.0600
" />
<path d="M144.8800 134.0600
L144.8800 135.5200
" />
<path d="M144.8800 135.5200
L141.9200 135.5200
" />
</g> 
</svg>
