<?xml version="1.0" standalone="no"?>
 <!DOCTYPE svg PUBLIC "-//W3C//DTD SVG 1.1//EN" 
 "http://www.w3.org/Graphics/SVG/1.1/DTD/svg11.dtd"> 
<svg
  xmlns:svg="http://www.w3.org/2000/svg"
  xmlns="http://www.w3.org/2000/svg"
  xmlns:xlink="http://www.w3.org/1999/xlink"
  version="1.1"
  width="297.0022mm" height="210.0072mm" viewBox="0.0000 0.0000 297.0022 210.0072">
<title>SVG Image created as rcbus-opl3-F_Courtyard0.svg date 2025/10/01 20:53:22 </title>
  <desc>Image generated by PCBNEW </desc>
<g style="fill:#000000; fill-opacity:1.0000;stroke:#000000; stroke-opacity:1.0000;
stroke-linecap:round; stroke-linejoin:round;"
 transform="translate(0 0) scale(1 1)">
</g>
<g style="fill:none; 
stroke:#000000; stroke-width:0.0500; stroke-opacity:1; 
stroke-linecap:round; stroke-linejoin:round;">
<path d="M109.7700 156.0200
L112.7300 156.0200
" />
<path d="M109.7700 157.4800
L109.7700 156.0200
" />
<path d="M112.7300 156.0200
L112.7300 157.4800
" />
<path d="M112.7300 157.4800
L109.7700 157.4800
" />
<path d="M109.7700 140.2700
L112.7300 140.2700
" />
<path d="M109.7700 141.7300
L109.7700 140.2700
" />
<path d="M112.7300 140.2700
L112.7300 141.7300
" />
<path d="M112.7300 141.7300
L109.7700 141.7300
" />
<path d="M145.8190 131.3450
L145.8190 118.8450
" />
<path d="M160.8190 118.8450
L145.8190 118.8450
" />
<path d="M160.8190 131.3450
L145.8190 131.3450
" />
<path d="M160.8190 131.3450
L160.8190 118.8450
" />
<path d="M60.6800 141.6900
L60.6800 157.9300
" />
<path d="M60.6800 157.9300
L66.7700 157.9300
" />
<path d="M66.7700 141.6900
L60.6800 141.6900
" />
<path d="M66.7700 157.9300
L66.7700 141.6900
" />
<circle cx="65.5320" cy="131.3820" r="3.4500" /> 
<path d="M60.2000 161.2000
L60.2000 164.8000
" />
<path d="M60.2000 164.8000
L160.3000 164.8000
" />
<path d="M160.3000 161.2000
L60.2000 161.2000
" />
<path d="M160.3000 164.8000
L160.3000 161.2000
" />
<path d="M79.9450 147.8500
L80.3250 147.8500
" />
<path d="M79.9450 155.8500
L79.9450 147.8500
" />
<path d="M80.3250 145.9200
L92.8650 145.9200
" />
<path d="M80.3250 147.8500
L80.3250 145.9200
" />
<path d="M80.3250 155.8500
L79.9450 155.8500
" />
<path d="M80.3250 157.7800
L80.3250 155.8500
" />
<path d="M92.8650 145.9200
L92.8650 147.8500
" />
<path d="M92.8650 147.8500
L93.2450 147.8500
" />
<path d="M92.8650 155.8500
L92.8650 157.7800
" />
<path d="M92.8650 157.7800
L80.3250 157.7800
" />
<path d="M93.2450 147.8500
L93.2450 155.8500
" />
<path d="M93.2450 155.8500
L92.8650 155.8500
" />
<path d="M120.7700 127.9002
L122.2300 127.9002
" />
<path d="M120.7700 130.8602
L120.7700 127.9002
" />
<path d="M122.2300 127.9002
L122.2300 130.8602
" />
<path d="M122.2300 130.8602
L120.7700 130.8602
" />
<path d="M115.7700 127.9002
L117.2300 127.9002
" />
<path d="M115.7700 130.8602
L115.7700 127.9002
" />
<path d="M117.2300 127.9002
L117.2300 130.8602
" />
<path d="M117.2300 130.8602
L115.7700 130.8602
" />
<path d="M118.5200 127.9002
L119.9800 127.9002
" />
<path d="M118.5200 130.8602
L118.5200 127.9002
" />
<path d="M119.9800 127.9002
L119.9800 130.8602
" />
<path d="M119.9800 130.8602
L118.5200 130.8602
" />
<path d="M113.5500 148.0000
L113.9900 148.0000
" />
<path d="M113.5500 156.0000
L113.5500 148.0000
" />
<path d="M113.9900 146.1000
L129.0100 146.1000
" />
<path d="M113.9900 148.0000
L113.9900 146.1000
" />
<path d="M113.9900 156.0000
L113.5500 156.0000
" />
<path d="M113.9900 157.9000
L113.9900 156.0000
" />
<path d="M129.0100 146.1000
L129.0100 148.0000
" />
<path d="M129.0100 148.0000
L129.4500 148.0000
" />
<path d="M129.0100 156.0000
L129.0100 157.9000
" />
<path d="M129.0100 157.9000
L113.9900 157.9000
" />
<path d="M129.4500 148.0000
L129.4500 156.0000
" />
<path d="M129.4500 156.0000
L129.0100 156.0000
" />
<path d="M78.5200 144.2700
L81.4800 144.2700
" />
<path d="M78.5200 145.7300
L78.5200 144.2700
" />
<path d="M81.4800 144.2700
L81.4800 145.7300
" />
<path d="M81.4800 145.7300
L78.5200 145.7300
" />
<path style="fill:none; 
stroke:#000000; stroke-width:0.0500; stroke-opacity:1; 
stroke-linecap:round; stroke-linejoin:round;fill:none"
d="M 103.2500,145.5000
111.2500,145.5000
111.2500,152.0000
103.2500,152.0000
Z" /> 
<path d="M92.2700 135.6450
L93.7300 135.6450
" />
<path d="M92.2700 138.6050
L92.2700 135.6450
" />
<path d="M93.7300 135.6450
L93.7300 138.6050
" />
<path d="M93.7300 138.6050
L92.2700 138.6050
" />
<path d="M113.6000 135.4700
L114.0000 135.4700
" />
<path d="M113.6000 140.5300
L113.6000 135.4700
" />
<path d="M114.0000 133.7000
L124.0000 133.7000
" />
<path d="M114.0000 135.4700
L114.0000 133.7000
" />
<path d="M114.0000 140.5300
L113.6000 140.5300
" />
<path d="M114.0000 142.3000
L114.0000 140.5300
" />
<path d="M124.0000 133.7000
L124.0000 135.4700
" />
<path d="M124.0000 135.4700
L124.4000 135.4700
" />
<path d="M124.0000 140.5300
L124.0000 142.3000
" />
<path d="M124.0000 142.3000
L114.0000 142.3000
" />
<path d="M124.4000 135.4700
L124.4000 140.5300
" />
<path d="M124.4000 140.5300
L124.0000 140.5300
" />
<path d="M81.2700 135.6325
L82.7300 135.6325
" />
<path d="M81.2700 138.5925
L81.2700 135.6325
" />
<path d="M82.7300 135.6325
L82.7300 138.5925
" />
<path d="M82.7300 138.5925
L81.2700 138.5925
" />
<path d="M72.6825 155.2700
L75.6425 155.2700
" />
<path d="M72.6825 156.7300
L72.6825 155.2700
" />
<path d="M75.6425 155.2700
L75.6425 156.7300
" />
<path d="M75.6425 156.7300
L72.6825 156.7300
" />
<path d="M119.7700 116.4950
L121.2300 116.4950
" />
<path d="M119.7700 119.4550
L119.7700 116.4950
" />
<path d="M121.2300 116.4950
L121.2300 119.4550
" />
<path d="M121.2300 119.4550
L119.7700 119.4550
" />
<path d="M72.6825 152.7700
L75.6425 152.7700
" />
<path d="M72.6825 154.2300
L72.6825 152.7700
" />
<path d="M75.6425 152.7700
L75.6425 154.2300
" />
<path d="M75.6425 154.2300
L72.6825 154.2300
" />
<path d="M139.4450 119.2700
L142.4050 119.2700
" />
<path d="M139.4450 120.7300
L139.4450 119.2700
" />
<path d="M142.4050 119.2700
L142.4050 120.7300
" />
<path d="M142.4050 120.7300
L139.4450 120.7300
" />
<path d="M122.5200 127.9502
L123.9800 127.9502
" />
<path d="M122.5200 130.9102
L122.5200 127.9502
" />
<path d="M123.9800 127.9502
L123.9800 130.9102
" />
<path d="M123.9800 130.9102
L122.5200 130.9102
" />
<path d="M139.1950 129.5200
L142.1550 129.5200
" />
<path d="M139.1950 130.9800
L139.1950 129.5200
" />
<path d="M142.1550 129.5200
L142.1550 130.9800
" />
<path d="M142.1550 130.9800
L139.1950 130.9800
" />
<path d="M72.6825 147.7700
L75.6425 147.7700
" />
<path d="M72.6825 149.2300
L72.6825 147.7700
" />
<path d="M75.6425 147.7700
L75.6425 149.2300
" />
<path d="M75.6425 149.2300
L72.6825 149.2300
" />
<path d="M72.6825 142.7700
L75.6425 142.7700
" />
<path d="M72.6825 144.2300
L72.6825 142.7700
" />
<path d="M75.6425 142.7700
L75.6425 144.2300
" />
<path d="M75.6425 144.2300
L72.6825 144.2300
" />
<path d="M117.0700 116.5200
L118.5300 116.5200
" />
<path d="M117.0700 119.4800
L117.0700 116.5200
" />
<path d="M118.5300 116.5200
L118.5300 119.4800
" />
<path d="M118.5300 119.4800
L117.0700 119.4800
" />
<path d="M72.6825 145.2700
L75.6425 145.2700
" />
<path d="M72.6825 146.7300
L72.6825 145.2700
" />
<path d="M75.6425 145.2700
L75.6425 146.7300
" />
<path d="M75.6425 146.7300
L72.6825 146.7300
" />
<path d="M114.5575 121.3177
L114.7775 121.3177
" />
<path d="M114.5575 125.7177
L114.5575 121.3177
" />
<path d="M114.7775 119.8177
L123.4975 119.8177
" />
<path d="M114.7775 121.3177
L114.7775 119.8177
" />
<path d="M114.7775 125.7177
L114.5575 125.7177
" />
<path d="M114.7775 127.2177
L114.7775 125.7177
" />
<path d="M123.4975 119.8177
L123.4975 121.3177
" />
<path d="M123.4975 121.3177
L123.7175 121.3177
" />
<path d="M123.4975 125.7177
L123.4975 127.2177
" />
<path d="M123.4975 127.2177
L114.7775 127.2177
" />
<path d="M123.7175 121.3177
L123.7175 125.7177
" />
<path d="M123.7175 125.7177
L123.4975 125.7177
" />
<path d="M129.8000 129.2000
L129.8000 131.3000
" />
<path d="M129.8000 131.3000
L130.8500 131.3000
" />
<path d="M130.8500 128.5000
L130.8500 129.2000
" />
<path d="M130.8500 128.5000
L132.0000 127.3500
" />
<path d="M130.8500 129.2000
L129.8000 129.2000
" />
<path d="M130.8500 131.3000
L130.8500 132.0000
" />
<path d="M130.8500 132.0000
L132.0000 133.1500
" />
<path d="M132.0000 127.3500
L136.6500 127.3500
" />
<path d="M132.0000 133.1500
L136.6500 133.1500
" />
<path d="M136.6500 127.3500
L136.6500 129.2000
" />
<path d="M136.6500 129.2000
L137.7000 129.2000
" />
<path d="M136.6500 131.3000
L136.6500 133.1500
" />
<path d="M137.7000 129.2000
L137.7000 131.3000
" />
<path d="M137.7000 131.3000
L136.6500 131.3000
" />
<path d="M88.8500 134.9000
L91.1500 134.9000
" />
<path d="M88.8500 139.5000
L88.8500 134.9000
" />
<path d="M91.1500 134.9000
L91.1500 139.5000
" />
<path d="M91.1500 139.5000
L88.8500 139.5000
" />
<path d="M72.6825 150.2700
L75.6425 150.2700
" />
<path d="M72.6825 151.7300
L72.6825 150.2700
" />
<path d="M75.6425 150.2700
L75.6425 151.7300
" />
<path d="M75.6425 151.7300
L72.6825 151.7300
" />
<path d="M95.0500 134.9000
L97.3500 134.9000
" />
<path d="M95.0500 139.5000
L95.0500 134.9000
" />
<path d="M97.3500 134.9000
L97.3500 139.5000
" />
<path d="M97.3500 139.5000
L95.0500 139.5000
" />
<path d="M129.5500 118.9500
L129.5500 121.0500
" />
<path d="M129.5500 121.0500
L130.6000 121.0500
" />
<path d="M130.6000 118.2500
L130.6000 118.9500
" />
<path d="M130.6000 118.2500
L131.7500 117.1000
" />
<path d="M130.6000 118.9500
L129.5500 118.9500
" />
<path d="M130.6000 121.0500
L130.6000 121.7500
" />
<path d="M130.6000 121.7500
L131.7500 122.9000
" />
<path d="M131.7500 117.1000
L136.4000 117.1000
" />
<path d="M131.7500 122.9000
L136.4000 122.9000
" />
<path d="M136.4000 117.1000
L136.4000 118.9500
" />
<path d="M136.4000 118.9500
L137.4500 118.9500
" />
<path d="M136.4000 121.0500
L136.4000 122.9000
" />
<path d="M137.4500 118.9500
L137.4500 121.0500
" />
<path d="M137.4500 121.0500
L136.4000 121.0500
" />
<path d="M101.0200 148.5200
L102.4800 148.5200
" />
<path d="M101.0200 151.4800
L101.0200 148.5200
" />
<path d="M102.4800 148.5200
L102.4800 151.4800
" />
<path d="M102.4800 151.4800
L101.0200 151.4800
" />
<path d="M139.4450 124.5200
L142.4050 124.5200
" />
<path d="M139.4450 125.9800
L139.4450 124.5200
" />
<path d="M142.4050 124.5200
L142.4050 125.9800
" />
<path d="M142.4050 125.9800
L139.4450 125.9800
" />
<path d="M139.2700 134.5200
L142.2300 134.5200
" />
<path d="M139.2700 135.9800
L139.2700 134.5200
" />
<path d="M142.2300 134.5200
L142.2300 135.9800
" />
<path d="M142.2300 135.9800
L139.2700 135.9800
" />
<path d="M86.2700 135.6325
L87.7300 135.6325
" />
<path d="M86.2700 138.5925
L86.2700 135.6325
" />
<path d="M87.7300 135.6325
L87.7300 138.5925
" />
<path d="M87.7300 138.5925
L86.2700 138.5925
" />
<path d="M83.7700 135.6450
L85.2300 135.6450
" />
<path d="M83.7700 138.6050
L83.7700 135.6450
" />
<path d="M85.2300 135.6450
L85.2300 138.6050
" />
<path d="M85.2300 138.6050
L83.7700 138.6050
" />
</g> 
</svg>
