<?xml version="1.0" standalone="no"?>
 <!DOCTYPE svg PUBLIC "-//W3C//DTD SVG 1.1//EN" 
 "http://www.w3.org/Graphics/SVG/1.1/DTD/svg11.dtd"> 
<svg
  xmlns:svg="http://www.w3.org/2000/svg"
  xmlns="http://www.w3.org/2000/svg"
  xmlns:xlink="http://www.w3.org/1999/xlink"
  version="1.1"
  width="297.0022mm" height="210.0072mm" viewBox="0.0000 0.0000 297.0022 210.0072">
<title>SVG Image created as rcbus-ymf262-B_Cu0.svg date 2025/08/20 22:38:25 </title>
  <desc>Image generated by PCBNEW </desc>
<g style="fill:#000000; fill-opacity:1.0000;stroke:#000000; stroke-opacity:1.0000;
stroke-linecap:round; stroke-linejoin:round;"
 transform="translate(0 0) scale(1 1)">
<path style="fill:#000000; fill-opacity:1.0000; stroke:none;fill-rule:evenodd;"
d="M 146.6832,129.1950
146.6832,130.9950
149.1832,130.9950
149.1832,129.1950
Z" /> 
<path style="fill:#000000; fill-opacity:1.0000; stroke:none;fill-rule:evenodd;"
d="M 146.6832,126.6950
146.6832,128.4950
149.1832,128.4950
149.1832,126.6950
Z" /> 
<path style="fill:#000000; fill-opacity:1.0000; stroke:none;fill-rule:evenodd;"
d="M 142.0332,123.8450
142.0332,126.3450
143.8332,126.3450
143.8332,123.8450
Z" /> 
<path style="fill:#000000; fill-opacity:1.0000; stroke:none;fill-rule:evenodd;"
d="M 146.6832,119.1950
146.6832,120.9950
149.1832,120.9950
149.1832,119.1950
Z" /> 
<path style="fill:#000000; fill-opacity:1.0000; stroke:none;fill-rule:evenodd;"
d="M 146.6832,121.6950
146.6832,123.4950
149.1832,123.4950
149.1832,121.6950
Z" /> 
<path style="fill:#000000; fill-opacity:1.0000; stroke:none;fill-rule:evenodd;"
d="M 231.1522,155.3100
231.1522,157.0100
232.8522,157.0100
232.8522,155.3100
Z" /> 
</g>
<g style="fill:#000000; fill-opacity:1.0000; stroke:none;">
<circle cx="234.5422" cy="156.1600" r="0.8500" /> 
</g>
<g style="fill:#000000; fill-opacity:1.0000; stroke:none;">
<circle cx="232.0022" cy="153.6200" r="0.8500" /> 
</g>
<g style="fill:#000000; fill-opacity:1.0000; stroke:none;">
<circle cx="234.5422" cy="153.6200" r="0.8500" /> 
</g>
<g style="fill:#000000; fill-opacity:1.0000; stroke:none;">
<circle cx="232.0022" cy="151.0800" r="0.8500" /> 
</g>
<g style="fill:#000000; fill-opacity:1.0000; stroke:none;">
<circle cx="234.5422" cy="151.0800" r="0.8500" /> 
</g>
<g style="fill:#000000; fill-opacity:1.0000; stroke:none;">
<circle cx="232.0022" cy="148.5400" r="0.8500" /> 
</g>
<g style="fill:#000000; fill-opacity:1.0000; stroke:none;">
<circle cx="234.5422" cy="148.5400" r="0.8500" /> 
</g>
<g style="fill:#000000; fill-opacity:1.0000; stroke:none;">
<circle cx="232.0022" cy="146.0000" r="0.8500" /> 
</g>
<g style="fill:#000000; fill-opacity:1.0000; stroke:none;">
<circle cx="234.5422" cy="146.0000" r="0.8500" /> 
</g>
<g style="fill:#000000; fill-opacity:1.0000; stroke:none;">
<circle cx="232.0022" cy="143.4600" r="0.8500" /> 
</g>
<g style="fill:#000000; fill-opacity:1.0000; stroke:none;">
<circle cx="234.5422" cy="143.4600" r="0.8500" /> 
<path style="fill:#000000; fill-opacity:1.0000; stroke:none;fill-rule:evenodd;"
d="M 210.9222,139.4400
210.9222,137.8400
209.3222,137.8400
209.3222,139.4400
Z" /> 
</g>
<g style="fill:#000000; fill-opacity:1.0000; stroke:none;">
<circle cx="202.5022" cy="138.6400" r="0.8000" /> 
</g>
<g style="fill:#000000; fill-opacity:1.0000; stroke:none;">
<circle cx="194.8822" cy="138.6400" r="0.8000" /> 
</g>
<g style="fill:#000000; fill-opacity:1.0000; stroke:none;">
<circle cx="194.8822" cy="131.0200" r="0.8000" /> 
</g>
<g style="fill:#000000; fill-opacity:1.0000; stroke:none;">
<circle cx="202.5022" cy="131.0200" r="0.8000" /> 
</g>
<g style="fill:#000000; fill-opacity:1.0000; stroke:none;">
<circle cx="210.1222" cy="131.0200" r="0.8000" /> 
<path style="fill:#000000; fill-opacity:1.0000; stroke:none;fill-rule:evenodd;"
d="M 234.1522,163.8500
235.8522,163.8500
235.8522,162.1500
234.1522,162.1500
Z" /> 
</g>
<g style="fill:#000000; fill-opacity:1.0000; stroke:none;">
<circle cx="232.4622" cy="163.0000" r="0.8500" /> 
<circle cx="229.9222" cy="163.0000" r="0.8500" /> 
<circle cx="227.3822" cy="163.0000" r="0.8500" /> 
<circle cx="224.8422" cy="163.0000" r="0.8500" /> 
<circle cx="222.3022" cy="163.0000" r="0.8500" /> 
<circle cx="219.7622" cy="163.0000" r="0.8500" /> 
<circle cx="217.2222" cy="163.0000" r="0.8500" /> 
<circle cx="214.6822" cy="163.0000" r="0.8500" /> 
<circle cx="212.1422" cy="163.0000" r="0.8500" /> 
<circle cx="209.6022" cy="163.0000" r="0.8500" /> 
<circle cx="207.0622" cy="163.0000" r="0.8500" /> 
<circle cx="204.5222" cy="163.0000" r="0.8500" /> 
<circle cx="201.9822" cy="163.0000" r="0.8500" /> 
<circle cx="199.4422" cy="163.0000" r="0.8500" /> 
<circle cx="196.9022" cy="163.0000" r="0.8500" /> 
<circle cx="194.3622" cy="163.0000" r="0.8500" /> 
<circle cx="191.8222" cy="163.0000" r="0.8500" /> 
<circle cx="189.2822" cy="163.0000" r="0.8500" /> 
<circle cx="186.7422" cy="163.0000" r="0.8500" /> 
<circle cx="184.2022" cy="163.0000" r="0.8500" /> 
<circle cx="181.6622" cy="163.0000" r="0.8500" /> 
<circle cx="179.1222" cy="163.0000" r="0.8500" /> 
<circle cx="176.5822" cy="163.0000" r="0.8500" /> 
<circle cx="174.0422" cy="163.0000" r="0.8500" /> 
<circle cx="171.5022" cy="163.0000" r="0.8500" /> 
<circle cx="168.9622" cy="163.0000" r="0.8500" /> 
<circle cx="166.4222" cy="163.0000" r="0.8500" /> 
<circle cx="163.8822" cy="163.0000" r="0.8500" /> 
<circle cx="161.3422" cy="163.0000" r="0.8500" /> 
<circle cx="158.8022" cy="163.0000" r="0.8500" /> 
<circle cx="156.2622" cy="163.0000" r="0.8500" /> 
<circle cx="153.7222" cy="163.0000" r="0.8500" /> 
<circle cx="151.1822" cy="163.0000" r="0.8500" /> 
<circle cx="148.6422" cy="163.0000" r="0.8500" /> 
<circle cx="146.1022" cy="163.0000" r="0.8500" /> 
<circle cx="143.5622" cy="163.0000" r="0.8500" /> 
<circle cx="141.0222" cy="163.0000" r="0.8500" /> 
<circle cx="138.4822" cy="163.0000" r="0.8500" /> 
<circle cx="207.0960" cy="154.2421" r="0.3429" /> 
</g>
<g style="fill:#000000; fill-opacity:1.0000; stroke:none;">
<circle cx="211.0022" cy="115.0000" r="0.3429" /> 
</g>
<g style="fill:#000000; fill-opacity:1.0000; stroke:none;">
<circle cx="187.9022" cy="141.8000" r="0.3429" /> 
</g>
<g style="fill:#000000; fill-opacity:1.0000; stroke:none;">
<circle cx="221.0022" cy="115.0000" r="0.3429" /> 
</g>
<g style="fill:#000000; fill-opacity:1.0000; stroke:none;">
<circle cx="216.0022" cy="115.0000" r="0.3429" /> 
</g>
<g style="fill:#000000; fill-opacity:1.0000; stroke:none;">
<circle cx="168.5172" cy="158.5000" r="0.3429" /> 
</g>
<g style="fill:#000000; fill-opacity:1.0000; stroke:none;">
<circle cx="190.0022" cy="115.0000" r="0.3429" /> 
</g>
<g style="fill:#000000; fill-opacity:1.0000; stroke:none;">
<circle cx="171.0022" cy="131.0000" r="0.3429" /> 
</g>
<g style="fill:#000000; fill-opacity:1.0000; stroke:none;">
<circle cx="181.2022" cy="141.4000" r="0.3429" /> 
</g>
<g style="fill:#000000; fill-opacity:1.0000; stroke:none;">
<circle cx="178.0022" cy="120.7500" r="0.3429" /> 
</g>
<g style="fill:#000000; fill-opacity:1.0000; stroke:none;">
<circle cx="213.2711" cy="145.8819" r="0.3429" /> 
</g>
<g style="fill:#000000; fill-opacity:1.0000; stroke:none;">
<circle cx="177.7522" cy="133.7500" r="0.3429" /> 
</g>
<g style="fill:#000000; fill-opacity:1.0000; stroke:none;">
<circle cx="182.0022" cy="132.2500" r="0.3429" /> 
</g>
<g style="fill:#000000; fill-opacity:1.0000; stroke:none;">
<circle cx="201.0022" cy="115.0000" r="0.3429" /> 
</g>
<g style="fill:#000000; fill-opacity:1.0000; stroke:none;">
<circle cx="196.0022" cy="115.0000" r="0.3429" /> 
</g>
<g style="fill:#000000; fill-opacity:1.0000; stroke:none;">
<circle cx="153.3001" cy="115.9875" r="0.3429" /> 
</g>
<g style="fill:#000000; fill-opacity:1.0000; stroke:none;">
<circle cx="203.5630" cy="158.5037" r="0.3429" /> 
</g>
<g style="fill:#000000; fill-opacity:1.0000; stroke:none;">
<circle cx="206.0022" cy="115.0000" r="0.3429" /> 
</g>
<g style="fill:#000000; fill-opacity:1.0000; stroke:none;">
<circle cx="153.2022" cy="120.1000" r="0.3429" /> 
</g>
<g style="fill:#000000; fill-opacity:1.0000; stroke:none;">
<circle cx="173.2022" cy="158.5000" r="0.3429" /> 
</g>
<g style="fill:#000000; fill-opacity:1.0000; stroke:none;">
<circle cx="212.0022" cy="154.4500" r="0.3429" /> 
</g>
<g style="fill:#000000; fill-opacity:1.0000; stroke:none;">
<circle cx="177.4648" cy="145.1437" r="0.3429" /> 
</g>
<g style="fill:#000000; fill-opacity:1.0000; stroke:none;">
<circle cx="180.3022" cy="145.4000" r="0.3429" /> 
</g>
<g style="fill:#000000; fill-opacity:1.0000; stroke:none;">
<circle cx="158.1848" cy="145.4681" r="0.3429" /> 
</g>
<g style="fill:#000000; fill-opacity:1.0000; stroke:none;">
<circle cx="145.7083" cy="146.2953" r="0.3429" /> 
</g>
<g style="fill:#000000; fill-opacity:1.0000; stroke:none;">
<circle cx="152.8415" cy="145.8700" r="0.3429" /> 
</g>
<g style="fill:#000000; fill-opacity:1.0000; stroke:none;">
<circle cx="172.5022" cy="128.0000" r="0.3429" /> 
</g>
<g style="fill:#000000; fill-opacity:1.0000; stroke:none;">
<circle cx="176.5022" cy="124.5000" r="0.3429" /> 
</g>
<g style="fill:#000000; fill-opacity:1.0000; stroke:none;">
<circle cx="148.4063" cy="146.5043" r="0.3429" /> 
</g>
<g style="fill:#000000; fill-opacity:1.0000; stroke:none;">
<circle cx="220.3022" cy="156.0000" r="0.3429" /> 
</g>
<g style="fill:#000000; fill-opacity:1.0000; stroke:none;">
<circle cx="208.5022" cy="150.4748" r="0.3429" /> 
</g>
<g style="fill:#000000; fill-opacity:1.0000; stroke:none;">
<circle cx="215.6340" cy="153.1182" r="0.3429" /> 
</g>
<g style="fill:#000000; fill-opacity:1.0000; stroke:none;">
<circle cx="211.1063" cy="151.2400" r="0.3429" /> 
</g>
<g style="fill:#000000; fill-opacity:1.0000; stroke:none;">
<circle cx="220.3022" cy="146.0000" r="0.3429" /> 
</g>
<g style="fill:#000000; fill-opacity:1.0000; stroke:none;">
<circle cx="211.0184" cy="153.4498" r="0.3429" /> 
</g>
<g style="fill:#000000; fill-opacity:1.0000; stroke:none;">
<circle cx="220.3022" cy="148.5000" r="0.3429" /> 
</g>
<g style="fill:#000000; fill-opacity:1.0000; stroke:none;">
<circle cx="220.7215" cy="143.9193" r="0.3429" /> 
</g>
<g style="fill:#000000; fill-opacity:1.0000; stroke:none;">
<circle cx="224.0456" cy="144.8148" r="0.3429" /> 
</g>
<g style="fill:#000000; fill-opacity:1.0000; stroke:none;">
<circle cx="214.2022" cy="159.6000" r="0.3429" /> 
</g>
<g style="fill:#000000; fill-opacity:1.0000; stroke:none;">
<circle cx="220.3022" cy="153.5000" r="0.3429" /> 
</g>
<g style="fill:#000000; fill-opacity:1.0000; stroke:none;">
<circle cx="218.1970" cy="153.4718" r="0.3429" /> 
</g>
<g style="fill:#000000; fill-opacity:1.0000; stroke:none;">
<circle cx="206.5022" cy="149.8176" r="0.3429" /> 
</g>
<g style="fill:#000000; fill-opacity:1.0000; stroke:none;">
<circle cx="216.1279" cy="151.4544" r="0.3429" /> 
</g>
<g style="fill:#000000; fill-opacity:1.0000; stroke:none;">
<circle cx="220.3022" cy="151.0000" r="0.3429" /> 
</g>
<g style="fill:#000000; fill-opacity:1.0000; stroke:none;">
<circle cx="217.8254" cy="151.8808" r="0.3429" /> 
</g>
<g style="fill:none; 
stroke:#000000; stroke-width:0.3810; stroke-opacity:1; 
stroke-linecap:round; stroke-linejoin:round;">
<path d="M206.5113 154.8268
L207.0960 154.2421
" />
<path d="M203.7838 154.8268
L206.5113 154.8268
" />
<path d="M193.2437 161.5785
L194.9257 161.5785
" />
<path d="M197.7941 160.8165
L203.7838 154.8268
" />
<path d="M191.8222 163.0000
L193.2437 161.5785
" />
<path d="M195.6877 160.8165
L197.7941 160.8165
" />
<path d="M194.9257 161.5785
L195.6877 160.8165
" />
<path d="M203.5630 158.5037
L200.4882 161.5785
" />
<path d="M194.4022 163.0000
L194.3622 163.0000
" />
<path d="M200.4882 161.5785
L195.8237 161.5785
" />
<path d="M195.8237 161.5785
L194.4022 163.0000
" />
<path d="M210.9050 154.4500
L212.0022 154.4500
" />
<path d="M178.4522 153.2500
L209.7050 153.2500
" />
<path d="M209.7050 153.2500
L210.9050 154.4500
" />
<path d="M173.2022 158.5000
L178.4522 153.2500
" />
<path d="M177.5211 145.2000
L177.4648 145.1437
" />
<path d="M178.7744 145.4000
L178.5744 145.2000
" />
<path d="M180.3022 145.4000
L178.7744 145.4000
" />
<path d="M178.5744 145.2000
L177.5211 145.2000
" />
<path d="M148.0275 145.5899
L148.7851 145.5899
" />
<path d="M145.7083 146.2953
L147.3221 146.2953
" />
<path d="M149.0652 145.8700
L152.8415 145.8700
" />
<path d="M152.8415 145.8700
L153.2434 145.4681
" />
<path d="M147.3221 146.2953
L148.0275 145.5899
" />
<path d="M153.2434 145.4681
L158.1848 145.4681
" />
<path d="M148.7851 145.5899
L149.0652 145.8700
" />
<path d="M172.5022 128.0000
L176.0022 124.5000
" />
<path d="M176.0022 124.5000
L176.5022 124.5000
" />
<path d="M148.4063 146.5043
L148.6864 146.7844
" />
<path d="M212.9684 150.4526
L215.6340 153.1182
" />
<path d="M208.5022 150.4748
L210.5581 150.4748
" />
<path d="M210.5803 150.4526
L212.9684 150.4526
" />
<path d="M210.5581 150.4748
L210.5803 150.4526
" />
<path d="M211.0184 151.3279
L211.0184 153.4498
" />
<path d="M211.1063 151.2400
L211.0184 151.3279
" />
<path d="M219.0158 159.6000
L214.2022 159.6000
" />
<path d="M224.0456 154.5702
L219.0158 159.6000
" />
<path d="M224.0456 144.8148
L224.0456 154.5702
" />
<path d="M206.5022 149.8176
L208.0458 149.8176
" />
<path d="M213.2314 149.8176
L215.7446 152.3308
" />
<path d="M215.7446 152.3308
L217.0560 152.3308
" />
<path d="M208.8284 149.6874
L208.9586 149.8176
" />
<path d="M208.1760 149.6874
L208.8284 149.6874
" />
<path d="M217.0560 152.3308
L218.1970 153.4718
" />
<path d="M208.0458 149.8176
L208.1760 149.6874
" />
<path d="M208.9586 149.8176
L213.2314 149.8176
" />
<path d="M217.8254 151.8808
L217.3990 151.4544
" />
<path d="M217.3990 151.4544
L216.1279 151.4544
" />
<path style="fill:#000000; fill-opacity:1.0000; stroke:none;fill-rule:evenodd;"
d="M 141.9996,114.5756
141.5594,114.5938
141.5491,114.5947
141.1145,114.6488
141.1043,114.6506
140.6757,114.7404
140.6656,114.7430
140.2458,114.8679
140.2360,114.8713
140.0786,114.9327
139.8281,115.0305
139.8185,115.0347
139.4251,115.2270
139.4159,115.2320
139.0398,115.4561
139.0310,115.4618
138.6746,115.7163
138.6664,115.7227
138.3322,116.0057
138.3246,116.0128
138.0150,116.3224
138.0079,116.3300
137.7249,116.6642
137.7185,116.6724
137.4640,117.0288
137.4583,117.0376
137.2342,117.4137
137.2292,117.4229
137.0369,117.8163
137.0327,117.8259
136.8735,118.2338
136.8701,118.2437
136.7452,118.6634
136.7426,118.6735
136.6528,119.1021
136.6510,119.1123
136.5969,119.5469
136.5960,119.5573
136.5778,119.9974
136.5777,120.0026
136.5777,121.3375
136.5977,121.4056
136.6514,121.4521
136.7037,121.4635
137.4657,121.4635
137.4902,121.4635
137.5861,121.4635
137.7755,121.4935
137.7755,121.4935
137.7755,121.4935
137.9579,121.5528
138.1288,121.6398
138.2840,121.7526
138.2840,121.7526
138.4196,121.8882
138.4196,121.8882
138.5324,122.0434
138.6194,122.2143
138.6528,122.3169
138.6787,122.3967
138.7087,122.5861
138.7087,122.6670
138.7087,127.4835
138.7087,127.5080
138.7087,127.6039
138.6787,127.7933
138.6787,127.7933
138.6385,127.9169
138.6194,127.9757
138.5324,128.1466
138.4196,128.3018
138.4196,128.3018
138.4196,128.3018
138.2840,128.4374
138.2840,128.4374
138.2840,128.4374
138.1288,128.5502
137.9579,128.6372
137.7755,128.6965
137.5861,128.7265
137.5052,128.7265
136.7037,128.7265
136.6356,128.7465
136.5891,128.8002
136.5777,128.8525
136.5777,164.2985
136.5977,164.3666
136.6514,164.4131
136.7037,164.4245
137.7784,164.4245
137.8465,164.4045
137.8930,164.3508
137.9031,164.2806
137.8736,164.2160
137.8356,164.1862
137.7744,164.1551
137.6024,164.0301
137.4521,163.8798
137.3271,163.7078
137.2306,163.5184
137.1650,163.3162
137.1317,163.1063
137.1317,162.8937
137.1650,162.6838
137.2306,162.4816
137.3271,162.2922
137.4521,162.1202
137.4521,162.1202
137.4521,162.1202
137.6024,161.9699
137.6024,161.9699
137.6024,161.9699
137.7744,161.8449
137.9638,161.7484
138.1660,161.6828
138.3759,161.6495
138.5885,161.6495
138.7984,161.6828
138.7984,161.6828
138.7984,161.6828
139.0006,161.7484
139.0006,161.7484
139.1900,161.8450
139.3620,161.9699
139.3620,161.9699
139.5123,162.1202
139.5123,162.1202
139.6373,162.2922
139.6399,162.2975
139.6887,162.3491
139.7576,162.3661
139.8248,162.3432
139.8645,162.2975
139.8670,162.2925
139.8671,162.2922
139.9921,162.1202
139.9921,162.1202
139.9921,162.1202
140.1424,161.9699
140.1424,161.9699
140.1424,161.9699
140.3144,161.8449
140.5038,161.7484
140.7060,161.6828
140.9159,161.6495
141.1285,161.6495
141.3384,161.6828
141.3384,161.6828
141.3384,161.6828
141.5406,161.7484
141.5406,161.7484
141.7300,161.8450
141.9020,161.9699
141.9020,161.9699
142.0523,162.1202
142.0523,162.1202
142.1773,162.2922
142.1799,162.2975
142.2287,162.3491
142.2976,162.3661
142.3648,162.3432
142.4045,162.2975
142.4070,162.2925
142.4071,162.2922
142.5321,162.1202
142.5321,162.1202
142.5321,162.1202
142.6824,161.9699
142.6824,161.9699
142.6824,161.9699
142.8544,161.8449
143.0438,161.7484
143.2460,161.6828
143.4559,161.6495
143.6685,161.6495
143.8784,161.6828
143.8784,161.6828
143.8784,161.6828
144.0806,161.7484
144.0806,161.7484
144.2700,161.8450
144.4420,161.9699
144.4420,161.9699
144.5923,162.1202
144.5923,162.1202
144.7173,162.2922
144.7199,162.2975
144.7687,162.3491
144.8376,162.3661
144.9048,162.3432
144.9445,162.2975
144.9470,162.2925
144.9471,162.2922
145.0721,162.1202
145.0721,162.1202
145.0721,162.1202
145.2224,161.9699
145.2224,161.9699
145.2224,161.9699
145.3944,161.8449
145.5838,161.7484
145.7860,161.6828
145.9959,161.6495
146.2085,161.6495
146.4184,161.6828
146.4184,161.6828
146.4184,161.6828
146.6206,161.7484
146.6206,161.7484
146.8100,161.8450
146.9820,161.9699
146.9820,161.9699
147.1323,162.1202
147.1323,162.1202
147.2573,162.2922
147.2599,162.2975
147.3087,162.3491
147.3776,162.3661
147.4448,162.3432
147.4845,162.2975
147.4870,162.2925
147.4871,162.2922
147.6121,162.1202
147.6121,162.1202
147.6121,162.1202
147.7624,161.9699
147.7624,161.9699
147.7624,161.9699
147.9344,161.8449
148.1238,161.7484
148.3260,161.6828
148.5359,161.6495
148.7485,161.6495
148.9584,161.6828
148.9584,161.6828
148.9584,161.6828
149.1606,161.7484
149.1606,161.7484
149.3500,161.8450
149.5220,161.9699
149.5220,161.9699
149.6723,162.1202
149.6723,162.1202
149.7973,162.2922
149.7999,162.2975
149.8487,162.3491
149.9176,162.3661
149.9848,162.3432
150.0245,162.2975
150.0270,162.2925
150.0271,162.2922
150.1521,162.1202
150.1521,162.1202
150.1521,162.1202
150.3024,161.9699
150.3024,161.9699
150.3024,161.9699
150.4744,161.8449
150.6638,161.7484
150.8660,161.6828
151.0759,161.6495
151.2885,161.6495
151.4984,161.6828
151.4984,161.6828
151.4984,161.6828
151.7006,161.7484
151.7006,161.7484
151.8900,161.8450
152.0620,161.9699
152.0620,161.9699
152.2123,162.1202
152.2123,162.1202
152.3373,162.2922
152.3399,162.2975
152.3887,162.3491
152.4576,162.3661
152.5248,162.3432
152.5645,162.2975
152.5670,162.2925
152.5671,162.2922
152.6921,162.1202
152.6921,162.1202
152.6921,162.1202
152.8424,161.9699
152.8424,161.9699
152.8424,161.9699
153.0144,161.8449
153.2038,161.7484
153.4060,161.6828
153.6159,161.6495
153.8285,161.6495
154.0384,161.6828
154.0384,161.6828
154.0384,161.6828
154.2406,161.7484
154.2406,161.7484
154.4300,161.8450
154.6020,161.9699
154.6020,161.9699
154.7523,162.1202
154.7523,162.1202
154.8773,162.2922
154.8799,162.2975
154.9287,162.3491
154.9976,162.3661
155.0648,162.3432
155.1045,162.2975
155.1070,162.2925
155.1071,162.2922
155.2321,162.1202
155.2321,162.1202
155.2321,162.1202
155.3824,161.9699
155.3824,161.9699
155.3824,161.9699
155.5544,161.8449
155.7438,161.7484
155.9460,161.6828
156.1559,161.6495
156.3685,161.6495
156.5784,161.6828
156.5784,161.6828
156.5784,161.6828
156.7806,161.7484
156.7806,161.7484
156.9700,161.8450
157.1420,161.9699
157.1420,161.9699
157.2923,162.1202
157.2923,162.1202
157.4173,162.2922
157.4199,162.2975
157.4687,162.3491
157.5376,162.3661
157.6048,162.3432
157.6445,162.2975
157.6470,162.2925
157.6471,162.2922
157.7721,162.1202
157.7721,162.1202
157.7721,162.1202
157.9224,161.9699
157.9224,161.9699
157.9224,161.9699
158.0944,161.8449
158.2838,161.7484
158.4860,161.6828
158.6959,161.6495
158.9085,161.6495
159.1184,161.6828
159.1184,161.6828
159.1184,161.6828
159.3206,161.7484
159.3206,161.7484
159.5100,161.8450
159.6820,161.9699
159.6820,161.9699
159.8323,162.1202
159.8323,162.1202
159.9573,162.2922
159.9599,162.2975
160.0087,162.3491
160.0776,162.3661
160.1448,162.3432
160.1845,162.2975
160.1870,162.2925
160.1871,162.2922
160.3121,162.1202
160.3121,162.1202
160.3121,162.1202
160.4624,161.9699
160.4624,161.9699
160.4624,161.9699
160.6344,161.8449
160.8238,161.7484
161.0260,161.6828
161.2359,161.6495
161.4485,161.6495
161.6584,161.6828
161.6584,161.6828
161.6584,161.6828
161.8606,161.7484
161.8606,161.7484
162.0500,161.8450
162.2220,161.9699
162.2220,161.9699
162.3723,162.1202
162.3723,162.1202
162.4973,162.2922
162.4999,162.2975
162.5487,162.3491
162.6176,162.3661
162.6848,162.3432
162.7245,162.2975
162.7270,162.2925
162.7271,162.2922
162.8521,162.1202
162.8521,162.1202
162.8521,162.1202
163.0024,161.9699
163.0024,161.9699
163.0024,161.9699
163.1744,161.8449
163.3638,161.7484
163.5660,161.6828
163.7759,161.6495
163.9885,161.6495
164.1984,161.6828
164.1984,161.6828
164.1984,161.6828
164.4006,161.7484
164.4006,161.7484
164.5900,161.8450
164.7620,161.9699
164.7620,161.9699
164.9123,162.1202
164.9123,162.1202
165.0373,162.2922
165.0399,162.2975
165.0887,162.3491
165.1576,162.3661
165.2248,162.3432
165.2645,162.2975
165.2670,162.2925
165.2671,162.2922
165.3921,162.1202
165.3921,162.1202
165.3921,162.1202
165.5424,161.9699
165.5424,161.9699
165.5424,161.9699
165.7144,161.8449
165.9038,161.7484
166.1060,161.6828
166.3159,161.6495
166.5285,161.6495
166.7384,161.6828
166.7384,161.6828
166.7384,161.6828
166.9406,161.7484
166.9406,161.7484
167.1300,161.8450
167.3020,161.9699
167.3020,161.9699
167.4523,162.1202
167.4523,162.1202
167.5773,162.2922
167.5799,162.2975
167.6287,162.3491
167.6976,162.3661
167.7648,162.3432
167.8045,162.2975
167.8070,162.2925
167.8071,162.2922
167.9321,162.1202
167.9321,162.1202
167.9321,162.1202
168.0824,161.9699
168.0824,161.9699
168.0824,161.9699
168.2544,161.8449
168.4438,161.7484
168.6460,161.6828
168.8559,161.6495
169.0685,161.6495
169.2784,161.6828
169.2784,161.6828
169.2784,161.6828
169.4806,161.7484
169.4806,161.7484
169.6700,161.8450
169.8420,161.9699
169.8420,161.9699
169.9923,162.1202
169.9923,162.1202
170.1173,162.2922
170.1199,162.2975
170.1687,162.3491
170.2376,162.3661
170.3048,162.3432
170.3445,162.2975
170.3470,162.2925
170.3471,162.2922
170.4721,162.1202
170.4721,162.1202
170.4721,162.1202
170.6224,161.9699
170.6224,161.9699
170.6224,161.9699
170.7944,161.8449
170.9838,161.7484
171.1860,161.6828
171.3959,161.6495
171.6085,161.6495
171.8184,161.6828
171.8184,161.6828
171.8184,161.6828
172.0206,161.7484
172.0206,161.7484
172.2100,161.8450
172.3820,161.9699
172.3820,161.9699
172.5323,162.1202
172.5323,162.1202
172.6573,162.2922
172.6599,162.2975
172.7087,162.3491
172.7776,162.3661
172.8448,162.3432
172.8845,162.2975
172.8870,162.2925
172.8871,162.2922
173.0121,162.1202
173.0121,162.1202
173.0121,162.1202
173.1624,161.9699
173.1624,161.9699
173.1624,161.9699
173.3344,161.8449
173.5238,161.7484
173.7260,161.6828
173.9359,161.6495
174.1485,161.6495
174.3584,161.6828
174.3584,161.6828
174.3584,161.6828
174.5606,161.7484
174.5606,161.7484
174.7500,161.8450
174.9220,161.9699
174.9220,161.9699
175.0723,162.1202
175.0723,162.1202
175.1973,162.2922
175.1999,162.2975
175.2487,162.3491
175.3176,162.3661
175.3848,162.3432
175.4245,162.2975
175.4270,162.2925
175.4271,162.2922
175.5521,162.1202
175.5521,162.1202
175.5521,162.1202
175.7024,161.9699
175.7024,161.9699
175.7024,161.9699
175.8744,161.8449
176.0638,161.7484
176.2660,161.6828
176.4759,161.6495
176.6885,161.6495
176.8984,161.6828
176.8984,161.6828
176.8984,161.6828
177.1006,161.7484
177.1006,161.7484
177.2900,161.8450
177.4620,161.9699
177.4620,161.9699
177.6123,162.1202
177.6123,162.1202
177.7373,162.2922
177.7399,162.2975
177.7887,162.3491
177.8576,162.3661
177.9248,162.3432
177.9645,162.2975
177.9670,162.2925
177.9671,162.2922
178.0921,162.1202
178.0921,162.1202
178.0921,162.1202
178.2424,161.9699
178.2424,161.9699
178.2424,161.9699
178.4144,161.8449
178.6038,161.7484
178.8060,161.6828
179.0159,161.6495
179.2285,161.6495
179.4384,161.6828
179.4384,161.6828
179.4384,161.6828
179.6406,161.7484
179.6406,161.7484
179.8300,161.8450
180.0020,161.9699
180.0020,161.9699
180.1523,162.1202
180.1523,162.1202
180.2773,162.2922
180.2799,162.2975
180.3287,162.3491
180.3976,162.3661
180.4648,162.3432
180.5045,162.2975
180.5070,162.2925
180.5071,162.2922
180.6321,162.1202
180.6321,162.1202
180.6321,162.1202
180.7824,161.9699
180.7824,161.9699
180.7824,161.9699
180.9544,161.8449
181.1438,161.7484
181.3460,161.6828
181.5559,161.6495
181.7685,161.6495
181.9784,161.6828
181.9784,161.6828
181.9784,161.6828
182.1806,161.7484
182.1806,161.7484
182.3700,161.8450
182.5420,161.9699
182.5420,161.9699
182.6923,162.1202
182.6923,162.1202
182.8173,162.2922
182.8199,162.2975
182.8687,162.3491
182.9376,162.3661
183.0048,162.3432
183.0445,162.2975
183.0470,162.2925
183.0471,162.2922
183.1721,162.1202
183.1721,162.1202
183.1721,162.1202
183.3224,161.9699
183.3224,161.9699
183.3224,161.9699
183.4944,161.8449
183.6838,161.7484
183.8860,161.6828
184.0959,161.6495
184.3085,161.6495
184.5184,161.6828
184.5184,161.6828
184.5184,161.6828
184.7206,161.7484
184.7206,161.7484
184.9100,161.8450
185.0820,161.9699
185.0820,161.9699
185.2323,162.1202
185.2323,162.1202
185.3573,162.2922
185.3599,162.2975
185.4087,162.3491
185.4776,162.3661
185.5448,162.3432
185.5845,162.2975
185.5870,162.2925
185.5871,162.2922
185.7121,162.1202
185.7121,162.1202
185.7121,162.1202
185.8624,161.9699
185.8624,161.9699
185.8624,161.9699
186.0344,161.8449
186.2238,161.7484
186.4260,161.6828
186.6359,161.6495
186.8485,161.6495
187.0584,161.6828
187.0584,161.6828
187.0584,161.6828
187.2606,161.7484
187.2606,161.7484
187.4500,161.8450
187.6220,161.9699
187.6220,161.9699
187.7723,162.1202
187.7723,162.1202
187.8973,162.2922
187.8999,162.2975
187.9487,162.3491
188.0176,162.3661
188.0848,162.3432
188.1245,162.2975
188.1270,162.2925
188.1271,162.2922
188.2521,162.1202
188.2521,162.1202
188.2521,162.1202
188.4024,161.9699
188.4024,161.9699
188.4024,161.9699
188.5744,161.8449
188.7638,161.7484
188.9660,161.6828
189.1759,161.6495
189.3885,161.6495
189.5984,161.6828
189.5984,161.6828
189.5984,161.6828
189.8006,161.7484
189.8006,161.7484
189.9900,161.8450
190.1620,161.9699
190.1620,161.9699
190.3123,162.1202
190.3123,162.1202
190.4373,162.2922
190.4399,162.2975
190.4887,162.3491
190.5576,162.3661
190.6248,162.3432
190.6645,162.2975
190.6670,162.2925
190.6671,162.2922
190.7921,162.1202
190.7921,162.1202
190.7921,162.1202
190.9424,161.9699
190.9424,161.9699
190.9424,161.9699
191.1144,161.8449
191.3038,161.7484
191.5060,161.6828
191.7159,161.6495
191.9285,161.6495
192.0956,161.6760
192.1660,161.6669
192.2044,161.6406
192.8032,161.0418
192.8032,161.0418
192.8032,161.0418
192.9164,160.9661
193.0421,160.9141
193.0421,160.9141
193.1756,160.8875
193.1756,160.8875
194.5873,160.8875
194.6554,160.8675
194.6764,160.8506
195.2472,160.2798
195.2472,160.2798
195.2472,160.2798
195.3604,160.2041
195.3949,160.1898
195.4861,160.1521
195.4861,160.1521
195.6196,160.1255
195.6196,160.1255
197.4557,160.1255
197.5238,160.1055
197.5448,160.0886
203.3433,154.2901
203.3433,154.2901
203.3543,154.2827
203.4565,154.2144
203.5314,154.1834
203.5867,154.1389
203.6091,154.0715
203.5916,154.0027
203.5396,153.9543
203.4832,153.9410
178.7906,153.9410
178.7225,153.9610
178.7015,153.9779
174.0600,158.6194
174.0260,158.6817
174.0255,158.6839
174.0132,158.7460
173.9496,158.8995
173.9193,158.9449
173.8573,159.0376
173.8573,159.0376
173.7398,159.1551
173.7398,159.1551
173.6017,159.2474
173.4482,159.3110
173.2853,159.3434
173.2853,159.3434
173.1191,159.3434
173.1191,159.3434
172.9562,159.3110
172.8027,159.2474
172.6646,159.1551
172.5471,159.0376
172.4548,158.8995
172.3912,158.7460
172.3588,158.5831
172.3588,158.4169
172.3912,158.2540
172.4548,158.1005
172.5471,157.9624
172.5471,157.9624
172.6646,157.8449
172.6646,157.8449
172.7104,157.8143
172.8027,157.7526
172.9562,157.6890
173.0183,157.6767
173.0812,157.6437
173.0828,157.6422
178.0117,152.7133
178.0117,152.7133
178.0222,152.7063
178.1249,152.6376
178.1249,152.6376
178.2506,152.5856
178.2506,152.5856
178.3841,152.5590
178.3841,152.5590
209.7731,152.5590
209.7731,152.5590
209.9066,152.5856
209.9066,152.5856
210.0324,152.6376
210.1314,152.7038
210.1991,152.7250
210.2676,152.7063
210.3151,152.6534
210.3274,152.5991
210.3274,151.5886
210.3178,151.5403
210.2953,151.4860
210.2629,151.3231
210.2629,151.2918
210.2429,151.2237
210.1892,151.1772
210.1369,151.1658
209.0243,151.1658
208.9562,151.1858
208.9543,151.1870
208.9017,151.2222
208.7482,151.2858
208.5853,151.3182
208.5853,151.3182
208.4191,151.3182
208.4191,151.3182
208.2562,151.2858
208.1027,151.2222
207.9646,151.1299
207.8471,151.0124
207.7548,150.8743
207.6912,150.7208
207.6692,150.6100
207.6363,150.5471
207.5746,150.5120
207.5456,150.5086
207.0243,150.5086
206.9562,150.5286
206.9543,150.5298
206.9017,150.5650
206.7482,150.6286
206.5853,150.6610
206.5853,150.6610
206.4191,150.6610
206.4191,150.6610
206.2562,150.6286
206.1027,150.5650
205.9646,150.4727
205.8471,150.3552
205.7548,150.2171
205.6912,150.0636
205.6588,149.9007
205.6588,149.7345
205.6912,149.5716
205.7548,149.4181
205.8471,149.2800
205.8471,149.2800
205.9646,149.1625
205.9646,149.1625
206.0482,149.1066
206.1027,149.0702
206.2562,149.0066
206.2811,149.0016
206.4191,148.9742
206.4191,148.9742
206.5853,148.9742
206.5853,148.9742
206.7482,149.0066
206.7482,149.0066
206.9017,149.0702
206.9543,149.1054
207.0221,149.1266
207.0243,149.1266
207.7334,149.1266
207.8015,149.1066
207.8034,149.1054
207.8487,149.0750
207.9390,149.0376
207.9745,149.0230
207.9745,149.0230
207.9944,149.0190
208.0044,149.0170
208.0044,149.0170
208.1080,148.9964
208.1080,148.9964
208.8964,148.9964
208.8964,148.9964
209.0000,149.0170
209.0000,149.0170
209.0075,149.0185
209.0299,149.0230
209.0299,149.0230
209.1557,149.0750
209.2010,149.1054
209.2688,149.1266
209.2710,149.1266
213.2994,149.1266
213.4139,149.1494
213.4139,149.1494
213.4266,149.1519
213.4329,149.1532
213.5587,149.2052
213.6719,149.2809
213.6719,149.2809
215.3012,150.9102
215.3635,150.9442
215.4343,150.9392
215.4794,150.9102
215.5903,150.7993
215.5903,150.7993
215.6581,150.7540
215.7284,150.7070
215.8819,150.6434
216.0449,150.6110
216.0449,150.6110
216.2110,150.6110
216.2110,150.6110
216.3740,150.6434
216.3740,150.6434
216.5274,150.7070
216.5801,150.7422
216.6478,150.7634
216.6501,150.7634
217.4671,150.7634
217.6006,150.7900
217.6006,150.7900
217.7263,150.8421
217.8384,150.9169
217.8395,150.9177
217.8395,150.9177
217.9448,151.0230
218.0072,151.0570
218.0093,151.0575
218.0265,151.0609
218.0715,151.0699
218.0715,151.0699
218.2249,151.1334
218.3631,151.2257
218.3631,151.2257
218.4806,151.3432
218.4806,151.3432
218.5729,151.4813
218.6364,151.6348
218.6364,151.6348
218.6688,151.7978
218.6688,151.7978
218.6688,151.9639
218.6364,152.1269
218.5729,152.2803
218.4806,152.4185
218.4316,152.4675
218.3975,152.5298
218.4026,152.6006
218.4452,152.6574
218.4724,152.6730
218.5112,152.6890
218.5469,152.7038
218.5965,152.7243
218.7346,152.8166
218.7346,152.8166
218.8521,152.9341
218.8521,152.9341
218.9444,153.0723
219.0079,153.2257
219.0080,153.2257
219.0404,153.3887
219.0404,153.5548
219.0236,153.6390
219.0080,153.7178
218.9444,153.8713
218.9169,153.9124
218.8521,154.0094
218.8521,154.0094
218.7346,154.1269
218.7346,154.1269
218.5965,154.2192
218.4430,154.2827
218.2800,154.3152
218.2800,154.3152
218.1139,154.3152
218.1139,154.3152
217.9510,154.2827
217.7975,154.2192
217.6593,154.1269
217.5418,154.0094
217.4495,153.8713
217.3860,153.7178
217.3736,153.6557
217.3407,153.5928
217.3392,153.5912
216.8067,153.0587
216.7793,153.0438
216.7531,153.0269
216.7468,153.0260
216.7444,153.0247
216.7176,153.0218
216.6034,153.0218
216.5353,153.0418
216.4888,153.0955
216.4774,153.1478
216.4774,153.2013
216.4570,153.3038
216.4450,153.3642
216.3814,153.5177
216.3220,153.6066
216.2891,153.6559
216.2891,153.6559
216.1716,153.7733
216.1716,153.7733
216.0335,153.8656
215.8800,153.9292
215.7170,153.9616
215.7170,153.9616
215.5509,153.9616
215.5509,153.9616
215.3880,153.9292
215.2345,153.8656
215.0963,153.7733
214.9789,153.6559
214.8866,153.5177
214.8230,153.3642
214.8106,153.3021
214.7777,153.2392
214.7762,153.2377
212.7190,151.1805
212.6567,151.1465
212.6299,151.1436
212.0757,151.1436
212.0076,151.1636
211.9611,151.2173
211.9497,151.2696
211.9497,151.3231
211.9173,151.4860
211.8537,151.6395
211.7614,151.7776
211.7463,151.7927
211.7123,151.8550
211.7094,151.8818
211.7094,152.9277
211.7294,152.9958
211.7306,152.9977
211.7658,153.0503
211.8294,153.2038
211.8294,153.2038
211.8618,153.3667
211.8618,153.4806
211.8818,153.5487
211.9355,153.5952
211.9878,153.6066
212.0853,153.6066
212.2482,153.6390
212.2482,153.6390
212.4017,153.7026
212.5398,153.7949
212.5398,153.7949
212.6573,153.9124
212.6573,153.9124
212.7496,154.0505
212.8132,154.2040
212.8132,154.2040
212.8456,154.3669
212.8456,154.5331
212.8235,154.6441
212.8132,154.6960
212.7496,154.8495
212.7176,154.8975
212.6573,154.9876
212.6573,154.9876
212.5398,155.1051
212.5398,155.1051
212.4017,155.1974
212.2482,155.2610
212.0853,155.2934
212.0853,155.2934
211.9191,155.2934
211.9191,155.2934
211.7562,155.2610
211.6027,155.1974
211.5501,155.1622
211.4823,155.1410
211.4801,155.1410
210.8370,155.1410
210.7035,155.1144
210.5777,155.0624
210.5440,155.0398
210.4646,154.9867
209.4557,153.9779
209.3934,153.9439
209.3666,153.9410
208.0495,153.9410
207.9814,153.9610
207.9349,154.0147
207.9248,154.0849
207.9259,154.0916
207.9322,154.1229
207.9394,154.1590
207.9394,154.3252
207.9310,154.3669
207.9069,154.4881
207.8434,154.6416
207.8070,154.6960
207.7511,154.7797
207.7511,154.7797
207.6336,154.8972
207.6336,154.8972
207.4955,154.9895
207.3420,155.0531
207.2799,155.0654
207.2170,155.0983
207.2154,155.0999
206.9517,155.3635
206.8820,155.4102
206.8386,155.4392
206.7128,155.4912
206.5793,155.5178
206.5793,155.5178
206.4432,155.5178
204.1222,155.5178
204.0541,155.5378
204.0331,155.5547
198.3308,161.2570
198.2346,161.3532
198.1214,161.4289
197.9957,161.4809
197.8622,161.5075
197.8622,161.5075
197.7260,161.5075
197.4724,161.5075
197.4042,161.5275
197.3578,161.5812
197.3476,161.6514
197.3771,161.7160
197.4170,161.7447
197.4162,161.7462
197.4206,161.7484
197.4206,161.7484
197.5675,161.8233
197.6100,161.8450
197.7820,161.9699
197.7820,161.9699
197.9323,162.1202
197.9323,162.1202
198.0573,162.2922
198.0599,162.2975
198.1087,162.3491
198.1776,162.3661
198.2448,162.3432
198.2845,162.2975
198.2870,162.2925
198.2871,162.2922
198.4121,162.1202
198.4121,162.1202
198.4121,162.1202
198.5624,161.9699
198.5624,161.9699
198.5624,161.9699
198.7344,161.8449
198.9238,161.7484
199.1260,161.6828
199.3359,161.6495
199.5485,161.6495
199.7584,161.6828
199.7584,161.6828
199.7584,161.6828
199.9606,161.7484
199.9606,161.7484
200.1500,161.8450
200.3220,161.9699
200.3220,161.9699
200.4723,162.1202
200.4723,162.1202
200.5973,162.2922
200.5999,162.2975
200.6487,162.3491
200.7176,162.3661
200.7848,162.3432
200.8245,162.2975
200.8270,162.2925
200.8271,162.2922
200.9521,162.1202
200.9521,162.1202
200.9521,162.1202
201.1024,161.9699
201.1024,161.9699
201.1024,161.9699
201.2744,161.8449
201.4638,161.7484
201.6660,161.6828
201.8759,161.6495
202.0885,161.6495
202.2984,161.6828
202.2984,161.6828
202.2984,161.6828
202.5006,161.7484
202.5006,161.7484
202.6900,161.8450
202.8620,161.9699
202.8620,161.9699
203.0123,162.1202
203.0123,162.1202
203.1373,162.2922
203.1399,162.2975
203.1887,162.3491
203.2576,162.3661
203.3248,162.3432
203.3645,162.2975
203.3670,162.2925
203.3671,162.2922
203.4921,162.1202
203.4921,162.1202
203.4921,162.1202
203.6424,161.9699
203.6424,161.9699
203.6424,161.9699
203.8144,161.8449
204.0038,161.7484
204.2060,161.6828
204.4159,161.6495
204.6285,161.6495
204.8384,161.6828
204.8384,161.6828
204.8384,161.6828
205.0406,161.7484
205.0406,161.7484
205.2300,161.8450
205.4020,161.9699
205.4020,161.9699
205.5523,162.1202
205.5523,162.1202
205.6773,162.2922
205.6799,162.2975
205.7287,162.3491
205.7976,162.3661
205.8648,162.3432
205.9045,162.2975
205.9070,162.2925
205.9071,162.2922
206.0321,162.1202
206.0321,162.1202
206.0321,162.1202
206.1824,161.9699
206.1824,161.9699
206.1824,161.9699
206.3544,161.8449
206.5438,161.7484
206.7460,161.6828
206.9559,161.6495
207.1685,161.6495
207.3784,161.6828
207.3784,161.6828
207.3784,161.6828
207.5806,161.7484
207.5806,161.7484
207.7700,161.8450
207.9420,161.9699
207.9420,161.9699
208.0923,162.1202
208.0923,162.1202
208.2173,162.2922
208.2199,162.2975
208.2687,162.3491
208.3376,162.3661
208.4048,162.3432
208.4445,162.2975
208.4470,162.2925
208.4471,162.2922
208.5721,162.1202
208.5721,162.1202
208.5721,162.1202
208.7224,161.9699
208.7224,161.9699
208.7224,161.9699
208.8944,161.8449
209.0838,161.7484
209.2860,161.6828
209.4959,161.6495
209.7085,161.6495
209.9184,161.6828
209.9184,161.6828
209.9184,161.6828
210.1206,161.7484
210.1206,161.7484
210.3100,161.8450
210.4820,161.9699
210.4820,161.9699
210.6323,162.1202
210.6323,162.1202
210.7573,162.2922
210.7599,162.2975
210.8087,162.3491
210.8776,162.3661
210.9448,162.3432
210.9845,162.2975
210.9870,162.2925
210.9871,162.2922
211.1121,162.1202
211.1121,162.1202
211.1121,162.1202
211.2624,161.9699
211.2624,161.9699
211.2624,161.9699
211.4344,161.8449
211.6238,161.7484
211.8260,161.6828
212.0359,161.6495
212.2485,161.6495
212.4584,161.6828
212.4584,161.6828
212.4584,161.6828
212.6606,161.7484
212.6606,161.7484
212.8500,161.8450
213.0220,161.9699
213.0220,161.9699
213.1723,162.1202
213.1723,162.1202
213.2973,162.2922
213.2999,162.2975
213.3487,162.3491
213.4176,162.3661
213.4848,162.3432
213.5245,162.2975
213.5270,162.2925
213.5271,162.2922
213.6521,162.1202
213.6521,162.1202
213.6521,162.1202
213.8024,161.9699
213.8024,161.9699
213.8024,161.9699
213.9744,161.8449
214.1638,161.7484
214.3660,161.6828
214.5759,161.6495
214.7885,161.6495
214.9984,161.6828
214.9984,161.6828
214.9984,161.6828
215.2006,161.7484
215.2006,161.7484
215.3900,161.8450
215.5620,161.9699
215.5620,161.9699
215.7123,162.1202
215.7123,162.1202
215.8373,162.2922
215.8399,162.2975
215.8887,162.3491
215.9576,162.3661
216.0248,162.3432
216.0645,162.2975
216.0670,162.2925
216.0671,162.2922
216.1921,162.1202
216.1921,162.1202
216.1921,162.1202
216.3424,161.9699
216.3424,161.9699
216.3424,161.9699
216.5144,161.8449
216.7038,161.7484
216.9060,161.6828
217.1159,161.6495
217.3285,161.6495
217.5384,161.6828
217.5384,161.6828
217.5384,161.6828
217.7406,161.7484
217.7406,161.7484
217.9300,161.8450
218.1020,161.9699
218.1020,161.9699
218.2523,162.1202
218.2523,162.1202
218.3773,162.2922
218.3799,162.2975
218.4287,162.3491
218.4976,162.3661
218.5648,162.3432
218.6045,162.2975
218.6070,162.2925
218.6071,162.2922
218.7321,162.1202
218.7321,162.1202
218.7321,162.1202
218.8824,161.9699
218.8824,161.9699
218.8824,161.9699
219.0544,161.8449
219.2438,161.7484
219.4460,161.6828
219.6559,161.6495
219.8685,161.6495
220.0784,161.6828
220.0784,161.6828
220.0784,161.6828
220.2806,161.7484
220.2806,161.7484
220.4700,161.8450
220.6420,161.9699
220.6420,161.9699
220.7923,162.1202
220.7923,162.1202
220.9173,162.2922
220.9199,162.2975
220.9687,162.3491
221.0376,162.3661
221.1048,162.3432
221.1445,162.2975
221.1470,162.2925
221.1471,162.2922
221.2721,162.1202
221.2721,162.1202
221.2721,162.1202
221.4224,161.9699
221.4224,161.9699
221.4224,161.9699
221.5944,161.8449
221.7838,161.7484
221.9860,161.6828
222.1959,161.6495
222.4085,161.6495
222.6184,161.6828
222.6184,161.6828
222.6184,161.6828
222.8206,161.7484
222.8206,161.7484
223.0100,161.8450
223.1820,161.9699
223.1820,161.9699
223.3323,162.1202
223.3323,162.1202
223.4573,162.2922
223.4599,162.2975
223.5087,162.3491
223.5776,162.3661
223.6448,162.3432
223.6845,162.2975
223.6870,162.2925
223.6871,162.2922
223.8121,162.1202
223.8121,162.1202
223.8121,162.1202
223.9624,161.9699
223.9624,161.9699
223.9624,161.9699
224.1344,161.8449
224.3238,161.7484
224.5260,161.6828
224.7359,161.6495
224.9485,161.6495
225.1584,161.6828
225.1584,161.6828
225.1584,161.6828
225.3606,161.7484
225.3606,161.7484
225.5500,161.8450
225.7220,161.9699
225.7220,161.9699
225.8723,162.1202
225.8723,162.1202
225.9973,162.2922
225.9999,162.2975
226.0487,162.3491
226.1176,162.3661
226.1848,162.3432
226.2245,162.2975
226.2270,162.2925
226.2271,162.2922
226.3521,162.1202
226.3521,162.1202
226.3521,162.1202
226.5024,161.9699
226.5024,161.9699
226.5024,161.9699
226.6744,161.8449
226.8638,161.7484
227.0660,161.6828
227.2759,161.6495
227.4885,161.6495
227.6984,161.6828
227.6984,161.6828
227.6984,161.6828
227.9006,161.7484
227.9006,161.7484
228.0900,161.8450
228.2620,161.9699
228.2620,161.9699
228.4123,162.1202
228.4123,162.1202
228.5373,162.2922
228.5399,162.2975
228.5887,162.3491
228.6576,162.3661
228.7248,162.3432
228.7645,162.2975
228.7670,162.2925
228.7671,162.2922
228.8921,162.1202
228.8921,162.1202
228.8921,162.1202
229.0424,161.9699
229.0424,161.9699
229.0424,161.9699
229.2144,161.8449
229.4038,161.7484
229.6060,161.6828
229.8159,161.6495
230.0285,161.6495
230.2384,161.6828
230.2384,161.6828
230.2384,161.6828
230.4406,161.7484
230.4406,161.7484
230.6300,161.8450
230.8020,161.9699
230.8020,161.9699
230.9523,162.1202
230.9523,162.1202
231.0773,162.2922
231.0799,162.2975
231.1287,162.3491
231.1976,162.3661
231.2648,162.3432
231.3045,162.2975
231.3070,162.2925
231.3071,162.2922
231.4321,162.1202
231.4321,162.1202
231.4321,162.1202
231.5824,161.9699
231.5824,161.9699
231.5824,161.9699
231.7544,161.8449
231.9438,161.7484
232.1460,161.6828
232.3559,161.6495
232.5685,161.6495
232.7784,161.6828
232.7784,161.6828
232.7784,161.6828
232.9806,161.7484
232.9806,161.7484
233.1700,161.8450
233.3420,161.9699
233.4533,162.0812
233.5156,162.1153
233.5865,162.1102
233.6433,162.0676
233.6605,162.0362
233.7084,161.9077
233.7084,161.9077
233.7084,161.9077
233.7716,161.8233
233.7947,161.7925
233.8716,161.7348
233.9099,161.7062
233.9099,161.7062
233.9099,161.7062
234.0447,161.6559
234.0447,161.6559
234.1043,161.6495
235.9001,161.6495
235.9001,161.6495
235.9597,161.6559
235.9597,161.6559
236.0945,161.7062
236.0945,161.7062
236.2097,161.7925
236.2116,161.7943
236.2139,161.7956
236.2170,161.7979
236.2173,161.7974
236.2739,161.8283
236.3447,161.8233
236.4016,161.7807
236.4264,161.7142
236.4267,161.7052
236.4267,143.3537
235.8927,143.3537
235.8927,143.5663
235.8594,143.7762
235.7938,143.9784
235.6973,144.1678
235.5723,144.3398
235.5723,144.3398
235.5723,144.3398
235.4220,144.4901
235.4220,144.4901
235.4220,144.4901
235.2500,144.6151
235.2469,144.6166
235.2447,144.6177
235.1931,144.6665
235.1761,144.7354
235.1990,144.8026
235.2447,144.8423
235.2500,144.8449
235.4220,144.9699
235.4220,144.9699
235.5723,145.1202
235.5723,145.1202
235.6972,145.2922
235.7938,145.4816
235.7938,145.4816
235.8587,145.6814
235.8594,145.6838
235.8927,145.8937
235.8927,146.1063
235.8594,146.3162
235.7938,146.5184
235.6973,146.7078
235.5723,146.8798
235.5723,146.8798
235.5723,146.8798
235.4220,147.0301
235.4220,147.0301
235.4220,147.0301
235.2500,147.1551
235.2469,147.1566
235.2447,147.1577
235.1931,147.2065
235.1761,147.2754
235.1990,147.3426
235.2447,147.3823
235.2500,147.3849
235.4220,147.5099
235.4220,147.5099
235.5723,147.6602
235.5723,147.6602
235.6972,147.8322
235.7037,147.8449
235.7938,148.0216
235.8594,148.2238
235.8927,148.4337
235.8927,148.6463
235.8594,148.8562
235.7938,149.0584
235.6973,149.2478
235.5723,149.4198
235.5723,149.4198
235.5723,149.4198
235.4220,149.5701
235.4220,149.5701
235.4220,149.5701
235.2500,149.6951
235.2469,149.6966
235.2447,149.6977
235.1931,149.7465
235.1761,149.8154
235.1990,149.8826
235.2447,149.9223
235.2500,149.9249
235.4220,150.0499
235.4220,150.0499
235.5723,150.2002
235.5723,150.2002
235.6972,150.3722
235.7938,150.5616
235.7938,150.5616
235.8563,150.7540
235.8594,150.7638
235.8927,150.9737
235.8927,151.1863
235.8594,151.3962
235.7938,151.5984
235.6973,151.7878
235.6972,151.7878
235.6900,151.7978
235.5723,151.9598
235.5723,151.9598
235.5723,151.9598
235.4220,152.1101
235.4220,152.1101
235.4220,152.1101
235.2500,152.2351
235.2469,152.2366
235.2447,152.2377
235.1931,152.2865
235.1761,152.3554
235.1990,152.4226
235.2447,152.4623
235.2500,152.4649
235.4220,152.5899
235.4220,152.5899
235.5723,152.7402
235.5723,152.7402
235.6972,152.9122
235.7938,153.1016
235.7938,153.1016
235.8433,153.2540
235.8594,153.3038
235.8927,153.5137
235.8927,153.7263
235.8594,153.9362
235.7938,154.1384
235.6973,154.3278
235.5723,154.4998
235.5723,154.4998
235.5723,154.4998
235.4220,154.6501
235.4220,154.6501
235.4220,154.6501
235.2500,154.7751
235.2487,154.7757
235.2447,154.7777
235.1931,154.8265
235.1761,154.8954
235.1990,154.9626
235.2447,155.0023
235.2500,155.0049
235.4220,155.1299
235.4220,155.1299
235.5723,155.2802
235.5723,155.2802
235.6972,155.4522
235.7938,155.6416
235.7938,155.6416
235.8303,155.7540
235.8594,155.8438
235.8927,156.0537
235.8927,156.2663
235.8594,156.4762
235.7938,156.6784
235.6973,156.8678
235.6972,156.8678
235.6664,156.9103
235.5723,157.0398
235.5723,157.0398
235.5723,157.0398
235.4220,157.1901
235.4220,157.1901
235.4220,157.1901
235.2500,157.3151
235.0606,157.4116
234.8584,157.4772
234.6485,157.5105
234.6485,157.5105
234.4359,157.5105
234.4359,157.5105
234.2260,157.4772
234.0238,157.4116
233.8344,157.3151
233.6624,157.1901
233.5511,157.0788
233.4888,157.0447
233.4179,157.0498
233.3611,157.0924
233.3439,157.1238
233.2960,157.2523
233.2960,157.2523
233.2097,157.3675
233.1521,157.4107
233.0945,157.4538
233.0945,157.4538
233.0945,157.4538
233.0342,157.4763
232.9597,157.5041
232.9597,157.5041
232.9001,157.5105
231.1043,157.5105
231.0447,157.5041
230.9099,157.4538
230.7947,157.3675
230.7084,157.2523
230.6581,157.1175
230.6517,157.0579
230.6517,155.2621
230.6581,155.2025
230.6852,155.1299
230.7084,155.0677
230.7084,155.0677
230.7084,155.0677
230.7683,154.9876
230.7947,154.9525
230.8853,154.8846
230.9099,154.8662
230.9099,154.8662
230.9099,154.8662
231.0384,154.8183
231.0952,154.7757
231.1200,154.7092
231.1049,154.6398
231.0834,154.6111
230.9721,154.4998
230.8471,154.3278
230.7506,154.1384
230.6850,153.9362
230.6517,153.7263
230.6517,153.5137
230.6850,153.3038
230.7506,153.1016
230.8471,152.9122
230.9721,152.7402
230.9721,152.7402
230.9721,152.7402
231.1224,152.5899
231.1224,152.5899
231.1224,152.5899
231.2944,152.4649
231.2996,152.4623
231.3513,152.4135
231.3683,152.3446
231.3454,152.2774
231.2996,152.2377
231.2944,152.2351
231.1224,152.1101
230.9721,151.9598
230.8471,151.7878
230.7506,151.5984
230.6850,151.3962
230.6517,151.1863
230.6517,150.9737
230.6850,150.7638
230.7506,150.5616
230.8471,150.3722
230.9721,150.2002
230.9721,150.2002
230.9721,150.2002
231.1224,150.0499
231.1224,150.0499
231.1224,150.0499
231.2944,149.9249
231.2996,149.9223
231.3513,149.8735
231.3683,149.8046
231.3454,149.7374
231.2996,149.6977
231.2944,149.6951
231.1224,149.5701
230.9721,149.4198
230.8471,149.2478
230.7506,149.0584
230.6850,148.8562
230.6517,148.6463
230.6517,148.4337
230.6850,148.2238
230.7506,148.0216
230.8471,147.8322
230.9721,147.6602
230.9721,147.6602
230.9721,147.6602
231.1224,147.5099
231.1224,147.5099
231.1224,147.5099
231.2944,147.3849
231.2996,147.3823
231.3513,147.3335
231.3683,147.2646
231.3454,147.1974
231.2996,147.1577
231.2944,147.1551
231.1224,147.0301
230.9721,146.8798
230.8471,146.7078
230.7506,146.5184
230.6850,146.3162
230.6517,146.1063
230.6517,145.8937
230.6850,145.6838
230.7506,145.4816
230.8471,145.2922
230.9721,145.1202
230.9721,145.1202
230.9721,145.1202
231.1224,144.9699
231.1224,144.9699
231.1224,144.9699
231.2944,144.8449
231.2996,144.8423
231.3090,144.8335
231.3208,144.8287
231.3343,144.8096
231.3513,144.7935
231.3543,144.7811
231.3617,144.7706
231.3627,144.7473
231.3666,144.7317
224.8890,144.7317
224.8890,144.8979
224.8823,144.9314
224.8566,145.0607
224.8566,145.0608
224.8566,145.0608
224.7930,145.2143
224.7930,145.2143
224.7930,145.2143
224.7578,145.2669
224.7366,145.3347
224.7366,145.3369
224.7366,154.6382
224.7354,154.6441
224.7225,154.7092
224.7100,154.7717
224.7100,154.7717
224.6778,154.8495
224.6580,154.8975
224.5861,155.0050
224.5823,155.0106
224.5823,155.0106
219.4562,160.1367
219.4562,160.1367
219.4562,160.1367
219.3767,160.1898
219.3431,160.2124
219.2173,160.2644
219.0838,160.2910
214.7243,160.2910
214.6562,160.3110
214.6543,160.3122
214.6017,160.3474
214.4482,160.4110
214.2853,160.4434
214.2853,160.4434
214.1191,160.4434
214.1191,160.4434
213.9562,160.4110
213.8027,160.3474
213.6646,160.2551
213.5471,160.1376
213.4548,159.9995
213.3912,159.8460
213.3588,159.6831
213.3588,159.5169
213.3912,159.3540
213.4548,159.2005
213.5471,159.0624
213.5471,159.0624
213.6646,158.9449
213.6646,158.9449
213.7482,158.8890
213.8027,158.8526
213.9562,158.7890
214.1191,158.7566
214.1191,158.7566
214.2853,158.7566
214.2853,158.7566
214.4482,158.7890
214.4482,158.7890
214.6017,158.8526
214.6543,158.8878
214.7221,158.9090
214.7243,158.9090
218.6773,158.9090
218.7455,158.8890
218.7664,158.8721
220.6032,157.0353
220.6372,156.9730
220.6322,156.9022
220.5896,156.8454
220.5231,156.8206
220.4895,156.8227
220.3853,156.8434
220.3853,156.8434
220.2191,156.8434
220.2191,156.8434
220.0562,156.8110
219.9027,156.7474
219.7646,156.6551
219.6471,156.5376
219.5548,156.3995
219.4912,156.2460
219.4588,156.0831
219.4588,155.9169
219.4912,155.7540
219.5548,155.6005
219.6471,155.4624
219.6471,155.4624
219.7646,155.3449
219.7646,155.3449
219.8416,155.2934
219.9027,155.2526
220.0562,155.1890
220.2191,155.1566
220.2191,155.1566
220.3853,155.1566
220.3853,155.1566
220.5482,155.1890
220.5482,155.1890
220.7017,155.2526
220.8398,155.3449
220.8398,155.3449
220.9573,155.4624
220.9573,155.4624
221.0496,155.6005
221.1132,155.7540
221.1132,155.7540
221.1456,155.9169
221.1456,156.0831
221.1249,156.1873
221.1312,156.2580
221.1747,156.3141
221.2417,156.3377
221.3108,156.3214
221.3375,156.3010
223.3177,154.3208
223.3517,154.2585
223.3546,154.2317
223.3546,153.4169
221.1456,153.4169
221.1456,153.5831
221.1345,153.6390
221.1132,153.7460
221.0496,153.8995
221.0081,153.9616
220.9573,154.0376
220.9573,154.0376
220.8398,154.1551
220.8398,154.1551
220.7017,154.2474
220.5482,154.3110
220.3853,154.3434
220.3853,154.3434
220.2191,154.3434
220.2191,154.3434
220.0562,154.3110
219.9027,154.2474
219.7646,154.1551
219.6471,154.0376
219.5548,153.8995
219.4912,153.7460
219.4588,153.5831
219.4588,153.4169
219.4912,153.2540
219.5548,153.1005
219.6471,152.9624
219.6471,152.9624
219.7646,152.8449
219.7646,152.8449
219.8104,152.8143
219.9027,152.7526
220.0562,152.6890
220.2191,152.6566
220.2191,152.6566
220.3853,152.6566
220.3853,152.6566
220.5482,152.6890
220.5482,152.6890
220.7017,152.7526
220.8398,152.8449
220.8398,152.8449
220.9573,152.9624
220.9573,152.9624
221.0496,153.1005
221.1132,153.2540
221.1132,153.2540
221.1456,153.4169
223.3546,153.4169
223.3546,150.9169
221.1456,150.9169
221.1456,151.0831
221.1172,151.2257
221.1132,151.2460
221.0496,151.3995
220.9949,151.4813
220.9573,151.5376
220.9573,151.5376
220.8398,151.6551
220.8398,151.6551
220.7017,151.7474
220.5482,151.8110
220.3853,151.8434
220.3853,151.8434
220.2191,151.8434
220.2191,151.8434
220.0562,151.8110
219.9027,151.7474
219.7646,151.6551
219.6471,151.5376
219.5548,151.3995
219.4912,151.2460
219.4588,151.0831
219.4588,150.9169
219.4912,150.7540
219.5548,150.6005
219.6471,150.4624
219.6471,150.4624
219.7646,150.3449
219.7646,150.3449
219.8104,150.3143
219.9027,150.2526
220.0562,150.1890
220.2191,150.1566
220.2191,150.1566
220.3853,150.1566
220.3853,150.1566
220.5482,150.1890
220.5482,150.1890
220.7017,150.2526
220.8398,150.3449
220.8398,150.3449
220.9573,150.4624
220.9573,150.4624
221.0496,150.6005
221.1132,150.7540
221.1132,150.7540
221.1456,150.9169
223.3546,150.9169
223.3546,148.4169
221.1456,148.4169
221.1456,148.4169
221.1456,148.5831
221.1132,148.7460
221.0496,148.8995
220.9997,148.9742
220.9573,149.0376
220.9573,149.0376
220.8398,149.1551
220.8398,149.1551
220.7017,149.2474
220.5482,149.3110
220.3853,149.3434
220.3853,149.3434
220.2191,149.3434
220.2191,149.3434
220.0562,149.3110
219.9027,149.2474
219.7646,149.1551
219.6471,149.0376
219.5548,148.8995
219.4912,148.7460
219.4588,148.5831
219.4588,148.4169
219.4912,148.2540
219.5548,148.1005
219.6471,147.9624
219.6471,147.9624
219.7646,147.8449
219.7646,147.8449
219.8104,147.8143
219.9027,147.7526
220.0562,147.6890
220.2191,147.6566
220.2191,147.6566
220.3853,147.6566
220.3853,147.6566
220.5482,147.6890
220.5482,147.6890
220.7017,147.7526
220.8398,147.8449
220.8398,147.8449
220.9573,147.9624
220.9573,147.9624
221.0496,148.1005
221.1132,148.2540
221.1132,148.2540
221.1456,148.4169
223.3546,148.4169
223.3546,145.9169
221.1456,145.9169
221.1456,146.0831
221.1202,146.2110
221.1132,146.2460
221.0496,146.3995
221.0442,146.4076
220.9573,146.5376
220.9573,146.5376
220.8398,146.6551
220.8398,146.6551
220.7017,146.7474
220.5482,146.8110
220.3853,146.8434
220.3853,146.8434
220.2191,146.8434
220.2191,146.8434
220.0562,146.8110
219.9027,146.7474
219.7646,146.6551
219.6471,146.5376
219.5548,146.3995
219.4912,146.2460
219.4588,146.0831
219.4588,145.9169
219.4912,145.7540
219.5548,145.6005
219.6471,145.4624
219.6471,145.4624
219.7646,145.3449
219.7646,145.3449
219.8064,145.3169
181.1456,145.3169
181.1456,145.4831
181.1327,145.5479
181.1132,145.6460
181.0496,145.7995
181.0041,145.8676
180.9573,145.9376
180.9573,145.9376
180.8398,146.0551
180.8398,146.0551
180.7017,146.1474
180.5482,146.2110
180.3853,146.2434
180.3853,146.2434
180.2191,146.2434
180.2191,146.2434
180.0562,146.2110
179.9027,146.1474
179.8501,146.1122
179.7823,146.0910
179.7801,146.0910
178.7063,146.0910
178.5728,146.0644
178.4471,146.0124
178.4372,146.0057
178.3339,145.9367
178.3339,145.9367
178.3251,145.9279
178.2628,145.8939
178.2360,145.8910
177.8897,145.8910
177.8415,145.9006
177.7108,145.9547
177.5479,145.9871
177.5479,145.9871
177.3817,145.9871
177.3817,145.9871
177.2188,145.9547
177.0653,145.8911
176.9272,145.7988
176.8097,145.6814
176.7174,145.5432
176.6538,145.3897
176.6529,145.3850
159.0282,145.3850
159.0282,145.5512
159.0176,145.6043
158.9958,145.7141
158.9322,145.8676
158.8523,145.9871
158.8399,146.0057
158.8399,146.0057
158.7224,146.1232
158.7224,146.1232
158.5843,146.2155
158.4308,146.2791
158.2679,146.3115
158.2679,146.3115
158.1017,146.3115
158.1017,146.3115
157.9388,146.2791
157.7853,146.2155
157.7327,146.1803
157.6649,146.1591
157.6627,146.1591
153.7188,146.1591
153.6507,146.1791
153.6042,146.2328
153.6024,146.2369
153.5889,146.2695
153.5889,146.2695
153.4966,146.4076
153.4966,146.4076
153.3791,146.5251
153.3791,146.5251
153.2410,146.6174
153.0875,146.6810
152.9246,146.7134
152.9246,146.7134
152.7584,146.7134
152.7584,146.7134
152.5955,146.6810
152.4420,146.6174
152.3894,146.5822
152.3216,146.5610
152.3194,146.5610
149.5000,146.5610
149.4319,146.5810
149.3854,146.6347
149.3753,146.7049
149.3765,146.7116
149.3774,146.7163
149.3774,146.8525
149.3508,146.9860
149.3508,146.9860
149.3507,146.9863
149.2988,147.1117
149.2669,147.1594
149.2231,147.2249
149.2231,147.2249
149.1269,147.3211
149.1269,147.3211
149.1269,147.3211
149.0137,147.3968
148.8880,147.4488
148.7545,147.4754
148.7545,147.4754
148.6183,147.4754
148.6183,147.4754
148.4848,147.4488
148.3591,147.3968
148.2906,147.3510
148.2452,147.3322
148.1603,147.3153
148.0068,147.2517
147.8687,147.1594
147.7512,147.0419
147.7163,146.9897
147.6618,146.9442
147.5914,146.9353
147.5633,146.9433
147.5237,146.9597
147.3902,146.9863
146.2304,146.9863
146.1623,147.0063
146.1604,147.0075
146.1078,147.0427
145.9543,147.1063
145.7914,147.1387
145.7914,147.1387
145.6252,147.1387
145.6252,147.1387
145.4623,147.1063
145.3088,147.0427
145.1707,146.9504
145.0532,146.8329
144.9609,146.6948
144.8973,146.5413
144.8649,146.3784
144.8649,146.2122
144.8973,146.0493
144.9609,145.8958
145.0532,145.7577
145.0532,145.7577
145.1707,145.6402
145.1707,145.6402
145.2543,145.5843
145.3088,145.5479
145.4623,145.4843
145.4685,145.4831
145.6252,145.4519
145.6252,145.4519
145.7914,145.4519
145.7914,145.4519
145.9543,145.4843
145.9543,145.4843
146.1078,145.5479
146.1604,145.5831
146.2282,145.6043
146.2304,145.6043
146.9837,145.6043
147.0518,145.5843
147.0728,145.5674
147.5870,145.0532
147.7002,144.9775
147.7187,144.9699
147.8259,144.9255
147.8259,144.9255
147.9594,144.8989
147.9594,144.8989
148.8532,144.8989
148.8532,144.8989
148.9867,144.9255
148.9867,144.9255
149.1124,144.9775
149.2256,145.0532
149.2701,145.0976
149.3145,145.1421
149.3768,145.1761
149.4036,145.1790
152.3194,145.1790
152.3875,145.1590
152.3894,145.1578
152.4420,145.1226
152.5955,145.0590
152.5955,145.0590
152.5955,145.0590
152.6576,145.0467
152.7205,145.0137
152.7220,145.0122
152.8029,144.9314
152.9161,144.8557
153.0418,144.8037
153.0418,144.8037
153.1753,144.7771
153.1753,144.7771
157.6627,144.7771
157.7308,144.7571
157.7327,144.7559
157.7853,144.7207
157.9388,144.6571
157.9388,144.6571
158.1017,144.6247
158.1017,144.6247
158.2679,144.6247
158.2679,144.6247
158.4308,144.6571
158.4308,144.6571
158.5843,144.7207
158.7224,144.8130
158.7224,144.8130
158.8399,144.9305
158.8399,144.9305
158.9322,145.0686
158.9958,145.2221
158.9958,145.2221
159.0282,145.3850
176.6529,145.3850
176.6214,145.2268
176.6214,145.0607
176.6538,144.8977
176.7174,144.7442
176.8097,144.6061
176.8097,144.6061
176.9271,144.4886
176.9272,144.4886
176.9746,144.4569
177.0653,144.3963
177.2188,144.3327
177.3817,144.3003
177.3817,144.3003
177.5479,144.3003
177.5479,144.3003
177.7108,144.3327
177.7108,144.3327
177.8643,144.3963
178.0011,144.4878
178.0689,144.5090
178.0712,144.5090
178.6425,144.5090
178.7549,144.5314
178.7549,144.5314
178.7602,144.5324
178.7760,144.5356
178.7760,144.5356
178.9017,144.5876
179.0149,144.6633
179.0149,144.6633
179.0237,144.6721
179.0860,144.7061
179.1128,144.7090
179.7801,144.7090
179.8482,144.6890
179.8501,144.6878
179.9027,144.6526
180.0562,144.5890
180.0562,144.5890
180.2191,144.5566
180.2191,144.5566
180.3853,144.5566
180.3853,144.5566
180.5482,144.5890
180.5482,144.5890
180.7017,144.6526
180.8398,144.7449
180.8398,144.7449
180.9573,144.8624
180.9573,144.8624
181.0496,145.0005
181.1132,145.1540
181.1132,145.1540
181.1456,145.3169
219.8064,145.3169
219.8434,145.2922
219.9027,145.2526
220.0562,145.1890
220.1065,145.1790
220.2191,145.1566
220.2191,145.1566
220.3853,145.1566
220.3853,145.1566
220.5482,145.1890
220.5482,145.1890
220.7017,145.2526
220.8398,145.3449
220.8398,145.3449
220.9573,145.4624
220.9573,145.4624
221.0496,145.6005
221.1132,145.7540
221.1132,145.7540
221.1456,145.9169
223.3546,145.9169
223.3546,145.3369
223.3346,145.2688
223.3334,145.2670
223.2982,145.2143
223.2346,145.0608
223.2022,144.8979
223.2022,144.7317
223.2346,144.5688
223.2982,144.4153
223.3905,144.2772
223.3905,144.2772
223.5080,144.1597
223.5080,144.1597
223.5809,144.1109
223.6461,144.0674
223.7996,144.0038
223.8070,144.0023
223.9625,143.9714
223.9625,143.9714
224.1287,143.9714
224.1287,143.9714
224.2916,144.0038
224.2916,144.0038
224.4451,144.0674
224.5832,144.1597
224.5832,144.1597
224.7007,144.2772
224.7007,144.2772
224.7930,144.4153
224.8566,144.5688
224.8566,144.5688
224.8890,144.7317
231.3666,144.7317
231.3683,144.7246
231.3642,144.7125
231.3648,144.6997
231.3530,144.6795
231.3454,144.6574
231.3346,144.6480
231.3290,144.6384
231.2996,144.6177
231.2944,144.6151
231.1224,144.4901
230.9721,144.3398
230.8471,144.1678
230.7506,143.9784
230.7044,143.8362
221.5649,143.8362
221.5649,144.0023
221.5325,144.1653
221.5325,144.1653
221.5314,144.1678
221.4689,144.3188
221.4596,144.3327
221.3766,144.4569
221.3766,144.4569
221.2591,144.5744
221.2591,144.5744
221.1210,144.6667
220.9675,144.7303
220.8045,144.7627
220.8045,144.7627
220.6384,144.7627
220.6384,144.7627
220.4755,144.7303
220.3220,144.6667
220.1838,144.5744
220.0664,144.4569
219.9741,144.3188
219.9105,144.1653
219.8781,144.0023
219.8781,143.8362
219.9105,143.6733
219.9741,143.5198
220.0664,143.3816
220.0664,143.3816
220.1838,143.2642
220.1838,143.2642
220.2297,143.2335
220.3220,143.1719
220.4755,143.1083
220.6384,143.0759
220.6384,143.0759
220.8045,143.0759
220.8045,143.0759
220.9675,143.1083
220.9675,143.1083
221.1210,143.1719
221.2591,143.2642
221.2591,143.2642
221.3766,143.3816
221.3766,143.3816
221.4689,143.5198
221.5325,143.6733
221.5325,143.6733
221.5649,143.8362
230.7044,143.8362
230.6898,143.7911
230.6898,143.7911
230.6850,143.7763
230.6850,143.7763
230.6850,143.7762
230.6850,143.7762
230.6517,143.5663
230.6517,143.3537
230.6850,143.1438
230.7506,142.9416
230.8471,142.7522
230.9721,142.5802
230.9721,142.5802
230.9721,142.5802
231.1224,142.4299
231.1224,142.4299
231.1224,142.4299
231.2944,142.3049
231.4838,142.2084
231.6860,142.1428
231.8959,142.1095
232.1085,142.1095
232.3184,142.1428
232.3184,142.1428
232.3184,142.1428
232.5206,142.2084
232.5206,142.2084
232.7100,142.3050
232.8820,142.4299
232.8820,142.4299
233.0323,142.5802
233.0323,142.5802
233.1573,142.7522
233.1599,142.7575
233.2087,142.8091
233.2776,142.8261
233.3448,142.8032
233.3845,142.7575
233.3871,142.7522
233.3872,142.7522
233.5121,142.5802
233.5121,142.5802
233.5121,142.5802
233.6624,142.4299
233.6624,142.4299
233.6624,142.4299
233.8344,142.3049
234.0238,142.2084
234.2260,142.1428
234.4359,142.1095
234.6485,142.1095
234.8584,142.1428
234.8584,142.1428
234.8584,142.1428
235.0606,142.2084
235.0606,142.2084
235.2500,142.3050
235.4220,142.4299
235.4220,142.4299
235.5723,142.5802
235.5723,142.5802
235.6972,142.7522
235.6973,142.7522
235.7938,142.9416
235.8594,143.1438
235.8927,143.3537
236.4267,143.3537
236.4267,137.7921
211.4227,137.7921
211.4227,139.4879
211.4227,139.4879
211.4163,139.5475
211.4163,139.5475
211.3660,139.6823
211.3660,139.6823
211.2797,139.7975
211.2221,139.8407
211.1645,139.8838
211.1645,139.8838
211.1645,139.8838
211.1042,139.9063
211.0297,139.9341
211.0297,139.9341
210.9701,139.9405
209.2743,139.9405
209.2147,139.9341
209.0799,139.8838
208.9647,139.7975
208.8784,139.6823
208.8281,139.5475
208.8217,139.4879
208.8217,138.5371
203.8102,138.5371
203.8102,138.7429
203.7780,138.9463
203.7144,139.1421
203.7144,139.1421
203.6209,139.3255
203.6209,139.3255
203.5898,139.3684
202.9022,138.6808
202.9022,138.6927
202.8749,138.7944
202.8223,138.8856
202.7478,138.9601
202.6566,139.0127
202.5549,139.0400
202.5430,139.0400
203.2306,139.7276
203.2306,139.7276
203.1877,139.7587
203.0043,139.8522
203.0043,139.8522
202.8085,139.9158
202.8085,139.9158
202.6051,139.9480
202.3993,139.9480
202.1959,139.9158
202.0001,139.8522
202.0001,139.8522
201.8167,139.7587
201.7738,139.7276
201.7738,139.7276
202.4614,139.0400
202.4495,139.0400
202.3478,139.0127
202.2566,138.9601
202.1821,138.8856
202.1295,138.7944
202.1022,138.6927
202.1022,138.6808
201.4146,139.3684
201.4146,139.3684
201.3835,139.3255
201.2900,139.1421
201.2900,139.1421
201.2264,138.9463
201.1942,138.7429
201.1942,138.5371
196.1902,138.5371
196.1902,138.7429
196.1580,138.9463
196.0944,139.1421
196.0944,139.1421
196.0009,139.3255
196.0009,139.3255
195.9698,139.3684
195.2822,138.6808
195.2822,138.6927
195.2549,138.7944
195.2023,138.8856
195.1278,138.9601
195.0366,139.0127
194.9349,139.0400
194.9230,139.0400
195.6106,139.7276
195.6106,139.7276
195.5677,139.7587
195.3843,139.8522
195.3843,139.8522
195.1885,139.9158
195.1885,139.9158
194.9851,139.9480
194.7793,139.9480
194.5759,139.9158
194.3801,139.8522
194.3801,139.8522
194.1967,139.7587
194.1538,139.7276
194.1538,139.7276
194.8414,139.0400
194.8295,139.0400
194.7278,139.0127
194.6366,138.9601
194.5621,138.8856
194.5095,138.7944
194.4822,138.6927
194.4822,138.6808
193.7946,139.3684
193.7946,139.3684
193.7635,139.3255
193.6700,139.1421
193.6700,139.1421
193.6064,138.9463
193.5742,138.7429
193.5742,138.5371
193.6064,138.3337
193.6700,138.1379
193.6700,138.1379
193.7635,137.9545
193.7946,137.9116
193.7946,137.9116
194.4822,138.5992
194.4822,138.5873
194.5095,138.4856
194.5621,138.3944
194.6366,138.3199
194.7278,138.2673
194.8295,138.2400
194.8414,138.2400
194.1538,137.5524
194.1967,137.5213
194.1967,137.5213
194.3801,137.4278
194.3801,137.4278
194.5759,137.3642
194.5759,137.3642
194.7793,137.3320
194.9851,137.3320
195.1885,137.3642
195.3843,137.4278
195.3843,137.4278
195.5677,137.5213
195.6106,137.5524
194.9230,138.2400
194.9349,138.2400
195.0366,138.2673
195.1278,138.3199
195.2023,138.3944
195.2549,138.4856
195.2822,138.5873
195.2822,138.5992
195.9698,137.9116
196.0009,137.9545
196.0944,138.1379
196.0944,138.1379
196.1580,138.3337
196.1902,138.5371
201.1942,138.5371
201.2264,138.3337
201.2900,138.1379
201.2900,138.1379
201.3835,137.9545
201.4146,137.9116
201.4146,137.9116
202.1022,138.5992
202.1022,138.5873
202.1295,138.4856
202.1821,138.3944
202.2566,138.3199
202.3478,138.2673
202.4495,138.2400
202.4614,138.2400
201.7738,137.5524
201.8167,137.5213
201.8167,137.5213
202.0001,137.4278
202.0001,137.4278
202.1959,137.3642
202.1959,137.3642
202.3993,137.3320
202.6051,137.3320
202.8085,137.3642
203.0043,137.4278
203.0043,137.4278
203.1877,137.5213
203.2306,137.5524
202.5430,138.2400
202.5549,138.2400
202.6566,138.2673
202.7478,138.3199
202.8223,138.3944
202.8749,138.4856
202.9022,138.5873
202.9022,138.5992
203.5898,137.9116
203.6209,137.9545
203.7144,138.1379
203.7144,138.1379
203.7780,138.3337
203.8102,138.5371
208.8217,138.5371
208.8217,137.7921
208.8281,137.7325
208.8697,137.6211
208.8784,137.5977
208.8784,137.5977
208.8784,137.5977
208.9356,137.5213
208.9647,137.4825
209.0416,137.4248
209.0799,137.3962
209.0799,137.3962
209.0799,137.3962
209.2147,137.3459
209.2147,137.3459
209.2743,137.3395
210.9701,137.3395
210.9701,137.3395
211.0297,137.3459
211.0297,137.3459
211.1645,137.3962
211.1645,137.3962
211.2797,137.4825
211.3660,137.5977
211.3660,137.5977
211.4163,137.7325
211.4227,137.7921
236.4267,137.7921
236.4267,131.2607
233.3207,131.2607
233.3207,131.5033
233.2890,131.7438
233.2263,131.9781
233.2263,131.9781
233.2263,131.9781
233.1334,132.2022
233.1334,132.2022
233.1334,132.2022
233.0121,132.4123
233.0121,132.4123
233.0121,132.4123
232.8645,132.6047
232.8645,132.6047
232.8645,132.6047
232.6929,132.7763
232.6929,132.7763
232.6929,132.7763
232.5005,132.9239
232.5005,132.9239
232.2904,133.0452
232.2904,133.0452
232.2904,133.0452
232.0663,133.1381
231.8320,133.2008
231.8320,133.2008
231.8320,133.2008
231.7700,133.2090
231.5915,133.2325
231.5915,133.2325
231.3489,133.2325
231.3489,133.2325
231.1316,133.2039
231.1084,133.2008
231.1084,133.2008
231.1084,133.2008
230.8741,133.1381
230.6500,133.0452
230.4399,132.9239
230.2475,132.7763
230.0759,132.6047
229.9283,132.4123
229.8070,132.2022
229.7141,131.9781
229.6514,131.7438
229.6197,131.5033
229.6197,131.2607
229.6514,131.0202
229.6788,130.9176
211.4227,130.9176
211.4227,131.1224
211.4008,131.2607
211.3907,131.3245
211.3326,131.5033
211.3274,131.5192
211.3274,131.5192
211.2345,131.7016
211.1142,131.8672
210.9694,132.0120
210.8038,132.1323
210.8038,132.1323
210.6214,132.2252
210.4267,132.2885
210.2246,132.3205
210.2245,132.3205
210.0199,132.3205
210.0198,132.3205
209.8177,132.2885
209.6230,132.2252
209.4406,132.1323
209.2750,132.0120
209.1302,131.8672
209.0099,131.7016
208.9170,131.5192
208.8537,131.3245
208.8217,131.1224
208.8217,130.9176
203.8027,130.9176
203.8027,131.1224
203.7808,131.2607
203.7707,131.3245
203.7126,131.5033
203.7074,131.5192
203.7074,131.5192
203.6145,131.7016
203.4942,131.8672
203.3494,132.0120
203.1838,132.1323
203.1838,132.1323
203.0014,132.2252
202.8067,132.2885
202.6046,132.3205
202.6045,132.3205
202.3999,132.3205
202.3998,132.3205
202.1977,132.2885
202.0030,132.2252
201.8206,132.1323
201.6550,132.0120
201.5102,131.8672
201.3899,131.7016
201.2970,131.5192
201.2337,131.3245
201.2017,131.1224
201.2017,130.9176
196.1827,130.9176
196.1827,131.1224
196.1608,131.2607
196.1507,131.3245
196.0926,131.5033
196.0874,131.5192
196.0874,131.5192
195.9945,131.7016
195.8742,131.8672
195.7294,132.0120
195.5638,132.1323
195.5638,132.1323
195.3814,132.2252
195.1867,132.2885
194.9846,132.3205
194.9845,132.3205
194.7799,132.3205
194.7798,132.3205
194.5777,132.2885
194.3830,132.2252
194.2006,132.1323
194.0350,132.0120
193.8902,131.8672
193.7699,131.7016
193.6770,131.5192
193.6137,131.3245
193.5817,131.1224
193.5817,130.9176
193.6137,130.7155
193.6770,130.5208
193.7699,130.3384
193.8902,130.1728
193.8902,130.1728
194.0350,130.0280
194.2006,129.9077
194.3199,129.8469
194.3830,129.8148
194.3830,129.8148
194.3830,129.8148
194.5777,129.7515
194.5777,129.7515
194.5777,129.7515
194.7798,129.7195
194.9846,129.7195
195.1867,129.7515
195.1867,129.7515
195.1867,129.7515
195.3814,129.8148
195.3814,129.8148
195.5638,129.9077
195.7294,130.0280
195.8742,130.1728
195.9945,130.3384
196.0874,130.5208
196.0874,130.5208
196.1507,130.7155
196.1507,130.7155
196.1507,130.7155
196.1827,130.9176
201.2017,130.9176
201.2337,130.7155
201.2970,130.5208
201.3899,130.3384
201.5102,130.1728
201.5102,130.1728
201.6550,130.0280
201.8206,129.9077
201.9399,129.8469
202.0030,129.8148
202.0030,129.8148
202.0030,129.8148
202.1977,129.7515
202.1977,129.7515
202.1977,129.7515
202.3998,129.7195
202.6046,129.7195
202.8067,129.7515
202.8067,129.7515
202.8067,129.7515
203.0014,129.8148
203.0014,129.8148
203.1838,129.9077
203.3494,130.0280
203.4942,130.1728
203.6145,130.3384
203.7074,130.5208
203.7074,130.5208
203.7707,130.7155
203.7707,130.7155
203.7707,130.7155
203.8027,130.9176
208.8217,130.9176
208.8537,130.7155
208.9170,130.5208
209.0099,130.3384
209.1302,130.1728
209.1302,130.1728
209.2750,130.0280
209.4406,129.9077
209.5599,129.8469
209.6230,129.8148
209.6230,129.8148
209.6230,129.8148
209.8177,129.7515
209.8177,129.7515
209.8177,129.7515
210.0198,129.7195
210.2246,129.7195
210.4267,129.7515
210.4267,129.7515
210.4267,129.7515
210.6214,129.8148
210.6214,129.8148
210.8038,129.9077
210.9694,130.0280
211.1142,130.1728
211.2345,130.3384
211.3274,130.5208
211.3274,130.5208
211.3907,130.7155
211.3907,130.7155
211.3907,130.7155
211.4227,130.9176
229.6788,130.9176
229.7141,130.7859
229.8070,130.5618
229.8070,130.5618
229.8070,130.5618
229.9283,130.3517
229.9349,130.3431
230.0759,130.1593
230.0759,130.1593
230.0759,130.1593
230.2475,129.9877
230.2475,129.9877
230.2475,129.9877
230.4399,129.8401
230.4399,129.8401
230.4399,129.8401
230.6500,129.7188
230.6500,129.7188
230.6500,129.7188
230.8741,129.6259
230.8741,129.6259
230.8741,129.6259
231.1084,129.5632
231.3489,129.5315
231.3489,129.5315
231.5915,129.5315
231.5915,129.5315
231.8320,129.5632
232.0663,129.6259
232.0663,129.6259
232.2261,129.6921
232.2904,129.7188
232.2904,129.7188
232.5005,129.8401
232.6929,129.9877
232.6929,129.9877
232.8645,130.1593
232.8645,130.1593
233.0121,130.3517
233.1334,130.5618
233.1334,130.5618
233.2263,130.7859
233.2263,130.7859
233.2890,131.0202
233.3207,131.2607
236.4267,131.2607
236.4267,129.5835
236.4067,129.5153
236.3898,129.4944
231.3124,124.4169
177.3456,124.4169
177.3456,124.5831
177.3239,124.6921
177.3132,124.7460
177.2496,124.8995
177.1879,124.9918
177.1573,125.0376
177.1573,125.0376
177.0398,125.1551
177.0398,125.1551
176.9017,125.2474
176.7482,125.3110
176.5853,125.3434
176.5853,125.3434
176.4191,125.3434
176.4191,125.3434
176.2562,125.3110
176.2562,125.3110
176.2501,125.3098
176.2496,125.3124
176.1902,125.3118
176.1355,125.3440
173.3600,128.1194
173.3260,128.1817
173.3255,128.1839
173.3132,128.2460
173.2496,128.3995
173.1879,128.4918
173.1573,128.5376
173.1573,128.5376
173.0398,128.6551
173.0398,128.6551
172.9017,128.7474
172.7482,128.8110
172.5853,128.8434
172.5853,128.8434
172.4191,128.8434
172.4191,128.8434
172.2562,128.8110
172.1027,128.7474
171.9646,128.6551
171.8471,128.5376
171.7548,128.3995
171.6912,128.2460
171.6588,128.0831
171.6588,127.9169
171.6912,127.7540
171.7548,127.6005
171.8471,127.4624
171.8471,127.4624
171.9646,127.3449
171.9646,127.3449
172.0104,127.3143
172.1027,127.2526
172.2562,127.1890
172.3183,127.1767
172.3812,127.1437
172.3828,127.1422
172.8779,126.6471
149.6837,126.6471
149.6837,128.5429
149.6837,128.5429
149.6773,128.6025
149.6773,128.6025
149.6270,128.7373
149.6029,128.7695
149.5781,128.8360
149.5932,128.9054
149.6029,128.9205
149.6270,128.9527
149.6773,129.0875
149.6837,129.1471
149.6837,131.0429
149.6837,131.0429
149.6773,131.1025
149.6773,131.1025
149.6270,131.2373
149.6270,131.2373
149.5407,131.3525
149.4831,131.3957
149.4255,131.4388
149.4255,131.4388
149.4255,131.4388
149.3652,131.4613
149.2907,131.4891
149.2907,131.4891
149.2311,131.4955
146.6353,131.4955
146.5757,131.4891
146.4409,131.4388
146.3257,131.3525
146.2394,131.2373
146.1891,131.1025
146.1827,131.0429
146.1827,130.0112
143.7837,130.0112
143.7837,130.1788
143.7510,130.3431
143.7322,130.3884
143.6869,130.4979
143.6404,130.5675
143.5938,130.6372
143.5938,130.6372
143.4754,130.7556
143.4754,130.7556
143.3361,130.8487
143.1813,130.9128
143.0170,130.9455
143.0170,130.9455
142.8494,130.9455
142.8494,130.9455
142.6851,130.9128
142.5303,130.8487
142.3910,130.7556
142.2726,130.6372
142.1795,130.4979
142.1154,130.3431
142.0827,130.1788
142.0827,130.0112
142.0827,130.0112
141.2837,130.0112
141.2837,130.1788
141.2510,130.3431
141.2322,130.3884
141.1869,130.4979
141.1404,130.5675
141.0938,130.6372
141.0938,130.6372
140.9754,130.7556
140.9754,130.7556
140.8361,130.8487
140.6813,130.9128
140.5170,130.9455
140.5170,130.9455
140.3494,130.9455
140.3494,130.9455
140.1851,130.9128
140.0303,130.8487
139.8910,130.7556
139.7726,130.6372
139.6795,130.4979
139.6154,130.3431
139.5827,130.1788
139.5827,130.0112
139.6154,129.8469
139.6795,129.6921
139.7726,129.5528
139.7726,129.5528
139.8910,129.4344
139.8910,129.4344
140.0303,129.3413
140.0303,129.3413
140.0303,129.3413
140.1398,129.2960
140.1851,129.2772
140.1851,129.2772
140.1851,129.2772
140.2678,129.2607
140.3494,129.2445
140.3494,129.2445
140.5170,129.2445
140.5170,129.2445
140.6394,129.2688
140.6813,129.2772
140.6813,129.2772
140.6813,129.2772
140.8361,129.3413
140.9754,129.4344
140.9754,129.4344
141.0938,129.5528
141.0938,129.5528
141.1869,129.6921
141.2510,129.8469
141.2837,130.0112
142.0827,130.0112
142.1154,129.8469
142.1795,129.6921
142.2726,129.5528
142.2726,129.5528
142.3910,129.4344
142.3910,129.4344
142.5303,129.3413
142.5303,129.3413
142.5303,129.3413
142.6398,129.2960
142.6851,129.2772
142.6851,129.2772
142.6851,129.2772
142.7678,129.2607
142.8494,129.2445
142.8494,129.2445
143.0170,129.2445
143.0170,129.2445
143.1394,129.2688
143.1813,129.2772
143.1813,129.2772
143.1813,129.2772
143.3361,129.3413
143.4754,129.4344
143.4754,129.4344
143.5938,129.5528
143.5938,129.5528
143.6869,129.6921
143.7510,129.8469
143.7837,130.0112
146.1827,130.0112
146.1827,129.1471
146.1891,129.0875
146.2394,128.9527
146.2635,128.9205
146.2883,128.8540
146.2732,128.7846
146.2635,128.7695
146.2394,128.7373
146.1891,128.6025
146.1827,128.5429
146.1827,126.6471
146.1891,126.5875
146.2104,126.5304
146.2394,126.4527
146.2394,126.4527
146.2394,126.4527
146.2836,126.3936
146.3257,126.3375
146.4026,126.2798
146.4409,126.2512
146.4409,126.2512
146.4409,126.2512
146.5757,126.2009
146.5757,126.2009
146.6353,126.1945
149.2311,126.1945
149.2311,126.1945
149.2907,126.2009
149.2907,126.2009
149.4255,126.2512
149.4255,126.2512
149.5407,126.3375
149.6270,126.4527
149.6270,126.4527
149.6773,126.5875
149.6837,126.6471
172.8779,126.6471
174.5137,125.0112
148.7837,125.0112
148.7837,125.0112
148.7837,125.1788
148.7571,125.3124
148.7510,125.3431
148.7507,125.3440
148.6869,125.4979
148.6869,125.4979
148.5938,125.6372
148.5938,125.6372
148.4754,125.7556
148.4754,125.7556
148.3361,125.8487
148.2078,125.9018
148.1813,125.9128
148.1813,125.9128
148.1813,125.9128
148.0170,125.9455
147.8494,125.9455
147.6851,125.9128
147.5303,125.8487
147.3910,125.7556
147.2726,125.6372
147.1795,125.4979
147.1154,125.3431
147.0827,125.1788
147.0827,125.0112
147.1154,124.8469
147.1795,124.6921
147.2726,124.5528
147.2726,124.5528
147.3910,124.4344
147.3910,124.4344
147.4840,124.3723
147.5303,124.3413
147.6851,124.2772
147.7772,124.2589
147.8344,124.2475
147.8344,124.2475
147.8494,124.2445
148.0170,124.2445
148.0320,124.2475
148.0320,124.2475
148.1300,124.2670
148.1813,124.2772
148.1813,124.2772
148.1813,124.2772
148.3361,124.3413
148.4754,124.4344
148.4754,124.4344
148.5938,124.5528
148.5938,124.5528
148.6869,124.6921
148.7510,124.8469
148.7837,125.0112
174.5137,125.0112
175.5617,123.9633
175.5617,123.9633
175.5631,123.9624
175.6749,123.8876
175.7781,123.8449
175.8006,123.8356
175.8006,123.8356
175.9341,123.8090
175.9341,123.8090
175.9801,123.8090
176.0482,123.7890
176.0501,123.7878
176.1027,123.7526
176.2562,123.6890
176.2562,123.6890
176.4191,123.6566
176.4191,123.6566
176.5853,123.6566
176.5853,123.6566
176.7482,123.6890
176.7482,123.6890
176.9017,123.7526
177.0398,123.8449
177.0398,123.8449
177.1573,123.9624
177.1573,123.9624
177.2496,124.1005
177.3132,124.2540
177.3132,124.2540
177.3456,124.4169
231.3124,124.4169
231.2171,124.3216
228.9388,122.0434
226.0425,119.1471
149.6837,119.1471
149.6837,121.0429
149.6837,121.0429
149.6773,121.1025
149.6773,121.1025
149.6270,121.2373
149.6029,121.2695
149.5781,121.3360
149.5932,121.4054
149.6029,121.4205
149.6270,121.4527
149.6773,121.5875
149.6837,121.6471
149.6837,123.5429
149.6837,123.5429
149.6773,123.6025
149.6773,123.6025
149.6270,123.7373
149.6270,123.7373
149.6270,123.7373
149.5984,123.7756
149.5407,123.8525
149.4939,123.8876
149.4255,123.9388
149.4255,123.9388
149.4255,123.9388
149.3652,123.9613
149.2907,123.9891
149.2907,123.9891
149.2311,123.9955
146.6353,123.9955
146.5757,123.9891
146.4409,123.9388
146.3257,123.8525
146.2836,123.7964
144.3412,123.7964
144.3412,124.8410
143.3332,124.8410
143.3332,125.3490
144.3412,125.3490
144.3412,126.3936
144.3347,126.4541
144.2836,126.5910
144.2836,126.5910
144.1961,126.7079
144.0792,126.7954
143.9423,126.8465
143.8818,126.8530
143.8818,126.8530
143.1872,126.8530
143.1872,125.7567
143.1788,125.7651
143.0876,125.8177
142.9859,125.8450
142.8805,125.8450
142.7788,125.8177
142.6876,125.7651
142.6792,125.7567
142.6792,126.8530
141.9846,126.8530
141.9846,126.8530
141.9241,126.8465
141.7872,126.7954
141.7872,126.7954
141.6703,126.7079
141.5828,126.5910
141.5828,126.5910
141.5317,126.4541
141.5252,126.3936
141.5252,126.3936
141.5252,125.3490
142.5332,125.3490
142.5332,124.8410
141.5252,124.8410
141.5252,123.7964
141.5252,123.7964
141.5317,123.7359
141.5828,123.5990
141.5828,123.5990
141.6703,123.4821
141.7872,123.3946
141.9241,123.3435
141.9846,123.3370
142.6792,123.3370
142.6792,124.4333
142.6876,124.4249
142.7788,124.3723
142.8805,124.3450
142.9859,124.3450
143.0876,124.3723
143.1788,124.4249
143.1872,124.4333
143.1872,123.3370
143.8818,123.3370
143.9423,123.3435
144.0792,123.3946
144.0792,123.3946
144.1961,123.4821
144.2836,123.5990
144.2836,123.5990
144.3347,123.7359
144.3412,123.7964
146.2836,123.7964
146.2394,123.7373
146.1891,123.6025
146.1827,123.5429
146.1827,121.6471
146.1891,121.5875
146.2394,121.4527
146.2635,121.4205
146.2883,121.3540
146.2732,121.2846
146.2635,121.2695
146.2394,121.2373
146.1891,121.1025
146.1827,121.0429
146.1827,120.0112
143.7837,120.0112
143.7837,120.0112
143.7837,120.1788
143.7510,120.3431
143.6869,120.4979
143.6869,120.4979
143.5938,120.6372
143.5938,120.6372
143.4754,120.7556
143.4754,120.7556
143.3361,120.8487
143.1813,120.9128
143.0170,120.9455
143.0170,120.9455
142.8494,120.9455
142.8494,120.9455
142.6851,120.9128
142.5303,120.8487
142.3910,120.7556
142.2726,120.6372
142.1795,120.4979
142.1154,120.3431
142.0827,120.1788
142.0827,120.0112
142.0827,120.0112
141.2837,120.0112
141.2837,120.0112
141.2837,120.1788
141.2510,120.3431
141.1869,120.4979
141.1869,120.4979
141.0938,120.6372
141.0938,120.6372
140.9754,120.7556
140.9754,120.7556
140.8361,120.8487
140.6813,120.9128
140.5170,120.9455
140.5170,120.9455
140.3494,120.9455
140.3494,120.9455
140.1851,120.9128
140.0303,120.8487
139.8910,120.7556
139.7726,120.6372
139.6795,120.4979
139.6154,120.3431
139.5827,120.1788
139.5827,120.0112
139.6154,119.8469
139.6795,119.6921
139.7726,119.5528
139.7726,119.5528
139.8910,119.4344
139.8910,119.4344
140.0303,119.3413
140.0303,119.3413
140.0303,119.3413
140.1398,119.2960
140.1851,119.2772
140.1851,119.2772
140.1851,119.2772
140.2678,119.2607
140.3494,119.2445
140.3494,119.2445
140.5170,119.2445
140.5170,119.2445
140.6394,119.2688
140.6813,119.2772
140.6813,119.2772
140.6813,119.2772
140.8361,119.3413
140.9754,119.4344
140.9754,119.4344
141.0938,119.5528
141.0938,119.5528
141.1869,119.6921
141.2510,119.8469
141.2837,120.0112
142.0827,120.0112
142.1154,119.8469
142.1795,119.6921
142.2726,119.5528
142.2726,119.5528
142.3910,119.4344
142.3910,119.4344
142.5303,119.3413
142.5303,119.3413
142.5303,119.3413
142.6398,119.2960
142.6851,119.2772
142.6851,119.2772
142.6851,119.2772
142.7678,119.2607
142.8494,119.2445
142.8494,119.2445
143.0170,119.2445
143.0170,119.2445
143.1394,119.2688
143.1813,119.2772
143.1813,119.2772
143.1813,119.2772
143.3361,119.3413
143.4754,119.4344
143.4754,119.4344
143.5938,119.5528
143.5938,119.5528
143.6869,119.6921
143.7510,119.8469
143.7837,120.0112
146.1827,120.0112
146.1827,119.1471
146.1891,119.0875
146.2104,119.0304
146.2394,118.9527
146.2394,118.9527
146.2394,118.9527
146.2825,118.8951
146.3257,118.8375
146.4026,118.7798
146.4409,118.7512
146.4409,118.7512
146.4409,118.7512
146.5757,118.7009
146.5757,118.7009
146.6353,118.6945
149.2311,118.6945
149.2311,118.6945
149.2907,118.7009
149.2907,118.7009
149.4255,118.7512
149.4255,118.7512
149.5407,118.8375
149.6270,118.9527
149.6270,118.9527
149.6773,119.0875
149.6837,119.1471
226.0425,119.1471
221.5078,114.6124
221.4455,114.5784
221.4187,114.5755
142.0267,114.5755
142.0048,114.5755
Z" /> 
<path style="fill:#000000; fill-opacity:1.0000; stroke:none;fill-rule:evenodd;"
d="M 195.9580,161.5275
195.9370,161.5444
195.4624,162.0190
195.4607,162.0207
195.4422,162.0545
195.4306,162.0726
195.4300,162.0769
195.4266,162.0830
195.4275,162.0944
195.4255,162.1081
195.4255,162.1081
195.4294,162.1213
195.4317,162.1538
195.4478,162.1839
195.5237,162.2883
195.5241,162.2892
195.5244,162.2895
195.5263,162.2925
195.5269,162.2921
195.5729,162.3408
195.6418,162.3579
195.7090,162.3350
195.7432,162.2955
195.7446,162.2964
195.7471,162.2922
195.8208,162.1909
195.8721,162.1202
195.8721,162.1202
195.8721,162.1202
196.0224,161.9699
196.0224,161.9699
196.0224,161.9699
196.1944,161.8449
196.3838,161.7484
196.3838,161.7484
196.3882,161.7462
196.3872,161.7443
196.4355,161.7054
196.4580,161.6380
196.4404,161.5692
196.3884,161.5208
196.3320,161.5075
196.0261,161.5075
Z" /> 
</g>
<g style="fill:#FFFFFF; fill-opacity:1.0000; stroke:none;">
<circle cx="207.0960" cy="154.2421" r="0.1651" /> 
</g>
<g style="fill:#FFFFFF; fill-opacity:1.0000; stroke:none;">
<circle cx="211.0022" cy="115.0000" r="0.1651" /> 
</g>
<g style="fill:#FFFFFF; fill-opacity:1.0000; stroke:none;">
<circle cx="187.9022" cy="141.8000" r="0.1651" /> 
</g>
<g style="fill:#FFFFFF; fill-opacity:1.0000; stroke:none;">
<circle cx="221.0022" cy="115.0000" r="0.1651" /> 
</g>
<g style="fill:#FFFFFF; fill-opacity:1.0000; stroke:none;">
<circle cx="216.0022" cy="115.0000" r="0.1651" /> 
</g>
<g style="fill:#FFFFFF; fill-opacity:1.0000; stroke:none;">
<circle cx="168.5172" cy="158.5000" r="0.1651" /> 
</g>
<g style="fill:#FFFFFF; fill-opacity:1.0000; stroke:none;">
<circle cx="190.0022" cy="115.0000" r="0.1651" /> 
</g>
<g style="fill:#FFFFFF; fill-opacity:1.0000; stroke:none;">
<circle cx="171.0022" cy="131.0000" r="0.1651" /> 
</g>
<g style="fill:#FFFFFF; fill-opacity:1.0000; stroke:none;">
<circle cx="181.2022" cy="141.4000" r="0.1651" /> 
</g>
<g style="fill:#FFFFFF; fill-opacity:1.0000; stroke:none;">
<circle cx="178.0022" cy="120.7500" r="0.1651" /> 
</g>
<g style="fill:#FFFFFF; fill-opacity:1.0000; stroke:none;">
<circle cx="213.2711" cy="145.8819" r="0.1651" /> 
</g>
<g style="fill:#FFFFFF; fill-opacity:1.0000; stroke:none;">
<circle cx="177.7522" cy="133.7500" r="0.1651" /> 
</g>
<g style="fill:#FFFFFF; fill-opacity:1.0000; stroke:none;">
<circle cx="182.0022" cy="132.2500" r="0.1651" /> 
</g>
<g style="fill:#FFFFFF; fill-opacity:1.0000; stroke:none;">
<circle cx="201.0022" cy="115.0000" r="0.1651" /> 
</g>
<g style="fill:#FFFFFF; fill-opacity:1.0000; stroke:none;">
<circle cx="196.0022" cy="115.0000" r="0.1651" /> 
</g>
<g style="fill:#FFFFFF; fill-opacity:1.0000; stroke:none;">
<circle cx="153.3001" cy="115.9875" r="0.1651" /> 
</g>
<g style="fill:#FFFFFF; fill-opacity:1.0000; stroke:none;">
<circle cx="203.5630" cy="158.5037" r="0.1651" /> 
</g>
<g style="fill:#FFFFFF; fill-opacity:1.0000; stroke:none;">
<circle cx="206.0022" cy="115.0000" r="0.1651" /> 
</g>
<g style="fill:#FFFFFF; fill-opacity:1.0000; stroke:none;">
<circle cx="153.2022" cy="120.1000" r="0.1651" /> 
</g>
<g style="fill:#FFFFFF; fill-opacity:1.0000; stroke:none;">
<circle cx="173.2022" cy="158.5000" r="0.1651" /> 
</g>
<g style="fill:#FFFFFF; fill-opacity:1.0000; stroke:none;">
<circle cx="212.0022" cy="154.4500" r="0.1651" /> 
</g>
<g style="fill:#FFFFFF; fill-opacity:1.0000; stroke:none;">
<circle cx="177.4648" cy="145.1437" r="0.1651" /> 
</g>
<g style="fill:#FFFFFF; fill-opacity:1.0000; stroke:none;">
<circle cx="180.3022" cy="145.4000" r="0.1651" /> 
</g>
<g style="fill:#FFFFFF; fill-opacity:1.0000; stroke:none;">
<circle cx="158.1848" cy="145.4681" r="0.1651" /> 
</g>
<g style="fill:#FFFFFF; fill-opacity:1.0000; stroke:none;">
<circle cx="145.7083" cy="146.2953" r="0.1651" /> 
</g>
<g style="fill:#FFFFFF; fill-opacity:1.0000; stroke:none;">
<circle cx="152.8415" cy="145.8700" r="0.1651" /> 
</g>
<g style="fill:#FFFFFF; fill-opacity:1.0000; stroke:none;">
<circle cx="172.5022" cy="128.0000" r="0.1651" /> 
</g>
<g style="fill:#FFFFFF; fill-opacity:1.0000; stroke:none;">
<circle cx="176.5022" cy="124.5000" r="0.1651" /> 
</g>
<g style="fill:#FFFFFF; fill-opacity:1.0000; stroke:none;">
<circle cx="148.4063" cy="146.5043" r="0.1651" /> 
</g>
<g style="fill:#FFFFFF; fill-opacity:1.0000; stroke:none;">
<circle cx="220.3022" cy="156.0000" r="0.1651" /> 
</g>
<g style="fill:#FFFFFF; fill-opacity:1.0000; stroke:none;">
<circle cx="208.5022" cy="150.4748" r="0.1651" /> 
</g>
<g style="fill:#FFFFFF; fill-opacity:1.0000; stroke:none;">
<circle cx="215.6340" cy="153.1182" r="0.1651" /> 
</g>
<g style="fill:#FFFFFF; fill-opacity:1.0000; stroke:none;">
<circle cx="211.1063" cy="151.2400" r="0.1651" /> 
</g>
<g style="fill:#FFFFFF; fill-opacity:1.0000; stroke:none;">
<circle cx="220.3022" cy="146.0000" r="0.1651" /> 
</g>
<g style="fill:#FFFFFF; fill-opacity:1.0000; stroke:none;">
<circle cx="211.0184" cy="153.4498" r="0.1651" /> 
</g>
<g style="fill:#FFFFFF; fill-opacity:1.0000; stroke:none;">
<circle cx="220.3022" cy="148.5000" r="0.1651" /> 
</g>
<g style="fill:#FFFFFF; fill-opacity:1.0000; stroke:none;">
<circle cx="220.7215" cy="143.9193" r="0.1651" /> 
</g>
<g style="fill:#FFFFFF; fill-opacity:1.0000; stroke:none;">
<circle cx="224.0456" cy="144.8148" r="0.1651" /> 
</g>
<g style="fill:#FFFFFF; fill-opacity:1.0000; stroke:none;">
<circle cx="214.2022" cy="159.6000" r="0.1651" /> 
</g>
<g style="fill:#FFFFFF; fill-opacity:1.0000; stroke:none;">
<circle cx="220.3022" cy="153.5000" r="0.1651" /> 
</g>
<g style="fill:#FFFFFF; fill-opacity:1.0000; stroke:none;">
<circle cx="218.1970" cy="153.4718" r="0.1651" /> 
</g>
<g style="fill:#FFFFFF; fill-opacity:1.0000; stroke:none;">
<circle cx="206.5022" cy="149.8176" r="0.1651" /> 
</g>
<g style="fill:#FFFFFF; fill-opacity:1.0000; stroke:none;">
<circle cx="216.1279" cy="151.4544" r="0.1651" /> 
</g>
<g style="fill:#FFFFFF; fill-opacity:1.0000; stroke:none;">
<circle cx="220.3022" cy="151.0000" r="0.1651" /> 
</g>
<g style="fill:#FFFFFF; fill-opacity:1.0000; stroke:none;">
<circle cx="217.8254" cy="151.8808" r="0.1651" /> 
</g>
<g style="fill:#FFFFFF; fill-opacity:1.0000; stroke:none;">
<circle cx="140.4332" cy="130.0950" r="0.6000" /> 
</g>
<g style="fill:#FFFFFF; fill-opacity:1.0000; stroke:none;">
<circle cx="140.4332" cy="120.0950" r="0.6000" /> 
</g>
<g style="fill:#FFFFFF; fill-opacity:1.0000; stroke:none;">
<circle cx="142.9332" cy="130.0950" r="0.6000" /> 
</g>
<g style="fill:#FFFFFF; fill-opacity:1.0000; stroke:none;">
<circle cx="142.9332" cy="120.0950" r="0.6000" /> 
</g>
<g style="fill:#FFFFFF; fill-opacity:1.0000; stroke:none;">
<circle cx="147.9332" cy="125.0950" r="0.6000" /> 
</g>
<g style="fill:none; 
stroke:#FFFFFF; stroke-width:0.8000; stroke-opacity:1; 
stroke-linecap:round; stroke-linejoin:round;">
<path d="M147.5832 130.0950
L148.2832 130.0950
" />
<path d="M147.5832 127.5950
L148.2832 127.5950
" />
<path d="M142.9332 125.4450
L142.9332 124.7450
" />
<path d="M147.5832 120.0950
L148.2832 120.0950
" />
<path d="M147.5832 122.5950
L148.2832 122.5950
" />
</g>
<g style="fill:#FFFFFF; fill-opacity:1.0000; stroke:none;">
<circle cx="232.0022" cy="156.1600" r="0.5000" /> 
</g>
<g style="fill:#FFFFFF; fill-opacity:1.0000; stroke:none;">
<circle cx="234.5422" cy="156.1600" r="0.5000" /> 
</g>
<g style="fill:#FFFFFF; fill-opacity:1.0000; stroke:none;">
<circle cx="232.0022" cy="153.6200" r="0.5000" /> 
</g>
<g style="fill:#FFFFFF; fill-opacity:1.0000; stroke:none;">
<circle cx="234.5422" cy="153.6200" r="0.5000" /> 
</g>
<g style="fill:#FFFFFF; fill-opacity:1.0000; stroke:none;">
<circle cx="232.0022" cy="151.0800" r="0.5000" /> 
</g>
<g style="fill:#FFFFFF; fill-opacity:1.0000; stroke:none;">
<circle cx="234.5422" cy="151.0800" r="0.5000" /> 
</g>
<g style="fill:#FFFFFF; fill-opacity:1.0000; stroke:none;">
<circle cx="232.0022" cy="148.5400" r="0.5000" /> 
</g>
<g style="fill:#FFFFFF; fill-opacity:1.0000; stroke:none;">
<circle cx="234.5422" cy="148.5400" r="0.5000" /> 
</g>
<g style="fill:#FFFFFF; fill-opacity:1.0000; stroke:none;">
<circle cx="232.0022" cy="146.0000" r="0.5000" /> 
</g>
<g style="fill:#FFFFFF; fill-opacity:1.0000; stroke:none;">
<circle cx="234.5422" cy="146.0000" r="0.5000" /> 
</g>
<g style="fill:#FFFFFF; fill-opacity:1.0000; stroke:none;">
<circle cx="232.0022" cy="143.4600" r="0.5000" /> 
</g>
<g style="fill:#FFFFFF; fill-opacity:1.0000; stroke:none;">
<circle cx="234.5422" cy="143.4600" r="0.5000" /> 
</g>
<g style="fill:#FFFFFF; fill-opacity:1.0000; stroke:none;">
<circle cx="210.1222" cy="138.6400" r="0.4000" /> 
</g>
<g style="fill:#FFFFFF; fill-opacity:1.0000; stroke:none;">
<circle cx="202.5022" cy="138.6400" r="0.4000" /> 
</g>
<g style="fill:#FFFFFF; fill-opacity:1.0000; stroke:none;">
<circle cx="194.8822" cy="138.6400" r="0.4000" /> 
</g>
<g style="fill:#FFFFFF; fill-opacity:1.0000; stroke:none;">
<circle cx="194.8822" cy="131.0200" r="0.4000" /> 
</g>
<g style="fill:#FFFFFF; fill-opacity:1.0000; stroke:none;">
<circle cx="202.5022" cy="131.0200" r="0.4000" /> 
</g>
<g style="fill:#FFFFFF; fill-opacity:1.0000; stroke:none;">
<circle cx="210.1222" cy="131.0200" r="0.4000" /> 
</g>
<g style="fill:#FFFFFF; fill-opacity:1.0000; stroke:none;">
<circle cx="231.4702" cy="131.3820" r="1.6000" /> 
</g>
<g style="fill:#FFFFFF; fill-opacity:1.0000; stroke:none;">
<circle cx="235.0022" cy="163.0000" r="0.5000" /> 
</g>
<g style="fill:#FFFFFF; fill-opacity:1.0000; stroke:none;">
<circle cx="232.4622" cy="163.0000" r="0.5000" /> 
</g>
<g style="fill:#FFFFFF; fill-opacity:1.0000; stroke:none;">
<circle cx="229.9222" cy="163.0000" r="0.5000" /> 
</g>
<g style="fill:#FFFFFF; fill-opacity:1.0000; stroke:none;">
<circle cx="227.3822" cy="163.0000" r="0.5000" /> 
</g>
<g style="fill:#FFFFFF; fill-opacity:1.0000; stroke:none;">
<circle cx="224.8422" cy="163.0000" r="0.5000" /> 
</g>
<g style="fill:#FFFFFF; fill-opacity:1.0000; stroke:none;">
<circle cx="222.3022" cy="163.0000" r="0.5000" /> 
</g>
<g style="fill:#FFFFFF; fill-opacity:1.0000; stroke:none;">
<circle cx="219.7622" cy="163.0000" r="0.5000" /> 
</g>
<g style="fill:#FFFFFF; fill-opacity:1.0000; stroke:none;">
<circle cx="217.2222" cy="163.0000" r="0.5000" /> 
</g>
<g style="fill:#FFFFFF; fill-opacity:1.0000; stroke:none;">
<circle cx="214.6822" cy="163.0000" r="0.5000" /> 
</g>
<g style="fill:#FFFFFF; fill-opacity:1.0000; stroke:none;">
<circle cx="212.1422" cy="163.0000" r="0.5000" /> 
</g>
<g style="fill:#FFFFFF; fill-opacity:1.0000; stroke:none;">
<circle cx="209.6022" cy="163.0000" r="0.5000" /> 
</g>
<g style="fill:#FFFFFF; fill-opacity:1.0000; stroke:none;">
<circle cx="207.0622" cy="163.0000" r="0.5000" /> 
</g>
<g style="fill:#FFFFFF; fill-opacity:1.0000; stroke:none;">
<circle cx="204.5222" cy="163.0000" r="0.5000" /> 
</g>
<g style="fill:#FFFFFF; fill-opacity:1.0000; stroke:none;">
<circle cx="201.9822" cy="163.0000" r="0.5000" /> 
</g>
<g style="fill:#FFFFFF; fill-opacity:1.0000; stroke:none;">
<circle cx="199.4422" cy="163.0000" r="0.5000" /> 
</g>
<g style="fill:#FFFFFF; fill-opacity:1.0000; stroke:none;">
<circle cx="196.9022" cy="163.0000" r="0.5000" /> 
</g>
<g style="fill:#FFFFFF; fill-opacity:1.0000; stroke:none;">
<circle cx="194.3622" cy="163.0000" r="0.5000" /> 
</g>
<g style="fill:#FFFFFF; fill-opacity:1.0000; stroke:none;">
<circle cx="191.8222" cy="163.0000" r="0.5000" /> 
</g>
<g style="fill:#FFFFFF; fill-opacity:1.0000; stroke:none;">
<circle cx="189.2822" cy="163.0000" r="0.5000" /> 
</g>
<g style="fill:#FFFFFF; fill-opacity:1.0000; stroke:none;">
<circle cx="186.7422" cy="163.0000" r="0.5000" /> 
</g>
<g style="fill:#FFFFFF; fill-opacity:1.0000; stroke:none;">
<circle cx="184.2022" cy="163.0000" r="0.5000" /> 
</g>
<g style="fill:#FFFFFF; fill-opacity:1.0000; stroke:none;">
<circle cx="181.6622" cy="163.0000" r="0.5000" /> 
</g>
<g style="fill:#FFFFFF; fill-opacity:1.0000; stroke:none;">
<circle cx="179.1222" cy="163.0000" r="0.5000" /> 
</g>
<g style="fill:#FFFFFF; fill-opacity:1.0000; stroke:none;">
<circle cx="176.5822" cy="163.0000" r="0.5000" /> 
</g>
<g style="fill:#FFFFFF; fill-opacity:1.0000; stroke:none;">
<circle cx="174.0422" cy="163.0000" r="0.5000" /> 
</g>
<g style="fill:#FFFFFF; fill-opacity:1.0000; stroke:none;">
<circle cx="171.5022" cy="163.0000" r="0.5000" /> 
</g>
<g style="fill:#FFFFFF; fill-opacity:1.0000; stroke:none;">
<circle cx="168.9622" cy="163.0000" r="0.5000" /> 
</g>
<g style="fill:#FFFFFF; fill-opacity:1.0000; stroke:none;">
<circle cx="166.4222" cy="163.0000" r="0.5000" /> 
</g>
<g style="fill:#FFFFFF; fill-opacity:1.0000; stroke:none;">
<circle cx="163.8822" cy="163.0000" r="0.5000" /> 
</g>
<g style="fill:#FFFFFF; fill-opacity:1.0000; stroke:none;">
<circle cx="161.3422" cy="163.0000" r="0.5000" /> 
</g>
<g style="fill:#FFFFFF; fill-opacity:1.0000; stroke:none;">
<circle cx="158.8022" cy="163.0000" r="0.5000" /> 
</g>
<g style="fill:#FFFFFF; fill-opacity:1.0000; stroke:none;">
<circle cx="156.2622" cy="163.0000" r="0.5000" /> 
</g>
<g style="fill:#FFFFFF; fill-opacity:1.0000; stroke:none;">
<circle cx="153.7222" cy="163.0000" r="0.5000" /> 
</g>
<g style="fill:#FFFFFF; fill-opacity:1.0000; stroke:none;">
<circle cx="151.1822" cy="163.0000" r="0.5000" /> 
</g>
<g style="fill:#FFFFFF; fill-opacity:1.0000; stroke:none;">
<circle cx="148.6422" cy="163.0000" r="0.5000" /> 
</g>
<g style="fill:#FFFFFF; fill-opacity:1.0000; stroke:none;">
<circle cx="146.1022" cy="163.0000" r="0.5000" /> 
</g>
<g style="fill:#FFFFFF; fill-opacity:1.0000; stroke:none;">
<circle cx="143.5622" cy="163.0000" r="0.5000" /> 
</g>
<g style="fill:#FFFFFF; fill-opacity:1.0000; stroke:none;">
<circle cx="141.0222" cy="163.0000" r="0.5000" /> 
</g>
<g style="fill:#FFFFFF; fill-opacity:1.0000; stroke:none;">
<circle cx="138.4822" cy="163.0000" r="0.5000" /> 
</g> 
</svg>
