<?xml version="1.0" standalone="no"?>
 <!DOCTYPE svg PUBLIC "-//W3C//DTD SVG 1.1//EN" 
 "http://www.w3.org/Graphics/SVG/1.1/DTD/svg11.dtd"> 
<svg
  xmlns:svg="http://www.w3.org/2000/svg"
  xmlns="http://www.w3.org/2000/svg"
  xmlns:xlink="http://www.w3.org/1999/xlink"
  version="1.1"
  width="297.0022mm" height="210.0072mm" viewBox="0.0000 0.0000 297.0022 210.0072">
<title>SVG Image created as rcbus-opl3-Edge_Cuts3.svg date 2025/10/11 13:57:38 </title>
  <desc>Image generated by PCBNEW </desc>
<g style="fill:#000000; fill-opacity:1.0000;stroke:#000000; stroke-opacity:1.0000;
stroke-linecap:round; stroke-linejoin:round;"
 transform="translate(0 0) scale(1 1)">
</g>
<g style="fill:none; 
stroke:#000000; stroke-width:0.1500; stroke-opacity:1; 
stroke-linecap:round; stroke-linejoin:round;">
<path d="M139.1332 123.1820
L139.1332 128.0080
" />
<path d="M137.0022 122.0390
L137.0022 120.5000
" />
<path d="M142.5022 115.0000
L222.0022 115.0000
" />
<path d="M142.5022 115.0000 A5.5000 5.5000 0.0 0 0 137.0022 120.5000" />
<path d="M137.0022 122.0390
L137.9902 122.0390
" />
<path d="M137.0022 129.1510
L137.9902 129.1510
" />
<path d="M237.0022 130.0000
L222.0022 115.0000
" />
<path d="M237.0022 130.0000
L237.0022 165.0000
" />
<path d="M137.9902 129.1510 A1.1430 1.1430 0.0 0 0 139.1332 128.0080" />
<path d="M137.0022 165.0000
L137.0022 129.1510
" />
<path d="M237.0022 165.0000
L137.0022 165.0000
" />
<path d="M139.1332 123.1820 A1.1430 1.1430 0.0 0 0 137.9902 122.0390" />
</g> 
</svg>
