<?xml version="1.0" standalone="no"?>
 <!DOCTYPE svg PUBLIC "-//W3C//DTD SVG 1.1//EN" 
 "http://www.w3.org/Graphics/SVG/1.1/DTD/svg11.dtd"> 
<svg
  xmlns:svg="http://www.w3.org/2000/svg"
  xmlns="http://www.w3.org/2000/svg"
  xmlns:xlink="http://www.w3.org/1999/xlink"
  version="1.1"
  width="297.0022mm" height="210.0072mm" viewBox="0.0000 0.0000 297.0022 210.0072">
<title>SVG Image created as rcbus-ymf262-B_Silkscreen2.svg date 2025/08/20 22:38:18 </title>
  <desc>Image generated by PCBNEW </desc>
<g style="fill:#000000; fill-opacity:1.0000;stroke:#000000; stroke-opacity:1.0000;
stroke-linecap:round; stroke-linejoin:round;"
 transform="translate(0 0) scale(1 1)">
<path style="fill:#000000; fill-opacity:1.0000; stroke:none;fill-rule:evenodd;"
d="M 146.3354,159.4547
146.2463,159.4848
146.1675,159.5345
146.0972,159.6056
146.0428,159.6889
146.0026,159.7862
145.9771,159.9002
145.9681,160.0339
145.9771,160.1671
146.0025,160.2807
146.0427,160.3779
146.0972,160.4612
146.1675,160.5323
146.2463,160.5819
146.3354,160.6121
146.4374,160.6225
146.5209,160.6166
146.5930,160.5998
146.6556,160.5729
146.7119,160.5350
146.7617,160.4855
146.8053,160.4232
146.8053,160.5136
146.7985,160.6111
146.7798,160.6895
146.7511,160.7523
146.7130,160.8024
146.6643,160.8422
146.6036,160.8719
146.5284,160.8911
146.4354,160.8980
146.3522,160.8926
146.2705,160.8765
146.1902,160.8497
146.1065,160.8101
146.1065,160.9918
146.1907,161.0203
146.2776,161.0404
146.3673,161.0522
146.4651,161.0563
146.5996,161.0460
146.7077,161.0175
146.7944,160.9732
146.8637,160.9139
146.9170,160.8398
146.9576,160.7460
146.9842,160.6277
146.9938,160.4796
146.9938,160.0339
146.8053,160.0339
146.7991,160.1375
146.7820,160.2231
146.7556,160.2935
146.7207,160.3513
146.6743,160.4006
146.6204,160.4354
146.5576,160.4567
146.4835,160.4642
146.4100,160.4568
146.3475,160.4355
146.2938,160.4007
146.2474,160.3513
146.2125,160.2935
146.1861,160.2231
146.1690,160.1375
146.1628,160.0339
146.1690,159.9297
146.1861,159.8438
146.2125,159.7733
146.2474,159.7156
146.2938,159.6661
146.3475,159.6313
146.4100,159.6100
146.4835,159.6025
146.5576,159.6100
146.6204,159.6314
146.6743,159.6662
146.7207,159.7156
146.7556,159.7733
146.7820,159.8438
146.7991,159.9297
146.8053,160.0339
146.9938,160.0339
146.9938,159.4736
146.8053,159.4736
146.8053,159.6436
146.7617,159.5812
146.7119,159.5318
146.6556,159.4938
146.5930,159.4670
146.5209,159.4502
146.4374,159.4443
Z" /> 
<path style="fill:#000000; fill-opacity:1.0000; stroke:none;fill-rule:evenodd;"
d="M 147.3822,159.4736
147.5708,159.4736
147.5708,160.6225
147.3822,160.6225
Z" /> 
<path style="fill:#000000; fill-opacity:1.0000; stroke:none;fill-rule:evenodd;"
d="M 147.3822,159.0281
147.5708,159.0281
147.5708,159.2684
147.3822,159.2684
Z" /> 
<path style="fill:#000000; fill-opacity:1.0000; stroke:none;fill-rule:evenodd;"
d="M 148.1519,159.1453
148.1519,159.4736
148.5403,159.4736
148.5403,159.6201
148.1519,159.6201
148.1519,160.2437
148.1578,160.3381
148.1718,160.3940
148.1903,160.4242
148.2193,160.4441
148.2684,160.4584
148.3466,160.4642
148.5403,160.4642
148.5403,160.6225
148.3466,160.6225
148.2335,160.6159
148.1496,160.5985
148.0886,160.5730
148.0454,160.5409
148.0127,160.4982
147.9868,160.4380
147.9691,160.3552
147.9624,160.2437
147.9624,159.6201
147.8240,159.6201
147.8240,159.4736
147.9624,159.4736
147.9624,159.1453
Z" /> 
<path style="fill:#000000; fill-opacity:1.0000; stroke:none;fill-rule:evenodd;"
d="M 149.7416,159.9271
149.7416,160.6225
149.5530,160.6225
149.5530,159.9334
149.5447,159.8261
149.5225,159.7470
149.4894,159.6894
149.4417,159.6455
149.3797,159.6182
149.2989,159.6084
149.2239,159.6150
149.1600,159.6337
149.1053,159.6639
149.0581,159.7059
149.0209,159.7567
148.9935,159.8167
148.9762,159.8875
148.9700,159.9714
148.9700,160.6225
148.7804,160.6225
148.7804,159.0281
148.9700,159.0281
148.9700,159.6494
149.0192,159.5848
149.0722,159.5340
149.1293,159.4953
149.1923,159.4674
149.2624,159.4502
149.3410,159.4443
149.4386,159.4528
149.5189,159.4767
149.5853,159.5146
149.6401,159.5668
149.6817,159.6299
149.7134,159.7086
149.7341,159.8064
Z" /> 
<path style="fill:#000000; fill-opacity:1.0000; stroke:none;fill-rule:evenodd;"
d="M 150.0988,160.1695
150.0988,159.4736
150.2873,159.4736
150.2873,160.1623
150.2956,160.2693
150.3177,160.3485
150.3507,160.4063
150.3985,160.4505
150.4606,160.4778
150.5414,160.4877
150.6165,160.4811
150.6804,160.4624
150.7353,160.4324
150.7827,160.3905
150.8202,160.3397
150.8478,160.2798
150.8652,160.2091
150.8713,160.1253
150.8713,159.4736
151.0599,159.4736
151.0599,160.6225
150.8713,160.6225
150.8713,160.4466
150.8214,160.5120
150.7684,160.5630
150.7120,160.6013
150.6497,160.6289
150.5800,160.6459
150.5014,160.6518
150.4038,160.6433
150.3233,160.6193
150.2565,160.5814
150.2012,160.5290
150.1591,160.4656
150.1271,160.3869
150.1063,160.2895
Z" /> 
<path style="fill:#000000; fill-opacity:1.0000; stroke:none;fill-rule:evenodd;"
d="M 151.4417,160.6225
151.6313,160.6225
151.6313,160.4525
151.6755,160.5155
151.7254,160.5651
151.7814,160.6028
151.8436,160.6293
151.9153,160.6460
151.9981,160.6518
152.0987,160.6412
152.1872,160.6104
152.2664,160.5592
152.3377,160.4855
152.3929,160.3997
152.4336,160.2999
152.4593,160.1837
152.4684,160.0480
152.2727,160.0480
152.2665,160.1536
152.2493,160.2415
152.2225,160.3145
152.1871,160.3750
152.1399,160.4273
152.0860,160.4637
152.0241,160.4858
151.9520,160.4935
151.8799,160.4858
151.8180,160.4637
151.7641,160.4273
151.7168,160.3750
151.6814,160.3145
151.6547,160.2415
151.6375,160.1536
151.6313,160.0480
151.6375,159.9425
151.6547,159.8546
151.6814,159.7816
151.7168,159.7212
151.7641,159.6688
151.8180,159.6324
151.8799,159.6102
151.9520,159.6025
152.0241,159.6102
152.0859,159.6324
152.1399,159.6688
152.1871,159.7212
152.2225,159.7816
152.2493,159.8546
152.2665,159.9425
152.2727,160.0480
152.4684,160.0480
152.4593,159.9123
152.4336,159.7962
152.3929,159.6964
152.3377,159.6106
152.2664,159.5369
152.1872,159.4857
152.0987,159.4549
151.9981,159.4443
151.9153,159.4501
151.8436,159.4668
151.7814,159.4934
151.7254,159.5310
151.6755,159.5805
151.6313,159.6436
151.6313,159.0281
151.4417,159.0281
Z" /> 
<path style="fill:#000000; fill-opacity:1.0000; stroke:none;fill-rule:evenodd;"
d="M 152.8076,160.3646
153.0238,160.3646
153.0238,160.6225
152.8076,160.6225
Z" /> 
<path style="fill:#000000; fill-opacity:1.0000; stroke:none;fill-rule:evenodd;"
d="M 154.2736,159.5146
154.2736,159.6905
154.1926,159.6516
154.1132,159.6245
154.0322,159.6080
153.9508,159.6025
153.8606,159.6105
153.7848,159.6331
153.7205,159.6693
153.6660,159.7196
153.6236,159.7804
153.5920,159.8536
153.5718,159.9418
153.5646,160.0480
153.5718,160.1543
153.5920,160.2425
153.6236,160.3157
153.6660,160.3765
153.7205,160.4268
153.7848,160.4630
153.8606,160.4856
153.9508,160.4935
154.0322,160.4881
154.1132,160.4716
154.1926,160.4444
154.2736,160.4056
154.2736,160.5815
154.1933,160.6122
154.1102,160.6342
154.0241,160.6473
153.9303,160.6518
153.8267,160.6447
153.7354,160.6243
153.6545,160.5915
153.5826,160.5465
153.5184,160.4886
153.4535,160.4029
153.4061,160.3029
153.3763,160.1858
153.3657,160.0480
153.3765,159.9081
153.4066,159.7900
153.4545,159.6902
153.5199,159.6055
153.5844,159.5487
153.6575,159.5043
153.7403,159.4718
153.8347,159.4514
153.9426,159.4443
154.0289,159.4487
154.1127,159.4619
154.1944,159.4838
Z" /> 
<path style="fill:#000000; fill-opacity:1.0000; stroke:none;fill-rule:evenodd;"
d="M 154.9245,159.4551
154.8218,159.4859
154.7341,159.5354
154.6589,159.6045
154.6002,159.6877
154.5567,159.7872
154.5290,159.9060
154.5191,160.0480
154.5289,160.1895
154.5566,160.3081
154.6002,160.4076
154.6589,160.4912
154.7341,160.5604
154.8218,160.6101
154.9245,160.6409
155.0458,160.6518
155.1665,160.6410
155.2689,160.6101
155.3566,160.5605
155.4320,160.4912
155.4910,160.4076
155.5347,160.3080
155.5625,160.1895
155.5724,160.0480
155.3726,160.0480
155.3663,160.1522
155.3486,160.2396
155.3211,160.3127
155.2845,160.3739
155.2359,160.4268
155.1810,160.4635
155.1183,160.4858
155.0458,160.4935
154.9721,160.4858
154.9089,160.4635
154.8537,160.4269
154.8055,160.3745
154.7691,160.3135
154.7418,160.2404
154.7242,160.1528
154.7179,160.0480
154.7242,159.9433
154.7419,159.8557
154.7694,159.7826
154.8060,159.7217
154.8545,159.6691
154.9096,159.6325
154.9727,159.6103
155.0458,159.6025
155.1183,159.6103
155.1809,159.6327
155.2359,159.6696
155.2845,159.7227
155.3212,159.7842
155.3487,159.8573
155.3663,159.9444
155.3726,160.0480
155.5724,160.0480
155.5625,159.9060
155.5347,159.7872
155.4910,159.6878
155.4320,159.6045
155.3567,159.5354
155.2690,159.4858
155.1665,159.4551
155.0458,159.4443
Z" /> 
<path style="fill:#000000; fill-opacity:1.0000; stroke:none;fill-rule:evenodd;"
d="M 156.7783,159.6916
156.8307,159.6116
156.8871,159.5502
156.9474,159.5046
157.0153,159.4717
157.0919,159.4513
157.1789,159.4443
157.2664,159.4527
157.3400,159.4767
157.4024,159.5154
157.4556,159.5698
157.4957,159.6342
157.5261,159.7132
157.5458,159.8096
157.5529,159.9271
157.5529,160.6225
157.3634,160.6225
157.3634,159.9334
157.3556,159.8243
157.3351,159.7449
157.3050,159.6884
157.2606,159.6449
157.2027,159.6181
157.1267,159.6084
157.0550,159.6149
156.9937,159.6336
156.9409,159.6637
156.8951,159.7059
156.8494,159.7754
156.8205,159.8623
156.8101,159.9714
156.8101,160.6225
156.6205,160.6225
156.6205,159.9334
156.6127,159.8236
156.5922,159.7442
156.5621,159.6879
156.5177,159.6448
156.4591,159.6181
156.3817,159.6084
156.3111,159.6149
156.2505,159.6336
156.1980,159.6638
156.1522,159.7063
156.1065,159.7762
156.0776,159.8630
156.0672,159.9714
156.0672,160.6225
155.8776,160.6225
155.8776,159.4736
156.0672,159.4736
156.0672,159.6494
156.1147,159.5836
156.1662,159.5325
156.2219,159.4943
156.2839,159.4671
156.3547,159.4502
156.4361,159.4443
156.5173,159.4517
156.5875,159.4730
156.6486,159.5077
156.7008,159.5549
156.7440,159.6154
Z" /> 
<path style="fill:#000000; fill-opacity:1.0000; stroke:none;fill-rule:evenodd;"
d="M 158.2642,159.0926
158.4383,159.0926
157.9055,160.8159
157.7313,160.8159
Z" /> 
<path style="fill:#000000; fill-opacity:1.0000; stroke:none;fill-rule:evenodd;"
d="M 159.0130,159.4515
158.9221,159.4722
158.8415,159.5054
158.7697,159.5512
158.7056,159.6101
158.6410,159.6969
158.5938,159.7985
158.5640,159.9177
158.5535,160.0583
158.5605,160.1681
158.5808,160.2646
158.6132,160.3496
158.6574,160.4249
158.7138,160.4916
158.7806,160.5479
158.8560,160.5921
158.9414,160.6245
159.0383,160.6447
159.1488,160.6518
159.2577,160.6462
159.3650,160.6293
159.4701,160.6018
159.5730,160.5639
159.5730,160.3880
159.4713,160.4345
159.3706,160.4672
159.2674,160.4869
159.1601,160.4935
159.0668,160.4863
158.9886,160.4660
158.9229,160.4339
158.8675,160.3901
158.8228,160.3356
158.7880,160.2689
158.7633,160.1877
158.7502,160.0891
159.6171,160.0891
159.6171,159.9975
159.6131,159.9425
159.4285,159.9425
158.7563,159.9435
158.7761,159.8394
158.8127,159.7570
158.8654,159.6919
158.9335,159.6434
159.0163,159.6133
159.1180,159.6025
159.2069,159.6133
159.2803,159.6441
159.3420,159.6950
159.3879,159.7612
159.4172,159.8424
159.4285,159.9425
159.6131,159.9425
159.6077,159.8700
159.5813,159.7622
159.5394,159.6708
159.4824,159.5931
159.4103,159.5289
159.3268,159.4829
159.2298,159.4543
159.1160,159.4443
Z" /> 
<path style="fill:#000000; fill-opacity:1.0000; stroke:none;fill-rule:evenodd;"
d="M 159.9265,159.0281
160.1151,159.0281
160.1151,160.6225
159.9265,160.6225
Z" /> 
<path style="fill:#000000; fill-opacity:1.0000; stroke:none;fill-rule:evenodd;"
d="M 160.8873,159.4515
160.7964,159.4722
160.7159,159.5054
160.6440,159.5512
160.5799,159.6101
160.5154,159.6969
160.4681,159.7985
160.4383,159.9177
160.4278,160.0583
160.4349,160.1681
160.4551,160.2646
160.4875,160.3496
160.5317,160.4249
160.5882,160.4916
160.6549,160.5479
160.7303,160.5921
160.8157,160.6245
160.9126,160.6447
161.0231,160.6518
161.1321,160.6462
161.2393,160.6293
161.3445,160.6018
161.4474,160.5639
161.4474,160.3880
161.3457,160.4345
161.2450,160.4672
161.1417,160.4869
161.0344,160.4935
160.9411,160.4863
160.8629,160.4660
160.7972,160.4339
160.7418,160.3901
160.6971,160.3356
160.6623,160.2689
160.6376,160.1877
160.6245,160.0891
161.4914,160.0891
161.4914,159.9975
161.4874,159.9425
161.3028,159.9425
160.6307,159.9435
160.6504,159.8394
160.6871,159.7570
160.7397,159.6919
160.8078,159.6434
160.8906,159.6133
160.9923,159.6025
161.0812,159.6133
161.1547,159.6441
161.2163,159.6950
161.2623,159.7612
161.2915,159.8424
161.3028,159.9425
161.4874,159.9425
161.4820,159.8700
161.4556,159.7622
161.4137,159.6708
161.3567,159.5931
161.2846,159.5289
161.2012,159.4829
161.1041,159.4543
160.9903,159.4443
Z" /> 
<path style="fill:#000000; fill-opacity:1.0000; stroke:none;fill-rule:evenodd;"
d="M 162.6267,159.5146
162.6267,159.6905
162.5457,159.6516
162.4663,159.6245
162.3853,159.6080
162.3039,159.6025
162.2137,159.6105
162.1379,159.6331
162.0736,159.6693
162.0191,159.7196
161.9767,159.7804
161.9451,159.8536
161.9249,159.9418
161.9177,160.0480
161.9249,160.1543
161.9451,160.2425
161.9767,160.3157
162.0191,160.3765
162.0736,160.4268
162.1379,160.4630
162.2137,160.4856
162.3039,160.4935
162.3853,160.4881
162.4663,160.4716
162.5457,160.4444
162.6267,160.4056
162.6267,160.5815
162.5464,160.6122
162.4633,160.6342
162.3772,160.6473
162.2834,160.6518
162.1798,160.6447
162.0885,160.6243
162.0076,160.5915
161.9357,160.5465
161.8715,160.4886
161.8066,160.4029
161.7592,160.3029
161.7294,160.1858
161.7188,160.0480
161.7296,159.9081
161.7597,159.7900
161.8076,159.6902
161.8730,159.6055
161.9375,159.5487
162.0106,159.5043
162.0935,159.4718
162.1878,159.4514
162.2957,159.4443
162.3820,159.4487
162.4658,159.4619
162.5475,159.4838
Z" /> 
<path style="fill:#000000; fill-opacity:1.0000; stroke:none;fill-rule:evenodd;"
d="M 163.1406,159.1453
163.1406,159.4736
163.5290,159.4736
163.5290,159.6201
163.1406,159.6201
163.1406,160.2437
163.1465,160.3381
163.1605,160.3940
163.1790,160.4242
163.2080,160.4441
163.2571,160.4584
163.3353,160.4642
163.5290,160.4642
163.5290,160.6225
163.3353,160.6225
163.2222,160.6159
163.1383,160.5985
163.0773,160.5730
163.0341,160.5409
163.0014,160.4982
162.9755,160.4380
162.9578,160.3552
162.9511,160.2437
162.9511,159.6201
162.8127,159.6201
162.8127,159.4736
162.9511,159.4736
162.9511,159.1453
Z" /> 
<path style="fill:#000000; fill-opacity:1.0000; stroke:none;fill-rule:evenodd;"
d="M 164.4413,159.6494
164.3721,159.6229
164.2896,159.6143
164.2111,159.6214
164.1456,159.6414
164.0905,159.6734
164.0443,159.7179
164.0089,159.7714
163.9822,159.8370
163.9649,159.9174
163.9587,160.0156
163.9587,160.6225
163.7691,160.6225
163.7691,159.4736
163.9587,159.4736
163.9587,159.6494
164.0033,159.5848
164.0547,159.5338
164.1134,159.4948
164.1788,159.4676
164.2553,159.4504
164.3449,159.4443
164.3880,159.4472
164.4403,159.4560
Z" /> 
<path style="fill:#000000; fill-opacity:1.0000; stroke:none;fill-rule:evenodd;"
d="M 164.6394,159.4736
164.8280,159.4736
164.8280,160.6225
164.6394,160.6225
Z" /> 
<path style="fill:#000000; fill-opacity:1.0000; stroke:none;fill-rule:evenodd;"
d="M 164.6394,159.0281
164.8280,159.0281
164.8280,159.2684
164.6394,159.2684
Z" /> 
<path style="fill:#000000; fill-opacity:1.0000; stroke:none;fill-rule:evenodd;"
d="M 166.1500,159.4736
166.1500,160.6225
165.9604,160.6225
165.9604,159.6201
165.4430,159.6201
165.4430,160.6225
165.2534,160.6225
165.2534,159.6201
165.0731,159.6201
165.0731,159.4736
165.2534,159.4736
165.2534,159.3939
165.2600,159.2993
165.2780,159.2241
165.3056,159.1644
165.3421,159.1175
165.3888,159.0805
165.4477,159.0527
165.5216,159.0347
165.6141,159.0281
165.8037,159.0281
165.8037,159.1864
165.6234,159.1864
165.5567,159.1919
165.5117,159.2063
165.4824,159.2270
165.4624,159.2570
165.4485,159.3035
165.4430,159.3731
165.4430,159.4736
Z" /> 
<path style="fill:#000000; fill-opacity:1.0000; stroke:none;fill-rule:evenodd;"
d="M 165.9604,159.0281
166.1500,159.0281
166.1500,159.2684
165.9604,159.2684
Z" /> 
<path style="fill:#000000; fill-opacity:1.0000; stroke:none;fill-rule:evenodd;"
d="M 166.9220,159.4515
166.8312,159.4722
166.7506,159.5054
166.6788,159.5512
166.6147,159.6101
166.5501,159.6969
166.5028,159.7985
166.4731,159.9177
166.4625,160.0583
166.4696,160.1681
166.4899,160.2646
166.5223,160.3496
166.5665,160.4249
166.6229,160.4916
166.6896,160.5479
166.7651,160.5921
166.8504,160.6245
166.9474,160.6447
167.0579,160.6518
167.1668,160.6462
167.2740,160.6293
167.3792,160.6018
167.4821,160.5639
167.4821,160.3880
167.3804,160.4345
167.2797,160.4672
167.1765,160.4869
167.0691,160.4935
166.9758,160.4863
166.8977,160.4660
166.8319,160.4339
166.7766,160.3901
166.7319,160.3356
166.6970,160.2689
166.6724,160.1877
166.6593,160.0891
167.5262,160.0891
167.5262,159.9975
167.5221,159.9425
167.3376,159.9425
166.6654,159.9435
166.6851,159.8394
166.7218,159.7570
166.7745,159.6919
166.8426,159.6434
166.9254,159.6133
167.0271,159.6025
167.1159,159.6133
167.1894,159.6441
167.2510,159.6950
167.2970,159.7612
167.3262,159.8424
167.3376,159.9425
167.5221,159.9425
167.5168,159.8700
167.4903,159.7622
167.4484,159.6708
167.3914,159.5931
167.3194,159.5289
167.2359,159.4829
167.1389,159.4543
167.0251,159.4443
Z" /> 
<path style="fill:#000000; fill-opacity:1.0000; stroke:none;fill-rule:evenodd;"
d="M 168.5907,159.6436
168.5465,159.5805
168.4966,159.5310
168.4406,159.4934
168.3784,159.4668
168.3064,159.4501
168.2229,159.4443
168.1228,159.4549
168.0346,159.4857
167.9556,159.5368
167.8842,159.6106
167.8291,159.6964
167.7884,159.7962
167.7627,159.9123
167.7536,160.0480
167.7627,160.1837
167.7884,160.2999
167.8291,160.3997
167.8842,160.4855
167.9556,160.5593
168.0346,160.6104
168.1228,160.6412
168.2229,160.6518
168.3064,160.6459
168.3784,160.6293
168.4406,160.6028
168.4966,160.5651
168.5465,160.5155
168.5907,160.4525
168.5907,160.6225
168.7793,160.6225
168.7793,160.0480
168.5907,160.0480
168.5845,160.1536
168.5672,160.2414
168.5403,160.3145
168.5046,160.3750
168.4572,160.4273
168.4031,160.4637
168.3411,160.4859
168.2690,160.4935
168.1969,160.4858
168.1351,160.4637
168.0811,160.4273
168.0339,160.3750
167.9985,160.3145
167.9717,160.2415
167.9545,160.1536
167.9483,160.0480
167.9545,159.9425
167.9717,159.8546
167.9985,159.7816
168.0339,159.7212
168.0811,159.6688
168.1351,159.6324
168.1969,159.6102
168.2690,159.6025
168.3411,159.6102
168.4031,159.6324
168.4571,159.6688
168.5046,159.7212
168.5403,159.7817
168.5672,159.8547
168.5845,159.9425
168.5907,160.0480
168.7793,160.0480
168.7793,159.0281
168.5907,159.0281
Z" /> 
<path style="fill:#000000; fill-opacity:1.0000; stroke:none;fill-rule:evenodd;"
d="M 169.5028,159.0926
169.6769,159.0926
169.1441,160.8159
168.9699,160.8159
Z" /> 
<path style="fill:#000000; fill-opacity:1.0000; stroke:none;fill-rule:evenodd;"
d="M 170.5391,159.6494
170.4699,159.6229
170.3874,159.6143
170.3088,159.6214
170.2433,159.6414
170.1883,159.6734
170.1420,159.7179
170.1067,159.7714
170.0800,159.8370
170.0627,159.9174
170.0565,160.0156
170.0565,160.6225
169.8669,160.6225
169.8669,159.4736
170.0565,159.4736
170.0565,159.6494
170.1011,159.5848
170.1525,159.5338
170.2112,159.4948
170.2766,159.4676
170.3531,159.4504
170.4427,159.4443
170.4858,159.4472
170.5381,159.4560
Z" /> 
<path style="fill:#000000; fill-opacity:1.0000; stroke:none;fill-rule:evenodd;"
d="M 171.5162,159.5146
171.5162,159.6905
171.4352,159.6516
171.3558,159.6245
171.2748,159.6080
171.1934,159.6025
171.1032,159.6105
171.0273,159.6331
170.9631,159.6693
170.9085,159.7196
170.8662,159.7804
170.8346,159.8536
170.8144,159.9418
170.8072,160.0480
170.8144,160.1543
170.8346,160.2425
170.8662,160.3157
170.9085,160.3765
170.9631,160.4268
171.0273,160.4630
171.1032,160.4856
171.1934,160.4935
171.2748,160.4881
171.3558,160.4716
171.4352,160.4444
171.5162,160.4056
171.5162,160.5815
171.4359,160.6122
171.3528,160.6342
171.2666,160.6473
171.1729,160.6518
171.0693,160.6447
170.9780,160.6243
170.8971,160.5915
170.8251,160.5465
170.7610,160.4886
170.6961,160.4029
170.6486,160.3029
170.6188,160.1858
170.6083,160.0480
170.6190,159.9081
170.6492,159.7900
170.6971,159.6902
170.7625,159.6055
170.8270,159.5487
170.9000,159.5043
170.9829,159.4718
171.0773,159.4514
171.1851,159.4443
171.2715,159.4487
171.3552,159.4619
171.4369,159.4838
Z" /> 
<path style="fill:#000000; fill-opacity:1.0000; stroke:none;fill-rule:evenodd;"
d="M 171.8365,160.6225
172.0260,160.6225
172.0260,160.4525
172.0703,160.5155
172.1202,160.5651
172.1762,160.6028
172.2384,160.6293
172.3100,160.6460
172.3929,160.6518
172.4935,160.6412
172.5820,160.6104
172.6611,160.5592
172.7325,160.4855
172.7877,160.3997
172.8284,160.2999
172.8541,160.1837
172.8632,160.0480
172.6675,160.0480
172.6613,160.1536
172.6440,160.2415
172.6173,160.3145
172.5819,160.3750
172.5346,160.4273
172.4807,160.4637
172.4188,160.4858
172.3468,160.4935
172.2747,160.4858
172.2128,160.4637
172.1589,160.4273
172.1116,160.3750
172.0762,160.3145
172.0495,160.2415
172.0322,160.1536
172.0260,160.0480
172.0322,159.9425
172.0495,159.8546
172.0762,159.7816
172.1116,159.7212
172.1589,159.6688
172.2128,159.6324
172.2747,159.6102
172.3468,159.6025
172.4188,159.6102
172.4807,159.6324
172.5346,159.6688
172.5819,159.7212
172.6173,159.7816
172.6440,159.8546
172.6613,159.9425
172.6675,160.0480
172.8632,160.0480
172.8541,159.9123
172.8284,159.7962
172.7877,159.6964
172.7325,159.6106
172.6611,159.5369
172.5820,159.4857
172.4935,159.4549
172.3929,159.4443
172.3100,159.4501
172.2384,159.4668
172.1762,159.4934
172.1202,159.5310
172.0703,159.5805
172.0260,159.6436
172.0260,159.0281
171.8365,159.0281
Z" /> 
<path style="fill:#000000; fill-opacity:1.0000; stroke:none;fill-rule:evenodd;"
d="M 173.1563,160.1695
173.1563,159.4736
173.3448,159.4736
173.3448,160.1623
173.3531,160.2693
173.3752,160.3485
173.4082,160.4063
173.4561,160.4505
173.5181,160.4778
173.5989,160.4877
173.6740,160.4811
173.7379,160.4624
173.7928,160.4324
173.8402,160.3905
173.8777,160.3397
173.9053,160.2798
173.9227,160.2091
173.9288,160.1253
173.9288,159.4736
174.1174,159.4736
174.1174,160.6225
173.9288,160.6225
173.9288,160.4466
173.8789,160.5120
173.8259,160.5630
173.7695,160.6013
173.7072,160.6289
173.6375,160.6459
173.5589,160.6518
173.4613,160.6433
173.3808,160.6193
173.3140,160.5814
173.2587,160.5290
173.2166,160.4656
173.1846,160.3869
173.1638,160.2895
Z" /> 
<path style="fill:#000000; fill-opacity:1.0000; stroke:none;fill-rule:evenodd;"
d="M 175.2380,159.5088
175.2380,159.6846
175.1563,159.6486
175.0719,159.6231
174.9848,159.6077
174.8937,159.6025
174.8004,159.6083
174.7321,159.6235
174.6831,159.6456
174.6441,159.6791
174.6210,159.7211
174.6129,159.7745
174.6187,159.8156
174.6352,159.8493
174.6631,159.8773
174.7272,159.9096
174.8650,159.9485
174.9296,159.9628
175.0617,159.9994
175.1536,160.0406
175.2149,160.0847
175.2608,160.1422
175.2892,160.2139
175.2994,160.3042
175.2912,160.3815
175.2676,160.4482
175.2287,160.5067
175.1728,160.5582
175.1081,160.5970
175.0303,160.6263
174.9369,160.6451
174.8250,160.6518
174.7321,160.6472
174.6329,160.6328
174.5322,160.6095
174.4223,160.5756
174.4223,160.3822
174.5276,160.4315
174.6282,160.4657
174.7299,160.4867
174.8291,160.4935
174.9172,160.4876
174.9840,160.4716
175.0341,160.4477
175.0743,160.4124
175.0977,160.3700
175.1058,160.3182
175.0996,160.2692
175.0823,160.2305
175.0540,160.1997
175.0159,160.1771
174.9452,160.1506
174.8271,160.1203
174.7615,160.1050
174.6469,160.0730
174.5650,160.0347
174.5083,159.9918
174.4661,159.9364
174.4399,159.8679
174.4305,159.7823
174.4382,159.7035
174.4600,159.6371
174.4954,159.5806
174.5453,159.5324
174.6040,159.4961
174.6761,159.4685
174.7641,159.4507
174.8711,159.4443
174.9739,159.4484
175.0679,159.4604
175.1576,159.4809
Z" /> 
<path style="fill:#000000; fill-opacity:1.0000; stroke:none;fill-rule:evenodd;"
d="M 175.5043,159.9601
176.0566,159.9601
176.0566,160.1301
175.5043,160.1301
Z" /> 
<path style="fill:#000000; fill-opacity:1.0000; stroke:none;fill-rule:evenodd;"
d="M 176.7967,160.7261
176.7363,160.8618
176.6847,160.9461
176.6409,160.9937
176.5871,161.0274
176.5205,161.0486
176.4380,161.0563
176.2873,161.0563
176.2873,160.8980
176.3981,160.8980
176.4697,160.8881
176.5190,160.8616
176.5584,160.8105
176.6142,160.6894
176.6480,160.6033
176.1838,159.4736
176.3837,159.4736
176.7423,160.3722
177.1009,159.4736
177.3008,159.4736
Z" /> 
<path style="fill:#000000; fill-opacity:1.0000; stroke:none;fill-rule:evenodd;"
d="M 178.4554,159.6916
178.5078,159.6116
178.5641,159.5502
178.6244,159.5046
178.6924,159.4717
178.7689,159.4513
178.8560,159.4443
178.9435,159.4527
179.0170,159.4767
179.0795,159.5154
179.1326,159.5698
179.1727,159.6342
179.2031,159.7132
179.2228,159.8096
179.2300,159.9271
179.2300,160.6225
179.0405,160.6225
179.0405,159.9334
179.0327,159.8243
179.0122,159.7449
178.9820,159.6884
178.9376,159.6449
178.8797,159.6181
178.8038,159.6084
178.7320,159.6149
178.6707,159.6336
178.6179,159.6637
178.5721,159.7059
178.5265,159.7754
178.4976,159.8623
178.4872,159.9714
178.4872,160.6225
178.2976,160.6225
178.2976,159.9334
178.2898,159.8236
178.2692,159.7442
178.2391,159.6879
178.1947,159.6448
178.1362,159.6181
178.0588,159.6084
177.9882,159.6149
177.9276,159.6336
177.8750,159.6638
177.8293,159.7063
177.7835,159.7762
177.7546,159.8630
177.7443,159.9714
177.7443,160.6225
177.5547,160.6225
177.5547,159.4736
177.7443,159.4736
177.7443,159.6494
177.7917,159.5836
177.8432,159.5325
177.8990,159.4943
177.9609,159.4671
178.0317,159.4502
178.1131,159.4443
178.1944,159.4517
178.2645,159.4730
178.3257,159.5077
178.3779,159.5549
178.4211,159.6154
Z" /> 
<path style="fill:#000000; fill-opacity:1.0000; stroke:none;fill-rule:evenodd;"
d="M 180.1872,159.0281
180.1872,159.1864
180.0068,159.1864
179.9402,159.1919
179.8952,159.2063
179.8659,159.2270
179.8459,159.2570
179.8320,159.3035
179.8265,159.3731
179.8265,159.4736
180.1369,159.4736
180.1369,159.6201
179.8265,159.6201
179.8265,160.6225
179.6369,160.6225
179.6369,159.6201
179.4566,159.6201
179.4566,159.4736
179.6369,159.4736
179.6369,159.3944
179.6436,159.2974
179.6618,159.2212
179.6895,159.1617
179.7260,159.1156
179.7727,159.0799
179.8331,159.0526
179.9105,159.0347
180.0088,159.0281
Z" /> 
<path style="fill:#000000; fill-opacity:1.0000; stroke:none;fill-rule:evenodd;"
d="M 180.5497,160.4466
181.2721,160.4466
181.2721,160.6225
180.3007,160.6225
180.3007,160.4466
180.6219,160.1197
180.8775,159.8551
180.9668,159.7455
181.0163,159.6664
181.0463,159.5883
181.0558,159.5144
181.0460,159.4370
181.0177,159.3718
180.9703,159.3159
180.9092,159.2741
180.8361,159.2483
180.7474,159.2391
180.6493,159.2472
180.5419,159.2725
180.4334,159.3132
180.3109,159.3739
180.3109,159.1629
180.4347,159.1187
180.5445,159.0884
180.6512,159.0692
180.7433,159.0633
180.8622,159.0715
180.9631,159.0949
181.0491,159.1320
181.1224,159.1821
181.1842,159.2464
181.2278,159.3195
181.2545,159.4030
181.2638,159.4998
181.2549,159.5919
181.2285,159.6787
181.1827,159.7645
181.0999,159.8780
180.9369,160.0496
Z" /> 
<path style="fill:#000000; fill-opacity:1.0000; stroke:none;fill-rule:evenodd;"
d="M 182.1487,159.0724
182.0474,159.0986
181.9566,159.1413
181.8747,159.2010
181.8006,159.2791
181.7413,159.3668
181.6939,159.4666
181.6586,159.5803
181.6364,159.7100
181.6285,159.8581
181.6354,160.0196
181.6544,160.1562
181.6838,160.2712
181.7223,160.3677
181.7689,160.4483
181.8303,160.5218
181.9002,160.5779
181.9796,160.6182
182.0702,160.6431
182.1747,160.6518
182.2888,160.6422
182.3868,160.6147
182.4717,160.5705
182.5456,160.5091
182.6053,160.4338
182.6486,160.3471
182.6755,160.2468
182.6850,160.1301
182.4770,160.1301
182.4669,160.2376
182.4392,160.3232
182.3954,160.3916
182.3515,160.4334
182.3010,160.4630
182.2427,160.4813
182.1747,160.4877
182.1066,160.4813
182.0483,160.4630
181.9978,160.4334
181.9538,160.3916
181.9101,160.3232
181.8824,160.2376
181.8724,160.1301
181.8824,160.0220
181.9102,159.9362
181.9538,159.8682
181.9978,159.8266
182.0483,159.7971
182.1066,159.7789
182.1747,159.7725
182.2427,159.7789
182.3010,159.7971
182.3515,159.8266
182.3954,159.8682
182.4391,159.9362
182.4669,160.0220
182.4770,160.1301
182.6850,160.1301
182.6757,160.0102
182.6496,159.9086
182.6081,159.8223
182.5512,159.7486
182.4802,159.6885
182.3974,159.6451
182.3007,159.6180
182.1870,159.6084
182.1151,159.6138
182.0484,159.6298
181.9861,159.6561
181.9291,159.6923
181.8787,159.7377
181.8345,159.7931
181.8500,159.6507
181.8770,159.5370
181.9134,159.4471
181.9580,159.3769
182.0169,159.3175
182.0870,159.2750
182.1706,159.2485
182.2711,159.2391
182.3489,159.2436
182.4283,159.2572
182.5069,159.2791
182.5856,159.3094
182.5856,159.1219
182.4999,159.0959
182.4201,159.0779
182.3407,159.0669
182.2628,159.0633
Z" /> 
<path style="fill:#000000; fill-opacity:1.0000; stroke:none;fill-rule:evenodd;"
d="M 183.2198,160.4466
183.9421,160.4466
183.9421,160.6225
182.9707,160.6225
182.9707,160.4466
183.2919,160.1197
183.5476,159.8551
183.6369,159.7455
183.6864,159.6664
183.7164,159.5883
183.7259,159.5144
183.7161,159.4370
183.6877,159.3718
183.6403,159.3159
183.5793,159.2741
183.5061,159.2483
183.4175,159.2391
183.3194,159.2472
183.2120,159.2725
183.1035,159.3132
182.9810,159.3739
182.9810,159.1629
183.1048,159.1187
183.2145,159.0884
183.3213,159.0692
183.4134,159.0633
183.5322,159.0715
183.6331,159.0949
183.7191,159.1320
183.7925,159.1821
183.8542,159.2464
183.8979,159.3195
183.9246,159.4030
183.9339,159.4998
183.9250,159.5919
183.8985,159.6787
183.8527,159.7645
183.7699,159.8780
183.6070,160.0496
Z" /> 
</g> 
</svg>
