<?xml version="1.0" standalone="no"?>
 <!DOCTYPE svg PUBLIC "-//W3C//DTD SVG 1.1//EN" 
 "http://www.w3.org/Graphics/SVG/1.1/DTD/svg11.dtd"> 
<svg
  xmlns:svg="http://www.w3.org/2000/svg"
  xmlns="http://www.w3.org/2000/svg"
  xmlns:xlink="http://www.w3.org/1999/xlink"
  version="1.1"
  width="297.0022mm" height="210.0072mm" viewBox="0.0000 0.0000 297.0022 210.0072">
<title>SVG Image created as rcbus-opl3-B_Silkscreen2.svg date 2025/10/01 23:06:29 </title>
  <desc>Image generated by PCBNEW </desc>
<g style="fill:#000000; fill-opacity:1.0000;stroke:#000000; stroke-opacity:1.0000;
stroke-linecap:round; stroke-linejoin:round;"
 transform="translate(0 0) scale(1 1)">
<path style="fill:#000000; fill-opacity:1.0000; stroke:none;fill-rule:evenodd;"
d="M 136.2700,160.8725
136.2700,159.2718
136.5815,159.2718
136.5815,159.8600
136.6479,159.8137
136.7397,159.7680
136.8394,159.7366
136.9399,159.7262
137.0241,159.7326
137.0910,159.7499
137.1439,159.7766
137.1896,159.8144
137.2260,159.8609
137.2536,159.9174
137.2784,160.0120
137.2873,160.1262
137.2873,160.8725
136.9759,160.8725
136.9759,160.1661
136.9703,160.1158
136.9550,160.0770
136.9303,160.0456
136.8983,160.0235
136.8605,160.0105
136.8155,160.0059
136.7297,160.0170
136.6519,160.0468
136.5815,160.0890
136.5815,160.8725
Z" /> 
<path style="fill:#000000; fill-opacity:1.0000; stroke:none;fill-rule:evenodd;"
d="M 137.9485,160.8725
137.8621,160.8677
137.7927,160.8546
137.7373,160.8348
137.6886,160.8042
137.6501,160.7628
137.6208,160.7090
137.6025,160.6491
137.5910,160.5713
137.5882,160.4716
137.5986,159.9940
137.4226,159.9940
137.4226,159.7946
137.6098,159.7451
137.6511,159.4291
137.8966,159.4291
137.8966,159.7451
138.1627,159.7451
138.1627,159.9940
137.8966,159.9940
137.8966,160.4700
137.9053,160.5450
137.9162,160.5723
137.9300,160.5921
137.9665,160.6180
138.0095,160.6282
138.1515,160.6423
138.1515,160.8725
Z" /> 
<path style="fill:#000000; fill-opacity:1.0000; stroke:none;fill-rule:evenodd;"
d="M 138.7647,160.8725
138.6783,160.8677
138.6089,160.8546
138.5536,160.8348
138.5049,160.8042
138.4663,160.7628
138.4370,160.7090
138.4188,160.6491
138.4073,160.5713
138.4045,160.4716
138.4148,159.9940
138.2388,159.9940
138.2388,159.7946
138.4260,159.7451
138.4673,159.4291
138.7129,159.4291
138.7129,159.7451
138.9790,159.7451
138.9790,159.9940
138.7129,159.9940
138.7129,160.4700
138.7216,160.5450
138.7325,160.5723
138.7462,160.5921
138.7828,160.6180
138.8257,160.6282
138.9678,160.6423
138.9678,160.8725
Z" /> 
<path style="fill:#000000; fill-opacity:1.0000; stroke:none;fill-rule:evenodd;"
d="M 139.7129,159.7324
139.6550,159.7457
139.6003,159.7662
139.5507,159.7918
139.4626,159.8525
139.4120,159.7451
139.1511,159.7451
139.1511,161.3702
139.4626,161.3702
139.4626,160.8142
139.5331,160.8451
139.6130,160.8688
139.6954,160.8834
139.7753,160.8882
139.8754,160.8796
139.9539,160.8559
140.0155,160.8193
140.0665,160.7683
140.1077,160.7031
140.1389,160.6208
140.1655,160.4843
140.1754,160.3097
139.8640,160.3097
139.8563,160.4312
139.8373,160.5084
139.8046,160.5696
139.7671,160.6048
139.7220,160.6249
139.6740,160.6316
139.6175,160.6278
139.5607,160.6164
139.5069,160.5983
139.4626,160.5764
139.4626,160.0412
139.5552,159.9988
139.6118,159.9836
139.6755,159.9784
139.7276,159.9859
139.7726,160.0082
139.8086,160.0460
139.8394,160.1108
139.8570,160.1906
139.8640,160.3097
140.1754,160.3097
140.1694,160.1782
140.1524,160.0668
140.1220,159.9646
140.0806,159.8833
140.0246,159.8163
139.9556,159.7678
139.8746,159.7384
139.7753,159.7279
Z" /> 
<path style="fill:#000000; fill-opacity:1.0000; stroke:none;fill-rule:evenodd;"
d="M 140.7896,160.8851
140.6755,160.8817
140.5534,160.8725
140.4408,160.8567
140.3536,160.8341
140.3536,160.6516
140.8526,160.6516
140.9248,160.6441
140.9503,160.6331
140.9672,160.6167
140.9772,160.5941
140.9810,160.5604
140.9810,160.5241
140.9739,160.4862
140.9536,160.4589
140.9194,160.4425
140.8532,160.4354
140.6765,160.4354
140.5829,160.4279
140.5021,160.4065
140.4537,160.3827
140.4130,160.3509
140.3793,160.3104
140.3553,160.2634
140.3397,160.2041
140.3340,160.1291
140.3340,160.0637
140.3391,159.9931
140.3532,159.9336
140.3754,159.8833
140.4080,159.8400
140.4540,159.8031
140.5160,159.7725
140.5835,159.7529
140.6722,159.7396
140.7871,159.7347
140.9358,159.7419
141.0846,159.7607
141.1958,159.7861
141.1958,159.9687
140.7240,159.9687
140.6671,159.9744
140.6310,159.9889
140.6081,160.0158
140.5994,160.0637
140.5994,160.0985
140.6035,160.1316
140.6143,160.1532
140.6325,160.1685
140.6604,160.1787
140.7365,160.1854
140.9177,160.1854
141.0052,160.1913
141.0738,160.2075
141.1272,160.2321
141.1683,160.2643
141.2105,160.3214
141.2370,160.3928
141.2465,160.4827
141.2465,160.5835
141.2399,160.6574
141.2217,160.7162
141.1933,160.7631
141.1539,160.8018
141.1031,160.8332
141.0385,160.8572
140.9310,160.8775
Z" /> 
<path style="fill:#000000; fill-opacity:1.0000; stroke:none;fill-rule:evenodd;"
d="M 141.4760,160.8756
141.4511,160.8706
141.4374,160.8573
141.4324,160.8335
141.4324,160.6188
141.4376,160.5930
141.4514,160.5789
141.4760,160.5736
141.6557,160.5736
141.6814,160.5789
141.6957,160.5932
141.7010,160.6188
141.7010,160.8335
141.6974,160.8542
141.6882,160.8663
141.6557,160.8756
Z" /> 
<path style="fill:#000000; fill-opacity:1.0000; stroke:none;fill-rule:evenodd;"
d="M 141.4760,160.0432
141.4511,160.0382
141.4374,160.0249
141.4324,160.0011
141.4324,159.7864
141.4376,159.7606
141.4514,159.7465
141.4760,159.7413
141.6557,159.7413
141.6814,159.7466
141.6957,159.7608
141.7010,159.7864
141.7010,160.0011
141.6974,160.0218
141.6882,160.0339
141.6557,160.0432
Z" /> 
<path style="fill:#000000; fill-opacity:1.0000; stroke:none;fill-rule:evenodd;"
d="M 141.8003,161.0237
142.3905,159.2555
142.7067,159.2555
142.1166,161.0237
Z" /> 
<path style="fill:#000000; fill-opacity:1.0000; stroke:none;fill-rule:evenodd;"
d="M 142.4759,161.0237
143.0660,159.2555
143.3823,159.2555
142.7922,161.0237
Z" /> 
<path style="fill:#000000; fill-opacity:1.0000; stroke:none;fill-rule:evenodd;"
d="M 143.4478,160.8725
143.4478,159.7451
143.7045,159.7451
143.7593,159.8600
143.8362,159.8092
143.9206,159.7657
143.9801,159.7446
144.0513,159.7311
144.1361,159.7262
144.2053,159.7316
144.2633,159.7468
144.3121,159.7708
144.3746,159.8218
144.4196,159.8846
144.5305,159.8122
144.5965,159.7788
144.6682,159.7510
144.7423,159.7323
144.8138,159.7262
144.9032,159.7327
144.9734,159.7504
145.0281,159.7774
145.0751,159.8160
145.1117,159.8637
145.1387,159.9220
145.1624,160.0201
145.1710,160.1416
145.1710,160.8725
144.8596,160.8725
144.8596,160.1692
144.8542,160.1175
144.8395,160.0786
144.8155,160.0470
144.7840,160.0244
144.7461,160.0108
144.6985,160.0059
144.6361,160.0121
144.5711,160.0315
144.5093,160.0604
144.4561,160.0941
144.4628,160.1342
144.4651,160.1754
144.4651,160.8725
144.1537,160.8725
144.1537,160.1692
144.1483,160.1175
144.1336,160.0786
144.1097,160.0470
144.0784,160.0244
144.0408,160.0108
143.9933,160.0059
143.9072,160.0162
143.8300,160.0452
143.7593,160.0890
143.7593,160.8725
Z" /> 
<path style="fill:#000000; fill-opacity:1.0000; stroke:none;fill-rule:evenodd;"
d="M 145.7350,159.7356
145.6215,159.7489
145.5170,159.7697
145.4315,159.7936
145.4315,159.9730
145.7686,159.9730
145.8670,159.9778
145.9256,159.9893
145.9707,160.0112
145.9958,160.0398
146.0093,160.0771
146.0143,160.1273
146.0143,160.2037
145.7266,160.2037
145.6291,160.2100
145.5521,160.2270
145.4916,160.2530
145.4446,160.2869
145.3945,160.3473
145.3646,160.4167
145.3542,160.4983
145.3542,160.6002
145.3639,160.6854
145.3909,160.7537
145.4348,160.8091
145.4925,160.8507
145.5608,160.8762
145.6428,160.8851
145.7117,160.8815
145.7761,160.8708
145.8376,160.8540
145.8911,160.8339
145.9782,160.7902
146.0296,160.7534
146.0802,160.8725
146.3258,160.8725
146.3258,160.6139
146.0143,160.6139
145.9939,160.6222
145.9539,160.6366
145.9021,160.6517
145.8476,160.6642
145.7994,160.6689
145.7322,160.6573
145.7049,160.6422
145.6837,160.6192
145.6705,160.5892
145.6657,160.5483
145.6657,160.5028
145.6757,160.4470
145.7043,160.4065
145.7503,160.3797
145.8260,160.3641
146.0143,160.3510
146.0143,160.6139
146.3258,160.6139
146.3258,160.1059
146.3191,160.0102
146.3010,159.9362
146.2736,159.8793
146.2341,159.8306
146.1841,159.7922
146.1220,159.7637
146.0167,159.7390
145.8818,159.7303
Z" /> 
<path style="fill:#000000; fill-opacity:1.0000; stroke:none;fill-rule:evenodd;"
d="M 146.5952,159.5791
146.5703,159.5741
146.5567,159.5608
146.5516,159.5371
146.5516,159.3317
146.5568,159.3059
146.5706,159.2917
146.5952,159.2865
146.8349,159.2865
146.8530,159.2899
146.8649,159.2992
146.8748,159.3317
146.8748,159.5371
146.8701,159.5612
146.8574,159.5743
146.8349,159.5791
Z" /> 
<path style="fill:#000000; fill-opacity:1.0000; stroke:none;fill-rule:evenodd;"
d="M 146.5575,160.8725
146.5575,159.7451
146.8690,159.7451
146.8690,160.8725
Z" /> 
<path style="fill:#000000; fill-opacity:1.0000; stroke:none;fill-rule:evenodd;"
d="M 147.7866,159.7805
147.6519,159.7436
147.5754,159.7318
147.4979,159.7279
147.3917,159.7357
147.3086,159.7569
147.2439,159.7893
147.1895,159.8361
147.1457,159.8988
147.1124,159.9807
147.0922,160.0683
147.0787,160.1800
147.0737,160.3202
147.0796,160.4563
147.0955,160.5641
147.1192,160.6485
147.1563,160.7267
147.2015,160.7858
147.2549,160.8291
147.3172,160.8594
147.3904,160.8784
147.4769,160.8851
147.5341,160.8811
147.5911,160.8689
147.6465,160.8499
147.6989,160.8253
147.7474,160.7959
147.7866,160.7651
147.8372,160.8725
148.0980,160.8725
148.0980,160.0045
147.7866,160.0045
147.7866,160.5718
147.7008,160.6142
147.6478,160.6293
147.5860,160.6346
147.5181,160.6273
147.4690,160.6074
147.4321,160.5713
147.4047,160.5084
147.3908,160.4292
147.3852,160.3048
147.3913,160.1726
147.4061,160.0903
147.4243,160.0436
147.4472,160.0108
147.4746,159.9888
147.5269,159.9689
147.5992,159.9614
147.6503,159.9650
147.6982,159.9755
147.7866,160.0045
148.0980,160.0045
148.0980,159.2702
147.7866,159.2702
Z" /> 
<path style="fill:#000000; fill-opacity:1.0000; stroke:none;fill-rule:evenodd;"
d="M 148.6630,159.7356
148.5495,159.7489
148.4450,159.7697
148.3595,159.7936
148.3595,159.9730
148.6966,159.9730
148.7950,159.9778
148.8536,159.9893
148.8986,160.0112
148.9238,160.0398
148.9373,160.0771
148.9422,160.1273
148.9422,160.2037
148.6545,160.2037
148.5571,160.2100
148.4801,160.2270
148.4196,160.2530
148.3726,160.2869
148.3224,160.3473
148.2926,160.4167
148.2822,160.4983
148.2822,160.6002
148.2919,160.6854
148.3189,160.7537
148.3627,160.8091
148.4205,160.8507
148.4888,160.8762
148.5707,160.8851
148.6397,160.8815
148.7041,160.8708
148.7656,160.8540
148.8190,160.8339
148.9061,160.7902
148.9576,160.7534
149.0082,160.8725
149.2537,160.8725
149.2537,160.6139
148.9422,160.6139
148.9219,160.6222
148.8819,160.6366
148.8301,160.6517
148.7755,160.6642
148.7274,160.6689
148.6602,160.6573
148.6329,160.6422
148.6117,160.6192
148.5985,160.5892
148.5936,160.5483
148.5936,160.5028
148.6037,160.4470
148.6323,160.4065
148.6783,160.3797
148.7540,160.3641
148.9422,160.3510
148.9422,160.6139
149.2537,160.6139
149.2537,160.1059
149.2471,160.0102
149.2290,159.9362
149.2016,159.8793
149.1620,159.8306
149.1120,159.7922
149.0499,159.7637
148.9447,159.7390
148.8098,159.7303
Z" /> 
<path style="fill:#000000; fill-opacity:1.0000; stroke:none;fill-rule:evenodd;"
d="M 149.7704,160.8725
149.3924,159.7451
149.7131,159.7451
149.9558,160.5846
150.2070,159.7451
150.5246,159.7451
150.1290,160.8725
Z" /> 
<path style="fill:#000000; fill-opacity:1.0000; stroke:none;fill-rule:evenodd;"
d="M 150.9593,159.7356
150.8459,159.7489
150.7414,159.7697
150.6559,159.7936
150.6559,159.9730
150.9930,159.9730
151.0913,159.9778
151.1499,159.9893
151.1950,160.0112
151.2202,160.0398
151.2336,160.0771
151.2386,160.1273
151.2386,160.2037
150.9509,160.2037
150.8534,160.2100
150.7764,160.2270
150.7160,160.2530
150.6690,160.2869
150.6188,160.3473
150.5889,160.4167
150.5786,160.4983
150.5786,160.6002
150.5882,160.6854
150.6153,160.7537
150.6591,160.8091
150.7169,160.8507
150.7852,160.8762
150.8671,160.8851
150.9360,160.8815
151.0005,160.8708
151.0620,160.8540
151.1154,160.8339
151.2025,160.7902
151.2540,160.7534
151.3046,160.8725
151.5501,160.8725
151.5501,160.6139
151.2386,160.6139
151.2183,160.6222
151.1782,160.6366
151.1265,160.6517
151.0719,160.6642
151.0237,160.6689
150.9566,160.6573
150.9292,160.6422
150.9081,160.6192
150.8949,160.5892
150.8900,160.5483
150.8900,160.5028
150.9001,160.4470
150.9287,160.4065
150.9747,160.3797
151.0504,160.3641
151.2386,160.3510
151.2386,160.6139
151.5501,160.6139
151.5501,160.1059
151.5434,160.0102
151.5254,159.9362
151.4980,159.8793
151.4584,159.8306
151.4084,159.7922
151.3463,159.7637
151.2410,159.7390
151.1062,159.7303
Z" /> 
<path style="fill:#000000; fill-opacity:1.0000; stroke:none;fill-rule:evenodd;"
d="M 152.1356,160.8771
152.0569,160.8723
151.9917,160.8589
151.9378,160.8382
151.8898,160.8076
151.8510,160.7679
151.8205,160.7181
151.8001,160.6625
151.7867,160.5935
151.7818,160.5083
151.7818,159.2702
152.0933,159.2702
152.0933,160.4624
152.0970,160.5225
152.1064,160.5628
152.1234,160.5955
152.1456,160.6167
152.1740,160.6306
152.2102,160.6399
152.2969,160.6516
152.2969,160.8771
Z" /> 
<path style="fill:#000000; fill-opacity:1.0000; stroke:none;fill-rule:evenodd;"
d="M 152.7786,159.7344
152.6818,159.7521
152.6074,159.7784
152.5427,159.8196
152.4912,159.8774
152.4519,159.9547
152.4278,160.0402
152.4113,160.1561
152.4050,160.3097
152.4116,160.4592
152.4290,160.5732
152.4546,160.6584
152.4956,160.7349
152.5490,160.7924
152.6159,160.8336
152.6921,160.8597
152.7899,160.8772
152.9140,160.8836
153.0434,160.8793
153.1457,160.8676
153.3261,160.8341
153.3261,160.6516
152.9965,160.6516
152.8886,160.6451
152.8220,160.6294
152.7712,160.5993
152.7403,160.5559
152.7233,160.4998
152.7135,160.4191
152.9985,160.4191
153.1056,160.4117
153.1915,160.3912
153.2426,160.3678
153.2843,160.3365
153.3178,160.2970
153.3415,160.2508
153.3569,160.1919
153.3624,160.1187
153.0879,160.1187
153.0795,160.1762
153.0585,160.2081
153.0238,160.2261
152.9663,160.2332
152.7104,160.2332
152.7157,160.1285
152.7289,160.0611
152.7544,160.0077
152.7897,159.9761
152.8365,159.9588
152.9030,159.9523
152.9662,159.9567
153.0103,159.9680
153.0455,159.9892
153.0693,160.0203
153.0828,160.0605
153.0879,160.1187
153.3624,160.1187
153.3625,160.1171
153.3566,160.0151
153.3408,159.9375
153.3174,159.8792
153.2816,159.8290
153.2338,159.7899
153.1717,159.7612
153.0625,159.7373
152.9030,159.7279
Z" /> 
<path style="fill:#000000; fill-opacity:1.0000; stroke:none;fill-rule:evenodd;"
d="M 153.6027,160.8756
153.5778,160.8706
153.5641,160.8573
153.5591,160.8335
153.5591,160.6188
153.5643,160.5930
153.5781,160.5789
153.6027,160.5736
153.7824,160.5736
153.8081,160.5789
153.8223,160.5932
153.8276,160.6188
153.8276,160.8335
153.8241,160.8542
153.8149,160.8663
153.7824,160.8756
Z" /> 
<path style="fill:#000000; fill-opacity:1.0000; stroke:none;fill-rule:evenodd;"
d="M 154.4079,159.7349
154.3039,159.7538
154.2407,159.7760
154.1875,159.8061
154.1429,159.8441
154.1066,159.8902
154.0761,159.9484
154.0518,160.0210
154.0309,160.1409
154.0229,160.3062
154.0306,160.4633
154.0510,160.5811
154.0747,160.6528
154.1049,160.7115
154.1413,160.7589
154.1860,160.7986
154.2392,160.8305
154.3023,160.8546
154.4066,160.8758
154.5406,160.8836
154.6774,160.8761
154.7822,160.8562
154.8455,160.8330
154.8985,160.8021
154.9426,160.7635
154.9785,160.7170
155.0084,160.6587
155.0318,160.5865
155.0518,160.4674
155.0594,160.3062
155.0593,160.3046
154.7480,160.3046
154.7445,160.4100
154.7357,160.4820
154.7191,160.5434
154.6986,160.5815
154.6702,160.6087
154.6348,160.6245
154.5937,160.6319
154.5406,160.6346
154.4876,160.6319
154.4467,160.6245
154.4115,160.6087
154.3831,160.5815
154.3627,160.5434
154.3463,160.4820
154.3377,160.4099
154.3344,160.3046
154.3378,160.1990
154.3463,160.1278
154.3627,160.0673
154.3831,160.0297
154.4115,160.0027
154.4467,159.9870
154.4876,159.9796
154.5406,159.9768
154.5937,159.9796
154.6348,159.9870
154.6702,160.0027
154.6986,160.0297
154.7192,160.0673
154.7357,160.1278
154.7445,160.1990
154.7480,160.3046
155.0593,160.3046
155.0514,160.1437
155.0302,160.0241
155.0059,159.9514
154.9755,159.8933
154.9396,159.8472
154.8956,159.8091
154.8425,159.7785
154.7791,159.7554
154.6747,159.7353
154.5406,159.7279
Z" /> 
<path style="fill:#000000; fill-opacity:1.0000; stroke:none;fill-rule:evenodd;"
d="M 155.2638,160.8725
155.2638,159.7451
155.5047,159.7451
155.5753,159.9173
155.6402,159.8453
155.7126,159.7848
155.7663,159.7544
155.8266,159.7359
155.8954,159.7294
155.9412,159.7318
155.9872,159.7405
155.9872,160.0596
155.9204,160.0528
155.8554,160.0501
155.7960,160.0536
155.7449,160.0636
155.6973,160.0803
155.6540,160.1032
155.6141,160.1326
155.5753,160.1705
155.5753,160.8725
Z" /> 
<path style="fill:#000000; fill-opacity:1.0000; stroke:none;fill-rule:evenodd;"
d="M 156.5014,159.7491
156.4149,159.7630
156.3444,159.7842
156.2794,159.8166
156.2283,159.8571
156.1890,159.9060
156.1614,159.9626
156.1438,160.0306
156.1375,160.1127
156.1418,160.1759
156.1546,160.2369
156.1772,160.2947
156.2113,160.3487
156.2566,160.3954
156.3175,160.4357
156.2616,160.4539
156.2167,160.4797
156.1809,160.5130
156.1541,160.5536
156.1377,160.6004
156.1320,160.6552
156.1420,160.7201
156.1715,160.7775
156.2233,160.8298
156.2481,160.8438
156.1854,160.8786
156.1263,160.9343
156.0975,160.9791
156.0800,161.0300
156.0740,161.0885
156.0740,161.1224
156.0796,161.1789
156.0958,161.2277
156.1224,161.2704
156.1786,161.3229
156.2547,161.3623
156.3418,161.3854
156.4435,161.3936
156.7821,161.3936
156.8936,161.3864
156.9821,161.3669
157.0519,161.3371
157.1066,161.2981
157.1518,161.2471
157.1844,161.1875
157.2047,161.1177
157.2118,161.0353
157.2118,161.0197
156.9168,161.0197
156.9168,161.0522
156.9113,161.0908
156.8959,161.1209
156.8702,161.1446
156.8184,161.1670
156.7452,161.1754
156.5311,161.1754
156.4583,161.1666
156.4106,161.1439
156.3878,161.1201
156.3739,161.0901
156.3689,161.0517
156.3689,161.0271
156.3742,160.9879
156.3890,160.9573
156.4126,160.9330
156.4449,160.9148
156.4824,160.9042
156.5272,160.9004
156.7537,160.9004
156.8082,160.9044
156.8466,160.9147
156.8783,160.9326
156.8995,160.9553
156.9122,160.9837
156.9168,161.0197
157.2118,161.0197
157.2118,161.0057
157.2058,160.9252
157.1891,160.8605
157.1633,160.8087
157.1266,160.7639
157.0807,160.7280
157.0239,160.7005
156.9276,160.6759
156.8043,160.6669
156.4918,160.6669
156.4561,160.6634
156.4246,160.6534
156.4021,160.6345
156.3943,160.6030
156.4034,160.5660
156.4299,160.5428
156.4686,160.5302
156.5212,160.5256
156.7212,160.5256
156.8195,160.5197
156.8973,160.5039
156.9583,160.4800
157.0134,160.4451
157.0560,160.4041
157.0877,160.3568
157.1178,160.2752
157.1282,160.1813
157.1258,160.1383
156.8475,160.1383
156.8439,160.1825
156.8340,160.2189
156.8153,160.2494
156.7854,160.2728
156.7461,160.2866
156.6864,160.2920
156.5669,160.2920
156.5187,160.2872
156.4825,160.2741
156.4554,160.2539
156.4360,160.2260
156.4231,160.1869
156.4183,160.1327
156.4235,160.0769
156.4373,160.0383
156.4578,160.0123
156.5042,159.9872
156.5765,159.9776
156.6937,159.9776
156.7416,159.9817
156.7783,159.9929
156.8082,160.0132
156.8301,160.0439
156.8426,160.0829
156.8475,160.1383
157.1258,160.1383
157.1247,160.1168
157.1154,160.0695
157.1004,160.0275
157.0835,159.9959
157.0447,159.9468
157.2174,159.9157
157.2174,159.7440
156.6068,159.7440
Z" /> 
<path style="fill:#000000; fill-opacity:1.0000; stroke:none;fill-rule:evenodd;"
d="M 157.2873,161.0237
157.8774,159.2555
158.1937,159.2555
157.6035,161.0237
Z" /> 
<path style="fill:#000000; fill-opacity:1.0000; stroke:none;fill-rule:evenodd;"
d="M 158.8210,159.7324
158.7631,159.7457
158.7084,159.7662
158.6588,159.7918
158.5707,159.8525
158.5201,159.7451
158.2592,159.7451
158.2592,161.3702
158.5707,161.3702
158.5707,160.8142
158.6412,160.8451
158.7210,160.8688
158.8035,160.8834
158.8834,160.8882
158.9835,160.8796
159.0620,160.8559
159.1236,160.8193
159.1746,160.7683
159.2157,160.7031
159.2470,160.6208
159.2736,160.4843
159.2835,160.3097
158.9721,160.3097
158.9644,160.4312
158.9454,160.5084
158.9127,160.5696
158.8752,160.6048
158.8301,160.6249
158.7820,160.6316
158.7255,160.6278
158.6688,160.6164
158.6150,160.5983
158.5707,160.5764
158.5707,160.0412
158.6633,159.9988
158.7199,159.9836
158.7836,159.9784
158.8357,159.9859
158.8807,160.0082
158.9167,160.0460
158.9475,160.1108
158.9651,160.1906
158.9721,160.3097
159.2835,160.3097
159.2775,160.1782
159.2605,160.0668
159.2301,159.9646
159.1887,159.8833
159.1327,159.8163
159.0637,159.7678
158.9827,159.7384
158.8834,159.7279
Z" /> 
<path style="fill:#000000; fill-opacity:1.0000; stroke:none;fill-rule:evenodd;"
d="M 159.4872,160.8725
159.4872,159.7451
159.7282,159.7451
159.7987,159.9173
159.8636,159.8453
159.9361,159.7848
159.9897,159.7544
160.0501,159.7359
160.1188,159.7294
160.1646,159.7318
160.2107,159.7405
160.2107,160.0596
160.1438,160.0528
160.0789,160.0501
160.0194,160.0536
159.9683,160.0636
159.9208,160.0803
159.8775,160.1032
159.8376,160.1326
159.7987,160.1705
159.7987,160.8725
Z" /> 
<path style="fill:#000000; fill-opacity:1.0000; stroke:none;fill-rule:evenodd;"
d="M 160.7269,159.7349
160.6229,159.7538
160.5597,159.7760
160.5065,159.8061
160.4619,159.8441
160.4256,159.8902
160.3951,159.9484
160.3709,160.0210
160.3500,160.1409
160.3419,160.3062
160.3496,160.4633
160.3701,160.5811
160.3937,160.6528
160.4240,160.7115
160.4604,160.7589
160.5050,160.7986
160.5582,160.8305
160.6214,160.8546
160.7257,160.8758
160.8596,160.8836
160.9965,160.8761
161.1012,160.8562
161.1646,160.8330
161.2176,160.8021
161.2617,160.7635
161.2976,160.7170
161.3274,160.6587
161.3508,160.5865
161.3708,160.4674
161.3785,160.3062
161.3784,160.3046
161.0671,160.3046
161.0636,160.4100
161.0548,160.4820
161.0382,160.5434
161.0177,160.5815
160.9892,160.6087
160.9539,160.6245
160.9127,160.6319
160.8596,160.6346
160.8067,160.6319
160.7657,160.6245
160.7306,160.6087
160.7022,160.5815
160.6818,160.5434
160.6653,160.4820
160.6568,160.4099
160.6534,160.3046
160.6568,160.1990
160.6653,160.1278
160.6818,160.0673
160.7022,160.0297
160.7305,160.0027
160.7657,159.9870
160.8067,159.9796
160.8596,159.9768
160.9127,159.9796
160.9539,159.9870
160.9893,160.0027
161.0177,160.0297
161.0382,160.0673
161.0548,160.1278
161.0636,160.1990
161.0671,160.3046
161.3784,160.3046
161.3704,160.1437
161.3493,160.0241
161.3249,159.9514
161.2946,159.8933
161.2587,159.8472
161.2146,159.8091
161.1616,159.7785
161.0981,159.7554
160.9937,159.7353
160.8596,159.7279
Z" /> 
<path style="fill:#000000; fill-opacity:1.0000; stroke:none;fill-rule:evenodd;"
d="M 161.6191,159.5791
161.5941,159.5741
161.5804,159.5608
161.5754,159.5371
161.5754,159.3317
161.5806,159.3059
161.5944,159.2917
161.6191,159.2865
161.8587,159.2865
161.8768,159.2899
161.8887,159.2992
161.8986,159.3317
161.8986,159.5371
161.8938,159.5612
161.8812,159.5743
161.8587,159.5791
Z" /> 
<path style="fill:#000000; fill-opacity:1.0000; stroke:none;fill-rule:evenodd;"
d="M 161.5828,161.3702
161.5828,159.7451
161.8943,159.7451
161.8943,160.8634
161.8893,160.9961
161.8742,161.1337
161.8493,161.2666
161.8191,161.3702
Z" /> 
<path style="fill:#000000; fill-opacity:1.0000; stroke:none;fill-rule:evenodd;"
d="M 162.4726,159.7344
162.3758,159.7521
162.3014,159.7784
162.2367,159.8196
162.1852,159.8774
162.1459,159.9547
162.1218,160.0402
162.1053,160.1561
162.0990,160.3097
162.1056,160.4592
162.1230,160.5732
162.1486,160.6584
162.1896,160.7349
162.2430,160.7924
162.3099,160.8336
162.3861,160.8597
162.4839,160.8772
162.6080,160.8836
162.7374,160.8793
162.8397,160.8676
163.0201,160.8341
163.0201,160.6516
162.6905,160.6516
162.5826,160.6451
162.5160,160.6294
162.4652,160.5993
162.4343,160.5559
162.4173,160.4998
162.4075,160.4191
162.6925,160.4191
162.7996,160.4117
162.8855,160.3912
162.9366,160.3678
162.9783,160.3365
163.0118,160.2970
163.0355,160.2508
163.0509,160.1919
163.0564,160.1187
162.7819,160.1187
162.7735,160.1762
162.7525,160.2081
162.7178,160.2261
162.6603,160.2332
162.4044,160.2332
162.4097,160.1285
162.4229,160.0611
162.4484,160.0077
162.4837,159.9761
162.5305,159.9588
162.5970,159.9523
162.6602,159.9567
162.7043,159.9680
162.7395,159.9892
162.7633,160.0203
162.7768,160.0605
162.7819,160.1187
163.0564,160.1187
163.0565,160.1171
163.0506,160.0151
163.0348,159.9375
163.0114,159.8792
162.9756,159.8290
162.9278,159.7899
162.8657,159.7612
162.7565,159.7373
162.5970,159.7279
Z" /> 
<path style="fill:#000000; fill-opacity:1.0000; stroke:none;fill-rule:evenodd;"
d="M 163.6989,160.8851
163.5989,160.8781
163.5094,160.8579
163.4283,160.8214
163.3590,160.7667
163.3214,160.7210
163.2885,160.6634
163.2608,160.5919
163.2355,160.4736
163.2260,160.3139
163.2348,160.1488
163.2582,160.0276
163.2844,159.9539
163.3157,159.8950
163.3518,159.8484
163.3957,159.8092
163.4459,159.7784
163.5034,159.7557
163.5972,159.7356
163.7081,159.7284
163.8086,159.7314
163.9038,159.7401
163.9987,159.7554
164.1008,159.7795
164.1008,159.9590
163.8049,159.9590
163.7134,159.9669
163.6491,159.9876
163.6146,160.0111
163.5863,160.0453
163.5639,160.0924
163.5451,160.1770
163.5375,160.3115
163.5452,160.4446
163.5640,160.5267
163.5864,160.5716
163.6148,160.6036
163.6496,160.6249
163.7141,160.6430
163.8079,160.6500
164.1161,160.6500
164.1161,160.8264
163.9952,160.8563
163.8488,160.8776
Z" /> 
<path style="fill:#000000; fill-opacity:1.0000; stroke:none;fill-rule:evenodd;"
d="M 164.7180,160.8725
164.6316,160.8677
164.5622,160.8546
164.5069,160.8348
164.4581,160.8042
164.4196,160.7628
164.3903,160.7090
164.3720,160.6491
164.3605,160.5713
164.3577,160.4716
164.3681,159.9940
164.1921,159.9940
164.1921,159.7946
164.3793,159.7451
164.4206,159.4291
164.6661,159.4291
164.6661,159.7451
164.9322,159.7451
164.9322,159.9940
164.6661,159.9940
164.6661,160.4700
164.6748,160.5450
164.6857,160.5723
164.6995,160.5921
164.7360,160.6180
164.7790,160.6282
164.9210,160.6423
164.9210,160.8725
Z" /> 
<path style="fill:#000000; fill-opacity:1.0000; stroke:none;fill-rule:evenodd;"
d="M 165.5148,160.8851
165.4007,160.8817
165.2786,160.8725
165.1659,160.8567
165.0787,160.8341
165.0787,160.6516
165.5778,160.6516
165.6500,160.6441
165.6755,160.6331
165.6924,160.6167
165.7024,160.5941
165.7062,160.5604
165.7062,160.5241
165.6991,160.4862
165.6788,160.4589
165.6446,160.4425
165.5784,160.4354
165.4017,160.4354
165.3081,160.4279
165.2273,160.4065
165.1789,160.3827
165.1382,160.3509
165.1045,160.3104
165.0805,160.2634
165.0649,160.2041
165.0592,160.1291
165.0592,160.0637
165.0643,159.9931
165.0784,159.9336
165.1006,159.8833
165.1332,159.8400
165.1791,159.8031
165.2412,159.7725
165.3087,159.7529
165.3974,159.7396
165.5122,159.7347
165.6610,159.7419
165.8098,159.7607
165.9210,159.7861
165.9210,159.9687
165.4492,159.9687
165.3923,159.9744
165.3562,159.9889
165.3333,160.0158
165.3246,160.0637
165.3246,160.0985
165.3287,160.1316
165.3395,160.1532
165.3577,160.1685
165.3856,160.1787
165.4617,160.1854
165.6429,160.1854
165.7304,160.1913
165.7990,160.2075
165.8523,160.2321
165.8935,160.2643
165.9357,160.3214
165.9622,160.3928
165.9717,160.4827
165.9717,160.5835
165.9651,160.6574
165.9469,160.7162
165.9185,160.7631
165.8791,160.8018
165.8283,160.8332
165.7637,160.8572
165.6562,160.8775
Z" /> 
<path style="fill:#000000; fill-opacity:1.0000; stroke:none;fill-rule:evenodd;"
d="M 166.0361,161.0237
166.6262,159.2555
166.9424,159.2555
166.3523,161.0237
Z" /> 
<path style="fill:#000000; fill-opacity:1.0000; stroke:none;fill-rule:evenodd;"
d="M 167.0079,160.8725
167.0079,159.7451
167.2489,159.7451
167.3194,159.9173
167.3843,159.8453
167.4568,159.7848
167.5105,159.7544
167.5708,159.7359
167.6395,159.7294
167.6853,159.7318
167.7314,159.7405
167.7314,160.0596
167.6645,160.0528
167.5996,160.0501
167.5401,160.0536
167.4891,160.0636
167.4415,160.0803
167.3982,160.1032
167.3583,160.1326
167.3194,160.1705
167.3194,160.8725
Z" /> 
<path style="fill:#000000; fill-opacity:1.0000; stroke:none;fill-rule:evenodd;"
d="M 168.3356,160.8851
168.2356,160.8781
168.1461,160.8579
168.0650,160.8214
167.9957,160.7667
167.9581,160.7210
167.9252,160.6634
167.8975,160.5919
167.8722,160.4736
167.8627,160.3139
167.8716,160.1488
167.8949,160.0276
167.9211,159.9539
167.9524,159.8950
167.9885,159.8484
168.0324,159.8092
168.0826,159.7784
168.1401,159.7557
168.2339,159.7356
168.3448,159.7284
168.4453,159.7314
168.5405,159.7401
168.6355,159.7554
168.7375,159.7795
168.7375,159.9590
168.4416,159.9590
168.3501,159.9669
168.2858,159.9876
168.2513,160.0111
168.2230,160.0453
168.2006,160.0924
168.1818,160.1770
168.1742,160.3115
168.1819,160.4446
168.2007,160.5267
168.2231,160.5716
168.2515,160.6036
168.2863,160.6249
168.3508,160.6430
168.4446,160.6500
168.7528,160.6500
168.7528,160.8264
168.6319,160.8563
168.4855,160.8776
Z" /> 
<path style="fill:#000000; fill-opacity:1.0000; stroke:none;fill-rule:evenodd;"
d="M 168.9247,160.8725
169.1857,160.8725
169.2363,160.7651
169.3259,160.8244
169.3752,160.8488
169.4316,160.8685
169.4924,160.8808
169.5643,160.8851
169.6506,160.8776
169.7221,160.8566
169.7817,160.8231
169.8319,160.7766
169.8741,160.7151
169.9080,160.6354
169.9297,160.5505
169.9439,160.4465
169.9491,160.3202
169.9485,160.3048
169.6377,160.3048
169.6306,160.4241
169.6129,160.5025
169.5820,160.5657
169.5457,160.6027
169.5006,160.6242
169.4476,160.6316
169.3815,160.6270
169.3274,160.6143
169.2363,160.5764
169.2363,160.0412
169.3315,159.9979
169.3871,159.9834
169.4476,159.9784
169.4964,159.9838
169.5413,159.9999
169.5786,160.0308
169.6112,160.0903
169.6298,160.1690
169.6377,160.3048
169.9485,160.3048
169.9439,160.1785
169.9300,160.0663
169.9093,159.9787
169.8757,159.8965
169.8331,159.8343
169.7817,159.7883
169.7204,159.7561
169.6441,159.7354
169.5490,159.7279
169.4721,159.7350
169.3876,159.7576
169.3055,159.7896
169.2363,159.8233
169.2363,159.2702
168.9247,159.2702
Z" /> 
<path style="fill:#000000; fill-opacity:1.0000; stroke:none;fill-rule:evenodd;"
d="M 170.4727,160.8851
170.3974,160.8790
170.3341,160.8615
170.2805,160.8338
170.2351,160.7957
170.1893,160.7310
170.1603,160.6486
170.1498,160.5432
170.1498,159.7451
170.4612,159.7451
170.4612,160.4495
170.4672,160.5112
170.4827,160.5517
170.5054,160.5773
170.5550,160.6012
170.6250,160.6101
170.6831,160.6047
170.7453,160.5878
170.8047,160.5615
170.8557,160.5287
170.8557,159.7451
171.1671,159.7451
171.1671,160.8725
170.9104,160.8725
170.8557,160.7576
170.7754,160.8037
170.6807,160.8462
170.5800,160.8753
Z" /> 
<path style="fill:#000000; fill-opacity:1.0000; stroke:none;fill-rule:evenodd;"
d="M 171.8119,160.8851
171.6978,160.8817
171.5757,160.8725
171.4630,160.8567
171.3758,160.8341
171.3758,160.6516
171.8749,160.6516
171.9471,160.6441
171.9726,160.6331
171.9895,160.6167
171.9995,160.5941
172.0033,160.5604
172.0033,160.5241
171.9962,160.4862
171.9758,160.4589
171.9417,160.4425
171.8754,160.4354
171.6988,160.4354
171.6051,160.4279
171.5244,160.4065
171.4759,160.3827
171.4353,160.3509
171.4016,160.3104
171.3776,160.2634
171.3620,160.2041
171.3563,160.1291
171.3563,160.0637
171.3613,159.9931
171.3754,159.9336
171.3977,159.8833
171.4303,159.8400
171.4762,159.8031
171.5383,159.7725
171.6057,159.7529
171.6945,159.7396
171.8093,159.7347
171.9581,159.7419
172.1069,159.7607
172.2181,159.7861
172.2181,159.9687
171.7463,159.9687
171.6894,159.9744
171.6532,159.9889
171.6304,160.0158
171.6216,160.0637
171.6216,160.0985
171.6258,160.1316
171.6366,160.1532
171.6548,160.1685
171.6826,160.1787
171.7588,160.1854
171.9399,160.1854
172.0275,160.1913
172.0960,160.2075
172.1494,160.2321
172.1905,160.2643
172.2328,160.3214
172.2592,160.3928
172.2687,160.4827
172.2687,160.5835
172.2622,160.6574
172.2440,160.7162
172.2155,160.7631
172.1762,160.8018
172.1254,160.8332
172.0607,160.8572
171.9532,160.8775
Z" /> 
<path style="fill:#000000; fill-opacity:1.0000; stroke:none;fill-rule:evenodd;"
d="M 172.3880,160.3885
172.3880,160.1385
173.0304,160.1385
173.0304,160.3885
Z" /> 
<path style="fill:#000000; fill-opacity:1.0000; stroke:none;fill-rule:evenodd;"
d="M 173.5467,159.7349
173.4428,159.7538
173.3795,159.7760
173.3263,159.8061
173.2817,159.8441
173.2454,159.8902
173.2149,159.9484
173.1907,160.0210
173.1698,160.1409
173.1618,160.3062
173.1695,160.4633
173.1899,160.5811
173.2135,160.6528
173.2438,160.7115
173.2802,160.7589
173.3248,160.7986
173.3781,160.8305
173.4412,160.8546
173.5455,160.8758
173.6794,160.8836
173.8163,160.8761
173.9210,160.8562
173.9844,160.8330
174.0374,160.8021
174.0815,160.7635
174.1174,160.7170
174.1473,160.6587
174.1706,160.5865
174.1907,160.4674
174.1983,160.3062
174.1982,160.3046
173.8869,160.3046
173.8834,160.4100
173.8746,160.4820
173.8580,160.5434
173.8375,160.5815
173.8091,160.6087
173.7737,160.6245
173.7326,160.6319
173.6794,160.6346
173.6265,160.6319
173.5855,160.6245
173.5504,160.6087
173.5220,160.5815
173.5016,160.5434
173.4852,160.4820
173.4766,160.4099
173.4733,160.3046
173.4766,160.1990
173.4852,160.1278
173.5016,160.0673
173.5220,160.0297
173.5504,160.0027
173.5855,159.9870
173.6265,159.9796
173.6794,159.9768
173.7326,159.9796
173.7737,159.9870
173.8091,160.0027
173.8375,160.0297
173.8580,160.0673
173.8746,160.1278
173.8834,160.1990
173.8869,160.3046
174.1982,160.3046
174.1902,160.1437
174.1691,160.0241
174.1447,159.9514
174.1144,159.8933
174.0785,159.8472
174.0344,159.8091
173.9814,159.7785
173.9179,159.7554
173.8135,159.7353
173.6794,159.7279
Z" /> 
<path style="fill:#000000; fill-opacity:1.0000; stroke:none;fill-rule:evenodd;"
d="M 174.9644,159.7324
174.9066,159.7457
174.8518,159.7662
174.8022,159.7918
174.7141,159.8525
174.6636,159.7451
174.4026,159.7451
174.4026,161.3702
174.7141,161.3702
174.7141,160.8142
174.7847,160.8451
174.8645,160.8688
174.9470,160.8834
175.0269,160.8882
175.1270,160.8796
175.2055,160.8559
175.2671,160.8193
175.3180,160.7683
175.3592,160.7031
175.3904,160.6208
175.4171,160.4843
175.4270,160.3097
175.1156,160.3097
175.1079,160.4312
175.0888,160.5084
175.0562,160.5696
175.0187,160.6048
174.9735,160.6249
174.9255,160.6316
174.8690,160.6278
174.8123,160.6164
174.7585,160.5983
174.7141,160.5764
174.7141,160.0412
174.8067,159.9988
174.8633,159.9836
174.9271,159.9784
174.9792,159.9859
175.0242,160.0082
175.0602,160.0460
175.0909,160.1108
175.1086,160.1906
175.1156,160.3097
175.4270,160.3097
175.4209,160.1782
175.4040,160.0668
175.3736,159.9646
175.3322,159.8833
175.2762,159.8163
175.2072,159.7678
175.1262,159.7384
175.0269,159.7279
Z" /> 
<path style="fill:#000000; fill-opacity:1.0000; stroke:none;fill-rule:evenodd;"
d="M 175.9845,160.8771
175.9057,160.8723
175.8405,160.8589
175.7867,160.8382
175.7387,160.8076
175.6998,160.7679
175.6693,160.7181
175.6489,160.6625
175.6355,160.5935
175.6307,160.5083
175.6307,159.2702
175.9422,159.2702
175.9422,160.4624
175.9459,160.5225
175.9553,160.5628
175.9722,160.5955
175.9945,160.6167
176.0228,160.6306
176.0591,160.6399
176.1458,160.6516
176.1458,160.8771
Z" /> 
<path style="fill:#000000; fill-opacity:1.0000; stroke:none;fill-rule:evenodd;"
d="M 176.8424,160.8851
176.6769,160.8822
176.5229,160.8735
176.3744,160.8589
176.2476,160.8403
176.2476,160.5917
176.7246,160.5917
176.8062,160.5882
176.8652,160.5790
176.9150,160.5607
176.9469,160.5348
176.9661,160.4986
176.9733,160.4453
176.9733,160.3806
176.9660,160.3289
176.9459,160.2917
176.9145,160.2636
176.8727,160.2435
176.8251,160.2318
176.7692,160.2262
176.3865,160.2100
176.3865,159.9718
176.7555,159.9515
176.8449,159.9387
176.9031,159.9165
176.9313,159.8929
176.9485,159.8603
176.9548,159.8156
176.9548,159.7629
176.9481,159.7108
176.9295,159.6711
176.8992,159.6407
176.8598,159.6205
176.8004,159.6063
176.7139,159.6008
176.2811,159.6008
176.2811,159.3522
176.5422,159.3182
176.6851,159.3074
176.8387,159.3058
176.9286,159.3120
177.0049,159.3275
177.0696,159.3513
177.1285,159.3856
177.1761,159.4283
177.2137,159.4800
177.2404,159.5386
177.2572,159.6076
177.2632,159.6891
177.2632,159.8049
177.2594,159.8634
177.2486,159.9127
177.2308,159.9576
177.2075,159.9954
177.1785,160.0280
177.1452,160.0544
177.1083,160.0753
177.0682,160.0909
177.1108,160.1068
177.1514,160.1314
177.1879,160.1630
177.2204,160.2016
177.2470,160.2459
177.2682,160.2993
177.2813,160.3573
177.2859,160.4236
177.2859,160.5037
177.2778,160.5953
177.2550,160.6713
177.2187,160.7346
177.1685,160.7874
177.1078,160.8282
177.0349,160.8587
176.9474,160.8782
Z" /> 
<path style="fill:#000000; fill-opacity:1.0000; stroke:none;fill-rule:evenodd;"
d="M 177.4153,161.0237
178.0055,159.2555
178.3217,159.2555
177.7316,161.0237
Z" /> 
</g> 
</svg>
