<?xml version="1.0" standalone="no"?>
 <!DOCTYPE svg PUBLIC "-//W3C//DTD SVG 1.1//EN" 
 "http://www.w3.org/Graphics/SVG/1.1/DTD/svg11.dtd"> 
<svg
  xmlns:svg="http://www.w3.org/2000/svg"
  xmlns="http://www.w3.org/2000/svg"
  xmlns:xlink="http://www.w3.org/1999/xlink"
  version="1.1"
  width="297.0022mm" height="210.0072mm" viewBox="0.0000 0.0000 297.0022 210.0072">
<title>SVG Image created as rcbus-opl3-B_Cu0.svg date 2025/10/01 20:53:20 </title>
  <desc>Image generated by PCBNEW </desc>
<g style="fill:#000000; fill-opacity:1.0000;stroke:#000000; stroke-opacity:1.0000;
stroke-linecap:round; stroke-linejoin:round;"
 transform="translate(0 0) scale(1 1)">
<path style="fill:#000000; fill-opacity:1.0000; stroke:none;fill-rule:evenodd;"
d="M 146.6832,129.1950
146.6832,130.9950
149.1832,130.9950
149.1832,129.1950
Z" /> 
<path style="fill:#000000; fill-opacity:1.0000; stroke:none;fill-rule:evenodd;"
d="M 146.6832,126.6950
146.6832,128.4950
149.1832,128.4950
149.1832,126.6950
Z" /> 
<path style="fill:#000000; fill-opacity:1.0000; stroke:none;fill-rule:evenodd;"
d="M 142.0332,123.8450
142.0332,126.3450
143.8332,126.3450
143.8332,123.8450
Z" /> 
<path style="fill:#000000; fill-opacity:1.0000; stroke:none;fill-rule:evenodd;"
d="M 146.6832,119.1950
146.6832,120.9950
149.1832,120.9950
149.1832,119.1950
Z" /> 
<path style="fill:#000000; fill-opacity:1.0000; stroke:none;fill-rule:evenodd;"
d="M 146.6832,121.6950
146.6832,123.4950
149.1832,123.4950
149.1832,121.6950
Z" /> 
<path style="fill:#000000; fill-opacity:1.0000; stroke:none;fill-rule:evenodd;"
d="M 231.1522,155.3100
231.1522,157.0100
232.8522,157.0100
232.8522,155.3100
Z" /> 
</g>
<g style="fill:#000000; fill-opacity:1.0000; stroke:none;">
<circle cx="234.5422" cy="156.1600" r="0.8500" /> 
</g>
<g style="fill:#000000; fill-opacity:1.0000; stroke:none;">
<circle cx="232.0022" cy="153.6200" r="0.8500" /> 
</g>
<g style="fill:#000000; fill-opacity:1.0000; stroke:none;">
<circle cx="234.5422" cy="153.6200" r="0.8500" /> 
</g>
<g style="fill:#000000; fill-opacity:1.0000; stroke:none;">
<circle cx="232.0022" cy="151.0800" r="0.8500" /> 
</g>
<g style="fill:#000000; fill-opacity:1.0000; stroke:none;">
<circle cx="234.5422" cy="151.0800" r="0.8500" /> 
</g>
<g style="fill:#000000; fill-opacity:1.0000; stroke:none;">
<circle cx="232.0022" cy="148.5400" r="0.8500" /> 
</g>
<g style="fill:#000000; fill-opacity:1.0000; stroke:none;">
<circle cx="234.5422" cy="148.5400" r="0.8500" /> 
</g>
<g style="fill:#000000; fill-opacity:1.0000; stroke:none;">
<circle cx="232.0022" cy="146.0000" r="0.8500" /> 
</g>
<g style="fill:#000000; fill-opacity:1.0000; stroke:none;">
<circle cx="234.5422" cy="146.0000" r="0.8500" /> 
</g>
<g style="fill:#000000; fill-opacity:1.0000; stroke:none;">
<circle cx="232.0022" cy="143.4600" r="0.8500" /> 
</g>
<g style="fill:#000000; fill-opacity:1.0000; stroke:none;">
<circle cx="234.5422" cy="143.4600" r="0.8500" /> 
<path style="fill:#000000; fill-opacity:1.0000; stroke:none;fill-rule:evenodd;"
d="M 234.1522,163.8500
235.8522,163.8500
235.8522,162.1500
234.1522,162.1500
Z" /> 
</g>
<g style="fill:#000000; fill-opacity:1.0000; stroke:none;">
<circle cx="232.4622" cy="163.0000" r="0.8500" /> 
<circle cx="229.9222" cy="163.0000" r="0.8500" /> 
<circle cx="227.3822" cy="163.0000" r="0.8500" /> 
<circle cx="224.8422" cy="163.0000" r="0.8500" /> 
<circle cx="222.3022" cy="163.0000" r="0.8500" /> 
<circle cx="219.7622" cy="163.0000" r="0.8500" /> 
<circle cx="217.2222" cy="163.0000" r="0.8500" /> 
<circle cx="214.6822" cy="163.0000" r="0.8500" /> 
<circle cx="212.1422" cy="163.0000" r="0.8500" /> 
<circle cx="209.6022" cy="163.0000" r="0.8500" /> 
<circle cx="207.0622" cy="163.0000" r="0.8500" /> 
<circle cx="204.5222" cy="163.0000" r="0.8500" /> 
<circle cx="201.9822" cy="163.0000" r="0.8500" /> 
<circle cx="199.4422" cy="163.0000" r="0.8500" /> 
<circle cx="196.9022" cy="163.0000" r="0.8500" /> 
<circle cx="194.3622" cy="163.0000" r="0.8500" /> 
<circle cx="191.8222" cy="163.0000" r="0.8500" /> 
<circle cx="189.2822" cy="163.0000" r="0.8500" /> 
<circle cx="186.7422" cy="163.0000" r="0.8500" /> 
<circle cx="184.2022" cy="163.0000" r="0.8500" /> 
<circle cx="181.6622" cy="163.0000" r="0.8500" /> 
<circle cx="179.1222" cy="163.0000" r="0.8500" /> 
<circle cx="176.5822" cy="163.0000" r="0.8500" /> 
<circle cx="174.0422" cy="163.0000" r="0.8500" /> 
<circle cx="171.5022" cy="163.0000" r="0.8500" /> 
<circle cx="168.9622" cy="163.0000" r="0.8500" /> 
<circle cx="166.4222" cy="163.0000" r="0.8500" /> 
<circle cx="163.8822" cy="163.0000" r="0.8500" /> 
<circle cx="161.3422" cy="163.0000" r="0.8500" /> 
<circle cx="158.8022" cy="163.0000" r="0.8500" /> 
<circle cx="156.2622" cy="163.0000" r="0.8500" /> 
<circle cx="153.7222" cy="163.0000" r="0.8500" /> 
<circle cx="151.1822" cy="163.0000" r="0.8500" /> 
<circle cx="148.6422" cy="163.0000" r="0.8500" /> 
<circle cx="146.1022" cy="163.0000" r="0.8500" /> 
<circle cx="143.5622" cy="163.0000" r="0.8500" /> 
<circle cx="141.0222" cy="163.0000" r="0.8500" /> 
<circle cx="138.4822" cy="163.0000" r="0.8500" /> 
<circle cx="204.7896" cy="154.2500" r="0.3429" /> 
</g>
<g style="fill:#000000; fill-opacity:1.0000; stroke:none;">
<circle cx="196.2797" cy="154.0755" r="0.3429" /> 
</g>
<g style="fill:#000000; fill-opacity:1.0000; stroke:none;">
<circle cx="221.0022" cy="153.5100" r="0.3429" /> 
</g>
<g style="fill:#000000; fill-opacity:1.0000; stroke:none;">
<circle cx="221.0022" cy="143.5000" r="0.3429" /> 
</g>
<g style="fill:#000000; fill-opacity:1.0000; stroke:none;">
<circle cx="152.5022" cy="157.2500" r="0.3429" /> 
</g>
<g style="fill:#000000; fill-opacity:1.0000; stroke:none;">
<circle cx="175.7260" cy="131.1103" r="0.3429" /> 
</g>
<g style="fill:#000000; fill-opacity:1.0000; stroke:none;">
<circle cx="187.5022" cy="141.0000" r="0.3429" /> 
</g>
<g style="fill:#000000; fill-opacity:1.0000; stroke:none;">
<circle cx="210.0022" cy="139.7500" r="0.3429" /> 
</g>
<g style="fill:#000000; fill-opacity:1.0000; stroke:none;">
<circle cx="158.0022" cy="125.2500" r="0.3429" /> 
</g>
<g style="fill:#000000; fill-opacity:1.0000; stroke:none;">
<circle cx="199.2522" cy="157.7500" r="0.3429" /> 
</g>
<g style="fill:#000000; fill-opacity:1.0000; stroke:none;">
<circle cx="155.0022" cy="157.2500" r="0.3429" /> 
</g>
<g style="fill:#000000; fill-opacity:1.0000; stroke:none;">
<circle cx="215.0022" cy="134.7500" r="0.3429" /> 
</g>
<g style="fill:#000000; fill-opacity:1.0000; stroke:none;">
<circle cx="200.7522" cy="134.2500" r="0.3429" /> 
</g>
<g style="fill:#000000; fill-opacity:1.0000; stroke:none;">
<circle cx="236.0022" cy="155.0000" r="0.3429" /> 
</g>
<g style="fill:#000000; fill-opacity:1.0000; stroke:none;">
<circle cx="179.2022" cy="116.2581" r="0.3429" /> 
</g>
<g style="fill:#000000; fill-opacity:1.0000; stroke:none;">
<circle cx="168.5172" cy="158.5000" r="0.3429" /> 
</g>
<g style="fill:#000000; fill-opacity:1.0000; stroke:none;">
<circle cx="221.0022" cy="156.0000" r="0.3429" /> 
</g>
<g style="fill:#000000; fill-opacity:1.0000; stroke:none;">
<circle cx="195.2522" cy="148.0000" r="0.3429" /> 
</g>
<g style="fill:#000000; fill-opacity:1.0000; stroke:none;">
<circle cx="221.0022" cy="148.4900" r="0.3429" /> 
</g>
<g style="fill:#000000; fill-opacity:1.0000; stroke:none;">
<circle cx="181.0022" cy="160.7500" r="0.3429" /> 
</g>
<g style="fill:#000000; fill-opacity:1.0000; stroke:none;">
<circle cx="181.1772" cy="139.7500" r="0.3429" /> 
</g>
<g style="fill:#000000; fill-opacity:1.0000; stroke:none;">
<circle cx="177.8647" cy="122.6552" r="0.3429" /> 
</g>
<g style="fill:#000000; fill-opacity:1.0000; stroke:none;">
<circle cx="187.5022" cy="156.7500" r="0.3429" /> 
</g>
<g style="fill:#000000; fill-opacity:1.0000; stroke:none;">
<circle cx="213.5775" cy="145.7315" r="0.3429" /> 
</g>
<g style="fill:#000000; fill-opacity:1.0000; stroke:none;">
<circle cx="219.0022" cy="145.0000" r="0.3429" /> 
</g>
<g style="fill:#000000; fill-opacity:1.0000; stroke:none;">
<circle cx="177.7522" cy="131.2561" r="0.3429" /> 
</g>
<g style="fill:#000000; fill-opacity:1.0000; stroke:none;">
<circle cx="236.0022" cy="150.0000" r="0.3429" /> 
</g>
<g style="fill:#000000; fill-opacity:1.0000; stroke:none;">
<circle cx="176.5022" cy="116.2581" r="0.3429" /> 
</g>
<g style="fill:#000000; fill-opacity:1.0000; stroke:none;">
<circle cx="158.2522" cy="135.2500" r="0.3429" /> 
</g>
<g style="fill:#000000; fill-opacity:1.0000; stroke:none;">
<circle cx="181.5022" cy="130.2427" r="0.3429" /> 
</g>
<g style="fill:#000000; fill-opacity:1.0000; stroke:none;">
<circle cx="236.0022" cy="160.0000" r="0.3429" /> 
</g>
<g style="fill:#000000; fill-opacity:1.0000; stroke:none;">
<circle cx="236.0022" cy="145.0000" r="0.3429" /> 
</g>
<g style="fill:#000000; fill-opacity:1.0000; stroke:none;">
<circle cx="164.2522" cy="151.5000" r="0.3429" /> 
</g>
<g style="fill:#000000; fill-opacity:1.0000; stroke:none;">
<circle cx="204.6922" cy="158.0000" r="0.3429" /> 
</g>
<g style="fill:#000000; fill-opacity:1.0000; stroke:none;">
<circle cx="207.0022" cy="140.2500" r="0.3429" /> 
</g>
<g style="fill:#000000; fill-opacity:1.0000; stroke:none;">
<circle cx="221.0022" cy="146.0600" r="0.3429" /> 
</g>
<g style="fill:#000000; fill-opacity:1.0000; stroke:none;">
<circle cx="221.0022" cy="151.0000" r="0.3429" /> 
</g>
<g style="fill:#000000; fill-opacity:1.0000; stroke:none;">
<circle cx="173.2022" cy="158.5000" r="0.3429" /> 
</g>
<g style="fill:#000000; fill-opacity:1.0000; stroke:none;">
<circle cx="212.2315" cy="154.6889" r="0.3429" /> 
</g>
<g style="fill:#000000; fill-opacity:1.0000; stroke:none;">
<circle cx="180.0022" cy="144.2000" r="0.3429" /> 
</g>
<g style="fill:#000000; fill-opacity:1.0000; stroke:none;">
<circle cx="177.4022" cy="142.6000" r="0.3429" /> 
</g>
<g style="fill:#000000; fill-opacity:1.0000; stroke:none;">
<circle cx="207.1458" cy="150.5221" r="0.3429" /> 
</g>
<g style="fill:#000000; fill-opacity:1.0000; stroke:none;">
<circle cx="215.6340" cy="153.1182" r="0.3429" /> 
</g>
<g style="fill:#000000; fill-opacity:1.0000; stroke:none;">
<circle cx="211.0683" cy="152.7269" r="0.3429" /> 
</g>
<g style="fill:#000000; fill-opacity:1.0000; stroke:none;">
<circle cx="211.0811" cy="154.9367" r="0.3429" /> 
</g>
<g style="fill:#000000; fill-opacity:1.0000; stroke:none;">
<circle cx="223.7772" cy="144.5464" r="0.3429" /> 
</g>
<g style="fill:#000000; fill-opacity:1.0000; stroke:none;">
<circle cx="213.5822" cy="158.2500" r="0.3429" /> 
</g>
<g style="fill:#000000; fill-opacity:1.0000; stroke:none;">
<circle cx="218.1970" cy="153.4718" r="0.3429" /> 
</g>
<g style="fill:#000000; fill-opacity:1.0000; stroke:none;">
<circle cx="206.5022" cy="149.8176" r="0.3429" /> 
</g>
<g style="fill:#000000; fill-opacity:1.0000; stroke:none;">
<circle cx="216.1279" cy="151.4544" r="0.3429" /> 
</g>
<g style="fill:#000000; fill-opacity:1.0000; stroke:none;">
<circle cx="217.8254" cy="151.8808" r="0.3429" /> 
</g>
<g style="fill:none; 
stroke:#000000; stroke-width:0.7620; stroke-opacity:1; 
stroke-linecap:round; stroke-linejoin:round;">
<path d="M196.4062 154.2500
L196.2797 154.1235
" />
<path d="M196.2797 158.5425
L196.2797 154.0755
" />
<path d="M191.8222 163.0000
L196.2797 158.5425
" />
<path d="M204.7896 154.2500
L196.4062 154.2500
" />
<path d="M196.2797 154.1235
L196.2797 154.0755
" />
</g>
<g style="fill:none; 
stroke:#000000; stroke-width:0.3810; stroke-opacity:1; 
stroke-linecap:round; stroke-linejoin:round;">
<path d="M210.7549 155.7241
L211.4072 155.7241
" />
<path d="M173.2022 158.5000
L178.4522 153.2500
" />
<path d="M211.4072 155.7241
L212.2315 154.8999
" />
<path d="M212.2315 154.8999
L212.2315 154.6889
" />
<path d="M208.2808 153.2500
L210.7549 155.7241
" />
<path d="M178.4522 153.2500
L208.2808 153.2500
" />
<path d="M179.0022 144.2000
L177.4022 142.6000
" />
<path d="M180.0022 144.2000
L179.0022 144.2000
" />
<path d="M213.0379 150.5221
L207.1458 150.5221
" />
<path d="M215.6340 153.1182
L213.0379 150.5221
" />
<path d="M211.0811 152.7396
L211.0811 154.9367
" />
<path d="M211.0683 152.7269
L211.0811 152.7396
" />
<path d="M223.7772 154.8386
L220.3658 158.2500
" />
<path d="M223.7772 144.5464
L223.7772 154.8386
" />
<path d="M220.3658 158.2500
L213.5822 158.2500
" />
<path d="M217.0560 152.3308
L218.1970 153.4718
" />
<path d="M206.5022 149.8176
L206.5851 149.7347
" />
<path d="M215.7446 152.3308
L217.0560 152.3308
" />
<path d="M206.5851 149.7347
L213.1485 149.7347
" />
<path d="M213.1485 149.7347
L215.7446 152.3308
" />
<path d="M217.8254 151.8808
L217.3990 151.4544
" />
<path d="M217.3990 151.4544
L216.1279 151.4544
" />
<path style="fill:#000000; fill-opacity:1.0000; stroke:none;fill-rule:evenodd;"
d="M 141.9996,114.5756
141.5594,114.5938
141.5491,114.5947
141.1145,114.6488
141.1043,114.6506
140.6757,114.7404
140.6656,114.7430
140.2458,114.8679
140.2360,114.8713
140.0786,114.9327
139.8281,115.0305
139.8185,115.0347
139.4251,115.2270
139.4159,115.2320
139.0398,115.4561
139.0310,115.4618
138.6746,115.7163
138.6664,115.7227
138.3322,116.0057
138.3246,116.0128
138.0150,116.3224
138.0079,116.3300
137.7249,116.6642
137.7185,116.6724
137.4640,117.0288
137.4583,117.0376
137.2342,117.4137
137.2292,117.4229
137.0369,117.8163
137.0327,117.8259
136.8735,118.2338
136.8701,118.2437
136.7452,118.6634
136.7426,118.6735
136.6528,119.1021
136.6510,119.1123
136.5969,119.5469
136.5960,119.5573
136.5778,119.9974
136.5777,120.0026
136.5777,121.3375
136.5977,121.4056
136.6514,121.4521
136.7037,121.4635
137.4657,121.4635
137.4902,121.4635
137.5861,121.4635
137.7755,121.4935
137.7755,121.4935
137.7755,121.4935
137.9579,121.5528
138.1288,121.6398
138.2840,121.7526
138.2840,121.7526
138.4196,121.8882
138.4196,121.8882
138.5324,122.0434
138.6194,122.2143
138.6528,122.3169
138.6787,122.3967
138.7087,122.5861
138.7087,122.6670
138.7087,127.4835
138.7087,127.5080
138.7087,127.6039
138.6787,127.7933
138.6194,127.9757
138.5324,128.1466
138.4196,128.3018
138.4196,128.3018
138.4196,128.3018
138.2840,128.4374
138.2840,128.4374
138.2840,128.4374
138.1288,128.5502
137.9579,128.6372
137.7755,128.6965
137.5861,128.7265
137.5052,128.7265
136.7037,128.7265
136.6356,128.7465
136.5891,128.8002
136.5777,128.8525
136.5777,164.2985
136.5977,164.3666
136.6514,164.4131
136.7037,164.4245
137.7784,164.4245
137.8465,164.4045
137.8930,164.3508
137.9031,164.2806
137.8736,164.2160
137.8356,164.1862
137.7744,164.1551
137.6024,164.0301
137.4521,163.8798
137.3271,163.7078
137.2306,163.5184
137.1650,163.3162
137.1317,163.1063
137.1317,162.8937
137.1650,162.6838
137.2306,162.4816
137.3271,162.2922
137.4521,162.1202
137.4521,162.1202
137.4521,162.1202
137.6024,161.9699
137.6024,161.9699
137.6024,161.9699
137.7744,161.8449
137.9638,161.7484
138.1660,161.6828
138.3759,161.6495
138.5885,161.6495
138.7984,161.6828
138.7984,161.6828
138.7984,161.6828
139.0006,161.7484
139.0006,161.7484
139.1900,161.8450
139.3620,161.9699
139.3620,161.9699
139.5123,162.1202
139.5123,162.1202
139.6373,162.2922
139.6399,162.2975
139.6887,162.3491
139.7576,162.3661
139.8248,162.3432
139.8645,162.2975
139.8671,162.2922
139.8672,162.2922
139.9921,162.1202
139.9921,162.1202
139.9921,162.1202
140.1424,161.9699
140.1424,161.9699
140.1424,161.9699
140.3144,161.8449
140.5038,161.7484
140.7060,161.6828
140.9159,161.6495
141.1285,161.6495
141.3384,161.6828
141.3384,161.6828
141.3384,161.6828
141.5406,161.7484
141.5406,161.7484
141.7300,161.8450
141.9020,161.9699
141.9020,161.9699
142.0523,162.1202
142.0523,162.1202
142.1773,162.2922
142.1799,162.2975
142.2287,162.3491
142.2976,162.3661
142.3648,162.3432
142.4045,162.2975
142.4072,162.2922
142.4072,162.2922
142.5321,162.1202
142.5321,162.1202
142.5321,162.1202
142.6824,161.9699
142.6824,161.9699
142.6824,161.9699
142.8544,161.8449
143.0438,161.7484
143.2460,161.6828
143.4559,161.6495
143.6685,161.6495
143.8784,161.6828
143.8784,161.6828
143.8784,161.6828
144.0806,161.7484
144.0806,161.7484
144.2700,161.8450
144.4420,161.9699
144.4420,161.9699
144.5923,162.1202
144.5923,162.1202
144.7173,162.2922
144.7199,162.2975
144.7687,162.3491
144.8376,162.3661
144.9048,162.3432
144.9445,162.2975
144.9471,162.2922
144.9472,162.2922
145.0721,162.1202
145.0721,162.1202
145.0721,162.1202
145.2224,161.9699
145.2224,161.9699
145.2224,161.9699
145.3944,161.8449
145.5838,161.7484
145.7860,161.6828
145.9959,161.6495
146.2085,161.6495
146.4184,161.6828
146.4184,161.6828
146.4184,161.6828
146.6206,161.7484
146.6206,161.7484
146.8100,161.8450
146.9820,161.9699
146.9820,161.9699
147.1323,162.1202
147.1323,162.1202
147.2573,162.2922
147.2599,162.2975
147.3087,162.3491
147.3776,162.3661
147.4448,162.3432
147.4845,162.2975
147.4871,162.2922
147.4872,162.2922
147.6121,162.1202
147.6121,162.1202
147.6121,162.1202
147.7624,161.9699
147.7624,161.9699
147.7624,161.9699
147.9344,161.8449
148.1238,161.7484
148.3260,161.6828
148.5359,161.6495
148.7485,161.6495
148.9584,161.6828
148.9584,161.6828
148.9584,161.6828
149.1606,161.7484
149.1606,161.7484
149.3500,161.8450
149.5220,161.9699
149.5220,161.9699
149.6723,162.1202
149.6723,162.1202
149.7973,162.2922
149.7999,162.2975
149.8487,162.3491
149.9176,162.3661
149.9848,162.3432
150.0245,162.2975
150.0272,162.2922
150.0272,162.2922
150.1521,162.1202
150.1521,162.1202
150.1521,162.1202
150.3024,161.9699
150.3024,161.9699
150.3024,161.9699
150.4744,161.8449
150.6638,161.7484
150.8660,161.6828
151.0759,161.6495
151.2885,161.6495
151.4984,161.6828
151.4984,161.6828
151.4984,161.6828
151.7006,161.7484
151.7006,161.7484
151.8900,161.8450
152.0620,161.9699
152.0620,161.9699
152.2123,162.1202
152.2123,162.1202
152.3373,162.2922
152.3399,162.2975
152.3887,162.3491
152.4576,162.3661
152.5248,162.3432
152.5645,162.2975
152.5671,162.2922
152.5672,162.2922
152.6921,162.1202
152.6921,162.1202
152.6921,162.1202
152.8424,161.9699
152.8424,161.9699
152.8424,161.9699
153.0144,161.8449
153.2038,161.7484
153.4060,161.6828
153.6159,161.6495
153.8285,161.6495
154.0384,161.6828
154.0384,161.6828
154.0384,161.6828
154.2406,161.7484
154.2406,161.7484
154.4300,161.8450
154.6020,161.9699
154.6020,161.9699
154.7523,162.1202
154.7523,162.1202
154.8773,162.2922
154.8799,162.2975
154.9287,162.3491
154.9976,162.3661
155.0648,162.3432
155.1045,162.2975
155.1071,162.2922
155.1072,162.2922
155.2321,162.1202
155.2321,162.1202
155.2321,162.1202
155.3824,161.9699
155.3824,161.9699
155.3824,161.9699
155.5544,161.8449
155.7438,161.7484
155.9460,161.6828
156.1559,161.6495
156.3685,161.6495
156.5784,161.6828
156.5784,161.6828
156.5784,161.6828
156.7806,161.7484
156.7806,161.7484
156.9700,161.8450
157.1420,161.9699
157.1420,161.9699
157.2923,162.1202
157.2923,162.1202
157.4173,162.2922
157.4199,162.2975
157.4687,162.3491
157.5376,162.3661
157.6048,162.3432
157.6445,162.2975
157.6471,162.2922
157.6472,162.2922
157.7721,162.1202
157.7721,162.1202
157.7721,162.1202
157.9224,161.9699
157.9224,161.9699
157.9224,161.9699
158.0944,161.8449
158.2838,161.7484
158.4860,161.6828
158.6959,161.6495
158.9085,161.6495
159.1184,161.6828
159.1184,161.6828
159.1184,161.6828
159.3206,161.7484
159.3206,161.7484
159.5100,161.8450
159.6820,161.9699
159.6820,161.9699
159.8323,162.1202
159.8323,162.1202
159.9573,162.2922
159.9599,162.2975
160.0087,162.3491
160.0776,162.3661
160.1448,162.3432
160.1845,162.2975
160.1872,162.2922
160.1872,162.2922
160.3121,162.1202
160.3121,162.1202
160.3121,162.1202
160.4624,161.9699
160.4624,161.9699
160.4624,161.9699
160.6344,161.8449
160.8238,161.7484
161.0260,161.6828
161.2359,161.6495
161.4485,161.6495
161.6584,161.6828
161.6584,161.6828
161.6584,161.6828
161.8606,161.7484
161.8606,161.7484
162.0500,161.8450
162.2220,161.9699
162.2220,161.9699
162.3723,162.1202
162.3723,162.1202
162.4973,162.2922
162.4999,162.2975
162.5487,162.3491
162.6176,162.3661
162.6848,162.3432
162.7245,162.2975
162.7271,162.2922
162.7272,162.2922
162.8521,162.1202
162.8521,162.1202
162.8521,162.1202
163.0024,161.9699
163.0024,161.9699
163.0024,161.9699
163.1744,161.8449
163.3638,161.7484
163.5660,161.6828
163.7759,161.6495
163.9885,161.6495
164.1984,161.6828
164.1984,161.6828
164.1984,161.6828
164.4006,161.7484
164.4006,161.7484
164.5900,161.8450
164.7620,161.9699
164.7620,161.9699
164.9123,162.1202
164.9123,162.1202
165.0373,162.2922
165.0399,162.2975
165.0887,162.3491
165.1576,162.3661
165.2248,162.3432
165.2645,162.2975
165.2671,162.2922
165.2672,162.2922
165.3921,162.1202
165.3921,162.1202
165.3921,162.1202
165.5424,161.9699
165.5424,161.9699
165.5424,161.9699
165.7144,161.8449
165.9038,161.7484
166.1060,161.6828
166.3159,161.6495
166.5285,161.6495
166.7384,161.6828
166.7384,161.6828
166.7384,161.6828
166.9406,161.7484
166.9406,161.7484
167.1300,161.8450
167.3020,161.9699
167.3020,161.9699
167.4523,162.1202
167.4523,162.1202
167.5773,162.2922
167.5799,162.2975
167.6287,162.3491
167.6976,162.3661
167.7648,162.3432
167.8045,162.2975
167.8071,162.2922
167.8072,162.2922
167.9321,162.1202
167.9321,162.1202
167.9321,162.1202
168.0824,161.9699
168.0824,161.9699
168.0824,161.9699
168.2544,161.8449
168.4438,161.7484
168.6460,161.6828
168.8559,161.6495
169.0685,161.6495
169.2784,161.6828
169.2784,161.6828
169.2784,161.6828
169.4806,161.7484
169.4806,161.7484
169.6700,161.8450
169.8420,161.9699
169.8420,161.9699
169.9923,162.1202
169.9923,162.1202
170.1173,162.2922
170.1199,162.2975
170.1687,162.3491
170.2376,162.3661
170.3048,162.3432
170.3445,162.2975
170.3471,162.2922
170.3472,162.2922
170.4721,162.1202
170.4721,162.1202
170.4721,162.1202
170.6224,161.9699
170.6224,161.9699
170.6224,161.9699
170.7944,161.8449
170.9838,161.7484
171.1860,161.6828
171.3959,161.6495
171.6085,161.6495
171.8184,161.6828
171.8184,161.6828
171.8184,161.6828
172.0206,161.7484
172.0206,161.7484
172.2100,161.8450
172.3820,161.9699
172.3820,161.9699
172.5323,162.1202
172.5323,162.1202
172.6573,162.2922
172.6599,162.2975
172.7087,162.3491
172.7776,162.3661
172.8448,162.3432
172.8845,162.2975
172.8871,162.2922
172.8872,162.2922
173.0121,162.1202
173.0121,162.1202
173.0121,162.1202
173.1624,161.9699
173.1624,161.9699
173.1624,161.9699
173.3344,161.8449
173.5238,161.7484
173.7260,161.6828
173.9359,161.6495
174.1485,161.6495
174.3584,161.6828
174.3584,161.6828
174.3584,161.6828
174.5606,161.7484
174.5606,161.7484
174.7500,161.8450
174.9220,161.9699
174.9220,161.9699
175.0723,162.1202
175.0723,162.1202
175.1973,162.2922
175.1999,162.2975
175.2487,162.3491
175.3176,162.3661
175.3848,162.3432
175.4245,162.2975
175.4271,162.2922
175.4272,162.2922
175.5521,162.1202
175.5521,162.1202
175.5521,162.1202
175.7024,161.9699
175.7024,161.9699
175.7024,161.9699
175.8744,161.8449
176.0638,161.7484
176.2660,161.6828
176.4759,161.6495
176.6885,161.6495
176.8984,161.6828
176.8984,161.6828
176.8984,161.6828
177.1006,161.7484
177.1006,161.7484
177.2900,161.8450
177.4620,161.9699
177.4620,161.9699
177.6123,162.1202
177.6123,162.1202
177.7373,162.2922
177.7399,162.2975
177.7887,162.3491
177.8576,162.3661
177.9248,162.3432
177.9645,162.2975
177.9672,162.2922
177.9672,162.2922
178.0921,162.1202
178.0921,162.1202
178.0921,162.1202
178.2424,161.9699
178.2424,161.9699
178.2424,161.9699
178.4144,161.8449
178.6038,161.7484
178.8060,161.6828
179.0159,161.6495
179.2285,161.6495
179.4384,161.6828
179.4384,161.6828
179.4384,161.6828
179.6406,161.7484
179.6406,161.7484
179.8300,161.8450
180.0020,161.9699
180.0020,161.9699
180.1523,162.1202
180.1523,162.1202
180.2773,162.2922
180.2799,162.2975
180.3287,162.3491
180.3976,162.3661
180.4648,162.3432
180.5045,162.2975
180.5071,162.2922
180.5072,162.2922
180.6321,162.1202
180.6321,162.1202
180.6321,162.1202
180.7824,161.9699
180.7824,161.9699
180.7824,161.9699
180.9544,161.8449
181.1438,161.7484
181.3460,161.6828
181.5559,161.6495
181.7685,161.6495
181.9784,161.6828
181.9784,161.6828
181.9784,161.6828
182.1806,161.7484
182.1806,161.7484
182.3700,161.8450
182.5420,161.9699
182.5420,161.9699
182.6923,162.1202
182.6923,162.1202
182.8173,162.2922
182.8199,162.2975
182.8687,162.3491
182.9376,162.3661
183.0048,162.3432
183.0445,162.2975
183.0471,162.2922
183.0472,162.2922
183.1721,162.1202
183.1721,162.1202
183.1721,162.1202
183.3224,161.9699
183.3224,161.9699
183.3224,161.9699
183.4944,161.8449
183.6838,161.7484
183.8860,161.6828
184.0959,161.6495
184.3085,161.6495
184.5184,161.6828
184.5184,161.6828
184.5184,161.6828
184.7206,161.7484
184.7206,161.7484
184.9100,161.8450
185.0820,161.9699
185.0820,161.9699
185.2323,162.1202
185.2323,162.1202
185.3573,162.2922
185.3599,162.2975
185.4087,162.3491
185.4776,162.3661
185.5448,162.3432
185.5845,162.2975
185.5871,162.2922
185.5872,162.2922
185.7121,162.1202
185.7121,162.1202
185.7121,162.1202
185.8624,161.9699
185.8624,161.9699
185.8624,161.9699
186.0344,161.8449
186.2238,161.7484
186.4260,161.6828
186.6359,161.6495
186.8485,161.6495
187.0584,161.6828
187.0584,161.6828
187.0584,161.6828
187.2606,161.7484
187.2606,161.7484
187.4500,161.8450
187.6220,161.9699
187.6220,161.9699
187.7723,162.1202
187.7723,162.1202
187.8973,162.2922
187.8999,162.2975
187.9487,162.3491
188.0176,162.3661
188.0848,162.3432
188.1245,162.2975
188.1272,162.2922
188.1272,162.2922
188.2521,162.1202
188.2521,162.1202
188.2521,162.1202
188.4024,161.9699
188.4024,161.9699
188.4024,161.9699
188.5744,161.8449
188.7638,161.7484
188.9660,161.6828
189.1759,161.6495
189.3885,161.6495
189.5984,161.6828
189.5984,161.6828
189.5984,161.6828
189.8006,161.7484
189.8006,161.7484
189.9900,161.8450
190.1620,161.9699
190.1620,161.9699
190.3123,162.1202
190.3123,162.1202
190.4373,162.2922
190.4399,162.2975
190.4887,162.3491
190.5576,162.3661
190.6248,162.3432
190.6645,162.2975
190.6671,162.2922
190.6672,162.2922
190.7921,162.1202
190.7921,162.1202
190.7921,162.1202
190.9424,161.9699
190.9424,161.9699
190.9424,161.9699
191.1144,161.8449
191.3038,161.7484
191.5060,161.6828
191.7159,161.6495
191.7159,161.6495
191.8739,161.6495
191.9420,161.6295
191.9630,161.6126
195.3613,158.2143
195.3953,158.1520
195.3982,158.1252
195.3982,154.0670
195.3782,153.9989
195.3245,153.9524
195.2722,153.9410
178.7906,153.9410
178.7225,153.9610
178.7015,153.9779
174.0600,158.6194
174.0260,158.6817
174.0255,158.6839
174.0132,158.7460
173.9496,158.8995
173.8879,158.9918
173.8573,159.0376
173.8573,159.0376
173.7398,159.1551
173.7398,159.1551
173.6017,159.2474
173.4482,159.3110
173.2853,159.3434
173.2853,159.3434
173.1191,159.3434
173.1191,159.3434
172.9562,159.3110
172.8027,159.2474
172.6646,159.1551
172.5471,159.0376
172.4548,158.8995
172.3912,158.7460
172.3588,158.5831
172.3588,158.4169
172.3912,158.2540
172.4548,158.1005
172.5471,157.9624
172.5471,157.9624
172.6646,157.8449
172.6646,157.8449
172.7104,157.8143
172.8027,157.7526
172.9562,157.6890
173.0183,157.6767
173.0812,157.6437
173.0828,157.6422
178.0117,152.7133
178.0117,152.7133
178.0117,152.7133
178.1249,152.6376
178.2506,152.5856
178.2506,152.5856
178.3841,152.5590
178.3841,152.5590
208.3489,152.5590
208.3489,152.5590
208.4824,152.5856
208.4824,152.5856
208.6081,152.6376
208.7213,152.7133
208.7213,152.7133
210.1750,154.1669
210.2373,154.2010
210.3081,154.1959
210.3649,154.1533
210.3898,154.0868
210.3901,154.0778
210.3901,153.2681
210.3701,153.2000
210.3689,153.1982
210.3209,153.1264
210.2573,152.9729
210.2249,152.8100
210.2249,152.6438
210.2573,152.4809
210.3209,152.3274
210.4132,152.1893
210.4132,152.1893
210.5307,152.0718
210.5307,152.0718
210.5765,152.0412
210.6688,151.9795
210.8223,151.9159
210.9853,151.8835
210.9853,151.8835
211.1514,151.8835
211.1514,151.8835
211.3143,151.9159
211.3144,151.9159
211.4678,151.9795
211.6060,152.0718
211.6060,152.0718
211.7234,152.1893
211.7234,152.1893
211.8157,152.3274
211.8793,152.4809
211.8793,152.4809
211.9117,152.6438
211.9117,152.8100
211.8914,152.9122
211.8793,152.9729
211.8157,153.1264
211.7944,153.1583
211.7933,153.1600
211.7721,153.2277
211.7721,153.2300
211.7721,153.7777
211.7921,153.8458
211.8457,153.8923
211.9160,153.9024
211.9463,153.8941
211.9855,153.8779
211.9855,153.8779
212.1484,153.8455
212.1484,153.8455
212.3145,153.8455
212.3145,153.8455
212.4775,153.8779
212.4775,153.8779
212.6310,153.9415
212.7691,154.0338
212.7691,154.0338
212.8866,154.1513
212.8866,154.1513
212.9789,154.2894
213.0425,154.4429
213.0425,154.4429
213.0749,154.6058
213.0749,154.7720
213.0657,154.8183
213.0425,154.9349
212.9789,155.0884
212.9172,155.1807
212.8866,155.2265
212.8866,155.2265
212.7691,155.3440
212.7691,155.3440
212.7657,155.3463
212.7466,155.3620
211.8477,156.2608
211.7345,156.3365
211.6088,156.3885
211.4753,156.4151
210.6869,156.4151
210.5534,156.3885
210.4276,156.3365
210.3144,156.2608
208.0315,153.9779
207.9692,153.9439
207.9424,153.9410
205.7804,153.9410
205.7123,153.9610
205.6658,154.0147
205.6557,154.0849
205.6569,154.0916
205.6711,154.1632
205.6711,154.3368
205.6387,154.4998
205.6372,154.5071
205.5708,154.6675
205.4743,154.8119
205.3515,154.9347
205.2071,155.0312
205.0467,155.0976
204.8764,155.1315
197.2872,155.1315
197.2191,155.1515
197.1726,155.2052
197.1612,155.2575
197.1612,158.6293
197.1380,158.7460
197.1273,158.7996
197.0609,158.9601
196.9718,159.0934
196.9644,159.1044
196.9644,159.1044
193.2096,162.8592
193.1756,162.9215
193.1727,162.9483
193.1727,163.1063
193.1394,163.3162
193.0738,163.5184
192.9773,163.7078
192.8523,163.8798
192.8523,163.8798
192.8523,163.8798
192.7020,164.0301
192.7020,164.0301
192.7020,164.0301
192.5300,164.1551
192.4688,164.1862
192.4172,164.2350
192.4001,164.3039
192.4230,164.3711
192.4786,164.4152
192.5260,164.4245
196.1984,164.4245
196.2665,164.4045
196.3130,164.3508
196.3231,164.2806
196.2936,164.2160
196.2556,164.1862
196.1944,164.1551
196.0224,164.0301
195.8721,163.8798
195.7471,163.7078
195.6506,163.5184
195.5850,163.3162
195.5517,163.1063
195.5517,162.8937
195.5850,162.6838
195.6506,162.4816
195.7471,162.2922
195.8721,162.1202
195.8721,162.1202
195.8721,162.1202
196.0224,161.9699
196.0224,161.9699
196.0224,161.9699
196.1944,161.8449
196.3838,161.7484
196.5860,161.6828
196.7959,161.6495
197.0085,161.6495
197.2184,161.6828
197.2184,161.6828
197.2184,161.6828
197.4206,161.7484
197.4206,161.7484
197.6100,161.8450
197.7820,161.9699
197.7820,161.9699
197.9323,162.1202
197.9323,162.1202
198.0573,162.2922
198.0599,162.2975
198.1087,162.3491
198.1776,162.3661
198.2448,162.3432
198.2845,162.2975
198.2871,162.2922
198.2872,162.2922
198.4121,162.1202
198.4121,162.1202
198.4121,162.1202
198.5624,161.9699
198.5624,161.9699
198.5624,161.9699
198.7344,161.8449
198.9238,161.7484
199.1260,161.6828
199.3359,161.6495
199.5485,161.6495
199.7584,161.6828
199.7584,161.6828
199.7584,161.6828
199.9606,161.7484
199.9606,161.7484
200.1500,161.8450
200.3220,161.9699
200.3220,161.9699
200.4723,162.1202
200.4723,162.1202
200.5973,162.2922
200.5999,162.2975
200.6487,162.3491
200.7176,162.3661
200.7848,162.3432
200.8245,162.2975
200.8271,162.2922
200.8272,162.2922
200.9521,162.1202
200.9521,162.1202
200.9521,162.1202
201.1024,161.9699
201.1024,161.9699
201.1024,161.9699
201.2744,161.8449
201.4638,161.7484
201.6660,161.6828
201.8759,161.6495
202.0885,161.6495
202.2984,161.6828
202.2984,161.6828
202.2984,161.6828
202.5006,161.7484
202.5006,161.7484
202.6900,161.8450
202.8620,161.9699
202.8620,161.9699
203.0123,162.1202
203.0123,162.1202
203.1373,162.2922
203.1399,162.2975
203.1887,162.3491
203.2576,162.3661
203.3248,162.3432
203.3645,162.2975
203.3671,162.2922
203.3672,162.2922
203.4921,162.1202
203.4921,162.1202
203.4921,162.1202
203.6424,161.9699
203.6424,161.9699
203.6424,161.9699
203.8144,161.8449
204.0038,161.7484
204.2060,161.6828
204.4159,161.6495
204.6285,161.6495
204.8384,161.6828
204.8384,161.6828
204.8384,161.6828
205.0406,161.7484
205.0406,161.7484
205.2300,161.8450
205.4020,161.9699
205.4020,161.9699
205.5523,162.1202
205.5523,162.1202
205.6773,162.2922
205.6799,162.2975
205.7287,162.3491
205.7976,162.3661
205.8648,162.3432
205.9045,162.2975
205.9072,162.2922
205.9072,162.2922
206.0321,162.1202
206.0321,162.1202
206.0321,162.1202
206.1824,161.9699
206.1824,161.9699
206.1824,161.9699
206.3544,161.8449
206.5438,161.7484
206.7460,161.6828
206.9559,161.6495
207.1685,161.6495
207.3784,161.6828
207.3784,161.6828
207.3784,161.6828
207.5806,161.7484
207.5806,161.7484
207.7700,161.8450
207.9420,161.9699
207.9420,161.9699
208.0923,162.1202
208.0923,162.1202
208.2173,162.2922
208.2199,162.2975
208.2687,162.3491
208.3376,162.3661
208.4048,162.3432
208.4445,162.2975
208.4471,162.2922
208.4472,162.2922
208.5721,162.1202
208.5721,162.1202
208.5721,162.1202
208.7224,161.9699
208.7224,161.9699
208.7224,161.9699
208.8944,161.8449
209.0838,161.7484
209.2860,161.6828
209.4959,161.6495
209.7085,161.6495
209.9184,161.6828
209.9184,161.6828
209.9184,161.6828
210.1206,161.7484
210.1206,161.7484
210.3100,161.8450
210.4820,161.9699
210.4820,161.9699
210.6323,162.1202
210.6323,162.1202
210.7573,162.2922
210.7599,162.2975
210.8087,162.3491
210.8776,162.3661
210.9448,162.3432
210.9845,162.2975
210.9871,162.2922
210.9872,162.2922
211.1121,162.1202
211.1121,162.1202
211.1121,162.1202
211.2624,161.9699
211.2624,161.9699
211.2624,161.9699
211.4344,161.8449
211.6238,161.7484
211.8260,161.6828
212.0359,161.6495
212.2485,161.6495
212.4584,161.6828
212.4584,161.6828
212.4584,161.6828
212.6606,161.7484
212.6606,161.7484
212.8500,161.8450
213.0220,161.9699
213.0220,161.9699
213.1723,162.1202
213.1723,162.1202
213.2973,162.2922
213.2999,162.2975
213.3487,162.3491
213.4176,162.3661
213.4848,162.3432
213.5245,162.2975
213.5271,162.2922
213.5272,162.2922
213.6521,162.1202
213.6521,162.1202
213.6521,162.1202
213.8024,161.9699
213.8024,161.9699
213.8024,161.9699
213.9744,161.8449
214.1638,161.7484
214.3660,161.6828
214.5759,161.6495
214.7885,161.6495
214.9984,161.6828
214.9984,161.6828
214.9984,161.6828
215.2006,161.7484
215.2006,161.7484
215.3900,161.8450
215.5620,161.9699
215.5620,161.9699
215.7123,162.1202
215.7123,162.1202
215.8373,162.2922
215.8399,162.2975
215.8887,162.3491
215.9576,162.3661
216.0248,162.3432
216.0645,162.2975
216.0671,162.2922
216.0672,162.2922
216.1921,162.1202
216.1921,162.1202
216.1921,162.1202
216.3424,161.9699
216.3424,161.9699
216.3424,161.9699
216.5144,161.8449
216.7038,161.7484
216.9060,161.6828
217.1159,161.6495
217.3285,161.6495
217.5384,161.6828
217.5384,161.6828
217.5384,161.6828
217.7406,161.7484
217.7406,161.7484
217.9300,161.8450
218.1020,161.9699
218.1020,161.9699
218.2523,162.1202
218.2523,162.1202
218.3773,162.2922
218.3799,162.2975
218.4287,162.3491
218.4976,162.3661
218.5648,162.3432
218.6045,162.2975
218.6071,162.2922
218.6072,162.2922
218.7321,162.1202
218.7321,162.1202
218.7321,162.1202
218.8824,161.9699
218.8824,161.9699
218.8824,161.9699
219.0544,161.8449
219.2438,161.7484
219.4460,161.6828
219.6559,161.6495
219.8685,161.6495
220.0784,161.6828
220.0784,161.6828
220.0784,161.6828
220.2806,161.7484
220.2806,161.7484
220.4700,161.8450
220.6420,161.9699
220.6420,161.9699
220.7923,162.1202
220.7923,162.1202
220.9173,162.2922
220.9199,162.2975
220.9687,162.3491
221.0376,162.3661
221.1048,162.3432
221.1445,162.2975
221.1471,162.2922
221.1472,162.2922
221.2721,162.1202
221.2721,162.1202
221.2721,162.1202
221.4224,161.9699
221.4224,161.9699
221.4224,161.9699
221.5944,161.8449
221.7838,161.7484
221.9860,161.6828
222.1959,161.6495
222.4085,161.6495
222.6184,161.6828
222.6184,161.6828
222.6184,161.6828
222.8206,161.7484
222.8206,161.7484
223.0100,161.8450
223.1820,161.9699
223.1820,161.9699
223.3323,162.1202
223.3323,162.1202
223.4573,162.2922
223.4599,162.2975
223.5087,162.3491
223.5776,162.3661
223.6448,162.3432
223.6845,162.2975
223.6872,162.2922
223.6872,162.2922
223.8121,162.1202
223.8121,162.1202
223.8121,162.1202
223.9624,161.9699
223.9624,161.9699
223.9624,161.9699
224.1344,161.8449
224.3238,161.7484
224.5260,161.6828
224.7359,161.6495
224.9485,161.6495
225.1584,161.6828
225.1584,161.6828
225.1584,161.6828
225.3606,161.7484
225.3606,161.7484
225.5500,161.8450
225.7220,161.9699
225.7220,161.9699
225.8723,162.1202
225.8723,162.1202
225.9973,162.2922
225.9999,162.2975
226.0487,162.3491
226.1176,162.3661
226.1848,162.3432
226.2245,162.2975
226.2271,162.2922
226.2272,162.2922
226.3521,162.1202
226.3521,162.1202
226.3521,162.1202
226.5024,161.9699
226.5024,161.9699
226.5024,161.9699
226.6744,161.8449
226.8638,161.7484
227.0660,161.6828
227.2759,161.6495
227.4885,161.6495
227.6984,161.6828
227.6984,161.6828
227.6984,161.6828
227.9006,161.7484
227.9006,161.7484
228.0900,161.8450
228.2620,161.9699
228.2620,161.9699
228.4123,162.1202
228.4123,162.1202
228.5373,162.2922
228.5399,162.2975
228.5887,162.3491
228.6576,162.3661
228.7248,162.3432
228.7645,162.2975
228.7671,162.2922
228.7672,162.2922
228.8921,162.1202
228.8921,162.1202
228.8921,162.1202
229.0424,161.9699
229.0424,161.9699
229.0424,161.9699
229.2144,161.8449
229.4038,161.7484
229.6060,161.6828
229.8159,161.6495
230.0285,161.6495
230.2384,161.6828
230.2384,161.6828
230.2384,161.6828
230.4406,161.7484
230.4406,161.7484
230.6300,161.8450
230.8020,161.9699
230.8020,161.9699
230.9523,162.1202
230.9523,162.1202
231.0773,162.2922
231.0799,162.2975
231.1287,162.3491
231.1976,162.3661
231.2648,162.3432
231.3045,162.2975
231.3071,162.2922
231.3072,162.2922
231.4321,162.1202
231.4321,162.1202
231.4321,162.1202
231.5824,161.9699
231.5824,161.9699
231.5824,161.9699
231.7544,161.8449
231.9438,161.7484
232.1460,161.6828
232.3559,161.6495
232.5685,161.6495
232.7784,161.6828
232.7784,161.6828
232.7784,161.6828
232.9806,161.7484
232.9806,161.7484
233.1700,161.8450
233.3420,161.9699
233.4533,162.0812
233.5156,162.1153
233.5865,162.1102
233.6433,162.0676
233.6605,162.0362
233.7084,161.9077
233.7084,161.9077
233.7084,161.9077
233.7716,161.8233
233.7947,161.7925
233.8992,161.7142
233.9099,161.7062
233.9099,161.7062
233.9099,161.7062
234.0447,161.6559
234.0447,161.6559
234.1043,161.6495
235.9001,161.6495
235.9001,161.6495
235.9597,161.6559
235.9597,161.6559
236.0945,161.7062
236.0945,161.7062
236.2097,161.7925
236.2116,161.7943
236.2139,161.7956
236.2170,161.7979
236.2173,161.7974
236.2739,161.8283
236.3447,161.8233
236.4016,161.7807
236.4264,161.7142
236.4267,161.7052
236.4267,143.3537
235.8927,143.3537
235.8927,143.5663
235.8594,143.7762
235.7938,143.9784
235.6973,144.1678
235.5723,144.3398
235.5723,144.3398
235.5723,144.3398
235.4220,144.4901
235.4220,144.4901
235.4220,144.4901
235.2500,144.6151
235.2469,144.6166
235.2447,144.6177
235.1931,144.6665
235.1761,144.7354
235.1990,144.8026
235.2447,144.8423
235.2500,144.8449
235.4220,144.9699
235.4220,144.9699
235.5723,145.1202
235.5723,145.1202
235.6972,145.2922
235.6973,145.2922
235.7938,145.4816
235.8594,145.6838
235.8927,145.8937
235.8927,146.1063
235.8594,146.3162
235.7938,146.5184
235.6973,146.7078
235.5723,146.8798
235.5723,146.8798
235.5723,146.8798
235.4220,147.0301
235.4220,147.0301
235.4220,147.0301
235.2500,147.1551
235.2469,147.1566
235.2447,147.1577
235.1931,147.2065
235.1761,147.2754
235.1990,147.3426
235.2447,147.3823
235.2500,147.3849
235.4220,147.5099
235.4220,147.5099
235.5723,147.6602
235.5723,147.6602
235.6972,147.8322
235.6973,147.8322
235.7938,148.0216
235.8594,148.2238
235.8927,148.4337
235.8927,148.6463
235.8594,148.8562
235.7938,149.0584
235.6973,149.2478
235.5723,149.4198
235.5723,149.4198
235.5723,149.4198
235.4220,149.5701
235.4220,149.5701
235.4220,149.5701
235.2500,149.6951
235.2469,149.6966
235.2447,149.6977
235.1931,149.7465
235.1761,149.8154
235.1990,149.8826
235.2447,149.9223
235.2500,149.9249
235.4220,150.0499
235.4220,150.0499
235.5723,150.2002
235.5723,150.2002
235.6972,150.3722
235.7938,150.5616
235.7938,150.5616
235.8524,150.7422
235.8594,150.7638
235.8927,150.9737
235.8927,151.1863
235.8594,151.3962
235.7938,151.5984
235.6973,151.7878
235.6972,151.7878
235.6900,151.7978
235.5723,151.9598
235.5723,151.9598
235.5723,151.9598
235.4220,152.1101
235.4220,152.1101
235.4220,152.1101
235.2500,152.2351
235.2469,152.2366
235.2447,152.2377
235.1931,152.2865
235.1761,152.3554
235.1990,152.4226
235.2447,152.4623
235.2500,152.4649
235.4220,152.5899
235.4220,152.5899
235.5723,152.7402
235.5723,152.7402
235.6972,152.9122
235.7938,153.1016
235.7938,153.1016
235.8354,153.2299
235.8594,153.3038
235.8927,153.5137
235.8927,153.7263
235.8594,153.9362
235.7938,154.1384
235.6973,154.3278
235.5723,154.4998
235.5723,154.4998
235.5723,154.4998
235.4220,154.6501
235.4220,154.6501
235.4220,154.6501
235.2500,154.7751
235.2487,154.7757
235.2447,154.7777
235.1931,154.8265
235.1761,154.8954
235.1990,154.9626
235.2447,155.0023
235.2500,155.0049
235.4220,155.1299
235.4220,155.1299
235.5723,155.2802
235.5723,155.2802
235.6972,155.4522
235.6973,155.4522
235.7938,155.6416
235.8594,155.8438
235.8927,156.0537
235.8927,156.2663
235.8594,156.4762
235.7938,156.6784
235.6973,156.8678
235.5723,157.0398
235.5723,157.0398
235.5723,157.0398
235.4220,157.1901
235.4220,157.1901
235.4220,157.1901
235.2500,157.3151
235.0606,157.4116
234.8584,157.4772
234.6485,157.5105
234.6485,157.5105
234.4359,157.5105
234.4359,157.5105
234.2260,157.4772
234.0238,157.4116
233.8344,157.3151
233.6624,157.1901
233.5511,157.0788
233.4888,157.0447
233.4179,157.0498
233.3611,157.0924
233.3439,157.1238
233.2960,157.2523
233.2960,157.2523
233.2097,157.3675
233.1576,157.4066
233.0945,157.4538
233.0945,157.4538
233.0945,157.4538
233.0342,157.4763
232.9597,157.5041
232.9597,157.5041
232.9001,157.5105
231.1043,157.5105
231.0447,157.5041
230.9099,157.4538
230.7947,157.3675
230.7084,157.2523
230.6581,157.1175
230.6517,157.0579
230.6517,155.2621
230.6581,155.2025
230.6852,155.1299
230.7084,155.0677
230.7084,155.0677
230.7084,155.0677
230.7610,154.9974
230.7947,154.9525
230.8853,154.8846
230.9099,154.8662
230.9099,154.8662
230.9099,154.8662
231.0384,154.8183
231.0952,154.7757
231.1200,154.7092
231.1049,154.6398
231.0834,154.6111
230.9721,154.4998
230.8471,154.3278
230.7506,154.1384
230.6850,153.9362
230.6517,153.7263
230.6517,153.5137
230.6850,153.3038
230.7506,153.1016
230.8471,152.9122
230.9721,152.7402
230.9721,152.7402
230.9721,152.7402
231.1224,152.5899
231.1224,152.5899
231.1224,152.5899
231.2724,152.4809
231.2944,152.4650
231.2944,152.4649
231.2944,152.4649
231.2996,152.4623
231.3513,152.4135
231.3683,152.3446
231.3454,152.2774
231.2996,152.2377
231.2944,152.2351
231.1224,152.1101
230.9721,151.9598
230.8471,151.7878
230.7506,151.5984
230.6850,151.3962
230.6517,151.1863
230.6517,150.9737
230.6850,150.7638
230.7506,150.5616
230.8471,150.3722
230.9721,150.2002
230.9721,150.2002
230.9721,150.2002
231.1224,150.0499
231.1224,150.0499
231.1224,150.0499
231.2944,149.9249
231.2996,149.9223
231.3513,149.8735
231.3683,149.8046
231.3454,149.7374
231.2996,149.6977
231.2944,149.6951
231.1224,149.5701
230.9721,149.4198
230.8471,149.2478
230.7506,149.0584
230.6850,148.8562
230.6517,148.6463
230.6517,148.4337
230.6850,148.2238
230.7506,148.0216
230.8471,147.8322
230.9721,147.6602
230.9721,147.6602
230.9721,147.6602
231.1224,147.5099
231.1224,147.5099
231.1224,147.5099
231.2944,147.3849
231.2996,147.3823
231.3513,147.3335
231.3683,147.2646
231.3454,147.1974
231.2996,147.1577
231.2944,147.1551
231.1224,147.0301
230.9721,146.8798
230.8471,146.7078
230.7506,146.5184
230.6850,146.3162
230.6517,146.1063
230.6517,145.8937
230.6850,145.6838
230.7506,145.4816
230.8471,145.2922
230.9721,145.1202
230.9721,145.1202
230.9721,145.1202
231.1224,144.9699
231.1224,144.9699
231.1224,144.9699
231.2804,144.8551
231.2944,144.8450
231.2944,144.8449
231.2944,144.8449
231.2996,144.8423
231.3513,144.7935
231.3683,144.7246
231.3454,144.6574
231.2996,144.6177
231.2944,144.6151
231.1224,144.4901
231.0956,144.4633
224.6206,144.4633
224.6206,144.6295
224.5882,144.7924
224.5882,144.7924
224.5246,144.9459
224.5246,144.9459
224.5246,144.9459
224.4894,144.9985
224.4682,145.0663
224.4682,145.0685
224.4682,154.9066
224.4501,154.9974
224.4416,155.0401
224.3896,155.1659
224.3651,155.2025
224.3139,155.2790
224.3139,155.2790
221.6306,157.9624
220.8062,158.7867
220.7267,158.8398
220.6931,158.8624
220.5673,158.9144
220.4338,158.9410
220.4338,158.9410
220.2977,158.9410
214.1043,158.9410
214.0362,158.9610
214.0343,158.9622
213.9817,158.9974
213.8282,159.0610
213.6653,159.0934
213.6653,159.0934
213.4991,159.0934
213.4991,159.0934
213.3362,159.0610
213.1827,158.9974
213.0446,158.9051
212.9271,158.7876
212.8348,158.6495
212.7712,158.4960
212.7388,158.3331
212.7388,158.1669
212.7712,158.0040
212.8348,157.8505
212.9271,157.7124
212.9271,157.7124
213.0446,157.5949
213.0446,157.5949
213.1282,157.5390
213.1827,157.5026
213.3362,157.4390
213.4991,157.4066
213.4991,157.4066
213.6653,157.4066
213.6653,157.4066
213.8282,157.4390
213.8282,157.4390
213.9817,157.5026
214.0343,157.5378
214.1021,157.5590
214.1043,157.5590
220.0273,157.5590
220.0955,157.5390
220.1164,157.5221
223.0493,154.5892
223.0833,154.5269
223.0862,154.5001
223.0862,153.3887
219.0404,153.3887
219.0404,153.5548
219.0278,153.6182
219.0080,153.7178
218.9444,153.8713
218.8958,153.9439
218.8521,154.0094
218.8521,154.0094
218.7346,154.1269
218.7346,154.1269
218.5965,154.2192
218.4430,154.2827
218.2800,154.3152
218.2800,154.3152
218.1139,154.3152
218.1139,154.3152
217.9510,154.2827
217.7975,154.2192
217.6593,154.1269
217.5418,154.0094
217.4495,153.8713
217.3860,153.7178
217.3736,153.6557
217.3407,153.5928
217.3392,153.5912
216.8067,153.0587
216.7793,153.0438
216.7531,153.0269
216.7468,153.0260
216.7444,153.0247
216.7176,153.0218
216.6034,153.0218
216.5353,153.0418
216.4888,153.0955
216.4774,153.1478
216.4774,153.2013
216.4570,153.3038
216.4450,153.3642
216.3814,153.5177
216.3566,153.5548
216.2891,153.6559
216.2891,153.6559
216.1716,153.7733
216.1716,153.7733
216.0335,153.8656
215.8800,153.9292
215.7170,153.9616
215.7170,153.9616
215.5509,153.9616
215.5509,153.9616
215.3880,153.9292
215.2345,153.8656
215.0963,153.7733
214.9789,153.6559
214.8866,153.5177
214.8230,153.3642
214.8106,153.3021
214.7777,153.2392
214.7762,153.2377
212.7885,151.2500
212.7262,151.2160
212.6994,151.2131
207.6679,151.2131
207.5998,151.2331
207.5979,151.2343
207.5453,151.2695
207.3918,151.3331
207.2288,151.3655
207.2288,151.3655
207.0627,151.3655
207.0627,151.3655
206.8998,151.3331
206.7463,151.2695
206.6081,151.1772
206.4907,151.0597
206.3984,150.9216
206.3348,150.7681
206.3247,150.7176
206.2918,150.6547
206.2494,150.6258
206.1027,150.5650
205.9646,150.4727
205.8471,150.3552
205.7548,150.2171
205.6912,150.0636
205.6588,149.9007
205.6588,149.7345
205.6912,149.5716
205.7548,149.4181
205.8471,149.2800
205.8471,149.2800
205.9646,149.1625
205.9646,149.1625
206.0104,149.1319
206.1027,149.0702
206.2562,149.0066
206.2811,149.0016
206.4191,148.9742
206.4191,148.9742
206.5853,148.9742
206.5853,148.9742
206.7482,149.0066
206.7482,149.0066
206.8146,149.0341
206.8628,149.0437
213.2165,149.0437
213.2905,149.0584
213.3500,149.0703
213.3500,149.0703
213.4758,149.1223
213.5890,149.1980
213.5890,149.1980
215.3012,150.9102
215.3635,150.9442
215.4343,150.9392
215.4794,150.9102
215.5903,150.7993
215.5903,150.7993
215.6440,150.7634
215.7284,150.7070
215.8819,150.6434
215.9037,150.6391
216.0449,150.6110
216.0449,150.6110
216.2110,150.6110
216.2110,150.6110
216.3740,150.6434
216.3740,150.6434
216.5274,150.7070
216.5801,150.7422
216.6478,150.7634
216.6501,150.7634
217.4671,150.7634
217.6006,150.7900
217.6006,150.7900
217.7263,150.8421
217.8382,150.9168
217.8395,150.9177
217.8395,150.9177
217.9448,151.0230
218.0072,151.0570
218.0093,151.0575
218.0265,151.0609
218.0715,151.0699
218.0715,151.0699
218.2249,151.1334
218.3631,151.2257
218.3631,151.2257
218.4806,151.3432
218.4806,151.3432
218.5729,151.4813
218.6364,151.6348
218.6364,151.6348
218.6688,151.7978
218.6688,151.9639
218.6474,152.0718
218.6364,152.1269
218.5729,152.2803
218.4806,152.4185
218.4316,152.4675
218.3975,152.5298
218.4026,152.6006
218.4452,152.6574
218.4724,152.6730
218.5453,152.7032
218.5697,152.7133
218.5965,152.7243
218.7346,152.8166
218.7346,152.8166
218.8521,152.9341
218.8521,152.9341
218.9444,153.0723
219.0079,153.2257
219.0080,153.2257
219.0404,153.3887
223.0862,153.3887
223.0862,145.0685
223.0662,145.0004
223.0650,144.9986
223.0298,144.9459
222.9662,144.7924
222.9338,144.6295
222.9338,144.4633
222.9662,144.3004
223.0298,144.1469
223.0498,144.1169
180.8456,144.1169
180.8456,144.1169
180.8456,144.2831
180.8132,144.4460
180.7496,144.5995
180.7049,144.6665
180.6573,144.7376
180.6573,144.7376
180.5398,144.8551
180.5398,144.8551
180.4017,144.9474
180.2482,145.0110
180.0853,145.0434
180.0853,145.0434
179.9191,145.0434
179.9191,145.0434
179.7562,145.0110
179.6027,144.9474
179.5501,144.9122
179.4823,144.8910
179.4801,144.8910
178.9341,144.8910
178.8006,144.8644
178.6749,144.8124
178.6721,144.8105
178.5617,144.7367
177.2828,143.4578
177.2205,143.4238
177.2184,143.4234
177.1562,143.4110
177.0027,143.3474
176.8646,143.2551
176.7471,143.1376
176.6548,142.9995
176.5912,142.8460
176.5588,142.6831
176.5588,142.5169
176.5912,142.3540
176.6548,142.2005
176.7471,142.0624
176.7471,142.0624
176.8646,141.9449
176.8646,141.9449
176.9104,141.9143
177.0027,141.8526
177.1562,141.7890
177.3191,141.7566
177.3191,141.7566
177.4853,141.7566
177.4853,141.7566
177.6482,141.7890
177.6482,141.7890
177.8017,141.8526
177.9398,141.9449
177.9398,141.9449
178.0573,142.0624
178.0573,142.0624
178.1496,142.2005
178.2132,142.3540
178.2132,142.3540
178.2255,142.4161
178.2585,142.4790
178.2600,142.4806
179.2515,143.4721
179.2789,143.4870
179.3051,143.5039
179.3114,143.5048
179.3138,143.5061
179.3406,143.5090
179.4801,143.5090
179.5482,143.4890
179.5501,143.4878
179.6027,143.4526
179.7562,143.3890
179.7562,143.3890
179.9191,143.3566
179.9191,143.3566
180.0853,143.3566
180.0853,143.3566
180.2482,143.3890
180.2482,143.3890
180.4017,143.4526
180.5398,143.5449
180.5398,143.5449
180.6573,143.6624
180.6573,143.6624
180.7496,143.8005
180.8132,143.9540
180.8132,143.9540
180.8456,144.1169
223.0498,144.1169
223.1221,144.0088
223.1221,144.0088
223.2396,143.8913
223.2396,143.8913
223.2854,143.8607
223.3777,143.7990
223.5312,143.7354
223.6941,143.7030
223.6941,143.7030
223.8603,143.7030
223.8603,143.7030
224.0232,143.7354
224.0232,143.7354
224.1767,143.7990
224.3148,143.8913
224.3148,143.8913
224.4323,144.0088
224.4323,144.0088
224.5246,144.1469
224.5882,144.3004
224.5882,144.3004
224.6206,144.4633
231.0956,144.4633
231.0783,144.4460
231.0003,144.3680
230.9721,144.3398
230.9721,144.3398
230.8471,144.1678
230.7506,143.9784
230.6850,143.7762
230.6517,143.5663
230.6517,143.3537
230.6850,143.1438
230.7506,142.9416
230.8471,142.7522
230.9721,142.5802
230.9721,142.5802
230.9721,142.5802
231.1224,142.4299
231.1224,142.4299
231.1224,142.4299
231.2944,142.3049
231.4838,142.2084
231.6860,142.1428
231.8959,142.1095
232.1085,142.1095
232.3184,142.1428
232.3184,142.1428
232.3184,142.1428
232.5206,142.2084
232.5206,142.2084
232.7100,142.3050
232.8820,142.4299
232.8820,142.4299
233.0323,142.5802
233.0323,142.5802
233.1573,142.7522
233.1599,142.7575
233.2087,142.8091
233.2776,142.8261
233.3448,142.8032
233.3845,142.7575
233.3871,142.7522
233.4374,142.6831
233.5121,142.5802
233.5121,142.5802
233.5121,142.5802
233.6624,142.4299
233.6624,142.4299
233.6624,142.4299
233.8344,142.3049
234.0238,142.2084
234.2260,142.1428
234.4359,142.1095
234.6485,142.1095
234.8584,142.1428
234.8584,142.1428
234.8584,142.1428
235.0606,142.2084
235.0606,142.2084
235.2500,142.3050
235.4220,142.4299
235.4220,142.4299
235.5723,142.5802
235.5723,142.5802
235.6972,142.7522
235.6973,142.7522
235.7938,142.9416
235.8594,143.1438
235.8927,143.3537
236.4267,143.3537
236.4267,131.2607
233.3207,131.2607
233.3207,131.5033
233.2890,131.7438
233.2263,131.9781
233.2263,131.9781
233.2263,131.9781
233.1334,132.2022
233.1334,132.2022
233.1334,132.2022
233.0121,132.4123
233.0121,132.4123
233.0121,132.4123
232.8645,132.6047
232.8645,132.6047
232.8645,132.6047
232.6929,132.7763
232.6929,132.7763
232.6929,132.7763
232.5005,132.9239
232.5005,132.9239
232.2904,133.0452
232.2904,133.0452
232.2904,133.0452
232.0663,133.1381
231.8320,133.2008
231.8320,133.2008
231.8320,133.2008
231.7700,133.2090
231.5915,133.2325
231.5915,133.2325
231.3489,133.2325
231.3489,133.2325
231.1316,133.2039
231.1084,133.2008
231.1084,133.2008
231.1084,133.2008
230.8741,133.1381
230.6500,133.0452
230.4399,132.9239
230.2475,132.7763
230.0759,132.6047
229.9283,132.4123
229.8070,132.2022
229.7141,131.9781
229.6514,131.7438
229.6197,131.5033
229.6197,131.2607
229.6484,131.0429
229.6514,131.0202
229.6514,131.0202
229.6514,131.0202
229.7141,130.7859
229.8070,130.5618
229.8070,130.5618
229.8070,130.5618
229.9283,130.3517
229.9349,130.3431
230.0759,130.1593
230.0759,130.1593
230.0759,130.1593
230.2475,129.9877
230.2475,129.9877
230.2475,129.9877
230.4399,129.8401
230.4399,129.8401
230.4399,129.8401
230.6500,129.7188
230.6500,129.7188
230.6500,129.7188
230.8741,129.6259
230.8741,129.6259
230.8741,129.6259
231.1084,129.5632
231.3489,129.5315
231.3489,129.5315
231.5915,129.5315
231.5915,129.5315
231.8320,129.5632
232.0663,129.6259
232.0663,129.6259
232.2261,129.6921
232.2904,129.7188
232.2904,129.7188
232.5005,129.8401
232.6929,129.9877
232.6929,129.9877
232.8645,130.1593
232.8645,130.1593
233.0121,130.3517
233.1334,130.5618
233.1334,130.5618
233.2263,130.7859
233.2263,130.7859
233.2890,131.0202
233.3207,131.2607
236.4267,131.2607
236.4267,129.5835
236.4067,129.5153
236.3898,129.4944
233.5425,126.6471
149.6837,126.6471
149.6837,128.5429
149.6837,128.5429
149.6773,128.6025
149.6773,128.6025
149.6270,128.7373
149.6029,128.7695
149.5781,128.8360
149.5932,128.9054
149.6029,128.9205
149.6270,128.9527
149.6773,129.0875
149.6837,129.1471
149.6837,131.0429
149.6837,131.0429
149.6773,131.1025
149.6773,131.1025
149.6270,131.2373
149.6270,131.2373
149.5407,131.3525
149.4831,131.3957
149.4255,131.4388
149.4255,131.4388
149.4255,131.4388
149.3652,131.4613
149.2907,131.4891
149.2907,131.4891
149.2311,131.4955
146.6353,131.4955
146.5757,131.4891
146.4409,131.4388
146.3257,131.3525
146.2394,131.2373
146.1891,131.1025
146.1827,131.0429
146.1827,130.0112
143.7837,130.0112
143.7837,130.1788
143.7510,130.3431
143.7322,130.3884
143.6869,130.4979
143.6404,130.5675
143.5938,130.6372
143.5938,130.6372
143.4754,130.7556
143.4754,130.7556
143.3361,130.8487
143.1813,130.9128
143.0170,130.9455
143.0170,130.9455
142.8494,130.9455
142.8494,130.9455
142.6851,130.9128
142.5303,130.8487
142.3910,130.7556
142.2726,130.6372
142.1795,130.4979
142.1154,130.3431
142.0827,130.1788
142.0827,130.0112
142.0827,130.0112
141.2837,130.0112
141.2837,130.1788
141.2510,130.3431
141.2322,130.3884
141.1869,130.4979
141.1404,130.5675
141.0938,130.6372
141.0938,130.6372
140.9754,130.7556
140.9754,130.7556
140.8361,130.8487
140.6813,130.9128
140.5170,130.9455
140.5170,130.9455
140.3494,130.9455
140.3494,130.9455
140.1851,130.9128
140.0303,130.8487
139.8910,130.7556
139.7726,130.6372
139.6795,130.4979
139.6154,130.3431
139.5827,130.1788
139.5827,130.0112
139.6154,129.8469
139.6795,129.6921
139.7726,129.5528
139.7726,129.5528
139.8910,129.4344
139.8910,129.4344
140.0303,129.3413
140.0303,129.3413
140.0303,129.3413
140.1398,129.2960
140.1851,129.2772
140.1851,129.2772
140.1851,129.2772
140.2678,129.2607
140.3494,129.2445
140.3494,129.2445
140.5170,129.2445
140.5170,129.2445
140.6394,129.2688
140.6813,129.2772
140.6813,129.2772
140.6813,129.2772
140.8361,129.3413
140.9754,129.4344
140.9754,129.4344
141.0938,129.5528
141.0938,129.5528
141.1869,129.6921
141.2510,129.8469
141.2837,130.0112
142.0827,130.0112
142.1154,129.8469
142.1795,129.6921
142.2726,129.5528
142.2726,129.5528
142.3910,129.4344
142.3910,129.4344
142.5303,129.3413
142.5303,129.3413
142.5303,129.3413
142.6398,129.2960
142.6851,129.2772
142.6851,129.2772
142.6851,129.2772
142.7678,129.2607
142.8494,129.2445
142.8494,129.2445
143.0170,129.2445
143.0170,129.2445
143.1394,129.2688
143.1813,129.2772
143.1813,129.2772
143.1813,129.2772
143.3361,129.3413
143.4754,129.4344
143.4754,129.4344
143.5938,129.5528
143.5938,129.5528
143.6869,129.6921
143.7510,129.8469
143.7837,130.0112
146.1827,130.0112
146.1827,129.1471
146.1891,129.0875
146.2394,128.9527
146.2635,128.9205
146.2883,128.8540
146.2732,128.7846
146.2635,128.7695
146.2394,128.7373
146.1891,128.6025
146.1827,128.5429
146.1827,126.6471
146.1891,126.5875
146.2104,126.5304
146.2394,126.4527
146.2394,126.4527
146.2394,126.4527
146.2825,126.3951
146.3257,126.3375
146.4026,126.2798
146.4409,126.2512
146.4409,126.2512
146.4409,126.2512
146.5757,126.2009
146.5757,126.2009
146.6353,126.1945
149.2311,126.1945
149.2311,126.1945
149.2907,126.2009
149.2907,126.2009
149.4255,126.2512
149.4255,126.2512
149.5407,126.3375
149.6270,126.4527
149.6270,126.4527
149.6773,126.5875
149.6837,126.6471
233.5425,126.6471
231.9067,125.0112
148.7837,125.0112
148.7837,125.0112
148.7837,125.1788
148.7510,125.3431
148.6869,125.4979
148.6869,125.4979
148.5938,125.6372
148.5938,125.6372
148.4754,125.7556
148.4754,125.7556
148.3361,125.8487
148.2078,125.9018
148.1813,125.9128
148.1813,125.9128
148.1813,125.9128
148.0170,125.9455
147.8494,125.9455
147.6851,125.9128
147.5303,125.8487
147.3910,125.7556
147.2726,125.6372
147.1795,125.4979
147.1154,125.3431
147.0827,125.1788
147.0827,125.0112
147.1154,124.8469
147.1795,124.6921
147.2726,124.5528
147.2726,124.5528
147.3910,124.4344
147.3910,124.4344
147.5303,124.3413
147.5303,124.3413
147.5303,124.3413
147.6851,124.2772
147.7772,124.2589
147.8344,124.2475
147.8344,124.2475
147.8494,124.2445
148.0170,124.2445
148.0320,124.2475
148.0320,124.2475
148.1300,124.2670
148.1813,124.2772
148.1813,124.2772
148.1813,124.2772
148.3361,124.3413
148.4754,124.4344
148.4754,124.4344
148.5938,124.5528
148.5938,124.5528
148.6869,124.6921
148.7510,124.8469
148.7837,125.0112
231.9067,125.0112
226.0425,119.1471
149.6837,119.1471
149.6837,121.0429
149.6837,121.0429
149.6773,121.1025
149.6773,121.1025
149.6270,121.2373
149.6029,121.2695
149.5781,121.3360
149.5932,121.4054
149.6029,121.4205
149.6270,121.4527
149.6773,121.5875
149.6837,121.6471
149.6837,123.5429
149.6837,123.5429
149.6773,123.6025
149.6773,123.6025
149.6270,123.7373
149.6270,123.7373
149.5407,123.8525
149.4831,123.8957
149.4255,123.9388
149.4255,123.9388
149.4255,123.9388
149.3652,123.9613
149.2907,123.9891
149.2907,123.9891
149.2311,123.9955
146.6353,123.9955
146.5757,123.9891
146.4409,123.9388
146.3257,123.8525
146.2394,123.7373
146.1891,123.6025
146.1827,123.5429
146.1827,121.6471
146.1891,121.5875
146.2394,121.4527
146.2635,121.4205
146.2883,121.3540
146.2732,121.2846
146.2635,121.2695
146.2394,121.2373
146.1891,121.1025
146.1827,121.0429
146.1827,120.0112
143.7837,120.0112
143.7837,120.0112
143.7837,120.1788
143.7510,120.3431
143.6869,120.4979
143.6869,120.4979
143.5938,120.6372
143.5938,120.6372
143.4754,120.7556
143.4754,120.7556
143.3361,120.8487
143.1813,120.9128
143.0170,120.9455
143.0170,120.9455
142.8494,120.9455
142.8494,120.9455
142.6851,120.9128
142.5303,120.8487
142.3910,120.7556
142.2726,120.6372
142.1795,120.4979
142.1154,120.3431
142.0827,120.1788
142.0827,120.0112
142.0827,120.0112
141.2837,120.0112
141.2837,120.0112
141.2837,120.1788
141.2510,120.3431
141.1869,120.4979
141.1869,120.4979
141.0938,120.6372
141.0938,120.6372
140.9754,120.7556
140.9754,120.7556
140.8361,120.8487
140.6813,120.9128
140.5170,120.9455
140.5170,120.9455
140.3494,120.9455
140.3494,120.9455
140.1851,120.9128
140.0303,120.8487
139.8910,120.7556
139.7726,120.6372
139.6795,120.4979
139.6154,120.3431
139.5827,120.1788
139.5827,120.0112
139.6154,119.8469
139.6795,119.6921
139.7726,119.5528
139.7726,119.5528
139.8910,119.4344
139.8910,119.4344
140.0303,119.3413
140.0303,119.3413
140.0303,119.3413
140.1398,119.2960
140.1851,119.2772
140.1851,119.2772
140.1851,119.2772
140.2678,119.2607
140.3494,119.2445
140.3494,119.2445
140.5170,119.2445
140.5170,119.2445
140.6394,119.2688
140.6813,119.2772
140.6813,119.2772
140.6813,119.2772
140.8361,119.3413
140.9754,119.4344
140.9754,119.4344
141.0938,119.5528
141.0938,119.5528
141.1869,119.6921
141.2510,119.8469
141.2837,120.0112
142.0827,120.0112
142.1154,119.8469
142.1795,119.6921
142.2726,119.5528
142.2726,119.5528
142.3910,119.4344
142.3910,119.4344
142.5303,119.3413
142.5303,119.3413
142.5303,119.3413
142.6398,119.2960
142.6851,119.2772
142.6851,119.2772
142.6851,119.2772
142.7678,119.2607
142.8494,119.2445
142.8494,119.2445
143.0170,119.2445
143.0170,119.2445
143.1394,119.2688
143.1813,119.2772
143.1813,119.2772
143.1813,119.2772
143.3361,119.3413
143.4754,119.4344
143.4754,119.4344
143.5938,119.5528
143.5938,119.5528
143.6869,119.6921
143.7510,119.8469
143.7837,120.0112
146.1827,120.0112
146.1827,119.1471
146.1891,119.0875
146.2104,119.0304
146.2394,118.9527
146.2394,118.9527
146.2394,118.9527
146.2825,118.8951
146.3257,118.8375
146.4026,118.7798
146.4409,118.7512
146.4409,118.7512
146.4409,118.7512
146.5757,118.7009
146.5757,118.7009
146.6353,118.6945
149.2311,118.6945
149.2311,118.6945
149.2907,118.7009
149.2907,118.7009
149.4255,118.7512
149.4255,118.7512
149.5407,118.8375
149.6270,118.9527
149.6270,118.9527
149.6773,119.0875
149.6837,119.1471
226.0425,119.1471
225.9501,119.0547
221.5078,114.6124
221.4455,114.5784
221.4187,114.5755
142.0267,114.5755
142.0048,114.5755
Z" /> 
</g>
<g style="fill:#FFFFFF; fill-opacity:1.0000; stroke:none;">
<circle cx="204.7896" cy="154.2500" r="0.1651" /> 
</g>
<g style="fill:#FFFFFF; fill-opacity:1.0000; stroke:none;">
<circle cx="196.2797" cy="154.0755" r="0.1651" /> 
</g>
<g style="fill:#FFFFFF; fill-opacity:1.0000; stroke:none;">
<circle cx="221.0022" cy="153.5100" r="0.1651" /> 
</g>
<g style="fill:#FFFFFF; fill-opacity:1.0000; stroke:none;">
<circle cx="221.0022" cy="143.5000" r="0.1651" /> 
</g>
<g style="fill:#FFFFFF; fill-opacity:1.0000; stroke:none;">
<circle cx="152.5022" cy="157.2500" r="0.1651" /> 
</g>
<g style="fill:#FFFFFF; fill-opacity:1.0000; stroke:none;">
<circle cx="175.7260" cy="131.1103" r="0.1651" /> 
</g>
<g style="fill:#FFFFFF; fill-opacity:1.0000; stroke:none;">
<circle cx="187.5022" cy="141.0000" r="0.1651" /> 
</g>
<g style="fill:#FFFFFF; fill-opacity:1.0000; stroke:none;">
<circle cx="210.0022" cy="139.7500" r="0.1651" /> 
</g>
<g style="fill:#FFFFFF; fill-opacity:1.0000; stroke:none;">
<circle cx="158.0022" cy="125.2500" r="0.1651" /> 
</g>
<g style="fill:#FFFFFF; fill-opacity:1.0000; stroke:none;">
<circle cx="199.2522" cy="157.7500" r="0.1651" /> 
</g>
<g style="fill:#FFFFFF; fill-opacity:1.0000; stroke:none;">
<circle cx="155.0022" cy="157.2500" r="0.1651" /> 
</g>
<g style="fill:#FFFFFF; fill-opacity:1.0000; stroke:none;">
<circle cx="215.0022" cy="134.7500" r="0.1651" /> 
</g>
<g style="fill:#FFFFFF; fill-opacity:1.0000; stroke:none;">
<circle cx="200.7522" cy="134.2500" r="0.1651" /> 
</g>
<g style="fill:#FFFFFF; fill-opacity:1.0000; stroke:none;">
<circle cx="236.0022" cy="155.0000" r="0.1651" /> 
</g>
<g style="fill:#FFFFFF; fill-opacity:1.0000; stroke:none;">
<circle cx="179.2022" cy="116.2581" r="0.1651" /> 
</g>
<g style="fill:#FFFFFF; fill-opacity:1.0000; stroke:none;">
<circle cx="168.5172" cy="158.5000" r="0.1651" /> 
</g>
<g style="fill:#FFFFFF; fill-opacity:1.0000; stroke:none;">
<circle cx="221.0022" cy="156.0000" r="0.1651" /> 
</g>
<g style="fill:#FFFFFF; fill-opacity:1.0000; stroke:none;">
<circle cx="195.2522" cy="148.0000" r="0.1651" /> 
</g>
<g style="fill:#FFFFFF; fill-opacity:1.0000; stroke:none;">
<circle cx="221.0022" cy="148.4900" r="0.1651" /> 
</g>
<g style="fill:#FFFFFF; fill-opacity:1.0000; stroke:none;">
<circle cx="181.0022" cy="160.7500" r="0.1651" /> 
</g>
<g style="fill:#FFFFFF; fill-opacity:1.0000; stroke:none;">
<circle cx="181.1772" cy="139.7500" r="0.1651" /> 
</g>
<g style="fill:#FFFFFF; fill-opacity:1.0000; stroke:none;">
<circle cx="177.8647" cy="122.6552" r="0.1651" /> 
</g>
<g style="fill:#FFFFFF; fill-opacity:1.0000; stroke:none;">
<circle cx="187.5022" cy="156.7500" r="0.1651" /> 
</g>
<g style="fill:#FFFFFF; fill-opacity:1.0000; stroke:none;">
<circle cx="213.5775" cy="145.7315" r="0.1651" /> 
</g>
<g style="fill:#FFFFFF; fill-opacity:1.0000; stroke:none;">
<circle cx="219.0022" cy="145.0000" r="0.1651" /> 
</g>
<g style="fill:#FFFFFF; fill-opacity:1.0000; stroke:none;">
<circle cx="177.7522" cy="131.2561" r="0.1651" /> 
</g>
<g style="fill:#FFFFFF; fill-opacity:1.0000; stroke:none;">
<circle cx="236.0022" cy="150.0000" r="0.1651" /> 
</g>
<g style="fill:#FFFFFF; fill-opacity:1.0000; stroke:none;">
<circle cx="176.5022" cy="116.2581" r="0.1651" /> 
</g>
<g style="fill:#FFFFFF; fill-opacity:1.0000; stroke:none;">
<circle cx="158.2522" cy="135.2500" r="0.1651" /> 
</g>
<g style="fill:#FFFFFF; fill-opacity:1.0000; stroke:none;">
<circle cx="181.5022" cy="130.2427" r="0.1651" /> 
</g>
<g style="fill:#FFFFFF; fill-opacity:1.0000; stroke:none;">
<circle cx="236.0022" cy="160.0000" r="0.1651" /> 
</g>
<g style="fill:#FFFFFF; fill-opacity:1.0000; stroke:none;">
<circle cx="236.0022" cy="145.0000" r="0.1651" /> 
</g>
<g style="fill:#FFFFFF; fill-opacity:1.0000; stroke:none;">
<circle cx="164.2522" cy="151.5000" r="0.1651" /> 
</g>
<g style="fill:#FFFFFF; fill-opacity:1.0000; stroke:none;">
<circle cx="204.6922" cy="158.0000" r="0.1651" /> 
</g>
<g style="fill:#FFFFFF; fill-opacity:1.0000; stroke:none;">
<circle cx="207.0022" cy="140.2500" r="0.1651" /> 
</g>
<g style="fill:#FFFFFF; fill-opacity:1.0000; stroke:none;">
<circle cx="221.0022" cy="146.0600" r="0.1651" /> 
</g>
<g style="fill:#FFFFFF; fill-opacity:1.0000; stroke:none;">
<circle cx="221.0022" cy="151.0000" r="0.1651" /> 
</g>
<g style="fill:#FFFFFF; fill-opacity:1.0000; stroke:none;">
<circle cx="173.2022" cy="158.5000" r="0.1651" /> 
</g>
<g style="fill:#FFFFFF; fill-opacity:1.0000; stroke:none;">
<circle cx="212.2315" cy="154.6889" r="0.1651" /> 
</g>
<g style="fill:#FFFFFF; fill-opacity:1.0000; stroke:none;">
<circle cx="180.0022" cy="144.2000" r="0.1651" /> 
</g>
<g style="fill:#FFFFFF; fill-opacity:1.0000; stroke:none;">
<circle cx="177.4022" cy="142.6000" r="0.1651" /> 
</g>
<g style="fill:#FFFFFF; fill-opacity:1.0000; stroke:none;">
<circle cx="207.1458" cy="150.5221" r="0.1651" /> 
</g>
<g style="fill:#FFFFFF; fill-opacity:1.0000; stroke:none;">
<circle cx="215.6340" cy="153.1182" r="0.1651" /> 
</g>
<g style="fill:#FFFFFF; fill-opacity:1.0000; stroke:none;">
<circle cx="211.0683" cy="152.7269" r="0.1651" /> 
</g>
<g style="fill:#FFFFFF; fill-opacity:1.0000; stroke:none;">
<circle cx="211.0811" cy="154.9367" r="0.1651" /> 
</g>
<g style="fill:#FFFFFF; fill-opacity:1.0000; stroke:none;">
<circle cx="223.7772" cy="144.5464" r="0.1651" /> 
</g>
<g style="fill:#FFFFFF; fill-opacity:1.0000; stroke:none;">
<circle cx="213.5822" cy="158.2500" r="0.1651" /> 
</g>
<g style="fill:#FFFFFF; fill-opacity:1.0000; stroke:none;">
<circle cx="218.1970" cy="153.4718" r="0.1651" /> 
</g>
<g style="fill:#FFFFFF; fill-opacity:1.0000; stroke:none;">
<circle cx="206.5022" cy="149.8176" r="0.1651" /> 
</g>
<g style="fill:#FFFFFF; fill-opacity:1.0000; stroke:none;">
<circle cx="216.1279" cy="151.4544" r="0.1651" /> 
</g>
<g style="fill:#FFFFFF; fill-opacity:1.0000; stroke:none;">
<circle cx="217.8254" cy="151.8808" r="0.1651" /> 
</g>
<g style="fill:#FFFFFF; fill-opacity:1.0000; stroke:none;">
<circle cx="140.4332" cy="130.0950" r="0.6000" /> 
</g>
<g style="fill:#FFFFFF; fill-opacity:1.0000; stroke:none;">
<circle cx="140.4332" cy="120.0950" r="0.6000" /> 
</g>
<g style="fill:#FFFFFF; fill-opacity:1.0000; stroke:none;">
<circle cx="142.9332" cy="130.0950" r="0.6000" /> 
</g>
<g style="fill:#FFFFFF; fill-opacity:1.0000; stroke:none;">
<circle cx="142.9332" cy="120.0950" r="0.6000" /> 
</g>
<g style="fill:#FFFFFF; fill-opacity:1.0000; stroke:none;">
<circle cx="147.9332" cy="125.0950" r="0.6000" /> 
</g>
<g style="fill:none; 
stroke:#FFFFFF; stroke-width:0.8000; stroke-opacity:1; 
stroke-linecap:round; stroke-linejoin:round;">
<path d="M147.5832 130.0950
L148.2832 130.0950
" />
<path d="M147.5832 127.5950
L148.2832 127.5950
" />
<path d="M142.9332 125.4450
L142.9332 124.7450
" />
<path d="M147.5832 120.0950
L148.2832 120.0950
" />
<path d="M147.5832 122.5950
L148.2832 122.5950
" />
</g>
<g style="fill:#FFFFFF; fill-opacity:1.0000; stroke:none;">
<circle cx="232.0022" cy="156.1600" r="0.5000" /> 
</g>
<g style="fill:#FFFFFF; fill-opacity:1.0000; stroke:none;">
<circle cx="234.5422" cy="156.1600" r="0.5000" /> 
</g>
<g style="fill:#FFFFFF; fill-opacity:1.0000; stroke:none;">
<circle cx="232.0022" cy="153.6200" r="0.5000" /> 
</g>
<g style="fill:#FFFFFF; fill-opacity:1.0000; stroke:none;">
<circle cx="234.5422" cy="153.6200" r="0.5000" /> 
</g>
<g style="fill:#FFFFFF; fill-opacity:1.0000; stroke:none;">
<circle cx="232.0022" cy="151.0800" r="0.5000" /> 
</g>
<g style="fill:#FFFFFF; fill-opacity:1.0000; stroke:none;">
<circle cx="234.5422" cy="151.0800" r="0.5000" /> 
</g>
<g style="fill:#FFFFFF; fill-opacity:1.0000; stroke:none;">
<circle cx="232.0022" cy="148.5400" r="0.5000" /> 
</g>
<g style="fill:#FFFFFF; fill-opacity:1.0000; stroke:none;">
<circle cx="234.5422" cy="148.5400" r="0.5000" /> 
</g>
<g style="fill:#FFFFFF; fill-opacity:1.0000; stroke:none;">
<circle cx="232.0022" cy="146.0000" r="0.5000" /> 
</g>
<g style="fill:#FFFFFF; fill-opacity:1.0000; stroke:none;">
<circle cx="234.5422" cy="146.0000" r="0.5000" /> 
</g>
<g style="fill:#FFFFFF; fill-opacity:1.0000; stroke:none;">
<circle cx="232.0022" cy="143.4600" r="0.5000" /> 
</g>
<g style="fill:#FFFFFF; fill-opacity:1.0000; stroke:none;">
<circle cx="234.5422" cy="143.4600" r="0.5000" /> 
</g>
<g style="fill:#FFFFFF; fill-opacity:1.0000; stroke:none;">
<circle cx="231.4702" cy="131.3820" r="1.6000" /> 
</g>
<g style="fill:#FFFFFF; fill-opacity:1.0000; stroke:none;">
<circle cx="235.0022" cy="163.0000" r="0.5000" /> 
</g>
<g style="fill:#FFFFFF; fill-opacity:1.0000; stroke:none;">
<circle cx="232.4622" cy="163.0000" r="0.5000" /> 
</g>
<g style="fill:#FFFFFF; fill-opacity:1.0000; stroke:none;">
<circle cx="229.9222" cy="163.0000" r="0.5000" /> 
</g>
<g style="fill:#FFFFFF; fill-opacity:1.0000; stroke:none;">
<circle cx="227.3822" cy="163.0000" r="0.5000" /> 
</g>
<g style="fill:#FFFFFF; fill-opacity:1.0000; stroke:none;">
<circle cx="224.8422" cy="163.0000" r="0.5000" /> 
</g>
<g style="fill:#FFFFFF; fill-opacity:1.0000; stroke:none;">
<circle cx="222.3022" cy="163.0000" r="0.5000" /> 
</g>
<g style="fill:#FFFFFF; fill-opacity:1.0000; stroke:none;">
<circle cx="219.7622" cy="163.0000" r="0.5000" /> 
</g>
<g style="fill:#FFFFFF; fill-opacity:1.0000; stroke:none;">
<circle cx="217.2222" cy="163.0000" r="0.5000" /> 
</g>
<g style="fill:#FFFFFF; fill-opacity:1.0000; stroke:none;">
<circle cx="214.6822" cy="163.0000" r="0.5000" /> 
</g>
<g style="fill:#FFFFFF; fill-opacity:1.0000; stroke:none;">
<circle cx="212.1422" cy="163.0000" r="0.5000" /> 
</g>
<g style="fill:#FFFFFF; fill-opacity:1.0000; stroke:none;">
<circle cx="209.6022" cy="163.0000" r="0.5000" /> 
</g>
<g style="fill:#FFFFFF; fill-opacity:1.0000; stroke:none;">
<circle cx="207.0622" cy="163.0000" r="0.5000" /> 
</g>
<g style="fill:#FFFFFF; fill-opacity:1.0000; stroke:none;">
<circle cx="204.5222" cy="163.0000" r="0.5000" /> 
</g>
<g style="fill:#FFFFFF; fill-opacity:1.0000; stroke:none;">
<circle cx="201.9822" cy="163.0000" r="0.5000" /> 
</g>
<g style="fill:#FFFFFF; fill-opacity:1.0000; stroke:none;">
<circle cx="199.4422" cy="163.0000" r="0.5000" /> 
</g>
<g style="fill:#FFFFFF; fill-opacity:1.0000; stroke:none;">
<circle cx="196.9022" cy="163.0000" r="0.5000" /> 
</g>
<g style="fill:#FFFFFF; fill-opacity:1.0000; stroke:none;">
<circle cx="194.3622" cy="163.0000" r="0.5000" /> 
</g>
<g style="fill:#FFFFFF; fill-opacity:1.0000; stroke:none;">
<circle cx="191.8222" cy="163.0000" r="0.5000" /> 
</g>
<g style="fill:#FFFFFF; fill-opacity:1.0000; stroke:none;">
<circle cx="189.2822" cy="163.0000" r="0.5000" /> 
</g>
<g style="fill:#FFFFFF; fill-opacity:1.0000; stroke:none;">
<circle cx="186.7422" cy="163.0000" r="0.5000" /> 
</g>
<g style="fill:#FFFFFF; fill-opacity:1.0000; stroke:none;">
<circle cx="184.2022" cy="163.0000" r="0.5000" /> 
</g>
<g style="fill:#FFFFFF; fill-opacity:1.0000; stroke:none;">
<circle cx="181.6622" cy="163.0000" r="0.5000" /> 
</g>
<g style="fill:#FFFFFF; fill-opacity:1.0000; stroke:none;">
<circle cx="179.1222" cy="163.0000" r="0.5000" /> 
</g>
<g style="fill:#FFFFFF; fill-opacity:1.0000; stroke:none;">
<circle cx="176.5822" cy="163.0000" r="0.5000" /> 
</g>
<g style="fill:#FFFFFF; fill-opacity:1.0000; stroke:none;">
<circle cx="174.0422" cy="163.0000" r="0.5000" /> 
</g>
<g style="fill:#FFFFFF; fill-opacity:1.0000; stroke:none;">
<circle cx="171.5022" cy="163.0000" r="0.5000" /> 
</g>
<g style="fill:#FFFFFF; fill-opacity:1.0000; stroke:none;">
<circle cx="168.9622" cy="163.0000" r="0.5000" /> 
</g>
<g style="fill:#FFFFFF; fill-opacity:1.0000; stroke:none;">
<circle cx="166.4222" cy="163.0000" r="0.5000" /> 
</g>
<g style="fill:#FFFFFF; fill-opacity:1.0000; stroke:none;">
<circle cx="163.8822" cy="163.0000" r="0.5000" /> 
</g>
<g style="fill:#FFFFFF; fill-opacity:1.0000; stroke:none;">
<circle cx="161.3422" cy="163.0000" r="0.5000" /> 
</g>
<g style="fill:#FFFFFF; fill-opacity:1.0000; stroke:none;">
<circle cx="158.8022" cy="163.0000" r="0.5000" /> 
</g>
<g style="fill:#FFFFFF; fill-opacity:1.0000; stroke:none;">
<circle cx="156.2622" cy="163.0000" r="0.5000" /> 
</g>
<g style="fill:#FFFFFF; fill-opacity:1.0000; stroke:none;">
<circle cx="153.7222" cy="163.0000" r="0.5000" /> 
</g>
<g style="fill:#FFFFFF; fill-opacity:1.0000; stroke:none;">
<circle cx="151.1822" cy="163.0000" r="0.5000" /> 
</g>
<g style="fill:#FFFFFF; fill-opacity:1.0000; stroke:none;">
<circle cx="148.6422" cy="163.0000" r="0.5000" /> 
</g>
<g style="fill:#FFFFFF; fill-opacity:1.0000; stroke:none;">
<circle cx="146.1022" cy="163.0000" r="0.5000" /> 
</g>
<g style="fill:#FFFFFF; fill-opacity:1.0000; stroke:none;">
<circle cx="143.5622" cy="163.0000" r="0.5000" /> 
</g>
<g style="fill:#FFFFFF; fill-opacity:1.0000; stroke:none;">
<circle cx="141.0222" cy="163.0000" r="0.5000" /> 
</g>
<g style="fill:#FFFFFF; fill-opacity:1.0000; stroke:none;">
<circle cx="138.4822" cy="163.0000" r="0.5000" /> 
</g> 
</svg>
