<?xml version="1.0" standalone="no"?>
 <!DOCTYPE svg PUBLIC "-//W3C//DTD SVG 1.1//EN" 
 "http://www.w3.org/Graphics/SVG/1.1/DTD/svg11.dtd"> 
<svg
  xmlns:svg="http://www.w3.org/2000/svg"
  xmlns="http://www.w3.org/2000/svg"
  xmlns:xlink="http://www.w3.org/1999/xlink"
  version="1.1"
  width="297.0022mm" height="210.0072mm" viewBox="0.0000 0.0000 297.0022 210.0072">
<title>SVG Image created as rcbus-opl3-B_Silkscreen2.svg date 2025/10/09 21:41:51 </title>
  <desc>Image generated by PCBNEW </desc>
<g style="fill:#000000; fill-opacity:1.0000;stroke:#000000; stroke-opacity:1.0000;
stroke-linecap:round; stroke-linejoin:round;"
 transform="translate(0 0) scale(1 1)">
<path style="fill:#000000; fill-opacity:1.0000; stroke:none;fill-rule:evenodd;"
d="M 137.5200,161.6225
137.5200,160.0218
137.8315,160.0218
137.8315,160.6100
137.8979,160.5637
137.9897,160.5180
138.0894,160.4866
138.1899,160.4762
138.2741,160.4826
138.3410,160.4999
138.3939,160.5266
138.4396,160.5644
138.4760,160.6109
138.5036,160.6674
138.5284,160.7620
138.5373,160.8762
138.5373,161.6225
138.2259,161.6225
138.2259,160.9161
138.2203,160.8658
138.2050,160.8270
138.1803,160.7956
138.1483,160.7735
138.1105,160.7605
138.0655,160.7559
137.9797,160.7670
137.9019,160.7968
137.8315,160.8390
137.8315,161.6225
Z" /> 
<path style="fill:#000000; fill-opacity:1.0000; stroke:none;fill-rule:evenodd;"
d="M 139.1985,161.6225
139.1121,161.6177
139.0427,161.6046
138.9873,161.5848
138.9386,161.5542
138.9001,161.5128
138.8708,161.4590
138.8525,161.3991
138.8410,161.3213
138.8382,161.2216
138.8486,160.7440
138.6726,160.7440
138.6726,160.5446
138.8598,160.4951
138.9011,160.1791
139.1466,160.1791
139.1466,160.4951
139.4127,160.4951
139.4127,160.7440
139.1466,160.7440
139.1466,161.2200
139.1553,161.2950
139.1662,161.3223
139.1800,161.3421
139.2165,161.3680
139.2595,161.3782
139.4015,161.3923
139.4015,161.6225
Z" /> 
<path style="fill:#000000; fill-opacity:1.0000; stroke:none;fill-rule:evenodd;"
d="M 140.0147,161.6225
139.9283,161.6177
139.8589,161.6046
139.8036,161.5848
139.7549,161.5542
139.7163,161.5128
139.6870,161.4590
139.6688,161.3991
139.6573,161.3213
139.6545,161.2216
139.6648,160.7440
139.4888,160.7440
139.4888,160.5446
139.6760,160.4951
139.7173,160.1791
139.9629,160.1791
139.9629,160.4951
140.2290,160.4951
140.2290,160.7440
139.9629,160.7440
139.9629,161.2200
139.9716,161.2950
139.9825,161.3223
139.9962,161.3421
140.0328,161.3680
140.0757,161.3782
140.2178,161.3923
140.2178,161.6225
Z" /> 
<path style="fill:#000000; fill-opacity:1.0000; stroke:none;fill-rule:evenodd;"
d="M 140.9629,160.4824
140.9050,160.4957
140.8503,160.5162
140.8007,160.5418
140.7126,160.6025
140.6620,160.4951
140.4011,160.4951
140.4011,162.1202
140.7126,162.1202
140.7126,161.5642
140.7831,161.5951
140.8630,161.6188
140.9454,161.6334
141.0253,161.6382
141.1254,161.6296
141.2039,161.6059
141.2655,161.5693
141.3165,161.5183
141.3577,161.4531
141.3889,161.3708
141.4155,161.2343
141.4254,161.0597
141.1140,161.0597
141.1063,161.1812
141.0873,161.2584
141.0546,161.3196
141.0171,161.3548
140.9720,161.3749
140.9240,161.3816
140.8675,161.3778
140.8107,161.3664
140.7569,161.3483
140.7126,161.3264
140.7126,160.7912
140.8052,160.7488
140.8618,160.7336
140.9255,160.7284
140.9776,160.7359
141.0226,160.7582
141.0586,160.7960
141.0894,160.8608
141.1070,160.9406
141.1140,161.0597
141.4254,161.0597
141.4194,160.9282
141.4024,160.8168
141.3720,160.7146
141.3306,160.6333
141.2746,160.5663
141.2056,160.5178
141.1246,160.4884
141.0253,160.4779
Z" /> 
<path style="fill:#000000; fill-opacity:1.0000; stroke:none;fill-rule:evenodd;"
d="M 142.0396,161.6351
141.9255,161.6317
141.8034,161.6225
141.6908,161.6067
141.6036,161.5841
141.6036,161.4016
142.1026,161.4016
142.1748,161.3941
142.2003,161.3831
142.2172,161.3667
142.2272,161.3441
142.2310,161.3104
142.2310,161.2741
142.2239,161.2362
142.2036,161.2089
142.1694,161.1925
142.1032,161.1854
141.9265,161.1854
141.8329,161.1779
141.7521,161.1565
141.7037,161.1327
141.6630,161.1009
141.6293,161.0604
141.6053,161.0134
141.5897,160.9541
141.5840,160.8791
141.5840,160.8137
141.5891,160.7431
141.6032,160.6836
141.6254,160.6333
141.6580,160.5900
141.7040,160.5531
141.7660,160.5225
141.8335,160.5029
141.9222,160.4896
142.0371,160.4847
142.1858,160.4919
142.3346,160.5107
142.4458,160.5361
142.4458,160.7187
141.9740,160.7187
141.9171,160.7244
141.8810,160.7389
141.8581,160.7658
141.8494,160.8137
141.8494,160.8485
141.8535,160.8816
141.8643,160.9032
141.8825,160.9185
141.9104,160.9287
141.9865,160.9354
142.1677,160.9354
142.2552,160.9413
142.3238,160.9575
142.3772,160.9821
142.4183,161.0143
142.4605,161.0714
142.4870,161.1428
142.4965,161.2327
142.4965,161.3335
142.4899,161.4074
142.4717,161.4662
142.4433,161.5131
142.4039,161.5518
142.3531,161.5832
142.2885,161.6072
142.1810,161.6275
Z" /> 
<path style="fill:#000000; fill-opacity:1.0000; stroke:none;fill-rule:evenodd;"
d="M 142.7260,161.6256
142.7011,161.6206
142.6874,161.6073
142.6824,161.5835
142.6824,161.3688
142.6876,161.3430
142.7014,161.3289
142.7260,161.3236
142.9057,161.3236
142.9314,161.3289
142.9457,161.3432
142.9510,161.3688
142.9510,161.5835
142.9474,161.6042
142.9382,161.6163
142.9057,161.6256
Z" /> 
<path style="fill:#000000; fill-opacity:1.0000; stroke:none;fill-rule:evenodd;"
d="M 142.7260,160.7932
142.7011,160.7882
142.6874,160.7749
142.6824,160.7511
142.6824,160.5364
142.6876,160.5106
142.7014,160.4965
142.7260,160.4913
142.9057,160.4913
142.9314,160.4966
142.9457,160.5108
142.9510,160.5364
142.9510,160.7511
142.9474,160.7718
142.9382,160.7839
142.9057,160.7932
Z" /> 
<path style="fill:#000000; fill-opacity:1.0000; stroke:none;fill-rule:evenodd;"
d="M 143.0503,161.7737
143.6405,160.0055
143.9567,160.0055
143.3666,161.7737
Z" /> 
<path style="fill:#000000; fill-opacity:1.0000; stroke:none;fill-rule:evenodd;"
d="M 143.7259,161.7737
144.3160,160.0055
144.6323,160.0055
144.0422,161.7737
Z" /> 
<path style="fill:#000000; fill-opacity:1.0000; stroke:none;fill-rule:evenodd;"
d="M 144.6978,161.6225
144.6978,160.4951
144.9545,160.4951
145.0093,160.6100
145.0862,160.5592
145.1706,160.5157
145.2301,160.4946
145.3013,160.4811
145.3861,160.4762
145.4553,160.4816
145.5133,160.4968
145.5621,160.5208
145.6246,160.5718
145.6696,160.6346
145.7805,160.5622
145.8465,160.5288
145.9182,160.5010
145.9923,160.4823
146.0638,160.4762
146.1532,160.4827
146.2234,160.5004
146.2781,160.5274
146.3251,160.5660
146.3617,160.6137
146.3887,160.6720
146.4124,160.7701
146.4210,160.8916
146.4210,161.6225
146.1096,161.6225
146.1096,160.9192
146.1042,160.8675
146.0895,160.8286
146.0655,160.7970
146.0340,160.7744
145.9961,160.7608
145.9485,160.7559
145.8861,160.7621
145.8211,160.7815
145.7593,160.8104
145.7061,160.8441
145.7128,160.8842
145.7151,160.9254
145.7151,161.6225
145.4037,161.6225
145.4037,160.9192
145.3983,160.8675
145.3836,160.8286
145.3597,160.7970
145.3284,160.7744
145.2908,160.7608
145.2433,160.7559
145.1572,160.7662
145.0800,160.7952
145.0093,160.8390
145.0093,161.6225
Z" /> 
<path style="fill:#000000; fill-opacity:1.0000; stroke:none;fill-rule:evenodd;"
d="M 146.9850,160.4856
146.8715,160.4989
146.7670,160.5197
146.6815,160.5436
146.6815,160.7230
147.0186,160.7230
147.1170,160.7278
147.1756,160.7393
147.2207,160.7612
147.2458,160.7898
147.2593,160.8271
147.2643,160.8773
147.2643,160.9537
146.9766,160.9537
146.8791,160.9600
146.8021,160.9770
146.7416,161.0030
146.6946,161.0369
146.6445,161.0973
146.6146,161.1667
146.6042,161.2483
146.6042,161.3502
146.6139,161.4354
146.6409,161.5037
146.6848,161.5591
146.7425,161.6007
146.8108,161.6262
146.8928,161.6351
146.9617,161.6315
147.0261,161.6208
147.0876,161.6040
147.1411,161.5839
147.2282,161.5402
147.2796,161.5034
147.3302,161.6225
147.5758,161.6225
147.5758,161.3639
147.2643,161.3639
147.2439,161.3722
147.2039,161.3866
147.1521,161.4017
147.0976,161.4142
147.0494,161.4189
146.9822,161.4073
146.9549,161.3922
146.9337,161.3692
146.9205,161.3392
146.9157,161.2983
146.9157,161.2528
146.9257,161.1970
146.9543,161.1565
147.0003,161.1297
147.0760,161.1141
147.2643,161.1010
147.2643,161.3639
147.5758,161.3639
147.5758,160.8559
147.5691,160.7602
147.5510,160.6862
147.5236,160.6293
147.4841,160.5806
147.4341,160.5422
147.3720,160.5137
147.2667,160.4890
147.1318,160.4803
Z" /> 
<path style="fill:#000000; fill-opacity:1.0000; stroke:none;fill-rule:evenodd;"
d="M 147.8452,160.3291
147.8203,160.3241
147.8067,160.3108
147.8016,160.2871
147.8016,160.0817
147.8068,160.0559
147.8206,160.0417
147.8452,160.0365
148.0849,160.0365
148.1030,160.0399
148.1149,160.0492
148.1248,160.0817
148.1248,160.2871
148.1201,160.3112
148.1074,160.3243
148.0849,160.3291
Z" /> 
<path style="fill:#000000; fill-opacity:1.0000; stroke:none;fill-rule:evenodd;"
d="M 147.8075,161.6225
147.8075,160.4951
148.1190,160.4951
148.1190,161.6225
Z" /> 
<path style="fill:#000000; fill-opacity:1.0000; stroke:none;fill-rule:evenodd;"
d="M 149.0366,160.5305
148.9019,160.4936
148.8254,160.4818
148.7479,160.4779
148.6417,160.4857
148.5586,160.5069
148.4939,160.5393
148.4395,160.5861
148.3957,160.6488
148.3624,160.7307
148.3422,160.8183
148.3287,160.9300
148.3237,161.0702
148.3296,161.2063
148.3455,161.3141
148.3692,161.3985
148.4063,161.4767
148.4515,161.5358
148.5049,161.5791
148.5672,161.6094
148.6404,161.6284
148.7269,161.6351
148.7841,161.6311
148.8411,161.6189
148.8965,161.5999
148.9489,161.5753
148.9974,161.5459
149.0366,161.5151
149.0872,161.6225
149.3480,161.6225
149.3480,160.7545
149.0366,160.7545
149.0366,161.3218
148.9508,161.3642
148.8978,161.3793
148.8360,161.3846
148.7681,161.3773
148.7190,161.3574
148.6821,161.3213
148.6547,161.2584
148.6408,161.1792
148.6352,161.0548
148.6413,160.9226
148.6561,160.8403
148.6743,160.7936
148.6972,160.7608
148.7246,160.7388
148.7769,160.7189
148.8492,160.7114
148.9003,160.7150
148.9482,160.7255
149.0366,160.7545
149.3480,160.7545
149.3480,160.0202
149.0366,160.0202
Z" /> 
<path style="fill:#000000; fill-opacity:1.0000; stroke:none;fill-rule:evenodd;"
d="M 149.9130,160.4856
149.7995,160.4989
149.6950,160.5197
149.6095,160.5436
149.6095,160.7230
149.9466,160.7230
150.0450,160.7278
150.1036,160.7393
150.1486,160.7612
150.1738,160.7898
150.1873,160.8271
150.1922,160.8773
150.1922,160.9537
149.9045,160.9537
149.8071,160.9600
149.7301,160.9770
149.6696,161.0030
149.6226,161.0369
149.5724,161.0973
149.5426,161.1667
149.5322,161.2483
149.5322,161.3502
149.5419,161.4354
149.5689,161.5037
149.6127,161.5591
149.6705,161.6007
149.7388,161.6262
149.8207,161.6351
149.8897,161.6315
149.9541,161.6208
150.0156,161.6040
150.0690,161.5839
150.1561,161.5402
150.2076,161.5034
150.2582,161.6225
150.5037,161.6225
150.5037,161.3639
150.1922,161.3639
150.1719,161.3722
150.1319,161.3866
150.0801,161.4017
150.0255,161.4142
149.9774,161.4189
149.9102,161.4073
149.8829,161.3922
149.8617,161.3692
149.8485,161.3392
149.8436,161.2983
149.8436,161.2528
149.8537,161.1970
149.8823,161.1565
149.9283,161.1297
150.0040,161.1141
150.1922,161.1010
150.1922,161.3639
150.5037,161.3639
150.5037,160.8559
150.4971,160.7602
150.4790,160.6862
150.4516,160.6293
150.4120,160.5806
150.3620,160.5422
150.2999,160.5137
150.1947,160.4890
150.0598,160.4803
Z" /> 
<path style="fill:#000000; fill-opacity:1.0000; stroke:none;fill-rule:evenodd;"
d="M 151.0204,161.6225
150.6424,160.4951
150.9631,160.4951
151.2058,161.3346
151.4570,160.4951
151.7746,160.4951
151.3790,161.6225
Z" /> 
<path style="fill:#000000; fill-opacity:1.0000; stroke:none;fill-rule:evenodd;"
d="M 152.2093,160.4856
152.0959,160.4989
151.9914,160.5197
151.9059,160.5436
151.9059,160.7230
152.2430,160.7230
152.3413,160.7278
152.3999,160.7393
152.4450,160.7612
152.4702,160.7898
152.4836,160.8271
152.4886,160.8773
152.4886,160.9537
152.2009,160.9537
152.1034,160.9600
152.0264,160.9770
151.9660,161.0030
151.9190,161.0369
151.8688,161.0973
151.8389,161.1667
151.8286,161.2483
151.8286,161.3502
151.8382,161.4354
151.8653,161.5037
151.9091,161.5591
151.9669,161.6007
152.0352,161.6262
152.1171,161.6351
152.1860,161.6315
152.2505,161.6208
152.3120,161.6040
152.3654,161.5839
152.4525,161.5402
152.5040,161.5034
152.5546,161.6225
152.8001,161.6225
152.8001,161.3639
152.4886,161.3639
152.4683,161.3722
152.4282,161.3866
152.3765,161.4017
152.3219,161.4142
152.2737,161.4189
152.2066,161.4073
152.1792,161.3922
152.1581,161.3692
152.1449,161.3392
152.1400,161.2983
152.1400,161.2528
152.1501,161.1970
152.1787,161.1565
152.2247,161.1297
152.3004,161.1141
152.4886,161.1010
152.4886,161.3639
152.8001,161.3639
152.8001,160.8559
152.7934,160.7602
152.7754,160.6862
152.7480,160.6293
152.7084,160.5806
152.6584,160.5422
152.5963,160.5137
152.4910,160.4890
152.3562,160.4803
Z" /> 
<path style="fill:#000000; fill-opacity:1.0000; stroke:none;fill-rule:evenodd;"
d="M 153.3856,161.6271
153.3069,161.6223
153.2417,161.6089
153.1878,161.5882
153.1398,161.5576
153.1010,161.5179
153.0705,161.4681
153.0501,161.4125
153.0367,161.3435
153.0318,161.2583
153.0318,160.0202
153.3433,160.0202
153.3433,161.2124
153.3470,161.2725
153.3564,161.3128
153.3734,161.3455
153.3956,161.3667
153.4240,161.3806
153.4602,161.3899
153.5469,161.4016
153.5469,161.6271
Z" /> 
<path style="fill:#000000; fill-opacity:1.0000; stroke:none;fill-rule:evenodd;"
d="M 154.0286,160.4844
153.9318,160.5021
153.8574,160.5284
153.7927,160.5696
153.7412,160.6274
153.7019,160.7047
153.6778,160.7902
153.6613,160.9061
153.6550,161.0597
153.6616,161.2092
153.6790,161.3232
153.7046,161.4084
153.7456,161.4849
153.7990,161.5424
153.8659,161.5836
153.9421,161.6097
154.0399,161.6272
154.1640,161.6336
154.2934,161.6293
154.3957,161.6176
154.5761,161.5841
154.5761,161.4016
154.2465,161.4016
154.1386,161.3951
154.0720,161.3794
154.0212,161.3493
153.9903,161.3059
153.9733,161.2498
153.9635,161.1691
154.2485,161.1691
154.3556,161.1617
154.4415,161.1412
154.4926,161.1178
154.5343,161.0865
154.5678,161.0470
154.5915,161.0008
154.6069,160.9419
154.6124,160.8687
154.3379,160.8687
154.3295,160.9262
154.3085,160.9581
154.2738,160.9761
154.2163,160.9832
153.9604,160.9832
153.9657,160.8785
153.9789,160.8111
154.0044,160.7577
154.0397,160.7261
154.0865,160.7088
154.1530,160.7023
154.2162,160.7067
154.2603,160.7180
154.2955,160.7392
154.3193,160.7703
154.3328,160.8105
154.3379,160.8687
154.6124,160.8687
154.6125,160.8671
154.6066,160.7651
154.5908,160.6875
154.5674,160.6292
154.5316,160.5790
154.4838,160.5399
154.4217,160.5112
154.3125,160.4873
154.1530,160.4779
Z" /> 
<path style="fill:#000000; fill-opacity:1.0000; stroke:none;fill-rule:evenodd;"
d="M 154.8527,161.6256
154.8278,161.6206
154.8141,161.6073
154.8091,161.5835
154.8091,161.3688
154.8143,161.3430
154.8281,161.3289
154.8527,161.3236
155.0324,161.3236
155.0581,161.3289
155.0723,161.3432
155.0776,161.3688
155.0776,161.5835
155.0741,161.6042
155.0649,161.6163
155.0324,161.6256
Z" /> 
<path style="fill:#000000; fill-opacity:1.0000; stroke:none;fill-rule:evenodd;"
d="M 155.6579,160.4849
155.5539,160.5038
155.4907,160.5260
155.4375,160.5561
155.3929,160.5941
155.3566,160.6402
155.3261,160.6984
155.3018,160.7710
155.2809,160.8909
155.2729,161.0562
155.2806,161.2133
155.3010,161.3311
155.3247,161.4028
155.3549,161.4615
155.3913,161.5089
155.4360,161.5486
155.4892,161.5805
155.5523,161.6046
155.6566,161.6258
155.7906,161.6336
155.9274,161.6261
156.0322,161.6062
156.0955,161.5830
156.1485,161.5521
156.1926,161.5135
156.2285,161.4670
156.2584,161.4087
156.2818,161.3365
156.3018,161.2174
156.3094,161.0562
156.3093,161.0546
155.9980,161.0546
155.9945,161.1600
155.9857,161.2320
155.9691,161.2934
155.9486,161.3315
155.9202,161.3587
155.8848,161.3745
155.8437,161.3819
155.7906,161.3846
155.7376,161.3819
155.6967,161.3745
155.6615,161.3587
155.6331,161.3315
155.6127,161.2934
155.5963,161.2320
155.5877,161.1599
155.5844,161.0546
155.5878,160.9490
155.5963,160.8778
155.6127,160.8173
155.6331,160.7797
155.6615,160.7527
155.6967,160.7370
155.7376,160.7296
155.7906,160.7268
155.8437,160.7296
155.8848,160.7370
155.9202,160.7527
155.9486,160.7797
155.9692,160.8173
155.9857,160.8778
155.9945,160.9490
155.9980,161.0546
156.3093,161.0546
156.3014,160.8937
156.2802,160.7741
156.2559,160.7014
156.2255,160.6433
156.1896,160.5972
156.1456,160.5591
156.0925,160.5285
156.0291,160.5054
155.9247,160.4853
155.7906,160.4779
Z" /> 
<path style="fill:#000000; fill-opacity:1.0000; stroke:none;fill-rule:evenodd;"
d="M 156.5138,161.6225
156.5138,160.4951
156.7547,160.4951
156.8253,160.6673
156.8902,160.5953
156.9626,160.5348
157.0163,160.5044
157.0766,160.4859
157.1454,160.4794
157.1912,160.4818
157.2372,160.4905
157.2372,160.8096
157.1704,160.8028
157.1054,160.8001
157.0460,160.8036
156.9949,160.8136
156.9473,160.8303
156.9040,160.8532
156.8641,160.8826
156.8253,160.9205
156.8253,161.6225
Z" /> 
<path style="fill:#000000; fill-opacity:1.0000; stroke:none;fill-rule:evenodd;"
d="M 157.7514,160.4991
157.6649,160.5130
157.5944,160.5342
157.5294,160.5666
157.4783,160.6071
157.4390,160.6560
157.4114,160.7126
157.3938,160.7806
157.3875,160.8627
157.3918,160.9259
157.4046,160.9869
157.4272,161.0447
157.4613,161.0987
157.5066,161.1454
157.5675,161.1857
157.5116,161.2039
157.4667,161.2297
157.4309,161.2630
157.4041,161.3036
157.3877,161.3504
157.3820,161.4052
157.3920,161.4701
157.4215,161.5275
157.4733,161.5798
157.4981,161.5938
157.4354,161.6286
157.3763,161.6843
157.3475,161.7291
157.3300,161.7800
157.3240,161.8385
157.3240,161.8724
157.3296,161.9289
157.3458,161.9777
157.3724,162.0204
157.4286,162.0729
157.5047,162.1123
157.5918,162.1354
157.6935,162.1436
158.0321,162.1436
158.1436,162.1364
158.2321,162.1169
158.3019,162.0871
158.3566,162.0481
158.4018,161.9971
158.4344,161.9375
158.4547,161.8677
158.4618,161.7853
158.4618,161.7697
158.1668,161.7697
158.1668,161.8022
158.1613,161.8408
158.1459,161.8709
158.1202,161.8946
158.0684,161.9170
157.9952,161.9254
157.7811,161.9254
157.7083,161.9166
157.6606,161.8939
157.6378,161.8701
157.6239,161.8401
157.6189,161.8017
157.6189,161.7771
157.6242,161.7379
157.6390,161.7073
157.6626,161.6830
157.6949,161.6648
157.7324,161.6542
157.7772,161.6504
158.0037,161.6504
158.0582,161.6544
158.0966,161.6647
158.1283,161.6826
158.1495,161.7053
158.1622,161.7337
158.1668,161.7697
158.4618,161.7697
158.4618,161.7557
158.4558,161.6752
158.4391,161.6105
158.4133,161.5587
158.3766,161.5139
158.3307,161.4780
158.2739,161.4505
158.1776,161.4259
158.0543,161.4169
157.7418,161.4169
157.7061,161.4134
157.6746,161.4034
157.6521,161.3845
157.6443,161.3530
157.6534,161.3160
157.6799,161.2928
157.7186,161.2802
157.7712,161.2756
157.9712,161.2756
158.0695,161.2697
158.1473,161.2539
158.2083,161.2300
158.2634,161.1951
158.3060,161.1541
158.3377,161.1068
158.3678,161.0252
158.3782,160.9313
158.3758,160.8883
158.0975,160.8883
158.0939,160.9325
158.0840,160.9689
158.0653,160.9994
158.0354,161.0228
157.9961,161.0366
157.9364,161.0420
157.8169,161.0420
157.7687,161.0372
157.7325,161.0241
157.7054,161.0039
157.6860,160.9760
157.6731,160.9369
157.6683,160.8827
157.6735,160.8269
157.6873,160.7883
157.7078,160.7623
157.7542,160.7372
157.8265,160.7276
157.9437,160.7276
157.9916,160.7317
158.0283,160.7429
158.0582,160.7632
158.0801,160.7939
158.0926,160.8329
158.0975,160.8883
158.3758,160.8883
158.3747,160.8668
158.3654,160.8195
158.3504,160.7775
158.3335,160.7459
158.2947,160.6968
158.4674,160.6657
158.4674,160.4940
157.8568,160.4940
Z" /> 
<path style="fill:#000000; fill-opacity:1.0000; stroke:none;fill-rule:evenodd;"
d="M 158.5373,161.7737
159.1274,160.0055
159.4437,160.0055
158.8535,161.7737
Z" /> 
<path style="fill:#000000; fill-opacity:1.0000; stroke:none;fill-rule:evenodd;"
d="M 160.0710,160.4824
160.0131,160.4957
159.9584,160.5162
159.9088,160.5418
159.8207,160.6025
159.7701,160.4951
159.5092,160.4951
159.5092,162.1202
159.8207,162.1202
159.8207,161.5642
159.8912,161.5951
159.9710,161.6188
160.0535,161.6334
160.1334,161.6382
160.2335,161.6296
160.3120,161.6059
160.3736,161.5693
160.4246,161.5183
160.4657,161.4531
160.4970,161.3708
160.5236,161.2343
160.5335,161.0597
160.2221,161.0597
160.2144,161.1812
160.1954,161.2584
160.1627,161.3196
160.1252,161.3548
160.0801,161.3749
160.0320,161.3816
159.9755,161.3778
159.9188,161.3664
159.8650,161.3483
159.8207,161.3264
159.8207,160.7912
159.9133,160.7488
159.9699,160.7336
160.0336,160.7284
160.0857,160.7359
160.1307,160.7582
160.1667,160.7960
160.1975,160.8608
160.2151,160.9406
160.2221,161.0597
160.5335,161.0597
160.5275,160.9282
160.5105,160.8168
160.4801,160.7146
160.4387,160.6333
160.3827,160.5663
160.3137,160.5178
160.2327,160.4884
160.1334,160.4779
Z" /> 
<path style="fill:#000000; fill-opacity:1.0000; stroke:none;fill-rule:evenodd;"
d="M 160.7372,161.6225
160.7372,160.4951
160.9782,160.4951
161.0487,160.6673
161.1136,160.5953
161.1861,160.5348
161.2397,160.5044
161.3001,160.4859
161.3688,160.4794
161.4146,160.4818
161.4607,160.4905
161.4607,160.8096
161.3938,160.8028
161.3289,160.8001
161.2694,160.8036
161.2183,160.8136
161.1708,160.8303
161.1275,160.8532
161.0876,160.8826
161.0487,160.9205
161.0487,161.6225
Z" /> 
<path style="fill:#000000; fill-opacity:1.0000; stroke:none;fill-rule:evenodd;"
d="M 161.9769,160.4849
161.8729,160.5038
161.8097,160.5260
161.7565,160.5561
161.7119,160.5941
161.6756,160.6402
161.6451,160.6984
161.6209,160.7710
161.6000,160.8909
161.5919,161.0562
161.5996,161.2133
161.6201,161.3311
161.6437,161.4028
161.6740,161.4615
161.7104,161.5089
161.7550,161.5486
161.8082,161.5805
161.8714,161.6046
161.9757,161.6258
162.1096,161.6336
162.2465,161.6261
162.3512,161.6062
162.4146,161.5830
162.4676,161.5521
162.5117,161.5135
162.5476,161.4670
162.5774,161.4087
162.6008,161.3365
162.6208,161.2174
162.6285,161.0562
162.6284,161.0546
162.3171,161.0546
162.3136,161.1600
162.3048,161.2320
162.2882,161.2934
162.2677,161.3315
162.2392,161.3587
162.2039,161.3745
162.1627,161.3819
162.1096,161.3846
162.0567,161.3819
162.0157,161.3745
161.9806,161.3587
161.9522,161.3315
161.9318,161.2934
161.9153,161.2320
161.9068,161.1599
161.9034,161.0546
161.9068,160.9490
161.9153,160.8778
161.9318,160.8173
161.9522,160.7797
161.9805,160.7527
162.0157,160.7370
162.0567,160.7296
162.1096,160.7268
162.1627,160.7296
162.2039,160.7370
162.2393,160.7527
162.2677,160.7797
162.2882,160.8173
162.3048,160.8778
162.3136,160.9490
162.3171,161.0546
162.6284,161.0546
162.6204,160.8937
162.5993,160.7741
162.5749,160.7014
162.5446,160.6433
162.5087,160.5972
162.4646,160.5591
162.4116,160.5285
162.3481,160.5054
162.2437,160.4853
162.1096,160.4779
Z" /> 
<path style="fill:#000000; fill-opacity:1.0000; stroke:none;fill-rule:evenodd;"
d="M 162.8691,160.3291
162.8441,160.3241
162.8304,160.3108
162.8254,160.2871
162.8254,160.0817
162.8306,160.0559
162.8444,160.0417
162.8691,160.0365
163.1087,160.0365
163.1268,160.0399
163.1387,160.0492
163.1486,160.0817
163.1486,160.2871
163.1438,160.3112
163.1312,160.3243
163.1087,160.3291
Z" /> 
<path style="fill:#000000; fill-opacity:1.0000; stroke:none;fill-rule:evenodd;"
d="M 162.8328,162.1202
162.8328,160.4951
163.1443,160.4951
163.1443,161.6134
163.1393,161.7461
163.1242,161.8837
163.0993,162.0166
163.0691,162.1202
Z" /> 
<path style="fill:#000000; fill-opacity:1.0000; stroke:none;fill-rule:evenodd;"
d="M 163.7226,160.4844
163.6258,160.5021
163.5514,160.5284
163.4867,160.5696
163.4352,160.6274
163.3959,160.7047
163.3718,160.7902
163.3553,160.9061
163.3490,161.0597
163.3556,161.2092
163.3730,161.3232
163.3986,161.4084
163.4396,161.4849
163.4930,161.5424
163.5599,161.5836
163.6361,161.6097
163.7339,161.6272
163.8580,161.6336
163.9874,161.6293
164.0897,161.6176
164.2701,161.5841
164.2701,161.4016
163.9405,161.4016
163.8326,161.3951
163.7660,161.3794
163.7152,161.3493
163.6843,161.3059
163.6673,161.2498
163.6575,161.1691
163.9425,161.1691
164.0496,161.1617
164.1355,161.1412
164.1866,161.1178
164.2283,161.0865
164.2618,161.0470
164.2855,161.0008
164.3009,160.9419
164.3064,160.8687
164.0319,160.8687
164.0235,160.9262
164.0025,160.9581
163.9678,160.9761
163.9103,160.9832
163.6544,160.9832
163.6597,160.8785
163.6729,160.8111
163.6984,160.7577
163.7337,160.7261
163.7805,160.7088
163.8470,160.7023
163.9102,160.7067
163.9543,160.7180
163.9895,160.7392
164.0133,160.7703
164.0268,160.8105
164.0319,160.8687
164.3064,160.8687
164.3065,160.8671
164.3006,160.7651
164.2848,160.6875
164.2614,160.6292
164.2256,160.5790
164.1778,160.5399
164.1157,160.5112
164.0065,160.4873
163.8470,160.4779
Z" /> 
<path style="fill:#000000; fill-opacity:1.0000; stroke:none;fill-rule:evenodd;"
d="M 164.9489,161.6351
164.8489,161.6281
164.7594,161.6079
164.6783,161.5714
164.6090,161.5167
164.5714,161.4710
164.5385,161.4134
164.5108,161.3419
164.4855,161.2236
164.4760,161.0639
164.4848,160.8988
164.5082,160.7776
164.5344,160.7039
164.5657,160.6450
164.6018,160.5984
164.6457,160.5592
164.6959,160.5284
164.7534,160.5057
164.8472,160.4856
164.9581,160.4784
165.0586,160.4814
165.1538,160.4901
165.2487,160.5054
165.3508,160.5295
165.3508,160.7090
165.0549,160.7090
164.9634,160.7169
164.8991,160.7376
164.8646,160.7611
164.8363,160.7953
164.8139,160.8424
164.7951,160.9270
164.7875,161.0615
164.7952,161.1946
164.8140,161.2767
164.8364,161.3216
164.8648,161.3536
164.8996,161.3749
164.9641,161.3930
165.0579,161.4000
165.3661,161.4000
165.3661,161.5764
165.2452,161.6063
165.0988,161.6276
Z" /> 
<path style="fill:#000000; fill-opacity:1.0000; stroke:none;fill-rule:evenodd;"
d="M 165.9680,161.6225
165.8816,161.6177
165.8122,161.6046
165.7569,161.5848
165.7081,161.5542
165.6696,161.5128
165.6403,161.4590
165.6220,161.3991
165.6105,161.3213
165.6077,161.2216
165.6181,160.7440
165.4421,160.7440
165.4421,160.5446
165.6293,160.4951
165.6706,160.1791
165.9161,160.1791
165.9161,160.4951
166.1822,160.4951
166.1822,160.7440
165.9161,160.7440
165.9161,161.2200
165.9248,161.2950
165.9357,161.3223
165.9495,161.3421
165.9860,161.3680
166.0290,161.3782
166.1710,161.3923
166.1710,161.6225
Z" /> 
<path style="fill:#000000; fill-opacity:1.0000; stroke:none;fill-rule:evenodd;"
d="M 166.7648,161.6351
166.6507,161.6317
166.5286,161.6225
166.4159,161.6067
166.3287,161.5841
166.3287,161.4016
166.8278,161.4016
166.9000,161.3941
166.9255,161.3831
166.9424,161.3667
166.9524,161.3441
166.9562,161.3104
166.9562,161.2741
166.9491,161.2362
166.9288,161.2089
166.8946,161.1925
166.8284,161.1854
166.6517,161.1854
166.5581,161.1779
166.4773,161.1565
166.4289,161.1327
166.3882,161.1009
166.3545,161.0604
166.3305,161.0134
166.3149,160.9541
166.3092,160.8791
166.3092,160.8137
166.3143,160.7431
166.3284,160.6836
166.3506,160.6333
166.3832,160.5900
166.4291,160.5531
166.4912,160.5225
166.5587,160.5029
166.6474,160.4896
166.7622,160.4847
166.9110,160.4919
167.0598,160.5107
167.1710,160.5361
167.1710,160.7187
166.6992,160.7187
166.6423,160.7244
166.6062,160.7389
166.5833,160.7658
166.5746,160.8137
166.5746,160.8485
166.5787,160.8816
166.5895,160.9032
166.6077,160.9185
166.6356,160.9287
166.7117,160.9354
166.8929,160.9354
166.9804,160.9413
167.0490,160.9575
167.1023,160.9821
167.1435,161.0143
167.1857,161.0714
167.2122,161.1428
167.2217,161.2327
167.2217,161.3335
167.2151,161.4074
167.1969,161.4662
167.1685,161.5131
167.1291,161.5518
167.0783,161.5832
167.0137,161.6072
166.9062,161.6275
Z" /> 
<path style="fill:#000000; fill-opacity:1.0000; stroke:none;fill-rule:evenodd;"
d="M 167.2861,161.7737
167.8762,160.0055
168.1924,160.0055
167.6023,161.7737
Z" /> 
<path style="fill:#000000; fill-opacity:1.0000; stroke:none;fill-rule:evenodd;"
d="M 168.2579,161.6225
168.2579,160.4951
168.4989,160.4951
168.5694,160.6673
168.6343,160.5953
168.7068,160.5348
168.7605,160.5044
168.8208,160.4859
168.8895,160.4794
168.9353,160.4818
168.9814,160.4905
168.9814,160.8096
168.9145,160.8028
168.8496,160.8001
168.7901,160.8036
168.7391,160.8136
168.6915,160.8303
168.6482,160.8532
168.6083,160.8826
168.5694,160.9205
168.5694,161.6225
Z" /> 
<path style="fill:#000000; fill-opacity:1.0000; stroke:none;fill-rule:evenodd;"
d="M 169.5856,161.6351
169.4856,161.6281
169.3961,161.6079
169.3150,161.5714
169.2457,161.5167
169.2081,161.4710
169.1752,161.4134
169.1475,161.3419
169.1222,161.2236
169.1127,161.0639
169.1216,160.8988
169.1449,160.7776
169.1711,160.7039
169.2024,160.6450
169.2385,160.5984
169.2824,160.5592
169.3326,160.5284
169.3901,160.5057
169.4839,160.4856
169.5948,160.4784
169.6953,160.4814
169.7905,160.4901
169.8855,160.5054
169.9875,160.5295
169.9875,160.7090
169.6916,160.7090
169.6001,160.7169
169.5358,160.7376
169.5013,160.7611
169.4730,160.7953
169.4506,160.8424
169.4318,160.9270
169.4242,161.0615
169.4319,161.1946
169.4507,161.2767
169.4731,161.3216
169.5015,161.3536
169.5363,161.3749
169.6008,161.3930
169.6946,161.4000
170.0028,161.4000
170.0028,161.5764
169.8819,161.6063
169.7355,161.6276
Z" /> 
<path style="fill:#000000; fill-opacity:1.0000; stroke:none;fill-rule:evenodd;"
d="M 170.1747,161.6225
170.4357,161.6225
170.4863,161.5151
170.5759,161.5744
170.6252,161.5988
170.6816,161.6185
170.7424,161.6308
170.8143,161.6351
170.9006,161.6276
170.9721,161.6066
171.0317,161.5731
171.0819,161.5266
171.1241,161.4651
171.1580,161.3854
171.1797,161.3005
171.1939,161.1965
171.1991,161.0702
171.1985,161.0548
170.8877,161.0548
170.8806,161.1741
170.8629,161.2525
170.8320,161.3157
170.7957,161.3527
170.7506,161.3742
170.6976,161.3816
170.6315,161.3770
170.5774,161.3643
170.4863,161.3264
170.4863,160.7912
170.5815,160.7479
170.6371,160.7334
170.6976,160.7284
170.7464,160.7338
170.7913,160.7499
170.8286,160.7808
170.8612,160.8403
170.8798,160.9190
170.8877,161.0548
171.1985,161.0548
171.1939,160.9285
171.1800,160.8163
171.1593,160.7287
171.1257,160.6465
171.0831,160.5843
171.0317,160.5383
170.9704,160.5061
170.8941,160.4854
170.7990,160.4779
170.7221,160.4850
170.6376,160.5076
170.5555,160.5396
170.4863,160.5733
170.4863,160.0202
170.1747,160.0202
Z" /> 
<path style="fill:#000000; fill-opacity:1.0000; stroke:none;fill-rule:evenodd;"
d="M 171.7227,161.6351
171.6474,161.6290
171.5841,161.6115
171.5305,161.5838
171.4851,161.5457
171.4393,161.4810
171.4103,161.3986
171.3998,161.2932
171.3998,160.4951
171.7112,160.4951
171.7112,161.1995
171.7172,161.2612
171.7327,161.3017
171.7554,161.3273
171.8050,161.3512
171.8750,161.3601
171.9331,161.3547
171.9953,161.3378
172.0547,161.3115
172.1057,161.2787
172.1057,160.4951
172.4171,160.4951
172.4171,161.6225
172.1604,161.6225
172.1057,161.5076
172.0254,161.5537
171.9307,161.5962
171.8300,161.6253
Z" /> 
<path style="fill:#000000; fill-opacity:1.0000; stroke:none;fill-rule:evenodd;"
d="M 173.0619,161.6351
172.9478,161.6317
172.8257,161.6225
172.7130,161.6067
172.6258,161.5841
172.6258,161.4016
173.1249,161.4016
173.1971,161.3941
173.2226,161.3831
173.2395,161.3667
173.2495,161.3441
173.2533,161.3104
173.2533,161.2741
173.2462,161.2362
173.2258,161.2089
173.1917,161.1925
173.1254,161.1854
172.9488,161.1854
172.8551,161.1779
172.7744,161.1565
172.7259,161.1327
172.6853,161.1009
172.6516,161.0604
172.6276,161.0134
172.6120,160.9541
172.6063,160.8791
172.6063,160.8137
172.6113,160.7431
172.6254,160.6836
172.6477,160.6333
172.6803,160.5900
172.7262,160.5531
172.7883,160.5225
172.8557,160.5029
172.9445,160.4896
173.0593,160.4847
173.2081,160.4919
173.3569,160.5107
173.4681,160.5361
173.4681,160.7187
172.9963,160.7187
172.9394,160.7244
172.9032,160.7389
172.8804,160.7658
172.8716,160.8137
172.8716,160.8485
172.8758,160.8816
172.8866,160.9032
172.9048,160.9185
172.9326,160.9287
173.0088,160.9354
173.1899,160.9354
173.2775,160.9413
173.3460,160.9575
173.3994,160.9821
173.4405,161.0143
173.4828,161.0714
173.5092,161.1428
173.5187,161.2327
173.5187,161.3335
173.5122,161.4074
173.4940,161.4662
173.4655,161.5131
173.4262,161.5518
173.3754,161.5832
173.3107,161.6072
173.2032,161.6275
Z" /> 
<path style="fill:#000000; fill-opacity:1.0000; stroke:none;fill-rule:evenodd;"
d="M 173.6380,161.1385
173.6380,160.8885
174.2804,160.8885
174.2804,161.1385
Z" /> 
<path style="fill:#000000; fill-opacity:1.0000; stroke:none;fill-rule:evenodd;"
d="M 174.7967,160.4849
174.6928,160.5038
174.6295,160.5260
174.5763,160.5561
174.5317,160.5941
174.4954,160.6402
174.4649,160.6984
174.4407,160.7710
174.4198,160.8909
174.4118,161.0562
174.4195,161.2133
174.4399,161.3311
174.4635,161.4028
174.4938,161.4615
174.5302,161.5089
174.5748,161.5486
174.6281,161.5805
174.6912,161.6046
174.7955,161.6258
174.9294,161.6336
175.0663,161.6261
175.1710,161.6062
175.2344,161.5830
175.2874,161.5521
175.3315,161.5135
175.3674,161.4670
175.3973,161.4087
175.4206,161.3365
175.4407,161.2174
175.4483,161.0562
175.4482,161.0546
175.1369,161.0546
175.1334,161.1600
175.1246,161.2320
175.1080,161.2934
175.0875,161.3315
175.0591,161.3587
175.0237,161.3745
174.9826,161.3819
174.9294,161.3846
174.8765,161.3819
174.8355,161.3745
174.8004,161.3587
174.7720,161.3315
174.7516,161.2934
174.7352,161.2320
174.7266,161.1599
174.7233,161.0546
174.7266,160.9490
174.7352,160.8778
174.7516,160.8173
174.7720,160.7797
174.8004,160.7527
174.8355,160.7370
174.8765,160.7296
174.9294,160.7268
174.9826,160.7296
175.0237,160.7370
175.0591,160.7527
175.0875,160.7797
175.1080,160.8173
175.1246,160.8778
175.1334,160.9490
175.1369,161.0546
175.4482,161.0546
175.4402,160.8937
175.4191,160.7741
175.3947,160.7014
175.3644,160.6433
175.3285,160.5972
175.2844,160.5591
175.2314,160.5285
175.1679,160.5054
175.0635,160.4853
174.9294,160.4779
Z" /> 
<path style="fill:#000000; fill-opacity:1.0000; stroke:none;fill-rule:evenodd;"
d="M 176.2144,160.4824
176.1566,160.4957
176.1018,160.5162
176.0522,160.5418
175.9641,160.6025
175.9136,160.4951
175.6526,160.4951
175.6526,162.1202
175.9641,162.1202
175.9641,161.5642
176.0347,161.5951
176.1145,161.6188
176.1970,161.6334
176.2769,161.6382
176.3770,161.6296
176.4555,161.6059
176.5171,161.5693
176.5680,161.5183
176.6092,161.4531
176.6404,161.3708
176.6671,161.2343
176.6770,161.0597
176.3656,161.0597
176.3579,161.1812
176.3388,161.2584
176.3062,161.3196
176.2687,161.3548
176.2235,161.3749
176.1755,161.3816
176.1190,161.3778
176.0623,161.3664
176.0085,161.3483
175.9641,161.3264
175.9641,160.7912
176.0567,160.7488
176.1133,160.7336
176.1771,160.7284
176.2292,160.7359
176.2742,160.7582
176.3102,160.7960
176.3409,160.8608
176.3586,160.9406
176.3656,161.0597
176.6770,161.0597
176.6709,160.9282
176.6540,160.8168
176.6236,160.7146
176.5822,160.6333
176.5262,160.5663
176.4572,160.5178
176.3762,160.4884
176.2769,160.4779
Z" /> 
<path style="fill:#000000; fill-opacity:1.0000; stroke:none;fill-rule:evenodd;"
d="M 177.2345,161.6271
177.1557,161.6223
177.0905,161.6089
177.0367,161.5882
176.9887,161.5576
176.9498,161.5179
176.9193,161.4681
176.8989,161.4125
176.8855,161.3435
176.8807,161.2583
176.8807,160.0202
177.1922,160.0202
177.1922,161.2124
177.1959,161.2725
177.2053,161.3128
177.2222,161.3455
177.2445,161.3667
177.2728,161.3806
177.3091,161.3899
177.3958,161.4016
177.3958,161.6271
Z" /> 
<path style="fill:#000000; fill-opacity:1.0000; stroke:none;fill-rule:evenodd;"
d="M 178.0924,161.6351
177.9269,161.6322
177.7729,161.6235
177.6244,161.6089
177.4976,161.5903
177.4976,161.3417
177.9746,161.3417
178.0562,161.3382
178.1152,161.3290
178.1650,161.3107
178.1969,161.2848
178.2161,161.2486
178.2233,161.1953
178.2233,161.1306
178.2160,161.0789
178.1959,161.0417
178.1645,161.0136
178.1227,160.9935
178.0751,160.9818
178.0192,160.9762
177.6365,160.9600
177.6365,160.7218
178.0055,160.7015
178.0949,160.6887
178.1531,160.6665
178.1813,160.6429
178.1985,160.6103
178.2048,160.5656
178.2048,160.5129
178.1981,160.4608
178.1795,160.4211
178.1492,160.3907
178.1098,160.3705
178.0504,160.3563
177.9639,160.3508
177.5311,160.3508
177.5311,160.1022
177.7922,160.0682
177.9351,160.0574
178.0887,160.0558
178.1786,160.0620
178.2549,160.0775
178.3196,160.1013
178.3785,160.1356
178.4261,160.1783
178.4637,160.2300
178.4904,160.2886
178.5072,160.3576
178.5132,160.4391
178.5132,160.5549
178.5094,160.6134
178.4986,160.6627
178.4808,160.7076
178.4575,160.7454
178.4285,160.7780
178.3952,160.8044
178.3583,160.8253
178.3182,160.8409
178.3608,160.8568
178.4014,160.8814
178.4379,160.9130
178.4704,160.9516
178.4970,160.9959
178.5182,161.0493
178.5313,161.1073
178.5359,161.1736
178.5359,161.2537
178.5278,161.3453
178.5050,161.4213
178.4687,161.4846
178.4185,161.5374
178.3578,161.5782
178.2849,161.6087
178.1974,161.6282
Z" /> 
<path style="fill:#000000; fill-opacity:1.0000; stroke:none;fill-rule:evenodd;"
d="M 178.6653,161.7737
179.2555,160.0055
179.5717,160.0055
178.9816,161.7737
Z" /> 
<path style="fill:#000000; fill-opacity:1.0000; stroke:none;fill-rule:evenodd;"
d="M 208.6590,158.8751
208.5283,158.8668
208.4197,158.8436
208.3538,158.8168
208.2953,158.7787
208.2434,158.7284
208.2017,158.6690
208.1649,158.5903
208.1341,158.4881
208.1148,158.3827
208.1018,158.2486
208.0970,158.0805
208.1019,157.9196
208.1154,157.7897
208.1356,157.6860
208.1673,157.5854
208.2050,157.5068
208.2478,157.4464
208.3006,157.3950
208.3598,157.3557
208.4263,157.3277
208.5354,157.3030
208.6635,157.2943
208.7666,157.2972
208.8599,157.3057
209.0249,157.3332
209.1488,157.3670
209.1488,157.6079
209.0465,157.5922
208.9007,157.5791
208.7284,157.5739
208.6442,157.5791
208.5791,157.5931
208.5238,157.6209
208.4803,157.6660
208.4496,157.7269
208.4257,157.8203
208.4133,157.9286
208.4084,158.0835
208.4126,158.2326
208.4234,158.3404
208.4450,158.4344
208.4739,158.4965
208.5161,158.5433
208.5716,158.5736
208.6382,158.5895
208.7287,158.5955
208.9880,158.5891
209.1488,158.5737
209.1488,158.8147
209.0189,158.8467
208.8571,158.8675
Z" /> 
<path style="fill:#000000; fill-opacity:1.0000; stroke:none;fill-rule:evenodd;"
d="M 209.8680,158.8751
209.7373,158.8668
209.6287,158.8436
209.5628,158.8168
209.5043,158.7787
209.4524,158.7284
209.4107,158.6690
209.3739,158.5903
209.3431,158.4881
209.3238,158.3827
209.3108,158.2486
209.3060,158.0805
209.3109,157.9196
209.3244,157.7897
209.3446,157.6860
209.3763,157.5854
209.4140,157.5068
209.4568,157.4464
209.5096,157.3950
209.5688,157.3557
209.6353,157.3277
209.7444,157.3030
209.8725,157.2943
209.9756,157.2972
210.0689,157.3057
210.2339,157.3332
210.3578,157.3670
210.3578,157.6079
210.2555,157.5922
210.1097,157.5791
209.9374,157.5739
209.8532,157.5791
209.7881,157.5931
209.7328,157.6209
209.6893,157.6660
209.6587,157.7269
209.6347,157.8203
209.6223,157.9286
209.6174,158.0835
209.6216,158.2326
209.6324,158.3404
209.6540,158.4344
209.6829,158.4965
209.7251,158.5433
209.7806,158.5736
209.8472,158.5895
209.9377,158.5955
210.1970,158.5891
210.3578,158.5737
210.3578,158.8147
210.2279,158.8467
210.0661,158.8675
Z" /> 
<path style="fill:#000000; fill-opacity:1.0000; stroke:none;fill-rule:evenodd;"
d="M 211.1157,158.8625
211.7544,158.8625
211.8542,158.8574
211.9384,158.8432
212.0092,158.8212
212.0738,158.7874
212.1260,158.7426
212.1674,158.6859
212.1957,158.6210
212.2143,158.5384
212.2212,158.4341
212.2172,158.3793
211.9250,158.3793
211.9189,158.4486
211.9029,158.4974
211.8759,158.5363
211.8409,158.5624
211.7984,158.5775
211.7452,158.5829
211.4271,158.5829
211.4271,158.1879
211.7452,158.1879
211.7962,158.1939
211.8389,158.2110
211.8746,158.2387
211.9021,158.2766
211.9190,158.3222
211.9250,158.3793
212.2172,158.3793
212.2152,158.3507
212.1986,158.2820
212.1717,158.2201
212.1379,158.1698
212.0968,158.1276
212.0519,158.0958
212.0033,158.0718
211.9546,158.0553
212.0172,158.0312
212.0697,157.9933
212.1118,157.9429
212.1441,157.8785
212.1636,157.8054
212.1664,157.7700
211.8745,157.7700
211.8633,157.8442
211.8346,157.8998
211.8057,157.9275
211.7709,157.9440
211.7283,157.9498
211.4271,157.9498
211.4271,157.5880
211.7244,157.5880
211.7831,157.5980
211.8317,157.6276
211.8544,157.6573
211.8694,157.7027
211.8745,157.7700
212.1664,157.7700
212.1706,157.7163
212.1631,157.6189
212.1422,157.5380
212.1091,157.4707
212.0643,157.4146
212.0085,157.3712
211.9365,157.3381
211.8444,157.3164
211.7274,157.3084
211.1157,157.3084
Z" /> 
<path style="fill:#000000; fill-opacity:1.0000; stroke:none;fill-rule:evenodd;"
d="M 212.8007,158.8625
212.8007,158.3917
212.3334,157.3084
212.6567,157.3084
212.9625,158.0747
213.2684,157.3084
213.5794,157.3084
213.1122,158.3917
213.1122,158.8625
Z" /> 
<path style="fill:#000000; fill-opacity:1.0000; stroke:none;fill-rule:evenodd;"
d="M 213.5773,158.3785
213.5773,158.1285
214.2198,158.1285
214.2198,158.3785
Z" /> 
<path style="fill:#000000; fill-opacity:1.0000; stroke:none;fill-rule:evenodd;"
d="M 214.8687,158.8751
214.7434,158.8715
214.6129,158.8606
214.4883,158.8445
214.3803,158.8232
214.3803,158.5777
214.5239,158.5874
214.6900,158.5934
214.8533,158.5955
214.9300,158.5919
214.9908,158.5820
215.0437,158.5624
215.0807,158.5342
215.1040,158.4949
215.1126,158.4382
215.1126,158.3814
215.1075,158.3366
215.0935,158.3020
215.0710,158.2751
215.0234,158.2486
214.9548,158.2388
214.8215,158.2388
214.7088,158.2316
214.6165,158.2119
214.5413,158.1813
214.4801,158.1409
214.4314,158.0882
214.3946,158.0184
214.3704,157.9273
214.3615,157.8092
214.3615,157.7325
214.3708,157.6201
214.3967,157.5302
214.4370,157.4583
214.4916,157.4013
214.5586,157.3577
214.6408,157.3248
214.7412,157.3035
214.8636,157.2958
215.0356,157.3042
215.1991,157.3244
215.3338,157.3494
215.3338,157.5949
215.1198,157.5812
214.9004,157.5755
214.8298,157.5791
214.7722,157.5892
214.7224,157.6094
214.6872,157.6403
214.6658,157.6831
214.6576,157.7479
214.6576,157.7892
214.6635,157.8420
214.6795,157.8801
214.7045,157.9072
214.7376,157.9258
214.7819,157.9381
214.8404,157.9426
214.9947,157.9426
215.0867,157.9490
215.1628,157.9668
215.2258,157.9947
215.2822,158.0340
215.3276,158.0810
215.3630,158.1365
215.3880,158.1980
215.4034,158.2658
215.4087,158.3414
215.4087,158.4305
215.3999,158.5504
215.3762,158.6411
215.3405,158.7090
215.2895,158.7662
215.2271,158.8097
215.1512,158.8403
215.0247,158.8659
Z" /> 
<path style="fill:#000000; fill-opacity:1.0000; stroke:none;fill-rule:evenodd;"
d="M 215.5372,158.8625
215.8574,158.8625
215.9545,158.5374
216.4837,158.5374
216.5828,158.8625
216.9061,158.8625
216.7158,158.2577
216.4095,158.2577
216.0275,158.2577
216.2187,157.5754
216.4095,158.2577
216.7158,158.2577
216.4171,157.3084
216.0262,157.3084
Z" /> 
<path style="fill:#000000; fill-opacity:1.0000; stroke:none;fill-rule:evenodd;"
d="M 208.1211,161.3825
208.1211,159.7818
208.4326,159.7818
208.4326,160.3700
208.4990,160.3237
208.5909,160.2780
208.6905,160.2466
208.7910,160.2362
208.8753,160.2426
208.9421,160.2599
208.9950,160.2866
209.0407,160.3244
209.0771,160.3709
209.1047,160.4274
209.1295,160.5220
209.1384,160.6362
209.1384,161.3825
208.8270,161.3825
208.8270,160.6761
208.8214,160.6258
208.8061,160.5870
208.7814,160.5556
208.7494,160.5335
208.7116,160.5205
208.6666,160.5159
208.5808,160.5270
208.5030,160.5568
208.4326,160.5990
208.4326,161.3825
Z" /> 
<path style="fill:#000000; fill-opacity:1.0000; stroke:none;fill-rule:evenodd;"
d="M 209.7996,161.3825
209.7132,161.3777
209.6438,161.3646
209.5885,161.3448
209.5398,161.3142
209.5012,161.2728
209.4719,161.2190
209.4536,161.1591
209.4421,161.0813
209.4394,160.9816
209.4497,160.5041
209.2737,160.5041
209.2737,160.3046
209.4609,160.2551
209.5022,159.9391
209.7477,159.9391
209.7477,160.2551
210.0138,160.2551
210.0138,160.5041
209.7477,160.5041
209.7477,160.9800
209.7564,161.0550
209.7674,161.0823
209.7811,161.1021
209.8176,161.1280
209.8606,161.1382
210.0026,161.1523
210.0026,161.3825
Z" /> 
<path style="fill:#000000; fill-opacity:1.0000; stroke:none;fill-rule:evenodd;"
d="M 210.6158,161.3825
210.5294,161.3777
210.4600,161.3646
210.4047,161.3448
210.3560,161.3142
210.3175,161.2728
210.2881,161.2190
210.2699,161.1591
210.2584,161.0813
210.2556,160.9816
210.2660,160.5041
210.0899,160.5041
210.0899,160.3046
210.2771,160.2551
210.3184,159.9391
210.5640,159.9391
210.5640,160.2551
210.8301,160.2551
210.8301,160.5041
210.5640,160.5041
210.5640,160.9800
210.5727,161.0550
210.5836,161.0823
210.5973,161.1021
210.6339,161.1280
210.6768,161.1382
210.8189,161.1523
210.8189,161.3825
Z" /> 
<path style="fill:#000000; fill-opacity:1.0000; stroke:none;fill-rule:evenodd;"
d="M 211.5640,160.2424
211.5061,160.2557
211.4514,160.2762
211.4018,160.3018
211.3137,160.3625
211.2631,160.2551
211.0022,160.2551
211.0022,161.8802
211.3137,161.8802
211.3137,161.3242
211.3842,161.3551
211.4641,161.3788
211.5465,161.3934
211.6265,161.3982
211.7265,161.3896
211.8050,161.3659
211.8666,161.3293
211.9176,161.2783
211.9588,161.2131
211.9900,161.1308
212.0167,160.9943
212.0265,160.8197
211.7151,160.8197
211.7074,160.9412
211.6884,161.0184
211.6557,161.0796
211.6182,161.1148
211.5731,161.1349
211.5251,161.1416
211.4686,161.1378
211.4119,161.1264
211.3580,161.1083
211.3137,161.0864
211.3137,160.5512
211.4063,160.5088
211.4629,160.4936
211.5266,160.4884
211.5788,160.4959
211.6237,160.5182
211.6597,160.5560
211.6905,160.6208
211.7081,160.7006
211.7151,160.8197
212.0265,160.8197
212.0205,160.6882
212.0035,160.5768
211.9732,160.4746
211.9317,160.3933
211.8757,160.3263
211.8067,160.2778
211.7258,160.2484
211.6265,160.2379
Z" /> 
<path style="fill:#000000; fill-opacity:1.0000; stroke:none;fill-rule:evenodd;"
d="M 212.6407,161.3951
212.5266,161.3918
212.4045,161.3825
212.2919,161.3667
212.2047,161.3441
212.2047,161.1616
212.7038,161.1616
212.7759,161.1541
212.8014,161.1431
212.8183,161.1267
212.8283,161.1041
212.8322,161.0704
212.8322,161.0341
212.8250,160.9962
212.8047,160.9689
212.7705,160.9525
212.7043,160.9454
212.5276,160.9454
212.4340,160.9379
212.3532,160.9165
212.3048,160.8927
212.2642,160.8609
212.2304,160.8204
212.2064,160.7734
212.1908,160.7141
212.1852,160.6391
212.1852,160.5737
212.1902,160.5031
212.2043,160.4436
212.2266,160.3933
212.2591,160.3500
212.3051,160.3131
212.3672,160.2825
212.4346,160.2629
212.5233,160.2496
212.6382,160.2447
212.7869,160.2519
212.9358,160.2707
213.0469,160.2961
213.0469,160.4787
212.5752,160.4787
212.5182,160.4844
212.4821,160.4989
212.4592,160.5258
212.4505,160.5737
212.4505,160.6085
212.4546,160.6416
212.4654,160.6632
212.4836,160.6785
212.5115,160.6887
212.5876,160.6954
212.7688,160.6954
212.8563,160.7013
212.9249,160.7175
212.9783,160.7421
213.0194,160.7743
213.0616,160.8314
213.0881,160.9028
213.0976,160.9927
213.0976,161.0935
213.0910,161.1674
213.0729,161.2262
213.0444,161.2731
213.0050,161.3118
212.9542,161.3432
212.8896,161.3672
212.7821,161.3875
Z" /> 
<path style="fill:#000000; fill-opacity:1.0000; stroke:none;fill-rule:evenodd;"
d="M 213.3271,161.3856
213.3022,161.3806
213.2886,161.3673
213.2835,161.3435
213.2835,161.1288
213.2887,161.1030
213.3025,161.0889
213.3271,161.0836
213.5068,161.0836
213.5325,161.0889
213.5468,161.1032
213.5521,161.1288
213.5521,161.3435
213.5485,161.3642
213.5393,161.3763
213.5068,161.3856
Z" /> 
<path style="fill:#000000; fill-opacity:1.0000; stroke:none;fill-rule:evenodd;"
d="M 213.3271,160.5532
213.3022,160.5482
213.2886,160.5349
213.2835,160.5111
213.2835,160.2964
213.2887,160.2706
213.3025,160.2565
213.3271,160.2513
213.5068,160.2513
213.5325,160.2566
213.5468,160.2708
213.5521,160.2964
213.5521,160.5111
213.5485,160.5318
213.5393,160.5439
213.5068,160.5532
Z" /> 
<path style="fill:#000000; fill-opacity:1.0000; stroke:none;fill-rule:evenodd;"
d="M 213.6514,161.5337
214.2416,159.7655
214.5578,159.7655
213.9677,161.5337
Z" /> 
<path style="fill:#000000; fill-opacity:1.0000; stroke:none;fill-rule:evenodd;"
d="M 214.3270,161.5337
214.9171,159.7655
215.2334,159.7655
214.6433,161.5337
Z" /> 
<path style="fill:#000000; fill-opacity:1.0000; stroke:none;fill-rule:evenodd;"
d="M 215.6755,161.3951
215.5755,161.3881
215.4860,161.3679
215.4049,161.3314
215.3356,161.2767
215.2980,161.2310
215.2651,161.1734
215.2373,161.1019
215.2121,160.9836
215.2025,160.8239
215.2114,160.6588
215.2348,160.5376
215.2609,160.4639
215.2923,160.4050
215.3284,160.3584
215.3722,160.3192
215.4225,160.2884
215.4800,160.2657
215.5738,160.2456
215.6847,160.2384
215.7852,160.2414
215.8804,160.2501
215.9753,160.2654
216.0774,160.2895
216.0774,160.4690
215.7815,160.4690
215.6900,160.4769
215.6257,160.4976
215.5912,160.5211
215.5628,160.5553
215.5405,160.6024
215.5217,160.6870
215.5140,160.8215
215.5218,160.9546
215.5406,161.0367
215.5630,161.0816
215.5914,161.1136
215.6261,161.1349
215.6907,161.1530
215.7845,161.1600
216.0927,161.1600
216.0927,161.3364
215.9718,161.3663
215.8254,161.3876
Z" /> 
<path style="fill:#000000; fill-opacity:1.0000; stroke:none;fill-rule:evenodd;"
d="M 216.2646,161.3825
216.2646,160.2551
216.5056,160.2551
216.5761,160.4273
216.6410,160.3553
216.7135,160.2948
216.7672,160.2644
216.8275,160.2459
216.8962,160.2394
216.9420,160.2418
216.9881,160.2505
216.9881,160.5696
216.9212,160.5628
216.8563,160.5601
216.7968,160.5636
216.7458,160.5736
216.6982,160.5903
216.6549,160.6132
216.6150,160.6426
216.5761,160.6805
216.5761,161.3825
Z" /> 
<path style="fill:#000000; fill-opacity:1.0000; stroke:none;fill-rule:evenodd;"
d="M 217.4929,160.2444
217.3961,160.2621
217.3218,160.2884
217.2570,160.3296
217.2055,160.3874
217.1663,160.4647
217.1422,160.5502
217.1256,160.6661
217.1194,160.8197
217.1259,160.9692
217.1434,161.0832
217.1689,161.1684
217.2099,161.2449
217.2633,161.3024
217.3302,161.3436
217.4065,161.3697
217.5042,161.3872
217.6283,161.3936
217.7577,161.3893
217.8601,161.3776
218.0405,161.3441
218.0405,161.1616
217.7109,161.1616
217.6029,161.1551
217.5364,161.1394
217.4856,161.1093
217.4547,161.0659
217.4376,161.0098
217.4278,160.9291
217.7129,160.9291
217.8199,160.9217
217.9059,160.9012
217.9570,160.8778
217.9987,160.8465
218.0322,160.8070
218.0558,160.7608
218.0712,160.7019
218.0767,160.6287
217.8023,160.6287
217.7939,160.6862
217.7729,160.7181
217.7381,160.7361
217.6806,160.7432
217.4247,160.7432
217.4300,160.6385
217.4432,160.5711
217.4688,160.5177
217.5040,160.4861
217.5508,160.4688
217.6173,160.4623
217.6805,160.4667
217.7246,160.4780
217.7599,160.4992
217.7837,160.5303
217.7971,160.5705
217.8023,160.6287
218.0767,160.6287
218.0769,160.6271
218.0709,160.5251
218.0551,160.4475
218.0317,160.3892
217.9959,160.3390
217.9481,160.2999
217.8861,160.2712
217.7768,160.2473
217.6173,160.2379
Z" /> 
<path style="fill:#000000; fill-opacity:1.0000; stroke:none;fill-rule:evenodd;"
d="M 218.6119,160.2456
218.4984,160.2589
218.3940,160.2797
218.3085,160.3036
218.3085,160.4830
218.6455,160.4830
218.7439,160.4878
218.8025,160.4993
218.8476,160.5212
218.8728,160.5498
218.8862,160.5871
218.8912,160.6373
218.8912,160.7137
218.6035,160.7137
218.5060,160.7200
218.4290,160.7370
218.3686,160.7630
218.3216,160.7969
218.2714,160.8572
218.2415,160.9267
218.2312,161.0083
218.2312,161.1102
218.2408,161.1954
218.2679,161.2637
218.3117,161.3191
218.3694,161.3607
218.4378,161.3862
218.5197,161.3951
218.5886,161.3915
218.6531,161.3808
218.7145,161.3640
218.7680,161.3439
218.8551,161.3002
218.9066,161.2634
218.9571,161.3825
219.2027,161.3825
219.2027,161.1239
218.8912,161.1239
218.8709,161.1322
218.8308,161.1466
218.7791,161.1617
218.7245,161.1742
218.6763,161.1789
218.6092,161.1673
218.5818,161.1522
218.5606,161.1292
218.5474,161.0992
218.5426,161.0583
218.5426,161.0128
218.5527,160.9570
218.5812,160.9165
218.6273,160.8897
218.7030,160.8741
218.8912,160.8610
218.8912,161.1239
219.2027,161.1239
219.2027,160.6159
219.1960,160.5202
219.1779,160.4462
219.1506,160.3893
219.1110,160.3406
219.0610,160.3022
218.9989,160.2737
218.8936,160.2490
218.7587,160.2403
Z" /> 
<path style="fill:#000000; fill-opacity:1.0000; stroke:none;fill-rule:evenodd;"
d="M 219.8643,161.3825
219.7779,161.3777
219.7085,161.3646
219.6532,161.3448
219.6045,161.3142
219.5659,161.2728
219.5366,161.2190
219.5184,161.1591
219.5069,161.0813
219.5041,160.9816
219.5145,160.5041
219.3384,160.5041
219.3384,160.3046
219.5256,160.2551
219.5669,159.9391
219.8125,159.9391
219.8125,160.2551
220.0786,160.2551
220.0786,160.5041
219.8125,160.5041
219.8125,160.9800
219.8212,161.0550
219.8321,161.0823
219.8458,161.1021
219.8824,161.1280
219.9253,161.1382
220.0674,161.1523
220.0674,161.3825
Z" /> 
<path style="fill:#000000; fill-opacity:1.0000; stroke:none;fill-rule:evenodd;"
d="M 220.2884,160.0891
220.2635,160.0841
220.2498,160.0708
220.2448,160.0471
220.2448,159.8417
220.2500,159.8159
220.2638,159.8017
220.2884,159.7965
220.5281,159.7965
220.5462,159.7999
220.5581,159.8092
220.5680,159.8417
220.5680,160.0471
220.5633,160.0712
220.5506,160.0843
220.5281,160.0891
Z" /> 
<path style="fill:#000000; fill-opacity:1.0000; stroke:none;fill-rule:evenodd;"
d="M 220.2507,161.3825
220.2507,160.2551
220.5622,160.2551
220.5622,161.3825
Z" /> 
<path style="fill:#000000; fill-opacity:1.0000; stroke:none;fill-rule:evenodd;"
d="M 221.0852,161.3825
220.7072,160.2551
221.0278,160.2551
221.2705,161.0946
221.5218,160.2551
221.8393,160.2551
221.4437,161.3825
Z" /> 
<path style="fill:#000000; fill-opacity:1.0000; stroke:none;fill-rule:evenodd;"
d="M 222.2820,160.2444
222.1852,160.2621
222.1109,160.2884
222.0462,160.3296
221.9946,160.3874
221.9554,160.4647
221.9313,160.5502
221.9147,160.6661
221.9085,160.8197
221.9150,160.9692
221.9325,161.0832
221.9580,161.1684
221.9990,161.2449
222.0524,161.3024
222.1193,161.3436
222.1956,161.3697
222.2934,161.3872
222.4174,161.3936
222.5468,161.3893
222.6492,161.3776
222.8296,161.3441
222.8296,161.1616
222.5000,161.1616
222.3921,161.1551
222.3255,161.1394
222.2747,161.1093
222.2438,161.0659
222.2267,161.0098
222.2170,160.9291
222.5020,160.9291
222.6090,160.9217
222.6950,160.9012
222.7461,160.8778
222.7878,160.8465
222.8213,160.8070
222.8449,160.7608
222.8603,160.7019
222.8658,160.6287
222.5914,160.6287
222.5830,160.6862
222.5620,160.7181
222.5272,160.7361
222.4697,160.7432
222.2138,160.7432
222.2192,160.6385
222.2323,160.5711
222.2579,160.5177
222.2932,160.4861
222.3399,160.4688
222.4065,160.4623
222.4696,160.4667
222.5137,160.4780
222.5490,160.4992
222.5728,160.5303
222.5862,160.5705
222.5914,160.6287
222.8658,160.6287
222.8660,160.6271
222.8601,160.5251
222.8442,160.4475
222.8208,160.3892
222.7850,160.3390
222.7372,160.2999
222.6752,160.2712
222.5660,160.2473
222.4065,160.2379
Z" /> 
<path style="fill:#000000; fill-opacity:1.0000; stroke:none;fill-rule:evenodd;"
d="M 223.5084,161.3951
223.4083,161.3881
223.3189,161.3679
223.2377,161.3314
223.1685,161.2767
223.1309,161.2310
223.0980,161.1734
223.0702,161.1019
223.0450,160.9836
223.0354,160.8239
223.0443,160.6588
223.0676,160.5376
223.0938,160.4639
223.1252,160.4050
223.1613,160.3584
223.2051,160.3192
223.2553,160.2884
223.3128,160.2657
223.4067,160.2456
223.5175,160.2384
223.6181,160.2414
223.7133,160.2501
223.8082,160.2654
223.9103,160.2895
223.9103,160.4690
223.6144,160.4690
223.5228,160.4769
223.4586,160.4976
223.4240,160.5211
223.3957,160.5553
223.3734,160.6024
223.3546,160.6870
223.3469,160.8215
223.3546,160.9546
223.3735,161.0367
223.3958,161.0816
223.4242,161.1136
223.4590,161.1349
223.5235,161.1530
223.6174,161.1600
223.9256,161.1600
223.9256,161.3364
223.8047,161.3663
223.6582,161.3876
Z" /> 
<path style="fill:#000000; fill-opacity:1.0000; stroke:none;fill-rule:evenodd;"
d="M 224.4491,160.2449
224.3452,160.2638
224.2819,160.2860
224.2287,160.3161
224.1841,160.3541
224.1479,160.4002
224.1173,160.4584
224.0931,160.5310
224.0722,160.6509
224.0642,160.8162
224.0719,160.9733
224.0923,161.0911
224.1159,161.1628
224.1462,161.2215
224.1826,161.2689
224.2272,161.3086
224.2805,161.3405
224.3436,161.3646
224.4479,161.3858
224.5818,161.3936
224.7187,161.3861
224.8234,161.3662
224.8868,161.3430
224.9398,161.3121
224.9839,161.2735
225.0198,161.2270
225.0497,161.1687
225.0730,161.0965
225.0931,160.9774
225.1007,160.8162
225.1006,160.8146
224.7893,160.8146
224.7858,160.9200
224.7770,160.9920
224.7604,161.0534
224.7399,161.0915
224.7115,161.1187
224.6761,161.1345
224.6350,161.1419
224.5818,161.1446
224.5289,161.1419
224.4880,161.1345
224.4528,161.1187
224.4244,161.0915
224.4040,161.0534
224.3876,160.9920
224.3790,160.9199
224.3757,160.8146
224.3790,160.7090
224.3876,160.6378
224.4040,160.5773
224.4244,160.5397
224.4528,160.5127
224.4880,160.4970
224.5289,160.4896
224.5818,160.4868
224.6350,160.4896
224.6761,160.4970
224.7115,160.5127
224.7399,160.5397
224.7604,160.5773
224.7770,160.6378
224.7858,160.7090
224.7893,160.8146
225.1006,160.8146
225.0926,160.6537
225.0715,160.5341
225.0471,160.4614
225.0168,160.4033
224.9809,160.3572
224.9368,160.3191
224.8838,160.2885
224.8203,160.2654
224.7159,160.2453
224.5818,160.2379
Z" /> 
<path style="fill:#000000; fill-opacity:1.0000; stroke:none;fill-rule:evenodd;"
d="M 225.3050,161.3825
225.3050,160.2551
225.5618,160.2551
225.6165,160.3700
225.6935,160.3192
225.7778,160.2757
225.8374,160.2546
225.9085,160.2411
225.9933,160.2362
226.0625,160.2416
226.1205,160.2568
226.1694,160.2808
226.2319,160.3318
226.2768,160.3946
226.3877,160.3222
226.4537,160.2888
226.5255,160.2610
226.5995,160.2423
226.6710,160.2362
226.7605,160.2427
226.8306,160.2604
226.8853,160.2874
226.9323,160.3260
226.9690,160.3737
226.9960,160.4320
227.0197,160.5301
227.0282,160.6516
227.0282,161.3825
226.7168,161.3825
226.7168,160.6792
226.7114,160.6275
226.6968,160.5886
226.6728,160.5570
226.6413,160.5344
226.6034,160.5208
226.5558,160.5159
226.4933,160.5221
226.4284,160.5415
226.3666,160.5704
226.3134,160.6041
226.3200,160.6442
226.3223,160.6854
226.3223,161.3825
226.0109,161.3825
226.0109,160.6792
226.0055,160.6275
225.9909,160.5886
225.9669,160.5570
225.9356,160.5344
225.8980,160.5208
225.8506,160.5159
225.7645,160.5262
225.6872,160.5552
225.6165,160.5990
225.6165,161.3825
Z" /> 
<path style="fill:#000000; fill-opacity:1.0000; stroke:none;fill-rule:evenodd;"
d="M 227.2600,161.3825
227.2600,160.2551
227.5167,160.2551
227.5715,160.3700
227.6484,160.3192
227.7327,160.2757
227.7923,160.2546
227.8634,160.2411
227.9483,160.2362
228.0175,160.2416
228.0755,160.2568
228.1243,160.2808
228.1868,160.3318
228.2317,160.3946
228.3427,160.3222
228.4087,160.2888
228.4804,160.2610
228.5544,160.2423
228.6259,160.2362
228.7154,160.2427
228.7855,160.2604
228.8403,160.2874
228.8872,160.3260
228.9239,160.3737
228.9509,160.4320
228.9746,160.5301
228.9831,160.6516
228.9831,161.3825
228.6717,161.3825
228.6717,160.6792
228.6663,160.6275
228.6517,160.5886
228.6277,160.5570
228.5962,160.5344
228.5583,160.5208
228.5107,160.5159
228.4482,160.5221
228.3833,160.5415
228.3215,160.5704
228.2683,160.6041
228.2750,160.6442
228.2773,160.6854
228.2773,161.3825
227.9658,161.3825
227.9658,160.6792
227.9605,160.6275
227.9458,160.5886
227.9218,160.5570
227.8906,160.5344
227.8529,160.5208
227.8055,160.5159
227.7194,160.5262
227.6422,160.5552
227.5715,160.5990
227.5715,161.3825
Z" /> 
<path style="fill:#000000; fill-opacity:1.0000; stroke:none;fill-rule:evenodd;"
d="M 229.5665,160.2449
229.4625,160.2638
229.3993,160.2860
229.3461,160.3161
229.3015,160.3541
229.2652,160.4002
229.2347,160.4584
229.2105,160.5310
229.1896,160.6509
229.1815,160.8162
229.1892,160.9733
229.2097,161.0911
229.2333,161.1628
229.2636,161.2215
229.3000,161.2689
229.3446,161.3086
229.3978,161.3405
229.4610,161.3646
229.5653,161.3858
229.6992,161.3936
229.8361,161.3861
229.9408,161.3662
230.0042,161.3430
230.0572,161.3121
230.1013,161.2735
230.1372,161.2270
230.1670,161.1687
230.1904,161.0965
230.2104,160.9774
230.2181,160.8162
230.2180,160.8146
229.9067,160.8146
229.9032,160.9200
229.8944,160.9920
229.8778,161.0534
229.8573,161.0915
229.8288,161.1187
229.7935,161.1345
229.7523,161.1419
229.6992,161.1446
229.6463,161.1419
229.6053,161.1345
229.5702,161.1187
229.5418,161.0915
229.5214,161.0534
229.5049,160.9920
229.4964,160.9199
229.4930,160.8146
229.4964,160.7090
229.5049,160.6378
229.5214,160.5773
229.5418,160.5397
229.5701,160.5127
229.6053,160.4970
229.6463,160.4896
229.6992,160.4868
229.7523,160.4896
229.7935,160.4970
229.8289,160.5127
229.8573,160.5397
229.8778,160.5773
229.8944,160.6378
229.9032,160.7090
229.9067,160.8146
230.2180,160.8146
230.2100,160.6537
230.1889,160.5341
230.1645,160.4614
230.1342,160.4033
230.0983,160.3572
230.0542,160.3191
230.0012,160.2885
229.9377,160.2654
229.8333,160.2453
229.6992,160.2379
Z" /> 
<path style="fill:#000000; fill-opacity:1.0000; stroke:none;fill-rule:evenodd;"
d="M 230.4224,161.3825
230.4224,160.2551
230.6791,160.2551
230.7339,160.3700
230.8027,160.3224
230.8929,160.2773
230.9904,160.2464
231.0892,160.2362
231.1795,160.2432
231.2492,160.2619
231.3025,160.2905
231.3480,160.3307
231.3833,160.3790
231.4090,160.4365
231.4318,160.5315
231.4397,160.6393
231.4397,161.3825
231.1283,161.3825
231.1283,160.6792
231.1229,160.6275
231.1082,160.5886
231.0843,160.5570
231.0530,160.5344
231.0154,160.5208
230.9679,160.5159
230.8818,160.5262
230.8046,160.5552
230.7339,160.5990
230.7339,161.3825
Z" /> 
<path style="fill:#000000; fill-opacity:1.0000; stroke:none;fill-rule:evenodd;"
d="M 232.0815,161.3951
231.9674,161.3918
231.8453,161.3825
231.7326,161.3667
231.6454,161.3441
231.6454,161.1616
232.1445,161.1616
232.2167,161.1541
232.2422,161.1431
232.2591,161.1267
232.2691,161.1041
232.2729,161.0704
232.2729,161.0341
232.2658,160.9962
232.2454,160.9689
232.2113,160.9525
232.1451,160.9454
231.9684,160.9454
231.8747,160.9379
231.7940,160.9165
231.7455,160.8927
231.7049,160.8609
231.6712,160.8204
231.6472,160.7734
231.6316,160.7141
231.6259,160.6391
231.6259,160.5737
231.6309,160.5031
231.6450,160.4436
231.6673,160.3933
231.6999,160.3500
231.7458,160.3131
231.8079,160.2825
231.8753,160.2629
231.9641,160.2496
232.0789,160.2447
232.2277,160.2519
232.3765,160.2707
232.4877,160.2961
232.4877,160.4787
232.0159,160.4787
231.9590,160.4844
231.9229,160.4989
231.9000,160.5258
231.8913,160.5737
231.8913,160.6085
231.8954,160.6416
231.9062,160.6632
231.9244,160.6785
231.9523,160.6887
232.0284,160.6954
232.2095,160.6954
232.2971,160.7013
232.3657,160.7175
232.4190,160.7421
232.4601,160.7743
232.5024,160.8314
232.5289,160.9028
232.5383,160.9927
232.5383,161.0935
232.5318,161.1674
232.5136,161.2262
232.4851,161.2731
232.4458,161.3118
232.3950,161.3432
232.3303,161.3672
232.2228,161.3875
Z" /> 
<path style="fill:#000000; fill-opacity:1.0000; stroke:none;fill-rule:evenodd;"
d="M 232.7679,161.3856
232.7430,161.3806
232.7293,161.3673
232.7243,161.3435
232.7243,161.1288
232.7295,161.1030
232.7433,161.0889
232.7679,161.0836
232.9476,161.0836
232.9733,161.0889
232.9875,161.1032
232.9928,161.1288
232.9928,161.3435
232.9893,161.3642
232.9801,161.3763
232.9476,161.3856
Z" /> 
<path style="fill:#000000; fill-opacity:1.0000; stroke:none;fill-rule:evenodd;"
d="M 233.5731,160.2449
233.4691,160.2638
233.4059,160.2860
233.3527,160.3161
233.3081,160.3541
233.2718,160.4002
233.2413,160.4584
233.2170,160.5310
233.1961,160.6509
233.1881,160.8162
233.1958,160.9733
233.2162,161.0911
233.2399,161.1628
233.2701,161.2215
233.3065,161.2689
233.3512,161.3086
233.4044,161.3405
233.4675,161.3646
233.5718,161.3858
233.7058,161.3936
233.8426,161.3861
233.9474,161.3662
234.0107,161.3430
234.0637,161.3121
234.1079,161.2735
234.1437,161.2270
234.1736,161.1687
234.1970,161.0965
234.2170,160.9774
234.2246,160.8162
234.2246,160.8146
233.9132,160.8146
233.9098,160.9200
233.9009,160.9920
233.8843,161.0534
233.8639,161.0915
233.8354,161.1187
233.8000,161.1345
233.7589,161.1419
233.7058,161.1446
233.6528,161.1419
233.6119,161.1345
233.5767,161.1187
233.5483,161.0915
233.5279,161.0534
233.5115,160.9920
233.5030,160.9199
233.4996,160.8146
233.5030,160.7090
233.5115,160.6378
233.5279,160.5773
233.5483,160.5397
233.5767,160.5127
233.6119,160.4970
233.6528,160.4896
233.7058,160.4868
233.7589,160.4896
233.8000,160.4970
233.8354,160.5127
233.8639,160.5397
233.8844,160.5773
233.9009,160.6378
233.9097,160.7090
233.9132,160.8146
234.2246,160.8146
234.2166,160.6537
234.1954,160.5341
234.1711,160.4614
234.1407,160.4033
234.1048,160.3572
234.0608,160.3191
234.0077,160.2885
233.9443,160.2654
233.8399,160.2453
233.7058,160.2379
Z" /> 
<path style="fill:#000000; fill-opacity:1.0000; stroke:none;fill-rule:evenodd;"
d="M 234.4290,161.3825
234.4290,160.2551
234.6699,160.2551
234.7405,160.4273
234.8054,160.3553
234.8779,160.2948
234.9315,160.2644
234.9919,160.2459
235.0606,160.2394
235.1064,160.2418
235.1524,160.2505
235.1524,160.5696
235.0856,160.5628
235.0206,160.5601
234.9612,160.5636
234.9101,160.5736
234.8625,160.5903
234.8192,160.6132
234.7793,160.6426
234.7405,160.6805
234.7405,161.3825
Z" /> 
<path style="fill:#000000; fill-opacity:1.0000; stroke:none;fill-rule:evenodd;"
d="M 235.6666,160.2591
235.5801,160.2730
235.5097,160.2942
235.4446,160.3266
235.3935,160.3671
235.3542,160.4160
235.3266,160.4726
235.3090,160.5406
235.3028,160.6227
235.3070,160.6859
235.3198,160.7469
235.3424,160.8047
235.3765,160.8587
235.4218,160.9054
235.4827,160.9457
235.4268,160.9639
235.3819,160.9897
235.3461,161.0230
235.3193,161.0636
235.3030,161.1104
235.2973,161.1652
235.3072,161.2301
235.3367,161.2875
235.3885,161.3398
235.4133,161.3538
235.3506,161.3886
235.2915,161.4443
235.2627,161.4891
235.2452,161.5400
235.2392,161.5985
235.2392,161.6324
235.2448,161.6889
235.2611,161.7377
235.2876,161.7804
235.3438,161.8329
235.4199,161.8723
235.5070,161.8954
235.6088,161.9036
235.9473,161.9036
236.0588,161.8964
236.1473,161.8769
236.2171,161.8471
236.2718,161.8081
236.3170,161.7571
236.3496,161.6975
236.3699,161.6277
236.3770,161.5453
236.3770,161.5297
236.0820,161.5297
236.0820,161.5622
236.0765,161.6008
236.0611,161.6309
236.0354,161.6546
235.9836,161.6770
235.9105,161.6854
235.6963,161.6854
235.6235,161.6766
235.5758,161.6539
235.5530,161.6301
235.5391,161.6001
235.5341,161.5617
235.5341,161.5371
235.5394,161.4979
235.5542,161.4673
235.5778,161.4430
235.6101,161.4248
235.6476,161.4142
235.6924,161.4104
235.9189,161.4104
235.9734,161.4144
236.0118,161.4247
236.0435,161.4426
236.0647,161.4653
236.0775,161.4937
236.0820,161.5297
236.3770,161.5297
236.3770,161.5157
236.3710,161.4352
236.3543,161.3705
236.3285,161.3187
236.2919,161.2739
236.2459,161.2380
236.1891,161.2105
236.0928,161.1859
235.9695,161.1769
235.6570,161.1769
235.6213,161.1734
235.5898,161.1634
235.5673,161.1445
235.5595,161.1130
235.5686,161.0760
235.5951,161.0528
235.6338,161.0402
235.6864,161.0356
235.8865,161.0356
235.9847,161.0297
236.0625,161.0139
236.1235,160.9900
236.1786,160.9551
236.2212,160.9141
236.2529,160.8667
236.2830,160.7852
236.2934,160.6913
236.2910,160.6483
236.0127,160.6483
236.0091,160.6925
235.9992,160.7289
235.9806,160.7594
235.9506,160.7828
235.9113,160.7966
235.8516,160.8020
235.7321,160.8020
235.6839,160.7972
235.6477,160.7841
235.6206,160.7639
235.6012,160.7360
235.5883,160.6969
235.5835,160.6427
235.5887,160.5869
235.6025,160.5483
235.6230,160.5223
235.6694,160.4972
235.7417,160.4876
235.8589,160.4876
235.9068,160.4917
235.9435,160.5029
235.9735,160.5232
235.9953,160.5539
236.0079,160.5929
236.0127,160.6483
236.2910,160.6483
236.2899,160.6268
236.2806,160.5795
236.2656,160.5375
236.2487,160.5059
236.2099,160.4568
236.3826,160.4257
236.3826,160.2540
235.7720,160.2540
Z" /> 
<path style="fill:#000000; fill-opacity:1.0000; stroke:none;fill-rule:evenodd;"
d="M 198.0522,159.0000
198.9522,159.0000
198.9522,160.8500
198.0522,160.8500
Z" /> 
<path style="fill:#000000; fill-opacity:1.0000; 
stroke:#000000; stroke-width:0.4000; stroke-opacity:1; 
stroke-linecap:round; stroke-linejoin:round;fill-rule:evenodd;"
d="M 197.9022,158.2000
199.1022,158.2000
199.1022,159.2000
197.9022,159.2000
Z" /> 
<path style="fill:#000000; fill-opacity:1.0000; stroke:none;fill-rule:evenodd;"
d="M 197.7022,159.2000
199.3022,159.2000
199.3022,159.4000
197.7022,159.4000
Z" /> 
</g>
<g style="fill:none; 
stroke:#000000; stroke-width:0.4000; stroke-opacity:1; 
stroke-linecap:round; stroke-linejoin:round;">
<circle cx="198.5028" cy="159.0000" r="2.5000" /> 
</g>
<g style="fill:#000000; fill-opacity:1.0000; stroke:none;">
<circle cx="198.5022" cy="157.4100" r="0.4000" /> 
</g>
<g style="fill:none; 
stroke:#000000; stroke-width:0.4000; stroke-opacity:1; 
stroke-linecap:round; stroke-linejoin:round;">
<circle cx="204.5028" cy="159.0000" r="2.5000" /> 
<path style="fill:#000000; fill-opacity:1.0000; stroke:none;fill-rule:evenodd;"
d="M 204.4425,157.4000
204.3808,157.4035
204.3203,157.4093
204.2610,157.4175
204.2029,157.4280
204.1459,157.4409
204.0902,157.4561
204.0357,157.4736
203.9824,157.4934
203.9303,157.5156
203.8794,157.5401
203.8297,157.5670
203.7812,157.5962
203.7339,157.6277
203.6878,157.6616
203.6429,157.6978
203.5996,157.7361
203.5585,157.7763
203.5194,157.8185
203.4825,157.8626
203.4476,157.9086
203.4149,157.9566
203.3843,158.0064
203.3558,158.0582
203.3294,158.1119
203.3052,158.1676
203.2830,158.2251
203.2629,158.2846
203.2450,158.3460
203.2291,158.4093
203.2154,158.4746
203.2038,158.5418
202.9711,158.5417
203.5585,159.1291
204.1458,158.5417
203.9289,158.5417
203.9401,158.4782
203.9473,158.4481
203.9555,158.4189
203.9646,158.3908
203.9748,158.3637
203.9861,158.3376
203.9983,158.3125
204.0115,158.2885
204.0258,158.2654
204.0410,158.2434
204.0573,158.2225
204.0746,158.2025
204.0929,158.1836
204.1122,158.1657
204.1325,158.1488
204.1539,158.1330
204.1762,158.1181
204.1996,158.1043
204.2240,158.0915
204.2494,158.0798
204.2758,158.0690
204.3032,158.0593
204.3316,158.0506
204.3915,158.0363
204.4555,158.0261
204.5235,158.0199
204.5956,158.0179
204.6360,158.0189
204.6753,158.0217
204.7133,158.0265
204.7501,158.0333
204.7858,158.0419
204.8202,158.0525
204.8534,158.0650
204.8854,158.0794
204.9162,158.0958
204.9459,158.1140
204.9743,158.1342
205.0015,158.1563
205.0275,158.1803
205.0524,158.2063
205.0760,158.2342
205.0984,158.2639
205.1196,158.2956
205.1393,158.3290
205.1577,158.3641
205.1748,158.4010
205.1905,158.4397
205.2048,158.4801
205.2177,158.5223
205.2293,158.5662
205.2396,158.6119
205.2484,158.6594
205.2559,158.7086
205.2621,158.7595
205.2669,158.8123
205.2703,158.8667
205.2723,158.9230
205.2730,158.9810
205.2723,159.0365
205.2700,159.0906
205.2663,159.1433
205.2611,159.1946
205.2544,159.2445
205.2462,159.2930
205.2365,159.3401
205.2253,159.3858
205.2127,159.4300
205.1985,159.4729
205.1829,159.5144
205.1658,159.5544
205.1471,159.5931
205.1270,159.6303
205.1054,159.6662
205.0823,159.7006
205.0580,159.7333
205.0328,159.7638
205.0066,159.7923
204.9795,159.8186
204.9514,159.8429
204.9223,159.8650
204.8923,159.8850
204.8614,159.9030
204.8295,159.9188
204.7966,159.9325
204.7628,159.9441
204.7281,159.9536
204.6924,159.9610
204.6558,159.9662
204.6182,159.9694
204.5797,159.9705
204.5412,159.9699
204.5039,159.9683
204.4678,159.9657
204.4329,159.9620
204.3991,159.9573
204.3665,159.9515
204.3351,159.9446
204.3048,159.9367
204.2757,159.9278
204.2478,159.9177
204.2210,159.9067
204.1954,159.8945
204.1710,159.8814
204.1477,159.8671
204.1256,159.8518
204.1047,159.8355
204.0849,159.8181
204.0663,159.7997
204.0489,159.7802
204.0327,159.7596
204.0176,159.7380
204.0037,159.7153
203.9909,159.6916
203.9793,159.6668
203.9689,159.6410
203.9597,159.6141
203.9516,159.5862
203.9447,159.5572
203.9390,159.5271
203.9344,159.4960
203.9310,159.4639
203.9288,159.4307
203.1825,159.4307
203.1929,159.4991
203.2055,159.5656
203.2205,159.6301
203.2377,159.6926
203.2572,159.7531
203.2790,159.8116
203.3030,159.8682
203.3293,159.9228
203.3579,159.9753
203.3888,160.0259
203.4219,160.0746
203.4573,160.1212
203.4950,160.1658
203.5349,160.2085
203.5772,160.2492
203.6217,160.2879
203.6679,160.3244
203.7151,160.3586
203.7634,160.3904
203.8128,160.4199
203.8633,160.4470
203.9148,160.4717
203.9675,160.4941
204.0212,160.5141
204.0759,160.5318
204.1318,160.5471
204.1887,160.5601
204.2467,160.5707
204.3058,160.5789
204.3660,160.5848
204.4272,160.5883
204.4895,160.5895
204.5738,160.5877
204.6562,160.5824
204.7366,160.5736
204.8150,160.5612
204.8914,160.5453
204.9658,160.5259
205.0382,160.5029
205.1087,160.4763
205.1771,160.4463
205.2436,160.4127
205.3081,160.3756
205.3706,160.3349
205.4312,160.2908
205.4897,160.2431
205.5463,160.1918
205.6009,160.1370
205.6528,160.0796
205.7013,160.0204
205.7465,159.9593
205.7883,159.8965
205.8268,159.8319
205.8620,159.7654
205.8938,159.6972
205.9222,159.6272
205.9474,159.5553
205.9691,159.4817
205.9875,159.4063
206.0026,159.3290
206.0143,159.2500
206.0227,159.1692
206.0277,159.0865
206.0294,159.0021
206.0278,158.9151
206.0229,158.8301
206.0149,158.7471
206.0036,158.6661
205.9891,158.5871
205.9713,158.5100
205.9504,158.4349
205.9262,158.3618
205.8988,158.2907
205.8682,158.2216
205.8343,158.1544
205.7972,158.0893
205.7569,158.0261
205.7134,157.9649
205.6666,157.9057
205.6167,157.8485
205.5639,157.7941
205.5090,157.7432
205.4518,157.6957
205.3924,157.6518
205.3308,157.6114
205.2669,157.5745
205.2008,157.5412
205.1324,157.5113
205.0619,157.4849
204.9890,157.4621
204.9140,157.4428
204.8367,157.4270
204.7572,157.4147
204.6755,157.4059
204.5916,157.4006
204.5054,157.3988
Z" /> 
</g>
<g style="fill:none; 
stroke:#000000; stroke-width:0.4000; stroke-opacity:1; 
stroke-linecap:round; stroke-linejoin:round;">
<circle cx="192.5022" cy="159.0000" r="2.5000" /> 
<path style="fill:#000000; fill-opacity:1.0000; stroke:none;fill-rule:evenodd;"
d="M 191.4880,157.9535
191.4361,157.9568
191.3853,157.9624
191.3356,157.9702
191.2872,157.9802
191.2399,157.9924
191.1937,158.0068
191.1487,158.0235
191.1049,158.0424
191.0622,158.0635
191.0207,158.0868
190.9803,158.1123
190.9411,158.1401
190.9031,158.1701
190.8662,158.2022
190.8305,158.2367
190.7964,158.2730
190.7646,158.3108
190.7349,158.3503
190.7075,158.3913
190.6822,158.4338
190.6591,158.4779
190.6383,158.5236
190.6196,158.5708
190.6031,158.6196
190.5888,158.6699
190.5767,158.7218
190.5669,158.7752
190.5592,158.8303
190.5537,158.8868
190.5504,158.9450
190.5493,159.0047
190.5504,159.0658
190.5536,159.1252
190.5591,159.1830
190.5667,159.2390
190.5764,159.2933
190.5884,159.3459
190.6025,159.3969
190.6188,159.4461
190.6373,159.4936
190.6579,159.5394
190.6807,159.5836
190.7057,159.6260
190.7329,159.6667
190.7622,159.7057
190.7937,159.7430
190.8274,159.7786
190.8629,159.8124
190.8997,159.8439
190.9379,159.8733
190.9775,159.9004
191.0184,159.9254
191.0607,159.9483
191.1044,159.9689
191.1495,159.9874
191.1959,160.0037
191.2437,160.0178
191.2929,160.0297
191.3434,160.0395
191.3953,160.0471
191.4486,160.0525
191.5032,160.0558
191.5592,160.0569
191.5946,160.0563
191.6296,160.0547
191.6642,160.0519
191.6984,160.0480
191.7322,160.0430
191.7657,160.0369
191.7988,160.0297
191.8315,160.0214
191.8638,160.0119
191.8957,160.0014
191.9273,159.9897
191.9584,159.9770
191.9892,159.9631
192.0196,159.9481
192.0497,159.9320
192.0793,159.9147
192.1084,159.8966
192.1367,159.8776
192.1642,159.8578
192.1908,159.8371
192.2167,159.8156
192.2418,159.7933
192.2660,159.7702
192.2895,159.7462
192.3122,159.7214
192.3340,159.6958
192.3551,159.6693
192.3753,159.6421
192.3947,159.6140
192.4134,159.5850
192.4312,159.5552
192.4482,159.5246
192.0311,159.3130
192.0152,159.3481
191.9980,159.3810
191.9795,159.4116
191.9596,159.4400
191.9383,159.4660
191.9156,159.4899
191.8916,159.5114
191.8662,159.5307
191.8394,159.5477
191.8113,159.5624
191.7817,159.5749
191.7509,159.5851
191.7186,159.5931
191.6850,159.5987
191.6500,159.6021
191.6136,159.6033
191.5861,159.6026
191.5594,159.6007
191.5335,159.5975
191.5085,159.5931
191.4844,159.5873
191.4611,159.5803
191.4386,159.5720
191.4170,159.5624
191.4066,159.5572
191.3963,159.5516
191.3862,159.5457
191.3764,159.5394
191.3668,159.5329
191.3573,159.5260
191.3481,159.5189
191.3391,159.5114
191.3218,159.4954
191.3053,159.4782
191.2897,159.4597
191.2749,159.4399
191.2610,159.4190
191.2480,159.3973
191.2359,159.3748
191.2247,159.3514
191.2143,159.3272
191.2049,159.3021
191.1964,159.2762
191.1888,159.2494
191.1820,159.2218
191.1762,159.1933
191.1713,159.1640
191.1672,159.1338
191.1641,159.1028
191.1618,159.0709
191.1605,159.0382
191.1600,159.0046
191.1605,158.9677
191.1618,158.9321
191.1640,158.8976
191.1671,158.8642
191.1711,158.8321
191.1760,158.8011
191.1818,158.7713
191.1884,158.7426
191.1959,158.7151
191.2044,158.6888
191.2137,158.6637
191.2239,158.6397
191.2349,158.6169
191.2469,158.5953
191.2598,158.5748
191.2735,158.5555
191.2881,158.5374
191.3036,158.5205
191.3200,158.5047
191.3373,158.4901
191.3555,158.4766
191.3745,158.4643
191.3944,158.4532
191.4153,158.4433
191.4370,158.4345
191.4595,158.4269
191.4830,158.4205
191.5074,158.4152
191.5326,158.4111
191.5587,158.4082
191.5858,158.4065
191.6136,158.4059
191.6251,158.4061
191.6366,158.4068
191.6482,158.4080
191.6600,158.4097
191.6719,158.4118
191.6839,158.4144
191.6960,158.4175
191.7082,158.4210
191.7205,158.4250
191.7330,158.4295
191.7456,158.4345
191.7583,158.4399
191.7711,158.4458
191.7841,158.4522
191.7971,158.4590
191.8103,158.4663
191.8234,158.4742
191.8362,158.4829
191.8488,158.4922
191.8611,158.5022
191.8731,158.5130
191.8849,158.5245
191.8964,158.5366
191.9077,158.5495
191.9187,158.5631
191.9295,158.5774
191.9400,158.5924
191.9502,158.6081
191.9602,158.6245
191.9699,158.6416
191.9794,158.6595
191.9886,158.6780
192.4423,158.4421
192.4069,158.3828
192.3687,158.3273
192.3277,158.2756
192.2839,158.2277
192.2374,158.1837
192.1880,158.1436
192.1359,158.1072
192.0810,158.0747
192.0232,158.0460
191.9627,158.0211
191.8995,158.0001
191.8334,157.9829
191.7645,157.9695
191.6928,157.9600
191.6184,157.9543
191.5412,157.9524
Z" /> 
<path style="fill:#000000; fill-opacity:1.0000; stroke:none;fill-rule:evenodd;"
d="M 193.4475,157.9535
193.3955,157.9568
193.3447,157.9624
193.2951,157.9702
193.2466,157.9802
193.1993,157.9924
193.1532,158.0068
193.1082,158.0235
193.0644,158.0424
193.0217,158.0635
192.9802,158.0868
192.9399,158.1123
192.9007,158.1401
192.8627,158.1701
192.8258,158.2022
192.7901,158.2367
192.7560,158.2730
192.7241,158.3108
192.6945,158.3503
192.6670,158.3913
192.6417,158.4338
192.6186,158.4779
192.5977,158.5236
192.5791,158.5708
192.5626,158.6196
192.5483,158.6699
192.5362,158.7218
192.5264,158.7752
192.5187,158.8303
192.5132,158.8868
192.5099,158.9450
192.5088,159.0047
192.5099,159.0658
192.5131,159.1252
192.5185,159.1830
192.5260,159.2390
192.5356,159.2933
192.5475,159.3459
192.5614,159.3969
192.5776,159.4461
192.5959,159.4936
192.6163,159.5394
192.6389,159.5836
192.6636,159.6260
192.6905,159.6667
192.7196,159.7057
192.7508,159.7430
192.7842,159.7786
192.8193,159.8124
192.8558,159.8439
192.8938,159.8733
192.9332,159.9004
192.9740,159.9254
193.0163,159.9483
193.0601,159.9689
193.1053,159.9874
193.1519,160.0037
193.2000,160.0178
193.2495,160.0297
193.3004,160.0395
193.3529,160.0471
193.4067,160.0525
193.4620,160.0558
193.5188,160.0569
193.5534,160.0563
193.5876,160.0547
193.6216,160.0519
193.6552,160.0480
193.6885,160.0430
193.7214,160.0369
193.7540,160.0297
193.7863,160.0214
193.8183,160.0119
193.8499,160.0014
193.8812,159.9897
193.9122,159.9770
193.9428,159.9631
193.9732,159.9481
194.0031,159.9320
194.0328,159.9147
194.0619,159.8966
194.0902,159.8776
194.1178,159.8578
194.1446,159.8371
194.1706,159.8156
194.1960,159.7933
194.2205,159.7702
194.2443,159.7462
194.2674,159.7214
194.2897,159.6958
194.3112,159.6693
194.3320,159.6421
194.3520,159.6140
194.3713,159.5850
194.3898,159.5552
194.4075,159.5246
193.9842,159.3130
193.9684,159.3481
193.9513,159.3810
193.9327,159.4116
193.9128,159.4400
193.8915,159.4660
193.8689,159.4899
193.8449,159.5114
193.8195,159.5307
193.7927,159.5477
193.7646,159.5624
193.7351,159.5749
193.7042,159.5851
193.6720,159.5931
193.6384,159.5987
193.6034,159.6021
193.5671,159.6033
193.5395,159.6026
193.5128,159.6007
193.4869,159.5975
193.4619,159.5931
193.4377,159.5873
193.4144,159.5803
193.3920,159.5720
193.3704,159.5624
193.3599,159.5572
193.3496,159.5516
193.3396,159.5457
193.3298,159.5394
193.3201,159.5329
193.3107,159.5260
193.3015,159.5189
193.2925,159.5114
193.2838,159.5035
193.2752,159.4954
193.2587,159.4782
193.2431,159.4597
193.2283,159.4399
193.2144,159.4190
193.2014,159.3973
193.1893,159.3748
193.1781,159.3514
193.1678,159.3272
193.1584,159.3021
193.1498,159.2762
193.1422,159.2494
193.1354,159.2218
193.1296,159.1933
193.1247,159.1640
193.1206,159.1338
193.1175,159.1028
193.1152,159.0709
193.1139,159.0382
193.1134,159.0046
193.1139,158.9677
193.1152,158.9321
193.1174,158.8976
193.1205,158.8642
193.1245,158.8321
193.1294,158.8011
193.1351,158.7713
193.1418,158.7426
193.1493,158.7151
193.1577,158.6888
193.1670,158.6637
193.1772,158.6397
193.1883,158.6169
193.2003,158.5953
193.2131,158.5748
193.2269,158.5555
193.2415,158.5374
193.2570,158.5205
193.2734,158.5047
193.2907,158.4901
193.3089,158.4766
193.3279,158.4643
193.3478,158.4532
193.3687,158.4433
193.3904,158.4345
193.4130,158.4269
193.4364,158.4205
193.4608,158.4152
193.4861,158.4111
193.5122,158.4082
193.5392,158.4065
193.5671,158.4059
193.5792,158.4061
193.5914,158.4068
193.6036,158.4080
193.6159,158.4097
193.6283,158.4118
193.6408,158.4144
193.6534,158.4175
193.6660,158.4210
193.6787,158.4250
193.6915,158.4295
193.7043,158.4345
193.7172,158.4399
193.7302,158.4458
193.7433,158.4522
193.7565,158.4590
193.7697,158.4663
193.7828,158.4742
193.7956,158.4829
193.8082,158.4922
193.8205,158.5022
193.8326,158.5130
193.8444,158.5245
193.8559,158.5366
193.8672,158.5495
193.8782,158.5631
193.8890,158.5774
193.8995,158.5924
193.9097,158.6081
193.9197,158.6245
193.9295,158.6416
193.9389,158.6595
193.9481,158.6780
194.3957,158.4421
194.3957,158.4421
194.3610,158.3828
194.3235,158.3273
194.2832,158.2756
194.2400,158.2277
194.1940,158.1837
194.1451,158.1436
194.0934,158.1072
194.0389,158.0747
193.9815,158.0460
193.9213,158.0211
193.8583,158.0001
193.7924,157.9829
193.7237,157.9695
193.6521,157.9600
193.5778,157.9543
193.5006,157.9524
Z" /> 
</g> 
</svg>
