<!DOCTYPE svg PUBLIC "-//W3C//DTD SVG 1.1//EN" "http://www.w3.org/Graphics/SVG/1.1/DTD/svg11.dtd">
<svg xmlns="http://www.w3.org/2000/svg" version="1.1" width="123.524284mm" height="69.974302mm" viewBox="-164.55 106.69212 123.524284 69.97430200000001">
            <title>Picture generated by PcbDraw </title>
            <desc>Picture generated by PcbDraw</desc>
        <defs><clipPath id="cut-off"><path d=" M 158.369 127.508 A 1.143 1.143 0 0 0 159.512 128.651 L 160.5 128.651 L 160.5 164.5 L 60.5 164.5 L 60.5 129.5 L 75.5 114.5 L 155.0 114.5 A 5.5 5.5 0 0 1 160.5 120.0 L 160.5 121.539 L 159.512 121.539 A 1.143 1.143 0 0 0 158.369 122.682 L 158.369 127.508 " style="fill-rule: evenodd;"/></clipPath><mask id="pads-mask"><g style="fill:#ffffff; fill-opacity:1.0000; stroke:none;">
<circle cx="156.5690" cy="130.0950" r="0.6000"/> 
</g>
<g style="fill:#ffffff; fill-opacity:1.0000; stroke:none;">
<circle cx="156.5690" cy="120.0950" r="0.6000"/> 
</g>
<g style="fill:#ffffff; fill-opacity:1.0000; stroke:none;">
<circle cx="154.0690" cy="130.0950" r="0.6000"/> 
</g>
<g style="fill:#ffffff; fill-opacity:1.0000; stroke:none;">
<circle cx="154.0690" cy="120.0950" r="0.6000"/> 
</g>
<g style="fill:#ffffff; fill-opacity:1.0000; stroke:none;">
<circle cx="149.0690" cy="125.0950" r="0.6000"/> 
<path style="fill:#ffffff; fill-opacity:1.0000; stroke:none;fill-rule:evenodd;" d="M 150.3190,129.1950 150.3190,130.9950 147.8190,130.9950 147.8190,129.1950 Z"/> 
<path style="fill:#ffffff; fill-opacity:1.0000; stroke:none;fill-rule:evenodd;" d="M 150.3190,126.6950 150.3190,128.4950 147.8190,128.4950 147.8190,126.6950 Z"/> 
<path style="fill:#ffffff; fill-opacity:1.0000; stroke:none;fill-rule:evenodd;" d="M 154.9690,123.8450 154.9690,126.3450 153.1690,126.3450 153.1690,123.8450 Z"/> 
<path style="fill:#ffffff; fill-opacity:1.0000; stroke:none;fill-rule:evenodd;" d="M 150.3190,119.1950 150.3190,120.9950 147.8190,120.9950 147.8190,119.1950 Z"/> 
<path style="fill:#ffffff; fill-opacity:1.0000; stroke:none;fill-rule:evenodd;" d="M 150.3190,121.6950 150.3190,123.4950 147.8190,123.4950 147.8190,121.6950 Z"/> 
<path style="fill:#ffffff; fill-opacity:1.0000; stroke:none;fill-rule:evenodd;" d="M 65.8500,155.3100 65.8500,157.0100 64.1500,157.0100 64.1500,155.3100 Z"/> 
</g>
<g style="fill:#ffffff; fill-opacity:1.0000; stroke:none;">
<circle cx="62.4600" cy="156.1600" r="0.8500"/> 
</g>
<g style="fill:#ffffff; fill-opacity:1.0000; stroke:none;">
<circle cx="65.0000" cy="153.6200" r="0.8500"/> 
</g>
<g style="fill:#ffffff; fill-opacity:1.0000; stroke:none;">
<circle cx="62.4600" cy="153.6200" r="0.8500"/> 
</g>
<g style="fill:#ffffff; fill-opacity:1.0000; stroke:none;">
<circle cx="65.0000" cy="151.0800" r="0.8500"/> 
</g>
<g style="fill:#ffffff; fill-opacity:1.0000; stroke:none;">
<circle cx="62.4600" cy="151.0800" r="0.8500"/> 
</g>
<g style="fill:#ffffff; fill-opacity:1.0000; stroke:none;">
<circle cx="65.0000" cy="148.5400" r="0.8500"/> 
</g>
<g style="fill:#ffffff; fill-opacity:1.0000; stroke:none;">
<circle cx="62.4600" cy="148.5400" r="0.8500"/> 
</g>
<g style="fill:#ffffff; fill-opacity:1.0000; stroke:none;">
<circle cx="65.0000" cy="146.0000" r="0.8500"/> 
</g>
<g style="fill:#ffffff; fill-opacity:1.0000; stroke:none;">
<circle cx="62.4600" cy="146.0000" r="0.8500"/> 
</g>
<g style="fill:#ffffff; fill-opacity:1.0000; stroke:none;">
<circle cx="65.0000" cy="143.4600" r="0.8500"/> 
</g>
<g style="fill:#ffffff; fill-opacity:1.0000; stroke:none;">
<circle cx="62.4600" cy="143.4600" r="0.8500"/> 
</g>
<g style="fill:#ffffff; fill-opacity:1.0000; stroke:none;">
<circle cx="65.5320" cy="131.3820" r="1.6000"/> 
<path style="fill:#ffffff; fill-opacity:1.0000; stroke:none;fill-rule:evenodd;" d="M 62.8500,163.8500 61.1500,163.8500 61.1500,162.1500 62.8500,162.1500 Z"/> 
</g>
<g style="fill:#ffffff; fill-opacity:1.0000; stroke:none;">
<circle cx="64.5400" cy="163.0000" r="0.8500"/> 
<circle cx="67.0800" cy="163.0000" r="0.8500"/> 
<circle cx="69.6200" cy="163.0000" r="0.8500"/> 
<circle cx="72.1600" cy="163.0000" r="0.8500"/> 
<circle cx="74.7000" cy="163.0000" r="0.8500"/> 
<circle cx="77.2400" cy="163.0000" r="0.8500"/> 
<circle cx="79.7800" cy="163.0000" r="0.8500"/> 
<circle cx="82.3200" cy="163.0000" r="0.8500"/> 
<circle cx="84.8600" cy="163.0000" r="0.8500"/> 
<circle cx="87.4000" cy="163.0000" r="0.8500"/> 
<circle cx="89.9400" cy="163.0000" r="0.8500"/> 
<circle cx="92.4800" cy="163.0000" r="0.8500"/> 
<circle cx="95.0200" cy="163.0000" r="0.8500"/> 
<circle cx="97.5600" cy="163.0000" r="0.8500"/> 
<circle cx="100.1000" cy="163.0000" r="0.8500"/> 
<circle cx="102.6400" cy="163.0000" r="0.8500"/> 
<circle cx="105.1800" cy="163.0000" r="0.8500"/> 
<circle cx="107.7200" cy="163.0000" r="0.8500"/> 
<circle cx="110.2600" cy="163.0000" r="0.8500"/> 
<circle cx="112.8000" cy="163.0000" r="0.8500"/> 
<circle cx="115.3400" cy="163.0000" r="0.8500"/> 
<circle cx="117.8800" cy="163.0000" r="0.8500"/> 
<circle cx="120.4200" cy="163.0000" r="0.8500"/> 
<circle cx="122.9600" cy="163.0000" r="0.8500"/> 
<circle cx="125.5000" cy="163.0000" r="0.8500"/> 
<circle cx="128.0400" cy="163.0000" r="0.8500"/> 
<circle cx="130.5800" cy="163.0000" r="0.8500"/> 
<circle cx="133.1200" cy="163.0000" r="0.8500"/> 
<circle cx="135.6600" cy="163.0000" r="0.8500"/> 
<circle cx="138.2000" cy="163.0000" r="0.8500"/> 
<circle cx="140.7400" cy="163.0000" r="0.8500"/> 
<circle cx="143.2800" cy="163.0000" r="0.8500"/> 
<circle cx="145.8200" cy="163.0000" r="0.8500"/> 
<circle cx="148.3600" cy="163.0000" r="0.8500"/> 
<circle cx="150.9000" cy="163.0000" r="0.8500"/> 
<circle cx="153.4400" cy="163.0000" r="0.8500"/> 
<circle cx="155.9800" cy="163.0000" r="0.8500"/> 
<circle cx="158.5200" cy="163.0000" r="0.8500"/> 
</g> 
</mask><mask id="pads-mask-silkscreen"><rect x="41.025716" y="106.69212" width="123.524284" height="69.974302" fill="white"/><g style="fill:#000000; fill-opacity:1.0000; stroke:none;">
<circle cx="156.5690" cy="130.0950" r="0.6000"/> 
</g>
<g style="fill:#000000; fill-opacity:1.0000; stroke:none;">
<circle cx="156.5690" cy="120.0950" r="0.6000"/> 
</g>
<g style="fill:#000000; fill-opacity:1.0000; stroke:none;">
<circle cx="154.0690" cy="130.0950" r="0.6000"/> 
</g>
<g style="fill:#000000; fill-opacity:1.0000; stroke:none;">
<circle cx="154.0690" cy="120.0950" r="0.6000"/> 
</g>
<g style="fill:#000000; fill-opacity:1.0000; stroke:none;">
<circle cx="149.0690" cy="125.0950" r="0.6000"/> 
<path style="fill:#000000; fill-opacity:1.0000; stroke:none;fill-rule:evenodd;" d="M 150.3190,129.1950 150.3190,130.9950 147.8190,130.9950 147.8190,129.1950 Z"/> 
<path style="fill:#000000; fill-opacity:1.0000; stroke:none;fill-rule:evenodd;" d="M 150.3190,126.6950 150.3190,128.4950 147.8190,128.4950 147.8190,126.6950 Z"/> 
<path style="fill:#000000; fill-opacity:1.0000; stroke:none;fill-rule:evenodd;" d="M 154.9690,123.8450 154.9690,126.3450 153.1690,126.3450 153.1690,123.8450 Z"/> 
<path style="fill:#000000; fill-opacity:1.0000; stroke:none;fill-rule:evenodd;" d="M 150.3190,119.1950 150.3190,120.9950 147.8190,120.9950 147.8190,119.1950 Z"/> 
<path style="fill:#000000; fill-opacity:1.0000; stroke:none;fill-rule:evenodd;" d="M 150.3190,121.6950 150.3190,123.4950 147.8190,123.4950 147.8190,121.6950 Z"/> 
<path style="fill:#000000; fill-opacity:1.0000; stroke:none;fill-rule:evenodd;" d="M 65.8500,155.3100 65.8500,157.0100 64.1500,157.0100 64.1500,155.3100 Z"/> 
</g>
<g style="fill:#000000; fill-opacity:1.0000; stroke:none;">
<circle cx="62.4600" cy="156.1600" r="0.8500"/> 
</g>
<g style="fill:#000000; fill-opacity:1.0000; stroke:none;">
<circle cx="65.0000" cy="153.6200" r="0.8500"/> 
</g>
<g style="fill:#000000; fill-opacity:1.0000; stroke:none;">
<circle cx="62.4600" cy="153.6200" r="0.8500"/> 
</g>
<g style="fill:#000000; fill-opacity:1.0000; stroke:none;">
<circle cx="65.0000" cy="151.0800" r="0.8500"/> 
</g>
<g style="fill:#000000; fill-opacity:1.0000; stroke:none;">
<circle cx="62.4600" cy="151.0800" r="0.8500"/> 
</g>
<g style="fill:#000000; fill-opacity:1.0000; stroke:none;">
<circle cx="65.0000" cy="148.5400" r="0.8500"/> 
</g>
<g style="fill:#000000; fill-opacity:1.0000; stroke:none;">
<circle cx="62.4600" cy="148.5400" r="0.8500"/> 
</g>
<g style="fill:#000000; fill-opacity:1.0000; stroke:none;">
<circle cx="65.0000" cy="146.0000" r="0.8500"/> 
</g>
<g style="fill:#000000; fill-opacity:1.0000; stroke:none;">
<circle cx="62.4600" cy="146.0000" r="0.8500"/> 
</g>
<g style="fill:#000000; fill-opacity:1.0000; stroke:none;">
<circle cx="65.0000" cy="143.4600" r="0.8500"/> 
</g>
<g style="fill:#000000; fill-opacity:1.0000; stroke:none;">
<circle cx="62.4600" cy="143.4600" r="0.8500"/> 
</g>
<g style="fill:#000000; fill-opacity:1.0000; stroke:none;">
<circle cx="65.5320" cy="131.3820" r="1.6000"/> 
<path style="fill:#000000; fill-opacity:1.0000; stroke:none;fill-rule:evenodd;" d="M 62.8500,163.8500 61.1500,163.8500 61.1500,162.1500 62.8500,162.1500 Z"/> 
</g>
<g style="fill:#000000; fill-opacity:1.0000; stroke:none;">
<circle cx="64.5400" cy="163.0000" r="0.8500"/> 
<circle cx="67.0800" cy="163.0000" r="0.8500"/> 
<circle cx="69.6200" cy="163.0000" r="0.8500"/> 
<circle cx="72.1600" cy="163.0000" r="0.8500"/> 
<circle cx="74.7000" cy="163.0000" r="0.8500"/> 
<circle cx="77.2400" cy="163.0000" r="0.8500"/> 
<circle cx="79.7800" cy="163.0000" r="0.8500"/> 
<circle cx="82.3200" cy="163.0000" r="0.8500"/> 
<circle cx="84.8600" cy="163.0000" r="0.8500"/> 
<circle cx="87.4000" cy="163.0000" r="0.8500"/> 
<circle cx="89.9400" cy="163.0000" r="0.8500"/> 
<circle cx="92.4800" cy="163.0000" r="0.8500"/> 
<circle cx="95.0200" cy="163.0000" r="0.8500"/> 
<circle cx="97.5600" cy="163.0000" r="0.8500"/> 
<circle cx="100.1000" cy="163.0000" r="0.8500"/> 
<circle cx="102.6400" cy="163.0000" r="0.8500"/> 
<circle cx="105.1800" cy="163.0000" r="0.8500"/> 
<circle cx="107.7200" cy="163.0000" r="0.8500"/> 
<circle cx="110.2600" cy="163.0000" r="0.8500"/> 
<circle cx="112.8000" cy="163.0000" r="0.8500"/> 
<circle cx="115.3400" cy="163.0000" r="0.8500"/> 
<circle cx="117.8800" cy="163.0000" r="0.8500"/> 
<circle cx="120.4200" cy="163.0000" r="0.8500"/> 
<circle cx="122.9600" cy="163.0000" r="0.8500"/> 
<circle cx="125.5000" cy="163.0000" r="0.8500"/> 
<circle cx="128.0400" cy="163.0000" r="0.8500"/> 
<circle cx="130.5800" cy="163.0000" r="0.8500"/> 
<circle cx="133.1200" cy="163.0000" r="0.8500"/> 
<circle cx="135.6600" cy="163.0000" r="0.8500"/> 
<circle cx="138.2000" cy="163.0000" r="0.8500"/> 
<circle cx="140.7400" cy="163.0000" r="0.8500"/> 
<circle cx="143.2800" cy="163.0000" r="0.8500"/> 
<circle cx="145.8200" cy="163.0000" r="0.8500"/> 
<circle cx="148.3600" cy="163.0000" r="0.8500"/> 
<circle cx="150.9000" cy="163.0000" r="0.8500"/> 
<circle cx="153.4400" cy="163.0000" r="0.8500"/> 
<circle cx="155.9800" cy="163.0000" r="0.8500"/> 
<circle cx="158.5200" cy="163.0000" r="0.8500"/> 
</g> 
</mask><mask id="hole-mask"><g><rect x="41.025716" y="106.69212" fill="white" width="123.524284" height="69.974302"/><polyline stroke-linecap="round" stroke="black" stroke-width="1.2" points="-0.0 0 0.0 0" transform="translate(156.569 130.095) rotate(-180.0)"/><polyline stroke-linecap="round" stroke="black" stroke-width="1.2" points="-0.0 0 0.0 0" transform="translate(156.569 120.095) rotate(-180.0)"/><polyline stroke-linecap="round" stroke="black" stroke-width="1.2" points="-0.0 0 0.0 0" transform="translate(154.069 130.095) rotate(-180.0)"/><polyline stroke-linecap="round" stroke="black" stroke-width="1.2" points="-0.0 0 0.0 0" transform="translate(154.069 120.095) rotate(-180.0)"/><polyline stroke-linecap="round" stroke="black" stroke-width="1.2" points="-0.0 0 0.0 0" transform="translate(149.069 125.095) rotate(-180.0)"/><polyline stroke-linecap="round" stroke="black" stroke-width="0.8" points="-0.35 0 0.35 0" transform="translate(149.069 130.095) rotate(-180.0)"/><polyline stroke-linecap="round" stroke="black" stroke-width="0.8" points="-0.35 0 0.35 0" transform="translate(149.069 127.595) rotate(-180.0)"/><polyline stroke-linecap="round" stroke="black" stroke-width="0.8" points="0 -0.35 0 0.35" transform="translate(154.069 125.095) rotate(-180.0)"/><polyline stroke-linecap="round" stroke="black" stroke-width="0.8" points="-0.35 0 0.35 0" transform="translate(149.069 120.095) rotate(-180.0)"/><polyline stroke-linecap="round" stroke="black" stroke-width="0.8" points="-0.35 0 0.35 0" transform="translate(149.069 122.595) rotate(-180.0)"/><polyline stroke-linecap="round" stroke="black" stroke-width="1.0" points="-0.0 0 0.0 0" transform="translate(65.0 156.16) rotate(-180.0)"/><polyline stroke-linecap="round" stroke="black" stroke-width="1.0" points="-0.0 0 0.0 0" transform="translate(62.46 156.16) rotate(-180.0)"/><polyline stroke-linecap="round" stroke="black" stroke-width="1.0" points="-0.0 0 0.0 0" transform="translate(65.0 153.62) rotate(-180.0)"/><polyline stroke-linecap="round" stroke="black" stroke-width="1.0" points="-0.0 0 0.0 0" transform="translate(62.46 153.62) rotate(-180.0)"/><polyline stroke-linecap="round" stroke="black" stroke-width="1.0" points="-0.0 0 0.0 0" transform="translate(65.0 151.08) rotate(-180.0)"/><polyline stroke-linecap="round" stroke="black" stroke-width="1.0" points="-0.0 0 0.0 0" transform="translate(62.46 151.08) rotate(-180.0)"/><polyline stroke-linecap="round" stroke="black" stroke-width="1.0" points="-0.0 0 0.0 0" transform="translate(65.0 148.54) rotate(-180.0)"/><polyline stroke-linecap="round" stroke="black" stroke-width="1.0" points="-0.0 0 0.0 0" transform="translate(62.46 148.54) rotate(-180.0)"/><polyline stroke-linecap="round" stroke="black" stroke-width="1.0" points="-0.0 0 0.0 0" transform="translate(65.0 146.0) rotate(-180.0)"/><polyline stroke-linecap="round" stroke="black" stroke-width="1.0" points="-0.0 0 0.0 0" transform="translate(62.46 146.0) rotate(-180.0)"/><polyline stroke-linecap="round" stroke="black" stroke-width="1.0" points="-0.0 0 0.0 0" transform="translate(65.0 143.46) rotate(-180.0)"/><polyline stroke-linecap="round" stroke="black" stroke-width="1.0" points="-0.0 0 0.0 0" transform="translate(62.46 143.46) rotate(-180.0)"/><polyline stroke-linecap="round" stroke="black" stroke-width="3.2" points="-0.0 0 0.0 0" transform="translate(65.532 131.382) rotate(-0.0)"/><polyline stroke-linecap="round" stroke="black" stroke-width="1.0" points="-0.0 0 0.0 0" transform="translate(62.0 163.0) rotate(-90.0)"/><polyline stroke-linecap="round" stroke="black" stroke-width="1.0" points="-0.0 0 0.0 0" transform="translate(64.54 163.0) rotate(-90.0)"/><polyline stroke-linecap="round" stroke="black" stroke-width="1.0" points="-0.0 0 0.0 0" transform="translate(67.08 163.0) rotate(-90.0)"/><polyline stroke-linecap="round" stroke="black" stroke-width="1.0" points="-0.0 0 0.0 0" transform="translate(69.62 163.0) rotate(-90.0)"/><polyline stroke-linecap="round" stroke="black" stroke-width="1.0" points="-0.0 0 0.0 0" transform="translate(72.16 163.0) rotate(-90.0)"/><polyline stroke-linecap="round" stroke="black" stroke-width="1.0" points="-0.0 0 0.0 0" transform="translate(74.7 163.0) rotate(-90.0)"/><polyline stroke-linecap="round" stroke="black" stroke-width="1.0" points="-0.0 0 0.0 0" transform="translate(77.24 163.0) rotate(-90.0)"/><polyline stroke-linecap="round" stroke="black" stroke-width="1.0" points="-0.0 0 0.0 0" transform="translate(79.78 163.0) rotate(-90.0)"/><polyline stroke-linecap="round" stroke="black" stroke-width="1.0" points="-0.0 0 0.0 0" transform="translate(82.32 163.0) rotate(-90.0)"/><polyline stroke-linecap="round" stroke="black" stroke-width="1.0" points="-0.0 0 0.0 0" transform="translate(84.86 163.0) rotate(-90.0)"/><polyline stroke-linecap="round" stroke="black" stroke-width="1.0" points="-0.0 0 0.0 0" transform="translate(87.4 163.0) rotate(-90.0)"/><polyline stroke-linecap="round" stroke="black" stroke-width="1.0" points="-0.0 0 0.0 0" transform="translate(89.94 163.0) rotate(-90.0)"/><polyline stroke-linecap="round" stroke="black" stroke-width="1.0" points="-0.0 0 0.0 0" transform="translate(92.48 163.0) rotate(-90.0)"/><polyline stroke-linecap="round" stroke="black" stroke-width="1.0" points="-0.0 0 0.0 0" transform="translate(95.02 163.0) rotate(-90.0)"/><polyline stroke-linecap="round" stroke="black" stroke-width="1.0" points="-0.0 0 0.0 0" transform="translate(97.56 163.0) rotate(-90.0)"/><polyline stroke-linecap="round" stroke="black" stroke-width="1.0" points="-0.0 0 0.0 0" transform="translate(100.1 163.0) rotate(-90.0)"/><polyline stroke-linecap="round" stroke="black" stroke-width="1.0" points="-0.0 0 0.0 0" transform="translate(102.64 163.0) rotate(-90.0)"/><polyline stroke-linecap="round" stroke="black" stroke-width="1.0" points="-0.0 0 0.0 0" transform="translate(105.18 163.0) rotate(-90.0)"/><polyline stroke-linecap="round" stroke="black" stroke-width="1.0" points="-0.0 0 0.0 0" transform="translate(107.72 163.0) rotate(-90.0)"/><polyline stroke-linecap="round" stroke="black" stroke-width="1.0" points="-0.0 0 0.0 0" transform="translate(110.26 163.0) rotate(-90.0)"/><polyline stroke-linecap="round" stroke="black" stroke-width="1.0" points="-0.0 0 0.0 0" transform="translate(112.8 163.0) rotate(-90.0)"/><polyline stroke-linecap="round" stroke="black" stroke-width="1.0" points="-0.0 0 0.0 0" transform="translate(115.34 163.0) rotate(-90.0)"/><polyline stroke-linecap="round" stroke="black" stroke-width="1.0" points="-0.0 0 0.0 0" transform="translate(117.88 163.0) rotate(-90.0)"/><polyline stroke-linecap="round" stroke="black" stroke-width="1.0" points="-0.0 0 0.0 0" transform="translate(120.42 163.0) rotate(-90.0)"/><polyline stroke-linecap="round" stroke="black" stroke-width="1.0" points="-0.0 0 0.0 0" transform="translate(122.96 163.0) rotate(-90.0)"/><polyline stroke-linecap="round" stroke="black" stroke-width="1.0" points="-0.0 0 0.0 0" transform="translate(125.5 163.0) rotate(-90.0)"/><polyline stroke-linecap="round" stroke="black" stroke-width="1.0" points="-0.0 0 0.0 0" transform="translate(128.04 163.0) rotate(-90.0)"/><polyline stroke-linecap="round" stroke="black" stroke-width="1.0" points="-0.0 0 0.0 0" transform="translate(130.58 163.0) rotate(-90.0)"/><polyline stroke-linecap="round" stroke="black" stroke-width="1.0" points="-0.0 0 0.0 0" transform="translate(133.12 163.0) rotate(-90.0)"/><polyline stroke-linecap="round" stroke="black" stroke-width="1.0" points="-0.0 0 0.0 0" transform="translate(135.66 163.0) rotate(-90.0)"/><polyline stroke-linecap="round" stroke="black" stroke-width="1.0" points="-0.0 0 0.0 0" transform="translate(138.2 163.0) rotate(-90.0)"/><polyline stroke-linecap="round" stroke="black" stroke-width="1.0" points="-0.0 0 0.0 0" transform="translate(140.74 163.0) rotate(-90.0)"/><polyline stroke-linecap="round" stroke="black" stroke-width="1.0" points="-0.0 0 0.0 0" transform="translate(143.28 163.0) rotate(-90.0)"/><polyline stroke-linecap="round" stroke="black" stroke-width="1.0" points="-0.0 0 0.0 0" transform="translate(145.82 163.0) rotate(-90.0)"/><polyline stroke-linecap="round" stroke="black" stroke-width="1.0" points="-0.0 0 0.0 0" transform="translate(148.36 163.0) rotate(-90.0)"/><polyline stroke-linecap="round" stroke="black" stroke-width="1.0" points="-0.0 0 0.0 0" transform="translate(150.9 163.0) rotate(-90.0)"/><polyline stroke-linecap="round" stroke="black" stroke-width="1.0" points="-0.0 0 0.0 0" transform="translate(153.44 163.0) rotate(-90.0)"/><polyline stroke-linecap="round" stroke="black" stroke-width="1.0" points="-0.0 0 0.0 0" transform="translate(155.98 163.0) rotate(-90.0)"/><polyline stroke-linecap="round" stroke="black" stroke-width="1.0" points="-0.0 0 0.0 0" transform="translate(158.52 163.0) rotate(-90.0)"/><polyline stroke-linecap="round" stroke="black" stroke-width="0.3302" points="-0.0 0 0.0 0" transform="translate(92.2126 154.25) rotate(-0.0)"/><polyline stroke-linecap="round" stroke="black" stroke-width="0.3302" points="-0.0 0 0.0 0" transform="translate(100.5 154.25) rotate(-0.0)"/><polyline stroke-linecap="round" stroke="black" stroke-width="0.3302" points="-0.0 0 0.0 0" transform="translate(86.0 115.0) rotate(-0.0)"/><polyline stroke-linecap="round" stroke="black" stroke-width="0.3302" points="-0.0 0 0.0 0" transform="translate(76.0 115.0) rotate(-0.0)"/><polyline stroke-linecap="round" stroke="black" stroke-width="0.3302" points="-0.0 0 0.0 0" transform="translate(81.0 115.0) rotate(-0.0)"/><polyline stroke-linecap="round" stroke="black" stroke-width="0.3302" points="-0.0 0 0.0 0" transform="translate(128.485 158.5) rotate(-0.0)"/><polyline stroke-linecap="round" stroke="black" stroke-width="0.3302" points="-0.0 0 0.0 0" transform="translate(107.0 115.0) rotate(-0.0)"/><polyline stroke-linecap="round" stroke="black" stroke-width="0.3302" points="-0.0 0 0.0 0" transform="translate(126.0 131.0) rotate(-0.0)"/><polyline stroke-linecap="round" stroke="black" stroke-width="0.3302" points="-0.0 0 0.0 0" transform="translate(115.8 141.4) rotate(-0.0)"/><polyline stroke-linecap="round" stroke="black" stroke-width="0.3302" points="-0.0 0 0.0 0" transform="translate(119.0 120.75) rotate(-0.0)"/><polyline stroke-linecap="round" stroke="black" stroke-width="0.3302" points="-0.0 0 0.0 0" transform="translate(83.731069 145.8819) rotate(-0.0)"/><polyline stroke-linecap="round" stroke="black" stroke-width="0.3302" points="-0.0 0 0.0 0" transform="translate(119.25 133.75) rotate(-0.0)"/><polyline stroke-linecap="round" stroke="black" stroke-width="0.3302" points="-0.0 0 0.0 0" transform="translate(115.0 132.25) rotate(-0.0)"/><polyline stroke-linecap="round" stroke="black" stroke-width="0.3302" points="-0.0 0 0.0 0" transform="translate(96.0 115.0) rotate(-0.0)"/><polyline stroke-linecap="round" stroke="black" stroke-width="0.3302" points="-0.0 0 0.0 0" transform="translate(101.0 115.0) rotate(-0.0)"/><polyline stroke-linecap="round" stroke="black" stroke-width="0.3302" points="-0.0 0 0.0 0" transform="translate(143.7021 115.9875) rotate(-0.0)"/><polyline stroke-linecap="round" stroke="black" stroke-width="0.3302" points="-0.0 0 0.0 0" transform="translate(92.955615 158.5037) rotate(-0.0)"/><polyline stroke-linecap="round" stroke="black" stroke-width="0.3302" points="-0.0 0 0.0 0" transform="translate(91.0 115.0) rotate(-0.0)"/><polyline stroke-linecap="round" stroke="black" stroke-width="0.3302" points="-0.0 0 0.0 0" transform="translate(143.8 120.1) rotate(-0.0)"/><polyline stroke-linecap="round" stroke="black" stroke-width="0.3302" points="-0.0 0 0.0 0" transform="translate(123.8 158.5) rotate(-0.0)"/><polyline stroke-linecap="round" stroke="black" stroke-width="0.3302" points="-0.0 0 0.0 0" transform="translate(85.0 154.45) rotate(-0.0)"/><polyline stroke-linecap="round" stroke="black" stroke-width="0.3302" points="-0.0 0 0.0 0" transform="translate(119.537412 145.143729) rotate(-0.0)"/><polyline stroke-linecap="round" stroke="black" stroke-width="0.3302" points="-0.0 0 0.0 0" transform="translate(116.7 145.4) rotate(-0.0)"/><polyline stroke-linecap="round" stroke="black" stroke-width="0.3302" points="-0.0 0 0.0 0" transform="translate(138.8174 145.4681) rotate(-0.0)"/><polyline stroke-linecap="round" stroke="black" stroke-width="0.3302" points="-0.0 0 0.0 0" transform="translate(151.2939 146.2953) rotate(-0.0)"/><polyline stroke-linecap="round" stroke="black" stroke-width="0.3302" points="-0.0 0 0.0 0" transform="translate(144.1607 145.87) rotate(-0.0)"/><polyline stroke-linecap="round" stroke="black" stroke-width="0.3302" points="-0.0 0 0.0 0" transform="translate(124.5 128.0) rotate(-0.0)"/><polyline stroke-linecap="round" stroke="black" stroke-width="0.3302" points="-0.0 0 0.0 0" transform="translate(120.5 124.5) rotate(-0.0)"/><polyline stroke-linecap="round" stroke="black" stroke-width="0.3302" points="-0.0 0 0.0 0" transform="translate(148.5959 146.5043) rotate(-0.0)"/><polyline stroke-linecap="round" stroke="black" stroke-width="0.3302" points="-0.0 0 0.0 0" transform="translate(76.7 156.0) rotate(-0.0)"/><polyline stroke-linecap="round" stroke="black" stroke-width="0.3302" points="-0.0 0 0.0 0" transform="translate(88.500001 150.474799) rotate(-0.0)"/><polyline stroke-linecap="round" stroke="black" stroke-width="0.3302" points="-0.0 0 0.0 0" transform="translate(81.368224 153.118224) rotate(-0.0)"/><polyline stroke-linecap="round" stroke="black" stroke-width="0.3302" points="-0.0 0 0.0 0" transform="translate(85.89591 151.24) rotate(-0.0)"/><polyline stroke-linecap="round" stroke="black" stroke-width="0.3302" points="-0.0 0 0.0 0" transform="translate(76.7 146.0) rotate(-0.0)"/><polyline stroke-linecap="round" stroke="black" stroke-width="0.3302" points="-0.0 0 0.0 0" transform="translate(85.983804 153.4498) rotate(-0.0)"/><polyline stroke-linecap="round" stroke="black" stroke-width="0.3302" points="-0.0 0 0.0 0" transform="translate(76.7 148.5) rotate(-0.0)"/><polyline stroke-linecap="round" stroke="black" stroke-width="0.3302" points="-0.0 0 0.0 0" transform="translate(76.280724 143.919276) rotate(-0.0)"/><polyline stroke-linecap="round" stroke="black" stroke-width="0.3302" points="-0.0 0 0.0 0" transform="translate(72.9566 144.8148) rotate(-0.0)"/><polyline stroke-linecap="round" stroke="black" stroke-width="0.3302" points="-0.0 0 0.0 0" transform="translate(82.9374 159.6) rotate(-0.0)"/><polyline stroke-linecap="round" stroke="black" stroke-width="0.3302" points="-0.0 0 0.0 0" transform="translate(76.7 153.5) rotate(-0.0)"/><polyline stroke-linecap="round" stroke="black" stroke-width="0.3302" points="-0.0 0 0.0 0" transform="translate(78.805238 153.471756) rotate(-0.0)"/><polyline stroke-linecap="round" stroke="black" stroke-width="0.3302" points="-0.0 0 0.0 0" transform="translate(90.5 149.8176) rotate(-0.0)"/><polyline stroke-linecap="round" stroke="black" stroke-width="0.3302" points="-0.0 0 0.0 0" transform="translate(80.874257 151.454431) rotate(-0.0)"/><polyline stroke-linecap="round" stroke="black" stroke-width="0.3302" points="-0.0 0 0.0 0" transform="translate(76.7 151.0) rotate(-0.0)"/><polyline stroke-linecap="round" stroke="black" stroke-width="0.3302" points="-0.0 0 0.0 0" transform="translate(79.176756 151.880846) rotate(-0.0)"/></g></mask></defs><g transform="scale(-1,1)" id="boardContainer"><g id="substrate" clip-path="url(#cut-off)" mask="url(#hole-mask)"><g id="substrate-board" style="fill:#4ca06c; stroke:#4ca06c;"><path d=" M 158.369 127.508 A 1.143 1.143 0 0 0 159.512 128.651 L 160.5 128.651 L 160.5 164.5 L 60.5 164.5 L 60.5 129.5 L 75.5 114.5 L 155.0 114.5 A 5.5 5.5 0 0 1 160.5 120.0 L 160.5 121.539 L 159.512 121.539 A 1.143 1.143 0 0 0 158.369 122.682 L 158.369 127.508 " style="fill-rule: evenodd;"/><g style="fill: none;stroke: #4ca06c;stroke-width: 0.1500;stroke-opacity: 1;stroke-linecap: round;stroke-linejoin: round">
<path d="M158.3690 122.6820 L158.3690 127.5080 "/>
<path d="M160.5000 121.5390 L160.5000 120.0000 "/>
<path d="M155.0000 114.5000 L75.5000 114.5000 "/>
<path d="M160.5000 120.0000 A5.5000 5.5000 0.0 0 0 155.0000 114.5000"/>
<path d="M160.5000 121.5390 L159.5120 121.5390 "/>
<path d="M160.5000 128.6510 L159.5120 128.6510 "/>
<path d="M60.5000 129.5000 L75.5000 114.5000 "/>
<path d="M60.5000 129.5000 L60.5000 164.5000 "/>
<path d="M158.3690 127.5080 A1.1430 1.1430 0.0 0 0 159.5120 128.6510"/>
<path d="M160.5000 164.5000 L160.5000 128.6510 "/>
<path d="M60.5000 164.5000 L160.5000 164.5000 "/>
<path d="M159.5120 121.5390 A1.1430 1.1430 0.0 0 0 158.3690 122.6820"/>
</g> 
</g></g></g></svg>