<?xml version="1.0" standalone="no"?>
 <!DOCTYPE svg PUBLIC "-//W3C//DTD SVG 1.1//EN" 
 "http://www.w3.org/Graphics/SVG/1.1/DTD/svg11.dtd"> 
<svg
  xmlns:svg="http://www.w3.org/2000/svg"
  xmlns="http://www.w3.org/2000/svg"
  xmlns:xlink="http://www.w3.org/1999/xlink"
  version="1.1"
  width="297.0022mm" height="210.0072mm" viewBox="0.0000 0.0000 297.0022 210.0072">
<title>SVG Image created as rcbus-opl3-B_Cu0.svg date 2025/10/05 23:07:25 </title>
  <desc>Image generated by PCBNEW </desc>
<g style="fill:#000000; fill-opacity:1.0000;stroke:#000000; stroke-opacity:1.0000;
stroke-linecap:round; stroke-linejoin:round;"
 transform="translate(0 0) scale(1 1)">
<path style="fill:#000000; fill-opacity:1.0000; stroke:none;fill-rule:evenodd;"
d="M 147.1832,129.6950
147.1832,131.4950
149.6832,131.4950
149.6832,129.6950
Z" /> 
<path style="fill:#000000; fill-opacity:1.0000; stroke:none;fill-rule:evenodd;"
d="M 147.1832,127.1950
147.1832,128.9950
149.6832,128.9950
149.6832,127.1950
Z" /> 
<path style="fill:#000000; fill-opacity:1.0000; stroke:none;fill-rule:evenodd;"
d="M 142.5332,124.3450
142.5332,126.8450
144.3332,126.8450
144.3332,124.3450
Z" /> 
<path style="fill:#000000; fill-opacity:1.0000; stroke:none;fill-rule:evenodd;"
d="M 147.1832,119.6950
147.1832,121.4950
149.6832,121.4950
149.6832,119.6950
Z" /> 
<path style="fill:#000000; fill-opacity:1.0000; stroke:none;fill-rule:evenodd;"
d="M 147.1832,122.1950
147.1832,123.9950
149.6832,123.9950
149.6832,122.1950
Z" /> 
<path style="fill:#000000; fill-opacity:1.0000; stroke:none;fill-rule:evenodd;"
d="M 231.1522,153.3100
231.1522,155.0100
232.8522,155.0100
232.8522,153.3100
Z" /> 
</g>
<g style="fill:#000000; fill-opacity:1.0000; stroke:none;">
<circle cx="234.5422" cy="154.1600" r="0.8500" /> 
</g>
<g style="fill:#000000; fill-opacity:1.0000; stroke:none;">
<circle cx="232.0022" cy="151.6200" r="0.8500" /> 
</g>
<g style="fill:#000000; fill-opacity:1.0000; stroke:none;">
<circle cx="234.5422" cy="151.6200" r="0.8500" /> 
</g>
<g style="fill:#000000; fill-opacity:1.0000; stroke:none;">
<circle cx="232.0022" cy="149.0800" r="0.8500" /> 
</g>
<g style="fill:#000000; fill-opacity:1.0000; stroke:none;">
<circle cx="234.5422" cy="149.0800" r="0.8500" /> 
</g>
<g style="fill:#000000; fill-opacity:1.0000; stroke:none;">
<circle cx="232.0022" cy="146.5400" r="0.8500" /> 
</g>
<g style="fill:#000000; fill-opacity:1.0000; stroke:none;">
<circle cx="234.5422" cy="146.5400" r="0.8500" /> 
</g>
<g style="fill:#000000; fill-opacity:1.0000; stroke:none;">
<circle cx="232.0022" cy="144.0000" r="0.8500" /> 
</g>
<g style="fill:#000000; fill-opacity:1.0000; stroke:none;">
<circle cx="234.5422" cy="144.0000" r="0.8500" /> 
</g>
<g style="fill:#000000; fill-opacity:1.0000; stroke:none;">
<circle cx="232.0022" cy="141.4600" r="0.8500" /> 
</g>
<g style="fill:#000000; fill-opacity:1.0000; stroke:none;">
<circle cx="234.5422" cy="141.4600" r="0.8500" /> 
<path style="fill:#000000; fill-opacity:1.0000; stroke:none;fill-rule:evenodd;"
d="M 234.6522,164.3500
236.3522,164.3500
236.3522,162.6500
234.6522,162.6500
Z" /> 
</g>
<g style="fill:#000000; fill-opacity:1.0000; stroke:none;">
<circle cx="232.9622" cy="163.5000" r="0.8500" /> 
<circle cx="230.4222" cy="163.5000" r="0.8500" /> 
<circle cx="227.8822" cy="163.5000" r="0.8500" /> 
<circle cx="225.3422" cy="163.5000" r="0.8500" /> 
<circle cx="222.8022" cy="163.5000" r="0.8500" /> 
<circle cx="220.2622" cy="163.5000" r="0.8500" /> 
<circle cx="217.7222" cy="163.5000" r="0.8500" /> 
<circle cx="215.1822" cy="163.5000" r="0.8500" /> 
<circle cx="212.6422" cy="163.5000" r="0.8500" /> 
<circle cx="210.1022" cy="163.5000" r="0.8500" /> 
<circle cx="207.5622" cy="163.5000" r="0.8500" /> 
<circle cx="205.0222" cy="163.5000" r="0.8500" /> 
<circle cx="202.4822" cy="163.5000" r="0.8500" /> 
<circle cx="199.9422" cy="163.5000" r="0.8500" /> 
<circle cx="197.4022" cy="163.5000" r="0.8500" /> 
<circle cx="194.8622" cy="163.5000" r="0.8500" /> 
<circle cx="192.3222" cy="163.5000" r="0.8500" /> 
<circle cx="189.7822" cy="163.5000" r="0.8500" /> 
<circle cx="187.2422" cy="163.5000" r="0.8500" /> 
<circle cx="184.7022" cy="163.5000" r="0.8500" /> 
<circle cx="182.1622" cy="163.5000" r="0.8500" /> 
<circle cx="179.6222" cy="163.5000" r="0.8500" /> 
<circle cx="177.0822" cy="163.5000" r="0.8500" /> 
<circle cx="174.5422" cy="163.5000" r="0.8500" /> 
<circle cx="172.0022" cy="163.5000" r="0.8500" /> 
<circle cx="169.4622" cy="163.5000" r="0.8500" /> 
<circle cx="166.9222" cy="163.5000" r="0.8500" /> 
<circle cx="164.3822" cy="163.5000" r="0.8500" /> 
<circle cx="161.8422" cy="163.5000" r="0.8500" /> 
<circle cx="159.3022" cy="163.5000" r="0.8500" /> 
<circle cx="156.7622" cy="163.5000" r="0.8500" /> 
<circle cx="154.2222" cy="163.5000" r="0.8500" /> 
<circle cx="151.6822" cy="163.5000" r="0.8500" /> 
<circle cx="149.1422" cy="163.5000" r="0.8500" /> 
<circle cx="146.6022" cy="163.5000" r="0.8500" /> 
<circle cx="144.0622" cy="163.5000" r="0.8500" /> 
<circle cx="141.5222" cy="163.5000" r="0.8500" /> 
<circle cx="138.9822" cy="163.5000" r="0.8500" /> 
<circle cx="192.0022" cy="156.5405" r="0.3429" /> 
</g>
<g style="fill:#000000; fill-opacity:1.0000; stroke:none;">
<circle cx="222.1022" cy="151.5000" r="0.3429" /> 
</g>
<g style="fill:#000000; fill-opacity:1.0000; stroke:none;">
<circle cx="167.7022" cy="158.0000" r="0.3429" /> 
</g>
<g style="fill:#000000; fill-opacity:1.0000; stroke:none;">
<circle cx="176.6022" cy="137.6000" r="0.3429" /> 
</g>
<g style="fill:#000000; fill-opacity:1.0000; stroke:none;">
<circle cx="172.4260" cy="130.4301" r="0.3429" /> 
</g>
<g style="fill:#000000; fill-opacity:1.0000; stroke:none;">
<circle cx="222.1022" cy="154.0000" r="0.3429" /> 
</g>
<g style="fill:#000000; fill-opacity:1.0000; stroke:none;">
<circle cx="222.1022" cy="144.0000" r="0.3429" /> 
</g>
<g style="fill:#000000; fill-opacity:1.0000; stroke:none;">
<circle cx="199.5022" cy="145.5000" r="0.3429" /> 
</g>
<g style="fill:#000000; fill-opacity:1.0000; stroke:none;">
<circle cx="155.5272" cy="124.4000" r="0.3429" /> 
</g>
<g style="fill:#000000; fill-opacity:1.0000; stroke:none;">
<circle cx="214.2022" cy="147.4000" r="0.3429" /> 
</g>
<g style="fill:#000000; fill-opacity:1.0000; stroke:none;">
<circle cx="199.5022" cy="156.0000" r="0.3429" /> 
</g>
<g style="fill:#000000; fill-opacity:1.0000; stroke:none;">
<circle cx="180.8022" cy="141.7000" r="0.3429" /> 
</g>
<g style="fill:#000000; fill-opacity:1.0000; stroke:none;">
<circle cx="214.2022" cy="142.5000" r="0.3429" /> 
</g>
<g style="fill:#000000; fill-opacity:1.0000; stroke:none;">
<circle cx="173.5022" cy="121.2329" r="0.3429" /> 
</g>
<g style="fill:#000000; fill-opacity:1.0000; stroke:none;">
<circle cx="222.1022" cy="146.5000" r="0.3429" /> 
</g>
<g style="fill:#000000; fill-opacity:1.0000; stroke:none;">
<circle cx="222.1022" cy="141.5000" r="0.3429" /> 
</g>
<g style="fill:#000000; fill-opacity:1.0000; stroke:none;">
<circle cx="155.5272" cy="134.4000" r="0.3429" /> 
</g>
<g style="fill:#000000; fill-opacity:1.0000; stroke:none;">
<circle cx="190.6022" cy="127.8000" r="0.3429" /> 
</g>
<g style="fill:#000000; fill-opacity:1.0000; stroke:none;">
<circle cx="175.6022" cy="144.0000" r="0.3429" /> 
</g>
<g style="fill:#000000; fill-opacity:1.0000; stroke:none;">
<circle cx="205.2872" cy="156.5000" r="0.3429" /> 
</g>
<g style="fill:#000000; fill-opacity:1.0000; stroke:none;">
<circle cx="222.1022" cy="149.0000" r="0.3429" /> 
</g>
<g style="fill:#000000; fill-opacity:1.0000; stroke:none;">
<circle cx="174.2022" cy="130.5000" r="0.3429" /> 
</g>
<g style="fill:#000000; fill-opacity:1.0000; stroke:none;">
<circle cx="186.3022" cy="152.4000" r="0.3429" /> 
</g>
<g style="fill:#000000; fill-opacity:1.0000; stroke:none;">
<circle cx="195.3022" cy="161.4524" r="0.3429" /> 
</g>
<g style="fill:#000000; fill-opacity:1.0000; stroke:none;">
<circle cx="171.3022" cy="152.9000" r="0.3429" /> 
</g>
<g style="fill:#000000; fill-opacity:1.0000; stroke:none;">
<circle cx="179.6022" cy="153.0000" r="0.3429" /> 
</g>
<g style="fill:#000000; fill-opacity:1.0000; stroke:none;">
<circle cx="185.1022" cy="159.6000" r="0.3429" /> 
</g>
<g style="fill:#000000; fill-opacity:1.0000; stroke:none;">
<circle cx="204.4988" cy="157.4000" r="0.3429" /> 
</g>
<g style="fill:#000000; fill-opacity:1.0000; stroke:none;">
<circle cx="182.5810" cy="157.0923" r="0.3429" /> 
</g>
<g style="fill:#000000; fill-opacity:1.0000; stroke:none;">
<circle cx="201.2522" cy="158.4000" r="0.3429" /> 
</g>
<g style="fill:#000000; fill-opacity:1.0000; stroke:none;">
<circle cx="215.2553" cy="149.1726" r="0.3429" /> 
</g>
<g style="fill:#000000; fill-opacity:1.0000; stroke:none;">
<circle cx="211.5714" cy="153.5000" r="0.3429" /> 
</g>
<g style="fill:#000000; fill-opacity:1.0000; stroke:none;">
<circle cx="213.2295" cy="149.1514" r="0.3429" /> 
</g>
<g style="fill:#000000; fill-opacity:1.0000; stroke:none;">
<circle cx="209.1286" cy="153.5000" r="0.3429" /> 
</g>
<g style="fill:#000000; fill-opacity:1.0000; stroke:none;">
<circle cx="216.0073" cy="148.2812" r="0.3429" /> 
</g>
<g style="fill:#000000; fill-opacity:1.0000; stroke:none;">
<circle cx="214.2022" cy="153.5000" r="0.3429" /> 
</g>
<g style="fill:#000000; fill-opacity:1.0000; stroke:none;">
<circle cx="219.1022" cy="151.5000" r="0.3429" /> 
</g>
<g style="fill:#000000; fill-opacity:1.0000; stroke:none;">
<circle cx="215.8236" cy="152.5582" r="0.3429" /> 
</g>
<g style="fill:#000000; fill-opacity:1.0000; stroke:none;">
<circle cx="209.1022" cy="150.4426" r="0.3429" /> 
</g>
<g style="fill:#000000; fill-opacity:1.0000; stroke:none;">
<circle cx="206.5485" cy="153.0463" r="0.3429" /> 
</g>
<g style="fill:none; 
stroke:#000000; stroke-width:0.7620; stroke-opacity:1; 
stroke-linecap:round; stroke-linejoin:round;">
<path d="M192.3222 163.5000
L192.3222 156.8605
" />
<path d="M192.3222 156.8605
L192.0022 156.5405
" />
</g>
<g style="fill:none; 
stroke:#000000; stroke-width:0.3810; stroke-opacity:1; 
stroke-linecap:round; stroke-linejoin:round;">
<path d="M197.8946 161.4524
L199.9422 163.5000
" />
<path d="M195.3022 161.4524
L197.8946 161.4524
" />
<path d="M171.4022 153.0000
L171.3022 152.9000
" />
<path d="M179.6022 153.0000
L171.4022 153.0000
" />
<path d="M185.1022 159.6000
L185.1022 161.3600
" />
<path d="M185.1022 161.3600
L187.2422 163.5000
" />
<path d="M178.4099 157.0923
L182.5810 157.0923
" />
<path d="M172.0022 163.5000
L178.4099 157.0923
" />
<path d="M204.4988 157.4000
L203.4988 158.4000
" />
<path d="M203.4988 158.4000
L201.2522 158.4000
" />
<path d="M211.5714 153.3868
L215.2553 149.7029
" />
<path d="M211.5714 153.5000
L211.5714 153.3868
" />
<path d="M215.2553 149.7029
L215.2553 149.1726
" />
<path d="M213.2295 149.3254
L209.1286 153.4264
" />
<path d="M213.2295 149.1514
L213.2295 149.3254
" />
<path d="M209.1286 153.4264
L209.1286 153.5000
" />
<path d="M216.1663 151.1011
L214.2022 153.0652
" />
<path d="M216.0073 148.2812
L216.1663 148.4402
" />
<path d="M214.2022 153.0652
L214.2022 153.5000
" />
<path d="M216.1663 148.4402
L216.1663 151.1011
" />
<path d="M219.1022 151.5000
L216.8805 151.5000
" />
<path d="M216.8805 151.5000
L215.8236 152.5569
" />
<path d="M215.8236 152.5569
L215.8236 152.5582
" />
<path d="M206.5485 153.0463
L209.1022 150.4926
" />
<path d="M209.1022 150.4926
L209.1022 150.4426
" />
<path style="fill:#000000; fill-opacity:1.0000; stroke:none;fill-rule:evenodd;"
d="M 142.4996,115.5006
142.0945,115.5174
142.0842,115.5182
141.6845,115.5680
141.6742,115.5698
141.2800,115.6524
141.2699,115.6550
140.8839,115.7699
140.8740,115.7733
140.4988,115.9197
140.4892,115.9239
140.1488,116.0903
140.1274,116.1008
140.1182,116.1057
139.7722,116.3119
139.7635,116.3176
139.6149,116.4237
139.4357,116.5517
139.4275,116.5581
139.1201,116.8184
139.1124,116.8254
138.8276,117.1102
138.8206,117.1179
138.5603,117.4253
138.5539,117.4335
138.3198,117.7613
138.3141,117.7700
138.1079,118.1160
138.1030,118.1252
137.9261,118.4870
137.9219,118.4966
137.7755,118.8718
137.7721,118.8817
137.6572,119.2677
137.6546,119.2778
137.5720,119.6720
137.5702,119.6823
137.5204,120.0820
137.5196,120.0924
137.5028,120.4974
137.5027,120.5026
137.5027,121.4125
137.5227,121.4806
137.5764,121.5271
137.6287,121.5385
138.1078,121.5385
138.3404,121.5720
138.5660,121.6382
138.7799,121.7358
138.9776,121.8629
139.1553,122.0169
139.3093,122.1946
139.4364,122.3923
139.5340,122.6062
139.6002,122.8318
139.6337,123.0644
139.6337,128.1256
139.6002,128.3582
139.5340,128.5838
139.4364,128.7977
139.3093,128.9954
139.1553,129.1731
138.9776,129.3270
138.7822,129.4527
138.7799,129.4541
138.5660,129.5518
138.3404,129.6180
138.1077,129.6515
138.0561,129.6515
137.6287,129.6515
137.5606,129.6715
137.5141,129.7252
137.5027,129.7775
137.5027,162.9041
137.5227,162.9722
137.5764,163.0187
137.6466,163.0288
137.7112,162.9993
137.7410,162.9613
137.8271,162.7922
137.9521,162.6202
137.9521,162.6202
137.9521,162.6202
138.1024,162.4699
138.1024,162.4699
138.1024,162.4699
138.2744,162.3449
138.4638,162.2484
138.6660,162.1828
138.8759,162.1495
139.0885,162.1495
139.2984,162.1828
139.2984,162.1828
139.2984,162.1828
139.5006,162.2484
139.5006,162.2484
139.6900,162.3450
139.8620,162.4699
139.8620,162.4699
140.0123,162.6202
140.0123,162.6202
140.1373,162.7922
140.1399,162.7975
140.1887,162.8491
140.2576,162.8661
140.3248,162.8432
140.3645,162.7975
140.3671,162.7922
140.3672,162.7922
140.4921,162.6202
140.4921,162.6202
140.4921,162.6202
140.6424,162.4699
140.6424,162.4699
140.6424,162.4699
140.8144,162.3449
141.0038,162.2484
141.2060,162.1828
141.4159,162.1495
141.6285,162.1495
141.8384,162.1828
141.8384,162.1828
141.8384,162.1828
142.0406,162.2484
142.0406,162.2484
142.2300,162.3450
142.4020,162.4699
142.4020,162.4699
142.5523,162.6202
142.5523,162.6202
142.6773,162.7922
142.6799,162.7975
142.7287,162.8491
142.7976,162.8661
142.8648,162.8432
142.9045,162.7975
142.9072,162.7922
142.9072,162.7922
143.0321,162.6202
143.0321,162.6202
143.0321,162.6202
143.1824,162.4699
143.1824,162.4699
143.1824,162.4699
143.3544,162.3449
143.5438,162.2484
143.7460,162.1828
143.9559,162.1495
144.1685,162.1495
144.3784,162.1828
144.3784,162.1828
144.3784,162.1828
144.5806,162.2484
144.5806,162.2484
144.7700,162.3450
144.9420,162.4699
144.9420,162.4699
145.0923,162.6202
145.0923,162.6202
145.2173,162.7922
145.2199,162.7975
145.2687,162.8491
145.3376,162.8661
145.4048,162.8432
145.4445,162.7975
145.4471,162.7922
145.4472,162.7922
145.5721,162.6202
145.5721,162.6202
145.5721,162.6202
145.7224,162.4699
145.7224,162.4699
145.7224,162.4699
145.8944,162.3449
146.0838,162.2484
146.2860,162.1828
146.4959,162.1495
146.7085,162.1495
146.9184,162.1828
146.9184,162.1828
146.9184,162.1828
147.1206,162.2484
147.1206,162.2484
147.3100,162.3450
147.4820,162.4699
147.4820,162.4699
147.6323,162.6202
147.6323,162.6202
147.7573,162.7922
147.7599,162.7975
147.8087,162.8491
147.8776,162.8661
147.9448,162.8432
147.9845,162.7975
147.9871,162.7922
147.9872,162.7922
148.1121,162.6202
148.1121,162.6202
148.1121,162.6202
148.2624,162.4699
148.2624,162.4699
148.2624,162.4699
148.4344,162.3449
148.6238,162.2484
148.8260,162.1828
149.0359,162.1495
149.2485,162.1495
149.4584,162.1828
149.4584,162.1828
149.4584,162.1828
149.6606,162.2484
149.6606,162.2484
149.8500,162.3450
150.0220,162.4699
150.0220,162.4699
150.1723,162.6202
150.1723,162.6202
150.2973,162.7922
150.2999,162.7975
150.3487,162.8491
150.4176,162.8661
150.4848,162.8432
150.5245,162.7975
150.5272,162.7922
150.5272,162.7922
150.6521,162.6202
150.6521,162.6202
150.6521,162.6202
150.8024,162.4699
150.8024,162.4699
150.8024,162.4699
150.9744,162.3449
151.1638,162.2484
151.3660,162.1828
151.5759,162.1495
151.7885,162.1495
151.9984,162.1828
151.9984,162.1828
151.9984,162.1828
152.2006,162.2484
152.2006,162.2484
152.3900,162.3450
152.5620,162.4699
152.5620,162.4699
152.7123,162.6202
152.7123,162.6202
152.8373,162.7922
152.8399,162.7975
152.8887,162.8491
152.9576,162.8661
153.0248,162.8432
153.0645,162.7975
153.0671,162.7922
153.0672,162.7922
153.1921,162.6202
153.1921,162.6202
153.1921,162.6202
153.3424,162.4699
153.3424,162.4699
153.3424,162.4699
153.5144,162.3449
153.7038,162.2484
153.9060,162.1828
154.1159,162.1495
154.3285,162.1495
154.5384,162.1828
154.5384,162.1828
154.5384,162.1828
154.7406,162.2484
154.7406,162.2484
154.9300,162.3450
155.1020,162.4699
155.1020,162.4699
155.2523,162.6202
155.2523,162.6202
155.3773,162.7922
155.3799,162.7975
155.4287,162.8491
155.4976,162.8661
155.5648,162.8432
155.6045,162.7975
155.6071,162.7922
155.6072,162.7922
155.7321,162.6202
155.7321,162.6202
155.7321,162.6202
155.8824,162.4699
155.8824,162.4699
155.8824,162.4699
156.0544,162.3449
156.2438,162.2484
156.4460,162.1828
156.6559,162.1495
156.8685,162.1495
157.0784,162.1828
157.0784,162.1828
157.0784,162.1828
157.2806,162.2484
157.2806,162.2484
157.4700,162.3450
157.6420,162.4699
157.6420,162.4699
157.7923,162.6202
157.7923,162.6202
157.9173,162.7922
157.9199,162.7975
157.9687,162.8491
158.0376,162.8661
158.1048,162.8432
158.1445,162.7975
158.1471,162.7922
158.1472,162.7922
158.2721,162.6202
158.2721,162.6202
158.2721,162.6202
158.4224,162.4699
158.4224,162.4699
158.4224,162.4699
158.5944,162.3449
158.7838,162.2484
158.9860,162.1828
159.1959,162.1495
159.4085,162.1495
159.6184,162.1828
159.6184,162.1828
159.6184,162.1828
159.8206,162.2484
159.8206,162.2484
160.0100,162.3450
160.1820,162.4699
160.1820,162.4699
160.3323,162.6202
160.3323,162.6202
160.4573,162.7922
160.4599,162.7975
160.5087,162.8491
160.5776,162.8661
160.6448,162.8432
160.6845,162.7975
160.6872,162.7922
160.6872,162.7922
160.8121,162.6202
160.8121,162.6202
160.8121,162.6202
160.9624,162.4699
160.9624,162.4699
160.9624,162.4699
161.1344,162.3449
161.3238,162.2484
161.5260,162.1828
161.7359,162.1495
161.9485,162.1495
162.1584,162.1828
162.1584,162.1828
162.1584,162.1828
162.3606,162.2484
162.3606,162.2484
162.5500,162.3450
162.7220,162.4699
162.7220,162.4699
162.8723,162.6202
162.8723,162.6202
162.9973,162.7922
162.9999,162.7975
163.0487,162.8491
163.1176,162.8661
163.1848,162.8432
163.2245,162.7975
163.2271,162.7922
163.2272,162.7922
163.3521,162.6202
163.3521,162.6202
163.3521,162.6202
163.5024,162.4699
163.5024,162.4699
163.5024,162.4699
163.6744,162.3449
163.8638,162.2484
164.0660,162.1828
164.2759,162.1495
164.4885,162.1495
164.6984,162.1828
164.6984,162.1828
164.6984,162.1828
164.9006,162.2484
164.9006,162.2484
165.0900,162.3450
165.2620,162.4699
165.2620,162.4699
165.4123,162.6202
165.4123,162.6202
165.5373,162.7922
165.5399,162.7975
165.5887,162.8491
165.6576,162.8661
165.7248,162.8432
165.7645,162.7975
165.7671,162.7922
165.7672,162.7922
165.8921,162.6202
165.8921,162.6202
165.8921,162.6202
166.0424,162.4699
166.0424,162.4699
166.0424,162.4699
166.2144,162.3449
166.4038,162.2484
166.6060,162.1828
166.8159,162.1495
167.0285,162.1495
167.2384,162.1828
167.2384,162.1828
167.2384,162.1828
167.4406,162.2484
167.4406,162.2484
167.6300,162.3450
167.8020,162.4699
167.8020,162.4699
167.9523,162.6202
167.9523,162.6202
168.0773,162.7922
168.0799,162.7975
168.1287,162.8491
168.1976,162.8661
168.2648,162.8432
168.3045,162.7975
168.3071,162.7922
168.3072,162.7922
168.4321,162.6202
168.4321,162.6202
168.4321,162.6202
168.5824,162.4699
168.5824,162.4699
168.5824,162.4699
168.7544,162.3449
168.9438,162.2484
169.1460,162.1828
169.3559,162.1495
169.5685,162.1495
169.7784,162.1828
169.7784,162.1828
169.7784,162.1828
169.9806,162.2484
169.9806,162.2484
170.1700,162.3450
170.3420,162.4699
170.3420,162.4699
170.4923,162.6202
170.4923,162.6202
170.6173,162.7922
170.6199,162.7975
170.6687,162.8491
170.7376,162.8661
170.8048,162.8432
170.8445,162.7975
170.8471,162.7922
170.8472,162.7922
170.9721,162.6202
170.9721,162.6202
170.9721,162.6202
171.1224,162.4699
171.1224,162.4699
171.1224,162.4699
171.2944,162.3449
171.4838,162.2484
171.6860,162.1828
171.8959,162.1495
172.1085,162.1495
172.2756,162.1760
172.3460,162.1669
172.3844,162.1406
177.9694,156.5556
177.9694,156.5556
177.9708,156.5547
178.0826,156.4799
178.1460,156.4537
178.2083,156.4279
178.2083,156.4279
178.3418,156.4013
178.3418,156.4013
182.0588,156.4013
182.1269,156.3813
182.1288,156.3801
182.1815,156.3449
182.3349,156.2813
182.3349,156.2813
182.4979,156.2489
182.4979,156.2489
182.6640,156.2489
182.6640,156.2489
182.8270,156.2813
182.8270,156.2813
182.9805,156.3449
183.1186,156.4372
183.1186,156.4372
183.2361,156.5547
183.2361,156.5547
183.3284,156.6928
183.3919,156.8463
183.3919,156.8463
183.4244,157.0092
183.4244,157.1754
183.4158,157.2183
183.3919,157.3383
183.3284,157.4918
183.2851,157.5566
183.2361,157.6299
183.2361,157.6299
183.1186,157.7474
183.1186,157.7474
182.9805,157.8397
182.8270,157.9033
182.6640,157.9357
182.6640,157.9357
182.4979,157.9357
182.4979,157.9357
182.3349,157.9033
182.1815,157.8397
182.1288,157.8045
182.0611,157.7833
182.0588,157.7833
178.7483,157.7833
178.6802,157.8033
178.6592,157.8202
174.5450,161.9344
174.5110,161.9967
174.5161,162.0675
174.5586,162.1244
174.6251,162.1492
174.6341,162.1495
174.6485,162.1495
174.8584,162.1828
174.8584,162.1828
174.8584,162.1828
175.0606,162.2484
175.0606,162.2484
175.2500,162.3450
175.4220,162.4699
175.4220,162.4699
175.5723,162.6202
175.5723,162.6202
175.6973,162.7922
175.6999,162.7975
175.7487,162.8491
175.8176,162.8661
175.8848,162.8432
175.9245,162.7975
175.9271,162.7922
175.9272,162.7922
176.0521,162.6202
176.0521,162.6202
176.0521,162.6202
176.2024,162.4699
176.2024,162.4699
176.2024,162.4699
176.3744,162.3449
176.5638,162.2484
176.7660,162.1828
176.9759,162.1495
177.1885,162.1495
177.3984,162.1828
177.3984,162.1828
177.3984,162.1828
177.6006,162.2484
177.6006,162.2484
177.7900,162.3450
177.9620,162.4699
177.9620,162.4699
178.1123,162.6202
178.1123,162.6202
178.2373,162.7922
178.2399,162.7975
178.2887,162.8491
178.3576,162.8661
178.4248,162.8432
178.4645,162.7975
178.4672,162.7922
178.4672,162.7922
178.5921,162.6202
178.5921,162.6202
178.5921,162.6202
178.7424,162.4699
178.7424,162.4699
178.7424,162.4699
178.9144,162.3449
179.1038,162.2484
179.3060,162.1828
179.5159,162.1495
179.7285,162.1495
179.9384,162.1828
179.9384,162.1828
179.9384,162.1828
180.1406,162.2484
180.1406,162.2484
180.3300,162.3450
180.5020,162.4699
180.5020,162.4699
180.6523,162.6202
180.6523,162.6202
180.7773,162.7922
180.7799,162.7975
180.8287,162.8491
180.8976,162.8661
180.9648,162.8432
181.0045,162.7975
181.0071,162.7922
181.0072,162.7922
181.1321,162.6202
181.1321,162.6202
181.1321,162.6202
181.2824,162.4699
181.2824,162.4699
181.2824,162.4699
181.4544,162.3449
181.6438,162.2484
181.8460,162.1828
182.0559,162.1495
182.2685,162.1495
182.4784,162.1828
182.4784,162.1828
182.4784,162.1828
182.6806,162.2484
182.6806,162.2484
182.8700,162.3450
183.0420,162.4699
183.0420,162.4699
183.1923,162.6202
183.1923,162.6202
183.3173,162.7922
183.3199,162.7975
183.3687,162.8491
183.4376,162.8661
183.5048,162.8432
183.5445,162.7975
183.5471,162.7922
183.5472,162.7922
183.6721,162.6202
183.6721,162.6202
183.6721,162.6202
183.8224,162.4699
183.8224,162.4699
183.8224,162.4699
183.9944,162.3449
184.1838,162.2484
184.3860,162.1828
184.5959,162.1495
184.6103,162.1495
184.6784,162.1295
184.7249,162.0758
184.7350,162.0056
184.7055,161.9410
184.6994,161.9344
184.6637,161.8987
184.5655,161.8005
184.4898,161.6873
184.4378,161.5616
184.4112,161.4281
184.4112,160.1221
184.3912,160.0540
184.3900,160.0522
184.3548,159.9995
184.2912,159.8460
184.2588,159.6831
184.2588,159.5169
184.2912,159.3540
184.3548,159.2005
184.4471,159.0624
184.4471,159.0624
184.5646,158.9449
184.5646,158.9449
184.6104,158.9143
184.7027,158.8526
184.8562,158.7890
185.0191,158.7566
185.0191,158.7566
185.1853,158.7566
185.1853,158.7566
185.3482,158.7890
185.3482,158.7890
185.5017,158.8526
185.6398,158.9449
185.6398,158.9449
185.7573,159.0624
185.7573,159.0624
185.8496,159.2005
185.9132,159.3540
185.9132,159.3540
185.9456,159.5169
185.9456,159.6831
185.9132,159.8460
185.9132,159.8460
185.8496,159.9995
185.8496,159.9995
185.8496,159.9995
185.8144,160.0521
185.7932,160.1199
185.7932,160.1221
185.7932,161.0216
185.8132,161.0897
185.8301,161.1107
186.8600,162.1406
186.9223,162.1746
186.9688,162.1760
187.0647,162.1608
187.1359,162.1495
187.3485,162.1495
187.5584,162.1828
187.5584,162.1828
187.5584,162.1828
187.7606,162.2484
187.7606,162.2484
187.9500,162.3450
188.1220,162.4699
188.1220,162.4699
188.2723,162.6202
188.2723,162.6202
188.3973,162.7922
188.3999,162.7975
188.4487,162.8491
188.5176,162.8661
188.5848,162.8432
188.6245,162.7975
188.6272,162.7922
188.6272,162.7922
188.7521,162.6202
188.7521,162.6202
188.7521,162.6202
188.9024,162.4699
188.9024,162.4699
188.9024,162.4699
189.0744,162.3449
189.2638,162.2484
189.4660,162.1828
189.6759,162.1495
189.8885,162.1495
190.0984,162.1828
190.0984,162.1828
190.0984,162.1828
190.3006,162.2484
190.3006,162.2484
190.4900,162.3450
190.6620,162.4699
190.6620,162.4699
190.8123,162.6202
190.8123,162.6202
190.9373,162.7922
190.9399,162.7975
190.9887,162.8491
191.0576,162.8661
191.1248,162.8432
191.1645,162.7975
191.1671,162.7922
191.1672,162.7922
191.2921,162.6202
191.2921,162.6202
191.2921,162.6202
191.4038,162.5085
191.4378,162.4462
191.4407,162.4194
191.4407,157.2778
191.4207,157.2097
191.4038,157.1887
191.3175,157.1024
191.2210,156.9580
191.1546,156.7976
191.1207,156.6273
191.1207,156.4537
191.1546,156.2834
191.2210,156.1230
191.3175,155.9786
191.3175,155.9786
191.4403,155.8558
191.4403,155.8558
191.4882,155.8238
191.5847,155.7593
191.6858,155.7174
191.7451,155.6929
191.7451,155.6929
191.9154,155.6590
191.9154,155.6590
192.0890,155.6590
192.0890,155.6590
192.2593,155.6929
192.2593,155.6929
192.4197,155.7593
192.5641,155.8558
192.5641,155.8558
193.0069,156.2986
193.1034,156.4430
193.1698,156.6034
193.1698,156.6034
193.2010,156.7600
193.2010,156.7600
193.2037,156.7737
193.2037,162.4194
193.2237,162.4875
193.2406,162.5085
193.3523,162.6202
193.3523,162.6202
193.4772,162.7922
193.5738,162.9816
193.5738,162.9816
193.5858,163.0187
193.6394,163.1838
193.6727,163.3937
193.6727,163.6063
193.6394,163.8162
193.5738,164.0184
193.5343,164.0959
193.4772,164.2078
193.4107,164.2994
193.3868,164.3663
193.4029,164.4355
193.4538,164.4849
193.5126,164.4995
196.2118,164.4995
196.2799,164.4795
196.3264,164.4258
196.3365,164.3556
196.3137,164.2994
196.2471,164.2078
196.1506,164.0184
196.0850,163.8162
196.0517,163.6063
196.0517,163.3937
196.0850,163.1838
196.1506,162.9816
196.2471,162.7922
196.3721,162.6202
196.3721,162.6202
196.3721,162.6202
196.5224,162.4699
196.5224,162.4699
196.5224,162.4699
196.6581,162.3713
196.7014,162.3151
196.7075,162.2444
196.6744,162.1816
196.6125,162.1467
196.5840,162.1434
195.8243,162.1434
195.7562,162.1634
195.7543,162.1646
195.7471,162.1694
195.7017,162.1998
195.5482,162.2634
195.3853,162.2958
195.3853,162.2958
195.2191,162.2958
195.2191,162.2958
195.0562,162.2634
194.9027,162.1998
194.7646,162.1075
194.6471,161.9900
194.5548,161.8519
194.4912,161.6984
194.4588,161.5355
194.4588,161.3693
194.4912,161.2064
194.5548,161.0529
194.6471,160.9148
194.6471,160.9148
194.7646,160.7973
194.7646,160.7973
194.8183,160.7614
194.9027,160.7050
195.0562,160.6414
195.2191,160.6090
195.2191,160.6090
195.3853,160.6090
195.3853,160.6090
195.5482,160.6414
195.5482,160.6414
195.7017,160.7050
195.7543,160.7402
195.8221,160.7614
195.8243,160.7614
197.9627,160.7614
198.0962,160.7880
198.0962,160.7880
198.2219,160.8400
198.3351,160.9157
198.3351,160.9157
199.5600,162.1406
199.6223,162.1746
199.6688,162.1760
199.8359,162.1495
200.0485,162.1495
200.2584,162.1828
200.2584,162.1828
200.2584,162.1828
200.4606,162.2484
200.4606,162.2484
200.6500,162.3450
200.8220,162.4699
200.8220,162.4699
200.9723,162.6202
200.9723,162.6202
201.0973,162.7922
201.0999,162.7975
201.1487,162.8491
201.2176,162.8661
201.2848,162.8432
201.3245,162.7975
201.3271,162.7922
201.3272,162.7922
201.4521,162.6202
201.4521,162.6202
201.4521,162.6202
201.6024,162.4699
201.6024,162.4699
201.6024,162.4699
201.7744,162.3449
201.9638,162.2484
202.1660,162.1828
202.3759,162.1495
202.5885,162.1495
202.7984,162.1828
202.7984,162.1828
202.7984,162.1828
203.0006,162.2484
203.0006,162.2484
203.1900,162.3450
203.3620,162.4699
203.3620,162.4699
203.5123,162.6202
203.5123,162.6202
203.6373,162.7922
203.6399,162.7975
203.6887,162.8491
203.7576,162.8661
203.8248,162.8432
203.8645,162.7975
203.8671,162.7922
203.8672,162.7922
203.9921,162.6202
203.9921,162.6202
203.9921,162.6202
204.1424,162.4699
204.1424,162.4699
204.1424,162.4699
204.3144,162.3449
204.5038,162.2484
204.7060,162.1828
204.9159,162.1495
205.1285,162.1495
205.3384,162.1828
205.3384,162.1828
205.3384,162.1828
205.5406,162.2484
205.5406,162.2484
205.7300,162.3450
205.9020,162.4699
205.9020,162.4699
206.0523,162.6202
206.0523,162.6202
206.1773,162.7922
206.1799,162.7975
206.2287,162.8491
206.2976,162.8661
206.3648,162.8432
206.4045,162.7975
206.4072,162.7922
206.4072,162.7922
206.5321,162.6202
206.5321,162.6202
206.5321,162.6202
206.6824,162.4699
206.6824,162.4699
206.6824,162.4699
206.8544,162.3449
207.0438,162.2484
207.2460,162.1828
207.4559,162.1495
207.6685,162.1495
207.8784,162.1828
207.8784,162.1828
207.8784,162.1828
208.0806,162.2484
208.0806,162.2484
208.2700,162.3450
208.4420,162.4699
208.4420,162.4699
208.5923,162.6202
208.5923,162.6202
208.7173,162.7922
208.7199,162.7975
208.7687,162.8491
208.8376,162.8661
208.9048,162.8432
208.9445,162.7975
208.9471,162.7922
208.9472,162.7922
209.0721,162.6202
209.0721,162.6202
209.0721,162.6202
209.2224,162.4699
209.2224,162.4699
209.2224,162.4699
209.3944,162.3449
209.5838,162.2484
209.7860,162.1828
209.9959,162.1495
210.2085,162.1495
210.4184,162.1828
210.4184,162.1828
210.4184,162.1828
210.6206,162.2484
210.6206,162.2484
210.8100,162.3450
210.9820,162.4699
210.9820,162.4699
211.1323,162.6202
211.1323,162.6202
211.2573,162.7922
211.2599,162.7975
211.3087,162.8491
211.3776,162.8661
211.4448,162.8432
211.4845,162.7975
211.4871,162.7922
211.4872,162.7922
211.6121,162.6202
211.6121,162.6202
211.6121,162.6202
211.7624,162.4699
211.7624,162.4699
211.7624,162.4699
211.9344,162.3449
212.1238,162.2484
212.3260,162.1828
212.5359,162.1495
212.7485,162.1495
212.9584,162.1828
212.9584,162.1828
212.9584,162.1828
213.1606,162.2484
213.1606,162.2484
213.3500,162.3450
213.5220,162.4699
213.5220,162.4699
213.6723,162.6202
213.6723,162.6202
213.7973,162.7922
213.7999,162.7975
213.8487,162.8491
213.9176,162.8661
213.9848,162.8432
214.0245,162.7975
214.0271,162.7922
214.0272,162.7922
214.1521,162.6202
214.1521,162.6202
214.1521,162.6202
214.3024,162.4699
214.3024,162.4699
214.3024,162.4699
214.4744,162.3449
214.6638,162.2484
214.8660,162.1828
215.0759,162.1495
215.2885,162.1495
215.4984,162.1828
215.4984,162.1828
215.4984,162.1828
215.7006,162.2484
215.7006,162.2484
215.8900,162.3450
216.0620,162.4699
216.0620,162.4699
216.2123,162.6202
216.2123,162.6202
216.3373,162.7922
216.3399,162.7975
216.3887,162.8491
216.4576,162.8661
216.5248,162.8432
216.5645,162.7975
216.5671,162.7922
216.5672,162.7922
216.6921,162.6202
216.6921,162.6202
216.6921,162.6202
216.8424,162.4699
216.8424,162.4699
216.8424,162.4699
217.0144,162.3449
217.2038,162.2484
217.4060,162.1828
217.6159,162.1495
217.8285,162.1495
218.0384,162.1828
218.0384,162.1828
218.0384,162.1828
218.2406,162.2484
218.2406,162.2484
218.4300,162.3450
218.6020,162.4699
218.6020,162.4699
218.7523,162.6202
218.7523,162.6202
218.8773,162.7922
218.8799,162.7975
218.9287,162.8491
218.9976,162.8661
219.0648,162.8432
219.1045,162.7975
219.1071,162.7922
219.1072,162.7922
219.2321,162.6202
219.2321,162.6202
219.2321,162.6202
219.3824,162.4699
219.3824,162.4699
219.3824,162.4699
219.5544,162.3449
219.7438,162.2484
219.9460,162.1828
220.1559,162.1495
220.3685,162.1495
220.5784,162.1828
220.5784,162.1828
220.5784,162.1828
220.7806,162.2484
220.7806,162.2484
220.9700,162.3450
221.1420,162.4699
221.1420,162.4699
221.2923,162.6202
221.2923,162.6202
221.4173,162.7922
221.4199,162.7975
221.4687,162.8491
221.5376,162.8661
221.6048,162.8432
221.6445,162.7975
221.6471,162.7922
221.6472,162.7922
221.7721,162.6202
221.7721,162.6202
221.7721,162.6202
221.9224,162.4699
221.9224,162.4699
221.9224,162.4699
222.0944,162.3449
222.2838,162.2484
222.4860,162.1828
222.6959,162.1495
222.9085,162.1495
223.1184,162.1828
223.1184,162.1828
223.1184,162.1828
223.3206,162.2484
223.3206,162.2484
223.5100,162.3450
223.6820,162.4699
223.6820,162.4699
223.8323,162.6202
223.8323,162.6202
223.9573,162.7922
223.9599,162.7975
224.0087,162.8491
224.0776,162.8661
224.1448,162.8432
224.1845,162.7975
224.1872,162.7922
224.1872,162.7922
224.3121,162.6202
224.3121,162.6202
224.3121,162.6202
224.4624,162.4699
224.4624,162.4699
224.4624,162.4699
224.6344,162.3449
224.8238,162.2484
225.0260,162.1828
225.2359,162.1495
225.4485,162.1495
225.6584,162.1828
225.6584,162.1828
225.6584,162.1828
225.8606,162.2484
225.8606,162.2484
226.0500,162.3450
226.2220,162.4699
226.2220,162.4699
226.3723,162.6202
226.3723,162.6202
226.4973,162.7922
226.4999,162.7975
226.5487,162.8491
226.6176,162.8661
226.6848,162.8432
226.7245,162.7975
226.7271,162.7922
226.7272,162.7922
226.8521,162.6202
226.8521,162.6202
226.8521,162.6202
227.0024,162.4699
227.0024,162.4699
227.0024,162.4699
227.1744,162.3449
227.3638,162.2484
227.5660,162.1828
227.7759,162.1495
227.9885,162.1495
228.1984,162.1828
228.1984,162.1828
228.1984,162.1828
228.4006,162.2484
228.4006,162.2484
228.5900,162.3450
228.7620,162.4699
228.7620,162.4699
228.9123,162.6202
228.9123,162.6202
229.0373,162.7922
229.0399,162.7975
229.0887,162.8491
229.1576,162.8661
229.2248,162.8432
229.2645,162.7975
229.2671,162.7922
229.2672,162.7922
229.3921,162.6202
229.3921,162.6202
229.3921,162.6202
229.5424,162.4699
229.5424,162.4699
229.5424,162.4699
229.7144,162.3449
229.9038,162.2484
230.1060,162.1828
230.3159,162.1495
230.5285,162.1495
230.7384,162.1828
230.7384,162.1828
230.7384,162.1828
230.9406,162.2484
230.9406,162.2484
231.1300,162.3450
231.3020,162.4699
231.3020,162.4699
231.4523,162.6202
231.4523,162.6202
231.5773,162.7922
231.5799,162.7975
231.6287,162.8491
231.6976,162.8661
231.7648,162.8432
231.8045,162.7975
231.8071,162.7922
231.8072,162.7922
231.9321,162.6202
231.9321,162.6202
231.9321,162.6202
232.0824,162.4699
232.0824,162.4699
232.0824,162.4699
232.2544,162.3449
232.4438,162.2484
232.6460,162.1828
232.8559,162.1495
233.0685,162.1495
233.2784,162.1828
233.2784,162.1828
233.2784,162.1828
233.4806,162.2484
233.4806,162.2484
233.6700,162.3450
233.8420,162.4699
233.9533,162.5812
234.0156,162.6153
234.0865,162.6102
234.1433,162.5676
234.1605,162.5362
234.2084,162.4077
234.2084,162.4077
234.2084,162.4077
234.2554,162.3449
234.2947,162.2925
234.3716,162.2348
234.4099,162.2062
234.4099,162.2062
234.4099,162.2062
234.5447,162.1559
234.5447,162.1559
234.6043,162.1495
236.3757,162.1495
236.4438,162.1295
236.4903,162.0758
236.5017,162.0235
236.5017,157.3169
205.3422,157.3169
205.3422,157.4831
205.3130,157.6299
205.3098,157.6460
205.2462,157.7995
205.2193,157.8397
205.1539,157.9376
205.1539,157.9376
205.0364,158.0551
205.0364,158.0551
204.8983,158.1474
204.7448,158.2110
204.6827,158.2233
204.6198,158.2562
204.6183,158.2578
204.2300,158.6460
203.9393,158.9367
203.9271,158.9449
203.9271,158.9449
203.8766,158.9786
203.8261,159.0124
203.7004,159.0644
203.5669,159.0910
203.5669,159.0910
203.4307,159.0910
201.7743,159.0910
201.7062,159.1110
201.7043,159.1122
201.6517,159.1474
201.4982,159.2110
201.3353,159.2434
201.3353,159.2434
201.1691,159.2434
201.1691,159.2434
201.0062,159.2110
200.8527,159.1474
200.7146,159.0551
200.5971,158.9376
200.5048,158.7995
200.4412,158.6460
200.4088,158.4831
200.4088,158.3169
200.4412,158.1540
200.5048,158.0005
200.5971,157.8624
200.5971,157.8624
200.7146,157.7449
200.7146,157.7449
200.7982,157.6890
200.8527,157.6526
201.0062,157.5890
201.1691,157.5566
201.1691,157.5566
201.3353,157.5566
201.3353,157.5566
201.4982,157.5890
201.4982,157.5890
201.6517,157.6526
201.7043,157.6878
201.7721,157.7090
201.7743,157.7090
203.1604,157.7090
203.2285,157.6890
203.2495,157.6721
203.6410,157.2806
203.6750,157.2183
203.6754,157.2162
203.6878,157.1540
203.7514,157.0005
203.8437,156.8624
203.8437,156.8624
203.9612,156.7449
203.9612,156.7449
204.0070,156.7143
204.0993,156.6526
204.2528,156.5890
204.4157,156.5566
204.4157,156.5566
204.5819,156.5566
204.5819,156.5566
204.7448,156.5890
204.7448,156.5890
204.8983,156.6526
205.0364,156.7449
205.0364,156.7449
205.1539,156.8624
205.1539,156.8624
205.2462,157.0005
205.3098,157.1540
205.3098,157.1540
205.3422,157.3169
236.5017,157.3169
236.5017,141.3537
235.8927,141.3537
235.8927,141.5663
235.8594,141.7762
235.7938,141.9784
235.6973,142.1678
235.5723,142.3398
235.5723,142.3398
235.5723,142.3398
235.4220,142.4901
235.4220,142.4901
235.4220,142.4901
235.2500,142.6151
235.2469,142.6166
235.2447,142.6177
235.1931,142.6665
235.1761,142.7354
235.1990,142.8026
235.2447,142.8423
235.2500,142.8449
235.4220,142.9699
235.4220,142.9699
235.5723,143.1202
235.5723,143.1202
235.6972,143.2922
235.6973,143.2922
235.7938,143.4816
235.8594,143.6838
235.8927,143.8937
235.8927,144.1063
235.8594,144.3162
235.7938,144.5184
235.6973,144.7078
235.5723,144.8798
235.5723,144.8798
235.5723,144.8798
235.4220,145.0301
235.4220,145.0301
235.4220,145.0301
235.2500,145.1551
235.2469,145.1566
235.2447,145.1577
235.1931,145.2065
235.1761,145.2754
235.1990,145.3426
235.2447,145.3823
235.2500,145.3849
235.4220,145.5099
235.4220,145.5099
235.5723,145.6602
235.5723,145.6602
235.6972,145.8322
235.6973,145.8322
235.7938,146.0216
235.8594,146.2238
235.8927,146.4337
235.8927,146.6463
235.8594,146.8562
235.7938,147.0584
235.6973,147.2478
235.5723,147.4198
235.5723,147.4198
235.5723,147.4198
235.4220,147.5701
235.4220,147.5701
235.4220,147.5701
235.2500,147.6951
235.2469,147.6966
235.2447,147.6977
235.1931,147.7465
235.1761,147.8154
235.1990,147.8826
235.2447,147.9223
235.2500,147.9249
235.4220,148.0499
235.4220,148.0499
235.5723,148.2002
235.5723,148.2002
235.6972,148.3722
235.7938,148.5616
235.7938,148.5616
235.8176,148.6350
235.8594,148.7638
235.8927,148.9737
235.8927,149.1863
235.8594,149.3962
235.7938,149.5984
235.6973,149.7878
235.5723,149.9598
235.5723,149.9598
235.5723,149.9598
235.4220,150.1101
235.4220,150.1101
235.4220,150.1101
235.2500,150.2351
235.2469,150.2366
235.2447,150.2377
235.1931,150.2865
235.1761,150.3554
235.1990,150.4226
235.2447,150.4623
235.2500,150.4649
235.4220,150.5899
235.4220,150.5899
235.5723,150.7402
235.5723,150.7402
235.6972,150.9122
235.7938,151.1016
235.7938,151.1016
235.8543,151.2880
235.8594,151.3038
235.8927,151.5137
235.8927,151.7263
235.8594,151.9362
235.7938,152.1384
235.6973,152.3278
235.5723,152.4998
235.5723,152.4998
235.5723,152.4998
235.4220,152.6501
235.4220,152.6501
235.4220,152.6501
235.2500,152.7751
235.2487,152.7757
235.2447,152.7777
235.1931,152.8265
235.1761,152.8954
235.1990,152.9626
235.2447,153.0023
235.2500,153.0049
235.4220,153.1299
235.4220,153.1299
235.5723,153.2802
235.5723,153.2802
235.6972,153.4522
235.7938,153.6416
235.7938,153.6416
235.8432,153.7937
235.8594,153.8438
235.8927,154.0537
235.8927,154.2663
235.8594,154.4762
235.7938,154.6784
235.6973,154.8678
235.5723,155.0398
235.5723,155.0398
235.5723,155.0398
235.4220,155.1901
235.4220,155.1901
235.4220,155.1901
235.2500,155.3151
235.0606,155.4116
234.8584,155.4772
234.6485,155.5105
234.6485,155.5105
234.4359,155.5105
234.4359,155.5105
234.2260,155.4772
234.0238,155.4116
233.8344,155.3151
233.6624,155.1901
233.5511,155.0788
233.4888,155.0447
233.4179,155.0498
233.3611,155.0924
233.3439,155.1238
233.2960,155.2523
233.2960,155.2523
233.2097,155.3675
233.1521,155.4107
233.0945,155.4538
233.0945,155.4538
233.0945,155.4538
233.0342,155.4763
232.9597,155.5041
232.9597,155.5041
232.9001,155.5105
231.1043,155.5105
231.0447,155.5041
230.9099,155.4538
230.7947,155.3675
230.7084,155.2523
230.6581,155.1175
230.6517,155.0579
230.6517,153.2621
230.6581,153.2025
230.6854,153.1294
230.7084,153.0677
230.7084,153.0677
230.7084,153.0677
230.7612,152.9971
230.7947,152.9525
230.8853,152.8846
230.9099,152.8662
230.9099,152.8662
230.9099,152.8662
231.0384,152.8183
231.0952,152.7757
231.1200,152.7092
231.1049,152.6398
231.0834,152.6111
230.9721,152.4998
230.8471,152.3278
230.7506,152.1384
230.6850,151.9362
230.6517,151.7263
230.6517,151.5137
230.6670,151.4169
219.9456,151.4169
219.9456,151.4169
219.9456,151.5831
219.9132,151.7460
219.8496,151.8995
219.8251,151.9362
219.7573,152.0376
219.7573,152.0376
219.6398,152.1551
219.6398,152.1551
219.5017,152.2474
219.3482,152.3110
219.1853,152.3434
219.1853,152.3434
219.0191,152.3434
219.0191,152.3434
218.8562,152.3110
218.7027,152.2474
218.6501,152.2122
218.5823,152.1910
218.5801,152.1910
217.2189,152.1910
217.1508,152.2110
217.1298,152.2279
216.6818,152.6760
216.6477,152.7383
216.6473,152.7405
216.6446,152.7540
216.6346,152.8043
216.5710,152.9578
216.5128,153.0449
216.4787,153.0959
216.4787,153.0959
216.3612,153.2134
216.3612,153.2134
216.2231,153.3057
216.0696,153.3692
215.9067,153.4016
215.9067,153.4016
215.7405,153.4016
215.7405,153.4016
215.5776,153.3692
215.4241,153.3057
215.2860,153.2134
215.2477,153.1751
215.2396,153.1707
215.2341,153.1633
215.2090,153.1539
215.1854,153.1411
215.1762,153.1417
215.1676,153.1385
215.1414,153.1442
215.1146,153.1461
215.1054,153.1521
215.0982,153.1536
215.0695,153.1751
215.0571,153.1876
215.0230,153.2499
215.0226,153.3012
215.0456,153.4169
215.0456,153.5831
215.0202,153.7110
215.0132,153.7460
214.9496,153.8995
214.8879,153.9918
214.8573,154.0376
214.8573,154.0376
214.7398,154.1551
214.7398,154.1551
214.6017,154.2474
214.4482,154.3110
214.2853,154.3434
214.2853,154.3434
214.1191,154.3434
214.1191,154.3434
213.9562,154.3110
213.8027,154.2474
213.6646,154.1551
213.5471,154.0376
213.4548,153.8995
213.3912,153.7460
213.3588,153.5831
213.3588,153.4169
213.3912,153.2540
213.4548,153.1005
213.4919,153.0449
213.5107,152.9995
213.5192,152.9569
213.5378,152.8637
213.5898,152.7379
213.6485,152.6501
213.6655,152.6247
213.6657,152.6245
213.6693,152.6191
213.6783,152.5908
213.6899,152.5635
213.6888,152.5573
213.6907,152.5514
213.6829,152.5228
213.6779,152.4935
213.6737,152.4889
213.6721,152.4829
213.6500,152.4630
213.6300,152.4411
213.6240,152.4395
213.6194,152.4353
213.5901,152.4305
213.5613,152.4229
213.5554,152.4248
213.5493,152.4238
213.5220,152.4356
213.4938,152.4447
213.4860,152.4512
213.4841,152.4520
213.4816,152.4548
213.4756,152.4598
212.4517,153.4837
212.4177,153.5460
212.4148,153.5728
212.4148,153.5831
212.3893,153.7110
212.3824,153.7460
212.3188,153.8995
212.2571,153.9918
212.2265,154.0376
212.2265,154.0376
212.1090,154.1551
212.1090,154.1551
211.9709,154.2474
211.8174,154.3110
211.6544,154.3434
211.6544,154.3434
211.4883,154.3434
211.4883,154.3434
211.3254,154.3110
211.1719,154.2474
211.0337,154.1551
210.9163,154.0376
210.8240,153.8995
210.7604,153.7460
210.7280,153.5831
210.7280,153.4169
210.7604,153.2540
210.8240,153.1005
210.9032,152.9819
210.9244,152.9142
210.9056,152.8457
210.8528,152.7983
210.7827,152.7869
210.7176,152.8152
210.7093,152.8228
210.0047,153.5275
209.9707,153.5898
209.9702,153.5920
209.9465,153.7110
209.9396,153.7460
209.8760,153.8995
209.8143,153.9918
209.7837,154.0376
209.7837,154.0376
209.6662,154.1551
209.6662,154.1551
209.5281,154.2474
209.3746,154.3110
209.2116,154.3434
209.2116,154.3434
209.0455,154.3434
209.0455,154.3434
208.8826,154.3110
208.7291,154.2474
208.5909,154.1551
208.4735,154.0376
208.3812,153.8995
208.3176,153.7460
208.2852,153.5831
208.2852,153.4169
208.3176,153.2540
208.3812,153.1005
208.4735,152.9624
208.4735,152.9624
208.5909,152.8449
208.5909,152.8449
208.6518,152.8042
208.7291,152.7526
208.8065,152.7205
208.8699,152.6943
208.9108,152.6669
211.2182,150.3595
209.9456,150.3595
209.9456,150.5257
209.9132,150.6886
209.9132,150.6886
209.9039,150.7111
209.8496,150.8421
209.8477,150.8449
209.7573,150.9802
209.7573,150.9802
209.6398,151.0977
209.6398,151.0977
209.5017,151.1900
209.3482,151.2536
209.3482,151.2536
209.3423,151.2554
209.3427,151.2566
209.2856,151.2864
209.2840,151.2880
207.4063,153.1657
207.3723,153.2280
207.3718,153.2302
207.3595,153.2923
207.2959,153.4458
207.2459,153.5206
207.2036,153.5839
207.2036,153.5839
207.0861,153.7014
207.0861,153.7014
206.9480,153.7937
206.7945,153.8573
206.6316,153.8897
206.6316,153.8897
206.4654,153.8897
206.4654,153.8897
206.3025,153.8573
206.1490,153.7937
206.0109,153.7014
205.8934,153.5839
205.8011,153.4458
205.7375,153.2923
205.7051,153.1294
205.7051,152.9632
205.7051,152.9632
205.7107,152.9353
205.7143,152.9169
180.4456,152.9169
180.4456,153.0831
180.4282,153.1707
180.4132,153.2460
180.3496,153.3995
180.3187,153.4458
180.2573,153.5376
180.2573,153.5376
180.1398,153.6551
180.1398,153.6551
180.0017,153.7474
179.8482,153.8110
179.6853,153.8434
179.6853,153.8434
179.5191,153.8434
179.5191,153.8434
179.3562,153.8110
179.2027,153.7474
179.1501,153.7122
179.0823,153.6910
179.0801,153.6910
171.6215,153.6910
171.5733,153.7006
171.5482,153.7110
171.3853,153.7434
171.3853,153.7434
171.2191,153.7434
171.2191,153.7434
171.0562,153.7110
170.9027,153.6474
170.7646,153.5551
170.6471,153.4376
170.5548,153.2995
170.4912,153.1460
170.4588,152.9831
170.4588,152.8169
170.4912,152.6540
170.5548,152.5005
170.6471,152.3624
170.6471,152.3624
170.7646,152.2449
170.7646,152.2449
170.8452,152.1910
170.9027,152.1526
171.0562,152.0890
171.2191,152.0566
171.2191,152.0566
171.3853,152.0566
171.3853,152.0566
171.5482,152.0890
171.5482,152.0890
171.7017,152.1526
171.8398,152.2449
171.8398,152.2449
171.8670,152.2721
171.9294,152.3061
171.9561,152.3090
179.0801,152.3090
179.1482,152.2890
179.1501,152.2878
179.2027,152.2526
179.3562,152.1890
179.3562,152.1890
179.5191,152.1566
179.5191,152.1566
179.6853,152.1566
179.6853,152.1566
179.8482,152.1890
179.8482,152.1890
180.0017,152.2526
180.1398,152.3449
180.1398,152.3449
180.2573,152.4624
180.2573,152.4624
180.3496,152.6005
180.4132,152.7540
180.4132,152.7540
180.4456,152.9169
205.7143,152.9169
205.7283,152.8468
205.7375,152.8003
205.8011,152.6468
205.8934,152.5087
205.8934,152.5087
206.0109,152.3912
206.0109,152.3912
206.0802,152.3449
206.1490,152.2989
206.3025,152.2353
206.3646,152.2230
206.4275,152.1900
206.4291,152.1885
208.2320,150.3856
208.2660,150.3233
208.2664,150.3211
208.2733,150.2865
208.2912,150.1966
208.3548,150.0431
208.4471,149.9050
208.4471,149.9050
208.5646,149.7875
208.5646,149.7875
208.6104,149.7569
208.7027,149.6952
208.8562,149.6316
209.0191,149.5992
209.0191,149.5992
209.1853,149.5992
209.1853,149.5992
209.3482,149.6316
209.3482,149.6316
209.5017,149.6952
209.6398,149.7875
209.6398,149.7875
209.7573,149.9050
209.7573,149.9050
209.8496,150.0431
209.9132,150.1966
209.9132,150.1966
209.9456,150.3595
211.2182,150.3595
212.3492,149.2285
212.3832,149.1662
212.3861,149.1394
212.3861,149.0683
212.3861,149.0683
212.4185,148.9054
212.4821,148.7519
212.5744,148.6137
212.5744,148.6137
212.6918,148.4963
212.6919,148.4963
212.7924,148.4291
212.8300,148.4040
212.9835,148.3404
213.0314,148.3309
213.1464,148.3080
213.1464,148.3080
213.3126,148.3080
213.3126,148.3080
213.4755,148.3404
213.4755,148.3404
213.6290,148.4040
213.7671,148.4963
213.7671,148.4963
213.8846,148.6137
213.8846,148.6137
213.9769,148.7519
214.0405,148.9054
214.0405,148.9054
214.0729,149.0683
214.0729,149.0683
214.0729,149.2344
214.0405,149.3974
213.9769,149.5509
213.9230,149.6316
213.8846,149.6890
213.8846,149.6890
213.7671,149.8065
213.7671,149.8065
213.6525,149.8831
213.6334,149.8988
210.8942,152.6380
210.8850,152.6547
210.8717,152.6685
210.8684,152.6853
210.8602,152.7003
210.8615,152.7194
210.8578,152.7381
210.8640,152.7540
210.8652,152.7711
210.8767,152.7864
210.8837,152.8042
210.8975,152.8142
210.9078,152.8279
210.9257,152.8346
210.9412,152.8458
210.9583,152.8468
210.9743,152.8527
210.9930,152.8487
211.0121,152.8497
211.0361,152.8393
211.0437,152.8376
211.0455,152.8366
211.0495,152.8344
211.1719,152.7526
211.2523,152.7193
211.2591,152.7154
211.2660,152.7083
211.2860,152.6949
214.4194,149.5616
214.4534,149.4993
214.4483,149.4285
214.4467,149.4243
214.4443,149.4186
214.4119,149.2557
214.4119,149.0895
214.4443,148.9266
214.5079,148.7731
214.6002,148.6350
214.6002,148.6350
214.7177,148.5175
214.7177,148.5175
214.8245,148.4461
214.8558,148.4252
214.9838,148.3722
215.0093,148.3616
215.0093,148.3616
215.0625,148.3510
215.1254,148.3181
215.1606,148.2564
215.1639,148.2274
215.1639,148.1981
215.1639,148.1981
215.1934,148.0499
215.1964,148.0352
215.2599,147.8817
215.3522,147.7435
215.3522,147.7435
215.4697,147.6261
215.4697,147.6261
215.5535,147.5701
215.6078,147.5338
215.7613,147.4702
215.9243,147.4378
215.9243,147.4378
216.0904,147.4378
216.0904,147.4378
216.2534,147.4702
216.2534,147.4702
216.4068,147.5338
216.5450,147.6261
216.5450,147.6261
216.6625,147.7435
216.6625,147.7435
216.7548,147.8817
216.8183,148.0352
216.8183,148.0352
216.8507,148.1981
216.8507,148.3266
216.8532,148.3512
216.8573,148.3721
216.8573,150.6830
216.8773,150.7511
216.9310,150.7976
216.9833,150.8090
218.5801,150.8090
218.6482,150.7890
218.6501,150.7878
218.7027,150.7526
218.8562,150.6890
218.8562,150.6890
219.0191,150.6566
219.0191,150.6566
219.1853,150.6566
219.1853,150.6566
219.3482,150.6890
219.3482,150.6890
219.5017,150.7526
219.6398,150.8449
219.6398,150.8449
219.7573,150.9624
219.7573,150.9624
219.8496,151.1005
219.9132,151.2540
219.9132,151.2540
219.9456,151.4169
230.6670,151.4169
230.6850,151.3038
230.7506,151.1016
230.8471,150.9122
230.9721,150.7402
230.9721,150.7402
230.9721,150.7402
231.1224,150.5899
231.1224,150.5899
231.1224,150.5899
231.2944,150.4649
231.2996,150.4623
231.3513,150.4135
231.3683,150.3446
231.3454,150.2774
231.2996,150.2377
231.2944,150.2351
231.1224,150.1101
230.9721,149.9598
230.8471,149.7878
230.7506,149.5984
230.6850,149.3962
230.6517,149.1863
230.6517,148.9737
230.6850,148.7638
230.7506,148.5616
230.8471,148.3722
230.9721,148.2002
230.9721,148.2002
230.9721,148.2002
231.1224,148.0499
231.1224,148.0499
231.1224,148.0499
231.2944,147.9249
231.2996,147.9223
231.3513,147.8735
231.3683,147.8046
231.3454,147.7374
231.2996,147.6977
231.2944,147.6951
231.1224,147.5701
230.9721,147.4198
230.8471,147.2478
230.7506,147.0584
230.6850,146.8562
230.6517,146.6463
230.6517,146.4337
230.6850,146.2238
230.7506,146.0216
230.8471,145.8322
230.9721,145.6602
230.9721,145.6602
230.9721,145.6602
231.1224,145.5099
231.1224,145.5099
231.1224,145.5099
231.2944,145.3849
231.2996,145.3823
231.3513,145.3335
231.3683,145.2646
231.3454,145.1974
231.2996,145.1577
231.2944,145.1551
231.1224,145.0301
230.9721,144.8798
230.8471,144.7078
230.7506,144.5184
230.6850,144.3162
230.6517,144.1063
230.6517,143.8937
230.6850,143.6838
230.7506,143.4816
230.8471,143.2922
230.9721,143.1202
230.9721,143.1202
230.9721,143.1202
231.1224,142.9699
231.1224,142.9699
231.1224,142.9699
231.2944,142.8449
231.2996,142.8423
231.3513,142.7935
231.3683,142.7246
231.3454,142.6574
231.2996,142.6177
231.2944,142.6151
231.1224,142.4901
230.9721,142.3398
230.8471,142.1678
230.7506,141.9784
230.6850,141.7762
230.6517,141.5663
230.6517,141.3537
230.6850,141.1438
230.7506,140.9416
230.8471,140.7522
230.9721,140.5802
230.9721,140.5802
230.9721,140.5802
231.1224,140.4299
231.1224,140.4299
231.1224,140.4299
231.2944,140.3049
231.4838,140.2084
231.6860,140.1428
231.8959,140.1095
232.1085,140.1095
232.3184,140.1428
232.3184,140.1428
232.3184,140.1428
232.5206,140.2084
232.5206,140.2084
232.7100,140.3050
232.8820,140.4299
232.8820,140.4299
233.0323,140.5802
233.0323,140.5802
233.1573,140.7522
233.1599,140.7575
233.2087,140.8091
233.2776,140.8261
233.3448,140.8032
233.3845,140.7575
233.3871,140.7522
233.3872,140.7522
233.5121,140.5802
233.5121,140.5802
233.5121,140.5802
233.6624,140.4299
233.6624,140.4299
233.6624,140.4299
233.8344,140.3049
234.0238,140.2084
234.2260,140.1428
234.4359,140.1095
234.6485,140.1095
234.8584,140.1428
234.8584,140.1428
234.8584,140.1428
235.0606,140.2084
235.0606,140.2084
235.2500,140.3050
235.4220,140.4299
235.4220,140.4299
235.5723,140.5802
235.5723,140.5802
235.6972,140.7522
235.6973,140.7522
235.7938,140.9416
235.8594,141.1438
235.8927,141.3537
236.5017,141.3537
236.5017,131.7607
233.8207,131.7607
233.8207,132.0033
233.7890,132.2438
233.7263,132.4781
233.7263,132.4781
233.7263,132.4781
233.6334,132.7022
233.6334,132.7022
233.6334,132.7022
233.5121,132.9123
233.5121,132.9123
233.5121,132.9123
233.3645,133.1047
233.3645,133.1047
233.3645,133.1047
233.1929,133.2763
233.1929,133.2763
233.1929,133.2763
233.0005,133.4239
233.0005,133.4239
232.7904,133.5452
232.7904,133.5452
232.7904,133.5452
232.5663,133.6381
232.3320,133.7008
232.3320,133.7008
232.3320,133.7008
232.2700,133.7090
232.0915,133.7325
232.0915,133.7325
231.8489,133.7325
231.8489,133.7325
231.6316,133.7039
231.6084,133.7008
231.6084,133.7008
231.6084,133.7008
231.3741,133.6381
231.1500,133.5452
230.9399,133.4239
230.7475,133.2763
230.5759,133.1047
230.4283,132.9123
230.3070,132.7022
230.2141,132.4781
230.1514,132.2438
230.1197,132.0033
230.1197,131.7607
230.1484,131.5429
230.1514,131.5202
230.1514,131.5202
230.1514,131.5202
230.2141,131.2859
230.3070,131.0618
230.3070,131.0618
230.3070,131.0618
230.4283,130.8517
230.4349,130.8431
230.5759,130.6593
230.5759,130.6593
230.5759,130.6593
230.7475,130.4877
230.7475,130.4877
230.7475,130.4877
230.9399,130.3401
230.9399,130.3401
230.9399,130.3401
231.1500,130.2188
231.1500,130.2188
231.1500,130.2188
231.3741,130.1259
231.3741,130.1259
231.3741,130.1259
231.6084,130.0632
231.8489,130.0315
231.8489,130.0315
232.0915,130.0315
232.0915,130.0315
232.3320,130.0632
232.5663,130.1259
232.5663,130.1259
232.7261,130.1921
232.7904,130.2188
232.7904,130.2188
233.0005,130.3401
233.1929,130.4877
233.1929,130.4877
233.3645,130.6593
233.3645,130.6593
233.5121,130.8517
233.6334,131.0618
233.6334,131.0618
233.7263,131.2859
233.7263,131.2859
233.7890,131.5202
233.8207,131.7607
236.5017,131.7607
236.5017,130.2595
236.4817,130.1914
236.4648,130.1704
233.4415,127.1471
150.1837,127.1471
150.1837,129.0429
150.1837,129.0429
150.1773,129.1025
150.1773,129.1025
150.1270,129.2373
150.1029,129.2695
150.0781,129.3360
150.0932,129.4054
150.1029,129.4205
150.1270,129.4527
150.1773,129.5875
150.1837,129.6471
150.1837,131.5429
150.1837,131.5429
150.1773,131.6025
150.1773,131.6025
150.1270,131.7373
150.1270,131.7373
150.0407,131.8525
149.9831,131.8957
149.9255,131.9388
149.9255,131.9388
149.9255,131.9388
149.8652,131.9613
149.7907,131.9891
149.7907,131.9891
149.7311,131.9955
147.1353,131.9955
147.0757,131.9891
146.9409,131.9388
146.8257,131.8525
146.7394,131.7373
146.6891,131.6025
146.6827,131.5429
146.6827,130.5112
144.2837,130.5112
144.2837,130.6788
144.2510,130.8431
144.2322,130.8884
144.1869,130.9979
144.1404,131.0675
144.0938,131.1372
144.0938,131.1372
143.9754,131.2556
143.9754,131.2556
143.8361,131.3487
143.6813,131.4128
143.5170,131.4455
143.5170,131.4455
143.3494,131.4455
143.3494,131.4455
143.1851,131.4128
143.0303,131.3487
142.8910,131.2556
142.7726,131.1372
142.6795,130.9979
142.6154,130.8431
142.5827,130.6788
142.5827,130.5112
142.5827,130.5112
141.7837,130.5112
141.7837,130.6788
141.7510,130.8431
141.7322,130.8884
141.6869,130.9979
141.6404,131.0675
141.5938,131.1372
141.5938,131.1372
141.4754,131.2556
141.4754,131.2556
141.3361,131.3487
141.1813,131.4128
141.0170,131.4455
141.0170,131.4455
140.8494,131.4455
140.8494,131.4455
140.6851,131.4128
140.5303,131.3487
140.3910,131.2556
140.2726,131.1372
140.1795,130.9979
140.1154,130.8431
140.0827,130.6788
140.0827,130.5112
140.1154,130.3469
140.1795,130.1921
140.2726,130.0528
140.2726,130.0528
140.3910,129.9344
140.3910,129.9344
140.5303,129.8413
140.5303,129.8413
140.5303,129.8413
140.6844,129.7775
140.6851,129.7772
140.6851,129.7772
140.6851,129.7772
140.7678,129.7607
140.8494,129.7445
140.8494,129.7445
141.0170,129.7445
141.0170,129.7445
141.1394,129.7688
141.1813,129.7772
141.1813,129.7772
141.1813,129.7772
141.3361,129.8413
141.4754,129.9344
141.4754,129.9344
141.5938,130.0528
141.5938,130.0528
141.6869,130.1921
141.6869,130.1921
141.6979,130.2188
141.7510,130.3469
141.7837,130.5112
142.5827,130.5112
142.6154,130.3469
142.6795,130.1921
142.7726,130.0528
142.7726,130.0528
142.8910,129.9344
142.8910,129.9344
143.0303,129.8413
143.0303,129.8413
143.0303,129.8413
143.1844,129.7775
143.1851,129.7772
143.1851,129.7772
143.1851,129.7772
143.2678,129.7607
143.3494,129.7445
143.3494,129.7445
143.5170,129.7445
143.5170,129.7445
143.6394,129.7688
143.6813,129.7772
143.6813,129.7772
143.6813,129.7772
143.8361,129.8413
143.9754,129.9344
143.9754,129.9344
144.0938,130.0528
144.0938,130.0528
144.1869,130.1921
144.1869,130.1921
144.1979,130.2188
144.2510,130.3469
144.2837,130.5112
146.6827,130.5112
146.6827,129.6471
146.6891,129.5875
146.7394,129.4527
146.7635,129.4205
146.7883,129.3540
146.7732,129.2846
146.7635,129.2695
146.7394,129.2373
146.6891,129.1025
146.6827,129.0429
146.6827,127.1471
146.6891,127.0875
146.7104,127.0304
146.7394,126.9527
146.7394,126.9527
146.7394,126.9527
146.7836,126.8936
146.8257,126.8375
146.9026,126.7798
146.9409,126.7512
146.9409,126.7512
146.9409,126.7512
147.0757,126.7009
147.0757,126.7009
147.1353,126.6945
149.7311,126.6945
149.7311,126.6945
149.7907,126.7009
149.7907,126.7009
149.9255,126.7512
149.9255,126.7512
150.0407,126.8375
150.1270,126.9527
150.1270,126.9527
150.1773,127.0875
150.1837,127.1471
233.4415,127.1471
231.8056,125.5112
149.2837,125.5112
149.2837,125.5112
149.2837,125.6788
149.2510,125.8431
149.1869,125.9979
149.1869,125.9979
149.0938,126.1372
149.0938,126.1372
148.9754,126.2556
148.9754,126.2556
148.8361,126.3487
148.7078,126.4018
148.6813,126.4128
148.6813,126.4128
148.6813,126.4128
148.5170,126.4455
148.3494,126.4455
148.1851,126.4128
148.0303,126.3487
147.8910,126.2556
147.7726,126.1372
147.6795,125.9979
147.6154,125.8431
147.5827,125.6788
147.5827,125.5112
147.6154,125.3469
147.6795,125.1921
147.7726,125.0528
147.7726,125.0528
147.8910,124.9344
147.8910,124.9344
147.9840,124.8723
148.0303,124.8413
148.1851,124.7772
148.2772,124.7589
148.3344,124.7475
148.3344,124.7475
148.3494,124.7445
148.5170,124.7445
148.5320,124.7475
148.5320,124.7475
148.6300,124.7670
148.6813,124.7772
148.6813,124.7772
148.6813,124.7772
148.8361,124.8413
148.9754,124.9344
148.9754,124.9344
149.0938,125.0528
149.0938,125.0528
149.1869,125.1921
149.2510,125.3469
149.2837,125.5112
231.8056,125.5112
225.9415,119.6471
150.1837,119.6471
150.1837,121.5429
150.1837,121.5429
150.1773,121.6025
150.1773,121.6025
150.1270,121.7373
150.1029,121.7695
150.0781,121.8360
150.0932,121.9054
150.1029,121.9205
150.1270,121.9527
150.1773,122.0875
150.1837,122.1471
150.1837,124.0429
150.1837,124.0429
150.1773,124.1025
150.1773,124.1025
150.1270,124.2373
150.1270,124.2373
150.0407,124.3525
149.9831,124.3957
149.9255,124.4388
149.9255,124.4388
149.9255,124.4388
149.8652,124.4613
149.7907,124.4891
149.7907,124.4891
149.7311,124.4955
147.1353,124.4955
147.0757,124.4891
146.9409,124.4388
146.8257,124.3525
146.7836,124.2964
144.8412,124.2964
144.8412,125.3410
143.8332,125.3410
143.8332,125.8490
144.8412,125.8490
144.8412,126.8936
144.8347,126.9541
144.7836,127.0910
144.7836,127.0910
144.6961,127.2079
144.5792,127.2954
144.4423,127.3465
144.3818,127.3530
144.3818,127.3530
143.6872,127.3530
143.6872,126.2567
143.6788,126.2651
143.5876,126.3177
143.4859,126.3450
143.3805,126.3450
143.2788,126.3177
143.1876,126.2651
143.1792,126.2567
143.1792,127.3530
142.4846,127.3530
142.4846,127.3530
142.4241,127.3465
142.2872,127.2954
142.2872,127.2954
142.1703,127.2079
142.0828,127.0910
142.0828,127.0910
142.0317,126.9541
142.0252,126.8936
142.0252,126.8936
142.0252,125.8490
143.0332,125.8490
143.0332,125.3410
142.0252,125.3410
142.0252,124.2964
142.0252,124.2964
142.0317,124.2359
142.0828,124.0990
142.0828,124.0990
142.1703,123.9821
142.2872,123.8946
142.4241,123.8435
142.4846,123.8370
143.1792,123.8370
143.1792,124.9333
143.1876,124.9249
143.2788,124.8723
143.3805,124.8450
143.4859,124.8450
143.5876,124.8723
143.6788,124.9249
143.6872,124.9333
143.6872,123.8370
144.3818,123.8370
144.4423,123.8435
144.5792,123.8946
144.5792,123.8946
144.6961,123.9821
144.7836,124.0990
144.7836,124.0990
144.8347,124.2359
144.8412,124.2964
146.7836,124.2964
146.7394,124.2373
146.6891,124.1025
146.6827,124.0429
146.6827,122.1471
146.6891,122.0875
146.7394,121.9527
146.7635,121.9205
146.7883,121.8540
146.7732,121.7846
146.7635,121.7695
146.7394,121.7373
146.6891,121.6025
146.6827,121.5429
146.6827,120.5112
144.2837,120.5112
144.2837,120.5112
144.2837,120.6788
144.2510,120.8431
144.1869,120.9979
144.1869,120.9979
144.0938,121.1372
144.0938,121.1372
143.9754,121.2556
143.9754,121.2556
143.8361,121.3487
143.6813,121.4128
143.5170,121.4455
143.5170,121.4455
143.3494,121.4455
143.3494,121.4455
143.1851,121.4128
143.0303,121.3487
142.8910,121.2556
142.7726,121.1372
142.6795,120.9979
142.6154,120.8431
142.5827,120.6788
142.5827,120.5112
142.5827,120.5112
141.7837,120.5112
141.7837,120.5112
141.7837,120.6788
141.7510,120.8431
141.6869,120.9979
141.6869,120.9979
141.5938,121.1372
141.5938,121.1372
141.4754,121.2556
141.4754,121.2556
141.3361,121.3487
141.1813,121.4128
141.0170,121.4455
141.0170,121.4455
140.8494,121.4455
140.8494,121.4455
140.6851,121.4128
140.5303,121.3487
140.3910,121.2556
140.2726,121.1372
140.1795,120.9979
140.1154,120.8431
140.0827,120.6788
140.0827,120.5112
140.1154,120.3469
140.1795,120.1921
140.2726,120.0528
140.2726,120.0528
140.3910,119.9344
140.3910,119.9344
140.5303,119.8413
140.5303,119.8413
140.5303,119.8413
140.6441,119.7942
140.6851,119.7772
140.6851,119.7772
140.6851,119.7772
140.7678,119.7607
140.8494,119.7445
140.8494,119.7445
141.0170,119.7445
141.0170,119.7445
141.1394,119.7688
141.1813,119.7772
141.1813,119.7772
141.1813,119.7772
141.3361,119.8413
141.4754,119.9344
141.4754,119.9344
141.5938,120.0528
141.5938,120.0528
141.6869,120.1921
141.7510,120.3469
141.7837,120.5112
142.5827,120.5112
142.6154,120.3469
142.6795,120.1921
142.7726,120.0528
142.7726,120.0528
142.8910,119.9344
142.8910,119.9344
143.0303,119.8413
143.0303,119.8413
143.0303,119.8413
143.1441,119.7942
143.1851,119.7772
143.1851,119.7772
143.1851,119.7772
143.2678,119.7607
143.3494,119.7445
143.3494,119.7445
143.5170,119.7445
143.5170,119.7445
143.6394,119.7688
143.6813,119.7772
143.6813,119.7772
143.6813,119.7772
143.8361,119.8413
143.9754,119.9344
143.9754,119.9344
144.0938,120.0528
144.0938,120.0528
144.1869,120.1921
144.2510,120.3469
144.2837,120.5112
146.6827,120.5112
146.6827,119.6471
146.6891,119.5875
146.7104,119.5304
146.7394,119.4527
146.7394,119.4527
146.7394,119.4527
146.7825,119.3951
146.8257,119.3375
146.9188,119.2677
146.9409,119.2512
146.9409,119.2512
146.9409,119.2512
147.0757,119.2009
147.0757,119.2009
147.1353,119.1945
149.7311,119.1945
149.7311,119.1945
149.7907,119.2009
149.7907,119.2009
149.9255,119.2512
149.9255,119.2512
150.0407,119.3375
150.1270,119.4527
150.1270,119.4527
150.1773,119.5875
150.1837,119.6471
225.9415,119.6471
221.8318,115.5374
221.7695,115.5034
221.7427,115.5005
142.5681,115.5005
142.5048,115.5005
Z" /> 
</g>
<g style="fill:#FFFFFF; fill-opacity:1.0000; stroke:none;">
<circle cx="192.0022" cy="156.5405" r="0.1651" /> 
</g>
<g style="fill:#FFFFFF; fill-opacity:1.0000; stroke:none;">
<circle cx="222.1022" cy="151.5000" r="0.1651" /> 
</g>
<g style="fill:#FFFFFF; fill-opacity:1.0000; stroke:none;">
<circle cx="167.7022" cy="158.0000" r="0.1651" /> 
</g>
<g style="fill:#FFFFFF; fill-opacity:1.0000; stroke:none;">
<circle cx="176.6022" cy="137.6000" r="0.1651" /> 
</g>
<g style="fill:#FFFFFF; fill-opacity:1.0000; stroke:none;">
<circle cx="172.4260" cy="130.4301" r="0.1651" /> 
</g>
<g style="fill:#FFFFFF; fill-opacity:1.0000; stroke:none;">
<circle cx="222.1022" cy="154.0000" r="0.1651" /> 
</g>
<g style="fill:#FFFFFF; fill-opacity:1.0000; stroke:none;">
<circle cx="222.1022" cy="144.0000" r="0.1651" /> 
</g>
<g style="fill:#FFFFFF; fill-opacity:1.0000; stroke:none;">
<circle cx="199.5022" cy="145.5000" r="0.1651" /> 
</g>
<g style="fill:#FFFFFF; fill-opacity:1.0000; stroke:none;">
<circle cx="155.5272" cy="124.4000" r="0.1651" /> 
</g>
<g style="fill:#FFFFFF; fill-opacity:1.0000; stroke:none;">
<circle cx="214.2022" cy="147.4000" r="0.1651" /> 
</g>
<g style="fill:#FFFFFF; fill-opacity:1.0000; stroke:none;">
<circle cx="199.5022" cy="156.0000" r="0.1651" /> 
</g>
<g style="fill:#FFFFFF; fill-opacity:1.0000; stroke:none;">
<circle cx="180.8022" cy="141.7000" r="0.1651" /> 
</g>
<g style="fill:#FFFFFF; fill-opacity:1.0000; stroke:none;">
<circle cx="214.2022" cy="142.5000" r="0.1651" /> 
</g>
<g style="fill:#FFFFFF; fill-opacity:1.0000; stroke:none;">
<circle cx="173.5022" cy="121.2329" r="0.1651" /> 
</g>
<g style="fill:#FFFFFF; fill-opacity:1.0000; stroke:none;">
<circle cx="222.1022" cy="146.5000" r="0.1651" /> 
</g>
<g style="fill:#FFFFFF; fill-opacity:1.0000; stroke:none;">
<circle cx="222.1022" cy="141.5000" r="0.1651" /> 
</g>
<g style="fill:#FFFFFF; fill-opacity:1.0000; stroke:none;">
<circle cx="155.5272" cy="134.4000" r="0.1651" /> 
</g>
<g style="fill:#FFFFFF; fill-opacity:1.0000; stroke:none;">
<circle cx="190.6022" cy="127.8000" r="0.1651" /> 
</g>
<g style="fill:#FFFFFF; fill-opacity:1.0000; stroke:none;">
<circle cx="175.6022" cy="144.0000" r="0.1651" /> 
</g>
<g style="fill:#FFFFFF; fill-opacity:1.0000; stroke:none;">
<circle cx="205.2872" cy="156.5000" r="0.1651" /> 
</g>
<g style="fill:#FFFFFF; fill-opacity:1.0000; stroke:none;">
<circle cx="222.1022" cy="149.0000" r="0.1651" /> 
</g>
<g style="fill:#FFFFFF; fill-opacity:1.0000; stroke:none;">
<circle cx="174.2022" cy="130.5000" r="0.1651" /> 
</g>
<g style="fill:#FFFFFF; fill-opacity:1.0000; stroke:none;">
<circle cx="186.3022" cy="152.4000" r="0.1651" /> 
</g>
<g style="fill:#FFFFFF; fill-opacity:1.0000; stroke:none;">
<circle cx="195.3022" cy="161.4524" r="0.1651" /> 
</g>
<g style="fill:#FFFFFF; fill-opacity:1.0000; stroke:none;">
<circle cx="171.3022" cy="152.9000" r="0.1651" /> 
</g>
<g style="fill:#FFFFFF; fill-opacity:1.0000; stroke:none;">
<circle cx="179.6022" cy="153.0000" r="0.1651" /> 
</g>
<g style="fill:#FFFFFF; fill-opacity:1.0000; stroke:none;">
<circle cx="185.1022" cy="159.6000" r="0.1651" /> 
</g>
<g style="fill:#FFFFFF; fill-opacity:1.0000; stroke:none;">
<circle cx="204.4988" cy="157.4000" r="0.1651" /> 
</g>
<g style="fill:#FFFFFF; fill-opacity:1.0000; stroke:none;">
<circle cx="182.5810" cy="157.0923" r="0.1651" /> 
</g>
<g style="fill:#FFFFFF; fill-opacity:1.0000; stroke:none;">
<circle cx="201.2522" cy="158.4000" r="0.1651" /> 
</g>
<g style="fill:#FFFFFF; fill-opacity:1.0000; stroke:none;">
<circle cx="215.2553" cy="149.1726" r="0.1651" /> 
</g>
<g style="fill:#FFFFFF; fill-opacity:1.0000; stroke:none;">
<circle cx="211.5714" cy="153.5000" r="0.1651" /> 
</g>
<g style="fill:#FFFFFF; fill-opacity:1.0000; stroke:none;">
<circle cx="213.2295" cy="149.1514" r="0.1651" /> 
</g>
<g style="fill:#FFFFFF; fill-opacity:1.0000; stroke:none;">
<circle cx="209.1286" cy="153.5000" r="0.1651" /> 
</g>
<g style="fill:#FFFFFF; fill-opacity:1.0000; stroke:none;">
<circle cx="216.0073" cy="148.2812" r="0.1651" /> 
</g>
<g style="fill:#FFFFFF; fill-opacity:1.0000; stroke:none;">
<circle cx="214.2022" cy="153.5000" r="0.1651" /> 
</g>
<g style="fill:#FFFFFF; fill-opacity:1.0000; stroke:none;">
<circle cx="219.1022" cy="151.5000" r="0.1651" /> 
</g>
<g style="fill:#FFFFFF; fill-opacity:1.0000; stroke:none;">
<circle cx="215.8236" cy="152.5582" r="0.1651" /> 
</g>
<g style="fill:#FFFFFF; fill-opacity:1.0000; stroke:none;">
<circle cx="209.1022" cy="150.4426" r="0.1651" /> 
</g>
<g style="fill:#FFFFFF; fill-opacity:1.0000; stroke:none;">
<circle cx="206.5485" cy="153.0463" r="0.1651" /> 
</g>
<g style="fill:#FFFFFF; fill-opacity:1.0000; stroke:none;">
<circle cx="140.9332" cy="130.5950" r="0.6000" /> 
</g>
<g style="fill:#FFFFFF; fill-opacity:1.0000; stroke:none;">
<circle cx="140.9332" cy="120.5950" r="0.6000" /> 
</g>
<g style="fill:#FFFFFF; fill-opacity:1.0000; stroke:none;">
<circle cx="143.4332" cy="130.5950" r="0.6000" /> 
</g>
<g style="fill:#FFFFFF; fill-opacity:1.0000; stroke:none;">
<circle cx="143.4332" cy="120.5950" r="0.6000" /> 
</g>
<g style="fill:#FFFFFF; fill-opacity:1.0000; stroke:none;">
<circle cx="148.4332" cy="125.5950" r="0.6000" /> 
</g>
<g style="fill:none; 
stroke:#FFFFFF; stroke-width:0.8000; stroke-opacity:1; 
stroke-linecap:round; stroke-linejoin:round;">
<path d="M148.0832 130.5950
L148.7832 130.5950
" />
<path d="M148.0832 128.0950
L148.7832 128.0950
" />
<path d="M143.4332 125.9450
L143.4332 125.2450
" />
<path d="M148.0832 120.5950
L148.7832 120.5950
" />
<path d="M148.0832 123.0950
L148.7832 123.0950
" />
</g>
<g style="fill:#FFFFFF; fill-opacity:1.0000; stroke:none;">
<circle cx="232.0022" cy="154.1600" r="0.5000" /> 
</g>
<g style="fill:#FFFFFF; fill-opacity:1.0000; stroke:none;">
<circle cx="234.5422" cy="154.1600" r="0.5000" /> 
</g>
<g style="fill:#FFFFFF; fill-opacity:1.0000; stroke:none;">
<circle cx="232.0022" cy="151.6200" r="0.5000" /> 
</g>
<g style="fill:#FFFFFF; fill-opacity:1.0000; stroke:none;">
<circle cx="234.5422" cy="151.6200" r="0.5000" /> 
</g>
<g style="fill:#FFFFFF; fill-opacity:1.0000; stroke:none;">
<circle cx="232.0022" cy="149.0800" r="0.5000" /> 
</g>
<g style="fill:#FFFFFF; fill-opacity:1.0000; stroke:none;">
<circle cx="234.5422" cy="149.0800" r="0.5000" /> 
</g>
<g style="fill:#FFFFFF; fill-opacity:1.0000; stroke:none;">
<circle cx="232.0022" cy="146.5400" r="0.5000" /> 
</g>
<g style="fill:#FFFFFF; fill-opacity:1.0000; stroke:none;">
<circle cx="234.5422" cy="146.5400" r="0.5000" /> 
</g>
<g style="fill:#FFFFFF; fill-opacity:1.0000; stroke:none;">
<circle cx="232.0022" cy="144.0000" r="0.5000" /> 
</g>
<g style="fill:#FFFFFF; fill-opacity:1.0000; stroke:none;">
<circle cx="234.5422" cy="144.0000" r="0.5000" /> 
</g>
<g style="fill:#FFFFFF; fill-opacity:1.0000; stroke:none;">
<circle cx="232.0022" cy="141.4600" r="0.5000" /> 
</g>
<g style="fill:#FFFFFF; fill-opacity:1.0000; stroke:none;">
<circle cx="234.5422" cy="141.4600" r="0.5000" /> 
</g>
<g style="fill:#FFFFFF; fill-opacity:1.0000; stroke:none;">
<circle cx="231.9702" cy="131.8820" r="1.6000" /> 
</g>
<g style="fill:#FFFFFF; fill-opacity:1.0000; stroke:none;">
<circle cx="235.5022" cy="163.5000" r="0.5000" /> 
</g>
<g style="fill:#FFFFFF; fill-opacity:1.0000; stroke:none;">
<circle cx="232.9622" cy="163.5000" r="0.5000" /> 
</g>
<g style="fill:#FFFFFF; fill-opacity:1.0000; stroke:none;">
<circle cx="230.4222" cy="163.5000" r="0.5000" /> 
</g>
<g style="fill:#FFFFFF; fill-opacity:1.0000; stroke:none;">
<circle cx="227.8822" cy="163.5000" r="0.5000" /> 
</g>
<g style="fill:#FFFFFF; fill-opacity:1.0000; stroke:none;">
<circle cx="225.3422" cy="163.5000" r="0.5000" /> 
</g>
<g style="fill:#FFFFFF; fill-opacity:1.0000; stroke:none;">
<circle cx="222.8022" cy="163.5000" r="0.5000" /> 
</g>
<g style="fill:#FFFFFF; fill-opacity:1.0000; stroke:none;">
<circle cx="220.2622" cy="163.5000" r="0.5000" /> 
</g>
<g style="fill:#FFFFFF; fill-opacity:1.0000; stroke:none;">
<circle cx="217.7222" cy="163.5000" r="0.5000" /> 
</g>
<g style="fill:#FFFFFF; fill-opacity:1.0000; stroke:none;">
<circle cx="215.1822" cy="163.5000" r="0.5000" /> 
</g>
<g style="fill:#FFFFFF; fill-opacity:1.0000; stroke:none;">
<circle cx="212.6422" cy="163.5000" r="0.5000" /> 
</g>
<g style="fill:#FFFFFF; fill-opacity:1.0000; stroke:none;">
<circle cx="210.1022" cy="163.5000" r="0.5000" /> 
</g>
<g style="fill:#FFFFFF; fill-opacity:1.0000; stroke:none;">
<circle cx="207.5622" cy="163.5000" r="0.5000" /> 
</g>
<g style="fill:#FFFFFF; fill-opacity:1.0000; stroke:none;">
<circle cx="205.0222" cy="163.5000" r="0.5000" /> 
</g>
<g style="fill:#FFFFFF; fill-opacity:1.0000; stroke:none;">
<circle cx="202.4822" cy="163.5000" r="0.5000" /> 
</g>
<g style="fill:#FFFFFF; fill-opacity:1.0000; stroke:none;">
<circle cx="199.9422" cy="163.5000" r="0.5000" /> 
</g>
<g style="fill:#FFFFFF; fill-opacity:1.0000; stroke:none;">
<circle cx="197.4022" cy="163.5000" r="0.5000" /> 
</g>
<g style="fill:#FFFFFF; fill-opacity:1.0000; stroke:none;">
<circle cx="194.8622" cy="163.5000" r="0.5000" /> 
</g>
<g style="fill:#FFFFFF; fill-opacity:1.0000; stroke:none;">
<circle cx="192.3222" cy="163.5000" r="0.5000" /> 
</g>
<g style="fill:#FFFFFF; fill-opacity:1.0000; stroke:none;">
<circle cx="189.7822" cy="163.5000" r="0.5000" /> 
</g>
<g style="fill:#FFFFFF; fill-opacity:1.0000; stroke:none;">
<circle cx="187.2422" cy="163.5000" r="0.5000" /> 
</g>
<g style="fill:#FFFFFF; fill-opacity:1.0000; stroke:none;">
<circle cx="184.7022" cy="163.5000" r="0.5000" /> 
</g>
<g style="fill:#FFFFFF; fill-opacity:1.0000; stroke:none;">
<circle cx="182.1622" cy="163.5000" r="0.5000" /> 
</g>
<g style="fill:#FFFFFF; fill-opacity:1.0000; stroke:none;">
<circle cx="179.6222" cy="163.5000" r="0.5000" /> 
</g>
<g style="fill:#FFFFFF; fill-opacity:1.0000; stroke:none;">
<circle cx="177.0822" cy="163.5000" r="0.5000" /> 
</g>
<g style="fill:#FFFFFF; fill-opacity:1.0000; stroke:none;">
<circle cx="174.5422" cy="163.5000" r="0.5000" /> 
</g>
<g style="fill:#FFFFFF; fill-opacity:1.0000; stroke:none;">
<circle cx="172.0022" cy="163.5000" r="0.5000" /> 
</g>
<g style="fill:#FFFFFF; fill-opacity:1.0000; stroke:none;">
<circle cx="169.4622" cy="163.5000" r="0.5000" /> 
</g>
<g style="fill:#FFFFFF; fill-opacity:1.0000; stroke:none;">
<circle cx="166.9222" cy="163.5000" r="0.5000" /> 
</g>
<g style="fill:#FFFFFF; fill-opacity:1.0000; stroke:none;">
<circle cx="164.3822" cy="163.5000" r="0.5000" /> 
</g>
<g style="fill:#FFFFFF; fill-opacity:1.0000; stroke:none;">
<circle cx="161.8422" cy="163.5000" r="0.5000" /> 
</g>
<g style="fill:#FFFFFF; fill-opacity:1.0000; stroke:none;">
<circle cx="159.3022" cy="163.5000" r="0.5000" /> 
</g>
<g style="fill:#FFFFFF; fill-opacity:1.0000; stroke:none;">
<circle cx="156.7622" cy="163.5000" r="0.5000" /> 
</g>
<g style="fill:#FFFFFF; fill-opacity:1.0000; stroke:none;">
<circle cx="154.2222" cy="163.5000" r="0.5000" /> 
</g>
<g style="fill:#FFFFFF; fill-opacity:1.0000; stroke:none;">
<circle cx="151.6822" cy="163.5000" r="0.5000" /> 
</g>
<g style="fill:#FFFFFF; fill-opacity:1.0000; stroke:none;">
<circle cx="149.1422" cy="163.5000" r="0.5000" /> 
</g>
<g style="fill:#FFFFFF; fill-opacity:1.0000; stroke:none;">
<circle cx="146.6022" cy="163.5000" r="0.5000" /> 
</g>
<g style="fill:#FFFFFF; fill-opacity:1.0000; stroke:none;">
<circle cx="144.0622" cy="163.5000" r="0.5000" /> 
</g>
<g style="fill:#FFFFFF; fill-opacity:1.0000; stroke:none;">
<circle cx="141.5222" cy="163.5000" r="0.5000" /> 
</g>
<g style="fill:#FFFFFF; fill-opacity:1.0000; stroke:none;">
<circle cx="138.9822" cy="163.5000" r="0.5000" /> 
</g> 
</svg>
