<?xml version="1.0" standalone="no"?>
 <!DOCTYPE svg PUBLIC "-//W3C//DTD SVG 1.1//EN" 
 "http://www.w3.org/Graphics/SVG/1.1/DTD/svg11.dtd"> 
<svg
  xmlns:svg="http://www.w3.org/2000/svg"
  xmlns="http://www.w3.org/2000/svg"
  xmlns:xlink="http://www.w3.org/1999/xlink"
  version="1.1"
  width="297.0022mm" height="210.0072mm" viewBox="0.0000 0.0000 297.0022 210.0072">
<title>SVG Image created as rcbus-opl3-F_Paste2.svg date 2025/10/01 20:53:28 </title>
  <desc>Image generated by PCBNEW </desc>
<g style="fill:#000000; fill-opacity:1.0000;stroke:#000000; stroke-opacity:1.0000;
stroke-linecap:round; stroke-linejoin:round;"
 transform="translate(0 0) scale(1 1)">
<path style="fill:#000000; fill-opacity:1.0000; stroke:none;fill-rule:evenodd;"
d="M 112.4750,157.0000
112.4579,157.0861
112.4091,157.1591
112.3361,157.2079
112.2500,157.2250
111.8000,157.2250
111.7139,157.2079
111.6409,157.1591
111.5921,157.0861
111.5750,157.0000
111.5750,156.5000
111.5921,156.4139
111.6409,156.3409
111.7139,156.2921
111.8000,156.2750
112.2500,156.2750
112.3361,156.2921
112.4091,156.3409
112.4579,156.4139
112.4750,156.5000
Z" /> 
<path style="fill:#000000; fill-opacity:1.0000; stroke:none;fill-rule:evenodd;"
d="M 110.9250,157.0000
110.9079,157.0861
110.8591,157.1591
110.7861,157.2079
110.7000,157.2250
110.2500,157.2250
110.1639,157.2079
110.0909,157.1591
110.0421,157.0861
110.0250,157.0000
110.0250,156.5000
110.0421,156.4139
110.0909,156.3409
110.1639,156.2921
110.2500,156.2750
110.7000,156.2750
110.7861,156.2921
110.8591,156.3409
110.9079,156.4139
110.9250,156.5000
Z" /> 
<path style="fill:#000000; fill-opacity:1.0000; stroke:none;fill-rule:evenodd;"
d="M 112.4750,141.2500
112.4579,141.3361
112.4091,141.4091
112.3361,141.4579
112.2500,141.4750
111.8000,141.4750
111.7139,141.4579
111.6409,141.4091
111.5921,141.3361
111.5750,141.2500
111.5750,140.7500
111.5921,140.6639
111.6409,140.5909
111.7139,140.5421
111.8000,140.5250
112.2500,140.5250
112.3361,140.5421
112.4091,140.5909
112.4579,140.6639
112.4750,140.7500
Z" /> 
<path style="fill:#000000; fill-opacity:1.0000; stroke:none;fill-rule:evenodd;"
d="M 110.9250,141.2500
110.9079,141.3361
110.8591,141.4091
110.7861,141.4579
110.7000,141.4750
110.2500,141.4750
110.1639,141.4579
110.0909,141.4091
110.0421,141.3361
110.0250,141.2500
110.0250,140.7500
110.0421,140.6639
110.0909,140.5909
110.1639,140.5421
110.2500,140.5250
110.7000,140.5250
110.7861,140.5421
110.8591,140.5909
110.9079,140.6639
110.9250,140.7500
Z" /> 
<path style="fill:#000000; fill-opacity:1.0000; stroke:none;fill-rule:evenodd;"
d="M 80.7300,157.5250
80.6726,157.5136
80.6239,157.4811
80.5914,157.4324
80.5800,157.3750
80.5800,155.6250
80.5914,155.5676
80.6239,155.5189
80.6726,155.4864
80.7300,155.4750
81.0300,155.4750
81.0874,155.4864
81.1361,155.5189
81.1686,155.5676
81.1800,155.6250
81.1800,157.3750
81.1686,157.4324
81.1361,157.4811
81.0874,157.5136
81.0300,157.5250
Z" /> 
<path style="fill:#000000; fill-opacity:1.0000; stroke:none;fill-rule:evenodd;"
d="M 82.0000,157.5250
81.9426,157.5136
81.8939,157.4811
81.8614,157.4324
81.8500,157.3750
81.8500,155.6250
81.8614,155.5676
81.8939,155.5189
81.9426,155.4864
82.0000,155.4750
82.3000,155.4750
82.3574,155.4864
82.4061,155.5189
82.4386,155.5676
82.4500,155.6250
82.4500,157.3750
82.4386,157.4324
82.4061,157.4811
82.3574,157.5136
82.3000,157.5250
Z" /> 
<path style="fill:#000000; fill-opacity:1.0000; stroke:none;fill-rule:evenodd;"
d="M 83.2700,157.5250
83.2126,157.5136
83.1639,157.4811
83.1314,157.4324
83.1200,157.3750
83.1200,155.6250
83.1314,155.5676
83.1639,155.5189
83.2126,155.4864
83.2700,155.4750
83.5700,155.4750
83.6274,155.4864
83.6761,155.5189
83.7086,155.5676
83.7200,155.6250
83.7200,157.3750
83.7086,157.4324
83.6761,157.4811
83.6274,157.5136
83.5700,157.5250
Z" /> 
<path style="fill:#000000; fill-opacity:1.0000; stroke:none;fill-rule:evenodd;"
d="M 84.5400,157.5250
84.4826,157.5136
84.4339,157.4811
84.4014,157.4324
84.3900,157.3750
84.3900,155.6250
84.4014,155.5676
84.4339,155.5189
84.4826,155.4864
84.5400,155.4750
84.8400,155.4750
84.8974,155.4864
84.9461,155.5189
84.9786,155.5676
84.9900,155.6250
84.9900,157.3750
84.9786,157.4324
84.9461,157.4811
84.8974,157.5136
84.8400,157.5250
Z" /> 
<path style="fill:#000000; fill-opacity:1.0000; stroke:none;fill-rule:evenodd;"
d="M 85.8100,157.5250
85.7526,157.5136
85.7039,157.4811
85.6714,157.4324
85.6600,157.3750
85.6600,155.6250
85.6714,155.5676
85.7039,155.5189
85.7526,155.4864
85.8100,155.4750
86.1100,155.4750
86.1674,155.4864
86.2161,155.5189
86.2486,155.5676
86.2600,155.6250
86.2600,157.3750
86.2486,157.4324
86.2161,157.4811
86.1674,157.5136
86.1100,157.5250
Z" /> 
<path style="fill:#000000; fill-opacity:1.0000; stroke:none;fill-rule:evenodd;"
d="M 87.0800,157.5250
87.0226,157.5136
86.9739,157.4811
86.9414,157.4324
86.9300,157.3750
86.9300,155.6250
86.9414,155.5676
86.9739,155.5189
87.0226,155.4864
87.0800,155.4750
87.3800,155.4750
87.4374,155.4864
87.4861,155.5189
87.5186,155.5676
87.5300,155.6250
87.5300,157.3750
87.5186,157.4324
87.4861,157.4811
87.4374,157.5136
87.3800,157.5250
Z" /> 
<path style="fill:#000000; fill-opacity:1.0000; stroke:none;fill-rule:evenodd;"
d="M 88.3500,157.5250
88.2926,157.5136
88.2439,157.4811
88.2114,157.4324
88.2000,157.3750
88.2000,155.6250
88.2114,155.5676
88.2439,155.5189
88.2926,155.4864
88.3500,155.4750
88.6500,155.4750
88.7074,155.4864
88.7561,155.5189
88.7886,155.5676
88.8000,155.6250
88.8000,157.3750
88.7886,157.4324
88.7561,157.4811
88.7074,157.5136
88.6500,157.5250
Z" /> 
<path style="fill:#000000; fill-opacity:1.0000; stroke:none;fill-rule:evenodd;"
d="M 89.6200,157.5250
89.5626,157.5136
89.5139,157.4811
89.4814,157.4324
89.4700,157.3750
89.4700,155.6250
89.4814,155.5676
89.5139,155.5189
89.5626,155.4864
89.6200,155.4750
89.9200,155.4750
89.9774,155.4864
90.0261,155.5189
90.0586,155.5676
90.0700,155.6250
90.0700,157.3750
90.0586,157.4324
90.0261,157.4811
89.9774,157.5136
89.9200,157.5250
Z" /> 
<path style="fill:#000000; fill-opacity:1.0000; stroke:none;fill-rule:evenodd;"
d="M 90.8900,157.5250
90.8326,157.5136
90.7839,157.4811
90.7514,157.4324
90.7400,157.3750
90.7400,155.6250
90.7514,155.5676
90.7839,155.5189
90.8326,155.4864
90.8900,155.4750
91.1900,155.4750
91.2474,155.4864
91.2961,155.5189
91.3286,155.5676
91.3400,155.6250
91.3400,157.3750
91.3286,157.4324
91.2961,157.4811
91.2474,157.5136
91.1900,157.5250
Z" /> 
<path style="fill:#000000; fill-opacity:1.0000; stroke:none;fill-rule:evenodd;"
d="M 92.1600,157.5250
92.1026,157.5136
92.0539,157.4811
92.0214,157.4324
92.0100,157.3750
92.0100,155.6250
92.0214,155.5676
92.0539,155.5189
92.1026,155.4864
92.1600,155.4750
92.4600,155.4750
92.5174,155.4864
92.5661,155.5189
92.5986,155.5676
92.6100,155.6250
92.6100,157.3750
92.5986,157.4324
92.5661,157.4811
92.5174,157.5136
92.4600,157.5250
Z" /> 
<path style="fill:#000000; fill-opacity:1.0000; stroke:none;fill-rule:evenodd;"
d="M 92.1600,148.2250
92.1026,148.2136
92.0539,148.1811
92.0214,148.1324
92.0100,148.0750
92.0100,146.3250
92.0214,146.2676
92.0539,146.2189
92.1026,146.1864
92.1600,146.1750
92.4600,146.1750
92.5174,146.1864
92.5661,146.2189
92.5986,146.2676
92.6100,146.3250
92.6100,148.0750
92.5986,148.1324
92.5661,148.1811
92.5174,148.2136
92.4600,148.2250
Z" /> 
<path style="fill:#000000; fill-opacity:1.0000; stroke:none;fill-rule:evenodd;"
d="M 90.8900,148.2250
90.8326,148.2136
90.7839,148.1811
90.7514,148.1324
90.7400,148.0750
90.7400,146.3250
90.7514,146.2676
90.7839,146.2189
90.8326,146.1864
90.8900,146.1750
91.1900,146.1750
91.2474,146.1864
91.2961,146.2189
91.3286,146.2676
91.3400,146.3250
91.3400,148.0750
91.3286,148.1324
91.2961,148.1811
91.2474,148.2136
91.1900,148.2250
Z" /> 
<path style="fill:#000000; fill-opacity:1.0000; stroke:none;fill-rule:evenodd;"
d="M 89.6200,148.2250
89.5626,148.2136
89.5139,148.1811
89.4814,148.1324
89.4700,148.0750
89.4700,146.3250
89.4814,146.2676
89.5139,146.2189
89.5626,146.1864
89.6200,146.1750
89.9200,146.1750
89.9774,146.1864
90.0261,146.2189
90.0586,146.2676
90.0700,146.3250
90.0700,148.0750
90.0586,148.1324
90.0261,148.1811
89.9774,148.2136
89.9200,148.2250
Z" /> 
<path style="fill:#000000; fill-opacity:1.0000; stroke:none;fill-rule:evenodd;"
d="M 88.3500,148.2250
88.2926,148.2136
88.2439,148.1811
88.2114,148.1324
88.2000,148.0750
88.2000,146.3250
88.2114,146.2676
88.2439,146.2189
88.2926,146.1864
88.3500,146.1750
88.6500,146.1750
88.7074,146.1864
88.7561,146.2189
88.7886,146.2676
88.8000,146.3250
88.8000,148.0750
88.7886,148.1324
88.7561,148.1811
88.7074,148.2136
88.6500,148.2250
Z" /> 
<path style="fill:#000000; fill-opacity:1.0000; stroke:none;fill-rule:evenodd;"
d="M 87.0800,148.2250
87.0226,148.2136
86.9739,148.1811
86.9414,148.1324
86.9300,148.0750
86.9300,146.3250
86.9414,146.2676
86.9739,146.2189
87.0226,146.1864
87.0800,146.1750
87.3800,146.1750
87.4374,146.1864
87.4861,146.2189
87.5186,146.2676
87.5300,146.3250
87.5300,148.0750
87.5186,148.1324
87.4861,148.1811
87.4374,148.2136
87.3800,148.2250
Z" /> 
<path style="fill:#000000; fill-opacity:1.0000; stroke:none;fill-rule:evenodd;"
d="M 85.8100,148.2250
85.7526,148.2136
85.7039,148.1811
85.6714,148.1324
85.6600,148.0750
85.6600,146.3250
85.6714,146.2676
85.7039,146.2189
85.7526,146.1864
85.8100,146.1750
86.1100,146.1750
86.1674,146.1864
86.2161,146.2189
86.2486,146.2676
86.2600,146.3250
86.2600,148.0750
86.2486,148.1324
86.2161,148.1811
86.1674,148.2136
86.1100,148.2250
Z" /> 
<path style="fill:#000000; fill-opacity:1.0000; stroke:none;fill-rule:evenodd;"
d="M 84.5400,148.2250
84.4826,148.2136
84.4339,148.1811
84.4014,148.1324
84.3900,148.0750
84.3900,146.3250
84.4014,146.2676
84.4339,146.2189
84.4826,146.1864
84.5400,146.1750
84.8400,146.1750
84.8974,146.1864
84.9461,146.2189
84.9786,146.2676
84.9900,146.3250
84.9900,148.0750
84.9786,148.1324
84.9461,148.1811
84.8974,148.2136
84.8400,148.2250
Z" /> 
<path style="fill:#000000; fill-opacity:1.0000; stroke:none;fill-rule:evenodd;"
d="M 83.2700,148.2250
83.2126,148.2136
83.1639,148.1811
83.1314,148.1324
83.1200,148.0750
83.1200,146.3250
83.1314,146.2676
83.1639,146.2189
83.2126,146.1864
83.2700,146.1750
83.5700,146.1750
83.6274,146.1864
83.6761,146.2189
83.7086,146.2676
83.7200,146.3250
83.7200,148.0750
83.7086,148.1324
83.6761,148.1811
83.6274,148.2136
83.5700,148.2250
Z" /> 
<path style="fill:#000000; fill-opacity:1.0000; stroke:none;fill-rule:evenodd;"
d="M 82.0000,148.2250
81.9426,148.2136
81.8939,148.1811
81.8614,148.1324
81.8500,148.0750
81.8500,146.3250
81.8614,146.2676
81.8939,146.2189
81.9426,146.1864
82.0000,146.1750
82.3000,146.1750
82.3574,146.1864
82.4061,146.2189
82.4386,146.2676
82.4500,146.3250
82.4500,148.0750
82.4386,148.1324
82.4061,148.1811
82.3574,148.2136
82.3000,148.2250
Z" /> 
<path style="fill:#000000; fill-opacity:1.0000; stroke:none;fill-rule:evenodd;"
d="M 80.7300,148.2250
80.6726,148.2136
80.6239,148.1811
80.5914,148.1324
80.5800,148.0750
80.5800,146.3250
80.5914,146.2676
80.6239,146.2189
80.6726,146.1864
80.7300,146.1750
81.0300,146.1750
81.0874,146.1864
81.1361,146.2189
81.1686,146.2676
81.1800,146.3250
81.1800,148.0750
81.1686,148.1324
81.1361,148.1811
81.0874,148.2136
81.0300,148.2250
Z" /> 
<path style="fill:#000000; fill-opacity:1.0000; stroke:none;fill-rule:evenodd;"
d="M 121.7500,128.1552
121.8361,128.1723
121.9091,128.2211
121.9579,128.2941
121.9750,128.3802
121.9750,128.8302
121.9579,128.9163
121.9091,128.9893
121.8361,129.0381
121.7500,129.0552
121.2500,129.0552
121.1639,129.0381
121.0909,128.9893
121.0421,128.9163
121.0250,128.8302
121.0250,128.3802
121.0421,128.2941
121.0909,128.2211
121.1639,128.1723
121.2500,128.1552
Z" /> 
<path style="fill:#000000; fill-opacity:1.0000; stroke:none;fill-rule:evenodd;"
d="M 121.7500,129.7052
121.8361,129.7223
121.9091,129.7711
121.9579,129.8441
121.9750,129.9302
121.9750,130.3802
121.9579,130.4663
121.9091,130.5393
121.8361,130.5881
121.7500,130.6052
121.2500,130.6052
121.1639,130.5881
121.0909,130.5393
121.0421,130.4663
121.0250,130.3802
121.0250,129.9302
121.0421,129.8441
121.0909,129.7711
121.1639,129.7223
121.2500,129.7052
Z" /> 
<path style="fill:#000000; fill-opacity:1.0000; stroke:none;fill-rule:evenodd;"
d="M 116.7500,128.1552
116.8361,128.1723
116.9091,128.2211
116.9579,128.2941
116.9750,128.3802
116.9750,128.8302
116.9579,128.9163
116.9091,128.9893
116.8361,129.0381
116.7500,129.0552
116.2500,129.0552
116.1639,129.0381
116.0909,128.9893
116.0421,128.9163
116.0250,128.8302
116.0250,128.3802
116.0421,128.2941
116.0909,128.2211
116.1639,128.1723
116.2500,128.1552
Z" /> 
<path style="fill:#000000; fill-opacity:1.0000; stroke:none;fill-rule:evenodd;"
d="M 116.7500,129.7052
116.8361,129.7223
116.9091,129.7711
116.9579,129.8441
116.9750,129.9302
116.9750,130.3802
116.9579,130.4663
116.9091,130.5393
116.8361,130.5881
116.7500,130.6052
116.2500,130.6052
116.1639,130.5881
116.0909,130.5393
116.0421,130.4663
116.0250,130.3802
116.0250,129.9302
116.0421,129.8441
116.0909,129.7711
116.1639,129.7223
116.2500,129.7052
Z" /> 
<path style="fill:#000000; fill-opacity:1.0000; stroke:none;fill-rule:evenodd;"
d="M 119.5000,128.1552
119.5861,128.1723
119.6591,128.2211
119.7079,128.2941
119.7250,128.3802
119.7250,128.8302
119.7079,128.9163
119.6591,128.9893
119.5861,129.0381
119.5000,129.0552
119.0000,129.0552
118.9139,129.0381
118.8409,128.9893
118.7921,128.9163
118.7750,128.8302
118.7750,128.3802
118.7921,128.2941
118.8409,128.2211
118.9139,128.1723
119.0000,128.1552
Z" /> 
<path style="fill:#000000; fill-opacity:1.0000; stroke:none;fill-rule:evenodd;"
d="M 119.5000,129.7052
119.5861,129.7223
119.6591,129.7711
119.7079,129.8441
119.7250,129.9302
119.7250,130.3802
119.7079,130.4663
119.6591,130.5393
119.5861,130.5881
119.5000,130.6052
119.0000,130.6052
118.9139,130.5881
118.8409,130.5393
118.7921,130.4663
118.7750,130.3802
118.7750,129.9302
118.7921,129.8441
118.8409,129.7711
118.9139,129.7223
119.0000,129.7052
Z" /> 
<path style="fill:#000000; fill-opacity:1.0000; stroke:none;fill-rule:evenodd;"
d="M 114.3775,157.6500
114.3249,157.6395
114.2803,157.6097
114.2505,157.5651
114.2400,157.5125
114.2400,155.7875
114.2505,155.7349
114.2803,155.6903
114.3249,155.6605
114.3775,155.6500
114.6525,155.6500
114.7051,155.6605
114.7497,155.6903
114.7795,155.7349
114.7900,155.7875
114.7900,157.5125
114.7795,157.5651
114.7497,157.6097
114.7051,157.6395
114.6525,157.6500
Z" /> 
<path style="fill:#000000; fill-opacity:1.0000; stroke:none;fill-rule:evenodd;"
d="M 115.6475,157.6500
115.5949,157.6395
115.5503,157.6097
115.5205,157.5651
115.5100,157.5125
115.5100,155.7875
115.5205,155.7349
115.5503,155.6903
115.5949,155.6605
115.6475,155.6500
115.9225,155.6500
115.9751,155.6605
116.0197,155.6903
116.0495,155.7349
116.0600,155.7875
116.0600,157.5125
116.0495,157.5651
116.0197,157.6097
115.9751,157.6395
115.9225,157.6500
Z" /> 
<path style="fill:#000000; fill-opacity:1.0000; stroke:none;fill-rule:evenodd;"
d="M 116.9175,157.6500
116.8649,157.6395
116.8203,157.6097
116.7905,157.5651
116.7800,157.5125
116.7800,155.7875
116.7905,155.7349
116.8203,155.6903
116.8649,155.6605
116.9175,155.6500
117.1925,155.6500
117.2451,155.6605
117.2897,155.6903
117.3195,155.7349
117.3300,155.7875
117.3300,157.5125
117.3195,157.5651
117.2897,157.6097
117.2451,157.6395
117.1925,157.6500
Z" /> 
<path style="fill:#000000; fill-opacity:1.0000; stroke:none;fill-rule:evenodd;"
d="M 118.1875,157.6500
118.1349,157.6395
118.0903,157.6097
118.0605,157.5651
118.0500,157.5125
118.0500,155.7875
118.0605,155.7349
118.0903,155.6903
118.1349,155.6605
118.1875,155.6500
118.4625,155.6500
118.5151,155.6605
118.5597,155.6903
118.5895,155.7349
118.6000,155.7875
118.6000,157.5125
118.5895,157.5651
118.5597,157.6097
118.5151,157.6395
118.4625,157.6500
Z" /> 
<path style="fill:#000000; fill-opacity:1.0000; stroke:none;fill-rule:evenodd;"
d="M 119.4575,157.6500
119.4049,157.6395
119.3603,157.6097
119.3305,157.5651
119.3200,157.5125
119.3200,155.7875
119.3305,155.7349
119.3603,155.6903
119.4049,155.6605
119.4575,155.6500
119.7325,155.6500
119.7851,155.6605
119.8297,155.6903
119.8595,155.7349
119.8700,155.7875
119.8700,157.5125
119.8595,157.5651
119.8297,157.6097
119.7851,157.6395
119.7325,157.6500
Z" /> 
<path style="fill:#000000; fill-opacity:1.0000; stroke:none;fill-rule:evenodd;"
d="M 120.7275,157.6500
120.6749,157.6395
120.6303,157.6097
120.6005,157.5651
120.5900,157.5125
120.5900,155.7875
120.6005,155.7349
120.6303,155.6903
120.6749,155.6605
120.7275,155.6500
121.0025,155.6500
121.0551,155.6605
121.0997,155.6903
121.1295,155.7349
121.1400,155.7875
121.1400,157.5125
121.1295,157.5651
121.0997,157.6097
121.0551,157.6395
121.0025,157.6500
Z" /> 
<path style="fill:#000000; fill-opacity:1.0000; stroke:none;fill-rule:evenodd;"
d="M 121.9975,157.6500
121.9449,157.6395
121.9003,157.6097
121.8705,157.5651
121.8600,157.5125
121.8600,155.7875
121.8705,155.7349
121.9003,155.6903
121.9449,155.6605
121.9975,155.6500
122.2725,155.6500
122.3251,155.6605
122.3697,155.6903
122.3995,155.7349
122.4100,155.7875
122.4100,157.5125
122.3995,157.5651
122.3697,157.6097
122.3251,157.6395
122.2725,157.6500
Z" /> 
<path style="fill:#000000; fill-opacity:1.0000; stroke:none;fill-rule:evenodd;"
d="M 123.2675,157.6500
123.2149,157.6395
123.1703,157.6097
123.1405,157.5651
123.1300,157.5125
123.1300,155.7875
123.1405,155.7349
123.1703,155.6903
123.2149,155.6605
123.2675,155.6500
123.5425,155.6500
123.5951,155.6605
123.6397,155.6903
123.6695,155.7349
123.6800,155.7875
123.6800,157.5125
123.6695,157.5651
123.6397,157.6097
123.5951,157.6395
123.5425,157.6500
Z" /> 
<path style="fill:#000000; fill-opacity:1.0000; stroke:none;fill-rule:evenodd;"
d="M 124.5375,157.6500
124.4849,157.6395
124.4403,157.6097
124.4105,157.5651
124.4000,157.5125
124.4000,155.7875
124.4105,155.7349
124.4403,155.6903
124.4849,155.6605
124.5375,155.6500
124.8125,155.6500
124.8651,155.6605
124.9097,155.6903
124.9395,155.7349
124.9500,155.7875
124.9500,157.5125
124.9395,157.5651
124.9097,157.6097
124.8651,157.6395
124.8125,157.6500
Z" /> 
<path style="fill:#000000; fill-opacity:1.0000; stroke:none;fill-rule:evenodd;"
d="M 125.8075,157.6500
125.7549,157.6395
125.7103,157.6097
125.6805,157.5651
125.6700,157.5125
125.6700,155.7875
125.6805,155.7349
125.7103,155.6903
125.7549,155.6605
125.8075,155.6500
126.0825,155.6500
126.1351,155.6605
126.1797,155.6903
126.2095,155.7349
126.2200,155.7875
126.2200,157.5125
126.2095,157.5651
126.1797,157.6097
126.1351,157.6395
126.0825,157.6500
Z" /> 
<path style="fill:#000000; fill-opacity:1.0000; stroke:none;fill-rule:evenodd;"
d="M 127.0775,157.6500
127.0249,157.6395
126.9803,157.6097
126.9505,157.5651
126.9400,157.5125
126.9400,155.7875
126.9505,155.7349
126.9803,155.6903
127.0249,155.6605
127.0775,155.6500
127.3525,155.6500
127.4051,155.6605
127.4497,155.6903
127.4795,155.7349
127.4900,155.7875
127.4900,157.5125
127.4795,157.5651
127.4497,157.6097
127.4051,157.6395
127.3525,157.6500
Z" /> 
<path style="fill:#000000; fill-opacity:1.0000; stroke:none;fill-rule:evenodd;"
d="M 128.3475,157.6500
128.2949,157.6395
128.2503,157.6097
128.2205,157.5651
128.2100,157.5125
128.2100,155.7875
128.2205,155.7349
128.2503,155.6903
128.2949,155.6605
128.3475,155.6500
128.6225,155.6500
128.6751,155.6605
128.7197,155.6903
128.7495,155.7349
128.7600,155.7875
128.7600,157.5125
128.7495,157.5651
128.7197,157.6097
128.6751,157.6395
128.6225,157.6500
Z" /> 
<path style="fill:#000000; fill-opacity:1.0000; stroke:none;fill-rule:evenodd;"
d="M 128.3475,148.3500
128.2949,148.3395
128.2503,148.3097
128.2205,148.2651
128.2100,148.2125
128.2100,146.4875
128.2205,146.4349
128.2503,146.3903
128.2949,146.3605
128.3475,146.3500
128.6225,146.3500
128.6751,146.3605
128.7197,146.3903
128.7495,146.4349
128.7600,146.4875
128.7600,148.2125
128.7495,148.2651
128.7197,148.3097
128.6751,148.3395
128.6225,148.3500
Z" /> 
<path style="fill:#000000; fill-opacity:1.0000; stroke:none;fill-rule:evenodd;"
d="M 127.0775,148.3500
127.0249,148.3395
126.9803,148.3097
126.9505,148.2651
126.9400,148.2125
126.9400,146.4875
126.9505,146.4349
126.9803,146.3903
127.0249,146.3605
127.0775,146.3500
127.3525,146.3500
127.4051,146.3605
127.4497,146.3903
127.4795,146.4349
127.4900,146.4875
127.4900,148.2125
127.4795,148.2651
127.4497,148.3097
127.4051,148.3395
127.3525,148.3500
Z" /> 
<path style="fill:#000000; fill-opacity:1.0000; stroke:none;fill-rule:evenodd;"
d="M 125.8075,148.3500
125.7549,148.3395
125.7103,148.3097
125.6805,148.2651
125.6700,148.2125
125.6700,146.4875
125.6805,146.4349
125.7103,146.3903
125.7549,146.3605
125.8075,146.3500
126.0825,146.3500
126.1351,146.3605
126.1797,146.3903
126.2095,146.4349
126.2200,146.4875
126.2200,148.2125
126.2095,148.2651
126.1797,148.3097
126.1351,148.3395
126.0825,148.3500
Z" /> 
<path style="fill:#000000; fill-opacity:1.0000; stroke:none;fill-rule:evenodd;"
d="M 124.5375,148.3500
124.4849,148.3395
124.4403,148.3097
124.4105,148.2651
124.4000,148.2125
124.4000,146.4875
124.4105,146.4349
124.4403,146.3903
124.4849,146.3605
124.5375,146.3500
124.8125,146.3500
124.8651,146.3605
124.9097,146.3903
124.9395,146.4349
124.9500,146.4875
124.9500,148.2125
124.9395,148.2651
124.9097,148.3097
124.8651,148.3395
124.8125,148.3500
Z" /> 
<path style="fill:#000000; fill-opacity:1.0000; stroke:none;fill-rule:evenodd;"
d="M 123.2675,148.3500
123.2149,148.3395
123.1703,148.3097
123.1405,148.2651
123.1300,148.2125
123.1300,146.4875
123.1405,146.4349
123.1703,146.3903
123.2149,146.3605
123.2675,146.3500
123.5425,146.3500
123.5951,146.3605
123.6397,146.3903
123.6695,146.4349
123.6800,146.4875
123.6800,148.2125
123.6695,148.2651
123.6397,148.3097
123.5951,148.3395
123.5425,148.3500
Z" /> 
<path style="fill:#000000; fill-opacity:1.0000; stroke:none;fill-rule:evenodd;"
d="M 121.9975,148.3500
121.9449,148.3395
121.9003,148.3097
121.8705,148.2651
121.8600,148.2125
121.8600,146.4875
121.8705,146.4349
121.9003,146.3903
121.9449,146.3605
121.9975,146.3500
122.2725,146.3500
122.3251,146.3605
122.3697,146.3903
122.3995,146.4349
122.4100,146.4875
122.4100,148.2125
122.3995,148.2651
122.3697,148.3097
122.3251,148.3395
122.2725,148.3500
Z" /> 
<path style="fill:#000000; fill-opacity:1.0000; stroke:none;fill-rule:evenodd;"
d="M 120.7275,148.3500
120.6749,148.3395
120.6303,148.3097
120.6005,148.2651
120.5900,148.2125
120.5900,146.4875
120.6005,146.4349
120.6303,146.3903
120.6749,146.3605
120.7275,146.3500
121.0025,146.3500
121.0551,146.3605
121.0997,146.3903
121.1295,146.4349
121.1400,146.4875
121.1400,148.2125
121.1295,148.2651
121.0997,148.3097
121.0551,148.3395
121.0025,148.3500
Z" /> 
<path style="fill:#000000; fill-opacity:1.0000; stroke:none;fill-rule:evenodd;"
d="M 119.4575,148.3500
119.4049,148.3395
119.3603,148.3097
119.3305,148.2651
119.3200,148.2125
119.3200,146.4875
119.3305,146.4349
119.3603,146.3903
119.4049,146.3605
119.4575,146.3500
119.7325,146.3500
119.7851,146.3605
119.8297,146.3903
119.8595,146.4349
119.8700,146.4875
119.8700,148.2125
119.8595,148.2651
119.8297,148.3097
119.7851,148.3395
119.7325,148.3500
Z" /> 
<path style="fill:#000000; fill-opacity:1.0000; stroke:none;fill-rule:evenodd;"
d="M 118.1875,148.3500
118.1349,148.3395
118.0903,148.3097
118.0605,148.2651
118.0500,148.2125
118.0500,146.4875
118.0605,146.4349
118.0903,146.3903
118.1349,146.3605
118.1875,146.3500
118.4625,146.3500
118.5151,146.3605
118.5597,146.3903
118.5895,146.4349
118.6000,146.4875
118.6000,148.2125
118.5895,148.2651
118.5597,148.3097
118.5151,148.3395
118.4625,148.3500
Z" /> 
<path style="fill:#000000; fill-opacity:1.0000; stroke:none;fill-rule:evenodd;"
d="M 116.9175,148.3500
116.8649,148.3395
116.8203,148.3097
116.7905,148.2651
116.7800,148.2125
116.7800,146.4875
116.7905,146.4349
116.8203,146.3903
116.8649,146.3605
116.9175,146.3500
117.1925,146.3500
117.2451,146.3605
117.2897,146.3903
117.3195,146.4349
117.3300,146.4875
117.3300,148.2125
117.3195,148.2651
117.2897,148.3097
117.2451,148.3395
117.1925,148.3500
Z" /> 
<path style="fill:#000000; fill-opacity:1.0000; stroke:none;fill-rule:evenodd;"
d="M 115.6475,148.3500
115.5949,148.3395
115.5503,148.3097
115.5205,148.2651
115.5100,148.2125
115.5100,146.4875
115.5205,146.4349
115.5503,146.3903
115.5949,146.3605
115.6475,146.3500
115.9225,146.3500
115.9751,146.3605
116.0197,146.3903
116.0495,146.4349
116.0600,146.4875
116.0600,148.2125
116.0495,148.2651
116.0197,148.3097
115.9751,148.3395
115.9225,148.3500
Z" /> 
<path style="fill:#000000; fill-opacity:1.0000; stroke:none;fill-rule:evenodd;"
d="M 114.3775,148.3500
114.3249,148.3395
114.2803,148.3097
114.2505,148.2651
114.2400,148.2125
114.2400,146.4875
114.2505,146.4349
114.2803,146.3903
114.3249,146.3605
114.3775,146.3500
114.6525,146.3500
114.7051,146.3605
114.7497,146.3903
114.7795,146.4349
114.7900,146.4875
114.7900,148.2125
114.7795,148.2651
114.7497,148.3097
114.7051,148.3395
114.6525,148.3500
Z" /> 
<path style="fill:#000000; fill-opacity:1.0000; stroke:none;fill-rule:evenodd;"
d="M 81.2250,145.2500
81.2079,145.3361
81.1591,145.4091
81.0861,145.4579
81.0000,145.4750
80.5500,145.4750
80.4639,145.4579
80.3909,145.4091
80.3421,145.3361
80.3250,145.2500
80.3250,144.7500
80.3421,144.6639
80.3909,144.5909
80.4639,144.5421
80.5500,144.5250
81.0000,144.5250
81.0861,144.5421
81.1591,144.5909
81.2079,144.6639
81.2250,144.7500
Z" /> 
<path style="fill:#000000; fill-opacity:1.0000; stroke:none;fill-rule:evenodd;"
d="M 79.6750,145.2500
79.6579,145.3361
79.6091,145.4091
79.5361,145.4579
79.4500,145.4750
79.0000,145.4750
78.9139,145.4579
78.8409,145.4091
78.7921,145.3361
78.7750,145.2500
78.7750,144.7500
78.7921,144.6639
78.8409,144.5909
78.9139,144.5421
79.0000,144.5250
79.4500,144.5250
79.5361,144.5421
79.6091,144.5909
79.6579,144.6639
79.6750,144.7500
Z" /> 
<path style="fill:#000000; fill-opacity:1.0000; stroke:none;fill-rule:evenodd;"
d="M 103.8100,150.0000
103.8290,149.9043
103.8832,149.8232
103.9643,149.7690
104.0600,149.7500
105.3600,149.7500
105.4557,149.7690
105.5368,149.8232
105.5910,149.9043
105.6100,150.0000
105.6100,151.5000
105.5910,151.5957
105.5368,151.6768
105.4557,151.7310
105.3600,151.7500
104.0600,151.7500
103.9643,151.7310
103.8832,151.6768
103.8290,151.5957
103.8100,151.5000
Z" /> 
<path style="fill:#000000; fill-opacity:1.0000; stroke:none;fill-rule:evenodd;"
d="M 108.8900,150.0000
108.9090,149.9043
108.9632,149.8232
109.0443,149.7690
109.1400,149.7500
110.4400,149.7500
110.5357,149.7690
110.6168,149.8232
110.6710,149.9043
110.6900,150.0000
110.6900,151.5000
110.6710,151.5957
110.6168,151.6768
110.5357,151.7310
110.4400,151.7500
109.1400,151.7500
109.0443,151.7310
108.9632,151.6768
108.9090,151.5957
108.8900,151.5000
Z" /> 
<path style="fill:#000000; fill-opacity:1.0000; stroke:none;fill-rule:evenodd;"
d="M 108.8900,146.0000
108.9090,145.9043
108.9632,145.8232
109.0443,145.7690
109.1400,145.7500
110.4400,145.7500
110.5357,145.7690
110.6168,145.8232
110.6710,145.9043
110.6900,146.0000
110.6900,147.5000
110.6710,147.5957
110.6168,147.6768
110.5357,147.7310
110.4400,147.7500
109.1400,147.7500
109.0443,147.7310
108.9632,147.6768
108.9090,147.5957
108.8900,147.5000
Z" /> 
<path style="fill:#000000; fill-opacity:1.0000; stroke:none;fill-rule:evenodd;"
d="M 103.8100,146.0000
103.8290,145.9043
103.8832,145.8232
103.9643,145.7690
104.0600,145.7500
105.3600,145.7500
105.4557,145.7690
105.5368,145.8232
105.5910,145.9043
105.6100,146.0000
105.6100,147.5000
105.5910,147.5957
105.5368,147.6768
105.4557,147.7310
105.3600,147.7500
104.0600,147.7500
103.9643,147.7310
103.8832,147.6768
103.8290,147.5957
103.8100,147.5000
Z" /> 
<path style="fill:#000000; fill-opacity:1.0000; stroke:none;fill-rule:evenodd;"
d="M 92.7437,138.3500
92.6600,138.3333
92.5891,138.2859
92.5417,138.2150
92.5250,138.1312
92.5250,137.6937
92.5417,137.6100
92.5891,137.5391
92.6600,137.4917
92.7437,137.4750
93.2562,137.4750
93.3400,137.4917
93.4109,137.5391
93.4583,137.6100
93.4750,137.6937
93.4750,138.1312
93.4583,138.2150
93.4109,138.2859
93.3400,138.3333
93.2562,138.3500
Z" /> 
<path style="fill:#000000; fill-opacity:1.0000; stroke:none;fill-rule:evenodd;"
d="M 92.7437,136.7750
92.6600,136.7583
92.5891,136.7109
92.5417,136.6400
92.5250,136.5563
92.5250,136.1188
92.5417,136.0350
92.5891,135.9641
92.6600,135.9167
92.7437,135.9000
93.2562,135.9000
93.3400,135.9167
93.4109,135.9641
93.4583,136.0350
93.4750,136.1188
93.4750,136.5563
93.4583,136.6400
93.4109,136.7109
93.3400,136.7583
93.2562,136.7750
Z" /> 
<path style="fill:#000000; fill-opacity:1.0000; stroke:none;fill-rule:evenodd;"
d="M 114.4050,142.0500
114.3476,142.0386
114.2989,142.0061
114.2664,141.9574
114.2550,141.9000
114.2550,140.6000
114.2664,140.5426
114.2989,140.4939
114.3476,140.4614
114.4050,140.4500
114.7050,140.4500
114.7624,140.4614
114.8111,140.4939
114.8436,140.5426
114.8550,140.6000
114.8550,141.9000
114.8436,141.9574
114.8111,142.0061
114.7624,142.0386
114.7050,142.0500
Z" /> 
<path style="fill:#000000; fill-opacity:1.0000; stroke:none;fill-rule:evenodd;"
d="M 115.6750,142.0500
115.6176,142.0386
115.5689,142.0061
115.5364,141.9574
115.5250,141.9000
115.5250,140.6000
115.5364,140.5426
115.5689,140.4939
115.6176,140.4614
115.6750,140.4500
115.9750,140.4500
116.0324,140.4614
116.0811,140.4939
116.1136,140.5426
116.1250,140.6000
116.1250,141.9000
116.1136,141.9574
116.0811,142.0061
116.0324,142.0386
115.9750,142.0500
Z" /> 
<path style="fill:#000000; fill-opacity:1.0000; stroke:none;fill-rule:evenodd;"
d="M 116.9450,142.0500
116.8876,142.0386
116.8389,142.0061
116.8064,141.9574
116.7950,141.9000
116.7950,140.6000
116.8064,140.5426
116.8389,140.4939
116.8876,140.4614
116.9450,140.4500
117.2450,140.4500
117.3024,140.4614
117.3511,140.4939
117.3836,140.5426
117.3950,140.6000
117.3950,141.9000
117.3836,141.9574
117.3511,142.0061
117.3024,142.0386
117.2450,142.0500
Z" /> 
<path style="fill:#000000; fill-opacity:1.0000; stroke:none;fill-rule:evenodd;"
d="M 118.2150,142.0500
118.1576,142.0386
118.1089,142.0061
118.0764,141.9574
118.0650,141.9000
118.0650,140.6000
118.0764,140.5426
118.1089,140.4939
118.1576,140.4614
118.2150,140.4500
118.5150,140.4500
118.5724,140.4614
118.6211,140.4939
118.6536,140.5426
118.6650,140.6000
118.6650,141.9000
118.6536,141.9574
118.6211,142.0061
118.5724,142.0386
118.5150,142.0500
Z" /> 
<path style="fill:#000000; fill-opacity:1.0000; stroke:none;fill-rule:evenodd;"
d="M 119.4850,142.0500
119.4276,142.0386
119.3789,142.0061
119.3464,141.9574
119.3350,141.9000
119.3350,140.6000
119.3464,140.5426
119.3789,140.4939
119.4276,140.4614
119.4850,140.4500
119.7850,140.4500
119.8424,140.4614
119.8911,140.4939
119.9236,140.5426
119.9350,140.6000
119.9350,141.9000
119.9236,141.9574
119.8911,142.0061
119.8424,142.0386
119.7850,142.0500
Z" /> 
<path style="fill:#000000; fill-opacity:1.0000; stroke:none;fill-rule:evenodd;"
d="M 120.7550,142.0500
120.6976,142.0386
120.6489,142.0061
120.6164,141.9574
120.6050,141.9000
120.6050,140.6000
120.6164,140.5426
120.6489,140.4939
120.6976,140.4614
120.7550,140.4500
121.0550,140.4500
121.1124,140.4614
121.1611,140.4939
121.1936,140.5426
121.2050,140.6000
121.2050,141.9000
121.1936,141.9574
121.1611,142.0061
121.1124,142.0386
121.0550,142.0500
Z" /> 
<path style="fill:#000000; fill-opacity:1.0000; stroke:none;fill-rule:evenodd;"
d="M 122.0250,142.0500
121.9676,142.0386
121.9189,142.0061
121.8864,141.9574
121.8750,141.9000
121.8750,140.6000
121.8864,140.5426
121.9189,140.4939
121.9676,140.4614
122.0250,140.4500
122.3250,140.4500
122.3824,140.4614
122.4311,140.4939
122.4636,140.5426
122.4750,140.6000
122.4750,141.9000
122.4636,141.9574
122.4311,142.0061
122.3824,142.0386
122.3250,142.0500
Z" /> 
<path style="fill:#000000; fill-opacity:1.0000; stroke:none;fill-rule:evenodd;"
d="M 123.2950,142.0500
123.2376,142.0386
123.1889,142.0061
123.1564,141.9574
123.1450,141.9000
123.1450,140.6000
123.1564,140.5426
123.1889,140.4939
123.2376,140.4614
123.2950,140.4500
123.5950,140.4500
123.6524,140.4614
123.7011,140.4939
123.7336,140.5426
123.7450,140.6000
123.7450,141.9000
123.7336,141.9574
123.7011,142.0061
123.6524,142.0386
123.5950,142.0500
Z" /> 
<path style="fill:#000000; fill-opacity:1.0000; stroke:none;fill-rule:evenodd;"
d="M 123.2950,135.5500
123.2376,135.5386
123.1889,135.5061
123.1564,135.4574
123.1450,135.4000
123.1450,134.1000
123.1564,134.0426
123.1889,133.9939
123.2376,133.9614
123.2950,133.9500
123.5950,133.9500
123.6524,133.9614
123.7011,133.9939
123.7336,134.0426
123.7450,134.1000
123.7450,135.4000
123.7336,135.4574
123.7011,135.5061
123.6524,135.5386
123.5950,135.5500
Z" /> 
<path style="fill:#000000; fill-opacity:1.0000; stroke:none;fill-rule:evenodd;"
d="M 122.0250,135.5500
121.9676,135.5386
121.9189,135.5061
121.8864,135.4574
121.8750,135.4000
121.8750,134.1000
121.8864,134.0426
121.9189,133.9939
121.9676,133.9614
122.0250,133.9500
122.3250,133.9500
122.3824,133.9614
122.4311,133.9939
122.4636,134.0426
122.4750,134.1000
122.4750,135.4000
122.4636,135.4574
122.4311,135.5061
122.3824,135.5386
122.3250,135.5500
Z" /> 
<path style="fill:#000000; fill-opacity:1.0000; stroke:none;fill-rule:evenodd;"
d="M 120.7550,135.5500
120.6976,135.5386
120.6489,135.5061
120.6164,135.4574
120.6050,135.4000
120.6050,134.1000
120.6164,134.0426
120.6489,133.9939
120.6976,133.9614
120.7550,133.9500
121.0550,133.9500
121.1124,133.9614
121.1611,133.9939
121.1936,134.0426
121.2050,134.1000
121.2050,135.4000
121.1936,135.4574
121.1611,135.5061
121.1124,135.5386
121.0550,135.5500
Z" /> 
<path style="fill:#000000; fill-opacity:1.0000; stroke:none;fill-rule:evenodd;"
d="M 119.4850,135.5500
119.4276,135.5386
119.3789,135.5061
119.3464,135.4574
119.3350,135.4000
119.3350,134.1000
119.3464,134.0426
119.3789,133.9939
119.4276,133.9614
119.4850,133.9500
119.7850,133.9500
119.8424,133.9614
119.8911,133.9939
119.9236,134.0426
119.9350,134.1000
119.9350,135.4000
119.9236,135.4574
119.8911,135.5061
119.8424,135.5386
119.7850,135.5500
Z" /> 
<path style="fill:#000000; fill-opacity:1.0000; stroke:none;fill-rule:evenodd;"
d="M 118.2150,135.5500
118.1576,135.5386
118.1089,135.5061
118.0764,135.4574
118.0650,135.4000
118.0650,134.1000
118.0764,134.0426
118.1089,133.9939
118.1576,133.9614
118.2150,133.9500
118.5150,133.9500
118.5724,133.9614
118.6211,133.9939
118.6536,134.0426
118.6650,134.1000
118.6650,135.4000
118.6536,135.4574
118.6211,135.5061
118.5724,135.5386
118.5150,135.5500
Z" /> 
<path style="fill:#000000; fill-opacity:1.0000; stroke:none;fill-rule:evenodd;"
d="M 116.9450,135.5500
116.8876,135.5386
116.8389,135.5061
116.8064,135.4574
116.7950,135.4000
116.7950,134.1000
116.8064,134.0426
116.8389,133.9939
116.8876,133.9614
116.9450,133.9500
117.2450,133.9500
117.3024,133.9614
117.3511,133.9939
117.3836,134.0426
117.3950,134.1000
117.3950,135.4000
117.3836,135.4574
117.3511,135.5061
117.3024,135.5386
117.2450,135.5500
Z" /> 
<path style="fill:#000000; fill-opacity:1.0000; stroke:none;fill-rule:evenodd;"
d="M 115.6750,135.5500
115.6176,135.5386
115.5689,135.5061
115.5364,135.4574
115.5250,135.4000
115.5250,134.1000
115.5364,134.0426
115.5689,133.9939
115.6176,133.9614
115.6750,133.9500
115.9750,133.9500
116.0324,133.9614
116.0811,133.9939
116.1136,134.0426
116.1250,134.1000
116.1250,135.4000
116.1136,135.4574
116.0811,135.5061
116.0324,135.5386
115.9750,135.5500
Z" /> 
<path style="fill:#000000; fill-opacity:1.0000; stroke:none;fill-rule:evenodd;"
d="M 114.4050,135.5500
114.3476,135.5386
114.2989,135.5061
114.2664,135.4574
114.2550,135.4000
114.2550,134.1000
114.2664,134.0426
114.2989,133.9939
114.3476,133.9614
114.4050,133.9500
114.7050,133.9500
114.7624,133.9614
114.8111,133.9939
114.8436,134.0426
114.8550,134.1000
114.8550,135.4000
114.8436,135.4574
114.8111,135.5061
114.7624,135.5386
114.7050,135.5500
Z" /> 
<path style="fill:#000000; fill-opacity:1.0000; stroke:none;fill-rule:evenodd;"
d="M 81.7500,138.3375
81.6639,138.3204
81.5909,138.2716
81.5421,138.1986
81.5250,138.1125
81.5250,137.6625
81.5421,137.5764
81.5909,137.5034
81.6639,137.4546
81.7500,137.4375
82.2500,137.4375
82.3361,137.4546
82.4091,137.5034
82.4579,137.5764
82.4750,137.6625
82.4750,138.1125
82.4579,138.1986
82.4091,138.2716
82.3361,138.3204
82.2500,138.3375
Z" /> 
<path style="fill:#000000; fill-opacity:1.0000; stroke:none;fill-rule:evenodd;"
d="M 81.7500,136.7875
81.6639,136.7704
81.5909,136.7216
81.5421,136.6486
81.5250,136.5625
81.5250,136.1125
81.5421,136.0264
81.5909,135.9534
81.6639,135.9046
81.7500,135.8875
82.2500,135.8875
82.3361,135.9046
82.4091,135.9534
82.4579,136.0264
82.4750,136.1125
82.4750,136.5625
82.4579,136.6486
82.4091,136.7216
82.3361,136.7704
82.2500,136.7875
Z" /> 
<path style="fill:#000000; fill-opacity:1.0000; stroke:none;fill-rule:evenodd;"
d="M 72.9375,155.7250
72.9527,155.6485
72.9961,155.5836
73.0610,155.5402
73.1375,155.5250
73.5375,155.5250
73.6140,155.5402
73.6789,155.5836
73.7223,155.6485
73.7375,155.7250
73.7375,156.2750
73.7223,156.3515
73.6789,156.4164
73.6140,156.4598
73.5375,156.4750
73.1375,156.4750
73.0610,156.4598
72.9961,156.4164
72.9527,156.3515
72.9375,156.2750
Z" /> 
<path style="fill:#000000; fill-opacity:1.0000; stroke:none;fill-rule:evenodd;"
d="M 74.5875,155.7250
74.6027,155.6485
74.6461,155.5836
74.7110,155.5402
74.7875,155.5250
75.1875,155.5250
75.2640,155.5402
75.3289,155.5836
75.3723,155.6485
75.3875,155.7250
75.3875,156.2750
75.3723,156.3515
75.3289,156.4164
75.2640,156.4598
75.1875,156.4750
74.7875,156.4750
74.7110,156.4598
74.6461,156.4164
74.6027,156.3515
74.5875,156.2750
Z" /> 
<path style="fill:#000000; fill-opacity:1.0000; stroke:none;fill-rule:evenodd;"
d="M 120.2500,119.2000
120.1639,119.1829
120.0909,119.1341
120.0421,119.0611
120.0250,118.9750
120.0250,118.5250
120.0421,118.4389
120.0909,118.3659
120.1639,118.3171
120.2500,118.3000
120.7500,118.3000
120.8361,118.3171
120.9091,118.3659
120.9579,118.4389
120.9750,118.5250
120.9750,118.9750
120.9579,119.0611
120.9091,119.1341
120.8361,119.1829
120.7500,119.2000
Z" /> 
<path style="fill:#000000; fill-opacity:1.0000; stroke:none;fill-rule:evenodd;"
d="M 120.2500,117.6500
120.1639,117.6329
120.0909,117.5841
120.0421,117.5111
120.0250,117.4250
120.0250,116.9750
120.0421,116.8889
120.0909,116.8159
120.1639,116.7671
120.2500,116.7500
120.7500,116.7500
120.8361,116.7671
120.9091,116.8159
120.9579,116.8889
120.9750,116.9750
120.9750,117.4250
120.9579,117.5111
120.9091,117.5841
120.8361,117.6329
120.7500,117.6500
Z" /> 
<path style="fill:#000000; fill-opacity:1.0000; stroke:none;fill-rule:evenodd;"
d="M 72.9375,153.2250
72.9527,153.1485
72.9961,153.0836
73.0610,153.0402
73.1375,153.0250
73.5375,153.0250
73.6140,153.0402
73.6789,153.0836
73.7223,153.1485
73.7375,153.2250
73.7375,153.7750
73.7223,153.8515
73.6789,153.9164
73.6140,153.9598
73.5375,153.9750
73.1375,153.9750
73.0610,153.9598
72.9961,153.9164
72.9527,153.8515
72.9375,153.7750
Z" /> 
<path style="fill:#000000; fill-opacity:1.0000; stroke:none;fill-rule:evenodd;"
d="M 74.5875,153.2250
74.6027,153.1485
74.6461,153.0836
74.7110,153.0402
74.7875,153.0250
75.1875,153.0250
75.2640,153.0402
75.3289,153.0836
75.3723,153.1485
75.3875,153.2250
75.3875,153.7750
75.3723,153.8515
75.3289,153.9164
75.2640,153.9598
75.1875,153.9750
74.7875,153.9750
74.7110,153.9598
74.6461,153.9164
74.6027,153.8515
74.5875,153.7750
Z" /> 
<path style="fill:#000000; fill-opacity:1.0000; stroke:none;fill-rule:evenodd;"
d="M 139.7000,119.7250
139.7152,119.6485
139.7586,119.5836
139.8235,119.5402
139.9000,119.5250
140.3000,119.5250
140.3765,119.5402
140.4414,119.5836
140.4848,119.6485
140.5000,119.7250
140.5000,120.2750
140.4848,120.3515
140.4414,120.4164
140.3765,120.4598
140.3000,120.4750
139.9000,120.4750
139.8235,120.4598
139.7586,120.4164
139.7152,120.3515
139.7000,120.2750
Z" /> 
<path style="fill:#000000; fill-opacity:1.0000; stroke:none;fill-rule:evenodd;"
d="M 141.3500,119.7250
141.3652,119.6485
141.4086,119.5836
141.4735,119.5402
141.5500,119.5250
141.9500,119.5250
142.0265,119.5402
142.0914,119.5836
142.1348,119.6485
142.1500,119.7250
142.1500,120.2750
142.1348,120.3515
142.0914,120.4164
142.0265,120.4598
141.9500,120.4750
141.5500,120.4750
141.4735,120.4598
141.4086,120.4164
141.3652,120.3515
141.3500,120.2750
Z" /> 
<path style="fill:#000000; fill-opacity:1.0000; stroke:none;fill-rule:evenodd;"
d="M 122.9750,130.6552
122.8985,130.6400
122.8336,130.5966
122.7902,130.5317
122.7750,130.4552
122.7750,130.0552
122.7902,129.9787
122.8336,129.9138
122.8985,129.8704
122.9750,129.8552
123.5250,129.8552
123.6015,129.8704
123.6664,129.9138
123.7098,129.9787
123.7250,130.0552
123.7250,130.4552
123.7098,130.5317
123.6664,130.5966
123.6015,130.6400
123.5250,130.6552
Z" /> 
<path style="fill:#000000; fill-opacity:1.0000; stroke:none;fill-rule:evenodd;"
d="M 122.9750,129.0052
122.8985,128.9900
122.8336,128.9466
122.7902,128.8817
122.7750,128.8052
122.7750,128.4052
122.7902,128.3287
122.8336,128.2638
122.8985,128.2204
122.9750,128.2052
123.5250,128.2052
123.6015,128.2204
123.6664,128.2638
123.7098,128.3287
123.7250,128.4052
123.7250,128.8052
123.7098,128.8817
123.6664,128.9466
123.6015,128.9900
123.5250,129.0052
Z" /> 
<path style="fill:#000000; fill-opacity:1.0000; stroke:none;fill-rule:evenodd;"
d="M 139.4500,129.9750
139.4652,129.8985
139.5086,129.8336
139.5735,129.7902
139.6500,129.7750
140.0500,129.7750
140.1265,129.7902
140.1914,129.8336
140.2348,129.8985
140.2500,129.9750
140.2500,130.5250
140.2348,130.6015
140.1914,130.6664
140.1265,130.7098
140.0500,130.7250
139.6500,130.7250
139.5735,130.7098
139.5086,130.6664
139.4652,130.6015
139.4500,130.5250
Z" /> 
<path style="fill:#000000; fill-opacity:1.0000; stroke:none;fill-rule:evenodd;"
d="M 141.1000,129.9750
141.1152,129.8985
141.1586,129.8336
141.2235,129.7902
141.3000,129.7750
141.7000,129.7750
141.7765,129.7902
141.8414,129.8336
141.8848,129.8985
141.9000,129.9750
141.9000,130.5250
141.8848,130.6015
141.8414,130.6664
141.7765,130.7098
141.7000,130.7250
141.3000,130.7250
141.2235,130.7098
141.1586,130.6664
141.1152,130.6015
141.1000,130.5250
Z" /> 
<path style="fill:#000000; fill-opacity:1.0000; stroke:none;fill-rule:evenodd;"
d="M 72.9375,148.2250
72.9527,148.1485
72.9961,148.0836
73.0610,148.0402
73.1375,148.0250
73.5375,148.0250
73.6140,148.0402
73.6789,148.0836
73.7223,148.1485
73.7375,148.2250
73.7375,148.7750
73.7223,148.8515
73.6789,148.9164
73.6140,148.9598
73.5375,148.9750
73.1375,148.9750
73.0610,148.9598
72.9961,148.9164
72.9527,148.8515
72.9375,148.7750
Z" /> 
<path style="fill:#000000; fill-opacity:1.0000; stroke:none;fill-rule:evenodd;"
d="M 74.5875,148.2250
74.6027,148.1485
74.6461,148.0836
74.7110,148.0402
74.7875,148.0250
75.1875,148.0250
75.2640,148.0402
75.3289,148.0836
75.3723,148.1485
75.3875,148.2250
75.3875,148.7750
75.3723,148.8515
75.3289,148.9164
75.2640,148.9598
75.1875,148.9750
74.7875,148.9750
74.7110,148.9598
74.6461,148.9164
74.6027,148.8515
74.5875,148.7750
Z" /> 
<path style="fill:#000000; fill-opacity:1.0000; stroke:none;fill-rule:evenodd;"
d="M 72.9375,143.2250
72.9527,143.1485
72.9961,143.0836
73.0610,143.0402
73.1375,143.0250
73.5375,143.0250
73.6140,143.0402
73.6789,143.0836
73.7223,143.1485
73.7375,143.2250
73.7375,143.7750
73.7223,143.8515
73.6789,143.9164
73.6140,143.9598
73.5375,143.9750
73.1375,143.9750
73.0610,143.9598
72.9961,143.9164
72.9527,143.8515
72.9375,143.7750
Z" /> 
<path style="fill:#000000; fill-opacity:1.0000; stroke:none;fill-rule:evenodd;"
d="M 74.5875,143.2250
74.6027,143.1485
74.6461,143.0836
74.7110,143.0402
74.7875,143.0250
75.1875,143.0250
75.2640,143.0402
75.3289,143.0836
75.3723,143.1485
75.3875,143.2250
75.3875,143.7750
75.3723,143.8515
75.3289,143.9164
75.2640,143.9598
75.1875,143.9750
74.7875,143.9750
74.7110,143.9598
74.6461,143.9164
74.6027,143.8515
74.5875,143.7750
Z" /> 
<path style="fill:#000000; fill-opacity:1.0000; stroke:none;fill-rule:evenodd;"
d="M 117.5500,119.2250
117.4639,119.2079
117.3909,119.1591
117.3421,119.0861
117.3250,119.0000
117.3250,118.5500
117.3421,118.4639
117.3909,118.3909
117.4639,118.3421
117.5500,118.3250
118.0500,118.3250
118.1361,118.3421
118.2091,118.3909
118.2579,118.4639
118.2750,118.5500
118.2750,119.0000
118.2579,119.0861
118.2091,119.1591
118.1361,119.2079
118.0500,119.2250
Z" /> 
<path style="fill:#000000; fill-opacity:1.0000; stroke:none;fill-rule:evenodd;"
d="M 117.5500,117.6750
117.4639,117.6579
117.3909,117.6091
117.3421,117.5361
117.3250,117.4500
117.3250,117.0000
117.3421,116.9139
117.3909,116.8409
117.4639,116.7921
117.5500,116.7750
118.0500,116.7750
118.1361,116.7921
118.2091,116.8409
118.2579,116.9139
118.2750,117.0000
118.2750,117.4500
118.2579,117.5361
118.2091,117.6091
118.1361,117.6579
118.0500,117.6750
Z" /> 
<path style="fill:#000000; fill-opacity:1.0000; stroke:none;fill-rule:evenodd;"
d="M 72.9375,145.7250
72.9527,145.6485
72.9961,145.5836
73.0610,145.5402
73.1375,145.5250
73.5375,145.5250
73.6140,145.5402
73.6789,145.5836
73.7223,145.6485
73.7375,145.7250
73.7375,146.2750
73.7223,146.3515
73.6789,146.4164
73.6140,146.4598
73.5375,146.4750
73.1375,146.4750
73.0610,146.4598
72.9961,146.4164
72.9527,146.3515
72.9375,146.2750
Z" /> 
<path style="fill:#000000; fill-opacity:1.0000; stroke:none;fill-rule:evenodd;"
d="M 74.5875,145.7250
74.6027,145.6485
74.6461,145.5836
74.7110,145.5402
74.7875,145.5250
75.1875,145.5250
75.2640,145.5402
75.3289,145.5836
75.3723,145.6485
75.3875,145.7250
75.3875,146.2750
75.3723,146.3515
75.3289,146.4164
75.2640,146.4598
75.1875,146.4750
74.7875,146.4750
74.7110,146.4598
74.6461,146.4164
74.6027,146.3515
74.5875,146.2750
Z" /> 
<path style="fill:#000000; fill-opacity:1.0000; stroke:none;fill-rule:evenodd;"
d="M 115.1775,126.9677
115.1201,126.9563
115.0714,126.9238
115.0389,126.8751
115.0275,126.8177
115.0275,125.1677
115.0389,125.1103
115.0714,125.0616
115.1201,125.0291
115.1775,125.0177
115.4775,125.0177
115.5349,125.0291
115.5836,125.0616
115.6161,125.1103
115.6275,125.1677
115.6275,126.8177
115.6161,126.8751
115.5836,126.9238
115.5349,126.9563
115.4775,126.9677
Z" /> 
<path style="fill:#000000; fill-opacity:1.0000; stroke:none;fill-rule:evenodd;"
d="M 116.4475,126.9677
116.3901,126.9563
116.3414,126.9238
116.3089,126.8751
116.2975,126.8177
116.2975,125.1677
116.3089,125.1103
116.3414,125.0616
116.3901,125.0291
116.4475,125.0177
116.7475,125.0177
116.8049,125.0291
116.8536,125.0616
116.8861,125.1103
116.8975,125.1677
116.8975,126.8177
116.8861,126.8751
116.8536,126.9238
116.8049,126.9563
116.7475,126.9677
Z" /> 
<path style="fill:#000000; fill-opacity:1.0000; stroke:none;fill-rule:evenodd;"
d="M 117.7175,126.9677
117.6601,126.9563
117.6114,126.9238
117.5789,126.8751
117.5675,126.8177
117.5675,125.1677
117.5789,125.1103
117.6114,125.0616
117.6601,125.0291
117.7175,125.0177
118.0175,125.0177
118.0749,125.0291
118.1236,125.0616
118.1561,125.1103
118.1675,125.1677
118.1675,126.8177
118.1561,126.8751
118.1236,126.9238
118.0749,126.9563
118.0175,126.9677
Z" /> 
<path style="fill:#000000; fill-opacity:1.0000; stroke:none;fill-rule:evenodd;"
d="M 118.9875,126.9677
118.9301,126.9563
118.8814,126.9238
118.8489,126.8751
118.8375,126.8177
118.8375,125.1677
118.8489,125.1103
118.8814,125.0616
118.9301,125.0291
118.9875,125.0177
119.2875,125.0177
119.3449,125.0291
119.3936,125.0616
119.4261,125.1103
119.4375,125.1677
119.4375,126.8177
119.4261,126.8751
119.3936,126.9238
119.3449,126.9563
119.2875,126.9677
Z" /> 
<path style="fill:#000000; fill-opacity:1.0000; stroke:none;fill-rule:evenodd;"
d="M 120.2575,126.9677
120.2001,126.9563
120.1514,126.9238
120.1189,126.8751
120.1075,126.8177
120.1075,125.1677
120.1189,125.1103
120.1514,125.0616
120.2001,125.0291
120.2575,125.0177
120.5575,125.0177
120.6149,125.0291
120.6636,125.0616
120.6961,125.1103
120.7075,125.1677
120.7075,126.8177
120.6961,126.8751
120.6636,126.9238
120.6149,126.9563
120.5575,126.9677
Z" /> 
<path style="fill:#000000; fill-opacity:1.0000; stroke:none;fill-rule:evenodd;"
d="M 121.5275,126.9677
121.4701,126.9563
121.4214,126.9238
121.3889,126.8751
121.3775,126.8177
121.3775,125.1677
121.3889,125.1103
121.4214,125.0616
121.4701,125.0291
121.5275,125.0177
121.8275,125.0177
121.8849,125.0291
121.9336,125.0616
121.9661,125.1103
121.9775,125.1677
121.9775,126.8177
121.9661,126.8751
121.9336,126.9238
121.8849,126.9563
121.8275,126.9677
Z" /> 
<path style="fill:#000000; fill-opacity:1.0000; stroke:none;fill-rule:evenodd;"
d="M 122.7975,126.9677
122.7401,126.9563
122.6914,126.9238
122.6589,126.8751
122.6475,126.8177
122.6475,125.1677
122.6589,125.1103
122.6914,125.0616
122.7401,125.0291
122.7975,125.0177
123.0975,125.0177
123.1549,125.0291
123.2036,125.0616
123.2361,125.1103
123.2475,125.1677
123.2475,126.8177
123.2361,126.8751
123.2036,126.9238
123.1549,126.9563
123.0975,126.9677
Z" /> 
<path style="fill:#000000; fill-opacity:1.0000; stroke:none;fill-rule:evenodd;"
d="M 122.7975,122.0177
122.7401,122.0063
122.6914,121.9738
122.6589,121.9251
122.6475,121.8677
122.6475,120.2177
122.6589,120.1603
122.6914,120.1116
122.7401,120.0791
122.7975,120.0677
123.0975,120.0677
123.1549,120.0791
123.2036,120.1116
123.2361,120.1603
123.2475,120.2177
123.2475,121.8677
123.2361,121.9251
123.2036,121.9738
123.1549,122.0063
123.0975,122.0177
Z" /> 
<path style="fill:#000000; fill-opacity:1.0000; stroke:none;fill-rule:evenodd;"
d="M 121.5275,122.0177
121.4701,122.0063
121.4214,121.9738
121.3889,121.9251
121.3775,121.8677
121.3775,120.2177
121.3889,120.1603
121.4214,120.1116
121.4701,120.0791
121.5275,120.0677
121.8275,120.0677
121.8849,120.0791
121.9336,120.1116
121.9661,120.1603
121.9775,120.2177
121.9775,121.8677
121.9661,121.9251
121.9336,121.9738
121.8849,122.0063
121.8275,122.0177
Z" /> 
<path style="fill:#000000; fill-opacity:1.0000; stroke:none;fill-rule:evenodd;"
d="M 120.2575,122.0177
120.2001,122.0063
120.1514,121.9738
120.1189,121.9251
120.1075,121.8677
120.1075,120.2177
120.1189,120.1603
120.1514,120.1116
120.2001,120.0791
120.2575,120.0677
120.5575,120.0677
120.6149,120.0791
120.6636,120.1116
120.6961,120.1603
120.7075,120.2177
120.7075,121.8677
120.6961,121.9251
120.6636,121.9738
120.6149,122.0063
120.5575,122.0177
Z" /> 
<path style="fill:#000000; fill-opacity:1.0000; stroke:none;fill-rule:evenodd;"
d="M 118.9875,122.0177
118.9301,122.0063
118.8814,121.9738
118.8489,121.9251
118.8375,121.8677
118.8375,120.2177
118.8489,120.1603
118.8814,120.1116
118.9301,120.0791
118.9875,120.0677
119.2875,120.0677
119.3449,120.0791
119.3936,120.1116
119.4261,120.1603
119.4375,120.2177
119.4375,121.8677
119.4261,121.9251
119.3936,121.9738
119.3449,122.0063
119.2875,122.0177
Z" /> 
<path style="fill:#000000; fill-opacity:1.0000; stroke:none;fill-rule:evenodd;"
d="M 117.7175,122.0177
117.6601,122.0063
117.6114,121.9738
117.5789,121.9251
117.5675,121.8677
117.5675,120.2177
117.5789,120.1603
117.6114,120.1116
117.6601,120.0791
117.7175,120.0677
118.0175,120.0677
118.0749,120.0791
118.1236,120.1116
118.1561,120.1603
118.1675,120.2177
118.1675,121.8677
118.1561,121.9251
118.1236,121.9738
118.0749,122.0063
118.0175,122.0177
Z" /> 
<path style="fill:#000000; fill-opacity:1.0000; stroke:none;fill-rule:evenodd;"
d="M 116.4475,122.0177
116.3901,122.0063
116.3414,121.9738
116.3089,121.9251
116.2975,121.8677
116.2975,120.2177
116.3089,120.1603
116.3414,120.1116
116.3901,120.0791
116.4475,120.0677
116.7475,120.0677
116.8049,120.0791
116.8536,120.1116
116.8861,120.1603
116.8975,120.2177
116.8975,121.8677
116.8861,121.9251
116.8536,121.9738
116.8049,122.0063
116.7475,122.0177
Z" /> 
<path style="fill:#000000; fill-opacity:1.0000; stroke:none;fill-rule:evenodd;"
d="M 115.1775,122.0177
115.1201,122.0063
115.0714,121.9738
115.0389,121.9251
115.0275,121.8677
115.0275,120.2177
115.0389,120.1603
115.0714,120.1116
115.1201,120.0791
115.1775,120.0677
115.4775,120.0677
115.5349,120.0791
115.5836,120.1116
115.6161,120.1603
115.6275,120.2177
115.6275,121.8677
115.6161,121.9251
115.5836,121.9738
115.5349,122.0063
115.4775,122.0177
Z" /> 
<path style="fill:#000000; fill-opacity:1.0000; stroke:none;fill-rule:evenodd;"
d="M 130.0500,129.7000
130.0690,129.6043
130.1232,129.5232
130.2043,129.4690
130.3000,129.4500
132.8000,129.4500
132.8957,129.4690
132.9768,129.5232
133.0310,129.6043
133.0500,129.7000
133.0500,130.8000
133.0310,130.8957
132.9768,130.9768
132.8957,131.0310
132.8000,131.0500
130.3000,131.0500
130.2043,131.0310
130.1232,130.9768
130.0690,130.8957
130.0500,130.8000
Z" /> 
<path style="fill:#000000; fill-opacity:1.0000; stroke:none;fill-rule:evenodd;"
d="M 134.4500,129.7000
134.4690,129.6043
134.5232,129.5232
134.6043,129.4690
134.7000,129.4500
137.2000,129.4500
137.2957,129.4690
137.3768,129.5232
137.4310,129.6043
137.4500,129.7000
137.4500,130.8000
137.4310,130.8957
137.3768,130.9768
137.2957,131.0310
137.2000,131.0500
134.7000,131.0500
134.6043,131.0310
134.5232,130.9768
134.4690,130.8957
134.4500,130.8000
Z" /> 
<path style="fill:#000000; fill-opacity:1.0000; stroke:none;fill-rule:evenodd;"
d="M 90.6500,135.1500
90.7457,135.1690
90.8268,135.2232
90.8810,135.3043
90.9000,135.4000
90.9000,136.0500
90.8810,136.1457
90.8268,136.2268
90.7457,136.2810
90.6500,136.3000
89.3500,136.3000
89.2543,136.2810
89.1732,136.2268
89.1190,136.1457
89.1000,136.0500
89.1000,135.4000
89.1190,135.3043
89.1732,135.2232
89.2543,135.1690
89.3500,135.1500
Z" /> 
<path style="fill:#000000; fill-opacity:1.0000; stroke:none;fill-rule:evenodd;"
d="M 90.6500,138.1000
90.7457,138.1190
90.8268,138.1732
90.8810,138.2543
90.9000,138.3500
90.9000,139.0000
90.8810,139.0957
90.8268,139.1768
90.7457,139.2310
90.6500,139.2500
89.3500,139.2500
89.2543,139.2310
89.1732,139.1768
89.1190,139.0957
89.1000,139.0000
89.1000,138.3500
89.1190,138.2543
89.1732,138.1732
89.2543,138.1190
89.3500,138.1000
Z" /> 
<path style="fill:#000000; fill-opacity:1.0000; stroke:none;fill-rule:evenodd;"
d="M 72.9375,150.7250
72.9527,150.6485
72.9961,150.5836
73.0610,150.5402
73.1375,150.5250
73.5375,150.5250
73.6140,150.5402
73.6789,150.5836
73.7223,150.6485
73.7375,150.7250
73.7375,151.2750
73.7223,151.3515
73.6789,151.4164
73.6140,151.4598
73.5375,151.4750
73.1375,151.4750
73.0610,151.4598
72.9961,151.4164
72.9527,151.3515
72.9375,151.2750
Z" /> 
<path style="fill:#000000; fill-opacity:1.0000; stroke:none;fill-rule:evenodd;"
d="M 74.5875,150.7250
74.6027,150.6485
74.6461,150.5836
74.7110,150.5402
74.7875,150.5250
75.1875,150.5250
75.2640,150.5402
75.3289,150.5836
75.3723,150.6485
75.3875,150.7250
75.3875,151.2750
75.3723,151.3515
75.3289,151.4164
75.2640,151.4598
75.1875,151.4750
74.7875,151.4750
74.7110,151.4598
74.6461,151.4164
74.6027,151.3515
74.5875,151.2750
Z" /> 
<path style="fill:#000000; fill-opacity:1.0000; stroke:none;fill-rule:evenodd;"
d="M 95.5500,139.2500
95.4543,139.2310
95.3732,139.1768
95.3190,139.0957
95.3000,139.0000
95.3000,138.3500
95.3190,138.2543
95.3732,138.1732
95.4543,138.1190
95.5500,138.1000
96.8500,138.1000
96.9457,138.1190
97.0268,138.1732
97.0810,138.2543
97.1000,138.3500
97.1000,139.0000
97.0810,139.0957
97.0268,139.1768
96.9457,139.2310
96.8500,139.2500
Z" /> 
<path style="fill:#000000; fill-opacity:1.0000; stroke:none;fill-rule:evenodd;"
d="M 95.5500,136.3000
95.4543,136.2810
95.3732,136.2268
95.3190,136.1457
95.3000,136.0500
95.3000,135.4000
95.3190,135.3043
95.3732,135.2232
95.4543,135.1690
95.5500,135.1500
96.8500,135.1500
96.9457,135.1690
97.0268,135.2232
97.0810,135.3043
97.1000,135.4000
97.1000,136.0500
97.0810,136.1457
97.0268,136.2268
96.9457,136.2810
96.8500,136.3000
Z" /> 
<path style="fill:#000000; fill-opacity:1.0000; stroke:none;fill-rule:evenodd;"
d="M 129.8000,119.4500
129.8190,119.3543
129.8732,119.2732
129.9543,119.2190
130.0500,119.2000
132.5500,119.2000
132.6457,119.2190
132.7268,119.2732
132.7810,119.3543
132.8000,119.4500
132.8000,120.5500
132.7810,120.6457
132.7268,120.7268
132.6457,120.7810
132.5500,120.8000
130.0500,120.8000
129.9543,120.7810
129.8732,120.7268
129.8190,120.6457
129.8000,120.5500
Z" /> 
<path style="fill:#000000; fill-opacity:1.0000; stroke:none;fill-rule:evenodd;"
d="M 134.2000,119.4500
134.2190,119.3543
134.2732,119.2732
134.3543,119.2190
134.4500,119.2000
136.9500,119.2000
137.0457,119.2190
137.1268,119.2732
137.1810,119.3543
137.2000,119.4500
137.2000,120.5500
137.1810,120.6457
137.1268,120.7268
137.0457,120.7810
136.9500,120.8000
134.4500,120.8000
134.3543,120.7810
134.2732,120.7268
134.2190,120.6457
134.2000,120.5500
Z" /> 
<path style="fill:#000000; fill-opacity:1.0000; stroke:none;fill-rule:evenodd;"
d="M 101.5000,151.2250
101.4139,151.2079
101.3409,151.1591
101.2921,151.0861
101.2750,151.0000
101.2750,150.5500
101.2921,150.4639
101.3409,150.3909
101.4139,150.3421
101.5000,150.3250
102.0000,150.3250
102.0861,150.3421
102.1591,150.3909
102.2079,150.4639
102.2250,150.5500
102.2250,151.0000
102.2079,151.0861
102.1591,151.1591
102.0861,151.2079
102.0000,151.2250
Z" /> 
<path style="fill:#000000; fill-opacity:1.0000; stroke:none;fill-rule:evenodd;"
d="M 101.5000,149.6750
101.4139,149.6579
101.3409,149.6091
101.2921,149.5361
101.2750,149.4500
101.2750,149.0000
101.2921,148.9139
101.3409,148.8409
101.4139,148.7921
101.5000,148.7750
102.0000,148.7750
102.0861,148.7921
102.1591,148.8409
102.2079,148.9139
102.2250,149.0000
102.2250,149.4500
102.2079,149.5361
102.1591,149.6091
102.0861,149.6579
102.0000,149.6750
Z" /> 
<path style="fill:#000000; fill-opacity:1.0000; stroke:none;fill-rule:evenodd;"
d="M 139.7000,124.9750
139.7152,124.8985
139.7586,124.8336
139.8235,124.7902
139.9000,124.7750
140.3000,124.7750
140.3765,124.7902
140.4414,124.8336
140.4848,124.8985
140.5000,124.9750
140.5000,125.5250
140.4848,125.6015
140.4414,125.6664
140.3765,125.7098
140.3000,125.7250
139.9000,125.7250
139.8235,125.7098
139.7586,125.6664
139.7152,125.6015
139.7000,125.5250
Z" /> 
<path style="fill:#000000; fill-opacity:1.0000; stroke:none;fill-rule:evenodd;"
d="M 141.3500,124.9750
141.3652,124.8985
141.4086,124.8336
141.4735,124.7902
141.5500,124.7750
141.9500,124.7750
142.0265,124.7902
142.0914,124.8336
142.1348,124.8985
142.1500,124.9750
142.1500,125.5250
142.1348,125.6015
142.0914,125.6664
142.0265,125.7098
141.9500,125.7250
141.5500,125.7250
141.4735,125.7098
141.4086,125.6664
141.3652,125.6015
141.3500,125.5250
Z" /> 
<path style="fill:#000000; fill-opacity:1.0000; stroke:none;fill-rule:evenodd;"
d="M 139.5250,134.9750
139.5402,134.8985
139.5836,134.8336
139.6485,134.7902
139.7250,134.7750
140.1250,134.7750
140.2015,134.7902
140.2664,134.8336
140.3098,134.8985
140.3250,134.9750
140.3250,135.5250
140.3098,135.6015
140.2664,135.6664
140.2015,135.7098
140.1250,135.7250
139.7250,135.7250
139.6485,135.7098
139.5836,135.6664
139.5402,135.6015
139.5250,135.5250
Z" /> 
<path style="fill:#000000; fill-opacity:1.0000; stroke:none;fill-rule:evenodd;"
d="M 141.1750,134.9750
141.1902,134.8985
141.2336,134.8336
141.2985,134.7902
141.3750,134.7750
141.7750,134.7750
141.8515,134.7902
141.9164,134.8336
141.9598,134.8985
141.9750,134.9750
141.9750,135.5250
141.9598,135.6015
141.9164,135.6664
141.8515,135.7098
141.7750,135.7250
141.3750,135.7250
141.2985,135.7098
141.2336,135.6664
141.1902,135.6015
141.1750,135.5250
Z" /> 
<path style="fill:#000000; fill-opacity:1.0000; stroke:none;fill-rule:evenodd;"
d="M 87.2500,135.8875
87.3361,135.9046
87.4091,135.9534
87.4579,136.0264
87.4750,136.1125
87.4750,136.5625
87.4579,136.6486
87.4091,136.7216
87.3361,136.7704
87.2500,136.7875
86.7500,136.7875
86.6639,136.7704
86.5909,136.7216
86.5421,136.6486
86.5250,136.5625
86.5250,136.1125
86.5421,136.0264
86.5909,135.9534
86.6639,135.9046
86.7500,135.8875
Z" /> 
<path style="fill:#000000; fill-opacity:1.0000; stroke:none;fill-rule:evenodd;"
d="M 87.2500,137.4375
87.3361,137.4546
87.4091,137.5034
87.4579,137.5764
87.4750,137.6625
87.4750,138.1125
87.4579,138.1986
87.4091,138.2716
87.3361,138.3204
87.2500,138.3375
86.7500,138.3375
86.6639,138.3204
86.5909,138.2716
86.5421,138.1986
86.5250,138.1125
86.5250,137.6625
86.5421,137.5764
86.5909,137.5034
86.6639,137.4546
86.7500,137.4375
Z" /> 
<path style="fill:#000000; fill-opacity:1.0000; stroke:none;fill-rule:evenodd;"
d="M 84.7562,135.9000
84.8400,135.9167
84.9109,135.9641
84.9583,136.0350
84.9750,136.1188
84.9750,136.5563
84.9583,136.6400
84.9109,136.7109
84.8400,136.7583
84.7562,136.7750
84.2437,136.7750
84.1600,136.7583
84.0891,136.7109
84.0417,136.6400
84.0250,136.5563
84.0250,136.1188
84.0417,136.0350
84.0891,135.9641
84.1600,135.9167
84.2437,135.9000
Z" /> 
<path style="fill:#000000; fill-opacity:1.0000; stroke:none;fill-rule:evenodd;"
d="M 84.7562,137.4750
84.8400,137.4917
84.9109,137.5391
84.9583,137.6100
84.9750,137.6937
84.9750,138.1312
84.9583,138.2150
84.9109,138.2859
84.8400,138.3333
84.7562,138.3500
84.2437,138.3500
84.1600,138.3333
84.0891,138.2859
84.0417,138.2150
84.0250,138.1312
84.0250,137.6937
84.0417,137.6100
84.0891,137.5391
84.1600,137.4917
84.2437,137.4750
Z" /> 
</g> 
</svg>
